<?xml version="1.0" standalone="no"?>
<!DOCTYPE svg PUBLIC "-//W3C//DTD SVG 20010904//EN"
 "http://www.w3.org/TR/2001/REC-SVG-20010904/DTD/svg10.dtd">
<svg version="1.0" xmlns="http://www.w3.org/2000/svg"
 width="1024.000000pt" height="1024.000000pt" viewBox="0 0 1024.000000 1024.000000"
 preserveAspectRatio="xMidYMid meet">

<g transform="translate(0.000000,1024.000000) scale(0.100000,-0.100000)"
fill="#000000" stroke="none">
<path d="M1105 9547 c-100 -34 -180 -91 -212 -152 -10 -18 -16 -54 -16 -87 1
-119 69 -194 218 -244 185 -62 280 -120 423 -258 107 -103 154 -171 245 -351
72 -145 93 -191 166 -382 50 -133 73 -178 98 -200 17 -13 -12 -31 -282 -178
-488 -265 -589 -325 -599 -352 -4 -8 -6 -532 -6 -1164 0 -632 -3 -1149 -7
-1149 -5 0 -19 -9 -32 -19 -23 -18 -23 -18 -1 -16 12 1 26 8 31 16 5 8 9 10 9
4 -1 -5 -7 -19 -15 -29 -10 -13 -15 -15 -15 -6 0 7 -3 11 -6 7 -3 -3 -3 -11 1
-17 5 -8 11 -8 21 1 10 9 14 9 14 0 0 -17 -30 -25 -43 -12 -19 19 -28 12 -10
-7 10 -10 24 -17 30 -14 7 2 13 -1 13 -7 0 -6 -15 -11 -34 -11 -21 0 -33 5
-32 13 0 6 -3 13 -8 14 -5 1 -13 7 -17 15 -7 10 -9 8 -9 -6 0 -12 5 -16 15
-12 8 3 15 1 15 -4 0 -6 -7 -10 -15 -10 -9 0 -18 -6 -21 -14 -7 -18 -42 -9
-47 13 -3 11 -5 10 -6 -5 -1 -16 6 -23 28 -27 18 -4 30 -14 34 -27 4 -15 2
-20 -8 -16 -7 2 -16 -2 -19 -10 -8 -21 -8 -24 5 -24 5 0 7 5 4 10 -9 15 4 12
22 -5 8 -8 20 -12 26 -8 8 5 7 9 -4 11 -10 2 -17 12 -16 25 0 12 -4 31 -8 41
-6 15 -5 17 5 11 9 -5 11 -4 6 3 -4 7 -2 12 3 12 6 0 11 -5 11 -11 0 -6 6 -9
14 -6 11 4 14 -3 11 -31 -1 -20 1 -45 5 -56 6 -18 7 -18 13 -2 4 11 12 14 19
10 10 -6 10 -4 0 8 -9 11 -10 18 -2 23 5 3 10 0 11 -7 0 -7 2 -23 5 -35 4 -21
-5 -28 -30 -24 -5 1 -23 -4 -40 -11 -17 -7 -39 -11 -48 -10 -13 2 -18 -3 -17
-20 0 -21 1 -21 8 -4 7 19 8 19 13 -2 4 -15 2 -22 -8 -22 -7 0 -19 -10 -25
-22 -11 -20 -13 -20 -24 -5 -13 18 -30 24 -20 7 3 -5 2 -10 -4 -10 -5 0 -12 6
-14 13 -4 9 -6 9 -6 -1 -1 -7 -6 -10 -13 -6 -7 4 -8 3 -4 -4 4 -7 3 -12 -3
-12 -5 0 -12 8 -14 18 -4 16 -5 16 -6 -1 0 -10 -5 -15 -11 -12 -6 4 -7 -1 -3
-11 4 -11 8 -13 11 -6 2 7 8 10 13 6 5 -3 15 -2 21 2 21 13 48 11 48 -3 0 -11
5 -11 20 -3 11 6 20 18 20 26 0 10 7 14 18 12 9 -2 15 -11 13 -19 -8 -32 -11
-53 -5 -41 3 6 11 9 17 5 6 -4 8 0 4 10 -3 9 -3 16 1 16 4 -1 16 -1 27 0 14 1
16 4 7 9 -7 5 -11 15 -9 23 2 8 2 11 0 7 -9 -17 -39 -7 -40 12 -1 11 2 18 7
15 4 -3 11 1 14 7 3 7 3 2 0 -12 -3 -14 -2 -20 3 -13 4 6 23 13 41 16 26 4 32
2 28 -9 -3 -8 -1 -14 4 -14 6 0 10 -4 10 -9 0 -4 -13 -7 -30 -5 -36 4 -39 -3
-7 -16 18 -7 18 -9 4 -9 -10 -1 -15 -6 -12 -11 4 -6 11 -7 17 -4 6 4 8 2 5 -3
-4 -6 -16 -13 -28 -16 -16 -4 -19 -2 -15 11 5 13 3 12 -9 -2 -18 -24 -20 -40
-3 -30 10 5 10 3 0 -7 -11 -12 -14 -12 -22 1 -9 13 -10 13 -10 0 0 -10 -3 -11
-8 -4 -5 9 -10 8 -19 -2 -8 -8 -9 -15 -3 -19 6 -3 10 0 10 7 0 9 3 9 10 -2 9
-13 10 -13 10 0 0 13 1 13 10 0 15 -24 12 -29 -17 -25 -16 2 -22 2 -15 -1 6
-3 10 -10 6 -15 -3 -5 -1 -9 5 -9 5 0 11 3 14 8 2 4 2 1 0 -7 -2 -7 6 -22 18
-32 18 -16 19 -19 6 -19 -10 0 -17 5 -17 11 0 5 -5 7 -11 3 -8 -5 -8 -9 1 -14
7 -5 10 -17 5 -31 -5 -19 -4 -21 4 -9 8 11 11 12 11 2 0 -22 -20 -51 -33 -48
-6 1 -9 1 -6 -1 4 -2 5 -14 2 -26 -4 -21 -4 -22 9 -2 13 21 58 27 70 11 4 -6
2 -19 -3 -30 -9 -19 -9 -20 4 -4 8 10 17 16 20 13 4 -3 5 -2 2 2 -3 3 1 13 8
21 10 13 9 15 -4 10 -13 -5 -16 -2 -12 12 5 19 33 36 33 21 0 -5 -6 -12 -12
-14 -10 -4 -10 -6 0 -6 17 -1 4 -52 -17 -69 -14 -11 -14 -11 1 -6 23 8 37 -24
17 -37 -22 -14 -32 -11 -24 9 5 13 3 14 -6 5 -16 -16 -1 -35 22 -28 13 4 19 2
19 -8 0 -10 -7 -13 -20 -10 -11 3 -20 0 -20 -6 0 -6 -6 -11 -14 -11 -8 0 -18
-5 -22 -12 -5 -8 -2 -9 9 -5 19 7 21 -1 8 -22 -7 -10 -12 -8 -25 10 -9 13 -16
18 -16 12 0 -7 -7 -10 -15 -7 -17 7 -21 34 -4 34 5 0 7 -6 3 -12 -4 -8 -2 -8
7 1 11 10 11 15 1 18 -6 3 -9 9 -6 14 3 6 11 6 20 -2 7 -6 12 -15 9 -19 -3 -5
4 -6 15 -3 11 3 20 10 20 15 0 5 -4 7 -9 3 -6 -3 -6 6 -1 25 5 19 5 28 -1 25
-5 -4 -9 1 -9 9 0 12 -8 15 -35 11 -30 -3 -35 -1 -35 15 0 23 -19 22 -37 0
-10 -12 -12 -13 -13 -1 0 8 -2 12 -5 9 -10 -10 8 -40 29 -48 17 -7 18 -9 4 -9
-10 -1 -18 -5 -18 -10 0 -5 -8 -7 -19 -4 -10 3 -22 -1 -27 -8 -5 -9 -2 -11 9
-6 9 3 19 2 22 -3 4 -6 1 -10 -6 -10 -7 0 -9 -3 -5 -7 4 -4 16 3 27 17 12 15
19 19 18 10 -3 -29 1 -41 11 -35 6 3 10 0 10 -7 0 -7 11 -23 25 -36 22 -21 25
-52 4 -52 -4 0 -6 -7 -2 -16 5 -13 9 -10 19 12 9 20 12 22 8 7 -6 -25 2 -28
26 -13 11 7 12 10 2 10 -24 0 -8 33 18 36 14 1 19 0 12 -2 -17 -8 -15 -25 2
-18 19 7 32 -16 15 -27 -9 -5 -10 -9 -2 -9 6 0 9 -9 6 -20 -3 -11 -10 -20 -15
-20 -5 0 -6 5 -3 10 4 6 3 10 -2 9 -4 -1 -15 -1 -23 1 -11 1 -9 4 5 10 19 8
19 9 -4 9 -17 1 -22 -3 -17 -15 3 -9 6 -18 6 -20 0 -3 4 -2 10 1 5 3 10 1 10
-4 0 -6 -4 -11 -10 -11 -5 0 -10 -5 -10 -10 0 -7 6 -7 20 0 25 13 26 2 3 -17
-10 -8 -12 -11 -4 -7 7 3 18 0 23 -7 8 -11 9 -11 5 3 -10 30 30 28 63 -2 17
-16 33 -29 36 -29 2 0 8 -1 12 -4 4 -2 1 -2 -5 -1 -7 2 -13 -3 -13 -10 0 -8
-3 -22 -7 -32 -4 -12 -3 -15 5 -10 7 4 12 2 12 -3 0 -6 -6 -11 -12 -12 -7 0
-23 -2 -36 -5 -13 -2 -31 0 -40 6 -12 6 -13 9 -3 10 8 0 11 7 8 21 -4 16 -3
18 8 9 8 -6 11 -19 8 -28 -4 -15 -3 -15 6 -2 6 8 11 11 11 5 0 -5 5 -4 12 3 9
9 9 15 -1 24 -10 11 -11 9 -6 -7 6 -20 6 -20 -9 -1 -9 11 -14 30 -11 45 5 26
5 26 -5 2 -8 -17 -16 -22 -32 -18 -15 4 -18 3 -10 -5 6 -6 8 -17 5 -26 -5 -11
-2 -13 8 -7 11 6 11 5 2 -5 -13 -14 -34 -5 -29 13 1 7 1 9 -1 5 -3 -5 -11 -8
-19 -8 -9 0 -12 -5 -9 -10 4 -6 10 -8 15 -5 5 3 11 1 15 -5 3 -5 0 -10 -7 -10
-7 0 -2 -7 10 -16 23 -16 31 -41 10 -28 -7 4 -10 4 -6 -1 11 -11 -12 -36 -26
-28 -6 3 -6 0 2 -8 10 -11 15 -9 28 10 13 18 18 20 25 10 7 -11 9 -11 9 1 0
13 1 13 10 0 5 -8 10 -10 10 -5 0 6 -5 17 -10 25 -9 13 -10 13 -10 0 0 -13 -2
-13 -9 0 -6 8 -8 17 -6 20 3 4 48 5 63 1 1 -1 -2 -11 -8 -23 -11 -22 -10 -22
4 -4 9 10 13 23 10 27 -3 5 2 9 10 9 8 0 20 10 27 21 6 12 7 19 2 16 -5 -4
-10 -1 -10 6 0 7 8 13 18 13 10 0 15 -5 12 -10 -4 -5 1 -7 9 -3 19 7 61 -20
53 -34 -4 -5 4 -9 15 -9 29 0 82 -38 73 -52 -4 -7 0 -9 10 -5 10 4 20 0 25 -9
5 -9 12 -15 15 -15 15 2 45 -23 40 -34 -2 -7 3 -15 11 -18 11 -4 13 -1 9 10
-4 11 -2 14 5 9 7 -4 12 -14 12 -21 0 -9 6 -12 15 -9 8 4 15 2 15 -4 0 -5 9
-12 20 -15 11 -3 24 -16 29 -29 8 -18 5 -27 -11 -40 -11 -10 -15 -18 -9 -18 6
0 8 -7 5 -15 -4 -8 -1 -16 5 -16 6 -1 16 -3 21 -4 6 -1 13 -3 17 -4 4 0 -2 -8
-13 -16 -10 -8 -14 -14 -9 -13 10 3 15 -4 15 -21 0 -13 -40 -21 -40 -8 0 7 -5
4 -11 -6 -5 -9 -7 -22 -4 -27 3 -6 2 -10 -4 -10 -5 0 -11 8 -13 17 -3 15 -5
15 -10 -3 -4 -17 -1 -21 16 -20 13 1 20 7 19 17 -2 9 5 15 18 16 18 2 19 0 7
-14 -12 -15 -11 -15 8 -3 11 7 21 19 22 26 1 8 3 21 4 29 1 16 18 21 18 5 0
-5 7 -6 17 -3 11 4 14 3 9 -5 -4 -7 -2 -12 3 -12 6 0 11 6 11 14 0 8 5 18 12
22 8 5 9 1 4 -12 -6 -15 -5 -16 5 -7 9 9 9 16 1 26 -7 8 -9 16 -6 20 3 3 -2 4
-12 3 -10 -2 -20 -9 -22 -17 -3 -11 -1 -11 7 1 9 13 11 13 11 -2 0 -10 -7 -18
-15 -18 -19 0 -20 40 -2 65 14 18 43 13 32 -6 -4 -5 -1 -9 5 -9 7 0 10 -7 6
-15 -8 -21 11 -19 23 3 10 16 10 16 11 -1 0 -10 5 -15 10 -12 6 4 17 1 25 -5
11 -9 12 -16 3 -30 -6 -10 -16 -17 -22 -16 -6 2 -8 1 -3 -1 13 -8 7 -23 -7
-17 -8 3 -17 1 -21 -5 -3 -7 0 -8 9 -5 19 7 21 -7 4 -25 -11 -10 -10 -11 5 -6
10 4 17 2 17 -4 0 -6 8 -11 18 -11 14 0 15 2 2 10 -8 5 -10 10 -4 10 6 0 11 7
11 15 0 8 -4 15 -9 15 -4 0 -8 -5 -8 -12 0 -6 -2 -9 -5 -6 -10 10 7 37 20 32
8 -4 15 3 17 16 l3 22 25 -23 c28 -26 33 -29 53 -29 8 0 8 -3 2 -8 -10 -6 -55
-78 -55 -87 0 -2 9 -1 19 2 11 3 17 11 15 18 -3 7 -1 23 6 34 8 16 15 19 28
12 9 -4 23 -6 30 -4 7 3 16 -4 19 -15 3 -13 11 -18 19 -15 15 5 19 -9 7 -21
-5 -4 -9 -12 -9 -17 -1 -5 -2 -10 -4 -11 -6 -9 -7 -37 0 -33 14 9 30 -19 20
-35 -14 -22 -12 -32 4 -18 8 7 13 18 13 23 -1 6 5 9 13 8 10 -2 20 10 28 29 9
26 14 29 26 19 8 -7 12 -19 9 -27 -4 -10 0 -12 11 -8 20 8 33 -23 16 -39 -10
-9 -12 -9 -8 3 4 11 -1 16 -16 17 -11 0 -15 -1 -8 -4 20 -8 14 -22 -7 -16 -13
3 -18 11 -14 21 4 14 3 15 -5 2 -6 -8 -8 -18 -6 -22 5 -8 -9 -12 -36 -9 -10 1
-11 -1 -4 -6 6 -4 14 -15 17 -23 4 -12 6 -11 6 3 1 9 5 17 10 17 5 0 17 3 25
6 12 5 15 2 10 -10 -3 -9 -10 -14 -14 -11 -5 3 -11 2 -14 -3 -2 -4 4 -8 14 -9
11 -1 20 7 24 20 3 12 7 19 10 16 3 -3 -1 -23 -9 -44 -8 -24 -14 -32 -15 -20
0 17 -2 17 -10 5 -14 -21 -12 -27 6 -27 9 0 19 9 22 19 3 15 11 18 28 14 19
-5 23 -1 29 24 4 17 11 28 16 24 5 -3 5 -13 -1 -24 -16 -29 -11 -38 5 -10 9
15 14 19 15 10 0 -12 2 -12 9 -2 6 10 10 6 16 -15 5 -15 7 -32 6 -36 -1 -5 3
-6 9 -2 6 3 8 10 5 15 -6 10 23 35 32 26 3 -3 1 -6 -5 -6 -7 0 -12 -8 -11 -17
0 -12 2 -13 6 -5 9 24 33 -8 28 -37 l-5 -26 11 28 c6 15 15 27 20 27 10 0 -11
-52 -26 -62 -6 -5 -3 -8 8 -8 10 0 17 8 17 19 0 11 5 23 10 26 6 3 10 0 10 -7
0 -11 2 -11 9 0 11 18 36 -12 27 -33 -3 -8 -1 -15 4 -15 6 0 10 5 10 11 0 8 4
9 13 0 8 -6 17 -8 20 -4 4 3 10 -3 14 -13 9 -25 26 -36 34 -22 4 6 13 -1 23
-18 8 -16 15 -23 16 -15 0 23 30 -8 31 -33 0 -20 1 -20 8 -2 7 19 8 19 22 0 8
-10 21 -19 29 -19 29 0 7 -72 -24 -78 l-21 -4 22 -2 c15 -1 26 8 35 26 17 35
32 39 46 11 9 -20 11 -21 11 -4 1 17 16 15 16 -2 1 -13 38 -63 43 -57 3 3 -3
14 -13 25 -24 27 -12 25 30 -3 19 -13 32 -27 27 -32 -4 -4 0 -6 9 -2 11 3 31
-7 54 -29 21 -19 42 -34 47 -34 6 0 7 -7 4 -16 -5 -14 -4 -15 8 -5 17 14 36 7
36 -14 0 -8 5 -17 12 -21 7 -4 8 -3 4 4 -12 19 13 14 49 -11 19 -13 32 -27 27
-32 -4 -5 -2 -5 4 -2 7 4 33 -5 58 -19 45 -25 62 -42 30 -30 -8 3 -12 2 -9 -3
3 -5 1 -12 -5 -16 -5 -3 -10 -11 -10 -18 0 -6 6 -4 13 5 27 34 63 25 80 -22 4
-12 6 -11 6 3 1 10 6 15 11 12 6 -4 8 -10 6 -14 -3 -4 1 -8 8 -8 17 0 183
-101 193 -117 5 -7 16 -16 26 -19 10 -4 15 -11 12 -17 -4 -6 1 -7 11 -3 12 4
15 3 10 -5 -5 -8 -2 -10 8 -6 10 4 18 -1 22 -10 8 -21 -4 -35 -15 -18 -6 9
-13 3 -24 -20 -11 -24 -13 -35 -4 -40 6 -4 15 -4 19 -2 4 3 8 -3 8 -13 0 -14
2 -15 9 -4 7 11 9 11 13 0 3 -9 6 -8 11 4 3 9 3 16 -1 16 -22 -4 -31 3 -25 19
5 14 3 13 -11 -3 -16 -20 -17 -20 -14 5 2 17 8 24 19 22 9 -1 22 5 29 14 12
14 15 13 26 -8 8 -13 13 -17 14 -10 0 10 8 9 30 -5 35 -20 37 -28 10 -43 -11
-6 -20 -16 -19 -23 0 -9 2 -9 6 1 2 6 9 10 14 6 5 -3 5 -12 0 -23 -7 -13 -6
-18 3 -18 8 0 12 10 10 29 -2 15 1 29 6 30 25 3 30 2 29 -7 0 -5 10 -12 23
-15 12 -3 28 -17 35 -30 7 -14 13 -19 13 -12 0 7 4 11 10 7 5 -3 8 -11 6 -18
-1 -7 -1 -9 1 -4 8 14 25 7 19 -8 -3 -8 -1 -15 4 -15 6 0 10 6 10 13 1 6 7 1
14 -12 10 -18 15 -20 19 -10 3 8 6 4 7 -11 1 -23 2 -23 10 -5 l9 20 0 -20 c1
-15 3 -17 10 -6 14 22 22 -4 11 -35 -6 -15 -8 -29 -6 -32 3 -3 7 1 10 9 17 55
16 54 33 36 14 -13 14 -20 3 -46 -7 -17 -16 -28 -21 -25 -5 3 -12 -1 -15 -10
-3 -9 -12 -12 -22 -9 -9 4 -14 3 -10 -2 10 -10 79 -15 73 -5 -3 4 2 10 10 14
8 3 14 13 14 23 -1 17 -2 17 -6 1 -2 -10 -9 -18 -14 -18 -14 0 -11 17 7 34 14
14 20 13 62 -12 209 -122 213 -126 209 -144 -3 -10 -1 -16 3 -13 5 3 11 -1 14
-7 4 -7 4 -3 2 10 -2 12 0 20 5 16 5 -3 9 -11 9 -18 0 -8 9 -16 20 -19 11 -3
18 -1 14 4 -3 5 2 6 10 3 9 -3 14 -10 11 -14 -3 -4 2 -11 11 -14 10 -4 13 -2
8 6 -9 14 10 4 58 -34 20 -16 62 -40 93 -54 57 -27 58 -27 117 -10 68 19 127
47 243 116 44 26 184 100 310 165 385 197 454 234 521 277 37 23 69 37 73 32
5 -5 14 -27 21 -49 7 -22 35 -63 62 -91 l49 -52 -27 -44 c-15 -24 -43 -67 -62
-96 -36 -56 -121 -232 -143 -294 -15 -44 -11 -49 37 -57 l35 -6 -36 -42 c-47
-55 -105 -152 -105 -175 0 -11 11 -23 25 -28 14 -5 25 -15 25 -21 0 -7 -29
-55 -64 -108 -76 -114 -84 -136 -58 -150 46 -24 153 29 249 124 l62 62 21 -78
c11 -43 31 -129 44 -191 46 -219 95 -280 151 -185 37 64 59 137 85 284 l24
133 60 -58 c61 -58 143 -114 182 -126 11 -3 29 0 39 8 18 13 18 16 -14 87 -19
41 -49 101 -67 135 -19 33 -34 63 -34 66 0 3 16 9 35 12 19 4 35 13 35 20 0 7
-27 55 -60 106 -33 51 -60 97 -60 102 0 4 11 8 25 8 20 0 25 5 25 26 0 72 -82
285 -159 413 -23 37 -41 74 -41 82 0 21 56 53 64 37 4 -9 5 -8 4 2 -1 8 7 42
17 75 33 109 16 228 -39 274 -13 11 -8 17 37 40 78 41 297 174 425 259 62 41
143 86 179 99 37 13 103 46 148 72 44 27 130 75 192 107 91 47 115 56 125 46
14 -14 12 -18 -47 -103 -38 -54 -42 -131 -9 -175 43 -58 68 -69 169 -72 110
-4 124 -17 76 -66 -60 -63 -101 -138 -101 -184 0 -109 100 -183 227 -167 l53
6 -15 -42 c-43 -120 14 -198 149 -207 l72 -4 42 -82 c107 -208 228 -373 289
-397 13 -5 23 -15 23 -23 0 -9 15 -23 33 -32 17 -9 36 -23 40 -30 4 -8 15 -14
22 -14 8 0 15 -4 15 -10 0 -5 9 -10 20 -10 10 0 23 -6 27 -13 4 -7 56 -36 114
-66 68 -33 111 -61 119 -77 8 -13 18 -24 24 -24 6 0 16 -10 21 -22 6 -13 19
-27 30 -33 11 -6 41 -31 66 -55 25 -25 71 -68 102 -97 31 -28 57 -54 57 -58 0
-11 84 -95 96 -95 6 0 33 -21 60 -47 27 -27 52 -47 56 -45 5 1 8 -2 8 -7 0 -5
8 -12 18 -16 11 -3 24 -17 31 -31 6 -14 16 -22 21 -19 6 3 10 -1 10 -9 0 -9 5
-16 10 -16 6 0 9 -5 8 -11 -2 -7 19 -20 45 -29 33 -12 54 -27 68 -48 10 -18
23 -32 28 -32 5 0 13 -9 16 -20 4 -11 10 -18 15 -15 4 3 11 -2 14 -11 3 -8 10
-12 16 -9 5 3 7 0 4 -8 -5 -14 31 -57 48 -57 5 0 21 -11 36 -25 15 -14 31 -25
37 -25 6 0 17 -9 25 -19 7 -11 17 -18 22 -15 4 3 8 -2 8 -10 0 -9 5 -16 11
-16 6 0 17 -7 25 -15 9 -8 12 -15 8 -15 -10 0 14 -25 24 -25 13 -1 52 -30 52
-38 0 -4 -6 -5 -12 -1 -9 5 -9 3 1 -9 7 -9 17 -14 22 -11 5 3 25 -11 44 -31
20 -19 42 -35 50 -35 10 0 15 -10 15 -29 0 -24 5 -29 31 -35 55 -11 61 -9 48
17 -22 41 -242 268 -359 369 -63 55 -149 133 -190 172 -41 39 -199 178 -351
308 -152 129 -309 273 -350 318 -69 76 -82 86 -189 137 -261 125 -362 237
-538 594 -48 97 -109 224 -136 282 -61 132 -130 249 -188 319 -24 29 -60 80
-80 113 -19 33 -59 98 -88 145 -61 97 -93 160 -87 166 3 3 14 -11 26 -30 38
-60 52 -57 141 32 l78 80 -9 44 c-5 23 -29 72 -54 108 -24 35 -42 66 -40 68
10 10 104 -56 172 -121 97 -93 174 -201 258 -364 76 -150 140 -228 246 -302
69 -49 167 -88 194 -77 28 10 15 33 -35 60 -27 15 -50 30 -50 34 0 11 45 72
54 72 5 0 29 -17 54 -37 26 -21 85 -65 133 -98 48 -33 118 -82 156 -108 37
-27 130 -89 206 -138 184 -119 231 -121 256 -9 13 57 2 75 -82 136 -34 25 -66
51 -72 57 -28 33 -138 115 -302 222 -101 66 -183 125 -183 131 0 7 16 35 35
64 39 58 44 80 16 80 -27 0 -71 -39 -87 -77 -12 -28 -17 -32 -33 -23 -24 12
-38 56 -44 138 l-5 64 64 65 c61 63 74 93 40 93 -8 0 -38 -22 -67 -48 l-53
-49 -36 21 c-49 28 -135 92 -161 119 -21 23 -22 35 -3 149 5 31 3 37 -16 43
-29 9 -31 6 -51 -73 -16 -67 -17 -67 -60 -79 -24 -6 -81 -12 -126 -12 l-83 -1
0 49 c0 62 -7 81 -31 81 -17 0 -39 -50 -39 -91 0 -9 -6 -22 -14 -28 -11 -9
-25 -2 -67 31 -30 24 -93 70 -142 102 -48 33 -84 63 -79 68 19 19 210 59 329
68 145 11 171 15 300 37 129 22 162 14 290 -64 169 -102 330 -187 423 -223
170 -64 189 -84 220 -239 12 -58 23 -108 26 -113 3 -4 17 -8 31 -8 26 0 26 1
20 58 -4 31 -10 75 -13 96 -7 39 -7 39 22 32 42 -10 105 -56 127 -93 15 -27
21 -73 33 -245 18 -265 27 -354 58 -593 14 -104 30 -227 36 -271 18 -143 34
-182 103 -249 87 -85 438 -364 576 -458 54 -37 101 -48 101 -24 0 17 -50 63
-130 119 -100 70 -440 349 -510 419 -47 47 -64 106 -90 324 -11 94 -24 195
-30 225 -12 67 -36 333 -50 535 -11 173 -18 205 -63 272 -37 55 -118 103 -176
104 -30 0 -41 7 -66 42 -39 53 -77 78 -178 119 -105 42 -220 101 -374 191
l-121 72 -4 120 c-2 66 -4 780 -5 1586 -2 1265 -4 1472 -16 1502 -12 27 -32
45 -89 77 -115 67 -604 357 -698 415 -47 29 -245 147 -440 263 -495 292 -857
510 -908 544 -24 16 -96 60 -160 97 -239 139 -292 170 -349 208 -32 22 -80 52
-108 68 -27 15 -106 63 -175 105 -69 42 -159 97 -200 122 -41 25 -124 75 -184
111 -60 37 -117 67 -128 67 -10 0 -67 -24 -126 -54 -59 -30 -456 -229 -882
-444 -426 -214 -884 -445 -1017 -513 -216 -110 -245 -122 -270 -114 -37 14
-66 60 -99 158 -70 214 -209 516 -305 662 -146 224 -367 422 -576 516 -37 16
-81 36 -97 44 -99 45 -269 66 -341 42z m269 -86 c73 -26 201 -90 264 -133 153
-103 320 -265 410 -399 48 -72 146 -256 190 -359 71 -167 119 -284 127 -310
12 -41 46 -102 76 -142 l29 -36 -32 -20 c-18 -11 -102 -55 -187 -98 l-154 -78
-22 28 c-12 15 -35 64 -50 109 -78 225 -236 560 -326 687 -88 125 -239 259
-379 338 -30 17 -104 47 -163 66 -126 40 -166 68 -197 131 -26 55 -24 123 6
156 19 21 97 65 144 80 42 14 200 2 264 -20z m3549 -339 c56 -33 156 -92 222
-132 66 -41 179 -109 250 -153 72 -44 186 -113 255 -154 186 -112 649 -392
1095 -663 66 -40 161 -95 210 -122 50 -28 117 -67 150 -88 171 -107 844 -510
963 -576 52 -28 90 -54 85 -57 -9 -5 -44 -24 -248 -134 -541 -293 -757 -411
-1040 -568 -158 -88 -403 -218 -670 -355 -110 -56 -207 -109 -216 -116 -15
-14 -17 16 -21 368 -5 349 -13 451 -31 421 -15 -24 -24 -149 -26 -343 -1 -113
-4 -270 -6 -350 l-4 -145 -48 -24 c-71 -35 -324 -171 -523 -281 -96 -54 -224
-122 -285 -152 -60 -30 -150 -78 -200 -105 -110 -61 -330 -173 -339 -173 -4 0
-28 14 -54 32 -25 17 -76 48 -112 68 -111 63 -325 196 -479 299 -80 54 -261
170 -401 258 -140 88 -327 206 -415 263 -88 56 -189 121 -225 143 -36 22 -96
61 -135 87 -38 26 -99 65 -135 87 -54 33 -306 192 -720 453 -178 113 -572 384
-591 407 -7 7 -10 15 -8 17 2 2 77 42 166 90 90 47 184 99 210 114 27 16 95
52 153 82 58 29 124 66 148 82 39 27 716 378 728 378 4 0 171 85 373 189 201
104 589 300 861 435 613 306 889 445 915 462 11 8 25 14 32 14 7 0 59 -26 116
-58z m-2418 -1020 c-3 -3 -11 0 -18 7 -9 10 -8 11 6 5 10 -3 15 -9 12 -12z
m-944 -1093 c135 -90 332 -218 437 -284 106 -66 267 -168 360 -226 92 -59 230
-147 306 -195 77 -49 187 -120 245 -158 58 -38 149 -95 201 -126 52 -31 154
-94 225 -140 72 -46 171 -109 220 -140 50 -31 142 -90 205 -130 250 -159 522
-328 618 -384 l102 -59 0 -181 c3 -1195 -1 -2863 -7 -2909 l-8 -58 -177 113
c-97 62 -210 132 -250 156 -75 44 -123 75 -544 347 -136 88 -313 201 -393 250
-231 142 -482 307 -1092 718 -108 73 -273 181 -367 240 -95 60 -231 150 -302
200 l-131 92 -2 1561 -2 1561 55 -42 c30 -23 166 -116 301 -206z m6639 -21 c1
-79 3 -780 6 -1559 l6 -1416 -109 -6 c-59 -3 -153 -13 -208 -21 -55 -8 -152
-20 -215 -25 -114 -10 -262 -43 -331 -74 -35 -16 -36 -15 -80 14 -24 17 -75
46 -114 66 -38 19 -78 42 -88 51 -16 15 -15 17 20 46 47 39 188 255 258 395
49 98 102 254 141 411 17 68 19 230 3 330 -26 175 -103 344 -195 429 -130 122
-272 175 -469 175 -109 0 -128 -3 -212 -32 -204 -70 -428 -210 -596 -371 l-57
-56 2 295 3 295 110 58 c61 32 234 121 385 199 151 77 399 209 550 293 151 83
338 186 415 227 77 42 226 122 330 178 105 57 239 129 300 162 60 32 114 63
119 68 22 22 26 4 26 -132z m-2307 -1397 c5 -238 3 -299 -8 -321 -7 -14 -48
-60 -90 -101 -43 -41 -89 -92 -105 -114 -36 -53 -150 -275 -150 -293 0 -7 -19
-62 -42 -120 -23 -59 -49 -143 -59 -187 -9 -44 -25 -114 -34 -155 -22 -97 -16
-372 10 -465 41 -146 123 -272 218 -331 48 -31 137 -54 209 -54 l58 0 0 -188
c0 -104 -3 -243 -6 -310 -7 -118 -7 -121 -32 -127 -52 -13 -110 -66 -144 -131
-39 -75 -25 -67 -473 -294 -295 -150 -604 -316 -657 -352 -14 -10 -30 -18 -35
-18 -4 0 -8 706 -8 1568 l0 1568 210 114 c116 63 289 155 385 205 172 90 256
135 515 280 127 71 229 125 231 122 1 -1 4 -134 7 -296z m1461 -126 c52 -109
54 -115 72 -224 59 -361 -56 -744 -326 -1086 -69 -87 -86 -101 -105 -85 -25
21 -18 38 53 118 129 147 185 240 255 422 68 177 90 294 88 474 -1 168 -25
276 -90 403 -28 56 -63 118 -77 140 -20 31 -14 27 34 -23 38 -39 72 -88 96
-139z m-1556 -479 c26 -13 59 -26 75 -30 27 -6 27 -6 27 -96 0 -50 -3 -90 -6
-90 -14 0 -214 146 -214 157 0 10 59 83 68 83 1 0 24 -11 50 -24z m-4668 -86
c0 -5 -8 -10 -17 -11 -12 -1 -10 -4 7 -9 17 -5 19 -8 8 -9 -16 -1 -23 -12 -19
-33 0 -5 -3 -8 -8 -8 -7 0 -8 32 -2 73 2 11 31 8 31 -3z m5030 -176 c52 -39
138 -111 191 -160 53 -49 130 -118 172 -154 76 -66 114 -112 54 -66 -17 13
-90 60 -162 104 -273 166 -351 215 -397 245 l-48 32 0 79 0 79 48 -44 c26 -25
90 -76 142 -115z m-289 -16 c25 -22 29 -34 29 -78 0 -59 6 -60 -100 19 -153
112 -181 134 -186 143 -4 5 6 22 21 38 l27 28 90 -61 c50 -34 103 -74 119 -89z
m-4774 50 c-3 -8 -6 -5 -6 6 -1 11 2 17 5 13 3 -3 4 -12 1 -19z m43 13 c0 -5
-7 -11 -15 -15 -15 -5 -20 5 -8 17 9 10 23 9 23 -2z m4645 -186 c54 -40 46
-40 -60 0 -38 14 -85 26 -103 27 -39 2 -47 14 -33 51 l11 27 67 -34 c38 -19
91 -51 118 -71z m-4654 56 c-11 -7 -11 -10 0 -15 8 -3 2 -4 -13 -1 l-27 5 24
-26 c14 -15 25 -34 25 -43 0 -13 -2 -13 -9 -2 -7 11 -10 9 -16 -8 -3 -11 -11
-21 -16 -21 -6 0 -7 6 -2 13 4 6 9 23 10 37 3 22 2 23 -7 7 -6 -9 -8 -22 -5
-27 3 -6 1 -10 -4 -10 -6 0 -11 5 -11 10 0 6 -4 10 -9 10 -5 0 -4 -11 2 -25
13 -28 26 -31 46 -12 11 10 13 9 8 -5 -3 -9 -1 -19 6 -22 9 -3 8 -8 -3 -15
-10 -7 -11 -11 -2 -11 6 0 12 -5 12 -11 0 -5 -4 -7 -10 -4 -5 3 -10 1 -10 -5
0 -6 -10 -15 -22 -20 -13 -5 -17 -9 -10 -9 25 -2 11 -17 -18 -19 -29 -2 -29
-2 -18 25 7 16 15 30 18 33 14 14 9 43 -12 60 -15 13 -18 19 -9 20 8 0 11 3 8
7 -4 3 -2 12 4 20 8 9 8 13 1 13 -14 0 26 43 53 58 22 12 37 6 16 -7z m4868 5
c11 -13 191 -133 321 -213 36 -22 115 -71 175 -108 61 -38 254 -164 430 -280
176 -117 336 -220 355 -230 19 -10 44 -25 55 -35 11 -10 38 -27 60 -39 l40
-21 -42 0 c-23 0 -57 -7 -76 -16 l-33 -16 -225 147 c-123 82 -300 198 -394
260 -93 62 -228 150 -300 195 -71 45 -170 109 -220 140 -49 32 -109 67 -132
79 l-43 21 0 65 c0 65 7 77 29 51z m-285 -92 c100 -24 141 -32 174 -33 10 -1
12 -78 12 -368 l-1 -366 -44 44 c-42 43 -134 105 -165 111 -8 2 -18 7 -21 11
-3 4 -16 9 -27 10 -12 1 -22 4 -22 7 0 5 -84 43 -102 46 -5 1 -11 3 -15 4 -5
1 -11 2 -15 1 -5 0 -8 4 -8 10 0 5 -4 8 -9 4 -6 -3 -15 4 -22 16 -16 31 -6
252 14 299 8 19 20 62 27 95 21 104 63 165 99 144 9 -5 65 -20 125 -35z m379
-166 c112 -68 231 -180 393 -368 266 -309 317 -457 240 -697 -23 -72 -71 -152
-83 -139 -2 2 1 23 7 46 17 63 14 242 -4 278 -17 34 -42 56 -49 45 -3 -5 1
-42 9 -83 17 -84 12 -138 -18 -218 -26 -68 -61 -92 -138 -92 -84 0 -88 7 -55
82 38 86 45 189 16 236 -11 17 -29 32 -40 32 -16 0 -17 -5 -10 -42 14 -72 10
-135 -11 -192 -29 -77 -40 -83 -94 -56 -56 26 -81 74 -95 182 -17 121 -64 232
-107 249 -6 2 -28 23 -49 47 l-38 43 2 340 c2 314 5 369 18 369 2 0 50 -28
106 -62z m-5088 -42 c22 -21 24 -27 14 -49 -7 -15 -17 -23 -25 -20 -10 4 -11
10 -3 25 13 23 5 49 -13 44 -7 -1 -10 -1 -5 1 4 3 5 9 1 14 -10 16 5 9 31 -15z
m59 -13 c3 -7 0 -13 -7 -13 -8 0 -8 -3 2 -9 9 -6 10 -11 2 -15 -6 -4 -13 0
-16 8 -3 9 -7 22 -9 29 -2 8 2 14 10 14 7 0 15 -6 18 -14z m61 -95 c-3 -8 -12
-15 -19 -15 -11 0 -12 5 -3 24 11 25 32 17 22 -9z m-65 -23 c7 -9 8 -15 2 -15
-5 0 -12 7 -16 15 -3 8 -4 15 -2 15 2 0 9 -7 16 -15z m5581 -170 c37 -24 70
-48 74 -54 6 -10 -32 -69 -46 -70 -3 -1 -20 19 -37 43 -18 25 -78 93 -135 152
l-102 107 90 -67 c50 -37 120 -87 156 -111z m-5511 -95 c0 -5 -2 -10 -4 -10
-3 0 -8 5 -11 10 -3 6 -1 10 4 10 6 0 11 -4 11 -10z m5690 -23 c0 -12 -31 -45
-72 -76 -15 -11 -21 -11 -34 0 -14 12 -11 17 27 51 45 38 79 49 79 25z m126
-82 c30 -25 67 -53 82 -62 61 -37 108 -68 124 -81 16 -13 16 -16 1 -38 -14
-22 -14 -24 1 -24 11 0 15 -5 11 -12 -4 -7 1 -4 9 6 25 30 28 14 6 -29 -11
-22 -20 -48 -20 -59 0 -18 -1 -19 -20 -1 -17 15 -20 16 -20 3 0 -8 9 -26 19
-40 11 -14 21 -30 23 -36 3 -11 -390 -237 -398 -229 -3 2 10 40 28 83 57 142
50 333 -18 436 l-24 38 47 24 c27 13 57 33 67 45 11 12 21 21 23 21 2 0 28
-20 59 -45z m-5293 -104 c-3 -10 10 -15 30 -12 10 1 9 -4 -5 -34 -12 -26 -38
-35 -38 -12 0 8 -4 7 -10 -3 -5 -8 -10 -13 -11 -10 0 3 -2 13 -4 22 -2 9 4 19
12 22 10 4 12 13 8 27 -5 16 -3 20 6 16 8 -2 13 -10 12 -16z m5747 -129 c40
-42 70 -98 70 -130 0 -11 -23 -43 -52 -70 -47 -45 -54 -49 -74 -39 -34 19
-134 153 -134 181 0 13 83 85 103 89 44 9 51 6 87 -31z m-1624 -63 c111 -15
124 -18 124 -28 0 -30 -163 -13 -226 24 -63 37 -77 60 -21 35 24 -11 80 -25
123 -31z m2301 -25 c37 -31 95 -70 130 -87 63 -31 76 -50 51 -75 -39 -39 -198
23 -198 78 -1 14 -7 36 -15 50 l-13 25 -10 -25 c-5 -14 -11 -31 -13 -37 -3 -9
-34 6 -89 41 l-84 54 39 7 c22 4 58 10 80 15 22 4 44 8 48 9 5 1 38 -24 74
-55z m-2039 20 c33 -14 35 -17 17 -24 -11 -5 -35 -9 -52 -9 -26 -1 -33 3 -33
17 0 36 14 39 68 16z m1836 -103 c28 -20 95 -64 149 -96 54 -33 137 -88 185
-123 48 -34 109 -75 135 -90 27 -15 99 -63 160 -106 62 -44 177 -124 257 -179
80 -55 159 -110 176 -123 17 -13 36 -24 42 -24 38 0 59 -113 23 -123 -25 -6
-88 23 -132 60 -19 16 -92 69 -164 117 -71 47 -188 129 -260 180 -156 113
-247 175 -421 289 -72 47 -145 102 -162 123 -87 109 -152 193 -152 198 0 8 91
-49 164 -103z m-5842 60 c-5 -3 -12 -17 -16 -31 -6 -24 -6 -24 5 -3 6 12 19
21 29 20 15 -1 16 -5 7 -30 -7 -21 -12 -25 -18 -15 -7 11 -9 10 -9 -2 0 -12
-2 -12 -15 1 -12 12 -13 21 -4 47 6 18 15 29 21 26 7 -4 7 -9 0 -13z m4061
-125 c9 -84 57 -180 107 -214 35 -23 95 -43 193 -62 31 -6 57 -17 57 -23 0
-23 -395 -257 -432 -257 -48 0 -47 -1 -50 323 l-3 308 60 -3 60 -3 8 -69z
m-3897 19 c10 -8 14 -15 9 -15 -6 0 -16 5 -23 12 -8 8 -14 5 -21 -15 -6 -15
-17 -27 -26 -27 -20 0 -19 11 3 38 20 26 31 27 58 7z m54 -34 c0 -6 -4 -12 -8
-15 -5 -3 -9 1 -9 9 0 8 4 15 9 15 4 0 8 -4 8 -9z m5010 -74 c0 -7 23 -50 50
-97 28 -47 50 -88 50 -92 0 -12 -79 -9 -103 3 -45 24 -67 52 -67 87 0 54 69
152 70 99z m1000 8 c0 -8 -4 -15 -9 -15 -13 0 -22 16 -14 24 11 11 23 6 23 -9z
m-226 -164 c28 -29 28 -29 6 -36 -23 -7 -70 27 -70 52 0 23 35 14 64 -16z
m124 -77 c27 -19 28 -34 1 -62 -20 -22 -21 -22 -50 -5 -48 28 -54 40 -34 63
22 24 53 26 83 4z m-598 -249 c28 -43 50 -83 50 -87 0 -12 -52 -35 -98 -42
-80 -12 -162 41 -162 103 1 42 11 62 65 124 l40 46 28 -32 c15 -18 50 -68 77
-112z m-1533 -71 c55 -35 76 -153 39 -222 -31 -60 -128 -88 -199 -58 -67 28
-128 130 -113 189 8 35 49 81 88 101 39 19 148 14 185 -10z m1677 -207 c20
-48 36 -89 36 -92 0 -3 -15 -5 -34 -5 -22 0 -45 9 -65 26 -37 30 -40 64 -14
137 21 59 28 53 77 -66z m-1804 -197 c15 -28 -4 -230 -36 -390 -33 -164 -85
-272 -188 -392 -77 -89 -142 -146 -153 -135 -3 4 12 33 34 64 70 102 116 194
138 280 12 45 20 83 19 83 -2 0 -12 -19 -22 -42 -19 -44 -111 -152 -112 -132
0 6 31 51 69 100 37 49 81 114 96 144 15 30 38 69 51 86 24 30 33 94 15 94 -6
0 -25 -19 -43 -41 -18 -23 -47 -58 -65 -78 l-32 -36 10 38 c6 21 26 69 45 107
19 38 34 71 34 75 0 17 107 194 117 195 7 0 17 -9 23 -20z m168 -137 c69 -145
110 -249 99 -259 -2 -3 -31 30 -63 73 l-59 78 -3 -33 c-2 -23 7 -49 31 -90 19
-31 51 -91 72 -132 20 -41 48 -90 62 -108 14 -18 23 -35 21 -38 -3 -2 -19 16
-37 41 -18 25 -36 45 -40 45 -15 0 10 -102 42 -174 17 -39 48 -104 69 -143 21
-40 33 -73 27 -73 -19 0 -142 135 -178 196 -19 31 -56 120 -82 198 l-47 141
-1 -80 c-1 -57 6 -107 25 -175 23 -85 25 -100 14 -145 -6 -27 -18 -93 -26
-145 -8 -52 -26 -133 -41 -180 l-26 -85 -12 45 c-34 127 -75 311 -81 360 -4
30 -11 60 -16 67 -6 8 4 45 31 111 81 201 126 423 115 564 -6 83 -5 88 13 88
15 0 35 -32 91 -147z m-2194 25 c-3 -4 -9 -8 -15 -8 -5 0 -9 4 -9 8 0 5 7 9
15 9 8 0 12 -4 9 -9z m5291 -1188 c3 -5 -1 -10 -10 -10 -9 0 -13 5 -10 10 3 6
8 10 10 10 2 0 7 -4 10 -10z"/>
<path d="M4375 8143 c-199 -34 -443 -113 -579 -187 -147 -81 -286 -219 -341
-339 -46 -99 -60 -179 -47 -263 7 -41 23 -96 36 -123 57 -111 219 -262 357
-331 278 -141 569 -198 944 -186 203 6 267 17 447 76 232 75 328 130 452 260
117 122 166 213 187 342 11 69 -9 175 -49 253 -32 65 -159 196 -242 250 -221
143 -385 203 -703 255 -91 14 -362 11 -462 -7z m117 -48 c5 -6 8 -5 8 2 0 10
34 12 143 9 160 -4 369 -39 501 -82 98 -32 290 -122 354 -166 89 -61 242 -219
242 -251 0 -6 -13 8 -29 29 -62 85 -194 180 -366 263 -204 100 -345 140 -585
167 -323 37 -728 -60 -1057 -251 l-28 -17 25 19 c14 10 35 29 47 42 13 13 23
21 23 17 0 -4 12 2 26 13 15 12 31 21 36 21 4 0 26 11 46 24 39 24 110 52 157
60 15 3 33 10 41 17 8 6 14 9 14 6 0 -4 21 3 47 14 26 11 54 18 63 16 9 -2 20
1 26 8 6 6 56 19 110 29 55 10 104 19 109 20 19 5 40 1 47 -9z m485 -197 c35
-39 81 -142 112 -253 36 -128 84 -355 77 -363 -3 -3 -41 11 -83 31 -93 42
-120 51 -127 39 -3 -5 27 -26 67 -47 115 -61 215 -134 258 -189 52 -65 85
-123 94 -163 5 -26 2 -34 -15 -43 -54 -29 -284 -99 -370 -113 -94 -16 -399
-41 -406 -34 -2 2 5 21 16 42 25 49 25 62 0 103 -56 91 -187 96 -240 9 -24
-39 -26 -90 -3 -112 16 -16 14 -17 -28 -10 -176 27 -503 147 -550 201 -9 11
-27 73 -40 139 -31 153 -34 406 -7 467 37 82 100 60 278 -99 158 -141 219
-191 253 -209 26 -14 32 -13 70 5 41 19 189 53 294 67 29 3 57 12 61 18 5 6
18 49 30 96 59 243 156 440 217 440 12 0 31 -10 42 -22z m-1323 -123 c-28 -22
-40 -18 -13 4 13 11 26 17 28 15 3 -2 -4 -11 -15 -19z m1909 -552 c-7 -2 -19
-2 -25 0 -7 3 -2 5 12 5 14 0 19 -2 13 -5z"/>
<path d="M4990 7063 c-79 -71 -25 -203 83 -203 40 0 94 27 116 58 59 83 -4
172 -123 172 -36 0 -52 -6 -76 -27z"/>
<path d="M2710 5309 c-136 -18 -285 -124 -344 -244 -56 -116 -61 -152 -61
-490 0 -272 2 -317 18 -370 28 -89 64 -149 127 -209 69 -66 131 -98 234 -121
196 -44 397 19 507 157 92 116 119 218 119 456 l0 162 -250 0 -250 0 0 -100 0
-100 146 0 147 0 -6 -78 c-8 -109 -37 -180 -93 -232 -59 -54 -103 -72 -184
-73 -90 -1 -152 18 -205 65 -92 81 -105 135 -105 440 0 246 7 310 43 387 61
130 220 189 355 131 63 -27 136 -103 153 -159 l12 -41 114 0 113 0 -6 28 c-43
176 -166 316 -325 371 -69 23 -175 32 -259 20z"/>
<path d="M1094 4479 c-3 -6 -2 -15 3 -20 5 -5 9 -1 9 11 0 23 -2 24 -12 9z"/>
<path d="M1650 3709 c0 -5 5 -7 10 -4 6 3 10 8 10 11 0 2 -4 4 -10 4 -5 0 -10
-5 -10 -11z"/>
<path d="M1014 4948 c6 -20 -10 -25 -17 -5 -3 7 -6 5 -6 -5 -1 -10 5 -18 13
-18 20 0 27 13 14 30 -8 12 -9 12 -4 -2z"/>
<path d="M1054 4865 c1 -27 10 -32 22 -13 4 6 2 14 -4 16 -7 2 -10 8 -6 13 3
5 1 9 -4 9 -6 0 -9 -11 -8 -25z"/>
<path d="M947 4865 c-12 -11 -17 -12 -20 -2 -3 7 -6 5 -6 -5 -1 -20 10 -23 26
-7 8 8 16 8 30 -1 14 -9 15 -10 1 -6 -12 3 -18 -3 -23 -25 -4 -16 -13 -29 -21
-29 -8 0 -14 -5 -14 -11 0 -5 4 -8 9 -4 5 3 12 1 16 -5 3 -5 2 -10 -2 -10 -5
0 -9 -8 -9 -18 0 -13 9 -18 31 -18 16 -1 24 1 18 3 -7 3 -13 12 -13 21 0 14 2
14 9 3 6 -9 8 -2 6 20 -2 19 -8 33 -14 32 -6 -2 -8 4 -4 13 5 13 7 13 14 2 7
-10 9 -10 10 2 0 8 2 23 4 33 2 11 1 16 -2 13 -4 -3 -12 -1 -19 4 -8 8 -16 6
-27 -5z m22 -87 c0 -7 -4 -22 -9 -33 -6 -16 -8 -14 -7 13 0 17 4 32 9 32 4 0
8 -6 7 -12z"/>
<path d="M870 4846 c0 -2 7 -7 16 -10 8 -3 12 -2 9 4 -6 10 -25 14 -25 6z"/>
<path d="M839 4789 c-5 -22 -3 -25 13 -21 13 3 18 -1 18 -16 0 -12 3 -23 8
-25 4 -3 7 6 7 19 0 13 -3 24 -7 24 -5 0 -8 8 -8 18 0 14 -2 14 -9 3 -7 -11
-10 -10 -13 5 -3 15 -5 14 -9 -7z"/>
<path d="M903 4795 c-3 -9 -3 -18 -1 -21 3 -3 8 4 11 16 6 23 -1 27 -10 5z"/>
<path d="M996 4795 c-9 -25 -8 -27 14 -15 15 8 20 8 20 -1 0 -7 3 -10 6 -6 3
3 1 14 -5 24 -8 14 -10 14 -11 3 0 -12 -2 -12 -9 -2 -7 11 -10 10 -15 -3z"/>
<path d="M1060 4800 c-8 -5 -12 -11 -9 -14 2 -3 11 -1 19 4 8 5 12 11 9 14 -2
3 -11 1 -19 -4z"/>
<path d="M1110 4799 c0 -5 5 -7 10 -4 6 3 10 8 10 11 0 2 -4 4 -10 4 -5 0 -10
-5 -10 -11z"/>
<path d="M849 4753 c-1 -5 -1 -11 0 -15 2 -12 -17 -10 -22 2 -3 6 -4 5 -3 -2
4 -19 29 -16 32 5 1 9 0 17 -2 17 -2 0 -5 -3 -5 -7z"/>
<path d="M698 4708 c3 -13 7 -17 9 -11 3 7 12 9 21 6 22 -8 13 1 -15 15 -19
11 -20 9 -15 -10z"/>
<path d="M788 4715 c7 -13 7 -27 1 -38 -8 -13 -6 -15 6 -11 8 3 13 10 10 14
-3 5 -1 10 3 12 5 1 0 12 -11 23 -20 20 -20 20 -9 0z"/>
<path d="M1095 4720 c3 -5 8 -10 11 -10 2 0 4 5 4 10 0 6 -5 10 -11 10 -5 0
-7 -4 -4 -10z"/>
<path d="M830 4701 c0 -6 5 -13 12 -17 6 -4 8 -3 4 4 -3 6 2 13 11 15 14 4 13
5 -4 6 -13 0 -23 -3 -23 -8z"/>
<path d="M543 4675 c-3 -9 -3 -18 -1 -21 3 -3 8 4 11 16 6 23 -1 27 -10 5z"/>
<path d="M727 4679 c7 -7 15 -10 18 -7 3 3 -2 9 -12 12 -14 6 -15 5 -6 -5z"/>
<path d="M765 4679 c-4 -6 -5 -12 -2 -15 2 -3 7 2 10 11 7 17 1 20 -8 4z"/>
<path d="M824 4672 c4 -7 1 -12 -8 -12 -9 0 -16 -5 -16 -11 0 -5 5 -7 12 -3 8
5 9 2 5 -10 -4 -9 -3 -15 2 -12 14 9 20 45 9 53 -7 3 -8 1 -4 -5z"/>
<path d="M516 4653 c-6 -14 -5 -15 5 -6 7 7 10 15 7 18 -3 3 -9 -2 -12 -12z"/>
<path d="M560 4659 c0 -5 5 -7 10 -4 6 3 10 8 10 11 0 2 -4 4 -10 4 -5 0 -10
-5 -10 -11z"/>
<path d="M928 4663 c7 -3 16 -2 19 1 4 3 -2 6 -13 5 -11 0 -14 -3 -6 -6z"/>
<path d="M491 4644 c0 -11 3 -14 6 -6 3 7 2 16 -1 19 -3 4 -6 -2 -5 -13z"/>
<path d="M890 4643 c0 -10 -4 -14 -8 -8 -4 6 -16 11 -27 12 -18 2 -17 1 3 -9
19 -9 22 -17 18 -42 -3 -17 -3 -24 0 -16 28 67 32 80 23 80 -5 0 -9 -8 -9 -17z"/>
<path d="M730 4640 c0 -5 -7 -10 -15 -10 -8 0 -15 -3 -15 -7 1 -12 30 -48 30
-37 0 6 -6 16 -12 23 -11 11 -10 13 2 9 11 -4 16 1 17 13 1 10 0 19 -3 19 -2
0 -4 -4 -4 -10z"/>
<path d="M751 4638 c-2 -27 17 -31 29 -6 10 21 10 22 -4 5 -14 -18 -14 -18
-19 0 -4 15 -5 16 -6 1z"/>
<path d="M912 4638 c-15 -15 -15 -35 0 -44 6 -4 8 -3 4 4 -10 16 13 26 29 12
11 -9 12 -7 8 12 -3 13 -1 19 4 13 14 -17 40 -16 47 2 6 14 5 15 -5 6 -9 -9
-17 -9 -33 -1 -15 8 -21 8 -24 -1 -2 -6 -8 -11 -13 -11 -6 0 -7 5 -4 10 8 14
2 13 -13 -2z"/>
<path d="M450 4636 c0 -2 7 -9 15 -16 9 -7 15 -8 15 -2 0 5 -7 12 -15 16 -8 3
-15 4 -15 2z"/>
<path d="M525 4630 c-4 -6 1 -7 11 -3 11 4 15 2 11 -4 -7 -11 22 -28 31 -18 3
3 0 5 -7 5 -7 0 -10 4 -7 9 3 5 -1 12 -10 15 -21 8 -22 8 -29 -4z"/>
<path d="M595 4620 c-3 -5 -1 -10 4 -10 6 0 11 5 11 10 0 6 -2 10 -4 10 -3 0
-8 -4 -11 -10z"/>
<path d="M840 4622 c0 -5 7 -9 15 -9 8 0 12 4 9 9 -3 4 -9 8 -15 8 -5 0 -9 -4
-9 -8z"/>
<path d="M413 4598 c0 -13 1 -17 4 -10 3 6 10 9 16 5 7 -4 6 1 -2 10 -17 21
-17 21 -18 -5z"/>
<path d="M446 4607 c3 -10 9 -15 12 -12 3 3 0 11 -7 18 -10 9 -11 8 -5 -6z"/>
<path d="M490 4609 c0 -5 5 -7 10 -4 6 3 10 -2 10 -12 0 -15 2 -16 10 -3 8 12
10 12 10 1 0 -8 3 -11 7 -7 5 4 -1 14 -11 22 -23 17 -36 18 -36 3z"/>
<path d="M376 4585 c-9 -26 -7 -32 5 -12 6 10 9 21 6 23 -2 3 -7 -2 -11 -11z"/>
<path d="M476 4585 c4 -8 11 -15 16 -15 6 0 5 6 -2 15 -7 8 -14 15 -16 15 -2
0 -1 -7 2 -15z"/>
<path d="M743 4586 c-3 -5 -1 -6 5 -2 16 9 15 -7 0 -22 -9 -9 -9 -12 0 -12 7
0 12 6 12 13 0 9 2 9 9 -1 7 -11 9 -10 14 3 4 9 3 13 -3 10 -6 -3 -10 -2 -10
4 0 5 6 11 13 14 6 3 2 4 -11 4 -13 -1 -26 -6 -29 -11z"/>
<path d="M939 4583 c14 -27 14 -36 1 -28 -6 4 -7 -1 -3 -11 4 -12 3 -15 -5
-10 -7 4 -12 2 -12 -3 0 -20 25 -11 36 12 8 18 6 26 -9 42 -19 20 -20 20 -8
-2z"/>
<path d="M611 4573 c-1 -6 -4 -20 -7 -30 -5 -15 -4 -16 6 -3 10 13 11 12 7 -5
-3 -11 -8 -29 -12 -40 -4 -14 -2 -13 8 4 10 16 16 20 19 11 3 -10 7 -8 12 5 4
11 4 16 -1 12 -4 -5 -13 7 -19 25 -7 18 -13 28 -13 21z"/>
<path d="M915 4569 c-4 -6 -5 -12 -2 -15 2 -3 7 2 10 11 7 17 1 20 -8 4z"/>
<path d="M480 4534 c-15 -37 -11 -44 5 -9 8 17 14 24 15 18 0 -7 5 -13 10 -13
16 0 12 17 -5 24 -11 4 -19 -3 -25 -20z"/>
<path d="M835 4538 c-5 -17 -12 -25 -21 -21 -20 7 -17 -14 3 -26 15 -8 15 -11
3 -28 -14 -16 -13 -17 2 -5 13 10 17 10 22 0 3 -7 3 -2 0 11 -4 13 -2 21 3 18
5 -4 10 0 10 8 0 12 -3 12 -16 2 -12 -10 -14 -9 -8 6 4 10 7 24 7 30 0 7 4 6
10 -3 5 -8 10 -10 10 -5 0 6 -4 17 -9 24 -8 12 -11 9 -16 -11z"/>
<path d="M386 4538 c3 -5 10 -6 15 -3 13 9 11 12 -6 12 -8 0 -12 -4 -9 -9z"/>
<path d="M526 4534 c-9 -24 -2 -26 12 -4 7 11 8 20 3 20 -5 0 -12 -7 -15 -16z"/>
<path d="M565 4529 c1 -10 4 -21 8 -24 4 -3 5 -2 2 2 -3 3 0 12 5 18 7 9 6 14
-3 18 -9 3 -13 -2 -12 -14z"/>
<path d="M965 4531 c-3 -9 -1 -17 4 -19 7 -2 8 -10 1 -21 -7 -15 -4 -21 16
-30 31 -14 34 -14 34 0 0 5 -5 7 -12 3 -8 -5 -9 -2 -4 11 6 16 4 16 -10 4 -15
-12 -16 -11 -9 10 5 16 3 26 -6 32 -11 7 -11 9 -1 9 7 0 15 -7 19 -16 5 -13 7
-13 14 -2 12 18 11 31 -1 23 -5 -3 -10 -2 -10 3 0 15 -29 10 -35 -7z"/>
<path d="M760 4527 c0 -4 -4 -5 -10 -2 -5 3 -10 1 -10 -5 0 -7 8 -9 21 -5 15
5 19 4 15 -4 -4 -6 -3 -11 2 -11 5 0 12 8 14 18 4 12 -1 18 -13 18 -11 0 -19
-4 -19 -9z"/>
<path d="M430 4520 c0 -5 -3 -9 -7 -9 -27 4 -42 -2 -37 -16 6 -14 8 -13 20 2
16 22 18 10 3 -20 -9 -19 -8 -20 3 -6 7 9 20 14 28 12 11 -4 12 -2 2 5 -7 5
-10 16 -6 25 3 9 3 17 0 17 -3 0 -6 -4 -6 -10z"/>
<path d="M490 4500 c-6 -11 -8 -20 -6 -20 3 0 10 9 16 20 6 11 8 20 6 20 -3 0
-10 -9 -16 -20z"/>
<path d="M688 4513 c6 -3 10 -9 6 -14 -8 -14 6 -11 21 5 12 11 10 13 -13 13
-15 0 -21 -2 -14 -4z"/>
<path d="M871 4504 c0 -11 3 -14 6 -6 3 7 2 16 -1 19 -3 4 -6 -2 -5 -13z"/>
<path d="M920 4506 c0 -2 9 -6 20 -9 11 -3 18 -1 14 4 -5 9 -34 13 -34 5z"/>
<path d="M302 4480 c0 -14 2 -19 5 -12 2 6 2 18 0 25 -3 6 -5 1 -5 -13z"/>
<path d="M741 4484 c0 -11 3 -14 6 -6 3 7 2 16 -1 19 -3 4 -6 -2 -5 -13z"/>
<path d="M503 4477 c-4 -6 -1 -7 7 -2 10 6 12 3 8 -13 -4 -12 -2 -20 3 -16 5
3 9 0 9 -6 0 -6 5 -8 10 -5 14 9 12 -8 -2 -25 -11 -12 -10 -12 4 -1 10 7 20
21 23 32 4 11 11 17 16 14 5 -4 9 -2 9 3 0 23 -75 39 -87 19z m62 -7 c3 -5 1
-10 -5 -10 -6 0 -8 -4 -5 -10 3 -6 -1 -7 -9 -4 -17 7 -20 16 -9 27 9 10 21 9
28 -3z"/>
<path d="M780 4483 c0 -6 -12 -15 -27 -20 -16 -6 -22 -12 -16 -16 13 -8 61 28
51 39 -5 4 -8 2 -8 -3z"/>
<path d="M913 4483 c-15 -5 -17 -39 -4 -47 5 -4 7 3 4 13 -4 16 -1 19 16 14
12 -3 21 -10 21 -16 0 -6 2 -8 5 -5 12 11 -7 37 -22 31 -11 -4 -14 -2 -9 5 8
13 7 13 -11 5z"/>
<path d="M681 4470 c-9 -5 -10 -10 -2 -14 6 -4 11 -2 11 4 0 6 5 8 10 5 6 -4
7 -11 4 -17 -4 -7 -2 -8 4 -4 7 4 12 11 12 16 0 12 -25 19 -39 10z"/>
<path d="M860 4460 c0 -6 5 -10 10 -10 6 0 10 -4 10 -10 0 -5 -7 -7 -15 -4
-10 4 -15 0 -15 -12 0 -12 3 -15 8 -8 4 6 14 10 23 9 12 -2 15 3 12 15 -5 20
-33 36 -33 20z"/>
<path d="M671 4435 c0 -5 3 -16 8 -23 7 -11 9 -10 14 3 4 9 3 14 -2 10 -5 -3
-12 1 -14 7 -3 7 -6 9 -6 3z"/>
<path d="M716 4432 c-3 -5 1 -9 9 -9 8 0 12 4 9 9 -3 4 -7 8 -9 8 -2 0 -6 -4
-9 -8z"/>
<path d="M776 4427 c3 -10 9 -15 12 -12 3 3 0 11 -7 18 -10 9 -11 8 -5 -6z"/>
<path d="M936 4426 c5 -13 4 -17 -4 -12 -6 3 -17 -3 -25 -14 -7 -11 -18 -17
-23 -12 -4 4 -3 0 4 -9 6 -9 9 -18 6 -21 -2 -3 2 -8 9 -11 11 -4 14 1 11 16
-2 12 -1 16 2 8 5 -9 11 -3 21 19 10 24 10 37 3 44 -8 8 -9 6 -4 -8z m-6 -26
c0 -5 -5 -10 -11 -10 -5 0 -7 5 -4 10 3 6 8 10 11 10 2 0 4 -4 4 -10z"/>
<path d="M985 4430 c-3 -6 1 -7 9 -4 18 7 21 14 7 14 -6 0 -13 -4 -16 -10z"/>
<path d="M798 4412 c-4 -12 -12 -21 -18 -20 -7 2 -15 -4 -17 -12 -4 -13 -3
-13 6 0 9 13 11 12 11 -5 0 -16 3 -14 15 9 9 16 14 34 12 40 -2 6 -6 0 -9 -12z"/>
<path d="M456 4412 c-4 -7 -12 -10 -17 -7 -5 4 -6 -2 -2 -11 4 -11 8 -13 11
-6 2 7 8 12 13 12 6 0 7 -6 3 -12 -6 -10 -5 -10 8 -1 8 7 18 10 22 6 4 -4 4 1
0 11 -5 12 -9 14 -14 6 -6 -9 -9 -9 -12 1 -3 10 -6 10 -12 1z"/>
<path d="M744 4395 c-4 -8 -10 -12 -15 -9 -5 3 -9 0 -9 -5 0 -6 4 -11 10 -11
5 0 7 -8 4 -17 -5 -15 -4 -16 5 -3 9 13 11 13 11 -2 0 -9 4 -19 10 -23 5 -3 5
7 -1 25 -6 17 -8 37 -5 45 3 8 3 15 0 15 -2 0 -7 -7 -10 -15z"/>
<path d="M853 4396 c-13 -6 -23 -16 -23 -23 0 -7 -6 -13 -14 -13 -8 0 -17 -4
-20 -9 -4 -5 3 -7 15 -4 11 3 23 12 26 19 3 8 8 12 12 11 3 -2 14 4 24 15 19
20 13 21 -20 4z"/>
<path d="M607 4387 c-4 -10 0 -14 11 -12 9 1 20 -2 23 -7 3 -5 9 -3 12 5 4 10
0 14 -11 12 -9 -1 -20 2 -23 7 -3 5 -9 3 -12 -5z"/>
<path d="M417 4371 c-4 -17 -3 -21 5 -13 5 5 8 16 6 23 -3 8 -7 3 -11 -10z"/>
<path d="M506 4382 c-3 -5 1 -9 9 -9 8 0 12 4 9 9 -3 4 -7 8 -9 8 -2 0 -6 -4
-9 -8z"/>
<path d="M558 4376 c-10 -7 -15 -16 -11 -19 11 -11 23 -8 21 6 -2 6 3 11 10 9
8 -1 11 2 7 8 -8 12 -6 12 -27 -4z"/>
<path d="M692 4383 c4 -16 -14 -53 -23 -48 -5 4 -6 -2 -2 -11 4 -10 8 -13 10
-7 3 7 10 11 16 9 7 -1 9 -1 5 1 -5 3 -8 9 -8 14 0 6 4 8 9 4 5 -3 13 0 17 6
5 8 3 9 -6 4 -10 -6 -12 -4 -7 8 3 9 2 19 -4 22 -5 4 -8 3 -7 -2z"/>
<path d="M1035 4380 c-3 -5 -2 -10 4 -10 5 0 13 5 16 10 3 6 2 10 -4 10 -5 0
-13 -4 -16 -10z"/>
<path d="M394 4365 c-3 -8 -4 -20 -2 -27 3 -7 7 -1 10 15 6 29 1 36 -8 12z"/>
<path d="M866 4355 c-3 -8 -1 -15 4 -15 6 0 10 7 10 15 0 8 -2 15 -4 15 -2 0
-6 -7 -10 -15z"/>
<path d="M358 4347 c7 -8 8 -18 4 -22 -4 -5 -1 -5 6 -1 17 10 15 23 -4 30 -13
5 -14 4 -6 -7z"/>
<path d="M585 4349 c-4 -6 -5 -12 -2 -15 2 -3 7 2 10 11 7 17 1 20 -8 4z"/>
<path d="M464 4342 c3 -5 0 -13 -6 -15 -9 -4 -10 -6 -1 -6 17 -1 25 16 12 25
-7 4 -9 3 -5 -4z"/>
<path d="M816 4333 c-4 -5 -13 -8 -18 -8 -6 0 -13 -7 -15 -15 -3 -11 -2 -11 4
-3 10 14 25 6 42 -22 11 -19 12 -19 6 2 -5 19 -3 22 11 16 14 -5 14 -3 -2 15
-21 25 -19 24 -28 15z"/>
<path d="M885 4329 c-6 -8 -4 -10 5 -4 9 5 10 1 6 -16 -6 -21 -6 -22 5 -6 7
13 8 22 1 29 -6 6 -12 6 -17 -3z"/>
<path d="M550 4326 c0 -2 8 -10 18 -17 15 -13 16 -12 3 4 -13 16 -21 21 -21
13z"/>
<path d="M620 4315 c-6 -8 -10 -19 -8 -24 1 -6 8 1 15 14 13 28 11 31 -7 10z"/>
<path d="M741 4304 c0 -11 3 -14 6 -6 3 7 2 16 -1 19 -3 4 -6 -2 -5 -13z"/>
<path d="M530 4299 c0 -5 5 -7 10 -4 6 3 10 8 10 11 0 2 -4 4 -10 4 -5 0 -10
-5 -10 -11z"/>
<path d="M684 4298 c-4 -5 -3 -12 0 -15 3 -4 6 -1 6 6 0 7 4 10 9 6 5 -3 12
-2 15 3 3 5 -2 9 -10 9 -8 0 -17 -4 -20 -9z"/>
<path d="M870 4296 c0 -8 4 -17 9 -20 5 -4 7 3 4 14 -6 23 -13 26 -13 6z"/>
<path d="M435 4279 c-4 -6 -5 -12 -2 -15 2 -3 7 2 10 11 7 17 1 20 -8 4z"/>
<path d="M550 4280 c-12 -7 -10 -9 7 -7 12 0 19 5 17 9 -6 10 -6 10 -24 -2z"/>
<path d="M780 4279 c-12 -9 -12 -10 4 -5 11 4 23 1 28 -6 7 -10 9 -10 6 1 -6
20 -20 23 -38 10z"/>
<path d="M376 4243 c-6 -14 -5 -15 5 -6 7 7 10 15 7 18 -3 3 -9 -2 -12 -12z"/>
<path d="M935 4249 c-4 -6 -5 -12 -2 -15 2 -3 7 2 10 11 7 17 1 20 -8 4z"/>
<path d="M480 4230 c-6 -11 -8 -20 -5 -20 3 0 1 -9 -5 -20 -7 -14 -7 -20 0
-20 5 0 10 7 10 15 0 23 1 29 11 48 5 9 7 17 5 17 -3 0 -10 -9 -16 -20z"/>
<path d="M510 4236 c0 -3 9 -10 20 -16 11 -6 20 -8 20 -6 0 3 -9 10 -20 16
-11 6 -20 8 -20 6z"/>
<path d="M570 4221 c0 -6 5 -11 11 -11 5 0 8 -4 5 -9 -8 -13 -67 -5 -77 10 -6
9 -9 10 -9 2 0 -16 17 -25 51 -28 36 -3 56 17 34 35 -10 9 -15 9 -15 1z"/>
<path d="M740 4220 c0 -5 5 -10 10 -10 6 0 10 5 10 10 0 6 -4 10 -10 10 -5 0
-10 -4 -10 -10z"/>
<path d="M770 4220 c0 -5 5 -10 10 -10 6 0 10 5 10 10 0 6 -4 10 -10 10 -5 0
-10 -4 -10 -10z"/>
<path d="M803 4208 c-2 -18 0 -20 7 -8 12 18 13 30 2 30 -4 0 -9 -10 -9 -22z"/>
<path d="M826 4215 c-3 -8 -1 -15 5 -15 6 0 7 -5 3 -12 -4 -6 -3 -8 4 -5 5 4
8 16 5 27 -6 24 -9 25 -17 5z"/>
<path d="M880 4219 c0 -5 5 -7 10 -4 6 3 10 8 10 11 0 2 -4 4 -10 4 -5 0 -10
-5 -10 -11z"/>
<path d="M953 4199 c1 -22 -2 -33 -10 -32 -8 2 -10 -4 -6 -14 4 -11 3 -14 -5
-9 -8 5 -10 1 -5 -10 5 -14 8 -12 20 10 15 28 29 36 19 10 -3 -8 -2 -13 3 -10
10 7 33 66 25 66 -2 0 -9 -10 -15 -22 -8 -20 -9 -18 -5 12 3 19 2 29 -1 21 -4
-11 -7 -11 -13 0 -5 7 -8 -1 -7 -22z"/>
<path d="M662 4206 c7 -8 15 -12 17 -11 5 6 -10 25 -20 25 -5 0 -4 -6 3 -14z"/>
<path d="M904 4209 c-3 -6 -1 -16 5 -22 9 -9 10 -7 5 7 -6 16 -4 18 10 13 10
-4 15 -3 11 3 -8 13 -22 13 -31 -1z"/>
<path d="M730 4189 c0 -5 5 -7 10 -4 6 3 10 8 10 11 0 2 -4 4 -10 4 -5 0 -10
-5 -10 -11z"/>
<path d="M873 4175 c7 -13 14 -20 15 -15 2 6 9 8 15 4 7 -3 4 1 -5 9 -10 8
-15 17 -11 20 3 4 -1 7 -9 7 -14 0 -14 -4 -5 -25z"/>
<path d="M361 4164 c0 -11 3 -14 6 -6 3 7 2 16 -1 19 -3 4 -6 -2 -5 -13z"/>
<path d="M435 4169 c-4 -6 -5 -12 -2 -15 2 -3 7 2 10 11 7 17 1 20 -8 4z"/>
<path d="M500 4170 c-12 -7 -10 -9 7 -7 12 0 19 5 17 9 -6 10 -6 10 -24 -2z"/>
<path d="M762 4164 c-16 -8 -19 -13 -10 -16 7 -3 10 -8 7 -12 -4 -4 -14 0 -23
9 -9 9 -16 12 -16 6 0 -5 -9 -8 -20 -6 -11 2 -18 0 -15 -5 3 -4 13 -7 23 -5 9
1 25 -2 35 -7 14 -7 19 -3 27 17 5 14 12 25 16 25 3 0 4 -7 1 -15 -4 -8 -1
-17 6 -21 7 -4 9 -4 5 1 -4 4 -3 15 2 25 11 20 -4 22 -38 4z"/>
<path d="M813 4155 c-3 -9 -3 -18 -1 -21 3 -3 8 4 11 16 6 23 -1 27 -10 5z"/>
<path d="M988 4148 c-15 -29 -19 -50 -7 -42 5 3 7 10 4 15 -4 5 -2 9 3 9 5 0
12 9 15 20 7 26 1 25 -15 -2z"/>
<path d="M560 4145 c0 -8 2 -15 4 -15 2 0 6 7 10 15 3 8 1 15 -4 15 -6 0 -10
-7 -10 -15z"/>
<path d="M596 4139 c5 -19 4 -21 -5 -9 -13 18 -15 1 -2 -19 7 -11 10 -9 16 9
4 12 2 27 -3 32 -8 8 -9 4 -6 -13z"/>
<path d="M833 4137 c3 -9 2 -17 -3 -17 -6 0 -10 -8 -9 -17 0 -10 3 -13 5 -6 3
7 13 9 22 6 13 -4 14 -3 3 5 -8 5 -9 11 -3 13 6 2 3 10 -6 19 -14 13 -15 12
-9 -3z"/>
<path d="M396 4127 c3 -10 9 -15 12 -12 3 3 0 11 -7 18 -10 9 -11 8 -5 -6z"/>
<path d="M421 4124 c0 -11 3 -14 6 -6 3 7 2 16 -1 19 -3 4 -6 -2 -5 -13z"/>
<path d="M495 4129 c-4 -5 -4 -13 -1 -16 3 -4 6 0 6 8 0 11 2 11 10 -1 6 -9
10 -10 10 -3 0 17 -17 25 -25 12z"/>
<path d="M645 4129 c-11 -16 -1 -19 13 -3 7 8 8 14 3 14 -5 0 -13 -5 -16 -11z"/>
<path d="M889 4121 c-9 -9 -19 -23 -24 -31 -4 -8 2 -5 14 8 12 12 26 20 32 17
5 -4 9 -2 9 4 0 18 -15 19 -31 2z"/>
<path d="M1050 4132 c0 -7 -4 -11 -9 -8 -5 3 -17 -2 -28 -12 -10 -9 -12 -12
-4 -7 12 8 13 6 8 -7 -3 -10 -2 -18 3 -18 6 0 10 10 11 23 1 18 2 17 10 -8 5
-16 6 -39 3 -50 -4 -15 -3 -16 4 -6 6 8 17 11 32 6 20 -6 21 -5 9 8 -8 8 -18
12 -23 9 -5 -3 -6 2 -3 12 4 10 3 15 -3 11 -6 -3 -10 4 -10 17 0 18 2 20 10 8
5 -8 10 -10 10 -5 0 6 -5 17 -10 25 -7 11 -10 11 -10 2z"/>
<path d="M465 4120 c-4 -6 -11 -7 -17 -4 -7 4 -8 2 -4 -5 6 -9 11 -9 22 0 14
11 18 19 10 19 -3 0 -8 -5 -11 -10z"/>
<path d="M686 4108 c3 -5 10 -6 15 -3 13 9 11 12 -6 12 -8 0 -12 -4 -9 -9z"/>
<path d="M663 4097 c0 -8 6 -14 14 -14 9 0 10 4 2 14 -6 7 -12 13 -14 13 -1 0
-2 -6 -2 -13z"/>
<path d="M631 4095 c3 -25 -2 -34 -18 -29 -16 5 -16 4 0 -6 15 -10 16 -14 5
-28 -11 -15 -11 -15 2 -6 8 5 25 9 38 8 16 -1 22 4 22 19 0 20 -1 20 -13 2
-14 -18 -43 -12 -31 7 4 6 10 5 15 -3 5 -8 9 -9 9 -3 0 5 -7 19 -15 30 -8 10
-15 15 -14 9z"/>
<path d="M919 4098 c-1 -2 -2 -21 -3 -43 -2 -22 -1 -35 1 -28 2 7 12 9 21 6
13 -4 14 -3 4 5 -8 5 -15 21 -15 36 -2 23 -5 32 -8 24z"/>
<path d="M530 4081 c-8 -6 -17 -8 -21 -5 -4 2 -10 0 -14 -5 -3 -6 3 -8 15 -6
23 4 60 24 45 25 -5 0 -17 -4 -25 -9z"/>
<path d="M837 4077 c-3 -8 1 -14 8 -14 7 0 11 6 8 14 -3 7 -6 13 -8 13 -2 0
-5 -6 -8 -13z"/>
<path d="M581 4058 c-1 -21 15 -32 25 -17 4 7 3 9 -4 5 -6 -3 -13 2 -15 11 -4
16 -5 16 -6 1z"/>
<path d="M1005 4060 c-8 -13 5 -13 25 0 13 8 13 10 -2 10 -9 0 -20 -4 -23 -10z"/>
<path d="M1137 4050 c-3 -11 -1 -20 4 -20 5 0 9 9 9 20 0 11 -2 20 -4 20 -2 0
-6 -9 -9 -20z"/>
<path d="M713 4053 c4 -3 1 -13 -6 -22 -11 -14 -10 -14 6 -2 20 15 22 31 5 31
-6 0 -8 -3 -5 -7z"/>
<path d="M785 4050 c3 -5 1 -10 -4 -10 -6 0 -11 -5 -11 -11 0 -8 4 -9 13 0 8
6 18 7 23 3 4 -4 2 1 -5 11 -14 18 -26 24 -16 7z"/>
<path d="M960 4036 c0 -2 7 -7 16 -10 8 -3 12 -2 9 4 -6 10 -25 14 -25 6z"/>
<path d="M1042 4016 c-18 -17 -20 -24 -10 -34 10 -10 10 -15 -2 -22 -18 -12
-2 -12 25 0 11 5 14 9 7 9 -7 1 -10 6 -7 11 3 6 1 10 -4 10 -6 0 -11 5 -11 10
0 6 7 10 15 10 8 0 15 7 15 15 0 19 0 19 -28 -9z"/>
<path d="M660 4011 c0 -7 -5 -9 -12 -5 -7 5 -8 3 -3 -5 5 -9 10 -10 18 -2 6 6
8 14 4 18 -4 3 -7 1 -7 -6z"/>
<path d="M678 4002 c-3 -11 0 -19 7 -19 7 0 10 8 7 19 -2 10 -6 18 -7 18 -1 0
-5 -8 -7 -18z"/>
<path d="M765 3998 c11 -14 21 -23 23 -18 2 4 12 6 23 3 11 -3 18 -11 16 -18
-3 -6 1 -12 8 -12 10 0 11 5 4 19 -7 14 -6 18 6 18 9 0 13 -4 10 -10 -3 -6 1
-7 9 -4 9 3 16 10 16 16 0 5 -5 6 -12 2 -7 -5 -9 -2 -5 8 7 19 -20 18 -32 0
-9 -15 -43 -11 -67 8 -16 13 -16 12 1 -12z"/>
<path d="M720 4006 c0 -2 7 -7 16 -10 8 -3 12 -2 9 4 -6 10 -25 14 -25 6z"/>
<path d="M600 3991 c0 -6 4 -13 10 -16 6 -3 7 1 4 9 -7 18 -14 21 -14 7z"/>
<path d="M965 3979 c-9 -13 0 -22 24 -24 12 -1 17 3 14 12 -4 11 -8 11 -21 1
-13 -11 -15 -10 -9 5 7 19 2 23 -8 6z"/>
<path d="M1265 3973 c-19 -15 -20 -16 0 -9 16 6 15 3 -5 -16 -14 -13 -28 -20
-31 -15 -3 5 -9 1 -13 -9 -8 -22 5 -37 26 -29 9 4 14 14 11 24 -7 26 23 34 57
16 19 -10 31 -11 35 -5 4 6 3 10 -2 9 -20 -3 -52 15 -55 31 -3 17 -5 17 -23 3z"/>
<path d="M760 3971 c0 -6 4 -13 10 -16 6 -3 7 1 4 9 -7 18 -14 21 -14 7z"/>
<path d="M928 3973 c7 -3 16 -2 19 1 4 3 -2 6 -13 5 -11 0 -14 -3 -6 -6z"/>
<path d="M1300 3970 c0 -5 5 -10 11 -10 5 0 7 5 4 10 -3 6 -8 10 -11 10 -2 0
-4 -4 -4 -10z"/>
<path d="M794 3955 c-3 -8 -4 -20 -2 -27 3 -7 7 -1 10 15 6 29 1 36 -8 12z"/>
<path d="M863 3956 c-3 -6 -3 -8 2 -4 4 4 15 2 23 -5 13 -9 14 -9 8 1 -4 6 -3
12 3 12 5 0 12 -5 14 -10 3 -6 4 -5 3 2 -3 16 -44 19 -53 4z"/>
<path d="M686 3949 c3 -5 9 -7 14 -4 4 3 11 0 13 -5 3 -6 4 -5 3 1 -1 7 -10
13 -19 15 -9 1 -15 -2 -11 -7z"/>
<path d="M930 3956 c0 -2 7 -7 16 -10 8 -3 12 -2 9 4 -6 10 -25 14 -25 6z"/>
<path d="M726 3925 c-9 -26 -7 -32 5 -12 6 10 9 21 6 23 -2 3 -7 -2 -11 -11z"/>
<path d="M920 3921 c-12 -24 -13 -34 -1 -27 9 6 22 46 15 46 -2 0 -8 -9 -14
-19z"/>
<path d="M1019 3927 c6 -8 8 -17 4 -20 -3 -4 -1 -7 5 -7 7 0 12 4 12 10 0 5 8
7 18 4 14 -5 14 -4 2 4 -8 6 -18 8 -22 6 -4 -3 -8 0 -8 5 0 6 -5 11 -11 11 -8
0 -9 -4 0 -13z"/>
<path d="M1087 3921 c-4 -17 -3 -21 5 -13 5 5 8 16 6 23 -3 8 -7 3 -11 -10z"/>
<path d="M834 3903 c24 -24 47 -24 45 0 0 9 -2 9 -6 0 -6 -17 -23 -16 -23 1 0
7 -9 16 -21 19 -18 5 -18 3 5 -20z"/>
<path d="M1360 3903 c0 -6 -10 -13 -22 -16 -12 -4 -19 -9 -15 -13 4 -4 2 -13
-4 -20 -8 -10 -6 -11 15 -1 21 10 23 13 8 19 -16 6 -16 7 0 7 18 1 34 19 24
28 -3 4 -6 2 -6 -4z"/>
<path d="M961 3884 c0 -11 3 -14 6 -6 3 7 2 16 -1 19 -3 4 -6 -2 -5 -13z"/>
<path d="M1055 3890 c3 -5 8 -10 11 -10 2 0 4 5 4 10 0 6 -5 10 -11 10 -5 0
-7 -4 -4 -10z"/>
<path d="M1393 3877 c1 -36 -4 -52 -12 -38 -6 9 -11 10 -15 2 -4 -6 -2 -11 3
-11 6 0 11 -8 11 -17 0 -15 -2 -16 -10 -3 -6 10 -10 11 -10 3 0 -7 -5 -12 -11
-10 -6 1 -14 -4 -17 -12 -2 -8 0 -11 6 -8 5 4 12 -3 16 -16 8 -32 8 -35 -11
-40 -14 -4 -13 -5 4 -6 12 0 24 -7 27 -13 3 -7 3 -1 0 13 -4 18 -1 28 10 32 9
4 16 1 16 -4 0 -7 11 -9 25 -7 28 6 45 -10 25 -22 -9 -6 -6 -10 9 -15 13 -4
25 -4 28 -1 4 3 -1 6 -10 6 -22 0 -11 30 12 31 9 0 11 3 4 5 -13 6 -6 35 11
46 7 5 7 8 -1 8 -7 0 -19 -15 -27 -32 -8 -19 -15 -26 -15 -16 -1 9 -6 20 -11
23 -6 4 -9 1 -8 -6 2 -7 -6 -14 -17 -16 -17 -4 -18 -2 -5 7 13 10 12 11 -2 6
-19 -6 -22 1 -10 22 7 10 15 10 36 2 17 -6 25 -6 21 0 -3 6 -13 10 -20 10 -9
0 -12 6 -9 15 4 8 15 15 25 15 13 0 17 -5 12 -17 -4 -11 -3 -14 5 -9 14 9 10
42 -7 59 -7 6 -12 8 -11 2 6 -27 -2 -27 -14 0 -10 25 -13 26 -19 12 -4 -12 -3
-16 4 -11 7 4 10 -1 7 -12 -2 -10 -12 -20 -22 -22 -15 -3 -18 0 -12 21 3 14 2
28 -3 31 -5 3 -9 0 -8 -7z m37 -63 c0 -2 -9 -4 -20 -4 -11 0 -20 4 -20 9 0 5
9 7 20 4 11 -3 20 -7 20 -9z m-39 -41 c-8 -14 -10 -14 -11 -3 0 13 -1 13 -10
0 -8 -13 -10 -13 -10 2 0 9 8 18 18 20 23 6 26 3 13 -19z"/>
<path d="M1040 3871 c0 -6 4 -13 10 -16 6 -3 7 1 4 9 -7 18 -14 21 -14 7z"/>
<path d="M1210 3870 c8 -5 20 -10 25 -10 6 0 3 5 -5 10 -8 5 -19 10 -25 10 -5
0 -3 -5 5 -10z"/>
<path d="M1247 3858 c-2 -7 -1 -20 2 -29 5 -14 8 -15 19 -3 10 12 10 14 -2 14
-10 0 -13 6 -10 15 4 8 4 15 1 15 -3 0 -7 -6 -10 -12z"/>
<path d="M1114 3851 c3 -5 -1 -11 -9 -15 -8 -3 -15 -11 -15 -18 0 -10 2 -10 9
1 5 8 14 10 21 6 8 -5 11 -4 6 3 -3 5 -1 12 6 14 7 3 5 7 -6 11 -9 4 -15 3
-12 -2z"/>
<path d="M835 3839 c-5 -8 -4 -10 3 -5 7 4 12 3 12 -3 0 -5 -6 -12 -12 -14
-10 -4 -10 -6 -1 -6 17 -1 27 19 15 31 -6 6 -12 6 -17 -3z"/>
<path d="M910 3845 c0 -5 5 -17 10 -25 5 -8 10 -10 10 -5 0 6 -5 17 -10 25 -5
8 -10 11 -10 5z"/>
<path d="M1015 3841 c-3 -5 -2 -12 3 -15 5 -3 9 1 9 9 0 17 -3 19 -12 6z"/>
<path d="M1332 3834 c-7 -8 -19 -11 -25 -8 -9 5 -9 4 -1 -5 13 -14 44 -4 44
15 0 17 -2 17 -18 -2z"/>
<path d="M800 3835 c0 -5 5 -17 10 -25 5 -8 10 -10 10 -5 0 6 -5 17 -10 25 -5
8 -10 11 -10 5z"/>
<path d="M940 3819 c0 -5 5 -7 10 -4 6 3 10 8 10 11 0 2 -4 4 -10 4 -5 0 -10
-5 -10 -11z"/>
<path d="M986 3822 c-3 -5 1 -9 9 -9 8 0 12 4 9 9 -3 4 -7 8 -9 8 -2 0 -6 -4
-9 -8z"/>
<path d="M1063 3808 c-2 -18 0 -20 7 -8 12 18 13 30 2 30 -4 0 -9 -10 -9 -22z"/>
<path d="M1137 3810 c-3 -11 -1 -18 4 -14 5 3 9 1 9 -5 0 -6 12 -17 28 -25 15
-8 23 -16 17 -16 -28 -4 -48 -9 -53 -16 -4 -4 1 -4 11 -1 12 4 17 1 18 -11 0
-15 1 -15 8 1 7 20 19 21 39 5 8 -7 12 -7 12 1 0 6 -5 11 -11 11 -5 0 -8 4 -4
9 3 5 -4 13 -16 16 -15 5 -18 10 -9 15 8 5 7 9 -5 13 -9 4 -13 3 -10 -3 3 -6
1 -10 -4 -10 -6 0 -11 2 -11 4 0 2 -3 12 -6 20 -5 12 -2 15 12 9 12 -4 15 -3
10 5 -11 19 -33 14 -39 -8z"/>
<path d="M1195 3821 c-3 -5 0 -13 6 -17 7 -4 9 -3 5 4 -3 5 0 13 6 15 9 4 10
6 1 6 -6 1 -14 -3 -18 -8z"/>
<path d="M1226 3813 c-6 -14 -5 -15 5 -6 7 7 10 15 7 18 -3 3 -9 -2 -12 -12z"/>
<path d="M1275 3809 c-4 -6 -4 -13 -1 -16 3 -4 6 -1 6 6 0 7 5 9 12 5 7 -4 8
-3 4 4 -9 15 -13 15 -21 1z"/>
<path d="M931 3784 c0 -11 3 -14 6 -6 3 7 2 16 -1 19 -3 4 -6 -2 -5 -13z"/>
<path d="M960 3790 c-13 -8 -12 -10 3 -10 9 0 17 5 17 10 0 12 -1 12 -20 0z"/>
<path d="M1014 3792 c3 -6 -4 -18 -16 -26 -12 -9 -18 -16 -12 -16 6 0 19 9 28
19 13 14 14 21 5 27 -7 4 -10 3 -5 -4z"/>
<path d="M1279 3767 c-6 -10 -8 -21 -5 -25 3 -3 6 0 6 7 0 7 4 10 9 7 5 -4 20
-2 33 3 18 8 19 10 5 10 -10 1 -16 5 -13 9 3 5 -2 9 -10 9 -8 0 -20 -9 -25
-20z m26 3 c3 -5 1 -10 -4 -10 -6 0 -11 5 -11 10 0 6 2 10 4 10 3 0 8 -4 11
-10z"/>
<path d="M1505 3770 c-2 -3 5 -7 16 -7 10 -1 19 2 19 6 0 9 -29 10 -35 1z"/>
<path d="M1576 3765 c-9 -26 -7 -32 5 -12 6 10 9 21 6 23 -2 3 -7 -2 -11 -11z"/>
<path d="M1016 3749 c-18 -17 -17 -18 10 -10 15 4 29 14 32 22 3 11 2 12 -6 0
-5 -7 -11 -9 -13 -4 -2 6 -12 2 -23 -8z"/>
<path d="M1126 3758 c3 -5 10 -6 15 -3 13 9 11 12 -6 12 -8 0 -12 -4 -9 -9z"/>
<path d="M921 3744 c0 -11 3 -14 6 -6 3 7 2 16 -1 19 -3 4 -6 -2 -5 -13z"/>
<path d="M1110 3741 c0 -6 4 -13 10 -16 6 -3 7 1 4 9 -7 18 -14 21 -14 7z"/>
<path d="M1528 3733 c-5 -17 -2 -20 11 -15 14 5 14 4 2 -11 -9 -11 -10 -17 -2
-17 6 0 11 4 11 10 0 5 8 7 18 4 14 -5 15 -4 2 5 -13 9 -13 11 0 11 13 0 13 2
0 9 -8 6 -17 8 -21 5 -4 -2 -9 1 -11 8 -3 7 -7 3 -10 -9z"/>
<path d="M1596 3733 c-6 -14 -5 -15 5 -6 7 7 10 15 7 18 -3 3 -9 -2 -12 -12z"/>
<path d="M955 3719 c-4 -6 -5 -12 -2 -15 2 -3 7 2 10 11 7 17 1 20 -8 4z"/>
<path d="M1326 3693 c-6 -14 -5 -15 5 -6 7 7 10 15 7 18 -3 3 -9 -2 -12 -12z"/>
<path d="M1171 3682 c-11 -20 -10 -20 49 -24 19 -2 35 2 35 7 0 6 -4 8 -10 6
-11 -4 -31 -5 -54 -2 -7 0 -11 7 -7 16 8 21 -1 19 -13 -3z"/>
<path d="M1436 3683 c-6 -14 -5 -15 5 -6 7 7 10 15 7 18 -3 3 -9 -2 -12 -12z"/>
<path d="M1488 3668 c3 -15 6 -15 18 -3 19 18 18 24 -5 22 -12 -1 -17 -7 -13
-19z"/>
<path d="M1563 3667 c-2 -18 0 -19 8 -7 8 12 10 9 6 -11 -3 -20 0 -26 12 -25
8 2 17 9 19 17 3 11 1 11 -7 -1 -9 -13 -11 -11 -11 6 0 31 -25 50 -27 21z"/>
<path d="M1527 3666 c-4 -10 -1 -13 8 -9 8 3 12 9 9 14 -7 12 -11 11 -17 -5z"/>
<path d="M1310 3655 c-7 -9 -11 -17 -9 -20 3 -2 10 5 17 15 14 24 10 26 -8 5z"/>
<path d="M1390 3660 c8 -5 24 -10 35 -10 17 0 17 2 5 10 -8 5 -24 10 -35 10
-17 0 -17 -2 -5 -10z"/>
<path d="M1456 3650 c-10 -10 -25 -16 -35 -13 -13 4 -14 3 -1 -5 10 -8 18 -8
27 0 7 5 19 8 27 5 10 -4 12 0 9 14 -3 10 -6 19 -7 18 0 0 -9 -9 -20 -19z"/>
<path d="M1750 3645 c0 -8 2 -15 4 -15 2 0 6 7 10 15 3 8 1 15 -4 15 -6 0 -10
-7 -10 -15z"/>
<path d="M1776 3645 c-3 -8 -1 -15 3 -15 5 0 11 7 15 15 3 8 1 15 -3 15 -5 0
-11 -7 -15 -15z"/>
<path d="M1140 3646 c0 -3 9 -10 20 -16 11 -6 20 -8 20 -6 0 3 -9 10 -20 16
-11 6 -20 8 -20 6z"/>
<path d="M1382 3636 c7 -8 15 -12 17 -11 5 6 -10 25 -20 25 -5 0 -4 -6 3 -14z"/>
<path d="M1513 3605 c-12 -14 -17 -25 -12 -25 6 0 7 -6 3 -12 -4 -9 -4 -10 3
-3 9 10 35 65 30 65 -1 0 -12 -12 -24 -25z"/>
<path d="M1145 3609 c-4 -6 -5 -12 -2 -15 2 -3 7 2 10 11 7 17 1 20 -8 4z"/>
<path d="M1230 3590 c-6 -11 -8 -20 -6 -20 3 0 10 9 16 20 6 11 8 20 6 20 -3
0 -10 -9 -16 -20z"/>
<path d="M1266 3597 c3 -10 9 -15 12 -12 3 3 0 11 -7 18 -10 9 -11 8 -5 -6z"/>
<path d="M1290 3605 c0 -5 5 -17 10 -25 7 -11 10 -11 10 -2 0 7 11 1 25 -14
14 -15 25 -21 25 -15 0 7 5 9 12 5 6 -4 8 -3 4 4 -3 5 0 13 6 15 9 4 10 6 1 6
-6 1 -14 -3 -18 -9 -3 -5 -12 -7 -20 -4 -8 4 -13 9 -11 13 2 3 -2 12 -10 19
-11 10 -14 10 -14 0 0 -9 -3 -9 -10 2 -5 8 -10 11 -10 5z"/>
<path d="M1432 3594 c-7 -8 -18 -12 -24 -8 -6 4 -5 -3 2 -16 11 -21 10 -22 -6
-16 -17 5 -18 5 -2 -7 11 -9 14 -18 7 -28 -5 -8 -9 -18 -9 -24 0 -5 5 -3 10 5
8 12 10 12 10 -5 0 -16 2 -17 10 -5 6 9 5 17 -3 22 -9 6 -8 10 3 17 8 5 18 7
22 5 4 -3 5 2 1 11 -3 10 0 21 8 26 11 7 11 9 1 9 -8 0 -16 -9 -19 -20 -7 -26
-18 -26 -20 0 -1 11 6 22 18 25 10 4 19 11 19 16 0 13 -13 10 -28 -7z"/>
<path d="M1540 3599 c0 -5 5 -7 10 -4 6 3 10 8 10 11 0 2 -4 4 -10 4 -5 0 -10
-5 -10 -11z"/>
<path d="M1661 3596 c-1 -12 4 -16 15 -12 12 5 14 1 9 -17 -6 -21 -5 -21 8 2
10 17 16 20 19 10 3 -9 6 -6 10 8 5 19 3 20 -23 13 -19 -6 -29 -4 -33 3 -2 7
-5 4 -5 -7z"/>
<path d="M1181 3584 c0 -11 3 -14 6 -6 3 7 2 16 -1 19 -3 4 -6 -2 -5 -13z"/>
<path d="M1733 3578 c3 -9 1 -19 -6 -22 -9 -3 -9 -5 0 -5 18 -1 23 13 11 29
-8 12 -9 12 -5 -2z"/>
<path d="M1830 3582 c0 -5 7 -9 15 -9 8 0 12 4 9 9 -3 4 -9 8 -15 8 -5 0 -9
-4 -9 -8z"/>
<path d="M1870 3572 c0 -7 -6 -12 -14 -12 -8 0 -18 -4 -21 -10 -4 -6 1 -7 11
-3 12 4 15 2 12 -8 -3 -8 -10 -14 -15 -14 -6 0 -15 -3 -19 -7 -4 -5 -2 -8 4
-8 7 0 12 -5 12 -11 0 -5 -5 -7 -12 -3 -7 5 -8 3 -3 -6 6 -10 12 -7 26 11 17
23 31 70 23 78 -2 2 -4 -1 -4 -7z"/>
<path d="M1634 3559 c-3 -6 -3 -13 0 -16 3 -4 6 -1 6 5 0 6 7 9 15 6 8 -4 15
-4 15 -1 0 11 -30 16 -36 6z"/>
<path d="M1468 3548 c5 -5 16 -8 23 -6 8 3 3 7 -10 11 -17 4 -21 3 -13 -5z"/>
<path d="M1505 3530 c-4 -6 -11 -8 -16 -5 -5 3 -6 -1 -3 -9 3 -9 11 -16 17
-16 6 0 7 3 4 7 -4 3 -2 12 4 20 6 7 9 13 6 13 -3 0 -9 -5 -12 -10z"/>
<path d="M1675 3529 c-4 -6 -5 -12 -2 -15 2 -3 7 2 10 11 7 17 1 20 -8 4z"/>
<path d="M1728 3533 c7 -3 16 -2 19 1 4 3 -2 6 -13 5 -11 0 -14 -3 -6 -6z"/>
<path d="M1761 3526 c-9 -11 -6 -20 15 -43 20 -20 25 -23 20 -9 -4 12 -2 23 6
28 10 6 10 8 -2 8 -13 0 -13 1 0 11 13 9 13 10 0 6 -8 -2 -15 -9 -15 -14 0 -6
-4 -15 -9 -20 -5 -4 -7 4 -4 20 6 31 5 32 -11 13z"/>
<path d="M1533 3506 c-9 -11 -9 -15 0 -19 7 -3 14 3 14 14 2 22 2 22 -14 5z"/>
<path d="M1733 3505 c0 -8 4 -15 9 -15 4 0 8 4 8 9 0 6 -4 12 -8 15 -5 3 -9
-1 -9 -9z"/>
<path d="M1934 3509 c-7 -12 17 -32 26 -22 3 3 -1 8 -8 10 -6 3 -10 9 -6 14 3
5 3 9 0 9 -3 0 -8 -5 -12 -11z"/>
<path d="M1962 3493 c-2 -50 -5 -60 -21 -59 -9 1 -19 6 -23 11 -5 6 -8 4 -8
-5 0 -13 -1 -13 -10 0 -6 10 -10 11 -10 3 0 -7 -11 -13 -25 -13 -14 0 -25 4
-25 10 0 5 8 7 18 3 9 -3 14 -3 11 1 -11 12 -48 15 -55 4 -5 -7 -2 -8 6 -3 9
6 12 4 8 -7 -4 -8 -1 -15 5 -16 7 -1 24 -3 39 -5 28 -3 51 -17 29 -17 -7 0 -9
-5 -5 -11 10 -16 24 10 16 30 -4 13 -3 14 9 5 8 -6 23 -8 34 -5 16 5 21 16 23
54 2 26 -1 47 -6 47 -5 0 -10 -12 -10 -27z"/>
<path d="M1446 3493 c-6 -14 -5 -15 5 -6 7 7 10 15 7 18 -3 3 -9 -2 -12 -12z"/>
<path d="M1561 3494 c0 -11 3 -14 6 -6 3 7 2 16 -1 19 -3 4 -6 -2 -5 -13z"/>
<path d="M1616 3498 c3 -5 10 -6 15 -3 13 9 11 12 -6 12 -8 0 -12 -4 -9 -9z"/>
<path d="M1707 3495 c-6 -14 -10 -15 -22 -5 -8 6 -20 10 -27 7 -8 -4 -7 -6 5
-6 9 -1 17 -6 17 -12 0 -6 9 -8 20 -4 13 4 20 2 20 -6 0 -7 2 -10 5 -7 3 3 2
15 -3 28 -8 21 -9 21 -15 5z"/>
<path d="M1901 3483 c-10 -26 -10 -27 4 -9 8 11 15 23 15 28 0 15 -7 8 -19
-19z"/>
<path d="M1494 3458 c0 -10 1 -18 3 -18 1 0 7 8 12 18 7 13 6 19 -2 19 -7 0
-13 -9 -13 -19z"/>
<path d="M1932 3466 c7 -8 15 -12 17 -11 5 6 -10 25 -20 25 -5 0 -4 -6 3 -14z"/>
<path d="M1707 3445 c3 -8 9 -12 14 -9 12 7 11 11 -5 17 -10 4 -13 1 -9 -8z"/>
<path d="M2080 3449 c0 -5 5 -7 10 -4 6 3 10 8 10 11 0 2 -4 4 -10 4 -5 0 -10
-5 -10 -11z"/>
<path d="M1777 3433 c-10 -9 -9 -23 1 -23 5 0 9 7 9 15 0 17 -1 18 -10 8z"/>
<path d="M1480 3419 c0 -5 5 -7 10 -4 6 3 10 8 10 11 0 2 -4 4 -10 4 -5 0 -10
-5 -10 -11z"/>
<path d="M1580 3421 c0 -6 4 -13 10 -16 6 -3 7 1 4 9 -7 18 -14 21 -14 7z"/>
<path d="M1606 3415 c4 -8 8 -15 10 -15 2 0 4 7 4 15 0 8 -4 15 -10 15 -5 0
-7 -7 -4 -15z"/>
<path d="M1629 3393 c-13 -16 -12 -17 4 -4 16 13 21 21 13 21 -2 0 -10 -8 -17
-17z"/>
<path d="M1737 3397 c-4 -10 0 -14 11 -12 9 1 21 -3 25 -9 6 -7 7 -7 5 2 -2 8
-7 13 -12 12 -5 -1 -12 4 -16 10 -5 8 -9 7 -13 -3z"/>
<path d="M1842 3396 c7 -8 15 -12 17 -11 5 6 -10 25 -20 25 -5 0 -4 -6 3 -14z"/>
<path d="M1585 3380 c-3 -6 1 -7 9 -4 18 7 21 14 7 14 -6 0 -13 -4 -16 -10z"/>
<path d="M1556 3371 c-3 -5 2 -15 12 -22 15 -12 16 -12 5 2 -7 9 -10 19 -6 22
3 4 4 7 0 7 -3 0 -8 -4 -11 -9z"/>
<path d="M1657 3373 c-4 -6 -3 -23 2 -39 l8 -29 6 30 c5 30 -5 55 -16 38z"/>
<path d="M1975 3370 c-3 -5 -1 -10 4 -10 6 0 11 5 11 10 0 6 -2 10 -4 10 -3 0
-8 -4 -11 -10z"/>
<path d="M1912 3357 c2 -9 -1 -15 -7 -14 -5 1 -9 6 -7 10 1 4 -7 3 -18 -3 -11
-6 -20 -16 -20 -23 0 -7 -4 -6 -10 3 -6 9 -10 10 -10 3 0 -20 18 -24 28 -6 8
13 13 14 24 6 10 -8 17 -8 29 0 14 11 14 14 2 26 -12 11 -14 11 -11 -2z"/>
<path d="M1536 3333 c-6 -14 -5 -15 5 -6 7 7 10 15 7 18 -3 3 -9 -2 -12 -12z"/>
<path d="M1685 3339 c-4 -6 -5 -12 -2 -15 2 -3 7 2 10 11 7 17 1 20 -8 4z"/>
<path d="M1706 3334 c-4 -9 -4 -19 -1 -22 2 -3 7 3 11 12 4 9 4 19 1 22 -2 3
-7 -3 -11 -12z"/>
<path d="M1761 3343 c-1 -17 19 -27 31 -15 6 6 18 8 27 5 9 -4 13 -3 10 1 -10
11 -50 16 -44 5 4 -5 2 -9 -4 -9 -5 0 -12 6 -14 13 -4 9 -6 9 -6 0z"/>
<path d="M1631 3327 c-8 -10 -7 -14 2 -14 8 0 14 6 14 14 0 7 -1 13 -2 13 -2
0 -8 -6 -14 -13z"/>
<path d="M1939 3323 c-13 -16 -12 -17 4 -4 9 7 17 15 17 17 0 8 -8 3 -21 -13z"/>
<path d="M2031 3322 c0 -12 2 -13 6 -3 4 10 7 10 13 1 5 -9 9 -8 13 2 3 9 -2
14 -14 15 -12 1 -19 -4 -18 -15z"/>
<path d="M2190 3330 c0 -5 -8 -10 -17 -11 -11 0 -13 -3 -5 -6 6 -2 12 -11 12
-19 0 -11 -12 -13 -53 -11 -51 3 -53 2 -49 -20 2 -13 8 -25 12 -28 4 -2 5 7 2
20 -3 20 -1 24 12 19 9 -3 16 -10 16 -15 0 -5 11 -4 25 1 17 6 25 6 25 -1 0
-7 11 -8 30 -4 26 6 29 4 24 -12 -5 -15 -3 -15 7 2 7 11 15 22 18 25 3 3 7 12
9 20 2 11 -2 10 -12 -3 -8 -10 -23 -17 -33 -15 -21 4 -30 35 -13 52 9 8 10 4
5 -19 -5 -27 -4 -28 5 -7 10 25 6 42 -11 42 -5 0 -9 -4 -9 -10z"/>
<path d="M2121 3323 c-1 -17 16 -25 25 -12 4 7 3 9 -4 5 -5 -3 -13 0 -15 6 -4
9 -6 10 -6 1z"/>
<path d="M1737 3303 c3 -7 6 -13 8 -13 2 0 5 6 8 13 3 8 -1 14 -8 14 -7 0 -11
-6 -8 -14z"/>
<path d="M1795 3309 c-4 -6 -5 -12 -2 -15 2 -3 7 2 10 11 7 17 1 20 -8 4z"/>
<path d="M1977 3301 c-4 -17 -3 -21 5 -13 5 5 8 16 6 23 -3 8 -7 3 -11 -10z"/>
<path d="M1890 3300 c0 -5 7 -7 15 -4 8 4 15 8 15 10 0 2 -7 4 -15 4 -8 0 -15
-4 -15 -10z"/>
<path d="M1943 3285 c0 -8 7 -17 15 -20 21 -8 22 -3 2 17 -13 14 -17 15 -17 3z"/>
<path d="M1994 3278 c-4 -13 -12 -26 -18 -30 -7 -5 -7 -8 2 -8 8 0 16 9 19 20
3 11 9 17 14 14 5 -3 6 2 3 10 -8 21 -11 20 -20 -6z"/>
<path d="M1915 3280 c3 -5 8 -10 11 -10 2 0 4 5 4 10 0 6 -5 10 -11 10 -5 0
-7 -4 -4 -10z"/>
<path d="M1773 3266 c-4 -7 -15 -15 -23 -18 -10 -3 -7 -6 9 -11 13 -3 20 -3
17 0 -3 3 -1 14 5 24 11 22 4 26 -8 5z"/>
<path d="M1835 3259 c-4 -6 -5 -12 -2 -15 2 -3 7 2 10 11 7 17 1 20 -8 4z"/>
<path d="M2040 3261 c0 -10 19 -25 25 -20 1 2 -3 10 -11 17 -8 7 -14 8 -14 3z"/>
<path d="M2250 3245 c-11 -13 -10 -14 6 -8 16 5 17 4 7 -8 -9 -12 -6 -14 18
-14 34 0 38 10 8 18 -12 3 -18 10 -14 16 10 17 -11 13 -25 -4z"/>
<path d="M2344 3252 c3 -5 1 -12 -6 -14 -6 -2 -12 -14 -13 -26 -2 -29 1 -28
18 8 11 20 12 32 5 36 -6 4 -8 2 -4 -4z"/>
<path d="M1875 3239 c-4 -6 -5 -12 -2 -15 2 -3 7 2 10 11 7 17 1 20 -8 4z"/>
<path d="M1909 3237 c-8 -7 -12 -11 -10 -10 2 2 10 -2 18 -9 11 -9 12 -7 7 7
-6 14 -4 16 7 9 17 -10 43 -15 34 -6 -4 4 -10 7 -13 7 -4 0 -12 3 -18 7 -6 4
-17 2 -25 -5z"/>
<path d="M2125 3240 c-16 -7 -14 -9 12 -7 17 0 29 5 27 9 -6 10 -13 9 -39 -2z"/>
<path d="M7640 3225 c11 -14 7 -23 -31 -61 -24 -25 -57 -48 -72 -51 -19 -4
-26 -10 -23 -20 4 -8 6 -17 6 -19 0 -12 32 0 74 27 48 32 92 99 82 125 -3 8
-15 14 -27 14 -18 0 -20 -2 -9 -15z"/>
<path d="M1810 3226 c0 -2 7 -7 16 -10 8 -3 12 -2 9 4 -6 10 -25 14 -25 6z"/>
<path d="M2047 3216 c-4 -10 -3 -15 3 -11 6 3 10 1 10 -6 0 -7 3 -10 6 -6 3 3
2 13 -4 22 -8 16 -9 16 -15 1z"/>
<path d="M2401 3214 c0 -11 3 -14 6 -6 3 7 2 16 -1 19 -3 4 -6 -2 -5 -13z"/>
<path d="M2422 3210 c0 -14 2 -19 5 -12 2 6 2 18 0 25 -3 6 -5 1 -5 -13z"/>
<path d="M2220 3213 c0 -7 -6 -11 -12 -9 -7 1 -10 1 -5 -1 4 -3 7 -11 7 -19 0
-14 34 -15 45 -1 3 4 2 5 -2 2 -4 -3 -13 5 -20 17 -7 13 -12 18 -13 11z"/>
<path d="M1796 3193 c-6 -14 -5 -15 5 -6 7 7 10 15 7 18 -3 3 -9 -2 -12 -12z"/>
<path d="M1865 3199 c-4 -6 -5 -12 -2 -15 2 -3 7 2 10 11 7 17 1 20 -8 4z"/>
<path d="M1960 3204 c0 -1 8 -8 17 -15 9 -8 14 -9 10 -2 -4 6 -1 13 5 16 7 3
3 4 -9 4 -13 -1 -23 -2 -23 -3z"/>
<path d="M2152 3201 c-11 -6 -10 -10 4 -15 9 -3 19 -4 22 -1 3 3 -1 5 -9 5
-11 0 -11 2 1 10 8 5 11 10 5 10 -5 0 -16 -4 -23 -9z"/>
<path d="M2283 3203 c4 -6 2 -13 -5 -15 -9 -3 -9 -6 0 -12 7 -4 12 -2 12 5 0
7 8 3 18 -7 9 -11 24 -19 32 -19 14 1 30 -13 30 -26 0 -10 -34 -5 -42 6 -4 6
-8 2 -8 -9 0 -13 5 -17 20 -13 11 3 23 1 26 -4 3 -5 11 -9 17 -9 8 0 8 3 -1 9
-11 7 -11 11 2 24 21 20 21 33 0 16 -13 -11 -14 -9 -9 14 5 18 3 27 -5 27 -6
0 -8 -4 -5 -10 12 -19 -32 -10 -61 12 -15 13 -25 17 -21 11z"/>
<path d="M1922 3168 c-10 -22 -11 -22 -12 -3 l-1 20 -9 -20 c-5 -11 -9 -14 -9
-7 -1 14 -31 17 -31 2 0 -5 3 -9 8 -9 4 1 9 0 12 -1 24 -9 42 -5 51 12 6 11 9
22 6 24 -2 2 -9 -6 -15 -18z"/>
<path d="M1996 3174 c-4 -10 -2 -22 4 -28 8 -8 9 -6 4 7 -5 14 -2 16 12 11 11
-3 15 -2 9 3 -5 4 -13 12 -16 16 -4 4 -9 0 -13 -9z"/>
<path d="M2098 3167 c-3 -19 -2 -25 4 -19 6 6 8 18 6 28 -3 14 -5 12 -10 -9z"/>
<path d="M2183 3174 c-17 -18 -17 -19 14 -21 14 0 22 2 16 5 -5 4 -12 12 -14
19 -3 8 -8 7 -16 -3z"/>
<path d="M2252 3145 c-13 -29 -1 -41 27 -25 16 8 20 6 24 -8 4 -13 5 -12 6 5
1 16 -4 21 -19 20 -11 -1 -20 -5 -20 -9 0 -4 -5 -8 -10 -8 -7 0 -7 7 0 21 7
11 10 23 7 25 -2 2 -9 -7 -15 -21z"/>
<path d="M2414 3142 c0 -9 -4 -16 -11 -15 -8 2 -10 -4 -6 -14 6 -14 8 -14 20
3 15 21 16 31 4 38 -5 3 -8 -2 -7 -12z"/>
<path d="M2470 3137 c-12 -20 -12 -21 3 -9 10 9 25 11 39 7 26 -8 23 -3 -8 13
-16 9 -22 7 -34 -11z"/>
<path d="M7507 3153 c-4 -3 -7 -13 -7 -22 1 -13 3 -13 11 2 11 19 8 33 -4 20z"/>
<path d="M2031 3136 c-1 -13 -6 -16 -18 -11 -15 5 -16 4 -5 -6 15 -16 37 2 29
23 -4 8 -6 6 -6 -6z"/>
<path d="M1810 3126 c0 -8 4 -17 9 -20 5 -4 7 3 4 14 -6 23 -13 26 -13 6z"/>
<path d="M1866 3132 c-3 -5 1 -9 9 -9 8 0 12 4 9 9 -3 4 -7 8 -9 8 -2 0 -6 -4
-9 -8z"/>
<path d="M1930 3121 c-8 -13 -11 -13 -18 -3 -8 11 -10 11 -15 -1 -3 -9 2 -21
11 -29 9 -7 13 -8 9 -1 -4 7 5 15 23 22 32 11 41 28 15 28 -9 0 -20 -7 -25
-16z"/>
<path d="M2157 3131 c2 -2 -2 -10 -8 -18 -8 -9 -15 -10 -24 -3 -14 11 -33 -5
-21 -17 3 -4 6 -1 6 7 0 10 3 10 15 0 8 -7 15 -9 15 -5 0 4 8 1 18 -6 15 -13
16 -12 3 4 -15 18 -2 24 16 6 8 -8 13 -8 18 0 3 6 2 10 -4 9 -5 -2 -16 4 -23
12 -7 8 -12 13 -11 11z"/>
<path d="M2206 3128 c3 -5 10 -6 15 -3 13 9 11 12 -6 12 -8 0 -12 -4 -9 -9z"/>
<path d="M2064 3115 c-4 -8 -10 -12 -15 -9 -5 3 -9 1 -9 -5 0 -22 18 -19 28 4
7 14 9 25 6 25 -2 0 -7 -7 -10 -15z"/>
<path d="M2076 3093 c-6 -14 -5 -15 5 -6 7 7 10 15 7 18 -3 3 -9 -2 -12 -12z"/>
<path d="M2458 3103 c6 -2 9 -10 6 -15 -4 -7 -2 -8 4 -4 18 11 14 26 -5 25
-11 0 -13 -3 -5 -6z"/>
<path d="M2530 3100 c0 -5 -6 -7 -14 -4 -19 7 -31 -15 -17 -29 9 -9 10 -8 5 7
-6 15 -4 17 14 11 16 -5 22 -2 22 9 0 9 -2 16 -5 16 -3 0 -5 -4 -5 -10z"/>
<path d="M2555 3100 c-3 -5 -1 -10 4 -10 6 0 11 5 11 10 0 6 -2 10 -4 10 -3 0
-8 -4 -11 -10z"/>
<path d="M2357 3084 c-12 -13 -8 -22 10 -20 9 2 19 9 21 17 3 12 2 12 -6 0 -7
-9 -11 -10 -13 -2 -3 7 -8 9 -12 5z"/>
<path d="M2017 3063 c3 -7 6 -13 8 -13 2 0 5 6 8 13 3 8 -1 14 -8 14 -7 0 -11
-6 -8 -14z"/>
<path d="M2135 3070 c-3 -5 -1 -10 4 -10 6 0 11 5 11 10 0 6 -2 10 -4 10 -3 0
-8 -4 -11 -10z"/>
<path d="M2260 3065 c-11 -13 -10 -14 4 -9 9 3 16 10 16 15 0 13 -6 11 -20 -6z"/>
<path d="M2426 3068 c3 -4 9 -8 15 -8 5 0 9 4 9 8 0 5 -7 9 -15 9 -8 0 -12 -4
-9 -9z"/>
<path d="M2036 3033 c-4 -9 -3 -20 1 -24 4 -4 9 3 9 17 2 28 -1 31 -10 7z"/>
<path d="M2285 3040 c3 -5 11 -10 16 -10 6 0 7 5 4 10 -3 6 -11 10 -16 10 -6
0 -7 -4 -4 -10z"/>
<path d="M2474 3038 c4 -20 26 -21 26 -1 0 14 -2 15 -9 4 -6 -9 -10 -10 -14
-2 -4 8 -5 8 -3 -1z"/>
<path d="M2513 3033 c-4 -10 -11 -21 -16 -24 -5 -3 -1 -9 9 -13 10 -4 15 -4
12 -1 -4 4 -3 18 2 31 5 13 7 24 4 24 -2 0 -8 -8 -11 -17z"/>
<path d="M2005 3029 c-4 -6 -5 -12 -2 -15 2 -3 7 2 10 11 7 17 1 20 -8 4z"/>
<path d="M2216 3027 c3 -10 9 -15 12 -12 3 3 0 11 -7 18 -10 9 -11 8 -5 -6z"/>
<path d="M2371 3031 c-9 -6 -10 -11 -2 -15 6 -4 11 -2 11 4 0 6 5 8 12 4 7 -4
8 -3 4 4 -8 14 -7 14 -25 3z"/>
<path d="M2441 3031 c-11 -7 -9 -10 7 -15 14 -5 19 -13 16 -24 -5 -14 -4 -15
5 -2 8 11 7 18 -4 26 -8 6 -12 14 -8 17 9 10 1 8 -16 -2z"/>
<path d="M2140 3020 c0 -5 5 -10 10 -10 6 0 10 5 10 10 0 6 -4 10 -10 10 -5 0
-10 -4 -10 -10z"/>
<path d="M2237 3010 c-5 -20 9 -38 20 -26 4 3 1 6 -6 6 -9 0 -9 5 -1 20 6 11
7 20 2 20 -6 0 -12 -9 -15 -20z"/>
<path d="M2530 3026 c0 -2 7 -7 16 -10 8 -3 12 -2 9 4 -6 10 -25 14 -25 6z"/>
<path d="M2593 3023 c-13 -2 -23 -8 -23 -13 0 -10 38 -1 46 11 3 5 4 8 2 8 -2
-1 -13 -4 -25 -6z"/>
<path d="M2680 3023 c0 -7 -6 -10 -14 -7 -7 3 -16 -2 -20 -11 -3 -9 -2 -13 4
-10 6 3 10 -2 11 -12 0 -14 2 -14 9 5 5 12 12 22 15 22 4 0 4 -4 0 -9 -3 -5
-1 -12 5 -16 13 -8 13 15 0 35 -6 9 -10 11 -10 3z"/>
<path d="M2076 3007 c3 -10 9 -15 12 -12 3 3 0 11 -7 18 -10 9 -11 8 -5 -6z"/>
<path d="M2100 3011 c0 -6 4 -13 10 -16 6 -3 7 1 4 9 -7 18 -14 21 -14 7z"/>
<path d="M2304 3012 c3 -5 0 -13 -6 -15 -9 -4 -10 -6 -1 -6 17 -1 25 16 12 25
-7 4 -9 3 -5 -4z"/>
<path d="M2165 2999 c-4 -6 -5 -12 -2 -15 2 -3 7 2 10 11 7 17 1 20 -8 4z"/>
<path d="M2266 2997 c3 -10 9 -15 12 -12 3 3 0 11 -7 18 -10 9 -11 8 -5 -6z"/>
<path d="M2394 2998 c-4 -6 -3 -8 4 -4 5 3 13 0 15 -6 4 -10 6 -10 6 -1 1 7 8
10 19 6 9 -3 14 -3 11 1 -11 12 -48 15 -55 4z"/>
<path d="M2187 2969 c7 -7 15 -10 18 -7 3 3 -2 9 -12 12 -14 6 -15 5 -6 -5z"/>
<path d="M2314 2973 c3 -6 2 -14 -4 -18 -5 -3 -10 -12 -10 -18 0 -7 4 -6 11 3
8 12 9 8 5 -15 -3 -16 -3 -25 0 -18 3 7 13 9 22 6 12 -3 13 -2 5 4 -7 5 -14
19 -16 31 -2 12 -7 25 -12 29 -4 5 -5 3 -1 -4z"/>
<path d="M2385 2970 c-8 -13 4 -32 16 -25 5 4 9 1 9 -4 0 -6 5 -11 11 -11 8 0
8 5 -1 15 -7 8 -17 12 -23 8 -6 -4 -8 0 -4 10 7 19 2 23 -8 7z"/>
<path d="M2551 2957 c-13 -21 -12 -21 5 -5 10 10 16 20 13 22 -3 3 -11 -5 -18
-17z"/>
<path d="M2610 2969 c-12 -9 -12 -10 4 -5 13 5 17 2 13 -8 -6 -14 17 -17 28
-3 3 4 2 5 -2 2 -3 -3 -11 2 -17 10 -8 11 -15 12 -26 4z"/>
<path d="M2727 2974 c-7 -7 14 -44 26 -44 5 0 20 -14 34 -30 14 -17 28 -29 30
-26 3 3 -7 17 -21 31 -15 14 -24 31 -20 36 3 5 0 8 -8 7 -8 -2 -12 5 -11 17 1
11 0 14 -3 8 -3 -7 -10 -13 -15 -13 -6 0 -7 5 -4 10 7 11 2 14 -8 4z"/>
<path d="M2775 2970 c-3 -5 -1 -10 4 -10 6 0 11 5 11 10 0 6 -2 10 -4 10 -3 0
-8 -4 -11 -10z"/>
<path d="M2675 2960 c-3 -5 -2 -10 4 -10 6 0 8 -8 5 -17 -5 -14 -4 -15 4 -4 6
8 8 20 5 28 -6 16 -10 16 -18 3z"/>
<path d="M2095 2949 c-4 -6 -5 -12 -2 -15 2 -3 7 2 10 11 7 17 1 20 -8 4z"/>
<path d="M2488 2953 c-10 -2 -18 -9 -18 -14 0 -6 8 -5 20 1 11 6 20 13 20 15
0 3 -1 4 -2 4 -2 -1 -11 -3 -20 -6z"/>
<path d="M2280 2941 c0 -7 -4 -9 -10 -6 -6 4 -7 -1 -3 -11 6 -15 7 -15 15 1 6
9 7 19 4 22 -3 4 -6 1 -6 -6z"/>
<path d="M2345 2940 c-4 -6 1 -7 11 -3 14 5 16 3 10 -13 -5 -14 -4 -16 5 -7
12 12 5 33 -11 33 -5 0 -12 -4 -15 -10z"/>
<path d="M2710 2942 c0 -16 38 -44 45 -33 3 6 2 11 -4 11 -5 0 -17 7 -25 16
-9 8 -16 11 -16 6z"/>
<path d="M2797 2943 c-4 -3 -7 -11 -7 -17 0 -6 5 -5 12 2 6 6 9 14 7 17 -3 3
-9 2 -12 -2z"/>
<path d="M2820 2918 c-12 -22 -12 -22 6 -6 10 10 15 20 12 24 -4 3 -12 -5 -18
-18z"/>
<path d="M2435 2920 c-3 -6 1 -7 9 -4 18 7 21 14 7 14 -6 0 -13 -4 -16 -10z"/>
<path d="M2490 2919 c-12 -8 -10 -9 9 -4 17 5 22 4 16 -5 -5 -9 -4 -11 3 -6 7
4 12 11 12 17 0 12 -21 11 -40 -2z"/>
<path d="M2620 2915 c0 -7 30 -13 34 -7 3 4 -4 9 -15 9 -10 1 -19 0 -19 -2z"/>
<path d="M2845 2910 c-3 -5 -2 -10 4 -10 5 0 13 5 16 10 3 6 2 10 -4 10 -5 0
-13 -4 -16 -10z"/>
<path d="M2614 2893 c4 -6 2 -14 -4 -18 -13 -8 -13 -25 1 -25 5 0 7 5 4 10 -3
6 -2 10 3 10 18 0 21 -29 4 -39 -9 -6 -12 -11 -6 -11 17 0 33 22 27 38 -4 9
-2 13 4 9 5 -3 10 1 10 9 0 10 -4 11 -10 5 -7 -7 -15 -5 -24 7 -8 9 -12 12 -9
5z"/>
<path d="M2897 2880 c-3 -11 0 -23 6 -27 7 -3 9 -3 5 2 -4 4 -3 16 3 26 5 11
6 19 1 19 -6 0 -12 -9 -15 -20z"/>
<path d="M2305 2879 c-4 -6 -5 -12 -2 -15 2 -3 7 2 10 11 7 17 1 20 -8 4z"/>
<path d="M2465 2880 c-10 -17 12 -37 25 -24 8 8 6 15 -4 23 -10 9 -16 9 -21 1z
m20 -10 c3 -5 1 -10 -4 -10 -6 0 -11 5 -11 10 0 6 2 10 4 10 3 0 8 -4 11 -10z"/>
<path d="M2712 2882 c2 -8 6 -12 10 -10 3 2 16 -6 29 -17 12 -11 19 -14 15 -7
-4 7 -1 12 8 12 25 0 46 -12 39 -23 -3 -6 -1 -7 5 -3 7 4 12 10 12 14 0 13
-48 29 -61 21 -7 -4 -19 -3 -26 3 -7 6 -13 7 -13 2 0 -5 -5 -2 -11 6 -7 10 -9
11 -7 2z"/>
<path d="M2853 2870 c3 -11 2 -20 -3 -20 -4 0 -11 -8 -14 -17 -6 -15 -5 -15
12 1 17 15 20 56 5 56 -3 0 -3 -9 0 -20z"/>
<path d="M2257 2861 c-4 -17 -3 -21 5 -13 5 5 8 16 6 23 -3 8 -7 3 -11 -10z"/>
<path d="M2540 2872 c0 -6 -8 -9 -17 -6 -15 5 -16 4 -3 -5 16 -11 40 3 27 16
-4 3 -7 1 -7 -5z"/>
<path d="M2346 2853 c-6 -14 -5 -15 5 -6 7 7 10 15 7 18 -3 3 -9 -2 -12 -12z"/>
<path d="M2924 2842 c0 -11 8 -18 21 -19 11 -1 14 1 8 4 -7 3 -13 11 -13 19 0
8 -4 14 -8 14 -4 0 -8 -8 -8 -18z"/>
<path d="M2980 2845 c0 -8 2 -15 4 -15 2 0 6 7 10 15 3 8 1 15 -4 15 -6 0 -10
-7 -10 -15z"/>
<path d="M2501 2842 c-1 -7 -8 -12 -17 -10 -10 2 -19 -4 -21 -12 -3 -11 -2
-12 4 -3 7 10 13 10 29 -3 17 -14 17 -15 1 -10 -11 4 -16 2 -12 -5 4 -6 13 -8
21 -5 8 3 14 0 14 -7 0 -8 3 -8 9 2 6 9 10 10 12 2 2 -6 10 -1 18 11 13 21 13
22 -2 9 -10 -8 -17 -9 -17 -3 0 6 5 14 10 17 6 3 10 12 10 18 0 7 -8 0 -18
-16 -10 -15 -22 -24 -25 -21 -4 4 -1 14 6 22 8 11 8 14 0 9 -6 -4 -14 -1 -16
5 -4 10 -6 10 -6 0z"/>
<path d="M2876 2833 c-6 -14 -5 -15 5 -6 7 7 10 15 7 18 -3 3 -9 -2 -12 -12z"/>
<path d="M2271 2824 c0 -11 3 -14 6 -6 3 7 2 16 -1 19 -3 4 -6 -2 -5 -13z"/>
<path d="M2367 2829 c7 -7 15 -10 18 -7 3 3 -2 9 -12 12 -14 6 -15 5 -6 -5z"/>
<path d="M2680 2836 c0 -2 7 -7 16 -10 8 -3 12 -2 9 4 -6 10 -25 14 -25 6z"/>
<path d="M2973 2798 c1 -13 -2 -29 -6 -35 -5 -7 -4 -13 2 -13 5 0 12 4 16 10
3 5 13 7 23 4 9 -2 7 1 -5 7 -12 6 -24 20 -26 30 -4 14 -4 13 -4 -3z"/>
<path d="M3041 2804 c0 -11 3 -14 6 -6 3 7 2 16 -1 19 -3 4 -6 -2 -5 -13z"/>
<path d="M2686 2793 c-6 -14 -5 -15 5 -6 7 7 10 15 7 18 -3 3 -9 -2 -12 -12z"/>
<path d="M2915 2801 c-4 -7 -16 -11 -27 -9 -12 2 -22 -3 -24 -10 -1 -7 0 -8 2
-3 3 6 12 7 20 4 9 -3 11 -8 6 -12 -6 -4 -4 -11 5 -20 12 -11 14 -11 12 0 -4
34 0 40 22 29 26 -14 34 -7 20 17 -8 14 -10 14 -11 3 0 -12 -2 -13 -9 -1 -6 9
-10 10 -16 2z"/>
<path d="M2775 2786 c-18 -13 -18 -14 9 -9 26 5 28 4 22 -13 -6 -15 -5 -17 5
-6 11 10 10 15 -2 27 -13 13 -17 13 -34 1z"/>
<path d="M2827 2784 c3 -7 9 -14 14 -14 14 0 10 17 -5 23 -10 4 -13 1 -9 -9z"/>
<path d="M2430 2781 c0 -6 4 -13 10 -16 6 -3 7 1 4 9 -7 18 -14 21 -14 7z"/>
<path d="M2715 2780 c-3 -6 1 -7 9 -4 18 7 21 14 7 14 -6 0 -13 -4 -16 -10z"/>
<path d="M2495 2769 c-4 -6 -5 -12 -2 -15 2 -3 7 2 10 11 7 17 1 20 -8 4z"/>
<path d="M2740 2761 c0 -6 4 -13 10 -16 6 -3 7 1 4 9 -7 18 -14 21 -14 7z"/>
<path d="M2555 2749 c-3 -4 2 -6 10 -5 21 3 28 13 10 13 -9 0 -18 -4 -20 -8z"/>
<path d="M2666 2743 c-6 -14 -5 -15 5 -6 7 7 10 15 7 18 -3 3 -9 -2 -12 -12z"/>
<path d="M2770 2749 c0 -5 5 -7 10 -4 6 3 10 8 10 11 0 2 -4 4 -10 4 -5 0 -10
-5 -10 -11z"/>
<path d="M2996 2735 c4 -8 10 -15 15 -15 4 0 6 7 3 15 -4 8 -10 15 -15 15 -4
0 -6 -7 -3 -15z"/>
<path d="M3147 2733 c5 -12 3 -14 -7 -8 -9 6 -11 4 -6 -4 5 -7 11 -10 14 -6 3
3 12 -5 19 -17 8 -16 13 -18 14 -8 0 8 4 4 8 -10 l7 -25 6 28 c3 15 3 25 0 23
-8 -8 -43 14 -37 23 3 5 -2 11 -10 14 -10 4 -12 1 -8 -10z"/>
<path d="M2940 2732 c0 -15 25 -26 40 -17 6 3 7 11 4 17 -4 6 -10 5 -15 -3 -8
-12 -11 -11 -19 1 -7 11 -10 11 -10 2z"/>
<path d="M2700 2705 c-6 -15 -13 -33 -16 -39 -3 -6 2 -2 10 8 9 11 16 25 16
30 0 6 4 4 10 -4 5 -8 11 -12 14 -10 2 3 -2 14 -10 24 -13 18 -14 18 -24 -9z"/>
<path d="M2783 2722 c-7 -4 -9 -13 -4 -21 6 -10 10 -9 15 5 8 20 4 25 -11 16z"/>
<path d="M3045 2720 c-3 -5 -2 -10 4 -10 5 0 13 5 16 10 3 6 2 10 -4 10 -5 0
-13 -4 -16 -10z"/>
<path d="M2573 2705 c8 -8 14 -9 18 -3 4 6 9 5 12 -3 4 -10 6 -10 6 2 1 11 -7
17 -23 17 -19 0 -22 -3 -13 -13z"/>
<path d="M2655 2710 c-3 -5 -1 -10 4 -10 6 0 11 5 11 10 0 6 -2 10 -4 10 -3 0
-8 -4 -11 -10z"/>
<path d="M2627 2697 c-3 -8 1 -14 8 -14 7 0 11 6 8 14 -3 7 -6 13 -8 13 -2 0
-5 -6 -8 -13z"/>
<path d="M2750 2701 c0 -6 4 -13 10 -16 6 -3 7 1 4 9 -7 18 -14 21 -14 7z"/>
<path d="M2798 2687 c0 -12 -1 -29 0 -37 1 -19 -19 -31 -33 -21 -25 19 -41 18
-43 -2 -1 -17 1 -19 8 -7 7 12 13 13 28 4 26 -17 55 1 46 28 -4 13 -2 18 4 14
6 -3 14 -1 18 5 4 8 3 9 -4 5 -7 -4 -12 -1 -12 7 0 16 29 19 47 5 7 -5 14 -5
18 2 7 12 9 11 -37 15 -33 3 -38 0 -40 -18z"/>
<path d="M2985 2700 c-9 -15 4 -31 23 -28 10 1 24 -2 32 -7 13 -8 13 -7 1 8
-7 9 -17 14 -22 11 -5 -3 -9 2 -9 10 0 18 -16 21 -25 6z"/>
<path d="M3060 2700 c-13 -8 -13 -11 -1 -22 10 -10 12 -10 7 0 -4 6 -2 12 3
12 6 0 11 -8 12 -17 0 -10 3 -13 5 -6 9 21 -9 43 -26 33z"/>
<path d="M2955 2689 c-4 -6 -5 -12 -2 -15 2 -3 7 2 10 11 7 17 1 20 -8 4z"/>
<path d="M3125 2678 c-13 -13 -15 -17 -4 -13 10 4 19 -3 27 -21 8 -17 18 -24
28 -20 12 5 14 1 9 -17 -5 -19 -4 -20 5 -4 8 12 8 22 1 35 -6 9 -11 11 -11 5
0 -7 -5 -13 -11 -13 -5 0 -7 5 -4 10 3 6 2 10 -4 10 -5 0 -11 11 -13 23 -3 24
-3 24 -23 5z"/>
<path d="M3221 2684 c0 -11 3 -14 6 -6 3 7 2 16 -1 19 -3 4 -6 -2 -5 -13z"/>
<path d="M3246 2673 c-6 -14 -5 -15 5 -6 7 7 10 15 7 18 -3 3 -9 -2 -12 -12z"/>
<path d="M2843 2665 c0 -8 4 -12 9 -9 5 3 6 10 3 15 -9 13 -12 11 -12 -6z"/>
<path d="M2910 2672 c0 -4 10 -13 23 -21 22 -14 22 -14 3 8 -20 22 -26 25 -26
13z"/>
<path d="M2486 2653 c-6 -14 -5 -15 5 -6 7 7 10 15 7 18 -3 3 -9 -2 -12 -12z"/>
<path d="M2705 2660 c-3 -6 1 -7 9 -4 18 7 21 14 7 14 -6 0 -13 -4 -16 -10z"/>
<path d="M2771 2654 c0 -11 3 -14 6 -6 3 7 2 16 -1 19 -3 4 -6 -2 -5 -13z"/>
<path d="M3301 2654 c0 -11 3 -14 6 -6 3 7 2 16 -1 19 -3 4 -6 -2 -5 -13z"/>
<path d="M3205 2651 c-3 -5 -1 -12 5 -16 6 -4 8 -11 5 -16 -4 -5 1 -9 9 -9 9
0 15 -5 14 -11 -2 -6 4 -14 12 -16 13 -4 13 -3 0 6 -12 8 -10 12 10 20 24 9
13 16 -19 12 -8 -2 -10 2 -5 10 5 8 3 10 -6 4 -10 -6 -12 -4 -7 8 7 18 -8 24
-18 8z"/>
<path d="M2670 2641 c0 -10 19 -25 25 -20 1 2 -3 10 -11 17 -8 7 -14 8 -14 3z"/>
<path d="M3088 2643 c6 -2 12 -8 12 -12 0 -9 -42 -6 -62 4 -7 3 -5 0 5 -8 10
-8 29 -14 43 -12 21 2 24 -1 19 -19 -5 -15 -4 -17 3 -7 8 11 10 11 14 0 3 -10
6 -10 12 -1 4 7 2 12 -3 12 -6 0 -11 5 -11 11 0 6 7 9 14 6 10 -4 13 -1 9 9
-4 10 -9 12 -18 4 -9 -8 -14 -6 -19 5 -3 8 -11 15 -18 14 -10 0 -10 -2 0 -6z"/>
<path d="M3320 2646 c0 -2 7 -7 16 -10 8 -3 12 -2 9 4 -6 10 -25 14 -25 6z"/>
<path d="M2850 2630 c0 -5 5 -10 11 -10 5 0 7 5 4 10 -3 6 -8 10 -11 10 -2 0
-4 -4 -4 -10z"/>
<path d="M2883 2628 c0 -7 -4 -22 -7 -33 -6 -16 -4 -15 6 3 8 12 18 19 23 15
5 -4 3 0 -4 10 -16 20 -18 21 -18 5z"/>
<path d="M3006 2632 c-3 -6 0 -13 6 -15 10 -4 9 -8 -2 -16 -12 -9 -11 -10 7
-8 12 2 25 6 28 10 3 4 2 5 -2 2 -4 -3 -12 4 -19 16 -6 13 -14 17 -18 11z"/>
<path d="M2926 2619 c2 -5 11 -6 18 -3 8 3 17 1 21 -5 9 -16 25 -14 19 2 -2 7
-18 13 -34 13 -16 0 -27 -3 -24 -7z"/>
<path d="M3377 2597 c-4 -15 -12 -25 -17 -22 -6 4 -13 -1 -16 -10 -6 -13 -8
-14 -15 -3 -6 8 -7 1 -5 -20 3 -27 1 -32 -13 -27 -12 5 -13 3 -4 -5 8 -9 16
-9 30 -1 10 6 12 11 6 11 -7 0 -13 5 -13 11 0 6 7 8 16 5 12 -5 14 -1 8 16 -6
20 -5 21 9 10 12 -10 16 -10 19 0 3 8 7 6 11 -5 4 -11 1 -17 -8 -17 -17 0 -20
-26 -5 -35 6 -4 7 1 3 11 -4 11 -3 15 4 11 6 -4 14 -1 17 5 4 7 5 4 3 -7 -3
-16 1 -21 17 -22 12 -1 15 1 9 4 -7 3 -13 13 -13 24 0 10 -5 19 -11 19 -6 0
-8 9 -4 21 5 14 3 19 -3 15 -6 -3 -12 4 -14 16 -3 21 -4 21 -11 -5z"/>
<path d="M2790 2606 c0 -2 7 -6 15 -10 8 -3 15 -1 15 4 0 6 -7 10 -15 10 -8 0
-15 -2 -15 -4z"/>
<path d="M3157 2603 c-10 -9 -9 -23 1 -23 5 0 9 7 9 15 0 17 -1 18 -10 8z"/>
<path d="M2665 2590 c-16 -7 -17 -9 -3 -9 9 -1 20 4 23 9 7 11 7 11 -20 0z"/>
<path d="M2756 2583 c-6 -14 -5 -15 5 -6 7 7 10 15 7 18 -3 3 -9 -2 -12 -12z"/>
<path d="M3055 2590 c-3 -5 -1 -10 4 -10 6 0 11 5 11 10 0 6 -2 10 -4 10 -3 0
-8 -4 -11 -10z"/>
<path d="M3289 2591 c10 -7 11 -13 2 -27 -8 -14 -11 -15 -11 -4 0 13 -1 13
-10 0 -5 -8 -10 -19 -10 -25 0 -5 4 -4 9 4 6 9 11 10 15 2 13 -21 22 -11 23
24 1 26 -3 35 -15 35 -14 0 -14 -2 -3 -9z"/>
<path d="M3211 2566 c-1 -16 -3 -17 -18 -5 -16 13 -17 12 -4 -4 8 -9 16 -15
19 -13 2 3 13 1 23 -5 13 -6 19 -6 19 1 0 5 -6 10 -14 10 -8 0 -17 8 -19 18
-4 15 -5 15 -6 -2z"/>
<path d="M2803 2559 c3 -9 0 -22 -6 -28 -9 -9 -8 -11 6 -6 20 8 21 14 6 35 -9
13 -10 13 -6 -1z"/>
<path d="M2821 2565 c0 -5 4 -17 9 -25 7 -11 10 -11 10 -2 0 7 4 11 9 7 5 -3
13 0 17 6 4 8 3 9 -4 5 -7 -4 -12 -1 -12 6 0 10 -2 10 -9 -1 -7 -11 -9 -11
-14 0 -3 8 -6 10 -6 4z"/>
<path d="M2990 2565 c0 -12 20 -35 31 -35 4 0 10 8 14 18 5 13 4 14 -6 5 -10
-10 -15 -9 -25 5 -8 9 -14 12 -14 7z"/>
<path d="M2780 2551 c0 -7 -5 -9 -12 -5 -7 5 -8 3 -3 -5 5 -9 10 -10 18 -2 6
6 8 14 4 18 -4 3 -7 1 -7 -6z"/>
<path d="M2917 2543 c4 -10 8 -11 13 -3 5 8 12 7 24 -5 9 -9 16 -12 16 -6 0
12 -13 21 -39 26 -14 3 -18 -1 -14 -12z"/>
<path d="M3100 2540 c0 -5 5 -10 11 -10 5 0 7 5 4 10 -3 6 -8 10 -11 10 -2 0
-4 -4 -4 -10z"/>
<path d="M3130 2546 c0 -2 7 -6 15 -10 8 -3 15 -1 15 4 0 6 -7 10 -15 10 -8 0
-15 -2 -15 -4z"/>
<path d="M3170 2540 c0 -5 5 -10 11 -10 5 0 7 5 4 10 -3 6 -8 10 -11 10 -2 0
-4 -4 -4 -10z"/>
<path d="M2886 2512 c-3 -5 1 -9 9 -9 8 0 12 4 9 9 -3 4 -7 8 -9 8 -2 0 -6 -4
-9 -8z"/>
<path d="M3178 2502 c-4 -13 1 -18 16 -20 15 -1 17 1 7 7 -7 5 -10 14 -7 20 4
6 3 11 -2 11 -5 0 -12 -8 -14 -18z"/>
<path d="M3280 2515 c0 -5 5 -17 10 -25 5 -8 10 -10 10 -5 0 6 -5 17 -10 25
-5 8 -10 11 -10 5z"/>
<path d="M3358 2488 c-7 -17 15 -19 29 -3 4 4 3 5 -4 2 -6 -4 -13 -2 -15 5 -3
8 -6 6 -10 -4z"/>
<path d="M3574 2485 c8 -8 18 -15 22 -15 3 0 1 7 -6 15 -7 8 -17 15 -22 15 -5
0 -3 -7 6 -15z"/>
<path d="M3051 2473 c-11 -12 -15 -13 -22 -1 -7 10 -9 9 -9 -4 0 -10 4 -18 8
-18 13 0 48 28 42 33 -3 3 -11 -2 -19 -10z"/>
<path d="M3125 2481 c4 -8 2 -17 -6 -22 -9 -6 -10 -9 -2 -9 19 0 27 21 13 33
-10 9 -11 9 -5 -2z"/>
<path d="M3306 2475 c-3 -8 -1 -15 4 -15 6 0 10 7 10 15 0 8 -2 15 -4 15 -2 0
-6 -7 -10 -15z"/>
<path d="M3527 2455 c-9 -19 -15 -35 -12 -35 7 0 37 61 33 66 -3 2 -12 -12
-21 -31z"/>
<path d="M2996 2467 c3 -10 9 -15 12 -12 3 3 0 11 -7 18 -10 9 -11 8 -5 -6z"/>
<path d="M3556 2463 c-6 -14 -5 -15 5 -6 7 7 10 15 7 18 -3 3 -9 -2 -12 -12z"/>
<path d="M3170 2459 c0 -5 -5 -7 -12 -3 -7 4 -8 3 -4 -5 6 -9 11 -9 22 0 17
14 18 19 4 19 -5 0 -10 -5 -10 -11z"/>
<path d="M3386 2462 c-3 -5 1 -9 9 -9 8 0 15 4 15 9 0 4 -4 8 -9 8 -6 0 -12
-4 -15 -8z"/>
<path d="M3415 2438 l-20 -21 23 12 c12 6 22 16 22 21 0 13 -2 12 -25 -12z"/>
<path d="M3620 2449 c0 -5 5 -7 10 -4 6 3 10 8 10 11 0 2 -4 4 -10 4 -5 0 -10
-5 -10 -11z"/>
<path d="M3450 2441 c0 -10 19 -25 25 -20 1 2 -3 10 -11 17 -8 7 -14 8 -14 3z"/>
<path d="M3339 2423 c-13 -16 -12 -17 4 -4 16 13 21 21 13 21 -2 0 -10 -8 -17
-17z"/>
<path d="M3540 2431 c0 -5 -3 -16 -6 -25 -4 -12 0 -16 15 -16 12 0 24 -7 28
-16 5 -13 7 -13 14 -2 6 9 9 9 9 1 0 -7 10 -10 24 -7 22 4 24 1 20 -34 -3 -32
-3 -34 6 -13 6 12 16 21 23 18 8 -3 12 6 13 25 1 15 -1 26 -4 23 -3 -3 -12 1
-20 8 -13 9 -14 9 -8 0 4 -8 1 -13 -8 -13 -9 0 -16 6 -16 13 0 7 -3 8 -8 2
-12 -17 -45 -11 -53 10 -4 11 -8 14 -8 8 -1 -7 -5 -13 -10 -13 -5 0 -7 9 -4
20 3 11 3 20 -1 20 -3 0 -6 -4 -6 -9z m127 -73 c-3 -8 -6 -5 -6 6 -1 11 2 17
5 13 3 -3 4 -12 1 -19z"/>
<path d="M3265 2409 c-4 -6 -4 -13 -1 -16 3 -4 6 -1 6 6 0 7 5 9 12 5 7 -4 8
-3 4 4 -9 15 -13 15 -21 1z"/>
<path d="M3335 2397 c-12 -9 -14 -16 -7 -21 6 -3 16 3 22 14 13 24 10 25 -15
7z"/>
<path d="M3490 2391 c0 -6 4 -13 10 -16 6 -3 7 1 4 9 -7 18 -14 21 -14 7z"/>
<path d="M3517 2366 c-10 -8 -14 -16 -10 -19 5 -3 14 3 21 14 14 22 13 23 -11
5z"/>
<path d="M3436 2362 c-3 -5 1 -9 9 -9 8 0 12 4 9 9 -3 4 -7 8 -9 8 -2 0 -6 -4
-9 -8z"/>
<path d="M3429 2338 c-1 -2 -3 -13 -4 -26 -2 -16 1 -20 10 -12 6 5 14 8 16 5
3 -2 6 5 6 17 2 20 1 20 -13 2 -14 -17 -15 -17 -10 -1 4 13 0 25 -5 15z"/>
<path d="M3726 2332 c-3 -4 4 -9 15 -9 23 -2 25 3 4 10 -8 4 -16 3 -19 -1z"/>
<path d="M3570 2321 c0 -6 4 -13 10 -16 6 -3 7 1 4 9 -7 18 -14 21 -14 7z"/>
<path d="M3660 2316 c0 -13 5 -16 16 -12 11 4 15 2 11 -8 -4 -10 0 -12 14 -9
26 7 30 15 13 31 -8 7 -14 8 -14 2 0 -12 -22 -9 -32 5 -4 6 -8 2 -8 -9z"/>
<path d="M3605 2310 c-3 -6 1 -7 9 -4 18 7 21 14 7 14 -6 0 -13 -4 -16 -10z"/>
<path d="M3740 2300 c0 -5 5 -10 11 -10 5 0 7 5 4 10 -3 6 -8 10 -11 10 -2 0
-4 -4 -4 -10z"/>
<path d="M3803 2290 c3 -11 2 -18 -3 -15 -4 3 -13 -2 -20 -10 -9 -11 -9 -15
-1 -15 7 0 9 -5 5 -11 -4 -8 -10 -6 -17 6 -7 13 -5 20 7 27 9 5 14 14 10 20
-4 6 -9 5 -15 -3 -5 -8 -21 -13 -39 -11 -17 2 -30 -1 -30 -8 0 -6 5 -8 12 -4
8 5 9 1 5 -12 -7 -19 -7 -19 8 0 8 11 17 17 20 15 8 -8 -7 -49 -16 -43 -5 3
-6 -2 -2 -11 4 -12 8 -13 13 -5 6 9 9 9 13 -1 4 -10 6 -9 6 4 1 9 4 16 9 15 4
0 15 2 25 7 15 6 16 10 5 16 -10 7 -9 9 3 9 12 0 16 8 15 25 0 14 -5 25 -10
25 -4 0 -6 -9 -3 -20z"/>
<path d="M3566 2287 c3 -10 9 -15 12 -12 3 3 0 11 -7 18 -10 9 -11 8 -5 -6z"/>
<path d="M3860 2285 c0 -8 2 -15 4 -15 2 0 6 7 10 15 3 8 1 15 -4 15 -6 0 -10
-7 -10 -15z"/>
<path d="M3616 2268 c3 -5 10 -6 15 -3 13 9 11 12 -6 12 -8 0 -12 -4 -9 -9z"/>
<path d="M3921 2244 c0 -11 3 -14 6 -6 3 7 2 16 -1 19 -3 4 -6 -2 -5 -13z"/>
<path d="M3820 2239 c0 -5 5 -7 10 -4 6 3 10 8 10 11 0 2 -4 4 -10 4 -5 0 -10
-5 -10 -11z"/>
<path d="M3940 2231 c0 -25 6 -27 13 -6 4 8 2 17 -3 20 -6 4 -10 -3 -10 -14z"/>
<path d="M3963 2214 c-3 -8 -3 -18 1 -21 3 -4 6 2 7 13 0 19 1 19 8 0 6 -17 8
-17 14 -4 3 10 0 19 -9 22 -8 3 -17 -1 -21 -10z"/>
<path d="M3905 2209 c-4 -6 -5 -12 -2 -15 2 -3 7 2 10 11 7 17 1 20 -8 4z"/>
<path d="M3995 2180 c-17 -18 -17 -20 -2 -14 9 3 17 11 18 18 1 6 5 0 9 -14
l8 -25 1 28 c1 32 -9 34 -34 7z"/>
<path d="M3816 2181 c-4 -5 3 -7 14 -4 23 6 26 13 6 13 -8 0 -17 -4 -20 -9z"/>
<path d="M3896 2172 c-3 -4 4 -9 15 -9 23 -2 25 3 4 10 -8 4 -16 3 -19 -1z"/>
<path d="M3957 2160 c-3 -11 -1 -20 4 -20 5 0 9 9 9 20 0 11 -2 20 -4 20 -2 0
-6 -9 -9 -20z"/>
<path d="M4041 2164 c0 -11 3 -14 6 -6 3 7 2 16 -1 19 -3 4 -6 -2 -5 -13z"/>
<path d="M4061 2168 c0 -9 -4 -24 -8 -34 -4 -12 -3 -15 5 -10 7 4 12 2 12 -6
1 -7 7 -2 14 12 l14 25 5 -28 4 -27 -1 27 c-1 30 -25 45 -27 16 -1 -10 -5 -5
-9 12 -4 17 -8 22 -9 13z"/>
<path d="M3990 2150 c-8 -5 -12 -12 -9 -15 4 -3 12 1 19 10 14 17 11 19 -10 5z"/>
<path d="M4123 2128 c5 -28 37 -31 37 -5 0 7 -4 6 -10 -3 -8 -13 -10 -12 -10
3 0 9 -4 17 -10 17 -5 0 -9 -6 -7 -12z"/>
</g>
</svg>
