<?xml version="1.0" encoding="utf-8"?>
<!DOCTYPE svg PUBLIC "-//W3C//DTD SVG 1.0//EN" "http://www.w3.org/TR/2001/REC-SVG-20010904/DTD/svg10.dtd">
<svg version="1.0" xmlns="http://www.w3.org/2000/svg" width="1223px" height="1012px" viewBox="0 0 1223 1012" preserveAspectRatio="xMidYMid meet">
 <g fill="#000000">
  <path d="M572.35 994.15 c-0.45 -0.40 -0.45 -2.50 -0.05 -4 0.25 -0.85 0.70 -1.15 1.65 -1.15 1.70 0 3.35 -1.15 4.30 -3 0.75 -1.50 0.55 -2.95 -2 -13.85 -0.25 -1 -0.60 -1.15 -2.95 -1.15 l-2.75 0 -0.50 2.65 c-1.70 8.30 -1.70 8.35 1.85 8.35 l2.15 0 -0.15 2.65 -0.15 2.60 -3 0.15 c-6.70 0.35 -8.25 -0.75 -8.25 -5.75 0.05 -1.90 0.35 -4.85 0.75 -6.65 0.90 -4.10 0.90 -3.85 -0.25 -4.15 -0.70 -0.20 -1 -0.65 -1 -1.70 0 -2.55 0.55 -3.65 1.75 -3.65 0.90 0 1.25 -0.35 1.50 -1.60 0.70 -3.50 0.60 -3.40 3.85 -3.40 l3 0 -0.20 2.50 -0.15 2.50 4.85 0 c4.65 0 4.90 0.05 5.15 1.15 0.15 0.60 0.65 3 1.15 5.30 l0.90 4.20 1.05 -1.70 c1.80 -3.05 3.85 -6.70 4.40 -7.70 0.45 -0.80 1.10 -1.05 3.65 -1.15 l3.10 -0.15 0 1.75 c0 1.30 -0.95 3.30 -3.50 7.55 -1.90 3.20 -3.50 5.90 -3.50 6 0 0.30 -6.40 10.90 -7.15 11.85 -0.40 0.50 -1.30 1.10 -2.05 1.40 -1.50 0.55 -6.95 0.70 -7.45 0.15z"/>
  <path d="M61.50 972.50 l0 -21 -20.85 -0.10 -20.90 -0.15 0 -2.75 0 -2.75 20.90 -0.15 20.85 -0.10 0 -414.10 c0 -401.10 -0.05 -414.05 -0.90 -413.25 -1.30 1.15 -4.70 1.10 -5.75 -0.05 -0.50 -0.55 -0.85 -1.75 -0.85 -2.95 0 -1.80 0.25 -2.30 2.25 -4 1.25 -1.05 2.25 -2.15 2.25 -2.40 0 -0.30 -1.15 -1.65 -2.50 -3 -1.95 -1.90 -2.50 -2.80 -2.50 -4.05 0 -3.45 4.60 -5.55 6.80 -3.15 0.95 1.05 0.95 0.80 1.20 -16.85 l0.25 -17.95 2.75 0 2.75 0 0.15 18.10 0.10 18.10 1.25 -1.25 c1.65 -1.65 3.95 -1.60 5.50 0.20 1.95 2.20 1.65 3.95 -1.25 6.80 -1.40 1.35 -2.50 2.65 -2.50 2.90 0 0.25 1 1.40 2.25 2.55 1.95 1.85 2.25 2.40 2.25 4.15 0 2.50 -1.55 4.20 -3.90 4.20 -0.90 0 -1.60 -0.20 -1.60 -0.50 0 -0.25 -0.45 -0.70 -1 -1 -1 -0.55 -1 -0.40 -1 413.50 l0 414 417.10 0 417.05 0 -1.05 -1.15 c-2.40 -2.55 -0.50 -6.85 3 -6.85 1.30 0 2.15 0.55 4.25 2.60 l2.65 2.60 2.65 -2.60 c2.15 -2.15 2.95 -2.60 4.40 -2.60 3.50 0 5.30 4.25 2.85 6.85 l-1.05 1.15 17.45 0 c9.60 0 17.75 0.20 18.10 0.45 0.45 0.25 0.60 1.25 0.50 2.85 l-0.15 2.45 -17.95 0.25 c-17.65 0.25 -17.90 0.25 -16.85 1.20 2.45 2.20 0.40 6.80 -3 6.80 -1.35 0 -2.20 -0.50 -4.30 -2.60 l-2.65 -2.60 -2.65 2.60 c-2.15 2.15 -2.95 2.60 -4.40 2.60 -3.45 0 -5.25 -4.30 -2.85 -6.85 l1.05 -1.15 -417.05 0 -417.10 0 0 21 0 21 -3 0 -3 0 0 -21z"/>
  <path d="M380.50 985.65 c0 -1.05 0.90 -6.40 1.95 -11.90 1.05 -5.50 2.10 -10.95 2.30 -12.10 l0.35 -2.15 8.45 0 8.45 0 0 1.95 c0 3.55 -0.05 3.55 -5.75 3.55 -5.65 0 -5.30 -0.20 -6 3.40 l-0.35 1.60 4.55 0 4.55 0 0.05 1.90 c0 1.40 0.25 0.90 0.85 -2.15 l0.85 -4 2.90 -0.15 2.85 -0.15 0 2.20 c0 1.20 -0.45 4.50 -1.05 7.35 -0.95 4.70 -1 5.20 -0.25 5.95 0.75 0.70 0.95 0.70 2.20 0.05 2.25 -1.30 3.45 -3.65 4.30 -8.60 1.35 -7.60 0.90 -6.90 4.30 -6.90 2.95 0 3 0.05 3 1.35 0 0.75 -0.65 5.10 -1.50 9.65 -0.80 4.55 -1.50 8.80 -1.60 9.50 l-0.15 1.25 -6.95 0.10 c-10 0.15 -10.55 -0.25 -10.25 -7.95 l0.20 -4.15 -5 0.25 -5 0.25 -0.85 5.25 c-0.50 2.90 -1 5.55 -1.15 5.90 -0.15 0.40 -1.30 0.60 -3.25 0.60 l-3 0 0 -1.85z"/>
  <path d="M419 985.10 c0 -2.10 1.45 -10.80 2.90 -17.60 l0.40 -1.75 5.95 -0.10 c8 -0.15 9.05 0.05 10.25 2 1.35 2.15 1.25 4.90 -0.30 13.10 l-1.30 6.75 -2.95 0 -2.95 0 0 -1.60 c0 -0.90 0.45 -3.95 1 -6.80 0.55 -2.80 1 -5.55 1 -6.10 0 -1.30 -1.80 -1.75 -3.25 -0.80 -2.05 1.35 -2.75 2.95 -3.90 9.10 l-1.10 5.95 -2.90 0.15 -2.85 0.15 0 -2.45z"/>
  <path d="M443.70 986.55 c-2.65 -1.20 -3.45 -3.15 -3.40 -8.15 0.10 -6.25 2.85 -10.75 7.65 -12.35 2.10 -0.70 7.20 -0.70 9.55 -0.05 0.95 0.30 1.80 0.30 1.95 0.05 0.20 -0.25 0.85 -0.55 1.55 -0.60 1.05 -0.15 1.30 -0.55 1.70 -2.55 l0.40 -2.40 3 0 3 0 -0.20 2.50 -0.15 2.50 2.65 0 2.60 0 0.05 1.90 c0.05 1.25 0.15 1.45 0.30 0.60 0.10 -0.70 0.40 -1.70 0.65 -2.25 0.20 -0.55 0.55 -2.20 0.70 -3.65 0.15 -1.45 0.40 -2.85 0.55 -3.10 0.15 -0.30 1.55 -0.50 3.10 -0.50 l2.75 0 -0.20 3.30 c-0.10 1.80 -0.40 3.40 -0.70 3.60 -0.25 0.20 -0.45 1.25 -0.50 2.35 0 1.10 -0.80 6 -1.70 10.90 l-1.70 8.85 -2.90 0 -2.90 0 0 -2.10 c0 -1.20 0.45 -4.30 0.95 -6.90 1.10 -5.65 1.60 -9 1.25 -8.10 -0.20 0.35 -1.35 0.60 -3.15 0.60 l-2.90 0 -0.80 4.40 c-0.50 2.40 -0.85 4.70 -0.85 5.15 0 1 1 1.45 3.30 1.45 l1.75 0 -0.15 2.65 -0.15 2.60 -4.55 0 c-3.75 0 -4.70 -0.15 -5.45 -0.95 -1.30 -1.30 -1.50 -5.20 -0.55 -10.25 1 -5.20 1 -5.05 -0.20 -5.05 -0.60 0 -1 0.35 -1 0.80 0 0.85 0.20 0.85 -5.95 -0.10 -1.65 -0.25 -2.15 -0.10 -3.70 1.30 -4.45 3.85 -3.05 9.85 1.90 8.45 0.80 -0.25 2.45 -0.45 3.60 -0.45 2.05 0 2.15 0.05 2.15 1.50 0 2.45 -1 3.95 -2.95 4.50 -2.95 0.80 -8.05 0.60 -10.35 -0.45z"/>
  <path d="M484.55 986.65 c-2.70 -1.35 -3.55 -3.25 -3.55 -7.90 0.05 -8.70 3.95 -13.20 11.40 -13.25 6.40 0 8.60 2.20 8.60 8.70 0 2.15 -0.30 4.85 -0.60 6 -0.80 2.65 -4.60 6.50 -6.85 6.95 -2.95 0.60 -7.25 0.35 -9 -0.50z m8.05 -6.60 c1.05 -1 2.40 -4.10 2.40 -5.60 0 -0.65 -0.35 -1.55 -0.85 -2.05 -1.80 -2 -4.50 -0.50 -6.20 3.35 -0.90 2 -0.95 2.55 -0.45 3.80 1.10 2.60 2.65 2.75 5.10 0.50z"/>
  <path d="M501 985.90 c0 -1.40 2.75 -17.80 3.30 -19.75 0.20 -0.75 13.30 -0.80 14.95 -0.05 1.90 0.85 2.45 2.90 2.05 8.05 -0.15 2.55 -0.70 6.50 -1.15 8.85 l-0.90 4.25 -3.10 0.15 c-3.80 0.20 -3.70 0.60 -1.90 -8.35 1.30 -6.55 1.20 -7.55 -0.85 -7.55 -1.10 0 -3.30 2.20 -4 4 -0.25 0.65 -0.90 3.65 -1.50 6.60 l-1 5.40 -2.95 0 -2.95 0 0 -1.60z"/>
  <path d="M524.90 986.70 c-2 -1.05 -2.40 -2.15 -2.40 -6.40 0 -3.40 0.15 -3.95 1.40 -5.30 0.75 -0.85 2.25 -1.85 3.35 -2.25 l2 -0.70 -1.85 -0.05 c-1.75 0 -1.90 -0.10 -1.90 -1.45 0 -3 0.75 -3.90 3.65 -4.55 1.45 -0.35 4.30 -0.55 6.35 -0.40 3.35 0.15 3.75 0.30 5.05 1.80 1.25 1.40 1.45 2 1.45 4.75 0 1.70 -0.50 5.85 -1.10 9.20 l-1.10 6.10 -6.75 0 c-4.95 0 -7.15 -0.20 -8.15 -0.75z m8.15 -6.65 c2.40 -2.40 1.90 -3 -1.65 -2.05 -2.10 0.60 -3.20 2 -2.30 2.90 1 1 2.40 0.65 3.95 -0.85z m1.15 -8.55 c-0.55 -0.20 -1.80 -0.25 -2.75 0 -1.55 0.35 -1.45 0.40 1.05 0.40 1.95 0.05 2.45 -0.10 1.70 -0.40z"/>
  <path d="M542.50 986.15 c0 -0.80 0.35 -3.20 0.80 -5.40 0.40 -2.20 1.30 -6.90 2 -10.50 0.65 -3.55 1.45 -7.70 1.75 -9.10 l0.50 -2.65 3 0 2.95 0 0 1.70 c0 0.90 -0.35 3.20 -0.75 5.10 -0.40 1.90 -1.40 7.15 -2.25 11.70 -0.85 4.55 -1.70 8.75 -1.85 9.40 -0.25 1 -0.55 1.10 -3.20 1.10 -2.90 0 -2.95 -0.05 -2.95 -1.35z"/>
  <path d="M552 985.65 c0 -2.15 2.85 -18.35 3.50 -19.90 0.20 -0.55 0.60 -2.35 0.85 -4 l0.40 -3 2.95 -0.15 2.90 -0.15 -0.20 3.35 c-0.10 1.85 -0.45 3.45 -0.75 3.55 -0.25 0.10 -0.40 0.70 -0.30 1.30 0.15 0.60 -0.20 3.35 -0.75 6.10 -0.55 2.75 -1.40 7.20 -1.90 9.90 l-0.90 4.85 -2.90 0 -2.90 0 0 -1.85z"/>
  <path d="M1070.10 898.20 c0.15 -2.20 0.30 -2.45 1.40 -2.60 0.70 -0.10 1.65 -0.55 2.20 -1 1.70 -1.55 1.85 -2.90 0.80 -7.75 -1.50 -6.70 -1.30 -6.35 -3.50 -6.35 -2.15 0 -2.15 -0.05 -3 4.95 -0.30 1.75 -0.40 3.35 -0.15 3.60 0.20 0.20 1.20 0.45 2.15 0.55 1.90 0.15 2.40 1.25 1.80 3.70 -0.30 1.10 -0.55 1.20 -3.55 1.20 -3.80 0 -5.65 -0.75 -6.10 -2.40 -0.30 -1.30 0.15 -8.65 0.65 -10.45 0.25 -0.85 0.10 -1.15 -0.50 -1.15 -0.70 0 -0.85 -0.45 -0.70 -2.35 0.15 -2.05 0.30 -2.40 1.25 -2.55 0.90 -0.15 1.20 -0.60 1.45 -2.15 l0.35 -1.95 2.65 0 2.70 0 0 2 0 1.95 4.10 0.15 4.10 0.15 0.80 4.25 0.75 4.25 2 -3.50 c1.10 -1.90 2.15 -3.90 2.35 -4.35 0.30 -0.70 0.95 -0.90 2.90 -0.90 l2.50 0 0 2.15 c0 1.60 -0.50 3 -1.90 5.40 -1.05 1.75 -3.30 5.70 -5.05 8.70 -4.55 8.05 -4.95 8.45 -9.15 8.65 l-3.45 0.20 0.15 -2.40z"/>
  <path d="M1169.90 900.15 c-1.35 -0.20 -1.40 -0.35 -1.40 -2.95 l0 -2.70 1.80 0 1.75 0 -1.40 -1.20 c-1.25 -1.10 -1.40 -1.55 -1.60 -5.35 -0.20 -4.85 0.45 -7.35 2.50 -9.70 1.90 -2.15 3.85 -2.70 10.10 -2.70 4.05 0 4.95 0.15 5.20 0.80 0.35 0.85 -2 14 -3.20 17.75 -0.90 3 -2.30 4.75 -4.50 5.65 -1.65 0.70 -6.05 0.90 -9.25 0.40z m6.10 -5.45 c0 -0.10 -0.85 -0.20 -1.85 -0.15 -1.45 0 -1.65 0.10 -0.90 0.40 0.90 0.35 2.75 0.20 2.75 -0.25z m2.15 -7.10 c2.40 -2.50 2.20 -6.85 -0.30 -6.50 -2.15 0.30 -4.25 5.80 -2.75 7.30 0.90 0.90 1.60 0.75 3.05 -0.80z"/>
  <path d="M909.65 891.40 c0.20 -2.90 3.05 -18.85 3.60 -20.25 0.15 -0.50 2.10 -0.65 7.25 -0.65 l7.05 0 -0.15 2.40 -0.15 2.35 -4.50 0.25 -4.50 0.25 -0.30 1.90 -0.30 1.85 3.70 0 3.70 0 -0.15 2.40 -0.15 2.35 -4.05 0.15 -4.05 0.15 -0.85 4.95 -0.90 5 -2.75 0 -2.75 0 0.25 -3.10z"/>
  <path d="M927.10 894 c-2.35 -0.95 -2.60 -4.80 -0.80 -14.10 l0.80 -4.40 2.70 0 c2.60 0 2.70 0.05 2.70 1.40 0 0.75 -0.45 3.60 -1 6.30 -1.15 5.50 -0.90 6.45 1.30 5.30 1.80 -1 2.60 -2.75 3.60 -8.10 l0.85 -4.65 2.65 -0.15 2.60 -0.15 -0.05 2.40 c0 1.30 -0.65 5.55 -1.40 9.40 l-1.35 7 -5.70 0.10 c-3.15 0.05 -6.25 -0.15 -6.90 -0.35z"/>
  <path d="M942 893 c0 -0.80 0.20 -2.55 0.50 -3.85 0.25 -1.30 0.80 -4.40 1.25 -6.90 0.45 -2.45 0.90 -5 1.05 -5.65 0.20 -1.10 0.35 -1.10 6.40 -1 7.90 0.20 8.30 0.45 8.25 5.60 0 1.95 -0.40 5.70 -0.85 8.30 l-0.90 4.75 -2.60 0.15 -2.60 0.15 0 -2.15 c0 -1.20 0.35 -4 0.80 -6.30 0.95 -4.70 0.65 -5.70 -1.45 -4.75 -1.60 0.75 -2.55 3 -3.60 8.55 l-0.85 4.60 -2.70 0 c-2.65 0 -2.70 0 -2.70 -1.50z"/>
  <path d="M962.60 893.55 c-2.20 -1.40 -2.75 -3.10 -2.50 -7.60 0.25 -4.50 1.25 -6.55 4.25 -8.60 2.30 -1.65 7.40 -2.40 10.10 -1.45 0.85 0.30 1.55 0.35 1.55 0.10 0 -0.25 0.50 -0.50 1.10 -0.60 0.85 -0.10 1.25 -0.65 1.55 -2 l0.45 -1.90 2.70 0 2.70 0 0 2 0 2 2 0 c1.10 0 2.15 0 2.40 0 0.20 0 0.45 -1.30 0.60 -2.85 l0.25 -2.90 2.65 -0.15 2.60 -0.15 0 2.10 c0 1.20 -0.20 2.80 -0.45 3.65 -0.25 0.85 -0.85 4.15 -1.35 7.30 -0.45 3.15 -1.10 7.10 -1.45 8.75 l-0.60 3 -5.95 0.10 c-4 0.10 -6.35 -0.05 -7.20 -0.50 -1.90 -0.95 -2.35 -3.55 -1.45 -8.90 0.60 -3.60 0.60 -4.45 0.10 -4.45 -0.35 0 -0.65 0.25 -0.65 0.55 0 0.40 -1 0.50 -3.40 0.25 -3.25 -0.35 -3.45 -0.30 -4.70 1.05 -1.60 1.65 -2.55 3.95 -2.15 5.15 0.40 1.25 2.60 2.10 3.75 1.50 0.50 -0.25 1.75 -0.50 2.70 -0.50 1.80 0 1.80 0 1.80 2.20 0 1.30 -0.30 2.40 -0.75 2.80 -0.40 0.35 -2.60 0.70 -4.85 0.85 -3.60 0.20 -4.40 0.10 -5.80 -0.80z m24.45 -8.55 l0.80 -4.50 -2.35 0 -2.30 0 -0.80 4.15 c-0.40 2.25 -0.65 4.25 -0.55 4.50 0.10 0.20 1.15 0.35 2.35 0.35 l2.10 0 0.75 -4.50z"/>
  <path d="M996.60 893.55 c-2.10 -1.35 -2.60 -2.75 -2.60 -7.20 0.05 -7.20 3.45 -10.85 10.10 -10.85 3.15 0 5.65 1.35 6.45 3.40 0.75 1.95 0.30 9 -0.70 10.95 -1.55 2.95 -3.95 4.30 -8 4.50 -3 0.20 -3.85 0.05 -5.25 -0.80z m7.05 -6.05 c1.55 -1.80 2.10 -4.10 1.35 -5.45 -0.75 -1.50 -2.20 -1.30 -3.70 0.50 -1.65 1.90 -2.10 3.65 -1.35 5.25 0.70 1.65 2.20 1.50 3.70 -0.30z"/>
  <path d="M1010.65 893.70 c-0.25 -0.75 1.15 -9.95 2.50 -15.85 l0.50 -2.35 6.25 0.10 c5.80 0.15 6.25 0.20 7.15 1.35 1.20 1.50 1.20 5.90 0 12.55 l-0.85 4.75 -2.60 0.15 -2.60 0.15 0 -2.25 c0 -1.25 0.35 -4.10 0.80 -6.30 0.95 -4.65 0.60 -5.65 -1.45 -4.55 -1.55 0.85 -2.65 3.20 -3.35 7.15 -1.10 6.45 -0.80 5.90 -3.55 5.90 -1.80 0 -2.55 -0.20 -2.80 -0.80z"/>
  <path d="M1030.75 893.90 c-1.80 -0.95 -2.25 -2.05 -2.25 -5.15 0 -3.90 1.20 -5.85 4.25 -6.85 0.95 -0.30 0.90 -0.30 -0.10 -0.35 -1.05 -0.05 -1.15 -0.30 -1.15 -2.55 0 -2.30 0.10 -2.50 1.40 -2.85 0.75 -0.25 3.25 -0.40 5.50 -0.40 4 0 4.25 0.05 5.45 1.50 1.25 1.40 1.25 1.65 1 6.25 -0.20 2.60 -0.60 6.10 -0.95 7.75 l-0.65 3 -5.75 0.10 c-3.35 0.05 -6.15 -0.10 -6.75 -0.45z m6.60 -6.20 l1.40 -1.30 -1.70 0.30 c-1.90 0.35 -3.20 1.20 -2.75 1.85 0.45 0.80 1.60 0.50 3.05 -0.85z m1.05 -6.70 c-0.50 -0.30 -1.25 -0.35 -2 -0.05 -1 0.45 -0.90 0.50 0.85 0.50 1.55 0 1.80 -0.10 1.15 -0.45z"/>
  <path d="M1045.55 891.90 c0 -1.45 0.85 -7.05 1.85 -12.40 l1.90 -9.75 2.60 -0.15 2.60 -0.15 0 1.65 c0 1.40 -2.30 14.60 -3.80 21.80 -0.30 1.55 -0.40 1.60 -2.75 1.60 l-2.45 0 0.05 -2.60z"/>
  <path d="M1053.20 893.75 c-0.35 -0.85 -0.20 -2.10 1.35 -11 0.55 -3.30 1.25 -6.40 1.50 -6.85 0.25 -0.50 0.45 -1.75 0.45 -2.85 0 -3.25 0.30 -3.55 3.30 -3.55 l2.70 0 0 1.90 c0 1 -0.35 2.50 -0.75 3.30 -0.40 0.75 -0.75 2.10 -0.75 2.95 0 1.35 -1.50 10.75 -2.40 14.85 -0.35 1.65 -0.50 1.75 -2.75 1.90 -1.80 0.10 -2.45 -0.05 -2.65 -0.65z"/>
  <path d="M1101.75 893.75 c-3.80 -1.35 -5.20 -4.65 -4.60 -10.95 0.40 -4 1.40 -6.30 4 -9 1.75 -1.80 2.60 -2.30 5.10 -2.80 3.30 -0.70 7.75 -0.45 9.90 0.55 1.20 0.55 1.35 0.85 1.35 3.30 l0 2.65 -1.90 0 c-1.05 0 -2.15 -0.25 -2.40 -0.50 -0.30 -0.30 -1.20 -0.70 -2.05 -0.95 -2.35 -0.65 -5.20 1.25 -6.85 4.55 -1.95 3.95 -1.70 6.40 0.95 8.10 1.10 0.70 1.55 0.75 3.25 0.25 1.10 -0.35 2.25 -0.90 2.55 -1.30 0.30 -0.35 1.35 -0.65 2.30 -0.65 l1.70 0 -0.15 3.10 -0.15 3.15 -2.50 0.60 c-3.45 0.80 -8.10 0.75 -10.50 -0.10z"/>
  <path d="M1116.55 891.90 c0 -1.45 0.85 -7.05 1.85 -12.40 l1.85 -9.75 2.70 -0.15 2.65 -0.15 -0.20 2.95 -0.20 3 3.40 0.20 c4.45 0.25 4.85 0.80 4.85 6.40 0 2.35 -0.40 6.05 -0.90 8.25 l-0.85 4 -2.60 0.15 -2.60 0.15 0 -1.60 c0 -0.85 0.35 -3.70 0.80 -6.30 0.85 -5.05 0.65 -6 -1.25 -5.40 -1.35 0.40 -2.40 2.45 -3.05 5.85 -0.30 1.45 -0.80 3.70 -1.05 5.05 l-0.55 2.35 -2.45 0 -2.45 0 0.05 -2.60z"/>
  <path d="M1136.05 893.75 c-1.55 -0.80 -1.95 -1.85 -2 -5.10 -0.05 -3.50 0.75 -5.10 3.20 -6.20 1.50 -0.70 1.75 -0.95 0.90 -0.95 -1.05 0 -1.15 -0.25 -1.15 -2.45 l0 -2.45 2.20 -0.55 c3.55 -0.90 7.80 -0.70 9.65 0.40 1.30 0.80 1.65 1.45 1.90 3.25 0.35 2.35 0.30 2.90 -1.10 10.40 l-0.80 4.35 -5.80 0 c-3.85 0 -6.20 -0.25 -7 -0.70z m7 -6.05 l1.20 -1.35 -1.75 0.35 c-1.95 0.35 -2.75 0.95 -2.30 1.75 0.60 0.90 1.55 0.65 2.85 -0.75z m1.15 -6.70 c-0.30 -0.30 -1.05 -0.30 -1.95 -0.05 -1.50 0.45 -1.50 0.45 0.50 0.50 1.25 0.05 1.80 -0.10 1.45 -0.45z"/>
  <path d="M1151 892.40 c0.05 -1.20 0.65 -5.40 1.40 -9.40 l1.35 -7.25 5.70 -0.10 c9.55 -0.20 10.30 1.05 7.95 13.20 l-1.10 5.70 -2.55 -0.15 c-2.40 -0.15 -2.50 -0.20 -2.65 -1.65 -0.05 -0.80 0.30 -3.55 0.80 -6.10 0.70 -3.25 0.80 -4.75 0.45 -5.10 -0.85 -0.85 -1.55 -0.65 -2.70 0.60 -1.20 1.25 -1.90 3.45 -2.85 8.60 l-0.60 3.50 -2.60 0.15 -2.60 0.15 0 -2.15z"/>
  <path d="M1189.50 893.60 c-2.35 -1.15 -3 -2.65 -3 -6.90 0 -2.95 0.25 -4.05 1.40 -6.25 1.90 -3.70 4.50 -5.10 9.20 -4.85 2.90 0.15 3.55 0.40 4.90 1.65 1.40 1.35 1.50 1.65 1.50 5.35 l0 3.90 -5.75 0 c-4.85 0 -5.75 0.10 -5.75 0.75 0 1.15 2.90 2.25 4.40 1.70 0.65 -0.25 2.05 -0.45 3.15 -0.45 l1.95 0 0 2.45 0 2.45 -2.20 0.55 c-3.35 0.85 -7.80 0.70 -9.80 -0.35z"/>
  <path d="M42.45 636.30 c-0.10 -0.15 -5.30 -1.20 -11.60 -2.35 l-11.35 -2.15 0 -6.20 c0 -9.20 1.30 -11.10 7.45 -11.10 l2.95 0 -1.65 -1.65 c-1.90 -1.90 -2.75 -4.45 -2.75 -8.40 0 -6.20 1.90 -7.95 8.70 -7.95 l4.30 0 0 7.05 c0 6.25 0.10 7 0.80 6.75 0.45 -0.15 0.85 -0.30 1 -0.30 0.10 0 0.50 -0.65 0.90 -1.45 0.70 -1.30 0.70 -1.75 0.05 -4.25 -0.40 -1.60 -0.75 -3.50 -0.75 -4.30 0 -1.35 0.15 -1.50 1.70 -1.50 3.05 0 4.10 0.70 4.75 3.20 0.90 3.70 0.70 9 -0.50 11.50 -1.25 2.75 -2.95 3.50 -7.75 3.55 l-3.55 0 1 1.95 c0.70 1.30 1.10 3.25 1.25 5.85 l0.25 3.90 2.55 0.50 c1.40 0.30 3.55 0.70 4.80 0.90 l2.25 0.45 0.15 3.10 0.15 3.10 -2.45 0 c-1.35 0 -2.55 -0.10 -2.65 -0.20z m-10.45 -10.35 c0 -1.10 -0.50 -2.05 -1.70 -3.25 -0.95 -0.95 -1.95 -1.70 -2.25 -1.70 -1.15 0 -3.05 2.45 -3.05 3.90 0 1.40 0.10 1.50 3.15 1.95 1.70 0.30 3.25 0.55 3.50 0.60 0.20 0 0.35 -0.65 0.35 -1.50z m1 -20.45 c0 -2.70 -0.40 -3.10 -1.40 -1.50 -0.50 0.85 -0.50 1.30 0.15 2.50 0.45 0.85 0.90 1.50 1 1.50 0.15 0 0.25 -1.10 0.25 -2.50z"/>
  <path d="M35 594.95 c-4 -0.75 -7.80 -1.55 -8.45 -1.70 -1.10 -0.30 -1.15 -0.50 -1.05 -3.65 0.10 -1.85 0.10 -5.20 0.05 -7.45 -0.05 -3.95 -0.10 -4.15 -1.15 -4.15 -0.65 -0.05 -1.95 -0.45 -2.90 -0.90 -2.25 -1.10 -3.10 -3.55 -2.90 -8.30 0.15 -3.90 0.45 -4.20 3.65 -3.60 1.55 0.30 1.65 0.45 1.85 2.85 0.35 3.30 1.40 4.50 1.40 1.55 0 -2 0.05 -2.10 1.60 -2.10 1.45 0 1.50 -0.05 0.75 -0.90 -1.45 -1.60 -2.35 -4.50 -2.35 -7.70 0 -6 2.45 -8.40 8.55 -8.40 4.60 0 8.15 1.15 10.30 3.40 2.40 2.45 3.15 4.45 3.15 8.35 0 5 -1.50 7.20 -5.60 8.30 -2.25 0.60 -7.55 0.20 -10 -0.80 -0.75 -0.30 -0.90 -0.10 -0.90 1.20 0 0.90 0.30 1.70 0.65 1.85 0.35 0.10 4 0.85 8.10 1.60 l7.50 1.40 0.15 2.85 c0.10 2.30 0 2.95 -0.65 3.20 -0.50 0.15 -3.90 -0.30 -7.65 -1.05 -3.80 -0.70 -7.05 -1.30 -7.35 -1.30 -0.30 0 -0.45 1.15 -0.35 2.75 0.30 4.65 2.85 6.25 12.50 7.80 l3.60 0.60 0 2.90 0 2.95 -2.60 -0.05 c-1.45 -0.05 -5.90 -0.70 -9.90 -1.50z m5.60 -31.30 c1.35 -1.20 1.10 -2.75 -0.70 -4.50 -2.20 -2.05 -5.05 -2.85 -6.90 -1.90 -1.90 1 -2.10 1.90 -0.85 3.80 2.05 3 6.50 4.40 8.45 2.60z"/>
  <path d="M41 550.25 c-1.50 -0.35 -5.60 -1.15 -9.10 -1.80 l-6.35 -1.15 0 -13.55 c0 -11.30 0.10 -13.70 0.75 -14.65 0.70 -1.05 0.70 -1.40 0 -3.15 -0.90 -2.20 -1.05 -6.25 -0.30 -8.15 1.25 -3.40 6.55 -3.60 19.15 -0.75 l2.35 0.55 0 2.95 c0 2.85 -0.05 2.95 -1.30 2.95 -0.70 0 -3.65 -0.45 -6.50 -1.05 -7.95 -1.55 -9.85 -0.85 -6.80 2.60 1.30 1.45 2 1.75 7.90 2.95 l6.45 1.30 0.15 2.85 0.15 2.85 -2.15 0 c-1.20 0 -4.50 -0.45 -7.40 -1 -4.65 -0.90 -5.30 -0.90 -6 -0.25 -0.65 0.70 -0.65 0.90 0 2.15 1.10 1.90 3.80 3.05 10.10 4.20 l5.40 1 0 2.95 0 2.95 -1.85 0 c-1.05 -0.05 -4.60 -0.55 -7.90 -1.20 l-6 -1.10 -0.15 1.95 c-0.30 3.90 1.80 5.40 10.10 7.10 l5.55 1.10 0 2.95 0 2.95 -1.75 0.10 c-0.95 0.05 -3 -0.25 -4.50 -0.60z"/>
  <path d="M35.90 503.45 c-1.70 -1 -2.65 -2.30 -3.45 -4.70 -0.25 -0.75 -0.35 -0.65 -0.40 0.65 -0.05 1.60 -0.10 1.60 -2.45 1.60 -2.15 0 -2.50 -0.15 -3.10 -1.35 -0.35 -0.80 -0.70 -3.40 -0.85 -5.90 -0.45 -9.20 2.25 -10.60 15.60 -8.05 l6 1.10 0 7.35 c0 7.25 0 7.35 -1.30 8.65 -1.15 1.10 -1.90 1.35 -4.75 1.55 -2.90 0.15 -3.75 0 -5.30 -0.90z m5.10 -6.25 c0.95 -1.10 0.10 -3.05 -1.95 -4.35 l-1.70 -1.05 0.30 1.90 c0.30 2 1.55 4.30 2.30 4.30 0.25 0 0.70 -0.35 1.05 -0.80z m-9.05 -3.55 c0 -2.20 -0.10 -2.65 -0.45 -1.80 -0.40 1 -0.15 4.65 0.30 4.65 0.10 0 0.20 -1.30 0.15 -2.85z"/>
  <path d="M41 483.45 c-0.95 -0.25 -4.80 -1 -8.50 -1.65 l-6.75 -1.15 -0.10 -7.10 -0.10 -7.15 1.45 -1.45 c1.30 -1.35 1.70 -1.45 5.10 -1.40 2 0 6.25 0.50 9.40 1.10 l5.75 1.10 0 3 0 3 -2 -0.05 c-1.10 0 -4.35 -0.50 -7.20 -1.10 -3.85 -0.80 -5.40 -0.95 -5.90 -0.55 -1.45 1.25 -0.15 3.70 2.75 5.15 1.20 0.60 10.95 2.80 12.45 2.80 0.10 0 0.15 1.35 0.15 3 l0 3 -2.35 -0.05 c-1.35 -0.05 -3.20 -0.25 -4.15 -0.50z"/>
  <path d="M32.25 461.30 c-3 -1.35 -5.50 -4.05 -6.20 -6.65 -0.70 -2.50 -0.70 -7.60 0 -9.60 0.50 -1.50 0.65 -1.55 3.25 -1.55 l2.70 0 0 1.90 c0 1 -0.20 2.55 -0.45 3.45 -0.80 2.75 2.20 6.35 6.05 7.30 1 0.25 1.65 0.05 2.65 -0.75 1.40 -1.25 1.45 -1.50 0.95 -6.35 l-0.35 -3.20 2.65 0.25 c1.45 0.15 2.80 0.55 3.05 0.95 0.65 1.10 1.10 5.85 0.80 8.85 -0.55 5.05 -2.55 6.60 -8.60 6.60 -3.15 0 -4.55 -0.25 -6.50 -1.20z"/>
  <path d="M33.40 443.50 c-2.45 -0.75 -4.95 -2.60 -6.25 -4.65 -0.95 -1.55 -1.30 -2.85 -1.50 -5.80 -0.45 -6.85 1.45 -9 8.30 -9.45 2.75 -0.20 3.75 -0.05 4.10 0.45 0.25 0.40 0.45 3.70 0.45 7.35 0 3.60 0.20 6.60 0.40 6.60 0.25 0 0.95 -0.55 1.60 -1.25 1.25 -1.30 1.50 -3.90 0.50 -5.70 -0.25 -0.55 -0.50 -1.80 -0.50 -2.75 l0 -1.80 2.95 0 2.90 0 0.60 2.85 c0.75 3.90 0.70 8.85 -0.15 10.90 -1.15 2.75 -3.35 3.75 -8.05 3.70 -2.20 0 -4.60 -0.20 -5.35 -0.45z m-0.40 -10.85 c-0.05 -2.65 -0.10 -2.80 -0.75 -1.95 -0.90 1.15 -0.95 2.50 -0.25 3.85 0.85 1.50 1 1.15 1 -1.90z"/>
  <path d="M408 116.10 c-1.10 -0.35 -1.25 -0.70 -1.40 -3 l-0.15 -2.60 1.80 0 c1 0 2.25 0.20 2.75 0.50 0.60 0.30 1.35 0.30 2.10 0.05 1.05 -0.45 1.05 -0.50 -0.45 -0.50 -2.30 -0.05 -4.10 -1.05 -4.95 -2.60 -1.05 -2.05 -0.90 -8.35 0.25 -11.05 1.80 -4.20 4.20 -5.30 11.50 -5.30 l5.20 -0.05 -0.30 3.60 c-0.35 4.45 -2.10 13.40 -3.10 16.15 -1.25 3.25 -4 4.90 -8.45 5.05 -1.95 0.05 -4.10 -0.05 -4.80 -0.25z m9.25 -13.95 c2.10 -4.35 -0.85 -7.15 -3.50 -3.30 -1.45 2.15 -1.60 4.40 -0.45 5.70 0.75 0.85 0.90 0.85 2 0.05 0.65 -0.45 1.50 -1.55 1.95 -2.45z"/>
  <path d="M148.70 107.40 c0.25 -2.75 3.10 -18.60 3.60 -20.25 0.10 -0.45 1.50 -0.65 4.60 -0.65 5.35 0 7 0.30 8.60 1.50 1.15 0.85 1.25 1.30 1.25 4.95 0 2.65 0.15 3.70 0.45 3.15 0.90 -1.65 3.50 -3.60 5.50 -4.15 3.10 -0.85 6.90 -0.15 8.50 1.50 1.50 1.60 2.15 4.40 1.60 7.25 l-0.35 1.80 -5.70 0 c-3.15 0 -5.75 0.20 -5.75 0.40 0 0.95 2.05 2.25 3.35 2.15 0.80 0 2.55 -0.10 3.90 -0.20 l2.50 -0.10 0.15 1.85 c0.20 2.60 -1.30 3.50 -6.40 3.80 -6.40 0.35 -9 -1.75 -9 -7.40 0 -0.95 0.20 -2.50 0.50 -3.45 l0.50 -1.70 -1.10 1.10 c-1.50 1.65 -4 2.55 -7.05 2.55 -2.70 0 -2.70 0 -3.25 1.95 -0.35 1.05 -0.60 2.50 -0.60 3.20 0 0.70 -0.20 1.85 -0.50 2.55 -0.40 1.15 -0.75 1.30 -3.05 1.30 l-2.60 0 0.35 -3.10z m27.70 -10.45 c-0.60 -0.35 -1.20 -0.35 -1.75 0 -0.75 0.45 -0.60 0.50 0.85 0.50 1.45 0 1.60 -0.05 0.90 -0.50z m-16.40 -1.45 c1.75 -1.75 1 -4 -1.30 -4 -1.35 0 -1.50 0.15 -1.95 2.90 -0.30 2 -0.30 2.10 0.95 2.10 0.70 0 1.75 -0.45 2.30 -1z"/>
  <path d="M182.50 109.15 c0 -1.95 2.30 -14.60 2.95 -16.30 0.50 -1.35 0.75 -1.45 2.95 -1.35 1.30 0.10 3.95 0.10 5.90 0.05 l3.60 -0.05 0.30 -1.60 c0.20 -0.90 0.65 -2.05 1.05 -2.55 0.75 -1.05 3.50 -1.80 6.35 -1.85 2.65 0 3.40 0.40 3.40 2 0 2.45 -0.45 3 -2.50 3 -1.10 0 -2.10 0.25 -2.25 0.50 -0.20 0.30 0.25 0.50 1 0.50 0.90 0 1.45 0.30 1.60 1 0.15 0.55 0.35 1 0.45 1 0.10 0 1.05 -0.45 2.05 -1 3.85 -2.05 9.35 -0.90 10.85 2.25 0.90 1.80 1 5.95 0.35 8.95 -0.60 2.40 -3.65 5.65 -6.05 6.30 -2.65 0.75 -6.30 0.60 -7.20 -0.25 -0.40 -0.40 -0.95 -0.75 -1.25 -0.75 -1.30 0 -2.15 -3.10 -1.95 -6.95 0.15 -2.10 0.40 -4.20 0.60 -4.65 0.35 -0.75 0.15 -0.90 -0.80 -0.90 -1.20 0 -1.30 0.30 -2.65 7 l-1.45 7 -2.40 0 -2.40 0 0 -2.35 c0.05 -1.35 0.45 -4.40 0.95 -6.90 l0.85 -4.50 -1.65 -0.15 c-2 -0.20 -4.25 1.25 -5.10 3.30 -0.35 0.80 -1 3.45 -1.50 5.90 l-0.90 4.45 -2.60 0.15 c-2.50 0.15 -2.55 0.10 -2.55 -1.25z m32.05 -6.75 c1.15 -2.25 1.20 -4.05 0.20 -4.90 -1.20 -1 -2.95 -0.20 -4.15 1.95 -1.30 2.30 -1.40 3.90 -0.30 5.10 1.10 1.25 3 0.30 4.25 -2.15z"/>
  <path d="M221.15 106.65 c0.25 -3.55 2.10 -13.85 2.65 -14.70 0.10 -0.20 5 -0.35 10.90 -0.35 7.95 0 11.05 0.20 12 0.70 1.10 0.55 1.60 0.55 3.05 -0.10 2.65 -1.10 5.85 -0.90 7.40 0.45 1.25 1.05 1.35 1.45 1.35 5.05 0 2.15 -0.35 5.90 -0.80 8.35 l-0.85 4.45 -2.40 0 -2.45 0 0 -2.10 c0 -2.05 0.65 -6.65 1.30 -9.45 0.30 -1.40 -0.65 -2.15 -2 -1.65 -0.90 0.35 -2.55 3.85 -3 6.45 -0.20 1.10 -0.60 3.05 -0.90 4.40 l-0.50 2.35 -2.45 0 -2.45 0 0 -2.35 c0 -1.35 0.35 -3.75 0.75 -5.40 0.95 -3.90 0.95 -5.20 -0.05 -5.60 -1.05 -0.40 -2.95 1.55 -3.60 3.75 -0.30 1 -0.80 3.60 -1.15 5.75 l-0.65 3.85 -2.65 0 -2.65 0 0 -1.70 c0 -0.95 0.45 -4.15 1.05 -7.10 0.55 -2.90 0.95 -5.40 0.85 -5.45 -0.10 -0.10 -0.95 0.10 -1.95 0.45 -3.10 1.10 -3.75 2.10 -4.90 7.75 -0.60 2.90 -1.20 5.40 -1.35 5.65 -0.15 0.20 -1.30 0.40 -2.55 0.40 l-2.30 0 0.30 -3.85z"/>
  <path d="M261.40 109.60 c-1.75 -1.20 -1.90 -1.60 -1.90 -5.20 0 -3.15 0.10 -3.50 1.55 -4.75 0.85 -0.80 2 -1.55 2.60 -1.75 1 -0.25 0.95 -0.30 -0.25 -0.35 -1.30 -0.05 -1.40 -0.20 -1.40 -2.25 0 -2 0.15 -2.25 1.65 -2.85 0.90 -0.40 3.30 -0.70 5.50 -0.70 3.80 0 4 0.05 5.40 1.65 1.75 1.95 1.85 3.95 0.70 10.55 -1.25 6.90 -0.80 6.50 -7.20 6.45 -4.15 0 -5.80 -0.20 -6.65 -0.80z m7.30 -6.45 c0.35 -0.90 -0.95 -0.80 -2.80 0.15 -1.50 0.75 -1.55 0.85 -0.70 1.50 0.80 0.55 1.10 0.50 2.10 -0.20 0.65 -0.45 1.25 -1.15 1.40 -1.45z m0.45 -6.25 c-0.85 -0.40 -1.45 -0.40 -2.25 0 -1 0.45 -0.90 0.55 1.10 0.55 2 0 2.10 -0.10 1.15 -0.55z"/>
  <path d="M276 109.15 c0 -1.20 2.30 -15.25 2.80 -17 0.10 -0.50 1.70 -0.60 6.25 -0.50 6.05 0.15 6.10 0.15 7.25 1.65 1.30 1.60 1.60 5 0.75 8.85 -0.25 1.15 -0.75 3.50 -1.10 5.25 l-0.60 3.10 -2.40 0 -2.45 0 0 -2.35 c0 -1.25 0.35 -4.25 0.80 -6.55 0.90 -4.90 0.50 -5.75 -1.95 -4 -1.75 1.25 -2.25 2.45 -3.25 8.30 l-0.80 4.60 -2.65 0 c-2.55 0 -2.65 -0.05 -2.65 -1.35z"/>
  <path d="M297 109.60 c-0.95 -0.45 -2 -1.40 -2.35 -2.10 -0.75 -1.50 -0.85 -6.55 -0.15 -9.10 0.60 -2.10 3.65 -5.20 6.10 -6.30 1.65 -0.70 7.65 -0.65 8.85 0.10 0.30 0.20 0.55 1.40 0.55 2.70 l0 2.35 0.90 -1.35 c3.20 -4.85 10.45 -6 14.10 -2.20 1.45 1.45 1.55 1.70 1.40 5.05 l-0.15 3.50 -5.85 0.15 c-4.75 0.10 -5.90 0.25 -5.90 0.85 0 1.10 2.85 2.35 4.55 2 0.80 -0.20 1.55 -0.55 1.70 -0.80 0.20 -0.25 1.10 -0.45 2.05 -0.45 l1.75 0 -0.15 2.60 -0.15 2.60 -2.25 0.70 c-1.25 0.35 -3.70 0.60 -5.55 0.50 -2.70 -0.15 -3.65 -0.45 -5.15 -1.60 l-1.85 -1.40 0.15 -4.95 0.15 -4.95 -1.65 0 c-0.90 0 -2.10 -0.25 -2.65 -0.50 -2 -1.10 -5.95 2.60 -5.95 5.60 0 2.05 1.20 2.65 5.05 2.45 l3.45 -0.10 0 1.65 c0 0.90 -0.20 1.90 -0.40 2.20 -1.15 1.70 -7.70 2.20 -10.60 0.80z"/>
  <path d="M341.10 110.15 c-1.10 -0.15 -2.35 -0.90 -3.65 -2.20 l-1.95 -1.95 0 -5.40 c0 -5.20 0.05 -5.50 1.65 -8.10 1.05 -1.85 2.40 -3.20 4.05 -4.25 2.25 -1.35 2.85 -1.50 6.75 -1.50 2.75 0 4.90 0.25 5.95 0.75 1.50 0.70 1.60 0.90 1.60 3.35 0 2.60 -0.05 2.65 -1.45 2.65 -0.80 0 -2.45 -0.45 -3.75 -1.05 -2.30 -1 -2.40 -1 -4.20 -0.10 -2.40 1.15 -4.65 4.85 -5 8.05 -0.20 2.25 -0.10 2.50 1.40 3.75 1.90 1.60 2.55 1.65 5.45 0.35 1.20 -0.55 2.80 -1 3.60 -1 1.30 0 1.45 0.15 1.45 1.70 0 3.30 -0.65 4.10 -3.80 4.70 -2.80 0.60 -4.80 0.65 -8.10 0.25z"/>
  <path d="M354.65 107.15 c0.25 -3.10 2.95 -18.60 3.65 -20.80 0.25 -0.75 0.75 -0.85 2.60 -0.75 l2.35 0.15 -0.05 3.05 -0.05 3 2.80 -0.20 c2.30 -0.15 3.05 0 4.20 0.90 1.30 1 1.35 1.30 1.30 5.15 0 2.25 -0.40 6 -0.90 8.35 l-0.85 4.25 -2.60 0.15 c-2.50 0.15 -2.60 0.10 -2.60 -1.20 0 -0.70 0.35 -3.45 0.80 -6 0.45 -2.60 0.65 -5.05 0.50 -5.45 -0.85 -2.30 -4.05 0.75 -4.80 4.65 -0.30 1.55 -0.80 4.05 -1.10 5.50 l-0.55 2.60 -2.50 0 -2.45 0 0.25 -3.35z"/>
  <path d="M374.70 110 c-1.70 -0.65 -2.70 -2.50 -2.70 -5 0 -4.90 2.80 -7.45 8.20 -7.50 1.65 0 2.80 -0.15 2.60 -0.35 -0.15 -0.20 -2 -0.30 -4.05 -0.20 l-3.75 0.10 0 -1.90 c0 -2.55 1.15 -3.20 5.95 -3.50 4.70 -0.25 6.80 0.75 7.35 3.55 0.40 2.30 0 8.20 -0.90 12.05 l-0.65 3 -5.50 0.10 c-3 0.05 -6 -0.10 -6.55 -0.35z m6.30 -6.25 c1 -1.05 1.05 -1.25 0.30 -1.25 -0.45 0 -1.55 0.35 -2.40 0.80 -1.20 0.60 -1.40 0.90 -0.85 1.25 1.10 0.70 1.70 0.55 2.95 -0.80z"/>
  <path d="M389.35 110.15 c-0.55 -0.55 -0.40 -3.40 0.45 -7.75 0.45 -2.30 1.05 -5.60 1.40 -7.40 l0.65 -3.25 6.05 0 6.10 0 1.30 1.50 c1.15 1.40 1.20 1.75 0.95 5.25 -0.15 2.05 -0.65 5.55 -1.15 7.75 l-0.85 4 -2.70 0.15 -2.70 0.15 0.35 -2.65 c0.15 -1.45 0.60 -4.25 0.95 -6.25 0.75 -4 0.50 -4.95 -1.25 -4.50 -1.65 0.45 -2.75 2.55 -3.65 7.15 -0.40 2.15 -0.90 4.45 -1 5.10 -0.25 0.95 -0.60 1.10 -2.45 1.10 -1.15 0 -2.30 -0.15 -2.45 -0.35z"/>
  <path d="M428.10 109.75 c-2.85 -1.30 -3.55 -2.55 -3.60 -6.55 0 -1.95 0.25 -4.30 0.55 -5.25 2.05 -6.05 10.80 -8.55 15.35 -4.35 0.95 0.95 1.10 1.55 1.10 5 l0 3.90 -5.75 0 c-6.15 0 -6.85 0.35 -4.75 2.25 0.95 0.85 1.30 0.90 3.30 0.35 1.20 -0.35 2.90 -0.60 3.70 -0.60 1.45 0 1.50 0.10 1.50 2.25 0 2.80 -0.65 3.20 -5.85 3.55 -2.85 0.15 -4.35 0.05 -5.55 -0.55z m6.95 -12.70 c-0.40 -0.25 -1 -0.35 -1.40 -0.20 -1.05 0.40 -0.75 0.65 0.75 0.65 1 0 1.15 -0.15 0.65 -0.45z"/>
  <path d="M483.15 58.90 c-1.45 -0.50 -1.65 -0.75 -1.65 -2.35 0 -1 0.15 -2.35 0.35 -3 0.30 -1.10 0.45 -1.15 3.10 -0.80 4.35 0.55 6.40 0.40 7.65 -0.45 1.10 -0.75 1 -0.80 -1.85 -0.80 -3.80 0 -6.90 -1.45 -7.80 -3.65 -0.45 -0.95 -0.70 -3.40 -0.70 -6.10 0.05 -5.50 1.30 -8.75 4.50 -11.70 2.65 -2.45 5.15 -3.25 9.05 -2.85 1.60 0.15 4.60 0.25 6.60 0.25 l3.60 0 0 2.45 c0 2.45 -3.05 19.05 -4 21.85 -0.90 2.55 -2.90 5 -5.10 6.25 -1.75 0.95 -2.95 1.20 -7.10 1.30 -2.80 0.10 -5.80 -0.10 -6.65 -0.40z m10.65 -14.35 c2.05 -1.25 3.65 -3.90 4 -6.60 0.25 -1.90 0.10 -2.40 -1 -3.55 -0.70 -0.80 -1.45 -1.40 -1.70 -1.40 -1.20 0 -3.90 2.50 -5 4.55 -1.65 3.20 -1.60 5.30 0.10 6.80 1.65 1.40 1.65 1.40 3.60 0.20z"/>
  <path d="M613.40 59.20 c-0.45 -0.45 -0.50 -3 -0.10 -4.55 0.25 -0.95 0.65 -1.15 2.15 -1.15 1.95 0 2.95 -0.80 4.70 -3.60 0.80 -1.30 0.75 -1.65 -0.95 -8.90 l-1.80 -7.50 -3.40 0 -3.40 0 -0.80 3.40 c-1.90 8.35 -1.80 8.60 2.35 8.60 l2.35 0 0 2.75 c0 2.50 -0.10 2.75 -1.30 3.05 -2.25 0.55 -8.40 -0.05 -9.80 -1 -1.85 -1.25 -2.20 -4.05 -1.20 -9.90 0.45 -2.55 0.95 -5.15 1.10 -5.75 0.25 -0.95 0.10 -1.15 -0.75 -1.15 -0.95 0 -1.05 -0.30 -1.05 -2.95 l0 -3 1.65 -0.15 c1.55 -0.15 1.60 -0.25 2.10 -3.15 l0.55 -3 3.15 -0.15 3.15 -0.15 -0.20 3.30 -0.15 3.25 5.80 0 5.75 0 1.15 5.40 c0.60 2.95 1.30 5.75 1.45 6.20 0.25 0.65 1.35 -0.80 4.05 -5.35 l3.75 -6.25 3.15 0 3.15 0 0 1.70 c0 1.65 -1.40 4.30 -7 13.30 -1.25 2.05 -3.60 5.90 -5.10 8.50 -1.55 2.60 -3.65 5.55 -4.65 6.50 -1.70 1.65 -2.05 1.75 -5.65 1.90 -2.10 0.10 -4 0 -4.20 -0.20z"/>
  <path d="M139.20 51.30 c-0.85 -0.40 -1.95 -1.20 -2.40 -1.85 -1.20 -1.75 -1 -7.60 0.55 -15.30 l1.35 -6.65 3.15 0 3.15 0 0 1.65 c0 0.90 -0.55 4.30 -1.25 7.60 -0.70 3.30 -1.25 6.50 -1.25 7.15 0 1.45 1.75 2.15 3.65 1.50 2.65 -0.95 3.85 -3.30 5.35 -10.75 l1.35 -6.90 3.20 0 3.20 0 -0.05 2 c-0.05 1.85 -0.75 5.80 -3.10 17.25 l-0.85 4.25 -3.75 0.10 c-2.05 0.05 -5.30 0.25 -7.25 0.40 -2.45 0.20 -3.95 0.05 -5.05 -0.45z"/>
  <path d="M161.50 51.35 c-3.05 -0.65 -3.30 -1.05 -2.75 -4.65 l0.30 -2.20 2.15 0 c1.20 0 3.05 0.35 4.05 0.80 2.15 0.90 4.80 0.60 5.80 -0.60 0.90 -1.10 -0.35 -2 -3.85 -2.70 -1.75 -0.35 -3.20 -1.10 -4.25 -2.05 -1.50 -1.40 -1.55 -1.55 -1.35 -5 0.15 -3.25 0.30 -3.65 1.95 -5.20 2.85 -2.70 7.80 -3.45 14.10 -2.20 2.85 0.60 2.85 0.60 2.85 2.40 0 3.30 -0.45 4.05 -2.25 4.05 -0.95 0 -2.80 -0.25 -4.15 -0.55 -1.95 -0.45 -2.70 -0.45 -3.85 0.10 -0.75 0.40 -1.40 0.95 -1.45 1.20 0 0.30 1.75 1.10 3.95 1.90 5.45 1.85 6.45 3.05 6.10 7.15 -0.45 5.70 -3.15 7.80 -10.35 8 -2.35 0.10 -5.50 -0.10 -7 -0.45z"/>
  <path d="M215.45 51.60 c-0.40 -0.20 -1.45 -0.90 -2.25 -1.50 -1.40 -1.15 -1.45 -1.40 -1.60 -5.60 l-0.20 -4.45 1.95 -2.05 c2.20 -2.35 5.55 -3.50 10.30 -3.50 1.55 0 2.85 -0.20 2.85 -0.50 0 -0.75 -3.25 -1.10 -5.30 -0.55 -1.10 0.30 -2.90 0.55 -4.05 0.55 -2.10 0 -2.15 -0.05 -2.10 -1.60 0.10 -3.55 0.55 -4.10 3.45 -4.75 6.60 -1.35 13.05 -0.35 14.50 2.35 1.20 2.20 1.05 6.10 -0.40 13.75 l-1.45 7.50 -3.95 0.10 c-2.15 0.10 -5.50 0.25 -7.45 0.40 -1.90 0.10 -3.85 0.05 -4.30 -0.15z m7.05 -6.75 c0.95 -0.60 2.10 -1.85 2.65 -2.75 l0.95 -1.60 -1.80 0 c-2.15 0 -5.55 1.60 -6 2.80 -0.35 0.90 0.95 2.70 1.95 2.70 0.35 0 1.35 -0.50 2.25 -1.15z"/>
  <path d="M265.50 50.90 c-3.05 -1.60 -4 -3.60 -4 -8.70 0 -9.35 4 -14.45 11.85 -15.10 6.25 -0.50 10.20 1.95 10.95 6.70 0.45 3.25 -0.15 8.40 -1.35 10.95 -1.25 2.60 -4.60 5.85 -6.90 6.65 -2.90 1 -8.05 0.75 -10.55 -0.50z m9.20 -6.80 c1.05 -1 2.50 -3.75 3 -5.70 0.40 -1.75 -0.35 -3.65 -1.90 -4.65 -1.15 -0.75 -1.35 -0.75 -3.15 0.15 -3.20 1.65 -5.35 6.70 -4.10 9.70 1 2.50 3.65 2.70 6.15 0.50z"/>
  <path d="M327.75 51.60 c-4.50 -1.70 -5.50 -3.50 -5.50 -9.85 0 -5.50 1.25 -8.70 4.50 -11.70 2.45 -2.25 4.75 -3.05 9.05 -3.05 3.85 0 7.05 1.55 8.35 4.05 1.35 2.55 1 10.80 -0.60 13.95 -1.25 2.40 -3.45 5 -4.25 5 -0.25 0 -0.90 0.40 -1.40 0.85 -1 0.90 -8.25 1.45 -10.15 0.75z m8.20 -8.40 c3.05 -3.45 3.25 -8.25 0.40 -9.60 -1.75 -0.85 -3.90 0.20 -5.65 2.90 -1.75 2.60 -2.25 5 -1.45 6.90 1.30 3.05 3.95 2.95 6.70 -0.20z"/>
  <path d="M378.80 51.30 c-4.60 -1.70 -6.70 -4.90 -7.15 -10.90 -0.65 -8.50 3.35 -16.60 9.85 -19.90 2.70 -1.35 9.90 -1.95 12.80 -1 4.95 1.60 7.25 5 7.60 11.30 0.40 7.20 -1.35 12.20 -5.90 16.80 -1.80 1.75 -3.55 3.05 -4.80 3.40 -3.15 0.95 -10.15 1.15 -12.40 0.30z m8.50 -6.25 c4.70 -2.15 8.75 -10.65 7.20 -15.25 -0.65 -2.05 -3.60 -4.80 -5.10 -4.80 -1.95 0 -5.45 2.10 -7 4.20 -1.90 2.55 -2.80 4.65 -3.40 7.90 -0.65 3.20 0.60 6.35 3.10 7.90 2 1.20 2.60 1.25 5.20 0.05z"/>
  <path d="M463.75 51.65 c-1.70 -0.45 -4.15 -2.65 -4.70 -4.25 -0.85 -2.40 -0.65 -9.35 0.30 -12.15 1.25 -3.70 4.75 -7 8.25 -7.75 3.75 -0.85 8.55 -0.45 10.25 0.80 2.90 2.20 3.40 3.40 3.40 8.35 0 6 -1.10 9.25 -4.05 12.10 -1.40 1.40 -2.95 2.30 -4.40 2.70 -2.25 0.55 -7.15 0.65 -9.05 0.20z m7.95 -7.55 c1.05 -1 2.50 -3.75 3 -5.70 0.40 -1.75 -0.35 -3.65 -1.90 -4.65 -1.20 -0.80 -1.35 -0.75 -3.30 0.30 -2.10 1.20 -4.50 5.05 -4.50 7.25 0 4.10 3.55 5.60 6.70 2.80z"/>
  <path d="M511.80 51.50 c-0.80 -0.25 -1.95 -0.95 -2.60 -1.50 -1.90 -1.85 -2.35 -3.60 -2.10 -9.10 0.25 -6 1.15 -8.25 4.40 -11.05 5 -4.25 14.10 -3.75 17.05 0.95 1.05 1.70 1.20 2.55 1.15 6.20 -0.10 9.80 -4.95 15.10 -13.65 14.95 -1.55 0 -3.45 -0.25 -4.25 -0.45z m7.30 -6.75 c3.20 -2.15 4.90 -7.60 3.15 -10.10 -2.40 -3.45 -8.10 0.65 -8.65 6.30 -0.20 2.15 -0.05 2.65 1.05 3.75 1.60 1.60 2.15 1.60 4.45 0.05z"/>
  <path d="M557.70 50.80 c-1.15 -0.70 -2.20 -1.80 -2.40 -2.40 -0.45 -1.85 -0.35 -7.20 0.20 -8.70 1.20 -3.05 4.45 -4.65 10.75 -5.15 4.25 -0.35 4.40 -0.40 3 -1 -1.15 -0.50 -2.05 -0.50 -3.90 -0.10 -1.35 0.30 -3.30 0.55 -4.40 0.55 l-1.95 0 0 -2.45 c0 -1.35 0.30 -2.65 0.65 -2.95 1.70 -1.35 9.95 -2.05 13.40 -1.10 4.60 1.30 5.40 5.65 3.10 17 l-1.40 6.75 -3.75 0.15 c-2.05 0.05 -5.45 0.25 -7.50 0.40 -3.40 0.20 -3.95 0.10 -5.80 -1z m7.80 -5.55 c1.35 -0.70 4 -3.65 4 -4.40 0 -0.65 -3 -0.35 -5 0.45 -2.65 1.10 -3.35 2.35 -2 3.70 1.20 1.20 1.15 1.20 3 0.25z"/>
  <path d="M701.95 51.50 c-3.80 -0.65 -4.45 -1.20 -4.45 -3.65 0 -3.85 0.40 -4.50 2.45 -4.20 1 0.15 3.15 0.75 4.75 1.35 3.60 1.30 5.60 1.05 7.75 -0.95 3.05 -2.85 2.15 -3.80 -5.60 -6.30 -4 -1.25 -4.45 -1.55 -5.25 -3.20 -0.50 -1.10 -0.85 -2.95 -0.80 -4.80 0.05 -8.45 7.20 -12.25 19.05 -10.20 l3.20 0.55 -0.15 3.35 c-0.15 3.05 -0.25 3.30 -1.35 3.45 -0.70 0.10 -2.75 -0.30 -4.60 -0.95 -3.05 -1.05 -3.50 -1.10 -5.20 -0.40 -1.05 0.40 -2.35 1.30 -2.90 2.05 -1.35 1.80 -0.60 2.65 3.10 3.70 8.05 2.20 9.55 3.60 9.55 8.75 0 1.75 -0.25 4 -0.50 4.95 -0.60 2.20 -3.05 4.65 -5.75 5.80 -2.30 0.95 -9.75 1.35 -13.30 0.70z"/>
  <path d="M728.75 51.35 c-3.90 -1.50 -5.25 -3.90 -5.25 -9.35 0 -6.20 2.25 -10.95 6.35 -13.35 1.85 -1.10 3.10 -1.35 6.35 -1.55 3.50 -0.15 4.35 0 6.25 1 3.40 1.75 4.15 3.60 3.95 9.40 -0.15 4 -0.40 5.25 -1.60 7.65 -1.60 3.30 -3.80 5.25 -6.90 6.20 -2.65 0.80 -7.10 0.80 -9.15 0z m5.90 -5.90 c3.55 -1.85 5.90 -6.50 4.90 -9.60 -1.15 -3.40 -4.30 -3.30 -7.20 0.15 -1.20 1.40 -2.35 4.30 -2.35 5.85 0 1.20 1.15 3.05 2.20 3.55 1.35 0.70 1.20 0.70 2.45 0.05z"/>
  <path d="M811 51.15 c-2.55 -1.30 -3.60 -3.70 -3.35 -7.50 0.45 -6.10 3.25 -8.45 10.95 -9.10 4.35 -0.35 4.55 -0.40 3.15 -1 -1.20 -0.50 -1.95 -0.50 -3.75 -0.05 -1.25 0.35 -3.15 0.65 -4.25 0.70 -1.95 0.05 -2 0 -2.15 -1.75 -0.25 -3.25 0.45 -4.25 3.70 -4.85 6.40 -1.30 12.25 -0.40 13.90 2.15 1.20 1.80 1 7.65 -0.45 14.95 -0.70 3.45 -1.25 6.40 -1.25 6.60 0 0.15 -1.65 0.25 -3.60 0.20 -2 0 -5.35 0.10 -7.40 0.25 -3.05 0.25 -4.10 0.15 -5.50 -0.60z m10.05 -8.35 c1.70 -2.30 1.45 -2.55 -1.85 -2.05 -2.80 0.40 -4.95 2.15 -4.50 3.60 0.75 2.35 4.20 1.50 6.35 -1.55z"/>
  <path d="M853.45 51.55 c-2.15 -0.70 -3.95 -2.10 -4.85 -3.75 -1.10 -2.10 -1.10 -9.80 0 -12.40 l0.80 -1.80 -1.80 -0.25 c-2.80 -0.30 -5 1.05 -6.65 4.15 -0.35 0.70 -1.25 4.05 -1.95 7.50 l-1.30 6.25 -3.10 0.15 -3.10 0.15 0 -1.90 c0 -1.55 3.10 -19.30 3.80 -21.55 0.15 -0.50 1.25 -0.65 3.80 -0.65 2 0.05 5.40 -0.10 7.55 -0.25 l3.85 -0.30 0 2.60 0 2.65 1.05 -1.35 c1.75 -2.20 4.70 -3.40 9.20 -3.65 3.50 -0.20 4.30 -0.10 6.25 0.95 3 1.55 4 3.60 4 8.25 0 5.50 0.65 5.15 -8.80 5.15 l-8.25 0 0.80 1.50 c0.45 0.85 1.60 1.90 2.55 2.35 1.55 0.75 2 0.75 4.10 0.15 1.30 -0.35 3.30 -0.75 4.50 -0.90 l2.10 -0.20 0 2.70 c0 2.45 -0.15 2.75 -1.50 3.55 -1.70 1.05 -10.80 1.65 -13.05 0.90z m10.45 -16.65 c-0.15 -0.35 -0.80 -0.95 -1.55 -1.30 -1.10 -0.50 -1.60 -0.50 -3 0.10 -3.05 1.25 -2.70 1.80 1.15 1.80 2.65 0 3.55 -0.15 3.40 -0.60z"/>
  <path d="M102 48.85 c0 -1.50 0.65 -6.05 1.45 -10.15 0.80 -4.10 1.95 -10.10 2.55 -13.30 l1.15 -5.90 3.15 0 3.20 0 0 2.50 c0 1.35 -1.10 8.35 -2.50 15.55 -1.35 7.20 -2.50 13.30 -2.50 13.50 0 0.25 -1.45 0.45 -3.25 0.45 l-3.25 0 0 -2.65z"/>
  <path d="M113.60 48.90 c0.10 -1.45 1.40 -8.90 2.90 -16.50 l2.70 -13.90 3.15 0 3.15 0 0 1.55 c0 0.85 -1.25 8.10 -2.75 16.05 -1.50 7.95 -2.75 14.70 -2.75 14.95 0 0.25 -1.50 0.45 -3.30 0.45 l-3.30 0 0.20 -2.60z"/>
  <path d="M124.50 49.40 c0 -1.70 4.55 -27.80 5.30 -30.25 0.10 -0.45 1.20 -0.65 3.20 -0.65 l3 0 0 2.15 c0.05 1.60 -4.45 27.25 -5.30 30.25 -0.10 0.40 -1.20 0.60 -3.20 0.60 l-3 0 0 -2.10z"/>
  <path d="M184.75 51.15 c-0.55 -0.15 -1.50 -0.70 -2.10 -1.30 -1 -0.90 -1.15 -1.55 -1.15 -4.55 0 -1.95 0.45 -5.40 0.95 -7.65 l0.90 -4.15 -1.20 0 c-1.15 0 -1.20 -0.15 -1.05 -2.85 0.15 -2.85 0.20 -2.90 1.70 -3.05 1.40 -0.15 1.65 -0.40 1.90 -2 0.85 -4.95 0.55 -4.60 3.85 -4.60 l2.95 0 0 3.25 0 3.25 3 0 3 0 0 3 0 3 -3.65 0 -3.60 0 -1.15 5.60 c-1.30 6.35 -1.30 6.40 2.55 6.40 l2.40 0 -0.15 2.90 -0.15 2.85 -4 0.10 c-2.20 0 -4.45 -0.05 -5 -0.20z"/>
  <path d="M195 50.15 c0 -0.80 0.95 -6.20 2.10 -12.05 l2.10 -10.60 4.05 -0.05 c2.20 -0.05 5.60 -0.10 7.50 -0.15 l3.50 -0.05 0.15 1.70 c0.10 0.95 0.05 2.20 -0.10 2.85 -0.30 1.05 -0.60 1.20 -2.65 1.20 -4.90 0 -7.35 3.40 -9.20 12.90 l-1.10 5.60 -3.15 0 c-3.15 0 -3.20 0 -3.20 -1.35z"/>
  <path d="M239.95 51.15 c-2.10 -0.30 -3.10 -1.85 -3.35 -5.05 -0.15 -2.45 0.90 -9.70 1.75 -11.95 0.15 -0.45 -0.20 -0.65 -1.05 -0.65 -1.10 0 -1.30 -0.20 -1.30 -1.45 0 -0.80 0.15 -2.15 0.30 -3 0.25 -1.30 0.55 -1.55 1.70 -1.55 1.30 0 1.45 -0.20 2.10 -3.15 l0.65 -3.10 3 0 3 0 -0.05 3.15 -0.05 3.10 2.95 0 c3.40 0 3.70 0.35 3.20 3.75 l-0.35 2.20 -3.55 0.15 -3.60 0.15 -1.10 5.45 c-0.65 3.05 -1.05 5.60 -0.90 5.75 0.10 0.15 1.55 0.35 3.20 0.45 l3 0.20 0 1.85 c0 3.90 -0.20 4.05 -4.45 4 -2.10 -0.05 -4.40 -0.20 -5.10 -0.30z"/>
  <path d="M250.50 49.15 c0.05 -1.35 0.90 -6.65 1.90 -11.90 l1.85 -9.50 3.15 -0.15 3.10 -0.15 0 2.20 c0 2 -1.05 7.75 -3.30 18.25 l-0.75 3.60 -3 0 -2.95 0 0 -2.35z"/>
  <path d="M285 49.15 c0 -2.10 2.30 -15.50 3.40 -19.90 0.40 -1.50 0.40 -1.50 4.10 -1.60 2.05 -0.05 5 -0.25 6.60 -0.45 3.75 -0.45 6.25 0.10 7.70 1.65 1.05 1.15 1.20 1.75 1.20 5.35 0 2.40 -0.55 6.80 -1.30 10.70 l-1.35 6.60 -3.15 0 -3.20 0 0 -1.70 c0 -0.90 0.55 -4.40 1.25 -7.80 1.30 -6.45 1.25 -8.25 -0.25 -8.65 -1.40 -0.35 -4.10 1.30 -5.25 3.20 -0.55 0.95 -1.60 4.65 -2.30 8.20 l-1.30 6.50 -3.05 0.15 -3.10 0.15 0 -2.40z"/>
  <path d="M347 49.25 c0 -1.30 0.55 -5.05 1.25 -8.35 0.70 -3.30 1.25 -6.35 1.25 -6.70 0 -0.40 -0.55 -0.70 -1.25 -0.70 -1.10 0 -1.25 -0.20 -1.25 -1.85 0 -3.20 0.45 -4.10 2.10 -4.25 1.30 -0.15 1.60 -0.45 2.35 -2.70 1.75 -5.25 3.35 -6.20 10.25 -6.20 l3.85 0 -0.15 2.90 -0.15 2.85 -2.90 0.25 c-2.10 0.20 -3.15 0.55 -3.65 1.25 -1.10 1.50 -0.85 1.75 1.55 1.75 2.65 0 3 0.50 2.55 3.75 l-0.35 2.25 -2.90 0 -2.90 0 -1.75 8.90 -1.70 8.85 -3.10 0.15 -3.10 0.15 0 -2.30z"/>
  <path d="M402.15 50.70 c-0.15 -0.50 0.65 -5.90 1.90 -12.05 l2.20 -11.20 3.50 -0.05 c1.90 0 5.65 -0.05 8.25 -0.10 l4.75 -0.10 0.50 -3 0.50 -2.95 3.20 -0.15 3.15 -0.15 -0.20 3.25 -0.20 3.25 3.05 0.15 c2.75 0.15 3 0.25 3.15 1.35 0.10 0.65 0.05 1.95 -0.15 2.85 l-0.30 1.70 -3.45 0 -3.45 0 -0.85 3.90 c-0.50 2.10 -0.90 4.75 -0.90 5.85 l-0.05 2 2.90 0.15 2.85 0.15 0 1.85 c0 4.15 -0.10 4.20 -5.20 4 -5.85 -0.20 -7.10 -0.95 -7.60 -4.80 -0.30 -2.30 0.30 -6.75 1.60 -11.90 0.25 -1 0 -1.15 -2.25 -1.45 -4.55 -0.60 -7.10 1.90 -8.60 8.60 -0.55 2.45 -1.30 5.55 -1.60 6.90 l-0.60 2.50 -2.90 0.15 c-2.35 0.10 -2.90 0 -3.20 -0.70z"/>
  <path d="M433.10 49.65 c0.15 -1.05 0.85 -4.80 1.55 -8.40 1.45 -7.25 4.35 -22.25 4.35 -22.55 0 -0.10 1.45 -0.20 3.25 -0.20 l3.25 0 0 1.65 c-0.05 0.85 -0.35 3 -0.70 4.70 l-0.65 3.05 1.20 -0.45 c3.25 -1.20 9.50 -0.10 10.60 1.90 1.45 2.75 1.05 8.30 -1.25 18.70 l-0.80 3.45 -2.95 0 -2.95 0 0 -2.65 c0 -1.50 0.45 -4.80 1 -7.40 1.30 -6.30 1.30 -7.35 -0.25 -8.05 -1.05 -0.45 -1.50 -0.35 -3 0.65 -2.45 1.65 -3.50 4.10 -4.85 11.25 l-1.15 6.20 -3.45 0 -3.40 0 0.20 -1.85z"/>
  <path d="M530.15 50.70 c-0.30 -0.80 3.05 -19.75 3.95 -22.10 0.35 -1.10 0.65 -1.15 4.05 -1.15 1.95 0.05 5.05 -0.10 6.75 -0.25 6.20 -0.65 8.60 1.25 8.60 6.75 0 2.85 -2.15 16.10 -2.80 17.10 -0.15 0.25 -1.60 0.45 -3.25 0.45 l-2.95 0 0 -1.90 c0 -1.10 0.60 -4.85 1.30 -8.35 l1.30 -6.45 -1.10 -0.90 c-1.40 -1.15 -1.50 -1.15 -3.50 0.25 -2.45 1.60 -3.30 3.40 -4.55 9.60 -1.60 8.05 -1.40 7.75 -4.70 7.75 -2.10 0 -2.85 -0.20 -3.10 -0.80z"/>
  <path d="M578.65 50.70 c-0.35 -0.90 0.10 -3.35 3.50 -20.95 l2.10 -11 3.20 -0.15 3.15 -0.15 -0.20 3.15 c-0.15 1.75 -1.30 8.35 -2.55 14.65 -1.20 6.35 -2.40 12.35 -2.55 13.40 l-0.35 1.85 -3 0 c-2.30 0 -3.05 -0.20 -3.30 -0.80z"/>
  <path d="M589.50 49.50 c0 -1.15 0.65 -5.45 1.50 -9.65 0.80 -4.20 1.65 -8.60 1.85 -9.85 l0.45 -2.25 3.10 -0.15 3.10 -0.15 -0.05 2.65 c0 1.45 -0.85 6.80 -1.85 11.90 l-1.85 9.25 -3.15 0.15 -3.10 0.15 0 -2.05z"/>
  <path d="M651.05 48.90 c0 -1.45 0.85 -6.80 1.85 -11.90 l1.85 -9.25 3.15 -0.15 3.10 -0.15 0 1.90 c0 1.55 -3.10 19.15 -3.80 21.55 -0.10 0.40 -1.20 0.60 -3.20 0.60 l-3 0 0.05 -2.60z"/>
  <path d="M661.50 49.80 c0 -1 0.90 -6.35 2 -11.90 1.10 -5.60 2 -10.20 2 -10.30 0 -0.10 1.65 -0.15 3.65 -0.10 1.95 0 5.20 -0.10 7.10 -0.30 4.35 -0.40 6.80 0.45 8.05 2.85 1.05 2.05 0.80 6.75 -0.80 14.45 -1.50 7.60 -1.10 7 -4.55 7 l-2.95 0 0 -2.35 c0 -1.35 0.55 -5 1.20 -8.15 0.65 -3.15 1.05 -6 0.95 -6.35 -0.95 -2.50 -5.40 -0.95 -6.95 2.40 -0.50 1.15 -1.45 4.80 -2.20 8.15 l-1.25 6.05 -3.15 0.15 -3.10 0.15 0 -1.75z"/>
  <path d="M748.15 50.65 c-0.25 -0.65 1.45 -10.75 2.70 -16 0.20 -1 0.05 -1.15 -1.05 -1.15 -1.30 0 -1.35 -0.05 -1.20 -2.85 l0.15 -2.90 1.90 -0.15 c1.65 -0.15 1.85 -0.30 1.85 -1.50 0.05 -2.05 1.75 -5.40 3.30 -6.45 1.10 -0.70 2.40 -0.90 6.20 -0.90 4.55 0 4.75 0.05 4.90 1.15 0.15 1 0.45 1.10 2.95 1.10 l2.80 0 -0.30 3.25 -0.30 3.25 5.90 0 5.95 0 0.35 5.50 0.35 5.55 2.70 -5.55 2.70 -5.55 3.35 0.15 3.40 0.15 0.45 5.40 0.45 5.40 1.90 -4.15 c1.05 -2.30 2.15 -4.75 2.40 -5.50 0.50 -1.35 0.65 -1.40 3.75 -1.40 l3.30 0 0 1.65 c0 0.95 -0.70 3.10 -1.55 4.90 -3.20 6.55 -5.60 11.80 -6.70 14.45 l-1.15 2.75 -3.70 0 -3.65 0 -0.10 -3 c-0.10 -1.65 -0.25 -4.20 -0.45 -5.70 l-0.30 -2.70 -2.50 5.45 c-1.35 3 -2.75 5.60 -3.05 5.80 -0.35 0.20 -2 0.40 -3.65 0.40 l-3.05 0 -0.30 -3.60 c-0.20 -2 -0.45 -6.10 -0.65 -9.15 l-0.30 -5.50 -3.60 0.15 -3.55 0.15 -1.05 5.50 c-0.70 3.65 -0.85 5.60 -0.50 5.95 0.25 0.25 1.35 0.50 2.35 0.50 3.45 0 3.90 0.60 3.15 4.50 l-0.35 1.60 -4.95 -0.20 c-4.20 -0.15 -5.05 -0.35 -6 -1.25 -1.50 -1.55 -1.70 -5.70 -0.50 -11.75 l0.95 -4.90 -2.90 0 c-2.55 0 -2.85 0.10 -3.10 1.15 -0.15 0.60 -0.85 4.35 -1.65 8.35 -0.75 4 -1.40 7.55 -1.50 7.90 -0.10 0.40 -1.20 0.60 -3.20 0.60 -2.35 0 -3.10 -0.20 -3.35 -0.85z m17.05 -23.95 c0.70 -1.80 0.35 -2.20 -1.85 -2.20 -1.45 0 -2.45 0.30 -2.95 0.90 -1.70 1.95 -1.60 2.10 1.50 2.10 2.25 0 3.05 -0.20 3.30 -0.80z"/>
  <path d="M255.15 24.70 c-0.15 -0.40 -0.10 -1.95 0.15 -3.35 l0.45 -2.60 3.15 -0.15 3.10 -0.15 0 2.40 c0 4.40 -0.20 4.65 -3.55 4.65 -2.25 0 -3.05 -0.20 -3.30 -0.80z"/>
  <path d="M594.60 22.15 l0.15 -3.40 3.25 0 3.25 0 -0.05 2.60 c-0.10 4 -0.25 4.15 -3.70 4.15 l-3.05 0 0.15 -3.35z"/>
  <path d="M655.70 22.45 c0.15 -1.65 0.40 -3.25 0.60 -3.50 0.15 -0.25 1.60 -0.45 3.25 -0.45 l2.95 0 0 2.40 c0 4.40 -0.20 4.60 -3.90 4.60 l-3.25 0 0.35 -3.05z"/>
 </g>
 <g fill="#ffffff">
  <path d="M0 506 l0 -506 611.50 0 611.50 0 0 506 0 506 -611.50 0 -611.50 0 0 -506z m578.30 486.50 c0.75 -0.30 1.65 -0.90 2.05 -1.40 0.75 -0.95 7.15 -11.55 7.15 -11.85 0 -0.10 1.60 -2.80 3.50 -6 1.95 -3.20 3.50 -5.90 3.50 -6.05 0 -0.15 -0.70 -0.20 -1.60 -0.10 -1.15 0.10 -1.80 0.55 -2.40 1.65 -0.50 0.85 -1.75 2.95 -2.75 4.75 -1.05 1.80 -2.55 4.40 -3.30 5.75 -0.80 1.40 -1.45 2.35 -1.45 2.15 0 -0.50 -2.50 -12.45 -2.80 -13.50 -0.20 -0.60 -0.75 -0.90 -1.80 -0.90 -1.35 0 -1.50 0.15 -1.20 1.20 0.15 0.65 1.10 4.80 2.05 9.25 l1.75 8.05 -1.25 2 c-1.35 2.20 -2.60 3 -4.40 3 -1.15 0 -2.15 1.50 -1.45 2.20 0.45 0.50 2.95 0.35 4.40 -0.20z m-512.30 -21.50 l0 -21 420.10 0 420.10 0 -2.65 2.70 -2.70 2.70 1.35 1.40 1.30 1.45 3.15 -3.15 c1.70 -1.70 3.45 -3.10 3.85 -3.10 0.40 0 2.15 1.40 3.85 3.10 l3.10 3.10 1.35 -1.45 1.30 -1.45 -2.50 -2.40 c-1.50 -1.45 -2.30 -2.55 -1.95 -2.65 0.35 -0.15 9.05 -0.30 19.35 -0.35 17.90 -0.15 18.75 -0.20 18.90 -1.10 0.10 -0.50 -0.10 -1.10 -0.50 -1.35 -0.35 -0.25 -9.20 -0.45 -19.65 -0.45 l-18.95 0 2.70 -2.75 2.70 -2.75 -1.35 -1.35 -1.35 -1.35 -3.15 3.10 c-1.70 1.70 -3.45 3.10 -3.85 3.10 -0.40 0 -2.10 -1.40 -3.80 -3.05 l-3.10 -3.10 -1.35 1.40 -1.40 1.35 2.70 2.70 2.65 2.70 -420.10 0 -420.10 0 0 -417 c0 -229.35 0.15 -417 0.30 -417 0.20 0 1.40 1.10 2.70 2.50 l2.35 2.45 1.10 -1.10 c0.55 -0.65 1.05 -1.35 1.05 -1.55 0 -0.25 -1.25 -1.65 -2.75 -3.15 -1.50 -1.50 -2.75 -3.10 -2.75 -3.60 0 -0.45 1.35 -2.20 2.95 -3.85 l2.95 -2.95 -1.20 -1.40 -1.20 -1.40 -2.55 2.50 c-1.40 1.40 -2.65 2.55 -2.75 2.55 -0.10 0 -0.25 -8.70 -0.30 -19.40 l-0.15 -19.35 -1.25 0 -1.25 0 -0.15 19.50 -0.10 19.45 -2.65 -2.60 -2.65 -2.65 -1.40 1.35 -1.35 1.40 3.05 3.05 c1.65 1.65 3 3.40 3 3.90 0 0.45 -1.30 2.10 -2.85 3.60 -3 2.90 -3.15 3.60 -0.95 4.95 0.70 0.45 1.25 0.10 3.35 -2.20 l2.45 -2.75 0 417.35 0 417.40 -20.85 0.10 -20.90 0.15 0 1.25 0 1.25 20.90 0.15 20.85 0.10 0 21 0 21 1.50 0 1.50 0 0 -21z m319.25 14.40 c0.15 -0.35 0.65 -3 1.15 -5.90 l0.85 -5.25 5 -0.25 c4.70 -0.25 5 -0.30 5.15 -1.35 0.15 -1.10 0.05 -1.15 -4.60 -1.15 -5.30 0 -5.10 0.15 -4.30 -3.50 1.10 -5.05 0.40 -4.50 6.20 -4.50 5.25 0 5.80 -0.20 5.80 -2.05 0 -0.25 -3.05 -0.45 -6.95 -0.45 l-6.95 0 -0.35 2.15 c-0.20 1.15 -1.25 6.60 -2.30 12.10 -1.05 5.50 -1.95 10.15 -1.95 10.40 0 0.60 3 0.40 3.25 -0.25z m22.60 -0.15 c1.05 -0.45 2.30 -1.15 2.80 -1.65 0.95 -0.80 0.95 -0.80 0.60 0.80 -0.35 1.65 -0.30 1.65 1.25 1.50 1.35 -0.10 1.65 -0.40 1.80 -1.40 0.15 -1.35 2.55 -14.55 2.95 -16.35 0.25 -1 0.05 -1.15 -1.25 -1.15 -1.65 0 -1.50 -0.35 -2.80 6.80 -1.15 6.60 -3.25 9.40 -6.95 9.40 -3.50 0 -3.95 -1.80 -2.25 -9.95 1.30 -6.30 1.30 -6.35 -0.35 -6.15 -1.35 0.15 -1.45 0.35 -2.50 5.65 -1.15 5.55 -1.45 10.05 -0.75 11.05 1.50 2.15 4.40 2.70 7.45 1.45z m16.50 -5.45 c1.20 -6.45 1.85 -7.85 4.30 -9.30 2.05 -1.30 3.90 -1.25 5.25 0 1.35 1.30 1.35 0.95 -0.15 8.75 -0.70 3.60 -1.25 6.55 -1.25 6.65 0 0.05 0.65 0.10 1.45 0.10 l1.45 0 1.40 -7.25 c1.30 -6.95 1.35 -7.35 0.55 -9.05 -0.50 -1 -1.45 -1.95 -2.20 -2.25 -1.90 -0.70 -5 -0.15 -7.25 1.30 l-1.85 1.25 0.30 -1.55 c0.25 -1.45 0.20 -1.50 -1.15 -1.35 -1.60 0.15 -1.40 -0.50 -3.45 10.35 -1.60 8.55 -1.60 8.65 0.10 8.45 1.35 -0.15 1.40 -0.30 2.50 -6.10z m28.20 5.70 c1.15 -0.35 2 -0.95 2.40 -1.80 l0.60 -1.30 -1.90 0.40 c-6.10 1.40 -8.65 0.10 -8.65 -4.35 0 -6.35 4.70 -10.15 10.20 -8.35 2.20 0.75 2.25 0.75 2.55 -0.50 0.35 -1.50 -0.20 -1.95 -3.25 -2.40 -2.75 -0.45 -6.15 0.45 -8.35 2.05 -3.40 2.60 -5.30 9.35 -3.70 13.20 1.25 2.90 5.75 4.25 10.10 3.05z m16.85 -0.85 c0.15 -1 -0.05 -1.15 -1.65 -1.15 -2.25 0 -3.75 -0.75 -3.75 -1.90 0 -0.45 0.50 -3.35 1.10 -6.45 l1.05 -5.65 2.90 0 c2.15 0 2.90 -0.20 3.15 -0.80 0.60 -1.50 0.30 -1.70 -2.65 -1.70 l-2.90 0 0.40 -2.10 c0.20 -1.20 0.40 -2.30 0.45 -2.50 0 -0.25 -0.65 -0.40 -1.45 -0.40 -1.35 0 -1.50 0.20 -1.85 2.40 -0.40 2.05 -0.60 2.35 -1.85 2.50 -1.05 0.15 -1.35 0.45 -1.35 1.40 0 0.85 0.25 1.20 1 1.20 1.25 0 1.25 0.35 -0.05 6.85 -1.60 8 -0.70 9.70 4.80 9.50 2.20 -0.10 2.50 -0.25 2.65 -1.20z m8 -7.45 c0.90 -4.85 1.70 -9.05 1.75 -9.35 0.05 -0.35 -0.55 -0.60 -1.35 -0.60 l-1.50 0 -1.40 7.50 c-0.75 4.15 -1.50 8.35 -1.70 9.40 -0.30 1.80 -0.30 1.85 1.15 1.85 l1.45 0 1.60 -8.80z m14.65 8.45 c2.25 -0.45 6.05 -4.30 6.85 -6.95 1.50 -5.10 0.20 -9.55 -3.15 -11 -6.40 -2.65 -13.15 2.95 -13.25 11.05 0 5.30 3.80 8.05 9.55 6.90z m14.35 -5.05 c0.60 -2.95 1.25 -5.95 1.50 -6.60 1.35 -3.45 5.40 -5.40 7.85 -3.80 1.60 1.05 1.60 2.60 0.05 10.20 l-1.10 5.65 1.50 -0.15 c1.50 -0.15 1.55 -0.25 2.40 -4.40 1.90 -9.55 1.70 -12.75 -0.90 -13.95 -1.95 -0.85 -3.80 -0.65 -6.50 0.70 -1.35 0.70 -2.55 1.25 -2.65 1.25 -0.10 0 0 -0.60 0.15 -1.30 0.30 -1.20 0.25 -1.25 -1.25 -1.10 -1.25 0.10 -1.65 0.40 -1.80 1.35 -0.10 0.70 -0.85 4.80 -1.65 9.20 -0.85 4.35 -1.50 8.05 -1.50 8.15 0 0.10 0.65 0.20 1.45 0.20 1.45 0 1.45 0 2.45 -5.40z m25.75 4.65 c0.90 -0.40 2.10 -1.10 2.70 -1.55 1.15 -0.80 1.15 -0.80 0.85 0.75 -0.30 1.45 -0.25 1.55 1.15 1.55 l1.45 0 1.10 -6.10 c1.45 -8 1.45 -9 -0.30 -10.95 -1.20 -1.35 -1.85 -1.65 -4.15 -1.80 -3.55 -0.25 -6.95 0.75 -7.50 2.25 -0.40 1.10 -0.35 1.15 1.45 0.75 3.60 -0.80 7 -0.50 8.15 0.70 1.80 1.80 0.95 2.65 -2.65 2.65 -4.30 0 -6.80 0.80 -8.75 2.75 -1.40 1.40 -1.65 2 -1.65 4 0 2.80 0.55 4 2.40 4.95 1.75 0.95 3.70 1 5.75 0.05z m14.85 0.60 c0 -0.10 0.55 -2.95 1.20 -6.40 0.70 -3.40 1.70 -8.65 2.30 -11.70 0.55 -3 1.15 -6 1.30 -6.60 0.30 -1 0.15 -1.15 -1.20 -1.15 -1.45 0 -1.55 0.15 -2.05 2.65 -0.55 2.70 -2.70 14 -3.60 18.85 -0.30 1.50 -0.60 3.15 -0.75 3.65 -0.20 0.65 0.05 0.85 1.25 0.85 0.85 0 1.55 -0.05 1.55 -0.15z m10.70 -7.45 c0.75 -4.20 1.60 -8.40 1.80 -9.30 0.45 -1.75 -0.05 -2.35 -1.80 -2 -0.70 0.10 -1.20 1.80 -2.50 8.90 -0.90 4.80 -1.65 9.05 -1.70 9.40 0 0.35 0.60 0.60 1.40 0.60 l1.40 0 1.40 -7.60z m14.60 6.25 c0.20 -1.05 0 -1.15 -2 -1.15 -3.20 0 -3.60 -0.75 -2.90 -5.15 0.30 -2 0.80 -4.80 1.10 -6.20 l0.60 -2.65 2.95 0 c1.60 0 2.95 -0.20 2.95 -0.45 0 -0.25 0.15 -0.80 0.30 -1.25 0.25 -0.70 -0.15 -0.80 -2.80 -0.80 -3.05 0 -3.10 0 -2.80 -1.25 0.15 -0.70 0.45 -1.80 0.60 -2.50 0.30 -1.15 0.15 -1.25 -1.20 -1.25 -1.60 0 -1.70 0.15 -2.35 3.40 -0.25 1.25 -0.60 1.60 -1.50 1.60 -0.70 0 -1.25 0.35 -1.40 0.95 -0.30 1.20 0 1.55 1.25 1.55 1.15 0 1.10 0.30 -0.10 5.80 -1.05 4.65 -1.20 7.05 -0.70 8.45 0.50 1.25 3.15 2.25 5.65 2.10 1.85 -0.10 2.25 -0.30 2.35 -1.20z m-92.10 -21.75 c0.55 -2.20 0.35 -2.90 -0.90 -2.90 -1.40 0 -1.55 0.15 -2.05 2.40 -0.30 1.50 -0.25 1.60 1.15 1.60 1.10 0 1.55 -0.30 1.80 -1.10z m80.50 0 c0.60 -2.25 0.35 -2.90 -0.95 -2.90 -1.30 0 -1.45 0.20 -1.95 2.65 -0.30 1.25 -0.20 1.35 1.15 1.35 1.05 0 1.50 -0.30 1.75 -1.10z m516 -65.70 c0.70 -0.80 2.65 -3.90 4.35 -6.95 1.75 -3 4 -6.95 5.05 -8.70 1.05 -1.80 1.90 -3.55 1.90 -3.90 0 -0.95 -2 -0.80 -2.40 0.25 -0.85 2.05 -6.25 11.10 -6.50 10.85 -0.15 -0.15 -0.75 -2.80 -1.35 -5.90 -1.05 -5.45 -1.10 -5.60 -2.50 -5.75 -1.05 -0.15 -1.30 0 -1.10 0.55 0.15 0.40 0.95 3.90 1.80 7.75 1.40 6.40 1.50 7.10 0.80 8.45 -0.95 1.95 -2.20 3 -3.75 3.25 -0.75 0.10 -1.30 0.55 -1.40 1.10 -0.30 1.55 3.50 0.80 5.10 -1z m100.85 1.10 c0.95 -0.40 2.10 -1.15 2.55 -1.65 1.10 -1.20 2.40 -4.30 2.70 -6.35 0.10 -0.85 0.75 -4.10 1.40 -7.15 0.60 -3.10 1.05 -5.75 0.90 -5.90 -0.15 -0.15 -0.70 -0.25 -1.20 -0.25 -0.65 0 -0.90 0.35 -0.90 1.25 0 1.45 -0.60 1.60 -1.55 0.45 -2.75 -3.30 -8.70 -0.70 -10.45 4.55 -0.35 1.05 -0.50 3.10 -0.40 4.65 0.40 4.65 3.45 6.30 7.60 4.05 1.05 -0.55 2 -0.90 2.15 -0.80 0.40 0.45 -1.20 3.60 -2.35 4.60 -1.15 1.05 -4.75 1.35 -6.85 0.60 -1 -0.35 -1.15 -0.25 -1.15 0.85 0 0.95 0.30 1.30 1.40 1.45 2.85 0.40 4.55 0.35 6.15 -0.35z m-263.25 -10.30 l0.85 -4.95 4.05 -0.15 c3.40 -0.15 4.05 -0.30 4.20 -1 0.15 -0.80 -0.25 -0.90 -3.55 -0.90 -2 0 -3.80 -0.10 -3.95 -0.25 -0.10 -0.15 0 -1.65 0.35 -3.35 l0.55 -3.15 4.45 -0.25 c3.75 -0.20 4.50 -0.40 4.65 -1.10 0.15 -0.80 -0.35 -0.90 -5.40 -0.90 -3.95 0 -5.60 0.20 -5.75 0.65 -0.20 0.50 -2.35 11.80 -3.60 18.75 -0.25 1.45 -0.15 1.60 1 1.60 1.20 0 1.30 -0.20 2.15 -5z m20.30 3.50 l1.40 -1.05 0 1.30 c0 1.05 0.20 1.30 1.10 1.15 1 -0.15 1.25 -0.80 2.45 -7.15 1.75 -8.80 1.75 -8.85 0.35 -8.65 -1 0.15 -1.25 0.70 -2 4.80 -1.10 5.65 -1.85 7.20 -4.15 8.30 -2.40 1.15 -4.45 0.55 -4.65 -1.45 -0.15 -1.30 1.15 -9.45 1.75 -11.05 0.15 -0.50 -0.10 -0.70 -1 -0.70 -1.30 0 -1.30 -0.05 -3.15 10.75 -0.35 2 0.50 4.15 1.90 4.75 1.60 0.70 4.35 0.20 6 -1z m12.15 -3.10 c0.50 -2.55 1.20 -5.40 1.65 -6.30 1.35 -3 5.40 -4.10 6.90 -1.90 0.70 1.15 0.70 1.65 -0.25 6.35 -1.30 6.40 -1.30 6.55 0.05 6.35 1 -0.15 1.20 -0.70 2 -4.90 1.50 -8.40 1.15 -10.10 -2.50 -10.80 -1.15 -0.25 -2.15 0 -3.90 1 -2.80 1.55 -2.90 1.55 -2.25 0.35 0.60 -1.05 0.25 -1.55 -1 -1.55 -0.55 0 -1 0.45 -1.15 1.15 -0.90 4.65 -1.35 7.05 -1.80 9.85 -0.30 1.80 -0.65 3.65 -0.80 4.15 -0.20 0.65 0.05 0.85 0.95 0.85 1.15 0 1.30 -0.30 2.10 -4.60z m25.10 3.50 c1 -0.80 0.85 -2.10 -0.20 -1.65 -2.55 1.10 -5.45 0.85 -6.85 -0.55 -1 -0.95 -1.05 -4.15 -0.10 -6.35 1.15 -2.70 2.95 -4 5.65 -4.05 1.30 0 2.80 0.15 3.30 0.40 0.65 0.30 0.85 0.20 0.85 -0.65 0 -2.55 -5.50 -2.55 -8.95 -0.05 -2.40 1.75 -3.50 3.70 -3.85 6.90 -0.55 4.80 2 7.40 6.75 6.85 1.50 -0.15 3.05 -0.55 3.40 -0.85z m12.55 -0.05 c0.15 -0.70 -0.15 -0.85 -1.50 -0.75 -3.25 0.20 -3.40 -0.30 -2.05 -7.45 l0.85 -4.60 2.50 -0.15 c1.95 -0.10 2.60 -0.35 2.70 -1 0.15 -0.75 -0.20 -0.90 -2.40 -0.90 -2.75 0 -2.65 0.20 -1.75 -2.85 0.25 -1 0.15 -1.15 -0.90 -1.15 -1.05 0 -1.35 0.35 -1.70 1.90 -0.30 1.35 -0.70 1.90 -1.55 2 -1.35 0.20 -1.50 1.90 -0.15 2.25 0.90 0.20 0.90 0.35 -0.05 5.20 -1.05 5.50 -0.75 7.30 1.20 8.15 1.85 0.75 4.60 0.40 4.80 -0.65z m5.65 -0.85 c0.15 -0.95 0.70 -3.90 1.15 -6.50 0.45 -2.60 0.95 -5.40 1.10 -6.15 0.25 -1.30 0.15 -1.40 -0.85 -1.25 -1.10 0.15 -1.30 0.65 -2.25 5.90 -1.95 10.25 -1.95 10.10 -0.60 9.90 0.85 -0.10 1.20 -0.55 1.45 -1.90z m15.80 0.20 c2.50 -1.90 3.35 -3.90 3.40 -7.85 0 -3.15 -0.10 -3.55 -1.40 -4.65 -1.85 -1.60 -3.55 -1.95 -5.85 -1.25 -3.90 1.15 -6.45 4.65 -6.50 8.90 0 2.90 0.70 4.50 2.60 5.70 2.15 1.30 5.40 0.95 7.75 -0.85z m8.85 0.45 c0.15 -0.80 0.50 -2.85 0.80 -4.55 0.30 -1.75 0.90 -3.95 1.35 -4.85 1 -2.10 3.50 -3.50 5.35 -3.05 2.10 0.50 2.35 2 1.25 7.35 -1.20 6.20 -1.20 6.55 0.15 6.35 1.05 -0.15 1.20 -0.70 2.10 -6.05 1.10 -6.60 0.90 -8.20 -1.40 -9.25 -1.70 -0.85 -4.50 -0.40 -5.85 0.95 -1.25 1.25 -1.45 1.20 -1.45 -0.30 0 -0.90 -0.25 -1.25 -0.95 -1.25 -1 0 -1.10 0.50 -3 10.60 -0.50 2.70 -0.80 5 -0.65 5.15 0.75 0.75 2.05 0.15 2.30 -1.10z m23.40 -0.15 c1.75 -1.30 2 -1.25 1.60 0.30 -0.30 1.15 -0.20 1.25 0.85 1.10 1.05 -0.15 1.30 -0.60 1.80 -3.15 0.35 -1.65 0.75 -4.45 0.95 -6.25 0.30 -3.05 0.20 -3.40 -0.90 -4.75 -1.10 -1.25 -1.60 -1.45 -3.95 -1.45 -3.80 -0.05 -5.45 0.50 -5.45 1.75 0 0.80 0.20 0.95 0.90 0.70 3.55 -1.45 7.60 -0.45 7.60 1.95 0 1.10 -0.20 1.20 -3.85 1.40 -4.25 0.25 -5.60 0.85 -6.85 2.95 -2.90 4.90 2.50 9 7.30 5.45z m11.10 -0.10 c0.45 -2.20 3.80 -20.05 3.80 -20.30 0 -0.10 -0.50 -0.10 -1.10 0 -1.05 0.15 -1.25 0.90 -3 9.90 -2.20 11.50 -2.20 12 -0.95 12 0.65 0 1.05 -0.50 1.25 -1.60z m7.90 -0.40 c0.45 -2.10 2.40 -13.20 2.40 -13.70 0 -0.20 -0.50 -0.30 -1.10 -0.20 -0.95 0.15 -1.20 0.80 -2.20 6.40 -1.60 8.75 -1.65 9.65 -0.35 9.40 0.50 -0.10 1 -0.85 1.25 -1.90z m13.05 1.30 c0.40 -1 -0.05 -1.30 -1.95 -1.30 -2.45 0 -2.80 -1.10 -1.95 -5.80 1.25 -6.70 0.95 -6.20 3.70 -6.20 1.65 0 2.55 -0.25 2.70 -0.70 0.40 -1.05 -0.10 -1.30 -2.55 -1.30 l-2.20 0 0.35 -2 c0.30 -1.90 0.25 -2 -0.90 -2 -1.05 0 -1.25 0.30 -1.55 1.95 -0.25 1.55 -0.55 2 -1.40 2.15 -1.55 0.20 -1.85 1.90 -0.40 1.90 0.95 0 1.05 0.20 0.85 1.40 -1.70 9.55 -1.70 11.05 0.25 12 1.70 0.80 4.75 0.75 5.05 -0.10z m40.60 0.05 c2.35 -0.55 2.50 -0.70 2.65 -2.35 0.15 -1.65 0.15 -1.70 -0.75 -0.95 -0.50 0.45 -1.65 1.05 -2.60 1.40 -5.95 2 -9.90 -1.65 -8.55 -7.80 1.30 -5.65 5.05 -9.05 9.40 -8.45 1.25 0.15 2.80 0.65 3.40 1.05 1.55 1 1.70 0.95 1.70 -0.45 0 -2.05 -4.05 -3.15 -8.35 -2.30 -2.40 0.50 -3.25 1 -5 2.80 -5.75 5.95 -5.45 14.80 0.60 16.95 2.35 0.85 4.10 0.85 7.50 0.10z m9.65 -1.45 c0.30 -1.20 0.65 -3.15 0.85 -4.40 0.60 -3.55 1.75 -5.95 3.30 -6.75 1.85 -1 3.10 -0.95 4.50 0.20 l1.15 0.90 -0.85 4.70 c-0.50 2.60 -1 5.35 -1.15 6.10 -0.25 1.25 -0.15 1.40 0.85 1.25 1 -0.15 1.25 -0.70 2 -4.15 1.10 -4.85 1.15 -9.15 0.25 -10.40 -1.05 -1.35 -3.85 -1.60 -5.85 -0.60 -0.95 0.50 -1.85 1.15 -2.05 1.45 -0.75 1.15 -0.80 -0.15 -0.10 -3.70 0.90 -4.75 0.90 -4.60 -0.40 -4.40 -1.05 0.15 -1.25 0.85 -3 9.90 -2.20 11.55 -2.20 12 -0.95 12 0.70 0 1.05 -0.55 1.45 -2.10z m23.40 0.60 c1.35 -1.35 1.80 -1.25 1.40 0.25 -0.25 1.10 -0.15 1.25 0.95 1.25 1.30 0 1.35 -0.05 2.85 -9 0.60 -3.30 0.10 -4.95 -1.70 -6.05 -1.80 -1.10 -3.45 -1.20 -6.60 -0.40 -1.65 0.45 -2.20 0.80 -2.20 1.55 0 0.75 0.20 0.90 0.90 0.65 0.45 -0.20 2 -0.45 3.35 -0.60 2.10 -0.20 2.65 -0.10 3.40 0.75 1.80 1.95 0.95 2.80 -2.90 3.15 -1.95 0.15 -4.20 0.65 -5.05 1.10 -3.05 1.60 -3.55 6.55 -0.80 8.10 1.70 0.95 4.95 0.55 6.40 -0.75z m11.75 -3.25 c0.45 -2.45 1.10 -5.05 1.35 -5.75 1.10 -2.80 4.25 -4.20 6.35 -2.80 1.50 1 1.55 1.95 0.25 8.05 -0.50 2.45 -0.80 4.65 -0.70 4.85 0.15 0.25 0.65 0.40 1.15 0.40 0.70 0 1.05 -1.05 2 -5.90 0.60 -3.25 1 -6.45 0.80 -7.20 -0.20 -0.75 -1 -1.65 -2 -2.20 -1.45 -0.75 -1.95 -0.80 -3.65 -0.30 -1.10 0.35 -2.25 0.95 -2.60 1.35 -0.95 1.15 -1.65 0.90 -1.30 -0.55 0.30 -1.10 0.20 -1.25 -0.80 -1.10 -1.05 0.15 -1.25 0.70 -2.20 5.90 -1.95 10.25 -1.95 10.10 -0.65 9.90 1 -0.15 1.25 -0.70 2 -4.65z m42.25 4.20 c1.70 -0.45 2.20 -0.80 2.20 -1.55 0 -0.80 -0.20 -0.95 -1.10 -0.70 -4.60 1.40 -8.05 0.50 -8.60 -2.20 -0.60 -3.10 -0.80 -3 5.70 -3 l6 0 0 -2.40 c0 -2 -0.25 -2.65 -1.40 -3.80 -4.55 -4.30 -11.95 0.10 -12.45 7.40 -0.25 3.15 0.55 4.75 2.85 5.90 2.05 1.05 3.70 1.10 6.80 0.35z m-204.60 -19.25 c0.60 -1.55 0.35 -2.25 -0.80 -2.10 -1.55 0.20 -2 2.90 -0.50 2.90 0.55 0 1.15 -0.35 1.30 -0.80z m67.30 -0.50 c0.65 -1.70 0.65 -1.70 -0.70 -1.70 -1.15 0 -1.80 0.80 -1.80 2.30 0 1.25 2 0.80 2.50 -0.60z m-1014.60 -239.30 c-0.15 -1.50 -0.35 -1.65 -2.40 -2.05 -1.25 -0.20 -3.40 -0.60 -4.80 -0.90 l-2.55 -0.50 -0.25 -3.90 c-0.15 -2.50 -0.60 -4.60 -1.20 -5.85 -1.80 -3.50 -7.20 -5.25 -10.65 -3.45 -2.25 1.15 -3.05 3.50 -3.05 8.85 l0 4.70 11.35 2.15 c6.30 1.15 11.50 2.20 11.60 2.35 0.10 0.10 0.65 0.20 1.15 0.20 0.80 0 0.95 -0.30 0.80 -1.60z m-3.30 -19 c1.70 -0.60 3.40 -4.15 3.40 -6.90 0 -3.60 -1 -6.50 -2.40 -7.05 -0.70 -0.25 -1.30 -0.40 -1.40 -0.35 -0.05 0.10 0.20 1.40 0.60 2.90 1.35 5.15 0.55 8 -2.55 9 -3.15 1.05 -3.25 0.85 -3.25 -7 l0 -7 -2.80 0 c-5.20 0 -7.75 2.95 -7 8.10 0.45 2.95 1.80 5 4.50 6.90 3.40 2.30 7.20 2.80 10.90 1.40z m3.40 -20.80 c0 -1.35 -0.10 -1.40 -5.45 -2.40 -3 -0.60 -6.30 -1.50 -7.35 -2.05 -2.25 -1.15 -3.80 -3.80 -3.60 -6 0.20 -1.60 -0.30 -2.15 -1.90 -2.15 -0.45 0 -0.70 0.55 -0.70 1.50 0 1.75 1.40 5.50 2.05 5.50 0.25 0 0.45 0.25 0.45 0.50 0 0.30 -0.55 0.50 -1.25 0.50 -1 0 -1.25 0.25 -1.25 1.25 0 1.40 -0.55 1.25 9.50 3.20 9.50 1.90 9.50 1.90 9.50 0.15z m-0.10 -15.15 c-0.15 -1.05 -0.70 -1.25 -7.65 -2.55 -4.10 -0.75 -7.75 -1.50 -8.10 -1.60 -0.30 -0.15 -0.65 -1.35 -0.75 -2.65 -0.15 -2.05 -0.30 -2.40 -1.25 -2.55 -1.05 -0.15 -1.15 0.05 -1.15 2.10 0 2.05 -0.10 2.30 -1.15 2.30 -2 0 -2.95 -1.15 -3.20 -3.85 -0.20 -1.95 -0.50 -2.60 -1.20 -2.80 -0.50 -0.15 -1 -0.10 -1.15 0.05 -0.50 0.45 -0.25 4.25 0.35 6.10 0.65 1.80 3.05 3.45 5.20 3.50 0.85 0 1.10 0.35 1.25 1.65 0.10 1.20 0.40 1.65 1.30 1.75 0.90 0.15 1.10 -0.05 1.10 -1.15 0 -1.30 0.05 -1.35 2.40 -1 1.30 0.15 4.85 0.80 7.85 1.45 3.05 0.60 5.70 0.95 5.90 0.75 0.25 -0.20 0.35 -0.85 0.25 -1.50z m-3.50 -10.05 c1.95 -0.95 3.60 -3.70 3.60 -6 0 -5.65 -5.45 -10.40 -11.85 -10.40 -6.60 0 -9.20 6.45 -5.15 12.60 2.70 4.05 9.10 5.85 13.40 3.80z m3.50 -20.90 c-0.15 -1.05 -0.70 -1.25 -5.70 -2.25 -3.05 -0.65 -6.25 -1.50 -7.15 -1.95 -2.20 -1.15 -3.65 -3.60 -3.35 -5.65 0.25 -1.65 -0.60 -2.65 -2.25 -2.65 -0.95 0 -0.20 4.80 1.05 6.45 1.30 1.85 1.25 1.95 -0.25 1.65 -1.10 -0.20 -1.25 -0.05 -1.25 1.25 l0 1.45 6.40 1.15 c3.50 0.65 7.60 1.45 9.10 1.75 3.05 0.70 3.65 0.45 3.40 -1.20z m0.10 -13.45 c0 -1.45 0 -1.45 -5.35 -2.45 -6.70 -1.25 -8.90 -2.20 -10.15 -4.25 -1.20 -1.95 -1.25 -3.25 -0.20 -4.75 0.95 -1.40 2.35 -1.40 9.20 -0.10 6.70 1.30 6.60 1.30 6.40 -0.35 -0.15 -1.30 -0.35 -1.40 -6.50 -2.65 -4.75 -0.95 -6.70 -1.60 -7.60 -2.45 -2.65 -2.45 -2.90 -6.05 -0.55 -7.15 0.90 -0.40 2.55 -0.30 7.25 0.55 3.30 0.60 6.35 1.20 6.75 1.35 0.55 0.25 0.75 -0.10 0.75 -1.20 0 -1.70 -0.50 -1.90 -9.55 -3.40 -5.20 -0.90 -5.30 -0.85 -7 0.10 -2.95 1.75 -3.10 6.20 -0.30 9.50 l1.15 1.30 -1.70 1.70 c-1.60 1.60 -1.70 1.90 -1.45 4 0.10 1.25 0.70 2.95 1.30 3.75 1.35 1.85 1.30 2.15 -0.20 1.75 -1.10 -0.30 -1.25 -0.15 -1.25 1.10 0 1.65 0.05 1.65 11.50 3.85 8 1.50 7.50 1.50 7.50 -0.20z m-1.65 -32.65 c2.25 -2.10 1.95 -6.55 -0.55 -9.30 l-1.05 -1.20 1.50 0.20 c1.35 0.15 1.50 0 1.50 -1.30 l0 -1.50 -6.50 -1.20 c-7.40 -1.35 -9.30 -1.20 -10.95 1.05 -2.05 2.75 -1.05 11.35 1.30 11.35 0.85 0 0.90 -0.20 0.55 -1.85 -0.20 -1.05 -0.40 -3.20 -0.40 -4.80 0 -3.05 0.50 -3.85 2.55 -3.85 1 0 1.10 0.30 1.30 4.40 0.30 5 1.15 6.95 3.90 8.55 2.15 1.25 5.20 1 6.85 -0.55z m1.65 -20.40 c0 -0.80 -0.05 -1.50 -0.15 -1.50 -0.10 0 -2.55 -0.45 -5.50 -1 -6.40 -1.15 -8.90 -2.35 -10.05 -4.70 -1 -2.15 -1 -3.25 0 -4.70 1.10 -1.55 2.85 -1.45 14.80 1 0.40 0.10 0.65 -0.40 0.65 -1.35 l0 -1.50 -5.75 -1.10 c-8.10 -1.55 -9.75 -1.50 -11.55 0.30 -2.10 2.15 -1.80 6.15 0.75 9 l1.05 1.20 -1.65 -0.30 c-1.60 -0.35 -1.65 -0.30 -1.50 1.25 0.10 1.20 0.40 1.60 1.40 1.75 3.75 0.55 15.25 2.75 15.45 2.95 0.10 0.10 0.65 0.20 1.15 0.20 0.65 0 0.90 -0.40 0.90 -1.50z m-2.25 -21.50 c1.65 -1.55 2.40 -4.55 2 -7.75 -0.35 -3 -0.65 -3.50 -2.20 -4 -1.15 -0.35 -1.20 -0.30 -0.75 1.30 0.20 0.95 0.40 2.80 0.40 4.10 0.05 2.10 -0.15 2.65 -1.45 3.70 -1.25 1.10 -1.80 1.25 -4 1 -3.30 -0.35 -5.80 -1.85 -7.20 -4.40 -1.15 -2.05 -1.20 -3.85 -0.25 -7.30 0.25 -1 0.10 -1.15 -0.95 -1.15 -0.95 0 -1.40 0.35 -1.80 1.55 -1.80 5.15 0.85 10.75 6.20 13.30 3.40 1.60 8.10 1.45 10 -0.35z m-0.85 -18 c2.90 -1.75 3.65 -5.05 2.55 -10.65 -0.55 -2.70 -0.65 -2.85 -2.05 -2.85 -1.25 0 -1.45 0.15 -1.15 0.90 2.40 5.65 1 10.10 -3.35 10.75 l-1.90 0.30 0 -6.70 c0 -3.65 -0.10 -6.95 -0.25 -7.35 -0.35 -0.95 -4.70 -0.70 -6.70 0.30 -4.55 2.35 -3.50 11.05 1.70 14.30 3.65 2.25 8.40 2.65 11.15 1z m374.10 -328.25 c2.30 -1.60 3.10 -3.45 4.45 -10.50 1.70 -8.75 1.80 -9.75 0.85 -9.75 -0.45 0 -1.05 0.55 -1.30 1.25 l-0.45 1.25 -1.85 -1.25 c-2.15 -1.45 -2.20 -1.45 -4.55 -0.50 -2.55 1.10 -3.60 2.15 -4.70 4.65 -1.85 4.20 -0.90 8.85 1.95 10.05 1.40 0.60 2.50 0.40 6.30 -1.20 2.05 -0.85 -0.55 3.95 -2.75 5.15 -1.25 0.65 -4.50 0.60 -6.10 -0.15 -0.80 -0.30 -0.90 -0.20 -0.75 0.80 0.30 2.35 5.60 2.45 8.90 0.20z m-264.50 -5.55 c0.30 -0.70 0.50 -2 0.55 -2.85 0 -0.90 0.30 -2.40 0.65 -3.35 0.60 -1.65 0.65 -1.70 3.25 -1.55 3.10 0.15 6.55 -1.30 7.60 -3.30 0.40 -0.70 0.70 -2.40 0.70 -3.75 0 -3.75 -2 -4.90 -8.35 -4.90 -1.90 0 -3 0.20 -3.10 0.65 -0.20 0.55 -2.95 15.50 -3.55 19 -0.20 1.10 -0.05 1.35 0.75 1.35 0.65 0 1.20 -0.50 1.50 -1.30z m25.85 0.05 c1.60 -1.05 0.85 -2.15 -0.85 -1.25 -1.60 0.85 -5.85 0.35 -7 -0.80 -1.15 -1.20 -1.65 -3.20 -1.05 -4.15 0.35 -0.55 1.70 -0.70 6 -0.70 l5.50 0.10 0.30 -1.40 c0.85 -3.90 -3.25 -7.15 -7.55 -6 -4.10 1.15 -7.35 7.10 -6.25 11.30 0.75 2.80 3.35 4.30 6.95 3.95 1.50 -0.15 3.25 -0.60 3.95 -1.05z m8.70 -3.45 c0.50 -2.45 1.15 -5.10 1.50 -5.90 0.75 -1.85 2.95 -3.40 4.85 -3.40 0.80 0 1.60 -0.30 1.75 -0.70 0.70 -1.75 -2 -1.75 -4.05 -0.05 -1.80 1.50 -2 1.55 -2.20 0.15 -0.25 -1.60 -1.30 -1.65 -1.95 -0.05 -0.30 0.75 -0.95 3.90 -1.50 6.90 -0.50 3.05 -1.10 6 -1.20 6.65 -0.25 1 -0.10 1.15 0.80 1 0.95 -0.15 1.20 -0.75 2 -4.60z m12.70 -2.30 c1.50 -7.50 1.20 -7.05 4.50 -7.20 1.90 -0.10 1.10 -1.55 -0.90 -1.70 -1.85 -0.15 -1.90 -0.25 -1.60 -1.50 0.50 -2.05 1.20 -2.60 3.25 -2.60 1.20 0 2 -0.25 2.15 -0.70 0.40 -1.05 -1.15 -1.40 -3.65 -0.85 -2.30 0.50 -3.30 1.55 -3.80 3.90 -0.25 1.25 -0.60 1.65 -1.60 1.75 -1.60 0.20 -2.05 1.35 -0.65 1.75 1.30 0.35 1.35 1.15 0.05 7.65 -1.20 6.20 -1.25 6.50 -0.10 6.50 0.75 0 1.15 -1.10 2.35 -7z m13.30 6.50 c1.10 -0.30 2.65 -1.40 3.85 -2.70 1.65 -1.80 2.05 -2.65 2.35 -4.95 0.45 -3.50 -0.60 -5.90 -3.10 -7.10 -4.75 -2.25 -10.55 2.60 -10.60 8.90 -0.05 2 1.15 4.85 2 4.85 0.30 0 0.85 0.35 1.25 0.75 0.90 0.90 1.80 0.95 4.25 0.25z m11.15 0.10 c0.15 -0.25 0.75 -2.75 1.30 -5.65 1.25 -5.90 2.10 -7.10 5.85 -8.05 1.30 -0.30 2.15 -0.80 2.15 -1.25 0 -0.95 -2.75 -0.45 -4.60 0.90 -1.75 1.25 -1.90 1.20 -1.90 -0.30 0 -1.20 -1.15 -1.75 -1.70 -0.85 -0.30 0.50 -2.15 9.70 -2.60 13 -0.25 2.20 -0.20 2.60 0.45 2.60 0.45 0 0.90 -0.20 1.05 -0.40z m12.25 -3.45 c0.35 -2.15 0.85 -4.75 1.15 -5.80 1.20 -4 5.85 -5.80 7.30 -2.75 0.55 1.15 0.45 2.10 -0.40 6.20 -1.25 5.95 -1.25 6.20 -0.05 6.20 1 0 1.30 -0.90 2.35 -6.75 1 -5.65 4.45 -8.75 7.35 -6.55 0.95 0.70 1.15 3.85 0.40 5.90 -0.20 0.65 -0.55 2.55 -0.75 4.30 -0.30 2.85 -0.25 3.10 0.60 3.10 0.85 0 1.10 -0.70 1.80 -4.45 1.20 -6.75 1.10 -9 -0.55 -10.45 -1.05 -0.90 -1.75 -1.10 -2.85 -0.90 -1.35 0.30 -2.10 0.70 -4.60 2.55 -0.50 0.35 -0.90 0.15 -1.50 -0.65 -1.55 -2.25 -4.85 -2.35 -7.30 -0.25 -0.75 0.65 -0.85 0.60 -1 -0.45 -0.25 -1.80 -2 -1.55 -2.25 0.35 -0.10 0.85 -0.75 4.25 -1.45 7.55 -0.65 3.35 -1.20 6.20 -1.20 6.40 0 0.15 0.50 0.30 1.15 0.30 1.05 0 1.20 -0.35 1.80 -3.85z m31.30 3 c0.55 -0.15 1.45 -0.65 1.95 -1.10 0.90 -0.75 0.95 -0.75 0.70 0.60 -0.20 1.05 -0.05 1.35 0.65 1.35 1.30 0 1.70 -1.05 2.70 -6.90 0.90 -5.10 0.90 -5.15 -0.10 -6.50 -1.50 -2 -3.05 -2.65 -5.60 -2.30 -2.80 0.35 -4.55 1.15 -4.55 2.10 0 0.50 0.25 0.60 0.90 0.30 1.50 -0.65 5.45 -0.80 6.55 -0.25 0.70 0.40 1.05 1.05 1.05 2.05 0 1.50 -0.05 1.50 -2.85 1.55 -3.70 0.05 -4.70 0.40 -6.60 2.10 -1.20 1.05 -1.55 1.75 -1.55 3.25 0 2.10 0.25 2.55 1.95 3.75 1.15 0.80 1.80 0.80 4.80 0z m12.70 -3 c0.95 -5.95 1.60 -7.60 3.25 -8.90 1.75 -1.30 3.05 -1.60 4.65 -1.05 1.45 0.50 1.60 2.10 0.55 7.30 -1.15 5.60 -1.15 6.50 0.05 6.50 0.75 0 1.05 -0.65 1.50 -3.10 0.35 -1.75 0.85 -4.10 1.10 -5.25 0.25 -1.15 0.45 -2.60 0.45 -3.15 0 -1.65 -1.80 -3.85 -3.35 -4.15 -1.50 -0.30 -5.15 0.95 -5.15 1.75 0 0.25 -0.30 0.40 -0.60 0.25 -0.35 -0.10 -0.65 -0.60 -0.65 -1.15 0 -1.10 -1.65 -1.60 -1.95 -0.60 -0.10 0.35 -0.70 3.50 -1.30 7 -0.60 3.55 -1.20 6.85 -1.35 7.40 -0.20 0.80 0 1 0.95 1 1.10 0 1.25 -0.30 1.85 -3.85z m23.60 3.30 c1.05 -0.35 2 -0.90 2.15 -1.30 0.25 -0.55 -0.30 -0.60 -2.90 -0.35 -3.05 0.30 -3.30 0.25 -4.55 -1 -1.20 -1.25 -1.30 -1.60 -1 -3.70 0.85 -5.70 5.15 -8.45 9.90 -6.35 0.80 0.30 0.90 0.20 0.75 -0.80 -0.10 -0.90 -0.60 -1.25 -2.10 -1.60 -6.25 -1.50 -13.05 6.95 -10.15 12.65 0.65 1.30 3.40 2.95 5.05 3 0.50 0 1.80 -0.25 2.85 -0.55z m17.60 -0.40 c0.85 -0.35 1.35 -0.90 1.35 -1.50 0 -0.90 -0.10 -0.95 -1.35 -0.25 -1.80 0.90 -5.30 0.90 -7.15 -0.05 -1.30 -0.70 -1.50 -1.05 -1.50 -3 l0 -2.20 5.90 -0.15 5.85 -0.15 0.15 -2 c0.10 -1.70 -0.10 -2.25 -1.35 -3.55 -3.40 -3.45 -8.50 -2.20 -11.50 2.80 -1.40 2.30 -1.50 7.45 -0.15 8.65 2.60 2.35 5.95 2.85 9.75 1.40z m26.05 0.35 c2.30 -0.45 3 -0.80 3.35 -1.75 0.25 -0.65 0.45 -1.30 0.45 -1.40 0 -0.10 -0.95 0.25 -2.10 0.75 -1.20 0.55 -3.20 1 -4.50 1 -1.95 0 -2.70 -0.30 -4 -1.45 -1.55 -1.35 -1.65 -1.70 -1.60 -4.50 0.05 -3.50 2.05 -8.05 4.25 -9.70 2.05 -1.45 5.35 -1.65 8.15 -0.45 l2.30 1.05 0 -1.10 c0 -1.50 -2.55 -2.60 -6.05 -2.60 -3.85 0.05 -7.10 2.05 -9.30 5.75 -1.50 2.45 -1.65 3.10 -1.65 6.60 0 3.85 0 3.90 1.95 5.85 1.30 1.30 2.55 2.05 3.65 2.20 0.90 0.10 1.80 0.25 1.95 0.25 0.15 0.05 1.60 -0.15 3.15 -0.50z m10.70 -2 c0.30 -1.45 0.80 -3.90 1.10 -5.40 0.60 -3 1.10 -3.85 3 -5.15 1.60 -1.15 3.65 -1.10 4.70 0.10 0.85 0.95 0.85 1.25 0.05 6.15 -0.45 2.85 -0.95 5.55 -1.10 6.05 -0.20 0.75 0 0.90 0.90 0.75 1 -0.15 1.25 -0.65 2 -4.40 0.50 -2.35 0.90 -5.40 0.90 -6.85 0.05 -2.25 -0.15 -2.70 -1.30 -3.65 -1.70 -1.30 -4.70 -0.95 -6.60 0.80 -0.70 0.65 -1.30 1.10 -1.40 1 -0.10 -0.10 0.15 -1.90 0.60 -4.05 0.75 -4 0.70 -4.75 -0.50 -4.75 -0.90 0 -0.95 0.25 -2.80 10.25 -2.30 12.20 -2.25 11.75 -1.10 11.75 0.80 0 1.10 -0.55 1.55 -2.60z m22.80 1.40 l2.40 -1.20 -0.35 1.25 c-0.25 1.05 -0.15 1.20 0.85 1.05 0.95 -0.10 1.25 -0.65 1.80 -3.15 1.65 -7.65 1.40 -10.25 -1.05 -11.80 -1.25 -0.80 -2.10 -0.95 -4 -0.70 -2.45 0.30 -4.35 1.15 -4.35 1.90 0 0.25 1.10 0.30 2.50 0.10 3.35 -0.45 5.25 0.05 5.95 1.55 0.80 1.85 0.35 2.20 -2.90 2.20 -4.85 0 -7.45 1.60 -8.30 5.15 -0.60 2.25 1.60 4.70 4.30 4.80 0.40 0.05 1.85 -0.50 3.15 -1.15z m11.55 0.10 c0.10 -0.65 0.60 -2.95 1 -5.10 0.45 -2.20 1.15 -4.60 1.60 -5.35 2 -3.35 7.15 -3.20 7.15 0.20 0 1.25 -1.35 9 -1.80 10.45 -0.25 0.80 -0.10 0.95 0.90 0.80 1 -0.15 1.25 -0.60 1.95 -3.95 1.55 -7.30 1.55 -8.50 0.20 -10.20 -1 -1.25 -1.55 -1.45 -3.30 -1.45 -1.20 0.05 -2.60 0.50 -3.45 1.15 -1.85 1.35 -2 1.30 -2 -0.25 0 -0.90 -0.25 -1.25 -0.85 -1.10 -0.60 0.10 -1 1.10 -1.45 3.40 -0.35 1.80 -0.95 5.10 -1.40 7.40 -0.45 2.30 -0.70 4.40 -0.55 4.65 0.55 0.85 1.75 0.45 2 -0.65z m44.40 0 c0.45 -0.25 0.85 -0.80 0.85 -1.20 0 -0.55 -0.25 -0.70 -0.85 -0.45 -0.50 0.20 -2.10 0.50 -3.55 0.70 -2.20 0.35 -2.85 0.25 -3.85 -0.55 -1.35 -1.05 -2.20 -4.15 -1.35 -5 0.30 -0.30 2.75 -0.50 6.05 -0.45 l5.55 0.10 0 -2.50 c0 -2.10 -0.20 -2.65 -1.50 -3.70 -2.15 -1.85 -4.05 -2.10 -6.60 -0.95 -3.85 1.75 -5.90 5 -5.90 9.30 0.05 3.70 3.25 6 7.75 5.45 1.40 -0.15 2.90 -0.45 3.40 -0.75z m58.35 -51.45 c2.10 -1.20 4.10 -3.70 5 -6.20 0.60 -1.80 4 -19 4 -20.30 0 -0.70 -0.35 -0.95 -1.45 -0.95 -1.25 0 -1.50 0.25 -1.80 1.60 l-0.35 1.60 -1.10 -1.20 c-5.45 -6.30 -15.90 0.75 -16 10.75 -0.05 4.10 0.80 6 3.40 7.25 1.15 0.55 2.75 1 3.45 1 1.65 0 4.70 -1.20 5.95 -2.35 1.25 -1.10 1.45 -0.70 0.85 1.60 -1.30 4.60 -6.80 7 -11.90 5.20 -1.85 -0.65 -1.85 -0.65 -2.30 1.10 -0.30 1.15 -0.10 1.35 1.35 1.85 2.60 0.90 8.50 0.40 10.90 -0.95z m126.30 -0.50 c1 -0.95 3.05 -3.85 4.60 -6.45 1.50 -2.60 3.85 -6.45 5.10 -8.50 2.95 -4.75 7 -11.55 7 -11.80 0 -0.10 -0.75 -0.20 -1.65 -0.20 -1.65 0 -1.80 0.20 -6.50 8.10 -2.85 4.75 -4.90 7.80 -5.10 7.35 -0.25 -0.65 -1.55 -6.50 -2.85 -12.80 -0.50 -2.55 -0.60 -2.65 -2.20 -2.65 -1.05 0 -1.70 0.25 -1.70 0.65 0 0.35 1 4.90 2.25 10.10 l2.25 9.40 -1.10 1.80 c-1.90 3.20 -2.90 4.05 -4.95 4.05 -1.45 0 -1.90 0.20 -2.10 1.10 -0.45 1.70 0.10 2.05 2.75 1.80 1.95 -0.20 2.85 -0.60 4.20 -1.95z m-476.25 -5.95 c1 -0.30 2.65 -1.05 3.60 -1.75 l1.80 -1.20 -0.30 1.50 c-0.30 1.50 -0.25 1.50 1.40 1.35 l1.70 -0.15 0.85 -4.25 c0.50 -2.35 1.30 -6.60 1.85 -9.50 0.50 -2.90 1.05 -5.60 1.10 -6 0.15 -0.55 -0.25 -0.75 -1.50 -0.75 l-1.70 0 -1.35 6.90 c-1.10 5.25 -1.70 7.25 -2.70 8.60 -1.55 2 -4.35 3.05 -7 2.55 -2.90 -0.55 -3.10 -1.75 -1.55 -9.50 0.70 -3.60 1.40 -7.05 1.60 -7.65 0.25 -1.05 0.05 -1.15 -1.45 -1.15 l-1.70 0 -1.35 6.65 c-2.05 10.15 -1.75 12.55 1.85 14.15 1.90 0.80 2.55 0.85 4.85 0.20z m27.65 -0.75 c2.15 -1.05 3.60 -2.90 4.05 -5.30 0.50 -2.55 -0.95 -4.10 -5.15 -5.45 -4.35 -1.45 -5.60 -2.25 -5.60 -3.70 0 -2.65 4.50 -4.05 9.30 -2.85 1.30 0.35 2.40 0.55 2.45 0.45 0.10 -0.10 0.30 -0.75 0.50 -1.45 0.35 -1.30 0.25 -1.35 -3.20 -2 -2.80 -0.45 -4.15 -0.50 -6.10 -0.05 -3.40 0.80 -5.90 3.20 -6.30 6 -0.25 1.85 -0.10 2.25 1.30 3.55 1.05 1 2.50 1.70 4.30 2.05 3 0.60 5.25 2.10 5.25 3.45 0 2.95 -5.75 4.45 -10.45 2.75 -1.40 -0.50 -2.65 -0.80 -2.75 -0.65 -0.10 0.10 -0.30 0.90 -0.40 1.70 -0.15 1.45 -0.05 1.50 2.60 2.10 3.50 0.75 7.85 0.50 10.20 -0.60z m48.50 0.65 c1.10 -0.30 2.60 -1.10 3.35 -1.75 1.65 -1.50 1.80 -1.45 1.55 0.40 -0.20 1.45 -0.15 1.50 1.45 1.35 l1.65 -0.15 1.40 -7.60 c1.70 -9.30 1.50 -10.75 -2.10 -12.50 -2.45 -1.25 -4.70 -1.40 -8.95 -0.50 -2.40 0.50 -2.80 0.80 -3.10 2.05 l-0.40 1.40 1.85 -0.40 c1 -0.25 3.45 -0.45 5.45 -0.45 3 0 3.75 0.15 4.35 1 0.45 0.55 0.75 1.45 0.65 2 -0.10 0.90 -0.60 1.05 -4.10 1.30 -5.80 0.40 -7.85 1.15 -10 3.50 -1.80 2 -1.85 2.20 -1.65 5 0.20 2.45 0.40 3.10 1.65 4.05 2.55 2.05 3.65 2.25 6.95 1.30z m52.85 0 c2.30 -0.80 5.65 -4.05 6.85 -6.60 2.15 -4.60 1.85 -9.95 -0.75 -12.40 -5.30 -4.90 -14.60 -1.45 -16.90 6.30 -1 3.40 -0.95 7.20 0.15 9.30 1.70 3.25 6.60 4.80 10.65 3.40z m61.90 -0.60 c0.50 -0.45 1.10 -0.80 1.35 -0.80 0.85 0 3 -2.60 4.20 -5 1.35 -2.70 1.85 -7.65 1 -10.20 -0.70 -2.20 -3.55 -4.25 -6.35 -4.65 -6.60 -0.90 -12.85 5.50 -12.85 13.10 0 4.75 1.35 6.80 5.45 8.35 1.55 0.55 6.25 0.05 7.20 -0.80z m53.25 0.20 c2.50 -0.75 7.20 -5.40 8.70 -8.65 5.25 -11.25 -0.05 -21.30 -10.55 -20.10 -1.65 0.15 -3.90 0.75 -5 1.30 -6.35 3.25 -10.80 12.35 -9.40 19.30 0.95 4.70 3.15 7.25 7.55 8.70 1.50 0.50 6.05 0.20 8.70 -0.55z m81.60 0.45 c3 -0.80 6.30 -4 7.40 -7.25 1.95 -5.95 1.50 -9.55 -1.45 -12.15 -2.15 -1.90 -4.60 -2.35 -8.15 -1.55 -5.20 1.15 -9.10 6.60 -9.10 12.75 0 3.50 0.75 5.45 2.70 6.90 2.45 1.90 4.80 2.25 8.60 1.30z m48.50 -0.20 c4.80 -1.40 8.25 -6.75 8.35 -12.85 0.10 -9.40 -11.75 -11.35 -17.50 -2.90 -1.50 2.15 -2.15 4.60 -2.15 8.15 0 6.65 4.45 9.65 11.30 7.60z m45.75 0.20 c0.95 -0.35 2.25 -1.10 3 -1.75 1.65 -1.55 1.80 -1.50 1.55 0.35 -0.20 1.45 -0.15 1.50 1.45 1.35 l1.70 -0.15 1.40 -7 c0.90 -4.60 1.30 -7.70 1.10 -9.10 -0.60 -4.10 -4.75 -5.85 -10.90 -4.65 -3.50 0.65 -4.35 1.20 -4.35 2.60 0 0.85 0.25 0.95 1.40 0.70 0.75 -0.20 2.80 -0.45 4.60 -0.60 4.05 -0.30 5.70 0.40 5.90 2.60 l0.15 1.55 -4.65 0.30 c-7.95 0.45 -11.40 2.90 -11.40 8 0 2.80 0.55 3.85 2.70 5.10 2.25 1.35 3.80 1.55 6.35 0.70z m148.30 -0.70 c4 -1.65 6.15 -4.95 6.15 -9.35 0 -2.70 -2.40 -5.05 -6.25 -6.15 -5.45 -1.50 -6.45 -2 -7.20 -3.50 -0.60 -1.30 -0.60 -1.65 0.25 -3.25 1.80 -3.35 6.70 -4.45 11.65 -2.55 1.40 0.50 2.60 0.80 2.75 0.65 0.20 -0.15 0.30 -1 0.30 -1.90 0 -1.55 -0.05 -1.60 -3.15 -2.15 -3.95 -0.70 -5.60 -0.70 -8.05 0 -3.10 0.85 -5.70 2.75 -6.85 5.05 -1.30 2.55 -1.40 4.70 -0.30 7 0.80 1.65 1.20 1.90 5.95 3.40 2.75 0.90 5.45 2.05 6 2.60 1.95 1.95 0.45 6.05 -2.85 7.65 -2.40 1.10 -7.05 0.85 -10.35 -0.65 l-2.30 -1 -0.30 1.05 c-0.50 1.80 -0.35 2.30 0.75 2.90 2.90 1.55 10.30 1.65 13.80 0.20z m22.55 0.60 c4.85 -1.45 8.05 -6.10 8.45 -12.25 0.30 -4.25 -0.75 -6.35 -3.90 -8 -2.80 -1.50 -6.50 -1.25 -9.70 0.60 -2.60 1.55 -4 3.40 -5.30 7.05 -2.15 6.15 -0.60 10.70 4.30 12.60 2 0.75 3.55 0.75 6.15 0z m81.85 0.10 c1.10 -0.30 2.10 -0.70 2.25 -0.90 0.15 -0.15 0.80 -0.75 1.45 -1.30 l1.15 -1 -0.15 1.50 c-0.20 1.35 -0.05 1.50 1.45 1.65 0.85 0.10 1.60 0.05 1.60 -0.15 0 -0.15 0.55 -3.10 1.25 -6.55 2 -10.05 1.65 -12.35 -2.30 -13.90 -2.35 -0.95 -4.30 -1 -8.15 -0.20 -2.30 0.45 -2.95 0.80 -3.35 1.75 -0.70 1.85 -0.20 2.10 2.15 1.30 2.80 -0.95 7.50 -0.65 8.90 0.60 0.55 0.50 1 1.40 1 2 0 1.05 -0.25 1.10 -4.90 1.40 -3.65 0.20 -5.50 0.50 -7.05 1.30 -5.20 2.70 -5.85 9.80 -1.05 12.15 2.05 1.05 3 1.10 5.75 0.35z m46.85 -0.85 c0.90 -0.50 1.40 -1.25 1.40 -1.95 0 -1.35 0.15 -1.35 -2.50 -0.40 -2.75 0.95 -6.65 0.95 -8.50 0 -1.75 -0.90 -3 -3.10 -3 -5.25 l0 -1.50 8.25 0 8.25 0 0.30 -1.30 c0.50 -1.90 -0.05 -5.50 -1.05 -7 -1.30 -2.05 -4.90 -3.40 -7.90 -3 -6.45 0.90 -10.95 6.20 -11 13.05 -0.05 4.50 1.65 7 5.60 8.30 1.95 0.65 8.55 0 10.15 -0.95z m-758.10 0.45 c0 -0.20 1.15 -6.30 2.50 -13.50 1.40 -7.20 2.50 -13.55 2.50 -14.05 0 -0.80 -0.35 -1 -1.70 -1 l-1.65 0 -1.15 5.90 c-0.60 3.20 -1.75 9.20 -2.55 13.30 -1.90 9.80 -1.90 9.80 0.30 9.80 0.95 0 1.75 -0.20 1.75 -0.45z m11.50 0 c0 -0.50 4.90 -26.65 5.35 -28.40 0.25 -1.05 0.05 -1.15 -1.45 -1.15 l-1.70 0 -2.70 13.90 c-1.45 7.60 -2.75 14.35 -2.90 15 -0.20 1 0 1.10 1.60 1.10 1 0 1.80 -0.20 1.80 -0.45z m10.85 -1.05 c0.10 -0.70 1.30 -7 2.65 -14 1.40 -7.05 2.50 -13.15 2.50 -13.65 0 -0.60 -0.40 -0.85 -1.50 -0.85 -0.85 0 -1.60 0.30 -1.70 0.65 -0.35 1.15 -5.30 28.10 -5.30 28.75 0 0.45 0.55 0.60 1.60 0.50 1.20 -0.10 1.60 -0.40 1.75 -1.40z m63.05 -0.10 c0.15 -1.35 0.10 -1.40 -2.10 -1.40 -4.40 0 -4.50 -0.40 -2.70 -9.35 l1.15 -5.65 3.60 0 3.65 0 0 -1.50 0 -1.50 -3.25 0 -3.30 0 0.35 -3.25 0.35 -3.25 -1.55 0 c-1.60 0 -1.60 -0.05 -2.40 4.60 -0.25 1.60 -0.50 1.85 -1.90 2 -1.25 0.10 -1.60 0.40 -1.70 1.50 -0.15 1.15 0.05 1.35 1.30 1.50 l1.45 0.15 -1.15 5.50 c-1.50 7.20 -1.55 9.25 -0.05 10.60 1.35 1.30 2.45 1.60 5.60 1.50 2.35 -0.10 2.50 -0.20 2.65 -1.45z m8.55 -4 c1.85 -9.50 4.30 -12.90 9.15 -12.90 1.95 0 2.40 -0.20 2.65 -1.05 0.20 -0.60 0.10 -1.30 -0.15 -1.55 -0.80 -0.80 -4.80 0 -6.85 1.40 -2.25 1.50 -2.35 1.50 -1.95 -0.05 0.30 -1.15 0.15 -1.25 -1.40 -1.25 l-1.70 0 -1.85 9.40 c-1 5.15 -2 9.85 -2.15 10.50 -0.30 1 -0.15 1.10 1.40 1.10 l1.75 0 1.10 -5.60z m46.75 4.50 c0.45 -1.85 0.40 -1.90 -1.80 -1.90 -3.75 0 -4.40 -0.40 -4.35 -2.45 0 -1 0.50 -4.15 1.15 -7.05 l1.10 -5.25 3.55 -0.15 c3.30 -0.15 3.55 -0.20 3.75 -1.35 0.15 -0.70 0.15 -1.35 0 -1.50 -0.15 -0.15 -1.70 -0.25 -3.50 -0.25 l-3.20 0 0.40 -2.10 c0.65 -3.85 0.60 -4.15 -1 -4.15 -1.55 0 -1.95 0.75 -2.45 4.50 -0.15 1.25 -0.40 1.50 -1.75 1.65 -0.95 0.10 -1.60 0.45 -1.60 0.85 0 0.35 -0.15 1 -0.30 1.45 -0.25 0.65 0.05 0.80 1.30 0.80 1.40 0 1.60 0.15 1.35 1.15 -3.55 14.85 -3.05 16.55 4.70 16.80 2.05 0.05 2.35 -0.10 2.65 -1.05z m8 -2.50 c1.60 -7.50 3.30 -16.05 3.30 -16.75 0 -0.50 -0.45 -0.65 -1.60 -0.55 l-1.65 0.15 -1.85 9.50 c-1 5.25 -1.85 9.90 -1.90 10.40 0 0.60 0.40 0.85 1.45 0.85 1.45 0 1.50 -0.15 2.25 -3.60z m35.15 -2.65 c1.65 -8.75 3 -11.05 6.80 -12 1.90 -0.50 4.85 0.15 4.85 1 0 0.40 0.25 0.75 0.50 0.75 0.60 0 0.35 1.80 -1.30 10.20 -0.65 3.25 -1.20 6 -1.20 6.10 0 0.10 0.75 0.20 1.70 0.20 l1.65 0 1.35 -6.60 c1.70 -8.55 1.70 -11.30 0.10 -13.05 -2.20 -2.40 -7.15 -2.20 -10.65 0.45 l-1.65 1.25 0.35 -1.55 c0.30 -1.55 0.25 -1.55 -1.40 -1.40 -1.95 0.20 -1.75 -0.45 -3.95 11.15 -1.90 10.10 -1.90 9.85 0.10 9.65 l1.60 -0.15 1.15 -6z m62.55 -2.85 l1.75 -8.90 2.85 0 c2.65 0 2.90 -0.10 3.10 -1.25 0.35 -1.65 0.15 -1.75 -2.70 -1.75 -2.25 0 -2.40 -0.10 -2.40 -1.25 0 -1.90 1.35 -4.20 2.65 -4.50 0.60 -0.10 2 -0.30 3.10 -0.35 1.75 -0.15 2 -0.30 2.15 -1.50 0.15 -1.35 0.10 -1.40 -2.20 -1.40 -3.30 0 -6.15 0.95 -7.10 2.40 -0.45 0.65 -1.20 2.40 -1.65 3.80 -0.75 2.25 -1.05 2.55 -2.40 2.70 -0.85 0.10 -1.55 0.30 -1.55 0.50 0 0.20 -0.15 0.85 -0.30 1.50 -0.30 1 -0.15 1.10 1.45 1.10 l1.70 0 -1.65 8.15 c-2.10 10.20 -2.10 9.95 -0.10 9.75 l1.60 -0.15 1.70 -8.85z m53.95 6.35 c0.30 -1.35 1.05 -4.45 1.60 -6.90 1.45 -6.30 3.80 -8.85 8.20 -8.85 1.85 0 2.30 -0.20 2.50 -1.10 0.40 -1.50 0.05 -1.90 -1.70 -1.90 -1.90 0 -4.85 1.25 -6.40 2.65 l-1.15 1.10 0.35 -1.60 c0.30 -1.60 0.30 -1.65 -1.35 -1.65 l-1.65 0 -2.05 10.25 c-1.10 5.65 -1.90 10.35 -1.75 10.50 0.15 0.15 0.85 0.25 1.55 0.15 1.05 -0.15 1.35 -0.55 1.85 -2.65z m23.35 1.65 c0.45 -1.85 0.40 -1.90 -2.40 -1.90 -3.70 0 -4.05 -0.55 -3.30 -4.85 0.30 -1.90 0.90 -4.90 1.30 -6.75 l0.80 -3.40 3.40 0 c3.05 0 3.40 -0.10 3.65 -1.10 0.45 -1.65 0.05 -1.90 -3.50 -1.90 -3.15 0 -3.25 -0.05 -3 -1.10 0.20 -0.65 0.45 -2.10 0.65 -3.30 l0.35 -2.15 -1.70 0.15 c-1.65 0.15 -1.70 0.20 -2.20 3.15 -0.50 2.90 -0.60 3 -2.15 3.15 -0.95 0.10 -1.60 0.45 -1.60 0.85 0 0.35 -0.15 1 -0.30 1.45 -0.25 0.65 0.05 0.80 1.25 0.80 0.85 0 1.55 0.20 1.55 0.45 0 0.25 -0.55 3.05 -1.25 6.25 -1.30 6.35 -1.20 8.60 0.45 9.80 1.65 1.20 2.40 1.45 5.10 1.45 2.25 0.05 2.60 -0.10 2.90 -1.05z m8.70 -5.10 c0.65 -3.40 1.60 -7.05 2.15 -8.15 1.20 -2.45 3.70 -4.15 6.15 -4.15 4.35 0 4.80 1.50 3.05 10 -1.65 8.15 -1.65 8.50 0.20 8.50 1.40 0 1.50 -0.15 2.25 -3.60 2.20 -9.90 2.45 -13.65 1.05 -15.90 -0.50 -0.85 -3.45 -2 -5.10 -2 -1.55 0 -5.65 1.85 -6.50 2.95 -0.55 0.70 -0.60 0.60 -0.65 -0.55 0 -1.15 0.80 -5.75 1.75 -9.75 0.25 -1.05 0.10 -1.15 -1.50 -1.15 -0.95 0 -1.75 0.10 -1.75 0.20 0 0.10 -0.25 1.40 -0.50 2.85 -0.30 1.50 -1.45 7.40 -2.55 13.20 -1.05 5.75 -2.15 11.20 -2.40 12.10 -0.45 1.65 -0.45 1.65 1.35 1.65 l1.85 0 1.15 -6.20z m95.55 5.10 c0.25 -0.65 0.90 -3.60 1.50 -6.65 0.65 -3 1.50 -6.15 2 -7 1.85 -3.25 6.40 -4.75 8.95 -2.95 1.45 1 1.45 2.90 -0.15 10.70 -0.70 3.40 -1.25 6.35 -1.25 6.55 0 0.60 2.85 0.60 3.20 0 0.45 -0.70 2.80 -13.85 2.80 -15.60 0 -3.90 -3.55 -6.20 -7.90 -5 -1.30 0.35 -3.10 1.20 -4 1.90 l-1.70 1.30 0.35 -1.60 c0.30 -1.45 0.25 -1.55 -1.20 -1.55 -0.80 0 -1.65 0.20 -1.80 0.50 -0.45 0.75 -4.10 20 -3.85 20.25 0.75 0.70 2.65 0.15 3.05 -0.85z m48.85 -0.75 c0.15 -1.05 1.30 -7.05 2.55 -13.40 3.25 -16.75 3.10 -14.85 1.10 -14.65 l-1.70 0.15 -2.10 11 c-1.20 6.05 -2.45 12.60 -2.80 14.60 -0.40 2 -0.60 3.75 -0.45 3.90 0.15 0.15 0.90 0.25 1.65 0.25 1.25 0 1.45 -0.25 1.75 -1.85z m12.30 -7.65 c2.35 -11.80 2.35 -11.60 0.30 -11.40 -1.50 0.15 -1.65 0.35 -2.05 2.40 -0.20 1.25 -1.05 5.65 -1.85 9.85 -0.85 4.20 -1.50 7.85 -1.50 8.15 0 0.35 0.65 0.50 1.60 0.40 l1.65 -0.15 1.85 -9.25z m16.15 9.10 c0.30 -0.20 0.55 -0.85 0.65 -1.45 0.15 -1.05 -0.05 -1.15 -2.25 -1.15 -1.35 0 -2.90 -0.30 -3.40 -0.70 -0.90 -0.65 -0.90 -0.90 -0.30 -4.10 0.35 -1.90 0.95 -4.95 1.35 -6.80 l0.80 -3.40 3.40 0 c2.65 0 3.45 -0.20 3.70 -0.80 0.75 -1.95 0.40 -2.20 -3.25 -2.20 -3.45 0 -3.55 -0.05 -3.25 -1.10 0.15 -0.65 0.45 -2.10 0.65 -3.30 l0.30 -2.15 -1.70 0.15 c-1.65 0.15 -1.70 0.25 -2.20 3.15 -0.50 2.90 -0.55 3 -2.10 3.15 -1.45 0.15 -1.65 0.35 -1.65 1.65 0 1.20 0.20 1.45 1.25 1.45 1.50 0 1.50 -0.30 0.20 5.80 -1.50 7.05 -1.45 9.55 0.10 10.75 0.65 0.50 1.65 1 2.20 1.10 1.75 0.35 5 0.35 5.50 -0.05z m43.45 -0.20 c0.30 -1 3.85 -19.60 3.80 -20.05 0 -0.25 -0.75 -0.35 -1.60 -0.25 l-1.65 0.15 -1.85 9.25 c-2.30 11.70 -2.30 11.50 -0.40 11.50 0.85 0 1.60 -0.30 1.70 -0.60z m11.80 -5.70 c1.70 -8.05 2.60 -9.90 5.25 -11.20 2.65 -1.30 4.95 -1.30 6.25 0 1.30 1.30 1.25 2.50 -0.25 9.75 -1.60 7.70 -1.60 7.75 0.20 7.75 1.70 0 1.60 0.20 3 -6.75 1.65 -8.25 1.75 -9.90 0.80 -11.70 -0.80 -1.60 -3.25 -3.05 -5.10 -3.05 -1.85 0 -4.65 1.10 -6.20 2.35 l-1.55 1.30 0.20 -1.45 c0.15 -1.30 0 -1.45 -1.45 -1.60 -0.90 -0.10 -1.65 -0.10 -1.65 0 0 0.10 -0.90 4.70 -2 10.30 -1.10 5.55 -2 10.25 -2 10.40 0 0.15 0.75 0.20 1.60 0.10 l1.65 -0.15 1.25 -6.05z m85.85 4.80 c0.25 -2 3.20 -16.20 3.35 -16.35 0.25 -0.25 8.80 -0.30 9.05 -0.05 0.10 0.10 -0.35 3 -1.05 6.40 -1.90 9.35 -1.25 10.95 4.70 11.40 3.40 0.20 3.45 0.20 3.70 -1.10 0.30 -1.40 -0.15 -1.65 -3.55 -1.90 -2.75 -0.25 -2.90 -1 -1.50 -8.35 l1.20 -6.55 3.35 0 c2.85 0 3.45 -0.15 3.90 -1 0.85 -1.60 0.20 -2 -3.35 -2 l-3.25 0 0.30 -1.85 c0.20 -1.05 0.45 -2.55 0.60 -3.30 0.30 -1.35 0.20 -1.40 -1.40 -1.25 -1.60 0.15 -1.65 0.25 -2.20 3.05 -0.35 1.60 -0.70 3.05 -0.90 3.20 -0.15 0.15 -2.25 0.30 -4.65 0.30 l-4.40 0 0.15 -1.70 c0.10 -0.95 0.55 -2.25 1.05 -2.95 0.75 -1.05 1.40 -1.30 3.65 -1.40 2.55 -0.15 2.80 -0.25 3.05 -1.40 0.15 -0.85 -0.05 -1.40 -0.50 -1.55 -1.25 -0.50 -6.15 0.25 -7.50 1.10 -1.40 0.95 -3.10 4.35 -3.15 6.35 0 1.20 -0.20 1.35 -1.85 1.50 -1.65 0.15 -1.90 0.35 -2.05 1.55 -0.15 1.20 0 1.35 1.35 1.35 0.90 0 1.55 0.25 1.55 0.65 0 0.30 -0.75 4.25 -1.70 8.70 -0.90 4.50 -1.50 8.25 -1.35 8.40 0.15 0.15 0.95 0.25 1.75 0.15 1.10 -0.10 1.50 -0.45 1.65 -1.40z m31 1.10 c0.30 -0.20 1.95 -3.35 3.60 -7 5.20 -11.35 4.70 -11.25 5.30 -1.35 l0.50 8.50 2.25 0 c1.25 0 2.25 -0.20 2.30 -0.50 0.05 -0.65 3.25 -7.65 7.65 -16.70 0.85 -1.80 1.55 -3.30 1.55 -3.40 0 -0.10 -0.80 -0.15 -1.75 -0.05 -1.95 0.15 -1.70 -0.30 -7.15 12.40 -1.30 2.95 -1.90 3.90 -2 3.15 -0.10 -0.60 -0.45 -4.30 -0.75 -8.25 l-0.60 -7.15 -1.90 -0.15 -1.90 -0.15 -3.40 7.15 c-1.90 3.95 -3.60 7.70 -3.80 8.40 -0.40 1.20 -0.40 1.20 -0.80 0.25 -0.20 -0.55 -0.40 -2.45 -0.40 -4.25 -0.05 -1.80 -0.20 -5.10 -0.40 -7.35 l-0.30 -4.15 -1.70 0 -1.70 0 0.25 2.65 c0.35 2.75 1.30 16 1.30 17.50 0 0.65 0.40 0.85 1.65 0.85 0.85 0 1.85 -0.20 2.20 -0.40z m53.10 -6.10 c0.75 -3.45 1.75 -7.05 2.35 -8 1.55 -2.65 4 -4.10 6.70 -3.90 2.20 0.10 2.25 0.10 2.40 -1.50 0.15 -1.50 0.10 -1.60 -1.55 -1.60 -0.95 0 -3.05 0.65 -4.65 1.50 -3.50 1.75 -3.35 1.75 -2.75 0.55 0.30 -0.50 0.35 -1.05 0.20 -1.25 -0.55 -0.55 -3.20 -0.30 -3.35 0.35 -0.30 0.85 -3.80 19.50 -3.80 20 0 0.25 0.70 0.35 1.60 0.25 l1.60 -0.15 1.25 -6.25z m-577.25 -20.60 c0.65 -2.45 0.40 -2.95 -1.30 -2.80 -1.35 0.15 -1.65 0.40 -1.95 1.75 -0.40 1.90 -0.20 2.15 1.60 2.15 0.95 0 1.40 -0.30 1.65 -1.10z m338.95 0.75 c0.15 -0.25 0.35 -1.05 0.40 -1.90 0.20 -1.40 0.10 -1.50 -1.55 -1.50 -1.60 0 -1.70 0.10 -1.90 1.90 -0.15 1.75 -0.10 1.85 1.35 1.85 0.80 0 1.60 -0.15 1.70 -0.35z m61.55 -0.75 c0.60 -2.35 0.40 -2.90 -1.20 -2.90 -1.55 0 -1.70 0.15 -2.20 2.65 -0.30 1.25 -0.20 1.35 1.40 1.35 1.30 0 1.75 -0.25 2 -1.10z"/>
  <path d="M487.60 983.15 c-1 -0.40 -2.10 -2.95 -2.10 -4.90 0 -2.45 1.75 -6.25 3.40 -7.50 1.85 -1.40 5.25 -1.35 6.65 0.05 1.90 1.95 1 8.40 -1.45 10.75 -1.95 1.75 -4.50 2.40 -6.50 1.60z"/>
  <path d="M528.10 982.70 c-1.20 -0.80 -1.50 -3.05 -0.60 -4.70 0.65 -1.20 3.45 -2 6.90 -2 2.95 0 3.05 0.20 1.60 3.35 -1.55 3.50 -5.35 5.15 -7.90 3.35z"/>
  <path d="M1173.80 890.05 c-2.25 -2.45 -0.35 -9.65 2.85 -10.70 3.60 -1.15 5.80 1.60 4.80 6.05 -0.60 2.95 -2.55 5 -5 5.40 -1.30 0.25 -1.90 0.05 -2.65 -0.75z"/>
  <path d="M999.60 890.70 c-2.15 -0.95 -2.30 -6.35 -0.25 -9.10 2 -2.70 5.95 -3.30 7.15 -1.10 1.25 2.30 0.20 7.30 -1.85 9.15 -1.05 0.95 -3.95 1.50 -5.05 1.05z"/>
  <path d="M1033.30 890.35 c-1.35 -1 -0.90 -3.90 0.70 -4.70 1.20 -0.60 7 -0.95 7 -0.40 0 0.15 -0.30 1.05 -0.70 1.95 -1.25 3.05 -4.90 4.70 -7 3.15z"/>
  <path d="M1138.80 890.05 c-1.25 -1.35 -0.85 -3.60 0.70 -4.40 1.20 -0.60 7 -0.95 7 -0.40 0 0.15 -0.30 1 -0.70 1.95 -1.40 3.35 -5.15 4.90 -7 2.85z"/>
  <path d="M1191 882.55 c0 -0.25 0.80 -1.15 1.75 -2 1.25 -1.05 2.30 -1.55 3.40 -1.55 1.90 0 3.85 1.55 3.85 3 0 0.90 -0.35 1 -4.50 1 -2.45 0 -4.50 -0.20 -4.50 -0.45z"/>
  <path d="M28.15 628.60 l-4.65 -0.75 0 -2.95 c0 -3.80 1.35 -5.40 4.55 -5.40 1.65 0 2.35 0.30 3.75 1.70 1.60 1.60 1.70 1.90 1.70 5 0 1.80 -0.15 3.25 -0.35 3.25 -0.25 -0.05 -2.50 -0.45 -5 -0.85z"/>
  <path d="M32.30 610.45 c-2.55 -2 -3.65 -6.05 -2.10 -8.05 0.75 -1 3.20 -2.05 3.85 -1.60 0.55 0.35 0.60 10.70 0 10.70 -0.20 0 -1 -0.45 -1.75 -1.05z"/>
  <path d="M35.80 565.90 c-6.55 -1.45 -8.75 -9.25 -2.95 -10.70 2.40 -0.60 6.70 0.60 8.50 2.40 2.25 2.30 2.70 5.25 1.10 7 -1.35 1.50 -3.75 1.95 -6.65 1.30z"/>
  <path d="M38.60 499.50 c-1.60 -0.65 -2.60 -3.40 -2.60 -7 0 -2.95 0.05 -3.05 1.15 -2.75 5.50 1.70 8 6.15 5.10 9 -1.30 1.35 -1.85 1.45 -3.65 0.75z"/>
  <path d="M31.30 437 c-3 -3.60 -1.75 -9 2.15 -9 1 0 1.05 0.30 1.05 5.25 0 4.85 -0.10 5.25 -0.95 5.25 -0.55 0 -1.55 -0.70 -2.25 -1.50z"/>
  <path d="M411.70 105.95 c-0.65 -0.70 -0.90 -1.80 -0.90 -3.65 0 -3.30 1.55 -6 4.10 -7.05 1.55 -0.70 1.90 -0.70 2.95 0 1.80 1.20 2.30 2.95 1.65 6.05 -1 4.75 -5.35 7.35 -7.80 4.65z"/>
  <path d="M154.75 95.85 c0.90 -5.80 0.75 -5.60 3.70 -5.75 1.50 -0.10 2.95 0.10 3.35 0.40 1.10 0.95 1.40 3.70 0.50 5.40 -0.95 1.80 -1.65 2.10 -5.10 2.10 l-2.75 0 0.30 -2.15z"/>
  <path d="M172.65 99.10 c-1.45 -0.10 -2.65 -0.35 -2.65 -0.55 0 -0.25 0.80 -1.15 1.75 -2 3 -2.65 7.25 -1.95 7.25 1.10 0 1.80 0.05 1.80 -6.35 1.45z"/>
  <path d="M208.85 106.10 c-1.25 -1.35 -1.10 -5.75 0.20 -8.10 1.65 -2.90 4.55 -3.85 6.85 -2.20 2.40 1.65 0.90 9.20 -2.15 10.60 -1.90 0.85 -3.95 0.75 -4.90 -0.30z"/>
  <path d="M265.70 107 c-2.30 -0.50 -2.70 -0.90 -2.70 -2.75 0 -2.20 1.85 -3.25 5.75 -3.25 3.05 0 3.40 0.50 1.95 2.90 -1.40 2.30 -3.25 3.45 -5 3.10z"/>
  <path d="M313.50 98.50 c0 -1.45 3.40 -3.50 5.80 -3.50 1.40 0 3.70 2 3.70 3.25 0 0.60 -0.80 0.75 -4.75 0.75 -2.85 0 -4.75 -0.20 -4.75 -0.50z"/>
  <path d="M376.90 106.35 c-0.50 -0.40 -0.90 -1.40 -0.90 -2.25 0 -2.05 1.95 -3.10 5.75 -3.10 2.95 0 3.15 0.25 2.05 2.40 -1.50 2.95 -5.05 4.40 -6.90 2.95z"/>
  <path d="M428.80 99.10 c-1.05 -1 3.20 -4.10 5.65 -4.10 1.75 0 3.55 1.50 3.55 3 0 0.90 -0.35 1 -2.85 1.05 -1.60 0 -3.60 0.10 -4.50 0.15 -0.90 0.10 -1.70 0.05 -1.85 -0.10z"/>
  <path d="M488.65 45.80 c-1.25 -1.10 -1.40 -1.55 -1.40 -4.20 0.05 -5.50 3.60 -10.10 7.85 -10.10 2.35 0 4.15 1.65 4.50 4.10 0.35 2.20 -0.70 6.45 -2.05 8.35 -2.25 3.15 -6.35 4 -8.90 1.85z"/>
  <path d="M217.40 46.65 c-1.20 -1.40 -1.40 -2.50 -0.80 -4.15 0.80 -2.35 3.50 -3.50 8.10 -3.50 l3.75 0 -0.75 2.10 c-1 2.95 -2 4.30 -3.85 5.40 -2.05 1.25 -5.40 1.30 -6.45 0.15z"/>
  <path d="M268.70 47.05 c-2.55 -1.10 -2.90 -7.55 -0.65 -11.55 2.15 -3.80 7 -5.20 9.80 -2.80 1.30 1.10 1.40 1.50 1.40 4.65 0 3.80 -1.40 7 -3.80 8.80 -1.50 1.10 -5.15 1.55 -6.75 0.90z"/>
  <path d="M329.15 46.75 c-3.70 -2.60 -1.80 -12.10 2.90 -14.55 1.90 -0.95 5.65 -0.70 6.85 0.50 1 1 1.40 6.15 0.60 8.50 -1.60 4.85 -7.10 7.80 -10.35 5.55z"/>
  <path d="M380.60 46.50 c-2.50 -1.55 -3.80 -4.85 -3.40 -8.75 0.90 -8.75 5.60 -14.25 12.20 -14.25 2.15 0 2.85 0.25 4.30 1.50 2.30 2.05 3 4.35 2.65 8.55 -0.50 5.80 -3.65 11.25 -7.55 13 -2.75 1.25 -6.10 1.20 -8.20 -0.05z"/>
  <path d="M465.70 46.95 c-2.55 -1.30 -3 -6.65 -0.95 -10.75 2.15 -4.35 7.10 -6.05 10.10 -3.50 1.30 1.10 1.40 1.50 1.40 4.65 0 3.80 -1.40 7 -3.80 8.80 -1.55 1.15 -5.25 1.55 -6.75 0.80z"/>
  <path d="M513.55 46.65 c-2.35 -1.90 -2.20 -8.20 0.20 -11.70 3 -4.25 8.90 -4.65 10.55 -0.70 0.90 2.20 0.25 6.95 -1.30 9.50 -2.10 3.40 -7 4.90 -9.45 2.90z"/>
  <path d="M561 46.50 c-1.05 -1.05 -1.30 -3.45 -0.50 -4.95 0.75 -1.50 4.20 -2.55 8 -2.55 1.95 0 3.50 0.10 3.50 0.20 0 0.80 -1.35 3.85 -2.35 5.20 -2.30 3.05 -6.65 4.10 -8.65 2.10z"/>
  <path d="M730.70 46.90 c-3 -1.45 -2.95 -8.75 0.15 -12.40 2.30 -2.80 5.55 -3.70 8.35 -2.45 3.15 1.45 2.95 9.35 -0.35 12.85 -2.25 2.45 -5.60 3.25 -8.15 2z"/>
  <path d="M814.40 47.15 c-1.15 -0.30 -1.95 -2.60 -1.50 -4.35 0.70 -2.55 2.55 -3.45 7.40 -3.70 l4.35 -0.25 -0.35 1.70 c-0.95 4.85 -5.35 7.80 -9.90 6.60z"/>
  <path d="M853.50 36.55 c0 -1.20 3.85 -4.45 5.65 -4.80 3.95 -0.75 6.50 0.60 6.95 3.75 l0.15 1.25 -6.35 0.15 c-4 0.10 -6.40 -0.05 -6.40 -0.35z"/>
 </g>
<g opacity="0.5" transform="rotate(-45, 611.5, 506.0)">
  <text x="50%" y="50%" font-size="20" text-anchor="middle" fill="lightgray" dominant-baseline="middle">
    generated by vectorizer.io
  </text>
</g>
</svg>