<?xml version="1.0" standalone="no"?>
<!DOCTYPE svg PUBLIC "-//W3C//DTD SVG 20010904//EN"
 "http://www.w3.org/TR/2001/REC-SVG-20010904/DTD/svg10.dtd">
<svg version="1.0" xmlns="http://www.w3.org/2000/svg"
 width="1024.000000pt" height="1024.000000pt" viewBox="0 0 1024.000000 1024.000000"
 preserveAspectRatio="xMidYMid meet">

<g transform="translate(0.000000,1024.000000) scale(0.100000,-0.100000)"
fill="#000000" stroke="none">
<path d="M7578 9616 c-46 -16 -88 -43 -88 -55 0 -5 -28 -9 -62 -9 -78 2 -127
-20 -173 -76 -84 -103 -62 -231 49 -291 l36 -20 1 -170 c0 -93 4 -219 8 -280
7 -107 8 -113 59 -211 l52 -102 -23 -15 c-12 -8 -49 -41 -82 -74 -38 -37 -90
-75 -140 -101 -175 -91 -230 -171 -272 -394 -14 -73 -32 -157 -40 -186 l-15
-53 -71 73 c-40 41 -124 113 -187 160 -70 52 -135 111 -166 149 -63 78 -68 89
-84 162 -13 57 -13 57 19 102 39 55 86 164 106 247 41 175 -7 349 -136 499
-96 110 -167 140 -333 140 -88 1 -132 -4 -213 -25 -56 -14 -123 -26 -149 -26
-63 0 -123 -30 -153 -77 -43 -66 -40 -181 5 -249 24 -36 25 -38 10 -82 -19
-54 -22 -319 -5 -392 15 -65 80 -200 118 -242 18 -21 57 -49 87 -64 30 -14 54
-29 54 -33 0 -4 -21 -29 -48 -56 -40 -43 -62 -55 -152 -89 -58 -21 -152 -58
-210 -83 -58 -25 -177 -65 -265 -89 -88 -24 -184 -52 -213 -62 l-54 -17 -92
95 c-102 105 -212 235 -276 326 -22 33 -51 61 -63 64 -35 9 -49 47 -43 120 2
36 10 84 17 106 l13 41 90 7 c49 3 114 6 145 6 85 0 325 38 387 61 140 53 161
144 41 179 -26 8 -145 14 -319 17 -153 3 -278 7 -278 9 0 3 12 27 26 55 43 86
87 343 64 379 -8 12 -48 15 -242 18 -128 2 -251 -1 -273 -5 -38 -8 -40 -11
-43 -51 -5 -69 26 -221 63 -307 19 -45 35 -84 35 -88 0 -4 -49 -7 -110 -7 -60
0 -110 2 -110 5 0 2 11 21 25 41 48 70 32 104 -55 118 -29 5 -39 14 -60 53
-26 50 -76 91 -123 100 -18 4 -29 14 -33 30 -9 35 -42 53 -98 53 -44 0 -53 -4
-85 -38 -20 -21 -57 -46 -84 -56 -48 -18 -79 -50 -111 -113 -14 -27 -22 -33
-50 -33 -47 0 -94 -19 -101 -40 -7 -21 7 -54 37 -86 l19 -21 -158 -6 c-176 -8
-271 -20 -315 -43 -26 -13 -29 -19 -26 -57 3 -35 9 -45 43 -69 75 -52 277 -85
575 -95 l185 -6 45 -41 c25 -23 86 -68 135 -100 143 -93 173 -115 293 -209 61
-49 112 -96 112 -103 0 -8 -10 -28 -21 -44 -30 -40 -22 -70 53 -190 93 -150
301 -403 450 -550 96 -94 146 -114 288 -113 109 0 304 28 441 63 110 28 115
28 127 -22 10 -41 44 -281 56 -400 l6 -56 -33 -7 c-56 -13 -123 -53 -160 -95
-60 -70 -69 -144 -30 -242 18 -46 129 -152 177 -169 l36 -13 0 -497 c0 -567
-6 -532 90 -564 46 -15 53 -22 80 -75 21 -42 41 -65 75 -86 85 -54 138 -149
138 -249 0 -83 -30 -159 -88 -228 -26 -30 -34 -48 -30 -62 9 -29 30 -112 45
-175 14 -63 34 -100 102 -186 59 -76 61 -94 12 -94 l-36 0 6 -162 c4 -90 11
-343 16 -562 9 -359 11 -401 27 -419 10 -11 55 -38 101 -60 45 -22 81 -45 79
-51 -5 -14 -86 -10 -146 6 -63 17 -118 74 -125 130 -3 24 -8 303 -11 621 l-5
578 -39 77 c-45 90 -72 178 -75 244 -1 50 -11 52 -50 9 -16 -18 -18 -30 -12
-97 4 -42 18 -106 32 -142 14 -37 29 -85 34 -107 13 -58 41 -890 37 -1090 l-3
-170 -75 -38 c-41 -20 -110 -48 -154 -62 -156 -48 -225 -120 -209 -220 15
-103 102 -145 309 -147 66 -1 136 2 154 6 35 8 35 8 20 -15 -23 -35 -30 -87
-19 -130 11 -40 82 -120 129 -143 53 -27 184 -49 281 -47 111 2 114 2 158 20
28 12 35 12 42 1 11 -18 44 -4 36 15 -13 35 99 75 229 81 106 5 140 15 218 62
31 19 57 35 58 36 0 1 4 66 8 146 6 133 9 148 31 178 25 33 25 37 28 270 2
130 -2 422 -7 647 -9 359 -14 432 -37 585 -28 186 -28 172 -53 1225 -11 439
-22 660 -41 775 -5 36 -11 107 -13 158 l-3 94 70 34 c97 46 156 92 215 166 76
95 91 135 106 273 7 66 20 137 29 158 l16 38 82 -8 c109 -11 607 -10 729 1 90
8 97 7 102 -10 3 -11 9 -236 13 -501 l7 -481 -34 -17 c-44 -23 -185 -34 -449
-34 -224 -1 -419 12 -466 29 l-27 11 6 277 c5 226 4 285 -8 317 -8 22 -14 34
-15 27 0 -8 -13 -32 -30 -55 -42 -59 -50 -119 -50 -371 0 -201 2 -224 20 -253
13 -21 32 -36 58 -44 l39 -11 7 -282 c9 -386 24 -698 37 -776 16 -105 21 -184
11 -199 -8 -10 -50 -15 -168 -20 l-159 -6 -3 -26 c-6 -51 19 -62 135 -57 57 2
103 0 103 -3 0 -4 -9 -28 -20 -54 -24 -56 -25 -67 -5 -109 27 -57 65 -71 190
-71 95 0 116 3 154 23 80 42 118 82 148 154 15 38 33 66 38 64 6 -2 9 -41 7
-98 -4 -105 4 -133 55 -179 56 -53 227 -77 318 -45 31 11 43 11 54 3 12 -10
13 -9 8 6 -4 11 1 29 15 47 12 17 23 50 26 79 4 43 -1 62 -32 127 -47 99 -47
112 0 83 29 -18 59 -24 153 -30 142 -9 1352 -12 1480 -2 l92 6 -3 45 -3 45
-858 4 c-693 3 -862 2 -874 -9 -14 -11 -15 -8 -10 27 11 71 25 461 33 857 l6
388 42 22 c75 42 76 43 77 472 1 347 2 377 17 369 10 -4 366 -9 792 -11 724
-3 776 -2 787 15 7 9 13 29 13 43 0 27 -1 27 -92 34 -50 3 -132 6 -182 7 l-91
1 75 36 c58 27 93 37 153 42 53 4 83 12 95 24 15 15 15 18 2 26 -8 5 -36 10
-62 10 -48 0 -48 0 -48 34 0 46 -31 81 -103 117 -127 65 -274 86 -444 64 -156
-21 -223 -44 -301 -102 -32 -24 -34 -28 -30 -80 l3 -54 -95 8 c-148 12 -359 9
-410 -6 -44 -13 -44 -14 -20 -24 14 -6 148 -13 300 -17 266 -6 277 -7 330 -32
30 -14 66 -30 80 -35 39 -16 -159 -25 -490 -21 l-285 3 -9 83 c-9 89 -6 102
19 82 27 -22 100 -6 183 42 76 44 83 51 157 169 15 24 59 51 185 116 l165 84
140 9 c194 13 253 33 283 96 15 32 15 38 2 62 -23 40 -84 66 -168 70 -69 4
-72 5 -78 31 -23 104 -72 200 -132 260 -57 56 -173 127 -223 136 -35 6 -37 9
-43 56 -5 36 -13 53 -30 64 -80 53 -206 7 -206 -75 0 -23 -5 -29 -32 -34 -17
-3 -35 -3 -38 1 -4 5 -12 41 -19 82 -25 158 -86 232 -262 317 -78 38 -104 56
-124 86 -14 21 -44 52 -68 69 -23 17 -42 33 -41 37 0 4 20 48 45 97 l44 90 5
287 5 287 35 23 c58 39 92 97 92 156 -1 128 -100 222 -234 222 -39 0 -69 8
-112 30 -66 34 -142 39 -208 16z m192 -127 l50 -52 43 23 c53 28 83 23 133
-23 47 -43 57 -107 24 -150 -25 -32 -42 -31 -50 4 -7 30 -35 36 -61 13 -16
-15 -19 -31 -19 -111 0 -51 -3 -93 -7 -93 -5 0 -33 7 -63 15 -77 21 -192 19
-285 -5 -43 -11 -84 -20 -92 -20 -10 0 -13 20 -13 84 0 46 -3 91 -6 100 -7 17
-54 22 -54 6 0 -5 -6 -10 -14 -10 -20 0 -56 48 -56 74 0 35 38 86 77 102 33
14 40 14 73 -1 45 -20 73 -17 78 10 9 48 69 83 145 84 45 1 51 -2 97 -50z m49
-464 c44 -14 84 -32 88 -40 4 -7 6 -36 5 -63 l-4 -50 -46 21 c-35 15 -75 22
-155 25 -93 4 -115 2 -170 -18 -34 -12 -66 -26 -71 -31 -20 -19 -26 -7 -26 55
0 74 5 80 87 106 86 28 194 26 292 -5z m-1647 -21 c92 -29 76 -39 -55 -36
-101 3 -138 0 -212 -18 -50 -12 -135 -25 -190 -29 l-100 -6 -5 -60 c-6 -59 -6
-60 -14 -22 -9 39 -1 98 16 130 8 15 17 18 43 13 19 -4 86 4 161 18 71 14 145
27 164 29 52 6 139 -3 192 -19z m-1712 -126 c0 -69 -27 -162 -70 -248 l-40
-80 -59 0 c-68 0 -74 5 -124 105 -38 76 -57 151 -57 220 l0 45 175 0 175 0 0
-42z m-912 -5 c5 -17 -26 -29 -40 -15 -6 6 -7 15 -3 22 9 14 37 9 43 -7z
m4219 -48 c82 -24 116 -53 125 -105 18 -98 -28 -243 -97 -310 -58 -56 -169
-54 -225 3 -80 81 -133 265 -97 336 15 30 65 61 126 77 62 17 108 17 168 -1z
m-4106 -51 c25 -12 39 -33 39 -55 0 -5 -75 -9 -175 -9 -100 0 -175 4 -175 9 0
5 11 23 25 39 l25 30 118 0 c75 -1 126 -6 143 -14z m2287 -76 c7 -7 12 -31 12
-55 0 -24 7 -60 15 -81 20 -46 83 -112 107 -112 10 0 37 14 60 30 52 38 82 38
119 1 49 -50 33 -143 -31 -176 -37 -19 -38 -29 0 -56 16 -12 32 -29 35 -38 8
-21 35 -161 35 -182 0 -19 -99 -74 -201 -112 -36 -14 -84 -34 -106 -46 -46
-23 -57 -18 -73 38 -8 29 -7 31 44 54 49 23 96 70 96 96 0 15 -8 14 -76 -10
-78 -27 -177 -29 -227 -5 -30 15 -44 32 -71 90 -62 128 -69 168 -64 362 2 118
7 177 15 185 7 7 37 12 70 11 32 -1 76 2 98 7 60 13 130 12 143 -1z m-2148
-78 c0 -5 -20 -23 -44 -40 l-45 -30 -200 0 -200 0 -36 31 c-19 17 -32 35 -29
40 7 12 554 12 554 -1z m1120 -176 c60 -10 13 -22 -151 -40 -199 -22 -1392
-26 -1639 -6 -168 14 -272 31 -277 47 -3 11 2001 10 2067 -1z m2788 -144 l65
0 -22 -24 c-19 -20 -29 -23 -64 -19 -45 6 -91 26 -103 44 -5 9 2 10 26 6 18
-4 62 -7 98 -7z m-3550 -34 c-15 -35 -30 -38 -69 -14 -31 19 -32 22 -14 29 11
4 37 8 57 8 36 1 37 0 26 -23z m3355 -17 c26 -17 47 -32 47 -34 0 -15 -22 -55
-30 -55 -17 0 -88 50 -94 67 -6 16 10 53 23 53 4 0 29 -14 54 -31z m403 10
c19 -21 19 -21 -21 -56 -62 -54 -70 -56 -90 -27 -16 25 -16 26 27 64 50 46 58
47 84 19z m-3627 -48 c-12 -51 -11 -131 3 -190 13 -59 14 -58 -85 -112 l-58
-31 -57 54 c-31 30 -135 112 -229 182 -95 70 -173 132 -173 137 0 22 65 5 220
-58 203 -83 231 -86 290 -28 23 22 51 55 62 73 25 41 39 27 27 -27z m3425 -56
c9 -14 16 -36 16 -50 0 -20 -5 -25 -26 -25 -59 0 -82 40 -49 87 18 26 37 21
59 -12z m-272 -59 c37 -27 37 -29 23 -56 -19 -37 -45 -145 -45 -188 0 -40 46
-92 82 -92 27 0 152 115 163 150 6 19 15 13 91 -60 103 -99 144 -118 178 -84
31 31 11 208 -30 269 l-23 35 21 11 c11 6 40 29 64 51 l42 39 74 -37 c115 -58
163 -97 193 -159 32 -69 62 -198 47 -203 -5 -1 -35 -21 -66 -42 -44 -31 -56
-36 -56 -22 0 34 -21 90 -35 96 -37 14 -45 -3 -45 -98 0 -73 -5 -108 -25 -163
-13 -39 -27 -89 -31 -112 -4 -22 -12 -45 -18 -50 -6 -5 -55 -14 -109 -20 -161
-19 -196 -45 -164 -124 20 -47 51 -65 128 -78 103 -16 105 -17 118 -46 7 -16
30 -81 51 -146 34 -106 36 -119 22 -125 -31 -13 -820 -8 -833 5 -8 8 -8 33 1
100 16 115 9 795 -8 836 -9 22 -18 27 -46 27 l-35 0 -3 -267 c-2 -148 1 -276
5 -287 23 -48 20 -170 -7 -294 -14 -67 -26 -141 -27 -165 -1 -33 -6 -19 -23
63 -12 58 -27 121 -34 140 -6 19 -27 105 -46 190 -19 85 -46 188 -60 228 -23
66 -24 76 -11 96 8 12 34 110 59 218 25 108 53 216 64 240 25 56 68 95 172
156 l85 50 30 -27 c17 -15 47 -40 67 -55z m357 -60 c21 -17 61 -107 61 -140 0
-29 0 -29 -21 -10 -29 26 -99 130 -99 147 0 28 25 29 59 3z m-179 1 c0 -7 -17
-42 -39 -77 -37 -62 -64 -90 -76 -79 -10 10 23 100 50 134 26 35 65 47 65 22z
m-1234 -132 c9 -14 14 -31 11 -39 -7 -17 -141 -125 -212 -171 -27 -17 -70 -39
-95 -49 -42 -17 -45 -17 -57 0 -7 10 -21 42 -30 72 -20 63 -25 58 97 102 47
17 121 48 165 69 44 22 86 40 92 40 7 1 20 -10 29 -24z m-1938 -68 c23 -34 42
-69 42 -78 0 -20 -234 -179 -265 -179 -6 0 -100 142 -100 153 0 10 247 166
265 167 8 0 34 -28 58 -63z m4180 11 c-4 -31 -58 -40 -58 -10 0 25 8 32 37 32
20 0 24 -5 21 -22z m-2770 -39 c3 -17 -53 -99 -68 -99 -18 0 -10 67 11 94 22
29 52 31 57 5z m2919 -118 c104 -52 159 -107 207 -209 22 -45 38 -83 35 -86
-19 -18 -785 -36 -848 -19 -20 5 -22 10 -18 40 10 62 55 142 107 192 101 97
208 134 362 126 65 -4 89 -10 155 -44z m-4110 -116 l118 -126 5 -57 c4 -49 8
-57 25 -57 14 0 28 16 47 50 l27 51 158 43 c183 51 291 90 421 154 50 25 92
43 92 39 0 -4 -16 -38 -35 -77 -24 -48 -46 -120 -71 -230 -20 -88 -40 -176
-45 -195 l-8 -35 -133 -28 c-209 -43 -305 -58 -413 -64 -139 -8 -174 4 -250
80 -61 63 -259 287 -315 357 l-30 37 78 46 c42 25 102 66 132 91 30 25 60 45
67 46 6 0 65 -56 130 -125z m2051 45 c90 -72 151 -183 193 -350 165 -665 178
-792 91 -919 -58 -86 -229 -181 -344 -194 l-48 -5 0 82 c0 117 -17 213 -45
264 -14 24 -22 48 -19 53 10 17 94 9 160 -16 66 -25 114 -32 114 -17 0 4 -9
21 -19 38 -14 24 -40 40 -103 66 -58 24 -87 42 -95 59 -7 14 -26 95 -43 180
-30 148 -47 189 -76 189 -23 0 -34 -36 -34 -107 l-1 -68 -19 23 c-55 66 -88
251 -71 393 23 183 162 367 277 369 22 0 47 -12 82 -40z m-781 -58 c29 -16 61
-15 112 3 66 23 58 4 -54 -135 -64 -79 -182 -263 -204 -317 -18 -44 -48 -70
-64 -54 -26 26 -19 476 8 521 6 10 180 -5 202 -18z m3340 -288 c2 -6 -6 -14
-19 -18 -34 -9 -1243 -20 -1312 -12 -73 10 -63 24 25 35 101 13 1302 8 1306
-5z m-839 -140 c48 -20 135 -20 191 0 51 19 126 22 115 5 -11 -19 -212 -111
-255 -116 -35 -5 -42 -2 -72 29 -17 19 -40 49 -50 67 l-18 31 26 0 c14 0 42
-7 63 -16z m-186 -28 c13 -9 39 -40 58 -68 39 -58 70 -83 121 -101 19 -7 37
-16 39 -22 2 -5 -21 -25 -50 -42 -77 -47 -130 -46 -175 2 -60 63 -95 136 -95
198 0 35 5 57 13 60 17 5 62 -8 89 -27z m1124 -267 c88 -12 229 -73 229 -99 0
-9 -32 -31 -78 -53 -103 -50 -198 -63 -345 -48 -134 13 -176 26 -221 69 l-36
34 34 29 c76 63 251 91 417 68z m-2949 -304 c43 -30 64 -116 75 -303 10 -201
7 -736 -5 -749 -11 -11 -617 -17 -617 -6 -4 365 -11 757 -16 818 -3 44 -15
107 -25 139 -15 42 -17 61 -9 66 6 4 84 10 173 15 89 4 205 13 257 20 131 17
143 17 167 0z m-730 -120 c23 -9 45 -24 49 -33 4 -9 9 -72 12 -138 l4 -121
-33 -13 c-19 -7 -80 -15 -137 -17 -119 -6 -170 8 -223 60 -65 66 -91 179 -36
158 30 -12 127 4 146 24 14 14 14 17 1 25 -8 5 -26 10 -40 10 -32 0 -70 11
-70 19 1 20 23 35 62 42 69 12 218 4 265 -16z m-22 -633 c75 -23 90 -32 96
-52 4 -14 7 -89 8 -168 1 -140 2 -143 27 -169 l26 -26 350 6 c192 4 357 11
367 17 45 23 53 56 59 219 2 86 9 162 14 169 6 6 24 12 40 12 l30 0 -5 -188
c-2 -105 -9 -198 -15 -209 -6 -11 -31 -35 -56 -54 -54 -41 -56 -51 -49 -231 6
-135 5 -136 -18 -151 -64 -40 -450 -54 -649 -24 -103 16 -332 84 -351 104 -4
5 -9 183 -12 396 l-5 388 27 -6 c14 -3 66 -18 116 -33z m2069 -178 c3 -9 6
-277 6 -597 0 -574 0 -582 -21 -617 -20 -32 -22 -33 -34 -16 -20 27 -24 118
-29 698 -3 491 -2 537 13 541 35 10 59 6 65 -9z m-403 -39 c4 -17 13 -176 19
-355 6 -179 15 -401 21 -493 6 -92 9 -186 7 -208 l-3 -41 80 -23 c74 -22 115
-49 115 -77 0 -7 -35 -8 -98 -3 l-97 7 -14 -39 c-8 -21 -29 -60 -48 -87 -39
-58 -42 -82 -8 -98 34 -15 22 -28 -29 -28 -67 0 -77 20 -43 83 15 29 47 77 72
107 39 47 45 61 45 100 0 26 -7 56 -16 68 -12 18 -19 72 -29 220 -15 229 -30
876 -20 892 12 20 39 5 46 -25z m-571 -438 c7 -75 8 -253 1 -601 -10 -470 -9
-499 8 -569 42 -162 73 -741 67 -1226 l-5 -334 -40 -41 c-40 -40 -43 -41 -123
-45 -160 -7 -334 36 -404 101 -56 51 -64 82 -64 243 0 72 -5 182 -10 245 -6
63 -17 189 -25 280 -8 91 -18 246 -21 345 l-6 180 -33 56 c-60 99 -137 366
-149 515 -4 43 -16 142 -28 220 -22 143 -21 174 6 174 23 0 33 -26 56 -146 12
-60 30 -140 41 -179 10 -38 32 -137 49 -218 53 -252 97 -349 195 -431 42 -34
45 -40 32 -54 -9 -8 -29 -15 -46 -16 -41 -1 -44 -15 -32 -133 5 -54 13 -136
16 -183 3 -47 13 -148 22 -225 8 -77 17 -243 18 -368 4 -251 3 -250 70 -285
102 -52 321 -80 383 -48 18 9 32 22 33 29 0 6 0 183 -1 392 -1 506 -31 1061
-62 1144 -26 71 -33 132 -18 161 14 26 37 761 32 1009 -3 128 -1 142 12 128
10 -9 19 -52 26 -120z m1165 -737 c39 -9 65 -32 65 -57 0 -10 -18 -12 -72 -11
-40 1 -90 -2 -110 -6 -36 -8 -38 -7 -38 16 0 55 64 79 155 58z m-109 -117 c-3
-16 -7 -56 -9 -90 -3 -90 8 -99 123 -96 50 1 90 -2 90 -6 0 -42 -148 -67 -212
-37 -41 19 -58 51 -58 105 0 47 25 132 42 142 23 15 30 10 24 -18z m-2031
-1753 c11 -18 -14 -47 -79 -90 -60 -39 -217 -100 -256 -100 -20 0 -70 -44 -70
-61 0 -7 -8 -5 -20 6 -48 44 -10 83 126 129 106 35 158 60 214 100 36 26 74
33 85 16z m472 -171 c35 -35 -80 -136 -245 -214 -137 -66 -152 -77 -152 -121
0 -55 75 -96 212 -113 l63 -8 -95 -2 c-109 -1 -159 16 -203 68 -43 51 -38 101
16 154 23 23 69 56 103 74 33 18 107 64 164 103 108 73 119 77 137 59z"/>
<path d="M7806 7544 c-3 -8 -1 -24 5 -35 20 -38 81 -5 66 35 -8 21 -63 22 -71
0z"/>
<path d="M7478 7525 c-16 -35 -1 -59 40 -63 27 -3 32 1 38 24 9 35 -6 58 -39
62 -21 3 -30 -3 -39 -23z"/>
<path d="M7480 7320 c-23 -23 -25 -40 -7 -62 17 -21 38 -27 65 -17 17 7 22 16
22 44 0 29 -5 37 -26 45 -33 13 -31 13 -54 -10z"/>
<path d="M7482 7014 c-27 -18 -29 -55 -4 -77 24 -22 45 -21 65 1 18 19 22 48
11 76 -8 20 -43 20 -72 0z"/>
<path d="M7812 7018 c-29 -29 3 -88 49 -88 22 0 49 32 49 58 0 36 -70 58 -98
30z"/>
<path d="M8922 7473 c-6 -20 -10 -39 -8 -40 2 -2 15 -1 30 3 31 7 34 33 8 57
-18 16 -19 15 -30 -20z"/>
<path d="M9185 6755 c-5 -2 -37 -7 -70 -10 -110 -13 -34 -26 157 -27 122 -1
193 3 213 11 53 22 8 31 -145 30 -80 0 -149 -2 -155 -4z"/>
<path d="M1558 7421 c-62 -53 -71 -55 -258 -56 -158 0 -181 -3 -231 -23 -70
-28 -132 -81 -199 -172 -72 -98 -91 -151 -91 -264 0 -51 3 -106 7 -122 15 -66
87 -182 196 -316 21 -27 21 -28 4 -65 -10 -21 -31 -55 -48 -76 -17 -21 -54
-84 -83 -140 -29 -56 -78 -150 -109 -209 -31 -59 -68 -138 -82 -175 -14 -38
-31 -73 -37 -80 -7 -7 -58 -35 -114 -62 -123 -60 -235 -133 -257 -166 -9 -13
-16 -39 -16 -57 0 -42 63 -488 95 -673 13 -77 29 -176 35 -220 6 -44 22 -147
35 -230 14 -82 34 -240 45 -350 11 -110 25 -243 31 -295 14 -119 13 -1154 -2
-1400 -5 -96 -16 -227 -24 -290 -29 -245 -29 -234 -3 -264 24 -29 116 -60 143
-50 8 4 30 27 49 53 47 65 62 158 87 555 11 182 23 359 25 394 l6 62 45 0 45
0 -7 -107 c-3 -60 -15 -190 -26 -291 -24 -234 -25 -228 10 -263 24 -23 38 -29
73 -29 50 0 82 19 104 62 19 37 60 269 74 423 6 61 13 131 16 158 l7 47 423 0
423 0 5 -32 c3 -18 7 -233 9 -478 3 -399 5 -448 21 -478 18 -35 81 -71 124
-72 35 0 77 26 91 57 19 41 31 442 32 1048 2 779 4 815 43 815 40 0 41 -11 44
-563 2 -408 5 -533 15 -539 17 -11 203 -9 257 2 25 6 63 18 84 27 l39 17 -7
169 c-4 93 -13 258 -21 366 -8 108 -19 306 -25 441 -14 329 -22 370 -91 453
-39 47 -80 68 -210 107 -249 73 -373 135 -474 234 -83 83 -115 151 -115 245 0
119 55 221 119 221 17 0 31 -3 31 -7 0 -5 -18 -44 -40 -88 -66 -133 -51 -216
55 -313 60 -55 214 -138 315 -170 330 -105 840 -185 1263 -199 109 -3 200 -9
202 -14 3 -4 2 -403 -2 -888 l-6 -880 -46 -6 c-262 -35 -398 -81 -467 -158
-82 -90 -85 -198 -7 -268 105 -95 227 -143 431 -170 134 -17 491 -6 592 20
135 33 223 65 250 91 15 14 46 40 69 59 41 32 43 32 62 15 18 -16 19 -16 19 0
0 10 -9 20 -21 23 -14 4 -18 10 -13 22 18 39 16 99 -4 138 -54 104 -202 181
-412 212 -41 7 -88 14 -105 16 l-30 5 -1 812 c0 447 -4 849 -8 893 l-7 80 153
3 c136 2 505 40 713 73 211 33 576 143 685 207 143 83 226 230 185 327 -54
130 -268 268 -510 329 -202 51 -450 87 -765 111 -107 8 -221 18 -252 21 l-58
7 0 57 0 58 45 26 c52 31 120 121 136 180 20 75 -14 323 -50 359 -27 27 -116
47 -214 47 -145 0 -190 -32 -207 -145 -16 -117 -12 -264 9 -310 20 -44 114
-138 149 -149 20 -7 22 -14 22 -69 l0 -63 -232 4 c-128 2 -236 7 -239 10 -4 4
-10 21 -14 39 -6 30 -4 33 34 53 56 28 109 84 137 144 28 60 31 160 10 290
-21 126 -55 142 -269 134 -190 -7 -211 -32 -212 -248 0 -123 2 -139 24 -180
38 -72 78 -117 125 -139 37 -18 44 -27 49 -58 4 -20 4 -39 2 -43 -2 -4 -57
-10 -122 -14 -138 -8 -348 -30 -483 -51 -52 -8 -140 -22 -195 -30 -55 -8 -118
-23 -140 -32 -47 -20 -95 -53 -95 -65 0 -9 23 -7 190 17 52 8 192 21 310 30
118 8 283 22 365 30 83 8 156 15 163 15 10 0 12 -16 10 -61 l-3 -62 -48 -12
c-81 -20 -112 -68 -64 -99 53 -35 271 -38 340 -6 57 27 12 91 -76 109 -31 7
-32 8 -35 69 l-3 62 234 0 235 0 4 -40 c5 -52 1 -57 -47 -66 -23 -4 -52 -19
-68 -35 -23 -24 -26 -32 -17 -48 17 -33 48 -43 139 -49 111 -6 194 11 221 45
15 20 17 29 9 45 -12 23 -67 48 -104 48 -23 0 -25 3 -25 51 l0 52 38 -6 c20
-4 109 -11 197 -17 383 -25 541 -47 795 -110 136 -34 199 -57 298 -112 120
-66 162 -112 162 -178 0 -178 -427 -337 -1105 -411 -177 -20 -255 -22 -670
-22 -628 -1 -934 26 -1329 118 -299 69 -429 116 -543 198 -105 75 -97 171 23
274 111 95 125 113 84 113 -38 0 -9 25 50 44 79 25 114 48 142 90 19 28 31 36
68 41 56 8 114 33 182 79 l53 35 110 -19 c61 -11 126 -20 146 -20 40 0 47 10
69 100 6 25 29 99 50 165 21 66 69 217 105 335 37 118 93 298 125 400 73 233
73 232 54 258 -24 34 -63 50 -170 67 -167 27 -274 52 -384 90 -58 19 -130 38
-161 42 -69 7 -67 10 -109 -154 -57 -220 -81 -308 -106 -383 -32 -99 -80 -273
-106 -380 -30 -127 -46 -152 -104 -167 -71 -19 -223 -38 -231 -30 -4 4 -19 77
-34 162 -39 219 -62 291 -139 420 -36 60 -78 130 -92 155 -15 25 -45 63 -67
85 -23 21 -41 44 -41 51 0 6 14 14 32 18 94 19 191 105 229 204 41 109 36 283
-13 441 -11 35 -29 77 -40 92 l-21 28 28 62 c23 52 27 71 22 119 -8 90 -55
165 -120 189 -39 15 -42 15 -79 -18z m77 -114 c28 -49 32 -85 11 -125 -34 -64
-108 -102 -203 -102 -56 0 -115 -19 -128 -41 -5 -6 -12 -50 -16 -96 -4 -48
-14 -94 -23 -109 l-17 -24 -39 20 c-55 28 -111 26 -149 -5 -47 -40 -56 -83
-36 -170 10 -41 15 -81 11 -91 -6 -16 -8 -15 -29 4 -41 38 -116 175 -133 242
-26 104 -3 236 52 290 14 14 39 46 54 71 49 81 156 115 320 102 52 -4 113 -6
135 -4 46 3 115 33 140 61 10 11 19 20 21 20 2 0 15 -20 29 -43z m33 -360 c68
-203 47 -430 -46 -507 -38 -31 -72 -43 -154 -55 l-48 -6 0 -75 c0 -74 0 -75
-22 -62 -13 7 -90 40 -173 73 l-150 61 3 44 c4 56 48 139 79 146 31 8 29 17
-12 71 -38 50 -44 86 -18 115 22 24 26 23 84 -17 28 -19 54 -35 58 -35 13 0
58 54 87 104 21 37 29 68 33 120 l6 70 55 -2 c30 -1 78 4 105 12 80 23 87 20
113 -57z m950 -547 c57 -22 241 -64 439 -101 102 -20 120 -26 113 -39 -11 -21
-107 -321 -215 -675 -20 -66 -52 -169 -71 -230 -18 -60 -37 -128 -42 -150 -4
-22 -12 -40 -17 -40 -29 1 -125 28 -125 34 0 5 15 28 34 52 95 125 109 226 38
291 -47 43 -55 42 -182 -24 -89 -46 -129 -61 -162 -62 -25 -1 -48 -7 -55 -16
-17 -21 -16 -25 12 -38 37 -17 137 6 267 62 50 21 55 20 61 -10 8 -42 -9 -84
-65 -158 -71 -95 -180 -180 -264 -206 -36 -11 -70 -20 -74 -20 -12 0 -120 210
-120 233 0 51 70 118 160 153 54 21 60 28 60 75 0 33 -3 37 -40 48 -27 8 -40
18 -40 29 0 10 24 101 54 202 75 255 141 484 160 553 9 31 18 57 19 57 1 0 26
-9 55 -20z m-1388 -183 l185 -72 3 -37 c2 -20 -4 -50 -13 -67 -13 -27 -18 -29
-41 -21 -38 15 -61 28 -153 87 -46 30 -112 71 -147 90 -64 35 -77 56 -52 81 7
7 17 12 23 11 5 0 93 -33 195 -72z m311 -268 c66 -93 199 -519 162 -519 -15 0
-27 18 -53 80 -33 81 -134 252 -201 343 -58 78 -64 97 -31 97 9 1 28 7 42 15
38 22 56 18 81 -16z m-455 -85 c32 -19 70 -49 84 -67 68 -86 274 -454 290
-520 7 -26 14 -47 15 -47 102 0 459 62 522 91 68 31 77 27 103 -43 12 -35 39
-97 60 -138 21 -41 41 -89 44 -107 7 -28 4 -33 -23 -47 -16 -9 -32 -16 -34
-16 -3 0 -21 42 -41 93 -40 102 -91 197 -107 197 -5 0 -37 -12 -71 -26 -83
-35 -212 -62 -358 -74 -106 -10 -125 -9 -146 5 -26 17 -29 27 -14 54 7 14 -3
40 -48 117 -32 55 -87 151 -122 214 -95 173 -127 217 -178 247 -56 33 -123 36
-173 7 -73 -42 -107 -176 -74 -290 42 -144 241 -472 371 -613 84 -92 117 -106
239 -106 89 0 114 4 220 39 173 55 362 96 334 72 -7 -6 -163 -89 -199 -106
-19 -10 -89 -32 -155 -50 -105 -28 -131 -32 -215 -28 -183 8 -270 77 -462 368
-180 273 -229 385 -231 525 -1 99 26 169 85 220 59 50 96 65 164 65 51 0 69
-5 120 -36z m3081 -150 c35 -10 18 -22 -41 -29 -58 -8 -136 1 -136 15 0 15
133 26 177 14z m-577 -63 c0 -5 -38 -11 -85 -13 -46 -2 -81 0 -77 4 17 16 162
24 162 9z m-2950 -137 c12 -60 23 -124 27 -141 4 -24 2 -33 -8 -33 -8 0 -41
-14 -74 -30 -33 -16 -63 -30 -66 -30 -4 0 -12 28 -19 63 -17 78 -35 122 -61
148 -12 12 -17 25 -12 29 10 11 187 108 191 105 1 -1 11 -51 22 -111z m3605
23 c8 -96 -4 -152 -41 -197 -75 -88 -176 -75 -231 29 -24 46 -28 92 -17 187
l6 50 107 1 c58 0 117 5 131 10 14 6 28 9 32 7 3 -2 9 -41 13 -87z m-735 39
c50 0 94 5 107 12 32 18 37 3 41 -118 3 -86 0 -111 -15 -140 -43 -82 -151
-107 -217 -50 -54 48 -66 84 -66 202 0 58 3 107 6 111 3 3 18 1 33 -5 14 -6
64 -11 111 -12z m-3126 -158 c19 -54 49 -218 76 -418 11 -85 27 -191 35 -235
21 -115 70 -457 110 -765 38 -295 41 -310 56 -310 5 0 13 -9 17 -20 6 -15 13
2 31 67 19 68 32 97 59 125 l35 37 60 -49 c123 -100 195 -122 437 -135 301
-16 819 -73 860 -95 23 -12 25 -29 8 -53 -12 -15 -82 -17 -758 -22 -410 -4
-761 -7 -780 -8 l-34 -2 -17 140 c-48 407 -81 650 -135 1000 -14 88 -34 221
-45 295 -10 74 -31 208 -45 297 -14 90 -24 170 -20 178 10 28 34 15 50 -27z
m360 -177 c61 -67 93 -470 76 -941 -5 -125 -3 -139 18 -186 28 -61 72 -107
127 -130 59 -25 204 -30 289 -10 92 22 218 89 261 139 49 57 109 178 141 285
15 50 31 92 36 92 4 0 8 -29 8 -64 0 -74 -43 -220 -85 -286 -72 -114 -222
-218 -350 -241 -123 -23 -325 10 -411 66 -30 19 -90 110 -110 167 -18 53 -18
147 2 288 18 124 15 365 -6 527 -14 112 -27 313 -19 313 3 0 14 -9 23 -19z
m-121 -78 c2 -38 12 -133 20 -213 18 -161 47 -594 47 -680 0 -35 -4 -50 -9
-40 -8 14 -52 269 -67 385 -3 28 -21 145 -39 260 -54 337 -53 299 -9 329 21
14 42 26 45 26 4 0 9 -30 12 -67z m3279 -1665 c16 -21 18 -77 19 -768 l0 -745
-55 -3 -56 -3 0 784 c0 431 3 787 7 790 9 9 64 -26 85 -55z m-1747 -75 c-14
-59 -8 -57 -368 -65 -305 -5 -880 4 -1054 17 -56 5 -73 3 -73 -7 0 -7 -2 -213
-3 -458 -3 -423 -16 -710 -37 -865 -6 -38 -15 -106 -20 -150 -17 -123 -18
-127 -43 -123 -27 4 -27 17 -4 213 21 176 37 591 37 975 0 162 3 339 7 393 l6
97 780 0 779 0 -7 -27z m-1130 -248 c-11 -147 -25 -216 -43 -213 -23 4 -30 39
-31 163 -1 130 4 153 33 157 38 7 48 -19 41 -107z m-155 57 c0 -21 -3 -88 -7
-149 l-6 -113 -47 0 c-45 0 -48 2 -54 31 -8 40 -8 139 0 215 l6 59 54 -3 54
-4 0 -36z m1256 22 c-3 -9 -6 -346 -6 -750 l0 -734 -24 0 c-13 0 -26 6 -29 14
-3 7 -8 303 -11 657 -4 354 -9 686 -12 737 l-5 92 46 0 c39 0 46 -3 41 -16z
m-187 -71 c1 -10 -86 -13 -401 -13 -222 0 -408 4 -415 8 -8 5 -9 13 -3 22 8
13 67 15 399 15 215 1 394 4 398 8 7 8 21 -17 22 -40z m11 -154 l0 -69 -421 0
-422 0 7 54 c11 96 -7 89 210 82 105 -3 286 -2 401 2 116 4 213 6 218 4 4 -2
7 -34 7 -73z m5 -174 c0 -18 -8 -20 -90 -25 -49 -3 -323 -4 -607 -1 -452 3
-518 6 -523 19 -3 9 0 19 7 24 7 4 283 7 613 5 593 -2 600 -2 600 -22z m-955
-142 c-2 -172 -53 -544 -78 -569 -29 -29 -36 -1 -23 93 6 48 18 160 26 248 24
261 23 255 51 255 20 0 24 -5 24 -27z m2734 -782 c49 -54 156 -64 250 -23 l49
22 -7 83 c-4 46 -4 85 -1 89 9 9 175 -21 262 -47 83 -26 149 -67 186 -116 18
-24 18 -28 3 -56 -94 -184 -806 -236 -1140 -84 -99 45 -126 94 -87 157 39 63
154 107 361 137 l95 13 5 -77 c4 -56 11 -83 24 -98z"/>
<path d="M7930 6613 c-8 -3 -26 -14 -39 -24 -27 -22 -126 -25 -246 -9 -178 24
-185 25 -185 3 0 -23 23 -45 105 -98 106 -70 136 -77 232 -51 76 20 154 66
176 104 18 30 18 34 3 57 -17 26 -21 27 -46 18z m-211 -92 c10 -6 2 -10 -25
-14 -49 -7 -74 -6 -74 4 0 4 17 10 38 12 20 2 39 4 42 5 3 1 11 -2 19 -7z"/>
<path d="M8288 6322 c-13 -3 -18 -13 -18 -42 0 -26 5 -40 18 -46 9 -5 361 -10
782 -12 715 -3 766 -2 777 15 15 20 17 69 4 78 -10 6 -1534 13 -1563 7z"/>
<path d="M2643 4820 c-231 -33 -328 -104 -280 -205 22 -47 76 -80 177 -107 76
-20 107 -23 280 -22 168 0 208 3 287 23 95 23 158 58 189 106 22 33 22 89 0
114 -24 27 -101 58 -188 76 -86 19 -375 28 -465 15z m417 -95 c94 -18 150 -39
150 -54 0 -24 -47 -51 -114 -66 -202 -47 -561 -28 -628 32 -41 37 -16 52 145
89 87 20 121 23 232 19 72 -2 168 -11 215 -20z"/>
<path d="M2656 4680 c-27 -5 -53 -13 -58 -18 -21 -21 59 -32 227 -32 155 0
175 2 196 19 13 11 20 23 16 28 -12 11 -320 14 -381 3z"/>
<path d="M4610 4824 c-155 -19 -233 -44 -282 -91 -23 -22 -28 -36 -28 -74 0
-58 23 -89 87 -117 177 -75 572 -81 761 -10 115 43 155 123 93 186 -71 70
-198 102 -426 107 -93 2 -186 1 -205 -1z m387 -100 c77 -14 163 -47 163 -62 0
-22 -42 -43 -125 -62 -123 -30 -366 -30 -504 -1 -169 36 -176 88 -16 121 138
29 337 31 482 4z"/>
<path d="M4628 4681 c-57 -8 -79 -25 -52 -39 26 -13 244 -22 324 -14 56 6 65
10 68 28 3 18 -4 22 -44 28 -57 7 -232 6 -296 -3z"/>
<path d="M3120 4450 c-50 -18 -85 -19 -388 -20 l-333 0 -25 -25 c-20 -20 -23
-29 -14 -45 16 -30 82 -44 154 -31 34 5 165 13 291 16 218 6 232 5 275 -14 25
-11 61 -21 80 -21 40 0 127 38 153 67 17 19 16 21 -3 45 -11 15 -38 30 -64 37
-58 14 -61 14 -126 -9z"/>
<path d="M4363 4455 c-36 -15 -68 -58 -59 -80 3 -8 20 -24 38 -35 36 -23 55
-23 248 0 101 12 335 9 491 -6 54 -5 75 -2 113 14 25 12 46 25 46 30 0 5 -12
21 -26 35 -38 38 -102 49 -194 32 -41 -7 -166 -16 -278 -18 -200 -5 -204 -5
-245 19 -47 27 -87 30 -134 9z"/>
<path d="M8890 4183 c0 -10 4 -24 9 -32 7 -11 10 -9 16 8 7 22 0 41 -16 41 -5
0 -9 -8 -9 -17z"/>
<path d="M8986 4183 c-12 -12 -6 -43 9 -43 8 0 15 9 15 19 0 21 -13 34 -24 24z"/>
<path d="M9095 4180 c-3 -5 1 -10 10 -10 9 0 13 5 10 10 -3 6 -8 10 -10 10 -2
0 -7 -4 -10 -10z"/>
<path d="M9198 4184 c-8 -8 3 -44 13 -44 5 0 9 11 9 25 0 24 -10 32 -22 19z"/>
<path d="M8433 4165 c-9 -26 4 -28 28 -6 l23 21 -22 0 c-13 0 -25 -7 -29 -15z"/>
<path d="M8650 4166 c0 -14 27 -42 34 -35 2 2 0 14 -5 27 -9 24 -29 30 -29 8z"/>
<path d="M8770 4155 c0 -19 5 -25 23 -25 21 1 22 1 3 15 -18 14 -18 15 -2 15
9 0 14 5 11 10 -12 20 -35 10 -35 -15z"/>
<path d="M8320 4150 c0 -11 3 -20 8 -20 4 0 13 9 20 20 11 18 10 20 -8 20 -13
0 -20 -7 -20 -20z"/>
<path d="M8540 4160 c0 -5 9 -14 20 -20 17 -9 20 -8 20 10 0 13 -7 20 -20 20
-11 0 -20 -4 -20 -10z"/>
<path d="M9290 4150 c0 -14 7 -20 21 -20 15 0 19 4 15 16 -3 9 -6 18 -6 20 0
2 -7 4 -15 4 -8 0 -15 -9 -15 -20z"/>
<path d="M9406 4155 c-3 -9 1 -18 10 -22 19 -7 26 0 18 21 -8 20 -20 21 -28 1z"/>
<path d="M9605 4160 c-8 -13 4 -32 16 -25 12 8 12 35 0 35 -6 0 -13 -4 -16
-10z"/>
<path d="M9086 4148 c3 -4 17 -8 31 -8 15 0 23 3 19 8 -10 10 -56 10 -50 0z"/>
<path d="M9505 4150 c-4 -6 5 -10 19 -10 14 0 26 5 26 10 0 6 -9 10 -19 10
-11 0 -23 -4 -26 -10z"/>
<path d="M9700 4150 c0 -5 5 -10 11 -10 5 0 7 5 4 10 -3 6 -8 10 -11 10 -2 0
-4 -4 -4 -10z"/>
<path d="M8220 4128 c0 -9 5 -20 10 -23 13 -8 13 5 0 25 -8 13 -10 13 -10 -2z"/>
<path d="M7600 4079 c0 -17 4 -28 10 -24 6 3 10 17 10 31 0 13 -4 24 -10 24
-5 0 -10 -14 -10 -31z"/>
<path d="M8510 4052 c0 -12 19 -26 26 -19 2 2 -2 10 -11 17 -9 8 -15 8 -15 2z"/>
<path d="M8660 4035 c0 -8 5 -15 10 -15 6 0 10 7 10 15 0 8 -4 15 -10 15 -5 0
-10 -7 -10 -15z"/>
<path d="M8422 4020 c0 -14 2 -19 5 -12 2 6 2 18 0 25 -3 6 -5 1 -5 -13z"/>
<path d="M8778 4033 c7 -3 16 -2 19 1 4 3 -2 6 -13 5 -11 0 -14 -3 -6 -6z"/>
<path d="M7540 4019 c0 -5 5 -7 10 -4 6 3 10 8 10 11 0 2 -4 4 -10 4 -5 0 -10
-5 -10 -11z"/>
<path d="M2631 3993 c15 -15 37 -48 49 -73 26 -50 27 -59 61 -615 11 -187 25
-392 29 -455 5 -63 9 -159 9 -213 1 -95 0 -99 -30 -137 -17 -21 -43 -43 -58
-49 -66 -28 -278 -31 -345 -5 -11 4 -21 2 -27 -7 -10 -17 -12 -329 -1 -345 16
-24 55 -34 139 -34 63 0 95 4 110 15 20 14 28 14 85 -7 86 -30 277 -37 369
-14 66 17 179 83 204 120 21 29 18 95 -4 133 l-20 31 42 7 c96 16 152 65 151
129 -2 84 -63 130 -221 166 -48 11 -118 32 -155 47 l-66 26 -6 46 c-23 197
-57 676 -65 925 -7 199 -12 251 -24 263 -13 13 -89 36 -222 67 l-30 8 26 -29z
m368 -1387 c37 -19 114 -46 171 -60 98 -24 124 -38 116 -61 -9 -27 -210 11
-298 56 -49 25 -88 62 -88 84 0 23 24 18 99 -19z m-141 -225 c43 -22 112 -49
152 -61 91 -27 120 -44 120 -70 0 -27 -20 -26 -122 6 -154 47 -268 111 -268
150 0 24 37 16 118 -25z"/>
<path d="M8190 3983 c0 -17 4 -34 9 -38 16 -10 19 9 5 40 l-13 30 -1 -32z"/>
<path d="M8305 3970 c3 -5 13 -10 21 -10 8 0 12 5 9 10 -3 6 -13 10 -21 10 -8
0 -12 -4 -9 -10z"/>
<path d="M8090 3870 c0 -5 5 -10 10 -10 6 0 10 5 10 10 0 6 -4 10 -10 10 -5 0
-10 -4 -10 -10z"/>
<path d="M8195 3860 c3 -5 8 -10 11 -10 2 0 4 5 4 10 0 6 -5 10 -11 10 -5 0
-7 -4 -4 -10z"/>
<path d="M1021 2031 c-12 -8 -9 -11 11 -16 28 -7 48 -1 48 16 0 12 -40 12 -59
0z"/>
<path d="M1580 2018 c0 -18 18 -34 28 -24 3 4 -2 14 -11 23 -16 16 -17 16 -17
1z"/>
<path d="M1670 2014 c0 -8 9 -14 20 -14 11 0 20 4 20 9 0 5 -9 11 -20 14 -13
3 -20 0 -20 -9z"/>
<path d="M1870 2020 c0 -12 47 -36 55 -28 3 3 3 13 -1 22 -7 17 -54 23 -54 6z"/>
<path d="M1308 2013 c6 -2 18 -2 25 0 6 3 1 5 -13 5 -14 0 -19 -2 -12 -5z"/>
<path d="M1470 2010 c0 -5 7 -10 15 -10 8 0 15 5 15 10 0 6 -7 10 -15 10 -8 0
-15 -4 -15 -10z"/>
<path d="M1775 2011 c-7 -12 12 -24 25 -16 11 7 4 25 -10 25 -5 0 -11 -4 -15
-9z"/>
<path d="M1178 1998 c17 -8 26 -8 34 0 9 9 4 12 -22 11 -33 0 -34 -1 -12 -11z"/>
<path d="M2257 1999 c8 -8 19 -8 40 -1 28 10 28 10 -11 11 -29 1 -37 -2 -29
-10z"/>
<path d="M2358 2003 c7 -3 16 -2 19 1 4 3 -2 6 -13 5 -11 0 -14 -3 -6 -6z"/>
<path d="M2585 2000 c3 -5 10 -10 16 -10 5 0 9 5 9 10 0 6 -7 10 -16 10 -8 0
-12 -4 -9 -10z"/>
<path d="M2468 1993 c6 -2 18 -2 25 0 6 3 1 5 -13 5 -14 0 -19 -2 -12 -5z"/>
<path d="M2730 1990 c0 -5 5 -10 10 -10 6 0 10 5 10 10 0 6 -4 10 -10 10 -5 0
-10 -4 -10 -10z"/>
<path d="M6910 1996 c0 -8 51 -13 56 -5 3 5 -9 9 -25 9 -17 0 -31 -2 -31 -4z"/>
<path d="M1572 1913 c2 -10 14 -19 26 -21 19 -3 23 1 20 15 -2 10 -14 19 -26
21 -19 3 -23 -1 -20 -15z"/>
<path d="M1773 1914 c-7 -18 13 -35 34 -27 19 7 16 21 -7 33 -16 9 -22 8 -27
-6z"/>
<path d="M1877 1912 c-20 -22 -13 -32 20 -32 19 0 24 5 21 22 -4 29 -21 33
-41 10z"/>
<path d="M6770 1916 c0 -18 36 -40 44 -27 6 8 -5 20 -31 35 -8 4 -13 1 -13 -8z"/>
<path d="M6857 1923 c-12 -11 14 -33 39 -33 28 0 30 8 7 26 -20 15 -36 17 -46
7z"/>
<path d="M1055 1910 c-8 -12 20 -24 35 -15 5 3 10 10 10 16 0 12 -37 12 -45
-1z"/>
<path d="M1170 1911 c0 -10 40 -22 52 -15 18 11 6 24 -22 24 -16 0 -30 -4 -30
-9z"/>
<path d="M1285 1911 c-6 -11 33 -36 42 -27 3 3 3 12 0 21 -7 17 -33 20 -42 6z"/>
<path d="M1370 1901 c13 -25 33 -28 28 -4 -2 10 -11 19 -21 21 -16 3 -17 1 -7
-17z"/>
<path d="M1475 1910 c-4 -7 -3 -16 2 -21 12 -12 45 0 40 15 -5 15 -34 19 -42
6z"/>
<path d="M1672 1908 c7 -19 38 -22 38 -4 0 10 -9 16 -21 16 -12 0 -19 -5 -17
-12z"/>
<path d="M6977 1913 c-12 -11 -8 -23 8 -23 8 0 15 7 15 15 0 16 -12 20 -23 8z"/>
<path d="M7038 1898 c12 -12 25 -18 29 -14 4 4 -1 14 -11 22 -31 22 -43 17
-18 -8z"/>
<path d="M7140 1910 c0 -5 11 -10 25 -10 14 0 25 5 25 10 0 6 -11 10 -25 10
-14 0 -25 -4 -25 -10z"/>
<path d="M985 1899 c-10 -15 1 -23 20 -15 9 3 13 10 10 16 -8 13 -22 13 -30
-1z"/>
<path d="M1117 1904 c-8 -8 1 -24 14 -24 5 0 9 7 9 15 0 15 -12 20 -23 9z"/>
<path d="M2645 1900 c-3 -5 3 -10 15 -10 12 0 18 5 15 10 -3 6 -10 10 -15 10
-5 0 -12 -4 -15 -10z"/>
<path d="M2817 1904 c-9 -10 2 -24 19 -24 8 0 14 7 14 15 0 15 -21 21 -33 9z"/>
<path d="M2920 1896 c0 -10 9 -16 21 -16 24 0 21 23 -4 28 -10 2 -17 -3 -17
-12z"/>
<path d="M3030 1890 c0 -13 7 -20 20 -20 23 0 26 10 8 28 -18 18 -28 15 -28
-8z"/>
<path d="M2335 1890 c3 -5 12 -10 20 -10 8 0 17 5 20 10 4 6 -5 10 -20 10 -15
0 -24 -4 -20 -10z"/>
<path d="M2443 1893 c9 -2 23 -2 30 0 6 3 -1 5 -18 5 -16 0 -22 -2 -12 -5z"/>
<path d="M2563 1893 c9 -2 23 -2 30 0 6 3 -1 5 -18 5 -16 0 -22 -2 -12 -5z"/>
<path d="M2723 1893 c9 -2 23 -2 30 0 6 3 -1 5 -18 5 -16 0 -22 -2 -12 -5z"/>
<path d="M2263 1883 c9 -2 23 -2 30 0 6 3 -1 5 -18 5 -16 0 -22 -2 -12 -5z"/>
<path d="M1282 1809 c1 -12 9 -24 16 -27 9 -3 13 3 10 19 -1 12 -9 24 -16 27
-9 3 -13 -3 -10 -19z"/>
<path d="M1674 1815 c-7 -18 3 -35 21 -35 15 0 28 27 19 41 -8 14 -34 11 -40
-6z"/>
<path d="M1770 1811 c0 -22 26 -46 34 -32 8 13 -3 38 -20 45 -9 3 -14 -1 -14
-13z"/>
<path d="M6884 1815 c-7 -18 2 -45 15 -45 10 0 22 40 15 52 -8 13 -24 9 -30
-7z"/>
<path d="M1167 1814 c-11 -11 5 -34 24 -34 22 0 24 11 7 28 -13 13 -22 15 -31
6z"/>
<path d="M1472 1799 c1 -12 9 -24 16 -27 9 -3 13 3 10 19 -1 12 -9 24 -16 27
-9 3 -13 -3 -10 -19z"/>
<path d="M1560 1815 c0 -3 9 -16 20 -27 15 -17 23 -19 32 -10 8 8 8 15 -2 27
-12 14 -50 22 -50 10z"/>
<path d="M1870 1814 c0 -16 23 -44 35 -44 19 0 19 15 -1 34 -15 16 -34 21 -34
10z"/>
<path d="M6433 1813 c-15 -5 -18 -33 -4 -33 5 0 16 7 25 15 8 8 17 11 20 6 7
-10 44 -3 52 10 5 9 -72 11 -93 2z"/>
<path d="M6561 1811 c-8 -5 -9 -11 -3 -15 13 -8 42 3 42 15 0 11 -21 11 -39 0z"/>
<path d="M6671 1806 c-9 -10 -9 -16 -1 -21 17 -10 37 12 24 25 -8 8 -15 6 -23
-4z"/>
<path d="M6977 1813 c-13 -13 -7 -24 11 -21 11 2 26 -3 35 -11 15 -11 17 -11
17 1 0 28 -44 51 -63 31z"/>
<path d="M7190 1813 c0 -4 5 -15 10 -23 8 -13 10 -13 10 2 0 9 -4 20 -10 23
-5 3 -10 3 -10 -2z"/>
<path d="M760 1801 c0 -5 6 -14 14 -20 16 -13 32 2 21 19 -8 12 -35 13 -35 1z"/>
<path d="M990 1799 c0 -7 11 -8 31 -4 22 5 36 2 51 -12 21 -17 21 -17 15 0 -4
10 -7 21 -7 23 0 2 -20 4 -45 4 -26 0 -45 -5 -45 -11z"/>
<path d="M1380 1796 c0 -9 7 -16 16 -16 17 0 14 22 -4 28 -7 2 -12 -3 -12 -12z"/>
<path d="M2353 1803 c-7 -3 -13 -9 -13 -14 0 -12 37 -12 44 0 7 11 -14 20 -31
14z"/>
<path d="M2727 1804 c-13 -13 -7 -24 14 -24 11 0 19 5 17 12 -5 14 -22 21 -31
12z"/>
<path d="M2816 1801 c-8 -12 21 -34 34 -26 8 5 8 11 -1 21 -13 16 -25 18 -33
5z"/>
<path d="M3017 1804 c-10 -11 3 -24 24 -24 10 0 19 7 19 15 0 15 -31 21 -43 9z"/>
<path d="M3105 1800 c3 -5 15 -10 26 -10 10 0 19 5 19 10 0 6 -12 10 -26 10
-14 0 -23 -4 -19 -10z"/>
<path d="M4670 1801 c0 -11 40 -22 52 -15 5 3 6 10 3 15 -8 12 -55 12 -55 0z"/>
<path d="M4792 1798 c5 -15 28 -18 29 -3 0 6 -7 12 -17 13 -10 3 -15 -1 -12
-10z"/>
<path d="M4900 1796 c0 -8 5 -18 10 -21 6 -3 10 3 10 14 0 12 -4 21 -10 21 -5
0 -10 -6 -10 -14z"/>
<path d="M6770 1801 c0 -16 30 -33 47 -26 17 6 17 7 -1 21 -22 16 -46 19 -46
5z"/>
<path d="M7120 1801 c0 -12 28 -22 35 -12 3 5 -2 12 -11 15 -21 8 -24 8 -24
-3z"/>
<path d="M875 1790 c3 -5 10 -10 16 -10 5 0 9 5 9 10 0 6 -7 10 -16 10 -8 0
-12 -4 -9 -10z"/>
<path d="M2263 1783 c9 -9 19 -14 23 -11 10 10 -6 28 -24 28 -15 0 -15 -1 1
-17z"/>
<path d="M2445 1790 c-3 -5 1 -10 9 -10 9 0 16 5 16 10 0 6 -4 10 -9 10 -6 0
-13 -4 -16 -10z"/>
<path d="M2547 1794 c-4 -4 -4 -10 -2 -14 6 -10 45 0 45 11 0 10 -33 12 -43 3z"/>
<path d="M2645 1790 c3 -5 10 -10 16 -10 5 0 9 5 9 10 0 6 -7 10 -16 10 -8 0
-12 -4 -9 -10z"/>
<path d="M2923 1788 c2 -7 10 -13 17 -13 7 0 15 6 18 13 2 7 -5 12 -18 12 -13
0 -20 -5 -17 -12z"/>
<path d="M3113 1706 c4 -14 47 -21 47 -8 0 5 -11 12 -25 15 -16 3 -24 0 -22
-7z"/>
<path d="M4480 1711 c0 -15 28 -33 40 -26 8 5 8 11 -1 21 -13 15 -39 19 -39 5z"/>
<path d="M6760 1695 c0 -18 5 -25 20 -25 22 0 26 20 8 38 -19 19 -28 14 -28
-13z"/>
<path d="M690 1695 c-7 -9 -11 -18 -8 -20 7 -8 38 5 38 15 0 17 -18 19 -30 5z"/>
<path d="M1071 1701 c-11 -7 -9 -10 8 -16 25 -8 36 -2 26 14 -8 13 -15 14 -34
2z"/>
<path d="M1575 1699 c-4 -6 -1 -15 6 -20 21 -13 31 -11 27 8 -4 20 -24 28 -33
12z"/>
<path d="M1670 1696 c0 -10 9 -16 21 -16 24 0 21 23 -4 28 -10 2 -17 -3 -17
-12z"/>
<path d="M1770 1690 c0 -15 7 -20 25 -20 30 0 33 15 6 30 -27 14 -31 13 -31
-10z"/>
<path d="M1880 1696 c0 -14 37 -32 46 -23 6 6 -25 37 -37 37 -5 0 -9 -6 -9
-14z"/>
<path d="M2250 1695 c0 -8 7 -15 15 -15 8 0 15 4 15 9 0 5 -7 11 -15 15 -9 3
-15 0 -15 -9z"/>
<path d="M2814 1698 c-6 -9 12 -28 26 -28 12 0 31 18 24 22 -25 14 -44 16 -50
6z"/>
<path d="M4685 1700 c-9 -15 -4 -19 26 -22 16 -2 24 2 24 12 0 18 -40 26 -50
10z"/>
<path d="M4803 1703 c-7 -2 -13 -9 -13 -14 0 -14 26 -10 40 6 10 12 10 15 -1
14 -8 0 -20 -3 -26 -6z"/>
<path d="M6290 1700 c-8 -5 -12 -11 -10 -14 7 -7 90 5 90 13 0 10 -65 10 -80
1z"/>
<path d="M6627 1703 c-14 -13 -6 -21 18 -19 28 1 35 26 7 26 -10 0 -22 -3 -25
-7z"/>
<path d="M6865 1701 c-3 -5 2 -17 11 -26 15 -14 19 -15 32 -2 8 8 11 20 8 26
-9 13 -43 15 -51 2z"/>
<path d="M7168 1702 c-10 -2 -18 -7 -18 -12 0 -13 41 -23 51 -13 13 13 -11 31
-33 25z"/>
<path d="M770 1690 c0 -5 7 -10 15 -10 8 0 15 5 15 10 0 6 -7 10 -15 10 -8 0
-15 -4 -15 -10z"/>
<path d="M850 1690 c0 -5 14 -10 30 -10 17 0 30 5 30 10 0 6 -13 10 -30 10
-16 0 -30 -4 -30 -10z"/>
<path d="M975 1690 c3 -5 15 -10 25 -10 10 0 22 5 25 10 4 6 -7 10 -25 10 -18
0 -29 -4 -25 -10z"/>
<path d="M1160 1691 c0 -12 37 -24 50 -16 20 12 10 25 -20 25 -16 0 -30 -4
-30 -9z"/>
<path d="M1280 1690 c0 -5 11 -10 25 -10 14 0 25 5 25 10 0 6 -11 10 -25 10
-14 0 -25 -4 -25 -10z"/>
<path d="M1450 1685 c32 -18 40 -18 40 0 0 10 -10 15 -32 15 l-33 -1 25 -14z"/>
<path d="M2340 1691 c0 -12 29 -23 41 -15 18 10 9 24 -16 24 -14 0 -25 -4 -25
-9z"/>
<path d="M2460 1690 c0 -5 9 -10 20 -10 11 0 20 5 20 10 0 6 -9 10 -20 10 -11
0 -20 -4 -20 -10z"/>
<path d="M2558 1693 c6 -2 18 -2 25 0 6 3 1 5 -13 5 -14 0 -19 -2 -12 -5z"/>
<path d="M2656 1691 c-4 -5 -2 -12 3 -15 5 -4 12 -2 15 3 4 5 2 12 -3 15 -5 4
-12 2 -15 -3z"/>
<path d="M2715 1690 c3 -5 13 -10 21 -10 8 0 14 5 14 10 0 6 -9 10 -21 10 -11
0 -17 -4 -14 -10z"/>
<path d="M2920 1690 c0 -5 9 -10 21 -10 11 0 17 5 14 10 -3 6 -13 10 -21 10
-8 0 -14 -4 -14 -10z"/>
<path d="M3020 1690 c0 -5 9 -10 20 -10 11 0 20 5 20 10 0 6 -9 10 -20 10 -11
0 -20 -4 -20 -10z"/>
<path d="M3205 1690 c3 -5 15 -10 26 -10 10 0 19 5 19 10 0 6 -12 10 -26 10
-14 0 -23 -4 -19 -10z"/>
<path d="M4580 1690 c0 -5 9 -10 20 -10 11 0 20 5 20 10 0 6 -9 10 -20 10 -11
0 -20 -4 -20 -10z"/>
<path d="M4895 1690 c3 -5 10 -10 16 -10 5 0 9 5 9 10 0 6 -7 10 -16 10 -8 0
-12 -4 -9 -10z"/>
<path d="M4990 1690 c0 -5 9 -10 20 -10 11 0 20 5 20 10 0 6 -9 10 -20 10 -11
0 -20 -4 -20 -10z"/>
<path d="M6172 1690 c10 -6 25 -7 40 -1 20 9 18 10 -17 10 -31 0 -36 -2 -23
-9z"/>
<path d="M6410 1696 c0 -9 30 -14 35 -6 4 6 -3 10 -14 10 -12 0 -21 -2 -21 -4z"/>
<path d="M6510 1690 c0 -5 11 -10 25 -10 14 0 25 5 25 10 0 6 -11 10 -25 10
-14 0 -25 -4 -25 -10z"/>
<path d="M6990 1685 c7 -8 21 -15 31 -15 11 0 19 7 19 15 0 10 -10 15 -31 15
-27 0 -30 -2 -19 -15z"/>
<path d="M7300 1690 c0 -5 5 -10 10 -10 6 0 10 5 10 10 0 6 -4 10 -10 10 -5 0
-10 -4 -10 -10z"/>
<path d="M1980 1680 c0 -5 7 -10 16 -10 8 0 12 5 9 10 -3 6 -10 10 -16 10 -5
0 -9 -4 -9 -10z"/>
<path d="M4594 1609 c-10 -17 13 -36 27 -22 12 12 4 33 -11 33 -5 0 -12 -5
-16 -11z"/>
<path d="M1295 1600 c-8 -13 3 -30 21 -30 18 0 18 14 0 29 -10 8 -16 9 -21 1z"/>
<path d="M1455 1600 c-7 -12 2 -30 16 -30 5 0 9 9 9 20 0 21 -15 27 -25 10z"/>
<path d="M1682 1593 c5 -25 28 -28 28 -4 0 12 -6 21 -16 21 -9 0 -14 -7 -12
-17z"/>
<path d="M2570 1596 c0 -21 20 -30 33 -17 9 9 8 14 -3 21 -21 14 -30 12 -30
-4z"/>
<path d="M3312 1601 c-11 -6 -10 -9 5 -13 10 -3 26 -9 36 -13 13 -5 17 -2 17
14 0 22 -32 29 -58 12z"/>
<path d="M4372 1598 c-18 -18 -15 -28 8 -28 13 0 20 7 20 20 0 23 -10 26 -28
8z"/>
<path d="M4480 1594 c0 -9 7 -14 17 -12 25 5 28 28 4 28 -12 0 -21 -6 -21 -16z"/>
<path d="M4800 1595 c0 -9 5 -15 11 -13 6 2 11 8 11 13 0 5 -5 11 -11 13 -6 2
-11 -4 -11 -13z"/>
<path d="M4890 1595 c0 -8 5 -15 10 -15 6 0 10 7 10 15 0 8 -4 15 -10 15 -5 0
-10 -7 -10 -15z"/>
<path d="M5120 1600 c0 -5 5 -10 10 -10 6 0 10 5 10 10 0 6 -4 10 -10 10 -5 0
-10 -4 -10 -10z"/>
<path d="M6880 1599 c0 -8 7 -24 15 -35 11 -15 14 -16 15 -3 0 8 -7 24 -15 35
-11 15 -14 16 -15 3z"/>
<path d="M670 1584 c0 -9 5 -14 12 -12 18 6 21 28 4 28 -9 0 -16 -7 -16 -16z"/>
<path d="M860 1589 c0 -4 9 -13 21 -19 18 -10 20 -9 17 6 -3 17 -38 30 -38 13z"/>
<path d="M980 1584 c0 -17 22 -14 28 4 2 7 -3 12 -12 12 -9 0 -16 -7 -16 -16z"/>
<path d="M1080 1590 c0 -5 5 -10 11 -10 5 0 7 5 4 10 -3 6 -8 10 -11 10 -2 0
-4 -4 -4 -10z"/>
<path d="M1160 1591 c0 -13 29 -35 37 -28 7 8 -15 37 -28 37 -5 0 -9 -4 -9 -9z"/>
<path d="M1573 1583 c9 -9 19 -14 23 -11 10 10 -6 28 -24 28 -15 0 -15 -1 1
-17z"/>
<path d="M1783 1588 c2 -7 10 -13 17 -13 7 0 15 6 18 13 2 7 -5 12 -18 12 -13
0 -20 -5 -17 -12z"/>
<path d="M1883 1588 c2 -7 10 -13 17 -13 7 0 15 6 18 13 2 7 -5 12 -18 12 -13
0 -20 -5 -17 -12z"/>
<path d="M2000 1592 c0 -5 7 -15 15 -22 8 -7 15 -8 15 -2 0 5 -7 15 -15 22 -8
7 -15 8 -15 2z"/>
<path d="M2080 1590 c0 -5 7 -10 16 -10 8 0 12 5 9 10 -3 6 -10 10 -16 10 -5
0 -9 -4 -9 -10z"/>
<path d="M2226 1591 c-7 -11 22 -23 35 -15 5 3 7 10 4 15 -8 12 -32 12 -39 0z"/>
<path d="M2359 1579 c26 -21 37 -19 28 6 -4 8 -17 15 -29 15 l-23 -1 24 -20z"/>
<path d="M2705 1590 c-3 -5 -4 -10 -1 -10 2 0 11 -3 20 -6 11 -4 16 -1 16 10
0 18 -25 22 -35 6z"/>
<path d="M2822 1583 c5 -26 38 -29 38 -4 0 15 -6 21 -21 21 -14 0 -19 -5 -17
-17z"/>
<path d="M2940 1580 c0 -11 5 -20 10 -20 6 0 10 9 10 20 0 11 -4 20 -10 20 -5
0 -10 -9 -10 -20z"/>
<path d="M3030 1592 c0 -5 7 -16 16 -23 14 -12 16 -11 13 5 -4 20 -29 35 -29
18z"/>
<path d="M3125 1590 c3 -5 15 -10 26 -10 11 0 17 5 14 10 -3 6 -15 10 -26 10
-11 0 -17 -4 -14 -10z"/>
<path d="M3469 1584 c-11 -14 -10 -15 11 -12 13 1 25 9 28 16 5 17 -23 15 -39
-4z"/>
<path d="M4230 1586 c0 -8 7 -17 16 -20 21 -8 26 -3 18 18 -8 20 -34 21 -34 2z"/>
<path d="M4700 1590 c0 -5 9 -10 20 -10 11 0 20 5 20 10 0 6 -9 10 -20 10 -11
0 -20 -4 -20 -10z"/>
<path d="M5000 1596 c0 -2 7 -9 15 -16 12 -10 15 -10 15 4 0 9 -7 16 -15 16
-8 0 -15 -2 -15 -4z"/>
<path d="M6426 1592 c-3 -6 -1 -14 5 -17 15 -10 25 3 12 16 -7 7 -13 7 -17 1z"/>
<path d="M6986 1591 c-3 -5 1 -11 9 -15 9 -3 15 0 15 9 0 16 -16 20 -24 6z"/>
<path d="M7162 1589 c2 -7 10 -15 17 -17 8 -3 12 1 9 9 -2 7 -10 15 -17 17 -8
3 -12 -1 -9 -9z"/>
<path d="M3684 1575 c21 -16 32 -13 21 4 -3 6 -14 11 -23 11 -15 -1 -15 -2 2
-15z"/>
<path d="M6180 1580 c0 -5 9 -10 20 -10 11 0 20 5 20 10 0 6 -9 10 -20 10 -11
0 -20 -4 -20 -10z"/>
<path d="M6335 1580 c-3 -5 1 -10 9 -10 9 0 16 5 16 10 0 6 -4 10 -9 10 -6 0
-13 -4 -16 -10z"/>
<path d="M6505 1580 c3 -5 10 -10 16 -10 5 0 9 5 9 10 0 6 -7 10 -16 10 -8 0
-12 -4 -9 -10z"/>
<path d="M6633 1583 c9 -2 23 -2 30 0 6 3 -1 5 -18 5 -16 0 -22 -2 -12 -5z"/>
<path d="M7295 1580 c3 -5 8 -10 11 -10 2 0 4 5 4 10 0 6 -5 10 -11 10 -5 0
-7 -4 -4 -10z"/>
<path d="M3218 1573 c7 -3 16 -2 19 1 4 3 -2 6 -13 5 -11 0 -14 -3 -6 -6z"/>
<path d="M3566 1571 c-7 -10 22 -37 30 -28 9 8 -3 37 -15 37 -5 0 -12 -4 -15
-9z"/>
<path d="M4120 1565 c0 -16 27 -32 37 -21 7 7 -16 36 -28 36 -5 0 -9 -7 -9
-15z"/>
<path d="M4025 1550 c3 -5 10 -10 16 -10 5 0 9 5 9 10 0 6 -7 10 -16 10 -8 0
-12 -4 -9 -10z"/>
<path d="M3820 1480 c0 -19 3 -21 12 -12 9 9 9 15 0 24 -9 9 -12 7 -12 -12z"/>
<path d="M4586 1491 c-7 -11 22 -23 35 -15 5 3 9 9 9 15 0 12 -37 12 -44 0z"/>
<path d="M4860 1490 c0 -5 9 -10 21 -10 11 0 17 5 14 10 -3 6 -13 10 -21 10
-8 0 -14 -4 -14 -10z"/>
<path d="M932 1474 c1 -9 9 -19 16 -22 9 -3 13 2 10 14 -1 9 -9 19 -16 22 -9
3 -13 -2 -10 -14z"/>
<path d="M3646 1482 c-8 -14 21 -35 39 -28 16 6 21 26 6 26 -5 0 -16 3 -24 6
-8 3 -18 1 -21 -4z"/>
<path d="M4250 1467 c0 -31 13 -42 29 -23 8 10 6 17 -9 31 -20 18 -20 17 -20
-8z"/>
<path d="M4360 1470 c6 -11 15 -20 20 -20 6 0 10 9 10 20 0 13 -7 20 -20 20
-18 0 -19 -3 -10 -20z"/>
<path d="M4488 1465 c5 -28 17 -33 26 -9 10 26 7 34 -13 34 -14 0 -17 -6 -13
-25z"/>
<path d="M4710 1480 c-12 -8 -11 -10 8 -10 12 0 22 5 22 10 0 13 -11 13 -30 0z"/>
<path d="M5015 1480 c4 -6 11 -8 16 -5 14 9 11 15 -7 15 -8 0 -12 -5 -9 -10z"/>
<path d="M1090 1466 c0 -10 9 -16 21 -16 24 0 21 23 -4 28 -10 2 -17 -3 -17
-12z"/>
<path d="M1276 1466 c7 -19 38 -22 32 -3 -3 6 -12 13 -21 15 -12 2 -15 -1 -11
-12z"/>
<path d="M1440 1464 c0 -9 5 -14 12 -12 18 6 21 28 4 28 -9 0 -16 -7 -16 -16z"/>
<path d="M2695 1470 c3 -5 8 -10 11 -10 2 0 4 5 4 10 0 6 -5 10 -11 10 -5 0
-7 -4 -4 -10z"/>
<path d="M2825 1470 c-3 -5 1 -10 9 -10 9 0 16 5 16 10 0 6 -4 10 -9 10 -6 0
-13 -4 -16 -10z"/>
<path d="M3000 1473 c0 -5 5 -15 10 -23 7 -11 12 -12 21 -3 6 6 8 16 5 22 -8
12 -36 15 -36 4z"/>
<path d="M3162 1468 c6 -18 28 -21 28 -4 0 9 -7 16 -16 16 -9 0 -14 -5 -12
-12z"/>
<path d="M3317 1465 c-7 -16 8 -29 23 -20 15 9 12 35 -4 35 -8 0 -16 -7 -19
-15z"/>
<path d="M3488 1473 c-20 -5 -23 -18 -7 -29 6 -3 18 0 26 9 17 16 7 26 -19 20z"/>
<path d="M3950 1466 c0 -17 14 -29 23 -20 8 8 -3 34 -14 34 -5 0 -9 -6 -9 -14z"/>
<path d="M6510 1460 c0 -11 7 -20 15 -20 13 0 14 4 5 20 -6 11 -13 20 -15 20
-3 0 -5 -9 -5 -20z"/>
<path d="M6697 1466 c-6 -15 1 -26 15 -26 11 0 10 27 -1 34 -5 3 -11 0 -14 -8z"/>
<path d="M6866 1473 c-11 -11 -6 -23 9 -23 8 0 15 4 15 9 0 13 -16 22 -24 14z"/>
<path d="M7002 1468 c6 -18 28 -21 28 -4 0 9 -7 16 -16 16 -9 0 -14 -5 -12
-12z"/>
<path d="M4113 1455 c-9 -25 4 -29 17 -6 7 15 7 21 0 21 -6 0 -13 -7 -17 -15z"/>
<path d="M6352 1456 c1 -10 8 -17 13 -17 15 1 12 24 -3 29 -9 3 -13 -2 -10
-12z"/>
<path d="M5079 664 c-10 -13 -14 -54 -14 -173 l0 -156 38 -3 37 -3 0 170 c0
97 -4 171 -9 171 -5 0 -16 2 -24 5 -7 3 -20 -2 -28 -11z"/>
<path d="M4117 515 c-37 -85 -67 -161 -67 -169 0 -14 21 -26 46 -26 7 0 20 14
29 30 15 29 18 30 80 30 61 0 65 -2 80 -29 14 -29 22 -30 72 -16 7 3 -9 54
-46 147 -73 181 -77 188 -105 188 -19 0 -31 -20 -89 -155z m106 -23 l15 -42
-35 0 c-30 0 -34 3 -28 18 4 9 12 30 17 45 12 33 12 33 31 -21z"/>
<path d="M4608 664 c-16 -5 -18 -22 -18 -170 l0 -164 34 0 c37 0 46 15 46 76
0 30 2 32 51 36 73 7 98 35 105 118 9 89 -5 101 -118 106 -46 1 -91 1 -100 -2z
m128 -84 c11 0 14 -8 12 -27 -3 -24 -8 -28 -40 -31 -36 -3 -38 -2 -38 27 0 30
14 43 38 35 8 -2 20 -4 28 -4z"/>
</g>
</svg>
