<?xml version="1.0" standalone="no"?>
<!DOCTYPE svg PUBLIC "-//W3C//DTD SVG 20010904//EN"
 "http://www.w3.org/TR/2001/REC-SVG-20010904/DTD/svg10.dtd">
<svg version="1.0" xmlns="http://www.w3.org/2000/svg"
 width="583.000000pt" height="428.000000pt" viewBox="0 0 583.000000 428.000000"
 preserveAspectRatio="xMidYMid meet">

<g transform="translate(0.000000,428.000000) scale(0.100000,-0.100000)"
fill="#000000" stroke="none">
<path d="M2882 3985 c-29 -14 -73 -41 -98 -61 -83 -68 -134 -225 -106 -327 9
-33 8 -39 -6 -44 -9 -3 -44 -18 -77 -33 -33 -15 -154 -72 -270 -125 -227 -105
-308 -143 -428 -199 -42 -20 -81 -36 -86 -36 -5 0 -21 25 -35 54 -28 56 -91
118 -156 151 -44 23 -183 32 -233 16 -20 -7 -61 -29 -92 -50 -136 -93 -184
-270 -110 -415 77 -152 240 -219 405 -166 74 24 79 23 102 -20 14 -26 124
-195 188 -290 20 -30 45 -69 53 -87 9 -17 23 -37 30 -45 7 -7 21 -25 31 -40
17 -26 17 -27 -26 -80 -24 -30 -61 -78 -83 -107 -22 -28 -56 -72 -75 -96 -19
-24 -51 -65 -70 -91 -77 -104 -79 -105 -134 -93 -97 22 -251 -34 -317 -114
-55 -65 -66 -87 -84 -164 -15 -62 -16 -82 -5 -135 6 -35 20 -82 30 -106 27
-60 107 -137 177 -169 50 -24 71 -27 148 -27 77 0 99 4 150 28 69 32 128 84
156 139 11 20 24 37 29 37 6 0 41 -15 78 -33 37 -19 83 -39 102 -47 37 -13
163 -68 290 -125 41 -18 121 -53 177 -76 l101 -43 4 -75 c4 -94 40 -174 110
-244 62 -62 123 -88 219 -95 171 -10 305 83 362 252 9 27 17 71 17 98 0 42 4
51 28 66 15 9 43 29 62 44 45 35 237 178 270 200 14 10 59 42 100 73 41 30 91
66 111 79 20 13 42 31 50 39 8 7 32 26 54 41 22 14 56 39 76 54 20 15 73 54
118 87 45 33 97 71 115 85 18 14 71 52 116 85 45 33 99 72 119 87 20 15 54 40
76 55 22 15 42 31 45 34 3 4 31 25 63 47 52 36 62 40 85 30 15 -5 58 -10 95
-11 59 0 77 5 143 39 41 21 81 48 89 60 7 12 20 28 28 36 68 68 83 263 26 354
-84 136 -245 203 -381 159 -29 -10 -70 -29 -90 -42 -21 -12 -40 -23 -43 -23
-8 0 -73 48 -102 75 -12 11 -45 39 -75 62 -29 23 -99 79 -155 125 -56 46 -130
105 -165 132 -35 27 -67 54 -73 60 -5 6 -38 34 -73 61 -35 28 -109 87 -165
133 -56 46 -126 102 -155 125 -29 23 -66 53 -81 67 -16 14 -53 44 -82 67 -221
174 -229 182 -229 222 0 49 -52 153 -100 201 -20 20 -65 51 -100 68 -84 43
-187 45 -268 7z m219 -51 c106 -31 189 -148 189 -264 0 -105 -64 -205 -163
-255 -178 -89 -399 52 -398 255 1 195 179 321 372 264z m369 -434 c58 -46 112
-89 120 -96 8 -7 34 -29 57 -49 23 -20 55 -46 72 -58 16 -12 98 -78 181 -147
83 -69 166 -135 183 -148 18 -13 46 -36 62 -51 17 -15 40 -34 51 -42 12 -8 90
-70 173 -139 84 -69 167 -137 186 -151 19 -15 51 -41 70 -58 l36 -32 -25 -43
c-16 -28 -28 -66 -32 -110 l-7 -66 -106 0 c-58 0 -341 -3 -628 -7 l-523 -6 0
21 c0 34 -44 123 -84 169 -22 25 -64 56 -104 75 -125 62 -263 40 -372 -58 -24
-21 -51 -58 -61 -81 -10 -24 -21 -43 -25 -43 -4 0 -51 30 -106 68 -54 37 -107
72 -116 77 -9 6 -38 25 -64 44 l-47 34 22 28 c12 15 36 44 52 65 17 20 37 47
45 60 16 24 98 130 139 180 49 59 80 99 103 132 44 62 172 227 191 246 15 14
36 19 100 20 133 3 229 61 297 179 16 29 30 60 30 71 0 13 4 16 13 9 6 -5 59
-47 117 -93z m-703 -63 c22 -24 54 -49 72 -56 17 -8 31 -18 31 -24 0 -5 -15
-27 -32 -48 -18 -21 -50 -59 -70 -86 -95 -121 -141 -181 -171 -221 -17 -24
-48 -63 -67 -86 -19 -24 -60 -76 -90 -116 -75 -99 -121 -154 -130 -158 -5 -2
-41 19 -81 45 -39 26 -89 59 -110 73 -21 14 -70 48 -109 75 -40 28 -87 59
-104 70 -97 61 -97 61 -93 128 5 71 -5 62 197 153 69 31 159 72 200 91 146 68
227 106 360 168 108 50 137 60 146 50 5 -8 28 -33 51 -58z m-1184 -123 c93
-31 166 -132 175 -239 4 -52 0 -70 -23 -118 -30 -65 -70 -117 -90 -117 -7 0
-18 -6 -24 -13 -16 -21 -90 -39 -149 -39 -74 1 -154 42 -204 105 -47 60 -53
82 -52 177 0 86 20 134 79 190 66 64 190 88 288 54z m372 -512 c22 -15 102
-68 177 -117 75 -50 137 -94 137 -98 1 -4 -36 -55 -81 -114 -46 -58 -94 -122
-108 -142 -14 -20 -30 -35 -35 -35 -5 1 -18 18 -29 37 -51 86 -102 165 -126
197 -25 33 -83 123 -124 193 -10 17 -27 42 -37 56 -24 30 -24 48 0 60 10 6 26
26 35 46 l17 35 67 -45 c37 -24 85 -57 107 -73z m3078 -223 c104 -54 155 -124
165 -231 10 -110 -63 -231 -165 -274 -48 -21 -169 -18 -218 5 -95 44 -160 149
-158 256 1 101 69 201 167 246 58 26 154 25 209 -2z m-2526 -146 c185 -123
172 -110 173 -173 0 -30 4 -69 9 -86 8 -30 6 -33 -38 -65 -100 -72 -258 -181
-281 -194 -10 -6 -25 -17 -35 -25 -10 -8 -19 -10 -23 -4 -4 5 -38 56 -76 114
-38 58 -86 130 -107 162 -22 31 -39 65 -39 75 0 10 18 41 40 68 40 51 78 100
151 193 l41 52 38 -22 c21 -13 87 -55 147 -95z m626 75 c47 -23 98 -73 123
-118 15 -27 19 -56 19 -130 0 -91 -1 -97 -33 -143 -38 -54 -96 -100 -149 -118
-19 -6 -65 -9 -102 -7 -99 5 -170 50 -219 138 -33 58 -37 72 -37 135 1 61 5
78 34 128 38 66 107 124 160 132 20 4 43 8 51 10 31 6 116 -8 153 -27z m1477
-273 c0 -39 98 -175 126 -175 25 0 15 -14 -37 -50 -28 -19 -68 -48 -89 -65
-38 -30 -223 -166 -323 -238 -28 -20 -56 -41 -62 -45 -5 -4 -46 -35 -89 -67
-72 -54 -103 -77 -192 -140 -43 -30 -234 -170 -279 -205 -22 -16 -92 -68 -155
-114 -63 -46 -127 -94 -142 -105 -14 -12 -28 -21 -31 -21 -3 0 -19 24 -35 53
-60 104 -162 171 -279 184 -60 7 -123 -7 -196 -43 l-52 -25 -27 33 c-16 18
-28 36 -28 41 0 4 -18 32 -40 62 -22 30 -40 57 -40 59 0 3 -19 34 -42 69 -24
34 -63 94 -87 132 -24 39 -51 81 -60 94 -9 13 -35 54 -58 90 l-42 66 22 18
c12 10 56 41 97 69 118 80 134 92 155 109 11 10 38 27 59 39 l39 21 51 -48
c79 -75 133 -98 236 -98 76 0 92 4 146 32 33 17 77 50 98 73 39 43 86 132 86
162 0 51 -37 48 641 48 561 0 629 -2 629 -15z m-2538 -92 c115 -173 188 -289
188 -297 0 -10 -63 -57 -134 -100 -17 -10 -33 -21 -36 -25 -9 -13 -186 -131
-196 -131 -5 0 -18 17 -29 37 -22 40 -96 114 -126 125 -11 4 -19 10 -19 14 0
3 26 40 58 82 31 41 68 90 82 108 121 158 174 224 180 224 4 0 19 -17 32 -37z
m282 -431 c27 -42 83 -129 125 -192 41 -63 80 -123 86 -132 52 -87 103 -165
126 -195 37 -45 36 -65 -2 -124 -31 -48 -31 -49 -59 -34 -16 8 -34 15 -40 15
-6 0 -42 15 -80 34 -37 19 -79 37 -92 41 -13 4 -55 22 -93 40 -39 18 -82 36
-95 40 -14 4 -50 20 -80 35 -30 15 -91 42 -135 59 -43 18 -84 36 -90 41 -6 5
-9 45 -8 96 2 103 -6 92 146 195 60 41 137 93 170 116 34 24 64 43 67 42 3 0
27 -34 54 -77z m-665 3 c123 -68 181 -178 165 -315 -12 -100 -70 -180 -167
-229 -150 -76 -326 -16 -402 136 -25 48 -29 71 -30 133 0 144 82 254 225 301
51 17 154 4 209 -26z m1432 -557 c89 -47 139 -109 155 -195 13 -69 5 -153 -19
-198 -24 -46 -79 -99 -134 -128 -120 -64 -267 -32 -357 79 -34 42 -45 64 -55
121 -26 134 24 248 139 314 56 33 69 36 147 38 51 1 72 -4 124 -31z"/>
<path d="M4382 3398 c-7 -7 -12 -31 -12 -54 0 -36 4 -43 29 -54 44 -18 91 15
91 64 0 42 -78 74 -108 44z m74 -32 c7 -27 -10 -66 -29 -66 -21 0 -37 22 -37
50 0 33 7 40 36 40 17 0 25 -7 30 -24z"/>
<path d="M5010 3350 l0 -60 40 0 c22 0 40 5 40 10 0 6 -13 10 -30 10 -29 0
-30 1 -30 50 0 28 -4 50 -10 50 -6 0 -10 -27 -10 -60z"/>
<path d="M4617 3392 c-3 -4 -3 -28 0 -55 5 -39 9 -47 26 -47 16 0 18 3 9 12
-16 16 -15 55 0 60 9 3 8 9 -4 21 -18 19 -25 21 -31 9z"/>
<path d="M4891 3384 c-9 -11 -10 -18 -3 -23 5 -3 12 -20 14 -36 2 -20 9 -31
23 -33 16 -3 18 -1 8 9 -17 17 -17 56 -1 61 9 3 8 9 -4 21 -20 20 -19 20 -37
1z"/>
<path d="M4510 3336 c0 -48 7 -54 52 -48 26 4 28 8 28 48 0 24 -4 44 -10 44
-5 0 -10 -13 -10 -28 0 -27 -15 -52 -32 -52 -4 0 -8 18 -8 40 0 22 -4 40 -10
40 -5 0 -10 -20 -10 -44z"/>
<path d="M4680 3313 c0 -40 4 -62 10 -58 6 3 10 13 10 22 0 9 6 13 14 10 26
-10 48 16 44 53 -3 33 -5 35 -40 36 l-38 1 0 -64z m58 23 c2 -10 -1 -23 -7
-29 -16 -16 -44 14 -35 37 8 22 38 17 42 -8z"/>
<path d="M4780 3346 c0 -38 25 -70 47 -62 8 3 21 6 29 6 10 0 14 13 14 45 0
54 -18 60 -22 8 -2 -26 -8 -38 -18 -38 -10 0 -16 12 -18 38 -4 49 -32 52 -32
3z"/>
<path d="M5123 3374 c-24 -10 -14 -26 12 -20 14 4 25 2 25 -3 0 -5 -11 -12
-25 -15 -16 -4 -25 -13 -25 -25 0 -23 17 -31 54 -24 25 5 27 9 24 47 -3 36 -6
41 -28 43 -14 1 -31 -1 -37 -3z m37 -64 c0 -5 -7 -10 -16 -10 -8 0 -12 5 -9
10 3 6 10 10 16 10 5 0 9 -4 9 -10z"/>
<path d="M5210 3371 c0 -7 7 -28 15 -49 15 -34 15 -38 -1 -49 -20 -15 -13 -28
10 -20 13 5 40 55 59 110 12 32 -21 18 -33 -15 l-13 -33 -6 29 c-6 28 -31 50
-31 27z"/>
<path d="M5316 3364 c-20 -52 12 -96 54 -74 29 15 25 20 -10 14 -19 -4 -30 -2
-30 5 0 6 14 11 30 11 25 0 30 4 30 24 0 35 -62 52 -74 20z m49 -14 c3 -5 -3
-10 -14 -10 -12 0 -21 5 -21 10 0 6 6 10 14 10 8 0 18 -4 21 -10z"/>
<path d="M5410 3333 c0 -32 4 -43 15 -43 10 0 15 10 15 30 0 18 6 33 15 36 25
10 17 21 -15 21 -29 0 -30 -2 -30 -44z"/>
<path d="M4927 3233 c-4 -3 -7 -50 -7 -104 l0 -98 -137 -3 -138 -3 0 -145 c0
-134 1 -145 19 -148 30 -6 36 16 36 136 l0 112 273 -2 272 -3 3 -207 c2 -178
5 -207 18 -212 41 -16 44 6 42 243 l-3 226 -162 3 -163 2 0 93 c0 91 -8 117
-35 117 -7 0 -15 -3 -18 -7z"/>
<path d="M750 2735 l0 -414 -107 -3 c-100 -3 -108 -4 -108 -23 0 -18 8 -20
105 -25 l105 -5 5 -420 5 -420 169 -3 c172 -3 192 1 179 35 -4 10 -38 13 -149
13 l-144 0 0 810 0 809 143 3 142 3 3 28 3 27 -175 0 -176 0 0 -415z"/>
<path d="M50 2403 c0 -75 17 -77 20 -3 3 62 1 70 -10 70 -6 0 -10 -29 -10 -67z"/>
<path d="M420 2443 c-10 -12 -11 -18 -2 -21 7 -2 12 -19 12 -37 0 -36 15 -54
32 -37 6 6 6 12 -1 16 -15 10 -14 53 1 58 9 3 8 9 -4 21 -20 20 -19 20 -38 0z"/>
<path d="M100 2386 c0 -53 16 -54 22 -1 5 45 32 39 36 -8 4 -43 25 -46 30 -4
5 43 -14 67 -53 65 l-35 -1 0 -51z"/>
<path d="M200 2374 c0 -50 3 -64 15 -64 8 0 15 9 15 21 0 16 4 19 19 14 30 -9
56 34 40 68 -10 21 -18 26 -50 25 l-39 0 0 -64z m74 29 c8 -19 -17 -48 -33
-39 -12 8 -15 39 -4 49 12 12 31 7 37 -10z"/>
<path d="M310 2401 c0 -45 13 -58 55 -56 28 2 30 4 33 48 2 36 0 47 -12 47
-10 0 -16 -12 -18 -37 -2 -21 -7 -38 -13 -38 -5 0 -11 17 -13 38 -4 52 -32 51
-32 -2z"/>
<path d="M50 2190 l0 -60 40 0 c22 0 40 5 40 10 0 6 -13 10 -30 10 -29 0 -30
1 -30 50 0 28 -4 50 -10 50 -6 0 -10 -27 -10 -60z"/>
<path d="M155 2210 c-10 -17 3 -26 17 -12 16 16 28 15 28 -3 0 -8 -9 -15 -20
-15 -20 0 -44 -32 -33 -44 3 -3 24 -6 45 -6 l39 0 -3 43 c-3 39 -5 42 -35 45
-17 2 -34 -2 -38 -8z m45 -55 c0 -8 -7 -15 -15 -15 -26 0 -18 20 13 29 1 1 2
-6 2 -14z"/>
<path d="M250 2210 c0 -6 7 -27 15 -47 18 -44 18 -43 -1 -43 -9 0 -14 -6 -11
-12 12 -38 54 12 73 86 7 28 -13 38 -21 11 -16 -49 -17 -50 -27 -17 -8 30 -28
45 -28 22z"/>
<path d="M354 2206 c-3 -8 -4 -27 -2 -43 2 -22 9 -29 32 -31 16 -2 33 1 39 7
8 8 3 10 -21 5 -25 -5 -32 -3 -32 10 0 11 9 16 31 16 26 0 30 3 27 23 -2 17
-11 23 -36 25 -21 2 -34 -2 -38 -12z m56 -16 c0 -5 -9 -10 -20 -10 -11 0 -20
5 -20 10 0 6 9 10 20 10 11 0 20 -4 20 -10z"/>
<path d="M450 2173 c0 -47 22 -58 25 -13 1 12 9 28 18 35 25 18 21 24 -13 23
-29 -1 -30 -3 -30 -45z"/>
<path d="M3417 653 c-4 -3 -7 -55 -7 -115 l0 -108 -380 0 -380 0 0 68 c0 78
-9 97 -39 87 -21 -6 -22 -12 -19 -108 l3 -102 207 -3 207 -2 3 -78 c3 -66 6
-77 22 -80 27 -6 36 15 36 91 l0 67 188 0 c133 0 192 4 200 12 13 13 18 232 6
262 -6 16 -35 22 -47 9z"/>
<path d="M2520 125 c0 -51 3 -65 15 -65 10 0 15 10 15 30 0 25 4 30 25 30 21
0 25 -5 25 -30 0 -20 5 -30 15 -30 12 0 15 14 15 65 0 51 -3 65 -15 65 -9 0
-15 -9 -15 -25 0 -20 -5 -25 -25 -25 -20 0 -25 5 -25 25 0 16 -6 25 -15 25
-12 0 -15 -14 -15 -65z"/>
<path d="M2650 180 c0 -5 5 -10 10 -10 6 0 10 5 10 10 0 6 -4 10 -10 10 -5 0
-10 -4 -10 -10z"/>
<path d="M2760 170 c0 -16 -4 -20 -18 -16 -30 10 -58 -28 -46 -62 8 -23 16
-27 51 -29 l41 -2 -1 61 c-1 39 -7 63 -14 66 -8 2 -13 -5 -13 -18z m-2 -64
c-4 -31 -38 -34 -38 -3 0 29 7 37 27 30 8 -3 13 -15 11 -27z"/>
<path d="M2870 169 c0 -15 -5 -19 -19 -14 -38 12 -69 -53 -39 -83 7 -7 27 -12
45 -12 l33 0 0 65 c0 37 -4 65 -10 65 -5 0 -10 -9 -10 -21z m-5 -60 c0 -28
-29 -38 -39 -13 -7 19 11 47 28 41 6 -2 11 -14 11 -28z"/>
<path d="M3180 125 l0 -65 46 0 c53 0 58 23 6 28 -31 3 -32 5 -32 53 0 27 -4
49 -10 49 -6 0 -10 -28 -10 -65z"/>
<path d="M2929 141 c-20 -16 -22 -23 -14 -47 12 -34 54 -44 75 -19 12 14 10
16 -15 13 -16 -2 -30 2 -32 10 -3 8 6 12 26 12 34 0 39 11 15 34 -20 20 -27
20 -55 -3z m36 -11 c3 -5 -1 -10 -10 -10 -9 0 -13 5 -10 10 3 6 8 10 10 10 2
0 7 -4 10 -10z"/>
<path d="M3043 153 c-20 -4 -23 -11 -23 -49 0 -24 5 -44 10 -44 6 0 10 15 10
34 0 20 6 36 14 39 20 8 26 -2 26 -40 0 -23 5 -33 15 -33 18 0 21 51 5 81 -11
19 -15 20 -57 12z"/>
<path d="M3294 146 c-10 -8 -16 -18 -11 -22 4 -4 13 -2 19 4 15 15 38 16 38 2
0 -5 -9 -10 -19 -10 -11 0 -27 -7 -36 -16 -22 -23 -2 -44 41 -44 33 0 34 1 34
44 0 31 -5 46 -16 50 -22 9 -28 8 -50 -8z m46 -51 c0 -8 -9 -15 -20 -15 -22 0
-27 15 -7 23 21 9 27 7 27 -8z"/>
<path d="M3496 144 c-36 -36 -9 -92 39 -80 32 8 33 25 1 23 -37 -3 -32 17 6
23 l33 5 -22 23 c-27 26 -36 27 -57 6z m39 -14 c3 -5 -3 -10 -15 -10 -12 0
-18 5 -15 10 3 6 10 10 15 10 5 0 12 -4 15 -10z"/>
<path d="M3603 153 c-20 -4 -23 -11 -23 -49 0 -24 5 -44 10 -44 6 0 10 14 10
31 0 22 5 32 20 36 18 5 30 35 13 32 -5 -1 -18 -4 -30 -6z"/>
<path d="M2650 105 c0 -25 5 -45 10 -45 6 0 10 20 10 45 0 25 -4 45 -10 45 -5
0 -10 -20 -10 -45z"/>
<path d="M3385 133 c26 -64 28 -75 14 -84 -17 -10 -7 -21 12 -14 20 7 61 115
45 115 -7 0 -18 -10 -24 -22 l-11 -23 -7 23 c-3 12 -13 22 -21 22 -10 0 -13
-5 -8 -17z"/>
</g>
</svg>
