<?xml version="1.0" standalone="no"?>
<!DOCTYPE svg PUBLIC "-//W3C//DTD SVG 20010904//EN"
 "http://www.w3.org/TR/2001/REC-SVG-20010904/DTD/svg10.dtd">
<svg version="1.0" xmlns="http://www.w3.org/2000/svg"
 width="1583.000000pt" height="2048.000000pt" viewBox="0 0 1583.000000 2048.000000"
 preserveAspectRatio="xMidYMid meet">

<g transform="translate(0.000000,2048.000000) scale(0.100000,-0.100000)"
fill="#000000" stroke="none">
<path d="M12610 20456 c-8 -17 -11 -41 -6 -73 6 -48 53 -205 76 -255 15 -32
45 -45 65 -28 13 11 15 0 15 -76 l-1 -89 -65 69 c-36 39 -77 89 -91 113 -47
81 -86 26 -43 -62 28 -57 142 -165 175 -165 30 0 30 3 4 -90 -38 -137 -112
-235 -259 -345 -97 -72 -196 -121 -262 -131 -24 -3 -59 -12 -79 -19 -20 -8
-81 -15 -135 -16 l-99 -2 -6 64 c-4 35 -7 103 -8 151 -1 88 -7 103 -35 92 -29
-11 -39 -79 -26 -187 6 -54 14 -105 17 -113 3 -8 1 -14 -3 -14 -5 0 -36 -5
-69 -10 -45 -7 -61 -7 -67 3 -13 20 -8 238 7 307 19 86 19 120 0 120 -55 0
-97 -223 -72 -389 l8 -54 -33 8 c-18 4 -47 8 -63 9 -65 4 -205 111 -236 181
-10 22 -19 55 -19 73 0 39 -26 55 -46 27 -22 -30 -17 -106 9 -156 24 -46 110
-122 187 -166 25 -15 55 -37 68 -49 12 -13 41 -29 65 -35 23 -7 43 -13 44 -14
2 -1 -18 -51 -43 -111 -73 -173 -69 -161 -54 -179 39 -47 79 11 136 195 l32
105 63 12 c137 26 252 43 257 38 3 -2 -16 -23 -42 -46 -61 -54 -198 -219 -242
-291 -41 -68 -42 -101 -3 -106 22 -3 34 7 73 62 69 96 194 242 275 320 l72 68
122 -5 c159 -6 439 -70 460 -104 11 -18 -20 -118 -60 -198 -36 -71 -46 -82
-84 -99 -74 -33 -260 -164 -332 -235 -76 -73 -112 -131 -103 -166 4 -16 -7
-41 -39 -89 -81 -121 -135 -265 -135 -360 0 -36 -2 -38 -64 -67 -80 -37 -198
-71 -209 -60 -4 4 -13 39 -19 77 -13 86 1 190 42 303 32 90 42 111 82 165 35
48 37 76 5 76 -33 0 -69 -43 -110 -130 -55 -117 -69 -168 -74 -266 -5 -79 6
-195 23 -237 3 -10 -10 -18 -43 -27 -26 -6 -68 -18 -92 -26 -41 -13 -46 -13
-62 5 -10 11 -26 22 -36 25 -34 11 -518 76 -668 91 -82 8 -220 23 -305 34 -85
11 -186 22 -225 26 -212 18 -362 46 -485 90 -25 9 -111 32 -191 51 -119 27
-167 34 -252 34 -58 0 -117 -4 -131 -10 -34 -13 -33 3 2 28 49 35 155 73 252
89 57 9 131 31 185 53 101 42 153 54 305 69 58 6 133 13 167 17 l63 6 -6 -30
c-22 -109 170 -220 508 -291 118 -25 176 -27 184 -6 14 35 -21 52 -296 139
-226 72 -344 132 -320 161 6 7 9 18 8 25 -2 8 27 19 82 31 47 10 98 22 114 26
16 5 87 3 165 -4 143 -14 362 -4 402 17 21 12 25 40 8 57 -7 7 -3 18 15 36 31
31 33 65 5 101 -27 35 -68 34 -161 -3 -101 -40 -200 -66 -353 -95 -164 -30
-232 -39 -220 -28 45 40 330 195 533 291 67 32 92 49 92 62 0 28 -46 24 -149
-10 -231 -78 -481 -230 -564 -343 -9 -13 -36 -18 -122 -24 l-110 -7 49 59 c85
101 147 163 258 254 169 139 347 237 501 276 107 27 137 66 72 96 -40 18 -110
-4 -280 -88 -320 -157 -487 -290 -649 -517 l-47 -65 -172 -1 c-172 -1 -308 10
-380 31 -51 15 -87 59 -87 106 0 68 29 172 65 237 19 36 51 94 70 129 l36 65
82 27 c104 34 200 82 302 150 98 65 117 81 149 129 30 43 33 71 10 103 -24 35
-69 30 -90 -10 -30 -60 -77 -111 -139 -150 -70 -46 -224 -122 -231 -115 -6 6
73 137 174 290 84 127 101 172 82 217 -13 30 -12 31 81 128 109 114 113 116
159 117 29 0 36 5 44 29 10 25 7 31 -22 57 -38 34 -59 36 -110 10 -40 -21 -74
-59 -171 -194 -35 -48 -65 -86 -67 -84 -2 1 10 41 26 87 38 114 47 182 25 204
-9 9 -24 16 -34 16 -41 0 -53 -24 -82 -166 -31 -149 -36 -223 -18 -253 16 -25
-7 -90 -79 -219 -48 -88 -57 -99 -59 -75 -2 15 -8 72 -14 125 -10 78 -9 106 1
144 13 45 12 48 -9 65 -44 36 -100 -15 -109 -99 -2 -27 3 -80 12 -119 9 -39
19 -116 22 -172 7 -99 7 -100 -17 -110 -13 -5 -40 -28 -59 -52 -19 -24 -92
-106 -163 -181 -112 -118 -137 -140 -184 -158 -101 -38 -133 -28 -191 56 -20
30 -21 32 -5 135 l17 104 77 106 c42 58 87 121 98 140 28 45 29 127 2 160
l-19 24 -29 -21 c-18 -13 -36 -43 -50 -82 -20 -56 -91 -177 -100 -169 -9 10
50 302 76 372 33 90 46 162 36 194 -7 22 -52 51 -80 51 -9 0 -29 -12 -44 -28
l-28 -27 -22 85 c-12 47 -30 105 -39 130 -27 71 -94 91 -109 32 -6 -26 105
-384 133 -430 13 -20 12 -38 -15 -165 -16 -78 -32 -172 -36 -209 -7 -64 -16
-81 -30 -58 -3 5 -19 85 -35 177 -49 276 -73 348 -116 348 -28 0 -30 -65 -4
-215 52 -302 83 -380 147 -380 21 0 23 -2 13 -14 -8 -11 -10 -46 -4 -130 7
-120 -5 -224 -33 -279 -13 -26 -16 -27 -66 -21 -29 4 -74 16 -102 26 -61 25
-127 44 -180 53 -60 10 -92 31 -112 72 -26 55 -179 205 -235 231 -29 14 -68
22 -99 22 -43 0 -55 -5 -80 -29 -32 -32 -38 -65 -14 -75 9 -3 35 -3 59 0 35 5
55 1 93 -17 50 -24 223 -188 223 -212 0 -14 -40 -37 -63 -37 -7 0 -36 -16 -64
-35 -55 -37 -353 -205 -363 -205 -4 0 -47 39 -96 86 -113 109 -176 151 -246
166 -48 10 -62 9 -101 -6 -81 -31 -167 -121 -167 -176 0 -39 28 -33 86 19 131
116 167 109 402 -76 l53 -42 -77 -48 c-114 -72 -259 -176 -347 -249 -42 -35
-87 -69 -100 -76 -48 -28 -57 -40 -57 -83 0 -42 -2 -45 -177 -213 -179 -170
-247 -232 -255 -232 -9 0 3 102 23 202 14 70 30 115 56 160 44 76 157 243 189
278 53 59 134 184 134 206 0 39 -23 28 -92 -43 -76 -80 -151 -179 -246 -324
-37 -57 -75 -105 -83 -107 -40 -9 -62 -75 -81 -247 -12 -100 -13 -106 -20 -65
-3 25 -7 96 -7 158 -1 125 -9 152 -47 152 -60 0 -69 -137 -28 -430 l25 -182
-26 -37 c-14 -20 -52 -74 -83 -120 -109 -160 -214 -261 -274 -261 -50 0 -292
-49 -543 -110 -286 -70 -361 -91 -573 -167 -127 -45 -190 -60 -385 -94 -216
-37 -252 -41 -522 -49 -159 -5 -335 -14 -390 -19 -55 -6 -292 -10 -526 -11
l-427 0 -68 26 c-37 14 -104 34 -148 44 -96 23 -266 81 -266 91 0 22 55 68
106 89 32 13 111 54 176 92 66 37 126 68 134 68 8 0 24 5 35 11 15 7 42 6 102
-7 105 -21 234 -21 317 0 90 23 409 183 434 218 25 35 14 75 -27 98 -30 17
-19 22 -145 -62 -90 -60 -211 -121 -281 -142 -57 -17 -236 -23 -245 -8 -3 5
18 17 47 27 135 48 244 98 291 133 100 76 186 170 217 236 44 94 47 129 16
160 -39 39 -63 33 -123 -31 -30 -31 -54 -60 -54 -64 0 -4 -18 -30 -40 -57 -53
-68 -83 -88 -409 -274 -98 -57 -104 -58 -122 -42 -16 14 -19 31 -19 103 0 49
-6 97 -13 111 -16 31 -65 40 -83 15 -14 -19 -10 -128 8 -212 8 -38 8 -56 0
-66 -25 -30 -349 -46 -366 -19 -2 4 11 32 31 62 63 99 110 204 122 270 14 83
50 170 90 220 l32 40 52 -29 c106 -60 250 -76 388 -45 125 28 279 150 279 220
0 73 -51 66 -170 -22 -41 -31 -93 -64 -115 -74 -85 -39 -187 -43 -300 -11 -76
21 -76 25 -7 91 80 77 140 107 237 119 83 10 115 29 115 67 0 36 -36 54 -110
54 -118 -1 -217 -51 -355 -182 l-72 -67 -17 72 c-37 157 -83 215 -146 182 -42
-22 -46 -52 -20 -158 12 -51 25 -132 27 -182 8 -144 -7 -184 -149 -401 -67
-101 -126 -180 -130 -176 -5 5 -22 55 -39 112 -23 80 -28 114 -23 151 5 39 2
55 -15 84 -19 33 -21 46 -16 168 3 73 11 190 17 261 l11 130 -27 23 c-53 45
-111 17 -120 -59 -15 -126 -28 -390 -26 -532 4 -303 5 -299 -85 -471 -76 -148
-92 -166 -129 -152 -10 4 -10 26 1 109 9 62 12 154 10 233 -4 116 -8 143 -41
245 -20 63 -46 148 -59 189 -25 83 -46 106 -74 78 -34 -33 -23 -133 31 -281
26 -72 50 -159 54 -195 6 -59 -4 -360 -13 -369 -2 -2 -25 -4 -51 -5 l-47 -2
-62 81 c-94 125 -108 184 -124 529 -12 251 -30 460 -42 493 -6 15 -17 22 -33
22 -42 0 -49 -28 -37 -148 6 -59 11 -235 10 -392 0 -260 1 -291 21 -358 11
-40 28 -84 36 -98 23 -35 7 -30 -55 17 -152 115 -299 159 -332 98 -19 -36 -2
-57 54 -69 73 -15 145 -50 251 -123 50 -35 110 -74 134 -87 l43 -24 -73 -26
c-82 -28 -177 -83 -252 -145 -92 -74 -298 -283 -291 -294 19 -32 72 -1 269
157 143 114 312 213 391 228 68 12 271 -14 372 -49 66 -22 93 -36 93 -48 0
-35 -73 -243 -100 -286 -17 -26 -30 -58 -30 -72 0 -13 -12 -59 -27 -100 -21
-62 -27 -99 -31 -198 -4 -109 -6 -123 -23 -128 -38 -12 -176 -124 -252 -203
-117 -124 -175 -222 -233 -398 -40 -120 -44 -184 -13 -215 31 -31 43 -19 44
47 1 47 9 77 43 147 85 182 136 253 284 400 76 75 142 137 146 137 4 0 21 -61
38 -135 l30 -136 -25 -6 c-59 -14 -90 -69 -166 -303 -37 -114 -49 -164 -53
-233 l-5 -89 24 4 c14 2 29 14 38 32 14 30 72 218 123 396 29 103 50 150 67
150 5 0 14 -21 20 -46 31 -124 129 -263 196 -280 55 -14 59 19 9 84 -41 54
-130 229 -121 238 3 3 21 -11 39 -32 230 -269 533 -454 740 -454 81 0 137 20
177 63 36 39 22 62 -32 52 -23 -4 -62 -11 -86 -15 -104 -17 -248 34 -435 154
-103 67 -162 119 -323 287 l-130 135 -14 90 c-16 108 -14 307 4 388 11 54 16
60 46 71 41 13 67 44 82 95 12 39 130 180 152 180 14 0 139 -85 165 -113 11
-12 35 -58 52 -102 17 -44 42 -91 54 -105 13 -14 49 -63 81 -110 91 -131 152
-210 207 -268 38 -40 53 -64 59 -98 11 -58 139 -274 203 -342 81 -86 270 -187
302 -161 8 6 14 17 14 25 0 7 -54 50 -120 95 -86 58 -133 97 -164 137 -58 77
-121 177 -105 166 35 -21 157 -109 179 -129 76 -69 134 -90 164 -59 31 30 19
60 -39 105 -30 24 -52 45 -50 47 18 18 215 -69 296 -130 76 -59 202 -138 227
-145 28 -7 44 11 33 39 -13 37 -197 183 -305 242 -112 62 -265 93 -317 65 -39
-20 -258 147 -386 294 -34 39 -61 73 -59 74 1 2 27 -10 57 -27 30 -16 101 -41
158 -56 89 -23 109 -25 142 -15 40 12 49 30 25 50 -8 7 -54 23 -103 36 -117
31 -170 55 -267 120 -118 79 -134 96 -174 193 -33 80 -36 96 -40 210 -2 67 -1
122 2 122 3 0 27 -13 54 -29 26 -17 83 -41 127 -54 44 -14 134 -42 200 -63
l120 -39 445 -3 c288 -2 486 1 560 8 63 7 241 16 395 20 255 7 300 11 496 44
242 41 281 51 494 129 201 74 645 181 940 227 72 11 155 29 185 40 51 18 68
19 205 10 128 -9 168 -16 270 -47 66 -21 121 -38 123 -39 2 -1 -4 -51 -12
-111 -29 -204 -39 -357 -26 -418 13 -63 40 -98 73 -93 21 3 22 9 27 123 l5
120 67 35 c86 45 148 96 148 120 0 34 -42 23 -124 -30 -42 -27 -79 -50 -83
-50 -3 0 -3 26 1 58 3 31 6 94 7 139 2 76 3 82 25 87 13 4 57 -5 101 -20 142
-47 278 -43 271 8 -3 20 -15 26 -93 44 -63 14 -89 25 -87 34 4 15 37 59 124
164 32 38 58 77 58 86 0 10 12 25 26 34 17 12 24 25 22 39 -3 19 -9 22 -53 22
-27 -1 -76 -4 -108 -9 l-57 -8 10 26 c19 50 -13 77 -59 50 -25 -15 -137 -176
-176 -254 -10 -19 -19 -36 -20 -38 -1 -1 -36 6 -76 18 -40 11 -87 20 -102 20
-16 0 -57 7 -91 16 -33 9 -100 19 -147 23 l-87 6 80 105 c43 58 98 136 121
174 l42 69 70 4 c74 3 208 42 262 74 39 24 93 85 93 105 0 8 31 43 68 78 76
72 102 110 85 127 -11 11 -38 -9 -221 -168 -85 -74 -124 -95 -223 -123 -94
-26 -99 -25 -99 6 0 14 -5 34 -10 45 -9 16 -6 22 21 37 117 64 143 87 416 368
77 79 128 121 178 149 98 55 249 159 320 220 101 88 283 200 299 184 3 -2 -24
-89 -59 -192 -35 -103 -62 -194 -59 -202 4 -8 14 -15 25 -15 35 0 138 244 189
445 8 33 17 44 53 63 24 13 81 45 127 72 46 28 85 48 88 46 9 -10 -52 -227
-91 -321 -48 -115 -91 -195 -152 -280 -62 -86 -162 -184 -198 -193 -57 -15
-62 -72 -7 -80 42 -7 70 8 141 75 97 92 171 187 256 328 78 130 121 234 148
360 9 44 19 86 21 94 3 10 18 1 52 -30 26 -25 64 -58 86 -73 21 -16 56 -56 77
-89 37 -57 39 -65 39 -136 0 -99 -19 -185 -65 -296 -20 -50 -43 -111 -50 -136
-7 -26 -33 -73 -58 -105 -53 -70 -101 -147 -196 -318 -93 -167 -104 -191 -86
-206 30 -25 66 13 170 175 46 71 75 108 70 90 -4 -16 -13 -77 -19 -135 -13
-102 -15 -108 -76 -210 -34 -58 -93 -150 -130 -205 -180 -269 -280 -439 -280
-478 0 -18 5 -27 12 -25 7 3 45 51 85 108 40 58 78 111 85 120 13 14 194 268
230 320 l17 25 -6 -40 c-15 -112 -46 -240 -73 -296 -16 -34 -37 -95 -47 -136
-14 -63 -21 -77 -43 -85 -14 -5 -77 -62 -140 -128 -84 -87 -128 -124 -163
-139 -66 -28 -75 -27 -83 13 -3 19 -14 42 -23 51 -15 13 -17 28 -13 90 4 63 2
79 -13 95 -10 11 -26 20 -35 20 -9 0 -19 3 -22 6 -10 9 165 317 229 402 40 54
13 81 -47 46 -36 -22 -90 -105 -186 -289 -70 -135 -78 -155 -78 -207 -1 -32
-4 -58 -8 -58 -10 0 -52 94 -89 200 -32 92 -37 130 -39 313 0 36 -38 18 -60
-29 -20 -39 -22 -57 -17 -122 8 -116 67 -287 130 -376 11 -15 35 -35 53 -42
19 -8 34 -20 34 -27 -1 -24 -47 -124 -80 -172 -33 -48 -34 -48 -43 -24 -6 13
-28 60 -49 104 -22 44 -73 152 -114 240 -79 169 -104 205 -140 205 -52 0 -47
-28 32 -196 85 -181 135 -269 193 -339 24 -29 41 -60 41 -75 0 -18 -26 -52
-93 -121 -50 -52 -112 -111 -137 -131 l-45 -35 -215 -7 c-118 -3 -261 -12
-316 -20 -123 -18 -381 -74 -564 -122 -74 -20 -153 -40 -175 -45 -92 -23 -300
-91 -352 -115 -71 -34 -277 -200 -371 -298 -126 -132 -218 -277 -307 -481 -67
-155 -88 -219 -115 -350 -11 -55 -45 -174 -74 -265 -30 -91 -63 -196 -75 -235
-25 -87 -64 -153 -194 -324 -123 -163 -313 -361 -347 -361 -15 0 -12 81 5 165
19 89 51 178 102 277 20 40 40 91 44 113 4 22 23 85 43 139 38 103 76 291 76
377 0 36 4 49 15 49 47 0 146 154 193 300 67 208 89 465 51 595 -6 21 -26 54
-45 73 -28 28 -36 31 -54 22 -25 -13 -26 -45 -4 -151 33 -165 -26 -511 -122
-711 -10 -21 -21 -38 -26 -38 -4 0 -8 44 -8 98 0 106 -6 121 -58 137 -28 8
-69 -16 -82 -50 -6 -15 -5 -112 1 -250 11 -254 8 -285 -46 -426 -20 -52 -45
-98 -65 -117 -30 -31 -33 -32 -46 -15 -25 33 -76 177 -95 268 -40 193 -34 368
17 552 15 51 16 64 5 77 -18 21 -26 20 -51 -6 -67 -71 -101 -197 -101 -381 -1
-260 55 -456 162 -572 49 -53 47 -63 -18 -127 -60 -58 -266 -206 -300 -214
-30 -8 -93 19 -125 53 -12 13 -43 65 -68 116 -45 90 -47 92 -81 92 -30 0 -43
9 -102 71 -37 39 -67 77 -67 83 0 7 26 69 59 139 92 200 122 307 122 430 0
165 -81 284 -146 212 -19 -21 -18 -39 10 -140 20 -72 19 -118 -5 -219 -20 -83
-74 -248 -93 -285 -8 -16 -17 -1 -57 90 -26 60 -75 192 -110 294 -38 113 -70
192 -82 203 -27 23 -63 22 -88 -3 -28 -28 -28 -130 1 -185 26 -52 100 -247 95
-252 -2 -2 -44 5 -92 17 -255 60 -433 138 -557 245 -44 37 -92 88 -108 113
-26 41 -29 55 -29 123 0 68 -2 78 -19 84 -73 23 -118 -128 -71 -233 42 -93
239 -261 380 -324 139 -63 294 -99 434 -102 l100 -2 53 -99 c29 -55 53 -105
53 -110 0 -6 -14 -12 -31 -13 -17 -1 -63 -11 -103 -22 -121 -33 -235 -50 -344
-50 -90 0 -109 3 -152 25 -72 37 -100 18 -77 -52 24 -73 139 -103 327 -83 129
13 226 37 319 80 39 18 73 31 74 29 2 -2 11 -33 21 -69 15 -53 19 -119 22
-353 6 -332 1 -361 -68 -449 -80 -101 -284 -291 -327 -306 -6 -2 -15 16 -21
40 -59 240 -291 428 -477 388 -54 -12 -85 -37 -102 -83 -9 -23 -7 -31 9 -47
18 -18 22 -18 72 -4 97 29 204 -7 289 -98 43 -46 144 -218 144 -246 0 -7 -34
-41 -75 -76 l-75 -64 -17 32 c-26 51 -102 122 -160 150 -206 101 -467 55 -639
-111 -117 -113 -185 -286 -133 -338 27 -27 46 -13 89 61 64 113 111 171 175
218 169 124 398 128 531 8 27 -24 57 -58 65 -74 15 -29 15 -29 -87 -166 -148
-197 -164 -224 -151 -260 19 -55 -69 -195 -232 -367 -110 -115 -126 -143 -102
-180 19 -30 55 -33 84 -7 52 44 209 224 252 290 27 40 61 104 77 142 15 39 35
72 44 75 37 12 69 57 69 95 0 28 15 61 66 141 36 57 75 114 87 127 l22 23 17
-21 c29 -36 41 -125 35 -255 -13 -248 -58 -513 -102 -598 -14 -27 -25 -59 -25
-71 0 -55 82 -77 118 -32 11 14 29 75 45 148 45 213 61 352 61 528 0 146 -2
172 -22 224 -12 33 -36 75 -54 93 l-32 33 25 26 c13 15 66 62 118 105 73 62
101 79 126 79 17 0 56 9 88 20 44 16 82 20 169 20 169 0 332 -16 375 -37 21
-9 82 -61 136 -114 106 -106 167 -143 255 -155 29 -4 54 -10 56 -13 3 -4 -1
-25 -7 -48 -9 -35 -7 -55 11 -128 30 -116 82 -255 152 -401 56 -119 74 -140
100 -124 19 12 1 81 -62 235 -87 212 -149 388 -145 415 3 21 4 20 6 -7 0 -17
5 -33 11 -35 13 -4 170 -217 192 -260 9 -18 37 -76 61 -128 30 -64 62 -114
100 -156 93 -102 229 -154 261 -101 9 16 4 25 -38 60 -146 126 -193 178 -231
255 -20 42 -46 89 -56 104 -28 39 -24 40 32 2 75 -50 154 -48 215 8 22 20 22
19 120 -17 128 -48 203 -55 269 -26 62 27 85 48 85 76 0 31 -16 35 -113 28
-80 -5 -88 -4 -217 41 -74 25 -188 59 -254 75 -69 17 -129 38 -145 50 -14 11
-59 43 -100 71 -43 28 -68 51 -60 53 8 3 131 14 274 26 300 24 392 43 415 84
13 24 13 30 0 54 -26 47 -53 49 -212 20 -161 -30 -233 -40 -431 -62 -180 -19
-205 -19 -259 5 -53 23 -65 56 -47 124 20 73 46 110 135 191 49 44 98 88 109
98 35 33 128 93 193 126 34 17 111 64 170 105 60 40 134 87 166 105 l57 33 38
-35 c100 -90 414 -182 551 -162 76 12 160 68 160 107 0 27 -26 33 -80 19 -71
-18 -193 -15 -305 7 -109 22 -280 83 -280 100 0 5 54 48 120 95 111 78 122 84
140 71 96 -69 292 -134 399 -134 112 1 251 43 303 92 49 46 13 76 -65 53 -92
-28 -237 -45 -296 -35 -94 15 -286 75 -286 88 1 4 27 27 60 51 138 103 261
253 300 365 21 58 21 58 1 96 -19 36 -19 38 0 79 35 78 78 255 84 346 8 119
-7 260 -30 285 -23 25 -47 25 -70 0 -16 -18 -17 -30 -7 -147 9 -117 2 -286
-12 -301 -3 -3 -6 19 -6 49 0 73 -21 328 -29 359 -11 38 -46 38 -66 1 -26 -51
-28 -114 -10 -263 21 -172 34 -208 69 -208 31 0 31 2 6 -83 -13 -46 -30 -81
-53 -107 -34 -37 -54 -90 -42 -109 10 -17 -31 -85 -96 -163 -76 -91 -89 -100
-83 -56 2 18 15 130 29 249 25 222 39 281 100 403 29 57 32 91 9 100 -21 8
-44 -6 -89 -55 -93 -104 -125 -246 -128 -579 l-2 -217 -181 -121 c-171 -113
-184 -120 -221 -115 -30 4 -52 -1 -89 -20 -27 -13 -97 -41 -156 -61 -84 -29
-120 -36 -164 -34 l-56 3 70 48 c126 86 411 404 480 535 47 90 179 494 206
630 17 86 40 159 77 245 109 257 201 398 360 552 144 139 189 175 264 212 60
30 382 130 570 177 354 88 460 104 797 116 242 9 425 28 634 66 l31 6 7 -64
c4 -34 18 -117 32 -183 50 -246 84 -332 171 -443 55 -70 66 -77 88 -56 14 15
14 19 -5 48 -61 90 -112 218 -151 372 -44 177 -71 326 -61 335 12 11 145 48
154 43 4 -3 8 -11 8 -17 0 -23 57 -132 104 -199 79 -113 211 -216 263 -206 36
7 27 47 -19 86 -116 99 -223 233 -269 338 -21 47 -21 47 -2 63 11 9 42 43 71
76 l51 60 205 -1 c163 -1 208 2 217 12 6 8 17 14 24 14 24 0 75 51 75 75 0 31
-17 35 -83 20 l-56 -13 -20 52 c-53 133 -52 246 4 511 20 94 38 208 41 255 3
47 11 95 17 108 9 18 8 25 -3 32 -15 9 -12 29 24 195 9 39 16 105 16 147 0 42
4 79 8 82 5 3 16 -25 26 -62 23 -86 92 -232 110 -232 31 0 46 13 46 39 0 15
-4 31 -9 37 -18 18 -63 141 -87 239 -14 57 -27 145 -30 205 l-6 105 31 17 c18
10 51 49 81 97 45 71 56 81 97 95 58 20 89 20 167 0 99 -25 176 -68 266 -149
119 -108 216 -170 311 -200 44 -14 89 -25 100 -25 25 0 78 -27 156 -79 59 -39
61 -41 65 -93 15 -177 230 -376 418 -386 57 -4 68 -1 85 18 30 33 10 51 -101
90 -109 39 -171 77 -227 139 -34 38 -82 119 -75 126 2 2 66 -16 142 -40 162
-53 253 -75 305 -75 72 0 101 -10 101 -36 0 -13 9 -48 21 -79 35 -93 132 -155
299 -189 103 -22 134 -19 138 11 4 26 -2 30 -143 83 -144 54 -189 81 -220 134
-14 23 -25 45 -25 49 0 3 16 3 35 0 47 -8 85 25 85 73 0 64 -51 89 -202 99
-60 4 -108 10 -108 13 0 11 230 109 394 169 145 53 191 65 371 98 94 17 117
31 87 53 -12 10 -36 12 -87 7 -139 -13 -353 -55 -455 -90 -134 -47 -339 -146
-380 -185 l-32 -30 -127 36 c-95 27 -163 55 -274 114 -175 91 -184 82 111 105
108 9 233 22 276 30 94 17 189 59 233 104 l32 32 153 -20 c84 -11 196 -22 248
-26 85 -6 625 -78 675 -91 17 -4 145 -188 145 -208 0 -3 -15 -26 -34 -50 -68
-89 -150 -456 -102 -456 21 0 21 0 64 171 42 163 80 270 98 276 6 2 28 -25 48
-60 20 -35 55 -85 76 -113 54 -69 100 -161 145 -287 47 -136 70 -171 113 -175
58 -6 80 32 43 72 -16 18 -71 152 -71 174 0 12 339 -330 390 -393 26 -33 64
-90 85 -127 56 -103 96 -88 65 24 -24 83 -139 221 -315 377 -66 58 -133 118
-150 134 -16 15 -48 39 -71 52 -29 18 -47 40 -64 75 -13 28 -30 56 -37 62 -8
6 -18 19 -23 29 -7 13 18 5 99 -30 152 -65 193 -94 262 -183 33 -43 67 -78 75
-78 24 0 16 53 -17 106 -69 109 -129 151 -352 240 -60 24 -122 54 -137 66 -16
13 -56 66 -91 118 -34 52 -79 115 -100 140 -22 26 -39 49 -39 52 0 3 21 8 48
12 26 3 109 21 184 40 l137 33 58 -56 c32 -31 80 -67 106 -79 66 -31 170 -54
231 -50 43 3 51 6 54 24 3 19 -6 23 -85 38 -124 25 -187 49 -250 97 l-55 41
63 35 c35 20 83 49 106 65 l41 30 30 -22 c42 -31 165 -30 262 3 68 23 71 23
87 5 9 -10 41 -30 71 -45 45 -22 68 -26 140 -27 70 -1 87 2 87 14 0 10 -21 18
-73 27 -90 15 -141 31 -164 51 -23 19 -17 27 41 57 129 65 250 184 326 320 38
67 42 101 13 118 -23 15 -41 -3 -85 -82 -74 -135 -178 -230 -341 -314 -48 -25
-118 -54 -156 -66 -71 -22 -170 -28 -181 -11 -7 11 39 37 114 65 61 23 82 46
65 73 -27 43 -98 24 -223 -58 -51 -33 -94 -60 -96 -60 -21 0 37 153 95 251 22
37 63 98 92 137 29 39 78 105 108 147 50 69 78 95 192 178 36 26 65 36 54 18
-4 -5 -2 -21 4 -36 14 -38 -11 -81 -124 -205 -100 -111 -114 -141 -78 -173 39
-36 72 -22 145 60 98 111 155 203 197 319 20 56 47 118 58 136 l22 33 0 -91
c0 -51 -7 -129 -16 -174 -8 -45 -14 -102 -12 -128 3 -40 6 -47 25 -50 32 -5
50 30 74 144 29 139 29 307 1 389 -12 33 -22 63 -22 66 0 7 160 73 164 67 1
-1 10 -23 19 -48 27 -70 228 -346 315 -431 42 -42 109 -108 147 -148 73 -76
163 -147 280 -221 83 -53 198 -135 314 -224 82 -63 284 -187 386 -239 28 -13
98 -43 156 -66 l106 -41 -9 -58 c-13 -78 -2 -177 27 -240 20 -44 28 -53 47
-50 19 2 23 8 21 38 -1 19 -5 88 -9 154 l-7 118 24 -7 c59 -16 78 -29 90 -58
17 -42 161 -186 221 -221 52 -30 88 -28 88 5 0 20 -18 39 -139 140 -36 30 -64
59 -63 64 2 21 30 15 67 -15 93 -74 303 -145 326 -109 5 8 7 18 6 23 -2 5 -43
26 -93 45 -124 50 -264 139 -264 167 0 7 -12 22 -27 33 -18 13 -22 20 -13 21
34 0 181 -42 267 -76 77 -31 95 -35 108 -24 36 30 3 86 -74 125 -108 54 -346
82 -434 51 -35 -13 -43 -12 -113 14 -42 16 -78 31 -80 33 -3 2 19 7 48 11 29
4 104 18 165 32 l112 25 44 -30 c60 -41 155 -71 226 -71 72 0 91 6 91 31 0 23
-22 32 -113 48 -74 13 -147 38 -147 51 0 5 15 13 33 19 18 6 49 25 70 42 32
27 37 36 36 68 -2 37 31 98 108 201 22 29 33 53 31 70 -4 35 -42 39 -75 8 -31
-29 -85 -119 -108 -180 -15 -40 -26 -52 -70 -77 -29 -17 -65 -33 -79 -37 -21
-5 -26 -2 -32 21 -11 44 3 264 22 338 16 64 16 69 0 85 -48 48 -106 -92 -106
-252 0 -62 15 -181 25 -208 4 -10 -2 -18 -17 -22 -122 -34 -271 -68 -353 -80
-99 -15 -100 -15 -140 8 -218 126 -266 158 -365 241 -25 21 -128 93 -230 160
-154 102 -210 146 -330 260 -80 76 -178 181 -218 234 -40 53 -88 112 -107 131
-39 42 -105 129 -105 139 0 4 69 13 154 20 84 6 163 15 174 18 16 4 23 0 27
-13 29 -97 197 -341 289 -420 70 -60 132 -87 206 -88 53 -1 65 2 68 16 2 12
-19 27 -82 57 -55 25 -105 58 -140 91 -93 88 -266 321 -266 358 0 8 29 12 93
12 57 0 97 4 105 12 8 8 16 8 30 -3 210 -154 437 -250 458 -194 10 26 -11 40
-157 108 -188 88 -185 86 -119 87 30 1 113 7 184 14 114 11 131 15 147 35 41
50 12 101 -57 101 -21 0 -77 -7 -124 -15 -47 -8 -86 -15 -87 -15 -19 0 29 54
193 220 194 196 218 229 172 238 -10 2 -37 -10 -62 -27 -69 -48 -289 -284
-327 -352 -53 -94 -41 -89 -208 -89 -82 0 -169 3 -195 6 l-47 7 72 39 c97 53
183 120 219 173 34 49 36 58 16 74 -14 12 -63 -19 -146 -93 -32 -29 -79 -59
-237 -153 l-52 -31 -69 33 c-38 18 -72 40 -76 50 -12 31 -5 130 12 180 10 28
39 85 66 128 l48 77 68 0 c75 0 180 28 211 56 10 9 19 25 19 36 0 23 -28 23
-125 3 -38 -8 -85 -15 -103 -15 l-34 0 32 38 c17 20 51 64 76 97 39 50 63 69
169 130 163 93 170 98 162 119 -10 25 -62 15 -151 -30 -78 -38 -86 -40 -86
-19 0 21 -43 39 -74 31 -20 -5 -33 -22 -54 -69 -16 -34 -39 -73 -51 -87 l-21
-25 5 25 c3 14 10 54 15 90 6 36 13 80 16 98 6 32 5 33 -22 30 -49 -5 -64 -51
-64 -197 l0 -123 -77 -100 c-139 -178 -131 -171 -204 -176 -35 -2 -76 1 -90 6
-29 12 -91 99 -107 152 -23 78 -22 96 4 126 98 110 174 220 174 251 0 6 -7 18
-15 27 -24 24 -59 2 -105 -68 -47 -71 -104 -139 -96 -113 15 46 18 148 6 177
-33 80 -115 61 -127 -29 -3 -23 -9 -41 -14 -41 -12 0 -56 166 -85 328 -6 30
-37 29 -54 -2z m259 -780 c27 -63 95 -134 140 -146 20 -5 62 -10 94 -10 l57 0
0 -103 c0 -108 4 -120 58 -179 l24 -27 -33 -5 c-19 -3 -65 -7 -104 -9 -53 -3
-90 -13 -153 -40 -95 -42 -92 -42 -92 -22 0 24 -63 80 -111 98 -24 9 -91 28
-148 41 -57 14 -105 27 -107 29 -3 2 23 25 57 52 116 91 179 157 228 239 27
44 52 91 55 104 4 12 9 22 11 22 2 0 13 -20 24 -44z m-3797 -1033 c-3 -65 0
-86 18 -126 28 -64 91 -123 151 -144 50 -18 64 -33 31 -33 -24 0 -174 -73
-217 -106 -53 -40 -87 -120 -89 -204 -1 -59 -3 -69 -16 -63 -8 3 -59 22 -112
40 -120 41 -204 50 -273 29 -27 -8 -51 -14 -53 -12 -2 2 2 24 9 47 7 24 13
100 13 169 l1 126 -47 82 c-27 45 -48 83 -48 84 0 2 26 3 58 3 74 0 100 17
136 89 l28 56 28 -20 c42 -30 112 -42 181 -31 60 10 146 45 184 75 11 8 20 16
21 16 0 0 -1 -35 -4 -77z m1841 -132 c5 -5 -31 -12 -85 -16 -133 -10 -160 -3
-63 17 79 16 131 16 148 -1z m-1496 -511 c54 -11 186 -47 293 -80 183 -56 336
-90 401 -90 37 0 37 -11 1 -32 -46 -28 -106 -37 -314 -53 -196 -14 -302 -33
-346 -61 -26 -17 -20 -19 -96 46 -104 90 -152 140 -197 204 -65 92 -59 101 68
92 51 -3 137 -15 190 -26z m-2417 -1029 c0 -2 -22 -28 -50 -57 -27 -30 -63
-84 -81 -120 -22 -45 -37 -63 -47 -59 -7 3 -24 8 -35 11 -12 3 -31 17 -41 31
-22 30 -22 28 55 133 l48 65 76 0 c41 0 75 -2 75 -4z m-5286 -106 c36 -14 51
-15 79 -6 30 10 40 9 81 -13 26 -14 67 -28 91 -32 25 -3 45 -10 45 -15 0 -5
-5 -9 -10 -9 -17 0 -109 -98 -115 -122 -15 -66 -25 -162 -25 -235 0 -46 -2
-83 -4 -83 -27 0 -56 23 -56 43 0 14 -10 37 -22 52 -20 25 -25 27 -80 23 -63
-5 -64 -4 -48 54 8 28 7 45 -4 72 -16 38 -33 50 -87 60 -19 3 -43 12 -53 19
-16 11 -14 18 20 87 21 41 51 99 67 128 l30 54 24 -30 c13 -17 43 -38 67 -47z
m6383 -617 c0 -126 3 -152 25 -220 l26 -78 -129 0 -129 0 0 25 c0 34 -37 65
-77 65 -28 0 -38 -8 -72 -54 -27 -36 -49 -55 -68 -59 -45 -9 -64 -30 -70 -74
-4 -34 -11 -43 -39 -57 -40 -19 -84 -21 -84 -5 0 6 14 65 32 131 23 86 37 122
51 129 30 17 31 4 2 -40 -26 -39 -27 -61 -1 -61 15 0 179 168 290 298 44 50
82 92 85 92 3 0 15 -7 25 -15 30 -23 74 -18 101 10 14 13 25 31 25 40 0 8 2
15 3 15 2 0 4 -64 4 -142z m-637 -232 c0 -2 -9 -48 -20 -101 -11 -53 -20 -108
-20 -121 0 -12 -4 -26 -10 -29 -10 -6 -224 -45 -249 -45 -7 0 35 48 95 108 60
59 125 126 145 150 30 35 59 54 59 38z m-4314 -2764 c112 -109 156 -139 219
-149 68 -11 121 6 215 68 50 32 92 59 93 59 1 0 2 -46 2 -102 0 -86 4 -110 22
-144 28 -52 75 -88 148 -111 l58 -19 -34 -20 c-19 -11 -95 -74 -169 -139 -142
-124 -185 -178 -222 -277 -11 -32 -23 -58 -26 -58 -2 0 -25 18 -49 41 -86 79
-165 101 -410 115 -68 4 -123 9 -123 11 0 2 22 30 48 62 58 69 85 123 108 211
14 56 16 98 10 313 -4 136 -6 247 -4 247 2 0 53 -49 114 -108z"/>
<path d="M12845 19430 c-14 -15 -19 -37 -19 -76 -1 -49 2 -59 27 -80 39 -34
86 -32 126 5 23 21 31 38 31 63 0 41 -12 58 -63 86 -48 27 -79 28 -102 2z"/>
<path d="M8714 18443 c-59 -64 -73 -106 -49 -149 12 -23 32 -39 61 -50 41 -16
47 -16 87 0 57 22 87 55 94 103 7 50 -16 97 -60 123 -53 33 -83 26 -133 -27z
m77 -88 c0 -5 -9 -11 -21 -13 -20 -3 -27 8 -13 22 10 9 34 3 34 -9z"/>
<path d="M1723 16795 c-23 -16 -47 -76 -45 -110 2 -28 30 -45 74 -45 45 0 69
29 71 86 1 28 -5 42 -27 60 -32 28 -44 29 -73 9z"/>
<path d="M3230 12880 c-24 -24 -34 -86 -20 -121 16 -37 49 -58 104 -65 60 -9
111 10 136 50 28 46 25 80 -9 118 -28 32 -32 33 -111 34 -66 2 -86 -2 -100
-16z"/>
<path d="M352 19838 l3 -163 90 -3 c70 -2 98 2 125 15 62 32 75 98 29 144 -19
19 -19 22 -5 38 16 18 21 57 10 86 -13 32 -59 45 -159 45 l-95 0 2 -162z m183
67 c0 -29 -2 -30 -52 -33 l-53 -3 0 36 0 36 53 -3 c50 -3 52 -4 52 -33z m-11
-95 c20 -7 26 -17 26 -39 0 -34 -14 -41 -76 -41 l-44 0 0 45 c0 45 0 45 34 45
19 0 46 -4 60 -10z"/>
<path d="M674 19986 c-11 -28 4 -47 33 -43 22 3 28 9 28 28 0 19 -6 25 -28 27
-18 2 -29 -2 -33 -12z"/>
<path d="M1070 19835 l0 -166 33 3 32 3 0 160 0 160 -32 3 -33 3 0 -166z"/>
<path d="M1747 19978 c-8 -29 -1 -37 31 -35 21 2 28 8 30 30 3 24 0 27 -26 27
-22 0 -31 -6 -35 -22z"/>
<path d="M2387 19994 c-4 -4 -7 -79 -7 -166 l0 -159 33 3 32 3 0 160 0 160
-25 3 c-14 2 -29 0 -33 -4z"/>
<path d="M2630 19836 l0 -166 35 0 35 0 0 107 0 107 46 -69 c25 -39 55 -87 67
-108 19 -34 25 -38 57 -35 l35 3 3 163 2 162 -34 0 -35 0 -3 -107 -3 -108 -65
105 c-63 100 -67 105 -103 108 l-37 3 0 -165z"/>
<path d="M3940 19835 l0 -165 30 0 30 0 0 165 0 165 -30 0 -30 0 0 -165z"/>
<path d="M677 19904 c-4 -4 -7 -59 -7 -121 l0 -114 33 3 32 3 0 115 0 115 -25
3 c-14 2 -29 0 -33 -4z"/>
<path d="M811 19875 c-26 -30 -31 -44 -31 -86 0 -45 4 -55 34 -85 29 -29 41
-34 83 -34 28 0 58 7 71 16 49 34 66 109 37 164 -23 44 -53 60 -111 60 -47 0
-55 -3 -83 -35z m130 -31 c17 -20 16 -88 -1 -109 -33 -40 -100 -3 -100 55 0
59 67 94 101 54z"/>
<path d="M1234 19899 c-47 -23 -70 -114 -43 -172 16 -35 60 -57 114 -57 40 0
52 5 76 31 51 55 47 145 -8 189 -28 22 -102 27 -139 9z m104 -51 c7 -7 12 -33
12 -58 0 -53 -13 -70 -51 -70 -35 0 -54 24 -54 70 0 21 7 45 14 54 16 19 62
21 79 4z"/>
<path d="M1494 19892 c-58 -47 -59 -145 -1 -193 28 -23 84 -24 109 -2 17 15
18 15 18 -13 0 -51 -44 -71 -86 -39 -25 19 -74 20 -74 1 0 -8 12 -24 26 -35
48 -38 170 -22 188 24 3 9 6 75 6 146 l0 129 -30 0 c-21 0 -30 -5 -30 -16 0
-14 -1 -14 -16 0 -21 21 -84 20 -110 -2z m116 -51 c35 -66 -26 -144 -74 -95
-19 18 -21 85 -4 102 19 19 66 15 78 -7z"/>
<path d="M1750 19790 l0 -120 30 0 30 0 0 120 0 120 -30 0 -30 0 0 -120z"/>
<path d="M1898 19887 c-49 -42 -62 -101 -33 -157 21 -41 53 -60 103 -60 54 0
77 12 97 50 20 39 20 40 -15 40 -19 0 -33 -7 -40 -20 -13 -25 -62 -27 -81 -4
-7 9 -14 33 -14 54 0 21 7 45 14 54 19 23 68 21 81 -4 7 -13 21 -20 40 -20 39
0 39 22 1 61 -39 38 -111 41 -153 6z"/>
<path d="M2144 19887 c-18 -16 -25 -30 -21 -40 9 -24 54 -22 67 3 16 29 80 24
80 -6 0 -16 -29 -30 -81 -38 -19 -4 -44 -12 -53 -19 -25 -18 -24 -86 0 -104
21 -15 87 -17 114 -3 13 7 21 7 25 0 3 -5 20 -10 37 -10 l30 0 -4 101 c-3 91
-6 103 -27 120 -36 29 -131 26 -167 -4z m126 -126 c0 -29 -29 -53 -59 -49 -20
2 -26 8 -26 28 0 19 6 26 30 31 50 11 55 10 55 -10z"/>
<path d="M2981 19873 c-34 -41 -41 -91 -19 -140 21 -47 48 -62 106 -63 45 0
57 4 77 26 14 15 25 33 25 40 0 19 -44 18 -60 -1 -18 -22 -77 -19 -90 4 -5 11
-10 22 -10 25 0 3 38 6 85 6 84 0 85 0 85 25 0 34 -24 80 -52 99 -13 9 -43 16
-69 16 -43 0 -51 -4 -78 -37z m117 -25 c25 -25 13 -38 -32 -38 -49 0 -65 13
-46 35 15 18 61 20 78 3z"/>
<path d="M3224 19895 c-12 -30 3 -174 20 -200 13 -20 25 -25 61 -25 26 0 50 6
59 16 15 14 16 14 16 -1 0 -12 8 -16 33 -13 l32 3 0 115 0 115 -32 3 -33 3 0
-70 c0 -89 -12 -121 -44 -121 -36 0 -45 19 -48 105 -3 79 -3 80 -31 83 -18 2
-29 -2 -33 -13z"/>
<path d="M3490 19790 l0 -120 30 0 30 0 0 63 c0 80 16 111 58 115 28 3 32 7
32 33 0 24 -4 29 -23 29 -12 0 -33 -7 -45 -16 -20 -14 -22 -14 -22 0 0 11 -10
16 -30 16 l-30 0 0 -120z"/>
<path d="M3696 19889 c-33 -26 -35 -59 -3 -59 13 0 32 9 42 20 22 24 58 26 76
4 11 -14 10 -18 -6 -30 -10 -8 -29 -14 -40 -14 -36 0 -85 -21 -95 -40 -17 -31
-11 -68 12 -84 26 -18 90 -21 119 -6 13 7 19 7 19 0 0 -5 15 -10 33 -10 l32 0
-5 105 c-6 124 -13 134 -101 135 -42 0 -63 -5 -83 -21z m124 -122 c0 -25 -31
-57 -55 -57 -29 0 -51 33 -32 48 26 21 87 28 87 9z"/>
<path d="M354 19427 c-2 -7 -3 -80 -2 -162 l3 -150 32 -3 32 -3 3 108 3 108
65 -105 c63 -100 67 -105 103 -108 l37 -3 0 165 0 166 -35 0 -34 0 -3 -107 -3
-107 -65 107 c-61 101 -67 107 -98 107 -18 0 -35 -6 -38 -13z"/>
<path d="M1940 19275 l0 -165 30 0 c29 0 30 2 30 44 0 65 23 67 63 6 27 -43
37 -50 65 -50 17 0 32 4 32 8 0 5 -18 37 -40 71 -22 34 -40 65 -40 69 0 5 16
23 35 42 19 19 35 38 35 42 0 4 -14 8 -32 8 -24 0 -43 -10 -75 -42 l-43 -42 0
87 0 87 -30 0 -30 0 0 -165z"/>
<path d="M967 19413 c-4 -3 -7 -19 -7 -35 0 -21 -5 -28 -20 -28 -14 0 -20 -7
-20 -21 0 -12 8 -23 20 -26 17 -5 20 -14 20 -72 0 -91 14 -115 68 -119 39 -3
42 -1 42 21 0 16 -7 26 -20 30 -17 4 -20 14 -20 71 0 59 2 66 20 66 15 0 20 7
20 25 0 18 -5 25 -20 25 -16 0 -20 7 -20 35 0 32 -3 35 -28 35 -16 0 -32 -3
-35 -7z"/>
<path d="M732 19334 c-78 -55 -62 -191 28 -220 60 -20 140 15 140 62 0 19 -44
18 -60 -2 -19 -22 -69 -14 -88 14 l-14 22 86 0 c86 0 86 0 86 26 0 39 -28 90
-56 103 -35 16 -96 14 -122 -5z m102 -50 c11 -29 6 -34 -39 -34 -37 0 -45 3
-45 18 0 26 9 32 46 32 20 0 34 -6 38 -16z"/>
<path d="M1090 19338 c0 -7 16 -61 36 -120 l36 -108 33 0 c32 0 33 1 50 70 9
39 20 70 24 70 4 0 13 -30 21 -67 15 -68 15 -68 49 -68 l34 0 34 100 c41 124
42 135 4 135 -27 0 -30 -3 -46 -70 -9 -38 -21 -70 -25 -70 -4 0 -10 14 -14 32
-20 100 -25 109 -59 106 -30 -3 -32 -6 -47 -70 -8 -37 -18 -70 -22 -73 -3 -4
-11 15 -16 42 -19 88 -28 103 -62 103 -17 0 -30 -5 -30 -12z"/>
<path d="M1518 19327 c-49 -41 -62 -101 -34 -156 22 -41 59 -61 112 -61 39 0
51 5 80 34 30 30 34 40 34 86 0 46 -4 56 -34 86 -29 29 -41 34 -82 34 -36 0
-56 -6 -76 -23z m111 -40 c21 -26 24 -75 7 -102 -21 -31 -70 -35 -86 -6 -14
27 -13 94 2 109 16 16 63 15 77 -1z"/>
<path d="M1752 19233 l3 -118 33 -3 32 -3 0 74 c0 81 12 102 60 109 19 2 26
10 28 31 3 24 0 27 -26 27 -16 0 -35 -7 -43 -16 -11 -14 -13 -14 -21 0 -5 9
-22 16 -39 16 l-30 0 3 -117z"/>
<path d="M13406 17419 c-14 -11 -28 -30 -31 -42 -4 -12 -32 -75 -62 -139 l-55
-116 -34 5 c-38 6 -61 -8 -75 -46 -9 -23 -11 -21 -38 35 -81 170 -228 287
-276 220 -20 -27 -6 -55 49 -95 108 -80 152 -147 186 -282 11 -46 25 -94 30
-106 6 -14 4 -76 -5 -175 -8 -84 -16 -178 -17 -208 l-3 -55 -24 44 c-49 93
-127 330 -139 421 -6 46 -11 56 -29 58 -77 11 -68 -177 18 -394 42 -103 83
-162 125 -180 19 -8 34 -20 34 -27 -1 -39 -127 -237 -213 -333 -62 -69 -174
-140 -278 -176 -78 -26 -113 -32 -204 -36 l-110 -4 -29 59 c-16 32 -48 117
-72 188 -23 72 -54 162 -68 202 -13 39 -30 100 -36 135 -13 72 -32 108 -59
108 -36 0 -46 -28 -45 -124 1 -83 6 -106 63 -275 34 -102 76 -209 96 -240 41
-67 36 -70 -68 -46 -142 33 -176 47 -202 81 -14 18 -33 35 -43 38 -10 3 -33
31 -51 61 -18 30 -39 59 -47 66 -8 6 -14 22 -14 35 0 13 -10 47 -21 76 -18 43
-23 82 -27 203 -12 293 0 441 49 638 9 32 12 36 29 27 58 -31 66 5 13 55 -41
37 -64 43 -82 21 -19 -22 -67 -200 -86 -315 -22 -129 -17 -381 9 -450 9 -24
16 -58 16 -76 0 -17 6 -53 14 -78 l14 -47 -27 0 c-29 0 -51 -16 -51 -37 0 -7
38 -53 85 -103 108 -114 108 -116 -59 -157 -153 -38 -196 -56 -196 -81 0 -43
21 -44 149 -7 68 19 132 35 144 35 12 0 29 4 36 9 16 10 43 0 73 -27 16 -13 4
-22 -135 -107 -225 -136 -279 -174 -275 -193 9 -42 132 7 290 114 46 31 99 71
120 89 58 53 64 54 157 36 l83 -17 -133 -138 c-74 -76 -171 -168 -216 -203
-46 -36 -88 -73 -93 -83 -14 -26 -12 -50 4 -56 13 -5 50 18 211 131 67 47 204
185 268 269 l52 68 122 -5 c100 -5 138 -11 215 -37 51 -17 129 -38 173 -46
110 -19 183 -68 204 -137 16 -53 16 -53 -64 -192 -19 -33 -34 -71 -35 -85 -1
-39 -37 -111 -53 -105 -22 9 -337 -13 -443 -31 -65 -10 -123 -27 -169 -49 -38
-18 -110 -52 -159 -74 -117 -54 -256 -142 -299 -190 -36 -40 -63 -103 -52
-121 12 -19 31 -10 75 36 68 69 119 103 307 203 167 90 174 92 247 95 41 2 79
6 84 10 6 3 91 15 189 26 99 11 187 22 196 26 10 3 17 1 17 -4 0 -19 -70 -225
-80 -237 -7 -8 -63 -14 -163 -18 -146 -5 -357 -30 -404 -48 -28 -10 -31 -53
-6 -67 13 -8 -10 -23 -107 -72 -180 -92 -314 -208 -272 -234 5 -3 47 19 93 49
149 98 461 246 474 225 2 -4 -13 -34 -34 -66 -37 -56 -83 -109 -263 -307 -43
-46 -78 -92 -78 -101 0 -59 89 1 235 157 158 171 188 217 220 343 3 11 203 29
213 19 3 -3 -3 -14 -13 -25 -9 -10 -28 -42 -41 -70 -13 -28 -48 -77 -77 -108
-63 -67 -147 -171 -147 -181 0 -4 -20 -18 -45 -30 -48 -24 -57 -47 -29 -75 21
-22 62 -20 101 3 44 27 165 171 221 263 39 64 51 77 73 78 30 0 53 23 103 103
20 31 38 57 40 57 12 0 -44 -172 -76 -234 -12 -23 -34 -57 -49 -76 -32 -39
-37 -71 -13 -94 20 -20 48 -20 68 0 63 62 120 182 147 309 21 95 19 145 -9
203 -13 30 -13 39 0 80 l15 47 11 -53 c17 -74 15 -225 -4 -322 -20 -105 -16
-144 13 -148 53 -8 93 131 93 330 0 149 -14 206 -66 275 -23 30 -23 33 -9 74
9 24 24 53 34 64 10 11 38 59 62 108 24 48 59 108 79 134 32 43 99 93 125 93
6 0 30 -39 55 -87 35 -67 69 -113 149 -198 129 -136 200 -231 238 -315 51
-113 83 -153 288 -364 208 -215 272 -267 430 -352 66 -35 329 -202 394 -251 2
-1 -2 -10 -9 -18 -27 -32 -7 -247 32 -350 31 -83 52 -115 75 -115 29 0 29 13
2 127 -47 203 -61 313 -39 313 8 0 126 -55 137 -64 8 -6 -22 -327 -49 -513
-35 -255 -34 -288 12 -288 21 0 28 8 43 55 26 79 58 312 66 485 l6 150 24 -45
c81 -152 208 -260 306 -260 47 0 62 17 45 50 -6 10 -43 41 -83 69 -68 47 -143
129 -198 218 l-21 33 24 9 c13 5 30 16 38 26 17 21 51 15 220 -35 128 -39 260
-63 286 -53 8 3 14 15 14 28 0 25 -13 31 -180 85 -126 41 -246 70 -293 70 -54
0 -128 24 -232 75 -91 45 -304 175 -305 186 0 3 39 -2 88 -12 48 -10 152 -21
231 -24 132 -5 146 -8 159 -27 19 -26 118 -71 218 -98 157 -43 413 -34 422 14
6 29 -13 34 -127 35 -58 0 -146 7 -196 16 -101 17 -235 54 -235 65 0 3 30 12
68 19 37 8 108 29 158 47 51 19 100 34 109 34 10 0 35 19 56 42 42 46 52 91
22 102 -21 9 -114 -11 -172 -36 -37 -16 -58 -18 -111 -13 -110 11 -109 10 -52
69 101 105 242 300 242 336 0 10 -7 26 -16 34 -34 34 -56 18 -136 -103 -77
-114 -135 -190 -203 -262 l-43 -46 -79 5 c-128 7 -213 -30 -213 -94 0 -26 0
-27 -57 -21 -167 18 -208 19 -227 4 -17 -13 -31 -7 -155 65 -165 96 -218 136
-296 224 -33 37 -112 120 -176 183 -109 109 -119 123 -174 233 -32 64 -82 148
-112 185 -57 71 -229 250 -315 328 -28 25 -48 48 -44 52 8 9 125 8 281 -2 106
-6 146 -5 213 9 45 9 88 19 96 22 11 4 14 -22 19 -138 4 -110 10 -160 27 -216
28 -89 78 -152 120 -152 41 0 43 22 5 80 -43 67 -62 151 -71 314 -6 117 -6
128 10 125 13 -3 17 -20 20 -89 6 -110 33 -186 86 -234 22 -20 46 -36 53 -37
6 0 20 -2 31 -4 26 -5 65 15 72 37 8 26 -10 45 -52 52 -54 11 -92 89 -109 224
l-7 52 59 0 c32 0 135 7 228 15 94 8 220 15 280 15 99 0 111 -2 123 -20 10
-16 23 -20 68 -20 45 0 59 4 79 25 14 13 25 36 25 50 0 25 -25 58 -51 67 -11
4 -12 9 -2 26 9 15 9 24 -1 38 -13 17 -17 16 -92 -8 -92 -30 -228 -46 -239
-28 -24 39 91 150 240 231 51 27 96 57 100 67 7 18 -18 42 -45 42 -80 0 -246
-100 -313 -187 -36 -48 -41 -62 -42 -107 0 -33 -5 -55 -15 -62 -8 -6 -62 -14
-120 -18 -58 -4 -114 -9 -125 -12 -13 -4 -8 4 15 22 56 44 216 209 249 258 47
67 39 116 -19 116 -36 0 -48 -12 -120 -118 -69 -103 -134 -166 -232 -225 -46
-28 -70 -37 -88 -32 -14 3 -80 10 -147 15 -160 12 -205 30 -236 97 -37 81 -30
133 29 228 28 44 65 107 83 141 l32 61 97 6 c153 9 282 58 282 108 0 27 -26
34 -74 20 -74 -21 -237 -53 -243 -47 -3 3 12 29 34 58 22 29 50 70 62 91 l23
37 81 0 c189 0 457 67 457 114 0 23 -18 23 -154 0 -144 -25 -336 -48 -342 -41
-5 4 52 108 80 149 10 14 39 27 86 39 128 33 365 173 423 251 16 22 18 30 8
42 -16 19 -31 13 -134 -48 -103 -61 -276 -148 -288 -144 -5 2 18 25 51 51 61
48 75 78 48 105 -23 23 -54 12 -130 -45 -88 -68 -151 -138 -199 -224 -19 -33
-64 -107 -100 -162 -36 -56 -76 -122 -89 -147 -22 -44 -100 -143 -107 -137 -2
2 6 30 18 63 11 32 31 117 45 189 13 71 29 145 34 165 22 78 0 113 -44 71 -28
-27 -50 -91 -77 -231 -12 -58 -32 -143 -45 -189 -13 -46 -24 -102 -24 -125 0
-40 -4 -46 -69 -102 -107 -91 -136 -90 -178 4 -21 46 -27 80 -33 177 -4 66 -6
120 -6 121 1 0 39 30 86 66 83 64 190 169 190 185 0 4 -5 15 -10 23 -8 13 -13
13 -42 -3 -18 -10 -75 -52 -127 -93 -51 -41 -94 -74 -95 -72 -1 2 0 33 2 71
l4 67 154 91 c175 103 224 144 201 166 -12 12 -23 10 -81 -11 -38 -14 -109
-49 -158 -77 -50 -27 -92 -48 -94 -46 -4 4 11 91 31 183 3 11 28 56 56 100
102 155 159 292 146 346 -9 35 -31 41 -61 17z m-230 -1446 c43 -57 116 -79
200 -59 l31 7 5 -84 c6 -93 32 -164 76 -210 l27 -29 -140 7 c-131 7 -147 6
-250 -19 -60 -15 -128 -38 -151 -51 -24 -14 -45 -25 -47 -25 -3 0 -10 13 -17
30 -27 66 -149 148 -244 166 l-38 7 78 37 c98 46 220 142 273 215 23 30 60 80
82 111 l42 57 24 -63 c13 -35 35 -79 49 -97z m1778 -1749 c13 -5 14 -9 5 -20
-16 -20 -149 -20 -149 0 0 8 8 17 18 19 27 7 109 8 126 1z"/>
<path d="M12997 15855 c-62 -43 -95 -133 -66 -187 16 -30 74 -51 123 -42 113
18 162 91 120 180 -36 76 -108 95 -177 49z m78 -94 c8 -14 -33 -34 -53 -26
-15 6 -15 8 2 21 23 16 42 18 51 5z"/>
<path d="M14053 17211 c-145 -69 -270 -297 -234 -428 9 -32 17 -43 31 -43 15
0 20 7 20 28 0 60 53 191 102 255 18 24 63 72 101 106 98 92 88 133 -20 82z"/>
<path d="M14116 15491 c-12 -19 6 -38 83 -90 92 -62 171 -87 302 -97 96 -7
171 10 183 43 14 35 -12 43 -113 37 -122 -8 -241 18 -349 76 -75 41 -97 47
-106 31z"/>
<path d="M3891 14693 c-65 -78 -75 -126 -75 -338 0 -200 8 -250 47 -292 27
-31 87 -32 87 -3 0 13 -7 20 -19 20 -28 0 -34 58 -28 263 4 161 7 178 37 265
26 74 30 95 20 107 -19 23 -36 18 -69 -22z"/>
<path d="M8101 10179 c-92 -14 -265 -82 -341 -134 -184 -125 -311 -307 -365
-520 -38 -147 -35 -265 12 -460 4 -18 -9 -27 -94 -65 -54 -24 -179 -82 -278
-128 -205 -96 -505 -234 -645 -297 -52 -24 -138 -63 -190 -88 -220 -103 -249
-117 -254 -117 -2 0 -62 -27 -133 -61 -155 -74 -622 -289 -628 -289 -2 0 -13
26 -25 58 -71 191 -231 364 -424 457 -134 64 -205 79 -366 79 -145 0 -209 -12
-330 -61 -250 -101 -459 -361 -499 -620 -44 -285 31 -542 213 -732 91 -95 159
-144 260 -191 123 -57 209 -75 356 -75 148 0 233 18 359 76 47 22 88 36 92 32
8 -9 75 -111 254 -387 109 -168 292 -449 528 -810 48 -74 87 -140 87 -148 0
-7 -73 -105 -161 -218 -88 -113 -193 -247 -232 -299 -122 -160 -459 -595 -471
-608 -9 -10 -27 -9 -86 3 -120 27 -293 22 -412 -9 -230 -62 -415 -195 -546
-394 -97 -148 -140 -282 -149 -463 -8 -183 38 -358 139 -527 82 -138 268 -294
430 -361 129 -54 197 -66 358 -66 128 1 155 4 234 28 98 29 199 77 283 133
101 67 241 224 289 326 10 20 22 37 28 37 13 0 103 -38 381 -159 116 -51 235
-103 265 -116 74 -31 625 -270 945 -410 143 -62 276 -120 296 -128 l36 -15 -9
-63 c-18 -121 7 -295 62 -441 50 -133 196 -312 321 -394 169 -111 310 -154
504 -154 190 0 324 40 486 145 255 165 401 435 403 745 l0 115 144 105 c80 58
208 152 286 210 79 58 207 152 286 210 79 58 196 144 259 191 64 47 188 139
276 204 88 64 196 144 240 176 349 258 662 488 760 559 64 47 198 145 298 219
307 226 550 405 594 436 22 17 159 117 302 223 l262 193 67 -22 c102 -33 298
-38 415 -10 311 74 550 305 633 611 22 81 24 306 5 395 -32 145 -134 319 -250
428 -174 163 -433 248 -664 219 -155 -19 -289 -71 -405 -156 -34 -25 -66 -46
-71 -46 -5 0 -38 24 -72 53 -35 28 -89 72 -120 97 -32 25 -107 86 -166 135
-60 50 -126 104 -147 120 -47 37 -207 167 -296 240 -36 30 -144 118 -240 196
-96 78 -208 169 -249 203 -41 33 -163 132 -270 220 -108 87 -225 182 -261 211
-36 29 -103 84 -150 122 -47 38 -121 98 -164 133 -129 105 -253 206 -432 352
-93 75 -239 195 -326 265 -86 70 -239 196 -341 278 l-185 150 -12 94 c-29 226
-132 421 -298 563 -82 71 -239 151 -347 179 -93 24 -252 32 -344 18z m297
-160 c77 -19 209 -85 277 -139 155 -124 240 -278 266 -483 26 -207 -59 -436
-217 -589 -80 -76 -151 -119 -264 -159 -88 -31 -104 -33 -220 -33 -104 -1
-138 3 -200 23 -130 41 -207 87 -301 181 -93 92 -142 169 -186 291 -23 66 -26
89 -26 209 -1 120 2 144 26 215 37 112 90 197 177 286 110 111 242 182 392
209 62 11 209 5 276 -11z m740 -916 c26 -21 49 -41 52 -44 5 -6 224 -183 565
-459 105 -85 229 -186 276 -225 153 -127 302 -249 453 -370 225 -181 902 -732
951 -773 11 -10 76 -62 144 -117 68 -55 191 -155 275 -223 83 -68 196 -160
251 -204 55 -45 148 -121 207 -170 l107 -89 -48 -73 c-69 -106 -120 -282 -121
-414 0 -41 -4 -64 -12 -66 -7 -3 -723 -7 -1590 -10 -1538 -6 -1578 -5 -1578
13 0 31 -49 190 -76 247 -112 238 -352 417 -621 464 -88 16 -273 8 -358 -15
-91 -25 -232 -99 -311 -163 -101 -81 -167 -162 -222 -273 l-49 -96 -154 104
c-85 57 -272 183 -416 280 -145 96 -263 179 -263 182 0 10 53 80 585 767 44
57 107 138 140 181 33 43 127 165 210 272 260 335 305 393 393 510 48 62 92
120 98 127 10 12 24 13 85 3 43 -7 116 -9 174 -6 359 21 674 268 771 604 18
62 22 73 30 73 3 0 27 -17 52 -37z m-1651 -210 c11 -33 85 -127 147 -188 65
-64 121 -105 199 -145 26 -14 45 -30 43 -37 -4 -10 -66 -91 -280 -368 -17 -22
-33 -42 -36 -45 -7 -6 -151 -193 -190 -246 -50 -68 -204 -268 -318 -413 -64
-81 -141 -179 -169 -217 -29 -38 -110 -143 -180 -234 -71 -91 -152 -198 -182
-236 l-54 -71 -291 195 c-160 108 -358 241 -441 297 -82 56 -239 161 -347 235
-109 73 -198 136 -198 140 0 4 5 32 10 61 6 30 11 96 12 148 l0 93 102 48 c55
26 207 96 336 155 129 59 295 136 369 171 73 35 135 64 137 64 2 0 36 16 76
36 40 19 93 44 118 54 25 10 122 54 215 98 94 44 265 123 380 175 116 52 280
129 365 170 85 42 159 76 163 76 4 1 10 -7 14 -16z m-2922 -453 c119 -37 203
-87 291 -175 85 -84 126 -150 171 -270 38 -104 44 -279 14 -390 -35 -125 -94
-228 -182 -315 -88 -87 -172 -140 -284 -177 -69 -23 -96 -27 -205 -27 -108 0
-136 4 -205 27 -232 77 -411 267 -469 498 -20 83 -21 245 -1 324 69 272 275
465 556 525 71 15 235 5 314 -20z m1390 -1584 c220 -148 404 -272 409 -276 4
-5 -27 -54 -70 -110 -44 -56 -117 -152 -164 -213 -47 -62 -114 -149 -150 -193
-36 -45 -92 -117 -124 -159 -56 -73 -61 -77 -73 -59 -8 10 -75 114 -150 229
-74 116 -172 266 -218 335 -45 69 -119 184 -165 255 -46 72 -129 200 -185 285
-144 220 -137 189 -62 270 35 38 78 96 96 129 l32 60 212 -143 c117 -78 392
-263 612 -410z m7304 -271 c162 -42 320 -156 411 -296 47 -74 97 -223 106
-320 11 -131 -31 -305 -101 -414 -69 -108 -176 -204 -293 -264 -72 -37 -224
-64 -327 -58 -229 13 -395 105 -536 297 -36 48 -62 102 -90 185 -21 60 -24 89
-24 205 0 150 10 191 72 311 97 187 292 332 495 369 71 12 210 5 287 -15z
m-6309 -399 l435 -293 2 -126 c1 -119 8 -158 49 -303 5 -18 -13 -34 -115 -107
-66 -47 -129 -91 -141 -97 -17 -9 -139 -94 -387 -268 -184 -130 -305 -212
-311 -212 -8 0 -26 26 -138 200 -23 36 -134 208 -248 382 -113 174 -206 322
-206 328 0 6 21 39 48 72 95 122 245 315 315 408 141 187 241 310 251 309 6 0
207 -132 446 -293z m1392 253 c127 -20 230 -65 331 -146 202 -162 293 -426
238 -685 -33 -160 -110 -286 -236 -387 -279 -224 -649 -213 -916 27 -132 120
-207 281 -216 467 -8 162 17 266 95 393 152 251 416 376 704 331z m3926 -721
c5 -7 13 -29 17 -48 12 -65 94 -214 158 -290 34 -41 90 -95 124 -120 34 -25
61 -49 59 -54 -2 -9 -119 -96 -517 -388 -96 -70 -259 -191 -364 -268 -104 -78
-271 -200 -370 -272 -162 -118 -322 -236 -730 -538 -71 -53 -197 -145 -280
-205 -82 -60 -205 -150 -271 -200 -67 -49 -183 -135 -258 -190 -174 -127 -257
-188 -540 -398 -126 -93 -235 -171 -241 -174 -8 -2 -23 22 -39 63 -110 273
-365 476 -674 535 -103 19 -300 7 -402 -26 -88 -28 -239 -103 -276 -137 l-22
-19 -25 33 c-14 18 -42 60 -62 93 -21 33 -61 96 -90 140 -29 44 -117 179 -195
300 -78 121 -185 287 -239 368 -185 285 -340 524 -419 648 -23 36 -42 70 -42
76 0 5 35 32 78 60 42 28 113 77 157 108 44 32 143 101 220 155 77 53 198 136
268 186 70 49 135 94 145 99 9 6 30 19 45 29 15 10 29 17 31 15 3 -2 18 -22
36 -44 248 -316 633 -426 999 -285 153 59 308 187 401 332 49 74 98 209 117
318 8 47 17 87 19 89 2 2 691 7 1531 11 840 3 1553 7 1584 8 35 1 60 -3 67
-10z m-6457 -195 c13 -21 79 -123 147 -228 69 -104 168 -257 221 -338 53 -82
114 -176 135 -209 25 -36 36 -62 29 -66 -12 -8 -330 -230 -511 -356 -70 -49
-195 -136 -279 -193 l-152 -103 -20 44 c-51 117 -190 278 -308 357 -40 27 -77
49 -83 49 -32 0 -15 38 62 135 46 59 126 163 178 230 119 155 330 427 393 508
27 34 73 95 103 135 30 39 57 72 59 72 2 0 14 -17 26 -37z m730 -1124 c57 -88
143 -220 190 -292 48 -73 136 -208 196 -302 60 -93 150 -231 198 -305 246
-375 395 -607 395 -614 0 -3 -21 -34 -46 -68 -26 -35 -63 -98 -83 -140 l-37
-76 -114 49 c-63 28 -135 58 -160 68 -25 10 -173 75 -330 143 -157 69 -325
142 -375 163 -91 39 -450 194 -761 331 l-172 75 10 42 c25 111 27 234 5 389
-2 18 47 55 493 361 286 197 446 309 460 323 8 8 17 14 20 14 4 0 53 -72 111
-161z m-1836 25 c303 -56 539 -296 601 -612 68 -351 -126 -709 -459 -847 -103
-42 -174 -55 -302 -55 -351 0 -655 236 -735 573 -60 248 5 519 166 695 197
215 442 298 729 246z m3690 -1418 c141 -39 281 -133 376 -254 75 -94 112 -166
139 -273 30 -116 24 -307 -12 -419 -46 -143 -159 -295 -282 -379 -216 -149
-507 -171 -739 -57 -267 130 -420 373 -420 666 0 342 221 631 553 720 61 16
98 19 200 16 74 -2 149 -10 185 -20z"/>
<path d="M482 9997 c-65 -174 -66 -179 -28 -181 25 -2 31 4 44 36 l15 38 62 0
62 0 11 -38 c10 -34 16 -39 42 -40 16 0 32 3 34 7 5 8 -9 49 -80 244 l-29 77
-40 0 -40 0 -53 -143z m127 -44 c1 -13 -60 -19 -71 -8 -3 3 4 31 15 62 l21 56
17 -49 c10 -27 18 -55 18 -61z"/>
<path d="M1090 10115 c0 -24 3 -26 33 -23 24 2 32 8 32 23 0 15 -8 21 -32 23
-30 3 -33 1 -33 -23z"/>
<path d="M1250 10120 c-11 -11 -20 -29 -20 -39 0 -11 -9 -23 -20 -26 -11 -3
-20 -15 -20 -25 0 -9 9 -20 20 -23 18 -5 20 -14 20 -100 l0 -94 28 2 27 1 3
97 c3 96 3 97 28 97 21 0 25 4 22 23 -2 14 -10 22 -22 22 -30 0 -31 24 -2 35
16 6 26 17 26 30 0 16 -7 20 -35 20 -22 0 -43 -8 -55 -20z"/>
<path d="M1372 10118 c2 -18 10 -23 33 -23 23 0 31 5 33 23 3 19 -1 22 -33 22
-32 0 -36 -3 -33 -22z"/>
<path d="M1754 10125 c-9 -22 4 -35 37 -35 24 0 29 4 29 25 0 21 -5 25 -30 25
-18 0 -33 -6 -36 -15z"/>
<path d="M2132 9978 l3 -163 30 0 30 0 3 163 2 162 -35 0 -35 0 2 -162z"/>
<path d="M2380 9981 l0 -159 25 -4 c13 -3 27 -3 30 0 3 3 5 50 5 104 0 54 3
98 8 98 4 -1 30 -39 57 -86 63 -108 80 -126 113 -122 l27 3 3 163 2 162 -34 0
-35 0 -3 -102 -3 -101 -64 101 c-60 97 -65 102 -97 102 l-34 0 0 -159z"/>
<path d="M3682 9978 l3 -163 25 1 c14 1 28 2 33 3 4 0 7 73 7 161 l0 160 -35
0 -35 0 2 -162z"/>
<path d="M950 10091 c0 -33 -19 -44 -56 -35 -17 4 -31 0 -45 -12 -18 -17 -20
-17 -32 0 -7 10 -22 16 -33 14 -17 -3 -19 -13 -19 -123 0 -127 -2 -122 45
-116 6 0 10 31 10 69 0 81 11 100 65 112 66 16 65 16 65 -57 0 -38 3 -78 6
-89 11 -41 104 -63 104 -24 0 11 0 23 0 28 0 4 -4 8 -10 8 -5 1 -14 2 -20 3
-6 0 -10 32 -10 71 0 63 2 70 20 70 15 0 20 7 20 25 0 19 -5 25 -17 23 -14 -2
-19 5 -21 30 -3 29 -6 32 -38 32 -31 0 -34 -3 -34 -29z"/>
<path d="M1113 10052 c-22 -3 -23 -7 -23 -118 0 -123 6 -137 49 -114 19 10 21
20 21 114 0 110 -6 125 -47 118z"/>
<path d="M1382 10052 c-8 -2 -12 -37 -12 -118 0 -112 0 -114 24 -120 14 -3 30
-3 35 1 7 4 11 51 11 119 0 110 -1 114 -23 118 -12 2 -28 3 -35 0z"/>
<path d="M1539 10043 c-107 -66 -59 -233 66 -233 29 0 45 8 71 34 43 43 44 66
5 66 -20 0 -34 -8 -45 -25 -34 -51 -86 -21 -86 50 0 44 19 75 45 75 24 0 45
-12 45 -26 0 -9 12 -14 35 -14 39 0 44 13 17 46 -36 46 -104 58 -153 27z"/>
<path d="M1756 10052 c-3 -6 -1 -216 2 -235 1 -5 14 -7 30 -5 l27 3 3 118 c2
90 0 117 -10 118 -7 0 -21 2 -30 4 -10 2 -20 0 -22 -3z"/>
<path d="M1904 10042 c-17 -11 -34 -29 -37 -41 -4 -18 -1 -21 24 -21 16 0 38
9 49 20 24 24 43 25 60 5 20 -25 4 -42 -47 -50 -69 -10 -93 -28 -93 -70 0 -63
55 -92 125 -65 15 6 32 7 38 3 7 -4 22 -9 35 -11 22 -3 22 -1 22 97 0 125 -11
142 -91 148 -41 3 -61 0 -85 -15z m106 -137 c0 -32 -44 -63 -69 -48 -28 18
-19 47 19 60 49 16 50 16 50 -12z"/>
<path d="M2759 10044 c-79 -51 -78 -178 1 -219 52 -27 97 -20 139 23 l36 37
-28 3 c-16 2 -36 -3 -46 -12 -31 -29 -80 -15 -94 27 -6 15 2 17 78 17 46 0 86
4 89 8 9 15 -17 81 -40 103 -31 29 -100 35 -135 13z m93 -51 c29 -26 22 -33
-32 -33 -51 0 -64 12 -38 38 17 17 48 15 70 -5z"/>
<path d="M2975 10052 c-3 -3 -5 -47 -5 -97 0 -78 3 -96 21 -119 24 -30 73 -35
105 -11 24 18 34 19 34 1 0 -10 9 -14 28 -12 l27 3 3 115 3 116 -31 4 c-16 3
-32 2 -35 0 -3 -3 -5 -40 -5 -83 0 -79 -12 -109 -45 -109 -33 0 -45 30 -45
110 0 75 -1 78 -25 82 -13 3 -27 3 -30 0z"/>
<path d="M3244 10046 c-3 -7 -3 -61 -2 -122 l3 -109 30 0 30 0 3 75 c3 81 20
110 67 110 21 0 24 8 16 53 -2 14 -33 7 -62 -14 -24 -17 -29 -18 -29 -5 0 9
-3 16 -7 17 -5 0 -16 2 -26 4 -10 2 -20 -2 -23 -9z"/>
<path d="M3474 10050 c-21 -8 -54 -46 -54 -62 0 -16 61 -7 80 12 24 24 34 25
55 4 22 -23 4 -40 -50 -48 -59 -9 -88 -34 -88 -76 0 -48 34 -74 88 -66 48 7
61 8 100 4 l29 -3 -2 100 c-3 93 -5 102 -28 123 -27 23 -88 29 -130 12z m96
-140 c0 -23 -33 -60 -54 -60 -19 0 -39 27 -33 44 4 9 21 19 39 25 47 13 48 13
48 -9z"/>
<path d="M450 9421 l0 -161 24 -6 c14 -3 30 -3 35 1 7 4 11 48 11 108 l1 102
54 -85 c81 -128 82 -129 113 -127 l27 2 3 163 2 162 -30 0 -30 0 0 -100 c0
-55 -3 -100 -7 -100 -5 1 -35 45 -68 98 -57 92 -62 97 -98 100 l-37 3 0 -160z"/>
<path d="M2032 9418 l3 -163 30 0 c28 0 30 3 35 44 6 56 22 61 49 19 11 -18
25 -39 30 -47 5 -8 26 -15 46 -16 43 -2 42 1 -16 86 l-41 61 41 42 c23 23 41
44 41 47 0 3 -16 5 -36 4 -28 -1 -44 -10 -70 -38 -19 -20 -36 -37 -39 -37 -3
0 -5 36 -5 80 l0 80 -35 0 -35 0 2 -162z"/>
<path d="M1058 9528 c-2 -21 -8 -33 -18 -33 -24 0 -25 -41 -1 -48 19 -5 21
-13 21 -85 0 -90 7 -101 70 -109 37 -5 40 -4 40 19 0 17 -8 29 -25 36 -23 11
-25 17 -25 77 0 63 1 65 25 65 18 0 25 5 25 20 0 11 -4 21 -10 21 -5 1 -16 2
-22 3 -7 0 -14 16 -16 34 -3 28 -7 32 -32 32 -25 0 -29 -4 -32 -32z"/>
<path d="M817 9466 c-104 -104 5 -267 133 -201 26 13 50 42 50 59 0 13 -52 5
-66 -9 -30 -30 -94 -9 -94 31 0 11 18 14 81 14 l82 0 -5 44 c-11 96 -113 130
-181 62z m107 -32 c26 -26 18 -34 -34 -34 -37 0 -50 4 -50 15 0 32 58 45 84
19z"/>
<path d="M1187 9493 c-4 -4 61 -223 69 -232 9 -10 54 -8 62 2 5 7 15 37 23 67
7 30 15 58 19 62 3 4 14 -24 24 -62 18 -73 37 -91 74 -71 19 10 90 217 78 229
-11 10 -40 11 -52 1 -7 -5 -15 -22 -19 -37 -19 -80 -27 -102 -34 -98 -5 3 -14
32 -20 65 -13 66 -27 83 -59 74 -15 -3 -25 -17 -31 -42 -32 -122 -27 -120 -56
-18 -8 31 -21 57 -28 58 -7 0 -20 2 -29 4 -9 2 -19 1 -21 -2z"/>
<path d="M1619 9477 c-48 -32 -68 -91 -48 -143 17 -45 69 -84 111 -84 94 0
155 98 113 180 -35 68 -114 89 -176 47z m103 -44 c23 -21 24 -89 1 -115 -37
-41 -93 -7 -93 57 0 63 51 95 92 58z"/>
<path d="M1867 9492 c-16 -3 -17 -15 -15 -120 l3 -117 25 0 c23 0 25 4 28 55
4 98 21 130 68 130 20 0 24 5 24 30 0 21 -5 30 -16 30 -19 0 -56 -19 -66 -34
-5 -7 -8 -5 -8 5 0 19 -17 27 -43 21z"/>
<path d="M11728 8655 c-49 -34 -71 -77 -72 -145 -1 -65 23 -113 75 -148 28
-20 44 -23 90 -20 95 7 149 63 151 158 3 103 -56 171 -152 178 -46 3 -61 -1
-92 -23z m144 -72 c31 -33 32 -109 2 -150 -30 -39 -84 -44 -119 -9 -20 21 -25
35 -25 78 0 104 78 149 142 81z"/>
<path d="M13290 8510 l0 -160 115 0 115 0 0 30 0 29 -77 3 -78 3 -1 30 c-1 17
-2 74 -3 128 l-1 97 -35 0 -35 0 0 -160z"/>
<path d="M12300 8619 c0 -22 -5 -32 -20 -36 -11 -3 -20 -13 -20 -23 0 -10 9
-20 20 -23 18 -5 20 -14 20 -77 0 -39 4 -79 10 -89 10 -20 67 -35 94 -25 25
10 19 41 -9 48 -24 6 -25 10 -25 76 0 68 1 70 25 70 18 0 25 5 25 20 0 15 -7
20 -25 20 -22 0 -25 4 -25 35 0 33 -2 35 -35 35 -32 0 -35 -2 -35 -31z"/>
<path d="M13010 8615 c0 -28 -4 -35 -20 -35 -13 0 -20 -7 -20 -20 0 -13 7 -20
20 -20 18 0 20 -7 20 -70 0 -92 12 -117 61 -125 44 -8 59 -1 59 25 0 11 -10
20 -25 24 -25 6 -26 9 -23 74 3 61 5 67 26 70 32 5 30 42 -3 42 -22 0 -25 4
-25 35 0 33 -2 35 -35 35 -33 0 -35 -2 -35 -35z"/>
<path d="M12538 8576 c-16 -8 -28 -10 -28 -5 0 6 -15 9 -32 7 l-33 -3 0 -155
0 -155 35 0 c35 0 35 0 36 45 1 33 5 44 15 41 77 -23 130 1 150 69 14 45 -2
119 -30 144 -25 23 -82 29 -113 12z m55 -49 c45 -32 25 -137 -27 -137 -34 0
-51 27 -50 78 1 61 37 89 77 59z"/>
<path d="M13608 8583 c-26 -4 -68 -44 -68 -64 0 -15 67 -10 80 7 19 21 65 14
65 -10 0 -16 -11 -22 -57 -31 -70 -14 -88 -28 -88 -71 0 -52 33 -77 90 -69 25
3 65 6 90 5 l45 -1 -3 100 c-3 79 -7 102 -21 115 -19 17 -88 27 -133 19z m92
-137 c0 -3 -4 -16 -10 -30 -8 -21 -16 -26 -45 -26 -29 0 -35 4 -35 20 0 12 10
24 23 30 23 9 67 13 67 6z"/>
<path d="M14125 8582 c-54 -19 -85 -61 -85 -115 0 -99 93 -157 180 -112 26 13
50 42 50 59 0 13 -58 5 -70 -9 -15 -18 -61 -20 -78 -3 -7 7 -12 20 -12 31 0
16 8 18 63 17 101 -2 97 -4 97 35 0 65 -80 119 -145 97z m73 -69 c14 -23 14
-23 -37 -23 -54 0 -69 18 -33 39 25 16 53 9 70 -16z"/>
<path d="M14396 8569 c-22 -18 -26 -18 -26 -4 0 12 -8 16 -32 13 l-33 -3 -3
-112 -3 -113 41 0 40 0 0 74 c0 66 3 77 22 90 12 9 30 16 40 16 13 0 18 8 18
30 0 37 -24 40 -64 9z"/>
<path d="M12010 8485 c0 -88 2 -98 25 -120 27 -28 66 -32 108 -11 15 8 27 11
27 5 0 -5 15 -9 33 -9 l32 0 3 115 4 115 -36 0 -36 0 0 -67 c0 -74 -15 -116
-43 -121 -37 -7 -47 16 -47 104 l0 84 -35 0 -35 0 0 -95z"/>
<path d="M12720 8500 c0 -129 31 -175 108 -155 15 3 46 6 70 5 l42 -1 0 116 0
115 -30 0 -30 0 0 -67 c0 -75 -15 -116 -45 -121 -32 -7 -45 26 -45 110 l0 78
-35 0 -35 0 0 -80z"/>
<path d="M13792 8568 c58 -155 79 -221 74 -233 -3 -8 -17 -15 -31 -15 -21 0
-25 -5 -25 -30 0 -27 3 -30 30 -30 44 0 75 18 89 53 36 89 91 244 91 255 0 9
-11 12 -32 10 -31 -3 -34 -7 -53 -70 -11 -38 -22 -68 -25 -68 -3 0 -14 30 -25
68 -20 67 -21 67 -59 70 -29 3 -37 0 -34 -10z"/>
<path d="M13089 8221 c-24 -19 -24 -20 -27 -265 l-3 -245 -330 -3 -331 -3 -19
-24 c-18 -22 -19 -43 -19 -363 l0 -339 25 -24 c30 -30 64 -32 99 -4 l26 20 2
292 3 292 690 0 690 0 5 -513 5 -514 24 -19 c32 -26 67 -24 96 6 l25 24 0 561
0 561 -25 24 -24 25 -396 0 -395 0 0 245 c0 232 -1 246 -20 265 -25 25 -71 26
-101 1z"/>
<path d="M2542 8003 c-7 -3 -19 -18 -27 -33 -13 -25 -15 -168 -15 -1050 l0
-1020 -254 0 -255 0 -20 -26 c-27 -35 -26 -59 4 -89 l24 -25 251 0 250 0 0
-1051 0 -1051 29 -29 29 -29 399 0 c299 0 404 3 423 13 30 15 45 54 36 91 -13
52 -41 56 -416 56 l-340 0 0 2050 0 2050 355 0 c342 0 356 1 375 20 28 28 26
81 -3 108 -23 22 -26 22 -428 21 -222 0 -410 -3 -417 -6z"/>
<path d="M730 6125 l0 -165 40 0 40 0 0 165 0 165 -40 0 -40 0 0 -165z"/>
<path d="M1690 6235 c0 -28 -4 -35 -20 -35 -14 0 -20 -7 -20 -21 0 -12 8 -23
20 -26 18 -5 20 -14 20 -77 0 -94 15 -116 76 -116 40 0 44 2 44 24 0 18 -6 25
-22 28 -21 3 -23 9 -26 70 -3 63 -2 67 20 70 15 2 24 11 26 26 3 18 -1 22 -22
22 -23 0 -26 4 -26 35 0 33 -2 35 -35 35 -33 0 -35 -2 -35 -35z"/>
<path d="M955 6194 c-19 -10 -31 -11 -33 -5 -2 6 -17 11 -33 11 l-29 0 0 -121
0 -120 33 3 32 3 5 84 c4 65 9 86 23 95 12 8 22 8 35 0 13 -9 18 -30 22 -95
l5 -84 33 -3 32 -3 0 90 c0 100 -10 133 -47 150 -32 14 -42 14 -78 -5z"/>
<path d="M1218 6196 c-16 -8 -28 -11 -28 -5 0 5 -16 9 -35 9 l-35 0 0 -160 0
-160 35 0 c35 0 35 0 35 43 0 24 3 46 6 49 3 3 18 -1 34 -8 78 -39 162 63 131
159 -23 68 -89 102 -143 73z m61 -59 c36 -45 15 -127 -33 -127 -29 0 -44 17
-52 58 -12 59 51 110 85 69z"/>
<path d="M1410 6100 c0 -88 2 -101 21 -119 30 -28 66 -34 100 -17 16 8 31 10
35 5 3 -5 18 -9 35 -9 l29 0 0 121 0 120 -32 -3 -33 -3 -3 -80 c-3 -85 -12
-105 -47 -105 -30 0 -35 16 -35 111 l0 79 -35 0 -35 0 0 -100z"/>
<path d="M730 5565 l0 -165 121 0 120 0 -3 33 -3 32 -77 3 -78 3 0 129 0 130
-40 0 -40 0 0 -165z"/>
<path d="M1056 5640 c-37 -12 -66 -39 -66 -62 0 -25 50 -24 73 2 20 24 50 26
67 5 18 -21 5 -32 -47 -40 -61 -9 -82 -20 -93 -51 -25 -64 29 -114 104 -96 22
5 58 8 79 5 l37 -5 0 99 c0 90 -2 101 -23 121 -26 24 -89 35 -131 22z m84
-144 c0 -8 -8 -24 -18 -36 -14 -18 -25 -22 -45 -16 -53 13 -21 63 41 65 12 1
22 -5 22 -13z"/>
<path d="M1575 5643 c-35 -9 -63 -34 -80 -70 -43 -91 35 -195 132 -177 64 12
114 84 59 84 -13 0 -29 -7 -36 -15 -23 -28 -90 -16 -90 16 0 16 10 19 78 21
l77 3 -1 39 c-2 64 -74 115 -139 99z m63 -65 c21 -21 13 -28 -33 -28 -43 0
-58 14 -38 33 11 11 58 8 71 -5z"/>
<path d="M1864 5640 c-12 -5 -25 -13 -29 -19 -3 -6 -11 -9 -16 -5 -5 3 -7 10
-4 15 4 5 -10 9 -29 9 l-36 0 0 -120 0 -120 35 0 35 0 0 70 c0 79 19 110 66
110 22 0 25 4 22 32 -3 35 -13 41 -44 28z"/>
<path d="M1240 5627 c0 -8 16 -57 35 -108 44 -117 44 -138 7 -145 -24 -5 -28
-10 -24 -30 4 -20 10 -24 42 -24 23 0 43 7 52 18 13 15 118 277 118 295 0 4
-15 7 -34 7 -34 0 -35 -2 -51 -57 -29 -105 -29 -105 -57 -23 -23 71 -26 75
-56 78 -23 2 -32 -1 -32 -11z"/>
<path d="M9285 1688 c-43 -25 -44 -31 -45 -315 l0 -273 -954 0 -955 0 -3 184
c-3 179 -4 185 -27 210 -29 31 -73 34 -100 7 -28 -28 -33 -83 -29 -306 l3
-197 28 -24 28 -24 499 0 499 0 3 -186 c3 -181 4 -186 27 -205 30 -25 62 -24
95 2 l26 20 0 184 0 184 485 3 484 3 23 23 c23 23 23 23 23 348 l0 326 -28 24
c-31 26 -52 29 -82 12z"/>
<path d="M6984 487 c-2 -7 -3 -80 -2 -162 l3 -150 38 -3 37 -3 0 70 0 71 65 0
65 0 0 -70 0 -70 35 0 35 0 0 155 c0 85 0 158 0 163 0 4 -15 7 -32 7 l-33 0
-3 -62 -3 -63 -64 0 -65 0 0 65 0 65 -35 0 c-20 0 -38 -6 -41 -13z"/>
<path d="M7314 485 c-11 -27 4 -45 36 -45 27 0 30 3 30 30 0 27 -3 30 -30 30
-18 0 -33 -6 -36 -15z"/>
<path d="M7600 446 l0 -55 -35 15 c-30 12 -40 12 -67 1 -41 -17 -53 -32 -66
-79 -28 -101 62 -200 140 -155 15 9 28 12 28 7 0 -6 16 -10 35 -10 l35 0 0
165 0 165 -35 0 -35 0 0 -54z m-16 -108 c18 -26 21 -71 6 -99 -15 -27 -64 -25
-84 3 -32 46 -8 118 39 118 13 0 31 -10 39 -22z"/>
<path d="M7880 445 c0 -30 -2 -55 -3 -55 -2 0 -18 7 -35 16 -112 55 -191 -136
-91 -220 35 -30 58 -32 99 -11 17 9 30 11 30 5 0 -5 14 -10 30 -10 l30 0 0
165 0 165 -30 0 c-30 0 -30 -1 -30 -55z m-16 -107 c46 -66 -19 -153 -76 -101
-23 20 -24 80 -1 105 22 25 59 23 77 -4z"/>
<path d="M8654 487 c-2 -7 -3 -80 -2 -162 l3 -150 118 -3 117 -3 0 31 c0 29
-1 30 -47 31 -27 0 -61 2 -78 2 l-30 2 -3 133 -3 132 -35 0 c-19 0 -37 -6 -40
-13z"/>
<path d="M8052 400 c-38 -23 -72 -75 -72 -110 0 -71 78 -138 146 -125 39 7 84
44 84 70 0 20 -43 20 -60 -1 -9 -10 -26 -14 -49 -12 -29 2 -37 8 -39 26 -3 21
-1 22 79 22 l82 0 -6 42 c-11 81 -98 128 -165 88z m86 -52 c25 -25 13 -38 -33
-38 -38 0 -45 3 -45 19 0 30 54 43 78 19z"/>
<path d="M8365 413 c-11 -3 -25 -9 -32 -15 -7 -6 -14 -5 -18 2 -3 5 -19 10
-36 10 l-29 0 0 -120 0 -120 35 0 35 0 0 76 c0 87 11 114 46 114 32 0 44 -32
44 -121 l0 -69 30 0 30 0 0 99 c0 80 -3 103 -17 119 -19 23 -56 33 -88 25z"/>
<path d="M8983 409 c-29 -9 -73 -50 -73 -70 0 -18 66 -9 83 11 20 24 40 26 57
5 17 -20 -3 -45 -37 -45 -39 0 -93 -27 -102 -52 -21 -58 43 -112 108 -90 15 5
48 8 72 5 l44 -5 -3 88 c-1 49 -5 98 -7 110 -8 37 -84 60 -142 43z m77 -148
c0 -48 -72 -69 -78 -23 -2 16 3 25 20 31 38 16 58 13 58 -8z"/>
<path d="M9483 405 c-76 -33 -96 -144 -38 -205 34 -35 74 -45 120 -30 36 12
79 56 69 71 -8 14 -50 10 -64 -6 -24 -29 -90 -13 -90 22 0 10 21 13 80 13 l80
0 0 35 c0 26 -8 44 -32 69 -39 41 -80 51 -125 31z m75 -57 c24 -24 13 -38 -27
-38 -44 0 -59 13 -41 35 15 18 52 19 68 3z"/>
<path d="M9776 401 c-30 -16 -36 -16 -36 -4 0 10 -9 13 -32 11 l-33 -3 0 -115
0 -115 35 0 35 0 2 75 c3 81 14 100 60 100 19 0 23 5 23 29 0 40 -10 44 -54
22z"/>
<path d="M7314 397 c-2 -7 -3 -60 -2 -118 l3 -104 33 -3 32 -3 0 120 0 121
-30 0 c-17 0 -33 -6 -36 -13z"/>
<path d="M9160 401 c0 -6 6 -28 14 -48 72 -192 70 -185 51 -199 -9 -7 -23 -10
-31 -7 -10 4 -14 -3 -14 -26 0 -29 2 -31 40 -31 54 0 68 19 123 163 60 159 59
152 18 152 -32 0 -34 -2 -53 -65 -11 -36 -23 -68 -27 -72 -4 -4 -18 25 -31 65
-24 68 -27 72 -58 75 -17 2 -32 -1 -32 -7z"/>
</g>
</svg>
