<?xml version="1.0" standalone="no"?>
<!DOCTYPE svg PUBLIC "-//W3C//DTD SVG 20010904//EN"
 "http://www.w3.org/TR/2001/REC-SVG-20010904/DTD/svg10.dtd">
<svg version="1.0" xmlns="http://www.w3.org/2000/svg"
 width="7427.000000pt" height="7226.000000pt" viewBox="0 0 7427.000000 7226.000000"
 preserveAspectRatio="xMidYMid meet">

<g transform="translate(0.000000,7226.000000) scale(0.100000,-0.100000)"
fill="#000000" stroke="none">
<path d="M30790 72254 c-14 -3 -106 -19 -205 -35 -350 -58 -711 -146 -1230
-299 -170 -51 -345 -102 -387 -114 -135 -40 -227 -118 -285 -242 l-28 -59 -3
-825 c-5 -1329 17 -5139 48 -8370 11 -1091 12 -1209 60 -5550 76 -6825 88
-8379 96 -11665 3 -1560 9 -2453 15 -2494 22 -138 101 -246 226 -308 169 -84
368 -45 496 96 46 51 73 104 94 184 14 56 15 234 9 1992 -13 3939 -32 6051
-121 13975 -55 4898 -73 7049 -84 10240 -5 1268 -8 2306 -6 2308 12 13 763
217 911 247 l31 6 7 -4613 c4 -2537 11 -5958 16 -7603 5 -1644 12 -5352 15
-8240 4 -2898 10 -5278 15 -5313 25 -178 166 -321 348 -353 120 -21 251 21
345 110 63 60 100 124 123 212 16 59 16 358 10 3999 -4 2164 -11 5589 -17
7610 -9 3575 -29 14123 -25 14127 5 6 3640 -1047 5326 -1543 4622 -1360 8030
-2435 9310 -2936 l85 -34 3 -129 c5 -251 540 -33430 538 -33431 -7 -8 -2242
398 -2252 409 -9 9 -144 4040 -144 4292 l0 100 48 35 c119 88 301 443 358 701
26 116 24 331 -4 443 -24 97 -82 228 -132 301 -74 108 -233 251 -343 310 l-37
20 6 1935 7 1935 -42 165 c-66 259 -178 665 -361 1310 -184 650 -250 889 -305
1110 -49 198 -68 242 -136 315 -65 69 -140 111 -228 127 l-57 11 -99 346
c-173 609 -264 939 -341 1231 -47 180 -84 301 -101 329 -38 66 -105 126 -181
163 -63 31 -72 33 -177 33 -103 0 -114 -2 -177 -32 -74 -35 -141 -96 -181
-164 -15 -25 -58 -137 -96 -249 -73 -216 -177 -494 -307 -824 -58 -149 -80
-194 -86 -180 -4 11 -46 165 -93 344 -93 351 -105 381 -191 460 -50 46 -129
87 -186 96 -21 4 -42 12 -47 18 -13 16 -219 748 -340 1210 -42 158 -81 286
-95 310 -34 58 -112 130 -172 160 -201 100 -449 23 -552 -172 -49 -93 -213
-640 -342 -1142 -35 -135 -66 -248 -70 -253 -4 -4 -26 3 -51 17 -24 13 -70 32
-101 41 -49 14 -58 20 -67 48 -39 124 -281 999 -356 1286 -31 122 -66 232 -80
256 -38 65 -136 150 -202 176 -79 30 -202 37 -276 15 -82 -24 -173 -90 -223
-163 -44 -64 -76 -155 -189 -538 -67 -226 -197 -706 -251 -928 l-39 -159 -30
7 c-16 4 -57 10 -90 14 l-60 6 -66 235 c-92 321 -177 634 -243 889 -32 123
-67 233 -81 257 -38 66 -109 130 -183 166 -63 31 -72 33 -177 33 -103 0 -114
-2 -177 -32 -79 -37 -156 -109 -191 -179 -59 -116 -265 -832 -423 -1469 -26
-104 -49 -185 -51 -180 -45 145 -302 1075 -373 1350 -29 110 -64 222 -78 249
-93 172 -297 254 -485 196 -123 -38 -223 -131 -267 -247 -70 -187 -232 -754
-360 -1259 -45 -175 -83 -324 -85 -331 -3 -9 -15 -8 -50 4 -34 11 -72 14 -138
11 -78 -3 -102 -9 -158 -36 -72 -34 -153 -112 -187 -178 -44 -86 -224 -693
-347 -1170 l-68 -261 -59 -11 c-125 -23 -245 -107 -300 -209 -24 -44 -94 -261
-182 -558 -74 -254 -161 -585 -330 -1260 -97 -385 -195 -770 -219 -855 l-44
-155 -12 -1465 c-6 -806 -14 -1659 -17 -1896 l-7 -430 -51 -18 c-203 -71 -418
-271 -526 -491 -219 -443 -133 -969 217 -1332 60 -62 123 -99 242 -144 l64
-24 -7 -630 c-6 -647 -21 -1429 -32 -1731 l-6 -170 -182 23 c-632 82 -2209
346 -4016 673 -577 105 -540 97 -545 113 -2 7 -54 147 -116 312 -365 982 -878
2158 -1547 3550 -370 771 -908 1857 -987 1995 -246 429 -501 697 -810 852 -49
25 -116 54 -147 64 l-58 18 0 40 c0 23 -21 240 -46 483 l-47 442 55 60 c217
234 337 585 307 900 -25 265 -129 493 -317 691 -104 111 -190 178 -305 240
-92 50 -98 61 -147 244 -58 217 -80 455 -62 645 10 98 13 106 45 140 143 152
355 458 532 771 162 284 249 493 319 765 214 841 60 1631 -444 2277 -91 117
-354 378 -485 482 -671 531 -1672 914 -2925 1120 -591 97 -1070 133 -1660 123
-363 -6 -479 -13 -795 -48 -1444 -157 -2792 -703 -3815 -1544 -949 -781 -1604
-1772 -1916 -2898 -79 -286 -136 -599 -171 -937 -23 -230 -23 -780 0 -1010 47
-450 162 -1012 307 -1495 407 -1356 1038 -2379 1837 -2977 363 -271 767 -453
1207 -543 65 -13 121 -26 124 -30 16 -16 -143 -333 -252 -500 l-72 -110 -62 3
c-97 6 -151 -12 -376 -121 -1068 -521 -2010 -1263 -2789 -2197 -265 -317 -587
-771 -792 -1114 -187 -314 -384 -701 -516 -1011 -35 -82 -64 -151 -65 -153 -1
-2 -125 -38 -275 -82 -486 -139 -896 -274 -2375 -778 l-410 -140 -160 5 c-98
4 -199 1 -263 -6 -337 -40 -640 -190 -890 -441 l-86 -87 -340 -122 c-420 -152
-715 -255 -1785 -626 -1786 -619 -2922 -1031 -3073 -1113 -92 -50 -168 -155
-191 -266 -34 -161 57 -1455 113 -1619 36 -104 105 -183 203 -233 36 -18 236
-68 675 -168 342 -79 625 -145 628 -147 8 -9 176 -20325 170 -20569 -9 -342
-9 -343 10 -401 23 -71 77 -151 129 -193 22 -18 415 -247 871 -508 1077 -616
1020 -585 1095 -604 128 -33 250 -1 378 97 155 120 384 280 702 491 355 235
663 460 724 527 21 24 52 73 70 110 l31 66 3 1445 2 1445 702 317 c386 175
703 316 706 314 2 -2 -73 -235 -166 -518 -658 -1986 -1200 -3757 -1742 -5693
-152 -540 -163 -586 -162 -660 2 -186 75 -400 200 -589 65 -99 248 -280 354
-350 251 -166 513 -247 795 -247 192 0 341 34 498 113 131 67 285 198 338 289
14 24 78 220 142 434 64 215 193 641 287 948 162 528 173 558 193 553 29 -7
8524 -3132 8530 -3137 2 -3 -74 -270 -169 -594 -305 -1039 -370 -1269 -374
-1326 -10 -132 57 -396 139 -549 105 -194 298 -383 494 -483 231 -117 522
-172 777 -148 373 35 668 166 918 408 114 109 149 162 174 259 9 34 75 261
146 505 589 1999 1388 4438 2452 7481 112 318 205 578 209 578 3 0 35 -37 71
-83 78 -97 264 -283 363 -362 283 -227 630 -399 975 -484 464 -114 1039 -98
1643 45 60 14 110 24 112 23 22 -24 1114 -2293 1375 -2859 l104 -225 96 -95
c271 -271 637 -413 973 -379 441 45 826 362 971 799 45 136 60 246 53 379 -10
179 -32 235 -256 655 -459 858 -1211 2320 -1199 2331 9 9 303 127 651 261 807
311 1173 488 1532 739 330 231 618 517 810 805 392 588 469 1293 209 1911
-152 360 -432 657 -765 813 -195 91 -397 143 -784 201 -132 20 -290 49 -352
65 -111 28 -256 89 -302 127 l-24 20 41 409 c154 1513 266 2806 367 4209 78
1097 155 2376 155 2583 l0 84 28 -6 c15 -3 1994 -368 4397 -811 2404 -443
4375 -807 4381 -809 8 -3 13 -1032 18 -3618 12 -6357 36 -9820 96 -13443 24
-1459 29 -1601 51 -1668 34 -102 118 -201 206 -242 20 -10 491 -185 1047 -390
556 -205 1047 -390 1090 -411 98 -47 205 -57 302 -29 77 22 103 39 259 164 72
57 342 263 600 456 571 427 834 634 875 685 17 21 43 65 58 97 l27 58 5 1269
5 1270 3670 2667 c2019 1467 3673 2668 3678 2668 4 1 7 -32 7 -71 1 -168 16
-274 48 -343 39 -83 113 -157 195 -195 102 -48 715 -196 1137 -274 294 -55
686 -106 812 -106 83 0 178 29 235 73 23 18 99 83 170 146 70 62 220 186 332
275 678 535 879 705 931 786 18 28 41 78 51 111 19 61 18 132 -53 6705 -39
3654 -70 6646 -67 6649 3 2 466 104 1030 225 1672 361 6251 1349 6294 1359
232 55 4659 1005 4745 1018 85 14 149 45 215 105 64 58 98 114 121 196 16 57
14 1068 -25 16819 -23 9217 -45 16795 -50 16839 -18 186 -138 327 -313 370
l-66 16 -5 522 -5 521 -27 80 c-44 133 -120 413 -261 970 -207 813 -308 1182
-351 1272 -38 82 -104 147 -191 190 -73 37 -80 38 -182 38 -102 0 -109 -1
-182 -37 -80 -40 -138 -94 -180 -169 -14 -24 -119 -297 -234 -606 -115 -310
-211 -563 -214 -563 -3 0 -39 129 -79 288 -98 382 -215 791 -245 857 -116 254
-467 315 -665 117 -27 -27 -60 -71 -74 -98 -13 -27 -136 -348 -272 -714 -136
-366 -251 -669 -255 -673 -4 -5 -37 112 -74 260 -147 589 -273 1041 -313 1121
-37 74 -136 164 -210 192 -130 50 -280 34 -394 -42 -106 -71 -114 -88 -355
-733 -148 -394 -221 -579 -226 -567 -4 9 -26 91 -48 182 -93 372 -241 902
-268 955 -52 104 -139 179 -249 216 -83 27 -199 23 -286 -11 -76 -29 -174
-119 -209 -192 -14 -29 -130 -335 -259 -680 -129 -345 -236 -628 -239 -628 -3
0 -43 147 -89 328 -103 404 -225 833 -252 889 -28 57 -102 138 -156 169 -59
35 -155 64 -212 64 -62 0 -153 -24 -213 -57 -57 -31 -128 -104 -157 -162 -12
-22 -116 -294 -231 -603 -116 -309 -212 -563 -214 -565 -2 -2 -17 49 -34 114
-182 701 -261 981 -294 1047 -11 22 -45 65 -74 96 -146 153 -380 171 -549 42
-92 -70 -105 -98 -335 -713 -117 -316 -216 -578 -220 -582 -4 -4 -40 122 -80
280 -99 394 -217 807 -249 873 -75 156 -263 253 -434 223 -128 -22 -248 -106
-301 -211 -13 -26 -137 -351 -276 -722 -138 -371 -253 -676 -255 -678 -1 -1
-41 152 -88 340 -94 375 -162 627 -234 873 -36 123 -56 173 -88 219 -143 214
-444 247 -628 68 -27 -26 -58 -63 -70 -82 -11 -18 -119 -295 -238 -615 -120
-319 -220 -573 -223 -565 -3 8 -24 89 -46 180 -110 442 -241 903 -277 974 -86
170 -296 263 -474 210 -110 -33 -191 -92 -247 -182 -16 -26 -125 -305 -242
-620 -117 -314 -215 -570 -217 -568 -2 2 -33 118 -69 257 -136 531 -231 859
-269 924 -31 54 -111 128 -171 158 -186 93 -412 35 -529 -134 -26 -38 -491
-1258 -735 -1930 l-32 -86 -326 -7 c-180 -3 -553 -9 -828 -13 l-502 -6 -6 244
c-12 448 -77 4712 -74 4839 l3 125 145 13 c2831 248 6639 615 12105 1167 6055
611 8138 817 10255 1015 1533 143 1922 176 1925 166 2 -6 8 -1068 14 -2361 6
-1292 14 -2540 17 -2772 l7 -422 -81 1 c-100 0 -187 -27 -257 -80 -101 -76
-107 -90 -342 -719 -120 -321 -221 -583 -224 -583 -3 0 -14 35 -24 78 -81 346
-264 1002 -301 1078 -72 150 -249 243 -425 223 -125 -14 -266 -113 -317 -225
-12 -27 -116 -301 -231 -608 -205 -548 -209 -559 -219 -520 -6 21 -42 164 -81
316 -98 381 -208 762 -238 821 -55 109 -183 198 -308 215 -158 21 -313 -46
-398 -170 -27 -39 -145 -343 -448 -1153 -227 -605 -422 -1128 -435 -1163 -23
-61 -24 -73 -24 -351 0 -158 -3 -329 -7 -380 -5 -82 -8 -92 -27 -96 -39 -8
-800 -105 -981 -125 -99 -11 -210 -20 -246 -20 -37 0 -90 -5 -119 -10 -175
-33 -316 -178 -337 -346 -5 -33 -5 -545 -1 -1139 30 -4854 45 -11414 53
-22665 4 -5760 9 -8272 17 -8310 15 -80 58 -158 120 -216 66 -63 80 -70 243
-129 72 -26 317 -120 545 -210 791 -311 1149 -425 1330 -425 119 0 985 195
2375 535 681 167 1567 375 1593 375 13 0 19 -595 42 -4325 24 -3735 21 -3503
48 -3577 38 -105 110 -187 207 -236 84 -42 382 -110 599 -137 175 -22 470 -20
659 5 262 33 726 139 818 186 95 48 175 148 209 259 9 31 31 6123 95 26014 72
22367 81 25981 69 26028 -31 121 -106 213 -217 268 -127 63 146 82 -2652 -191
-594 -58 -1822 -179 -2730 -270 -2691 -268 -4372 -440 -9805 -999 -6366 -655
-9983 -1019 -12865 -1294 -517 -50 -973 -95 -1013 -100 -142 -21 -258 -104
-320 -231 -40 -83 -52 -179 -52 -436 l0 -192 -192 63 c-106 34 -373 121 -593
193 -2453 800 -6216 1926 -12160 3636 -335 97 -633 184 -662 195 -52 21 -158
33 -203 25z m42640 -1461 c0 -861 -161 -50808 -164 -50811 -8 -7 -266 -51
-371 -63 -104 -11 -324 -7 -436 7 l-47 6 -6 202 c-3 110 -10 998 -16 1971 -6
974 -19 3089 -30 4700 -38 5628 -77 11703 -85 13200 -3 517 -7 1233 -10 1590
-4 358 -15 2126 -26 3930 -10 1804 -30 5134 -44 7400 -14 2266 -41 6807 -60
10090 -19 3284 -36 6083 -38 6220 -3 229 -5 255 -25 305 -48 123 -163 223
-292 256 -75 19 20 26 -1065 -72 -2299 -207 -4809 -452 -10530 -1030 -6713
-677 -10036 -999 -13335 -1290 l-185 -16 -125 52 c-210 88 -943 363 -1076 404
-20 6 -22 15 -28 182 -4 97 -6 177 -4 179 2 2 219 24 483 50 3588 346 6472
636 13605 1370 6920 712 9825 1005 12980 1309 426 41 791 77 810 79 19 2 54 5
78 5 l42 2 0 -227z m-12969 -9236 c39 -153 68 -281 65 -285 -11 -10 -328 -15
-353 -5 -20 8 -18 16 90 306 76 203 114 292 119 280 4 -10 39 -143 79 -296z
m1643 14 c42 -161 74 -296 71 -300 -10 -9 -349 -13 -362 -4 -9 6 18 89 99 306
61 163 112 296 113 295 2 -2 37 -135 79 -297z m1582 -277 c5 -19 0 -22 -48
-27 -76 -10 -301 -8 -316 2 -12 7 -2 39 204 591 3 8 39 -111 80 -265 41 -154
76 -289 80 -301z m-4768 399 c23 -93 56 -223 74 -290 18 -67 29 -125 25 -129
-10 -10 -296 -18 -340 -10 l-34 6 110 295 c61 162 113 295 117 295 3 0 24 -75
48 -167z m-7743 -121 c29 -115 64 -246 76 -291 12 -45 20 -84 17 -86 -3 -3
-46 -11 -95 -17 -90 -11 -287 -3 -281 11 2 5 52 141 113 304 60 162 111 294
113 292 2 -1 27 -97 57 -213z m1490 68 c20 -80 54 -212 76 -294 22 -81 38
-150 36 -152 -2 -3 -46 -10 -96 -15 -107 -13 -285 -4 -278 14 42 120 221 596
223 594 1 -1 19 -67 39 -147z m1690 -164 c41 -155 72 -282 71 -284 -2 -1 -45
-8 -95 -13 -89 -11 -281 -4 -281 9 -1 23 225 603 228 587 3 -10 37 -145 77
-299z m-4691 109 c25 -99 58 -228 74 -286 l29 -107 -36 -6 c-137 -21 -341 -17
-341 7 0 24 215 586 222 579 3 -4 27 -88 52 -187z m6197 -98 l75 -292 -23 -7
c-46 -13 -193 -20 -273 -13 -77 7 -81 8 -76 29 10 40 211 576 216 576 3 0 39
-132 81 -293z m1509 -5 c40 -155 70 -285 67 -288 -2 -3 -47 -10 -98 -16 -107
-12 -269 -3 -269 15 0 24 214 587 220 580 3 -4 39 -135 80 -291z m10779 33 c6
-27 39 -155 73 -283 43 -167 57 -237 50 -244 -14 -14 -296 -23 -338 -12 l-31
9 111 297 c61 163 114 294 117 290 4 -4 12 -29 18 -57z m1571 -244 c50 -195
67 -278 60 -285 -11 -11 -353 -16 -364 -6 -3 3 45 140 107 304 79 211 113 293
119 280 4 -11 39 -142 78 -293z m1439 39 c23 -102 52 -228 66 -280 13 -52 22
-97 19 -100 -14 -13 -184 -10 -253 4 -41 9 -76 17 -78 19 -2 3 32 101 76 218
115 311 123 331 126 327 2 -2 22 -86 44 -188z m-22705 -902 c8 -189 308
-27569 302 -27575 -7 -8 -1367 221 -1381 232 -9 8 -65 3384 -228 13575 -120
7461 -220 13636 -223 13723 l-6 157 243 1 c134 1 350 5 479 8 129 4 364 8 521
9 l287 2 6 -132z m13134 53 c160 -33 304 -44 457 -37 77 4 161 10 186 15 l46
7 6 -450 c23 -1749 60 -5526 54 -5532 -8 -8 -794 -30 -801 -23 -2 2 -18 1284
-35 2849 -17 1565 -32 2925 -34 3023 -2 144 0 176 11 172 7 -3 57 -14 110 -24z
m-3073 -16 c133 -23 331 -30 473 -16 68 7 126 10 129 7 7 -6 75 -6048 68
-6054 -6 -6 -734 -26 -739 -21 -3 4 -67 5710 -66 5958 l0 153 23 -5 c12 -4 62
-13 112 -22z m1640 -17 c96 -10 308 -6 423 8 l52 7 0 -79 c1 -43 16 -1397 34
-3009 19 -1611 31 -2933 27 -2936 -3 -4 -156 -10 -338 -14 l-333 -6 0 253 c0
139 -14 1430 -30 2868 -16 1438 -30 2686 -30 2774 l0 159 48 -7 c26 -3 92 -11
147 -18z m3160 1 c96 -11 290 -8 418 7 l57 7 0 -169 c0 -93 14 -1428 31 -2967
18 -1571 27 -2802 23 -2807 -5 -4 -156 -11 -335 -14 l-327 -7 -6 418 c-4 230
-18 1446 -31 2703 -13 1257 -26 2413 -29 2569 l-6 284 53 -7 c28 -3 97 -11
152 -17z m-9470 -53 c170 -36 421 -47 594 -26 46 6 84 10 86 8 4 -6 69 -6088
64 -6092 -5 -5 -799 -29 -804 -24 -2 2 -17 1263 -34 2803 -16 1540 -33 2925
-36 3079 l-6 279 33 -6 c18 -3 65 -13 103 -21z m-3005 -26 c100 -13 335 -13
439 0 46 6 85 9 87 7 5 -4 75 -6169 71 -6173 -4 -4 -662 -22 -666 -18 -4 3
-70 5621 -71 6018 l0 188 33 -6 c17 -3 66 -10 107 -16z m1529 -2 c93 -10 407
-5 479 8 l32 6 0 -178 c1 -99 16 -1479 34 -3069 18 -1589 32 -2891 31 -2893
-3 -3 -668 -22 -670 -19 -2 3 -66 5878 -65 6036 l0 134 32 -7 c17 -3 75 -11
127 -18z m3151 1 c103 -11 422 -7 481 7 l27 6 6 -104 c7 -132 69 -5948 63
-5954 -5 -5 -659 -25 -664 -20 -2 2 -17 1186 -33 2632 -16 1446 -31 2815 -35
3043 l-7 414 29 -6 c15 -3 75 -11 133 -18z m1465 6 c118 -17 362 -19 470 -4
42 6 79 8 82 6 6 -6 73 -6010 68 -6016 -7 -7 -657 -23 -663 -16 -5 4 -70 5365
-71 5893 -1 83 2 152 7 152 4 0 52 -7 107 -15z m-7375 -11 c102 3 199 8 216
12 l32 6 6 -204 c7 -260 69 -6008 65 -6013 -2 -1 -131 -6 -285 -10 l-282 -8
-6 434 c-4 239 -18 1453 -31 2699 -13 1246 -27 2452 -31 2681 l-6 416 68 -10
c38 -5 152 -6 254 -3z m19975 -206 c105 0 215 4 245 10 30 5 56 9 57 8 1 -1
16 -1232 32 -2736 16 -1504 32 -2868 35 -3031 l6 -296 -335 -13 c-185 -7 -337
-11 -339 -9 -2 4 -67 5896 -66 6035 l0 60 88 -14 c53 -9 162 -14 277 -14z
m-1201 -270 c8 -387 67 -5830 63 -5834 -1 -2 -138 -10 -302 -19 -165 -8 -315
-18 -332 -21 l-33 -6 0 3081 0 3082 98 -8 c53 -4 162 -7 242 -6 121 2 167 6
251 22 4 0 10 -131 13 -291z m2445 247 c115 -24 295 -36 396 -27 50 5 91 9 91
8 7 -5 34 -5929 28 -5935 -8 -7 -543 -35 -550 -29 -1 2 -16 1277 -33 2833 -17
1557 -32 2908 -34 3002 -2 150 0 172 13 168 8 -2 48 -11 89 -20z m-3875
-16756 c4 -8724 5 -15863 3 -15866 -5 -4 -816 313 -826 323 -3 3 -9 4250 -13
9437 -7 10396 -18 15219 -50 21276 l-3 575 255 32 c204 26 592 78 621 83 3 1
9 -7137 13 -15860z m-2824 10292 l55 -19 3 -233 2 -232 -34 44 c-42 56 -89 92
-164 127 -51 24 -69 27 -167 27 -98 0 -116 -3 -167 -27 -63 -29 -148 -103
-183 -158 -12 -20 -121 -298 -241 -618 l-218 -583 -33 128 c-176 677 -262 982
-293 1042 -45 90 -146 173 -248 206 -73 23 -206 17 -284 -14 -66 -26 -157
-103 -193 -165 -19 -33 -533 -1390 -536 -1414 -2 -21 -28 74 -95 343 -137 545
-257 973 -296 1049 -34 66 -115 144 -187 178 -56 27 -81 33 -157 36 -111 5
-192 -18 -269 -76 -101 -76 -107 -90 -342 -719 -120 -321 -220 -583 -224 -583
-3 0 -14 35 -24 78 -80 341 -264 1003 -301 1078 -33 70 -114 148 -193 187 -62
30 -72 32 -176 32 -103 0 -114 -2 -177 -32 -80 -37 -156 -109 -191 -179 -13
-27 -131 -336 -262 -688 l-238 -638 -89 343 c-124 479 -223 823 -258 895 -85
173 -298 263 -488 205 -98 -30 -196 -108 -245 -196 -6 -11 -108 -281 -228
-600 -141 -378 -218 -572 -222 -560 -4 11 -43 162 -87 335 -94 365 -203 745
-230 807 -22 49 -99 136 -152 169 -118 75 -274 83 -404 23 -55 -26 -138 -100
-170 -151 -14 -21 -122 -298 -240 -616 -119 -317 -217 -578 -218 -580 -2 -1
-17 50 -34 115 -173 668 -261 982 -289 1037 -33 65 -86 127 -143 164 -210 141
-498 64 -604 -162 -19 -39 -143 -365 -276 -724 -134 -359 -247 -649 -250 -645
-4 5 -42 148 -84 318 -89 357 -212 814 -261 963 -40 124 -91 197 -176 252
-192 124 -452 73 -573 -113 -22 -33 -109 -252 -242 -607 -113 -305 -211 -566
-217 -580 -9 -23 -11 -18 -29 50 -152 598 -266 1007 -302 1085 -48 104 -152
190 -270 221 -185 49 -388 -41 -473 -211 -11 -22 -114 -291 -228 -597 -115
-307 -211 -558 -215 -558 -4 0 -13 26 -20 58 -57 256 -269 1017 -303 1090 -34
73 -110 148 -192 188 -58 29 -88 37 -152 41 -137 10 -240 -32 -337 -137 -56
-62 -65 -79 -172 -370 l-39 -105 -7 50 c-3 28 -7 165 -7 307 l-1 256 93 6 c68
4 13048 330 13297 334 74 1 1294 39 1305 41 6 0 35 -8 65 -18z m7230 -555 l0
-224 -37 10 c-54 15 -168 4 -236 -21 -74 -29 -148 -88 -192 -154 -22 -34 -107
-247 -241 -607 -113 -305 -211 -566 -217 -580 -9 -23 -11 -21 -24 30 -163 639
-279 1054 -312 1117 -89 174 -303 262 -494 203 -76 -24 -170 -89 -209 -146
-39 -57 -55 -96 -273 -681 -176 -472 -215 -567 -215 -520 0 21 -157 619 -226
862 -36 127 -79 256 -96 287 -108 203 -376 278 -575 161 -23 -13 -67 -51 -97
-83 -44 -48 -62 -79 -95 -162 l-40 -103 0 346 -1 346 73 -4 c39 -3 263 4 497
16 234 11 916 41 1515 66 600 25 1158 49 1240 54 83 4 174 9 203 10 l52 1 0
-224z m-12180 -1825 c48 -187 67 -278 60 -285 -13 -13 -295 -21 -337 -10 l-31
9 111 299 c80 215 113 293 119 280 4 -11 39 -142 78 -293z m1514 -26 c43 -166
62 -253 55 -260 -11 -11 -353 -15 -363 -4 -4 4 150 433 210 584 9 23 1 50 98
-320z m1708 -240 c3 -16 -6 -21 -52 -28 -62 -9 -305 -6 -315 5 -5 5 95 285
207 578 8 21 22 -21 84 -255 41 -154 75 -289 76 -300z m1407 392 c24 -94 58
-225 76 -289 28 -104 30 -118 16 -124 -24 -10 -272 -18 -324 -10 l-44 7 110
294 c61 162 113 295 116 295 3 0 26 -78 50 -173z m-13914 -115 c29 -115 64
-246 76 -291 12 -45 20 -83 17 -86 -2 -3 -49 -9 -104 -15 -96 -11 -269 -3
-269 12 0 12 220 597 223 593 2 -1 27 -97 57 -213z m1490 68 c20 -80 54 -212
76 -294 22 -81 38 -150 36 -152 -2 -2 -51 -9 -108 -14 -111 -11 -264 -2 -264
15 0 13 217 596 221 592 1 -1 19 -67 39 -147z m1561 -205 c35 -132 62 -241 60
-242 -1 -2 -47 -7 -102 -13 -99 -11 -260 -4 -269 11 -4 6 137 396 211 584 6
16 11 7 22 -40 8 -33 43 -168 78 -300z m3145 42 c39 -153 70 -280 67 -282 -2
-2 -47 -9 -99 -15 -83 -10 -214 -7 -260 6 -13 4 3 56 95 304 74 199 113 293
118 282 4 -9 39 -142 79 -295z m1503 14 c43 -161 75 -295 73 -297 -2 -2 -48
-8 -103 -14 -123 -13 -270 -2 -266 20 4 20 215 590 218 587 1 -1 36 -134 78
-296z m-3017 11 c39 -152 75 -284 78 -294 5 -14 -4 -18 -62 -25 -88 -10 -293
-7 -305 5 -9 9 199 592 212 592 3 0 37 -125 77 -278z m13654 -392 c39 -151 74
-285 76 -297 5 -19 -1 -22 -53 -30 -75 -10 -303 -8 -314 3 -6 8 210 608 216
601 2 -1 35 -126 75 -277z m1528 -79 c34 -129 60 -235 58 -237 -2 -2 -46 -8
-98 -14 -91 -11 -265 -5 -274 9 -2 4 46 141 108 306 l111 298 17 -64 c10 -35
45 -169 78 -298z m1457 -42 c30 -129 54 -241 54 -247 0 -26 -294 -9 -324 18
-7 7 48 162 177 500 l21 55 9 -45 c5 -25 33 -151 63 -281z m-9386 -529 c162
-33 350 -45 510 -31 76 6 146 14 155 17 13 5 15 -16 15 -182 0 -104 14 -1450
31 -2992 17 -1542 30 -2804 28 -2806 -4 -3 -802 -44 -807 -41 -1 1 -15 1198
-31 2661 -16 1462 -32 2827 -36 3033 l-6 374 23 -7 c13 -4 66 -15 118 -26z
m2375 -5908 c-8 -8 -785 -46 -792 -38 -6 6 -76 5936 -70 5942 1 2 20 -1 42 -6
193 -42 548 -32 760 23 l50 13 8 -2964 c4 -1631 5 -2967 2 -2970z m-5478 5897
c94 -17 157 -22 313 -21 107 0 220 4 250 10 30 5 56 9 57 8 1 -1 16 -1226 32
-2721 16 -1496 33 -2878 36 -3070 l6 -351 -371 -18 c-204 -10 -373 -16 -375
-14 -2 1 -17 1274 -34 2828 -17 1554 -33 2948 -36 3098 -3 149 -4 272 -1 272
2 0 57 -10 123 -21z m1568 -10 c94 -15 425 -16 505 -1 30 5 56 9 56 8 5 -4 68
-6056 64 -6060 -6 -6 -659 -40 -664 -35 -2 2 -18 1302 -35 2889 -17 1587 -32
2960 -34 3052 -2 147 -1 167 13 164 8 -3 51 -10 95 -17z m-6044 -90 c106 -11
366 -7 460 7 l37 6 6 -134 c7 -171 71 -6147 65 -6152 -4 -4 -802 -46 -806 -42
-1 0 -15 1241 -32 2756 -17 1515 -33 2949 -37 3186 l-7 431 101 -23 c56 -12
151 -28 213 -35z m-4704 6 c129 -17 307 -19 439 -4 53 6 98 9 100 6 2 -2 19
-1441 39 -3198 19 -1757 38 -3221 43 -3254 5 -33 8 -62 6 -63 -3 -5 -688 -40
-693 -36 -2 2 -47 3817 -73 6296 -3 255 -2 277 14 273 9 -3 65 -12 125 -20z
m1558 -6 c97 -11 361 -7 453 7 l42 7 0 -124 c0 -68 16 -1519 35 -3223 19
-1705 34 -3100 33 -3101 -2 -1 -113 -7 -248 -14 -135 -6 -285 -14 -335 -17
l-90 -6 -3 348 c-2 192 -16 1542 -32 2999 -17 1458 -30 2762 -30 2899 l0 249
38 -7 c20 -3 82 -11 137 -17z m1510 0 c97 -11 343 -7 448 7 l47 7 0 -299 c1
-165 16 -1597 34 -3184 18 -1587 32 -2886 31 -2888 -4 -4 -664 -36 -668 -31
-2 2 -18 1345 -35 2984 -18 1639 -35 3081 -38 3204 l-6 224 43 -6 c24 -4 89
-12 144 -18z m3100 6 c130 -17 325 -19 448 -4 49 6 91 9 93 6 6 -6 76 -6198
70 -6204 -7 -7 -655 -37 -662 -31 -4 5 -73 5659 -74 6121 0 70 3 127 8 127 4
0 57 -7 117 -15z m1510 0 c130 -17 309 -19 441 -4 53 6 97 9 99 7 3 -3 52
-4274 67 -5833 l3 -300 -330 -17 c-181 -9 -333 -14 -336 -10 -5 6 -71 5802
-69 6085 0 48 3 87 8 87 4 0 57 -7 117 -15z m12190 -406 c107 -12 284 -11 401
2 53 6 97 9 99 7 2 -2 17 -1101 34 -2443 17 -1342 32 -2508 34 -2592 l2 -152
-30 -5 c-53 -9 -634 -50 -638 -46 -4 5 -68 4861 -67 5119 l0 134 43 -7 c23 -4
78 -11 122 -17z m-1375 -5 c98 -4 193 -2 259 5 56 7 105 10 107 8 6 -5 75
-5300 69 -5305 -3 -3 -677 -60 -681 -58 -1 1 -4 1209 -8 2685 l-7 2684 53 -7
c29 -3 123 -9 208 -12z m2825 -24 c122 -24 334 -35 435 -22 41 5 76 9 77 8 4
-4 34 -5018 30 -5022 -4 -4 -580 -53 -585 -49 -1 1 -15 1041 -32 2311 -16
1270 -31 2418 -33 2552 -3 133 -2 242 2 242 3 0 51 -9 106 -20z m-32787 -1442
c12 -46 53 -194 91 -330 l69 -246 -72 -269 c-40 -147 -104 -389 -141 -538 -38
-148 -71 -273 -74 -277 -3 -4 -46 135 -95 309 -83 296 -89 319 -79 362 34 148
269 1071 273 1071 3 0 15 -37 28 -82z m-1690 -406 c45 -163 82 -305 82 -314 0
-9 -38 -160 -83 -335 -46 -175 -106 -407 -133 -515 -39 -161 -52 -198 -65
-198 -11 0 -21 13 -28 33 -33 107 -141 501 -141 517 0 10 42 182 93 382 52
200 113 445 137 546 24 100 46 182 49 182 3 0 43 -134 89 -298z m-1653 -66
l86 -308 -65 -236 c-36 -131 -95 -354 -131 -497 -36 -143 -68 -265 -70 -272
-3 -8 -17 -7 -55 5 -50 16 -50 16 -70 81 -51 177 -90 323 -90 342 0 12 18 88
40 170 23 82 86 331 141 552 122 489 119 480 124 475 2 -2 43 -142 90 -312z
m5199 -4 l85 -304 -54 -196 c-29 -109 -84 -314 -120 -457 -37 -143 -71 -277
-76 -298 -9 -35 -13 -38 -42 -35 l-32 3 -69 245 -68 245 15 60 c8 33 70 278
137 545 67 267 124 492 127 500 7 19 -1 45 97 -308z m2240 -1482 c46 -168 92
-337 102 -376 l18 -71 -63 -234 c-35 -129 -73 -272 -85 -319 -16 -58 -25 -79
-29 -65 -9 30 -120 432 -161 580 -19 72 -58 216 -85 322 -53 202 -73 252 -128
319 l-34 42 55 153 c45 126 96 262 170 454 9 21 80 -218 240 -805z m-4989 -84
c52 -185 110 -398 130 -474 l36 -137 -64 -235 c-35 -129 -106 -400 -157 -603
-51 -202 -94 -366 -96 -365 -1 2 -61 212 -134 466 l-131 464 65 246 c36 136
107 413 157 615 50 202 94 366 96 364 2 -3 46 -156 98 -341z m1669 194 c21
-74 64 -229 96 -345 32 -115 81 -294 108 -397 l49 -188 -54 -202 c-29 -112
-90 -347 -133 -523 -44 -176 -84 -328 -88 -338 -5 -12 -58 163 -156 509 l-149
526 139 553 c76 305 142 551 145 547 3 -4 23 -68 43 -142z m1850 -430 c53
-190 99 -361 102 -380 4 -25 -15 -112 -64 -295 -38 -143 -93 -358 -123 -477
-29 -120 -56 -214 -60 -210 -4 4 -55 176 -113 382 l-106 376 116 459 c150 597
135 546 144 515 4 -14 51 -180 104 -370z m-6969 -23 l86 -307 -80 -298 c-44
-163 -85 -317 -91 -341 -6 -23 -13 -41 -15 -40 -1 2 -40 135 -85 296 l-82 292
87 355 c49 196 89 355 90 354 2 -2 42 -141 90 -311z m1724 -16 c50 -178 91
-334 91 -346 0 -12 -33 -145 -73 -296 -41 -151 -105 -397 -142 -548 -37 -150
-71 -267 -75 -260 -4 8 -47 155 -96 327 l-88 313 52 202 c29 111 94 367 144
570 50 202 92 366 94 365 1 -2 43 -149 93 -327z m-13559 -290 c40 -136 105
-302 165 -420 73 -145 153 -214 300 -255 104 -30 182 -95 236 -196 20 -37 24
-60 24 -130 0 -138 -51 -225 -189 -320 -115 -79 -180 -184 -192 -309 -4 -36
16 -262 56 -630 33 -316 57 -577 53 -581 -4 -4 -35 -17 -68 -30 -379 -147
-698 -431 -972 -865 -39 -61 -105 -173 -148 -250 -43 -77 -83 -145 -89 -151
-8 -9 -45 -3 -142 22 -178 45 -327 64 -497 64 -417 0 -726 -141 -1013 -460
-22 -25 -69 -67 -104 -95 -99 -77 -296 -279 -407 -417 -256 -319 -450 -686
-562 -1064 l-21 -71 -93 -26 c-1049 -294 -2123 -234 -2946 164 l-131 64 40 60
c173 254 330 574 430 876 l41 126 92 12 c256 34 563 110 873 215 717 245 1523
696 2329 1305 98 75 183 139 188 142 4 3 20 104 34 225 14 120 27 221 28 222
2 2 41 -29 87 -68 200 -173 495 -337 770 -428 385 -127 545 -122 697 23 168
160 175 414 15 585 -63 68 -127 98 -298 140 -157 39 -285 86 -396 147 -353
195 -575 472 -661 823 -33 135 -33 374 -1 505 78 313 316 558 629 647 102 29
279 31 367 4 184 -55 341 -186 431 -357 49 -93 65 -165 65 -289 0 -171 39
-269 142 -365 84 -78 146 -100 278 -100 97 0 110 2 170 31 111 52 180 128 222
242 18 49 22 79 22 212 1 398 -151 748 -455 1049 l-98 97 102 33 c127 41 326
119 432 169 l80 38 27 -129 c15 -71 41 -177 58 -236z m21093 -1236 c58 -209
107 -389 109 -399 4 -29 -82 -45 -276 -53 -152 -6 -158 -5 -153 13 4 10 47
183 97 384 109 438 110 443 115 439 2 -2 50 -175 108 -384z m-10030 -135 c119
-425 131 -470 126 -475 -22 -21 -407 -51 -425 -33 -3 4 41 193 97 422 57 228
107 410 110 403 4 -7 45 -149 92 -317z m8537 79 c102 -363 152 -550 148 -554
-1 -2 -46 -10 -98 -18 -92 -15 -212 -23 -295 -19 l-41 2 106 419 c57 231 106
418 108 416 2 -1 34 -112 72 -246z m-6994 -279 c53 -190 98 -353 100 -362 4
-13 -6 -19 -48 -27 -151 -31 -395 -43 -385 -18 2 6 51 199 108 427 l103 415
13 -45 c8 -25 57 -200 109 -390z m1750 0 c53 -190 98 -353 100 -362 4 -13 -6
-19 -48 -27 -151 -31 -395 -43 -385 -18 2 6 51 199 108 427 l103 415 13 -45
c8 -25 57 -200 109 -390z m1800 -28 c53 -189 94 -346 91 -348 -13 -13 -169
-35 -289 -41 -115 -5 -138 -4 -138 8 0 8 46 200 102 427 l103 414 18 -59 c10
-32 61 -212 113 -401z m1752 143 c127 -454 135 -485 129 -492 -23 -22 -427
-57 -427 -37 -1 25 205 832 211 826 3 -4 43 -137 87 -297z m31612 -516 l0
-141 -22 6 c-13 4 -51 12 -85 19 -160 29 -337 -56 -420 -201 -15 -27 -113
-311 -218 -630 -168 -513 -205 -617 -205 -570 0 43 -311 1026 -352 1116 -27
57 -100 136 -155 168 -61 37 -155 64 -218 64 -62 0 -157 -27 -218 -63 -54 -32
-118 -101 -148 -159 -12 -23 -107 -302 -211 -618 -104 -316 -191 -576 -193
-578 -2 -2 -15 34 -29 79 -14 46 -52 176 -86 289 -107 356 -238 743 -269 791
-130 205 -393 258 -595 120 -72 -50 -125 -128 -168 -250 l-37 -106 0 263 -1
262 33 1 c17 0 811 62 1762 138 952 76 1754 139 1783 140 l52 1 0 -141z
m-7210 -409 l0 -219 -36 24 c-158 107 -374 90 -514 -41 -27 -26 -60 -62 -71
-81 -12 -19 -120 -297 -239 -616 -120 -320 -221 -575 -224 -567 -3 8 -42 157
-86 330 -111 427 -205 754 -237 820 -34 69 -116 150 -186 184 -30 14 -86 31
-125 37 -166 27 -347 -64 -423 -213 -12 -23 -136 -348 -276 -722 -139 -373
-257 -685 -261 -692 -5 -8 -26 61 -51 164 -67 270 -187 718 -242 902 -68 227
-121 300 -265 367 -53 25 -70 28 -164 28 -102 0 -109 -1 -182 -38 -77 -37
-152 -106 -184 -168 -7 -15 -108 -281 -224 -591 -116 -310 -213 -570 -217
-578 -3 -8 -14 18 -25 60 -166 653 -267 1011 -308 1096 -38 77 -110 145 -198
187 -62 30 -75 32 -172 32 -97 0 -110 -2 -172 -32 -91 -43 -161 -114 -202
-206 -18 -40 -136 -348 -261 -684 -126 -337 -230 -611 -232 -610 -1 2 -41 153
-88 337 -115 449 -222 823 -254 890 -50 104 -163 192 -282 219 -185 43 -384
-57 -464 -234 -18 -38 -128 -328 -245 -642 -117 -315 -216 -573 -219 -573 -3
0 -41 138 -85 308 -108 420 -220 811 -251 871 -55 109 -157 188 -278 216 -163
37 -342 -33 -432 -168 -23 -34 -115 -268 -274 -692 -132 -352 -240 -638 -240
-635 -1 3 -39 154 -85 335 -105 410 -209 772 -240 839 -79 170 -281 268 -465
225 -109 -25 -231 -119 -278 -214 -11 -22 -131 -340 -268 -707 -137 -368 -252
-668 -255 -668 -3 0 -45 156 -94 348 -108 422 -227 843 -257 906 -51 109 -164
196 -290 222 -112 23 -217 2 -318 -64 -104 -69 -116 -94 -341 -695 l-204 -546
-73 282 c-108 415 -210 764 -240 819 -57 104 -176 187 -302 209 -173 31 -365
-76 -440 -244 -15 -34 -117 -302 -227 -595 l-199 -534 -13 54 c-111 453 -273
1032 -309 1102 -14 27 -48 72 -77 101 -160 160 -422 160 -582 0 -65 -65 -83
-100 -180 -365 l-79 -215 -7 55 c-3 30 -6 214 -7 408 l-1 352 24 0 c13 0 3008
151 6657 335 5188 263 6661 334 6756 329 98 -5 136 -3 190 10 49 12 196 24
518 40 248 13 478 24 513 25 l62 1 0 -220z m-21020 -1729 l0 -1620 -82 -31
c-167 -65 -431 -160 -435 -157 -2 2 -10 265 -18 583 -9 318 -29 1060 -45 1647
-17 588 -30 1090 -30 1118 l0 49 103 -7 c98 -5 345 10 432 27 22 4 48 8 58 9
16 1 17 -82 17 -1618z m-2180 1412 c134 -24 464 -24 619 0 62 10 114 17 116
15 5 -6 82 -2885 87 -3273 l3 -229 -115 -33 c-136 -38 -598 -155 -721 -181
l-86 -19 -7 591 c-7 606 -20 1665 -32 2620 l-7 539 24 -7 c13 -3 67 -14 119
-23z m-7826 -85 c3 -57 11 -566 17 -1133 6 -566 14 -1316 18 -1665 4 -349 6
-637 5 -639 -3 -4 -224 60 -488 141 l-199 62 6 931 c4 511 10 1254 14 1650 l6
720 211 2 c132 1 243 7 296 16 47 8 90 15 97 16 7 1 13 -33 17 -101z m4261 -6
c114 -25 133 -27 375 -26 177 1 280 5 336 16 l82 14 6 -240 c3 -133 11 -648
16 -1146 6 -498 15 -1285 20 -1749 6 -464 9 -846 6 -848 -8 -9 -422 -22 -683
-23 l-273 0 0 223 c0 122 -5 557 -10 967 -5 410 -14 1182 -20 1715 -6 534 -12
1007 -13 1053 -2 79 -1 83 18 77 11 -3 74 -18 140 -33z m1729 13 c144 -37 274
-48 491 -42 116 4 244 12 287 20 l76 13 6 -110 c3 -61 10 -559 16 -1106 6
-547 15 -1350 20 -1784 6 -434 9 -791 7 -793 -7 -7 -398 -63 -642 -93 -137
-16 -264 -32 -281 -34 l-31 -4 -7 681 c-4 375 -11 1008 -16 1407 -25 2011 -25
1873 -4 1866 10 -3 46 -12 78 -21z m-3542 -9 c157 -32 251 -39 458 -33 113 4
239 13 280 20 41 8 76 14 77 13 3 -3 21 -1348 33 -2441 5 -522 12 -1082 15
-1244 l5 -294 -122 7 c-68 4 -240 18 -383 31 -380 36 -392 37 -403 44 -6 4
-14 376 -21 981 -18 1545 -31 2685 -34 2818 -1 92 1 121 10 118 7 -3 45 -12
85 -20z m-928 -358 c9 -488 24 -1777 33 -2681 l6 -739 -39 7 c-105 19 -507 96
-570 110 l-71 16 -7 652 c-10 1004 -25 2172 -32 2587 l-6 375 264 2 c244 1
277 4 409 32 4 0 10 -162 13 -361z m-11732 -488 c172 -64 345 -253 523 -571
93 -165 790 -1586 1137 -2319 850 -1791 1464 -3314 1693 -4192 262 -1012 243
-1829 -60 -2538 -158 -370 -418 -707 -699 -907 -411 -292 -966 -386 -1433
-241 l-102 31 144 143 c373 372 662 773 885 1229 241 493 360 960 360 1415 0
220 -12 317 -48 395 -33 69 -53 92 -491 548 -291 302 -297 309 -335 395 -21
48 -107 242 -191 432 -911 2062 -1498 3034 -2145 3552 -293 235 -559 369
-1213 612 -533 198 -747 293 -861 382 -100 79 -118 135 -67 216 66 104 209
168 375 168 132 0 362 -53 621 -144 104 -36 144 -46 196 -46 145 0 274 69 352
188 24 37 109 184 189 327 79 143 170 301 202 352 211 341 433 530 690 589 81
18 206 11 278 -16z m46852 -599 c48 -156 83 -288 79 -292 -22 -20 -347 -42
-365 -24 -3 3 37 135 88 293 109 332 103 316 108 311 2 -2 43 -132 90 -288z
m1450 52 c31 -117 65 -241 76 -275 23 -73 22 -74 -69 -84 -62 -6 -228 10 -243
24 -4 4 31 124 78 267 97 299 93 289 98 284 2 -2 29 -100 60 -216z m-2956
-113 c44 -146 82 -272 84 -280 2 -11 -13 -18 -62 -26 -87 -16 -310 -18 -310
-3 0 30 194 599 200 587 4 -7 44 -132 88 -278z m-5863 -336 c46 -175 91 -342
99 -371 17 -63 22 -60 -120 -72 -93 -8 -220 -2 -307 14 -33 6 -38 11 -33 29
10 39 269 726 273 723 2 -2 41 -147 88 -323z m1494 51 c38 -148 83 -316 99
-372 l29 -102 -25 -6 c-91 -23 -350 -21 -434 2 l-26 8 114 305 c159 423 166
442 169 438 2 -2 35 -124 74 -273z m-4644 -150 c90 -347 88 -311 23 -324 -93
-21 -201 -32 -265 -29 l-61 3 115 308 c64 169 117 306 118 305 2 -2 33 -120
70 -263z m1522 -55 c31 -118 58 -220 60 -227 5 -14 -100 -47 -197 -62 -106
-16 -180 -22 -180 -13 0 6 204 558 226 612 4 9 12 -7 21 -40 7 -30 39 -152 70
-270z m-3097 -54 c38 -144 65 -264 61 -269 -14 -15 -198 -55 -285 -62 -74 -6
-88 -5 -84 6 3 8 56 151 119 319 62 168 115 296 117 286 2 -11 35 -137 72
-280z m-1551 -25 c37 -140 59 -247 54 -252 -17 -17 -168 -50 -255 -56 l-87 -6
107 286 c59 157 110 283 113 279 3 -4 34 -117 68 -251z m-1555 -91 c36 -140
66 -260 66 -266 0 -7 -10 -15 -22 -19 -34 -10 -318 -19 -318 -10 0 10 204 555
206 552 1 -1 32 -117 68 -257z m-4599 10 c16 -63 57 -221 91 -350 35 -128 62
-235 61 -236 -9 -10 -149 -24 -232 -24 -92 0 -211 13 -222 24 -3 2 55 164 128
360 74 195 137 352 140 348 3 -4 19 -59 34 -122z m1629 -509 c9 -30 14 -56 13
-58 -11 -11 -125 -23 -215 -23 -88 0 -232 15 -232 25 0 3 233 627 250 670 11
28 18 9 90 -265 43 -162 85 -319 94 -349z m1366 344 c40 -154 73 -289 74 -300
1 -17 -7 -21 -49 -27 -102 -13 -312 -5 -330 14 -3 2 46 140 108 306 61 165
115 298 118 294 3 -4 38 -133 79 -287z m17077 -278 c-11 -79 -18 -3215 -9
-3892 5 -368 8 -671 8 -672 -1 -1 -152 -27 -336 -58 -184 -31 -344 -59 -354
-62 -18 -5 -19 36 -12 2003 3 1105 2 2162 -2 2349 -5 187 -7 341 -6 343 1 1
63 -2 137 -9 145 -12 345 -1 477 25 106 22 104 23 97 -27z m1156 18 l187 0 1
-390 c0 -214 6 -1193 13 -2175 7 -982 12 -1786 11 -1787 -2 -5 -531 -90 -535
-86 -8 8 -12 3351 -5 3921 l7 533 67 -8 c36 -4 150 -8 254 -8z m-3348 -66
c121 -19 399 -16 528 5 60 10 112 15 115 11 12 -12 9 -4795 -3 -4795 -5 0
-178 -29 -382 -64 l-373 -63 0 2464 c0 2342 1 2464 18 2459 9 -3 53 -10 97
-17z m-48265 -503 c208 -157 369 -231 1100 -506 476 -179 615 -242 795 -358
226 -145 447 -370 674 -687 199 -277 476 -756 721 -1244 l72 -144 -69 57
c-1178 989 -2430 1861 -3610 2516 -73 41 -133 80 -133 87 0 37 102 256 182
394 l51 87 60 -65 c33 -35 104 -97 157 -137z m42430 43 c96 -15 364 -18 487
-6 l81 8 6 -83 c2 -46 10 -380 16 -743 6 -363 19 -1027 30 -1475 10 -448 24
-1085 29 -1415 6 -330 13 -716 16 -857 4 -167 2 -258 -4 -258 -6 0 -188 -27
-406 -60 -218 -33 -397 -60 -399 -60 -2 0 -6 201 -10 448 -7 467 -29 1584 -46
2362 -5 250 -14 694 -20 985 -5 292 -12 681 -16 867 l-6 336 78 -18 c44 -10
117 -24 164 -31z m-1070 -181 c0 -227 8 -681 40 -2188 11 -520 24 -1188 30
-1485 5 -297 12 -694 16 -882 5 -258 3 -343 -5 -343 -7 0 -161 -22 -342 -50
-181 -27 -334 -50 -338 -50 -5 0 -11 213 -15 473 -12 807 -35 2565 -46 3387
-5 432 -12 900 -15 1040 l-5 256 129 -4 c146 -5 315 10 436 37 44 10 88 19 98
20 16 1 17 -15 17 -211z m-1506 -325 c3 -291 15 -1171 26 -1958 30 -2167 39
-2840 36 -2842 -5 -5 -781 -121 -785 -117 -4 3 -7 696 -25 4340 l-5 1090 97
-14 c118 -17 451 -10 557 12 39 7 75 14 81 15 8 1 13 -154 18 -526z m4735
-2305 l1 -1788 -22 -5 c-21 -4 -623 -95 -632 -95 -2 0 -6 177 -10 393 -11 636
-25 1337 -46 2222 -28 1208 -44 2085 -37 2091 3 4 46 0 94 -7 113 -18 449 -16
558 2 l80 14 6 -520 c3 -286 7 -1324 8 -2307z m-7826 2320 c17 -1199 60 -5278
56 -5282 -8 -8 -628 -100 -634 -95 -2 3 -9 313 -15 689 -10 647 -21 1320 -55
3270 -8 459 -17 1052 -21 1316 l-7 482 90 -5 c115 -7 318 12 453 41 58 13 110
24 116 25 7 1 13 -132 17 -441z m1511 -1045 c3 -819 9 -2057 12 -2753 l6
-1266 -312 -47 c-172 -26 -315 -45 -318 -43 -3 4 -41 3123 -64 5246 l-3 295
220 1 c225 2 218 1 446 53 4 0 9 -668 13 -1486z m-3020 1205 c3 -101 8 -374
11 -608 3 -234 17 -1055 30 -1825 21 -1195 38 -2293 48 -3048 l2 -187 -30 -6
c-111 -20 -801 -121 -805 -117 -5 5 -73 5954 -68 5958 2 1 39 -4 83 -13 122
-23 468 -20 600 6 55 10 105 20 111 21 8 1 14 -54 18 -181z m-1984 -43 c107 0
228 4 268 9 l72 8 0 -208 c0 -115 14 -1386 30 -2824 16 -1438 30 -2672 30
-2741 l0 -125 -332 -50 c-183 -28 -334 -50 -335 -49 -1 0 -16 1231 -32 2735
-17 1504 -32 2854 -35 2998 l-4 264 71 -9 c40 -4 160 -8 267 -8z m-1710 -85
c135 -18 268 -22 398 -10 74 6 135 10 137 8 3 -3 46 -3676 67 -5722 l3 -300
-337 -51 c-186 -28 -338 -48 -338 -45 -3 167 -60 5742 -60 5904 l0 239 33 -7
c17 -4 61 -11 97 -16z m-1540 -14 c152 -24 285 -29 429 -17 73 7 135 10 138 7
5 -5 71 -6219 66 -6225 -5 -6 -687 -109 -693 -104 -5 4 -68 5519 -69 6041 -1
304 0 323 17 318 9 -3 60 -12 112 -20z m-35234 -112 c594 -415 1324 -656 2169
-715 214 -15 675 -7 885 15 355 38 760 120 1080 220 l145 45 110 -61 c1934
-1073 3811 -2529 5463 -4238 l314 -325 -6 -115 c-15 -308 -101 -617 -270 -965
-424 -875 -1191 -1565 -2069 -1861 -200 -67 -172 -72 -322 47 -186 147 -489
395 -1045 854 -944 781 -1300 1063 -1382 1093 -113 42 -231 37 -335 -14 -236
-115 -306 -420 -145 -632 14 -18 117 -105 229 -194 271 -213 589 -471 1098
-892 l420 -348 6 -69 c4 -38 13 -295 19 -572 14 -563 8 -2164 -9 -2607 -31
-770 -55 -1217 -96 -1797 -14 -189 -25 -373 -25 -410 l0 -68 -97 -110 c-758
-861 -1851 -1527 -2968 -1808 -211 -53 -394 -91 -402 -83 -13 13 -170 700
-257 1127 l-53 256 96 37 c198 78 379 202 536 368 272 287 434 644 502 1103
25 168 25 673 0 940 -103 1107 -281 2659 -357 3125 -119 724 -324 1204 -665
1559 -286 297 -624 474 -1160 606 -78 19 -1372 291 -2875 604 -1502 314 -2734
571 -2736 574 -6 6 83 391 130 560 225 804 609 1621 1089 2312 605 871 1354
1594 2223 2148 169 107 622 364 646 366 3 1 55 -33 114 -75z m29199 -25 c22
-12 52 -33 68 -47 47 -45 34 -146 -39 -294 -28 -57 -30 -58 -158 -127 -998
-534 -2543 -933 -4206 -1085 -587 -54 -970 -70 -1655 -70 -583 0 -814 7 -1275
40 -1508 106 -2936 401 -4131 852 -323 122 -335 128 -359 176 -31 65 -43 148
-30 208 13 64 35 110 64 137 l24 22 253 -85 c2150 -718 4451 -988 6729 -791
1514 132 3037 474 4395 989 138 52 257 95 265 95 8 1 33 -8 55 -20z m-315
-1805 c19 -614 41 -1269 85 -2509 52 -1451 71 -2020 85 -2520 5 -198 12 -437
16 -531 l6 -172 -89 -21 c-217 -50 -420 -50 -584 2 l-74 23 -6 894 c-3 492 -8
1806 -10 2919 l-4 2023 115 41 c63 22 189 70 280 106 91 37 166 66 168 65 1
-1 7 -145 12 -320z m-10677 55 c72 -23 231 -70 352 -104 l220 -62 7 -179 c3
-99 8 -1384 10 -2857 l4 -2678 -76 -23 c-159 -51 -372 -81 -495 -71 -86 7
-204 32 -252 52 l-36 15 6 721 c4 397 11 904 17 1127 9 385 38 1567 60 2455 5
226 13 690 17 1033 5 517 9 622 20 618 7 -3 73 -24 146 -47z m9276 -4494 c2
-726 6 -1390 10 -1475 l8 -155 -31 -27 c-17 -15 -63 -43 -102 -63 -188 -94
-483 -118 -718 -59 l-63 16 -6 1530 c-4 842 -8 1952 -8 2467 -1 515 -4 1141
-8 1391 -3 250 -5 457 -4 458 1 2 77 19 170 38 163 33 527 116 668 152 l70 18
6 -1485 c3 -817 7 -2080 8 -2806z m-7400 4045 c123 -22 232 -40 242 -40 18 0
19 -36 20 -1177 1 -648 5 -1947 8 -2887 l6 -1709 -135 6 c-195 8 -352 48 -512
128 l-78 39 0 1508 c0 829 -3 2117 -7 2863 l-6 1356 119 -24 c65 -13 220 -41
343 -63z m5655 -2267 c3 -1193 9 -2524 12 -2959 l6 -791 -83 -23 c-213 -59
-574 -27 -790 69 l-47 21 -6 2057 c-3 1132 -8 2426 -12 2875 l-5 817 23 5 c13
2 127 14 253 26 127 12 307 32 400 45 94 12 186 23 206 24 l37 1 6 -2167z
m-4259 2082 c149 -13 356 -29 461 -36 l192 -12 6 -741 c3 -408 9 -1698 12
-2868 l6 -2127 -53 -16 c-30 -9 -108 -25 -174 -37 -141 -24 -348 -21 -450 6
-72 19 -208 86 -252 124 l-32 27 -5 1670 c-3 919 -9 2204 -12 2857 -6 1153 -6
1187 12 1182 11 -2 141 -15 289 -29z m2509 -2212 c3 -1182 8 -2473 11 -2870
l6 -721 -80 -31 c-329 -127 -658 -155 -882 -74 l-47 16 -6 571 c-3 314 -9
1623 -12 2908 l-6 2338 423 3 c233 1 461 3 505 5 l82 2 6 -2147z m-10669 458
c1680 -301 2972 -515 3580 -593 138 -17 251 -33 253 -33 1 -1 -4 -287 -13
-636 -34 -1417 -44 -2493 -24 -2579 27 -119 97 -203 257 -311 288 -193 608
-280 987 -266 182 6 340 31 533 83 l132 36 103 -67 c333 -219 734 -337 1142
-338 190 0 328 16 409 48 l60 24 65 -43 c213 -142 486 -233 769 -257 227 -20
513 14 778 91 60 18 114 33 119 33 6 1 57 -22 115 -52 131 -67 308 -126 459
-152 135 -24 403 -29 541 -10 252 35 561 121 755 211 85 39 146 44 209 16 75
-33 258 -93 357 -116 512 -120 1061 -45 1425 197 l53 35 92 -22 c142 -33 290
-50 446 -50 510 -1 969 183 1230 491 l31 37 68 -19 c198 -55 532 -63 779 -20
211 37 514 130 657 202 107 54 188 161 218 287 13 54 5 494 -20 1252 -5 151
-10 289 -10 306 l0 31 203 -39 c918 -174 1771 -321 4237 -733 1975 -330 3130
-527 3177 -543 17 -5 -81 -55 -450 -226 -260 -121 -1383 -644 -2497 -1164
-5220 -2434 -7040 -3279 -9344 -4338 -77 -35 -147 -64 -158 -64 -22 0 -1317
235 -10088 1829 -3721 676 -6984 1269 -7252 1317 l-488 88 0 396 c0 217 -3
541 -7 720 l-6 325 44 -36 c64 -51 107 -75 168 -93 79 -23 159 -20 304 14 360
83 714 218 1030 391 l128 71 87 -57 c232 -151 526 -259 847 -312 137 -22 531
-25 670 -5 608 88 1105 340 1514 768 451 472 751 1103 871 1836 70 424 67 949
-6 1443 -32 216 -103 562 -141 689 -4 16 -1 18 18 13 13 -3 276 -51 584 -106z
m43722 -148 c-3 -2 -32 5 -66 17 -162 54 -349 -4 -457 -143 -25 -33 -96 -191
-241 -539 -113 -271 -210 -506 -217 -523 -13 -29 -14 -27 -50 90 -90 293 -230
714 -253 759 -35 70 -112 142 -191 179 -62 30 -75 32 -172 32 -87 0 -115 -4
-163 -23 -75 -31 -165 -114 -204 -189 -16 -32 -120 -331 -229 -665 -109 -334
-201 -604 -205 -600 -4 4 -34 100 -68 214 -89 301 -219 695 -249 756 -32 67
-125 155 -199 190 -52 24 -69 27 -168 27 -102 0 -114 -2 -175 -31 -83 -40
-148 -98 -184 -164 -15 -28 -63 -156 -106 -283 l-78 -232 -1 368 c-1 202 2
367 6 367 6 0 929 155 2628 440 462 78 885 149 940 159 l100 17 3 -109 c1 -61
1 -112 -1 -114z m-61937 -283 c0 -5 -20 -89 -44 -187 -24 -98 -52 -219 -62
-268 -9 -50 -18 -91 -19 -92 -1 -3 -949 194 -970 201 -15 5 1047 354 1083 355
6 1 12 -3 12 -9z m54709 -747 l0 -488 -62 180 c-70 203 -96 253 -162 314 -201
185 -530 128 -652 -114 -11 -22 -105 -301 -208 -620 -102 -319 -188 -581 -189
-582 -1 -1 -32 100 -70 225 -38 125 -118 377 -178 560 -91 278 -116 342 -151
394 -51 74 -141 140 -223 164 -76 22 -200 15 -277 -15 -67 -26 -163 -110 -200
-174 -13 -23 -127 -359 -252 -747 -125 -388 -230 -711 -234 -718 -4 -8 -32 69
-65 180 -162 541 -309 982 -351 1053 -33 57 -116 132 -178 160 -161 74 -355
38 -474 -88 -28 -29 -60 -71 -71 -93 -10 -21 -147 -434 -303 -917 -155 -482
-286 -874 -290 -870 -4 5 -37 118 -74 253 -167 611 -299 1048 -341 1133 -36
71 -112 143 -192 180 -62 30 -75 32 -172 32 -97 0 -110 -2 -172 -32 -81 -38
-155 -105 -190 -170 -14 -27 -128 -340 -253 -698 -125 -357 -229 -651 -230
-653 -1 -1 -17 50 -34 115 -147 540 -300 1046 -338 1116 -57 103 -177 186
-302 208 -154 28 -336 -59 -418 -198 -14 -24 -123 -323 -243 -665 -120 -343
-221 -616 -224 -608 -3 8 -24 83 -46 165 -129 472 -270 935 -307 1009 -13 27
-47 71 -74 98 -48 48 -154 107 -194 109 l-20 0 20 9 c11 5 99 21 195 35 190
28 617 93 1555 235 330 50 672 102 760 115 275 41 3192 483 3570 541 1346 205
2310 352 2313 353 1 1 2 -218 1 -486z m-57429 -119 c137 -21 8614 -1788 8805
-1834 88 -22 203 -53 255 -70 128 -42 320 -137 400 -198 314 -239 485 -641
594 -1402 99 -693 307 -2621 337 -3125 21 -358 -14 -661 -101 -868 -65 -155
-192 -317 -314 -398 l-61 -41 -8 44 c-204 1158 -389 2485 -526 3780 -52 483
-72 571 -177 778 -234 460 -742 752 -1264 726 -593 -29 -1053 -414 -1278
-1066 -137 -400 -171 -868 -102 -1403 38 -295 191 -1134 376 -2057 67 -338
122 -616 121 -616 -2 -2 7 -4 -512 81 -1418 233 -2830 543 -4240 931 -230 63
-479 135 -482 138 -4 4 -106 607 -152 901 -141 883 -293 2066 -391 3025 -32
316 -59 420 -155 615 -174 351 -493 600 -901 702 -99 25 -126 27 -299 28 -152
0 -206 -4 -270 -19 -223 -52 -400 -137 -559 -268 -32 -27 -60 -47 -62 -45 -10
10 -56 257 -70 382 -12 102 -15 181 -10 290 8 217 42 356 126 530 131 269 339
443 570 476 71 10 229 2 350 -17z m64464 -569 c45 -150 133 -414 176 -523 37
-97 37 -98 -54 -144 -132 -66 -245 -85 -413 -68 -59 6 -109 12 -110 14 -2 1
77 194 174 429 98 235 180 423 184 419 4 -4 23 -61 43 -127z m-15760 -173
c-55 -40 -109 -103 -137 -159 -13 -26 -145 -393 -292 -815 -148 -423 -272
-768 -276 -768 -7 0 -107 351 -239 835 -39 143 -103 370 -141 503 -39 134 -68
246 -66 248 4 4 1138 181 1176 183 8 1 -4 -12 -25 -27z m-50577 -64 c-13 -107
-2 -533 18 -658 40 -257 102 -519 194 -814 23 -71 40 -131 38 -132 -4 -4
-3217 631 -3217 636 0 6 398 146 1600 564 514 178 1030 358 1145 399 116 41
215 75 221 76 7 1 8 -21 1 -71z m64999 -381 c35 -115 62 -212 59 -217 -15 -24
-378 -40 -401 -17 -3 3 43 153 103 332 l108 327 33 -109 c18 -59 62 -202 98
-316z m-16646 56 c-55 -152 -162 -438 -164 -440 -2 -2 -99 15 -217 37 -403 76
-1202 220 -1222 220 -77 0 89 28 791 136 438 67 807 122 819 123 l22 1 -29
-77z m15055 5 c9 -35 48 -164 86 -287 38 -123 67 -226 66 -228 -20 -19 -354
-40 -371 -23 -7 7 185 600 195 600 3 0 14 -28 24 -62z m-4516 -754 c55 -175
107 -339 115 -363 9 -24 16 -47 16 -51 0 -21 -114 -35 -287 -35 -100 0 -184 3
-187 6 -6 6 236 770 242 765 1 -2 47 -146 101 -322z m-1541 44 c35 -112 86
-278 116 -369 l53 -167 -56 -12 c-126 -26 -421 -24 -421 3 -1 18 234 747 241
747 3 0 33 -91 67 -202z m-1592 -313 l81 -260 -39 -18 c-57 -27 -183 -57 -267
-64 -63 -5 -74 -4 -69 8 11 27 198 609 199 616 1 14 12 -19 95 -282z m-6767
-305 c68 -242 183 -623 206 -682 7 -16 -2 -18 -95 -18 -143 0 -240 17 -249 44
-4 12 -18 202 -30 424 l-23 403 43 101 42 101 13 -44 c7 -24 48 -172 93 -329z
m17565 128 c5 -195 11 -1225 17 -2772 l2 -320 -267 -59 c-147 -33 -269 -57
-272 -54 -12 12 20 2412 42 3158 l6 226 137 6 c75 4 174 15 221 26 47 10 90
19 96 20 8 1 13 -67 18 -231z m-64600 142 c160 -55 275 -167 325 -315 13 -40
30 -158 51 -355 375 -3583 994 -6620 1769 -8684 56 -147 101 -273 101 -280 0
-6 20 -54 45 -106 24 -52 88 -194 141 -315 151 -345 372 -774 544 -1059 l24
-39 -26 6 c-26 7 -1262 370 -1383 407 l-71 22 -63 161 c-597 1518 -1256 3978
-1836 6857 -155 768 -352 1833 -402 2175 -26 176 -25 649 1 790 28 154 62 260
120 380 108 221 235 340 399 375 63 14 194 4 261 -20z m63282 -322 c-19 -818
-28 -1454 -34 -2297 l-7 -935 -340 -82 c-187 -46 -344 -83 -349 -84 -10 0 -2
865 15 1625 6 270 12 837 13 1261 1 510 4 770 11 768 6 -2 69 -8 140 -13 139
-11 338 0 455 23 116 24 104 57 96 -266z m-11267 -31 c40 -144 74 -271 75
-282 1 -17 -11 -23 -69 -38 -38 -10 -123 -21 -188 -24 l-117 -6 64 184 c35
101 84 239 107 307 24 67 46 122 49 122 3 0 38 -118 79 -263z m-1504 -379 c8
-20 -8 -28 -120 -58 -65 -18 -245 -44 -252 -36 -3 3 176 521 207 601 11 28 17
13 85 -230 40 -143 76 -268 80 -277z m-54392 82 c1173 -231 2155 -420 2183
-420 l51 0 7 -161 c6 -152 26 -368 45 -487 6 -38 5 -52 -3 -49 -6 2 -997 228
-2202 503 l-2192 499 -6 60 c-3 33 -10 125 -16 205 -5 80 -12 173 -15 208 -4
41 -2 62 5 62 6 0 971 -189 2143 -420z m64927 354 c124 -24 405 -29 547 -10
67 9 128 19 137 22 14 6 16 -45 16 -532 0 -297 -7 -890 -15 -1319 -9 -429 -17
-1007 -18 -1284 l-2 -505 -293 -67 c-162 -37 -345 -79 -408 -92 l-114 -25 0
1920 0 1920 38 -7 c20 -4 71 -14 112 -21z m-12216 -36 c8 -29 47 -165 85 -301
39 -137 71 -252 71 -257 0 -10 -94 -44 -179 -65 -36 -9 -105 -19 -153 -22
l-88 -6 61 174 c33 96 89 254 122 351 34 98 63 178 64 178 1 0 9 -24 17 -52z
m-2785 -387 c6 -118 8 -218 4 -221 -21 -19 -2808 -1297 -6563 -3010 -3279
-1496 -4277 -1952 -5713 -2614 -389 -179 -710 -326 -712 -326 -3 0 -5 85 -5
188 l0 188 238 108 c379 174 2264 1044 3017 1394 1281 594 2254 1047 6260
2915 3071 1432 3449 1607 3456 1599 3 -4 11 -103 18 -221z m11317 -4268 c-2
-3 -601 -131 -603 -129 -1 1 -9 109 -18 241 -8 132 -40 584 -70 1005 -115
1616 -185 2697 -185 2866 l0 41 58 -10 c31 -6 145 -10 252 -10 201 0 328 16
490 60 l65 18 6 -2040 c3 -1122 5 -2041 5 -2042z m-2351 3950 c167 -27 479
-20 623 14 21 5 22 3 22 -64 0 -174 62 -1147 170 -2663 78 -1099 106 -1537
100 -1544 -6 -5 -933 -206 -937 -202 -3 3 -31 513 -43 796 -31 741 -78 2319
-95 3160 -3 157 -8 341 -11 409 l-6 124 39 -7 c21 -3 83 -14 138 -23z m-1005
-100 c0 -142 44 -1782 65 -2458 29 -899 64 -1715 85 -1964 5 -63 8 -116 7
-117 -6 -5 -768 -167 -771 -163 -2 2 -9 317 -15 699 -22 1304 -64 3421 -77
3800 l-6 195 183 1 c188 1 303 15 448 54 36 10 69 18 74 19 4 1 7 -29 7 -66z
m-45955 -137 c166 -44 315 -181 361 -330 8 -28 33 -215 55 -416 132 -1217 279
-2308 445 -3305 602 -3609 1432 -6146 2464 -7530 44 -59 80 -109 80 -112 0 -4
-32 -3 -350 18 -196 12 -562 50 -820 85 -269 36 -246 29 -264 81 -9 25 -46 96
-83 157 -173 288 -383 755 -568 1266 -130 359 -144 397 -215 615 -598 1830
-1298 4775 -1769 7445 -89 508 -101 603 -108 845 -9 336 35 600 135 810 103
214 203 319 350 366 69 22 215 25 287 5z m44419 -288 c3 -84 8 -270 11 -413 3
-143 10 -465 15 -715 24 -1120 62 -3332 58 -3335 -6 -4 -903 -195 -915 -195
-10 0 -13 35 -13 143 0 279 -65 2074 -163 4470 -4 96 -4 98 17 93 12 -3 81
-11 155 -17 223 -20 515 16 721 88 47 17 90 31 96 32 8 1 14 -46 18 -151z
m-1824 -539 c11 -277 36 -893 55 -1369 58 -1434 95 -2541 95 -2814 l0 -121
-342 -74 c-189 -41 -348 -76 -354 -78 -8 -3 -13 65 -18 229 -40 1374 -117
4129 -122 4368 l-7 305 124 -3 c149 -4 310 11 445 42 54 12 100 21 102 21 1
-1 11 -229 22 -506z m-1526 249 c3 -62 13 -383 21 -713 9 -330 33 -1216 55
-1970 58 -2015 62 -2196 58 -2200 -7 -8 -651 -144 -658 -140 -4 2 -10 134 -14
292 -7 316 -30 1041 -76 2388 -41 1202 -70 2150 -70 2271 l0 101 163 6 c156 6
334 30 442 61 28 8 55 15 62 15 7 1 13 -36 17 -111z m-1520 -115 c3 -115 13
-433 21 -708 9 -275 33 -1029 55 -1675 58 -1731 81 -2503 78 -2614 l-3 -99
-418 -90 c-229 -50 -420 -87 -423 -84 -13 12 -27 937 -54 3437 -5 509 -15
1169 -21 1468 -6 299 -9 545 -7 547 2 3 33 -1 69 -7 105 -19 436 -13 554 10
55 11 110 20 121 21 21 1 21 -3 28 -206z m-1601 -280 c9 -486 25 -1702 37
-2898 11 -1038 26 -1957 35 -2160 l6 -120 -153 -32 c-83 -18 -154 -30 -157
-28 -2 3 -17 1156 -32 2563 -16 1406 -29 2634 -31 2729 l-3 171 140 65 c77 36
143 66 146 66 3 1 9 -160 12 -356z m-49796 126 l593 -134 0 -395 c0 -311 -108
-20279 -110 -20287 0 -2 -923 527 -929 532 -4 4 -170 19608 -171 20119 0 242
3 307 13 304 6 -3 279 -65 604 -139z m48673 -396 c0 -60 45 -4331 101 -9493
l102 -9384 -39 -34 c-75 -66 -447 -362 -451 -359 -1 2 -34 4096 -72 9098 -38
5002 -72 9317 -75 9589 l-6 496 207 96 c115 53 214 97 221 97 9 1 12 -27 12
-106z m-46768 -38 c254 -58 462 -106 463 -108 1 -1 14 -72 29 -157 98 -539
421 -2126 481 -2364 l8 -29 -49 7 c-27 4 -283 50 -569 101 -286 51 -594 105
-685 120 l-165 27 2 862 c3 883 12 1646 20 1646 2 0 212 -47 465 -105z m45502
-1057 c3 -343 7 -951 9 -1352 l2 -730 -4514 -2363 c-2483 -1300 -4515 -2362
-4517 -2360 -1 1 -4 746 -6 1654 l-3 1653 634 291 c956 439 1945 891 4626
2114 1342 612 2735 1248 3095 1414 360 165 658 300 661 301 4 0 9 -280 13
-622z m-20789 -1278 c4422 -803 8344 -1516 8715 -1583 l675 -122 6 -70 c4 -39
7 -166 8 -282 l1 -212 -27 4 c-16 3 -179 28 -363 55 -2090 312 -4558 749
-10095 1785 -3407 638 -4983 928 -6612 1218 -227 41 -414 75 -416 78 -2 2 1
138 6 302 l10 298 26 -5 c14 -3 3644 -663 8066 -1466z m-7635 -65 c1482 -263
2953 -534 6510 -1200 4098 -767 5969 -1106 7775 -1410 281 -47 520 -88 532
-90 22 -5 22 -6 6 -48 -15 -38 -16 -179 -14 -1561 l3 -1518 -33 4 c-19 2
-2008 368 -4420 813 l-4386 809 -12 100 c-38 304 -115 622 -215 889 -425 1126
-1485 2062 -2868 2532 -800 272 -1663 411 -2958 475 -113 5 -260 12 -327 16
l-123 6 0 42 c0 22 3 85 7 138 6 93 7 97 27 93 12 -3 235 -43 496 -90z
m-13085 -431 l170 -46 -3 -266 c-11 -798 139 -1576 442 -2305 82 -195 95 -221
141 -275 46 -52 213 -164 352 -235 56 -28 103 -55 103 -59 0 -4 -27 -22 -61
-38 -75 -38 -265 -150 -341 -201 l-56 -39 -30 83 c-59 163 -222 667 -287 887
-198 673 -387 1427 -554 2223 -63 297 -66 317 -53 317 4 0 84 -20 177 -46z
m1265 -324 c1160 -278 2286 -498 3474 -680 175 -27 320 -50 321 -52 1 -2 31
-127 65 -278 92 -412 188 -822 290 -1243 51 -208 89 -381 86 -384 -28 -28
-1002 -27 -1356 1 -734 60 -1318 149 -1845 283 -325 82 -676 209 -838 302 -71
41 -76 50 -155 261 -147 393 -245 823 -286 1260 -21 220 -32 590 -18 590 6 0
124 -27 262 -60z m-5500 -135 c113 -19 214 -37 225 -40 20 -4 20 -13 23 -5847
2 -3673 -1 -6237 -8 -6903 -6 -583 -13 -1686 -17 -2451 l-6 -1390 -106 -76
c-180 -127 -443 -300 -448 -294 -6 5 71 14965 83 16333 l7 713 21 -5 c11 -3
113 -21 226 -40z m17120 -146 c1374 -62 2275 -215 3040 -516 157 -62 495 -227
643 -314 856 -505 1414 -1206 1591 -2001 109 -486 119 -912 51 -2068 -99
-1663 -226 -3320 -380 -4935 -54 -558 -123 -1245 -131 -1296 -5 -35 -11 -40
-142 -112 -557 -306 -1167 -537 -1792 -680 -85 -20 -168 -38 -185 -41 l-30 -6
-182 427 c-363 853 -803 1921 -803 1952 0 10 205 582 455 1272 251 690 461
1273 466 1295 9 33 19 46 52 64 441 246 1571 968 1804 1152 230 182 374 390
441 636 24 90 26 111 26 307 0 263 -16 360 -139 815 -18 69 -36 158 -40 197
-9 103 -39 203 -93 308 -37 73 -64 108 -142 185 -109 110 -194 159 -391 228
-451 157 -797 210 -1264 192 -145 -6 -164 -13 -378 -154 -1089 -713 -2353
-1248 -3642 -1541 -774 -175 -1464 -259 -2316 -281 l-266 -7 -11 29 c-6 16
-40 101 -77 189 -197 474 -467 1272 -618 1822 l-25 92 56 11 c414 83 876 224
1271 390 994 415 1888 1071 2576 1890 112 133 137 173 161 255 12 44 15 80 11
141 -9 128 -11 126 92 119 47 -3 187 -10 311 -16z m-15859 -74 c84 -14 154
-27 156 -29 3 -2 52 -199 109 -438 420 -1745 854 -3209 1270 -4280 l85 -217
-18 -83 c-27 -124 -24 -397 5 -535 79 -366 263 -689 554 -969 202 -194 325
-270 596 -369 145 -53 627 -205 649 -205 7 0 15 -5 18 -10 3 -6 -59 -175 -138
-378 -79 -202 -174 -443 -211 -537 l-66 -170 -1587 -672 -1588 -671 -6 1431
c-3 788 -7 2945 -8 4795 -1 2964 1 3362 14 3362 8 0 83 -11 166 -25z m44553
-6515 c41 -5183 43 -5586 27 -5602 -13 -14 -9041 -6469 -9078 -6492 -10 -6
-13 126 -13 646 l1 653 407 272 c876 584 1779 1198 3682 2503 1925 1320 2525
1728 3366 2290 338 226 501 341 523 368 17 22 44 67 59 99 27 57 27 60 30 298
2 208 -89 9321 -101 10082 l-5 282 527 275 526 275 3 -182 c1 -100 22 -2695
46 -5767z m-9930 2828 c4 -1239 13 -5704 21 -9923 8 -4219 16 -8193 19 -8832
l4 -1163 -182 -138 c-287 -220 -498 -374 -503 -368 -9 9 -22 5567 -33 13941
-5 4433 -13 8141 -17 8240 l-6 180 339 157 c186 86 342 157 345 157 4 1 9
-1013 13 -2251z m8052 -2786 l52 -4907 -21 -17 c-12 -10 -267 -182 -567 -384
-840 -565 -1230 -831 -3065 -2089 -1615 -1108 -2382 -1630 -3280 -2234 l-300
-202 -6 253 c-4 139 -9 2247 -13 4683 -3 2437 -9 4799 -12 5250 l-6 820 3578
1872 c1968 1030 3580 1870 3583 1868 2 -3 28 -2213 57 -4913z m-10645 4699
c173 -28 483 -75 689 -106 206 -31 376 -57 378 -59 2 -2 7 -2474 12 -5492 5
-3019 14 -8060 20 -11203 6 -3143 9 -5715 7 -5717 -2 -2 -293 103 -648 234
l-644 237 -7 95 c-8 119 -39 2039 -58 3600 -34 2793 -48 5275 -60 10490 -5
2368 -12 5130 -16 6138 -4 1151 -3 1832 3 1832 5 0 151 -22 324 -49z m-26741
-1086 c100 -24 412 -84 595 -114 432 -72 851 -118 1380 -153 299 -19 1030 -16
1248 6 98 10 180 16 182 14 2 -2 46 -158 99 -348 122 -442 362 -1250 403
-1357 6 -15 -18 -16 -243 -10 -968 25 -1812 249 -2504 665 -554 332 -946 733
-1239 1265 l-31 57 27 -6 c16 -3 53 -12 83 -19z m-756 -533 c69 -120 230 -358
321 -472 173 -216 363 -411 585 -596 703 -589 1626 -979 2670 -1128 339 -49
482 -58 942 -63 l437 -5 27 -72 c68 -180 195 -488 274 -663 48 -106 83 -193
77 -193 -18 0 -645 128 -932 190 -919 199 -2067 482 -3273 807 l-433 117 -78
80 c-326 334 -644 816 -932 1411 -93 192 -179 382 -179 396 0 19 405 279 434
279 6 0 33 -39 60 -88z m14581 -313 c136 -14 316 -51 460 -95 194 -58 197 -42
-37 -176 -112 -64 -472 -274 -800 -467 -717 -421 -1139 -662 -1548 -885 -347
-190 -1099 -569 -1390 -700 -671 -304 -1306 -533 -1866 -676 -187 -47 -528
-120 -565 -120 -12 0 -26 15 -39 40 -11 21 -66 88 -122 147 -201 213 -393 474
-589 798 l-97 160 66 7 c37 4 168 12 292 18 1329 66 2779 404 4050 945 609
259 1251 598 1781 940 l127 82 88 -4 c49 -2 134 -8 189 -14z m843 -1101 c-9
-167 -42 -200 -533 -527 -1503 -1002 -2912 -1726 -4355 -2239 -1132 -402
-2271 -629 -2930 -583 -995 69 -3221 500 -5815 1126 -1659 401 -3193 827
-3430 953 -27 15 -100 77 -161 137 -116 113 -199 227 -248 338 -22 50 -23 57
-8 53 4473 -1330 7703 -2064 9569 -2177 249 -15 807 -6 1003 15 1030 114 2086
443 3368 1050 745 353 1417 720 2722 1486 799 469 803 471 813 461 5 -5 8 -47
5 -93z m-15298 -2663 c206 -54 377 -100 378 -101 5 -3 -4 -28 -188 -494 -1496
-3799 -2941 -7973 -4149 -11989 -56 -184 -105 -339 -110 -344 -6 -6 -43 -12
-83 -15 -136 -8 -299 53 -409 155 -62 58 -119 142 -119 178 0 30 258 947 497
1765 1046 3586 2299 7244 3653 10668 103 260 114 284 134 279 11 -2 190 -48
396 -102z m12414 -870 c-1507 -4150 -1925 -5312 -2601 -7230 -1189 -3375
-2132 -6241 -2738 -8325 -43 -146 -84 -273 -92 -282 -8 -9 -50 -35 -94 -58
-276 -143 -637 -88 -741 115 -43 83 -47 63 98 563 442 1526 843 2841 1335
4372 322 1002 942 2839 1294 3835 64 182 141 398 170 480 390 1108 1065 2914
1603 4291 338 864 1033 2588 1051 2607 5 4 122 59 262 121 140 62 367 167 504
233 138 66 251 120 252 119 1 -1 -135 -379 -303 -841z m-10569 410 c154 -36
296 -70 316 -76 35 -9 41 -17 134 -197 140 -267 456 -852 793 -1467 159 -291
353 -649 430 -794 l141 -264 -97 -102 c-81 -85 -183 -215 -228 -291 -9 -15
-42 37 -211 332 -110 192 -341 597 -515 899 -173 303 -384 676 -468 830 -149
271 -543 1045 -588 1153 -19 48 -20 53 -4 48 9 -3 143 -35 297 -71z m1965
-444 c283 -60 608 -128 723 -152 165 -34 207 -45 207 -58 0 -25 -47 -214 -86
-346 -52 -174 -154 -426 -250 -615 -83 -164 -209 -380 -222 -380 -4 1 -182
323 -397 717 -492 903 -519 954 -503 948 7 -2 245 -54 528 -114z m6810 -17 c0
-3 -126 -319 -279 -702 -380 -949 -762 -1929 -1081 -2774 -35 -92 -66 -166
-69 -164 -3 1 -950 407 -2103 901 -1154 494 -2098 902 -2098 907 0 4 30 61 67
126 136 240 280 569 373 857 44 136 130 465 130 498 0 15 5 18 28 13 167 -34
740 -128 1037 -170 833 -118 1198 -125 1820 -35 575 83 1289 257 1921 468 255
84 254 84 254 75z m-9590 -363 c0 -6 -253 -120 -257 -116 -2 1 29 82 67 180
39 98 70 181 71 184 0 8 119 -240 119 -248z m-3103 -583 c-8 -18 -71 -189
-142 -379 l-128 -346 -41 -15 c-23 -9 -579 -262 -1236 -563 -657 -301 -1201
-550 -1209 -553 -12 -4 -13 51 -6 359 4 200 8 364 9 365 12 9 2745 1162 2754
1163 10 1 9 -6 -1 -31z m3703 -521 c95 -170 169 -312 164 -317 -7 -6 -1649
-741 -1800 -806 l-31 -13 113 302 c62 166 148 396 191 511 l79 209 540 238
539 237 16 -26 c9 -15 94 -166 189 -335z m10929 -1090 c1048 -2537 2366 -5321
3728 -7875 226 -424 216 -396 166 -495 -55 -109 -161 -187 -255 -187 -64 0
-130 23 -207 73 -52 34 -68 51 -86 92 -77 172 -618 1304 -1044 2185 -95 195
-753 1519 -1463 2941 l-1290 2585 168 467 c93 257 171 467 174 467 3 0 52
-114 109 -253z m-10132 -302 c459 -800 771 -1376 956 -1765 429 -904 1164
-1889 1877 -2516 498 -438 1000 -743 1510 -919 229 -78 484 -135 718 -160 34
-4 62 -9 62 -11 0 -2 -119 -360 -264 -796 -286 -857 -430 -1298 -666 -2038
-83 -261 -152 -475 -153 -476 -1 -1 -49 18 -107 43 -2591 1114 -5378 2150
-7995 2973 -231 73 -421 133 -422 134 -3 3 519 1566 677 2026 256 746 690
1978 910 2581 l31 87 1322 590 c727 325 1328 590 1335 589 8 -1 102 -155 209
-342z m-5328 -365 c-87 -250 -163 -461 -167 -469 -7 -13 -1770 -816 -1777
-809 -1 1 0 178 4 391 l6 389 1045 478 c575 263 1046 477 1047 476 1 -1 -70
-206 -158 -456z m7883 410 c446 -94 814 -397 1227 -1010 139 -207 247 -383
519 -851 370 -639 539 -906 750 -1186 168 -222 283 -353 480 -544 l170 -165
-143 -409 -143 -410 -104 -3 c-56 -2 -148 2 -203 8 -786 89 -1616 633 -2399
1574 -509 610 -986 1407 -1179 1970 -40 115 -42 126 -41 231 2 132 26 231 84
354 114 239 316 413 535 461 68 15 339 3 447 -20z m11391 -719 c126 -94 294
-173 497 -234 142 -43 261 -67 554 -112 273 -42 404 -73 511 -123 231 -108
379 -325 431 -633 22 -131 15 -336 -15 -457 -92 -370 -385 -736 -825 -1031
-305 -205 -577 -333 -1295 -610 -389 -150 -658 -259 -713 -287 l-28 -14 -71
147 c-475 988 -1216 2588 -1205 2601 2 1 76 20 167 42 626 155 1297 411 1814
693 55 30 106 55 113 56 7 1 36 -16 65 -38z m-8368 -506 c484 -208 884 -381
888 -385 5 -4 -75 -234 -176 -511 -102 -277 -206 -564 -232 -637 l-48 -133
-29 28 c-48 45 -174 198 -271 328 -190 253 -338 489 -689 1095 -129 223 -260
447 -292 498 -31 51 -56 95 -56 98 0 8 -110 54 905 -381z m4632 -2119 c498
-996 721 -1451 713 -1456 -13 -8 -218 -44 -340 -60 -223 -30 -574 -22 -760 16
-339 70 -703 282 -912 531 -236 282 -329 568 -288 880 13 97 67 256 400 1185
l264 736 99 -191 c54 -106 425 -844 824 -1641z m27311 1117 l-3 -297 -4553
-3308 c-2504 -1819 -4555 -3308 -4558 -3308 -2 0 -3 158 -2 352 l3 352 4550
3253 c2503 1789 4553 3253 4558 3253 4 0 6 -134 5 -297z m15 -2010 c3 -378 4
-689 2 -692 -15 -15 -904 165 -928 189 -10 9 -39 394 -35 458 l3 44 470 343
c259 189 473 344 476 344 3 1 9 -308 12 -686z m-41973 -2228 c2309 -722 4810
-1633 7094 -2585 517 -215 1057 -445 1102 -469 l31 -16 -77 -250 c-55 -180
-80 -250 -91 -249 -19 2 -8512 3125 -8523 3135 -4 4 29 125 75 268 66 209 86
260 98 256 9 -2 140 -43 291 -90z"/>
<path d="M6636 30958 c-215 -29 -372 -233 -352 -458 12 -129 33 -225 62 -283
35 -72 125 -159 201 -195 52 -24 69 -27 168 -27 103 0 114 2 177 32 88 41 160
113 201 200 25 55 32 83 35 153 5 111 -20 275 -53 344 -79 166 -253 259 -439
234z"/>
<path d="M14635 29607 c-166 -56 -281 -195 -293 -357 -6 -86 13 -246 39 -325
59 -184 259 -305 452 -274 88 14 159 50 226 114 67 64 109 141 124 229 13 77
-11 284 -43 369 -30 81 -121 176 -208 219 -58 29 -76 33 -161 35 -60 2 -111
-2 -136 -10z"/>
<path d="M33880 67530 c-121 -26 -238 -120 -292 -236 -30 -64 -31 -72 -39
-258 -13 -326 -41 -2436 -61 -4596 -13 -1503 -13 -10041 0 -10665 10 -445 10
-445 126 -561 84 -84 150 -114 267 -122 190 -12 356 101 418 284 19 59 19 88
14 4234 -7 4845 4 7032 48 10150 6 448 13 816 14 818 1 2 288 -71 636 -162
349 -91 992 -258 1429 -371 3794 -984 5705 -1496 6848 -1832 l52 -16 -1 -1006
c0 -553 -6 -3715 -13 -7026 -11 -5006 -11 -6031 0 -6084 39 -186 207 -321 402
-321 199 0 359 125 407 318 14 57 15 657 37 13007 3 1469 2 1511 -16 1555 -66
155 -145 219 -349 284 -910 288 -2723 776 -7378 1985 -911 237 -1820 473
-2020 526 -369 97 -449 111 -529 95z"/>
</g>
</svg>
