<?xml version="1.0" standalone="no"?>
<!DOCTYPE svg PUBLIC "-//W3C//DTD SVG 20010904//EN"
 "http://www.w3.org/TR/2001/REC-SVG-20010904/DTD/svg10.dtd">
<svg version="1.0" xmlns="http://www.w3.org/2000/svg"
 width="1080.000000pt" height="1080.000000pt" viewBox="0 0 1080.000000 1080.000000"
 preserveAspectRatio="xMidYMid meet">

<g transform="translate(0.000000,1080.000000) scale(0.100000,-0.100000)"
fill="#000000" stroke="none">
<path d="M518 9822 c-105 -2 -128 -5 -128 -17 0 -9 10 -15 25 -15 16 0 25 -6
25 -15 0 -8 -4 -15 -10 -15 -5 0 -10 5 -10 10 0 6 -7 10 -15 10 -13 0 -15
-145 -15 -1242 0 -684 -1 -1858 -3 -2610 l-2 -1368 1374 0 c756 0 1376 -2
1379 -4 6 -6 -59 -96 -70 -96 -4 0 -8 -5 -8 -11 0 -12 -124 -189 -157 -224
-10 -11 -34 -41 -52 -68 -19 -26 -38 -47 -43 -47 -4 0 -8 -5 -8 -10 0 -6 -19
-38 -42 -71 -24 -33 -50 -71 -58 -83 -68 -102 -59 -96 -128 -96 -47 0 -64 -4
-69 -15 -9 -24 1 -28 81 -33 72 -4 76 -4 100 24 14 16 31 40 38 54 7 13 20 32
28 41 19 23 25 30 90 119 61 84 137 181 175 223 14 15 42 51 64 80 21 29 61
77 87 108 27 31 58 68 69 83 l20 27 578 0 c318 -1 621 -4 673 -7 92 -7 96 -8
116 -38 12 -17 47 -60 78 -96 31 -36 69 -82 84 -103 16 -21 41 -53 57 -70 45
-51 51 -57 134 -171 44 -59 87 -116 95 -127 8 -10 38 -51 65 -90 l50 -71 78 5
c83 4 93 8 84 32 -5 11 -22 15 -69 15 -63 1 -63 1 -93 43 -83 119 -135 198
-135 207 0 6 -4 10 -8 10 -5 0 -24 21 -43 48 -18 26 -42 56 -52 67 -33 35
-157 212 -157 224 0 6 -4 11 -8 11 -10 0 -76 89 -71 95 11 10 658 17 1789 18
l1265 2 0 53 c-1 28 -2 689 -3 1467 -1 1016 -5 1415 -13 1415 -6 0 -13 -8 -16
-19 -4 -14 -13 -18 -43 -17 -21 0 -36 4 -34 8 3 5 1 8 -5 8 -13 0 -23 -37 -20
-71 1 -13 1 -33 -1 -44 -2 -11 -6 10 -9 48 -3 37 -10 67 -16 67 -7 0 -11 -470
-13 -1385 l-2 -1385 -3371 0 c-2644 0 -3374 3 -3391 13 -16 9 -22 9 -25 0 -3
-10 -40 -13 -134 -13 l-129 0 0 2453 0 2453 2593 -3 c1425 -1 2599 -2 2607 -2
8 -1 419 1 914 3 819 3 900 5 908 20 5 9 13 16 18 16 6 0 10 -375 10 -1001 0
-947 1 -1000 18 -998 9 1 19 0 22 -1 17 -6 60 -8 93 -4 l37 6 -1 1066 c-1 587
-4 1076 -7 1087 -7 20 -16 20 -3557 20 -1952 0 -3607 -1 -3677 -3z m6347 -42
c-22 -5 -43 -6 -47 -3 -4 2 -5 -3 -2 -11 8 -20 0 -20 -19 -2 -11 12 -30 13
-91 7 -43 -4 -80 -3 -82 1 -3 5 -9 6 -14 3 -4 -3 -16 -2 -27 2 -26 11 100 19
222 14 81 -3 92 -5 60 -11z m-6388 4 c-3 -3 -12 -4 -19 -1 -8 3 -5 6 6 6 11 1
17 -2 13 -5z m96 -1 c-13 -2 -35 -2 -50 0 -16 2 -5 4 22 4 28 0 40 -2 28 -4z
m440 0 c-7 -2 -19 -2 -25 0 -7 3 -2 5 12 5 14 0 19 -2 13 -5z m240 0 c-13 -2
-35 -2 -50 0 -16 2 -5 4 22 4 28 0 40 -2 28 -4z m54 1 c-3 -3 -12 -4 -19 -1
-8 3 -5 6 6 6 11 1 17 -2 13 -5z m83 2 c0 -11 -19 -15 -25 -6 -3 5 1 10 9 10
9 0 16 -2 16 -4z m170 -6 c0 -5 -4 -10 -9 -10 -6 0 -13 5 -16 10 -3 6 1 10 9
10 9 0 16 -4 16 -10z m128 3 c-10 -2 -28 -2 -40 0 -13 2 -5 4 17 4 22 1 32 -1
23 -4z m118 -2 c-5 -8 -56 -3 -56 5 0 2 14 4 31 4 16 0 28 -4 25 -9z m77 2
c-7 -2 -21 -2 -30 0 -10 3 -4 5 12 5 17 0 24 -2 18 -5z m717 -3 c-8 -5 -10
-10 -3 -10 6 0 9 -9 6 -20 -4 -15 -9 -18 -18 -10 -9 8 -15 7 -19 -2 -3 -7 -3
-3 -1 8 6 23 -20 42 -29 21 -3 -9 -7 -8 -14 2 -7 10 -21 12 -46 8 -20 -3 -38
-1 -41 4 -4 5 32 9 87 9 64 0 88 -3 78 -10z m50 6 c0 -11 -19 -15 -25 -6 -3 5
1 10 9 10 9 0 16 -2 16 -4z m70 0 c0 -9 -39 -13 -51 -5 -10 6 -4 9 19 9 17 0
32 -2 32 -4z m107 -2 c-3 -3 -12 -4 -19 -1 -8 3 -5 6 6 6 11 1 17 -2 13 -5z
m63 -10 c0 -8 -4 -12 -10 -9 -5 3 -10 10 -10 16 0 5 5 9 10 9 6 0 10 -7 10
-16z m50 6 c0 -5 -7 -7 -15 -4 -8 4 -15 8 -15 10 0 2 7 4 15 4 8 0 15 -4 15
-10z m24 -6 c3 -8 2 -12 -4 -9 -6 3 -10 10 -10 16 0 14 7 11 14 -7z m356 2 c0
-12 -5 -12 -30 -3 -23 9 -35 9 -50 -1 -13 -8 -21 -8 -26 -1 -3 6 -17 8 -30 5
-14 -4 -24 -2 -24 4 0 6 32 10 80 10 62 0 80 -3 80 -14z m83 7 c-7 -2 -21 -2
-30 0 -10 3 -4 5 12 5 17 0 24 -2 18 -5z m424 1 c-3 -3 -40 -6 -82 -6 -56 0
-78 -4 -82 -14 -4 -11 -9 -12 -19 -3 -8 6 -14 8 -14 4 0 -4 -6 -2 -14 4 -9 8
-16 8 -20 2 -4 -6 -18 -6 -36 -1 -18 5 -30 5 -30 -1 0 -5 -11 -9 -25 -9 -14 0
-25 5 -25 11 0 7 -10 9 -25 7 -13 -3 -22 -1 -19 3 3 5 93 9 201 9 108 0 194
-3 190 -6z m306 -11 c-5 -14 -16 -17 -25 -7 -3 3 -51 6 -107 8 -56 1 -104 6
-108 10 -4 4 49 6 119 5 100 -2 125 -5 121 -16z m60 10 c-7 -2 -21 -2 -30 0
-10 3 -4 5 12 5 17 0 24 -2 18 -5z m115 -5 c8 -7 12 -7 12 1 0 8 65 11 225 11
193 0 225 -2 225 -15 0 -8 -4 -15 -10 -15 -5 0 -10 5 -10 10 0 6 -9 10 -20 10
-11 0 -20 -5 -20 -11 0 -5 -4 -7 -10 -4 -5 3 -10 0 -11 -7 0 -10 -2 -10 -6 0
-10 24 -30 13 -27 -15 l4 -28 -13 27 c-10 21 -16 24 -30 17 -12 -7 -29 -7 -50
-1 -18 6 -39 10 -47 9 -8 0 -32 3 -53 7 -27 5 -37 4 -35 -5 2 -8 -10 -13 -29
-15 -22 -1 -33 3 -33 12 0 18 -11 18 -36 -1 -23 -17 -48 -20 -38 -4 4 7 1 10
-7 7 -8 -3 -13 -13 -11 -22 3 -16 1 -16 -22 -1 -40 27 -40 43 2 43 20 0 43 -5
50 -10z m590 2 c-16 -5 -40 -5 -55 0 -23 7 -18 8 27 8 45 0 50 -1 28 -8z m102
-1 c0 -5 -5 -7 -12 -3 -7 5 -9 1 -6 -13 3 -12 0 -20 -8 -20 -8 0 -14 6 -14 13
0 7 -8 18 -17 23 -15 8 -11 10 20 11 20 0 37 -5 37 -11z m49 -18 c-15 -5 -22
6 -14 19 6 9 10 9 16 -1 5 -8 4 -15 -2 -18z m61 25 c0 -9 -30 -14 -35 -6 -4 6
3 10 14 10 12 0 21 -2 21 -4z m78 -13 c6 -19 -43 -16 -59 3 -11 14 -9 15 21
12 18 -2 35 -9 38 -15z m82 3 c0 -20 -27 -27 -40 -11 -7 8 -17 12 -23 8 -6 -3
-7 -1 -3 5 10 17 66 15 66 -2z m349 10 c-4 -4 -78 -17 -118 -21 -14 -1 -43 2
-65 6 -26 4 -43 3 -47 -3 -4 -6 -12 -7 -19 -3 -21 13 -70 16 -70 4 0 -6 -4 -7
-10 -4 -31 19 5 25 162 25 94 0 169 -2 167 -4z m169 -3 c-10 -2 -26 -2 -35 0
-10 3 -2 5 17 5 19 0 27 -2 18 -5z m88 -20 c-7 -7 -26 7 -26 19 0 6 6 6 15 -2
9 -7 13 -15 11 -17z m97 20 c-7 -2 -19 -2 -25 0 -7 3 -2 5 12 5 14 0 19 -2 13
-5z m62 -3 c-28 -12 -45 -12 -45 0 0 6 15 10 33 9 27 0 29 -2 12 -9z m101 3
c-11 -11 -66 -12 -66 -2 0 5 17 9 37 9 20 0 33 -3 29 -7z m84 -10 c0 -11 -3
-14 -8 -7 -4 6 -14 14 -22 17 -10 4 -8 6 8 6 15 1 22 -5 22 -16z m137 -13 l3
-25 -12 23 c-9 18 -17 22 -39 17 -16 -4 -36 -2 -46 4 -14 9 -6 11 37 9 51 -3
55 -5 57 -28z m73 11 c5 -11 10 -22 10 -24 0 -11 -32 0 -41 14 -8 12 -10 12
-19 -1 -7 -12 -9 -10 -7 8 2 28 42 30 57 3z m60 10 c0 -6 -10 -8 -21 -6 -33 6
-36 15 -6 15 15 0 27 -4 27 -9z m50 5 c0 -11 -19 -15 -25 -6 -3 5 1 10 9 10 9
0 16 -2 16 -4z m423 -3 c-7 -2 -21 -2 -30 0 -10 3 -4 5 12 5 17 0 24 -2 18 -5z
m103 -5 c4 -7 3 -8 -4 -4 -6 4 -21 2 -32 -4 -16 -9 -20 -8 -20 5 0 18 45 21
56 3z m64 2 c-19 -13 -30 -13 -30 0 0 6 10 10 23 10 18 0 19 -2 7 -10z m530
-6 c0 -11 -6 -14 -22 -8 -13 4 -49 8 -80 9 l-57 1 6 -30 c6 -33 -3 -30 -21 6
-7 15 -24 25 -46 29 -19 4 22 7 93 8 109 1 127 -1 127 -15z m70 -4 c0 -11 -2
-20 -3 -20 -2 0 -14 9 -27 20 l-23 20 26 0 c20 0 27 -5 27 -20z m-3925 -20 c3
-5 1 -10 -4 -10 -6 0 -11 5 -11 10 0 6 2 10 4 10 3 0 8 -4 11 -10z m375 -5 c7
-9 10 -18 7 -22 -8 -7 -37 15 -37 28 0 14 16 11 30 -6z m560 -20 c0 -5 -5 -3
-10 5 -5 8 -10 20 -10 25 0 6 5 3 10 -5 5 -8 10 -19 10 -25z m820 15 c0 -5 -2
-10 -4 -10 -3 0 -8 5 -11 10 -3 6 -1 10 4 10 6 0 11 -4 11 -10z m580 0 c0 -5
-2 -10 -4 -10 -3 0 -8 5 -11 10 -3 6 -1 10 4 10 6 0 11 -4 11 -10z m1167 -19
c-1 -15 -4 -17 -14 -9 -17 14 -16 28 1 28 8 0 14 -9 13 -19z m-2867 -1 c0 -5
-2 -10 -4 -10 -3 0 -8 5 -11 10 -3 6 -1 10 4 10 6 0 11 -4 11 -10z m-3912 -32
c-6 -18 -13 -27 -16 -20 -2 7 -8 10 -13 7 -12 -8 2 28 15 37 21 15 25 8 14
-24z m3392 11 c0 -5 -9 -9 -20 -9 -24 0 -25 -8 -6 -29 13 -15 0 -16 -141 -14
-85 1 -158 4 -161 7 -3 4 15 6 39 7 207 4 204 4 201 19 -3 11 1 11 16 -3 24
-22 36 -22 23 0 -6 12 -5 20 7 29 17 12 42 8 42 -7z m507 -38 c30 0 58 -3 61
-6 3 -3 -51 -5 -119 -4 -77 0 -116 4 -104 9 11 4 37 6 58 3 37 -6 38 -5 32 23
l-5 29 10 -26 c10 -25 16 -27 67 -28z m3208 -11 c0 -33 -3 -60 -7 -60 -5 0 -8
10 -8 23 0 13 -5 28 -12 35 -9 9 -9 12 1 12 9 0 11 8 7 25 -4 17 -2 25 6 25 9
0 13 -18 13 -60z m-3895 46 c0 -3 -4 -8 -10 -11 -5 -3 -10 -1 -10 4 0 6 5 11
10 11 6 0 10 -2 10 -4z m990 0 c0 -3 -4 -8 -10 -11 -5 -3 -10 -1 -10 4 0 6 5
11 10 11 6 0 10 -2 10 -4z m460 -7 c0 -4 -9 -11 -20 -14 -11 -3 -20 -11 -20
-17 0 -6 -3 -9 -6 -6 -9 9 17 45 32 45 8 0 14 -4 14 -8z m150 7 c0 -3 -4 -8
-10 -11 -5 -3 -10 -1 -10 4 0 6 5 11 10 11 6 0 10 -2 10 -4z m428 -16 c10 -1
31 -7 47 -15 28 -13 24 -13 -62 -14 -71 -1 -93 2 -93 12 0 9 12 13 35 12 22 0
37 5 41 15 5 11 8 12 11 3 3 -7 12 -13 21 -13z m-2384 -5 c-4 -8 -10 -12 -15
-9 -11 6 -2 24 11 24 5 0 7 -7 4 -15z m3486 5 c0 -5 7 -7 15 -4 8 4 32 3 53
-2 l37 -7 -30 -7 c-58 -14 -82 -11 -88 10 -3 11 -1 20 4 20 5 0 9 -4 9 -10z
m250 -9 c0 -11 -4 -22 -9 -25 -5 -3 -8 5 -7 19 1 29 16 34 16 6z m-6367 -5 c4
-10 -4 -15 -29 -18 -19 -2 -34 0 -34 4 0 4 11 8 25 8 14 0 25 5 25 10 0 14 7
12 13 -4z m508 -1 c24 2 51 0 59 -5 17 -11 14 -11 -105 -14 -38 -2 -79 1 -90
5 -15 6 -11 8 17 8 20 1 40 6 43 11 5 8 11 8 19 1 7 -6 32 -8 57 -6z m134 -18
c-20 -11 -27 -5 -19 17 5 13 9 14 21 5 12 -11 12 -14 -2 -22z m430 23 c3 -6
17 -7 30 -4 12 3 26 1 29 -5 5 -7 -8 -11 -38 -11 -34 0 -46 4 -46 15 0 17 16
20 25 5z m650 -20 c-23 -9 -41 3 -31 19 5 8 13 8 29 -1 21 -11 21 -11 2 -18z
m755 16 c0 -8 -14 -15 -34 -18 -19 -2 -32 0 -30 4 3 4 14 8 24 8 10 0 22 5 25
10 9 14 15 12 15 -4z m850 -1 c7 -8 8 -15 2 -15 -5 0 -15 7 -22 15 -7 8 -8 15
-2 15 5 0 15 -7 22 -15z m1150 4 c0 -6 6 -7 12 -2 26 15 78 2 78 -20 0 -3 -38
-1 -50 3 -3 1 -17 1 -32 0 -20 -1 -28 3 -28 14 0 9 5 16 10 16 6 0 10 -5 10
-11z m242 -11 c-6 -6 -15 -8 -19 -4 -4 4 -1 11 7 16 19 12 27 3 12 -12z m106
15 c-10 -2 -18 -9 -18 -14 0 -6 6 -7 13 -3 9 6 9 4 0 -6 -11 -12 -16 -11 -29
6 -8 10 -13 14 -10 9 2 -6 -6 -12 -20 -13 -14 -1 -24 4 -24 12 0 10 15 13 53
13 28 1 44 -1 35 -4z m602 -8 c0 -9 -9 -15 -25 -15 -29 0 -34 16 -7 23 30 8
32 7 32 -8z m550 0 c0 -18 -36 -20 -46 -3 -5 8 -2 9 9 5 9 -3 19 -2 22 3 9 14
15 12 15 -5z m56 2 c4 -4 13 -2 20 4 15 12 44 5 44 -11 0 -6 -24 -10 -55 -10
-50 0 -65 7 -49 22 7 7 31 4 40 -5z m294 -2 c0 -8 -2 -15 -4 -15 -2 0 -6 7
-10 15 -3 8 -1 15 4 15 6 0 10 -7 10 -15z m-6408 -17 c-6 -6 -16 -7 -22 -3 -9
6 -9 9 1 16 17 10 34 0 21 -13z m328 10 c0 -4 -12 -8 -27 -10 -42 -5 -144 3
-139 10 5 9 166 9 166 0z m1720 -4 c0 -2 -24 -3 -52 -3 -48 2 -49 2 -18 8 33
6 70 3 70 -5z m210 6 c0 -5 -4 -10 -9 -10 -6 0 -13 5 -16 10 -3 6 1 10 9 10 9
0 16 -4 16 -10z m2180 -11 c0 -4 -7 -6 -15 -3 -8 4 -15 10 -15 15 0 4 7 6 15
3 8 -4 15 -10 15 -15z m90 11 c0 -5 -7 -10 -16 -10 -8 0 -12 5 -9 10 3 6 10
10 16 10 5 0 9 -4 9 -10z m238 -4 c3 -3 -1 -6 -9 -7 -89 -4 -99 -3 -99 9 0 9
14 11 51 8 28 -3 54 -7 57 -10z m576 -7 c-3 -5 -10 -7 -15 -3 -5 3 -7 10 -3
15 3 5 10 7 15 3 5 -3 7 -10 3 -15z m76 6 c0 -2 -7 -5 -15 -9 -9 -3 -15 0 -15
9 0 9 6 12 15 9 8 -4 15 -7 15 -9z m232 -7 c-6 -6 -15 -8 -19 -4 -4 4 -1 11 7
16 19 12 27 3 12 -12z m218 12 c24 -1 24 -2 3 -10 -23 -9 -63 -3 -63 10 0 5 8
7 18 5 9 -2 28 -4 42 -5z m130 0 c0 -5 -4 -10 -10 -10 -5 0 -10 5 -10 10 0 6
5 10 10 10 6 0 10 -4 10 -10z m733 1 c10 -1 16 -5 13 -9 -3 -5 -27 -7 -53 -6
-152 6 -149 6 -119 13 25 5 75 6 159 2z m-6310 -8 c-7 -2 -19 -2 -25 0 -7 3
-2 5 12 5 14 0 19 -2 13 -5z m367 -3 c-19 -13 -30 -13 -30 0 0 6 10 10 23 10
18 0 19 -2 7 -10z m65 0 c3 -6 -1 -7 -9 -4 -18 7 -21 14 -7 14 6 0 13 -4 16
-10z m470 1 c-6 -6 -25 -6 -45 -1 l-35 8 45 1 c27 1 40 -3 35 -8z m300 -1 c-3
-5 -12 -10 -20 -10 -8 0 -17 5 -20 10 -4 6 5 10 20 10 15 0 24 -4 20 -10z
m308 3 c-7 -2 -19 -2 -25 0 -7 3 -2 5 12 5 14 0 19 -2 13 -5z m447 3 c0 -2
-11 -6 -25 -8 -14 -3 -25 -1 -25 3 0 5 11 9 25 9 14 0 25 -2 25 -4z m1958 -1
c-9 -9 -157 -12 -152 -3 3 4 39 8 81 8 42 0 74 -2 71 -5z m1249 -1 c-3 -3 -12
-4 -19 -1 -8 3 -5 6 6 6 11 1 17 -2 13 -5z m1253 -4 c0 -5 -2 -10 -4 -10 -3 0
-8 5 -11 10 -3 6 -1 10 4 10 6 0 11 -4 11 -10z m-7053 -67 c-3 -10 -5 -2 -5
17 0 19 2 27 5 18 2 -10 2 -26 0 -35z m47 -9 c3 -8 2 -12 -4 -9 -6 3 -10 10
-10 16 0 14 7 11 14 -7z m7210 -8 c-5 -14 -9 -15 -15 -5 -5 8 -3 17 4 21 15 9
19 4 11 -16z m-7249 -36 c3 -5 1 -10 -4 -10 -6 0 -11 5 -11 10 0 6 2 10 4 10
3 0 8 -4 11 -10z m7265 -14 c0 -17 -27 -40 -33 -29 -8 13 12 55 23 48 5 -3 10
-12 10 -19z m-4 -63 c-10 -10 -19 5 -10 18 6 11 8 11 12 0 2 -7 1 -15 -2 -18z
m3 -122 c1 -60 -2 -112 -6 -114 -5 -3 -15 2 -23 11 -13 14 -13 15 0 10 11 -4
15 2 15 23 0 16 -3 29 -6 29 -4 0 -9 9 -12 19 -4 15 -1 18 12 14 14 -6 14 -4
-1 13 -12 13 -14 24 -8 34 16 26 12 50 -7 43 -15 -5 -14 -3 2 10 11 9 23 17
26 17 4 0 7 -49 8 -109z m-7272 37 c-2 -13 -4 -5 -4 17 -1 22 1 32 4 23 2 -10
2 -28 0 -40z m7183 32 c-8 -5 -17 -7 -19 -4 -3 3 1 9 9 14 8 5 17 7 19 4 3 -3
-1 -9 -9 -14z m-7133 -267 c-1 -43 -3 -10 -3 72 0 83 2 118 3 78 2 -40 2 -107
0 -150z m7133 173 c0 -3 -4 -8 -10 -11 -5 -3 -10 -1 -10 4 0 6 5 11 10 11 6 0
10 -2 10 -4z m-7183 -108 c-3 -7 -5 -2 -5 12 0 14 2 19 5 13 2 -7 2 -19 0 -25z
m-17 -4 c0 -8 -4 -14 -8 -14 -4 0 -8 9 -8 19 0 11 4 17 8 15 4 -3 8 -12 8 -20z
m7240 0 c0 -8 -4 -12 -10 -9 -5 3 -10 10 -10 16 0 5 5 9 10 9 6 0 10 -7 10
-16z m-44 -9 c-3 -8 0 -15 7 -16 9 0 9 -2 0 -6 -16 -6 -17 -33 -2 -33 5 0 8
-4 4 -9 -3 -5 -1 -12 5 -16 6 -4 8 -11 5 -16 -4 -5 -8 -45 -10 -88 -3 -44 -5
-83 -6 -88 -1 -4 -1 -15 0 -23 1 -13 2 -13 11 0 5 8 12 12 15 8 3 -3 0 -12 -8
-20 -8 -8 -17 -38 -19 -66 -4 -43 -2 -52 11 -52 10 0 12 -3 5 -8 -5 -4 -15
-23 -21 -42 -9 -29 -11 -4 -13 135 -2 220 0 337 6 347 9 14 16 9 10 -7z m88
-17 c8 -33 7 -248 -1 -248 -5 0 -9 12 -10 26 0 15 -6 30 -13 34 -8 5 -7 9 5
14 14 5 15 9 5 21 -9 11 -10 19 -1 28 11 14 9 101 -3 130 -5 10 -4 17 2 17 5
0 12 -10 16 -22z m-7284 -70 c0 -16 -3 -19 -11 -11 -6 6 -8 16 -5 22 11 17 16
13 16 -11z m5 -46 c-3 -3 -11 0 -18 7 -9 10 -8 11 6 5 10 -3 15 -9 12 -12z
m-5 -22 c0 -5 -4 -10 -10 -10 -5 0 -10 5 -10 10 0 6 5 10 10 10 6 0 10 -4 10
-10z m0 -81 c0 -5 -4 -9 -10 -9 -5 0 -10 7 -10 16 0 8 5 12 10 9 6 -3 10 -10
10 -16z m0 -49 c0 -5 -4 -10 -10 -10 -5 0 -10 5 -10 10 0 6 5 10 10 10 6 0 10
-4 10 -10z m7290 -455 c0 -316 -4 -465 -11 -465 -5 0 -7 -5 -3 -12 4 -7 3 -8
-5 -4 -8 6 -11 29 -7 77 2 39 0 71 -5 75 -6 4 -6 11 2 20 7 9 10 38 7 79 -2
36 -1 65 3 65 12 0 0 385 -12 389 -8 2 -7 6 2 12 11 7 11 9 1 9 -7 0 -11 4 -7
9 3 6 1 28 -4 50 -6 27 -5 41 1 41 6 0 8 9 5 20 -3 11 0 20 6 20 7 0 4 5 -6
11 -18 10 -18 12 -1 30 13 15 14 19 3 20 -11 0 8 12 28 18 2 1 3 -208 3 -464z
m-103 193 c-3 -7 -5 -2 -5 12 0 14 2 19 5 13 2 -7 2 -19 0 -25z m-7200 -45
c-3 -10 -5 -4 -5 12 0 17 2 24 5 18 2 -7 2 -21 0 -30z m81 -42 c-1 -55 -5 -81
-13 -85 -10 -3 -12 11 -9 62 2 37 4 75 5 85 0 9 4 17 9 17 4 0 8 -36 8 -79z
m-75 -99 c1 -61 -1 -108 -5 -105 -5 2 -8 54 -8 115 0 61 3 109 6 105 3 -3 6
-55 7 -115z m7201 -302 c-2 -190 -5 -349 -6 -355 -2 -5 -5 127 -8 295 -5 330
-2 458 10 425 4 -11 6 -175 4 -365z m-7124 270 c0 -5 -4 -10 -10 -10 -5 0 -10
5 -10 10 0 6 5 10 10 10 6 0 10 -4 10 -10z m-5 -87 c-6 -66 -18 -89 -14 -26 2
22 -3 48 -9 56 -10 12 -10 16 0 20 26 11 28 6 23 -50z m0 -121 c0 -23 -4 -41
-9 -39 -6 2 -10 22 -10 45 -1 23 3 41 9 39 5 -2 10 -22 10 -45z m5 -94 c0 -49
-5 -47 -13 5 -3 20 -2 37 4 37 5 0 9 -19 9 -42z m-50 -188 c0 -5 -4 -10 -10
-10 -5 0 -10 5 -10 10 0 6 5 10 10 10 6 0 10 -4 10 -10z m7270 -192 c0 -91 -7
-103 -10 -18 -3 69 -1 100 5 100 3 0 5 -37 5 -82z m-103 20 c-3 -8 -6 -5 -6 6
-1 11 2 17 5 13 3 -3 4 -12 1 -19z m-7117 -22 c0 -3 -4 -8 -10 -11 -5 -3 -10
-1 -10 4 0 6 5 11 10 11 6 0 10 -2 10 -4z m-3 -168 c-2 -13 -4 -3 -4 22 0 25
2 35 4 23 2 -13 2 -33 0 -45z m-80 5 c-3 -10 -5 -4 -5 12 0 17 2 24 5 18 2 -7
2 -21 0 -30z m81 -120 c0 -48 -2 -53 -9 -29 -7 25 -2 86 7 86 1 0 2 -26 2 -57z
m-73 -93 c3 -5 1 -10 -4 -10 -6 0 -11 5 -11 10 0 6 2 10 4 10 3 0 8 -4 11 -10z
m7197 -75 c-6 -34 -12 -32 -12 6 0 16 4 28 9 25 4 -3 6 -17 3 -31z m93 -5 c3
-5 1 -10 -4 -10 -6 0 -11 5 -11 10 0 6 2 10 4 10 3 0 8 -4 11 -10z m-7298 -52
c-2 -13 -4 -5 -4 17 -1 22 1 32 4 23 2 -10 2 -28 0 -40z m83 -20 c0 -23 -2
-39 -5 -37 -9 10 -13 79 -4 79 5 0 9 -19 9 -42z m7117 5 c-3 -10 -5 -4 -5 12
0 17 2 24 5 18 2 -7 2 -21 0 -30z m6 -73 c3 -11 1 -18 -4 -14 -5 3 -9 12 -9
20 0 20 7 17 13 -6z m-7123 -30 c0 -11 -2 -20 -4 -20 -2 0 -6 9 -9 20 -3 11
-1 20 4 20 5 0 9 -9 9 -20z m7220 -549 c0 -270 -3 -492 -7 -494 -5 -3 -8 43
-7 101 0 59 -4 112 -8 119 -6 7 -5 20 1 31 6 11 8 22 5 25 -9 8 -10 337 -1
337 5 0 5 10 1 22 -4 13 -6 86 -4 163 3 178 3 185 13 185 4 0 7 -220 7 -489z
m-7223 402 c-3 -10 -5 -4 -5 12 0 17 2 24 5 18 2 -7 2 -21 0 -30z m0 -85 c-2
-13 -4 -3 -4 22 0 25 2 35 4 23 2 -13 2 -33 0 -45z m7126 -917 c0 -72 -2 -133
-6 -137 -4 -4 -7 57 -7 136 0 79 3 141 6 138 3 -4 6 -65 7 -137z m94 32 c-3
-10 -5 -2 -5 17 0 19 2 27 5 18 2 -10 2 -26 0 -35z m-7221 -25 c4 -7 3 -8 -4
-4 -16 10 -15 -17 1 -33 10 -10 9 -11 -5 -6 -18 7 -24 35 -11 48 9 9 11 9 19
-5z m7224 -105 c-1 -43 -3 -54 -11 -41 -8 15 -2 98 7 98 2 0 4 -26 4 -57z m0
-424 c0 -225 -4 -358 -10 -354 -5 3 -9 38 -8 78 0 40 -2 102 -4 139 -4 44 -2
69 6 72 7 3 7 8 -3 14 -8 6 -10 15 -5 23 13 21 13 132 0 148 -9 12 -8 13 3 6
11 -6 13 -4 8 8 -4 10 -10 24 -13 32 -3 8 -1 15 5 15 7 0 9 29 7 90 -2 50 0
90 5 90 5 0 9 -151 9 -361z m-7223 239 c-3 -8 -6 -5 -6 6 -1 11 2 17 5 13 3
-3 4 -12 1 -19z m3 -68 c0 -5 -4 -10 -10 -10 -5 0 -10 5 -10 10 0 6 5 10 10
10 6 0 10 -4 10 -10z m0 -111 c0 -49 -4 -88 -8 -85 -7 4 -8 43 -3 159 1 9 3
17 6 17 3 0 5 -41 5 -91z m7134 9 c8 -5 7 -8 -1 -8 -7 0 -13 -9 -13 -21 0 -11
4 -18 9 -14 5 3 12 1 16 -5 3 -5 -1 -10 -10 -10 -12 0 -16 -8 -15 -32 3 -49
-2 -58 -9 -18 -7 40 -1 153 7 130 3 -8 10 -18 16 -22z m-7209 -38 c3 -5 1 -10
-4 -10 -6 0 -11 5 -11 10 0 6 2 10 4 10 3 0 8 -4 11 -10z m-8 -67 c-3 -10 -5
-4 -5 12 0 17 2 24 5 18 2 -7 2 -21 0 -30z m80 -25 c-3 -8 -6 -5 -6 6 -1 11 2
17 5 13 3 -3 4 -12 1 -19z m7120 -55 c-3 -10 -5 -4 -5 12 0 17 2 24 5 18 2 -7
2 -21 0 -30z m0 -175 c-2 -29 -3 -6 -3 52 0 58 1 81 3 53 2 -29 2 -77 0 -105z
m-7181 52 c0 -11 -6 -20 -13 -20 -7 0 -13 9 -13 20 0 11 6 20 13 20 7 0 13 -9
13 -20z m61 -72 c-3 -8 -6 -5 -6 6 -1 11 2 17 5 13 3 -3 4 -12 1 -19z m3 -95
c-1 -38 -3 -44 -11 -30 -9 16 -4 77 7 77 2 0 4 -21 4 -47z m-75 2 c-2 -37 -15
-43 -15 -7 0 18 4 32 8 32 4 0 7 -11 7 -25z m7295 -10 c0 -8 -4 -15 -10 -15
-5 0 -7 7 -4 15 4 8 8 15 10 15 2 0 4 -7 4 -15z m-7220 -55 c0 -5 -5 -10 -11
-10 -5 0 -7 5 -4 10 3 6 8 10 11 10 2 0 4 -4 4 -10z m-83 -157 c-3 -10 -5 -2
-5 17 0 19 2 27 5 18 2 -10 2 -26 0 -35z m7253 43 c0 -11 -19 -15 -25 -6 -3 5
1 10 9 10 9 0 16 -2 16 -4z m-7173 -98 c-3 -7 -5 -2 -5 12 0 14 2 19 5 13 2
-7 2 -19 0 -25z m-27 -80 c0 -4 -4 -8 -10 -8 -5 0 -10 4 -10 9 0 5 -3 18 -6
28 -5 16 -4 16 10 -1 9 -11 16 -23 16 -28z m320 -8 c0 -5 -14 -7 -32 -3 -46 8
-48 13 -5 13 21 0 37 -4 37 -10z m60 -10 c0 -5 -8 -7 -17 -5 -10 2 -22 4 -26
4 -5 1 -6 5 -3 10 7 11 46 3 46 -9z m1034 5 c3 -8 -2 -16 -10 -19 -8 -3 -14 1
-14 9 0 17 -16 20 -26 4 -3 -6 -20 -8 -38 -5 -17 3 -47 8 -66 11 -64 11 -45
16 52 14 69 -1 98 -5 102 -14z m121 5 c-3 -5 -10 -10 -16 -10 -5 0 -9 5 -9 10
0 6 7 10 16 10 8 0 12 -4 9 -10z m140 0 c-3 -5 -15 -10 -26 -10 -11 0 -17 5
-14 10 3 6 15 10 26 10 11 0 17 -4 14 -10z m222 4 c-3 -3 -12 -4 -19 -1 -8 3
-5 6 6 6 11 1 17 -2 13 -5z m280 -7 c4 -7 -5 -8 -27 -4 -29 6 -32 5 -27 -13 3
-11 1 -20 -4 -20 -5 0 -9 5 -9 11 0 5 -4 8 -9 4 -5 -3 -12 -2 -15 3 -2 4 -20
9 -38 10 -18 2 -58 7 -88 11 -44 7 -29 8 78 8 79 0 135 -4 139 -10z m350 -7
c-1 -11 -5 -20 -9 -20 -4 0 -8 2 -8 4 0 2 -3 11 -6 20 -4 10 -1 16 9 16 10 0
15 -8 14 -20z m83 10 c-8 -5 -19 -10 -25 -10 -5 0 -3 5 5 10 8 5 20 10 25 10
6 0 3 -5 -5 -10z m493 3 c-7 -2 -19 -2 -25 0 -7 3 -2 5 12 5 14 0 19 -2 13 -5z
m70 0 c-7 -2 -19 -2 -25 0 -7 3 -2 5 12 5 14 0 19 -2 13 -5z m114 1 c-3 -3
-12 -4 -19 -1 -8 3 -5 6 6 6 11 1 17 -2 13 -5z m983 -4 c-8 -6 -27 -7 -42 -4
-16 3 -28 2 -28 -3 0 -4 -33 -7 -72 -6 -221 6 -288 6 -294 0 -4 -3 -12 -3 -18
0 -6 4 -26 6 -44 4 -22 -2 -32 1 -28 8 4 7 99 10 274 10 179 1 262 -2 252 -9z
m60 1 c0 -5 -9 -7 -20 -4 -11 3 -20 7 -20 9 0 2 9 4 20 4 11 0 20 -4 20 -9z
m567 -4 c-2 -7 -15 -13 -28 -13 -13 -1 -40 -3 -59 -4 -19 -2 -43 1 -53 5 -10
4 -24 2 -32 -5 -10 -8 -15 -9 -15 -2 0 6 -8 11 -17 11 -85 -1 -246 6 -278 11
-22 4 78 8 223 8 200 1 262 -2 259 -11z m233 5 c0 -6 -70 -32 -85 -32 -9 0
-13 5 -10 10 4 7 -7 11 -32 10 -55 0 -73 2 -73 11 0 5 45 8 100 6 55 -1 100
-3 100 -5z m340 1 c0 -5 -12 -8 -27 -9 -16 0 -56 -3 -90 -7 -35 -3 -63 -2 -63
3 0 5 -12 11 -27 13 -16 2 25 5 90 6 64 0 117 -2 117 -6z m47 1 c-3 -3 -12 -4
-19 -1 -8 3 -5 6 6 6 11 1 17 -2 13 -5z m703 -5 c-109 -10 -217 -11 -242 -3
-13 4 -18 0 -19 -13 0 -10 -3 -13 -6 -5 -2 6 -20 12 -39 12 -21 0 -33 4 -29
10 4 6 86 9 218 8 189 -1 202 -2 117 -9z m263 4 c-7 -2 -21 -2 -30 0 -10 3 -4
5 12 5 17 0 24 -2 18 -5z m455 0 c-10 -2 -28 -2 -40 0 -13 2 -5 4 17 4 22 1
32 -1 23 -4z m312 -39 c0 -30 -4 -44 -12 -42 -6 2 -11 21 -10 41 1 48 0 47 12
47 6 0 10 -21 10 -46z m-6110 21 c0 -8 -4 -15 -10 -15 -5 0 -7 7 -4 15 4 8 8
15 10 15 2 0 4 -7 4 -15z m1727 -7 c-3 -8 -6 -5 -6 6 -1 11 2 17 5 13 3 -3 4
-12 1 -19z m2883 18 c0 -3 -4 -8 -10 -11 -5 -3 -10 -1 -10 4 0 6 5 11 10 11 6
0 10 -2 10 -4z m40 -6 c0 -5 -2 -10 -4 -10 -3 0 -8 5 -11 10 -3 6 -1 10 4 10
6 0 11 -4 11 -10z m-3940 -33 c11 -5 9 -6 -4 -4 -11 1 -21 9 -23 17 -3 10 -2
11 4 4 4 -6 15 -14 23 -17z m-1903 -9 c-3 -8 -6 -5 -6 6 -1 11 2 17 5 13 3 -3
4 -12 1 -19z m877 -2 c-6 -15 -24 -23 -24 -11 0 8 24 34 28 30 1 -1 0 -10 -4
-19z m1403 18 c-3 -3 -12 -4 -19 -1 -8 3 -5 6 6 6 11 1 17 -2 13 -5z m-332
-24 c3 -5 1 -10 -4 -10 -6 0 -11 5 -11 10 0 6 2 10 4 10 3 0 8 -4 11 -10z m85
-5 c0 -12 -19 -12 -23 0 -4 9 -1 12 9 8 7 -3 14 -7 14 -8z m440 7 c0 -5 -7 -9
-15 -9 -8 0 -15 4 -15 9 0 4 7 8 15 8 8 0 15 -4 15 -8z m670 -8 c0 -2 -9 -4
-21 -4 -11 0 -18 4 -14 10 5 8 35 3 35 -6z m2671 -7 c-10 -9 -11 -8 -5 6 3 10
9 15 12 12 3 -3 0 -11 -7 -18z m-931 3 c0 -5 -5 -10 -11 -10 -5 0 -7 5 -4 10
3 6 8 10 11 10 2 0 4 -4 4 -10z m95 0 c3 -5 -1 -10 -10 -10 -9 0 -13 5 -10 10
3 6 8 10 10 10 2 0 7 -4 10 -10z m121 -3 c4 -4 -8 -7 -27 -7 -23 0 -30 3 -20
9 15 10 37 9 47 -2z m79 3 c-27 -12 -43 -12 -25 0 8 5 22 9 30 9 10 0 8 -3 -5
-9z m495 -1 c0 -5 -9 -9 -20 -9 -11 0 -20 4 -20 8 0 4 9 8 20 9 11 1 20 -2 20
-8z"/>
<path d="M706 9464 c-8 -8 -11 -615 -11 -2318 l0 -2307 3334 0 c2072 0 3341
-4 3352 -10 12 -6 20 -5 24 2 4 5 8 615 9 1355 2 739 5 1346 8 1349 3 3 166 4
363 3 l358 -3 -31 -35 c-18 -19 -32 -38 -32 -42 0 -4 -14 -23 -31 -43 -21 -24
-29 -41 -24 -53 5 -14 13 -10 45 28 22 25 40 50 40 57 0 7 6 16 13 20 27 18
68 84 62 102 -6 21 -127 161 -150 173 -34 20 -12 -21 51 -92 53 -60 62 -76 47
-78 -10 -1 -175 -1 -368 0 l-350 3 0 942 c0 518 -4 945 -8 950 -14 13 -6688
11 -6701 -3z m832 -366 l2 -345 -27 -5 c-16 -2 -186 -4 -379 -3 -274 1 -357
-1 -375 -11 -23 -13 -22 -13 16 -14 22 0 202 -1 400 -3 l360 -2 2 -342 c1
-189 -1 -344 -5 -344 -4 -1 -169 -3 -367 -4 -416 -4 -382 -2 -369 -15 7 -7
145 -11 375 -13 l364 -2 3 -392 c2 -371 2 -393 -15 -395 -10 -1 -194 -2 -409
-2 l-392 -1 3 393 c2 407 3 420 42 405 7 -3 13 0 13 7 0 8 -9 11 -25 8 -14 -3
-26 0 -26 6 -1 6 -2 328 -3 716 l-2 705 406 -1 405 -1 3 -345z m5843 337 c7
-54 2 -678 -5 -682 -11 -7 -5794 -8 -5801 -1 -3 3 -6 157 -6 344 l-1 339 22 5
c43 10 5790 5 5791 -5z m4 -1057 c0 -185 -4 -341 -8 -344 -7 -7 -5795 -10
-5802 -2 -4 4 -6 228 -5 544 l0 140 2908 0 2909 0 -2 -338z m-9 -387 c12 -1
14 -757 2 -776 -7 -11 -5792 -15 -5803 -4 -5 5 -8 401 -5 744 l0 40 2898 -1
c1593 -1 2902 -2 2908 -3z m-5839 -1219 c1 -221 -1 -402 -5 -402 -4 -1 -108
-1 -232 -2 -147 -1 -227 -5 -232 -12 -5 -8 -13 -8 -25 0 -13 7 -25 7 -43 -3
-21 -10 22 -12 255 -11 l280 2 3 -377 2 -377 -407 2 -408 3 -1 330 c0 182 1
351 4 377 4 42 6 46 28 42 34 -6 30 15 -4 22 l-28 6 1 401 0 402 405 -1 405 0
2 -402z m5844 399 c3 -1 5 -181 5 -401 l-1 -400 -2295 0 c-1262 0 -2569 0
-2904 0 -335 0 -610 1 -612 3 -4 3 -5 185 -5 534 l1 262 43 3 c36 3 5753 2
5768 -1z m-2745 -831 l2750 0 0 -372 -1 -373 -2907 -3 c-2323 -2 -2908 0
-2908 10 -1 12 -1 311 0 633 l0 110 157 -2 c87 -2 1396 -3 2909 -3z m-3103
-1123 c0 -186 -3 -340 -5 -342 -3 -4 -255 -7 -450 -5 l-68 0 1 48 c0 26 3 65
7 87 l7 40 55 0 c42 0 55 3 55 15 0 11 -12 15 -47 15 -54 1 -61 5 -63 43 -8
107 -6 214 4 226 15 18 -1 30 -28 21 -12 -3 -21 -19 -26 -41 -7 -39 -77 -194
-107 -236 -18 -27 -18 -27 2 -38 12 -6 36 -11 53 -10 70 4 68 6 63 -62 -2 -35
-5 -73 -5 -85 -1 -23 -3 -23 -126 -23 l-124 0 -3 173 c-2 94 -2 250 0 345 l3
172 402 -2 402 -3 -2 -338z m5847 -2 l0 -345 -112 0 c-2195 -2 -5692 1 -5698
5 -6 3 -7 672 -1 683 0 1 1308 2 2906 2 l2905 0 0 -345z m-6390 -54 l0 -79
-41 -7 c-22 -4 -42 -5 -45 -3 -4 5 76 168 83 168 1 0 3 -36 3 -79z"/>
<path d="M1263 9171 c-51 -48 -68 -92 -67 -172 2 -73 18 -149 32 -149 4 0 7
39 7 88 1 62 6 95 18 117 10 19 13 33 7 39 -6 6 1 15 21 23 21 9 29 18 25 28
-8 21 17 19 36 -2 25 -30 38 -75 40 -139 2 -48 -2 -66 -19 -90 -39 -55 -72
-78 -104 -76 -21 2 -29 -1 -26 -10 2 -8 20 -13 43 -12 73 1 135 90 136 194 0
62 -12 100 -48 147 -29 38 -69 44 -101 14z"/>
<path d="M960 9167 c-15 -12 -49 -61 -89 -129 -21 -35 -21 -37 -4 -46 20 -10
87 -9 119 1 21 7 21 5 20 -103 -1 -147 17 -151 24 -5 l5 110 33 1 c55 2 61 21
8 29 -40 6 -45 10 -41 29 11 47 10 109 -2 113 -6 2 -12 -4 -12 -14 1 -10 -3
-42 -7 -70 -6 -51 -8 -53 -44 -63 -21 -6 -45 -7 -54 -4 -15 6 -13 12 10 53 15
25 35 57 46 70 28 37 21 55 -12 28z"/>
<path d="M1310 8532 c0 -6 -22 -37 -50 -70 -27 -33 -50 -65 -50 -71 0 -20 28
-12 48 14 14 17 22 21 25 13 3 -7 6 -3 6 10 1 12 6 22 11 22 6 0 8 -11 4 -25
-3 -13 -7 -37 -9 -52 -2 -28 -14 -120 -20 -158 -9 -58 -17 -71 -48 -81 -18 -5
-30 -13 -27 -19 6 -13 161 -7 175 6 15 15 -15 30 -49 26 l-28 -4 5 61 c3 34
11 111 18 171 16 149 16 157 2 162 -7 3 -13 0 -13 -5z"/>
<path d="M1049 8473 c0 -26 -4 -70 -7 -98 l-7 -50 -40 3 c-22 2 -42 6 -44 8
-2 2 17 28 42 57 45 53 52 76 17 57 -27 -15 -102 -120 -96 -136 4 -10 22 -14
61 -14 l56 0 -5 -42 c-12 -98 -16 -185 -10 -201 14 -38 22 -11 29 96 8 146 8
145 51 145 19 0 38 2 41 5 11 12 -10 27 -38 27 l-30 0 3 92 c2 66 0 92 -9 95
-9 3 -13 -10 -14 -44z"/>
<path d="M1266 7733 c-5 -11 -2 -13 10 -9 17 7 53 -29 54 -53 0 -30 -53 -170
-107 -279 -30 -62 -53 -116 -50 -118 7 -7 196 -6 208 2 5 3 9 10 9 15 0 7 -34
9 -90 7 -50 -2 -89 -1 -87 2 84 162 137 300 137 358 0 52 -70 114 -84 75z"/>
<path d="M1221 7726 c-8 -9 -11 -19 -7 -23 9 -9 29 13 24 27 -2 8 -8 7 -17 -4z"/>
<path d="M1013 7714 c10 -10 -27 -73 -77 -134 -25 -30 -46 -59 -46 -64 0 -5
-7 -17 -16 -27 -29 -32 -11 -49 51 -49 64 0 64 2 39 -116 -8 -42 -13 -78 -10
-81 19 -19 46 70 46 152 0 24 4 46 9 49 5 3 41 9 80 12 60 6 69 9 59 21 -8 11
-29 14 -75 11 l-64 -3 7 63 c4 41 3 62 -4 62 -14 0 -24 -33 -21 -68 5 -53 -8
-72 -52 -72 -21 0 -39 2 -39 5 0 6 75 112 109 155 16 19 17 27 8 39 -9 12 -9
13 1 7 8 -5 12 1 12 18 0 14 -5 26 -12 26 -6 0 -9 -3 -5 -6z"/>
<path d="M1190 7670 c0 -5 5 -10 10 -10 6 0 10 5 10 10 0 6 -4 10 -10 10 -5 0
-10 -4 -10 -10z"/>
<path d="M5532 9334 c-21 -15 -23 -21 -17 -82 8 -88 -4 -144 -31 -148 -46 -7
-74 -24 -74 -44 0 -15 7 -20 28 -20 43 0 55 -13 49 -51 -4 -19 -9 -67 -13
-106 -6 -72 -6 -73 22 -83 44 -17 154 0 154 24 0 23 -11 25 -52 10 -51 -18
-98 -15 -98 6 0 8 5 55 10 103 7 61 7 94 0 107 -9 17 -7 20 8 20 17 0 20 10
25 83 3 45 4 99 1 119 -5 34 -3 38 20 44 15 3 38 4 52 1 19 -3 24 -1 22 12 -4
23 -76 27 -106 5z"/>
<path d="M2258 9330 c-22 -13 -50 -112 -42 -145 5 -19 0 -32 -17 -51 l-22 -24
22 0 c19 0 22 -4 17 -22 -4 -13 -9 -59 -12 -103 -7 -103 -8 -105 -45 -105 -20
0 -29 -4 -27 -12 8 -22 49 -21 72 2 20 18 24 34 29 133 6 122 14 137 70 137
22 0 28 4 25 18 -4 18 -15 19 -62 7 l-29 -8 6 63 c5 43 14 71 27 85 31 33 24
46 -12 25z"/>
<path d="M5094 9318 c-10 -13 -15 -20 -10 -16 5 4 23 -3 40 -16 17 -13 41 -27
53 -30 13 -4 22 -11 20 -16 -1 -4 9 -18 23 -30 22 -19 25 -30 25 -88 0 -55 -5
-75 -27 -113 -15 -25 -39 -54 -53 -63 -27 -18 -34 -46 -11 -46 25 0 73 48 101
103 22 40 27 64 26 106 -2 56 -7 70 -49 136 -22 33 -96 95 -114 95 -3 0 -13
-10 -24 -22z"/>
<path d="M1992 9314 c-35 -24 -27 -68 13 -72 46 -6 71 40 39 72 -19 20 -24 20
-52 0z m38 -30 c0 -8 -4 -12 -10 -9 -5 3 -10 10 -10 16 0 5 5 9 10 9 6 0 10
-7 10 -16z"/>
<path d="M2300 9320 c0 -5 5 -10 10 -10 6 0 10 5 10 10 0 6 -4 10 -10 10 -5 0
-10 -4 -10 -10z"/>
<path d="M2589 9307 c-20 -15 -81 -111 -98 -155 -33 -82 11 -188 102 -246 63
-39 82 -23 21 18 -69 45 -109 106 -107 162 2 60 50 153 105 202 28 26 8 42
-23 19z"/>
<path d="M3881 9301 c-6 -11 -11 -40 -11 -65 0 -41 -2 -45 -27 -48 -34 -4 -43
-28 -10 -28 23 0 24 -3 31 -97 8 -114 19 -133 78 -133 52 0 104 26 88 45 -7 8
-24 11 -48 8 -58 -7 -73 10 -73 89 -1 37 2 71 5 77 3 5 30 12 59 16 28 4 60
12 71 17 30 16 4 28 -39 18 -22 -5 -52 -10 -67 -10 -26 0 -26 1 -25 61 2 65
-12 87 -32 50z"/>
<path d="M4137 9158 c-11 -106 -12 -156 -5 -165 6 -7 8 -20 4 -28 -7 -20 3
-45 19 -45 17 0 25 23 25 76 0 31 6 50 20 64 38 38 59 20 68 -60 6 -52 12 -66
33 -82 24 -18 29 -19 56 -5 37 20 52 37 55 67 4 35 -19 35 -37 0 -14 -27 -20
-31 -43 -25 -32 8 -44 23 -38 48 7 29 -13 86 -35 98 -11 5 -32 9 -47 7 l-27
-3 2 80 c3 93 -2 125 -21 125 -9 0 -17 -41 -29 -152z"/>
<path d="M4482 9258 c-15 -15 -16 -55 -1 -64 14 -8 59 15 59 31 0 11 -31 45
-41 45 -3 0 -10 -5 -17 -12z"/>
<path d="M2786 9224 c-65 -64 -59 -103 20 -141 76 -36 90 -78 39 -115 -19 -14
-55 -8 -72 12 -20 23 -33 26 -33 7 0 -26 36 -47 78 -47 52 0 87 38 78 85 -7
35 -57 81 -97 90 -15 4 -29 14 -31 23 -9 38 52 92 79 70 8 -6 11 -4 9 9 -4 24
-49 29 -70 7z"/>
<path d="M2983 9179 c-56 -11 -66 -26 -61 -93 4 -49 9 -63 32 -83 29 -25 76
-30 120 -13 34 12 55 64 45 108 -15 66 -65 96 -136 81z m94 -74 c12 -36 12
-42 -5 -65 -27 -35 -85 -40 -106 -8 -22 34 -26 80 -8 101 12 13 27 17 61 15
42 -3 45 -5 58 -43z"/>
<path d="M3603 9173 c-69 -35 -93 -83 -73 -144 17 -49 71 -99 108 -99 16 0 48
14 72 33 39 28 42 32 23 35 -13 2 -32 -6 -45 -17 -30 -28 -73 -27 -103 4 -29
28 -33 55 -9 55 47 0 125 87 111 124 -8 20 -54 25 -84 9z m47 -43 c-21 -39
-100 -81 -100 -52 0 18 35 55 64 67 37 16 50 11 36 -15z"/>
<path d="M3346 9159 c-24 -19 -27 -19 -42 -5 -23 24 -60 19 -92 -12 -33 -32
-61 -117 -44 -134 15 -15 32 -1 32 28 0 14 9 43 20 64 15 30 27 40 44 40 29 0
36 -16 36 -86 0 -41 4 -54 15 -54 11 0 15 11 15 38 0 45 42 112 70 112 28 0
41 -32 47 -116 6 -73 17 -101 29 -70 11 28 -13 176 -32 197 -22 25 -65 24 -98
-2z"/>
<path d="M4970 9151 c0 -12 -5 -21 -10 -21 -6 0 -5 -8 2 -20 10 -16 10 -24 0
-40 -16 -26 -15 -30 3 -30 27 0 17 -58 -20 -113 -53 -78 -43 -164 18 -155 31
4 47 44 47 121 0 47 5 73 15 83 19 20 20 48 1 41 -20 -8 -28 23 -24 91 2 48 0
57 -14 60 -13 2 -18 -3 -18 -17z m14 -278 c-8 -59 -14 -73 -30 -73 -18 0 -18
31 0 75 20 47 37 45 30 -2z"/>
<path d="M4885 9150 c-12 -4 -26 -14 -33 -23 -10 -12 -9 -16 5 -21 10 -4 14
-4 9 1 -4 4 10 15 30 24 39 16 29 34 -11 19z"/>
<path d="M4480 9129 c-15 -27 -15 -161 0 -188 16 -32 73 -28 99 5 34 43 9 60
-36 24 -39 -31 -46 -17 -41 82 6 90 -2 116 -22 77z"/>
<path d="M4678 9133 c-20 -13 -30 -30 -38 -66 -13 -60 -13 -87 0 -87 6 0 10 8
10 18 1 28 53 116 72 120 13 2 18 -7 22 -40 6 -40 13 -116 15 -145 1 -7 6 -13
12 -13 15 0 7 177 -10 208 -14 26 -45 28 -83 5z"/>
<path d="M1963 9123 c-4 -10 -7 -65 -8 -123 0 -104 0 -104 27 -114 40 -14 115
24 92 47 -4 3 -19 0 -35 -8 -60 -32 -63 -27 -55 100 4 77 3 115 -4 115 -6 0
-14 -8 -17 -17z"/>
<path d="M4837 9071 c-3 -14 0 -21 9 -21 16 0 18 9 5 28 -6 10 -10 9 -14 -7z"/>
<path d="M4850 9030 c0 -6 7 -10 15 -10 8 0 15 2 15 4 0 2 -7 6 -15 10 -8 3
-15 1 -15 -4z"/>
<path d="M4906 9025 c-19 -15 -19 -15 1 -15 11 0 23 7 27 15 7 19 -3 19 -28 0z"/>
<path d="M4285 8485 c-7 -63 -9 -66 -37 -72 -34 -7 -36 -39 -2 -36 19 2 20 -3
20 -98 -1 -88 1 -102 18 -115 21 -15 34 -14 84 7 40 17 44 42 5 33 -16 -4 -35
-11 -44 -15 -29 -15 -39 12 -35 98 2 45 7 86 10 92 4 6 25 11 46 11 49 0 70 8
70 27 0 13 -10 15 -56 10 l-55 -6 3 61 c4 87 -18 90 -27 3z"/>
<path d="M4740 8535 c-7 -8 -9 -22 -5 -32 5 -12 9 -14 12 -5 3 6 9 12 14 12 4
0 6 -7 3 -15 -9 -21 10 -19 31 5 15 16 15 22 5 35 -16 19 -44 19 -60 0z"/>
<path d="M2356 8483 c-3 -21 -8 -64 -12 -96 -6 -54 -8 -57 -23 -42 -35 31 -95
7 -136 -52 -29 -44 -32 -79 -9 -112 15 -21 22 -23 68 -17 40 4 57 12 78 37
l27 31 7 -26 c3 -14 15 -28 26 -32 25 -8 88 4 88 16 0 6 6 10 14 10 7 0 19 6
25 14 10 12 16 12 42 -1 39 -19 97 -9 132 23 31 28 34 52 12 94 -20 39 -53 60
-92 60 -27 0 -37 -7 -58 -40 -14 -22 -26 -55 -27 -75 -2 -20 -8 -35 -15 -35
-7 0 -27 -9 -45 -20 -71 -43 -92 -14 -81 113 11 119 10 180 -4 184 -6 2 -13
-12 -17 -34z m299 -148 c44 -43 26 -88 -40 -101 -65 -12 -89 15 -61 72 14 30
41 51 69 53 4 1 19 -10 32 -24z m-335 -23 c18 -14 20 -22 12 -43 -16 -41 -70
-81 -106 -77 -27 3 -31 7 -34 35 -3 26 4 39 32 68 39 39 63 43 96 17z"/>
<path d="M4497 8506 c-7 -17 -15 -99 -22 -218 -5 -81 -4 -98 8 -98 9 0 18 15
22 36 14 75 63 113 89 71 14 -22 31 -110 27 -134 -1 -7 5 -13 14 -13 18 0 20
41 4 108 -17 69 -35 85 -86 79 l-43 -5 1 42 c0 22 4 62 8 88 6 34 4 48 -5 52
-7 3 -15 -1 -17 -8z"/>
<path d="M3972 8421 c-69 -72 -75 -170 -13 -225 39 -35 169 -21 185 19 7 19
-18 26 -40 11 -28 -20 -91 -28 -114 -16 -24 13 -50 60 -46 86 2 13 12 20 32
22 16 2 34 4 39 6 6 2 13 3 17 2 3 0 18 10 32 23 42 39 28 92 -26 106 -22 6
-33 0 -66 -34z m86 -23 c6 -32 -78 -83 -94 -57 -4 8 10 39 31 66 14 18 59 12
63 -9z"/>
<path d="M3081 8411 c-25 -25 -36 -78 -21 -96 6 -8 36 -19 67 -26 39 -9 57
-18 63 -33 12 -31 -18 -57 -69 -59 -42 -1 -62 12 -74 46 -2 6 -9 7 -15 3 -21
-13 14 -63 52 -76 41 -13 95 -5 113 18 54 67 29 113 -70 131 -39 6 -42 9 -40
36 3 40 18 53 44 37 25 -16 33 -10 24 17 -8 27 -48 28 -74 2z"/>
<path d="M3785 8400 c-16 -11 -38 -25 -47 -32 -14 -10 -20 -8 -35 10 -18 22
-35 27 -83 24 -22 -2 -27 -10 -42 -62 -20 -65 -22 -107 -9 -129 16 -25 28 -2
35 68 8 79 30 110 64 92 28 -15 33 -36 20 -86 -9 -33 -9 -48 -1 -56 17 -17 30
-3 37 40 7 47 62 111 95 111 21 0 22 -3 14 -62 -11 -88 -10 -141 3 -145 6 -2
15 35 22 97 17 142 -2 177 -73 130z"/>
<path d="M5015 8410 c-4 -6 -15 -8 -26 -5 -10 4 -19 3 -20 -2 -1 -13 -7 -45
-20 -105 -6 -31 -9 -64 -6 -73 11 -27 27 -16 33 23 7 47 55 148 69 146 6 -1
19 -13 29 -28 16 -20 19 -41 18 -101 0 -55 3 -75 12 -75 9 0 15 19 19 58 5 63
-14 139 -41 160 -19 15 -58 16 -67 2z"/>
<path d="M5202 8389 c-62 -64 -47 -129 31 -129 23 0 49 5 57 10 19 12 28 -10
29 -71 2 -102 -24 -143 -75 -120 -28 12 -31 42 -9 85 18 35 18 36 1 36 -39 0
-60 -86 -31 -127 17 -25 77 -38 105 -23 29 15 43 83 36 173 -3 42 -1 88 4 101
11 30 2 66 -16 66 -13 0 -32 -53 -26 -72 3 -10 -65 -30 -90 -26 -33 4 -34 39
-3 72 23 24 31 27 63 21 l37 -7 -19 21 c-27 30 -59 26 -94 -10z"/>
<path d="M3333 8403 c-7 -2 -22 -19 -33 -38 -22 -35 -21 -78 2 -123 23 -45
111 -40 161 9 24 25 28 35 23 61 -3 17 -11 37 -18 45 -26 31 -103 57 -135 46z
m67 -38 c8 -2 18 -4 22 -4 4 -1 15 -12 24 -26 14 -22 14 -26 -2 -54 -30 -52
-110 -61 -128 -16 -18 47 19 123 53 110 9 -4 23 -8 31 -10z"/>
<path d="M4725 8285 c-8 -104 -2 -115 64 -115 37 0 53 5 69 23 25 26 29 57 8
57 -7 0 -21 -11 -30 -25 -11 -17 -26 -25 -45 -25 l-29 0 1 82 c2 69 -1 83 -14
86 -14 2 -18 -11 -24 -83z"/>
<path d="M5453 8353 c-19 -7 -16 -27 7 -48 19 -17 22 -17 36 -3 32 31 0 69
-43 51z"/>
<path d="M5460 8235 c-26 -27 -21 -55 10 -55 26 0 25 -8 -5 -52 -39 -57 -30
-80 13 -35 28 30 43 80 35 118 -9 45 -26 53 -53 24z"/>
<path d="M1010 6840 c-19 -22 -44 -58 -56 -80 -27 -50 -96 -153 -109 -162 -19
-14 10 -27 70 -30 l60 -3 5 -63 c6 -81 24 -85 28 -6 3 60 4 62 34 68 17 3 52
6 79 6 38 0 49 4 49 16 0 13 -12 15 -67 14 -38 -1 -73 -2 -79 -1 -7 1 -7 20 2
64 7 34 15 81 17 104 3 23 8 47 12 54 4 6 1 15 -6 20 -10 6 -11 9 -1 9 6 0 12
7 12 15 0 24 -13 18 -50 -25z m12 -46 c-5 -22 -15 -73 -23 -114 -7 -41 -17
-78 -22 -81 -10 -7 -76 -3 -84 5 -5 4 29 56 55 84 6 7 12 18 12 23 0 6 12 31
27 57 16 26 29 50 29 55 1 4 2 10 3 14 0 3 4 4 7 1 3 -3 1 -23 -4 -44z"/>
<path d="M1245 6871 c-16 -6 -12 -9 20 -15 45 -9 55 -19 55 -58 0 -42 -19 -74
-53 -89 -18 -8 -32 -21 -32 -29 0 -15 7 -15 65 -3 17 3 34 -2 49 -14 20 -17
23 -25 17 -56 -13 -67 -79 -113 -139 -96 -21 6 -30 4 -34 -8 -14 -37 59 -44
125 -12 33 16 49 32 63 63 32 70 22 114 -31 141 -26 14 -28 18 -20 41 6 14 8
29 5 34 -3 5 -1 11 5 15 25 16 -19 90 -47 80 -7 -2 -13 0 -13 5 0 12 -7 12
-35 1z"/>
<path d="M800 6352 c0 -11 14 -13 65 -10 98 7 107 27 11 25 -57 -1 -76 -5 -76
-15z"/>
<path d="M1040 6146 c0 -8 -4 -16 -8 -18 -5 -1 -40 -55 -77 -118 -38 -63 -75
-121 -83 -129 -28 -29 -10 -46 53 -49 33 -2 60 -4 61 -5 1 -1 -4 -38 -11 -82
-9 -56 -10 -84 -3 -93 15 -18 20 -10 24 47 2 27 10 67 17 88 12 36 14 38 64
43 86 9 88 33 3 31 l-51 -1 6 38 c4 20 9 49 11 65 4 20 2 27 -10 27 -9 0 -16
-8 -16 -21 0 -11 -5 -40 -11 -65 -10 -40 -14 -44 -43 -44 -17 0 -37 4 -45 9
-12 8 -12 12 2 26 10 9 17 22 17 28 0 7 11 28 24 47 13 19 33 53 45 75 20 38
21 38 21 12 0 -15 5 -27 10 -27 17 0 24 31 11 51 -6 11 -7 19 -2 19 5 0 11 14
13 30 3 20 0 30 -9 30 -7 0 -13 -6 -13 -14z"/>
<path d="M1293 6118 c-9 -18 -36 -73 -60 -123 -24 -49 -51 -103 -60 -118 -21
-39 -7 -50 61 -48 31 0 56 -2 56 -7 0 -4 -7 -34 -15 -67 -18 -75 -19 -118 -3
-113 7 3 18 31 25 64 26 122 23 118 87 128 70 10 71 32 1 29 l-47 -1 7 56 c15
117 1 232 -26 232 -5 0 -16 -15 -26 -32z m27 -119 c-3 -67 -10 -122 -17 -130
-13 -16 -93 -14 -93 3 0 5 17 46 39 91 21 45 46 99 56 120 10 21 18 36 19 35
1 -2 -1 -55 -4 -119z"/>
<path d="M5176 6968 c-12 -17 -16 -50 -16 -139 l0 -117 -27 -10 c-16 -6 -36
-13 -46 -16 -25 -8 -16 -30 14 -34 38 -6 42 -16 40 -100 -2 -84 4 -98 52 -124
41 -21 157 0 157 29 0 16 -9 16 -51 0 -19 -8 -41 -13 -49 -12 -8 1 -23 3 -32
3 -39 4 -50 31 -47 118 2 51 -1 87 -8 96 -9 11 -8 16 8 26 17 11 19 23 17 128
-1 95 1 118 15 131 14 15 20 15 44 3 15 -8 31 -16 36 -18 18 -9 5 28 -15 42
-33 23 -74 20 -92 -6z"/>
<path d="M2066 6944 c-20 -19 -21 -54 -1 -54 48 0 87 49 49 64 -24 9 -31 8
-48 -10z"/>
<path d="M4740 6948 c1 -7 23 -38 50 -68 59 -65 100 -159 100 -228 -1 -53 -25
-110 -55 -126 -28 -16 -45 -33 -45 -45 0 -18 23 -13 61 13 39 27 69 98 69 166
0 77 -51 180 -129 263 -37 39 -51 46 -51 25z"/>
<path d="M2318 6925 c-25 -25 -48 -105 -48 -167 0 -23 -6 -31 -30 -40 -34 -11
-35 -28 -2 -43 20 -9 22 -17 22 -107 l0 -98 -45 -11 c-47 -12 -52 -18 -33 -37
19 -19 51 -14 83 14 l30 26 -3 101 c-1 56 2 108 7 116 4 7 24 13 43 13 19 0
41 4 48 8 23 14 0 30 -45 30 l-44 0 6 58 c8 76 18 100 48 114 30 13 32 24 6
37 -15 8 -24 5 -43 -14z"/>
<path d="M3446 6929 c-3 -8 -7 -45 -8 -84 -3 -67 -4 -70 -27 -70 -34 0 -37
-21 -5 -29 l27 -7 -6 -84 c-5 -74 -4 -87 14 -109 26 -33 58 -33 110 0 53 33
39 51 -17 24 -43 -22 -68 -19 -79 7 -9 25 7 164 19 167 66 16 156 52 156 63 0
18 -21 16 -80 -7 -84 -33 -86 -31 -82 51 3 43 0 75 -6 81 -8 8 -13 7 -16 -3z"/>
<path d="M3669 6930 c0 -3 -3 -14 -5 -25 -3 -11 -9 -87 -13 -170 -5 -82 -12
-158 -16 -167 -4 -9 -4 -22 0 -28 11 -17 35 8 35 37 0 35 51 83 88 83 40 0 50
-15 54 -79 2 -32 8 -56 16 -59 9 -3 12 14 12 61 0 59 -3 68 -27 87 -28 21 -84
24 -123 7 -13 -6 -14 9 -9 115 3 68 2 127 -2 133 -5 5 -9 7 -10 5z"/>
<path d="M2673 6888 c-32 -36 -61 -109 -73 -186 -10 -63 -9 -76 8 -114 23 -50
96 -125 107 -109 3 6 -14 34 -38 62 -25 29 -47 63 -50 77 -15 80 39 229 93
257 17 9 30 20 30 25 0 19 -57 10 -77 -12z"/>
<path d="M3986 6814 c-8 -21 11 -44 35 -44 19 0 24 16 13 44 -8 21 -40 21 -48
0z"/>
<path d="M2045 6781 c-3 -5 -7 -34 -10 -63 -2 -29 -9 -76 -15 -105 -9 -43 -9
-56 5 -82 10 -20 23 -31 36 -31 28 0 90 30 96 47 9 23 -3 25 -36 5 -34 -21
-81 -18 -81 4 0 7 4 35 9 61 23 117 21 203 -4 164z"/>
<path d="M4589 6735 c-1 -3 -3 -9 -4 -15 -1 -5 -3 -24 -4 -40 -1 -21 -13 -41
-38 -65 -31 -29 -44 -35 -73 -33 -29 3 -35 7 -38 29 -2 21 4 31 31 48 19 11
47 21 62 21 17 0 25 4 22 13 -7 19 -72 12 -106 -12 -39 -28 -49 -63 -27 -96
29 -44 53 -50 107 -24 27 12 51 31 55 41 10 33 20 19 33 -45 17 -88 4 -117
-55 -117 -50 0 -58 21 -24 59 32 35 32 58 0 41 -27 -14 -50 -50 -50 -77 0 -44
78 -71 128 -44 20 10 39 52 37 81 -1 18 -25 186 -31 218 -4 19 -22 31 -25 17z"/>
<path d="M2924 6716 c-18 -8 -37 -22 -43 -33 -9 -16 -10 -15 -11 10 0 18 -5
27 -12 25 -13 -5 -43 -166 -34 -176 10 -9 36 8 36 24 0 31 59 111 92 125 45
18 62 -7 54 -81 -7 -61 3 -83 41 -95 30 -8 82 40 64 58 -9 9 -15 8 -22 -5 -6
-10 -21 -18 -35 -18 -24 0 -24 1 -18 64 6 62 5 66 -21 90 -31 29 -46 31 -91
12z"/>
<path d="M3170 6699 c-63 -46 -68 -108 -11 -146 88 -59 195 14 169 114 -10 37
-27 49 -81 56 -30 4 -45 -1 -77 -24z m118 -21 c34 -34 -7 -118 -58 -118 -92 0
-121 77 -42 112 44 20 84 22 100 6z"/>
<path d="M4212 6705 c-11 -14 -25 -25 -32 -25 -9 0 -10 3 -1 14 9 10 8 15 -4
20 -11 4 -15 -1 -15 -19 0 -13 -5 -46 -12 -74 -8 -37 -9 -54 -1 -62 8 -8 17 2
33 39 25 58 70 105 92 97 22 -8 37 -47 44 -111 8 -64 25 -59 26 7 1 49 -31
123 -57 133 -31 12 -54 6 -73 -19z"/>
<path d="M3966 6712 c-9 -14 -26 -161 -20 -176 7 -18 63 -31 91 -22 30 10 68
65 53 79 -9 9 -15 7 -25 -8 -28 -40 -37 -46 -63 -43 -30 3 -30 3 -17 116 5 41
4 62 -3 62 -6 0 -13 -3 -16 -8z"/>
<path d="M3796 6094 c-3 -26 -6 -76 -6 -112 0 -36 -5 -94 -11 -129 -9 -49 -8
-67 1 -78 16 -20 30 -10 30 21 0 32 47 114 66 114 8 0 14 -1 14 -2 1 -2 3 -28
6 -58 7 -71 22 -101 57 -113 34 -11 67 13 67 50 0 29 -6 29 -33 -2 -34 -40
-55 -17 -63 65 -4 36 -11 71 -17 78 -13 17 -47 15 -69 -5 -17 -15 -18 -12 -18
100 0 119 -12 155 -24 71z"/>
<path d="M3557 6123 c-4 -3 -7 -23 -7 -44 0 -50 -17 -92 -34 -86 -7 3 -19 1
-27 -4 -11 -6 -6 -12 19 -21 l33 -13 -5 -70 c-4 -48 -2 -78 7 -95 21 -42 82
-40 130 5 50 47 28 62 -28 19 -20 -15 -44 -24 -57 -22 -22 3 -23 7 -22 81 1
43 7 84 14 92 6 8 34 21 61 30 27 9 49 21 49 26 0 13 -38 11 -80 -4 l-35 -13
1 63 c2 59 -3 73 -19 56z"/>
<path d="M2196 6088 c-3 -13 -8 -52 -11 -88 -9 -95 -16 -131 -26 -124 -19 11
-90 6 -122 -9 -70 -34 -98 -117 -57 -170 47 -59 99 -42 178 58 l22 28 0 -30
c0 -39 30 -67 62 -58 33 11 48 25 48 46 0 24 -11 24 -33 -1 -52 -61 -59 2 -31
293 6 67 5 77 -9 77 -9 0 -19 -10 -21 -22z m-26 -238 c0 -20 -39 -85 -70 -117
-29 -31 -46 -38 -80 -33 -38 5 -41 76 -5 110 35 33 155 64 155 40z"/>
<path d="M4103 6058 c-23 -30 -22 -37 7 -51 29 -15 30 -15 36 9 4 14 1 31 -6
39 -15 18 -25 19 -37 3z"/>
<path d="M4856 5954 c-19 -18 -30 -59 -21 -73 19 -31 75 3 75 44 0 33 -33 50
-54 29z"/>
<path d="M4695 5928 c-11 -49 -33 -77 -77 -97 -44 -20 -84 -17 -97 8 -19 35
49 81 121 81 51 0 29 17 -24 18 -85 2 -149 -47 -129 -100 11 -31 29 -44 65
-51 30 -5 108 22 120 42 12 19 22 12 24 -16 1 -16 6 -53 11 -83 6 -37 5 -59
-2 -68 -15 -19 -60 -10 -72 15 -7 14 -16 19 -24 14 -10 -7 -10 -13 -2 -29 15
-28 44 -43 73 -38 13 3 26 5 30 5 4 1 15 12 24 26 14 21 14 32 4 76 -7 28 -13
90 -14 137 -1 90 -18 122 -31 60z"/>
<path d="M3005 5931 c-11 -5 -34 -23 -52 -41 -17 -17 -31 -26 -30 -18 1 30 -4
48 -13 48 -5 0 -10 -13 -10 -29 0 -17 -7 -60 -15 -97 -9 -36 -14 -69 -11 -71
12 -12 34 8 39 35 7 34 51 101 83 125 53 40 84 11 84 -80 0 -81 45 -113 98
-71 13 11 17 48 5 48 -3 0 -14 -7 -24 -16 -31 -28 -46 -11 -53 63 -7 76 -11
85 -43 102 -25 13 -30 13 -58 2z"/>
<path d="M3254 5920 c-33 -21 -64 -81 -61 -115 7 -68 95 -97 171 -57 63 34 83
69 71 123 -14 62 -117 90 -181 49z m126 -25 c24 -12 30 -22 30 -47 0 -52 -76
-97 -145 -84 -39 8 -47 23 -35 68 10 34 34 55 80 69 36 11 38 11 70 -6z"/>
<path d="M4070 5904 c-15 -43 -9 -136 9 -158 18 -21 64 -20 91 2 33 27 18 44
-20 25 -51 -25 -63 -12 -57 60 3 34 7 71 9 81 6 35 -20 27 -32 -10z"/>
<path d="M4253 5880 c-20 -96 -25 -150 -14 -150 6 0 15 9 21 20 6 11 9 20 6
20 -11 0 26 73 51 100 45 51 60 38 62 -49 1 -53 24 -83 59 -79 27 3 51 32 39
45 -4 4 -17 1 -29 -6 -28 -17 -36 -6 -41 63 -3 42 -10 64 -23 73 -26 19 -58
16 -79 -7 -23 -26 -33 -25 -37 3 -3 14 -8 2 -15 -33z"/>
<path d="M2364 5890 c-12 -4 -31 -21 -44 -37 -17 -23 -21 -36 -15 -68 12 -77
71 -107 158 -80 87 27 124 108 76 169 -19 24 -27 26 -87 25 -37 0 -77 -4 -88
-9z m163 -49 c13 -28 8 -42 -32 -83 -21 -23 -34 -28 -75 -28 -37 0 -55 5 -70
20 -21 21 -27 74 -10 85 6 3 10 1 10 -4 0 -6 7 -11 15 -11 8 0 15 4 15 9 0 16
65 41 100 39 25 -2 38 -10 47 -27z"/>
<path d="M4867 5823 c-30 -34 -26 -73 8 -73 31 0 31 -4 0 -59 -30 -52 -30 -51
-5 -51 11 0 20 5 20 12 0 6 6 19 14 27 23 26 46 122 35 143 -12 23 -51 23 -72
1z"/>
<path d="M1376 5341 c-3 -5 -28 -12 -54 -16 l-49 -6 -35 -77 c-20 -42 -38 -87
-42 -99 -11 -34 13 -39 38 -8 28 34 61 30 92 -12 34 -47 37 -88 9 -121 -26
-31 -102 -57 -133 -48 -23 7 -46 -9 -37 -24 11 -17 106 -5 154 19 70 36 85
110 37 180 -17 24 -42 46 -62 53 -38 13 -41 25 -19 68 11 22 29 32 77 48 38
11 63 25 63 33 0 16 -30 24 -39 10z"/>
<path d="M1988 5473 c-10 -2 -18 -11 -18 -20 0 -12 8 -13 40 -8 51 9 55 -2 41
-92 -6 -37 -12 -90 -13 -118 l-3 -50 33 1 c43 1 40 -25 -6 -45 l-33 -15 3 -74
c2 -72 1 -76 -28 -98 -19 -15 -36 -22 -49 -18 -34 10 -40 10 -40 -6 0 -9 14
-17 40 -21 36 -7 43 -4 77 28 36 35 36 35 31 104 -5 67 -5 68 21 75 39 10 76
91 44 96 -7 1 -24 2 -38 2 -14 1 -24 6 -23 11 1 6 4 31 7 55 19 164 19 160 1
180 -17 19 -48 23 -87 13z"/>
<path d="M8950 8683 c-79 -27 -209 -104 -261 -155 -42 -41 -109 -122 -109
-132 0 -5 -9 -20 -19 -35 -40 -56 -72 -127 -115 -259 -53 -162 -71 -238 -86
-352 -6 -47 -13 -96 -14 -110 -7 -50 -24 -215 -24 -230 0 -8 -3 -51 -6 -95 -7
-98 -14 -200 -21 -325 -7 -109 -13 -164 -20 -200 -3 -14 -7 -36 -10 -50 -7
-39 -86 -189 -112 -213 -12 -12 -23 -24 -23 -27 0 -3 -25 -32 -56 -65 -67 -73
-137 -176 -151 -228 -15 -49 2 -67 61 -67 43 0 139 41 229 97 45 28 65 24 121
-23 81 -70 134 -79 212 -38 175 93 161 92 279 24 112 -64 116 -65 215 -65 99
0 103 1 215 65 118 68 104 69 279 -24 78 -41 131 -32 212 38 56 47 76 51 121
23 90 -56 186 -97 229 -97 59 0 76 18 61 67 -14 52 -84 155 -151 228 -31 33
-56 62 -56 65 0 3 -11 15 -23 27 -26 24 -105 174 -112 213 -3 14 -7 36 -10 50
-7 36 -13 91 -20 200 -7 125 -14 227 -21 325 -3 44 -6 87 -6 95 0 15 -17 180
-24 230 -1 14 -8 63 -14 110 -27 207 -124 503 -201 611 -10 15 -19 30 -19 35
0 10 -67 91 -110 133 -40 39 -88 71 -180 119 -58 31 -75 35 -155 38 -49 1 -97
0 -105 -3z m203 -40 c7 -4 14 -8 17 -8 19 -3 50 -18 50 -25 0 -4 11 -11 25
-14 14 -4 25 -11 25 -16 0 -6 7 -10 15 -10 13 0 133 -113 160 -151 19 -27 72
-114 93 -154 23 -43 83 -195 77 -195 -2 0 7 -31 20 -70 13 -38 27 -91 30 -117
3 -27 12 -77 20 -113 7 -36 17 -94 20 -130 4 -35 8 -67 10 -70 2 -3 6 -61 9
-130 4 -69 9 -138 11 -155 2 -16 7 -77 10 -135 20 -381 23 -400 85 -525 30
-61 68 -120 97 -150 124 -131 188 -219 199 -274 l7 -34 -45 5 c-24 3 -57 12
-74 21 -16 9 -40 22 -54 29 -14 7 -27 15 -30 18 -3 3 -28 16 -56 29 -61 27
-84 23 -134 -24 -41 -38 -90 -65 -121 -65 -22 0 -130 52 -160 78 -24 19 -119
26 -146 10 -159 -96 -172 -101 -265 -104 -87 -3 -91 -2 -166 37 -42 23 -85 48
-96 57 -25 23 -136 23 -163 1 -31 -26 -140 -79 -162 -79 -31 0 -80 27 -121 65
-50 47 -73 51 -134 24 -28 -13 -53 -26 -56 -29 -3 -3 -16 -11 -30 -18 -14 -7
-38 -20 -54 -29 -17 -9 -50 -18 -74 -21 l-45 -5 7 34 c11 55 75 143 199 274
29 30 67 89 97 150 62 125 65 144 85 525 3 58 8 119 10 135 2 17 7 86 11 155
3 69 7 127 9 130 2 3 6 35 10 70 3 36 13 94 20 130 8 36 17 86 20 113 3 26 17
79 30 117 13 39 22 70 20 70 -6 0 54 152 77 195 21 40 74 127 93 154 27 38
147 151 160 151 8 0 15 4 15 10 0 5 11 12 25 16 14 3 25 10 25 14 0 7 20 17
50 25 3 1 12 4 20 8 41 17 197 17 223 0z"/>
<path d="M8723 8142 c-94 -61 -117 -212 -43 -286 25 -25 39 -31 74 -31 55 0
80 21 102 88 35 105 -10 256 -76 256 -8 0 -34 -12 -57 -27z"/>
<path d="M9269 8157 c-50 -38 -73 -161 -45 -244 22 -67 47 -88 102 -88 140 0
162 234 30 318 -48 30 -63 32 -87 14z"/>
<path d="M9350 7102 c0 -5 -8 -17 -18 -28 -25 -27 -45 -125 -44 -216 1 -68 -1
-78 -16 -78 -10 0 -33 15 -51 34 l-33 34 27 57 c16 31 30 78 33 104 4 41 1 51
-19 70 -16 15 -34 21 -54 19 -25 -2 -34 -11 -55 -53 -22 -44 -25 -63 -25 -162
0 -93 3 -115 17 -130 22 -21 31 -13 32 29 1 45 25 47 69 3 24 -24 44 -35 64
-35 16 0 34 -5 41 -12 17 -17 23 -6 25 46 2 36 6 46 19 46 10 0 22 -9 28 -19
13 -26 76 -63 97 -59 26 5 22 31 -4 33 -12 1 -38 14 -57 29 -35 26 -45 49 -27
60 5 3 18 23 29 45 51 96 29 191 -43 191 -19 0 -35 -4 -35 -8z m61 -32 c11 -6
19 -21 19 -35 0 -49 -62 -176 -78 -160 -3 3 -7 41 -9 86 -4 66 -1 84 13 100
20 22 28 23 55 9z m-197 -22 c17 -28 -31 -176 -60 -185 -13 -4 -12 158 1 190
9 22 44 19 59 -5z"/>
<path d="M8593 7071 c-17 -11 -40 -17 -51 -14 -25 6 -36 -13 -58 -99 -27 -104
-28 -177 -4 -216 11 -18 27 -35 36 -39 22 -8 90 25 77 38 -7 7 -19 6 -37 -2
-35 -16 -55 3 -63 59 -7 50 4 103 17 82 7 -12 15 -12 50 0 39 13 60 33 47 46
-3 3 -19 -2 -36 -10 -41 -22 -75 -21 -67 0 4 9 11 36 17 60 6 24 15 44 20 44
22 0 99 44 99 56 0 19 -9 18 -47 -5z"/>
<path d="M8708 7063 c-15 -10 -32 -29 -36 -43 -12 -34 -7 -229 6 -242 14 -14
32 -1 32 21 0 32 11 30 70 -16 59 -45 90 -51 90 -17 0 10 -5 14 -14 11 -12 -5
-116 66 -116 78 0 1 18 29 39 61 54 82 59 107 27 138 -29 30 -60 32 -98 9z
m83 -29 c11 -13 9 -22 -9 -57 -13 -23 -31 -53 -41 -66 l-18 -23 -6 68 c-4 43
-3 72 4 81 16 18 54 16 70 -3z"/>
<path d="M8893 7033 c-52 -76 -58 -156 -17 -216 46 -69 101 -74 156 -17 33 36
38 47 38 90 0 47 -3 52 -60 110 -32 33 -68 60 -79 60 -11 0 -28 -12 -38 -27z
m66 -28 c80 -41 104 -123 55 -183 -43 -51 -100 -36 -129 35 -18 42 -12 86 16
132 22 36 21 36 58 16z"/>
<path d="M8685 4785 c-177 -23 -262 -50 -380 -124 -50 -31 -102 -61 -115 -67
-113 -52 -171 -81 -272 -142 -128 -76 -159 -98 -246 -182 -82 -79 -92 -92
-107 -152 -58 -225 -4 -379 174 -498 45 -31 270 -109 371 -129 124 -25 259
-17 475 28 297 63 490 161 693 356 98 93 119 138 143 304 26 185 -20 341 -131
437 -102 90 -176 136 -249 158 -74 22 -236 27 -356 11z m340 -36 c63 -16 102
-37 193 -107 143 -109 176 -179 177 -372 0 -111 -3 -135 -28 -211 -27 -82 -33
-91 -105 -161 -42 -40 -100 -92 -127 -115 -70 -57 -225 -139 -320 -170 -44
-14 -89 -29 -100 -33 -33 -12 -154 -39 -250 -55 -223 -37 -308 -30 -521 41
-167 56 -193 69 -263 130 -96 85 -135 217 -106 354 24 113 23 110 94 184 77
80 140 128 236 181 39 21 79 47 91 57 26 23 180 98 202 98 10 0 41 16 70 35
29 19 60 36 70 37 9 2 23 11 30 21 15 20 38 22 46 5 3 -7 4 -5 3 6 -3 31 112
65 278 82 33 4 62 9 65 11 9 9 214 -5 265 -18z"/>
<path d="M8470 4690 c0 -5 5 -10 10 -10 6 0 10 5 10 10 0 6 -4 10 -10 10 -5 0
-10 -4 -10 -10z"/>
<path d="M8757 4475 c-16 -13 -27 -29 -25 -36 3 -8 9 -7 20 5 38 37 143 51
155 20 8 -21 -12 -76 -51 -139 -42 -67 -56 -110 -56 -171 0 -52 19 -92 38 -80
9 5 7 14 -4 31 -27 42 0 141 66 245 39 62 46 94 26 125 -15 22 -23 25 -79 25
-51 0 -67 -4 -90 -25z"/>
<path d="M8401 4410 c-50 -12 -86 -42 -89 -76 l-2 -29 21 28 c37 48 116 71
154 43 18 -13 16 -18 -29 -110 -56 -113 -65 -159 -42 -204 23 -44 28 -40 21
12 -8 51 10 116 56 198 36 67 37 100 3 127 -28 22 -39 24 -93 11z"/>
<path d="M8003 4260 c-45 -26 -93 -81 -93 -106 0 -4 19 10 43 33 57 55 101 77
127 63 30 -16 24 -41 -30 -121 -54 -80 -58 -95 -35 -125 14 -18 14 -18 15 11
0 19 17 56 45 97 60 90 62 145 4 167 -21 8 -35 4 -76 -19z"/>
<path d="M8866 3993 c-3 -10 -9 -24 -12 -30 -3 -8 1 -13 10 -13 9 0 16 5 16
11 0 6 8 8 19 4 13 -4 20 0 24 14 6 24 0 31 -29 31 -12 0 -24 -8 -28 -17z"/>
<path d="M8459 3964 c-13 -16 -4 -44 17 -51 21 -7 47 23 40 45 -9 26 -38 29
-57 6z"/>
<path d="M8030 3860 c-24 -24 -25 -39 -6 -46 21 -8 56 14 56 35 0 28 -28 33
-50 11z"/>
<path d="M7627 3513 c-15 -14 -5 -23 27 -23 60 0 122 -70 110 -127 -8 -39 -48
-83 -87 -94 -94 -27 -176 5 -177 71 0 17 -3 21 -11 13 -13 -13 9 -70 38 -96
11 -9 40 -19 64 -21 153 -14 249 106 172 214 -16 21 -40 46 -55 54 -27 16 -70
21 -81 9z"/>
<path d="M7502 3390 c0 -14 2 -19 5 -12 2 6 2 18 0 25 -3 6 -5 1 -5 -13z"/>
<path d="M5425 3260 c-44 -3 -91 -11 -105 -19 -32 -17 -122 -91 -133 -108 -21
-34 -52 -50 -117 -61 -85 -15 -260 -96 -383 -178 -60 -40 -89 -54 -106 -51
-33 7 -144 -10 -206 -29 -147 -48 -336 -161 -405 -243 -32 -37 -50 -49 -97
-63 -42 -12 -71 -29 -103 -60 -25 -24 -74 -65 -110 -90 -36 -25 -73 -56 -83
-68 -55 -66 -89 -124 -94 -160 -5 -34 -12 -44 -52 -69 -61 -40 -151 -134 -186
-196 -16 -27 -36 -77 -45 -109 l-15 -59 -54 -15 c-119 -33 -213 -191 -170
-285 9 -21 8 -30 -10 -53 -55 -77 -49 -181 14 -238 l33 -29 -43 -81 c-23 -45
-52 -106 -65 -136 -48 -119 -94 -226 -102 -236 -34 -47 -120 -350 -134 -474
-3 -30 -10 -75 -14 -100 -5 -25 -7 -47 -5 -48 13 -14 24 21 35 110 7 57 21
135 31 173 10 39 20 79 22 90 2 11 7 27 10 35 3 8 15 44 27 80 20 62 44 120
76 183 8 16 14 37 14 47 0 10 3 20 8 22 4 2 18 28 31 58 42 96 59 135 62 145
2 6 19 36 37 67 l34 58 29 -29 c16 -17 39 -33 50 -36 62 -20 149 37 149 97 0
18 8 55 17 81 14 39 15 52 5 67 -18 29 -15 42 8 35 32 -10 98 16 143 57 23 22
80 58 126 80 98 47 180 122 229 209 24 41 42 59 70 72 38 17 125 97 159 147 9
14 43 54 76 90 33 36 64 75 70 88 9 20 17 22 84 22 60 0 88 6 145 30 77 33
175 99 223 150 17 17 48 41 70 52 51 26 161 107 199 147 17 17 36 31 43 31 7
0 42 13 76 28 34 16 88 32 118 35 76 9 131 30 199 76 76 50 135 65 196 50 25
-7 72 -29 104 -50 68 -46 123 -67 199 -76 30 -3 84 -19 118 -35 34 -15 68 -28
74 -28 6 0 35 -22 65 -49 48 -44 117 -93 200 -143 16 -10 60 -45 99 -78 38
-34 103 -77 145 -97 64 -31 88 -37 161 -41 73 -4 88 -7 95 -23 10 -21 116
-146 208 -245 33 -35 76 -72 98 -81 28 -12 46 -31 68 -70 50 -88 134 -165 230
-211 47 -22 105 -59 129 -81 43 -40 109 -68 137 -57 20 8 27 -10 12 -33 -10
-17 -9 -29 5 -68 9 -26 17 -63 17 -81 0 -60 87 -117 149 -97 11 3 34 19 50 36
l29 29 33 -58 c34 -58 56 -102 68 -137 4 -11 21 -49 38 -85 16 -36 38 -85 48
-110 9 -25 25 -63 35 -85 51 -111 113 -344 130 -483 11 -89 22 -124 35 -110 2
1 0 23 -5 48 -4 25 -11 70 -14 100 -9 77 -45 230 -82 345 -18 54 -73 177 -83
185 -3 3 -7 12 -9 20 -1 8 -12 38 -23 65 -12 28 -26 64 -33 80 -7 17 -35 76
-62 131 l-51 102 32 28 c45 40 63 101 46 162 -6 26 -21 59 -31 74 -16 22 -18
32 -9 55 38 101 -52 251 -171 284 l-55 16 -16 59 c-29 113 -116 229 -224 301
-45 29 -53 40 -58 73 -9 67 -78 156 -177 228 -36 26 -85 66 -110 90 -32 31
-62 48 -103 60 -47 14 -66 26 -97 63 -68 81 -254 193 -401 242 -56 19 -177 36
-210 30 -17 -3 -47 11 -106 50 -148 100 -346 187 -425 187 -17 0 -35 11 -52
31 -34 40 -112 106 -151 126 -42 23 -88 29 -180 23z m178 -56 c40 -20 132
-103 123 -111 -3 -3 -23 -9 -45 -13 -40 -7 -41 -6 -52 28 -7 20 -33 58 -58 85
-25 28 -37 45 -26 40 11 -6 37 -19 58 -29z m-255 -11 c-20 -21 -44 -56 -53
-79 -16 -41 -16 -41 -56 -34 -22 4 -42 10 -45 13 -9 9 82 90 129 114 60 33 66
28 25 -14z m182 5 c31 -26 80 -95 80 -115 0 -9 -9 -9 -41 2 -23 8 -72 15 -109
15 -37 0 -86 -7 -109 -15 -49 -17 -52 -8 -18 46 22 37 69 81 97 92 25 10 70
-1 100 -25z m11 -143 l30 -16 -40 -45 c-21 -24 -45 -65 -52 -89 -7 -25 -16
-45 -19 -45 -3 0 -11 19 -17 43 -7 24 -30 63 -53 89 l-41 47 28 15 c37 20 126
20 164 1z m-411 -3 c0 -5 -3 -12 -7 -16 -10 -10 -33 -78 -33 -99 0 -9 -21 -32
-47 -50 -26 -17 -57 -42 -70 -54 l-22 -21 -42 21 c-49 24 -125 25 -171 3 -35
-18 -57 -20 -76 -8 -13 9 66 70 138 107 155 79 225 107 290 118 14 2 28 5 33
6 4 0 7 -3 7 -7z m113 0 c15 -6 10 -13 -29 -46 -25 -21 -50 -49 -56 -62 -6
-13 -19 -24 -29 -24 -17 0 -17 3 -5 43 26 82 37 97 70 96 17 0 39 -4 49 -7z
m530 -24 c8 -18 20 -50 25 -70 9 -33 8 -38 -7 -38 -10 0 -23 11 -29 24 -6 13
-31 41 -56 62 -50 42 -46 52 20 53 26 1 34 -5 47 -31z m132 5 c70 -22 238
-106 307 -156 50 -34 56 -42 42 -50 -12 -7 -32 -4 -65 8 -66 23 -128 22 -178
-2 l-42 -21 -22 21 c-13 12 -44 37 -70 54 -26 18 -47 41 -47 50 0 21 -23 89
-33 99 -26 27 16 25 108 -3z m-595 -27 c0 -14 -4 -28 -10 -31 -6 -4 -10 7 -10
24 0 17 5 31 10 31 6 0 10 -11 10 -24z m320 -8 c0 -25 -3 -29 -10 -18 -13 20
-13 50 0 50 6 0 10 -15 10 -32z m-370 -17 c0 -12 -12 -24 -32 -32 -18 -7 -37
-15 -43 -17 -5 -3 6 12 24 32 39 41 51 45 51 17z m105 3 c20 -20 16 -25 -13
-17 -12 3 -22 12 -22 19 0 19 15 18 35 -2z m225 1 c0 -8 -4 -15 -9 -15 -5 0
-18 -3 -28 -7 -17 -6 -17 -5 1 15 22 26 36 28 36 7z m121 -21 c18 -20 30 -35
24 -32 -5 2 -25 10 -42 17 -21 8 -33 20 -33 32 0 28 12 24 51 -17z m-316 -50
c27 -25 33 -59 13 -67 -8 -4 -7 -6 4 -6 14 -1 15 -6 7 -33 -14 -49 -25 -55
-54 -28 -28 26 -33 50 -10 50 8 0 15 5 15 11 0 6 -7 8 -17 5 -9 -4 -20 -1 -25
6 -9 15 -11 82 -2 90 9 10 43 -3 69 -28z m205 -12 c0 -42 -13 -68 -28 -58 -6
3 -13 2 -17 -4 -3 -5 1 -10 9 -10 9 0 16 -6 16 -13 0 -15 -37 -57 -50 -57 -24
0 -41 79 -17 81 10 0 10 2 0 6 -31 12 1 74 47 91 34 13 40 7 40 -36z m-326
-22 c9 -28 30 -73 47 -100 17 -27 28 -54 24 -60 -16 -27 -105 7 -105 40 0 11
9 28 20 38 l21 19 -21 6 c-11 3 -20 13 -20 24 0 11 -6 28 -14 39 -10 13 -11
23 -4 31 20 24 36 13 52 -37z m424 37 c7 -8 6 -18 -4 -31 -8 -11 -14 -28 -14
-38 0 -10 -10 -22 -22 -27 l-22 -8 22 -12 c33 -17 29 -57 -8 -76 -33 -17 -66
-20 -75 -5 -4 6 9 36 28 68 19 31 40 76 46 100 12 42 29 53 49 29z m-563 -49
c-4 -13 -10 -39 -15 -58 -7 -32 -8 -30 -9 23 -1 46 2 57 15 57 12 0 15 -6 9
-22z m80 -19 c7 -29 1 -49 -15 -49 -11 0 -33 67 -25 79 10 18 34 0 40 -30z
m528 -10 c-12 -46 -39 -46 -36 0 1 34 21 57 36 42 5 -5 4 -24 0 -42z m66 -6
c-1 -53 -2 -55 -9 -23 -5 19 -11 45 -15 58 -6 16 -3 22 9 22 13 0 16 -11 15
-57z m-729 15 c0 -13 3 -39 6 -59 6 -34 5 -36 -37 -52 -23 -9 -43 -16 -45 -14
-1 1 -9 17 -19 36 -17 33 -16 34 7 55 30 28 70 56 80 56 5 0 8 -10 8 -22z
m800 5 c14 -10 35 -27 48 -38 22 -20 22 -22 7 -59 -12 -29 -20 -36 -33 -31 -9
4 -30 12 -46 17 -26 10 -28 14 -22 47 3 20 6 46 6 59 0 26 8 27 40 5z m-410
-45 c0 -18 3 -43 6 -55 5 -19 2 -23 -16 -23 -18 0 -21 4 -16 23 3 12 6 37 6
55 0 17 5 32 10 32 6 0 10 -15 10 -32z m-605 11 c65 -16 68 -25 44 -102 -18
-58 -24 -67 -45 -67 -13 0 -27 -1 -30 -2 -3 -2 -12 14 -19 36 -8 21 -30 56
-51 77 l-37 38 24 9 c13 5 31 12 39 15 22 8 27 8 75 -4z m1299 -9 l29 -11 -36
-37 c-20 -20 -43 -55 -50 -77 -8 -22 -17 -39 -21 -37 -3 1 -17 2 -30 2 -21 0
-27 9 -45 67 -24 76 -21 84 39 102 38 11 69 9 114 -9z m-1648 -62 c-40 -40
-93 -92 -117 -115 l-45 -42 -45 15 c-72 25 -160 0 -237 -67 -33 -29 -65 -36
-91 -20 -12 8 -7 18 24 53 21 24 44 45 49 47 6 2 13 7 16 11 12 17 152 94 229
126 108 45 173 63 237 63 l52 1 -72 -72z m647 57 c4 -8 2 -17 -3 -20 -6 -4
-10 3 -10 14 0 25 6 27 13 6z m607 -6 c0 -11 -4 -18 -10 -14 -5 3 -7 12 -3 20
7 21 13 19 13 -6z m712 6 c77 -20 212 -77 278 -117 104 -64 116 -73 155 -116
31 -35 36 -45 24 -53 -26 -16 -58 -9 -91 20 -77 67 -165 92 -236 68 l-44 -15
-46 41 c-25 23 -78 75 -117 115 l-71 72 46 0 c25 0 71 -7 102 -15z m-1823 -4
c24 -16 -36 -79 -76 -80 -17 -1 -40 -4 -50 -7 -10 -3 5 17 34 45 52 52 66 58
92 42z m1694 -42 c29 -28 44 -48 34 -45 -10 3 -33 6 -50 6 -25 1 -38 9 -60 37
-20 28 -24 39 -15 45 24 15 40 8 91 -43z m-1606 -11 c57 -61 69 -109 31 -129
-18 -10 -23 -9 -27 2 -5 17 -59 69 -86 85 -19 11 -19 13 9 43 17 17 33 31 36
31 3 0 20 -15 37 -32z m1495 5 c15 -15 28 -30 28 -34 0 -4 -16 -16 -35 -28
-20 -11 -44 -34 -53 -51 -19 -33 -33 -37 -52 -15 -18 22 -4 67 36 114 20 22
38 41 42 41 3 0 19 -12 34 -27z m-1048 -6 c6 -9 7 -19 3 -23 -9 -9 -37 15 -37
33 0 18 20 12 34 -10z m566 10 c0 -14 -20 -37 -32 -37 -12 0 -10 24 4 38 16
16 28 15 28 -1z m-797 -54 c-33 -25 -43 -11 -22 29 11 21 12 21 26 2 12 -16
12 -20 -4 -31z m1027 -1 c0 -7 -3 -11 -7 -9 -5 2 -16 7 -26 10 -15 6 -16 10
-6 29 11 21 12 21 25 3 8 -10 14 -25 14 -33z m-852 -3 l33 -30 -21 -27 c-33
-42 -100 -92 -124 -92 -35 0 -50 15 -38 37 6 10 13 39 16 64 2 24 5 46 5 49 1
3 11 6 22 7 12 1 27 7 32 12 18 18 40 12 75 -20z m728 17 c15 -8 31 -13 36
-10 4 3 8 2 9 -3 4 -52 12 -100 20 -115 13 -24 3 -38 -27 -38 -40 0 -68 19
-133 93 l-25 27 35 30 c39 34 47 35 85 16z m-611 -16 c3 -5 -3 -10 -14 -10
-12 0 -21 5 -21 10 0 6 6 10 14 10 8 0 18 -4 21 -10z m445 0 c0 -5 -9 -10 -21
-10 -11 0 -17 5 -14 10 3 6 13 10 21 10 8 0 14 -4 14 -10z m-1108 -59 c-2 -27
0 -63 6 -80 11 -31 10 -31 -44 -56 -42 -19 -59 -23 -74 -15 -25 13 -34 49 -25
98 12 70 45 100 111 101 l31 1 -5 -49z m384 -6 c-8 -39 -24 -54 -37 -34 -17
27 -10 65 14 76 27 12 31 4 23 -42z m1461 20 c23 -27 39 -100 28 -134 -12 -40
-40 -44 -99 -15 -53 26 -54 27 -44 56 6 16 8 52 6 80 l-5 50 46 -6 c31 -4 53
-14 68 -31z m-1741 -9 c19 -19 34 -38 34 -43 0 -5 -16 -17 -35 -26 -58 -28
-43 -47 18 -22 22 9 23 -12 0 -37 -23 -26 -37 -23 -65 15 -30 38 -42 84 -32
121 9 36 38 34 80 -8z m656 23 c-15 -6 -30 -5 -40 1 -13 7 -8 9 23 9 35 0 37
-1 17 -10z m256 1 c-10 -6 -25 -7 -40 -1 -20 9 -18 10 17 10 31 0 36 -2 23 -9z
m366 4 c18 -7 21 -50 6 -74 -13 -21 -29 -2 -37 43 -6 38 0 43 31 31z m331 -28
c8 -42 0 -71 -33 -113 -29 -40 -46 -41 -68 -8 -20 31 -11 44 18 26 13 -8 24
-9 30 -3 7 7 -2 16 -26 27 -20 10 -36 21 -36 26 0 4 14 24 31 44 42 47 76 48
84 1z m-1036 6 l54 -18 -54 -30 c-70 -39 -86 -45 -134 -51 l-40 -5 39 39 c21
21 45 48 54 61 17 26 13 26 81 4z m463 -4 c9 -13 33 -40 54 -61 l39 -39 -40 5
c-48 6 -64 12 -134 51 l-54 30 49 17 c66 22 70 22 86 -3z m-817 -130 c-28 -42
-50 -51 -121 -46 -41 2 -48 6 -46 21 5 31 71 111 110 133 l37 22 22 -46 22
-47 -24 -37z m1214 46 c21 -29 42 -62 46 -73 6 -20 3 -21 -55 -21 -72 0 -91 8
-119 53 l-20 32 22 47 21 46 33 -16 c18 -9 50 -39 72 -68z m-1676 -82 c15 -16
16 -22 5 -28 -7 -4 -22 -14 -34 -21 -21 -13 -21 -12 -21 42 0 31 -5 61 -11 67
-17 17 -15 31 11 58 l22 25 5 -62 c3 -39 11 -68 23 -81z m2077 103 c11 -20 11
-27 0 -40 -8 -9 -13 -40 -13 -70 0 -37 -3 -52 -11 -48 -6 4 -21 13 -33 20
l-22 14 26 37 c20 31 23 44 18 79 -5 35 -3 42 8 37 8 -3 20 -16 27 -29z
m-2216 -6 l24 -11 -20 -40 c-15 -28 -25 -37 -37 -33 -28 11 -112 25 -150 25
-33 0 -34 1 -19 16 20 20 113 53 150 54 15 0 38 -5 52 -11z m461 -8 c-3 -6
-11 -11 -17 -11 -6 0 -6 6 2 15 14 17 26 13 15 -4z m1393 1 c6 -18 -15 -14
-22 4 -4 10 -1 14 6 12 6 -2 14 -10 16 -16z m597 -11 c25 -11 45 -24 45 -28 0
-5 -35 -14 -77 -20 -43 -6 -85 -14 -94 -17 -12 -5 -22 3 -37 32 l-20 40 21 11
c30 15 107 6 162 -18z m-2391 -37 c9 -24 7 -97 -4 -114 -8 -12 -10 -11 -10 6
0 12 -7 27 -15 34 -18 15 -19 43 -3 70 15 24 24 25 32 4z m615 7 c11 -7 10
-11 -7 -20 -33 -17 -44 -14 -32 9 12 22 18 24 39 11z m981 -11 c12 -23 1 -26
-32 -9 -17 9 -18 13 -7 20 21 13 27 11 39 -11z m613 -12 c15 -31 15 -34 -4
-54 -10 -11 -19 -29 -19 -40 0 -16 -2 -17 -10 -4 -11 17 -13 90 -4 114 9 24
20 19 37 -16z m-1946 -14 c2 -6 -18 -15 -47 -21 -57 -12 -64 -4 -17 20 35 18
58 18 64 1z m1708 -1 c33 -16 51 -41 21 -30 -8 3 -31 9 -50 13 -35 6 -43 14
-29 27 10 10 19 9 58 -10z m-2087 -13 c30 -11 32 -15 32 -61 0 -48 -2 -51 -35
-65 -47 -19 -47 -19 -68 26 -10 22 -36 52 -58 67 -22 16 -47 33 -57 40 -23 16
139 10 186 -7z m2588 5 c-76 -51 -97 -70 -113 -105 -21 -45 -21 -45 -68 -26
-33 14 -35 17 -35 65 l0 50 48 14 c56 17 192 19 168 2z m-2959 -11 c-3 -3 -12
-4 -19 -1 -8 3 -5 6 6 6 11 1 17 -2 13 -5z m95 -38 c-31 -50 -42 -50 -42 -1 0
33 9 41 52 44 15 1 13 -6 -10 -43z m2975 38 c24 -7 36 -47 19 -68 -9 -12 -16
-7 -38 30 -27 44 -25 50 19 38z m106 -1 c-7 -2 -19 -2 -25 0 -7 3 -2 5 12 5
14 0 19 -2 13 -5z m-2990 -19 c67 -34 99 -78 111 -150 7 -39 6 -42 -21 -52
-15 -5 -41 -21 -56 -36 -34 -31 -43 -32 -57 -5 -7 11 -28 38 -47 60 -24 26
-33 44 -29 56 5 13 9 14 15 5 8 -14 116 -36 131 -27 22 14 8 23 -34 23 -52 -1
-106 19 -106 38 0 11 19 51 47 97 6 10 10 9 46 -9z m620 10 c13 -4 13 -11 4
-37 -6 -18 -19 -45 -29 -62 -10 -16 -21 -38 -24 -48 -21 -61 -228 -77 -275
-21 -21 26 18 87 77 123 43 26 63 31 116 32 34 0 72 4 83 9 25 11 30 11 48 4z
m1662 -13 c63 -5 90 -13 127 -36 47 -29 87 -92 73 -114 -21 -36 -110 -52 -187
-36 -38 8 -88 35 -88 47 0 5 -10 25 -23 46 -51 81 -52 119 -2 106 11 -3 56 -9
100 -13z m545 -3 c25 -40 40 -70 40 -83 0 -19 -55 -38 -106 -37 -42 0 -56 -9
-34 -23 15 -9 123 13 131 27 6 9 10 7 15 -5 4 -13 -3 -28 -23 -50 -16 -18 -37
-44 -46 -59 -22 -35 -29 -35 -64 -2 -15 15 -40 31 -55 36 -26 9 -27 13 -22 51
11 72 43 116 109 150 39 21 38 21 55 -5z m-2960 -106 c0 -9 -12 -11 -49 -6
-62 8 -110 -14 -150 -68 -36 -49 -45 -37 -25 32 22 74 37 94 92 117 102 45 94
46 114 -11 9 -28 17 -57 18 -64z m3203 61 c25 -15 37 -32 55 -86 12 -38 20
-73 16 -78 -3 -6 -19 8 -35 29 -40 54 -88 76 -150 68 -27 -4 -49 -3 -49 1 0 4
7 33 17 64 l18 56 48 -18 c26 -10 62 -26 80 -36z m-2295 37 c11 -1 -155 -130
-169 -130 -5 0 5 27 22 59 16 33 29 64 29 70 0 7 67 8 118 1z m1342 -1 c0 -6
13 -37 29 -70 17 -32 27 -59 22 -59 -17 0 -174 124 -166 132 9 8 115 5 115 -3z
m-1850 -30 c0 -10 -7 -19 -15 -19 -15 0 -21 31 -9 43 11 10 24 -3 24 -24z
m2270 0 c0 -20 -15 -26 -25 -9 -9 15 3 43 15 35 5 -3 10 -15 10 -26z m-2917
-90 c-7 -23 -13 -65 -12 -93 3 -73 -9 -91 -65 -94 -26 -1 -55 -6 -66 -12 -35
-19 -53 -13 -46 17 15 59 153 211 202 223 1 0 -5 -19 -13 -41z m3611 -28 c84
-80 141 -181 101 -181 -9 0 -25 4 -35 10 -10 5 -39 11 -65 13 -27 1 -50 9 -55
17 -6 8 -10 43 -10 78 0 34 -7 78 -15 97 -14 35 -14 35 8 23 12 -6 44 -32 71
-57z m-3064 19 c-15 -11 -26 -15 -29 -8 -4 12 17 28 39 28 10 0 7 -7 -10 -20z
m2430 -22 c0 -5 7 -8 15 -8 8 0 15 -6 15 -12 1 -7 3 -31 6 -53 l6 -40 -37 35
c-44 42 -79 96 -70 109 6 10 65 -18 65 -31z m29 33 c7 -5 12 -13 10 -19 -3 -7
-14 -3 -29 8 -25 20 -10 29 19 11z m-2379 -9 c0 -19 -85 -122 -102 -122 -6 0
-6 17 1 83 1 4 8 7 16 7 8 0 15 4 15 8 0 10 38 30 58 31 6 1 12 -2 12 -7z
m-394 -10 c6 -4 14 -27 18 -52 4 -24 16 -59 28 -78 11 -18 19 -34 17 -36 -2
-1 -22 -16 -44 -32 -22 -16 -46 -35 -54 -42 -20 -19 -52 -8 -116 40 -40 30
-55 47 -55 65 0 32 53 109 88 127 29 16 99 21 118 8z m3184 -7 c36 -19 90 -95
90 -128 0 -18 -15 -35 -55 -65 -64 -48 -96 -59 -116 -40 -8 7 -32 26 -54 42
-22 16 -42 31 -44 32 -2 2 6 18 17 36 11 18 24 51 27 73 4 22 12 46 18 53 13
17 82 15 117 -3z m-2732 -37 c28 -17 51 -22 114 -22 73 0 77 -1 62 -17 -9 -10
-46 -37 -82 -62 -89 -59 -202 -95 -256 -81 -41 10 -27 42 49 119 36 35 65 69
65 75 0 15 8 13 48 -12z m2212 12 c0 -6 29 -40 65 -75 35 -36 67 -76 71 -89 5
-20 1 -25 -24 -31 -31 -6 -58 -2 -137 22 -50 16 -169 88 -199 122 -15 17 -12
18 63 18 62 0 86 4 112 21 39 24 49 26 49 12z m-2562 -77 c10 -17 9 -22 -5
-27 -9 -4 -17 -5 -18 -4 -13 15 -35 72 -35 88 0 20 2 19 24 -7 12 -15 28 -38
34 -50z m2906 5 c-9 -21 -22 -37 -28 -35 -21 7 -17 33 11 69 34 44 44 25 17
-34z m-174 33 c0 -3 20 -19 45 -34 40 -25 44 -32 39 -55 -10 -42 -13 -43 -55
-22 -42 22 -59 51 -59 100 0 22 4 28 15 24 8 -4 15 -9 15 -13z m-2570 -15 c0
-45 -19 -75 -59 -96 -42 -21 -45 -20 -55 22 -5 23 -1 30 39 55 25 15 45 31 45
36 0 4 7 7 15 7 9 0 15 -9 15 -24z m-140 -76 c0 -5 -4 -10 -10 -10 -5 0 -10 5
-10 10 0 6 5 10 10 10 6 0 10 -4 10 -10z m2840 1 c0 -6 -4 -13 -10 -16 -5 -3
-10 1 -10 9 0 9 5 16 10 16 6 0 10 -4 10 -9z m-2851 -40 l24 -18 -34 -11 c-19
-6 -52 -13 -73 -17 -43 -7 -41 -3 18 43 34 26 35 26 65 3z m2919 -12 c23 -17
42 -33 42 -35 0 -6 -66 5 -109 18 l-34 11 24 18 c31 24 28 24 77 -12z m-3302
13 c-3 -5 -25 -21 -50 -37 -26 -16 -46 -33 -46 -37 0 -16 -29 -7 -44 14 -19
27 -7 44 38 57 40 12 109 14 102 3z m3740 -17 c20 -13 23 -19 14 -36 -16 -28
-37 -34 -56 -14 -10 9 -34 28 -56 41 -21 13 -38 27 -38 31 0 12 112 -6 136
-22z m-3236 11 c0 -3 -4 -8 -10 -11 -5 -3 -10 -1 -10 4 0 6 5 11 10 11 6 0 10
-2 10 -4z m2620 -6 c0 -5 -2 -10 -4 -10 -3 0 -8 5 -11 10 -3 6 -1 10 4 10 6 0
11 -4 11 -10z m-3005 -36 c14 -9 25 -20 25 -25 0 -16 -61 -40 -93 -37 -36 3
-47 31 -27 69 9 17 18 20 41 15 16 -3 40 -13 54 -22z m3464 12 c7 -8 11 -27 9
-43 -2 -23 -9 -29 -33 -31 -33 -4 -98 25 -92 41 4 14 67 47 88 47 9 0 22 -6
28 -14z m-3111 -4 c9 -6 5 -19 -19 -51 -17 -24 -32 -41 -34 -39 -2 2 1 25 7
51 9 46 20 55 46 39z m2710 -39 c6 -26 9 -49 7 -51 -2 -2 -17 15 -34 39 -24
32 -28 45 -19 51 26 16 37 7 46 -39z m-3344 19 c3 -10 14 -24 25 -31 17 -13
18 -16 4 -50 -10 -24 -14 -54 -10 -93 l5 -57 -53 20 c-51 19 -56 19 -116 4
-35 -9 -74 -26 -88 -36 -83 -65 20 98 122 193 74 69 101 82 111 50z m154 -17
c-1 -33 -3 -35 -35 -35 -34 0 -42 12 -20 34 10 10 47 35 54 36 1 0 2 -16 1
-35z m3690 -18 c3 -13 -4 -17 -31 -17 -32 0 -34 2 -35 36 l-1 36 32 -19 c17
-11 33 -27 35 -36z m193 -8 c97 -86 214 -268 129 -201 -14 11 -53 27 -87 37
-59 17 -63 16 -115 -3 l-53 -20 0 78 c0 45 -5 83 -12 91 -10 12 -7 18 12 33
14 11 25 25 25 32 0 28 34 12 101 -47z m-3471 37 c0 -23 -22 -80 -42 -108 -21
-30 -87 -73 -129 -83 l-27 -7 2 86 c1 46 4 87 7 90 3 4 32 9 65 12 32 4 67 10
79 14 30 13 45 12 45 -4z m2842 5 c13 -5 50 -11 82 -15 33 -3 62 -8 65 -12 3
-3 7 -44 7 -91 l2 -85 -27 7 c-34 8 -102 48 -122 71 -18 21 -49 97 -49 119 0
17 9 19 42 6z m-3156 -95 c-33 -34 -36 -35 -46 -17 -16 31 -13 37 33 47 23 5
43 9 45 8 1 0 -13 -17 -32 -38z m93 -19 c0 -29 -3 -60 -7 -69 -7 -16 -10 -16
-48 1 -62 28 -63 38 -8 86 27 24 52 41 57 38 4 -2 7 -28 6 -56z m3348 -31 c-2
-6 -23 -21 -47 -34 -42 -21 -45 -21 -52 -5 -8 23 -10 118 -2 126 9 9 105 -74
101 -87z m43 61 c0 -5 -5 -17 -10 -28 -10 -18 -13 -17 -45 17 -19 20 -35 38
-35 39 0 1 20 -3 45 -9 25 -6 45 -14 45 -19z m-3604 9 c16 -2 32 -14 44 -34
l19 -31 -55 -53 c-30 -29 -50 -54 -44 -56 6 -2 33 17 61 43 l49 46 30 -21 c16
-11 43 -26 61 -32 28 -9 30 -14 25 -40 -13 -67 -28 -83 -78 -86 -97 -6 -183
66 -199 167 -9 61 11 115 41 106 11 -3 32 -8 46 -9z m3748 -18 c18 -42 7 -112
-23 -162 -50 -80 -199 -116 -228 -55 -7 15 -16 40 -19 57 -5 26 -3 31 25 40
18 6 45 21 61 32 l30 21 50 -47 c28 -26 54 -44 57 -40 4 4 -14 28 -40 52 -26
25 -47 50 -47 55 0 18 31 70 39 65 4 -3 21 -1 37 4 44 13 44 12 58 -22z
m-3423 -125 c-20 -38 -105 -102 -118 -90 -2 3 1 23 7 46 9 35 15 41 38 42 15
0 36 4 47 9 31 13 37 12 26 -7z m3081 0 c34 -5 39 -10 49 -45 6 -22 8 -42 6
-45 -13 -13 -98 53 -119 91 -9 16 -8 18 8 12 11 -5 36 -10 56 -13z m-3550 -40
c31 -36 28 -50 -22 -103 l-49 -52 -33 25 c-18 14 -52 31 -76 38 l-42 12 21 24
c31 32 117 73 154 73 18 0 39 -8 47 -17z m4084 -8 c28 -14 60 -36 73 -48 l21
-24 -42 -12 c-24 -7 -58 -24 -76 -38 l-32 -24 -50 52 c-28 29 -50 55 -50 59 0
4 9 19 21 34 27 34 69 34 135 1z m-4287 -14 c-7 -10 -21 -23 -31 -30 -17 -11
-18 -10 -8 8 8 16 35 39 48 41 1 0 -3 -8 -9 -19z m4401 -22 c10 -18 9 -19 -8
-8 -10 7 -24 21 -31 31 -11 17 -10 18 8 8 11 -6 25 -20 31 -31z m-3957 -65
l48 -5 -17 -27 c-56 -86 -169 -187 -232 -207 -22 -6 -22 -6 7 52 31 62 62 192
53 225 -4 18 -2 18 44 -6 27 -14 71 -28 97 -32z m3614 36 c-8 -30 28 -174 57
-231 l27 -51 -23 7 c-66 21 -238 180 -238 221 0 13 32 24 70 24 14 0 43 11 65
25 49 30 49 30 42 5z m-3797 -110 c-7 -38 -17 -67 -22 -64 -4 3 -8 -4 -8 -16
0 -14 -4 -19 -12 -14 -8 5 -9 2 -5 -10 5 -13 1 -19 -13 -23 -11 -3 -20 -10
-20 -15 0 -5 4 -6 10 -3 6 3 7 -1 4 -10 -4 -9 -13 -14 -21 -10 -11 3 -13 1
-10 -10 8 -20 -49 -30 -88 -15 l-30 12 51 24 c63 30 83 66 66 120 -9 30 -8 36
9 45 11 5 17 14 14 20 -4 5 1 9 10 9 9 0 25 16 37 37 21 35 22 35 31 14 7 -14
6 -44 -3 -91z m3869 75 c11 -19 27 -35 36 -35 9 0 14 -4 10 -9 -3 -6 3 -15 14
-20 17 -10 18 -15 8 -47 -9 -29 -8 -41 7 -69 17 -31 52 -55 81 -55 27 0 26
-20 -2 -31 -36 -14 -97 -3 -89 16 3 8 0 12 -7 9 -15 -5 -46 46 -39 65 3 8 0
11 -7 7 -7 -5 -11 1 -11 14 0 12 -4 19 -8 16 -12 -7 -35 119 -28 149 4 14 8
25 10 25 2 0 13 -16 25 -35z m-4068 -26 c46 -23 51 -46 12 -51 -45 -5 -132 49
-117 74 7 12 59 1 105 -23z m4347 22 c1 0 -2 -9 -7 -19 -23 -43 -141 -73 -141
-36 0 27 116 70 148 55z m-4537 -51 c-11 -22 -23 -65 -26 -95 -6 -44 -11 -56
-29 -61 -11 -4 -40 -19 -64 -35 -24 -16 -45 -29 -47 -29 -2 0 -7 20 -10 44
-13 86 68 188 175 219 23 7 23 2 1 -43z m4659 27 c50 -23 87 -58 114 -108 24
-42 27 -58 21 -95 -3 -24 -8 -44 -10 -44 -2 0 -23 13 -47 29 -24 16 -53 31
-64 35 -17 5 -23 17 -27 59 -4 29 -16 71 -27 94 -11 23 -20 44 -20 47 0 6 24
-1 60 -17z m-4527 -56 c16 -6 39 -11 53 -11 29 0 31 -15 4 -30 -11 -6 -20 -15
-20 -20 0 -9 -47 -60 -55 -60 -1 0 -17 21 -34 47 -30 46 -37 75 -25 108 6 14
9 14 28 -4 11 -11 34 -24 49 -30z m4437 -2 c0 -22 -52 -119 -64 -119 -9 0 -56
51 -56 60 0 5 -9 14 -20 20 -28 15 -25 30 5 30 33 0 86 22 104 44 17 21 31 5
31 -35z m-4539 -89 c3 -10 -3 -15 -16 -15 -23 0 -27 30 -11 85 l11 35 6 -45
c4 -25 9 -52 10 -60z m4595 10 c-1 -18 -7 -25 -21 -25 -13 0 -19 5 -16 15 2 8
6 35 9 60 l5 45 12 -35 c7 -19 11 -46 11 -60z m-4351 37 c6 -23 2 -33 -30 -62
-27 -26 -45 -35 -71 -35 -39 0 -40 0 -16 27 9 11 35 42 56 67 41 49 50 49 61
3z m4172 -52 l35 -40 -32 -3 c-22 -2 -41 4 -65 22 -41 31 -49 54 -34 92 l11
29 25 -30 c14 -16 41 -48 60 -70z m-4359 -47 c9 -9 6 -18 -15 -40 -15 -15 -31
-28 -35 -28 -11 0 -38 62 -32 72 8 12 69 9 82 -4z m4526 4 c6 -10 -21 -72 -32
-72 -4 0 -20 13 -35 28 -21 22 -24 31 -15 40 13 13 74 16 82 4z m-4624 -29 c6
-16 15 -38 22 -50 14 -27 -3 -53 -36 -53 -11 -1 -32 -7 -46 -15 -37 -21 -43
-19 -64 20 l-19 35 24 26 c22 24 84 63 102 64 4 0 12 -12 17 -27z m4693 11
c38 -19 87 -63 87 -78 0 -6 -10 -24 -23 -39 -22 -27 -23 -28 -52 -13 -17 9
-40 16 -51 16 -37 0 -49 25 -31 63 9 17 18 40 21 50 7 21 9 21 49 1z m-4541
-49 c3 -14 -3 -34 -16 -50 -21 -27 -22 -27 -45 -8 l-24 19 28 42 c30 45 48 44
57 -3z m4392 4 c29 -43 24 -69 -15 -69 -35 0 -53 65 -27 98 14 16 12 18 42
-29z m-4299 -46 c-25 -22 -71 -40 -80 -32 -2 3 -1 23 2 45 l5 41 50 -15 50
-16 -27 -23z m4230 -31 c-8 -8 -52 8 -80 30 l-28 22 49 16 49 17 7 -40 c4 -23
6 -43 3 -45z m-4586 -36 c6 -4 5 -21 -5 -49 -8 -23 -14 -58 -14 -77 3 -55 2
-55 -30 -25 -51 49 -58 127 -15 191 l17 26 18 -30 c10 -16 23 -33 29 -36z
m4935 26 c35 -70 25 -133 -28 -181 -28 -26 -29 -25 -26 29 0 19 -6 55 -14 79
-16 43 -16 44 9 63 14 11 25 26 25 34 0 21 17 8 34 -24z m-4759 18 c3 -5 1
-10 -4 -10 -6 0 -11 5 -11 10 0 6 2 10 4 10 3 0 8 -4 11 -10z m-75 -30 c0 -13
-28 -25 -38 -16 -3 4 0 11 8 16 20 13 30 12 30 0z m4690 0 c8 -5 11 -12 8 -16
-10 -9 -38 3 -38 16 0 12 10 13 30 0z m-4627 -7 c-7 -2 -19 -2 -25 0 -7 3 -2
5 12 5 14 0 19 -2 13 -5z m4560 0 c-7 -2 -19 -2 -25 0 -7 3 -2 5 12 5 14 0 19
-2 13 -5z m-4500 -52 c8 -31 -9 -46 -48 -43 -20 2 -35 -1 -35 -7 0 -6 9 -11
19 -11 64 0 -8 -53 -93 -69 -44 -8 -44 -8 -50 23 -15 73 0 126 35 126 l21 0
-21 -34 c-12 -18 -21 -44 -21 -57 0 -19 7 -12 33 31 29 48 39 56 78 66 49 12
74 5 82 -25z m4524 18 c11 -4 31 -26 44 -48 21 -39 39 -53 39 -32 0 6 -9 26
-21 45 l-21 36 21 0 c35 0 50 -52 35 -126 -6 -31 -6 -31 -50 -23 -85 16 -157
69 -93 69 10 0 19 5 19 11 0 8 -12 10 -35 6 -49 -8 -66 28 -33 70 10 12 49 9
95 -8z m-4547 -146 c-1 -60 -113 -99 -153 -55 -21 23 -13 32 27 32 17 0 49 9
71 19 51 25 55 25 55 4z m4542 -13 c26 -10 49 -16 52 -13 3 3 13 3 22 -1 15
-6 15 -8 -1 -26 -42 -47 -154 -8 -155 54 0 13 4 16 18 11 9 -4 38 -15 64 -25z"/>
<path d="M4145 2320 c-3 -5 1 -10 9 -10 9 0 16 5 16 10 0 6 -4 10 -9 10 -6 0
-13 -4 -16 -10z"/>
<path d="M6750 2320 c0 -5 7 -10 15 -10 8 0 15 5 15 10 0 6 -7 10 -15 10 -8 0
-15 -4 -15 -10z"/>
<path d="M7410 3108 c-22 -24 -19 -38 4 -19 24 20 59 8 83 -28 31 -47 29 -72
-12 -114 -96 -98 -190 -51 -140 70 9 21 21 41 28 45 6 4 8 10 4 14 -4 5 -16
-1 -27 -12 -24 -23 -48 -136 -31 -142 6 -2 9 -8 6 -12 -9 -14 38 -40 72 -40
35 0 95 32 127 68 39 44 9 154 -50 180 -34 16 -40 15 -64 -10z"/>
<path d="M7219 2833 c-9 -2 -25 -22 -37 -44 -25 -47 -26 -49 -12 -49 6 0 10 6
10 13 0 15 58 49 71 41 15 -9 10 -70 -6 -84 -8 -7 -15 -16 -15 -21 0 -16 19
-10 40 13 45 48 8 144 -51 131z"/>
<path d="M7160 2720 c0 -21 17 -46 25 -38 4 4 0 17 -9 30 -10 14 -16 17 -16 8z"/>
<path d="M4555 1311 c-55 -10 -77 -23 -176 -108 -116 -98 -140 -135 -145 -215
-2 -35 -8 -99 -13 -142 -5 -44 -8 -94 -6 -111 6 -62 35 -142 62 -170 79 -80
214 -132 318 -122 154 15 266 105 324 261 30 80 35 265 10 341 -42 127 -87
190 -166 232 -65 34 -141 46 -208 34z m60 -31 c3 -5 1 -10 -4 -10 -6 0 -11 5
-11 10 0 6 2 10 4 10 3 0 8 -4 11 -10z m45 6 c0 -11 -19 -15 -25 -6 -3 5 1 10
9 10 9 0 16 -2 16 -4z m154 -86 c32 -36 42 -50 33 -50 -1 0 -22 20 -46 45 -24
25 -39 45 -33 45 5 0 26 -18 46 -40z m-134 15 c-7 -8 -16 -15 -21 -15 -5 0 -9
7 -9 15 0 9 9 15 21 15 18 0 19 -2 9 -15z m60 -40 c-7 -9 -15 -13 -17 -11 -7
7 7 26 19 26 6 0 6 -6 -2 -15z m-120 -24 c0 -5 -7 -12 -16 -15 -24 -9 -28 -7
-14 9 14 17 30 20 30 6z m161 -60 c-30 -30 -35 -26 -14 9 10 17 21 26 26 21 5
-5 0 -18 -12 -30z m-231 -21 c0 -5 -4 -10 -10 -10 -5 0 -10 5 -10 10 0 6 5 10
10 10 6 0 10 -4 10 -10z m317 -62 c-3 -7 -5 -2 -5 12 0 14 2 19 5 13 2 -7 2
-19 0 -25z m-125 -100 c-7 -7 -12 -8 -12 -2 0 14 12 26 19 19 2 -3 -1 -11 -7
-17z m-442 -104 c0 -25 46 -97 93 -145 93 -97 280 -103 406 -15 52 37 84 87
105 167 10 36 15 45 15 27 2 -84 -67 -237 -130 -288 -74 -59 -123 -75 -229
-74 -82 0 -103 4 -152 28 -79 38 -141 100 -156 156 -20 78 -21 114 -5 169 l15
53 19 -28 c10 -16 19 -38 19 -50z m40 26 c0 -13 -1 -13 -10 0 -5 8 -10 22 -10
30 0 13 1 13 10 0 5 -8 10 -22 10 -30z m14 -76 c3 -8 2 -12 -4 -9 -6 3 -10 10
-10 16 0 14 7 11 14 -7z m110 -93 c-6 -6 -54 41 -66 64 -5 11 8 2 30 -20 22
-22 38 -42 36 -44z m296 45 c0 -3 -4 -8 -10 -11 -5 -3 -10 -1 -10 4 0 6 5 11
10 11 6 0 10 -2 10 -4z m-110 -46 c0 -5 -5 -10 -11 -10 -5 0 -7 5 -4 10 3 6 8
10 11 10 2 0 4 -4 4 -10z m-105 -20 c18 -8 17 -9 -7 -9 -16 -1 -28 4 -28 9 0
12 8 12 35 0z"/>
<path d="M6240 1311 c-54 -12 -139 -62 -165 -95 -31 -42 -70 -122 -86 -176
-20 -71 -14 -256 11 -331 53 -156 169 -251 325 -266 104 -10 239 42 318 122
51 52 74 184 55 310 -4 28 -10 78 -12 113 -3 48 -11 73 -32 103 -29 43 -204
196 -238 209 -34 12 -138 19 -176 11z m50 -25 c0 -11 -19 -15 -25 -6 -3 5 1
10 9 10 9 0 16 -2 16 -4z m-145 -64 c-11 -9 -32 -32 -47 -50 -16 -19 -28 -29
-28 -23 0 15 70 91 84 91 6 -1 2 -8 -9 -18z m125 -8 c0 -9 -5 -14 -12 -12 -18
6 -21 28 -4 28 9 0 16 -7 16 -16z m-75 -35 c11 -17 -1 -21 -15 -4 -8 9 -8 15
-2 15 6 0 14 -5 17 -11z m135 -34 c14 -16 10 -18 -14 -9 -9 3 -16 10 -16 15 0
14 16 11 30 -6z m200 -5 c0 -5 -2 -10 -4 -10 -3 0 -8 5 -11 10 -3 6 -1 10 4
10 6 0 11 -4 11 -10z m-365 -68 c-7 -8 -45 39 -39 49 4 7 14 -1 25 -17 10 -16
16 -30 14 -32z m225 -2 c0 -5 -4 -10 -10 -10 -5 0 -10 5 -10 10 0 6 5 10 10
10 6 0 10 -4 10 -10z m-333 -62 c-3 -7 -5 -2 -5 12 0 14 2 19 5 13 2 -7 2 -19
0 -25z m133 -106 c0 -15 -2 -15 -10 -2 -13 20 -13 33 0 25 6 -3 10 -14 10 -23z
m485 -67 c1 -5 5 -18 9 -28 11 -24 -7 -135 -30 -182 -20 -42 -98 -105 -164
-132 -68 -27 -210 -25 -272 4 -73 34 -123 79 -158 144 -33 63 -60 153 -59 197
0 18 5 9 15 -27 21 -80 53 -131 105 -167 127 -89 313 -82 406 15 46 47 93 120
93 144 0 10 8 32 17 48 15 26 18 27 27 11 6 -9 11 -21 11 -27z m-80 5 c-4 -12
-9 -19 -12 -17 -3 3 -2 15 2 27 4 12 9 19 12 17 3 -3 2 -15 -2 -27z m-24 -93
c-10 -9 -11 -8 -5 6 3 10 9 15 12 12 3 -3 0 -11 -7 -18z m-41 -12 c0 -9 -62
-75 -71 -75 -5 0 8 18 28 40 38 40 43 44 43 35z m-350 -35 c0 -5 -2 -10 -4
-10 -3 0 -8 5 -11 10 -3 6 -1 10 4 10 6 0 11 -4 11 -10z m105 -40 c3 -5 1 -10
-4 -10 -6 0 -11 5 -11 10 0 6 2 10 4 10 3 0 8 -4 11 -10z m125 -20 c0 -5 -10
-10 -22 -10 -19 0 -20 2 -8 10 19 13 30 13 30 0z"/>
<path d="M5377 458 c-58 -16 -159 -115 -199 -195 -49 -100 -32 -111 124 -82
81 15 235 15 316 0 157 -29 176 -16 124 84 -45 86 -142 178 -205 194 -54 13
-107 13 -160 -1z m153 -34 c34 -6 68 -28 120 -76 23 -21 93 -148 86 -156 -2
-1 -34 2 -72 9 -38 6 -89 15 -114 19 -54 9 -185 5 -237 -8 -21 -6 -57 -13 -81
-16 -42 -6 -42 -6 -36 21 12 49 64 127 110 163 46 36 121 61 164 54 14 -2 41
-7 60 -10z"/>
</g>
</svg>
