<svg width="804" height="326" viewBox="0 0 804 326" fill="none" xmlns="http://www.w3.org/2000/svg">
<path d="M60 173C62.639 175.639 62.7447 177.707 63.5664 181.348C66.0882 191.562 70.577 200.902 74.9375 210.438C84.7232 231.887 94.7961 253.985 88 278C84.2423 287.671 78.5552 295.552 69 300C64.7109 301.507 60.385 302.803 56 304C56.9965 307.455 57.8117 309.951 60.5352 312.355C66.6743 315.736 73.2004 315.263 79.9961 314.853C85.2981 314.623 88.6422 315.413 93.2654 318.029C95.2913 319.163 97.235 319.765 99.5 320.25C101.232 320.621 101.232 320.621 103 321C102.67 321.66 102.34 322.32 102 323C97.5132 323.24 94.2454 323.287 90.125 321.438C86.0778 319.756 83.0726 320.064 78.793 320.668C72.2695 321.443 65.3719 321.715 59 320C52.8636 319.41 48.5953 320.253 43 323C41.6119 323.581 40.2158 324.144 38.8125 324.688C38.1796 324.939 37.5466 325.19 36.8945 325.449C35 326 35 326 31 326C31 325.34 31 324.68 31 324C33.475 323.01 33.475 323.01 36 322C24.12 322 12.24 322 0 322C6.19642 315.804 15.7522 316.659 24.0703 316.434C32.7591 316.215 32.7591 316.215 40 312C40.4581 310.028 40.4581 310.028 40.625 307.875C40.8106 305.957 40.8106 305.957 41 304C40.1544 303.588 39.3087 303.175 38.4375 302.75C26.7386 296.794 17.7747 289.385 13.1523 276.668C8.68486 258.828 15.8429 238.301 24.7773 222.945C30.3731 214.317 36.8914 206.339 43.3384 198.339C49.8016 190.301 55.1273 182.078 60 173ZM59 195C58.6603 197.499 58.3281 199.999 58 202.5C57.9046 203.196 57.8092 203.892 57.7109 204.609C57.0838 209.447 56.9121 214.122 57 219C58.3161 218.047 59.6278 217.087 60.9375 216.125C62.0338 215.324 62.0338 215.324 63.1523 214.508C65.111 213.12 65.111 213.12 66 211C65.0728 208.205 65.0728 208.205 63.6875 205.125C63.2376 204.076 62.7877 203.026 62.3242 201.945C61.2684 199.597 60.1776 197.289 59 195ZM53 199C51.7778 200.641 50.5969 202.314 49.4375 204C48.7968 204.928 48.1562 205.856 47.4961 206.812C47.0024 207.534 46.5087 208.256 46 209C47.32 211.64 48.64 214.28 50 217C50.66 217 51.32 217 52 217C52.66 211.06 53.32 205.12 54 199C53.67 199 53.34 199 53 199ZM42 213C40.4518 214.58 40.4518 214.58 39.1875 216.688C38.7273 217.372 38.2671 218.056 37.793 218.762C36.7729 220.981 36.7729 220.981 37.5742 223.25C39.511 226.986 41.536 230.66 43.625 234.312C44.0452 235.053 44.4655 235.794 44.8984 236.557C45.9295 238.373 46.9644 240.187 48 242C51.4885 238.512 51.0618 232.983 51.2461 228.223C51.1691 222.238 48.4666 217.743 45 213C44.01 213 43.02 213 42 213ZM58.1562 221.711C54.2352 227.692 55.2334 234.134 56 241C56.4357 240.625 56.8714 240.25 57.3203 239.863C57.9159 239.352 58.5114 238.84 59.125 238.312C59.7618 237.765 60.3986 237.217 61.0547 236.652C62.7661 235.199 64.5023 233.785 66.25 232.375C67.1575 231.591 68.065 230.808 69 230C69.6806 229.423 70.3612 228.845 71.0625 228.25C72.4894 224.825 71.1327 222.385 69.8594 219.023C69.2818 217.664 68.6607 216.321 68 215C63.849 215 60.9255 218.95 58.1562 221.711ZM34 226C31.3808 229.848 29.3158 233.518 28 238C28.898 242.375 31.3798 245.445 34 249C34.9626 250.412 35.9192 251.827 36.8711 253.246C39.534 257.198 42.2538 261.105 45 265C48.0564 259.584 48.6955 254.139 48 248C45.834 242.249 42.3851 237.096 39 232C38.6176 231.404 38.2353 230.809 37.8413 230.195C36.9235 228.777 35.9658 227.385 35 226C34.67 226 34.34 226 34 226ZM73 230C72.329 230.688 72.329 230.688 71.6445 231.391C68.8725 234.204 66.171 236.865 63.0625 239.312C62.3819 239.869 61.7013 240.426 61 241C61 241.66 61 242.32 61 243C60.34 243 59.68 243 59 243C54.4643 249.237 54.553 254.438 55 262C59.9486 260.472 63.1956 257.549 67 254.188C67.6033 253.666 68.2066 253.145 68.8281 252.607C72.3608 249.532 75.7286 246.352 79 243C78.3842 241.018 77.7571 239.039 77.125 237.062C76.777 235.96 76.4289 234.858 76.0703 233.723C75.2998 230.871 75.2998 230.871 73 230ZM26 244C23.378 254.433 23.378 254.433 24 265C25.8682 267.769 27.956 269.955 30.3359 272.297C33.8789 275.892 36.802 279.846 39.812 283.886C40.8546 285.273 41.9246 286.639 43 288C43.33 288 43.66 288 44 288C45.7081 279.195 46.3777 272.088 41.489 264.228C39.5351 261.386 37.5227 258.604 35.4229 255.868C33.4649 253.297 31.6792 250.617 29.875 247.938C28.9471 246.603 28.0006 245.281 27 244C26.67 244 26.34 244 26 244ZM68.772 256.619C67.1123 257.912 65.439 259.186 63.7617 260.457C62.7885 261.214 61.8152 261.97 60.8125 262.75C59.4919 263.763 59.4919 263.763 58.1445 264.797C54.9448 268.084 54.0715 271.356 53.875 275.875C53.9163 276.576 53.9575 277.277 54 278C57.6143 276.656 60.776 275.034 64.0469 272.996C64.9737 272.421 65.9005 271.845 66.8555 271.252C68.2883 270.354 68.2883 270.354 69.75 269.438C71.206 268.534 71.206 268.534 72.6914 267.611C77.072 265.104 77.072 265.104 81 262C81.0727 259.647 81.0837 257.292 81.0625 254.938C81.0535 253.647 81.0445 252.357 81.0352 251.027C81.0236 250.028 81.012 249.029 81 248C77.4862 248 71.5738 254.421 68.772 256.619ZM75.3672 268.977C74.6466 269.397 73.926 269.817 73.1836 270.25C70.1167 272.077 67.0564 273.913 64.0107 275.774C62.3943 276.76 60.7654 277.725 59.1328 278.684C56.0982 280.646 54.3434 281.819 53.3125 285.363C53.0325 287.614 52.9195 289.736 53 292C57.7371 290.245 62.155 287.959 66.625 285.625C67.3881 285.238 68.1513 284.852 68.9375 284.453C73.9475 281.834 76.9354 279.891 78.9492 274.422C79.1929 273.54 79.4365 272.658 79.6875 271.75C79.9389 270.858 80.1902 269.966 80.4492 269.047C80.631 268.371 80.8127 267.696 81 267C78.5239 267 77.4979 267.73 75.3672 268.977ZM24 271C24.8522 279.693 28.5299 284.439 35 290C37.2836 291.516 39.552 292.751 42 294C40.4141 288.724 37.0127 284.979 33.5625 280.812C32.9766 280.089 32.3907 279.365 31.7871 278.619C29.2876 275.569 27.3102 273.207 24 271ZM62.875 290.5C61.2314 291.475 61.2314 291.475 59.5547 292.469C58.7116 292.974 57.8686 293.479 57 294C59.9495 295.366 59.9495 295.366 62.4453 293.855C63.7718 293.03 63.7718 293.03 65.125 292.188C66.0145 291.645 66.9039 291.102 67.8203 290.543C70.1051 289.183 70.1051 289.183 71 287C67.7842 287 65.6001 288.877 62.875 290.5Z" fill="black"/>
<path d="M149 45C158.067 46.5571 166.859 49.0844 175.688 51.625C176.845 51.9578 176.845 51.9578 178.026 52.2973C231.327 67.6766 231.327 67.6766 243.461 86.2344C246.102 91.2164 247.227 95.5144 246.641 101.074C245.641 109.199 245.641 109.199 248.126 116.699C251.124 119.716 254.661 121.882 258.324 124.003C260.678 125.403 262.794 127.051 264.938 128.75C265.636 129.293 266.335 129.835 267.055 130.395C269.91 132.751 272.45 135.319 275 138C278.543 136.819 278.735 136.166 280.562 133.062C287.478 122.349 297.249 114.046 309.113 109.32C317.364 106.165 317.364 106.165 322.664 99.543C323.265 96.9642 323.791 94.3669 324.242 91.7578C326.17 82.1968 333.13 74.4283 341 69C343.535 67.4828 346.12 66.0949 348.75 64.75C349.369 64.4326 349.987 64.1153 350.625 63.7883C361.313 58.6225 372.722 56.2646 384.375 54.4375C385.672 54.2277 386.969 54.0179 388.305 53.8018C399.838 51.9519 411.406 50.4074 423 49C425.667 48.6684 428.333 48.3341 431 48C418.181 77.0179 400.882 107.387 370.25 120C359.609 123.723 349.771 124.094 339.367 119.34C336.935 118.128 334.554 116.856 332.164 115.559C327.375 113.118 327.375 113.118 322.181 113.49C320.016 114.269 317.92 115.141 315.812 116.062C315.057 116.386 314.302 116.71 313.524 117.043C302.246 121.974 292.633 127.216 287.562 139C282.869 154.421 286.863 173.154 288.25 188.875C288.656 193.547 289.06 198.219 289.462 202.891C289.579 204.246 289.696 205.602 289.813 206.957C290.642 216.534 291.394 226.115 292.082 235.703C292.25 237.995 292.418 240.287 292.587 242.579C292.825 245.819 293.058 249.06 293.274 252.302C293.472 255.267 293.689 258.231 293.91 261.195C293.961 262.047 294.012 262.899 294.065 263.776C294.591 270.443 295.884 278.087 300.954 282.826C303.212 284.447 305.537 285.712 308 287C309.355 287.839 309.355 287.839 310.738 288.695C318.778 293.179 325.423 293.532 334.489 292.955C341.6 292.586 346.494 294.029 351.969 298.668C352.474 299.169 352.979 299.671 353.5 300.188C357.949 303.749 362.811 303.668 368.277 303.598C373.174 303.606 375.512 304.573 379 308C378.67 308.66 378.34 309.32 378 310C377.67 309.526 377.34 309.051 377 308.562C373.419 305.765 368.845 305.887 364.453 306.156C358.77 306.485 355.399 305.945 350.438 303.062C342.693 298.715 334.665 299.019 326 299C331.861 306.76 338.789 307.584 348 309C348 309.33 348 309.66 348 310C339.208 310.402 332.564 309.475 324.559 305.914C321.873 304.954 319.838 304.802 317 304.75C312.158 304.417 308.708 303.104 304.375 300.938C299.036 298.303 294.923 296.801 289 298C284.315 299.757 280.285 302.705 276.18 305.539C274 307 274 307 270.625 308.812C267.288 311.594 266.968 313.937 265.84 318.008C265 320 265 320 262.062 321.5C261.052 321.665 260.041 321.83 259 322C256.813 322.379 256.813 322.379 255 323C254.34 323.99 253.68 324.98 253 326C253 324.35 253 322.7 253 321C255.64 320.01 258.28 319.02 261 318C260.783 316.02 260.783 316.02 260.562 314C260.522 309.702 261.52 307.87 264.438 304.75C265.076 304.147 265.714 303.543 266.371 302.922C268.307 300.638 268.641 298.936 269 296C265.489 294.794 264.104 294.959 260.59 296.363C259.365 296.999 258.148 297.649 256.938 298.312C256.02 298.795 256.02 298.795 255.084 299.287C253.384 300.182 251.692 301.091 250 302C248.67 302.673 247.338 303.343 246 304C246.66 301.69 247.32 299.38 248 297C244.122 295.175 241.269 294.343 237 295C232.166 297.443 228.294 300.387 225 304.688C221.682 308.794 218.118 310.056 213 311C210.96 311.173 208.918 311.317 206.875 311.438C201.488 311.754 198.389 312.908 194 316C195.474 312.114 197.321 310.834 201 309C204.506 308.381 207.984 308.058 211.527 307.723C219.763 306.009 223.173 300.348 227.656 293.777C230.661 290.217 233.592 288.353 238.238 287.672C238.923 287.698 239.607 287.723 240.312 287.75C241.082 287.772 241.852 287.794 242.645 287.816C244.958 287.997 247.208 288.331 249.5 288.688C254.524 289.331 258.39 287.87 263 286C263.99 285.67 264.98 285.34 266 285C267.087 282.786 267.087 282.786 268 280C268.485 278.949 268.969 277.899 269.469 276.816C271.108 272.997 271.899 269.161 272.5 265.062C272.62 264.262 272.741 263.462 272.865 262.638C282.585 200.453 282.585 200.453 266 142C260.226 134.392 250.731 127.821 241.922 124.129C239.118 123.941 237.095 124.841 234.5 125.875C223.663 130.132 211.473 131.005 200.574 126.312C185.99 118.877 175.644 108.477 168 94C167.653 93.3463 167.305 92.6926 166.947 92.019C161.547 81.6678 157.348 70.92 153.438 59.9375C153.214 59.3088 152.99 58.6802 152.759 58.0324C149 47.4238 149 47.4238 149 45ZM164 56C167.678 60.5262 171.411 64.3942 176 68C176.097 63.8574 176.097 63.8574 175 60C171.767 57.7016 168.012 56 164 56ZM405.062 59.3125C403.734 61.0908 403.734 61.0908 404 64C407.995 62.6303 410.8 60.7428 414 58C409.277 57.5736 409.277 57.5736 405.062 59.3125ZM391 62C388.484 65.7998 386 70.3454 386 75C389.564 73.6855 392.597 72.1159 395.75 70C396.529 69.4844 397.307 68.9688 398.109 68.4375C400.12 67.1285 400.12 67.1285 401 65C401.04 63.0004 401.043 60.9995 401 59C397.383 59 394.057 60.1526 391 62ZM179 61C178.512 65.8752 178.375 69.0154 181.062 73.25C184.029 76.3022 187.469 78.6458 191 81C190.858 78.9164 190.712 76.8331 190.562 74.75C190.481 73.5898 190.4 72.4297 190.316 71.2344C190.012 67.5272 190.012 67.5272 189 64C185.504 62.1872 182.96 61 179 61ZM163 63C164.764 68.875 164.764 68.875 168 74C171.126 74.4175 171.126 74.4175 174 74C170.619 69.8638 167.334 66.1868 163 63ZM379.5 62.75C378.34 62.9588 378.34 62.9588 377.156 63.1719C374.238 64.2926 373.512 65.2468 372 68C371.092 70.8809 370.442 73.7972 369.812 76.75C369.635 77.5428 369.458 78.3355 369.275 79.1523C368.841 81.0996 368.419 83.0496 368 85C374.809 82.6522 379.922 80.1841 383.347 73.7173C386.096 68.1092 386.096 68.1092 387 62C384.335 62 382.104 62.2466 379.5 62.75ZM192 65C193.52 77.859 193.52 77.859 201 88C201.66 87.67 202.32 87.34 203 87C202.913 84.061 202.806 81.1252 202.688 78.1875C202.665 77.3541 202.642 76.5207 202.619 75.6621C202.584 74.8597 202.548 74.0572 202.512 73.2305C202.486 72.4921 202.459 71.7537 202.432 70.9929C201.881 68.4498 201.066 67.555 199 66C195.39 65.2696 195.39 65.2696 192 65ZM358 71C355.85 74.4306 354.426 78.0332 353 81.8125C352.607 82.7915 352.214 83.7706 351.809 84.7793C350.849 87.1781 349.914 89.5836 349 92C354.74 91.0305 359.595 90.0561 364 86C365.374 83.236 366.138 80.4267 366.875 77.4375C367.192 76.286 367.192 76.286 367.516 75.1113C368.349 72.0087 369 69.2241 369 66C364.38 66 361.399 67.943 358 71ZM405.438 69.375C404.446 70.0015 403.455 70.628 402.434 71.2734C399.918 72.7708 399.918 72.7708 399 75C401.906 76.2566 403.796 77 407 77C408.699 75.0768 408.699 75.0768 410.188 72.625C410.717 71.8129 411.247 71.0008 411.793 70.1641C413.162 68.1219 413.162 68.1219 413 66C409.898 66 408.021 67.7248 405.438 69.375ZM205 69C205.052 72.4179 205.147 75.8333 205.25 79.25C205.264 80.2181 205.278 81.1862 205.293 82.1836C205.412 87.6945 205.412 87.6945 207.734 92.5469C210.093 94.0595 212.344 95.1146 215 96C215.06 91.3319 215.049 86.6682 215 82C215.008 81.0783 215.015 80.1566 215.023 79.207C215.004 76.589 215.004 76.589 214 73C211.426 70.6268 208.596 69 205 69ZM352 72C342.307 77.253 339.07 85.921 336 96C336.33 96.66 336.66 97.32 337 98C341.031 96.9786 343.193 96.2301 345.515 92.6899C346.933 89.7669 348.209 86.82 349.438 83.8125C349.883 82.7767 350.328 81.741 350.787 80.6738C351.88 78.1242 352.95 75.5673 354 73C353.34 72.67 352.68 72.34 352 72ZM218 76C217.906 79.6894 217.913 83.3721 217.938 87.0625C217.91 88.1008 217.882 89.1392 217.854 90.209C217.94 96.2685 217.94 96.2685 221.004 101.308C225.056 104.759 225.056 104.759 230 106C230.869 92.6261 230.869 92.6261 226.156 80.6875C222.575 77.2109 222.575 77.2109 218 76ZM169 77C170.732 82.9054 170.732 82.9054 174 88C176.911 88.6334 179.726 88.4704 182.688 88.3125C183.485 88.2899 184.282 88.2674 185.104 88.2441C187.07 88.1853 189.035 88.0956 191 88C189.879 87.126 189.879 87.126 188.734 86.2344C186.412 84.3368 184.365 82.3653 182.25 80.25C179.129 77.4566 177.205 76.5427 173 76.5625C171.663 76.6731 170.327 76.8064 169 77ZM389.812 79.375C389.097 79.8159 388.382 80.2567 387.645 80.7109C387.102 81.1363 386.559 81.5617 386 82C386 82.66 386 83.32 386 84C394.005 86.1192 394.005 86.1192 402 85C403.917 82.5569 403.917 82.5569 405 80C403.732 79.4938 402.46 78.9953 401.188 78.5C400.48 78.2216 399.772 77.9431 399.043 77.6562C395.112 76.3934 393.149 77.2723 389.812 79.375ZM338 81C333.559 86.907 331.162 91.6789 330 99C333.163 96.3419 334.541 93.149 336.25 89.4375C336.791 88.2812 337.333 87.1249 337.891 85.9336C338.257 84.9655 338.623 83.9974 339 83C338.67 82.34 338.34 81.68 338 81ZM232 86C232.283 89.0636 232.576 92.1255 232.875 95.1875C232.954 96.0518 233.032 96.9161 233.113 97.8066C233.677 104.144 233.677 104.144 236 110C236.99 110.33 237.98 110.66 239 111C239.866 101.058 238.16 94.5226 233 86C232.67 86 232.34 86 232 86ZM374 89C374 89.66 374 90.32 374 91C383.858 94.8588 383.858 94.8588 394 94C396.462 92.2078 396.462 92.2078 398 90C398 89.34 398 88.68 398 88C385.518 84.4933 385.518 84.4933 374 89ZM177 92C177.557 93.0725 178.114 94.145 178.688 95.25C179.001 95.8533 179.314 96.4566 179.637 97.0781C181.583 99.8226 183.055 101.282 186 103C189.475 103.338 192.842 103.059 196.312 102.75C197.244 102.684 198.175 102.619 199.135 102.551C201.425 102.386 203.713 102.202 206 102C204.797 98.39 203.756 97.8917 200.625 95.875C199.834 95.3568 199.042 94.8386 198.227 94.3047C193.812 91.7182 189.77 91.8812 184.812 91.9375C183.688 91.9443 183.688 91.9443 182.541 91.9512C180.694 91.9629 178.847 91.9809 177 92ZM362.75 95.5C361.858 95.9641 360.966 96.4281 360.047 96.9062C359.371 97.2672 358.696 97.6281 358 98C361.62 100.036 365.454 101.109 369.438 102.188C370.093 102.378 370.748 102.568 371.424 102.764C375.286 103.814 378.229 104.492 382 103C384.792 100.542 384.792 100.542 387 98C384.586 97.1592 382.169 96.3272 379.75 95.5C378.727 95.1423 378.727 95.1423 377.684 94.7773C371.704 92.7454 368.329 92.5634 362.75 95.5ZM345.5 103C344.83 103.371 344.159 103.743 343.469 104.125C342.984 104.414 342.499 104.702 342 105C349.708 110.139 359.833 112.31 369 111C372.129 109.851 372.129 109.851 374 108C374 107.34 374 106.68 374 106C371.504 105.152 369.005 104.322 366.5 103.5C365.804 103.262 365.108 103.023 364.391 102.777C357.99 100.703 351.655 99.4826 345.5 103ZM198.75 106C197.632 106.143 197.632 106.143 196.492 106.289C194.661 106.524 192.831 106.762 191 107C197.26 113.365 200.854 116.235 209.875 116.312C215.299 116.156 220.627 115.741 226 115C223.407 112.084 220.41 110.286 217.062 108.312C216.022 107.69 214.982 107.067 213.91 106.426C208.991 104.016 204.008 105.312 198.75 106ZM336 108C339.695 112.286 343.811 114.761 349.453 115.184C351.644 115.187 353.813 115.134 356 115C356.33 114.34 356.66 113.68 357 113C354.44 112.158 351.878 111.326 349.312 110.5C348.591 110.262 347.87 110.023 347.127 109.777C343.306 108.556 340.066 107.679 336 108ZM214.5 119C213.409 119.143 213.409 119.143 212.297 119.289C210.531 119.521 208.765 119.76 207 120C211.769 123.179 216.389 123.469 222 122.461C224.739 121.755 227.378 121.063 230 120C230.33 119.34 230.66 118.68 231 118C225.393 117.899 220.052 118.239 214.5 119Z" fill="black"/>
<path d="M520 0C520.66 0.66 521.32 1.32 522 2C522.462 2.4581 522.924 2.9162 523.4 3.38818C524.52 4.51679 525.624 5.66189 526.716 6.81885C531.502 11.8086 536.52 15.6328 542.312 19.375C554.949 27.8016 566.402 36.1296 570.496 51.4297C572.06 59.4044 570.938 66.465 568 74C567.67 74.33 567.34 74.66 567 75C567.28 80.7507 569.148 84.4006 572.562 88.875C573.017 89.485 573.472 90.0951 573.94 90.7236C575.276 92.4965 576.634 94.2501 578 96C578.643 96.843 579.286 97.6861 579.949 98.5547C588.035 108.412 599.187 114.672 610.228 120.671C619.313 125.699 626.902 132.466 634 140C636.952 138.689 638.759 137.357 640.875 134.938C652.718 122.764 668.715 116.381 685.438 115.625C694.813 115.062 702.012 113.078 708.465 106C711.747 101.724 715.409 96.4785 716 91C715.064 88.6273 715.064 88.6273 713.625 86.25C709.263 77.927 709.431 71.0228 712 62C717.167 48.7917 729.533 41.1676 740.574 33.2344C745.325 29.805 749.958 26.2662 754 22C760.31 39.578 760.617 62.4989 754 80C749.523 87.5262 744.009 92.8816 735.566 95.4922C733 96 733 96 730.917 96.0154C726.207 96.1354 726.207 96.1354 722.292 98.5137C720.752 100.547 719.424 102.617 718.125 104.812C717.211 106.257 716.297 107.701 715.383 109.145C714.766 110.161 714.766 110.161 714.138 111.198C713 113 713 113 711.117 115.324C710.749 115.877 710.38 116.43 710 117C710.675 120.066 710.675 120.066 712.87 121.211C713.671 121.595 714.472 121.979 715.297 122.375C716.173 122.803 717.05 123.231 717.953 123.672C719.338 124.329 719.338 124.329 720.75 125C722.558 125.873 724.365 126.748 726.172 127.625C727.02 128.033 727.868 128.442 728.742 128.862C731 130 731 130 733.922 131.828C737.646 133.928 741.41 132.376 745.375 131.438C755.18 129.803 765.246 131.671 773.594 137.238C777.103 139.873 779.457 142.872 781.875 146.5C782.296 147.108 782.716 147.716 783.15 148.343C784.446 150.22 785.725 152.108 787 154C792.243 161.76 797.536 169.184 804 176C794.246 182.503 773.368 179.848 762.062 177.875C752.222 175.603 741.994 171.566 736 163C733.699 158.496 732.739 155.12 732.486 150C732.159 143.543 732.159 143.543 729.402 137.84C727.007 136.161 724.716 135.092 722 134C720.808 133.471 719.615 132.943 718.387 132.398C702.399 125.532 684.483 122.596 667.699 128.742C659.163 132.72 653.072 139.096 649.188 147.688C646.467 155.276 646.551 161.914 648.438 169.75C651.701 184.299 651.188 198.312 649.717 213.047C644.977 251.228 644.977 251.228 656.812 286.438C659.14 288.1 661.495 289.059 664.152 290.086C666.258 291.127 667.668 292.392 669.375 294C672.655 297 675.662 298.034 679.895 299.211C682 300 682 300 684.75 302.688C688.536 305.381 689.572 305.174 694.062 304.938C700.848 304.62 705.037 306.589 710.973 309.676C715.22 311.534 718.431 311.225 723 311C723.99 312.485 723.99 312.485 725 314C712.383 314.519 712.383 314.519 708.25 312.5C704.018 310.515 699.993 311.003 695.438 311.188C687.782 311.446 687.782 311.446 684.801 309.746C683.775 308.674 682.773 307.579 681.797 306.461C678.468 303.755 674.231 303.831 670.086 303.371C667.566 303.068 665.502 302.635 663.125 301.812C659.429 300.852 656.711 301.243 653 302C653.972 304.423 654.559 305.739 656.84 307.09C657.878 307.509 657.878 307.509 658.938 307.938C663.508 310.045 665.07 312.497 666.812 317.188C667.938 319.32 667.938 319.32 670.938 319.938C674 321 674 321 675.875 323.625C676.246 324.409 676.618 325.192 677 326C676.34 326 675.68 326 675 326C674.01 324.515 674.01 324.515 673 323C671.742 322.917 670.484 322.835 669.188 322.75C666.988 322.574 666.988 322.574 665 322C663.855 320.457 663.855 320.457 662.875 318.562C661.804 316.547 661.804 316.547 660 315C656.468 314.226 652.996 313.925 649.398 313.586C644.623 312.763 641.988 310.715 639 307C638.01 305.515 638.01 305.515 637 304C633.638 304.608 631.655 305.817 629 307.938C625.094 311.042 621.901 313.137 616.848 313.527C616.071 313.598 615.294 313.668 614.494 313.74C612.877 313.871 611.26 313.999 609.643 314.123C603.946 314.647 600.516 315.934 596.035 319.613C593.513 321.332 591.44 321.71 588.438 322.188C587.012 322.425 587.012 322.425 585.559 322.668C583 323 583 323 580 323C582.553 320.652 583.782 320.016 587.312 319.75C591.897 318.818 593.129 317.059 596.18 313.715C599.058 311.003 602.257 310.061 606 309C608.014 308.377 610.02 307.724 612 307C612.33 306.34 612.66 305.68 613 305C604.562 302.937 604.562 302.937 596 303C594.153 304.371 592.532 305.899 590.848 307.465C584.227 312.965 575.896 312.245 567.77 312.008C564.361 312.001 561.332 312.326 558 313C558.66 312.01 559.32 311.02 560 310C562.738 309.718 565.321 309.59 568.062 309.562C574.711 309.313 580.422 308.99 586 305C587.035 303.642 588.043 302.263 589.027 300.867C591.182 298.344 592.331 297.156 595.59 296.398C598.574 296.321 601.463 296.448 604.438 296.688C611.769 297.137 617.341 297.387 624 294C631.135 286.391 630.36 271.731 630.812 262.125C631.391 250.985 632.594 240.066 634.276 229.041C637.932 205.027 642.138 174.987 629 153C616.772 137.039 601.232 128.804 581.527 125.598C573.294 124.538 565.195 124.786 557 126C556.865 126.762 556.729 127.524 556.59 128.309C554.656 137.586 551.193 144.342 543.312 149.875C524.599 160.099 500.925 154.854 481.265 150.686C479 150 479 150 477 148C477.788 147.368 478.575 146.737 479.387 146.086C489.049 138.2 497.782 129.532 505.582 119.785C511.394 113.091 519.235 109.639 528 109C534.728 108.771 539.636 109.573 545.43 113.07C552.767 116.87 559.174 116.492 567.25 115.875C568.592 115.796 569.935 115.721 571.277 115.648C574.521 115.462 577.76 115.245 581 115C580.147 110.735 577.897 108.238 575.062 105.062C572 101.61 569.064 98.2239 566.574 94.3281C562.277 87.5888 562.277 87.5888 555.355 83.8828C552.766 83.5885 550.166 83.3721 547.562 83.2383C542.716 82.9141 539.168 81.3794 535 79C533.453 78.1338 533.453 78.1338 531.875 77.25C521.45 69.0913 516.86 58.9267 515 46C513.605 31.0398 515.806 15.6098 519 1C519.33 0.67 519.66 0.34 520 0ZM528 18C528.99 20.97 529.98 23.94 531 27C531.66 27 532.32 27 533 27C533.33 25.35 533.66 23.7 534 22C532.02 20.68 530.04 19.36 528 18ZM523 23C523 24.98 523 26.96 523 29C524.32 29.33 525.64 29.66 527 30C526.398 27.9795 525.727 25.9789 525 24C524.34 23.67 523.68 23.34 523 23ZM537 25C535.069 29.5113 535.069 29.5113 535.688 34.2109C537.566 38.3285 537.566 38.3285 541 41C541.33 36.71 541.66 32.42 542 28C540.35 27.01 538.7 26.02 537 25ZM545 31C543.154 41.7116 543.154 41.7116 546.438 51.5C547.283 52.325 548.129 53.15 549 54C552.046 48.8176 552.322 42.9007 552 37C550.682 34.0767 549.547 33.0735 547 31C546.34 31 545.68 31 545 31ZM523 33C521.547 35.3947 521.547 35.3947 523 40C526.3 40.66 529.6 41.32 533 42C532.44 39.0636 532.44 39.0636 531 36C527.265 33.6455 527.265 33.6455 523 33ZM744 38C740.574 41.1754 740.574 41.1754 738 45C738.33 45.99 738.66 46.98 739 48C739.66 48 740.32 48 741 48C741.697 46.7135 742.382 45.4206 743.062 44.125C743.445 43.4057 743.828 42.6864 744.223 41.9453C744.607 40.9824 744.607 40.9824 745 40C744.67 39.34 744.34 38.68 744 38ZM555 41C554.229 45.9155 553.839 50.7748 553.688 55.75C553.65 56.838 553.613 57.9259 553.574 59.0469C554.092 62.6355 555.236 63.7536 558 66C560.705 60.9855 562.79 56.7443 561.691 50.9961C560.416 47.315 558.404 44.0543 556 41C555.67 41 555.34 41 555 41ZM749 41C748.34 42.32 747.68 43.64 747 45C747.99 44.67 748.98 44.34 750 44C749.67 43.01 749.34 42.02 749 41ZM523 44C523.33 46.31 523.66 48.62 524 51C526.622 51.8632 529.247 52.7158 531.875 53.5625C532.621 53.8094 533.368 54.0562 534.137 54.3105C538.091 55.8632 538.091 55.8632 542 55C538.534 49.277 535.666 46.2044 529.148 44.375C526.707 43.8854 526.707 43.8854 523 44ZM734 46C733.01 46.99 732.02 47.98 731 49C731.99 51.97 732.98 54.94 734 58C734.66 58 735.32 58 736 58C737.518 55.5898 738.023 54.3166 737.812 51.4375C736.95 48.8508 736.078 47.7166 734 46ZM745 49C744.195 51.05 744.195 51.05 744 53C745.98 52.67 747.96 52.34 750 52C750.33 50.35 750.66 48.7 751 47C748.439 47 747.147 47.615 745 49ZM725.312 53.4375C723.307 57.3521 724.117 60.794 725 65C725.945 67.9151 725.945 67.9151 727 70C730.278 69.2485 730.278 69.2485 732 66C731.671 60.9859 730.772 56.7255 729 52C726.884 51.7838 726.884 51.7838 725.312 53.4375ZM741 59C740.67 60.32 740.34 61.64 740 63C744.95 61.515 744.95 61.515 750 60C750.33 58.35 750.66 56.7 751 55C746.231 55 744.667 56.0664 741 59ZM526 56C526.372 57.2989 526.773 58.5891 527.188 59.875C527.408 60.5943 527.628 61.3136 527.855 62.0547C529.459 64.7801 531.008 65.111 534 66C535.844 66.4236 537.699 66.7985 539.562 67.125C540.957 67.3764 540.957 67.3764 542.379 67.6328C545.219 68.0925 545.219 68.0925 549 68C548.117 64.137 546.583 62.426 543.375 60.3125C537.92 57.1645 532.36 55.6025 526 56ZM720 62C717.798 66.1875 716.516 69.3855 717.914 74.0469C719.176 76.7687 720.507 79.3983 722 82C722.66 81.67 723.32 81.34 724 81C725.696 74.8701 724.413 69.8148 722 64C721.34 63.34 720.68 62.68 720 62ZM742.562 65.1875C741.594 65.5936 740.626 65.9996 739.629 66.418C736.618 68.2297 735.543 69.8877 734 73C737.524 74.1746 739.006 73.7748 742.562 72.875C743.533 72.6455 744.504 72.4161 745.504 72.1797C748.196 71.2053 748.196 71.2053 749.34 68.5703C750.124 65.958 750.124 65.958 750 63C747.172 63 745.154 64.069 742.562 65.1875ZM561 65C560.67 66.65 560.34 68.3 560 70C560.66 69.34 561.32 68.68 562 68C561.67 67.01 561.34 66.02 561 65ZM537 70C537.813 72.1489 537.813 72.1489 539.855 72.8516C544.378 74.3517 548.167 75.3717 553 75C550.574 72.574 548.858 72.2416 545.562 71.375C544.594 71.1146 543.626 70.8542 542.629 70.5859C539.961 69.8912 539.961 69.8912 537 70ZM738.5 75.625C737.355 75.9473 736.211 76.2695 735.031 76.6016C731.514 78.2244 730.545 79.5019 729 83C729 83.66 729 84.32 729 85C732.009 84.3714 735.005 83.6959 738 83C739.64 82.6287 739.64 82.6287 741.312 82.25C744.878 80.5914 746.097 78.367 748 75C744.161 73.7202 742.354 74.488 738.5 75.625ZM728 89C730.788 90.0327 731.868 90.0451 734.75 89.0625C735.493 88.7119 736.235 88.3613 737 88C733.234 86.7446 731.628 87.6294 728 89ZM524 117C527.445 120.445 531.508 121.859 536.312 122.312C539.149 122.264 539.149 122.264 541 120C535.175 116.961 530.518 116.646 524 117ZM513 123C514.339 125.678 516.183 126.413 518.883 127.527C522.7 128.38 526.417 127.453 530 126C530.33 125.34 530.66 124.68 531 124C529.588 123.324 528.17 122.66 526.75 122C525.961 121.629 525.172 121.257 524.359 120.875C519.571 119.099 517.006 120.329 513 123ZM507.25 128.5C506.838 128.995 506.425 129.49 506 130C509.499 132.527 509.499 132.527 513.688 132.75C515.992 132.066 515.992 132.066 518 131C518 130.34 518 129.68 518 129C512.51 126.414 512.51 126.414 507.25 128.5ZM545 129C544.542 130.972 544.542 130.972 544.375 133.125C544.251 134.404 544.127 135.683 544 137C547.442 134.34 547.995 131.097 549 127C546.764 126.764 546.764 126.764 545 129ZM534 132C531.455 136.108 529 140.1 529 145C533.79 145.234 533.79 145.234 538 143C539.027 139.668 539.027 139.668 539.688 135.875C539.939 134.594 540.19 133.312 540.449 131.992C540.631 131.005 540.813 130.017 541 129C537.779 129 536.55 129.984 534 132ZM503 133C501.02 135.31 499.04 137.62 497 140C501.95 138.515 501.95 138.515 507 137C507 136.01 507 135.02 507 134C505.68 133.67 504.36 133.34 503 133ZM521 136C517.36 141.088 517.36 141.088 516 147C518.31 147 520.62 147 523 147C523.818 145.419 524.629 143.835 525.438 142.25C526.116 140.927 526.116 140.927 526.809 139.578C527.835 137.358 528.515 135.386 529 133C525.623 133 523.834 134.166 521 136ZM543 137C544 139 544 139 544 139L543 137ZM746 138C745.67 138.66 745.34 139.32 745 140C747.64 139.67 750.28 139.34 753 139C753 138.67 753 138.34 753 138C750.69 138 748.38 138 746 138ZM508 142C507.113 144.591 507.113 144.591 507 147C508.65 147 510.3 147 512 147C514.201 143.196 514.201 143.196 515 139C511.967 139 510.401 140.214 508 142ZM751 142C752.774 144.267 753.971 144.991 756.75 145.875C760.985 146.038 763.235 144.882 767 143C767 142.34 767 141.68 767 141C761.431 139.144 756.232 139.384 751 142ZM499 146C500.32 146.33 501.64 146.66 503 147C503.33 145.68 503.66 144.36 504 143C502.032 143 500.495 144.843 499 146ZM739 144C739 146.97 739 149.94 739 153C739.33 153 739.66 153 740 153C740 150.03 740 147.06 740 144C739.67 144 739.34 144 739 144ZM762 148C762.66 149.32 763.32 150.64 764 152C767.958 151.435 770.666 150.191 774 148C773.34 147.01 772.68 146.02 772 145C768.133 145 765.491 146.419 762 148ZM743 148C742.822 149.932 742.732 151.873 742.688 153.812C742.65 154.871 742.613 155.929 742.574 157.02C743.1 160.702 744.059 161.79 747 164C749.138 164.787 749.138 164.787 751 165C750.357 162.374 749.711 159.749 749.062 157.125C748.88 156.379 748.698 155.632 748.51 154.863C747.548 150.83 747.548 150.83 746 147C744 146.764 744 146.764 743 148ZM751 151C751.563 153.631 752.149 156.253 752.75 158.875C752.986 159.995 752.986 159.995 753.227 161.137C754.148 165.38 754.148 165.38 756.953 168.508C759.135 169.117 759.135 169.117 762 169C761.436 159.97 761.436 159.97 756.562 152.688C754.094 150.725 754.094 150.725 751 151ZM770.812 153C770.214 153.66 769.616 154.32 769 155C771.848 157.367 771.848 157.367 775.188 156.625C776.116 156.419 777.044 156.213 778 156C778.354 152.882 778.354 152.882 776 151C772.875 150.663 772.875 150.663 770.812 153ZM764 158C764.308 159.813 764.621 161.626 764.938 163.438C765.112 164.447 765.286 165.456 765.465 166.496C765.748 168.929 765.748 168.929 767 170C768.666 170.041 770.334 170.043 772 170C771.62 166.878 771.128 163.944 770 161C767.048 158.853 767.048 158.853 764 158ZM777 159C777 159.66 777 160.32 777 161C779.31 161.66 781.62 162.32 784 163C782.515 160.03 782.515 160.03 781 157C779.538 156.908 779.538 156.908 777 159ZM775 165C775 166.98 775 168.96 775 171C778.3 171 781.6 171 785 171C781.8 168.257 778.995 166.37 775 165Z" fill="black"/>
</svg>
