<?xml version="1.0" standalone="no"?>
<!DOCTYPE svg PUBLIC "-//W3C//DTD SVG 20010904//EN"
 "http://www.w3.org/TR/2001/REC-SVG-20010904/DTD/svg10.dtd">
<svg version="1.0" xmlns="http://www.w3.org/2000/svg"
 width="7367.000000pt" height="5433.000000pt" viewBox="0 0 7367.000000 5433.000000"
 preserveAspectRatio="xMidYMid meet">
<metadata>
Created by potrace 1.16, written by Peter Selinger 2001-2019
</metadata>
<g transform="translate(0.000000,5433.000000) scale(0.100000,-0.100000)"
fill="#000000" stroke="none">
<path d="M36033 54315 c-198 -36 -394 -133 -540 -269 -35 -32 -176 -196 -315
-364 -3245 -3941 -6743 -8154 -8165 -9833 -137 -163 -265 -317 -283 -343 -48
-70 -106 -200 -132 -296 -31 -117 -32 -346 0 -462 94 -345 331 -591 664 -689
59 -17 107 -22 248 -26 143 -4 4265 110 4796 132 l150 7 17 -2429 c9 -1335 20
-2493 22 -2573 l6 -146 -1608 -1014 c-884 -558 -1625 -1030 -1646 -1049 -122
-109 -167 -284 -117 -442 12 -36 51 -110 89 -169 l69 -105 -27 -16 c-64 -41
-1384 -780 -1386 -777 -2 2 -22 37 -46 78 -387 685 -1087 1192 -1854 1345
-211 42 -314 50 -605 49 -302 0 -471 -17 -763 -75 -649 -128 -1497 -442 -2322
-859 -869 -439 -1389 -847 -1609 -1260 -173 -326 -163 -664 27 -953 174 -263
425 -425 763 -494 127 -25 488 -25 669 0 323 46 732 147 1366 337 l26 8 6 -97
c30 -484 273 -860 682 -1056 60 -29 126 -58 145 -64 l35 -11 1 -147 c1 -332
111 -595 338 -811 435 -413 1153 -462 1826 -126 258 129 472 286 700 514 215
214 419 481 585 763 199 341 324 737 366 1161 17 173 6 544 -20 716 -12 74
-23 144 -24 154 -2 15 147 103 787 462 433 244 791 444 795 444 3 0 84 -121
180 -269 181 -281 232 -343 317 -385 109 -54 255 -60 356 -13 29 13 412 247
852 521 439 273 801 494 805 491 3 -4 9 -2766 14 -6138 4 -3373 11 -6530 15
-7017 l8 -885 23 -58 c29 -74 120 -173 193 -210 78 -39 449 -117 798 -168
l155 -22 -23 -286 c-12 -157 -92 -1134 -177 -2171 -85 -1037 -162 -1984 -171
-2105 -10 -121 -19 -221 -20 -223 -1 -2 -99 12 -216 32 -247 41 -292 43 -380
16 -126 -39 -238 -151 -273 -274 -11 -38 -45 -308 -45 -355 0 -3 -109 -5 -242
-3 -627 9 -1121 -80 -1513 -272 -325 -160 -568 -403 -664 -666 -48 -132 -55
-179 -55 -345 1 -144 3 -169 27 -250 59 -196 170 -377 327 -533 154 -153 318
-265 562 -381 385 -185 828 -294 1408 -347 227 -21 813 -24 1065 -5 345 25
764 75 894 108 164 40 317 130 437 256 216 225 323 511 381 1022 16 139 18
242 17 790 -1 699 -1 704 -67 814 -89 149 -199 193 -637 257 -102 15 -186 28
-188 29 -3 2 5 95 188 2330 172 2100 200 2444 200 2458 0 10 31 10 158 1 688
-54 1145 -69 2067 -69 922 0 1266 11 1931 61 l202 15 218 -213 c641 -623 1074
-1063 1914 -1943 689 -723 740 -775 1319 -1356 l494 -497 -69 -63 c-156 -142
-279 -274 -306 -331 -54 -111 -61 -237 -20 -345 11 -29 130 -218 265 -420 363
-547 584 -833 802 -1042 389 -371 776 -490 1175 -360 36 12 164 70 285 129
1017 501 1808 1103 2273 1731 209 282 358 593 418 869 28 128 26 445 -4 552
-84 305 -276 530 -555 650 -148 64 -266 89 -459 95 -237 8 -413 -17 -668 -94
-358 -108 -823 -353 -1197 -629 -40 -30 -76 -54 -81 -54 -4 0 -37 35 -72 77
-108 128 -179 200 -223 226 -71 42 -150 60 -242 55 -126 -7 -185 -39 -352
-195 -76 -70 -180 -166 -231 -212 l-92 -83 -148 140 c-320 305 -860 858 -1727
1767 -346 363 -856 888 -1133 1167 -444 446 -502 508 -481 512 13 3 94 19 179
36 206 41 374 86 435 116 94 47 169 135 203 241 19 56 20 119 26 1778 7 1796
16 3085 41 5600 30 3072 37 3894 43 5283 l7 1423 520 -314 c671 -404 849 -516
1016 -638 36 -27 93 -61 125 -76 53 -25 70 -28 164 -28 206 1 249 35 654 533
60 73 112 132 116 130 4 -2 381 -218 838 -481 l830 -478 -24 -93 c-61 -242
-89 -547 -74 -806 37 -607 245 -1103 684 -1630 542 -650 1228 -1051 1942
-1135 611 -71 1164 120 1455 504 65 86 142 243 175 356 22 76 27 116 31 258 4
125 9 167 18 167 27 0 175 54 270 99 434 205 685 575 712 1050 l6 106 426
-107 c767 -192 1134 -260 1510 -277 559 -26 926 85 1214 366 143 139 228 282
268 448 30 128 24 312 -16 435 -95 294 -338 572 -743 848 -454 309 -1111 625
-1955 941 -1684 630 -2831 775 -3831 485 -659 -192 -1277 -621 -1650 -1147
l-68 -97 -32 19 c-17 10 -350 202 -741 426 -390 225 -715 413 -722 419 -9 8
12 41 83 131 111 141 149 208 165 298 23 122 -18 260 -103 353 -63 68 -489
351 -1913 1269 -374 241 -852 552 -1062 691 l-381 252 -6 44 c-3 23 -8 223
-11 443 -5 383 -10 623 -55 2580 -33 1474 -42 1946 -37 1951 2 3 841 -4 1863
-15 2598 -29 2497 -29 2615 2 375 98 641 385 709 763 19 104 8 327 -20 424
-45 157 -85 221 -434 685 -2023 2685 -3947 5053 -6505 8005 -776 895 -1641
1881 -1726 1966 -155 157 -355 261 -574 299 -101 18 -290 18 -388 0z m303
-850 c32 -16 72 -50 110 -93 32 -38 340 -390 685 -783 2959 -3379 4904 -5741
7055 -8569 606 -795 664 -877 664 -920 0 -32 -7 -48 -33 -76 l-33 -36 -389 2
c-215 1 -1281 12 -2370 24 -1089 12 -2004 18 -2034 14 -161 -21 -305 -160
-340 -328 -14 -65 -6 -498 59 -3355 11 -473 24 -1096 29 -1385 6 -289 13 -611
16 -716 l6 -190 -103 -61 c-554 -328 -1369 -526 -2483 -605 -272 -19 -1052
-16 -1345 5 -1005 74 -1808 249 -2366 518 l-122 58 -6 183 c-3 101 -13 1229
-21 2508 -9 1279 -20 2481 -23 2671 l-8 346 -33 68 c-39 79 -108 153 -172 185
-39 21 -184 69 -251 84 -14 3 -1179 -28 -2588 -69 -1409 -41 -2607 -75 -2662
-75 -96 0 -100 1 -128 29 -34 33 -45 70 -33 105 4 14 150 193 324 398 1347
1593 4360 5220 7773 9360 504 612 563 680 609 703 69 34 145 34 213 0z m4524
-17478 c135 -88 549 -356 920 -595 547 -353 1247 -807 1257 -816 3 -3 -326
-435 -460 -604 l-128 -160 -172 107 c-95 59 -437 268 -762 463 -324 195 -692
419 -818 496 -125 78 -244 149 -265 157 -94 40 -241 35 -339 -10 -67 -30 -151
-110 -187 -175 -57 -104 -56 -79 -56 -1385 0 -1291 -9 -2512 -40 -5730 -28
-2873 -38 -4220 -46 -5957 -4 -830 -7 -1508 -8 -1508 -1 0 -64 -11 -141 -25
-551 -99 -1359 -167 -2325 -196 -426 -13 -1494 -7 -1880 11 -893 40 -1694 115
-2191 206 l-86 16 -7 531 c-3 293 -9 3165 -12 6382 -4 3218 -10 6233 -13 6700
-7 844 -7 850 -29 905 -45 112 -131 196 -250 240 -83 32 -207 31 -288 -2 -32
-13 -484 -289 -1004 -612 -520 -324 -950 -589 -957 -590 -10 -1 -453 667 -453
683 0 5 2730 1732 2751 1739 6 2 76 -30 157 -71 447 -228 1024 -401 1722 -516
951 -157 2072 -183 3049 -71 1002 115 1820 363 2375 720 l89 58 176 -116 c97
-63 286 -187 421 -275z m-15216 -1912 c428 -50 793 -225 1122 -537 323 -307
548 -781 604 -1273 13 -116 13 -355 0 -470 -38 -332 -149 -626 -348 -925 -392
-588 -885 -931 -1342 -933 -204 -1 -349 63 -415 185 -25 46 -29 64 -30 133 0
44 6 102 14 128 13 45 19 50 75 79 96 48 192 115 235 165 109 124 136 308 66
461 -69 152 -258 258 -423 237 -91 -11 -234 -64 -320 -118 -49 -32 -107 -35
-197 -12 -147 39 -249 127 -288 249 -31 98 -30 256 1 337 33 83 65 108 173
135 155 39 242 106 301 231 55 116 55 250 0 367 -74 157 -233 246 -415 233
-116 -9 -497 -111 -1227 -328 -855 -254 -1207 -329 -1495 -316 -154 7 -213 25
-277 85 -71 67 -73 73 -43 134 101 201 449 478 960 764 207 115 667 338 935
452 783 333 1368 503 1875 545 111 10 345 5 459 -8z m22826 -241 c580 -59
1265 -243 2160 -581 950 -358 1674 -739 1981 -1043 48 -47 99 -105 114 -130
l28 -44 -49 -45 c-101 -91 -222 -123 -474 -122 -337 0 -702 67 -1530 277 -874
223 -1070 270 -1435 350 -98 22 -227 22 -295 0 -262 -83 -373 -405 -219 -635
70 -105 148 -151 312 -186 130 -28 167 -52 212 -140 27 -54 30 -67 29 -154 0
-76 -5 -109 -24 -155 -62 -159 -249 -263 -492 -274 l-116 -5 -94 46 c-235 115
-425 127 -570 36 -226 -144 -262 -465 -73 -654 52 -51 197 -137 289 -171 67
-25 90 -73 84 -184 -3 -68 -7 -84 -33 -122 -91 -129 -334 -208 -600 -195 -350
17 -750 183 -1080 448 -219 175 -455 439 -618 689 -274 423 -351 948 -212
1454 148 539 520 984 1065 1274 459 245 998 332 1640 266z m-1948 -17961 c67
-30 88 -69 88 -159 0 -170 -106 -409 -292 -656 -387 -513 -1059 -1015 -1953
-1460 -228 -114 -235 -115 -332 -56 -169 102 -375 334 -663 748 -170 246 -223
328 -216 339 6 9 661 577 737 639 l27 22 90 -102 c117 -134 147 -161 208 -192
70 -35 146 -50 224 -43 112 9 160 35 345 182 558 446 1006 683 1435 759 14 2
77 3 140 2 93 -1 124 -6 162 -23z m-13087 -2178 c242 -31 462 -59 489 -62 l48
-6 -5 -421 c-3 -232 -10 -466 -16 -521 -38 -336 -103 -523 -191 -551 -19 -6
-111 -21 -205 -33 -741 -92 -1354 -91 -1880 5 -381 69 -679 175 -895 319 -146
96 -260 230 -260 304 0 71 91 162 239 239 164 85 369 142 641 179 177 24 694
25 910 3 201 -21 311 -19 378 8 111 43 214 152 246 262 8 27 19 101 26 167 13
135 17 163 28 163 4 0 205 -25 447 -55z"/>
<path d="M34825 50244 c-11 -3 -144 -32 -295 -65 -151 -33 -297 -70 -325 -83
-79 -36 -149 -107 -192 -192 -31 -64 -37 -88 -41 -159 -8 -156 57 -293 179
-374 136 -91 205 -92 577 -11 152 33 301 70 331 82 80 32 163 114 208 206 36
73 38 80 37 176 0 78 -5 113 -20 152 -64 159 -203 260 -373 269 -36 2 -75 2
-86 -1z"/>
<path d="M37798 50239 c-112 -16 -224 -90 -286 -186 -47 -74 -65 -151 -60
-254 4 -76 9 -97 41 -162 41 -84 107 -151 183 -188 76 -36 538 -148 615 -149
119 0 218 42 300 127 90 94 124 186 117 318 -8 147 -95 283 -222 345 -61 29
-496 143 -586 153 -25 3 -71 1 -102 -4z"/>
<path d="M34926 48889 c-91 -22 -178 -80 -292 -194 -120 -119 -166 -187 -234
-344 -202 -465 -322 -1154 -281 -1605 40 -431 178 -711 429 -874 176 -114 497
-164 671 -106 80 27 186 107 248 189 123 161 205 392 254 718 26 173 36 555
20 762 -59 741 -289 1304 -587 1436 -56 25 -166 34 -228 18z"/>
<path d="M37718 48877 c-85 -29 -163 -83 -254 -172 -95 -94 -144 -162 -203
-281 -122 -247 -230 -624 -289 -1009 -23 -151 -26 -201 -26 -450 -1 -232 2
-297 18 -380 55 -298 167 -521 329 -655 80 -66 219 -134 327 -160 123 -29 298
-37 377 -17 216 56 372 243 473 564 74 238 105 484 104 838 -1 612 -131 1167
-349 1495 -58 87 -158 181 -231 215 -83 39 -186 44 -276 12z"/>
<path d="M35635 44686 c-77 -19 -144 -56 -201 -112 -64 -64 -102 -141 -117
-233 -22 -147 25 -270 159 -410 132 -139 276 -229 464 -289 137 -44 236 -56
414 -49 181 6 297 33 440 100 127 61 206 116 303 212 109 108 145 182 151 306
11 227 -127 402 -348 441 -132 23 -267 -24 -377 -130 -72 -69 -126 -92 -218
-92 -112 0 -156 20 -250 116 -90 91 -150 126 -245 144 -66 13 -111 12 -175 -4z"/>
<path d="M5080 43870 c-312 -43 -578 -189 -861 -470 -282 -279 -508 -607 -775
-1125 -621 -1202 -1260 -3189 -1994 -6192 -231 -947 -405 -1693 -799 -3420
-271 -1185 -437 -1905 -546 -2368 -78 -331 -82 -355 -95 -521 -43 -534 155
-1059 537 -1424 363 -347 866 -523 1381 -482 301 24 605 99 1020 253 58 22
106 38 108 36 8 -8 41 -882 79 -2137 28 -914 48 -1473 70 -1944 8 -175 15
-322 15 -326 0 -8 -657 -505 -885 -670 -152 -109 -196 -149 -235 -210 -62 -98
-78 -247 -40 -361 12 -34 20 -62 18 -63 -2 -1 -43 -29 -93 -61 -302 -199 -520
-559 -579 -958 -73 -488 96 -954 480 -1327 178 -173 332 -280 569 -396 240
-117 485 -193 763 -236 l142 -22 0 -311 c0 -554 19 -2684 30 -3335 29 -1838
73 -3266 150 -4965 16 -357 34 -758 40 -890 6 -132 15 -271 20 -308 11 -73 44
-149 91 -209 56 -70 102 -94 879 -450 239 -110 535 -247 656 -304 151 -71 241
-108 284 -116 l63 -11 -7 -176 c-20 -512 -26 -856 -36 -1891 -13 -1506 -28
-2256 -56 -2801 l-6 -127 -45 -6 c-25 -3 -172 -6 -327 -6 -155 0 -301 -5 -325
-11 -120 -27 -228 -114 -284 -228 l-32 -66 1 -212 1 -213 -31 -4 c-17 -3 -101
-15 -186 -26 -823 -111 -1475 -379 -1841 -756 -149 -155 -248 -318 -299 -494
-27 -92 -38 -314 -21 -412 63 -364 346 -680 781 -873 175 -78 432 -153 645
-189 205 -35 351 -47 640 -53 492 -9 883 28 1444 138 342 67 884 209 1100 288
234 85 417 247 533 468 141 270 183 612 137 1123 -28 319 -182 1220 -224 1316
-36 81 -120 164 -207 204 -69 32 -79 34 -232 40 -89 4 -212 5 -274 2 l-113 -5
6 84 c22 327 42 1307 55 2794 6 627 15 1271 20 1430 13 408 31 846 39 939 l6
80 175 79 c1909 864 2537 1158 3420 1599 283 141 515 256 516 255 2 -2 510
-843 1784 -2952 391 -649 718 -1189 724 -1200 12 -18 -2 -29 -193 -156 -247
-165 -314 -217 -364 -289 -79 -113 -94 -265 -39 -400 44 -110 311 -672 399
-840 345 -661 614 -984 956 -1145 125 -59 236 -86 377 -92 152 -7 241 10 505
93 995 312 1788 714 2360 1193 127 106 338 319 427 431 203 256 335 519 385
768 27 137 23 350 -9 472 -47 175 -112 291 -236 422 -482 505 -1460 466 -2599
-106 -62 -31 -115 -56 -117 -56 -2 0 -45 65 -95 144 -120 189 -182 246 -305
281 -42 12 -83 16 -145 13 -111 -5 -156 -27 -395 -189 -141 -96 -182 -119
-189 -108 -4 8 -330 547 -724 1199 -394 652 -950 1572 -1236 2045 -285 473
-522 866 -524 873 -3 6 12 31 32 53 21 23 49 67 63 98 37 78 38 151 13 861
-38 1084 -64 2060 -106 3955 -46 2106 -76 3184 -120 4405 -19 521 -24 627 -36
672 -9 36 -7 40 41 100 162 201 240 429 240 700 0 206 -40 346 -144 501 -51
77 -128 160 -204 218 l-33 25 -4 179 c-21 764 -37 1556 -33 1561 3 3 129 -9
279 -25 587 -65 1067 -107 1359 -118 185 -7 231 2 322 59 98 62 159 151 184
269 13 65 12 89 -16 367 -16 164 -30 307 -30 318 0 18 60 36 591 179 l592 159
19 -25 c74 -93 225 -252 323 -340 463 -416 1024 -684 1597 -764 289 -40 749
-45 1016 -10 694 89 1243 348 1610 758 553 619 492 1451 -137 1864 -47 31 -88
58 -90 59 -2 2 6 43 18 91 57 234 52 451 -15 663 -69 219 -221 431 -429 599
-39 31 -71 60 -73 64 -1 4 93 81 210 169 543 411 820 653 1034 901 212 247
335 479 379 712 23 120 16 355 -13 465 -54 202 -119 318 -251 451 -190 188
-425 272 -761 271 -234 -1 -451 -38 -750 -128 -650 -196 -1616 -688 -2450
-1248 -765 -514 -1293 -1053 -1570 -1606 -196 -390 -281 -753 -281 -1195 1
-341 39 -590 137 -883 20 -58 32 -108 27 -112 -8 -8 -791 -220 -811 -220 -6 0
-13 26 -17 58 -18 159 -46 232 -122 313 -54 58 -109 92 -183 113 -130 36
-1039 113 -1730 146 -124 6 -253 13 -286 16 l-61 5 -7 82 c-20 256 -93 1477
-186 3122 -70 1226 -120 2074 -155 2604 -14 206 -24 375 -23 376 2 2 461 244
1022 539 560 295 1052 559 1092 587 85 59 203 179 264 269 60 89 117 215 147
328 24 86 27 115 26 262 0 178 -11 242 -69 387 -59 150 -51 140 -713 958
-1618 2001 -2861 3496 -4946 5946 -330 388 -620 730 -645 760 -267 326 -554
544 -840 637 -151 50 -368 72 -510 52z m-220 -1032 c-6 -13 -60 -210 -121
-438 -258 -972 -623 -2294 -1391 -5045 -838 -3006 -1305 -4694 -1672 -6040
-304 -1119 -296 -1089 -303 -1207 -23 -418 236 -777 654 -905 80 -24 102 -27
253 -27 263 0 185 -33 1290 552 311 164 566 298 567 298 8 -5 107 -1344 147
-1991 58 -917 156 -3001 156 -3290 l0 -80 -205 -152 -205 -152 0 52 c0 28 -4
156 -10 282 -10 246 -28 789 -60 1830 -25 812 -45 1333 -70 1863 -17 356 -23
422 -41 474 -52 154 -174 256 -338 280 -120 18 -289 -26 -775 -202 -166 -59
-339 -120 -386 -134 -300 -89 -506 -119 -680 -96 -452 58 -774 387 -820 837
-14 136 0 238 80 578 113 478 263 1130 490 2125 504 2212 692 3008 961 4085
561 2244 1045 3812 1521 4930 105 247 309 667 410 845 95 168 259 415 348 525
61 76 198 225 207 225 1 0 -2 -10 -7 -22z m984 -281 c86 -89 1661 -1944 2466
-2902 936 -1116 1852 -2227 2791 -3385 706 -872 840 -1040 856 -1077 29 -71
-1 -171 -68 -224 -19 -15 -549 -298 -1179 -629 -630 -331 -1164 -618 -1186
-636 -51 -41 -96 -108 -125 -183 -24 -63 -30 -204 -10 -255 19 -47 79 -998
206 -3221 107 -1869 187 -3208 200 -3312 4 -41 2 -46 -73 -135 -111 -134 -388
-413 -526 -532 -810 -693 -1788 -1085 -2936 -1177 -177 -14 -658 -13 -835 1
-77 6 -142 13 -144 15 -2 2 -7 104 -12 227 -84 2102 -167 3491 -304 5098 -47
548 -50 573 -84 645 -80 170 -261 266 -445 236 -85 -14 1 29 -1189 -600 -522
-276 -959 -501 -971 -501 -20 0 -66 32 -66 47 0 41 892 3280 1790 6498 950
3404 1339 4815 1575 5710 68 260 79 293 106 318 22 20 39 27 71 27 37 0 47 -6
92 -53z m13023 -11713 c25 -10 34 -21 43 -56 38 -141 -53 -311 -300 -558 -208
-209 -378 -347 -1038 -842 -761 -571 -951 -728 -1001 -826 -147 -287 51 -622
367 -622 120 0 197 31 310 126 73 62 111 72 197 55 134 -28 309 -160 365 -276
50 -103 24 -272 -59 -381 -29 -38 -56 -58 -136 -98 -128 -65 -179 -101 -243
-170 -74 -82 -96 -145 -96 -276 0 -133 22 -195 100 -280 156 -167 354 -183
621 -49 67 33 78 36 111 27 105 -29 204 -101 247 -179 77 -141 8 -338 -184
-530 -229 -229 -568 -374 -1036 -441 -139 -20 -619 -17 -769 5 -461 69 -878
276 -1222 610 -314 303 -518 661 -600 1051 -35 166 -45 476 -20 644 51 344
189 644 442 962 90 113 351 372 494 491 581 484 1638 1106 2394 1408 472 189
860 268 1013 205z m-8005 -4739 c516 -27 1324 -85 1333 -97 3 -5 72 -713 69
-717 -4 -5 -429 35 -829 79 -701 77 -866 88 -955 66 -131 -34 -225 -111 -283
-234 l-32 -67 -3 -350 c-2 -192 4 -604 12 -915 9 -311 16 -617 16 -681 l0
-117 -147 5 c-503 18 -1274 -90 -2118 -297 -826 -203 -1478 -440 -1950 -708
-106 -60 -324 -203 -398 -259 l-59 -46 3 529 c2 458 0 535 -14 570 -52 138
-149 231 -281 269 -85 25 -213 17 -286 -17 -77 -35 -684 -451 -1380 -946 -124
-88 -226 -159 -226 -159 -23 24 -313 522 -307 527 4 4 109 83 233 176 124 92
423 319 665 504 462 353 791 601 1011 762 l131 97 144 -15 c218 -22 607 -32
869 -23 1295 44 2492 462 3445 1204 276 215 597 518 799 758 l100 117 73 0
c39 0 204 -7 365 -15z m-577 -3889 c110 -19 185 -41 248 -72 l47 -24 0 -53 c0
-30 -9 -70 -20 -95 -30 -66 -133 -166 -255 -247 -261 -174 -559 -304 -1385
-605 -659 -240 -1064 -399 -1160 -453 -79 -45 -146 -116 -183 -195 -30 -63
-32 -74 -32 -178 0 -107 1 -112 38 -186 62 -127 166 -204 307 -228 86 -15 166
-2 276 46 68 29 92 35 121 29 112 -21 235 -130 304 -270 38 -76 43 -95 43
-153 0 -77 -30 -153 -93 -237 -63 -83 -128 -120 -244 -139 -296 -48 -441 -165
-479 -384 -35 -203 93 -408 291 -466 68 -20 217 -20 326 -1 79 14 80 14 121
-10 54 -32 126 -112 154 -172 30 -64 25 -155 -14 -230 -37 -75 -144 -183 -238
-244 -437 -280 -1130 -272 -1863 21 -397 158 -757 464 -992 843 -290 469 -387
989 -277 1482 196 876 880 1422 2294 1831 728 211 1493 361 2055 404 165 12
500 4 610 -14z m-5644 -1592 c-21 -55 -54 -146 -71 -204 -18 -58 -38 -110 -44
-116 -9 -10 -334 -39 -342 -31 -1 1 -16 252 -33 557 -17 305 -33 587 -37 626
l-5 71 253 178 c139 98 267 188 283 200 l30 23 3 -603 2 -602 -39 -99z m-1949
818 c113 -187 183 -292 215 -324 87 -84 199 -125 325 -116 l68 5 0 -31 c1 -17
9 -175 19 -351 11 -176 18 -321 16 -323 -6 -7 -244 52 -324 80 -396 139 -693
408 -766 693 -32 126 -10 295 54 422 45 89 172 220 216 222 6 1 85 -124 177
-277z m7638 -707 c0 -19 7 -216 15 -437 18 -508 41 -1238 60 -1978 14 -564 25
-1006 65 -2800 25 -1123 44 -1845 71 -2680 11 -360 21 -740 22 -845 l2 -190
-175 -93 c-435 -230 -1302 -659 -1930 -954 -753 -355 -2489 -1143 -2497 -1134
-8 8 -33 438 -57 961 -49 1074 -73 1975 -111 4175 -17 956 -32 1693 -44 2120
-5 157 -8 286 -7 287 0 1 42 -24 91 -55 398 -247 960 -432 1500 -494 140 -16
510 -15 640 1 843 104 1471 585 1580 1210 19 109 19 297 -1 401 -37 196 -138
397 -275 545 l-40 43 44 69 c60 91 89 151 125 255 127 359 75 735 -148 1071
-38 56 -65 105 -62 108 4 3 97 39 207 79 267 97 642 246 790 313 66 30 123 56
128 56 4 1 7 -15 7 -34z m-5886 -1327 c3 -18 10 -80 16 -138 39 -357 173 -763
359 -1088 l50 -87 10 -260 c29 -694 52 -1664 81 -3375 38 -2198 73 -3357 136
-4503 9 -159 14 -290 12 -293 -4 -3 -673 300 -685 310 -1 1 -15 298 -32 661
-120 2571 -165 4469 -187 7777 l-7 1017 49 4 c27 2 81 4 121 5 l72 2 5 -32z
m12426 -12780 c137 -34 189 -91 175 -192 -23 -179 -203 -444 -455 -672 -450
-408 -1141 -772 -2002 -1058 -270 -89 -344 -109 -384 -102 -112 22 -303 249
-495 591 -77 138 -329 643 -329 660 0 6 88 64 195 130 108 66 306 189 442 273
135 84 249 149 252 144 3 -5 40 -62 81 -127 113 -180 179 -237 310 -271 77
-20 183 -15 248 11 24 10 101 51 170 92 152 88 458 244 597 303 496 211 919
288 1195 218z m-10448 -3993 c98 -576 131 -912 109 -1117 -19 -174 -53 -258
-119 -292 -45 -23 -363 -114 -617 -176 -381 -94 -721 -154 -1085 -192 -168
-17 -740 -17 -880 0 -262 33 -517 100 -665 175 -148 74 -255 176 -255 241 0
75 103 192 255 292 352 229 908 375 1635 428 147 11 208 20 250 35 110 42 195
127 242 241 21 51 23 67 20 241 l-2 187 122 6 c405 21 730 33 843 32 l129 -1
18 -100z"/>
<path d="M7666 39485 c-137 -8 -270 -19 -294 -25 -119 -30 -222 -115 -275
-228 -30 -63 -32 -74 -32 -178 0 -107 1 -112 37 -186 59 -119 157 -196 283
-223 101 -21 607 5 687 35 116 43 193 114 245 226 25 53 28 70 28 169 0 99 -3
116 -28 169 -69 147 -191 235 -347 249 -30 2 -167 -1 -304 -8z"/>
<path d="M5355 38906 c-22 -7 -56 -21 -75 -31 -62 -32 -424 -286 -468 -329
-89 -85 -127 -188 -120 -326 3 -74 9 -98 38 -156 42 -86 109 -153 197 -196 64
-31 73 -33 178 -33 98 0 116 3 167 27 76 35 428 279 496 342 229 215 134 612
-167 700 -65 19 -190 20 -246 2z"/>
<path d="M7977 38170 c-123 -31 -230 -137 -320 -316 -140 -280 -163 -990 -47
-1458 123 -491 377 -746 746 -746 110 0 229 21 293 52 25 12 70 46 99 75 220
219 235 807 36 1425 -151 469 -379 827 -594 931 -81 40 -152 52 -213 37z"/>
<path d="M5998 37707 c-155 -58 -322 -258 -388 -464 -38 -120 -75 -301 -96
-483 -25 -201 -25 -625 -1 -800 72 -517 246 -846 521 -980 106 -52 178 -70
306 -77 284 -14 449 71 553 288 78 162 107 320 107 594 0 451 -112 940 -311
1355 -89 185 -182 324 -284 425 -107 107 -185 147 -293 152 -49 2 -90 -2 -114
-10z"/>
<path d="M8338 34651 c-128 -42 -202 -112 -266 -252 -42 -91 -81 -133 -160
-173 -111 -56 -209 -58 -317 -7 -126 60 -261 62 -380 6 -229 -109 -306 -409
-159 -622 113 -164 436 -276 744 -259 489 27 914 329 1055 750 30 88 34 204
10 283 -34 114 -134 221 -248 265 -76 30 -206 34 -279 9z"/>
<path d="M68446 43869 c-143 -20 -306 -76 -444 -153 -173 -96 -399 -297 -560
-496 -42 -52 -248 -302 -457 -555 -2268 -2743 -3492 -4259 -5181 -6415 -422
-539 -430 -549 -484 -658 -166 -333 -137 -745 77 -1064 61 -91 182 -213 270
-271 37 -24 509 -284 1047 -576 539 -292 980 -532 982 -533 1 -2 -2 -59 -7
-128 -21 -299 -85 -1401 -169 -2905 -114 -2056 -179 -3145 -186 -3154 -2 -2
-122 -10 -266 -17 -616 -31 -1378 -93 -1667 -135 -225 -33 -353 -177 -376
-422 -6 -67 -9 -78 -23 -74 -435 119 -768 211 -769 212 -2 1 8 35 22 76 172
499 198 1086 71 1587 -174 684 -619 1293 -1381 1887 -636 496 -1681 1099
-2390 1380 -842 333 -1441 332 -1797 -3 -156 -148 -247 -331 -284 -572 -35
-232 -1 -442 106 -668 178 -373 502 -708 1243 -1284 131 -102 238 -189 238
-192 0 -4 -41 -40 -90 -81 -98 -81 -197 -192 -267 -297 -189 -283 -238 -651
-136 -1012 8 -29 5 -31 -77 -87 -369 -246 -555 -651 -501 -1087 90 -714 760
-1310 1682 -1496 250 -50 371 -61 693 -61 322 0 456 10 668 51 633 122 1246
485 1676 993 63 74 100 110 110 107 9 -3 261 -73 560 -155 299 -83 546 -153
549 -156 3 -3 -7 -133 -22 -290 -34 -347 -33 -415 11 -507 43 -92 100 -151
191 -195 67 -34 84 -38 171 -41 162 -7 726 39 1335 108 192 22 351 38 354 35
2 -2 -3 -309 -12 -682 -9 -373 -18 -762 -20 -864 l-4 -187 -99 -98 c-113 -113
-162 -182 -209 -298 -46 -114 -64 -214 -64 -354 0 -277 83 -509 261 -733 19
-24 20 -31 10 -85 -26 -141 -89 -2297 -146 -4954 -45 -2087 -82 -3517 -115
-4360 -18 -473 -12 -529 68 -634 20 -27 41 -54 46 -61 8 -11 -83 -168 -1653
-2845 -315 -536 -614 -1046 -664 -1132 -51 -87 -95 -158 -98 -158 -4 0 -80 52
-170 115 -218 153 -269 178 -380 183 -140 7 -249 -36 -336 -131 -21 -23 -74
-101 -118 -173 l-80 -131 -179 89 c-890 445 -1671 543 -2191 275 -463 -239
-643 -737 -464 -1282 130 -395 476 -824 958 -1189 509 -385 1180 -719 1983
-987 347 -116 433 -134 598 -126 432 21 779 305 1135 929 146 254 552 1110
575 1211 26 114 0 248 -66 344 -43 62 -204 188 -415 325 -87 56 -128 88 -126
98 2 9 272 472 599 1030 328 558 829 1413 1115 1900 285 487 564 962 618 1057
55 95 104 172 108 173 5 0 88 -42 186 -94 708 -376 1627 -823 3154 -1536 346
-161 630 -298 632 -304 6 -19 35 -810 45 -1246 6 -228 15 -957 20 -1620 9
-1155 19 -1669 40 -2180 6 -129 10 -242 10 -251 0 -14 -26 -16 -232 -17 -310
-2 -378 -20 -486 -131 -78 -79 -97 -135 -152 -446 -128 -717 -154 -943 -155
-1330 0 -323 7 -385 61 -571 83 -288 263 -512 508 -632 178 -88 788 -258 1241
-346 451 -88 820 -126 1222 -126 460 0 805 47 1133 157 286 95 515 227 686
397 158 157 248 310 296 503 32 130 30 322 -5 455 -31 117 -86 237 -157 344
-68 102 -269 301 -388 384 -377 264 -923 454 -1552 541 -222 30 -203 23 -196
67 4 20 7 109 8 197 2 142 0 167 -20 219 -42 113 -130 203 -246 250 -47 18
-79 21 -383 26 -182 3 -333 7 -336 10 -6 6 -24 458 -37 935 -6 187 -14 880
-20 1540 -5 660 -12 1308 -15 1440 -12 531 -25 954 -30 1016 l-6 66 58 12 c35
7 142 51 268 112 116 55 415 198 665 316 777 368 810 387 877 500 51 87 53
106 83 773 130 2821 177 4747 196 8047 l7 1141 81 12 c675 97 1249 431 1571
915 177 265 257 526 257 835 0 488 -225 937 -591 1181 -42 28 -77 52 -79 54
-2 2 4 20 13 41 40 95 36 242 -9 340 -36 79 -82 122 -326 307 -168 128 -749
578 -779 603 -2 2 6 236 18 521 27 669 36 921 66 1943 38 1292 63 1950 74
1950 4 0 81 -27 171 -60 444 -163 726 -224 1045 -224 303 0 530 52 785 179
617 309 986 952 957 1665 -8 194 -10 204 -153 835 -69 303 -280 1248 -469
2100 -470 2118 -651 2910 -896 3920 -735 3029 -1373 4953 -2013 6068 -416 725
-842 1120 -1321 1222 -90 19 -281 27 -369 14z m657 -1204 c592 -733 1229
-2421 1932 -5120 325 -1250 585 -2365 1249 -5355 190 -855 386 -1731 435
-1947 103 -447 116 -529 107 -664 -16 -255 -115 -471 -290 -636 -121 -114
-220 -168 -394 -215 -61 -16 -107 -21 -217 -21 -229 0 -421 49 -915 233 -509
190 -656 226 -794 196 -157 -35 -282 -157 -316 -309 -19 -86 -62 -1157 -105
-2607 -14 -465 -29 -971 -35 -1125 -5 -154 -12 -363 -15 -465 -3 -102 -8 -199
-11 -217 l-5 -31 -186 141 -185 142 6 185 c52 1432 116 2721 191 3840 23 332
91 1249 97 1307 3 19 76 -18 717 -367 463 -252 740 -397 790 -413 428 -142
892 49 1093 448 56 109 80 211 86 352 3 84 0 156 -8 195 -38 196 -795 3032
-1800 6743 -888 3278 -1218 4512 -1485 5545 -41 162 -78 302 -81 310 -9 26 55
-41 139 -145z m-969 -77 c21 -20 38 -71 106 -338 260 -1006 582 -2211 1500
-5600 997 -3681 1760 -6539 1760 -6590 0 -9 -9 -25 -21 -35 -16 -15 -25 -17
-47 -9 -15 6 -462 247 -994 537 -532 289 -989 534 -1015 543 -65 23 -202 23
-268 -1 -116 -41 -214 -136 -257 -247 -23 -60 -50 -341 -117 -1223 -101 -1310
-170 -2528 -232 -4110 -12 -302 -22 -551 -23 -552 0 0 -89 -7 -196 -13 -634
-40 -1383 77 -2053 320 -599 217 -1131 521 -1612 921 -106 88 -405 383 -468
460 l-36 45 14 210 c28 398 85 1377 165 2820 145 2631 195 3435 216 3535 36
164 2 299 -100 405 -59 62 -90 80 -1176 668 -1217 658 -1196 645 -1219 744
-14 56 -8 101 18 147 55 95 2044 2605 3016 3805 876 1081 2818 3443 2913 3543
43 44 87 50 126 15z m-12566 -11728 c517 -56 1443 -490 2396 -1123 744 -495
1179 -926 1412 -1402 173 -354 228 -734 164 -1142 -98 -625 -566 -1236 -1174
-1532 -329 -161 -641 -221 -1081 -208 -272 8 -467 40 -682 112 -369 122 -642
343 -751 607 -35 85 -37 202 -4 265 40 76 134 151 224 177 38 12 44 10 116
-26 133 -66 195 -83 307 -83 92 0 106 3 167 32 205 97 297 324 218 536 -43
114 -144 209 -316 294 -82 41 -99 53 -128 97 -85 131 -103 278 -49 394 26 57
168 193 235 225 73 35 146 52 189 43 21 -4 60 -28 99 -62 36 -31 94 -70 130
-88 61 -29 72 -31 175 -31 105 0 114 2 178 33 89 44 160 114 200 199 30 64 32
74 32 183 0 110 -2 119 -32 180 -35 71 -103 148 -200 225 -34 28 -151 122
-260 211 -109 88 -346 275 -528 414 -398 306 -591 460 -749 599 -385 337 -570
589 -552 748 11 94 28 112 126 127 14 2 29 4 33 5 4 0 51 -4 105 -9z m8032
-4806 c88 -104 404 -410 540 -523 958 -801 2189 -1299 3490 -1413 192 -16 706
-16 888 1 l143 13 177 -133 c228 -171 365 -277 1062 -824 316 -248 630 -493
697 -544 121 -93 122 -94 109 -120 -30 -56 -281 -480 -287 -483 -3 -2 -89 58
-190 132 -720 526 -1284 924 -1359 959 -73 33 -201 41 -286 16 -132 -38 -229
-130 -281 -269 -14 -36 -16 -108 -14 -560 3 -515 3 -520 -17 -505 -521 382
-1044 623 -1882 865 -926 269 -1900 431 -2469 412 l-144 -5 6 301 c4 166 12
488 18 716 6 228 9 557 7 730 l-3 315 -32 67 c-59 126 -167 211 -300 238 -76
16 -251 3 -868 -65 -482 -53 -836 -88 -840 -83 -1 2 14 164 33 360 l35 357 36
5 c169 27 1315 102 1571 104 l105 1 55 -65z m820 -3839 c721 -75 1774 -331
2430 -590 174 -68 451 -201 586 -280 559 -328 878 -721 1018 -1256 48 -179 66
-314 66 -491 0 -465 -168 -933 -477 -1325 -83 -106 -277 -293 -388 -375 -280
-208 -706 -371 -1132 -434 -155 -23 -428 -23 -568 0 -268 44 -488 147 -628
295 -155 165 -171 309 -50 458 19 24 54 57 79 73 40 29 47 30 81 20 21 -6 94
-14 163 -17 184 -8 277 23 373 126 176 188 145 490 -64 634 -65 44 -204 91
-318 108 -75 10 -89 16 -134 53 -65 53 -132 151 -153 223 -36 125 11 273 127
398 59 63 159 125 200 125 10 0 53 -15 96 -34 43 -19 107 -40 143 -46 277 -48
527 202 480 480 -23 138 -104 247 -236 317 -103 55 -488 209 -1049 420 -657
247 -901 348 -1145 475 -253 131 -437 273 -490 378 -13 26 -25 71 -28 107 -5
61 -4 62 29 83 71 43 180 69 399 94 69 8 448 -4 590 -19z m4983 -498 c136 -99
249 -182 251 -186 2 -3 -11 -276 -30 -606 -18 -330 -33 -612 -34 -628 l0 -27
-82 6 c-46 3 -116 9 -157 13 l-73 6 -53 160 c-29 88 -62 182 -74 208 -21 48
-21 60 -21 648 0 477 3 599 13 593 6 -4 123 -88 260 -187z m1880 -42 c131
-100 220 -345 196 -538 -11 -86 -22 -122 -62 -202 -112 -227 -346 -420 -659
-544 -66 -26 -318 -95 -324 -89 -1 2 6 149 17 328 10 179 18 336 19 350 0 24
1 25 67 22 122 -7 269 54 336 139 15 19 98 154 185 301 86 148 162 268 168
268 6 0 32 -16 57 -35z m-7563 -945 c106 -54 398 -175 685 -284 154 -58 290
-111 303 -116 23 -10 22 -10 -26 -83 -229 -338 -290 -716 -176 -1079 28 -89
99 -237 146 -306 l29 -42 -49 -58 c-132 -154 -217 -326 -257 -522 -22 -103
-24 -294 -6 -400 52 -294 217 -570 469 -781 583 -487 1488 -590 2439 -278 274
90 509 196 698 314 48 30 90 55 93 55 2 0 2 -109 -2 -242 -13 -506 -27 -1161
-46 -2293 -41 -2378 -71 -3439 -130 -4545 -11 -201 -20 -385 -20 -409 0 -31
-4 -42 -12 -38 -29 12 -1522 713 -1758 824 -914 433 -1722 838 -2429 1217
l-264 141 7 210 c3 116 13 417 21 670 28 880 53 1885 90 3605 39 1810 60 2620
100 3920 16 485 19 550 30 550 3 0 32 -14 65 -30z m5849 -1305 c6 -7 -17
-3075 -29 -3775 -32 -1849 -72 -3189 -145 -4810 -13 -300 -27 -618 -31 -707
l-7 -162 -319 -151 c-176 -83 -321 -150 -324 -148 -2 3 3 123 11 269 62 1131
94 2239 135 4654 28 1645 40 2185 72 3135 l12 365 29 49 c157 269 292 642 347
965 17 101 39 278 40 320 0 12 18 13 102 7 56 -3 104 -9 107 -11z m-11973
-12775 c367 -32 838 -205 1309 -480 262 -153 300 -170 385 -177 132 -10 269
42 347 132 18 22 66 91 104 155 39 63 73 117 74 118 3 3 783 -489 829 -524 19
-13 18 -17 -30 -121 -83 -183 -249 -514 -319 -639 -144 -253 -304 -454 -398
-498 -50 -23 -63 -20 -317 64 -748 249 -1348 549 -1810 906 -148 114 -387 353
-469 469 -117 165 -190 349 -176 441 12 82 113 138 275 154 41 4 77 8 80 9 3
0 55 -4 116 -9z m10220 -3920 c109 -5 307 -14 438 -20 132 -6 240 -11 241 -13
1 -1 -1 -65 -5 -142 -4 -77 -4 -167 1 -199 15 -111 92 -230 186 -289 78 -48
121 -58 318 -73 395 -29 717 -83 1006 -169 406 -120 714 -305 800 -480 28 -57
30 -67 20 -98 -35 -105 -204 -219 -441 -296 -220 -71 -422 -100 -751 -108
-352 -8 -685 21 -1076 92 -420 78 -1088 259 -1139 310 -29 29 -59 113 -74 207
-18 108 -7 449 19 658 21 163 88 593 96 618 5 15 89 16 361 2z"/>
<path d="M65893 39490 c-29 -4 -81 -21 -117 -38 -286 -134 -318 -546 -55 -721
34 -23 84 -48 113 -56 72 -22 569 -47 645 -33 83 15 159 55 219 115 184 184
155 499 -59 642 -89 59 -134 69 -368 81 -113 5 -233 11 -266 13 -33 2 -83 1
-112 -3z"/>
<path d="M68209 38902 c-281 -93 -378 -460 -177 -678 54 -58 424 -324 504
-361 53 -25 70 -28 169 -28 105 0 114 2 178 33 86 42 156 113 198 198 28 56
34 80 37 154 7 138 -33 244 -125 331 -61 58 -418 308 -481 337 -76 35 -218 42
-303 14z"/>
<path d="M65832 37965 c-98 -28 -199 -93 -300 -194 -169 -170 -379 -640 -471
-1056 -70 -316 -68 -623 3 -833 71 -206 219 -351 433 -421 228 -74 387 -40
531 114 237 254 375 794 359 1400 -12 433 -95 737 -246 898 -84 90 -196 124
-309 92z"/>
<path d="M67652 37410 c-71 -25 -126 -58 -214 -128 -86 -69 -120 -106 -190
-210 -196 -290 -388 -819 -454 -1247 -23 -150 -23 -429 -1 -551 62 -341 258
-562 572 -645 117 -31 270 -32 347 -1 291 117 504 571 580 1237 16 146 16 581
0 715 -54 440 -182 729 -364 819 -53 27 -71 31 -142 31 -54 -1 -99 -7 -134
-20z"/>
<path d="M65318 34651 c-157 -50 -260 -170 -288 -334 -15 -83 -2 -169 41 -275
233 -583 977 -870 1545 -597 115 56 193 124 234 208 129 264 -23 561 -313 609
-82 14 -166 0 -256 -42 -36 -17 -87 -34 -113 -37 -99 -12 -257 65 -299 147
-10 19 -31 64 -48 100 -34 73 -98 145 -165 184 -95 56 -232 70 -338 37z"/>
</g>
</svg>
