<?xml version="1.0" standalone="no"?>
<!DOCTYPE svg PUBLIC "-//W3C//DTD SVG 20010904//EN"
 "http://www.w3.org/TR/2001/REC-SVG-20010904/DTD/svg10.dtd">
<svg version="1.0" xmlns="http://www.w3.org/2000/svg"
 width="1080.000000pt" height="1080.000000pt" viewBox="0 0 1080.000000 1080.000000"
 preserveAspectRatio="xMidYMid meet">

<g transform="translate(0.000000,1080.000000) scale(0.100000,-0.100000)"
fill="#000000" stroke="none">
<path d="M5363 9276 c-17 -19 -34 -43 -37 -53 -3 -10 -33 -47 -66 -83 -33 -36
-60 -68 -60 -72 0 -5 -9 -17 -19 -27 -10 -10 -43 -50 -72 -88 -29 -37 -66 -84
-83 -104 -17 -19 -47 -55 -66 -79 -19 -24 -50 -59 -67 -79 -18 -20 -33 -39
-33 -43 0 -5 -8 -16 -17 -26 -10 -9 -34 -38 -53 -62 -19 -25 -37 -47 -40 -50
-5 -5 -86 -103 -103 -125 -4 -5 -17 -21 -28 -35 -11 -14 -30 -38 -42 -54 -12
-15 -39 -49 -61 -75 -64 -78 -70 -85 -106 -131 -19 -25 -40 -49 -46 -55 -6 -5
-26 -30 -44 -55 -33 -43 -50 -62 -97 -112 -13 -13 -23 -31 -23 -41 0 -20 4
-21 33 -5 14 7 94 12 222 14 110 1 259 3 330 4 72 1 140 2 153 1 l22 -1 0
-325 c0 -209 -4 -332 -11 -348 -10 -23 -89 -77 -112 -77 -7 0 -17 -4 -22 -9
-6 -6 -47 -28 -93 -51 -79 -39 -85 -44 -109 -96 -21 -46 -32 -58 -76 -81 -29
-14 -55 -31 -59 -38 -4 -6 -33 -24 -65 -39 -61 -29 -77 -38 -134 -73 -20 -13
-41 -23 -47 -23 -6 0 -38 -16 -72 -36 l-61 -35 -89 7 -89 6 -73 -45 c-91 -56
-120 -83 -116 -105 4 -21 57 -28 98 -13 26 8 29 7 32 -12 2 -14 10 -22 23 -22
14 0 21 -8 23 -27 2 -16 9 -28 17 -28 8 0 17 -10 20 -21 17 -52 145 12 186 93
23 44 25 72 5 65 -8 -3 -17 -3 -20 0 -7 7 47 42 104 69 19 9 53 28 75 43 22
15 56 35 75 45 19 9 71 37 115 62 141 79 142 79 169 64 36 -19 68 -19 91 0 22
19 199 120 209 120 3 0 6 -397 6 -882 0 -486 0 -893 0 -906 0 -17 5 -22 23
-21 59 5 70 1 62 -28 -8 -33 -22 -121 -30 -183 -7 -64 -16 -122 -21 -140 -3
-13 -157 -15 -1314 -14 -721 1 -1313 3 -1315 6 -7 7 -12 60 -20 201 l-7 127
36 0 c21 0 46 5 57 10 21 12 26 50 7 50 -6 0 -2 9 10 20 12 12 22 25 22 30 0
12 -29 40 -43 40 -8 0 -7 4 1 12 16 16 15 45 0 51 -8 3 -6 6 5 6 26 1 59 35
52 54 -9 23 -45 28 -110 16 -31 -6 -59 -8 -61 -6 -5 5 -31 271 -30 301 1 12
12 22 31 28 101 30 134 38 168 43 40 6 53 35 16 35 -19 0 -20 2 -8 17 11 13
11 17 2 20 -18 6 -16 40 2 46 10 5 16 -4 20 -31 9 -52 13 -62 25 -62 13 0 13
54 1 98 -9 28 -7 33 7 31 40 -4 62 2 62 16 0 9 6 12 15 9 8 -4 15 -2 15 4 0
11 172 72 202 72 10 0 32 6 50 14 31 13 119 38 182 51 15 3 26 9 23 12 -3 3 0
12 8 20 8 8 15 25 15 38 0 27 24 44 110 79 78 32 90 27 21 -8 -67 -34 -70 -60
-6 -50 56 8 58 -1 5 -22 -58 -24 -52 -42 13 -38 l52 4 -40 -20 c-22 -11 -46
-20 -52 -20 -7 0 -13 -7 -13 -16 0 -13 7 -15 38 -10 28 5 33 4 20 -4 -10 -6
-68 -11 -130 -12 -62 -1 -120 -5 -128 -10 -8 -4 -71 -22 -140 -39 -69 -17
-129 -35 -135 -38 -5 -4 -30 -13 -55 -20 -25 -7 -56 -21 -70 -31 -14 -9 -32
-20 -40 -23 -9 -3 -5 -6 11 -6 14 -1 29 3 35 7 13 12 251 86 359 112 62 15
117 22 177 21 99 -2 158 16 158 47 0 11 7 25 15 32 17 14 20 46 5 55 -5 3 -10
17 -10 30 0 12 -7 26 -16 29 -13 5 -10 11 15 32 17 14 31 35 31 46 0 19 -4 20
-49 15 -47 -6 -193 -66 -205 -85 -3 -5 -7 -27 -8 -49 l-3 -41 -90 -22 c-49
-13 -101 -28 -115 -33 -28 -11 -36 -14 -66 -21 -12 -2 -43 -11 -68 -20 -26 -9
-51 -16 -57 -16 -17 0 -143 -61 -150 -72 -5 -7 -17 -3 -35 11 -28 22 -30 22
-114 6 -45 -9 -111 -8 -119 1 -10 11 -52 462 -57 614 -1 58 -7 127 -12 153
l-10 48 37 23 c82 52 209 123 261 146 30 13 59 27 63 31 5 3 -9 26 -30 51 -21
24 -48 57 -60 73 -12 17 -40 53 -61 80 -87 113 -228 302 -244 325 -9 14 -28
38 -42 54 -14 16 -26 32 -26 36 0 3 -8 15 -18 26 -22 24 -92 115 -112 144 -8
12 -20 28 -25 34 -6 6 -28 36 -50 66 -104 145 -90 134 -194 138 -70 3 -94 1
-105 -11 -16 -15 -51 -114 -81 -227 -10 -36 -32 -114 -50 -175 -19 -60 -43
-144 -55 -185 -12 -41 -25 -86 -30 -100 -5 -14 -20 -65 -35 -115 -25 -90 -44
-152 -88 -300 -14 -44 -37 -123 -52 -175 -15 -52 -31 -108 -36 -125 -5 -16
-20 -69 -34 -117 -14 -49 -30 -88 -35 -88 -5 0 -14 -17 -20 -37 -9 -34 -8 -40
11 -52 11 -8 30 -16 42 -17 12 -2 46 -6 76 -10 42 -5 57 -4 65 8 6 8 33 28 61
44 27 16 59 34 70 41 11 7 30 17 42 22 12 6 40 23 62 39 22 16 54 35 71 42 36
15 43 45 8 34 -13 -3 -68 -34 -123 -67 -55 -33 -115 -69 -134 -80 l-33 -20 7
34 c4 19 27 104 52 189 25 85 71 250 103 365 32 116 70 251 85 300 52 179 103
357 140 495 46 166 67 235 76 244 5 6 23 -6 43 -30 33 -37 57 -69 185 -244 30
-41 59 -79 65 -85 6 -5 27 -32 46 -58 19 -27 43 -57 53 -68 9 -10 17 -23 17
-28 0 -5 3 -11 8 -13 8 -3 67 -77 97 -122 48 -69 174 -236 212 -279 37 -42 41
-57 16 -57 -10 0 -38 -12 -63 -26 -25 -14 -74 -42 -110 -62 -102 -56 -170
-101 -170 -113 0 -6 7 -9 15 -5 12 4 15 -5 16 -47 2 -81 6 -163 13 -267 15
-216 17 -246 21 -270 2 -14 7 -74 10 -135 4 -60 8 -117 11 -125 10 -37 -147
-161 -236 -186 -30 -8 -64 -19 -75 -24 -79 -33 -145 -37 -199 -11 l-43 21 -6
73 c-4 39 -13 144 -22 232 -9 88 -18 196 -21 240 -6 77 -16 107 -31 91 -4 -4
-1 -11 7 -16 12 -8 12 -10 1 -10 -10 0 -12 -12 -7 -52 4 -29 13 -132 21 -228
9 -96 17 -193 20 -215 2 -22 6 -66 9 -97 5 -56 5 -57 -18 -48 -26 10 -66 3
-66 -11 0 -5 -4 -9 -9 -9 -11 0 -20 81 -26 245 -6 140 -30 356 -46 418 -12 45
-29 41 -23 -6 4 -28 13 -120 28 -282 3 -27 8 -81 11 -120 3 -38 10 -117 15
-174 5 -58 9 -105 7 -106 -1 -1 -36 -16 -77 -35 -86 -39 -97 -49 -106 -108 -3
-23 -15 -53 -25 -66 -27 -34 -34 -97 -16 -133 31 -60 150 -123 232 -123 27 0
35 -4 35 -17 0 -16 6 -90 26 -323 l6 -65 -801 1 c-718 0 -801 -2 -801 -15 0
-14 81 -16 783 -16 430 1 792 -1 804 -3 12 -2 22 -7 21 -11 -2 -5 12 -187 17
-226 1 -5 5 -57 9 -115 5 -58 10 -118 11 -133 2 -15 9 -81 14 -145 18 -192 23
-228 35 -273 5 -16 -1 -60 -15 -115 -23 -96 -28 -259 -17 -549 3 -77 4 -152 1
-166 -6 -30 -26 -52 -100 -109 -66 -50 -89 -99 -74 -151 14 -46 14 -49 -2 -49
-7 0 -29 -12 -50 -26 -21 -14 -45 -23 -53 -20 -8 3 -13 2 -9 -3 3 -5 -9 -21
-27 -36 l-33 -26 30 7 c29 6 28 5 -13 -25 -23 -17 -42 -36 -42 -42 0 -7 9 -5
22 5 13 9 39 23 58 31 19 9 41 22 50 29 23 19 91 35 126 29 24 -4 54 6 117 36
47 23 88 41 91 41 6 0 74 44 93 60 7 6 33 19 58 30 44 19 85 67 85 101 0 25
27 44 168 114 93 46 132 70 132 83 0 13 2 14 9 3 7 -11 13 -10 35 4 14 9 24
20 21 24 -2 4 9 8 25 8 17 0 30 -4 30 -9 0 -5 12 -3 27 5 34 18 148 69 278
125 39 17 90 39 115 50 25 11 68 27 95 36 70 22 125 69 125 106 0 21 10 36 41
61 27 21 37 35 30 42 -6 6 -19 2 -38 -12 -16 -13 -29 -18 -31 -12 -2 6 -10 11
-17 11 -7 0 -16 12 -20 28 -3 15 -13 34 -21 43 -20 22 -76 10 -165 -35 l-66
-34 -22 47 c-14 32 -31 51 -53 61 -28 13 -46 40 -123 193 -49 97 -102 192
-117 211 -29 37 -41 103 -53 296 -3 52 -7 104 -9 115 -4 19 -21 242 -21 275 0
13 152 15 1305 16 718 0 1308 -1 1311 -2 3 -2 0 -47 -7 -101 -7 -54 -13 -104
-14 -110 0 -7 -9 -13 -20 -13 -27 0 -43 -41 -44 -110 l-1 -55 -70 -8 c-140
-16 -168 -25 -192 -60 -18 -26 -23 -47 -23 -98 0 -35 4 -70 8 -77 8 -11 38
-13 200 -13 12 0 274 0 582 0 308 0 570 0 583 0 161 0 191 2 199 13 4 7 8 42
8 77 0 51 -5 72 -22 98 -25 35 -53 44 -193 60 l-70 8 -1 55 c-1 69 -17 110
-44 110 -11 0 -20 6 -20 13 -1 6 -7 56 -14 110 -7 54 -10 99 -7 101 3 1 593 2
1311 2 1153 -1 1305 -3 1305 -16 0 -33 -17 -256 -21 -275 -2 -11 -6 -63 -9
-115 -12 -193 -24 -259 -53 -296 -15 -19 -67 -114 -117 -211 -77 -153 -95
-180 -123 -193 -22 -10 -39 -29 -53 -61 l-22 -47 -66 34 c-89 45 -145 57 -165
35 -8 -9 -18 -28 -21 -43 -4 -16 -13 -28 -20 -28 -7 0 -15 -5 -17 -11 -2 -6
-15 -1 -31 12 -19 14 -32 18 -38 12 -7 -7 3 -21 30 -42 31 -25 41 -40 41 -61
0 -37 55 -84 125 -106 27 -9 70 -25 95 -36 25 -11 77 -33 115 -50 130 -56 244
-107 278 -125 15 -8 27 -10 27 -5 0 5 13 9 30 9 16 0 27 -4 25 -8 -3 -4 7 -15
21 -24 22 -14 28 -15 35 -4 7 11 9 10 9 -3 0 -13 39 -37 132 -83 141 -70 168
-89 168 -114 0 -34 41 -82 85 -101 25 -11 51 -24 58 -30 19 -16 87 -60 93 -60
3 0 44 -18 91 -41 63 -30 93 -40 117 -36 35 6 103 -10 126 -29 9 -7 31 -20 50
-29 19 -8 45 -22 58 -31 13 -10 22 -12 22 -5 0 6 -19 25 -42 42 -41 30 -42 31
-13 25 l30 -7 -33 26 c-18 15 -30 31 -27 36 4 5 -1 6 -9 3 -8 -3 -32 6 -53 20
-21 14 -43 26 -50 26 -16 0 -16 3 -2 49 15 52 -8 101 -74 151 -74 57 -94 79
-100 109 -3 14 -2 89 1 166 11 290 6 453 -17 549 -14 55 -20 99 -15 115 12 45
17 81 35 273 5 64 12 130 14 145 1 15 6 75 11 133 4 58 8 110 9 115 5 39 19
221 17 226 -1 4 9 9 21 11 12 2 374 4 804 3 702 0 783 2 783 16 0 13 -83 15
-801 15 l-801 -1 6 65 c20 233 26 307 26 323 0 13 8 17 35 17 82 0 201 63 232
123 18 36 11 99 -16 133 -10 13 -22 43 -25 66 -9 59 -20 69 -106 108 -41 19
-76 34 -77 35 -2 1 2 48 7 106 5 57 12 136 15 174 3 39 8 93 11 120 15 162 24
254 28 282 6 47 -11 51 -23 6 -16 -62 -40 -278 -46 -418 -6 -164 -15 -245 -26
-245 -5 0 -9 4 -9 9 0 14 -40 21 -66 11 -23 -9 -23 -8 -18 48 3 31 7 75 9 97
3 22 11 119 20 215 8 96 17 199 21 228 5 40 3 52 -7 52 -11 0 -11 2 1 10 8 5
11 12 7 16 -15 16 -25 -14 -31 -91 -3 -44 -12 -152 -21 -240 -9 -88 -18 -193
-22 -232 l-6 -73 -43 -21 c-54 -26 -120 -22 -199 11 -11 5 -45 16 -75 24 -89
25 -246 149 -236 186 3 8 7 65 11 125 3 61 8 121 10 135 4 24 6 54 21 270 7
104 11 186 13 267 1 42 4 51 16 47 8 -4 15 -1 15 5 0 12 -68 57 -170 113 -36
20 -85 48 -110 62 -25 14 -53 26 -62 26 -26 0 -22 15 15 57 38 43 164 210 212
279 30 45 89 119 98 122 4 2 7 8 7 13 0 5 8 18 18 28 9 11 33 41 52 68 19 26
40 53 46 58 6 6 35 44 65 85 128 175 152 207 185 244 20 24 38 36 43 30 9 -9
30 -78 76 -244 37 -138 88 -316 140 -495 15 -49 53 -184 85 -300 32 -115 78
-280 103 -365 25 -85 48 -170 52 -189 l7 -34 -33 20 c-19 11 -79 47 -134 80
-55 33 -110 64 -122 67 -36 11 -29 -19 7 -34 17 -7 49 -26 71 -42 22 -16 50
-33 62 -39 12 -5 31 -15 42 -22 11 -7 43 -25 70 -41 28 -16 55 -36 61 -44 8
-12 23 -13 65 -8 30 4 64 8 76 10 12 1 31 9 42 17 19 12 20 18 11 52 -6 20
-15 37 -20 37 -5 0 -21 39 -35 88 -14 48 -29 101 -34 117 -5 17 -21 73 -36
125 -15 52 -38 131 -52 175 -44 148 -63 210 -88 300 -15 50 -30 101 -35 115
-5 14 -18 59 -30 100 -12 41 -36 125 -55 185 -18 61 -40 139 -50 175 -30 113
-65 212 -81 227 -11 12 -35 14 -105 11 -104 -4 -90 7 -194 -138 -22 -30 -44
-60 -50 -66 -5 -6 -17 -22 -25 -34 -20 -29 -90 -120 -112 -144 -10 -11 -18
-23 -18 -26 0 -4 -12 -20 -26 -36 -14 -16 -33 -40 -42 -54 -16 -23 -157 -212
-244 -325 -21 -27 -49 -63 -61 -80 -12 -16 -39 -49 -60 -73 -21 -25 -35 -48
-30 -51 4 -4 33 -18 63 -31 52 -23 179 -94 261 -146 l37 -23 -10 -48 c-5 -26
-11 -95 -12 -153 -5 -152 -47 -603 -57 -614 -8 -9 -74 -10 -119 -1 -84 16 -86
16 -114 -6 -18 -14 -30 -18 -35 -11 -7 11 -133 72 -150 72 -6 0 -31 7 -57 16
-25 9 -56 18 -68 20 -30 7 -38 10 -66 21 -14 5 -65 20 -115 33 l-90 22 -3 41
c-1 22 -5 44 -8 49 -12 19 -158 79 -205 85 -45 5 -49 4 -49 -15 0 -11 14 -32
31 -46 25 -21 28 -27 15 -32 -9 -3 -16 -17 -16 -29 0 -13 -4 -27 -10 -30 -15
-9 -12 -41 5 -55 8 -7 15 -21 15 -32 0 -31 59 -49 158 -47 60 1 115 -6 177
-21 108 -26 346 -100 359 -112 6 -4 21 -8 35 -7 16 0 20 3 11 6 -8 3 -26 14
-40 23 -14 10 -45 24 -70 31 -25 7 -49 16 -55 20 -5 3 -66 21 -135 38 -69 17
-132 35 -140 39 -8 5 -66 9 -128 10 -62 1 -120 6 -130 12 -13 8 -8 9 21 4 30
-5 37 -3 37 10 0 9 -6 16 -12 16 -7 0 -31 9 -53 20 l-40 20 53 -4 c64 -4 70
14 12 38 -53 21 -51 30 5 22 64 -10 61 16 -6 50 -69 35 -57 40 21 8 86 -35
110 -52 110 -79 0 -13 7 -30 15 -38 8 -8 11 -17 8 -20 -3 -3 8 -9 23 -12 63
-13 151 -38 182 -51 18 -8 40 -14 50 -14 30 0 202 -61 202 -72 0 -6 7 -8 15
-4 9 3 15 0 15 -9 0 -14 22 -20 62 -16 14 2 16 -3 7 -31 -12 -44 -12 -98 1
-98 12 0 16 10 25 62 4 27 10 36 20 31 18 -6 20 -40 3 -46 -10 -3 -10 -7 1
-20 12 -15 11 -17 -8 -17 -37 0 -24 -29 17 -35 33 -5 66 -13 167 -43 19 -6 30
-16 31 -28 1 -30 -25 -296 -30 -301 -2 -2 -30 0 -61 6 -65 12 -101 7 -110 -16
-7 -19 26 -53 52 -54 11 0 13 -3 6 -6 -16 -6 -17 -35 -1 -51 8 -8 9 -12 1 -12
-14 0 -43 -28 -43 -40 0 -5 10 -18 22 -30 12 -11 16 -20 10 -20 -19 0 -14 -38
7 -50 11 -5 36 -10 57 -10 l36 0 -7 -127 c-8 -141 -13 -194 -20 -201 -2 -3
-594 -5 -1315 -6 -1157 -1 -1311 1 -1314 14 -5 17 -14 76 -21 138 -12 103 -16
128 -26 165 -6 21 -8 41 -5 44 3 3 24 6 46 6 34 0 40 3 40 21 0 11 0 418 0
904 0 485 3 882 6 882 10 0 187 -101 209 -120 23 -19 55 -19 91 0 27 15 28 15
169 -64 44 -25 96 -53 115 -62 19 -10 53 -30 75 -45 22 -15 56 -34 75 -43 57
-27 111 -62 104 -69 -3 -3 -12 -3 -20 0 -20 7 -18 -21 5 -65 41 -81 169 -145
186 -93 3 11 12 21 20 21 8 0 15 12 17 28 2 19 9 27 23 27 13 0 21 8 23 22 3
19 6 20 32 12 41 -15 94 -8 98 13 4 22 -25 49 -116 105 l-73 45 -89 -6 -89 -7
-61 35 c-34 20 -66 36 -72 36 -6 0 -27 10 -47 23 -57 35 -73 44 -134 73 -32
15 -61 33 -65 39 -4 7 -30 24 -59 38 -44 23 -55 35 -76 81 -24 52 -30 57 -109
96 -46 23 -87 45 -93 51 -5 5 -15 9 -22 9 -23 0 -102 54 -112 77 -7 16 -11
139 -11 348 l0 325 23 1 c12 1 81 0 152 -1 72 -1 220 -3 330 -4 128 -2 208 -7
222 -14 29 -16 33 -15 33 5 0 10 -10 28 -22 41 -48 50 -65 69 -98 112 -18 25
-38 50 -44 55 -6 6 -27 30 -46 55 -36 46 -42 53 -106 131 -22 26 -49 60 -61
75 -12 16 -31 40 -42 54 -11 14 -24 30 -28 35 -17 22 -98 120 -103 125 -3 3
-21 25 -40 50 -19 24 -43 53 -52 62 -10 10 -18 21 -18 26 0 4 -15 23 -33 43
-17 20 -48 55 -67 79 -19 24 -49 60 -66 79 -17 20 -54 67 -83 104 -29 38 -62
78 -72 88 -10 10 -19 22 -19 27 0 4 -27 36 -60 72 -33 36 -63 73 -66 83 -6 18
-64 87 -74 87 -3 0 -19 -15 -37 -34z m59 -43 c9 -16 38 -53 65 -84 26 -31 64
-75 83 -99 19 -24 51 -62 70 -85 19 -23 67 -81 105 -129 39 -48 117 -145 175
-215 58 -71 137 -168 175 -216 79 -98 138 -170 163 -200 10 -11 36 -42 57 -70
22 -27 43 -52 46 -55 3 -3 30 -36 59 -75 30 -38 63 -79 73 -90 10 -11 23 -28
29 -38 9 -18 3 -18 -129 -13 -76 3 -237 7 -358 8 l-220 3 -5 -345 c-3 -190 -7
-346 -8 -347 -1 -2 -7 -3 -13 -3 -6 0 -28 -14 -48 -30 -20 -17 -41 -35 -47
-40 -13 -10 -120 -34 -226 -52 -51 -9 -85 -9 -135 0 -107 18 -214 42 -227 52
-6 5 -27 23 -47 40 -20 16 -42 30 -48 30 -6 0 -12 1 -13 3 -1 1 -5 157 -8 347
l-5 345 -220 -3 c-121 -1 -282 -5 -358 -8 -132 -5 -138 -5 -129 13 6 10 19 27
29 38 10 11 43 52 73 90 29 39 56 72 59 75 3 3 24 28 46 55 21 28 47 59 57 70
25 30 84 102 163 200 39 48 117 145 175 216 58 70 137 167 175 215 39 48 86
106 105 129 19 23 51 61 70 85 19 24 57 68 83 99 27 31 56 68 65 84 9 15 19
27 22 27 3 0 13 -12 22 -27z m-3766 -1314 c3 -6 17 -9 30 -6 30 5 30 2 -5
-119 -16 -54 -43 -151 -61 -214 -17 -63 -35 -126 -40 -140 -4 -14 -13 -43 -19
-65 -6 -22 -28 -101 -49 -175 -22 -74 -49 -171 -62 -215 -12 -44 -30 -109 -41
-145 -11 -36 -33 -112 -48 -170 -30 -108 -83 -294 -103 -365 -6 -22 -14 -43
-18 -47 -3 -5 -29 -2 -58 4 -69 17 -69 19 -11 218 63 212 88 298 115 394 13
48 26 92 29 96 3 5 14 41 24 82 10 40 37 132 59 203 43 138 127 429 170 583
24 88 26 92 53 92 15 0 31 -5 35 -11z m7576 -81 c43 -154 127 -445 170 -583
22 -71 49 -163 59 -203 10 -41 21 -77 24 -82 3 -4 16 -48 29 -96 27 -96 52
-182 115 -394 58 -199 58 -201 -11 -218 -29 -6 -55 -9 -58 -4 -4 4 -12 25 -18
47 -20 71 -73 257 -103 365 -15 58 -37 134 -48 170 -11 36 -29 101 -41 145
-13 44 -40 141 -62 215 -21 74 -43 153 -49 175 -6 22 -15 51 -19 65 -5 14 -23
77 -40 140 -18 63 -45 160 -61 214 -35 121 -35 124 -5 119 13 -3 27 0 30 6 4
6 20 11 35 11 27 0 29 -4 53 -92z m-4193 -706 c34 -31 41 -44 41 -75 0 -34 -2
-37 -19 -27 -29 15 -62 65 -68 105 -3 19 -3 35 -1 35 3 0 24 -17 47 -38z m768
3 c-6 -40 -39 -90 -68 -105 -17 -10 -19 -7 -19 27 0 31 7 45 38 74 47 46 56
47 49 4z m-831 -51 c8 -46 33 -69 119 -110 54 -26 98 -38 188 -51 109 -15 125
-15 235 0 89 13 133 25 187 51 74 36 115 68 115 91 0 7 4 25 10 39 l9 25 32
-30 c17 -16 36 -29 42 -29 15 0 121 -53 125 -62 2 -5 9 -8 15 -8 20 0 47 -33
47 -58 0 -19 -3 -22 -13 -13 -8 6 -17 7 -22 3 -4 -4 -5 5 -1 21 5 20 3 27 -9
27 -15 0 -19 -13 -29 -84 -3 -21 -7 -40 -10 -43 -2 -2 -23 8 -46 24 -79 53
-95 61 -127 68 l-33 7 0 -903 c0 -496 -2 -904 -5 -907 -6 -7 -804 -7 -810 0
-3 3 -5 411 -5 907 l0 903 -33 -7 c-32 -7 -48 -15 -127 -68 -23 -16 -44 -26
-46 -24 -3 3 -7 22 -10 43 -10 71 -14 84 -29 84 -12 0 -14 -7 -9 -27 4 -16 3
-25 -1 -21 -5 4 -14 3 -22 -3 -10 -9 -13 -7 -13 11 0 26 26 60 46 60 7 0 14 3
16 8 3 6 27 18 147 76 13 6 29 19 34 28 15 23 25 14 33 -28z m254 -76 c0 -33
-3 -38 -24 -38 -28 0 -86 19 -102 34 -10 9 -9 27 1 63 3 8 20 7 64 -5 l61 -16
0 -38z m472 34 c2 -16 -1 -33 -7 -38 -15 -15 -74 -34 -101 -34 -21 0 -24 5
-24 38 0 38 0 38 58 53 31 9 60 14 63 13 4 -2 9 -17 11 -32z m-349 -18 c9 -3
17 -13 18 -22 0 -9 2 -26 3 -38 2 -15 -2 -20 -13 -18 -9 2 -36 5 -61 7 -48 4
-48 6 -41 81 1 8 51 2 94 -10z m188 9 c0 -5 1 -23 2 -42 2 -33 1 -34 -43 -38
-25 -2 -52 -5 -61 -7 -13 -3 -15 4 -12 32 5 44 4 42 45 52 45 11 68 12 69 3z
m-128 -30 c-7 -2 -19 -2 -25 0 -7 3 -2 5 12 5 14 0 19 -2 13 -5z m-3 -63 c0
-5 -4 -10 -10 -10 -5 0 -10 5 -10 10 0 6 5 10 10 10 6 0 10 -4 10 -10z m-660
-48 c0 -18 -18 -42 -31 -42 -13 0 -18 44 -6 52 21 13 37 9 37 -10z m1337 10
c12 -8 7 -52 -6 -52 -13 0 -31 24 -31 42 0 19 16 23 37 10z m-1420 -32 c1 -11
-3 -20 -8 -20 -12 0 -69 -28 -124 -60 -22 -13 -62 -36 -90 -51 -128 -68 -171
-93 -186 -105 -8 -8 -19 -14 -24 -14 -5 0 -40 -19 -78 -42 l-69 -41 6 -42 c4
-23 4 -49 0 -59 -9 -24 -91 -78 -112 -74 -13 3 -8 10 20 28 63 42 44 69 -20
30 -36 -22 -42 -24 -42 -12 0 5 18 18 40 31 22 12 40 26 40 31 0 18 -22 21
-44 7 -12 -8 -40 -20 -62 -26 l-39 -11 32 30 c18 17 37 30 42 30 6 0 11 7 11
15 0 8 -3 15 -7 15 -10 0 -74 -21 -111 -37 -18 -8 -43 -13 -55 -11 -19 3 -16
7 23 34 97 68 140 84 203 77 31 -3 57 -10 57 -14 0 -18 32 -8 95 31 36 22 69
40 74 40 13 0 113 51 132 67 9 8 32 22 50 32 19 10 63 35 99 56 36 21 83 48
105 60 22 13 40 23 40 24 1 1 1 -8 2 -19z m1613 -65 c36 -21 80 -46 99 -56 18
-10 41 -24 50 -32 19 -16 119 -67 132 -67 5 0 38 -18 74 -40 63 -39 95 -49 95
-31 0 4 26 11 58 14 62 7 105 -9 202 -77 39 -27 42 -31 23 -34 -12 -2 -37 3
-55 11 -37 16 -101 37 -111 37 -4 0 -7 -7 -7 -15 0 -8 5 -15 11 -15 5 0 24
-13 42 -30 l32 -30 -39 11 c-22 6 -50 18 -62 26 -22 14 -44 11 -44 -7 0 -5 18
-19 40 -31 22 -13 40 -26 40 -31 0 -12 -6 -10 -42 12 -64 39 -83 12 -20 -30
28 -18 33 -25 20 -28 -21 -4 -103 50 -112 74 -4 10 -4 36 0 59 l6 42 -69 41
c-38 23 -73 42 -78 42 -5 0 -16 6 -24 14 -15 12 -58 37 -186 105 -27 15 -68
38 -90 51 -55 32 -112 60 -124 60 -5 0 -9 8 -8 18 1 20 9 17 147 -63z m-1520
28 c0 -5 -11 -13 -25 -20 -20 -9 -25 -8 -25 2 0 13 14 23 38 24 6 1 12 -2 12
-6z m1314 1 c9 -3 16 -12 16 -19 0 -10 -5 -11 -25 -2 -38 18 -31 36 9 21z
m-4967 -546 c-3 -8 -6 -5 -6 6 -1 11 2 17 5 13 3 -3 4 -12 1 -19z m8590 0 c-3
-8 -6 -5 -6 6 -1 11 2 17 5 13 3 -3 4 -12 1 -19z m-7215 -410 c-12 -12 -35 -1
-27 12 3 5 13 6 21 3 10 -4 12 -9 6 -15z m5860 0 c-6 -6 -16 -7 -22 -3 -9 6
-9 9 1 16 17 10 34 0 21 -13z m-5904 -21 c7 -18 12 -50 12 -70 0 -31 -4 -37
-21 -37 -32 0 -122 -41 -141 -64 -15 -18 -19 -19 -28 -6 -11 16 -9 -37 11
-235 10 -90 9 -101 -7 -110 -44 -26 -74 -59 -74 -80 0 -33 -53 -49 -165 -48
-85 0 -293 17 -300 25 -2 2 -6 48 -10 103 -3 55 -9 109 -12 120 -18 62 -26
-108 -10 -210 1 -5 -5 -9 -13 -9 -31 3 -85 15 -89 20 -3 3 -7 35 -9 73 l-4 67
40 12 c22 7 43 20 46 29 9 23 -3 31 -18 10 -7 -9 -20 -17 -29 -17 -9 0 -18 -4
-21 -9 -3 -5 -18 -11 -33 -13 -16 -3 -36 -9 -45 -13 -15 -6 -18 -2 -18 27 0
18 -9 51 -20 73 -11 22 -20 42 -20 45 0 5 51 26 139 55 48 16 55 16 65 3 6 -8
14 -16 18 -17 4 -1 23 -8 43 -16 19 -8 51 -17 72 -20 21 -4 44 -8 52 -11 7 -2
20 1 27 7 11 9 14 9 14 0 0 -12 44 -9 95 7 39 12 149 62 155 71 3 3 22 19 43
34 20 15 37 35 37 43 0 7 9 14 20 14 13 0 20 7 20 19 0 10 7 21 15 25 8 3 15
12 15 20 0 8 4 16 10 18 5 2 12 18 14 36 2 18 5 34 7 36 3 3 59 17 99 25 4 1
11 -14 18 -32z m6005 17 c20 -3 38 -9 38 -13 1 -3 3 -19 5 -36 2 -16 8 -31 14
-33 5 -2 10 -10 10 -18 0 -8 7 -17 15 -20 8 -4 15 -15 15 -25 0 -12 7 -19 20
-19 11 0 20 -7 20 -14 0 -8 17 -28 38 -43 20 -15 39 -31 42 -34 6 -9 116 -59
155 -71 51 -16 95 -19 95 -7 0 9 3 9 14 0 7 -6 20 -9 27 -7 8 3 31 7 52 11 21
3 53 12 72 20 20 8 39 15 43 16 4 1 12 9 18 17 10 13 17 13 65 -3 88 -29 139
-50 139 -55 0 -3 -9 -23 -20 -45 -11 -22 -20 -55 -20 -73 0 -29 -3 -33 -17
-27 -10 4 -30 10 -46 13 -15 2 -30 8 -33 13 -3 5 -12 9 -21 9 -9 0 -22 8 -29
17 -15 21 -27 13 -18 -10 3 -9 24 -22 46 -29 l40 -12 -4 -67 c-2 -38 -6 -70
-9 -73 -4 -5 -58 -17 -89 -20 -8 0 -14 4 -13 9 16 102 8 272 -10 210 -3 -11
-9 -65 -12 -120 -4 -55 -8 -101 -10 -103 -7 -8 -215 -25 -300 -25 -112 -1
-165 15 -165 48 0 21 -30 54 -74 80 -16 9 -17 20 -7 110 20 198 22 251 11 235
-9 -13 -13 -12 -28 6 -19 23 -109 64 -141 64 -17 0 -21 6 -21 37 0 53 20 104
40 99 8 -3 32 -8 53 -12z m-6193 -84 c-6 -11 -13 -20 -16 -20 -2 0 0 9 6 20 6
11 13 20 16 20 2 0 0 -9 -6 -20z m6310 0 c6 -11 8 -20 6 -20 -3 0 -10 9 -16
20 -6 11 -8 20 -6 20 3 0 10 -9 16 -20z m-6345 -50 c0 -8 -24 -34 -54 -58 -41
-33 -56 -41 -62 -30 -16 25 -9 37 44 72 53 36 72 40 72 16z m6441 -16 c54 -35
61 -47 45 -72 -6 -10 -20 -3 -59 27 -57 45 -66 57 -57 71 9 15 13 13 71 -26z
m-6569 -86 c-2 -7 -21 -22 -42 -32 -31 -17 -38 -18 -46 -5 -17 27 -5 52 31 64
28 10 38 10 49 0 7 -8 11 -19 8 -27z m6721 -4 c1 -10 -2 -26 -7 -33 -8 -13
-15 -12 -46 5 -43 22 -52 38 -36 58 17 20 85 -3 89 -30z m-7089 -16 c1 9 6 10
20 2 11 -5 31 -10 45 -10 16 0 26 -6 26 -15 0 -11 -9 -14 -34 -12 -19 1 -32 5
-29 10 2 4 -6 7 -19 7 -13 0 -30 5 -38 10 -13 9 -13 11 0 20 11 7 17 5 22 -8
4 -9 7 -11 7 -4z m247 -3 c3 -13 3 -28 0 -33 -7 -12 -55 -22 -61 -12 -2 3 -20
5 -39 4 -63 -5 -56 25 10 48 65 21 83 20 90 -7z m6969 3 c56 -22 56 -49 -1
-44 -19 1 -37 -1 -39 -4 -6 -10 -54 0 -61 12 -3 5 -3 20 0 34 6 21 11 24 39
19 17 -3 46 -11 62 -17z m185 2 c0 -10 -26 -20 -51 -20 -11 0 -18 -3 -16 -7 3
-5 -10 -9 -29 -10 -25 -2 -34 1 -34 12 0 10 10 15 28 15 15 0 34 4 42 10 9 6
17 5 22 -3 5 -8 8 -7 8 5 0 11 5 15 15 12 8 -4 15 -10 15 -14z m-7680 -125
c15 -19 14 -20 -33 -40 -35 -14 -37 -14 -37 4 0 10 10 26 23 34 28 20 32 20
47 2z m7965 -1 c14 -9 25 -25 25 -35 0 -18 -2 -18 -37 -4 -47 20 -48 21 -33
40 15 19 15 19 45 -1z m-7935 -52 c0 -8 -80 -52 -94 -52 -24 0 49 47 92 59 1
1 2 -3 2 -7z m7948 -34 c7 -6 10 -13 8 -15 -6 -7 -96 39 -96 48 0 9 68 -17 88
-33z m-8058 -57 c0 -25 77 -99 118 -112 19 -6 48 -9 65 -6 18 3 55 -1 82 -8
28 -8 82 -18 120 -24 39 -5 97 -14 130 -19 90 -15 222 -9 282 12 47 15 54 22
63 54 10 35 60 86 60 61 0 -8 4 -8 13 -1 13 11 116 32 151 32 20 -1 20 -1 3
-14 -9 -7 -34 -16 -55 -20 -22 -3 -42 -14 -50 -26 -11 -19 -10 -20 30 -20 47
0 45 -9 -4 -19 -51 -10 -42 -35 14 -41 80 -10 79 -30 -2 -38 -33 -3 -50 -9
-50 -18 0 -8 5 -15 10 -15 6 -1 15 -3 20 -4 6 -1 21 -3 35 -4 46 -2 26 -19
-27 -23 -58 -5 -87 6 -138 48 -17 15 -35 23 -38 18 -8 -10 -45 -12 -347 -17
-165 -2 -228 0 -254 10 -18 7 -46 13 -62 13 -38 0 -118 28 -149 52 -33 26 -58
66 -54 86 11 60 16 72 24 67 6 -3 10 -14 10 -24z m80 14 c-7 -8 -20 -15 -29
-15 -13 1 -13 3 3 15 26 19 42 19 26 0z m7946 0 c16 -12 16 -14 3 -15 -9 0
-22 7 -29 15 -16 19 0 19 26 0z m84 -34 c8 -44 -6 -74 -50 -109 -31 -24 -111
-52 -149 -52 -16 0 -44 -6 -62 -13 -26 -10 -89 -12 -254 -10 -302 5 -339 7
-347 17 -3 5 -21 -3 -38 -18 -51 -42 -80 -53 -137 -48 -54 4 -74 21 -28 23 14
1 30 3 35 4 6 1 15 3 20 4 6 0 10 7 10 15 0 9 -17 15 -50 18 -81 8 -82 28 -2
38 56 6 65 31 14 41 -49 10 -51 19 -4 19 40 0 41 1 30 20 -8 12 -28 23 -50 26
-21 4 -46 13 -55 20 -17 13 -17 13 3 14 35 0 138 -21 152 -32 8 -7 12 -7 12 1
0 25 50 -26 60 -61 9 -32 16 -39 63 -54 60 -21 192 -27 282 -12 33 5 92 14
130 19 39 6 93 16 120 24 28 7 64 11 82 8 17 -3 46 0 65 6 40 13 118 86 118
110 0 19 10 34 18 26 2 -2 8 -22 12 -44z m-7920 -6 c0 -25 0 -48 0 -52 1 -20
-55 -12 -97 13 l-46 27 39 14 c21 8 50 21 64 28 37 21 40 19 40 -30z m7738 31
c15 -8 45 -21 66 -29 l39 -14 -46 -27 c-42 -25 -106 -34 -99 -13 1 4 2 27 2
52 0 50 1 51 38 31z m-7058 -261 c16 -8 38 -15 48 -15 25 0 29 -20 42 -235 6
-93 13 -181 15 -195 3 -25 10 -106 20 -240 7 -101 25 -289 30 -322 4 -22 -2
-29 -33 -45 -20 -11 -69 -38 -109 -61 -76 -44 -119 -69 -180 -103 -125 -69
-148 -83 -153 -89 -3 -4 -20 -14 -38 -23 l-33 -16 2 107 c2 59 -5 184 -14 277
-38 390 -41 413 -63 680 -10 110 -18 221 -18 248 l-1 47 190 4 c105 3 204 9
220 14 22 7 32 5 38 -5 4 -7 21 -20 37 -28z m6635 19 l190 -4 -1 -47 c0 -27
-8 -138 -18 -248 -22 -267 -25 -290 -63 -680 -9 -93 -16 -218 -14 -277 l2
-107 -33 16 c-18 9 -35 19 -38 23 -5 6 -28 20 -152 89 -62 34 -105 59 -181
103 -40 23 -89 50 -109 61 -31 16 -37 23 -33 45 5 33 23 221 30 322 10 134 17
215 20 240 2 14 9 102 15 195 13 218 16 235 44 235 24 0 86 35 86 49 0 6 13 6
33 0 17 -6 118 -12 222 -15z m-7164 0 c4 -2 10 -44 13 -94 4 -50 9 -103 11
-118 6 -57 16 -149 20 -197 2 -27 6 -84 10 -125 3 -41 10 -118 15 -170 6 -52
12 -120 15 -150 2 -30 9 -104 15 -165 14 -134 18 -268 11 -315 l-6 -35 -27 30
c-65 73 -75 96 -82 201 -4 54 -9 117 -11 139 -2 22 -9 94 -15 159 -6 65 -13
140 -15 165 -3 25 -12 134 -20 241 -9 107 -20 238 -25 290 -5 52 -10 110 -10
129 l0 33 48 -7 c26 -4 50 -9 53 -11z m7499 -16 c0 -18 -5 -76 -10 -128 -5
-52 -16 -183 -25 -290 -8 -107 -17 -216 -20 -241 -2 -25 -9 -100 -15 -165 -6
-65 -13 -137 -15 -159 -2 -22 -7 -85 -11 -139 -7 -105 -17 -128 -82 -201 l-27
-30 -6 35 c-7 47 -3 181 11 315 6 61 13 135 16 165 2 30 8 100 14 155 14 139
19 197 25 295 4 47 8 92 10 100 2 8 7 51 11 95 17 215 16 209 49 216 66 14 75
12 75 -23z m-3550 -8 c6 -10 10 -38 10 -62 1 -24 5 -63 11 -88 5 -25 10 -52
10 -60 0 -8 3 -22 6 -30 3 -8 6 -36 8 -62 3 -47 2 -48 -26 -49 -16 0 -137 -1
-269 -1 -132 0 -253 1 -269 1 -28 1 -29 2 -26 49 2 26 5 54 8 62 3 8 6 22 6
30 0 8 5 35 10 60 6 25 10 64 11 88 0 83 -11 80 260 80 222 0 241 -2 250 -18z
m72 -495 c22 -147 23 -141 -14 -151 -41 -12 -50 -50 -18 -79 27 -24 25 -37
-11 -89 -25 -35 -31 -54 -31 -96 0 -33 5 -56 13 -61 9 -6 10 -9 2 -9 -6 0 -15
5 -19 11 -4 8 -43 10 -120 6 l-114 -5 0 24 c0 13 -4 24 -10 24 -5 0 -10 -11
-10 -24 l0 -24 -114 5 c-77 4 -116 2 -120 -6 -4 -6 -13 -11 -19 -11 -8 0 -7 3
2 9 8 5 13 28 13 61 0 42 -6 61 -31 96 -36 52 -38 65 -11 89 30 27 23 66 -15
78 -16 5 -32 11 -33 13 -4 2 26 217 33 239 1 6 112 10 306 10 l304 -1 17 -109z
m-775 -177 c-3 -8 -6 -5 -6 6 -1 11 2 17 5 13 3 -3 4 -12 1 -19z m910 0 c-3
-8 -6 -5 -6 6 -1 11 2 17 5 13 3 -3 4 -12 1 -19z m-777 -13 c0 -12 -28 -35
-44 -35 -11 0 -6 26 6 38 17 17 38 15 38 -3z m684 -7 c5 -9 7 -20 4 -23 -10
-10 -48 14 -48 31 0 20 29 14 44 -8z m-733 -63 c32 4 39 2 39 -12 0 -9 12 -34
26 -54 14 -21 24 -46 22 -56 -2 -10 -24 -28 -50 -40 -39 -19 -74 -24 -192 -30
-205 -11 -244 -2 -230 57 8 35 33 56 76 64 51 9 88 -2 99 -31 12 -33 30 -20
22 17 -8 41 11 39 52 -5 24 -24 35 -30 38 -21 3 8 -1 22 -8 33 -20 25 -18 33
5 33 21 0 28 24 10 35 -20 13 1 24 26 15 14 -6 43 -8 65 -5z m830 -8 c-18 -18
-13 -37 9 -37 23 0 25 -8 5 -33 -7 -11 -11 -25 -8 -33 3 -9 14 -3 38 21 41 44
60 46 52 5 -8 -37 10 -50 22 -17 11 29 48 40 99 31 43 -8 68 -29 76 -64 14
-59 -25 -68 -230 -57 -118 6 -153 11 -192 30 -26 12 -48 30 -50 40 -2 10 8 35
22 56 14 20 26 45 26 54 0 14 7 16 39 12 22 -3 50 -1 63 4 27 10 44 3 29 -12z
m-951 -227 c-20 -13 -33 -13 -25 0 3 6 14 10 23 10 15 0 15 -2 2 -10z m1005 0
c8 -13 -5 -13 -25 0 -13 8 -13 10 2 10 9 0 20 -4 23 -10z m-3509 -306 c21 -38
51 -89 68 -114 72 -106 87 -167 47 -197 -9 -7 -11 -13 -6 -13 55 -6 75 -26 75
-76 l0 -33 -55 19 c-30 10 -55 16 -55 12 0 -3 -5 -1 -12 6 -7 7 -21 12 -33 12
-18 0 -18 -2 5 -15 41 -23 92 -45 104 -45 7 0 21 -6 32 -14 18 -14 18 -15 0
-22 -10 -4 -27 -2 -38 5 -11 7 -22 11 -24 8 -8 -8 22 -37 44 -40 34 -5 50 -25
26 -33 -10 -4 -21 -10 -24 -14 -3 -3 -20 -16 -38 -29 -27 -19 -38 -21 -60 -13
-33 12 -66 23 -69 23 -2 0 -18 6 -37 14 -54 23 -67 17 -16 -6 25 -12 56 -27
70 -34 14 -7 31 -10 39 -7 8 3 12 -1 9 -9 -3 -8 -15 -15 -27 -17 -12 -2 -27
-12 -34 -23 -6 -10 -18 -19 -25 -19 -21 0 -109 -48 -133 -72 -12 -13 -19 -17
-15 -10 11 20 -3 14 -42 -17 -20 -16 -59 -42 -87 -56 -27 -15 -64 -36 -82 -47
-31 -19 -31 -18 -38 2 -3 11 -11 20 -16 20 -5 0 -9 6 -9 13 0 14 -27 31 -67
42 -13 4 -23 2 -23 -2 0 -17 24 -33 48 -33 20 0 22 -4 17 -22 -10 -33 -63 -86
-115 -115 -25 -15 -70 -42 -100 -62 -30 -20 -70 -44 -89 -54 -36 -20 -92 -19
-99 1 -2 8 3 10 15 6 17 -5 17 -5 1 6 -26 16 -22 52 10 88 34 37 43 39 67 12
10 -11 22 -20 27 -20 13 0 9 22 -9 42 -15 17 -15 20 11 46 14 15 32 35 39 45
11 16 14 16 55 -4 24 -12 46 -19 49 -15 11 10 -29 46 -61 55 -19 5 -30 13 -27
22 2 8 4 20 4 27 0 7 16 12 43 12 31 0 51 7 72 25 22 18 32 22 35 13 5 -13 10
4 10 37 0 38 -5 46 -36 61 -30 14 -34 22 -45 82 -12 71 -8 200 8 242 10 27 32
145 32 173 -1 9 3 17 7 17 5 0 11 9 14 20 5 18 -4 25 -26 21 -5 -1 -6 3 -2 9
3 5 15 10 27 10 22 0 152 62 233 110 28 17 73 42 100 55 28 13 63 33 79 44
l29 19 43 -52 c24 -30 60 -84 80 -122z m6228 106 c39 -20 87 -47 106 -58 66
-40 198 -102 218 -102 12 0 24 -5 27 -10 4 -6 3 -10 -2 -9 -22 4 -31 -3 -26
-21 3 -11 9 -20 14 -20 4 0 8 -8 7 -17 0 -28 22 -146 32 -173 16 -42 20 -171
8 -242 -11 -60 -15 -68 -45 -82 -31 -15 -35 -23 -35 -61 0 -33 4 -50 9 -37 3
9 13 5 35 -13 21 -18 41 -25 72 -25 27 0 43 -5 43 -12 0 -7 2 -19 4 -27 3 -9
-8 -17 -27 -22 -32 -9 -72 -45 -61 -55 3 -4 25 3 49 15 41 20 44 20 55 4 7
-10 25 -30 39 -45 26 -26 26 -29 11 -46 -18 -20 -22 -42 -9 -42 5 0 17 9 27
20 24 27 33 25 67 -12 32 -36 36 -72 11 -88 -17 -11 -17 -11 0 -6 12 4 17 2
15 -6 -7 -20 -63 -21 -99 -1 -19 10 -59 34 -89 54 -30 20 -75 47 -100 62 -52
29 -105 82 -115 115 -5 18 -3 22 17 22 24 0 48 16 48 33 0 4 -10 6 -22 2 -41
-11 -68 -28 -68 -42 0 -7 -4 -13 -9 -13 -5 0 -13 -9 -16 -20 -7 -20 -7 -21
-38 -2 -18 11 -54 32 -82 47 -27 14 -67 40 -87 56 -39 31 -53 37 -42 17 4 -7
-3 -3 -15 10 -24 24 -112 72 -133 72 -7 0 -19 9 -25 19 -7 11 -22 21 -34 23
-12 2 -24 9 -27 17 -3 8 1 12 9 9 8 -3 25 0 39 7 14 7 45 22 70 34 51 23 38
29 -16 6 -19 -8 -38 -15 -42 -16 -13 -3 -36 -11 -64 -21 -22 -8 -33 -6 -60 13
-18 13 -35 26 -38 29 -3 4 -14 10 -24 14 -24 8 -8 28 26 33 22 3 52 32 44 40
-2 3 -13 -1 -24 -8 -11 -7 -28 -9 -38 -5 -18 7 -18 8 0 22 11 8 25 14 32 14
12 0 63 22 104 45 23 13 23 15 5 15 -12 0 -26 -5 -33 -12 -7 -7 -12 -9 -12 -6
0 4 -25 -2 -55 -12 l-55 -19 0 33 c0 50 20 70 75 76 6 0 3 6 -6 13 -40 30 -25
91 47 197 17 25 47 76 68 114 20 37 56 92 79 121 41 52 43 53 66 38 14 -9 57
-33 95 -53z m-5643 -396 c23 -52 21 -56 -51 -90 -19 -9 -63 -30 -98 -46 -34
-16 -70 -27 -80 -24 -25 8 -67 -16 -67 -38 0 -26 -50 -43 -71 -25 -11 9 -13
21 -8 38 7 28 7 76 -2 103 -4 12 6 23 35 38 22 11 47 32 54 46 l14 27 11 -32
c11 -30 19 -35 52 -32 9 1 21 -12 28 -31 8 -23 15 -29 22 -22 8 8 7 19 -1 38
-11 23 -10 28 7 40 17 13 21 12 37 -20 9 -19 22 -34 28 -34 13 0 2 39 -18 61
-12 14 -12 17 4 23 12 5 24 -1 38 -18 27 -34 38 -33 20 1 -11 21 -12 29 -2 35
21 14 28 9 48 -38z m4866 38 c10 -6 9 -14 -2 -35 -18 -34 -7 -35 20 -1 14 17
26 23 38 18 16 -6 16 -9 4 -23 -20 -22 -31 -61 -18 -61 6 0 19 15 28 34 16 32
20 33 37 20 17 -12 18 -17 7 -40 -8 -19 -9 -30 -1 -38 7 -7 14 -1 22 22 7 19
19 32 28 31 33 -3 41 2 52 32 l11 32 14 -27 c7 -14 32 -35 54 -46 29 -15 39
-26 35 -38 -9 -27 -9 -75 -2 -103 5 -17 3 -29 -8 -38 -21 -18 -71 -1 -71 25 0
22 -42 46 -67 38 -10 -3 -46 8 -80 24 -186 87 -175 78 -149 136 20 47 27 52
48 38z m-5107 -226 c0 -2 -7 -7 -16 -10 -8 -3 -12 -2 -9 4 6 10 25 14 25 6z
m5325 -6 c3 -6 -1 -7 -9 -4 -18 7 -21 14 -7 14 6 0 13 -4 16 -10z m-6255 -175
c10 -12 10 -19 2 -27 -14 -14 -17 -11 -26 20 -8 25 5 29 24 7z m7184 -7 c-9
-31 -12 -34 -26 -20 -8 8 -8 15 2 27 19 22 32 18 24 -7z m-7251 -65 c-7 -2
-21 -2 -30 0 -10 3 -4 5 12 5 17 0 24 -2 18 -5z m7330 0 c-7 -2 -21 -2 -30 0
-10 3 -4 5 12 5 17 0 24 -2 18 -5z"/>
<path d="M5155 8632 c-37 -6 -98 -57 -122 -101 -18 -36 -23 -59 -22 -120 1
-80 11 -120 44 -164 16 -21 34 -30 82 -39 56 -10 66 -9 98 8 26 14 39 30 47
57 16 54 -2 70 -39 35 -64 -59 -110 -63 -159 -14 -49 49 -47 131 2 98 7 -4 13
-16 15 -26 6 -30 53 -60 82 -52 41 10 58 34 55 75 l-3 36 -92 3 c-85 3 -93 4
-93 23 0 34 47 114 75 127 29 13 84 16 101 4 19 -12 34 -49 34 -81 0 -33 23
-43 34 -15 13 34 5 71 -24 106 -29 35 -64 48 -115 40z"/>
<path d="M5593 8632 c-59 -6 -109 -89 -87 -146 11 -28 34 -18 34 15 0 32 15
69 34 81 17 12 72 9 101 -4 28 -13 75 -93 75 -127 0 -19 -8 -20 -92 -23 l-93
-3 -3 -36 c-3 -41 14 -65 55 -75 29 -8 76 22 82 52 4 21 19 34 39 34 7 0 12
-14 12 -36 0 -28 -8 -44 -34 -70 -49 -49 -95 -45 -159 14 -37 35 -55 19 -39
-35 8 -27 21 -43 47 -57 32 -17 42 -18 98 -8 48 9 66 18 82 39 33 44 43 84 44
164 1 92 -25 150 -85 191 -43 29 -63 35 -111 30z"/>
<path d="M5310 8041 c0 -18 8 -19 90 -19 82 0 90 1 90 19 0 17 -8 19 -90 19
-82 0 -90 -2 -90 -19z"/>
<path d="M5355 4323 c4 -14 2 -23 -4 -23 -6 0 -11 -11 -11 -25 0 -14 5 -25 10
-25 6 0 10 9 10 20 0 11 7 23 15 26 8 4 15 11 15 17 0 6 -3 7 -7 4 -3 -4 -12
1 -20 11 -13 16 -14 15 -8 -5z"/>
<path d="M5434 4325 c-4 -8 -10 -12 -15 -9 -5 3 -9 1 -9 -4 0 -6 7 -12 15 -16
8 -3 15 -15 15 -26 0 -11 5 -20 10 -20 6 0 10 11 10 25 0 14 -5 25 -11 25 -6
0 -8 9 -4 20 7 23 -3 28 -11 5z"/>
<path d="M5311 4274 c0 -11 3 -14 6 -6 3 7 2 16 -1 19 -3 4 -6 -2 -5 -13z"/>
<path d="M5382 4235 c2 -41 7 -55 18 -55 11 0 16 14 18 55 3 50 1 55 -18 55
-19 0 -21 -5 -18 -55z"/>
<path d="M5481 4274 c0 -11 3 -14 6 -6 3 7 2 16 -1 19 -3 4 -6 -2 -5 -13z"/>
<path d="M2478 3503 c7 -3 16 -2 19 1 4 3 -2 6 -13 5 -11 0 -14 -3 -6 -6z"/>
<path d="M2472 3328 c6 -18 28 -21 28 -4 0 9 -7 16 -16 16 -9 0 -14 -5 -12
-12z"/>
<path d="M2490 3261 c0 -5 7 -12 16 -15 22 -9 24 -8 24 9 0 8 -9 15 -20 15
-11 0 -20 -4 -20 -9z"/>
<path d="M2205 3220 c-3 -5 1 -13 10 -16 22 -9 29 1 11 15 -10 8 -16 9 -21 1z"/>
<path d="M2270 3190 c0 -5 5 -10 10 -10 6 0 10 5 10 10 0 6 -4 10 -10 10 -5 0
-10 -4 -10 -10z"/>
<path d="M2080 3180 c0 -10 78 -35 99 -31 7 1 10 -2 6 -8 -3 -6 1 -11 9 -11 9
0 18 0 21 0 8 0 6 15 -2 16 -5 0 -15 3 -23 7 -55 21 -110 34 -110 27z"/>
<path d="M2300 3180 c0 -5 5 -10 10 -10 6 0 10 5 10 10 0 6 -4 10 -10 10 -5 0
-10 -4 -10 -10z"/>
<path d="M2335 3171 c-3 -6 0 -11 7 -11 7 0 23 -3 36 -6 12 -4 22 -2 22 3 0 5
-6 10 -12 10 -7 0 -20 4 -29 7 -10 4 -20 3 -24 -3z"/>
<path d="M2038 3143 c7 -3 16 -2 19 1 4 3 -2 6 -13 5 -11 0 -14 -3 -6 -6z"/>
<path d="M2076 3132 c-2 -4 7 -12 20 -19 13 -6 24 -8 24 -4 0 10 -39 31 -44
23z"/>
<path d="M2244 3121 c3 -5 16 -11 28 -14 22 -6 22 -5 4 8 -22 17 -40 20 -32 6z"/>
<path d="M1995 3077 c28 -20 95 -50 100 -46 7 8 -63 50 -91 55 -27 5 -28 4 -9
-9z"/>
<path d="M1850 3026 c0 -9 5 -16 10 -16 6 0 10 4 10 9 0 6 -4 13 -10 16 -5 3
-10 -1 -10 -9z"/>
<path d="M1670 2890 c0 -6 11 -15 24 -19 13 -5 26 -17 29 -25 4 -9 11 -16 17
-16 18 0 11 26 -13 48 -24 23 -57 30 -57 12z"/>
<path d="M8308 3503 c7 -3 16 -2 19 1 4 3 -2 6 -13 5 -11 0 -14 -3 -6 -6z"/>
<path d="M8300 3324 c0 -17 22 -14 28 4 2 7 -3 12 -12 12 -9 0 -16 -7 -16 -16z"/>
<path d="M8270 3255 c0 -17 2 -18 24 -9 23 9 20 24 -4 24 -11 0 -20 -7 -20
-15z"/>
<path d="M8570 3215 c-10 -12 -10 -15 3 -15 19 0 31 16 18 24 -5 3 -14 -1 -21
-9z"/>
<path d="M8510 3190 c0 -5 5 -10 10 -10 6 0 10 5 10 10 0 6 -4 10 -10 10 -5 0
-10 -4 -10 -10z"/>
<path d="M8480 3180 c0 -5 5 -10 10 -10 6 0 10 5 10 10 0 6 -4 10 -10 10 -5 0
-10 -4 -10 -10z"/>
<path d="M8670 3173 c-25 -8 -52 -17 -60 -20 -8 -4 -18 -7 -22 -7 -9 -1 -11
-16 -3 -16 3 0 12 0 21 0 8 0 12 5 9 11 -4 6 -1 9 6 8 22 -4 99 21 99 31 0 6
-1 10 -2 9 -2 0 -23 -7 -48 -16z"/>
<path d="M8430 3171 c-8 -6 -18 -7 -22 -5 -4 3 -8 0 -8 -7 0 -7 9 -9 23 -5 12
3 28 6 35 6 7 0 10 5 7 10 -8 12 -16 12 -35 1z"/>
<path d="M8748 3143 c7 -3 16 -2 19 1 4 3 -2 6 -13 5 -11 0 -14 -3 -6 -6z"/>
<path d="M8696 3124 c-26 -18 -17 -24 12 -8 13 6 20 14 15 17 -4 3 -17 -1 -27
-9z"/>
<path d="M8524 3115 c-18 -13 -18 -14 4 -8 12 3 25 9 28 14 8 14 -10 11 -32
-6z"/>
<path d="M8739 3061 c-21 -14 -36 -27 -34 -29 5 -5 70 24 99 44 38 26 -24 11
-65 -15z"/>
<path d="M8936 3031 c-4 -7 -5 -15 -2 -18 9 -9 19 4 14 18 -4 11 -6 11 -12 0z"/>
<path d="M9072 2877 c-12 -13 -22 -29 -22 -35 0 -17 20 -15 27 4 3 8 16 20 29
25 13 4 24 13 24 19 0 18 -36 10 -58 -13z"/>
<path d="M1952 7400 c-37 -23 -52 -48 -52 -90 0 -42 24 -35 28 8 4 34 33 62
67 62 24 0 58 -27 74 -57 10 -20 7 -24 -42 -47 -28 -14 -67 -29 -85 -32 -18
-4 -34 -10 -37 -14 -7 -12 33 -87 50 -94 47 -18 86 11 88 65 2 36 38 85 48 66
12 -22 21 -116 14 -147 -4 -19 -17 -36 -35 -45 -32 -16 -54 -12 -87 18 -28 25
-46 15 -31 -18 15 -33 61 -50 106 -39 79 20 103 118 61 248 -34 103 -106 153
-167 116z"/>
<path d="M8785 7407 c-49 -16 -81 -54 -104 -123 -42 -130 -18 -228 61 -248 45
-11 91 6 106 39 15 33 -3 43 -31 18 -33 -30 -55 -34 -87 -18 -18 9 -31 26 -35
45 -7 31 2 125 14 147 10 19 46 -30 48 -66 2 -54 41 -83 88 -65 17 7 57 82 50
94 -3 4 -19 10 -37 14 -18 3 -57 18 -85 32 -49 23 -52 27 -42 47 16 30 50 57
74 57 34 0 63 -28 67 -62 4 -44 28 -49 28 -6 0 64 -59 114 -115 95z"/>
<path d="M1659 7318 c-36 -40 -47 -73 -52 -167 -6 -89 2 -119 43 -171 40 -50
62 -56 134 -35 48 14 60 22 71 48 9 22 10 39 3 59 -10 29 -27 38 -29 16 0 -7
-2 -26 -2 -43 -2 -26 -7 -31 -39 -39 -25 -6 -50 -6 -77 2 -32 10 -42 19 -55
52 -22 55 -20 138 5 204 11 31 24 58 29 61 10 6 70 -55 70 -72 0 -18 27 -16
34 3 10 25 -67 114 -99 114 -3 0 -19 -14 -36 -32z"/>
<path d="M9074 7336 c-34 -24 -74 -83 -68 -100 7 -19 34 -21 34 -3 0 17 60 78
70 72 5 -3 18 -30 29 -61 25 -66 27 -149 5 -204 -13 -33 -23 -42 -55 -52 -27
-8 -52 -8 -77 -2 -32 8 -37 13 -39 39 0 17 -2 36 -2 43 -2 22 -19 13 -29 -16
-7 -20 -6 -37 3 -59 11 -26 23 -34 71 -48 72 -21 94 -15 134 35 41 52 49 82
43 171 -5 94 -16 127 -52 167 -34 36 -39 38 -67 18z"/>
<path d="M1731 7184 c-24 -13 -52 -24 -63 -24 -26 0 -22 -15 8 -28 14 -7 30
-26 36 -42 17 -49 71 -35 92 24 6 18 -12 97 -23 95 -3 0 -26 -11 -50 -25z"/>
<path d="M9001 7171 c-6 -21 -8 -47 -5 -57 21 -59 75 -73 92 -24 6 16 22 35
36 42 30 13 34 28 7 28 -10 0 -39 11 -65 25 -26 14 -48 25 -50 25 -2 0 -8 -18
-15 -39z"/>
<path d="M1946 6875 c-67 -28 -88 -43 -80 -57 7 -11 31 -5 111 30 59 25 75 44
42 49 -8 1 -40 -9 -73 -22z"/>
<path d="M8765 6890 c-4 -6 -5 -12 -4 -13 23 -14 129 -58 144 -60 40 -4 27 19
-26 45 -70 34 -105 43 -114 28z"/>
<path d="M1602 6359 c0 -16 4 -27 9 -24 11 8 12 42 1 49 -5 3 -9 -8 -10 -25z"/>
<path d="M9187 6383 c-10 -10 -8 -41 2 -48 5 -3 9 8 9 25 -1 33 -1 33 -11 23z"/>
<path d="M4580 4370 c19 -13 30 -13 30 0 0 6 -10 10 -22 10 -19 0 -20 -2 -8
-10z"/>
<path d="M6190 4370 c0 -13 11 -13 30 0 12 8 11 10 -7 10 -13 0 -23 -4 -23
-10z"/>
<path d="M4650 4330 c0 -5 5 -10 10 -10 6 0 10 5 10 10 0 6 -4 10 -10 10 -5 0
-10 -4 -10 -10z"/>
<path d="M6130 4330 c0 -5 5 -10 10 -10 6 0 10 5 10 10 0 6 -4 10 -10 10 -5 0
-10 -4 -10 -10z"/>
<path d="M4420 4299 c0 -5 5 -7 10 -4 6 3 10 8 10 11 0 2 -4 4 -10 4 -5 0 -10
-5 -10 -11z"/>
<path d="M6365 4300 c3 -5 8 -10 11 -10 2 0 4 5 4 10 0 6 -5 10 -11 10 -5 0
-7 -4 -4 -10z"/>
<path d="M4440 4286 c0 -3 14 -12 30 -21 27 -14 30 -14 30 0 0 8 -6 15 -14 15
-8 0 -21 3 -30 6 -9 3 -16 4 -16 0z"/>
<path d="M6323 4283 c-13 -2 -23 -11 -23 -19 0 -12 4 -12 30 1 28 14 40 27 23
24 -5 -1 -18 -4 -30 -6z"/>
<path d="M4510 4250 c0 -5 5 -10 11 -10 5 0 7 5 4 10 -3 6 -8 10 -11 10 -2 0
-4 -4 -4 -10z"/>
<path d="M6275 4250 c-3 -5 -1 -10 4 -10 6 0 11 5 11 10 0 6 -2 10 -4 10 -3 0
-8 -4 -11 -10z"/>
<path d="M4110 4232 c0 -11 41 -34 48 -27 4 4 -2 13 -12 21 -22 15 -36 18 -36
6z"/>
<path d="M4540 4231 c0 -6 4 -13 10 -16 6 -3 7 1 4 9 -7 18 -14 21 -14 7z"/>
<path d="M6246 4223 c-6 -14 -5 -15 5 -6 7 7 10 15 7 18 -3 3 -9 -2 -12 -12z"/>
<path d="M6654 4226 c-10 -8 -16 -17 -12 -21 7 -7 48 16 48 27 0 12 -14 9 -36
-6z"/>
<path d="M4180 4195 c0 -8 5 -15 11 -15 7 0 17 -6 23 -14 6 -7 25 -16 41 -20
28 -6 29 -5 11 9 -11 8 -25 15 -31 15 -6 0 -21 9 -33 20 -18 17 -22 18 -22 5z"/>
<path d="M4280 4205 c0 -2 18 -14 40 -25 22 -11 40 -16 40 -10 0 5 -16 17 -36
25 -40 16 -44 17 -44 10z"/>
<path d="M6473 4194 c-18 -8 -33 -19 -33 -24 0 -6 18 -1 40 10 59 30 54 41 -7
14z"/>
<path d="M6610 4201 c0 -5 -20 -18 -45 -30 -25 -12 -45 -23 -45 -26 0 -10 55
8 66 21 6 8 16 14 23 14 6 0 11 7 11 15 0 8 -2 15 -5 15 -3 0 -5 -4 -5 -9z"/>
<path d="M4375 4150 c3 -5 13 -10 21 -10 8 0 12 5 9 10 -3 6 -13 10 -21 10 -8
0 -12 -4 -9 -10z"/>
<path d="M6395 4150 c-3 -5 1 -10 9 -10 8 0 18 5 21 10 3 6 -1 10 -9 10 -8 0
-18 -4 -21 -10z"/>
<path d="M4416 4131 c-10 -16 47 -44 99 -49 27 -2 47 -1 43 3 -4 4 -22 9 -40
10 -17 2 -38 11 -45 21 -12 17 -13 17 -14 -2 0 -17 -1 -16 -9 4 -10 23 -25 29
-34 13z"/>
<path d="M6351 4118 c-8 -20 -10 -20 -10 -4 -1 19 -2 19 -14 2 -7 -10 -28 -19
-45 -21 -47 -3 -52 -15 -6 -15 59 0 133 45 95 58 -6 2 -15 -7 -20 -20z"/>
<path d="M4508 4123 c7 -3 16 -2 19 1 4 3 -2 6 -13 5 -11 0 -14 -3 -6 -6z"/>
<path d="M6278 4123 c7 -3 16 -2 19 1 4 3 -2 6 -13 5 -11 0 -14 -3 -6 -6z"/>
<path d="M4289 4109 c-10 -6 -7 -9 14 -9 29 0 35 5 14 13 -8 3 -20 1 -28 -4z"/>
<path d="M4340 4108 c0 -11 38 -10 44 1 3 5 -5 8 -19 7 -14 0 -25 -4 -25 -8z"/>
<path d="M6416 4109 c6 -11 44 -12 44 -1 0 4 -11 8 -25 8 -14 1 -22 -2 -19 -7z"/>
<path d="M6479 4109 c-10 -6 -7 -9 14 -9 29 0 35 5 14 13 -8 3 -20 1 -28 -4z"/>
<path d="M4570 4095 c0 -8 7 -15 15 -15 8 0 15 4 15 9 0 5 -7 11 -15 15 -9 3
-15 0 -15 -9z"/>
<path d="M6213 4103 c-18 -7 -16 -23 2 -23 8 0 15 7 15 15 0 8 -1 15 -2 14 -2
0 -9 -3 -15 -6z"/>
<path d="M1348 2813 c7 -3 16 -2 19 1 4 3 -2 6 -13 5 -11 0 -14 -3 -6 -6z"/>
<path d="M9438 2813 c7 -3 16 -2 19 1 4 3 -2 6 -13 5 -11 0 -14 -3 -6 -6z"/>
<path d="M1168 2798 c13 -13 71 -46 112 -64 19 -8 62 -28 94 -44 60 -30 92
-38 81 -20 -9 15 -257 137 -278 137 -10 0 -14 -4 -9 -9z"/>
<path d="M1375 2800 c-3 -5 -1 -10 4 -10 6 0 11 5 11 10 0 6 -2 10 -4 10 -3 0
-8 -4 -11 -10z"/>
<path d="M9410 2800 c0 -5 5 -10 11 -10 5 0 7 5 4 10 -3 6 -8 10 -11 10 -2 0
-4 -4 -4 -10z"/>
<path d="M9483 2746 c-67 -33 -128 -67 -135 -74 -22 -22 15 -14 78 18 32 16
75 36 94 44 40 18 99 51 111 63 26 26 -41 3 -148 -51z"/>
<path d="M1410 2780 c0 -5 5 -10 10 -10 6 0 10 5 10 10 0 6 -4 10 -10 10 -5 0
-10 -4 -10 -10z"/>
<path d="M9370 2780 c0 -5 5 -10 10 -10 6 0 10 5 10 10 0 6 -4 10 -10 10 -5 0
-10 -4 -10 -10z"/>
<path d="M1180 2699 c0 -5 5 -7 10 -4 6 3 10 8 10 11 0 2 -4 4 -10 4 -5 0 -10
-5 -10 -11z"/>
<path d="M9605 2700 c3 -5 8 -10 11 -10 2 0 4 5 4 10 0 6 -5 10 -11 10 -5 0
-7 -4 -4 -10z"/>
<path d="M1310 2640 c0 -5 5 -10 11 -10 5 0 7 5 4 10 -3 6 -8 10 -11 10 -2 0
-4 -4 -4 -10z"/>
<path d="M9475 2640 c-3 -5 -1 -10 4 -10 6 0 11 5 11 10 0 6 -2 10 -4 10 -3 0
-8 -4 -11 -10z"/>
<path d="M1150 2630 c20 -13 33 -13 25 0 -3 6 -14 10 -23 10 -15 0 -15 -2 -2
-10z"/>
<path d="M1340 2626 c0 -9 5 -16 10 -16 6 0 10 4 10 9 0 6 -4 13 -10 16 -5 3
-10 -1 -10 -9z"/>
<path d="M9446 2631 c-4 -7 -5 -15 -2 -18 9 -9 19 4 14 18 -4 11 -6 11 -12 0z"/>
<path d="M9625 2630 c-8 -13 5 -13 25 0 13 8 13 10 -2 10 -9 0 -20 -4 -23 -10z"/>
</g>
</svg>
