<?xml version="1.0" standalone="no"?>
<!DOCTYPE svg PUBLIC "-//W3C//DTD SVG 20010904//EN"
 "http://www.w3.org/TR/2001/REC-SVG-20010904/DTD/svg10.dtd">
<svg version="1.0" xmlns="http://www.w3.org/2000/svg"
 width="8080.000000pt" height="6052.000000pt" viewBox="0 0 8080.000000 6052.000000"
 preserveAspectRatio="xMidYMid meet">
<metadata>
Created by potrace 1.16, written by Peter Selinger 2001-2019
</metadata>
<g transform="translate(0.000000,6052.000000) scale(0.100000,-0.100000)"
fill="#000000" stroke="none">
<path d="M69675 60503 c-118 -43 -201 -116 -251 -222 -37 -77 -43 -175 -50
-793 l-6 -508 -82 0 c-100 0 -314 -15 -506 -36 -1873 -201 -3692 -1088 -5085
-2479 -1055 -1054 -1789 -2315 -2140 -3680 -77 -297 -155 -710 -155 -816 0
-120 74 -268 166 -331 76 -53 133 -72 230 -76 125 -6 172 10 333 113 414 263
858 415 1378 470 182 19 543 19 729 0 672 -71 1278 -308 1797 -703 144 -110
186 -126 317 -127 126 0 152 10 337 133 748 495 1612 648 2457 435 149 -37
384 -115 488 -161 l63 -29 1 -3639 c1 -2135 5 -3675 10 -3726 l10 -88 -37 0
c-20 0 -50 -3 -66 -6 l-30 -6 -6 -231 c-15 -518 27 -1019 112 -1350 85 -326
189 -513 410 -735 339 -339 678 -537 1020 -596 119 -20 322 -21 434 -1 512 89
999 510 1311 1132 172 344 266 757 236 1033 -28 253 -125 408 -300 481 -49 21
-71 24 -200 24 -122 0 -158 -4 -230 -24 -229 -64 -317 -142 -384 -341 -13 -41
-45 -177 -70 -302 -64 -318 -113 -432 -218 -508 -126 -92 -359 -93 -529 -4
-217 114 -333 362 -383 819 -18 157 -36 433 -36 541 l0 72 -31 6 c-17 3 -64 6
-103 6 l-72 0 -4 383 c-3 210 -4 1831 -2 3601 l3 3220 107 70 c376 247 861
408 1377 456 162 15 504 12 673 -5 486 -51 912 -198 1276 -442 166 -111 208
-126 341 -121 l94 3 178 91 c342 176 616 264 983 316 146 20 593 17 745 -5
275 -41 532 -116 775 -226 83 -38 161 -66 202 -73 222 -39 436 113 477 337 25
134 -47 760 -133 1159 -128 592 -313 1113 -586 1651 -655 1292 -1710 2371
-3100 3167 -201 116 -667 346 -890 441 -837 355 -1743 589 -2600 672 -91 9
-185 18 -209 21 l-44 6 7 441 c11 749 11 764 -12 829 -40 112 -111 190 -222
242 -56 26 -79 31 -160 33 -72 3 -107 -1 -145 -14z m-785 -2407 c-8 -7 -79
-68 -158 -135 -1447 -1234 -2322 -2891 -2621 -4964 -16 -111 -37 -278 -47
-372 -10 -93 -19 -171 -20 -173 -1 -2 -83 37 -182 86 -462 230 -933 369 -1472
438 -198 25 -713 30 -930 9 -316 -30 -637 -95 -914 -186 -66 -21 -121 -38
-123 -36 -2 2 22 82 53 178 420 1302 1231 2480 2351 3416 941 786 2085 1356
3251 1619 251 56 687 129 797 133 25 1 27 -1 15 -13z m1615 -326 c459 -340
928 -795 1311 -1270 726 -901 1309 -2023 1704 -3281 56 -178 170 -581 170
-600 0 -4 -26 1 -57 12 -256 89 -619 162 -936 188 -186 16 -577 14 -763 -4
-466 -45 -868 -147 -1269 -325 -71 -32 -131 -57 -132 -56 -10 9 -84 1411 -148
2801 -49 1077 -85 1783 -118 2352 l-22 371 65 -46 c36 -25 124 -89 195 -142z
m1344 45 c1520 -454 2850 -1327 3764 -2470 495 -619 863 -1315 1080 -2045 77
-258 179 -711 164 -726 -3 -3 -57 6 -120 20 -296 67 -557 91 -902 83 -268 -6
-441 -25 -670 -72 -141 -29 -391 -99 -496 -139 l-66 -25 -71 287 c-462 1847
-1269 3438 -2361 4656 -64 72 -190 206 -281 298 -91 92 -163 168 -161 168 2 0
56 -16 120 -35z m-2385 -920 c15 -280 42 -850 61 -1265 76 -1641 108 -2285
139 -2800 7 -118 12 -216 11 -218 -2 -2 -47 10 -102 27 -839 258 -1749 232
-2552 -74 -63 -24 -117 -42 -120 -40 -7 7 38 333 79 582 295 1753 1070 3169
2310 4220 114 96 136 111 142 96 3 -10 18 -247 32 -528z"/>
<path d="M29140 59004 c-1177 -67 -2251 -648 -2841 -1537 -110 -166 -246 -445
-308 -632 -97 -296 -134 -521 -135 -842 -1 -135 -5 -213 -11 -213 -5 0 -75 9
-155 21 -188 26 -618 37 -822 20 -1605 -136 -2882 -1309 -3070 -2821 -19 -156
-16 -574 5 -729 61 -434 186 -781 397 -1098 404 -610 1064 -995 1802 -1053
416 -32 3690 -51 5438 -31 2241 26 4851 80 5025 105 342 50 649 164 921 345
627 416 953 1034 1004 1904 47 775 -206 1555 -693 2137 -509 610 -1236 980
-2160 1101 -278 37 -862 38 -1173 2 l-51 -5 -6 203 c-29 1003 -360 1823 -958
2376 -434 402 -1003 654 -1639 727 -129 15 -455 26 -570 20z m350 -844 c1086
-82 1778 -758 1944 -1900 31 -217 39 -394 31 -680 -5 -151 -9 -327 -9 -391 -1
-114 0 -116 37 -191 62 -127 170 -206 310 -228 60 -9 90 -7 280 25 376 62 474
70 867 70 362 0 414 -4 660 -46 1069 -184 1784 -891 1926 -1904 20 -141 22
-435 5 -570 -42 -325 -136 -589 -278 -780 -205 -276 -518 -468 -863 -530 -109
-19 -1276 -48 -3410 -85 -2481 -42 -6429 -36 -6942 10 -612 56 -1129 464
-1323 1044 -188 560 -119 1192 187 1726 346 603 963 1046 1670 1199 190 41
293 52 524 58 389 9 695 -36 1079 -162 114 -38 150 -45 214 -45 98 0 163 19
240 71 143 95 213 287 167 454 -52 192 -69 264 -86 370 -63 398 -11 761 160
1110 331 676 1087 1193 1964 1340 244 41 430 51 646 35z"/>
<path d="M52575 56476 c-66 -21 -106 -46 -163 -100 -61 -58 -104 -135 -121
-216 -13 -68 -31 -555 -31 -864 l0 -229 -752 7 c-1128 10 -1764 22 -4093 76
-2991 70 -3986 86 -5560 92 l-810 3 -57 -23 c-122 -49 -207 -131 -250 -242
-18 -48 -22 -85 -29 -285 -13 -407 -31 -2819 -27 -3845 l3 -995 32 -67 c36
-76 105 -156 167 -192 97 -57 52 -55 1321 -66 644 -5 1654 -14 2245 -20 2776
-26 3773 -32 5723 -32 l2099 -1 -3 -571 c-2 -537 -1 -574 16 -616 43 -104 126
-193 223 -238 51 -24 68 -27 172 -27 177 0 116 -41 940 620 1130 906 1914
1561 3345 2798 636 550 588 505 632 594 37 75 38 80 38 187 0 100 -3 117 -27
168 -40 87 -62 111 -333 372 -1011 973 -2129 1923 -3965 3371 -429 338 -448
349 -595 352 -61 2 -115 -3 -140 -11z m947 -1588 c1259 -1008 2204 -1817 2960
-2533 l118 -111 -248 -214 c-1113 -964 -1940 -1660 -2812 -2366 -190 -153
-365 -294 -389 -313 l-43 -34 4 324 3 324 -34 69 c-47 96 -153 206 -240 248
l-66 33 -2280 1 c-2113 2 -3581 10 -5995 34 -525 5 -1378 12 -1895 15 -517 3
-973 8 -1014 11 l-74 6 6 1597 c4 878 10 1782 14 2009 l6 412 601 0 c604 0
1536 -11 2546 -30 630 -12 969 -19 2705 -60 2529 -59 3070 -69 4330 -76 l1000
-7 64 22 c147 51 251 166 280 311 9 45 31 485 31 623 0 28 3 36 13 31 6 -5
191 -151 409 -326z"/>
<path d="M45490 53819 c-123 -24 -236 -115 -293 -237 -31 -66 -31 -69 -39
-282 -9 -248 -38 -1926 -38 -2166 0 -204 22 -275 114 -372 83 -88 186 -126
324 -120 83 3 106 8 163 36 119 57 208 176 229 309 6 32 10 146 10 253 0 107
3 279 7 383 l6 187 356 0 356 0 -3 -406 c-3 -386 -2 -410 17 -474 36 -119 116
-207 236 -262 43 -20 66 -23 165 -23 110 0 119 2 181 32 117 58 205 170 228
290 5 26 12 275 15 553 3 278 11 817 17 1199 13 754 12 775 -39 880 -76 156
-264 252 -436 223 -163 -27 -284 -128 -335 -280 -18 -53 -21 -86 -21 -244 0
-101 -3 -288 -7 -415 l-6 -233 -356 0 -356 0 7 392 c5 271 4 410 -3 448 -46
229 -266 375 -499 329z"/>
<path d="M48340 53818 c-101 -17 -223 -103 -276 -193 -54 -93 -52 -73 -58
-812 -3 -378 -8 -940 -12 -1248 -7 -556 -7 -562 14 -632 37 -122 116 -209 237
-265 42 -19 67 -23 160 -23 61 0 386 -5 724 -13 551 -11 620 -11 675 3 381 97
427 620 69 787 -63 30 -75 32 -237 39 -94 4 -314 11 -488 15 l-318 6 0 129 c0
87 4 129 11 129 6 0 129 9 273 20 180 14 282 27 327 40 241 72 359 354 245
585 -59 119 -163 198 -295 226 -41 8 -102 7 -270 -5 -119 -9 -228 -19 -243
-21 l-28 -4 0 199 0 200 458 0 c496 0 515 2 608 56 53 31 126 109 155 165 129
253 -17 560 -291 609 -64 11 -1378 19 -1440 8z"/>
<path d="M52602 53819 c-146 -28 -274 -146 -316 -288 -14 -47 -16 -124 -16
-521 0 -257 -3 -508 -6 -558 l-7 -91 -167 222 c-300 400 -491 676 -645 932
-43 72 -99 152 -124 178 -90 94 -233 141 -363 119 -184 -32 -319 -166 -347
-343 -5 -35 -12 -343 -15 -684 -3 -341 -9 -872 -12 -1180 -5 -420 -4 -574 5
-617 29 -135 113 -242 239 -301 62 -30 75 -32 172 -32 97 0 110 2 171 31 114
54 190 138 228 252 20 58 21 85 22 454 1 216 4 453 8 526 l6 133 180 -241
c251 -338 415 -574 547 -788 141 -229 162 -258 223 -304 78 -59 157 -81 273
-76 83 3 106 8 163 36 120 57 209 178 229 309 26 175 48 836 56 1688 5 551 4
747 -5 799 -42 239 -263 392 -499 345z"/>
<path d="M42340 53811 c-214 -9 -259 -22 -354 -111 -230 -216 -158 -582 138
-704 49 -20 64 -21 444 -18 l392 4 0 -49 c0 -26 -7 -471 -15 -988 -9 -601 -10
-958 -4 -990 49 -259 344 -409 584 -296 73 34 153 104 189 165 57 98 55 72 71
1106 8 525 15 976 15 1003 l0 47 158 0 c86 0 230 -5 319 -10 178 -11 234 -5
320 35 76 34 157 115 196 194 30 63 32 72 32 181 0 109 -2 119 -32 182 -62
131 -181 216 -334 239 -84 13 -1825 21 -2119 10z"/>
<path d="M10780 55775 c-189 -41 -318 -135 -389 -285 -22 -48 -26 -68 -26
-155 0 -95 2 -104 37 -178 69 -145 196 -240 382 -287 70 -18 112 -20 373 -20
l293 0 0 -2235 0 -2234 -77 5 c-125 9 -549 -12 -618 -30 -260 -70 -416 -277
-378 -502 33 -191 187 -336 420 -395 80 -20 101 -20 1195 -17 l1113 3 100 34
c175 61 285 153 352 296 25 53 28 72 28 155 0 87 -3 101 -32 160 -63 126 -165
215 -301 262 -60 21 -85 23 -247 23 -99 0 -251 -4 -337 -9 l-158 -9 0 2246 0
2247 281 0 c307 0 344 5 468 61 139 63 243 173 281 296 25 81 25 134 1 212
-41 133 -142 241 -298 318 l-96 48 -1151 2 c-947 1 -1163 -1 -1216 -12z"/>
<path d="M17805 55735 c-193 -26 -364 -36 -775 -45 -1347 -31 -1686 -48 -2105
-106 -168 -23 -186 -28 -271 -69 -107 -52 -188 -126 -228 -207 -65 -134 -48
-332 41 -480 131 -219 168 -528 156 -1309 l-6 -426 -58 -37 c-202 -131 -269
-338 -173 -534 29 -60 146 -189 200 -223 l34 -21 0 -1307 c0 -1445 -4 -1356
65 -1497 58 -120 190 -222 325 -253 66 -15 208 -13 274 4 140 37 278 140 329
246 65 134 61 45 65 1445 l3 1271 557 6 c763 9 1030 26 1323 83 328 63 568
163 692 288 168 168 164 447 -10 606 -100 92 -230 138 -408 147 -99 4 -121 2
-230 -25 -369 -94 -712 -131 -1360 -147 -121 -3 -298 -8 -392 -11 l-173 -5 2
553 c1 578 -5 706 -43 907 -11 57 -18 106 -15 109 13 12 216 21 491 22 351 0
1306 26 1500 40 207 15 422 39 490 56 98 24 233 94 302 157 148 137 190 342
106 514 -32 65 -120 151 -192 187 -125 64 -324 87 -516 61z"/>
<path d="M24785 49362 c-120 -41 -196 -109 -249 -221 -26 -56 -32 -80 -34
-158 -3 -69 1 -107 14 -150 13 -42 128 -224 427 -678 225 -341 427 -639 450
-663 86 -88 229 -134 358 -115 269 42 428 321 326 571 -26 64 -811 1258 -860
1310 -45 47 -113 88 -176 106 -72 21 -192 20 -256 -2z"/>
<path d="M33210 49266 c-218 -47 -359 -258 -322 -478 7 -38 22 -88 34 -111 44
-88 925 -1412 966 -1453 23 -24 72 -58 109 -76 57 -28 79 -33 158 -36 114 -5
178 12 264 69 153 102 219 302 158 479 -31 91 -914 1432 -990 1504 -58 55
-128 91 -207 106 -65 12 -100 12 -170 -4z"/>
<path d="M30448 49181 c-125 -32 -233 -129 -278 -248 -42 -110 -36 -251 14
-345 44 -82 909 -1333 955 -1381 90 -94 193 -133 328 -124 291 18 475 322 356
588 -33 73 -929 1370 -979 1416 -52 48 -126 86 -202 102 -71 15 -114 13 -194
-8z"/>
<path d="M27775 49026 c-158 -38 -271 -149 -311 -306 -22 -87 -14 -191 19
-264 28 -61 830 -1384 883 -1457 175 -241 579 -197 709 76 54 115 54 259 -1
367 -14 27 -214 361 -445 741 -449 740 -461 757 -571 811 -91 44 -188 55 -283
32z"/>
<path d="M27393 46255 c-237 -66 -366 -302 -294 -533 13 -42 139 -257 421
-714 344 -559 411 -662 465 -714 89 -87 146 -108 290 -109 99 0 116 3 168 27
194 91 293 318 224 518 -15 44 -152 275 -421 710 -219 355 -409 660 -423 678
-35 46 -108 98 -173 123 -71 27 -188 34 -257 14z"/>
<path d="M32985 45911 c-50 -12 -118 -46 -160 -80 -150 -121 -199 -341 -114
-510 48 -93 829 -1113 891 -1162 92 -72 237 -105 349 -79 267 62 407 357 285
600 -26 52 -787 1053 -850 1118 -50 52 -104 85 -175 106 -56 16 -172 20 -226
7z"/>
<path d="M30180 45854 c-240 -65 -371 -337 -274 -569 27 -66 817 -1258 867
-1308 27 -28 75 -61 115 -80 63 -30 74 -32 178 -32 107 0 112 1 186 38 199 98
288 340 200 540 -35 78 -810 1248 -864 1303 -104 108 -258 148 -408 108z"/>
<path d="M26935 40883 c-118 -42 -201 -115 -252 -222 -22 -46 -28 -74 -31
-152 l-4 -95 532 -1980 c354 -1319 540 -1995 557 -2027 15 -26 50 -70 80 -98
245 -232 655 -91 702 241 4 36 5 90 1 120 -12 85 -1055 3954 -1080 4005 -37
75 -104 141 -187 182 -69 34 -84 38 -172 40 -73 3 -108 -1 -146 -14z"/>
<path d="M33256 38630 c-73 -26 -132 -66 -182 -124 -48 -54 -1319 -2423 -1341
-2498 -11 -35 -14 -79 -11 -142 5 -112 34 -181 108 -260 129 -136 326 -172
496 -89 125 60 98 16 801 1329 353 659 650 1217 659 1239 41 99 26 261 -33
362 -38 65 -134 148 -200 174 -85 32 -218 36 -297 9z"/>
<path d="M23099 37687 c-109 -31 -207 -115 -261 -224 -59 -120 -49 -294 24
-408 23 -36 1542 -1650 1776 -1888 71 -72 114 -106 162 -130 61 -30 70 -32
180 -32 103 0 121 3 170 26 226 107 314 365 201 586 -12 24 -58 82 -103 130
-46 49 -462 490 -926 980 -835 883 -844 893 -919 930 -68 34 -84 37 -167 40
-53 2 -110 -3 -137 -10z"/>
<path d="M37495 36876 c-27 -7 -66 -21 -85 -31 -82 -42 -3460 -2312 -3503
-2354 -182 -175 -153 -496 59 -642 101 -70 259 -90 378 -49 78 27 3491 2310
3558 2381 224 235 99 631 -220 698 -66 14 -123 13 -187 -3z"/>
<path d="M63350 35865 c-8 -2 -49 -9 -90 -15 -225 -36 -476 -159 -653 -321
-71 -64 -299 -344 -564 -691 -670 -876 -1314 -1851 -1852 -2803 l-142 -250
-40 -7 c-159 -28 -302 -177 -329 -342 -18 -114 50 -847 115 -1236 66 -392 91
-473 172 -560 91 -99 219 -148 355 -137 l67 6 6 -57 c146 -1292 633 -2383
1430 -3201 790 -812 1812 -1300 2985 -1428 206 -22 767 -25 960 -5 281 30 516
71 765 134 1430 362 2563 1349 3096 2697 149 377 252 761 309 1151 11 80 23
160 26 178 l5 32 299 0 299 0 11 -57 c62 -328 126 -579 210 -833 422 -1281
1277 -2281 2438 -2854 648 -319 1324 -484 2067 -502 1540 -40 2971 620 3881
1787 590 757 956 1762 1024 2814 6 94 13 207 16 251 l6 82 59 11 c160 32 360
184 434 331 53 105 79 363 79 790 0 444 -30 769 -79 878 -49 108 -174 206
-293 231 -29 6 -111 11 -181 11 l-129 0 -160 268 c-644 1074 -1386 2120 -2162
3052 -221 264 -352 376 -551 469 -185 86 -327 120 -539 127 -252 9 -437 -29
-655 -135 -140 -69 -253 -149 -359 -256 -101 -102 -1071 -1424 -1137 -1550
-26 -49 -60 -130 -75 -180 -26 -84 -28 -102 -28 -270 0 -213 14 -279 94 -440
144 -291 407 -482 775 -561 122 -26 369 -24 502 4 271 58 507 190 690 386 72
77 115 137 257 364 l53 84 146 -204 c352 -489 815 -1143 812 -1146 -3 -3 -965
9 -2715 33 -2288 32 -2610 36 -3972 45 -2560 18 -5035 -14 -7373 -95 -693 -24
-1246 -45 -1297 -49 -27 -1 -48 -1 -48 1 0 2 55 84 123 181 68 97 250 362 405
589 416 607 428 625 439 610 6 -6 46 -73 91 -147 44 -74 111 -173 148 -218
182 -227 446 -382 755 -443 103 -21 356 -16 465 9 267 61 482 188 630 375 241
304 280 743 98 1086 -58 111 -985 1417 -1071 1510 -181 197 -379 314 -643 383
-100 26 -136 30 -280 33 -91 2 -172 2 -180 0z m253 -850 c85 -22 154 -61 211
-119 60 -61 953 -1324 974 -1378 55 -139 -135 -263 -327 -214 -87 22 -152 60
-209 120 -31 32 -139 203 -297 466 -193 323 -260 427 -302 468 -152 149 -390
159 -562 23 -61 -49 -377 -489 -926 -1291 -354 -516 -518 -752 -739 -1057
-149 -207 -134 -197 -293 -191 l-81 3 172 286 c537 893 1084 1685 1725 2499
178 225 255 308 319 343 101 55 226 71 335 42z m13170 0 c89 -23 176 -72 237
-134 60 -61 304 -357 531 -646 516 -656 1043 -1409 1490 -2127 l98 -158 -144
0 -143 0 -185 248 c-101 136 -336 461 -522 722 -678 952 -992 1377 -1070 1449
-90 83 -227 123 -346 102 -83 -14 -173 -59 -227 -113 -26 -26 -149 -211 -305
-463 -186 -298 -277 -435 -314 -472 -99 -97 -252 -148 -379 -124 -76 14 -148
47 -183 85 -33 35 -41 115 -16 153 10 16 227 314 482 663 273 372 489 658 523
691 121 118 309 167 473 124z m-4433 -3826 c509 -5 1566 -18 2350 -29 2379
-33 2939 -39 4121 -46 l1136 -7 7 -81 c8 -105 8 -306 0 -385 l-7 -61 -66 0
c-254 -1 -417 -98 -487 -290 -13 -38 -16 -104 -19 -415 -3 -393 -15 -562 -61
-865 -169 -1109 -692 -2020 -1517 -2638 -304 -229 -708 -438 -1086 -562 -851
-281 -1755 -279 -2606 5 -446 148 -846 365 -1215 659 -154 123 -467 434 -583
580 -498 627 -806 1371 -927 2241 -34 246 -40 276 -68 334 -35 76 -116 154
-199 194 l-68 32 -690 -3 c-379 -2 -736 -8 -792 -12 -150 -12 -241 -60 -325
-172 -54 -71 -74 -153 -88 -348 -57 -817 -305 -1551 -721 -2132 -618 -862
-1531 -1384 -2669 -1525 -198 -24 -703 -24 -900 0 -893 111 -1646 450 -2278
1026 -428 390 -796 933 -1021 1506 -202 513 -311 1021 -355 1655 -11 151 -19
208 -35 252 -41 107 -129 196 -239 240 -49 19 -74 22 -184 22 l-126 -1 -11 61
c-14 79 -48 357 -57 464 -5 62 -4 82 6 82 6 0 242 11 523 25 3766 183 7015
239 11257 194z"/>
<path d="M67695 30643 c-358 -3 -1559 -22 -2140 -33 -1180 -24 -1724 -31
-2851 -39 -663 -5 -1207 -11 -1208 -13 -1 -1 1 -111 5 -243 26 -845 197 -1589
513 -2232 561 -1140 1544 -1861 2766 -2029 157 -21 602 -30 767 -15 310 29
564 81 848 176 382 128 709 297 1017 528 864 646 1375 1597 1503 2797 23 209
30 626 16 865 -7 110 -15 210 -18 223 l-5 22 -477 -2 c-262 -2 -593 -4 -736
-5z"/>
<path d="M77405 30639 c-352 -4 -1133 -17 -1735 -28 -1584 -30 -2341 -41
-2975 -41 -308 0 -685 -3 -837 -7 l-278 -6 0 -126 c0 -153 15 -406 36 -601
148 -1411 739 -2520 1699 -3185 379 -263 849 -461 1304 -549 273 -54 354 -61
706 -60 345 0 429 6 685 55 1024 196 1899 808 2433 1704 291 487 471 1039 549
1685 18 149 22 232 22 555 1 209 -3 433 -7 498 l-9 117 -476 -2 c-263 -1 -765
-5 -1117 -9z"/>
<path d="M29135 35409 c-981 -58 -1912 -451 -2680 -1129 -136 -121 -362 -352
-474 -485 -588 -703 -945 -1500 -1062 -2370 -26 -195 -37 -616 -20 -817 75
-905 431 -1755 1046 -2500 135 -164 451 -481 605 -609 668 -553 1406 -899
2180 -1023 261 -42 372 -50 655 -50 377 1 658 36 1009 125 1298 332 2441 1271
3048 2504 217 441 349 884 415 1390 25 199 25 719 0 920 -68 526 -206 983
-437 1445 -237 477 -526 876 -910 1260 -373 373 -748 647 -1205 880 -687 350
-1417 504 -2170 459z m631 -854 c1504 -176 2856 -1426 3198 -2958 45 -199 67
-378 73 -602 16 -568 -104 -1078 -383 -1625 -298 -585 -755 -1099 -1314 -1476
-499 -337 -1005 -532 -1585 -610 -157 -21 -560 -24 -705 -6 -334 43 -592 108
-875 219 -1240 488 -2194 1640 -2404 2905 -31 186 -41 312 -41 513 0 282 31
527 100 800 328 1292 1348 2360 2603 2724 230 67 492 114 736 131 156 11 436
3 597 -15z"/>
<path d="M53060 34629 c-161 -31 -300 -175 -330 -340 -11 -62 -30 -635 -30
-903 l0 -179 -662 7 c-1228 12 -1968 26 -4098 76 -1696 40 -2074 48 -2680 60
-954 18 -2000 30 -2890 33 l-885 2 -58 -22 c-113 -43 -205 -133 -250 -246 -18
-46 -21 -83 -28 -337 -12 -479 -31 -3167 -27 -3995 l3 -780 24 -58 c46 -116
148 -210 264 -246 69 -21 -272 -16 3152 -46 3317 -30 4152 -35 6128 -35 l2019
0 -2 -567 c-2 -507 -1 -573 14 -613 42 -113 114 -191 224 -243 62 -30 75 -32
172 -32 174 1 121 -33 790 501 1258 1003 2160 1759 3936 3300 202 175 240 245
232 422 -7 158 -18 175 -287 442 -521 517 -1253 1173 -2101 1881 -828 691
-2272 1842 -2366 1885 -86 40 -172 51 -264 33z m788 -1506 c1231 -982 2211
-1816 2985 -2541 199 -186 208 -196 190 -212 -24 -23 -462 -401 -858 -741
-854 -734 -1595 -1350 -2574 -2138 l-44 -36 7 302 c7 266 6 309 -9 360 -39
137 -176 282 -310 327 -45 16 -219 17 -2305 17 -1240 -1 -2784 3 -3430 9
-3739 30 -4929 41 -5219 46 l-324 6 6 1457 c4 801 10 1707 14 2014 l6 558 611
-6 c1870 -18 2595 -31 5111 -90 2586 -61 3464 -76 4625 -78 l875 -2 67 32 c92
43 160 110 203 197 42 84 50 151 61 524 3 127 8 232 11 232 2 0 138 -107 301
-237z"/>
<path d="M45915 31957 c-121 -31 -223 -117 -278 -234 l-31 -67 -7 -235 c-4
-130 -15 -697 -25 -1261 -19 -1159 -23 -1081 59 -1202 50 -72 140 -139 219
-163 153 -45 329 3 437 120 85 92 111 181 111 380 0 78 3 257 7 398 l6 257
356 0 356 0 0 -428 0 -428 38 -76 c46 -94 129 -176 214 -209 48 -20 76 -24
168 -24 103 0 114 2 176 32 63 31 139 98 179 158 43 63 60 148 60 289 -1 72 7
616 17 1208 13 806 14 1094 6 1142 -40 236 -252 388 -485 348 -139 -24 -249
-109 -311 -240 l-32 -67 -6 -395 c-4 -217 -7 -412 -8 -432 l-1 -38 -357 0
-356 0 7 408 c7 393 6 409 -14 474 -53 173 -197 284 -380 294 -42 2 -97 -2
-125 -9z"/>
<path d="M48756 31955 c-111 -29 -223 -124 -274 -232 l-27 -58 -7 -775 c-5
-426 -9 -1005 -10 -1285 l-3 -511 38 -76 c46 -94 129 -175 214 -210 53 -21 71
-23 208 -21 83 1 403 -4 713 -11 628 -16 649 -14 750 46 210 126 266 415 120
612 -49 66 -137 129 -212 151 -50 15 -522 34 -865 35 l-134 0 6 127 c4 69 9
128 11 130 2 2 116 13 252 23 287 23 340 31 409 65 69 34 150 117 188 195 30
61 32 70 32 180 0 104 -3 121 -27 173 -36 76 -123 166 -194 201 -95 47 -147
51 -381 33 -114 -10 -223 -17 -240 -17 l-33 0 0 195 0 194 478 3 478 3 75 37
c93 46 158 112 202 206 30 62 32 75 32 172 0 97 -2 110 -32 172 -44 94 -109
160 -202 206 l-75 37 -185 2 c-610 8 -1269 7 -1305 -2z"/>
<path d="M53020 31956 c-141 -41 -244 -139 -289 -274 -20 -59 -21 -82 -21
-629 l0 -567 -212 285 c-300 402 -540 753 -657 961 -87 155 -237 238 -406 225
-172 -13 -303 -111 -366 -276 -26 -66 -23 18 -40 -1466 -9 -805 -9 -1033 1
-1080 18 -88 56 -160 115 -220 224 -224 609 -128 699 174 13 44 16 111 17 350
1 163 4 399 8 526 l6 229 186 -249 c304 -410 453 -626 614 -895 81 -134 131
-187 222 -232 121 -59 290 -50 405 23 96 62 166 164 187 274 11 55 25 288 42
695 6 146 12 618 13 1050 1 775 1 786 -20 836 -48 116 -135 204 -241 244 -72
27 -199 35 -263 16z"/>
<path d="M42695 31951 c-122 -9 -190 -37 -269 -111 -193 -183 -174 -494 40
-646 26 -19 72 -44 103 -56 55 -21 66 -21 444 -19 l387 3 -1 -134 c0 -73 -6
-515 -13 -983 -7 -467 -9 -872 -4 -899 18 -117 110 -241 219 -296 232 -118
518 1 596 248 12 38 17 204 28 922 8 481 14 935 15 1008 l0 132 198 -1 c108 0
248 -4 311 -8 198 -13 295 14 396 110 250 236 122 653 -220 720 -68 13 -2054
22 -2230 10z"/>
<path d="M10820 34369 c-36 -4 -102 -20 -146 -34 -235 -73 -372 -273 -334
-486 17 -90 53 -161 121 -234 73 -78 164 -127 295 -161 91 -23 112 -24 380
-24 l284 0 0 -2228 0 -2229 -297 -6 c-331 -8 -409 -19 -530 -79 -169 -83 -272
-274 -243 -450 22 -139 124 -270 264 -338 163 -80 76 -75 1321 -75 1253 0
1161 -6 1340 80 133 64 224 160 267 283 29 84 22 207 -16 287 -38 76 -141 184
-213 223 -125 66 -233 78 -538 57 -126 -8 -245 -15 -262 -15 l-33 0 0 2245 0
2245 278 0 c249 0 285 2 352 21 181 49 314 149 381 285 31 63 34 76 34 164 0
89 -2 100 -35 165 -54 108 -145 192 -278 258 l-107 52 -1110 1 c-610 1 -1139
-2 -1175 -7z"/>
<path d="M3350 34350 c-135 -4 -407 -8 -605 -9 -750 -3 -1350 -40 -1716 -105
-269 -48 -569 -124 -673 -170 -316 -140 -438 -411 -298 -669 34 -63 97 -120
177 -159 l65 -32 0 -2337 -1 -2337 21 -56 c40 -105 118 -190 256 -280 27 -18
84 -36 175 -56 470 -103 960 -148 1479 -136 591 13 1082 76 1622 207 242 59
291 83 409 199 54 54 86 95 110 145 32 66 34 75 34 175 0 98 -2 110 -32 173
-78 165 -242 261 -468 274 -94 5 -112 3 -270 -35 -310 -74 -602 -125 -905
-156 -214 -23 -595 -38 -755 -31 -150 7 -585 42 -622 50 l-23 5 0 795 0 795
53 0 c348 3 1106 22 1302 35 491 30 876 68 970 96 168 50 293 146 356 274 32
66 34 74 34 180 0 101 -2 115 -29 169 -55 112 -185 219 -311 255 -85 25 -197
30 -360 16 -252 -22 -554 -44 -755 -55 -228 -13 -1193 -31 -1232 -23 l-28 6 0
882 0 882 123 17 c356 47 754 66 1412 66 561 0 1072 16 1150 36 242 63 401
214 435 412 9 54 9 84 0 126 -32 157 -222 313 -443 366 -90 22 -173 23 -657
10z"/>
<path d="M5727 34340 c-153 -54 -271 -175 -325 -335 -20 -59 -21 -82 -26
-1550 -3 -819 -9 -2075 -12 -2790 -6 -1207 -5 -1305 11 -1365 51 -194 189
-324 400 -375 64 -16 104 -16 470 -6 220 6 760 13 1200 16 440 4 997 10 1237
15 487 10 503 12 646 81 102 49 195 137 238 225 26 53 29 69 29 160 0 95 -2
104 -37 175 -54 108 -139 189 -267 254 -116 58 -93 57 -601 45 -256 -5 -829
-12 -1275 -15 -445 -3 -852 -8 -902 -11 l-93 -6 0 933 c0 514 5 1662 10 2552
l10 1619 -36 73 c-69 141 -177 244 -311 295 -86 34 -284 39 -366 10z"/>
<path d="M17750 34315 c-200 -26 -378 -35 -840 -45 -1214 -26 -1582 -44 -1995
-101 -179 -24 -212 -32 -290 -71 -180 -89 -265 -216 -265 -396 0 -103 21 -177
95 -327 126 -256 151 -481 139 -1241 l-7 -462 -39 -22 c-66 -37 -153 -125
-188 -192 -30 -55 -35 -74 -38 -154 -3 -68 0 -105 12 -142 25 -74 108 -185
187 -250 l69 -56 0 -1297 c0 -1258 1 -1298 20 -1373 41 -160 129 -274 262
-339 164 -79 326 -78 495 5 103 50 178 121 221 208 63 129 62 94 62 1471 l0
1249 508 0 c843 0 1191 26 1544 116 266 67 482 181 567 300 59 82 76 141 76
259 0 91 -3 106 -31 166 -78 165 -256 264 -509 284 -80 6 -101 4 -180 -19
-221 -63 -563 -115 -885 -136 -268 -17 -650 -30 -879 -30 l-214 0 7 453 c9
583 -8 884 -60 1091 -5 23 -3 24 68 29 40 3 370 11 733 16 686 11 1098 24
1295 42 341 30 433 49 564 117 241 125 339 380 231 598 -58 119 -163 197 -320
240 -80 21 -283 26 -415 9z"/>
<path d="M20573 34025 c-64 -20 -124 -58 -175 -113 -156 -166 -155 -421 1
-581 99 -102 -26 -73 1968 -457 989 -190 1825 -349 1858 -351 159 -14 326 83
398 230 103 211 18 461 -193 567 -34 17 -499 110 -1855 371 -1903 367 -1900
366 -2002 334z"/>
<path d="M36375 32170 c-1120 -57 -1348 -71 -1390 -85 -242 -84 -355 -365
-237 -593 38 -73 114 -147 191 -184 56 -28 77 -33 160 -36 109 -4 2730 122
2831 136 229 32 390 250 352 478 -24 143 -108 255 -240 317 -64 30 -73 32
-197 34 -71 1 -733 -29 -1470 -67z"/>
<path d="M22360 30799 c-897 -14 -1093 -20 -1132 -32 -197 -62 -324 -267 -291
-469 29 -174 165 -315 335 -346 68 -13 2405 24 2460 38 118 32 218 116 271
228 30 63 32 73 32 182 0 104 -3 121 -27 173 -15 31 -50 81 -77 110 -95 101
-198 138 -376 136 -60 -1 -598 -10 -1195 -20z"/>
<path d="M34594 29440 c-147 -52 -248 -173 -276 -330 -29 -165 63 -353 210
-433 106 -57 3302 -1507 3343 -1516 285 -66 550 178 509 470 -17 118 -107 256
-197 303 -93 48 -3305 1506 -3338 1515 -61 17 -192 12 -251 -9z"/>
<path d="M24500 28215 c-52 -17 71 53 -1954 -1095 -1155 -655 -1593 -908
-1632 -943 -99 -89 -150 -239 -127 -373 44 -255 293 -408 542 -333 60 18 3515
1978 3569 2024 101 87 148 203 139 344 -11 181 -118 319 -286 372 -74 22 -185
24 -251 4z"/>
<path d="M33008 26640 c-123 -21 -245 -114 -300 -229 -28 -58 -33 -79 -36
-167 -4 -90 -1 -107 21 -162 39 -98 1084 -1846 1140 -1908 90 -99 241 -150
374 -125 266 49 420 324 319 571 -13 30 -265 460 -560 955 -382 641 -551 914
-584 948 -57 58 -146 104 -227 117 -67 11 -80 11 -147 0z"/>
<path d="M26741 26124 c-79 -21 -145 -60 -201 -119 -43 -46 -108 -171 -513
-981 -408 -817 -466 -938 -476 -999 -39 -232 117 -448 349 -486 135 -22 279
28 370 128 45 49 110 173 516 987 412 826 465 939 474 999 45 299 -230 549
-519 471z"/>
<path d="M30160 25276 c-195 -57 -325 -241 -307 -436 8 -87 1033 -4006 1064
-4068 35 -69 117 -146 197 -183 161 -75 366 -35 482 95 80 89 121 202 111 311
-3 33 -238 951 -522 2040 -399 1530 -524 1993 -547 2037 -40 75 -112 141 -194
180 -54 25 -81 31 -152 34 -53 2 -105 -2 -132 -10z"/>
<path d="M46665 17763 c-991 -28 -2014 -186 -2955 -456 l-185 -54 -24 51 c-33
68 -122 156 -196 192 -56 27 -68 29 -180 29 -109 0 -125 -2 -177 -27 -72 -33
-152 -107 -190 -175 -17 -29 -35 -53 -42 -53 -6 0 -290 40 -631 90 -341 49
-647 90 -681 90 -161 0 -305 -93 -374 -243 -23 -49 -33 -94 -49 -222 -31 -243
-48 -416 -70 -680 -42 -508 -46 -626 -46 -1335 0 -686 11 -1030 37 -1145 42
-188 214 -325 408 -325 30 1 153 22 272 49 l217 47 -5 -25 c-12 -70 -288
-2375 -292 -2434 -9 -166 87 -319 248 -396 50 -24 68 -26 208 -29 l152 -4 0
-659 0 -660 -62 8 c-101 13 -375 9 -453 -6 -102 -20 -237 -66 -327 -111 -396
-198 -674 -606 -713 -1045 -3 -38 -46 -1328 -95 -2865 -92 -2905 -92 -2869
-55 -3049 71 -347 290 -694 574 -906 356 -268 847 -360 1296 -245 61 16 110
28 111 27 264 -427 649 -742 1084 -888 173 -58 267 -75 660 -119 980 -110
1712 -158 2736 -181 1235 -28 2578 42 3759 196 105 14 231 36 280 49 256 70
496 216 715 435 89 89 234 266 267 325 8 15 17 13 84 -14 94 -40 233 -76 346
-91 122 -16 383 -6 494 20 512 117 897 475 1069 990 47 140 69 259 76 406 7
142 -163 5678 -177 5764 -59 377 -263 701 -566 901 -220 145 -467 211 -732
196 -64 -3 -134 -10 -155 -15 l-39 -10 7 82 c3 45 6 387 6 760 l0 677 49 0
c71 0 350 29 396 41 159 42 283 181 306 345 9 64 -2 151 -165 1278 -97 664
-176 1216 -176 1226 0 15 21 12 188 -27 210 -49 291 -53 389 -15 114 43 214
151 248 265 48 161 67 1235 34 1952 -25 564 -96 1328 -133 1432 -35 101 -137
207 -234 244 -112 43 -149 40 -824 -65 -340 -53 -624 -96 -633 -96 -8 0 -26
23 -40 50 -49 98 -136 170 -243 205 -82 26 -228 18 -305 -17 -117 -55 -213
-178 -237 -307 -6 -30 -12 -56 -14 -58 -2 -3 -96 25 -207 61 -1297 415 -2666
609 -4034 569z m755 -843 c947 -37 1829 -179 2710 -434 208 -60 585 -183 724
-236 l59 -23 -6 -156 c-4 -86 -7 -433 -7 -772 l0 -616 -267 -56 c-959 -202
-1748 -310 -2683 -368 -283 -17 -1011 -23 -1310 -10 -1115 48 -2030 201 -3045
509 l-60 18 -2 380 c-2 208 1 568 5 798 l7 419 40 14 c122 43 494 150 721 207
1014 254 2087 366 3114 326z m-5198 -430 c227 -33 428 -62 446 -65 l32 -6 -6
-882 c-4 -485 -7 -883 -8 -884 -3 -3 -966 -213 -978 -213 -17 0 -3 1208 16
1480 20 284 45 578 51 608 3 12 12 22 20 22 8 0 200 -27 427 -60z m10452 13
c26 -210 54 -691 67 -1138 13 -439 5 -915 -15 -915 -6 0 -229 51 -496 113
l-485 113 1 863 c1 474 3 863 5 865 3 3 866 141 906 145 6 1 14 -20 17 -46z
m-8921 -2667 c822 -226 1610 -351 2632 -418 257 -17 1292 -17 1575 0 722 43
1327 111 2025 228 247 42 774 143 922 178 l61 14 39 -40 c90 -93 196 -133 327
-126 111 7 182 36 257 105 l60 56 87 -19 87 -19 165 -1140 165 -1140 -60 -6
c-118 -12 -1418 -29 -2587 -33 l-1188 -4 0 83 c0 161 -36 262 -125 351 -57 57
-120 93 -210 120 -55 16 -112 17 -736 11 -627 -6 -681 -8 -738 -26 -121 -37
-204 -110 -258 -227 -25 -53 -28 -72 -31 -181 l-4 -123 -251 0 c-297 0 -1032
14 -1877 35 -333 8 -847 19 -1144 25 -296 5 -540 11 -543 14 -2 2 54 491 126
1087 72 596 132 1097 133 1114 3 27 7 31 62 43 l58 13 40 -37 c22 -20 70 -50
107 -68 62 -29 73 -31 176 -31 93 0 118 4 160 23 77 35 147 94 185 156 22 36
40 54 50 52 8 -2 122 -34 253 -70z m3737 -2804 c0 -93 3 -258 7 -366 l6 -198
-109 6 c-60 4 -152 9 -205 12 l-97 6 -6 157 c-3 86 -9 245 -12 354 l-6 197
211 0 211 0 0 -168z m-3435 -357 c534 -13 1578 -33 2010 -38 l180 -2 3 -50 3
-51 -80 -10 c-95 -13 -170 -47 -239 -109 -68 -62 -106 -139 -136 -279 l-26
-117 20 -652 c11 -359 23 -684 28 -723 5 -39 21 -96 35 -127 62 -137 214 -237
358 -237 l48 0 3 -452 3 -453 32 -67 c43 -92 94 -139 287 -265 563 -368 517
-340 591 -359 99 -27 219 -12 307 38 249 142 652 376 684 399 79 54 141 146
163 240 6 24 17 213 26 419 8 206 18 403 21 436 l5 61 64 5 c136 11 266 105
328 236 43 93 44 139 12 907 -27 673 -32 719 -80 801 -62 106 -191 191 -304
201 l-61 6 0 97 0 98 543 6 c298 3 1001 7 1561 9 l1019 3 -7 -1245 c-15 -2812
-43 -4723 -101 -6821 -17 -617 -23 -748 -37 -810 -16 -72 -111 -259 -176 -346
-138 -184 -304 -313 -463 -358 -116 -33 -942 -121 -1504 -160 -646 -46 -1058
-59 -1790 -60 -1018 0 -1810 41 -2840 145 -620 62 -753 85 -903 155 -372 171
-644 551 -682 952 -7 70 -10 1563 -10 4356 l0 4248 263 -6 c144 -4 523 -13
842 -21z m3210 -1035 c341 -16 632 -30 646 -30 l26 0 7 -212 c4 -117 9 -230
12 -250 l6 -38 -154 0 c-84 0 -381 5 -660 12 l-506 12 -6 145 c-16 394 -16
391 -3 391 6 0 291 -14 632 -30z m-5270 -1095 c28 -9 65 -26 83 -37 l32 -20 0
-3137 c0 -1726 3 -3186 6 -3244 l7 -106 -59 -18 c-91 -28 -276 -25 -374 5
-252 79 -426 284 -470 556 -10 63 164 5565 179 5649 28 164 151 306 308 358
72 24 212 21 288 -6z m10711 -235 c105 -51 189 -158 228 -290 24 -80 194
-5580 177 -5708 -46 -333 -300 -573 -606 -572 -100 1 -147 11 -252 58 l-83 37
5 90 c6 94 27 868 45 1590 26 1069 45 2271 61 3724 10 928 12 1016 27 1028 30
24 111 63 149 73 70 17 179 5 249 -30z m-5171 -42 c5 -9 -26 -553 -32 -559 -5
-4 -54 -33 -109 -64 l-101 -56 -97 62 -96 61 0 286 0 285 217 -6 c119 -4 217
-8 218 -9z"/>
<path d="M50175 6599 c-84 -10 -603 -54 -805 -68 -202 -15 -622 -38 -960 -53
-384 -17 -1888 -17 -2270 0 -607 27 -1003 52 -1475 93 -132 11 -262 18 -288
14 -111 -14 -214 -73 -281 -161 -92 -121 -220 -559 -273 -934 -25 -180 -25
-701 1 -885 98 -712 354 -1326 766 -1840 562 -698 1340 -1121 2285 -1242 175
-22 673 -25 835 -5 605 75 1101 252 1555 553 901 599 1471 1623 1566 2814 16
209 6 635 -20 830 -38 283 -102 570 -148 665 -52 108 -165 192 -291 219 -59
12 -94 12 -197 0z m-500 -916 c-87 -135 -236 -309 -370 -433 -365 -339 -837
-550 -1400 -626 -179 -24 -568 -24 -750 0 -373 49 -729 152 -1057 304 -331
154 -694 409 -953 671 -97 98 -98 100 -65 96 110 -15 869 -51 1375 -66 441
-13 1626 -7 2010 10 331 15 783 40 980 55 94 7 187 14 209 15 l38 1 -17 -27z
m-4806 -971 c882 -721 2081 -1066 3181 -916 699 94 1306 367 1803 811 l114
101 -14 -76 c-92 -506 -300 -977 -599 -1352 -89 -112 -288 -309 -394 -392
-314 -243 -685 -412 -1080 -491 -224 -45 -302 -52 -575 -51 -218 0 -283 4
-404 22 -886 138 -1558 618 -1950 1392 -173 342 -267 673 -306 1085 l-7 69 63
-58 c34 -32 110 -97 168 -144z"/>
<path d="M21420 12129 c-124 -3 -389 -7 -590 -8 -533 -2 -1105 -25 -1410 -57
-393 -40 -893 -150 -1055 -231 -209 -105 -320 -241 -332 -408 -13 -172 71
-324 222 -402 l75 -38 2 -2350 3 -2350 33 -67 c39 -79 121 -165 214 -226 54
-35 86 -47 194 -72 927 -212 2161 -178 3179 87 165 43 226 75 330 174 123 117
176 250 155 387 -37 227 -228 373 -509 388 -99 6 -115 4 -250 -30 -564 -144
-1244 -216 -1760 -187 -119 7 -292 20 -386 29 l-170 17 -3 798 -2 797 82 0
c265 1 1060 21 1213 30 569 34 941 72 1061 111 203 65 335 203 363 380 36 222
-128 437 -376 495 -84 20 -252 16 -623 -15 -140 -11 -338 -25 -440 -31 -228
-13 -1224 -32 -1256 -24 l-24 6 0 883 0 882 53 7 c466 58 609 65 1552 77 451
5 876 13 945 18 195 15 325 67 435 176 98 96 155 236 142 348 -22 179 -221
350 -469 401 -83 17 -186 18 -598 5z"/>
<path d="M23770 12121 c-164 -53 -273 -162 -336 -337 l-24 -65 0 -662 c0 -364
-5 -1616 -11 -2782 -11 -1984 -11 -2124 5 -2185 27 -103 61 -166 127 -235 69
-72 164 -125 269 -149 87 -20 79 -20 520 -8 212 6 754 14 1205 17 451 4 1005
10 1230 15 378 8 415 11 480 31 166 51 298 150 361 269 27 51 29 63 29 165 -1
125 -12 160 -84 255 -54 72 -137 136 -241 185 -83 39 -87 40 -195 40 -95 0
-1516 -17 -2377 -29 l-278 -3 0 811 c0 446 5 1593 11 2549 l11 1738 -43 87
c-74 149 -204 257 -354 297 -81 21 -235 19 -305 -4z"/>
<path d="M37260 12129 c-124 -3 -389 -7 -590 -8 -533 -2 -1105 -25 -1410 -57
-407 -42 -889 -149 -1065 -237 -237 -117 -351 -297 -317 -499 25 -143 106
-254 230 -312 l62 -30 2 -2350 3 -2351 29 -58 c36 -75 129 -174 216 -232 58
-39 86 -49 196 -74 936 -213 2116 -182 3159 81 132 33 172 48 230 83 307 190
372 500 151 721 -98 97 -204 139 -381 150 -94 6 -109 4 -265 -34 -448 -111
-906 -172 -1390 -187 -211 -7 -405 2 -727 32 l-183 17 0 798 0 798 73 0 c318
2 1097 22 1292 35 447 28 843 66 938 91 274 70 450 295 408 522 -17 91 -53
157 -130 233 -148 147 -276 170 -741 130 -124 -11 -310 -25 -415 -30 -104 -6
-217 -13 -250 -16 -97 -9 -1142 -25 -1159 -19 -14 6 -16 99 -16 889 l0 882
123 16 c370 49 539 56 1467 67 454 6 881 14 950 19 263 18 447 127 539 321 33
69 36 82 36 165 0 78 -4 97 -26 140 -77 145 -245 259 -441 299 -83 17 -186 18
-598 5z"/>
<path d="M30985 12053 c-390 -25 -786 -107 -1100 -228 -346 -133 -612 -300
-830 -519 -271 -271 -410 -540 -460 -887 -19 -137 -20 -396 0 -516 59 -362
277 -675 630 -906 322 -210 753 -355 1341 -452 643 -106 1006 -250 1242 -493
123 -127 190 -242 234 -404 20 -72 23 -106 22 -253 0 -200 -16 -273 -89 -420
-158 -316 -426 -454 -915 -472 -354 -13 -683 45 -964 169 -178 78 -427 235
-615 387 -191 155 -282 210 -407 247 -69 20 -222 23 -298 5 -136 -33 -273
-143 -316 -256 -44 -115 -38 -259 17 -406 22 -60 37 -81 134 -178 488 -491
1255 -832 2032 -902 181 -16 555 -6 722 19 981 152 1611 712 1742 1547 27 172
24 512 -5 670 -84 444 -323 820 -667 1049 -246 163 -651 349 -940 430 -144 40
-430 110 -715 175 -361 83 -406 95 -550 152 -269 105 -509 277 -575 413 -40
82 -50 153 -36 252 26 185 81 302 200 427 213 223 469 341 856 393 158 21 468
24 605 5 189 -26 437 -86 770 -187 178 -55 234 -62 320 -40 195 50 327 193
362 393 30 175 -58 353 -233 469 -181 120 -542 247 -819 289 -210 31 -479 42
-695 28z"/>
</g>
</svg>
