<?xml version="1.0" standalone="no"?>
<!DOCTYPE svg PUBLIC "-//W3C//DTD SVG 20010904//EN"
 "http://www.w3.org/TR/2001/REC-SVG-20010904/DTD/svg10.dtd">
<svg version="1.0" xmlns="http://www.w3.org/2000/svg"
 width="1826.000000pt" height="1363.000000pt" viewBox="0 0 1826.000000 1363.000000"
 preserveAspectRatio="xMidYMid meet">

<g transform="translate(0.000000,1363.000000) scale(0.100000,-0.100000)"
fill="#000000" stroke="none">
<path d="M15642 13448 c-41 -45 -92 -219 -92 -317 l0 -37 -127 -12 c-71 -6
-157 -20 -193 -31 -36 -10 -107 -31 -158 -45 -119 -33 -344 -147 -437 -221
-38 -30 -111 -87 -162 -125 -140 -108 -231 -202 -315 -330 -156 -235 -309
-566 -313 -675 -2 -64 7 -95 29 -95 7 0 38 20 69 44 62 48 151 85 271 111 109
24 263 10 367 -35 76 -32 164 -98 174 -130 10 -33 65 -26 101 11 61 63 172
112 295 129 108 15 172 2 289 -58 l95 -49 -2 -114 c-5 -362 -6 -1001 -1 -1309
6 -348 9 -389 49 -627 21 -120 119 -247 236 -305 62 -30 65 -31 121 -19 123
27 177 64 258 178 58 80 78 139 69 200 -9 60 -58 113 -104 113 -62 0 -88 -24
-135 -125 -38 -82 -48 -95 -69 -95 -92 0 -122 123 -139 575 -7 171 -13 425
-13 565 -1 410 -19 892 -36 949 -5 19 166 80 246 88 127 12 326 -48 416 -125
46 -40 41 -41 189 22 79 33 92 36 192 36 163 0 282 -31 411 -106 33 -19 67
-34 75 -32 23 4 35 62 22 106 -5 20 -10 50 -10 65 0 16 -9 59 -19 95 -11 37
-26 97 -34 134 -20 84 -117 295 -191 415 -58 95 -306 379 -388 446 -67 54
-268 182 -359 228 -54 27 -91 39 -107 36 -14 -3 -47 5 -76 18 -28 13 -105 35
-171 50 -66 15 -126 29 -132 31 -8 2 -13 20 -13 42 0 68 -31 245 -50 288 -29
66 -87 85 -128 42z m-102 -421 c0 -2 -25 -21 -55 -42 -76 -52 -332 -318 -389
-403 -119 -179 -284 -617 -317 -844 -7 -46 -14 -85 -15 -87 -2 -2 -25 12 -51
31 -181 132 -482 144 -718 29 -44 -22 -82 -38 -84 -35 -11 10 103 275 180 415
132 244 243 381 414 511 39 29 108 82 152 118 184 146 518 276 773 299 47 5
91 9 98 10 6 0 12 -1 12 -2z m286 -36 c158 -91 343 -336 408 -540 19 -58 43
-130 55 -159 11 -29 46 -141 77 -250 47 -168 56 -214 61 -311 5 -96 4 -113 -8
-108 -8 3 -50 22 -95 41 -105 47 -176 59 -299 53 -99 -4 -200 -33 -296 -83
l-31 -16 7 54 c3 29 8 334 11 678 2 344 7 635 9 648 7 31 39 28 101 -7z m-172
-588 c-1 -378 -6 -640 -13 -693 -6 -47 -11 -91 -11 -98 0 -9 -9 -7 -29 7 -15
11 -82 46 -147 78 l-118 58 -121 -1 c-101 -1 -133 -5 -200 -27 -44 -15 -104
-42 -132 -61 -29 -19 -53 -32 -53 -28 0 4 7 48 15 97 38 239 204 666 322 834
72 102 325 349 408 399 39 23 72 42 75 42 3 0 5 -273 4 -607z m431 540 c39
-14 88 -29 110 -35 22 -5 59 -16 83 -24 48 -15 255 -142 344 -211 71 -54 273
-276 352 -386 60 -85 182 -325 210 -412 24 -78 58 -225 65 -281 l7 -51 -83 39
c-113 53 -255 81 -388 76 -89 -4 -109 -8 -188 -42 -48 -21 -90 -36 -93 -33 -3
3 -9 70 -14 149 -8 132 -13 158 -69 348 -74 252 -141 452 -177 522 -46 91
-143 226 -217 304 -80 85 -79 85 58 37z m-375 -1410 c0 -5 5 -57 10 -116 6
-59 12 -318 15 -575 2 -257 8 -528 13 -602 5 -74 7 -181 4 -237 l-5 -103 -31
-5 c-17 -3 -49 -2 -71 3 l-40 8 -1 170 c-1 93 -5 374 -11 624 -5 250 -6 493
-2 540 4 47 8 126 8 176 1 50 4 93 7 97 3 3 15 1 25 -6 16 -10 23 -8 41 11 23
22 38 28 38 15z"/>
<path d="M5930 12963 c-171 -26 -397 -147 -515 -276 -37 -39 -75 -88 -85 -108
-34 -65 -62 -195 -63 -295 -2 -79 -4 -93 -17 -88 -67 28 -126 44 -158 44 -67
0 -141 -28 -189 -73 -61 -56 -83 -105 -83 -190 0 -71 13 -108 49 -141 24 -22
28 -46 6 -46 -8 0 -47 -30 -86 -67 -80 -75 -111 -132 -135 -243 -68 -320 108
-623 425 -733 79 -27 98 -30 221 -30 176 -1 273 23 375 91 39 26 73 48 76 50
4 2 23 -23 42 -56 80 -130 262 -239 465 -278 99 -19 309 -18 413 2 157 29 357
162 405 269 12 27 25 69 29 93 4 24 10 41 13 40 134 -71 165 -81 256 -86 105
-5 242 21 335 63 68 32 202 126 236 167 70 83 115 220 122 378 6 134 -4 200
-48 306 -37 88 -109 172 -199 232 -46 31 -75 42 -138 52 l-80 13 21 56 c41
113 22 341 -38 446 -40 69 -154 179 -220 211 -112 54 -313 41 -449 -28 -75
-38 -151 -95 -191 -143 l-38 -47 -17 43 c-53 141 -175 291 -267 328 -89 36
-361 62 -473 44z m338 -72 c105 -15 161 -43 216 -106 61 -71 122 -180 141
-252 24 -94 53 -97 119 -13 112 142 273 220 454 220 64 0 87 -5 137 -29 81
-38 199 -161 215 -223 6 -24 15 -56 21 -73 32 -96 17 -261 -31 -343 -18 -29
-18 -36 -6 -59 12 -25 18 -27 88 -28 60 -1 86 -7 134 -30 114 -56 204 -174
241 -318 22 -86 13 -265 -17 -362 -36 -116 -78 -173 -172 -240 -138 -97 -285
-142 -436 -132 -101 6 -196 47 -225 96 -35 59 -69 33 -93 -69 -9 -41 -27 -94
-38 -117 -44 -88 -217 -199 -357 -228 -93 -20 -306 -20 -401 0 -131 27 -262
89 -336 159 -51 48 -115 140 -122 176 -7 34 -54 41 -70 10 -21 -39 -153 -116
-232 -136 -101 -25 -290 -25 -373 0 -252 77 -409 270 -422 521 -9 159 35 285
128 369 59 53 81 61 155 53 40 -4 58 -2 69 9 23 23 2 54 -37 54 -24 0 -43 12
-86 55 l-54 54 4 74 c3 63 8 80 32 112 41 54 123 89 190 82 61 -6 160 -48 169
-71 8 -19 27 -21 51 -3 16 11 16 19 6 78 -14 79 -1 210 30 309 54 176 324 368
580 414 39 7 247 -1 328 -13z"/>
<path d="M2225 12426 c-129 -56 -182 -300 -88 -399 41 -42 89 -60 163 -60 124
1 198 40 241 130 25 51 29 156 9 217 -12 38 -73 100 -113 115 -39 15 -176 13
-212 -3z m153 -76 c48 -29 62 -71 52 -151 -13 -110 -45 -151 -127 -164 -51 -8
-113 20 -131 60 -15 33 -15 116 -1 165 18 61 50 92 100 100 69 11 72 11 107
-10z"/>
<path d="M11683 12408 c-4 -7 -13 -88 -19 -179 -6 -92 -15 -172 -19 -179 -6
-10 -42 -11 -154 -7 -80 4 -292 11 -471 17 -179 5 -401 15 -495 21 -179 11
-1272 14 -1363 3 -62 -8 -72 -20 -72 -96 0 -29 -6 -134 -14 -233 -8 -99 -18
-261 -21 -361 l-7 -181 50 -94 c78 -149 115 -213 127 -221 6 -4 141 -9 301
-12 159 -3 442 -10 629 -15 187 -6 591 -10 899 -11 445 0 556 -3 548 -12 -12
-16 -22 -471 -10 -492 19 -34 18 -36 388 248 58 44 137 105 175 135 114 91
303 231 413 306 94 64 121 93 113 120 -2 6 -2 75 0 155 5 220 5 226 -11 256
-8 16 -45 59 -82 96 -60 60 -115 106 -336 281 -187 148 -286 233 -445 384 -87
82 -108 95 -124 71z m207 -228 c127 -113 299 -255 458 -378 122 -94 256 -222
245 -232 -4 -4 -48 -40 -98 -80 -49 -39 -144 -120 -211 -178 -66 -59 -149
-129 -183 -157 -137 -110 -328 -270 -371 -311 -25 -24 -49 -44 -54 -44 -4 0
-7 62 -6 138 3 246 5 231 -33 247 -26 10 -224 16 -977 26 -520 7 -1082 12
-1248 12 l-304 1 7 195 c4 108 15 288 24 401 l16 205 295 7 c347 9 886 4 1120
-11 91 -6 311 -16 490 -21 179 -6 390 -13 470 -16 80 -3 150 -1 157 3 12 8 25
95 38 256 l7 79 21 -20 c12 -11 74 -65 137 -122z"/>
<path d="M9925 11838 c-142 -10 -147 -11 -143 -40 3 -21 9 -23 76 -26 l72 -3
1 -57 c1 -31 4 -118 8 -192 l6 -135 30 0 30 0 -3 189 c-3 209 -4 206 60 206
51 0 68 9 68 35 0 13 -7 26 -16 29 -18 7 -22 7 -189 -6z"/>
<path d="M10413 11839 c-8 -8 -9 -42 -6 -105 l6 -95 -59 6 c-106 11 -100 7
-107 82 -4 37 -13 73 -20 80 -15 15 -43 9 -50 -10 -4 -14 12 -376 18 -394 6
-18 40 -16 55 2 9 11 10 38 5 100 l-7 86 39 -5 c21 -3 59 -8 85 -11 l46 -6 7
-70 c8 -75 27 -100 58 -76 15 11 15 28 2 206 -8 107 -20 200 -26 207 -14 17
-31 18 -46 3z"/>
<path d="M11165 11840 c-4 -6 -4 -72 0 -148 l7 -137 -51 75 c-29 41 -69 104
-90 140 -35 58 -42 65 -74 68 -23 2 -36 -2 -40 -11 -6 -15 19 -395 28 -433 6
-27 33 -38 52 -22 12 10 14 29 9 98 -17 235 -17 236 -5 215 47 -80 187 -278
202 -287 14 -7 23 -6 33 4 11 11 12 48 3 218 -6 113 -12 211 -14 218 -5 15
-51 16 -60 2z"/>
<path d="M10653 11833 c-44 -3 -73 -8 -76 -16 -4 -11 7 -220 19 -355 8 -84 17
-90 154 -82 97 5 105 7 108 26 5 33 -18 43 -108 46 l-85 3 -3 56 c-3 56 -3 56
29 63 17 3 53 6 79 6 51 0 75 16 64 44 -9 23 -45 30 -120 22 l-64 -7 0 60 0
59 71 9 c49 5 75 13 82 25 16 24 -8 48 -47 46 -17 -1 -63 -4 -103 -5z"/>
<path d="M3177 12390 c-141 -36 -257 -214 -257 -395 l0 -44 -60 -12 c-92 -18
-90 -14 -97 -176 -4 -105 -3 -146 6 -157 7 -8 37 -18 67 -22 30 -3 54 -7 54
-8 0 0 3 -141 7 -312 l6 -312 -44 -7 c-86 -14 -89 -19 -89 -159 0 -164 -4
-160 174 -163 72 -1 223 -5 336 -9 l205 -7 56 51 56 51 6 128 c7 176 -8 203
-116 203 l-55 0 -6 48 c-3 26 -11 124 -17 219 -9 151 -9 175 6 202 13 25 22
31 49 31 54 0 93 11 115 32 19 17 21 31 21 120 l0 102 -64 63 c-62 60 -67 63
-115 63 -48 0 -51 1 -51 26 0 23 2 24 15 10 17 -17 47 -23 150 -30 91 -6 130
10 152 61 20 49 12 156 -16 210 -29 56 -107 126 -181 164 -59 29 -74 33 -170
35 -58 2 -122 -1 -143 -6z m285 -94 c26 -15 64 -50 85 -78 30 -42 38 -62 41
-107 5 -77 -9 -93 -85 -99 -36 -2 -63 0 -67 6 -3 6 -11 34 -16 63 -13 69 -33
99 -66 99 -62 0 -114 -106 -114 -231 0 -92 9 -99 114 -99 l83 0 6 -77 c6 -97
1 -103 -100 -103 -111 0 -109 3 -118 -226 -12 -290 5 -515 40 -544 8 -7 49
-17 92 -24 l78 -12 -2 -50 c-1 -27 -4 -68 -8 -91 l-6 -43 -242 5 c-133 3 -264
5 -290 5 l-48 0 3 92 3 92 60 11 60 10 -3 360 c-4 411 -1 395 -84 395 l-49 0
3 108 3 107 62 10 c34 6 68 16 75 23 7 7 15 53 19 107 12 161 79 271 188 312
24 9 69 12 136 10 87 -3 106 -7 147 -31z"/>
<path d="M2069 11920 c-70 -8 -81 -25 -91 -141 -14 -156 7 -209 88 -218 48 -6
49 -7 56 -46 4 -22 7 -155 7 -297 l1 -256 -31 -11 c-18 -6 -41 -11 -51 -11
-10 0 -30 -12 -45 -26 -24 -25 -25 -29 -21 -130 3 -98 5 -106 31 -131 l27 -28
223 -8 c308 -11 366 -7 411 27 45 34 57 76 58 212 1 119 -12 151 -69 168 -31
9 -31 11 -38 95 -5 47 -7 165 -7 261 2 177 -11 350 -29 405 -11 33 -60 91
-102 118 -24 15 -53 18 -200 20 -95 1 -193 0 -218 -3z m372 -81 c5 -8 9 -178
9 -379 1 -201 4 -395 9 -432 8 -80 35 -115 93 -124 l38 -7 0 -96 c0 -53 -4
-102 -9 -110 -8 -12 -50 -13 -262 -8 -187 5 -255 10 -261 19 -4 7 -8 48 -8 90
l0 77 56 12 c38 9 62 21 76 38 20 25 20 34 13 326 -3 165 -11 315 -16 333 -12
38 -40 55 -77 48 -50 -11 -57 4 -56 108 1 52 4 101 6 108 8 20 376 17 389 -3z"/>
<path d="M5532 10587 c-6 -7 -19 -57 -28 -110 -20 -112 -10 -187 31 -231 35
-38 92 -36 130 4 25 26 30 40 33 98 5 82 -17 137 -82 207 -44 46 -65 55 -84
32z m89 -138 c21 -41 25 -119 9 -150 -6 -10 -20 -19 -31 -19 -31 0 -53 62 -45
129 11 89 16 104 33 89 8 -6 23 -29 34 -49z"/>
<path d="M7187 10576 c-9 -10 -19 -57 -27 -128 -14 -135 -6 -181 44 -236 43
-46 93 -50 133 -9 23 22 28 37 31 92 4 60 1 73 -29 132 -27 53 -117 163 -133
163 -3 0 -11 -7 -19 -14z m90 -162 c36 -65 44 -135 19 -169 -13 -18 -15 -18
-39 -2 -16 10 -31 33 -37 58 -13 47 -3 182 13 176 6 -2 26 -30 44 -63z"/>
<path d="M5946 10414 c-9 -8 -16 -21 -16 -27 0 -7 -5 -52 -11 -101 -17 -140
14 -224 91 -247 85 -26 135 29 128 137 -3 56 -10 71 -52 134 -46 66 -97 120
-116 120 -5 0 -16 -7 -24 -16z m90 -136 c31 -41 39 -62 42 -107 5 -69 -12 -91
-54 -72 -40 18 -56 70 -48 157 4 41 10 74 15 74 4 0 24 -23 45 -52z"/>
<path d="M6723 10388 c-6 -7 -15 -62 -21 -121 -8 -85 -8 -120 2 -158 22 -85
88 -133 149 -110 35 13 57 59 60 123 3 66 -42 164 -106 233 -43 46 -67 55 -84
33z m108 -178 c53 -105 -4 -219 -58 -116 -17 31 -21 144 -7 189 6 20 7 20 25
-4 10 -13 28 -44 40 -69z"/>
<path d="M6413 10068 c-6 -7 -16 -61 -23 -121 -15 -132 -4 -191 45 -242 52
-56 123 -46 151 20 36 88 0 207 -93 306 -47 51 -64 58 -80 37z m87 -144 c41
-68 54 -160 25 -184 -22 -19 -45 -4 -69 44 -15 31 -17 49 -11 116 4 44 10 80
14 80 4 0 22 -25 41 -56z"/>
<path d="M7055 10047 c-11 -17 -17 -61 -21 -148 -5 -116 -4 -127 18 -169 30
-58 80 -85 127 -69 70 25 87 142 36 243 -29 58 -118 166 -136 166 -5 0 -15
-11 -24 -23z m117 -194 c22 -49 18 -112 -8 -134 -12 -10 -20 -8 -41 14 -21 21
-28 38 -31 86 -2 33 -1 81 3 107 l7 46 25 -37 c14 -20 34 -57 45 -82z"/>
<path d="M6832 9653 c-15 -28 -34 -218 -26 -260 23 -130 129 -190 197 -112 27
30 29 36 24 92 -6 68 -48 161 -100 222 -18 22 -36 48 -40 58 -3 9 -15 17 -26
17 -11 0 -24 -8 -29 -17z m105 -188 c38 -80 44 -139 14 -154 -14 -8 -25 -6
-45 10 -35 27 -49 85 -40 170 6 61 9 68 22 57 8 -7 30 -44 49 -83z"/>
<path d="M6124 8785 c-4 -8 1 -41 9 -73 9 -31 23 -100 32 -152 35 -216 79
-426 92 -440 11 -12 15 -12 30 2 15 16 14 28 -15 175 -17 87 -43 223 -57 302
-14 80 -31 156 -38 170 -14 30 -44 39 -53 16z"/>
<path d="M5067 8389 c-26 -15 -21 -27 34 -77 29 -26 85 -91 126 -146 41 -54
108 -136 149 -182 41 -46 74 -89 74 -95 0 -5 10 -9 23 -7 15 2 23 11 25 28 2
19 -17 47 -83 119 -47 51 -106 123 -131 159 -63 90 -143 181 -174 197 -17 9
-31 10 -43 4z"/>
<path d="M7153 8358 c-13 -16 -74 -178 -103 -276 -24 -80 -21 -105 11 -100 17
2 26 18 45 85 13 45 40 123 59 173 20 50 35 98 33 108 -4 21 -31 27 -45 10z"/>
<path d="M8130 8083 c-36 -26 -119 -81 -185 -122 -66 -41 -142 -91 -170 -112
-27 -21 -97 -66 -155 -101 -76 -46 -105 -69 -105 -83 0 -11 8 -21 17 -23 20
-4 173 84 267 153 35 26 112 77 170 113 159 97 261 173 261 193 0 13 -18 29
-34 29 -1 0 -31 -21 -66 -47z"/>
<path d="M14151 7904 c-29 -8 -66 -23 -81 -34 -49 -35 -161 -162 -219 -250
-76 -113 -176 -286 -253 -435 -22 -44 -49 -92 -59 -107 -11 -14 -19 -33 -19
-41 0 -8 -9 -17 -19 -20 -36 -9 -51 -50 -58 -154 -7 -119 0 -138 87 -235 69
-76 109 -156 140 -279 32 -124 107 -342 150 -436 44 -93 105 -159 211 -223
105 -64 335 -116 564 -127 111 -5 146 -2 238 16 113 23 211 53 262 78 77 39
222 163 301 256 86 103 132 186 178 322 15 44 44 122 64 174 41 106 60 121
149 121 71 0 95 -16 111 -75 74 -258 260 -581 404 -699 89 -74 275 -153 448
-192 105 -23 397 -15 520 16 272 67 442 225 543 506 24 66 52 155 62 199 27
127 91 270 136 309 22 18 39 36 39 40 0 4 7 15 16 23 14 14 15 34 9 137 -8
155 -17 181 -63 205 -27 14 -41 30 -51 57 -7 22 -26 60 -42 87 -16 26 -29 52
-29 57 0 11 -107 225 -166 330 -42 75 -95 150 -171 236 -115 132 -237 122
-432 -35 -122 -99 -199 -206 -231 -324 -38 -141 51 -242 156 -178 18 11 59 61
93 113 97 147 148 220 189 268 l39 44 38 -59 c43 -68 102 -192 139 -292 13
-38 36 -94 51 -126 15 -32 25 -60 22 -63 -2 -2 -60 4 -128 15 -369 59 -585 52
-959 -29 -374 -82 -499 -100 -690 -100 -199 0 -461 34 -895 114 -263 49 -358
58 -520 51 -192 -8 -341 -22 -434 -41 -40 -8 -75 -13 -78 -11 -8 9 62 172 140
326 86 170 133 245 148 235 5 -3 33 -51 61 -107 99 -198 197 -326 263 -343 33
-8 99 20 120 52 84 128 -253 648 -417 643 -13 0 -47 -7 -77 -15z m146 -83 c38
-28 140 -141 167 -185 76 -126 102 -177 118 -234 23 -86 23 -89 -11 -107 -28
-14 -31 -14 -61 12 -51 42 -107 126 -177 261 -80 155 -95 174 -142 170 -29 -2
-42 -12 -73 -53 -50 -65 -230 -430 -257 -520 l-21 -70 -117 -22 c-65 -12 -118
-21 -120 -19 -2 1 23 49 54 107 31 57 66 122 78 144 11 22 41 74 65 115 217
372 369 494 497 401z m3141 -61 c23 -17 42 -35 42 -40 0 -6 20 -32 43 -58 48
-52 85 -107 173 -259 149 -258 199 -351 192 -359 -3 -3 -45 5 -92 17 -75 20
-86 26 -86 45 0 12 -6 24 -14 27 -16 6 -58 92 -91 187 -43 124 -148 325 -195
375 -30 32 -51 32 -89 -1 -38 -31 -151 -183 -216 -289 -54 -88 -95 -135 -119
-135 -9 0 -23 11 -32 26 -32 49 14 181 98 282 52 63 165 154 232 187 66 33
103 32 154 -5z m-2773 -665 c51 -5 258 -40 440 -74 28 -6 102 -17 165 -26 63
-9 153 -23 200 -30 323 -52 597 -37 968 51 388 92 649 109 957 65 145 -21 439
-88 556 -126 l46 -16 11 -116 c5 -64 8 -123 4 -132 -3 -9 -25 -33 -48 -54 -33
-29 -52 -60 -87 -145 -25 -59 -52 -139 -61 -177 -8 -39 -34 -124 -56 -190 -94
-273 -250 -421 -511 -485 -125 -31 -382 -39 -481 -15 -183 44 -336 108 -420
174 -72 58 -191 218 -253 342 -66 130 -121 265 -130 317 -15 93 -72 135 -183
133 -80 -1 -145 -28 -166 -69 -19 -37 -60 -145 -93 -242 -44 -134 -96 -231
-176 -327 -42 -50 -93 -104 -114 -119 -21 -15 -42 -33 -48 -39 -18 -20 -105
-76 -143 -92 -50 -21 -148 -47 -256 -68 -68 -13 -114 -16 -190 -11 -231 16
-462 70 -549 129 -89 61 -136 112 -170 187 -43 96 -108 283 -147 428 -38 142
-77 219 -152 302 -32 36 -63 81 -68 100 -9 31 -6 109 6 167 5 26 50 41 244 78
74 14 178 35 231 45 91 19 288 37 464 43 82 3 107 2 210 -8z"/>
<path d="M16895 7009 c-33 -4 -109 -13 -170 -19 -245 -24 -440 -94 -584 -210
-113 -91 -109 -247 14 -546 64 -156 103 -220 184 -302 63 -65 92 -86 173 -125
115 -55 254 -101 358 -118 82 -13 296 -6 384 13 149 31 315 170 386 323 21 44
47 123 59 175 12 52 28 122 37 155 19 79 31 279 21 340 -16 98 -111 182 -262
235 -88 31 -285 67 -405 75 -58 4 -112 8 -120 9 -8 2 -42 -1 -75 -5z m207
-145 c13 -29 8 -38 -123 -199 -180 -224 -244 -303 -319 -400 -181 -232 -201
-255 -222 -255 -25 0 -58 27 -58 48 0 15 51 88 146 207 30 39 80 102 110 140
172 222 386 480 402 486 26 9 53 -2 64 -27z m-422 -43 c5 -11 10 -24 10 -30 0
-15 -102 -144 -233 -295 -98 -113 -123 -136 -146 -136 -33 0 -51 16 -51 48 0
22 41 74 215 271 23 25 53 62 67 81 14 19 36 45 47 58 27 28 76 30 91 3z"/>
<path d="M14425 6980 c-116 -7 -166 -16 -335 -58 -130 -33 -212 -83 -247 -152
-32 -65 -46 -165 -33 -247 33 -214 93 -440 140 -534 60 -116 200 -220 342
-254 86 -20 440 -31 540 -16 135 19 254 87 384 218 65 66 82 92 138 207 155
320 166 350 166 431 -1 104 -32 151 -162 247 -92 68 -117 80 -253 112 -223 54
-377 64 -680 46z m-31 -143 c12 -9 17 -23 14 -44 -2 -25 -38 -67 -181 -212
-98 -100 -185 -181 -192 -181 -19 0 -55 36 -55 54 0 8 22 41 49 73 75 89 316
323 332 323 9 0 23 -6 33 -13z m384 -9 c37 -37 5 -81 -326 -443 -211 -232
-311 -333 -333 -340 -53 -17 -85 57 -40 95 40 34 484 522 585 643 49 59 86 73
114 45z"/>
<path d="M6288 7856 c-64 -14 -125 -29 -135 -34 -10 -5 -39 -12 -64 -15 -77
-10 -158 -47 -214 -96 -29 -25 -81 -71 -116 -102 -40 -36 -84 -88 -118 -143
-127 -204 -178 -399 -168 -641 7 -157 19 -218 62 -311 69 -152 156 -249 315
-353 85 -56 115 -68 370 -147 206 -64 443 -69 598 -13 31 11 81 26 110 34 30
7 79 29 110 47 60 35 225 195 273 265 36 52 91 179 110 253 19 75 16 369 -5
523 -33 233 -120 432 -215 489 -20 12 -53 41 -73 64 -80 89 -224 157 -381 179
-194 28 -328 28 -459 1z m463 -60 c134 -21 251 -77 335 -160 33 -34 77 -73 97
-89 47 -35 80 -93 122 -209 43 -120 63 -252 71 -463 7 -206 -4 -276 -71 -414
-39 -81 -60 -109 -143 -193 -111 -114 -168 -154 -255 -179 -34 -9 -81 -24
-104 -33 -71 -26 -182 -39 -303 -34 -109 5 -153 14 -290 58 -30 10 -98 31
-150 46 -72 22 -117 43 -185 89 -153 101 -241 206 -301 355 -63 154 -55 491
16 670 27 70 92 189 136 250 30 42 120 124 221 202 42 32 120 56 363 109 100
21 284 19 441 -5z"/>
<path d="M2282 7779 c-82 -41 -132 -136 -132 -253 0 -97 34 -155 110 -188 38
-17 58 -19 124 -14 98 8 131 22 178 74 47 52 61 101 57 195 -4 64 -9 82 -34
118 -44 62 -101 89 -189 89 -52 0 -82 -6 -114 -21z m145 -69 c50 -30 68 -64
65 -129 -5 -119 -45 -179 -126 -188 -93 -11 -146 35 -146 126 0 76 15 125 52
166 23 27 35 34 53 29 13 -3 32 -1 42 5 24 14 23 14 60 -9z"/>
<path d="M3280 7750 c-73 -10 -96 -20 -158 -69 -82 -65 -142 -203 -142 -326 0
-39 -3 -44 -31 -54 -18 -6 -42 -11 -54 -11 -13 0 -33 -9 -46 -19 -22 -18 -24
-26 -27 -162 -5 -164 -3 -169 78 -169 l47 0 6 -202 c4 -112 7 -254 7 -315 l0
-113 -27 -5 c-16 -4 -39 -9 -53 -11 -47 -10 -50 -19 -50 -144 0 -65 3 -126 6
-135 12 -30 58 -37 299 -42 449 -10 406 -13 459 31 25 20 50 45 55 55 6 9 11
77 12 150 2 129 2 133 -23 158 -19 19 -39 26 -86 30 l-61 6 -5 36 c-3 20 -11
119 -17 219 -11 177 -11 185 8 210 16 22 30 28 74 32 30 3 67 13 82 23 27 17
27 19 27 124 l0 107 -57 54 c-64 60 -88 72 -139 72 -30 0 -34 3 -34 27 0 25 1
25 13 9 26 -35 212 -50 267 -21 37 19 54 78 46 155 -8 79 -28 121 -88 181 -97
97 -237 140 -388 119z m228 -94 c111 -56 176 -193 126 -264 -13 -19 -24 -22
-78 -22 l-63 0 -12 60 c-7 36 -22 71 -36 88 -23 26 -25 26 -52 12 -60 -34 -93
-112 -93 -226 0 -92 8 -99 114 -99 l81 0 3 -86 3 -87 -85 -3 c-130 -6 -125 6
-132 -279 -7 -240 4 -423 27 -474 13 -27 32 -34 134 -52 l50 -9 -3 -62 c-2
-34 -7 -74 -11 -90 -7 -26 -11 -28 -57 -27 -27 1 -146 4 -264 7 -118 3 -225 5
-237 6 -22 1 -23 5 -23 90 l0 90 55 6 c30 4 60 13 66 21 16 20 2 706 -16 730
-7 10 -31 19 -63 22 l-52 5 0 102 0 102 63 13 c80 16 93 32 96 112 5 152 53
249 155 314 65 41 223 41 304 0z"/>
<path d="M1259 7711 c-16 -20 -19 -41 -19 -128 0 -156 19 -188 119 -200 l49
-6 7 -69 c9 -92 8 -581 -2 -798 l-8 -175 -40 -3 c-47 -3 -82 -19 -90 -41 -3
-8 -9 -63 -12 -121 -6 -117 3 -155 40 -169 13 -5 142 -12 288 -16 145 -4 272
-9 282 -12 25 -7 96 42 101 70 3 12 7 73 9 136 5 128 -7 250 -25 263 -7 5 -33
6 -57 3 l-44 -5 8 267 c5 148 9 408 9 578 1 300 0 311 -21 350 -12 22 -35 55
-52 73 l-30 33 -247 -3 c-246 -3 -246 -3 -265 -27z m478 -333 c-3 -161 -11
-358 -18 -438 -18 -225 2 -620 33 -657 6 -7 32 -13 58 -13 l47 0 7 -54 c5 -49
3 -78 -10 -145 l-5 -24 -227 6 c-125 4 -242 7 -259 7 l-33 0 0 88 c0 48 4 92
8 98 4 6 30 15 59 19 28 3 58 14 66 23 25 30 38 631 21 1000 -7 154 -11 162
-85 162 -84 0 -89 6 -89 115 l0 94 98 4 c53 1 151 4 216 5 l119 2 -6 -292z"/>
<path d="M11649 7708 c-1 -2 -7 -83 -14 -181 -7 -98 -17 -182 -21 -186 -9 -8
-490 7 -989 31 -183 8 -496 12 -905 11 -624 -3 -625 -3 -642 -24 -13 -15 -18
-39 -18 -78 0 -31 -6 -139 -14 -241 -8 -102 -17 -264 -21 -360 l-6 -175 47
-90 c26 -49 60 -110 76 -134 15 -25 28 -50 28 -57 0 -32 31 -37 253 -40 122
-2 346 -8 497 -14 151 -6 574 -12 940 -15 366 -2 678 -4 694 -4 21 -1 26 -4
18 -13 -12 -16 -21 -477 -9 -495 14 -22 38 -14 91 30 28 24 67 54 86 67 19 13
131 98 249 189 291 226 418 320 538 402 55 38 106 75 112 83 7 8 12 90 14 215
3 172 1 207 -13 239 -22 47 -166 185 -295 282 -170 128 -420 340 -580 493 -43
40 -80 67 -93 67 -12 0 -22 -1 -23 -2z m357 -361 c118 -98 154 -127 294 -234
63 -48 151 -122 194 -164 l79 -75 -79 -64 c-78 -63 -114 -93 -224 -190 -87
-77 -146 -126 -315 -265 -88 -71 -195 -161 -238 -200 l-80 -69 3 154 c5 229 5
229 -27 241 -30 11 -1179 30 -2027 32 l-508 2 6 160 c3 88 14 268 23 401 l17
241 246 6 c364 10 926 8 1080 -3 125 -9 458 -22 991 -37 151 -4 218 -3 223 5
7 12 21 122 31 250 l7 82 107 -98 c58 -54 147 -133 197 -175z"/>
<path d="M11141 7136 c-9 -11 -10 -50 -5 -145 4 -72 5 -131 2 -131 -6 0 -89
124 -123 185 -15 28 -37 60 -48 73 -24 26 -63 29 -76 5 -11 -21 15 -406 29
-441 7 -16 17 -22 33 -20 21 3 22 7 20 93 -1 50 -5 123 -8 164 l-6 74 45 -64
c25 -35 54 -80 65 -99 34 -60 96 -135 115 -138 10 -2 22 0 27 5 12 12 -10 424
-23 441 -14 16 -33 15 -47 -2z"/>
<path d="M9856 7131 c-68 -5 -91 -10 -99 -23 -20 -31 8 -48 79 -48 l64 0 1
-47 c6 -233 15 -326 31 -336 12 -8 21 -7 34 3 15 13 16 32 10 202 l-7 188 48
0 c56 0 87 17 81 46 -3 17 -12 19 -78 20 -41 0 -115 -2 -164 -5z"/>
<path d="M10378 7128 c-3 -7 -2 -52 1 -100 l6 -88 -30 0 c-16 0 -54 3 -82 6
l-53 7 -1 46 c-2 73 -12 105 -33 109 -36 7 -41 -18 -34 -154 3 -71 6 -159 7
-196 1 -59 3 -67 23 -74 39 -12 51 19 44 115 l-5 84 52 -7 c29 -3 66 -6 84 -6
l31 0 7 -75 c6 -62 11 -75 27 -81 12 -3 26 0 34 8 11 11 11 43 -1 205 -7 106
-16 197 -20 203 -9 14 -52 13 -57 -2z"/>
<path d="M10551 7116 c-6 -7 -9 -26 -6 -42 3 -16 9 -105 15 -198 7 -126 13
-173 25 -186 21 -23 223 -22 238 2 20 30 1 45 -67 52 -36 3 -77 4 -90 0 -22
-5 -25 -2 -31 28 -4 19 -5 48 -3 64 3 29 4 29 82 34 87 5 113 22 86 55 -11 13
-30 16 -94 14 l-81 -2 -3 61 -3 62 64 0 c74 0 103 15 93 48 -7 21 -13 22 -110
22 -75 0 -107 -4 -115 -14z"/>
<path d="M4432 7431 c-8 -5 -12 -17 -10 -27 3 -17 14 -19 88 -21 132 -3 376
-23 470 -39 113 -18 149 -18 157 2 3 8 1 20 -5 26 -34 34 -657 87 -700 59z"/>
<path d="M680 7321 c-92 -5 -112 -10 -166 -38 -123 -64 -212 -198 -263 -395
-74 -288 -59 -527 46 -706 31 -52 142 -166 184 -187 16 -9 76 -23 133 -31 94
-14 113 -14 194 0 49 9 127 30 173 47 70 27 94 43 147 95 105 105 137 217 96
336 -19 58 -40 76 -95 87 -24 5 -36 9 -26 10 10 1 39 12 66 25 40 21 52 34 72
78 48 109 35 254 -37 402 -58 122 -91 157 -192 209 -74 39 -202 82 -222 75 -3
-1 -52 -4 -110 -7z m181 -77 c50 -14 68 -27 129 -89 41 -43 80 -95 95 -127 30
-66 58 -276 47 -358 l-7 -55 -240 -2 c-282 -2 -319 -6 -340 -36 -25 -35 -21
-195 7 -253 41 -87 150 -129 229 -89 30 16 89 98 114 159 12 29 20 34 61 40
81 11 141 7 158 -10 34 -34 5 -197 -49 -266 -43 -58 -144 -105 -267 -125 -81
-14 -100 -14 -184 0 -83 14 -99 20 -141 54 -171 140 -236 377 -182 668 53 292
167 463 329 496 64 13 183 9 241 -7z m74 -704 l50 0 -63 -31 c-39 -19 -67 -40
-74 -55 -12 -27 -85 -64 -125 -64 -41 0 -93 27 -103 55 -6 15 -10 42 -10 60
l0 34 103 4 c56 2 118 2 137 0 19 -1 57 -3 85 -3z"/>
<path d="M654 7040 c-67 -43 -127 -209 -90 -249 15 -17 30 -18 159 -14 94 4
146 9 155 18 18 17 0 150 -28 204 -31 61 -131 82 -196 41z m84 -90 c10 -11 28
-38 41 -60 l22 -40 -75 0 c-41 0 -81 -3 -90 -6 -23 -9 -20 14 10 74 29 58 58
68 92 32z"/>
<path d="M2070 7251 c-24 -24 -28 -36 -34 -123 -11 -153 12 -206 97 -217 l42
-6 9 -289 c10 -327 14 -309 -71 -322 -62 -9 -73 -29 -73 -137 0 -97 15 -149
50 -167 13 -7 125 -15 291 -21 l270 -10 57 28 c70 35 80 61 81 218 1 127 -9
155 -59 171 -25 8 -36 19 -42 40 -4 16 -10 160 -12 319 -5 353 -12 400 -67
466 -65 76 -77 79 -310 78 l-202 -1 -27 -27z m434 -63 c3 -13 6 -189 7 -393 1
-436 4 -478 43 -511 17 -15 40 -24 62 -24 l34 0 0 -92 c0 -51 -3 -103 -6 -115
l-6 -22 -242 6 c-132 3 -251 10 -264 14 -22 8 -23 13 -20 91 l3 81 60 16 c90
24 88 16 79 372 -8 355 -10 362 -86 367 -64 4 -73 21 -64 130 3 46 9 88 12 93
3 5 90 9 193 9 187 0 189 0 195 -22z"/>
<path d="M7701 7122 c-6 -2 -11 -14 -11 -27 0 -18 7 -25 32 -30 39 -9 410 4
428 15 6 4 10 16 8 26 -3 18 -16 19 -225 19 -122 0 -226 -1 -232 -3z"/>
<path d="M4816 6735 c-8 -9 -13 -22 -10 -30 5 -11 40 -14 195 -12 198 1 228 8
199 42 -19 22 -361 22 -384 0z"/>
<path d="M7647 6514 c-4 -4 -7 -15 -7 -24 0 -17 16 -24 345 -160 105 -44 251
-106 325 -138 103 -46 139 -58 153 -50 49 26 9 48 -363 202 -91 38 -217 91
-280 118 -120 53 -160 65 -173 52z"/>
<path d="M5250 6008 c-63 -73 -156 -175 -206 -228 -50 -52 -115 -126 -146
-165 -30 -38 -67 -81 -81 -95 -41 -39 -32 -79 14 -65 11 4 54 50 96 103 42 53
117 140 167 192 128 134 289 317 300 340 10 23 2 50 -16 50 -7 0 -65 -60 -128
-132z"/>
<path d="M7276 5854 c-21 -20 -20 -30 5 -55 31 -31 134 -193 182 -286 23 -46
47 -85 54 -87 6 -3 19 1 28 8 16 11 14 18 -20 87 -38 74 -175 298 -203 332
-19 21 -26 21 -46 1z"/>
<path d="M5918 5733 c-9 -10 -60 -112 -114 -226 -88 -189 -96 -210 -82 -224 9
-9 21 -12 28 -8 7 4 42 69 77 144 36 75 83 173 104 219 32 66 38 86 28 98 -15
18 -23 18 -41 -3z"/>
<path d="M6606 5645 c-3 -9 -2 -35 3 -58 23 -103 63 -427 71 -579 11 -202 15
-218 45 -218 23 0 40 24 29 41 -3 5 -10 85 -15 177 -9 152 -58 545 -77 617 -9
34 -45 47 -56 20z"/>
<path d="M10132 3994 c-12 -8 -22 -25 -22 -37 0 -22 -1 -22 -187 -22 l-187 0
-7 -25 c-4 -14 -7 -181 -8 -371 -1 -294 1 -348 14 -359 10 -8 45 -11 111 -8
l97 3 -6 -145 c-4 -80 -11 -167 -16 -195 -20 -104 -32 -247 -21 -260 5 -6 28
-17 50 -24 l40 -12 0 -198 0 -198 -46 -7 c-26 -3 -72 -6 -104 -6 -201 0 -349
-143 -379 -365 -8 -62 -7 -72 10 -89 16 -17 22 -18 45 -7 15 6 28 10 30 9 1
-2 7 -217 13 -478 13 -570 28 -688 94 -758 57 -60 93 -72 222 -75 126 -2 118
2 131 -69 3 -21 11 -41 18 -46 11 -9 116 -30 261 -51 156 -23 462 -35 900 -36
395 0 477 3 580 18 194 30 268 45 300 61 17 9 38 16 47 16 9 0 21 6 25 14 4 7
32 16 61 19 103 12 213 81 252 158 11 21 31 70 44 111 83 246 105 402 113 768
4 186 9 277 17 282 6 4 25 8 42 8 43 0 76 33 68 68 -35 155 -60 217 -112 274
-61 68 -184 116 -324 125 l-87 6 -3 196 c-2 108 0 200 4 205 4 5 22 9 40 9 18
0 39 4 46 10 16 12 17 311 1 478 -7 66 -10 122 -7 124 3 3 41 -4 85 -15 45
-11 88 -18 96 -14 26 10 36 51 48 206 11 148 7 515 -6 551 -4 9 -19 24 -33 33
-34 22 -159 22 -256 0 -87 -21 -86 -21 -86 12 0 15 -7 38 -16 50 -14 20 -23
22 -113 22 -62 0 -101 -4 -109 -12 -7 -7 -12 -30 -12 -51 0 -38 -1 -39 -27
-33 -383 83 -942 99 -1440 40 l-53 -6 0 33 c0 43 -8 55 -43 68 -44 17 -169 14
-195 -5z m-109 -134 l87 0 0 -277 c0 -153 -4 -284 -8 -290 -10 -16 -290 -59
-301 -47 -4 5 -6 148 -3 318 l5 309 66 -7 c36 -3 105 -6 154 -6z m1321 0 c178
-14 334 -34 460 -62 l99 -22 -6 -250 c-4 -137 -10 -253 -14 -257 -19 -18 -305
-32 -668 -33 -337 0 -419 3 -605 22 -118 12 -230 25 -248 28 l-33 5 6 117 c17
342 24 411 44 416 14 5 321 30 466 39 123 8 371 6 499 -3z m1100 -72 c14 -90
16 -298 5 -454 -10 -151 -14 -174 -28 -170 -9 2 -79 23 -156 46 l-140 43 7
259 c3 143 9 262 12 265 12 12 174 42 233 42 l62 1 5 -32z m-1829 -605 c226
-29 1130 -27 1241 3 19 5 22 0 28 -40 6 -36 12 -47 29 -51 28 -7 181 0 196 9
6 4 11 20 11 37 0 32 10 35 58 18 26 -9 32 -17 36 -52 11 -87 26 -327 26 -424
l0 -101 -27 -6 c-37 -8 -453 -43 -614 -52 -70 -3 -174 -3 -233 1 l-107 7 3
105 3 106 -145 2 c-80 1 -153 -2 -162 -7 -15 -7 -18 -23 -18 -88 0 -71 -2 -79
-21 -85 -25 -8 -455 2 -669 16 -132 8 -263 29 -278 44 -2 2 5 77 16 167 12 90
24 215 27 278 7 121 10 130 58 130 23 0 27 -4 27 -30 0 -37 29 -54 73 -44 18
4 54 6 81 5 54 -2 66 7 66 52 l0 28 88 -6 c48 -4 141 -14 207 -22z m-72 -685
l397 -12 0 -43 c0 -38 -3 -43 -22 -43 -52 -1 -53 -5 -56 -216 -3 -210 -3 -214
46 -214 21 0 22 -4 22 -80 l0 -81 63 -40 c73 -47 94 -47 182 3 l60 34 9 77 c8
76 9 77 36 77 16 0 35 6 43 14 17 17 34 124 43 266 7 96 6 102 -16 125 -16 17
-34 25 -57 25 -31 0 -33 2 -33 33 l0 32 182 -3 c125 -2 262 3 432 17 137 12
252 19 255 16 11 -12 13 -1308 2 -1532 -15 -287 -29 -468 -44 -557 l-12 -70
-84 -22 c-46 -13 -152 -33 -235 -45 -142 -20 -180 -21 -656 -16 -358 3 -554 9
-675 21 -232 22 -324 36 -339 52 -54 54 -64 715 -26 1779 5 149 10 305 10 349
l0 78 38 -6 c20 -3 216 -11 435 -18z m497 -259 c6 -86 28 -132 62 -127 38 5
59 48 65 131 5 63 9 77 22 77 10 0 22 -5 29 -12 9 -9 15 -9 24 0 22 22 35 12
41 -30 5 -39 -7 -236 -15 -242 -1 -2 -75 1 -162 5 -113 6 -162 12 -167 21 -5
7 -9 68 -9 136 l0 123 53 -3 52 -3 5 -76z m-1065 -511 c-7 -420 -9 -436 -41
-444 -31 -8 -81 2 -111 22 -32 20 -42 49 -58 174 -25 187 -81 290 -158 290
-79 0 -83 16 -32 118 64 128 141 168 323 171 l83 1 -6 -332z m2461 256 c105
-33 145 -66 177 -146 13 -35 27 -79 31 -99 6 -35 6 -36 -36 -48 -65 -19 -124
-57 -147 -94 -11 -19 -32 -83 -46 -143 -40 -168 -88 -234 -170 -234 l-25 0 0
168 c0 92 -3 272 -7 400 l-6 234 74 -7 c41 -4 111 -18 155 -31z m-2765 -462
c23 -224 87 -312 226 -312 l60 0 7 -337 c4 -186 8 -358 9 -383 l2 -45 -90 -3
c-77 -2 -96 1 -135 20 -25 13 -51 35 -57 49 -42 88 -63 368 -62 849 0 288 1
313 15 287 8 -16 20 -72 25 -125z m2863 -292 c-6 -149 -27 -330 -49 -430 -33
-144 -88 -300 -121 -338 -34 -40 -117 -86 -173 -96 -32 -6 -33 -5 -27 22 18
85 47 519 46 700 l0 62 45 0 c120 0 191 88 236 295 11 55 24 105 28 110 11 18
21 -187 15 -325z"/>
<path d="M10520 1650 c-75 -11 -170 -38 -198 -56 -54 -35 -88 -174 -78 -318 7
-103 15 -126 47 -126 15 0 18 -5 14 -22 -2 -13 -14 -89 -25 -170 -20 -149 -25
-289 -12 -363 7 -38 11 -41 67 -64 196 -78 461 -114 855 -115 247 -1 288 1
404 22 111 20 230 57 274 85 15 10 9 309 -10 505 -9 98 -8 115 5 125 25 20 49
125 50 217 0 131 -35 182 -153 219 -135 43 -227 51 -615 56 -203 3 -415 7
-470 9 -55 2 -125 0 -155 -4z m975 -86 c97 -8 234 -37 281 -60 21 -10 45 -30
52 -44 14 -27 11 -101 -8 -186 l-11 -52 -107 -26 c-59 -15 -170 -47 -247 -71
-196 -61 -210 -64 -300 -71 -131 -9 -278 16 -436 75 -165 62 -275 91 -346 91
l-53 0 0 105 c0 103 15 170 45 203 7 8 43 22 81 32 64 18 102 19 524 14 250
-2 487 -7 525 -10z m-954 -453 c52 -16 148 -48 214 -70 66 -23 131 -43 145
-46 l25 -4 0 -134 c0 -109 3 -138 17 -159 35 -54 148 -63 196 -15 31 31 52
119 52 219 l0 77 38 6 c20 4 118 31 217 60 183 54 295 85 312 85 16 0 32 -150
39 -361 l7 -195 -59 -22 c-74 -26 -87 -28 -225 -47 -205 -27 -683 -12 -914 30
-98 17 -243 59 -259 75 -18 18 -11 218 13 375 11 77 21 143 21 148 0 15 71 6
161 -22z"/>
<path d="M5474 3065 c-10 -14 -14 -53 -14 -141 0 -107 2 -124 20 -147 21 -27
73 -47 121 -47 l27 0 7 -136 c10 -191 -4 -897 -19 -906 -6 -4 -27 -8 -47 -8
-21 0 -47 -8 -60 -19 -22 -18 -24 -27 -27 -136 -4 -131 0 -159 25 -171 10 -4
151 -13 313 -19 l295 -11 37 28 c48 37 51 58 46 257 -4 185 -9 196 -75 188
-42 -4 -43 -4 -49 29 -3 19 -4 98 0 177 10 239 19 894 12 929 -7 38 -67 137
-91 151 -8 4 -126 7 -261 5 -232 -3 -247 -4 -260 -23z m480 -296 c-2 -140 -9
-306 -14 -369 -21 -249 -8 -686 23 -750 10 -20 21 -26 62 -30 l50 -5 3 -45 c2
-25 1 -74 -3 -109 l-7 -63 -256 7 c-142 4 -259 9 -262 11 -5 5 -1 186 4 191 2
2 27 6 56 10 73 8 92 29 89 96 -1 29 1 219 5 422 8 379 -2 623 -25 651 -7 8
-30 14 -58 14 -80 0 -88 6 -95 62 -4 28 -4 74 -1 102 l7 51 213 4 213 3 -4
-253z"/>
<path d="M7783 2685 c-89 -25 -195 -83 -241 -133 -86 -93 -157 -246 -197 -426
-14 -63 -17 -109 -13 -230 5 -136 8 -160 37 -245 64 -190 197 -318 366 -351
104 -20 277 16 370 77 98 65 174 134 212 195 49 79 63 117 63 180 0 43 -4 54
-31 79 -17 16 -42 32 -56 35 -24 6 -23 7 16 30 59 36 80 76 87 175 21 275 -87
483 -306 588 -66 31 -85 36 -165 38 -57 2 -109 -3 -142 -12z m180 -114 c108
-37 166 -77 212 -145 59 -89 88 -185 89 -296 1 -53 -5 -115 -13 -142 l-13 -46
-159 5 c-104 4 -190 2 -251 -7 -103 -14 -125 -17 -150 -19 -10 0 -24 -11 -31
-23 -20 -33 -7 -180 21 -234 24 -48 81 -101 118 -110 36 -9 117 2 154 21 36
18 76 78 85 127 4 19 10 41 15 49 12 18 158 26 189 10 52 -28 2 -194 -78 -259
-122 -100 -208 -134 -341 -136 -73 0 -93 3 -141 27 -150 73 -234 203 -265 410
-20 133 -7 275 37 413 62 196 135 299 250 353 86 41 154 42 272 2z m197 -701
c0 -5 -15 -10 -33 -10 -49 0 -126 -29 -141 -54 -8 -11 -17 -39 -21 -61 -8 -48
-30 -75 -61 -75 -38 0 -125 78 -147 133 -11 26 -18 50 -15 52 20 21 418 35
418 15z"/>
<path d="M7734 2338 c-43 -30 -75 -79 -90 -139 -22 -85 -16 -89 136 -78 66 5
118 4 140 -2 20 -6 49 -9 65 -7 27 3 30 7 33 43 7 88 -24 147 -99 185 -55 28
-144 27 -185 -2z m117 -65 c22 -14 47 -39 54 -53 l14 -27 -104 -2 c-114 -2
-114 -2 -77 57 12 18 54 49 70 52 1 0 21 -12 43 -27z"/>
<path d="M4825 2671 c-54 -9 -154 -64 -198 -109 -128 -131 -217 -438 -205
-707 9 -186 73 -334 195 -445 70 -64 95 -77 174 -89 211 -35 445 22 555 134
73 75 104 147 104 240 0 124 -38 184 -117 186 -16 0 -21 3 -13 6 100 37 121
58 152 150 22 69 23 113 2 206 -26 112 -96 250 -157 308 -33 31 -166 96 -234
113 -61 16 -184 19 -258 7z m255 -77 c102 -30 221 -174 247 -298 18 -89 27
-275 14 -308 l-10 -27 -243 0 c-295 1 -315 -2 -334 -47 -16 -39 -18 -143 -4
-195 26 -95 101 -152 188 -146 65 5 96 31 147 129 42 80 56 88 155 88 98 0
100 -1 100 -73 0 -194 -94 -292 -320 -333 -85 -15 -230 -4 -286 22 -89 42
-194 193 -229 329 -19 75 -19 242 -1 355 48 292 160 471 321 511 56 13 199 10
255 -7z m41 -700 l67 -7 -52 -27 c-28 -15 -60 -41 -71 -58 -11 -17 -25 -31
-32 -32 -7 0 -28 -7 -47 -16 -73 -35 -150 7 -161 88 l-6 47 93 4 c51 1 104 4
118 5 14 1 55 -1 91 -4z"/>
<path d="M4869 2387 c-38 -25 -82 -99 -100 -169 -12 -44 -12 -49 9 -71 22 -23
26 -23 160 -19 75 2 143 9 150 14 19 16 14 101 -10 174 -19 57 -26 69 -55 80
-50 21 -115 18 -154 -9z m85 -96 c19 -17 46 -63 46 -80 0 -5 -36 -11 -80 -13
-72 -3 -80 -1 -80 15 0 18 24 71 42 93 11 14 46 7 72 -15z"/>
<path d="M6533 2630 c-75 -38 -135 -102 -175 -186 -25 -53 -31 -81 -35 -162
-13 -243 75 -387 257 -422 162 -31 235 -62 263 -108 22 -39 22 -57 -3 -82 -15
-15 -33 -20 -72 -20 -65 0 -103 27 -141 102 -15 31 -41 68 -58 84 -28 26 -36
29 -127 32 -139 6 -131 21 -139 -275 l-6 -240 34 -12 c19 -7 72 -15 119 -18
71 -5 89 -3 102 10 15 15 22 15 94 -3 113 -29 241 -23 383 17 105 30 205 136
243 256 47 148 15 381 -61 458 -37 37 -101 59 -174 59 -52 1 -207 38 -251 61
-83 43 -110 95 -68 132 29 26 61 20 95 -16 18 -19 50 -54 73 -78 27 -29 59
-50 92 -62 59 -20 194 -40 243 -35 52 5 59 28 59 215 l0 163 -32 52 c-51 87
-65 98 -117 98 -75 -1 -173 -18 -189 -34 -13 -13 -18 -13 -38 0 -40 27 -126
44 -220 44 -81 0 -97 -3 -151 -30z m257 -46 c42 -10 80 -27 109 -49 24 -19 47
-35 51 -35 12 0 50 41 50 55 0 9 20 16 65 20 36 4 68 5 71 2 9 -9 4 -331 -5
-340 -5 -5 -30 -12 -55 -14 -72 -9 -129 18 -178 83 -48 64 -93 94 -139 94 -95
-1 -158 -105 -115 -188 33 -63 132 -114 279 -144 129 -25 161 -44 202 -118 29
-54 30 -58 30 -200 0 -142 -1 -146 -30 -200 -62 -113 -170 -165 -345 -165 -93
0 -111 3 -164 28 -73 34 -94 34 -106 2 -10 -27 -36 -31 -110 -19 l-35 6 2 146
c2 81 6 171 9 200 l5 52 63 0 c69 0 87 -12 121 -80 30 -59 58 -91 103 -117 37
-22 52 -25 112 -21 77 4 111 25 136 86 17 38 11 71 -22 129 -28 49 -88 81
-204 108 -174 41 -183 45 -226 91 -55 58 -69 111 -69 254 0 103 3 121 27 170
70 147 199 204 368 164z"/>
<path d="M4487 1123 c-4 -3 -7 -30 -7 -60 l0 -53 125 0 125 0 0 60 0 60 -118
0 c-65 0 -122 -3 -125 -7z"/>
<path d="M4850 1070 l0 -60 120 0 120 0 0 60 0 60 -120 0 -120 0 0 -60z"/>
<path d="M5210 1070 l0 -60 120 0 120 0 0 60 0 60 -120 0 -120 0 0 -60z"/>
<path d="M5579 1128 c0 -2 -1 -29 -2 -60 l-2 -58 122 0 123 0 0 60 0 60 -120
0 c-66 0 -120 -1 -121 -2z"/>
<path d="M5940 1070 l0 -60 120 0 120 0 0 60 0 60 -120 0 -120 0 0 -60z"/>
<path d="M6300 1070 l0 -60 120 0 120 0 0 60 0 60 -120 0 -120 0 0 -60z"/>
<path d="M6670 1070 l0 -60 120 0 120 0 0 60 0 60 -120 0 -120 0 0 -60z"/>
<path d="M7030 1070 l0 -60 120 0 120 0 0 60 0 60 -120 0 -120 0 0 -60z"/>
<path d="M7390 1070 l0 -60 120 0 120 0 0 60 0 60 -120 0 -120 0 0 -60z"/>
<path d="M7760 1070 l0 -60 120 0 120 0 0 60 0 60 -120 0 -120 0 0 -60z"/>
<path d="M8120 1070 l0 -60 120 0 120 0 0 60 0 60 -120 0 -120 0 0 -60z"/>
</g>
</svg>
