<?xml version="1.0" standalone="no"?>
<!DOCTYPE svg PUBLIC "-//W3C//DTD SVG 20010904//EN"
 "http://www.w3.org/TR/2001/REC-SVG-20010904/DTD/svg10.dtd">
<svg version="1.0" xmlns="http://www.w3.org/2000/svg"
 width="7616.000000pt" height="7693.000000pt" viewBox="0 0 7616.000000 7693.000000"
 preserveAspectRatio="xMidYMid meet">

<g transform="translate(0.000000,7693.000000) scale(0.100000,-0.100000)"
fill="#000000" stroke="none">
<path d="M42560 76914 c-30 -2 -143 -8 -250 -14 -1837 -100 -3718 -584 -5466
-1408 -1246 -588 -2538 -1369 -3664 -2216 -763 -574 -1417 -1142 -2100 -1826
-364 -363 -573 -586 -869 -924 -3246 -3710 -4753 -8368 -4270 -13201 348
-3495 1727 -7011 4049 -10325 1366 -1949 3040 -3818 5030 -5614 1758 -1587
3680 -3047 6010 -4564 l95 -62 -100 0 c-247 0 -1250 39 -1815 70 -2151 121
-3979 354 -5630 720 -317 70 -761 182 -758 190 2 7 1221 1626 1540 2046 99
131 124 179 138 272 24 155 -45 312 -176 403 -73 50 -910 355 -1599 582 -1038
342 -2033 627 -4045 1157 -382 101 -698 186 -703 190 -4 4 4 31 17 61 14 30
28 71 32 92 5 29 10 37 22 32 28 -10 2119 214 2192 235 128 38 239 149 276
278 26 88 16 210 -23 295 -41 87 -113 159 -200 200 -109 50 -127 49 -1158 -61
-506 -54 -921 -95 -923 -91 -3 7 42 248 54 289 3 13 33 15 181 16 143 0 198 5
282 23 431 92 803 314 1098 656 311 360 483 797 483 1228 0 801 -596 1494
-1439 1674 -115 25 -146 27 -351 28 -242 0 -320 -11 -515 -72 -330 -104 -639
-342 -847 -653 -496 -743 -382 -1847 255 -2471 l80 -79 -11 -37 c-21 -71 -282
-1364 -282 -1399 0 -20 -5 -34 -12 -34 -20 0 -1034 276 -1783 485 -165 46
-321 87 -346 90 -80 12 -194 -21 -358 -103 -66 -33 -129 -100 -168 -180 -36
-73 -38 -81 -41 -191 -2 -64 3 -291 12 -506 8 -214 13 -391 11 -394 -5 -4
-1097 427 -1107 437 -4 4 167 138 380 297 213 160 402 306 420 325 18 19 47
64 65 100 30 61 32 71 32 175 0 102 -2 115 -31 175 -17 36 -43 79 -58 97 -73
86 -1041 782 -1721 1238 -824 551 -1450 943 -3070 1918 -401 241 -740 446
-753 454 l-23 14 40 45 c23 24 49 60 58 79 10 20 22 34 29 31 39 -15 180 -41
1099 -207 703 -127 1031 -182 1080 -181 126 0 246 62 321 165 178 241 57 579
-232 651 -32 8 -466 88 -964 177 -498 89 -906 162 -907 163 -3 3 18 43 103
202 l44 82 84 -29 c347 -120 730 -114 1125 17 300 99 556 254 789 478 269 259
436 549 518 901 26 112 28 135 29 340 0 240 -8 299 -65 487 -120 389 -379 734
-729 969 -224 151 -452 242 -731 290 -114 20 -384 18 -505 -5 -762 -141 -1333
-789 -1440 -1636 -23 -177 -16 -455 14 -615 39 -210 119 -430 210 -580 49 -80
49 -80 31 -105 -23 -32 -603 -1133 -640 -1215 -15 -33 -30 -68 -34 -78 -4 -14
-35 1 -198 100 -336 202 -982 599 -1298 797 -168 104 -336 206 -374 226 -67
34 -73 35 -180 35 -104 0 -115 -2 -178 -32 -78 -37 -151 -105 -189 -178 -15
-27 -45 -124 -68 -215 -77 -308 -254 -950 -262 -950 -9 0 -1127 725 -1147 744
-10 10 104 69 564 292 651 314 655 317 720 448 61 124 56 275 -11 391 -27 45
-239 280 -613 680 -279 298 -1201 1220 -1542 1541 -568 535 -1103 1025 -2107
1928 l-510 459 48 39 c27 21 58 51 70 67 l22 30 37 -19 c93 -47 1990 -773
2048 -783 218 -39 436 123 472 351 25 150 -47 314 -176 402 -26 18 -403 169
-926 371 -486 188 -889 344 -896 348 -9 5 14 41 78 122 50 63 95 118 100 123
4 4 44 -12 87 -36 465 -261 1051 -286 1608 -66 527 208 926 612 1091 1103 53
161 74 278 81 460 15 418 -122 820 -396 1164 -271 339 -635 562 -1059 648
-135 28 -442 25 -581 -5 -352 -77 -627 -227 -886 -487 -239 -238 -396 -494
-501 -818 -130 -403 -136 -824 -15 -1184 l40 -118 -33 -35 c-51 -54 -842
-1045 -873 -1092 -15 -24 -28 -45 -30 -47 -4 -6 -1018 919 -1473 1343 -196
183 -231 200 -441 211 -118 6 -141 4 -196 -13 -83 -26 -157 -75 -203 -133 -25
-31 -345 -708 -984 -2080 -536 -1149 -957 -2042 -970 -2052 -11 -10 -97 -67
-189 -126 -946 -603 -3096 -2349 -4048 -3288 l-216 -213 -264 277 c-145 153
-283 296 -305 318 -84 82 -220 125 -334 108 -288 -45 -445 -337 -320 -598 35
-74 253 -308 740 -795 2790 -2791 6486 -5744 10120 -8087 2555 -1647 5159
-3062 7765 -4220 3853 -1712 7764 -2868 11550 -3412 1268 -183 2419 -292 3690
-351 927 -43 2195 -43 3145 0 3429 154 6812 817 10059 1969 156 56 289 101
295 101 7 0 187 -85 402 -189 688 -333 1382 -658 2059 -962 229 -103 376 -176
515 -258 1132 -660 1927 -1380 2393 -2169 309 -522 479 -1064 528 -1686 15
-190 6 -669 -16 -866 -119 -1073 -512 -2232 -1304 -3845 -387 -788 -855 -1656
-1696 -3145 -765 -1355 -892 -1581 -1120 -1990 -1005 -1806 -1690 -3136 -2327
-4515 -1679 -3635 -2662 -7060 -2997 -10450 -78 -781 -113 -1392 -131 -2236
-12 -548 -9 -588 46 -689 81 -150 268 -241 431 -211 172 32 304 155 342 322 6
24 11 152 11 284 1 1191 119 2638 320 3932 34 222 149 884 154 890 1 1 177
-27 391 -63 4324 -714 9213 -1187 13940 -1349 1483 -50 2077 -60 3830 -60
1545 0 1965 5 2990 35 2865 84 5544 285 8035 601 286 36 887 118 1018 138 l52
8 0 -51 c0 -66 -26 -537 -45 -826 -58 -852 -152 -1744 -240 -2271 -14 -81 -25
-169 -25 -197 0 -123 76 -261 183 -333 83 -55 150 -72 256 -67 109 5 197 43
271 118 78 77 104 144 139 355 128 765 244 2029 296 3200 47 1075 49 2421 5
3495 -239 5868 -1662 11278 -4148 15775 -2594 4693 -6317 8394 -11119 11053
-712 395 -1572 827 -2318 1164 -872 395 -1856 792 -2732 1104 -106 37 -193 72
-193 76 0 5 64 75 143 156 557 579 1171 1281 1699 1942 1710 2145 3030 4461
3925 6890 775 2103 1235 4299 1368 6525 30 515 38 872 32 1550 -5 650 -10 798
-42 1295 -342 5267 -2493 10433 -6016 14450 -353 403 -577 640 -1048 1110
-573 573 -927 898 -1487 1364 -1498 1248 -3131 2259 -4819 2981 -461 197 -833
338 -1338 507 -1186 395 -2351 641 -3562 753 -440 40 -618 47 -1235 50 -338 1
-640 1 -670 -1z m1100 -834 c135 -5 274 -12 309 -16 l63 -6 -7 -31 c-3 -18
-24 -135 -45 -262 -64 -380 -109 -782 -142 -1245 -15 -213 -16 -979 -1 -1113
11 -103 26 -93 -152 -102 -154 -7 -514 -40 -719 -65 -88 -11 -161 -18 -163
-16 -14 14 -56 444 -75 771 -15 267 -15 1239 0 1605 19 442 22 478 41 483 32
9 651 7 891 -3z m-1753 -177 c-21 -421 -29 -851 -24 -1338 6 -616 24 -933 73
-1333 9 -73 14 -135 11 -139 -9 -8 -398 -86 -403 -80 -9 8 -44 210 -74 415
-115 803 -157 1937 -89 2443 6 48 15 93 19 100 8 12 340 56 444 58 l49 1 -6
-127z m3181 51 c103 -15 188 -27 190 -29 1 -1 -11 -83 -27 -181 -120 -720
-206 -1512 -247 -2286 l-6 -128 -158 0 -157 0 -8 78 c-45 479 -8 1277 91 1987
23 167 88 544 99 573 6 16 6 16 223 -14z m-4533 -136 c-3 -13 -9 -115 -15
-227 -37 -752 45 -1929 186 -2651 13 -68 20 -127 16 -131 -4 -3 -104 -34 -222
-67 -118 -34 -313 -93 -433 -131 -142 -45 -220 -65 -222 -57 -12 35 -147 560
-219 856 -185 755 -304 1349 -350 1750 -17 144 -21 366 -8 374 50 31 1162 301
1255 305 13 1 16 -5 12 -21z m5790 -97 c455 -106 938 -238 932 -255 -2 -6
-111 -533 -242 -1171 -131 -638 -239 -1161 -240 -1162 0 -1 -50 7 -110 17
-146 27 -477 75 -650 95 -77 9 -155 18 -173 21 l-32 5 5 82 c3 45 10 168 16
272 30 552 114 1307 209 1905 39 243 39 240 58 240 9 0 112 -22 227 -49z
m-7870 -726 c63 -516 261 -1429 529 -2445 41 -157 72 -288 68 -291 -10 -10
-313 -132 -316 -128 -8 12 -103 223 -137 305 -276 663 -574 1707 -673 2354
-14 91 -26 187 -28 214 l-2 49 99 40 c55 22 174 68 265 103 l165 63 7 -67 c4
-37 15 -125 23 -197z m9845 131 c118 -45 214 -86 214 -91 -2 -11 -686 -2138
-689 -2143 -2 -3 -227 57 -232 62 -1 1 102 509 229 1129 188 912 235 1127 248
1126 8 0 112 -38 230 -83z m1249 -526 c193 -89 605 -295 793 -396 222 -118
538 -297 538 -304 0 -3 -27 -42 -61 -85 -228 -298 -541 -822 -863 -1447 -65
-126 -120 -228 -122 -228 -3 0 -63 27 -133 59 -287 133 -550 243 -881 367
-120 45 -195 78 -194 86 1 9 624 1955 659 2055 5 14 19 8 264 -107z m-12426
-72 c142 -806 491 -1951 804 -2636 31 -67 54 -124 52 -126 -2 -2 -87 -48 -189
-103 -325 -176 -733 -422 -1023 -615 -65 -44 -125 -77 -132 -74 -39 14 -286
334 -437 566 -337 514 -695 1222 -912 1802 -63 170 -104 303 -96 311 33 29
650 388 950 553 228 125 928 483 945 484 6 0 23 -73 38 -162z m14597 -1135
c50 -32 90 -61 90 -64 0 -3 -30 -44 -67 -90 -295 -372 -689 -946 -948 -1379
-55 -91 -100 -166 -101 -168 -3 -4 -74 32 -97 50 -17 13 -11 29 108 258 296
570 505 927 711 1217 122 170 184 245 200 239 8 -3 55 -32 104 -63z m-17182
-428 c332 -867 912 -1903 1351 -2413 34 -40 61 -76 59 -81 -2 -5 -68 -59 -148
-121 -80 -62 -171 -135 -203 -161 l-58 -49 -39 31 c-83 67 -271 288 -413 486
-367 512 -828 1355 -1088 1992 -33 79 -59 149 -59 156 0 11 166 132 420 308
81 56 96 63 102 49 4 -9 39 -98 76 -197z m18061 -177 c376 -270 1264 -977
1258 -1000 -1 -4 -49 -46 -107 -93 -267 -220 -671 -619 -1009 -995 -101 -113
-196 -218 -211 -234 l-28 -28 -198 156 c-231 182 -514 389 -743 544 l-161 110
115 192 c200 332 464 725 713 1060 129 173 270 350 279 350 3 0 45 -28 92 -62z
m-7319 -313 c1802 -123 3427 -614 4991 -1510 2448 -1402 4542 -3760 6019
-6778 1735 -3544 2502 -7742 2140 -11712 -182 -1994 -643 -3875 -1365 -5575
-696 -1637 -1650 -3114 -2797 -4330 -983 -1042 -2109 -1908 -3388 -2604 -264
-144 -773 -396 -800 -396 -12 0 -72 24 -133 54 -62 30 -136 64 -164 75 -75 29
-527 235 -958 436 -3804 1773 -7009 3643 -9635 5620 -5950 4480 -8804 9446
-8335 14505 236 2537 1336 5042 3176 7230 511 608 1142 1244 1744 1760 1162
995 2438 1788 3600 2237 1529 591 3111 933 4630 1003 267 12 1007 4 1275 -15z
m-11724 -855 c429 -858 875 -1547 1267 -1952 l74 -78 -196 -184 c-302 -284
-722 -713 -983 -1005 -32 -36 -63 -61 -70 -58 -30 12 -274 225 -399 348 -533
527 -1183 1404 -1489 2006 -38 74 -77 144 -87 155 -17 19 -14 24 142 177 393
385 915 847 1359 1203 l70 56 80 -182 c44 -99 148 -318 232 -486z m21119 -571
c0 -4 -63 -55 -140 -114 -379 -292 -811 -667 -1172 -1018 -135 -132 -128 -130
-192 -63 -31 32 -33 37 -20 53 71 85 406 450 533 583 280 290 499 490 720 657
l98 74 87 -83 c47 -46 86 -86 86 -89z m885 -884 c232 -248 437 -475 643 -714
l159 -184 -34 -20 c-120 -73 -315 -206 -443 -302 -239 -180 -377 -295 -899
-753 l-148 -131 -116 142 c-242 296 -579 680 -784 893 -54 56 -98 106 -98 112
0 12 225 230 421 408 282 256 619 536 884 736 55 41 106 83 114 92 13 16 18
13 64 -31 27 -26 133 -138 237 -248z m-24361 -175 c109 -185 370 -576 531
-795 450 -613 957 -1163 1357 -1475 l32 -25 -35 -45 c-20 -25 -93 -118 -161
-207 l-125 -162 -56 38 c-32 21 -89 59 -128 84 -308 197 -817 724 -1291 1333
-288 371 -693 963 -693 1014 0 12 91 119 304 359 l119 133 30 -53 c16 -30 68
-119 116 -199z m-1004 -1120 c376 -557 836 -1126 1265 -1564 299 -305 541
-509 764 -645 l94 -57 -137 -215 c-163 -254 -346 -556 -461 -764 -46 -82 -89
-156 -95 -163 -10 -11 -30 -8 -116 21 -369 124 -833 384 -1359 760 -430 308
-963 759 -1180 998 l-71 78 83 138 c189 319 480 765 709 1090 178 252 373 512
380 505 3 -4 59 -86 124 -182z m26789 -374 c42 -55 73 -103 69 -107 -5 -4 -75
-46 -158 -94 -413 -241 -974 -617 -1354 -908 l-125 -95 -39 55 c-36 50 -38 57
-23 65 21 12 17 8 371 318 422 370 624 531 860 691 145 97 308 191 316 181 3
-4 41 -52 83 -106z m743 -1018 c268 -390 584 -874 582 -894 0 -5 -98 -57 -217
-116 -363 -179 -777 -425 -1284 -764 -142 -95 -261 -175 -265 -177 -5 -3 -49
65 -98 151 -120 211 -337 574 -451 753 -52 81 -96 153 -99 160 -12 34 683 528
1170 832 201 125 475 285 491 286 6 1 83 -104 171 -231z m-29133 -1037 c454
-434 1170 -977 1725 -1307 289 -171 660 -352 859 -418 28 -10 52 -21 52 -26 0
-5 -35 -87 -78 -182 -43 -95 -94 -210 -113 -255 l-34 -81 -41 33 c-59 49 -110
72 -215 101 -436 119 -1148 540 -1934 1143 -170 131 -469 379 -562 467 l-63
59 142 288 c78 158 143 287 145 287 2 0 55 -49 117 -109z m30235 -714 c33 -60
61 -112 61 -116 0 -4 -107 -58 -237 -121 -455 -220 -974 -501 -1401 -756 -122
-74 -225 -134 -227 -134 -3 0 -25 40 -50 90 l-45 89 153 104 c606 415 1122
724 1517 908 109 50 148 64 156 56 6 -7 39 -61 73 -120z m-30874 -657 c136
-114 310 -251 510 -401 864 -649 1654 -1085 2143 -1184 46 -9 92 -15 103 -12
16 4 19 2 14 -11 -74 -194 -246 -747 -335 -1083 l-63 -237 -136 -6 c-226 -12
-495 20 -852 99 -624 140 -1548 489 -2024 765 -55 32 -112 62 -127 65 -16 4
-28 10 -28 14 0 13 100 382 146 541 77 265 183 595 271 844 78 220 245 666
259 687 7 12 13 8 119 -81z m31528 -577 c237 -482 423 -887 617 -1348 23 -55
44 -103 46 -106 2 -4 -31 -12 -74 -18 -309 -46 -893 -216 -1427 -416 -179 -67
-578 -231 -635 -260 -35 -18 -25 -34 -90 145 -110 304 -286 746 -442 1108 -55
128 -98 235 -96 237 34 32 636 383 943 550 156 85 953 485 965 485 4 0 90
-170 193 -377z m-32313 -2360 c536 -265 1210 -513 1815 -669 398 -102 696
-150 993 -161 94 -3 172 -10 172 -14 0 -4 -13 -90 -29 -191 -16 -101 -33 -210
-37 -243 -3 -33 -8 -63 -11 -67 -2 -4 -25 4 -51 17 -70 35 -151 48 -245 40
-138 -12 -424 20 -701 76 -605 124 -1530 438 -2066 704 -117 57 -135 69 -132
88 7 50 83 483 88 500 3 10 9 17 12 15 4 -2 90 -44 192 -95z m33357 -78 c35
-94 63 -173 63 -176 0 -4 -30 -10 -67 -13 -524 -53 -1341 -254 -2027 -498 -92
-33 -172 -56 -176 -51 -15 15 -72 215 -63 223 11 12 337 150 528 225 537 211
1096 381 1405 429 138 21 241 34 260 32 10 -1 36 -60 77 -171z m419 -1260
c143 -478 288 -1022 394 -1478 27 -119 50 -219 50 -220 0 -2 -33 0 -72 4 -691
73 -1644 2 -2283 -170 -60 -17 -111 -28 -113 -26 -2 2 -26 109 -52 237 -73
352 -143 659 -232 1012 -44 175 -82 324 -84 331 -6 16 125 68 403 161 495 165
1121 320 1488 368 66 9 131 18 145 20 14 2 83 3 155 2 l129 -1 72 -240z
m-33761 -158 c750 -298 1544 -523 2125 -602 180 -25 518 -31 609 -11 41 9 76
14 78 13 2 -2 -2 -75 -9 -163 -16 -218 -16 -1147 0 -1384 7 -102 19 -261 27
-354 12 -134 12 -171 3 -177 -7 -5 -55 -22 -106 -39 -184 -61 -416 -104 -742
-137 -220 -22 -1066 -26 -1330 -5 -243 19 -536 50 -695 73 -155 22 -423 74
-433 83 -8 9 -18 176 -33 526 -13 329 -7 1245 10 1520 20 312 57 774 66 816 5
21 9 20 122 -31 65 -28 204 -86 308 -128z m34145 -2376 c96 -12 189 -25 205
-29 l30 -8 34 -193 c18 -105 32 -194 30 -196 -3 -2 -46 3 -96 10 -577 86
-1504 85 -2279 -4 l-152 -17 -16 106 c-21 138 -21 147 7 153 12 3 101 26 197
50 255 66 606 121 930 146 63 5 300 8 525 6 345 -2 438 -6 585 -24z m-48655
-1031 c363 -52 693 -371 781 -756 23 -101 24 -272 1 -367 -61 -249 -247 -468
-516 -606 -189 -97 -367 -141 -570 -141 -374 1 -618 165 -721 485 -31 96 -39
329 -16 460 72 419 358 782 701 891 131 42 221 51 340 34z m17490 -225 c10
-58 16 -107 14 -109 -2 -2 -44 -19 -94 -39 -409 -159 -1006 -270 -1800 -333
-271 -21 -1058 -30 -1265 -15 -85 7 -155 13 -157 14 -2 2 -53 363 -68 486 l-7
54 33 -7 c19 -3 111 -17 204 -30 1116 -160 2351 -132 3033 68 42 12 80 21 83
20 3 -2 14 -51 24 -109z m30586 65 c382 -14 621 -37 874 -86 72 -14 131 -27
133 -28 4 -5 61 -530 81 -756 41 -455 67 -882 77 -1272 7 -221 6 -241 -9 -235
-142 55 -546 164 -777 211 -499 101 -853 138 -1656 172 l-130 6 -13 300 c-19
464 -48 877 -97 1362 -13 137 -23 250 -22 251 6 6 304 36 498 51 113 9 315 19
450 23 135 4 263 8 285 9 22 1 160 -3 306 -8z m-30361 -1087 c108 -416 294
-990 459 -1423 l102 -265 -53 -48 c-417 -378 -1346 -842 -2363 -1182 -270 -90
-719 -215 -729 -204 -7 7 -144 406 -224 649 -209 637 -388 1298 -522 1930 -23
107 -43 202 -46 210 -3 13 52 15 459 15 638 1 1077 30 1652 111 433 61 944
179 1180 273 28 11 53 20 56 21 3 0 16 -39 29 -87z m-21955 -1454 c382 -352
1099 -1002 1885 -1709 1824 -1642 2233 -2022 3056 -2844 486 -486 904 -918
904 -934 0 -6 -3552 -1730 -3610 -1754 -13 -5 -97 66 -331 279 -173 158 -825
748 -1449 1312 -2134 1930 -2452 2221 -2445 2241 3 8 389 837 858 1842 l852
1827 45 -43 c25 -23 131 -121 235 -217z m51510 -309 c701 -51 1263 -159 1759
-339 89 -33 176 -61 192 -63 l28 -3 -2 -190 c-3 -198 -8 -258 -22 -250 -26 16
-395 145 -570 200 -706 219 -1343 347 -1802 362 l-178 6 0 150 0 150 228 -6
c125 -4 290 -12 367 -17z m-28560 -889 c75 -152 78 -160 63 -183 -29 -44 -191
-199 -298 -285 -487 -391 -1424 -839 -2420 -1156 -408 -130 -403 -129 -412
-115 -10 16 -197 454 -201 470 -1 6 14 15 33 20 802 205 1835 615 2515 999
184 104 443 269 562 359 36 27 69 50 72 50 4 0 42 -72 86 -159z m28212 -232
c419 -34 1016 -167 1583 -351 286 -93 671 -245 678 -268 7 -20 -52 -632 -88
-925 -40 -315 -83 -620 -90 -628 -3 -4 -89 31 -191 77 -614 279 -1186 459
-1749 550 -175 29 -422 56 -505 56 -46 0 -55 3 -55 18 0 9 16 154 34 322 35
306 79 800 92 1025 3 66 8 123 11 128 6 10 130 9 280 -4z m-27613 -880 c201
-348 547 -884 816 -1264 62 -88 114 -165 117 -171 6 -16 -191 -211 -332 -329
-640 -535 -1865 -1265 -2630 -1568 -77 -30 -149 -58 -161 -61 -19 -6 -35 17
-136 186 -322 537 -603 1047 -858 1557 -122 244 -127 260 -83 261 7 0 144 43
305 96 982 322 1792 692 2368 1081 172 117 321 231 420 322 36 33 67 60 70 60
3 0 49 -77 104 -170z m-11731 -1364 c149 -31 335 -130 460 -244 123 -114 243
-309 282 -460 71 -279 -15 -571 -237 -806 -242 -256 -565 -395 -888 -383 -202
8 -322 58 -450 187 -369 371 -273 1209 177 1550 83 63 227 135 308 155 78 19
262 19 348 1z m39192 -100 c615 -80 1240 -280 1918 -615 108 -54 167 -88 167
-98 0 -18 -70 -365 -75 -370 -2 -2 -73 35 -158 82 -723 397 -1471 674 -2122
786 -66 11 -129 23 -141 25 -20 4 -21 7 -9 72 7 38 16 86 20 107 l6 39 137 -6
c75 -3 191 -13 257 -22z m-53388 -655 c279 -96 406 -452 287 -808 -124 -375
-469 -519 -829 -347 -247 118 -391 342 -364 567 21 176 146 355 332 476 119
77 213 112 367 136 45 6 154 -6 207 -24z m27516 -170 c122 -151 124 -156 111
-182 -32 -62 -148 -203 -279 -337 -636 -654 -1801 -1416 -2570 -1681 -102 -35
-267 -80 -294 -80 -4 0 -76 101 -159 224 l-152 224 88 35 c350 141 953 451
1432 737 674 403 1195 775 1570 1123 63 58 118 103 122 99 4 -4 63 -77 131
-162z m25427 -205 c662 -116 1374 -395 2135 -838 66 -38 121 -71 122 -71 7 -5
-161 -611 -263 -951 -79 -263 -288 -900 -303 -924 -7 -11 -23 -3 -73 41 -34
30 -128 107 -208 170 -608 481 -1192 811 -1825 1030 -114 39 -139 51 -137 66
2 9 30 105 63 212 86 287 177 626 259 965 79 330 78 325 82 325 2 0 69 -11
148 -25z m-54665 -520 c99 -492 486 -911 1001 -1085 65 -22 118 -44 117 -49
-2 -6 -45 -70 -96 -143 -453 -645 -1148 -1704 -1476 -2250 -46 -76 -85 -138
-88 -138 -7 0 -588 519 -873 780 -288 264 -462 426 -812 759 l-257 244 50 56
c71 78 357 351 589 560 478 433 968 849 1705 1449 l110 89 7 -96 c4 -53 14
-132 23 -176z m3665 -644 c393 -355 735 -664 759 -687 l44 -41 -94 -32 c-129
-45 -272 -118 -409 -208 -144 -95 -355 -302 -447 -438 -303 -449 -340 -973
-103 -1446 144 -285 382 -525 671 -677 l77 -40 -65 -79 c-437 -524 -953 -1252
-1304 -1838 -71 -117 -115 -182 -123 -178 -30 19 -636 494 -991 778 -469 376
-803 650 -1229 1009 -169 144 -317 268 -329 277 -20 16 -18 19 73 175 195 334
532 863 943 1479 623 934 1091 1588 1295 1808 216 234 336 453 408 744 l27
112 41 -36 c23 -20 363 -327 756 -682z m26381 419 c353 -394 915 -973 1361
-1401 l206 -199 -67 -87 c-99 -128 -234 -275 -437 -473 -780 -763 -1881 -1477
-2599 -1685 -102 -29 -282 -67 -300 -63 -30 7 -641 743 -1020 1228 -187 239
-465 609 -465 619 0 4 19 13 43 20 23 7 103 37 178 67 757 299 1743 928 2459
1569 144 130 368 357 455 463 32 40 62 71 67 70 4 -2 57 -59 119 -128z
m-20321 -1993 c481 -314 883 -572 893 -575 9 -2 17 -9 17 -16 0 -13 -168 -587
-173 -593 -6 -5 -2145 1511 -2140 1517 13 15 510 247 518 242 6 -3 404 -262
885 -575z m2458 350 c542 -334 1022 -625 2027 -1230 2214 -1333 2931 -1782
3845 -2411 245 -169 792 -558 788 -561 -2 -1 -727 -543 -1613 -1205 -885 -662
-1615 -1203 -1620 -1203 -6 0 -157 89 -335 198 -363 221 -666 405 -1680 1018
-382 231 -864 522 -1070 647 -1039 628 -1790 1089 -1790 1099 0 36 282 1034
611 2161 205 700 386 1335 455 1593 16 59 30 107 31 107 2 0 160 -96 351 -213z
m41809 52 c604 -209 1214 -578 1828 -1108 66 -57 142 -124 169 -149 l49 -45
-43 -106 c-24 -58 -59 -143 -78 -189 l-34 -82 -157 152 c-574 560 -1219 1022
-1827 1308 -70 34 -130 62 -131 64 -3 3 68 206 73 206 1 0 69 -23 151 -51z
m-48909 -334 c123 -29 161 -63 236 -214 59 -117 79 -205 80 -356 0 -153 -22
-252 -84 -380 -80 -164 -176 -263 -332 -342 -225 -115 -484 -62 -689 139 -118
117 -186 257 -196 405 -7 104 9 187 53 280 153 322 600 546 932 468z m2713
-391 c184 -130 336 -238 338 -240 2 -2 -34 -45 -81 -96 -619 -682 -1553 -2011
-2288 -3258 -319 -542 -670 -1207 -839 -1590 -40 -91 -76 -169 -81 -174 -10
-11 -855 594 -1364 977 l-125 94 66 119 c195 351 607 966 961 1434 456 602
820 993 1034 1112 442 245 742 713 813 1269 l6 46 72 12 c62 11 148 49 602
271 292 142 535 258 541 259 6 1 162 -105 345 -235z m24594 15 c83 -72 185
-161 228 -197 l77 -65 -31 -56 c-75 -133 -217 -326 -375 -511 -126 -147 -480
-501 -654 -654 -775 -679 -1593 -1161 -2148 -1266 -59 -11 -128 -27 -155 -34
l-47 -14 -207 219 c-199 212 -239 257 -232 263 2 2 51 20 109 41 761 275 1743
906 2545 1635 195 177 500 491 625 643 58 70 107 127 110 127 3 0 73 -59 155
-131z m-8070 -174 c311 -55 586 -250 718 -510 170 -336 67 -776 -257 -1101
-273 -272 -637 -391 -909 -295 -345 121 -586 603 -538 1075 58 571 472 920
986 831z m29314 -135 c589 -300 1092 -682 1695 -1288 l190 -191 -19 -43 c-10
-24 -112 -232 -226 -463 -276 -557 -499 -969 -812 -1502 l-130 -221 -110 141
c-455 587 -886 1024 -1377 1399 -112 85 -344 247 -394 275 -18 10 -13 21 71
164 331 562 656 1197 893 1742 18 42 35 77 38 77 2 0 84 -41 181 -90z m-44117
-926 c370 -262 679 -482 686 -489 11 -10 4 -43 -37 -186 -158 -552 -321 -1176
-328 -1254 -5 -53 8 -135 31 -195 4 -11 -14 -26 -67 -53 -177 -93 -414 -299
-538 -467 -301 -407 -394 -885 -254 -1305 l23 -70 -68 -111 c-241 -393 -720
-1370 -980 -1996 -17 -43 -33 -78 -35 -78 -7 0 -519 322 -855 538 -332 213
-1149 754 -1411 934 l-137 94 16 39 c408 1056 1631 3069 2672 4400 255 326
573 690 596 681 7 -3 316 -219 686 -482z m24048 256 c534 -426 1168 -902 1753
-1315 92 -65 167 -123 167 -128 0 -17 -124 -206 -221 -338 -264 -357 -555
-685 -975 -1099 -704 -694 -1400 -1230 -2022 -1558 l-123 -64 -22 19 c-12 11
-121 105 -242 209 -575 494 -1222 1087 -1717 1573 -104 101 -188 187 -188 191
0 5 12 11 27 15 143 36 623 260 888 415 565 331 1169 804 1685 1320 297 296
534 576 709 838 42 63 66 90 74 85 7 -5 100 -78 207 -163z m2985 -2153 c176
-115 326 -215 333 -221 29 -28 -240 -454 -529 -836 -722 -956 -1765 -1869
-2673 -2341 l-150 -77 -60 46 c-149 115 -621 494 -624 501 -1 5 46 37 105 72
265 155 674 444 982 692 661 533 1338 1205 1819 1805 140 175 314 415 383 529
l44 72 25 -17 c14 -9 169 -110 345 -225z m15566 151 c569 -383 1107 -927 1623
-1641 59 -82 106 -154 104 -161 -4 -17 -201 -316 -208 -315 -3 0 -43 50 -90
111 -290 382 -686 811 -1015 1102 -213 189 -515 419 -723 550 -51 33 -91 63
-90 67 11 30 265 375 273 371 6 -3 62 -41 126 -84z m-14301 -955 c619 -379
1305 -780 1970 -1151 162 -90 297 -166 299 -168 7 -6 -63 -170 -136 -319 -488
-987 -1580 -2092 -3037 -3072 -110 -75 -215 -149 -232 -165 l-32 -30 -273 183
c-519 346 -1089 743 -1622 1131 -309 225 -489 360 -485 363 2 2 68 43 148 91
932 560 1915 1464 2638 2424 143 189 353 502 452 670 98 169 100 171 108 167
4 -3 95 -58 202 -124z m13506 -79 c549 -351 1047 -817 1524 -1429 125 -161
280 -371 280 -380 0 -22 -604 -804 -899 -1165 -186 -228 -644 -764 -660 -774
-5 -3 -98 101 -207 231 -506 606 -878 1000 -1304 1383 -137 123 -374 322 -483
405 l-77 60 62 55 c538 473 1094 1040 1511 1542 67 81 125 147 128 147 4 1 60
-33 125 -75z m-40663 -74 c151 -57 269 -204 323 -401 25 -89 26 -309 1 -399
-85 -318 -340 -482 -664 -426 -347 60 -567 308 -532 600 34 277 300 568 589
642 77 19 209 12 283 -16z m10802 -484 c656 -181 1226 -333 3030 -811 1783
-472 2798 -767 3780 -1097 427 -143 785 -271 785 -281 0 -6 -447 -601 -1655
-2202 -116 -154 -336 -445 -488 -647 -153 -203 -279 -368 -281 -368 -2 0 -201
54 -442 119 -242 66 -880 237 -1419 381 -1837 490 -3262 874 -3627 977 -21 6
-24 47 -38 463 -38 1162 -111 3293 -116 3432 l-7 168 49 -15 c27 -8 220 -61
429 -119z m-9512 -142 c26 -16 47 -32 47 -36 0 -4 -51 -123 -114 -265 -630
-1428 -1209 -2937 -1422 -3699 l-47 -171 -196 110 c-337 189 -557 314 -836
477 -272 158 -697 409 -703 415 -8 7 181 448 343 800 157 342 550 1123 580
1153 2 2 54 -21 115 -53 129 -66 303 -125 445 -151 136 -26 422 -26 548 -1
186 37 359 108 512 208 103 68 294 259 363 364 152 230 237 494 249 773 l6
142 31 -18 c17 -11 52 -32 79 -48z m7278 -695 c530 -210 965 -382 966 -383 3
-3 31 -841 28 -844 -12 -13 -1177 433 -1635 626 -392 165 -1010 454 -1010 473
0 8 670 509 681 509 4 0 440 -171 970 -381z m-5573 -336 l33 -20 -86 -52
c-139 -83 -232 -156 -365 -290 -194 -195 -318 -394 -400 -640 -56 -165 -73
-277 -73 -456 0 -221 45 -410 145 -610 234 -468 732 -800 1251 -832 59 -3 107
-8 107 -10 0 -1 -45 -112 -99 -246 -220 -537 -422 -1099 -551 -1534 -12 -40
-26 -73 -31 -73 -44 0 -2201 1081 -2385 1196 l-22 13 25 118 c134 638 700
2136 1479 3914 l37 87 451 -273 c248 -149 466 -281 484 -292z m27465 -62 c155
-82 333 -174 394 -204 61 -31 114 -60 117 -65 9 -14 -24 -151 -66 -277 -117
-352 -376 -773 -737 -1195 -651 -761 -1702 -1594 -2669 -2114 l-123 -66 -297
187 c-163 102 -307 193 -319 201 -22 14 -19 17 110 105 1217 832 2268 1845
2863 2758 171 262 343 585 425 797 5 12 11 22 14 22 3 0 133 -67 288 -149z
m-24098 -378 c77 -44 188 -106 246 -137 l106 -56 -46 -92 c-120 -241 -344
-773 -494 -1178 -418 -1125 -690 -2231 -887 -3609 -21 -150 -40 -274 -42 -276
-9 -7 -1518 643 -1540 664 -13 13 158 553 297 936 197 541 408 1051 785 1890
83 187 165 380 181 430 61 186 93 417 87 623 -3 110 -2 117 17 120 63 12 162
80 612 418 455 341 500 372 518 360 11 -7 83 -49 160 -93z m31927 -129 c321
-243 614 -500 923 -809 306 -306 548 -577 962 -1077 l161 -195 -220 -232
c-122 -128 -224 -228 -228 -224 -4 4 -128 154 -276 333 -467 563 -714 839
-1056 1176 -270 267 -477 453 -738 664 -63 51 -115 96 -115 100 0 4 78 65 174
134 96 70 199 147 230 171 31 24 59 44 63 45 4 0 58 -39 120 -86z m-34402
-114 c74 -21 219 -197 273 -332 56 -142 73 -341 41 -495 -32 -156 -130 -334
-231 -422 -27 -23 -84 -60 -128 -82 -162 -81 -343 -76 -530 16 -149 73 -255
176 -319 310 -47 98 -59 161 -54 269 9 165 81 316 217 459 123 128 265 217
421 264 82 24 246 31 310 13z m28271 -239 c517 -255 1508 -725 1803 -855 l50
-22 -144 -164 c-323 -369 -695 -761 -1065 -1121 -1022 -996 -2039 -1774 -2866
-2194 l-189 -96 -198 112 c-108 61 -253 143 -322 182 -327 184 -1020 590
-1020 598 0 3 62 43 138 89 451 274 1012 682 1437 1044 468 400 924 867 1230
1261 331 426 573 863 696 1257 19 59 37 108 40 108 3 0 188 -90 410 -199z
m-24496 -136 c388 -164 1128 -447 1630 -625 332 -117 300 -101 303 -146 1 -22
13 -329 26 -684 22 -600 25 -649 45 -700 11 -30 34 -73 50 -96 l30 -41 -50
-49 c-118 -115 -260 -314 -335 -471 -65 -134 -121 -312 -144 -454 -24 -150
-25 -155 -94 -444 -110 -466 -169 -777 -306 -1630 -50 -308 -95 -583 -101
-612 l-10 -51 -472 158 c-702 235 -1466 510 -2030 730 l-158 62 6 31 c2 18 16
120 31 227 237 1802 623 3201 1284 4655 42 94 80 182 84 197 7 32 -15 38 211
-57z m29437 -372 c344 -262 636 -522 978 -869 216 -220 485 -512 477 -520 -4
-4 -877 345 -1277 511 -390 161 -910 381 -990 417 -41 19 -103 45 -137 59
l-63 24 53 28 c218 118 489 271 632 356 94 55 174 101 178 101 5 0 72 -48 149
-107z m-1939 -883 l286 -125 -17 -27 c-40 -63 -307 -403 -471 -600 -946 -1134
-2022 -2073 -3096 -2703 -154 -90 -515 -279 -640 -334 l-70 -32 -255 135
c-140 74 -256 139 -257 143 -2 4 54 42 124 83 286 169 724 471 1072 739 586
452 1100 909 1742 1550 484 484 743 764 1092 1178 l128 152 39 -17 c21 -9 166
-73 323 -142z m1439 -616 c861 -359 1668 -682 2781 -1110 l117 -46 -49 -56
c-68 -79 -303 -309 -436 -428 -1126 -1009 -2796 -1990 -4700 -2761 -221 -90
-246 -103 -310 -164 l-40 -38 -290 138 c-548 260 -1595 776 -1595 785 0 2 51
32 113 66 1185 662 2524 1839 3562 3131 135 167 380 490 445 586 l34 52 36
-16 c19 -8 169 -70 332 -139z m-25738 -938 c193 -95 334 -316 365 -573 11 -93
6 -160 -21 -273 -30 -125 -141 -254 -272 -316 -107 -50 -185 -67 -311 -67
-127 0 -204 17 -313 68 -148 70 -252 209 -274 367 -11 72 -10 77 42 268 61
230 85 277 205 395 132 132 233 176 396 172 100 -2 110 -4 183 -41z m6861
-170 c261 -67 810 -196 835 -196 38 -1 40 -13 19 -120 -78 -406 -137 -917
-171 -1505 -17 -291 -17 -1450 0 -1755 27 -490 56 -852 92 -1147 11 -89 20
-164 20 -165 0 -4 -7 -3 -325 17 -505 32 -1077 82 -1616 141 l-336 37 -7 621
c-7 615 2 1121 25 1440 9 122 15 158 34 195 75 150 136 372 155 569 24 235
-17 529 -104 749 l-24 63 54 36 c48 32 110 110 471 589 l416 552 106 -28 c58
-16 219 -58 356 -93z m-4683 -272 l1037 -277 -70 -74 c-223 -235 -390 -555
-449 -859 -38 -198 -59 -746 -61 -1629 -1 -578 -11 -1130 -20 -1139 -13 -13
-1074 214 -1642 351 l-188 45 6 51 c3 29 21 203 40 387 105 1003 263 2214 341
2604 48 243 41 502 -19 729 -13 48 -21 87 -18 87 3 0 473 -124 1043 -276z
m27489 -150 c205 -73 820 -303 887 -331 l44 -19 -134 -110 c-660 -548 -1687
-1286 -2573 -1849 -1142 -726 -2112 -1230 -2830 -1470 -253 -85 -255 -85 -335
-42 -36 19 -193 92 -350 162 -157 70 -289 131 -293 135 -5 4 47 31 115 60 912
389 1836 863 2608 1338 1084 666 2019 1421 2548 2055 63 75 118 137 121 137 4
0 90 -30 192 -66z m-20536 -45 c171 -27 341 -54 378 -60 63 -10 68 -13 63 -33
-20 -72 -78 -377 -100 -521 -59 -401 -80 -713 -80 -1215 0 -637 44 -1199 150
-1898 32 -216 116 -690 131 -736 5 -19 -6 -19 -523 -12 -609 8 -640 10 -648
40 -9 37 -55 426 -71 596 -48 527 -68 1003 -68 1620 0 749 34 1312 113 1864
20 139 66 406 76 437 4 14 18 14 137 -8 72 -13 272 -46 442 -74z m1680 -229
c351 -38 699 -73 1075 -106 102 -9 185 -17 186 -17 1 -1 -3 -63 -8 -137 -14
-193 -13 -942 1 -1160 68 -1080 248 -1970 524 -2597 43 -98 44 -103 24 -103
-12 0 -96 -7 -187 -15 -518 -45 -1881 -117 -1898 -100 -9 9 -84 390 -127 650
-73 442 -115 785 -152 1245 -25 320 -25 1162 0 1430 30 313 76 606 133 847 25
103 29 112 48 108 12 -3 183 -23 381 -45z m2510 -206 c159 -8 291 -17 293 -19
2 -2 8 -65 13 -142 92 -1371 438 -2880 796 -3476 19 -32 34 -60 32 -61 -5 -4
-494 -70 -723 -98 l-180 -21 -28 34 c-77 91 -184 313 -267 553 -195 564 -322
1318 -362 2151 -12 237 -7 955 7 1059 l7 48 61 -6 c34 -3 191 -13 351 -22z
m-9012 -70 c135 -69 253 -178 328 -304 198 -335 144 -788 -119 -989 -108 -83
-213 -115 -367 -115 -330 2 -604 219 -645 512 -10 72 5 215 32 307 81 276 327
532 578 599 84 22 133 20 193 -10z m11057 -4 c223 -5 532 -10 688 -10 217 0
284 -3 287 -12 2 -7 243 -694 535 -1527 292 -833 529 -1515 528 -1517 -7 -6
-757 -170 -1048 -229 -255 -52 -1015 -195 -1034 -195 -2 0 -6 18 -10 40 -9 59
-48 137 -99 203 -207 262 -442 1021 -596 1920 -71 411 -116 780 -156 1271 l-7
79 254 -7 c139 -4 435 -11 658 -16z m16347 -251 c562 -242 1018 -452 1602
-740 365 -180 402 -201 390 -216 -57 -68 -475 -411 -773 -633 -1606 -1196
-3640 -2132 -5681 -2614 -248 -58 -611 -136 -636 -136 -11 0 -77 51 -149 114
-212 187 -585 482 -730 577 -14 9 -23 19 -20 21 3 3 77 36 165 73 1010 430
2379 1242 3800 2254 718 511 1495 1127 1730 1370 21 23 40 41 42 41 1 0 118
-50 260 -111z m-14010 -397 l238 -137 100 -200 c56 -110 219 -450 365 -755
145 -305 305 -642 357 -749 51 -107 91 -196 89 -198 -7 -8 -627 -175 -632
-171 -3 4 -612 1734 -809 2301 l-35 98 45 -27 c24 -14 151 -87 282 -162z
m-18699 -77 c155 -91 378 -162 585 -186 134 -16 344 -7 476 21 57 11 105 20
106 18 2 -2 -17 -161 -40 -354 -24 -194 -69 -583 -100 -865 -68 -622 -62 -581
-83 -575 -9 3 -156 44 -327 90 -362 99 -954 271 -962 280 -6 5 23 187 193
1225 62 373 65 391 71 391 2 0 39 -20 81 -45z m20540 -944 c384 -204 697 -369
852 -446 l115 -58 -145 -49 c-229 -77 -672 -218 -686 -218 -13 0 -56 84 -286
565 -148 309 -179 375 -172 375 3 0 148 -76 322 -169z m15041 12 c411 -223
1501 -872 1501 -894 0 -17 -835 -447 -1360 -700 -2209 -1063 -4329 -1882
-5779 -2230 -487 -117 -909 -183 -1301 -204 l-116 -6 -59 87 c-32 48 -93 133
-136 190 -71 96 -76 104 -56 109 1742 409 3307 1028 4777 1888 891 521 1748
1148 2325 1701 61 58 112 105 114 105 2 1 43 -20 90 -46z m-31012 -469 c113
-45 281 -89 407 -104 128 -16 363 -7 474 18 l82 19 0 -636 c0 -350 3 -666 7
-703 l6 -68 -28 0 c-30 0 -632 92 -905 138 -149 26 -165 30 -163 48 2 10 6
307 9 659 3 352 7 646 10 653 5 16 0 17 101 -24z m33511 -1081 c682 -473 1333
-969 1955 -1487 l168 -140 -82 -75 c-717 -663 -2161 -1343 -4065 -1916 -2172
-654 -4711 -1083 -6666 -1127 l-118 -3 -4 40 c-3 22 -10 94 -16 160 -33 351
-142 822 -268 1151 l-39 102 106 11 c1420 156 3782 968 6506 2239 845 394
1823 891 2200 1120 55 33 106 61 113 61 7 1 101 -61 210 -136z m3067 -2467
c268 -249 875 -843 875 -856 0 -10 -265 -183 -435 -285 -442 -264 -1011 -539
-1615 -778 -2243 -890 -5388 -1493 -8445 -1618 -353 -14 -1249 -14 -1535 0
-361 18 -753 51 -766 64 -5 4 22 286 31 333 4 20 14 21 327 33 1696 63 3591
346 5472 817 2684 672 4809 1607 5695 2508 l74 75 31 -26 c17 -14 148 -134
291 -267z m1616 -1641 c524 -581 1025 -1188 1490 -1805 139 -184 405 -547 422
-576 5 -8 -49 -33 -161 -74 -2715 -1010 -7297 -1783 -12117 -2045 -1176 -64
-2520 -89 -3475 -66 -278 7 -507 15 -509 17 -2 2 55 151 127 331 209 524 366
986 472 1393 24 91 44 166 44 167 1 1 53 -5 117 -12 448 -52 837 -69 1569 -69
748 0 1202 17 1940 74 3021 235 5991 900 8067 1806 659 287 1296 636 1753 957
52 37 100 66 106 65 6 -2 76 -75 155 -163z m2552 -3318 c293 -451 576 -913
821 -1342 182 -316 279 -495 274 -500 -3 -3 -120 -43 -262 -90 -2626 -872
-7532 -1483 -12741 -1586 -644 -13 -2283 -7 -2790 10 -954 33 -1592 69 -2285
132 -314 28 -898 93 -905 101 -2 2 79 162 178 355 100 194 238 470 307 613
l125 260 55 -5 c132 -12 605 -27 1100 -34 3226 -45 7377 311 10770 925 1954
353 3586 774 4890 1261 140 52 266 101 280 109 14 7 28 13 32 14 3 0 72 -101
151 -223z m1682 -2959 c409 -833 750 -1613 1090 -2493 239 -618 564 -1553 542
-1560 -75 -27 -579 -151 -907 -224 -3915 -870 -10523 -1271 -16915 -1026
-1789 69 -3546 192 -5140 361 -385 40 -758 84 -763 89 -2 2 33 70 79 152 205
368 486 868 904 1608 507 898 768 1363 970 1730 75 138 140 253 144 256 3 4
47 1 96 -7 153 -23 719 -92 935 -114 1219 -120 2502 -173 4215 -173 1903 0
3619 67 5585 218 3750 289 6902 824 8795 1493 94 33 174 61 178 61 5 1 91
-167 192 -371z m1910 -4900 c50 -166 213 -749 270 -963 119 -447 375 -1510
375 -1556 0 -5 -20 -9 -44 -9 -24 0 -124 -16 -222 -35 -4091 -794 -10863
-1158 -16854 -905 -3325 141 -6110 464 -7975 925 -390 96 -815 217 -815 232 0
24 792 1527 821 1557 5 6 82 0 191 -13 2394 -289 4785 -448 7873 -523 677 -17
3349 -17 4030 0 3343 81 5989 268 8445 597 1475 198 2833 456 3805 724 39 11
73 20 77 20 4 1 14 -23 23 -51z m-25465 -3127 c1697 -544 4611 -950 8140
-1136 1758 -92 3058 -120 5165 -112 1333 5 1641 10 2560 37 3879 115 7412 443
9973 926 188 35 364 72 390 82 l48 18 58 -310 c221 -1188 358 -2183 501 -3653
l6 -61 -53 -11 c-29 -6 -195 -36 -368 -66 -3629 -637 -7990 -1025 -12970
-1155 -1165 -30 -1618 -35 -3430 -35 -1810 0 -2250 5 -3470 35 -2643 66 -5182
201 -7575 400 -619 52 -1227 108 -1233 115 -6 6 143 438 293 850 461 1264 975
2467 1655 3877 l134 277 40 -24 c23 -13 84 -37 136 -54z m26910 -5088 c0 -21
7 -141 15 -268 18 -278 41 -785 55 -1185 15 -424 24 -1589 15 -1901 l-7 -266
-74 -11 c-156 -24 -826 -115 -1199 -162 -5751 -726 -12639 -824 -19635 -280
-2670 208 -5423 524 -7888 905 -653 100 -1306 207 -1313 214 -22 21 297 1281
501 1977 101 346 93 325 127 319 75 -14 1507 -138 2188 -190 4465 -340 9320
-457 13935 -335 4851 129 9460 542 12870 1154 195 35 367 64 383 65 25 1 27
-2 27 -36z"/>
<path d="M28145 29903 c-725 -43 -1385 -343 -1910 -868 -536 -536 -873 -1236
-981 -2040 -16 -121 -18 -309 -19 -2605 -1 -1407 -6 -2820 -13 -3275 -46
-3037 -49 -3487 -27 -3716 70 -728 323 -1400 734 -1949 593 -793 1419 -1262
2347 -1330 96 -7 662 -7 1785 0 2415 14 4436 29 4750 35 l277 5 6 -133 c4 -72
85 -2526 181 -5452 96 -2926 178 -5352 183 -5391 19 -145 99 -257 230 -321 73
-37 80 -38 181 -38 99 0 111 2 174 32 122 58 211 173 235 302 7 39 -38 1507
-169 5450 -98 2968 -179 5430 -179 5472 l0 77 123 6 c129 6 1901 20 4622 36
954 6 1690 14 1775 21 1336 98 2470 1178 2760 2628 60 299 65 361 64 791 0
217 -8 613 -17 880 -30 859 -57 1969 -77 3205 -6 341 -15 1583 -20 2760 -6
1418 -13 2180 -20 2260 -80 862 -431 1635 -1005 2211 -466 467 -1028 759
-1655 858 -202 33 -344 36 -1008 24 -862 -16 -4925 -15 -6347 0 -610 7 -1699
19 -2420 27 -2127 24 -4477 43 -4560 38z m1670 -843 c567 -6 1867 -19 2890
-30 1023 -11 2333 -25 2910 -30 1433 -13 4445 -13 5597 1 731 9 972 9 1055 0
727 -80 1374 -557 1744 -1283 148 -291 233 -567 285 -918 14 -90 17 -366 24
-1970 13 -2989 40 -4528 117 -6800 13 -404 14 -524 4 -652 -51 -685 -319
-1282 -777 -1729 -373 -364 -812 -565 -1306 -599 -78 -5 -426 -10 -773 -10
-669 0 -1772 -8 -5515 -40 -4125 -35 -5050 -41 -6455 -43 -1286 -2 -1387 -1
-1480 16 -240 43 -404 96 -620 202 -261 127 -469 279 -685 501 -367 377 -623
862 -743 1404 -73 330 -80 460 -67 1375 5 424 15 1101 20 1505 27 1985 32
2692 29 4350 -2 987 -4 1944 -4 2125 0 347 6 424 51 657 86 446 298 888 588
1225 358 416 843 683 1349 742 103 12 588 12 1762 1z"/>
<path d="M38965 26796 c-116 -37 -207 -116 -258 -224 l-32 -67 1 -390 c1 -214
7 -576 14 -803 7 -227 10 -416 7 -418 -3 -3 -241 -10 -529 -15 -737 -12 -1387
-24 -3348 -64 -3182 -64 -3633 -71 -5220 -86 -1200 -11 -1258 -12 -1314 -31
-283 -93 -378 -449 -179 -669 51 -56 109 -94 184 -120 l64 -22 1055 7 c1060 6
1658 14 3108 41 l783 15 92 -52 c403 -225 809 -599 1143 -1053 570 -775 1001
-1792 1258 -2965 68 -313 144 -761 172 -1017 6 -61 6 -62 -21 -69 -14 -3 -288
-3 -608 1 -776 10 -733 11 -793 -12 -159 -61 -260 -199 -272 -370 -8 -120 17
-181 156 -380 271 -385 712 -976 1243 -1663 168 -217 319 -415 336 -440 46
-68 116 -128 191 -163 62 -30 75 -32 172 -32 87 0 115 4 163 23 63 26 168 115
194 165 8 17 72 90 142 162 492 511 1141 1242 1616 1821 206 252 248 317 267
421 39 208 -113 426 -328 471 -104 22 -609 34 -1116 27 -353 -5 -498 -4 -498
4 0 6 -11 100 -25 208 -254 1991 -990 3754 -2015 4826 l-112 117 99 0 c54 0
418 7 808 15 869 18 2150 42 2736 51 l436 7 7 -149 c26 -547 91 -1515 108
-1589 37 -171 166 -294 341 -326 117 -22 243 15 342 101 193 165 854 808 1223
1189 456 470 1003 1062 1095 1183 116 154 95 400 -45 534 -43 41 -536 393
-1303 930 -912 639 -1222 846 -1297 869 -62 18 -187 19 -243 1z m1048 -1543
l482 -338 -150 -6 c-82 -4 -297 -7 -476 -8 l-327 -1 -6 73 c-9 119 -19 617
-12 617 4 0 224 -152 489 -337z m179 -1360 c-94 -98 -263 -270 -376 -383 -182
-181 -206 -202 -206 -177 0 33 -27 528 -35 644 l-6 82 58 4 c32 2 210 4 397 5
l338 2 -170 -177z m-2739 -5917 c-9 -15 -424 -491 -517 -591 l-55 -60 -1 236
c0 130 -3 277 -6 327 l-7 91 64 4 c35 2 169 4 297 5 198 2 232 0 225 -12z
m-1413 -367 l0 -352 -52 69 c-29 38 -146 193 -260 344 l-207 275 62 6 c34 3
151 6 260 7 l197 2 0 -351z"/>
</g>
</svg>
