<?xml version="1.0" standalone="no"?>
<!DOCTYPE svg PUBLIC "-//W3C//DTD SVG 20010904//EN"
 "http://www.w3.org/TR/2001/REC-SVG-20010904/DTD/svg10.dtd">
<svg version="1.0" xmlns="http://www.w3.org/2000/svg"
 width="1080.000000pt" height="1080.000000pt" viewBox="0 0 1080.000000 1080.000000"
 preserveAspectRatio="xMidYMid meet">

<g transform="translate(0.000000,1080.000000) scale(0.100000,-0.100000)"
fill="#000000" stroke="none">
<path d="M4965 9725 c-78 -22 -224 -99 -290 -152 -100 -81 -295 -354 -434
-610 -31 -56 -64 -105 -74 -109 -13 -4 -17 -12 -13 -27 3 -12 -10 -61 -30
-114 -19 -52 -41 -120 -49 -152 -27 -102 -46 -348 -52 -661 -5 -287 -4 -310
16 -393 41 -171 135 -380 307 -680 235 -409 439 -676 697 -917 449 -416 750
-611 1111 -717 67 -19 128 -37 136 -40 8 -2 -18 -19 -60 -37 -41 -18 -93 -42
-116 -54 -46 -24 -202 -64 -314 -82 -41 -6 -95 -17 -120 -22 -27 -7 -265 -13
-608 -15 -456 -4 -596 -1 -743 11 -99 9 -223 16 -274 16 l-93 0 -3 86 c-5 120
-12 125 -163 117 -92 -5 -122 -3 -167 12 -30 10 -57 24 -62 31 -11 18 -63 27
-87 14 -11 -6 -32 -36 -45 -67 -20 -45 -25 -72 -25 -139 l0 -84 -29 0 c-37 0
-41 11 -41 128 0 59 -5 107 -13 122 -15 29 -34 30 -142 6 -42 -9 -121 -15
-197 -16 -135 0 -149 4 -163 53 -14 43 -45 67 -91 67 -25 0 -49 -6 -58 -16
-24 -23 -19 -68 9 -102 24 -29 25 -34 18 -121 l-6 -91 -31 0 c-71 0 -76 6 -76
79 0 102 -6 107 -134 103 -121 -4 -144 4 -217 75 -51 49 -95 64 -147 51 -30
-8 -32 -11 -32 -56 0 -27 4 -52 9 -57 5 -6 11 -25 13 -44 2 -19 9 -36 15 -39
23 -7 26 28 8 88 -10 32 -14 63 -11 69 12 19 44 12 78 -18 18 -15 43 -31 55
-35 11 -4 24 -14 27 -22 11 -29 95 -57 175 -57 42 0 86 3 99 7 21 7 22 5 22
-61 0 -37 3 -90 6 -118 l6 -50 -83 -3 c-46 -1 -97 -7 -112 -13 -30 -13 -302
-8 -315 5 -4 4 -7 67 -7 139 0 109 -3 132 -15 132 -21 0 -28 -37 -29 -152 l-1
-103 -29 0 c-27 0 -29 3 -39 63 -6 34 -10 94 -9 133 1 46 -3 76 -11 86 -19 23
-82 26 -317 16 -233 -11 -273 -6 -292 34 -20 39 -37 50 -65 39 -32 -12 -40
-34 -27 -69 6 -15 12 -99 13 -187 1 -88 6 -168 10 -177 12 -25 30 -29 179 -38
77 -5 141 -10 143 -12 2 -2 -29 -25 -68 -51 l-71 -47 -129 0 c-116 0 -129 -2
-126 -17 2 -9 16 -20 33 -25 16 -4 175 -11 352 -14 178 -4 323 -11 323 -16 0
-13 27 -9 40 7 10 12 37 15 120 15 l107 0 -5 -25 c-6 -34 20 -33 47 1 19 25
25 26 145 29 68 2 133 8 144 14 12 6 74 11 141 11 101 0 121 -2 121 -15 0 -19
24 -19 39 -1 12 14 20 15 466 31 88 4 201 2 250 -3 54 -5 102 -5 120 0 17 5
77 13 135 18 58 5 157 14 220 21 152 14 640 5 672 -12 31 -18 665 -25 890 -10
179 11 276 29 545 97 284 72 321 87 490 201 71 49 122 76 140 76 15 1 100 -9
188 -21 88 -12 240 -26 339 -32 230 -13 767 -13 876 0 229 28 556 89 728 136
223 61 447 105 635 125 111 11 147 22 147 44 0 22 -39 19 -245 -15 -257 -43
-317 -56 -530 -110 -177 -46 -304 -73 -467 -99 -38 -6 -96 -16 -130 -21 -65
-10 -212 -28 -215 -26 -6 4 -5 240 2 279 7 45 6 49 -11 45 -24 -4 -32 -55 -33
-210 l-1 -118 -327 0 c-181 0 -393 5 -473 10 -185 13 -400 40 -400 51 0 5 -21
9 -47 9 -27 0 -64 3 -84 6 l-37 6 80 96 c81 95 152 197 163 233 7 21 26 24 53
9 35 -20 252 -53 427 -66 439 -31 585 -14 1165 140 173 45 421 86 578 93 67 3
125 10 128 15 21 34 -80 38 -281 13 -185 -24 -360 -59 -640 -130 -384 -98
-401 -100 -680 -99 -132 0 -262 4 -288 8 l-48 7 159 157 c236 232 339 362 482
607 45 77 94 154 110 170 65 69 181 352 201 490 7 50 13 173 13 275 l1 185
-32 83 c-46 118 -96 223 -149 314 -25 44 -74 150 -108 236 -93 230 -192 422
-281 541 -42 56 -96 139 -121 184 -57 104 -175 260 -223 294 -20 15 -72 63
-116 108 -85 85 -237 194 -302 215 -21 7 -148 68 -283 136 -280 140 -382 180
-583 229 -263 64 -291 67 -672 71 -282 3 -360 1 -400 -11z m75 -37 c-140 -63
-179 -87 -244 -151 -71 -71 -78 -73 -92 -19 -8 28 15 48 121 104 87 45 175 77
215 77 l25 0 -25 -11z m462 -13 c244 -29 343 -57 528 -151 213 -108 434 -262
698 -487 165 -141 308 -291 506 -530 229 -277 299 -388 522 -829 127 -253 160
-347 170 -483 7 -103 -10 -423 -25 -485 -57 -224 -167 -472 -278 -628 -149
-207 -325 -372 -577 -542 l-79 -53 -51 13 c-136 33 -340 110 -516 195 -107 51
-220 101 -250 110 -92 29 -271 118 -350 175 -126 90 -288 215 -419 325 -124
105 -388 432 -491 610 -105 183 -301 599 -345 733 -16 50 -16 54 0 72 17 18
16 20 -8 31 -34 15 -36 32 -43 329 -7 282 4 482 36 636 11 53 20 118 20 145 0
52 50 228 106 373 71 183 174 310 302 372 180 87 281 100 544 69z m368 -11
c92 -18 108 -25 88 -41 -9 -6 -42 1 -108 24 -107 37 -103 40 20 17z m264 -64
c38 -11 100 -32 138 -46 l69 -27 -38 -13 c-21 -7 -46 -22 -55 -34 -16 -20 -17
-20 -124 40 -60 33 -112 60 -116 60 -21 0 -4 18 25 28 17 5 32 10 32 11 0 1
31 -8 69 -19z m478 -204 c133 -68 262 -129 285 -136 95 -29 419 -307 513 -441
l41 -59 -28 0 c-68 0 -208 -55 -220 -86 -12 -32 14 -37 50 -9 27 20 58 30 128
41 50 8 93 14 94 12 2 -2 23 -37 47 -78 24 -41 79 -122 122 -180 78 -104 154
-248 235 -440 22 -52 39 -95 38 -96 -1 0 -57 1 -124 4 l-123 4 -47 87 c-42 77
-103 182 -139 236 -13 20 -12 20 96 17 121 -5 160 1 160 23 0 23 -41 28 -175
23 l-123 -5 -43 56 c-103 134 -301 363 -414 480 l-122 126 60 29 c33 16 82 37
110 47 27 10 52 20 54 23 13 12 -12 26 -46 26 -47 0 -179 -64 -189 -91 -6 -16
-27 -2 -147 98 -77 64 -140 122 -140 127 0 13 75 34 125 35 19 1 42 6 50 11
13 9 13 12 -2 23 -24 19 -144 4 -180 -23 -15 -11 -30 -20 -34 -20 -3 0 -43 26
-87 58 -45 33 -106 75 -135 94 l-52 35 50 21 c30 12 50 27 50 36 0 9 4 16 9
16 5 0 119 -56 253 -124z m-1942 91 c0 -7 9 -23 21 -35 l20 -23 -24 -42 c-13
-23 -36 -72 -52 -110 l-28 -67 -27 17 c-15 10 -40 28 -55 41 -29 23 -29 23
-12 55 23 43 135 177 147 177 6 0 10 -6 10 -13z m-150 -271 c27 -19 55 -36 62
-38 9 -3 2 -37 -24 -124 -21 -65 -45 -162 -54 -214 -10 -52 -20 -98 -23 -102
-9 -10 -239 76 -259 97 -4 4 20 50 99 191 l29 51 53 -53 c38 -38 62 -54 80
-54 40 0 33 24 -15 59 -24 17 -56 41 -71 54 l-29 24 47 72 c27 39 50 71 52 71
2 0 26 -15 53 -34z m-229 -475 c46 -21 107 -44 134 -50 l50 -12 -8 -97 c-4
-53 -10 -116 -13 -139 l-5 -43 -47 0 c-26 0 -92 11 -146 25 -54 14 -109 25
-123 25 -32 0 -38 21 -23 88 15 68 80 242 90 242 4 0 45 -17 91 -39z m-21
-359 c36 -11 91 -23 123 -27 l57 -7 0 -200 c0 -109 5 -242 11 -294 6 -53 8
-99 5 -102 -3 -3 -96 -7 -206 -10 l-200 -5 0 134 0 134 153 1 c176 0 230 8
225 31 -3 14 -26 15 -185 14 -99 -1 -183 2 -185 6 -5 8 4 147 17 289 l6 70 57
-7 c31 -3 86 -16 122 -27z m3596 -502 l72 0 21 -57 c12 -32 46 -101 76 -153
l54 -95 -112 -12 c-61 -7 -112 -11 -113 -10 0 1 -40 78 -87 171 l-87 169 53
-7 c28 -3 84 -6 123 -6z m-3353 -263 c61 -175 266 -598 378 -779 50 -81 132
-192 232 -316 l59 -73 -28 -22 c-164 -132 -198 -149 -311 -150 l-87 -2 -77
105 c-43 58 -78 108 -78 111 -1 3 56 9 127 12 181 10 282 38 282 78 0 23 -19
24 -86 5 -44 -13 -260 -36 -334 -36 -26 0 -36 11 -108 128 -43 70 -84 136 -90
147 -10 20 -8 21 101 22 171 2 293 13 314 29 17 14 17 15 -1 29 -11 8 -29 12
-40 10 -12 -3 -102 -9 -201 -14 -99 -5 -186 -11 -193 -13 -20 -4 -158 254
-221 411 -61 154 -91 265 -91 339 l0 55 53 -5 c28 -3 108 -2 177 2 69 3 141 7
160 8 l35 2 28 -83z m3622 -168 c13 -37 31 -79 41 -94 14 -22 19 -54 22 -151
l4 -124 -38 0 c-22 0 -63 11 -92 25 -78 36 -118 32 -74 -8 26 -24 82 -45 140
-53 l52 -7 0 -53 c0 -91 -21 -206 -51 -286 l-30 -77 -47 5 c-26 4 -66 14 -89
24 -41 18 -41 18 -32 57 5 21 14 124 21 230 14 228 3 361 -37 469 -42 110 -42
102 6 107 24 2 75 3 113 3 l69 -1 22 -66z m-130 -849 c33 -7 66 -14 73 -16 17
-5 -57 -151 -102 -202 -18 -20 -43 -56 -56 -80 -18 -33 -26 -39 -32 -28 -5 9
-24 18 -43 22 -20 3 -37 9 -39 13 -3 4 10 40 28 81 27 64 69 173 82 219 2 7
10 11 17 8 6 -2 39 -10 72 -17z m-2538 -414 l101 -79 -62 -40 c-67 -44 -188
-104 -227 -113 -13 -3 -64 -9 -114 -13 l-90 -8 -64 61 c-95 92 -202 216 -196
226 4 6 21 10 38 10 69 0 142 30 240 96 54 37 101 73 104 81 4 9 31 -11 87
-64 45 -43 127 -114 183 -157z m2367 69 c20 -9 41 -13 46 -10 25 15 -105 -191
-189 -299 -25 -33 -49 -63 -52 -68 -3 -5 -21 6 -41 25 l-35 33 24 30 c38 45
142 203 169 257 13 26 28 47 33 47 5 0 25 -7 45 -15z m-1946 -379 c33 -20 64
-36 70 -36 34 0 9 -27 -91 -98 -138 -97 -203 -134 -285 -161 l-62 -21 -57 42
c-32 23 -121 96 -197 163 l-140 120 78 12 c63 10 107 26 220 81 77 38 150 76
160 84 17 14 28 8 132 -67 62 -46 139 -99 172 -119z m1682 -11 l33 -34 -132
-134 -132 -135 -39 22 c-57 31 -59 45 -8 86 24 19 86 78 138 131 52 53 97 97
101 97 3 1 20 -14 39 -33z m-1418 -104 c57 -21 178 -74 269 -119 92 -44 218
-97 282 -117 l116 -38 -60 -88 c-32 -49 -94 -130 -136 -180 l-77 -91 -80 4
c-48 3 -93 12 -111 22 -16 9 -35 16 -41 16 -6 0 -17 6 -23 13 -6 8 -28 19 -48
25 -21 6 -71 20 -111 32 l-74 21 29 22 c46 34 256 238 282 274 23 30 22 53 -1
53 -16 0 -328 -311 -328 -327 0 -26 -227 83 -388 186 l-83 53 103 52 c122 61
221 120 303 180 33 25 63 45 67 45 4 1 54 -16 110 -38z m1076 -168 c9 -10 31
-28 47 -40 l30 -22 -45 -40 c-50 -45 -64 -47 -174 -28 l-68 12 86 58 c47 33
88 63 92 68 7 13 12 11 32 -8z m-4437 -383 c25 -67 50 -74 234 -66 83 3 175 9
206 12 l56 6 6 -106 c4 -65 12 -119 21 -138 21 -41 20 -55 -3 -63 -11 -3 -127
-5 -258 -3 -198 2 -245 0 -278 -14 l-40 -15 3 53 c3 42 8 55 23 59 24 8 25 35
2 35 -16 0 -18 10 -15 91 3 85 2 93 -23 130 -34 48 -28 72 17 67 28 -3 35 -9
49 -48z m-1531 -1 c0 -5 -4 -9 -10 -9 -5 0 -10 7 -10 16 0 8 5 12 10 9 6 -3
10 -10 10 -16z m2294 -38 c25 -27 82 -38 233 -47 l133 -7 11 -41 c12 -42 7
-185 -6 -207 -6 -9 -55 -11 -197 -7 -103 3 -204 2 -223 -2 -38 -9 -72 11 -58
33 4 6 8 47 10 92 2 44 8 84 13 89 5 5 6 22 3 37 -10 49 4 79 36 79 15 0 36
-9 45 -19z m-2193 -26 c25 -4 119 1 213 10 208 21 281 18 308 -15 17 -20 18
-34 12 -101 -4 -52 -2 -94 7 -128 18 -70 7 -80 -97 -87 -73 -5 -499 22 -516
33 -5 2 -8 74 -8 159 0 144 1 154 18 145 9 -5 38 -12 63 -16z m5134 -38 c61
-13 108 -27 106 -32 -6 -12 -140 -109 -179 -129 l-29 -15 -12 85 c-6 46 -14
91 -17 99 -8 19 -2 19 131 -8z m-166 -66 c6 -39 11 -85 11 -104 0 -32 -2 -34
-57 -52 -32 -10 -122 -34 -200 -55 l-141 -37 -7 68 c-9 89 -1 102 77 123 35
10 115 41 178 71 63 29 118 54 121 54 3 1 11 -30 18 -68z m-423 -118 c-3 -21
-6 -61 -6 -89 l0 -51 -102 -22 c-90 -18 -318 -44 -325 -37 -2 2 17 34 42 72
25 38 48 78 51 89 4 18 21 23 138 38 73 10 146 22 162 27 46 13 47 12 40 -27z
m-1610 -6 c3 -2 -21 -37 -52 -76 l-57 -71 -87 0 c-48 0 -102 -3 -120 -6 l-32
-7 31 61 c17 34 31 68 31 77 0 23 -30 18 -40 -7 -8 -20 -9 -19 -9 12 l-1 35
166 -7 c91 -3 168 -8 170 -11z m-1595 -60 c3 -38 11 -72 18 -76 7 -5 30 1 51
11 21 11 48 18 59 16 18 -3 16 -8 -22 -55 l-42 -52 -137 0 c-95 -1 -138 2
-138 10 0 26 56 112 82 125 24 12 28 21 28 55 l0 40 48 -3 47 -3 6 -68z m1830
44 l87 -6 -52 -73 -51 -72 -44 5 c-24 3 -86 5 -137 5 l-93 0 44 64 c25 35 45
69 45 75 0 12 61 13 201 2z m-1113 -27 c14 -30 5 -52 -50 -112 l-37 -41 -121
-3 -121 -3 24 21 c14 11 32 32 41 46 15 22 25 26 97 31 91 7 109 17 109 58 0
24 4 29 23 29 16 0 28 -9 35 -26z m1402 -62 l-60 -87 -63 7 c-81 9 -127 19
-127 27 0 12 36 59 75 99 l40 40 98 1 98 1 -61 -88z m294 7 c-30 -44 -54 -84
-54 -90 0 -5 -54 -9 -126 -9 l-126 0 32 58 c18 31 46 72 63 90 l31 32 117 0
117 0 -54 -81z m358 -9 l-46 -90 -163 0 c-96 0 -163 4 -163 9 0 6 24 38 53 72
28 33 56 70 62 80 9 17 23 19 156 19 l147 0 -46 -90z m-3449 23 c15 -15 42
-19 138 -21 70 -2 138 1 166 8 68 17 139 23 156 13 12 -7 9 -19 -17 -73 l-32
-65 -102 -3 c-56 -1 -102 1 -102 5 0 4 12 20 27 35 22 23 24 31 14 41 -10 10
-21 3 -55 -35 l-42 -48 -118 0 -118 0 31 35 c32 37 39 59 21 70 -13 8 -54 -37
-70 -75 -12 -29 -14 -30 -87 -30 -84 0 -84 0 -20 69 25 27 46 41 63 41 13 0
35 11 47 24 27 29 73 33 100 9z m1101 -20 c3 -4 -17 -31 -46 -60 l-52 -53 -99
0 -99 0 16 23 c9 12 25 39 34 59 l17 38 111 0 c61 0 114 -3 118 -7z m448 -3
c56 0 57 -5 15 -67 -22 -32 -23 -33 -102 -33 -113 0 -121 8 -65 65 38 39 49
45 74 41 16 -3 51 -6 78 -6z m340 -22 c-26 -40 -71 -55 -189 -61 l-93 -4 22
38 c23 41 4 36 203 52 22 2 48 4 58 5 18 2 18 1 -1 -30z m-2142 -2 c0 -2 -12
-24 -26 -50 -22 -40 -30 -46 -58 -46 -18 0 -69 -3 -112 -6 l-79 -5 25 21 c14
12 39 34 55 48 17 15 46 30 65 33 41 7 130 11 130 5z"/>
<path d="M4515 7340 c-27 -4 -114 -11 -192 -15 -100 -6 -146 -12 -154 -21 -23
-27 37 -37 191 -29 215 10 282 27 236 61 -11 8 -22 13 -25 13 -3 -1 -28 -5
-56 -9z"/>
<path d="M3102 5568 c-7 -7 -12 -28 -12 -49 0 -20 -3 -63 -6 -96 l-6 -59 -46
23 c-71 36 -122 14 -122 -52 0 -51 77 -105 149 -105 24 0 31 6 45 40 9 22 21
82 27 132 16 142 6 201 -29 166z m-56 -239 c56 -54 20 -78 -56 -39 -30 16 -40
26 -40 45 0 38 54 35 96 -6z"/>
<path d="M8631 5363 c-1 -103 3 -193 7 -200 5 -8 13 -9 22 -3 12 7 16 40 18
157 3 163 -5 226 -30 231 -15 3 -17 -16 -17 -185z"/>
<path d="M1570 5488 c-47 -13 -66 -32 -84 -84 -14 -40 -13 -45 5 -69 33 -41
98 -73 164 -80 64 -6 92 3 82 29 -5 12 -21 16 -69 16 -42 0 -75 7 -104 20 -48
23 -55 35 -43 68 9 23 44 42 119 64 58 17 61 42 5 45 -22 1 -56 -3 -75 -9z"/>
<path d="M2273 5440 c-46 -19 -37 -123 15 -173 33 -32 76 -46 112 -37 35 8 73
67 65 100 -8 30 -43 70 -62 70 -8 0 -26 9 -41 19 -35 25 -62 32 -89 21z m85
-81 c12 -9 31 -15 41 -12 42 11 39 -56 -4 -75 -51 -24 -105 22 -105 91 0 36 1
37 23 26 12 -7 32 -20 45 -30z"/>
<path d="M3649 5417 c-35 -23 -39 -41 -27 -112 5 -31 79 -102 115 -109 39 -9
113 10 113 29 0 22 -16 26 -61 16 -43 -10 -89 0 -89 19 0 5 10 10 23 10 35 0
69 42 74 93 5 38 2 47 -18 61 -34 23 -90 20 -130 -7z m111 -32 c0 -38 -83 -82
-101 -54 -25 40 2 67 69 68 22 1 32 -4 32 -14z"/>
<path d="M7271 5346 c-13 -15 -35 -118 -46 -209 -5 -47 -4 -58 10 -63 26 -10
30 3 27 81 -2 63 1 82 23 126 25 48 27 79 7 79 -5 0 -15 -6 -21 -14z"/>
<path d="M353 5200 c-93 -7 -140 -21 -129 -39 2 -3 159 -8 349 -9 261 -3 346
-1 352 8 18 29 -36 37 -290 44 -99 2 -226 0 -282 -4z"/>
<path d="M270 5022 c-14 -5 -25 -14 -25 -22 0 -13 46 -16 285 -23 157 -4 295
-5 308 -2 30 7 28 23 -5 37 -32 13 -524 21 -563 10z"/>
<path d="M362 4800 c-52 -11 -62 -17 -62 -36 0 -13 34 -14 268 -8 147 3 271
10 276 15 6 6 5 14 -2 22 -16 15 -412 21 -480 7z"/>
</g>
</svg>
