<?xml version="1.0" standalone="no"?>
<!DOCTYPE svg PUBLIC "-//W3C//DTD SVG 20010904//EN"
 "http://www.w3.org/TR/2001/REC-SVG-20010904/DTD/svg10.dtd">
<svg version="1.0" xmlns="http://www.w3.org/2000/svg"
 width="1080.000000pt" height="1080.000000pt" viewBox="0 0 1080.000000 1080.000000"
 preserveAspectRatio="xMidYMid meet">

<g transform="translate(0.000000,1080.000000) scale(0.100000,-0.100000)"
fill="#000000" stroke="none">
<path d="M5715 10193 c-73 -11 -198 -44 -233 -62 -21 -11 -67 -27 -103 -36
-82 -21 -106 -36 -259 -163 -136 -114 -232 -184 -283 -210 -41 -21 -130 -117
-226 -245 -70 -93 -122 -147 -142 -147 -5 0 -9 -4 -9 -10 0 -5 -22 -37 -49
-71 -99 -123 -259 -477 -366 -809 -65 -202 -76 -258 -81 -395 -5 -152 -11
-210 -34 -310 -10 -44 -22 -136 -25 -205 -4 -69 -13 -152 -21 -185 -8 -33 -14
-74 -14 -91 0 -20 -6 -34 -16 -38 -15 -6 -15 -8 1 -26 15 -16 16 -32 11 -117
-4 -54 -3 -163 2 -243 9 -144 9 -146 67 -295 75 -195 175 -422 224 -507 22
-37 35 -70 30 -74 -18 -11 -9 -34 14 -34 16 0 35 -17 65 -58 23 -32 65 -76 94
-97 29 -22 78 -63 110 -91 32 -29 129 -96 215 -150 86 -55 179 -121 207 -147
28 -27 68 -58 89 -68 21 -11 59 -36 85 -56 52 -40 210 -118 287 -140 28 -9 87
-37 131 -63 45 -27 114 -60 153 -74 97 -35 294 -84 378 -94 62 -8 66 -10 42
-20 -89 -37 -660 -63 -904 -41 -77 6 -217 15 -311 18 -142 5 -175 9 -198 24
-20 14 -31 16 -39 8 -14 -14 -58 -14 -94 0 -15 6 -131 15 -258 19 -126 5 -240
12 -253 16 -19 5 -24 2 -30 -17 -4 -13 -9 38 -12 114 -7 181 -4 179 -164 170
-92 -5 -122 -3 -167 12 -30 10 -57 24 -62 31 -11 18 -63 27 -87 14 -11 -6 -32
-36 -45 -67 -20 -45 -25 -72 -25 -139 l0 -84 -29 0 c-37 0 -41 11 -41 128 0
59 -5 107 -13 122 -15 29 -34 30 -142 6 -42 -9 -121 -15 -197 -16 -135 0 -149
4 -163 53 -14 43 -45 67 -91 67 -25 0 -49 -6 -58 -16 -24 -23 -19 -68 9 -102
24 -29 25 -34 18 -121 l-6 -91 -31 0 c-71 0 -76 6 -76 79 0 102 -6 107 -134
103 -121 -4 -144 4 -217 75 -51 49 -95 64 -146 51 -31 -8 -33 -11 -33 -56 0
-27 4 -52 9 -57 5 -6 11 -25 13 -44 2 -19 9 -36 15 -39 23 -7 26 28 8 88 -10
32 -14 63 -11 69 12 19 44 12 78 -18 18 -15 43 -31 55 -35 11 -4 24 -14 27
-22 11 -29 95 -57 175 -57 42 0 86 3 99 7 21 7 22 5 22 -61 0 -37 3 -90 6
-118 l6 -50 -83 -3 c-46 -1 -97 -7 -112 -13 -30 -13 -302 -8 -315 5 -4 4 -7
67 -7 139 0 109 -3 132 -15 132 -21 0 -28 -37 -29 -152 l-1 -103 -29 0 c-27 0
-29 3 -39 63 -6 34 -10 94 -9 133 1 46 -3 76 -11 86 -19 23 -82 26 -317 16
-233 -11 -273 -6 -292 34 -20 39 -37 50 -65 39 -32 -12 -40 -34 -27 -69 6 -15
12 -99 13 -187 1 -88 6 -168 10 -177 12 -25 30 -29 179 -38 77 -5 141 -10 143
-12 2 -2 -29 -25 -68 -51 l-71 -47 -129 0 c-116 0 -129 -2 -126 -17 2 -9 16
-20 33 -25 16 -4 175 -11 352 -14 178 -4 323 -11 323 -16 0 -13 27 -9 40 7 10
12 37 15 120 15 l107 0 -5 -25 c-6 -34 20 -33 47 1 19 25 25 26 145 29 68 2
133 8 144 14 12 6 74 11 141 11 101 0 121 -2 121 -15 0 -19 24 -19 39 -1 12
14 20 15 466 31 88 4 201 2 250 -3 54 -5 102 -5 120 0 17 5 77 13 135 18 58 5
158 14 224 20 88 8 122 8 132 -1 10 -8 66 -11 178 -10 146 1 303 -11 546 -44
181 -25 1194 -45 1403 -28 98 8 107 7 107 -9 0 -26 21 -33 36 -12 27 38 34 42
114 53 45 7 145 28 223 48 84 21 195 40 272 47 l130 13 159 79 160 79 154 9
c206 12 325 0 414 -41 59 -28 66 -34 61 -54 -6 -21 -4 -22 33 -16 74 12 176
-77 240 -211 61 -125 75 -189 81 -367 5 -134 3 -170 -12 -220 -22 -77 -121
-264 -192 -362 -138 -192 -439 -529 -678 -758 -106 -100 -210 -211 -257 -272
-44 -57 -86 -103 -93 -103 -18 0 -45 -39 -45 -64 0 -10 -68 -123 -152 -250
-269 -409 -279 -430 -378 -771 -96 -333 -110 -424 -130 -850 -11 -222 -6 -294
23 -353 6 -15 21 -28 31 -30 21 -5 20 9 -9 118 -15 55 -17 89 -11 225 6 152
34 496 41 503 2 2 18 -7 35 -20 29 -21 44 -23 208 -30 97 -3 215 -13 262 -21
47 -9 174 -31 282 -51 199 -36 508 -77 718 -96 63 -6 129 -13 145 -15 17 -3
102 -12 190 -20 88 -8 230 -21 315 -29 323 -30 495 -38 825 -40 l340 -1 160
33 c193 40 329 77 372 102 l32 18 7 -65 c3 -35 9 -139 13 -231 4 -118 10 -167
18 -170 7 -2 17 8 23 23 13 33 12 254 -1 320 -10 49 -20 186 -38 495 -9 154
-12 167 -70 346 -11 34 -25 115 -31 180 -12 129 -48 292 -79 352 -11 21 -22
56 -26 77 -4 22 -22 81 -41 130 -18 50 -38 112 -44 138 -6 27 -19 66 -30 86
-10 21 -30 83 -44 138 -28 111 -93 280 -161 418 -24 50 -51 113 -60 142 -19
59 -70 143 -159 256 -156 199 -240 348 -281 497 -68 245 -154 425 -338 708
-98 149 -202 278 -260 320 -130 97 -362 206 -463 218 -27 3 -64 13 -82 21 -19
8 -76 17 -128 20 l-94 6 113 111 c117 115 211 244 341 470 102 176 227 443
301 641 51 136 121 418 142 567 26 195 24 524 -5 708 -29 178 -70 338 -117
461 -69 177 -201 428 -287 548 -46 62 -88 123 -95 135 -21 37 -284 289 -388
372 -246 196 -536 370 -775 465 -70 27 -96 44 -150 97 -58 57 -77 69 -170 104
-204 78 -380 128 -514 147 -126 18 -249 34 -336 42 -105 11 -364 19 -405 12z
m250 -59 c62 -22 90 -40 174 -115 54 -48 102 -93 106 -99 4 -6 -19 -10 -67
-10 -94 0 -209 -21 -325 -58 l-92 -30 -79 77 c-82 82 -150 122 -241 143 l-50
11 57 25 c122 51 249 79 370 81 56 1 92 -5 147 -25z m294 -15 c30 -5 81 -9
112 -9 69 0 105 -12 111 -38 4 -12 32 -29 89 -52 83 -33 180 -88 194 -109 6
-11 -95 -10 -349 4 l-89 5 -83 80 c-46 44 -104 93 -128 108 l-43 28 66 -4 c36
-2 90 -8 120 -13z m419 -65 c32 -9 74 -25 94 -35 21 -11 70 -26 110 -34 92
-20 162 -52 213 -99 35 -33 37 -37 15 -31 -14 3 -81 14 -148 24 -110 17 -127
22 -155 48 -42 39 -88 70 -162 110 -66 36 -54 42 33 17z m-1332 -39 c16 -8 39
-15 51 -15 12 0 46 -5 75 -11 47 -10 63 -21 141 -97 48 -47 87 -89 87 -92 0
-4 -28 -22 -62 -40 -35 -18 -115 -67 -178 -108 l-115 -74 -45 25 c-85 48 -246
107 -333 122 l-38 6 63 46 c35 26 103 81 151 122 73 63 163 131 172 131 2 0
16 -7 31 -15z m972 -157 c8 -8 15 -8 27 2 13 10 61 12 238 6 122 -3 263 -11
312 -16 129 -15 303 -65 367 -106 52 -34 146 -74 172 -74 27 0 287 -186 395
-283 268 -240 454 -486 588 -776 29 -63 57 -140 63 -170 6 -31 20 -95 30 -142
42 -182 17 -590 -56 -924 -40 -179 -132 -453 -237 -701 -31 -73 -74 -192 -97
-265 -66 -210 -235 -519 -351 -644 -36 -38 -77 -91 -92 -116 -43 -76 -259
-285 -382 -371 -200 -139 -311 -200 -465 -257 -244 -89 -342 -111 -501 -111
-116 0 -145 3 -205 24 -115 39 -288 113 -435 186 -193 96 -231 119 -224 138 8
22 -14 42 -46 42 -20 0 -43 12 -72 39 -23 21 -89 70 -147 108 -58 39 -122 88
-142 109 -20 22 -53 52 -73 68 -90 72 -264 312 -350 484 -107 215 -208 499
-230 648 -22 155 -28 414 -16 729 14 357 17 383 44 387 28 4 34 28 8 35 -27 7
-27 25 4 210 33 196 66 307 125 426 43 85 123 234 150 277 5 8 42 69 82 135
169 278 255 367 573 592 257 182 476 283 672 312 90 13 257 13 271 -1z m-1267
-196 c70 -24 249 -105 249 -112 0 -3 -45 -39 -101 -79 -55 -40 -129 -100 -164
-133 -35 -32 -66 -54 -69 -49 -4 5 -46 9 -94 9 -56 -1 -126 6 -197 21 -60 13
-111 24 -113 26 -2 1 31 44 171 224 23 30 62 69 87 88 43 34 47 35 111 30 36
-3 90 -14 120 -25z m2881 -286 c184 -137 478 -405 453 -412 -6 -1 -34 -4 -62
-7 l-52 -4 -50 66 c-60 81 -265 298 -289 305 -10 3 -49 41 -87 83 -81 89 -64
83 87 -31z m-3182 -105 c36 -5 97 -11 136 -13 l72 -3 -28 -35 c-34 -45 -178
-260 -213 -321 l-27 -46 -123 -6 c-102 -5 -257 -30 -329 -53 -10 -3 -18 0 -18
6 0 20 146 315 181 366 18 27 49 66 68 87 l35 39 91 -5 c49 -3 119 -10 155
-16z m3711 -398 c24 -32 50 -66 58 -75 13 -17 9 -18 -66 -18 l-81 0 -36 61
c-20 33 -36 64 -36 69 0 11 25 17 76 19 39 1 44 -2 85 -56z m-3821 -110 c-58
-97 -140 -265 -160 -329 l-23 -70 -91 -12 c-50 -7 -123 -12 -162 -12 -83 0
-136 -15 -132 -38 2 -12 19 -15 91 -13 49 1 114 6 145 12 31 5 74 9 96 9 37 0
38 -1 31 -27 -16 -64 -44 -223 -51 -287 -4 -37 -12 -69 -18 -71 -6 -3 -91 -5
-188 -7 l-177 -3 6 135 c6 162 14 198 100 449 85 246 91 254 258 281 93 15
114 17 208 19 l89 1 -22 -37z m3934 -48 c8 -11 42 -73 76 -137 l61 -117 -65
29 c-35 16 -83 33 -106 36 -41 7 -42 8 -91 105 -27 54 -49 101 -49 105 0 3 36
4 80 3 65 -3 82 -8 94 -24z m51 -255 c91 -44 119 -74 158 -170 30 -73 77 -212
77 -227 0 -3 -17 8 -37 23 -20 16 -87 54 -147 84 l-111 56 -6 49 c-6 43 -27
134 -45 198 -8 27 41 22 111 -13z m74 -335 c33 -19 82 -56 109 -80 28 -25 54
-45 59 -45 5 0 15 -30 22 -67 20 -107 38 -233 33 -233 -2 0 -21 13 -41 29 -72
57 -276 185 -293 184 -16 -2 -18 11 -18 129 l0 131 35 -6 c20 -3 62 -22 94
-42z m-9 -316 c52 -28 123 -75 157 -105 33 -30 65 -54 71 -54 15 0 22 -54 22
-181 l0 -119 -52 41 c-55 44 -214 124 -306 154 -52 17 -54 18 -48 49 13 71 25
185 26 246 0 63 1 64 18 43 9 -12 60 -45 112 -74z m-4438 61 l119 0 -6 -62
c-2 -35 -7 -116 -11 -180 l-6 -117 -47 6 c-26 3 -94 -2 -152 -10 -57 -9 -126
-15 -154 -14 l-50 2 3 80 c4 99 38 286 55 298 7 4 39 6 71 3 32 -4 112 -6 178
-6z m4373 -384 c39 -19 109 -53 157 -76 57 -26 95 -51 109 -71 12 -17 26 -28
33 -26 9 3 9 -21 4 -97 -14 -184 -70 -434 -142 -642 -64 -185 -232 -542 -323
-687 l-30 -48 -23 63 c-29 81 -62 149 -133 274 -31 55 -64 122 -73 150 -9 27
-21 54 -26 61 -6 8 5 51 34 128 l43 116 25 -33 c14 -18 66 -76 115 -128 91
-97 137 -171 150 -242 8 -41 28 -64 46 -53 35 22 -54 202 -155 312 -41 46 -94
108 -117 140 l-43 57 49 141 c26 77 51 144 55 148 20 23 226 -268 276 -388 33
-82 47 -105 60 -105 28 0 26 30 -6 92 -72 141 -139 241 -283 420 l-30 38 37
122 c21 68 39 128 41 135 3 7 17 -1 38 -20 165 -157 218 -214 248 -268 46 -81
68 -109 85 -109 28 0 13 46 -35 108 -27 35 -110 130 -184 211 l-134 147 15 82
c11 63 18 82 31 82 9 0 48 -15 86 -34z m-4275 -181 l0 -175 -112 0 c-132 0
-219 12 -284 40 l-46 20 6 83 c4 45 9 103 12 128 l5 46 112 8 c184 12 302 22
305 23 1 1 2 -77 2 -173z m-369 -185 c44 -15 99 -22 214 -27 l155 -6 0 -112
c0 -62 3 -133 6 -159 6 -37 4 -46 -8 -46 -9 0 -59 -13 -113 -30 -105 -32 -232
-41 -294 -19 l-31 11 0 204 c0 112 2 204 5 204 3 0 33 -9 66 -20z m479 -706
c16 -42 30 -76 30 -77 0 -1 -51 -3 -113 -5 -137 -4 -202 13 -304 81 l-68 45
-38 104 c-21 57 -37 105 -37 108 0 3 49 3 110 2 93 -3 122 0 197 22 139 40
123 48 160 -87 18 -64 46 -151 63 -193z m-99 -122 l150 -5 16 -41 c9 -22 45
-97 79 -165 l63 -123 -31 6 c-17 3 -113 6 -214 6 l-184 0 -37 57 c-28 44 -163
333 -163 349 0 2 39 -15 86 -38 l85 -41 150 -5z m3889 -147 c65 -104 130 -248
140 -307 8 -49 6 -57 -21 -103 -17 -27 -46 -72 -66 -99 l-35 -49 -28 66 c-38
90 -104 180 -193 263 l-74 69 25 55 c13 30 35 75 49 100 13 25 40 78 60 119
l35 74 32 -59 c18 -32 52 -90 76 -129z m-207 -280 c83 -86 134 -161 157 -232
13 -38 26 -73 31 -79 5 -6 -20 -38 -66 -84 -41 -41 -76 -72 -77 -69 -106 160
-126 181 -250 258 l-67 42 47 57 c26 32 66 87 90 124 50 77 44 77 135 -17z
m-3418 48 l80 -6 44 -69 c25 -37 79 -105 121 -150 l77 -83 -116 -2 c-64 0
-128 -6 -143 -11 -22 -9 -33 -6 -70 18 -25 16 -53 39 -63 50 -10 11 -24 20
-32 20 -7 0 -13 4 -13 10 0 5 -31 33 -70 61 -64 46 -160 143 -160 161 0 10
234 10 345 1z m3299 -358 c28 -28 68 -82 88 -121 l38 -71 -88 -6 c-51 -3 -120
-16 -167 -31 -44 -14 -87 -26 -96 -26 -9 0 -40 24 -70 53 -30 30 -63 59 -74
65 -18 9 -13 17 57 90 42 45 86 99 97 121 l21 40 72 -32 c47 -21 89 -49 122
-82z m-2851 -64 c40 -32 104 -79 143 -104 105 -68 107 -73 27 -80 -80 -7 -103
-14 -103 -33 0 -11 23 -14 110 -14 l111 0 92 -56 c104 -63 394 -206 506 -250
40 -15 68 -30 62 -32 -35 -12 -382 86 -461 130 -104 57 -185 95 -240 113 -67
21 -191 88 -235 126 -17 15 -54 40 -82 54 -28 14 -53 31 -56 39 -3 8 -21 23
-39 32 -18 9 -37 23 -41 31 -5 7 -34 26 -65 42 -31 16 -68 39 -82 51 l-25 21
153 -5 153 -5 72 -60z m2460 -102 c25 -13 97 -80 97 -90 0 -11 -112 -47 -169
-54 -30 -3 -80 -17 -112 -31 -32 -13 -63 -24 -69 -24 -27 0 -3 29 58 72 37 26
90 68 117 92 28 25 51 45 53 46 2 0 13 -5 25 -11z m399 -100 c-23 -12 -47 -29
-52 -39 -9 -17 -113 -80 -132 -80 -10 0 -48 74 -48 94 0 17 125 43 215 45 l60
1 -43 -21z m340 -37 c7 -7 27 -12 44 -12 18 0 35 -4 38 -9 3 -5 21 -12 40 -15
33 -6 34 -8 29 -44 -6 -45 -53 -92 -180 -179 -48 -34 -99 -72 -111 -86 l-24
-25 -71 34 c-39 19 -77 34 -84 34 -24 0 -13 17 30 45 85 55 127 97 162 159 65
117 37 144 -44 42 -29 -36 -93 -98 -144 -139 l-92 -75 -150 1 c-82 1 -177 -2
-210 -7 -59 -7 -56 -5 155 101 118 60 242 127 275 151 l60 42 132 -3 c88 -2
137 -7 145 -15z m-5481 -42 c25 -67 50 -74 234 -66 83 3 175 9 206 12 l56 6 6
-106 c4 -65 12 -119 21 -138 21 -41 20 -55 -3 -63 -11 -3 -127 -5 -258 -3
-198 2 -245 0 -278 -14 l-40 -15 3 53 c3 42 8 55 23 59 24 8 25 35 2 35 -16 0
-18 10 -15 91 3 85 2 93 -23 130 -34 48 -28 72 17 67 28 -3 35 -9 49 -48z
m4893 -5 c17 -30 28 -56 25 -59 -20 -19 -359 -176 -380 -176 -5 0 -9 15 -9 33
0 18 -6 57 -14 87 -8 30 -12 58 -8 61 18 17 301 106 342 108 8 1 28 -24 44
-54z m-6424 4 c0 -5 -4 -9 -10 -9 -5 0 -10 7 -10 16 0 8 5 12 10 9 6 -3 10
-10 10 -16z m2294 -38 c25 -27 82 -38 233 -47 l133 -7 11 -41 c12 -42 7 -185
-6 -207 -6 -9 -55 -11 -197 -7 -103 3 -204 2 -223 -2 -38 -9 -72 11 -58 33 4
6 8 47 10 92 2 44 8 84 13 89 5 5 6 22 3 37 -10 49 4 79 36 79 15 0 36 -9 45
-19z m5066 -43 c70 -33 190 -108 190 -120 0 -4 -15 -15 -32 -24 -18 -9 -68
-43 -110 -75 -122 -93 -196 -126 -304 -134 -64 -5 -93 -4 -98 4 -4 6 -32 27
-63 47 l-55 35 28 31 c16 17 61 51 99 76 119 79 185 149 185 200 0 18 2 19 48
5 26 -8 76 -28 112 -45z m-1390 44 c0 -8 -83 -52 -97 -52 -9 0 79 58 90 59 4
1 7 -3 7 -7z m-5869 -27 c25 -4 119 1 213 10 208 21 281 18 308 -15 17 -20 18
-34 12 -101 -4 -52 -2 -94 7 -128 18 -70 7 -80 -97 -87 -73 -5 -499 22 -516
33 -5 2 -8 74 -8 159 0 144 1 154 18 145 9 -5 38 -12 63 -16z m5898 -92 c7
-38 14 -76 16 -85 1 -10 -2 -21 -9 -26 -15 -12 -237 -105 -240 -100 -2 4 -36
133 -43 164 -4 19 3 24 64 42 38 12 93 32 123 46 30 14 60 25 66 25 7 1 17
-29 23 -66z m-279 -205 c0 -24 -6 -29 -47 -41 -33 -10 -58 -11 -87 -5 -23 5
-71 12 -108 15 l-68 5 6 42 c9 63 9 63 67 70 30 4 86 22 123 40 l69 33 23 -65
c12 -36 22 -78 22 -94z m1960 12 c21 -36 56 -85 77 -110 45 -52 87 -110 82
-113 -50 -32 -133 -65 -227 -88 -98 -25 -144 -31 -287 -36 l-171 -6 -29 69
c-16 38 -37 84 -47 102 -10 18 -18 34 -18 36 0 2 27 7 60 11 71 8 213 73 277
128 23 19 72 51 107 71 36 20 68 41 72 47 10 17 61 -38 104 -111z m-6239 -3
c3 -38 11 -72 18 -76 7 -5 30 1 51 11 21 11 48 18 59 16 18 -3 16 -8 -22 -55
l-42 -52 -137 0 c-95 -1 -138 2 -138 10 0 26 56 112 82 125 24 12 28 21 28 55
l0 40 48 -3 47 -3 6 -68z m717 17 c14 -30 5 -52 -50 -112 l-37 -41 -121 -3
-121 -3 24 21 c14 11 32 32 41 46 15 22 25 26 97 31 91 7 109 17 109 58 0 24
4 29 23 29 16 0 28 -9 35 -26z m3212 -14 l0 -40 -52 0 c-58 1 -135 14 -146 24
-11 11 20 26 58 27 19 0 55 6 80 13 25 8 48 14 53 15 4 0 7 -17 7 -39z m560
-5 c-14 -8 -29 -14 -35 -14 -5 0 1 6 15 14 14 8 30 14 35 14 6 0 -1 -6 -15
-14z m-2981 -49 c-17 -30 -34 -49 -42 -46 -6 3 -58 5 -113 5 l-102 0 23 45 23
45 121 1 120 2 -30 -52z m235 28 c43 -8 93 -14 112 -14 39 0 42 -8 14 -43 -11
-14 -20 -32 -20 -41 0 -14 -10 -15 -67 -11 -38 3 -112 8 -165 11 l-97 6 37 59
c42 67 21 63 186 33z m-2421 -1 c15 -15 42 -19 138 -21 70 -2 138 1 166 8 68
17 139 23 156 13 12 -7 9 -19 -17 -73 l-32 -65 -102 -3 c-56 -1 -102 1 -102 5
0 4 12 20 27 35 22 23 24 31 14 41 -10 10 -21 3 -55 -35 l-42 -48 -118 0 -118
0 31 35 c32 37 39 59 21 70 -13 8 -54 -37 -70 -75 -12 -29 -14 -30 -87 -30
-84 0 -84 0 -20 69 25 27 46 41 63 41 13 0 35 11 47 24 27 29 73 33 100 9z
m4308 -9 l57 -16 -5 -37 c-2 -20 -9 -48 -15 -63 -11 -30 -22 -32 -226 -44
l-112 -6 20 35 c11 19 23 58 27 86 l6 50 76 4 c42 1 85 4 95 5 11 1 45 -5 77
-14z m799 6 c-8 -5 -19 -10 -25 -10 -5 0 -3 5 5 10 8 5 20 10 25 10 6 0 3 -5
-5 -10z m-4006 -17 c3 -4 -17 -31 -46 -60 l-52 -53 -99 0 -99 0 16 23 c9 12
25 39 34 59 l17 38 111 0 c61 0 114 -3 118 -7z m448 -3 c56 0 57 -5 15 -67
-22 -32 -23 -33 -102 -33 -113 0 -121 8 -65 65 38 39 49 45 74 41 16 -3 51 -6
78 -6z m340 -22 c-26 -40 -71 -55 -189 -61 l-93 -4 22 38 c23 41 4 36 203 52
22 2 48 4 58 5 18 2 18 1 -1 -30z m841 14 c97 -4 97 -4 60 -76 -14 -28 -15
-28 -81 -22 -37 4 -85 9 -108 12 l-40 6 24 50 c18 39 27 48 40 42 9 -4 57 -9
105 -12z m1287 -9 c0 -15 -12 -51 -27 -80 l-26 -53 -105 0 c-95 0 -104 1 -97
18 4 9 10 36 12 60 5 34 3 42 -11 42 -11 0 -16 -9 -16 -29 0 -17 -11 -42 -26
-60 l-26 -31 -140 0 c-134 0 -140 1 -126 18 9 9 21 34 29 55 11 32 17 37 44
37 75 0 317 22 385 34 119 22 130 21 130 -11z m-952 -9 c46 -3 82 -11 82 -17
0 -5 -11 -25 -26 -44 -14 -18 -22 -38 -18 -45 5 -8 -7 -9 -42 -5 -27 3 -87 9
-134 12 -117 9 -113 6 -87 65 l22 51 60 -5 c33 -3 97 -8 143 -12z m1452 0 c77
-6 92 -10 104 -29 14 -21 13 -22 -67 -38 -45 -9 -104 -19 -131 -23 -44 -6 -48
-5 -43 12 3 11 9 36 13 57 4 27 11 37 20 33 8 -3 54 -8 104 -12z m-4770 2 c0
-2 -12 -24 -26 -50 -22 -40 -30 -46 -58 -46 -18 0 -69 -3 -112 -6 l-79 -5 25
21 c14 12 39 34 55 48 17 15 46 30 65 33 41 7 130 11 130 5z m3677 -20 c6 -5
-22 -66 -41 -89 -13 -17 -25 -18 -129 -11 l-115 7 26 55 27 55 114 -6 c63 -4
116 -8 118 -11z m1343 9 c0 -7 -38 -21 -80 -29 -31 -5 -36 -4 -36 14 0 18 7
20 58 20 32 0 58 -2 58 -5z m2408 -297 c81 -147 113 -222 152 -358 l36 -128
-75 -31 c-100 -40 -140 -48 -312 -62 -146 -12 -268 -8 -482 12 -102 10 -117
14 -111 28 4 9 16 48 26 86 16 59 19 93 15 220 -3 83 -8 160 -12 172 -7 23 -7
23 66 17 141 -12 435 45 549 105 86 46 89 44 148 -61z m247 -620 c9 -24 32
-64 50 -89 18 -25 42 -67 53 -93 12 -26 49 -80 83 -121 34 -41 83 -105 109
-142 l48 -68 -132 -42 c-72 -24 -174 -55 -226 -70 l-95 -28 -360 1 c-404 1
-639 15 -765 45 -47 11 -121 27 -166 36 l-81 17 126 150 c141 168 169 206 230
318 42 76 43 77 65 63 57 -37 418 -56 656 -34 122 11 282 48 340 78 48 25 46
26 65 -21z m480 -839 c9 -30 39 -101 65 -159 38 -83 150 -429 150 -462 0 -5
-11 -8 -25 -8 -15 0 -36 -11 -49 -25 -19 -21 -33 -25 -77 -25 -30 0 -139 -15
-244 -32 l-190 -32 -375 0 c-568 1 -1122 54 -1440 139 -52 14 -178 47 -280 72
-102 25 -191 47 -198 49 -27 8 57 103 334 380 268 268 282 280 302 266 52 -35
312 -84 532 -102 74 -6 308 -11 520 -13 405 -2 435 0 540 45 25 11 108 35 185
54 77 20 144 39 149 44 11 11 76 -113 101 -191z m-2751 -634 c11 -8 36 -15 55
-15 40 0 117 -19 356 -85 277 -77 407 -99 865 -145 553 -57 1044 -51 1366 16
40 8 112 18 161 23 54 5 103 16 128 28 76 38 82 38 95 -4 7 -21 21 -52 31 -69
28 -47 67 -217 80 -349 7 -76 22 -153 40 -210 15 -49 32 -117 38 -150 5 -33
14 -73 20 -88 7 -17 8 -62 5 -115 -3 -48 -1 -106 4 -129 11 -48 11 -49 -23
-27 -35 23 -71 20 -176 -14 -224 -75 -473 -99 -922 -88 -272 6 -381 15 -747
61 -113 14 -297 32 -410 41 -319 23 -463 41 -895 113 -337 56 -598 76 -646 51
-10 -6 -19 -8 -19 -6 0 16 113 394 139 465 17 46 47 113 67 150 42 76 356 561
364 561 3 -1 14 -7 24 -15z"/>
<path d="M7045 6439 c-93 -4 -208 -13 -255 -19 -107 -13 -451 -13 -519 0 -28
5 -58 7 -66 4 -26 -10 -34 -71 -45 -354 -12 -288 -6 -458 15 -487 12 -17 45
-18 386 -23 l373 -5 0 -235 c1 -200 3 -235 16 -235 23 0 32 83 28 286 l-3 186
100 7 c55 3 127 13 160 21 33 8 92 15 130 15 109 1 122 20 135 188 18 217 30
636 19 647 -13 13 -255 15 -474 4z m449 -35 c14 -14 14 -19 0 -52 -11 -28 -17
-101 -24 -302 -5 -146 -14 -287 -20 -315 -6 -27 -13 -60 -15 -71 -4 -19 -12
-22 -67 -22 -35 0 -97 -8 -138 -17 -55 -12 -138 -17 -305 -20 -126 -1 -320 -6
-431 -10 -110 -4 -220 -5 -245 -1 l-44 6 2 338 c2 185 5 360 8 387 l6 51 212
-4 c201 -4 258 -2 632 33 211 19 410 19 429 -1z"/>
<path d="M7037 6170 l-11 -30 -106 -1 c-285 -4 -455 -14 -455 -28 0 -23 101
-50 186 -51 66 0 85 -4 140 -32 60 -31 169 -127 169 -148 0 -6 -13 -13 -30
-16 -38 -8 -41 -41 -5 -50 13 -3 44 -28 69 -55 25 -27 49 -49 54 -49 14 0 22
26 22 75 0 24 5 56 12 70 9 21 9 29 -3 41 -13 12 -21 13 -45 4 -26 -11 -31 -9
-49 17 -37 52 -81 88 -153 125 l-71 37 52 5 c29 3 92 7 140 10 l88 4 -3 -27
c-5 -45 34 -40 87 11 25 24 45 49 45 55 0 14 -47 41 -93 54 -26 7 -30 5 -40
-21z"/>
<path d="M3102 5568 c-7 -7 -12 -28 -12 -49 0 -20 -3 -63 -6 -96 l-6 -59 -46
23 c-71 36 -122 14 -122 -52 0 -51 77 -105 149 -105 24 0 31 6 45 40 9 22 21
82 27 132 16 142 6 201 -29 166z m-56 -239 c56 -54 20 -78 -56 -39 -30 16 -40
26 -40 45 0 38 54 35 96 -6z"/>
<path d="M1570 5488 c-47 -13 -66 -32 -84 -84 -14 -40 -13 -45 5 -69 33 -41
98 -73 164 -80 64 -6 92 3 82 29 -5 12 -21 16 -69 16 -42 0 -75 7 -104 20 -48
23 -55 35 -43 68 9 23 44 42 119 64 58 17 61 42 5 45 -22 1 -56 -3 -75 -9z"/>
<path d="M2273 5440 c-46 -19 -37 -123 15 -173 33 -32 76 -46 112 -37 35 8 73
67 65 100 -8 30 -43 70 -62 70 -8 0 -26 9 -41 19 -35 25 -62 32 -89 21z m85
-81 c12 -9 31 -15 41 -12 42 11 39 -56 -4 -75 -51 -24 -105 22 -105 91 0 36 1
37 23 26 12 -7 32 -20 45 -30z"/>
<path d="M3649 5417 c-35 -23 -39 -41 -27 -112 5 -31 79 -102 115 -109 39 -9
113 10 113 29 0 22 -16 26 -61 16 -43 -10 -89 0 -89 19 0 5 10 10 23 10 35 0
69 42 74 93 5 38 2 47 -18 61 -34 23 -90 20 -130 -7z m111 -32 c0 -38 -83 -82
-101 -54 -25 40 2 67 69 68 22 1 32 -4 32 -14z"/>
<path d="M353 5200 c-93 -7 -140 -21 -129 -39 2 -3 159 -8 349 -9 261 -3 346
-1 352 8 18 29 -36 37 -290 44 -99 2 -226 0 -282 -4z"/>
<path d="M270 5022 c-14 -5 -25 -14 -25 -22 0 -13 46 -16 285 -23 157 -4 295
-5 308 -2 30 7 28 23 -5 37 -32 13 -524 21 -563 10z"/>
<path d="M362 4800 c-52 -11 -62 -17 -62 -36 0 -13 34 -14 268 -8 147 3 271
10 276 15 6 6 5 14 -2 22 -16 15 -412 21 -480 7z"/>
</g>
</svg>
