<?xml version="1.0" standalone="no"?>
<!DOCTYPE svg PUBLIC "-//W3C//DTD SVG 20010904//EN"
 "http://www.w3.org/TR/2001/REC-SVG-20010904/DTD/svg10.dtd">
<svg version="1.0" xmlns="http://www.w3.org/2000/svg"
 width="1018.000000pt" height="1024.000000pt" viewBox="0 0 1018.000000 1024.000000"
 preserveAspectRatio="xMidYMid meet">

<g transform="translate(0.000000,1024.000000) scale(0.100000,-0.100000)"
fill="#000000" stroke="none">
<path d="M7135 9650 c-33 -4 -76 -12 -95 -18 -19 -5 -57 -13 -85 -17 -27 -4
-54 -10 -60 -14 -5 -5 -32 -14 -60 -20 -27 -7 -54 -16 -60 -21 -5 -4 -30 -13
-55 -20 -25 -6 -77 -27 -116 -46 -38 -19 -73 -34 -78 -34 -11 0 -213 -118
-271 -158 -135 -94 -230 -185 -355 -341 -14 -18 -30 -37 -37 -45 -34 -38 -105
-156 -155 -257 -66 -134 -108 -228 -108 -241 0 -6 -6 -24 -14 -41 -22 -51 -66
-227 -88 -357 -14 -86 -14 -369 0 -445 24 -126 41 -195 67 -266 14 -41 31 -88
36 -106 5 -18 25 -63 43 -100 47 -95 49 -105 31 -154 -9 -24 -22 -62 -30 -84
-7 -22 -23 -61 -36 -87 -28 -56 -198 -350 -244 -423 -18 -27 -58 -93 -91 -145
-71 -114 -101 -162 -112 -175 -22 -29 -60 -121 -52 -129 8 -8 148 18 179 34 9
5 57 18 106 31 50 12 142 39 205 59 63 20 156 50 205 65 50 15 104 33 120 40
17 7 62 23 100 35 134 42 212 72 333 127 33 14 35 14 86 -20 28 -19 85 -49
126 -66 41 -18 90 -38 108 -46 18 -8 38 -15 45 -15 7 0 24 -6 38 -13 48 -26
205 -57 373 -76 105 -11 171 -22 174 -29 5 -17 53 -14 76 3 14 11 46 15 107
15 141 0 437 46 514 79 11 5 61 23 112 40 95 33 208 88 300 147 30 19 55 34
58 34 2 0 31 18 64 41 81 55 250 212 302 279 24 30 48 60 55 65 19 16 89 116
120 170 15 28 31 52 34 55 3 3 27 48 52 100 144 300 189 471 192 735 1 162
-15 257 -77 460 -41 133 -152 395 -168 395 -5 0 -9 5 -9 12 0 18 -135 222
-221 333 -65 85 -207 226 -290 288 -13 9 -38 28 -55 42 -18 14 -37 25 -43 25
-6 0 -11 5 -11 10 0 6 -8 13 -17 17 -10 3 -30 14 -44 24 -51 35 -267 139 -291
139 -7 1 -31 9 -53 20 -22 11 -46 19 -53 20 -8 0 -28 6 -45 14 -34 15 -155 43
-247 56 -66 10 -451 10 -535 0z m430 -160 c135 -17 270 -40 290 -49 11 -5 52
-19 90 -31 85 -26 170 -63 250 -108 65 -37 137 -83 145 -93 3 -3 16 -12 30
-19 50 -27 207 -150 256 -201 28 -30 72 -81 98 -114 25 -33 51 -66 58 -74 10
-12 96 -153 141 -231 34 -60 55 -102 87 -180 121 -292 132 -340 133 -609 1
-216 -4 -252 -60 -411 -28 -79 -171 -367 -209 -422 -197 -281 -352 -421 -619
-560 -90 -47 -257 -109 -365 -136 -201 -51 -823 -52 -985 -2 -16 5 -64 19
-105 31 -137 40 -257 94 -339 151 -30 21 -65 38 -78 38 -14 0 -57 -14 -96 -32
-87 -38 -171 -69 -297 -109 -52 -17 -108 -37 -125 -44 -16 -7 -61 -23 -100
-35 -38 -12 -95 -30 -125 -41 -30 -10 -80 -23 -110 -28 -30 -5 -63 -13 -72
-16 -11 -4 -18 -3 -18 5 0 12 19 52 29 60 11 9 59 85 131 210 40 69 81 139 91
155 10 17 42 77 71 135 29 58 65 127 80 153 15 26 28 61 28 77 0 25 -73 184
-91 200 -12 10 -72 188 -101 300 -39 151 -56 398 -30 442 13 23 14 33 4 60
-12 35 -9 64 26 213 10 44 23 89 29 100 5 11 13 35 17 54 8 45 140 310 193
389 24 36 43 66 43 68 0 2 8 12 18 22 9 11 26 32 37 47 40 57 115 141 115 128
0 -3 23 18 51 46 29 29 79 71 113 93 33 23 63 44 66 48 3 3 28 19 55 35 28 15
52 32 55 35 13 19 288 142 388 174 99 32 162 46 342 76 64 11 282 11 365 0z"/>
<path d="M6790 8495 c0 -12 -18 -15 -105 -15 l-105 0 0 -35 c0 -31 3 -35 25
-35 14 0 25 -2 25 -5 0 -21 -53 -225 -59 -225 -4 0 -29 68 -56 150 l-49 150
-41 0 -40 0 -39 -123 c-64 -204 -58 -199 -89 -75 -15 59 -27 112 -27 118 0 5
11 10 25 10 22 0 25 4 25 35 l0 35 -111 0 -110 0 3 -32 c2 -28 8 -34 30 -36
20 -2 30 -10 34 -28 4 -13 27 -102 53 -197 l46 -172 55 -3 55 -3 43 131 c24
71 47 130 50 130 4 0 27 -58 50 -130 l43 -130 52 0 52 0 56 198 c53 188 57
197 82 200 16 2 27 10 29 21 2 15 8 17 26 10 22 -8 22 -11 22 -180 0 -162 -1
-171 -20 -176 -15 -4 -20 -14 -20 -39 l0 -34 95 0 95 0 0 30 c0 19 -7 33 -20
40 -18 9 -20 21 -20 96 0 79 1 85 24 95 17 8 29 8 45 0 19 -11 21 -20 21 -100
0 -70 -3 -90 -15 -95 -9 -3 -15 -18 -15 -36 l0 -30 95 0 95 0 0 31 c0 22 -5
32 -20 36 -18 5 -20 14 -20 94 0 102 -15 149 -55 175 -33 22 -87 22 -120 0
-13 -9 -27 -16 -30 -16 -3 0 -5 41 -5 90 l0 90 -80 0 c-64 0 -80 -3 -80 -15z"/>
<path d="M8020 8470 l0 -40 60 0 60 0 0 40 0 40 -60 0 -60 0 0 -40z"/>
<path d="M7630 8405 c0 -41 -2 -45 -25 -45 -22 0 -25 -4 -25 -40 0 -36 3 -40
25 -40 l25 0 0 -109 c0 -101 2 -112 24 -138 21 -24 31 -27 82 -28 l59 0 3 37
c3 31 -1 38 -25 50 -27 13 -28 16 -31 101 l-3 87 31 0 c28 0 30 2 30 40 0 38
-2 40 -30 40 -29 0 -30 2 -30 45 l0 45 -55 0 -55 0 0 -45z"/>
<path d="M7295 8352 c-50 -17 -50 -17 -53 -64 l-3 -48 45 0 c39 0 45 3 48 23
4 29 56 37 75 11 25 -35 16 -54 -24 -54 -62 0 -110 -18 -138 -52 -74 -88 39
-208 145 -153 23 12 35 14 43 6 6 -6 39 -11 74 -11 l63 0 0 34 c0 25 -5 35
-20 39 -18 5 -20 14 -20 105 0 92 -2 103 -25 130 -15 18 -41 34 -69 41 -59 15
-81 13 -141 -7z m125 -227 c0 -28 -31 -49 -60 -40 -12 4 -20 15 -20 29 0 30 7
36 47 36 28 0 33 -3 33 -25z"/>
<path d="M8308 8360 c-73 -14 -111 -79 -84 -143 16 -39 48 -60 119 -77 71 -18
75 -65 6 -58 -25 2 -37 10 -47 31 -11 22 -20 27 -48 27 l-34 0 0 -55 c0 -51 2
-56 28 -66 40 -15 115 -23 156 -15 76 14 121 85 96 147 -14 33 -47 53 -122 75
-42 13 -49 19 -46 37 2 18 10 22 38 22 28 0 35 -4 40 -25 5 -21 12 -25 40 -24
l35 0 3 56 3 56 -64 11 c-69 12 -65 12 -119 1z"/>
<path d="M7980 8326 c0 -28 4 -35 25 -40 24 -6 25 -8 25 -101 0 -93 -1 -96
-25 -105 -19 -7 -25 -17 -25 -40 l0 -30 100 0 100 0 0 35 c0 28 -4 35 -20 35
-19 0 -20 7 -20 140 l0 140 -80 0 -80 0 0 -34z"/>
<path d="M6557 7603 c-4 -3 -7 -19 -7 -34 0 -20 6 -28 25 -33 l25 -6 0 -160 0
-160 -26 -6 c-21 -5 -25 -11 -22 -38 l3 -31 105 0 105 0 3 32 c3 29 0 32 -32
39 l-36 6 0 104 c0 57 2 104 5 104 3 0 48 -65 101 -145 l94 -145 55 0 55 0 0
199 0 199 25 6 c21 5 25 12 25 41 l0 35 -105 0 -105 0 0 -34 c0 -30 4 -35 30
-41 l30 -7 0 -104 c0 -58 -4 -103 -9 -100 -4 3 -48 69 -96 146 l-88 140 -77 0
c-42 0 -80 -3 -83 -7z"/>
<path d="M7077 7604 c-4 -4 -7 -20 -7 -35 0 -20 6 -28 25 -33 l25 -6 0 -160 0
-160 -26 -6 c-21 -5 -25 -11 -22 -38 l3 -31 183 -3 182 -2 0 80 0 81 -42 -3
c-40 -3 -43 -5 -46 -35 -3 -33 -4 -33 -58 -33 l-54 0 0 154 0 154 31 7 c27 6
30 10 27 38 l-3 32 -106 3 c-58 1 -108 -1 -112 -4z"/>
<path d="M7460 7576 c0 -30 4 -37 25 -42 l25 -6 0 -158 0 -158 -25 -6 c-21 -5
-25 -12 -25 -41 l0 -35 105 0 105 0 0 35 c0 29 -4 36 -25 41 -21 5 -25 12 -25
44 l0 37 69 6 c80 7 118 23 155 67 22 26 26 42 26 90 0 48 -4 64 -26 90 -48
56 -74 64 -236 68 l-148 4 0 -36z m280 -76 c20 -20 26 -65 12 -86 -13 -20 -50
-34 -91 -34 l-41 0 0 70 0 70 50 0 c37 0 55 -5 70 -20z"/>
<path d="M7953 7594 c-36 -18 -58 -46 -65 -86 -5 -28 -5 -28 51 -28 45 0 59 4
69 20 17 28 68 27 82 -1 18 -33 3 -68 -51 -118 -32 -30 -51 -57 -55 -79 l-7
-33 59 3 c52 3 59 6 62 25 2 12 21 36 43 54 50 39 69 76 69 132 0 52 -27 93
-76 113 -45 19 -141 17 -181 -2z"/>
<path d="M7980 7180 l0 -50 55 0 55 0 0 50 0 50 -55 0 -55 0 0 -50z"/>
<path d="M2085 9490 c-315 -32 -641 -162 -875 -348 -145 -116 -284 -259 -366
-377 -11 -16 -38 -54 -59 -84 -42 -60 -125 -219 -125 -238 0 -7 -9 -30 -20
-50 -11 -21 -20 -43 -20 -50 0 -7 -6 -27 -14 -45 -29 -67 -56 -217 -67 -362
-20 -300 18 -616 101 -836 51 -134 64 -169 80 -205 10 -22 21 -56 25 -75 4
-19 12 -40 17 -47 11 -14 24 -135 40 -393 8 -133 11 -465 9 -1042 l-2 -846 23
-16 c38 -27 111 -13 123 23 2 9 7 412 10 896 7 1179 -5 1367 -94 1560 -42 90
-91 211 -91 225 0 7 -6 26 -14 43 -38 84 -75 352 -75 547 -1 284 41 474 151
688 42 82 139 238 157 252 3 3 26 30 51 60 93 114 215 225 335 304 39 25 75
49 80 54 16 13 146 73 250 115 64 25 175 55 235 63 30 3 84 12 120 20 74 16
195 17 290 4 36 -5 103 -14 150 -20 131 -16 354 -88 440 -141 8 -5 29 -16 45
-24 40 -21 64 -35 102 -62 17 -13 34 -23 37 -23 4 0 12 -4 19 -10 185 -149
303 -275 405 -430 20 -30 39 -57 42 -60 12 -11 100 -201 100 -215 0 -4 6 -21
14 -38 47 -102 64 -237 65 -493 1 -200 7 -227 74 -359 47 -93 87 -181 87 -194
0 -6 4 -11 9 -11 5 0 15 -17 22 -37 6 -21 15 -40 18 -43 14 -11 221 -440 221
-458 0 -9 -40 -12 -137 -12 -76 0 -155 -4 -176 -9 -46 -11 -82 -48 -96 -99
-12 -42 -13 -241 -2 -320 9 -60 19 -53 -109 -73 -66 -10 -80 -16 -112 -49 -39
-39 -51 -86 -25 -96 7 -2 77 -8 157 -12 94 -5 145 -11 147 -19 2 -6 -23 -26
-56 -43 -52 -28 -62 -38 -75 -77 -14 -39 -14 -55 -1 -141 8 -53 15 -117 15
-141 0 -75 -45 -141 -153 -228 -8 -6 -46 -21 -83 -32 -62 -18 -102 -21 -379
-23 -302 -3 -311 -4 -350 -26 -92 -53 -114 -131 -126 -452 -12 -341 -11 -356
7 -374 24 -24 88 -20 119 7 l27 22 1 295 c2 250 5 301 19 332 l16 37 349 3
348 3 81 41 c87 44 108 59 162 116 37 40 43 49 89 138 27 54 28 58 26 207 l-1
152 27 6 c15 3 43 18 61 33 27 23 33 36 37 78 3 31 0 63 -10 85 -14 33 -13 37
9 64 32 40 30 57 -13 123 l-38 57 -3 125 -4 125 186 1 c170 2 188 4 220 23 40
25 46 37 46 100 0 40 -23 93 -177 402 -98 196 -191 385 -208 420 -16 35 -33
66 -37 67 -5 2 -8 8 -8 13 0 5 -9 28 -19 52 -17 36 -20 73 -24 277 -4 163 -10
252 -20 290 -8 30 -18 74 -22 97 -4 24 -23 80 -42 125 -19 46 -37 91 -40 100
-6 21 -44 93 -90 169 -28 48 -63 98 -135 194 -38 50 -171 190 -198 208 -14 9
-43 32 -65 52 -51 45 -45 41 -145 106 -47 31 -110 67 -140 81 -30 14 -75 35
-100 46 -25 11 -83 33 -130 47 -47 15 -94 31 -105 36 -21 9 -159 33 -280 49
-80 10 -238 10 -340 0z"/>
<path d="M2095 8830 c-165 -31 -357 -141 -457 -262 -109 -134 -156 -256 -165
-434 -7 -134 0 -179 30 -196 27 -16 319 -15 359 1 37 14 66 75 79 167 20 143
94 237 217 273 86 26 117 26 201 1 200 -59 264 -266 136 -435 -15 -18 -79 -73
-143 -122 -64 -48 -122 -93 -128 -99 -7 -6 -25 -22 -42 -36 -121 -102 -187
-275 -187 -493 1 -187 20 -205 218 -205 217 0 229 10 238 198 3 68 11 127 16
130 6 4 17 21 26 38 18 35 80 89 172 149 77 51 190 166 248 252 69 104 123
290 114 398 -9 116 -37 213 -94 319 -32 60 -45 78 -103 136 -121 121 -229 177
-425 220 -48 11 -254 11 -310 0z"/>
<path d="M2165 6771 c-40 -10 -83 -37 -122 -77 -49 -50 -61 -74 -72 -141 -18
-113 25 -240 99 -293 37 -27 126 -60 158 -60 66 0 188 55 215 97 4 7 14 19 22
27 54 53 77 206 41 271 -9 17 -16 35 -16 41 0 18 -80 94 -123 115 -43 22 -153
33 -202 20z"/>
<path d="M7868 4925 c-2 -2 -442 -5 -978 -6 -536 -1 -1005 -5 -1042 -10 -160
-21 -282 -125 -340 -289 l-23 -65 0 -1160 c0 -1096 3 -1292 23 -1319 5 -6 15
-27 22 -46 16 -39 19 -44 75 -103 52 -55 92 -82 157 -107 51 -19 75 -20 582
-20 479 0 528 -1 522 -16 -3 -9 -9 -28 -12 -42 -4 -15 -10 -31 -14 -37 -3 -5
-18 -48 -33 -95 -38 -124 -83 -263 -116 -360 l-29 -85 -53 -12 c-30 -7 -80
-15 -112 -18 -56 -6 -58 -7 -81 -53 -13 -26 -27 -74 -31 -107 -4 -33 -11 -65
-16 -71 -12 -15 -4087 -20 -4137 -5 -44 13 -108 66 -138 113 l-25 40 3 421 c1
232 -1 450 -6 484 l-8 62 474 3 473 3 65 32 c121 60 201 150 251 283 l24 65 5
590 c3 325 2 625 -2 667 -16 185 -158 343 -363 405 -56 17 -123 18 -1025 18
l-965 0 -65 -24 c-36 -14 -76 -33 -89 -43 -13 -10 -28 -18 -32 -18 -9 0 -32
-18 -72 -55 -22 -20 -107 -141 -107 -151 0 -3 -10 -26 -22 -52 l-23 -47 0
-635 0 -635 25 -65 c56 -150 130 -235 257 -297 l78 -38 504 -3 504 -3 -7 -172
c-31 -792 -30 -836 25 -914 l30 -43 -438 -1 c-241 -1 -544 -1 -674 1 l-235 2
-27 -24 c-36 -34 -34 -60 8 -96 l34 -31 4316 2 4317 2 24 28 c30 35 31 78 3
103 -20 18 -44 19 -394 22 l-372 3 -6 57 c-2 31 -12 83 -22 115 -21 71 -29 75
-177 84 -121 7 -125 10 -143 93 -4 19 -11 40 -15 45 -5 6 -15 35 -23 65 -17
60 -42 134 -57 165 -5 11 -14 39 -20 62 -6 23 -17 54 -25 70 -8 15 -15 35 -15
43 0 8 -7 28 -15 44 -31 59 -56 56 444 56 382 0 471 3 527 16 139 32 231 107
297 244 l22 45 5 930 c4 703 8 937 18 958 14 34 15 40 3 32 -6 -3 -11 113 -13
287 -3 282 -4 295 -26 333 -12 22 -22 43 -22 48 0 22 -67 101 -113 135 -104
75 -104 75 -397 83 -374 10 -917 18 -922 14z m1120 -176 c28 -6 52 -15 52 -20
0 -5 6 -9 13 -9 20 0 82 -69 107 -118 l21 -44 -1 -1061 c0 -583 -3 -1063 -6
-1066 -7 -8 -1379 0 -1544 8 -69 3 -219 3 -335 -2 -270 -10 -1557 -2 -1610 9
l-40 9 -3 1045 -2 1045 26 50 c34 66 59 94 119 130 l50 30 970 5 c1238 6 2115
2 2183 -11z m-5996 -841 c75 -35 142 -99 175 -166 l28 -57 0 -620 c0 -619 0
-620 -23 -686 -25 -72 -72 -130 -137 -170 l-40 -24 -1015 0 c-995 0 -1016 1
-1051 20 -60 34 -149 124 -149 152 0 4 -8 22 -18 38 -16 28 -17 79 -17 665 l0
635 25 40 c25 40 58 81 95 118 11 11 45 31 75 45 l55 27 610 6 c336 3 773 5
972 4 361 -3 361 -3 415 -27z m6101 -1647 l87 -1 0 -54 c0 -88 -29 -140 -107
-193 -77 -52 -110 -54 -1283 -53 -536 1 -1186 1 -1445 1 -551 0 -555 0 -630
80 -26 27 -53 65 -61 84 -14 33 -20 126 -8 137 4 4 2887 3 3447 -1z m-1152
-704 c43 -131 79 -246 79 -255 1 -9 9 -35 20 -57 11 -22 19 -50 20 -62 l0 -23
-615 0 c-476 0 -615 3 -615 12 0 12 22 79 40 123 5 11 41 117 80 235 39 118
76 227 82 243 l11 27 409 -2 409 -3 80 -238z m458 -561 c7 -8 11 -33 9 -56
l-3 -41 -939 -2 -938 -2 6 44 c3 25 9 47 12 50 3 3 406 7 896 8 489 1 892 4
896 7 11 11 50 6 61 -8z"/>
<path d="M7755 4704 c-16 -3 -39 -9 -50 -14 -11 -5 -31 -14 -45 -20 -14 -5
-32 -14 -40 -19 -8 -5 -44 -23 -80 -40 -72 -34 -139 -85 -192 -146 -144 -167
-200 -300 -228 -537 -12 -103 -30 -157 -68 -206 -15 -21 -50 -70 -77 -111 -41
-62 -50 -82 -53 -131 -4 -49 -1 -61 17 -79 11 -11 32 -38 46 -60 25 -41 57
-63 107 -75 l26 -6 4 -169 c3 -193 8 -206 89 -250 39 -21 60 -25 176 -29 166
-5 161 -1 165 -169 l3 -118 55 -3 c91 -5 95 2 95 155 0 120 -2 131 -28 180
-47 91 -100 113 -312 131 l-80 7 -5 197 c-3 108 -7 198 -10 201 -20 17 -57 27
-104 27 -98 0 -107 17 -51 100 19 28 61 102 94 165 56 107 60 118 70 218 15
149 45 253 107 369 41 77 156 171 261 215 126 52 394 53 515 1 232 -99 358
-235 419 -453 9 -32 14 -97 13 -180 -1 -193 -35 -310 -124 -430 -56 -73 -88
-139 -100 -203 -15 -80 -12 -305 5 -382 31 -141 52 -204 77 -232 23 -25 32
-28 92 -28 l66 0 0 45 c0 25 -7 62 -15 83 -9 20 -29 88 -45 150 -24 91 -30
135 -30 216 1 154 8 177 92 305 48 72 99 170 108 206 6 22 16 58 23 80 7 24
12 99 12 190 0 176 -22 281 -81 393 -54 101 -173 235 -236 268 -16 8 -28 19
-28 24 0 6 -6 10 -13 10 -7 0 -24 8 -37 17 -39 28 -208 102 -249 109 -20 4
-42 11 -49 17 -13 10 -254 19 -307 11z"/>
<path d="M6305 4460 c-5 -5 -21 -20 -36 -32 -65 -59 -85 -141 -51 -214 20 -46
60 -94 78 -94 20 0 23 -24 23 -153 l0 -123 -57 -27 c-73 -34 -111 -69 -162
-151 -21 -34 -24 -53 -25 -130 0 -76 4 -99 24 -141 31 -65 118 -150 169 -166
48 -14 52 -27 52 -170 l0 -99 -39 -28 c-100 -70 -107 -202 -15 -290 29 -28
115 -44 169 -32 70 16 135 100 135 175 0 56 -26 101 -82 141 l-43 31 -3 114
c-3 122 2 159 20 159 6 0 34 11 62 24 61 29 124 93 155 159 20 42 23 60 19
135 -4 81 -7 92 -42 145 -43 64 -111 122 -156 132 -46 10 -53 27 -58 154 -4
92 -2 120 9 129 8 7 28 22 44 36 39 30 75 99 75 141 0 65 -38 127 -102 168
-30 19 -145 23 -163 7z m123 -143 c25 -51 -10 -87 -64 -67 -19 7 -24 17 -24
43 0 18 6 39 12 45 21 21 61 10 76 -21z m49 -639 c112 -68 103 -237 -18 -298
-67 -34 -121 -25 -187 34 -54 47 -71 140 -38 203 43 84 158 113 243 61z m-49
-889 c7 -46 -64 -67 -92 -27 -11 15 -12 26 -5 40 24 45 90 37 97 -13z"/>
<path d="M7975 4216 c-80 -37 -123 -85 -163 -185 -29 -70 -29 -169 -2 -226 11
-22 19 -45 20 -52 0 -24 110 -124 162 -148 74 -34 182 -35 253 -1 70 33 130
88 155 144 12 26 27 58 33 71 15 30 16 140 1 172 -56 126 -105 181 -199 225
-71 34 -189 34 -260 0z m241 -163 c102 -78 100 -222 -5 -292 -51 -35 -144 -36
-186 -3 -89 69 -111 159 -58 237 32 48 68 78 102 87 44 11 113 -2 147 -29z"/>
<path d="M8918 3052 c-22 -4 -27 -26 -30 -117 -3 -68 -4 -70 -30 -73 -34 -4
-41 19 -36 107 3 64 -3 74 -38 61 -39 -15 -66 -61 -60 -100 6 -40 79 -115 128
-132 34 -12 58 1 130 73 38 38 48 55 48 81 -1 56 -63 111 -112 100z"/>
<path d="M1324 3316 c-11 -30 1 -60 26 -66 l25 -6 3 -181 2 -182 -27 -3 c-24
-3 -28 -8 -31 -40 l-3 -38 121 0 121 0 -3 37 c-3 33 -7 39 -33 43 l-30 5 -3
118 c-1 64 1 117 5 116 4 0 54 -71 109 -157 l101 -157 66 -3 67 -3 2 223 3
222 25 6 c20 5 26 13 28 43 l3 37 -120 0 -121 0 0 -39 c0 -37 2 -40 33 -43
l32 -3 3 -109 c1 -61 0 -116 -3 -124 -3 -10 -44 46 -108 149 l-103 164 -92 3
c-74 2 -93 0 -98 -12z"/>
<path d="M1910 3290 c0 -36 3 -40 25 -40 l25 0 0 -184 c0 -184 0 -185 -22
-188 -19 -2 -24 -10 -26 -40 l-3 -38 205 0 206 0 0 85 0 85 -50 0 -50 0 0 -35
0 -35 -65 0 -65 0 3 173 2 172 33 3 c30 3 32 6 32 43 l0 39 -125 0 -125 0 0
-40z"/>
<path d="M2342 3293 c2 -30 8 -38 28 -43 l25 -6 3 -181 2 -182 -27 -3 c-24 -3
-28 -8 -31 -40 l-3 -38 121 0 121 0 -3 38 c-2 30 -7 38 -25 40 -20 3 -23 9
-23 53 l0 49 65 0 c133 0 215 67 215 175 0 55 -18 93 -60 128 -46 39 -90 47
-258 47 l-153 0 3 -37z m318 -83 c12 -12 20 -33 20 -55 0 -53 -28 -75 -95 -75
l-55 0 0 75 0 75 55 0 c42 0 60 -5 75 -20z"/>
<path d="M7363 2183 c-38 -39 -43 -78 -16 -121 24 -37 32 -42 76 -42 83 0 115
87 57 153 -44 51 -77 53 -117 10z"/>
<path d="M4590 3374 l0 -116 -509 7 -509 7 -4 -60 -3 -60 495 -7 c272 -3 503
-9 513 -12 17 -4 18 -14 11 -119 -4 -63 -4 -114 0 -114 17 0 526 284 519 290
-12 11 -501 300 -508 300 -3 0 -5 -52 -5 -116z"/>
</g>
</svg>
