<?xml version="1.0" standalone="no"?>
<!DOCTYPE svg PUBLIC "-//W3C//DTD SVG 20010904//EN"
 "http://www.w3.org/TR/2001/REC-SVG-20010904/DTD/svg10.dtd">
<svg version="1.0" xmlns="http://www.w3.org/2000/svg"
 width="7242.000000pt" height="7203.000000pt" viewBox="0 0 7242.000000 7203.000000"
 preserveAspectRatio="xMidYMid meet">
<metadata>
Created by potrace 1.16, written by Peter Selinger 2001-2019
</metadata>
<g transform="translate(0.000000,7203.000000) scale(0.100000,-0.100000)"
fill="#000000" stroke="none">
<path d="M55965 72020 c-3418 -145 -6481 -1281 -8885 -3295 -400 -335 -992
-905 -1321 -1270 -1200 -1332 -2129 -2833 -2810 -4545 -1179 -2957 -1461
-6277 -793 -9320 314 -1427 836 -2789 1536 -4002 l85 -146 -2593 -3583 c-1426
-1970 -2603 -3605 -2614 -3632 -80 -185 -14 -410 152 -517 79 -51 167 -74 260
-68 88 7 479 131 1968 627 1925 642 3691 1259 6754 2360 230 83 422 151 426
151 5 0 79 -48 166 -106 1065 -711 2289 -1295 3539 -1687 1207 -379 2373 -593
3715 -683 320 -21 1283 -30 1636 -15 594 26 1075 70 1649 152 2942 417 5695
1634 7810 3453 376 323 934 866 1239 1206 2126 2367 3399 5476 3640 8895 41
581 47 1574 12 2110 -171 2613 -883 4954 -2143 7055 -1354 2256 -3312 4043
-5748 5245 -1246 614 -2534 1047 -3945 1324 -722 142 -1466 233 -2300 281
-243 14 -1180 21 -1435 10z m1485 -854 c2124 -132 4076 -645 5880 -1548 2960
-1480 5112 -3827 6342 -6918 540 -1357 889 -2867 1002 -4340 37 -477 41 -593
41 -1240 -1 -684 -9 -894 -56 -1395 -243 -2614 -1123 -5030 -2552 -7007 -1104
-1528 -2526 -2776 -4262 -3742 -265 -148 -843 -435 -1126 -560 -1736 -766
-3590 -1197 -5524 -1286 -283 -13 -1059 -13 -1330 0 -1699 81 -3248 409 -4735
1005 -642 257 -1298 582 -1875 929 -165 100 -573 366 -788 515 -112 77 -168
94 -290 89 -92 -4 -96 -6 -1002 -332 -2645 -952 -4497 -1601 -6298 -2205 -817
-274 -820 -275 -810 -258 4 7 1036 1435 2295 3174 1258 1739 2298 3183 2310
3210 31 70 37 218 11 293 -10 30 -75 150 -144 265 -389 648 -721 1332 -992
2046 -814 2141 -1088 4562 -787 6949 483 3821 2328 7247 5090 9455 1989 1589
4484 2576 7205 2849 297 30 609 51 1050 70 192 8 1117 -4 1345 -18z"/>
<path d="M60210 62506 c-121 -26 -206 -96 -264 -216 l-31 -65 -3 -602 -3 -603
-197 0 c-231 0 -294 -9 -380 -51 -74 -36 -142 -115 -168 -192 -21 -63 -15
-177 11 -232 27 -54 93 -118 155 -150 101 -51 184 -65 390 -65 l187 0 6 -1202
c8 -1303 5 -1252 63 -1358 50 -92 169 -163 292 -176 64 -7 156 12 223 47 63
32 134 104 160 162 l24 52 3 1238 2 1237 318 0 c264 0 328 3 373 16 127 38
240 118 281 199 13 25 23 66 26 110 8 141 -66 252 -215 323 l-78 37 -352 3
-353 3 -2 607 -3 607 -31 66 c-17 36 -48 82 -68 102 -47 48 -136 92 -211 106
-70 13 -84 13 -155 -3z"/>
<path d="M65152 62472 c-113 -41 -211 -133 -264 -247 -20 -43 -23 -66 -23
-165 0 -109 2 -119 32 -182 87 -185 281 -278 494 -238 124 23 248 119 304 235
26 51 30 74 33 161 5 119 -10 177 -65 262 -46 68 -103 117 -183 156 -58 27
-77 31 -170 33 -83 3 -116 -1 -158 -15z"/>
<path d="M52343 62440 c-102 -21 -205 -104 -256 -209 l-32 -66 0 -2150 c0
-2089 1 -2151 19 -2200 61 -159 217 -255 400 -243 141 9 266 97 317 224 l24
59 5 777 5 777 159 190 c87 105 202 233 256 284 173 167 347 263 495 274 114
9 153 -1 221 -55 120 -97 197 -219 257 -407 71 -222 70 -214 76 -1080 6 -775
6 -780 28 -834 33 -81 70 -127 135 -171 75 -50 142 -70 232 -70 162 1 289 92
342 245 16 46 17 114 15 840 -3 862 -5 911 -61 1142 -71 293 -192 532 -374
739 -147 165 -321 264 -601 339 -80 22 -327 31 -425 16 -104 -16 -287 -79
-410 -141 -103 -52 -300 -169 -332 -198 -17 -14 -18 25 -18 814 l0 830 -26 52
c-83 167 -267 258 -451 222z"/>
<path d="M45043 62376 c-170 -55 -265 -228 -220 -401 9 -33 47 -126 86 -208
91 -188 148 -326 255 -609 47 -124 137 -361 200 -525 381 -998 671 -1876 891
-2703 54 -200 77 -250 152 -321 145 -137 360 -146 525 -21 60 46 66 54 143
207 167 333 248 541 881 2249 79 214 146 391 147 393 8 7 287 -737 492 -1312
157 -439 538 -1444 562 -1484 41 -66 120 -117 213 -137 138 -29 259 -2 365 83
56 45 66 59 137 203 141 285 251 554 390 960 85 248 189 527 296 795 158 397
409 1121 519 1500 83 290 156 609 198 877 18 115 10 193 -30 274 -64 131 -232
209 -395 183 -89 -14 -141 -39 -204 -99 -74 -70 -109 -150 -141 -325 -112
-606 -279 -1178 -593 -2035 -66 -179 -176 -478 -244 -665 -69 -187 -131 -358
-138 -380 -7 -22 -16 -44 -20 -48 -15 -17 -258 622 -473 1243 -89 256 -437
1216 -577 1590 -34 91 -70 179 -81 196 -30 50 -105 113 -167 142 -51 24 -69
27 -167 27 -98 0 -116 -3 -165 -26 -62 -29 -114 -71 -161 -130 -26 -33 -40
-76 -94 -291 -127 -510 -251 -904 -498 -1583 -133 -365 -376 -1017 -381 -1022
-1 -1 -17 50 -35 115 -75 263 -202 624 -464 1317 -483 1282 -649 1692 -724
1796 -49 69 -107 117 -182 152 -57 27 -79 32 -161 34 -60 2 -110 -2 -137 -11z"/>
<path d="M67535 61233 c-77 -6 -191 -25 -270 -45 -306 -76 -569 -324 -705
-665 -141 -355 -74 -699 192 -979 197 -208 393 -298 928 -428 198 -48 272 -86
376 -190 52 -53 91 -102 110 -141 26 -54 29 -70 29 -160 0 -88 -3 -107 -27
-158 -34 -73 -126 -165 -201 -201 -153 -75 -341 -76 -505 -1 -122 56 -343 240
-439 366 -30 39 -56 59 -118 90 -139 69 -277 74 -394 14 -62 -31 -135 -112
-155 -172 -36 -105 -10 -253 60 -340 138 -172 235 -262 403 -375 404 -270 992
-395 1335 -283 231 75 461 250 604 458 69 100 145 261 172 362 27 105 36 264
21 392 -27 233 -101 398 -250 555 -177 188 -440 317 -925 454 -259 72 -401
155 -486 281 -31 46 -32 51 -28 133 8 145 69 229 205 280 195 73 433 38 793
-116 55 -23 79 -28 155 -28 80 0 97 3 156 31 88 41 142 92 180 169 28 57 31
70 27 136 -5 94 -32 151 -117 240 -57 61 -81 77 -186 128 -289 141 -655 216
-940 193z"/>
<path d="M65144 61140 c-97 -38 -177 -127 -215 -237 -18 -53 -18 -99 -8 -1501
5 -796 14 -1475 19 -1510 26 -185 154 -307 337 -319 175 -12 325 75 384 223
l24 59 -4 765 c-2 421 -6 1103 -10 1515 l-6 750 -31 66 c-38 79 -88 130 -169
172 -54 28 -70 31 -165 34 -87 3 -114 0 -156 -17z"/>
<path d="M57552 61044 c-188 -30 -434 -105 -572 -174 -31 -15 -107 -65 -170
-110 -721 -516 -1122 -1238 -1087 -1955 19 -366 138 -658 361 -880 259 -258
536 -358 986 -359 422 -1 653 61 941 249 l95 62 21 -31 c45 -67 177 -208 214
-226 65 -34 166 -53 242 -46 138 13 234 73 287 180 40 80 47 151 26 235 -9 34
-16 70 -16 79 0 9 -23 52 -50 95 -28 43 -50 80 -50 83 0 3 -25 47 -55 98 -111
190 -133 258 -159 496 -38 347 -40 413 -41 1155 l0 740 -30 59 c-39 78 -120
160 -188 191 -110 51 -213 67 -447 71 -157 2 -240 -1 -308 -12z m198 -895
c-24 -598 -1 -1160 61 -1459 l20 -95 -43 -38 c-64 -56 -269 -207 -339 -249
-82 -50 -184 -72 -324 -72 -195 0 -337 56 -466 184 -129 127 -172 255 -172
505 0 108 5 163 23 239 69 311 211 583 414 793 106 111 193 180 296 237 75 41
245 113 341 145 60 20 191 51 196 47 1 -1 -2 -108 -7 -237z"/>
<path d="M60905 54190 c-277 -31 -578 -109 -869 -227 -100 -40 -120 -45 -206
-48 -54 -1 -113 -9 -137 -18 -99 -37 -173 -113 -219 -225 l-24 -57 0 -1022 c0
-921 -2 -1023 -16 -1023 -34 0 -128 -57 -169 -102 -51 -57 -75 -120 -75 -199
0 -121 64 -222 200 -315 l70 -48 0 -746 c0 -713 1 -749 19 -803 38 -109 97
-173 209 -225 49 -23 70 -27 152 -27 86 0 101 3 162 32 76 36 151 100 178 153
42 81 42 98 41 788 -2 523 1 662 10 662 7 0 96 -7 198 -16 255 -22 727 -15
916 14 430 67 762 232 1058 527 436 435 601 919 506 1482 -85 505 -438 1016
-854 1236 -300 159 -493 207 -855 212 -118 2 -251 0 -295 -5z m352 -681 c265
-29 522 -165 673 -354 205 -258 273 -645 174 -993 -121 -427 -484 -692 -1053
-767 -201 -27 -528 -15 -761 28 l-65 12 -3 916 -2 916 117 51 c296 127 519
183 801 201 12 0 66 -4 119 -10z"/>
<path d="M54622 54149 c-100 -17 -186 -74 -243 -161 -69 -107 -67 -86 -74
-1043 -5 -780 -9 -1043 -31 -1857 l-7 -257 -130 192 c-433 641 -781 1093
-1676 2177 -506 614 -605 726 -679 767 -82 46 -170 73 -236 73 -122 0 -239
-62 -306 -162 -80 -120 -74 78 -67 -2254 6 -2043 7 -2082 27 -2145 28 -91 71
-151 142 -199 82 -55 151 -74 249 -68 149 9 279 98 331 227 l23 56 -4 1568
c-2 862 -1 1567 2 1567 6 0 467 -579 752 -945 643 -825 1091 -1470 1515 -2183
64 -107 81 -129 139 -172 91 -69 166 -95 266 -95 69 0 89 4 145 31 79 37 145
101 187 180 38 71 45 143 68 634 42 917 54 1434 62 2711 l6 1075 -25 56 c-75
164 -255 258 -436 227z"/>
<path d="M56058 53937 c-74 -31 -129 -76 -167 -135 -63 -98 -58 54 -71 -2134
-7 -1104 -9 -2031 -6 -2061 19 -151 129 -269 289 -311 55 -14 635 -11 1972 13
458 8 483 9 545 30 89 31 142 64 194 122 145 162 75 390 -154 502 l-75 37
-1000 -13 c-550 -7 -1002 -12 -1004 -10 -2 1 1 832 6 1845 l10 1843 -27 60
c-38 85 -107 157 -188 197 -59 29 -76 33 -166 36 -88 2 -108 0 -158 -21z"/>
<path d="M13775 70359 c-3269 -150 -6438 -1379 -8865 -3438 -531 -452 -1103
-1019 -1549 -1540 -1906 -2224 -3090 -5173 -3315 -8261 -31 -427 -38 -696 -33
-1258 5 -544 15 -767 52 -1177 129 -1415 464 -2793 990 -4070 84 -205 172
-401 390 -870 700 -1506 1236 -3216 1580 -5038 503 -2658 643 -5633 445 -9422
-68 -1285 -172 -2686 -346 -4655 -52 -579 -52 -595 1 -703 36 -72 126 -159
202 -195 53 -24 69 -27 173 -27 110 0 119 2 181 32 116 57 196 155 224 274 27
117 225 2464 310 3684 286 4106 236 7192 -161 9950 -354 2458 -964 4569 -1906
6589 -182 390 -242 526 -345 780 -480 1182 -784 2456 -902 3777 -42 466 -46
580 -46 1234 0 633 4 743 40 1180 224 2659 1200 5201 2771 7215 1410 1808
3367 3246 5629 4135 2202 866 4586 1165 6855 859 2081 -280 4059 -1084 5840
-2372 604 -437 1121 -881 1690 -1451 409 -409 670 -699 1010 -1121 1248 -1551
2136 -3316 2599 -5168 83 -331 140 -607 216 -1037 631 -3594 1927 -7003 3850
-10130 95 -154 181 -298 193 -321 54 -106 71 -280 39 -404 -59 -228 -245 -413
-467 -464 -36 -8 -211 -26 -390 -40 -900 -71 -1227 -87 -2360 -114 l-315 -8
-57 -27 c-88 -43 -152 -107 -195 -195 l-38 -76 0 -1225 0 -1226 28 -57 c63
-128 171 -209 323 -243 40 -9 96 -30 125 -48 45 -27 59 -43 87 -97 18 -36 39
-98 47 -138 39 -187 70 -1184 46 -1462 -17 -190 -45 -321 -87 -408 -54 -111
-83 -131 -417 -285 -128 -60 -208 -161 -237 -302 -10 -46 -11 -190 -6 -620 16
-1321 -39 -1789 -264 -2236 -165 -328 -420 -609 -905 -998 -678 -544 -1070
-682 -2080 -731 -291 -14 -1380 -12 -2370 5 -1024 17 -1599 19 -1715 4 -384
-47 -765 -208 -1062 -447 -418 -338 -694 -832 -762 -1363 -9 -72 -17 -258 -21
-504 -20 -1328 -47 -2315 -105 -3916 -14 -380 -17 -562 -10 -598 32 -169 166
-300 342 -332 209 -38 422 98 477 306 10 38 32 563 66 1605 35 1061 51 1700
65 2620 8 511 14 676 26 750 87 523 497 937 1023 1035 110 20 448 20 1701 -1
1034 -17 2336 -14 2585 5 523 41 837 95 1155 200 460 152 820 372 1378 838
778 652 1131 1242 1256 2103 48 328 72 925 61 1531 l-7 386 80 46 c378 218
572 524 646 1017 48 317 50 877 6 1570 -24 371 -77 575 -207 794 -69 115 -230
275 -345 341 l-87 50 -1 751 0 751 308 6 c726 16 2137 108 2362 153 787 160
1299 926 1149 1720 -39 207 -97 341 -261 604 -1912 3072 -3208 6451 -3823
9965 -163 930 -345 1629 -632 2424 -1265 3503 -3931 6485 -7278 8141 -1716
849 -3500 1305 -5435 1390 -265 11 -958 11 -1215 -1z"/>
<path d="M14410 64650 c-1474 -90 -2766 -647 -3722 -1604 -948 -950 -1504
-2197 -1675 -3761 -24 -221 -24 -531 0 -645 124 -591 561 -1034 1140 -1156
178 -37 419 -37 603 2 488 100 906 466 1074 939 46 130 67 239 85 431 39 435
102 750 216 1079 351 1018 1102 1620 2209 1771 179 24 571 29 770 10 499 -47
965 -178 1379 -386 735 -368 1214 -912 1341 -1522 136 -655 -133 -1461 -772
-2313 -313 -418 -386 -489 -996 -977 -402 -322 -567 -459 -769 -641 -1114
-1004 -1741 -2114 -1982 -3507 -76 -444 -115 -1045 -93 -1470 16 -317 49 -457
158 -676 203 -407 596 -697 1059 -781 123 -22 369 -22 495 1 526 94 953 454
1130 951 68 194 71 218 80 685 10 514 29 706 100 1006 101 428 278 789 557
1139 109 138 404 433 588 591 77 66 307 253 510 415 489 392 633 516 861 743
195 196 363 390 578 671 779 1014 1257 2065 1405 3090 41 280 46 364 46 730 0
285 -4 390 -18 505 -98 788 -342 1453 -770 2095 -807 1209 -2202 2106 -3802
2444 -280 60 -607 107 -900 131 -179 15 -709 20 -885 10z"/>
<path d="M14655 48239 c-956 -116 -1803 -832 -2035 -1720 -52 -202 -64 -294
-64 -524 -1 -235 12 -337 69 -560 209 -815 876 -1506 1655 -1714 735 -196
1565 38 2165 611 626 598 851 1416 609 2217 -265 874 -984 1531 -1834 1676
-114 20 -450 28 -565 14z"/>
<path d="M45255 33180 c-1229 -64 -2410 -723 -3229 -1803 -494 -652 -822
-1453 -921 -2247 -34 -277 -36 -481 -25 -2213 13 -2084 24 -2976 70 -5537 56
-3062 64 -3567 81 -4920 6 -481 15 -1554 19 -2385 11 -2148 12 -2163 61 -2545
161 -1262 751 -2216 1714 -2770 436 -252 955 -411 1555 -477 157 -17 360 -18
4138 -17 l3974 1 -5 -21 c-2 -12 -345 -1095 -762 -2408 l-758 -2388 -1157 0
c-1119 0 -1159 -1 -1213 -19 -171 -59 -257 -182 -317 -451 -57 -257 -105 -439
-369 -1375 -49 -176 -112 -407 -140 -514 -28 -106 -53 -196 -56 -199 -5 -5
-2777 8 -5895 28 -1558 11 -8187 53 -10980 70 -6193 38 -13455 70 -16142 70
l-1238 0 0 48 c0 26 -52 2196 -114 4822 -63 2626 -113 4776 -112 4778 2 1 718
-2 1592 -8 874 -7 2257 -10 3074 -8 1605 5 1522 2 1860 59 457 78 950 255
1355 489 1136 656 1889 1780 2060 3078 35 270 39 436 21 1112 -9 355 -30 1212
-46 1905 -129 5427 -121 5149 -146 5365 -81 704 -358 1363 -809 1925 -99 123
-329 361 -453 467 -495 427 -1073 710 -1707 837 -312 63 -325 64 -1115 68
-1224 8 -5556 -18 -7970 -47 -2517 -30 -5622 -84 -5845 -100 -1084 -82 -2063
-636 -2702 -1530 -302 -423 -518 -938 -613 -1464 -47 -264 -54 -364 -52 -856
2 -643 24 -2143 52 -3610 71 -3706 79 -4012 105 -4210 81 -617 282 -1160 620
-1675 621 -945 1636 -1582 2755 -1730 254 -33 378 -35 2209 -35 1558 0 4900
-17 4909 -25 2 -2 232 -9527 232 -9626 l0 -26 -5312 -6 c-3647 -4 -5329 -10
-5363 -17 -185 -39 -322 -196 -333 -381 -11 -189 84 -345 254 -420 l48 -22
8675 -2 c4971 -1 9588 -7 10811 -13 1174 -6 3024 -16 4110 -22 2193 -11 4531
-25 6940 -40 1681 -11 6735 -43 9435 -60 3601 -23 6909 -40 11575 -62 3133
-15 17812 -16 18205 -1 226 8 255 11 300 32 79 35 125 71 172 135 91 123 109
294 45 431 -56 119 -173 210 -297 232 -29 5 -1261 5 -2898 0 -1566 -5 -2850
-7 -2853 -4 -7 7 -47 229 -184 1037 -197 1153 -218 1267 -250 1336 -45 99
-124 175 -230 220 -43 18 -90 19 -1244 24 l-1198 5 -822 2410 -822 2410 880 3
c6659 20 6265 15 6646 78 1210 199 2100 837 2605 1869 246 503 404 1114 459
1780 9 99 18 205 20 235 3 30 10 816 15 1745 14 2382 31 3467 106 6835 79
3527 97 4747 99 6680 1 1057 -2 1416 -12 1515 -70 710 -223 1274 -487 1790
-403 788 -1049 1400 -1870 1773 -525 239 -1105 384 -1780 447 -312 29 -817 34
-4045 39 -3515 6 -4312 10 -11150 61 -3999 30 -4738 35 -6000 40 -707 3 -1370
7 -1475 9 -104 2 -257 0 -340 -4z m1795 -845 c718 -3 1908 -10 2645 -15 737
-6 2560 -19 4050 -30 1491 -10 3027 -22 3415 -25 1967 -16 4430 -28 7440 -35
2195 -6 3378 -12 3460 -19 612 -52 1086 -159 1525 -343 1203 -504 1883 -1534
1984 -3006 14 -192 14 -1429 1 -2687 -17 -1692 -34 -2608 -110 -5995 -60
-2678 -90 -4757 -90 -6251 l0 -786 -902 -6 c-496 -4 -1730 -7 -2742 -7 -2907
0 -9336 -26 -22811 -90 -1149 -5 -2255 -10 -2456 -10 l-366 0 -6 1373 c-10
2009 -21 2816 -97 7002 -46 2553 -57 3442 -70 5518 -11 1734 -9 1896 26 2152
192 1388 1211 2649 2502 3095 381 132 704 181 1132 173 91 -1 752 -5 1470 -8z
m-27279 -7185 c779 -78 1497 -467 1983 -1075 369 -463 585 -1014 625 -1600 6
-83 15 -341 21 -575 6 -234 19 -787 30 -1230 11 -443 36 -1480 55 -2305 19
-825 47 -1959 61 -2520 14 -561 23 -1074 19 -1140 -24 -473 -140 -916 -346
-1328 -167 -334 -352 -590 -624 -862 -240 -241 -455 -406 -730 -560 -392 -220
-768 -341 -1265 -407 -144 -20 -4258 -15 -6660 7 -1053 9 -3110 21 -4570 25
-2899 8 -2701 4 -2998 65 -796 165 -1510 649 -1954 1326 -276 420 -436 864
-492 1359 -18 162 -19 204 -56 2070 -65 3228 -88 4663 -92 5580 -2 362 1 457
15 563 62 460 208 851 457 1224 445 666 1146 1111 1926 1222 203 29 233 30
1119 46 4496 81 7762 114 12096 123 820 1 1314 -2 1380 -8z m51579 -12892 c0
-110 -39 -446 -76 -648 -92 -510 -263 -965 -492 -1310 -442 -664 -1095 -1026
-2057 -1140 -98 -12 -2488 -21 -10435 -40 -8689 -20 -13310 -24 -13485 -11
-1116 82 -1905 564 -2340 1431 -215 428 -331 932 -358 1558 l-4 92 371 0 c204
0 1305 5 2446 10 2263 11 9505 44 13000 60 2945 13 8612 31 10630 33 899 1
1897 3 2218 5 l582 2 0 -42z m-9834 -6383 l822 -2410 -5142 -6 c-2827 -3
-5142 -5 -5143 -5 -2 2 1524 4807 1529 4811 5 5 5774 23 6657 21 l455 -1 822
-2410z m3658 -3287 c4 -18 63 -364 132 -768 69 -404 134 -784 144 -844 11 -60
20 -115 20 -123 0 -24 -7507 -15 -14315 18 -1298 6 -2362 12 -2363 14 -5 5 65
263 208 770 99 352 200 720 250 912 l11 43 2152 3 c1184 1 4763 3 7953 5
l5802 2 6 -32z"/>
<path d="M60655 31059 c-1942 -103 -3742 -1136 -4811 -2759 -306 -465 -540
-955 -735 -1540 -87 -262 -133 -424 -259 -905 -206 -791 -345 -1220 -575
-1775 -196 -473 -526 -1152 -826 -1700 -286 -523 -298 -552 -306 -783 -8 -211
23 -359 114 -542 120 -241 343 -458 587 -571 41 -18 265 -93 498 -166 233 -72
424 -132 425 -132 1 -1 -9 -48 -23 -106 -124 -524 -178 -947 -177 -1395 1
-534 78 -912 262 -1273 243 -476 661 -787 1203 -897 131 -26 242 -38 508 -55
385 -25 709 -94 936 -199 379 -177 530 -441 559 -976 11 -194 -16 -542 -75
-961 -16 -112 -17 -153 -9 -205 28 -181 168 -320 353 -351 171 -28 359 69 436
226 33 66 58 214 99 577 73 641 38 1143 -105 1512 -213 553 -654 916 -1329
1092 -256 67 -505 104 -885 130 -232 16 -338 32 -446 69 -414 141 -619 490
-665 1133 -31 450 69 1140 252 1733 62 202 63 295 3 414 -30 60 -102 138 -161
173 -23 13 -320 111 -660 217 -340 106 -638 203 -662 216 -62 31 -147 119
-176 182 -47 100 -41 121 94 367 480 870 844 1638 1106 2331 164 435 279 810
450 1466 219 841 349 1218 576 1674 287 576 619 1025 1105 1491 1082 1036
2629 1574 4124 1433 894 -84 1748 -391 2538 -911 636 -419 1255 -1014 1765
-1697 182 -245 291 -423 381 -624 404 -899 378 -2026 -84 -3642 -127 -445
-257 -843 -550 -1690 -294 -847 -424 -1255 -556 -1732 -401 -1457 -520 -2691
-363 -3753 90 -614 290 -1203 574 -1701 82 -143 255 -400 309 -461 104 -116
278 -162 433 -115 130 40 241 149 278 275 20 66 19 179 -1 248 -18 61 -35 91
-112 198 -283 395 -497 906 -606 1442 -73 360 -99 647 -99 1079 1 858 162
1787 513 2959 88 296 174 554 430 1296 258 747 356 1043 465 1399 269 883 417
1593 476 2281 17 198 17 762 1 930 -59 579 -178 1011 -403 1465 -140 281 -296
514 -594 888 -437 546 -937 1034 -1460 1425 -1233 922 -2677 1374 -4140 1296z"/>
<path d="M48265 29735 c-489 -80 -935 -409 -1169 -864 -121 -237 -176 -457
-176 -711 0 -367 122 -694 369 -992 184 -222 460 -414 723 -503 l87 -29 -5
-126 c-2 -69 -11 -469 -19 -890 -8 -421 -18 -842 -21 -935 l-6 -171 -81 -18
c-195 -43 -449 -141 -631 -242 -210 -118 -371 -238 -550 -413 -698 -683 -960
-1638 -684 -2500 131 -409 345 -751 669 -1066 335 -326 729 -551 1159 -661 74
-19 136 -36 138 -38 6 -7 -20 -2121 -27 -2127 -3 -3 -50 -23 -105 -44 -509
-199 -904 -688 -997 -1236 -18 -105 -20 -150 -16 -294 6 -181 18 -255 69 -415
174 -543 667 -978 1241 -1092 147 -29 395 -31 537 -4 338 65 629 228 879 492
204 216 349 492 413 788 31 145 32 437 0 579 -109 495 -434 907 -891 1131 -62
30 -150 68 -197 83 l-84 27 0 136 c0 245 21 1965 25 1968 1 2 49 14 106 27
464 105 878 340 1234 699 414 416 667 923 740 1479 19 151 19 422 0 574 -55
425 -234 843 -514 1203 -91 118 -306 337 -424 431 -320 258 -701 445 -1061
520 l-108 23 6 140 c3 78 13 515 21 971 9 457 19 870 23 918 l7 88 96 38 c521
204 903 655 1021 1204 32 149 32 428 -1 577 -69 321 -220 594 -459 828 -220
217 -487 361 -797 433 -120 27 -409 35 -540 14z m387 -844 c252 -65 477 -275
565 -526 24 -70 27 -95 27 -195 0 -103 -3 -124 -31 -202 -92 -261 -305 -463
-557 -528 -96 -24 -183 -25 -279 -4 -221 50 -438 220 -540 425 -58 117 -77
189 -77 299 0 307 237 623 540 718 83 27 98 29 196 31 51 1 108 -6 156 -18z
m112 -5201 c597 -116 1138 -593 1331 -1174 60 -179 70 -249 70 -466 -1 -174
-4 -207 -27 -305 -156 -663 -695 -1199 -1348 -1341 -121 -27 -429 -27 -550 0
-612 132 -1136 594 -1329 1171 -75 224 -95 481 -57 700 89 504 435 987 885
1237 329 182 683 244 1025 178z m-56 -7052 c234 -84 432 -283 509 -513 23 -68
27 -97 27 -195 0 -99 -4 -126 -28 -195 -92 -269 -330 -487 -588 -539 -97 -20
-140 -20 -236 0 -148 31 -270 95 -385 203 -247 233 -312 523 -181 809 98 215
295 386 514 447 88 24 275 15 368 -17z"/>
<path d="M62217 27630 c-574 -66 -1087 -317 -1502 -734 -662 -666 -915 -1581
-671 -2422 119 -407 333 -763 655 -1085 404 -403 872 -649 1412 -740 179 -30
515 -33 688 -6 257 41 479 111 716 227 741 363 1284 1084 1425 1891 27 157 37
441 21 600 -88 849 -647 1632 -1446 2024 -240 118 -471 192 -720 231 -118 18
-466 27 -578 14z m525 -859 c212 -46 460 -156 648 -289 123 -87 345 -309 432
-432 89 -126 190 -323 234 -457 101 -309 97 -630 -12 -944 -119 -341 -362
-664 -665 -882 -108 -77 -338 -195 -453 -232 -170 -54 -268 -69 -456 -69 -199
0 -301 17 -481 80 -597 206 -1067 737 -1176 1327 -23 125 -23 370 0 492 141
733 746 1327 1452 1424 111 15 364 5 477 -18z"/>
<path d="M16690 20780 c-293 -17 -604 -90 -924 -218 -132 -52 -148 -56 -251
-62 -138 -8 -194 -30 -265 -106 -28 -30 -65 -84 -83 -121 l-32 -68 -5 -1024
-5 -1023 -51 -19 c-70 -26 -137 -88 -171 -156 -61 -125 -24 -275 93 -382 31
-28 76 -63 100 -77 l44 -26 0 -732 c0 -625 2 -740 15 -791 32 -122 93 -198
205 -253 50 -24 66 -27 165 -27 105 0 114 2 177 33 87 42 150 106 180 180 l23
57 -4 684 c-3 664 -3 683 15 678 105 -30 797 -43 1009 -19 254 29 458 85 652
177 499 238 907 733 1014 1233 26 126 36 383 20 517 -65 511 -359 1000 -766
1270 -99 66 -339 177 -451 210 -120 35 -241 54 -411 65 -81 5 -152 9 -158 8
-5 0 -66 -4 -135 -8z m321 -696 c309 -52 580 -247 709 -509 83 -169 113 -303
113 -505 0 -314 -98 -558 -301 -751 -146 -140 -298 -224 -514 -283 -210 -58
-315 -71 -558 -70 -210 0 -296 8 -472 40 l-88 16 0 913 0 912 97 43 c404 178
736 241 1014 194z"/>
<path d="M10287 20730 c-110 -28 -201 -103 -250 -208 l-32 -67 -2 -235 c-12
-1232 -39 -2684 -51 -2753 l-7 -38 -135 198 c-312 458 -585 827 -955 1288
-388 484 -928 1140 -1188 1442 -138 160 -140 162 -234 210 l-95 48 -107 0
c-96 0 -112 -3 -162 -28 -70 -34 -142 -109 -177 -185 l-27 -57 1 -2110 c0
-1983 1 -2114 18 -2170 80 -275 425 -363 642 -163 53 49 90 123 102 203 5 35
8 706 5 1585 l-4 1525 26 -30 c46 -54 537 -674 725 -915 639 -821 1059 -1424
1478 -2121 123 -204 155 -239 277 -296 54 -25 71 -28 165 -28 96 0 110 3 159
29 72 37 143 112 180 189 35 71 38 111 66 717 40 883 54 1606 58 2825 l2 880
-28 55 c-65 127 -192 209 -335 216 -42 2 -94 -1 -115 -6z"/>
<path d="M11804 20540 c-107 -21 -203 -99 -256 -208 l-33 -67 -7 -1345 c-5
-740 -7 -1669 -5 -2065 l2 -720 28 -57 c51 -104 142 -173 267 -202 50 -12 114
-13 368 -5 169 5 701 13 1182 18 772 9 881 12 930 26 129 40 219 107 268 200
21 40 26 64 26 121 -1 132 -84 242 -239 314 l-80 37 -340 -8 c-187 -4 -634 -9
-994 -11 l-654 -4 6 1849 7 1848 -27 56 c-83 170 -264 259 -449 223z"/>
<path d="M56702 11500 c-289 -52 -525 -277 -614 -587 -20 -67 -23 -101 -22
-233 0 -139 3 -163 26 -232 41 -123 92 -204 187 -298 103 -101 166 -140 304
-189 102 -36 102 -36 272 -36 166 0 172 1 265 33 133 46 221 101 315 196 146
148 208 305 207 526 0 153 -21 245 -87 375 -107 213 -298 368 -523 426 -90 23
-254 32 -330 19z"/>
<path d="M34245 21533 c-209 -28 -385 -184 -425 -379 -8 -39 -11 -232 -8 -664
l3 -608 -160 -6 c-88 -3 -1850 -19 -3915 -36 -2065 -17 -3796 -34 -3846 -38
-110 -10 -197 -47 -265 -114 -210 -204 -155 -550 108 -680 l67 -33 273 -3
c248 -3 6714 51 7444 62 l306 4 7 -661 c4 -364 12 -693 17 -732 35 -258 291
-443 561 -405 40 6 96 21 125 34 28 14 798 456 1710 983 1806 1044 1743 1004
1807 1131 132 260 27 560 -240 687 -134 63 -539 235 -1071 454 -850 349 -1323
552 -1852 793 -420 192 -430 196 -501 207 -65 11 -89 11 -145 4z"/>
</g>
</svg>
