<svg xmlns="http://www.w3.org/2000/svg" xmlns:xlink="http://www.w3.org/1999/xlink" zoomAndPan="magnify" preserveAspectRatio="xMidYMid meet" version="1.0" viewBox="528.07 260.42 382.93 289.35"><defs><clipPath id="137bf39a15"><path d="M 528.074219 260.417969 L 911 260.417969 L 911 549.765625 L 528.074219 549.765625 Z M 528.074219 260.417969 " clip-rule="nonzero"/></clipPath><clipPath id="215353b569"><path d="M 570.25 287.640625 L 589.125 287.640625 L 589.125 312.113281 L 570.25 312.113281 Z M 570.25 287.640625 " clip-rule="nonzero"/></clipPath><clipPath id="482b60838b"><path d="M 572.234375 291.394531 C 572.59375 308.324219 572.953125 309.882812 574.035156 310.484375 C 575.59375 311.324219 579.675781 310.363281 581.839844 309.523438 C 583.757812 308.683594 585.679688 307.480469 586.761719 305.5625 C 588.082031 303.039062 588.800781 297.636719 587.839844 294.996094 C 587.121094 292.835938 585.078125 291.035156 583.277344 290.074219 C 581.597656 289.234375 579.195312 289.234375 577.515625 288.992188 C 576.074219 288.871094 574.996094 288.390625 573.914062 288.871094 C 572.59375 289.472656 570.792969 292.953125 570.550781 292.835938 C 570.433594 292.714844 571.273438 289.113281 572.714844 288.273438 C 574.875 286.953125 581.238281 288.03125 584 289.113281 C 585.921875 289.953125 587.480469 291.394531 588.320312 292.714844 C 588.921875 293.796875 589.042969 294.875 589.042969 296.4375 C 589.042969 298.957031 588.921875 304.121094 587.480469 306.523438 C 586.28125 308.441406 584.238281 309.761719 582.078125 310.605469 C 579.796875 311.5625 575.957031 312.644531 574.035156 311.683594 C 572.472656 310.964844 571.632812 308.800781 571.03125 306.523438 C 570.074219 302.917969 569.953125 292.59375 571.03125 291.394531 C 571.394531 291.152344 572.234375 291.515625 572.234375 291.515625 " clip-rule="nonzero"/></clipPath><clipPath id="379cd6b17e"><path d="M 594.105469 283.851562 L 616.394531 283.851562 L 616.394531 309.234375 L 594.105469 309.234375 Z M 594.105469 283.851562 " clip-rule="nonzero"/></clipPath><clipPath id="5badddd6bb"><path d="M 594.203125 308.203125 C 598.765625 291.394531 599.605469 289.59375 600.929688 289.714844 C 603.328125 289.953125 608.972656 300.757812 610.652344 304.359375 C 611.492188 306.28125 612.09375 308.683594 611.734375 309.042969 C 611.613281 309.28125 611.011719 309.164062 610.652344 308.800781 C 609.691406 307.363281 610.171875 298.355469 611.132812 294.035156 C 611.855469 290.191406 613.894531 284.671875 615.09375 283.949219 C 615.574219 283.710938 616.296875 284.191406 616.296875 284.191406 C 616.296875 284.191406 615.09375 284.070312 615.09375 284.070312 C 615.09375 284.070312 616.054688 283.949219 616.296875 284.308594 C 616.777344 285.390625 613.054688 290.433594 612.214844 294.15625 C 611.253906 298.476562 612.933594 308.324219 611.734375 309.042969 C 611.375 309.402344 610.652344 308.921875 610.292969 308.441406 C 609.691406 307.84375 610.171875 306.523438 609.574219 305.082031 C 608.25 301.839844 602.730469 290.671875 600.328125 291.035156 C 597.925781 291.394531 596.964844 307.363281 595.40625 308.441406 C 595.046875 308.683594 594.203125 308.203125 594.203125 308.203125 " clip-rule="nonzero"/></clipPath><clipPath id="911e0c4c44"><path d="M 570.226562 441.164062 L 592.121094 441.164062 L 592.121094 468 L 570.226562 468 Z M 570.226562 441.164062 " clip-rule="nonzero"/></clipPath><clipPath id="305174f0ca"><path d="M 573.867188 446.808594 C 571.246094 449.183594 571.121094 453.175781 571.742188 455.925781 C 572.242188 459.171875 573.992188 464.539062 576.238281 466.039062 C 577.988281 467.164062 580.984375 466.789062 582.730469 466.414062 C 583.855469 466.164062 584.480469 465.539062 585.355469 464.664062 C 586.851562 463.167969 588.976562 460.046875 589.847656 457.671875 C 590.472656 455.800781 591.222656 453.800781 590.347656 451.929688 C 589.101562 448.808594 581.484375 444.1875 578.609375 443.0625 C 577.113281 442.4375 575.988281 442.3125 574.988281 442.6875 C 573.992188 443.0625 572.492188 445.1875 572.367188 445.0625 C 572.242188 444.9375 573.867188 441.941406 574.988281 441.441406 C 576.238281 440.941406 577.738281 441.441406 579.484375 442.3125 C 582.730469 443.6875 590.222656 448.683594 591.597656 451.804688 C 592.472656 453.675781 591.722656 455.550781 591.347656 457.171875 C 590.847656 458.921875 590.222656 460.417969 588.976562 462.042969 C 587.601562 463.914062 585.105469 466.914062 582.730469 467.660156 C 580.484375 468.285156 577.113281 467.910156 575.238281 466.539062 C 573.117188 465.039062 571.617188 461.167969 570.871094 458.171875 C 570.121094 455.050781 570.121094 450.554688 570.746094 448.433594 C 570.996094 447.308594 571.742188 446.558594 572.242188 446.183594 C 572.742188 445.808594 573.617188 445.4375 573.867188 445.6875 C 573.992188 445.808594 573.867188 446.808594 573.867188 446.808594 " clip-rule="nonzero"/></clipPath><clipPath id="4e73cdea88"><path d="M 593.671875 445.761719 L 600.203125 445.761719 L 600.203125 467.574219 L 593.671875 467.574219 Z M 593.671875 445.761719 " clip-rule="nonzero"/></clipPath><clipPath id="2791f5fbb7"><path d="M 594.84375 445.808594 C 598.964844 454.175781 600.835938 465.414062 599.960938 467.039062 C 599.714844 467.410156 598.964844 467.535156 598.964844 467.535156 C 598.964844 467.535156 599.960938 467.039062 599.960938 466.914062 C 599.960938 466.914062 599.089844 467.410156 598.714844 467.164062 C 597.464844 466.289062 597.714844 454.675781 596.464844 451.054688 C 595.71875 448.933594 593.59375 447.183594 593.71875 446.433594 C 593.84375 446.058594 594.84375 445.808594 594.84375 445.808594 " clip-rule="nonzero"/></clipPath><clipPath id="a8cff89213"><path d="M 592.441406 445.644531 L 604.882812 445.644531 L 604.882812 450.382812 L 592.441406 450.382812 Z M 592.441406 445.644531 " clip-rule="nonzero"/></clipPath><clipPath id="d5c32ee9c3"><path d="M 592.472656 448.933594 C 604.707031 445.808594 604.707031 446.683594 604.707031 446.683594 C 604.582031 446.808594 604.082031 445.6875 604.082031 445.6875 C 604.082031 445.5625 604.957031 446.183594 604.832031 446.558594 C 604.707031 447.308594 600.710938 448.683594 598.714844 449.308594 C 596.714844 449.804688 593.34375 450.679688 592.722656 450.179688 C 592.347656 449.929688 592.472656 448.933594 592.472656 448.933594 " clip-rule="nonzero"/></clipPath><clipPath id="175c228d44"><path d="M 597.304688 455.394531 L 609.703125 455.394531 L 609.703125 460.957031 L 597.304688 460.957031 Z M 597.304688 455.394531 " clip-rule="nonzero"/></clipPath><clipPath id="310020514f"><path d="M 597.339844 459.796875 C 604.707031 455.925781 608.328125 455.050781 609.203125 455.550781 C 609.578125 455.800781 609.703125 456.671875 609.703125 456.671875 C 609.703125 456.671875 609.203125 455.550781 609.203125 455.550781 C 609.203125 455.550781 609.828125 456.425781 609.578125 456.796875 C 609.078125 457.546875 604.457031 457.171875 602.460938 457.921875 C 600.710938 458.671875 598.589844 461.167969 597.839844 460.917969 C 597.464844 460.792969 597.339844 459.796875 597.339844 459.796875 " clip-rule="nonzero"/></clipPath><clipPath id="998a4ae324"><path d="M 610.886719 446.847656 L 614.9375 446.847656 L 614.9375 466.476562 L 610.886719 466.476562 Z M 610.886719 446.847656 " clip-rule="nonzero"/></clipPath><clipPath id="1bbbef016c"><path d="M 612.449219 447.058594 C 615.570312 466.539062 614.945312 466.664062 614.570312 466.414062 C 613.199219 465.414062 611.574219 455.300781 611.199219 451.804688 C 610.949219 449.679688 610.699219 447.308594 611.199219 446.933594 C 611.449219 446.683594 612.449219 447.058594 612.449219 447.058594 " clip-rule="nonzero"/></clipPath><clipPath id="41b220aa45"><path d="M 613.03125 440.648438 L 621.609375 440.648438 L 621.609375 448.460938 L 613.03125 448.460938 Z M 613.03125 440.648438 " clip-rule="nonzero"/></clipPath><clipPath id="00d081408c"><path d="M 613.074219 447.433594 C 617.816406 442.066406 619.941406 440.441406 620.816406 440.691406 C 621.191406 440.691406 621.5625 441.566406 621.4375 441.566406 C 621.4375 441.566406 620.566406 440.816406 620.566406 440.816406 C 620.566406 440.816406 621.4375 441.191406 621.5625 441.566406 C 621.5625 442.6875 615.070312 448.558594 613.824219 448.433594 C 613.449219 448.308594 613.074219 447.433594 613.074219 447.433594 " clip-rule="nonzero"/></clipPath><clipPath id="86fd27b575"><path d="M 613.140625 454.671875 L 623.011719 454.671875 L 623.011719 458.695312 L 613.140625 458.695312 Z M 613.140625 454.671875 " clip-rule="nonzero"/></clipPath><clipPath id="0ceb13425e"><path d="M 613.449219 457.171875 C 622.8125 454.925781 622.6875 455.925781 622.6875 455.925781 C 622.6875 455.925781 622.5625 454.800781 622.6875 454.675781 C 622.6875 454.675781 623.1875 455.550781 622.9375 455.925781 C 622.5625 456.796875 618.066406 458.171875 616.195312 458.421875 C 615.070312 458.671875 613.449219 458.796875 613.199219 458.421875 C 613.074219 458.171875 613.449219 457.171875 613.449219 457.171875 " clip-rule="nonzero"/></clipPath></defs><g clip-path="url(#137bf39a15)"><path fill="#161616" d="M 657.554688 412.136719 C 657.503906 412.136719 657.554688 412.136719 657.554688 412.136719 Z M 717.09375 416.910156 C 717.09375 416.863281 717.09375 416.863281 717.046875 416.816406 C 717.046875 416.816406 717.046875 416.863281 717.09375 416.910156 C 717.046875 416.910156 717.046875 416.910156 717.09375 416.910156 Z M 680.65625 439.683594 C 680.511719 439.585938 680.320312 439.488281 680.128906 439.488281 C 680.078125 439.488281 680.03125 439.488281 679.984375 439.488281 C 679.695312 439.539062 679.5 439.683594 679.355469 439.875 C 678.105469 441.417969 676.855469 443.011719 675.746094 444.652344 C 674.59375 446.386719 673.675781 448.269531 673.003906 450.246094 C 672.859375 450.730469 673.050781 451.308594 673.582031 451.453125 C 674.0625 451.648438 674.640625 451.355469 674.785156 450.875 C 675.121094 449.863281 675.554688 448.847656 676.035156 447.882812 C 677.382812 445.375 679.117188 443.15625 680.898438 440.984375 C 681.1875 440.597656 681.042969 439.972656 680.65625 439.683594 Z M 694.472656 350.625 C 694.421875 351.15625 694.375 351.636719 694.328125 352.167969 C 694.085938 354 693.605469 355.785156 693.125 357.523438 C 692.980469 358.003906 693.316406 358.585938 693.796875 358.679688 C 694.328125 358.824219 694.808594 358.535156 694.953125 358.003906 C 695.625 355.59375 696.203125 353.132812 696.394531 350.578125 C 696.445312 350.046875 695.914062 349.613281 695.433594 349.613281 C 694.902344 349.660156 694.519531 350.140625 694.472656 350.625 Z M 910.78125 546.542969 C 910.492188 546.976562 909.867188 547.074219 909.433594 546.785156 C 901.78125 541.089844 895.136719 534.289062 888.542969 527.484375 C 886.523438 525.410156 884.546875 523.386719 882.527344 521.359375 C 880.988281 519.816406 879.445312 518.222656 878.003906 516.582031 C 875.164062 513.398438 872.371094 510.070312 869.242188 507.128906 C 867.363281 505.390625 865.296875 503.796875 863.03125 502.59375 C 861.589844 501.820312 860.050781 501.242188 858.460938 500.855469 C 856.921875 500.519531 855.332031 500.371094 853.742188 500.371094 C 853.550781 500.371094 853.359375 500.371094 853.117188 500.421875 C 853.503906 501.046875 853.9375 501.675781 854.320312 502.304688 C 854.464844 502.496094 854.417969 502.832031 854.320312 503.027344 C 854.226562 503.269531 854.03125 503.460938 853.839844 503.558594 C 853.597656 503.652344 853.359375 503.652344 853.117188 503.558594 C 852.972656 503.507812 852.828125 503.414062 852.734375 503.269531 C 852.683594 503.21875 852.636719 503.121094 852.589844 503.074219 C 852.589844 503.074219 852.589844 503.074219 852.589844 503.027344 C 852.589844 503.027344 852.589844 503.027344 852.589844 502.976562 C 852.589844 502.976562 852.589844 502.929688 852.589844 502.929688 C 852.589844 502.882812 852.539062 502.882812 852.539062 502.832031 C 852.539062 502.832031 852.539062 502.832031 852.539062 502.882812 C 852.394531 502.640625 852.203125 502.398438 852.058594 502.109375 C 851 500.519531 849.941406 498.925781 848.929688 497.332031 C 847.871094 495.742188 846.8125 494.148438 845.753906 492.558594 C 843.636719 489.375 841.566406 486.140625 839.449219 482.957031 C 835.261719 476.539062 831.121094 470.125 826.933594 463.707031 C 818.605469 450.875 810.328125 437.992188 801.953125 425.160156 C 797.765625 418.746094 793.527344 412.375 789.292969 406.007812 C 788.234375 404.417969 787.175781 402.871094 786.117188 401.28125 C 785.347656 400.121094 784.578125 398.964844 783.804688 397.808594 C 782.3125 395.585938 780.726562 393.417969 778.753906 391.582031 C 777.691406 390.617188 776.585938 389.796875 775.335938 389.121094 C 774.277344 388.59375 773.21875 388.207031 772.109375 387.917969 C 770.859375 387.628906 769.605469 387.484375 768.355469 387.433594 C 766.960938 387.339844 765.5625 387.339844 764.214844 387.386719 C 761.183594 387.484375 758.152344 387.773438 755.167969 388.253906 C 759.738281 390.761719 764.167969 393.464844 768.308594 396.648438 C 768.742188 396.988281 768.835938 397.515625 768.546875 398 C 768.257812 398.433594 767.632812 398.53125 767.199219 398.242188 C 763.589844 395.441406 759.691406 393.03125 755.746094 390.761719 C 748.910156 386.855469 741.785156 383.476562 735.09375 379.28125 C 731.726562 377.160156 728.5 374.84375 725.46875 372.238281 C 723.878906 370.839844 722.386719 369.390625 720.894531 367.945312 C 719.402344 366.542969 717.910156 365.097656 716.371094 363.699219 C 713.4375 360.996094 710.453125 358.390625 707.324219 355.929688 C 705.734375 354.675781 704.097656 353.519531 702.414062 352.359375 C 701.546875 351.78125 700.726562 351.25 699.8125 350.671875 C 698.996094 350.140625 698.175781 349.660156 697.3125 349.175781 C 695.625 348.355469 693.894531 347.730469 692.066406 347.34375 C 687.875 346.476562 683.542969 346.621094 679.261719 346.863281 C 677.433594 346.957031 675.601562 347.101562 673.773438 347.152344 C 671.800781 347.246094 669.828125 347.246094 667.855469 347.246094 C 663.570312 347.199219 659.285156 347.007812 655.003906 346.8125 C 652.835938 346.714844 650.671875 346.667969 648.503906 346.621094 C 646.433594 346.570312 644.363281 346.476562 642.292969 346.425781 C 638.25 346.28125 634.160156 346.1875 630.117188 346.378906 C 629.011719 346.425781 627.902344 346.523438 626.796875 346.667969 C 626.265625 346.714844 625.738281 346.8125 625.207031 346.863281 C 624.96875 346.910156 624.773438 346.910156 624.535156 346.957031 C 624.535156 347.054688 624.582031 347.101562 624.582031 347.199219 C 624.582031 347.535156 624.582031 347.777344 624.484375 348.117188 C 624.390625 348.40625 624.246094 348.695312 624.050781 348.886719 C 623.523438 349.5625 622.847656 350.046875 622.078125 350.382812 C 620.347656 351.15625 618.46875 351.492188 616.59375 351.6875 C 615.773438 351.78125 614.957031 351.832031 614.136719 351.925781 C 613.125 352.023438 612.164062 352.121094 611.152344 352.167969 C 608.503906 352.3125 605.859375 352.359375 603.257812 351.976562 C 603.257812 351.976562 603.257812 352.023438 603.257812 352.023438 C 603.113281 352.796875 603.113281 353.566406 603.164062 354.339844 C 603.257812 355.0625 603.402344 355.738281 603.597656 356.414062 C 603.789062 356.945312 604.078125 357.425781 604.367188 357.910156 C 604.847656 358.535156 605.375 359.117188 605.953125 359.597656 C 607.011719 360.464844 608.214844 361.140625 609.421875 361.769531 C 610.816406 362.445312 612.261719 362.976562 613.703125 363.503906 C 615.050781 363.988281 616.398438 364.421875 617.746094 364.953125 C 621.261719 366.351562 624.871094 367.414062 628.578125 368.089844 C 633.34375 368.957031 638.203125 369.148438 643.066406 368.765625 C 643.980469 368.667969 644.847656 368.570312 645.710938 368.425781 C 645.664062 368.378906 645.566406 368.28125 645.519531 368.234375 C 645.039062 367.605469 644.703125 366.980469 644.460938 366.207031 C 644.21875 365.433594 644.125 364.664062 644.171875 363.890625 C 644.171875 363.359375 644.652344 362.976562 645.132812 362.976562 C 645.132812 362.976562 645.183594 362.976562 645.183594 362.976562 C 645.710938 362.976562 646.097656 363.457031 646.097656 363.988281 C 646.097656 364.230469 646.097656 364.421875 646.097656 364.664062 C 646.144531 365.050781 646.242188 365.484375 646.339844 365.871094 C 646.484375 366.207031 646.625 366.546875 646.820312 366.835938 C 647.058594 367.171875 647.347656 367.460938 647.636719 367.75 C 648.117188 368.136719 648.648438 368.476562 649.226562 368.765625 C 650.574219 369.390625 652.019531 369.777344 653.460938 370.019531 C 655.097656 370.308594 656.734375 370.453125 658.371094 370.597656 C 659.863281 370.695312 661.402344 370.789062 662.894531 370.886719 C 663.472656 370.933594 664.097656 370.984375 664.675781 371.078125 C 665.734375 371.222656 666.746094 371.417969 667.804688 371.5625 C 670.355469 371.898438 672.957031 372.140625 675.457031 372.816406 C 676.660156 373.105469 677.816406 373.539062 678.925781 374.121094 C 679.453125 374.410156 679.984375 374.746094 680.464844 375.132812 C 680.847656 375.46875 681.28125 375.808594 681.667969 376.144531 C 681.957031 376.386719 682.246094 376.628906 682.582031 376.820312 C 682.582031 376.675781 682.582031 376.53125 682.628906 376.339844 C 682.679688 375.855469 683.0625 375.421875 683.59375 375.421875 C 683.59375 375.421875 683.640625 375.421875 683.640625 375.421875 C 684.121094 375.421875 684.605469 375.902344 684.554688 376.433594 C 684.507812 376.773438 684.507812 377.109375 684.554688 377.449219 C 684.605469 377.832031 684.699219 378.21875 684.84375 378.605469 C 685.035156 379.136719 685.324219 379.617188 685.613281 380.054688 C 686.242188 380.875 686.914062 381.644531 687.589844 382.417969 C 688.308594 383.238281 689.082031 384.058594 689.851562 384.878906 C 691.390625 386.519531 693.027344 388.109375 694.710938 389.558594 C 695.242188 389.992188 695.769531 390.425781 696.300781 390.8125 C 698.082031 392.164062 700.054688 393.320312 701.933594 394.527344 C 703.855469 395.78125 705.734375 397.082031 707.5625 398.480469 C 709.390625 399.929688 711.171875 401.472656 712.664062 403.308594 C 713.386719 404.175781 714.0625 405.089844 714.640625 406.054688 C 714.976562 406.636719 715.265625 407.214844 715.503906 407.792969 C 715.648438 407.695312 715.84375 407.601562 716.035156 407.601562 C 716.324219 407.601562 716.5625 407.695312 716.757812 407.890625 C 717.140625 408.277344 717.046875 408.855469 716.707031 409.242188 C 716.660156 409.289062 716.613281 409.335938 716.515625 409.433594 C 716.371094 409.625 716.277344 409.820312 716.132812 410.011719 C 716.035156 410.300781 715.9375 410.589844 715.84375 410.882812 C 715.746094 411.410156 715.746094 411.941406 715.792969 412.425781 C 715.9375 413.921875 716.417969 415.367188 716.902344 416.816406 C 716.902344 416.765625 716.902344 416.765625 716.851562 416.71875 C 716.851562 416.765625 716.902344 416.816406 716.902344 416.863281 C 716.902344 416.863281 716.902344 416.910156 716.902344 416.910156 C 716.902344 416.910156 716.902344 416.863281 716.902344 416.863281 C 717.429688 418.359375 718.054688 419.757812 718.777344 421.15625 C 719.019531 421.640625 719.308594 422.074219 719.546875 422.507812 C 719.644531 422.507812 719.691406 422.507812 719.789062 422.554688 C 720.03125 422.652344 720.222656 422.796875 720.320312 423.039062 C 720.414062 423.28125 720.414062 423.519531 720.367188 423.761719 C 720.367188 423.761719 720.367188 423.808594 720.320312 423.808594 C 720.75 424.484375 721.183594 425.113281 721.617188 425.738281 C 722.726562 427.285156 723.878906 428.828125 725.082031 430.273438 C 726 431.433594 726.769531 432.6875 727.636719 433.894531 C 728.261719 434.761719 728.886719 435.582031 729.65625 436.257812 C 729.800781 436.402344 729.992188 436.5 730.1875 436.644531 C 730.378906 433.941406 730.523438 431.238281 730.425781 428.539062 C 730.425781 428.34375 730.425781 428.152344 730.378906 427.960938 C 730.378906 427.71875 730.378906 427.476562 730.523438 427.234375 C 730.667969 427.042969 730.90625 426.898438 731.148438 426.847656 C 731.195312 426.847656 731.246094 426.847656 731.292969 426.847656 C 731.484375 426.847656 731.679688 426.898438 731.824219 426.996094 C 732.015625 427.140625 732.207031 427.378906 732.207031 427.621094 C 732.351562 430.273438 732.304688 432.929688 732.109375 435.535156 C 731.917969 438.136719 731.679688 440.695312 731.4375 443.300781 C 731.4375 443.398438 731.4375 443.492188 731.4375 443.589844 C 731.4375 443.636719 731.4375 443.734375 731.4375 443.78125 C 731.4375 443.832031 731.4375 443.929688 731.390625 443.976562 C 731.246094 445.953125 731.148438 447.933594 730.761719 449.863281 C 730.523438 450.972656 730.28125 452.082031 729.800781 453.09375 C 729.558594 453.625 729.269531 454.203125 728.933594 454.6875 C 728.742188 455.023438 728.5 455.363281 728.308594 455.652344 C 731.148438 457 734.132812 458.160156 737.214844 458.835938 C 738.511719 459.125 739.859375 459.316406 741.160156 459.367188 C 741.691406 459.414062 742.074219 459.898438 742.027344 460.378906 C 741.980469 460.910156 741.496094 461.296875 741.015625 461.246094 C 737.839844 461.054688 734.757812 460.28125 731.773438 459.171875 C 728.644531 458.015625 725.613281 456.472656 722.726562 454.734375 C 717.910156 451.839844 713.386719 448.316406 709.246094 444.507812 C 707.082031 442.527344 705.109375 440.40625 703.136719 438.285156 C 701.160156 436.160156 699.1875 434.039062 697.023438 432.058594 C 695.769531 430.902344 694.421875 429.839844 693.027344 428.875 C 691.488281 427.816406 689.898438 426.800781 688.308594 425.789062 C 685.179688 423.859375 681.957031 422.023438 678.683594 420.335938 C 674.738281 418.308594 670.695312 416.476562 666.554688 414.835938 C 663.523438 413.628906 660.441406 412.570312 657.265625 411.847656 C 657.3125 411.847656 657.359375 411.847656 657.410156 411.894531 C 657.359375 411.894531 657.3125 411.847656 657.214844 411.847656 C 657.214844 411.847656 657.167969 411.847656 657.167969 411.847656 C 657.167969 411.847656 657.214844 411.847656 657.214844 411.847656 C 655.867188 411.554688 654.519531 411.363281 653.171875 411.21875 C 653.460938 411.410156 653.703125 411.605469 653.992188 411.75 C 654.714844 412.183594 655.484375 412.570312 656.253906 412.957031 C 657.023438 413.339844 657.792969 413.726562 658.613281 414.160156 C 660.441406 415.125 662.269531 416.089844 663.859375 417.441406 C 664.628906 418.070312 665.351562 418.792969 665.929688 419.613281 C 666.507812 420.433594 666.988281 421.351562 667.226562 422.316406 C 667.515625 423.425781 667.515625 424.582031 667.226562 425.691406 C 666.84375 426.996094 666.074219 428.199219 665.351562 429.359375 C 664.964844 429.890625 664.628906 430.46875 664.292969 431 C 664.050781 431.382812 663.808594 431.820312 663.570312 432.203125 C 662.992188 433.167969 662.460938 434.132812 661.835938 435.097656 C 661.164062 436.113281 660.441406 437.078125 659.621094 437.945312 C 659.238281 438.332031 658.804688 438.71875 658.324219 439.054688 C 657.890625 439.34375 657.410156 439.632812 656.925781 439.875 C 656.398438 440.070312 655.820312 440.261719 655.242188 440.308594 C 655.144531 440.308594 655.097656 440.308594 655.003906 440.308594 C 656.976562 442.867188 659.140625 445.183594 661.5 447.351562 C 663.617188 449.28125 665.832031 451.117188 667.949219 453.046875 C 670.117188 455.023438 672.28125 457.050781 674.351562 459.125 C 678.539062 463.226562 682.628906 467.472656 686.914062 471.476562 C 689.996094 474.320312 693.074219 477.121094 696.15625 479.917969 C 696.203125 479.917969 696.253906 479.917969 696.253906 479.964844 C 696.539062 480.0625 696.734375 480.304688 696.828125 480.542969 C 699.523438 483.003906 702.171875 485.464844 704.773438 487.972656 C 707.515625 490.628906 710.164062 493.328125 712.714844 496.128906 C 715.265625 498.925781 717.816406 501.722656 720.414062 504.523438 C 720.65625 504.761719 720.847656 505.003906 721.089844 505.246094 C 721.328125 505.292969 721.523438 505.390625 721.667969 505.582031 C 721.8125 505.726562 721.859375 505.921875 721.859375 506.113281 C 726.480469 511.132812 731.148438 516.050781 736.105469 520.683594 C 737.019531 521.503906 737.933594 522.324219 738.851562 523.144531 C 749.777344 532.550781 762.339844 539.644531 774.132812 547.84375 C 774.566406 548.132812 774.660156 548.761719 774.371094 549.195312 C 774.082031 549.628906 773.457031 549.726562 773.023438 549.4375 C 770.183594 547.457031 767.296875 545.527344 764.410156 543.648438 C 758.390625 539.738281 752.375 535.878906 746.550781 531.683594 C 743.664062 529.558594 740.773438 527.390625 738.078125 525.027344 C 735.238281 522.613281 732.542969 520.007812 729.898438 517.402344 C 726.527344 514.027344 723.253906 510.503906 719.980469 506.984375 C 719.597656 506.886719 719.257812 506.742188 718.875 506.597656 C 718.296875 506.355469 717.769531 506.113281 717.238281 505.777344 C 716.226562 505.199219 715.265625 504.425781 714.351562 503.703125 C 712.183594 501.917969 710.066406 500.132812 707.949219 498.347656 C 703.808594 494.824219 699.667969 491.253906 695.433594 487.78125 C 695.242188 488.214844 695.046875 488.699219 694.808594 489.132812 C 693.75 491.109375 692.207031 492.894531 690.285156 494.148438 C 689.226562 494.824219 688.117188 495.308594 686.914062 495.644531 C 685.757812 495.933594 684.554688 496.078125 683.402344 495.886719 C 682.292969 495.742188 681.28125 495.402344 680.320312 494.875 C 679.40625 494.390625 678.585938 493.714844 677.867188 492.992188 C 676.277344 491.398438 675.074219 489.421875 673.917969 487.492188 C 672.328125 484.886719 670.742188 482.183594 669.25 479.53125 C 667.710938 476.832031 666.21875 474.175781 664.675781 471.476562 C 664.292969 470.800781 663.859375 470.074219 663.472656 469.402344 C 663.136719 468.773438 662.75 468.195312 662.414062 467.566406 C 661.789062 466.359375 661.210938 465.15625 660.730469 463.851562 C 659.816406 461.390625 659.238281 458.835938 659.046875 456.230469 C 658.851562 453.527344 659.046875 450.875 659.527344 448.222656 C 659.476562 448.171875 659.429688 448.125 659.382812 448.125 C 656.78125 445.617188 654.328125 442.964844 652.257812 440.019531 C 652.210938 439.921875 652.164062 439.828125 652.113281 439.730469 C 651.296875 439.394531 650.527344 438.957031 649.851562 438.476562 C 648.792969 437.800781 647.832031 436.980469 646.867188 436.207031 C 645.855469 435.4375 644.847656 434.664062 643.835938 433.894531 C 643.160156 433.363281 642.535156 432.832031 641.910156 432.253906 C 641.765625 433.941406 641.621094 435.628906 641.523438 437.269531 C 641.234375 443.347656 641.234375 449.378906 641.332031 455.457031 C 641.378906 458.496094 641.429688 461.535156 641.429688 464.578125 C 641.429688 466.070312 641.429688 467.566406 641.429688 469.0625 C 641.429688 469.835938 641.429688 470.605469 641.429688 471.378906 C 641.429688 472.054688 641.429688 472.777344 641.378906 473.453125 C 641.378906 473.695312 641.234375 473.933594 641.042969 474.082031 C 641.089844 474.320312 641.042969 474.609375 640.898438 474.804688 C 640.753906 475.046875 640.5625 475.140625 640.273438 475.191406 C 630.648438 477.941406 620.78125 479.675781 611.007812 481.800781 C 609.226562 482.183594 607.496094 482.570312 605.714844 482.957031 C 603.933594 483.34375 602.152344 483.679688 600.371094 484.066406 C 596.808594 484.789062 593.199219 485.417969 589.636719 486.09375 C 582.464844 487.394531 575.292969 488.601562 568.171875 490.097656 C 564.65625 490.820312 561.140625 491.59375 557.628906 492.507812 C 554.164062 493.425781 550.746094 494.390625 547.28125 495.355469 C 545.546875 495.839844 543.816406 496.320312 542.128906 496.753906 C 540.542969 497.1875 538.953125 497.625 537.363281 497.960938 C 536.691406 498.105469 535.96875 498.296875 535.246094 498.347656 C 535.152344 498.394531 535.007812 498.441406 534.910156 498.539062 C 534.621094 498.683594 534.234375 498.636719 533.996094 498.441406 C 533.707031 498.441406 533.417969 498.441406 533.128906 498.441406 C 532.40625 498.394531 531.636719 498.25 530.964844 497.914062 C 530.289062 497.625 529.664062 497.238281 529.085938 496.753906 C 528.894531 496.5625 528.75 496.417969 528.699219 496.128906 C 528.652344 495.886719 528.699219 495.597656 528.84375 495.402344 C 528.84375 495.402344 528.84375 495.402344 528.894531 495.355469 C 528.84375 495.210938 528.84375 495.066406 528.796875 494.875 C 528.75 494.535156 528.75 494.199219 528.796875 493.8125 C 528.796875 492.605469 528.84375 491.351562 528.84375 490.144531 C 528.84375 487.828125 528.796875 485.515625 528.75 483.199219 C 528.605469 478.566406 528.410156 473.933594 528.21875 469.253906 C 528.171875 467.230469 528.074219 465.25 528.074219 463.226562 C 528.410156 461.730469 528.410156 459.898438 528.410156 458.015625 C 528.410156 454.105469 528.410156 450.199219 528.410156 446.242188 C 528.410156 438.429688 528.460938 430.5625 528.507812 422.75 C 528.605469 407.117188 528.796875 391.4375 529.039062 375.808594 C 529.277344 360.320312 529.519531 344.835938 529.953125 329.347656 C 530.386719 314.152344 530.820312 298.90625 529.953125 283.710938 C 529.808594 281.492188 529.664062 279.320312 529.472656 277.101562 C 529.328125 275.363281 529.183594 273.628906 528.894531 271.890625 C 528.796875 271.3125 528.699219 270.734375 528.652344 270.105469 C 528.605469 269.671875 528.605469 269.285156 528.699219 268.851562 C 528.75 268.609375 528.796875 268.417969 528.894531 268.175781 C 528.941406 268.03125 529.039062 267.839844 529.183594 267.695312 C 529.421875 267.355469 529.757812 267.066406 530.097656 266.824219 C 530.578125 266.488281 531.058594 266.246094 531.589844 266.003906 C 532.117188 265.765625 532.695312 265.570312 533.273438 265.378906 C 534.523438 265.039062 535.777344 264.800781 537.074219 264.605469 C 540.011719 264.21875 542.996094 264.125 545.980469 264.125 C 548.917969 264.125 551.804688 264.21875 554.742188 264.21875 C 556.425781 264.171875 558.15625 264.074219 559.84375 264.027344 C 561.71875 263.929688 563.597656 263.835938 565.472656 263.785156 C 573.273438 263.449219 581.117188 263.109375 588.914062 262.871094 C 592.8125 262.722656 596.761719 262.578125 600.660156 262.484375 C 602.679688 262.433594 604.75 262.339844 606.773438 262.289062 C 608.265625 262.242188 609.757812 262.242188 611.25 262.144531 C 615.242188 261.90625 619.191406 261.375 623.136719 260.988281 C 625.160156 260.792969 627.179688 260.648438 629.203125 260.554688 C 629.972656 260.457031 630.695312 260.457031 631.464844 260.457031 C 632.667969 260.457031 633.871094 260.503906 635.027344 260.601562 C 635.941406 260.699219 636.855469 260.84375 637.820312 261.035156 C 638.589844 261.179688 639.40625 261.375 640.175781 261.664062 C 641.140625 262.050781 641.957031 262.578125 642.679688 263.351562 C 643.402344 264.125 643.980469 265.039062 644.363281 265.957031 C 644.847656 267.066406 645.183594 268.222656 645.421875 269.382812 C 645.808594 271.359375 645.953125 273.386719 646 275.414062 C 646.050781 277.632812 645.953125 279.851562 645.761719 282.070312 C 645.421875 286.171875 644.847656 290.273438 644.363281 294.371094 C 644.269531 295.144531 644.171875 295.964844 644.074219 296.734375 C 643.980469 297.652344 643.929688 298.617188 643.882812 299.535156 C 643.640625 303.007812 643.402344 306.480469 643.210938 309.953125 C 642.824219 317.09375 642.632812 324.234375 643.015625 331.375 C 643.257812 335.8125 643.785156 340.203125 644.652344 344.546875 C 646.195312 344.59375 647.734375 344.640625 649.273438 344.691406 C 653.847656 344.785156 658.371094 344.980469 662.945312 345.171875 C 665.207031 345.269531 667.515625 345.316406 669.777344 345.316406 C 671.753906 345.316406 673.675781 345.269531 675.652344 345.125 C 675.554688 345.125 675.507812 345.125 675.410156 345.125 C 678.394531 344.933594 681.378906 344.738281 684.363281 344.738281 C 686.335938 344.738281 688.359375 344.785156 690.332031 345.078125 C 692.257812 345.367188 694.183594 345.75 696.011719 346.476562 C 696.972656 346.863281 697.886719 347.246094 698.804688 347.777344 C 699.71875 348.261719 700.582031 348.792969 701.449219 349.371094 C 703.230469 350.480469 704.964844 351.6875 706.695312 352.941406 C 710.066406 355.449219 713.242188 358.152344 716.324219 360.949219 C 717.863281 362.347656 719.402344 363.796875 720.945312 365.242188 C 722.484375 366.691406 724.023438 368.183594 725.566406 369.585938 C 726.382812 370.355469 727.25 371.078125 728.117188 371.804688 C 734.277344 376.820312 741.207031 380.632812 748.1875 384.394531 C 749.632812 385.167969 751.074219 385.9375 752.519531 386.710938 C 752.566406 386.710938 752.617188 386.664062 752.664062 386.664062 C 755.214844 386.179688 757.765625 385.84375 760.367188 385.648438 C 762.097656 385.503906 763.878906 385.410156 765.660156 385.410156 C 766.574219 385.410156 767.488281 385.457031 768.402344 385.503906 C 770.808594 385.648438 773.21875 386.035156 775.382812 387.046875 C 776.441406 387.53125 777.40625 388.109375 778.320312 388.785156 C 779.234375 389.460938 780.101562 390.234375 780.871094 391.054688 C 782.796875 393.03125 784.382812 395.296875 785.875 397.566406 C 787.800781 400.410156 789.679688 403.257812 791.605469 406.152344 C 795.839844 412.519531 800.074219 418.890625 804.261719 425.304688 C 812.636719 438.136719 820.917969 450.972656 829.242188 463.851562 C 833.382812 470.269531 837.570312 476.683594 841.757812 483.101562 C 843.828125 486.285156 845.945312 489.519531 848.0625 492.703125 C 849.121094 494.292969 850.179688 495.886719 851.242188 497.476562 C 851.480469 497.863281 851.722656 498.203125 851.960938 498.589844 C 851.960938 498.589844 851.960938 498.589844 852.011719 498.589844 C 852.78125 498.492188 853.550781 498.441406 854.371094 498.441406 C 854.898438 498.441406 855.476562 498.441406 856.003906 498.492188 C 857.210938 498.589844 858.414062 498.828125 859.566406 499.117188 C 863.5625 500.179688 867.027344 502.542969 870.0625 505.246094 C 873.285156 508.140625 876.078125 511.46875 878.964844 514.703125 C 880.359375 516.292969 881.804688 517.886719 883.34375 519.429688 C 885.367188 521.40625 887.339844 523.433594 889.3125 525.460938 C 893.308594 529.511719 897.253906 533.613281 901.441406 537.519531 C 904.378906 540.222656 907.410156 542.828125 910.589844 545.191406 C 910.972656 545.527344 911.070312 546.109375 910.78125 546.542969 Z M 696.347656 486.140625 C 700.296875 489.324219 704.097656 492.605469 707.949219 495.886719 C 709.875 497.527344 711.800781 499.167969 713.722656 500.808594 C 714.542969 501.484375 715.359375 502.15625 716.179688 502.832031 C 715.648438 502.253906 715.070312 501.628906 714.542969 501.046875 C 711.992188 498.25 709.441406 495.453125 706.746094 492.75 C 704.097656 490.097656 701.355469 487.492188 698.609375 484.886719 C 697.984375 484.308594 697.359375 483.730469 696.734375 483.148438 C 696.636719 484.066406 696.589844 485.03125 696.394531 485.949219 C 696.394531 485.996094 696.394531 486.042969 696.347656 486.140625 Z M 683.738281 492.703125 C 683.6875 492.027344 683.59375 491.351562 683.402344 490.722656 C 683.113281 489.757812 682.628906 488.84375 682.101562 487.925781 C 681.332031 486.769531 680.464844 485.660156 679.453125 484.742188 C 678.492188 483.875 677.480469 483.148438 676.371094 482.523438 C 675.652344 482.183594 674.929688 481.847656 674.109375 481.65625 C 673.628906 481.558594 673.195312 481.507812 672.714844 481.507812 C 673.917969 483.585938 675.121094 485.660156 676.421875 487.683594 C 676.421875 487.683594 676.421875 487.683594 676.421875 487.636719 C 677.433594 489.277344 678.539062 490.917969 679.933594 492.21875 C 680.511719 492.703125 681.089844 493.183594 681.765625 493.523438 C 682.246094 493.761719 682.773438 493.957031 683.257812 494.101562 C 683.402344 494.148438 683.496094 494.148438 683.640625 494.148438 C 683.640625 494.101562 683.640625 494.101562 683.640625 494.054688 C 683.6875 493.667969 683.738281 493.183594 683.738281 492.703125 Z M 661.257812 455.21875 C 661.355469 457.4375 661.691406 459.65625 662.316406 461.828125 C 662.992188 463.949219 663.90625 466.023438 665.011719 467.953125 C 666.265625 470.125 667.515625 472.296875 668.769531 474.515625 C 669.730469 476.25 670.691406 477.941406 671.703125 479.675781 C 671.703125 479.675781 671.753906 479.675781 671.753906 479.675781 C 671.800781 479.675781 671.898438 479.675781 671.945312 479.675781 C 672.183594 479.675781 672.425781 479.628906 672.667969 479.628906 C 673.339844 479.628906 674.015625 479.726562 674.6875 479.871094 C 675.554688 480.0625 676.421875 480.398438 677.191406 480.835938 C 679.019531 481.800781 680.65625 483.101562 682.003906 484.644531 C 682.679688 485.417969 683.304688 486.285156 683.832031 487.152344 C 684.316406 487.972656 684.75 488.84375 685.035156 489.757812 C 685.324219 490.628906 685.566406 491.542969 685.613281 492.507812 C 685.613281 492.992188 685.613281 493.472656 685.566406 493.957031 C 685.566406 494.054688 685.519531 494.199219 685.519531 494.292969 C 686.097656 494.246094 686.671875 494.101562 687.203125 493.957031 C 687.972656 493.714844 688.742188 493.378906 689.464844 492.945312 C 690.285156 492.414062 691.003906 491.832031 691.679688 491.109375 C 692.402344 490.289062 693.027344 489.421875 693.554688 488.457031 C 693.941406 487.683594 694.277344 486.863281 694.519531 485.996094 C 694.710938 485.128906 694.761719 484.308594 694.808594 483.441406 C 694.855469 482.859375 694.953125 482.234375 695.097656 481.65625 C 693.699219 480.398438 692.304688 479.097656 690.910156 477.84375 C 688.308594 475.480469 685.757812 473.164062 683.207031 470.75 C 678.203125 465.925781 673.4375 460.910156 668.382812 456.183594 C 666.890625 454.832031 665.398438 453.480469 663.859375 452.175781 C 663.089844 451.503906 662.316406 450.828125 661.546875 450.152344 C 661.308594 451.792969 661.210938 453.480469 661.257812 455.21875 Z M 728.742188 451.453125 C 728.695312 451.453125 728.644531 451.40625 728.597656 451.40625 C 728.164062 451.164062 727.730469 450.921875 727.296875 450.730469 C 725.757812 449.957031 724.167969 449.28125 722.53125 448.898438 C 722.003906 448.800781 721.523438 448.703125 720.992188 448.65625 C 720.511719 448.609375 720.03125 448.558594 719.546875 448.558594 C 718.730469 448.511719 717.910156 448.414062 717.140625 448.414062 C 717.046875 448.414062 716.949219 448.414062 716.851562 448.460938 C 720.03125 450.921875 723.398438 453.140625 726.960938 455.070312 C 727.152344 454.78125 727.347656 454.445312 727.539062 454.15625 C 727.730469 453.816406 727.921875 453.527344 728.117188 453.191406 C 728.355469 452.5625 728.550781 452.03125 728.742188 451.453125 Z M 729.65625 445.617188 C 729.078125 445.808594 728.453125 445.859375 727.875 445.808594 C 726.914062 445.761719 726 445.472656 725.132812 445.039062 C 725.082031 445.859375 724.9375 446.679688 724.792969 447.496094 C 725.132812 447.59375 725.421875 447.738281 725.710938 447.835938 C 726.863281 448.316406 728.019531 448.898438 729.125 449.476562 C 729.414062 448.269531 729.558594 446.917969 729.65625 445.617188 Z M 725.855469 439.007812 C 724.9375 439.632812 724.023438 440.164062 723.109375 440.742188 C 722.386719 441.179688 721.761719 441.707031 721.039062 442.144531 C 720.414062 442.578125 719.742188 443.011719 719.019531 443.347656 C 718.25 443.6875 717.480469 443.929688 716.707031 444.023438 C 715.9375 444.167969 715.167969 444.3125 714.445312 444.554688 C 713.917969 444.746094 713.433594 444.941406 712.90625 445.132812 C 713.578125 445.714844 714.300781 446.339844 715.023438 446.917969 C 715.457031 446.679688 715.988281 446.53125 716.46875 446.484375 C 716.804688 446.4375 717.191406 446.4375 717.527344 446.4375 C 717.765625 446.4375 718.007812 446.4375 718.25 446.4375 C 718.777344 446.484375 719.308594 446.53125 719.835938 446.582031 C 720.511719 446.628906 721.136719 446.679688 721.8125 446.773438 C 722.195312 446.824219 722.628906 446.917969 723.015625 447.015625 C 723.160156 446.050781 723.304688 445.085938 723.304688 444.074219 C 723.253906 443.636719 723.207031 443.203125 723.109375 442.816406 C 723.0625 442.625 722.964844 442.433594 722.871094 442.238281 C 722.675781 441.757812 722.871094 441.179688 723.351562 440.984375 C 723.496094 440.9375 723.589844 440.886719 723.734375 440.886719 C 724.121094 440.886719 724.457031 441.082031 724.601562 441.417969 C 724.792969 441.851562 724.9375 442.335938 725.082031 442.816406 C 725.277344 442.816406 725.421875 442.867188 725.566406 442.964844 C 725.757812 443.109375 726 443.253906 726.191406 443.398438 C 726.527344 443.589844 726.914062 443.6875 727.296875 443.78125 C 727.632812 443.832031 728.019531 443.878906 728.355469 443.878906 C 728.644531 443.878906 728.886719 443.832031 729.175781 443.734375 C 729.367188 443.6875 729.558594 443.589844 729.753906 443.492188 C 729.800781 443.445312 729.847656 443.398438 729.898438 443.398438 C 729.992188 442.289062 730.089844 441.128906 730.1875 440.019531 C 730.234375 439.632812 730.234375 439.25 730.28125 438.8125 C 729.609375 438.523438 729.03125 438.136719 728.5 437.65625 C 728.308594 437.511719 728.164062 437.320312 728.019531 437.171875 C 727.347656 437.898438 726.625 438.476562 725.855469 439.007812 Z M 718.875 424.824219 C 716.371094 425.644531 713.820312 426.222656 711.269531 426.65625 C 708.71875 427.089844 706.121094 427.429688 703.519531 427.523438 C 702.894531 427.574219 702.316406 427.574219 701.691406 427.574219 C 701.210938 427.574219 700.679688 427.574219 700.199219 427.523438 C 699.1875 427.378906 698.273438 427.089844 697.40625 426.558594 C 697.359375 426.558594 697.359375 426.511719 697.3125 426.511719 C 696.878906 426.945312 696.445312 427.332031 695.867188 427.621094 C 695.578125 427.765625 695.289062 427.910156 694.953125 428.007812 C 695.144531 428.152344 695.386719 428.296875 695.578125 428.488281 C 696.78125 429.40625 697.886719 430.371094 698.996094 431.382812 C 701.160156 433.363281 703.136719 435.535156 705.109375 437.65625 C 707.035156 439.730469 709.007812 441.757812 711.078125 443.6875 C 711.171875 443.734375 711.222656 443.832031 711.316406 443.878906 C 712.28125 443.398438 713.242188 443.011719 714.253906 442.722656 C 714.785156 442.578125 715.3125 442.433594 715.84375 442.335938 C 716.371094 442.238281 716.851562 442.191406 717.382812 442.046875 C 718.054688 441.804688 718.683594 441.515625 719.308594 441.128906 C 720.078125 440.597656 720.847656 440.019531 721.617188 439.539062 C 722.4375 439.007812 723.253906 438.523438 724.121094 437.992188 C 725.035156 437.414062 725.902344 436.738281 726.625 435.96875 C 726.671875 435.917969 726.71875 435.871094 726.769531 435.824219 C 726.046875 434.859375 725.421875 433.84375 724.746094 432.832031 C 724.074219 431.867188 723.304688 431 722.582031 430.035156 C 721.714844 428.925781 720.894531 427.816406 720.125 426.65625 C 719.644531 426.03125 719.257812 425.402344 718.875 424.824219 Z M 693.554688 391.292969 C 690.285156 390.90625 686.960938 390.667969 683.6875 390.8125 C 681.714844 390.90625 679.695312 391.199219 677.816406 391.824219 C 676.855469 392.164062 675.890625 392.546875 675.023438 393.128906 C 674.207031 393.65625 673.53125 394.285156 672.859375 395.007812 C 672.089844 395.878906 671.464844 396.792969 670.933594 397.808594 C 670.261719 399.15625 669.777344 400.652344 669.441406 402.148438 C 669.105469 403.835938 668.914062 405.574219 668.863281 407.261719 C 668.769531 409.386719 668.71875 411.554688 668.71875 413.679688 C 668.71875 413.726562 668.71875 413.824219 668.671875 413.871094 C 673.773438 415.945312 678.78125 418.359375 683.59375 421.011719 C 684.988281 421.785156 686.335938 422.554688 687.683594 423.328125 C 687.539062 423.136719 687.445312 422.894531 687.300781 422.699219 C 686.480469 421.300781 685.710938 419.855469 685.035156 418.40625 C 684.507812 417.34375 684.027344 416.234375 683.449219 415.222656 C 683.304688 415.03125 683.351562 414.691406 683.402344 414.5 C 683.496094 414.257812 683.640625 414.066406 683.882812 413.96875 C 684.027344 413.921875 684.171875 413.871094 684.265625 413.871094 C 684.363281 413.871094 684.507812 413.871094 684.605469 413.921875 C 684.84375 414.015625 684.988281 414.160156 685.132812 414.402344 C 685.421875 414.886719 685.664062 415.367188 685.902344 415.898438 C 686.242188 416.574219 686.578125 417.25 686.914062 417.925781 C 687.636719 419.421875 688.40625 420.914062 689.320312 422.316406 C 689.996094 423.328125 690.667969 424.292969 691.582031 425.160156 C 691.921875 425.449219 692.304688 425.738281 692.691406 425.980469 C 692.929688 426.078125 693.171875 426.175781 693.414062 426.222656 C 693.605469 426.269531 693.796875 426.269531 693.988281 426.269531 C 694.183594 426.269531 694.328125 426.222656 694.519531 426.175781 C 694.761719 426.078125 695 425.980469 695.191406 425.835938 C 695.433594 425.691406 695.625 425.5 695.820312 425.304688 C 694.953125 424.4375 694.230469 423.375 693.605469 422.316406 C 692.640625 420.722656 691.824219 418.984375 690.8125 417.394531 C 690.667969 417.199219 690.574219 417.007812 690.429688 416.816406 C 690.285156 416.621094 690.1875 416.378906 690.1875 416.140625 C 690.1875 415.898438 690.332031 415.65625 690.523438 415.464844 C 690.714844 415.320312 690.910156 415.222656 691.148438 415.222656 C 691.4375 415.222656 691.679688 415.320312 691.871094 415.5625 C 693.316406 417.539062 694.277344 419.855469 695.578125 421.929688 C 696.109375 422.75 696.734375 423.570312 697.457031 424.246094 C 697.839844 424.582031 698.273438 424.917969 698.753906 425.160156 C 699.140625 425.355469 699.523438 425.5 699.957031 425.59375 C 700.535156 425.691406 701.160156 425.738281 701.738281 425.738281 C 702.414062 425.738281 703.136719 425.691406 703.808594 425.691406 C 706.359375 425.546875 708.910156 425.210938 711.414062 424.773438 C 713.578125 424.390625 715.746094 423.859375 717.910156 423.230469 C 717.238281 422.074219 716.613281 420.867188 716.132812 419.613281 C 715.746094 418.648438 715.359375 417.683594 715.023438 416.71875 C 714.6875 415.753906 714.398438 414.742188 714.207031 413.726562 C 714.011719 412.664062 713.964844 411.554688 714.207031 410.496094 C 714.253906 410.253906 714.300781 410.011719 714.398438 409.820312 C 714.351562 409.722656 714.300781 409.675781 714.300781 409.578125 C 714.300781 409.53125 714.253906 409.433594 714.253906 409.386719 C 713.820312 408.277344 713.242188 407.214844 712.570312 406.25 C 711.222656 404.367188 709.632812 402.726562 707.851562 401.230469 C 706.503906 400.074219 705.058594 399.011719 703.617188 398 C 701.835938 396.792969 700.054688 395.636719 698.226562 394.476562 C 697.167969 393.800781 696.15625 393.128906 695.144531 392.355469 C 694.761719 392.066406 694.375 391.726562 694.039062 391.4375 C 693.796875 391.292969 693.699219 391.292969 693.554688 391.292969 Z M 642.96875 399.6875 C 643.066406 401.714844 643.257812 403.742188 643.402344 405.765625 C 643.546875 407.648438 643.640625 409.578125 643.59375 411.460938 C 644.363281 410.976562 645.230469 410.640625 646.097656 410.351562 C 647.203125 410.011719 648.359375 409.769531 649.515625 409.625 C 650.238281 409.578125 650.910156 409.53125 651.632812 409.53125 C 652.113281 409.53125 652.644531 409.53125 653.125 409.578125 C 655.578125 409.722656 657.984375 410.207031 660.394531 410.882812 C 662.558594 411.460938 664.726562 412.230469 666.84375 413.050781 C 666.84375 411.410156 666.890625 409.820312 666.9375 408.179688 C 666.988281 406.828125 667.035156 405.429688 667.226562 404.078125 C 667.566406 401.425781 668.191406 398.820312 669.488281 396.457031 C 670.644531 394.382812 672.328125 392.5 674.351562 391.246094 C 676.230469 390.136719 678.394531 389.507812 680.511719 389.171875 C 682.292969 388.882812 684.074219 388.785156 685.855469 388.785156 C 687.78125 388.785156 689.65625 388.929688 691.582031 389.074219 C 689.609375 387.191406 687.734375 385.214844 685.953125 383.1875 C 685.519531 382.660156 685.035156 382.175781 684.605469 381.644531 C 684.21875 381.164062 683.832031 380.632812 683.542969 380.054688 C 683.351562 379.714844 683.207031 379.328125 683.0625 378.945312 C 682.4375 378.703125 681.8125 378.363281 681.28125 377.980469 C 680.753906 377.542969 680.222656 377.109375 679.695312 376.675781 C 679.40625 376.433594 679.117188 376.195312 678.78125 375.953125 C 678.492188 375.757812 678.203125 375.613281 677.914062 375.46875 C 676.371094 374.746094 674.6875 374.359375 673.003906 374.023438 C 671.367188 373.734375 669.683594 373.539062 668.046875 373.300781 C 667.277344 373.203125 666.503906 373.105469 665.734375 372.960938 C 665.253906 372.863281 664.820312 372.816406 664.339844 372.71875 C 662.558594 372.480469 660.730469 372.429688 658.902344 372.335938 C 657.214844 372.238281 655.578125 372.09375 653.941406 371.804688 C 652.355469 371.5625 650.71875 371.226562 649.179688 370.550781 C 648.695312 370.355469 648.214844 370.113281 647.78125 369.875 C 647.734375 369.875 647.734375 369.875 647.6875 369.921875 C 646.242188 370.164062 644.796875 370.355469 643.355469 370.453125 C 643.5 375.277344 643.257812 380.101562 643.113281 384.925781 C 642.921875 389.941406 642.726562 394.816406 642.96875 399.6875 Z M 642.199219 414.933594 C 641.71875 415.511719 641.332031 416.089844 640.945312 416.765625 C 640.515625 417.636719 640.226562 418.503906 640.03125 419.421875 C 639.792969 420.578125 639.695312 421.734375 639.742188 422.894531 C 639.792969 424.050781 639.984375 425.210938 640.320312 426.320312 C 640.609375 427.1875 640.996094 428.054688 641.476562 428.828125 C 642.101562 429.792969 642.871094 430.613281 643.691406 431.382812 C 645.085938 432.640625 646.675781 433.699219 648.117188 434.90625 C 649.515625 436.015625 650.910156 437.171875 652.5 437.992188 C 653.027344 438.285156 653.605469 438.476562 654.183594 438.621094 C 654.519531 438.667969 654.808594 438.71875 655.144531 438.71875 C 655.433594 438.71875 655.675781 438.621094 655.964844 438.574219 C 656.351562 438.429688 656.734375 438.285156 657.070312 438.042969 C 657.699219 437.609375 658.226562 437.125 658.757812 436.59375 C 660.007812 435.148438 661.019531 433.507812 661.980469 431.820312 C 662.414062 431.046875 662.847656 430.273438 663.328125 429.550781 C 663.953125 428.632812 664.53125 427.71875 665.0625 426.753906 C 665.300781 426.222656 665.542969 425.691406 665.6875 425.160156 C 665.734375 424.871094 665.785156 424.582031 665.785156 424.246094 C 665.734375 423.761719 665.6875 423.328125 665.542969 422.894531 C 665.351562 422.410156 665.15625 421.929688 664.871094 421.496094 C 664.4375 420.820312 663.90625 420.238281 663.328125 419.710938 C 661.5 418.070312 659.285156 416.910156 657.121094 415.800781 C 657.167969 415.800781 657.167969 415.851562 657.214844 415.851562 C 656.109375 415.269531 655 414.742188 653.894531 414.160156 C 653.414062 413.871094 652.882812 413.628906 652.449219 413.292969 C 651.777344 412.8125 651.199219 412.230469 650.476562 411.847656 C 650.429688 411.847656 650.429688 411.847656 650.382812 411.796875 C 650.285156 411.75 650.140625 411.699219 650.042969 411.605469 C 648.9375 411.699219 647.832031 411.894531 646.769531 412.183594 C 645.808594 412.472656 644.941406 412.90625 644.074219 413.390625 C 643.5 413.777344 642.824219 414.304688 642.199219 414.933594 Z M 607.011719 362.589844 C 607.109375 362.734375 607.15625 362.878906 607.15625 363.070312 C 607.15625 363.410156 607.207031 363.796875 607.207031 364.132812 C 607.300781 365.195312 607.496094 366.304688 607.589844 367.363281 C 607.6875 368.183594 607.6875 369.003906 607.640625 369.824219 C 608.359375 369.777344 609.082031 369.777344 609.757812 369.777344 C 610.625 369.777344 611.539062 369.777344 612.402344 369.824219 C 613.175781 369.824219 613.945312 369.875 614.714844 369.875 C 614.761719 369.148438 614.714844 368.425781 614.667969 367.703125 C 614.617188 367.21875 614.570312 366.738281 614.523438 366.304688 C 614.523438 366.109375 614.523438 365.964844 614.570312 365.820312 C 614.378906 365.773438 614.183594 365.675781 613.992188 365.628906 C 611.777344 364.855469 609.613281 364.085938 607.542969 362.976562 C 607.351562 362.78125 607.15625 362.683594 607.011719 362.589844 Z M 606.964844 371.804688 C 602.054688 374.167969 597.242188 376.867188 592.667969 379.910156 C 592.476562 380.003906 592.238281 380.054688 591.996094 380.003906 C 591.949219 384.734375 591.949219 389.460938 591.707031 394.140625 C 592.71875 393.851562 593.777344 393.609375 594.789062 393.464844 C 595.941406 393.273438 597.097656 393.175781 598.300781 393.128906 C 598.445312 389.027344 598.6875 384.925781 598.976562 380.875 C 598.832031 380.4375 599.023438 380.003906 599.457031 379.765625 C 602.105469 378.21875 604.75 376.628906 607.351562 374.988281 C 608.648438 374.214844 609.949219 373.445312 611.199219 372.625 C 611.730469 372.335938 612.210938 371.996094 612.742188 371.707031 C 612.546875 371.707031 612.402344 371.707031 612.210938 371.707031 C 610.527344 371.660156 608.792969 371.660156 606.964844 371.804688 C 607.011719 371.753906 607.011719 371.804688 606.964844 371.804688 Z M 599.890625 362.683594 C 597.484375 363.601562 595.027344 364.566406 592.476562 364.953125 C 592.523438 365.289062 592.523438 365.628906 592.523438 365.917969 C 592.574219 367.171875 592.523438 368.425781 592.476562 369.679688 C 592.429688 370.933594 592.332031 372.140625 592.238281 373.394531 C 592.140625 374.84375 592.09375 376.289062 592.09375 377.738281 C 592.09375 377.832031 592.09375 377.929688 592.09375 378.027344 C 596.425781 375.132812 600.949219 372.625 605.617188 370.355469 C 605.761719 369.488281 605.761719 368.570312 605.664062 367.703125 C 605.519531 366.160156 605.230469 364.566406 605.230469 363.023438 C 605.230469 362.492188 605.714844 362.105469 606.195312 362.105469 C 605.761719 361.816406 605.375 361.527344 604.992188 361.191406 C 603.210938 361.480469 601.527344 362.058594 599.890625 362.683594 Z M 602.488281 358.390625 C 602.25 358.003906 602.054688 357.570312 601.910156 357.136719 C 598.15625 357.957031 594.304688 357.570312 590.503906 357.910156 C 589.972656 357.957031 589.445312 358.054688 588.914062 358.101562 C 588.820312 359.9375 588.769531 361.71875 588.675781 363.554688 C 588.386719 369.921875 588.144531 376.242188 588.144531 382.609375 C 588.144531 385.792969 588.191406 388.929688 588.335938 392.066406 C 588.386719 393.65625 588.480469 395.203125 588.480469 396.792969 C 588.480469 397.613281 588.53125 398.433594 588.53125 399.253906 C 588.53125 399.640625 588.53125 400.074219 588.53125 400.460938 C 592.863281 399.351562 597.386719 399.011719 601.765625 398.191406 C 601.574219 392.257812 601.960938 386.324219 602.152344 380.390625 C 601.71875 380.632812 601.332031 380.875 600.898438 381.113281 C 600.613281 385.503906 600.371094 389.894531 600.226562 394.285156 C 600.226562 394.816406 599.746094 395.203125 599.214844 395.203125 C 599.023438 395.203125 598.878906 395.152344 598.734375 395.058594 C 598.6875 395.058594 598.636719 395.058594 598.589844 395.058594 C 597.964844 395.058594 597.339844 395.105469 596.761719 395.152344 C 594.933594 395.347656 593.152344 395.683594 591.417969 396.214844 C 591.175781 396.3125 590.886719 396.214844 590.695312 396.070312 C 590.167969 396.070312 589.734375 395.585938 589.78125 395.058594 C 590.070312 389.847656 590.023438 384.589844 590.117188 379.328125 C 590.167969 376.773438 590.261719 374.167969 590.40625 371.609375 C 590.550781 369.441406 590.695312 367.21875 590.550781 365.050781 C 590.457031 364.179688 590.3125 363.359375 590.070312 362.492188 C 589.925781 362.011719 590.3125 361.480469 590.792969 361.335938 C 590.839844 361.335938 590.9375 361.335938 590.984375 361.335938 C 591.175781 361.335938 591.371094 361.382812 591.515625 361.480469 C 591.753906 361.625 591.851562 361.816406 591.949219 362.058594 C 592.042969 362.347656 592.09375 362.683594 592.1875 362.976562 C 594.015625 362.683594 595.796875 362.105469 597.53125 361.429688 C 599.457031 360.707031 601.332031 359.984375 603.308594 359.5 C 603.019531 359.210938 602.730469 358.824219 602.488281 358.390625 Z M 622.703125 347.488281 C 622.609375 347.441406 622.558594 347.390625 622.464844 347.34375 C 622.128906 347.199219 621.742188 347.101562 621.40625 347.007812 C 620.25 346.765625 619.09375 346.714844 617.9375 346.667969 C 616.589844 346.621094 615.242188 346.667969 613.894531 346.765625 C 613.894531 346.765625 613.945312 346.765625 613.945312 346.765625 C 613.945312 346.765625 613.894531 346.765625 613.894531 346.765625 C 613.847656 346.765625 613.75 346.765625 613.703125 346.765625 C 613.75 346.765625 613.75 346.765625 613.800781 346.765625 C 611.683594 346.910156 609.515625 347.101562 607.398438 347.390625 C 606.773438 347.488281 606.148438 347.585938 605.519531 347.683594 C 604.414062 347.875 603.257812 348.066406 602.152344 348.40625 C 601.816406 348.5 601.476562 348.648438 601.1875 348.839844 C 601.140625 348.839844 601.140625 348.886719 601.09375 348.886719 C 601.09375 348.886719 601.140625 348.9375 601.140625 348.9375 C 601.285156 349.082031 601.476562 349.175781 601.671875 349.273438 C 602.152344 349.515625 602.632812 349.660156 603.164062 349.804688 C 603.113281 349.804688 603.113281 349.804688 603.066406 349.804688 C 603.308594 349.851562 603.453125 349.949219 603.644531 350.140625 C 603.644531 350.140625 603.644531 350.140625 603.644531 350.191406 C 605.953125 350.480469 608.359375 350.480469 610.671875 350.382812 C 611.632812 350.335938 612.597656 350.238281 613.558594 350.140625 C 614.234375 350.09375 614.90625 350.046875 615.628906 349.949219 C 617.21875 349.804688 618.804688 349.5625 620.347656 349.082031 C 620.875 348.886719 621.40625 348.695312 621.886719 348.40625 C 622.078125 348.261719 622.269531 348.117188 622.414062 347.972656 C 622.511719 347.875 622.558594 347.777344 622.65625 347.683594 C 622.703125 347.535156 622.703125 347.488281 622.703125 347.488281 Z M 642.632812 344.546875 C 642.246094 342.617188 641.957031 340.6875 641.71875 338.757812 C 640.851562 331.761719 640.753906 324.667969 640.945312 317.625 C 641.042969 314.054688 641.234375 310.484375 641.429688 306.964844 C 641.523438 305.179688 641.667969 303.34375 641.765625 301.5625 C 641.863281 300.210938 641.910156 298.859375 642.054688 297.460938 C 642.199219 295.917969 642.390625 294.371094 642.582031 292.828125 C 642.824219 290.800781 643.113281 288.824219 643.355469 286.796875 C 643.835938 282.457031 644.21875 278.019531 643.980469 273.628906 C 643.835938 271.648438 643.59375 269.71875 643.015625 267.839844 C 642.726562 267.066406 642.390625 266.292969 642.007812 265.570312 C 641.71875 265.136719 641.429688 264.75 641.042969 264.414062 C 640.707031 264.125 640.371094 263.882812 640.03125 263.6875 C 639.261719 263.304688 638.394531 263.109375 637.578125 262.917969 C 634.257812 262.242188 630.789062 262.289062 627.421875 262.484375 C 626.121094 262.578125 624.871094 262.675781 623.570312 262.773438 C 620.636719 263.0625 617.746094 263.398438 614.8125 263.6875 C 613.511719 263.835938 612.164062 263.929688 610.863281 263.980469 C 609.179688 264.074219 607.496094 264.074219 605.808594 264.125 C 597.964844 264.363281 590.167969 264.605469 582.320312 264.894531 C 574.523438 265.183594 566.675781 265.523438 558.878906 265.859375 C 557.292969 265.957031 555.65625 266.003906 554.066406 266.003906 C 552.71875 266.003906 551.324219 266.003906 549.976562 265.957031 C 546.992188 265.910156 544.007812 265.859375 541.070312 266.054688 C 538.566406 266.199219 536.066406 266.488281 533.660156 267.257812 C 532.886719 267.550781 532.117188 267.839844 531.394531 268.273438 C 531.25 268.367188 531.105469 268.464844 530.964844 268.609375 C 530.914062 268.707031 530.820312 268.753906 530.769531 268.851562 C 530.722656 268.949219 530.722656 268.996094 530.675781 269.09375 C 530.625 269.332031 530.625 269.574219 530.625 269.816406 C 530.722656 270.734375 530.914062 271.648438 531.011719 272.566406 C 531.203125 274.253906 531.347656 275.894531 531.492188 277.582031 C 531.78125 280.960938 531.972656 284.386719 532.117188 287.761719 C 532.40625 294.757812 532.453125 301.800781 532.359375 308.796875 C 532.214844 316.515625 531.972656 324.140625 531.78125 331.761719 C 531.589844 339.433594 531.445312 347.101562 531.300781 354.820312 C 531.011719 370.453125 530.820312 386.132812 530.625 401.761719 C 530.480469 417.441406 530.335938 433.074219 530.335938 448.753906 C 530.335938 452.660156 530.289062 456.566406 530.335938 460.523438 C 530.335938 464.382812 530.480469 468.242188 530.625 472.101562 C 530.769531 475.960938 530.964844 479.820312 531.058594 483.679688 C 531.105469 485.707031 531.15625 487.683594 531.15625 489.710938 C 531.15625 490.628906 531.15625 491.542969 531.15625 492.460938 C 531.15625 492.945312 531.15625 493.378906 531.15625 493.859375 C 531.15625 494.199219 531.15625 494.488281 531.15625 494.824219 C 531.15625 494.875 531.15625 494.921875 531.15625 494.96875 C 531.203125 495.113281 531.203125 495.210938 531.203125 495.355469 C 531.203125 495.402344 531.203125 495.453125 531.203125 495.5 C 531.203125 495.644531 531.15625 495.742188 531.105469 495.886719 C 531.300781 496.03125 531.539062 496.175781 531.734375 496.320312 C 532.117188 496.511719 532.550781 496.660156 532.984375 496.753906 C 533.5625 496.851562 534.140625 496.898438 534.667969 496.851562 C 534.8125 496.851562 534.957031 496.804688 535.101562 496.804688 C 535.679688 496.464844 536.257812 496.128906 536.835938 495.789062 C 538.519531 494.726562 540.058594 493.425781 541.40625 491.980469 C 541.550781 491.832031 541.792969 491.738281 542.035156 491.738281 C 542.035156 491.738281 542.082031 491.738281 542.082031 491.738281 C 542.324219 491.738281 542.5625 491.882812 542.753906 492.074219 C 542.898438 492.269531 542.996094 492.507812 542.996094 492.75 C 542.996094 492.945312 542.898438 493.089844 542.804688 493.234375 C 542.753906 493.28125 542.707031 493.378906 542.609375 493.425781 C 541.890625 494.199219 541.070312 494.96875 540.253906 495.644531 C 541.746094 495.257812 543.1875 494.875 544.679688 494.488281 C 548.339844 493.472656 551.949219 492.460938 555.605469 491.449219 C 559.074219 490.53125 562.539062 489.664062 566.050781 488.9375 C 569.613281 488.214844 573.175781 487.492188 576.738281 486.863281 C 583.910156 485.5625 591.03125 484.308594 598.203125 482.957031 C 601.765625 482.28125 605.375 481.558594 608.9375 480.738281 C 612.402344 479.964844 615.917969 479.242188 619.429688 478.519531 C 626.265625 477.121094 633.101562 475.71875 639.839844 473.789062 C 639.839844 473.742188 639.839844 473.695312 639.839844 473.644531 C 639.886719 472.875 639.886719 472.152344 639.886719 471.378906 C 633.292969 473.5 626.601562 475.335938 619.914062 477.023438 C 608.167969 479.964844 596.28125 482.328125 584.34375 484.5 C 578.375 485.5625 572.40625 486.625 566.4375 487.589844 C 563.453125 488.070312 560.46875 488.601562 557.53125 489.082031 C 556.039062 489.324219 554.546875 489.566406 553.105469 489.855469 C 552.335938 490 551.5625 490.097656 550.792969 490.242188 C 550.121094 490.339844 549.445312 490.433594 548.773438 490.628906 C 548.242188 490.773438 547.761719 490.339844 547.664062 489.855469 C 547.617188 489.613281 547.664062 489.324219 547.808594 489.132812 C 547.953125 488.9375 548.144531 488.792969 548.433594 488.746094 C 548.867188 488.648438 549.300781 488.554688 549.78125 488.503906 C 550.214844 488.457031 550.601562 488.359375 551.035156 488.3125 C 551.902344 488.167969 552.816406 488.023438 553.683594 487.878906 C 555.414062 487.589844 557.148438 487.300781 558.832031 487.007812 C 562.347656 486.429688 565.859375 485.804688 569.375 485.222656 C 581.308594 483.199219 593.246094 481.074219 605.136719 478.519531 C 616.878906 476.011719 628.527344 473.117188 639.984375 469.449219 C 639.984375 468.871094 639.984375 468.289062 639.984375 467.710938 C 639.984375 461.632812 639.792969 455.554688 639.792969 449.523438 C 639.792969 443.542969 639.9375 437.511719 640.515625 431.527344 C 640.515625 431.335938 640.609375 431.144531 640.753906 430.949219 C 640.082031 430.082031 639.453125 429.117188 639.023438 428.054688 C 638.589844 426.945312 638.25 425.789062 638.105469 424.582031 C 637.960938 423.375 637.914062 422.121094 638.011719 420.867188 C 638.105469 419.660156 638.347656 418.457031 638.78125 417.296875 C 639.167969 416.1875 639.742188 415.125 640.464844 414.210938 C 640.945312 413.582031 641.523438 413.050781 642.148438 412.519531 C 641.910156 412.328125 641.765625 412.039062 641.765625 411.699219 C 641.8125 410.351562 641.765625 408.949219 641.667969 407.601562 C 641.523438 404.511719 641.1875 401.472656 641.089844 398.386719 C 640.996094 395.25 641.042969 392.066406 641.140625 388.929688 C 641.332031 382.851562 641.667969 376.820312 641.523438 370.742188 C 639.070312 370.886719 636.613281 370.886719 634.160156 370.695312 C 629.683594 370.355469 625.253906 369.488281 621.019531 368.089844 C 619.671875 367.65625 618.324219 367.171875 617.023438 366.640625 C 616.832031 366.542969 616.640625 366.496094 616.449219 366.449219 C 616.589844 367.847656 616.734375 369.246094 616.542969 370.597656 C 616.542969 370.695312 616.496094 370.789062 616.449219 370.886719 C 616.496094 371.078125 616.496094 371.273438 616.449219 371.464844 C 616.351562 371.707031 616.207031 371.898438 615.964844 371.996094 C 615.292969 372.429688 614.617188 372.816406 613.945312 373.203125 C 613.320312 373.589844 612.644531 373.972656 612.019531 374.359375 C 610.71875 375.132812 609.417969 375.902344 608.167969 376.722656 C 606.773438 377.59375 605.375 378.414062 603.980469 379.28125 C 604.078125 379.425781 604.125 379.617188 604.125 379.859375 C 603.882812 386.132812 603.453125 392.402344 603.691406 398.675781 C 603.691406 398.867188 603.644531 399.0625 603.5 399.207031 C 603.402344 399.542969 603.164062 399.832031 602.777344 399.929688 C 597.867188 400.894531 592.8125 401.183594 588 402.535156 C 587.519531 402.679688 587.085938 402.339844 586.894531 401.957031 C 586.699219 401.761719 586.652344 401.523438 586.652344 401.28125 C 586.605469 400.75 586.652344 400.265625 586.652344 399.738281 C 586.652344 399.253906 586.652344 398.722656 586.652344 398.242188 C 586.652344 397.226562 586.605469 396.214844 586.558594 395.203125 C 586.460938 392.066406 586.316406 388.882812 586.269531 385.746094 C 586.21875 382.5625 586.269531 379.378906 586.316406 376.242188 C 586.460938 369.875 586.75 363.554688 587.039062 357.1875 C 587.039062 356.65625 587.472656 356.269531 588 356.269531 C 588 356.269531 588.046875 356.269531 588.046875 356.269531 C 588.097656 356.269531 588.144531 356.269531 588.191406 356.316406 C 591.753906 355.691406 595.363281 355.980469 598.976562 355.691406 C 599.792969 355.59375 600.613281 355.496094 601.429688 355.304688 C 601.382812 355.109375 601.382812 354.964844 601.382812 354.773438 C 601.332031 354.097656 601.285156 353.421875 601.332031 352.699219 C 601.382812 352.214844 601.476562 351.734375 601.574219 351.25 C 601.140625 351.105469 600.707031 350.914062 600.324219 350.625 C 600.128906 350.480469 599.890625 350.335938 599.746094 350.140625 C 599.601562 349.996094 599.457031 349.757812 599.359375 349.5625 C 599.167969 349.175781 599.121094 348.695312 599.265625 348.261719 C 599.503906 347.535156 600.179688 347.101562 600.851562 346.8125 C 601.621094 346.476562 602.441406 346.28125 603.257812 346.089844 C 603.933594 345.945312 604.605469 345.847656 605.28125 345.703125 C 605.617188 345.65625 605.90625 345.558594 606.242188 345.511719 C 607.300781 345.367188 608.359375 345.222656 609.417969 345.125 C 611.007812 344.980469 612.597656 344.835938 614.183594 344.738281 C 615.195312 344.691406 616.207031 344.640625 617.21875 344.640625 C 617.796875 344.640625 618.324219 344.640625 618.902344 344.691406 C 619.574219 344.738281 620.25 344.785156 620.921875 344.882812 C 621.5 344.980469 622.128906 345.078125 622.703125 345.269531 C 622.847656 345.316406 622.992188 345.367188 623.136719 345.414062 C 623.28125 345.269531 623.425781 345.222656 623.621094 345.171875 C 623.8125 345.125 624.003906 345.078125 624.195312 345.078125 C 624.4375 345.027344 624.726562 344.980469 624.96875 344.980469 C 625.496094 344.882812 626.027344 344.835938 626.554688 344.785156 C 627.613281 344.691406 628.722656 344.59375 629.78125 344.496094 C 631.609375 344.402344 633.488281 344.351562 635.316406 344.351562 C 635.652344 344.351562 635.941406 344.351562 636.277344 344.351562 C 638.347656 344.402344 640.515625 344.449219 642.632812 344.546875 Z M 690.140625 348.695312 C 690.332031 348.210938 689.945312 347.632812 689.464844 347.535156 C 689.367188 347.535156 689.320312 347.488281 689.222656 347.488281 C 689.03125 347.488281 688.886719 347.535156 688.742188 347.632812 C 688.503906 347.777344 688.40625 347.972656 688.308594 348.210938 C 687.394531 350.816406 687.636719 353.617188 688.214844 356.222656 C 688.792969 358.824219 689.753906 361.335938 690.621094 363.84375 C 690.714844 364.085938 690.8125 364.277344 691.054688 364.421875 C 691.292969 364.566406 691.535156 364.566406 691.777344 364.519531 C 692.257812 364.375 692.59375 363.84375 692.449219 363.359375 C 691.34375 360.320312 690.1875 357.28125 689.753906 354.050781 C 689.609375 352.890625 689.5625 351.734375 689.707031 350.578125 C 689.753906 349.949219 689.898438 349.320312 690.140625 348.695312 Z M 628.578125 267.695312 C 626.988281 267.695312 625.398438 267.695312 623.859375 267.742188 C 622.269531 267.789062 620.683594 267.886719 619.09375 267.984375 C 615.964844 268.175781 612.835938 268.367188 609.660156 268.5625 C 609.277344 268.5625 608.890625 268.609375 608.554688 268.609375 C 608.503906 268.609375 608.503906 268.609375 608.457031 268.609375 C 608.457031 268.609375 608.410156 268.609375 608.410156 268.609375 C 608.023438 268.609375 607.640625 268.660156 607.300781 268.660156 C 606.484375 268.707031 605.664062 268.753906 604.847656 268.804688 C 604.027344 268.851562 603.210938 268.898438 602.390625 268.949219 C 602.296875 268.949219 602.246094 268.949219 602.152344 268.949219 C 599.890625 269.09375 597.628906 269.1875 595.363281 269.332031 C 589.109375 269.71875 582.800781 270.105469 576.546875 270.636719 C 573.417969 270.878906 570.289062 271.167969 567.160156 271.503906 C 565.617188 271.648438 564.03125 271.84375 562.488281 271.988281 C 561.480469 272.082031 560.46875 272.226562 559.457031 272.375 C 555.414062 273 551.417969 273.917969 547.28125 274.160156 C 545.835938 274.207031 544.390625 274.207031 542.996094 273.964844 C 542.5625 273.867188 542.128906 273.722656 541.746094 273.578125 C 541.503906 273.433594 541.261719 273.242188 541.023438 273.046875 C 540.398438 272.421875 539.914062 271.746094 539.386719 271.023438 C 538.808594 270.25 538.230469 269.527344 537.460938 268.949219 C 537.027344 268.660156 536.402344 268.753906 536.113281 269.1875 C 535.824219 269.625 535.921875 270.203125 536.355469 270.539062 C 536.449219 270.636719 536.546875 270.683594 536.644531 270.78125 C 537.414062 271.503906 537.992188 272.375 538.617188 273.195312 C 538.953125 273.628906 539.289062 274.011719 539.675781 274.351562 C 539.867188 274.542969 540.109375 274.738281 540.347656 274.882812 C 540.636719 275.074219 540.925781 275.21875 541.214844 275.363281 C 541.550781 275.507812 541.890625 275.605469 542.226562 275.703125 C 542.707031 275.796875 543.1875 275.894531 543.671875 275.941406 C 544.632812 276.089844 545.546875 276.089844 546.511719 276.039062 C 550.746094 275.941406 554.933594 275.027344 559.121094 274.304688 C 561.480469 273.917969 563.835938 273.675781 566.195312 273.433594 C 569.324219 273.097656 572.453125 272.808594 575.582031 272.566406 C 581.839844 272.035156 588.144531 271.601562 594.402344 271.214844 C 597.050781 271.070312 599.695312 270.878906 602.296875 270.734375 C 602.34375 270.734375 602.390625 270.734375 602.441406 270.734375 C 602.488281 270.734375 602.535156 270.734375 602.585938 270.734375 C 602.96875 270.734375 603.355469 270.683594 603.691406 270.683594 C 604.367188 270.636719 605.089844 270.589844 605.761719 270.589844 C 606.628906 270.539062 607.542969 270.492188 608.410156 270.445312 C 608.503906 270.445312 608.554688 270.445312 608.648438 270.445312 C 610.429688 270.347656 612.164062 270.25 613.945312 270.152344 C 616.589844 270.007812 619.289062 269.816406 621.933594 269.671875 C 621.886719 269.671875 621.839844 269.671875 621.789062 269.671875 C 621.839844 269.671875 621.886719 269.671875 621.984375 269.671875 C 622.03125 269.671875 622.03125 269.671875 622.078125 269.671875 C 622.03125 269.671875 622.03125 269.671875 622.03125 269.671875 C 624.195312 269.574219 626.316406 269.574219 628.480469 269.574219 C 628.722656 269.574219 628.960938 269.527344 629.15625 269.332031 C 629.347656 269.1875 629.492188 268.949219 629.492188 268.660156 C 629.492188 268.222656 629.105469 267.695312 628.578125 267.695312 Z M 679.695312 450.875 C 679.933594 450.875 680.222656 450.828125 680.367188 450.683594 C 680.945312 450.101562 681.476562 449.476562 681.910156 448.753906 C 682.339844 448.078125 682.726562 447.351562 683.0625 446.628906 C 683.6875 445.183594 684.171875 443.6875 684.605469 442.191406 C 684.75 441.707031 684.554688 441.128906 684.027344 440.984375 C 683.929688 440.9375 683.832031 440.9375 683.6875 440.9375 C 683.304688 440.9375 682.917969 441.179688 682.773438 441.5625 C 682.246094 443.300781 681.714844 445.085938 680.898438 446.726562 C 680.417969 447.59375 679.886719 448.414062 679.210938 449.1875 C 679.210938 449.1875 679.164062 449.234375 679.164062 449.234375 C 678.972656 449.425781 678.828125 449.621094 678.828125 449.863281 C 678.828125 450.101562 678.875 450.34375 679.019531 450.585938 C 679.210938 450.730469 679.453125 450.875 679.695312 450.875 Z M 684.074219 455.554688 C 684.460938 455.84375 685.132812 455.746094 685.421875 455.3125 C 686.382812 453.722656 687.300781 452.082031 688.019531 450.390625 C 688.742188 448.703125 689.273438 447.015625 689.65625 445.230469 C 690.429688 441.660156 690.234375 437.898438 689.222656 434.375 C 689.175781 434.132812 689.082031 433.894531 688.839844 433.75 C 688.695312 433.652344 688.503906 433.554688 688.308594 433.554688 C 688.261719 433.554688 688.214844 433.554688 688.164062 433.554688 C 687.925781 433.605469 687.683594 433.75 687.539062 433.941406 C 687.394531 434.132812 687.300781 434.425781 687.394531 434.664062 C 687.875 436.402344 688.214844 438.1875 688.261719 440.019531 C 688.308594 441.804688 688.117188 443.589844 687.734375 445.328125 C 687.203125 447.546875 686.382812 449.667969 685.324219 451.695312 C 684.894531 452.5625 684.410156 453.382812 683.882812 454.203125 C 683.59375 454.636719 683.640625 455.21875 684.074219 455.554688 Z M 655 436.980469 C 655.53125 436.980469 655.917969 436.546875 655.964844 436.015625 C 655.964844 435.679688 656.011719 435.292969 656.0625 434.953125 C 656.207031 434.085938 656.398438 433.21875 656.734375 432.445312 C 657.023438 431.769531 657.410156 431.144531 657.839844 430.5625 C 658.226562 430.082031 658.613281 429.695312 659.09375 429.308594 C 659.574219 428.972656 660.054688 428.683594 660.539062 428.441406 C 660.585938 428.441406 660.585938 428.441406 660.632812 428.394531 C 660.875 428.296875 661.066406 428.199219 661.210938 427.960938 C 661.355469 427.71875 661.355469 427.476562 661.308594 427.234375 C 661.257812 426.996094 661.066406 426.800781 660.875 426.65625 C 660.730469 426.558594 660.539062 426.511719 660.394531 426.511719 C 660.296875 426.511719 660.25 426.511719 660.152344 426.558594 C 659.671875 426.753906 659.238281 426.945312 658.804688 427.1875 C 658.371094 427.429688 657.9375 427.765625 657.554688 428.105469 C 656.832031 428.730469 656.207031 429.503906 655.722656 430.324219 C 655.195312 431.144531 654.859375 432.058594 654.570312 433.023438 C 654.28125 433.988281 654.136719 435.050781 654.085938 436.0625 C 654.039062 436.546875 654.472656 436.980469 655 436.980469 Z M 621.984375 269.671875 C 622.03125 269.671875 622.03125 269.671875 621.984375 269.671875 Z M 594.066406 382.367188 C 594.980469 382.417969 595.894531 382.464844 596.808594 382.367188 C 597.097656 382.367188 597.289062 382.320312 597.484375 382.128906 C 597.675781 381.933594 597.773438 381.695312 597.773438 381.453125 C 597.773438 381.210938 597.675781 380.96875 597.53125 380.777344 C 597.386719 380.632812 597.097656 380.4375 596.855469 380.488281 C 595.941406 380.582031 595.027344 380.535156 594.113281 380.488281 C 594.113281 380.488281 594.066406 380.488281 594.066406 380.488281 C 593.585938 380.488281 593.152344 380.921875 593.101562 381.402344 C 593.101562 381.886719 593.535156 382.320312 594.066406 382.367188 Z M 589.15625 434.183594 C 589.058594 433.652344 589.011719 433.121094 589.058594 432.589844 C 589.109375 432.15625 589.15625 431.769531 589.253906 431.335938 C 589.445312 430.46875 589.828125 429.597656 590.261719 428.78125 C 590.695312 427.960938 591.226562 427.234375 591.851562 426.609375 C 592.429688 426.03125 593.152344 425.546875 593.96875 425.304688 C 594.257812 425.210938 594.5 425.210938 594.789062 425.210938 C 595.316406 425.210938 595.847656 425.355469 596.328125 425.644531 C 597.097656 426.078125 597.628906 426.847656 598.058594 427.667969 C 598.253906 427.765625 598.398438 427.910156 598.445312 428.105469 C 598.734375 428.828125 598.925781 429.597656 599.023438 430.371094 C 599.121094 431.144531 599.167969 431.964844 599.023438 432.734375 C 598.925781 433.460938 598.734375 434.183594 598.398438 434.808594 C 598.109375 435.390625 597.820312 435.917969 597.433594 436.402344 C 597.097656 436.835938 596.710938 437.222656 596.230469 437.558594 C 595.847656 437.847656 595.414062 438.136719 594.933594 438.285156 C 594.691406 438.378906 594.402344 438.476562 594.113281 438.523438 C 593.871094 438.574219 593.632812 438.574219 593.390625 438.574219 C 592.957031 438.574219 592.476562 438.523438 592.042969 438.332031 C 591.320312 438.042969 590.601562 437.558594 590.167969 436.882812 C 589.683594 436.0625 589.300781 435.148438 589.15625 434.183594 Z M 597.097656 430.515625 C 596.519531 431.191406 595.894531 431.867188 595.21875 432.445312 C 594.066406 433.507812 592.8125 434.472656 591.464844 435.292969 C 591.515625 435.390625 591.5625 435.484375 591.609375 435.535156 C 591.753906 435.726562 591.851562 435.871094 592.042969 436.015625 C 592.1875 436.113281 592.332031 436.257812 592.476562 436.355469 C 592.621094 436.402344 592.8125 436.5 592.957031 436.546875 C 593.152344 436.59375 593.34375 436.59375 593.488281 436.59375 C 593.726562 436.59375 593.921875 436.546875 594.113281 436.449219 C 594.355469 436.355469 594.59375 436.257812 594.835938 436.113281 C 595.125 435.917969 595.414062 435.679688 595.652344 435.390625 C 595.992188 435.003906 596.28125 434.570312 596.519531 434.132812 C 596.710938 433.75 596.855469 433.363281 596.953125 432.929688 C 597.050781 432.347656 597.097656 431.722656 597.050781 431.144531 C 597.144531 430.949219 597.144531 430.757812 597.097656 430.515625 Z M 590.984375 433.167969 C 590.984375 433.21875 590.984375 433.3125 590.984375 433.363281 C 591.082031 433.3125 591.128906 433.265625 591.226562 433.21875 C 592.667969 432.253906 593.96875 431.09375 595.171875 429.839844 C 595.605469 429.359375 595.992188 428.925781 596.375 428.441406 C 596.28125 428.296875 596.230469 428.152344 596.136719 428.007812 C 595.992188 427.816406 595.847656 427.621094 595.652344 427.429688 C 595.558594 427.332031 595.414062 427.234375 595.316406 427.1875 C 595.21875 427.140625 595.125 427.140625 595.078125 427.089844 C 594.980469 427.089844 594.882812 427.089844 594.789062 427.089844 C 594.691406 427.089844 594.59375 427.140625 594.449219 427.140625 C 594.257812 427.1875 594.113281 427.285156 593.921875 427.378906 C 593.585938 427.621094 593.296875 427.863281 593.007812 428.152344 C 592.523438 428.683594 592.140625 429.308594 591.804688 429.9375 C 591.464844 430.613281 591.226562 431.289062 591.03125 431.964844 C 590.984375 432.398438 590.984375 432.785156 590.984375 433.167969 Z M 613.894531 346.714844 C 613.847656 346.714844 613.847656 346.714844 613.800781 346.714844 C 613.800781 346.714844 613.847656 346.714844 613.894531 346.714844 Z M 543.910156 278.210938 C 543.910156 278.210938 543.863281 278.210938 543.863281 278.210938 C 543.382812 278.210938 542.949219 278.597656 542.898438 279.078125 C 540.203125 305.855469 540.636719 332.773438 540.734375 359.597656 C 540.734375 366.304688 540.734375 373.007812 540.6875 379.714844 C 540.589844 386.519531 540.445312 393.273438 540.300781 400.074219 C 539.964844 413.679688 539.53125 427.234375 539.242188 440.839844 C 539.097656 448.171875 538.953125 455.507812 538.90625 462.886719 C 538.855469 466.554688 538.855469 470.222656 538.90625 473.886719 C 538.90625 477.410156 538.953125 480.929688 539.339844 484.453125 C 539.386719 484.984375 539.964844 485.320312 540.445312 485.222656 C 540.6875 485.175781 540.925781 485.03125 541.070312 484.839844 C 541.214844 484.597656 541.261719 484.355469 541.214844 484.113281 C 541.117188 483.148438 541.023438 482.183594 540.976562 481.21875 C 540.78125 477.890625 540.832031 474.5625 540.832031 471.234375 C 540.832031 467.855469 540.832031 464.429688 540.878906 461.054688 C 540.925781 454.253906 541.070312 447.449219 541.214844 440.648438 C 541.503906 427.042969 541.9375 413.484375 542.273438 399.882812 C 542.417969 393.128906 542.609375 386.324219 542.660156 379.570312 C 542.753906 372.863281 542.753906 366.160156 542.707031 359.453125 C 542.660156 345.992188 542.515625 332.53125 542.753906 319.074219 C 542.949219 305.804688 543.527344 292.539062 544.875 279.320312 C 544.875 278.691406 544.441406 278.257812 543.910156 278.210938 Z M 600.46875 321.773438 C 600.757812 322.59375 600.851562 323.464844 600.804688 324.332031 C 600.707031 325.152344 600.515625 326.019531 600.179688 326.792969 C 599.792969 327.613281 599.3125 328.382812 598.636719 329.058594 C 598.058594 329.6875 597.339844 330.167969 596.519531 330.507812 C 595.652344 330.84375 594.789062 331.039062 593.871094 331.039062 C 593.199219 331.085938 592.476562 330.988281 591.804688 330.699219 C 591.175781 330.457031 590.601562 330.074219 590.117188 329.542969 C 589.734375 329.058594 589.398438 328.527344 589.203125 327.949219 C 588.964844 327.273438 588.867188 326.550781 588.867188 325.828125 C 588.867188 325.105469 588.964844 324.429688 589.15625 323.703125 C 589.492188 322.304688 590.214844 321.003906 591.175781 319.941406 C 591.707031 319.3125 592.332031 318.832031 593.054688 318.398438 C 593.726562 318.011719 594.449219 317.722656 595.21875 317.578125 C 595.269531 317.578125 595.363281 317.578125 595.414062 317.578125 C 595.796875 317.578125 596.136719 317.820312 596.28125 318.203125 C 596.90625 318.347656 597.484375 318.640625 598.011719 318.929688 C 598.445312 319.167969 598.78125 319.410156 599.121094 319.75 C 599.746094 320.328125 600.179688 321.003906 600.46875 321.773438 Z M 594.546875 321.628906 C 594.5 321.050781 594.449219 320.519531 594.355469 319.941406 C 594.160156 320.039062 594.015625 320.132812 593.871094 320.230469 C 593.441406 320.519531 593.054688 320.859375 592.71875 321.195312 C 592.285156 321.679688 591.949219 322.160156 591.660156 322.738281 C 591.371094 323.320312 591.128906 323.945312 590.984375 324.621094 C 590.886719 325.152344 590.839844 325.683594 590.839844 326.261719 C 590.886719 326.648438 590.9375 326.984375 591.03125 327.371094 C 591.128906 327.613281 591.226562 327.851562 591.371094 328.09375 C 591.464844 328.289062 591.609375 328.433594 591.753906 328.578125 C 591.898438 328.722656 592.09375 328.820312 592.238281 328.914062 C 592.429688 329.011719 592.667969 329.109375 592.910156 329.15625 C 593.054688 329.203125 593.199219 329.203125 593.34375 329.203125 C 593.679688 328.335938 593.96875 327.417969 594.160156 326.550781 C 594.5 324.910156 594.59375 323.269531 594.546875 321.628906 Z M 598.878906 323.558594 C 598.832031 323.222656 598.78125 322.835938 598.6875 322.5 C 598.589844 322.207031 598.445312 321.96875 598.300781 321.726562 C 598.15625 321.484375 597.964844 321.292969 597.773438 321.097656 C 597.53125 320.90625 597.289062 320.714844 597 320.570312 C 596.761719 320.472656 596.519531 320.328125 596.28125 320.230469 C 596.425781 321.582031 596.472656 322.980469 596.375 324.378906 C 596.28125 325.921875 595.941406 327.417969 595.460938 328.914062 C 595.796875 328.820312 596.085938 328.625 596.425781 328.480469 C 596.761719 328.238281 597.097656 327.949219 597.386719 327.660156 C 597.722656 327.273438 598.011719 326.886719 598.253906 326.40625 C 598.492188 325.921875 598.6875 325.441406 598.78125 324.910156 C 598.878906 324.476562 598.878906 323.992188 598.878906 323.558594 Z M 598.878906 323.558594 " fill-opacity="1" fill-rule="nonzero"/></g><g clip-path="url(#215353b569)"><g clip-path="url(#482b60838b)"><path fill="#01184e" d="M 565.75 283.46875 L 593.84375 283.46875 L 593.84375 316.613281 L 565.75 316.613281 Z M 565.75 283.46875 " fill-opacity="1" fill-rule="nonzero"/></g></g><g clip-path="url(#379cd6b17e)"><g clip-path="url(#5badddd6bb)"><path fill="#01184e" d="M 589.402344 279.148438 L 621.097656 279.148438 L 621.097656 313.9375 L 589.402344 313.9375 Z M 589.402344 279.148438 " fill-opacity="1" fill-rule="nonzero"/></g></g><g clip-path="url(#911e0c4c44)"><g clip-path="url(#305174f0ca)"><path fill="#01184e" d="M 565.75 436.445312 L 596.714844 436.445312 L 596.714844 472.613281 L 565.75 472.613281 Z M 565.75 436.445312 " fill-opacity="1" fill-rule="nonzero"/></g></g><g clip-path="url(#4e73cdea88)"><g clip-path="url(#2791f5fbb7)"><path fill="#01184e" d="M 588.726562 440.816406 L 604.957031 440.816406 L 604.957031 472.519531 L 588.726562 472.519531 Z M 588.726562 440.816406 " fill-opacity="1" fill-rule="nonzero"/></g></g><g clip-path="url(#a8cff89213)"><g clip-path="url(#d5c32ee9c3)"><path fill="#01184e" d="M 587.476562 440.566406 L 609.847656 440.566406 L 609.847656 455.175781 L 587.476562 455.175781 Z M 587.476562 440.566406 " fill-opacity="1" fill-rule="nonzero"/></g></g><g clip-path="url(#175c228d44)"><g clip-path="url(#310020514f)"><path fill="#01184e" d="M 592.347656 450.554688 L 614.84375 450.554688 L 614.84375 466.039062 L 592.347656 466.039062 Z M 592.347656 450.554688 " fill-opacity="1" fill-rule="nonzero"/></g></g><g clip-path="url(#998a4ae324)"><g clip-path="url(#1bbbef016c)"><path fill="#01184e" d="M 606.207031 441.941406 L 620.816406 441.941406 L 620.816406 471.558594 L 606.207031 471.558594 Z M 606.207031 441.941406 " fill-opacity="1" fill-rule="nonzero"/></g></g><g clip-path="url(#41b220aa45)"><g clip-path="url(#00d081408c)"><path fill="#01184e" d="M 608.078125 435.695312 L 626.5625 435.695312 L 626.5625 453.550781 L 608.078125 453.550781 Z M 608.078125 435.695312 " fill-opacity="1" fill-rule="nonzero"/></g></g><g clip-path="url(#86fd27b575)"><g clip-path="url(#0ceb13425e)"><path fill="#01184e" d="M 608.203125 449.679688 L 628.054688 449.679688 L 628.054688 463.417969 L 608.203125 463.417969 Z M 608.203125 449.679688 " fill-opacity="1" fill-rule="nonzero"/></g></g></svg>