<?xml version="1.0" standalone="no"?>
<!DOCTYPE svg PUBLIC "-//W3C//DTD SVG 20010904//EN"
 "http://www.w3.org/TR/2001/REC-SVG-20010904/DTD/svg10.dtd">
<svg version="1.0" xmlns="http://www.w3.org/2000/svg"
 width="1406.000000pt" height="1834.000000pt" viewBox="0 0 1406.000000 1834.000000"
 preserveAspectRatio="xMidYMid meet">

<g transform="translate(0.000000,1834.000000) scale(0.100000,-0.100000)"
fill="#000000" stroke="none">
<path d="M630 17035 c0 -13 696 -15 6200 -15 l6200 0 0 -8197 0 -8196 -777 7
c-428 3 -1205 11 -1728 16 -522 6 -1661 17 -2530 25 -869 9 -1978 20 -2465 25
-487 5 -1706 16 -2710 25 -1004 9 -1853 18 -1887 21 l-63 6 0 8105 c0 6479 -3
8104 -12 8101 -10 -4 -14 -1638 -16 -8120 l-2 -8116 122 -6 c68 -3 474 -8 903
-11 429 -3 1185 -10 1680 -15 912 -10 1734 -18 4535 -45 855 -8 2210 -22 3010
-30 800 -8 1570 -15 1710 -15 l255 -1 3 8225 2 8226 -6215 0 c-5518 0 -6215
-2 -6215 -15z"/>
<path d="M1314 16823 c-67 -63 -128 -179 -122 -233 4 -40 21 -47 111 -49 67
-1 121 -21 136 -49 6 -12 11 -45 11 -74 0 -124 -111 -194 -220 -138 -51 26
-51 40 -1 40 42 0 63 16 40 31 -16 10 -109 12 -133 3 -30 -11 -18 -51 25 -88
53 -45 97 -59 165 -54 64 5 116 42 148 104 28 52 29 158 3 197 -25 39 -75 67
-118 67 -71 0 -129 12 -129 27 0 28 51 122 90 164 l39 44 1 -52 c0 -41 4 -53
15 -53 13 0 15 12 13 68 -3 59 -5 67 -24 70 -12 2 -33 -9 -50 -25z"/>
<path d="M5772 16817 c-10 -11 -38 -109 -56 -189 -6 -26 -8 -27 -55 -21 -65 7
-141 -4 -141 -22 0 -18 19 -30 30 -19 5 5 40 8 79 6 l70 -4 -2 -122 c-2 -102
1 -126 16 -149 9 -15 24 -27 31 -27 21 0 28 31 11 50 -11 12 -15 41 -15 112 0
124 2 128 57 128 57 0 54 21 -6 33 -29 6 -41 13 -38 21 3 8 9 34 12 60 6 38
10 44 21 35 12 -10 14 -1 14 49 0 62 -9 82 -28 59z"/>
<path d="M3504 16715 c-7 -17 0 -249 13 -433 4 -67 10 -95 20 -99 8 -3 18 -2
23 3 5 5 29 85 54 177 25 93 52 180 59 193 13 26 14 26 39 -33 28 -63 48 -169
48 -258 0 -53 1 -56 23 -53 21 3 22 6 20 109 -2 116 -24 203 -69 272 -20 31
-30 38 -52 35 -35 -4 -63 -54 -92 -166 -30 -117 -39 -130 -41 -62 -5 207 -15
324 -26 328 -7 2 -16 -4 -19 -13z"/>
<path d="M5994 16686 c-59 -27 -121 -95 -130 -142 -15 -82 52 -154 189 -201
87 -31 186 -29 255 5 39 19 45 19 73 5 46 -23 137 -14 187 19 l40 27 23 -26
c32 -34 72 -53 109 -53 40 0 102 32 129 66 15 18 22 22 25 13 3 -8 10 -31 16
-51 9 -29 17 -38 34 -38 17 0 34 20 76 91 30 50 77 115 103 143 45 48 49 50
62 32 15 -20 19 -51 33 -270 10 -145 17 -171 46 -160 6 2 30 50 53 107 73 175
188 347 225 335 7 -3 16 -22 21 -44 11 -50 12 -198 2 -246 -7 -36 -6 -38 19
-38 37 0 50 57 42 178 -9 122 -30 190 -61 204 -55 25 -159 -88 -245 -266 l-48
-100 -6 45 c-3 24 -7 90 -10 146 -8 151 -37 193 -111 157 -43 -20 -92 -75
-148 -166 -23 -37 -45 -68 -48 -68 -9 0 -18 51 -26 138 -3 40 -10 75 -16 79
-19 12 -28 -24 -23 -97 l5 -75 -47 -30 c-25 -16 -57 -33 -70 -37 -32 -9 -92
16 -115 47 -17 23 -17 27 -1 56 35 69 12 139 -47 139 -35 0 -44 -26 -36 -111
5 -57 4 -60 -25 -80 -31 -23 -105 -36 -134 -25 -15 6 -11 13 23 49 52 53 93
114 93 138 0 24 -49 49 -96 49 -47 0 -97 -33 -118 -77 -19 -39 -21 -124 -4
-141 20 -20 -40 -37 -132 -37 -72 0 -94 5 -146 29 -34 15 -76 43 -94 61 -28
29 -32 38 -26 67 7 37 52 86 103 112 38 19 113 22 113 4 0 -17 -93 -102 -132
-121 -30 -14 -34 -14 -38 -1 -5 14 -7 14 -19 0 -18 -21 -7 -46 21 -46 59 0
200 107 213 163 17 67 -80 90 -181 43z m487 -106 c10 0 19 -6 19 -12 0 -18
-129 -140 -141 -133 -17 11 -10 81 12 109 24 30 57 47 77 40 8 -2 22 -4 33 -4z"/>
<path d="M4882 16622 c-12 -2 -38 -19 -58 -38 -20 -19 -42 -34 -49 -34 -22 0
-57 -48 -66 -91 -28 -122 54 -222 181 -222 108 0 170 69 170 189 0 120 -83
211 -178 196z m77 -68 c49 -34 67 -142 35 -209 -35 -74 -147 -84 -211 -20 -18
18 -33 43 -33 54 0 24 58 121 98 164 30 31 75 36 111 11z"/>
<path d="M4295 16599 c-4 -12 -7 -68 -6 -124 1 -96 -1 -104 -28 -148 -52 -80
-112 -102 -203 -72 -72 23 -123 66 -143 120 -39 100 21 175 139 175 52 0 70
-17 61 -59 -15 -71 -107 -91 -164 -37 -23 22 -31 26 -31 13 0 -9 10 -28 23
-43 19 -22 34 -28 78 -31 70 -5 98 10 127 68 22 44 22 49 8 82 -22 55 -100 72
-189 41 -167 -57 -147 -276 33 -361 109 -51 196 -39 270 37 l48 49 18 -40 c31
-70 92 -100 128 -63 15 14 39 84 67 194 l11 45 23 -27 c30 -35 64 -53 77 -40
10 10 2 22 -79 120 -36 45 -53 23 -91 -119 -18 -68 -37 -128 -42 -133 -15 -15
-38 12 -60 72 -20 53 -21 63 -9 147 14 109 6 148 -33 153 -20 2 -28 -2 -33
-19z"/>
<path d="M3010 16580 c-35 -37 -59 -87 -103 -209 -18 -52 -38 -96 -44 -98 -6
-2 -21 20 -33 49 -19 41 -25 76 -28 158 -2 58 -8 109 -13 115 -18 19 -33 -17
-40 -94 -13 -154 -76 -281 -139 -281 -63 0 -190 124 -190 186 0 60 43 96 115
96 49 0 62 -14 42 -43 -38 -53 -110 -77 -120 -39 -3 11 -10 20 -17 20 -12 0
-5 -36 12 -57 33 -41 153 19 172 85 8 28 6 37 -11 54 -31 30 -100 35 -156 10
-84 -37 -106 -108 -63 -196 49 -99 163 -176 240 -162 42 8 96 67 116 126 l13
40 18 -40 c21 -46 61 -90 83 -90 28 0 55 42 91 145 46 128 90 207 113 203 9
-2 29 -25 43 -51 34 -62 46 -74 60 -60 14 14 -21 108 -52 142 -29 31 -75 28
-109 -9z"/>
<path d="M1622 16563 c-30 -6 -50 -39 -58 -94 -9 -65 11 -127 56 -171 34 -34
43 -38 90 -38 36 0 63 7 86 21 28 17 34 18 34 5 0 -17 57 -86 71 -86 15 0 10
32 -8 52 -21 24 -22 104 0 183 18 67 15 95 -13 95 -23 0 -46 -49 -55 -120 -10
-72 -47 -110 -109 -110 -76 0 -116 52 -116 150 0 67 13 90 50 90 32 0 40 14
14 24 -9 3 -16 5 -17 5 -1 -1 -12 -4 -25 -6z"/>
<path d="M2084 16510 c-12 -4 -30 -20 -42 -34 -14 -18 -22 -22 -25 -14 -4 10
-8 10 -17 -2 -16 -21 -5 -157 20 -256 22 -86 103 -306 126 -341 8 -13 19 -23
25 -23 23 0 18 35 -21 132 -49 120 -90 244 -90 272 0 18 1 18 19 2 51 -46 191
-39 231 11 25 32 25 66 -1 123 -47 104 -147 162 -225 130z m89 -51 c58 -30
107 -101 107 -155 0 -46 -136 -57 -176 -13 -13 15 -16 29 -11 69 6 52 -4 65
-23 29 -14 -25 -24 -19 -16 9 20 62 69 87 119 61z"/>
<path d="M9335 15520 c-110 -4 -279 -15 -375 -25 -116 -11 -205 -15 -264 -10
-263 20 -535 1 -668 -48 -130 -47 -268 -165 -363 -312 -90 -139 -194 -380
-230 -537 -10 -42 -23 -76 -29 -75 -6 1 -13 -25 -17 -63 -3 -36 -14 -93 -24
-128 -19 -67 -14 -95 8 -43 12 29 15 8 21 -206 4 -131 8 -260 10 -288 2 -27 2
-40 -1 -27 -2 12 -9 22 -15 22 -6 0 -8 -11 -4 -27 31 -147 38 -214 32 -322 -9
-149 -15 -208 -27 -251 -18 -67 -8 -430 11 -430 5 0 8 57 9 128 0 70 6 183 13
252 14 141 17 485 6 600 -13 142 -27 625 -19 660 29 118 87 314 111 375 54
137 149 320 198 385 113 149 256 250 402 284 124 29 483 49 504 29 4 -4 35 -8
68 -8 40 0 63 -4 65 -12 6 -18 23 -16 23 2 0 8 2 15 4 15 3 0 85 7 183 16 238
22 490 22 563 0 74 -22 202 -47 208 -41 6 5 -3 8 -83 29 -175 44 -175 44 -21
45 151 1 281 -21 272 -45 -3 -8 -1 -16 4 -19 6 -4 10 -1 10 6 0 23 105 1 289
-60 192 -64 259 -94 310 -136 17 -15 31 -23 31 -18 0 18 -55 61 -115 91 -75
37 -323 118 -435 143 -47 10 -110 25 -140 34 -68 21 -250 26 -525 15z"/>
<path d="M4130 15379 c-52 -4 -129 -13 -170 -19 -86 -13 -506 -119 -594 -150
-164 -57 -661 -366 -813 -507 -84 -77 -369 -421 -400 -482 -25 -49 -28 -69
-31 -164 -4 -103 -2 -110 27 -174 59 -124 286 -323 455 -398 69 -31 174 -57
346 -87 113 -19 169 -23 350 -23 213 1 533 16 723 35 130 13 506 13 640 -1 58
-6 187 -30 286 -53 163 -39 186 -47 258 -92 99 -63 108 -67 288 -109 208 -50
244 -52 407 -22 152 28 184 41 266 104 49 38 308 280 438 410 63 62 111 157
140 272 24 100 40 133 122 260 23 35 42 71 42 78 0 8 13 43 29 78 52 111 67
163 53 177 -10 10 -26 -1 -80 -53 -166 -162 -240 -210 -361 -234 -36 -7 -158
-16 -271 -20 -243 -7 -245 -7 -308 102 -72 125 -93 175 -172 411 -44 128 -86
245 -95 259 -33 49 -161 177 -217 215 -32 21 -79 48 -104 58 -76 33 -323 97
-419 109 -243 30 -615 39 -835 20z m589 -44 c119 -9 252 -22 296 -30 119 -22
317 -80 382 -114 98 -50 236 -181 281 -266 8 -16 48 -128 88 -248 49 -148 91
-251 129 -322 68 -127 97 -162 152 -187 41 -18 55 -18 251 -8 222 12 304 26
380 64 54 27 158 103 203 148 16 17 32 28 35 25 6 -6 -62 -137 -141 -272 -41
-69 -59 -114 -79 -193 -31 -126 -71 -200 -149 -272 -33 -30 -116 -111 -186
-179 -143 -142 -258 -236 -316 -262 -62 -27 -281 -62 -345 -55 -30 3 -126 23
-212 44 -121 30 -170 47 -215 75 -90 57 -153 85 -223 101 -36 8 -114 26 -173
39 -165 39 -302 49 -587 44 -294 -5 -561 -20 -775 -43 -125 -14 -175 -15 -305
-6 -176 12 -424 52 -520 83 -181 59 -425 252 -496 392 -30 59 -40 151 -25 232
13 73 46 122 201 306 227 267 298 325 694 569 209 128 275 157 507 220 301 82
411 101 729 123 111 8 217 6 419 -8z"/>
<path d="M3459 14991 c-15 -16 -34 -50 -41 -75 -17 -66 -30 -57 -26 19 2 47 0
65 -9 65 -7 0 -15 -11 -19 -25 -6 -24 -10 -25 -74 -25 -77 0 -120 -12 -120
-34 0 -19 23 -33 28 -18 2 7 14 12 27 12 22 0 23 -2 13 -37 -13 -49 -6 -152
12 -163 25 -16 29 -1 23 85 -5 65 -3 85 7 85 6 0 10 6 7 14 -6 16 12 26 47 26
21 0 24 -6 30 -67 10 -93 26 -153 42 -153 7 0 16 5 19 10 3 6 28 10 55 10 54
0 100 14 100 30 0 5 -18 10 -39 10 -22 0 -43 5 -46 10 -3 6 -2 10 4 10 6 0 22
17 36 37 41 61 31 160 -19 195 -18 12 -26 9 -57 -21z m61 -88 c0 -39 -21 -75
-57 -99 l-26 -16 6 47 c4 26 16 68 28 93 19 44 21 46 35 28 8 -11 14 -35 14
-53z"/>
<path d="M3885 14996 c-100 -16 -155 -34 -155 -50 0 -11 9 -11 48 -1 26 7 89
19 140 26 106 15 129 7 93 -32 -46 -50 -85 -204 -51 -204 9 0 26 29 46 76 l30
77 30 -61 c58 -121 134 -133 184 -30 14 29 31 52 38 53 8 0 12 21 12 71 0 66
-1 70 -21 67 -17 -2 -25 -16 -39 -69 -19 -75 -49 -141 -67 -146 -20 -7 -53 39
-98 133 -32 67 -50 93 -67 98 -27 7 -22 7 -123 -8z"/>
<path d="M4453 14990 c-18 -11 -46 -38 -63 -61 -55 -76 -59 -143 -11 -180 21
-17 36 -20 85 -17 51 4 63 9 87 36 34 38 36 55 9 82 -22 22 -106 28 -141 10
-23 -13 -24 -2 -2 30 45 68 103 105 103 65 0 -8 5 -15 10 -15 18 0 11 49 -9
60 -26 14 -31 13 -68 -10z m-37 -190 c8 0 14 5 14 10 0 6 24 10 52 10 l52 0
-21 -21 c-40 -40 -125 -23 -122 25 2 20 2 20 6 -1 2 -13 11 -23 19 -23z"/>
<path d="M4720 14970 c0 -4 -15 -11 -34 -14 -19 -4 -36 -13 -39 -21 -7 -17 18
-41 28 -25 3 5 15 10 26 10 18 0 19 -8 19 -145 0 -138 1 -145 20 -145 19 0 20
7 20 150 0 142 1 150 19 150 31 0 75 20 65 29 -12 11 -124 22 -124 11z"/>
<path d="M4879 14959 c-13 -26 -29 -194 -22 -233 4 -21 11 -26 27 -24 19 3 21
8 18 56 -4 50 -3 52 20 48 12 -3 35 -5 51 -5 26 -1 27 -3 27 -54 0 -30 3 -57
7 -60 15 -16 33 18 33 63 0 47 0 47 41 56 53 12 55 28 3 32 -41 3 -42 4 -49
48 -3 24 -10 44 -14 44 -10 0 -21 -35 -21 -66 0 -17 -8 -23 -37 -28 -68 -11
-66 -13 -61 69 3 77 -3 91 -23 54z"/>
<path d="M3686 14945 c-21 -21 -46 -109 -46 -160 0 -63 23 -79 124 -83 90 -4
136 8 136 35 0 16 -9 18 -85 14 -119 -4 -135 1 -135 45 0 21 6 37 15 40 10 4
13 14 9 29 -5 21 -3 23 23 20 81 -10 97 -9 100 2 6 16 -37 33 -82 33 -25 0
-33 4 -29 14 8 21 -12 28 -30 11z"/>
<path d="M3019 14907 c-18 -12 -46 -41 -62 -63 -51 -72 -21 -104 98 -104 73 0
95 -6 95 -27 0 -15 -73 -52 -104 -53 -18 0 -18 1 -1 20 18 20 17 20 -9 20 -64
0 -88 -45 -40 -76 37 -25 126 -4 171 41 39 39 41 58 8 90 -20 21 -34 25 -87
25 -74 0 -108 8 -108 24 0 18 74 86 93 86 11 0 17 -8 17 -25 0 -32 18 -33 26
-1 8 33 -12 66 -40 66 -13 0 -38 -10 -57 -23z"/>
<path d="M5190 14716 c-5 -14 -19 -79 -31 -146 -16 -90 -19 -124 -10 -133 22
-22 35 14 56 158 17 117 18 145 8 145 -8 0 -18 -11 -23 -24z"/>
<path d="M5450 14359 c-48 -53 -87 -70 -97 -42 -4 9 1 29 10 45 9 15 12 28 8
28 -14 0 -39 -34 -46 -61 -12 -48 45 -76 97 -48 18 10 20 9 14 -7 -78 -203
-103 -339 -62 -339 24 0 70 107 54 123 -7 7 7 63 42 166 66 198 61 226 -20
135z"/>
<path d="M4462 14358 c-6 -7 -18 -33 -27 -58 -49 -130 -58 -150 -72 -150 -10
0 -12 -6 -8 -19 3 -11 1 -22 -5 -26 -5 -3 -10 2 -10 11 0 13 -3 15 -11 7 -14
-14 -8 -55 9 -61 7 -2 25 10 41 27 22 24 38 31 65 31 31 0 36 -4 41 -27 15
-73 22 -88 39 -91 18 -4 18 1 12 61 -4 41 -3 68 4 72 5 3 10 13 10 21 0 8 -4
12 -10 9 -11 -7 -17 18 -24 109 -7 84 -27 116 -54 84z m17 -175 c1 -18 -4 -23
-25 -23 -17 0 -24 5 -21 13 2 6 10 30 18 51 l14 39 6 -29 c4 -16 7 -39 8 -51z"/>
<path d="M4637 14363 c-4 -3 -7 -22 -7 -42 0 -20 -7 -72 -15 -116 -29 -162
-14 -225 52 -225 31 0 95 41 117 76 25 37 0 40 -55 5 -54 -33 -79 -39 -80 -18
0 6 -2 19 -3 27 -2 8 3 65 10 125 16 132 9 197 -19 168z"/>
<path d="M3159 14323 c-31 -79 -60 -133 -72 -133 -27 0 -56 32 -72 80 -9 28
-20 50 -25 50 -5 0 -16 3 -26 7 -16 6 -17 -2 -11 -113 7 -137 24 -231 43 -238
21 -8 26 10 32 106 3 63 8 86 15 79 17 -17 68 -13 89 6 17 15 18 12 18 -95 0
-104 1 -112 20 -112 29 0 36 46 30 224 -4 114 -9 161 -17 163 -7 3 -18 -8 -24
-24z"/>
<path d="M3314 14327 c-2 -7 -3 -96 -2 -197 3 -157 5 -185 18 -185 12 0 16 23
20 124 l5 125 28 -43 c15 -23 39 -47 52 -53 22 -10 25 -18 25 -60 0 -35 4 -48
15 -48 15 0 38 33 30 42 -3 3 2 40 10 84 21 109 20 156 -2 152 -11 -2 -25 -26
-38 -63 -12 -33 -26 -59 -31 -59 -12 2 -72 112 -84 157 -11 37 -36 50 -46 24z"/>
<path d="M5190 14319 c-25 -10 -64 -18 -87 -18 -31 -1 -43 -5 -43 -16 0 -8 7
-15 15 -15 8 0 16 -1 16 -2 1 -2 5 -64 8 -138 5 -120 8 -135 24 -138 18 -4 19
5 16 133 l-3 137 38 13 c43 15 70 38 65 53 -3 6 -22 2 -49 -9z"/>
<path d="M4903 14164 c-2 -119 1 -144 12 -144 20 0 25 28 28 135 2 96 -5 140
-25 148 -10 3 -13 -29 -15 -139z"/>
<path d="M3911 14271 c-12 -16 -27 -55 -35 -88 l-13 -58 -8 67 c-4 36 -4 72 0
79 5 7 3 10 -6 7 -8 -3 -18 -18 -22 -35 l-9 -30 -28 29 c-35 34 -85 38 -123 8
-14 -11 -31 -19 -38 -18 -8 2 -19 -16 -28 -42 -19 -60 -3 -145 34 -177 74 -65
149 -30 180 83 10 38 13 43 14 21 2 -45 22 -121 38 -137 12 -13 15 -13 23 0 5
8 10 23 10 32 0 15 13 18 102 20 68 2 103 7 105 15 5 15 -21 21 -102 26 -67 4
-69 10 -29 63 33 43 42 105 20 139 -23 34 -59 33 -85 -4z m34 -106 c-14 -25
-28 -45 -31 -45 -9 0 8 73 24 109 l16 34 9 -26 c7 -22 3 -36 -18 -72z m-189
51 c36 -27 17 -162 -27 -189 -23 -14 -73 8 -87 37 -20 44 11 140 51 156 31 12
41 12 63 -4z"/>
<path d="M4151 14287 c-52 -18 -54 -41 -3 -32 l40 6 7 -98 c9 -140 8 -138 25
-138 13 0 15 18 12 117 l-3 117 42 8 c23 5 44 14 47 21 5 16 -120 15 -167 -1z"/>
<path d="M2836 14273 c-2 -10 -5 -45 -5 -78 0 -33 -7 -109 -15 -169 -9 -59
-13 -112 -10 -117 9 -15 32 -10 38 9 10 39 28 251 24 306 -3 58 -21 86 -32 49z"/>
<path d="M10440 15240 c0 -5 10 -10 22 -10 30 0 106 -81 145 -155 62 -117 97
-310 78 -431 l-7 -49 -20 60 c-10 33 -22 79 -25 103 -3 25 -10 39 -15 34 -10
-10 12 -122 37 -192 12 -34 15 -67 11 -135 -5 -87 -5 -89 8 -40 11 44 13 47
19 25 4 -14 10 -80 13 -147 4 -68 11 -123 16 -123 14 0 9 156 -8 263 -11 69
-14 121 -8 166 l7 66 24 -75 c50 -160 65 -229 75 -345 20 -246 24 -280 30
-265 4 8 8 29 10 45 3 25 9 16 39 -60 20 -49 42 -117 49 -150 13 -57 30 -96
30 -65 -1 47 -34 159 -74 250 -30 67 -46 119 -46 145 0 85 -31 237 -80 395
-30 96 -55 200 -61 250 -19 175 -75 305 -169 395 -53 50 -100 71 -100 45z"/>
<path d="M9498 15205 c-50 -18 -124 -70 -144 -100 -9 -13 -14 -34 -12 -47 4
-23 4 -23 15 3 25 58 140 123 209 117 31 -2 41 -9 58 -40 21 -37 41 -50 41
-25 0 20 25 26 113 26 120 1 174 -26 176 -89 1 -37 20 -33 24 5 9 71 -61 116
-179 114 -41 -1 -87 -4 -104 -8 -25 -5 -35 -1 -61 26 -35 37 -71 42 -136 18z"/>
<path d="M8224 15105 c-66 -33 -198 -140 -314 -255 -116 -114 -161 -188 -206
-344 -18 -61 -42 -137 -53 -169 -11 -32 -25 -103 -31 -159 -13 -131 -13 -558
0 -558 6 0 10 44 10 113 1 198 19 510 33 562 17 61 54 134 101 200 46 64 46
82 -1 30 l-35 -40 7 35 c4 19 25 73 48 120 35 71 58 101 143 185 112 111 242
218 310 254 l45 24 78 -22 c128 -35 153 -23 36 17 -96 33 -117 34 -171 7z"/>
<path d="M9648 14778 c-3 -129 -4 -135 -39 -208 -43 -91 -150 -221 -215 -264
l-48 -31 -256 -1 -255 0 -130 -46 c-229 -80 -382 -160 -541 -284 -53 -42 -91
-65 -90 -56 2 30 -22 22 -29 -9 -4 -18 -35 -67 -69 -108 -33 -42 -80 -106
-104 -143 -48 -73 -109 -220 -119 -283 -11 -74 -20 -72 -39 11 -13 53 -19 117
-19 194 0 112 1 117 33 171 36 63 42 90 15 68 -9 -8 12 26 48 75 99 137 217
257 312 316 141 90 189 124 202 145 14 23 27 109 18 119 -13 13 -33 -18 -33
-53 0 -49 -44 -89 -190 -176 -110 -65 -261 -225 -362 -385 -19 -30 -47 -93
-63 -139 -25 -77 -27 -93 -21 -175 6 -93 17 -143 57 -279 19 -66 25 -78 41
-74 15 4 18 -1 18 -30 0 -72 69 -164 136 -180 l37 -8 -1 -75 c-2 -59 6 -106
37 -223 43 -162 55 -186 109 -223 291 -194 324 -210 454 -230 50 -7 112 -20
137 -28 86 -28 285 -76 314 -76 16 0 55 7 86 15 31 8 106 21 166 30 61 9 182
31 270 50 88 18 192 36 230 39 105 10 162 25 245 67 41 20 101 45 133 54 32 9
73 29 90 45 18 15 55 39 82 53 28 14 57 36 64 50 7 14 19 23 26 21 18 -7 171
324 162 350 -3 6 -20 -22 -39 -63 -21 -46 -37 -70 -42 -63 -4 7 1 27 12 45 10
17 38 76 62 130 24 53 47 97 52 97 11 0 10 47 -1 54 -12 8 -161 -319 -155
-341 7 -25 -37 -121 -82 -180 -22 -30 -56 -58 -88 -74 -28 -15 -60 -36 -70
-48 -11 -12 -47 -30 -80 -40 -34 -10 -100 -38 -147 -60 -65 -31 -107 -44 -170
-52 -46 -6 -151 -24 -234 -40 -82 -17 -204 -39 -270 -50 -66 -11 -160 -29
-208 -40 -106 -24 -114 -23 -397 56 -47 13 -112 26 -145 30 -82 9 -190 54
-272 113 -37 27 -91 61 -120 77 -88 47 -101 67 -144 227 -30 110 -39 162 -39
226 0 72 2 82 18 82 19 0 42 18 42 33 0 5 -12 6 -27 3 l-26 -7 7 83 c3 46 15
133 27 193 11 61 24 182 29 270 17 295 13 278 76 333 170 146 393 270 617 341
l127 41 233 -2 232 -3 57 28 c88 43 206 181 263 307 28 60 30 75 33 203 3 116
1 137 -11 137 -13 0 -16 -23 -19 -132z m-1622 -1050 c-3 -24 -6 -79 -7 -123
-2 -98 -6 -110 -26 -90 -8 8 -30 15 -50 15 -32 0 -34 2 -22 18 13 15 12 16 -3
3 -10 -7 -16 -16 -14 -20 2 -3 -12 -16 -31 -28 l-34 -23 6 23 c4 12 18 40 31
63 29 51 142 204 150 204 3 0 4 -19 0 -42z m-76 -237 c0 -5 8 -7 18 -4 34 8
42 -35 27 -139 -19 -129 -34 -242 -41 -310 -5 -53 -8 -58 -29 -58 -31 0 -88
50 -110 97 -15 32 -17 55 -11 164 8 176 11 184 64 225 43 32 82 44 82 25z"/>
<path d="M10246 14527 c-3 -12 -6 -43 -6 -69 0 -101 -69 -237 -208 -413 -52
-66 -100 -132 -106 -147 -6 -16 -14 -28 -18 -28 -8 0 -28 66 -28 95 0 31 -49
194 -71 237 -23 45 -214 246 -224 236 -4 -3 24 -39 62 -80 126 -134 140 -155
172 -252 16 -50 36 -127 45 -171 22 -111 39 -175 47 -175 3 0 9 20 12 45 9 63
33 106 123 215 42 52 94 122 116 154 l38 59 0 -34 c0 -19 8 -63 16 -99 20 -79
23 -232 6 -281 l-13 -37 -117 -12 c-163 -17 -247 -35 -348 -76 -93 -37 -279
-127 -301 -146 -18 -14 -16 -38 2 -38 8 0 15 5 15 10 0 6 10 10 23 10 12 0 54
16 91 36 74 39 80 31 14 -17 -30 -21 -36 -29 -22 -29 17 0 19 -8 19 -74 0 -65
3 -78 25 -101 53 -57 149 -82 203 -53 41 21 107 80 128 115 44 71 -3 198 -89
242 l-37 19 45 13 c44 12 221 19 250 9 11 -4 14 2 12 23 -2 22 1 27 20 27 46
0 53 -14 34 -64 -10 -25 -29 -62 -42 -82 -33 -48 -26 -71 14 -50 74 38 192
138 229 193 63 93 105 172 123 230 l17 55 13 -60 c21 -99 10 -234 -25 -312
-40 -90 -112 -204 -164 -262 -24 -27 -41 -51 -39 -54 12 -11 125 50 187 100
130 106 162 144 245 301 74 139 94 200 71 207 -5 2 -12 -8 -13 -21 -2 -14 -38
-90 -80 -170 -65 -126 -85 -156 -146 -215 -70 -68 -166 -146 -180 -146 -4 0
15 33 42 73 109 161 148 273 138 398 -6 75 -27 163 -48 206 -6 12 -8 33 -6 48
6 27 -9 46 -17 23 -2 -7 -8 -52 -13 -101 -9 -81 -14 -95 -72 -196 -69 -121
-100 -157 -189 -220 -61 -42 -74 -44 -47 -6 7 11 19 37 25 58 7 20 18 37 24
37 7 0 25 11 41 23 33 27 31 57 -5 57 -16 0 -19 4 -14 18 5 9 10 58 12 107 4
69 0 110 -16 178 -12 49 -21 99 -21 112 0 13 -4 26 -9 29 -5 3 5 39 22 78 22
53 32 94 35 149 4 74 -9 114 -22 66z m-380 -951 c69 -68 60 -106 -48 -196 -69
-57 -115 -66 -162 -29 -22 17 -26 28 -26 70 0 51 25 114 55 139 8 7 29 13 45
12 32 -1 40 15 13 25 -15 6 -15 7 3 14 46 18 76 10 120 -35z"/>
<path d="M9712 13443 c2 -12 13 -18 33 -18 20 0 31 6 33 18 3 14 -4 17 -33 17
-29 0 -36 -3 -33 -17z"/>
<path d="M10876 13851 c-3 -5 6 -35 21 -66 14 -32 37 -99 50 -149 22 -83 25
-119 33 -406 9 -332 8 -323 73 -570 19 -74 47 -196 62 -270 43 -224 77 -319
114 -320 11 0 11 3 -2 18 -24 26 -37 64 -73 217 -21 92 -27 133 -18 120 29
-40 46 -57 51 -51 4 3 -1 14 -10 23 -26 30 -67 126 -67 160 0 17 -4 33 -9 35
-5 2 -28 72 -51 157 -42 154 -48 218 -24 276 7 18 6 18 -9 6 -16 -13 -17 3
-17 225 0 199 -4 258 -22 361 -11 68 -25 123 -29 123 -11 0 -49 74 -49 94 0
18 -16 30 -24 17z"/>
<path d="M8450 13744 c-103 -20 -236 -60 -295 -89 -64 -31 -105 -68 -91 -83 5
-4 173 39 288 75 9 3 -1 -13 -22 -36 -72 -76 -76 -193 -9 -261 47 -47 87 -63
174 -69 l80 -6 -41 -17 c-60 -25 -160 -40 -234 -36 -64 3 -65 2 -65 -22 0 -24
2 -25 70 -24 160 1 357 37 388 72 34 38 -10 85 -57 60 -12 -6 0 12 25 38 72
77 93 119 94 187 0 53 -3 61 -29 82 -15 12 -56 30 -90 40 -106 30 -107 34 -5
34 105 1 151 -10 189 -44 31 -29 121 -61 144 -52 25 10 11 25 -28 33 -19 3
-57 23 -85 44 -28 21 -75 46 -104 55 -51 16 -246 29 -297 19z m145 -117 c11
-7 31 -14 44 -15 37 -2 76 -35 79 -67 6 -46 -27 -113 -83 -171 l-53 -54 -71 0
c-86 0 -126 15 -169 64 -26 29 -32 45 -32 80 0 32 4 43 14 42 8 0 28 24 44 54
16 30 40 61 53 67 32 17 149 17 174 0z"/>
<path d="M8491 13468 c-9 -24 -4 -48 9 -48 16 0 41 32 38 49 -5 26 -37 25 -47
-1z"/>
<path d="M10756 13616 c-74 -28 -176 -132 -176 -182 0 -29 16 -32 25 -3 5 16
10 18 21 8 16 -13 20 1 4 17 -15 15 35 71 94 104 60 35 107 38 147 10 49 -36
65 -139 29 -197 -28 -46 -122 -117 -217 -163 -89 -43 -147 -100 -124 -123 9
-9 18 -4 38 21 16 21 55 48 100 69 87 41 216 140 238 182 19 37 20 131 1 174
-32 75 -106 109 -180 83z"/>
<path d="M9770 13224 c-25 -7 -84 -15 -131 -19 -94 -7 -115 -15 -106 -39 5
-13 20 -15 99 -10 51 3 123 9 159 15 66 9 179 46 179 58 0 12 -155 8 -200 -5z"/>
<path d="M7367 12822 c-5 -7 -6 -66 -2 -130 8 -135 -2 -202 -45 -302 -34 -78
-60 -208 -60 -298 0 -36 2 -63 4 -61 2 2 9 42 15 89 17 123 37 208 66 274 39
89 50 172 39 316 -5 74 -12 120 -17 112z"/>
<path d="M9045 12805 c-23 -22 -25 -31 -25 -120 0 -87 2 -96 18 -93 13 3 18
15 20 63 4 87 11 122 28 140 15 15 11 35 -7 35 -5 0 -21 -11 -34 -25z"/>
<path d="M9256 12425 c-63 -23 -84 -25 -236 -25 -121 0 -171 -4 -184 -13 -16
-11 -16 -15 -3 -25 8 -7 40 -18 71 -24 56 -12 63 -12 301 22 102 15 194 57
179 81 -9 15 -57 9 -128 -16z m-266 -55 c23 -7 22 -8 -10 -8 -19 0 -46 4 -60
8 -23 7 -22 8 10 8 19 0 46 -4 60 -8z"/>
<path d="M7306 12222 c-8 -24 1 -509 10 -524 3 -4 -2 -8 -11 -8 -22 0 -108 90
-125 129 -12 31 -40 43 -40 18 0 -24 56 -102 101 -139 24 -21 52 -45 62 -53
13 -12 15 -20 7 -35 -13 -24 -29 -170 -18 -170 4 0 8 16 8 36 0 19 7 42 15 50
9 10 15 34 15 64 0 44 2 48 24 46 21 -1 26 -8 35 -55 15 -75 13 -188 -4 -236
-8 -22 -15 -42 -15 -44 -1 -17 137 85 176 132 36 43 55 89 69 167 14 81 30 84
67 10 40 -78 51 -155 45 -295 -4 -70 -2 -126 3 -135 9 -14 14 -7 11 13 -4 22
31 169 53 230 54 143 147 296 200 331 29 18 34 36 11 36 -44 0 -161 -164 -216
-302 -15 -40 -28 -69 -29 -65 0 4 -7 42 -16 84 -19 92 -42 141 -84 176 -16 14
-30 35 -30 46 0 19 -17 38 -25 29 -3 -2 -7 -40 -10 -84 -10 -147 -44 -222
-129 -282 l-46 -33 0 95 c0 132 -14 191 -57 233 l-34 34 2 92 c2 147 -15 435
-25 409z"/>
<path d="M10670 12204 c0 -8 5 -25 12 -37 7 -12 11 -49 9 -83 -4 -116 58 -354
94 -354 9 0 6 17 -11 64 -27 76 -54 211 -54 273 l0 45 40 -38 c88 -84 231
-139 357 -139 65 0 86 4 100 17 20 21 10 36 -12 18 -39 -33 -240 10 -358 75
-49 28 -130 109 -149 150 -13 28 -28 33 -28 9z"/>
<path d="M10358 12163 c-22 -5 -23 -31 -3 -60 12 -17 15 -43 13 -98 -3 -86 3
-83 -98 -46 -40 15 -77 21 -135 20 -130 -1 -135 0 -135 16 0 19 -44 48 -75 48
-15 0 -25 5 -25 13 0 8 -9 23 -20 34 -43 43 -220 19 -285 -39 -11 -10 -35 -23
-53 -29 l-34 -12 3 43 c4 67 0 107 -11 107 -12 0 -13 -149 -1 -168 6 -10 14
-9 39 5 26 15 35 16 52 6 24 -16 33 -17 25 -3 -11 18 45 10 64 -9 11 -11 27
-44 37 -74 l17 -55 -37 -66 c-20 -36 -32 -66 -26 -66 6 0 13 7 16 15 4 8 13
15 21 15 8 0 11 5 7 11 -8 13 15 59 31 59 6 0 11 18 12 43 0 23 -1 36 -4 28
-6 -15 -43 69 -46 103 -2 20 -50 40 -75 31 -30 -11 3 17 36 31 60 25 156 30
187 10 14 -9 25 -20 25 -24 0 -4 -20 -14 -45 -21 -25 -7 -45 -18 -45 -23 0 -5
10 -6 23 -2 84 27 134 25 163 -7 19 -21 20 -20 -21 -43 -26 -15 -27 -16 -5
-11 14 4 40 9 58 12 28 5 32 2 32 -17 0 -35 -103 -151 -193 -217 -49 -37 -17
-27 56 17 36 22 73 40 81 40 9 0 16 5 16 10 0 6 -5 10 -10 10 -6 0 5 14 25 31
19 17 35 39 35 50 0 10 5 30 12 45 12 26 13 26 98 22 102 -5 180 -36 180 -71
0 -12 9 -28 19 -34 11 -7 29 -33 40 -58 11 -24 31 -60 45 -78 30 -39 32 -49
11 -41 -23 9 -18 -15 10 -48 14 -16 25 -36 25 -44 0 -26 58 -144 97 -197 21
-28 57 -81 80 -117 24 -36 43 -59 43 -51 0 17 -37 81 -90 158 -21 30 -36 61
-33 69 3 8 -1 14 -10 14 -13 0 -64 97 -55 106 2 2 39 -35 82 -81 42 -47 137
-137 209 -201 73 -65 167 -153 210 -196 68 -69 76 -81 66 -99 -6 -11 -9 -22
-7 -24 6 -7 75 63 80 81 3 11 9 27 13 37 4 10 3 17 -4 17 -6 0 -13 -11 -17
-25 -15 -59 -30 -53 -130 56 -22 24 -96 96 -165 160 -230 214 -378 379 -339
379 21 0 8 24 -50 95 -67 82 -83 130 -78 235 l3 62 65 -78 c37 -44 101 -126
144 -184 96 -128 135 -170 157 -170 21 0 32 27 19 48 -8 14 -9 13 -10 -7 0
-24 0 -24 -21 -5 -12 10 -65 78 -118 149 -54 72 -127 166 -164 209 -36 44 -64
83 -61 88 3 4 -1 8 -9 8 -19 0 -31 31 -16 40 15 10 -1 18 -23 13z"/>
<path d="M11145 12147 c-11 -25 2 -81 26 -112 25 -31 36 -27 18 7 -7 12 -18
46 -25 73 -8 37 -14 45 -19 32z"/>
<path d="M8916 12072 c-2 -4 -7 -24 -11 -45 -6 -29 -4 -37 8 -37 13 0 27 39
27 76 0 15 -16 19 -24 6z"/>
<path d="M8512 11985 c-14 -17 -30 -25 -50 -25 -42 0 -81 -36 -86 -80 -3 -35
-27 -53 -41 -31 -3 6 -28 11 -55 11 -44 0 -55 -5 -122 -59 -114 -91 -143 -124
-171 -193 -35 -89 -52 -180 -38 -206 14 -27 14 -32 -3 -32 -29 0 -94 -92 -161
-227 -38 -76 -102 -185 -141 -243 -39 -58 -81 -124 -92 -146 -12 -23 -28 -44
-35 -47 -8 -3 -38 -44 -66 -91 -29 -47 -56 -88 -62 -91 -5 -4 -9 -15 -9 -26 0
-11 4 -18 9 -15 11 7 65 -59 75 -91 6 -18 4 -20 -14 -16 -31 8 -24 -6 20 -44
22 -19 40 -42 40 -50 0 -9 3 -14 6 -10 7 7 41 -32 72 -85 13 -20 49 -71 82
-114 l59 -77 -20 -28 c-32 -45 -95 -187 -118 -265 -23 -76 -92 -381 -110 -479
-6 -33 -20 -141 -31 -240 -11 -99 -30 -232 -41 -295 -17 -96 -22 -170 -26
-445 -5 -324 9 -841 25 -900 16 -59 26 -18 28 120 1 77 7 151 12 165 6 14 11
19 11 13 1 -7 5 -13 10 -13 6 0 9 12 8 26 -3 39 35 62 126 75 78 10 137 5 137
-11 0 -5 15 -6 34 -3 28 4 52 -4 134 -48 89 -47 125 -58 109 -32 -3 4 -53 33
-112 63 l-107 55 -126 0 c-109 0 -133 -3 -169 -21 -24 -12 -43 -20 -43 -19 0
2 9 54 19 117 11 62 36 232 56 378 48 356 64 430 147 674 39 115 85 259 103
320 19 65 37 110 44 108 7 -1 11 15 11 44 0 36 11 69 48 143 27 53 59 122 72
154 13 31 26 57 29 56 8 0 71 -87 71 -97 0 -4 16 -24 35 -45 19 -21 35 -44 35
-51 0 -7 29 -45 65 -84 36 -40 65 -79 65 -88 0 -8 -11 -19 -24 -24 -26 -10
-42 -28 -32 -37 4 -4 12 -1 18 5 28 28 38 13 38 -57 0 -112 40 -181 105 -181
18 0 38 6 42 13 8 12 100 76 141 96 12 7 27 9 32 6 11 -7 16 16 25 100 12 127
48 205 93 205 12 0 38 -7 57 -14 26 -11 35 -21 35 -39 0 -14 9 -46 21 -72 27
-61 27 -113 1 -134 -12 -10 -22 -34 -26 -63 -8 -56 -19 -65 -51 -44 -41 27
-57 21 -50 -18 9 -47 -17 -95 -55 -103 -26 -5 -30 -10 -30 -39 0 -41 -27 -59
-75 -50 -37 7 -135 89 -135 112 0 8 -4 14 -10 14 -5 0 -10 -11 -10 -25 0 -29
62 -94 114 -119 72 -34 123 -15 153 56 7 14 20 29 30 32 21 7 53 55 53 80 0
12 10 16 34 16 42 0 66 29 66 77 0 21 9 41 25 57 28 28 34 82 14 133 -7 19 -7
29 0 31 31 10 -1 74 -59 117 l-30 22 52 7 c29 3 81 6 116 6 51 0 62 -3 62 -16
0 -14 -10 -16 -70 -12 -38 3 -70 2 -70 -2 0 -24 335 -28 530 -6 139 16 336 10
320 -9 -32 -39 73 -33 334 19 121 25 267 48 322 52 120 8 139 0 180 -81 l26
-50 -39 38 c-41 40 -63 47 -63 21 0 -19 27 -59 88 -132 24 -28 54 -71 66 -95
12 -23 60 -114 106 -202 45 -88 108 -205 138 -260 56 -101 252 -391 307 -454
45 -52 104 -91 137 -91 20 0 31 -6 37 -22 12 -34 24 -168 14 -168 -5 0 -33 36
-62 80 -30 44 -62 87 -72 96 -20 18 -39 11 -39 -13 0 -19 73 -119 107 -148
l24 -20 -58 0 c-46 0 -65 -5 -92 -25 -24 -18 -35 -21 -38 -12 -20 55 -70 54
-158 -4 -88 -57 -155 -92 -224 -115 -56 -20 -238 -56 -304 -61 l-38 -3 -23 65
c-13 36 -58 157 -101 269 -67 180 -76 210 -70 248 3 24 2 43 -3 43 -11 0 -34
-104 -32 -150 1 -60 59 -262 96 -334 19 -38 33 -70 31 -72 -3 -3 -18 4 -102
52 -34 19 -50 34 -47 45 5 24 -72 85 -136 109 -72 27 -172 39 -250 30 -90 -11
-160 -49 -218 -118 -74 -87 -78 -88 -100 -32 -25 61 -55 63 -192 9 -105 -42
-192 -38 -192 7 0 29 -14 30 -76 4 l-47 -21 -121 26 c-67 14 -139 31 -161 37
-63 16 -86 13 -140 -20 -65 -40 -237 -79 -277 -63 -33 13 -58 67 -58 125 0 53
15 78 24 42 9 -38 50 -36 71 4 17 33 18 40 7 40 -5 0 -14 -11 -20 -25 -37 -81
-40 32 -6 200 19 96 35 125 70 125 16 0 23 4 18 11 -3 6 -17 9 -30 6 -13 -2
-24 -1 -24 3 0 15 72 245 83 265 10 19 11 19 18 -5 6 -23 7 -23 8 8 1 36 -21
44 -38 15 -13 -22 -13 -11 -1 47 7 35 5 54 -8 87 -24 61 -44 56 -41 -9 1 -39
-13 -104 -53 -243 -31 -104 -63 -224 -73 -265 -10 -41 -29 -106 -42 -145 -25
-74 -37 -151 -24 -160 5 -2 3 -33 -3 -67 -9 -52 -15 -63 -31 -63 -16 0 -20 -7
-19 -35 1 -19 7 -53 13 -75 6 -22 11 -114 11 -205 l0 -165 -19 40 c-27 57
-101 129 -101 97 0 -5 14 -21 31 -38 42 -40 56 -69 64 -136 13 -102 50 -104
109 -6 62 100 77 114 132 123 27 4 84 25 128 48 61 32 91 41 140 44 33 2 70 4
81 6 16 2 21 -7 30 -52 14 -72 39 -84 31 -15 l-6 49 21 -60 c37 -108 27 -265
-18 -265 -10 0 -13 -22 -13 -90 0 -56 -4 -90 -11 -90 -7 0 -9 -81 -8 -252 l3
-253 -36 -115 c-49 -156 -53 -189 -32 -301 20 -112 38 -157 99 -245 25 -36 45
-72 45 -79 0 -8 29 -45 65 -84 36 -39 65 -75 65 -81 0 -9 67 -80 121 -128 38
-33 132 -64 162 -53 28 11 38 33 74 171 22 84 28 128 28 216 l0 111 -45 50
c-31 34 -57 79 -79 134 -31 77 -34 97 -43 251 -8 140 -7 179 6 243 10 49 16
128 16 215 l0 137 37 49 c65 88 144 174 159 174 8 0 28 19 44 42 34 46 140
236 200 355 35 71 43 72 26 3 0 -3 3 -7 8 -10 9 -5 55 193 56 243 0 25 3 27
42 27 41 0 41 0 20 -18 -25 -22 -45 -69 -36 -84 4 -6 12 4 18 23 7 23 23 40
48 54 33 18 41 18 85 7 63 -17 255 -109 321 -155 52 -36 72 -41 197 -53 39 -4
80 -13 93 -22 17 -11 22 -12 22 -1 0 10 3 10 12 1 14 -14 42 -16 33 -2 -4 6
19 10 62 10 139 1 197 15 331 78 118 56 199 82 256 82 20 0 25 -7 30 -40 9
-55 26 -51 26 6 l0 46 113 -7 c193 -12 242 16 235 136 -3 57 -9 75 -41 123
-20 31 -49 86 -63 123 -31 85 -101 215 -168 313 -27 41 -67 117 -88 168 -76
189 -158 306 -324 459 -79 72 -108 107 -137 163 -49 95 -103 166 -175 231 -33
30 -70 74 -82 99 -13 25 -31 56 -41 69 -31 40 -10 43 27 4 24 -25 38 -33 45
-26 8 8 0 25 -25 57 -19 26 -48 74 -63 106 -16 36 -33 60 -43 60 -28 0 -58
146 -64 311 -4 102 -10 160 -22 190 -19 50 -30 159 -16 159 5 0 15 -12 21 -27
30 -65 131 -317 131 -327 0 -21 77 -171 104 -203 38 -45 240 -155 306 -168 64
-12 163 40 257 135 30 29 34 31 28 13 -12 -43 3 -23 44 58 23 44 59 108 81
142 38 58 40 60 34 27 -4 -26 -3 -31 5 -20 5 8 12 12 14 10 14 -15 77 -152 77
-167 0 -10 16 -47 35 -83 88 -162 195 -383 225 -462 19 -49 37 -88 41 -88 5 0
4 12 -2 26 -15 42 -3 39 14 -3 9 -21 32 -76 51 -121 19 -46 43 -107 52 -135
23 -73 35 -92 43 -78 9 14 65 -124 112 -274 17 -55 35 -104 40 -109 12 -13 12
-8 -7 53 -20 67 -12 77 11 14 9 -27 45 -100 80 -163 131 -239 148 -293 171
-539 8 -86 20 -174 26 -196 15 -51 13 -386 -3 -547 -7 -64 -9 -123 -6 -132 9
-22 27 -20 27 2 0 10 18 43 41 73 22 30 49 70 60 91 29 57 107 291 139 418 16
63 40 159 54 213 34 131 50 301 43 467 -8 208 -39 283 -191 469 -67 82 -85
111 -85 135 2 67 -195 449 -351 681 -82 122 -168 285 -204 384 -38 106 -108
227 -198 341 l-79 99 34 48 c18 26 62 97 97 158 36 60 77 123 91 140 29 34 42
62 31 69 -13 8 -25 -6 -77 -86 -28 -43 -55 -78 -60 -78 -6 0 -18 -22 -27 -48
-20 -56 -93 -172 -108 -172 -18 0 -50 64 -50 100 0 19 5 52 11 73 16 60 4 67
-21 13 -34 -74 -31 -135 7 -189 l32 -43 -23 -40 c-12 -21 -46 -70 -74 -109
-105 -143 -117 -161 -169 -249 -29 -49 -53 -86 -53 -81 0 6 -41 -32 -92 -84
-104 -107 -156 -137 -222 -127 -55 9 -178 78 -196 110 -15 28 -33 36 -23 10 5
-15 3 -15 -24 -1 -16 9 -35 22 -41 29 -15 19 -72 181 -72 207 0 11 -6 24 -13
28 -8 4 -16 15 -19 23 -3 8 -22 52 -42 98 -37 86 -41 110 -6 42 11 -22 25 -40
30 -40 15 0 -30 84 -93 176 l-54 79 5 155 c2 85 9 161 14 168 8 8 6 12 -5 12
-16 0 -26 -27 -28 -75 -1 -16 -8 5 -16 48 -8 42 -19 77 -24 77 -12 0 -11 -25
2 -132 11 -79 10 -90 -5 -107 -12 -13 -17 -34 -16 -63 3 -63 1 -68 -14 -68 -9
0 -16 -12 -18 -27 -2 -16 -9 -28 -17 -28 -8 0 -21 -21 -30 -50 -12 -37 -27
-57 -59 -82 -48 -37 -82 -43 -82 -15 -1 16 -1 16 -11 -1 -29 -49 26 -62 86
-21 30 20 40 23 46 12 5 -7 9 -8 10 -3 2 29 41 -180 43 -235 3 -62 25 -132 45
-144 5 -4 1 18 -10 49 -21 60 -26 108 -6 65 l11 -25 4 28 c2 15 6 27 10 27 14
-1 52 -97 52 -131 0 -31 33 -164 55 -221 11 -28 -17 -21 -41 10 -27 35 -44 93
-45 157 0 44 -1 47 -10 25 -6 -14 -9 -44 -6 -67 4 -40 3 -42 -24 -48 -16 -4
-78 -1 -137 5 -111 12 -162 9 -530 -35 -68 -8 -250 -21 -405 -30 -155 -8 -324
-17 -374 -20 -51 -4 -93 -3 -93 2 0 4 7 28 16 52 10 31 12 47 4 55 -15 15 -27
-1 -49 -64 -23 -65 -24 -53 -7 103 11 110 7 150 -14 118 -10 -17 -20 92 -20
226 0 63 -5 147 -10 186 -26 187 -33 228 -55 317 -12 52 -25 102 -29 110 -4 9
19 60 54 124 34 60 59 110 57 113 -7 6 -71 -95 -122 -195 -37 -71 -63 -107
-110 -150 -76 -69 -122 -141 -187 -286 -27 -61 -56 -123 -64 -138 -18 -34 -18
-44 4 -52 9 -3 23 -9 31 -12 10 -5 12 -2 8 10 -14 36 12 12 45 -41 42 -68 96
-177 73 -148 -28 37 -57 65 -67 65 -6 0 -3 -10 6 -22 44 -63 176 -277 189
-308 8 -19 33 -76 56 -127 23 -50 41 -96 41 -102 0 -6 5 -11 11 -11 6 0 8 -11
4 -29 -5 -23 -2 -29 14 -34 15 -4 20 -12 19 -31 -2 -20 -7 -25 -20 -20 -13 4
-25 -7 -45 -38 -36 -54 -144 -160 -190 -184 l-34 -19 -49 55 c-27 30 -45 56
-40 58 11 4 -43 90 -113 181 -54 70 -44 72 16 4 21 -24 43 -41 47 -38 5 3 19
-13 31 -35 13 -22 27 -40 32 -40 21 0 -142 259 -217 346 -19 21 -37 36 -41 33
-3 -4 6 -20 21 -35 24 -26 149 -206 168 -244 5 -8 -15 10 -42 40 -28 30 -51
59 -52 64 0 5 -26 37 -57 71 -179 192 -290 334 -271 346 7 4 3 11 -10 18 -22
12 -54 99 -71 195 -24 134 -5 266 49 344 32 45 25 59 -9 16 -27 -35 -57 -117
-65 -184 -4 -30 -13 -62 -21 -70 -7 -8 -20 -35 -29 -60 l-17 -45 5 65 c3 59
48 218 81 295 52 119 98 208 102 198 2 -6 -16 -52 -42 -102 -25 -50 -41 -91
-37 -91 5 0 16 16 25 35 23 48 68 118 72 113 3 -2 0 -21 -6 -42 -6 -21 -9 -40
-6 -42 2 -3 22 48 43 113 27 82 57 148 102 222 88 145 100 161 117 154 10 -3
15 2 15 16 0 43 -31 18 -91 -74 -35 -52 -64 -93 -66 -91 -2 2 11 42 28 90 21
58 39 92 55 102 22 15 23 21 17 74 -4 44 0 75 17 131 39 129 68 169 125 169
19 0 35 5 35 10 0 6 -10 10 -22 10 -31 0 97 98 139 106 70 13 90 -24 70 -128
-12 -61 1 -80 51 -76 20 2 38 9 40 17 4 11 -4 13 -37 7 -40 -6 -41 -5 -41 21
0 16 3 38 6 50 5 19 10 21 25 12 24 -12 25 -1 2 17 -17 12 -16 13 7 14 22 1
23 2 7 11 -9 5 -21 8 -26 5 -5 -3 -8 5 -7 19 1 19 6 25 20 23 11 -2 21 3 23
10 3 6 0 12 -6 12 -20 0 -11 41 14 65 33 34 82 34 94 1 14 -35 81 -86 123 -92
l36 -6 4 -60 c2 -32 -1 -63 -6 -68 -14 -14 18 -54 86 -106 35 -26 75 -60 89
-75 15 -15 54 -41 88 -58 33 -17 61 -33 61 -35 0 -4 -33 3 -92 19 -18 5 -28 3
-28 -4 0 -6 4 -11 9 -11 5 0 22 -5 37 -10 26 -10 26 -11 8 -25 -22 -16 -15
-17 43 -6 50 10 49 7 -21 -84 -26 -32 -44 -65 -42 -72 3 -7 -1 -13 -9 -13 -24
0 -18 -13 26 -55 23 -22 74 -87 115 -144 77 -108 140 -166 267 -248 37 -23 67
-47 67 -53 0 -16 27 -11 52 10 12 11 55 43 93 71 103 76 205 169 218 198 6 14
14 55 18 91 21 181 22 200 10 214 -9 11 -9 15 1 18 10 4 10 8 -1 22 -8 9 -19
15 -26 13 -6 -3 -21 6 -34 19 -13 13 -50 37 -83 53 -34 16 -55 31 -49 35 6 4
23 14 38 21 15 8 28 22 28 32 0 13 19 23 73 39 81 25 110 43 91 55 -18 11 49
49 86 50 25 0 27 2 13 11 -14 11 -14 14 9 31 42 33 17 30 -33 -4 -26 -18 -54
-32 -62 -32 -8 0 -26 -11 -40 -24 -14 -12 -21 -23 -17 -23 5 0 0 -7 -11 -15
-15 -11 -16 -15 -4 -15 8 -1 -12 -9 -45 -19 -66 -19 -115 -47 -115 -65 0 -15
-97 -62 -106 -53 -4 4 6 17 22 29 72 56 127 115 121 132 -4 9 -11 16 -16 16
-6 0 -8 -6 -6 -13 3 -7 -17 -35 -45 -62 -27 -27 -50 -46 -50 -42 0 10 106 143
120 152 5 3 10 11 10 16 0 23 -41 -16 -118 -113 l-82 -104 -93 3 c-50 2 -125
8 -166 14 l-73 11 -37 -36 c-36 -35 -61 -46 -61 -27 0 5 -21 22 -47 39 -75 46
-268 203 -272 221 -2 9 6 4 19 -11 12 -16 29 -28 38 -27 11 0 12 2 4 6 -42 17
-57 157 -24 223 16 33 64 62 78 48 3 -4 -6 -23 -21 -42 -34 -45 -22 -47 22 -4
34 33 40 28 23 -16 -14 -38 5 -32 29 10 25 43 25 41 4 47 -13 3 -12 5 5 6 14
1 22 6 19 14 -2 7 -16 11 -32 9 -19 -2 -32 3 -42 17 -20 29 -104 51 -194 51
-71 0 -79 -2 -97 -25z m246 -16 c40 -14 42 -29 4 -29 -33 0 -55 -21 -77 -73
l-15 -37 -38 15 c-39 17 -78 49 -94 78 -8 17 -7 17 12 7 12 -6 26 -10 32 -8 6
2 -3 10 -21 17 -36 15 -36 32 0 43 32 10 155 2 197 -13z m432 -559 c19 -6 102
-15 183 -20 l149 -9 61 -40 c33 -23 78 -46 99 -53 41 -12 46 -26 24 -61 -8
-13 -16 -61 -19 -115 l-5 -94 -53 -55 c-30 -30 -94 -91 -142 -135 l-88 -81
-22 19 c-12 11 -52 40 -90 64 l-68 45 78 5 c66 5 88 12 146 44 72 41 81 51 91
109 10 55 -9 102 -50 128 -33 20 -40 21 -104 10 -38 -6 -84 -11 -103 -11 -44
0 -82 29 -73 56 7 22 81 74 106 74 8 0 39 -16 67 -35 91 -61 125 -36 58 42
-19 23 -35 48 -35 56 0 19 -21 27 -75 27 -32 0 -55 -8 -91 -32 -49 -33 -57
-45 -94 -130 -32 -76 -25 -103 39 -136 61 -32 101 -36 169 -17 60 17 112 14
112 -6 0 -29 -32 -80 -55 -89 -30 -12 -100 -13 -208 -4 l-75 7 -47 68 c-26 38
-71 91 -100 117 l-53 48 75 87 c44 52 81 87 92 87 14 0 18 5 14 20 -4 17 0 20
23 20 16 0 45 -5 64 -10z m-1323 -217 c-12 -32 -28 -63 -37 -70 -28 -21 -27
-18 41 110 18 33 16 16 -4 -40z m-61 -168 c-19 -42 -40 -74 -46 -70 -9 6 37
111 63 143 24 30 17 -3 -17 -73z m724 -130 c7 -27 14 -63 15 -80 1 -16 9 -60
17 -97 9 -38 11 -69 6 -70 -5 -2 -2 -32 6 -68 9 -37 16 -111 16 -171 l0 -106
-27 4 -28 5 27 -26 c20 -19 28 -38 32 -78 8 -77 18 -248 17 -283 -1 -45 -23
-165 -30 -165 -9 0 -191 367 -191 385 0 8 -4 15 -8 15 -10 0 -132 259 -132
279 0 6 -10 15 -22 20 -12 4 -23 18 -24 32 -3 32 35 129 51 129 7 0 22 25 33
55 33 86 137 225 168 225 7 0 21 13 31 30 21 35 26 31 43 -35z m-749 24 c-5
-13 -10 -19 -10 -12 -1 15 10 45 15 40 3 -2 0 -15 -5 -28z m-118 -93 c-18 -38
-33 -56 -46 -56 -12 0 -16 4 -11 13 16 27 78 106 81 103 2 -2 -8 -29 -24 -60z
m-72 -181 c-39 -113 -51 -121 -31 -22 15 79 35 127 53 127 10 0 4 -27 -22
-105z m-78 5 c-3 -12 -8 -19 -11 -16 -5 6 5 36 12 36 2 0 2 -9 -1 -20z m19
-97 c-3 -123 -12 -180 -23 -162 -12 19 -11 59 2 59 5 0 8 4 4 10 -3 5 -12 7
-20 4 -12 -5 -10 8 6 68 25 90 30 108 32 108 1 0 1 -39 -1 -87z m-46 21 c-4
-20 -10 -34 -12 -31 -3 3 -2 21 2 41 3 21 9 35 11 32 3 -3 2 -21 -1 -42z
m2893 -54 c29 -77 19 -72 -15 7 -37 86 -39 92 -21 67 9 -11 25 -45 36 -74z
m1212 -26 c76 -93 152 -224 190 -325 44 -120 114 -253 208 -394 152 -226 374
-641 352 -655 -14 -8 18 -69 71 -135 162 -206 198 -303 198 -535 -1 -180 -15
-290 -66 -495 -74 -304 -153 -532 -209 -600 -15 -19 -15 -15 -11 55 17 236 17
437 2 520 -8 47 -20 143 -26 214 -19 218 -52 317 -195 571 -43 77 -99 209
-129 305 -23 75 -36 101 -45 96 -5 -4 -3 -26 5 -53 8 -25 14 -51 14 -57 -1
-12 -74 157 -94 219 -8 22 -17 39 -21 37 -4 -2 -35 61 -69 140 -73 167 -89
198 -167 335 -33 56 -59 105 -59 108 0 3 -48 105 -107 225 l-106 220 18 40
c10 22 27 47 38 57 15 13 18 14 13 3 -14 -29 19 19 49 71 29 49 73 109 80 109
2 0 32 -34 66 -76z m-4141 14 c0 -40 0 -41 -20 -23 -18 16 -18 19 -3 41 8 13
17 24 19 24 2 0 4 -19 4 -42z m2774 -12 c-9 -60 -20 -76 -27 -40 -5 24 -4 76
2 80 0 0 8 1 17 1 12 0 14 -8 8 -41z m30 -46 c-4 -39 -10 -68 -15 -63 -5 5 -3
39 3 76 14 87 21 80 12 -13z m-2605 -145 l19 -80 -39 44 c-35 39 -39 49 -39
97 0 29 6 65 13 81 l12 27 8 -44 c4 -25 16 -81 26 -125z m2660 -25 c0 -74 0
-75 -14 -41 -16 35 -20 148 -8 191 6 21 9 17 14 -25 4 -27 7 -84 8 -125z m-80
10 c-1 -15 -11 4 -24 45 -31 91 -30 117 0 40 13 -33 24 -71 24 -85z m231 30
c13 -34 20 -63 17 -66 -3 -3 -13 19 -22 48 -10 29 -20 59 -23 66 -2 6 -2 12 1
12 2 0 15 -27 27 -60z m-2897 3 c9 -24 15 -43 12 -43 -8 0 -35 58 -35 76 0 23
3 18 23 -33z m181 -259 c27 -30 46 -57 43 -61 -9 -9 -44 24 -79 75 -40 57 -23
51 36 -14z m3429 31 c-3 -9 -8 -14 -10 -11 -3 3 -2 9 2 15 9 16 15 13 8 -4z
m-814 -135 c0 -9 -4 -8 -9 5 -5 11 -9 27 -9 35 0 9 4 8 9 -5 5 -11 9 -27 9
-35z m-2591 -11 c8 -12 9 -18 3 -14 -6 3 -11 4 -11 1 0 -3 31 -25 68 -51 64
-42 112 -91 112 -114 0 -5 7 -12 16 -15 11 -4 13 -13 8 -28 -14 -48 -79 -184
-101 -214 -13 -17 -44 -96 -69 -175 -25 -79 -83 -260 -130 -401 -91 -277 -112
-363 -144 -593 -44 -323 -71 -503 -83 -575 l-14 -75 -8 90 c-4 50 -5 245 -1
435 6 293 11 368 31 495 14 83 32 220 40 305 33 320 150 780 235 918 23 38 31
39 48 11z m2311 -3 c-14 -13 -615 -87 -693 -86 -22 1 -50 7 -64 14 -24 12 -20
14 54 20 80 7 424 42 479 49 41 5 229 8 224 3z m198 -39 c9 -21 14 -40 11 -42
-21 -21 -684 -36 -716 -17 -7 5 40 14 110 21 68 7 194 23 281 37 187 28 210
29 232 8 8 -9 23 -13 32 -10 14 6 14 9 -3 27 -19 21 -18 21 10 17 22 -2 32
-11 43 -41z m-2446 7 c22 -25 22 -26 3 -16 -12 6 -24 18 -28 27 -8 21 -3 19
25 -11z m60 -31 c13 -16 12 -17 -3 -4 -10 7 -18 15 -18 17 0 8 8 3 21 -13z
m1399 -12 l30 -18 -72 -6 c-40 -3 -100 -4 -133 -1 -37 4 -55 2 -47 -3 8 -6
-44 -14 -145 -22 -87 -7 -182 -17 -211 -23 -30 -5 -56 -8 -58 -6 -2 3 2 18 8
35 14 39 32 43 187 44 97 1 333 11 393 17 10 1 31 -6 48 -17z m1140 -46 c0 -5
-5 -3 -10 5 -5 8 -10 20 -10 25 0 6 5 3 10 -5 5 -8 10 -19 10 -25z m-56 -15
l7 -25 -15 25 c-17 28 -21 50 -7 35 5 -6 12 -21 15 -35z m-49 -30 c10 -33 16
-62 14 -63 -2 -2 -37 -10 -76 -19 -72 -15 -73 -14 -73 6 0 12 7 32 16 44 14
20 14 22 -1 22 -8 0 -20 -10 -25 -22 -5 -13 -9 -17 -9 -10 -1 6 -6 12 -11 12
-6 0 -8 -15 -4 -38 l6 -37 -117 -29 c-64 -15 -119 -25 -122 -22 -4 3 0 17 7
30 9 17 11 47 7 92 l-5 67 103 -6 c64 -4 105 -2 107 4 3 8 78 22 149 28 11 1
21 -17 34 -59z m-882 43 c-13 -2 -35 -2 -50 0 -16 2 -5 4 22 4 28 0 40 -2 28
-4z m21 -22 l140 -6 17 -30 c16 -27 52 -145 46 -151 -8 -7 -197 -24 -273 -24
l-92 0 -7 78 c-7 77 -17 113 -28 96 -2 -5 -1 -31 4 -59 4 -27 8 -65 8 -83 1
-31 -1 -33 -31 -30 -27 3 -36 11 -62 60 -17 32 -34 58 -38 58 -11 0 8 -46 37
-88 14 -20 25 -40 25 -44 0 -5 -43 -8 -95 -8 l-95 0 0 61 c0 70 17 148 34 150
6 1 17 1 25 0 7 -2 10 2 6 8 -13 23 -46 11 -60 -21 l-14 -33 -1 28 c0 15 -5
27 -11 27 -7 0 -9 -37 -7 -110 l3 -110 -25 0 c-81 1 -314 21 -329 29 -9 6 -23
27 -30 48 -11 33 -10 45 4 80 20 49 21 49 190 63 72 6 175 15 230 20 55 5 143
6 195 3 52 -3 158 -8 234 -12z m422 -5 c10 -10 14 -39 14 -99 l0 -85 -67 -7
c-38 -3 -84 -8 -103 -10 -33 -4 -34 -4 -16 10 19 15 19 15 -2 15 -17 0 -24 9
-32 43 -14 54 -31 99 -42 112 -21 24 -8 26 180 33 35 1 58 -3 68 -12z m493
-66 c0 -10 -3 -8 -9 5 -12 27 -12 43 0 25 5 -8 9 -22 9 -30z m-25 -53 c8 -7
21 -27 30 -45 20 -39 40 -44 26 -6 -12 31 -12 34 0 34 9 0 60 -68 60 -81 0 -3
-39 -9 -87 -12 -49 -4 -109 -10 -135 -13 -44 -6 -48 -5 -48 13 0 13 11 25 30
33 28 12 45 38 18 27 -53 -19 -58 -19 -58 7 0 14 3 26 8 26 4 1 30 7 57 15 64
18 83 18 99 2z m-204 -52 c0 -20 -7 -26 -37 -34 -44 -11 -175 -27 -288 -36
-44 -3 -90 -8 -102 -11 -16 -3 -23 0 -23 11 0 8 1 15 3 16 1 0 34 3 72 5 75 6
296 47 336 63 36 14 39 13 39 -14z m-2039 -32 c13 -16 12 -17 -3 -4 -10 7 -18
15 -18 17 0 8 8 3 21 -13z m2075 -49 c0 -1 -68 -16 -149 -34 -153 -34 -206
-35 -352 -12 l-50 8 75 8 c41 4 138 14 215 22 77 8 165 20 195 27 48 11 56 11
61 -3 4 -8 6 -16 5 -16z m-1592 17 c3 -4 16 -6 30 -4 13 3 31 1 40 -4 13 -7
12 -12 -9 -37 -43 -50 -66 -112 -78 -209 l-12 -95 -97 -66 c-53 -36 -104 -66
-112 -66 -8 0 -25 14 -37 32 -19 26 -24 49 -27 118 l-4 87 27 7 c15 4 39 18
54 31 118 106 147 135 173 173 29 42 42 50 52 33z m318 -7 c96 -7 113 -24 25
-24 -35 0 -98 -3 -139 -6 l-75 -7 -5 27 -5 26 61 -5 c33 -2 96 -7 138 -11z
m768 1 c0 -8 -13 -16 -32 -20 -102 -17 -174 -22 -251 -18 -75 5 -87 8 -87 24
0 21 28 24 238 27 110 2 132 0 132 -13z m-387 -24 c-14 -10 -263 -1 -263 10 0
6 45 9 116 8 63 -1 118 1 121 5 3 3 12 1 20 -6 8 -6 10 -14 6 -17z m1366 -81
c21 -30 41 -62 46 -70 16 -29 -44 33 -72 74 -15 22 -38 51 -50 63 -13 12 -23
28 -23 34 0 19 58 -40 99 -101z m-1359 49 l45 -2 -55 -7 c-30 -5 -101 -8 -157
-9 -90 -1 -103 1 -103 16 0 14 12 15 113 10 61 -4 132 -8 157 -8z m1383 -140
c7 -12 6 -22 -6 -39 -15 -22 -16 -22 -41 29 -14 27 -26 53 -26 57 0 10 62 -30
73 -47z m30 -45 c6 -7 -14 -44 -24 -44 -3 0 -4 11 -1 25 4 25 13 31 25 19z
m91 -129 c49 -90 118 -195 128 -195 12 0 9 24 -6 45 -7 11 -26 43 -41 70 l-28
50 27 -25 c72 -66 162 -214 207 -342 14 -41 29 -50 29 -19 0 26 -47 148 -76
199 -14 23 -23 42 -20 42 14 0 166 -269 166 -294 0 -4 -6 -6 -12 -5 -35 4 -40
-3 -11 -17 26 -13 37 -29 56 -83 46 -124 57 -157 57 -165 0 -15 -91 104 -142
186 -28 46 -92 139 -141 208 -50 69 -117 163 -150 210 -33 47 -77 105 -98 129
-40 45 -47 68 -28 102 10 20 11 20 28 -3 9 -13 34 -54 55 -93z m26 -189 c32
-42 39 -59 32 -72 -7 -13 -16 -4 -46 49 -20 36 -36 68 -36 71 0 14 12 3 50
-48z m113 -171 l39 -60 -47 45 c-26 25 -51 56 -56 68 -12 30 0 52 14 26 5 -11
28 -46 50 -79z m45 -101 c1 -1 -4 -6 -12 -13 -11 -9 -18 -5 -35 22 -30 49 -26
55 11 21 18 -16 34 -29 36 -30z m183 -259 c44 -88 30 -75 -58 54 -80 116 -82
122 -28 71 29 -28 62 -75 86 -125z m179 -24 c48 -85 113 -231 102 -231 -17 1
-52 39 -72 79 -21 42 -90 225 -90 238 0 14 20 -15 60 -86z m-61 -111 c0 -10
-3 -8 -9 5 -12 27 -12 43 0 25 5 -8 9 -22 9 -30z m-1054 -107 c9 -20 14 -44
12 -53 -4 -16 -19 13 -31 63 -9 39 1 34 19 -10z m1283 -174 c15 -63 15 -69 0
-69 -11 0 -43 72 -76 170 -3 8 11 0 30 -18 24 -23 38 -48 46 -83z m-90 34 c39
-110 43 -100 -43 -105 -78 -4 -99 -15 -87 -47 6 -14 7 -14 10 0 3 14 21 18
115 21 62 2 114 3 117 0 3 -2 -8 -15 -24 -28 -26 -23 -36 -25 -115 -23 -159 4
-169 7 -176 42 -4 18 -9 40 -11 49 -7 25 27 31 96 17 79 -15 90 -7 90 72 0 33
2 59 4 59 2 0 13 -26 24 -57z m-1473 -7 c28 -7 66 -20 85 -29 40 -18 116 -82
86 -72 -11 3 -54 10 -95 16 -42 6 -88 14 -103 19 -21 6 -28 5 -28 -5 0 -17
-48 -23 -165 -23 -49 -1 -110 -5 -134 -10 l-43 -10 28 30 c39 41 97 77 142 87
57 14 171 12 227 -3z m-1355 -66 c0 -6 10 -14 22 -19 17 -6 8 -10 -41 -15 -34
-4 -70 -10 -79 -13 -9 -3 6 9 33 25 55 34 65 37 65 22z m-427 -67 c4 -6 -5
-15 -18 -21 -29 -13 -29 -15 -13 46 12 47 12 47 18 16 4 -17 10 -35 13 -41z
m2925 46 c2 -10 -17 -24 -50 -40 -29 -13 -86 -46 -126 -73 -93 -61 -141 -76
-272 -81 l-105 -5 69 15 c134 28 279 86 351 140 43 32 108 66 120 62 5 -2 11
-10 13 -18z m-2018 -56 c39 -20 112 -15 184 12 132 50 155 50 170 -1 6 -19 -2
-24 -90 -52 -93 -29 -98 -30 -151 -16 -46 12 -189 68 -201 79 -2 2 9 10 25 18
26 15 28 14 33 -6 3 -12 17 -27 30 -34z m908 24 c29 -11 31 -14 20 -30 -12
-17 -16 -16 -72 6 -57 24 -59 35 -6 35 14 0 40 -5 58 -11z m-1149 -3 c17 -4
31 -10 31 -14 0 -13 -191 -83 -199 -74 -5 5 -12 18 -15 30 -5 17 1 24 36 37
28 11 45 14 52 7 6 -6 17 -10 26 -10 12 1 11 4 -4 15 -19 14 -18 15 11 15 17
0 45 -3 62 -6z m2351 -28 c0 -20 -7 -24 -80 -35 -59 -10 -110 -28 -202 -73
-93 -45 -139 -61 -193 -68 -104 -14 -228 -12 -249 3 -14 11 -1 12 81 9 126 -5
234 11 298 45 161 85 244 124 278 129 20 4 40 11 43 15 9 15 24 -1 24 -25z
m-2661 -6 c-37 -19 -133 -53 -184 -64 l-30 -7 25 21 c14 11 38 20 54 20 16 0
37 7 46 15 15 14 76 32 110 34 8 0 -1 -8 -21 -19z m1695 -60 c42 -23 78 -46
82 -51 3 -5 26 -18 51 -30 25 -11 43 -23 40 -25 -2 -3 -39 -1 -82 5 -64 8 -86
16 -133 48 -31 21 -81 50 -109 63 -51 23 -70 52 -40 63 19 6 107 -27 191 -73z
m-584 30 c0 -30 -3 -38 -14 -34 -16 6 -36 -24 -36 -55 0 -11 -15 -53 -33 -93
-39 -90 -196 -388 -203 -388 -3 0 -2 5 1 10 11 18 -18 11 -40 -10 l-22 -20
-66 52 c-36 29 -66 59 -66 65 -1 7 -12 19 -26 28 -14 8 -37 23 -52 33 -16 9
-35 17 -43 18 -26 1 -70 16 -70 24 0 4 7 11 16 14 8 3 12 10 9 16 -11 17 -57
-15 -131 -92 l-70 -73 -1 55 c-1 30 -12 87 -24 125 -11 39 -22 78 -22 88 -1 9
-4 17 -7 17 -4 0 -16 24 -27 53 -41 101 -40 107 22 127 22 7 69 26 104 42 l65
28 26 -25 c33 -32 44 -32 36 0 -4 14 -5 25 -3 25 2 0 41 -16 88 -37 116 -50
167 -62 287 -70 96 -6 102 -5 102 13 0 15 22 31 83 62 105 54 117 54 117 2z
m-1440 12 c0 -4 -9 -13 -20 -20 -11 -7 -20 -20 -20 -30 0 -14 -2 -15 -10 -2
-16 24 -12 40 13 50 28 11 37 12 37 2z m123 2 c3 -4 -7 -20 -23 -36 -25 -25
-36 -29 -72 -26 -23 2 -43 8 -45 15 -6 16 33 26 55 14 28 -15 35 -1 9 20 l-22
18 46 1 c25 0 48 -3 52 -6z m297 -18 c0 -8 3 -21 6 -29 7 -19 -71 -37 -159
-37 l-62 1 30 17 c31 17 150 59 173 61 6 1 12 -5 12 -13z m785 -26 c-3 -5 -18
-10 -33 -9 -24 0 -25 1 -7 9 28 12 47 12 40 0z m949 -26 c3 -8 2 -12 -4 -9 -6
3 -10 10 -10 16 0 14 7 11 14 -7z m-1954 -24 c14 -14 33 -20 64 -20 40 0 129
14 167 26 13 4 19 -6 28 -48 24 -108 27 -98 -28 -98 -44 0 -49 2 -44 20 4 14
0 20 -11 20 -9 0 -16 -6 -15 -12 4 -23 -13 -48 -32 -48 -11 0 -57 -18 -103
-40 -46 -22 -92 -40 -103 -40 -51 0 -85 -23 -130 -89 l-45 -66 6 55 c3 30 6
119 6 198 l0 142 55 0 c50 0 55 -2 56 -22 l2 -23 4 22 c3 15 14 25 31 29 15 3
32 7 37 9 23 8 36 4 55 -15z m-264 -37 c9 -46 -3 -384 -14 -395 -4 -4 -4 42 1
102 4 61 4 160 0 220 -8 107 -1 147 13 73z m932 -322 c10 -6 51 -37 90 -69 39
-33 83 -68 98 -80 l28 -20 -39 -43 c-22 -24 -63 -73 -90 -108 l-49 -65 2 -132
c2 -92 -2 -151 -12 -198 -18 -76 -22 -315 -7 -407 16 -95 61 -197 114 -255 45
-50 47 -55 53 -125 5 -56 1 -100 -16 -182 -45 -225 -53 -235 -143 -194 -49 22
-167 129 -167 150 0 5 -26 36 -59 70 -32 34 -68 80 -79 103 -11 22 -38 67 -60
100 -46 69 -65 121 -82 223 -15 91 -9 144 29 264 16 51 34 129 41 175 16 116
28 435 19 491 -4 25 -8 67 -8 93 -1 38 3 48 18 53 11 3 23 14 26 24 3 10 40
55 83 100 l77 82 57 -20 c31 -11 65 -24 76 -30z"/>
<path d="M9600 9704 c22 -93 35 -109 25 -30 -8 67 -20 106 -33 106 -5 0 -2
-34 8 -76z"/>
<path d="M11470 11807 c-14 -7 -31 -25 -38 -40 -10 -20 -20 -27 -41 -27 -37 0
-77 -32 -90 -73 -20 -64 -32 -148 -35 -235 -2 -72 -7 -95 -24 -119 -40 -56
-85 -203 -62 -203 17 0 39 44 34 66 -3 13 4 40 17 65 16 31 24 39 27 27 7 -37
22 -16 22 31 0 75 16 81 89 31 34 -22 61 -45 61 -49 0 -5 32 -30 70 -57 39
-26 70 -51 70 -56 0 -4 6 -8 13 -8 6 0 44 -14 84 -32 55 -25 71 -37 67 -50 -6
-21 14 -34 22 -14 3 9 13 16 21 16 10 0 13 6 9 16 -3 9 13 52 39 102 25 47 45
91 45 97 0 7 11 17 24 23 45 20 46 115 1 150 -13 10 -27 35 -30 55 -13 66 -45
84 -117 64 -27 -7 -28 -6 -28 27 0 45 -32 76 -77 76 -20 0 -32 4 -28 10 3 5 1
28 -5 50 -16 61 -81 87 -140 57z m92 -34 c30 -34 32 -65 8 -83 -28 -21 -21
-57 8 -45 34 15 82 17 98 4 12 -10 15 -25 12 -54 l-5 -41 56 8 c31 4 63 5 72
2 20 -6 32 -45 19 -58 -6 -6 -10 -19 -10 -29 0 -14 5 -18 18 -15 32 9 55 -18
56 -64 1 -35 -3 -45 -21 -53 -13 -5 -23 -18 -23 -29 0 -10 -20 -54 -45 -97
-25 -43 -45 -83 -45 -89 0 -23 -147 45 -167 78 -11 19 -183 137 -254 174 -36
18 -39 23 -39 62 0 52 26 190 43 225 22 46 105 37 147 -17 32 -40 26 -52 -25
-52 -47 0 -58 -12 -26 -30 26 -14 74 -13 89 2 7 7 12 27 12 46 0 34 -34 78
-85 109 -19 12 -19 13 8 38 33 29 77 33 99 8z"/>
<path d="M11514 11438 c7 -88 9 -94 25 -83 15 9 14 76 -1 125 -21 65 -31 46
-24 -42z"/>
<path d="M8400 11571 c0 -4 28 -11 63 -14 34 -3 70 -9 80 -12 9 -4 17 -3 17 3
0 5 -26 14 -57 21 -67 13 -103 14 -103 2z"/>
<path d="M8565 11530 c-3 -5 -4 -10 -2 -10 2 0 49 -11 103 -24 148 -36 167
-39 160 -28 -3 5 -22 13 -41 16 -20 4 -69 18 -111 32 -82 27 -100 29 -109 14z"/>
<path d="M4964 11495 c-3 -8 -1 -29 4 -47 28 -91 21 -266 -23 -565 -24 -166
-34 -205 -94 -373 l-31 -85 -42 3 c-24 2 -81 7 -128 13 -47 5 -240 9 -430 9
-407 0 -513 -10 -809 -76 -299 -66 -401 -102 -401 -140 0 -17 1 -17 36 1 16 8
36 15 44 14 8 0 3 -5 -12 -11 -17 -6 -28 -17 -28 -29 0 -27 34 -25 134 10 184
64 412 101 620 101 63 0 168 7 233 16 76 11 179 16 288 16 178 -2 205 1 205
22 0 16 98 11 260 -14 69 -11 163 -24 210 -30 47 -6 110 -17 140 -25 72 -19
126 -19 134 0 8 21 -29 41 -89 50 -27 3 -84 15 -125 25 -41 10 -105 24 -142
30 l-66 12 44 99 c24 54 51 127 59 161 29 122 66 405 72 561 l6 159 26 -34
c14 -18 55 -65 92 -103 91 -95 159 -214 277 -490 95 -222 151 -549 139 -814
-6 -136 4 -279 21 -290 10 -6 26 -98 73 -401 19 -128 21 -168 15 -335 -16
-445 -19 -479 -60 -614 -21 -68 -49 -141 -63 -162 -14 -21 -23 -45 -20 -53 4
-9 -8 -27 -29 -45 -37 -33 -45 -36 -60 -22 -21 20 -136 54 -224 67 -52 7 -162
14 -245 14 -82 1 -198 5 -256 9 -58 5 -184 5 -280 1 -204 -9 -250 -22 -310
-87 l-39 -43 -53 40 c-79 60 -150 73 -389 68 -186 -3 -195 -4 -243 -30 -27
-14 -64 -41 -81 -60 -30 -32 -109 -138 -129 -173 -10 -16 -13 -17 -40 -2 -49
25 -189 143 -220 183 -44 58 -95 165 -95 201 0 17 -5 33 -10 35 -6 2 -17 39
-25 83 -39 218 -48 313 -56 615 -4 173 -13 367 -18 430 -14 157 -14 497 0 502
15 5 35 96 49 225 6 59 14 114 16 122 3 8 7 53 9 100 5 111 45 305 85 418 56
155 81 236 97 313 14 67 64 200 76 200 3 0 2 -87 0 -192 -6 -226 3 -282 67
-434 97 -226 126 -274 172 -274 25 0 23 7 -11 40 -29 30 -110 208 -155 342
-23 67 -26 95 -28 235 -2 87 1 214 6 282 9 115 11 127 35 149 20 18 22 25 11
32 -7 4 -25 7 -39 5 -14 -2 -29 -4 -33 -4 -5 -1 -8 -13 -8 -28 0 -16 -27 -82
-60 -148 -44 -89 -65 -145 -81 -220 -11 -55 -38 -145 -59 -200 -68 -179 -101
-325 -119 -520 -19 -210 -44 -374 -55 -372 -21 4 -28 -357 -12 -608 9 -126 18
-339 21 -473 3 -134 10 -264 15 -290 4 -26 15 -101 24 -167 28 -217 96 -374
208 -481 137 -131 168 -148 458 -244 80 -27 199 -69 265 -94 102 -38 162 -55
291 -81 18 -4 24 -17 34 -69 10 -55 14 -63 31 -59 15 4 18 11 13 27 -10 29
-23 90 -21 92 1 1 29 -2 62 -7 139 -18 398 -5 548 27 l27 6 0 -77 c0 -62 3
-77 17 -82 9 -4 19 -1 21 5 4 14 154 16 187 3 16 -7 14 -9 -14 -14 -19 -4 -57
-7 -85 -7 -66 0 -96 -9 -96 -27 0 -10 6 -13 16 -9 56 21 334 9 450 -20 13 -3
24 -2 24 4 0 8 -41 22 -105 36 -11 2 21 4 71 5 119 1 145 -8 172 -65 12 -24
22 -48 22 -53 0 -5 -17 -37 -38 -71 -37 -61 -39 -63 -103 -79 -76 -19 -119
-44 -119 -68 0 -15 3 -14 15 4 14 19 91 53 122 53 11 0 10 -5 -2 -24 -9 -13
-45 -36 -83 -51 -37 -15 -82 -37 -100 -48 -26 -15 -64 -22 -164 -29 -72 -5
-139 -13 -149 -18 -10 -6 -84 -10 -166 -10 -81 0 -155 -5 -163 -10 -22 -14
464 -13 515 2 22 6 77 13 123 15 47 3 80 8 77 14 -4 5 -21 9 -38 9 l-32 1 45
24 c48 26 65 30 55 16 -14 -24 15 -16 53 13 23 18 55 39 72 46 17 7 44 32 60
56 28 43 24 57 -10 32 -9 -7 1 4 23 25 33 30 42 35 54 25 9 -7 11 -14 5 -16
-6 -2 1 -14 14 -27 27 -27 73 -123 100 -210 10 -32 24 -60 31 -62 18 -7 16
-23 -4 -38 -10 -8 -14 -19 -10 -30 6 -14 10 -15 21 -5 20 16 152 -46 189 -89
25 -30 27 -40 27 -114 0 -92 4 -103 40 -109 l25 -3 -24 -14 c-19 -11 -25 -11
-32 0 -10 16 -10 16 -32 -47 -19 -59 -22 -84 -7 -84 11 0 25 29 34 70 3 16 18
32 38 42 41 20 170 116 181 134 4 8 25 23 45 33 20 11 49 30 64 43 14 13 58
49 98 82 41 34 67 62 61 65 -6 4 10 27 40 57 27 27 57 63 65 81 9 17 38 55 65
85 42 46 49 50 49 30 0 -31 -42 -112 -74 -141 -16 -15 -26 -35 -26 -53 0 -36
11 -36 32 0 9 15 27 36 39 47 l23 20 -17 -27 c-19 -31 -22 -58 -6 -58 14 0
162 151 155 157 -3 3 -35 -23 -71 -57 -36 -35 -65 -61 -65 -59 0 3 11 20 25
39 30 41 31 50 6 50 -18 0 -19 3 -10 29 6 16 9 42 7 58 -2 22 -9 29 -29 31
-31 4 -71 -39 -113 -121 -18 -36 -70 -96 -166 -189 -77 -76 -143 -138 -146
-138 -4 0 -29 -14 -56 -31 -28 -16 -51 -29 -53 -27 -1 2 -46 80 -100 173 -54
94 -122 202 -151 242 -90 121 -205 236 -220 221 -2 -3 37 -49 87 -103 116
-127 109 -116 351 -512 l19 -31 -48 -33 c-26 -19 -50 -32 -53 -31 -3 1 -5 37
-6 80 -1 113 -28 154 -131 206 -29 14 -59 36 -68 49 -16 24 -47 112 -59 162
-6 29 -6 29 9 10 111 -145 200 -253 203 -250 2 2 -31 52 -74 110 -44 59 -128
175 -188 259 -60 83 -120 164 -133 180 -13 16 -22 34 -20 40 3 6 -1 16 -7 21
-13 12 -32 14 -224 25 -81 4 -165 13 -187 19 -22 6 -81 11 -131 11 l-92 0 -5
38 c-14 91 -16 85 33 95 107 20 167 40 253 83 51 25 101 54 112 64 11 10 61
45 110 78 50 33 121 85 159 116 72 59 86 66 86 41 0 -8 6 -15 14 -15 16 0 26
21 26 53 0 26 28 57 45 51 8 -4 24 10 39 34 13 22 47 57 75 78 50 39 66 74 34
74 -9 0 -27 -10 -40 -22 -29 -28 -39 -18 -19 20 8 16 13 32 10 34 -2 3 9 52
25 110 25 89 31 138 43 324 7 120 12 278 12 349 -2 139 -37 417 -81 635 -18
91 -27 178 -33 320 -5 107 -14 242 -20 300 -16 149 -82 402 -132 510 -11 25
-36 80 -54 123 -70 162 -154 297 -244 392 -47 49 -105 116 -129 148 -45 59
-58 67 -67 42z m-1134 -1104 c-18 -10 -170 -31 -214 -30 -25 1 -21 3 17 10 38
8 137 21 202 27 6 1 3 -2 -5 -7z m1354 -2327 c74 -9 142 -25 183 -41 l64 -26
-33 -28 c-18 -16 -67 -53 -108 -84 -327 -240 -393 -269 -730 -320 -58 -8 -148
-18 -200 -22 -99 -6 -329 12 -344 27 -4 4 -15 6 -22 3 -27 -10 -173 28 -324
85 -85 32 -221 80 -302 106 -82 25 -148 50 -148 53 0 4 25 39 56 79 125 164
159 178 432 172 215 -5 260 -16 338 -88 48 -44 63 -46 80 -11 28 56 84 96 157
111 65 14 762 1 901 -16z m201 -804 c3 -5 1 -10 -4 -10 -6 0 -11 5 -11 10 0 6
2 10 4 10 3 0 8 -4 11 -10z m20 -30 c3 -5 -1 -10 -9 -10 -9 0 -16 5 -16 10 0
6 4 10 9 10 6 0 13 -4 16 -10z m-54 -53 c-10 -9 -11 -8 -5 6 3 10 9 15 12 12
3 -3 0 -11 -7 -18z m539 -667 c-14 -11 -29 -20 -35 -20 -5 0 4 9 20 20 38 25
48 25 15 0z"/>
<path d="M4410 7807 c-86 -12 -183 -13 -247 -3 -42 7 -57 5 -77 -8 -14 -9 -37
-16 -51 -16 -50 0 -19 -25 41 -33 117 -16 400 11 411 40 10 25 -10 30 -77 20z"/>
<path d="M10200 11228 c1 -18 7 -46 15 -63 13 -30 13 -30 15 -5 1 21 4 18 15
-15 9 -28 13 -33 14 -18 1 29 -38 133 -50 133 -5 0 -9 -15 -9 -32z"/>
<path d="M10696 11159 c-11 -54 -7 -75 25 -135 17 -32 42 -81 55 -107 14 -27
52 -76 85 -109 55 -56 58 -62 46 -82 -37 -57 -107 -195 -107 -210 0 -25 24
-14 28 13 2 13 26 61 54 108 43 74 51 83 65 71 14 -11 16 -10 11 16 -4 21 2
40 25 75 41 63 45 67 39 35 -3 -19 -1 -25 7 -20 6 4 11 15 11 25 0 10 19 39
41 65 44 50 49 70 8 32 -22 -20 -26 -21 -39 -8 -16 18 -26 7 -70 -78 -46 -86
-41 -85 -91 -34 -24 25 -36 42 -26 38 18 -6 18 -5 2 32 -9 22 -21 51 -27 67
-17 46 -30 32 -24 -25 6 -50 6 -52 -8 -28 -9 14 -15 33 -16 43 0 9 -4 17 -9
17 -6 0 -24 29 -42 65 -26 54 -31 73 -27 115 6 55 -6 68 -16 19z"/>
<path d="M10445 10070 c-13 -21 93 -215 109 -199 7 7 -86 209 -96 209 -4 0
-10 -4 -13 -10z"/>
<path d="M4608 9212 c-58 -53 -135 -123 -171 -154 -36 -32 -82 -83 -102 -115
-21 -32 -51 -72 -67 -89 -36 -38 -21 -55 21 -25 16 12 33 21 37 21 5 0 18 12
29 26 l21 26 -4 -41 c-6 -56 6 -111 23 -111 10 0 12 9 8 34 -3 19 -2 65 2 101
5 53 13 73 35 98 l28 32 -5 -67 c-7 -81 0 -113 33 -143 l25 -23 -33 -7 c-58
-12 -68 -16 -68 -30 0 -17 34 -13 114 12 48 15 126 75 126 97 0 6 8 20 17 31
13 16 15 17 10 3 -4 -10 -2 -18 3 -18 5 0 26 33 46 73 20 39 50 87 65 105 31
35 37 54 17 50 -7 -1 -29 8 -48 20 -40 25 -33 29 11 6 39 -19 52 -9 21 17 -37
29 -100 45 -123 31 -10 -7 -19 -8 -19 -4 0 5 15 16 34 24 38 19 106 75 106 89
0 15 -20 10 -47 -11 -33 -26 -52 -26 -29 -1 16 18 15 41 -2 41 -4 0 -55 -44
-114 -98z m95 -91 c89 -42 94 -46 78 -65 -12 -15 -15 -15 -26 0 -10 15 -13 12
-18 -19 -3 -21 -24 -58 -52 -92 l-46 -57 6 35 c14 71 -34 146 -94 147 -25 1
-25 2 18 40 24 22 50 40 58 40 7 0 41 -13 76 -29z m-118 -106 c20 -19 25 -34
25 -72 l-1 -48 -14 30 c-16 37 -19 23 -4 -28 13 -49 4 -77 -25 -77 -37 0 -59
34 -64 99 -5 63 16 121 44 121 8 0 26 -11 39 -25z"/>
<path d="M3370 9206 c0 -7 7 -19 15 -26 13 -11 13 -14 -2 -26 -15 -11 -16 -16
-5 -33 12 -20 10 -21 -35 -21 -83 0 -94 -7 -87 -49 6 -37 46 -105 87 -151 74
-83 259 -210 307 -210 28 0 25 19 -6 30 l-26 10 21 18 c19 16 51 111 51 157 1
19 2 19 21 -4 24 -29 19 -87 -14 -164 -11 -26 -17 -50 -14 -54 19 -18 77 104
77 161 0 18 4 16 33 -12 35 -34 57 -41 57 -18 0 13 -160 168 -225 217 -16 13
-59 49 -95 80 -66 57 -138 109 -152 109 -5 0 -8 -6 -8 -14z m85 -71 c17 -13
26 -24 20 -24 -14 0 -63 28 -50 29 6 0 3 5 -5 10 -8 5 -10 10 -5 10 6 0 24
-11 40 -25z m12 -86 c75 -11 143 -40 143 -60 0 -6 -8 -9 -17 -8 -10 1 -23 1
-30 0 -19 -2 -53 -84 -53 -129 0 -46 -11 -53 -37 -22 -10 11 -22 20 -28 20
-15 0 -106 96 -138 144 -44 67 -8 79 160 55z m187 -144 c-2 -83 -21 -134 -51
-141 -34 -9 -57 6 -61 41 -2 15 1 25 6 21 5 -3 19 19 31 49 17 40 26 52 38 48
12 -5 14 -1 8 16 -6 19 -4 22 12 19 15 -3 18 -12 17 -53z m-86 20 c-6 -14 -13
-23 -15 -21 -5 5 15 46 22 46 3 0 -1 -11 -7 -25z m-21 -67 c-3 -7 -5 -2 -5 12
0 14 2 19 5 13 2 -7 2 -19 0 -25z"/>
<path d="M3923 9071 c-3 -12 -9 -21 -15 -21 -14 0 -5 -153 10 -158 6 -2 12 3
12 11 0 9 4 17 10 19 15 5 17 160 2 166 -8 2 -16 -5 -19 -17z"/>
<path d="M4193 9076 c3 -8 0 -17 -8 -20 -31 -11 -31 -186 0 -186 21 0 26 13
35 106 10 92 6 114 -17 114 -9 0 -13 -6 -10 -14z m4 -118 c-2 -18 -4 -6 -4 27
0 33 2 48 4 33 2 -15 2 -42 0 -60z"/>
<path d="M9107 9033 c-24 -47 -128 -609 -143 -770 -6 -62 -4 -73 8 -73 32 0
107 310 133 545 8 77 19 170 25 207 13 84 13 118 0 118 -5 0 -16 -12 -23 -27z
m-90 -635 c-3 -8 -6 -5 -6 6 -1 11 2 17 5 13 3 -3 4 -12 1 -19z"/>
<path d="M11730 8294 c-17 -45 -33 -259 -26 -359 5 -84 23 -161 60 -264 9 -24
16 -45 16 -47 0 -3 -114 38 -155 55 -49 21 -176 31 -277 20 -176 -18 -331 -57
-342 -85 -10 -26 3 -35 23 -15 30 30 323 77 431 69 38 -2 46 -7 48 -25 4 -25
22 -32 22 -9 0 27 107 12 191 -26 l76 -35 17 -84 c10 -46 26 -96 36 -110 13
-18 15 -30 8 -42 -13 -24 5 -21 28 4 10 12 62 53 116 91 53 38 129 100 169
138 40 38 77 66 83 63 5 -4 7 1 2 12 -4 11 -2 22 6 27 9 5 7 8 -7 8 -11 0 -50
-30 -90 -69 -86 -84 -263 -223 -279 -218 -16 5 -51 150 -37 155 6 2 11 17 11
33 0 16 11 52 25 79 25 49 21 74 -7 42 -9 -9 -24 -34 -35 -56 l-20 -39 -28 89
c-53 169 -55 182 -55 359 0 94 5 188 10 210 11 49 -4 72 -20 29z"/>
<path d="M9998 7763 c-1 -5 -2 -87 -2 -183 -1 -96 -5 -181 -10 -189 -6 -9 -14
2 -27 39 -42 121 -72 136 -244 125 -66 -4 -132 -7 -147 -8 -21 -2 -28 -7 -28
-23 0 -28 10 -36 28 -21 15 12 269 21 298 10 8 -3 22 -19 30 -36 15 -27 15
-29 0 -24 -22 9 -20 -6 4 -28 11 -10 34 -43 50 -74 23 -42 29 -62 24 -88 -7
-39 12 -46 22 -8 3 13 12 29 19 35 8 7 11 24 8 48 -5 34 -1 41 33 72 45 39
158 94 178 87 20 -8 34 -226 15 -239 -11 -7 -11 -11 -1 -15 6 -2 12 -17 13
-31 l0 -27 12 25 c6 14 16 28 22 32 19 14 269 8 373 -9 84 -13 108 -14 124 -4
36 22 10 -28 -44 -88 -51 -56 -77 -99 -98 -166 -26 -82 -125 -271 -206 -393
-46 -70 -84 -136 -84 -147 0 -11 14 -56 31 -100 17 -44 40 -120 50 -169 11
-49 34 -121 51 -160 39 -90 50 -227 23 -290 -19 -44 -82 -106 -108 -106 -43 0
-118 43 -147 85 -16 23 -55 69 -87 101 -33 33 -92 96 -132 141 -81 91 -201
189 -201 165 0 -5 19 -22 43 -39 23 -17 65 -55 93 -85 173 -180 246 -261 268
-296 28 -44 110 -92 159 -92 38 0 92 43 125 99 24 42 27 55 26 141 0 83 -5
105 -32 174 -18 43 -41 117 -52 165 -10 47 -28 113 -40 146 -49 136 -51 117
32 240 82 119 185 314 218 409 24 70 37 92 101 166 57 66 78 110 52 110 -13 0
-8 9 17 34 51 49 107 200 120 319 13 128 13 170 -2 165 -9 -3 -17 -46 -25
-119 -17 -158 -63 -299 -115 -351 -44 -44 -63 -46 -185 -23 -82 16 -223 19
-309 6 l-51 -7 -6 155 c-5 147 -7 160 -37 231 -51 118 -69 125 -26 9 13 -35
26 -79 29 -96 6 -31 5 -33 -21 -33 -33 0 -129 -44 -159 -72 -13 -12 -26 -18
-30 -15 -3 4 -1 55 5 114 15 137 15 186 0 201 -13 13 -37 16 -40 5z"/>
<path d="M3895 7365 c-21 -6 -124 -25 -199 -35 -56 -9 -81 -9 -89 -1 -6 6 -25
11 -42 11 -38 -1 -164 -50 -202 -79 -49 -38 -144 -134 -138 -139 3 -3 24 12
48 34 23 22 53 49 66 59 l24 20 -13 -24 c-18 -36 -111 -124 -153 -145 -50 -26
-126 -103 -179 -182 -24 -35 -50 -64 -59 -64 -43 -1 -148 -178 -184 -312 -12
-46 -22 -65 -31 -61 -16 6 -43 -45 -60 -112 -7 -27 -13 -42 -13 -32 -1 9 -6
17 -12 17 -5 0 -8 4 -5 9 10 15 -22 21 -34 6 -8 -10 -8 -19 -1 -34 15 -26 14
-29 -6 -27 -12 0 -25 -13 -37 -37 -23 -47 -82 -211 -106 -293 -10 -34 -21 -71
-25 -83 -3 -12 -2 -21 4 -21 5 0 15 16 21 36 21 63 22 29 1 -52 -10 -44 -25
-105 -31 -136 -11 -57 -12 -58 -44 -58 -62 0 -119 -73 -150 -192 -22 -85 7
-228 49 -244 7 -3 16 -16 19 -30 8 -29 26 -32 26 -4 0 11 5 20 10 20 6 0 10
10 9 23 -5 58 2 60 27 7 36 -77 60 -91 71 -39 4 21 9 27 16 20 17 -17 45 -13
51 7 13 46 28 143 22 149 -13 13 -27 -15 -36 -72 -5 -32 -11 -60 -14 -62 -8
-8 -36 60 -36 89 0 18 -5 28 -15 28 -12 0 -15 -16 -16 -77 l0 -78 -22 45 c-12
25 -26 48 -30 51 -4 3 1 27 12 52 11 26 16 47 11 47 -15 0 -57 -70 -72 -117
-7 -24 -16 -43 -19 -43 -17 0 -39 73 -39 127 0 76 14 125 46 156 22 22 23 26
8 29 -25 5 46 78 76 78 20 0 22 -4 18 -35 -2 -20 0 -34 5 -32 13 4 32 65 62
207 15 69 47 190 72 270 29 95 43 154 39 173 -6 30 8 67 24 67 5 0 12 -11 16
-25 5 -18 10 -23 18 -16 9 7 35 -13 92 -70 43 -44 93 -89 111 -100 28 -18 30
-22 23 -52 -18 -65 -42 -279 -36 -313 10 -49 26 -42 26 12 0 27 4 43 10 39 6
-4 10 9 10 31 0 44 64 182 88 191 9 4 20 11 24 16 3 6 20 12 38 14 22 2 52 21
97 63 36 33 70 60 76 60 5 0 7 10 4 23 -7 25 1 41 24 50 10 3 24 28 33 55 15
43 40 71 52 59 9 -8 34 -141 48 -252 19 -145 21 -392 4 -431 -10 -21 -10 -28
2 -38 8 -6 16 -27 17 -46 7 -150 17 -250 24 -250 4 0 9 23 11 52 4 66 20 71
36 11 7 -27 17 -62 22 -79 16 -50 13 -54 -34 -54 -130 0 -125 -160 6 -224 59
-29 137 -46 208 -46 47 0 48 -1 54 -35 9 -46 37 -49 30 -2 l-6 32 105 2 c104
2 105 2 111 -23 4 -14 11 -22 15 -19 5 3 7 13 4 24 -6 24 29 31 156 31 53 0
173 8 266 16 167 16 246 20 515 25 74 1 164 8 200 15 55 11 226 65 283 89 16
7 17 -3 17 -129 0 -106 -3 -136 -13 -136 -7 0 -23 -9 -35 -20 -13 -13 -35 -20
-60 -20 -41 0 -181 -39 -228 -63 -43 -22 -78 -64 -113 -135 -50 -100 -107
-188 -168 -260 -87 -102 -95 -107 -183 -107 -66 0 -84 4 -155 38 -44 21 -94
49 -112 63 -28 21 -31 28 -21 43 26 42 -156 268 -257 318 -92 47 -284 94 -307
76 -7 -6 -69 -9 -138 -9 l-125 2 3 48 c2 27 1 68 -3 91 -5 36 -9 42 -25 38
-15 -4 -20 -14 -20 -37 0 -18 4 -36 9 -42 5 -5 12 -30 16 -56 6 -40 5 -48 -8
-48 -18 0 -22 -12 -66 -195 -42 -174 -54 -260 -49 -371 4 -105 23 -158 61
-170 21 -7 39 6 19 13 -49 18 -59 203 -22 408 14 76 27 121 32 113 4 -7 8 -24
8 -38 l0 -25 13 25 c9 17 11 48 7 97 -3 39 -2 69 2 66 5 -2 8 3 8 11 0 8 -4
18 -10 21 -5 3 -10 11 -10 16 0 7 68 9 203 7 196 -4 205 -6 291 -36 105 -37
115 -43 195 -118 74 -68 91 -98 91 -157 0 -29 7 -53 19 -69 19 -24 19 -25 -6
-95 -16 -47 -31 -73 -43 -76 -23 -6 -44 -78 -35 -123 4 -24 -2 -52 -19 -96
-13 -35 -43 -117 -66 -183 -35 -100 -106 -291 -152 -408 -6 -16 -15 -24 -20
-19 -4 4 3 35 17 70 14 34 25 69 25 79 0 36 -27 -12 -71 -124 -24 -62 -46
-113 -49 -113 -3 0 -14 14 -24 31 -10 17 -30 38 -46 47 -15 9 -39 31 -53 48
-37 43 -107 79 -140 70 -40 -10 -166 -116 -220 -186 -47 -60 -65 -90 -54 -90
3 0 57 51 119 114 134 134 158 152 187 136 12 -6 21 -14 21 -19 0 -13 131
-163 137 -157 3 3 -2 17 -11 30 -9 14 -12 27 -7 31 12 7 69 -52 77 -80 4 -11
11 -23 17 -27 7 -4 4 -36 -7 -95 -25 -129 -35 -163 -48 -160 -6 1 -15 -11 -19
-28 -18 -62 -59 -266 -58 -288 1 -17 2 -18 6 -4 2 9 11 17 19 17 9 0 14 11 14
34 0 19 16 85 35 146 19 61 44 148 56 193 37 147 79 267 129 370 27 56 63 143
79 192 36 112 66 193 74 201 3 3 3 -4 0 -17 -4 -15 -3 -20 5 -15 7 4 12 13 12
19 0 52 141 510 161 522 4 3 17 -4 30 -14 38 -29 120 -68 183 -86 57 -17 160
-17 197 -1 14 6 16 -1 16 -56 -1 -66 17 -131 63 -233 19 -41 28 -79 29 -119 1
-32 11 -85 22 -118 11 -32 17 -63 14 -68 -6 -9 161 -356 176 -365 13 -9 11
-25 -3 -22 -21 4 -31 -175 -13 -244 8 -31 15 -92 14 -135 0 -79 0 -79 -13 -39
-31 98 -66 135 -127 135 -36 0 -60 -22 -39 -35 6 -4 10 -1 10 4 0 14 45 14 70
1 28 -15 58 -74 72 -142 7 -35 16 -65 20 -68 4 -3 9 -51 12 -107 4 -98 6 -104
38 -144 18 -22 50 -50 70 -60 44 -23 117 -25 144 -4 12 9 44 14 91 15 39 0 78
3 87 6 33 13 2 24 -65 24 -39 0 -69 4 -69 10 0 6 23 10 50 10 28 0 50 4 50 8
0 5 -57 8 -127 8 -117 -1 -132 1 -178 24 -48 24 -50 27 -57 75 -10 77 -9 210
1 220 9 9 7 31 -14 123 -4 17 -2 21 6 16 9 -5 10 1 4 22 -18 67 -24 113 -25
182 0 70 1 73 23 70 29 -3 137 30 137 42 0 5 -8 7 -17 5 -10 -3 8 7 40 22 31
14 57 30 57 34 0 14 -103 -30 -121 -50 -8 -10 -29 -22 -46 -25 -29 -7 -34 -3
-68 41 -23 30 -34 54 -31 67 3 11 -4 30 -15 44 -10 14 -19 37 -19 53 0 15 -6
32 -14 36 -8 4 -26 42 -41 83 -15 41 -38 104 -51 140 -13 36 -24 82 -24 103 0
34 1 36 20 25 31 -20 36 0 7 30 -21 22 -27 38 -27 71 0 37 -2 42 -19 36 -31
-10 -66 99 -66 205 l0 85 58 68 c65 77 90 115 159 241 27 50 61 103 75 118 32
33 151 75 248 87 38 4 71 13 73 19 2 7 14 12 26 12 28 0 52 -66 96 -270 18
-80 43 -190 57 -245 41 -163 43 -200 27 -419 -8 -110 -19 -232 -24 -271 -5
-38 -9 -80 -9 -92 -1 -34 -13 -28 -43 22 -26 44 -48 58 -48 33 0 -7 -21 -26
-48 -42 -153 -96 -303 -236 -252 -236 6 0 10 7 10 15 0 20 145 127 168 123 11
-2 18 4 20 17 2 18 108 103 116 94 2 -2 18 -32 35 -67 17 -34 40 -68 51 -74
20 -13 28 -58 10 -58 -5 0 -10 7 -10 15 0 8 -4 15 -9 15 -11 0 -21 -36 -21
-80 0 -19 -13 -75 -30 -123 -33 -98 -54 -207 -41 -220 4 -4 13 17 19 48 17 85
52 195 61 195 5 0 10 -30 13 -68 3 -37 14 -89 26 -115 17 -38 21 -70 23 -160
l1 -112 -61 0 c-41 0 -62 -4 -66 -13 -4 -11 16 -12 105 -8 l110 6 68 -68 c54
-52 71 -77 82 -115 13 -48 12 -49 -13 -70 -25 -22 -38 -43 -57 -91 -17 -45 8
-29 29 18 12 29 31 50 51 61 30 15 31 19 25 53 -10 55 -50 118 -103 160 -26
20 -48 41 -49 47 -2 12 -31 23 -64 24 -30 1 -39 27 -39 117 0 66 18 87 92 108
81 23 158 29 221 17 74 -13 116 -34 171 -82 41 -36 67 -49 65 -31 -3 22 -115
107 -162 123 -79 28 -213 25 -302 -5 -38 -13 -74 -22 -79 -19 -7 5 -3 254 5
313 6 47 -2 230 -11 230 -5 0 -10 -11 -10 -25 0 -14 -4 -25 -8 -25 -5 0 -13
-12 -19 -28 l-11 -27 0 30 c-1 17 5 77 13 135 38 275 42 576 10 690 -8 30 -35
147 -60 260 -25 113 -56 234 -69 270 -20 53 -25 91 -30 208 -4 98 -2 148 6
161 27 43 -30 124 -84 119 -36 -3 -52 -28 -18 -28 21 0 70 -41 70 -59 0 -6
-15 -18 -32 -27 -55 -28 -260 -94 -294 -94 -31 0 -32 1 -36 53 -2 28 -3 54 -2
55 7 11 124 13 143 3 17 -10 30 -9 58 0 33 11 38 10 54 -10 24 -29 33 -26 26
8 -5 23 -2 30 13 34 11 3 20 10 20 17 0 7 -8 9 -22 4 -13 -4 -46 -7 -75 -7
-29 0 -53 -3 -53 -6 0 -4 -30 -8 -67 -9 -38 -1 -104 -12 -148 -24 -90 -25
-232 -29 -247 -6 -6 10 -10 10 -17 -1 -8 -12 -84 -13 -508 -7 -457 6 -565 2
-615 -19 -16 -6 -18 0 -18 64 0 152 -51 310 -127 389 l-39 41 4 123 c5 141
-34 459 -65 544 l-19 49 44 85 c24 47 50 90 58 96 8 6 14 16 14 22 0 6 -24 -5
-52 -25 -59 -39 -142 -83 -158 -83 -5 0 -10 6 -10 13 0 16 47 44 105 61 24 8
66 27 92 42 27 16 51 29 55 29 12 0 78 82 71 89 -13 13 -31 5 -64 -27 -37 -36
-127 -92 -135 -85 -2 3 0 17 5 32 7 17 7 26 1 26 -6 0 -10 -4 -10 -10 0 -5 -9
-18 -21 -29 -12 -11 -19 -24 -15 -29 5 -9 -86 -72 -105 -72 -5 0 -15 -12 -21
-26 -10 -20 -9 -27 2 -34 15 -9 20 -24 27 -87 4 -30 1 -43 -7 -43 -22 0 -39
-32 -28 -50 17 -26 -21 -93 -77 -139 -27 -23 -57 -41 -66 -41 -9 0 -28 -9 -42
-20 -30 -24 -41 -25 -33 -5 3 10 -1 15 -13 15 -10 0 -24 7 -31 15 -7 8 -20 15
-30 15 -25 0 -112 71 -106 86 3 8 -2 18 -12 23 -13 7 -18 27 -20 89 -5 104 33
262 93 387 39 82 105 178 91 132 -25 -79 -10 -93 25 -24 38 74 119 184 175
237 30 29 57 50 60 48 2 -3 5 -17 6 -31 3 -32 3 -32 58 -12 34 12 50 13 81 3
35 -10 54 -28 29 -28 -5 0 -10 -4 -10 -9 0 -5 20 -6 45 -4 24 3 93 -2 152 -11
210 -31 358 -39 652 -37 162 1 299 5 305 9 6 4 -56 10 -139 14 -220 9 -426 31
-395 42 17 6 -30 11 -150 16 -162 7 -309 22 -370 38 -17 4 4 10 70 19 112 15
519 63 538 63 7 0 11 3 8 8 -7 11 -211 -4 -481 -37 -232 -29 -314 -30 -322 -6
-2 6 19 35 47 65 27 30 50 63 50 72 0 10 12 25 26 35 22 14 29 14 46 4 16 -10
22 -10 28 -1 4 7 23 12 41 12 19 -1 49 -2 68 -2 58 0 183 -30 234 -56 65 -32
72 -23 13 14 -48 30 -132 56 -219 67 -27 4 -47 8 -45 10 4 4 186 29 331 46 59
7 110 16 113 21 5 7 -108 11 -131 3z m-324 -60 c-18 -8 -47 -15 -65 -15 l-31
1 30 14 c17 7 46 14 65 14 l35 0 -34 -14z m-294 -282 c2 -6 -5 -14 -17 -18
-26 -8 -33 -3 -24 19 7 19 35 18 41 -1z m180 -19 c-3 -3 -12 -4 -19 -1 -8 3
-5 6 6 6 11 1 17 -2 13 -5z m46 -11 c-7 -2 -19 -2 -25 0 -7 3 -2 5 12 5 14 0
19 -2 13 -5z m54 -9 c-3 -3 -12 -4 -19 -1 -8 3 -5 6 6 6 11 1 17 -2 13 -5z
m-816 -591 c-12 -20 -14 -14 -5 12 4 9 9 14 11 11 3 -2 0 -13 -6 -23z m586 -7
c-9 -13 -24 -23 -33 -22 -12 1 -18 -8 -21 -29 -6 -44 -13 -44 -13 1 0 35 4 41
38 61 44 25 51 22 29 -11z m36 9 c-3 -9 -8 -14 -10 -11 -3 3 -2 9 2 15 9 16
15 13 8 -4z m-633 -119 c-5 -15 -14 -24 -20 -21 -6 4 -4 19 5 42 8 19 16 38
16 42 1 3 4 -3 6 -15 2 -11 -1 -33 -7 -48z m511 -73 c-12 -20 -14 -14 -5 12 4
9 9 14 11 11 3 -2 0 -13 -6 -23z m-291 -232 c0 -3 -10 -19 -21 -36 -12 -16
-18 -22 -15 -12 3 10 6 29 6 43 0 17 4 22 15 18 8 -4 15 -9 15 -13z m556 -509
c25 -53 28 -67 9 -54 -12 8 -75 134 -75 147 1 17 39 -38 66 -93z m20 -317 c1
-11 2 -26 3 -32 1 -7 12 -13 25 -13 20 0 25 -6 28 -32 4 -38 28 -51 28 -15 0
34 25 57 60 57 26 0 29 -4 35 -42 3 -24 8 -55 11 -70 3 -14 2 -28 -3 -30 -4
-3 -44 -2 -88 2 -110 9 -186 44 -214 99 -26 50 -26 56 0 82 28 28 113 24 115
-6z m1506 -117 c-2 -5 -61 -8 -132 -8 l-128 0 -4 39 -3 39 124 4 c99 2 126 6
130 18 3 8 8 -7 11 -35 3 -27 4 -53 2 -57z m-1186 71 c-119 -13 -125 -32 -7
-23 107 8 111 6 111 -68 l0 -48 -100 0 c-113 0 -103 -8 -115 98 l-6 52 98 -1
98 -2 -79 -8z m642 -51 l3 -46 -68 -8 c-135 -14 -127 -16 -133 43 l-5 52 55 4
c30 2 75 3 100 3 l45 -1 3 -47z m252 13 l0 -38 -106 -7 c-58 -4 -107 -6 -109
-4 -1 2 -5 22 -8 46 l-5 42 114 0 114 0 0 -39z m-476 -4 c15 -77 22 -73 -135
-80 -78 -4 -145 -4 -150 -1 -5 3 -9 27 -9 54 0 38 4 50 18 53 9 3 74 5 144 4
l126 0 6 -30z m1353 -1699 c-3 -7 -5 -2 -5 12 0 14 2 19 5 13 2 -7 2 -19 0
-25z m-1885 -33 c11 -21 8 -18 -32 30 -24 29 -24 29 -2 10 13 -11 28 -29 34
-40z m158 -80 c-6 -15 -13 -25 -17 -22 -3 4 0 21 8 38 16 39 24 24 9 -16z
m1712 -135 c-4 -72 -8 -96 -13 -75 -9 40 -10 194 -2 225 13 49 22 -39 15 -150z
m-427 -687 c16 -4 36 -12 43 -20 7 -7 20 -13 28 -13 8 0 14 -5 14 -11 0 -26
-112 12 -141 47 -13 16 -12 17 6 10 11 -4 33 -10 50 -13z m148 -10 c-7 -2 -21
-2 -30 0 -10 3 -4 5 12 5 17 0 24 -2 18 -5z"/>
<path d="M10131 7118 c-36 -40 -113 -117 -170 -173 -97 -93 -108 -108 -158
-210 -29 -60 -71 -141 -93 -180 -22 -38 -40 -80 -40 -91 0 -12 17 -42 38 -67
20 -25 66 -101 102 -168 35 -67 66 -117 68 -111 6 18 -104 230 -148 287 -22
29 -40 58 -40 66 0 8 22 54 50 102 27 47 68 124 90 170 37 75 54 96 153 190
62 58 135 134 162 170 28 36 56 66 63 66 6 1 12 6 12 11 0 25 -29 5 -89 -62z"/>
<path d="M6660 6960 c-89 -93 -157 -170 -150 -170 7 0 69 57 138 128 125 127
128 124 20 -20 -32 -42 -58 -81 -58 -86 0 -5 -10 -16 -22 -25 -34 -23 -12 -41
26 -22 33 17 39 19 31 6 -11 -18 15 -21 51 -6 20 8 51 15 69 15 19 0 35 5 37
12 3 7 12 9 22 5 21 -8 15 -36 -17 -79 -21 -28 -21 -28 -259 -80 -28 -6 -48
-16 -48 -23 0 -20 17 -27 24 -10 3 8 16 15 28 15 l23 0 -25 -20 c-14 -11 -20
-20 -13 -20 6 0 24 11 40 24 17 14 48 26 78 30 55 8 164 41 208 63 35 18 36
37 1 29 -23 -6 -25 -4 -19 11 17 40 17 73 1 79 -9 3 -16 12 -16 20 0 17 -39
18 -93 3 -22 -6 -40 -9 -42 -7 -2 2 25 27 61 56 71 59 88 95 32 66 -18 -9 -41
-23 -50 -32 -11 -9 -18 -10 -18 -4 0 6 4 13 10 17 5 3 34 44 65 91 50 76 60
104 36 104 -5 0 -82 -76 -171 -170z m60 -159 c-8 -5 -26 -11 -40 -15 -21 -5
-20 -3 5 9 32 15 60 20 35 6z"/>
<path d="M4085 6689 c-137 -29 -204 -67 -310 -174 -164 -165 -234 -314 -235
-493 0 -79 2 -89 46 -177 36 -73 66 -116 145 -204 113 -124 137 -139 309 -191
176 -54 323 -44 580 39 170 55 264 123 378 274 94 124 105 145 141 258 53 166
39 257 -62 396 -58 80 -66 86 -147 125 -46 22 -90 48 -97 58 -35 50 -360 112
-577 109 -45 -1 -121 -10 -171 -20z m489 -44 c71 -12 99 -23 135 -50 26 -18
76 -45 112 -58 103 -39 167 -75 186 -105 10 -15 34 -50 55 -77 25 -35 42 -73
53 -118 14 -60 14 -74 1 -129 -28 -119 -56 -180 -125 -277 -83 -115 -155 -187
-236 -236 -110 -65 -374 -135 -515 -135 -101 0 -285 51 -366 101 -57 35 -210
221 -253 308 -36 71 -41 88 -41 151 0 125 23 198 99 313 74 111 191 231 258
265 37 19 144 52 213 66 49 9 336 -3 424 -19z"/>
<path d="M4226 6518 c-3 -7 -7 -40 -10 -73 -3 -33 -14 -86 -25 -119 -21 -59
-20 -76 3 -76 13 0 56 121 56 161 0 34 12 50 30 39 8 -6 32 -10 52 -10 60 0
68 -7 68 -59 0 -27 10 -67 24 -97 22 -47 27 -52 81 -68 82 -26 126 -12 167 55
l31 50 26 -25 c29 -27 99 -66 118 -66 17 0 16 -10 -2 -53 -18 -43 -20 -148 -3
-165 9 -9 5 -16 -15 -32 -15 -12 -39 -42 -53 -67 -22 -37 -30 -43 -48 -38 -91
30 -208 43 -232 27 -18 -11 -34 -48 -34 -76 0 -31 -4 -32 -38 -6 -18 15 -34
19 -54 15 -18 -4 -28 -2 -28 5 0 6 -7 10 -17 8 -11 -2 -24 -32 -43 -103 -15
-55 -30 -113 -35 -130 l-8 -30 -8 35 c-4 19 -11 79 -15 133 -4 64 -12 103 -21
113 -9 9 -35 14 -68 14 -38 0 -54 4 -59 15 -8 21 -29 19 -60 -6 -31 -25 -43
-20 -25 10 17 27 3 67 -33 94 -22 16 -47 22 -117 25 l-90 4 20 37 c23 43 24
95 4 135 -13 24 -13 31 -3 38 19 12 22 11 69 -26 56 -45 63 -38 9 10 -28 25
-38 40 -31 47 7 7 19 7 36 -1 30 -14 33 0 5 19 -17 13 -18 16 -5 39 13 23 14
23 15 4 0 -22 30 -54 70 -74 43 -22 93 -30 163 -23 63 6 67 7 67 31 0 21 -3
23 -22 17 -13 -4 -50 -9 -83 -12 -49 -3 -68 0 -105 19 -50 26 -57 42 -59 131
-1 81 -22 75 -55 -17 -19 -51 -38 -83 -62 -105 -39 -34 -53 -38 -72 -19 -9 9
-15 9 -23 1 -8 -8 -1 -24 25 -58 54 -70 47 -131 -23 -196 -12 -11 -19 -24 -16
-30 4 -5 48 -9 99 -9 118 0 156 -7 156 -30 0 -9 3 -20 8 -24 4 -4 7 -31 7 -59
0 -63 15 -70 65 -28 30 27 36 29 50 16 10 -9 37 -15 66 -15 27 0 54 -4 60 -8
7 -4 12 -46 12 -107 1 -115 29 -248 52 -253 12 -2 18 16 28 77 7 44 26 119 42
168 16 48 30 89 30 89 0 1 12 2 28 2 15 0 37 -9 49 -20 19 -18 25 -19 57 -7
30 11 35 18 38 48 l3 36 55 -3 c94 -5 180 -33 180 -57 0 -17 33 -45 53 -45 21
0 22 29 1 58 -21 30 -13 58 28 106 26 29 42 39 76 43 32 4 42 10 40 22 -2 9
-12 17 -23 19 -11 2 -28 11 -37 20 -33 29 -17 137 27 191 35 41 32 50 -18 49
-74 -1 -172 64 -184 123 -4 20 -12 29 -24 29 -15 0 -19 -8 -19 -40 0 -47 -31
-115 -59 -130 -25 -13 -70 -13 -109 1 -23 8 -35 21 -46 52 -25 66 -25 126 -1
151 31 30 9 57 -27 32 -44 -31 -178 -9 -178 28 0 19 -19 21 -24 4z"/>
<path d="M6075 6610 c-5 -8 -10 -120 -12 -250 -3 -266 9 -234 -103 -301 -73
-43 -125 -87 -116 -96 3 -3 54 27 113 67 73 49 117 72 136 72 22 -1 31 6 41
29 7 17 17 30 22 29 5 0 12 15 16 35 12 56 56 135 82 145 13 4 39 30 58 57 19
26 67 83 107 126 40 42 68 77 63 77 -17 0 -104 -85 -152 -148 -25 -33 -57 -64
-72 -69 -35 -14 -79 -77 -113 -160 -15 -38 -31 -77 -35 -88 -10 -23 -10 -25
-19 285 -4 138 -9 200 -16 190z"/>
<path d="M5320 6552 c0 -4 4 -12 9 -17 5 -6 19 -55 31 -110 20 -86 22 -115 16
-215 -4 -63 -13 -144 -21 -180 -8 -36 -16 -76 -18 -90 -11 -70 -5 133 8 245
18 154 18 185 5 185 -5 0 -10 -11 -10 -24 0 -14 -4 -27 -9 -30 -5 -3 -12 30
-15 74 -7 76 -17 102 -31 80 -3 -5 0 -92 9 -192 16 -209 16 -455 -2 -739 -14
-213 -13 -310 3 -316 7 -2 9 22 7 67 -3 54 -1 70 8 68 10 -2 12 12 11 54 -3
70 5 98 27 99 11 0 12 3 5 6 -16 6 -17 107 -2 258 9 104 37 255 45 255 10 0
84 -76 84 -87 0 -38 110 -72 124 -38 4 11 -1 15 -18 15 -27 0 -149 107 -171
151 -8 15 -14 45 -14 66 1 21 3 30 6 20 2 -9 8 -15 12 -13 4 3 3 40 -1 83 -4
43 -7 106 -6 140 1 35 -2 66 -5 70 -4 3 -7 -5 -8 -18 l-1 -24 -8 25 c-5 14
-16 51 -25 83 -10 36 -21 57 -30 57 -8 0 -15 -4 -15 -8z"/>
<path d="M6195 6078 c-4 -9 3 -37 14 -62 11 -25 16 -46 11 -46 -5 0 -15 18
-21 40 -7 22 -16 40 -21 40 -10 0 -10 -7 2 -52 8 -26 18 -39 39 -46 25 -9 30
-20 63 -138 33 -118 37 -147 47 -339 12 -240 17 -262 125 -561 35 -99 74 -227
85 -284 19 -99 58 -272 149 -665 22 -93 43 -186 47 -205 l6 -35 -18 27 c-28
45 -46 43 -23 -2 51 -99 64 -293 34 -485 -8 -55 -22 -140 -30 -190 -9 -58 -10
-93 -4 -99 7 -7 10 2 10 25 0 20 12 92 27 160 22 106 27 153 29 319 3 218 -8
297 -86 634 -39 172 -62 283 -75 366 -4 25 -11 50 -16 56 -5 7 -16 54 -25 105
-8 56 -47 192 -94 334 -44 132 -84 269 -90 305 -6 36 -13 142 -16 235 -6 158
-9 180 -45 303 -40 141 -112 291 -124 260z"/>
<path d="M5271 5938 c-34 -111 -52 -181 -48 -196 3 -13 45 106 74 211 8 32
-15 17 -26 -15z"/>
<path d="M5751 5934 c-24 -13 -65 -27 -92 -30 -46 -6 -69 -24 -31 -24 14 0 15
-2 2 -10 -8 -5 -11 -12 -8 -16 15 -15 188 74 188 96 0 14 -9 12 -59 -16z"/>
<path d="M5271 5807 c-11 -29 -18 -153 -9 -162 7 -8 14 27 23 123 6 64 1 79
-14 39z"/>
<path d="M2761 5560 c-21 -44 -41 -77 -44 -73 -12 12 -46 -28 -68 -81 -16 -40
-29 -55 -51 -64 -29 -11 -30 -14 -25 -51 7 -52 43 -111 68 -111 26 0 33 37 19
105 -11 55 -11 59 20 122 35 70 48 77 31 16 -6 -21 -11 -48 -11 -60 0 -39 17
-25 24 19 4 23 24 81 45 128 48 107 56 130 41 130 -6 0 -28 -36 -49 -80z
m-132 -315 l-1 -30 -13 30 c-8 17 -14 41 -14 55 l0 25 14 -25 c8 -14 14 -38
14 -55z"/>
<path d="M7825 5349 c-69 -61 -86 -146 -37 -191 15 -14 43 -31 62 -37 19 -6
55 -16 79 -24 24 -7 51 -23 59 -35 14 -21 13 -23 -19 -36 -48 -19 -119 -28
-154 -18 -29 8 -27 10 43 32 43 13 72 28 72 36 0 17 4 18 -114 -5 -108 -21
-127 -31 -110 -59 37 -58 182 -76 277 -34 67 30 82 86 33 130 -19 19 -133 62
-162 62 -7 0 -22 11 -33 25 -17 22 -18 31 -9 58 23 67 82 103 150 92 l40 -7
-4 -69 c-5 -86 10 -76 18 12 8 80 -3 92 -90 97 -60 4 -65 2 -101 -29z"/>
<path d="M8609 5324 c-34 -35 -34 -36 -33 -122 2 -94 16 -222 28 -240 4 -7 14
-12 23 -12 14 0 15 10 9 74 l-7 73 56 28 c75 36 110 87 102 147 -8 57 -43 88
-101 88 -35 0 -48 -6 -77 -36z m109 -20 c41 -28 26 -88 -32 -123 -51 -32 -56
-28 -56 43 0 56 3 67 22 80 12 9 27 16 33 16 6 0 21 -7 33 -16z"/>
<path d="M8907 5344 c-3 -4 -1 -14 5 -23 6 -10 8 -33 4 -52 -5 -26 -13 -37
-36 -46 -33 -13 -41 -46 -14 -61 13 -7 14 -13 5 -29 -6 -12 -13 -45 -17 -74
-8 -73 15 -104 75 -103 50 2 205 73 220 103 20 36 -6 33 -96 -9 -48 -22 -100
-41 -117 -43 -28 -2 -31 1 -34 31 -2 19 6 64 17 101 l21 68 90 6 c90 7 160 27
160 46 0 13 -11 14 -81 2 -30 -5 -78 -12 -106 -16 -48 -5 -53 -4 -53 14 0 15
10 20 47 26 61 9 153 43 153 57 0 6 -9 8 -22 4 -91 -27 -172 -39 -176 -28 -5
15 -37 33 -45 26z"/>
<path d="M10415 5336 c-34 -15 -85 -70 -85 -92 0 -21 9 -18 51 21 48 43 98 47
150 12 89 -60 47 -212 -62 -224 -58 -7 -134 24 -151 61 -13 29 -23 33 -31 12
-9 -22 28 -71 69 -92 55 -27 153 -26 190 2 50 37 67 70 72 136 6 82 -14 119
-81 153 -57 28 -79 30 -122 11z"/>
<path d="M9350 5325 c-7 -8 -26 -43 -43 -77 -29 -57 -31 -71 -31 -156 1 -96
15 -134 36 -101 10 14 18 14 87 -3 99 -24 206 -29 206 -9 0 10 -33 22 -115 39
-63 13 -117 26 -120 29 -3 3 20 26 50 51 101 86 130 120 130 156 0 66 -72 102
-145 72 -46 -20 -46 -20 -39 -1 8 19 0 19 -16 0z m148 -52 c6 -11 6 -24 0 -37
-10 -20 -149 -146 -162 -146 -10 0 -6 83 7 120 22 63 131 108 155 63z"/>
<path d="M11783 5277 c-23 -34 -72 -105 -108 -157 -36 -52 -64 -101 -63 -110
7 -34 36 -10 103 85 l70 99 8 -64 c10 -83 51 -168 96 -197 40 -27 113 -31 164
-9 43 18 100 75 186 186 76 98 86 132 43 138 -43 6 -104 -58 -74 -77 18 -11
-118 -172 -167 -197 -75 -39 -157 -2 -185 84 -23 71 -38 200 -26 222 12 22 13
60 3 60 -5 0 -27 -28 -50 -63z"/>
<path d="M8130 5301 c-57 -81 -68 -179 -24 -230 48 -58 136 -65 208 -16 l36
24 5 -27 c11 -54 20 -75 37 -86 25 -15 47 7 28 29 -13 15 -9 169 6 243 6 31 5
33 -17 30 -19 -2 -28 -14 -41 -57 -30 -92 -99 -148 -172 -138 -69 10 -91 59
-65 146 14 47 48 95 49 69 0 -10 5 -18 10 -18 6 0 10 14 10 30 0 25 -4 30 -24
30 -16 0 -32 -11 -46 -29z"/>
<path d="M5326 5295 c4 -8 8 -15 10 -15 2 0 4 7 4 15 0 8 -4 15 -10 15 -5 0
-7 -7 -4 -15z"/>
<path d="M11412 5281 c-9 -16 -33 -58 -52 -93 -27 -51 -41 -68 -68 -78 -38
-14 -50 -34 -32 -55 11 -13 10 -18 -6 -30 -16 -11 -17 -16 -6 -27 11 -11 22
-4 61 39 36 39 56 52 82 55 l33 3 -3 -82 c-2 -52 1 -83 7 -83 25 0 40 33 46
103 7 70 9 74 38 85 38 14 32 38 -8 34 l-30 -3 -2 73 c-3 66 -11 87 -35 88 -4
0 -15 -13 -25 -29z m18 -97 c0 -24 -19 -54 -35 -54 -19 0 -19 6 2 41 19 32 33
38 33 13z"/>
<path d="M10834 5286 c-3 -8 -12 -12 -19 -10 -27 11 -116 -336 -93 -363 5 -7
14 -10 20 -7 12 8 52 99 74 169 l17 54 24 -34 c43 -63 91 -58 160 19 43 48 46
49 39 21 -4 -16 -9 -63 -13 -102 -5 -63 -3 -73 10 -73 17 0 19 3 41 115 25
122 30 189 14 202 -17 15 -31 6 -51 -33 -24 -46 -116 -144 -136 -144 -25 0
-43 45 -50 124 -6 67 -24 97 -37 62z"/>
<path d="M9981 5225 c-16 -36 -33 -65 -37 -65 -4 0 -4 22 -1 49 5 38 3 51 -9
55 -22 8 -27 -16 -22 -95 5 -59 2 -74 -14 -94 -24 -31 -39 -31 -65 -2 -29 31
-67 138 -53 147 8 5 6 12 -5 24 -64 64 -28 -142 37 -211 29 -31 78 -30 107 1
l23 24 32 -35 c25 -28 39 -35 68 -35 51 0 71 14 121 85 79 110 98 167 57 167
-15 0 -26 -13 -41 -47 -29 -68 -95 -152 -125 -159 -17 -4 -31 -1 -45 12 -40
36 -39 46 2 128 44 88 49 116 19 116 -15 0 -27 -17 -49 -65z"/>
<path d="M2257 5002 c-15 -81 -31 -178 -37 -217 -13 -99 -68 -650 -76 -768 -5
-72 -12 -103 -25 -118 -22 -26 -25 -39 -45 -229 -12 -113 -19 -293 -23 -660
-3 -278 -3 -513 0 -524 4 -13 9 -7 18 25 36 119 152 272 236 310 66 30 155 25
225 -12 32 -17 72 -46 91 -65 28 -29 33 -40 30 -75 -2 -47 18 -147 32 -156 13
-8 28 20 17 31 -45 45 73 193 203 254 165 79 224 70 279 -42 l29 -61 -6 -170
c-8 -188 -2 -220 53 -279 46 -49 82 -57 302 -71 274 -16 325 -12 368 29 50 46
64 81 65 155 1 90 -18 124 -88 156 -31 14 -66 25 -79 25 -13 0 -41 13 -62 28
-68 49 -132 83 -138 73 -8 -13 162 -121 191 -121 13 0 48 -14 78 -31 44 -25
56 -38 65 -67 24 -86 0 -170 -62 -215 -26 -20 -33 -20 -255 -8 -284 15 -320
22 -360 64 -17 18 -36 42 -42 54 -10 21 -16 155 -7 164 3 3 7 130 9 284 3 164
10 306 17 343 7 34 10 66 6 69 -28 28 -59 -132 -59 -305 l0 -132 -17 38 c-10
22 -32 53 -48 70 -36 37 -69 41 -153 16 -122 -37 -222 -105 -286 -198 l-35
-51 5 48 c4 40 0 53 -23 85 -31 43 -105 93 -164 112 -58 19 -156 8 -209 -24
-54 -31 -125 -108 -166 -179 l-31 -52 0 427 c0 458 22 869 46 846 2 -3 -3 -88
-11 -188 -18 -198 -10 -305 23 -332 14 -11 15 -10 7 7 -21 50 -16 220 15 550
56 606 90 917 115 1064 14 78 22 149 17 156 -4 8 -19 -51 -35 -133z"/>
<path d="M10115 4734 c-138 -19 -472 -69 -565 -85 -63 -10 -180 -24 -260 -29
-248 -18 -607 -60 -684 -80 -80 -20 -261 -107 -367 -175 -75 -48 -162 -132
-206 -197 -38 -56 -65 -116 -112 -246 -22 -59 -53 -138 -71 -177 -17 -38 -47
-109 -65 -156 -36 -94 -143 -289 -178 -327 -47 -51 -87 -62 -219 -62 -118 0
-128 2 -238 40 -115 40 -160 48 -160 30 0 -5 15 -13 33 -19 17 -5 73 -26 122
-47 85 -35 97 -38 223 -42 l132 -5 65 32 c47 23 73 44 93 74 58 85 142 245
182 346 22 57 50 122 62 145 11 22 39 90 60 151 94 263 178 360 429 493 127
68 200 96 287 111 93 16 405 50 572 61 85 6 193 17 240 25 47 8 209 34 360 57
l275 42 370 1 c413 0 473 -6 725 -71 268 -70 412 -142 636 -319 150 -119 206
-172 297 -285 124 -154 173 -258 213 -450 24 -116 25 -327 2 -435 -49 -223
-222 -633 -355 -839 -137 -212 -380 -357 -728 -431 -106 -23 -402 -24 -571 -1
-416 55 -686 140 -1024 321 -247 132 -513 255 -665 308 -116 40 -391 110 -610
155 -56 11 -134 16 -260 17 -175 0 -182 -1 -255 -29 -178 -69 -416 -144 -476
-151 -91 -9 -166 14 -219 68 -37 37 -47 60 -94 202 -42 129 -54 182 -62 270
-10 117 -42 225 -66 225 -24 0 -25 -26 -4 -95 12 -37 21 -95 21 -129 0 -117
106 -445 162 -503 68 -71 159 -97 283 -82 65 8 199 50 460 143 97 35 105 36
241 36 153 0 242 -13 513 -76 193 -45 297 -75 418 -120 92 -35 455 -210 698
-337 217 -114 463 -191 810 -253 137 -25 173 -28 410 -28 218 -1 271 2 330 17
136 34 267 80 348 122 259 133 349 234 515 575 89 181 170 393 210 540 30 115
41 346 23 469 -25 156 -81 314 -145 405 -44 65 -186 233 -227 271 -24 23 -78
68 -119 101 -264 212 -410 288 -706 364 -235 61 -257 63 -684 66 -217 1 -408
0 -425 -2z"/>
<path d="M10686 4351 c-4 -5 8 -11 26 -13 27 -2 37 -11 56 -45 l23 -42 -35
-15 c-71 -30 -104 -93 -76 -146 17 -31 92 -53 163 -48 67 6 152 42 193 83 50
50 15 81 -37 33 -65 -59 -165 -88 -237 -69 -54 15 -66 31 -50 66 8 18 30 35
65 50 29 13 53 30 53 38 0 8 -15 37 -32 63 -28 42 -38 49 -70 52 -20 2 -39 -1
-42 -7z"/>
<path d="M10021 4267 c-65 -33 -88 -124 -49 -191 27 -47 95 -86 147 -86 43 0
97 31 113 65 l11 24 44 -26 c32 -19 47 -23 55 -15 8 8 0 22 -31 49 -34 30 -43
46 -46 77 -3 40 -19 58 -45 53 -11 -2 -15 -17 -15 -59 0 -96 -56 -141 -137
-107 -97 40 -87 189 12 189 43 0 90 -47 90 -90 0 -18 4 -29 10 -25 13 8 13 56
0 89 -20 53 -105 81 -159 53z"/>
<path d="M9434 4255 c-4 -8 -3 -23 1 -32 8 -17 8 -17 12 0 3 9 11 17 20 17 12
0 14 -7 9 -27 -10 -45 -19 -240 -12 -259 5 -13 9 -15 18 -6 8 8 14 61 16 142
3 72 7 130 11 130 4 0 19 -12 33 -27 86 -93 75 -209 -28 -288 -48 -36 -54 -38
-90 -36 -25 2 -58 -33 -51 -54 8 -20 33 -19 82 4 64 29 142 98 164 144 41 84
20 187 -50 254 -53 49 -123 69 -135 38z"/>
<path d="M10458 4250 c-9 -6 -24 -34 -34 -63 l-17 -52 -13 30 c-7 17 -13 39
-14 51 0 27 -10 36 -26 23 -10 -8 -9 -23 6 -73 36 -128 58 -137 91 -38 12 37
24 69 26 72 9 10 23 -27 24 -65 2 -81 29 -122 48 -72 12 31 -8 133 -32 171
-19 28 -32 31 -59 16z"/>
<path d="M9369 4216 c-2 -3 -51 -10 -107 -15 -57 -6 -111 -15 -122 -21 -15 -8
-17 -7 -13 10 3 11 0 20 -6 20 -21 0 -50 -63 -71 -151 -25 -106 -26 -191 -4
-213 18 -19 27 -19 74 -6 19 6 77 17 129 25 90 14 110 24 111 53 0 9 -12 11
-42 6 -61 -8 -199 -33 -227 -41 l-24 -6 6 74 c6 88 37 216 47 199 5 -8 13 -9
26 -2 11 6 60 15 111 21 91 10 133 23 133 41 0 10 -13 14 -21 6z"/>
<path d="M8843 4173 c-7 -2 -13 -12 -13 -20 0 -11 5 -13 18 -7 9 4 44 10 77
12 89 6 93 22 5 21 -41 0 -81 -3 -87 -6z"/>
<path d="M8535 4161 c-3 -6 -22 -11 -41 -11 -20 0 -44 -5 -55 -11 -20 -10 -20
-11 -3 -30 20 -23 36 -25 28 -4 -5 11 1 15 25 15 35 0 38 -11 20 -90 -5 -25
-11 -67 -13 -95 -2 -27 -7 -76 -11 -107 -6 -50 -5 -59 10 -64 24 -10 35 12 35
71 0 28 3 66 6 85 6 33 9 37 57 48 59 14 90 33 113 67 33 51 -2 97 -87 114
-24 5 -51 12 -60 15 -10 4 -20 3 -24 -3z m86 -51 c8 0 25 -9 38 -21 21 -20 21
-22 6 -39 -15 -17 -94 -50 -118 -50 -9 0 0 96 10 113 3 5 15 6 27 3 11 -3 28
-6 37 -6z"/>
<path d="M8777 4113 c-8 -32 -29 -98 -47 -147 -52 -144 -31 -159 150 -110 52
14 101 31 108 36 40 33 -21 37 -126 8 -115 -32 -132 -24 -97 44 8 15 15 37 15
47 0 26 10 29 105 39 93 10 105 14 105 37 0 11 -7 14 -22 10 -13 -3 -54 -9
-92 -13 l-69 -7 6 36 c6 38 0 77 -13 77 -4 0 -14 -26 -23 -57z"/>
<path d="M8270 4139 c-82 -33 -131 -148 -77 -183 12 -8 44 -20 71 -26 60 -13
102 -34 110 -55 9 -23 9 -23 -24 -40 -38 -20 -90 -20 -90 0 0 19 -20 19 -45 1
-43 -31 15 -70 91 -59 62 8 108 41 112 79 6 57 -42 93 -165 124 -47 12 -50 18
-29 58 21 40 49 62 90 69 l36 6 0 -43 c0 -52 24 -50 28 3 6 70 -35 95 -108 66z"/>
<path d="M9225 4076 c-106 -22 -115 -25 -115 -46 0 -10 5 -22 10 -25 6 -3 10
0 10 8 0 10 22 18 77 26 73 11 103 23 103 42 0 11 -7 10 -85 -5z"/>
<path d="M3352 4013 c-5 -10 -22 -56 -37 -103 -15 -47 -39 -110 -54 -140 -25
-54 -26 -60 -26 -255 0 -204 8 -256 42 -290 25 -26 32 -7 12 33 -24 47 -41
261 -29 337 10 55 36 153 79 290 16 50 31 102 35 118 7 30 -8 37 -22 10z"/>
<path d="M11265 3780 c-3 -5 -1 -37 5 -72 5 -35 10 -77 10 -95 0 -29 -3 -32
-32 -35 -27 -2 -34 -8 -36 -29 -2 -15 4 -31 14 -40 16 -13 17 -12 10 14 -6 27
-5 28 21 25 27 -3 28 -6 34 -68 3 -36 9 -71 13 -78 16 -26 26 2 26 68 0 67 1
69 27 72 38 4 39 22 1 33 -31 10 -33 13 -40 71 -12 111 -33 166 -53 134z"/>
<path d="M11565 3756 c-44 -19 -84 -71 -91 -118 -4 -22 -13 -42 -20 -45 -18
-7 -18 -23 0 -23 8 0 17 -11 20 -25 10 -39 86 -110 139 -130 45 -17 49 -17 92
0 44 16 72 46 60 65 -3 5 -23 0 -46 -12 -36 -18 -45 -19 -80 -9 -43 13 -127
88 -112 100 4 4 30 16 56 25 59 22 117 77 117 111 0 24 -34 65 -54 65 -6 0
-20 2 -31 5 -11 3 -34 -1 -50 -9z m76 -46 c15 -9 17 -15 9 -30 -12 -23 -89
-70 -114 -70 -25 0 -13 46 22 83 27 29 51 34 83 17z"/>
<path d="M11994 3756 c-36 -16 -65 -54 -98 -127 l-22 -52 -20 74 c-13 53 -24
75 -36 77 -14 3 -18 -3 -18 -25 0 -16 4 -33 8 -39 5 -5 14 -39 21 -77 16 -92
27 -117 50 -117 15 0 23 12 35 58 32 114 94 207 126 187 7 -4 20 -27 30 -51
21 -49 50 -60 50 -19 0 32 -22 86 -41 101 -25 20 -53 23 -85 10z"/>
<path d="M11022 3628 c-13 -16 -6 -31 66 -158 18 -30 32 -58 32 -62 0 -5 -13
-8 -30 -8 -20 0 -30 5 -30 15 0 16 -9 19 -34 9 -22 -9 -20 -51 3 -64 11 -5 35
-10 53 -10 108 1 112 39 18 186 -25 39 -50 79 -55 89 -9 15 -12 15 -23 3z"/>
<path d="M10726 3549 c-47 -40 -74 -86 -82 -137 -6 -37 -3 -44 24 -72 27 -27
37 -30 91 -30 53 0 65 4 93 29 l32 29 28 -21 c23 -17 31 -19 54 -9 30 14 27
36 -4 40 -33 5 -52 40 -52 98 0 55 -15 78 -47 72 -16 -3 -18 -13 -15 -74 2
-56 -1 -75 -15 -93 -21 -26 -77 -37 -115 -22 -52 20 -33 99 38 161 37 32 38
32 46 11 11 -30 28 -17 28 20 0 26 -3 29 -35 29 -24 0 -45 -9 -69 -31z"/>
<path d="M9883 3520 c-23 -14 -43 -42 -70 -99 -21 -44 -41 -81 -45 -81 -4 0
-12 16 -19 35 -18 49 -44 47 -36 -2 8 -46 37 -87 65 -91 18 -3 28 10 62 84 48
104 67 129 86 113 20 -17 43 -98 67 -239 20 -114 24 -125 45 -128 29 -4 29 21
-3 182 -29 148 -48 199 -83 226 -30 24 -30 24 -69 0z"/>
<path d="M8330 3516 c0 -10 -9 -16 -21 -16 -19 0 -20 -4 -14 -37 16 -82 3
-315 -16 -296 -14 14 -46 178 -55 274 -5 57 -10 79 -20 79 -19 0 -18 -107 1
-225 23 -146 48 -199 89 -193 22 3 39 52 52 152 l6 50 29 -55 c16 -30 39 -60
51 -68 18 -11 23 -10 40 6 15 16 21 44 29 144 11 140 8 169 -21 169 -19 0 -20
-7 -20 -117 0 -118 -6 -163 -20 -163 -9 0 -80 132 -80 149 0 6 7 8 15 5 12 -5
15 3 14 42 -2 80 -11 109 -37 112 -15 2 -22 -2 -22 -12z"/>
<path d="M10315 3495 c-14 -13 -25 -31 -25 -40 0 -26 -17 -17 -29 15 -10 30
-31 42 -31 18 0 -38 47 -211 58 -215 21 -9 26 4 33 82 3 44 13 84 23 100 17
25 19 26 34 11 13 -12 16 -33 13 -91 -2 -61 1 -76 13 -81 31 -12 46 15 46 81
0 48 4 66 19 79 44 39 79 -3 88 -104 6 -60 22 -81 43 -55 9 11 9 32 1 86 -13
79 -15 83 -44 117 -24 26 -72 29 -105 6 -21 -15 -25 -15 -41 0 -26 23 -68 20
-96 -9z"/>
<path d="M9523 3459 c-45 -21 -66 -51 -77 -111 -20 -112 83 -208 162 -152 51
35 87 165 63 227 -7 17 -24 34 -46 42 -44 19 -51 18 -102 -6z m88 -39 c41 -23
15 -153 -38 -188 -21 -13 -25 -12 -53 16 -23 24 -30 39 -30 69 l1 38 13 -30
c12 -29 62 -62 74 -50 3 3 -4 15 -16 28 -24 25 -28 60 -12 101 10 28 29 32 61
16z"/>
<path d="M8622 3435 c-62 -52 -91 -163 -56 -213 40 -57 154 -71 239 -28 44 23
50 24 76 10 57 -29 127 -8 149 46 7 16 16 30 19 30 4 0 20 -13 36 -30 30 -31
65 -40 65 -16 0 7 -8 20 -17 27 -24 20 -73 100 -73 119 0 22 -62 50 -109 50
-72 0 -137 -84 -121 -156 9 -40 0 -47 -82 -59 -38 -6 -128 8 -128 20 0 2 24
28 53 57 53 53 86 121 74 152 -11 27 -89 21 -125 -9z m72 -37 c-16 -54 -94
-138 -94 -103 0 30 28 82 55 103 35 28 48 28 39 0z m314 -59 c-5 -70 -26 -99
-74 -99 -62 0 -83 54 -44 118 23 38 49 50 92 44 30 -5 30 -5 26 -63z"/>
<path d="M9280 3423 c-8 -3 -24 -14 -35 -23 -11 -10 -29 -20 -40 -22 -35 -6
-36 -42 -1 -293 20 -148 32 -185 56 -185 23 0 24 10 10 77 -6 27 -14 81 -18
120 l-8 71 55 7 c75 9 111 45 111 110 0 57 -21 100 -63 125 -33 21 -42 22 -67
13z m55 -68 c18 -17 25 -35 25 -63 0 -48 -15 -62 -62 -60 -19 1 -40 -2 -46 -6
-24 -15 -3 105 23 134 23 26 31 25 60 -5z"/>
<path d="M6661 3093 c-19 -117 -27 -313 -12 -313 7 0 11 20 11 53 0 28 7 106
15 172 17 140 18 165 7 165 -5 0 -14 -35 -21 -77z"/>
<path d="M5510 2897 c0 -143 19 -180 22 -44 3 111 0 149 -12 161 -7 7 -10 -32
-10 -117z"/>
<path d="M6260 2972 c-25 -8 -80 -65 -80 -81 1 -20 28 -57 36 -49 3 3 0 15 -7
26 -11 18 -10 24 5 41 24 26 36 27 29 1 -4 -13 0 -20 10 -20 16 0 40 24 32 32
-12 12 88 30 139 26 68 -6 114 -38 153 -108 15 -28 34 -50 41 -50 16 0 16 3
-12 59 -26 50 -82 106 -122 121 -24 10 -197 11 -224 2z"/>
<path d="M4002 2924 c-67 -33 -142 -117 -188 -209 -39 -79 -41 -116 -4 -93 25
16 37 43 15 34 -24 -9 -18 7 33 85 54 83 117 144 169 166 75 31 191 14 264
-38 35 -25 50 -18 24 11 -64 71 -216 93 -313 44z"/>
<path d="M4743 2895 c-102 -51 -233 -171 -233 -213 0 -9 25 13 56 47 63 69
142 127 222 161 50 21 68 40 38 40 -7 0 -45 -16 -83 -35z"/>
<path d="M4330 2880 c0 -5 5 -10 11 -10 30 0 100 -124 119 -212 8 -34 19 -58
26 -58 17 0 29 21 17 29 -6 3 -13 22 -17 41 -10 56 -54 142 -94 183 -35 36
-62 48 -62 27z"/>
<path d="M5275 2340 c-4 -6 28 -10 87 -11 51 0 129 -7 173 -14 l80 -14 -100 5
c-73 3 -97 2 -89 -6 17 -17 337 -37 366 -23 19 10 11 12 -51 12 -54 1 -82 6
-105 20 -53 32 -345 57 -361 31z"/>
<path d="M2203 1985 c-35 -15 -47 -42 -38 -85 10 -46 24 -45 22 1 -2 33 3 44
21 57 l24 15 -8 -39 c-5 -21 -8 -109 -8 -194 l0 -156 -28 4 c-43 7 -78 -6 -78
-27 0 -49 149 -121 251 -121 129 0 177 82 133 229 -18 61 -51 99 -92 107 -28
6 -30 10 -35 63 -6 71 -28 116 -70 141 -37 23 -51 24 -94 5z m101 -59 c21 -27
26 -99 15 -176 -4 -24 -3 -25 48 -22 51 4 52 4 72 -36 11 -22 24 -65 27 -95 6
-51 4 -57 -20 -82 -25 -25 -32 -27 -94 -23 -45 3 -85 12 -122 30 -48 23 -52
26 -27 27 54 2 56 11 50 203 -3 97 -3 183 1 193 8 22 25 16 50 -19z"/>
<path d="M4568 1957 c-11 -8 -18 -39 -22 -98 -7 -101 -37 -225 -67 -279 -60
-107 -153 -58 -230 120 -22 51 -53 106 -69 122 -26 26 -30 27 -38 11 -22 -41
-64 -192 -69 -247 -5 -53 -4 -58 13 -54 13 2 21 16 27 48 12 67 48 180 56 180
4 0 22 -37 39 -83 50 -131 117 -197 203 -197 82 0 142 96 174 277 17 94 20
199 6 207 -4 3 -15 0 -23 -7z"/>
<path d="M2675 1938 c-54 -42 -88 -165 -87 -321 0 -89 9 -127 31 -127 3 0 4
41 2 91 -3 81 -1 91 13 86 10 -4 16 -1 16 7 0 10 17 15 60 18 l60 3 0 -115 c0
-120 7 -147 34 -137 13 5 16 26 16 133 0 117 1 126 20 131 26 7 26 33 1 33
-16 0 -21 9 -26 48 -12 82 -26 124 -50 148 -30 30 -54 30 -90 2z m70 -60 c7
-18 16 -59 20 -90 l7 -58 -38 0 c-22 0 -54 -4 -72 -9 l-33 -10 6 32 c4 18 14
52 22 77 31 94 64 115 88 58z"/>
<path d="M3285 1908 c-9 -42 -25 -278 -25 -369 0 -81 2 -90 18 -87 15 3 18 23
27 148 l10 145 18 -61 c20 -70 50 -114 77 -114 23 0 34 19 65 109 l24 66 0
-118 c1 -98 4 -119 17 -124 35 -13 40 40 28 250 -5 80 -11 107 -22 112 -25 9
-40 -13 -67 -98 -15 -45 -31 -95 -37 -111 l-11 -28 -14 25 c-7 15 -25 79 -39
144 -23 106 -34 132 -56 133 -4 0 -10 -10 -13 -22z"/>
<path d="M3849 1865 c-22 -50 -69 -244 -69 -287 0 -16 -4 -28 -10 -28 -5 0
-10 -14 -10 -31 0 -24 4 -30 18 -27 11 2 21 20 29 52 15 59 17 62 65 69 41 6
37 16 58 -120 10 -60 15 -73 30 -73 27 0 29 8 19 70 -5 30 -18 129 -30 220
-11 90 -25 172 -30 182 -18 34 -49 22 -70 -27z m40 -216 c-17 -11 -59 -12 -59
-1 0 14 41 155 48 166 4 6 11 -27 16 -73 7 -67 6 -85 -5 -92z"/>
<path d="M2897 1894 c-10 -11 -9 -39 5 -69 16 -35 31 -31 23 6 -7 32 -7 32 26
25 18 -3 37 -10 42 -15 4 -4 1 -46 -7 -92 -21 -124 -28 -241 -16 -259 16 -24
28 3 35 80 9 98 25 223 31 242 4 14 10 15 35 6 37 -13 50 -3 23 17 -42 32
-182 74 -197 59z"/>
</g>
</svg>
