<?xml version="1.0" standalone="no"?>
<!DOCTYPE svg PUBLIC "-//W3C//DTD SVG 20010904//EN"
 "http://www.w3.org/TR/2001/REC-SVG-20010904/DTD/svg10.dtd">
<svg version="1.0" xmlns="http://www.w3.org/2000/svg"
 width="1378.000000pt" height="1809.000000pt" viewBox="0 0 1378.000000 1809.000000"
 preserveAspectRatio="xMidYMid meet">

<g transform="translate(0.000000,1809.000000) scale(0.100000,-0.100000)"
fill="#000000" stroke="none">
<path d="M550 17345 c0 -13 696 -15 6200 -15 l6200 0 0 -8195 0 -8195 -247 0
c-137 0 -914 7 -1728 15 -814 8 -2182 22 -3040 30 -858 8 -2003 20 -2545 25
-2528 26 -2956 30 -3700 35 -437 3 -819 8 -848 11 l-52 5 0 8106 c0 6479 -3
8104 -12 8101 -10 -4 -14 -1638 -16 -8120 l-2 -8116 122 -6 c68 -3 469 -8 893
-11 424 -3 1186 -10 1695 -15 509 -6 2077 -21 3485 -35 2483 -24 4028 -39
5368 -53 357 -4 651 -5 653 -3 2 2 4 3705 4 8228 l0 8223 -6215 0 c-5518 0
-6215 -2 -6215 -15z"/>
<path d="M3073 17103 c4 -49 9 -135 13 -193 l6 -105 -27 53 c-28 55 -53 70
-100 58 -37 -9 -82 -84 -129 -214 -24 -64 -48 -118 -53 -119 -6 -2 -21 20 -34
49 -18 42 -24 76 -27 160 -3 78 -8 108 -18 112 -20 8 -34 -26 -34 -81 0 -27
-7 -75 -15 -108 -33 -123 -74 -185 -126 -185 -62 0 -189 124 -189 186 0 37 20
72 50 84 33 14 112 9 117 -7 7 -20 -67 -83 -99 -83 -18 0 -28 5 -28 14 0 16
-18 31 -26 23 -3 -3 2 -19 11 -36 13 -25 22 -31 49 -31 36 0 107 45 125 79 43
79 -61 129 -166 82 -80 -37 -101 -108 -59 -195 49 -99 163 -176 240 -162 42 8
96 67 116 125 l13 39 25 -49 c28 -57 61 -84 92 -74 25 8 31 19 75 140 57 159
100 224 128 196 6 -6 22 -32 37 -58 16 -31 32 -47 43 -47 15 2 17 -9 17 -83 0
-75 2 -84 18 -81 14 3 18 18 23 83 7 82 49 229 74 254 13 13 18 7 40 -42 39
-84 55 -181 38 -231 -21 -58 -14 -90 19 -94 22 -3 29 2 34 24 11 45 -4 176
-30 261 -52 164 -123 176 -172 30 l-18 -52 -19 183 c-11 102 -24 182 -30 182
-6 0 -8 -32 -4 -87z"/>
<path d="M1244 17142 c-54 -43 -116 -146 -134 -219 -13 -54 3 -63 115 -73 90
-8 102 -11 122 -35 28 -32 32 -119 8 -165 -39 -75 -126 -100 -205 -60 -48 25
-51 40 -7 40 38 0 62 13 53 29 -8 12 -113 15 -140 5 -28 -11 -18 -50 21 -84
103 -91 232 -78 308 28 27 39 30 51 30 117 0 59 -4 79 -21 102 -31 42 -80 62
-167 69 -78 6 -79 6 -72 31 12 49 48 113 86 155 l38 43 1 -52 c0 -41 4 -53 15
-53 13 0 15 12 13 68 -3 58 -6 67 -23 69 -11 2 -30 -5 -41 -15z"/>
<path d="M5139 17143 c0 -5 -2 -64 -2 -132 l-2 -123 -66 -23 c-79 -26 -89 -32
-89 -51 0 -16 46 -20 52 -4 2 6 24 17 49 24 l46 14 7 -142 c8 -165 18 -216 45
-216 11 0 22 7 25 16 11 29 5 138 -9 179 -8 22 -15 70 -15 107 l0 67 62 19
c97 30 89 54 -11 31 -24 -5 -46 -8 -48 -5 -3 2 -7 49 -9 103 -6 114 -11 143
-24 143 -6 0 -10 -3 -11 -7z"/>
<path d="M4251 17024 c-22 -19 -53 -59 -69 -87 -26 -48 -28 -59 -26 -143 2
-104 19 -152 68 -189 92 -70 212 -32 272 87 31 60 42 159 24 213 -16 47 -72
111 -121 136 -60 30 -102 25 -148 -17z m135 -33 c18 -11 45 -36 60 -57 26 -33
29 -46 29 -110 0 -58 -5 -82 -24 -117 -30 -54 -76 -87 -124 -87 -89 0 -131 54
-131 169 1 86 13 118 73 181 43 45 69 50 117 21z"/>
<path d="M6364 16972 c-22 -15 -63 -92 -92 -173 -35 -98 -47 -90 -40 27 4 52
10 80 23 94 23 26 11 39 -14 16 -42 -38 -57 -205 -22 -247 30 -37 50 -16 98
101 23 57 48 110 56 118 14 13 16 8 22 -44 14 -115 19 -129 45 -129 18 0 30
10 46 39 31 54 71 99 86 94 25 -9 51 -100 52 -182 1 -84 15 -108 43 -70 17 24
17 83 -3 157 -20 78 -38 113 -69 133 -32 21 -68 4 -111 -53 l-32 -42 -7 52
c-14 98 -41 136 -81 109z"/>
<path d="M3714 16944 c-4 -15 -4 -60 0 -101 l6 -74 -48 -46 c-68 -67 -151 -99
-189 -75 -7 4 -11 32 -10 72 l2 65 38 -3 c33 -3 43 1 72 32 38 40 53 89 35
111 -15 18 -86 20 -127 4 -68 -25 -122 -109 -123 -189 0 -85 60 -140 154 -140
59 0 111 26 163 83 40 43 53 48 53 21 0 -7 9 -38 21 -69 14 -39 26 -55 39 -55
21 0 33 26 59 132 22 84 43 131 74 166 32 34 51 28 77 -28 25 -54 64 -97 74
-82 6 10 -36 120 -61 158 -23 35 -73 32 -116 -6 -39 -34 -68 -94 -93 -195
l-18 -70 -19 60 c-10 33 -23 95 -30 139 -10 70 -10 79 6 91 19 14 13 25 -14
25 -12 0 -21 -10 -25 -26z m-124 -55 c0 -22 -41 -78 -62 -85 -16 -5 -27 0 -39
15 -9 11 -20 21 -23 21 -3 0 -6 -42 -6 -92 l-1 -93 -25 29 c-23 26 -25 36 -20
74 7 54 39 107 74 127 32 17 102 20 102 4z"/>
<path d="M5864 16951 c-62 -38 -154 -191 -154 -257 0 -35 37 -64 83 -64 45 0
64 9 135 63 l52 40 23 -24 c33 -37 82 -54 112 -41 30 14 35 47 6 37 -25 -8
-67 13 -87 43 -12 18 -14 37 -9 81 8 67 -7 91 -44 71 -17 -8 -21 -20 -21 -59
0 -43 -4 -53 -40 -89 -45 -45 -95 -72 -134 -72 -22 0 -26 5 -26 28 0 63 98
206 158 231 24 10 36 9 67 -3 43 -18 55 -20 55 -7 0 13 -76 41 -113 41 -17 0
-46 -9 -63 -19z"/>
<path d="M5474 16921 c-92 -42 -164 -137 -164 -215 0 -80 109 -139 260 -140
81 -1 173 20 167 38 -2 7 -37 10 -105 8 -155 -6 -272 36 -272 96 0 40 23 78
44 74 39 -7 160 62 171 98 18 58 -25 75 -101 41z m46 -52 c-27 -21 -95 -59
-106 -59 -18 0 45 54 81 71 47 21 60 15 25 -12z"/>
<path d="M1530 16867 c-27 -13 -49 -63 -49 -112 -1 -55 21 -109 59 -147 34
-34 43 -38 90 -38 36 0 63 7 86 21 30 18 34 19 34 4 0 -9 17 -33 37 -53 32
-32 38 -34 41 -19 2 10 -3 26 -12 36 -22 24 -31 102 -16 130 14 27 30 120 23
138 -3 7 -11 13 -18 13 -25 0 -46 -40 -57 -106 -13 -86 -48 -124 -113 -124
-75 0 -115 53 -115 154 0 61 16 86 56 86 27 0 32 15 8 24 -21 8 -25 8 -54 -7z"/>
<path d="M2005 16821 c-11 -5 -28 -18 -38 -29 -11 -11 -25 -18 -33 -15 -31 12
-30 -106 3 -252 16 -73 104 -314 129 -352 8 -13 19 -23 25 -23 24 0 17 36 -29
152 -51 126 -82 223 -82 254 0 16 1 16 19 0 51 -46 191 -39 231 11 26 33 25
67 -4 128 -47 100 -146 156 -221 126z m93 -55 c52 -27 102 -101 102 -150 0
-21 -7 -27 -41 -36 -51 -14 -112 -5 -135 21 -13 15 -16 29 -11 69 7 54 -3 63
-27 28 -18 -25 -21 -12 -7 25 21 55 65 71 119 43z"/>
<path d="M9255 15830 c-110 -4 -279 -15 -375 -24 -144 -14 -205 -16 -335 -8
-254 16 -478 -5 -611 -55 -106 -41 -233 -145 -321 -264 -84 -113 -206 -383
-253 -558 -16 -58 -29 -101 -29 -96 -3 27 -21 -25 -21 -60 0 -22 -9 -74 -20
-114 -23 -80 -21 -116 2 -63 14 31 15 16 22 -205 4 -131 8 -260 10 -288 2 -27
2 -40 -1 -27 -2 12 -9 22 -15 22 -6 0 -8 -11 -4 -27 36 -166 39 -217 27 -379
-6 -89 -16 -177 -21 -195 -6 -19 -10 -105 -10 -191 0 -109 -3 -158 -11 -158
-8 0 -9 -38 -4 -132 7 -143 -5 -229 -44 -306 -31 -62 -52 -161 -56 -267 -5
-109 -1 -98 30 90 9 55 29 130 45 166 43 102 53 167 47 314 -2 72 -3 117 0
100 11 -73 21 -37 22 82 0 70 6 184 13 253 14 141 17 486 6 600 -13 140 -27
625 -19 660 61 252 128 437 224 620 121 230 292 379 487 424 124 29 483 49
504 29 4 -4 35 -8 68 -8 39 -1 63 -5 66 -13 5 -17 22 -15 22 3 0 8 2 15 4 15
3 0 85 7 183 16 254 23 480 23 563 0 64 -18 178 -45 193 -46 4 0 7 5 7 10 0 6
-8 10 -17 10 -10 0 -63 13 -118 29 l-100 30 139 0 c151 1 281 -21 272 -45 -3
-8 -1 -16 4 -19 6 -4 10 -1 10 6 0 23 102 2 287 -59 192 -64 261 -94 312 -137
17 -15 31 -23 31 -18 0 18 -55 61 -115 91 -75 37 -323 118 -435 143 -47 10
-110 25 -140 34 -68 21 -250 26 -525 15z"/>
<path d="M4095 15693 c-189 -13 -553 -89 -785 -165 -116 -37 -312 -148 -595
-334 -191 -125 -258 -187 -449 -413 -205 -242 -220 -269 -225 -413 -3 -103 -2
-110 28 -175 58 -123 268 -308 445 -393 73 -34 173 -60 356 -92 172 -29 448
-31 825 -4 338 24 724 31 874 17 101 -10 198 -29 428 -86 29 -7 92 -38 141
-69 83 -52 101 -59 258 -97 93 -22 196 -43 229 -46 76 -6 319 37 378 67 62 32
157 112 299 251 70 68 158 153 196 189 88 83 135 167 168 299 24 100 40 133
122 260 23 35 42 73 42 83 0 10 15 49 34 86 46 92 63 149 48 164 -9 9 -28 -3
-80 -53 -166 -162 -240 -210 -361 -234 -36 -7 -158 -16 -271 -20 -243 -7 -245
-7 -308 102 -72 125 -93 175 -172 410 -86 256 -101 283 -212 389 -73 70 -139
116 -202 144 -53 22 -275 85 -355 100 -159 30 -637 48 -856 33z m544 -48 c119
-9 252 -22 296 -30 114 -21 316 -80 377 -111 102 -51 239 -179 283 -264 10
-19 51 -133 91 -253 49 -148 91 -251 129 -322 68 -128 97 -162 153 -187 41
-18 54 -19 250 -8 222 12 305 26 380 64 57 29 155 100 200 145 18 19 35 31 38
28 6 -6 -62 -137 -141 -272 -41 -69 -59 -114 -79 -193 -31 -126 -71 -200 -149
-272 -33 -30 -115 -110 -183 -177 -149 -146 -259 -237 -316 -262 -65 -29 -283
-64 -348 -57 -30 3 -126 23 -212 44 -139 35 -167 45 -250 95 -84 51 -108 60
-258 96 -267 64 -278 66 -605 66 -320 0 -645 -16 -865 -42 -114 -13 -161 -14
-300 -5 -190 13 -421 51 -531 88 -175 57 -413 247 -487 389 -23 44 -26 62 -27
145 0 106 10 138 63 214 57 81 316 379 379 435 69 63 227 170 455 309 239 147
281 164 618 251 207 53 300 70 487 85 216 18 300 18 552 1z"/>
<path d="M3379 15301 c-15 -16 -34 -50 -41 -75 -18 -68 -31 -56 -26 23 4 56 3
68 -8 64 -8 -3 -17 -16 -20 -29 -6 -22 -11 -24 -74 -24 -77 0 -120 -12 -120
-34 0 -19 23 -33 28 -18 2 7 14 12 27 12 22 0 23 -2 13 -37 -13 -49 -6 -152
12 -163 26 -16 30 1 24 86 -5 64 -4 84 6 84 6 0 10 6 7 14 -6 16 12 26 47 26
20 0 23 -7 34 -94 6 -51 14 -101 18 -110 7 -17 44 -23 44 -6 0 6 22 10 49 10
55 0 101 14 101 30 0 5 -18 10 -39 10 -22 0 -43 5 -46 10 -3 6 -2 10 4 10 6 0
22 17 36 37 49 72 22 203 -42 203 -2 0 -18 -13 -34 -29z m61 -88 c0 -39 -21
-75 -57 -99 l-26 -16 6 47 c4 26 16 68 28 93 19 44 21 46 35 28 8 -11 14 -35
14 -53z"/>
<path d="M3805 15306 c-100 -16 -155 -34 -155 -50 0 -11 9 -11 48 -1 26 7 89
19 140 26 74 10 95 10 105 0 9 -10 9 -14 -5 -22 -20 -11 -80 -163 -76 -193 6
-44 33 -21 64 55 l30 77 30 -61 c60 -125 147 -135 190 -21 9 24 23 44 30 44
11 0 14 18 14 71 0 66 -1 70 -21 67 -17 -2 -25 -16 -39 -69 -19 -75 -49 -141
-67 -146 -20 -7 -53 39 -98 133 -32 67 -50 93 -67 98 -27 7 -22 7 -123 -8z"/>
<path d="M4373 15300 c-68 -41 -124 -151 -104 -204 17 -42 53 -59 118 -54 48
4 61 10 85 37 33 37 35 54 8 81 -22 22 -106 28 -141 10 -27 -15 -24 1 11 48
40 56 90 82 90 47 0 -8 5 -15 10 -15 18 0 11 49 -9 60 -26 14 -31 13 -68 -10z
m-37 -190 c8 0 14 5 14 10 0 6 24 10 52 10 l52 0 -22 -22 c-39 -40 -124 -22
-121 26 2 20 2 20 6 -1 2 -13 11 -23 19 -23z"/>
<path d="M4640 15280 c0 -4 -15 -11 -34 -14 -19 -4 -36 -13 -39 -21 -7 -17 18
-41 28 -25 3 5 15 10 26 10 18 0 19 -8 19 -145 0 -138 1 -145 20 -145 19 0 20
7 20 150 0 142 1 150 19 150 31 0 75 20 65 29 -12 11 -124 22 -124 11z"/>
<path d="M4799 15268 c-13 -24 -28 -196 -21 -235 3 -18 10 -23 26 -21 19 3 21
8 18 55 -3 45 -2 51 15 48 10 -2 33 -4 51 -4 l32 -1 0 -53 c0 -30 3 -57 7 -60
15 -16 33 18 33 63 0 47 0 47 41 56 53 12 55 28 3 32 -41 3 -42 4 -49 48 -3
24 -10 44 -14 44 -10 0 -21 -35 -21 -66 0 -17 -8 -23 -37 -28 -68 -11 -66 -13
-61 69 3 77 -3 91 -23 53z"/>
<path d="M3606 15255 c-21 -21 -46 -109 -46 -160 0 -63 23 -79 124 -83 90 -4
136 8 136 35 0 16 -9 18 -85 14 -122 -5 -135 0 -135 49 0 29 4 40 15 40 11 0
14 7 9 25 -6 25 -5 25 42 19 27 -3 57 -7 67 -9 27 -5 20 24 -9 35 -14 6 -41
10 -59 10 -25 0 -33 4 -29 14 8 21 -12 28 -30 11z"/>
<path d="M2955 15228 c-46 -25 -105 -96 -105 -126 0 -4 6 -17 14 -27 12 -16
31 -21 107 -25 79 -4 94 -8 97 -23 3 -12 -9 -23 -40 -37 -24 -11 -52 -20 -62
-20 -18 0 -18 1 -1 20 18 20 17 20 -12 20 -64 0 -84 -52 -30 -78 42 -20 122 1
165 44 38 38 40 57 7 89 -20 21 -34 25 -87 25 -74 0 -108 8 -108 24 0 18 74
86 93 86 11 0 17 -8 17 -25 0 -32 16 -32 24 0 13 53 -29 81 -79 53z"/>
<path d="M5111 15026 c-5 -13 -20 -78 -32 -145 -17 -93 -20 -124 -11 -133 23
-23 36 12 57 157 17 117 18 145 8 145 -8 0 -18 -11 -22 -24z"/>
<path d="M5365 14664 c-28 -29 -58 -54 -68 -54 -26 0 -33 29 -14 62 9 15 12
28 8 28 -14 0 -39 -34 -46 -61 -12 -48 45 -76 97 -48 18 10 20 9 14 -7 -34
-84 -79 -236 -83 -280 -5 -45 -3 -55 12 -60 19 -8 30 6 56 73 11 28 13 45 6
52 -7 7 7 60 43 166 67 200 62 224 -25 129z"/>
<path d="M4381 14667 c-6 -8 -22 -45 -36 -83 -43 -116 -47 -124 -62 -124 -10
0 -12 -6 -8 -19 3 -11 1 -22 -5 -26 -5 -3 -10 2 -10 11 0 13 -3 15 -11 7 -14
-14 -8 -55 9 -61 7 -2 25 10 41 27 22 24 38 31 65 31 31 0 36 -4 41 -27 15
-73 22 -88 39 -91 18 -4 19 1 13 57 -5 41 -3 68 5 81 10 16 10 22 -4 32 -11 9
-17 36 -21 91 -7 94 -27 128 -56 94z m18 -174 c1 -18 -4 -23 -25 -23 -17 0
-24 5 -21 13 2 6 10 30 18 51 l14 39 6 -29 c4 -16 7 -39 8 -51z"/>
<path d="M4557 14673 c-4 -3 -7 -22 -7 -42 0 -20 -7 -74 -15 -121 -28 -161
-15 -220 52 -220 31 0 95 41 117 76 25 37 0 40 -55 5 -88 -54 -93 -44 -73 127
16 139 9 204 -19 175z"/>
<path d="M3079 14633 c-42 -100 -59 -133 -71 -133 -28 0 -57 32 -73 80 -9 28
-20 50 -25 50 -5 0 -16 3 -26 7 -16 6 -17 -2 -11 -113 7 -137 24 -231 43 -238
20 -8 25 7 31 104 5 82 7 88 24 80 27 -15 65 -12 80 7 12 14 15 1 19 -93 4
-92 8 -109 22 -112 27 -5 33 48 28 222 -4 114 -9 161 -17 163 -7 3 -18 -8 -24
-24z"/>
<path d="M3237 14643 c-11 -11 -8 -383 3 -383 6 0 13 0 18 0 4 0 9 55 12 122
l5 122 28 -43 c15 -23 39 -47 52 -53 22 -10 25 -18 25 -60 0 -41 3 -49 17 -46
13 2 21 25 34 98 10 52 18 114 18 138 1 64 -26 52 -54 -23 -12 -33 -26 -59
-31 -59 -12 2 -72 113 -84 157 -10 34 -27 47 -43 30z"/>
<path d="M5110 14629 c-25 -10 -64 -18 -87 -18 -31 -1 -43 -5 -43 -16 0 -8 6
-15 14 -15 22 0 26 -24 26 -150 0 -89 3 -120 14 -129 24 -20 28 3 25 141 l-3
130 38 13 c43 15 70 38 65 53 -3 6 -22 2 -49 -9z"/>
<path d="M4823 14474 c-2 -120 0 -144 12 -144 20 0 25 28 28 135 2 96 -5 140
-25 148 -10 3 -13 -29 -15 -139z"/>
<path d="M3831 14581 c-12 -16 -27 -55 -35 -88 l-13 -58 -8 67 c-4 36 -4 72 0
79 5 7 3 10 -6 7 -8 -3 -18 -18 -22 -35 l-9 -30 -28 29 c-33 32 -92 38 -121
12 -9 -8 -26 -17 -36 -18 -12 -2 -23 -18 -32 -46 -19 -60 -3 -145 34 -177 74
-65 149 -30 180 83 10 38 13 43 14 21 1 -43 22 -120 36 -136 17 -18 35 -6 35
24 0 24 2 24 102 27 68 2 103 7 105 15 5 15 -21 21 -102 26 -67 4 -69 10 -29
62 50 66 40 165 -17 165 -19 0 -34 -9 -48 -29z m34 -106 c-15 -26 -29 -45 -31
-42 -7 7 16 100 29 115 9 12 13 11 20 -6 7 -16 3 -32 -18 -67z m-189 51 c37
-27 17 -162 -27 -189 -23 -14 -73 8 -87 37 -20 44 11 140 51 156 31 12 41 12
63 -4z"/>
<path d="M4071 14597 c-52 -18 -54 -41 -3 -32 l40 6 6 -83 c3 -46 7 -99 9
-118 1 -23 7 -35 17 -35 13 0 15 18 12 117 l-3 117 42 8 c23 5 44 14 47 21 5
16 -120 15 -167 -1z"/>
<path d="M2756 14583 c-3 -10 -5 -45 -5 -78 0 -33 -7 -109 -15 -169 -9 -59
-13 -112 -10 -117 10 -17 34 -9 38 14 21 100 33 318 20 351 -8 21 -21 20 -28
-1z"/>
<path d="M5561 14377 c-20 -24 -36 -116 -23 -129 9 -9 12 -6 12 13 1 13 7 38
15 54 14 28 15 23 12 -70 -2 -94 -1 -100 18 -100 15 0 21 9 27 40 10 59 9 150
-2 179 -10 28 -40 35 -59 13z"/>
<path d="M4521 14175 c-30 -65 -54 -172 -48 -223 6 -51 35 -87 92 -113 96 -44
185 -2 185 87 0 39 -16 60 -60 78 -63 25 -88 21 -133 -24 l-40 -40 6 67 c2 38
10 82 17 98 11 27 13 28 20 10 7 -17 9 -18 15 -4 3 9 5 36 3 60 -4 62 -29 64
-57 4z m148 -216 c23 -8 31 -17 31 -34 0 -52 -60 -71 -122 -39 l-30 16 33 34
c36 38 42 39 88 23z"/>
<path d="M4090 14167 c-14 -7 -31 -25 -38 -39 -17 -37 -52 -195 -52 -240 0
-52 23 -50 39 3 7 22 26 78 44 122 l31 82 12 -71 c12 -74 36 -135 60 -155 26
-21 62 -2 75 40 9 29 16 37 29 34 15 -4 18 7 24 93 7 87 6 100 -10 111 -10 7
-21 10 -25 6 -5 -5 -18 -53 -29 -107 -12 -54 -25 -108 -29 -119 -8 -20 -8 -20
-24 4 -9 14 -22 61 -28 104 -20 148 -27 159 -79 132z"/>
<path d="M3900 14133 c-23 -85 -42 -195 -36 -218 10 -40 36 -31 36 13 0 20 7
75 15 122 8 47 15 93 15 103 0 31 -19 18 -30 -20z"/>
<path d="M3278 14123 c-28 -36 -41 -107 -42 -225 -1 -99 40 -118 165 -77 70
22 109 44 109 59 0 16 -40 11 -122 -15 -85 -27 -105 -25 -114 12 -10 40 5 204
23 240 21 46 14 48 -19 6z"/>
<path d="M3535 14150 c-10 -16 12 -63 36 -78 11 -7 43 -16 70 -19 56 -7 55 -5
34 -103 -19 -84 -19 -125 0 -140 25 -21 46 5 39 49 -3 21 4 79 16 136 34 154
35 165 16 165 -9 0 -19 -8 -23 -17 -3 -10 -13 -26 -21 -35 -30 -35 -142 -14
-142 27 0 18 -17 28 -25 15z"/>
<path d="M3028 14109 c-24 -13 -23 -33 1 -26 17 4 18 -1 13 -87 -3 -50 -10
-95 -16 -99 -8 -6 -7 -10 2 -14 7 -3 12 -25 12 -60 0 -46 3 -54 18 -51 14 3
18 16 20 70 l3 68 52 15 c61 18 84 31 74 41 -7 7 -65 -4 -109 -21 -16 -6 -18
1 -18 69 l0 76 28 0 c16 0 37 -7 48 -15 24 -18 34 -19 34 -1 0 38 -115 63
-162 35z"/>
<path d="M10360 15550 c0 -5 10 -10 22 -10 30 0 106 -81 145 -155 62 -117 97
-309 78 -431 l-7 -49 -15 44 c-8 25 -21 72 -28 105 -8 37 -15 55 -19 46 -4 -9
6 -60 21 -115 23 -82 27 -118 26 -200 -1 -64 1 -93 7 -80 5 11 9 34 10 50 3
70 20 -19 26 -141 4 -71 11 -124 17 -124 13 0 2 225 -14 300 -8 37 -9 78 -4
125 l8 70 24 -75 c50 -160 65 -229 75 -345 20 -246 24 -280 30 -265 4 8 8 29
10 45 3 25 11 11 44 -75 23 -58 45 -126 48 -152 4 -26 11 -50 17 -53 28 -18
-16 151 -70 269 -27 58 -41 103 -41 130 0 86 -31 237 -80 396 -30 96 -55 200
-61 250 -19 175 -75 305 -169 395 -53 50 -100 71 -100 45z"/>
<path d="M9418 15515 c-48 -18 -122 -69 -143 -97 -8 -13 -15 -34 -15 -48 0
-25 0 -25 19 6 39 64 139 118 207 112 32 -3 41 -9 59 -43 25 -43 51 -61 43
-27 -7 25 22 32 124 32 107 0 161 -31 161 -91 0 -39 21 -32 25 9 7 71 -61 113
-181 111 -39 -1 -85 -4 -102 -8 -25 -5 -35 -1 -61 26 -35 37 -71 42 -136 18z"/>
<path d="M8155 15421 c-65 -29 -197 -134 -318 -254 -98 -97 -118 -123 -154
-197 -23 -47 -49 -116 -58 -155 -9 -38 -25 -90 -36 -115 -46 -109 -51 -153
-56 -467 -4 -186 -2 -303 4 -303 5 0 14 133 20 313 8 208 16 329 26 362 17 62
54 134 101 200 48 67 45 81 -5 25 l-40 -45 28 80 c42 118 108 210 232 322 130
119 251 209 289 217 17 4 54 -1 92 -14 118 -36 148 -21 35 18 -89 31 -116 33
-160 13z"/>
<path d="M9568 15088 c-3 -126 -5 -137 -35 -201 -56 -118 -166 -246 -245 -285
-43 -21 -58 -23 -195 -20 -324 6 -325 5 -463 -42 -224 -76 -387 -162 -546
-286 -53 -42 -91 -65 -90 -56 2 30 -22 22 -29 -10 -4 -18 -34 -64 -65 -103
-121 -147 -209 -314 -226 -428 -12 -76 -21 -74 -40 9 -13 53 -19 117 -19 194
0 112 1 117 33 171 36 64 42 90 15 68 -38 -32 119 170 200 256 64 69 111 108
175 147 126 75 191 125 196 151 19 91 16 118 -11 96 -7 -6 -13 -28 -13 -48 0
-47 -29 -75 -173 -166 -118 -74 -186 -137 -282 -260 -92 -118 -128 -180 -160
-274 -25 -77 -27 -93 -21 -175 6 -93 17 -143 57 -279 19 -66 25 -78 41 -74 15
4 18 -1 18 -29 0 -72 71 -165 136 -181 l38 -8 -3 -67 c-2 -50 7 -106 34 -216
41 -166 57 -200 112 -237 288 -192 326 -211 451 -231 48 -7 155 -32 237 -54
188 -52 224 -56 300 -36 33 8 110 22 170 31 61 9 182 31 270 50 88 18 189 36
225 39 111 11 168 26 248 66 42 21 103 46 135 55 32 9 73 29 90 45 18 15 55
39 82 53 28 14 57 36 64 50 7 14 19 23 26 21 17 -7 175 339 161 353 -3 3 -21
-27 -39 -67 -19 -41 -36 -69 -40 -63 -4 5 15 55 42 109 26 54 53 114 60 132 8
17 17 32 22 32 12 0 12 47 0 54 -13 8 -161 -319 -155 -341 7 -26 -35 -118 -81
-179 -22 -28 -56 -59 -84 -73 -25 -13 -61 -36 -78 -52 -27 -24 -87 -49 -116
-49 -4 0 -44 -18 -87 -40 -96 -47 -126 -56 -250 -70 -52 -7 -153 -24 -225 -40
-71 -15 -190 -38 -264 -50 -74 -11 -160 -28 -190 -36 -73 -19 -99 -15 -371 61
-47 13 -112 26 -145 30 -84 10 -188 52 -270 111 -38 28 -93 63 -122 79 -88 47
-101 67 -144 227 -30 110 -39 162 -39 226 0 74 2 82 19 82 22 0 46 25 32 34
-5 3 -17 3 -27 -1 -16 -6 -17 0 -10 78 6 81 26 214 46 309 5 25 12 117 15 205
9 230 8 228 72 283 169 146 393 270 616 341 l127 41 233 -2 232 -3 58 28 c96
47 227 210 277 344 26 69 30 303 6 303 -12 0 -15 -26 -18 -132z m-1622 -1050
c-3 -24 -6 -80 -7 -125 -2 -91 -9 -112 -29 -88 -7 8 -28 15 -47 15 -32 0 -34
2 -22 18 13 15 12 16 -3 3 -10 -7 -16 -16 -14 -20 3 -3 -11 -17 -31 -29 l-35
-23 7 23 c15 48 163 268 181 268 3 0 4 -19 0 -42z m-76 -238 c0 -5 6 -7 14 -4
8 3 21 -4 30 -18 13 -21 14 -34 1 -118 -19 -131 -34 -244 -41 -312 -5 -53 -8
-58 -29 -58 -31 0 -88 50 -110 97 -15 32 -17 55 -11 164 8 176 11 184 64 225
43 33 82 44 82 24z"/>
<path d="M10166 14837 c-3 -12 -6 -44 -6 -70 0 -52 -41 -166 -87 -247 -14 -25
-66 -95 -114 -157 -49 -61 -99 -131 -111 -155 l-22 -43 -12 40 c-7 22 -13 52
-13 66 -1 34 -53 205 -75 247 -21 41 -212 239 -221 230 -4 -3 24 -39 62 -80
126 -134 140 -155 172 -252 16 -50 36 -127 45 -171 22 -111 39 -175 47 -175 3
0 9 20 12 45 9 63 33 106 122 215 43 52 95 122 116 154 l39 59 0 -34 c0 -19 8
-63 16 -99 20 -79 23 -232 6 -281 l-13 -37 -117 -12 c-171 -18 -256 -37 -362
-82 -105 -45 -268 -124 -287 -140 -18 -14 -16 -38 2 -38 8 0 15 5 15 10 0 6
10 10 23 10 12 0 54 16 91 36 74 39 80 31 14 -17 -30 -21 -36 -29 -22 -29 17
0 19 -8 19 -74 0 -65 3 -78 25 -101 36 -39 93 -65 140 -65 47 0 68 9 127 58
91 73 105 141 51 232 -21 35 -47 62 -72 76 l-39 22 39 12 c60 17 217 25 242
11 26 -14 37 1 22 29 -9 18 -8 20 14 20 34 0 56 -10 56 -26 0 -7 -18 -48 -40
-90 -22 -43 -36 -82 -32 -86 12 -12 155 85 212 142 55 56 137 193 166 278 l21
62 13 -59 c7 -35 11 -99 8 -153 -3 -75 -10 -105 -33 -158 -40 -90 -112 -204
-164 -262 -24 -27 -41 -51 -38 -55 25 -24 281 162 345 252 48 66 173 316 170
339 -4 29 -22 23 -29 -11 -7 -34 -133 -275 -168 -322 -31 -41 -175 -167 -214
-188 -27 -13 -25 -10 21 59 108 161 148 275 138 396 -6 73 -28 167 -48 209 -6
12 -8 33 -6 48 6 27 -9 46 -17 23 -2 -7 -8 -52 -13 -100 -9 -80 -14 -96 -68
-190 -31 -56 -75 -121 -96 -144 -38 -41 -164 -136 -157 -117 25 63 56 123 64
123 6 0 23 11 39 23 33 27 31 57 -5 57 -16 0 -19 4 -14 18 5 9 10 58 12 107 4
69 0 110 -16 178 -12 49 -21 99 -21 112 0 13 -4 26 -9 29 -5 3 5 39 22 78 22
53 32 94 35 149 4 74 -9 114 -22 66z m-380 -951 c69 -68 60 -106 -48 -196 -69
-57 -115 -66 -162 -29 -22 17 -26 28 -26 71 0 85 44 152 100 150 32 -1 41 15
13 25 -15 6 -15 7 3 14 46 18 76 10 120 -35z"/>
<path d="M9632 13753 c2 -12 13 -18 33 -18 20 0 31 6 33 18 3 14 -4 17 -33 17
-29 0 -36 -3 -33 -17z"/>
<path d="M10796 14161 c-3 -5 7 -37 23 -72 61 -135 74 -224 82 -559 5 -211 12
-324 22 -365 8 -33 31 -123 50 -200 20 -77 52 -216 72 -310 35 -170 73 -275
100 -275 10 0 8 10 -10 35 -14 22 -34 81 -50 153 -15 64 -31 132 -35 151 l-9
33 34 -38 c19 -22 34 -34 35 -27 0 6 -5 15 -11 19 -19 11 -69 128 -69 161 0
17 -4 33 -10 35 -5 2 -28 72 -51 156 -40 152 -47 220 -25 277 8 20 7 20 -8 1
-15 -18 -16 0 -16 224 0 205 -3 264 -22 367 -14 81 -25 123 -34 123 -7 0 -15
13 -19 30 -4 16 -11 32 -16 35 -5 4 -9 15 -9 25 0 21 -16 35 -24 21z"/>
<path d="M8310 14040 c-166 -37 -294 -89 -318 -130 -7 -12 -11 -25 -8 -28 4
-3 66 11 139 32 72 21 140 41 149 43 11 3 1 -11 -21 -33 -30 -31 -41 -52 -51
-98 -15 -73 -3 -121 41 -166 47 -47 87 -63 174 -69 l80 -6 -45 -18 c-45 -19
-194 -38 -260 -34 -31 2 -35 -1 -35 -23 0 -24 2 -25 70 -24 160 1 357 37 388
72 35 38 -8 86 -55 61 -14 -7 -2 11 28 43 63 66 83 104 91 168 4 36 1 56 -10
73 -15 23 -98 63 -177 85 -30 8 -20 10 61 11 105 1 151 -10 189 -44 31 -29
121 -61 144 -52 25 10 11 25 -28 33 -19 3 -57 23 -85 44 -69 52 -135 71 -266
76 -84 3 -130 -1 -195 -16z m197 -102 c15 -6 39 -13 53 -14 37 -5 75 -38 78
-69 6 -46 -27 -113 -83 -171 l-53 -54 -71 0 c-128 0 -201 54 -201 149 0 31 3
39 14 35 10 -4 21 9 35 40 11 25 31 57 45 71 22 22 34 25 90 25 36 0 77 -5 93
-12z m88 -338 c-3 -5 -14 -10 -23 -9 -14 0 -13 2 3 9 27 11 27 11 20 0z"/>
<path d="M8411 13778 c-9 -24 -4 -48 9 -48 16 0 41 32 38 49 -5 26 -37 25 -47
-1z"/>
<path d="M10678 13926 c-81 -29 -178 -130 -178 -185 0 -27 17 -27 25 0 5 16
10 18 21 8 17 -14 19 2 3 18 -8 8 0 23 32 55 119 118 237 101 254 -37 7 -49 4
-66 -11 -94 -27 -50 -124 -125 -221 -171 -88 -42 -147 -100 -125 -122 9 -9 21
-1 48 30 19 23 40 42 46 42 24 0 138 66 200 116 87 70 101 97 96 184 -4 69
-29 123 -69 148 -29 19 -83 22 -121 8z"/>
<path d="M9690 13534 c-25 -7 -84 -15 -131 -19 -94 -7 -115 -15 -106 -39 6
-14 19 -15 94 -10 146 9 226 22 286 45 31 12 57 25 57 28 0 12 -155 8 -200 -5z"/>
<path d="M8965 13115 c-23 -22 -25 -31 -25 -120 0 -86 2 -96 18 -93 13 3 17
15 19 63 4 85 12 122 29 140 15 15 11 35 -7 35 -5 0 -21 -11 -34 -25z"/>
<path d="M9176 12735 c-63 -23 -84 -25 -236 -25 -121 0 -171 -4 -184 -13 -49
-36 83 -67 211 -49 196 26 239 35 283 55 54 26 67 57 23 57 -15 -1 -59 -12
-97 -25z m-261 -55 c16 -7 13 -9 -15 -8 -19 0 -46 4 -60 8 -21 7 -19 8 15 8
22 0 49 -3 60 -8z"/>
<path d="M7226 12531 c-8 -23 1 -508 10 -523 3 -4 -2 -8 -11 -8 -22 0 -108 90
-125 129 -12 29 -40 44 -40 21 0 -38 91 -150 143 -177 27 -14 29 -17 22 -56
-14 -84 -21 -167 -13 -167 4 0 8 15 8 33 0 17 7 41 15 51 8 11 15 41 15 67 0
43 2 47 24 45 21 -1 26 -8 35 -55 16 -78 14 -195 -4 -238 -8 -19 -15 -38 -15
-40 0 -19 134 81 176 130 35 42 62 105 70 166 9 70 19 82 44 51 11 -14 30 -50
42 -80 20 -48 23 -75 24 -215 2 -192 1 -188 14 -180 6 4 8 10 5 15 -9 15 21
160 48 231 53 141 148 298 201 333 29 18 34 36 11 36 -45 0 -161 -164 -215
-302 l-28 -72 -7 39 c-20 124 -46 187 -95 228 -16 14 -30 35 -30 46 0 19 -17
38 -25 29 -2 -2 -7 -37 -10 -78 -12 -155 -44 -228 -128 -288 l-47 -33 0 95 c0
132 -14 191 -56 233 l-34 34 1 97 c0 168 -15 429 -25 403z m38 -537 c3 -8 2
-12 -4 -9 -6 3 -10 10 -10 16 0 14 7 11 14 -7z"/>
<path d="M10590 12514 c0 -8 5 -25 12 -37 6 -12 10 -49 9 -83 -4 -118 58 -354
94 -354 9 0 6 17 -11 64 -27 75 -54 210 -54 272 l0 43 42 -39 c53 -49 161
-102 253 -125 79 -20 179 -15 204 10 19 19 7 32 -14 15 -39 -33 -251 12 -361
77 -47 27 -128 109 -146 148 -13 28 -28 33 -28 9z"/>
<path d="M10261 12466 c-7 -8 -4 -22 10 -45 16 -27 19 -47 17 -108 -3 -84 3
-81 -98 -44 -40 15 -77 21 -135 20 -129 -1 -135 0 -135 15 0 21 -40 46 -72 46
-18 0 -28 5 -28 15 0 8 -9 24 -20 35 -16 16 -33 20 -94 20 -77 0 -128 -15
-181 -54 -28 -20 -79 -46 -91 -46 -3 0 -5 19 -3 43 4 67 0 107 -11 107 -12 0
-13 -149 -1 -168 6 -10 14 -9 39 5 26 15 35 16 52 6 24 -16 33 -17 25 -3 -11
18 45 10 64 -9 11 -11 27 -44 37 -74 l17 -55 -37 -66 c-20 -36 -32 -66 -26
-66 6 0 13 7 16 15 4 8 13 15 21 15 8 0 11 5 7 11 -8 13 15 59 31 59 6 0 11
18 12 43 0 23 -1 36 -4 28 -6 -15 -43 69 -46 103 -2 20 -50 40 -75 31 -30 -11
3 17 36 31 60 25 156 30 187 10 14 -9 25 -20 25 -24 0 -4 -20 -14 -45 -21 -25
-7 -45 -18 -45 -23 0 -6 8 -7 17 -4 39 15 105 26 128 20 23 -6 62 -40 54 -48
-2 -2 -17 -11 -34 -20 -26 -15 -27 -16 -5 -11 14 4 40 9 58 12 27 4 32 2 32
-15 0 -37 -101 -151 -193 -219 -48 -35 -18 -27 49 13 32 20 70 41 84 46 14 6
20 12 13 15 -7 3 2 17 23 35 19 17 33 35 32 42 -2 6 4 26 11 45 l14 33 86 -4
c107 -5 181 -35 181 -74 0 -14 7 -27 15 -31 9 -3 28 -29 42 -57 14 -28 36 -65
49 -82 28 -36 30 -46 9 -38 -23 9 -18 -15 10 -48 14 -16 25 -36 25 -44 0 -31
61 -145 138 -258 45 -66 82 -113 82 -104 0 8 -29 59 -64 112 -36 54 -62 104
-59 112 3 8 -1 14 -10 14 -13 0 -64 97 -55 106 2 2 40 -35 83 -82 43 -47 153
-153 244 -234 91 -82 186 -169 209 -193 39 -40 43 -47 32 -67 -6 -12 -10 -23
-8 -25 8 -8 78 67 78 85 0 10 5 22 10 25 13 8 13 25 0 25 -5 0 -12 -11 -16
-25 -13 -53 -27 -48 -105 32 -41 42 -132 130 -204 196 -219 203 -364 367 -325
367 21 0 8 24 -50 95 -67 82 -83 130 -78 235 l3 62 65 -79 c36 -43 101 -125
144 -183 96 -128 135 -170 157 -170 21 0 32 27 19 48 -8 14 -9 13 -10 -7 0
-24 0 -24 -21 -5 -12 10 -65 78 -118 149 -54 72 -127 166 -164 209 -36 44 -64
83 -61 88 3 4 -1 8 -9 8 -20 0 -31 31 -15 42 7 4 11 8 8 9 -3 0 -13 2 -22 4
-9 2 -22 -2 -27 -9z"/>
<path d="M11065 12457 c-11 -25 2 -81 26 -112 27 -34 35 -26 14 15 -9 17 -20
50 -24 73 -6 32 -10 38 -16 24z"/>
<path d="M8830 12364 c-14 -36 -12 -64 4 -64 14 0 26 29 26 68 0 30 -18 28
-30 -4z"/>
<path d="M8432 12295 c-14 -17 -30 -25 -50 -25 -43 0 -83 -37 -87 -80 -2 -35
-26 -53 -40 -31 -3 6 -28 11 -55 11 -45 0 -55 -5 -122 -59 -116 -93 -143 -124
-171 -193 -35 -89 -52 -180 -38 -206 14 -27 14 -32 -3 -32 -29 0 -97 -95 -163
-228 -37 -75 -100 -184 -139 -242 -39 -58 -81 -124 -92 -146 -12 -23 -28 -44
-35 -47 -8 -3 -38 -44 -66 -91 -29 -47 -56 -88 -62 -91 -5 -4 -9 -15 -9 -26 0
-11 4 -18 9 -15 11 7 65 -59 75 -91 6 -18 4 -20 -14 -16 -32 8 -24 -11 20 -46
22 -17 40 -39 40 -48 0 -9 3 -14 6 -10 7 7 41 -32 72 -85 13 -20 49 -71 82
-114 l59 -77 -20 -28 c-32 -45 -95 -187 -118 -265 -23 -76 -92 -381 -110 -479
-6 -33 -20 -141 -31 -240 -11 -99 -30 -232 -41 -295 -18 -97 -22 -169 -26
-465 -5 -340 9 -817 25 -880 17 -61 26 -21 28 124 1 84 7 157 13 167 6 11 11
13 11 7 0 -7 5 -13 10 -13 6 0 8 10 4 24 -4 18 1 28 24 45 50 35 242 52 242
21 0 -5 15 -6 34 -3 28 4 52 -4 134 -48 89 -47 125 -58 109 -32 -3 4 -53 33
-112 63 l-107 55 -126 0 c-110 0 -133 -3 -171 -22 l-43 -22 6 32 c12 60 46
284 76 508 43 311 61 392 142 633 39 116 86 261 103 321 19 64 37 109 44 107
7 -1 11 15 11 44 0 36 14 74 70 188 39 78 70 147 70 154 0 28 30 -2 75 -77 6
-10 25 -35 42 -58 18 -22 31 -42 28 -45 -2 -2 27 -39 65 -81 39 -43 70 -84 70
-93 0 -8 -11 -19 -24 -24 -26 -10 -42 -28 -32 -37 4 -4 12 -1 18 5 28 28 38
13 38 -57 0 -110 41 -181 105 -181 19 0 38 6 42 13 13 21 156 108 169 103 15
-6 24 16 24 60 0 62 31 187 53 215 25 32 52 35 102 15 23 -10 35 -22 35 -34 0
-11 11 -48 24 -84 26 -69 25 -113 -4 -128 -11 -6 -19 -26 -23 -56 -6 -60 -19
-72 -51 -50 -42 27 -58 21 -51 -18 9 -47 -17 -95 -55 -103 -26 -5 -30 -10 -30
-39 0 -40 -28 -59 -73 -50 -40 8 -113 64 -129 99 -16 34 -28 35 -28 0 0 -18
13 -38 41 -64 83 -77 159 -91 203 -38 14 17 26 37 26 45 0 8 11 19 23 25 26
12 57 57 57 83 0 12 10 16 34 16 42 0 66 29 66 77 0 21 9 41 25 57 28 28 34
82 14 133 -7 19 -7 29 0 31 32 11 -1 74 -60 118 l-30 22 73 7 c95 9 150 4 156
-14 4 -12 -8 -13 -67 -8 -39 3 -71 2 -71 -2 0 -25 332 -29 530 -7 139 16 336
10 320 -9 -32 -39 74 -33 334 19 122 25 267 48 322 52 120 8 139 0 180 -81
l26 -50 -41 40 c-29 28 -44 36 -52 28 -15 -15 9 -59 76 -138 30 -35 55 -66 55
-68 0 -9 273 -522 309 -582 46 -76 179 -267 236 -339 54 -68 119 -116 156
-116 21 0 32 -6 38 -22 12 -33 24 -168 14 -168 -4 0 -31 35 -60 78 -29 43 -61
86 -72 96 -21 19 -41 14 -41 -11 0 -18 88 -140 107 -147 29 -11 10 -21 -40
-21 -40 0 -60 -6 -86 -25 -24 -18 -35 -21 -38 -12 -9 24 -35 42 -60 42 -14 0
-60 -22 -102 -49 -94 -60 -149 -88 -220 -112 -56 -20 -238 -56 -304 -61 l-38
-3 -23 65 c-13 36 -58 157 -101 269 -67 180 -76 210 -70 248 3 24 2 43 -3 43
-7 0 -26 -71 -35 -135 -5 -35 61 -273 95 -343 18 -37 35 -71 37 -76 2 -4 -33
11 -77 35 -51 28 -78 48 -75 57 7 17 -31 58 -82 87 -65 38 -142 56 -241 56
-145 0 -202 -28 -312 -153 -18 -21 -37 -38 -42 -38 -5 0 -18 21 -30 46 l-20
47 -43 -6 c-24 -3 -79 -20 -123 -37 -111 -42 -194 -40 -194 6 0 29 -14 30 -76
4 l-47 -21 -121 26 c-67 14 -139 31 -161 37 -63 16 -86 13 -140 -20 -65 -40
-237 -79 -277 -63 -33 13 -58 67 -58 125 0 53 15 78 24 42 9 -38 50 -36 71 4
17 33 18 40 7 40 -5 0 -14 -11 -20 -25 -17 -37 -32 -30 -32 13 0 60 39 264 56
290 9 13 25 22 40 22 16 0 23 4 18 11 -3 6 -17 9 -30 6 -13 -2 -24 -1 -24 3 0
15 72 245 83 265 10 19 11 19 18 -5 6 -23 7 -23 8 8 1 36 -21 44 -38 15 -14
-24 -14 -3 -1 52 7 31 6 49 -8 82 -24 61 -44 56 -41 -9 2 -39 -12 -101 -51
-233 -29 -99 -61 -216 -71 -260 -19 -79 -56 -201 -67 -220 -9 -15 -10 -95 -2
-100 4 -2 2 -33 -4 -67 -9 -52 -15 -63 -31 -63 -27 0 -30 -32 -11 -90 12 -34
16 -88 16 -218 l0 -172 -19 41 c-22 49 -93 123 -99 105 -2 -7 11 -29 31 -49
44 -47 53 -65 61 -127 11 -76 15 -85 41 -85 18 0 33 16 69 73 63 101 77 113
133 122 26 4 84 26 128 48 61 32 93 43 135 45 30 1 66 3 80 5 22 2 25 -3 35
-52 13 -70 40 -85 30 -17 -12 77 2 52 25 -46 29 -122 17 -228 -25 -228 -12 0
-15 -18 -15 -90 0 -62 -4 -90 -12 -90 -8 0 -10 -55 -5 -214 7 -236 2 -288 -42
-426 -42 -131 -46 -177 -22 -297 21 -110 32 -136 97 -232 24 -35 44 -69 44
-76 0 -8 29 -45 65 -84 36 -39 65 -76 65 -81 0 -5 21 -31 48 -57 97 -98 183
-143 233 -123 32 14 40 30 76 170 22 84 28 128 28 216 l0 111 -45 50 c-31 34
-57 79 -79 134 -31 77 -34 97 -43 251 -8 140 -7 179 6 243 10 49 16 128 16
215 l0 138 56 73 c70 91 124 149 141 149 6 0 24 15 38 34 34 45 178 303 215
385 31 69 35 71 21 8 -9 -37 3 -64 13 -30 13 47 46 215 46 238 0 23 4 25 41
25 l41 0 -31 -35 c-31 -36 -39 -59 -22 -69 5 -3 11 7 14 23 4 17 20 39 38 52
30 21 36 22 86 11 64 -13 242 -96 329 -153 57 -36 70 -41 160 -50 55 -5 111
-17 127 -25 17 -9 27 -11 27 -4 0 7 6 8 19 0 24 -12 34 -13 27 -2 -3 5 48 12
113 15 130 7 161 16 292 82 87 44 185 75 240 75 23 0 27 -5 33 -40 9 -55 26
-51 26 6 l0 46 113 -7 c193 -12 242 16 235 136 -3 57 -9 75 -42 124 -21 32
-49 87 -63 124 -31 83 -101 213 -166 310 -27 41 -67 116 -88 169 -78 192 -159
306 -327 461 -70 65 -109 108 -122 139 -35 78 -109 179 -179 244 -37 35 -78
83 -91 108 -12 25 -29 52 -36 61 -8 9 -17 26 -19 39 -4 19 2 15 34 -19 36 -39
61 -52 61 -31 0 5 -16 30 -35 55 -19 25 -47 73 -62 105 -16 36 -33 60 -43 60
-28 0 -58 146 -64 311 -4 101 -10 160 -22 190 -19 52 -29 122 -19 147 6 15 9
13 21 -10 22 -42 134 -319 134 -332 0 -29 93 -197 123 -221 49 -41 218 -133
268 -146 61 -16 112 0 185 56 31 25 60 45 64 45 4 0 19 17 34 38 25 34 27 35
20 10 -11 -48 3 -31 47 55 23 45 59 109 80 142 37 57 39 58 33 25 -4 -26 -3
-31 5 -20 5 8 12 12 14 10 14 -15 77 -152 77 -167 0 -10 16 -47 35 -83 88
-162 195 -383 225 -462 19 -49 37 -88 41 -88 5 0 4 12 -2 26 -5 15 -8 28 -6
30 5 6 74 -155 114 -266 34 -94 52 -128 54 -99 1 26 48 -91 95 -235 26 -77 50
-145 55 -150 14 -15 11 4 -7 58 -25 74 -10 64 21 -14 16 -39 49 -106 74 -148
105 -176 153 -326 166 -512 3 -52 13 -133 22 -180 20 -100 20 -394 2 -582 -7
-64 -9 -123 -6 -132 9 -24 24 -19 31 9 4 14 26 53 51 86 64 87 125 259 214
599 55 215 61 252 68 440 10 304 -20 396 -207 620 -50 60 -70 91 -66 104 12
48 -198 458 -354 691 -82 123 -161 272 -204 385 -41 110 -126 253 -210 357
l-67 81 39 59 c22 32 66 102 97 156 32 55 71 114 87 133 16 18 27 38 24 43 -3
5 -1 11 6 13 7 3 8 7 2 11 -15 9 -25 -2 -79 -85 -28 -43 -55 -78 -60 -78 -6 0
-18 -21 -27 -48 -10 -26 -37 -78 -61 -116 l-44 -68 -27 34 c-29 38 -34 85 -15
151 14 52 6 69 -14 31 -43 -84 -41 -158 7 -215 l26 -30 -26 -47 c-13 -26 -47
-76 -74 -112 -93 -123 -109 -145 -164 -239 -31 -52 -56 -91 -56 -86 0 6 -41
-32 -91 -84 -94 -96 -149 -130 -206 -131 -45 0 -190 76 -211 112 -17 30 -35
39 -25 12 5 -15 3 -15 -24 -1 -16 9 -34 22 -40 29 -17 22 -73 183 -73 211 0
15 -6 27 -13 27 -7 0 -20 19 -29 43 -9 23 -28 68 -42 100 -29 65 -27 77 4 17
11 -22 25 -40 30 -40 14 0 -30 85 -93 177 l-53 78 4 155 c2 85 9 161 14 168 8
8 6 12 -5 12 -18 0 -27 -20 -28 -68 -1 -27 -5 -16 -16 41 -8 42 -19 77 -24 77
-12 0 -11 -12 2 -126 10 -85 10 -97 -6 -114 -11 -12 -16 -33 -15 -62 3 -63 1
-68 -14 -68 -9 0 -16 -12 -18 -27 -2 -16 -9 -28 -18 -28 -8 0 -19 -18 -27 -44
-15 -52 -38 -79 -93 -110 l-40 -22 -9 23 c-8 20 -10 21 -16 6 -20 -51 30 -63
90 -22 30 20 40 23 46 12 5 -7 9 -8 10 -3 2 30 42 -180 44 -235 2 -62 24 -132
44 -145 6 -3 1 20 -10 52 -11 32 -18 65 -15 73 3 11 4 11 5 -2 1 -25 21 -23
21 2 0 11 3 20 8 20 14 -1 52 -96 52 -131 0 -31 33 -164 55 -221 16 -42 -40
-5 -65 42 -6 12 -14 56 -17 98 -5 61 -8 71 -15 51 -5 -13 -8 -43 -5 -66 6 -56
-3 -58 -162 -43 -114 11 -144 10 -306 -9 -99 -12 -250 -28 -335 -36 -166 -16
-752 -47 -758 -41 -2 2 4 25 13 52 10 30 12 51 6 57 -15 15 -28 0 -46 -54 -9
-28 -19 -49 -21 -46 -2 2 2 61 9 131 12 118 8 160 -13 127 -10 -17 -20 92 -20
223 0 96 -17 270 -36 371 -15 85 -48 222 -56 238 -7 14 5 44 52 129 33 61 59
112 57 115 -7 7 -73 -98 -123 -195 -36 -71 -62 -106 -113 -154 -75 -70 -130
-156 -191 -298 -23 -52 -48 -107 -56 -122 -18 -34 -18 -44 4 -52 9 -3 23 -9
31 -12 10 -5 12 -2 8 10 -14 37 13 12 48 -44 40 -64 96 -179 70 -145 -26 35
-57 65 -67 65 -10 0 -12 4 63 -110 92 -141 128 -203 148 -255 29 -77 85 -199
94 -206 5 -3 5 -17 2 -31 -5 -20 -2 -26 14 -31 15 -3 21 -13 21 -32 0 -22 -3
-25 -20 -20 -15 5 -25 -3 -47 -37 -35 -54 -144 -160 -189 -184 l-35 -19 -48
55 c-27 30 -47 60 -44 66 4 11 -68 123 -125 194 -45 55 -21 42 31 -17 21 -24
43 -41 47 -38 5 3 19 -13 32 -35 24 -41 48 -57 27 -17 -68 126 -208 333 -240
352 -23 15 -19 -4 7 -31 23 -25 146 -203 169 -244 4 -8 -15 10 -42 40 -28 30
-51 60 -52 65 -2 6 -26 35 -54 66 -184 197 -294 338 -275 350 7 4 3 11 -10 18
-12 7 -28 35 -41 73 -60 183 -50 377 25 475 14 18 21 33 15 33 -31 0 -83 -116
-95 -210 -4 -30 -13 -62 -21 -70 -7 -8 -20 -35 -29 -60 l-17 -45 4 65 c3 40
20 111 45 185 44 132 132 327 139 308 2 -6 -17 -53 -42 -103 -52 -104 -46
-114 9 -15 36 63 68 100 52 59 -4 -10 -10 -32 -12 -49 l-5 -30 16 34 c8 19 27
72 41 118 37 117 182 357 209 347 10 -4 15 0 15 15 0 43 -31 18 -91 -74 -35
-52 -64 -93 -66 -91 -2 2 11 42 28 90 21 58 39 92 55 102 22 15 23 21 17 74
-4 44 0 75 17 131 39 129 68 169 125 169 37 0 49 16 16 22 -15 2 -5 14 44 51
64 48 125 68 152 50 15 -10 19 -71 9 -134 -5 -35 -4 -48 8 -58 19 -16 78 -10
84 8 4 11 -4 13 -37 7 -40 -6 -41 -5 -41 21 0 16 3 38 6 50 5 19 10 21 25 12
24 -12 25 -1 2 17 -17 12 -16 13 7 14 22 1 23 2 7 11 -9 5 -21 8 -26 5 -5 -3
-8 5 -7 19 1 26 15 32 32 15 6 -6 10 -3 11 10 1 11 -2 20 -8 20 -15 0 -10 36
9 59 9 12 34 26 55 30 34 8 38 7 43 -15 9 -35 81 -93 125 -100 l37 -6 4 -60
c2 -32 -1 -63 -5 -67 -15 -15 12 -50 86 -109 40 -31 82 -67 94 -79 12 -12 50
-36 83 -53 33 -17 60 -32 60 -34 0 -2 -17 0 -37 5 -88 21 -96 22 -89 11 4 -7
11 -12 16 -12 5 0 21 -5 36 -10 26 -10 26 -11 8 -25 -20 -16 -19 -16 62 0 22
5 24 3 15 -12 -5 -10 -30 -45 -55 -78 -26 -32 -44 -65 -42 -72 3 -7 -1 -13 -9
-13 -24 0 -18 -13 26 -55 23 -22 74 -87 115 -144 77 -108 140 -166 267 -248
37 -23 67 -47 67 -53 0 -16 27 -11 52 10 12 11 55 43 93 71 103 76 205 169
218 198 6 14 14 55 18 91 21 181 22 200 10 214 -9 11 -9 15 1 18 10 4 10 8 -1
22 -8 9 -20 15 -27 12 -6 -2 -22 7 -35 21 -13 14 -51 38 -83 53 -35 16 -54 30
-47 34 6 4 23 14 38 21 15 8 28 22 28 32 0 13 19 23 73 39 81 25 110 43 91 55
-18 11 49 49 86 50 25 0 27 2 13 11 -14 11 -14 14 9 31 42 33 17 30 -33 -4
-26 -18 -54 -32 -62 -32 -8 0 -26 -11 -40 -24 -14 -12 -21 -23 -17 -23 5 0 0
-7 -11 -15 -15 -11 -16 -15 -4 -15 8 -1 -12 -9 -45 -19 -66 -19 -115 -47 -115
-65 0 -15 -97 -62 -106 -53 -4 4 6 17 22 29 72 56 127 115 121 132 -4 9 -11
16 -16 16 -6 0 -8 -6 -5 -14 5 -13 -86 -110 -94 -101 -5 4 103 141 118 150 5
3 10 10 10 15 0 24 -37 -11 -114 -108 l-85 -106 -103 3 c-57 1 -132 7 -166 13
l-64 10 -37 -36 c-35 -35 -61 -46 -61 -27 0 5 -22 23 -48 39 -88 54 -272 207
-272 225 0 5 9 -2 21 -17 11 -14 27 -26 35 -26 10 0 9 5 -6 20 -26 26 -33 58
-28 135 5 75 30 118 71 123 33 4 34 -1 1 -44 -33 -43 -20 -44 23 -2 26 25 33
28 33 14 0 -9 -5 -26 -10 -37 -19 -35 7 -20 29 17 25 42 25 44 5 44 -8 0 -13
4 -9 10 3 5 12 7 20 3 8 -3 15 0 15 6 0 11 -12 15 -43 11 -11 -1 -25 8 -33 19
-21 29 -105 51 -195 51 -71 0 -79 -2 -97 -25z m246 -16 c40 -14 42 -29 4 -29
-33 0 -55 -21 -77 -73 l-15 -37 -38 15 c-37 16 -102 71 -102 87 0 5 14 2 30
-7 17 -9 30 -11 30 -6 0 5 -14 14 -30 21 -35 15 -35 31 1 42 32 10 155 2 197
-13z m432 -559 c19 -6 101 -15 182 -20 l146 -8 64 -41 c34 -23 80 -47 101 -53
40 -12 45 -26 23 -61 -8 -12 -16 -63 -19 -116 l-6 -94 -43 -44 c-24 -25 -86
-85 -140 -134 l-96 -89 -91 62 -90 63 77 5 c65 5 87 12 145 44 72 41 81 51 91
109 10 55 -9 102 -50 128 -33 20 -40 21 -104 10 -93 -15 -131 -14 -158 5 -34
24 -27 49 25 83 25 17 53 31 60 31 8 0 39 -16 69 -35 30 -19 63 -35 74 -35 31
0 24 34 -15 76 -19 20 -35 45 -35 54 0 22 -20 30 -75 30 -66 0 -132 -49 -169
-125 -34 -72 -43 -120 -27 -139 18 -21 84 -54 124 -61 21 -4 58 0 95 10 60 17
112 14 112 -6 0 -29 -32 -80 -55 -89 -30 -12 -100 -13 -208 -4 l-75 7 -51 72
c-28 40 -73 92 -100 117 l-49 44 74 87 c45 52 82 87 93 87 14 0 18 5 14 20 -4
17 0 20 23 20 16 0 45 -5 64 -10z m-1323 -217 c-12 -33 -30 -66 -40 -73 -11
-6 -17 -8 -15 -3 17 38 72 142 74 140 2 -1 -7 -30 -19 -64z m-61 -168 c-19
-42 -40 -74 -46 -70 -9 6 37 111 63 143 24 30 17 -3 -17 -73z m724 -130 c7
-27 14 -63 15 -80 1 -16 9 -60 17 -97 9 -38 11 -69 6 -70 -5 -2 -2 -32 6 -68
9 -37 16 -111 16 -171 l0 -106 -27 4 -28 4 24 -20 c28 -25 40 -73 42 -166 0
-38 4 -95 8 -125 3 -31 1 -95 -7 -144 -12 -86 -17 -104 -26 -95 -12 12 -316
639 -322 662 -4 17 -16 32 -30 37 -28 11 -29 36 -1 108 12 33 24 51 32 48 8
-3 17 12 25 41 22 76 142 243 176 243 7 0 21 14 30 31 19 37 27 31 44 -36z
m-747 25 c-3 -12 -8 -19 -11 -16 -5 6 5 36 12 36 2 0 2 -9 -1 -20z m-120 -94
c-18 -38 -33 -56 -46 -56 -12 0 -16 4 -11 13 16 27 78 106 81 103 2 -2 -8 -29
-24 -60z m-72 -181 c-39 -113 -51 -121 -31 -22 15 79 35 127 53 127 10 0 4
-27 -22 -105z m-78 5 c-3 -12 -8 -19 -11 -16 -5 6 5 36 12 36 2 0 2 -9 -1 -20z
m19 -97 c-3 -123 -12 -180 -23 -162 -12 19 -11 59 2 59 5 0 7 5 4 10 -4 6 -11
7 -17 4 -8 -5 -9 4 -6 27 6 33 38 149 41 149 1 0 1 -39 -1 -87z m-46 21 c-4
-20 -10 -34 -13 -30 -3 3 -2 21 1 42 4 20 10 34 13 30 3 -3 2 -21 -1 -42z
m2888 -44 c4 -14 -4 -5 -18 20 -14 25 -25 50 -25 55 -1 16 36 -48 43 -75z
m1215 -34 c76 -92 154 -227 191 -327 45 -121 115 -253 209 -394 152 -226 374
-641 352 -655 -14 -8 18 -69 71 -135 163 -208 198 -302 198 -540 0 -178 -14
-279 -66 -490 -74 -303 -152 -530 -205 -595 l-20 -25 5 75 c17 235 18 439 3
516 -9 43 -21 139 -27 212 -18 223 -53 329 -184 557 -46 79 -114 242 -143 340
-19 63 -32 87 -43 80 -4 -3 -2 -26 6 -52 8 -25 14 -51 14 -57 0 -13 -56 114
-89 202 -13 34 -26 60 -29 57 -3 -3 -23 36 -44 87 -44 106 -146 316 -179 368
-13 19 -74 141 -137 270 -62 129 -121 250 -130 268 -16 32 -16 35 12 88 16 30
33 54 38 54 5 0 6 -4 3 -10 -3 -5 -4 -10 -2 -10 2 0 21 28 42 63 57 95 79 127
87 127 4 0 34 -33 67 -74z m-4139 12 c0 -40 -1 -41 -17 -26 -14 14 -15 22 -5
43 16 36 22 31 22 -17z m2775 -12 c-9 -51 -22 -67 -29 -35 -4 20 -2 72 3 75 0
0 8 1 17 1 12 0 14 -8 9 -41z m29 -45 c-4 -40 -11 -68 -15 -64 -5 5 -3 39 3
76 6 37 13 66 15 64 2 -2 0 -36 -3 -76z m-2605 -146 l19 -80 -39 44 c-35 39
-39 49 -39 97 0 29 6 65 13 81 l12 27 8 -44 c4 -25 16 -81 26 -125z m2660 -20
c0 -79 0 -79 -14 -46 -16 35 -20 148 -8 191 6 22 8 19 14 -20 4 -25 8 -81 8
-125z m-100 83 c12 -34 21 -71 20 -82 -1 -20 -47 106 -48 132 -2 26 8 9 28
-50z m266 -96 c3 -15 -8 7 -25 48 -16 41 -30 77 -29 80 1 10 49 -101 54 -128z
m-2912 51 c9 -24 15 -43 12 -43 -8 0 -35 58 -35 76 0 23 3 18 23 -33z m227
-321 c-15 -5 -47 25 -83 78 l-30 45 62 -60 c34 -33 57 -61 51 -63z m3383 93
c-3 -9 -8 -14 -10 -11 -3 3 -2 9 2 15 9 16 15 13 8 -4z m-814 -135 c0 -9 -4
-8 -9 5 -5 11 -9 27 -9 35 0 9 4 8 9 -5 5 -11 9 -27 9 -35z m-2591 -11 c8 -12
9 -18 3 -14 -6 3 -11 1 -11 -4 0 -6 4 -11 8 -11 4 0 35 -17 68 -39 52 -34 104
-87 104 -107 0 -4 7 -12 16 -19 15 -10 13 -19 -15 -86 -17 -41 -42 -92 -56
-114 -42 -69 -63 -121 -106 -263 -22 -75 -77 -243 -120 -372 -85 -253 -107
-342 -139 -575 -40 -294 -71 -501 -84 -575 l-13 -75 -8 90 c-4 50 -5 243 -2
431 6 296 10 361 31 495 14 85 33 224 41 309 34 324 150 779 235 918 23 38 31
39 48 11z m2311 -3 c-14 -13 -615 -87 -693 -86 -22 1 -50 7 -64 14 -24 12 -20
14 54 20 80 7 424 42 479 49 41 5 229 8 224 3z m200 -39 c7 -20 12 -39 10 -41
-22 -22 -685 -38 -717 -18 -7 5 40 14 110 21 68 7 194 23 281 37 187 28 210
29 232 8 8 -9 23 -13 32 -10 14 6 14 9 -3 27 -19 21 -18 21 11 17 23 -2 32
-10 44 -41z m-2448 7 c22 -25 22 -26 3 -16 -12 6 -24 18 -28 27 -8 21 -3 19
25 -11z m60 -31 c13 -16 12 -17 -3 -4 -10 7 -18 15 -18 17 0 8 8 3 21 -13z
m1402 -12 l28 -18 -73 -6 c-40 -3 -100 -4 -133 -1 -37 4 -55 2 -47 -3 8 -6
-44 -14 -145 -22 -87 -7 -182 -17 -211 -23 -30 -5 -56 -8 -58 -6 -2 3 2 18 8
35 14 39 32 43 187 44 96 1 312 10 396 17 11 1 33 -6 48 -17z m1137 -46 c0 -5
-5 -3 -10 5 -5 8 -10 20 -10 25 0 6 5 3 10 -5 5 -8 10 -19 10 -25z m-56 -15
l7 -25 -15 25 c-17 28 -21 50 -7 35 5 -6 12 -21 15 -35z m-49 -30 c10 -33 16
-62 14 -63 -2 -2 -37 -10 -76 -19 -72 -15 -73 -14 -73 6 0 12 7 32 16 44 13
19 13 22 0 22 -8 0 -19 -12 -24 -27 -7 -18 -11 -22 -11 -10 -1 9 -6 17 -11 17
-6 0 -8 -15 -4 -38 l6 -37 -117 -29 c-64 -15 -119 -25 -122 -22 -4 3 0 17 7
30 9 17 11 47 7 92 l-5 67 104 -6 c58 -2 104 -1 106 5 3 7 80 21 149 27 11 1
21 -17 34 -59z m-872 43 c-13 -2 -35 -2 -50 0 -16 2 -5 4 22 4 28 0 40 -2 28
-4z m-10 -20 c153 -6 159 -7 174 -30 14 -22 56 -153 50 -159 -8 -7 -197 -24
-273 -24 l-92 0 -7 78 c-6 75 -18 113 -29 101 -3 -3 -1 -32 4 -65 16 -98 14
-111 -19 -116 -27 -4 -32 1 -63 59 -18 34 -36 63 -40 63 -11 0 7 -42 37 -89
14 -22 25 -43 25 -46 0 -3 -43 -5 -95 -5 l-95 0 0 61 c0 70 17 148 34 150 6 1
17 1 25 0 7 -2 10 2 6 8 -13 23 -46 11 -60 -21 l-14 -33 -1 28 c0 17 -4 26
-11 22 -6 -4 -9 -46 -8 -108 1 -66 -2 -102 -9 -105 -21 -7 -321 17 -340 27
-10 5 -24 27 -31 48 -11 33 -10 45 4 80 20 49 21 49 190 63 72 6 173 15 225
20 52 5 131 7 175 4 44 -2 151 -7 238 -11z m437 -3 c0 -5 6 -10 13 -10 9 0 11
-23 9 -89 l-3 -90 -67 -6 c-37 -3 -83 -8 -102 -10 -33 -4 -34 -4 -16 10 19 15
19 15 -2 15 -17 0 -24 9 -32 43 -14 54 -31 99 -42 112 -17 20 -6 24 70 28 42
1 98 4 125 5 26 1 47 -2 47 -8z m499 -70 c0 -10 -3 -8 -9 5 -12 27 -12 43 0
25 5 -8 9 -22 9 -30z m-25 -53 c8 -7 21 -27 30 -45 15 -30 44 -47 33 -19 -3 6
-8 20 -12 30 -11 27 11 20 33 -10 40 -58 38 -60 -56 -66 -48 -4 -108 -10 -134
-13 -43 -6 -48 -5 -48 12 0 12 12 24 30 32 28 13 44 40 18 29 -53 -19 -58 -19
-58 7 0 21 7 27 38 35 94 24 109 25 126 8z m-201 -51 c-3 -14 -11 -27 -19 -30
-23 -9 -214 -35 -304 -41 -47 -3 -95 -8 -107 -11 -16 -3 -23 0 -23 11 0 8 1
15 3 16 1 0 31 2 67 5 78 6 258 39 320 58 63 20 68 20 63 -8z m-2042 -33 c13
-16 12 -17 -3 -4 -10 7 -18 15 -18 17 0 8 8 3 21 -13z m2075 -49 c0 -1 -68
-16 -149 -34 -153 -34 -206 -35 -352 -12 l-50 8 75 8 c294 30 361 38 410 50
49 11 56 11 61 -3 4 -9 6 -17 5 -17z m-1592 18 c3 -5 18 -7 33 -5 15 2 35 -1
43 -6 13 -9 12 -12 -5 -25 -39 -27 -75 -117 -88 -218 l-12 -96 -97 -66 c-53
-36 -104 -66 -112 -66 -8 0 -25 14 -37 32 -19 26 -24 49 -27 118 l-4 87 27 7
c16 4 42 19 58 34 104 93 143 132 169 170 29 41 42 50 52 34z m319 -8 c100 -7
118 -24 25 -24 -35 0 -99 -3 -143 -6 l-80 -7 0 27 c0 26 1 26 55 21 30 -2 94
-7 143 -11z m767 1 c0 -8 -13 -16 -32 -20 -102 -17 -174 -22 -251 -18 -75 5
-87 8 -87 24 0 21 28 24 238 27 110 2 132 0 132 -13z m-386 -23 c-14 -11 -264
-2 -264 9 0 6 43 9 110 8 61 -1 114 1 117 4 3 4 15 2 25 -4 11 -6 16 -14 12
-17z m1365 -82 c55 -80 58 -88 22 -55 -18 17 -42 46 -54 65 -11 19 -31 45 -44
57 -13 12 -23 28 -23 34 0 19 58 -40 99 -101z m-1423 53 c102 -7 105 -8 54
-14 -30 -4 -101 -7 -157 -8 -85 -1 -103 2 -103 14 0 18 38 19 206 8z m1412
-113 c41 -25 48 -43 29 -70 -14 -21 -16 -20 -45 34 -17 31 -27 56 -24 56 4 0
22 -9 40 -20z m66 -78 c2 -4 -2 -16 -10 -27 -13 -18 -14 -18 -14 8 0 25 13 36
24 19z m80 -107 c62 -117 128 -215 144 -215 12 0 -22 71 -65 135 -31 46 -9 32
40 -25 70 -82 119 -165 159 -266 32 -82 48 -103 48 -64 0 27 -46 146 -76 197
-35 61 -23 53 21 -12 33 -51 125 -227 125 -241 0 -3 -6 -4 -13 -1 -8 3 -20 1
-28 -4 -12 -7 -11 -9 2 -9 30 0 59 -46 95 -149 19 -57 34 -105 32 -107 -5 -5
-116 146 -155 212 -17 28 -72 109 -124 180 -51 71 -119 167 -152 214 -32 47
-72 99 -87 115 -39 42 -53 73 -46 101 11 43 33 26 80 -61z m36 -209 c32 -42
39 -59 32 -72 -7 -13 -16 -4 -46 49 -54 97 -49 104 14 23z m113 -171 l40 -60
-48 45 c-26 25 -51 56 -56 68 -12 30 0 51 14 26 6 -11 28 -46 50 -79z m45
-101 c1 -1 -4 -6 -12 -13 -11 -9 -18 -5 -35 22 -30 49 -26 55 11 21 18 -16 34
-29 36 -30z m183 -259 c44 -88 29 -75 -58 55 -80 117 -82 121 -28 70 29 -28
62 -75 86 -125z m194 -50 c44 -82 98 -205 89 -205 -20 0 -48 29 -70 72 -25 49
-94 231 -94 246 1 13 31 -32 75 -113z m-76 -85 c0 -10 -3 -8 -9 5 -12 27 -12
43 0 25 5 -8 9 -22 9 -30z m-1054 -107 c9 -20 14 -44 12 -53 -4 -16 -19 13
-31 63 -9 39 1 34 19 -10z m1283 -174 c15 -64 15 -69 -3 -69 -8 0 -18 15 -23
33 -5 17 -19 56 -31 85 -28 69 -27 72 12 34 23 -22 37 -49 45 -83z m-84 17
c14 -37 26 -72 26 -76 0 -4 -34 -10 -76 -12 -77 -4 -98 -15 -86 -47 6 -14 7
-14 10 1 3 14 21 17 115 20 62 2 114 2 117 0 3 -2 -8 -15 -25 -29 -29 -26 -31
-26 -155 -19 -69 3 -126 6 -127 6 -1 0 -4 15 -8 33 -4 17 -9 39 -11 48 -7 24
31 30 104 17 77 -14 82 -10 82 76 0 33 2 57 4 55 2 -2 16 -35 30 -73z m-1438
0 c46 -14 151 -82 142 -92 -2 -2 -20 1 -39 6 -69 19 -193 29 -201 17 -5 -8
-50 -12 -130 -14 -114 -2 -140 -5 -193 -20 -15 -4 -12 3 15 32 37 39 74 62
130 82 46 16 210 10 276 -11z m-1391 -55 c-3 -6 2 -14 11 -19 12 -7 5 -11 -30
-15 -25 -4 -58 -9 -73 -13 l-28 -6 27 15 c15 9 38 23 50 31 25 17 53 22 43 7z
m-432 -68 c4 -6 -5 -15 -18 -21 -29 -13 -29 -15 -13 46 12 47 12 47 18 16 4
-17 10 -35 13 -41z m2921 51 c8 -20 14 -15 -64 -54 -36 -18 -90 -50 -121 -72
-75 -52 -132 -68 -259 -73 l-105 -5 69 15 c134 28 278 86 351 140 32 24 105
65 116 65 4 0 10 -7 13 -16z m-1660 -50 c6 -20 -2 -24 -81 -49 -121 -38 -139
-36 -301 32 -63 26 -67 35 -24 48 16 5 22 2 22 -9 0 -8 10 -22 22 -30 36 -25
116 -20 205 13 123 45 142 45 157 -5z m554 13 c29 -11 31 -14 20 -30 -12 -17
-16 -16 -72 6 -57 24 -59 35 -6 35 14 0 40 -5 58 -11z m-1149 -3 c17 -4 31
-10 31 -14 0 -13 -191 -83 -199 -74 -5 5 -12 18 -15 30 -5 17 1 24 36 37 28
11 45 14 52 7 6 -6 17 -10 26 -10 12 1 11 4 -4 15 -19 14 -18 15 11 15 17 0
45 -3 62 -6z m2351 -28 c0 -20 -7 -24 -77 -34 -59 -10 -108 -27 -203 -73 -95
-46 -141 -62 -195 -69 -104 -14 -228 -12 -249 3 -14 11 -1 12 81 9 125 -5 234
11 298 44 191 100 244 125 278 130 20 4 40 11 43 15 9 15 24 -1 24 -25z
m-2654 -3 c-33 -17 -145 -57 -191 -67 l-30 -7 25 21 c14 11 39 20 57 20 18 0
36 6 40 14 4 8 28 18 53 24 66 14 79 13 46 -5z m1688 -63 c42 -23 78 -46 82
-51 3 -5 26 -18 51 -30 25 -11 43 -23 40 -25 -2 -3 -39 -1 -82 5 -65 8 -85 15
-133 49 -31 22 -81 50 -109 62 -36 15 -53 28 -53 40 0 10 6 20 13 23 19 6 107
-27 191 -73z m-584 30 c0 -29 -4 -38 -13 -34 -20 7 -34 -15 -39 -62 -3 -22
-28 -85 -55 -140 -70 -140 -174 -334 -179 -334 -3 0 -2 5 1 10 11 18 -18 11
-40 -10 l-22 -20 -66 52 c-36 29 -66 59 -66 65 -1 7 -12 19 -26 28 -14 8 -37
23 -52 33 -16 9 -35 17 -43 18 -26 1 -70 16 -70 24 0 4 7 11 16 14 8 3 12 10
9 16 -11 17 -57 -15 -131 -92 l-70 -73 -2 55 c-1 30 -11 87 -23 125 -11 39
-22 78 -23 87 -1 10 -6 21 -10 25 -9 10 -35 68 -46 106 -12 37 -4 54 28 62 15
3 64 22 110 42 l83 35 20 -26 c26 -33 43 -34 35 -1 -4 14 -4 25 -2 25 3 0 42
-16 88 -37 114 -50 166 -62 286 -70 97 -6 102 -5 102 14 0 15 20 30 83 61 105
54 117 54 117 2z m-1440 12 c0 -4 -9 -13 -20 -20 -11 -7 -20 -20 -20 -30 0
-14 -2 -15 -10 -2 -16 24 -12 40 13 50 28 11 37 12 37 2z m123 2 c3 -4 -7 -20
-23 -36 -25 -25 -36 -29 -72 -26 -23 2 -43 8 -45 15 -6 16 33 26 55 14 28 -15
35 -1 9 20 l-22 18 46 1 c25 0 48 -3 52 -6z m299 -34 c4 -28 2 -30 -44 -40
-27 -5 -77 -10 -111 -10 l-62 1 30 17 c30 16 149 59 171 61 7 1 14 -12 16 -29z
m788 -5 c0 -9 -44 -23 -54 -17 -5 3 -1 9 10 13 23 9 44 11 44 4z m944 -31 c3
-8 2 -12 -4 -9 -6 3 -10 10 -10 16 0 14 7 11 14 -7z m-1961 -18 c9 -23 74 -30
152 -18 39 6 78 14 87 17 13 5 18 -5 27 -47 7 -29 14 -63 17 -75 6 -22 3 -23
-44 -23 -45 0 -50 2 -45 20 4 14 0 20 -11 20 -9 0 -16 -6 -15 -12 4 -23 -13
-48 -32 -48 -11 0 -52 -16 -92 -36 -39 -19 -99 -41 -132 -47 -59 -12 -61 -13
-109 -82 l-48 -70 6 55 c3 30 6 119 6 198 l0 142 55 0 c50 0 55 -2 56 -22 l0
-23 9 22 c14 34 103 56 113 29z m-259 -28 c8 -32 6 -235 -4 -338 -7 -75 -8
-69 -4 45 2 72 0 172 -4 223 -7 87 -2 119 12 70z m945 -345 c15 -9 53 -40 86
-67 33 -28 73 -61 90 -73 l29 -21 -39 -43 c-22 -24 -63 -73 -90 -108 l-49 -65
2 -131 c2 -95 -2 -152 -14 -205 -24 -105 -16 -400 13 -480 35 -97 64 -149 104
-189 36 -36 39 -44 45 -112 6 -74 -15 -216 -52 -340 -19 -63 -42 -70 -114 -34
-47 24 -160 128 -160 148 0 5 -26 36 -59 70 -32 34 -69 82 -81 107 -13 25 -39
70 -60 100 -46 70 -57 97 -75 193 -24 126 -23 133 37 337 40 133 61 458 43
666 -7 88 -7 92 13 98 12 4 24 16 27 27 4 11 41 56 84 99 l78 80 58 -20 c33
-11 70 -28 84 -37z"/>
<path d="M9516 10031 c22 -95 35 -117 28 -47 -7 66 -19 106 -32 106 -5 0 -3
-27 4 -59z"/>
<path d="M11390 12117 c-14 -7 -31 -25 -38 -40 -10 -20 -21 -27 -40 -27 -31 0
-67 -22 -82 -50 -19 -36 -41 -165 -44 -257 -2 -70 -7 -97 -19 -111 -36 -39
-90 -212 -67 -212 17 0 39 44 34 66 -3 13 4 40 17 65 16 31 24 39 27 27 7 -37
22 -16 22 31 0 75 17 82 86 35 31 -22 59 -44 61 -51 3 -7 36 -33 74 -59 38
-26 69 -51 69 -56 0 -4 6 -8 13 -8 6 0 44 -14 84 -32 57 -26 71 -37 67 -50 -4
-12 0 -18 10 -18 9 0 16 5 16 10 0 6 7 10 16 10 11 0 14 5 10 16 -3 9 13 52
39 102 25 47 45 89 45 93 0 4 14 21 30 37 44 45 35 127 -16 151 -14 6 -23 15
-20 19 3 5 1 26 -5 46 -11 38 -45 61 -78 52 -9 -2 -26 -7 -38 -11 -21 -6 -23
-3 -23 29 0 45 -31 76 -77 76 -20 0 -32 4 -28 10 3 5 1 28 -5 50 -16 61 -81
87 -140 57z m92 -34 c28 -32 31 -60 7 -82 -26 -24 -19 -58 9 -46 34 15 82 17
98 4 12 -10 15 -25 12 -54 l-5 -41 56 8 c31 4 64 5 73 2 21 -6 33 -43 19 -57
-19 -19 -14 -50 7 -45 32 9 55 -18 56 -64 1 -35 -3 -45 -21 -53 -13 -5 -23
-19 -23 -30 0 -11 -20 -54 -45 -95 -25 -41 -45 -81 -45 -88 0 -17 -25 -9 -100
28 -30 16 -60 37 -67 48 -6 10 -37 36 -70 57 -145 95 -189 122 -205 128 -14 5
-18 18 -18 54 0 57 35 220 51 239 25 31 111 7 143 -38 27 -38 20 -48 -29 -48
-47 0 -58 -12 -26 -30 26 -14 74 -13 89 2 7 7 12 27 12 46 0 34 -34 78 -85
109 -19 12 -19 13 8 38 33 29 77 33 99 8z"/>
<path d="M11430 11798 c0 -72 13 -138 26 -138 18 0 19 75 2 130 -15 48 -28 52
-28 8z"/>
<path d="M8320 11881 c0 -4 28 -11 63 -14 34 -3 70 -9 80 -12 9 -4 17 -3 17 3
0 5 -26 14 -57 21 -67 13 -103 14 -103 2z"/>
<path d="M8485 11840 c-3 -5 -4 -10 -2 -10 2 0 49 -11 103 -24 131 -32 166
-37 160 -27 -3 5 -22 12 -41 15 -20 4 -69 18 -111 32 -82 27 -100 29 -109 14z"/>
<path d="M4884 11805 c-3 -8 -1 -29 4 -47 28 -91 21 -261 -23 -568 -24 -163
-34 -202 -94 -370 l-31 -85 -42 3 c-24 2 -81 7 -128 13 -47 5 -240 9 -430 9
-407 0 -513 -10 -809 -76 -299 -66 -401 -102 -401 -140 0 -17 1 -17 36 1 16 8
36 15 44 14 8 0 3 -5 -12 -11 -17 -6 -28 -17 -28 -29 0 -27 34 -25 123 7 180
63 425 104 629 104 64 0 170 7 235 16 76 11 179 16 288 16 178 -1 205 1 205
21 0 17 112 11 260 -13 63 -11 144 -22 180 -25 36 -4 104 -16 152 -27 97 -22
153 -21 153 2 0 20 -38 36 -130 54 -44 8 -128 25 -187 37 l-106 22 35 76 c19
42 44 103 54 136 32 97 79 433 86 608 l6 158 31 -38 c17 -21 58 -67 92 -103
70 -74 95 -113 164 -248 185 -368 263 -699 247 -1051 -6 -135 4 -279 21 -290
10 -6 25 -88 68 -371 24 -161 26 -190 20 -365 -15 -445 -19 -479 -60 -614 -21
-68 -49 -141 -63 -162 -14 -21 -23 -45 -20 -53 7 -18 -59 -80 -77 -72 -149 67
-253 85 -481 86 -82 1 -198 5 -257 9 -59 5 -185 5 -280 1 -203 -10 -249 -22
-310 -88 l-39 -43 -31 26 c-82 69 -154 85 -382 85 -192 0 -245 -10 -314 -60
-34 -24 -142 -156 -171 -208 -11 -20 -45 -1 -149 83 -109 88 -193 213 -204
301 -1 16 -7 32 -11 35 -4 3 -14 41 -22 85 -39 217 -48 313 -56 609 -4 171
-13 364 -18 430 -14 164 -14 502 0 507 15 5 35 96 49 225 6 59 14 114 16 122
3 8 7 53 9 101 5 109 45 306 86 418 55 154 80 235 96 312 13 66 64 200 76 200
2 0 2 -87 0 -192 -6 -237 2 -284 87 -479 74 -170 102 -217 135 -225 39 -10 41
2 7 35 -30 31 -111 208 -157 346 -20 60 -24 94 -27 230 -2 88 1 216 6 284 9
115 11 127 35 149 20 18 22 25 11 32 -7 4 -25 7 -39 5 -14 -2 -29 -4 -33 -4
-5 -1 -8 -13 -8 -27 0 -15 -27 -81 -59 -148 -42 -86 -66 -150 -81 -221 -13
-55 -43 -154 -67 -220 -62 -167 -89 -294 -118 -555 -35 -314 -36 -319 -49
-317 -21 4 -28 -353 -12 -608 8 -126 18 -335 21 -464 9 -394 61 -677 151 -827
43 -71 116 -149 204 -214 78 -58 97 -66 320 -140 96 -32 225 -77 285 -100 93
-36 205 -68 301 -86 18 -3 24 -15 34 -68 10 -53 15 -63 29 -59 17 4 17 9 5 61
-7 31 -12 57 -11 58 1 1 29 -2 62 -7 139 -18 398 -5 548 27 l27 6 0 -77 c0
-62 3 -77 17 -82 9 -4 19 -1 21 5 4 14 154 16 187 3 16 -7 14 -9 -14 -14 -19
-4 -57 -7 -85 -7 -66 0 -96 -9 -96 -27 0 -9 6 -13 15 -10 57 22 290 12 455
-19 59 -11 22 14 -45 30 l-60 14 91 1 c118 1 145 -9 172 -63 12 -24 22 -48 22
-54 0 -5 -17 -39 -39 -73 -35 -59 -42 -64 -81 -71 -62 -11 -134 -49 -138 -73
-3 -19 -3 -19 12 2 14 19 92 53 122 53 26 0 -10 -48 -46 -60 -19 -7 -71 -30
-115 -50 -74 -35 -89 -38 -197 -44 -65 -3 -127 -10 -137 -16 -11 -6 -87 -10
-175 -10 -92 0 -157 -4 -161 -10 -9 -14 468 -13 520 2 22 6 77 13 123 15 47 3
80 8 77 14 -4 5 -21 9 -38 9 l-32 1 45 24 c48 26 65 30 55 16 -14 -23 15 -18
46 9 20 15 53 38 75 49 23 12 52 39 67 61 28 43 25 49 -13 24 -14 -8 -5 3 19
25 36 34 46 39 58 29 9 -7 11 -14 5 -16 -6 -2 1 -14 15 -28 28 -28 71 -119 99
-208 10 -32 24 -61 31 -63 18 -7 16 -23 -4 -38 -10 -8 -14 -19 -10 -30 6 -14
10 -15 21 -5 20 16 152 -46 189 -89 25 -30 27 -40 27 -116 0 -86 12 -114 45
-101 22 8 18 -7 -6 -23 -18 -11 -23 -11 -30 0 -10 17 -11 16 -33 -52 -13 -39
-15 -62 -9 -74 9 -15 11 -13 21 12 6 15 13 39 16 53 4 17 24 35 63 58 64 36
129 90 126 103 -2 4 3 6 11 3 7 -3 16 2 19 10 3 8 23 24 44 35 21 11 50 30 65
43 14 13 58 49 98 82 41 34 67 62 61 65 -6 4 10 27 40 57 27 27 57 63 65 79 8
17 37 55 64 85 43 47 50 52 50 32 0 -31 -42 -112 -74 -141 -16 -15 -26 -35
-26 -53 0 -36 11 -36 32 0 9 15 27 36 39 47 l23 20 -17 -27 c-20 -32 -22 -58
-4 -58 13 0 159 151 152 158 -2 3 -34 -24 -71 -59 -60 -57 -64 -60 -41 -24 32
47 33 55 8 55 -18 0 -19 3 -10 29 6 16 9 42 7 58 -2 22 -9 29 -29 31 -31 4
-71 -39 -113 -121 -18 -36 -70 -96 -166 -189 -77 -76 -143 -138 -146 -138 -4
0 -29 -14 -56 -31 -28 -16 -51 -29 -53 -27 -1 2 -47 80 -100 173 -54 94 -123
204 -153 245 -66 88 -192 220 -211 220 -13 0 14 -34 98 -123 67 -71 119 -144
217 -305 49 -80 99 -162 112 -182 l23 -38 -50 -36 c-57 -40 -66 -35 -57 28 9
60 -10 135 -42 169 -15 16 -53 42 -84 58 -32 16 -65 40 -74 54 -15 23 -67 176
-61 181 1 1 43 -49 92 -113 124 -158 125 -159 125 -148 0 6 -42 66 -93 135
-183 246 -302 411 -322 448 -23 42 -9 39 -233 52 -81 4 -165 13 -187 19 -22 6
-81 11 -131 11 l-92 0 -5 38 c-14 94 -22 84 76 104 106 21 230 74 314 134 34
25 95 66 135 93 40 26 104 74 142 105 72 59 86 66 86 41 0 -8 6 -15 14 -15 16
0 26 21 26 53 0 26 28 57 45 51 8 -4 24 11 39 35 15 22 48 58 75 78 49 37 66
73 35 73 -9 0 -27 -9 -41 -20 -33 -26 -39 -20 -19 18 8 16 13 32 10 34 -2 3 9
53 25 111 21 76 31 137 36 223 3 66 10 187 16 269 15 209 -15 515 -81 835 -15
71 -24 168 -30 300 -11 255 -25 383 -56 505 -32 126 -70 250 -91 295 -9 19
-35 77 -57 130 -76 175 -151 295 -245 394 -48 50 -106 117 -130 149 -45 59
-58 67 -67 42z m-1134 -1104 c-18 -10 -170 -31 -214 -30 -25 1 -21 3 17 10 38
8 137 21 202 27 6 1 3 -2 -5 -7z m1354 -2327 c74 -9 142 -25 183 -41 l64 -26
-33 -28 c-18 -16 -67 -53 -108 -84 -327 -241 -391 -269 -730 -320 -164 -24
-285 -29 -415 -15 -66 6 -124 14 -128 17 -5 3 -31 7 -58 8 -65 5 -135 25 -294
85 -71 28 -201 72 -287 100 -87 28 -158 54 -158 57 0 13 112 153 150 187 60
54 117 66 306 66 228 0 287 -15 372 -92 46 -42 61 -44 78 -9 30 60 84 96 166
110 79 14 749 3 892 -15z m221 -834 c3 -5 2 -10 -4 -10 -5 0 -13 5 -16 10 -3
6 -2 10 4 10 5 0 13 -4 16 -10z m-54 -53 c-10 -9 -11 -8 -5 6 3 10 9 15 12 12
3 -3 0 -11 -7 -18z m-81 -101 c0 -2 -8 -10 -17 -17 -16 -13 -17 -12 -4 4 13
16 21 21 21 13z m640 -549 c0 -2 -13 -13 -30 -25 -16 -13 -30 -19 -30 -15 0 5
12 16 28 25 28 18 32 20 32 15z"/>
<path d="M4285 8113 c-80 -13 -111 -13 -156 -4 -73 15 -101 14 -125 -4 -10 -8
-32 -15 -47 -15 -52 0 -23 -25 39 -33 70 -10 252 -1 344 16 53 10 65 16 65 31
0 26 -5 26 -120 9z"/>
<path d="M10120 11538 c1 -18 7 -46 15 -63 13 -30 13 -30 15 -5 1 21 4 18 15
-15 9 -28 13 -33 14 -18 1 29 -38 133 -50 133 -5 0 -9 -15 -9 -32z"/>
<path d="M10615 11456 c-8 -52 6 -104 45 -161 14 -22 33 -55 40 -74 8 -19 42
-63 77 -99 l63 -65 -32 -56 c-70 -122 -88 -157 -88 -174 0 -29 24 -14 31 19 3
16 27 64 53 107 42 67 50 76 64 65 13 -11 15 -9 10 16 -5 27 6 52 56 121 13
19 14 18 9 -9 -4 -20 -2 -27 6 -22 6 4 11 15 11 25 0 10 19 39 41 65 45 51 49
70 6 30 -15 -14 -27 -21 -27 -15 0 5 -7 11 -14 14 -11 4 -30 -19 -63 -78 l-49
-85 -44 46 c-25 25 -37 42 -27 38 15 -5 16 -3 8 17 -47 119 -67 140 -58 58 l7
-54 -30 55 c-74 135 -83 160 -78 211 6 61 -8 65 -17 5z"/>
<path d="M10365 10380 c-13 -21 93 -215 109 -199 7 7 -86 209 -96 209 -4 0
-10 -4 -13 -10z"/>
<path d="M4528 9522 c-58 -53 -136 -123 -171 -154 -36 -32 -85 -88 -110 -125
-24 -38 -54 -76 -65 -87 -12 -10 -19 -23 -16 -27 7 -12 89 33 111 60 18 22 18
21 15 -29 -5 -64 4 -100 24 -100 12 0 14 7 8 35 -3 20 -3 65 1 101 6 56 12 72
41 103 l33 36 -9 -35 c-13 -47 -13 -126 1 -153 6 -12 21 -29 32 -38 20 -16 20
-17 -14 -24 -59 -12 -69 -16 -69 -30 0 -17 34 -13 114 12 48 15 126 75 126 97
0 6 8 20 17 31 13 16 15 17 10 3 -4 -10 -2 -18 3 -18 5 0 25 30 44 68 19 37
48 84 65 106 33 41 39 58 19 54 -7 -1 -29 8 -48 20 -40 25 -33 29 11 6 32 -16
46 -14 34 6 -19 30 -135 64 -135 40 0 -5 -4 -10 -10 -10 -21 0 -9 17 24 32 38
19 106 75 106 89 0 16 -20 10 -54 -16 -42 -32 -56 -32 -27 -1 21 22 22 46 3
46 -4 0 -55 -44 -114 -98z m108 -97 c41 -20 74 -40 74 -44 0 -5 -7 -14 -15
-21 -12 -10 -15 -10 -15 4 0 30 -17 16 -23 -18 -3 -20 -25 -58 -52 -92 -43
-53 -47 -55 -41 -27 16 71 -33 152 -93 153 -25 1 -25 2 18 40 24 22 50 40 59
40 8 0 48 -16 88 -35z m-127 -101 c15 -19 21 -41 21 -73 l-1 -46 -14 33 c-21
47 -25 39 -9 -15 19 -61 12 -93 -20 -93 -37 0 -59 34 -64 99 -7 102 40 154 87
95z"/>
<path d="M3290 9516 c0 -7 7 -19 15 -26 13 -11 13 -14 -2 -26 -15 -11 -16 -16
-5 -33 12 -20 10 -21 -35 -21 -83 0 -94 -7 -87 -49 3 -20 19 -56 35 -81 68
-109 288 -280 359 -280 28 0 25 19 -6 30 l-26 10 21 18 c19 16 51 111 51 157
1 19 2 19 21 -4 23 -29 19 -88 -12 -160 -24 -55 -24 -64 0 -52 21 12 48 72 57
131 l7 41 31 -30 c34 -33 56 -40 56 -17 0 14 -126 137 -208 203 -26 21 -76 63
-112 94 -67 57 -139 109 -152 109 -5 0 -8 -6 -8 -14z m106 -93 c-9 -9 -56 18
-56 32 0 13 6 11 30 -6 16 -13 28 -24 26 -26z m5 -67 c75 -12 129 -36 129 -57
0 -6 -8 -9 -17 -8 -10 1 -24 1 -31 0 -20 -2 -52 -81 -52 -128 0 -47 -10 -53
-40 -23 -11 11 -24 20 -28 20 -12 0 -107 100 -136 144 -20 30 -23 42 -15 52
14 17 87 17 190 0z m176 -148 c-10 -85 -28 -128 -55 -135 -33 -8 -56 8 -60 42
-2 15 1 25 6 21 5 -3 19 19 31 49 17 41 26 52 38 48 13 -5 15 -2 10 11 -10 26
2 40 20 24 11 -9 14 -24 10 -60z m-91 25 c-8 -15 -15 -25 -16 -21 0 12 23 58
27 54 3 -2 -2 -17 -11 -33z m-19 -65 c-3 -7 -5 -2 -5 12 0 14 2 19 5 13 2 -7
2 -19 0 -25z"/>
<path d="M3835 9367 c-19 -41 -18 -158 3 -165 6 -2 12 3 12 11 0 9 4 17 10 19
5 2 10 39 12 82 3 89 -10 109 -37 53z"/>
<path d="M4116 9387 c3 -8 -2 -17 -10 -20 -20 -8 -30 -66 -21 -133 5 -43 10
-54 23 -52 20 4 29 40 34 135 3 67 1 78 -14 81 -12 2 -16 -1 -12 -11z m1 -119
c-2 -18 -4 -6 -4 27 0 33 2 48 4 33 2 -15 2 -42 0 -60z"/>
<path d="M9028 9348 c-23 -37 -148 -718 -148 -810 0 -47 16 -49 35 -5 45 109
94 347 121 592 9 83 18 171 21 198 6 51 -5 61 -29 25z m-91 -640 c-3 -8 -6 -5
-6 6 -1 11 2 17 5 13 3 -3 4 -12 1 -19z"/>
<path d="M11650 8604 c-17 -43 -33 -257 -27 -359 4 -78 32 -193 74 -302 4 -11
-69 11 -147 44 -8 4 -28 8 -45 10 -16 1 -52 7 -79 13 -58 12 -217 -1 -346 -30
-102 -22 -132 -33 -149 -54 -20 -24 -2 -41 19 -18 29 30 321 78 430 70 38 -2
46 -7 48 -25 4 -25 22 -32 22 -8 0 27 105 12 191 -27 l76 -35 17 -84 c10 -46
26 -96 36 -110 13 -18 15 -30 8 -42 -12 -22 5 -22 23 0 8 9 65 54 127 100 62
46 139 109 170 140 31 31 63 55 71 54 9 -2 12 3 7 15 -4 10 -1 21 6 26 9 5 7
8 -7 8 -11 0 -50 -30 -90 -69 -86 -84 -263 -223 -279 -218 -16 5 -51 150 -37
155 6 2 11 17 11 33 0 16 11 52 25 79 25 49 21 74 -7 42 -9 -9 -25 -35 -36
-57 l-20 -39 -27 89 c-53 173 -55 184 -55 360 0 94 5 188 10 210 11 49 -4 72
-20 29z"/>
<path d="M9918 8073 c-1 -5 -2 -88 -2 -185 -1 -127 -4 -180 -13 -189 -11 -11
-13 -10 -13 4 0 38 -49 127 -82 148 -30 19 -43 20 -158 15 -69 -3 -134 -8
-145 -10 -11 -2 -26 -5 -32 -5 -14 -1 -18 -33 -6 -44 3 -4 13 -1 21 6 15 12
259 22 295 11 9 -3 24 -19 33 -36 15 -28 15 -30 0 -25 -23 9 -20 -9 7 -35 44
-42 78 -117 71 -155 -4 -22 -2 -33 5 -33 6 0 14 13 17 29 4 17 12 32 19 35 9
3 12 17 8 43 -5 36 -2 42 33 73 45 39 158 94 178 87 20 -8 34 -226 15 -239
-11 -7 -11 -11 -1 -15 6 -2 12 -17 13 -31 l0 -27 12 25 c6 14 16 28 22 32 19
14 269 8 373 -9 82 -13 108 -14 123 -5 36 23 21 -13 -32 -73 -68 -78 -71 -84
-123 -211 -55 -139 -108 -238 -202 -379 -41 -61 -74 -120 -74 -130 0 -11 14
-56 31 -100 17 -44 40 -120 50 -170 11 -49 34 -121 51 -160 39 -89 50 -226 23
-289 -19 -45 -82 -106 -110 -106 -42 0 -123 48 -148 87 -13 21 -53 67 -88 103
-35 36 -93 98 -129 138 -55 63 -179 172 -195 172 -16 0 0 -20 38 -47 23 -17
67 -57 98 -89 158 -166 241 -257 263 -292 28 -44 111 -92 159 -92 38 0 92 43
125 99 24 42 27 55 26 141 0 83 -5 105 -32 174 -18 43 -41 117 -51 165 -11 47
-33 124 -50 170 -17 47 -31 90 -31 97 0 6 33 61 74 120 104 155 169 281 230
447 10 26 43 76 73 110 54 61 86 115 76 130 -2 4 -10 4 -16 1 -7 -4 4 9 24 28
58 58 108 203 122 355 6 68 7 126 4 130 -16 15 -25 -18 -37 -131 -8 -83 -21
-146 -42 -204 -36 -102 -50 -126 -95 -156 l-34 -23 -102 18 c-104 19 -242 23
-333 10 l-51 -7 -6 155 c-5 147 -7 160 -37 231 -51 118 -70 124 -27 8 13 -35
27 -78 30 -95 6 -31 5 -33 -21 -33 -27 0 -127 -45 -171 -77 l-24 -18 7 70 c18
181 19 234 6 250 -13 16 -39 20 -42 8z"/>
<path d="M3815 7675 c-21 -6 -124 -25 -199 -35 -56 -9 -81 -9 -89 -1 -6 6 -25
11 -42 11 -38 -1 -164 -50 -202 -79 -49 -38 -144 -134 -138 -139 3 -3 24 12
48 34 23 22 53 49 66 59 l24 20 -13 -24 c-19 -36 -111 -124 -154 -145 -51 -27
-123 -99 -176 -179 -25 -37 -52 -67 -61 -67 -43 -1 -148 -178 -184 -312 -13
-48 -21 -65 -31 -61 -17 6 -63 -88 -65 -132 -1 -17 -3 -22 -6 -12 -2 9 -9 17
-14 17 -6 0 -8 4 -5 9 10 15 -22 21 -34 6 -8 -10 -8 -19 -1 -34 15 -26 14 -29
-6 -27 -12 0 -25 -13 -37 -37 -23 -47 -82 -211 -106 -293 -10 -34 -21 -71 -25
-83 -3 -12 -2 -21 4 -21 5 0 15 16 21 36 21 63 22 29 1 -52 -10 -44 -25 -105
-31 -136 -11 -56 -12 -58 -43 -58 -41 0 -71 -21 -102 -69 -28 -45 -67 -167
-61 -190 3 -9 7 -38 11 -65 6 -52 27 -100 48 -113 7 -4 18 -19 24 -33 l12 -25
7 23 c3 12 11 22 16 22 6 0 7 7 4 16 -3 8 -3 27 0 40 6 23 9 20 31 -28 35 -75
59 -88 70 -37 4 21 9 27 16 20 17 -17 45 -13 51 7 13 46 28 143 22 149 -13 13
-27 -15 -36 -72 -5 -32 -11 -60 -14 -62 -8 -8 -36 60 -36 89 0 18 -5 28 -15
28 -12 0 -15 -16 -16 -77 l0 -78 -22 45 c-12 25 -25 48 -30 51 -4 3 0 22 8 43
9 21 14 43 12 49 -5 17 -53 -61 -69 -110 -7 -24 -16 -43 -19 -43 -17 0 -39 73
-39 127 0 74 14 124 44 156 21 22 22 26 8 29 -24 5 49 78 78 78 19 0 22 -4 18
-35 -2 -19 0 -35 4 -35 13 0 23 34 57 186 17 76 50 200 73 274 24 76 42 157
43 185 1 51 9 75 25 75 5 0 12 -11 16 -25 3 -14 10 -22 15 -19 5 3 6 11 3 17
-4 7 38 -31 92 -84 54 -53 109 -101 121 -108 18 -9 20 -16 13 -40 -17 -59 -42
-283 -36 -316 10 -50 26 -43 26 11 0 27 4 43 10 39 6 -4 10 9 10 31 0 48 65
185 91 191 10 3 19 11 19 17 0 7 15 12 35 13 28 1 48 13 101 62 37 34 71 61
77 61 5 0 7 10 4 23 -7 25 1 41 24 50 10 3 24 28 33 55 15 43 40 71 52 59 9
-8 34 -141 48 -252 19 -145 21 -392 4 -431 -10 -21 -10 -28 2 -38 8 -6 16 -27
17 -46 7 -150 17 -250 24 -250 4 0 9 23 11 52 4 66 20 71 36 11 7 -27 17 -62
22 -79 16 -50 13 -54 -34 -54 -130 0 -125 -160 6 -224 60 -29 137 -46 209 -46
47 0 48 -1 55 -35 8 -46 35 -48 28 -2 l-6 32 105 2 c104 2 105 1 111 -23 4
-14 11 -22 15 -19 5 3 7 13 4 24 -6 24 29 31 156 31 85 0 221 10 361 25 52 6
224 13 420 16 74 2 164 8 200 15 55 11 225 64 283 89 16 7 17 -3 17 -129 0
-114 -2 -136 -15 -136 -8 0 -24 -9 -35 -20 -13 -13 -33 -20 -58 -20 -42 0
-181 -39 -229 -64 -43 -22 -77 -66 -147 -194 -60 -111 -152 -234 -211 -282
-25 -22 -39 -25 -106 -25 -70 0 -83 3 -170 47 -52 25 -105 59 -119 74 -14 15
-19 24 -12 20 31 -18 21 29 -22 97 -52 83 -161 194 -221 224 -88 44 -272 91
-303 77 -9 -4 -74 -8 -143 -9 l-127 -1 5 77 c7 92 2 109 -26 102 -16 -4 -21
-13 -21 -37 0 -18 4 -36 9 -42 5 -5 12 -30 16 -56 6 -40 5 -48 -8 -48 -9 0
-18 -8 -21 -17 -20 -66 -59 -230 -77 -324 -37 -194 -17 -376 43 -395 25 -8 38
5 16 17 -28 16 -42 78 -41 183 1 109 41 355 55 334 4 -7 8 -24 8 -38 l0 -25
13 24 c8 16 10 50 7 97 -3 40 -2 70 3 67 4 -2 7 3 7 11 0 8 -4 18 -10 21 -5 3
-10 11 -10 16 0 7 68 9 203 7 196 -4 205 -6 291 -36 105 -38 122 -48 200 -121
70 -67 86 -96 86 -154 0 -29 7 -53 19 -69 19 -24 19 -25 -6 -95 -16 -47 -31
-73 -43 -76 -23 -6 -44 -78 -35 -123 4 -24 -3 -56 -28 -121 -19 -48 -38 -99
-42 -113 -9 -32 -142 -393 -162 -442 -9 -20 -22 -39 -29 -42 -11 -4 -11 2 2
32 27 62 44 114 44 130 0 34 -27 -14 -71 -125 -24 -62 -46 -113 -49 -113 -3 0
-14 14 -24 31 -10 17 -30 38 -46 47 -15 9 -39 31 -53 48 -37 43 -107 79 -140
70 -41 -10 -169 -119 -225 -192 -46 -59 -60 -84 -48 -84 2 0 60 56 128 124 68
68 135 127 148 131 20 6 28 3 45 -20 72 -100 185 -213 131 -131 -9 14 -12 27
-7 31 12 7 69 -52 77 -80 4 -11 11 -23 17 -27 7 -4 6 -27 -2 -70 -27 -140 -43
-200 -51 -188 -11 18 -15 6 -44 -121 -23 -103 -44 -243 -30 -196 3 9 12 17 20
17 9 0 14 11 14 33 0 17 20 100 44 182 25 83 61 209 82 280 21 74 58 172 85
226 27 53 59 130 73 170 55 170 79 230 87 217 10 -16 7 -25 59 177 40 154 106
352 121 360 4 3 17 -4 30 -14 38 -29 120 -68 183 -86 59 -17 160 -17 200 0 17
7 18 5 12 -26 -11 -60 23 -188 77 -292 8 -15 15 -55 16 -88 1 -33 10 -87 21
-120 11 -33 18 -64 15 -69 -6 -9 161 -356 176 -365 13 -9 11 -25 -3 -22 -21 4
-31 -175 -13 -244 8 -31 15 -92 14 -135 l0 -79 -13 42 c-17 53 -52 110 -76
123 -29 15 -87 12 -93 -5 -4 -8 -2 -17 3 -20 6 -4 10 -1 10 4 0 14 45 14 70 1
30 -16 57 -70 71 -140 7 -36 17 -67 21 -71 4 -3 10 -49 12 -102 5 -114 23
-153 95 -198 51 -33 124 -39 157 -14 12 9 44 14 91 15 76 0 106 7 97 21 -3 5
-51 10 -107 10 -81 1 -94 3 -62 10 22 4 59 8 83 8 23 1 42 5 42 10 0 4 -55 8
-122 7 -99 -1 -133 3 -175 18 -29 11 -55 26 -58 34 -12 32 -18 251 -7 264 10
13 8 30 -13 126 -4 15 -2 21 5 17 13 -8 13 -1 -5 65 -8 30 -15 90 -15 133 0
75 1 78 23 75 29 -3 137 30 137 42 0 5 -8 7 -17 5 -10 -3 8 7 40 22 64 29 78
49 20 29 -67 -24 -93 -39 -93 -53 0 -7 -6 -13 -12 -13 -7 0 -22 -3 -34 -6 -16
-4 -29 4 -55 37 -18 23 -34 55 -35 70 -1 15 -9 38 -18 51 -9 12 -16 35 -16 50
0 15 -7 31 -15 35 -8 5 -26 42 -41 83 -14 41 -37 104 -50 140 -13 36 -24 82
-24 103 0 34 1 36 20 25 31 -20 36 0 7 30 -21 22 -27 38 -27 71 0 38 -2 43
-19 38 -32 -8 -66 96 -66 203 l0 85 65 77 c36 42 90 120 120 175 81 149 89
162 123 187 40 30 142 63 232 75 38 6 71 15 73 21 2 5 14 10 26 10 28 0 52
-66 96 -270 18 -80 43 -190 57 -245 38 -153 43 -205 33 -364 -12 -176 -41
-441 -49 -441 -3 0 -18 21 -33 45 -26 44 -48 58 -48 33 0 -7 -21 -26 -48 -42
-74 -47 -242 -177 -252 -197 -13 -23 -13 -39 0 -39 6 0 10 7 10 15 0 20 145
127 168 123 11 -2 18 4 20 17 2 18 108 103 116 94 2 -2 18 -32 35 -67 17 -34
40 -68 51 -74 20 -13 28 -58 10 -58 -5 0 -10 7 -10 15 0 8 -4 15 -9 15 -13 0
-21 -27 -21 -74 0 -23 -11 -75 -25 -115 -35 -99 -59 -221 -47 -233 6 -6 13 12
20 47 17 85 52 195 61 195 5 0 10 -30 13 -68 3 -37 14 -89 26 -115 17 -38 21
-70 23 -160 l1 -112 -61 0 c-42 0 -62 -4 -66 -14 -4 -11 13 -12 104 -7 l109 7
69 -68 c54 -53 72 -78 83 -116 13 -48 12 -49 -13 -70 -30 -26 -60 -82 -55
-105 3 -11 12 0 25 30 14 30 32 52 52 63 39 20 40 44 4 116 -18 35 -47 70 -83
98 -30 25 -54 48 -53 53 3 8 -3 10 -50 13 -40 3 -47 18 -47 103 0 86 12 103
90 126 159 47 306 22 402 -71 20 -19 41 -34 48 -31 6 2 -15 29 -48 60 -72 69
-127 88 -251 88 -64 0 -104 -7 -156 -24 -38 -13 -74 -22 -79 -19 -7 5 -3 254
5 313 6 47 -2 230 -11 230 -5 0 -10 -11 -10 -25 0 -14 -4 -25 -8 -25 -5 0 -13
-12 -19 -28 l-11 -27 -1 25 c-1 14 8 97 20 185 14 110 21 226 22 370 2 188 0
218 -20 285 -11 41 -40 163 -63 270 -24 107 -53 222 -65 255 -19 48 -24 88
-29 203 -4 98 -2 148 6 161 27 44 -29 125 -84 119 -36 -3 -52 -28 -18 -28 21
0 70 -41 70 -59 0 -6 -17 -19 -39 -30 -56 -29 -253 -91 -288 -91 -30 0 -31 1
-35 53 -2 28 -3 54 -2 55 7 11 124 13 143 3 17 -10 30 -9 58 0 34 11 38 10 51
-10 21 -31 36 -26 29 9 -5 22 -3 30 8 30 7 0 17 4 20 10 3 6 -23 9 -70 8 -41
-1 -75 -4 -75 -8 0 -3 -30 -6 -67 -7 -38 -1 -104 -12 -148 -25 -90 -25 -232
-29 -247 -6 -6 10 -10 10 -17 -1 -7 -12 -89 -13 -512 -8 -465 5 -564 3 -611
-18 -16 -6 -18 0 -18 64 0 152 -51 310 -127 389 l-39 41 4 123 c5 143 -34 461
-66 546 l-19 50 28 43 c16 24 31 56 34 70 4 15 17 39 31 54 39 42 28 48 -23
11 -51 -36 -145 -86 -163 -86 -5 0 -10 6 -10 13 0 15 61 51 105 61 17 4 55 22
85 39 30 17 58 32 62 32 12 0 78 82 71 89 -13 13 -31 5 -64 -27 -37 -36 -127
-92 -135 -85 -2 3 0 17 5 32 7 17 7 26 1 26 -6 0 -10 -4 -10 -10 0 -5 -9 -18
-21 -29 -12 -11 -18 -24 -15 -30 4 -6 -11 -19 -32 -30 -21 -11 -44 -27 -51
-35 -7 -9 -17 -13 -22 -10 -5 3 -14 -7 -21 -21 -10 -23 -10 -28 5 -37 10 -5
15 -13 12 -18 -3 -5 -1 -11 5 -15 14 -9 13 -95 -1 -95 -21 0 -38 -32 -27 -50
17 -26 -21 -93 -77 -139 -27 -23 -57 -41 -66 -41 -9 0 -28 -9 -42 -20 -30 -24
-41 -25 -33 -5 3 10 -1 15 -13 15 -10 0 -24 7 -31 15 -7 8 -20 15 -30 15 -25
0 -112 69 -104 82 4 6 -1 17 -12 25 -15 11 -20 29 -22 92 -5 102 33 260 93
386 39 82 106 178 91 132 -27 -84 -9 -92 30 -15 36 72 121 184 178 236 26 24
49 42 52 40 2 -3 5 -17 6 -31 3 -32 3 -32 58 -12 34 12 50 13 81 3 35 -10 54
-28 29 -28 -5 0 -10 -3 -10 -7 0 -5 22 -6 49 -5 27 2 94 -3 148 -12 180 -29
463 -44 713 -39 256 6 344 23 114 23 -76 0 -154 4 -172 10 -19 5 -84 12 -145
16 -90 6 -106 9 -86 18 18 8 -16 12 -151 17 -174 7 -337 24 -375 40 -17 6 -15
8 10 8 17 1 73 8 125 15 53 8 165 22 250 31 201 20 241 26 236 34 -7 11 -223
-7 -482 -39 -235 -30 -312 -31 -321 -5 -2 6 19 35 47 65 27 30 50 63 50 72 0
10 12 25 26 35 22 14 29 14 46 4 13 -8 23 -9 27 -3 9 15 68 25 75 13 4 -6 19
-8 34 -5 40 8 175 -22 234 -52 61 -31 74 -25 21 10 -48 32 -145 66 -192 67
-38 1 -97 16 -70 18 8 1 60 7 115 15 54 8 148 20 207 27 59 6 110 16 113 21 5
7 -108 11 -131 3z m-324 -60 c-18 -8 -47 -15 -65 -15 l-31 1 30 14 c17 7 46
14 65 14 l35 0 -34 -14z m-294 -282 c2 -6 -5 -14 -17 -18 -26 -8 -33 -3 -24
19 7 19 35 18 41 -1z m180 -19 c-3 -3 -12 -4 -19 -1 -8 3 -5 6 6 6 11 1 17 -2
13 -5z m46 -11 c-7 -2 -19 -2 -25 0 -7 3 -2 5 12 5 14 0 19 -2 13 -5z m50 -10
c-7 -2 -19 -2 -25 0 -7 3 -2 5 12 5 14 0 19 -2 13 -5z m-803 -571 c0 -5 -7
-17 -15 -28 -14 -18 -14 -17 -4 9 12 27 19 34 19 19z m579 -25 c-8 -17 -19
-26 -32 -24 -15 1 -21 -5 -24 -28 -6 -45 -13 -44 -13 2 0 37 4 43 38 61 20 11
38 18 40 17 1 -1 -3 -14 -9 -28z m-599 -111 c-5 -15 -14 -24 -20 -21 -6 4 -4
19 5 42 8 19 16 38 16 42 1 3 4 -3 6 -15 2 -11 -1 -33 -7 -48z m511 -73 c-12
-20 -14 -14 -5 12 4 9 9 14 11 11 3 -2 0 -13 -6 -23z m-291 -232 c0 -3 -10
-19 -21 -36 -12 -16 -18 -22 -15 -12 3 10 6 29 6 43 0 17 4 22 15 18 8 -4 15
-9 15 -13z m556 -509 c25 -53 28 -67 9 -54 -12 8 -75 134 -75 147 1 17 39 -38
66 -93z m19 -317 c1 -29 13 -45 35 -45 14 0 20 -8 22 -32 4 -38 28 -51 28 -15
0 34 25 57 60 57 26 0 29 -4 35 -42 3 -24 8 -55 11 -70 3 -14 2 -28 -3 -30 -4
-3 -44 -2 -88 2 -110 9 -186 44 -214 99 -26 50 -26 56 0 82 28 28 114 24 114
-6z m1505 -70 l0 -55 -130 0 -130 0 0 39 0 39 122 4 c86 2 123 7 126 16 8 25
12 11 12 -43z m-1184 24 c-119 -13 -125 -32 -7 -23 107 8 111 6 111 -68 l0
-48 -99 0 c-109 0 -111 1 -111 65 0 19 -4 45 -10 59 l-10 26 103 -1 102 -2
-79 -8z m638 -15 c3 -9 6 -31 6 -49 l0 -33 -67 -7 c-138 -14 -127 -17 -133 42
l-5 52 50 4 c123 8 143 7 149 -9z m256 -23 l0 -38 -106 -7 c-58 -4 -107 -6
-109 -4 -1 2 -5 22 -8 46 l-5 42 114 0 114 0 0 -39z m-476 -4 c15 -77 22 -73
-135 -80 -78 -4 -145 -4 -150 -1 -5 3 -9 27 -9 54 0 38 4 50 18 53 9 3 74 5
144 4 l126 0 6 -30z m1353 -1699 c-3 -7 -5 -2 -5 12 0 14 2 19 5 13 2 -7 2
-19 0 -25z m-1885 -33 c11 -21 8 -18 -32 30 -24 29 -24 29 -2 10 13 -11 28
-29 34 -40z m157 -82 c-7 -21 -14 -32 -17 -25 -4 14 18 75 25 68 3 -3 -1 -22
-8 -43z m1714 -133 c-5 -72 -9 -96 -14 -75 -9 40 -10 194 -2 225 14 49 23 -39
16 -150z m-385 -707 c7 -7 20 -13 28 -13 8 0 14 -5 14 -11 0 -24 -111 12 -138
44 -11 12 -5 13 35 4 27 -6 54 -17 61 -24z"/>
<path d="M10041 7420 c-39 -45 -115 -122 -168 -173 -89 -85 -100 -101 -150
-202 -29 -60 -71 -141 -93 -180 -22 -38 -40 -80 -40 -92 0 -11 16 -40 35 -63
19 -23 65 -97 102 -166 38 -68 69 -119 71 -114 5 15 -108 232 -149 286 -21 28
-39 57 -39 65 0 8 22 54 50 102 27 47 68 125 91 171 36 76 53 96 148 184 58
55 131 131 161 170 30 39 61 71 68 72 17 0 15 20 -2 20 -8 0 -46 -36 -85 -80z"/>
<path d="M6739 7430 c-28 -16 -321 -330 -308 -330 7 0 69 57 137 128 125 127
128 124 20 -19 -32 -42 -58 -82 -58 -87 0 -6 -10 -18 -22 -26 -17 -12 -19 -19
-11 -27 9 -9 18 -8 37 5 28 18 40 21 31 7 -11 -18 15 -21 51 -6 20 8 51 15 69
15 19 0 35 5 37 12 3 7 12 9 22 5 21 -8 15 -36 -17 -79 -21 -28 -21 -28 -259
-80 -48 -10 -58 -24 -36 -46 18 -18 33 -15 65 12 17 14 48 26 79 30 51 6 172
44 213 65 30 17 27 35 -5 27 -23 -6 -25 -4 -19 11 17 40 17 73 1 79 -9 3 -16
12 -16 20 0 17 -39 18 -93 3 -22 -6 -40 -9 -42 -7 -2 2 25 27 61 56 71 59 88
95 32 66 -18 -9 -41 -23 -50 -32 -24 -21 -22 -3 3 28 11 14 41 56 65 94 43 65
48 96 13 76z m-99 -319 c-8 -5 -26 -11 -40 -15 -21 -5 -20 -3 5 9 32 15 60 20
35 6z m-164 -196 c-22 -17 -36 -19 -36 -7 0 14 12 22 34 22 21 -1 21 -1 2 -15z"/>
<path d="M4005 6999 c-121 -26 -199 -66 -288 -149 -65 -61 -167 -194 -207
-270 -27 -50 -50 -166 -50 -250 0 -81 2 -89 46 -177 36 -71 70 -119 146 -202
112 -124 138 -140 306 -190 152 -45 222 -48 368 -17 358 75 475 150 656 417
30 44 56 100 77 166 53 171 40 260 -62 400 -59 80 -66 87 -147 125 -47 23 -91
49 -98 59 -34 49 -359 110 -572 108 -47 -1 -125 -10 -175 -20z m489 -44 c70
-12 99 -23 135 -49 25 -18 73 -43 106 -56 142 -55 169 -74 228 -158 71 -101
94 -178 77 -259 -25 -116 -59 -194 -129 -291 -83 -116 -155 -188 -236 -237
-110 -65 -374 -135 -515 -135 -101 0 -270 45 -355 96 -63 37 -215 215 -264
311 -37 72 -41 87 -41 152 0 126 23 199 99 314 74 111 191 231 258 265 37 19
144 52 213 66 49 9 336 -3 424 -19z"/>
<path d="M4146 6828 c-3 -7 -7 -40 -10 -73 -3 -33 -14 -87 -26 -119 -19 -57
-16 -87 8 -72 14 8 50 122 54 166 2 25 7 34 18 31 8 -2 40 -6 70 -10 l55 -6 6
-60 c3 -33 15 -78 27 -101 18 -35 28 -43 77 -59 82 -25 126 -11 167 55 l31 50
32 -29 c18 -15 53 -36 78 -47 26 -10 47 -22 47 -25 0 -4 -7 -23 -15 -42 -18
-43 -20 -148 -4 -164 9 -9 4 -19 -20 -39 -18 -14 -41 -44 -52 -66 -17 -34 -24
-39 -42 -33 -54 17 -146 35 -184 35 -47 0 -70 -17 -79 -58 -12 -54 -12 -55
-41 -32 -18 14 -35 19 -51 15 -13 -3 -30 0 -38 6 -9 7 -18 8 -23 3 -4 -5 -23
-67 -42 -139 -32 -123 -34 -128 -40 -90 -4 22 -10 84 -14 138 -9 117 -16 127
-90 127 -38 0 -54 4 -59 15 -8 22 -30 18 -65 -11 -23 -19 -31 -22 -31 -10 0 8
5 18 10 21 16 10 11 51 -9 77 -25 32 -81 48 -164 48 l-67 0 21 41 c17 31 20
50 15 86 -3 25 -11 52 -18 60 -9 11 -9 17 3 24 20 13 22 12 64 -21 53 -42 63
-37 15 7 -28 24 -38 39 -31 46 7 7 19 7 36 -1 29 -14 34 2 5 18 -16 9 -18 14
-8 35 l11 24 16 -32 c30 -60 102 -84 239 -79 49 2 52 4 52 28 0 23 -3 25 -22
19 -13 -4 -50 -10 -83 -12 -48 -3 -69 1 -105 19 -50 26 -57 42 -59 131 -1 81
-24 74 -56 -16 -34 -99 -98 -160 -132 -126 -11 11 -33 5 -33 -10 0 -4 8 -16
18 -27 71 -77 69 -144 -7 -215 -12 -11 -19 -24 -16 -30 4 -5 48 -9 99 -9 118
0 156 -7 156 -30 0 -9 3 -20 8 -24 4 -4 7 -31 7 -59 0 -64 18 -71 66 -28 29
27 35 29 49 16 10 -9 37 -15 66 -15 72 0 78 -7 71 -76 -3 -34 0 -93 9 -143 30
-174 52 -197 72 -72 7 44 26 119 42 168 16 48 30 89 30 89 0 1 12 2 28 2 15 0
37 -9 49 -21 22 -19 24 -20 60 -3 33 14 38 21 38 49 l0 32 55 -3 c92 -5 180
-33 180 -57 0 -17 33 -45 53 -45 21 0 22 29 1 58 -22 31 -12 63 35 112 31 33
45 40 75 40 30 0 37 3 34 17 -2 10 -12 19 -23 21 -37 7 -55 33 -55 79 0 49 34
139 56 147 8 3 14 12 14 21 0 11 -12 15 -49 15 -39 0 -59 7 -104 37 -51 33
-62 49 -81 105 -10 33 -36 9 -36 -33 0 -46 -31 -114 -59 -129 -25 -13 -70 -13
-109 1 -23 8 -35 21 -46 52 -25 67 -25 126 0 152 9 8 13 23 10 31 -6 15 -8 15
-31 0 -47 -31 -185 -10 -185 28 0 19 -19 21 -24 4z"/>
<path d="M5995 6920 c-5 -8 -10 -120 -12 -250 -3 -266 9 -234 -103 -301 -72
-43 -125 -87 -116 -96 3 -3 54 27 113 67 74 49 117 72 136 72 22 -1 31 6 40
27 7 15 17 26 23 24 7 -2 14 13 17 37 7 54 48 131 80 150 14 8 49 44 78 80 28
36 77 91 108 123 30 31 50 57 44 57 -19 0 -105 -84 -153 -149 -25 -33 -50 -60
-57 -61 -6 0 -25 -12 -42 -26 -34 -28 -111 -176 -111 -212 0 -11 -4 -24 -10
-27 -6 -4 -11 13 -11 42 -12 399 -15 457 -24 443z"/>
<path d="M5240 6862 c0 -4 4 -12 9 -17 5 -6 19 -55 31 -110 19 -85 22 -116 16
-209 -4 -60 -13 -141 -21 -180 -8 -39 -16 -84 -18 -101 -12 -88 -4 140 8 250
18 154 18 185 5 185 -5 0 -10 -11 -10 -24 0 -14 -4 -27 -9 -30 -5 -3 -12 30
-15 74 -7 76 -17 102 -31 80 -3 -5 0 -92 9 -192 16 -209 15 -443 -4 -774 -7
-127 -10 -243 -6 -257 12 -50 22 -27 18 43 -3 54 -1 70 8 68 10 -2 12 12 11
54 -3 70 5 98 27 99 11 0 12 3 5 6 -25 9 -9 284 24 444 l16 76 44 -42 c23 -23
43 -46 43 -52 0 -17 37 -44 73 -52 28 -7 36 -5 46 10 10 16 8 19 -12 19 -26 0
-150 108 -172 151 -8 15 -14 45 -14 66 1 21 3 30 6 20 2 -9 8 -15 12 -13 4 3
3 40 -1 83 -4 43 -7 106 -6 140 1 35 -2 66 -5 70 -4 3 -7 -5 -8 -18 l-1 -24
-7 25 c-5 14 -16 51 -25 83 -11 35 -22 57 -32 57 -7 0 -14 -4 -14 -8z"/>
<path d="M6115 6388 c-4 -9 3 -37 14 -62 11 -25 16 -46 11 -46 -5 0 -15 18
-21 40 -14 45 -33 55 -23 13 12 -56 15 -62 43 -71 25 -9 31 -20 63 -138 32
-113 37 -148 43 -284 10 -273 18 -308 130 -620 39 -108 73 -225 89 -305 24
-121 42 -204 144 -640 22 -93 43 -186 47 -205 l6 -35 -21 33 c-34 50 -42 38
-15 -21 14 -30 29 -77 35 -107 15 -78 12 -251 -6 -365 -8 -55 -22 -140 -30
-190 -9 -58 -10 -93 -4 -99 7 -7 10 2 10 25 0 20 12 92 27 160 22 106 27 153
29 319 3 209 -10 313 -72 570 -37 154 -70 314 -85 405 -6 44 -16 83 -21 86 -5
3 -15 48 -24 100 -8 55 -48 194 -94 334 -44 132 -84 269 -90 305 -6 36 -13
142 -16 235 -6 158 -9 180 -45 303 -40 141 -112 291 -124 260z"/>
<path d="M5191 6248 c-34 -111 -52 -181 -48 -196 3 -13 45 106 74 211 8 32
-15 17 -26 -15z"/>
<path d="M5671 6244 c-24 -13 -65 -27 -92 -30 -46 -6 -69 -24 -31 -24 14 0 15
-2 2 -10 -8 -5 -11 -12 -8 -16 15 -15 188 74 188 96 0 14 -9 12 -59 -16z"/>
<path d="M5192 6113 c-13 -33 -20 -148 -10 -158 7 -8 14 27 23 123 7 68 3 77
-13 35z"/>
<path d="M2707 5928 c-8 -13 -25 -48 -37 -80 -14 -34 -28 -54 -35 -52 -16 7
-50 -36 -70 -90 -12 -31 -25 -45 -47 -54 -29 -11 -30 -14 -25 -51 6 -51 43
-111 67 -111 25 0 33 42 20 110 -10 52 -9 58 21 118 34 69 47 76 30 15 -6 -21
-11 -48 -11 -60 0 -39 17 -25 24 18 4 23 27 88 51 144 25 57 45 106 45 109 0
14 -21 4 -33 -16z m-158 -373 l-1 -30 -13 30 c-8 17 -14 41 -14 55 l0 25 14
-25 c8 -14 14 -38 14 -55z"/>
<path d="M7745 5659 c-43 -38 -65 -83 -65 -132 0 -48 39 -81 130 -107 42 -12
83 -31 93 -43 17 -20 18 -22 1 -34 -28 -20 -121 -36 -162 -26 l-37 9 73 23
c43 14 72 29 72 37 0 8 -3 14 -7 14 -31 0 -208 -41 -216 -49 -17 -17 2 -42 49
-66 82 -41 261 -12 282 46 23 61 -22 107 -128 135 -89 23 -114 48 -98 97 23
67 82 103 150 92 l40 -7 -4 -69 c-4 -83 9 -78 18 6 8 83 -4 98 -88 103 -62 4
-67 3 -103 -29z"/>
<path d="M8589 5672 c-14 -2 -41 -19 -60 -38 -34 -35 -34 -36 -33 -122 2 -94
16 -221 28 -240 4 -7 14 -12 23 -12 14 0 15 10 9 73 l-7 74 58 29 c94 48 126
121 84 190 -21 34 -60 52 -102 46z m49 -58 c45 -31 21 -99 -49 -134 l-39 -20
0 69 c0 61 3 72 22 85 12 9 27 16 33 16 6 0 21 -7 33 -16z"/>
<path d="M8827 5654 c-3 -4 -1 -14 5 -23 6 -10 8 -33 4 -52 -5 -26 -13 -37
-36 -46 -32 -12 -42 -46 -16 -56 11 -5 11 -13 0 -58 -19 -72 -18 -102 5 -130
28 -35 80 -30 182 18 91 43 119 67 101 85 -8 8 -34 0 -97 -30 -48 -23 -101
-43 -118 -45 -30 -2 -32 1 -35 32 -2 19 5 63 15 98 20 71 15 68 128 78 87 7
145 24 145 42 0 15 -9 16 -81 4 -30 -5 -78 -12 -106 -16 -48 -5 -53 -4 -53 14
0 15 10 20 47 26 61 9 153 43 153 57 0 6 -9 8 -22 4 -91 -27 -172 -39 -176
-28 -5 15 -37 33 -45 26z"/>
<path d="M10335 5646 c-34 -15 -85 -70 -85 -92 0 -21 11 -17 54 21 47 43 96
47 147 12 89 -60 47 -212 -62 -224 -58 -7 -134 24 -151 61 -12 27 -23 33 -33
16 -12 -19 26 -70 67 -91 23 -12 67 -23 97 -26 47 -4 61 -1 90 19 55 38 74 71
79 140 6 82 -14 119 -81 153 -57 28 -79 30 -122 11z"/>
<path d="M9270 5635 c-7 -8 -26 -43 -43 -77 -29 -57 -31 -71 -31 -156 1 -96
15 -134 36 -101 10 14 18 14 87 -3 100 -24 206 -29 206 -8 0 10 -31 20 -114
36 -62 13 -116 26 -120 29 -3 4 19 28 49 53 103 87 130 120 130 157 0 67 -72
101 -145 71 -46 -20 -46 -20 -39 -1 8 19 0 19 -16 0z m148 -52 c6 -11 6 -24 0
-37 -10 -20 -149 -146 -162 -146 -10 0 -6 83 7 120 22 63 131 108 155 63z"/>
<path d="M11703 5588 c-23 -35 -71 -106 -108 -158 -36 -52 -64 -101 -63 -110
7 -34 36 -10 103 85 l70 99 8 -64 c10 -83 51 -168 96 -197 40 -27 113 -31 164
-9 41 17 103 79 189 190 75 97 84 129 36 134 -19 2 -36 -5 -53 -22 -26 -26
-33 -56 -14 -56 24 0 -118 -167 -164 -192 -18 -10 -51 -18 -76 -18 -37 0 -49
5 -76 34 -35 37 -50 82 -65 194 -7 49 -7 79 0 92 12 23 13 60 2 60 -5 0 -27
-28 -49 -62z"/>
<path d="M8050 5611 c-57 -81 -68 -179 -24 -230 48 -58 136 -65 207 -17 40 28
47 25 47 -18 0 -36 24 -76 45 -76 20 0 28 19 15 35 -12 15 -9 157 6 238 6 37
5 39 -17 35 -19 -2 -28 -14 -41 -57 -30 -92 -99 -148 -172 -138 -69 10 -91 59
-65 146 14 47 48 95 49 69 0 -10 5 -18 10 -18 6 0 10 14 10 30 0 25 -4 30 -24
30 -16 0 -32 -11 -46 -29z"/>
<path d="M5246 5605 c4 -8 8 -15 10 -15 2 0 4 7 4 15 0 8 -4 15 -10 15 -5 0
-7 -7 -4 -15z"/>
<path d="M11332 5591 c-9 -16 -33 -58 -52 -93 -27 -51 -41 -68 -68 -78 -38
-14 -50 -34 -32 -55 11 -13 10 -18 -6 -30 -14 -10 -16 -17 -8 -25 16 -16 35
-4 74 45 32 42 62 55 97 43 4 -2 6 -38 4 -80 -2 -48 1 -78 7 -78 25 0 41 34
47 103 7 68 9 74 36 86 38 17 38 39 0 33 -32 -4 -36 3 -40 88 -4 74 -28 92
-59 41z m18 -93 c0 -33 -14 -58 -31 -58 -23 0 -23 4 -2 41 18 30 33 38 33 17z"/>
<path d="M10742 5596 c-16 -8 -29 -32 -47 -88 -38 -121 -66 -270 -53 -285 5
-7 15 -10 20 -7 13 9 54 100 73 168 l17 58 18 -30 c42 -69 87 -68 158 3 48 48
53 51 48 27 -4 -15 -9 -60 -13 -100 -5 -68 -4 -74 12 -70 15 2 22 23 36 97 30
155 33 205 16 219 -18 15 -21 12 -67 -58 -43 -66 -96 -120 -118 -120 -26 0
-44 43 -51 124 -3 38 -10 70 -16 71 -5 2 -20 -3 -33 -9z m-15 -108 c-3 -8 -6
-5 -6 6 -1 11 2 17 5 13 3 -3 4 -12 1 -19z"/>
<path d="M9901 5535 c-16 -36 -33 -65 -37 -65 -4 0 -4 22 -1 49 5 38 3 51 -9
55 -22 8 -27 -16 -22 -96 5 -62 3 -73 -16 -95 -39 -45 -72 -16 -111 96 -11 31
-12 47 -4 51 7 5 5 12 -6 24 -64 64 -28 -142 37 -211 29 -31 78 -30 107 1 l23
24 32 -35 c59 -65 131 -43 200 62 65 97 82 155 46 155 -15 0 -26 -13 -41 -47
-29 -68 -95 -152 -125 -159 -17 -4 -31 -1 -45 12 -41 37 -41 47 1 128 45 87
50 116 20 116 -15 0 -27 -17 -49 -65z"/>
<path d="M2186 5362 c-10 -53 -24 -133 -32 -177 -15 -82 -78 -684 -90 -858 -5
-72 -12 -103 -25 -118 -42 -49 -61 -291 -68 -889 -3 -278 -3 -514 0 -524 4
-14 9 -6 19 30 30 108 153 267 235 305 64 29 153 25 223 -10 31 -16 73 -45 91
-65 30 -31 35 -42 32 -77 -2 -47 18 -147 32 -156 13 -8 28 20 17 31 -45 45 73
193 203 254 165 79 224 70 279 -42 l29 -61 -6 -170 c-8 -187 -4 -209 51 -274
45 -54 78 -62 304 -76 274 -16 325 -12 368 29 50 47 65 82 65 156 0 88 -18
119 -87 153 -30 15 -65 27 -78 27 -13 0 -61 25 -107 55 -46 30 -88 52 -93 49
-13 -8 -8 -12 86 -73 44 -28 90 -51 103 -51 13 0 48 -14 78 -31 44 -25 56 -38
65 -67 24 -86 0 -170 -62 -215 -26 -20 -33 -20 -255 -8 -284 15 -320 22 -360
64 -17 18 -36 42 -42 54 -11 21 -16 155 -6 165 3 3 7 112 9 244 4 259 9 346
21 412 9 47 -9 60 -25 18 -20 -54 -41 -252 -35 -336 l6 -85 -19 41 c-30 64
-75 104 -116 104 -82 0 -239 -71 -314 -143 -19 -18 -45 -51 -59 -74 -14 -24
-27 -43 -30 -43 -3 0 -3 20 -1 45 5 38 1 51 -22 83 -31 43 -105 93 -164 112
-58 19 -156 8 -209 -24 -54 -31 -125 -108 -166 -179 l-31 -52 0 420 c0 454 23
876 46 853 2 -3 -3 -90 -12 -193 -17 -199 -10 -299 23 -326 12 -11 13 -8 6 17
-15 56 -7 301 20 589 56 588 87 873 112 1014 14 78 21 149 17 157 -4 8 -15
-26 -26 -84z"/>
<path d="M10035 5044 c-230 -33 -474 -69 -570 -85 -66 -11 -205 -27 -310 -35
-285 -21 -551 -52 -634 -75 -97 -26 -313 -137 -410 -209 -132 -100 -191 -189
-270 -406 -21 -60 -53 -140 -71 -179 -17 -38 -45 -106 -62 -150 -17 -44 -58
-128 -90 -188 -107 -193 -128 -207 -310 -207 -118 0 -128 2 -237 40 -114 40
-161 49 -161 30 0 -5 15 -13 33 -19 17 -5 73 -26 122 -47 85 -36 97 -38 217
-42 209 -7 256 21 366 216 35 62 84 163 109 225 25 61 54 130 65 152 12 22 39
89 60 150 95 265 180 362 438 498 162 86 227 104 477 132 120 13 286 29 368
35 83 6 192 17 244 25 556 90 625 97 921 102 420 8 602 -12 879 -92 229 -67
356 -134 565 -298 161 -127 204 -169 309 -301 102 -129 149 -219 182 -351 63
-246 56 -445 -21 -681 -72 -222 -244 -586 -338 -718 -130 -183 -365 -316 -682
-386 -127 -29 -405 -32 -591 -6 -424 57 -688 140 -1023 321 -220 119 -496 247
-646 301 -125 44 -313 93 -574 150 -100 21 -160 27 -295 31 l-170 4 -115 -41
c-238 -86 -407 -138 -467 -145 -88 -10 -165 14 -219 68 -36 37 -47 61 -93 201
-42 130 -54 180 -62 270 -13 151 -50 249 -81 218 -10 -10 -9 -23 6 -65 10 -28
22 -97 26 -152 13 -157 105 -443 162 -503 67 -70 160 -96 282 -81 76 10 171
39 411 126 l150 55 175 -5 c188 -5 223 -11 555 -92 329 -80 404 -111 1055
-446 189 -98 389 -164 658 -218 252 -51 303 -56 557 -56 261 0 303 6 490 67
115 37 209 83 309 148 163 106 243 211 384 500 137 281 222 536 242 725 19
181 -23 430 -99 590 -38 81 -154 239 -240 328 -49 52 -188 167 -311 259 -149
111 -334 193 -572 252 -229 57 -237 58 -663 61 -220 2 -413 1 -430 -1z"/>
<path d="M10837 4684 c-32 -63 -63 -283 -40 -291 13 -5 15 2 33 122 7 44 15
86 19 93 4 7 17 -32 29 -85 33 -147 90 -222 137 -183 19 15 42 95 51 175 5 47
9 55 15 37 11 -29 29 -28 29 1 0 40 -28 139 -41 148 -22 13 -26 3 -33 -83 -9
-108 -24 -200 -37 -235 l-10 -28 -19 25 c-24 31 -54 121 -75 225 -8 44 -22 86
-29 94 -12 11 -16 9 -29 -15z"/>
<path d="M10677 4668 c-15 -87 -39 -309 -34 -315 27 -27 42 49 60 316 3 37
-20 36 -26 -1z"/>
<path d="M10287 4683 c-21 -34 -47 -343 -33 -397 9 -37 44 -34 85 8 19 19 55
44 81 55 51 22 77 45 61 55 -16 10 -119 -35 -161 -71 l-40 -35 0 79 c0 80 15
245 26 289 6 22 -8 34 -19 17z"/>
<path d="M10420 4680 c-33 -20 33 -115 87 -126 l30 -6 -18 -91 c-23 -116 -23
-147 -4 -147 18 0 47 54 39 74 -3 9 1 55 10 103 18 100 23 169 13 179 -13 13
-35 -6 -42 -36 -10 -45 -31 -48 -68 -10 -21 21 -28 34 -19 37 6 3 12 8 12 13
0 12 -25 19 -40 10z"/>
<path d="M11216 4668 c-29 -44 -55 -114 -61 -164 -14 -102 37 -174 122 -174
84 0 148 50 160 125 6 39 -9 65 -38 65 -32 0 -79 -51 -86 -92 -7 -49 7 -49 41
2 23 35 46 52 46 35 0 -16 -33 -66 -52 -79 -32 -23 -103 -21 -128 4 -39 39
-39 127 1 221 l23 53 10 -35 10 -34 4 33 c6 62 -23 84 -52 40z"/>
<path d="M10111 4650 c-43 -10 -54 -28 -35 -58 13 -20 14 -51 9 -198 -6 -151
-4 -174 9 -174 24 0 27 15 27 134 l-1 113 38 17 c20 9 48 26 62 36 21 16 22
20 7 20 -10 0 -35 -9 -57 -20 -22 -11 -42 -20 -45 -20 -3 0 -5 28 -3 63 l3 62
38 3 c21 2 37 -1 37 -7 0 -6 7 -11 15 -11 17 0 19 9 7 28 -11 17 -68 23 -111
12z"/>
<path d="M9355 4559 c-7 -22 5 -43 12 -21 3 6 12 12 20 12 12 0 14 -7 9 -27
-10 -45 -19 -240 -12 -259 5 -13 9 -15 18 -6 8 8 14 61 16 140 2 70 6 129 8
131 8 8 56 -44 75 -81 41 -79 14 -170 -67 -233 -48 -36 -54 -38 -90 -36 -26 2
-56 -25 -52 -48 13 -64 213 58 254 154 19 47 17 122 -5 170 -43 92 -168 162
-186 104z"/>
<path d="M9289 4526 c-2 -3 -51 -10 -107 -15 -57 -6 -112 -16 -123 -22 -19
-10 -20 -9 -9 10 16 32 -15 28 -36 -4 -22 -34 -62 -190 -65 -252 -4 -96 16
-113 108 -89 32 8 85 18 118 22 81 9 105 19 105 44 0 18 -4 20 -42 14 -61 -8
-199 -33 -227 -41 l-24 -6 6 74 c6 88 37 216 47 199 5 -8 13 -9 26 -2 11 6 60
15 111 21 91 10 133 23 133 41 0 10 -13 14 -21 6z"/>
<path d="M8763 4483 c-7 -2 -13 -12 -13 -20 0 -11 5 -13 18 -7 9 4 47 10 85
12 37 2 67 8 67 13 0 9 -135 11 -157 2z"/>
<path d="M11576 4459 c-16 -83 7 -251 37 -257 20 -4 21 20 4 177 -12 105 -29
139 -41 80z"/>
<path d="M8455 4471 c-3 -6 -22 -11 -41 -11 -20 0 -44 -5 -55 -11 -20 -10 -20
-11 -3 -30 20 -23 36 -25 28 -4 -5 11 1 15 23 15 16 0 32 -2 35 -5 2 -3 -2
-33 -9 -67 -8 -35 -15 -85 -17 -113 -2 -27 -7 -76 -11 -107 -6 -50 -5 -59 10
-64 25 -10 35 12 36 81 2 97 6 105 73 125 63 20 116 62 116 93 0 46 -31 72
-102 86 -24 5 -50 12 -59 15 -10 4 -20 3 -24 -3z m123 -67 c41 -26 -1 -67 -92
-90 l-28 -7 7 54 c4 30 9 58 12 62 6 11 73 -2 101 -19z"/>
<path d="M8698 4423 c-9 -32 -30 -97 -47 -145 -52 -145 -31 -161 149 -112 97
27 124 39 114 55 -8 14 -42 11 -141 -13 -51 -12 -96 -19 -100 -15 -7 7 24 114
37 130 4 4 38 11 76 14 92 8 118 16 122 38 3 14 -1 17 -20 12 -12 -3 -54 -9
-91 -13 l-69 -7 2 39 c6 93 -10 101 -32 17z"/>
<path d="M8190 4449 c-82 -33 -131 -148 -77 -183 12 -8 44 -20 71 -26 76 -17
116 -43 116 -76 0 -3 -16 -12 -35 -20 -45 -19 -85 -18 -85 1 0 19 -20 19 -45
1 -24 -17 -14 -43 21 -56 42 -16 134 4 162 35 58 68 6 127 -145 165 -47 12
-50 18 -28 60 20 39 62 70 96 70 27 0 29 -3 29 -41 0 -28 4 -39 13 -37 16 6
21 86 6 104 -13 16 -62 17 -99 3z"/>
<path d="M9145 4386 c-106 -22 -115 -25 -115 -46 0 -10 5 -22 10 -25 6 -3 10
0 10 8 0 10 22 18 77 26 73 11 103 23 103 42 0 11 -7 10 -85 -5z"/>
<path d="M3272 4323 c-5 -10 -22 -56 -37 -103 -15 -47 -39 -110 -54 -140 -25
-54 -26 -60 -26 -250 0 -206 11 -282 45 -300 25 -13 32 0 15 27 -23 35 -34
108 -36 240 -2 125 4 155 80 398 16 50 31 102 35 118 7 30 -8 37 -22 10z"/>
<path d="M9866 4313 c-9 -10 -7 -226 3 -242 14 -22 44 -5 38 22 -3 12 -9 66
-12 120 -7 92 -14 115 -29 100z"/>
<path d="M11185 4090 c-3 -5 -1 -37 5 -72 5 -35 10 -78 10 -95 0 -31 -2 -33
-35 -33 -30 0 -35 -3 -35 -23 0 -13 7 -32 16 -43 15 -18 15 -18 9 9 -5 26 -4
28 22 25 27 -3 28 -5 35 -76 3 -40 8 -76 11 -79 16 -15 27 16 27 77 0 67 1 69
27 72 34 4 43 28 10 28 -34 0 -43 16 -50 85 -11 105 -33 157 -52 125z"/>
<path d="M11485 4066 c-44 -19 -84 -71 -91 -118 -4 -22 -13 -42 -20 -45 -18
-7 -18 -23 0 -23 8 0 16 -10 20 -23 17 -68 143 -155 203 -141 43 10 80 32 87
50 11 29 -4 34 -45 12 -36 -18 -45 -19 -80 -9 -43 13 -127 88 -112 100 4 4 30
16 56 25 59 22 117 77 117 111 0 28 -35 65 -61 65 -10 0 -23 2 -31 5 -7 2 -27
-2 -43 -9z m76 -46 c15 -9 17 -15 9 -30 -12 -23 -89 -70 -114 -70 -25 0 -13
46 22 83 27 29 51 34 83 17z"/>
<path d="M11913 4065 c-35 -15 -84 -83 -104 -144 l-12 -36 -21 75 c-15 52 -27
76 -39 78 -13 3 -17 -3 -17 -25 0 -16 4 -33 8 -39 5 -5 14 -39 21 -77 16 -91
27 -117 50 -117 15 0 24 15 41 73 35 116 88 192 121 171 6 -3 19 -26 29 -50
21 -49 50 -60 50 -19 0 32 -22 86 -41 101 -25 20 -53 23 -86 9z"/>
<path d="M10941 3937 c-11 -15 -3 -33 67 -157 18 -30 32 -58 32 -62 0 -5 -13
-8 -30 -8 -20 0 -30 5 -30 15 0 19 -24 19 -40 0 -33 -40 16 -72 93 -61 80 12
75 39 -36 220 -45 72 -42 69 -56 53z"/>
<path d="M10646 3859 c-47 -40 -74 -86 -82 -137 -6 -37 -3 -44 24 -72 27 -27
37 -30 91 -30 53 0 65 4 93 29 l32 29 28 -21 c23 -17 32 -19 53 -9 33 15 33
42 1 42 -34 0 -56 35 -56 90 0 53 -18 84 -46 78 -17 -3 -19 -11 -16 -74 3 -83
-13 -111 -68 -120 -51 -8 -90 10 -90 41 0 42 24 88 65 124 38 33 39 33 47 12
11 -30 28 -17 28 20 0 26 -3 29 -35 29 -24 0 -45 -9 -69 -31z"/>
<path d="M9812 3839 c-25 -10 -71 -77 -96 -144 -10 -25 -21 -45 -26 -45 -5 0
-14 16 -21 35 -18 49 -44 47 -36 -2 8 -46 37 -87 66 -91 18 -3 27 10 62 85 47
103 66 128 85 112 21 -17 45 -103 68 -238 19 -115 23 -126 44 -129 28 -4 29
17 2 158 -41 216 -80 284 -148 259z"/>
<path d="M8250 3826 c0 -10 -9 -16 -21 -16 -19 0 -20 -4 -14 -37 16 -82 3
-315 -16 -296 -14 14 -45 172 -54 271 -5 60 -11 82 -21 82 -19 0 -19 -106 1
-225 23 -146 48 -199 89 -193 22 3 39 52 52 152 l6 50 31 -58 c37 -70 61 -86
89 -59 15 15 21 43 29 139 11 137 6 174 -22 174 -18 0 -19 -9 -20 -122 -1 -68
-4 -134 -8 -147 l-7 -24 -15 24 c-24 36 -69 127 -69 138 0 6 7 8 15 5 12 -5
15 3 14 42 -2 80 -11 109 -37 112 -15 2 -22 -2 -22 -12z"/>
<path d="M10235 3804 c-14 -15 -25 -33 -25 -40 0 -25 -18 -15 -29 16 -11 33
-31 41 -31 13 1 -41 48 -207 60 -211 20 -7 30 19 30 78 0 55 24 120 47 127 18
6 27 -36 24 -109 -2 -55 0 -69 13 -74 31 -12 46 15 46 81 0 48 4 66 19 79 44
39 79 -3 88 -104 6 -60 22 -81 43 -55 19 23 -7 160 -37 196 -29 33 -74 39
-111 13 -21 -15 -25 -15 -41 0 -27 24 -68 20 -96 -10z"/>
<path d="M9443 3770 c-45 -22 -66 -52 -77 -112 -20 -112 83 -208 162 -152 47
33 81 137 68 209 -12 62 -83 88 -153 55z m88 -40 c42 -23 15 -152 -39 -188
-20 -13 -24 -11 -52 16 -23 24 -30 39 -30 69 l1 38 13 -30 c12 -29 62 -62 74
-50 3 3 -4 15 -16 28 -24 25 -28 60 -12 101 10 28 29 32 61 16z"/>
<path d="M8542 3745 c-62 -52 -92 -163 -56 -213 40 -57 154 -71 239 -28 44 23
50 24 76 10 57 -29 127 -8 149 46 7 16 16 30 19 30 4 0 20 -13 36 -30 30 -31
65 -40 65 -16 0 7 -8 20 -17 27 -24 20 -73 100 -73 119 0 22 -62 50 -109 50
-72 0 -137 -84 -121 -156 9 -40 0 -47 -82 -59 -42 -6 -128 8 -128 22 0 3 18
22 40 41 46 38 93 122 88 155 -2 18 -11 22 -49 25 -38 2 -52 -2 -77 -23z m72
-37 c-14 -47 -85 -130 -99 -117 -2 2 3 22 10 44 21 60 108 131 89 73z m303 2
c23 0 13 -112 -12 -140 -22 -24 -77 -27 -99 -4 -45 44 24 168 82 148 8 -2 21
-4 29 -4z"/>
<path d="M9195 3730 c-12 -4 -27 -15 -34 -24 -7 -9 -22 -16 -32 -16 -40 0 -41
-37 -5 -295 20 -148 32 -185 56 -185 23 0 26 24 10 80 -5 19 -13 70 -18 113
l-8 77 25 0 c88 0 141 44 141 117 0 55 -22 98 -63 123 -35 22 -42 23 -72 10z
m54 -57 c29 -24 42 -74 27 -104 -9 -18 -20 -24 -48 -25 -20 -1 -43 -4 -52 -7
-18 -7 -20 5 -7 71 8 39 34 82 51 82 4 0 17 -8 29 -17z"/>
<path d="M6597 3470 c-25 -63 -49 -380 -29 -380 8 0 12 18 12 48 0 26 7 107
16 180 15 129 15 187 1 152z"/>
<path d="M5430 3207 c0 -78 4 -127 10 -127 6 0 11 32 12 73 4 124 2 157 -10
169 -9 9 -12 -17 -12 -115z"/>
<path d="M6178 3281 c-29 -11 -78 -60 -78 -79 1 -20 27 -58 36 -50 3 3 0 15
-7 26 -11 18 -10 24 5 41 24 26 36 27 29 1 -4 -13 0 -20 10 -20 16 0 40 24 32
32 -12 12 88 30 139 26 69 -6 115 -39 158 -114 39 -71 61 -59 24 13 -26 52
-81 108 -122 123 -26 10 -200 11 -226 1z"/>
<path d="M3922 3234 c-67 -33 -143 -118 -189 -211 -38 -77 -39 -113 -3 -91 25
16 37 43 15 34 -24 -9 -18 7 33 85 55 84 127 153 179 170 19 6 67 9 107 7 62
-3 82 -8 126 -36 59 -37 75 -36 36 3 -69 69 -208 87 -304 39z"/>
<path d="M4664 3205 c-77 -38 -171 -112 -209 -164 -47 -65 -25 -65 32 -1 60
66 139 123 224 161 48 22 63 39 35 39 -7 0 -44 -16 -82 -35z"/>
<path d="M4250 3190 c0 -5 4 -10 10 -10 32 0 101 -123 120 -212 7 -37 16 -58
25 -58 17 0 28 17 16 24 -4 3 -11 23 -15 43 -9 60 -59 155 -100 191 -37 33
-56 40 -56 22z"/>
<path d="M5200 2650 c-10 -7 15 -10 80 -11 52 0 131 -7 175 -14 l80 -14 -100
5 c-70 3 -97 2 -89 -6 17 -17 337 -36 366 -23 19 10 12 12 -47 12 -48 1 -81 7
-105 20 -62 33 -322 55 -360 31z"/>
<path d="M2118 2295 c-32 -18 -42 -44 -33 -85 10 -46 26 -48 19 -3 -6 40 1 53
39 66 15 6 16 4 5 -16 -8 -15 -12 -79 -12 -192 l-1 -170 -50 0 c-40 0 -50 -3
-53 -18 -9 -48 118 -117 228 -125 146 -10 201 70 154 227 -18 62 -51 99 -94
107 -27 6 -30 10 -30 43 0 126 -89 212 -172 166z m106 -59 c21 -27 26 -99 15
-176 -4 -24 -3 -25 48 -22 51 4 52 3 71 -35 11 -21 23 -64 27 -95 7 -53 5 -59
-20 -84 -25 -25 -31 -26 -98 -22 -51 4 -86 12 -122 31 -48 25 -49 26 -19 27
52 0 53 7 47 200 -3 98 -3 185 0 195 9 22 26 16 51 -19z"/>
<path d="M4486 2264 c-10 -9 -16 -33 -16 -57 0 -103 -46 -290 -83 -338 -61
-79 -147 -23 -218 141 -22 51 -53 106 -69 122 -36 35 -35 36 -79 -111 -35
-119 -41 -184 -14 -179 11 2 20 22 29 67 17 82 43 161 54 161 5 0 14 -17 20
-37 20 -61 70 -156 98 -186 54 -58 126 -73 182 -40 62 36 116 192 127 364 6
101 -1 123 -31 93z"/>
<path d="M2585 2237 c-38 -38 -62 -109 -74 -219 -12 -113 1 -218 27 -218 5 0
6 41 4 92 -4 81 -3 90 12 85 10 -4 16 -1 16 7 0 10 17 15 60 18 l60 3 0 -112
c0 -125 4 -143 31 -143 18 0 19 9 19 131 0 122 1 131 20 136 26 7 26 33 1 33
-16 0 -21 9 -26 48 -12 82 -26 124 -50 148 -33 33 -61 30 -100 -9z m80 -49 c7
-18 16 -59 20 -90 l7 -58 -38 0 c-22 0 -54 -4 -72 -9 l-33 -10 6 32 c4 18 14
52 22 77 31 94 64 115 88 58z"/>
<path d="M3205 2228 c-7 -24 -25 -293 -25 -381 0 -68 3 -87 14 -87 21 0 24 16
32 161 l7 133 22 -67 c32 -100 73 -134 104 -85 7 12 24 51 37 87 l23 66 0
-118 c1 -98 4 -119 17 -124 35 -13 40 40 28 250 -5 80 -11 107 -22 112 -25 10
-41 -15 -72 -113 -17 -53 -35 -102 -39 -110 -12 -21 -36 49 -61 173 -18 90
-30 114 -53 115 -4 0 -9 -6 -12 -12z"/>
<path d="M3771 2176 c-23 -46 -71 -242 -71 -288 0 -16 -5 -28 -11 -28 -6 0 -9
-12 -7 -27 5 -47 32 -34 45 21 15 59 17 62 65 69 41 6 37 16 58 -120 10 -60
15 -73 30 -73 27 0 29 8 19 70 -5 30 -18 129 -30 220 -11 90 -25 172 -30 182
-17 32 -46 21 -68 -26z m38 -217 c-20 -13 -59 -11 -59 2 0 15 40 151 49 164 3
6 10 -28 15 -74 7 -67 6 -85 -5 -92z"/>
<path d="M2823 2203 c-16 -6 -17 -34 -1 -68 16 -35 31 -31 23 6 -7 32 -7 32
26 25 18 -3 37 -10 42 -15 4 -4 1 -46 -7 -92 -21 -124 -28 -241 -16 -259 16
-24 28 3 35 80 9 98 25 223 31 242 4 14 10 15 35 6 16 -6 33 -7 36 -4 22 22
-167 95 -204 79z"/>
</g>
</svg>
