<?xml version="1.0" standalone="no"?>
<!DOCTYPE svg PUBLIC "-//W3C//DTD SVG 20010904//EN"
 "http://www.w3.org/TR/2001/REC-SVG-20010904/DTD/svg10.dtd">
<svg version="1.0" xmlns="http://www.w3.org/2000/svg"
 width="1638.000000pt" height="1724.000000pt" viewBox="0 0 1638.000000 1724.000000"
 preserveAspectRatio="xMidYMid meet">

<g transform="translate(0.000000,1724.000000) scale(0.100000,-0.100000)"
fill="#000000" stroke="none">
<path d="M2935 17060 c-33 -5 -109 -13 -170 -20 -303 -30 -639 -130 -915 -271
-116 -58 -372 -235 -383 -262 -8 -22 -108 -30 -145 -12 -17 9 -55 21 -85 27
-49 10 -61 9 -97 -7 -23 -11 -56 -32 -73 -48 -18 -16 -53 -36 -79 -44 -49 -14
-72 -40 -62 -67 3 -9 1 -16 -4 -16 -19 0 -142 -153 -152 -189 -6 -23 -6 -76 2
-160 10 -105 9 -126 -3 -135 -8 -6 -29 -34 -48 -61 -19 -28 -66 -95 -105 -150
-66 -94 -100 -162 -247 -489 -28 -62 -67 -175 -89 -259 -22 -82 -42 -153 -45
-156 -10 -17 -65 -369 -81 -516 -21 -201 -14 -458 15 -591 11 -49 27 -131 36
-183 18 -106 55 -217 110 -336 20 -44 45 -104 56 -133 10 -30 41 -95 68 -145
27 -51 61 -126 76 -167 20 -56 48 -104 113 -190 48 -63 104 -140 123 -170 20
-30 70 -92 112 -136 46 -50 91 -112 116 -160 29 -55 55 -89 84 -111 23 -17 79
-65 123 -105 45 -41 115 -95 155 -122 41 -27 87 -57 102 -68 27 -19 212 -117
312 -166 28 -13 92 -49 143 -79 140 -83 287 -146 347 -148 28 -1 115 -12 195
-24 529 -79 495 -76 800 -76 321 0 427 10 622 60 l126 33 72 -152 c39 -83 107
-213 151 -288 43 -75 99 -179 123 -231 24 -53 82 -160 129 -239 46 -78 110
-195 142 -258 32 -63 83 -158 115 -210 31 -52 94 -169 140 -260 45 -90 106
-201 136 -247 30 -45 85 -140 121 -210 58 -110 115 -204 199 -328 12 -17 35
-54 53 -84 l32 -54 -42 -71 c-23 -39 -80 -129 -127 -199 l-85 -128 6 -79 5
-78 -47 -85 c-27 -47 -88 -135 -137 -197 -189 -237 -184 -229 -183 -274 0 -23
4 -59 8 -81 14 -74 -76 -224 -238 -399 -127 -137 -135 -151 -129 -238 l6 -73
-52 -80 c-79 -123 -124 -186 -223 -315 l-92 -119 6 -84 6 -85 -78 -145 c-96
-179 -196 -316 -254 -346 -20 -11 -25 -28 -35 -119 -3 -34 0 -47 17 -62 11
-11 30 -19 41 -18 12 1 60 -7 108 -17 l88 -18 -8 -86 c-4 -47 -7 -255 -6 -461
0 -447 5 -495 99 -931 80 -372 193 -724 306 -955 38 -77 69 -144 69 -148 0
-13 56 -89 105 -141 77 -82 73 -70 85 -315 6 -124 17 -288 25 -365 9 -89 11
-143 5 -149 -6 -6 -10 -42 -10 -82 0 -54 4 -77 17 -92 14 -15 121 -46 458
-132 394 -100 454 -119 455 -141 0 -3 28 -37 63 -76 61 -69 163 -160 222 -197
16 -11 50 -38 75 -61 93 -86 414 -303 531 -359 282 -135 620 -272 796 -325
274 -80 788 -170 1103 -192 202 -14 561 -6 740 17 63 8 165 25 225 39 61 14
152 34 202 45 164 35 244 58 490 144 287 101 330 119 555 237 359 188 508 289
809 545 83 71 202 190 230 230 10 16 137 64 489 188 261 91 480 173 486 181 6
8 18 15 27 15 28 0 33 27 24 132 -5 57 -7 254 -4 439 l4 336 25 34 c43 57 173
327 216 449 22 63 57 158 77 210 61 159 178 655 215 915 54 370 51 887 -6
1189 -5 32 -4 36 15 36 11 0 26 9 33 20 7 11 18 20 25 20 26 0 43 44 43 112
l0 68 -67 64 c-38 36 -92 93 -121 128 l-53 63 -5 83 c-5 93 -48 282 -92 412
-80 233 -284 669 -358 765 -21 28 -60 86 -87 129 -71 116 -193 289 -262 370
-33 39 -80 97 -103 128 -24 31 -47 58 -50 60 -4 2 -30 29 -58 60 -69 76 -436
426 -527 503 l-48 40 64 95 c35 52 116 169 179 259 119 169 235 350 338 527
33 56 133 200 222 320 90 121 201 280 248 354 46 74 135 205 198 290 120 163
377 546 478 713 32 54 103 158 156 230 186 253 280 390 345 506 79 140 105
177 218 312 48 57 164 219 258 359 93 140 192 287 218 327 l49 72 72 -30 c90
-37 203 -65 288 -70 273 -17 533 27 723 122 46 24 57 34 57 54 0 30 -4 29 72
9 43 -11 64 -12 71 -5 6 6 20 11 32 11 33 0 45 20 45 77 0 34 4 53 12 53 19 0
185 179 240 259 48 69 65 103 136 266 54 126 95 338 95 495 -1 180 -50 462
-92 520 -10 14 -34 59 -54 100 -20 41 -56 100 -81 130 -25 30 -64 79 -87 108
-110 143 -419 323 -661 386 -217 56 -266 62 -436 48 -83 -6 -175 -20 -208 -30
-119 -37 -297 -117 -331 -149 -34 -31 -35 -32 -89 -20 -68 14 -85 1 -92 -72
-2 -28 -8 -51 -12 -51 -17 0 -208 -186 -248 -242 -99 -140 -190 -376 -218
-568 -21 -148 -15 -384 14 -515 38 -175 198 -476 319 -600 27 -28 91 -80 142
-115 51 -35 95 -69 98 -77 10 -27 -140 -264 -312 -493 -56 -74 -153 -211 -215
-305 -180 -269 -283 -416 -440 -625 -80 -107 -193 -271 -250 -363 -60 -95
-167 -247 -248 -349 -78 -99 -173 -227 -210 -284 -210 -327 -275 -423 -402
-593 -135 -183 -217 -305 -330 -492 -30 -50 -98 -148 -151 -218 -115 -152
-177 -243 -254 -376 -58 -99 -135 -227 -141 -234 -3 -3 -67 37 -294 184 -63
41 -166 100 -320 183 -175 95 -429 196 -730 292 -183 58 -246 73 -420 100
-112 17 -205 32 -206 33 -1 1 4 27 12 57 56 213 149 767 169 1010 19 220 72
485 196 970 44 173 97 414 119 535 21 121 44 250 51 286 l12 66 421 139 421
140 3 32 c2 20 9 32 18 32 8 0 25 11 37 23 12 13 42 37 67 52 25 15 63 43 85
60 22 18 56 40 75 50 45 23 304 274 385 373 147 181 238 396 316 752 29 131
32 162 33 320 1 202 -2 219 -95 512 -77 243 -144 394 -238 538 -226 342 -468
562 -703 636 l-58 18 0 62 c0 35 -5 75 -10 90 -15 37 -83 104 -108 104 -11 0
-48 -11 -84 -24 -35 -13 -120 -36 -188 -50 -117 -24 -128 -25 -173 -11 -155
46 -563 65 -687 32 -205 -56 -462 -170 -585 -260 -246 -181 -314 -251 -555
-571 -177 -237 -300 -539 -322 -793 -28 -314 32 -650 177 -1003 76 -184 90
-210 215 -375 33 -44 74 -100 92 -125 98 -134 293 -307 426 -376 l90 -47 6
-46 c3 -25 8 -118 12 -206 6 -165 18 -213 50 -201 9 3 14 -1 14 -13 0 -11 15
-28 33 -40 18 -11 42 -29 52 -41 10 -11 27 -20 38 -20 11 0 130 36 264 81 135
44 246 79 247 77 2 -1 -9 -66 -24 -143 -15 -77 -37 -192 -49 -255 -12 -63 -44
-207 -71 -320 -64 -270 -68 -289 -154 -830 -41 -256 -91 -541 -111 -635 -20
-93 -54 -251 -75 -350 -21 -99 -41 -204 -45 -233 l-7 -54 -47 6 c-55 7 -243
23 -361 31 -112 8 -551 -10 -715 -30 -184 -21 -359 -52 -489 -85 -105 -26
-370 -113 -482 -158 -75 -30 -347 -162 -364 -177 -8 -7 -46 -18 -83 -25 -37
-7 -77 -20 -89 -30 -32 -26 -56 -15 -60 28 -2 29 -10 40 -37 56 -70 41 -267
28 -315 -20 -9 -8 -16 -31 -16 -51 0 -39 2 -38 -75 -9 -47 18 -168 21 -230 5
-51 -13 -75 -36 -78 -75 -2 -25 -9 -30 -72 -52 -38 -13 -76 -28 -83 -34 -7 -6
-14 -9 -15 -7 -37 50 -215 360 -287 499 -53 102 -122 226 -153 276 -30 51 -82
147 -115 215 -33 68 -93 180 -133 249 -40 69 -94 169 -120 222 -26 53 -85 161
-130 240 -45 79 -105 190 -132 248 -27 58 -96 184 -153 282 -57 97 -104 179
-104 181 0 2 28 15 63 27 131 48 445 221 483 266 8 10 58 0 255 -51 134 -34
252 -66 262 -70 11 -5 40 6 85 32 70 42 264 120 416 168 48 16 90 35 93 42 3
7 1 26 -5 41 -6 15 -21 260 -33 545 -21 480 -21 518 -6 530 21 15 105 154 141
232 40 86 129 345 180 525 40 139 55 208 70 320 5 44 -11 417 -24 526 -9 87
-56 297 -95 429 -13 44 -35 125 -50 180 -15 55 -36 127 -47 160 -47 134 -236
486 -323 600 -34 44 -76 102 -94 128 -93 136 -460 488 -631 605 -47 32 -124
87 -171 122 -154 115 -361 231 -514 289 -44 16 -146 43 -225 60 -80 16 -208
44 -285 62 -139 32 -143 33 -425 35 -157 1 -312 -2 -345 -6z m740 -99 c77 -18
203 -45 280 -61 176 -37 313 -85 440 -156 99 -55 261 -158 320 -204 33 -26 96
-71 140 -100 44 -30 118 -88 165 -129 100 -90 393 -383 424 -426 149 -203 196
-272 268 -405 135 -247 156 -300 232 -570 116 -420 146 -604 146 -920 0 -152
-15 -243 -74 -442 -89 -300 -169 -509 -231 -601 l-35 -52 0 40 c0 28 6 44 19
52 10 6 21 22 24 35 2 13 35 102 72 198 113 294 152 538 142 898 -6 230 -9
256 -63 537 -43 224 -55 267 -109 385 -90 197 -155 348 -155 358 0 6 -8 13
-19 17 -14 4 -20 19 -25 64 l-7 59 -64 33 c-35 19 -66 41 -68 50 -9 34 -56 53
-141 57 -88 5 -183 -15 -205 -42 -22 -26 -41 -7 -41 40 0 31 -6 49 -21 63 -47
43 -199 53 -298 18 -59 -21 -71 -14 -71 39 0 52 -21 78 -77 93 -50 14 -153 14
-209 0 -34 -9 -48 -9 -57 0 -6 6 -19 11 -28 11 -10 0 -33 9 -52 20 -70 41
-239 35 -316 -12 -39 -25 -51 -15 -51 45 0 35 -3 40 -42 57 -49 22 -177 27
-242 9 -27 -8 -41 -8 -49 0 -6 6 -19 11 -28 11 -10 0 -34 10 -54 21 -47 28
-154 36 -235 19 -33 -7 -63 -17 -66 -21 -3 -5 -14 -9 -24 -9 -14 0 -21 10 -25
38 -10 57 -12 60 -47 78 -46 24 -160 30 -230 11 -49 -13 -59 -13 -69 -1 -6 8
-19 14 -28 14 -9 0 -26 7 -38 15 -52 37 -137 39 -302 9 -40 -8 -61 12 -61 58
0 21 -8 31 -32 44 -42 22 -171 30 -235 15 -50 -12 -63 -9 -158 34 -22 10 -72
20 -112 23 -53 3 -70 8 -66 18 5 14 -29 40 -69 49 -16 4 -28 11 -28 15 0 15
94 77 210 138 246 130 478 199 850 252 146 21 538 30 698 15 345 -32 629 -116
927 -273 225 -119 295 -162 444 -277 49 -38 127 -97 172 -130 83 -62 288 -268
332 -333 13 -20 44 -68 68 -105 37 -58 47 -67 69 -65 40 5 38 41 -8 106 -22
32 -46 71 -55 88 -20 40 -246 279 -313 332 -28 22 -90 68 -140 103 -49 35
-107 80 -130 101 -50 46 -266 177 -434 263 -295 150 -596 235 -940 266 -148
13 -502 7 -655 -11 -237 -29 -490 -85 -654 -146 -248 -92 -535 -263 -518 -308
4 -11 0 -12 -24 -3 -16 6 -29 14 -29 17 1 19 243 172 371 235 273 133 541 207
910 250 172 20 242 23 449 21 234 -3 251 -5 385 -35z m-2405 -550 c-1 -22 -2
-23 -11 -9 -5 10 -28 22 -51 29 -27 7 -37 13 -29 19 7 4 31 3 52 -3 33 -8 39
-13 39 -36z m228 2 c-10 -2 -26 -2 -35 0 -10 3 -2 5 17 5 19 0 27 -2 18 -5z
m-360 -50 c-10 -2 -26 -2 -35 0 -10 3 -2 5 17 5 19 0 27 -2 18 -5z m581 3 c-2
-1 -19 -8 -36 -14 -27 -9 -33 -8 -33 4 0 10 11 14 37 14 20 0 34 -2 32 -4z
m-149 -31 c0 -6 -34 -10 -82 -10 -46 0 -97 -3 -114 -7 -27 -6 -31 -4 -27 10 3
15 19 17 114 17 66 0 109 -4 109 -10z m287 -31 c-3 -3 -12 -4 -19 -1 -8 3 -5
6 6 6 11 1 17 -2 13 -5z m-647 -44 c0 -41 32 -58 60 -30 l20 20 0 -61 0 -61
-27 7 c-16 4 -91 19 -168 35 -200 41 -198 40 -184 56 10 12 13 12 23 -2 7 -9
22 -14 37 -12 20 2 25 9 27 40 l3 37 97 3 c53 2 100 2 105 0 4 -2 7 -16 7 -32z
m90 33 c0 -5 -5 -15 -10 -23 -8 -12 -10 -11 -10 8 0 12 5 22 10 22 6 0 10 -3
10 -7z m203 -40 c-7 -2 -19 -2 -25 0 -7 3 -2 5 12 5 14 0 19 -2 13 -5z m745 0
c-10 -2 -26 -2 -35 0 -10 3 -2 5 17 5 19 0 27 -2 18 -5z m-220 -108 l-1 -60
-8 45 c-4 25 -7 63 -7 85 0 34 1 36 8 15 4 -14 8 -52 8 -85z m-88 80 c0 -17
-4 -18 -40 -8 l-25 7 25 7 c38 11 40 10 40 -6z m-155 -4 c-6 -4 -25 -11 -42
-14 -25 -5 -33 -3 -33 8 0 11 12 15 42 15 24 0 38 -4 33 -9z m8731 -5 c16 -12
16 -16 4 -20 -66 -25 -1006 -278 -1045 -282 -53 -5 -126 -18 -160 -29 -11 -3
0 5 25 19 25 14 53 25 63 26 18 0 30 3 212 58 55 17 138 40 185 52 47 11 108
29 135 39 86 32 156 51 300 81 77 16 165 38 195 49 68 24 62 24 86 7z m-666
-33 c19 -8 10 -10 -41 -6 -118 10 -447 -27 -570 -63 -125 -36 -302 -129 -419
-219 -124 -96 -327 -300 -437 -440 -53 -67 -202 -356 -248 -479 -20 -55 -51
-152 -68 -215 l-32 -116 0 -270 c0 -243 3 -279 22 -361 34 -138 119 -366 187
-499 75 -149 77 -153 30 -85 -64 93 -172 369 -228 583 -49 190 -59 279 -54
510 l4 212 48 141 c64 191 162 382 265 519 183 242 238 304 351 400 234 197
436 306 710 382 78 21 100 23 270 19 102 -2 196 -8 210 -13z m-7530 -9 c0 -6
-31 -10 -82 -10 -46 0 -95 -3 -110 -7 -23 -6 -28 -4 -28 10 0 16 11 18 110 18
71 0 110 -4 110 -11z m-750 -11 c0 -6 -16 -17 -35 -24 -19 -7 -38 -21 -41 -31
-5 -15 -12 -17 -42 -12 -59 11 -82 18 -82 27 -1 58 -9 54 100 53 70 -1 100 -4
100 -13z m8340 -3 c13 -8 13 -10 -2 -10 -9 0 -20 5 -23 10 -8 13 5 13 25 0z
m-8047 -17 c-7 -2 -19 -2 -25 0 -7 3 -2 5 12 5 14 0 19 -2 13 -5z m-875 -26
l103 -22 4 -80 c2 -44 8 -170 14 -280 5 -109 9 -201 7 -202 -2 -3 -156 26
-223 42 -22 5 -23 11 -23 88 0 45 -7 150 -15 232 -15 170 -11 245 14 244 9 0
62 -10 119 -22z m1426 -64 c12 -152 9 -165 -38 -147 -14 6 -14 10 5 40 18 30
20 43 14 109 -5 47 -4 75 2 75 6 0 13 -34 17 -77z m8146 -30 c0 -110 27 -1256
34 -1467 l5 -140 -23 25 c-13 13 -22 27 -20 30 1 3 -1 151 -6 330 -10 329 -29
639 -56 919 -8 85 -12 178 -9 206 7 57 -7 78 -47 73 -13 -2 -28 0 -35 4 -6 4
-74 -13 -150 -38 -202 -67 -288 -91 -483 -136 -96 -22 -251 -64 -345 -95 -93
-30 -199 -60 -234 -67 -96 -18 -97 -21 -76 -219 13 -127 18 -332 25 -918 10
-864 14 -1038 35 -1570 17 -428 17 -730 -1 -730 -8 0 -13 59 -18 183 -16 445
-87 3290 -82 3302 2 7 26 18 53 23 27 6 62 18 78 26 17 9 37 16 45 16 9 0 24
6 35 13 28 19 111 38 138 32 13 -3 246 57 557 144 294 82 545 150 558 150 21
1 22 -2 22 -96z m-7547 80 c-7 -2 -19 -2 -25 0 -7 3 -2 5 12 5 14 0 19 -2 13
-5z m-1377 -40 c-3 -3 -18 -2 -33 2 l-28 7 30 12 c25 11 31 10 33 -1 2 -8 1
-17 -2 -20z m1162 -73 c0 -55 0 -55 -9 -15 -4 22 -8 60 -7 85 0 41 1 42 8 15
4 -16 8 -55 8 -85z m6907 103 c-11 -2 -51 -14 -90 -27 -38 -13 -108 -33 -155
-45 -47 -12 -107 -31 -135 -42 -27 -11 -72 -27 -100 -35 -27 -7 -81 -23 -120
-34 -38 -11 -86 -20 -106 -20 -47 0 -93 -34 -85 -63 3 -12 1 -27 -5 -33 -20
-25 -30 -225 -32 -659 -2 -460 16 -1555 33 -1974 5 -135 8 -247 5 -249 -14
-14 -229 163 -357 294 -160 166 -258 328 -353 585 -67 184 -85 266 -96 444
-18 283 0 437 81 670 45 131 183 414 236 483 103 135 331 366 454 459 91 68
290 172 380 197 53 14 223 42 305 49 58 5 163 5 140 0z m-6998 -29 c-3 -3 -16
-4 -29 -2 l-23 5 25 10 c23 10 41 1 27 -13z m-863 -125 l644 -132 0 -46 c0
-25 5 -91 11 -146 5 -55 13 -160 17 -232 5 -109 4 -133 -7 -133 -8 0 -307 59
-665 131 l-650 132 -12 241 c-7 133 -15 261 -18 285 -6 41 -5 44 15 38 12 -3
311 -65 665 -138z m108 74 c15 -19 55 -16 67 5 9 14 10 13 11 -10 0 -16 -3
-28 -7 -28 -5 0 -76 14 -160 31 -119 25 -150 35 -146 46 5 12 21 14 82 9 42
-4 90 -3 106 2 27 8 30 6 33 -17 2 -14 8 -32 14 -38z m627 51 c2 -2 -10 -4
-27 -4 -16 0 -37 -3 -46 -6 -11 -4 -16 -1 -16 10 0 13 7 15 43 10 23 -4 44 -8
46 -10z m511 -41 c0 -16 -12 -18 -110 -18 -86 0 -110 3 -110 14 0 11 15 12 73
7 39 -4 86 -2 102 3 43 13 45 13 45 -6z m-770 -18 c0 -19 -5 -25 -22 -25 -27
0 -41 -9 -54 -31 -8 -14 -16 -14 -76 -1 -63 14 -68 17 -68 42 l0 26 83 -4 c45
-2 93 1 107 6 14 6 26 11 28 11 1 1 2 -10 2 -24z m1083 -2 c-7 -2 -21 -2 -30
0 -10 3 -4 5 12 5 17 0 24 -2 18 -5z m-223 -55 c1 -13 3 -65 6 -115 6 -99 6
-100 -43 -87 l-22 6 25 38 c23 35 25 44 18 109 -5 50 -3 71 5 71 6 0 11 -10
11 -22z m7585 -24 c193 -100 380 -287 564 -564 42 -64 83 -132 90 -151 7 -19
28 -68 46 -109 34 -77 116 -321 156 -465 17 -64 23 -115 26 -250 4 -154 2
-182 -22 -300 -51 -251 -91 -380 -167 -531 -44 -90 -92 -169 -130 -215 -87
-107 -342 -355 -388 -379 -22 -11 -54 -33 -72 -48 -18 -16 -51 -39 -73 -51
-22 -13 -31 -15 -20 -7 335 270 561 516 674 736 98 190 142 362 162 625 11
140 10 177 -4 295 -15 116 -28 167 -93 360 -143 427 -293 669 -560 901 -108
94 -174 135 -254 157 -35 10 -66 24 -68 32 -7 21 54 5 133 -36z m-7197 -89
l-1 -50 -8 45 c-4 25 -7 65 -7 90 l0 45 9 -40 c4 -22 8 -62 7 -90z m220 118
c-10 -2 -26 -2 -35 0 -10 3 -2 5 17 5 19 0 27 -2 18 -5z m-770 -20 c-10 -2
-26 -2 -35 0 -10 3 -2 5 17 5 19 0 27 -2 18 -5z m462 -9 c0 -11 -5 -14 -16
-10 -9 3 -23 6 -32 7 -10 1 -7 4 8 9 37 12 40 11 40 -6z m6933 -91 c3 -60 11
-166 17 -238 6 -71 15 -184 21 -250 5 -66 14 -262 18 -435 5 -173 12 -343 16
-377 6 -52 5 -63 -7 -63 -8 0 -36 -11 -61 -24 -26 -13 -50 -20 -53 -15 -8 14
-52 11 -84 -6 -16 -8 -42 -31 -57 -52 -25 -32 -28 -46 -32 -126 -2 -50 2 -107
8 -128 12 -39 61 -89 87 -89 9 0 31 -12 50 -27 25 -19 51 -28 89 -31 l54 -4 5
-52 c28 -283 40 -731 29 -1035 l-8 -214 -620 -203 c-341 -112 -621 -204 -622
-204 -2 0 -2 91 -2 203 2 220 -16 799 -31 1022 -5 77 -12 496 -15 930 -4 600
-10 833 -22 967 -8 98 -13 183 -10 191 3 7 36 22 74 32 37 10 134 40 216 67
81 26 200 59 265 73 219 48 588 154 641 185 9 5 19 10 22 10 3 0 9 -48 12
-107z m-7698 41 c6 -30 33 -38 61 -19 23 15 24 14 24 -10 0 -30 6 -30 -105 -6
-50 11 -116 25 -147 31 -45 9 -58 15 -58 30 0 16 8 17 83 13 45 -3 93 -1 107
5 20 8 26 6 28 -7 1 -9 5 -26 7 -37z m644 52 c-12 -10 -99 -16 -99 -7 0 7 22
11 52 11 28 0 49 -2 47 -4z m501 -53 c0 -9 -15 -11 -57 -7 -32 3 -82 2 -110
-4 -46 -8 -53 -7 -53 7 0 14 15 16 110 16 81 0 110 -3 110 -12z m323 0 c-7 -2
-19 -2 -25 0 -7 3 -2 5 12 5 14 0 19 -2 13 -5z m5077 -8 c-14 -8 -32 -14 -40
-15 -8 0 -28 -7 -43 -15 -39 -20 -155 -48 -172 -41 -27 10 -16 26 18 26 28 0
96 16 212 49 45 13 53 12 25 -4z m-6172 -20 c-2 -13 -12 -21 -30 -23 -15 -2
-34 -12 -42 -24 -14 -19 -18 -19 -83 -8 l-69 12 4 32 4 31 109 0 c104 0 110
-1 107 -20z m7699 -37 c78 -47 285 -254 378 -378 49 -66 102 -154 141 -235 66
-135 216 -558 207 -582 -3 -7 -2 -21 3 -30 12 -29 14 -50 20 -203 14 -359 -68
-661 -249 -907 -139 -190 -175 -228 -424 -447 -115 -100 -142 -120 -150 -113
-5 6 -72 2635 -73 2859 l0 97 46 -14 c25 -7 70 -28 101 -47z m-7379 35 c-10
-2 -26 -2 -35 0 -10 3 -2 5 17 5 19 0 27 -2 18 -5z m1160 -20 c-10 -2 -26 -2
-35 0 -10 3 -2 5 17 5 19 0 27 -2 18 -5z m-618 -36 c0 -12 4 -29 9 -36 5 -8 6
-22 2 -30 -4 -9 -5 -44 -2 -79 l7 -63 -41 7 c-50 8 -81 23 -48 24 13 0 29 12
42 33 17 27 19 44 15 106 -4 51 -2 71 5 67 6 -4 11 -17 11 -29z m400 -122 c-7
-28 -16 71 -10 120 4 34 5 30 10 -30 3 -38 3 -79 0 -90z m-247 125 c-4 -4 -23
-10 -40 -13 -27 -5 -33 -3 -33 11 0 14 7 17 41 14 22 -3 37 -8 32 -12z m157 5
c0 -16 -9 -19 -36 -8 -16 6 -16 7 2 14 29 11 34 10 34 -6z m-995 -149 l690
-143 6 -59 c4 -32 7 -157 8 -277 l1 -217 -22 5 c-13 3 -319 65 -680 139 -362
73 -660 135 -664 138 -3 3 -12 102 -19 219 -8 118 -18 242 -21 277 -4 34 -3
62 2 62 5 -1 320 -65 699 -144z m217 103 c4 -40 30 -59 57 -42 17 10 20 9 24
-15 3 -15 4 -28 3 -30 -2 -1 -71 12 -155 29 -142 30 -151 33 -151 55 0 23 3
23 103 27 56 1 105 4 109 5 4 1 8 -12 10 -29z m1158 -3 c0 -11 -14 -14 -62
-13 -35 1 -83 0 -107 -3 -29 -3 -46 0 -48 7 -3 9 25 13 99 16 57 1 106 4 111
5 4 1 7 -4 7 -12z m-3864 -49 c-9 -7 -36 -54 -60 -104 -25 -51 -61 -117 -80
-148 -95 -147 -171 -340 -256 -650 -59 -214 -85 -393 -100 -690 -15 -286 -2
-399 75 -635 19 -58 43 -141 54 -185 49 -196 173 -491 277 -660 33 -55 78
-130 98 -168 44 -79 176 -231 280 -322 40 -35 93 -87 117 -116 24 -29 75 -72
114 -97 38 -25 104 -71 145 -102 41 -32 95 -68 120 -80 25 -12 82 -49 127 -81
45 -33 102 -68 126 -78 25 -11 62 -30 83 -43 22 -14 73 -37 114 -53 41 -15
100 -40 130 -55 30 -16 114 -41 185 -58 72 -16 177 -41 235 -56 259 -64 368
-78 680 -89 284 -9 299 -9 407 12 62 12 190 49 285 82 95 34 216 76 268 94 94
32 269 115 303 143 9 8 17 25 17 38 0 21 2 22 38 13 20 -6 43 -12 51 -15 39
-13 -276 -186 -443 -244 -44 -16 -106 -37 -136 -48 -30 -11 -118 -36 -195 -56
-297 -76 -679 -86 -1066 -28 -74 11 -192 28 -264 37 -219 27 -375 68 -482 125
-43 24 -177 95 -298 159 -248 131 -376 213 -485 310 -41 37 -96 84 -122 105
-34 27 -58 59 -82 110 -23 46 -62 100 -114 156 -43 47 -98 114 -122 150 -24
36 -76 108 -116 160 -46 61 -82 119 -98 162 -14 37 -52 120 -85 185 -34 65
-61 124 -61 130 0 6 -26 72 -59 145 -70 159 -87 210 -101 303 -6 39 -20 107
-30 153 -11 45 -25 155 -31 245 -10 145 -9 183 10 362 37 353 121 722 207 910
26 55 73 161 107 235 71 158 239 414 245 372 2 -13 -3 -29 -12 -35z m3084 8
c0 -21 -5 -25 -30 -25 -32 0 -54 -27 -44 -54 6 -15 3 -15 -145 20 -18 4 -21 8
-12 17 6 6 11 22 11 35 0 23 1 23 78 17 64 -5 93 -2 140 14 1 1 2 -10 2 -24z
m333 8 c-7 -2 -19 -2 -25 0 -7 3 -2 5 12 5 14 0 19 -2 13 -5z m4844 -1606 c23
-875 43 -1649 45 -1720 3 -117 -1 -143 -17 -117 -3 6 -14 10 -24 10 -16 0 -19
18 -30 178 -18 272 -31 725 -41 1417 -5 347 -14 754 -19 905 -7 182 -7 376 0
575 11 333 14 374 32 356 8 -8 23 -467 54 -1604z m-4074 1596 c-7 -2 -21 -2
-30 0 -10 3 -4 5 12 5 17 0 24 -2 18 -5z m-223 -129 c0 -52 5 -104 10 -115 12
-22 43 -25 59 -6 8 10 30 13 85 9 41 -2 88 0 105 6 31 11 31 11 31 -23 0 -24
6 -38 19 -45 45 -23 67 14 59 101 -4 42 -3 49 13 49 13 0 19 -9 21 -36 4 -45
30 -66 53 -43 9 9 17 25 18 37 1 21 6 22 99 22 54 0 101 0 106 0 4 1 8 -7 10
-17 2 -15 -32 -29 -205 -85 l-208 -67 -519 107 c-311 64 -510 109 -495 112 18
4 25 14 27 36 l3 30 67 -8 c63 -8 121 -5 155 8 12 4 16 -3 19 -33 3 -33 6 -38
31 -41 19 -2 29 2 35 15 5 13 8 8 12 -22 5 -37 8 -40 35 -40 26 0 30 4 33 32
l3 31 78 -5 c46 -3 92 -1 110 5 29 10 31 9 31 -13 0 -18 -6 -24 -26 -27 -35
-4 -53 -31 -38 -55 13 -22 35 -27 77 -19 45 9 67 51 67 132 0 36 4 64 10 64 6
0 10 -39 10 -96z m290 51 c0 -17 -45 -21 -55 -6 -4 8 4 12 48 20 4 0 7 -6 7
-14z m-130 -5 c0 -5 -16 -10 -35 -10 -19 0 -38 0 -42 -1 -4 0 -9 4 -11 10 -2
7 14 11 42 11 25 0 46 -4 46 -10z m458 -17 c-10 -2 -26 -2 -35 0 -10 3 -2 5
17 5 19 0 27 -2 18 -5z m-4544 -714 c4 -244 13 -525 21 -624 14 -174 32 -517
55 -1020 6 -132 17 -301 24 -375 9 -90 11 -139 4 -147 -13 -16 -7 -169 7 -181
6 -6 712 -189 1570 -407 858 -219 1574 -403 1590 -410 17 -7 41 -13 55 -14 46
-2 315 -76 315 -86 0 -5 -19 -19 -41 -31 -23 -11 -63 -33 -88 -48 -26 -15 -81
-38 -124 -50 -42 -13 -104 -35 -137 -49 -118 -49 -342 -118 -451 -138 -104
-18 -130 -19 -375 -10 -227 8 -287 14 -429 41 -177 33 -510 111 -575 134 -188
67 -417 179 -515 253 -30 22 -80 53 -110 68 -30 15 -91 56 -135 90 -44 34
-102 76 -130 93 -27 17 -94 76 -149 132 -54 55 -102 100 -106 100 -18 0 -203
218 -237 279 -20 36 -62 107 -94 157 -104 165 -227 457 -283 674 -15 58 -40
143 -56 190 -69 205 -83 368 -60 700 21 302 59 488 166 808 68 203 87 246 168
380 35 59 72 125 83 146 l18 39 6 -125 c3 -69 9 -325 13 -569z m190 587 c63
-13 123 -29 134 -35 11 -6 27 -9 34 -6 7 2 74 -8 148 -23 l135 -28 8 -258 c5
-141 7 -260 4 -262 -2 -3 -133 27 -290 67 l-285 71 -6 30 c-7 36 -8 468 -1
468 3 0 56 -11 119 -24z m3531 -92 c259 -54 472 -99 474 -101 6 -4 29 -536 24
-542 -2 -3 -225 41 -496 96 l-492 100 3 194 c2 107 -1 226 -6 264 -10 73 -8
85 11 85 7 0 224 -43 482 -96z m1039 -182 l8 -198 -234 -116 -233 -115 -6 73
c-4 40 -10 161 -14 268 l-7 195 178 56 c99 31 204 65 234 74 l55 18 6 -28 c3
-15 9 -117 13 -227z m-3554 68 c245 -49 455 -92 466 -95 20 -4 22 -14 28 -112
14 -244 19 -463 9 -463 -9 0 -926 224 -963 235 -11 4 -15 20 -15 67 0 35 -4
154 -8 266 l-9 203 24 -6 c12 -3 223 -45 468 -95z m13069 84 c152 -28 301 -73
390 -118 227 -116 333 -190 416 -290 95 -115 141 -181 164 -236 13 -30 30 -62
38 -71 40 -46 93 -328 92 -489 0 -52 -6 -129 -13 -170 l-13 -75 -2 80 c-5 225
-28 414 -68 540 -16 51 -138 283 -182 345 -31 45 -171 180 -186 180 -6 0 -22
11 -35 25 -91 97 -379 218 -596 249 -146 22 -301 8 -554 -49 l-25 -6 25 14
c50 29 197 67 295 75 149 14 161 13 254 -4z m-9356 -269 c89 -201 96 -226 137
-434 45 -238 59 -348 66 -531 9 -230 -27 -539 -83 -715 -30 -98 -108 -290
-110 -275 -4 21 -93 2024 -93 2084 0 27 2 47 4 45 2 -2 38 -80 79 -174z m8730
155 c-18 -11 -33 -27 -33 -35 0 -12 -7 -14 -27 -9 -41 10 -41 12 18 38 66 30
86 33 42 6z m634 9 c79 -10 232 -55 307 -89 23 -10 58 -25 78 -34 20 -8 62
-34 93 -58 31 -24 75 -55 96 -69 58 -39 133 -112 179 -174 22 -30 40 -56 40
-59 0 -2 24 -46 53 -98 65 -115 81 -157 107 -278 26 -120 43 -386 30 -443 -6
-23 -19 -82 -31 -132 -20 -91 -51 -156 -137 -290 -25 -38 -60 -96 -79 -127
-19 -32 -42 -62 -52 -68 -18 -9 -19 5 -24 348 -3 196 -12 445 -21 552 -8 107
-20 295 -26 418 -10 222 -17 262 -45 262 -8 0 -15 5 -15 10 0 6 -10 15 -22 20
-13 6 -266 60 -563 120 -297 61 -544 112 -550 114 -19 5 34 26 107 42 192 42
336 52 475 33z m-184 -233 c384 -79 700 -146 703 -149 9 -9 23 -185 24 -292 0
-55 7 -181 15 -280 15 -188 31 -590 39 -1002 4 -199 3 -243 -8 -243 -18 0
-1179 289 -1185 295 -2 3 8 34 23 69 l28 65 156 -55 c163 -56 196 -65 397
-109 228 -50 320 -73 393 -100 49 -17 83 -24 102 -20 51 11 54 22 41 168 -6
72 -11 308 -11 522 0 215 -5 467 -10 560 -5 94 -10 210 -11 258 -2 121 -5 124
-147 136 -62 6 -170 24 -240 41 -166 40 -163 39 -240 50 -143 20 -224 40 -400
100 -257 87 -351 92 -339 17 4 -20 -1 -49 -13 -77 l-19 -45 0 56 c-1 31 -4 84
-7 118 -4 34 -3 61 2 61 5 0 323 -65 707 -144z m-11913 56 l375 -77 5 -290 c4
-159 5 -293 3 -296 -3 -8 -326 58 -575 118 l-198 47 0 95 c0 87 -5 165 -26
404 -7 76 -6 77 17 77 13 0 193 -35 399 -78z m11130 -67 c0 -8 -6 -15 -13 -15
-18 0 -53 -39 -130 -146 -77 -108 -83 -119 -141 -260 -69 -171 -114 -419 -101
-557 19 -210 68 -405 135 -538 60 -118 161 -227 294 -315 32 -21 84 -56 115
-76 101 -68 206 -116 342 -159 l134 -41 175 2 c160 1 185 4 295 32 170 44 192
54 186 91 -1 9 25 9 57 1 35 -10 23 -23 -48 -54 -165 -73 -442 -116 -624 -98
-204 20 -387 94 -615 246 -162 109 -242 204 -343 408 -70 139 -95 210 -118
339 -41 224 -11 492 80 721 61 155 128 259 228 357 44 42 82 77 86 77 3 0 6
-7 6 -15z m250 8 c0 -5 -9 -30 -19 -58 -15 -40 -24 -51 -45 -53 -32 -4 -32 5
-5 69 17 39 26 49 45 49 13 0 24 -3 24 -7z m-10454 -128 l442 -90 6 -45 c4
-25 11 -155 17 -289 5 -133 11 -248 12 -254 3 -16 5 -17 -493 87 l-445 92 -6
119 c-4 66 -7 200 -8 299 -1 165 0 178 17 174 9 -2 216 -44 458 -93z m10646
69 l46 -15 6 -82 c3 -45 8 -253 11 -462 3 -209 8 -463 12 -564 7 -211 8 -214
90 -225 28 -3 74 -13 102 -22 l51 -15 0 -64 0 -63 -152 50 c-84 28 -156 53
-160 57 -11 10 -27 227 -38 506 -16 434 -30 776 -34 848 -4 75 -4 75 66 51z
m-13579 -55 c45 -11 98 -24 117 -29 l35 -9 -3 -275 -3 -274 -117 25 c-64 14
-119 26 -121 29 -2 2 -6 127 -9 279 -4 213 -2 275 7 275 7 0 49 -9 94 -21z
m4612 -404 l7 -180 -99 -47 c-315 -149 -363 -171 -368 -167 -4 5 -19 281 -27
507 l-3 84 235 114 235 114 6 -123 c4 -67 10 -203 14 -302z m8841 78 c7 -186
18 -453 23 -593 6 -140 15 -297 21 -348 9 -83 8 -95 -9 -128 l-19 -35 -6 73
c-31 388 -46 743 -46 1098 0 215 5 289 17 276 3 -2 11 -157 19 -343z m-307 75
c1 -139 5 -320 11 -403 5 -82 12 -312 15 -509 4 -198 10 -367 15 -377 7 -12
156 -53 582 -159 315 -78 580 -144 588 -147 16 -6 -9 -15 -142 -52 -66 -18
-104 -21 -263 -21 -195 0 -248 9 -415 71 -56 21 -192 98 -265 150 -219 157
-258 199 -325 343 -56 119 -77 190 -101 333 -37 226 -13 453 72 667 60 150 70
167 186 324 13 17 28 32 33 32 5 0 9 -113 9 -252z m1056 162 c66 -17 168 -36
228 -42 l107 -12 0 -39 c0 -33 -2 -37 -14 -28 -8 7 -27 14 -43 17 -15 2 -50 9
-78 15 -62 13 -301 42 -335 42 -13 -1 -34 -12 -46 -26 -19 -22 -20 -30 -11
-98 5 -41 7 -151 4 -244 -3 -94 -3 -182 0 -197 6 -31 28 -41 130 -58 58 -9 75
-16 88 -36 18 -27 37 -31 58 -10 9 9 19 11 28 5 8 -5 26 -6 42 -3 15 3 58 -2
96 -12 103 -27 100 -32 94 194 -3 103 -3 185 -1 182 3 -3 8 -110 12 -237 7
-210 6 -232 -8 -227 -9 4 -23 1 -31 -6 -16 -14 -26 -12 -165 18 -52 12 -133
26 -179 32 -46 5 -86 12 -89 15 -3 2 -13 0 -23 -6 -18 -9 -19 -24 -17 -287 l3
-277 27 -13 c31 -15 156 -42 308 -67 58 -9 113 -21 122 -26 10 -5 29 -9 42 -9
22 0 24 -5 28 -50 1 -28 0 -50 -3 -50 -4 0 -36 11 -73 25 -36 14 -119 36 -184
50 -178 39 -342 76 -343 78 -3 6 -20 677 -25 1021 l-7 409 69 -6 c38 -3 123
-20 189 -37z m-13314 -131 l649 -161 0 -249 c0 -137 -3 -249 -7 -249 -5 1
-300 63 -658 138 -555 118 -650 140 -649 155 0 9 1 132 2 272 1 140 5 255 8
255 4 0 299 -72 655 -161z m12445 141 c12 0 14 -48 14 -297 1 -317 9 -535 35
-912 8 -129 14 -236 11 -238 -2 -2 -15 -1 -30 3 l-26 6 0 157 c0 186 -15 625
-29 841 -6 85 -13 222 -16 304 -5 133 -4 148 11 142 8 -3 22 -6 30 -6z m-9562
-105 c148 -30 271 -56 273 -58 5 -6 28 -566 22 -571 -3 -3 -569 93 -576 98 -1
1 -7 87 -13 192 -5 104 -12 238 -15 297 l-6 108 23 -6 c13 -3 144 -30 292 -60z
m10775 -137 l-2 -93 -7 75 c-6 68 -4 110 6 110 2 0 3 -42 3 -92z m-12759 -122
c80 -19 289 -65 465 -101 176 -36 330 -67 342 -70 19 -4 22 -14 28 -92 3 -49
13 -161 21 -249 19 -214 20 -197 -18 -189 -18 4 -85 25 -148 47 -134 46 -328
93 -420 103 -36 4 -72 11 -82 16 -9 5 -92 25 -184 44 -92 19 -169 36 -170 38
-1 1 -4 114 -8 250 -7 237 -6 248 11 243 10 -3 83 -21 163 -40z m7725 -66
c-11 -5 -27 -9 -35 -9 -9 0 -8 4 5 9 11 5 27 9 35 9 9 0 8 -4 -5 -9z m3734
-284 c0 -77 -1 -137 -3 -135 -2 2 -5 96 -8 209 -2 113 -1 174 2 135 4 -38 8
-133 9 -209z m-3659 168 c20 -52 3 -182 -25 -191 -5 -1 -21 6 -35 17 -22 17
-25 26 -24 82 2 84 16 118 49 118 18 0 28 -7 35 -26z m-242 -55 c-11 -61 -12
-63 -20 -32 -6 23 -4 43 7 69 22 52 27 38 13 -37z m-9273 33 l130 -28 3 -242
c1 -133 0 -242 -2 -242 -2 0 -52 11 -110 25 -58 14 -115 25 -126 25 -14 0 -20
7 -20 23 0 29 -17 291 -26 390 -5 61 -3 77 7 77 8 0 73 -13 144 -28z m9362 6
c-3 -8 -6 -5 -6 6 -1 11 2 17 5 13 3 -3 4 -12 1 -19z m-6350 -75 l332 -68 6
-50 c8 -68 24 -488 20 -496 -13 -20 -705 136 -705 160 0 3 -9 100 -20 216 -11
115 -20 234 -20 263 0 54 0 54 28 49 15 -3 176 -36 359 -74z m1549 -130 c4
-98 8 -232 8 -298 l1 -119 -228 -104 c-126 -57 -231 -102 -233 -99 -3 3 -9 97
-14 209 -5 111 -12 242 -15 291 -3 61 -1 87 6 87 10 0 214 93 404 185 28 13
53 24 56 24 4 1 10 -79 15 -176z m4794 115 c0 -34 -4 -48 -9 -38 -8 14 -3 90
5 90 2 0 4 -24 4 -52z m-7884 -231 c4 -4 17 -166 32 -404 6 -106 5 -123 -8
-123 -8 1 -298 70 -645 154 l-630 153 -3 245 -2 244 625 -132 c345 -72 628
-134 631 -137z m2535 -27 c4 -52 10 -184 14 -292 l8 -197 -24 6 c-13 3 -58 15
-99 28 -41 12 -161 42 -266 65 l-191 44 -6 190 c-4 105 -10 227 -13 272 l-7
81 289 -51 289 -51 6 -95z m5548 -430 c6 -289 14 -580 17 -647 6 -118 5 -121
-16 -128 -12 -4 -24 -5 -26 -2 -3 2 -5 183 -4 401 0 264 -5 463 -15 594 -8
108 -16 218 -18 243 -3 41 -1 47 22 60 14 9 27 13 28 10 1 -3 6 -242 12 -531z
m3635 187 c4 -179 3 -266 -4 -262 -6 4 -10 105 -10 272 0 147 2 264 4 262 2
-2 6 -125 10 -272z m-11474 223 c78 -17 150 -35 160 -40 9 -5 58 -14 109 -20
94 -12 337 -71 351 -86 4 -5 10 -130 13 -277 5 -249 5 -268 -11 -263 -9 3
-179 44 -377 92 -198 47 -364 90 -368 94 -5 4 -13 81 -17 171 -5 90 -12 208
-16 262 -4 61 -3 97 3 97 5 0 74 -14 153 -30z m12720 0 c0 -5 -7 -7 -15 -4 -8
4 -15 8 -15 10 0 2 7 4 15 4 8 0 15 -4 15 -10z m645 -81 c-26 -101 -115 -297
-176 -389 -70 -105 -199 -236 -199 -202 0 12 6 22 14 22 17 0 99 87 120 129 9
17 41 68 70 114 66 101 132 230 141 277 13 67 38 145 42 129 2 -10 -3 -45 -12
-80z m-14885 -162 l295 -73 12 -229 c6 -127 12 -249 12 -272 l1 -41 -62 14
c-35 8 -85 21 -113 29 -27 7 -133 33 -235 56 -102 23 -190 48 -196 56 -7 8
-14 97 -18 241 -4 125 -10 242 -13 260 -4 23 -1 32 8 32 8 -1 147 -33 309 -73z
m2421 12 c227 -66 463 -123 619 -149 69 -12 128 -24 131 -28 4 -4 9 -125 12
-270 6 -245 5 -263 -11 -258 -9 3 -224 55 -477 116 -253 61 -460 112 -461 113
-1 1 -4 120 -7 265 -4 205 -2 262 7 262 7 0 91 -23 187 -51z m1973 -261 c3
-90 9 -205 13 -255 5 -84 4 -93 -12 -93 -9 0 -30 -9 -46 -20 -15 -12 -73 -41
-128 -65 -55 -25 -138 -65 -184 -90 -46 -25 -88 -45 -94 -45 -6 0 -13 71 -17
193 -3 105 -9 220 -12 255 l-6 63 103 47 c56 26 162 75 233 109 72 33 134 61
137 62 3 1 9 -72 13 -161z m-3543 42 c249 -60 453 -110 454 -110 0 0 -1 -24
-3 -53 -2 -29 3 -124 12 -212 15 -149 21 -275 12 -275 -13 0 -921 222 -925
226 -16 15 -27 534 -12 534 5 0 213 -49 462 -110z m13389 40 c0 -11 -7 -20
-15 -20 -18 0 -19 12 -3 28 16 16 18 15 18 -8z m-10779 -40 c94 -22 207 -51
251 -65 43 -14 88 -25 99 -25 11 0 21 -6 24 -12 6 -19 27 -539 22 -544 -4 -4
-577 132 -582 138 -7 9 -25 302 -25 416 0 125 1 132 20 132 11 0 97 -18 191
-40z m-1534 -260 c296 -72 555 -135 576 -141 l37 -10 0 -121 c0 -99 -17 -399
-23 -404 -3 -3 -1097 263 -1102 267 -11 11 -43 539 -32 539 3 0 248 -59 544
-130z m5313 -23 c116 -123 346 -311 398 -323 13 -4 22 -14 22 -25 0 -17 -6
-16 -67 15 -116 58 -290 215 -395 357 -27 35 -60 80 -74 99 -14 19 -9 15 13
-10 21 -24 67 -75 103 -113z m-7325 -105 l150 -37 9 -248 c5 -136 6 -250 3
-253 -4 -4 -127 24 -288 66 l-35 10 -18 202 c-9 112 -20 227 -23 257 l-6 53
29 -6 c16 -4 97 -23 179 -44z m3335 -192 c322 -77 592 -145 600 -149 12 -7 17
-56 26 -272 7 -145 11 -265 10 -266 -2 -2 -1280 307 -1284 312 -3 3 1 122 8
266 13 255 14 260 34 255 12 -3 284 -68 606 -146z m-2500 -9 l575 -138 6 -114
c12 -216 10 -409 -3 -409 -7 0 -272 67 -588 148 l-575 147 -6 135 c-4 74 -10
190 -13 257 -6 113 -6 121 11 117 10 -2 277 -67 593 -143z m3664 77 c3 -24 8
-117 11 -208 3 -91 8 -198 11 -237 6 -67 5 -73 -12 -73 -11 0 -68 -25 -129
-56 -142 -71 -326 -156 -330 -152 -2 2 -9 125 -16 273 -10 227 -9 270 2 274 8
2 59 28 114 56 55 29 141 70 190 91 50 20 101 46 115 55 35 26 38 24 44 -23z
m8660 9 c8 -13 -30 -77 -197 -326 -113 -170 -252 -365 -308 -433 -112 -136
-142 -179 -218 -315 -58 -106 -126 -205 -305 -448 -68 -93 -153 -217 -188
-274 -101 -166 -396 -606 -490 -731 -47 -63 -135 -191 -195 -285 -60 -93 -170
-251 -244 -350 -167 -222 -184 -247 -249 -365 -51 -93 -240 -381 -440 -668
-54 -79 -101 -149 -103 -155 -4 -14 -57 10 -57 25 0 10 118 215 198 343 31 50
110 163 176 252 67 88 163 231 215 316 90 149 162 253 369 534 53 72 157 225
229 340 73 114 173 260 223 323 180 229 246 321 325 451 44 73 155 232 246
355 91 122 249 345 350 495 101 150 238 345 303 433 144 194 246 347 293 439
34 68 47 76 67 44z m-3594 -111 c0 -2 -7 -6 -15 -10 -8 -3 -15 -1 -15 4 0 6 7
10 15 10 8 0 15 -2 15 -4z m-7372 -301 c378 -92 695 -168 706 -172 18 -5 18
-16 11 -272 -4 -146 -8 -267 -10 -269 -1 -2 -315 77 -697 174 l-695 178 -7
110 c-7 134 -8 416 -1 416 3 0 315 -74 693 -165z m6408 -202 c-3 -16 -10 -59
-16 -98 -31 -200 -79 -431 -150 -710 -121 -474 -177 -751 -195 -955 -25 -288
-150 -1014 -185 -1081 -6 -11 -18 -15 -34 -12 -22 5 -23 9 -19 46 3 23 16 94
30 157 13 63 35 169 49 235 13 66 38 182 54 258 17 76 62 337 100 580 80 503
93 573 161 857 27 113 64 291 84 395 56 303 64 335 89 345 34 14 38 12 32 -17z
m-4072 -60 c3 -43 8 -141 11 -218 3 -77 8 -183 11 -236 l6 -95 -44 -13 c-122
-37 -150 -47 -248 -88 -58 -24 -124 -55 -146 -67 l-41 -23 -6 101 c-4 56 -10
189 -13 296 l-6 195 228 112 c126 61 232 112 235 112 4 1 10 -34 13 -76z
m-1045 -50 c267 -64 487 -117 489 -119 4 -2 29 -557 26 -562 -2 -4 -1012 253
-1018 259 -6 6 6 539 12 539 3 0 224 -52 491 -117z m-467 -1155 c58 -101 131
-235 161 -298 31 -63 86 -167 122 -230 37 -63 94 -169 127 -235 33 -66 89
-168 124 -228 35 -59 98 -176 140 -260 42 -83 102 -195 134 -247 32 -52 89
-159 129 -237 39 -79 109 -205 155 -280 46 -76 93 -158 106 -183 12 -25 33
-59 45 -76 17 -22 21 -34 13 -45 -6 -9 -11 -10 -14 -3 -6 14 -55 91 -127 199
-31 47 -74 119 -94 158 -51 103 -121 225 -159 277 -18 25 -69 119 -115 210
-46 91 -108 208 -140 260 -31 52 -82 146 -114 209 -31 63 -95 179 -141 258
-46 79 -114 203 -150 276 -36 73 -95 182 -130 242 -72 124 -205 401 -196 409
3 3 8 6 11 6 4 0 54 -82 113 -182z m4747 -1638 c197 -18 571 -72 736 -106 82
-17 393 -113 517 -160 125 -47 403 -170 446 -198 20 -12 89 -51 152 -86 63
-35 140 -79 170 -99 366 -243 451 -302 490 -341 24 -25 63 -59 85 -75 92 -69
494 -469 563 -560 25 -33 60 -76 77 -95 42 -45 221 -297 266 -375 20 -33 54
-85 77 -115 82 -106 316 -621 375 -820 27 -94 52 -203 61 -268 6 -40 5 -42
-13 -31 -11 7 -16 19 -13 31 2 10 -3 33 -12 52 -9 19 -16 44 -16 55 0 14 -9
25 -26 31 -22 9 -25 15 -20 36 11 43 -16 122 -122 359 -25 55 -52 123 -62 150
-35 100 -153 319 -251 465 -31 47 -76 118 -100 159 -23 41 -59 93 -79 115 -20
23 -69 84 -109 136 -145 191 -189 242 -346 393 -232 223 -292 274 -470 395
-302 206 -536 337 -902 507 -248 116 -319 142 -523 195 -85 22 -205 53 -265
69 -61 15 -185 41 -275 55 -91 15 -199 34 -240 43 -192 38 -1012 52 -1220 19
-131 -20 -348 -65 -495 -102 -169 -43 -507 -159 -594 -205 -23 -12 -44 -19
-47 -16 -7 7 146 85 258 131 138 57 436 153 563 181 180 40 418 72 665 88 166
12 505 5 699 -13z m-324 -146 c313 -4 489 -14 590 -34 28 -6 124 -24 215 -41
205 -38 413 -93 642 -169 215 -71 550 -228 653 -305 77 -58 155 -107 228 -145
27 -14 53 -33 58 -42 6 -12 22 -18 44 -18 147 0 758 -519 965 -820 33 -47 79
-105 104 -130 74 -73 192 -254 349 -535 116 -209 292 -613 275 -631 -2 -2 -44
44 -92 101 l-89 103 2 74 c2 67 0 75 -23 97 -14 14 -26 30 -26 37 0 8 -13 20
-29 29 -17 8 -84 78 -151 155 -67 77 -132 148 -146 156 -13 9 -22 20 -19 24 8
13 -15 153 -28 168 -5 7 -16 11 -23 8 -20 -8 -307 303 -312 339 -1 11 -5 47
-8 80 -4 41 -12 66 -25 80 -115 116 -214 224 -259 282 -30 40 -66 77 -80 84
-14 7 -34 21 -45 30 -22 19 -107 39 -163 39 -34 0 -39 3 -47 33 -8 27 -18 35
-60 49 -89 30 -241 17 -285 -25 -29 -26 -50 -15 -50 25 0 55 -10 74 -45 91
-51 24 -125 31 -201 18 -78 -14 -124 -35 -124 -57 0 -11 -6 -14 -16 -10 -9 3
-20 6 -25 6 -5 0 -9 16 -9 35 0 46 -29 71 -99 86 -54 11 -175 2 -224 -16 -10
-4 -17 -2 -17 4 0 6 -6 11 -13 11 -7 0 -30 9 -52 20 -57 29 -128 39 -207 29
-38 -5 -74 -12 -80 -15 -15 -10 -88 17 -116 43 -13 12 -41 26 -61 30 -48 10
-160 7 -209 -7 -37 -9 -45 -8 -92 20 -75 44 -134 54 -233 40 -45 -7 -89 -12
-97 -12 -43 3 -79 16 -83 31 -2 10 -22 26 -43 36 -45 22 -172 26 -241 6 -45
-12 -42 -13 -153 45 -40 21 -169 24 -235 6 -44 -13 -115 2 -115 23 0 50 -233
71 -317 29 -45 -23 -57 -21 -67 13 -4 11 -23 29 -44 39 -50 25 -196 26 -268 2
-58 -20 -92 -15 -96 15 -2 12 -19 30 -38 41 -29 17 -52 21 -135 21 -84 0 -107
-4 -147 -23 -26 -13 -52 -21 -58 -17 -11 7 88 58 182 96 26 10 104 30 173 44
129 27 298 76 393 114 29 11 92 27 140 35 48 8 94 17 104 21 40 16 166 23 318
19 91 -3 309 -7 485 -10z m-2352 -231 c-7 -2 -21 -2 -30 0 -10 3 -4 5 12 5 17
0 24 -2 18 -5z m77 -78 c0 -10 -11 -15 -35 -15 -41 0 -47 17 -7 23 15 2 30 5
35 6 4 0 7 -6 7 -14z m323 8 c-7 -2 -19 -2 -25 0 -7 3 -2 5 12 5 14 0 19 -2
13 -5z m-443 -13 c11 -7 4 -10 -27 -10 -23 0 -48 -3 -57 -6 -11 -4 -16 -1 -16
10 0 12 10 16 43 16 23 0 49 -5 57 -10z m-342 -7 c-10 -2 -26 -2 -35 0 -10 3
-2 5 17 5 19 0 27 -2 18 -5z m563 -30 c2 -25 7 -69 9 -78 1 -5 2 -36 1 -67 -1
-57 -1 -58 -31 -58 -16 0 -30 5 -30 10 0 6 5 10 11 10 6 0 10 30 9 83 -1 45
-1 88 -1 95 1 13 31 17 32 5z m612 0 c-7 -2 -21 -2 -30 0 -10 3 -4 5 12 5 17
0 24 -2 18 -5z m-1011 -75 c-4 -67 -5 -68 -33 -68 -36 0 -37 12 -4 34 19 13
25 25 25 55 0 31 8 58 15 49 1 -2 0 -33 -3 -70z m698 52 c0 -5 -10 -10 -22
-10 -19 0 -20 2 -8 10 19 13 30 13 30 0z m-170 -10 c-36 -11 -50 -11 -50 0 0
6 17 10 38 9 33 -1 34 -2 12 -9z m-620 -18 c0 -7 -17 -20 -37 -28 -21 -9 -46
-21 -57 -26 -10 -5 -44 -7 -75 -3 -57 6 -57 6 -53 38 l4 32 109 0 c81 0 109
-3 109 -13z m308 1 c-10 -2 -26 -2 -35 0 -10 3 -2 5 17 5 19 0 27 -2 18 -5z
m581 -150 c2 -101 -17 -72 -21 31 -2 51 -1 102 1 112 6 26 19 -66 20 -143z
m624 140 c-7 -2 -21 -2 -30 0 -10 3 -4 5 12 5 17 0 24 -2 18 -5z m-333 -19 c0
-11 -5 -14 -16 -10 -9 3 -23 6 -32 7 -10 1 -7 4 8 9 37 12 40 11 40 -6z m-150
-4 c-36 -12 -70 -12 -70 0 0 6 21 10 48 9 38 -1 42 -2 22 -9z m261 -57 c2 -57
-2 -177 -6 -181 -1 -2 -14 0 -29 4 -23 5 -24 7 -9 22 13 13 15 32 10 109 -5
87 -4 93 14 93 16 0 19 -8 20 -47z m-573 30 c-10 -2 -26 -2 -35 0 -10 3 -2 5
17 5 19 0 27 -2 18 -5z m1180 0 c-10 -2 -26 -2 -35 0 -10 3 -2 5 17 5 19 0 27
-2 18 -5z m-1508 -25 c0 -14 -8 -18 -36 -18 -19 0 -44 -5 -54 -10 -11 -6 -43
-7 -75 -4 -47 6 -55 10 -55 28 0 20 5 21 110 21 98 0 110 -2 110 -17z m1190 2
c0 -5 -10 -10 -22 -9 -22 0 -22 1 -3 9 11 5 21 9 23 9 1 1 2 -3 2 -9z m-170
-10 c-36 -11 -50 -11 -50 0 0 6 17 10 38 9 33 -1 34 -2 12 -9z m270 -66 c1
-21 2 -69 1 -106 -1 -61 -2 -66 -21 -61 -16 4 -18 8 -9 19 7 9 11 54 11 121
-1 71 2 101 7 87 5 -12 10 -39 11 -60z m-1078 -87 c538 -79 980 -146 983 -149
10 -10 -122 -264 -188 -362 -34 -51 -66 -100 -72 -109 -9 -15 -37 -12 -330 33
-176 28 -615 95 -975 150 -360 55 -665 102 -678 105 l-23 6 34 47 c35 48 146
235 211 355 20 37 42 67 49 67 7 0 452 -65 989 -143z m506 136 c-10 -2 -26 -2
-35 0 -10 3 -2 5 17 5 19 0 27 -2 18 -5z m-308 -40 c0 -38 -30 -45 -130 -31
-80 10 -90 14 -90 32 0 20 6 21 110 21 107 0 110 -1 110 -22z m1170 11 c0 -11
-5 -14 -16 -10 -9 3 -23 6 -32 7 -10 1 -7 4 8 9 37 12 40 11 40 -6z m328 9
c-10 -2 -26 -2 -35 0 -10 3 -2 5 17 5 19 0 27 -2 18 -5z m-439 -7 c-11 -10
-109 -16 -109 -6 0 6 24 10 57 10 31 0 54 -2 52 -4z m221 -62 c7 -89 0 -184
-14 -184 -6 0 -12 8 -12 18 -3 54 -5 181 -5 205 2 54 26 23 31 -39z m-567 29
c-7 -2 -21 -2 -30 0 -10 3 -4 5 12 5 17 0 24 -2 18 -5z m-333 -22 c0 -21 -19
-31 -61 -31 -16 0 -29 -5 -29 -10 0 -10 -20 -9 -102 6 -19 4 -28 12 -28 24 0
17 10 20 103 23 56 1 105 4 110 5 4 1 7 -7 7 -17z m1290 -86 c1 -16 2 -60 1
-97 -1 -56 -4 -68 -17 -68 -12 0 -15 6 -10 23 4 12 7 72 7 132 0 82 3 101 9
75 5 -19 9 -48 10 -65z m-280 75 c12 -8 9 -10 -12 -10 -16 0 -28 5 -28 10 0
13 20 13 40 0z m180 0 c0 -5 -4 -10 -9 -10 -6 0 -13 5 -16 10 -3 6 1 10 9 10
9 0 16 -4 16 -10z m-472 -17 c-10 -2 -26 -2 -35 0 -10 3 -2 5 17 5 19 0 27 -2
18 -5z m-308 -36 c0 -10 -8 -20 -17 -23 -10 -3 -28 -10 -39 -16 -20 -9 -57 -7
-136 8 -20 4 -28 12 -28 27 0 21 4 22 110 22 99 0 110 -2 110 -18z m1170 8 c0
-8 -9 -15 -20 -15 -25 0 -26 17 -2 23 9 3 18 5 20 6 1 0 2 -6 2 -14z m-131
-11 c2 -2 -10 -4 -27 -4 -16 0 -37 -3 -46 -6 -11 -4 -16 -1 -16 10 0 13 7 15
43 10 23 -4 44 -8 46 -10z m243 -56 c2 -35 1 -91 -1 -126 -3 -51 -6 -62 -19
-60 -13 3 -16 20 -14 108 1 58 2 113 2 123 0 9 6 17 14 17 10 0 15 -17 18 -62z
m-569 35 c-7 -2 -21 -2 -30 0 -10 3 -4 5 12 5 17 0 24 -2 18 -5z m-323 -25 c0
-17 -11 -28 -38 -40 -32 -15 -47 -16 -109 -6 -67 9 -73 12 -73 34 0 23 3 23
98 27 53 1 103 4 110 5 6 1 12 -8 12 -20z m1487 6 c-3 -3 -12 -4 -19 -1 -8 3
-5 6 6 6 11 1 17 -2 13 -5z m-297 -25 c0 -20 -4 -21 -57 -15 -32 4 -82 3 -110
-2 -46 -8 -53 -7 -53 8 0 14 10 16 83 12 45 -2 93 1 107 6 14 6 26 11 28 11 1
1 2 -8 2 -20z m89 -171 c1 -50 -2 -66 -11 -63 -12 5 -15 85 -7 220 2 32 3 27
9 -25 4 -36 8 -95 9 -132z m-879 127 c0 -16 -7 -28 -17 -31 -10 -3 -25 -9 -34
-14 -9 -5 -50 -4 -93 2 -70 10 -76 13 -76 34 0 23 2 24 95 22 52 -1 98 2 102
5 13 14 23 6 23 -18z m1167 -11 c-2 -2 -12 -1 -22 3 -18 6 -18 7 1 13 17 7 33
-5 21 -16z m331 19 c-10 -2 -26 -2 -35 0 -10 3 -2 5 17 5 19 0 27 -2 18 -5z
m-508 -13 c12 -8 9 -10 -12 -10 -16 0 -28 5 -28 10 0 13 20 13 40 0z m284 -7
c6 -22 10 -110 8 -180 -2 -49 -4 -53 -27 -53 -26 0 -33 14 -14 26 8 4 10 42 7
115 -3 83 -1 109 8 109 7 0 15 -8 18 -17z m-884 -38 c0 -21 -5 -25 -30 -25
-19 0 -33 -6 -37 -16 -5 -14 -16 -15 -62 -10 -90 11 -99 14 -94 41 5 22 8 23
81 18 43 -3 88 0 102 5 37 16 40 14 40 -13z m130 -164 c641 -94 1296 -189
1455 -212 160 -23 292 -43 294 -45 3 -3 -15 -32 -39 -67 -103 -148 -142 -209
-205 -319 -37 -65 -69 -118 -72 -118 -4 0 -783 119 -2316 354 -334 52 -610 96
-613 99 -3 3 24 49 61 103 36 53 95 156 131 227 77 156 80 159 113 153 14 -3
550 -82 1191 -175z m1139 19 c-5 -9 -8 22 -7 75 l1 90 7 -75 c4 -41 4 -82 -1
-90z m-237 130 c54 0 46 -6 -19 -13 -44 -5 -53 -3 -53 10 0 10 6 13 16 9 9 -3
34 -6 56 -6z m148 0 c0 -5 -12 -10 -27 -10 -22 0 -25 2 -13 10 20 13 40 13 40
0z m-467 -17 c-7 -2 -21 -2 -30 0 -10 3 -4 5 12 5 17 0 24 -2 18 -5z m857 -30
c0 -16 -12 -18 -110 -18 -77 0 -110 4 -110 12 0 8 23 10 78 6 43 -3 88 0 102
5 35 15 40 14 40 -5z m-1182 -61 c-4 -2 -52 4 -106 12 -55 9 -102 16 -106 16
-3 0 -6 6 -6 14 0 11 16 13 83 9 45 -3 93 -1 107 5 23 9 25 7 30 -22 3 -17 2
-32 -2 -34z m400 6 c-2 -16 -11 -24 -28 -26 -14 -2 -32 -10 -40 -17 -22 -18
-163 2 -156 22 4 8 6 19 6 23 0 5 44 11 98 13 53 1 103 4 110 5 9 1 12 -6 10
-20z m325 15 c-7 -2 -21 -2 -30 0 -10 3 -4 5 12 5 17 0 24 -2 18 -5z m867 -18
c0 -10 -10 -15 -32 -15 -34 0 -29 14 7 23 11 3 21 5 23 6 1 0 2 -6 2 -14z
m-289 -27 c1 -18 0 -37 -1 -43 -2 -5 -2 -36 -1 -67 1 -51 -1 -58 -18 -58 -35
0 -53 11 -40 26 6 8 9 45 7 93 l-3 81 28 0 c24 0 27 -4 28 -32z m154 22 c28
-7 28 -8 -12 -9 -23 0 -48 -4 -57 -7 -11 -4 -16 -1 -16 10 0 17 31 20 85 6z
m468 -17 c-7 -2 -21 -2 -30 0 -10 3 -4 5 12 5 17 0 24 -2 18 -5z m-825 -10
c-10 -2 -26 -2 -35 0 -10 3 -2 5 17 5 19 0 27 -2 18 -5z m-298 -40 c0 -17 -6
-23 -23 -23 -13 0 -27 -4 -32 -9 -6 -6 -39 -6 -87 1 -69 10 -78 13 -78 32 0
20 5 21 110 21 107 0 110 -1 110 -22z m76 -61 c-11 -10 -13 3 -7 43 l6 40 3
-39 c2 -21 1 -41 -2 -44z m824 14 c0 -50 9 -60 65 -71 l40 -8 -65 -13 c-36 -7
-67 -13 -70 -13 -3 -1 -5 33 -5 74 0 65 2 75 18 75 14 0 17 -9 17 -44z m-182
27 c-10 -2 -26 -2 -35 0 -10 3 -2 5 17 5 19 0 27 -2 18 -5z m472 -7 c0 -10
-21 -16 -79 -21 -84 -7 -141 0 -141 17 0 7 24 9 73 5 57 -5 115 0 145 12 1 1
2 -5 2 -13z m-812 -18 c-2 -17 -11 -24 -33 -26 -16 -2 -35 -8 -42 -14 -7 -6
-31 -7 -55 -3 -92 13 -96 15 -91 35 5 17 17 20 102 23 53 1 102 4 109 5 9 1
12 -6 10 -20z m-4088 -138 c503 -77 945 -145 983 -151 l67 -11 0 -39 c0 -21
-3 -39 -7 -39 -5 0 -453 65 -998 145 -544 80 -996 145 -1002 145 -9 0 -13 17
-13 50 0 49 1 49 28 45 15 -3 439 -68 942 -145z m5030 130 c-20 -13 -50 -13
-50 0 0 6 15 10 33 10 24 0 28 -3 17 -10z m-530 -52 c0 -14 -9 -18 -39 -18
-22 0 -44 -6 -51 -15 -9 -11 -23 -14 -49 -10 -76 13 -81 15 -81 38 0 21 3 22
110 22 98 0 110 -2 110 -17z m762 -81 c36 -45 98 -115 137 -155 39 -40 71 -77
71 -82 0 -5 12 -18 26 -29 20 -16 25 -27 22 -58 -3 -33 -7 -38 -38 -47 -19 -5
-82 -24 -140 -42 -58 -18 -160 -45 -227 -59 -67 -14 -141 -32 -164 -40 -23 -9
-43 -14 -45 -12 -5 5 -54 449 -54 493 l0 42 108 26 c109 26 194 43 223 45 9 0
45 -36 81 -82z m-482 -70 c0 -35 7 -114 15 -176 8 -62 18 -154 21 -206 l7 -93
-59 -12 c-32 -6 -106 -22 -164 -35 -86 -20 -298 -61 -422 -83 -27 -4 -28 -3
-28 41 0 38 12 66 76 178 42 73 119 195 172 271 87 124 100 138 127 139 16 0
73 8 125 18 140 28 130 31 130 -42z m-5462 9 c122 -18 224 -35 227 -38 5 -5
-58 -123 -177 -330 -56 -96 -85 -138 -98 -138 -19 0 -509 76 -548 85 -22 6
-21 8 26 63 93 108 192 246 233 324 l40 78 37 -6 c20 -3 137 -20 260 -38z
m1003 -147 l636 -93 -42 -65 c-23 -36 -57 -99 -74 -139 -58 -133 -150 -287
-169 -285 -104 14 -1297 205 -1301 208 -2 3 22 48 54 101 32 54 77 135 101
181 24 45 59 108 79 139 30 46 40 55 58 51 12 -3 308 -47 658 -98z m1304 -39
c2031 -308 2420 -370 2433 -387 17 -24 15 -43 -5 -43 -10 1 -670 96 -1468 213
l-1450 213 -3 41 c-3 36 -1 41 15 37 10 -2 225 -35 478 -74z m925 -286 c817
-119 1489 -220 1494 -225 5 -4 -18 -47 -53 -98 -33 -50 -86 -137 -117 -193
-31 -57 -74 -131 -96 -165 -35 -55 -43 -62 -66 -57 -15 2 -668 106 -1452 229
-784 124 -1439 228 -1456 231 l-31 6 92 183 c103 207 163 305 185 305 8 0 683
-97 1500 -216z m3023 54 c24 -24 74 -79 112 -123 37 -44 96 -109 130 -145 76
-79 87 -106 50 -120 -14 -5 -38 -10 -52 -10 -15 0 -72 -15 -127 -34 -151 -50
-305 -94 -358 -102 l-48 -6 -2 148 c-2 82 -2 196 -1 254 l2 104 38 14 c46 16
195 61 205 61 4 1 27 -18 51 -41z m-377 -545 c-2 -2 -44 3 -92 13 -57 10 -112
14 -151 11 l-63 -6 0 87 c0 48 -3 137 -6 197 l-7 110 64 19 c35 11 107 29 159
41 l95 22 3 -245 c1 -135 1 -247 -2 -249z m-6226 427 c146 -23 273 -44 283
-46 15 -5 26 -44 11 -44 -3 0 -124 20 -270 45 -145 25 -278 47 -294 48 -23 2
-30 7 -30 24 0 15 5 20 18 17 9 -2 136 -22 282 -44z m5834 -82 c3 -29 8 -124
12 -210 l6 -157 -149 -46 c-81 -26 -156 -49 -165 -51 -17 -5 -18 10 -18 223
l0 228 143 32 c78 17 147 32 154 32 7 1 14 -20 17 -51z m-4762 -88 c350 -55
640 -100 646 -100 9 0 24 -51 17 -58 -2 -2 -308 47 -679 110 -669 112 -676
113 -676 136 0 20 4 23 28 18 15 -3 313 -51 664 -106z m-362 -66 c520 -86 948
-160 953 -164 8 -7 -107 -223 -159 -300 -17 -25 -52 -82 -78 -127 -26 -46 -48
-83 -49 -83 -15 0 -1991 351 -1995 354 -2 3 37 50 86 106 102 113 170 210 208
297 33 74 43 85 68 80 12 -3 446 -76 966 -163z m4730 -88 c0 -117 3 -240 6
-273 l7 -61 -59 -16 c-33 -9 -127 -41 -210 -72 -99 -36 -183 -60 -246 -69 -52
-8 -103 -17 -112 -21 -13 -5 -16 1 -16 40 0 38 7 58 40 106 22 33 67 108 99
167 32 60 91 158 132 220 41 61 79 118 84 127 6 10 53 24 130 40 66 14 126 25
133 25 9 1 12 -48 12 -213z m-2158 -194 c791 -126 1440 -230 1442 -233 3 -3 8
-23 12 -45 l6 -41 -973 164 c-536 90 -1194 200 -1464 246 l-490 82 -3 28 c-3
21 1 27 15 27 10 -1 665 -103 1455 -228z m3729 91 c52 -54 201 -224 221 -251
7 -10 28 -29 46 -42 22 -16 32 -32 32 -50 0 -22 -7 -28 -52 -44 -29 -10 -98
-37 -153 -61 -55 -23 -110 -46 -122 -50 -13 -3 -23 -11 -23 -16 0 -5 -19 -9
-42 -9 -24 0 -74 -12 -113 -26 -125 -46 -109 -78 -122 251 -7 180 -15 291 -22
298 -14 14 86 53 184 70 81 15 88 12 166 -70z m-4671 -82 c294 -50 940 -158
1435 -241 495 -83 910 -153 923 -155 23 -6 23 -7 -24 -93 -26 -48 -64 -114
-84 -147 -20 -33 -67 -115 -104 -182 -38 -70 -72 -120 -79 -118 -7 2 -671 120
-1477 261 -806 141 -1467 258 -1468 260 -3 2 76 139 147 254 15 25 54 93 87
153 54 99 61 107 84 102 14 -2 266 -45 560 -94z m4264 -63 c5 -122 10 -418 7
-440 -1 -4 -59 13 -130 38 -71 24 -145 44 -164 44 -32 0 -35 3 -41 38 -3 20
-6 112 -6 204 0 192 -7 179 104 199 38 6 100 22 140 34 39 13 74 23 77 24 4 1
9 -63 13 -141z m-461 81 l57 -12 0 -217 0 -217 -102 -36 c-57 -20 -168 -52
-248 -71 -141 -33 -329 -87 -566 -162 -63 -20 -118 -34 -121 -31 -3 3 -6 95
-7 204 l-1 198 105 37 c58 20 130 44 161 52 75 21 109 49 109 89 l0 32 133 39
c72 22 175 54 227 72 103 35 163 41 253 23z m-5760 -320 l987 -174 0 -28 c0
-23 -3 -27 -22 -22 -38 9 -1985 355 -1997 355 -6 0 -11 12 -11 26 0 23 3 26
28 21 15 -2 471 -83 1015 -178z m-496 -42 c7 -8 -90 -190 -144 -269 -27 -40
-71 -110 -97 -156 -36 -61 -52 -81 -65 -78 -9 3 -142 28 -296 57 -154 29 -282
53 -284 55 -4 3 71 103 135 179 22 28 70 95 104 150 35 55 74 114 86 131 l24
31 266 -48 c146 -26 268 -50 271 -52z m768 -133 c363 -65 664 -121 669 -125 5
-5 -10 -38 -37 -77 -25 -38 -61 -100 -80 -138 -19 -38 -67 -117 -106 -177 -39
-59 -71 -112 -71 -117 0 -6 -10 -8 -22 -5 -13 3 -311 59 -663 125 -352 67
-646 123 -653 125 -16 6 18 69 108 205 64 97 95 149 140 238 17 34 37 62 43
62 7 0 309 -52 672 -116z m4428 -126 c3 -133 5 -244 3 -246 -2 -2 -71 -27
-152 -57 -82 -29 -174 -62 -204 -73 -86 -32 -245 -82 -258 -82 -18 0 -14 49 6
78 10 15 46 77 80 137 123 223 230 410 244 425 16 18 152 49 259 59 14 1 17
-28 22 -241z m2258 175 c86 -91 319 -362 319 -372 0 -11 -90 -41 -121 -41 -10
0 -20 -4 -23 -9 -9 -13 -161 -67 -320 -112 -111 -32 -141 -38 -147 -27 -7 10
-12 518 -6 518 1 0 52 20 112 45 61 25 117 45 125 45 9 0 36 -21 61 -47z
m-4386 -327 l1430 -252 0 -29 c0 -26 -3 -30 -25 -27 -14 2 -673 119 -1465 261
l-1440 257 -3 28 c-3 27 -3 28 35 21 21 -3 682 -120 1468 -259z m3515 214
c181 -66 160 -35 160 -240 l0 -176 -217 -54 c-120 -29 -308 -82 -418 -116
-110 -35 -205 -64 -211 -64 -7 0 -13 76 -17 238 -4 130 -10 255 -13 277 l-6
40 138 34 c76 19 188 51 248 73 138 48 176 47 336 -12z m499 -239 c1 -203 -1
-242 -13 -238 -65 25 -157 47 -197 47 l-49 0 0 134 c0 73 -3 160 -6 193 l-7
60 109 35 c137 45 147 47 156 28 4 -8 7 -125 7 -259z m-4084 -96 c787 -140
1445 -258 1463 -261 17 -4 32 -11 32 -16 0 -15 -74 -138 -208 -346 -107 -167
-128 -193 -146 -189 -11 3 -669 128 -1461 277 -792 149 -1446 273 -1452 275
-8 3 10 40 52 103 36 55 86 140 112 188 26 49 64 114 85 145 21 31 38 64 38
74 0 13 6 15 28 11 15 -3 671 -121 1457 -261z m2793 168 c6 -27 14 -152 17
-280 l7 -231 -84 -25 c-71 -22 -280 -81 -681 -193 -48 -13 -92 -24 -97 -24 -6
0 -10 41 -10 93 -1 50 -5 124 -10 162 -5 39 -12 93 -16 121 l-6 51 43 18 c24
9 95 35 158 56 144 49 159 59 167 109 l7 40 156 49 c217 69 314 99 328 100 6
1 16 -20 21 -46z m-6393 -157 c158 -30 288 -56 290 -58 1 -2 5 -16 9 -31 6
-24 4 -28 -11 -24 -10 3 -147 29 -305 58 l-288 53 0 28 c0 15 4 28 9 28 5 0
139 -25 296 -54z m8400 -44 c17 -11 66 -59 110 -108 44 -49 114 -128 157 -176
66 -73 78 -92 78 -121 0 -59 -4 -61 -480 -187 -58 -15 -107 -26 -110 -23 -3 2
-7 122 -8 266 -2 144 -8 267 -13 273 -7 8 26 23 108 52 65 22 120 40 123 41 3
1 19 -7 35 -17z m-7365 -152 c349 -66 645 -122 658 -125 15 -4 22 -13 22 -30
0 -14 -5 -25 -12 -25 -10 0 -1311 242 -1314 244 -1 1 -4 13 -8 29 -4 19 -2 27
6 27 7 0 299 -54 648 -120z m-303 -75 l952 -179 -31 -56 c-18 -30 -57 -93 -88
-140 -31 -47 -76 -122 -100 -167 -24 -45 -53 -94 -65 -109 l-23 -28 -978 198
c-539 110 -983 203 -988 207 -5 5 8 27 30 51 56 60 91 115 169 258 37 69 71
130 76 136 5 6 28 10 51 9 24 -1 471 -82 995 -180z m7343 -115 c0 -222 -2
-260 -15 -260 -8 0 -49 14 -92 31 -49 20 -103 33 -145 37 l-68 5 0 177 0 177
158 45 c86 25 158 46 160 47 1 1 2 -116 2 -259z m-635 210 c50 -5 122 -20 160
-33 l70 -24 6 -64 c4 -35 7 -109 8 -164 l1 -101 -32 -11 c-18 -6 -104 -32
-191 -58 -87 -26 -204 -64 -260 -85 -155 -58 -152 -58 -154 -13 -14 248 -23
476 -20 480 4 3 295 79 317 82 3 0 46 -4 95 -9z m-1987 -112 c7 -51 16 -177
19 -280 l6 -187 -54 -15 c-30 -8 -81 -20 -114 -27 -33 -6 -96 -25 -140 -41
-44 -16 -141 -47 -215 -67 -74 -21 -143 -42 -152 -46 -35 -14 -17 22 95 195
153 237 219 345 255 417 l31 60 123 41 c68 23 125 41 128 41 3 1 11 -41 18
-91z m1507 -181 c8 -221 14 -285 31 -301 17 -17 13 -19 -286 -101 -221 -61
-292 -82 -499 -144 -74 -22 -138 -38 -141 -36 -4 2 -10 80 -14 172 -4 92 -11
200 -15 238 -4 39 -6 77 -4 85 3 10 67 33 196 69 106 29 300 89 433 131 288
93 277 91 287 67 4 -10 9 -91 12 -180z m-3690 -150 l1440 -273 0 -25 c0 -16
-5 -23 -15 -22 -26 4 -2854 534 -2877 540 -29 7 -33 53 -5 53 9 0 665 -123
1457 -273z m-37 -122 c807 -152 1470 -277 1474 -278 7 -2 -82 -163 -145 -262
-21 -33 -66 -107 -100 -165 -39 -65 -69 -106 -81 -108 -20 -4 -2896 577 -2907
587 -8 7 98 197 167 301 28 41 66 103 85 138 18 34 35 62 37 62 2 0 664 -124
1470 -275z m2725 128 c14 -114 30 -454 21 -462 -5 -4 -85 -27 -177 -50 -93
-23 -267 -73 -387 -111 -120 -39 -226 -70 -234 -70 -14 0 -16 24 -16 194 l0
193 44 17 c24 9 80 24 126 32 45 9 99 22 119 29 25 9 43 10 55 3 34 -19 48 9
44 86 l-3 69 55 19 c45 16 320 94 341 97 4 1 9 -20 12 -46z m-5612 -203 c541
-110 990 -202 997 -205 6 -2 12 -16 12 -30 0 -20 -4 -25 -17 -21 -10 3 -454
96 -988 206 -533 110 -978 203 -987 206 -18 5 -26 44 -9 44 4 0 451 -90 992
-200z m8303 80 c60 -432 44 -846 -50 -1310 -57 -282 -129 -557 -183 -701 -27
-74 -64 -174 -82 -224 -38 -107 -143 -313 -147 -290 -2 9 1 21 6 28 6 7 33 59
62 116 60 119 91 215 149 456 23 94 57 224 75 290 78 276 128 624 147 1018 10
220 6 379 -17 586 -12 108 -12 136 -2 142 21 13 27 -3 42 -111z m-948 80 c7
-7 27 -7 62 1 55 11 109 1 204 -40 l43 -18 -100 -32 c-55 -17 -226 -67 -380
-112 -154 -45 -338 -99 -410 -121 -71 -21 -299 -81 -505 -132 -206 -52 -602
-157 -880 -234 -278 -77 -517 -144 -532 -147 -28 -7 -28 -7 -28 47 l0 53 263
82 c144 46 343 103 442 127 99 25 257 68 350 97 94 28 312 91 485 139 173 49
374 110 445 135 108 40 269 92 465 152 47 14 64 15 76 3z m825 -36 c26 -162
32 -289 26 -555 -3 -156 -13 -338 -21 -404 -8 -66 -19 -156 -25 -200 -19 -156
-52 -332 -87 -454 -20 -69 -48 -179 -64 -245 -69 -301 -146 -536 -169 -522 -5
4 -10 128 -10 289 -2 302 -11 561 -37 992 -10 157 -17 431 -18 654 l-1 384 50
13 c28 7 113 31 190 53 77 21 144 38 150 37 5 -2 13 -20 16 -42z m-491 -201
c0 -60 3 -191 6 -293 l7 -185 -133 -44 c-107 -35 -134 -41 -141 -30 -5 8 -9
17 -9 20 0 21 -46 14 -164 -24 l-133 -44 -7 221 c-5 122 -9 242 -10 268 -2 35
1 48 13 51 189 54 546 159 550 162 16 17 21 -8 21 -102z m-8004 17 c186 -38
338 -70 338 -70 1 0 1 -28 2 -62 0 -35 6 -161 13 -281 7 -120 11 -220 9 -222
-2 -2 -32 2 -68 10 -36 7 -91 18 -122 25 l-58 11 0 82 c0 116 -31 460 -43 475
-5 6 -17 12 -27 12 -37 0 -39 -19 -20 -240 13 -147 22 -400 30 -805 6 -324 15
-660 21 -745 5 -85 14 -220 19 -300 5 -80 11 -173 14 -208 4 -62 3 -63 -15
-46 -58 52 -188 408 -264 719 -26 105 -65 253 -87 330 -22 77 -50 194 -63 260
-46 240 -50 298 -48 713 2 217 5 398 9 403 3 5 9 9 13 9 5 0 161 -31 347 -70z
m-423 -910 c31 -184 55 -297 96 -436 22 -78 54 -199 71 -270 69 -289 134 -487
228 -689 44 -96 76 -152 102 -177 20 -20 40 -48 42 -62 7 -34 1 -31 -46 21
-67 75 -174 313 -274 608 -77 228 -102 317 -156 570 -36 165 -72 361 -81 435
-21 176 -30 533 -19 735 9 153 9 143 15 -240 5 -293 11 -425 22 -495z m5489
565 l3 -276 -35 -9 c-19 -5 -82 -21 -140 -35 -58 -14 -141 -37 -185 -50 -44
-13 -120 -36 -170 -50 -49 -15 -98 -29 -107 -31 -29 -9 -22 47 13 102 35 55
141 234 220 369 84 145 98 165 127 177 26 11 249 76 264 77 4 1 9 -123 10
-274z m-3984 120 c359 -74 654 -135 655 -135 1 0 2 -30 2 -67 1 -38 7 -161 14
-276 8 -114 11 -210 8 -213 -3 -3 -301 55 -664 128 l-658 133 -2 75 c-4 103
-23 405 -30 458 -4 33 -2 41 8 37 8 -2 308 -65 667 -140z m6274 -229 l3 -189
-185 -52 c-102 -29 -210 -62 -240 -74 -30 -13 -92 -36 -137 -51 l-83 -28 0 21
c-1 83 -23 334 -35 392 -8 38 -15 87 -15 107 0 33 4 38 28 44 162 37 406 104
572 158 l75 24 7 -81 c4 -45 9 -167 10 -271z m-4487 -6 c787 -160 1438 -293
1448 -296 11 -4 17 -15 17 -36 0 -26 -3 -30 -22 -26 -13 2 -672 139 -1465 304
l-1443 299 0 26 c0 21 4 26 18 23 9 -2 661 -135 1447 -294z m3715 129 c0 -11
9 -64 19 -117 11 -54 22 -158 26 -232 3 -74 8 -146 11 -160 4 -25 1 -27 -138
-68 -79 -24 -146 -43 -149 -42 -10 0 -18 154 -21 375 l-3 199 120 32 c147 39
135 38 135 13z m-4069 -191 l687 -142 8 -85 c6 -74 7 -463 1 -466 -1 -1 -306
61 -677 136 -371 76 -678 138 -682 139 -3 0 -9 37 -12 83 -21 307 -27 378 -32
425 -5 41 -4 52 7 52 8 0 323 -64 700 -142z m3739 95 c0 -16 9 -386 20 -823
11 -437 20 -808 20 -825 l0 -30 -20 25 c-10 13 -18 38 -18 55 0 116 -14 573
-22 680 -5 72 -14 198 -20 280 -6 83 -18 219 -26 302 -11 109 -12 158 -4 172
7 14 7 27 -2 46 -10 23 -17 26 -44 22 -17 -3 -37 0 -42 5 -8 8 -22 7 -49 -5
-36 -16 -275 -94 -358 -116 -22 -6 -118 -29 -213 -51 -95 -22 -259 -67 -365
-100 -105 -34 -214 -64 -240 -67 -76 -9 -78 -19 -56 -258 14 -150 19 -296 19
-585 2 -559 17 -1319 37 -1835 21 -528 20 -755 -2 -755 -12 0 -15 17 -15 83 0
45 -20 836 -45 1757 -24 921 -43 1675 -42 1676 15 10 310 74 324 70 11 -3 262
61 574 148 304 85 562 155 572 155 12 1 17 -7 17 -26z m-126 -513 c31 -384 35
-458 41 -685 3 -126 8 -273 11 -325 l5 -95 -60 -27 c-34 -14 -63 -22 -67 -17
-10 16 -57 10 -89 -13 -59 -40 -80 -83 -84 -171 -2 -44 2 -98 9 -123 14 -48
58 -94 91 -94 11 0 30 -9 42 -21 29 -28 60 -39 107 -39 33 0 40 -4 44 -22 3
-13 12 -133 21 -268 13 -190 16 -331 12 -629 l-4 -383 -618 -204 c-340 -112
-622 -201 -628 -197 -5 3 -6 44 -2 97 7 86 -3 433 -26 966 -5 129 -10 285 -10
345 -1 538 -22 1612 -34 1739 -8 82 -15 153 -15 157 0 5 33 18 73 30 39 11
149 45 242 74 94 30 244 70 335 90 146 33 459 124 544 159 l31 13 6 -81 c4
-45 14 -169 23 -276z m1890 308 c9 -94 25 -442 20 -447 -10 -11 -179 -72 -213
-77 l-37 -6 -12 159 c-7 87 -15 201 -18 253 l-6 95 118 37 c66 20 124 37 131
37 7 1 14 -20 17 -51z m-340 -40 c32 -336 55 -890 41 -1029 l-7 -74 -181 -57
c-100 -31 -220 -68 -267 -82 -47 -13 -134 -40 -195 -59 -60 -19 -122 -37 -136
-40 l-26 -7 -11 183 c-7 100 -12 260 -11 354 0 95 -2 176 -5 181 -3 5 -6 103
-7 218 l-1 209 93 37 c93 36 380 118 429 122 14 2 34 8 45 15 18 10 209 78
227 80 4 1 9 -23 12 -51z m-7438 -18 c55 -11 115 -24 134 -29 19 -5 101 -22
181 -37 l147 -28 7 -259 c4 -142 6 -260 3 -262 -2 -2 -132 28 -289 68 l-286
71 -7 66 c-9 100 -7 430 3 430 5 0 53 -9 107 -20z m3569 -100 c270 -56 497
-103 505 -105 13 -4 15 -41 12 -272 -2 -147 -5 -269 -6 -270 -2 -2 -930 183
-1011 202 -19 4 -20 12 -20 279 0 240 2 275 15 271 8 -2 236 -49 505 -105z
m-2515 -114 l455 -92 7 -85 c3 -46 10 -176 14 -288 l7 -204 -23 6 c-13 3 -236
58 -494 122 l-471 116 0 82 c0 45 -4 164 -8 265 l-8 183 33 -6 c18 -4 238 -48
488 -99z m3408 -400 l-3 -79 -102 -23 c-56 -12 -122 -31 -147 -42 l-44 -20 -6
21 c-3 12 -3 145 1 294 5 237 8 273 22 277 9 3 63 18 121 35 58 16 114 31 125
33 19 3 20 -4 28 -207 4 -115 6 -246 5 -289z m2101 93 l1 -236 -67 -21 c-179
-55 -347 -102 -364 -102 -17 0 -19 8 -19 88 0 49 -3 170 -7 268 l-6 180 59 17
c32 10 133 39 224 65 l165 48 7 -35 c4 -20 7 -142 7 -272z m-4682 138 c8 -9
15 -587 7 -587 -5 0 -67 15 -139 33 l-130 33 -6 160 c-4 87 -12 214 -18 282
-6 68 -9 127 -6 132 4 6 283 -44 292 -53z m790 -158 c384 -78 700 -142 701
-144 4 -4 19 -217 30 -435 6 -116 6 -170 -2 -182 -8 -14 -7 -24 3 -40 20 -32
40 -384 41 -718 1 -151 5 -315 10 -365 4 -49 5 -93 1 -96 -5 -5 -184 37 -1008
238 -123 30 -193 51 -193 59 0 26 53 135 64 131 160 -57 409 -132 501 -151
282 -59 353 -77 412 -100 71 -29 106 -33 147 -17 l29 12 -8 82 c-4 45 -9 269
-10 497 -3 387 -20 947 -31 997 -5 27 -44 38 -163 47 -46 4 -150 23 -230 42
-80 20 -177 40 -216 44 -122 15 -245 46 -420 105 -123 42 -190 59 -241 63 -81
5 -88 0 -90 -63 0 -22 -8 -56 -16 -75 l-16 -35 -1 85 c-1 47 -4 102 -7 123 -4
23 -3 37 4 37 6 0 325 -63 709 -141z m5150 -199 l8 -235 -130 -42 c-71 -24
-133 -43 -137 -43 -5 0 -8 114 -8 253 l0 252 123 40 c104 34 123 38 129 25 4
-8 11 -121 15 -250z m-5687 181 c0 -3 -9 -28 -19 -56 -16 -42 -23 -50 -42 -47
-13 1 -25 4 -27 7 -2 2 7 28 21 59 21 46 29 54 46 49 12 -3 21 -8 21 -12z
m-1988 -325 c-1 -148 -4 -271 -7 -274 -2 -3 -56 5 -118 18 l-114 23 -7 135
c-3 74 -6 201 -6 282 l0 148 126 -32 127 -32 -1 -268z m2236 116 c14 -761 24
-1136 31 -1155 7 -18 24 -25 95 -40 139 -28 136 -26 136 -97 0 -33 -3 -60 -7
-60 -19 0 -289 94 -300 104 -13 12 -29 195 -38 436 -3 85 -12 301 -20 480 -8
179 -15 366 -15 417 l0 92 58 -20 57 -19 3 -138z m-1532 -22 c333 -82 623
-154 644 -160 l40 -11 0 -249 c0 -138 -1 -250 -2 -250 -2 1 -295 63 -653 139
l-650 137 -3 272 c-1 187 1 272 8 272 6 0 283 -67 616 -150z m1354 -235 c22
-638 30 -797 40 -898 9 -93 9 -106 -9 -140 l-19 -37 -6 92 c-4 51 -11 149 -16
218 -24 295 -39 1074 -23 1116 14 38 21 -36 33 -351z m1405 295 c61 -13 113
-26 117 -29 8 -7 33 -570 25 -577 -6 -6 -249 36 -259 45 -4 3 -12 98 -17 211
-6 113 -13 245 -16 294 -6 88 -6 88 17 83 13 -3 73 -15 133 -27z m-797 5 c45
-8 86 -16 91 -19 19 -12 203 -48 284 -56 49 -5 91 -11 94 -14 8 -8 17 -252 9
-245 -3 3 -6 42 -7 86 -1 44 -5 86 -9 93 -9 15 -109 34 -308 60 -147 19 -155
19 -184 3 l-30 -18 6 -80 c3 -44 6 -169 6 -277 l0 -197 30 -16 c16 -8 40 -15
54 -15 57 0 124 -21 129 -41 6 -21 51 -27 62 -8 4 6 14 7 24 3 9 -3 33 -6 53
-5 21 1 62 -5 92 -14 80 -23 94 -13 99 73 2 46 4 32 5 -45 2 -103 0 -113 -16
-113 -10 0 -23 -5 -29 -11 -7 -7 -44 -3 -128 16 -65 14 -154 30 -197 35 -44 5
-89 12 -100 16 -45 14 -48 -1 -48 -285 0 -146 4 -271 8 -278 15 -24 66 -37
352 -89 52 -9 101 -21 107 -27 7 -5 24 -7 37 -3 23 6 24 3 28 -47 2 -28 3 -53
3 -55 -1 -1 -38 11 -81 26 -76 28 -113 37 -394 98 -69 15 -127 28 -129 30 -4
4 -18 543 -27 1047 -6 311 -5 370 7 378 18 11 10 11 107 -6z m-732 -23 c8 -5
13 -139 17 -427 4 -231 13 -505 21 -610 21 -271 29 -425 23 -425 -3 0 -17 4
-30 9 l-24 9 -7 379 c-4 208 -13 473 -21 588 -8 116 -16 272 -19 348 -5 124
-4 137 12 137 9 0 22 -4 28 -8z m2005 -187 c4 -61 7 -190 8 -289 l1 -178 -27
5 c-16 3 -74 13 -130 23 l-101 17 -7 106 c-11 180 -23 466 -19 472 2 3 63 -6
136 -20 l133 -27 6 -109z m393 -146 l6 -286 -26 5 c-14 3 -79 -12 -150 -33
-68 -21 -127 -35 -131 -32 -4 4 -9 131 -11 283 -4 260 -4 276 14 289 28 22
169 65 212 65 20 0 44 5 52 10 10 6 17 5 21 -3 3 -7 9 -141 13 -298z m2086
224 c1 -49 20 -376 26 -429 l6 -62 -58 -22 c-33 -12 -136 -48 -230 -80 l-172
-58 -6 77 c-3 42 -7 164 -7 271 l-2 194 94 28 c52 15 143 42 204 59 60 16 111
32 114 35 11 11 31 2 31 -13z m-4810 -157 l135 -34 12 -168 c6 -93 11 -204 12
-247 1 -70 -1 -78 -16 -73 -10 2 -78 17 -150 32 l-133 27 0 151 c0 83 -3 195
-7 249 -3 56 -2 97 3 97 5 -1 70 -16 144 -34z m6080 -321 c0 -227 -2 -273 -14
-269 -7 3 -37 -4 -67 -16 -30 -11 -117 -36 -194 -56 -77 -19 -180 -47 -228
-61 -49 -13 -91 -23 -93 -20 -3 2 -9 74 -15 158 -5 85 -14 196 -20 247 -6 52
-9 95 -7 96 10 8 312 106 353 116 28 6 95 26 150 45 55 19 108 35 118 35 16 0
17 -20 17 -275z m-4533 98 c-2 -32 -3 -8 -3 52 0 61 1 87 3 58 2 -29 2 -78 0
-110z m-1308 -187 c0 -66 -1 -117 -3 -115 -2 2 -5 87 -8 189 -3 102 -2 154 2
115 4 -38 8 -124 9 -189z m-1801 174 c9 0 12 -56 12 -246 0 -229 -1 -245 -17
-240 -57 18 -228 54 -235 50 -4 -3 -8 10 -8 28 0 40 -17 294 -26 394 l-6 72
133 -29 c74 -16 140 -29 147 -29z m727 -155 c330 -70 607 -128 616 -131 14 -4
18 -29 24 -167 4 -89 10 -208 14 -264 3 -57 3 -103 -1 -103 -6 0 -1239 297
-1270 306 -17 5 -18 26 -18 250 0 229 1 245 18 240 9 -3 287 -62 617 -131z
m6209 63 c11 -106 25 -320 26 -385 l0 -61 -102 -32 c-132 -40 -371 -118 -668
-219 -129 -44 -235 -79 -236 -78 -1 1 -5 125 -9 275 l-7 272 24 0 c25 0 267
76 403 127 44 17 136 45 205 64 69 18 166 47 215 65 50 18 102 33 116 34 25 0
27 -3 33 -62z m-3306 -87 c150 -27 275 -50 277 -52 2 -2 8 -105 14 -229 6
-124 14 -254 18 -289 l6 -63 -44 7 c-24 4 -69 16 -99 26 -57 19 -438 109 -463
109 -11 0 -15 37 -20 208 -4 114 -10 237 -13 275 l-7 67 29 -6 c16 -3 152 -27
302 -53z m662 7 c2 -16 29 -1024 29 -1083 l0 -80 -127 -43 c-70 -24 -134 -46
-143 -49 -15 -4 -18 11 -24 129 -3 73 -5 198 -3 277 l3 144 132 44 c102 34
134 49 139 65 4 13 0 26 -10 36 -15 15 -26 13 -138 -26 -120 -40 -123 -41
-130 -21 -5 11 -12 109 -18 217 -5 109 -12 220 -14 247 l-4 51 146 46 c149 46
162 50 162 46z m-2704 -165 l131 -27 6 -156 c4 -85 7 -207 7 -271 l0 -117
-140 35 c-77 20 -138 39 -135 42 4 8 -11 331 -21 446 -5 61 -4 75 7 75 8 0 73
-12 145 -27z m227 -303 c2 -162 1 -272 -3 -245 -8 48 -14 553 -6 544 2 -2 6
-137 9 -299z m1247 210 c0 -5 -7 -7 -15 -4 -8 4 -15 8 -15 10 0 2 7 4 15 4 8
0 15 -4 15 -10z m4580 -258 l0 -267 -42 -19 c-111 -49 -210 -78 -374 -110
-251 -49 -408 -88 -561 -140 l-132 -44 -5 51 c-3 29 -10 124 -16 212 -6 88
-13 178 -16 200 l-6 41 183 58 c270 86 301 94 327 85 17 -6 27 -4 43 12 27 27
43 33 279 94 113 30 230 63 260 74 30 11 56 20 58 20 1 1 2 -119 2 -267z
m-7569 107 l295 -72 13 -264 c7 -146 10 -267 7 -270 -6 -6 -88 10 -166 33 -25
7 -134 34 -242 59 -109 26 -198 47 -199 48 0 1 -6 122 -12 270 -8 177 -9 267
-2 267 6 0 143 -32 306 -71z m5814 -628 c9 -353 14 -648 12 -655 -3 -7 -15
-16 -26 -19 l-21 -5 0 426 c0 381 -7 569 -29 797 -6 67 -5 71 19 86 14 9 26
16 27 15 1 -1 9 -291 18 -645z m-4710 360 l200 -48 -3 -59 c-1 -33 4 -122 13
-199 19 -176 20 -289 3 -282 -7 2 -216 53 -465 112 l-451 109 -5 35 c-3 20 -9
142 -13 272 l-7 237 264 -64 c145 -36 354 -86 464 -113z m2347 64 c84 -19 198
-48 253 -64 55 -16 117 -32 137 -36 l37 -6 3 -274 c2 -208 0 -275 -9 -275 -6
0 -141 31 -300 70 -158 38 -291 70 -294 70 -8 0 -29 316 -29 443 0 129 -18
122 202 72z m2902 -62 c3 -32 11 -132 16 -223 6 -91 12 -177 15 -192 4 -27 2
-28 -113 -63 -64 -19 -172 -55 -238 -80 -67 -25 -124 -45 -127 -45 -12 0 -16
59 -18 274 l-3 228 218 73 c120 41 220 76 224 79 14 15 20 2 26 -51z m-3364
12 c0 -8 -7 -15 -16 -15 -14 0 -14 3 -4 15 7 8 14 15 16 15 2 0 4 -7 4 -15z
m-1017 -224 c312 -76 569 -140 571 -142 5 -5 -11 -384 -20 -465 l-6 -60 -551
133 c-302 73 -551 134 -552 135 -4 5 -26 303 -32 426 -5 91 -3 112 8 112 8 0
269 -63 582 -139z m5597 -163 c0 -101 3 -199 6 -218 l5 -35 -208 -72 c-114
-39 -911 -317 -1771 -618 -860 -301 -1565 -545 -1567 -543 -12 11 -24 166 -30
363 l-7 220 133 47 c73 26 134 47 135 45 1 -1 5 -83 9 -182 8 -219 9 -225 39
-225 28 0 1542 496 1572 515 20 13 20 19 16 202 l-5 189 124 46 c68 25 178 62
244 83 66 20 210 65 320 100 246 79 273 85 565 145 164 33 261 58 320 83 47
19 88 36 93 36 4 1 7 -81 7 -181z m-7671 51 l171 -41 1 -76 c1 -43 4 -157 8
-255 3 -97 5 -177 3 -177 -1 0 -76 18 -165 41 l-163 40 -17 212 c-10 117 -21
231 -24 255 -3 25 -1 42 5 42 5 0 87 -18 181 -41z m3317 -189 c318 -78 600
-145 627 -151 l47 -11 1 -86 c0 -48 6 -168 13 -267 7 -99 12 -182 10 -183 -1
-2 -298 68 -660 155 l-657 158 7 120 c3 66 9 184 13 263 3 78 9 142 13 142 4
0 267 -63 586 -140z m-2476 -14 l595 -143 3 -263 c2 -247 1 -262 -15 -258
-626 157 -1150 294 -1156 302 -4 6 -7 47 -6 91 1 44 -1 91 -4 105 -5 22 -17
310 -14 310 1 0 270 -65 597 -144z m3514 -58 c3 -13 7 -134 10 -270 l5 -247
-42 -15 c-23 -9 -85 -31 -137 -50 -51 -20 -95 -34 -96 -33 -4 3 -34 445 -34
492 l0 42 138 50 c75 28 140 52 144 52 4 1 10 -9 12 -21z m-2124 -277 l695
-168 -3 -268 c-1 -148 -4 -270 -5 -272 -4 -4 -1381 349 -1389 356 -4 3 -10
122 -14 264 -6 218 -5 257 7 257 8 -1 327 -76 709 -169z m1270 -306 c263 -63
487 -115 498 -115 24 0 27 -31 37 -302 3 -87 8 -184 11 -217 l7 -60 -469 120
c-258 66 -498 127 -533 136 l-64 16 7 75 c3 41 6 162 6 269 0 140 3 193 12
193 6 0 226 -52 488 -115z m3049 39 c-87 -92 -334 -295 -449 -371 -41 -27 -89
-58 -105 -69 -116 -79 -488 -277 -640 -339 -181 -74 -558 -195 -722 -230 -450
-98 -507 -105 -879 -105 -301 -1 -423 9 -710 54 -492 78 -794 164 -1149 328
-71 33 -163 73 -204 90 -92 36 -134 60 -291 165 -201 134 -251 170 -294 211
-23 22 -68 58 -102 80 -60 40 -214 184 -214 200 0 5 27 2 60 -7 43 -11 60 -20
60 -32 0 -22 87 -100 175 -157 39 -25 114 -75 168 -111 54 -36 120 -79 145
-95 26 -16 103 -67 172 -112 69 -45 158 -98 198 -118 112 -56 363 -159 502
-204 126 -42 627 -149 805 -172 131 -17 403 -30 797 -37 l347 -6 188 43 c320
72 462 109 557 146 83 33 173 63 389 130 96 30 440 196 522 251 33 22 80 51
105 63 47 23 134 85 185 131 17 15 68 53 115 84 47 31 99 71 116 88 16 18 47
47 67 65 20 18 37 36 37 41 0 7 50 27 74 30 6 1 -6 -15 -25 -35z m-4559 -284
c498 -127 919 -236 935 -243 17 -6 34 -11 38 -9 4 1 264 -63 577 -143 l570
-146 947 332 c1391 486 1293 453 1258 423 -16 -14 -62 -47 -101 -73 -39 -27
-101 -74 -137 -104 -37 -31 -86 -66 -109 -78 -24 -12 -81 -46 -127 -76 -139
-90 -436 -225 -601 -273 -80 -24 -199 -64 -265 -91 -115 -46 -217 -73 -575
-154 l-165 -38 -270 -1 c-301 -1 -698 17 -878 40 -200 25 -660 122 -804 170
-140 46 -456 178 -532 221 -25 15 -80 50 -121 78 -41 28 -104 69 -140 90 -36
21 -101 64 -145 96 -44 31 -120 82 -170 113 -49 31 -105 69 -124 86 l-34 29
34 -9 c19 -5 441 -113 939 -240z"/>
<path d="M10119 15710 c-80 -28 -174 -53 -207 -56 -72 -8 -90 -23 -73 -60 7
-16 11 -99 11 -236 0 -196 1 -213 21 -244 12 -20 29 -34 41 -34 10 0 92 14
181 31 89 17 177 33 195 36 22 4 42 17 59 40 l26 34 -6 147 c-7 166 -25 336
-38 370 -13 32 -43 28 -210 -28z"/>
<path d="M9527 15542 c-159 -43 -211 -62 -219 -76 -8 -14 -8 -77 1 -220 21
-353 17 -342 120 -333 81 7 269 62 296 87 14 12 30 16 51 13 18 -3 34 -1 38 5
3 5 1 83 -4 173 -5 90 -11 214 -13 275 -3 62 -8 117 -11 123 -11 17 -38 13
-259 -47z"/>
<path d="M10165 15019 c-108 -34 -208 -61 -233 -61 -60 0 -64 -13 -52 -150 5
-62 10 -179 10 -259 0 -142 1 -147 25 -173 32 -35 50 -32 205 36 63 27 147 61
186 74 106 37 109 41 106 187 -4 203 -20 390 -34 399 -17 10 3 15 -213 -53z"/>
<path d="M9615 14869 c-66 -21 -141 -48 -167 -59 -26 -11 -60 -20 -76 -20 -41
0 -58 -22 -43 -57 6 -16 10 -39 8 -53 -1 -14 2 -99 7 -190 4 -91 9 -192 10
-225 1 -58 2 -60 29 -63 27 -3 423 121 440 137 9 9 12 213 8 428 -2 78 -7 115
-16 123 -29 24 -81 19 -200 -21z"/>
<path d="M10005 13914 c-104 -35 -244 -84 -310 -109 -136 -50 -292 -95 -328
-95 -44 0 -50 -20 -38 -117 6 -48 13 -151 16 -228 3 -77 10 -214 15 -305 5
-91 9 -249 10 -351 0 -210 3 -219 62 -200 18 5 61 15 96 21 34 6 84 20 110 31
72 32 223 76 314 94 46 8 139 29 208 45 69 16 145 35 170 40 65 15 70 27 65
139 -3 53 -9 240 -15 416 -13 404 -29 646 -43 663 -7 9 -22 12 -39 8 -15 -3
-30 -1 -33 4 -13 21 -77 7 -260 -56z m285 -242 c21 -451 30 -671 30 -763 l0
-96 -62 -12 c-35 -7 -94 -21 -133 -31 -38 -10 -128 -31 -198 -45 -114 -24
-169 -40 -352 -105 -27 -10 -68 -20 -90 -22 l-40 -3 -6 260 c-7 295 -27 717
-35 756 -5 24 -1 27 43 38 85 22 223 67 441 145 117 42 250 87 295 100 80 23
82 23 89 5 4 -11 12 -113 18 -227z"/>
<path d="M10320 4419 c-125 -45 -137 -49 -235 -68 l-90 -18 2 -34 c2 -19 6
-134 9 -255 6 -208 8 -223 28 -249 l22 -27 140 26 c291 56 282 53 311 98 l27
40 -13 176 c-7 97 -18 213 -24 257 l-12 80 -40 3 c-25 1 -72 -9 -125 -29z"/>
<path d="M9835 4290 c-29 -13 -359 -100 -378 -100 -9 0 -24 -11 -33 -25 -14
-22 -15 -42 -5 -187 6 -90 13 -190 15 -223 2 -33 8 -78 13 -100 l8 -40 69 -3
c54 -2 92 4 175 28 58 17 118 40 133 50 18 14 36 18 55 14 45 -9 53 10 43 91
-5 39 -12 160 -15 270 -4 110 -12 208 -17 218 -9 18 -31 21 -63 7z"/>
<path d="M10330 3718 c-80 -28 -179 -55 -220 -62 l-75 -12 4 -151 c2 -83 4
-205 5 -270 2 -203 25 -212 260 -106 44 20 115 49 156 63 118 43 115 32 102
318 -7 131 -14 247 -18 256 -10 25 -55 18 -214 -36z"/>
<path d="M9705 3554 c-88 -31 -180 -59 -205 -65 -24 -5 -47 -13 -51 -17 -4 -4
-1 -117 7 -252 8 -135 13 -259 11 -277 -5 -34 7 -53 34 -53 18 0 416 131 437
144 14 8 16 206 5 419 l-6 128 -35 15 c-19 7 -35 14 -36 13 0 0 -73 -25 -161
-55z"/>
<path d="M10240 2641 c-80 -27 -233 -80 -340 -119 -171 -60 -261 -87 -361
-107 -35 -6 -40 -23 -29 -92 14 -85 40 -677 40 -899 0 -217 3 -227 63 -206 18
6 55 14 82 18 28 3 79 17 115 31 133 50 211 73 312 93 116 24 344 76 401 92
68 20 64 -44 37 678 -18 490 -30 573 -79 543 -15 -10 -20 -9 -25 2 -9 26 -65
17 -216 -34z m240 -386 c6 -137 13 -359 17 -491 l6 -242 -59 -12 c-32 -6 -90
-20 -129 -30 -38 -10 -128 -31 -198 -45 -116 -24 -172 -41 -347 -103 -30 -11
-73 -22 -96 -25 l-41 -5 -6 247 c-4 135 -11 302 -16 371 -6 69 -12 193 -15
276 l-6 152 83 21 c45 12 174 55 287 95 205 74 437 151 475 158 18 3 21 -4 27
-57 4 -33 12 -172 18 -310z"/>
<path d="M12050 4518 c-19 -6 -109 -35 -200 -64 -172 -55 -354 -104 -389 -104
-11 0 -24 -8 -28 -17 -4 -10 -6 -222 -3 -471 l5 -453 25 -19 c14 -11 36 -20
50 -20 22 0 270 82 530 175 41 14 85 38 98 51 l22 25 0 435 c0 281 -4 442 -10
455 -12 21 -43 23 -100 7z m30 -474 c0 -388 -1 -405 -17 -386 -11 12 -61 33
-128 53 -60 18 -114 36 -120 41 -11 10 -17 77 -34 387 -7 107 -14 197 -17 200
-4 4 280 104 314 111 1 0 2 -183 2 -406z m-170 -403 c54 -17 88 -32 80 -35
-62 -25 -454 -156 -466 -156 -10 0 -14 14 -14 55 0 52 2 55 28 61 65 13 277
93 277 103 0 0 43 -13 95 -28z"/>
</g>
</svg>
