<?xml version="1.0" standalone="no"?>
<!DOCTYPE svg PUBLIC "-//W3C//DTD SVG 20010904//EN"
 "http://www.w3.org/TR/2001/REC-SVG-20010904/DTD/svg10.dtd">
<svg version="1.0" xmlns="http://www.w3.org/2000/svg"
 width="8781.000000pt" height="9682.000000pt" viewBox="0 0 8781.000000 9682.000000"
 preserveAspectRatio="xMidYMid meet">

<g transform="translate(0.000000,9682.000000) scale(0.100000,-0.100000)"
fill="#000000" stroke="none">
<path d="M75655 96804 c-218 -17 -406 -38 -490 -55 -167 -34 -329 -127 -410
-237 -22 -29 -47 -84 -66 -147 -18 -55 -33 -101 -34 -102 -1 -2 -34 8 -74 22
-387 131 -1085 137 -1693 15 -256 -52 -367 -105 -491 -234 -103 -108 -126
-164 -186 -451 -80 -384 -155 -812 -194 -1114 l-12 -95 -50 -11 c-122 -27
-236 -118 -290 -230 l-29 -60 -7 -260 c-11 -409 -10 -2388 1 -2485 12 -105 50
-186 117 -252 67 -65 722 -469 1676 -1033 332 -198 387 -233 382 -250 -2 -11
-23 -990 -45 -2175 -22 -1185 -43 -2206 -46 -2269 l-6 -113 -37 6 c-289 51
-644 51 -1016 0 -279 -38 -659 -126 -800 -185 -186 -77 -307 -194 -361 -348
-13 -36 -24 -76 -24 -88 0 -32 -11 -35 -87 -19 -348 73 -900 65 -1398 -20
-331 -57 -469 -121 -607 -281 -92 -106 -101 -132 -178 -508 -99 -485 -173
-954 -209 -1325 -19 -193 -20 -294 -23 -1755 -3 -1748 -10 -1603 75 -1727 32
-47 64 -77 124 -118 45 -30 163 -120 262 -200 l181 -145 -5 -195 c-19 -693
-41 -3160 -55 -6380 -11 -2414 -23 -3849 -41 -5055 -14 -928 -14 -930 29
-1017 59 -120 360 -411 1422 -1378 603 -550 835 -766 1098 -1025 244 -241 294
-276 410 -290 56 -6 737 62 1997 201 524 57 2254 254 2459 279 66 8 121 14
122 12 3 -3 32 -1114 134 -5122 43 -1727 81 -3185 83 -3241 l4 -101 -266 -6
c-847 -21 -1671 -144 -2526 -378 -1418 -388 -2746 -1111 -3899 -2122 -1311
-1149 -2361 -2636 -3026 -4282 -459 -1137 -721 -2294 -790 -3489 -13 -228 -13
-861 0 -1076 101 -1660 570 -3130 1449 -4545 681 -1096 1630 -2121 2716 -2936
297 -223 639 -455 932 -632 84 -51 153 -95 153 -99 0 -26 -2088 -1947 -6115
-5623 -3992 -3644 -5610 -5133 -6189 -5695 -123 -119 -129 -124 -143 -105 -8
11 -332 560 -720 1220 -388 660 -964 1639 -1281 2175 -447 755 -577 982 -575
1005 0 17 4 62 8 100 5 52 1 117 -19 255 -14 102 -42 325 -61 495 -20 171 -51
441 -70 600 -19 160 -39 335 -45 390 -28 262 -48 314 -169 436 -373 377 -1251
579 -1872 430 -305 -72 -490 -184 -707 -426 -85 -94 -103 -128 -155 -285 -62
-186 -148 -403 -157 -393 -4 4 -26 172 -49 373 -87 754 -102 880 -127 1059
-35 252 -56 305 -157 396 -290 262 -668 420 -1148 480 -143 17 -464 20 -589 5
-345 -43 -635 -160 -829 -336 -84 -75 -206 -234 -230 -299 -12 -31 -73 -246
-137 -478 -63 -232 -117 -430 -120 -439 -5 -15 -44 -27 -44 -13 0 2 -32 158
-70 347 -39 189 -77 387 -85 441 -28 188 -97 326 -233 468 -246 258 -580 359
-1189 359 -139 0 -253 1 -254 3 -1 1 -29 911 -63 2022 l-61 2020 430 6 c700
10 1196 70 1815 220 2250 544 4279 2093 5583 4260 736 1225 1198 2596 1336
3969 35 339 44 585 38 993 -5 383 -18 573 -58 897 -195 1571 -867 3117 -1934
4450 -403 503 -946 1050 -1450 1461 -864 704 -1862 1255 -2895 1599 -1467 489
-2988 578 -4510 265 -1706 -351 -3164 -1152 -4437 -2437 l-182 -183 -463 580
c-986 1236 -2274 2839 -6843 8515 -4528 5625 -5827 7243 -6710 8350 -274 344
-504 632 -512 642 -13 14 6 27 204 128 1262 651 2419 1286 2515 1381 61 61
106 150 117 236 5 37 15 671 22 1408 14 1515 8 4221 -16 7125 -25 3072 -30
5402 -14 6955 7 765 12 1412 11 1439 -1 27 -7 66 -12 86 -9 35 -7 42 25 90 56
84 68 141 62 299 -4 110 -10 150 -31 209 -37 106 -68 226 -131 502 -112 488
-185 739 -268 922 -48 105 -73 135 -190 230 -179 145 -301 206 -494 245 -135
28 -507 25 -703 -6 -208 -32 -409 -75 -587 -126 -85 -25 -158 -45 -162 -45 -4
0 -19 26 -35 58 -115 236 -339 399 -636 463 -93 21 -132 23 -330 23 -154 -1
-261 -6 -340 -18 -63 -9 -187 -25 -275 -37 -366 -46 -812 -157 -909 -225 -11
-8 -23 -14 -27 -14 -3 0 -12 55 -18 123 -53 544 -73 662 -129 739 -255 349
-455 483 -853 572 -206 45 -335 58 -652 63 -602 10 -1203 -70 -1457 -193 -82
-40 -108 -60 -191 -143 -64 -65 -104 -114 -121 -151 -40 -84 -173 -710 -250
-1175 -18 -110 -34 -193 -35 -185 -1 8 -18 197 -38 420 -20 223 -45 497 -57
610 -12 117 -22 286 -23 395 -1 211 -11 264 -71 393 -88 191 -255 350 -457
433 -567 235 -1489 257 -2205 54 -163 -47 -261 -87 -352 -143 -41 -25 -95 -57
-121 -69 -61 -31 -144 -119 -175 -188 -38 -83 -180 -755 -245 -1162 -13 -81
-26 -137 -31 -130 -4 6 -8 24 -8 38 0 40 -39 145 -68 183 -248 322 -376 421
-667 515 -437 142 -1111 161 -1795 50 -417 -67 -572 -131 -715 -296 -69 -79
-93 -114 -111 -165 -13 -38 -181 -770 -214 -933 -19 -96 -26 -93 -38 19 -21
174 -35 205 -183 388 -218 270 -485 402 -944 467 -425 61 -1077 36 -1559 -60
-320 -64 -433 -119 -576 -281 -94 -106 -107 -137 -155 -360 -19 -88 -35 -161
-35 -163 0 -2 -24 20 -54 50 -109 109 -268 192 -449 235 -88 21 -265 41 -527
62 -264 21 -1024 17 -1230 -5 -329 -36 -542 -86 -685 -160 -103 -54 -209 -156
-255 -247 -19 -38 -79 -221 -141 -434 -60 -203 -110 -371 -112 -372 -2 -2 -11
22 -21 54 -28 89 -90 200 -160 287 -204 255 -491 387 -966 447 -161 20 -702
17 -910 -5 -323 -35 -687 -101 -848 -153 -161 -53 -300 -152 -373 -266 -19
-29 -48 -65 -66 -81 -75 -66 -89 -103 -263 -689 l-165 -559 -160 -4 c-350 -11
-685 -48 -993 -111 -323 -65 -448 -119 -573 -245 -94 -94 -135 -153 -160 -227
-21 -63 -89 -420 -143 -752 -119 -729 -182 -1419 -142 -1552 13 -45 12 -48
-20 -114 -19 -38 -39 -96 -44 -129 -5 -34 -14 -896 -20 -1960 -13 -2334 -13
-2778 0 -3785 12 -1012 27 -2899 40 -5215 19 -3365 45 -6279 59 -6520 6 -117
10 -138 38 -198 37 -78 109 -154 179 -190 110 -55 1715 -465 3497 -893 1170
-280 2943 -694 4752 -1109 947 -217 4211 -960 4420 -1006 50 -11 476 -108 947
-215 471 -107 876 -197 900 -200 24 -3 68 -1 99 4 37 7 533 228 1490 663 789
358 1442 654 1452 657 16 4 17 -3 12 -89 -9 -152 -34 -1566 -60 -3414 -42
-2960 -66 -4336 -81 -4736 l-6 -166 -117 44 c-1353 514 -2704 804 -4216 904
-260 17 -1079 23 -1375 10 -1781 -78 -3522 -468 -5056 -1134 -3267 -1419
-5971 -4220 -7340 -7604 -808 -1996 -1114 -4076 -893 -6068 274 -2474 1359
-4781 3181 -6760 1678 -1824 3903 -3249 6348 -4065 2193 -732 4437 -948 6601
-635 746 108 1506 290 2242 536 197 66 638 229 769 284 l81 34 67 -62 c36 -34
217 -204 401 -377 789 -745 2083 -1946 5979 -5550 4001 -3701 5767 -5341 6334
-5880 l28 -28 -242 -418 c-497 -857 -1028 -1759 -1598 -2719 -157 -264 -294
-502 -304 -529 -54 -140 -20 -309 83 -421 84 -91 89 -93 738 -269 332 -90 605
-167 608 -170 7 -6 -13 -4072 -27 -5731 -17 -1958 -30 -4149 -30 -5135 0
-1037 -1 -1021 55 -1116 31 -52 97 -119 151 -150 23 -13 210 -79 415 -145 641
-206 1626 -528 3564 -1164 2755 -904 3443 -1128 4565 -1488 2421 -779 4118
-1295 5402 -1646 935 -255 1850 -463 1967 -446 25 3 168 46 316 95 463 152
3330 1064 4060 1292 88 27 264 83 390 123 127 40 345 108 485 150 140 42 566
179 945 305 380 126 1115 369 1635 540 520 171 1028 340 1130 375 102 36 388
134 635 219 1213 416 2279 806 3135 1149 456 182 1029 424 1095 462 58 33 132
116 161 180 39 85 44 148 38 440 -4 149 -1 812 5 1475 14 1499 22 1920 81
4570 38 1680 48 2135 60 2830 14 793 30 2217 30 2778 0 259 2 472 4 472 3 0
224 60 493 134 268 74 525 144 569 155 109 26 165 54 230 113 118 109 160 280
107 437 -8 25 -183 330 -388 676 -797 1349 -2655 4511 -2655 4519 0 6 528 509
885 842 986 920 2098 1940 5645 5179 3887 3549 5167 4726 6008 5520 129 121
238 221 242 223 4 2 77 -29 161 -69 1112 -519 2262 -847 3434 -979 336 -37
569 -51 970 -57 519 -7 870 11 1335 68 2500 309 4840 1653 6579 3778 1350
1649 2223 3671 2466 5716 107 900 89 1829 -51 2685 -276 1689 -1035 3348
-2180 4772 -418 519 -931 1049 -1444 1489 -1594 1369 -3519 2239 -5530 2498
-85 11 -217 26 -293 33 l-137 12 0 36 c0 36 -136 5385 -190 7435 -16 621 -28
1130 -27 1131 9 7 2237 263 2562 294 767 74 1289 137 1665 200 302 51 3136
378 4320 500 217 22 415 45 440 51 110 26 217 119 273 236 l32 68 7 2050 c3
1128 11 2867 17 3865 23 3733 31 5533 31 7581 0 2058 0 2107 -19 2162 -11 31
-34 77 -51 101 -39 58 -44 83 -180 899 -127 765 -161 943 -195 1013 -13 27
-69 99 -124 160 l-99 109 -57 225 c-31 124 -101 394 -155 600 -55 206 -107
411 -115 455 -32 153 -113 283 -237 380 -133 105 -291 161 -515 186 -118 13
-391 7 -532 -11 -46 -6 -85 -9 -87 -7 -2 2 3 804 11 1783 8 978 15 1984 15
2234 0 250 3 499 7 552 l6 96 56 6 c31 4 263 27 516 52 253 24 690 70 970 100
281 31 551 59 600 64 148 13 250 65 325 164 73 97 85 145 83 341 -5 499 -35
2116 -42 2279 l-8 188 -43 84 c-51 101 -47 68 -130 980 -72 797 -90 945 -123
1017 -13 28 -52 93 -86 142 -255 367 -599 507 -1276 522 -482 10 -996 -54
-1253 -156 -29 -12 -54 -21 -56 -21 -2 0 -6 71 -9 158 -4 134 -10 174 -36 270
-17 62 -42 133 -57 157 -38 65 -255 260 -357 321 -139 83 -369 151 -627 186
-127 17 -674 17 -840 0 -193 -20 -441 -60 -569 -92 -262 -66 -412 -186 -486
-390 -15 -41 -73 -244 -130 -450 l-102 -375 -229 -7 c-126 -3 -276 -11 -333
-17 -162 -17 -157 -18 -165 32 -12 74 -96 450 -113 502 -78 244 -304 471 -568
570 -275 104 -659 149 -1082 126 -452 -24 -852 -96 -1012 -182 -30 -16 -55
-28 -56 -26 -1 1 -12 33 -25 70 -88 268 -378 469 -785 546 -236 45 -344 53
-755 56 -217 1 -417 1 -445 -1z m-125 -1244 c332 -48 705 -71 1160 -71 342 0
493 9 589 37 29 8 55 14 56 12 2 -2 -38 -135 -88 -296 l-92 -293 -145 7 c-247
11 -669 -23 -955 -77 -280 -52 -392 -99 -511 -211 -41 -39 -92 -97 -114 -130
-35 -53 -40 -57 -44 -36 -3 13 -26 190 -50 393 l-45 370 25 145 c31 185 31
183 57 176 12 -3 83 -15 157 -26z m6685 -574 c311 -63 871 -98 1261 -79 l162
8 6 -85 c12 -155 56 -634 61 -676 l6 -41 -103 -13 c-150 -18 -542 -25 -681
-11 -121 12 -256 33 -318 51 l-37 10 -12 103 c-22 193 -42 245 -141 372 -114
146 -212 236 -324 300 -27 16 -51 29 -53 30 -1 1 1 16 4 34 6 27 10 32 28 27
12 -4 75 -17 141 -30z m-9185 -70 c89 -20 324 -52 505 -68 94 -8 303 -13 558
-13 400 0 408 0 412 -20 13 -62 95 -776 91 -784 -7 -11 -151 -45 -251 -60
-384 -55 -889 19 -1411 210 -106 38 -110 41 -107 67 18 161 83 600 98 670 4
16 11 22 23 18 9 -3 46 -12 82 -20z m5175 -44 c303 -62 654 -87 1132 -80 l333
5 -36 -40 c-62 -68 -89 -144 -143 -402 -47 -224 -103 -523 -131 -692 l-12 -73
-104 0 c-183 0 -423 30 -686 87 l-127 27 -6 51 c-3 27 -14 138 -25 245 -23
212 -44 302 -87 367 -93 139 -224 280 -315 340 -21 15 -37 31 -35 37 2 6 15
46 27 89 21 69 26 78 44 74 12 -3 89 -18 171 -35z m6780 -827 c312 -55 804
-83 1175 -66 118 5 216 8 217 7 3 -3 73 -771 73 -802 0 -18 -12 -23 -92 -42
-154 -35 -286 -45 -498 -39 -305 8 -566 60 -958 189 l-213 70 6 31 c3 18 12
88 20 157 17 135 73 496 81 519 3 8 12 11 27 7 12 -3 85 -17 162 -31z m-4611
-400 c300 -55 704 -81 1129 -71 286 6 287 6 287 -15 0 -11 16 -194 35 -407 27
-295 33 -387 23 -393 -26 -17 -147 -30 -403 -45 -148 -8 -297 -12 -330 -9
-278 29 -607 109 -931 226 -76 28 -80 31 -77 57 18 163 83 600 99 670 3 17 10
22 21 18 8 -4 75 -17 147 -31z m-3924 -208 c260 -29 515 -40 847 -35 l321 5 6
-61 c36 -374 66 -750 59 -756 -4 -4 -42 -15 -83 -25 -58 -13 -148 -18 -400
-22 -303 -5 -334 -4 -453 16 -182 32 -404 89 -620 162 l-187 62 0 34 c0 52 69
533 96 663 l5 26 132 -27 c73 -14 197 -33 277 -42z m-1285 -109 c-7 -33 -52
-375 -66 -503 -6 -60 -12 -112 -14 -113 -2 -2 -54 24 -117 58 -183 100 -627
354 -624 357 1 1 49 9 107 17 217 31 476 102 629 174 80 37 92 39 85 10z
m8671 -140 c-6 -73 -5 -124 3 -175 15 -87 1 -153 -32 -153 -11 0 -263 -16
-560 -35 -297 -20 -543 -33 -546 -29 -6 5 -52 477 -47 481 2 2 59 -3 127 -11
280 -33 663 -29 934 9 147 20 132 31 121 -87z m-10918 -192 c246 -144 522
-308 613 -362 l167 -99 -4 -95 c-2 -52 -9 -419 -15 -815 -6 -396 -12 -721 -13
-722 -3 -3 -876 522 -1072 645 l-131 81 -6 68 c-12 123 -2 1563 10 1563 3 0
206 -119 451 -264z m-52713 -175 c51 -13 -452 -3 -510 10 -24 5 61 6 215 4
140 -3 273 -9 295 -14z m58505 -21 c112 -17 202 -26 451 -46 l77 -5 4 -67 c3
-37 3 -69 1 -72 -3 -4 -545 -28 -664 -29 l-46 -1 -6 58 c-4 31 -9 88 -13 126
l-7 69 39 -7 c22 -3 95 -15 164 -26z m7880 -677 c0 -49 5 -409 12 -800 6 -392
10 -715 7 -717 -12 -12 -1897 -201 -1907 -191 -8 8 -37 1654 -29 1662 4 3 327
28 719 54 392 26 803 54 913 62 110 8 219 15 243 16 l42 1 0 -87z m-67669 -37
c353 -79 811 -113 1389 -102 201 3 381 9 401 12 l35 6 28 -314 c25 -287 67
-720 82 -850 l6 -53 -124 -38 c-67 -21 -161 -57 -208 -80 l-85 -41 -320 -4
c-549 -7 -1208 37 -1492 98 -56 12 -61 19 -42 67 6 15 22 134 35 263 30 293
54 469 105 780 48 291 48 293 64 286 7 -2 64 -16 126 -30z m55775 -115 c248
-131 244 -128 244 -159 1 -15 11 -403 24 -862 13 -459 23 -836 22 -837 -1 -1
-111 64 -245 145 l-244 147 6 465 c13 850 20 1191 27 1188 4 -2 78 -41 166
-87z m9138 -103 c9 -232 30 -1528 25 -1532 -5 -5 -850 -76 -896 -76 l-33 0 0
313 c0 339 -12 735 -35 1136 -8 140 -14 255 -12 256 1 1 211 15 467 32 256 17
468 31 471 32 4 0 10 -72 13 -161z m-1784 24 c0 -11 7 -140 15 -288 18 -336
35 -899 35 -1190 l0 -222 -62 -6 c-281 -28 -3142 -216 -3294 -216 l-54 0 -1
198 c0 108 -4 508 -8 887 -5 380 -8 691 -7 692 1 0 127 6 281 12 559 23 1198
52 1570 72 209 11 544 24 745 29 233 6 401 14 465 24 131 20 156 22 243 24 64
2 72 0 72 -16z m-4209 -394 c0 -123 4 -527 8 -898 4 -371 7 -677 5 -679 -6 -8
-2012 -107 -2019 -99 -6 6 -57 1859 -51 1865 2 2 365 5 807 5 549 1 836 5 904
13 55 7 155 13 223 14 l122 1 1 -222z m-55159 37 c354 -85 1013 -130 1560
-107 155 7 282 11 283 10 2 -2 21 -212 44 -468 23 -256 44 -474 46 -486 4 -19
-6 -24 -98 -49 -168 -46 -385 -124 -496 -177 -88 -42 -115 -61 -185 -131 -54
-54 -91 -102 -109 -140 -32 -66 -77 -238 -77 -293 0 -21 -2 -35 -5 -33 -11 11
-94 412 -104 501 -11 93 -29 155 -97 323 -33 83 -108 163 -245 262 -200 145
-378 210 -681 248 -31 4 -48 11 -48 20 0 16 78 489 87 523 3 12 9 22 13 22 5
0 55 -11 112 -25z m-7488 -364 c79 -31 399 -81 676 -106 223 -21 848 -30 1069
-16 96 6 176 9 178 8 1 -2 21 -203 43 -448 22 -244 49 -525 60 -623 11 -99 20
-189 20 -200 0 -13 -20 -37 -49 -62 -48 -40 -53 -42 -173 -58 -636 -85 -1461
-82 -1867 5 -115 25 -150 39 -218 86 -46 32 -51 38 -47 67 48 345 145 866 240
1289 16 70 22 75 68 58z m-3469 -589 c386 -79 958 -115 1482 -93 157 6 288 9
290 7 3 -3 20 -173 39 -378 18 -205 35 -389 37 -409 l5 -36 -172 -7 c-386 -16
-695 -76 -868 -168 -73 -39 -181 -137 -223 -203 -18 -27 -41 -74 -51 -104
l-19 -54 -150 6 c-216 9 -466 52 -658 115 -75 25 -82 29 -80 52 29 358 81 747
159 1208 16 96 19 103 38 99 12 -3 89 -18 171 -35z m15463 -467 c-11 -316 1
-859 23 -1040 5 -44 13 -127 18 -185 9 -114 27 -168 81 -244 39 -54 115 -112
177 -136 30 -12 43 -20 33 -24 -8 -3 -52 -19 -98 -35 l-82 -31 -50 100 c-28
55 -161 302 -297 548 -282 513 -438 812 -483 927 -60 155 -74 179 -153 262
l-78 82 43 5 c100 13 253 26 403 36 171 11 457 39 464 46 2 2 5 3 7 2 1 -2 -3
-142 -8 -313z m2266 18 c3 -10 21 -90 41 -178 32 -142 88 -372 101 -416 3 -12
-23 -29 -105 -68 -308 -146 -645 -224 -1021 -237 -154 -6 -425 7 -438 21 -2 2
-7 168 -10 368 l-5 365 65 -5 c95 -8 433 14 663 43 194 25 513 80 625 108 74
19 78 19 84 -1z m-21192 -28 c110 -26 313 -57 493 -75 274 -28 1100 -22 1362
9 l61 7 6 -40 c3 -23 35 -366 71 -762 35 -397 76 -826 90 -955 14 -129 27
-256 30 -284 l6 -50 -72 -34 c-50 -24 -96 -56 -150 -108 l-78 -74 -5 43 c-4
24 -24 198 -46 388 -57 488 -104 805 -129 871 -12 31 -43 81 -69 111 -26 30
-73 87 -105 126 -154 190 -393 321 -703 386 -214 44 -299 51 -651 51 -207 0
-333 4 -333 10 0 10 114 405 117 405 1 0 48 -11 105 -25z m9869 -97 c-9 -4
-28 -7 -42 -7 -28 -1 -39 14 -39 55 l0 24 48 -32 c37 -25 45 -35 33 -40z
m1969 -237 c0 -21 -13 -71 -19 -71 -3 1 -26 19 -50 40 l-44 40 57 0 c31 0 56
-4 56 -9z m-12902 -43 c2 -24 7 -60 13 -82 6 -21 8 -40 6 -42 -3 -3 -55 -18
-116 -34 -228 -60 -347 -139 -485 -322 -44 -59 -63 -122 -100 -339 -41 -238
-119 -748 -138 -898 l-12 -104 -261 6 c-272 6 -439 21 -665 62 -173 31 -264
48 -268 50 -1 1 -29 151 -61 333 -66 372 -75 398 -167 507 -169 199 -279 292
-433 366 -50 24 -91 47 -91 51 0 11 109 380 113 385 3 2 44 -8 93 -22 368
-107 1057 -148 1739 -104 439 28 647 76 770 178 33 27 60 50 61 50 0 1 1 -18
2 -41z m76857 -1045 c-4 -456 -8 -829 -10 -831 -2 -2 -4329 -330 -4331 -328
-6 6 71 1663 78 1667 5 3 67 9 136 13 695 38 2967 205 3787 280 143 13 280 24
304 25 l43 1 -7 -827z m-61118 301 c56 -252 102 -463 103 -467 0 -5 -17 5 -37
22 -223 186 -430 267 -767 300 -351 35 -895 -21 -1368 -140 -64 -16 -120 -29
-123 -29 -4 0 -4 12 0 28 4 15 33 163 65 330 32 167 60 305 63 309 3 3 46 -1
94 -8 117 -19 783 -19 978 -1 209 19 603 70 745 96 69 13 129 22 135 21 5 -1
56 -208 112 -461z m52031 157 l132 -83 0 -432 c0 -611 -28 -1577 -45 -1595 -5
-5 -446 178 -459 190 -9 8 18 1874 30 2046 l6 82 101 -63 c56 -34 162 -100
235 -145z m-49014 7 c154 -354 444 -974 472 -1007 l34 -39 -113 -40 c-1155
-413 -1827 -654 -1846 -663 -13 -5 -25 -8 -28 -6 -16 17 -29 1186 -16 1488 l6
156 226 6 c322 8 772 66 1091 141 150 35 143 36 174 -36z m52991 -40 c-3 -18
-19 -395 -36 -838 -18 -443 -33 -806 -34 -807 -1 -2 -332 -27 -736 -58 -404
-30 -752 -56 -773 -59 l-39 -5 6 442 c4 243 10 629 14 858 l6 415 436 23 c240
13 567 31 726 41 160 9 322 18 362 19 l72 1 -4 -32z m-2432 -300 c-14 -1078
-39 -2358 -47 -2365 -4 -4 -582 232 -594 242 -1 1 5 96 13 211 30 427 36 636
42 1355 l6 737 201 9 c110 5 242 10 291 11 l90 2 -2 -202z m-59683 -90 c-15
-51 -37 -127 -50 -169 -21 -73 -23 -75 -50 -71 -51 7 -492 -18 -671 -38 -147
-17 -360 -50 -486 -76 l-32 -6 21 63 c16 49 21 92 22 179 1 63 -2 129 -6 145
l-7 30 307 -4 c279 -3 681 10 872 29 41 4 82 8 92 9 14 1 13 -11 -12 -91z
m955 -238 c220 -46 437 -67 795 -80 260 -9 709 1 908 20 59 5 109 7 113 2 3
-4 12 -56 18 -117 58 -544 141 -1154 165 -1224 9 -24 16 -65 16 -91 l0 -47
-87 -26 c-449 -136 -1012 -166 -1328 -69 l-60 18 -17 139 c-92 750 -103 798
-209 925 -162 193 -302 312 -445 376 -32 15 -60 28 -62 30 -4 2 37 154 45 167
3 5 17 6 32 2 14 -4 67 -15 116 -25z m-6487 -50 c174 -49 429 -96 635 -116 77
-7 74 3 41 -109 l-14 -50 -208 -1 c-188 -2 -457 -17 -523 -30 l-26 -5 -13 113
c-7 62 -16 141 -19 176 -7 55 -6 62 8 57 9 -4 62 -19 119 -35z m18257 -844
l-8 -754 -51 -20 c-1073 -415 -1937 -744 -1942 -740 -2 2 30 341 71 753 41
413 75 770 75 795 l0 45 493 180 c270 99 688 252 927 341 239 88 437 160 439
158 2 -2 0 -342 -4 -758z m-16520 544 c414 -111 1018 -180 1572 -180 l262 0
-19 -57 c-28 -83 -172 -875 -216 -1185 l-6 -48 -152 0 c-275 0 -560 28 -831
81 -82 16 -164 29 -181 29 l-31 0 -12 103 c-29 247 -73 527 -92 582 -22 66
-39 91 -146 218 -95 112 -182 189 -293 259 -50 31 -95 58 -100 60 -8 2 13 89
45 185 3 10 14 9 47 -3 24 -8 93 -28 153 -44z m-5686 20 c144 -29 381 -57 596
-71 224 -14 931 -5 1126 14 l127 12 16 -145 c52 -452 100 -840 127 -1025 16
-115 31 -219 32 -229 2 -16 -11 -24 -68 -42 -616 -195 -1586 -147 -2150 106
l-67 30 7 83 c33 416 136 1287 152 1287 3 0 49 -9 102 -20z m16197 -267 l72 4
7 -216 c7 -244 21 -491 31 -537 5 -26 2 -32 -21 -42 -35 -16 -42 -15 -48 6 -6
24 -227 783 -233 804 -4 14 2 14 58 -4 47 -15 81 -19 134 -15z m-20948 -72
c278 -46 442 -55 927 -56 322 0 508 4 620 14 236 22 218 24 227 -29 39 -220
99 -694 114 -895 l6 -91 -88 -27 c-374 -116 -830 -127 -1334 -31 -223 42 -599
143 -765 205 l-57 21 6 57 c37 348 98 830 111 868 3 8 17 8 57 -2 29 -8 108
-23 176 -34z m24238 -498 c-3 -21 -40 -384 -82 -808 -41 -423 -76 -770 -77
-771 -5 -2 -1486 -556 -1787 -667 l-335 -124 -5 706 -5 706 -28 65 c-16 36
-30 70 -33 76 -3 7 45 29 123 57 411 147 1997 716 2098 752 66 24 124 44 128
44 5 1 6 -16 3 -36z m-4104 -259 c65 -221 73 -257 59 -262 -9 -3 -497 -178
-1086 -388 l-1070 -382 -8 156 c-8 153 8 931 20 980 5 20 10 23 34 18 157 -31
701 -32 1039 -1 311 28 788 95 885 124 17 5 35 10 41 10 6 1 44 -114 86 -255z
m-17227 67 c174 -24 345 -38 584 -47 l184 -7 -6 -71 c-4 -39 -12 -159 -18
-268 -11 -180 -11 -202 5 -262 34 -123 112 -218 226 -274 30 -14 78 -41 105
-60 289 -190 765 -333 1330 -399 214 -25 769 -25 978 0 269 32 493 80 713 152
59 19 109 34 111 32 2 -2 -4 -94 -12 -203 -24 -308 -26 -324 -36 -324 -32 0
-2080 320 -3034 475 -1457 235 -1529 248 -1503 265 59 38 130 117 161 179 32
65 32 66 35 242 2 102 -3 257 -12 372 -21 254 -22 230 17 223 17 -3 95 -15
172 -25z m78531 -853 c-4 -408 -9 -744 -12 -747 -18 -18 -1937 -272 -1950
-258 -4 4 25 1600 29 1603 4 3 1845 142 1891 143 l49 1 -7 -742z m-68369 628
c305 -59 660 -81 1163 -73 201 4 415 11 475 17 61 5 126 11 145 12 l34 3 57
-480 c31 -264 62 -516 68 -559 6 -44 8 -83 4 -87 -16 -15 -311 -108 -423 -133
-286 -63 -480 -80 -828 -73 -266 6 -380 17 -597 57 -121 23 -380 87 -407 101
-12 6 -15 19 -12 46 25 231 73 594 110 833 25 162 48 312 51 333 4 26 10 36
19 33 7 -3 71 -16 141 -30z m65582 -906 c-8 -445 -18 -813 -21 -816 -8 -7
-279 -34 -743 -73 -882 -75 -1839 -133 -2645 -161 -162 -5 -356 -12 -431 -15
l-135 -6 3 148 c2 81 10 438 18 791 7 354 15 645 17 646 5 4 3835 293 3898
295 l55 1 -16 -810z m-70442 586 c254 -49 606 -76 1008 -76 256 0 564 13 720
30 44 4 81 7 83 5 2 -1 25 -191 53 -421 27 -231 55 -463 61 -516 6 -54 9 -100
6 -103 -3 -3 -43 -16 -89 -29 -421 -122 -930 -111 -1519 30 -151 36 -446 122
-539 156 l-53 20 6 82 c12 136 46 420 77 635 16 112 29 208 29 213 0 6 7 8 15
4 8 -3 72 -16 142 -30z m64111 -397 c1025 -428 1480 -617 1505 -623 27 -6 27
-7 27 -89 0 -45 -4 -278 -10 -517 -5 -239 -14 -666 -20 -949 -5 -283 -11 -516
-13 -517 -2 -2 -374 162 -828 365 -453 202 -842 374 -864 381 -22 8 -73 14
-112 14 l-73 1 0 90 c1 73 38 1974 40 1983 1 6 29 -6 348 -139z m-51208 -748
l0 -799 -167 -62 c-93 -34 -546 -199 -1008 -367 -462 -167 -901 -326 -975
-353 -74 -27 -135 -48 -136 -47 -2 1 -8 313 -14 692 -6 384 -15 709 -21 735
-6 25 -23 69 -39 98 l-29 53 27 10 c15 6 329 118 697 249 369 132 891 318
1160 414 270 96 493 175 498 176 4 0 7 -360 7 -799z m-3916 607 c3 -18 7 -73
10 -123 2 -49 11 -110 20 -134 9 -24 15 -45 14 -46 -2 -1 -291 -105 -643 -232
-352 -127 -677 -245 -723 -261 -45 -17 -79 -25 -76 -19 4 7 16 24 26 39 65 95
75 246 34 526 -14 96 -26 180 -26 186 0 10 13 11 53 5 111 -18 378 -27 545
-19 235 12 505 50 682 94 78 20 79 19 84 -16z m9756 -636 l0 -538 -6342 -2452
c-3489 -1348 -6351 -2454 -6360 -2458 -17 -6 -17 31 -12 663 5 475 10 671 18
679 6 6 344 127 751 269 3973 1384 8130 2903 11410 4169 292 112 531 205 533
205 1 1 2 -241 2 -537z m-15825 479 c209 -30 327 -41 568 -51 121 -4 220 -10
221 -12 2 -2 -3 -66 -10 -143 -20 -209 -19 -350 1 -410 32 -95 117 -200 196
-241 54 -27 490 -166 644 -204 544 -135 1119 -174 1609 -109 43 6 79 9 81 7 8
-8 -636 -238 -668 -238 -47 0 -837 93 -1447 171 -455 57 -1509 196 -1540 202
-8 2 4 13 29 26 65 34 133 108 171 184 42 86 49 172 26 313 -22 134 -66 470
-66 507 0 25 3 28 23 24 12 -3 85 -15 162 -26z m-10988 -200 c301 -55 724
-129 938 -166 215 -37 393 -70 397 -74 7 -7 43 -1399 36 -1407 -3 -2 -84 9
-179 25 -96 17 -520 89 -944 161 -423 71 -780 132 -792 135 l-23 5 0 679 c0
598 3 741 16 741 2 0 250 -45 551 -99z m2854 -491 c828 -137 1492 -243 2214
-356 308 -48 563 -90 567 -94 7 -5 -49 -1410 -56 -1417 -7 -7 -3348 556 -3358
566 -3 3 -13 290 -22 636 -17 649 -19 775 -12 775 2 0 302 -49 667 -110z
m14979 -257 c0 -98 5 -459 10 -802 6 -343 9 -625 7 -627 -10 -10 -2007 -718
-2011 -712 -1 1 -12 347 -24 768 -12 421 -23 776 -25 789 -2 23 13 30 298 134
567 207 1730 626 1738 627 4 0 7 -80 7 -177z m63450 -772 l0 -509 -62 19
c-397 121 -1043 96 -1683 -66 -294 -74 -403 -125 -520 -243 -65 -66 -119 -168
-137 -257 -7 -33 -13 -61 -14 -63 -1 -1 -41 5 -90 14 -190 34 -624 29 -911
-11 -54 -8 -99 -13 -100 -11 -1 1 4 234 12 517 8 283 15 559 15 615 l0 100
253 23 c966 85 2530 270 3102 365 44 8 92 14 108 15 l27 1 0 -509z m-74181
359 c930 -139 2862 -420 2897 -420 3 0 2 -5 -2 -12 -4 -7 -13 -335 -19 -730
-7 -395 -14 -721 -17 -724 -13 -12 -3528 533 -3545 550 -4 4 41 1108 53 1319
5 88 9 107 22 107 9 0 284 -40 611 -90z m69856 -447 c-3 -71 -8 -212 -11 -315
l-6 -186 -82 39 c-379 180 -1067 181 -1801 3 -268 -66 -378 -109 -486 -192
l-64 -49 6 353 c3 194 7 355 10 357 2 2 180 9 394 16 568 17 1289 53 1760 86
99 7 203 13 232 14 l52 1 -4 -127z m-61994 -5 c6 -13 46 -1565 41 -1570 -4 -4
-206 -76 -449 -161 l-443 -154 7 786 c3 432 8 788 10 791 5 5 812 307 826 309
4 1 8 0 8 -1z m-3676 -143 c449 -59 1590 -202 1843 -231 l152 -17 0 -752 0
-752 -62 8 c-557 71 -1450 190 -2218 297 l-195 27 2 430 c1 237 5 570 9 741 6
310 6 311 28 307 11 -2 210 -28 441 -58z m15526 -1566 c-3 -3 -343 -139 -756
-302 -412 -163 -993 -393 -1290 -510 -297 -118 -542 -213 -544 -211 -3 3 13
851 28 1403 l6 244 1275 492 1275 493 6 -801 c4 -441 4 -805 0 -808z m44124
945 l-7 -321 -292 -6 c-360 -7 -582 -30 -871 -91 -66 -14 -122 -22 -126 -18
-3 4 -14 102 -23 217 -10 116 -28 318 -41 450 -13 131 -23 240 -22 241 1 1 38
-3 82 -9 44 -6 238 -11 430 -11 333 -1 523 9 770 37 l100 12 3 -90 c2 -49 0
-235 -3 -411z m11904 269 c24 -93 46 -173 48 -179 3 -8 -56 -13 -189 -17 -162
-5 -377 -26 -550 -54 l-38 -6 0 202 0 201 213 1 c116 1 253 4 302 8 50 5 108
9 130 9 l41 2 43 -167z m-83015 -128 c210 -35 1029 -175 1821 -309 4699 -800
6591 -1105 8865 -1430 874 -125 2232 -309 2690 -363 l65 -8 -4 -670 c-2 -369
-5 -672 -7 -674 -4 -5 -588 77 -1954 274 -3022 436 -6277 934 -9150 1400 -913
148 -2730 452 -2735 457 -10 10 8 1388 18 1388 6 0 182 -29 391 -65z m72590
-319 c340 -152 628 -282 639 -288 18 -9 5 -14 -88 -33 -157 -32 -219 -51 -310
-98 -125 -64 -262 -210 -300 -318 -8 -21 -37 -150 -65 -286 -28 -136 -54 -255
-57 -263 -3 -8 -16 80 -30 195 -25 223 -45 305 -91 366 -136 183 -207 260
-306 329 l-49 35 7 209 c3 115 6 261 6 324 0 87 3 113 13 109 6 -3 290 -129
631 -281z m-5104 84 c278 -57 625 -82 1100 -78 l365 2 31 -354 c17 -195 33
-379 35 -409 l4 -54 -50 -14 c-179 -47 -450 -64 -671 -44 -160 15 -358 51
-534 97 -147 38 -462 141 -486 158 -13 10 -12 29 5 161 37 275 85 555 95 555
6 0 54 -9 106 -20z m-43903 -762 c-4 -112 -12 -484 -18 -828 -6 -344 -12 -625
-12 -626 -1 0 -303 -121 -672 -268 -1136 -454 -3229 -1296 -4480 -1804 -148
-61 -271 -106 -273 -102 -3 9 47 1743 51 1746 10 7 5385 2082 5396 2083 12 1
13 -31 8 -201z m53186 -310 c-48 -371 -103 -951 -103 -1091 0 -56 -1 -58 -32
-72 -18 -7 -80 -24 -138 -37 -92 -20 -131 -23 -310 -23 -186 1 -215 3 -315 27
-60 14 -139 37 -175 50 l-64 25 -37 404 c-34 379 -62 647 -75 729 l-6 36 329
0 c316 0 551 12 773 39 58 7 119 13 136 14 l30 1 -13 -102z m4403 30 c-37
-361 -47 -467 -58 -630 l-12 -188 -35 -10 c-236 -61 -750 -111 -960 -92 l-85
7 -77 465 c-43 256 -78 471 -79 479 0 10 9 12 38 7 20 -3 133 -11 250 -17 268
-15 645 0 1011 39 11 2 12 -10 7 -60z m2455 -693 c37 -220 64 -403 60 -407 -8
-8 -126 -44 -207 -63 -122 -28 -296 -45 -463 -45 -195 0 -315 10 -529 46 -158
26 -539 117 -554 132 -5 5 -4 85 2 183 10 173 40 532 44 536 1 1 51 -4 112
-13 255 -36 883 -28 1249 16 83 10 166 17 185 16 l35 -1 66 -400z m-4442 -271
c34 -207 61 -377 59 -379 -2 -2 -70 -12 -153 -24 -384 -54 -839 -78 -1158 -62
-201 10 -425 36 -439 49 -13 13 36 748 51 764 3 3 56 -1 116 -10 165 -24 851
-23 1105 1 102 10 210 22 240 26 30 5 69 9 86 10 l31 1 62 -376z m-9036 302
c319 -64 868 -98 1262 -78 99 5 182 8 184 6 3 -3 60 -608 73 -779 l3 -40 -86
-22 c-251 -63 -617 -58 -964 12 -244 50 -705 192 -705 219 1 52 100 706 107
706 2 0 59 -11 126 -24z m-986 -45 c-4 -16 -20 -130 -37 -253 -17 -123 -32
-227 -33 -231 -1 -4 -134 91 -294 211 l-293 219 62 7 c33 3 85 6 114 6 70 0
280 27 379 50 111 25 108 25 102 -9z m-42164 -238 c4 -131 8 -524 9 -873 l2
-635 -403 -163 c-222 -90 -405 -162 -406 -160 -1 2 5 400 14 886 l16 883 375
149 c206 82 378 149 381 149 3 1 9 -106 12 -236z m46320 192 c135 -27 317 -49
537 -65 160 -12 758 -15 851 -4 50 6 59 4 59 -9 0 -9 16 -191 35 -404 19 -213
35 -393 35 -399 0 -11 -51 -25 -185 -50 -129 -25 -424 -29 -595 -10 -258 30
-567 105 -852 206 -112 40 -118 43 -118 70 0 36 34 295 65 490 28 173 33 200
40 200 3 0 61 -11 128 -25z m-5893 -245 l170 -125 0 -55 c0 -91 -30 -1712 -33
-1749 l-2 -33 -162 131 -163 132 0 915 c0 595 3 914 10 912 5 -1 86 -59 180
-128z m-67165 -9 l640 -107 -4 -579 c-2 -319 -7 -668 -10 -776 l-6 -196 -140
24 c-310 52 -600 125 -927 230 l-208 67 0 190 c0 105 -3 431 -7 724 -5 455 -4
532 8 531 8 0 302 -49 654 -108z m2299 -382 c6 -8 -16 -614 -22 -620 -18 -17
-804 -431 -808 -426 -4 3 -3 271 1 594 l8 589 409 -67 c224 -36 410 -68 412
-70z m22826 -126 c0 -93 -5 -366 -10 -608 -15 -684 -14 -893 3 -941 l15 -41
-687 -276 c-377 -152 -691 -277 -697 -277 -7 0 -14 32 -18 83 -19 219 -74 560
-122 752 -79 319 -179 521 -323 657 l-69 65 812 323 c446 177 870 346 941 375
72 29 136 54 143 54 9 1 12 -39 12 -166z m-21125 -142 c446 -70 810 -132 810
-137 -1 -5 -4 -215 -9 -468 l-8 -458 -27 5 c-14 3 -393 64 -841 138 -448 73
-816 133 -817 134 -4 2 17 732 23 832 l6 92 26 -5 c15 -3 392 -63 837 -133z
m64364 -235 l174 -131 -7 -190 c-12 -347 -76 -1638 -81 -1643 -1 -2 -80 56
-175 129 -145 113 -170 136 -165 154 16 51 24 275 35 1010 6 435 14 796 16
803 5 17 -3 22 203 -132z m-62274 -90 c753 -116 1925 -293 2650 -401 391 -58
726 -107 745 -110 l35 -6 -3 -57 c-1 -31 -11 -252 -21 -490 -11 -239 -21 -435
-23 -437 -3 -3 -2998 485 -3781 616 l-68 11 6 377 c7 450 12 561 29 561 6 0
200 -29 431 -64z m10955 -833 c-14 -485 -28 -884 -31 -887 -2 -2 -139 -59
-304 -126 -388 -158 -1702 -696 -2284 -934 -249 -103 -456 -184 -459 -181 -6
6 15 1481 24 1701 l6 140 51 12 c29 6 720 270 1537 586 817 316 1485 573 1486
573 0 -1 -12 -399 -26 -884z m55236 691 c49 -20 100 -41 114 -47 21 -9 -2 -13
-125 -23 -82 -7 -170 -13 -194 -13 l-43 -1 59 39 c32 22 67 49 78 60 10 12 19
21 20 21 1 0 42 -16 91 -36z m11287 -2134 c-5 -4 -132 -15 -283 -24 -151 -9
-617 -39 -1034 -66 -418 -28 -761 -49 -762 -47 -3 2 -42 1910 -40 1913 1 1
406 29 901 63 495 35 972 68 1060 74 l160 12 3 -959 c1 -528 -1 -963 -5 -966z
m-2952 1653 c0 -38 8 -468 18 -958 10 -489 18 -890 17 -891 -4 -3 -2580 -173
-2583 -170 -2 2 11 437 29 968 l32 965 116 7 c246 14 1885 117 2065 130 105 7
216 14 248 15 l57 1 1 -67z m-69068 -193 c7 -7 -38 -1008 -45 -1016 -5 -4
-1185 183 -1195 190 -3 2 39 980 42 992 2 7 203 -18 598 -75 328 -47 598 -88
600 -91z m57950 47 l68 -52 2 -957 c1 -635 -1 -954 -8 -950 -5 3 -74 55 -153
115 l-142 108 5 137 c17 410 37 847 57 1254 l22 457 40 -30 c23 -16 72 -53
109 -82z m-46902 8 c95 -9 114 -19 142 -83 93 -209 164 -695 208 -1412 17
-284 23 -1361 10 -1775 -32 -1002 -104 -1921 -192 -2415 -40 -227 -51 -254
-158 -379 -153 -176 -466 -393 -841 -581 l-137 -69 -7 387 c-14 774 -28 1282
-76 2707 -40 1176 -58 1764 -70 2305 -11 511 -16 1118 -9 1124 3 3 74 25 160
50 271 79 533 132 724 146 98 7 131 6 246 -5z m54693 -122 c-3 -71 -18 -507
-34 -971 -15 -464 -30 -845 -32 -847 -5 -5 -1801 -125 -1806 -121 -5 6 34
1945 39 1951 3 2 414 28 914 58 501 30 913 55 917 56 4 0 5 -56 2 -126z
m-2674 -110 c-1 -173 -38 -1885 -42 -1887 -7 -6 -4140 -277 -4146 -272 -17 18
-45 1863 -29 1928 7 25 10 26 109 32 275 18 561 41 1083 86 706 62 913 77
1230 90 138 6 579 31 980 54 402 24 749 44 773 45 l42 1 0 -77z m-61832 5
l372 -51 0 -171 c-1 -282 -29 -1688 -34 -1693 -3 -3 -176 63 -386 146 -210 83
-388 151 -396 151 -29 0 -30 -55 21 1155 19 448 24 515 38 515 7 0 180 -23
385 -52z m-10533 -520 c-3 -288 -9 -531 -11 -540 -3 -10 -161 -101 -391 -225
-213 -114 -390 -209 -395 -211 -9 -4 -9 565 1 872 l6 200 395 212 c217 117
397 213 399 213 2 1 0 -234 -4 -521z m-2768 227 c262 -80 674 -173 948 -215
77 -11 150 -23 163 -26 l22 -4 0 -258 c0 -141 -3 -388 -7 -549 l-6 -291 -46
14 c-224 71 -717 181 -1020 228 -90 14 -165 27 -166 28 -6 7 -16 1108 -11
1108 4 0 59 -16 123 -35z m21143 -12 c0 -101 22 -1092 30 -1388 17 -593 39
-1305 44 -1391 l5 -81 -152 -58 c-219 -83 -483 -196 -972 -418 -236 -107 -490
-220 -562 -251 -155 -66 -432 -176 -444 -176 -22 0 36 1647 66 1898 67 545
279 991 583 1222 97 74 733 387 1207 594 94 41 176 75 183 75 7 1 12 -11 12
-26z m-16690 -149 c459 -75 836 -138 838 -140 4 -3 -18 -1067 -23 -1072 -1 -2
-375 58 -829 132 -454 75 -830 136 -836 136 -6 0 -10 75 -10 208 0 309 12 872
19 872 3 0 382 -61 841 -136z m22827 -1054 l-2 -544 -160 -69 c-656 -282
-1366 -564 -2010 -797 -339 -123 -797 -282 -800 -278 -2 2 1 174 7 383 5 209
7 574 3 810 l-6 430 1478 596 1478 595 7 -290 c4 -160 7 -536 5 -836z m-19213
461 c1038 -171 1890 -311 1891 -313 2 -2 -3 -154 -10 -338 -7 -184 -16 -424
-20 -532 -6 -163 -10 -198 -22 -198 -17 0 -3796 619 -3799 623 -1 1 2 182 6
402 5 220 9 462 10 538 l0 139 28 -6 c15 -3 877 -145 1916 -315z m10444 -258
c-43 -114 -103 -324 -132 -465 -53 -260 -69 -421 -88 -879 l-12 -307 -65 -4
c-51 -4 -124 -27 -326 -103 -472 -177 -873 -349 -1775 -762 -625 -287 -996
-452 -1250 -558 -243 -101 -432 -177 -435 -173 -4 5 32 1659 36 1663 11 10
4054 1664 4071 1665 3 0 -7 -35 -24 -77z m50132 -388 c272 -209 712 -546 978
-749 l483 -369 -6 -126 c-7 -154 -33 -1108 -40 -1511 -3 -162 -8 -309 -11
-327 l-5 -32 -187 138 c-259 190 -388 280 -927 651 -258 178 -551 382 -649
453 l-179 130 6 711 c10 1065 18 1426 31 1419 6 -4 234 -178 506 -388z
m-57242 99 c323 -53 588 -97 590 -99 6 -5 -33 -1063 -39 -1069 -6 -5 -1188
190 -1195 197 -6 6 21 862 32 995 3 39 10 72 16 72 5 0 274 -43 596 -96z
m-8666 -1233 l-7 -553 -393 -210 c-217 -115 -395 -208 -397 -206 -8 8 14 1343
21 1345 5 2 182 97 394 211 l385 208 2 -120 c2 -67 0 -370 -5 -675z m81348
-480 l0 -1179 -62 -6 c-84 -8 -2191 -126 -2245 -126 l-43 0 0 338 c0 456 -19
636 -87 827 -60 168 -175 337 -294 431 -33 27 -69 56 -79 64 -17 13 -21 47
-36 323 -9 169 -14 310 -11 313 3 3 407 32 899 65 491 32 1123 74 1403 93 281
19 520 34 533 35 l22 1 0 -1179z m-83895 1042 c301 -58 541 -119 803 -204
l124 -41 -7 -706 c-4 -389 -9 -709 -11 -710 -1 -2 -72 17 -156 42 -306 91
-737 181 -970 202 l-78 7 0 730 0 729 58 -7 c31 -4 138 -22 237 -42z m4254
-114 l814 -134 -6 -380 c-18 -994 -18 -997 -41 -991 -12 2 -387 64 -835 138
l-814 133 6 389 c4 214 7 524 7 689 l0 300 28 -6 c15 -3 393 -65 841 -138z
m75945 -21 c3 -13 8 -86 11 -163 l7 -140 -379 -1 c-403 -1 -608 -12 -1188 -65
-295 -26 -1028 -103 -1225 -128 -41 -5 -76 -8 -78 -6 -2 2 -1 78 3 169 l7 165
42 5 c89 12 484 32 538 28 32 -2 81 2 110 8 51 12 1930 146 2075 149 68 1 73
-1 77 -21z m-67141 -263 l377 -150 0 -119 c0 -136 -30 -1570 -33 -1572 -1 -1
-190 87 -421 194 l-419 196 7 190 c3 105 13 434 21 731 8 297 18 577 21 622
l6 83 31 -13 c18 -7 202 -80 410 -162z m63457 -148 l0 -193 -95 -27 c-264 -74
-476 -199 -675 -397 -205 -205 -362 -467 -465 -773 -73 -221 -107 -424 -121
-719 -6 -143 -7 -148 -28 -148 -11 0 -342 -31 -735 -70 -393 -38 -717 -67
-720 -64 -3 3 -6 542 -6 1197 l0 1192 1300 87 c1253 84 1537 103 1543 107 1 0
2 -86 2 -192z m-68696 -153 l1888 -309 -6 -110 c-3 -60 -13 -369 -22 -685 -9
-316 -17 -576 -18 -576 -1 -2 -3780 618 -3784 621 -4 3 18 1225 24 1303 4 50
10 72 17 69 7 -2 862 -143 1901 -313z m65009 -136 c4 -128 7 -673 7 -1210 l0
-977 -32 -5 c-56 -10 -2119 -208 -2123 -204 -5 5 53 2288 61 2406 5 74 8 83
27 86 12 3 459 32 992 66 534 33 979 62 990 64 11 2 32 4 46 5 l26 1 6 -232z
m-45733 -486 l0 -628 -947 -432 c-522 -237 -956 -434 -965 -438 -17 -6 -18 23
-18 518 0 289 3 599 7 690 l6 165 36 13 c326 114 1373 524 1736 679 77 33 141
60 143 61 1 0 2 -283 2 -628z m-15960 78 c305 -50 568 -93 583 -96 l28 -6 -6
-141 c-3 -78 -12 -384 -20 -681 -8 -296 -16 -540 -18 -543 -7 -6 -1190 188
-1200 197 -8 7 13 884 29 1232 6 134 7 138 28 133 11 -3 271 -46 576 -95z
m69210 -54 c163 -29 272 -71 303 -119 31 -48 48 -133 57 -292 5 -88 10 -2203
12 -4700 3 -4784 5 -4595 -39 -4775 -58 -235 -187 -354 -504 -465 -103 -36
-368 -104 -484 -124 -162 -28 -2319 -277 -2739 -316 -265 -25 -563 -54 -663
-65 -181 -20 -326 -24 -373 -11 -13 4 -33 22 -45 41 -20 35 -20 41 -20 2110 1
1949 6 2539 35 3835 27 1198 75 2716 110 3489 14 311 49 463 151 667 113 226
295 398 474 448 108 30 1822 219 2415 266 376 30 458 33 835 30 302 -2 399 -6
475 -19z m-62276 -978 c3 -398 9 -768 12 -824 l6 -100 -133 -58 c-126 -55
-455 -202 -1409 -632 -223 -100 -407 -181 -409 -179 -2 3 2 282 8 622 7 340
14 721 16 848 l3 229 259 119 c378 173 850 382 1075 476 190 79 546 219 559
221 3 0 9 -325 13 -722z m6264 -175 c-1 -390 0 -718 2 -731 5 -22 -10 -30
-210 -122 -118 -53 -216 -97 -217 -96 -1 1 9 68 22 148 44 271 94 738 130
1217 8 112 16 205 17 206 5 4 242 83 251 84 4 1 7 -317 5 -706z m-3268 615 c0
-29 7 -262 15 -518 15 -492 30 -1165 40 -1821 6 -379 6 -396 -12 -402 -10 -3
-110 -37 -223 -77 -271 -94 -815 -267 -910 -288 -117 -26 -359 -23 -475 6
-301 76 -464 248 -495 523 -45 399 -116 1709 -94 1728 5 4 65 26 134 48 267
86 588 219 1205 499 368 166 793 353 808 354 4 0 7 -24 7 -52z m-18538 -1002
l-7 -448 -100 -45 c-141 -64 -687 -284 -692 -280 -2 3 -1 256 3 564 l7 559
396 211 396 210 2 -161 c2 -88 0 -363 -5 -610z m1698 503 c437 -71 796 -132
798 -134 4 -3 -18 -1239 -22 -1241 0 0 -372 61 -825 135 l-824 136 7 110 c3
60 6 341 6 623 l0 513 33 -6 c17 -3 390 -64 827 -136z m64105 -149 c618 -424
1049 -737 1379 -1001 l129 -102 -6 -151 c-4 -83 -14 -522 -23 -976 -10 -454
-19 -827 -20 -829 -2 -2 -429 288 -949 643 l-945 647 0 518 c0 285 3 748 7
1029 l6 511 41 -28 c23 -15 194 -133 381 -261z m-68447 210 c333 -54 753 -167
985 -265 l32 -13 -3 -524 c-3 -516 -7 -648 -22 -648 -16 0 -1145 262 -1150
267 -3 2 -7 274 -8 604 l-4 599 24 0 c12 0 78 -9 146 -20z m7846 -635 c1024
-168 1873 -308 1887 -311 18 -3 26 -10 23 -22 -1 -9 -8 -287 -15 -617 -6 -330
-13 -601 -14 -603 -3 -3 -3729 606 -3759 615 -18 5 -19 15 -13 202 4 108 10
386 13 619 4 232 9 422 12 422 3 0 843 -137 1866 -305z m7592 23 c-3 -73 -11
-452 -18 -843 -8 -489 -15 -712 -22 -717 -47 -32 -1082 -446 -1091 -437 -2 3
4 384 13 848 l17 843 205 77 c254 96 495 193 710 287 91 40 171 72 179 73 11
1 12 -23 7 -131z m-2331 -83 c209 -97 384 -180 388 -184 6 -6 -21 -1641 -27
-1648 -1 -1 -70 26 -153 62 -178 76 -462 182 -588 220 -49 16 -94 32 -99 36
-9 8 20 1618 30 1686 5 33 5 33 37 19 18 -8 203 -94 412 -191z m14101 -697
c-4 -442 -9 -841 -12 -888 l-6 -85 -216 -122 c-712 -400 -1483 -807 -2537
-1339 -593 -299 -1515 -754 -1529 -754 -3 0 -6 456 -6 1013 l1 1012 2152 981
c1184 540 2154 982 2156 983 2 0 1 -360 -3 -801z m56789 -465 c-4 -588 -8
-1069 -9 -1070 -2 -2 -2306 -263 -2321 -263 -3 0 -5 511 -5 1135 l0 1135 28 1
c15 0 515 29 1112 63 597 35 1111 64 1144 65 l58 1 -7 -1067z m-72790 671
c325 -53 591 -98 593 -100 6 -4 -19 -1136 -26 -1190 l-7 -50 -599 98 c-330 54
-602 100 -604 102 -5 6 17 1044 24 1154 4 52 10 82 17 82 7 0 278 -43 602 -96z
m64030 -286 c-8 -135 -30 -871 -51 -1643 -9 -341 -18 -622 -20 -624 -3 -3
-537 -62 -1187 -131 l-1182 -126 -2 131 c-12 646 -32 2249 -29 2253 5 4 2376
239 2439 241 l38 1 -6 -102z m-3305 -369 c0 -83 7 -621 16 -1196 8 -575 14
-1046 12 -1047 -4 -3 -1233 -133 -1236 -131 -2 2 49 2409 52 2411 1 2 1102
111 1134 113 22 1 22 0 22 -150z m-53657 -201 c10 -123 27 -268 38 -323 86
-426 336 -761 722 -964 l74 -39 -31 -15 c-211 -100 -1578 -718 -1582 -714 -3
2 -9 371 -15 818 -6 448 -14 879 -18 959 -4 80 -7 146 -7 147 2 4 783 352 791
353 6 0 18 -90 28 -222z m-15644 -205 c-1 -175 -4 -444 -8 -598 l-6 -279 -75
-43 c-165 -95 -680 -343 -711 -343 -11 0 -11 297 -2 853 l6 405 156 66 c266
112 615 254 629 255 9 1 12 -68 11 -316z m1653 103 c444 -73 811 -135 814
-139 6 -6 -14 -1189 -20 -1195 -2 -1 -367 73 -811 166 l-808 168 1 449 c2 362
9 687 16 685 1 -1 364 -60 808 -134z m-3867 -31 c303 -69 557 -128 565 -130
14 -5 15 -305 1 -1156 l-1 -85 -561 122 c-309 68 -563 124 -564 126 -1 2 -5
285 -9 630 -5 508 -4 627 6 623 7 -2 261 -61 563 -130z m7420 -551 c1029 -169
1871 -308 1873 -309 3 -2 -19 -1399 -22 -1401 0 -1 -849 174 -1886 390 l-1885
391 0 125 c1 69 5 347 9 618 8 445 10 492 25 492 9 0 858 -138 1886 -306z
m8800 154 c4 -22 27 -1910 22 -1914 -3 -2 -2378 -1084 -2395 -1091 -10 -4 -12
19 -7 113 2 66 10 531 16 1034 8 655 15 918 23 926 6 6 81 35 166 64 351 119
954 363 1640 663 195 85 389 171 430 190 90 42 98 43 105 15z m5434 -1479 l1
-937 -547 -260 c-639 -304 -1080 -512 -1793 -844 -1158 -540 -3354 -1548
-3373 -1548 -7 0 -8 53 -4 168 4 92 10 566 14 1054 l6 886 441 201 c243 111
1521 693 2841 1295 l2400 1094 6 -87 c4 -47 7 -507 8 -1022z m46872 424 c512
-350 934 -644 937 -652 6 -16 -45 -2472 -52 -2478 -6 -6 -654 482 -1006 756
-269 210 -491 389 -719 580 l-113 96 6 464 c3 255 6 781 6 1168 0 386 2 703 5
703 3 0 424 -287 936 -637z m-56120 462 c201 -80 422 -179 553 -248 l79 -42
-7 -295 c-3 -162 -8 -506 -11 -765 -3 -258 -8 -525 -11 -593 l-6 -122 -112 59
c-61 32 -255 132 -431 222 l-320 162 2 56 c2 31 10 387 18 791 15 721 23 850
52 850 3 0 90 -34 194 -75z m-1678 -104 c329 -54 601 -102 604 -105 6 -5 -25
-1477 -31 -1483 -3 -3 -1187 244 -1191 249 -3 2 0 258 5 569 5 310 10 633 10
717 0 83 1 152 3 152 1 0 271 -45 600 -99z m72834 -1668 c-4 -641 -9 -1169
-12 -1171 -3 -3 -501 -60 -1107 -128 -607 -68 -1122 -126 -1145 -129 l-43 -6
0 1170 c0 644 3 1171 8 1172 4 0 513 58 1132 128 619 71 1136 129 1149 130
l24 1 -6 -1167z m-79689 768 c419 -87 765 -161 769 -164 6 -7 -14 -1147 -20
-1154 -4 -3 -1487 323 -1581 348 l-39 10 7 192 c3 106 9 361 12 568 l7 376 41
-9 c22 -4 384 -80 804 -167z m-1685 -48 c-12 -686 -43 -2015 -47 -2020 0 -1
-172 40 -381 91 l-380 92 3 569 c1 314 5 683 8 820 l6 250 127 49 c165 64 442
182 560 240 52 25 97 46 100 46 3 0 5 -62 4 -137z m-2178 -61 l540 -118 -4
-720 c-1 -395 -5 -721 -7 -723 -4 -4 -402 95 -816 204 l-256 68 -6 121 c-3 66
-8 383 -11 704 -5 478 -4 582 7 582 7 0 256 -53 553 -118z m7380 -621 l1870
-388 -4 -614 c-2 -338 -5 -615 -6 -617 -2 -3 -3788 838 -3791 841 -1 1 3 266
9 589 11 586 11 587 31 582 12 -2 863 -179 1891 -393z m67341 -43 c-4 -200
-11 -731 -16 -1182 -5 -524 -12 -821 -18 -825 -16 -10 -803 -84 -810 -76 -7 6
-20 2335 -14 2345 2 2 195 26 430 51 235 26 429 47 431 48 2 0 0 -162 -3 -361z
m-1693 -535 c4 -388 7 -916 7 -1172 l0 -466 -1402 -137 c-771 -76 -1403 -136
-1405 -134 -2 1 3 286 11 632 9 346 20 868 27 1159 6 292 13 532 15 534 5 5
2644 289 2700 290 l41 1 6 -707z m-48618 167 c894 -1122 2182 -2726 7240
-9010 4671 -5804 6898 -8577 7057 -8790 l26 -35 -134 -180 c-1254 -1679 -1954
-3740 -1954 -5750 0 -2091 745 -4015 2194 -5665 227 -259 669 -691 961 -941
853 -728 1871 -1328 2920 -1722 603 -226 1252 -397 1848 -488 l147 -23 0 -55
c0 -31 27 -951 60 -2046 33 -1094 60 -2029 60 -2076 l0 -85 -57 -18 c-220 -68
-387 -243 -423 -442 -11 -60 -217 -798 -239 -857 -8 -20 -15 -22 -65 -19 -34
2 -56 8 -56 15 0 7 -23 224 -50 482 -28 259 -68 643 -90 855 -23 225 -46 404
-55 430 -82 233 -417 449 -875 565 -192 49 -333 67 -566 72 -245 6 -362 -3
-543 -43 -289 -64 -504 -176 -669 -348 -94 -99 -150 -179 -184 -266 -13 -36
-105 -269 -204 -518 l-179 -454 -162 4 c-90 1 -163 4 -163 5 0 17 -118 737
-140 861 -33 179 -75 320 -117 392 -95 164 -355 341 -653 445 -727 252 -1500
186 -1919 -165 -138 -116 -165 -160 -317 -501 -134 -303 -138 -310 -163 -304
-258 54 -753 67 -1134 29 -425 -42 -563 -90 -722 -249 -87 -86 -94 -96 -149
-220 -202 -451 -414 -1023 -606 -1641 l-53 -172 -63 -45 c-40 -29 -77 -67
-100 -104 -21 -32 -52 -80 -70 -108 -17 -27 -107 -194 -199 -370 -1050 -2004
-2356 -4389 -3655 -6675 -180 -316 -358 -630 -396 -697 -38 -67 -71 -123 -74
-123 -3 0 -65 56 -137 124 -908 854 -2511 2340 -6193 5746 -4005 3704 -6080
5633 -6080 5650 0 3 82 47 183 97 641 325 1372 783 1999 1255 1349 1014 2545
2298 3459 3714 1903 2949 2583 6339 1894 9436 -434 1947 -1416 3860 -2818
5489 -340 395 -881 953 -1237 1275 -1045 947 -2146 1698 -3383 2307 l-328 162
6 70 c17 221 46 1747 85 4490 43 3007 73 4570 89 4587 3 4 294 139 646 301
2350 1080 4352 2028 5615 2659 239 119 442 216 451 215 9 -1 204 -238 434
-527z m-13721 -276 l579 -119 -7 -225 c-15 -486 -36 -1023 -40 -1027 -4 -4
-1138 245 -1142 250 0 1 1 282 4 625 3 454 8 622 16 619 6 -2 271 -57 590
-123z m1988 -418 l307 -157 -6 -1287 c-3 -708 -6 -1288 -7 -1288 -1 -2 -970
218 -973 220 -2 1 4 144 12 317 24 520 43 1000 65 1669 11 349 23 677 26 728
l6 92 131 -69 c73 -37 270 -139 439 -225z m2429 -731 c-6 -313 -11 -732 -11
-931 l0 -360 -642 -292 c-353 -160 -644 -289 -646 -287 -3 2 -1 476 3 1053 l8
1049 646 295 646 294 3 -125 c2 -70 -2 -382 -7 -696z m-11309 570 c433 -96
789 -175 792 -175 3 0 6 -108 6 -240 0 -132 -3 -240 -6 -240 -7 0 -1461 342
-1561 367 l-63 15 0 102 c0 55 3 158 7 229 5 110 8 127 22 123 9 -3 370 -84
803 -181z m63931 -373 c262 -207 479 -373 1052 -804 297 -224 554 -419 571
-435 l31 -28 -8 -315 c-30 -1162 -40 -1531 -45 -1727 l-7 -222 -176 163 c-97
89 -327 299 -511 466 -573 521 -1094 1009 -1103 1033 -2 7 -1 208 4 447 4 239
10 686 14 993 4 306 9 557 12 557 2 0 77 -58 166 -128z m-60363 -420 l1875
-418 3 -257 c1 -141 0 -257 -2 -257 -11 0 -2039 464 -3348 766 l-468 108 0
191 c0 104 3 214 7 243 6 51 7 53 32 47 14 -3 870 -194 1901 -423z m76175
-1029 c-4 -571 -8 -1039 -9 -1040 -1 -1 -191 -23 -422 -48 -503 -55 -1290
-143 -1689 -189 -159 -19 -292 -32 -294 -31 -1 2 6 32 18 67 92 279 111 520
111 1396 0 342 1 622 3 623 3 1 2258 256 2276 258 11 1 12 -164 6 -1036z
m-72891 297 c296 -66 540 -121 541 -122 4 -6 -20 -507 -25 -511 -4 -3 -919
201 -1067 238 l-23 5 0 259 c0 242 1 259 18 255 9 -3 260 -58 556 -124z
m64047 -757 c1 -926 12 -1450 33 -1532 9 -35 14 -66 11 -69 -9 -10 -2495 -295
-2503 -287 -5 4 -28 1427 -33 2030 l-2 270 1229 121 c676 67 1237 122 1247
123 16 1 17 -37 18 -656z m-3327 40 c15 -700 28 -2015 20 -2022 -5 -4 -232
-32 -504 -60 -272 -29 -549 -58 -615 -65 -66 -8 -122 -12 -123 -11 -2 2 3 255
12 562 9 307 23 830 32 1163 8 333 17 606 18 607 4 4 1071 110 1117 112 l36 1
7 -287z m-59809 -8223 c1960 -71 3785 -536 5535 -1411 714 -357 1323 -727
1959 -1189 970 -704 1876 -1566 2617 -2490 579 -722 1054 -1460 1454 -2260
691 -1381 1063 -2768 1141 -4255 15 -285 6 -1050 -15 -1315 -146 -1819 -690
-3537 -1643 -5193 -789 -1372 -1850 -2633 -3068 -3647 -2021 -1684 -4393
-2691 -6890 -2925 -803 -75 -1718 -71 -2515 11 -2014 206 -3956 837 -5759
1871 -1432 821 -2705 1880 -3725 3099 -972 1161 -1713 2490 -2136 3827 -248
788 -387 1516 -461 2427 -17 212 -23 1025 -10 1287 113 2207 864 4407 2166
6348 1458 2173 3470 3845 5805 4825 1653 693 3691 1057 5545 990z m63185
-3630 c649 -28 1162 -91 1675 -207 l70 -16 -540 -143 c-1924 -513 -3014 -825
-4070 -1166 -329 -106 -436 -148 -605 -233 -723 -369 -1243 -1077 -1395 -1899
-34 -188 -43 -306 -65 -911 -108 -2902 -163 -5257 -191 -8165 -13 -1385 -6
-5048 10 -5174 6 -44 9 -82 6 -84 -2 -2 -62 31 -132 73 -543 330 -1051 703
-1543 1134 -208 182 -721 696 -905 906 -577 662 -1017 1316 -1385 2060 -520
1050 -789 2046 -882 3265 -19 255 -16 974 6 1250 126 1610 616 3128 1464 4545
701 1169 1608 2178 2672 2970 1567 1166 3404 1772 5470 1803 58 1 211 -2 340
-8z m-28400 -294 c1214 -116 2306 -467 3356 -1082 911 -532 1746 -1257 2421
-2101 704 -881 1239 -1909 1528 -2936 471 -1676 328 -3530 -404 -5258 -677
-1599 -1801 -2985 -3181 -3921 -518 -352 -1091 -649 -1662 -862 -1184 -441
-2496 -556 -3813 -335 -1346 226 -2670 800 -3805 1649 -1646 1233 -2767 2934
-3149 4780 -330 1594 -138 3297 556 4930 84 198 307 654 409 835 323 578 700
1113 1130 1605 158 181 614 636 794 791 924 799 1916 1338 3013 1639 565 154
1087 240 1727 284 145 10 924 -3 1080 -18z m31877 -502 c768 -338 1536 -806
2217 -1350 573 -458 1144 -1026 1597 -1589 1162 -1444 1887 -3119 2073 -4795
44 -393 51 -532 51 -995 -1 -537 -19 -801 -90 -1300 -112 -788 -340 -1614
-655 -2375 -751 -1816 -2002 -3406 -3559 -4525 -1163 -836 -2476 -1383 -3811
-1589 -471 -73 -822 -99 -1335 -100 -827 -1 -1536 87 -2355 294 -187 47 -506
139 -619 177 l-53 19 118 33 c1440 399 2798 838 4154 1343 434 161 648 273
910 474 132 102 355 320 454 444 305 384 502 815 591 1295 33 184 41 289 75
1005 206 4382 266 6695 290 11139 7 1250 6 1805 -1 1880 -18 180 -74 364 -155
509 -19 34 -33 62 -30 62 3 0 63 -25 133 -56z m-1080 -194 c139 -48 248 -173
290 -333 14 -56 15 -203 9 -1617 -18 -4403 -87 -7083 -286 -11255 -23 -471
-46 -873 -55 -929 -86 -569 -404 -1072 -870 -1379 -179 -118 -304 -171 -960
-409 -1138 -414 -2366 -807 -3519 -1128 -544 -151 -672 -175 -881 -168 -201 8
-286 50 -344 171 -67 136 -63 56 -73 1442 -14 1735 4 4445 42 6510 45 2450
155 5943 195 6207 42 282 143 540 304 779 181 269 419 476 705 614 264 127
1646 547 3166 964 584 159 2021 542 2070 551 58 10 142 2 207 -20z m-39221
-20946 c139 -50 337 -99 505 -125 267 -41 650 -30 859 26 30 8 55 13 56 12 1
-1 18 -105 38 -232 20 -126 38 -241 41 -255 5 -24 1 -27 -62 -48 -95 -30 -181
-84 -250 -156 -59 -60 -239 -336 -408 -623 l-78 -133 -61 0 c-97 0 -222 18
-343 50 -64 17 -137 30 -171 30 l-59 0 -7 158 c-26 618 -38 764 -69 840 -22
55 -141 236 -172 262 -8 7 -15 18 -15 25 0 19 82 205 91 205 3 0 51 -16 105
-36z m3826 -249 c133 -42 360 -89 508 -105 226 -25 546 -10 735 34 33 8 60 14
61 13 1 -1 25 -227 53 -502 29 -275 54 -512 57 -527 5 -25 2 -27 -33 -33 -21
-4 -115 -22 -210 -41 -172 -34 -173 -34 -323 -24 -252 17 -424 46 -586 101
-90 31 -92 32 -104 73 -35 118 -150 291 -256 385 -43 39 -212 155 -237 164 -5
1 33 106 83 232 51 127 96 241 101 254 6 14 15 21 24 18 7 -3 65 -22 127 -42z
m-6038 -934 c165 -41 393 -77 626 -101 198 -20 713 -45 774 -38 l34 4 6 -101
c3 -55 11 -230 16 -390 6 -159 12 -302 15 -316 4 -27 4 -27 -98 -40 -130 -18
-637 -18 -797 -1 -405 43 -740 113 -977 204 -57 22 -105 43 -107 47 -8 12 148
470 265 778 l8 22 57 -19 c32 -11 112 -33 178 -49z m12897 -56 c124 -40 359
-89 501 -104 141 -16 438 -13 570 4 62 8 157 26 211 39 79 19 97 21 97 9 0
-17 85 -763 103 -900 l13 -102 -60 -10 c-344 -62 -864 -49 -1120 27 l-60 18
-18 73 c-24 99 -60 162 -143 249 -68 73 -213 178 -308 223 -26 13 -46 28 -43
35 2 6 32 115 67 242 34 128 67 232 72 232 6 0 59 -16 118 -35z m-3466 -95
c194 -35 393 -51 705 -57 275 -5 637 6 752 24 l36 5 17 -76 c10 -43 16 -78 14
-79 -2 -1 -42 -15 -89 -31 -195 -66 -393 -194 -507 -327 -99 -116 -131 -190
-176 -399 l-22 -105 -155 1 c-151 0 -397 20 -418 33 -6 4 -22 83 -36 176 -13
94 -34 195 -45 225 -25 64 -151 227 -246 315 l-64 60 34 120 c46 157 41 148
68 141 12 -3 72 -15 132 -26z m-5585 -586 c258 -87 649 -147 1140 -174 102 -5
237 -10 301 -10 l117 0 6 -77 c11 -133 26 -454 26 -549 l0 -91 -77 -16 c-578
-120 -1280 -37 -1757 208 -97 50 -206 121 -206 134 0 32 183 438 256 569 28
50 39 62 52 56 10 -4 73 -27 142 -50z m2520 -291 c55 -10 90 -22 90 -29 0 -7
-16 -108 -35 -226 -44 -276 -80 -535 -100 -723 -23 -227 -24 -235 -41 -235
-13 0 -14 8 -7 48 14 83 -3 940 -23 1136 -6 52 -4 58 10 53 9 -4 56 -14 106
-24z m-3918 -116 l106 -22 -31 -75 c-27 -66 -31 -87 -31 -177 -1 -86 -3 -102
-16 -98 -8 2 -58 11 -110 21 -52 9 -96 17 -97 18 -1 1 10 31 25 66 24 58 27
77 27 181 -1 79 3 115 10 113 6 -3 59 -15 117 -27z m13875 -101 c243 -68 453
-96 708 -96 167 0 401 23 458 45 9 4 17 3 17 -1 0 -5 23 -202 50 -439 28 -236
53 -455 56 -486 l7 -56 -34 -6 c-98 -18 -302 -38 -448 -43 -260 -10 -632 27
-652 66 -4 8 -16 72 -27 143 -25 163 -55 226 -154 329 -85 87 -152 138 -277
209 -50 29 -91 55 -91 58 0 3 32 85 71 183 l70 176 79 -29 c43 -15 119 -39
167 -53z m-5082 -447 c361 -89 740 -101 1066 -35 63 13 115 23 115 22 7 -6
181 -1003 176 -1008 -13 -12 -256 -38 -461 -49 -431 -24 -990 29 -1400 131
-84 22 -155 40 -156 42 -2 2 28 93 67 203 39 110 116 333 171 496 l100 297
101 -35 c56 -19 155 -47 221 -64z m-3865 62 c243 -39 370 -46 810 -45 234 1
466 6 515 11 50 5 91 9 92 9 2 -1 73 -610 90 -767 l6 -56 -59 -16 c-33 -9
-111 -25 -174 -36 -312 -52 -648 -30 -1055 69 -162 39 -454 126 -467 138 -8 8
12 211 47 477 32 245 33 247 53 241 10 -3 73 -14 142 -25z m-7385 -266 c1750
-328 3160 -596 6960 -1324 3392 -650 5237 -1000 7073 -1345 189 -35 345 -66
348 -69 4 -4 -669 -1362 -681 -1375 -4 -4 -1099 214 -1975 393 -1529 313
-2600 538 -5675 1196 -3706 793 -4886 1041 -6713 1409 -513 103 -936 190 -939
193 -4 4 161 321 530 1018 36 66 56 95 67 93 8 -2 461 -87 1005 -189z m13423
-83 c10 -7 5 -28 -19 -95 -18 -48 -34 -85 -37 -82 -3 2 -13 45 -22 95 l-17 90
41 0 c23 0 47 -4 54 -8z m-3532 -55 c4 -3 -140 -424 -147 -431 -3 -3 -15 81
-28 187 -12 106 -25 207 -28 226 l-6 34 103 -7 c57 -3 105 -8 106 -9z m4277
-553 c145 -74 419 -156 647 -194 241 -41 584 -38 794 6 65 14 71 13 88 -3 14
-15 26 -95 68 -457 28 -241 48 -441 46 -444 -9 -8 -196 -51 -275 -62 -426 -60
-965 26 -1583 255 -71 26 -128 52 -128 57 0 21 101 340 180 568 45 129 87 250
93 268 5 17 12 32 14 32 2 0 27 -12 56 -26z m2817 -573 l275 -6 -85 -34 c-265
-105 -544 -211 -547 -207 -3 3 -33 236 -33 260 0 5 25 5 58 1 31 -4 181 -10
332 -14z m-18467 -537 c1791 -356 3423 -697 7337 -1534 3747 -801 5305 -1127
7135 -1490 171 -34 312 -63 314 -65 3 -4 -1066 -2143 -1078 -2157 -4 -4 -207
40 -451 98 -1714 406 -4065 936 -8610 1939 -2039 450 -3867 856 -4615 1025
-609 138 -1567 357 -1598 366 -16 5 -14 12 19 72 112 203 648 1188 813 1495
106 196 195 357 197 357 2 0 244 -48 537 -106z m19906 -502 c160 -271 291
-494 291 -496 0 -9 -931 -388 -937 -382 -4 4 11 722 23 1064 3 100 10 182 14
182 5 0 75 31 157 69 81 38 151 66 155 63 3 -4 137 -229 297 -500z m-1464 -24
c-2 -24 -10 -299 -16 -613 -6 -313 -14 -573 -18 -577 -7 -8 -609 -241 -1191
-460 -347 -131 -1258 -468 -1265 -468 -1 0 176 355 394 790 l396 789 370 122
c378 124 974 330 1190 412 66 25 126 46 132 46 9 1 11 -12 8 -41z m2484 -1707
l291 -495 -33 -14 c-326 -139 -1622 -661 -2647 -1067 -123 -48 -135 -51 -138
-34 -6 34 39 1234 46 1240 4 3 126 52 272 109 395 152 1402 555 1670 668 129
54 238 96 242 93 4 -3 137 -228 297 -500z m-22491 -441 c1001 -233 2312 -527
4837 -1085 5153 -1138 7418 -1645 9150 -2050 787 -184 890 -208 894 -211 3 -3
-1073 -2158 -1084 -2172 -5 -5 -1403 328 -2530 603 -874 214 -3258 810 -5190
1299 -3508 887 -5458 1370 -7075 1751 -250 60 -459 111 -464 116 -4 4 147 283
336 621 190 337 416 741 503 898 170 308 183 330 191 330 3 0 197 -45 432
-100z m19152 -337 c-1 -191 -40 -1177 -47 -1183 -16 -15 -1748 -673 -2523
-960 -212 -78 -389 -144 -393 -147 -4 -3 171 353 389 789 l397 794 111 38
c493 171 1365 487 1831 665 116 44 216 80 223 80 9 1 12 -21 12 -76z m4424
-1068 l364 -620 -72 -28 c-153 -60 -991 -373 -1370 -512 -311 -114 -401 -143
-407 -133 -5 7 -9 150 -9 318 0 168 -3 491 -7 717 l-6 413 44 19 c24 10 175
72 334 137 160 65 394 162 520 215 127 53 233 96 237 96 4 -1 171 -281 372
-622z m-2325 -1272 l1 -342 -54 -20 c-344 -128 -2650 -951 -2654 -946 -2 2
-10 264 -18 582 -7 318 -18 616 -23 663 -5 47 -8 86 -6 88 1 1 252 99 556 216
623 240 1277 495 1819 709 l365 145 6 -377 c3 -207 7 -530 8 -718z m-22572 33
c1812 -429 3721 -902 7353 -1821 3235 -818 5139 -1290 6760 -1675 327 -77 600
-143 607 -145 7 -2 -204 -433 -534 -1092 -300 -598 -549 -1091 -552 -1095 -4
-4 -295 71 -646 167 -1307 355 -3228 875 -7240 1960 -2266 612 -4727 1279
-5470 1480 -742 202 -1477 401 -1633 443 -214 59 -281 80 -277 91 3 7 106 187
229 400 123 212 340 589 481 836 345 602 335 585 345 585 5 0 264 -60 577
-134z m26149 -895 c250 -426 451 -778 447 -782 -8 -7 -1375 -472 -1428 -485
l-25 -6 0 128 c0 129 -30 1623 -33 1679 l-2 29 254 97 c139 53 263 102 275
108 11 5 29 9 39 8 14 -1 151 -226 473 -776z m-7146 492 c0 -49 7 -346 16
-661 8 -316 14 -575 12 -576 -7 -7 -1857 -653 -2458 -859 -201 -69 -373 -129
-383 -133 -12 -4 115 260 379 789 l398 795 37 6 c58 9 1142 403 1764 640 121
46 223 84 228 85 4 1 7 -38 7 -86z m5300 -1296 c7 -411 11 -750 9 -752 -7 -7
-2804 -943 -2807 -940 -2 2 -21 367 -42 812 -22 461 -44 826 -51 851 -6 23
-10 44 -8 45 2 2 216 79 474 171 419 150 2079 752 2310 838 l90 34 6 -156 c4
-85 12 -492 19 -903z m-3699 -339 c0 -35 17 -416 37 -847 25 -518 34 -785 27
-787 -140 -51 -2258 -744 -2261 -741 -4 4 -43 1436 -44 1608 l0 45 618 218
c339 119 835 295 1102 390 267 96 493 174 503 175 14 1 17 -8 18 -61z m6453
-400 c49 -80 826 -1402 824 -1403 -2 -2 -203 -58 -448 -125 -245 -68 -569
-158 -720 -201 -151 -43 -276 -77 -277 -76 -5 6 -20 1613 -14 1619 7 8 589
206 608 207 7 1 19 -9 27 -21z m-27829 -362 c1841 -500 3197 -867 6470 -1751
3544 -957 7454 -2016 7536 -2041 14 -4 -79 -195 -480 -994 -288 -576 -502
-990 -510 -990 -22 0 -1468 397 -2756 756 -1216 340 -2177 612 -4905 1389
-3777 1075 -5306 1505 -7245 2035 -264 72 -481 132 -482 134 -2 2 51 95 118
207 101 169 455 769 866 1467 65 110 88 142 101 138 9 -3 589 -160 1287 -350z
m26359 -468 c16 -975 17 -1218 5 -1218 -26 0 -2727 -789 -3031 -886 -20 -6
-20 -4 -13 722 l6 729 1167 391 c642 216 1320 444 1507 507 187 64 343 116
346 116 4 1 9 -162 13 -361z m-8033 -584 c11 -439 21 -808 22 -818 2 -17 -62
-40 -533 -193 -1050 -341 -2351 -753 -2358 -748 -2 2 212 433 475 958 l477
956 404 136 c522 176 1475 504 1481 510 2 3 6 3 8 1 2 -2 13 -363 24 -802z
m4162 -521 c-2 -93 -5 -413 -9 -713 l-6 -545 -487 -149 c-649 -199 -1730 -537
-2406 -752 -525 -168 -1516 -487 -1549 -500 -15 -6 -16 55 -14 676 l3 683 290
94 c732 238 2240 735 3150 1038 550 183 1007 334 1015 334 13 1 15 -23 13
-166z m4957 -1033 l0 -359 -82 -25 c-597 -182 -3083 -924 -3086 -922 -2 2 -8
37 -13 76 -24 171 -111 385 -209 515 -27 36 -50 69 -50 74 0 13 3369 997 3428
1000 9 1 12 -77 12 -359z m-27955 -235 c1213 -336 2655 -743 4770 -1345 4909
-1397 6280 -1783 8163 -2295 334 -91 647 -177 695 -191 72 -21 104 -25 170
-22 73 4 113 15 370 106 158 56 292 102 297 102 6 0 10 -132 10 -361 0 -339
-1 -360 -17 -355 -10 3 -270 71 -578 151 -1688 441 -3156 837 -6815 1840
-3106 851 -4487 1226 -5899 1600 -781 207 -1774 465 -1788 465 -10 0 -13 53
-13 241 0 224 1 240 18 235 9 -3 287 -80 617 -171z m17685 -988 l0 -682 -342
-114 c-491 -163 -1669 -561 -2251 -760 -274 -94 -500 -171 -502 -171 -3 0 188
386 424 858 l429 857 343 102 c386 115 1070 329 1559 486 179 58 328 105 333
106 4 1 7 -306 7 -682z m6094 109 c41 -17 99 -68 125 -110 53 -86 52 -15 41
-1786 -21 -3402 -66 -5208 -210 -8410 -37 -817 -47 -985 -66 -1122 -54 -388
-176 -564 -461 -668 -47 -17 -208 -67 -357 -111 -541 -160 -935 -289 -1786
-587 -283 -99 -771 -262 -1085 -362 -313 -100 -696 -222 -850 -271 -294 -94
-398 -120 -415 -103 -6 6 -14 44 -20 85 -15 116 -13 3720 2 3809 9 53 9 86 1
138 -25 147 29 3264 92 5282 47 1504 65 1906 90 2038 83 434 371 816 751 993
127 60 743 262 1399 459 804 242 2598 739 2668 739 26 1 62 -5 81 -13z m4168
-436 c-1 -176 -6 -453 -10 -616 l-7 -297 -666 -222 -667 -223 -6 322 c-3 176
-8 461 -11 632 l-5 310 683 206 c375 113 684 206 687 207 3 1 4 -143 2 -319z
m-28094 29 c257 -67 470 -125 473 -128 4 -3 9 -376 13 -828 l6 -822 -67 19
c-38 11 -259 71 -491 134 -233 63 -425 116 -427 118 -9 8 9 1628 17 1628 5 0
220 -55 476 -121z m1645 -435 c1017 -271 2718 -732 2724 -737 1 -2 -37 -39
-85 -82 -367 -331 -602 -754 -707 -1268 -20 -98 -25 -112 -41 -109 -11 2 -221
61 -469 132 -247 71 -724 206 -1060 300 -335 94 -624 175 -641 181 l-32 10 -6
162 c-7 176 -13 1497 -8 1497 2 0 149 -39 325 -86z m24260 -809 l5 -421 -481
-162 c-265 -89 -487 -162 -493 -162 -8 0 -10 185 -6 663 2 364 6 663 7 665 2
2 216 67 477 145 l473 143 6 -226 c4 -124 9 -414 12 -645z m-7533 151 c0 -2
-13 -36 -30 -75 -66 -162 -138 -425 -155 -573 -6 -47 -11 -58 -26 -58 -10 0
-622 -194 -1360 -430 -738 -237 -1343 -429 -1346 -427 -2 2 -1 137 3 300 l7
295 211 72 c515 176 2672 899 2684 899 6 1 12 -1 12 -3z m-12421 -590 c157
-36 388 -92 514 -122 l230 -56 -7 -102 c-56 -885 -99 -2077 -151 -4261 -42
-1764 -62 -2378 -110 -3455 -18 -401 -20 -414 -43 -405 -9 3 -89 31 -177 62
-482 165 -1359 495 -1421 534 -18 11 -64 53 -101 93 -139 150 -240 367 -305
661 -11 49 -13 583 -10 2990 2 2865 3 2932 22 3041 78 438 342 819 690 994
156 78 260 101 445 96 132 -3 156 -7 424 -70z m22111 -233 c-1 -249 -31 -1358
-37 -1364 -7 -5 -419 -146 -461 -157 -10 -3 -12 143 -10 719 l3 722 245 83
c135 45 248 83 253 83 4 1 7 -38 7 -86z m-20160 -257 c475 -127 1085 -297
1245 -347 659 -207 1049 -532 1179 -981 60 -206 67 -326 50 -863 -12 -408 -36
-1335 -52 -2027 -4 -174 -11 -320 -14 -323 -3 -4 -149 32 -325 79 -175 46
-676 178 -1113 291 -660 171 -1274 334 -1452 385 l-38 11 0 92 c0 403 68 2469
105 3207 8 162 18 354 21 425 6 147 8 156 26 150 7 -2 173 -47 368 -99z
m18819 -703 c-1 -329 -4 -656 -8 -727 l-6 -130 -515 -178 c-553 -191 -1278
-438 -1287 -438 -6 0 5 1238 13 1375 l6 101 886 296 c488 163 893 297 900 297
9 1 12 -124 11 -596z m-26714 367 c773 -210 1639 -452 1649 -461 9 -8 -10
-1682 -23 -1965 l-6 -150 -135 37 c-661 181 -1468 400 -1713 465 l-297 78 5
765 c7 1041 14 1371 29 1366 6 -3 227 -63 491 -135z m18131 -237 c-3 -38 -13
-311 -21 -608 -9 -297 -18 -572 -21 -610 l-5 -71 -397 -113 c-218 -63 -403
-116 -409 -118 -10 -4 -13 131 -13 654 l0 659 423 136 c232 75 428 137 436
137 10 1 12 -13 7 -66z m-6517 -402 c326 -88 596 -162 598 -165 6 -6 25 -1720
21 -1826 l-3 -67 -465 132 c-256 72 -491 139 -523 149 l-57 17 5 62 c11 137
27 946 21 1046 -16 246 -70 500 -149 700 -24 61 -43 111 -43 111 1 0 268 -72
595 -159z m-8679 -181 c234 -67 462 -132 508 -146 l82 -25 0 -1050 c0 -683 -3
-1049 -10 -1049 -11 0 -666 175 -910 243 -118 33 -154 47 -151 58 5 17 29
1509 30 1847 1 189 4 242 14 242 7 0 204 -54 437 -120z m13496 -1178 c-5 -4
-1000 -291 -1002 -289 -5 5 17 1251 22 1256 3 3 224 76 492 162 l487 157 3
-641 c1 -352 0 -642 -2 -645z m-2241 678 c220 -57 403 -106 408 -110 7 -6 -8
-1239 -21 -1681 l-7 -226 -180 49 c-447 120 -1285 349 -1298 354 -17 6 -22
226 -33 1300 l-5 611 368 -97 c202 -53 548 -143 768 -200z m13810 -577 c-3
-131 -12 -519 -20 -861 -7 -343 -16 -626 -18 -629 -8 -7 -1611 -592 -1615
-588 -2 2 -8 376 -13 832 -6 455 -14 843 -19 862 -5 19 -8 36 -6 38 2 2 289
102 637 223 875 301 1043 359 1052 359 5 1 6 -106 2 -236z m-9940 -665 c-7
-195 -25 -951 -25 -1060 l0 -76 -177 -71 c-249 -98 -408 -155 -709 -254 -277
-92 -675 -209 -682 -202 -5 4 8 305 33 775 8 151 15 350 15 441 l0 166 768
221 c422 121 771 221 775 221 5 1 6 -72 2 -161z m7436 -260 c0 -167 4 -562 8
-878 4 -316 5 -578 1 -582 -7 -9 -657 -248 -673 -248 -7 0 -8 46 -4 133 4 72
13 409 22 747 9 338 19 684 23 769 l7 154 300 102 c165 56 303 103 308 104 4
0 7 -135 8 -301z m-25548 -162 c252 -68 461 -126 464 -130 5 -5 -54 -1848 -60
-1867 -1 -3 -204 51 -451 120 l-449 126 7 410 c3 226 6 647 6 938 0 415 3 527
13 527 6 0 218 -56 470 -124z m15730 -163 c-2 -38 -10 -205 -19 -373 -9 -168
-19 -440 -23 -605 l-6 -300 -85 -17 c-47 -9 -102 -20 -124 -24 l-38 -6 6 258
c4 143 11 436 16 652 5 217 11 396 14 399 3 3 62 22 133 43 70 21 128 38 128
39 1 1 -1 -29 -2 -66z m-4153 -217 c750 -212 2082 -578 2774 -762 l258 -69 -6
-210 c-3 -115 -13 -478 -22 -805 -8 -327 -19 -679 -22 -781 l-7 -186 -465 124
c-651 173 -2049 551 -2520 682 l-395 109 3 138 c3 184 30 1303 38 1616 5 175
10 245 18 242 6 -2 162 -46 346 -98z m-9749 -120 c631 -174 1259 -344 1541
-417 l208 -54 0 -967 0 -967 -87 24 c-271 75 -2266 644 -2270 648 -2 3 1 31 7
63 7 42 71 1667 70 1802 0 6 2 12 4 12 2 0 239 -65 527 -144z m26171 -973 c-2
-98 -6 -423 -10 -722 l-7 -544 -170 -63 c-93 -35 -171 -64 -172 -64 -5 0 10
1248 16 1345 l6 99 165 62 c91 34 167 62 170 63 3 0 4 -79 2 -176z m-20277 73
c154 -41 638 -167 1075 -281 779 -202 1201 -314 1429 -377 l114 -32 -7 -201
c-57 -1693 -142 -2390 -339 -2769 -74 -144 -168 -222 -307 -257 -99 -25 -403
-18 -615 15 -451 69 -968 194 -1751 423 -51 15 -52 15 -48 52 4 38 27 485 44
851 28 622 54 1407 70 2095 13 548 14 568 38 561 9 -3 143 -39 297 -80z
m10336 -963 c-6 -406 -11 -797 -11 -868 l0 -131 -347 -106 -348 -106 -3 167
c-1 91 1 457 6 812 5 355 7 663 3 685 l-6 39 250 86 c137 48 297 104 355 126
58 22 106 38 108 37 2 -1 -1 -335 -7 -741z m8759 610 c0 -10 -5 -332 -10 -717
-5 -384 -11 -700 -13 -702 -2 -2 -192 -72 -423 -155 -504 -180 -1175 -425
-1409 -513 -93 -35 -171 -62 -173 -61 -4 4 46 1277 54 1380 l5 71 972 356
c535 196 978 357 985 357 6 1 12 -7 12 -16z m-10294 -695 c-3 -189 -9 -578
-12 -864 l-7 -521 -466 -143 c-256 -79 -515 -158 -575 -176 l-109 -33 6 102
c4 56 16 440 27 852 12 413 23 782 26 821 l5 70 232 43 c232 43 649 134 782
170 39 11 76 20 84 20 12 1 13 -52 7 -341z m-16255 -384 c398 -113 900 -255
1114 -316 215 -60 393 -113 397 -117 8 -7 -28 -1740 -36 -1748 -3 -3 -274 83
-603 190 -329 108 -830 271 -1113 362 -283 92 -518 170 -523 174 -4 4 -4 382
-1 839 7 783 8 832 25 827 9 -3 342 -98 740 -211z m11224 -399 c176 -48 323
-90 327 -94 7 -6 -119 -2022 -127 -2029 -2 -2 -160 42 -352 98 -191 56 -374
109 -405 118 -32 10 -58 22 -58 27 0 6 11 49 24 95 102 351 171 849 211 1510
22 366 23 373 43 367 10 -2 161 -44 337 -92z m-8301 -431 l529 -149 15 -35
c141 -323 263 -511 443 -686 168 -162 250 -209 614 -350 l240 -92 -2 -59 c-5
-128 -56 -1038 -59 -1042 -3 -3 -2384 775 -2390 782 -2 2 33 1751 36 1786 0 7
47 -6 574 -155z m9941 -14 c248 -67 661 -178 920 -246 258 -69 471 -127 473
-129 2 -1 -9 -331 -23 -731 -40 -1156 -47 -1349 -51 -1353 -8 -9 -787 202
-1459 395 -258 75 -471 137 -473 139 -2 1 26 457 62 1012 36 554 66 1016 66
1026 0 13 5 17 18 13 9 -3 220 -60 467 -126z m14845 -394 l0 -433 -197 -83
c-388 -163 -1122 -454 -1128 -448 -5 5 -46 900 -42 904 2 3 233 87 513 188
280 101 581 211 669 244 88 33 166 61 173 61 9 1 12 -92 12 -433z m-9940
-1033 l0 -868 -633 -216 c-347 -119 -633 -216 -633 -215 -1 0 3 170 9 376 5
206 11 608 11 893 1 509 1 518 21 523 11 3 288 88 615 189 327 100 598 184
603 184 4 1 7 -389 7 -866z m7750 645 c0 -17 9 -223 21 -456 11 -234 16 -428
12 -432 -12 -11 -1124 -410 -1142 -410 -5 0 -5 20 0 45 19 100 40 355 53 617
7 153 15 280 17 282 2 2 191 74 419 159 228 85 458 171 510 190 52 20 98 36
103 37 4 0 7 -14 7 -32z m-9834 -900 c-3 -266 -9 -674 -12 -908 l-7 -426 -326
-112 c-180 -62 -332 -112 -339 -112 -9 0 -11 22 -7 83 3 45 19 458 36 917 16
459 31 839 32 844 3 8 586 193 616 195 12 1 13 -73 7 -481z m-9721 -44 c1339
-452 2415 -719 3081 -764 183 -13 368 -2 524 30 52 10 95 18 97 16 4 -4 -48
-1530 -52 -1534 -10 -11 -4056 1287 -4079 1308 -7 7 35 887 50 1018 5 45 8 52
22 47 9 -4 170 -58 357 -121z m5470 -829 c1202 -355 1849 -538 2447 -691 l268
-69 0 -65 c0 -121 -69 -1853 -74 -1858 -12 -11 -738 168 -1291 319 -572 156
-1356 384 -2136 620 l-205 62 3 81 c5 101 63 1825 63 1853 0 20 3 20 113 -12
61 -19 427 -127 812 -240z m6339 -662 c3 -21 6 -181 6 -357 0 -335 10 -450 50
-591 11 -38 19 -69 17 -70 -1 -1 -130 -42 -287 -92 l-285 -89 -6 220 c-4 122
-10 361 -14 532 l-7 311 249 86 c136 47 253 86 259 86 6 1 14 -16 18 -36z
m-1350 -625 c4 -112 8 -346 9 -522 l2 -318 -280 -89 c-154 -49 -493 -157 -753
-241 -260 -83 -475 -148 -478 -145 -5 5 20 752 32 933 l6 91 56 16 c31 9 356
120 722 246 366 126 668 230 671 230 4 1 10 -90 13 -201z"/>
<path d="M81665 74950 c-807 -74 -1051 -98 -1400 -136 -457 -50 -954 -112
-995 -126 -127 -40 -226 -137 -272 -266 -18 -53 -21 -92 -29 -517 -5 -253 -18
-755 -29 -1115 -35 -1143 -44 -1666 -31 -1740 30 -168 169 -308 336 -339 73
-14 552 13 2090 119 396 27 774 52 840 56 203 10 293 42 383 138 60 63 98 137
111 217 17 96 21 469 22 1969 l2 1475 -23 60 c-32 84 -141 192 -225 225 -95
37 -191 34 -780 -20z m185 -1195 c0 -268 -3 -375 -11 -375 -12 0 -475 -66
-520 -74 l-26 -5 -13 357 c-7 196 -13 371 -14 387 l-1 30 285 26 c157 15 288
27 293 28 4 0 7 -168 7 -374z m-1416 163 c8 -101 29 -719 24 -724 -3 -2 -137
-20 -299 -39 -162 -19 -311 -37 -332 -40 l-39 -6 7 403 c4 222 9 405 11 407 4
5 538 69 585 70 l37 1 6 -72z m1424 -1792 c-2 -228 -5 -417 -8 -419 -3 -3
-113 -12 -245 -21 -132 -9 -261 -18 -287 -21 l-48 -6 6 58 c3 32 9 210 13 396
4 185 11 340 14 343 5 5 494 80 540 83 18 1 18 -18 15 -413z m-1401 47 c-4
-98 -10 -265 -13 -371 -5 -127 -11 -195 -18 -197 -14 -4 -680 -45 -683 -42 -3
4 17 700 20 704 2 1 105 14 230 28 125 14 271 32 325 39 53 8 108 14 121 15
l24 1 -6 -177z"/>
<path d="M82043 70460 c-240 -43 -431 -239 -465 -478 -11 -72 -10 -95 5 -165
25 -121 67 -199 156 -287 88 -87 148 -122 257 -150 234 -60 473 29 607 227 62
90 88 167 94 278 9 153 -38 282 -146 397 -129 138 -332 209 -508 178z"/>
<path d="M80671 68760 c-783 -70 -1443 -133 -1465 -140 -134 -40 -237 -137
-281 -266 -26 -74 -63 -562 -86 -1124 -14 -353 -6 -905 16 -1080 29 -233 84
-395 173 -506 80 -101 228 -174 355 -174 33 0 687 65 1451 145 1011 106 1409
151 1458 166 136 40 250 159 302 315 63 192 80 413 79 1024 0 445 -12 885 -33
1270 -11 189 -28 256 -88 335 -88 116 -195 166 -356 164 -56 -1 -742 -59
-1525 -129z m1155 -857 c10 -141 12 -1328 2 -1338 -5 -5 -1918 -210 -2113
-227 l-40 -3 -8 170 c-12 235 24 1312 44 1328 5 5 2007 184 2066 186 l41 1 8
-117z"/>
<path d="M6985 55304 c-16 -2 -79 -9 -139 -15 -193 -20 -328 -70 -428 -159
-89 -79 -121 -136 -197 -350 -38 -107 -75 -210 -83 -227 l-14 -33 -330 -4
c-440 -5 -575 -24 -729 -104 -98 -51 -180 -135 -238 -246 -87 -165 -273 -799
-372 -1269 -18 -87 -35 -161 -38 -164 -3 -2 -30 1 -60 7 -85 19 -210 9 -280
-23 -114 -52 -215 -179 -237 -299 -17 -86 15 -1770 135 -7133 51 -2306 81
-3743 90 -4450 8 -551 14 -625 54 -710 36 -78 106 -150 182 -189 35 -17 1812
-511 5064 -1407 2756 -759 6153 -1695 7550 -2081 1397 -385 2556 -704 2575
-709 93 -23 125 -16 455 102 127 45 520 179 875 299 825 279 1204 411 1259
440 65 32 133 107 172 185 l34 70 -1 230 c-1 126 -7 419 -13 650 -31 1174 -48
2428 -61 4630 -23 3900 -36 4942 -80 6800 -13 529 -18 592 -58 672 l-30 58 19
93 c17 84 19 155 21 725 3 571 1 642 -15 741 -10 60 -25 127 -34 150 -19 50
-140 223 -202 289 -157 169 -396 271 -764 329 -102 16 -198 21 -428 25 l-296
5 -17 60 c-36 129 -119 262 -229 364 -165 154 -382 242 -730 296 -126 19 -182
22 -487 23 -572 0 -733 -34 -902 -193 -124 -116 -147 -155 -227 -389 l-72
-208 -307 -1 c-436 -1 -613 -29 -763 -120 -53 -32 -169 -144 -169 -164 0 -4
-15 -13 -32 -19 -18 -7 -50 -23 -70 -36 -21 -14 -39 -25 -40 -25 -2 0 -3 152
-3 338 0 450 -21 602 -98 704 -18 24 -53 72 -79 108 -148 209 -386 339 -738
404 -197 36 -347 48 -602 48 l-227 0 -12 52 c-50 213 -245 433 -472 535 -159
71 -361 120 -607 146 -279 30 -797 14 -990 -31 -137 -32 -277 -123 -350 -229
-16 -24 -63 -116 -103 -206 -41 -90 -89 -196 -108 -235 l-34 -71 -310 -6
c-429 -8 -561 -28 -717 -109 -140 -72 -244 -216 -313 -431 l-31 -97 1 472 c0
635 -6 672 -152 869 -117 157 -230 253 -378 319 -137 62 -337 113 -543 140
-123 16 -420 28 -553 22 l-115 -5 -13 58 c-7 32 -32 96 -56 142 -163 317 -472
480 -1018 538 -132 13 -597 19 -692 9z m500 -1390 c66 -7 175 -17 243 -20 67
-4 125 -10 127 -14 2 -4 -18 -85 -46 -181 -28 -96 -77 -281 -109 -413 -33
-131 -61 -241 -64 -243 -8 -9 -219 26 -226 36 -9 16 -68 401 -80 531 -17 168
-28 235 -50 285 l-20 48 52 -7 c29 -4 107 -14 173 -22z m1406 -708 c169 -29
465 -61 659 -71 l125 -7 -3 -201 c-4 -255 -7 -269 -52 -279 -248 -54 -603 -49
-885 13 -142 31 -295 80 -295 96 0 27 61 297 110 484 l10 35 89 -22 c48 -12
157 -34 242 -48z m-3371 -5 c249 -57 527 -93 858 -110 96 -5 175 -11 177 -13
7 -7 95 -541 90 -546 -10 -11 -195 -42 -315 -53 -309 -29 -710 39 -1032 175
l-36 15 24 113 c27 124 103 428 111 441 3 4 12 6 21 3 10 -3 55 -14 102 -25z
m7749 -426 c69 -8 181 -18 248 -21 68 -4 125 -10 127 -13 3 -4 -14 -67 -35
-141 -47 -160 -138 -513 -170 -658 -25 -116 -31 -122 -113 -122 -34 0 -98 14
-113 25 -11 7 -96 592 -109 745 -6 74 -16 113 -49 194 -8 18 -5 19 41 12 27
-3 105 -13 173 -21z m-5525 -626 c95 -63 259 -149 403 -210 65 -28 107 -48 93
-46 -14 2 -190 42 -393 88 -307 70 -366 86 -361 99 4 8 16 41 28 73 l21 58 69
-7 c61 -6 79 -13 140 -55z m6709 -39 c236 -56 748 -119 981 -120 l29 0 -7
-232 c-4 -128 -10 -236 -14 -239 -18 -17 -213 -41 -373 -46 -267 -8 -481 20
-735 98 l-106 33 6 45 c7 52 94 424 107 459 10 27 7 27 112 2z m-3113 -56
c211 -48 526 -88 824 -104 98 -5 180 -10 181 -12 4 -5 93 -543 90 -546 -1 -2
-45 -12 -96 -22 -338 -70 -719 -40 -1089 84 -156 52 -202 74 -196 94 2 9 7 33
11 52 3 19 31 138 62 263 l57 228 25 -6 c14 -4 73 -18 131 -31z m-1065 -151
c-33 -141 -85 -408 -85 -439 0 -24 -3 -26 -27 -21 -81 17 -1190 278 -1198 282
-5 3 4 3 20 0 17 -2 104 -7 195 -11 412 -17 802 75 1063 251 28 19 52 35 53
35 1 0 -9 -44 -21 -97z m-5133 -179 c638 -135 977 -210 983 -216 3 -2 1 -90
-5 -194 -5 -104 -10 -386 -10 -626 0 -344 -3 -438 -12 -438 -7 0 -323 72 -703
159 l-690 158 -6 59 c-4 32 -10 306 -14 609 -3 302 -9 558 -11 568 -3 9 -1 17
5 17 6 0 214 -43 463 -96z m13913 -139 c72 -8 182 -18 245 -21 63 -4 120 -9
126 -13 8 -4 -3 -54 -33 -156 -36 -122 -139 -521 -168 -649 l-6 -29 -82 6
c-64 5 -135 19 -154 31 -6 4 -75 486 -87 608 -10 101 -21 162 -35 194 -12 25
-21 49 -21 51 0 3 19 3 43 -1 23 -3 101 -13 172 -21z m-11600 -370 c676 -153
2525 -582 2588 -601 16 -5 17 -44 17 -645 0 -351 -2 -639 -5 -639 -3 0 -374
86 -823 191 -449 105 -1136 264 -1527 355 -390 91 -720 167 -732 171 l-23 5 0
623 c0 343 3 630 6 639 3 8 11 13 17 11 7 -2 224 -52 482 -110z m6188 -279
c286 -179 596 -294 963 -358 112 -19 165 -22 394 -22 210 -1 285 3 360 17 186
34 337 80 475 142 41 19 75 30 75 25 0 -6 -11 -56 -24 -113 -41 -175 -86 -414
-86 -462 0 -37 -3 -45 -19 -45 -27 0 -2640 610 -2681 626 -12 5 -10 9 10 22
51 34 138 124 161 167 l23 44 86 6 c47 4 90 8 95 10 38 13 74 0 168 -59z
m3397 -51 c236 -60 572 -106 909 -125 101 -5 185 -11 186 -12 4 -6 92 -543 90
-546 -8 -10 -208 -43 -315 -53 -347 -32 -757 46 -1122 214 -65 29 -88 45 -88
59 0 16 73 309 117 464 l17 62 55 -20 c31 -10 99 -30 151 -43z m3275 20 c217
-47 508 -83 819 -101 l118 -7 -7 -231 c-4 -127 -9 -233 -10 -234 -6 -7 -90
-23 -190 -37 -195 -28 -502 -14 -710 31 -86 19 -267 71 -299 85 l-24 11 19 87
c10 47 38 164 61 259 l43 174 30 -6 c16 -3 84 -17 150 -31z m-8270 -766 c1022
-244 2695 -638 3083 -728 96 -22 175 -41 176 -43 3 -4 -44 -1251 -47 -1254 -1
-1 -299 67 -662 152 -1680 392 -3662 856 -3677 860 -17 5 -18 44 -18 646 l0
640 28 -7 c15 -4 518 -124 1117 -266z m7229 -287 c107 -94 630 -300 854 -337
24 -4 40 -11 35 -15 -15 -14 -597 -203 -622 -202 -26 1 -792 158 -821 168 -9
4 8 16 46 33 33 16 94 53 135 83 116 87 156 137 190 240 l21 66 63 -2 c55 -2
67 -6 99 -34z m-13819 -312 c1265 -290 2000 -461 2006 -468 8 -8 -16 -1040
-24 -1048 -3 -3 -547 124 -1209 282 -1134 272 -1208 289 -1293 288 -67 0 -103
-6 -141 -22 l-52 -21 -6 112 c-3 62 -8 285 -11 497 -3 212 -8 422 -11 468 l-6
83 24 -6 c12 -3 338 -77 723 -165z m11121 -459 c571 -129 1428 -316 1969 -431
237 -49 468 -98 515 -108 l85 -18 6 -195 c4 -106 7 -402 8 -657 1 -437 0 -463
-16 -458 -10 3 -409 95 -888 205 -1614 370 -2150 494 -2159 502 -4 4 1 263 13
576 12 312 21 594 21 626 0 31 2 57 3 57 2 0 201 -45 443 -99z m4734 -560 c6
-260 9 -475 7 -477 -6 -6 -1307 -484 -1318 -484 -5 0 -9 196 -9 499 l0 499
258 87 c244 82 762 265 957 338 56 21 91 30 92 23 1 -6 7 -224 13 -485z
m-12147 160 c470 -110 866 -203 880 -206 l27 -7 0 -540 0 -540 -22 5 c-13 3
-414 99 -893 213 -478 114 -873 210 -876 213 -4 3 0 238 7 521 15 600 13 540
19 540 2 0 388 -90 858 -199z m2869 -672 c612 -143 1113 -261 1114 -262 3 -5
-33 -1078 -37 -1081 -3 -3 -1994 469 -2181 517 l-28 7 0 540 c0 331 4 540 9
540 6 0 511 -117 1123 -261z m-7248 -210 c14 -7 234 -62 490 -123 l464 -111 5
-613 c5 -569 4 -612 -11 -608 -10 2 -226 55 -482 117 -256 61 -466 112 -467
113 -1 0 -6 235 -12 521 -6 286 -13 564 -16 618 -2 53 -2 97 0 97 2 0 15 -5
29 -11z m10516 -552 c696 -162 1280 -298 1298 -302 29 -6 33 -10 27 -28 -17
-58 -26 -250 -31 -650 -6 -398 -8 -437 -23 -433 -9 3 -603 145 -1321 316 -718
171 -1306 312 -1307 313 -3 4 28 1024 33 1056 5 30 8 33 32 28 15 -4 596 -139
1292 -300z m-6983 -297 c945 -226 1726 -413 1736 -416 16 -5 17 -44 17 -625 0
-340 -3 -619 -6 -619 -3 0 -550 133 -1217 295 -667 163 -1446 353 -1732 422
-286 69 -523 128 -526 132 -4 3 -9 279 -12 614 -5 506 -4 607 7 607 8 0 787
-185 1733 -410z m13023 -38 c0 -137 3 -418 7 -624 l6 -375 -29 -7 c-16 -4
-317 -129 -669 -278 -352 -148 -645 -272 -651 -274 -8 -4 -11 173 -10 654 l1
659 665 246 c366 135 668 246 673 246 4 1 7 -111 7 -247z m-3027 -362 l847
-194 0 -568 c0 -349 -4 -568 -9 -568 -8 0 -1554 368 -1690 402 l-43 11 6 351
c11 596 17 768 30 763 6 -2 392 -91 859 -197z m-5645 -640 c936 -224 1705
-409 1707 -412 3 -3 4 -288 3 -635 l-3 -630 -1320 323 c-726 178 -1506 369
-1732 425 l-413 101 0 624 0 624 28 -7 c15 -3 793 -190 1730 -413z m-6897
-434 c530 -129 1078 -262 1217 -296 l254 -62 -6 -47 c-3 -25 -15 -260 -27
-521 -12 -261 -25 -479 -29 -483 -8 -9 -290 70 -1526 424 -441 126 -808 229
-816 229 -13 0 -16 46 -22 323 -3 177 -9 400 -12 495 -4 94 -4 172 -2 172 3 0
439 -105 969 -234z m11396 -641 c1071 -256 1959 -469 1972 -472 l24 -6 -8
-646 c-4 -355 -8 -647 -10 -649 -2 -2 -542 130 -1202 292 -659 163 -1541 380
-1959 484 l-762 187 -6 638 c-4 350 -4 637 -2 637 3 0 882 -209 1953 -465z
m4196 -567 l6 -748 -27 -6 c-15 -3 -323 -111 -684 -240 -361 -129 -659 -234
-662 -234 -3 0 -6 315 -6 699 0 542 3 702 12 707 16 10 1353 573 1354 571 1
-1 4 -338 7 -749z m-12284 403 c541 -132 986 -243 990 -246 11 -11 14 -1165 3
-1165 -14 0 -1759 478 -2029 556 -50 15 -52 16 -42 41 8 22 59 902 59 1026 0
32 3 37 18 33 9 -3 460 -113 1001 -245z m2871 -702 c564 -138 1026 -252 1027
-253 1 -1 -2 -20 -7 -42 -5 -22 -23 -294 -40 -604 -17 -310 -31 -564 -33 -565
-1 -1 -119 29 -262 67 -487 129 -1690 449 -1707 454 -17 5 -18 42 -18 600 0
327 3 594 8 594 4 0 468 -113 1032 -251z m-5994 -469 c-3 -19 -8 -286 -12
-592 -4 -307 -8 -558 -10 -558 -2 0 -211 50 -465 111 -398 95 -470 110 -529
107 l-68 -3 -6 180 c-3 99 -8 324 -11 500 -3 176 -8 386 -11 466 l-6 146 561
-161 562 -161 -5 -35z m9229 -325 c638 -157 1273 -313 1411 -347 l250 -61 -3
-76 c-6 -125 -33 -1055 -33 -1125 l0 -64 -692 174 c-381 96 -826 209 -988 250
-665 170 -1308 336 -1357 350 l-52 14 5 48 c3 34 64 1145 64 1175 0 5 50 -7
1395 -338z m-7751 -54 c656 -184 1680 -467 2296 -634 l345 -94 3 -537 c1 -295
0 -536 -4 -536 -3 0 -290 72 -637 161 -584 149 -2409 603 -2591 645 l-79 18 7
105 c3 57 6 317 6 578 0 260 3 473 6 473 3 0 295 -81 648 -179z m13939 -833
c4 -194 7 -471 7 -615 l0 -261 -52 -12 c-307 -72 -803 -241 -1166 -396 -95
-41 -175 -74 -177 -74 -3 0 -5 274 -5 608 l0 609 683 246 c375 135 687 246
693 246 7 1 13 -107 17 -351z m-2960 92 c401 -99 731 -180 734 -180 6 0 0
-1257 -7 -1263 -6 -6 -106 18 -930 219 -305 75 -559 140 -564 145 -6 5 -3 230
7 581 10 315 17 597 17 626 0 28 3 52 7 52 4 0 335 -81 736 -180z m-6648 -440
c621 -165 1851 -486 2411 -630 l321 -82 6 -346 c4 -190 7 -433 7 -540 l0 -194
-22 4 c-13 3 -349 93 -748 201 -733 198 -1628 435 -2393 636 -230 60 -420 111
-422 113 -1 1 -5 242 -7 534 l-4 531 126 -34 c69 -18 395 -105 725 -193z
m-6473 -294 c374 -90 1541 -374 1808 -440 81 -20 124 -36 123 -44 -2 -6 -5
-110 -7 -229 -2 -120 -12 -379 -22 -576 l-18 -358 -26 6 c-121 31 -2235 616
-2239 621 -11 11 -27 1114 -16 1114 3 0 181 -42 397 -94z m11009 -875 c828
-207 1868 -464 2614 -644 l220 -54 3 -600 2 -600 -177 49 c-513 142 -2559 706
-3023 833 -294 80 -550 151 -567 156 l-33 11 0 544 c0 299 1 544 3 544 2 0
433 -108 958 -239z m-7396 -17 c451 -113 899 -227 996 -251 l176 -45 7 -625
c4 -344 5 -627 2 -630 -3 -3 -470 122 -1038 279 l-1033 284 2 220 c2 120 7
291 13 379 6 88 13 260 17 383 5 197 8 222 22 218 9 -3 385 -98 836 -212z
m12489 -841 c3 -351 9 -663 11 -693 l6 -56 -608 -183 c-335 -101 -656 -199
-715 -217 l-108 -32 0 639 c0 505 3 639 13 639 6 0 100 42 207 94 225 109 440
200 678 286 157 58 473 159 498 160 9 0 13 -174 18 -637z m-9389 40 c1168
-308 4110 -1105 4120 -1115 2 -2 -2 -154 -8 -338 -7 -232 -7 -432 0 -650 5
-173 9 -316 9 -317 -1 -1 -1172 321 -2604 715 l-2602 717 0 637 0 636 193 -50
c105 -27 507 -133 892 -235z m6061 -1648 c587 -162 1068 -296 1069 -298 2 -1
5 -296 8 -655 4 -540 3 -653 -8 -650 -8 2 -495 136 -1084 298 l-1070 295 -6
60 c-15 158 -25 487 -25 854 l0 403 24 -6 c13 -3 504 -139 1092 -301z m3364
-401 c5 -214 12 -452 15 -529 l5 -141 -77 -26 c-43 -14 -371 -126 -730 -247
-359 -122 -655 -221 -658 -221 -3 0 -4 253 -3 562 l3 561 715 217 c393 119
716 216 718 215 1 -1 7 -177 12 -391z"/>
<path d="M45485 52109 c-234 -25 -512 -106 -730 -214 -464 -228 -855 -624
-1105 -1115 -155 -307 -244 -595 -297 -970 -17 -118 -18 -322 -15 -3910 2
-2368 7 -3824 13 -3890 21 -225 95 -501 188 -703 209 -454 592 -818 1011 -960
128 -44 5236 -1357 5359 -1378 1112 -190 2200 603 2511 1831 68 266 81 394
115 1100 72 1514 110 2514 201 5400 17 541 15 780 -11 995 -86 728 -365 1388
-811 1915 -91 107 -283 298 -394 390 -314 260 -708 461 -1098 559 -1162 294
-4069 903 -4531 950 -118 12 -289 12 -406 0z m835 -917 c234 -45 544 -105 690
-135 l265 -53 -3 -139 c-2 -77 -45 -2427 -96 -5222 -51 -2796 -95 -5085 -97
-5087 -10 -10 -2255 575 -2316 603 -184 87 -340 246 -448 461 -78 157 -119
306 -135 500 -8 87 -10 1272 -8 3860 l4 3735 21 110 c120 608 452 1084 921
1319 210 105 353 137 602 132 171 -3 184 -5 600 -84z m2096 -427 c846 -185
1821 -413 1947 -456 203 -68 445 -204 625 -351 377 -308 686 -800 821 -1309
77 -289 103 -492 103 -799 -1 -339 -85 -2946 -96 -2957 -4 -5 -3797 903 -3801
910 -2 2 92 5021 94 5025 2 3 -7 5 307 -63z m1484 -6275 c1037 -249 1886 -454
1888 -456 7 -5 -59 -1540 -98 -2319 -22 -428 -35 -546 -80 -721 -159 -614
-608 -1086 -1137 -1193 -122 -25 -333 -28 -445 -7 -55 11 -2034 516 -2120 542
-14 4 -15 10 -7 32 16 42 18 87 54 2202 36 2083 43 2382 54 2376 3 -2 854
-207 1891 -456z"/>
<path d="M78790 51814 c-47 -14 -312 -92 -590 -174 -278 -82 -982 -293 -1565
-468 -583 -176 -1247 -375 -1475 -442 -228 -67 -433 -131 -455 -143 -63 -32
-103 -66 -146 -126 -72 -100 -76 -127 -83 -556 -12 -700 -29 -1400 -81 -3395
-16 -592 -23 -1318 -14 -1365 30 -163 164 -299 327 -334 83 -17 106 -15 385
44 981 207 2033 478 2967 765 325 100 912 295 960 320 96 49 179 146 209 245
16 52 22 115 30 362 20 553 32 1105 61 2748 13 706 26 1282 41 1759 6 197 9
387 6 422 -10 135 -104 266 -235 327 -58 27 -79 32 -162 34 -78 2 -110 -2
-180 -23z m-273 -1086 c-4 -73 -12 -398 -18 -723 -6 -324 -14 -671 -17 -769
l-7 -180 -534 -159 c-293 -87 -535 -156 -538 -154 -2 3 -9 142 -14 309 -21
715 -56 1336 -81 1437 -2 10 146 59 587 192 325 97 599 178 609 178 18 1 19
-6 13 -131z m-2017 -495 c0 -16 5 -91 10 -168 27 -407 65 -1564 51 -1576 -3
-3 -276 -86 -606 -184 -330 -98 -619 -183 -643 -191 l-44 -13 6 152 c6 140 15
514 32 1337 l7 316 296 88 c163 48 427 127 586 176 160 48 293 88 298 89 4 1
7 -11 7 -26z m1963 -2170 c-7 -325 -24 -1062 -30 -1244 l-6 -206 -266 -87
c-253 -82 -794 -247 -796 -243 -1 1 2 74 6 162 16 337 29 865 29 1137 l0 285
523 156 c287 86 527 156 532 157 6 0 9 -44 8 -117z m-1903 -864 c-5 -228 -15
-531 -21 -674 -12 -278 -9 -362 16 -421 8 -20 13 -39 11 -41 -13 -14 -1294
-323 -1337 -323 -12 0 -13 58 -7 382 9 476 26 1099 30 1103 6 6 1313 393 1316
390 2 -1 -2 -189 -8 -416z"/>
<path d="M78888 44968 c-296 -29 -532 -275 -554 -576 -8 -99 13 -198 62 -300
45 -94 167 -221 259 -269 193 -101 401 -103 590 -5 90 46 218 172 263 259 42
80 72 198 72 283 0 84 -30 203 -72 283 -42 81 -173 211 -253 253 -119 62 -238
85 -367 72z"/>
<path d="M78096 42889 c-91 -12 -132 -23 -500 -134 -804 -241 -2517 -815
-2681 -898 -250 -125 -428 -346 -502 -623 l-26 -99 2 -1290 c1 -709 7 -1329
12 -1376 43 -404 324 -734 714 -841 116 -31 347 -32 456 -1 119 34 2859 1038
2926 1072 243 122 434 372 497 648 16 71 57 547 96 1108 51 742 78 1457 61
1590 -45 338 -259 631 -558 767 -144 65 -349 97 -497 77z m159 -841 c14 -6 35
-27 47 -46 21 -34 21 -40 15 -311 -8 -293 -27 -701 -52 -1071 -20 -297 -73
-991 -81 -1057 -8 -64 -32 -105 -75 -125 -97 -44 -2739 -1002 -2765 -1002 -40
0 -79 25 -99 64 -14 27 -16 178 -22 1278 -6 1156 -5 1249 11 1279 9 18 26 39
39 47 70 44 1694 588 2387 800 548 167 546 167 595 144z"/>
<path d="M55774 14630 c-101 -26 -624 -186 -1524 -465 -987 -306 -1257 -389
-1495 -460 -104 -32 -207 -66 -228 -77 -87 -44 -162 -134 -196 -236 -20 -58
-22 -96 -31 -614 -6 -304 -19 -906 -30 -1338 -31 -1222 -39 -1630 -41 -1965
-2 -296 -1 -312 20 -366 65 -169 196 -268 366 -277 71 -4 114 4 380 63 923
205 1804 449 2620 725 366 125 391 136 461 202 65 61 96 111 118 188 22 79 41
708 66 2235 12 720 28 1447 39 1775 11 318 -3 382 -110 495 -57 60 -122 98
-204 120 -76 19 -123 18 -211 -5z m-329 -1322 c-4 -194 -10 -481 -14 -638 l-6
-284 -320 -98 c-176 -54 -325 -98 -330 -98 -7 0 -15 120 -23 352 -7 193 -19
472 -28 620 -9 148 -14 271 -12 273 5 5 712 223 727 224 11 1 12 -57 6 -351z
m-1552 -240 c17 -299 28 -618 30 -867 l2 -275 -400 -123 c-220 -67 -404 -123
-408 -123 -5 0 -6 73 -2 163 3 89 10 373 15 631 6 258 12 471 14 474 4 3 719
228 737 231 3 1 9 -50 12 -111z m1513 -1845 c-3 -159 -9 -404 -13 -545 l-6
-258 -181 -59 c-303 -99 -447 -143 -453 -137 -3 3 0 182 6 398 6 216 11 461
11 543 l0 150 313 96 c171 53 316 97 321 98 5 1 6 -116 2 -286z m-1476 -320
c0 -82 -5 -267 -11 -413 -5 -146 -11 -322 -12 -391 l-1 -127 -406 -101 c-223
-56 -411 -101 -417 -101 -16 0 -17 171 -3 670 8 267 13 356 22 360 46 17 796
248 811 249 15 1 17 -12 17 -146z"/>
<path d="M55790 9123 c-117 -19 -233 -86 -327 -186 -175 -188 -201 -472 -64
-686 42 -65 153 -169 218 -204 69 -37 191 -67 272 -67 355 1 638 340 567 680
-57 272 -302 473 -571 468 -38 0 -81 -3 -95 -5z"/>
<path d="M55145 7446 c-323 -75 -2248 -727 -2456 -831 -243 -123 -430 -402
-453 -681 -4 -38 -2 -541 2 -1119 9 -1034 9 -1051 31 -1130 122 -449 550 -718
986 -620 73 17 2236 830 2321 873 140 71 284 218 357 366 73 148 84 211 117
635 48 624 70 1022 86 1501 5 165 3 223 -10 297 -58 333 -269 585 -576 685
-81 26 -113 31 -220 34 -84 2 -145 -1 -185 -10z m155 -950 c0 -159 -15 -495
-41 -903 -24 -386 -64 -912 -70 -917 -2 -2 -476 -181 -1054 -398 l-1050 -395
-7 41 c-6 38 -12 1946 -6 1951 6 5 581 210 843 300 563 195 1324 441 1373 444
9 1 12 -30 12 -123z"/>
</g>
</svg>
