<?xml version="1.0" standalone="no"?>
<!DOCTYPE svg PUBLIC "-//W3C//DTD SVG 20010904//EN"
 "http://www.w3.org/TR/2001/REC-SVG-20010904/DTD/svg10.dtd">
<svg version="1.0" xmlns="http://www.w3.org/2000/svg"
 width="1280.000000pt" height="1163.000000pt" viewBox="0 0 1280.000000 1163.000000"
 preserveAspectRatio="xMidYMid meet">

<g transform="translate(0.000000,1163.000000) scale(0.100000,-0.100000)"
fill="#000000" stroke="none">
<path d="M2673 11429 c-26 -8 -33 -15 -33 -35 0 -25 2 -26 43 -20 90 14 80 28
100 -139 24 -205 26 -215 43 -222 34 -13 37 12 20 159 -9 79 -16 158 -16 176
l0 34 63 -4 c60 -3 62 -2 62 22 0 23 -5 26 -55 32 -80 9 -190 8 -227 -3z"/>
<path d="M2217 11406 c-20 -8 -43 -19 -51 -25 -8 -7 -25 -9 -41 -5 l-28 7 5
-194 c6 -202 15 -253 46 -247 15 3 17 15 13 101 -3 84 -1 97 13 97 27 0 108
82 132 135 30 64 30 90 -1 120 -27 28 -35 29 -88 11z m53 -61 c0 -40 -91 -161
-112 -149 -4 3 -8 24 -8 47 0 32 7 48 28 68 49 47 92 63 92 34z"/>
<path d="M2539 11398 c-1 -7 0 -43 1 -79 2 -81 -28 -209 -50 -209 -4 0 -10 26
-14 58 -23 207 -36 247 -71 211 -10 -12 -9 -39 7 -154 11 -77 26 -150 34 -162
22 -34 58 -29 91 12 l28 35 10 -43 c9 -36 14 -42 39 -45 27 -3 28 -2 22 25 -4
15 -14 87 -22 158 -21 185 -25 199 -51 203 -14 2 -23 -2 -24 -10z"/>
<path d="M1985 11373 c-4 -10 -10 -69 -12 -131 l-6 -113 -35 61 c-32 58 -87
121 -141 164 -56 44 -68 -14 -54 -254 l8 -125 27 -3 28 -3 -7 158 c-6 150 -5
157 11 143 28 -22 89 -117 134 -206 23 -45 47 -84 55 -87 33 -13 37 7 40 211
2 201 2 202 -19 202 -12 0 -25 -8 -29 -17z"/>
<path d="M1600 11365 c-10 -12 -10 -51 -1 -193 7 -97 13 -190 14 -207 2 -25 6
-30 27 -30 25 0 25 1 24 80 0 134 -16 339 -27 353 -13 16 -22 15 -37 -3z"/>
<path d="M9453 11025 c-41 -17 -60 -48 -73 -116 -26 -135 65 -269 162 -237 49
17 118 148 118 223 0 112 -102 176 -207 130z m131 -67 c23 -32 19 -95 -8 -153
-32 -68 -57 -90 -86 -75 -45 24 -74 133 -51 193 8 19 15 23 34 20 18 -4 28 1
36 16 15 28 56 27 75 -1z"/>
<path d="M10908 11033 c-40 -4 -63 -29 -48 -52 6 -10 20 -12 53 -7 66 10 70
-2 57 -160 -10 -129 -5 -164 25 -164 22 0 30 21 30 80 0 30 1 102 3 159 l2
104 80 -7 c67 -5 81 -4 86 9 4 8 1 22 -6 30 -10 12 -37 15 -129 13 -64 -1
-133 -3 -153 -5z"/>
<path d="M9699 11008 c-12 -22 -6 -158 12 -253 20 -106 82 -113 131 -15 27 54
28 54 28 22 0 -46 16 -72 45 -72 30 0 39 14 25 40 -6 12 -15 74 -20 138 -7 92
-13 119 -26 129 -37 27 -49 11 -62 -85 -7 -46 -21 -105 -32 -130 -18 -40 -23
-44 -31 -29 -6 9 -12 71 -14 137 -2 66 -7 125 -10 130 -10 17 -34 11 -46 -12z"/>
<path d="M10380 11011 c-6 -13 -16 -305 -11 -358 1 -7 12 -13 26 -13 25 0 25
1 25 83 l0 82 46 24 c53 28 91 74 100 119 5 25 1 36 -19 56 -23 23 -33 26 -92
24 -49 -1 -68 -6 -75 -17z m130 -57 c0 -9 -17 -33 -37 -52 l-38 -36 -3 38 c-5
55 2 66 43 66 26 0 35 -4 35 -16z"/>
<path d="M9951 11006 c-23 -27 3 -46 63 -46 l52 0 17 -146 c9 -80 19 -149 22
-155 8 -12 42 -12 49 0 3 5 -1 55 -9 112 -8 57 -15 123 -15 147 l0 42 69 0
c48 0 70 4 74 13 13 33 -9 39 -159 44 -130 5 -151 4 -163 -11z"/>
<path d="M10756 10998 c-3 -13 -10 -57 -16 -97 -10 -71 -45 -170 -55 -159 -3
2 -7 60 -9 128 -5 127 -13 153 -41 130 -12 -10 -15 -36 -15 -124 0 -61 5 -128
10 -148 19 -65 63 -71 108 -13 21 27 32 23 32 -11 0 -30 25 -54 49 -47 27 7
35 32 16 53 -12 13 -15 45 -15 151 0 92 -4 139 -12 147 -20 20 -47 14 -52 -10z"/>
<path d="M2231 10645 c-48 -25 -107 -66 -136 -95 l-51 -51 -47 20 c-80 34
-158 46 -192 30 -36 -17 -125 -132 -166 -215 -54 -109 -55 -233 -4 -300 l26
-34 -45 -127 c-60 -168 -74 -218 -92 -316 -18 -104 -18 -200 0 -235 15 -28 56
-63 91 -76 57 -22 284 -48 445 -51 96 -2 225 -9 286 -14 115 -11 274 -2 329
19 51 19 87 53 108 99 17 39 21 66 20 176 0 72 -8 192 -18 268 l-19 137 27 28
c15 16 32 44 37 63 14 48 12 164 -4 232 -16 68 -52 106 -128 134 -39 14 -50
24 -59 50 -26 79 -149 233 -229 287 -41 27 -88 19 -179 -29z m148 -19 c15 -8
55 -44 89 -81 48 -51 75 -93 122 -191 33 -69 60 -129 60 -133 0 -5 -10 -11
-22 -15 -13 -3 -47 -21 -76 -40 -98 -63 -194 -58 -359 19 -50 24 -129 51 -175
61 -82 18 -128 45 -128 76 0 12 95 81 150 109 14 7 51 37 82 67 32 30 95 74
140 98 46 24 84 44 86 44 2 0 15 -6 31 -14z m-428 -148 l32 -13 -57 -38 c-50
-33 -57 -36 -63 -20 -3 10 -12 33 -19 52 -8 18 -14 36 -14 39 0 8 86 -6 121
-20z m-130 -124 c39 -113 59 -133 160 -158 36 -9 71 -16 78 -16 6 0 56 -20
111 -45 133 -61 225 -79 309 -59 34 8 81 27 104 42 46 32 177 85 186 76 3 -3
8 -49 10 -102 4 -117 -9 -147 -82 -194 l-49 -32 -82 12 c-112 16 -209 15 -302
-4 -136 -28 -216 -11 -300 66 -41 37 -56 43 -145 55 -62 8 -137 58 -156 104
-21 49 -11 137 22 202 24 46 93 149 100 149 1 0 18 -43 36 -96z m898 -88 c9
-11 9 -16 0 -21 -10 -7 -28 10 -29 28 0 12 17 8 29 -7z m-898 -327 c63 -10 80
-18 115 -50 56 -50 88 -66 165 -79 48 -8 80 -8 129 1 99 18 256 22 335 9 61
-10 76 -10 108 4 44 18 41 23 56 -89 19 -142 24 -316 12 -376 -27 -128 -81
-137 -641 -111 -248 11 -440 35 -488 61 -39 21 -54 66 -47 135 12 110 36 209
82 346 68 198 60 182 82 171 10 -6 52 -16 92 -22z"/>
<path d="M2380 10556 c-18 -22 -5 -48 22 -44 17 2 23 10 23 28 0 29 -26 38
-45 16z"/>
<path d="M2343 10473 c-18 -7 -16 -28 3 -43 12 -11 18 -10 31 3 13 13 14 19 3
31 -13 17 -17 18 -37 9z"/>
<path d="M2454 10466 c-9 -24 4 -48 23 -44 12 2 18 12 18 28 0 29 -32 41 -41
16z"/>
<path d="M2384 10385 c-9 -23 3 -45 25 -45 23 0 35 28 20 46 -15 18 -38 18
-45 -1z"/>
<path d="M2487 10394 c-13 -13 -7 -52 8 -58 8 -3 15 -12 15 -19 0 -8 7 -20 15
-27 12 -10 18 -10 30 0 20 17 19 49 -2 58 -10 4 -18 16 -18 27 0 20 -33 33
-48 19z"/>
<path d="M2456 10281 c-11 -18 6 -42 28 -39 29 4 29 42 -1 46 -11 2 -24 -1
-27 -7z"/>
<path d="M2367 10247 c-8 -21 8 -39 29 -35 27 5 25 42 -2 46 -12 2 -24 -3 -27
-11z"/>
<path d="M1756 9855 c-3 -8 0 -19 7 -25 23 -20 82 -59 118 -79 19 -11 66 -54
103 -96 79 -87 99 -100 198 -120 81 -17 98 -15 98 14 0 21 0 21 -151 61 -27 7
-55 30 -103 84 -37 41 -83 85 -104 97 -20 13 -53 35 -72 51 -37 30 -84 37 -94
13z"/>
<path d="M2585 9600 c-54 -57 -244 -177 -303 -192 -26 -7 -30 -43 -6 -52 36
-14 268 120 343 198 34 35 39 68 11 74 -9 1 -29 -11 -45 -28z"/>
<path d="M10115 10063 c-16 -3 -61 -13 -100 -24 -38 -11 -158 -29 -265 -39
-300 -30 -445 -81 -640 -224 -73 -53 -92 -74 -132 -142 -67 -113 -77 -141 -90
-252 -13 -116 -9 -143 40 -242 l37 -74 -47 -44 c-53 -49 -68 -87 -68 -169 0
-44 8 -68 52 -150 28 -54 64 -114 80 -134 15 -20 28 -42 28 -48 0 -6 -17 -19
-39 -30 -57 -30 -143 -113 -173 -168 -34 -63 -42 -110 -28 -164 16 -60 93
-190 159 -268 l54 -64 -31 -26 c-38 -32 -52 -68 -52 -129 1 -68 27 -135 94
-235 32 -49 56 -90 54 -92 -1 -1 -17 -10 -35 -19 -17 -8 -41 -29 -53 -46 -22
-31 -49 -152 -50 -222 0 -67 36 -142 103 -211 52 -54 81 -73 182 -122 139 -66
310 -130 405 -150 36 -8 87 -23 114 -35 61 -26 297 -59 442 -63 60 -1 264 4
453 12 275 12 346 18 358 30 13 13 18 10 41 -20 45 -60 97 -105 199 -172 145
-96 247 -154 348 -199 179 -79 184 -81 280 -81 85 0 96 3 200 48 l110 48 141
142 c86 86 149 159 162 186 25 53 78 364 94 555 18 227 -15 432 -86 534 -17
25 -57 74 -89 109 -66 74 -151 200 -197 292 -42 84 -64 106 -119 123 -81 24
-156 66 -222 122 -42 35 -82 59 -114 69 -59 18 -223 41 -350 51 -88 6 -92 6
-155 -26 -36 -18 -80 -44 -97 -58 -31 -23 -33 -23 -33 -5 0 34 -30 110 -51
129 -20 18 -20 18 20 39 51 26 187 158 211 205 10 20 21 54 25 75 4 22 13 74
22 115 24 124 1 246 -41 211 -10 -8 -12 -29 -8 -82 6 -82 -21 -244 -49 -300
-74 -149 -512 -369 -793 -399 -173 -18 -420 -17 -561 4 -71 10 -155 25 -185
32 -30 8 -106 25 -169 39 -148 31 -255 84 -365 181 -94 83 -124 123 -191 251
-45 86 -47 94 -41 146 6 47 14 61 51 101 l45 46 67 -45 c38 -25 91 -61 118
-81 28 -19 93 -56 145 -81 52 -25 135 -65 183 -90 70 -35 107 -47 180 -58 51
-7 135 -21 187 -31 72 -14 144 -19 300 -19 338 0 511 44 813 206 119 64 168
97 227 152 151 142 184 220 179 420 -4 111 -6 126 -31 168 -34 59 -194 211
-283 270 -115 77 -204 117 -276 124 -35 4 -95 13 -132 21 -37 8 -124 21 -193
29 -84 11 -135 22 -157 35 -25 16 -48 20 -107 18 -41 0 -88 -3 -105 -5z m162
-67 c28 -8 109 -22 180 -31 70 -8 162 -22 203 -30 41 -8 105 -18 143 -24 144
-21 436 -225 515 -360 25 -42 26 -53 27 -171 0 -174 -16 -212 -140 -334 -82
-81 -109 -100 -239 -169 -248 -132 -396 -177 -656 -199 -151 -12 -266 -6 -470
28 -85 13 -169 27 -186 30 -18 2 -95 36 -172 74 -78 39 -145 70 -151 70 -10 0
-167 102 -262 170 -49 35 -61 51 -99 130 l-43 91 12 88 c14 109 30 157 84 246
105 171 385 310 674 335 187 16 223 21 308 42 156 40 179 41 272 14z m-1149
-1574 c87 -74 234 -147 328 -162 93 -15 154 -31 154 -40 0 -4 -14 -10 -30 -14
-36 -7 -135 -77 -151 -107 -6 -12 -9 -32 -6 -45 5 -30 5 -30 -41 0 -20 14 -74
38 -118 56 -51 19 -99 46 -128 71 -48 43 -98 117 -102 153 -1 12 -3 25 -3 29
-1 5 -11 7 -23 5 -20 -3 -23 -9 -22 -44 0 -31 11 -56 41 -100 50 -75 118 -126
213 -163 41 -16 101 -45 133 -64 43 -27 78 -38 140 -47 131 -20 189 -11 274
38 133 78 174 138 121 177 -23 16 -23 16 7 8 17 -4 136 -7 266 -5 l236 2 -7
-45 c-9 -58 5 -85 53 -104 44 -16 104 -4 138 30 30 30 25 85 -11 119 l-30 28
102 32 c57 17 142 51 191 76 60 30 95 42 111 38 29 -7 57 -64 61 -125 4 -45 2
-47 -46 -84 -80 -61 -138 -133 -187 -235 -45 -92 -49 -97 -97 -118 -80 -35
-138 -49 -340 -83 -314 -52 -628 -56 -895 -10 -127 21 -179 39 -318 109 -112
56 -190 132 -266 262 -79 134 -76 196 17 298 33 35 149 121 165 122 2 0 33
-26 70 -58z m2397 -168 c175 -22 193 -28 276 -96 72 -60 161 -107 238 -128 33
-9 42 -18 61 -58 43 -93 223 -354 260 -377 5 -3 26 -31 46 -61 58 -87 75 -156
81 -334 6 -165 0 -236 -42 -500 -32 -203 -54 -251 -152 -331 -36 -30 -85 -79
-109 -110 -44 -58 -54 -64 -193 -124 -106 -45 -203 -49 -291 -11 -173 74 -224
99 -310 151 -304 183 -379 264 -465 501 -19 51 -50 125 -69 165 -25 52 -44
116 -63 214 -25 125 -28 160 -27 330 1 166 4 200 24 265 29 99 91 216 140 268
60 62 228 193 295 229 67 37 58 36 300 7z m-2229 -583 c51 -17 106 -31 122
-31 17 0 55 -5 83 -11 l52 -11 -38 -14 c-61 -21 -80 -46 -80 -108 0 -66 -9
-64 -85 24 -31 36 -73 71 -101 86 -35 17 -55 36 -69 64 -20 39 -42 51 -55 29
-21 -32 39 -115 108 -148 23 -12 56 -40 72 -62 17 -23 46 -54 67 -70 82 -66
240 -112 254 -75 3 9 15 16 25 16 10 0 36 7 58 16 81 32 97 150 27 206 -20 17
-16 18 109 18 72 0 167 3 213 7 60 4 82 3 82 -6 0 -6 -16 -34 -35 -62 -44 -64
-46 -105 -8 -143 30 -30 145 -69 211 -70 37 -1 48 4 72 31 35 39 52 97 48 160
-4 55 -29 79 -105 98 -59 16 -52 19 116 45 73 11 167 32 207 45 41 14 76 25
78 25 1 0 -1 -25 -5 -56 -4 -31 -11 -111 -14 -178 -7 -108 -4 -136 20 -264 15
-78 25 -145 23 -148 -3 -2 -38 -11 -79 -19 -41 -8 -117 -24 -169 -34 -115 -24
-407 -45 -493 -36 -209 22 -397 67 -482 115 -27 15 -85 42 -127 60 -71 29
-124 60 -236 141 -24 17 -60 57 -80 88 -20 31 -53 82 -73 113 -42 65 -64 142
-54 190 4 18 21 47 37 65 l30 31 92 -48 c50 -27 132 -63 182 -79z m-157 -409
c66 -55 154 -106 251 -148 47 -19 100 -45 118 -56 l33 -20 -31 -27 c-18 -16
-31 -37 -32 -53 -1 -16 -6 -28 -10 -28 -22 0 -153 75 -202 115 -62 50 -71 53
-81 28 -15 -40 157 -161 275 -193 25 -7 70 -25 102 -41 142 -73 258 -33 258
89 0 39 2 42 23 37 129 -28 247 -32 451 -14 118 10 128 9 153 -9 50 -35 126
-63 154 -57 30 7 68 44 95 95 10 19 19 36 19 37 0 1 12 4 28 8 23 6 27 4 27
-14 0 -11 17 -55 39 -98 56 -113 57 -116 18 -130 -17 -6 -52 -19 -77 -28 -32
-12 -83 -18 -180 -20 -138 -3 -349 -29 -382 -46 -19 -10 -24 -34 -9 -44 5 -3
52 2 103 10 51 9 174 20 273 24 153 6 187 11 230 30 27 12 57 29 67 38 17 15
19 13 33 -23 8 -21 29 -65 46 -97 17 -32 28 -62 24 -65 -8 -9 -368 -21 -690
-25 -279 -2 -389 9 -545 58 -58 18 -127 38 -154 44 -75 18 -229 78 -353 138
-95 46 -121 64 -168 116 -75 83 -90 132 -72 243 15 93 35 130 80 149 18 8 34
14 36 15 3 0 25 -17 50 -38z"/>
<path d="M10111 9937 c-127 -106 -124 -122 25 -151 159 -30 211 -8 181 79 -16
45 -92 135 -115 135 -9 0 -50 -28 -91 -63z"/>
<path d="M10768 9738 c-112 -119 -118 -145 -52 -218 65 -71 182 -107 244 -75
19 10 65 28 103 41 82 28 97 39 97 70 0 17 -19 38 -67 77 -104 82 -235 177
-246 177 -6 0 -41 -33 -79 -72z"/>
<path d="M9820 9729 c-60 -47 -110 -113 -110 -144 0 -28 34 -51 93 -64 63 -15
109 1 168 58 78 76 64 128 -49 171 l-51 19 -51 -40z"/>
<path d="M9165 9722 c-43 -65 -75 -157 -75 -216 0 -51 3 -59 50 -115 28 -34
52 -61 55 -61 16 0 35 15 35 27 0 8 -20 38 -45 65 -32 35 -45 59 -45 79 0 43
36 138 71 188 16 24 28 50 25 57 -10 27 -45 15 -71 -24z"/>
<path d="M9440 9676 c-88 -30 -107 -41 -114 -70 -18 -70 46 -121 189 -151 91
-19 107 -20 125 -8 34 24 27 89 -18 159 -21 32 -41 67 -45 77 -9 23 -55 21
-137 -7z"/>
<path d="M10578 9463 c-65 -54 -71 -74 -37 -117 47 -60 173 -88 227 -50 40 28
29 61 -44 131 -75 71 -96 77 -146 36z"/>
<path d="M9965 9439 c-33 -5 -71 -17 -85 -27 -62 -46 -96 -168 -55 -198 25
-19 77 -33 145 -40 102 -10 162 47 166 160 1 34 0 73 -3 89 -5 25 -8 27 -57
26 -28 -1 -78 -5 -111 -10z"/>
<path d="M10400 9405 c-7 -8 -33 -25 -58 -37 -64 -32 -122 -89 -122 -120 0
-48 72 -88 157 -88 45 0 134 31 166 58 34 29 22 71 -37 128 -69 67 -90 78
-106 59z"/>
<path d="M11156 9327 c-19 -35 -42 -70 -50 -76 -9 -7 -31 -37 -51 -67 -40 -60
-77 -84 -130 -84 -20 0 -58 -11 -85 -25 -57 -29 -78 -31 -106 -10 -33 25 -88
18 -161 -20 -67 -35 -70 -35 -228 -41 -169 -7 -399 7 -498 30 -31 7 -94 35
-140 62 -108 63 -142 79 -202 93 -27 7 -76 26 -107 43 -58 31 -92 32 -86 2 4
-24 110 -79 187 -99 36 -9 93 -33 126 -54 145 -92 190 -105 420 -126 115 -11
188 -12 315 -4 161 9 167 11 238 46 72 36 73 36 108 20 49 -24 97 -21 154 8
27 14 65 25 85 25 51 0 109 33 136 77 13 21 37 54 54 73 84 95 122 190 76 190
-13 0 -30 -20 -55 -63z"/>
<path d="M9014 9326 c-9 -23 17 -61 69 -104 62 -50 92 -66 111 -59 29 11 16
32 -49 80 -36 26 -70 58 -75 72 -10 27 -47 35 -56 11z"/>
<path d="M9289 9094 c-12 -14 -10 -19 13 -38 68 -54 128 -69 128 -32 0 13
-103 86 -121 86 -4 0 -13 -7 -20 -16z"/>
<path d="M9873 8844 c-7 -20 6 -33 53 -49 44 -15 64 -10 64 15 0 11 -15 23
-43 34 -53 20 -66 20 -74 0z"/>
<path d="M10816 8115 c-27 -24 -76 -58 -108 -75 -62 -33 -75 -62 -30 -68 47
-7 242 138 229 171 -10 28 -39 19 -91 -28z"/>
<path d="M9197 7933 c-4 -3 -7 -14 -7 -24 0 -18 33 -35 49 -25 5 3 16 -5 24
-18 11 -16 29 -25 60 -29 25 -4 66 -18 92 -32 27 -14 57 -25 69 -25 58 1 63
52 6 60 -19 3 -55 16 -80 28 -25 12 -57 22 -71 22 -17 0 -33 9 -43 25 -13 19
-25 25 -55 25 -21 0 -41 -3 -44 -7z"/>
<path d="M10376 7895 c-77 -29 -218 -46 -364 -46 -80 1 -154 4 -166 7 -14 3
-28 -1 -36 -11 -28 -34 5 -44 160 -51 156 -7 288 8 418 48 55 17 63 22 60 41
-4 27 -22 30 -72 12z"/>
<path d="M11607 8183 c-4 -3 -7 -15 -7 -25 0 -13 7 -18 26 -18 37 0 59 -14
154 -98 95 -84 105 -98 135 -197 17 -55 26 -70 41 -70 32 0 23 82 -20 171 -19
41 -39 74 -43 74 -5 0 -27 17 -49 38 -106 98 -155 132 -193 132 -21 0 -41 -3
-44 -7z"/>
<path d="M11479 7958 c-19 -16 -75 -106 -84 -135 -9 -32 2 -47 80 -103 82 -59
119 -69 169 -45 39 19 59 61 58 126 -1 49 -22 79 -73 109 -23 12 -50 31 -60
41 -22 22 -68 25 -90 7z"/>
<path d="M12096 7832 c-12 -19 -56 -168 -56 -189 0 -29 27 -54 96 -87 70 -35
98 -30 114 20 20 59 7 105 -51 188 -39 57 -58 76 -75 76 -13 0 -25 -4 -28 -8z"/>
<path d="M10968 7803 c-21 -24 -34 -179 -18 -214 14 -31 52 -55 102 -64 45 -8
97 14 134 59 26 30 26 33 20 125 -4 52 -8 96 -10 98 -2 2 -50 6 -108 9 -92 4
-106 3 -120 -13z"/>
<path d="M11674 7627 c-61 -17 -74 -32 -67 -75 16 -114 38 -142 108 -142 52 0
83 30 97 92 21 95 21 95 -1 117 -24 24 -70 26 -137 8z"/>
<path d="M11955 7545 c-38 -20 -65 -51 -65 -77 0 -59 67 -112 115 -90 41 19
58 56 51 110 -9 69 -41 87 -101 57z"/>
<path d="M10885 7458 c-3 -8 1 -30 9 -49 7 -18 17 -54 21 -79 4 -24 15 -62 25
-85 14 -33 46 -156 65 -250 3 -11 30 -58 61 -105 31 -47 70 -119 86 -160 70
-180 114 -246 148 -225 14 9 12 36 -4 49 -13 11 -98 198 -111 246 -4 14 -19
41 -34 60 -54 71 -99 156 -105 200 -4 25 -18 83 -32 130 -14 47 -33 112 -41
145 -26 106 -37 130 -61 133 -12 2 -24 -3 -27 -10z"/>
<path d="M11255 7460 c-4 -6 -23 -7 -45 -4 -21 3 -54 1 -73 -5 -44 -15 -50
-41 -32 -146 13 -75 17 -82 57 -117 63 -56 93 -65 125 -42 36 27 93 139 93
184 0 65 -101 169 -125 130z"/>
<path d="M12291 7392 c-7 -14 -5 -27 11 -52 45 -75 93 -253 98 -363 0 -5 10
-7 23 -5 19 3 22 10 25 59 5 94 -99 379 -138 379 -5 0 -14 -8 -19 -18z"/>
<path d="M11510 7345 c-13 -34 -13 -151 0 -175 11 -20 85 -40 150 -40 51 0 76
32 86 107 6 50 4 57 -18 79 -18 19 -41 27 -94 33 -38 5 -79 12 -91 16 -18 6
-25 2 -33 -20z"/>
<path d="M11731 7072 c-18 -14 -24 -34 -31 -111 -7 -63 -7 -98 0 -106 10 -12
172 -27 198 -17 20 7 14 58 -18 140 -39 99 -38 98 -86 105 -32 5 -47 3 -63
-11z"/>
<path d="M12265 7048 c-33 -19 -44 -41 -45 -85 0 -55 18 -92 49 -100 53 -13
99 39 109 123 4 41 3 43 -33 58 -44 19 -53 19 -80 4z"/>
<path d="M11395 7013 c-72 -5 -100 -26 -109 -84 -8 -51 10 -87 62 -123 25 -17
52 -49 69 -82 43 -82 75 -83 92 -3 13 61 14 209 2 242 -10 26 -38 58 -49 55
-4 -1 -34 -3 -67 -5z"/>
<path d="M12087 6732 c-21 -21 -42 -53 -47 -71 -14 -51 -15 -170 -1 -184 7 -7
40 -12 82 -11 101 1 123 19 127 107 3 70 -7 101 -55 165 -32 43 -60 41 -106
-6z"/>
<path d="M11493 6605 c-13 -9 -25 -31 -28 -53 -3 -20 -8 -46 -10 -58 -7 -33
16 -53 74 -64 45 -8 59 -7 78 5 22 15 24 22 21 77 l-3 62 -45 22 c-54 28 -59
28 -87 9z"/>
<path d="M10569 7310 c-45 -24 -82 -27 -195 -16 -89 8 -93 7 -164 -24 -42 -18
-98 -34 -131 -37 -58 -6 -75 -18 -58 -44 14 -23 99 -14 185 21 66 27 90 31
144 29 155 -8 193 -4 248 25 37 19 52 32 50 44 -5 24 -37 25 -79 2z"/>
<path d="M9627 7233 c-12 -11 -8 -40 8 -53 8 -6 49 -16 92 -21 120 -13 196
-25 214 -33 10 -4 21 0 30 10 21 25 -20 54 -80 54 -25 0 -55 7 -65 15 -13 10
-43 15 -87 15 -37 0 -71 5 -74 10 -7 11 -28 13 -38 3z"/>
<path d="M10325 6831 c-45 -5 -50 -8 -50 -31 0 -24 2 -25 63 -22 79 4 115 16
110 40 -4 19 -40 23 -123 13z"/>
<path d="M9902 6748 c-49 -72 -55 -87 -41 -104 15 -18 139 -20 157 -2 38 38
-20 148 -78 148 -5 0 -22 -19 -38 -42z"/>
<path d="M3304 9290 c-158 -80 -347 -263 -450 -438 0 -1 -28 12 -60 29 -54 28
-66 30 -136 27 -66 -3 -82 -7 -120 -33 -23 -17 -53 -46 -66 -65 -22 -32 -23
-43 -20 -126 2 -56 9 -98 17 -108 11 -13 5 -25 -48 -82 -82 -90 -94 -135 -65
-234 29 -97 79 -142 208 -185 66 -22 91 -25 223 -25 145 1 243 14 293 39 115
60 150 203 87 359 l-25 63 41 -8 c23 -4 96 -8 162 -7 103 1 131 4 200 28 99
34 142 66 167 124 45 101 0 261 -99 353 l-47 43 2 81 c4 100 -15 140 -78 173
-61 31 -114 28 -186 -8z m160 -40 c28 -10 40 -30 50 -80 l6 -35 -25 28 c-29
31 -79 37 -89 11 -9 -24 -7 -73 4 -94 6 -11 41 -37 79 -60 38 -22 86 -59 108
-83 85 -97 102 -253 33 -310 -36 -31 -130 -63 -229 -78 -78 -12 -108 -9 -234
18 -76 17 -78 18 -110 68 -17 27 -60 80 -94 116 l-63 66 36 54 c75 110 146
190 229 256 150 120 226 151 299 123z m-733 -402 c93 -31 209 -138 298 -273
90 -135 114 -194 113 -277 -2 -146 -90 -193 -362 -193 -151 0 -233 20 -308 75
-59 43 -91 154 -61 213 6 12 60 72 119 132 113 116 140 155 140 204 0 39 -23
61 -64 61 -53 0 -74 -35 -77 -127 -1 -29 -5 -53 -9 -53 -12 0 -19 68 -13 121
5 42 12 55 46 84 21 19 49 36 61 38 42 8 84 7 117 -5z m-118 -138 c-3 -10 -12
-25 -20 -31 -12 -11 -13 -8 -7 17 9 38 14 45 24 39 4 -3 6 -14 3 -25z"/>
<path d="M3475 8789 c-27 -16 -65 -29 -83 -29 -35 0 -53 -23 -33 -43 41 -41
235 47 206 93 -10 16 -37 10 -90 -21z"/>
<path d="M2470 8350 c-25 -16 0 -41 55 -57 149 -43 218 -50 332 -37 51 7 75
26 54 47 -5 5 -65 8 -134 8 -111 -2 -132 1 -192 24 -73 27 -92 30 -115 15z"/>
<path d="M678 9115 c-118 -38 -225 -128 -311 -261 -60 -94 -79 -157 -79 -263
0 -191 94 -347 282 -468 70 -45 197 -83 279 -83 114 0 375 105 489 197 56 46
182 204 214 268 26 52 82 200 93 246 16 68 -31 138 -158 233 -61 46 -95 47
-144 3 -58 -51 -160 -127 -171 -127 -5 0 -13 12 -16 27 -18 69 -105 161 -193
205 -56 27 -78 32 -152 35 -57 2 -102 -2 -133 -12z m250 -70 c29 -14 64 -33
78 -44 33 -26 79 -90 99 -138 20 -46 46 -173 35 -173 -4 0 -20 10 -36 22 -21
17 -41 22 -85 23 -51 0 -61 -4 -89 -30 -48 -46 -88 -138 -101 -230 -10 -72 -9
-85 9 -130 35 -90 147 -147 257 -131 61 10 205 98 295 181 80 74 78 70 -14
-38 -67 -78 -107 -107 -231 -170 -222 -111 -393 -114 -557 -8 -174 114 -263
283 -243 467 14 129 150 320 275 384 106 54 210 59 308 15z m527 -108 c69 -53
112 -93 124 -115 16 -30 14 -79 -4 -86 -8 -3 -15 -14 -15 -24 0 -22 -128 -193
-198 -265 -89 -93 -234 -177 -302 -177 l-41 0 32 39 c33 38 93 135 126 201 14
28 18 62 18 163 l0 128 90 68 c50 37 96 75 104 84 17 22 15 22 66 -16z m-373
-279 c30 -21 30 -22 24 -87 -8 -82 -58 -190 -114 -244 l-38 -38 -27 21 c-35
28 -51 81 -44 149 8 73 25 119 64 175 28 40 37 46 69 46 21 0 49 -9 66 -22z"/>
<path d="M771 9024 c-174 -62 -329 -282 -334 -476 -2 -56 0 -63 17 -63 21 0
27 14 45 115 18 93 73 200 139 266 71 71 122 100 202 116 54 11 65 16 65 33 0
17 -7 20 -45 22 -25 1 -65 -5 -89 -13z"/>
<path d="M875 8786 c-84 -42 -155 -110 -158 -152 -2 -23 2 -30 20 -32 17 -2
26 3 32 20 13 34 85 96 139 119 25 11 75 23 110 26 57 5 63 8 60 27 -3 19 -11
21 -68 24 -58 2 -74 -1 -135 -32z"/>
<path d="M692 8508 c-17 -17 -15 -173 3 -235 17 -57 48 -101 79 -113 51 -18
63 24 16 58 -38 28 -52 81 -54 202 -1 76 -4 95 -16 98 -9 1 -21 -3 -28 -10z"/>
<path d="M460 8395 c-30 -36 24 -147 64 -132 20 8 21 41 2 57 -8 6 -16 28 -18
48 -3 41 -26 54 -48 27z"/>
<path d="M3915 9015 c-22 -8 -53 -29 -68 -47 -47 -56 -77 -188 -59 -266 10
-42 9 -46 -29 -95 -64 -86 -82 -132 -83 -218 -1 -67 2 -80 27 -118 52 -78 200
-130 374 -131 71 0 322 70 361 101 53 42 85 113 90 200 4 67 1 84 -22 134 -31
69 -72 127 -168 240 -85 101 -131 135 -234 175 -100 38 -139 44 -189 25z m171
-79 c47 -19 102 -49 122 -67 64 -56 188 -210 228 -283 34 -62 38 -79 37 -133
-3 -100 -59 -183 -135 -198 -18 -4 -70 -17 -114 -31 -182 -54 -416 -13 -475
82 -18 30 -21 46 -16 99 8 106 66 188 198 281 91 64 119 96 119 136 0 32 -39
78 -65 78 -25 0 -79 -26 -98 -47 -10 -11 -23 -49 -30 -84 -11 -61 -12 -62 -15
-24 -5 52 13 132 38 173 38 61 86 66 206 18z m-96 -115 c0 -19 -52 -71 -71
-71 -5 0 -7 12 -3 28 11 48 74 85 74 43z"/>
<path d="M4360 8493 c-63 -50 -113 -70 -197 -78 -71 -7 -90 -18 -73 -45 5 -9
30 -11 86 -8 62 3 92 10 139 33 74 37 138 96 129 119 -9 25 -35 19 -84 -21z"/>
<path d="M11060 8738 c-33 -54 -45 -104 -31 -134 18 -41 45 -27 52 26 3 25 13
60 23 78 32 62 -8 88 -44 30z"/>
<path d="M9260 8665 c-18 -22 -5 -33 102 -90 l93 -50 -40 -5 c-32 -4 -40 -9
-40 -25 0 -18 8 -21 70 -25 86 -6 101 -15 184 -101 44 -46 74 -69 89 -69 47 0
34 28 -48 106 l-82 78 61 15 c58 13 67 13 154 -9 97 -24 131 -22 125 7 -2 12
-19 22 -48 30 -25 7 -72 19 -105 28 -51 14 -68 15 -112 5 -82 -20 -135 -9
-262 57 -62 32 -117 59 -121 61 -4 1 -13 -4 -20 -13z"/>
<path d="M10845 8600 c-16 -11 -61 -30 -100 -41 -38 -12 -107 -32 -152 -46
-66 -19 -83 -28 -83 -43 0 -10 5 -22 10 -25 9 -6 115 22 270 71 71 22 112 51
108 76 -4 29 -18 31 -53 8z"/>
<path d="M10160 8557 c-21 -16 -85 -97 -99 -124 -27 -52 33 -93 134 -93 81 0
121 18 130 60 10 45 -1 65 -66 120 -64 53 -75 57 -99 37z"/>
<path d="M1402 7976 c-122 -40 -179 -87 -257 -211 -57 -92 -93 -201 -101 -309
-6 -74 -9 -86 -23 -80 -61 25 -177 22 -232 -6 -35 -18 -88 -71 -106 -105 -39
-73 -25 -385 24 -540 34 -109 55 -146 111 -202 87 -87 158 -114 343 -129 97
-7 193 12 245 49 57 40 122 128 180 243 41 81 62 114 75 114 38 0 145 54 177
89 132 143 180 491 102 745 -20 62 -95 180 -164 254 -17 19 -62 50 -101 69
-93 48 -169 53 -273 19z m245 -70 c42 -20 81 -48 97 -68 84 -108 128 -176 140
-219 68 -227 33 -532 -77 -681 -18 -24 -133 -85 -143 -76 -2 3 1 31 7 63 15
80 5 118 -39 161 -45 44 -66 55 -179 95 -48 18 -92 35 -98 40 -5 4 -39 15 -75
24 -35 9 -80 29 -100 44 -19 15 -46 34 -59 42 -22 14 -24 21 -22 80 6 173 79
342 186 437 55 48 165 90 240 91 38 1 68 -7 122 -33z m-643 -586 c32 -11 87
-40 124 -66 42 -30 91 -54 132 -65 57 -15 142 -47 263 -97 42 -17 97 -73 97
-99 0 -40 -23 -143 -36 -160 -10 -14 -13 -14 -14 -4 0 25 -52 92 -98 127 -26
20 -80 45 -131 60 -84 27 -88 27 -208 17 -128 -12 -176 -27 -264 -84 -52 -33
-59 -35 -59 -15 0 8 -18 52 -40 97 -34 70 -40 93 -40 146 0 57 3 67 33 99 58
63 142 78 241 44z m-244 -437 c0 -49 58 -109 124 -128 36 -11 60 -26 82 -52
31 -37 31 -37 130 -43 54 -4 119 -13 144 -19 39 -10 53 -10 90 4 25 9 65 24
90 32 25 8 60 21 79 29 18 8 35 13 37 11 7 -6 -87 -151 -119 -185 -70 -73
-170 -95 -331 -72 -130 18 -223 76 -281 175 -33 56 -71 196 -78 285 l-5 75 19
-40 c10 -22 19 -55 19 -72z m573 75 c72 -23 136 -70 178 -130 l22 -31 -24 -18
c-13 -11 -48 -26 -77 -35 -30 -9 -74 -25 -99 -36 -41 -18 -51 -19 -87 -8 -23
7 -80 13 -128 14 l-88 1 -31 38 c-22 27 -45 41 -84 52 -29 9 -59 23 -66 31
-11 13 -8 19 17 39 60 50 144 87 212 95 122 14 182 11 255 -12z"/>
<path d="M1527 7794 c-13 -14 -7 -45 11 -51 61 -23 107 -84 132 -177 13 -47
22 -62 37 -64 30 -5 36 24 17 87 -19 69 -62 137 -108 173 -36 29 -77 44 -89
32z"/>
<path d="M962 6898 c-32 -40 45 -91 155 -104 82 -9 115 0 111 29 -3 20 -11 23
-78 28 -83 8 -119 19 -139 43 -16 19 -35 21 -49 4z"/>
<path d="M1333 6848 c-26 -13 -31 -46 -8 -55 26 -9 90 20 90 42 0 24 -46 31
-82 13z"/>
<path d="M3560 7739 c-170 -10 -307 -25 -356 -38 -23 -6 -64 -13 -90 -15 -27
-3 -65 -9 -84 -13 -33 -8 -36 -12 -53 -78 -9 -39 -16 -100 -15 -137 l1 -67
-56 -61 c-31 -33 -89 -88 -129 -123 -41 -34 -91 -81 -112 -104 -20 -23 -73
-64 -115 -92 -110 -71 -128 -94 -136 -183 -7 -82 9 -238 26 -249 17 -10 767 1
811 12 43 11 125 73 163 123 l27 36 27 -28 c56 -56 71 -63 102 -47 15 8 41 15
56 15 15 0 60 6 98 14 39 8 122 17 185 20 310 17 456 36 498 63 22 14 23 18
19 132 l-3 118 -52 82 c-28 44 -58 81 -65 81 -15 0 -165 174 -240 278 -26 37
-81 106 -122 154 -41 47 -75 93 -75 102 0 18 -74 19 -310 5z m343 -142 c48
-56 97 -118 109 -137 12 -19 47 -64 78 -100 31 -36 72 -86 93 -111 l37 -45
-178 -14 c-97 -7 -200 -15 -228 -17 -50 -5 -51 -4 -101 49 -28 29 -75 82 -104
118 -29 36 -92 106 -139 155 -95 99 -140 152 -140 164 0 10 102 21 285 30 77
4 154 8 170 9 26 1 41 -11 118 -101z m-597 1 c26 -35 84 -101 129 -148 45 -47
125 -136 179 -198 l98 -113 -37 -77 -37 -77 -31 40 c-18 22 -61 72 -97 110
-36 39 -97 113 -136 165 -39 52 -114 145 -167 205 -53 61 -97 113 -97 116 0 4
33 13 73 22 39 8 72 15 73 16 1 0 23 -27 50 -61z m-106 -168 c37 -41 99 -118
137 -170 38 -52 96 -122 128 -155 91 -95 135 -158 130 -185 -12 -60 -58 -181
-68 -178 -7 2 -54 60 -106 129 -51 68 -120 157 -152 196 -33 40 -78 103 -100
140 -23 38 -68 104 -100 149 -62 85 -70 115 -50 180 5 16 12 41 15 57 6 27 7
27 53 -30 26 -32 77 -92 113 -133z m-122 -180 c34 -52 61 -100 60 -107 -2 -8
-16 -22 -33 -31 -26 -15 -52 -16 -198 -12 l-168 5 71 60 c40 33 97 88 128 123
30 34 60 61 66 59 6 -2 39 -46 74 -97z m1197 -106 c18 -5 95 -109 95 -129 0
-4 -37 -5 -82 -2 -125 8 -391 -10 -561 -39 l-39 -7 36 72 c20 39 42 71 49 71
6 0 44 5 82 11 39 6 131 14 205 18 193 11 193 11 215 5z m-1043 -114 l47 -58
-24 -16 c-30 -20 -45 -20 -45 -2 0 7 -18 34 -40 59 l-40 46 22 15 c12 9 25 16
28 15 3 0 26 -27 52 -59z m-200 12 c42 -6 53 -13 89 -57 39 -47 39 -49 20 -57
-19 -7 -631 -19 -631 -12 0 7 168 118 190 125 31 9 267 10 332 1z m1332 -93
c3 -2 6 -31 8 -63 3 -57 2 -59 -24 -67 -42 -11 -213 -28 -408 -39 -96 -6 -210
-18 -252 -27 -43 -9 -80 -14 -83 -11 -3 3 7 42 21 87 21 63 32 82 48 85 46 9
200 28 288 36 91 8 394 7 402 -1z m-999 -95 l48 -67 -65 -63 c-36 -35 -71 -64
-77 -64 -6 0 -11 19 -11 48 0 45 2 48 46 76 28 18 44 34 42 45 -4 17 -39 20
-70 6 -15 -6 -18 -2 -18 27 0 32 19 54 51 57 3 1 27 -29 54 -65z m-165 -36
c-3 -5 -55 -13 -115 -18 -144 -14 -155 -17 -155 -39 0 -10 6 -21 13 -23 11 -5
167 6 235 16 l32 5 0 -60 c0 -49 -3 -59 -17 -60 -29 -1 -583 -12 -646 -12 -65
-1 -77 8 -77 59 0 31 1 32 58 38 148 17 162 23 142 56 -6 10 -28 11 -104 4
l-96 -10 0 43 0 42 273 1 c149 0 313 4 362 8 l90 7 6 -25 c3 -14 3 -28 -1 -32z"/>
<path d="M2360 6169 c-96 -4 -256 -14 -355 -23 -99 -9 -230 -21 -291 -26 -179
-15 -373 -49 -429 -76 -46 -22 -66 -82 -38 -117 50 -63 378 -371 445 -419 43
-30 108 -84 146 -121 l69 -66 7 -93 c3 -51 13 -123 21 -160 20 -99 152 -513
184 -584 16 -33 78 -137 139 -230 l111 -170 151 -125 c99 -83 183 -144 248
-179 53 -29 115 -65 137 -80 76 -50 320 -178 375 -195 30 -10 72 -26 92 -36
65 -33 473 -84 511 -64 25 12 25 12 12 658 l-7 327 -27 0 c-45 0 -333 40 -406
57 -107 24 -242 102 -378 217 -101 87 -231 331 -272 511 -14 61 -25 120 -25
133 0 25 35 59 150 147 41 32 118 99 170 149 53 50 131 118 175 150 109 81
243 203 260 236 13 25 12 32 -5 69 -27 54 -57 68 -187 86 -233 32 -585 41
-983 24z m932 -73 c70 -9 138 -20 152 -26 26 -9 35 -34 17 -44 -8 -6 -186 -55
-361 -101 l-85 -23 -88 29 c-170 55 -233 64 -467 63 -162 0 -240 -5 -315 -18
-116 -21 -261 -61 -291 -81 -17 -11 -57 -6 -285 32 -145 25 -268 49 -273 53
-32 30 365 86 849 120 83 6 168 12 190 14 22 2 218 3 435 1 283 -2 431 -8 522
-19z m98 -176 c-19 -17 -80 -65 -135 -107 -55 -43 -145 -121 -200 -173 -55
-53 -136 -123 -180 -157 -44 -33 -97 -79 -117 -102 -32 -37 -36 -46 -31 -84 9
-85 36 -204 59 -265 31 -83 126 -259 172 -321 128 -167 430 -341 595 -341 22
0 81 -7 131 -15 50 -8 103 -16 118 -17 l28 -3 4 -145 c16 -513 19 -740 8 -740
-6 0 -96 11 -199 25 -163 22 -204 31 -309 70 -111 42 -294 137 -466 243 -37
23 -89 52 -117 66 -27 14 -94 63 -148 108 -54 46 -117 98 -141 117 -39 30
-196 255 -274 391 -26 44 -78 197 -157 455 -39 130 -78 346 -66 366 11 16 -4
59 -20 59 -8 0 -15 6 -15 13 0 20 -128 139 -210 196 -65 46 -377 338 -368 346
2 1 118 -17 258 -41 345 -59 550 -72 875 -55 491 24 510 27 790 105 151 42
157 43 115 6z"/>
<path d="M2089 5277 c-26 -57 50 -323 166 -577 71 -157 91 -190 116 -190 32 0
32 25 1 81 -52 93 -149 320 -181 424 -18 55 -37 140 -44 190 -10 70 -17 91
-30 93 -10 2 -21 -6 -28 -21z"/>
<path d="M2467 4383 c-13 -12 -7 -30 21 -72 46 -68 114 -103 129 -66 3 11 -9
28 -36 51 -23 20 -48 49 -57 65 -13 27 -42 38 -57 22z"/>
<path d="M2711 4116 c-18 -21 -5 -39 65 -90 53 -39 67 -46 79 -36 8 7 15 18
15 24 0 10 -130 116 -142 116 -3 0 -11 -6 -17 -14z"/>
<path d="M3003 3913 c-30 -11 -12 -42 37 -67 28 -14 81 -43 118 -65 97 -58
197 -94 211 -77 19 22 2 44 -47 61 -26 8 -75 31 -109 50 -35 19 -91 51 -125
70 -66 36 -66 36 -85 28z"/>
<path d="M10091 6008 c-19 -29 -62 -87 -96 -128 -35 -41 -83 -110 -109 -154
-25 -43 -66 -101 -90 -130 -24 -28 -71 -94 -106 -146 -35 -52 -83 -120 -106
-151 -58 -76 -71 -104 -55 -123 11 -13 30 -14 106 -9 51 3 100 3 108 0 13 -5
9 -23 -27 -109 -55 -132 -73 -161 -187 -287 -118 -131 -270 -236 -432 -299
-113 -44 -198 -64 -218 -51 -7 4 -18 5 -26 2 -25 -10 -11 -855 16 -925 12 -31
-5 -30 186 -8 204 24 325 71 550 214 199 127 390 317 544 544 259 382 329 502
369 637 16 55 35 142 42 193 l13 92 66 1 c79 1 93 5 121 42 22 28 22 29 4 63
-11 20 -49 74 -86 122 -38 48 -91 121 -120 162 -166 241 -384 500 -421 500 -7
0 -28 -24 -46 -52z m191 -176 c102 -125 173 -219 238 -317 19 -27 56 -77 84
-110 47 -57 116 -158 116 -170 0 -3 -33 -5 -74 -5 -109 0 -122 -14 -142 -148
-24 -160 -61 -265 -149 -414 -103 -176 -140 -234 -185 -288 -21 -25 -52 -69
-70 -99 -57 -98 -199 -267 -290 -347 -36 -31 -79 -69 -97 -85 -44 -40 -236
-163 -303 -194 -165 -79 -324 -120 -440 -113 l-55 3 -6 100 c-4 55 -8 237 -10
405 l-3 305 70 15 c133 31 259 89 410 191 81 54 122 91 207 188 59 66 119 146
135 178 51 100 114 263 108 278 -4 11 -31 15 -116 17 l-111 3 41 55 c23 30 62
87 87 125 26 39 75 107 109 151 35 45 80 110 100 145 21 35 58 89 84 119 26
30 64 79 84 107 32 45 41 51 56 43 10 -6 65 -67 122 -138z"/>
<path d="M9717 4798 c-59 -88 -103 -138 -198 -226 -67 -62 -148 -131 -181
-153 -59 -41 -66 -54 -36 -73 24 -14 95 37 247 177 197 183 333 387 258 387
-7 0 -48 -51 -90 -112z"/>
<path d="M9125 4315 c-38 -19 -83 -35 -100 -37 -33 -3 -47 -34 -23 -49 25 -16
60 -9 144 30 63 30 84 45 84 59 0 15 -23 37 -33 31 -1 0 -33 -16 -72 -34z"/>
<path d="M4557 6014 c-4 -4 -10 -29 -13 -55 -6 -48 -7 -48 -48 -51 -34 -2 -42
-7 -44 -25 -2 -14 2 -24 10 -25 7 -1 211 -2 453 -3 363 -1 485 -5 695 -23 167
-14 334 -22 485 -22 127 0 325 -5 440 -11 116 -6 359 -12 540 -14 182 -2 407
-8 500 -14 94 -6 257 -11 363 -12 l192 -1 0 -76 c0 -42 4 -137 10 -211 5 -75
12 -422 15 -771 3 -349 9 -680 15 -735 5 -55 14 -295 20 -533 5 -239 13 -438
16 -444 4 -5 10 -274 15 -596 5 -323 13 -679 18 -792 9 -197 9 -206 -10 -219
-18 -13 -27 -51 -11 -51 4 0 13 -4 20 -9 12 -7 12 -12 1 -29 -12 -19 -11 -24
3 -38 31 -32 68 9 68 75 0 24 5 30 31 35 17 3 43 19 59 34 l29 29 -10 824 c-5
453 -13 860 -18 904 -5 44 -12 274 -15 510 -4 237 -13 522 -21 635 -7 113 -16
408 -20 655 -3 267 -12 513 -20 605 -8 85 -14 196 -12 245 l2 90 -25 -1 c-14
-1 -28 3 -32 9 -4 7 -108 13 -285 18 -263 7 -282 9 -358 34 -89 29 -162 33
-575 27 -324 -5 -1138 7 -1285 19 -149 12 -1188 23 -1198 13z m1173 -70 c135
-8 297 -14 360 -13 63 1 417 -1 785 -4 660 -5 671 -6 730 -28 61 -22 229 -35
548 -40 104 -2 117 -4 111 -18 -9 -21 -5 -192 6 -306 5 -49 12 -295 15 -545 4
-250 13 -540 21 -643 8 -104 19 -405 24 -670 6 -265 17 -570 24 -677 11 -141
15 -382 15 -872 l-1 -678 -26 -20 c-14 -11 -29 -17 -33 -13 -11 11 -29 622
-29 993 -1 157 -5 350 -10 430 -5 80 -14 318 -20 530 -5 212 -17 494 -26 628
-10 166 -15 402 -15 745 0 276 -5 593 -11 704 -9 157 -9 208 0 229 10 20 10
30 1 40 -6 8 -9 23 -6 34 3 11 -3 30 -13 42 -17 22 -25 23 -216 25 -110 1
-251 5 -314 9 -63 3 -290 10 -505 14 -990 21 -1314 31 -1585 53 -226 17 -355
22 -622 21 l-338 -2 0 24 0 24 443 0 c288 0 528 -6 687 -16z"/>
<path d="M4420 5830 c-6 -11 -15 -107 -20 -213 -5 -106 -14 -260 -20 -343 -14
-210 -3 -1696 26 -3424 3 -180 1 -412 -5 -520 -10 -192 -10 -195 11 -217 19
-21 31 -23 113 -23 51 0 159 9 241 20 562 73 1008 72 1705 -4 403 -45 696 -56
884 -36 50 6 178 14 285 19 166 8 213 13 315 39 66 17 152 36 190 43 81 13
105 24 105 45 0 34 -57 28 -304 -32 -116 -28 -165 -35 -285 -39 -81 -3 -205
-10 -278 -17 -208 -17 -568 -5 -888 31 -403 45 -483 51 -805 58 -314 6 -576
-8 -895 -47 -82 -10 -194 -22 -249 -26 l-99 -7 7 114 c15 294 17 471 5 809 -6
201 -13 552 -14 780 -1 228 -5 685 -9 1015 -11 938 -9 1326 8 1540 8 105 16
248 18 320 3 115 1 130 -14 133 -9 2 -22 -6 -28 -18z"/>
<path d="M4831 5640 c-46 -11 -80 -38 -119 -94 -48 -72 -66 -143 -66 -267 -1
-102 0 -107 37 -182 57 -115 145 -177 250 -177 72 0 125 27 164 82 23 35 25
41 11 54 -19 19 -39 11 -60 -27 -25 -42 -81 -64 -138 -53 l-45 9 -3 303 -2
302 28 0 c45 0 132 -29 150 -51 35 -40 77 -8 48 37 -29 43 -181 82 -255 64z"/>
<path d="M5337 5629 c-51 -14 -127 -71 -152 -113 -48 -83 -72 -337 -40 -443
34 -116 102 -167 223 -167 l73 -1 48 50 c68 71 93 141 99 281 5 125 -9 193
-58 279 -57 100 -117 135 -193 114z m83 -71 c73 -50 127 -202 116 -323 -10
-111 -34 -179 -78 -230 -37 -42 -43 -45 -87 -45 l-48 0 -6 293 c-5 284 -5 292
15 310 27 23 48 22 88 -5z"/>
<path d="M5835 5609 c-73 -39 -97 -62 -121 -113 -32 -71 -47 -178 -43 -315 4
-107 6 -120 35 -171 41 -74 107 -110 202 -110 l65 0 52 53 c43 42 57 65 75
122 28 90 37 224 20 296 -18 78 -65 168 -113 217 -36 37 -46 42 -87 42 -27 0
-61 -9 -85 -21z m135 -65 c72 -61 114 -201 99 -333 -12 -110 -41 -181 -89
-225 -40 -36 -56 -41 -96 -30 -20 5 -21 12 -27 302 -5 230 -4 298 6 304 26 16
76 8 107 -18z"/>
<path d="M6799 5599 c-21 -21 -22 -25 -15 -308 6 -270 10 -359 19 -368 9 -8
137 -19 148 -12 9 5 9 54 0 195 -6 104 -11 257 -11 341 l0 152 -37 10 c-56 16
-81 13 -104 -10z"/>
<path d="M6168 5593 c-2 -10 2 -108 9 -218 7 -110 17 -259 21 -332 4 -72 11
-135 15 -139 8 -9 78 -6 127 4 l35 8 5 170 5 171 30 36 c17 19 32 36 36 36 3
1 13 -20 23 -46 9 -27 56 -124 104 -218 68 -133 92 -170 107 -170 30 0 29 29
-3 92 -136 272 -162 326 -172 361 l-12 40 76 89 c42 50 76 95 76 100 0 6 -7
16 -15 23 -13 11 -22 5 -58 -36 -23 -26 -67 -75 -97 -108 -30 -34 -65 -74 -77
-91 -12 -16 -24 -28 -26 -25 -3 3 -8 61 -11 129 -3 67 -9 127 -12 132 -3 5
-45 9 -93 9 -76 0 -89 -2 -93 -17z"/>
<path d="M7080 5601 l-45 -6 2 -190 c4 -276 14 -490 23 -506 10 -15 149 -31
165 -19 6 5 50 13 99 18 92 10 113 20 102 48 -6 14 -17 16 -100 9 l-93 -7 -6
122 c-4 67 -5 126 -2 131 3 4 41 6 84 2 63 -5 79 -3 83 9 12 31 -10 42 -94 48
l-83 5 -3 141 -3 141 88 -1 c82 -1 88 0 91 20 3 20 -4 22 -86 33 -92 11 -146
12 -222 2z"/>
<path d="M7645 5579 c-39 -11 -73 -43 -90 -83 -20 -49 -28 -138 -16 -183 19
-70 108 -133 188 -133 15 0 23 -8 27 -27 11 -50 26 -167 26 -200 l0 -33 -76 0
c-82 0 -71 -6 -138 75 -23 28 -26 29 -41 14 -15 -15 -15 -19 -1 -47 43 -82
106 -111 221 -99 111 11 158 55 170 157 13 109 -46 189 -155 212 -70 14 -67 6
-73 186 l-5 113 42 -7 c71 -11 111 -28 121 -51 12 -29 31 -36 49 -18 35 35
-24 98 -106 113 -94 18 -112 20 -143 11z"/>
<path d="M5213 4503 c-23 -2 -46 -9 -51 -16 -11 -15 4 -240 18 -267 10 -18 18
-19 83 -14 91 7 97 9 97 33 0 22 -25 31 -92 31 -46 0 -48 1 -48 29 0 28 2 30
48 33 43 3 47 5 47 28 0 23 -3 25 -47 23 -42 -1 -46 1 -51 25 -3 15 -3 30 0
34 2 5 33 8 69 8 51 0 66 4 71 16 4 11 -1 22 -12 30 -18 14 -43 15 -132 7z"/>
<path d="M5481 4498 c-25 -4 -48 -11 -53 -16 -5 -5 -7 -73 -6 -153 l3 -144 25
0 c24 0 25 3 25 57 1 56 2 59 42 88 50 37 73 71 73 108 0 50 -41 73 -109 60z
m52 -55 c8 -7 -41 -63 -55 -63 -13 0 -9 58 5 63 18 8 43 8 50 0z"/>
<path d="M5777 4488 c-93 -150 -102 -180 -62 -186 15 -2 26 9 45 45 l25 47 6
-29 c4 -17 7 -49 8 -72 1 -41 0 -43 -28 -43 -79 0 -124 -28 -88 -55 12 -9 32
-10 69 -3 29 5 86 7 125 6 81 -3 109 10 81 38 -8 8 -34 18 -56 21 -46 6 -44 2
-58 148 -3 39 -10 78 -15 88 -13 24 -36 21 -52 -5z"/>
<path d="M4875 4486 c-28 -20 -12 -46 28 -46 l34 0 5 -109 c5 -115 16 -148 46
-132 13 7 15 29 13 131 l-3 123 46 -5 c52 -6 81 8 70 35 -5 15 -21 17 -113 17
-74 0 -113 -4 -126 -14z"/>
<path d="M4707 4462 c-32 -33 -45 -85 -27 -107 7 -8 39 -29 71 -47 65 -34 76
-61 34 -80 -20 -9 -37 -9 -75 1 -51 13 -70 9 -70 -14 0 -22 58 -47 111 -48 76
-1 130 49 115 107 -8 33 -37 60 -92 86 -24 11 -44 26 -44 34 0 19 37 50 45 37
9 -16 45 -13 52 4 9 24 -26 55 -62 55 -21 0 -40 -9 -58 -28z"/>
<path d="M6065 4456 c-20 -15 -17 -49 6 -54 17 -3 49 22 49 38 0 19 -37 30
-55 16z"/>
<path d="M6060 4294 c-12 -14 -12 -18 4 -30 23 -17 59 -1 54 24 -4 23 -41 27
-58 6z"/>
<path d="M7235 4024 c-651 -16 -1783 -43 -2145 -50 -157 -3 -295 -7 -308 -10
-17 -3 -22 -10 -20 -27 3 -22 3 -22 208 -20 262 2 2409 51 2680 61 189 6 205
8 208 26 5 26 -15 36 -73 34 -27 0 -275 -7 -550 -14z"/>
<path d="M7410 3813 c-63 -1 -482 -9 -930 -18 -1249 -24 -1712 -35 -1721 -41
-5 -3 -9 -15 -9 -26 l0 -21 413 6 c226 4 752 14 1167 22 415 9 918 19 1117 23
370 7 394 10 380 46 -7 17 -43 17 -417 9z"/>
<path d="M5801 3404 c-34 -28 -42 -71 -15 -81 10 -4 24 4 40 23 l24 29 -11
-30 c-6 -16 -29 -65 -52 -108 -41 -76 -41 -79 -23 -93 13 -9 45 -14 93 -14 60
0 74 3 82 18 15 28 -6 42 -61 42 -26 0 -48 2 -48 5 0 2 15 33 34 67 40 75 51
119 36 147 -15 29 -61 27 -99 -5z"/>
<path d="M4938 3413 c-46 -3 -58 -8 -63 -23 -10 -30 4 -43 40 -37 l32 5 7
-111 c7 -114 19 -146 49 -134 12 4 13 27 9 126 l-5 121 57 0 c42 0 58 4 63 16
3 8 1 20 -6 27 -12 12 -94 17 -183 10z"/>
<path d="M5203 3413 l-33 -4 0 -62 c1 -95 18 -210 35 -226 13 -13 20 -13 51
-2 20 7 50 10 68 7 42 -8 62 11 42 39 -11 15 -27 19 -69 19 -48 0 -57 3 -61
21 -9 32 -8 32 40 38 51 5 70 18 61 41 -5 12 -20 16 -57 16 -49 0 -50 1 -50
30 0 29 0 29 68 32 64 3 67 4 67 28 0 24 -3 25 -65 26 -36 1 -80 -1 -97 -3z"/>
<path d="M5470 3407 l-35 -12 -3 -141 c-3 -148 4 -173 42 -158 12 5 16 20 16
63 1 55 2 57 47 91 119 90 71 204 -67 157z m80 -54 c0 -11 -12 -25 -37 -47
l-23 -19 0 36 c0 34 2 37 30 37 17 0 30 -3 30 -7z"/>
<path d="M4738 3393 c-31 -20 -62 -86 -53 -114 4 -11 32 -32 64 -48 72 -37 85
-51 68 -76 -15 -20 -83 -23 -116 -6 -26 15 -29 14 -41 -9 -16 -29 38 -60 106
-60 43 0 57 5 83 29 58 54 34 120 -59 162 -55 25 -60 37 -30 64 16 14 22 15
35 5 19 -16 45 -6 45 18 0 41 -60 61 -102 35z"/>
<path d="M6071 3376 c-16 -20 -3 -46 24 -46 13 0 26 7 29 16 7 19 -10 44 -29
44 -7 0 -18 -6 -24 -14z"/>
<path d="M6086 3235 c-20 -21 -9 -45 20 -45 29 0 41 24 24 45 -16 19 -25 19
-44 0z"/>
<path d="M7435 2980 c-813 -25 -1049 -32 -1530 -45 -973 -28 -1208 -36 -1216
-41 -13 -8 -11 -41 4 -46 6 -2 129 -1 272 3 323 10 1160 34 1905 54 311 9 644
19 740 23 l175 7 0 25 c0 31 8 30 -350 20z"/>
<path d="M7090 2719 c-400 -12 -1363 -37 -1900 -50 -485 -12 -502 -14 -486
-54 6 -16 23 -17 194 -11 103 4 455 13 782 21 1319 33 1753 45 1918 51 l172 6
0 24 0 24 -202 -2 c-112 0 -327 -5 -478 -9z"/>
<path d="M5471 2454 c-516 -9 -778 -17 -785 -24 -7 -7 -7 -16 0 -28 10 -15 29
-17 175 -14 90 1 468 7 839 13 371 6 678 13 682 15 14 9 8 42 -8 48 -9 3 -41
5 -72 5 -31 -1 -405 -8 -831 -15z"/>
<path d="M5285 2111 l-60 -6 -3 -38 c-2 -21 1 -84 7 -140 10 -106 26 -136 61
-120 8 3 42 9 75 12 46 5 61 10 63 23 5 24 -40 41 -95 36 -37 -3 -43 0 -48 21
-7 29 7 41 50 41 44 0 63 15 49 37 -9 14 -22 17 -58 15 -45 -3 -46 -2 -46 26
0 34 17 42 91 42 46 0 65 14 51 37 -10 16 -67 21 -137 14z"/>
<path d="M5863 2099 c-48 -24 -62 -48 -37 -66 14 -10 23 -9 51 8 48 30 52 16
9 -31 -40 -44 -42 -52 -22 -69 11 -9 22 -8 51 6 31 15 37 15 46 3 13 -21 2
-62 -23 -83 -16 -13 -34 -17 -67 -15 -38 3 -46 0 -49 -16 -9 -45 76 -62 133
-26 47 29 65 62 65 117 -1 48 -17 83 -39 83 -14 0 -14 2 -1 36 8 20 7 32 -5
50 -19 30 -56 31 -112 3z"/>
<path d="M4950 2101 c-16 -4 -25 -14 -25 -26 0 -16 8 -21 36 -23 43 -4 49 -20
49 -141 0 -84 13 -117 43 -105 15 5 16 18 10 121 -7 125 -3 135 46 126 43 -7
73 5 69 30 -3 21 -8 22 -103 24 -55 1 -111 -2 -125 -6z"/>
<path d="M5510 2101 c-25 -7 -25 -8 -28 -136 -3 -156 0 -177 31 -173 19 3 23
11 27 59 5 53 8 60 56 103 29 25 55 57 58 71 7 25 -7 64 -28 77 -13 9 -82 9
-116 -1z m86 -52 c3 -6 -8 -25 -25 -42 l-31 -32 0 37 c0 20 6 39 13 41 21 9
36 7 43 -4z"/>
<path d="M4770 2070 c-31 -33 -43 -76 -29 -102 6 -10 36 -31 68 -48 65 -32 78
-51 54 -76 -13 -12 -27 -15 -62 -10 -86 13 -86 13 -86 -14 0 -21 7 -26 49 -38
60 -17 106 -9 140 25 30 29 35 76 11 109 -8 12 -39 33 -70 48 -59 28 -62 32
-41 61 11 16 18 17 37 9 13 -6 30 -9 37 -7 18 7 15 37 -6 56 -29 26 -70 21
-102 -13z"/>
<path d="M6210 2079 c-15 -28 -9 -63 12 -67 19 -4 49 53 40 76 -7 19 -40 14
-52 -9z"/>
<path d="M6207 1983 c-4 -3 -7 -21 -7 -39 0 -50 39 -55 54 -6 11 34 -25 68
-47 45z"/>
<path d="M4693 1604 c-3 -8 -1 -20 4 -25 5 -5 619 -8 1594 -7 1576 3 1584 3
1584 23 0 20 -8 20 -1588 23 -1435 2 -1588 1 -1594 -14z"/>
<path d="M7949 782 c-36 -18 -79 -88 -79 -129 0 -32 32 -61 77 -68 21 -4 55
-11 76 -16 35 -9 37 -12 37 -48 0 -46 -30 -88 -77 -107 -55 -23 -93 12 -93 85
0 16 -7 35 -16 42 -25 20 -46 -14 -38 -61 18 -98 56 -136 129 -128 79 9 144
74 153 153 8 75 -33 116 -131 130 -54 8 -66 24 -46 61 20 37 45 48 80 34 16
-7 29 -16 29 -19 0 -19 27 -42 43 -35 34 13 15 74 -31 97 -48 25 -77 27 -113
9z"/>
<path d="M7452 754 c-19 -13 -20 -19 -11 -36 9 -16 8 -64 -1 -191 -13 -175
-10 -192 26 -185 17 3 20 17 26 113 4 61 9 121 10 134 2 19 20 -2 91 -107 72
-110 91 -132 112 -132 14 0 29 8 35 19 6 12 10 95 10 199 0 147 -3 182 -15
192 -12 10 -18 10 -31 -1 -15 -12 -16 -32 -11 -160 3 -81 3 -149 0 -153 -11
-10 -183 261 -183 288 0 13 -7 27 -16 30 -20 8 -16 9 -42 -10z"/>
<path d="M6715 744 c-108 -17 -115 -19 -115 -39 0 -14 -5 -13 -31 6 -35 25
-80 29 -103 9 -38 -31 -58 -174 -35 -251 19 -61 59 -92 126 -97 49 -3 64 0 93
20 38 26 47 60 17 66 -10 2 -26 -3 -35 -11 -25 -22 -64 -30 -94 -18 -41 15
-60 53 -61 118 0 58 18 133 32 133 16 0 60 -41 81 -75 37 -59 81 -32 46 28
-23 41 -14 47 82 51 15 1 17 -13 17 -164 l0 -165 25 0 25 0 5 170 5 170 80 5
c68 4 80 8 83 24 2 10 -2 22 -10 27 -19 13 -129 9 -233 -7z"/>
<path d="M5853 724 c-66 -30 -68 -38 -67 -219 0 -167 6 -198 37 -193 21 3 22
6 18 96 l-3 92 46 0 c26 0 74 -9 107 -20 61 -21 79 -20 79 5 0 24 -50 54 -101
61 l-49 7 50 46 c40 37 50 54 50 79 0 72 -71 92 -167 46z m107 -48 c0 -14 -56
-63 -97 -85 -25 -13 -26 -10 -17 38 4 20 16 37 33 46 34 19 81 19 81 1z"/>
<path d="M6086 732 c-7 -21 8 -185 24 -258 24 -113 80 -147 134 -83 14 17 26
38 27 47 0 9 7 -4 14 -29 16 -61 22 -69 50 -69 29 0 38 22 19 49 -11 15 -17
60 -21 154 -7 154 -13 180 -45 175 -21 -3 -24 -13 -40 -115 -18 -115 -39 -183
-57 -183 -14 0 -40 127 -49 235 -6 82 -9 90 -29 93 -14 2 -23 -3 -27 -16z"/>
<path d="M6996 742 c-2 -4 -6 -87 -7 -185 -2 -185 4 -219 36 -187 10 11 16 56
21 171 8 174 3 209 -26 209 -10 0 -21 -4 -24 -8z"/>
<path d="M7167 732 c-23 -25 -34 -59 -42 -129 -16 -137 22 -223 97 -223 46 0
76 24 104 84 41 87 27 181 -37 248 -28 30 -43 38 -71 38 -21 0 -41 -7 -51 -18z
m86 -67 c33 -1 48 -119 23 -180 -21 -48 -50 -61 -77 -34 -20 20 -21 29 -17
119 6 113 10 125 41 108 12 -7 26 -12 30 -13z"/>
<path d="M5515 715 c-5 -2 -40 -6 -77 -10 -52 -5 -68 -10 -68 -22 0 -11 -5
-13 -17 -8 -56 24 -114 12 -157 -32 -48 -48 -27 -102 52 -133 35 -14 82 -66
82 -91 0 -45 -77 -54 -114 -14 -27 29 -51 32 -60 8 -17 -44 66 -97 139 -87
127 17 114 169 -20 234 -25 12 -45 27 -45 32 0 29 80 52 95 28 9 -15 45 -12
45 4 0 9 15 16 40 20 22 3 58 9 80 12 l39 6 3 -164 3 -163 25 0 25 0 3 162 2
162 68 3 c64 3 67 4 67 28 0 25 -1 25 -100 27 -55 1 -104 0 -110 -2z"/>
<path d="M4655 700 c-3 -6 -8 -91 -10 -190 -3 -165 -1 -181 15 -190 12 -7 21
-6 28 3 15 19 26 341 12 366 -11 22 -35 28 -45 11z"/>
<path d="M4812 693 c-3 -10 -7 -92 -7 -183 l0 -165 25 0 25 0 5 130 5 130 60
-134 c91 -203 112 -203 125 0 5 74 12 155 16 180 6 51 -9 68 -40 46 -13 -10
-18 -37 -23 -120 -3 -59 -10 -107 -15 -107 -4 0 -8 4 -8 9 0 6 -23 60 -51 120
-49 104 -54 111 -81 111 -18 0 -31 -6 -36 -17z"/>
</g>
</svg>
