<?xml version="1.0" standalone="no"?>
<!DOCTYPE svg PUBLIC "-//W3C//DTD SVG 20010904//EN"
 "http://www.w3.org/TR/2001/REC-SVG-20010904/DTD/svg10.dtd">
<svg version="1.0" xmlns="http://www.w3.org/2000/svg"
 width="956.000000pt" height="529.000000pt" viewBox="0 0 956.000000 529.000000"
 preserveAspectRatio="xMidYMid meet">

<g transform="translate(0.000000,529.000000) scale(0.100000,-0.100000)"
fill="#000000" stroke="none">
<path d="M6938 4805 c-13 -30 3 -55 36 -54 l21 0 -21 9 c-30 12 -38 28 -24 46
10 11 16 12 26 3 11 -9 14 -8 14 5 0 26 -39 19 -52 -9z"/>
<path d="M7167 4816 c-3 -8 1 -29 9 -46 13 -25 19 -29 30 -19 18 15 18 20 -1
13 -19 -8 -21 32 -2 39 9 4 8 8 -3 16 -20 14 -27 14 -33 -3z"/>
<path d="M7310 4820 c0 -5 5 -10 11 -10 5 0 7 5 4 10 -3 6 -8 10 -11 10 -2 0
-4 -4 -4 -10z"/>
<path d="M7541 4801 c-11 -7 -10 -12 8 -22 25 -16 28 -31 4 -22 -11 4 -14 3
-9 -5 4 -7 13 -12 21 -12 24 0 29 22 9 37 -16 12 -17 15 -4 23 13 9 13 10 0
10 -8 0 -21 -4 -29 -9z"/>
<path d="M7014 4785 c-9 -24 10 -39 41 -31 18 5 25 12 23 24 -4 23 -56 29 -64
7z m49 -10 c1 -5 -6 -11 -15 -13 -11 -2 -18 3 -18 13 0 17 30 18 33 0z"/>
<path d="M7108 4793 c-10 -2 -18 -11 -18 -19 0 -16 16 -19 25 -3 5 6 12 4 22
-8 14 -17 14 -17 9 0 -3 10 -6 23 -6 28 0 9 -4 10 -32 2z"/>
<path d="M7240 4785 c-17 -20 -4 -34 30 -32 34 2 34 2 20 28 -13 23 -33 25
-50 4z m22 -17 c-7 -7 -12 -8 -12 -2 0 14 12 26 19 19 2 -3 -1 -11 -7 -17z"/>
<path d="M7358 4793 c-10 -2 -18 -11 -18 -19 0 -16 16 -19 25 -3 5 6 12 4 22
-8 14 -17 14 -17 9 0 -3 10 -6 23 -6 28 0 9 -4 10 -32 2z"/>
<path d="M7414 4785 c-9 -23 3 -45 26 -45 11 0 20 4 20 10 0 5 -6 7 -14 4 -8
-3 -17 -1 -20 4 -3 5 3 12 14 15 11 3 20 10 20 16 0 17 -40 13 -46 -4z"/>
<path d="M7480 4773 c1 -26 1 -27 12 -8 6 11 16 23 22 27 6 5 1 8 -11 8 -18 0
-23 -6 -23 -27z"/>
<path d="M7310 4770 c0 -5 5 -10 11 -10 5 0 7 5 4 10 -3 6 -8 10 -11 10 -2 0
-4 -4 -4 -10z"/>
<path d="M2413 4680 c0 -30 2 -43 4 -27 2 15 2 39 0 55 -2 15 -4 2 -4 -28z"/>
<path d="M2732 4678 c-2 -45 9 -61 23 -38 5 8 12 7 22 -2 13 -10 15 -9 11 7
-2 14 -11 19 -25 18 -18 -2 -23 4 -26 30 -3 24 -4 21 -5 -15z"/>
<path d="M2192 4689 c-8 -12 -8 -19 -2 -19 5 0 10 -9 10 -19 0 -25 18 -37 33
-22 8 8 6 11 -6 11 -21 0 -22 26 -2 37 12 7 12 10 -3 20 -15 9 -21 7 -30 -8z"/>
<path d="M2507 4688 c-4 -15 -10 -34 -13 -45 -5 -16 -4 -16 8 -2 18 21 50 20
56 -3 2 -10 8 -18 12 -18 4 0 3 18 -2 41 -7 27 -14 37 -21 30 -7 -7 -14 -5
-22 6 -11 14 -13 13 -18 -9z"/>
<path d="M2020 4691 c0 -19 20 -61 29 -61 5 0 14 13 21 29 6 17 19 32 28 34
12 3 11 5 -5 6 -14 1 -24 -6 -28 -19 -7 -23 -25 -27 -25 -6 0 8 -4 18 -10 21
-5 3 -10 2 -10 -4z"/>
<path d="M6502 4641 c-2 -52 -1 -54 17 -37 17 16 19 16 25 0 4 -9 9 -15 11
-12 12 12 -9 39 -26 35 -14 -4 -19 2 -22 32 -3 27 -4 23 -5 -18z"/>
<path d="M7991 4640 c-1 -51 0 -53 16 -38 15 16 17 16 30 0 13 -16 14 -16 11
3 -2 12 -11 20 -23 20 -15 0 -22 9 -26 35 -5 30 -6 27 -8 -20z"/>
<path d="M2130 4655 c0 -32 12 -32 27 0 10 22 9 25 -8 25 -14 0 -19 -7 -19
-25z"/>
<path d="M2670 4665 c-16 -20 -4 -35 28 -34 24 2 24 2 5 6 -26 5 -31 23 -8 23
8 0 15 5 15 10 0 15 -26 12 -40 -5z"/>
<path d="M2858 4673 c-10 -3 -18 -14 -18 -25 0 -17 2 -19 16 -7 13 10 17 10
25 -2 7 -11 9 -9 9 8 0 25 -8 31 -32 26z"/>
<path d="M2936 4668 c5 -7 3 -8 -6 -3 -15 9 -30 -12 -23 -32 3 -7 17 -13 32
-12 l26 1 -25 7 c-21 6 -22 8 -7 14 18 7 24 37 6 37 -5 0 -7 -5 -3 -12z"/>
<path d="M7103 4668 c-30 -14 -29 -26 3 -38 29 -11 23 -34 -7 -25 -11 4 -19 2
-19 -4 0 -16 46 -13 59 3 10 12 8 17 -8 26 -24 12 -28 30 -7 30 8 0 18 5 21
10 8 13 -14 12 -42 -2z"/>
<path d="M7411 4638 c-1 -48 11 -63 24 -30 6 16 8 16 22 -3 l15 -20 -4 20 c-2
12 -11 20 -23 20 -14 0 -22 9 -26 30 -6 25 -7 22 -8 -17z"/>
<path d="M7651 4668 c-1 -10 -6 -18 -11 -18 -7 0 -7 -6 -1 -17 5 -10 12 -26
15 -35 5 -18 36 -15 36 3 0 4 -7 6 -15 3 -21 -9 -19 25 3 42 15 12 15 13 0 14
-9 0 -19 6 -21 13 -3 7 -6 5 -6 -5z"/>
<path d="M2260 4653 c0 -18 6 -21 30 -21 32 1 35 5 21 26 -6 11 -10 10 -15 -5
-7 -17 -8 -17 -22 1 -14 19 -14 19 -14 -1z"/>
<path d="M2337 4663 c-18 -17 -5 -32 27 -31 31 1 34 3 25 20 -10 18 -39 24
-52 11z m33 -7 c0 -3 -4 -8 -10 -11 -5 -3 -10 -1 -10 4 0 6 5 11 10 11 6 0 10
-2 10 -4z"/>
<path d="M2597 4664 c-18 -18 -6 -34 23 -32 21 2 30 7 28 18 -3 16 -39 26 -51
14z m28 -14 c-3 -5 -11 -10 -16 -10 -6 0 -7 5 -4 10 3 6 11 10 16 10 6 0 7 -4
4 -10z"/>
<path d="M6390 4660 c0 -5 5 -10 11 -10 5 0 7 5 4 10 -3 6 -8 10 -11 10 -2 0
-4 -4 -4 -10z"/>
<path d="M6428 4653 c-10 -13 -10 -17 0 -20 6 -3 12 -13 12 -22 0 -10 3 -20 6
-24 8 -8 34 3 34 14 0 4 -7 6 -15 3 -10 -4 -15 0 -15 15 0 12 5 21 10 21 15 0
12 17 -4 23 -8 3 -20 -1 -28 -10z"/>
<path d="M6992 4658 c-19 -19 -14 -56 8 -63 39 -12 83 33 59 61 -14 17 -51 18
-67 2z m55 -14 c7 -20 -22 -45 -43 -37 -17 6 -18 25 -2 41 17 17 38 15 45 -4z"/>
<path d="M8060 4660 c0 -5 5 -10 11 -10 5 0 7 5 4 10 -3 6 -8 10 -11 10 -2 0
-4 -4 -4 -10z"/>
<path d="M2101 4644 c0 -11 3 -14 6 -6 3 7 2 16 -1 19 -3 4 -6 -2 -5 -13z"/>
<path d="M2811 4644 c0 -11 3 -14 6 -6 3 7 2 16 -1 19 -3 4 -6 -2 -5 -13z"/>
<path d="M6631 4641 c-11 -7 -10 -12 8 -22 25 -17 28 -31 4 -22 -15 5 -16 3
-6 -7 9 -10 19 -11 35 -4 13 5 38 9 56 9 36 -1 36 -1 22 26 -14 24 -35 24 -52
0 -12 -17 -16 -17 -33 -5 -17 13 -18 16 -5 24 13 9 13 10 0 10 -8 0 -21 -4
-29 -9z m91 -33 c-7 -7 -12 -8 -12 -2 0 14 12 26 19 19 2 -3 -1 -11 -7 -17z"/>
<path d="M7295 4640 c-4 -6 4 -20 17 -31 l23 -20 -24 7 c-16 4 -21 3 -17 -5 9
-14 43 -14 52 0 6 10 -4 21 -31 33 -6 3 -3 9 5 15 13 9 13 11 -2 11 -9 0 -20
-5 -23 -10z"/>
<path d="M7571 4641 c-11 -7 -10 -12 8 -22 25 -16 28 -31 4 -22 -11 4 -14 3
-9 -5 4 -7 13 -12 21 -12 24 0 29 22 9 37 -16 12 -17 15 -4 23 13 9 13 10 0
10 -8 0 -21 -4 -29 -9z"/>
<path d="M6302 4620 c5 -43 77 -29 77 15 0 6 -6 2 -13 -8 -16 -20 -35 -19 -54
3 -11 13 -12 11 -10 -10z"/>
<path d="M6861 4622 c-16 -29 27 -60 44 -32 3 5 0 7 -8 4 -8 -3 -18 -1 -21 4
-3 5 4 12 15 15 12 3 18 10 14 16 -10 17 -33 13 -44 -7z"/>
<path d="M7220 4625 c-17 -20 -4 -34 30 -32 34 2 34 2 20 28 -13 23 -33 25
-50 4z m22 -17 c-7 -7 -12 -8 -12 -2 0 14 12 26 19 19 2 -3 -1 -11 -7 -17z"/>
<path d="M7490 4615 c0 -23 4 -26 28 -23 19 2 27 9 27 23 0 14 -8 21 -27 23
-24 3 -28 0 -28 -23z m45 5 c3 -6 -1 -13 -10 -16 -19 -8 -30 0 -20 15 8 14 22
14 30 1z"/>
<path d="M7857 4633 c-4 -3 -7 -14 -7 -24 0 -14 7 -18 30 -16 34 2 34 2 20 28
-11 19 -31 25 -43 12z m15 -25 c-7 -7 -12 -8 -12 -2 0 14 12 26 19 19 2 -3 -1
-11 -7 -17z"/>
<path d="M7926 4624 c-9 -23 2 -34 32 -33 24 2 24 2 5 6 -27 5 -31 30 -5 36
13 4 12 5 -4 6 -12 0 -25 -6 -28 -15z"/>
<path d="M8097 4618 c-6 -20 8 -25 19 -6 5 7 11 5 21 -7 9 -14 13 -15 13 -4
-1 36 -45 51 -53 17z"/>
<path d="M8170 4625 c-10 -12 -10 -18 0 -30 14 -17 36 -20 45 -5 3 5 0 7 -8 4
-8 -3 -18 -1 -22 5 -3 6 1 11 9 11 9 0 16 7 16 15 0 8 -6 15 -14 15 -7 0 -19
-7 -26 -15z"/>
<path d="M6770 4610 c0 -17 3 -18 26 -10 14 6 30 8 35 4 5 -3 9 2 9 10 0 12
-10 16 -35 16 -28 0 -35 -4 -35 -20z"/>
<path d="M7767 4623 c-4 -3 -7 -13 -7 -20 0 -10 6 -12 23 -7 12 4 28 7 35 7 6
0 12 6 12 14 0 13 -51 19 -63 6z"/>
<path d="M8072 4610 c0 -14 2 -19 5 -12 2 6 2 18 0 25 -3 6 -5 1 -5 -13z"/>
<path d="M6390 4611 c0 -6 5 -13 10 -16 6 -3 10 1 10 9 0 9 -4 16 -10 16 -5 0
-10 -4 -10 -9z"/>
<path d="M2079 4543 c-6 -17 -6 -35 0 -52 6 -17 10 -20 10 -8 1 21 41 24 41 2
0 -12 3 -12 18 3 16 15 16 18 2 30 -13 11 -13 14 4 27 11 8 17 18 13 21 -9 9
-37 -15 -37 -32 0 -8 -9 -14 -20 -14 -11 0 -20 7 -20 15 0 8 5 15 10 15 6 0
10 5 10 10 0 20 -21 9 -31 -17z"/>
<path d="M1461 4518 c-1 -49 6 -57 27 -36 10 10 15 10 23 -2 8 -12 9 -11 7 5
-2 11 -10 20 -18 20 -8 0 -20 14 -27 30 -11 30 -11 29 -12 -17z"/>
<path d="M1918 4510 c-31 -55 -36 -76 -12 -45 24 31 55 95 47 95 -5 0 -20 -23
-35 -50z"/>
<path d="M2007 4539 c-4 -15 -16 -29 -28 -32 -14 -4 -19 -12 -17 -24 2 -10 11
-16 19 -14 8 2 21 4 29 3 12 0 15 8 12 36 -5 54 -8 60 -15 31z m-12 -49 c-3
-5 -11 -10 -16 -10 -6 0 -7 5 -4 10 3 6 11 10 16 10 6 0 7 -4 4 -10z"/>
<path d="M1396 4535 c-8 -21 14 -75 30 -75 8 0 14 5 14 10 0 6 -4 10 -10 10
-13 0 -13 37 0 42 6 2 2 8 -9 15 -15 10 -20 9 -25 -2z"/>
<path d="M2456 4535 c-8 -21 14 -75 30 -75 8 0 14 5 14 10 0 6 -4 10 -10 10
-13 0 -13 37 0 42 6 2 2 8 -9 15 -15 10 -20 9 -25 -2z"/>
<path d="M2922 4529 c-8 -12 -8 -19 -2 -19 5 0 10 -9 10 -19 0 -25 18 -37 33
-22 8 8 6 11 -6 11 -21 0 -22 26 -2 37 12 7 12 10 -3 20 -15 9 -21 7 -30 -8z"/>
<path d="M3432 4529 c-8 -12 -8 -19 -2 -19 5 0 10 -9 10 -19 0 -25 18 -37 33
-22 8 8 6 11 -6 11 -21 0 -22 26 -2 37 12 7 12 10 -3 20 -15 9 -21 7 -30 -8z"/>
<path d="M1331 4507 c-14 -14 -43 -16 -53 -2 -4 6 -8 0 -8 -12 0 -18 6 -23 28
-23 17 0 32 8 40 21 15 24 11 34 -7 16z"/>
<path d="M1595 4511 c-3 -6 5 -15 17 -22 22 -12 22 -12 3 -20 -17 -6 -16 -8 8
-8 30 -1 35 10 12 29 -8 7 -12 16 -9 21 3 5 -2 9 -10 9 -8 0 -17 -4 -21 -9z"/>
<path d="M1830 4505 c-19 -23 -5 -45 27 -44 25 2 25 2 5 6 -22 4 -22 6 -6 17
9 7 14 18 10 24 -10 16 -21 15 -36 -3z"/>
<path d="M2200 4505 c-17 -21 -5 -45 22 -44 21 0 21 1 3 8 -18 7 -18 8 -1 18
11 6 16 15 12 22 -10 15 -21 14 -36 -4z"/>
<path d="M2260 4495 c0 -32 12 -32 27 0 10 22 9 25 -8 25 -14 0 -19 -7 -19
-25z"/>
<path d="M2320 4505 c-17 -21 -5 -45 22 -44 21 0 21 1 3 8 -18 7 -18 8 -1 18
11 6 16 15 12 22 -10 15 -21 14 -36 -4z"/>
<path d="M2398 4513 c-10 -3 -18 -14 -18 -25 0 -17 2 -19 16 -7 13 10 17 10
25 -2 7 -11 9 -9 9 8 0 25 -8 31 -32 26z"/>
<path d="M2579 4504 c-11 -14 -10 -18 5 -30 13 -9 24 -10 37 -3 22 11 24 20 7
37 -16 16 -33 15 -49 -4z m41 -14 c0 -5 -7 -10 -15 -10 -8 0 -15 5 -15 10 0 6
7 10 15 10 8 0 15 -4 15 -10z"/>
<path d="M2662 4508 c-15 -15 -16 -74 -2 -83 6 -4 9 4 7 17 -1 17 4 24 21 26
12 2 22 9 22 16 0 12 -19 36 -30 36 -3 0 -11 -5 -18 -12z m28 -18 c0 -5 -4
-10 -10 -10 -5 0 -10 5 -10 10 0 6 5 10 10 10 6 0 10 -4 10 -10z"/>
<path d="M2730 4505 c-19 -23 -5 -45 27 -44 25 2 25 2 5 6 -22 4 -22 6 -6 17
9 7 14 18 10 24 -10 16 -21 15 -36 -3z"/>
<path d="M2790 4495 c0 -32 12 -32 27 0 10 22 9 25 -8 25 -14 0 -19 -7 -19
-25z"/>
<path d="M3220 4506 c0 -8 8 -17 18 -21 16 -7 15 -8 -3 -15 -18 -8 -17 -9 8
-9 30 -1 38 23 11 33 -8 3 -12 10 -9 16 3 5 -1 10 -9 10 -9 0 -16 -6 -16 -14z"/>
<path d="M3360 4510 c0 -5 10 -15 22 -21 22 -12 22 -12 3 -20 -19 -7 -19 -8 2
-8 31 -1 38 16 12 30 -17 9 -19 13 -8 20 10 6 8 9 -8 9 -13 0 -23 -4 -23 -10z"/>
<path d="M3510 4505 c-17 -21 -5 -45 22 -44 21 0 21 1 3 8 -18 7 -18 8 -1 18
11 6 16 15 12 22 -10 15 -21 14 -36 -4z"/>
<path d="M3660 4510 c0 -5 10 -15 22 -21 22 -12 22 -12 3 -20 -19 -7 -19 -8 2
-8 31 -1 38 16 12 30 -17 9 -19 13 -8 20 10 6 8 9 -8 9 -13 0 -23 -4 -23 -10z"/>
<path d="M1667 4504 c-18 -18 -6 -34 23 -32 21 2 30 7 28 18 -3 16 -39 26 -51
14z m28 -14 c-3 -5 -11 -10 -16 -10 -6 0 -7 5 -4 10 3 6 11 10 16 10 6 0 7 -4
4 -10z"/>
<path d="M1753 4503 c-18 -6 -16 -32 2 -29 8 1 18 5 21 9 4 4 13 2 21 -4 14
-12 18 -1 5 17 -7 11 -27 14 -49 7z"/>
<path d="M2847 4503 c-18 -17 -5 -32 27 -31 31 1 34 3 25 20 -10 18 -39 24
-52 11z m33 -7 c0 -3 -4 -8 -10 -11 -5 -3 -10 -1 -10 4 0 6 5 11 10 11 6 0 10
-2 10 -4z"/>
<path d="M3025 4500 c-3 -5 -3 -15 1 -21 5 -8 10 -6 16 5 9 16 11 16 23 -1 13
-17 14 -16 8 5 -5 23 -37 31 -48 12z"/>
<path d="M3094 4498 c-4 -7 2 -18 14 -26 26 -17 29 -32 6 -32 -8 0 -12 -4 -9
-10 10 -16 23 -12 29 10 3 11 9 30 12 42 6 20 5 21 -10 9 -9 -8 -20 -11 -23
-7 -4 4 -1 11 7 16 13 8 12 10 -2 10 -9 0 -20 -5 -24 -12z"/>
<path d="M3291 4493 c-1 -13 4 -23 10 -23 7 0 9 -10 4 -27 -9 -36 4 -23 26 27
18 41 12 53 -12 24 -12 -14 -14 -14 -20 3 -7 16 -8 15 -8 -4z"/>
<path d="M3580 4502 c-5 -2 -10 -10 -10 -18 0 -17 36 -19 46 -3 4 8 9 7 15 -2
6 -10 9 -8 9 7 0 17 -6 22 -25 20 -14 0 -29 -2 -35 -4z"/>
<path d="M1360 4486 c0 -9 5 -16 10 -16 6 0 10 4 10 9 0 6 -4 13 -10 16 -5 3
-10 -1 -10 -9z"/>
<path d="M2040 4486 c0 -9 5 -16 10 -16 6 0 10 4 10 9 0 6 -4 13 -10 16 -5 3
-10 -1 -10 -9z"/>
<path d="M2990 4486 c0 -9 5 -16 10 -16 6 0 10 4 10 9 0 6 -4 13 -10 16 -5 3
-10 -1 -10 -9z"/>
<path d="M6885 4455 c-84 -31 -98 -85 -93 -378 3 -192 5 -215 23 -247 23 -39
70 -66 128 -75 l39 -6 -8 -206 c-5 -141 -4 -204 3 -200 6 4 14 88 18 207 l7
200 71 0 70 0 -7 -122 c-8 -170 -10 -277 -4 -284 6 -6 14 89 24 279 l6 127 54
0 54 0 0 -58 c0 -33 -3 -127 -7 -210 l-6 -150 -366 -4 c-352 -3 -368 -4 -406
-25 -90 -48 -105 -87 -105 -283 l0 -147 -187 -6 c-104 -4 -242 -7 -309 -7
l-121 0 -6 50 c-9 73 -32 113 -79 140 -41 23 -48 24 -313 24 -264 1 -271 0
-306 -22 -69 -42 -74 -66 -74 -332 0 -215 2 -238 20 -274 11 -22 33 -49 48
-60 27 -20 41 -21 315 -21 256 0 291 2 319 18 42 22 64 66 70 137 l6 57 105 7
c58 3 196 6 308 6 l202 0 4 -132 c4 -154 16 -186 90 -228 43 -25 43 -25 286
-22 l242 3 0 -194 0 -195 -75 -4 c-66 -3 -77 -7 -105 -33 -46 -44 -52 -83 -48
-329 3 -207 5 -224 26 -263 41 -78 40 -78 357 -78 262 0 282 1 314 20 19 11
43 33 55 48 20 27 21 40 21 275 0 242 0 248 -24 285 -26 42 -85 77 -131 77
l-30 0 0 128 c0 70 3 158 7 195 l6 68 176 -2 c158 -2 181 0 221 18 88 40 109
88 110 253 l0 115 325 -3 c282 -2 325 -1 325 12 0 13 -42 14 -325 9 l-325 -6
0 61 0 62 329 0 329 0 7 -87 c9 -107 31 -163 77 -191 32 -20 48 -21 308 -22
160 -1 285 2 300 8 33 13 65 49 79 91 7 21 11 118 11 263 0 259 -5 281 -69
320 -34 22 -47 23 -286 26 -285 4 -336 -3 -381 -49 -28 -29 -29 -33 -38 -184
l-9 -155 -267 0 c-147 0 -295 -3 -329 -6 l-61 -7 0 62 0 61 321 0 c252 0 320
3 316 13 -4 13 -302 13 -529 0 l-108 -6 0 154 c0 128 -4 161 -19 194 -33 73
-93 105 -199 107 -37 0 -140 3 -229 6 -160 4 -163 5 -158 26 2 11 7 105 11
207 l6 186 81 7 c88 7 127 24 161 69 20 27 21 42 24 280 3 288 1 296 -80 339
-41 22 -54 23 -298 25 -203 2 -263 0 -295 -12z m581 -26 c31 -15 48 -32 63
-63 19 -39 21 -61 21 -250 0 -239 -7 -275 -59 -314 l-34 -27 -261 -3 c-401 -5
-386 -18 -386 331 0 265 5 292 62 327 31 19 50 20 292 20 242 0 263 -1 302
-21z m299 -1141 c17 -9 44 -30 60 -48 l30 -31 3 -427 3 -427 -23 -44 c-16 -31
-36 -51 -63 -65 -45 -24 -20 -23 -540 -18 -176 2 -397 0 -491 -4 -122 -5 -185
-3 -221 5 -54 13 -95 47 -112 94 -7 18 -11 173 -11 437 0 354 2 415 16 450 18
44 52 73 104 88 22 7 251 10 625 9 529 -2 593 -4 620 -19z m1495 -205 c40 -44
48 -105 46 -338 -2 -218 -7 -241 -63 -285 -26 -21 -34 -21 -303 -18 -393 4
-374 -13 -378 338 -4 357 -22 342 386 338 l284 -3 28 -32z m-3600 -39 c30 -12
46 -27 62 -57 19 -38 21 -58 21 -267 0 -213 -2 -228 -22 -269 -35 -68 -50 -71
-354 -73 -304 -1 -315 2 -348 78 -18 41 -20 64 -17 278 4 338 -9 326 365 326
210 0 259 -3 293 -16z m720 -254 l0 -60 -307 2 -308 3 -3 58 -3 57 311 0 310
0 0 -60z m0 -130 l0 -50 -310 0 -310 0 0 43 c0 24 2 46 4 48 2 2 142 5 310 7
l306 2 0 -50z m803 -534 c4 -46 4 -131 1 -189 l-7 -105 -36 -6 c-20 -3 -53 -6
-73 -6 l-38 0 0 173 c0 94 3 182 6 195 6 20 12 22 74 22 l67 0 6 -84z m157
-105 c0 -105 -3 -191 -7 -193 -5 -2 -36 -2 -70 0 l-63 4 0 136 c0 76 3 161 6
190 l7 52 63 0 64 0 0 -189z m120 -236 c64 -38 70 -62 70 -310 0 -209 -1 -223
-22 -265 -39 -76 -53 -79 -353 -81 -299 -2 -312 1 -346 74 -16 37 -19 68 -19
270 0 345 -8 338 385 334 231 -2 253 -4 285 -22z"/>
<path d="M6990 4310 c-55 -13 -66 -36 -74 -149 -9 -145 6 -231 45 -251 10 -6
108 -10 219 -10 l202 0 29 29 c25 26 29 37 30 88 2 129 -3 249 -12 264 -5 9
-23 22 -40 28 -37 13 -345 13 -399 1z m400 -29 c33 -24 38 -46 39 -174 1 -131
-12 -170 -61 -185 -19 -6 -109 -10 -210 -9 -233 3 -222 -7 -226 190 -3 141 -3
142 22 166 37 34 81 40 256 35 127 -4 160 -9 180 -23z"/>
<path d="M6695 3230 c-194 -8 -205 -23 -205 -270 0 -178 9 -216 56 -247 26
-17 65 -18 573 -21 396 -2 553 0 573 9 15 6 36 25 47 43 17 28 19 50 17 221
-1 163 -4 194 -19 216 -34 51 -41 51 -497 53 -234 1 -479 -1 -545 -4z m967
-20 c20 -6 46 -22 58 -37 18 -24 20 -39 20 -209 0 -100 -3 -190 -6 -199 -4 -9
-24 -25 -45 -35 -36 -19 -62 -20 -568 -20 -375 0 -537 3 -555 11 -47 22 -56
62 -56 238 0 164 9 217 41 237 8 5 214 11 459 14 245 3 483 6 530 8 47 1 102
-3 122 -8z"/>
<path d="M7172 2550 c-2 -51 -1 -53 15 -38 15 16 17 16 29 0 12 -15 12 -14 7
6 -4 17 -11 22 -24 19 -14 -4 -19 2 -22 32 -3 27 -4 22 -5 -19z"/>
<path d="M6937 2558 c-2 -13 -8 -31 -12 -40 -4 -10 -3 -18 3 -18 5 0 12 10 15
22 5 18 8 19 21 8 9 -7 16 -9 16 -4 1 5 8 -2 16 -16 l15 -25 -5 25 c-3 14 -6
35 -6 48 0 26 -20 31 -20 5 -1 -17 -1 -17 -14 0 -17 23 -23 22 -29 -5z"/>
<path d="M7240 2570 c0 -5 5 -10 11 -10 5 0 7 5 4 10 -3 6 -8 10 -11 10 -2 0
-4 -4 -4 -10z"/>
<path d="M7030 2530 c-11 -21 -10 -22 33 -24 31 -2 31 -2 17 25 -14 25 -36 24
-50 -1z m22 -12 c-7 -7 -12 -8 -12 -2 0 14 12 26 19 19 2 -3 -1 -11 -7 -17z"/>
<path d="M7104 2535 c-9 -22 4 -35 34 -34 26 1 26 1 4 7 -24 7 -27 28 -4 26 6
-1 12 2 12 7 0 15 -40 10 -46 -6z"/>
<path d="M7284 2536 c-10 -8 -16 -18 -11 -22 4 -4 13 -2 19 4 8 8 15 7 25 -6
14 -16 14 -16 9 1 -3 10 -6 23 -6 28 0 13 -13 11 -36 -5z"/>
<path d="M7344 2535 c-14 -35 33 -65 52 -34 4 7 0 9 -14 5 -11 -4 -23 -3 -26
2 -3 6 3 12 14 15 11 3 20 10 20 16 0 17 -40 13 -46 -4z"/>
<path d="M7240 2528 c0 -9 5 -20 10 -23 13 -8 13 5 0 25 -8 13 -10 13 -10 -2z"/>
<path d="M7693 2395 c0 -33 2 -45 4 -27 2 18 2 45 0 60 -2 15 -4 0 -4 -33z"/>
<path d="M7003 2390 c0 -30 2 -43 4 -27 2 15 2 39 0 55 -2 15 -4 2 -4 -28z"/>
<path d="M7102 2380 c-18 -33 -29 -60 -24 -60 5 0 24 27 41 60 18 33 29 60 24
60 -4 0 -23 -27 -41 -60z"/>
<path d="M7302 2390 c-2 -51 -1 -53 15 -38 15 16 17 16 29 0 12 -15 12 -14 7
6 -4 17 -11 22 -24 19 -14 -4 -19 2 -22 32 -3 27 -4 22 -5 -19z"/>
<path d="M6791 2418 c-1 -10 -6 -18 -13 -18 -9 0 -9 -3 0 -12 7 -7 12 -20 12
-29 0 -27 20 -34 38 -14 16 16 16 17 -5 10 -18 -5 -23 -2 -23 11 0 9 8 23 18
30 15 12 15 13 0 14 -9 0 -19 6 -21 13 -3 7 -6 5 -6 -5z"/>
<path d="M7211 2383 c0 -39 2 -44 9 -25 6 14 18 22 34 22 37 0 41 17 7 35 -45
23 -51 19 -50 -32z m49 17 c0 -5 -7 -10 -15 -10 -8 0 -15 5 -15 10 0 6 7 10
15 10 8 0 15 -4 15 -10z"/>
<path d="M6611 2408 c-1 -23 17 -68 27 -68 5 0 16 18 25 40 8 22 11 40 6 40
-5 0 -11 -11 -15 -25 -8 -32 -18 -32 -31 3 -7 17 -11 21 -12 10z"/>
<path d="M7510 2410 c0 -5 5 -10 11 -10 5 0 7 5 4 10 -3 6 -8 10 -11 10 -2 0
-4 -4 -4 -10z"/>
<path d="M7447 2393 c-12 -12 -7 -22 13 -28 11 -3 20 -11 20 -16 0 -6 -9 -7
-21 -4 -15 5 -19 4 -15 -4 9 -14 43 -14 51 0 4 6 -1 16 -11 23 -9 7 -14 18
-10 24 8 13 -16 17 -27 5z"/>
<path d="M6720 2365 c0 -14 5 -25 10 -25 6 0 10 9 10 19 0 11 6 22 13 24 6 3
2 6 -10 6 -18 1 -23 -5 -23 -24z"/>
<path d="M6853 2370 c2 -20 7 -25 30 -25 28 -1 33 10 18 33 -7 11 -9 11 -14
-2 -8 -21 -24 -20 -31 2 -3 10 -4 6 -3 -8z"/>
<path d="M6931 2376 c-18 -21 -6 -35 28 -34 25 1 28 4 21 22 -9 26 -33 32 -49
12z m21 -18 c-7 -7 -12 -8 -12 -2 0 14 12 26 19 19 2 -3 -1 -11 -7 -17z"/>
<path d="M7371 2372 c0 -12 5 -25 13 -28 8 -3 12 -16 9 -32 -2 -16 4 -7 16 22
20 48 19 79 0 43 -13 -22 -26 -22 -32 1 -4 12 -5 11 -6 -6z"/>
<path d="M7544 2375 c-9 -22 4 -35 34 -34 26 1 26 1 4 7 -24 7 -27 28 -4 26 6
-1 12 2 12 7 0 15 -40 10 -46 -6z"/>
<path d="M7617 2383 c-4 -3 -7 -14 -7 -24 0 -14 7 -18 30 -16 32 2 38 15 18
35 -13 13 -31 16 -41 5z m23 -18 c-7 -9 -15 -13 -17 -11 -7 7 7 26 19 26 6 0
6 -6 -2 -15z"/>
<path d="M6692 2360 c0 -14 2 -19 5 -12 2 6 2 18 0 25 -3 6 -5 1 -5 -13z"/>
<path d="M7510 2368 c0 -9 5 -20 10 -23 13 -8 13 5 0 25 -8 13 -10 13 -10 -2z"/>
<path d="M8728 2974 c-15 -8 -32 -23 -38 -34 -5 -10 -10 -85 -10 -168 l0 -150
31 -26 31 -26 203 0 203 0 26 31 c25 30 26 34 26 175 0 214 0 214 -269 214
-136 -1 -182 -4 -203 -16z m434 -32 c21 -21 23 -33 26 -146 4 -156 -7 -189
-69 -206 -26 -7 -105 -10 -211 -8 -168 3 -170 3 -192 29 -21 24 -22 34 -20
168 2 134 3 144 25 167 l24 25 197 -3 c190 -3 198 -4 220 -26z"/>
<path d="M5145 2939 c-51 -15 -55 -29 -55 -201 0 -157 0 -159 25 -184 l26 -25
202 3 c221 3 236 7 259 63 18 41 17 271 -1 303 -24 44 -66 52 -253 51 -95 0
-186 -5 -203 -10z m409 -20 c36 -17 46 -57 46 -188 0 -180 -12 -190 -256 -190
-105 0 -168 4 -184 12 -45 22 -60 70 -60 194 0 110 10 160 33 175 20 13 393 9
421 -3z"/>
<path d="M6970 1653 c-8 -3 -25 -15 -37 -26 -22 -20 -23 -28 -23 -173 0 -149
1 -153 26 -183 l26 -31 209 0 c275 0 259 -13 259 204 0 85 -3 162 -6 171 -15
38 -55 45 -251 44 -103 0 -195 -3 -203 -6z m337 -9 c33 -4 70 -14 84 -25 23
-17 24 -23 26 -156 2 -157 -6 -187 -49 -202 -40 -14 -332 -14 -381 0 -58 16
-69 52 -65 205 3 113 5 124 27 148 21 23 33 26 110 29 47 1 109 4 137 5 28 1
78 -1 111 -4z"/>
<path d="M1991 4309 c-59 -27 -73 -64 -82 -213 -8 -123 -5 -256 7 -354 6 -52
52 -108 94 -116 17 -3 44 -9 60 -12 l30 -6 0 -198 0 -198 -232 -4 c-226 -3
-234 -4 -276 -28 -82 -47 -87 -62 -90 -327 l-3 -233 -313 0 -313 0 -6 53 c-2
28 -2 56 1 61 3 5 134 6 315 2 254 -6 308 -5 305 6 -4 10 -68 14 -315 16
l-311 2 -4 56 c-6 65 -29 101 -84 129 -36 18 -59 20 -299 20 -244 0 -263 -1
-306 -21 -76 -35 -79 -50 -79 -341 0 -284 3 -297 83 -333 38 -18 67 -20 305
-20 294 0 308 3 351 65 16 24 25 54 29 100 4 52 8 65 19 61 8 -4 151 -6 318
-6 l303 0 4 -117 c4 -75 11 -131 21 -153 19 -42 62 -85 100 -99 17 -7 126 -11
278 -11 l249 0 0 -205 0 -205 -59 0 c-64 0 -107 -22 -145 -73 -19 -26 -21 -44
-24 -228 -4 -238 7 -326 48 -372 27 -30 28 -31 169 -40 84 -5 208 -5 302 0
181 10 197 17 237 93 21 42 22 56 22 265 0 123 -5 237 -11 258 -15 55 -76 97
-142 97 l-50 0 5 200 c3 110 2 200 -2 200 -9 0 -20 -162 -20 -292 l0 -98 -59
0 -59 0 -7 87 c-4 49 -5 137 -2 196 4 59 3 106 -2 103 -4 -3 -11 -89 -14 -192
-3 -103 -8 -188 -9 -190 -2 -1 -35 -4 -73 -5 l-70 -3 -2 202 -3 202 338 0
c386 0 397 2 449 81 l28 42 3 281 3 281 82 0 c337 0 567 6 567 15 0 6 -115 10
-325 10 l-325 0 0 125 c0 137 -10 178 -58 228 -45 47 -102 57 -336 57 l-211 0
3 195 c2 128 -1 195 -7 195 -7 0 -12 -72 -13 -197 l-3 -198 -55 0 -55 0 3 150
c1 83 5 173 8 201 l6 52 147 4 c171 5 198 15 234 88 21 43 22 57 22 287 0 228
-1 243 -21 269 -11 15 -33 37 -48 48 -26 20 -40 21 -309 21 -237 0 -286 -3
-316 -16z m606 -19 c65 -39 68 -50 71 -300 3 -218 2 -226 -20 -270 -17 -34
-35 -51 -73 -70 l-50 -25 -249 3 c-283 4 -291 6 -327 79 -19 39 -20 60 -19
268 1 253 6 281 62 315 31 19 50 20 303 20 250 0 272 -2 302 -20z m-343 -772
c-3 -51 -7 -144 -10 -206 l-6 -113 -57 3 -56 3 -3 203 -2 202 69 0 68 0 -3
-92z m619 -342 c48 -18 74 -41 95 -86 15 -31 17 -80 15 -428 0 -217 -4 -409
-7 -428 -8 -40 -46 -88 -90 -112 -28 -15 -83 -17 -616 -17 -322 0 -603 3 -624
8 -51 11 -100 61 -118 118 -18 63 -13 831 7 868 18 37 48 61 92 77 56 19 1190
19 1246 0z m-2096 -246 c65 -39 66 -46 66 -314 0 -264 -3 -281 -56 -320 -27
-20 -42 -21 -311 -24 l-283 -3 -31 26 c-54 46 -60 76 -57 321 3 231 7 256 52
296 36 33 69 37 328 37 241 1 262 -1 292 -19z m723 -378 l0 -49 -97 -6 c-54
-4 -198 -7 -320 -7 l-223 0 0 24 c0 13 3 38 6 55 l7 31 313 0 314 0 0 -48z
m1117 -905 c59 -32 63 -50 63 -312 0 -267 -4 -287 -69 -327 -35 -22 -43 -23
-291 -23 -235 0 -258 2 -294 20 -78 40 -81 47 -84 303 -5 370 -12 364 388 359
220 -2 259 -5 287 -20z"/>
<path d="M2100 4171 c-67 -17 -76 -38 -79 -199 -5 -208 3 -214 269 -216 260
-1 260 -2 260 220 0 75 -5 144 -10 155 -23 42 -59 49 -242 48 -95 -1 -184 -4
-198 -8z m408 -35 c26 -34 39 -232 19 -291 -23 -68 -51 -76 -259 -73 -232 4
-222 -5 -226 188 -4 147 2 174 41 190 12 5 108 9 214 9 l192 1 19 -24z"/>
<path d="M1691 3057 c-13 -6 -33 -24 -43 -38 -17 -23 -19 -44 -19 -207 0 -204
8 -240 61 -267 27 -14 87 -17 443 -19 227 -2 474 -1 549 3 l137 6 35 34 36 35
0 197 c0 192 -1 199 -23 225 -16 19 -38 29 -73 35 -85 14 -1075 11 -1103 -4z
m1136 -22 c43 -30 55 -88 51 -258 -3 -139 -5 -159 -24 -184 -39 -52 -62 -54
-625 -51 -501 3 -518 4 -539 23 -42 37 -50 75 -50 232 0 162 9 215 43 238 32
23 1111 23 1144 0z"/>
<path d="M2220 2360 c0 -27 4 -50 8 -50 5 0 9 23 10 50 0 28 -3 50 -9 50 -5 0
-9 -22 -9 -50z"/>
<path d="M1750 2378 c0 -13 -3 -33 -6 -45 -4 -14 -2 -23 5 -23 6 0 11 6 11 14
0 7 14 16 31 20 38 7 34 25 -9 43 -30 12 -32 12 -32 -9z m50 -14 c0 -2 -9 -4
-21 -4 -11 0 -18 4 -14 10 5 8 35 3 35 -6z"/>
<path d="M1831 2358 c-1 -49 6 -57 27 -36 10 10 15 10 23 -2 8 -12 9 -11 7 5
-2 11 -10 20 -18 20 -8 0 -20 14 -27 30 -11 30 -11 29 -12 -17z"/>
<path d="M2540 2386 c0 -7 3 -28 6 -45 5 -26 9 -29 21 -19 11 9 17 9 24 -3 8
-11 9 -10 7 6 -2 12 -11 19 -21 19 -12 -1 -17 6 -17 27 0 16 -4 29 -10 29 -5
0 -10 -6 -10 -14z"/>
<path d="M2317 2363 c-2 -10 -8 -27 -12 -38 -6 -19 -6 -19 8 -2 16 19 44 14
64 -12 10 -13 11 -8 6 24 -7 49 -9 51 -28 35 -10 -8 -15 -9 -15 -1 0 18 -17
13 -23 -6z"/>
<path d="M1980 2351 c0 -5 7 -14 15 -21 13 -11 13 -15 3 -21 -9 -6 -6 -9 9 -9
31 0 38 17 12 31 -17 9 -19 13 -8 20 10 6 8 9 -8 9 -13 0 -23 -4 -23 -9z"/>
<path d="M2093 2353 c-7 -2 -13 -13 -13 -24 0 -14 7 -19 28 -18 l27 0 -25 11
-25 11 23 4 c12 3 20 9 17 14 -7 10 -13 10 -32 2z"/>
<path d="M2487 2353 c-24 -23 6 -60 34 -42 11 7 9 9 -8 9 -13 0 -23 5 -23 10
0 6 7 10 15 10 8 0 15 5 15 10 0 11 -23 14 -33 3z"/>
<path d="M2668 2353 c-10 -3 -18 -14 -18 -25 0 -17 2 -19 16 -7 13 10 17 10
25 -2 7 -11 9 -9 9 8 0 25 -8 31 -32 26z"/>
<path d="M2730 2345 c-17 -21 -5 -45 22 -44 20 0 21 1 5 8 -17 6 -17 8 -3 20
9 7 13 17 10 22 -8 13 -20 11 -34 -6z"/>
<path d="M1911 2333 c-1 -13 4 -23 10 -23 7 0 9 -10 4 -27 -9 -36 4 -23 26 27
18 41 12 53 -12 24 -12 -14 -14 -14 -20 3 -7 16 -8 15 -8 -4z"/>
<path d="M2146 2334 c-9 -23 -9 -23 28 -22 27 1 32 5 28 20 -5 22 -47 24 -56
2z m34 -4 c0 -5 -4 -10 -10 -10 -5 0 -10 5 -10 10 0 6 5 10 10 10 6 0 10 -4
10 -10z"/>
<path d="M2407 2343 c-18 -18 -5 -33 28 -33 33 0 35 2 25 20 -10 19 -40 27
-53 13z m33 -7 c0 -3 -4 -8 -10 -11 -5 -3 -10 -1 -10 4 0 6 5 11 10 11 6 0 10
-2 10 -4z"/>
<path d="M2051 2324 c0 -11 3 -14 6 -6 3 7 2 16 -1 19 -3 4 -6 -2 -5 -13z"/>
<path d="M2620 2326 c0 -9 5 -16 10 -16 6 0 10 4 10 9 0 6 -4 13 -10 16 -5 3
-10 -1 -10 -9z"/>
<path d="M271 2801 c-13 -4 -33 -19 -45 -34 -18 -24 -20 -44 -22 -163 -2 -75
1 -146 6 -158 4 -13 21 -31 37 -42 25 -17 49 -19 208 -21 201 -2 238 4 260 47
20 39 21 266 2 313 -25 59 -31 61 -235 62 -103 1 -198 -1 -211 -4z m394 -25
c45 -19 55 -60 50 -199 -7 -175 -14 -180 -258 -175 -161 3 -174 4 -204 26
l-33 23 0 134 c0 145 8 181 42 195 39 15 363 12 403 -4z"/>
<path d="M2105 1533 c-11 -3 -30 -14 -42 -26 -22 -19 -23 -28 -23 -169 l0
-148 29 -32 29 -33 192 -3 c106 -2 203 -1 216 2 43 11 54 52 54 201 0 149 -9
182 -57 204 -24 11 -356 14 -398 4z m403 -23 c32 -21 40 -60 38 -190 -2 -179
-15 -190 -246 -190 -235 0 -244 7 -248 197 -5 201 -3 203 263 200 131 -2 175
-5 193 -17z"/>
<path d="M3754 3042 c-60 -29 -74 -66 -74 -199 0 -59 -3 -125 -7 -147 l-6 -39
-324 5 c-177 2 -323 1 -323 -2 0 -4 144 -10 321 -13 177 -3 323 -7 324 -9 2
-2 8 -47 13 -101 10 -105 22 -131 76 -171 25 -20 44 -21 253 -24 124 -2 250
-1 279 3 58 7 105 34 138 78 20 27 21 40 21 282 0 240 -1 255 -21 282 -11 15
-38 37 -60 48 -36 18 -62 20 -304 23 -243 2 -268 1 -306 -16z m578 -12 c49
-14 84 -58 97 -122 16 -72 4 -431 -15 -473 -8 -17 -29 -40 -47 -50 -29 -18
-55 -20 -291 -23 -307 -4 -331 1 -365 72 -19 39 -21 61 -21 270 0 315 6 326
200 337 141 9 396 2 442 -11z"/>
<path d="M3902 2912 c-119 -10 -122 -15 -122 -188 0 -137 10 -185 43 -212 12
-10 66 -14 209 -15 268 -3 268 -2 271 206 3 195 -6 205 -194 211 -68 2 -162 1
-207 -2z m360 -40 c21 -20 23 -33 26 -143 4 -132 -4 -167 -46 -199 -22 -18
-41 -20 -199 -20 -250 0 -253 3 -251 218 l1 122 30 26 30 25 193 -3 c186 -3
194 -4 216 -26z"/>
<path d="M3025 2520 c4 -6 122 -10 321 -10 203 0 314 4 314 10 0 6 -114 10
-321 10 -211 0 -318 -3 -314 -10z"/>
<path d="M6680 727 c0 -17 -7 -26 -21 -30 -22 -6 -18 -27 6 -27 9 0 15 -14 17
-42 3 -40 5 -43 32 -43 16 0 33 7 40 17 14 24 -1 36 -18 13 -18 -25 -36 -10
-36 31 0 30 4 35 30 41 17 3 30 9 30 14 0 5 -13 9 -30 9 -19 0 -30 5 -30 14 0
8 -4 18 -10 21 -6 3 -10 -5 -10 -18z"/>
<path d="M7680 725 c0 -16 -6 -25 -15 -25 -8 0 -15 -7 -15 -15 0 -8 7 -15 15
-15 10 0 15 -10 15 -32 0 -18 4 -39 9 -46 11 -18 51 -12 65 10 15 24 -1 35
-18 12 -18 -23 -22 -19 -31 29 -7 36 -6 37 24 43 40 8 40 24 1 24 -23 0 -30 4
-30 20 0 11 -4 20 -10 20 -5 0 -10 -11 -10 -25z"/>
<path d="M6265 715 c-34 -33 -33 -77 2 -105 27 -21 93 -25 83 -5 -3 5 -13 8
-23 7 -25 -5 -67 25 -67 47 0 19 29 51 48 51 6 0 14 -9 17 -20 8 -25 25 -26
25 -1 0 56 -43 69 -85 26z"/>
<path d="M6915 720 c-3 -6 1 -13 10 -16 19 -8 30 0 20 15 -8 14 -22 14 -30 1z"/>
<path d="M7325 720 c-3 -6 1 -13 10 -16 19 -8 30 0 20 15 -8 14 -22 14 -30 1z"/>
<path d="M7780 716 c0 -10 9 -16 21 -16 24 0 21 23 -4 28 -10 2 -17 -3 -17
-12z"/>
<path d="M2138 633 c-3 -88 0 -123 13 -123 5 0 9 45 9 100 0 118 -17 135 -22
23z"/>
<path d="M7120 670 c-43 -43 -5 -109 54 -94 40 10 42 25 4 22 -19 -1 -39 2
-46 6 -18 11 -15 29 4 22 22 -8 54 11 54 33 0 17 -18 31 -41 31 -5 0 -18 -9
-29 -20z m42 -22 c-6 -6 -16 -7 -22 -3 -9 6 -9 9 1 16 17 10 34 0 21 -13z"/>
<path d="M7230 640 c0 -37 4 -50 14 -50 9 0 16 12 18 33 2 22 10 35 26 42 12
5 22 13 22 17 0 12 -35 9 -48 -4 -9 -9 -12 -9 -12 0 0 7 -4 12 -10 12 -5 0
-10 -22 -10 -50z"/>
<path d="M7408 683 c-28 -7 -21 -26 8 -20 25 4 25 4 -7 -29 -43 -45 -31 -58
39 -42 62 15 69 33 10 25 l-42 -6 32 25 c40 32 42 54 5 53 -16 -1 -36 -3 -45
-6z"/>
<path d="M6402 671 c-8 -5 -12 -22 -10 -42 3 -30 7 -34 36 -37 36 -4 82 20 82
42 0 35 -72 60 -108 37z m76 -33 c2 -12 -5 -19 -23 -24 -31 -8 -48 6 -39 30 9
22 58 18 62 -6z"/>
<path d="M6537 673 c-9 -8 -9 -68 0 -76 3 -4 19 7 33 25 l27 33 8 -33 c10 -46
29 -41 20 6 -9 49 -20 60 -47 43 -15 -9 -23 -10 -28 -2 -3 6 -9 8 -13 4z"/>
<path d="M6801 656 c-16 -17 -21 -31 -16 -45 8 -25 47 -28 66 -5 12 14 14 14
26 -2 20 -28 27 -8 12 33 -19 48 -54 56 -88 19z m59 -4 c0 -16 -39 -44 -50
-37 -8 5 -6 13 6 26 17 19 44 26 44 11z"/>
<path d="M6980 640 c0 -46 12 -51 36 -15 19 29 34 32 34 8 0 -23 17 -49 25
-41 10 10 -15 88 -28 88 -7 0 -19 -6 -26 -12 -11 -10 -14 -10 -18 0 -10 26
-23 10 -23 -28z"/>
<path d="M7539 659 c-28 -28 -22 -63 12 -67 14 -2 31 4 39 13 11 14 14 13 25
-2 22 -29 27 -8 9 36 -19 47 -50 55 -85 20z m51 -18 c-14 -27 -30 -35 -42 -23
-11 11 16 42 38 42 11 0 12 -4 4 -19z"/>
<path d="M7850 664 c-10 -11 -11 -23 -4 -42 17 -50 114 -39 114 13 0 14 -8 29
-19 35 -29 15 -77 12 -91 -6z m87 -20 c7 -19 -13 -34 -44 -34 -22 0 -32 27
-16 43 13 13 54 7 60 -9z"/>
<path d="M7990 640 c0 -46 12 -51 36 -15 19 29 34 32 34 8 0 -23 17 -49 25
-41 10 10 -15 88 -28 88 -7 0 -19 -6 -26 -12 -11 -10 -14 -10 -18 0 -10 26
-23 10 -23 -28z"/>
<path d="M1760 651 c0 -10 -7 -21 -15 -25 -19 -7 -20 -26 -1 -26 9 0 17 -16
21 -42 8 -48 18 -58 46 -51 24 7 43 39 29 48 -6 3 -13 -1 -16 -9 -12 -32 -34
-17 -34 23 0 33 4 40 23 43 12 2 20 8 17 13 -3 6 -13 9 -22 8 -9 -2 -20 6 -23
17 -8 25 -25 26 -25 1z"/>
<path d="M2540 652 c0 -9 -9 -23 -21 -30 -21 -13 -18 -27 4 -27 7 0 13 -17 15
-37 4 -50 24 -65 57 -44 14 9 25 23 25 31 0 20 -10 19 -25 -2 -17 -22 -35 -8
-35 28 0 24 6 32 30 40 32 12 31 34 -2 26 -14 -4 -22 0 -25 14 -7 24 -23 25
-23 1z"/>
<path d="M1436 651 c-8 -12 36 -134 50 -138 6 -2 23 25 39 59 39 90 38 88 26
88 -6 0 -21 -20 -33 -45 -12 -25 -25 -45 -30 -45 -4 0 -12 18 -18 40 -11 41
-24 57 -34 41z"/>
<path d="M1575 650 c-8 -13 3 -30 21 -30 18 0 18 14 0 29 -10 8 -16 9 -21 1z"/>
<path d="M2185 650 c-8 -13 3 -30 21 -30 18 0 18 14 0 29 -10 8 -16 9 -21 1z"/>
<path d="M2645 650 c-10 -17 12 -37 25 -24 8 8 6 15 -4 23 -10 9 -16 9 -21 1z"/>
<path d="M6924 638 c3 -13 6 -29 6 -35 0 -7 5 -13 10 -13 11 0 13 30 4 54 -9
25 -27 19 -20 -6z"/>
<path d="M7334 638 c3 -13 6 -29 6 -35 0 -7 5 -13 10 -13 11 0 13 30 4 54 -9
25 -27 19 -20 -6z"/>
<path d="M7790 631 c0 -28 15 -49 27 -38 8 8 -7 67 -18 67 -5 0 -9 -13 -9 -29z"/>
<path d="M1640 573 c0 -29 5 -55 10 -58 6 -3 10 3 10 14 0 33 12 52 39 62 20
8 22 12 11 19 -8 5 -21 5 -30 0 -11 -6 -21 -5 -28 2 -9 9 -12 -1 -12 -39z"/>
<path d="M2275 611 c-33 -7 -34 -28 -1 -23 19 4 19 1 -6 -25 -49 -51 -36 -63
48 -42 54 14 60 34 7 24 l-38 -7 29 30 c15 17 25 35 22 41 -8 12 -15 12 -61 2z"/>
<path d="M1877 603 c-4 -3 -7 -21 -7 -40 0 -39 22 -53 53 -34 17 11 22 10 29
-3 5 -9 12 -14 16 -12 9 6 2 96 -7 96 -4 0 -15 -16 -24 -36 -19 -40 -42 -41
-42 -1 0 28 -8 41 -18 30z"/>
<path d="M2032 599 c-23 -9 -43 -45 -35 -66 8 -21 35 -24 61 -7 19 12 26 13
32 4 4 -7 12 -11 18 -9 15 6 -16 76 -37 82 -9 2 -27 0 -39 -4z m36 -31 c-6
-16 -36 -34 -44 -26 -3 4 -4 14 -1 23 7 17 51 21 45 3z"/>
<path d="M2412 597 c-29 -13 -40 -54 -19 -74 14 -15 18 -14 43 2 19 12 29 14
32 7 3 -11 32 -18 32 -8 0 2 -7 19 -15 39 -16 38 -39 49 -73 34z m36 -29 c-6
-16 -36 -34 -44 -25 -9 9 15 37 33 37 8 0 13 -5 11 -12z"/>
<path d="M2718 599 c-18 -10 -24 -45 -10 -65 23 -35 112 -15 112 26 0 38 -63
62 -102 39z m63 -19 c25 -14 24 -29 -3 -39 -30 -11 -48 -3 -48 19 0 15 9 24
28 29 2 1 12 -4 23 -9z"/>
<path d="M2887 593 c-10 -11 -17 -13 -17 -5 0 7 -4 12 -10 12 -5 0 -10 -18
-10 -40 0 -46 11 -51 30 -15 16 30 40 33 40 6 0 -19 17 -38 26 -28 7 7 -20 80
-31 84 -6 2 -18 -5 -28 -14z"/>
<path d="M1580 568 c0 -27 16 -55 25 -46 9 9 -5 68 -16 68 -5 0 -9 -10 -9 -22z"/>
<path d="M2190 568 c0 -27 16 -55 25 -46 9 9 -5 68 -16 68 -5 0 -9 -10 -9 -22z"/>
<path d="M2650 554 c0 -24 4 -34 13 -31 6 2 12 9 11 15 -1 7 -2 21 -2 32 -3
35 -22 21 -22 -16z"/>
</g>
</svg>
