<?xml version="1.0" standalone="no"?>
<!DOCTYPE svg PUBLIC "-//W3C//DTD SVG 20010904//EN"
 "http://www.w3.org/TR/2001/REC-SVG-20010904/DTD/svg10.dtd">
<svg version="1.0" xmlns="http://www.w3.org/2000/svg"
 width="1024.000000pt" height="1024.000000pt" viewBox="0 0 1024.000000 1024.000000"
 preserveAspectRatio="xMidYMid meet">

<g transform="translate(0.000000,1024.000000) scale(0.100000,-0.100000)"
fill="#000000" stroke="none">
<path d="M7368 9025 c-3 -3 -1120 -6 -2483 -7 l-2479 -1 29 -20 c15 -12 185
-177 377 -369 l350 -348 2450 0 c1537 0 2448 4 2446 9 -1 6 -35 45 -74 88 -39
43 -104 119 -146 168 -41 50 -150 169 -243 265 -92 96 -174 185 -183 198 -14
21 -32 28 -44 17z m-2199 -286 c43 -80 100 -224 91 -233 -16 -16 -39 3 -51 43
-11 37 -15 40 -38 35 -59 -13 -65 -13 -35 1 40 18 45 32 32 84 -11 44 -28 55
-28 18 0 -36 -79 -190 -94 -184 -8 3 -19 0 -26 -6 -10 -10 -11 -7 -5 13 4 14
10 48 14 75 7 54 11 62 52 115 15 19 30 48 33 63 9 38 26 30 55 -24z m227 41
c83 0 84 0 84 -26 0 -24 -2 -25 -44 -19 l-43 7 5 -121 c4 -106 3 -121 -11
-121 -14 0 -17 17 -19 118 l-3 117 -40 5 c-33 4 -41 9 -43 29 -3 19 0 22 13
17 9 -3 55 -6 101 -6z m-500 -16 c70 -34 98 -140 52 -199 -29 -37 -93 -65
-150 -65 l-47 0 -3 140 -3 140 58 0 c33 0 74 -7 93 -16z m751 -35 c26 -52 78
-174 88 -206 5 -19 2 -23 -14 -23 -16 0 -23 10 -32 44 -11 44 -11 44 -47 39
-59 -9 -82 -21 -91 -46 -10 -26 -37 -42 -46 -27 -3 5 -1 18 4 29 6 11 8 40 5
65 -6 44 -5 48 40 96 25 27 46 56 46 65 0 29 24 10 47 -36z"/>
<path d="M4784 8674 c11 -127 11 -127 62 -121 63 7 94 30 94 70 0 52 -32 94
-82 107 -24 6 -52 14 -62 17 -18 5 -19 1 -12 -73z"/>
<path d="M5622 8665 c-7 -16 -19 -43 -27 -59 -14 -26 -14 -28 2 -21 10 4 26
10 36 12 18 6 21 30 7 73 l-7 25 -11 -30z"/>
<path d="M2384 8964 c3 -9 6 -139 6 -290 l0 -274 93 -87 c113 -107 188 -183
435 -441 107 -111 197 -202 200 -202 4 0 6 126 4 280 l-3 280 -117 127 c-131
144 -606 623 -617 623 -4 0 -4 -7 -1 -16z"/>
<path d="M5535 8233 l-2371 -3 4 -291 3 -290 77 -3 c42 -2 275 -5 517 -7 l440
-4 -340 -5 c-187 -3 -331 -7 -320 -8 28 -4 55 -26 55 -46 0 -10 8 -16 25 -16
14 0 25 -4 25 -10 0 -5 15 -12 34 -16 19 -3 37 -12 39 -18 3 -7 20 -13 37 -14
18 0 38 -6 43 -11 6 -6 44 -11 84 -11 58 0 74 3 82 18 10 16 10 15 11 -3 0
-12 3 -16 8 -9 9 14 137 18 161 5 10 -6 64 -13 119 -15 l101 -4 4 26 4 27 2
-29 c1 -21 5 -27 17 -22 8 3 24 1 35 -4 15 -8 21 -7 25 5 7 18 54 20 54 3 0
-9 3 -8 10 2 13 22 180 24 180 2 0 -11 3 -12 14 -3 9 8 37 10 78 7 35 -3 63
-6 63 -7 0 -8 45 -4 46 5 0 6 4 2 9 -9 6 -14 9 -16 9 -4 1 12 14 15 63 15 35
-1 66 -5 70 -11 5 -6 8 -5 8 3 0 17 140 8 152 -10 5 -9 8 -5 8 11 l0 24 21
-24 c17 -20 22 -21 30 -9 5 10 12 11 17 5 9 -12 641 -4 661 9 8 5 16 4 21 -4
6 -9 12 -9 29 -1 12 7 27 9 33 5 20 -13 206 -11 230 2 16 8 28 9 42 1 12 -5
28 -13 36 -17 8 -4 36 -1 62 6 37 9 49 9 57 0 8 -9 26 -10 68 -5 32 5 93 8
137 7 63 -1 80 2 88 15 8 16 11 16 36 -1 17 -11 23 -12 18 -3 -6 10 -4 12 10
7 11 -3 75 -8 144 -11 69 -3 153 -9 188 -13 35 -5 66 -4 69 1 2 4 11 2 20 -4
8 -7 35 -12 61 -10 26 1 61 -3 77 -9 33 -13 397 -17 433 -6 12 4 22 3 22 -2 0
-6 18 -6 48 0 26 5 88 6 142 2 52 -5 115 -8 140 -8 41 1 151 27 175 42 6 4 17
5 26 4 20 -3 50 30 65 74 11 32 9 42 -13 90 -13 29 -28 56 -34 59 -5 3 -36 47
-69 98 -68 104 -77 116 -141 187 -26 28 -52 64 -59 80 -7 17 -16 30 -21 30 -5
0 -10 -48 -12 -107 -2 -99 -3 -95 -5 38 -1 81 -5 161 -8 178 l-6 31 -77 -2
c-42 -2 -1143 -4 -2446 -5z m-517 -600 c-137 -2 -359 -2 -495 0 -137 1 -25 2
247 2 272 0 384 -1 248 -2z m690 0 c-76 -2 -200 -2 -275 0 -76 1 -14 3 137 3
151 0 213 -2 138 -3z m205 0 c-7 -2 -19 -2 -25 0 -7 3 -2 5 12 5 14 0 19 -2
13 -5z m615 0 c-103 -2 -274 -2 -380 0 -106 1 -22 2 187 2 209 0 296 -1 193
-2z m365 0 c-18 -2 -48 -2 -65 0 -18 2 -4 4 32 4 36 0 50 -2 33 -4z m909 0
c-150 -2 -393 -2 -540 0 -147 1 -24 2 273 2 297 0 417 -1 267 -2z"/>
<path d="M2400 7518 c0 -18 -3 -138 -7 -265 -4 -173 -3 -233 5 -233 9 0 12 71
12 265 0 146 -2 265 -5 265 -3 0 -5 -15 -5 -32z"/>
<path d="M7955 7048 c4 -13 15 -35 26 -50 20 -28 20 -28 -2 -57 -36 -48 -17
-53 39 -9 28 22 52 43 52 47 -1 8 -105 91 -114 91 -4 0 -4 -10 -1 -22z"/>
<path d="M5277 7053 c-4 -3 -7 -19 -7 -35 0 -23 -4 -28 -25 -28 l-26 0 28 -35
c15 -19 32 -35 36 -35 4 0 23 15 41 34 l34 34 -30 36 c-30 36 -39 42 -51 29z"/>
<path d="M2433 7023 c-24 -13 -43 -31 -43 -38 0 -16 52 -61 81 -70 28 -9 37 2
15 18 -23 17 -29 62 -10 78 15 12 19 40 7 38 -5 -1 -27 -12 -50 -26z"/>
<path d="M2487 6979 c17 -17 2693 -16 2693 1 0 7 -454 10 -1352 10 -947 0
-1348 -4 -1341 -11z"/>
<path d="M5377 6979 c9 -9 337 -13 1314 -15 1003 -2 1299 0 1290 9 -9 9 -327
13 -1314 15 -993 2 -1299 0 -1290 -9z"/>
<path d="M2566 6264 c83 -82 248 -250 367 -373 l217 -224 2460 -1 c1353 0
2459 2 2457 6 -1 4 -58 68 -127 144 -69 75 -149 165 -179 198 -30 34 -102 111
-160 171 -59 61 -126 131 -149 158 l-43 48 -2472 3 c-1360 1 -2483 7 -2496 11
-14 5 38 -53 125 -141z m2831 -104 c17 -10 37 -28 43 -39 9 -18 8 -21 -9 -21
-12 0 -38 7 -60 16 -35 14 -42 14 -75 0 -36 -15 -36 -15 -29 -63 8 -66 18 -89
45 -107 28 -18 69 -11 97 15 30 29 26 36 -24 43 -25 4 -45 11 -45 16 0 16 47
23 87 13 33 -8 38 -12 34 -33 -9 -65 -58 -110 -119 -110 -70 0 -167 119 -146
179 10 28 124 111 152 111 10 0 31 -9 49 -20z m-316 -5 c58 -30 85 -112 59
-179 -12 -34 -86 -86 -121 -86 -35 0 -84 41 -109 91 -36 69 -23 110 49 164 40
29 79 32 122 10z m764 -16 c45 -40 35 -58 -22 -41 -96 28 -121 24 -147 -27
-14 -27 -13 -31 14 -75 42 -66 87 -78 126 -35 18 20 54 26 54 8 0 -38 -56 -79
-109 -79 -36 0 -87 42 -115 95 -18 32 -18 40 -6 73 20 56 41 83 75 98 51 23
91 17 130 -17z m-1121 -10 c3 -17 6 -67 6 -110 l0 -79 54 0 c50 0 54 -2 59
-26 4 -25 3 -26 -32 -20 -20 3 -55 6 -78 6 l-43 0 0 130 c0 104 3 130 14 130
7 0 16 -14 20 -31z m841 -104 c0 -68 -4 -127 -7 -130 -20 -21 -28 15 -28 131
0 111 2 124 18 124 15 0 17 -13 17 -125z m50 5 c-3 -5 -13 -10 -21 -10 -8 0
-12 5 -9 10 3 6 13 10 21 10 8 0 12 -4 9 -10z"/>
<path d="M4959 6101 c-43 -35 -22 -126 36 -153 49 -22 125 22 125 73 0 41 -15
66 -50 84 -39 20 -83 19 -111 -4z"/>
<path d="M2390 6062 l0 -299 40 -28 c35 -24 134 -125 604 -612 44 -46 82 -83
85 -83 3 0 5 132 3 292 l-2 293 -70 65 c-38 36 -196 198 -350 360 -155 162
-288 299 -296 303 -12 7 -14 -35 -14 -291z"/>
<path d="M3165 5323 l-1 -293 216 -2 c137 -1 192 -4 150 -8 -42 -4 -52 -7 -28
-8 20 -1 39 -6 43 -11 7 -12 93 -71 103 -71 4 0 0 5 -8 10 -8 5 -10 10 -5 10
6 -1 18 -7 28 -15 11 -7 25 -11 31 -9 7 3 19 -2 26 -11 9 -11 31 -15 77 -15
35 0 73 -5 83 -10 13 -7 21 -7 25 0 9 15 25 12 25 -5 0 -8 5 -15 10 -15 6 0
10 7 10 15 0 21 20 19 20 -2 1 -16 2 -16 13 -3 15 18 189 19 195 1 5 -15 18
-14 36 5 15 14 17 14 22 0 8 -20 93 -22 113 -3 11 10 14 9 18 -1 4 -9 9 -10
18 -2 12 10 45 4 45 -9 0 -8 287 -4 301 5 6 3 15 0 20 -7 6 -10 11 -11 17 -3
4 6 23 10 42 8 19 -2 130 -7 245 -10 116 -3 222 -9 236 -14 17 -5 31 -4 38 3
7 7 14 8 21 1 6 -6 49 -7 112 -2 182 12 1036 20 1042 9 4 -6 17 -6 37 1 24 8
33 8 39 -2 5 -8 15 -10 26 -5 20 8 42 8 154 -2 36 -2 144 -6 240 -8 154 -4
295 -10 310 -15 3 0 64 -1 136 0 85 1 158 -5 209 -15 43 -9 87 -14 97 -12 20
6 281 -16 439 -37 55 -7 99 -9 99 -4 0 4 13 8 29 8 33 0 87 22 116 47 43 37
54 111 23 150 -6 7 -8 19 -5 27 3 8 -1 20 -10 28 -9 7 -26 34 -38 61 -12 26
-47 73 -76 105 -30 31 -63 71 -74 89 -11 17 -48 61 -82 97 -34 36 -65 78 -69
93 -20 89 -22 71 -25 -172 l-4 -260 -5 290 -5 290 -2450 0 -2450 0 0 -292z
m623 -300 c-21 -2 -55 -2 -75 0 -21 2 -4 4 37 4 41 0 58 -2 38 -4z m264 0
c-40 -2 -103 -2 -140 0 -37 2 -4 3 73 3 77 0 107 -2 67 -3z m691 0 c-13 -2
-33 -2 -45 0 -13 2 -3 4 22 4 25 0 35 -2 23 -4z m170 0 c-7 -2 -19 -2 -25 0
-7 3 -2 5 12 5 14 0 19 -2 13 -5z m114 1 c-3 -3 -12 -4 -19 -1 -8 3 -5 6 6 6
11 1 17 -2 13 -5z m1661 -1 c-10 -2 -26 -2 -35 0 -10 3 -2 5 17 5 19 0 27 -2
18 -5z m505 0 c-7 -2 -19 -2 -25 0 -7 3 -2 5 12 5 14 0 19 -2 13 -5z"/>
<path d="M2397 4620 c-5 -129 -10 -242 -12 -250 -2 -8 14 -35 36 -60 32 -37
41 -42 49 -30 5 8 7 30 4 47 l-6 33 1383 -5 c761 -3 1389 -5 1395 -5 7 0 14
-9 17 -20 11 -41 54 -34 69 12 2 5 566 8 1311 8 874 0 1307 3 1307 10 0 7
-431 10 -1299 10 l-1299 0 -22 36 c-29 46 -54 42 -58 -9 -2 -20 -6 -35 -10
-33 -4 2 -634 6 -1400 8 -766 2 -1392 4 -1392 5 0 1 5 14 12 28 16 37 4 41
-35 11 -19 -14 -36 -26 -38 -26 -2 0 -3 82 -1 182 2 101 2 206 0 233 -2 28 -7
-56 -11 -185z"/>
<path d="M7940 4431 c0 -11 12 -33 26 -50 l26 -31 -21 -29 c-26 -35 -26 -41
-3 -41 9 0 35 17 56 37 l40 37 -54 48 c-59 53 -70 57 -70 29z"/>
<path d="M2785 3412 l370 -372 2458 0 c1351 0 2457 3 2457 6 0 3 -40 47 -89
97 -49 51 -123 133 -163 182 -41 50 -135 155 -209 234 -73 78 -147 161 -164
183 l-30 40 -2360 -4 c-1298 -2 -2423 -1 -2500 2 l-140 5 370 -373z m2673 95
c11 -29 26 -73 32 -97 7 -25 15 -38 17 -30 3 8 23 53 46 99 39 81 42 83 52 59
15 -37 45 -68 67 -68 11 0 18 -7 18 -19 0 -11 3 -27 7 -37 5 -13 14 6 33 63
20 65 29 80 40 73 12 -8 11 -21 -9 -87 -30 -102 -64 -185 -75 -185 -5 0 -23
24 -39 53 -54 97 -53 96 -73 58 -10 -19 -28 -56 -40 -83 -19 -43 -23 -47 -32
-30 -21 41 -92 265 -87 274 12 20 24 9 43 -43z m-674 -9 c33 -97 59 -149 70
-145 6 2 18 26 28 54 29 90 88 175 88 127 0 -28 -33 -119 -50 -139 -9 -11 -23
-36 -30 -55 -35 -90 -56 -95 -79 -18 -7 23 -28 79 -47 126 -39 98 -40 102 -16
102 12 0 23 -16 36 -52z m296 -20 c0 -40 3 -103 7 -140 5 -64 5 -68 -14 -68
-12 0 -23 6 -26 14 -9 23 -20 243 -13 255 4 6 16 11 27 11 17 0 19 -7 19 -72z
m280 57 c0 -12 -14 -15 -70 -15 l-70 0 0 -40 0 -40 55 0 c48 0 55 -2 55 -20 0
-18 -7 -20 -55 -20 l-55 0 0 -39 c0 -43 12 -51 81 -51 34 0 57 -19 42 -34 -4
-3 -42 -6 -85 -6 l-78 0 0 140 0 140 90 0 c73 0 90 -3 90 -15z m351 -72 c-12
-20 -14 -14 -5 12 4 9 9 14 11 11 3 -2 0 -13 -6 -23z"/>
<path d="M2388 3445 l3 -298 102 -109 c56 -60 152 -154 212 -210 61 -55 174
-169 253 -252 78 -83 147 -152 152 -154 6 -2 10 100 10 285 l0 288 -367 374
-368 374 3 -298z"/>
<path d="M3165 2989 c-2 -3 -3 -137 -2 -297 l2 -292 185 -2 c119 -1 165 -4
130 -8 -48 -6 -53 -9 -21 -14 5 0 24 -15 42 -33 19 -17 53 -50 76 -72 24 -21
57 -42 74 -46 19 -4 33 -15 36 -26 6 -22 14 -24 31 -7 9 9 12 7 12 -10 0 -24
19 -29 38 -10 10 10 15 10 21 -1 5 -7 33 -17 62 -22 77 -12 501 -12 669 1 80
6 235 8 345 5 340 -9 928 -8 1180 3 377 16 1369 4 1555 -19 47 -6 146 -10 221
-10 75 1 160 -4 189 -9 29 -6 117 -13 194 -16 130 -6 146 -5 201 16 33 12 71
24 85 27 14 3 37 17 53 31 31 29 36 80 12 122 -8 14 -14 34 -15 46 0 11 -9 29
-20 39 -11 10 -20 23 -20 30 0 16 -172 220 -276 327 -58 60 -94 107 -114 150
l-30 63 -2 -80 -2 -80 -5 95 -6 95 -2448 5 c-1347 3 -2450 2 -2452 -1z"/>
<path d="M2402 1934 l-2 -211 28 -14 c45 -22 48 -23 35 -7 -10 12 -9 22 7 53
25 48 18 57 -18 22 l-27 -28 -11 198 -11 198 -1 -211z"/>
<path d="M5271 1801 c-6 -11 -11 -26 -11 -34 0 -13 -178 -15 -1387 -16 -763
-1 -1389 -4 -1392 -6 -2 -3 -2 -8 2 -11 7 -8 2614 -6 2692 2 l60 6 17 -36 c21
-43 38 -46 60 -9 l17 28 1289 -3 c919 -3 1292 -1 1296 7 5 8 -113 11 -411 12
-230 0 -809 2 -1287 5 l-868 4 -22 32 c-26 39 -42 45 -55 19z"/>
<path d="M7928 1814 c-10 -9 11 -60 32 -79 19 -17 19 -18 0 -45 -22 -31 -26
-50 -9 -50 16 0 108 83 103 92 -3 5 -22 20 -42 33 -21 14 -46 32 -58 40 -11 8
-23 12 -26 9z"/>
</g>
</svg>
