<?xml version="1.0" standalone="no"?>
<!DOCTYPE svg PUBLIC "-//W3C//DTD SVG 20010904//EN"
 "http://www.w3.org/TR/2001/REC-SVG-20010904/DTD/svg10.dtd">
<svg version="1.0" xmlns="http://www.w3.org/2000/svg"
 width="1080.000000pt" height="1080.000000pt" viewBox="0 0 1080.000000 1080.000000"
 preserveAspectRatio="xMidYMid meet">

<g transform="translate(0.000000,1080.000000) scale(0.100000,-0.100000)"
fill="#000000" stroke="none">
<path d="M8275 8770 c-38 -10 -92 -30 -120 -43 -27 -14 -89 -43 -136 -66 -114
-54 -229 -130 -286 -188 -86 -89 -174 -237 -246 -413 -53 -130 -74 -212 -91
-360 -9 -74 -21 -178 -27 -230 -21 -182 -54 -293 -143 -487 -50 -109 -90 -209
-132 -328 -8 -22 -19 -49 -24 -60 -34 -68 -104 -370 -134 -575 -38 -254 -22
-633 35 -846 12 -44 23 -89 26 -101 l5 -23 -698 -2 -697 -3 2 -75 c2 -83 13
-100 63 -100 15 0 28 -6 29 -12 3 -87 2 -699 -2 -703 -3 -3 -305 -5 -670 -5
-365 1 -820 1 -1011 0 -278 -1 -348 2 -349 12 -1 7 -1 27 -1 43 0 42 -25 313
-44 472 -13 102 -17 249 -18 655 -3 543 3 673 31 771 22 77 9 93 -43 48 -20
-18 -52 -40 -71 -49 l-35 -17 -47 53 -46 53 -71 -35 c-84 -40 -94 -36 -94 37
0 47 -37 207 -79 342 -11 33 -29 94 -41 135 -12 41 -30 103 -40 137 l-19 63
24 26 c14 15 25 35 25 44 0 10 7 23 15 30 20 16 19 30 -1 30 -11 0 -14 5 -10
16 24 62 -137 76 -285 25 -46 -16 -97 -36 -114 -45 -16 -9 -35 -16 -41 -16 -6
0 -49 -25 -95 -56 -46 -31 -109 -69 -139 -84 -66 -34 -179 -141 -203 -192 -10
-20 -22 -40 -27 -43 -6 -3 -10 -22 -10 -41 0 -28 4 -35 18 -32 9 1 24 -2 32
-7 8 -5 46 -8 85 -8 61 0 66 -1 38 -10 -18 -5 -33 -14 -33 -18 0 -13 -138 -11
-145 2 -4 5 -18 14 -32 20 -19 7 -23 14 -17 32 17 55 35 86 85 146 67 78 290
261 319 261 5 0 13 6 17 13 12 21 85 67 105 67 10 0 18 4 18 8 0 21 207 69
303 71 52 1 104 -19 132 -50 15 -16 16 -21 4 -35 -12 -14 -11 -16 6 -13 16 3
19 12 18 47 -1 24 -6 49 -13 57 -6 7 -32 55 -58 107 -26 51 -60 110 -74 132
-30 43 -29 46 35 85 40 25 62 55 53 76 -2 7 -2 16 1 19 12 11 10 61 -3 93 -12
30 -34 60 -97 126 -15 17 -27 34 -27 38 0 5 -5 9 -11 9 -6 0 -29 15 -50 33
-65 55 -97 77 -112 77 -7 0 -21 8 -31 18 -25 29 -118 72 -157 74 -30 1 -38 7
-64 50 -16 26 -33 48 -37 48 -4 0 -8 5 -8 10 0 15 -82 122 -88 115 -3 -3 -16
2 -29 10 -13 9 -23 12 -23 8 0 -5 8 -13 19 -20 20 -12 74 -89 136 -193 21 -36
53 -84 71 -108 l33 -43 -35 -46 c-54 -71 -81 -131 -93 -212 -10 -64 -9 -82 5
-128 9 -29 31 -69 49 -88 18 -18 30 -37 27 -40 -4 -3 1 -3 11 1 9 3 23 2 30
-4 6 -5 27 -13 44 -17 18 -3 33 -10 33 -15 0 -11 57 -30 93 -30 25 0 28 2 17
15 -11 13 -6 15 37 15 42 0 52 -4 77 -32 15 -17 31 -28 34 -22 4 5 21 9 37 9
26 0 34 -7 58 -55 53 -103 55 -97 -21 -95 -161 5 -332 -42 -439 -121 -17 -13
-36 -24 -41 -24 -5 0 -20 -11 -34 -24 -14 -12 -32 -25 -39 -28 -27 -10 -196
-157 -235 -203 -21 -25 -52 -60 -67 -78 -15 -18 -30 -42 -33 -54 -4 -13 -9
-23 -13 -23 -21 1 -121 207 -121 251 0 22 29 82 43 88 5 1 21 31 36 65 16 33
41 86 56 116 32 65 47 156 34 202 -21 74 -148 177 -227 184 -71 7 -192 -41
-261 -103 -24 -21 -48 -38 -54 -38 -7 0 -26 25 -44 55 -17 30 -41 71 -53 90
-27 43 -52 154 -44 200 9 51 61 140 106 179 21 19 56 50 76 71 58 55 221 159
372 236 31 16 179 52 244 60 35 4 45 9 37 17 -8 8 -33 8 -93 -1 -110 -15 -190
-42 -282 -97 -42 -25 -79 -45 -82 -45 -10 0 -161 -105 -211 -147 -51 -43 -54
-44 -80 -30 -131 70 -202 90 -320 89 -89 0 -164 -15 -240 -48 -17 -8 -37 -14
-45 -14 -12 0 -85 -44 -98 -59 -3 -3 -27 -24 -55 -46 -43 -34 -193 -183 -291
-288 -69 -74 -124 -236 -140 -412 -3 -33 -7 -66 -9 -72 -3 -7 0 -13 5 -13 6 0
10 -7 10 -16 0 -8 -4 -13 -9 -10 -5 3 -9 -11 -10 -32 -1 -20 -2 -46 -3 -57 -1
-11 2 -36 5 -55 3 -19 13 -84 22 -145 19 -131 60 -254 127 -384 52 -100 127
-283 148 -361 23 -84 14 -202 -23 -290 -6 -14 -12 -29 -13 -35 -4 -16 -25 -76
-44 -125 -10 -25 -21 -62 -24 -82 -4 -20 -27 -80 -52 -132 -51 -107 -73 -181
-114 -381 -25 -119 -17 -412 15 -519 34 -117 102 -230 164 -272 l36 -24 -300
0 -300 1 -3 -120 c-3 -107 -1 -121 15 -129 11 -5 680 -8 1633 -7 888 1 1634 0
1656 -3 l42 -4 12 -79 c7 -44 16 -82 20 -84 10 -6 11 -295 1 -295 -4 0 -18
-48 -31 -107 -25 -122 -50 -205 -63 -214 -4 -3 -7 -10 -5 -15 1 -5 -3 -18 -9
-29 -16 -28 -33 -161 -33 -253 0 -83 -20 -219 -43 -292 -7 -25 -33 -73 -58
-107 l-44 -62 -1547 -1 c-1369 0 -1548 -2 -1548 -15 0 -10 11 -15 33 -16 l32
-1 -30 -7 c-25 -5 -30 -11 -30 -36 l0 -30 1516 0 c1515 0 1517 0 1509 -20 -5
-11 -17 -38 -28 -60 -21 -43 -77 -208 -117 -345 -64 -217 -71 -369 -25 -540
12 -46 58 -99 103 -118 86 -37 147 5 225 159 60 118 68 131 100 148 28 15 30
11 36 -89 12 -186 58 -285 151 -329 52 -24 83 -26 128 -7 39 16 105 81 119
116 27 69 42 197 51 440 2 34 8 37 74 29 107 -12 664 -15 1008 -5 127 4 304 6
395 6 91 0 320 1 510 2 190 2 478 2 640 1 709 -4 880 -3 907 2 48 11 112 48
117 70 3 11 6 137 6 280 l0 260 1683 0 1682 0 0 30 c0 25 -5 31 -30 36 l-30 7
33 1 c21 1 32 6 32 16 0 13 -194 15 -1685 15 l-1685 0 0 300 0 300 -27 1 c-16
0 -740 0 -1609 0 l-1581 1 8 36 c18 80 -11 277 -53 357 -33 64 -138 192 -238
290 -82 81 -190 222 -190 250 0 7 320 9 1037 8 571 -2 1045 -3 1053 -3 8 0
474 2 1035 3 815 3 1024 1 1042 -10 16 -9 22 -10 25 -1 3 9 345 12 1437 12
1290 0 1431 1 1428 15 -1 9 -11 15 -21 13 -14 -3 -16 0 -7 16 6 11 7 22 4 26
-3 3 1 6 10 6 14 0 17 10 17 55 0 44 -3 55 -16 55 -9 0 -14 6 -11 13 2 6 10
11 16 10 6 -2 11 8 11 22 l0 25 -392 1 c-216 0 -451 0 -523 -1 l-130 0 33 30
c17 16 32 36 32 44 0 8 9 30 19 48 11 18 31 73 45 121 14 49 28 93 32 98 3 5
9 30 14 57 11 62 37 194 51 257 17 80 19 91 25 267 8 191 -11 360 -51 461 -12
31 -20 59 -16 61 3 2 51 9 106 15 159 19 314 41 329 47 19 7 63 91 91 174 65
191 56 545 -20 768 -14 40 -25 77 -25 83 0 6 -17 48 -38 93 -32 68 -47 88 -94
123 -54 41 -56 41 -126 38 -39 -2 -97 -9 -129 -14 -32 -6 -116 -13 -188 -16
l-130 -7 -53 89 c-29 48 -66 109 -83 135 -39 61 -54 142 -73 388 -25 319 -88
548 -193 706 -16 23 -50 74 -76 115 -62 92 -199 228 -278 274 -33 19 -62 35
-65 35 -2 0 -53 24 -113 54 -172 85 -364 114 -506 76z m210 -31 c39 0 75 -5
82 -11 7 -5 18 -6 24 -2 8 5 9 3 4 -6 -6 -9 -2 -10 15 -5 15 5 20 4 16 -4 -5
-7 -1 -9 8 -5 9 4 16 1 16 -6 0 -9 3 -10 13 -2 10 9 53 -9 178 -71 153 -76
170 -88 250 -167 47 -47 94 -101 104 -120 10 -19 33 -53 52 -74 44 -52 136
-235 156 -311 29 -107 65 -337 71 -448 7 -137 33 -311 52 -352 17 -38 37 -71
95 -160 58 -90 64 -105 40 -105 -11 0 -26 -3 -35 -6 -10 -4 -41 19 -90 65 -42
39 -96 80 -122 91 -55 24 -54 24 -54 5 0 -8 22 -24 50 -36 86 -37 167 -136
246 -298 36 -75 73 -154 80 -175 8 -22 18 -44 23 -50 17 -21 40 -121 44 -191
7 -124 -44 -265 -126 -350 -100 -102 -256 -158 -373 -135 -126 26 -183 140
-203 410 -7 89 -19 156 -42 235 -40 138 -49 157 -116 228 -29 32 -62 75 -72
95 -23 45 -57 82 -75 82 -25 0 -26 -14 -4 -38 l23 -25 -27 5 c-15 3 -26 2 -23
-2 2 -3 -38 -19 -88 -35 -75 -23 -100 -36 -133 -69 -52 -52 -69 -79 -89 -141
-9 -27 -19 -57 -22 -65 -15 -37 -17 -62 -18 -172 0 -65 -3 -118 -7 -118 -5 0
-8 -7 -8 -15 0 -8 -10 -19 -22 -26 -25 -12 -198 -186 -198 -198 0 -5 -9 -18
-20 -31 -11 -13 -20 -29 -20 -35 0 -7 -6 -18 -14 -24 -8 -7 -17 -23 -20 -37
-4 -14 -19 -53 -35 -87 -16 -34 -31 -73 -35 -87 -4 -14 -16 -43 -25 -65 -10
-22 -24 -58 -31 -80 -7 -22 -17 -49 -22 -60 -5 -12 -10 -27 -12 -35 -2 -8 -9
-28 -15 -45 -22 -52 -41 -134 -35 -150 3 -8 1 -15 -5 -15 -6 0 -11 -4 -11 -10
0 -5 6 -10 14 -10 15 0 30 45 21 60 -4 6 -1 10 4 10 6 0 11 6 11 13 0 15 61
204 80 252 7 17 21 49 31 72 11 24 19 47 19 52 0 5 14 39 30 76 17 37 30 73
30 81 0 8 9 24 20 36 11 12 20 30 20 40 0 10 4 18 10 18 5 0 22 19 37 43 33
51 52 69 164 161 187 152 215 174 259 196 39 19 100 72 100 86 0 2 -11 2 -25
-2 -14 -3 -25 -4 -25 -1 0 14 52 57 68 57 13 0 14 -2 4 -8 -8 -5 -10 -16 -6
-27 7 -18 8 -18 14 -1 3 11 7 -3 7 -30 1 -27 15 -90 32 -140 57 -173 50 -409
-13 -434 -40 -15 -67 -57 -103 -161 -37 -104 -37 -104 -37 -269 0 -153 2 -170
27 -237 17 -49 22 -73 14 -73 -16 -1 -689 3 -750 4 l-49 1 7 52 c4 33 3 53 -4
53 -13 0 -23 -33 -23 -76 0 -30 -4 -34 -31 -39 -18 -3 -207 -4 -422 -3 l-390
3 -1 50 c-1 28 -9 66 -17 85 -29 67 -54 248 -59 420 -4 120 14 332 38 463 7
43 13 81 12 85 -11 46 81 393 113 426 5 6 9 17 9 25 0 28 92 265 147 379 94
195 117 283 143 537 26 260 46 375 77 445 163 364 217 445 368 556 77 57 329
181 397 196 29 6 56 14 60 17 4 3 29 5 55 4 26 -1 80 -3 118 -4z m-7110 -784
c51 -6 85 -14 164 -41 11 -3 7 -13 -16 -37 -59 -63 -93 -128 -100 -188 l-6
-47 -51 39 c-50 38 -102 56 -129 46 -20 -8 -47 -70 -47 -110 0 -75 48 -161
114 -201 58 -35 114 -16 141 48 l12 28 23 -38 c13 -22 36 -55 50 -74 15 -19
29 -45 32 -56 6 -23 -31 -104 -62 -139 -9 -11 -24 -32 -31 -47 -105 -205 -139
-287 -139 -337 0 -29 2 -32 15 -21 13 11 15 8 15 -19 0 -17 5 -31 10 -31 12 0
14 4 29 88 22 118 106 294 192 403 16 20 29 41 29 47 0 5 11 18 25 28 14 10
25 22 25 27 0 13 72 71 111 90 145 67 273 23 325 -110 33 -85 7 -171 -91 -298
-30 -39 -68 -93 -84 -120 -17 -28 -40 -60 -51 -72 -11 -12 -20 -25 -20 -28 0
-3 -17 -32 -39 -64 -71 -108 -121 -231 -121 -304 0 -32 30 -95 56 -119 23 -20
101 -44 111 -34 4 4 -14 26 -41 50 l-49 42 7 74 c7 78 30 140 51 140 8 0 19
17 25 38 7 20 19 45 27 54 8 9 12 21 9 27 -4 5 1 14 10 19 11 6 13 11 5 16 -8
5 -8 13 0 28 l11 20 11 -20 c7 -11 48 -73 92 -137 44 -64 86 -127 94 -139 14
-22 22 -24 103 -25 48 -1 95 3 105 7 61 31 123 49 132 38 31 -38 67 -169 76
-273 l5 -72 -49 24 c-27 14 -55 25 -63 25 -8 0 -37 -20 -64 -44 -37 -33 -52
-42 -64 -35 -8 5 -28 18 -45 29 -77 50 -83 52 -95 31 -15 -28 -13 -35 22 -114
l31 -72 -1 -285 c-3 -582 -13 -1396 -18 -1422 -4 -19 -16 -31 -47 -44 -49 -20
-87 -21 -727 -29 -245 -2 -495 -7 -556 -10 -109 -6 -113 -6 -187 25 -42 18
-84 40 -94 50 -32 31 -51 57 -58 81 -5 13 -25 60 -45 104 -75 161 -91 341 -47
520 34 137 207 609 264 723 41 81 50 83 59 16 7 -58 -9 -168 -37 -261 -9 -28
-10 -48 -3 -63 9 -19 14 -11 44 66 34 87 35 93 34 224 -1 135 -10 220 -24 220
-4 0 -13 21 -19 48 -6 26 -27 79 -46 117 -81 167 -142 306 -167 380 -11 33
-26 67 -33 75 -7 8 -25 47 -40 85 -24 63 -31 107 -51 304 -4 30 -1 81 6 114 7
36 8 63 2 69 -5 5 -4 42 4 91 23 152 42 212 95 289 21 32 39 60 39 64 0 3 12
19 27 36 68 73 89 98 106 122 10 14 25 26 33 26 8 0 13 4 10 9 -3 5 7 17 22
27 15 9 43 33 62 51 71 70 229 129 375 142 50 4 97 7 105 5 8 -1 42 -5 75 -9z
m1461 -105 c119 -98 194 -213 194 -297 0 -29 -25 -63 -47 -63 -7 0 -13 -4 -13
-9 0 -5 -14 -14 -31 -20 -17 -6 -28 -14 -25 -19 3 -5 -21 -21 -54 -37 -52 -25
-66 -27 -129 -23 -85 6 -138 38 -184 108 -27 42 -28 50 -24 129 2 53 8 86 15
89 7 2 12 12 12 21 0 10 9 26 20 36 11 10 20 24 20 32 0 8 5 11 10 8 6 -3 10
-1 10 5 0 6 14 23 31 37 16 14 28 32 25 39 -4 11 -2 11 15 1 17 -10 22 -9 30
6 17 30 48 19 125 -43z m-1567 -213 c15 -27 11 -79 -5 -84 -13 -4 -32 62 -26
90 5 24 16 21 31 -6z m1678 -273 c-3 -3 -12 -4 -19 -1 -8 3 -5 6 6 6 11 1 17
-2 13 -5z m10 -42 c9 -16 8 -18 -11 -18 -24 1 -36 14 -29 32 6 16 25 9 40 -14z
m-207 8 c11 -8 7 -9 -15 -4 -37 8 -45 14 -19 14 10 0 26 -5 34 -10z m195 -408
c22 -31 47 -66 57 -78 19 -21 123 -328 159 -468 23 -89 39 -206 28 -206 -3 0
-12 7 -19 15 -15 18 -36 19 -47 3 -4 -7 -29 -27 -54 -45 -45 -32 -46 -32 -75
-14 -16 10 -38 28 -48 40 -27 30 -52 26 -102 -14 l-43 -36 -43 22 c-24 12 -53
30 -65 41 -15 14 -27 18 -40 12 -10 -4 -22 -8 -28 -9 -5 0 -20 -6 -31 -13 -21
-11 -22 -9 -28 56 -8 81 -33 196 -52 239 -8 17 -14 36 -14 41 0 6 -8 18 -17
28 -10 10 -18 20 -18 23 -1 3 -6 16 -13 28 -9 17 -9 22 0 25 14 5 -16 58 -32
58 -6 0 -10 8 -10 19 0 10 -7 24 -15 31 -8 7 -15 18 -15 26 0 14 57 56 138 99
28 15 52 32 52 37 0 4 9 8 19 8 11 0 32 11 47 25 15 14 34 25 43 25 9 0 25 7
35 15 11 8 32 15 48 15 19 0 28 5 28 16 0 14 3 14 15 4 9 -8 15 -8 15 -2 0 16
53 19 71 5 9 -7 33 -39 54 -71z m7210 -42 c3 -5 21 -10 39 -10 27 0 42 -9 73
-43 46 -49 98 -152 108 -212 4 -22 13 -45 20 -50 11 -9 23 -47 57 -180 14 -54
13 -331 -1 -435 -12 -88 -40 -172 -75 -227 -19 -29 -27 -33 -86 -38 -36 -4
-78 -10 -95 -15 -16 -5 -75 -14 -130 -20 -55 -6 -113 -13 -130 -15 -97 -13
-200 -25 -270 -30 -44 -4 -96 -10 -115 -15 -33 -8 -77 -14 -207 -25 -73 -7
-152 -16 -178 -21 -69 -14 -104 -17 -273 -29 -72 -5 -73 -5 -66 18 3 12 13 29
20 38 8 8 14 20 14 26 0 6 6 16 14 22 8 7 25 49 38 94 20 72 23 101 21 242 -1
101 -7 189 -18 240 -21 105 -84 305 -97 305 -5 0 -7 4 -4 9 8 13 -5 71 -15 71
-16 0 -9 -45 20 -136 39 -118 69 -246 81 -337 25 -192 -1 -399 -63 -488 -17
-26 -34 -45 -36 -43 -3 2 6 25 19 52 25 49 29 65 57 248 16 105 16 118 0 235
-10 68 -26 151 -36 184 -28 87 -86 237 -113 291 -25 51 -51 71 -41 33 4 -15 3
-20 -5 -15 -7 4 -12 18 -12 31 0 18 -7 25 -30 30 -24 5 -38 1 -70 -25 -22 -17
-40 -40 -40 -50 0 -9 -6 -23 -13 -29 -8 -6 -14 -30 -15 -53 -1 -23 -6 -44 -10
-47 -10 -7 -11 -8 -15 -125 -3 -63 -8 -91 -17 -94 -11 -4 -12 12 -6 79 12 157
29 238 58 281 10 14 18 30 18 35 0 5 18 20 41 35 32 21 50 26 86 23 35 -3 42
-1 34 9 -9 10 -1 15 35 20 103 14 136 6 146 -33 2 -8 22 -35 46 -60 51 -54 94
-134 97 -176 1 -17 7 -40 12 -50 6 -11 16 -67 22 -125 39 -351 41 -359 128
-451 67 -71 100 -88 183 -94 31 -2 126 8 170 19 38 8 113 52 155 89 68 61 115
112 115 124 0 7 4 13 8 13 5 0 17 19 27 43 40 88 18 406 -30 443 -7 6 -23 33
-33 60 -15 37 -131 285 -147 314 -2 3 38 6 88 6 84 1 194 12 337 33 80 12 98
12 105 1z m-1535 -264 c0 -3 -4 -8 -10 -11 -5 -3 -10 -1 -10 4 0 6 5 11 10 11
6 0 10 -2 10 -4z m100 -65 c-1 -14 -2 -14 -11 2 -8 13 -14 15 -29 7 -24 -13
-43 -13 -35 0 3 6 15 10 26 10 10 0 19 5 19 11 0 8 5 8 15 -1 8 -7 15 -20 15
-29z m-151 12 c-12 -15 -12 -16 4 -10 11 4 17 2 17 -8 0 -9 -6 -12 -15 -9 -9
4 -15 0 -15 -10 0 -9 -5 -16 -11 -16 -6 0 -8 9 -3 23 7 23 23 47 31 47 3 0 -1
-8 -8 -17z m-6152 -35 c-3 -7 -5 -2 -5 12 0 14 2 19 5 13 2 -7 2 -19 0 -25z
m6203 22 c0 -5 -4 -10 -10 -10 -5 0 -10 5 -10 10 0 6 5 10 10 10 6 0 10 -4 10
-10z m120 -57 c0 -25 -15 -12 -17 14 -1 19 1 22 8 12 5 -8 9 -20 9 -26z m-70
-43 c-8 -5 -19 -10 -25 -10 -5 0 -3 5 5 10 8 5 20 10 25 10 6 0 3 -5 -5 -10z
m-153 -97 c-3 -10 -5 -4 -5 12 0 17 2 24 5 18 2 -7 2 -21 0 -30z m73 -28 c-13
-14 -26 -22 -29 -19 -3 3 5 14 18 25 33 27 39 24 11 -6z m-45 -5 c3 -5 2 -10
-4 -10 -5 0 -13 5 -16 10 -3 6 -2 10 4 10 5 0 13 -4 16 -10z m0 -30 c-3 -5
-11 -10 -16 -10 -6 0 -7 5 -4 10 3 6 11 10 16 10 6 0 7 -4 4 -10z m-5786 -193
c14 -2 27 -9 29 -15 7 -21 26 -13 66 28 21 22 43 40 49 40 5 0 27 -18 48 -41
29 -31 42 -39 58 -34 12 3 21 11 21 16 0 5 8 9 18 9 10 0 36 13 58 29 l39 29
59 -45 c50 -38 61 -43 70 -31 13 18 60 43 98 52 22 5 33 -2 75 -49 28 -30 52
-55 55 -55 3 0 8 8 10 18 3 10 24 28 47 39 37 18 41 19 41 4 0 -9 -4 -21 -9
-27 -19 -20 -33 -84 -22 -98 6 -7 8 -15 5 -19 -3 -3 -7 -294 -9 -648 -2 -531
-5 -643 -16 -650 -103 -66 -149 -91 -206 -114 -38 -15 -92 -38 -121 -52 -29
-13 -57 -21 -62 -18 -5 3 -11 1 -15 -5 -4 -6 -11 -8 -16 -5 -5 4 -9 2 -9 -3 0
-5 -6 -9 -12 -10 -26 -2 -103 -27 -109 -34 -3 -5 -29 -6 -58 -3 -38 4 -50 2
-45 -7 5 -8 2 -9 -12 -4 -24 10 -27 10 -94 -3 -49 -11 -183 -23 -235 -22 -11
0 -36 -5 -55 -11 -19 -7 -47 -11 -62 -9 -14 1 -29 -2 -33 -8 -10 -17 -35 -13
-35 5 0 11 -6 14 -20 9 -11 -4 -33 -4 -48 0 l-27 6 -2 814 c-3 768 -4 817 -22
864 l-18 49 28 -10 c18 -6 29 -17 29 -29 0 -28 16 -23 45 15 15 19 41 46 59
60 l33 25 59 -29 c33 -16 53 -30 46 -30 -7 0 -10 -4 -7 -10 9 -15 19 -12 45
13 13 12 37 32 53 44 l30 22 41 -29 c23 -16 52 -31 65 -33z m7177 -627 c26
-78 28 -98 28 -245 1 -151 -18 -336 -44 -435 -5 -19 -19 -75 -30 -125 -28
-123 -70 -255 -81 -255 -5 0 -9 -8 -9 -18 0 -10 -4 -22 -9 -27 -5 -6 -14 -27
-20 -47 -17 -51 -67 -118 -89 -118 -10 0 -22 -3 -26 -7 -14 -14 -46 -17 -248
-20 l-207 -4 1 128 c1 154 -11 527 -18 566 -5 26 -4 27 39 27 l45 0 4 76 c2
42 0 78 -3 80 -4 2 -120 4 -258 4 l-251 1 -20 39 c-32 62 -52 156 -55 252 -2
99 -6 95 89 104 33 3 64 8 67 10 3 2 35 6 70 9 35 3 93 10 129 15 36 5 102 12
148 14 45 3 87 8 92 11 6 4 38 9 72 11 33 3 65 7 71 11 11 6 78 14 142 17 22
0 42 4 45 7 3 3 42 9 88 12 66 4 82 2 82 -9 0 -8 5 -14 11 -14 5 0 8 4 4 9 -7
13 11 24 60 37 37 9 41 9 47 -10 3 -12 19 -59 34 -106z m-1200 84 c-30 -21
-42 -17 -15 5 13 11 26 17 29 14 3 -2 -4 -11 -14 -19z m34 -33 c0 -5 -7 -12
-16 -15 -14 -5 -15 -4 -4 9 14 17 20 19 20 6z m469 -551 l1 -50 -893 -2 c-490
-2 -1300 -2 -1799 0 l-908 2 1 50 2 50 1797 0 1797 0 2 -50z m-1074 -100 c-11
-5 -32 -9 -47 -9 -30 -1 -45 -16 -24 -24 21 -8 114 -2 123 7 4 5 2 11 -4 13
-19 7 -16 19 6 20 13 1 18 -5 17 -19 -1 -13 6 -22 17 -24 9 -1 17 2 17 7 0 9
41 8 50 -1 3 -3 48 -3 100 0 52 3 123 3 158 0 34 -3 62 -2 62 2 0 4 37 5 83 2
45 -2 125 -5 177 -6 52 -1 105 -7 117 -13 12 -7 39 -11 60 -10 69 2 68 7 69
-335 l1 -307 -106 5 c-102 3 -1603 5 -1901 1 -80 -1 -165 -1 -190 1 -25 1 -99
-1 -165 -4 -66 -3 -163 -1 -215 5 -93 9 -476 13 -535 4 -61 -9 -142 -16 -211
-18 l-72 -3 -7 83 c-9 106 -4 490 7 521 4 13 12 21 16 18 5 -3 9 1 9 9 0 8 -9
15 -19 15 -10 0 -18 7 -18 15 0 8 7 15 15 15 8 0 15 -5 15 -11 0 -8 12 -10 35
-6 20 3 33 2 30 -3 -6 -10 23 -22 36 -15 4 3 23 7 41 9 116 13 158 20 158 26
0 5 18 7 40 6 42 -2 42 9 0 17 -21 4 -20 4 7 6 20 0 35 -5 41 -15 7 -12 32
-17 116 -21 109 -5 171 4 111 16 -24 5 -26 8 -12 14 11 4 24 0 37 -13 23 -23
80 -36 80 -18 0 6 3 8 7 5 3 -4 12 -2 20 4 10 9 13 8 13 -5 0 -12 5 -14 24 -6
13 5 26 6 29 4 4 -4 201 -6 330 -3 9 0 17 7 17 15 0 8 10 14 25 14 16 0 25 -6
25 -16 0 -11 6 -14 20 -9 12 4 20 2 20 -6 0 -8 20 -10 73 -5 184 15 739 24
909 14 40 -3 59 0 62 9 4 9 -6 13 -35 13 -24 0 -38 4 -34 10 3 6 47 10 98 9
61 0 85 -3 72 -9z m255 -1 c0 -8 -15 -13 -33 -10 -4 1 -25 2 -47 3 -63 2 -47
15 20 16 33 0 60 -4 60 -9z m85 1 c3 -5 -1 -10 -10 -10 -9 0 -13 5 -10 10 3 6
8 10 10 10 2 0 7 -4 10 -10z m492 4 c-3 -3 -12 -4 -19 -1 -8 3 -5 6 6 6 11 1
17 -2 13 -5z m-3112 -13 c-3 -6 -24 -8 -45 -6 -22 2 -40 -1 -40 -6 0 -13 -23
-11 -43 4 -14 10 -4 12 59 15 47 1 73 -1 69 -7z m898 2 c-7 -2 -19 -2 -25 0
-7 3 -2 5 12 5 14 0 19 -2 13 -5z m492 -3 c-3 -5 -10 -10 -16 -10 -5 0 -9 5
-9 10 0 6 7 10 16 10 8 0 12 -4 9 -10z m1871 -15 c-1 -32 -12 -32 -18 0 -3 16
-1 25 7 25 7 0 12 -11 11 -25z m-2096 0 c0 -8 -4 -15 -10 -15 -5 0 -10 4 -10
9 0 5 -8 12 -17 14 -11 3 -7 5 10 6 18 1 27 -4 27 -14z m-1170 -15 c0 -5 -8
-10 -17 -10 -15 0 -16 2 -3 10 19 12 20 12 20 0z m-2324 -237 c-10 -10 -19 5
-10 18 6 11 8 11 12 0 2 -7 1 -15 -2 -18z m-181 -142 c-7 -24 9 -35 27 -19 31
30 46 38 62 32 9 -3 16 -14 16 -23 0 -9 7 -29 16 -46 10 -18 16 -57 17 -97 0
-38 4 -68 9 -68 4 0 4 7 1 17 -4 10 -2 14 4 10 6 -4 13 -17 15 -29 4 -23 4
-23 -126 -22 -139 1 -181 7 -190 30 -3 8 -13 14 -21 14 -10 0 -13 -5 -9 -12 4
-6 3 -8 -4 -4 -6 3 -13 2 -17 -4 -4 -7 -13 -6 -27 1 -18 9 -19 8 -13 -10 6
-18 2 -21 -27 -21 -22 0 -37 7 -46 20 -7 12 -8 20 -2 20 5 0 10 7 10 15 0 8 5
15 11 15 5 0 7 -5 3 -12 -5 -8 -2 -9 12 -4 43 17 74 19 75 5 0 -8 7 0 14 16 8
17 14 24 15 18 0 -8 15 -13 42 -13 40 0 41 0 21 18 -15 13 -18 22 -12 40 5 12
15 22 24 22 9 0 18 7 22 16 4 12 8 13 13 3 6 -9 12 -8 25 4 9 10 21 17 27 17
10 0 8 17 -7 53 -5 12 -2 17 10 17 12 0 15 -5 10 -19z m-280 -51 c3 -5 1 -10
-4 -10 -6 0 -11 5 -11 10 0 6 2 10 4 10 3 0 8 -4 11 -10z m-665 -139 c0 -6 -9
-9 -19 -8 -11 0 -17 5 -15 9 7 11 34 10 34 -1z m37 3 c-3 -3 -12 -4 -19 -1 -8
3 -5 6 6 6 11 1 17 -2 13 -5z m40 0 c-3 -3 -12 -4 -19 -1 -8 3 -5 6 6 6 11 1
17 -2 13 -5z m1080 -36 c-3 -7 -5 -2 -5 12 0 14 2 19 5 13 2 -7 2 -19 0 -25z
m-637 12 c0 -5 -7 -10 -16 -10 -8 0 -12 5 -9 10 3 6 10 10 16 10 5 0 9 -4 9
-10z m-210 -24 c0 -3 -4 -8 -10 -11 -5 -3 -10 -1 -10 4 0 6 5 11 10 11 6 0 10
-2 10 -4z m43 -3 c-7 -2 -19 -2 -25 0 -7 3 -2 5 12 5 14 0 19 -2 13 -5z m230
0 c-7 -2 -21 -2 -30 0 -10 3 -4 5 12 5 17 0 24 -2 18 -5z m-673 -23 c12 -8 9
-10 -12 -10 -15 0 -30 5 -33 10 -8 13 25 13 45 0z m180 -21 c0 -5 -7 -9 -15
-9 -8 0 -15 7 -15 15 0 9 6 12 15 9 8 -4 15 -10 15 -15z m1044 9 c7 -7 18 -46
25 -87 12 -78 79 -262 115 -319 13 -20 32 -35 49 -39 19 -4 50 -32 97 -87 37
-44 111 -124 164 -176 121 -119 147 -168 154 -292 4 -73 7 -86 20 -81 13 6 14
-3 9 -60 -7 -76 -22 -111 -43 -103 -8 3 -14 -1 -14 -9 0 -9 -10 -15 -25 -15
-24 0 -52 24 -149 128 -43 48 -62 51 -117 20 -46 -26 -59 -43 -94 -129 -43
-106 -58 -438 -36 -804 22 -363 -14 -840 -72 -955 -20 -39 -30 -47 -78 -63
-29 -10 -63 -15 -74 -13 -34 9 -94 127 -106 210 -20 143 -29 175 -55 195 -20
16 -31 18 -51 10 -69 -26 -103 -68 -134 -167 -10 -29 -28 -68 -40 -87 -21 -30
-31 -35 -78 -41 -44 -5 -60 -3 -89 14 -49 28 -62 75 -68 242 -4 133 3 195 31
270 7 19 21 67 30 105 10 39 20 75 23 80 4 6 7 16 8 23 2 7 12 33 23 58 12 24
21 47 21 51 0 9 74 156 110 218 38 66 119 225 114 225 -2 0 3 17 11 38 23 61
33 139 35 279 1 137 4 151 55 258 13 28 44 111 68 186 48 147 48 137 32 399
-7 123 -18 200 -45 313 -24 100 -23 157 3 157 9 0 18 -1 20 -2 2 -2 16 5 31
16 16 10 25 13 22 7 -10 -16 0 -13 18 5 15 14 16 14 16 -2 0 -13 5 -11 21 10
23 30 26 31 43 14z m-1121 -15 c-7 -2 -19 -2 -25 0 -7 3 -2 5 12 5 14 0 19 -2
13 -5z m917 -48 c0 -8 -4 -15 -10 -15 -5 0 -10 7 -10 15 0 8 5 15 10 15 6 0
10 -7 10 -15z m-3182 -31 c1 -30 -1 -34 -13 -24 -8 6 -19 9 -24 6 -5 -4 -12
-2 -15 3 -3 5 4 11 15 14 12 3 18 10 15 15 -3 6 0 13 6 15 7 3 13 6 14 6 0 1
1 -15 2 -35z m162 25 c0 -4 -10 -10 -22 -14 -34 -11 -38 -12 -40 -15 -2 -1
-16 -4 -33 -6 -20 -2 -25 0 -16 6 12 7 12 11 2 24 -11 13 -5 14 48 13 34 -1
61 -4 61 -8z m36 -16 c-10 -10 -19 5 -10 18 6 11 8 11 12 0 2 -7 1 -15 -2 -18z
m137 8 c4 -17 2 -17 -24 -4 -35 18 -36 23 -5 23 15 0 26 -7 29 -19z m162 9
c35 -9 33 -11 -15 -14 -19 -1 -41 4 -48 11 -11 11 -9 13 10 12 13 -1 37 -5 53
-9z m110 -14 c-22 -14 -42 -23 -44 -20 -8 8 43 44 63 44 16 0 12 -6 -19 -24z
m142 18 c-3 -3 -12 -4 -19 -1 -8 3 -5 6 6 6 11 1 17 -2 13 -5z m103 -9 c-7 -8
-17 -15 -22 -15 -6 0 -5 7 2 15 7 8 17 15 22 15 6 0 5 -7 -2 -15z m90 11 c0
-9 -39 -13 -51 -5 -10 6 -4 9 19 9 17 0 32 -2 32 -4z m48 -14 c2 -7 -3 -12
-12 -12 -9 0 -16 7 -16 16 0 17 22 14 28 -4z m77 8 c-3 -5 -13 -10 -21 -10 -8
0 -12 5 -9 10 3 6 13 10 21 10 8 0 12 -4 9 -10z m195 -4 c0 -9 -12 -16 -27
-18 -22 -2 -28 -8 -27 -25 0 -13 -5 -23 -12 -23 -8 0 -11 6 -7 16 5 14 3 14
-16 3 -11 -8 -21 -17 -21 -21 0 -5 -7 -8 -16 -8 -14 0 -14 3 -4 15 7 8 18 15
24 15 6 0 27 14 46 30 38 32 60 38 60 16z m53 -2 c-23 -17 -33 -17 -33 0 0 8
10 14 25 14 23 0 24 -2 8 -14z m104 8 c6 -4 16 -20 22 -35 8 -22 8 -27 -4 -27
-8 0 -12 6 -9 13 2 7 -7 19 -21 27 -23 12 -30 12 -54 -3 -16 -9 -37 -17 -48
-16 -15 0 -14 2 5 9 12 5 25 16 28 25 6 16 60 21 81 7z m87 0 c8 -13 -7 -27
-31 -29 -27 -3 -29 5 -5 23 20 16 29 17 36 6z m60 -8 c3 -8 2 -12 -4 -9 -6 3
-10 10 -10 16 0 14 7 11 14 -7z m61 7 c6 -1 2 -6 -9 -12 -14 -9 -22 -8 -33 4
-15 14 -8 16 42 8z m40 -1 c3 -5 1 -10 -4 -10 -6 0 -11 5 -11 10 0 6 2 10 4
10 3 0 8 -4 11 -10z m45 1 c0 -5 3 -16 6 -25 10 -26 -10 -18 -23 9 -9 20 -8
25 3 25 8 0 14 -4 14 -9z m218 -8 c-6 -7 -14 -13 -19 -13 -5 0 -9 6 -9 13 0 7
9 13 19 13 15 0 17 -3 9 -13z m192 7 c21 0 17 -5 -25 -28 -42 -23 -50 -31 -49
-55 1 -16 -4 -27 -12 -27 -7 0 -18 -9 -24 -21 -7 -12 -18 -18 -26 -15 -9 3
-12 1 -9 -4 9 -14 45 -12 46 3 0 9 2 9 6 -1 7 -18 23 -4 17 16 -3 9 1 6 10 -8
9 -16 11 -28 5 -35 -11 -11 -329 -14 -329 -3 0 4 9 12 19 18 14 7 21 6 24 -3
6 -16 63 14 60 31 -2 7 6 12 16 12 11 0 21 8 23 18 2 12 6 13 11 5 5 -7 -1
-21 -13 -33 -24 -24 -26 -40 -5 -40 8 0 15 6 15 14 0 8 8 17 18 21 9 3 26 12
36 20 15 11 16 17 7 29 -9 11 -8 15 3 19 10 4 13 1 9 -9 -7 -19 12 -18 31 2 9
8 16 12 17 7 0 -4 4 2 9 15 5 12 16 22 25 22 8 0 15 5 15 11 0 7 -10 9 -25 5
-14 -4 -25 -2 -25 3 0 15 22 21 60 16 19 -3 46 -5 60 -5z m405 0 c-3 -5 -12
-10 -18 -10 -7 0 -6 4 3 10 19 12 23 12 15 0z m222 -3 c-2 -7 -15 -11 -28 -10
-38 2 -93 -18 -109 -41 -8 -12 -14 -23 -13 -26 1 -3 -11 -6 -25 -7 -15 0 -28
-6 -30 -12 -2 -6 -10 -11 -18 -11 -7 0 -19 -9 -26 -20 -7 -11 -18 -20 -25 -20
-6 0 -15 -5 -18 -11 -5 -7 5 -8 30 -3 28 5 37 4 33 -6 -5 -15 -59 -21 -113
-11 l-40 7 30 17 c25 13 27 16 10 17 -14 1 -11 5 12 13 18 7 41 19 51 28 10 8
23 14 30 11 7 -2 12 1 12 6 0 6 10 14 23 18 12 4 28 15 35 26 7 10 18 16 23
13 5 -3 6 0 3 8 -3 9 -13 13 -26 9 -13 -3 -19 -1 -15 5 10 16 200 15 194 0z
m168 4 l40 -8 -30 -7 c-16 -4 -36 -9 -42 -12 -7 -2 -13 1 -13 7 0 5 -11 7 -25
3 -14 -3 -33 -3 -42 1 -16 7 -15 9 7 15 33 10 56 11 105 1z m639 0 c3 -5 -6
-11 -19 -14 -27 -5 -44 8 -23 16 21 8 36 8 42 -2z m116 4 c0 -3 -11 -10 -24
-15 -27 -10 -69 -2 -60 11 5 9 84 13 84 4z m39 -26 c-30 -29 -32 -30 -48 -13
-13 14 -13 16 -1 12 16 -6 43 16 33 26 -4 3 6 6 21 6 l27 0 -32 -31z m184 14
c-3 -7 -11 -13 -18 -13 -7 0 -15 6 -18 13 -3 7 4 12 18 12 14 0 21 -5 18 -12z
m122 7 c-3 -5 -11 -10 -16 -10 -6 0 -7 5 -4 10 3 6 11 10 16 10 6 0 7 -4 4
-10z m192 -2 c2 6 21 12 42 12 32 0 37 -3 36 -22 0 -29 -12 -48 -31 -48 -8 0
-14 6 -14 13 0 6 -4 19 -10 27 -7 12 -12 12 -29 -5 -25 -22 -36 -15 -26 16 6
17 9 19 17 8 7 -11 11 -11 15 -1z m159 -19 c-26 -20 -46 -25 -46 -10 0 5 11
12 25 15 14 4 25 11 25 17 0 6 5 7 10 4 6 -4 1 -15 -14 -26z m114 19 c0 -4
-14 -6 -30 -6 -40 1 -46 -6 -26 -37 18 -27 17 -28 -8 -19 -9 3 -16 14 -16 23
-1 14 -2 14 -13 1 -7 -8 -24 -21 -39 -27 -16 -7 -28 -17 -28 -23 0 -6 -5 -8
-11 -4 -8 4 -6 10 6 17 14 8 15 11 4 18 -10 6 -8 9 8 9 13 0 37 13 55 30 24
21 42 29 65 27 18 -1 33 -5 33 -9z m40 8 c0 -3 -4 -8 -10 -11 -5 -3 -10 -1
-10 4 0 6 5 11 10 11 6 0 10 -2 10 -4z m110 -11 c-7 -8 -18 -15 -25 -15 -8 0
-11 -8 -8 -19 3 -11 0 -28 -6 -38 -10 -15 -10 -14 -5 10 5 21 3 27 -11 27 -9
0 -13 -4 -10 -10 3 -5 -1 -10 -10 -10 -8 0 -18 -7 -21 -15 -4 -8 -11 -12 -16
-9 -7 4 -6 9 1 14 17 10 2 42 -18 38 -9 -2 -16 -13 -15 -25 0 -12 -3 -20 -8
-17 -4 3 -8 12 -8 20 0 8 -9 14 -22 14 -33 0 -16 9 34 19 42 7 47 6 56 -13 8
-16 11 -17 11 -5 1 16 53 48 80 49 11 0 11 -3 1 -15z m160 5 c0 -12 -28 -25
-36 -17 -9 9 6 27 22 27 8 0 14 -5 14 -10z m75 1 c6 -10 -11 -24 -32 -27 -6
-1 -24 -14 -40 -28 -22 -21 -24 -26 -10 -26 9 0 17 5 17 10 0 6 9 10 19 10 14
0 18 -7 17 -24 -1 -22 -5 -24 -31 -19 -16 3 -34 10 -39 14 -17 15 -29 10 -16
-6 15 -18 4 -20 -14 -2 -10 10 -10 15 -1 24 7 7 16 9 19 6 4 -4 24 12 47 35
40 43 53 49 64 33z m103 4 c-3 -3 -15 -7 -27 -10 -11 -2 -26 -7 -31 -10 -13
-8 -32 4 -25 16 4 5 25 9 47 9 23 0 39 -2 36 -5z m79 -14 c1 -13 -7 -21 -24
-26 -29 -7 -44 1 -20 11 9 3 13 12 10 20 -3 9 2 14 14 14 11 0 19 -8 20 -19z
m78 9 c-3 -5 1 -10 9 -10 9 0 16 -7 16 -16 0 -9 6 -14 13 -11 10 4 10 -3 -2
-27 -14 -28 -18 -31 -28 -17 -9 13 -9 17 3 19 9 2 13 10 10 19 -3 8 -6 16 -6
18 0 13 -43 -12 -61 -36 -12 -16 -26 -26 -31 -23 -13 8 -1 -45 17 -72 20 -30
19 -34 -6 -34 -11 0 -18 4 -15 9 4 5 -13 7 -36 5 -35 -4 -39 -3 -20 5 31 14
28 22 -8 19 -20 -2 -29 -7 -26 -15 3 -7 1 -13 -4 -13 -6 0 -13 0 -17 0 -4 0
-8 6 -9 15 -1 8 3 15 10 15 7 0 25 11 40 25 15 14 31 25 37 25 13 0 11 -27 -3
-34 -7 -3 -4 -5 7 -3 15 2 19 9 17 29 -2 20 7 38 40 72 39 41 68 61 53 36z
m193 -4 c3 -3 -2 -6 -10 -6 -9 0 -21 -7 -28 -15 -17 -20 -63 -42 -78 -37 -7 2
-12 10 -12 18 0 8 -6 17 -14 20 -8 3 -12 12 -9 20 4 12 20 14 75 10 38 -2 72
-7 76 -10z m62 4 c0 -5 -11 -10 -25 -10 -14 0 -25 5 -25 10 0 6 11 10 25 10
14 0 25 -4 25 -10z m100 5 c0 -2 -9 -9 -20 -15 -16 -9 -18 -8 -14 5 5 13 34
22 34 10z m120 -16 c0 -5 -9 -9 -20 -9 -22 0 -27 16 -7 23 15 5 27 -1 27 -14z
m171 4 c7 -7 9 -16 6 -20 -4 -3 -9 2 -13 11 -9 23 -27 20 -21 -4 4 -16 2 -18
-12 -10 -21 11 -65 -15 -55 -32 4 -6 -1 -8 -15 -3 -15 4 -27 -1 -45 -19 -13
-14 -30 -26 -39 -26 -8 0 -17 -3 -19 -8 -1 -4 -22 -22 -45 -40 -35 -27 -45
-31 -67 -22 -30 11 -34 20 -8 18 32 -2 52 2 52 12 0 5 -7 7 -15 4 -8 -4 -15
-2 -15 4 0 5 8 9 18 9 26 -1 72 24 65 36 -4 6 -1 7 7 2 7 -5 20 1 34 16 11 13
28 25 36 27 8 2 19 10 23 18 5 8 12 12 18 9 5 -4 9 1 9 9 0 16 -22 13 -47 -7
-9 -7 -13 -5 -13 6 0 19 20 25 92 25 37 -1 62 -6 69 -15z m77 1 c-7 -6 -24
-15 -38 -18 l-25 -7 22 19 c24 21 63 28 41 6z m168 5 c-10 -6 -36 -11 -57 -11
-31 1 -39 -3 -39 -17 0 -13 -8 -18 -30 -18 -24 0 -27 3 -19 14 6 7 17 13 24
13 7 0 15 7 19 15 4 11 21 15 63 15 47 -1 54 -3 39 -11z m144 -9 c0 -10 -38
-1 -45 10 -2 4 7 5 20 2 14 -2 25 -8 25 -12z m154 5 c-7 -17 -20 -20 -28 -6
-4 5 0 12 6 14 23 9 28 7 22 -8z m326 7 c0 -26 -91 -35 -106 -11 -3 5 1 7 8 4
7 -2 29 0 48 4 48 12 50 12 50 3z m92 -12 c-12 -11 -27 -20 -34 -20 -9 0 -9 3
2 10 13 8 12 10 -2 10 -10 0 -18 5 -18 10 0 6 17 10 37 10 l37 0 -22 -20z
m108 0 c0 -11 -4 -20 -10 -20 -5 0 -10 5 -10 11 0 6 -10 10 -22 9 -37 -3 -45
1 -18 10 44 14 60 11 60 -10z m106 -10 c-1 -27 -2 -28 -13 -13 -7 9 -13 13
-13 8 0 -4 -3 -6 -6 -2 -6 6 16 36 27 37 3 0 6 -14 5 -30z m64 10 c-36 -28
-65 -25 -53 6 3 9 19 14 42 14 l36 0 -25 -20z m100 10 c0 -3 -22 -15 -48 -28
-42 -21 -44 -21 -22 -3 14 11 19 21 13 21 -7 0 -13 3 -13 8 0 4 16 7 35 7 19
0 35 -2 35 -5z m44 -16 c-8 -12 -12 -28 -9 -36 4 -11 -2 -17 -22 -21 -34 -6
-46 1 -15 10 12 3 22 9 22 14 0 14 -38 11 -43 -3 -4 -10 -6 -10 -6 0 -1 7 16
20 37 29 33 14 35 17 17 24 -17 7 -16 7 6 6 25 -1 26 -3 13 -23z m249 10 c-3
-8 -12 -13 -20 -10 -8 3 -19 6 -24 6 -5 0 -9 5 -9 10 0 6 13 10 30 10 22 0 28
-4 23 -16z m117 6 c3 -1 -4 -5 -16 -10 -22 -8 -74 -2 -74 9 0 6 73 7 90 1z
m65 0 c-3 -5 -11 -10 -16 -10 -6 0 -7 5 -4 10 3 6 11 10 16 10 6 0 7 -4 4 -10z
m65 6 c0 -3 -4 -8 -10 -11 -5 -3 -10 -1 -10 4 0 6 5 11 10 11 6 0 10 -2 10 -4z
m75 -15 c-8 -14 -55 -14 -55 0 0 7 10 9 25 5 16 -4 25 -2 25 5 0 7 3 10 6 6 3
-3 3 -10 -1 -16z m663 -1 c-14 -21 -28 -27 -28 -10 0 6 -9 10 -20 10 -11 0
-20 -4 -20 -9 0 -5 -7 -12 -16 -15 -12 -5 -15 -2 -10 10 5 13 1 15 -19 12 -14
-3 -25 -2 -25 3 0 7 13 9 113 17 36 3 37 2 25 -18z m62 16 c0 -3 -4 -8 -10
-11 -5 -3 -10 -1 -10 4 0 6 5 11 10 11 6 0 10 -2 10 -4z m60 -6 c0 -5 -5 -10
-11 -10 -5 0 -7 5 -4 10 3 6 8 10 11 10 2 0 4 -4 4 -10z m199 -6 c-15 -18 1
-17 25 1 22 17 56 20 56 5 0 -16 -39 -31 -83 -33 -31 -2 -41 2 -39 12 2 10 -4
12 -22 7 -15 -4 -26 -1 -29 8 -4 10 8 13 49 14 46 0 53 -2 43 -14z m171 6 c0
-10 -14 -14 -38 -11 -7 1 -11 -4 -10 -11 2 -7 -5 -12 -14 -12 -10 1 -18 -2
-18 -7 0 -4 8 -13 18 -18 15 -9 15 -10 -4 -11 -31 0 -36 11 -19 37 9 13 14 27
11 31 -2 4 14 8 35 9 21 2 39 -2 39 -7z m170 0 c-36 -11 -50 -11 -50 0 0 6 17
10 38 9 33 -1 34 -2 12 -9z m183 3 c-7 -2 -21 -2 -30 0 -10 3 -4 5 12 5 17 0
24 -2 18 -5z m114 1 c-3 -3 -12 -4 -19 -1 -8 3 -5 6 6 6 11 1 17 -2 13 -5z
m178 -4 c-3 -5 -17 -10 -31 -10 -13 0 -24 5 -24 10 0 6 14 10 31 10 17 0 28
-4 24 -10z m35 6 c0 -3 -4 -8 -10 -11 -5 -3 -10 -1 -10 4 0 6 5 11 10 11 6 0
10 -2 10 -4z m138 -1 c-11 -11 -106 -16 -113 -6 -4 7 15 11 56 11 34 0 60 -2
57 -5z m547 -4 c-17 -15 -95 -18 -95 -4 0 9 16 13 52 13 31 0 48 -4 43 -9z
m114 5 c-11 -9 -69 -14 -69 -6 0 6 17 10 37 10 20 0 34 -2 32 -4z m96 -7 c-8
-11 -42 -12 -49 -1 -3 5 8 9 25 10 16 0 27 -4 24 -9z m54 -6 c-20 -25 -32 -33
-42 -26 -5 3 -13 -1 -18 -8 -4 -7 -12 -10 -16 -5 -4 5 -2 11 6 14 7 2 21 13
29 23 9 11 25 19 35 19 17 0 18 -2 6 -17z m-10575 -7 c-21 -15 -30 -14 -19 3
3 6 14 11 23 11 13 0 13 -2 -4 -14z m306 4 c0 -5 -2 -10 -4 -10 -3 0 -8 5 -11
10 -3 6 -1 10 4 10 6 0 11 -4 11 -10z m776 -9 c0 -11 -4 -17 -8 -15 -4 3 -8
12 -8 20 0 8 4 14 8 14 4 0 8 -9 8 -19z m174 15 c0 -11 -19 -15 -25 -6 -3 5 1
10 9 10 9 0 16 -2 16 -4z m1015 -6 c3 -5 1 -10 -4 -10 -6 0 -11 5 -11 10 0 6
2 10 4 10 3 0 8 -4 11 -10z m215 -15 c12 -22 12 -28 -3 -43 -19 -18 -46 -9
-55 18 -3 7 0 10 6 6 6 -3 13 0 16 6 3 7 4 4 3 -6 -1 -10 4 -21 11 -23 7 -3
12 5 12 22 0 21 -4 26 -22 25 -36 -3 -48 -1 -48 10 0 6 15 10 33 10 26 0 37
-6 47 -25z m358 0 c-3 -3 -9 2 -12 12 -6 14 -5 15 5 6 7 -7 10 -15 7 -18z
m992 15 c0 -5 -2 -10 -4 -10 -3 0 -8 5 -11 10 -3 6 -1 10 4 10 6 0 11 -4 11
-10z m280 -20 c-14 -11 -32 -19 -40 -19 -13 1 -13 1 0 6 8 3 19 12 23 20 5 7
12 11 18 8 5 -4 9 -1 9 6 0 7 3 9 7 5 4 -4 -3 -16 -17 -26z m4064 24 c23 -9
20 -21 -4 -19 -26 2 -52 25 -28 25 9 0 23 -3 32 -6z m96 -4 c0 -5 7 -6 17 -3
11 4 14 3 9 -5 -10 -17 -33 -15 -40 3 -3 8 -1 15 4 15 6 0 10 -4 10 -10z m367
4 c-3 -3 -12 -4 -19 -1 -8 3 -5 6 6 6 11 1 17 -2 13 -5z m-7605 -38 c-9 -5
-26 -18 -36 -28 -13 -11 -23 -15 -29 -9 -17 17 1 41 30 42 15 0 22 3 16 6 -7
2 -13 8 -13 13 0 4 11 3 24 -3 22 -11 23 -13 8 -21z m1514 12 c-9 -5 -16 -15
-16 -22 0 -19 -27 -40 -34 -27 -4 5 -2 12 4 16 6 4 8 11 4 16 -12 20 4 37 31
31 23 -4 25 -6 11 -14z m43 -9 c-19 -12 -24 -2 -8 17 9 11 14 13 17 4 3 -7 -2
-16 -9 -21z m2141 21 c-8 -5 -22 -9 -30 -9 -10 0 -8 3 5 9 27 12 43 12 25 0z
m880 2 c0 -5 -12 -14 -27 -21 l-28 -11 24 20 c26 22 31 24 31 12z m2241 -9
c12 -14 12 -16 -2 -11 -8 3 -26 0 -40 -8 -29 -16 -39 -17 -39 -4 0 6 5 10 11
10 6 0 17 7 25 15 20 19 28 19 45 -2z m249 7 c0 -5 -5 -10 -11 -10 -5 0 -7 5
-4 10 3 6 8 10 11 10 2 0 4 -4 4 -10z m-7722 -20 c7 -11 8 -20 3 -20 -6 0 -14
7 -19 16 -5 10 -15 14 -21 10 -9 -6 -9 -11 0 -22 17 -21 4 -28 -15 -8 -13 12
-14 19 -5 30 16 20 42 17 57 -6z m387 10 c3 -5 2 -10 -4 -10 -5 0 -13 5 -16
10 -3 6 -2 10 4 10 5 0 13 -4 16 -10z m2345 -1 c0 -7 10 -9 27 -4 22 5 25 4
14 -8 -13 -17 -51 -29 -51 -17 0 5 -3 15 -6 24 -3 9 -1 16 5 16 6 0 11 -5 11
-11z m565 1 c3 -5 -1 -10 -9 -10 -9 0 -16 5 -16 10 0 6 4 10 9 10 6 0 13 -4
16 -10z m219 -15 c-24 -19 -35 -19 -28 -1 5 14 34 26 43 19 3 -2 -4 -10 -15
-18z m296 17 c0 -5 -7 -9 -15 -9 -8 0 -12 4 -9 9 3 4 9 8 15 8 5 0 9 -4 9 -8z
m1920 -4 c0 -9 4 -8 11 2 9 13 10 13 6 0 -5 -21 -37 -26 -37 -6 0 9 5 16 10
16 6 0 10 -6 10 -12z m1785 -8 c-4 -11 -2 -20 4 -20 6 0 11 -5 11 -11 0 -21
-24 -2 -31 24 -6 20 -4 27 8 27 10 0 12 -6 8 -20z m775 15 c0 -9 -42 -47 -47
-42 -6 6 28 47 39 47 5 0 8 -2 8 -5z m-6910 -49 c0 -1 -13 -1 -30 2 -22 3 -30
10 -30 24 0 19 1 19 30 -2 17 -12 30 -23 30 -24z m445 34 c3 -5 1 -10 -4 -10
-6 0 -11 5 -11 10 0 6 2 10 4 10 3 0 8 -4 11 -10z m38 -10 c3 -11 1 -18 -4
-14 -5 3 -9 12 -9 20 0 20 7 17 13 -6z m3167 -1 c0 -6 -4 -7 -10 -4 -5 3 -10
11 -10 16 0 6 5 7 10 4 6 -3 10 -11 10 -16z m1530 13 c0 -5 -11 -14 -25 -20
-31 -14 -33 1 -2 16 28 14 27 13 27 4z m530 -2 c3 -1 -4 -5 -15 -9 -22 -9 -38
-4 -30 9 4 7 22 7 45 0z m248 -28 c-23 -8 -48 -20 -55 -28 -8 -8 -19 -11 -25
-8 -13 8 -2 18 57 48 35 17 52 21 57 13 4 -7 -8 -16 -34 -25z m612 16 c0 -19
-2 -20 -10 -8 -13 19 -13 30 0 30 6 0 10 -10 10 -22z m390 13 c0 -6 -4 -13
-10 -16 -5 -3 -10 1 -10 9 0 9 5 16 10 16 6 0 10 -4 10 -9z m-8116 -16 c-4 -8
-10 -15 -15 -15 -5 0 -9 7 -9 15 0 8 7 15 15 15 9 0 12 -6 9 -15z m336 5 c0
-5 -7 -10 -15 -10 -8 0 -15 5 -15 10 0 6 7 10 15 10 8 0 15 -4 15 -10z m240 0
c0 -5 -4 -10 -10 -10 -5 0 -10 5 -10 10 0 6 5 10 10 10 6 0 10 -4 10 -10z
m387 -26 c-2 -2 -12 -2 -21 2 -15 6 -15 7 1 20 15 11 19 10 21 -2 2 -9 2 -18
-1 -20z m47 21 c3 -8 1 -15 -4 -15 -6 0 -10 7 -10 15 0 8 2 15 4 15 2 0 6 -7
10 -15z m196 -1 c0 -8 -5 -12 -10 -9 -6 4 -8 11 -5 16 9 14 15 11 15 -7z m363
-3 c-3 -12 -11 -17 -19 -14 -21 8 -17 33 5 33 14 0 18 -5 14 -19z m184 -12 c2
-12 -1 -18 -7 -14 -5 3 -10 16 -10 27 0 26 13 16 17 -13z m43 16 c0 -8 -4 -15
-9 -15 -13 0 -22 16 -14 24 11 11 23 6 23 -9z m420 0 c0 -8 -9 -15 -19 -15
-11 0 -26 -3 -35 -6 -9 -3 -16 -2 -16 3 0 5 12 14 28 20 38 15 42 15 42 -2z
m56 -25 c-4 -57 -16 -63 -14 -7 1 26 6 47 9 47 4 0 6 -18 5 -40z m29 30 c3 -5
1 -10 -4 -10 -6 0 -11 5 -11 10 0 6 2 10 4 10 3 0 8 -4 11 -10z m65 0 c0 -5
-2 -10 -4 -10 -3 0 -8 5 -11 10 -3 6 -1 10 4 10 6 0 11 -4 11 -10z m990 -10
c0 -11 -4 -20 -9 -20 -6 0 -9 9 -8 20 1 11 5 20 9 20 4 0 8 -9 8 -20z m1868 8
c-4 -11 -48 -23 -48 -13 0 3 10 10 23 15 29 12 29 12 25 -2z m2112 2 c0 -5 -4
-10 -10 -10 -5 0 -10 5 -10 10 0 6 5 10 10 10 6 0 10 -4 10 -10z m1003 -3 c3
-7 -3 -13 -14 -13 -13 0 -15 3 -7 13 6 7 12 13 13 13 2 0 5 -6 8 -13z m-8963
-1 c0 -3 -4 -8 -10 -11 -5 -3 -10 -1 -10 4 0 6 5 11 10 11 6 0 10 -2 10 -4z
m140 0 c0 -3 -4 -8 -10 -11 -5 -3 -10 -1 -10 4 0 6 5 11 10 11 6 0 10 -2 10
-4z m30 -17 c0 -6 -4 -7 -10 -4 -5 3 -10 11 -10 16 0 6 5 7 10 4 6 -3 10 -11
10 -16z m1730 0 c0 -5 -4 -9 -10 -9 -5 0 -10 7 -10 16 0 8 5 12 10 9 6 -3 10
-10 10 -16z m1198 -5 c7 4 12 5 12 2 0 -3 -10 -10 -21 -17 -13 -7 -19 -7 -15
-1 3 6 2 13 -4 17 -5 3 -10 11 -10 18 0 6 6 3 13 -8 8 -10 19 -15 25 -11z
m642 10 c0 -10 6 -14 15 -10 8 3 15 1 15 -3 0 -10 -24 -21 -46 -21 -8 0 -14 5
-14 11 0 5 5 7 11 3 8 -4 9 0 4 15 -4 12 -2 21 4 21 6 0 11 -7 11 -16z m110
-3 c0 -11 -5 -23 -11 -27 -11 -7 -29 13 -28 31 0 6 3 4 6 -2 2 -7 9 -13 14
-13 4 0 6 7 3 15 -4 8 -1 15 5 15 6 0 11 -9 11 -19z m420 -11 c0 -22 -4 -28
-15 -24 -8 4 -22 1 -30 -6 -11 -10 -14 -7 -12 16 1 15 9 30 16 32 10 3 12 0 8
-12 -4 -9 -2 -16 4 -16 6 0 13 9 16 20 8 29 13 25 13 -10z m520 10 c-10 -19
-30 -28 -30 -14 0 6 30 33 38 34 1 0 -2 -9 -8 -20z m2107 -2 c-3 -8 -6 -5 -6
6 -1 11 2 17 5 13 3 -3 4 -12 1 -19z m123 -11 c0 -4 -6 -2 -14 5 -8 7 -12 17
-9 22 5 8 23 -12 23 -27z m580 29 c0 -3 -4 -8 -10 -11 -5 -3 -10 -1 -10 4 0 6
5 11 10 11 6 0 10 -2 10 -4z m-6880 -10 c0 -2 -7 -7 -16 -10 -8 -3 -12 -2 -9
4 6 10 25 14 25 6z m200 -12 c0 -8 -5 -12 -10 -9 -6 4 -8 11 -5 16 9 14 15 11
15 -7z m440 12 c0 -3 -4 -8 -10 -11 -5 -3 -10 -1 -10 4 0 6 5 11 10 11 6 0 10
-2 10 -4z m3650 -3 c-1 -19 -18 -33 -33 -27 -9 3 -14 10 -11 15 3 5 10 7 15 4
5 -4 9 -1 9 4 0 6 5 11 10 11 6 0 10 -3 10 -7z m904 -15 c-16 -13 -31 -23 -35
-23 -18 0 -79 -42 -80 -55 0 -11 -2 -11 -6 -2 -4 11 -8 10 -22 -2 -9 -8 -29
-17 -46 -21 -23 -5 -15 2 32 32 35 22 60 43 56 46 -3 4 1 7 10 7 10 0 34 9 54
20 51 27 73 25 37 -2z m2220 6 c4 -10 1 -14 -6 -12 -15 5 -23 28 -10 28 5 0
13 -7 16 -16z m2316 1 c0 -8 -4 -15 -8 -15 -5 0 -9 7 -9 15 0 8 4 15 9 15 4 0
8 -7 8 -15z m-10020 -5 c0 -5 -2 -10 -4 -10 -3 0 -8 5 -11 10 -3 6 -1 10 4 10
6 0 11 -4 11 -10z m388 -16 c0 -24 -2 -25 -17 -10 -14 15 -14 18 -1 26 8 5 16
10 16 10 1 0 2 -12 2 -26z m1175 -5 c-9 -9 -12 -7 -10 9 1 14 5 18 11 12 7 -7
6 -14 -1 -21z m162 21 c3 -5 1 -10 -4 -10 -6 0 -11 5 -11 10 0 6 2 10 4 10 3
0 8 -4 11 -10z m1761 1 c-4 -5 -1 -12 4 -14 6 -3 5 -4 -2 -3 -15 3 -23 26 -8
26 6 0 9 -4 6 -9z m445 -21 c15 0 10 -14 -9 -26 -13 -9 -21 -8 -32 4 -12 14
-11 15 8 10 18 -5 21 -2 18 15 -2 12 -1 16 1 10 3 -7 9 -13 14 -13z m1666 24
c-3 -3 -12 -4 -19 -1 -8 3 -5 6 6 6 11 1 17 -2 13 -5z m1093 2 c0 -3 -4 -8
-10 -11 -5 -3 -10 -1 -10 4 0 6 5 11 10 11 6 0 10 -2 10 -4z m270 -11 c10 -13
9 -15 -8 -15 -15 0 -20 5 -16 15 4 8 7 15 9 15 1 0 8 -7 15 -15z m1225 -3 c-3
-3 -11 0 -18 7 -9 10 -8 11 6 5 10 -3 15 -9 12 -12z m145 14 c0 -3 -4 -8 -10
-11 -5 -3 -10 -1 -10 4 0 6 5 11 10 11 6 0 10 -2 10 -4z m660 -16 c-7 -4 -9
-13 -6 -19 4 -6 3 -11 -2 -11 -14 0 -22 38 -8 43 17 6 30 -4 16 -13z m470 10
c0 -5 -2 -10 -4 -10 -3 0 -8 5 -11 10 -3 6 -1 10 4 10 6 0 11 -4 11 -10z
m-9595 -9 c3 -5 1 -12 -4 -15 -5 -3 -11 1 -15 9 -6 16 9 21 19 6z m95 -7 c0
-12 -12 -13 -48 -5 -2 1 -1 5 2 9 8 14 46 11 46 -4z m493 -1 c-3 -7 -9 -13
-14 -13 -5 0 -9 6 -9 13 0 8 6 14 14 14 8 0 12 -6 9 -14z m599 -15 c-9 -9 -12
-7 -12 12 0 19 3 21 12 12 9 -9 9 -15 0 -24z m52 -8 c6 -41 7 -41 43 -34 28 5
34 4 28 -6 -5 -8 -3 -11 6 -8 8 3 13 13 11 23 -3 15 0 15 27 -4 17 -13 43 -21
58 -20 44 3 87 0 80 -7 -11 -11 -197 -12 -197 -1 0 7 -5 6 -12 -1 -19 -19 -32
-14 -48 21 -8 17 -15 34 -15 37 0 3 -3 10 -7 16 -8 11 -1 24 12 24 4 0 10 -18
14 -40z m1208 27 c-12 -14 -5 -57 9 -57 5 0 9 5 9 10 0 6 8 2 19 -7 23 -23 17
-29 -37 -37 -33 -5 -43 -3 -39 6 2 7 10 12 16 11 12 -3 13 2 5 35 -4 12 -12
22 -20 22 -9 0 -11 -6 -7 -17 5 -15 4 -16 -8 -7 -8 6 -20 13 -28 16 -8 2 8 11
35 20 61 21 59 21 46 5z m215 -9 c-3 -8 -6 -5 -6 6 -1 11 2 17 5 13 3 -3 4
-12 1 -19z m70 5 c0 -7 -4 -13 -8 -13 -4 0 -9 6 -12 13 -3 8 0 14 7 14 7 0 13
-6 13 -14z m3028 7 c-3 -5 -14 -10 -23 -9 -14 0 -13 2 3 9 27 11 27 11 20 0z
m95 -18 c0 -15 -2 -15 -10 -2 -5 8 -10 10 -10 4 0 -7 -9 -14 -20 -17 -14 -3
-20 -14 -20 -31 0 -14 -5 -26 -11 -26 -6 0 -9 9 -6 19 3 14 1 18 -9 14 -8 -3
-14 -11 -14 -19 0 -8 -10 -14 -24 -14 -13 0 -31 -3 -40 -6 -11 -4 -16 0 -16
12 0 9 3 15 6 11 7 -7 139 58 149 73 9 14 25 3 25 -18z m3117 16 c9 23 22 12
20 -17 l-2 -30 -22 21 c-13 12 -23 26 -23 32 0 6 5 4 11 -4 8 -11 12 -12 16
-2z m90 -19 c2 -20 -2 -28 -17 -32 -24 -6 -26 1 -4 18 15 10 15 13 -2 29 -17
17 -17 18 1 15 11 -3 20 -14 22 -30z m-8297 17 c0 -2 -7 -6 -15 -10 -8 -3 -15
-1 -15 4 0 6 7 10 15 10 8 0 15 -2 15 -4z m395 -6 c3 -5 1 -10 -4 -10 -6 0
-11 5 -11 10 0 6 2 10 4 10 3 0 8 -4 11 -10z m225 -10 c0 -4 -9 -6 -21 -3 -15
4 -17 8 -8 14 14 8 29 3 29 -11z m70 11 c0 -5 -9 -11 -21 -14 -16 -4 -18 -3
-8 9 13 16 29 19 29 5z m87 -13 c-3 -8 -6 -5 -6 6 -1 11 2 17 5 13 3 -3 4 -12
1 -19z m479 -13 c-9 -9 -17 -14 -17 -11 -5 22 -3 32 6 38 18 13 28 -10 11 -27z
m114 9 c0 -8 -4 -14 -10 -14 -5 0 -10 9 -10 21 0 11 5 17 10 14 6 -3 10 -13
10 -21z m417 2 c-27 -22 -62 -32 -51 -14 3 5 1 14 -5 21 -8 10 1 13 37 14 l47
2 -28 -23z m363 13 c0 -4 -11 -9 -25 -11 -16 -3 -25 -1 -25 7 0 7 11 12 25 11
14 0 25 -4 25 -7z m590 -11 c0 -18 -2 -20 -9 -8 -6 8 -7 18 -5 22 9 14 14 9
14 -14z m780 1 c0 -5 -4 -9 -10 -9 -5 0 -10 7 -10 16 0 8 5 12 10 9 6 -3 10
-10 10 -16z m1990 17 c0 -3 -4 -8 -10 -11 -5 -3 -10 -1 -10 4 0 6 5 11 10 11
6 0 10 -2 10 -4z m2580 -43 c0 -13 -20 -19 -20 -5 0 4 -3 18 -6 32 -5 24 -5
24 10 6 9 -11 16 -26 16 -33z m877 41 c-3 -3 -12 -4 -19 -1 -8 3 -5 6 6 6 11
1 17 -2 13 -5z m-9256 -17 c-1 -4 -1 -14 -1 -23 0 -12 -6 -15 -25 -10 -28 7
-33 -5 -10 -24 11 -9 19 -8 37 4 29 21 47 21 26 0 -19 -19 -84 -25 -80 -6 1 6
-5 12 -14 12 -8 0 -12 -4 -9 -10 4 -6 -11 -10 -37 -10 -38 1 -41 2 -23 13 12
7 19 20 17 30 -2 12 3 17 18 17 19 0 20 -2 10 -15 -10 -12 -10 -15 0 -15 17 0
70 33 70 43 0 5 5 7 11 5 6 -2 10 -7 10 -11z m163 -26 c-6 -6 -24 19 -24 34 1
6 7 1 15 -9 8 -11 12 -22 9 -25z m1336 18 c0 -5 -4 -9 -10 -9 -5 0 -10 7 -10
16 0 8 5 12 10 9 6 -3 10 -10 10 -16z m2230 9 c0 -4 -10 -8 -22 -8 -17 0 -19
-3 -10 -9 10 -6 8 -10 -8 -14 -14 -3 -19 -10 -15 -17 12 -19 -15 -29 -59 -24
-48 6 -54 10 -37 27 7 7 14 8 19 2 13 -18 35 -17 28 1 -5 12 -2 15 9 10 9 -3
18 1 21 9 4 8 10 12 15 9 5 -3 9 2 9 10 0 11 8 15 25 14 14 -1 25 -6 25 -10z
m170 5 c0 -5 10 -19 21 -33 19 -24 20 -24 17 -3 -2 12 0 22 5 23 4 0 11 0 16
0 4 0 6 -11 3 -25 -2 -15 0 -25 7 -25 6 0 11 -3 11 -7 0 -5 -25 -8 -55 -9 -30
0 -55 4 -55 10 0 6 -5 5 -12 -2 -23 -23 -65 -14 -88 18 -18 25 -19 30 -6 30 9
0 16 -9 16 -20 0 -24 25 -27 34 -4 5 13 9 14 21 4 11 -9 15 -9 15 -1 0 8 6 8
20 -1 26 -16 36 -4 22 27 -7 15 -8 25 -2 25 6 0 10 -3 10 -7z m364 -9 c3 -8 2
-12 -4 -9 -6 3 -10 10 -10 16 0 14 7 11 14 -7z m1226 6 c0 -5 -4 -10 -10 -10
-5 0 -10 5 -10 10 0 6 5 10 10 10 6 0 10 -4 10 -10z m569 -23 c0 -21 -1 -21
-9 -2 -12 28 -12 37 0 30 6 -3 10 -16 9 -28z m50 12 c-8 -5 -21 -9 -29 -9 -12
1 -11 4 4 15 10 8 23 12 29 8 5 -3 3 -9 -4 -14z m41 17 c0 -3 -4 -8 -10 -11
-5 -3 -10 -1 -10 4 0 6 5 11 10 11 6 0 10 -2 10 -4z m161 -8 c0 -10 2 -10 6 0
2 6 9 12 14 12 4 0 6 -7 2 -15 -3 -9 -13 -15 -22 -13 -9 1 -27 -4 -41 -12 -14
-8 -29 -14 -33 -15 -4 0 -11 -6 -16 -13 -9 -15 -77 -21 -141 -12 -37 6 -40 7
-13 8 19 1 36 9 43 20 10 16 10 16 20 0 13 -21 60 -24 78 -6 7 7 12 20 12 30
0 10 7 18 16 18 8 0 12 -4 9 -10 -10 -16 21 -12 35 5 15 18 30 19 31 3z m259
5 c0 -10 -20 -40 -20 -31 0 3 -3 13 -6 22 -4 11 -1 16 10 16 9 0 16 -3 16 -7z
m540 3 c0 -2 -9 -6 -20 -9 -11 -3 -20 -1 -20 4 0 5 9 9 20 9 11 0 20 -2 20 -4z
m1325 -6 c3 -5 1 -10 -4 -10 -6 0 -11 5 -11 10 0 6 2 10 4 10 3 0 8 -4 11 -10z
m-8958 -6 c-3 -3 -12 -4 -19 -1 -8 3 -5 6 6 6 11 1 17 -2 13 -5z m1220 -39
c10 0 21 5 25 10 4 6 8 0 8 -12 0 -17 -6 -23 -22 -24 -13 0 -48 -2 -78 -4 -37
-2 -48 0 -34 5 12 5 25 13 28 19 4 6 14 7 22 4 14 -5 15 -3 5 15 -17 33 -13
40 9 12 10 -14 27 -25 37 -25z m1591 20 c-3 -3 -9 2 -12 12 -6 14 -5 15 5 6 7
-7 10 -15 7 -18z m622 15 c0 -9 -14 -14 -32 -11 -5 0 -8 -4 -8 -10 0 -16 -28
-41 -34 -30 -7 10 22 45 44 54 23 9 30 8 30 -3z m210 -11 c0 -6 -4 -7 -10 -4
-5 3 -10 11 -10 16 0 6 5 7 10 4 6 -3 10 -11 10 -16z m913 -5 c1 -4 -5 -8 -13
-10 -8 -1 -24 -6 -35 -10 -14 -6 -12 0 10 20 26 25 32 25 38 0z m207 16 c0 -5
-5 -10 -11 -10 -5 0 -7 5 -4 10 3 6 8 10 11 10 2 0 4 -4 4 -10z m240 6 c0 -3
-4 -8 -10 -11 -5 -3 -10 -1 -10 4 0 6 5 11 10 11 6 0 10 -2 10 -4z m100 0 c0
-2 -7 -6 -15 -10 -8 -3 -15 -1 -15 4 0 6 7 10 15 10 8 0 15 -2 15 -4z m79 -27
c14 -40 14 -36 -6 -41 -15 -4 -18 2 -18 34 0 46 9 49 24 7z m1371 21 c0 -5 -5
-10 -11 -10 -5 0 -7 5 -4 10 3 6 8 10 11 10 2 0 4 -4 4 -10z m840 0 c0 -5 -2
-10 -4 -10 -3 0 -8 5 -11 10 -3 6 -1 10 4 10 6 0 11 -4 11 -10z m540 -9 c-14
-26 -28 -34 -48 -26 -13 5 -11 9 13 25 38 25 48 25 35 1z m676 0 c-8 -12 -66
-11 -66 1 0 5 13 7 30 3 21 -5 30 -3 30 6 0 7 3 10 6 6 3 -3 3 -10 0 -16z
m1044 -2 c0 -6 -4 -7 -10 -4 -5 3 -10 11 -10 16 0 6 5 7 10 4 6 -3 10 -11 10
-16z m-9310 1 c-8 -5 -19 -10 -25 -10 -5 0 -3 5 5 10 8 5 20 10 25 10 6 0 3
-5 -5 -10z m435 -20 c19 -36 19 -40 1 -40 -8 0 -15 14 -18 35 -2 19 -3 35 -1
35 1 0 9 -13 18 -30z m115 15 c0 -12 -19 -12 -23 0 -4 9 -1 12 9 8 7 -3 14 -7
14 -8z m65 5 c3 -5 2 -10 -4 -10 -5 0 -13 5 -16 10 -3 6 -2 10 4 10 5 0 13 -4
16 -10z m75 1 c0 -5 -9 -11 -20 -14 -11 -3 -20 -1 -20 3 0 5 8 11 18 13 9 3
18 5 20 6 1 0 2 -3 2 -8z m935 -1 c3 -5 1 -10 -4 -10 -6 0 -11 5 -11 10 0 6 2
10 4 10 3 0 8 -4 11 -10z m750 0 c-3 -5 -11 -10 -16 -10 -6 0 -7 5 -4 10 3 6
11 10 16 10 6 0 7 -4 4 -10z m43 -22 c-13 -14 -33 -28 -46 -32 -21 -7 -22 -6
-11 13 10 15 16 17 27 9 9 -8 12 -8 10 0 -2 6 6 17 17 25 28 22 30 13 3 -15z
m3472 11 c0 -5 -4 -9 -10 -9 -5 0 -10 7 -10 16 0 8 5 12 10 9 6 -3 10 -10 10
-16z m40 6 c-10 -12 -10 -19 -2 -27 9 -9 12 -9 12 0 0 7 4 11 9 10 5 -2 16 6
25 17 12 17 17 18 28 7 11 -11 10 -16 -5 -27 -18 -13 -18 -13 0 -17 10 -2 -6
-7 -36 -12 -34 -4 -58 -3 -64 3 -8 8 -7 11 2 11 9 0 12 9 9 25 -4 20 -1 25 15
25 16 0 17 -2 7 -15z m115 5 c3 -5 1 -10 -4 -10 -6 0 -11 5 -11 10 0 6 2 10 4
10 3 0 8 -4 11 -10z m975 1 c0 -12 -20 -25 -27 -18 -7 7 6 27 18 27 5 0 9 -4
9 -9z m1337 -10 c-1 -18 -16 -28 -57 -36 -8 -2 -5 4 8 12 12 9 22 22 22 29 0
8 6 14 14 14 8 0 14 -9 13 -19z m-8467 -10 c-10 -20 -47 -37 -57 -27 -4 3 -2
6 4 6 5 0 20 9 33 20 29 25 33 25 20 1z m155 9 c3 -5 -1 -10 -9 -10 -9 0 -16
5 -16 10 0 6 4 10 9 10 6 0 13 -4 16 -10z m1779 -6 c19 -19 21 -34 4 -35 -50
-4 -129 -4 -161 1 l-39 5 30 18 c28 16 32 16 46 1 9 -8 16 -11 16 -5 0 15 27
14 33 -1 3 -8 6 -6 6 5 1 21 17 22 25 1 3 -8 11 -12 16 -9 8 5 7 11 -1 21 -16
20 5 18 25 -2z m211 6 c3 -5 1 -10 -4 -10 -6 0 -11 5 -11 10 0 6 2 10 4 10 3
0 8 -4 11 -10z m583 -14 c-8 -16 -7 -18 6 -13 9 4 16 1 16 -6 0 -7 -19 -13
-50 -14 -28 -1 -50 1 -50 4 0 17 41 48 63 48 22 0 24 -3 15 -19z m951 -19 c1
-4 -5 -2 -13 5 -7 7 -11 19 -8 27 4 11 7 10 13 -5 4 -10 8 -23 8 -27z m154 30
c7 4 5 -2 -3 -13 -21 -26 -31 -33 -45 -27 -9 3 -6 12 9 28 11 13 23 20 24 14
2 -5 9 -6 15 -2z m658 -28 l-10 -24 0 26 c-1 14 2 29 6 33 12 12 14 -9 4 -35z
m1224 31 c3 -5 1 -10 -4 -10 -6 0 -11 5 -11 10 0 6 2 10 4 10 3 0 8 -4 11 -10z
m158 -8 c-10 -10 -31 -23 -48 -30 l-30 -13 24 19 c13 11 21 23 18 28 -3 5 8
10 24 11 28 2 28 1 12 -15z m409 -4 c-7 -7 -12 -8 -12 -2 0 14 12 26 19 19 2
-3 -1 -11 -7 -17z m163 13 c3 -5 2 -12 -3 -15 -5 -3 -9 1 -9 9 0 17 3 19 12 6z
m645 -33 c0 -4 -1 -8 -2 -8 -2 0 -27 -3 -55 -6 -39 -5 -53 -3 -53 6 0 8 8 10
21 7 15 -4 19 -2 15 9 -3 9 1 14 14 14 10 0 22 5 26 12 5 7 11 5 21 -7 7 -11
13 -22 13 -27z m1130 32 c0 -5 -4 -10 -10 -10 -5 0 -10 5 -10 10 0 6 5 10 10
10 6 0 10 -4 10 -10z m325 -8 c-3 -3 -11 0 -18 7 -9 10 -8 11 6 5 10 -3 15 -9
12 -12z m1335 8 c-8 -5 -19 -10 -25 -10 -5 0 -3 5 5 10 8 5 20 10 25 10 6 0 3
-5 -5 -10z m-10353 -20 c-1 -11 -5 -20 -9 -20 -11 0 -20 19 -13 30 11 17 24
11 22 -10z m244 0 c-24 -20 -71 -27 -71 -11 0 5 9 7 20 4 11 -3 20 -1 20 5 0
6 10 13 23 15 12 2 24 5 27 5 3 1 -6 -8 -19 -18z m619 -15 c-19 -7 -39 -10
-45 -7 -5 3 -2 8 5 10 8 3 19 11 23 19 6 10 13 11 30 1 21 -11 21 -12 -13 -23z
m450 9 c0 -8 -4 -14 -9 -14 -11 0 -22 26 -14 34 9 9 23 -3 23 -20z m450 16 c0
-5 -4 -10 -10 -10 -5 0 -10 5 -10 10 0 6 5 10 10 10 6 0 10 -4 10 -10z m3150
-12 c-1 -22 -1 -22 -14 -5 -14 18 -14 18 -19 0 -4 -14 -5 -14 -6 5 -1 16 5 22
19 22 14 0 20 -7 20 -22z m1226 -4 c-30 -21 -42 -17 -16 6 13 11 26 17 29 14
3 -3 -3 -12 -13 -20z m1044 16 c0 -5 -8 -10 -17 -10 -15 0 -16 2 -3 10 19 12
20 12 20 0z m626 0 c28 0 34 -30 7 -31 -10 0 -27 -2 -37 -4 -11 -2 -27 0 -35
5 -13 8 -12 9 7 10 21 0 30 14 15 23 -5 2 -2 2 5 0 8 -1 25 -3 38 -3z m207 3
c-19 -7 -16 -23 4 -23 32 0 5 -11 -37 -15 l-42 -4 24 22 c12 12 32 23 43 24
11 0 14 -1 8 -4z m42 -3 c3 -5 1 -10 -4 -10 -6 0 -11 5 -11 10 0 6 2 10 4 10
3 0 8 -4 11 -10z m465 -32 c0 -6 -7 -7 -16 -4 -9 3 -19 6 -23 6 -4 0 -7 9 -8
20 -2 19 0 19 23 4 13 -9 24 -21 24 -26z m1790 5 c0 -15 -2 -15 -24 -7 -9 3
-13 10 -10 15 3 5 0 9 -5 9 -6 0 -11 4 -11 9 0 5 11 4 25 -2 14 -7 25 -18 25
-24z m-10169 7 c-21 -18 -51 -27 -51 -15 0 6 53 34 65 34 6 0 -1 -9 -14 -19z
m819 11 c0 -12 -20 -25 -27 -18 -7 7 6 27 18 27 5 0 9 -4 9 -9z m258 -6 c14
-13 -19 -20 -90 -19 -92 2 -91 2 -82 15 4 8 9 7 15 -2 6 -9 9 -10 9 -2 0 7 12
10 31 8 18 -3 38 -1 47 4 15 9 60 6 70 -4z m122 5 c0 -5 -2 -10 -4 -10 -3 0
-8 5 -11 10 -3 6 -1 10 4 10 6 0 11 -4 11 -10z m850 0 c0 -5 -7 -10 -15 -10
-8 0 -15 5 -15 10 0 6 7 10 15 10 8 0 15 -4 15 -10z m466 -5 c-26 -19 -42 -19
-26 0 7 8 20 15 29 15 13 -1 13 -3 -3 -15z m404 0 c-7 -8 -22 -15 -34 -15 -20
1 -20 2 4 15 33 19 46 19 30 0z m597 -7 c-3 -8 -6 -5 -6 6 -1 11 2 17 5 13 3
-3 4 -12 1 -19z m43 -10 c0 -5 -4 -8 -10 -8 -5 0 -10 10 -10 23 0 18 2 19 10
7 5 -8 10 -18 10 -22z m160 22 c0 -5 -5 -10 -11 -10 -5 0 -7 5 -4 10 3 6 8 10
11 10 2 0 4 -4 4 -10z m127 -2 c2 6 9 10 14 6 15 -9 10 -21 -11 -27 -11 -3
-20 -4 -20 -2 0 2 -3 12 -6 22 -5 15 -4 16 6 3 9 -11 13 -12 17 -2z m520 6
c-3 -3 -12 -4 -19 -1 -8 3 -5 6 6 6 11 1 17 -2 13 -5z m676 -14 c-6 -23 -19
-26 -26 -6 -5 13 5 23 25 25 3 1 4 -8 1 -19z m1240 -11 c-34 -14 -44 -10 -26
11 13 15 20 17 31 8 12 -10 11 -13 -5 -19z m281 15 c4 -10 1 -14 -6 -12 -15 5
-23 28 -10 28 5 0 13 -7 16 -16z m96 12 c0 -2 -7 -6 -15 -10 -8 -3 -15 -1 -15
4 0 6 7 10 15 10 8 0 15 -2 15 -4z m435 -6 c-6 -9 28 -8 105 6 32 5 34 5 15
-8 -28 -20 -64 -28 -71 -16 -4 7 -9 7 -13 0 -4 -6 -20 -8 -41 -3 -32 6 -34 8
-15 19 25 14 28 15 20 2z m466 -14 c-6 -7 -21 -12 -33 -10 -13 1 -29 3 -36 3
-7 1 -11 5 -7 11 3 5 12 7 20 4 7 -3 22 -1 32 4 22 13 38 5 24 -12z m673 0
c-19 -15 -34 -12 -34 5 0 6 4 8 8 5 4 -2 14 -1 22 4 22 14 26 2 4 -14z m283
18 c-3 -3 -12 -4 -19 -1 -8 3 -5 6 6 6 11 1 17 -2 13 -5z m587 -7 c-5 -15 -54
-21 -54 -8 0 5 10 12 23 14 12 2 25 5 29 6 4 0 5 -5 2 -12z m53 -13 c-9 -9
-28 6 -21 18 4 6 10 6 17 -1 6 -6 8 -13 4 -17z m-8922 7 c-6 -5 -26 -12 -46
-16 -29 -5 -36 -3 -36 9 0 12 11 16 46 16 28 0 41 -4 36 -9z m2539 0 c3 -5 0
-11 -8 -14 -8 -3 -17 1 -20 9 -6 15 19 20 28 5z m883 -8 c2 -5 -10 -10 -28
-11 -29 -1 -30 0 -13 13 21 15 36 15 41 -2z m303 8 c0 -13 -28 -22 -35 -11 -3
4 1 11 7 13 20 8 28 8 28 -2z m120 -1 c0 -5 -4 -10 -10 -10 -5 0 -10 5 -10 10
0 6 5 10 10 10 6 0 10 -4 10 -10z m1050 0 c0 -5 -12 -10 -26 -10 -14 0 -23 4
-19 10 3 6 15 10 26 10 10 0 19 -4 19 -10z m615 0 c-3 -5 -15 -10 -26 -10 -11
0 -17 5 -14 10 3 6 15 10 26 10 11 0 17 -4 14 -10z m350 0 c3 -5 2 -10 -4 -10
-5 0 -18 -3 -28 -7 -16 -6 -16 -5 -4 10 15 19 27 22 36 7z m858 -6 c-5 -15
-41 -15 -46 1 -3 5 8 10 23 11 19 1 27 -3 23 -12z m37 7 c0 -5 -7 -12 -16 -15
-14 -5 -15 -4 -4 9 14 17 20 19 20 6z m800 0 c0 -5 -7 -11 -15 -15 -15 -5 -20
5 -8 17 9 10 23 9 23 -2z m157 -17 c-2 -2 -12 -1 -22 3 -18 6 -18 7 1 13 17 7
33 -5 21 -16z m187 18 c3 -5 0 -9 -7 -10 -7 0 -22 -4 -34 -7 -14 -5 -23 -3
-23 3 0 6 12 13 28 15 15 2 28 5 29 6 1 0 4 -3 7 -7z m301 -4 c3 -3 -5 -8 -19
-10 -16 -3 -23 -1 -19 8 4 12 27 13 38 2z m540 2 c-3 -5 -16 -10 -28 -10 -18
0 -19 2 -7 10 20 13 43 13 35 0z m-8612 -7 c-7 -2 -19 -2 -25 0 -7 3 -2 5 12
5 14 0 19 -2 13 -5z m52 -3 c3 -5 -1 -10 -9 -10 -9 0 -16 5 -16 10 0 6 4 10 9
10 6 0 13 -4 16 -10z m4258 3 c-7 -2 -19 -2 -25 0 -7 3 -2 5 12 5 14 0 19 -2
13 -5z m47 -3 c0 -5 -4 -10 -10 -10 -5 0 -10 5 -10 10 0 6 5 10 10 10 6 0 10
-4 10 -10z m3335 0 c-3 -5 -11 -10 -16 -10 -6 0 -7 5 -4 10 3 6 11 10 16 10 6
0 7 -4 4 -10z m485 0 c0 -5 -4 -10 -9 -10 -6 0 -13 5 -16 10 -3 6 1 10 9 10 9
0 16 -4 16 -10z m25 0 c3 -5 1 -10 -4 -10 -6 0 -11 5 -11 10 0 6 2 10 4 10 3
0 8 -4 11 -10z m55 0 c0 -5 -4 -10 -9 -10 -6 0 -13 5 -16 10 -3 6 1 10 9 10 9
0 16 -4 16 -10z m217 4 c-3 -3 -12 -4 -19 -1 -8 3 -5 6 6 6 11 1 17 -2 13 -5z
m-5152 -965 c-16 -4 -38 -10 -47 -14 -11 -4 -18 -3 -18 4 0 13 59 30 80 22 10
-3 4 -7 -15 -12z m3462 -52 c3 -3 4 -517 3 -1087 l0 -95 -348 1 c-468 2 -493
2 -1962 0 -707 -1 -1289 -1 -1295 1 -6 2 -10 174 -9 491 0 477 1 488 23 559
22 70 29 96 30 119 1 14 179 7 197 -7 6 -5 32 -12 57 -15 36 -5 51 -2 74 14
16 11 44 22 63 24 49 4 3162 0 3167 -5z m-7319 -622 c-6 -14 -18 -25 -25 -25
-14 0 -10 12 12 37 17 21 25 14 13 -12z m499 11 c11 -11 41 -7 46 7 3 7 6 5 6
-5 1 -15 -8 -18 -51 -19 -29 -1 -57 0 -63 2 -5 1 -27 4 -47 7 -21 2 -36 7 -34
11 6 8 134 6 143 -3z m608 4 c-3 -5 -19 -7 -36 -3 -25 5 -31 2 -36 -16 -3 -11
-11 -21 -18 -21 -10 0 -11 5 -2 25 10 21 19 25 55 25 25 0 41 -4 37 -10z m112
4 c-3 -3 -12 -4 -19 -1 -8 3 -5 6 6 6 11 1 17 -2 13 -5z m401 -1 c-10 -2 -28
-2 -40 0 -13 2 -5 4 17 4 22 1 32 -1 23 -4z m102 -3 c0 -5 -4 -10 -10 -10 -5
0 -10 5 -10 10 0 6 5 10 10 10 6 0 10 -4 10 -10z m460 0 c0 -5 -8 -10 -17 -10
-15 0 -16 2 -3 10 19 12 20 12 20 0z m5210 2 c0 -4 -9 -8 -20 -9 -11 -1 -20 2
-20 8 0 5 9 9 20 9 11 0 20 -4 20 -8z m1100 -8 c0 -2 -7 -4 -15 -4 -8 0 -15 4
-15 10 0 5 7 7 15 4 8 -4 15 -8 15 -10z m316 0 c-5 -13 1 -15 31 -12 20 1 38
-2 40 -7 2 -6 -75 -10 -212 -11 -118 0 -215 4 -215 8 0 9 15 9 203 9 97 0 130
3 140 14 16 19 20 18 13 -1z m134 6 c0 -5 -4 -10 -10 -10 -5 0 -10 5 -10 10 0
6 5 10 10 10 6 0 10 -4 10 -10z m128 3 c-10 -2 -28 -2 -40 0 -13 2 -5 4 17 4
22 1 32 -1 23 -4z m379 1 c-3 -3 -12 -4 -19 -1 -8 3 -5 6 6 6 11 1 17 -2 13
-5z m180 -19 c9 -20 8 -25 -2 -25 -7 0 -15 10 -18 21 -5 18 -11 21 -36 16 -17
-4 -33 -2 -36 3 -4 6 12 10 37 10 36 0 45 -4 55 -25z m492 5 c10 0 21 3 24 6
9 9 137 11 143 3 2 -4 -13 -9 -34 -11 -20 -3 -41 -6 -47 -7 -5 -2 -34 -3 -62
-2 -44 1 -53 4 -52 19 0 10 3 12 6 5 2 -7 13 -13 22 -13z m542 -2 c23 -25 23
-28 6 -28 -8 0 -19 11 -25 25 -14 31 -6 32 19 3z m-10454 6 c-3 -3 -12 -4 -19
-1 -8 3 -5 6 6 6 11 1 17 -2 13 -5z m123 -14 c0 -14 -7 -20 -21 -20 -17 0 -19
3 -10 13 6 8 8 17 4 20 -3 4 1 7 10 7 10 0 17 -8 17 -20z m996 -7 c-10 -10
-19 5 -10 18 6 11 8 11 12 0 2 -7 1 -15 -2 -18z m77 12 c-3 -9 -8 -14 -10 -11
-3 3 -2 9 2 15 9 16 15 13 8 -4z m841 1 c-7 -19 -32 -28 -40 -14 -4 7 -3 8 5
4 6 -4 14 0 17 8 3 9 10 16 15 16 4 0 6 -6 3 -14z m5214 -11 c-3 -3 -9 2 -12
12 -6 14 -5 15 5 6 7 -7 10 -15 7 -18z m956 9 c3 -8 11 -12 17 -8 8 4 9 3 5
-4 -4 -6 -13 -9 -21 -6 -15 6 -29 34 -16 34 5 0 12 -7 15 -16z m834 -9 c-3 -3
-9 2 -12 12 -6 14 -5 15 5 6 7 -7 10 -15 7 -18z m82 4 c0 -5 -4 -9 -10 -9 -5
0 -10 7 -10 16 0 8 5 12 10 9 6 -3 10 -10 10 -16z m1007 14 c-4 -3 -2 -12 4
-20 9 -10 7 -13 -10 -13 -14 0 -21 6 -21 20 0 12 7 20 17 20 9 0 13 -3 10 -7z
m120 1 c-3 -3 -12 -4 -19 -1 -8 3 -5 6 6 6 11 1 17 -2 13 -5z m-9479 -18 c7
-8 -14 -9 -195 -10 -138 -1 -162 1 -149 15 6 6 337 1 344 -5z m1180 4 c17 0
32 -4 32 -8 0 -4 -97 -8 -215 -8 -194 1 -224 3 -211 17 4 3 140 3 394 -1z
m292 1 c0 -5 -7 -12 -16 -15 -21 -8 -24 -8 -24 5 0 5 5 7 10 4 6 -3 10 -1 10
4 0 6 5 11 10 11 6 0 10 -4 10 -9z m370 -12 c0 -5 -12 -9 -27 -8 -16 0 -22 3
-15 6 6 2 10 8 7 13 -3 4 4 6 15 3 11 -3 20 -9 20 -14z m4837 -2 c4 -4 -11 -6
-32 -3 -22 2 -55 5 -72 5 -18 1 -33 4 -33 9 0 9 126 -1 137 -11z m199 14 c-4
-5 0 -12 6 -14 7 -3 1 -6 -14 -6 -31 -1 -38 15 -10 22 9 3 18 5 20 6 2 0 1 -3
-2 -8z m354 -2 c0 -5 5 -7 10 -4 6 3 10 1 10 -4 0 -13 -3 -13 -24 -5 -18 7
-22 24 -6 24 6 0 10 -5 10 -11z m1797 -5 c2 -5 -66 -9 -150 -8 -186 1 -199 2
-194 12 7 10 341 6 344 -4z m-8630 0 c-3 -3 -12 -4 -19 -1 -8 3 -5 6 6 6 11 1
17 -2 13 -5z m309 -3 c-3 -4 -34 -8 -70 -8 -37 -1 -64 2 -62 5 2 4 34 8 70 9
36 1 64 -2 62 -6z m697 2 c-7 -2 -19 -2 -25 0 -7 3 -2 5 12 5 14 0 19 -2 13
-5z m147 3 c0 -3 -4 -8 -10 -11 -5 -3 -10 -1 -10 4 0 6 5 11 10 11 6 0 10 -2
10 -4z m194 -5 c3 -5 -6 -8 -19 -8 -14 0 -25 3 -25 8 0 5 9 9 19 9 11 0 22 -4
25 -9z m4696 5 c0 -9 -50 -12 -62 -5 -8 6 1 9 25 9 20 0 37 -2 37 -4z m83 -3
c-7 -2 -19 -2 -25 0 -7 3 -2 5 12 5 14 0 19 -2 13 -5z m457 -2 c0 -5 -11 -8
-25 -8 -13 0 -22 3 -19 8 3 5 14 9 25 9 10 0 19 -4 19 -9z m170 -1 c0 -5 -2
-10 -4 -10 -3 0 -8 5 -11 10 -3 6 -1 10 4 10 6 0 11 -4 11 -10z m163 3 c-7 -2
-21 -2 -30 0 -10 3 -4 5 12 5 17 0 24 -2 18 -5z m793 -5 c3 -4 -24 -6 -61 -5
-36 0 -68 4 -71 8 -5 9 123 5 132 -3z m201 6 c-3 -3 -12 -4 -19 -1 -8 3 -5 6
6 6 11 1 17 -2 13 -5z m-8119 -11 c-10 -2 -28 -2 -40 0 -13 2 -5 4 17 4 22 1
32 -1 23 -4z m1445 0 c-7 -2 -21 -2 -30 0 -10 3 -4 5 12 5 17 0 24 -2 18 -5z
m5084 1 c-3 -3 -12 -4 -19 -1 -8 3 -5 6 6 6 11 1 17 -2 13 -5z m366 -1 c-7 -2
-21 -2 -30 0 -10 3 -4 5 12 5 17 0 24 -2 18 -5z m1455 0 c-10 -2 -28 -2 -40 0
-13 2 -5 4 17 4 22 1 32 -1 23 -4z m-3941 -619 c-3 -3 -12 -4 -19 -1 -8 3 -5
6 6 6 11 1 17 -2 13 -5z m-1084 -11 c-7 -2 -21 -2 -30 0 -10 3 -4 5 12 5 17 0
24 -2 18 -5z"/>
<path d="M8038 8239 c-56 -20 -68 -31 -99 -90 -18 -35 -23 -61 -23 -128 -1
-57 3 -86 11 -88 7 -2 10 -10 7 -17 -13 -33 92 -79 159 -70 53 8 77 20 77 40
0 9 6 14 13 11 19 -6 55 39 63 78 3 19 10 38 15 41 15 9 10 70 -10 116 -24 55
-53 82 -116 105 -48 18 -52 18 -97 2z m120 -39 c14 0 15 -2 2 -10 -9 -5 -19
-5 -26 0 -6 6 -14 7 -17 3 -4 -3 -7 -1 -7 6 0 8 6 11 16 7 9 -3 23 -6 32 -6z
m-88 -53 c0 -26 -2 -28 -37 -25 -44 4 -50 16 -23 51 18 23 24 25 41 14 11 -7
19 -23 19 -40z m60 -7 c0 -5 -2 -10 -4 -10 -3 0 -8 5 -11 10 -3 6 -1 10 4 10
6 0 11 -4 11 -10z m-135 -40 c-3 -5 -10 -10 -16 -10 -5 0 -9 5 -9 10 0 6 7 10
16 10 8 0 12 -4 9 -10z m135 6 c0 -3 -4 -8 -10 -11 -5 -3 -10 -1 -10 4 0 6 5
11 10 11 6 0 10 -2 10 -4z m-171 -176 c11 -24 11 -24 -3 -6 -9 11 -16 24 -16
30 0 12 5 7 19 -24z m171 -44 c0 -2 -7 -9 -15 -16 -13 -11 -14 -10 -9 4 5 14
24 23 24 12z"/>
<path d="M8585 8190 c-31 -12 -72 -60 -94 -111 -15 -33 -20 -62 -17 -111 5
-115 60 -173 165 -170 63 2 102 22 145 75 28 35 31 45 30 105 0 47 -7 79 -22
108 -27 53 -75 104 -99 105 -10 0 -34 2 -53 4 -19 1 -44 -1 -55 -5z m53 -81
c1 -8 -7 -29 -18 -46 -15 -26 -27 -33 -50 -33 -16 0 -30 4 -30 9 0 26 22 62
47 75 32 17 47 16 51 -5z m-104 -121 c-4 -13 -8 -31 -9 -40 -2 -28 -15 -34
-15 -7 0 35 11 69 22 69 5 0 6 -10 2 -22z m136 -52 c0 -3 -4 -8 -10 -11 -5 -3
-10 -1 -10 4 0 6 5 11 10 11 6 0 10 -2 10 -4z"/>
<path d="M7843 7800 c-24 -10 -30 -25 -14 -34 5 -3 14 1 21 9 7 8 19 15 26 15
8 0 14 5 14 10 0 12 -17 12 -47 0z"/>
<path d="M8242 7709 c-67 -20 -128 -100 -117 -154 2 -11 4 -26 4 -32 1 -15 47
-17 56 -3 8 12 77 13 129 1 21 -5 54 -24 72 -42 l34 -32 16 38 c20 50 15 132
-12 168 -32 43 -127 72 -182 56z m132 -57 c35 -21 50 -60 41 -109 l-6 -35 -22
20 c-48 43 -113 55 -185 33 -31 -9 -32 -9 -26 17 22 92 110 125 198 74z"/>
<path d="M7951 7694 c0 -11 3 -14 6 -6 3 7 2 16 -1 19 -3 4 -6 -2 -5 -13z"/>
<path d="M8885 7700 c3 -5 8 -10 11 -10 2 0 4 5 4 10 0 6 -5 10 -11 10 -5 0
-7 -4 -4 -10z"/>
<path d="M8780 7691 c0 -11 31 -24 39 -16 3 3 -1 10 -9 15 -19 12 -30 12 -30
1z"/>
<path d="M8717 7684 c-9 -9 26 -73 41 -74 9 0 6 12 -8 40 -21 42 -23 44 -33
34z"/>
<path d="M7795 7463 c-67 -21 -92 -32 -142 -65 -50 -34 -213 -193 -232 -227
-7 -13 -21 -38 -30 -55 -10 -17 -21 -44 -25 -61 -4 -16 -9 -38 -12 -48 -5 -16
-3 -17 14 -8 10 6 36 45 57 88 21 43 50 93 64 112 32 43 205 183 251 203 92
41 158 49 185 22 24 -24 63 -107 74 -155 17 -75 -27 -211 -96 -299 -46 -58
-237 -250 -249 -250 -33 0 -49 -84 -24 -129 12 -23 29 -27 34 -8 2 6 9 32 16
56 9 34 30 62 98 130 128 127 184 198 232 297 69 141 67 257 -7 344 -61 71
-108 83 -208 53z"/>
<path d="M7997 6110 c-50 -5 -63 -10 -88 -38 -33 -37 -36 -54 -13 -73 22 -18
72 -12 106 12 15 11 52 31 83 45 57 26 60 36 16 49 -20 6 -23 4 -18 -9 4 -11
1 -16 -10 -16 -8 0 -41 -16 -73 -35 -32 -19 -65 -35 -74 -35 -26 0 -19 26 15
54 24 20 41 26 80 26 27 0 49 4 49 9 0 15 -11 17 -73 11z"/>
<path d="M8555 6088 c-39 -23 -72 -78 -47 -78 5 0 8 -10 8 -21 -1 -12 4 -24
11 -26 9 -3 10 6 6 33 -5 29 -2 40 12 50 24 18 85 18 85 2 0 -14 -20 -48 -20
-35 0 4 -9 3 -20 -3 -11 -6 -17 -16 -14 -25 4 -10 0 -15 -12 -15 -13 0 -15 -3
-7 -11 27 -27 103 24 103 70 0 48 -63 84 -105 59z"/>
<path d="M8299 5803 c-38 -9 -66 -122 -37 -151 7 -7 28 -12 49 -12 70 0 112
72 74 127 -16 23 -60 41 -86 36z m61 -49 c18 -21 2 -65 -30 -81 -21 -11 -27
-10 -37 4 -38 51 28 126 67 77z"/>
<path d="M7833 5604 c-17 -7 -34 -18 -38 -24 -10 -16 -28 -12 -21 5 7 19 -5
19 -49 1 -38 -16 -49 -42 -13 -31 17 6 20 4 15 -10 -4 -9 -7 -21 -7 -27 0 -6
-8 -4 -18 5 -15 14 -21 15 -35 4 -13 -9 -15 -19 -9 -42 11 -41 58 -47 98 -11
16 14 23 26 17 26 -7 0 -13 4 -13 9 0 5 8 8 18 7 10 0 22 11 31 31 12 28 41
47 64 44 4 -1 7 3 7 8 0 17 -14 19 -47 5z m-135 -123 c-14 -5 -31 15 -23 29 5
8 11 6 20 -7 9 -11 10 -19 3 -22z"/>
<path d="M8392 5384 c-17 -12 -22 -25 -22 -59 0 -38 5 -48 30 -67 17 -12 30
-28 30 -35 0 -24 26 -13 59 24 28 32 32 42 27 73 -10 65 -75 99 -124 64z m80
-31 c33 -29 20 -83 -20 -83 -28 0 -62 26 -62 47 0 48 46 68 82 36z"/>
<path d="M8078 5299 c-10 -5 -29 -26 -42 -46 -21 -30 -23 -39 -13 -62 6 -14
11 -27 12 -27 0 -1 11 -5 25 -9 l25 -7 -28 22 -27 22 21 31 c45 65 83 76 94
27 8 -39 25 -39 25 -1 0 47 -51 74 -92 50z"/>
<path d="M1020 7595 c-7 -8 -18 -15 -25 -15 -44 0 -44 -152 0 -245 34 -72 61
-92 124 -93 43 -1 53 2 71 26 46 58 4 218 -79 301 -43 43 -70 51 -91 26z m27
-101 c6 -17 -15 -54 -32 -54 -17 0 -22 15 -17 50 3 22 8 27 24 22 11 -2 22
-11 25 -18z"/>
<path d="M1407 7339 c-40 -23 -58 -98 -37 -153 16 -43 29 -29 28 29 -1 40 3
60 17 75 24 27 36 25 70 -10 17 -18 33 -26 38 -21 12 12 -6 44 -39 70 -29 23
-50 26 -77 10z"/>
<path d="M1121 7166 c-17 -20 -18 -131 -2 -150 16 -19 45 -21 59 -3 17 20 -11
145 -36 161 -5 3 -15 0 -21 -8z m29 -106 c0 -26 -3 -31 -10 -20 -5 8 -10 31
-10 50 0 26 3 31 10 20 5 -8 10 -31 10 -50z"/>
<path d="M993 7163 c-7 -3 -13 -11 -13 -20 0 -12 2 -12 16 2 18 17 16 25 -3
18z"/>
<path d="M866 7144 c-4 -9 -4 -19 -1 -22 2 -3 7 3 11 12 4 9 4 19 1 22 -2 3
-7 -3 -11 -12z"/>
<path d="M910 7140 c0 -5 4 -10 9 -10 6 0 13 5 16 10 3 6 -1 10 -9 10 -9 0
-16 -4 -16 -10z"/>
<path d="M1166 6907 c-23 -17 -33 -99 -17 -139 10 -28 32 -35 65 -22 20 8 21
73 2 129 -16 45 -24 51 -50 32z m32 -79 c9 -43 -1 -74 -19 -62 -12 7 -12 104
0 104 6 0 14 -19 19 -42z"/>
<path d="M1820 6540 c-13 -8 -12 -10 3 -10 9 0 17 5 17 10 0 12 -1 12 -20 0z"/>
<path d="M2781 6948 c1 -27 15 -52 23 -40 4 6 2 21 -4 32 -12 23 -20 26 -19 8z"/>
<path d="M2668 6893 c-37 -23 -46 -68 -21 -102 44 -59 113 -25 113 56 0 32 -5
45 -19 53 -27 14 -41 12 -73 -7z m51 -72 c-16 -36 -34 -40 -49 -10 -15 27 -7
47 22 51 34 6 42 -7 27 -41z"/>
<path d="M2810 6876 c0 -8 5 -18 10 -21 6 -3 10 3 10 14 0 12 -4 21 -10 21 -5
0 -10 -6 -10 -14z"/>
<path d="M2850 6821 c0 -6 4 -13 10 -16 6 -3 7 1 4 9 -7 18 -14 21 -14 7z"/>
<path d="M2834 6682 c-34 -23 -36 -89 -3 -128 30 -36 109 11 109 66 0 47 -69
87 -106 62z m60 -38 c20 -8 20 -23 -1 -46 -20 -22 -39 -23 -47 -2 -15 39 10
63 48 48z"/>
<path d="M2655 6417 c-25 -19 -24 -90 1 -118 34 -38 94 -9 109 52 13 52 -65
99 -110 66z m72 -43 c8 -21 -13 -64 -32 -64 -24 0 -36 42 -17 63 19 21 41 22
49 1z"/>
<path d="M2997 6410 c-35 -27 -44 -79 -22 -114 20 -30 41 -33 74 -10 28 20 54
79 46 104 -3 10 -20 23 -37 29 -38 13 -31 15 -61 -9z m73 -32 c0 -18 -21 -48
-33 -48 -27 0 -37 22 -19 45 16 21 52 24 52 3z"/>
<path d="M8710 6671 c0 -10 30 -24 37 -17 3 3 2 9 -2 15 -8 13 -35 15 -35 2z"/>
<path d="M8760 6634 c0 -3 5 -14 10 -25 16 -28 32 -23 18 6 -10 22 -28 35 -28
19z"/>
<path d="M2920 5449 c0 -20 -104 -168 -122 -172 -10 -3 -18 -14 -18 -25 0 -11
-21 -41 -46 -67 -25 -26 -43 -50 -39 -53 3 -3 31 22 63 55 l57 62 85 6 85 6
18 -45 c20 -49 53 -96 67 -96 5 0 -3 21 -19 48 -15 26 -30 60 -33 75 -5 24 -2
27 23 27 15 0 30 3 32 8 3 4 -11 7 -30 7 -34 0 -35 1 -58 73 -23 72 -39 102
-56 102 -5 0 -9 -5 -9 -11z m44 -102 c11 -31 18 -58 15 -62 -8 -8 -126 -11
-134 -4 -8 9 77 130 89 126 6 -2 19 -29 30 -60z"/>
<path d="M2310 5440 c0 -5 15 -10 34 -10 38 0 42 -6 52 -81 5 -38 3 -53 -7
-60 -11 -6 -11 -11 -1 -21 7 -7 12 -37 12 -69 0 -32 4 -61 10 -64 23 -14 222
38 257 67 21 17 15 38 -14 50 -16 6 -73 16 -128 23 l-100 11 40 18 c159 68
167 77 101 105 -73 32 -256 54 -256 31z m233 -41 c21 -6 37 -15 35 -21 -2 -6
-39 -26 -81 -44 l-77 -33 0 44 c0 24 -3 51 -7 61 -5 15 -1 16 43 10 27 -4 66
-12 87 -17z m48 -149 c65 -13 81 -26 55 -45 -27 -21 -123 -47 -176 -49 l-45
-1 -3 53 -3 52 59 0 c33 0 83 -5 113 -10z"/>
<path d="M3371 5419 c-104 -42 -170 -87 -206 -139 -30 -44 -26 -82 10 -106 27
-18 103 -20 160 -5 133 34 123 35 119 -14 -3 -32 14 -113 25 -119 3 -2 6 37 5
87 -1 51 3 98 9 105 6 8 5 17 -3 27 -18 22 -28 18 -32 -12 -4 -35 -55 -53
-169 -60 -73 -5 -88 -3 -103 12 -61 61 106 209 236 209 29 0 47 4 45 10 -5 15
-66 18 -96 5z"/>
<path d="M8784 5325 c-11 -28 4 -96 26 -120 22 -24 64 -37 87 -28 14 6 18 73
5 73 -5 0 -8 -10 -8 -22 1 -18 -5 -23 -24 -25 -23 -1 -23 -1 -2 4 37 8 25 54
-21 76 -20 10 -37 25 -37 32 0 21 -19 28 -26 10z m86 -97 c0 -4 -4 -8 -10 -8
-5 0 -10 7 -10 15 0 9 -9 15 -22 15 -18 0 -20 2 -8 10 15 9 50 -13 50 -32z"/>
<path d="M6940 4830 c0 -5 7 -10 15 -10 8 0 15 5 15 10 0 6 -7 10 -15 10 -8 0
-15 -4 -15 -10z"/>
<path d="M5880 4616 c0 -9 7 -12 18 -9 16 4 18 -1 14 -34 -2 -21 -9 -44 -14
-50 -7 -9 -7 -13 1 -13 6 0 11 -11 11 -25 0 -15 6 -25 15 -25 11 0 12 5 5 25
-10 27 -11 26 48 45 56 18 70 35 48 59 -30 33 -146 54 -146 27z m123 -28 c9
-5 17 -13 17 -17 0 -7 -70 -41 -85 -41 -3 0 -5 18 -5 40 0 39 1 40 28 34 15
-4 35 -11 45 -16z"/>
<path d="M6087 4623 c-9 -16 -17 -128 -10 -139 15 -20 44 -24 95 -13 37 8 52
8 57 0 5 -7 18 0 36 19 23 24 37 30 71 30 33 0 44 -4 49 -19 6 -20 45 -60 45
-45 0 5 -7 18 -15 28 -20 26 -19 44 3 49 13 4 13 5 -4 6 -16 1 -24 12 -34 46
-7 25 -18 45 -24 45 -6 0 -24 -20 -39 -45 -16 -25 -33 -45 -38 -45 -5 0 -9 -6
-9 -13 0 -28 -34 -42 -105 -42 l-70 0 3 73 c2 67 -1 83 -11 65z m277 -45 c9
-36 8 -38 -25 -38 l-30 0 18 30 c21 36 29 37 37 8z"/>
<path d="M6991 4611 c-11 -11 -25 -38 -32 -60 -10 -34 -9 -44 5 -66 10 -16 26
-25 42 -25 32 0 85 22 103 43 17 21 3 22 -19 2 -25 -22 -71 -34 -98 -24 -48
18 -10 134 42 127 13 -2 22 -11 24 -25 4 -28 22 -31 22 -4 0 20 -35 51 -57 51
-7 0 -22 -9 -32 -19z"/>
<path d="M7272 4623 c-17 -7 -52 -77 -52 -106 0 -29 29 -57 59 -57 29 0 83 23
100 43 17 21 3 22 -19 2 -25 -22 -71 -34 -98 -24 -51 19 -6 141 45 125 12 -4
23 -17 26 -29 3 -21 4 -21 12 -3 14 31 -35 64 -73 49z"/>
<path d="M8106 4590 c-29 -44 -51 -73 -79 -102 -10 -11 -16 -23 -12 -26 4 -4
19 7 33 25 22 25 36 32 70 35 39 2 44 0 60 -32 9 -18 23 -36 30 -38 8 -2 5 8
-8 30 -25 42 -25 48 3 49 21 1 21 1 -2 8 -17 5 -27 18 -35 45 -6 22 -16 41
-22 43 -6 2 -23 -15 -38 -37z m49 -27 c6 -20 3 -23 -24 -23 -36 0 -37 2 -15
36 18 27 27 23 39 -13z"/>
<path d="M8605 4621 c-28 -6 -29 -7 -26 -61 3 -61 22 -100 49 -100 22 0 82 37
82 51 0 6 -12 1 -26 -10 -45 -35 -84 -24 -84 23 0 8 24 17 63 23 l62 10 -62 2
c-44 1 -63 5 -63 14 0 25 24 37 72 37 26 0 48 5 48 10 0 11 -67 12 -115 1z"/>
<path d="M6517 4604 c-44 -24 -31 -46 42 -70 74 -24 87 -40 39 -49 -52 -10
-133 -2 -130 13 1 6 -2 12 -8 12 -21 0 -9 -31 16 -40 60 -23 169 0 169 35 0
16 -13 24 -64 40 -36 12 -66 26 -68 32 -5 13 43 25 84 23 42 -3 50 -1 33 10
-22 14 -81 11 -113 -6z"/>
<path d="M6674 4608 c-3 -5 11 -8 30 -8 l36 0 0 -72 c0 -51 3 -68 10 -58 5 8
10 41 10 73 l0 57 53 0 c38 1 48 3 36 10 -19 11 -168 9 -175 -2z"/>
<path d="M6880 4546 c0 -102 18 -107 22 -6 2 59 0 80 -9 80 -9 0 -13 -22 -13
-74z"/>
<path d="M7448 4604 c-21 -24 -38 -68 -38 -99 0 -52 71 -57 142 -10 43 29 49
59 20 95 -25 31 -101 39 -124 14z m106 -20 c38 -38 -4 -93 -77 -101 -35 -4
-45 -2 -50 11 -9 22 16 81 40 95 27 15 69 13 87 -5z"/>
<path d="M7641 4538 c1 -88 4 -92 14 -16 l6 47 45 -34 c25 -19 50 -35 55 -35
5 0 14 -12 20 -26 5 -15 11 -25 13 -23 10 11 15 169 6 169 -5 0 -10 -22 -10
-49 0 -28 -5 -53 -11 -56 -15 -10 -88 42 -107 76 -10 16 -20 29 -24 29 -5 0
-8 -37 -7 -82z"/>
<path d="M7840 4608 c0 -5 16 -8 35 -8 l35 0 1 -72 c1 -81 16 -60 18 25 l1 47
53 0 c36 1 47 3 36 10 -18 11 -179 9 -179 -2z"/>
<path d="M8266 4604 c-9 -25 -7 -117 4 -134 7 -11 10 -1 10 36 0 28 3 66 6 83
7 32 -9 44 -20 15z"/>
<path d="M8350 4539 c0 -51 4 -78 10 -74 6 3 10 29 10 56 l0 51 39 -31 c21
-17 50 -35 65 -40 17 -7 27 -19 27 -33 2 -27 17 72 18 120 1 17 -3 32 -9 32
-5 0 -10 -25 -10 -55 0 -30 -2 -55 -5 -55 -18 0 -67 34 -98 69 -20 23 -39 41
-42 41 -3 0 -5 -36 -5 -81z"/>
<path d="M8758 4612 c-22 -4 -24 -22 -3 -22 12 0 15 -15 17 -67 1 -42 3 -53 5
-30 2 20 9 37 14 37 6 0 27 -13 47 -30 45 -36 90 -47 115 -28 16 12 14 13 -20
10 -28 -3 -46 2 -66 18 -32 26 -35 40 -6 40 49 0 78 40 42 58 -20 10 -118 20
-145 14z m117 -23 c37 -10 38 -12 20 -25 -10 -8 -38 -14 -62 -14 -39 0 -43 2
-43 25 0 29 20 32 85 14z"/>
<path d="M3410 4421 c0 -7 -4 -9 -10 -6 -5 3 -10 2 -10 -3 0 -6 7 -12 15 -16
8 -3 15 -1 15 5 0 6 4 8 9 4 5 -3 13 0 17 7 4 7 4 10 -1 6 -4 -4 -14 -3 -22 3
-10 9 -13 8 -13 0z"/>
<path d="M3465 4391 c-3 -5 -1 -12 5 -16 5 -3 10 1 10 9 0 18 -6 21 -15 7z"/>
<path d="M3621 3564 c-36 -45 -23 -107 29 -137 37 -22 72 -21 100 1 27 22 22
62 -10 90 -11 9 -20 22 -20 28 0 16 -20 30 -52 38 -21 5 -31 1 -47 -20z m87
-49 c35 -39 40 -60 16 -69 -58 -22 -123 51 -82 92 19 19 31 15 66 -23z"/>
<path d="M3600 3203 c-23 -8 -40 -34 -40 -60 0 -24 26 -43 58 -43 22 0 52 30
52 52 0 13 -40 59 -51 57 -2 0 -11 -3 -19 -6z m35 -49 c0 -22 -32 -31 -49 -14
-8 8 -6 15 9 26 24 18 40 13 40 -12z"/>
<path d="M3545 2261 c-29 -13 -55 -45 -70 -88 -8 -22 -19 -36 -27 -34 -7 2
-20 5 -29 8 -21 6 -49 -38 -42 -65 6 -25 59 -52 102 -52 l30 0 -2 -75 c-2 -64
1 -77 20 -96 23 -23 52 -22 88 5 17 12 20 25 19 96 -1 68 2 86 17 101 27 27
23 67 -13 140 -34 66 -51 77 -93 60z m64 -65 c12 -18 24 -48 27 -65 6 -28 2
-36 -42 -77 l-48 -45 -13 25 c-10 19 -22 26 -42 26 -40 0 -93 20 -88 34 2 6
19 11 38 11 44 0 59 10 59 40 0 26 50 85 73 85 9 0 25 -15 36 -34z m-3 -257
c-2 -23 -8 -45 -13 -50 -10 -10 -17 97 -7 112 12 21 25 -19 20 -62z m-51 32
c6 -10 -5 -95 -11 -88 -9 9 -14 97 -5 97 5 0 12 -4 16 -9z"/>
<path d="M3130 1941 c0 -13 9 -21 30 -26 41 -9 90 -57 90 -88 0 -40 -83 -117
-125 -117 -40 0 -45 46 -15 135 30 87 6 95 -26 10 -38 -104 -23 -175 37 -175
34 0 104 41 136 79 48 56 19 133 -68 176 -58 30 -59 30 -59 6z"/>
<path d="M2168 4018 c-16 -5 -28 -14 -28 -19 0 -15 16 -10 41 11 27 22 26 23
-13 8z"/>
<path d="M2099 3970 l-24 -20 32 11 c18 6 30 15 27 20 -7 12 -8 12 -35 -11z"/>
<path d="M5403 4099 c-25 -9 -32 -39 -10 -39 7 0 22 6 33 14 25 19 8 37 -23
25z"/>
<path d="M6243 2652 c-22 -2 -34 -10 -39 -24 -9 -30 9 -43 43 -29 16 6 60 10
103 8 158 -8 314 -64 335 -121 8 -23 5 -30 -20 -51 -17 -13 -35 -24 -42 -25
-6 0 -13 -3 -15 -7 -4 -10 -119 -52 -178 -65 -25 -6 -50 -15 -57 -20 -13 -10
-36 -2 -29 11 3 4 6 29 7 57 1 27 6 54 11 60 4 6 8 27 7 45 -1 19 2 44 6 56 5
17 3 24 -10 29 -29 12 -38 -12 -47 -127 -9 -122 -18 -149 -49 -149 -11 0 -17
-4 -14 -10 3 -5 15 -10 26 -10 11 0 19 -7 20 -17 2 -57 12 -110 25 -135 16
-30 21 -33 43 -19 12 8 12 12 -2 26 -10 9 -17 28 -18 43 -1 15 -3 44 -4 64 -4
44 -3 44 72 64 58 14 132 41 208 75 42 18 105 74 105 92 0 44 -139 134 -235
152 -22 4 -51 10 -65 12 -50 10 -156 18 -187 15z"/>
<path d="M4528 2635 c-2 -1 -30 -5 -63 -8 -72 -7 -201 -51 -232 -80 -13 -11
-25 -29 -29 -39 -8 -26 30 -83 64 -96 83 -31 70 -27 152 -47 180 -45 270 -82
270 -114 0 -37 -80 -78 -158 -82 -20 -1 -44 -6 -54 -11 -17 -8 -153 -10 -223
-3 -110 11 -129 15 -146 31 -25 22 -24 39 3 58 32 23 14 31 -21 10 -33 -19
-39 -41 -18 -65 44 -54 153 -74 342 -65 132 6 144 7 180 20 11 5 33 13 48 18
51 19 77 47 77 82 0 40 -38 78 -95 96 -22 7 -49 16 -60 21 -11 4 -63 17 -115
29 -52 12 -99 26 -104 31 -6 5 -17 9 -26 9 -22 0 -90 48 -90 65 0 12 61 57 85
62 5 1 43 10 83 21 53 13 86 17 115 11 23 -4 46 -5 50 -2 8 5 28 -2 79 -28 24
-12 42 12 25 35 -11 15 -129 49 -139 41z"/>
<path d="M5047 2619 c-58 -9 -127 -86 -162 -180 -9 -24 -22 -54 -27 -66 -6
-12 -11 -58 -12 -101 -1 -65 2 -84 18 -101 10 -11 23 -18 27 -15 5 3 9 1 9 -4
0 -34 154 -42 230 -12 28 11 54 19 58 18 24 -7 222 129 222 152 0 9 4 20 9 26
39 42 -4 163 -82 227 -25 20 -52 37 -61 37 -8 0 -27 5 -43 11 -32 13 -130 17
-186 8z m228 -49 c24 -11 62 -41 84 -67 37 -44 41 -53 41 -104 0 -53 -2 -58
-44 -97 -25 -23 -49 -42 -55 -42 -6 0 -15 -9 -21 -19 -5 -11 -20 -23 -32 -26
-13 -4 -52 -17 -88 -31 -77 -28 -191 -38 -236 -19 -37 15 -59 62 -50 107 4 18
10 49 13 68 3 19 10 42 17 50 6 8 20 31 30 50 31 57 91 120 115 120 9 0 27 7
41 14 38 21 134 19 185 -4z"/>
<path d="M5595 2601 c-3 -6 -8 -93 -11 -193 -5 -211 5 -281 43 -286 32 -5 158
85 262 185 47 45 87 80 89 78 2 -2 8 -34 12 -72 11 -86 45 -175 81 -214 23
-25 35 -29 67 -28 44 3 78 22 67 38 -4 8 -12 8 -25 1 -33 -18 -57 -11 -89 25
-45 52 -66 131 -65 255 0 86 3 111 19 138 15 24 17 37 9 49 -14 22 -33 28 -38
11 -47 -158 -43 -150 -129 -239 -73 -76 -157 -145 -180 -147 -4 -1 -15 -8 -23
-17 -24 -23 -53 -18 -64 11 -11 27 -7 306 5 360 7 32 -16 67 -30 45z"/>
<path d="M2226 6515 c4 -8 11 -15 16 -15 6 0 5 6 -2 15 -7 8 -14 15 -16 15 -2
0 -1 -7 2 -15z"/>
<path d="M4441 3573 c-44 -22 -99 -107 -121 -187 -10 -35 -16 -67 -12 -70 12
-13 24 -5 19 14 -3 10 -2 20 3 22 4 2 17 29 29 61 28 77 62 120 106 136 20 7
39 11 41 8 11 -10 -10 -59 -36 -85 -15 -15 -30 -38 -34 -50 -4 -12 -11 -20
-16 -17 -8 5 -82 -66 -76 -73 13 -12 126 81 126 104 0 8 6 14 13 14 22 0 52
81 48 128 -1 17 -50 15 -90 -5z"/>
<path d="M4475 3540 c-3 -5 1 -10 10 -10 9 0 13 5 10 10 -3 6 -8 10 -10 10 -2
0 -7 -4 -10 -10z"/>
<path d="M4441 3516 c-7 -8 -9 -21 -5 -27 4 -8 3 -9 -4 -5 -7 4 -12 1 -12 -8
0 -22 19 -20 27 2 4 9 11 20 17 24 8 5 8 10 0 18 -8 8 -14 7 -23 -4z"/>
<path d="M4381 3424 c0 -11 3 -14 6 -6 3 7 2 16 -1 19 -3 4 -6 -2 -5 -13z"/>
<path d="M2850 3113 c-43 -39 -48 -93 -8 -104 33 -9 180 32 205 57 16 15 16
17 -2 30 -21 15 -80 34 -132 41 -24 3 -38 -2 -63 -24z m123 -18 c20 -4 37 -10
37 -14 0 -8 -81 -31 -132 -38 -46 -6 -48 6 -9 40 29 24 39 26 104 12z"/>
<path d="M3336 969 c-9 -32 -26 -149 -26 -183 0 -77 59 -131 98 -92 26 26 22
127 -8 196 -27 65 -57 102 -64 79z m39 -165 c8 -3 11 -12 9 -19 -3 -7 -1 -16
5 -20 16 -9 13 -42 -3 -48 -30 -12 -51 51 -39 111 7 35 8 35 11 9 2 -16 10
-31 17 -33z"/>
<path d="M3365 750 c3 -5 10 -10 16 -10 5 0 9 5 9 10 0 6 -7 10 -16 10 -8 0
-12 -4 -9 -10z"/>
<path d="M3650 781 c0 -6 6 -20 12 -31 10 -16 10 -24 -1 -41 -11 -19 -11 -21
3 -16 18 7 56 -25 56 -47 0 -7 8 -20 17 -27 15 -13 16 -11 9 21 -9 48 -49 121
-75 138 -14 10 -21 11 -21 3z"/>
<path d="M3667 664 c7 -3 9 -12 6 -21 -4 -11 -2 -14 5 -9 18 11 14 36 -5 35
-10 0 -13 -3 -6 -5z"/>
<path d="M2466 469 c-37 -5 -92 -25 -145 -52 -109 -55 -250 -99 -366 -112 -33
-4 -67 -8 -75 -9 -8 -2 -51 -6 -95 -10 -92 -8 -184 -26 -191 -38 -3 -4 -12 -8
-21 -8 -27 0 -71 -39 -112 -101 -40 -60 -51 -101 -31 -114 17 -10 39 14 65 70
14 29 33 59 43 68 29 26 225 85 304 92 40 3 84 8 98 10 14 3 45 7 70 10 74 8
200 44 264 76 95 47 194 79 255 81 45 2 75 -6 150 -35 106 -43 141 -52 300
-74 92 -12 148 -14 300 -6 102 4 188 5 191 1 3 -4 75 -5 160 -3 111 3 174 1
220 -9 163 -36 191 -37 410 -17 47 5 146 9 220 11 74 1 153 3 175 5 48 3 95
-19 161 -76 63 -54 116 -76 206 -84 99 -9 187 -23 221 -37 32 -12 44 -49 28
-84 -10 -23 -9 -24 25 -24 42 0 50 16 34 65 -22 67 -97 99 -255 110 -121 8
-148 18 -192 71 -20 25 -53 54 -74 64 -66 34 -196 44 -391 30 -328 -23 -392
-24 -528 -1 -105 18 -171 22 -415 23 -159 1 -319 -1 -355 -5 -96 -9 -240 8
-292 36 -80 42 -144 66 -194 72 -27 3 -62 7 -79 9 -16 2 -57 0 -89 -5z m2375
-216 c13 -16 12 -17 -3 -4 -17 13 -22 21 -14 21 2 0 10 -8 17 -17z"/>
<path d="M2576 265 c-48 -17 -81 -48 -73 -69 16 -42 136 -59 197 -28 63 31 48
71 -37 97 -26 8 -48 15 -48 14 0 0 -18 -6 -39 -14z m133 -40 c11 -11 9 -16
-12 -30 -32 -20 -102 -22 -140 -2 l-27 14 47 21 c51 22 107 20 132 -3z"/>
<path d="M3893 220 c-29 -12 -29 -41 -2 -66 18 -17 37 -19 145 -19 132 0 154
8 133 46 -10 20 -73 43 -94 35 -8 -3 -15 -1 -15 4 0 12 -137 12 -167 0z m225
-31 c58 -22 -7 -39 -127 -33 -41 2 -70 9 -79 18 -13 13 -13 16 -1 20 39 14
163 11 207 -5z"/>
</g>
</svg>
