<?xml version="1.0" standalone="no"?>
<!DOCTYPE svg PUBLIC "-//W3C//DTD SVG 20010904//EN"
 "http://www.w3.org/TR/2001/REC-SVG-20010904/DTD/svg10.dtd">
<svg version="1.0" xmlns="http://www.w3.org/2000/svg"
 width="5933.000000pt" height="8054.000000pt" viewBox="0 0 5933.000000 8054.000000"
 preserveAspectRatio="xMidYMid meet">
<metadata>
Created by potrace 1.16, written by Peter Selinger 2001-2019
</metadata>
<g transform="translate(0.000000,8054.000000) scale(0.100000,-0.100000)"
fill="#000000" stroke="none">
<path d="M22345 80530 c-1309 -42 -2588 -308 -3770 -782 -110 -44 -228 -94
-263 -111 -82 -40 -153 -110 -194 -194 l-33 -68 -5 -401 -5 -402 -60 24 c-107
44 -407 142 -515 168 -193 46 -313 60 -505 60 -200 0 -269 -11 -356 -55 -112
-56 -198 -176 -219 -304 -5 -33 -10 -257 -10 -499 l0 -438 -92 6 c-243 16
-793 38 -873 34 -72 -3 -101 -10 -147 -32 -130 -62 -220 -183 -238 -322 -9
-68 -22 -369 -60 -1484 -164 -4760 -181 -9565 -50 -14355 12 -418 18 -471 67
-554 38 -65 105 -126 180 -163 55 -27 80 -33 152 -36 76 -4 111 1 286 41 1652
377 5036 687 8365 767 2377 57 4375 -23 5713 -229 106 -16 210 -29 232 -29 22
0 164 18 315 39 1613 227 3972 292 6870 189 3102 -110 6185 -408 7665 -742
226 -51 310 -51 418 -1 112 53 201 160 226 275 19 86 59 1652 93 3688 17 1004
17 5266 0 6270 -38 2299 -89 4128 -161 5895 -17 394 -21 457 -39 507 -44 124
-136 216 -258 258 -73 25 -140 25 -674 0 -228 -11 -423 -20 -432 -20 -17 0
-18 28 -18 444 0 260 -4 466 -10 497 -32 170 -161 303 -326 337 -90 19 -283
25 -419 13 -241 -22 -509 -88 -817 -200 l-157 -58 2 391 c2 437 3 434 -71 544
-54 82 -119 125 -304 199 -1795 721 -3774 982 -5778 762 -1777 -195 -3500
-773 -5025 -1688 -323 -193 -786 -506 -1065 -720 l-25 -19 -90 69 c-911 707
-1984 1300 -3081 1705 -1417 522 -2948 772 -4439 724z m935 -851 c2061 -105
4120 -829 5785 -2034 165 -119 438 -330 453 -348 5 -7 6 -206 1 -492 -65
-4068 -82 -8596 -48 -12991 6 -788 10 -1436 8 -1441 -2 -6 -62 24 -134 65
-1228 709 -2688 1301 -4175 1692 -1512 398 -3153 597 -4563 552 -372 -12 -649
-29 -932 -57 -167 -17 -465 -53 -507 -61 -24 -5 -27 -2 -32 28 -7 43 -52 1499
-81 2578 -74 2790 -113 5857 -131 10181 l-7 1626 134 53 c549 214 1250 404
1893 515 765 131 1527 175 2336 134z m14467 11 c985 -30 1872 -167 2773 -426
231 -67 588 -184 764 -251 l99 -38 -2 -845 c-6 -3356 -50 -7289 -111 -9870
-32 -1370 -104 -3687 -115 -3698 -1 -2 -94 8 -206 22 -1554 195 -3312 113
-5069 -234 -1148 -227 -2296 -567 -3355 -992 -716 -288 -1310 -572 -2029 -968
l-79 -44 6 610 c37 3385 32 7937 -13 11679 -17 1447 -29 2314 -35 2486 l-5
167 172 129 c1702 1275 3772 2055 5938 2238 206 17 542 35 725 38 72 2 153 4
180 5 28 1 190 -3 362 -8z m-20209 -1817 c58 -20 203 -75 321 -123 l216 -86 7
-565 c4 -310 12 -1345 18 -2299 24 -3884 77 -6769 180 -9810 31 -907 36 -1009
55 -1060 25 -70 59 -122 114 -174 114 -106 239 -128 481 -82 1003 187 2289
224 3500 100 1111 -113 2285 -357 3350 -698 272 -87 409 -134 388 -135 -9 -1
-92 10 -185 24 -887 129 -1896 217 -3048 267 -390 17 -1933 17 -2320 0 -1287
-56 -2391 -168 -3262 -330 l-103 -19 0 7538 0 7538 91 -25 c50 -13 139 -41
197 -61z m25572 -7454 l0 -7541 -22 5 c-13 3 -104 20 -203 36 -962 162 -1974
258 -3275 313 -404 17 -1999 17 -2400 0 -1170 -50 -2094 -126 -3042 -252 -163
-22 -303 -40 -310 -39 -20 1 46 23 287 99 2468 774 5017 1001 7184 638 236
-39 318 -37 414 11 115 56 192 149 221 266 11 43 21 214 36 615 128 3510 181
6445 216 12037 5 766 10 1053 18 1056 433 171 781 290 864 296 9 1 12 -1513
12 -7540z m-26802 6274 l102 -6 0 -7178 c0 -5216 3 -7193 11 -7231 25 -121
123 -243 236 -296 97 -44 189 -43 418 6 1073 231 2361 367 3890 413 433 13
1608 7 1990 -11 540 -24 1124 -61 1465 -93 l135 -13 -310 -7 c-1777 -43 -3159
-115 -4735 -247 -1396 -118 -2787 -291 -3579 -445 -73 -14 -136 -23 -139 -20
-13 13 -50 1753 -74 3425 -15 1085 -15 4448 0 5530 29 2051 63 3451 132 5500
11 333 23 625 26 649 l6 44 161 -7 c89 -3 208 -9 265 -13z m28226 -35 c5 -53
9 -165 46 -1223 50 -1443 80 -2669 112 -4560 17 -982 17 -5255 0 -6240 -17
-1014 -30 -1661 -47 -2350 -8 -324 -15 -622 -15 -661 l0 -71 -97 19 c-971 186
-2717 386 -4483 513 -1372 98 -2660 157 -4200 192 l-325 7 265 22 c416 35 847
61 1435 86 391 17 1981 17 2370 0 1487 -65 2640 -190 3635 -394 290 -59 372
-62 473 -15 111 51 209 170 236 288 7 29 11 2424 11 7232 l0 7187 58 1 c31 1
116 5 187 8 72 4 176 8 232 9 l102 2 5 -52z"/>
<path d="M25387 77219 c-48 -5 -129 -20 -180 -33 -191 -49 -273 -86 -827 -374
-210 -109 -308 -143 -431 -149 -164 -9 -264 29 -734 276 -307 162 -513 236
-743 266 -345 46 -701 -15 -1027 -174 -436 -213 -765 -574 -910 -996 -24 -70
-27 -91 -23 -175 3 -81 9 -104 36 -161 113 -236 419 -311 631 -155 67 49 114
116 151 213 143 373 549 638 950 620 176 -8 233 -28 627 -229 387 -196 496
-242 683 -291 121 -31 131 -32 330 -32 186 0 215 3 315 27 206 49 398 132 775
337 297 162 455 214 576 192 136 -25 234 -93 532 -368 376 -347 553 -461 850
-553 184 -56 255 -65 507 -65 257 1 341 13 541 80 193 64 426 196 516 293 233
249 95 648 -243 703 -70 11 -159 1 -224 -27 -21 -8 -70 -37 -109 -64 -91 -61
-132 -81 -236 -116 -79 -26 -97 -28 -245 -28 -187 -1 -240 10 -380 80 -109 54
-179 109 -439 349 -300 276 -467 394 -671 474 -180 71 -405 101 -598 80z"/>
<path d="M22420 73950 c-490 -39 -950 -223 -1307 -524 -237 -199 -304 -313
-290 -493 15 -204 183 -369 387 -381 146 -8 222 24 363 155 421 391 987 510
1504 317 54 -20 208 -90 343 -156 393 -192 527 -246 735 -293 170 -39 408 -46
580 -17 220 38 386 102 805 313 310 155 400 189 527 196 174 10 241 -21 628
-292 391 -274 632 -370 960 -382 125 -4 166 -2 245 15 204 42 388 144 466 260
53 77 74 144 74 237 0 126 -42 227 -129 308 -145 135 -366 153 -529 42 -97
-66 -293 -4 -547 173 -273 191 -384 262 -495 320 -223 117 -400 162 -633 162
-310 0 -481 -53 -999 -310 -353 -176 -449 -211 -594 -218 -177 -8 -280 27
-724 242 -162 79 -344 163 -405 186 -288 111 -655 165 -965 140z"/>
<path d="M21585 70728 c-347 -39 -743 -183 -1031 -376 -273 -183 -504 -416
-556 -558 -28 -78 -29 -197 -4 -277 37 -115 130 -213 246 -259 44 -18 74 -22
155 -22 156 1 240 43 355 181 176 209 484 383 807 455 83 19 129 22 298 23
359 0 486 -44 1030 -357 411 -237 599 -326 810 -383 148 -41 255 -55 411 -55
325 0 537 76 937 338 103 68 223 140 265 160 184 87 338 47 757 -198 376 -221
618 -313 896 -341 206 -22 399 11 575 96 69 33 103 57 139 97 224 247 93 639
-233 699 -77 15 -149 6 -257 -32 -87 -31 -93 -31 -162 -20 -145 22 -281 81
-543 235 -435 257 -693 346 -1000 346 -298 0 -491 -70 -871 -317 -307 -200
-360 -223 -502 -223 -182 0 -336 63 -788 322 -472 270 -638 346 -904 413 -188
48 -343 65 -563 64 -103 -1 -223 -6 -267 -11z"/>
<path d="M24815 67410 c-104 -12 -250 -50 -351 -90 -166 -66 -306 -158 -571
-375 -192 -157 -279 -218 -350 -245 -139 -52 -257 -10 -593 207 -85 55 -199
125 -252 157 -236 138 -512 230 -798 266 -125 15 -421 12 -557 -5 -310 -41
-627 -152 -880 -308 -221 -138 -463 -359 -522 -478 -105 -214 -24 -462 187
-566 74 -37 79 -38 186 -38 104 0 115 2 178 32 52 24 91 55 163 127 129 129
207 185 360 261 207 103 387 145 621 145 201 0 369 -35 529 -109 75 -35 130
-68 449 -270 235 -148 435 -233 626 -267 138 -24 362 -15 485 19 222 62 391
162 690 408 272 224 349 269 487 290 64 9 94 9 175 -5 176 -29 320 -86 688
-271 354 -178 453 -223 619 -281 369 -129 737 -152 1036 -67 152 43 352 155
430 239 171 186 137 494 -71 633 -76 51 -142 71 -235 71 -91 0 -170 -24 -254
-79 -85 -55 -153 -74 -265 -73 -206 1 -385 63 -840 292 -471 237 -678 316
-933 360 -135 24 -327 32 -437 20z"/>
<path d="M37010 77219 c-41 -5 -120 -20 -175 -34 -229 -57 -383 -135 -840
-424 -242 -154 -394 -214 -535 -213 -136 1 -232 32 -610 200 -458 203 -623
246 -945 246 -223 0 -349 -19 -547 -84 -550 -181 -983 -594 -1162 -1109 -66
-190 -68 -294 -8 -420 107 -227 414 -302 623 -152 76 54 124 128 168 259 60
175 148 304 288 424 223 189 527 281 776 234 118 -23 221 -60 483 -177 277
-123 348 -151 487 -193 167 -50 289 -69 457 -68 332 1 598 99 1055 388 327
207 431 260 563 284 158 28 300 -43 637 -320 254 -209 431 -329 589 -400 524
-235 1162 -180 1642 141 133 90 222 176 257 250 146 312 -108 658 -443 601
-86 -15 -150 -46 -233 -113 -143 -116 -338 -182 -537 -181 -262 1 -374 58
-805 407 -334 270 -557 390 -815 439 -101 20 -278 27 -370 15z"/>
<path d="M37740 73946 c-250 -44 -433 -122 -803 -343 -282 -168 -374 -216
-487 -255 -87 -30 -105 -32 -210 -32 -149 1 -246 27 -525 140 -584 237 -731
280 -1062 305 -286 22 -612 -22 -909 -124 -350 -121 -642 -309 -906 -585 -118
-124 -161 -195 -179 -299 -31 -179 71 -373 238 -451 53 -25 69 -27 178 -27
168 0 196 15 375 195 180 182 316 273 532 356 205 79 439 114 641 94 197 -19
293 -48 683 -209 276 -113 452 -172 619 -207 115 -24 152 -28 320 -28 158 0
206 4 287 22 234 52 444 146 797 357 412 246 552 294 726 250 89 -23 206 -82
425 -214 234 -142 382 -218 520 -265 277 -97 566 -111 794 -39 206 65 372 188
434 321 25 52 27 68 27 177 0 110 -2 124 -27 175 -77 156 -211 240 -383 240
-99 0 -175 -23 -249 -77 -67 -48 -128 -54 -246 -24 -117 31 -193 68 -445 220
-319 192 -490 270 -696 316 -100 22 -369 29 -469 11z"/>
<path d="M33735 70499 c-466 -56 -929 -259 -1282 -563 -161 -139 -330 -336
-380 -443 -97 -209 -7 -456 205 -560 52 -26 66 -28 172 -28 108 0 119 2 180
31 83 39 118 69 185 159 202 268 531 470 890 547 118 25 364 35 476 19 208
-30 310 -68 733 -273 361 -174 479 -226 636 -279 496 -166 921 -121 1318 140
51 33 167 117 259 186 92 70 194 141 228 160 186 104 304 83 755 -135 353
-171 495 -224 715 -267 121 -23 390 -23 492 0 170 39 315 107 395 184 166 162
168 434 4 599 -128 127 -320 156 -494 74 -39 -19 -91 -34 -123 -37 -114 -11
-301 48 -559 177 -307 153 -525 240 -693 274 -299 62 -560 33 -815 -89 -138
-66 -227 -124 -452 -294 -256 -193 -367 -241 -524 -227 -169 16 -309 68 -736
276 -498 242 -668 305 -960 356 -114 19 -504 28 -625 13z"/>
<path d="M37024 67381 c-139 -25 -249 -63 -384 -133 -170 -87 -246 -147 -592
-467 -128 -119 -226 -189 -292 -211 -24 -8 -67 -11 -110 -8 -92 7 -192 46
-389 155 -502 277 -730 355 -1116 383 -149 11 -366 0 -515 -25 -506 -86 -983
-352 -1294 -720 -107 -127 -142 -198 -149 -305 -13 -187 76 -339 244 -418 53
-24 69 -27 173 -27 169 0 192 12 389 215 203 206 321 284 549 364 310 108 642
106 920 -5 43 -16 172 -81 287 -144 470 -256 646 -315 930 -315 195 0 345 34
508 116 154 78 283 177 512 393 154 146 278 247 346 281 189 97 476 52 929
-145 452 -197 618 -256 865 -307 142 -30 162 -32 375 -32 242 -1 314 8 470 60
155 52 338 162 425 255 133 143 153 368 45 525 -88 127 -228 193 -386 181 -87
-6 -153 -34 -241 -99 -101 -74 -172 -92 -336 -85 -213 8 -377 57 -757 222
-547 238 -785 304 -1125 311 -143 3 -201 0 -281 -15z"/>
<path d="M30495 59740 c-78 -5 -150 -15 -180 -25 -245 -85 -354 -367 -232
-598 40 -76 130 -159 204 -188 58 -23 61 -23 558 -24 541 -1 618 -6 864 -61
542 -121 829 -402 945 -924 60 -269 61 -298 60 -1215 0 -815 -9 -1269 -39
-2155 -18 -504 -42 -1082 -51 -1197 l-6 -81 -131 4 c-452 16 -729 21 -775 13
-123 -19 -241 -108 -298 -224 -27 -56 -29 -67 -28 -175 0 -110 3 -124 58 -310
250 -851 593 -1616 992 -2217 131 -196 192 -268 261 -305 143 -77 323 -54 438
55 96 91 458 713 718 1232 256 514 511 1164 524 1337 18 247 -132 464 -368
532 -38 11 -129 19 -298 26 -134 5 -245 10 -246 12 -2 2 3 134 10 293 79 1636
110 3801 61 4200 -46 376 -128 663 -262 925 -142 275 -352 510 -612 683 -291
194 -647 312 -1132 373 -144 18 -820 27 -1035 14z"/>
<path d="M27339 59691 c-69 -22 -136 -67 -175 -118 -86 -113 -525 -955 -678
-1303 -153 -346 -285 -697 -383 -1018 -55 -178 -58 -192 -57 -292 0 -85 5
-117 24 -165 62 -162 179 -271 339 -319 44 -13 104 -16 310 -16 l256 0 1
-1208 c0 -1815 29 -2868 89 -3280 101 -692 353 -1168 790 -1492 463 -343 1085
-479 1965 -430 460 26 536 39 636 113 63 47 99 92 136 172 20 43 23 66 23 165
0 104 -3 121 -27 173 -35 74 -113 156 -186 195 -96 51 -149 56 -377 38 -805
-64 -1293 1 -1617 217 -318 211 -474 554 -532 1167 -42 436 -79 2760 -61 3753
l7 417 207 1 c113 0 323 4 466 8 254 6 261 7 317 33 145 68 238 213 238 374 0
122 -172 626 -377 1109 -97 226 -331 692 -447 890 -163 276 -416 644 -502 729
-97 96 -249 130 -385 87z"/>
<path d="M30382 49669 c-145 -17 -316 -94 -426 -190 -58 -51 -285 -322 -351
-418 -62 -90 -85 -162 -85 -259 0 -99 19 -163 71 -241 110 -165 340 -229 519
-144 84 39 119 69 188 162 71 97 183 231 192 231 11 0 172 -171 234 -249 69
-87 106 -117 186 -155 60 -29 73 -31 170 -31 145 1 200 23 296 119 96 96 118
151 119 296 0 97 -2 110 -31 170 -17 36 -59 101 -94 145 -87 110 -342 368
-416 421 -160 114 -370 167 -572 143z"/>
<path d="M29020 48180 c-74 -16 -152 -60 -208 -119 -39 -41 -176 -258 -511
-811 -251 -415 -465 -775 -475 -800 -10 -25 -20 -77 -23 -116 -10 -128 31
-239 121 -329 165 -165 434 -164 594 4 40 41 174 255 511 811 252 415 466 778
477 805 28 74 26 220 -5 298 -43 108 -133 197 -243 239 -58 22 -175 31 -238
18z"/>
<path d="M31796 48169 c-114 -27 -245 -139 -287 -246 -33 -82 -34 -256 -3
-323 30 -64 949 -1516 993 -1568 46 -56 130 -107 206 -127 200 -51 396 39 487
223 32 64 33 72 33 182 0 96 -4 123 -21 160 -31 68 -971 1550 -1004 1585 -94
98 -266 146 -404 114z"/>
<path d="M33525 45482 c-120 -41 -196 -109 -249 -221 -26 -56 -32 -80 -34
-158 -3 -68 1 -107 13 -148 24 -74 956 -1550 1022 -1618 198 -202 544 -145
670 111 37 74 38 79 38 186 0 99 -3 117 -26 166 -28 60 -932 1493 -978 1550
-45 56 -121 109 -190 130 -80 25 -197 26 -266 2z"/>
<path d="M27141 45195 c-75 -21 -142 -59 -189 -108 -57 -60 -1026 -1526 -1046
-1584 -38 -109 -29 -240 25 -345 28 -54 114 -140 170 -168 169 -87 370 -57
497 74 46 48 985 1453 1029 1541 87 173 33 400 -123 519 -95 73 -249 103 -363
71z"/>
<path d="M35375 42497 c-118 -40 -207 -117 -258 -225 -26 -56 -32 -82 -35
-158 -3 -62 0 -108 10 -142 9 -28 213 -393 464 -828 494 -856 495 -857 621
-917 64 -30 75 -32 178 -32 103 0 114 2 177 32 88 41 160 113 201 201 28 58
32 80 35 162 3 74 -1 108 -15 150 -27 78 -898 1582 -951 1641 -29 33 -69 61
-119 86 -69 34 -84 38 -172 40 -60 2 -111 -2 -136 -10z"/>
<path d="M25387 42280 c-49 -13 -90 -34 -152 -79 -43 -31 -114 -134 -554 -796
-382 -575 -511 -776 -528 -825 -55 -158 -5 -348 120 -455 154 -132 394 -133
552 -3 26 22 199 274 532 776 271 409 504 765 518 792 102 202 15 455 -192
557 -68 34 -84 37 -167 40 -50 1 -108 -2 -129 -7z"/>
<path d="M27947 40920 c-121 -13 -297 -54 -432 -100 -237 -82 -541 -229 -710
-343 -123 -83 -314 -275 -394 -397 -394 -592 -398 -1404 -12 -2044 241 -398
622 -677 1071 -783 155 -37 417 -43 585 -15 296 51 556 177 795 385 110 95
164 173 192 274 21 74 22 100 24 476 l2 399 23 15 c56 38 117 112 134 163 23
71 17 169 -15 235 -34 70 -117 150 -193 186 l-63 29 -685 -8 -684 -7 -56 -26
c-196 -92 -258 -372 -115 -527 118 -128 366 -175 732 -138 89 9 180 16 203 16
l41 0 0 -288 0 -288 -32 -31 c-58 -55 -149 -112 -227 -142 -544 -210 -1157
153 -1306 773 -51 209 -51 433 0 631 42 165 118 288 269 433 178 170 417 297
786 417 102 33 127 38 220 38 104 1 107 1 255 -55 177 -66 251 -82 344 -76 85
6 150 36 212 98 55 55 79 118 79 206 0 154 -103 295 -283 385 -162 82 -522
133 -760 109z"/>
<path d="M30125 40861 l-241 -6 -66 -33 c-169 -83 -248 -288 -172 -447 23 -49
105 -122 172 -153 51 -24 73 -27 217 -33 88 -3 161 -7 163 -8 1 0 2 -486 2
-1078 l0 -1078 -101 3 c-243 8 -364 -50 -437 -207 -22 -46 -26 -71 -26 -136 0
-65 4 -90 26 -136 36 -78 89 -133 165 -171 l64 -31 427 -9 c489 -11 729 -6
818 16 140 35 226 91 272 180 35 69 38 196 5 269 -30 65 -115 151 -182 184
-54 27 -62 28 -208 28 l-153 -1 0 1083 0 1083 58 0 c118 1 244 20 303 46 65
29 125 88 160 156 33 65 38 176 9 250 -28 75 -100 153 -181 197 l-64 35 -395
1 c-217 1 -503 -1 -635 -4z"/>
<path d="M32385 40828 c-202 -6 -293 -12 -332 -23 -73 -21 -162 -105 -205
-193 -30 -60 -33 -76 -33 -152 0 -127 36 -184 146 -234 143 -66 345 -90 707
-85 l241 4 3 -1325 c3 -1276 4 -1327 22 -1375 26 -67 100 -138 184 -178 61
-29 75 -32 167 -32 92 0 105 2 160 31 76 39 119 94 136 171 9 45 12 365 11
1386 l-2 1327 248 -6 c332 -9 606 17 702 66 51 26 97 76 116 126 26 69 16 183
-23 267 -39 83 -119 169 -187 201 l-51 25 -865 3 c-476 2 -991 0 -1145 -4z"/>
<path d="M37251 39639 c-63 -11 -140 -48 -197 -95 -118 -96 -173 -282 -128
-435 23 -79 894 -1586 957 -1655 89 -99 239 -150 373 -127 260 45 419 317 326
560 -22 58 -891 1561 -933 1614 -82 104 -253 163 -398 138z"/>
<path d="M23450 39272 c-68 -23 -124 -58 -172 -108 -54 -57 -1008 -1500 -1034
-1564 -101 -250 56 -527 324 -571 122 -20 253 17 343 97 28 26 211 293 536
782 271 408 500 757 509 775 41 78 54 195 33 286 -28 123 -134 248 -246 292
-80 31 -217 36 -293 11z"/>
<path d="M39095 36589 c-173 -25 -317 -170 -346 -350 -12 -74 0 -166 29 -231
26 -58 887 -1544 919 -1586 84 -111 272 -176 414 -142 211 50 339 223 326 439
-2 48 -10 100 -17 116 -32 73 -909 1581 -942 1620 -92 105 -234 155 -383 134z"/>
<path d="M21726 36529 c-69 -16 -156 -70 -207 -128 -70 -81 -998 -1485 -1027
-1554 -32 -79 -39 -175 -18 -254 22 -89 50 -138 112 -200 155 -155 412 -162
576 -15 52 47 1022 1503 1055 1585 45 110 39 247 -16 355 -83 163 -289 254
-475 211z"/>
<path d="M15073 36380 c-53 -12 -121 -58 -151 -103 -75 -110 -72 -157 28 -477
44 -140 100 -316 125 -390 25 -74 45 -137 45 -141 0 -4 -26 -15 -57 -24 -386
-112 -1008 -334 -1452 -519 -2503 -1044 -4731 -2723 -6450 -4861 -1099 -1367
-1980 -2919 -2546 -4487 -15 -43 -32 -78 -37 -78 -13 0 -376 82 -622 142 -262
62 -310 59 -406 -28 -54 -49 -82 -105 -88 -179 -4 -54 7 -99 107 -455 209
-736 328 -1118 498 -1590 94 -263 113 -301 179 -359 62 -55 136 -81 228 -81
94 0 150 20 219 78 106 89 1600 1650 1632 1705 26 45 30 61 29 127 0 57 -6 86
-23 122 -26 55 -84 111 -137 133 -20 8 -201 56 -402 106 -202 50 -369 93 -371
94 -5 6 122 337 219 570 616 1479 1502 2898 2574 4125 338 386 903 964 1254
1283 1705 1547 3664 2676 5772 3326 l159 48 49 -141 c27 -77 84 -247 126 -376
43 -129 88 -254 102 -276 27 -47 98 -99 158 -115 60 -16 146 -5 204 26 48 26
122 104 591 619 451 496 958 1106 1010 1216 22 47 26 69 26 145 0 78 -4 97
-28 147 -32 65 -94 131 -151 160 -45 23 -2298 519 -2349 517 -18 -1 -46 -4
-64 -9z"/>
<path d="M45445 36246 c-275 -79 -583 -169 -685 -200 -408 -126 -1013 -338
-1074 -375 -52 -33 -104 -93 -132 -156 -23 -50 -28 -74 -28 -141 0 -72 4 -89
32 -147 30 -61 91 -122 875 -877 487 -470 859 -821 882 -832 55 -29 150 -35
213 -14 67 23 134 83 161 145 12 28 62 213 111 412 49 199 91 364 93 366 6 6
411 -152 647 -252 532 -226 984 -449 1490 -733 2325 -1308 4315 -3249 5702
-5563 460 -767 845 -1558 1162 -2392 129 -339 358 -1029 345 -1041 -2 -2 -175
-61 -384 -131 -209 -69 -391 -133 -404 -142 -41 -27 -73 -66 -99 -122 -21 -46
-24 -64 -20 -126 3 -51 12 -85 29 -116 32 -58 687 -661 1138 -1048 262 -224
651 -532 700 -554 64 -28 183 -35 249 -13 103 35 191 121 221 216 6 19 119
530 252 1135 175 795 241 1118 242 1165 0 149 -122 270 -273 270 -48 0 -324
-82 -672 -199 l-177 -59 -16 56 c-82 283 -250 770 -392 1137 -1493 3845 -4558
7107 -8298 8830 -368 170 -905 391 -1179 486 -37 13 -70 30 -73 36 -5 13 65
333 138 627 48 195 51 268 13 344 -43 87 -124 140 -227 148 -57 4 -103 -8
-562 -140z"/>
<path d="M36774 34790 c-63 -9 -152 -49 -206 -92 -95 -75 -155 -218 -146 -350
13 -174 110 -305 276 -369 57 -22 60 -22 984 -32 922 -9 928 -9 996 12 131 39
241 150 278 279 25 83 16 220 -18 295 -52 112 -175 211 -293 235 -31 7 -369
13 -890 17 -462 3 -860 7 -885 9 -25 2 -68 0 -96 -4z"/>
<path d="M29608 34772 c-230 -62 -360 -302 -288 -535 40 -129 152 -238 285
-276 57 -16 1848 -36 1917 -22 124 27 233 113 290 229 28 55 33 78 36 157 5
114 -12 178 -69 264 -49 74 -130 134 -214 160 -57 18 -111 20 -681 25 -340 3
-752 8 -914 11 -261 4 -303 3 -362 -13z"/>
<path d="M33280 34778 c-74 -13 -162 -63 -219 -123 -97 -103 -135 -234 -107
-371 31 -154 128 -264 276 -314 63 -21 84 -22 973 -31 646 -7 923 -7 960 1
221 45 367 258 330 476 -25 143 -110 255 -241 317 l-67 32 -390 6 c-669 12
-1468 16 -1515 7z"/>
<path d="M22360 34764 c-250 -67 -380 -356 -265 -590 53 -109 164 -198 277
-223 68 -16 1836 -33 1902 -19 218 45 364 257 328 474 -24 143 -108 255 -240
317 l-67 31 -260 7 c-143 4 -566 9 -940 12 -579 5 -688 4 -735 -9z"/>
<path d="M25989 34747 c-155 -53 -251 -167 -279 -330 -29 -166 55 -347 200
-430 97 -56 92 -55 1060 -65 492 -4 917 -5 944 -1 219 35 376 259 338 481 -23
135 -118 260 -239 315 -78 36 -170 40 -1148 47 l-810 6 -66 -23z"/>
<path d="M23169 33547 c-70 -20 -135 -63 -179 -118 -125 -158 -1248 -1660
-1262 -1689 -22 -43 -23 -128 -2 -178 27 -66 92 -121 168 -143 32 -10 389 -33
694 -45 l172 -7 0 -381 c0 -209 -9 -1751 -20 -3426 -11 -1675 -20 -3195 -20
-3379 l0 -334 -442 7 -443 7 -62 -31 c-104 -52 -159 -156 -134 -255 15 -61
455 -800 705 -1185 110 -170 286 -429 378 -557 107 -150 188 -196 338 -196
106 1 176 25 242 85 44 41 1231 1674 1271 1748 28 54 21 163 -16 219 -35 53
-104 97 -171 110 -52 10 -541 31 -723 31 l-103 0 0 158 c-1 404 43 7348 47
7351 2 3 169 -2 371 -10 202 -8 395 -13 429 -12 169 5 293 146 254 290 -11 40
-370 676 -558 989 -227 377 -525 826 -581 875 -61 54 -136 82 -227 86 -45 1
-100 -3 -126 -10z"/>
<path d="M35895 33547 c-65 -22 -118 -53 -151 -89 -45 -48 -1268 -1677 -1288
-1715 -23 -45 -21 -144 3 -191 26 -50 77 -97 132 -121 48 -21 263 -38 728 -57
l174 -7 -6 -766 c-4 -421 -14 -2098 -22 -3726 -9 -1628 -19 -2975 -21 -2994
l-5 -34 -431 7 c-375 6 -436 5 -477 -9 -127 -42 -200 -179 -157 -295 14 -41
338 -586 539 -910 240 -384 571 -871 625 -918 80 -68 203 -101 311 -82 70 12
166 57 199 93 42 47 1228 1695 1249 1736 58 114 4 251 -123 310 -55 26 -178
36 -622 47 l-267 7 2 331 c2 182 12 1870 24 3751 11 1881 22 3422 25 3424 2 3
170 -2 372 -10 202 -8 396 -13 432 -12 158 5 277 137 251 279 -12 61 -491 897
-739 1289 -174 275 -371 563 -404 591 -61 51 -132 76 -227 80 -54 3 -101 -1
-126 -9z"/>
<path d="M55555 22246 c-203 -66 -364 -251 -392 -451 l-6 -45 -38 44 c-81 91
-190 131 -336 124 -82 -5 -103 -10 -166 -41 -228 -113 -348 -410 -293 -723 42
-245 209 -592 354 -740 l50 -50 -116 -120 c-186 -190 -322 -368 -545 -714
-174 -269 -196 -316 -247 -537 -18 -77 -21 -117 -19 -261 l2 -170 -32 -38
c-47 -58 -109 -189 -126 -269 -31 -148 -10 -310 58 -445 38 -77 139 -188 201
-221 45 -24 45 -24 91 -159 82 -239 213 -481 355 -655 118 -143 310 -310 441
-382 l51 -28 -6 -50 c-3 -27 -6 -114 -6 -191 l0 -141 -38 -7 c-80 -12 -156
-62 -259 -169 -321 -334 -594 -737 -889 -1312 -172 -336 -247 -503 -697 -1540
-331 -761 -544 -1196 -795 -1620 -260 -438 -516 -783 -839 -1130 -76 -83 -148
-166 -160 -185 -39 -64 -56 -145 -51 -245 3 -82 8 -101 40 -166 23 -47 57 -94
92 -128 l55 -54 -162 -122 c-215 -161 -260 -225 -274 -391 -10 -125 35 -271
117 -374 l29 -37 -120 -242 c-66 -132 -125 -241 -129 -241 -54 0 -469 -66
-536 -85 -436 -125 -747 -500 -794 -960 -6 -55 -8 -131 -5 -170 24 -281 316
-1443 438 -1743 96 -236 310 -456 550 -567 186 -86 342 -110 647 -101 1240 38
2287 233 3195 596 94 37 204 84 247 103 l76 35 6 -42 c10 -75 45 -476 66 -766
49 -695 75 -1548 65 -2185 -3 -225 -8 -422 -11 -436 -5 -26 -6 -26 -62 -17
-227 37 -578 -161 -736 -415 -308 -494 -11 -1132 583 -1252 111 -23 302 -17
416 13 214 56 379 155 540 323 99 103 174 215 258 384 63 127 193 425 215 495
21 66 164 1073 252 1781 75 598 220 1960 220 2059 0 28 43 -43 245 -405 368
-661 766 -1458 1078 -2160 117 -263 327 -762 327 -775 0 -4 -15 -11 -32 -14
-51 -9 -148 -59 -206 -105 -119 -95 -245 -293 -298 -467 -24 -77 -27 -107 -28
-229 -1 -166 12 -225 81 -365 39 -80 60 -109 142 -191 136 -136 268 -208 450
-245 112 -22 304 -15 409 15 405 117 691 472 764 951 9 57 13 196 13 425 l0
340 -83 295 c-386 1372 -621 2140 -1008 3295 -138 413 -270 805 -294 872 l-44
122 60 63 c153 160 281 418 349 703 104 438 105 977 5 1885 -26 227 -25 250 4
309 82 161 209 494 287 751 275 906 361 1878 244 2755 -159 1185 -684 2116
-1530 2712 -204 144 -520 317 -601 329 l-44 6 1 152 c1 83 4 183 8 222 l6 72
90 70 c218 169 416 421 546 697 51 109 127 309 159 421 19 63 26 75 77 118
162 136 243 309 243 517 0 148 -38 265 -121 376 l-47 61 -4 129 c-3 119 -5
133 -35 195 -17 36 -53 89 -81 118 -46 47 -53 63 -96 193 -121 367 -317 688
-586 958 -69 69 -143 140 -164 157 l-39 31 94 94 c246 246 382 537 383 817 0
126 -13 188 -66 298 -94 199 -294 316 -485 282 -117 -20 -205 -71 -264 -153
-27 -37 -28 -38 -33 -15 -22 115 -32 147 -63 209 -120 240 -397 364 -638 285z
m679 -2919 c45 -110 103 -201 189 -293 93 -99 183 -169 291 -225 l79 -42 -6
-171 c-33 -895 -331 -1489 -806 -1611 -200 -51 -456 -17 -678 90 -278 135
-453 382 -558 790 -52 202 -82 430 -101 756 l-6 116 188 7 c104 3 335 8 514
11 179 3 379 8 446 11 l120 6 18 66 c10 37 39 114 65 172 49 111 200 390 210
390 3 0 19 -33 35 -73z m-404 -3359 c0 -84 3 -170 7 -192 l6 -39 -91 5 c-50 2
-93 6 -96 9 -2 2 0 24 4 49 5 25 9 107 10 183 l0 137 80 0 80 0 0 -152z m380
-1024 c0 -10 -402 -945 -405 -942 -9 10 -445 931 -442 934 2 2 48 -3 103 -11
215 -32 476 -28 664 10 84 16 80 16 80 9z m948 -301 c701 -694 1011 -1836 861
-3167 -97 -869 -396 -1749 -738 -2179 -83 -104 -84 -105 -114 -65 -50 65 -137
212 -148 248 -11 35 -9 40 53 141 402 651 597 1199 598 1676 0 151 -11 246
-46 382 -50 198 -129 311 -262 374 -63 30 -74 32 -177 32 -103 0 -114 -2 -177
-32 -88 -41 -160 -113 -201 -201 -27 -57 -32 -80 -35 -160 -4 -81 0 -104 25
-180 26 -79 28 -99 27 -227 0 -118 -4 -158 -27 -250 -15 -60 -31 -116 -35
-122 -16 -25 -447 -106 -732 -137 -463 -52 -1044 -46 -1482 14 -46 7 -84 13
-86 15 -2 2 8 25 22 53 150 295 301 765 357 1106 20 121 21 146 11 207 -23
135 -110 253 -231 312 -63 30 -72 32 -181 32 -109 0 -119 -2 -183 -32 -40 -19
-86 -52 -115 -81 -77 -79 -99 -132 -132 -309 -90 -485 -279 -931 -607 -1430
-205 -313 -548 -724 -795 -952 l-67 -63 -56 17 c-59 17 -292 132 -334 164
l-24 18 76 90 c189 224 441 580 624 883 326 540 544 987 1028 2110 103 239
232 534 287 655 164 362 454 925 477 925 4 0 198 -399 432 -887 395 -826 427
-891 476 -940 32 -34 77 -65 120 -86 64 -30 75 -32 179 -32 107 0 112 1 186
38 94 46 158 113 203 212 17 39 211 487 430 998 219 510 402 927 407 927 4 0
52 -44 106 -97z m-2393 -4723 c399 -36 1153 -18 1488 36 l39 6 -25 -39 c-82
-130 -109 -226 -108 -388 0 -123 27 -250 79 -373 l29 -69 -118 -89 c-136 -102
-189 -165 -219 -261 -55 -178 0 -383 141 -524 232 -231 607 -222 907 21 l64
51 120 0 c129 -1 206 17 318 74 l48 25 6 -63 c30 -347 1 -786 -66 -1006 -45
-148 -143 -301 -192 -301 -10 0 -48 -13 -84 -29 l-67 -29 -395 -5 c-217 -4
-629 -11 -915 -18 -786 -17 -1504 12 -1618 66 -47 22 -106 81 -128 130 -32 69
-32 63 105 1540 55 592 116 1269 116 1293 0 4 78 -2 173 -14 94 -12 231 -27
302 -34z m-1411 -995 c-19 -198 -36 -365 -38 -371 -4 -10 -158 -72 -290 -117
l-70 -23 -60 75 c-33 42 -111 129 -174 193 l-114 117 49 6 c225 29 324 88 603
361 69 68 125 122 126 121 1 -1 -14 -164 -32 -362z m-128 -1372 c-15 -147 -19
-414 -6 -490 68 -428 390 -783 805 -888 51 -13 167 -31 256 -39 89 -9 163 -17
165 -18 1 -2 5 -26 9 -53 l6 -51 -178 -86 c-663 -322 -1464 -535 -2393 -637
-344 -38 -947 -70 -1049 -56 -68 9 -149 59 -187 116 -63 94 -283 908 -378
1394 -32 164 -23 218 50 304 66 79 95 85 894 181 514 62 840 107 1100 155 220
40 573 125 760 184 69 21 131 39 139 40 11 1 12 -11 7 -56z m3956 -1633 c103
-294 440 -1301 436 -1305 -1 -2 -56 95 -122 216 -208 383 -471 838 -673 1161
-40 65 -73 120 -73 123 0 3 82 4 182 3 l181 -3 69 -195z m-1566 83 c-38 -477
-129 -1496 -140 -1558 -2 -11 -4 2 -5 28 -5 204 -135 1438 -167 1590 l-6 27
162 0 162 0 -6 -87z"/>
<path d="M3780 22054 c-776 -67 -1361 -377 -1716 -909 -80 -121 -177 -316
-219 -440 -97 -287 -120 -634 -56 -858 l20 -68 -29 -47 c-16 -26 -41 -83 -56
-127 -24 -70 -28 -95 -28 -205 0 -111 3 -134 28 -205 52 -152 153 -279 271
-340 l57 -30 44 -125 c81 -229 220 -486 351 -650 134 -167 340 -345 521 -449
l92 -53 0 -78 c0 -174 -14 -499 -21 -494 -11 7 -190 -15 -305 -37 -764 -146
-1454 -606 -1941 -1295 -212 -299 -405 -687 -543 -1090 -105 -308 -181 -604
-221 -869 -26 -168 -36 -509 -20 -666 65 -624 395 -1158 985 -1596 56 -42 102
-79 104 -83 2 -5 -22 -118 -52 -252 -30 -134 -89 -403 -130 -598 -90 -430
-143 -666 -201 -907 -55 -225 -60 -263 -46 -337 22 -120 90 -221 189 -284 71
-45 334 -125 645 -196 26 -6 27 -8 13 -34 -27 -52 -36 -110 -56 -353 -62 -738
-115 -1257 -349 -3409 -121 -1106 -190 -1804 -241 -2406 -23 -277 -19 -319 36
-424 l34 -65 -14 -60 c-41 -173 -51 -279 -50 -515 0 -333 35 -526 126 -701
115 -224 335 -354 633 -375 101 -7 328 8 462 31 346 60 604 227 731 473 81
157 104 268 103 496 -1 212 -19 353 -67 536 -24 86 -24 97 -11 120 31 52 47
141 62 355 195 2731 381 4295 531 4463 l24 27 25 -28 c138 -155 247 -1435 335
-3952 22 -639 53 -1128 75 -1202 8 -26 28 -70 45 -97 27 -43 32 -61 40 -160
13 -152 37 -302 66 -419 123 -492 439 -808 929 -931 366 -91 964 -94 1463 -6
415 74 684 268 777 562 96 304 -21 645 -306 895 -207 181 -502 315 -834 378
-77 15 -149 28 -161 31 -21 4 -21 9 -28 356 -52 2687 -219 4613 -522 6027 -19
90 -33 166 -30 168 3 3 68 15 144 27 l140 22 5 -141 c7 -199 44 -293 160 -407
127 -125 336 -183 529 -148 53 10 59 9 127 -24 166 -79 349 -69 517 29 112 66
234 226 291 383 52 143 57 187 55 477 -3 290 5 375 43 435 44 73 52 104 94
390 95 643 134 1205 134 1895 0 554 -20 928 -79 1455 -72 652 -215 1394 -379
1975 -212 750 -526 1277 -973 1633 -313 249 -678 410 -1044 462 l-88 12 6 271
c5 205 10 274 19 282 7 6 55 39 106 75 52 36 146 117 210 180 255 252 432 551
565 954 l42 130 71 53 c90 68 152 145 201 248 52 110 65 171 64 300 0 93 -4
122 -28 190 -15 44 -34 90 -42 103 -12 18 -13 33 -3 89 15 84 6 311 -16 413
-63 292 -229 635 -433 894 -83 107 -295 313 -404 394 -308 230 -659 374 -1053
433 -124 18 -443 32 -545 23z m625 -1506 c237 -77 400 -214 644 -538 69 -91
145 -189 169 -217 l44 -52 -17 -133 c-101 -807 -411 -1292 -912 -1430 -107
-30 -395 -32 -523 -5 -663 142 -979 597 -1065 1532 l-6 70 46 28 c119 71 217
81 419 45 261 -46 432 -21 605 89 210 134 371 374 406 607 l7 47 47 -7 c25 -3
87 -19 136 -36z m-219 -3437 l-1 -200 -48 -6 c-26 -4 -92 -10 -147 -14 l-100
-6 0 151 c0 83 3 179 6 213 l7 61 141 0 142 0 0 -199z m868 -946 c257 -53 482
-180 691 -390 289 -289 459 -645 630 -1320 165 -654 273 -1299 329 -1975 54
-649 54 -1374 1 -2005 -13 -152 -56 -558 -59 -561 0 -1 -125 12 -276 27 -151
16 -280 28 -286 29 -8 0 -13 146 -17 528 -6 627 -28 971 -98 1502 -61 473
-205 1202 -294 1496 -43 141 -129 234 -264 285 -47 17 -73 20 -157 17 -89 -3
-107 -7 -167 -36 -145 -72 -236 -217 -237 -378 0 -28 22 -140 49 -250 95 -384
172 -783 226 -1169 35 -249 39 -233 -50 -173 -46 31 -75 57 -75 68 0 9 -16 50
-36 89 -69 139 -219 253 -384 292 -68 16 -230 16 -288 0 l-44 -12 -49 46 c-72
67 -136 93 -291 116 -440 67 -851 255 -1103 503 -109 106 -168 193 -197 289
-26 85 -20 145 22 251 54 134 50 252 -11 374 -97 194 -351 277 -555 180 -76
-35 -156 -117 -197 -200 -132 -274 -151 -598 -52 -894 173 -514 721 -973 1447
-1213 l97 -32 -41 -117 c-22 -64 -44 -121 -48 -125 -9 -10 -362 79 -600 152
-509 154 -887 329 -1181 547 -141 104 -358 324 -437 441 -99 150 -161 297
-193 458 -21 107 -19 441 5 580 27 164 100 447 168 649 237 713 602 1231 1098
1561 195 129 417 230 624 285 195 51 219 53 348 30 506 -90 972 -88 1398 7 63
14 147 36 185 49 61 21 84 23 181 19 61 -2 145 -11 188 -20z m-3104 -5251
c269 -109 777 -256 1295 -374 230 -52 285 -60 365 -49 72 10 173 55 208 92
l23 24 90 -33 c213 -81 436 -120 629 -111 148 7 252 31 368 87 104 50 161 88
240 164 l62 59 0 -354 c0 -195 -5 -439 -11 -544 -17 -294 -15 -361 9 -424 12
-30 20 -56 18 -58 -5 -6 -149 -22 -356 -40 -252 -21 -1066 -25 -1365 -5 -590
39 -1081 96 -1528 178 -208 38 -394 78 -403 87 -3 3 3 45 15 94 16 70 205 949
253 1181 6 28 14 52 18 52 3 0 35 -12 70 -26z m34 -9082 c37 -7 40 -10 58 -62
27 -80 48 -225 49 -337 0 -82 -2 -99 -17 -110 -33 -24 -124 -43 -281 -58 l-62
-6 -8 48 c-13 76 -8 370 8 448 13 65 16 70 44 76 41 9 161 9 209 1z m3412
-632 c385 -22 650 -72 818 -154 88 -43 146 -86 115 -86 -8 0 -75 -9 -150 -20
-190 -28 -456 -40 -656 -29 -384 19 -545 88 -619 264 l-14 35 164 0 c90 0 244
-5 342 -10z"/>
<path d="M23420 21404 c-548 -37 -1041 -220 -1498 -558 -129 -95 -345 -310
-425 -423 -76 -108 -158 -266 -196 -378 -94 -281 -78 -622 39 -855 23 -46 29
-74 35 -167 l7 -112 -34 -43 c-206 -255 -188 -644 41 -867 26 -26 68 -57 93
-70 43 -23 45 -27 72 -113 37 -123 120 -313 190 -437 144 -255 357 -481 591
-626 l77 -49 -4 -292 c-2 -162 -6 -296 -9 -298 -3 -3 -57 9 -120 26 -163 44
-244 43 -413 -6 -749 -216 -1404 -573 -1858 -1014 -219 -213 -385 -434 -498
-666 -141 -287 -201 -581 -201 -976 0 -294 31 -491 117 -750 131 -396 409
-777 749 -1026 36 -26 65 -53 65 -58 0 -6 -9 -81 -20 -166 -58 -460 -83 -885
-83 -1410 0 -651 43 -1212 138 -1798 29 -178 52 -235 126 -317 78 -84 138
-109 362 -147 l187 -32 0 -27 c0 -33 -51 -546 -86 -864 -41 -377 -119 -1032
-219 -1845 -200 -1626 -266 -2208 -340 -3000 l-7 -65 -86 -34 c-129 -51 -365
-171 -469 -240 -162 -106 -291 -245 -363 -390 -98 -197 -96 -452 6 -653 47
-96 87 -148 176 -234 155 -150 338 -234 623 -284 586 -104 1045 -97 1396 21
444 149 761 454 873 840 65 225 56 487 -24 689 l-21 54 24 45 c14 25 28 64 31
86 3 22 26 283 51 580 213 2551 420 3917 588 3893 131 -19 250 -824 352 -2373
30 -458 59 -989 95 -1750 11 -231 23 -440 26 -465 8 -62 26 -101 67 -146 l35
-39 -14 -65 c-21 -100 -18 -303 7 -423 72 -356 313 -650 684 -835 222 -110
437 -164 725 -182 307 -18 845 37 1115 115 346 101 596 338 669 636 20 83 21
253 1 338 -48 203 -190 386 -415 536 -122 82 -400 217 -563 275 l-127 45 0
113 c0 232 -36 964 -70 1452 -100 1404 -300 2791 -563 3912 l-53 227 45 7
c267 36 528 78 581 94 115 34 203 108 256 215 26 55 60 213 93 445 81 555 89
1104 25 1675 -14 126 -73 501 -88 565 -6 22 0 29 41 54 26 16 95 64 153 105
601 433 1040 1109 1194 1836 51 245 60 342 60 625 -1 283 -9 372 -60 598 -238
1070 -1157 1973 -2302 2261 -242 61 -532 97 -724 89 l-111 -5 7 96 c3 53 6
153 6 223 l0 126 66 47 c86 62 240 209 316 304 174 216 318 500 410 808 27 90
38 114 59 127 43 25 130 117 170 179 149 231 136 566 -29 750 l-38 42 3 98 c2
90 4 100 33 142 90 131 155 330 168 512 19 266 -26 499 -142 738 -270 553
-896 906 -1646 928 -80 3 -170 3 -200 1z m-279 -1296 c98 -33 261 -176 379
-333 37 -49 115 -166 173 -260 189 -305 311 -457 443 -551 64 -46 181 -104
209 -104 17 0 17 -1 -6 -220 -57 -526 -235 -948 -486 -1155 -169 -139 -380
-201 -597 -175 -444 53 -731 288 -886 725 -64 183 -118 459 -135 695 -3 47 -8
99 -11 116 -4 27 0 34 33 56 111 74 194 206 232 368 11 47 31 168 45 270 36
259 75 384 152 487 32 42 101 82 161 93 60 11 250 4 294 -12z m202 -3648 l62
0 -3 -137 c-3 -98 1 -157 11 -203 9 -36 14 -67 12 -69 -7 -6 -176 -23 -181
-18 -3 2 -2 102 2 221 6 182 9 216 21 211 8 -3 42 -5 76 -5z m1215 -1021 c605
-65 1197 -390 1590 -872 312 -382 467 -830 449 -1302 -15 -404 -145 -796 -378
-1145 -304 -454 -739 -763 -1264 -895 -221 -55 -341 -69 -600 -69 -237 0 -345
10 -550 55 -119 25 -358 101 -348 110 5 3 46 19 93 34 332 108 612 230 1140
493 528 264 528 264 614 437 64 129 77 209 53 321 -9 43 -13 80 -9 83 5 4 66
51 138 107 125 97 266 200 466 337 53 37 113 87 132 110 118 144 128 352 24
507 -44 66 -100 111 -203 163 -362 180 -779 162 -1095 -48 -80 -54 -192 -162
-244 -238 l-37 -54 -56 19 c-88 30 -203 21 -397 -30 -259 -69 -580 -116 -843
-124 l-92 -3 -5 30 c-4 17 -26 74 -50 127 -146 325 -441 584 -785 692 -148 47
-247 59 -436 53 -142 -4 -187 -9 -273 -32 -239 -62 -424 -163 -593 -323 -104
-99 -145 -164 -166 -267 -13 -65 -13 -90 -4 -148 26 -157 130 -285 272 -332
24 -8 132 -28 239 -45 107 -16 204 -32 216 -35 18 -4 22 -14 27 -62 7 -78 46
-162 103 -224 87 -92 148 -117 423 -173 345 -72 617 -99 986 -98 352 0 621 26
938 89 71 14 129 24 130 22 2 -2 24 -29 50 -61 26 -31 47 -61 47 -67 0 -11
-210 -115 -425 -211 -948 -420 -1761 -532 -2445 -335 -242 70 -514 201 -701
340 -107 78 -257 235 -324 339 -152 233 -216 463 -215 774 0 257 31 413 114
587 118 244 321 466 626 685 289 207 689 403 1069 525 l113 36 137 -30 c359
-80 505 -96 886 -96 344 0 421 7 662 60 138 31 376 109 483 159 85 40 144 44
318 25z m-3359 -4225 c260 -71 486 -103 791 -111 l215 -6 60 -52 c297 -256
717 -478 1135 -600 533 -155 1140 -176 1668 -59 63 14 116 23 118 21 9 -9 54
-345 71 -522 19 -216 22 -695 4 -895 -12 -146 -42 -393 -47 -398 -1 -2 -63
-12 -136 -23 -926 -129 -1972 -159 -2948 -83 -290 22 -897 93 -1031 120 -26 5
-26 6 -48 187 -56 480 -75 789 -74 1277 0 388 9 612 39 940 21 240 23 252 43
245 9 -4 72 -22 140 -41z m446 -9901 c12 -4 14 -14 9 -42 -19 -103 -111 -204
-247 -271 -206 -101 -459 -118 -897 -59 -176 23 -290 46 -290 59 0 13 148 91
270 143 240 102 467 156 760 181 60 5 376 -3 395 -11z m3301 7 c277 -22 503
-77 754 -182 104 -44 270 -129 270 -139 0 -14 -242 -54 -480 -80 -140 -15
-376 -15 -475 1 -239 36 -436 149 -501 285 -31 65 -32 103 -1 110 63 14 282
17 433 5z"/>
<path d="M35780 21220 c-661 -69 -1265 -385 -1647 -860 -696 -866 -986 -2064
-727 -3006 120 -438 361 -829 684 -1108 52 -46 117 -97 143 -115 78 -53 209
-110 305 -132 l89 -21 -101 -91 c-154 -137 -438 -427 -561 -571 -471 -550
-775 -1111 -928 -1711 -71 -279 -96 -461 -104 -765 -8 -332 13 -559 83 -875
95 -426 285 -876 541 -1281 l51 -79 -24 -305 c-23 -292 -50 -588 -184 -2040
-33 -360 -63 -711 -66 -780 -16 -334 102 -632 339 -857 198 -188 412 -277 736
-307 88 -8 156 -19 160 -25 4 -6 22 -118 39 -249 112 -834 182 -1702 212
-2637 11 -351 13 -1165 3 -1394 l-6 -152 -76 6 c-102 9 -201 -13 -320 -70
-124 -60 -199 -114 -292 -212 -90 -95 -150 -191 -193 -311 -29 -83 -31 -94
-31 -242 0 -135 3 -165 23 -230 90 -286 327 -514 617 -592 116 -31 344 -31
468 0 156 39 304 112 428 212 l62 50 31 -25 c221 -180 378 -249 603 -262 253
-15 489 77 687 266 218 210 348 497 401 891 14 104 435 4988 435 5046 0 13 6
24 13 24 22 0 174 94 258 160 215 170 376 441 424 715 31 179 62 656 71 1080
13 588 -34 1276 -130 1913 l-32 216 49 90 c282 518 486 1181 564 1835 25 211
25 788 0 986 -126 983 -564 1747 -1322 2308 -66 49 -153 109 -192 134 -40 25
-73 46 -73 48 0 2 37 16 83 31 447 147 817 548 991 1074 85 255 118 481 118
795 -1 621 -179 1270 -554 2020 -270 538 -442 780 -709 995 -260 209 -541 333
-884 391 -138 23 -423 33 -555 19z m863 -1535 c43 -169 115 -352 222 -565 l58
-115 -11 -230 c-18 -356 -56 -589 -134 -833 -205 -644 -622 -914 -1168 -755
-350 101 -568 326 -700 722 -72 215 -122 524 -137 846 l-6 147 34 -7 c54 -12
515 -9 614 4 133 18 240 47 335 93 68 33 101 57 166 122 83 84 116 131 249
351 140 233 258 400 384 544 l56 64 7 -144 c4 -103 13 -173 31 -244z m-687
-3542 c0 -87 2 -170 6 -184 7 -23 4 -28 -19 -34 -15 -3 -59 -3 -99 0 l-72 7 9
32 c5 17 9 69 9 116 0 47 3 115 7 153 l6 67 77 0 78 0 -2 -157z m-752 -939
c241 -84 436 -117 691 -116 255 0 429 28 702 114 l132 41 73 -43 c452 -266
778 -608 988 -1035 87 -177 132 -299 180 -490 70 -275 84 -396 85 -750 0 -333
-10 -454 -61 -720 -134 -694 -451 -1397 -802 -1776 l-55 -60 -34 51 c-18 27
-49 81 -68 120 l-35 69 104 174 c479 797 651 1444 521 1972 -47 193 -95 281
-196 357 -107 80 -278 100 -412 49 -84 -33 -167 -114 -214 -209 -36 -72 -38
-81 -38 -171 0 -77 6 -112 27 -176 14 -44 29 -109 33 -145 14 -129 -30 -359
-110 -576 -60 -162 -223 -483 -374 -733 -92 -152 -148 -257 -162 -300 -27 -89
-35 -243 -16 -346 8 -44 14 -81 12 -82 -1 -2 -22 4 -47 12 l-45 16 8 42 c13
68 10 226 -6 302 -29 136 -59 180 -275 400 -107 110 -221 229 -251 265 -198
230 -337 478 -391 697 -32 130 -30 304 5 433 35 129 41 184 28 255 -25 137
-111 247 -239 308 -63 30 -74 32 -177 32 -105 0 -114 -2 -180 -34 -129 -64
-194 -151 -240 -324 -175 -645 19 -1298 576 -1942 48 -55 134 -149 192 -209
l106 -110 -21 -35 c-34 -56 -102 -142 -147 -185 l-40 -39 -78 59 c-103 77
-358 333 -459 459 -471 590 -724 1262 -724 1920 0 832 393 1626 1178 2382 82
78 132 120 142 117 8 -3 60 -21 114 -40z m-581 -5638 c110 -72 276 -152 347
-167 88 -19 189 -6 275 34 l72 35 37 -49 c48 -65 152 -150 231 -188 35 -18
101 -41 147 -53 107 -27 241 -21 338 14 l65 24 60 -19 c88 -28 246 -27 348 1
115 33 221 90 339 184 31 25 37 26 78 17 133 -31 330 29 513 158 26 18 51 33
55 33 9 0 21 -126 44 -455 15 -220 15 -960 0 -1185 -24 -347 -43 -523 -64
-577 -27 -74 -104 -155 -184 -194 l-64 -32 -228 -8 c-956 -32 -1885 -36 -2247
-10 -418 31 -455 38 -521 95 -22 18 -50 55 -64 82 -22 44 -25 60 -23 149 1 55
29 393 62 750 127 1366 141 1520 141 1528 0 4 35 -19 78 -51 43 -33 117 -85
165 -116z m2184 -3318 c-3 -24 -45 -510 -94 -1081 l-88 -1037 -32 252 c-18
139 -48 357 -67 483 -32 207 -35 239 -26 320 8 78 66 771 86 1018 l6 87 111 0
110 0 -6 -42z m-1063 -25 c-2 -27 -18 -213 -35 -415 -16 -201 -45 -532 -64
-734 -19 -203 -35 -380 -36 -394 0 -23 -1 -23 -9 -5 -4 11 -16 117 -25 235
-22 298 -59 654 -101 990 -20 157 -38 304 -41 328 l-6 42 161 0 161 0 -5 -47z"/>
</g>
</svg>
