<?xml version="1.0" standalone="no"?>
<!DOCTYPE svg PUBLIC "-//W3C//DTD SVG 20010904//EN"
 "http://www.w3.org/TR/2001/REC-SVG-20010904/DTD/svg10.dtd">
<svg version="1.0" xmlns="http://www.w3.org/2000/svg"
 width="6496.000000pt" height="7675.000000pt" viewBox="0 0 6496.000000 7675.000000"
 preserveAspectRatio="xMidYMid meet">
<metadata>
Created by potrace 1.16, written by Peter Selinger 2001-2019
</metadata>
<g transform="translate(0.000000,7675.000000) scale(0.100000,-0.100000)"
fill="#000000" stroke="none">
<path d="M35190 76734 c-601 -42 -1135 -142 -1654 -311 -1132 -368 -2090
-1034 -2802 -1949 -106 -137 -209 -283 -312 -444 l-80 -125 -64 2 c-35 1 -162
9 -283 18 -299 22 -915 30 -1185 16 -1096 -58 -1989 -284 -2765 -699 -1388
-742 -2317 -2054 -2803 -3957 l-39 -150 -389 -6 c-386 -6 -577 -16 -874 -44
-1863 -178 -3441 -872 -4595 -2020 -1050 -1044 -1670 -2364 -1817 -3865 -20
-209 -17 -930 5 -1135 135 -1242 586 -2318 1357 -3235 146 -174 516 -544 690
-690 1085 -913 2486 -1451 4120 -1585 353 -29 670 -35 1760 -35 1457 0 4454
-19 7915 -50 1183 -11 5736 -52 7615 -70 6816 -63 12345 -89 12833 -60 1558
93 2862 565 3867 1400 156 130 449 417 586 575 453 523 799 1135 1017 1800
311 946 368 1992 166 3025 -359 1832 -1480 3457 -3105 4501 -1012 650 -2213
1072 -3514 1233 -482 60 -859 80 -1435 74 l-443 -4 -30 151 c-107 517 -326
1086 -602 1565 -426 738 -1031 1409 -1765 1959 -568 425 -1234 777 -1907 1006
-494 169 -950 265 -1493 317 -171 16 -722 16 -895 0 -323 -31 -673 -94 -925
-166 -65 -19 -122 -33 -125 -31 -3 2 -30 43 -60 92 -533 880 -1381 1647 -2380
2152 -790 400 -1595 631 -2530 727 -147 15 -913 28 -1060 18z m1010 -858 c226
-25 420 -54 607 -91 1131 -224 2139 -737 2897 -1475 371 -362 636 -713 885
-1175 123 -228 179 -282 332 -321 90 -23 174 -13 302 35 344 130 701 213 1097
253 162 16 639 16 800 0 184 -19 398 -50 540 -78 1513 -300 2951 -1264 3784
-2536 405 -620 657 -1298 726 -1958 20 -192 63 -284 170 -369 27 -22 76 -49
107 -61 54 -21 70 -22 228 -17 94 3 260 11 370 18 261 15 983 6 1240 -15 1094
-92 2015 -330 2880 -745 1160 -558 2114 -1421 2747 -2486 642 -1079 925 -2332
792 -3505 -104 -926 -456 -1759 -1032 -2445 -103 -122 -385 -402 -507 -504
-590 -490 -1260 -821 -2074 -1025 -334 -84 -695 -143 -1121 -183 -171 -17
-371 -18 -2690 -17 -3275 1 -4504 10 -16765 124 -3808 35 -5915 50 -8080 55
-1971 6 -2346 11 -2685 40 -1455 125 -2662 587 -3620 1386 -160 133 -467 439
-596 594 -696 837 -1090 1812 -1174 2904 -13 173 -13 588 0 762 88 1139 511
2180 1249 3069 126 152 514 540 670 670 994 825 2242 1318 3711 1464 404 40
981 56 1360 38 138 -7 233 -7 265 -1 123 23 250 121 300 231 13 29 44 145 69
258 391 1762 1142 2949 2306 3643 589 351 1343 579 2185 661 534 53 1227 45
1825 -20 261 -28 326 -29 399 -4 132 44 180 93 302 305 511 892 1226 1562
2134 2000 638 309 1292 477 2090 539 135 10 837 -3 975 -18z"/>
<path d="M35580 75639 c-405 -39 -805 -243 -1060 -542 -711 -829 -1212 -1893
-1364 -2897 -50 -326 -69 -759 -47 -1050 62 -825 338 -1519 793 -1996 226
-236 471 -397 830 -545 608 -249 1203 -285 1747 -104 792 264 1409 1011 1605
1941 243 1161 57 2573 -481 3649 -220 438 -533 875 -827 1151 -316 298 -739
437 -1196 393z m263 -839 c160 -23 271 -82 396 -209 398 -406 720 -991 909
-1653 113 -394 170 -743 194 -1186 25 -473 -33 -1027 -143 -1357 -200 -601
-629 -1025 -1149 -1136 -137 -29 -396 -32 -540 -6 -257 47 -576 168 -762 290
-226 147 -394 347 -539 642 -265 540 -338 1259 -203 1995 125 682 424 1371
861 1987 116 165 283 375 337 427 95 90 257 173 381 195 129 23 163 24 258 11z"/>
<path d="M42760 70240 c-1001 -8 -965 -6 -1063 -63 -59 -35 -134 -118 -163
-181 -36 -79 -46 -147 -39 -276 3 -63 10 -556 15 -1095 5 -539 12 -1255 16
-1591 l6 -611 -38 -7 c-110 -18 -229 -112 -285 -224 -30 -60 -34 -78 -37 -167
-2 -55 15 -507 37 -1005 115 -2566 131 -3134 159 -5755 l7 -680 27 -58 c53
-114 175 -211 296 -236 32 -7 167 -11 335 -11 155 0 683 -7 1172 -16 967 -17
2570 -15 2945 5 492 26 739 43 795 57 114 28 210 105 264 211 48 96 51 134 36
493 -20 454 -41 1110 -70 2120 -41 1444 -71 2268 -85 2365 -22 147 -110 261
-252 327 l-71 33 7 2965 c6 2156 5 2984 -3 3035 -16 97 -59 181 -126 244 -68
64 -139 98 -236 112 -96 13 -2400 19 -3649 9z m1030 -1383 l0 -554 -317 -6
c-174 -4 -498 -7 -720 -7 l-403 0 0 343 c0 189 -3 439 -7 555 l-6 212 684 3
c376 1 703 3 727 5 l42 2 0 -553z m2073 547 l77 -7 0 -533 0 -534 -218 0
c-120 0 -415 -3 -655 -7 l-437 -6 0 546 0 547 578 0 c319 0 613 -3 655 -6z
m71 -2486 c-3 -315 -8 -574 -9 -576 -4 -5 -1265 -26 -1269 -21 -2 2 -6 264 -9
581 l-6 578 297 3 c163 1 456 3 650 5 l353 2 -7 -572z m-2131 300 c4 -133 7
-393 7 -578 l0 -337 -282 -6 c-156 -4 -477 -10 -715 -13 l-431 -7 -6 44 c-3
24 -8 288 -11 586 l-6 543 518 3 c285 1 608 3 719 5 l201 2 6 -242z m2127
-2328 c0 -335 -3 -610 -7 -610 -5 1 -289 140 -633 309 l-625 308 -3 291 -2
292 212 1 c117 1 357 5 533 8 176 4 366 8 423 9 l102 2 0 -610z m-2110 505 l0
-65 -122 61 c-68 34 -125 63 -127 65 -2 2 53 4 122 4 l127 0 0 -65z m-1172
-414 c1207 -624 2385 -1213 3317 -1657 l300 -143 8 -148 8 -148 -38 -33 c-174
-150 -515 -321 -735 -366 -72 -15 -74 -15 -126 9 -109 50 -208 131 -457 375
-137 135 -288 278 -335 317 -308 257 -632 393 -939 393 -356 0 -663 126 -923
377 -125 122 -210 235 -281 372 -105 202 -143 363 -133 561 6 142 16 250 23
250 2 0 142 -71 311 -159z m-320 -1794 c220 -172 487 -305 756 -377 148 -40
280 -58 461 -66 170 -7 229 -22 336 -84 105 -62 212 -154 435 -377 307 -305
460 -427 672 -533 234 -117 408 -142 664 -94 173 32 408 113 577 198 40 21 75
35 78 32 3 -3 16 -365 29 -803 30 -1038 52 -1733 60 -1859 l6 -101 -148 -7
c-674 -31 -1732 -34 -3119 -10 -506 9 -922 18 -924 20 -2 2 -8 421 -12 931
-10 1197 -46 2732 -75 3207 l-6 100 62 -55 c34 -30 101 -85 148 -122z"/>
<path d="M22992 68079 c-121 -24 -231 -109 -287 -222 -45 -92 -47 -114 -80
-882 -14 -324 -28 -655 -32 -734 -6 -135 -8 -148 -34 -190 -49 -81 -194 -494
-295 -844 -225 -780 -353 -1559 -395 -2417 -13 -262 -7 -922 11 -1165 71 -983
262 -1916 565 -2755 57 -159 88 -213 154 -273 51 -46 90 -66 262 -133 649
-253 1570 -407 2719 -455 308 -13 1169 -7 1445 11 865 53 1518 139 2185 286
234 51 305 80 379 154 68 68 94 127 146 340 179 727 296 1525 356 2425 17 260
23 1126 10 1430 -51 1152 -220 2187 -522 3184 -48 157 -70 213 -102 255 -12
16 -11 33 10 134 67 334 95 647 97 1112 1 339 0 357 -20 406 -48 116 -134 203
-241 245 -94 36 -185 32 -498 -23 -1807 -315 -3919 -293 -5425 57 -306 71
-315 73 -408 54z m683 -968 c1400 -247 3029 -273 4610 -75 212 26 381 50 429
60 l29 6 -7 -123 c-13 -223 -71 -631 -96 -680 -14 -25 -591 -121 -1015 -168
-520 -58 -878 -75 -1430 -68 -635 8 -1088 50 -1670 153 -350 62 -825 172
-1035 239 l-45 15 12 257 c6 142 12 295 12 341 1 74 3 83 19 78 9 -3 94 -18
187 -35z m-215 -1521 c562 -155 1296 -282 1935 -334 653 -54 1483 -46 2145 20
352 35 762 92 1099 155 90 16 167 26 171 22 32 -34 198 -738 265 -1119 19
-110 37 -211 39 -225 l5 -26 -162 -26 c-670 -107 -1319 -169 -2077 -198 -334
-13 -1155 -7 -1475 11 -807 44 -1473 113 -2295 236 -129 19 -236 36 -237 37
-4 5 72 345 122 542 59 232 128 464 204 685 74 216 91 260 104 260 7 0 77 -18
157 -40z m-420 -2324 c819 -122 1488 -189 2360 -238 301 -17 1473 -17 1765 0
699 40 1276 97 1842 185 l212 33 5 -46 c9 -70 25 -324 36 -545 11 -223 12
-1047 1 -1084 -8 -30 -66 -53 -278 -111 -538 -148 -1234 -233 -2266 -276
l-158 -6 49 50 c28 27 60 68 71 90 49 95 51 127 51 759 l0 591 -26 31 c-44 52
-135 61 -183 17 -14 -13 -25 -10 -96 25 -133 66 -231 72 -370 23 -152 -53
-279 -187 -331 -348 -31 -95 -38 -254 -15 -346 24 -101 85 -213 154 -283 144
-146 333 -182 554 -106 31 10 58 19 60 19 8 0 1 -152 -10 -207 -26 -124 -101
-178 -247 -177 -94 1 -155 18 -234 66 -69 42 -139 48 -185 16 -62 -42 -66
-119 -9 -183 l30 -35 -73 0 c-122 0 -558 19 -814 35 -831 53 -1578 161 -2053
298 -135 39 -146 44 -153 69 -4 15 -13 143 -19 284 -20 404 -1 1142 35 1402 6
41 8 43 33 38 15 -3 133 -21 262 -40z m3275 -730 c28 -13 73 -46 102 -72 l52
-49 6 -216 7 -216 -51 -32 c-82 -53 -147 -74 -216 -69 -107 7 -185 63 -234
167 -24 51 -26 67 -26 176 0 105 3 127 24 173 61 136 211 197 336 138z m-3215
-1940 c554 -114 1193 -188 2055 -237 305 -17 1349 -23 1690 -10 913 36 1626
119 2198 257 82 20 150 34 152 32 5 -5 -39 -370 -70 -573 -59 -393 -165 -929
-188 -951 -12 -12 -281 -65 -557 -109 -1213 -194 -2713 -219 -3881 -65 -444
59 -834 142 -1151 246 l-137 45 -55 167 c-105 321 -198 674 -266 1017 -22 110
-42 208 -45 218 -3 15 1 18 18 13 12 -3 119 -26 237 -50z"/>
<path d="M23739 63070 c-142 -20 -280 -88 -356 -175 -78 -88 -113 -241 -79
-346 47 -143 159 -226 411 -304 137 -43 199 -72 250 -117 127 -111 90 -325
-63 -368 -77 -21 -219 -2 -303 41 -48 24 -149 101 -189 144 -36 39 -73 55
-124 55 -80 0 -130 -68 -107 -147 32 -112 253 -265 451 -313 307 -73 569 40
650 281 30 87 26 249 -8 322 -56 125 -171 209 -400 293 -189 70 -244 97 -287
145 -26 29 -35 48 -35 74 0 83 68 152 177 180 106 28 201 15 355 -46 109 -43
126 -46 168 -24 65 34 78 130 25 185 -34 36 -133 85 -209 105 -75 19 -242 26
-327 15z"/>
<path d="M28583 62825 c-73 -20 -122 -46 -192 -105 l-60 -50 -43 20 c-131 58
-238 20 -238 -85 0 -49 24 -86 68 -104 l29 -12 37 -392 c21 -216 42 -406 47
-424 24 -78 119 -108 190 -60 60 40 61 52 24 431 -39 391 -47 343 71 457 70
67 119 99 151 99 10 0 43 -16 73 -35 30 -20 65 -38 78 -41 62 -16 136 29 148
91 17 95 -91 189 -246 214 -78 13 -72 13 -137 -4z"/>
<path d="M27500 62693 c-51 -8 -156 -45 -196 -69 -60 -34 -198 -167 -250 -239
-93 -131 -134 -255 -134 -406 0 -310 202 -481 519 -440 105 13 157 30 216 70
l43 29 31 -39 c55 -68 150 -77 205 -20 23 24 28 38 28 79 -1 41 -10 65 -50
136 -28 47 -53 105 -56 129 -16 109 -25 270 -26 463 0 203 -1 212 -23 245 -31
46 -97 68 -202 67 -44 0 -91 -3 -105 -5z m89 -741 c14 -74 14 -75 -71 -138
-93 -68 -197 -69 -274 -2 -45 40 -62 74 -70 140 -13 112 45 272 135 370 51 56
141 111 215 133 l41 12 6 -226 c4 -124 12 -254 18 -289z"/>
<path d="M24615 62603 c-38 -10 -64 -35 -81 -78 -26 -68 -27 -592 -1 -685 36
-131 127 -239 255 -302 62 -31 73 -33 172 -33 98 0 110 2 173 32 38 18 86 46
106 63 l38 29 31 -48 c39 -59 72 -82 127 -89 52 -5 99 17 120 58 22 43 19 66
-24 144 -63 114 -75 180 -75 406 -1 107 3 242 7 300 9 116 3 137 -46 174 -20
15 -42 21 -74 20 -40 -1 -51 -6 -79 -36 -53 -58 -65 -137 -63 -416 l1 -234
-63 -65 c-76 -77 -125 -105 -186 -105 -79 0 -137 58 -169 168 -15 52 -16 92
-10 334 7 266 6 276 -14 308 -29 48 -87 69 -145 55z"/>
<path d="M35160 67925 c-362 -60 -688 -267 -883 -563 -28 -42 -46 -60 -57 -57
-112 34 -364 59 -505 50 -309 -21 -576 -107 -804 -259 -296 -198 -505 -501
-587 -853 -31 -133 -43 -384 -25 -514 14 -96 53 -248 80 -313 l19 -44 -35 -33
c-62 -60 -151 -187 -197 -282 -131 -266 -151 -584 -56 -887 36 -114 125 -280
200 -373 l70 -88 -91 -167 c-199 -367 -404 -801 -535 -1129 -465 -1169 -483
-2171 -54 -3040 126 -256 251 -427 445 -611 195 -184 414 -334 705 -481 613
-311 1388 -501 2285 -561 217 -15 770 -15 990 0 1245 82 2273 421 2941 968
518 424 792 946 829 1577 18 303 -73 826 -242 1385 -175 583 -444 1174 -761
1673 l-81 127 52 26 c278 141 494 429 559 744 26 126 21 346 -11 461 -75 276
-272 509 -548 652 -91 47 -257 107 -295 107 -16 0 -19 5 -14 23 24 91 38 264
33 417 -30 874 -675 1556 -1594 1686 -153 21 -422 22 -562 0 l-103 -16 -62 54
c-171 149 -390 256 -628 307 -124 27 -362 34 -478 14z m318 -840 c137 -32 239
-103 318 -221 99 -147 195 -205 349 -212 79 -3 101 0 185 27 125 40 174 50
289 61 120 11 267 -2 398 -36 117 -30 294 -113 380 -178 159 -120 273 -295
329 -502 14 -52 19 -103 18 -209 0 -136 -1 -143 -38 -250 -21 -60 -41 -136
-44 -167 -3 -41 -9 -59 -21 -62 -40 -13 -324 -57 -463 -73 -214 -24 -731 -24
-946 0 -390 44 -656 107 -1176 277 -705 230 -987 290 -1369 290 -182 0 -313
-11 -450 -40 -59 -12 -89 -14 -94 -7 -3 6 -8 53 -11 106 -16 338 228 589 608
626 153 15 351 -34 479 -119 116 -76 159 -90 276 -90 93 -1 105 1 172 33 87
41 172 124 209 205 15 33 29 88 34 139 12 100 29 152 69 210 111 162 306 237
499 192z m-1545 -2111 c169 -24 414 -90 807 -217 523 -169 664 -208 935 -261
356 -68 608 -91 1030 -91 537 0 884 44 1393 175 105 28 205 50 221 50 51 0
157 -39 204 -75 84 -64 98 -132 49 -226 -42 -81 -87 -109 -269 -167 -1057
-338 -2160 -453 -3278 -342 -592 60 -1174 183 -1716 364 -297 99 -320 109
-356 163 -62 92 -79 239 -38 326 69 145 292 266 564 306 98 15 336 12 454 -5z
m-593 -1682 c585 -170 1156 -273 1810 -329 261 -22 1054 -25 1320 -5 488 37
1025 119 1422 215 l96 24 17 -43 c9 -23 54 -100 101 -170 459 -690 780 -1507
925 -2349 41 -240 28 -466 -38 -662 -171 -512 -741 -938 -1591 -1189 -893
-263 -2006 -311 -3002 -128 -873 161 -1575 510 -1850 921 -156 233 -277 596
-309 927 -48 490 71 1067 361 1756 135 320 529 1095 553 1086 5 -2 89 -26 185
-54z"/>
<path d="M34309 62017 c-73 -49 -70 5 -67 -924 3 -960 -11 -849 122 -940 70
-48 82 -53 132 -53 47 0 59 4 90 33 66 60 57 152 -21 214 l-35 28 0 780 c0
761 -1 781 -20 813 -43 70 -135 93 -201 49z"/>
<path d="M33530 61939 c-293 -11 -517 -27 -563 -40 -21 -5 -52 -23 -70 -39
-28 -25 -32 -34 -32 -82 0 -35 8 -69 23 -99 29 -59 43 -205 35 -357 -5 -96 -9
-114 -24 -123 -57 -30 -62 -129 -10 -183 l30 -31 3 -375 c3 -336 5 -378 21
-407 37 -69 125 -92 196 -53 71 40 71 42 71 449 l0 361 168 0 c288 0 439 29
512 99 36 34 40 43 40 88 0 63 -23 95 -85 119 -48 18 -74 16 -200 -11 -38 -8
-152 -18 -252 -21 l-181 -7 0 174 c1 96 -2 192 -6 215 l-7 41 273 6 c385 10
450 23 490 97 34 65 19 127 -41 167 -38 26 -25 25 -391 12z"/>
<path d="M38166 61529 c-60 -10 -174 -64 -239 -114 l-47 -36 -29 21 c-70 49
-187 65 -241 34 -81 -49 -79 -156 5 -220 l35 -26 0 -464 c0 -403 2 -469 16
-504 31 -78 111 -108 189 -70 81 39 80 29 83 497 l3 412 62 57 c34 31 93 77
130 102 92 61 117 61 194 -2 71 -59 96 -69 150 -61 53 8 99 49 108 97 22 116
-98 236 -274 274 -73 15 -75 15 -145 3z"/>
<path d="M35343 61465 c-181 -39 -356 -192 -458 -398 -63 -128 -87 -226 -88
-362 -1 -177 52 -327 156 -441 110 -121 229 -171 384 -162 259 16 478 211 584
523 21 62 24 87 24 230 0 149 -2 166 -29 248 -64 197 -206 335 -375 367 -69
13 -121 12 -198 -5z m174 -274 c83 -38 141 -152 150 -296 16 -252 -165 -525
-349 -525 -144 0 -231 120 -232 320 -1 166 55 303 168 416 100 100 176 124
263 85z"/>
<path d="M36282 61460 c-43 -10 -78 -44 -94 -89 -8 -26 -12 -133 -12 -371 -1
-285 2 -345 16 -403 49 -189 184 -335 361 -389 54 -16 86 -19 155 -16 101 6
166 31 269 104 35 25 66 44 67 42 1 -1 12 -19 24 -38 11 -19 37 -50 56 -69 31
-30 44 -35 93 -38 65 -4 95 8 127 50 33 45 27 100 -22 181 -28 46 -47 96 -62
159 -28 118 -41 341 -30 499 13 174 12 289 -4 316 -31 56 -122 80 -184 48 -33
-17 -65 -73 -83 -146 -14 -56 -20 -417 -9 -563 l5 -67 -74 -81 c-110 -120
-187 -151 -277 -110 -48 22 -87 69 -117 143 -21 51 -22 67 -22 393 0 265 -3
347 -14 372 -23 56 -101 90 -169 73z"/>
<path d="M24445 54653 c-593 -51 -1121 -348 -1427 -801 -289 -429 -366 -1051
-194 -1567 153 -456 519 -859 990 -1090 217 -106 432 -169 666 -196 142 -16
404 -6 535 21 337 68 623 225 860 472 131 136 218 260 309 438 288 568 296
1270 20 1821 -117 234 -334 486 -533 618 -231 153 -501 247 -803 280 -90 10
-329 12 -423 4z m480 -867 c210 -54 361 -157 469 -319 115 -174 169 -366 169
-602 -1 -490 -263 -893 -653 -1005 -104 -30 -277 -37 -395 -17 -366 64 -705
310 -855 621 -109 225 -115 532 -16 778 117 289 418 501 801 564 129 21 357
12 480 -20z"/>
<path d="M13220 52219 c-1744 -102 -3415 -700 -4747 -1698 -1103 -826 -1947
-1892 -2518 -3181 -728 -1642 -939 -3525 -591 -5274 146 -730 366 -1376 691
-2026 179 -358 356 -646 557 -905 88 -113 352 -389 465 -486 l51 -44 -14 -150
c-117 -1229 -505 -2496 -1032 -3375 -136 -227 -169 -270 -292 -380 -601 -541
-1208 -1166 -1714 -1764 -2457 -2906 -3780 -6410 -4031 -10676 -29 -495 -36
-721 -42 -1335 -19 -2018 154 -4073 593 -7040 36 -242 125 -836 199 -1320 381
-2498 491 -3396 545 -4435 14 -269 14 -909 0 -1130 -55 -863 -230 -1482 -542
-1912 -74 -101 -99 -166 -106 -263 -4 -66 0 -96 17 -153 31 -102 111 -200 202
-248 102 -53 1285 -365 1929 -509 140 -31 261 -59 268 -61 7 -2 12 -19 12 -41
-1 -129 101 -3363 108 -3428 11 -103 45 -178 113 -250 123 -131 325 -167 489
-88 72 35 159 123 195 198 28 57 30 68 33 210 1 83 -20 841 -47 1685 -26 844
-48 1536 -47 1537 1 1 98 -16 216 -38 3807 -706 8079 -775 12069 -194 96 14
175 24 176 23 1 -2 83 -655 182 -1451 l181 -1449 36 -73 c59 -119 157 -194
290 -221 231 -47 456 106 496 337 11 63 1 151 -170 1519 -100 798 -179 1457
-177 1465 3 7 27 16 54 20 26 4 133 22 236 41 247 45 325 83 400 197 74 113
68 -28 74 1663 3 835 6 2013 7 2616 l1 1097 175 164 c932 871 1871 2108 2620
3451 222 397 476 903 626 1243 48 111 50 112 82 113 64 0 303 41 439 75 995
244 1822 979 2377 2110 366 746 580 1560 658 2510 19 226 15 828 -6 1055 -69
749 -236 1344 -518 1850 -134 239 -253 397 -446 590 l-135 135 12 135 c48 572
47 1491 -4 2555 -114 2365 -453 5423 -786 7080 -107 535 -175 780 -279 1005
-27 58 -62 141 -78 185 -121 326 -354 771 -591 1125 -392 586 -870 1126 -1356
1532 -738 616 -1666 1030 -2656 1182 -91 14 -179 26 -195 26 -58 0 -60 12 -16
86 177 305 332 709 416 1087 114 507 110 1149 -9 1732 -19 94 -38 179 -41 190
-4 18 8 28 91 69 124 61 306 184 418 281 300 261 519 637 605 1034 24 117 26
144 26 361 0 217 -2 244 -26 361 -121 564 -484 1056 -982 1329 l-74 41 -6 167
c-23 659 -55 1060 -127 1637 -50 400 -137 943 -202 1260 l-13 60 102 57 c348
193 626 439 807 713 140 213 224 425 274 690 23 128 28 436 9 585 -154 1170
-1060 2058 -2713 2659 -734 267 -1527 425 -2353 471 -210 11 -738 11 -940 -1z
m4029 -5541 c105 -525 210 -1335 256 -1958 20 -283 36 -745 33 -985 -3 -187
-2 -203 19 -255 52 -127 150 -213 292 -256 363 -111 654 -422 757 -809 27
-100 27 -352 0 -450 -49 -182 -131 -327 -264 -466 -170 -178 -364 -285 -609
-335 -158 -33 -257 -104 -320 -231 -33 -67 -38 -85 -41 -167 -4 -90 -3 -94 61
-286 71 -212 115 -397 146 -615 18 -129 44 -416 37 -422 -1 -2 -29 -8 -62 -14
-113 -21 -255 11 -359 81 -178 120 -403 103 -548 -42 -153 -153 -164 -394 -26
-569 36 -46 149 -124 258 -178 160 -81 333 -125 531 -137 l110 -7 -7 -26 c-33
-142 -165 -474 -245 -621 -143 -261 -338 -502 -538 -665 -262 -213 -581 -351
-955 -412 -136 -22 -522 -25 -660 -5 -378 54 -712 159 -1065 333 -716 353
-1338 945 -1742 1659 -324 571 -504 1215 -524 1870 -3 102 -10 207 -15 233
-23 121 -110 232 -226 289 -65 32 -73 33 -183 33 -104 0 -120 -3 -173 -27 -32
-15 -70 -37 -84 -48 -56 -44 -421 -145 -633 -176 -154 -22 -389 -15 -509 15
-223 57 -407 185 -567 396 -388 512 -455 1127 -185 1700 99 210 216 370 395
542 228 220 494 363 796 429 122 27 448 27 570 0 395 -86 713 -293 1165 -757
359 -370 677 -804 900 -1231 17 -32 33 -58 36 -58 3 0 11 53 18 118 119 1160
302 1940 597 2542 360 737 854 1194 1608 1489 289 113 563 192 1106 321 352
83 754 184 790 199 42 17 48 13 59 -41z m-6163 -7028 c129 -521 354 -1038 651
-1493 186 -285 368 -511 612 -761 308 -313 591 -541 933 -753 76 -47 137 -89
136 -92 -2 -3 -43 -66 -91 -139 -664 -1003 -1097 -2467 -1097 -3713 l0 -186
-124 -22 c-410 -71 -683 -95 -1111 -95 -439 0 -732 28 -1115 105 -853 172
-1607 534 -2275 1090 -146 122 -449 423 -589 585 -131 152 -276 337 -276 351
0 5 31 61 69 124 535 892 956 2182 1103 3382 12 100 23 184 24 185 1 2 74 -10
161 -27 290 -57 383 -65 688 -66 286 0 375 8 565 52 300 69 599 221 825 421
342 303 614 783 786 1385 l33 118 23 -133 c13 -73 44 -216 69 -318z m6524
-3110 c169 -11 412 -39 422 -49 4 -4 -27 -32 -70 -63 -193 -140 -379 -339
-500 -534 -48 -77 -49 -78 -117 -101 -181 -61 -404 -45 -575 42 -109 55 -229
170 -298 286 l-22 36 88 33 c183 69 420 196 577 309 l70 50 140 0 c77 1 205
-4 285 -9z m-3319 -365 c334 -115 772 -185 1154 -185 l161 0 42 -103 c108
-262 314 -521 547 -685 116 -82 314 -180 439 -217 l97 -29 -6 -140 c-21 -434
63 -964 216 -1374 272 -727 764 -1307 1604 -1889 396 -274 460 -320 527 -377
237 -203 487 -591 684 -1064 473 -1135 754 -3021 767 -5146 l2 -369 -35 -12
c-19 -7 -65 -24 -102 -38 l-67 -26 -47 122 c-933 2417 -1816 4136 -2785 5417
-297 394 -529 661 -843 975 -515 513 -976 853 -1521 1120 -321 158 -587 253
-923 330 -85 19 -161 39 -171 44 -33 18 -266 82 -386 106 -160 33 -356 55
-479 55 l-99 0 6 173 c41 1067 418 2275 969 3101 74 110 165 236 172 236 1 0
36 -11 77 -25z m5266 -190 c380 -203 692 -437 1047 -785 326 -319 612 -665
873 -1055 l81 -121 -107 -11 c-105 -12 -200 -34 -559 -132 -1100 -301 -1942
-306 -2409 -15 -314 195 -467 536 -450 998 11 302 73 503 208 672 188 236 523
429 849 488 128 23 146 24 260 20 105 -5 105 -5 207 -59z m-13241 -2289 c955
-1144 2266 -1872 3749 -2080 814 -114 1695 -74 2529 115 71 16 131 28 133 25
5 -5 -245 -99 -392 -148 -399 -132 -852 -225 -1315 -270 -88 -8 -276 -13 -535
-13 -416 1 -548 9 -870 55 -1530 220 -2956 984 -3795 2034 l-71 90 33 32 c18
18 110 105 203 194 l170 161 30 -37 c17 -20 75 -92 131 -158z m15531 -534 c87
-27 144 -71 196 -149 80 -123 122 -248 201 -599 462 -2051 927 -6943 866
-9101 -6 -207 -12 -378 -13 -379 -1 -1 -45 6 -97 17 -477 93 -1018 13 -1581
-235 -56 -25 -104 -44 -107 -42 -2 2 1 91 7 198 22 385 31 613 43 1180 29
1381 -45 2788 -207 3908 -266 1851 -752 3111 -1458 3787 -110 105 -244 207
-517 393 -529 361 -782 577 -1032 880 -48 57 -86 105 -85 107 2 1 51 -23 109
-53 241 -123 490 -196 823 -241 182 -24 686 -24 905 0 456 51 817 124 1372
278 119 33 245 64 280 69 88 12 224 4 295 -18z m-16535 -454 c139 -161 445
-461 613 -602 1125 -940 2608 -1519 4140 -1616 207 -13 666 -13 870 0 846 55
1645 258 2394 609 289 135 695 364 768 433 l32 31 63 -36 c180 -101 438 -306
616 -492 246 -256 434 -530 621 -905 675 -1356 1115 -3588 1286 -6530 18 -318
41 -832 57 -1315 16 -470 16 -2639 0 -3131 l-11 -350 -324 -555 c-562 -962
-755 -1271 -1038 -1666 -24 -34 -46 -63 -49 -63 -3 0 -47 116 -99 258 -773
2119 -1740 4264 -2779 6167 -675 1238 -1463 2515 -2237 3630 -840 1210 -1488
1889 -2252 2361 -173 107 -474 256 -663 327 -960 365 -1989 299 -2981 -189
-650 -320 -1222 -793 -1694 -1399 -876 -1125 -1231 -2712 -1005 -4486 129
-1009 459 -2130 925 -3144 691 -1503 1829 -3220 3312 -4997 2038 -2442 4553
-4768 6554 -6060 952 -614 1738 -973 2384 -1089 171 -31 511 -38 696 -15 499
63 1024 269 1572 617 59 38 110 69 113 69 3 0 3 -381 0 -847 -3 -467 -9 -1395
-12 -2064 l-6 -1217 -316 -51 c-3507 -576 -7121 -653 -10562 -225 -1511 187
-2886 451 -4317 826 l-232 61 23 46 c39 76 132 318 170 441 94 305 166 667
205 1040 63 583 57 1413 -14 2265 -76 894 -176 1660 -500 3790 -256 1687 -341
2277 -445 3100 -178 1406 -274 2510 -332 3830 -17 377 -17 1795 0 2150 66
1406 202 2515 448 3655 615 2844 1828 5248 3727 7382 l122 136 24 -26 c13 -15
72 -84 133 -154z m11218 -2795 c823 -986 1620 -2380 2395 -4188 215 -501 353
-843 639 -1584 l13 -34 -61 -50 c-161 -132 -346 -350 -443 -523 -165 -294
-243 -600 -243 -957 0 -320 64 -661 191 -1015 22 -63 39 -115 37 -116 -2 -1
-41 -12 -88 -25 -104 -27 -260 -100 -366 -171 -284 -191 -567 -497 -950 -1026
l-21 -29 -6 920 c-7 1023 -20 1533 -62 2335 -132 2505 -459 4557 -965 6043
-61 181 -160 446 -205 550 -9 22 -11 36 -6 32 6 -3 70 -76 141 -162z m-10130
-1279 c487 -62 981 -275 1445 -624 535 -402 1035 -965 1685 -1900 2096 -3012
3852 -6514 5195 -10360 32 -91 66 -181 76 -201 34 -68 106 -137 187 -176 73
-36 80 -38 176 -38 124 0 165 14 297 101 221 146 486 445 791 894 226 332 418
647 958 1570 568 972 737 1248 1004 1645 393 585 748 977 956 1056 39 15 61
16 170 8 627 -46 1147 -225 1505 -519 382 -314 631 -788 724 -1380 37 -235 45
-351 45 -650 0 -470 -52 -897 -175 -1440 -616 -2720 -2723 -6006 -4704 -7338
-473 -318 -933 -514 -1319 -562 -134 -17 -393 -8 -515 19 -214 46 -457 127
-706 236 -1716 748 -4346 2907 -6700 5500 -2034 2240 -3588 4504 -4335 6315
-200 482 -377 1023 -500 1525 -363 1479 -325 2788 112 3895 474 1199 1577
2155 2758 2390 298 59 582 70 870 34z m14110 -5036 c0 -182 -33 -786 -71
-1323 -17 -232 -24 -294 -37 -312 -10 -12 -58 -75 -109 -141 -98 -127 -242
-342 -263 -392 -7 -16 -16 -30 -20 -30 -11 0 -121 247 -180 405 -58 156 -110
337 -136 480 -28 152 -26 439 4 558 84 336 308 585 712 793 46 24 88 44 92 44
4 0 8 -37 8 -82z m2330 -1473 c508 -101 899 -533 1134 -1254 390 -1191 237
-2861 -374 -4106 -353 -719 -824 -1235 -1375 -1506 -132 -65 -333 -144 -342
-135 -2 2 32 112 77 245 469 1399 610 2661 409 3645 -193 944 -672 1612 -1461
2040 -49 26 -88 51 -88 54 0 9 109 160 190 264 36 46 130 148 210 228 138 138
151 148 270 212 332 178 663 294 940 328 98 12 315 4 410 -15z"/>
<path d="M15979 45687 c-234 -98 -816 -496 -1211 -826 -234 -196 -271 -255
-272 -436 -1 -92 1 -105 31 -167 79 -167 227 -256 407 -246 127 8 171 30 341
174 295 248 618 479 951 678 109 64 176 112 208 146 191 204 129 539 -123 663
-59 29 -75 32 -171 35 -92 2 -112 0 -161 -21z"/>
<path d="M16288 44539 c-341 -39 -559 -281 -633 -704 -24 -133 -24 -409 -1
-555 72 -462 273 -814 535 -939 130 -61 286 -56 422 16 344 179 538 860 420
1469 -63 326 -209 561 -413 665 -82 42 -217 61 -330 48z"/>
<path d="M21320 51320 c-312 -55 -618 -225 -800 -444 -239 -287 -335 -674
-264 -1063 45 -250 162 -463 363 -664 217 -216 480 -353 770 -403 119 -20 340
-21 452 -1 448 78 809 404 957 865 53 166 66 256 66 455 0 147 -4 199 -22 282
-25 115 -71 251 -112 334 -76 150 -222 326 -350 422 -155 116 -349 194 -567
226 -113 17 -371 12 -493 -9z m474 -850 c178 -69 271 -296 221 -535 -34 -160
-139 -299 -260 -344 -162 -61 -389 4 -540 153 -117 115 -159 236 -136 387 28
175 147 297 343 349 104 28 288 23 372 -10z"/>
<path d="M51875 44949 c-298 -31 -551 -151 -756 -359 -88 -90 -197 -242 -259
-362 -19 -38 -37 -68 -40 -68 -3 0 -29 31 -58 69 -100 131 -243 250 -376 312
-136 64 -401 107 -575 94 -333 -24 -597 -132 -839 -343 -57 -49 -160 -172
-205 -245 l-18 -28 -57 49 c-147 126 -307 208 -512 263 -112 31 -375 38 -507
14 -416 -75 -692 -302 -838 -688 l-21 -58 -33 88 c-53 139 -165 351 -242 453
-257 345 -581 522 -979 537 -273 10 -506 -53 -714 -191 -223 -148 -386 -419
-458 -760 -28 -134 -30 -379 -4 -510 9 -48 16 -89 14 -90 -2 -2 -39 -8 -82
-14 -91 -14 -258 -68 -343 -111 -33 -16 -96 -54 -141 -84 -45 -30 -82 -50 -82
-43 0 21 -148 310 -205 401 -179 285 -418 517 -655 635 -429 215 -938 169
-1315 -119 -139 -106 -241 -238 -302 -389 -194 -479 -100 -1054 229 -1415 l53
-58 -96 -97 c-206 -208 -322 -458 -349 -757 -20 -207 18 -431 100 -595 41 -81
111 -171 204 -263 l83 -82 -13 -2034 c-7 -1118 -15 -2035 -18 -2038 -2 -3 -49
-20 -103 -38 -465 -157 -869 -511 -1095 -960 -86 -171 -130 -300 -176 -515
-14 -67 -17 -336 -22 -2549 l-5 -2474 -120 -37 c-527 -161 -1064 -488 -1475
-900 -236 -236 -394 -449 -515 -694 -146 -296 -211 -622 -177 -886 8 -60 12
-1167 14 -3724 l2 -3639 -165 -33 c-595 -117 -1228 -341 -1723 -610 -459 -250
-814 -510 -1136 -833 -249 -250 -432 -493 -584 -774 -64 -120 -71 -129 -179
-225 -575 -513 -963 -1130 -1101 -1752 -78 -354 -79 -746 -1 -1090 95 -424
299 -818 606 -1175 448 -521 1069 -827 1813 -896 159 -15 507 -6 656 16 360
52 642 142 949 301 79 41 145 73 146 72 1 -2 18 -52 39 -111 205 -602 615
-1159 1136 -1544 395 -292 842 -476 1345 -555 122 -19 180 -22 450 -22 268 0
329 3 452 22 516 78 941 240 1352 513 l144 96 72 -96 c121 -163 223 -280 374
-431 623 -622 1427 -1020 2291 -1135 169 -23 589 -31 773 -15 372 31 772 127
1120 266 60 24 111 44 113 44 2 0 4 -987 4 -2194 l0 -2193 -92 -12 c-1395
-183 -2901 -674 -3708 -1210 -415 -275 -668 -574 -751 -887 -32 -122 -36 -293
-10 -420 140 -678 704 -1232 1686 -1656 969 -420 2385 -709 3970 -812 552 -36
712 -41 1440 -41 726 0 908 5 1445 40 2382 156 4314 673 5316 1423 457 343
739 738 835 1171 26 119 26 282 -1 386 -89 348 -427 674 -1023 985 -945 494
-2462 888 -3777 980 -85 6 -188 13 -227 16 l-73 6 0 1992 0 1993 131 27 c699
144 1362 500 1888 1011 216 210 379 406 526 631 32 49 59 90 60 92 2 2 34 -20
71 -49 398 -302 914 -548 1419 -677 379 -97 617 -126 1025 -127 329 0 470 12
725 61 1206 233 2270 1052 2823 2174 l77 156 100 -53 c334 -176 708 -287 1125
-334 156 -17 528 -15 695 5 386 46 701 139 1040 306 885 436 1403 1210 1476
2206 45 611 -110 1293 -421 1854 -116 210 -303 470 -445 620 -56 59 -63 71
-75 130 -65 342 -309 731 -655 1043 -619 558 -1614 1018 -2910 1345 -214 54
-645 149 -811 178 l-101 18 -7 516 c-4 283 -13 985 -21 1560 -32 2273 -37
2843 -34 4080 l3 1285 -23 109 c-153 738 -746 1360 -1668 1745 -149 63 -408
151 -444 151 l-26 0 -6 948 c-11 1564 -9 4022 3 4147 36 353 -91 705 -374
1042 -240 287 -596 526 -992 668 l-131 47 -6 542 c-4 297 -10 1234 -14 2081
l-6 1540 44 20 c76 34 211 129 292 205 158 148 283 354 333 547 58 225 17 529
-106 788 -69 145 -198 322 -301 415 l-39 35 44 63 c169 241 249 550 217 845
-16 143 -50 259 -113 387 -47 96 -62 115 -167 220 -167 166 -325 265 -534 335
-323 107 -634 98 -934 -26 -164 -69 -385 -245 -525 -418 -77 -95 -174 -243
-233 -354 l-46 -86 -97 66 c-110 75 -228 133 -337 165 l-75 22 7 51 c5 27 8
127 8 220 -1 152 -4 181 -28 277 -113 437 -372 692 -822 808 -172 44 -331 57
-500 39z m309 -860 c103 -32 137 -57 170 -122 57 -115 46 -255 -29 -372 -121
-186 -437 -337 -856 -409 l-36 -6 13 87 c72 467 212 749 406 819 103 38 219
39 332 3z m-6567 -264 c192 -57 345 -278 432 -624 32 -128 66 -329 57 -338 -3
-3 -56 4 -118 17 -309 61 -570 176 -682 300 -72 80 -114 211 -101 320 16 139
75 269 137 301 78 40 189 50 275 24z m4408 -50 c39 -16 87 -76 122 -151 58
-128 37 -274 -61 -422 -58 -88 -216 -239 -331 -318 -99 -67 -304 -188 -310
-182 -2 2 -14 69 -26 148 -43 284 -30 548 36 697 71 159 266 262 470 247 38
-3 84 -11 100 -19z m-1972 -289 c152 -74 272 -246 362 -521 40 -119 101 -392
91 -402 -6 -6 -224 34 -321 58 -244 62 -448 167 -524 271 -96 130 -104 329
-21 503 45 95 115 127 266 122 75 -2 100 -7 147 -31z m7076 -81 c78 -19 186
-74 245 -127 57 -49 74 -116 59 -219 -35 -222 -228 -363 -568 -414 -120 -18
-491 -23 -507 -7 -13 13 88 241 164 374 104 182 222 314 330 369 79 40 173 48
277 24z m-12673 -225 c157 -54 322 -234 453 -497 52 -104 131 -294 131 -315 0
-17 -402 -4 -515 17 -316 57 -454 164 -501 388 -18 81 -14 171 12 257 20 69
42 93 120 131 101 50 193 56 300 19z m10548 -445 c121 -20 264 -147 330 -294
41 -91 43 -120 13 -185 -95 -208 -294 -282 -567 -213 -163 42 -364 142 -565
283 l-68 48 29 23 c68 55 259 177 359 228 153 78 332 130 410 119 11 -2 38 -6
59 -9z m-8268 -461 c41 -8 121 -31 177 -50 105 -37 372 -168 422 -208 l28 -22
-119 -96 c-155 -124 -252 -188 -377 -249 -132 -63 -209 -83 -307 -77 -157 10
-309 127 -391 302 -30 65 -31 70 -20 121 14 62 72 157 121 198 39 33 99 65
155 83 56 18 222 17 311 -2z m3038 -458 c106 -23 285 -72 295 -81 2 -2 -20
-37 -50 -77 -183 -253 -358 -422 -519 -501 -61 -30 -72 -32 -170 -32 -101 0
-108 1 -183 38 -87 43 -193 135 -234 204 -22 38 -25 51 -19 95 27 201 146 321
371 374 96 22 360 12 509 -20z m2814 -31 c152 -36 246 -128 309 -303 31 -86
41 -207 20 -248 -22 -43 -106 -118 -168 -150 -71 -36 -197 -45 -285 -19 -136
39 -302 153 -455 312 -97 101 -229 263 -229 281 0 18 356 116 495 135 75 10
254 6 313 -8z m4782 -32 c111 -55 209 -176 250 -312 37 -118 20 -183 -71 -272
-225 -220 -603 -110 -1044 304 l-70 65 155 76 c159 77 323 137 439 161 37 8
112 13 171 12 96 -2 112 -5 170 -34z m-12383 -353 c96 -15 96 -1 1 -173 -154
-281 -303 -453 -458 -532 -72 -37 -189 -46 -275 -20 -79 22 -177 79 -242 140
-65 60 -79 108 -63 209 33 208 204 340 498 386 78 12 439 5 539 -10z m2980
-176 c59 -205 77 -320 77 -504 1 -189 -8 -239 -58 -324 -52 -88 -169 -169
-293 -201 -31 -8 -94 -15 -139 -15 l-82 0 -56 51 c-144 131 -165 323 -59 519
90 167 248 329 483 499 47 33 89 59 95 58 5 -2 20 -39 32 -83z m6342 45 c297
-49 531 -153 623 -278 94 -128 103 -354 20 -506 -22 -41 -38 -55 -87 -80 -55
-27 -69 -30 -160 -30 -92 0 -105 3 -169 33 -134 63 -261 226 -352 451 -42 104
-104 313 -119 400 l-7 44 63 -7 c35 -4 120 -16 188 -27z m-3294 -297 c131
-219 199 -409 199 -562 1 -77 -2 -92 -33 -155 -47 -95 -134 -180 -240 -233
-111 -56 -154 -61 -226 -29 -72 34 -158 120 -192 194 -36 77 -43 207 -18 320
39 177 143 382 302 596 l65 87 38 -52 c20 -29 67 -104 105 -166z m-5123 -31
c144 -96 289 -157 457 -191 55 -11 101 -20 104 -20 2 0 2 -69 -1 -153 -5 -171
6 -272 44 -405 14 -47 22 -87 20 -90 -14 -13 -592 97 -909 175 l-229 55 30 32
c101 108 283 391 378 589 16 31 29 57 31 57 1 0 35 -22 75 -49z m10235 -257
l101 -82 -171 -50 c-246 -73 -230 -70 -220 -36 4 16 8 117 8 225 l0 197 90
-87 c50 -47 136 -123 192 -167z m-2650 -302 c33 -70 86 -165 117 -212 30 -47
52 -88 48 -91 -20 -18 -1078 -125 -1517 -154 -49 -3 -109 -8 -132 -11 l-41 -5
24 61 c34 83 64 202 71 281 l6 65 111 -38 c168 -57 270 -71 466 -65 135 3 183
9 263 30 168 45 356 138 459 228 23 21 48 38 53 38 6 0 38 -57 72 -127z
m-4363 -87 c111 -19 334 -19 441 0 44 8 83 15 88 15 4 0 7 -20 7 -44 0 -71 29
-214 63 -318 l33 -98 -175 0 c-184 0 -903 20 -910 26 -2 1 18 37 43 78 56 89
109 214 138 328 l22 83 80 -27 c45 -15 121 -34 170 -43z m7796 -482 c-45 -183
-147 -485 -224 -658 -264 -598 -630 -1018 -1031 -1181 -329 -134 -753 -91
-1175 121 -422 212 -764 576 -973 1036 l-35 76 187 22 c1207 147 2351 394
3131 675 80 29 146 49 148 45 2 -4 -11 -65 -28 -136z m-12358 -114 c576 -230
1500 -430 2518 -543 249 -28 600 -62 758 -72 57 -4 102 -11 102 -17 0 -5 -16
-49 -36 -96 -261 -613 -881 -1061 -1569 -1132 -194 -20 -435 6 -622 67 -603
197 -1100 770 -1233 1423 -32 159 -47 411 -24 411 2 0 50 -18 106 -41z m8088
-594 c0 -7 -15 -56 -34 -107 -201 -551 -644 -1000 -1206 -1222 -506 -199
-1029 -174 -1529 75 -371 185 -676 466 -887 816 -55 93 -137 268 -159 341 l-7
23 84 -8 c142 -13 1921 -9 2238 5 528 24 1361 75 1410 86 42 10 90 5 90 -9z
m543 -1035 c394 -478 960 -826 1563 -959 316 -70 685 -72 959 -5 276 68 556
208 807 404 99 77 323 299 393 389 l50 64 8 -944 c5 -519 5 -1114 0 -1324 l-8
-380 -91 -57 c-388 -243 -894 -445 -1561 -622 -1833 -488 -4524 -653 -6853
-420 -1785 178 -3179 546 -4072 1076 l-68 40 0 327 c0 179 3 741 7 1249 l6
922 111 -108 c212 -206 424 -357 671 -478 248 -121 469 -191 730 -230 179 -27
521 -25 714 5 457 70 891 254 1268 537 134 101 344 300 451 429 42 50 79 90
83 90 4 0 41 -45 82 -100 396 -529 986 -926 1613 -1085 246 -63 403 -83 659
-84 123 0 264 5 320 12 555 71 1076 301 1515 670 187 157 465 467 555 620 11
18 22 32 25 32 3 0 32 -31 63 -70z m4690 -2841 c259 -131 492 -365 574 -576
62 -161 7 -399 -144 -612 -63 -90 -227 -250 -346 -339 -924 -694 -2896 -1164
-5482 -1307 -974 -54 -2116 -54 -3130 0 -3079 164 -5562 771 -6267 1534 -127
137 -174 250 -165 391 15 225 133 467 317 650 69 69 213 180 233 180 2 0 7
-35 9 -77 10 -161 73 -242 308 -397 539 -357 1214 -638 2080 -867 2198 -580
5321 -702 8020 -313 1668 240 2947 661 3654 1203 217 166 266 253 266 471 0
50 2 90 5 90 3 0 34 -14 68 -31z m516 -2399 c87 -439 90 -785 11 -1180 -151
-753 -613 -1383 -1232 -1680 -538 -257 -1090 -218 -1588 113 -311 206 -616
552 -848 963 -117 205 -334 684 -312 684 21 0 437 63 633 96 1391 232 2515
604 3212 1062 50 33 93 56 97 53 3 -3 16 -53 27 -111z m-14729 -243 c861 -367
2136 -668 3627 -855 123 -16 226 -31 229 -35 10 -9 -98 -317 -162 -465 -280
-644 -719 -1090 -1246 -1267 -396 -132 -811 -118 -1226 41 -627 241 -1149 787
-1432 1498 -138 347 -221 748 -237 1139 l-6 159 149 -75 c82 -41 219 -104 304
-140z m9790 -986 c0 -11 -9 -68 -21 -127 -186 -965 -1005 -1809 -1994 -2057
-215 -54 -371 -70 -610 -64 -266 7 -452 42 -670 127 -720 282 -1273 979 -1586
1999 -22 69 -39 126 -39 126 0 0 107 -7 238 -17 1202 -84 2556 -96 3742 -33
276 15 636 40 785 54 141 14 155 13 155 -8z m-10353 -1208 c531 -748 1305
-1233 2138 -1339 158 -20 478 -22 620 -5 413 51 789 189 1128 415 167 111 266
193 432 360 208 209 377 432 522 688 l56 99 52 -113 c282 -604 693 -1120 1165
-1458 393 -282 850 -458 1336 -515 149 -17 482 -20 635 -5 922 92 1805 588
2412 1357 135 170 314 457 394 631 19 39 36 72 38 72 2 0 12 -15 21 -32 31
-62 243 -373 319 -468 249 -312 528 -567 815 -745 121 -75 346 -184 475 -231
270 -97 505 -138 800 -138 213 -1 305 8 495 45 513 102 1037 400 1426 812 l94
100 0 -1026 0 -1026 -55 -47 c-321 -277 -906 -595 -1525 -829 -2070 -782
-5230 -1101 -8180 -824 -2368 222 -4369 801 -5652 1638 l-148 96 0 1390 0
1389 63 -102 c34 -56 90 -141 124 -189z m-1027 -2263 c0 -490 1 -513 21 -572
39 -117 82 -162 290 -310 1534 -1090 4035 -1793 7014 -1973 508 -30 825 -39
1450 -39 625 0 942 9 1450 39 3164 191 5711 963 6856 2076 96 93 141 167 157
259 5 32 7 215 4 443 l-5 387 39 -14 c333 -117 690 -335 914 -555 410 -405
488 -845 237 -1335 -147 -287 -441 -563 -875 -819 -1264 -748 -3687 -1270
-6597 -1422 -591 -31 -807 -36 -1545 -42 -767 -6 -1284 3 -1910 32 -3677 172
-6714 869 -8159 1873 -343 239 -627 533 -740 767 -38 78 -39 83 -44 217 -6
169 2 209 83 373 176 361 564 727 1044 985 90 49 291 139 309 140 4 0 7 -230
7 -510z m-1010 -2752 c732 -476 1774 -887 3050 -1204 146 -37 266 -67 267 -68
1 -1 -27 -39 -63 -85 -502 -635 -1443 -926 -2197 -680 -674 220 -1187 866
-1303 1640 -19 125 -24 368 -11 491 l9 77 66 -48 c37 -27 119 -82 182 -123z
m19489 -285 c4 -803 -526 -1595 -1256 -1877 -629 -243 -1415 -94 -1978 375
-150 125 -334 333 -303 343 7 3 119 28 248 56 1290 284 2349 688 3045 1161 72
49 153 106 180 127 l50 40 7 -42 c3 -22 7 -105 7 -183z m-14947 -1232 c1191
-210 2419 -339 3975 -419 l142 -7 -56 -75 c-82 -108 -281 -308 -408 -410 -468
-373 -1040 -580 -1605 -580 -638 0 -1262 270 -1745 754 -145 145 -221 238
-331 402 -68 101 -204 347 -204 368 0 8 -17 11 232 -33z m10338 -128 c0 -5
-31 -61 -69 -126 -381 -646 -991 -1144 -1693 -1380 -290 -98 -514 -137 -825
-144 -376 -9 -637 29 -985 143 -610 199 -1153 584 -1526 1082 l-72 97 722 6
c1018 9 1697 39 2603 115 545 45 1246 125 1650 188 171 27 195 29 195 19z
m-15111 -563 c210 -209 421 -360 686 -490 482 -238 1043 -320 1605 -235 52 8
95 13 97 11 1 -1 -4 -38 -13 -82 -23 -112 -23 -362 -1 -479 51 -263 161 -477
341 -663 62 -64 183 -170 214 -187 1 -1 -32 -60 -74 -131 -95 -161 -248 -472
-308 -625 -128 -328 -186 -633 -172 -899 33 -592 289 -1058 692 -1259 205
-103 484 -135 745 -85 401 76 708 363 849 793 113 348 117 815 10 1242 -55
220 -152 464 -265 667 -30 55 -55 102 -55 105 0 2 21 12 48 22 268 99 537 350
663 619 62 133 119 334 119 425 0 53 11 54 101 5 453 -246 937 -377 1445 -391
371 -10 692 32 1069 142 19 6 21 -1 32 -102 45 -419 297 -784 695 -1006 l86
-48 -81 -137 c-221 -378 -375 -751 -443 -1077 -64 -305 -34 -705 73 -995 155
-417 431 -691 789 -782 79 -20 113 -23 299 -22 194 0 217 2 307 26 187 51 330
131 470 266 210 202 336 476 383 835 20 153 20 446 0 607 -49 398 -208 823
-438 1171 l-55 84 69 37 c122 66 191 119 300 227 223 222 340 480 368 815 4
53 10 98 12 100 2 3 51 -18 108 -46 429 -204 849 -325 1306 -373 185 -20 563
-19 751 0 513 54 1057 232 1490 488 l91 54 27 -84 c103 -316 352 -600 668
-763 38 -19 68 -38 68 -42 0 -4 -24 -47 -53 -95 -135 -223 -268 -491 -354
-712 -167 -432 -204 -816 -117 -1210 130 -583 492 -960 979 -1020 511 -63 945
155 1167 585 126 242 178 488 178 839 0 216 -9 315 -46 500 -68 343 -215 695
-417 997 l-63 95 84 43 c351 180 583 505 659 925 17 95 23 409 9 453 -7 20 -5
23 11 18 42 -13 257 -46 377 -57 159 -15 479 -7 626 16 592 91 1096 351 1518
784 l92 95 0 -135 c0 -74 7 -577 15 -1119 27 -1834 37 -3177 31 -3975 l-7
-790 -34 -51 c-137 -209 -401 -452 -725 -668 -1392 -929 -4152 -1596 -7410
-1791 -752 -44 -1357 -59 -2170 -52 -631 6 -874 13 -1335 37 -3910 205 -6945
1101 -8274 2443 l-103 105 -4 3107 -4 3108 42 -49 c22 -27 93 -101 157 -164z
m3989 -365 c138 -64 275 -257 332 -470 26 -97 36 -267 21 -350 -16 -89 -72
-196 -129 -245 -265 -235 -809 -132 -969 183 -107 212 -27 508 194 718 172
164 403 233 551 164z m12009 0 c74 -34 116 -69 179 -149 188 -238 244 -602
126 -819 -55 -103 -176 -184 -315 -214 -87 -18 -243 -13 -332 11 -140 38 -290
132 -354 221 -60 84 -84 150 -89 249 -6 114 12 188 73 311 75 154 191 274 336
350 133 70 280 85 376 40z m-6567 -390 c200 -70 380 -398 382 -695 2 -226 -78
-372 -246 -451 -304 -142 -725 -11 -863 268 -34 68 -38 85 -41 172 -3 68 1
115 13 160 79 304 370 560 636 561 43 0 95 -7 119 -15z m-5793 -2022 c199
-337 297 -730 265 -1060 -24 -245 -90 -391 -200 -444 -60 -30 -208 -33 -258
-7 -106 57 -196 251 -224 483 -30 255 53 542 290 993 35 67 67 122 70 122 3 0
29 -39 57 -87z m12236 -178 c104 -177 188 -397 228 -593 27 -134 37 -403 19
-524 -28 -191 -93 -320 -185 -367 -43 -23 -62 -26 -146 -26 -87 0 -99 2 -137
27 -150 100 -247 458 -198 738 33 188 143 472 286 735 73 133 61 132 133 10z
m-6483 -498 c78 -157 129 -306 162 -469 20 -97 23 -142 22 -323 0 -184 -3
-220 -22 -290 -45 -162 -112 -257 -201 -283 -48 -15 -180 -16 -218 -1 -130 49
-243 327 -243 596 0 221 104 533 293 880 l72 132 33 -52 c19 -29 65 -114 102
-190z m11800 -812 c284 -65 667 -171 947 -264 853 -281 1498 -624 1881 -1003
293 -289 384 -515 353 -876 -23 -263 -76 -454 -195 -697 -415 -845 -1462
-1607 -3091 -2250 -4089 -1614 -11305 -2166 -17182 -1314 -3071 445 -5463
1238 -6821 2263 -214 162 -324 257 -502 436 -310 309 -521 610 -599 855 -149
465 44 1002 541 1506 446 452 1072 821 1799 1060 156 51 506 145 612 163 l39
7 -8 -898 c-7 -962 -7 -968 42 -1065 34 -67 157 -211 319 -373 383 -381 855
-719 1445 -1031 702 -372 1611 -709 2601 -963 1371 -353 2954 -581 4684 -675
627 -35 895 -41 1745 -41 846 0 1114 7 1750 40 2755 148 5211 625 6890 1341
232 98 651 306 835 414 572 335 990 699 1257 1095 121 179 148 242 158 367 5
57 12 531 16 1054 l7 951 181 -38 c100 -20 233 -49 296 -64z m3907 -3067 c260
-663 253 -1322 -19 -1849 -313 -607 -1034 -1001 -1833 -1001 -199 -1 -301 9
-475 43 -216 43 -468 135 -635 232 l-77 45 253 124 c1226 601 2050 1273 2511
2051 68 115 168 316 203 410 10 26 21 47 25 47 4 0 25 -46 47 -102z m-29906
-83 c167 -506 704 -1154 1371 -1656 275 -207 619 -427 938 -599 74 -41 166
-90 203 -111 l69 -37 -114 -56 c-562 -276 -1261 -275 -1814 4 -172 87 -299
177 -423 300 -514 510 -686 1170 -474 1815 31 93 200 452 208 443 2 -2 18 -48
36 -103z m25632 -3047 c-80 -156 -226 -381 -343 -528 -113 -142 -389 -415
-530 -524 -572 -443 -1204 -666 -1890 -666 -596 0 -1215 179 -1722 498 -138
86 -300 205 -290 213 4 3 45 11 92 18 1535 220 3225 607 4433 1016 166 56 306
103 310 104 5 0 -22 -59 -60 -131z m-21098 -139 c828 -266 1752 -496 2750
-684 165 -31 301 -58 303 -59 1 -2 -35 -32 -80 -68 -305 -241 -680 -405 -1095
-480 -112 -20 -160 -23 -383 -22 -272 0 -349 8 -551 59 -619 157 -1169 613
-1473 1223 -38 76 -106 233 -106 246 0 2 87 -28 193 -66 105 -38 305 -105 442
-149z m4280 -933 c964 -133 2000 -233 3060 -295 565 -33 1229 -61 1467 -61 87
0 139 -4 143 -11 4 -6 -58 -75 -141 -157 -513 -506 -1156 -815 -1864 -898
-195 -22 -547 -15 -734 15 -852 137 -1629 633 -2107 1343 -33 48 -59 90 -59
93 0 4 12 4 28 1 15 -3 108 -17 207 -30z m10875 -91 c0 -8 -59 -105 -120 -195
-98 -146 -215 -286 -360 -430 -666 -665 -1580 -982 -2454 -850 -723 109 -1429
514 -1885 1080 l-85 105 105 6 c57 4 210 7 339 8 1146 6 2895 111 4110 246
313 34 350 38 350 30z m-5455 -950 c122 -151 382 -408 545 -539 138 -111 382
-277 525 -358 460 -261 983 -430 1488 -480 l117 -12 0 -2527 0 -2527 -57 -32
c-104 -56 -306 -147 -445 -199 -801 -300 -1609 -291 -2408 26 -90 36 -227 96
-302 134 l-138 69 0 3013 0 3014 108 88 c59 48 188 169 287 269 99 100 183
179 186 176 3 -3 45 -54 94 -115z m-1515 -6448 c0 -232 3 -305 16 -352 19 -74
54 -136 108 -190 53 -53 239 -161 481 -280 498 -245 994 -390 1525 -447 185
-19 637 -16 825 6 620 73 1208 274 1785 608 131 76 191 127 233 199 50 85 57
138 57 446 l0 282 63 -4 c611 -47 935 -89 1443 -190 1174 -233 2265 -657 2670
-1038 112 -105 112 -105 74 -208 -111 -308 -470 -628 -1001 -895 -970 -486
-2538 -829 -4329 -948 -450 -30 -638 -37 -1200 -43 -1375 -14 -2590 89 -3695
313 -1588 323 -2622 875 -2782 1485 -17 65 -17 65 7 114 44 91 201 239 387
363 627 422 1898 851 3073 1037 91 14 172 28 180 29 8 2 30 4 48 5 l32 1 0
-293z"/>
</g>
</svg>
