<?xml version="1.0" standalone="no"?>
<!DOCTYPE svg PUBLIC "-//W3C//DTD SVG 20010904//EN"
 "http://www.w3.org/TR/2001/REC-SVG-20010904/DTD/svg10.dtd">
<svg version="1.0" xmlns="http://www.w3.org/2000/svg"
 width="7981.000000pt" height="7123.000000pt" viewBox="0 0 7981.000000 7123.000000"
 preserveAspectRatio="xMidYMid meet">

<g transform="translate(0.000000,7123.000000) scale(0.100000,-0.100000)"
fill="#000000" stroke="none">
<path d="M40665 71219 c-218 -22 -534 -90 -661 -142 -118 -47 -204 -116 -266
-211 -42 -65 -78 -168 -78 -222 0 -31 -65 -339 -75 -355 -3 -3 -39 -9 -81 -13
-42 -4 -90 -10 -106 -13 l-28 -5 0 89 c0 153 -50 289 -153 414 -211 255 -580
345 -1122 274 -218 -29 -465 -91 -585 -146 -175 -81 -278 -220 -309 -414 -6
-38 -33 -164 -59 -280 l-48 -210 -29 -3 c-284 -26 -645 -111 -771 -183 -110
-62 -217 -185 -254 -294 -32 -94 -90 -600 -110 -965 -6 -107 -14 -198 -18
-201 -12 -11 -484 -284 -586 -340 -119 -65 -183 -120 -242 -209 -51 -78 -72
-124 -84 -188 -8 -45 26 -2071 50 -2922 6 -212 17 -657 25 -990 8 -333 20
-787 27 -1010 9 -277 13 -923 12 -2040 0 -899 -2 -1678 -3 -1730 -1 -52 -2
-651 -2 -1330 0 -1257 -11 -3562 -29 -6405 -6 -869 -15 -2262 -20 -3095 -6
-833 -13 -2921 -17 -4640 -7 -3512 -14 -3179 70 -3302 57 -83 139 -138 254
-173 48 -14 615 -199 1258 -411 644 -212 1240 -408 1325 -436 137 -45 166 -52
245 -53 54 0 100 -6 114 -14 13 -7 688 -237 1500 -509 l1476 -497 120 1 120 0
141 57 c109 44 687 252 860 309 28 9 63 -2 335 -105 627 -238 1144 -421 1914
-677 442 -147 463 -153 540 -153 66 0 93 6 155 31 41 17 664 298 1383 625
l1308 594 52 -28 c29 -15 180 -66 337 -114 585 -177 1266 -393 1580 -500 150
-51 227 -44 405 37 61 28 461 224 890 436 796 392 1253 616 1405 686 103 48
183 122 225 211 33 69 43 182 27 299 l-9 69 136 65 c492 234 1186 550 2356
1075 1453 651 2480 1125 2571 1188 77 52 134 138 158 234 12 49 16 252 26
1105 26 2488 58 4162 195 10260 89 3969 127 5990 155 8275 15 1234 14 1419 -5
1485 -46 154 -86 187 -558 453 l-385 219 -7 51 c-68 529 -126 794 -195 899
-17 25 -77 90 -133 145 -153 147 -275 204 -509 239 -175 26 -521 11 -719 -31
-24 -5 -30 0 -57 47 -94 168 -281 306 -483 357 -265 67 -672 48 -1058 -49
-201 -51 -315 -105 -400 -191 -132 -131 -180 -326 -126 -506 l13 -43 -26 0
c-55 0 -311 -42 -429 -70 -149 -36 -322 -93 -386 -127 -63 -35 -142 -120 -173
-187 -27 -59 -51 -200 -79 -476 -13 -120 -22 -170 -34 -182 -9 -9 -81 -62
-161 -117 l-145 -100 -5 322 c-6 357 -7 363 -77 465 -37 54 -97 104 -169 140
-39 20 -41 23 -52 89 -7 37 -41 253 -78 478 -108 672 -104 662 -262 822 -140
144 -260 208 -468 250 -110 22 -449 25 -594 4 -352 -48 -619 -129 -734 -220
-43 -35 -43 -35 -106 -20 -80 18 -291 27 -438 18 -313 -20 -643 -92 -804 -176
-161 -84 -277 -244 -295 -407 l-7 -61 -8 63 c-10 93 -34 155 -83 220 -78 102
-194 162 -315 162 -67 0 -70 1 -70 24 0 43 -67 258 -161 512 -140 384 -197
546 -220 636 -30 119 -61 169 -179 289 -93 94 -116 112 -200 153 -124 60 -259
94 -421 104 -152 10 -372 -1 -526 -26 l-112 -18 -50 76 c-97 150 -253 266
-425 319 -208 64 -528 69 -856 15 -167 -28 -399 -92 -487 -134 -187 -91 -304
-267 -303 -455 1 -55 4 -80 25 -170 l6 -30 -143 -18 c-79 -9 -200 -30 -270
-45 l-127 -28 -5 40 c-8 58 -54 881 -71 1246 -17 386 -31 443 -133 552 -61 65
-106 91 -243 137 -63 22 -204 72 -314 111 -110 40 -342 121 -515 180 -302 103
-315 109 -322 136 -4 16 -39 227 -78 469 -92 578 -99 609 -156 725 -40 80 -61
109 -138 186 -130 129 -249 190 -450 230 -98 19 -384 27 -511 13z m446 -1374
l15 -100 -25 -8 c-15 -5 -103 -11 -197 -14 l-172 -6 -7 43 c-4 24 -22 71 -40
106 l-34 64 82 1 c45 1 123 5 172 9 50 4 113 7 140 6 l50 -1 16 -100z m-2545
-82 c-5 -17 -46 -341 -61 -482 l-7 -63 -97 6 c-53 4 -114 9 -136 12 l-41 6
-26 129 c-32 160 -58 213 -148 311 -38 42 -70 78 -70 80 0 1 73 2 162 0 130
-2 309 5 416 17 8 0 11 -6 8 -16z m1457 -859 c10 -64 14 -121 10 -125 -5 -5
-56 -14 -113 -20 -145 -14 -290 -2 -507 42 l-103 22 0 66 c0 122 -24 111 249
112 130 1 270 5 311 9 41 4 89 7 105 8 l30 2 18 -116z m1412 -38 c147 -41 543
-164 563 -175 9 -5 -12 -19 -60 -38 -949 -392 -1222 -503 -1225 -499 -2 2 11
13 30 25 54 33 116 107 148 176 42 88 47 170 20 305 -23 118 -40 214 -38 216
1 1 70 7 152 14 83 7 152 14 155 17 12 12 134 -8 255 -41z m-3953 -275 c10
-63 17 -116 15 -118 -16 -15 -145 -25 -287 -20 -146 5 -326 31 -430 62 -12 4
-14 19 -12 72 5 119 -16 108 194 105 101 -1 233 1 293 6 61 5 132 9 160 8 l50
-1 17 -114z m1022 -247 c26 -63 104 -145 173 -181 100 -53 385 -140 608 -187
322 -67 668 -73 919 -16 27 6 50 9 51 8 11 -11 -1336 -521 -1850 -700 l-200
-70 -75 12 c-240 37 -637 129 -980 226 -274 79 -713 214 -723 223 -5 5 13 21
40 36 l48 27 133 -32 c550 -130 1024 -95 1419 106 134 68 201 119 245 186 80
122 95 238 52 391 -5 15 2 17 58 17 l63 0 19 -46z m4235 -789 c17 -281 33
-571 37 -645 l6 -135 -353 -157 c-466 -206 -949 -412 -1944 -831 -801 -337
-1308 -553 -1629 -696 -88 -39 -161 -69 -163 -67 -8 7 -42 1441 -35 1447 4 3
113 43 242 89 499 176 1164 430 1880 717 340 137 612 249 1665 683 143 59 261
107 262 106 1 -1 16 -231 32 -511z m-6500 -714 c503 -156 615 -189 861 -256
177 -48 567 -139 683 -159 l37 -7 1 -112 c0 -62 8 -395 18 -742 9 -346 17
-631 17 -631 -1 -1 -75 20 -166 47 -91 27 -439 126 -775 220 -746 208 -1027
289 -1040 300 -5 6 -14 262 -21 622 -15 735 -16 837 -7 837 4 0 180 -54 392
-119z m9218 -38 c-5 -26 -27 -269 -45 -492 l-7 -94 -57 184 c-31 101 -69 229
-83 284 -14 55 -28 108 -31 117 -4 15 5 18 73 21 43 1 95 4 117 5 37 2 38 1
33 -25z m1614 -463 c21 -58 35 -108 31 -112 -15 -14 -161 -67 -242 -86 -172
-42 -398 -52 -578 -25 l-44 6 6 106 c4 58 9 125 12 149 l5 42 247 1 c136 1
301 7 367 14 66 7 128 12 138 11 14 -1 28 -26 58 -106z m-2439 -430 l36 -110
-49 -14 c-169 -51 -394 -44 -702 20 -98 20 -91 11 -81 124 l6 65 272 2 c149 1
305 6 346 11 147 18 130 28 172 -98z m-1640 -18 c-5 -1 -142 -81 -303 -177
-328 -194 -382 -237 -429 -337 -51 -109 -52 -142 -30 -548 15 -275 22 -931 13
-1208 l-8 -243 -1805 -804 -1805 -804 -3 622 c-2 342 0 861 4 1153 l6 532 262
117 c430 194 967 424 2001 860 1031 434 1387 587 1830 783 l270 120 3 -31 c2
-18 -1 -33 -6 -35z m2672 -472 c43 -18 193 -64 296 -91 l45 -11 -410 -139
c-225 -76 -412 -139 -414 -139 -2 0 51 28 118 61 147 74 225 140 271 231 16
34 30 69 30 78 0 14 8 30 16 30 1 0 23 -9 48 -20z m5775 -399 c11 -69 18 -128
15 -132 -2 -4 -30 -16 -62 -26 -91 -28 -317 -25 -450 6 -65 15 -106 30 -111
40 -5 9 -14 54 -20 101 -7 47 -14 94 -17 105 -5 20 1 20 228 22 128 1 269 6
313 10 44 4 81 6 82 3 2 -3 11 -61 22 -129z m-6279 10 c-8 -5 -26 -11 -40 -15
-21 -5 -20 -3 5 9 32 15 60 20 35 6z m2530 -618 c0 -318 3 -661 6 -763 l7
-185 -84 -33 c-609 -241 -965 -371 -1569 -573 -244 -81 -446 -147 -447 -145
-2 2 -8 187 -13 412 -10 404 -24 804 -36 1040 l-7 120 534 177 c1090 359 1594
525 1602 526 4 1 7 -259 7 -576z m2293 485 c3 -13 11 -59 17 -103 6 -44 13
-87 16 -96 6 -22 -11 -27 -129 -40 -74 -8 -133 -8 -221 0 -119 11 -365 56
-378 69 -4 4 -4 44 -1 90 l6 82 251 1 c138 1 283 5 321 9 116 12 112 12 118
-12z m5373 -305 c-14 -129 -36 -402 -36 -453 0 -106 -15 -85 -73 102 -63 205
-109 380 -102 387 3 2 49 8 103 11 53 4 101 8 106 8 5 1 6 -24 2 -55z m-18766
-166 c681 -191 872 -246 1089 -313 l124 -38 -7 -136 c-3 -74 -9 -604 -13
-1177 -3 -579 -10 -1043 -15 -1043 -5 0 -381 122 -836 271 -455 148 -862 281
-904 295 l-77 25 -5 42 c-3 23 -8 159 -11 302 -3 143 -14 611 -25 1040 -25
977 -25 929 -2 923 9 -3 316 -89 682 -191z m6945 53 c523 -123 732 -170 984
-221 107 -21 195 -40 196 -41 3 -4 24 -535 35 -888 13 -398 13 -650 0 -650
-35 0 -936 253 -1397 393 l-273 82 0 713 c0 588 2 712 13 712 8 0 206 -45 442
-100z m13335 -227 c0 -5 7 -53 15 -108 22 -153 27 -140 -62 -168 -137 -43
-208 -52 -398 -52 -99 0 -201 4 -227 8 l-48 8 0 67 c0 37 3 103 6 147 l7 80
266 2 c146 1 300 6 341 11 41 5 81 10 88 11 6 0 12 -2 12 -6z m-8210 -198 c69
-35 369 -129 520 -163 183 -42 319 -61 479 -69 l133 -6 -6 -151 c-3 -83 -9
-434 -12 -779 -6 -573 -8 -628 -23 -624 -9 2 -282 80 -607 173 l-591 169 -7
175 c-3 96 -9 446 -13 777 l-6 603 44 -41 c24 -23 64 -51 89 -64z m3110 -427
c0 -266 -4 -489 -8 -496 -5 -6 -215 -120 -468 -253 -252 -132 -510 -268 -573
-301 l-114 -60 7 693 c6 596 5 701 -7 742 l-15 47 59 35 c51 30 62 33 91 24
68 -20 258 -48 368 -55 183 -11 419 23 590 85 30 11 58 20 63 20 4 1 7 -216 7
-481z m2774 65 c27 -82 51 -153 53 -160 5 -13 -116 -54 -211 -72 -185 -34
-404 -33 -581 3 -72 14 -70 6 -60 203 l7 142 225 0 c196 0 490 16 502 27 12
11 20 -8 65 -143z m1175 -509 c232 -70 556 -112 780 -101 63 4 112 4 109 2
-16 -17 -1296 -525 -1321 -525 -13 0 -118 28 -233 61 -115 34 -219 64 -231 66
-13 3 -23 8 -23 12 0 3 36 19 80 34 102 36 283 125 369 181 122 80 235 218
255 313 l7 32 47 -20 c26 -11 98 -36 161 -55z m2118 -1056 c-4 -304 -10 -738
-14 -964 l-6 -410 -1061 -469 c-584 -258 -1064 -470 -1068 -472 -5 -2 -8 445
-8 994 l0 999 503 201 c488 196 1391 566 1552 636 44 19 86 35 94 36 12 1 13
-80 8 -551z m-10117 375 c0 -38 9 -461 21 -941 12 -480 20 -874 18 -876 -17
-13 -2123 -936 -2127 -931 -6 6 -34 1872 -30 1999 2 58 7 81 18 87 8 5 177 60
375 123 544 174 1153 388 1530 537 94 37 176 67 183 68 8 1 12 -18 12 -66z
m5508 -182 c687 -226 1099 -358 1412 -452 l215 -64 -3 -1019 c-1 -561 -4
-1021 -6 -1023 -2 -2 -75 27 -162 63 -256 107 -654 263 -1019 399 -468 175
-1053 385 -1072 385 -15 0 -16 56 -10 662 4 364 7 796 7 961 0 265 2 298 15
293 9 -3 289 -96 623 -205z m-10135 -40 c487 -148 1071 -313 1554 -437 l112
-29 5 -80 c6 -94 30 -2035 24 -2039 -5 -5 -1936 548 -1944 557 -5 4 -18 427
-30 940 -24 996 -27 1177 -18 1177 3 0 136 -40 297 -89z m-1118 -953 c13 -552
25 -1060 27 -1130 l3 -127 -1675 -717 c-921 -394 -1679 -719 -1684 -722 -5 -3
-7 474 -5 1115 l4 1120 1650 735 c908 405 1652 734 1653 732 2 -1 14 -454 27
-1006z m9776 368 l-6 -478 -580 -359 c-319 -197 -581 -356 -583 -354 -2 2 -1
242 3 534 l8 530 581 305 c319 167 581 304 582 303 0 -1 -2 -217 -5 -481z
m-2572 -137 l574 -164 -6 -584 c-4 -322 -9 -586 -11 -588 -4 -4 -1117 397
-1128 406 -4 3 -12 184 -17 401 -6 217 -13 464 -16 549 -6 144 -5 153 12 149
10 -3 276 -79 592 -169z m-12334 -416 c462 -151 868 -283 903 -294 l62 -21 0
-1120 c0 -984 -2 -1119 -15 -1114 -41 15 -1068 350 -1385 451 -201 64 -386
123 -412 131 l-48 16 0 772 c0 425 3 929 7 1120 6 345 6 346 27 340 12 -3 399
-130 861 -281z m14889 -1605 c-2 -381 -7 -740 -10 -797 -6 -95 -8 -104 -28
-109 -11 -3 -273 -131 -580 -284 -308 -153 -561 -276 -564 -274 -2 3 -1 323 3
711 7 628 10 708 24 725 12 14 1147 720 1157 720 2 0 1 -312 -2 -692z m6066
135 c0 -339 -30 -1657 -37 -1663 -4 -4 -474 -185 -1043 -403 -569 -218 -1044
-399 -1054 -403 -19 -7 -19 8 -12 836 3 464 8 845 10 847 6 6 2120 942 2129
942 4 1 7 -70 7 -156z m-10010 15 c0 -51 9 -406 20 -788 15 -542 16 -697 7
-703 -7 -5 -493 -206 -1082 -447 l-1070 -438 -6 181 c-4 100 -8 444 -10 765
l-4 583 1060 469 c583 257 1066 469 1073 469 9 1 12 -24 12 -91z m5185 -96
c651 -238 1164 -438 1615 -632 l225 -96 0 -796 c0 -438 -3 -799 -5 -802 -3 -2
-512 160 -1130 362 l-1125 368 3 449 c1 248 5 640 9 872 l6 421 36 -13 c20 -7
185 -67 366 -133z m-3784 -62 c294 -107 535 -194 536 -195 4 -2 -17 -1269 -21
-1273 -4 -3 -1034 376 -1045 384 -2 2 -10 227 -17 501 -7 274 -15 563 -17 641
-5 134 -4 143 13 139 9 -2 258 -91 551 -197z m-5383 -425 l927 -265 32 -38
c20 -23 34 -52 37 -77 3 -22 8 -339 12 -704 6 -644 6 -664 -12 -659 -449 128
-1004 269 -1558 397 -191 44 -349 81 -351 83 -2 3 -36 1383 -35 1476 0 28 5
52 10 52 6 0 428 -119 938 -265z m-1778 23 c-1 -24 9 -483 22 -1020 12 -538
20 -979 18 -982 -7 -6 -3433 -1476 -3434 -1473 -1 1 1 468 4 1037 l5 1034
1685 723 c927 397 1688 722 1693 723 4 0 7 -19 7 -42z m-5500 -997 c379 -122
1203 -396 1253 -416 16 -7 17 -66 17 -1042 0 -892 -2 -1034 -14 -1030 -40 16
-1017 334 -1400 456 -241 77 -440 142 -441 143 -1 2 0 469 3 1039 l5 1037 71
-24 c39 -12 267 -86 506 -163z m15182 -933 c-2 -282 -6 -629 -10 -771 l-7
-259 -589 -299 c-325 -164 -591 -298 -592 -296 0 1 2 236 7 522 4 286 8 635 8
776 l1 255 588 292 c323 160 589 292 592 292 3 0 4 -231 2 -512z m-2474 143
c249 -93 455 -171 458 -173 4 -4 -12 -1412 -19 -1624 l-2 -71 -470 160 c-258
88 -472 162 -474 164 -3 2 -47 1497 -51 1730 l0 23 53 -20 c28 -11 256 -96
505 -189z m-1384 -148 c3 -60 8 -229 11 -378 3 -148 7 -324 10 -390 l5 -120
-20 83 c-27 117 -61 172 -180 293 -96 98 -114 111 -210 157 -138 66 -287 101
-434 102 -33 0 -56 3 -53 7 9 8 838 351 853 352 8 1 14 -35 18 -106z m5223
-244 c280 -91 496 -167 489 -171 -22 -12 -1007 -398 -1017 -398 -10 0 -13 681
-3 718 4 13 12 21 18 19 6 -2 237 -78 513 -168z m4659 -647 c-7 -342 -15 -624
-17 -626 -10 -8 -2080 -788 -2083 -785 -2 2 -1 321 2 708 l7 705 1050 402
1050 402 3 -92 c1 -50 -4 -371 -12 -714z m-14629 633 c130 -31 136 -33 108
-44 -77 -30 -181 -89 -236 -133 l-59 -48 0 83 c0 45 -3 106 -6 135 l-7 52 31
-6 c18 -4 94 -21 169 -39z m11695 -1467 c-2 -491 -7 -896 -11 -899 -3 -4 -496
-192 -1096 -419 -599 -227 -1110 -420 -1135 -430 l-46 -18 3 292 c2 160 6 559
9 886 l6 595 1127 442 c619 243 1131 443 1137 443 8 0 10 -246 6 -892z
m-12682 -252 c11 -468 17 -853 13 -857 -9 -7 -3488 -1499 -3497 -1499 -3 0 -5
424 -4 941 l3 942 1730 742 1730 742 3 -81 c1 -45 11 -463 22 -930z m1615 454
c94 -5 234 -10 313 -10 l144 0 -7 -102 c-4 -57 -11 -110 -16 -119 -15 -30
-244 -69 -404 -69 -115 0 -201 12 -299 41 l-68 20 6 42 c4 23 14 82 23 131
l16 88 61 -6 c34 -4 138 -11 231 -16z m3400 -22 c8 -37 35 -211 35 -230 0 -24
-111 -57 -220 -65 -93 -6 -233 12 -345 45 l-60 18 -17 100 c-9 54 -17 106 -17
115 -1 14 24 16 212 18 175 2 288 7 394 20 7 0 15 -9 18 -21z m-1421 -334 c10
-64 16 -117 14 -120 -2 -2 -37 -8 -78 -15 -137 -21 -382 -2 -582 47 l-68 16 0
47 c0 25 3 63 6 84 l7 37 236 1 c130 1 270 5 311 9 41 4 89 7 106 8 l31 2 17
-116z m-8500 -361 l589 -196 -6 -950 c-4 -522 -8 -951 -10 -953 -1 -2 -151 46
-332 106 -314 103 -1012 329 -1362 440 l-163 51 0 313 c0 172 3 603 7 958 l6
644 341 -109 c188 -60 606 -197 930 -304z m14471 -635 l-8 -904 -596 -265
c-547 -244 -596 -264 -600 -245 -2 12 2 399 8 861 l12 840 22 22 c22 22 1158
604 1166 598 2 -2 0 -410 -4 -907z m-2156 324 l134 -47 -2 -195 c-2 -321 -23
-1855 -25 -1857 -1 -1 -187 46 -414 104 l-412 107 -4 30 c-3 17 -14 436 -26
931 -11 495 -23 966 -27 1047 l-6 148 324 -111 c178 -61 384 -132 458 -157z
m8171 51 c0 -105 -41 -1847 -43 -1849 -11 -8 -2038 -796 -2040 -793 -2 2 0
438 3 968 5 823 8 966 21 974 20 12 2031 775 2047 776 8 1 12 -21 12 -76z
m-13337 -118 c56 -32 302 -113 462 -154 523 -132 985 -119 1362 39 53 22 127
58 165 80 67 38 71 39 115 29 l45 -12 -649 -233 c-356 -129 -670 -241 -697
-250 l-49 -17 -623 234 c-343 129 -624 237 -624 241 0 5 21 8 48 8 53 0 301
35 347 49 45 14 49 13 98 -14z m3571 -422 c3 -16 8 -194 11 -398 4 -203 9
-378 12 -388 3 -12 -18 0 -59 33 -232 188 -617 241 -1122 155 -280 -48 -480
-112 -579 -186 -55 -42 -68 -44 -137 -27 -25 6 -125 13 -222 17 l-177 6 1127
407 c620 223 1130 407 1134 407 3 1 9 -11 12 -26z m-4461 -370 l449 -168 -109
-12 c-293 -33 -447 -99 -621 -267 -105 -101 -138 -150 -162 -240 l-17 -61 -6
40 c-3 22 -9 218 -12 435 -3 217 -9 408 -12 424 -5 26 -3 28 18 23 12 -3 225
-82 472 -174z m11311 -1085 c-4 -535 -9 -976 -13 -979 -6 -7 -2232 -878 -2264
-887 -18 -5 -18 28 -12 909 4 503 10 949 14 992 l6 79 1130 428 c622 236 1134
429 1138 430 4 0 5 -438 1 -972z m-12604 -49 c11 -442 20 -840 20 -884 l0 -80
-348 -144 c-328 -136 -735 -303 -1997 -819 -297 -121 -693 -284 -879 -361
-186 -78 -343 -141 -349 -141 -9 0 -1 1719 8 1728 6 7 3520 1510 3523 1508 1
-2 11 -365 22 -807z m-5900 -184 c184 -58 599 -194 923 -301 l587 -195 0 -870
0 -869 -62 24 c-74 27 -996 328 -1482 483 l-339 108 6 269 c4 148 7 539 7 869
0 485 2 598 13 594 7 -3 163 -53 347 -112z m15381 -824 c-5 -469 -11 -854 -13
-857 -5 -4 -1202 -492 -1204 -490 -3 6 22 1665 26 1668 8 6 1195 535 1197 533
1 0 -2 -385 -6 -854z m-7556 678 c121 -6 255 -8 298 -4 l78 6 -7 -98 c-11
-155 -3 -144 -130 -172 -88 -19 -141 -24 -279 -25 -167 -1 -207 4 -331 40
l-51 15 14 77 c7 42 18 101 24 131 l11 54 76 -7 c43 -3 176 -11 297 -17z
m3305 -1 c0 -2 14 -111 30 -242 17 -132 30 -243 30 -246 0 -8 -126 -37 -196
-45 -66 -7 -215 10 -319 36 -44 11 -81 22 -83 24 -4 3 -72 424 -72 443 0 9 47
12 198 13 108 1 235 4 282 8 114 10 130 11 130 9z m-1397 -414 c15 -96 25
-180 21 -185 -10 -16 -136 -76 -207 -98 -104 -32 -267 -45 -407 -32 -65 6
-124 11 -131 11 -9 0 -11 45 -6 204 4 112 10 216 13 232 l5 29 192 -3 c106 -1
242 1 302 6 61 5 128 10 150 11 l40 1 28 -176z m11623 -131 c-3 -93 -16 -620
-27 -1173 -12 -553 -24 -1008 -28 -1011 -3 -4 -215 -90 -471 -192 -256 -102
-701 -283 -989 -402 -288 -119 -525 -215 -526 -213 -5 5 14 2360 19 2365 6 6
2008 791 2020 792 5 1 6 -72 2 -166z m-8218 -38 c112 -29 204 -54 206 -56 2
-2 0 -283 -5 -624 -5 -341 -10 -706 -12 -811 l-2 -191 -385 144 -385 143 -1
774 0 773 190 -49 c105 -27 282 -74 394 -103z m-5171 -579 c49 -97 130 -159
278 -212 318 -113 638 -180 933 -192 l153 -7 -158 -67 c-87 -38 -164 -68 -172
-68 -10 0 -1389 566 -1399 575 -1 1 77 2 173 2 l176 1 16 -32z m-1767 -1025
l0 -769 -182 -77 c-374 -158 -841 -348 -1878 -762 -586 -234 -1229 -493 -1428
-574 -200 -82 -366 -149 -368 -149 -2 0 -4 339 -4 754 l0 753 48 21 c325 138
1156 481 1947 804 879 359 1615 661 1795 739 36 15 66 28 68 28 1 1 2 -345 2
-768z m12282 -661 l-7 -1044 -305 -128 c-930 -391 -1981 -820 -1988 -813 -5 4
16 2437 21 2441 1 1 515 202 1142 447 l1140 445 2 -151 c2 -84 -1 -622 -5
-1197z m-6763 878 c-1 -255 -4 -528 -8 -607 l-6 -144 -1165 -473 c-641 -261
-1166 -474 -1167 -474 -6 0 0 1070 6 1138 l6 74 270 115 c470 200 930 391
1240 515 295 119 803 315 818 317 4 1 6 -207 6 -461z m-3817 -190 l637 -263
-1 -525 c0 -289 -3 -595 -7 -680 l-6 -156 -747 275 -748 274 0 718 0 718 118
-49 c64 -27 404 -167 754 -312z m-7837 -328 c582 -186 1434 -470 1440 -480 3
-5 2 -350 -1 -768 l-7 -759 -371 123 c-334 110 -838 273 -1328 429 l-178 56 0
537 c0 650 9 1002 24 996 6 -2 196 -62 421 -134z m15290 -987 l-7 -592 -22 -7
c-11 -3 -283 -119 -604 -256 -321 -138 -585 -248 -588 -245 -4 4 15 1639 20
1644 1 1 271 112 601 246 l600 244 3 -221 c2 -122 0 -487 -3 -813z m-2470 484
c171 -63 336 -125 369 -137 l58 -22 -7 -687 c-4 -377 -10 -738 -14 -802 l-6
-115 -376 129 -376 130 4 621 c4 760 11 1009 27 1003 6 -2 151 -56 321 -120z
m-1187 -1532 c-5 -494 -12 -902 -16 -906 -10 -9 -2323 -922 -2325 -918 -1 2
-1 402 1 889 l3 885 1172 476 c645 262 1172 476 1172 475 0 0 -3 -406 -7 -901z
m9588 733 c-3 -84 -13 -576 -21 -1093 -9 -517 -18 -985 -21 -1040 l-6 -101
-391 -156 c-392 -156 -916 -373 -1334 -551 l-222 -94 5 1026 c4 564 9 1100 13
1190 l6 164 105 44 c582 245 1846 762 1864 763 5 0 6 -66 2 -152z m-15086
-254 l0 -177 -32 27 c-66 53 -170 107 -264 138 -53 18 -92 34 -88 35 5 2 88
37 184 77 96 41 181 75 188 75 9 1 12 -40 12 -175z m1588 -356 l743 -273 -7
-905 c-4 -498 -7 -906 -8 -906 0 -1 -334 123 -741 276 l-740 278 -3 901 c-1
496 1 901 5 901 5 0 342 -123 751 -272z m-7638 -531 c283 -92 702 -229 930
-305 l415 -139 3 -1096 2 -1097 -137 49 c-76 26 -504 176 -952 332 l-814 284
6 500 c4 275 7 758 7 1074 0 454 3 572 13 568 6 -2 244 -79 527 -170z m18312
-1061 c-5 -700 -12 -1190 -18 -1195 -30 -27 -2255 -961 -2290 -961 -7 0 0
1086 12 1962 l7 446 356 142 c364 146 1307 533 1711 703 124 52 226 94 228 92
1 -1 -2 -536 -6 -1189z m-3127 282 c-4 -403 -10 -736 -14 -739 -4 -4 -1095
-425 -1204 -465 -18 -6 -18 16 -11 567 3 316 9 637 13 713 l6 140 595 257
c327 141 601 258 609 258 11 1 12 -116 6 -731z m-12590 415 c-12 -87 -26 -280
-32 -445 -4 -107 -10 -178 -16 -178 -6 0 -88 28 -184 63 l-173 62 2 185 3 185
195 82 c107 45 198 82 203 82 4 1 5 -16 2 -36z m2961 -114 l20 -131 -25 -10
c-122 -46 -297 -50 -470 -12 -64 14 -121 31 -127 37 -6 7 -16 50 -23 97 -7 47
-15 95 -18 108 l-5 22 178 1 c99 1 220 4 269 8 50 5 111 9 136 9 l45 2 20
-131z m7212 -100 l364 -124 -6 -460 c-11 -806 -17 -1037 -30 -1032 -6 2 -173
57 -372 122 l-361 118 4 711 c2 391 6 730 9 754 3 27 10 42 17 39 7 -2 176
-60 375 -128z m-8653 -115 c11 -68 14 -119 9 -124 -18 -18 -224 -30 -343 -20
-121 11 -360 55 -374 69 -5 5 -5 44 -2 87 l7 79 257 2 c203 1 417 12 427 22 1
0 10 -51 19 -115z m7410 -1593 c-6 -634 -11 -881 -19 -884 -611 -247 -2307
-927 -2312 -927 -6 0 4 1771 11 1778 6 7 2320 919 2324 916 2 -1 0 -399 -4
-883z m-6587 829 c51 -11 126 -23 167 -27 41 -3 75 -9 75 -12 0 -5 -446 -270
-471 -279 -10 -4 -359 130 -359 138 0 3 28 13 63 23 103 29 237 84 322 132 44
24 87 44 95 44 9 1 57 -8 108 -19z m-2177 -494 c734 -261 1077 -386 1363 -497
126 -49 230 -90 231 -92 4 -5 36 -1359 32 -1363 -5 -5 -1472 498 -2164 743
l-43 15 0 699 c0 384 2 699 4 699 1 0 261 -92 577 -204z m4922 -238 l678 -253
-3 -882 c-2 -485 -6 -884 -9 -888 -4 -3 -335 115 -735 262 l-729 268 -3 897
-2 897 62 -23 c35 -13 368 -138 741 -278z m-1633 -552 l0 -774 -42 -10 c-24
-6 -207 -83 -408 -171 l-365 -160 -7 27 c-4 15 -14 328 -23 696 -13 552 -14
671 -3 677 469 276 835 488 841 489 4 0 7 -348 7 -774z m15025 452 c-9 -431
-25 -1751 -25 -2069 l0 -275 -377 -176 c-315 -147 -1105 -507 -1458 -665 l-90
-41 -2 292 c-2 160 1 770 5 1355 l7 1064 360 154 c650 277 1554 651 1578 653
5 0 6 -132 2 -292z m-5911 -925 c-3 -439 -7 -811 -10 -828 l-4 -30 -212 0
c-221 -1 -316 -10 -528 -51 -178 -34 -323 -77 -413 -123 l-78 -39 7 596 c3
328 9 643 13 700 l6 103 605 234 c333 129 608 234 612 234 5 1 5 -358 2 -796z
m-2101 157 l38 -11 -6 -482 c-3 -265 -8 -550 -11 -633 l-6 -152 -109 -21
c-324 -65 -492 -140 -590 -264 l-39 -49 5 898 c4 495 8 909 11 920 4 21 17 17
336 -87 183 -60 350 -114 371 -119z m-12653 -133 l925 -324 3 -846 c1 -466 -1
-847 -5 -847 -17 0 -1877 610 -1884 617 -3 5 -4 396 -1 871 4 789 6 862 21
857 9 -3 432 -151 941 -328z m17885 -514 c-3 -296 -8 -910 -11 -1365 l-6 -827
-52 -22 c-110 -47 -1028 -465 -1316 -599 -168 -78 -309 -142 -314 -143 -5 -1
-16 61 -23 138 -28 308 -52 392 -139 486 -55 58 -106 91 -189 119 -32 11 -63
24 -69 29 -6 4 -31 16 -56 25 l-45 17 -27 142 c-14 78 -43 249 -64 380 -37
238 -37 239 -21 305 14 54 18 145 23 483 l7 415 391 156 c458 183 1012 413
1531 637 204 87 373 159 378 160 4 1 5 -241 2 -536z m-15220 -635 c964 -331
1329 -458 1336 -466 8 -9 44 -1420 37 -1428 -3 -3 -161 44 -350 105 -188 60
-476 151 -638 201 -477 148 -688 215 -992 317 l-288 96 0 743 0 742 128 -45
c70 -25 415 -144 767 -265z m8428 -645 c-5 -551 -12 -866 -18 -872 -5 -5 -521
-219 -1145 -476 -624 -257 -1141 -469 -1148 -472 -10 -4 -12 177 -10 898 l3
904 1160 466 c1151 463 1160 466 1163 440 1 -14 -1 -414 -5 -888z m-5467 -827
c-8 -5 -178 -82 -378 -171 l-363 -162 -7 56 c-8 65 -40 1322 -34 1328 2 3 181
82 398 177 l393 172 3 -696 c2 -592 0 -696 -12 -704z m1629 954 c347 -128 643
-237 659 -242 l28 -11 -7 -821 c-4 -452 -8 -822 -9 -823 -2 -2 -313 124 -692
278 -379 154 -706 288 -726 296 l-38 15 0 798 0 799 78 -29 c42 -15 361 -132
707 -260z m7478 -512 c11 -44 39 -239 35 -243 -2 -2 -41 -13 -87 -25 -72 -19
-104 -22 -210 -18 -115 4 -282 34 -318 56 -10 6 -43 172 -43 217 0 13 26 15
178 16 97 1 218 4 267 8 166 14 172 14 178 -11z m-14878 -368 c391 -127 792
-258 893 -291 l182 -61 0 -619 c0 -438 -3 -619 -11 -619 -6 0 -433 140 -950
311 l-939 311 0 618 0 619 58 -19 c31 -11 377 -123 767 -250z m13459 25 c9
-55 12 -103 8 -107 -17 -17 -226 -28 -346 -17 -105 9 -346 52 -368 65 -10 6
-10 146 0 159 4 6 108 11 267 12 143 1 294 6 335 10 89 10 83 17 104 -122z
m-11379 -735 c83 -28 431 -139 775 -246 752 -235 1350 -433 1355 -448 2 -6 9
-202 14 -436 6 -234 14 -502 17 -596 l7 -172 -1172 392 -1171 391 0 583 c0
468 3 582 13 582 7 0 80 -23 162 -50z m12176 -7 l73 -16 -444 -219 -443 -218
-343 132 c-188 73 -341 134 -339 136 2 2 48 -3 103 -12 444 -71 854 -17 1177
153 61 32 117 59 126 60 9 0 49 -6 90 -16z m-8471 -962 l0 -689 -34 -6 c-19
-4 -63 -20 -98 -35 -59 -27 -386 -147 -506 -186 -30 -9 -57 -13 -61 -9 -5 5
-13 236 -20 514 -6 278 -14 566 -18 640 l-6 136 364 162 c200 89 367 162 372
162 4 0 7 -310 7 -689z m5432 107 c-2 -299 -7 -546 -11 -550 -8 -8 -2303
-1049 -2306 -1046 -1 2 0 271 3 598 l5 595 1146 472 c630 259 1151 472 1157
472 8 1 9 -155 6 -541z m4282 390 c3 -51 10 -185 16 -298 6 -113 13 -223 16
-245 l5 -40 -776 -384 c-426 -211 -778 -381 -781 -378 -3 3 -2 160 2 350 l7
345 746 370 c410 204 749 371 753 371 3 1 9 -41 12 -91z m-8145 -447 c393
-160 714 -292 715 -293 1 -2 -1 -276 -4 -609 l-5 -606 -340 117 c-308 106
-992 352 -1072 386 l-33 13 0 647 c0 513 3 645 13 641 6 -3 333 -136 726 -296z
m5261 -115 l525 -203 3 -255 c1 -140 -1 -284 -5 -320 l-8 -66 -220 70 c-121
38 -364 114 -540 167 l-320 98 -3 59 c-2 32 -1 195 3 362 7 274 9 302 24 297
9 -3 252 -97 541 -209z"/>
<path d="M68990 59760 c-1844 -82 -3610 -433 -5310 -1057 -1478 -542 -2430
-1143 -3069 -1938 -677 -842 -795 -1665 -314 -2176 167 -177 348 -265 570
-278 l112 -6 -131 -105 c-623 -498 -971 -868 -1211 -1285 -317 -550 -368
-1235 -129 -1710 136 -271 371 -496 671 -641 53 -26 97 -48 99 -49 4 -4 42
-645 42 -716 l0 -55 -72 -35 c-177 -85 -430 -276 -575 -435 -318 -349 -514
-765 -578 -1229 -21 -145 -16 -473 8 -600 98 -518 353 -951 762 -1293 255
-213 590 -378 900 -441 54 -11 98 -21 100 -23 2 -2 28 -92 60 -202 338 -1185
847 -2179 1538 -3002 916 -1093 2163 -1862 3572 -2205 94 -22 176 -43 184 -45
8 -3 -49 -41 -125 -85 -541 -315 -1067 -724 -1528 -1187 l-169 -170 -57 72
c-308 385 -737 665 -1192 776 -174 43 -323 60 -518 60 -266 0 -485 -36 -738
-121 l-114 -38 -47 38 c-55 46 -225 140 -390 216 -433 198 -855 315 -1376 382
-203 26 -836 26 -1045 0 -362 -45 -681 -116 -993 -221 -106 -36 -207 -71 -226
-78 -28 -10 -35 -11 -38 0 -14 40 -93 117 -175 172 -283 186 -625 310 -998
361 -123 17 -459 17 -580 0 -542 -74 -981 -290 -1355 -666 -202 -203 -337
-391 -465 -650 -123 -248 -206 -522 -240 -795 -15 -125 -12 -421 5 -557 85
-646 419 -1239 918 -1627 83 -64 87 -70 82 -100 -12 -71 -25 -333 -25 -506 0
-629 121 -1244 355 -1812 l54 -130 -152 -152 c-440 -437 -692 -901 -774 -1427
-25 -165 -23 -454 5 -609 25 -139 61 -265 109 -383 l35 -88 -134 -137 c-439
-448 -697 -948 -785 -1522 -24 -158 -24 -492 0 -645 91 -579 367 -1027 818
-1330 184 -124 443 -227 666 -265 120 -21 361 -27 454 -11 l47 7 11 -50 c6
-28 14 -61 18 -74 5 -22 3 -23 -28 -18 -77 14 -363 36 -593 47 -482 22 -929
-23 -1304 -132 -803 -235 -1424 -785 -1650 -1464 -79 -235 -112 -493 -92 -724
43 -528 268 -1009 660 -1414 345 -357 747 -584 1252 -707 273 -67 500 -93 813
-93 396 0 726 44 1150 153 445 114 800 242 1625 588 399 167 549 227 730 294
74 27 157 62 183 79 l48 29 132 -49 c73 -26 186 -64 252 -82 l121 -34 0 -155
c4 -639 327 -1250 889 -1675 340 -257 722 -414 1175 -482 163 -25 551 -24 710
0 455 70 850 243 1200 523 119 96 339 319 443 449 346 432 536 887 554 1321 8
213 -23 401 -97 576 l-29 71 64 96 c52 78 177 293 187 322 2 4 55 -3 118 -16
648 -136 1342 -119 2005 46 130 33 377 111 519 166 49 18 90 32 90 31 1 -2 19
-43 40 -93 148 -350 420 -726 728 -1005 603 -545 1385 -869 2273 -941 215 -17
712 -7 933 20 1058 127 2112 520 3412 1274 292 169 374 227 993 705 l369 285
311 -52 c795 -130 1163 -166 1702 -165 565 1 898 46 1195 163 596 233 875 781
714 1400 -70 269 -208 495 -449 736 -419 420 -1234 915 -2009 1221 -296 117
-713 248 -1001 314 -77 17 -141 33 -143 35 -1 1 13 64 33 140 41 158 78 351
102 533 18 136 25 653 11 763 l-8 57 125 67 c144 78 210 137 256 231 49 100
49 79 -2 1109 -78 1581 -184 2682 -355 3685 -376 2207 -1116 4016 -2193 5363
-188 235 -285 343 -485 542 -228 226 -447 408 -679 564 l-78 52 133 101 c450
340 879 738 1304 1209 l42 46 78 -13 c437 -70 930 33 1377 288 233 134 402
264 615 472 516 506 839 1123 944 1801 29 189 31 525 5 695 -57 362 -172 660
-366 951 -38 57 -69 105 -67 106 3 4 421 -90 604 -136 467 -116 783 -106 1067
34 188 92 328 233 433 433 164 313 204 696 112 1072 -83 337 -235 648 -548
1117 -54 82 -102 154 -106 160 -4 7 19 -3 51 -22 32 -19 101 -48 153 -66 84
-29 111 -33 236 -37 108 -3 161 0 225 12 640 129 1029 720 1029 1564 0 780
-317 1594 -905 2327 -612 762 -1450 1372 -2931 2134 l-122 63 -7 56 c-11 94
-63 328 -101 456 -264 895 -895 1709 -1774 2291 -638 422 -1441 721 -2361 879
-335 58 -643 93 -1109 127 -190 13 -1250 20 -1500 9z m-3027 -7457 c-83 -82
-123 -139 -173 -246 -152 -324 -119 -727 84 -1031 214 -323 601 -539 1076
-602 102 -13 180 -15 425 -11 743 14 1526 138 2295 362 834 244 1545 586 2123
1023 81 61 147 108 147 103 0 -4 -23 -109 -50 -232 -109 -486 -180 -895 -212
-1229 -20 -209 -17 -770 6 -945 83 -654 273 -1164 630 -1695 394 -586 1035
-1167 1808 -1638 112 -68 118 -71 123 -49 13 54 69 553 116 1017 27 277 51
505 52 506 7 5 334 -103 448 -149 376 -151 647 -321 864 -541 213 -217 338
-435 402 -706 31 -132 42 -405 23 -556 -14 -117 -57 -297 -100 -419 -45 -128
-176 -392 -257 -515 -323 -492 -797 -847 -1253 -940 -181 -37 -404 -22 -559
36 -175 67 -346 30 -468 -100 -32 -34 -112 -124 -178 -201 -148 -173 -483
-515 -670 -685 -1620 -1473 -3680 -2160 -5710 -1905 -1645 207 -3088 1031
-4053 2315 -923 1228 -1428 2803 -1642 5130 -45 487 -130 1744 -130 1921 l0
46 104 7 c389 25 873 170 1466 439 74 34 853 398 1730 809 877 411 1596 747
1598 748 2 0 -28 -30 -65 -67z m-5573 -3523 c0 -11 9 -122 20 -247 60 -675
127 -1213 214 -1713 18 -107 33 -196 32 -197 -1 -1 -36 19 -79 45 -337 205
-566 515 -643 872 -28 129 -26 362 5 499 41 186 113 351 222 512 59 86 203
249 220 249 5 0 9 -9 9 -20z m11428 -7735 c467 -237 937 -666 1382 -1260 854
-1139 1468 -2625 1814 -4393 218 -1109 348 -2378 431 -4202 8 -184 17 -361 19
-392 l4 -57 -107 -46 c-147 -65 -511 -185 -726 -239 -663 -166 -1431 -268
-2324 -307 -348 -15 -1323 -6 -1641 15 -800 54 -1445 138 -2127 277 -373 76
-883 207 -1173 302 l-75 24 30 12 c1459 588 2680 1341 3655 2254 l155 145 30
-61 c59 -120 171 -203 308 -228 127 -24 235 14 404 139 269 199 607 548 858
887 365 491 613 992 746 1510 29 109 34 148 34 240 0 103 -2 114 -32 177 -41
88 -113 160 -201 201 -62 30 -75 32 -172 32 -135 0 -195 -22 -284 -105 -78
-74 -107 -132 -141 -285 -90 -409 -308 -857 -619 -1273 -145 -193 -358 -436
-369 -421 -2 2 -40 74 -84 159 -455 879 -1099 1590 -1798 1986 -66 37 -121 68
-122 69 -2 1 66 72 151 158 302 307 684 775 752 922 136 297 -117 634 -439
584 -139 -22 -221 -86 -367 -289 -292 -407 -713 -834 -1140 -1157 -122 -92
-171 -154 -202 -257 -44 -145 -4 -301 104 -409 68 -68 138 -102 265 -127 170
-34 174 -20 -42 -162 -231 -153 -535 -335 -790 -475 -323 -178 -1046 -525
-1061 -510 -10 9 -24 303 -33 667 -21 881 31 1762 155 2625 40 279 41 324 13
407 -113 335 -558 388 -748 90 -42 -67 -56 -126 -95 -407 -78 -558 -122 -1027
-147 -1555 l-12 -255 -36 -38 c-78 -83 -399 -357 -418 -357 -5 0 -20 33 -32
73 -115 359 -399 848 -683 1179 l-59 68 18 108 c13 78 17 162 17 312 0 212
-13 336 -53 505 l-19 79 81 91 c483 539 1006 974 1598 1328 189 113 541 299
549 290 4 -4 35 -44 70 -88 80 -101 280 -301 385 -385 212 -172 521 -348 772
-439 156 -57 353 -107 518 -133 187 -29 513 -31 690 -5 256 39 482 110 731
232 581 284 1067 813 1307 1425 96 245 167 559 167 740 0 57 3 70 16 70 8 0
72 -29 142 -65z m-1088 -405 c0 -19 -82 -192 -133 -281 -117 -205 -311 -424
-502 -566 -231 -172 -474 -278 -739 -320 -139 -22 -422 -14 -560 16 -357 77
-699 264 -951 520 l-59 61 139 0 c251 0 624 30 945 76 572 82 1271 268 1762
469 92 38 98 39 98 25z m-14208 -1079 c99 -22 247 -70 306 -100 l32 -17 -105
-72 c-316 -218 -644 -525 -891 -833 -329 -412 -610 -930 -770 -1421 -45 -139
-39 -139 -139 12 -441 664 -361 1484 199 2035 224 220 474 350 775 405 146 27
449 22 593 -9z m3368 -216 c346 -41 694 -133 1009 -266 l100 -42 -58 -63
c-150 -160 -272 -336 -303 -437 -42 -140 -7 -294 93 -402 101 -110 264 -159
404 -121 118 31 186 85 278 220 80 118 247 285 363 363 270 183 544 268 859
268 290 -1 490 -63 736 -226 115 -77 290 -250 376 -372 116 -165 215 -386 258
-578 26 -115 31 -384 10 -511 -67 -404 -334 -801 -691 -1030 -108 -69 -370
-178 -428 -178 -33 0 -138 -65 -185 -115 -233 -246 -95 -640 244 -698 52 -9
78 -8 147 7 106 22 296 86 403 135 l82 38 13 -81 c18 -119 25 -532 10 -673 -6
-65 -13 -120 -15 -122 -2 -2 -46 8 -97 23 -272 77 -546 73 -803 -10 -187 -61
-369 -177 -510 -325 -134 -140 -228 -297 -290 -482 -59 -177 -70 -251 -70
-459 l0 -188 -55 -11 c-208 -41 -426 -125 -595 -229 -241 -147 -464 -387 -583
-626 -39 -78 -90 -216 -112 -302 l-11 -43 -47 7 c-71 12 -130 7 -259 -20 -252
-52 -354 -61 -703 -61 -405 1 -578 22 -935 115 -147 38 -379 114 -320 105 228
-36 557 -39 770 -6 549 83 1003 301 1385 668 456 437 693 1012 641 1558 -40
416 -205 784 -478 1065 l-63 66 46 34 c55 42 118 134 139 203 24 81 40 317 26
380 -25 112 -87 206 -176 267 -115 79 -280 92 -408 33 -158 -74 -246 -229
-247 -435 0 -27 -5 -48 -11 -48 -5 0 -52 18 -102 39 -362 154 -797 255 -1261
292 -146 11 -653 7 -721 -7 l-30 -6 0 134 c0 129 -1 135 -32 200 -41 88 -113
160 -201 201 -62 30 -75 32 -172 32 -133 0 -194 -22 -280 -102 -89 -82 -127
-165 -141 -308 -17 -170 -9 -277 26 -350 16 -33 29 -63 29 -67 1 -4 -39 -35
-89 -69 -472 -327 -778 -770 -876 -1271 -17 -86 -23 -151 -23 -275 l-1 -163
-18 43 c-37 86 -115 326 -150 462 -215 838 -143 1787 198 2594 359 852 956
1483 1770 1872 425 203 882 324 1390 369 146 13 587 4 745 -15z m4634 -3349
c130 -208 253 -485 307 -693 23 -92 27 -118 17 -126 -27 -19 -380 -189 -384
-185 -2 3 -9 65 -14 139 -19 243 -56 463 -116 688 l-24 94 36 46 c20 25 52 68
72 94 19 27 38 45 43 40 4 -4 33 -48 63 -97z m-6134 -756 c522 -40 988 -177
1306 -385 103 -69 272 -232 329 -320 58 -88 104 -203 127 -313 25 -124 21
-319 -9 -427 -90 -319 -350 -629 -688 -822 -156 -89 -325 -149 -530 -190 -129
-25 -479 -25 -620 1 -308 56 -600 181 -878 376 -124 87 -355 318 -435 437 -80
118 -156 276 -182 378 -28 107 -28 271 -1 375 40 155 103 278 218 420 168 209
470 405 684 445 180 33 440 43 679 25z m11458 -142 c292 -246 612 -631 847
-1018 42 -69 53 -95 46 -108 -12 -23 -330 -335 -464 -455 -1221 -1096 -2804
-1908 -5002 -2565 -536 -161 -1295 -365 -1635 -441 -650 -146 -1097 -156
-1500 -34 -436 131 -733 408 -840 783 -30 103 -37 271 -16 369 43 205 189 376
411 482 202 97 394 117 624 64 112 -25 132 -27 192 -18 165 26 286 127 339
284 18 51 21 81 18 149 -5 97 -32 170 -97 255 -136 177 -159 420 -61 615 148
293 507 327 830 80 186 -143 233 -176 321 -226 184 -104 408 -181 654 -225
113 -20 162 -23 385 -23 276 0 370 9 635 64 415 87 1104 319 1710 577 731 311
1400 674 2090 1131 217 144 296 202 350 258 39 40 72 73 74 73 2 1 42 -31 89
-71z m-3762 -646 c9 -162 13 -287 8 -292 -12 -11 -323 -110 -489 -155 -284
-78 -480 -108 -705 -108 -186 -1 -292 15 -445 64 -92 29 -96 32 -93 57 3 23
14 30 88 60 536 212 1054 486 1475 781 l130 91 7 -107 c3 -60 14 -235 24 -391z
m-10332 -1733 c115 -149 264 -315 431 -479 l147 -144 -16 -76 c-28 -130 -35
-210 -46 -476 -14 -352 -34 -435 -131 -531 -169 -170 -418 -196 -632 -66 -86
52 -170 135 -231 227 -104 158 -136 265 -143 481 -4 113 -1 174 11 245 35 200
139 441 271 625 68 95 240 295 254 295 4 0 43 -46 85 -101z m1494 -1258 c70
-38 186 -96 258 -129 921 -422 1920 -546 2829 -351 77 17 146 31 153 32 7 1
26 -38 47 -97 156 -447 482 -819 928 -1061 76 -41 88 -51 83 -69 -7 -31 -33
-241 -48 -391 -19 -196 -16 -798 5 -1005 97 -932 364 -1716 738 -2165 282
-337 625 -524 1039 -566 l120 -12 0 -73 c0 -169 -56 -453 -125 -633 -34 -90
-131 -291 -140 -291 -3 0 -47 33 -98 73 -463 369 -969 590 -1519 663 -165 22
-471 22 -638 0 -655 -87 -1199 -388 -1568 -864 -75 -97 -167 -240 -204 -317
-12 -25 -26 -45 -31 -45 -4 0 -47 11 -95 25 -936 264 -1788 1009 -2281 1994
-343 684 -506 1458 -488 2321 11 548 85 1048 234 1589 l37 133 86 63 c164 121
325 313 399 477 75 167 118 360 127 573 5 135 11 195 20 195 2 0 62 -31 132
-69z m8965 -1175 c1031 -449 2365 -767 3792 -905 587 -57 992 -75 1655 -75
785 0 1318 32 1993 120 465 60 1046 176 1405 280 21 6 22 4 22 -57 0 -297 -60
-660 -156 -960 -259 -804 -798 -1526 -1575 -2111 -342 -257 -713 -482 -1169
-707 -201 -100 -580 -272 -625 -284 -16 -4 -35 13 -92 86 -377 480 -924 908
-1538 1202 -511 245 -1161 442 -1785 539 -58 9 -115 19 -128 22 l-22 4 21 43
c121 235 358 524 665 807 80 75 116 138 135 243 50 268 -205 525 -473 477 -91
-16 -154 -48 -239 -121 -300 -258 -573 -585 -778 -933 -98 -166 -238 -466
-294 -627 -3 -11 -46 25 -154 130 -333 326 -712 575 -1373 903 -179 89 -326
163 -328 164 -2 1 -16 51 -31 110 -88 332 -287 828 -472 1171 -43 80 -47 92
-31 97 9 3 125 35 257 71 369 101 772 222 1140 340 61 20 68 18 178 -29z
m-11124 -61 c115 -68 251 -123 374 -153 104 -26 108 -28 104 -52 -2 -14 -23
-113 -45 -220 -63 -306 -100 -565 -128 -900 -18 -219 -22 -760 -6 -950 5 -63
7 -117 5 -120 -3 -3 -55 -5 -116 -4 -133 0 -228 23 -352 85 -271 134 -461 387
-537 711 -30 127 -33 467 -5 598 57 268 165 501 340 736 80 108 263 314 278
314 5 0 45 -20 88 -45z m8851 -831 c196 -388 291 -615 370 -882 148 -500 145
-994 -9 -1367 -107 -260 -294 -464 -524 -570 -145 -67 -206 -80 -367 -80 -133
1 -151 3 -214 28 -299 118 -528 465 -695 1055 -143 505 -206 1051 -181 1554
10 203 32 433 42 443 2 3 49 0 104 -5 315 -31 767 4 1174 89 74 15 140 27 145
26 6 -1 75 -132 155 -291z m11668 -1694 c792 -175 1518 -484 2192 -933 550
-366 760 -608 760 -875 0 -148 -40 -207 -184 -276 -178 -86 -385 -116 -847
-123 -411 -7 -673 10 -1134 72 -306 41 -707 109 -710 120 -120 425 -305 848
-544 1248 l-101 167 118 178 c64 98 151 239 192 315 62 112 79 136 98 137 12
0 84 -14 160 -30z m-9966 -356 c267 -159 475 -312 642 -474 96 -93 159 -169
286 -346 l36 -49 -17 -56 c-68 -224 -102 -468 -102 -748 l0 -214 -74 -33
c-263 -120 -645 -223 -1003 -271 -168 -22 -676 -25 -840 -5 -103 13 -320 48
-350 57 -14 5 -14 16 -2 103 7 54 14 199 15 329 l2 232 87 54 c225 142 414
326 563 547 173 259 313 654 348 981 l11 109 142 -75 c79 -41 194 -105 256
-141z m2203 -729 c1447 -201 2484 -752 3110 -1653 117 -169 141 -198 191 -233
81 -55 138 -73 239 -73 80 0 101 4 190 38 566 217 1199 522 1655 799 69 41
126 74 128 72 2 -1 10 -71 18 -154 24 -258 65 -475 135 -722 22 -78 38 -143
37 -144 -11 -11 -368 -205 -533 -291 -1351 -699 -2534 -963 -3550 -793 -218
36 -417 92 -621 174 -955 383 -1525 1151 -1524 2052 1 290 64 555 187 783 26
47 57 106 70 132 22 43 25 46 56 42 17 -2 113 -16 212 -29z m6779 -480 c124
-254 262 -623 240 -645 -5 -5 -137 -108 -294 -229 -204 -158 -287 -217 -292
-207 -11 19 -54 264 -69 391 -17 139 -17 517 -1 657 l13 108 52 47 c29 27 83
78 122 115 l70 67 43 -77 c24 -42 76 -144 116 -227z m-19384 -79 c85 -8 261
-27 390 -42 l235 -27 77 -156 c176 -360 396 -696 659 -1012 204 -243 528 -556
748 -720 39 -30 71 -56 71 -60 0 -6 -718 -306 -1020 -425 -512 -202 -956 -324
-1378 -381 -160 -21 -612 -24 -747 -5 -355 50 -639 152 -878 314 -115 78 -333
293 -411 405 -247 357 -326 746 -219 1088 104 331 385 627 778 820 236 115
499 184 825 215 135 12 686 4 870 -14z m6194 -1501 c310 -41 606 -156 900
-352 232 -154 497 -396 588 -537 55 -85 72 -150 71 -276 -1 -487 -507 -1160
-1054 -1400 -532 -235 -1213 -157 -1680 191 -263 197 -461 475 -536 754 -24
90 -27 118 -27 275 -1 159 2 185 27 283 146 578 609 976 1235 1062 133 18 338
18 476 0z"/>
<path d="M63075 50245 c-247 -36 -560 -149 -680 -245 -265 -211 -172 -638 159
-726 104 -28 189 -16 320 45 115 55 195 79 306 96 169 26 286 17 475 -36 94
-27 122 -31 195 -27 69 3 97 10 151 36 152 73 251 244 236 407 -12 126 -78
241 -179 311 -77 52 -270 111 -459 138 -129 19 -396 19 -524 1z"/>
<path d="M69165 49994 c-325 -49 -476 -113 -560 -237 -154 -227 -55 -536 201
-629 80 -29 195 -29 286 0 236 75 525 40 730 -89 34 -22 92 -54 128 -72 61
-30 72 -32 170 -32 97 0 110 2 173 32 251 119 321 441 142 651 -73 84 -308
218 -505 287 -184 64 -318 86 -540 90 -107 2 -208 1 -225 -1z"/>
<path d="M63319 48730 c-176 -21 -290 -71 -394 -174 -84 -84 -118 -132 -178
-252 -186 -372 -245 -961 -152 -1509 104 -611 369 -1034 724 -1158 72 -26 105
-31 206 -35 242 -8 413 59 586 228 94 93 160 186 220 315 282 602 201 1567
-180 2137 -216 322 -516 484 -832 448z"/>
<path d="M68645 48480 c-278 -30 -454 -164 -587 -446 -123 -264 -181 -570
-182 -969 0 -232 9 -340 45 -540 111 -629 400 -1059 775 -1155 105 -27 263
-27 370 0 43 11 122 41 174 66 81 40 109 61 190 143 138 137 211 259 284 468
80 232 111 465 103 776 -6 229 -21 352 -68 547 -176 738 -601 1164 -1104 1110z"/>
<path d="M66019 46916 c-80 -23 -150 -68 -245 -161 -112 -110 -195 -221 -261
-351 -205 -399 -210 -850 -16 -1239 146 -291 454 -578 678 -631 195 -45 401
65 477 256 32 79 31 222 -1 303 -34 85 -91 151 -184 211 -105 68 -167 132
-213 219 -85 162 -87 317 -7 487 29 61 54 93 130 168 73 71 102 108 126 160
30 63 32 74 32 177 0 98 -3 116 -27 168 -52 112 -171 209 -289 236 -58 14
-143 12 -200 -3z"/>
<path d="M65341 43599 c-156 -30 -286 -152 -325 -304 -44 -168 9 -317 159
-447 249 -214 560 -372 886 -448 233 -54 542 -69 773 -36 362 52 767 222 919
386 80 86 102 147 102 280 0 99 -2 109 -33 173 -42 86 -113 156 -198 198 -56
28 -80 34 -154 37 -109 5 -161 -10 -285 -84 -196 -117 -406 -174 -640 -174
-313 0 -608 109 -840 310 -75 65 -119 88 -204 106 -73 15 -96 16 -160 3z"/>
<path d="M62240 38135 c-196 -32 -397 -136 -514 -265 -95 -105 -129 -261 -87
-398 34 -114 116 -206 231 -261 49 -23 67 -26 165 -26 98 0 116 3 167 27 32
15 78 43 104 62 39 30 55 36 96 36 69 0 98 -30 98 -100 0 -62 -15 -92 -75
-150 -240 -232 -108 -639 228 -701 138 -25 271 25 398 150 130 129 214 280
261 468 33 132 31 341 -5 477 -91 340 -332 577 -679 665 -108 28 -276 35 -388
16z"/>
<path d="M57843 34785 c-112 -31 -215 -109 -267 -205 -124 -228 -6 -521 242
-596 34 -11 117 -16 307 -18 271 -4 391 -13 586 -46 146 -25 201 -25 280 0
209 65 333 277 285 485 -35 148 -132 257 -273 304 -69 23 -346 65 -536 80
-189 16 -559 13 -624 -4z"/>
<path d="M23495 58784 c-1974 -35 -3963 -413 -5810 -1104 -1063 -397 -1843
-828 -2430 -1341 -593 -518 -993 -1120 -1117 -1679 -20 -91 -23 -131 -22 -300
0 -178 3 -204 26 -292 50 -184 135 -334 267 -472 176 -182 363 -270 578 -271
75 0 99 -3 90 -11 -7 -6 -68 -56 -137 -111 -668 -534 -1032 -935 -1254 -1383
-161 -325 -235 -655 -223 -990 21 -562 300 -992 811 -1249 l111 -56 17 -295
c9 -162 19 -334 22 -382 l6 -88 -90 -45 c-442 -222 -819 -648 -1010 -1142
-289 -749 -152 -1539 374 -2150 290 -336 674 -576 1095 -682 68 -17 134 -31
147 -31 19 0 25 -8 34 -42 114 -432 310 -992 495 -1408 831 -1875 2275 -3205
4148 -3819 193 -64 538 -161 569 -161 32 0 19 -14 -61 -67 -199 -131 -491
-402 -692 -643 -706 -844 -1328 -2129 -1851 -3820 -69 -224 -72 -240 -73 -335
0 -121 16 -168 87 -263 l49 -65 -25 -141 c-205 -1134 -362 -2417 -446 -3631
-51 -741 -72 -1358 -74 -2110 -1 -566 0 -596 21 -730 23 -143 70 -346 97 -422
15 -42 15 -43 -26 -130 -128 -278 -220 -569 -270 -859 -19 -111 -22 -165 -22
-389 0 -282 7 -343 64 -561 217 -821 937 -1450 1945 -1699 297 -73 559 -101
873 -92 365 10 652 73 930 203 53 24 96 43 98 42 1 -2 23 -47 48 -101 347
-748 1084 -1370 1975 -1667 400 -133 778 -196 1241 -207 867 -19 1788 191
2820 645 470 206 1278 639 1570 841 108 74 494 364 836 629 l232 179 163 -28
c1051 -184 1795 -234 2444 -163 643 70 1051 302 1247 711 27 56 61 146 75 200
24 88 26 117 27 278 1 201 -8 261 -61 425 -137 423 -442 752 -1098 1185 -696
460 -1492 806 -2290 996 -99 23 -183 45 -187 48 -4 3 4 44 18 91 34 116 90
399 109 549 24 187 34 452 24 643 -4 94 -11 178 -14 188 -5 15 18 31 121 87
141 76 205 132 252 221 57 108 57 59 7 1082 -93 1896 -226 3126 -466 4300
-395 1931 -1105 3562 -2081 4782 -375 468 -744 821 -1143 1093 -55 37 -100 69
-100 70 0 1 59 46 130 100 168 127 353 278 529 434 151 134 573 550 727 719
l94 103 105 -17 c158 -25 470 -15 639 21 382 80 748 259 1091 532 105 83 338
310 430 418 400 471 654 1011 746 1592 22 138 30 465 14 605 -43 401 -192 798
-412 1096 -21 28 -34 52 -28 52 20 0 320 -67 531 -119 242 -59 343 -77 505
-91 601 -49 1025 252 1177 835 40 153 50 259 44 445 -15 429 -179 832 -590
1448 -63 95 -113 172 -112 172 2 0 30 -15 62 -34 284 -168 705 -132 1038 89
263 175 476 525 554 912 60 293 61 622 5 963 -146 886 -688 1790 -1502 2503
-567 497 -1196 899 -2310 1477 -72 38 -104 60 -107 74 -2 12 -11 66 -21 121
-156 926 -742 1831 -1611 2487 -950 718 -2242 1115 -3863 1187 -259 12 -722
19 -955 15z m-3432 -7471 c-115 -114 -186 -242 -235 -423 -20 -74 -23 -107
-22 -260 0 -157 3 -185 27 -274 135 -505 637 -866 1287 -925 382 -36 1146 27
1769 145 660 125 1310 324 1879 575 411 181 866 451 1177 698 55 43 101 78
101 77 1 0 -26 -127 -61 -281 -216 -968 -269 -1590 -189 -2205 157 -1203 860
-2216 2129 -3069 185 -125 401 -261 413 -261 16 0 73 479 138 1152 l37 388 26
-6 c14 -4 112 -35 217 -69 869 -287 1379 -766 1490 -1400 24 -135 24 -404 1
-535 -58 -319 -178 -615 -362 -890 -108 -162 -189 -261 -315 -388 -340 -340
-725 -538 -1086 -559 -137 -7 -241 7 -388 54 -100 31 -120 34 -201 31 -76 -3
-100 -9 -156 -36 -73 -35 -101 -62 -303 -297 -160 -185 -614 -640 -796 -797
-1149 -993 -2453 -1595 -3860 -1782 -338 -45 -443 -51 -900 -51 -466 0 -595 9
-947 60 -1236 182 -2343 706 -3235 1528 -853 787 -1496 1896 -1873 3229 -261
926 -414 1921 -520 3388 -14 194 -75 1192 -75 1231 0 13 23 18 133 28 404 37
806 156 1367 405 107 47 913 423 1790 835 877 412 1599 749 1603 750 4 1 -23
-29 -60 -66z m-5569 -3545 c3 -24 15 -153 26 -288 27 -311 82 -813 121 -1090
29 -211 104 -681 116 -729 6 -24 5 -24 -63 13 -266 146 -498 416 -609 712 -70
185 -88 448 -46 651 40 191 108 353 219 519 58 86 205 254 222 254 5 0 11 -19
14 -42z m11704 -7872 c694 -463 1398 -1362 1943 -2481 762 -1566 1162 -3350
1338 -5980 28 -411 91 -1568 91 -1671 0 -12 -217 -107 -405 -177 -621 -231
-1371 -415 -2110 -517 -170 -23 -518 -60 -523 -55 -2 2 24 122 57 267 179 776
339 1628 441 2338 18 124 34 226 35 228 4 5 156 -73 320 -164 171 -95 214
-108 324 -102 132 8 264 86 328 196 74 126 154 512 183 886 13 167 13 585 0
757 -45 577 -173 1080 -386 1514 -88 179 -167 252 -309 290 -136 35 -276 0
-380 -96 -97 -89 -140 -198 -133 -334 4 -76 9 -91 71 -221 83 -174 134 -311
181 -479 111 -403 157 -882 126 -1324 -5 -73 -11 -135 -13 -137 -2 -3 -46 15
-98 39 -381 177 -908 347 -1309 421 -323 60 -526 79 -830 80 -251 0 -373 -9
-588 -45 -68 -11 -126 -18 -128 -16 -3 2 4 85 15 183 53 475 55 1109 3 1256
-56 158 -194 262 -363 275 -153 12 -295 -59 -380 -189 -61 -95 -69 -154 -60
-408 19 -493 -29 -1011 -135 -1470 -20 -85 -43 -184 -51 -220 -48 -209 89
-429 302 -484 125 -33 201 -18 378 72 109 55 363 149 374 138 7 -7 -22 -306
-53 -546 -100 -790 -282 -1578 -542 -2350 l-59 -175 -119 2 c-132 3 -496 33
-764 63 -1107 125 -2110 361 -2957 695 -147 58 -173 71 -173 89 0 113 43 527
86 826 117 821 309 1775 789 3930 418 1874 485 2207 466 2320 -27 157 -103
259 -240 324 -53 24 -82 31 -152 34 -134 7 -234 -33 -324 -129 -71 -76 -91
-131 -136 -376 -65 -355 -163 -807 -464 -2155 -58 -256 -105 -469 -105 -472 0
-3 -35 17 -77 43 -335 207 -733 372 -1049 436 -71 15 -130 28 -132 30 -11 11
183 559 325 915 149 376 254 609 435 970 183 367 298 568 483 845 205 308 380
522 582 715 220 210 470 367 662 414 119 29 99 38 198 -87 180 -224 458 -466
705 -613 331 -196 688 -319 1063 -365 145 -17 436 -15 580 5 446 63 863 243
1226 532 109 86 309 284 406 402 325 394 534 882 593 1385 6 53 8 107 5 118
-5 14 -2 25 6 30 19 12 271 -121 427 -225z m-1393 -317 c-178 -416 -507 -762
-905 -953 -136 -65 -228 -97 -370 -127 -153 -33 -445 -34 -608 -1 -167 34
-319 87 -482 169 -178 90 -302 177 -439 309 l-105 101 205 7 c629 21 1182 103
1794 266 212 57 624 193 815 268 69 27 126 49 128 47 1 -1 -14 -40 -33 -86z
m-6143 -5623 c220 -72 473 -201 713 -362 77 -51 151 -102 165 -113 l25 -20
-33 -158 c-155 -737 -312 -1553 -377 -1958 -82 -508 -117 -804 -150 -1260 -60
-844 -78 -1228 -78 -1675 1 -555 22 -670 145 -793 101 -101 241 -142 382 -113
43 9 106 16 140 16 330 0 605 -346 556 -700 -38 -280 -234 -522 -461 -571 -69
-15 -123 -8 -338 46 -292 73 -541 162 -733 262 -327 169 -562 510 -651 947
-22 109 -22 125 -21 786 0 933 33 1661 120 2640 83 947 236 2081 405 3009 l12
63 38 -6 c21 -3 84 -21 141 -40z m7063 -1666 c169 -29 272 -51 458 -101 68
-19 77 -24 77 -44 0 -38 -87 -629 -136 -920 -210 -1261 -478 -2404 -855 -3655
-108 -359 -378 -1164 -427 -1275 -160 -363 -435 -645 -793 -814 -237 -111
-438 -149 -907 -172 -268 -13 -692 1 -801 27 -160 37 -315 161 -390 314 -67
137 -84 252 -56 383 24 114 68 191 170 293 82 83 102 97 205 147 142 69 213
87 361 94 142 7 244 -11 376 -67 50 -22 119 -44 152 -49 135 -22 283 33 374
139 39 45 217 355 363 630 786 1484 1302 3242 1440 4905 l18 210 95 -7 c53 -5
177 -22 276 -38z m-5795 -3195 c901 -336 2094 -590 3260 -695 303 -27 322 -29
327 -34 14 -14 -442 -941 -487 -989 -4 -5 -32 -4 -61 2 -111 23 -289 32 -416
21 -525 -42 -987 -298 -1260 -696 l-62 -91 -64 32 c-35 18 -90 42 -123 55
l-59 23 -1 181 c0 196 -16 298 -70 462 -165 501 -594 882 -1087 967 l-70 12 7
295 c9 427 15 513 35 505 9 -4 68 -26 131 -50z m9240 -680 c-35 -427 -156
-839 -370 -1260 -207 -408 -440 -725 -789 -1076 -407 -408 -866 -740 -1471
-1064 -256 -138 -849 -415 -887 -415 -5 0 -47 48 -94 107 -103 132 -267 303
-374 391 -44 36 -86 71 -94 78 -12 11 -4 24 50 81 241 256 419 553 544 908
174 491 374 1122 527 1660 50 176 94 324 98 328 4 5 70 13 146 18 848 57 1820
244 2614 501 l105 34 3 -75 c2 -42 -2 -139 -8 -216z m558 -1706 c783 -172
1551 -503 2217 -956 438 -298 616 -477 696 -699 32 -87 32 -223 1 -286 -30
-61 -80 -104 -167 -144 -304 -140 -1047 -163 -1875 -58 -286 36 -796 116 -806
127 -2 2 -19 56 -39 121 -112 371 -292 768 -514 1138 l-99 163 73 105 c82 118
236 373 284 468 17 34 34 62 37 62 3 0 90 -18 192 -41z m-11691 -776 c48 -33
126 -81 173 -106 273 -147 796 -323 1183 -396 271 -52 549 -10 798 120 134 70
247 158 373 290 l107 111 32 -13 c55 -21 145 -68 151 -78 3 -5 -14 -51 -38
-102 -56 -118 -125 -321 -159 -464 -49 -208 -60 -304 -63 -580 l-3 -260 -65
-62 c-220 -209 -715 -293 -1226 -207 -427 72 -832 253 -1111 497 -397 347
-536 809 -413 1374 l16 72 79 -68 c43 -38 118 -95 166 -128z m10608 -620 c158
-289 347 -768 319 -809 -5 -7 -137 -112 -294 -233 l-285 -220 -17 72 c-59 242
-85 679 -58 966 l13 135 56 50 c31 28 85 79 121 113 36 34 68 59 72 55 3 -4
36 -62 73 -129z m-7015 -546 c171 -129 371 -216 590 -257 197 -37 736 -52
1075 -30 371 24 593 61 828 137 l140 45 76 -27 c265 -93 474 -288 748 -700
121 -181 199 -241 341 -264 96 -15 164 1 392 93 578 235 1089 485 1511 741
l136 82 7 -106 c14 -218 65 -506 132 -747 20 -71 38 -140 41 -154 4 -23 -8
-31 -144 -107 -532 -293 -979 -503 -1413 -666 -978 -365 -1865 -470 -2640
-311 -249 51 -469 128 -715 249 -770 379 -1233 1010 -1306 1780 -10 111 -5
377 7 397 3 5 34 -17 68 -49 34 -32 90 -80 126 -106z"/>
<path d="M17702 49450 c-448 -97 -849 -351 -1115 -705 -114 -152 -151 -260
-129 -384 46 -259 297 -411 545 -330 88 29 150 78 230 184 86 114 124 153 217
223 136 104 267 162 452 200 146 31 226 79 293 177 119 173 94 402 -61 545
-109 100 -249 129 -432 90z"/>
<path d="M23153 49145 c-254 -56 -395 -316 -303 -558 47 -123 145 -209 290
-254 161 -49 300 -133 414 -249 73 -74 131 -163 189 -284 76 -160 193 -245
352 -257 312 -24 533 281 416 574 -183 461 -597 844 -1076 996 -135 43 -201
50 -282 32z"/>
<path d="M17385 47740 c-141 -22 -266 -79 -348 -158 -388 -371 -502 -1368
-247 -2144 85 -259 190 -445 330 -589 230 -236 526 -300 832 -181 336 130 566
509 634 1044 21 165 15 537 -11 698 -98 619 -373 1092 -730 1261 -44 20 -107
45 -140 53 -74 20 -240 28 -320 16z"/>
<path d="M22735 47494 c-82 -13 -200 -46 -243 -68 -254 -129 -437 -502 -497
-1014 -17 -147 -20 -482 -5 -633 57 -573 260 -1046 543 -1263 148 -113 307
-163 486 -153 225 13 390 92 552 265 302 322 425 947 314 1596 -112 656 -434
1130 -847 1246 -72 20 -241 34 -303 24z"/>
<path d="M20099 45921 c-76 -24 -138 -69 -244 -175 -184 -185 -312 -425 -371
-696 -29 -132 -26 -431 5 -560 85 -350 292 -651 578 -840 137 -90 207 -114
322 -108 71 3 99 10 154 35 87 41 159 113 200 201 30 63 32 74 32 177 0 104
-2 114 -32 176 -39 78 -107 150 -183 192 -84 47 -162 132 -210 229 -78 158
-78 303 0 466 33 69 56 99 133 176 102 101 136 157 157 260 40 195 -86 405
-279 466 -79 25 -186 25 -262 1z"/>
<path d="M20111 42399 c-242 -21 -529 -83 -649 -139 -253 -118 -308 -463 -107
-665 62 -62 135 -99 228 -116 74 -14 108 -9 272 35 145 39 313 56 548 56 393
0 764 -67 1053 -190 166 -71 267 -73 401 -11 273 128 312 518 70 700 -82 62
-348 163 -592 226 -139 36 -334 71 -500 90 -168 19 -579 27 -724 14z"/>
<path d="M8286 46759 c-164 -39 -310 -185 -361 -361 -9 -32 -18 -58 -19 -58
-2 0 -41 17 -87 39 -117 53 -300 116 -457 157 -105 27 -152 34 -225 34 -243 0
-351 -77 -628 -449 l-162 -217 -459 -38 c-256 -21 -480 -44 -507 -52 -98 -29
-242 -144 -293 -234 -14 -25 -325 -563 -692 -1196 -530 -918 -669 -1165 -682
-1215 -33 -130 3 -267 101 -384 28 -33 222 -262 430 -510 802 -953 1239 -1453
1525 -1748 116 -121 160 -154 240 -182 66 -23 3232 -367 3332 -362 67 3 90 10
165 47 158 78 121 22 848 1278 358 618 665 1149 683 1180 42 75 72 171 72 236
0 109 -21 153 -261 563 l-229 393 93 227 c144 350 203 534 214 668 6 75 -23
219 -67 337 -96 256 -419 508 -872 678 l-88 33 0 82 c0 198 -93 392 -264 552
-212 198 -614 392 -1010 488 -107 26 -260 32 -340 14z m440 -1427 l92 -47
-115 -160 c-63 -88 -139 -199 -170 -247 -31 -48 -58 -87 -59 -85 -5 4 94 420
115 487 11 36 21 73 21 83 0 25 15 21 116 -31z m-1625 -21 c119 -74 303 -173
439 -236 58 -26 109 -51 114 -56 4 -4 -6 -78 -24 -167 l-33 -159 -64 14 c-90
18 -203 57 -302 104 -159 74 -419 265 -406 298 9 25 169 261 176 261 4 0 49
-26 100 -59z m-1221 -1050 c377 -424 680 -758 934 -1029 100 -106 181 -197
181 -202 0 -11 -919 -1600 -925 -1599 -15 1 -1289 1492 -1428 1671 -12 14 45
117 429 780 243 420 444 767 446 772 7 10 -24 43 363 -393z m3497 225 c104
-67 315 -183 440 -242 l112 -52 -47 -116 c-54 -132 -46 -127 -164 -96 -107 28
-258 92 -358 151 -96 57 -209 140 -210 153 0 7 152 246 157 246 1 0 33 -20 70
-44z m-1026 -596 c176 -200 394 -374 654 -520 l110 -62 -55 7 c-80 10 -1159
163 -1265 180 l-90 14 -118 123 c-184 193 -244 261 -222 255 58 -18 228 -38
365 -44 147 -6 161 -4 260 21 109 28 189 68 238 119 l27 28 15 -23 c8 -12 45
-57 81 -98z m1091 -1471 c300 -40 545 -76 544 -79 -2 -3 -198 -341 -436 -752
-361 -626 -435 -748 -453 -748 -29 0 -2251 241 -2255 245 -3 2 607 1059 853
1480 l53 90 573 -81 c316 -45 820 -115 1121 -155z"/>
<path d="M5310 38801 c-436 -95 -1044 -454 -1154 -682 -56 -116 -71 -243 -42
-358 8 -31 22 -112 30 -181 9 -69 18 -137 21 -153 4 -26 -1 -30 -94 -77 l-99
-49 -22 70 c-39 120 -119 229 -225 304 -82 59 -172 100 -275 126 -115 29 -310
23 -450 -14 -233 -61 -514 -191 -753 -350 -241 -159 -351 -283 -386 -437 -14
-58 -14 -166 -1 -227 10 -46 70 -506 67 -509 -1 -1 -52 -27 -113 -57 -300
-150 -542 -328 -626 -462 -40 -64 -79 -183 -85 -260 -5 -60 2 -101 46 -291 65
-280 137 -549 195 -729 25 -76 41 -144 37 -150 -38 -49 -348 -422 -420 -505
-117 -134 -136 -166 -166 -285 -28 -110 -31 -178 -11 -250 24 -88 866 -2259
890 -2295 13 -19 50 -63 82 -97 32 -35 83 -90 113 -123 38 -42 75 -70 120 -93
l66 -32 245 1 c135 0 319 6 410 13 91 6 458 34 815 61 776 59 1095 80 1230 80
161 0 214 13 364 86 l134 66 256 251 c440 432 813 784 1751 1652 915 848 1134
1054 1662 1568 295 286 320 314 354 382 30 61 37 87 41 157 5 77 2 92 -34 203
-55 164 -145 384 -458 1110 -147 341 -303 708 -346 815 -44 107 -97 224 -119
260 -71 120 -171 195 -291 221 -40 9 -205 10 -624 5 -313 -3 -617 -9 -675 -12
l-105 -6 -34 58 c-123 215 -420 753 -451 819 -48 104 -148 228 -222 275 -31
21 -108 54 -170 75 -106 36 -121 39 -253 42 -108 2 -160 -2 -225 -16z m423
-1300 c26 -49 47 -92 47 -96 0 -9 -168 -86 -260 -120 l-75 -27 -20 29 c-11 15
-46 54 -77 86 -48 47 -55 59 -40 64 42 15 233 94 292 121 36 17 70 31 75 31 6
1 31 -39 58 -88z m1257 -784 c-63 -58 -648 -591 -822 -750 -119 -108 -220
-197 -223 -197 -4 0 5 14 20 31 108 129 121 335 30 478 -60 96 -135 233 -131
240 3 4 27 16 53 26 26 10 100 44 164 76 109 54 121 58 225 68 114 11 435 30
589 34 50 2 94 4 100 5 5 1 3 -4 -5 -11z m-3596 -189 c4 -24 30 -140 58 -258
28 -118 51 -221 52 -229 0 -7 -17 -20 -39 -28 -47 -17 -218 -64 -221 -60 -1 1
-31 52 -67 113 -78 132 -128 181 -250 244 -48 25 -87 47 -87 50 0 3 35 16 78
28 87 27 350 130 409 161 54 28 60 26 67 -21z m4694 -660 c192 -446 332 -775
332 -783 0 -3 -601 -578 -815 -781 -105 -98 -463 -431 -795 -739 -753 -697
-1000 -928 -1357 -1268 -265 -251 -284 -267 -292 -245 -5 13 -132 334 -281
713 -150 380 -275 699 -277 711 -4 17 54 69 319 291 703 588 1337 1151 2653
2356 154 141 283 257 286 257 3 0 105 -231 227 -512z m-3034 376 c32 -58 57
-106 55 -108 -20 -16 -109 -61 -170 -85 -134 -53 -277 -86 -505 -115 -31 -4
-32 -4 -53 69 -11 40 -21 79 -21 87 0 9 49 30 133 57 130 43 364 138 442 179
22 12 45 21 50 22 6 0 37 -48 69 -106z m541 -793 c-202 -189 -1059 -924 -1472
-1264 -219 -179 -188 -166 -483 -211 -312 -48 -582 -75 -1005 -100 -392 -24
-545 -30 -545 -19 0 5 17 26 39 47 38 37 40 38 161 52 584 68 1034 277 1336
621 100 114 136 189 142 296 6 102 -9 167 -59 252 -22 38 -36 71 -32 75 4 4
29 14 55 23 l47 15 42 -40 c24 -23 72 -55 108 -72 63 -30 72 -31 219 -34 329
-8 686 43 977 139 124 42 347 144 425 197 46 31 62 39 45 23z m-2826 -361 c29
-54 54 -102 54 -107 1 -14 -164 -92 -258 -123 -114 -36 -288 -70 -379 -73
l-70 -2 -23 79 c-12 44 -22 80 -20 81 1 1 47 17 102 35 126 41 297 108 423
165 53 25 102 45 107 45 6 0 34 -45 64 -100z m1165 -2197 c58 -148 195 -495
304 -773 l199 -505 -106 -8 c-58 -4 -430 -32 -826 -62 -832 -63 -1069 -78
-1109 -73 -28 3 -33 14 -321 763 l-293 760 126 7 c70 4 273 14 452 23 561 27
966 62 1282 109 84 13 160 24 170 25 12 1 41 -61 122 -266z"/>
<path d="M13758 36020 c-128 -32 -256 -138 -318 -263 -22 -44 -40 -85 -40 -93
0 -27 -20 -23 -101 21 -204 108 -488 215 -629 236 -113 18 -209 2 -318 -52
-68 -33 -101 -59 -186 -142 -56 -56 -162 -173 -236 -259 l-133 -158 -446 0
c-497 0 -544 -5 -638 -62 -137 -83 -104 -39 -863 -1155 -393 -578 -746 -1097
-784 -1153 -38 -55 -77 -124 -87 -153 -23 -65 -25 -194 -4 -263 17 -59 30 -79
215 -331 79 -109 263 -362 409 -563 521 -718 845 -1150 1121 -1495 216 -271
261 -313 371 -350 68 -23 3217 -595 3274 -595 106 0 264 69 337 149 33 35 817
1179 1535 2239 76 112 102 254 68 368 -8 28 -102 229 -210 447 l-195 398 114
227 c138 276 168 344 218 491 50 149 55 195 33 328 -31 188 -82 305 -189 435
-120 144 -349 310 -598 431 l-147 72 -1 103 c-1 235 -81 414 -266 593 -210
202 -536 386 -908 512 -111 37 -131 41 -241 43 -66 2 -137 -1 -157 -6z m-1168
-1409 c98 -67 236 -152 365 -224 50 -27 91 -50 92 -51 3 -2 -86 -308 -91 -314
-11 -10 -181 51 -283 103 -136 68 -260 155 -377 266 l-90 86 103 132 103 132
46 -36 c26 -19 85 -61 132 -94z m1535 -37 l94 -56 -118 -141 c-64 -78 -150
-185 -190 -237 -41 -52 -71 -86 -68 -75 52 182 177 565 185 565 2 0 46 -25 97
-56z m-3100 -616 c313 -413 849 -1099 1088 -1391 71 -87 127 -163 124 -170 -2
-7 -225 -336 -494 -732 -269 -396 -501 -737 -515 -758 l-26 -38 -169 223
c-378 497 -1146 1554 -1141 1571 4 18 990 1467 997 1467 3 -1 65 -78 136 -172z
m3705 -283 c85 -65 258 -177 395 -256 l124 -71 -56 -112 c-30 -61 -57 -113
-59 -115 -6 -7 -169 51 -251 89 -150 70 -423 269 -405 294 89 121 177 224 186
219 6 -4 36 -25 66 -48z m-997 -611 c173 -202 380 -378 593 -504 38 -23 60
-39 49 -36 -11 3 -211 46 -445 96 -593 128 -912 198 -935 209 -20 8 -341 389
-334 396 2 2 49 -8 104 -21 126 -30 302 -54 405 -54 143 0 317 55 374 119 18
20 19 19 57 -38 21 -31 80 -107 132 -167z m-389 -1173 c407 -90 1293 -278
1614 -343 159 -32 211 -46 207 -56 -4 -12 -949 -1406 -965 -1425 -5 -6 -2248
397 -2256 406 -2 2 803 1188 966 1425 28 39 56 72 62 72 7 0 174 -36 372 -79z"/>
<path d="M11936 28069 c-141 -19 -325 -96 -461 -194 -331 -236 -691 -712
-1050 -1390 -32 -60 -59 -112 -61 -114 -6 -8 -320 143 -328 158 -28 48 -116
123 -208 178 -795 471 -1787 597 -2689 343 -632 -179 -1206 -555 -1648 -1080
-332 -395 -571 -858 -696 -1349 -19 -74 -38 -138 -42 -141 -8 -7 -1439 -602
-1768 -736 -104 -42 -209 -89 -232 -105 -45 -31 -101 -96 -126 -144 -8 -16
-121 -352 -252 -745 l-237 -715 -86 -145 c-456 -767 -770 -1735 -847 -2607
-22 -245 -20 -405 5 -484 11 -35 34 -82 50 -104 16 -22 44 -65 62 -95 48 -81
107 -134 268 -241 574 -380 1350 -738 2264 -1044 612 -204 1235 -369 1871
-496 249 -49 401 -60 486 -36 46 14 627 294 1064 513 l131 66 89 -46 c91 -47
219 -93 330 -117 92 -21 407 -18 518 4 534 108 921 465 1095 1009 17 51 36
121 43 156 8 36 20 67 29 72 8 4 632 238 1387 520 l1372 511 76 -60 c140 -112
272 -178 451 -228 93 -25 112 -27 309 -27 229 -1 293 8 470 66 206 67 363 165
530 333 254 254 386 539 452 974 l8 55 280 132 c579 275 556 263 611 320 60
61 97 134 113 217 14 75 2 264 -124 1952 -68 921 -94 1294 -104 1522 -7 177
-8 182 -40 247 -46 93 -112 154 -234 217 -164 83 -320 170 -677 372 -184 105
-427 241 -540 303 l-205 112 -86 229 c-181 478 -331 800 -521 1114 -199 329
-455 592 -667 686 -127 56 -299 81 -435 62z m188 -910 c124 -131 345 -481 315
-499 -36 -23 -201 -44 -339 -43 -164 0 -291 22 -434 74 -131 47 -129 36 -29
169 108 142 270 306 343 348 30 18 58 32 61 32 4 0 41 -36 83 -81z m-3644
-845 c112 -16 324 -63 317 -70 -6 -6 -450 -154 -452 -151 -1 1 -14 49 -29 107
-15 58 -29 113 -32 123 -6 21 -14 21 196 -9z m-1835 -486 c-216 -413 -362
-886 -423 -1375 l-17 -132 -255 93 c-140 51 -269 100 -287 107 l-32 14 45 120
c93 253 257 538 428 750 81 98 276 295 371 373 52 43 226 171 232 172 2 0 -26
-55 -62 -122z m4837 46 c385 -119 817 -125 1197 -15 58 17 106 29 108 27 14
-13 163 -457 163 -484 0 -15 -205 -113 -315 -152 -231 -81 -465 -116 -715
-107 -147 5 -260 17 -312 33 -16 5 -18 20 -18 122 -1 64 -5 162 -10 217 -7 87
-13 109 -50 181 -46 92 -93 152 -154 197 -23 16 -32 26 -21 22 11 -4 68 -23
127 -41z m-3900 -156 c2 -13 -2 -39 -9 -59 -35 -104 -44 -220 -73 -894 -17
-379 -33 -731 -36 -781 l-6 -92 -214 72 -214 71 0 55 c0 257 80 672 185 965
76 214 321 685 355 685 5 0 10 -10 12 -22z m2352 -72 c64 -30 119 -56 121 -58
2 -2 -73 -32 -168 -66 l-173 -62 -94 6 c-64 3 -129 16 -199 37 l-104 31 244
82 c134 45 247 83 250 83 3 1 59 -23 123 -53z m-1333 -772 c195 -53 560 -161
564 -166 1 -2 -4 -286 -11 -633 -7 -346 -13 -655 -13 -686 l-1 -57 -427 145
c-235 79 -428 145 -428 146 -1 1 11 265 26 587 15 322 28 618 28 658 l1 74 33
-7 c17 -4 120 -31 228 -61z m2164 -565 c4 -357 4 -634 -1 -638 -5 -4 -169 -70
-364 -146 -195 -76 -370 -145 -389 -152 l-34 -15 7 404 c3 222 9 518 13 660
l6 256 131 48 c147 53 608 213 617 213 4 1 10 -283 14 -630z m1784 47 c-7 -7
-928 -356 -939 -356 -6 0 -10 60 -10 166 l0 166 33 -6 c93 -17 356 -26 499
-16 141 9 367 36 377 46 2 2 13 4 24 4 11 0 18 -2 16 -4z m2000 -333 c6 -98
32 -450 57 -783 81 -1090 114 -1554 114 -1607 l0 -52 -136 -65 c-75 -36 -142
-66 -148 -66 -6 0 -28 35 -48 78 -79 165 -225 345 -367 452 -371 280 -981 305
-1430 58 -170 -94 -358 -269 -471 -440 -210 -317 -315 -738 -282 -1127 7 -75
17 -163 23 -194 7 -32 10 -60 7 -62 -8 -8 -1720 -646 -1724 -642 -4 4 -12 156
-24 477 -6 146 -24 549 -40 895 -39 836 -60 1337 -60 1445 l0 89 378 149 c930
369 1934 754 3197 1227 446 166 835 312 865 323 30 12 60 21 66 21 7 1 15 -63
23 -176z m-9074 -323 c450 -167 1242 -442 1910 -661 l280 -92 -85 -22 c-47
-12 -258 -68 -470 -123 -333 -88 -474 -123 -690 -172 -44 -10 -57 -7 -335 91
-292 102 -1183 399 -1633 544 -173 56 -238 81 -227 88 25 14 1019 427 1028
427 5 0 105 -36 222 -80z m-1641 -1111 c642 -207 1676 -550 2004 -664 193 -68
222 -81 222 -99 1 -29 -71 -798 -76 -813 -4 -16 -116 22 -1099 374 -868 310
-1453 518 -1690 598 -93 32 -171 59 -172 60 -1 0 213 660 232 713 2 6 8 12 12
12 4 0 259 -81 567 -181z m4276 -466 c0 -43 -7 -240 -15 -438 -8 -198 -15
-388 -15 -422 l0 -61 -87 -21 c-49 -11 -288 -61 -533 -110 -245 -49 -487 -99
-539 -111 -51 -11 -95 -19 -97 -17 -4 3 71 828 81 904 l6 42 71 18 c40 10 304
79 587 155 284 75 522 136 529 137 9 1 12 -21 12 -76z m5362 -782 c97 -46 185
-178 230 -343 31 -116 36 -336 9 -464 -37 -179 -101 -305 -208 -405 -107 -102
-218 -143 -388 -144 -105 0 -114 2 -177 33 -111 54 -190 166 -240 339 -20 69
-23 100 -22 258 0 211 15 281 90 433 78 159 198 266 345 307 39 11 90 14 185
12 110 -3 137 -7 176 -26z m-10471 -170 c367 -127 693 -243 1589 -564 360
-129 802 -285 983 -347 289 -100 327 -115 327 -134 0 -53 -227 -2436 -232
-2441 -5 -5 -364 78 -583 134 -1148 297 -2216 722 -2934 1169 l-123 77 6 105
c21 372 134 893 291 1335 105 296 321 775 349 775 7 0 154 -49 327 -109z
m5685 -738 c-3 -42 -6 -117 -6 -168 l0 -92 -67 18 c-182 51 -470 61 -661 24
-631 -122 -1074 -657 -1153 -1390 -23 -216 3 -495 66 -700 14 -48 25 -89 22
-91 -2 -2 -82 -42 -178 -88 -115 -56 -175 -80 -177 -72 -2 7 17 226 42 487 70
732 156 1656 156 1677 0 29 172 70 953 228 470 95 910 199 963 228 16 8 33 15
38 16 5 0 6 -33 2 -77z m-382 -1033 c49 -6 108 -19 130 -29 92 -41 182 -178
227 -346 33 -118 33 -372 1 -500 -65 -258 -213 -430 -423 -489 -132 -37 -270
-28 -363 22 -208 113 -306 503 -215 856 71 278 249 458 479 486 36 4 67 8 70
9 3 0 45 -4 94 -9z"/>
<path d="M2547 20409 c-94 -22 -191 -93 -248 -181 -42 -66 -89 -237 -89 -324
1 -118 47 -220 136 -304 88 -82 148 -104 284 -105 98 0 110 2 172 32 138 65
210 171 249 365 18 94 20 117 10 173 -29 167 -133 287 -289 335 -67 21 -159
25 -225 9z"/>
<path d="M5164 19495 c-82 -18 -137 -47 -201 -107 -66 -63 -105 -140 -133
-265 -31 -135 -24 -220 25 -319 123 -250 451 -309 654 -119 67 63 97 116 125
227 35 135 39 176 22 256 -19 89 -46 143 -107 207 -60 64 -128 102 -216 120
-81 17 -90 17 -169 0z"/>
<path d="M31070 22634 c-226 -28 -539 -97 -834 -185 -1485 -444 -3748 -1570
-4720 -2348 -66 -52 -161 -134 -210 -181 -50 -48 -113 -97 -139 -109 -110 -53
-202 -173 -227 -296 -17 -82 -24 -660 -11 -830 80 -1005 501 -1662 1259 -1964
292 -116 759 -131 1297 -40 1010 170 2388 714 3570 1409 1228 721 2013 1438
2268 2069 l42 106 -1 155 c-3 445 -185 919 -512 1330 -41 52 -141 160 -221
240 -210 210 -402 358 -673 521 -177 106 -221 122 -328 120 -123 -2 -127 -2
-335 3 -104 2 -206 2 -225 0z m153 -855 c-35 -60 -142 -185 -229 -269 -910
-876 -3177 -1957 -4514 -2154 -169 -25 -368 -38 -472 -30 -54 4 -98 10 -98 14
0 4 44 44 98 87 978 800 3605 2056 4865 2328 107 23 289 51 345 54 23 1 23 1
5 -30z m1010 -592 c164 -218 274 -476 293 -687 6 -66 5 -71 -31 -137 -502
-917 -2943 -2339 -4775 -2782 -351 -85 -612 -121 -880 -121 -198 0 -276 10
-370 47 -271 107 -481 337 -594 651 -27 77 -70 238 -81 310 l-7 43 44 -8 c70
-13 493 -9 608 5 852 105 1961 483 3090 1053 1013 510 1814 1065 2216 1532 92
107 208 270 235 331 l13 29 91 -94 c49 -52 116 -129 148 -172z"/>
<path d="M19586 22404 c-171 -34 -442 -153 -654 -288 -57 -36 -107 -66 -110
-66 -4 0 -28 15 -54 33 -56 40 -171 94 -241 113 -88 24 -240 28 -347 10 -260
-46 -577 -200 -888 -433 -275 -205 -372 -352 -372 -559 0 -126 47 -250 126
-335 l25 -26 -118 -71 c-266 -159 -506 -364 -571 -488 -50 -97 -66 -172 -59
-290 7 -107 18 -150 118 -473 33 -106 58 -200 55 -207 -3 -8 -110 -187 -238
-397 -148 -244 -239 -404 -251 -442 -15 -49 -18 -82 -15 -175 4 -105 7 -122
39 -195 20 -44 276 -619 569 -1279 517 -1163 535 -1200 588 -1257 36 -40 76
-70 121 -92 66 -32 66 -32 216 -31 359 3 2366 167 2929 240 212 27 278 45 351
97 25 18 540 578 1144 1246 797 880 1107 1229 1125 1266 14 29 30 74 37 101
16 69 16 211 0 258 -8 22 -262 599 -566 1283 -377 848 -565 1259 -589 1290
-53 68 -128 120 -205 142 -44 13 -210 34 -502 62 l-436 42 -98 161 c-214 350
-372 565 -466 632 -57 40 -203 102 -299 125 -90 23 -261 24 -364 3z m470
-1281 c33 -54 62 -103 67 -109 9 -16 -127 -127 -241 -196 -144 -87 -417 -193
-427 -165 -3 7 -25 66 -50 132 -25 65 -45 124 -45 130 0 5 35 23 78 39 82 30
430 198 497 239 22 14 45 26 51 26 6 1 38 -43 70 -96z m-1428 -652 c12 -30 20
-56 18 -58 -5 -5 -195 210 -301 341 -49 61 -84 111 -79 113 5 2 50 25 99 52
l90 48 76 -221 c42 -122 85 -245 97 -275z m3251 -1079 c308 -694 350 -794 339
-810 -7 -10 -352 -393 -767 -851 -719 -793 -755 -831 -767 -809 -15 28 -691
1549 -712 1600 l-15 37 314 323 c317 326 871 904 1118 1166 74 78 135 141 136
139 1 -1 161 -359 354 -795z m-1710 591 c-269 -285 -923 -953 -937 -957 -19
-6 -342 -51 -442 -62 l-65 -7 87 87 c158 158 268 307 312 424 36 95 49 167 43
233 l-6 56 92 7 c303 24 649 119 904 250 37 19 70 35 72 36 2 0 -25 -30 -60
-67z m-2065 -226 c65 -70 106 -123 103 -131 -16 -40 -206 -175 -343 -244 -137
-69 -415 -156 -433 -136 -17 19 -113 296 -105 303 5 5 59 28 119 51 115 46
415 194 500 248 27 17 50 30 51 29 0 -1 49 -55 108 -120z m1486 -2430 c205
-461 370 -840 367 -843 -13 -13 -823 -83 -1612 -139 -269 -19 -513 -37 -541
-40 l-52 -5 -362 815 c-200 449 -361 817 -359 819 2 1 200 22 439 45 658 65
1680 180 1725 195 6 2 13 1 16 -3 4 -3 174 -383 379 -844z"/>
<path d="M71440 22004 c-172 -25 -300 -83 -428 -192 -101 -85 -447 -572 -659
-927 -163 -272 -323 -574 -450 -851 l-42 -91 -67 -33 c-185 -91 -411 -288
-541 -473 -126 -179 -228 -420 -268 -637 -27 -140 -25 -374 3 -506 12 -55 28
-119 36 -142 l15 -42 -77 -51 c-242 -162 -448 -389 -566 -625 -155 -311 -182
-647 -77 -943 l27 -79 -77 -66 c-266 -226 -470 -595 -555 -1001 -24 -116 -27
-153 -28 -335 -1 -113 3 -235 7 -271 l8 -65 -60 -38 c-410 -252 -691 -676
-761 -1146 l-13 -85 -2376 -1234 c-1307 -679 -2395 -1247 -2419 -1263 -57 -39
-115 -115 -143 -185 -18 -46 -22 -76 -21 -143 5 -264 4 -357 -6 -575 -7 -132
-15 -429 -18 -660 -8 -469 -5 -497 59 -604 52 -87 108 -128 298 -216 l171 -80
-1 -215 c-2 -265 13 -1101 39 -2230 27 -1150 40 -1859 40 -2190 1 -290 5 -331
46 -415 54 -109 102 -142 643 -449 1535 -871 3285 -1664 5255 -2381 192 -70
376 -132 408 -138 103 -19 158 -3 461 136 1850 848 3590 1751 7027 3649 498
275 934 516 970 536 86 47 154 118 192 197 24 52 32 87 40 173 5 59 47 726 93
1482 113 1835 203 3293 218 3523 l12 188 215 118 c164 89 228 130 271 172 60
59 104 137 118 212 11 60 -15 1560 -28 1633 -17 93 -31 130 -69 190 -60 92
-137 148 -247 179 -33 10 -490 145 -1016 300 -526 156 -972 287 -992 290 -35
7 -35 7 -73 123 -52 163 -166 384 -262 512 -92 122 -253 280 -370 363 -44 32
-130 83 -189 114 -59 31 -109 57 -111 58 -2 2 4 50 12 108 21 136 21 393 0
538 -62 446 -270 849 -576 1117 -65 56 -257 193 -286 203 -7 3 -8 34 -2 104
38 447 -170 955 -512 1245 -40 34 -78 68 -85 74 -10 9 -8 25 8 75 66 213 66
569 -1 829 -51 201 -126 377 -228 531 -64 97 -224 268 -311 331 -56 41 -60 46
-71 104 -6 34 -23 89 -37 124 -36 92 -835 1593 -898 1688 -101 152 -252 276
-391 323 -100 33 -205 46 -284 35z m419 -1635 c314 -593 370 -704 359 -715 -8
-8 -52 -29 -98 -48 -195 -79 -398 -111 -655 -103 -250 8 -448 47 -661 128
-159 61 -154 38 -51 246 152 305 291 551 465 818 99 153 255 375 263 375 3 0
173 -316 378 -701z m-1550 -1430 c366 -181 785 -273 1236 -271 280 1 525 39
765 119 111 37 309 127 360 163 17 12 37 20 44 17 25 -10 107 -186 132 -285
27 -107 41 -253 30 -326 l-7 -48 -72 -32 c-837 -381 -1896 -402 -2772 -55
l-157 62 -24 51 c-35 76 -47 149 -42 256 8 158 76 312 194 439 l55 60 71 -46
c39 -25 124 -72 187 -104z m-499 -1527 c467 -174 914 -258 1435 -269 542 -12
997 56 1504 222 l164 54 73 -30 c192 -80 335 -235 401 -434 23 -68 27 -98 27
-204 l1 -123 -43 -38 c-88 -78 -311 -175 -547 -236 -1067 -278 -2757 -203
-3469 153 -318 159 -353 448 -88 725 41 43 105 98 142 123 95 63 210 117 240
112 14 -3 86 -27 160 -55z m4161 -1688 c241 -193 375 -600 314 -950 -25 -143
-38 -163 -142 -224 -434 -258 -1084 -418 -1998 -492 -246 -20 -1091 -17 -1365
5 -880 71 -1590 224 -2083 451 l-78 35 -33 73 c-52 112 -71 211 -70 363 0 139
10 204 51 330 57 178 163 339 287 435 l56 43 98 -46 c429 -201 958 -319 1707
-379 208 -17 966 -17 1175 0 791 64 1404 209 1781 422 l104 59 65 -36 c36 -19
95 -59 131 -89z m-5886 -1824 c4 -6 30 -24 58 -40 29 -16 45 -30 37 -30 -14 0
-252 -70 -294 -86 -33 -13 21 52 94 112 64 52 92 64 105 44z m6812 -163 c205
-134 345 -369 388 -654 26 -174 12 -374 -35 -480 -23 -52 -84 -93 -285 -193
-297 -146 -633 -243 -935 -271 l-125 -12 -160 159 c-343 340 -725 637 -1137
885 -72 43 -127 79 -120 79 37 0 433 55 577 80 609 106 1156 289 1505 503 l55
33 102 -42 c55 -23 132 -62 170 -87z m-3774 -798 c1135 -373 2115 -1131 2718
-2101 44 -72 77 -134 72 -138 -4 -5 -341 -186 -748 -403 l-740 -395 -17 146
c-86 745 -340 1443 -755 2075 -173 263 -354 487 -583 720 -176 180 -180 172
53 96z m-3304 -216 c-482 -491 -832 -987 -1129 -1597 -125 -255 -197 -433
-286 -703 -102 -305 -181 -634 -223 -926 -10 -70 -21 -130 -24 -133 -3 -3 -22
3 -44 14 -42 22 -862 395 -1015 462 l-97 42 38 108 c299 838 892 1629 1642
2195 354 267 754 494 1157 656 81 32 149 59 151 59 2 0 -74 -80 -170 -177z
m1371 -35 c340 -1461 317 -2961 -67 -4363 -30 -110 -60 -206 -66 -213 -6 -8
-46 -31 -88 -53 l-77 -38 -164 85 c-223 118 -1240 625 -1528 763 l-236 113 3
31 c82 1045 470 1983 1163 2817 129 156 507 534 660 662 125 104 361 287 372
287 3 1 16 -41 28 -91z m1055 -209 c125 -106 373 -363 477 -493 393 -491 670
-1063 793 -1641 57 -262 89 -564 83 -773 l-3 -112 -765 -409 c-421 -224 -766
-407 -768 -406 -2 2 13 85 32 186 64 329 109 663 143 1059 26 297 26 1196 0
1489 -39 438 -95 842 -162 1163 -8 38 -15 74 -15 80 0 11 45 -24 185 -143z
m6270 -60 c209 -61 383 -115 387 -118 4 -4 -101 -64 -233 -135 -132 -71 -244
-124 -248 -120 -5 5 -16 29 -25 53 -42 109 -169 288 -262 369 -31 28 -42 45
-38 56 4 10 13 15 23 12 9 -3 187 -55 396 -117z m-885 -651 c10 -24 20 -65 22
-93 l3 -49 -490 -263 c-269 -144 -494 -262 -500 -262 -5 0 -45 59 -88 131 -80
132 -83 147 -36 148 8 0 85 20 171 44 280 80 559 194 778 319 63 36 116 66
118 66 2 1 12 -18 22 -41z m1992 -248 c2 -110 3 -241 3 -291 l0 -92 -125 -69
c-964 -535 -2093 -1140 -4300 -2308 -1779 -941 -2668 -1417 -3520 -1883 l-355
-194 -5 306 c-3 168 -5 307 -5 308 0 3 8291 4423 8298 4423 4 0 8 -90 9 -200z
m-12828 -157 c-173 -263 -418 -752 -519 -1038 -16 -44 -32 -84 -36 -89 -4 -5
-206 79 -454 189 -259 116 -442 202 -437 207 12 12 1444 757 1456 758 4 0 0
-12 -10 -27z m-1987 -1414 c37 -17 397 -177 798 -356 1860 -829 2572 -1155
3505 -1608 366 -177 1058 -525 1278 -642 l102 -55 0 -324 0 -323 -117 55
c-891 421 -1666 769 -3283 1476 -1049 459 -1662 730 -2079 918 l-291 132 0
162 c0 167 11 596 16 596 1 0 33 -14 71 -31z m14178 -181 c-3 -35 -42 -646
-85 -1358 -44 -712 -104 -1685 -134 -2163 -29 -477 -55 -869 -57 -871 -5 -4
-1447 -800 -1954 -1079 -1416 -777 -2479 -1341 -3685 -1955 -444 -226 -1412
-698 -1689 -823 l-63 -29 6 447 c4 247 13 860 21 1363 24 1566 29 2257 15
2330 -7 36 -13 75 -14 88 -1 20 40 46 344 213 917 505 1949 1059 3905 2094
1437 760 2485 1319 3020 1609 198 107 364 196 368 196 4 0 5 -28 2 -62z
m-13385 -1853 c146 -64 659 -289 1140 -500 1703 -745 2520 -1113 3310 -1490
146 -69 317 -151 381 -182 l116 -55 -7 -36 c-4 -21 -11 -455 -14 -967 -4 -511
-11 -1135 -16 -1385 -5 -250 -12 -771 -16 -1158 l-7 -703 -26 6 c-89 22 -1129
432 -1611 635 -1139 480 -2303 1048 -3261 1592 l-266 151 -6 576 c-4 317 -11
756 -17 976 -26 1040 -40 1722 -47 2188 l-6 508 44 -20 c24 -10 163 -71 309
-136z"/>
<path d="M57131 19619 c-138 -27 -297 -99 -435 -197 -104 -73 -347 -317 -452
-452 -175 -225 -360 -516 -546 -856 l-104 -191 -159 74 c-88 41 -162 79 -164
86 -2 7 -33 41 -70 77 -76 74 -232 166 -442 261 -815 369 -1732 416 -2561 130
-474 -164 -900 -433 -1268 -801 -447 -447 -755 -990 -909 -1601 l-29 -113
-583 -243 c-321 -134 -755 -313 -964 -398 -209 -86 -395 -163 -414 -173 -53
-26 -134 -105 -163 -159 -14 -26 -132 -370 -262 -763 l-236 -715 -91 -150
c-425 -707 -747 -1679 -833 -2515 -24 -232 -31 -457 -16 -521 15 -63 48 -134
83 -175 13 -16 33 -47 45 -69 36 -71 87 -119 224 -212 871 -591 2298 -1151
3793 -1487 508 -114 757 -148 872 -117 35 10 632 298 1046 505 l149 74 73 -39
c178 -96 366 -142 585 -142 500 1 921 226 1190 638 97 149 183 357 225 545
l16 75 1387 517 1387 516 50 -42 c231 -197 541 -299 852 -282 375 21 682 154
934 405 170 170 288 368 369 618 37 114 80 318 80 382 0 26 20 36 408 220 224
106 426 208 450 226 91 70 147 170 158 284 7 66 -22 503 -116 1766 -83 1109
-109 1492 -114 1686 -5 164 -22 226 -83 306 -54 71 -74 85 -288 199 -110 59
-384 211 -610 339 -225 128 -480 270 -565 316 l-154 84 -58 160 c-274 750
-569 1298 -868 1609 -216 225 -429 328 -674 325 -55 -1 -121 -5 -145 -10z
m227 -903 c38 -41 96 -114 129 -163 69 -101 193 -312 193 -329 0 -22 -198 -54
-340 -54 -169 0 -376 42 -509 103 l-50 24 81 108 c145 193 349 385 408 385 10
0 49 -33 88 -74z m-3606 -851 c121 -21 278 -57 278 -64 0 -11 -442 -153 -449
-145 -9 10 -61 203 -61 224 0 15 93 9 232 -15z m-1898 -530 c-211 -420 -351
-893 -403 -1359 -6 -49 -12 -91 -15 -93 -2 -2 -130 42 -285 99 -325 118 -294
86 -235 248 84 228 254 522 421 730 82 102 271 293 368 371 65 52 223 169 230
169 1 0 -35 -74 -81 -165z m4784 119 c55 -22 244 -71 347 -89 300 -52 632 -34
923 50 l114 32 10 -26 c5 -14 43 -125 84 -245 57 -169 71 -222 62 -228 -7 -5
-62 -33 -123 -63 -136 -66 -286 -117 -452 -152 -118 -25 -146 -27 -368 -28
-154 0 -271 5 -327 14 l-88 13 0 177 c0 127 -4 193 -15 236 -24 90 -83 193
-152 263 -33 34 -59 62 -57 62 3 0 21 -7 42 -16z m-3832 -243 c-34 -107 -40
-190 -75 -951 -20 -439 -39 -801 -42 -804 -3 -3 -101 26 -218 65 l-212 71 6
107 c15 254 62 522 131 753 73 245 217 560 345 758 57 88 62 93 71 71 6 -16 4
-39 -6 -70z m2370 -13 c63 -28 111 -55 107 -58 -21 -18 -356 -130 -372 -125
-11 3 -45 6 -78 6 -55 1 -263 54 -263 68 0 8 448 159 474 160 10 1 70 -22 132
-51z m-1106 -835 c124 -36 249 -73 278 -81 l53 -16 -6 -295 c-4 -163 -10 -470
-14 -683 -3 -213 -8 -389 -11 -392 -4 -4 -837 271 -849 280 -4 4 46 1164 55
1261 l5 61 132 -34 c73 -19 233 -65 357 -101z m1931 -732 l4 -403 -380 -150
c-209 -83 -388 -152 -398 -155 -18 -6 -18 8 -12 333 4 187 10 483 14 658 l6
320 150 54 c83 30 251 89 375 132 l225 78 6 -232 c3 -127 8 -413 10 -635z
m1749 266 c-30 -11 -246 -94 -480 -183 l-425 -161 -8 164 c-5 91 -7 166 -5
168 1 1 28 -1 58 -6 30 -4 134 -11 230 -15 189 -7 373 5 545 35 133 24 151 24
85 -2z m2020 -151 c0 -18 50 -701 100 -1371 22 -291 49 -658 60 -815 10 -157
22 -315 25 -352 l6 -68 -147 -70 c-81 -38 -148 -69 -149 -68 -2 2 -19 37 -40
78 -149 300 -396 524 -683 620 -174 57 -485 78 -683 44 -435 -74 -800 -350
-1003 -759 -170 -342 -232 -778 -163 -1142 l14 -73 -46 -17 c-25 -10 -415
-155 -866 -324 l-820 -306 -7 136 c-3 75 -11 262 -18 416 -6 154 -22 512 -35
795 -28 582 -51 1119 -61 1385 l-6 180 183 72 c101 39 387 151 634 248 514
202 1406 545 2050 789 613 231 1638 615 1648 615 4 1 7 -5 7 -13z m-9040 -498
c412 -153 700 -253 1430 -498 463 -156 727 -249 715 -253 -44 -13 -870 -228
-1000 -260 -77 -19 -171 -40 -210 -46 l-70 -12 -145 51 c-319 113 -894 307
-1425 480 -308 100 -564 185 -568 189 -11 10 1024 441 1043 435 8 -3 112 -42
230 -86z m-1445 -1174 c946 -306 1995 -659 2009 -675 4 -5 -75 -833 -80 -838
-5 -5 -267 86 -1024 356 -948 339 -1517 541 -1741 618 l-197 67 122 364 c111
335 122 363 141 358 11 -4 358 -116 770 -250z m4060 -411 c-3 -54 -12 -278
-21 -498 -8 -220 -18 -403 -22 -407 -9 -8 -206 -50 -742 -159 -223 -45 -427
-86 -453 -92 -26 -5 -49 -8 -51 -6 -3 4 67 769 81 879 l8 65 50 13 c28 7 295
77 595 156 300 80 549 145 553 145 4 1 5 -43 2 -96z m5274 -743 c81 -14 127
-37 178 -93 120 -130 186 -386 163 -628 -20 -213 -88 -377 -205 -495 -119
-121 -246 -169 -430 -162 -85 3 -109 8 -157 31 -74 37 -139 109 -187 211 -61
127 -76 205 -76 386 1 181 21 281 84 414 127 270 339 383 630 336z m-10352
-204 c197 -68 599 -211 893 -316 998 -357 1264 -452 1620 -575 l355 -123 -3
-34 c-3 -47 -155 -1677 -193 -2078 -18 -184 -35 -339 -39 -343 -14 -16 -561
117 -982 239 -1004 288 -1928 676 -2546 1067 l-114 72 7 90 c38 524 195 1147
426 1688 59 137 205 437 214 437 2 0 165 -56 362 -124z m5648 -854 c-6 -118
-9 -133 -24 -127 -44 18 -202 46 -308 55 -375 34 -746 -82 -1021 -319 -424
-365 -627 -1033 -501 -1644 11 -54 29 -123 40 -154 10 -31 19 -62 19 -70 0
-14 -346 -190 -355 -181 -2 2 22 283 55 623 32 341 77 827 100 1080 23 253 45
467 49 475 14 26 226 76 916 215 481 96 904 196 986 232 l44 19 3 -35 c2 -20
1 -96 -3 -169z m-271 -923 c109 -37 218 -203 257 -394 27 -132 23 -357 -10
-480 -86 -328 -311 -507 -617 -492 -79 3 -99 8 -153 37 -79 42 -133 103 -183
206 -128 264 -96 673 71 911 83 118 180 188 304 219 63 16 274 12 331 -7z"/>
<path d="M47800 11970 c-79 -17 -164 -66 -223 -130 -64 -68 -89 -126 -119
-274 -17 -83 -19 -108 -10 -162 30 -183 168 -323 350 -355 170 -30 364 74 438
235 62 136 78 314 36 422 -71 189 -278 304 -472 264z"/>
<path d="M50356 11041 c-71 -24 -156 -80 -195 -130 -101 -129 -145 -375 -92
-514 45 -116 144 -209 264 -248 103 -33 211 -25 311 24 129 64 194 157 235
335 25 111 26 158 6 237 -34 127 -112 221 -233 278 -87 41 -205 48 -296 18z"/>
<path d="M35430 18180 c-25 -5 -74 -24 -109 -42 -54 -28 -82 -53 -170 -153
-115 -132 -939 -958 -2231 -2236 l-835 -827 -101 97 c-147 141 -308 247 -476
315 -97 39 -274 86 -323 86 -27 0 -39 9 -75 54 -23 29 -64 72 -90 94 -61 52
-1459 1009 -1559 1068 -131 75 -294 124 -416 124 -243 0 -483 -147 -609 -372
-64 -115 -85 -199 -131 -518 -67 -471 -90 -850 -83 -1389 l6 -394 -55 -79
c-166 -245 -253 -541 -253 -863 0 -311 76 -578 234 -820 31 -47 56 -88 56 -92
0 -3 -18 -34 -39 -67 -68 -109 -133 -247 -176 -381 -63 -193 -80 -298 -80
-504 l0 -173 -59 63 c-145 157 -280 328 -403 509 -205 301 -425 474 -741 584
-191 66 -294 81 -567 81 -188 0 -262 -4 -340 -19 -530 -96 -1034 -323 -1520
-686 -172 -128 -271 -213 -439 -378 -400 -393 -644 -761 -850 -1278 -623
-1568 -627 -3006 -11 -4242 238 -477 528 -868 946 -1277 474 -463 996 -819
1684 -1146 834 -397 1797 -645 2830 -731 211 -17 958 -17 1155 0 365 32 693
82 995 153 93 21 173 39 177 39 4 0 3 -11 -2 -25 -40 -104 -32 -224 20 -331
57 -116 110 -154 441 -317 509 -251 1188 -549 1294 -568 51 -10 79 -10 132 0
109 20 158 50 313 191 97 89 146 127 154 121 29 -24 1031 -430 2201 -891 846
-333 1649 -654 1975 -790 434 -180 380 -163 494 -158 73 3 113 10 146 24 106
49 895 661 1460 1135 1113 933 2365 2138 3438 3313 107 117 162 185 180 224
l27 57 -1 300 c-3 674 -84 2124 -199 3540 -92 1124 -197 2215 -380 3950 -47
440 -103 973 -125 1185 -22 212 -44 411 -49 443 -15 89 -53 162 -118 224 -62
60 58 -1 -3858 1940 -506 251 -921 457 -923 459 -2 1 -16 120 -32 265 -27 244
-31 266 -60 326 -38 77 -108 150 -181 186 -92 46 -1390 564 -1457 582 -81 20
-175 27 -232 15z m840 -1150 c140 -56 258 -105 262 -108 7 -7 86 -758 163
-1547 66 -676 169 -1818 300 -3305 187 -2130 272 -3056 374 -4055 26 -258 46
-472 44 -474 -1 -2 -121 46 -267 107 -145 62 -271 112 -280 112 -8 0 -18 10
-20 23 -3 12 -57 596 -120 1297 -262 2887 -726 7978 -732 8019 -4 34 -3 43 8
39 7 -3 128 -52 268 -108z m-921 -2030 c89 -976 161 -1787 161 -1802 0 -22 -8
-30 -53 -51 -30 -13 -84 -52 -121 -85 -94 -85 -223 -188 -411 -327 -88 -65
-190 -143 -227 -172 l-68 -54 -132 15 c-118 14 -580 51 -713 58 -49 3 -50 4
-47 33 2 17 4 91 4 165 2 148 -16 242 -73 388 -108 273 -315 524 -575 697
-148 98 -355 186 -514 216 -104 20 -104 23 -9 130 101 115 1074 1088 1954
1956 498 491 652 637 657 624 4 -9 79 -815 167 -1791z m-5547 400 c353 -242
647 -446 652 -454 24 -35 -196 -258 -362 -369 -199 -133 -480 -250 -709 -296
-96 -20 -312 -45 -319 -38 -11 11 -15 516 -5 722 17 359 71 875 91 875 5 0
298 -198 652 -440z m9686 -566 c1093 -542 1990 -989 1995 -993 8 -8 12 -47
152 -1371 306 -2902 463 -4748 540 -6385 8 -176 17 -376 21 -444 5 -102 4
-123 -7 -118 -65 26 -675 293 -1224 534 -1682 741 -2477 1083 -2575 1109 -30
8 -65 14 -77 14 -15 0 -23 6 -23 18 0 9 -22 231 -50 492 -108 1038 -217 2209
-420 4525 -155 1767 -297 3313 -326 3553 -3 28 -3 52 0 52 4 0 901 -444 1994
-986z m-8210 -316 c69 -39 179 -142 244 -228 27 -36 70 -106 95 -157 l46 -91
-84 -104 c-116 -145 -360 -385 -517 -510 -560 -446 -1224 -721 -1909 -789 -66
-6 -132 -9 -146 -5 -70 17 -193 185 -231 316 -35 116 -31 293 9 426 l15 51 57
-9 c78 -13 415 -3 533 16 510 81 1010 300 1365 598 164 137 356 353 428 481
11 20 25 37 30 37 5 0 34 -14 65 -32z m1197 -1272 c109 -38 186 -87 276 -176
56 -56 86 -96 117 -159 23 -46 42 -96 42 -112 0 -68 -96 -208 -245 -354 -562
-556 -1827 -1210 -2820 -1458 -284 -71 -419 -91 -630 -91 l-180 -1 -67 32
c-129 61 -197 151 -218 289 -23 151 29 354 133 516 l34 54 171 12 c790 56
1530 310 2189 753 241 162 444 329 665 551 92 91 177 169 190 171 13 3 77 4
143 3 100 -2 133 -7 200 -30z m3149 -1266 c10 -113 20 -220 23 -238 l6 -34
-64 32 c-79 40 -209 126 -268 178 l-45 39 160 119 c87 66 162 118 165 115 3
-3 14 -98 23 -211z m-1260 -280 c27 0 40 -12 106 -96 150 -191 385 -398 600
-530 176 -107 437 -217 601 -254 54 -12 57 -14 63 -49 13 -78 44 -71 -324 -71
l-329 0 -363 451 c-200 248 -383 476 -408 507 l-44 55 33 -6 c18 -4 48 -7 65
-7z m-7984 -205 c88 -21 195 -76 256 -130 28 -24 80 -86 114 -137 188 -276
367 -495 594 -725 l110 -113 -13 -37 c-7 -21 -37 -87 -66 -148 -165 -344 -458
-665 -915 -1005 -155 -115 -383 -266 -740 -490 -336 -211 -515 -328 -685 -450
-421 -302 -792 -659 -989 -954 -155 -231 -278 -549 -342 -881 -14 -71 -28
-141 -31 -155 -10 -50 -134 281 -196 525 -88 344 -112 545 -111 940 0 456 47
793 175 1263 89 325 251 763 361 972 306 586 914 1128 1567 1395 181 74 353
120 556 149 62 9 292 -3 355 -19z m7277 -355 c131 -162 339 -420 461 -572
l221 -277 -221 -383 c-121 -211 -226 -389 -233 -396 -10 -11 -44 27 -181 200
-92 117 -302 383 -467 591 l-298 378 211 367 c265 458 239 417 255 401 7 -8
120 -147 252 -309z m-1532 -199 c-42 -72 -83 -152 -91 -178 -18 -60 -18 -186
1 -249 19 -63 44 -101 194 -286 69 -84 129 -159 135 -167 6 -7 -22 7 -62 33
-373 242 -876 374 -1322 347 -63 -4 -116 -6 -117 -6 -2 1 52 23 120 50 201 80
489 210 717 324 204 102 464 243 484 262 28 26 10 -13 -59 -130z m3692 -1085
c3 -3 75 -817 72 -820 -6 -5 -1269 50 -1274 55 -2 3 95 175 216 384 l219 380
148 5 c117 4 612 1 619 -4z m-7366 -194 l115 -62 -1 -572 c-2 -645 -16 -912
-76 -1458 -145 -1317 -508 -2651 -1049 -3860 -28 -63 -52 -116 -54 -118 -5 -5
-273 64 -441 113 -827 243 -1589 634 -2158 1108 -90 75 -113 105 -173 231
-240 509 -159 1428 165 1856 120 158 315 351 521 515 221 175 399 297 890 605
623 391 894 587 1206 871 284 259 521 556 683 855 l54 101 101 -62 c56 -34
153 -89 217 -123z m2914 -77 c398 -83 746 -322 1035 -710 482 -647 704 -1609
585 -2530 -41 -317 -142 -696 -254 -958 l-20 -47 -83 31 c-46 16 -141 59 -213
94 -704 348 -1309 1051 -1421 1650 -18 97 -16 217 7 455 14 152 6 486 -16 650
-56 422 -180 816 -370 1176 l-64 122 92 25 c85 24 213 50 297 61 76 9 347 -2
425 -19z m-1802 -251 l118 -7 70 -106 c212 -320 352 -703 405 -1101 20 -153
22 -446 4 -585 -19 -139 -17 -376 3 -512 99 -649 544 -1338 1214 -1878 174
-140 442 -313 640 -412 98 -49 198 -97 222 -107 l44 -17 -20 -22 c-11 -12 -48
-55 -84 -96 -287 -330 -794 -637 -1360 -824 -372 -123 -824 -209 -1309 -248
-234 -19 -780 -16 -1045 5 -121 10 -222 20 -224 21 -1 2 35 95 83 207 597
1418 958 2963 1056 4528 16 253 28 807 22 1004 l-5 169 24 -6 c13 -4 77 -10
142 -13z m4032 -824 c99 -124 137 -158 220 -196 73 -33 53 -32 1218 -80 505
-21 922 -41 927 -44 5 -3 19 -107 30 -230 11 -124 22 -241 25 -261 5 -36 4
-37 -128 -145 -516 -425 -1324 -1128 -1960 -1707 -121 -109 -221 -196 -224
-194 -2 3 5 40 16 83 130 520 165 1134 95 1694 -50 401 -164 832 -311 1178
-12 29 10 5 92 -98z m3288 -1656 c130 -54 237 -101 237 -105 0 -3 -100 -95
-222 -205 -646 -579 -1291 -1181 -2563 -2389 -745 -708 -1228 -1163 -1568
-1479 l-257 -238 -38 15 c-35 15 -350 155 -554 248 -54 24 -96 46 -95 49 1 3
144 138 317 301 173 162 531 497 795 744 1507 1412 2490 2292 3429 3071 l171
142 55 -27 c30 -15 162 -72 293 -127z m1185 -443 c15 -10 137 -64 272 -121
383 -160 898 -384 1905 -827 512 -225 1100 -483 1307 -573 l377 -164 -162
-170 c-236 -250 -986 -1003 -1252 -1260 -872 -840 -1784 -1627 -2647 -2285
l-147 -112 -218 90 c-328 134 -1042 419 -1863 743 -404 159 -964 382 -1245
495 -280 113 -534 215 -562 227 -29 11 -52 23 -50 26 1 3 130 127 287 275 157
148 506 479 775 735 1013 962 1530 1448 2050 1925 497 457 1123 1015 1138
1015 5 0 21 -8 35 -19z"/>
<path d="M12843 17025 c-92 -25 -451 -183 -751 -331 l-292 -145 -208 117
c-114 64 -274 156 -357 205 -94 55 -172 94 -210 104 -83 21 -255 20 -320 -3
-68 -24 -2075 -1246 -2137 -1301 -27 -25 -63 -68 -79 -97 -17 -29 -36 -55 -44
-58 -8 -3 -35 -33 -60 -67 -53 -72 -85 -166 -85 -252 0 -101 93 -493 334
-1413 137 -522 256 -1001 296 -1189 36 -166 55 -212 129 -312 97 -129 120
-150 323 -293 420 -296 924 -668 1933 -1425 1462 -1097 2155 -1603 2291 -1671
55 -28 87 -37 145 -41 170 -13 205 7 1234 687 347 229 711 468 810 531 270
171 347 257 377 419 9 44 9 78 1 128 -24 141 -166 887 -209 1090 -24 117 -42
217 -39 222 15 24 656 550 752 617 82 58 206 191 237 256 34 68 66 235 66 340
-1 195 -88 427 -258 682 -117 175 -197 271 -366 441 -133 132 -161 156 -233
191 -45 23 -108 47 -140 53 -87 19 -206 8 -283 -25 -76 -31 -362 -126 -372
-122 -3 1 -35 40 -71 87 l-65 84 61 30 c89 42 211 167 259 266 46 93 75 196
83 297 25 291 -176 697 -547 1102 -281 307 -480 386 -738 292 -47 -17 -172
-58 -277 -92 -106 -33 -199 -62 -206 -65 -8 -3 -47 38 -100 108 -154 203 -349
402 -464 476 -121 77 -297 110 -420 77z m-269 -1102 c46 -95 133 -240 232
-385 l93 -137 -93 -76 c-51 -41 -96 -75 -100 -75 -17 0 -135 178 -187 285 -45
93 -139 342 -139 370 0 8 134 74 150 75 9 0 27 -24 44 -57z m-2000 -20 c3 -10
46 -196 96 -413 150 -653 223 -928 347 -1312 42 -131 75 -239 72 -241 -37 -31
-1405 -865 -1409 -860 -4 5 -30 100 -58 213 -28 113 -123 480 -210 815 -190
726 -248 968 -236 972 5 2 317 192 694 423 377 230 688 419 692 419 4 1 9 -7
12 -16z m1051 -369 c132 -399 282 -661 515 -894 121 -121 184 -171 327 -258
114 -69 172 -85 282 -80 105 5 188 40 269 113 29 26 54 46 56 44 1 -2 15 -26
29 -53 l27 -48 -35 -57 c-37 -61 -65 -152 -65 -214 0 -79 76 -403 142 -606 99
-307 237 -568 405 -769 31 -37 63 -76 72 -86 53 -64 -1072 846 -1520 1230
l-167 142 -32 84 c-96 250 -215 641 -305 996 -42 169 -165 689 -165 699 0 3
23 -9 51 -25 l52 -30 62 -188z m2605 -335 c29 -46 73 -113 97 -147 25 -35 41
-67 37 -71 -5 -4 -47 -22 -94 -41 -47 -19 -158 -66 -248 -106 l-162 -72 -34
62 c-19 33 -47 89 -62 124 l-27 63 44 37 c167 140 212 202 259 358 l25 81 56
-102 c31 -56 81 -140 109 -186z m-106 -1332 c64 -120 135 -235 229 -375 49
-73 86 -137 81 -141 -82 -69 -174 -141 -181 -141 -21 0 -129 162 -189 285 -57
117 -134 323 -134 360 0 13 121 83 145 84 6 1 28 -32 49 -72z m1571 -828 l91
-136 -84 -68 -84 -69 -19 25 c-34 43 -134 194 -159 241 l-24 46 46 50 c25 27
56 69 68 93 l22 43 26 -45 c15 -24 67 -105 117 -180z m-4074 154 c197 -170
714 -594 1044 -858 555 -443 849 -671 2048 -1585 147 -112 267 -206 267 -209
0 -5 -870 -582 -1090 -724 l-86 -54 -245 176 c-408 293 -691 503 -1714 1271
-539 405 -1099 823 -1245 929 -146 107 -291 213 -323 237 l-58 42 98 61 c54
33 352 218 663 410 311 193 570 350 576 351 5 0 35 -21 65 -47z m3176 -710
c20 -32 67 -99 103 -149 37 -50 72 -99 77 -110 26 -50 188 -721 181 -751 -2
-6 -124 81 -273 194 -396 302 -855 655 -855 657 0 2 28 -11 62 -28 59 -29 69
-31 178 -31 110 0 118 2 180 32 36 18 79 45 95 61 36 33 209 181 213 182 1 0
19 -26 39 -57z"/>
<path d="M20265 14999 c-198 -29 -371 -99 -513 -207 -53 -40 -111 -130 -134
-207 -26 -85 -114 -303 -247 -610 l-99 -230 -89 -38 c-201 -87 -398 -179 -741
-348 -335 -165 -368 -183 -421 -236 -72 -72 -110 -151 -122 -252 -15 -121 -31
-1855 -18 -1921 21 -103 85 -199 175 -260 23 -16 122 -60 220 -98 99 -38 519
-207 934 -375 1352 -547 1281 -521 1380 -521 47 0 103 6 125 13 57 20 2129
1086 2191 1127 97 65 153 161 178 302 13 76 11 163 -15 910 -16 455 -34 858
-39 895 -19 126 -90 229 -216 311 -136 88 -715 405 -1080 592 -126 64 -230
118 -232 120 -2 1 -16 61 -32 133 -56 253 -99 400 -149 504 -43 90 -59 112
-128 177 -95 90 -165 133 -276 170 -130 44 -250 60 -431 59 -89 -1 -188 -5
-221 -10z m229 -1065 c88 -9 162 -17 162 -17 1 -1 17 -77 36 -169 24 -117 30
-169 23 -172 -42 -16 -225 -28 -344 -23 -113 5 -248 21 -259 31 -1 2 28 70 64
152 36 82 72 164 79 182 17 39 13 38 239 16z m1099 -954 c37 -19 67 -37 67
-40 0 -3 -243 -128 -540 -278 l-540 -273 -333 132 c-263 104 -666 263 -867
341 -23 9 -21 10 34 35 52 24 61 25 89 14 310 -124 499 -171 785 -191 156 -11
361 -1 517 26 266 45 607 168 681 245 15 16 31 28 34 26 3 -1 35 -18 73 -37z
m631 -747 c11 -100 29 -794 20 -802 -5 -5 -247 -131 -539 -281 -291 -150 -581
-298 -643 -331 l-112 -58 2 441 3 441 625 318 c344 175 628 318 632 319 3 0 9
-21 12 -47z m-3012 -202 c266 -103 579 -226 697 -272 l214 -84 -7 -305 c-3
-168 -6 -376 -6 -462 l0 -157 -272 111 c-150 61 -464 188 -698 283 l-425 172
-3 419 c-2 379 0 484 13 484 3 0 222 -85 487 -189z"/>
<path d="M3790 13490 c-135 -32 -245 -114 -552 -407 -88 -84 -113 -103 -138
-103 -16 0 -215 18 -442 41 -499 49 -531 49 -654 -11 -63 -31 -104 -59 -148
-104 -34 -33 -426 -491 -871 -1016 -446 -525 -832 -979 -859 -1010 -76 -86
-109 -166 -114 -275 -3 -70 0 -102 15 -145 38 -110 1072 -1893 1416 -2440 224
-357 264 -408 362 -459 22 -11 740 -228 1595 -482 1739 -516 1644 -492 1793
-445 158 49 114 3 1060 1114 474 557 881 1037 904 1068 64 84 87 151 86 259
l0 90 -157 429 -157 429 52 81 c270 420 384 628 414 759 13 56 14 88 5 197
-15 191 -61 317 -166 460 -108 148 -344 349 -567 484 -75 45 -96 63 -91 75 13
32 16 239 5 305 -57 329 -390 667 -924 942 -191 97 -289 133 -395 140 -208 16
-394 -87 -488 -269 l-37 -74 -76 52 c-185 127 -459 268 -591 304 -78 22 -212
27 -280 11z m-30 -1236 c115 -103 242 -205 380 -303 63 -46 114 -88 112 -94
-3 -15 -114 -290 -119 -296 -8 -11 -277 135 -348 189 -95 71 -230 203 -299
289 l-48 62 113 114 c62 63 115 115 118 115 4 0 44 -34 91 -76z m1473 -536
c-114 -114 -209 -206 -210 -204 -5 4 118 289 184 428 l55 116 89 -66 89 -67
-207 -207z m-2913 -198 c285 -467 615 -996 792 -1269 76 -117 138 -215 138
-218 0 -6 -1184 -1398 -1194 -1403 -14 -8 -366 587 -894 1507 l-230 401 576
680 c318 374 580 677 583 673 4 -3 107 -170 229 -371z m3554 -504 c102 -92
271 -227 379 -302 45 -32 83 -58 85 -60 3 -1 -122 -200 -134 -213 -2 -2 -31 7
-64 19 -83 31 -239 125 -335 203 -78 63 -215 200 -215 215 0 9 189 212 197
212 3 0 42 -33 87 -74z m-1979 -256 c182 -63 292 -84 435 -83 141 0 207 15
282 62 l46 29 52 -91 c138 -243 366 -506 590 -681 41 -33 79 -63 84 -67 5 -5
-296 94 -670 219 l-679 227 -125 187 c-69 103 -134 201 -144 219 -19 32 -19
32 0 24 10 -4 69 -25 129 -45z m1788 -1813 l388 -124 -566 -666 c-552 -650
-566 -666 -593 -656 -15 5 -506 151 -1091 324 -585 173 -1066 317 -1069 320
-3 3 4 15 15 28 11 12 275 322 586 689 l566 666 688 -228 c378 -126 863 -284
1076 -353z"/>
<path d="M14775 6426 c-95 -15 -124 -24 -270 -83 -727 -292 -1133 -704 -1241
-1259 -27 -136 -24 -372 6 -489 104 -411 407 -869 935 -1413 830 -855 1965
-1633 2759 -1891 211 -69 355 -94 541 -95 184 0 206 5 348 86 195 111 380 277
510 459 180 251 319 640 356 994 16 144 16 487 1 565 -58 313 -268 681 -631
1105 -138 163 -549 571 -739 735 -797 689 -1601 1163 -2155 1270 -139 27 -315
34 -420 16z m410 -876 c298 -100 745 -358 1165 -674 297 -223 511 -407 778
-670 281 -277 461 -487 603 -704 68 -105 145 -249 137 -258 -9 -8 -183 53
-298 105 -783 349 -1975 1346 -2423 2026 -53 80 -117 195 -117 210 0 12 42 2
155 -35z m-896 -357 c82 -174 277 -455 485 -699 144 -169 549 -573 751 -750
809 -706 1616 -1195 2178 -1319 91 -20 91 -16 19 -138 -81 -136 -207 -257
-268 -257 -51 0 -226 47 -345 93 -917 355 -2268 1437 -2826 2264 -87 129 -153
252 -184 342 -35 101 -22 238 34 347 26 52 112 164 126 164 4 0 17 -21 30 -47z"/>
</g>
</svg>
