<?xml version="1.0" standalone="no"?>
<!-- Generator: Adobe Fireworks 10, Export SVG Extension by Aaron Beall (http://fireworks.abeall.com) . Version: 0.6.1  -->
<!DOCTYPE svg PUBLIC "-//W3C//DTD SVG 1.1//EN" "http://www.w3.org/Graphics/SVG/1.1/DTD/svg11.dtd">
<svg id="uni-basel-logo-Seite%201" viewBox="0 0 236 75" style="background-color:#ffffff00" version="1.1"
	xmlns="http://www.w3.org/2000/svg" xmlns:xlink="http://www.w3.org/1999/xlink" xml:space="preserve"
	x="0px" y="0px" width="236px" height="75px"
>
	<g id="Ebene_1_1">
		<g>
			<path d="M 159.752 51.9971 L 156.2656 51.9971 L 156.2656 74.5898 L 159.752 74.5898 L 159.752 51.9971 L 159.752 51.9971 ZM 143.0049 65.2139 C 143.0664 64.7734 143.124 64.333 143.2695 63.8926 C 143.4453 63.3379 144.3262 61.1689 146.582 61.1406 C 146.9043 61.1406 147.5791 61.1973 148.3105 61.666 C 149.6309 62.4863 149.834 63.7471 149.9238 65.1836 L 143.0049 65.2139 ZM 153.5273 67.1484 C 153.498 66.5605 153.585 64.4502 152.7041 62.6348 C 151.123 59.4395 147.7227 59.1484 146.6699 59.1484 C 145.7012 59.1484 143.0039 59.3818 141.0996 61.6406 C 139.3428 63.7188 139.2246 66.3848 139.2246 67.2363 C 139.2246 70.8701 141.0996 72.7734 142.3018 73.5938 C 143.1221 74.1777 144.7607 74.9707 147.2529 75 C 149.1875 75 150.624 74.5313 151.2969 74.2979 C 152.0586 74.0039 152.7021 73.6523 152.9668 73.5049 L 152.9668 70.5469 C 152.2939 71.1895 152.0586 71.4277 151.6484 71.7188 C 150.1523 72.832 148.7754 72.9473 148.0137 72.9473 C 146.7832 72.9473 145.376 72.5684 144.498 71.6895 C 143.3848 70.6348 143.0625 69.0234 142.9746 68.6113 C 142.8848 68.085 142.8848 67.7051 142.8555 67.1484 L 153.5273 67.1484 ZM 127.5645 70.8105 L 127.5361 74.1504 C 128.2979 74.4434 129.5273 74.9707 131.4932 75.001 C 133.749 75.001 134.9219 74.2988 135.7119 73.624 C 137.2061 72.3047 137.3242 70.7227 137.3242 69.9609 C 137.3242 69.4336 137.2061 67.9111 135.916 66.8535 C 135.0684 66.1543 133.8359 65.7715 132.8105 65.3613 C 131.9023 65.0088 131.4336 64.7471 131.082 64.4229 C 130.7305 64.1299 130.5234 63.6621 130.5234 63.1631 C 130.5234 62.9277 130.583 62.4316 130.9629 61.9609 C 131.6387 61.1709 132.9561 61.1113 133.1611 61.1113 C 134.1875 61.1113 135.0361 61.5234 135.8271 62.1367 C 136.0918 62.3125 136.3281 62.4863 136.5605 62.6934 L 136.5605 59.7344 C 135.3906 59.3516 134.5098 59.1201 133.2793 59.1201 C 132.46 59.1201 131.6953 59.2344 131.4043 59.2949 C 130.4658 59.499 129.8496 59.8203 129.5273 60.0293 C 128.2412 60.8779 127.4199 62.4004 127.4199 63.9258 C 127.4199 64.3613 127.5068 65.6523 128.416 66.6201 C 129.2949 67.5586 130.9063 68.0547 131.1387 68.1445 C 132.3711 68.5547 134.2168 69.0811 134.2168 70.7207 C 134.2168 70.9277 134.1875 71.3652 133.8662 71.8066 C 133.543 72.2451 132.9297 72.8613 131.6387 72.8613 C 129.7637 72.8613 128.415 71.7188 128.0039 71.3379 L 127.5645 70.8105 ZM 121.0801 72.041 C 119.6113 72.54 119.0293 72.627 118.207 72.627 C 117.855 72.6563 116.917 72.5957 116.0088 72.1895 C 113.958 71.251 113.6938 69.0801 113.6069 68.4063 C 113.4902 67.7051 113.4902 67.1152 113.4902 66.8242 C 113.4902 66.3262 113.4902 63.1016 115.7471 61.6387 C 116.625 61.0801 117.4761 60.9932 117.855 60.9932 C 119.7881 60.9932 120.6094 62.3398 120.8438 62.9863 C 121.0801 63.5977 121.0801 64.3047 121.0801 64.5088 L 121.0801 72.041 ZM 124.5088 59.3516 L 122.6328 60.4639 C 120.0527 59.4131 119.2041 59.1465 117.6802 59.1465 C 114.7788 59.1465 112.0239 60.6426 110.7349 63.248 C 109.9429 64.8633 109.8862 66.5313 109.8862 67.1172 C 109.8862 69.1113 110.5601 70.5469 110.9092 71.2188 C 111.4102 72.0703 111.9658 72.627 112.229 72.8906 C 114.1621 74.5625 116.5669 74.5332 117.3569 74.5625 C 117.8848 74.5898 118.3818 74.5898 118.8809 74.5898 L 124.5078 74.5898 L 124.5078 59.3516 L 124.5088 59.3516 ZM 97.127 56.335 C 97.5669 56.0977 98.2979 55.7471 99.5 55.7471 C 101.1128 55.7471 102.811 56.4531 103.6011 57.916 C 103.7212 58.1211 103.9839 58.6191 103.9839 59.2939 C 103.9839 60.4082 103.165 61.2861 102.9878 61.4902 C 102.2261 62.3398 101.1709 63.1611 101.1709 64.3047 C 101.1709 64.6563 101.2578 64.9766 101.4341 65.3008 C 101.5508 65.4766 101.7861 65.8008 102.166 66.1797 C 103.104 67.0605 104.334 67.7891 104.334 69.2285 C 104.334 70.0762 104.0132 70.8682 103.4248 71.4805 C 102.5479 72.4502 101.2871 72.7432 100.0278 72.7432 C 98.5898 72.7432 97.7422 72.4189 97.1538 72.2451 L 97.127 56.335 ZM 93.5518 74.5898 L 100.0288 74.5898 C 101.4941 74.5625 102.1079 74.4727 102.8418 74.2979 C 105.5068 73.6523 106.8252 71.8652 107.2651 70.9277 C 107.7051 69.9883 107.7339 69.0811 107.7339 68.7285 C 107.7339 66.8252 106.915 65.8281 106.3848 65.2715 C 106.123 65.0391 105.8579 64.8027 105.5928 64.5391 L 104.4521 63.4844 C 105.6538 62.1934 106.9141 60.877 106.9141 59.002 C 106.9141 58.4414 106.7671 57.3008 105.8291 56.1289 C 104.187 54.0195 101.9609 53.9316 101.0229 53.9004 C 100.6118 53.8721 100.1699 53.8721 99.7622 53.9004 L 93.5498 53.9004 L 93.5498 74.5898 L 93.5518 74.5898 Z" fill="#000000"/>
			<path d="M 235.0938 29.7749 L 232.457 29.7749 L 232.457 24.6201 C 232.457 24.2671 232.4824 23.7109 231.9863 23.7109 C 231.8691 23.7109 231.665 23.7681 231.5771 23.8281 C 231.4316 23.9448 231.4004 24.1802 231.3721 24.561 C 231.168 25.9058 230.7861 27.229 229.9072 28.252 C 228.7051 29.7192 227.416 29.7471 226.6523 29.8062 L 226.6523 32.1201 L 228.9395 32.1201 L 228.9395 44.8379 L 232.457 44.8379 L 232.457 32.1211 L 235.0938 32.1211 L 235.0938 29.7749 L 235.0938 29.7749 ZM 221.2148 42.2871 C 219.751 42.7891 219.1641 42.875 218.3438 42.875 C 217.9932 42.9043 217.0566 42.8438 216.1465 42.4336 C 214.0957 41.4971 213.833 39.3271 213.7441 38.6543 C 213.6279 37.9541 213.6279 37.3647 213.6279 37.0718 C 213.6279 36.5752 213.6279 33.3501 215.8838 31.8862 C 216.7637 31.3291 217.6133 31.2407 217.9941 31.2407 C 219.9268 31.2407 220.7471 32.5879 220.9824 33.2319 C 221.2148 33.8462 221.2148 34.5522 221.2148 34.7559 L 221.2148 42.2871 ZM 224.6445 29.6011 L 222.7695 30.7139 C 220.1914 29.6592 219.3398 29.396 217.8184 29.396 C 214.916 29.396 212.1621 30.8892 210.873 33.4971 C 210.082 35.1089 210.0234 36.7798 210.0234 37.3662 C 210.0234 39.3613 210.6953 40.7949 211.0488 41.4707 C 211.5459 42.3203 212.1035 42.875 212.3682 43.1406 C 214.3018 44.8105 216.7031 44.7793 217.4941 44.8105 C 218.0215 44.8389 218.5195 44.8389 219.0176 44.8389 L 224.6445 44.8389 L 224.6445 29.6011 ZM 216.8496 25.3218 C 216.8496 24.1792 215.9434 23.2119 214.7695 23.2119 C 214.0371 23.2119 213.3633 23.5908 213.0117 24.207 C 212.7207 24.6763 212.6895 25.0879 212.6895 25.292 C 212.6895 26.4351 213.6279 27.4312 214.7695 27.4312 C 215.1221 27.4312 216.001 27.313 216.5273 26.4351 C 216.8184 25.9668 216.8496 25.5259 216.8496 25.3218 L 216.8496 25.3218 ZM 223.3838 25.3818 C 223.4131 24.208 222.5059 23.2129 221.3613 23.2129 C 220.9551 23.1851 219.8691 23.3882 219.4297 24.562 C 219.3711 24.71 219.2822 24.9429 219.2822 25.3228 C 219.2549 26.4648 220.1914 27.4331 221.335 27.4331 C 222.4746 27.4321 223.3535 26.4951 223.3838 25.3818 L 223.3838 25.3818 ZM 209.1689 29.7749 L 206.5322 29.7749 L 206.5322 24.6201 C 206.5322 24.2671 206.5625 23.7109 206.0625 23.7109 C 205.9434 23.7109 205.7412 23.7681 205.6523 23.8281 C 205.5049 23.9448 205.4766 24.1802 205.4482 24.561 C 205.2432 25.9058 204.8613 27.229 203.9844 28.252 C 202.7822 29.7192 201.4922 29.7471 200.7305 29.8062 L 200.7305 32.1201 L 203.0156 32.1201 L 203.0156 44.8379 L 206.5332 44.8379 L 206.5332 32.1211 L 209.1699 32.1211 L 209.1699 29.7749 L 209.1689 29.7749 ZM 194.3125 26.0259 C 194.3125 27.168 195.25 28.0762 196.3633 28.0762 C 197.5059 28.0762 198.4434 27.168 198.4434 26.0259 C 198.4434 24.8818 197.5361 23.9448 196.3945 23.9448 C 195.25 23.9448 194.3125 24.8818 194.3125 26.0259 L 194.3125 26.0259 ZM 198.1221 29.7749 L 194.6367 29.7749 L 194.6367 44.8379 L 198.1221 44.8379 L 198.1221 29.7749 ZM 182.2305 41.0566 L 182.2012 44.3984 C 182.9629 44.6914 184.1934 45.2188 186.1592 45.2461 C 188.4141 45.2461 189.5869 44.5459 190.3779 43.873 C 191.8701 42.5508 191.9883 40.9707 191.9883 40.207 C 191.9883 39.6797 191.8701 38.1563 190.582 37.1001 C 189.7305 36.3989 188.502 36.0171 187.4746 35.6069 C 186.5664 35.2539 186.0996 34.9922 185.7471 34.6689 C 185.3965 34.377 185.1895 33.9067 185.1895 33.4058 C 185.1895 33.1729 185.25 32.6772 185.6299 32.209 C 186.3027 31.417 187.623 31.355 187.8271 31.355 C 188.8535 31.355 189.7012 31.7681 190.4941 32.3818 C 190.7578 32.5571 190.9922 32.7329 191.2266 32.937 L 191.2266 29.9771 C 190.0566 29.5981 189.1748 29.3638 187.9453 29.3638 C 187.125 29.3638 186.3613 29.481 186.0703 29.541 C 185.1328 29.7451 184.5156 30.0649 184.1934 30.272 C 182.9063 31.123 182.084 32.646 182.084 34.1689 C 182.084 34.6069 182.1719 35.896 183.0801 36.8662 C 183.957 37.8042 185.5703 38.2998 185.8047 38.3887 C 187.0361 38.7988 188.8828 39.3242 188.8828 40.9668 C 188.8828 41.1699 188.8535 41.6113 188.5313 42.0508 C 188.209 42.4922 187.5938 43.1055 186.3027 43.1055 C 184.4277 43.1055 183.0801 41.9619 182.6699 41.584 L 182.2305 41.0566 ZM 170.6504 29.7749 L 170.6504 44.8379 L 174.1387 44.8379 L 174.1387 32.0342 C 174.6934 31.77 175.3389 31.5049 176.6582 31.5933 C 176.54 31.77 176.3359 32.002 176.3359 32.5029 C 176.3359 32.9399 176.4531 33.2339 176.5117 33.3799 C 176.833 34.1128 177.5391 34.5259 178.3574 34.5259 C 179.6758 34.5259 180.4668 33.5562 180.4668 32.2949 C 180.4668 31.5942 180.1748 31.126 180.0586 30.9199 C 179.3535 29.8662 178.0068 29.835 176.8613 29.7759 L 170.6504 29.7759 L 170.6504 29.7749 ZM 157.375 35.4629 C 157.4355 35.022 157.4951 34.582 157.6406 34.1411 C 157.8164 33.585 158.6953 31.4189 160.9512 31.3882 C 161.2734 31.3882 161.9502 31.4468 162.6797 31.915 C 164 32.7349 164.2041 33.9971 164.293 35.4302 L 157.375 35.4629 ZM 167.8965 37.396 C 167.8682 36.8081 167.9551 34.6987 167.0771 32.8828 C 165.4912 29.688 162.0938 29.395 161.0381 29.395 C 160.0723 29.395 157.373 29.6299 155.4707 31.8872 C 153.7129 33.9683 153.5957 36.6328 153.5957 37.4849 C 153.5957 41.1172 155.4707 43.0215 156.6719 43.8398 C 157.4932 44.4277 159.1338 45.2188 161.625 45.2451 C 163.5586 45.2451 164.9941 44.7773 165.6689 44.5449 C 166.4297 44.2529 167.0771 43.9004 167.3369 43.7529 L 167.3369 40.7939 C 166.6641 41.4375 166.4297 41.6719 166.0195 41.9648 C 164.5254 43.0791 163.1465 43.1953 162.3857 43.1953 C 161.1563 43.1953 159.749 42.8164 158.8682 41.9355 C 157.7559 40.8789 157.4336 39.2695 157.3438 38.8574 C 157.2588 38.332 157.2588 37.9531 157.2266 37.395 L 167.8965 37.395 L 167.8965 37.396 ZM 153.042 29.7749 L 149.9072 29.7749 L 145.5977 41.791 C 145.3926 42.4336 145.3652 42.583 144.8965 42.583 L 140.3535 29.7759 L 136.5732 29.7759 L 142.1406 44.8389 L 143.9277 44.8389 C 145.0107 44.8105 145.8633 44.7793 146.8008 44.1934 C 148.0322 43.4023 148.6182 41.9082 149.0879 40.6191 L 153.042 29.7749 ZM 130.8398 26.0259 C 130.8398 27.168 131.7773 28.0762 132.8906 28.0762 C 134.0332 28.0762 134.9707 27.168 134.9707 26.0259 C 134.9707 24.8818 134.0625 23.9448 132.9199 23.9448 C 131.7773 23.9448 130.8398 24.8818 130.8398 26.0259 L 130.8398 26.0259 ZM 134.6484 29.7749 L 131.1631 29.7749 L 131.1631 44.8379 L 134.6484 44.8379 L 134.6484 29.7749 L 134.6484 29.7749 ZM 114.4731 29.7749 L 114.4731 44.8379 L 117.9609 44.8379 L 117.9609 32.3838 C 118.5459 32.0908 119.1895 31.7378 120.5684 31.7378 C 122.8262 31.7378 123.7041 32.7651 124.0254 33.7612 C 124.1719 34.228 124.2324 34.6978 124.2617 35.7222 L 124.2617 44.8379 L 127.7178 44.8379 L 127.7178 35.7222 C 127.6016 34.0229 127.4844 32.5298 126.1074 31.356 C 124.4355 29.9219 122.2383 29.7739 117.96 29.7739 L 114.4731 29.7739 L 114.4731 29.7749 ZM 110.8701 24.1489 L 107.2939 24.1489 L 107.2939 35.9312 C 107.3242 37.7451 107.2939 38.6816 107.062 39.5625 C 106.7959 40.4727 106.3271 41.0566 106.0918 41.3496 C 105.624 41.8789 104.9209 42.5234 103.3672 42.7891 C 102.752 42.9043 102.2539 42.9043 102.0181 42.9043 C 98.9419 42.9043 97.6831 41.2637 97.2119 40.0625 C 96.8618 39.124 96.7749 38.0117 96.8042 35.9321 L 96.8042 24.1489 L 93.228 24.1489 L 93.228 35.167 C 93.1992 37.6001 93.2871 38.9189 93.6372 40.0039 C 94.019 41.293 94.8389 42.4951 95.9248 43.3125 C 96.8618 44.0762 98.9419 45.2188 102.0181 45.2188 C 104.8032 45.2188 106.7949 44.2529 107.7051 43.6953 C 109.8418 42.2861 110.458 40.2363 110.6641 39.2988 C 110.8682 38.3027 110.897 37.2769 110.8682 35.167 L 110.8682 24.1489 L 110.8701 24.1489 Z" fill="#000000"/>
			<path d="M 40.145 63.1211 C 39.4702 62.4639 38.457 63.457 39.1309 64.1113 L 43.9912 68.8633 L 45.0039 67.8721 C 45.0039 67.8721 40.7251 63.6875 40.145 63.1211 L 40.145 63.1211 ZM 32.2939 68.8652 L 31.2798 67.874 L 36.1392 63.1221 C 36.814 62.4668 37.8271 63.459 37.1528 64.1162 C 36.5771 64.6797 32.2939 68.8652 32.2939 68.8652 L 32.2939 68.8652 ZM 11.728 35.3442 C 12.397 36.002 11.3848 36.9932 10.7119 36.3359 L 5.853 31.582 L 6.8691 30.5918 C 6.8691 30.5918 11.147 34.7769 11.728 35.3442 L 11.728 35.3442 ZM 5.8569 43.0234 L 6.8711 44.0156 L 11.73 39.2637 C 12.4028 38.6055 11.3872 37.6128 10.7158 38.2695 C 10.1362 38.8369 5.8569 43.0234 5.8569 43.0234 L 5.8569 43.0234 ZM 36.145 11.4629 C 36.8188 12.1191 37.832 11.1279 37.1611 10.4692 L 32.2998 5.7202 L 31.2842 6.7119 C 31.2852 6.7109 35.5669 10.8979 36.145 11.4629 L 36.145 11.4629 ZM 43.9839 5.7202 L 45 6.7109 L 40.1411 11.4629 C 39.4668 12.1191 38.4541 11.1279 39.125 10.4692 C 39.7051 9.9058 43.9839 5.7202 43.9839 5.7202 L 43.9839 5.7202 ZM 64.5542 35.335 C 63.8818 35.9922 64.895 36.9839 65.5688 36.3237 L 70.4292 31.5737 L 69.4141 30.583 C 69.4131 30.583 65.1318 34.769 64.5542 35.335 L 64.5542 35.335 ZM 70.4321 43.0098 L 69.4189 43.999 L 64.5591 39.249 C 63.8872 38.5908 64.8999 37.6001 65.5732 38.2568 C 66.1519 38.8203 70.4321 43.0098 70.4321 43.0098 L 70.4321 43.0098 ZM 23.9912 22.4761 C 24.6641 23.1338 23.6509 24.125 22.978 23.4668 L 5.856 6.7251 L 6.8691 5.7339 C 6.8691 5.7329 23.4131 21.9102 23.9912 22.4761 L 23.9912 22.4761 ZM 69.4189 5.7271 L 70.4321 6.7212 L 53.3101 23.4639 C 52.6372 24.1211 51.624 23.1279 52.2939 22.4702 C 52.874 21.9058 69.4189 5.7271 69.4189 5.7271 L 69.4189 5.7271 ZM 22.978 51.1289 C 23.6479 50.4727 24.6641 51.4629 23.9912 52.1211 L 6.8691 68.8633 L 5.853 67.8721 C 5.853 67.8721 22.397 51.6934 22.978 51.1289 L 22.978 51.1289 ZM 70.4321 67.8652 L 69.4189 68.8594 L 52.2939 52.1172 C 51.624 51.459 52.6362 50.4658 53.3101 51.124 C 53.8882 51.6875 70.4321 67.8652 70.4321 67.8652 L 70.4321 67.8652 ZM 23.9048 47.2412 C 24.5752 47.9004 23.562 48.8887 22.8892 48.2324 C 22.8892 48.2324 14.2891 39.8242 13.6172 39.166 C 12.9438 38.5088 13.959 37.5171 14.6299 38.1748 C 14.6299 38.1748 23.3242 46.6777 23.9048 47.2412 L 23.9048 47.2412 ZM 40.1431 13.396 C 39.4692 12.7412 38.4561 13.73 39.127 14.3901 C 39.7998 15.0459 48.3989 23.4531 48.3989 23.4531 C 49.0718 24.1128 50.0859 23.1201 49.415 22.4629 C 48.834 21.896 40.1431 13.396 40.1431 13.396 L 40.1431 13.396 ZM 49.415 47.3262 C 50.0859 47.9824 49.0732 48.9746 48.3989 48.3184 C 48.3989 48.3184 39.7988 39.9092 39.127 39.251 C 38.4561 38.5938 39.4692 37.603 40.1431 38.2598 C 40.1431 38.2598 48.834 46.7617 49.415 47.3262 L 49.415 47.3262 ZM 62.5859 39.251 C 63.2578 38.5938 62.2432 37.603 61.5698 38.2568 C 60.8989 38.915 52.2969 47.3262 52.2969 47.3262 C 51.6279 47.9824 52.6401 48.9746 53.313 48.3184 C 53.8931 47.751 62.5859 39.251 62.5859 39.251 L 62.5859 39.251 ZM 27.8818 23.4531 C 27.207 24.1128 26.1938 23.1201 26.8662 22.4629 C 26.8662 22.4629 35.4668 14.0532 36.1392 13.396 C 36.811 12.7378 37.8271 13.728 37.1528 14.3872 C 37.1538 14.3872 28.458 22.8872 27.8818 23.4531 L 27.8818 23.4531 ZM 37.1538 39.251 C 37.8271 38.5938 36.812 37.603 36.1401 38.2568 C 35.4678 38.915 26.8672 47.3262 26.8672 47.3262 C 26.1948 47.9824 27.208 48.9746 27.8828 48.3184 C 28.458 47.751 37.1538 39.251 37.1538 39.251 L 37.1538 39.251 ZM 23.998 27.2671 C 24.668 26.6099 23.6548 25.6172 22.9849 26.2729 C 22.9849 26.2729 14.3818 34.6831 13.71 35.3398 C 13.0381 35.999 14.0532 36.9888 14.7251 36.332 C 14.7251 36.333 23.417 27.832 23.998 27.2671 L 23.998 27.2671 ZM 40.1431 61.1953 C 39.4692 61.8516 38.4561 60.8594 39.1299 60.2012 C 39.7998 59.5459 48.4019 51.1348 48.4019 51.1348 C 49.0732 50.4785 50.0879 51.4707 49.416 52.126 C 48.8369 52.6953 40.1431 61.1953 40.1431 61.1953 L 40.1431 61.1953 ZM 49.415 27.2671 C 50.0869 26.6099 49.0732 25.6172 48.4009 26.2729 C 48.4009 26.2729 39.7988 34.6831 39.1289 35.3398 C 38.4561 35.999 39.4678 36.9888 40.1421 36.332 C 40.1431 36.333 48.8369 27.832 49.415 27.2671 L 49.415 27.2671 ZM 62.5859 35.3442 C 63.2578 36.002 62.2432 36.9932 61.5698 36.3359 C 60.8989 35.6763 52.2969 27.2671 52.2969 27.2671 C 51.6279 26.6099 52.6401 25.6191 53.313 26.2759 C 53.8931 26.8433 62.5859 35.3442 62.5859 35.3442 L 62.5859 35.3442 ZM 27.8818 51.1387 C 27.207 50.4805 26.1938 51.4727 26.8662 52.1299 C 26.8662 52.1299 35.4668 60.5381 36.1392 61.1953 C 36.811 61.8516 37.8271 60.8633 37.1528 60.2041 C 37.1538 60.2041 28.458 51.7041 27.8818 51.1387 L 27.8818 51.1387 ZM 37.1538 35.3442 C 37.8271 36.002 36.812 36.9932 36.1401 36.3359 C 35.4678 35.6763 26.8672 27.2671 26.8672 27.2671 C 26.1948 26.6099 27.208 25.6191 27.8828 26.2759 C 28.458 26.8433 37.1538 35.3442 37.1538 35.3442 L 37.1538 35.3442 ZM 0 49.0254 L 0 50.4277 L 22.6802 50.4277 C 23.6309 50.4277 23.6309 49.0254 22.6802 49.0254 L 0 49.0254 ZM 76.2852 49.0254 L 76.2852 50.4277 L 53.604 50.4277 C 52.6528 50.4277 52.6528 49.0254 53.604 49.0254 L 76.2852 49.0254 ZM 0 24.1621 L 0 25.564 L 22.6802 25.564 C 23.6309 25.564 23.6309 24.1621 22.6802 24.1621 L 0 24.1621 ZM 76.2852 24.1621 L 76.2852 25.564 L 53.604 25.564 C 52.6528 25.564 52.6528 24.1621 53.604 24.1621 L 76.2852 24.1621 ZM 28.1738 49.0254 C 27.2241 49.0254 27.2241 50.4277 28.1738 50.4277 L 48.1079 50.4277 C 49.0591 50.4277 49.0591 49.0254 48.1079 49.0254 L 28.1738 49.0254 ZM 48.1079 24.1621 C 49.0591 24.1621 49.0591 25.564 48.1079 25.564 L 28.1738 25.564 C 27.2241 25.564 27.2241 24.1621 28.1738 24.1621 L 48.1079 24.1621 ZM 50.1392 74.5908 L 51.5718 74.5908 L 51.5718 52.415 C 51.5718 51.4824 50.1392 51.4824 50.1392 52.415 L 50.1392 74.5908 ZM 50.1392 0 L 51.5718 0 L 51.5718 22.1792 C 51.5718 23.1069 50.1392 23.1069 50.1392 22.1792 L 50.1392 0 ZM 50.1392 47.0391 C 50.1392 47.9707 51.5718 47.9707 51.5718 47.0391 L 51.5718 27.5513 C 51.5718 26.6201 50.1392 26.6201 50.1392 27.5513 L 50.1392 47.0391 ZM 24.7109 52.415 C 24.7109 51.4824 26.144 51.4824 26.144 52.415 L 26.144 74.5908 L 24.7109 74.5908 L 24.7109 52.415 ZM 24.7109 22.1792 C 24.7109 23.1069 26.144 23.1069 26.144 22.1792 L 26.144 0 L 24.7109 0 L 24.7109 22.1792 ZM 24.7109 27.5513 C 24.7109 26.623 26.144 26.623 26.144 27.5513 L 26.144 47.041 C 26.144 47.9707 24.7109 47.9707 24.7109 47.041 L 24.7109 27.5513 Z" fill="#000000"/>
		</g>
	</g>
</svg>