<?xml version="1.0" standalone="no"?>
<!DOCTYPE svg PUBLIC "-//W3C//DTD SVG 20010904//EN"
 "http://www.w3.org/TR/2001/REC-SVG-20010904/DTD/svg10.dtd">
<svg version="1.0" xmlns="http://www.w3.org/2000/svg"
 width="1024.000000pt" height="1024.000000pt" viewBox="0 0 1024.000000 1024.000000"
 preserveAspectRatio="xMidYMid meet">

<g transform="translate(0.000000,1024.000000) scale(0.100000,-0.100000)"
fill="#000000" stroke="none">
<path d="M4920 9689 c-218 -23 -453 -93 -609 -182 -44 -24 -106 -73 -150 -117
-68 -67 -79 -82 -98 -145 -20 -64 -21 -89 -20 -310 2 -222 4 -243 23 -282 l21
-43 -136 -71 c-75 -40 -190 -104 -256 -142 -66 -39 -169 -98 -229 -131 -139
-78 -219 -151 -271 -247 l-40 -74 -3 -132 -4 -133 -24 0 c-37 0 -41 -28 -11
-82 15 -26 27 -49 27 -51 0 -1 -44 -3 -98 -4 -267 -4 -597 -144 -704 -298 -49
-71 -56 -125 -44 -355 l11 -205 33 -46 c104 -145 404 -265 713 -286 l99 -6 0
-239 0 -238 -25 6 c-39 10 -40 -17 -6 -83 l31 -58 -108 -6 c-244 -15 -465 -94
-619 -221 -82 -68 -97 -89 -123 -162 -16 -46 -17 -78 -13 -252 6 -227 12 -251
85 -331 l44 -48 -1 -215 0 -215 -27 -3 c-34 -4 -36 -26 -8 -82 11 -22 20 -41
20 -43 0 -2 -60 -7 -134 -10 -127 -5 -142 -8 -283 -55 -231 -77 -354 -163
-401 -280 -21 -51 -21 -64 -15 -270 7 -244 8 -249 83 -321 124 -121 386 -214
663 -236 l87 -7 3 -171 c1 -95 2 -306 2 -469 l0 -298 -43 0 c-27 0 -45 -5 -48
-14 -6 -15 19 -68 66 -143 38 -59 42 -120 9 -125 -39 -6 -46 -32 -21 -83 12
-25 22 -50 22 -55 0 -6 -33 -10 -75 -10 -244 0 -596 -137 -699 -273 -48 -63
-56 -104 -56 -304 0 -239 5 -260 86 -340 96 -94 257 -165 489 -215 38 -8 141
-12 280 -13 196 0 228 2 295 22 41 11 111 31 155 43 174 47 340 153 385 244
20 42 21 57 18 258 -3 203 -4 215 -28 263 -37 77 -107 138 -223 195 -161 79
-350 125 -482 118 -39 -2 -65 1 -65 7 0 6 9 30 20 54 29 63 27 81 -10 81 -29
0 -30 2 -30 45 0 33 11 67 45 132 25 48 43 93 40 100 -2 7 -20 13 -40 13 l-35
0 0 476 c0 284 4 473 9 470 16 -10 231 23 356 54 70 18 155 48 205 72 47 23
89 44 93 46 4 2 15 -16 25 -40 25 -65 118 -252 164 -331 135 -231 395 -503
698 -729 298 -223 870 -517 1040 -535 l60 -6 0 -58 0 -59 -47 0 c-155 -1 -405
-59 -541 -126 -109 -53 -164 -104 -198 -180 l-24 -54 -264 0 c-248 0 -265 1
-270 18 -4 11 -18 29 -31 42 l-25 24 -33 -32 c-47 -45 -74 -52 -210 -53 -135
-1 -178 -8 -185 -26 -3 -10 39 -13 187 -13 l190 0 28 -35 c15 -19 31 -35 35
-35 4 0 18 17 31 37 l24 38 262 -3 261 -3 0 -102 c0 -96 2 -106 29 -148 41
-65 149 -140 262 -182 201 -75 283 -92 499 -102 385 -19 764 107 864 286 23
42 26 58 26 149 l0 102 541 -4 541 -3 14 -26 c20 -39 88 -86 145 -99 65 -16
121 -6 194 33 47 25 65 41 83 77 59 118 -5 255 -140 295 -78 23 -118 19 -189
-18 -83 -42 -120 -94 -127 -173 l-5 -57 -201 6 c-110 4 -347 7 -526 7 l-325 0
-18 51 c-36 99 -125 163 -337 242 -103 38 -270 67 -390 67 l-70 0 0 50 c0 49
0 49 38 55 123 20 276 93 691 329 288 164 440 267 598 402 123 105 300 283
352 354 41 55 201 313 201 323 0 2 25 57 55 121 l55 117 28 -19 c95 -68 404
-152 560 -152 l52 0 0 -503 0 -502 -40 0 c-64 0 -65 -12 -10 -105 l50 -85 2
-157 c0 -87 1 -163 2 -170 1 -9 -14 -11 -46 -9 -44 2 -48 1 -48 -21 0 -13 16
-47 36 -77 20 -29 44 -72 55 -94 15 -33 19 -37 19 -19 0 13 8 36 19 50 31 44
71 130 71 152 0 16 -6 20 -35 20 l-35 0 0 154 c0 163 5 190 52 269 15 26 31
59 34 72 6 24 4 25 -41 25 l-47 0 6 31 c3 17 6 242 6 500 l0 469 64 0 c77 0
291 41 396 76 183 61 322 153 361 239 16 34 19 67 19 216 l0 177 46 7 c25 3
47 5 47 3 29 -59 51 -87 83 -105 88 -51 222 -7 260 84 22 51 18 124 -9 164
-52 78 -175 105 -249 54 -35 -24 -78 -94 -78 -129 0 -33 -20 -56 -48 -56 -31
0 -52 16 -52 40 0 8 -13 42 -28 75 -59 124 -224 231 -438 285 -135 33 -290 54
-341 44 l-34 -6 16 38 c40 94 40 102 -1 108 -18 3 -19 16 -22 208 l-2 205 45
37 c25 21 57 58 72 84 28 47 28 47 31 270 l3 224 -27 56 c-29 59 -98 133 -173
184 -106 74 -333 146 -531 169 -69 8 -110 18 -110 25 0 6 12 29 26 50 29 43
24 67 -17 72 l-24 3 3 234 3 235 47 0 c101 1 351 46 447 82 150 55 274 144
320 228 29 55 29 55 33 255 4 188 3 204 -19 259 -36 98 -143 196 -280 259
-151 69 -311 107 -462 110 l-85 2 24 47 c31 61 30 76 -3 80 l-28 3 -6 121 c-5
112 -8 127 -41 197 -62 130 -153 210 -361 320 -68 36 -176 97 -238 135 -63 38
-156 90 -206 116 -51 25 -93 48 -93 51 0 2 11 20 24 39 22 33 23 43 28 273 7
332 -8 381 -164 507 -117 94 -262 158 -490 217 -173 44 -454 60 -668 38z m467
-54 c492 -64 808 -263 806 -505 0 -85 -21 -129 -98 -206 -222 -224 -727 -348
-1171 -289 -229 30 -360 67 -530 151 -196 96 -293 210 -302 356 -4 60 -1 72
29 128 36 68 98 125 208 190 149 89 313 139 601 183 68 11 351 5 457 -8z
m-1062 -877 c187 -97 335 -141 578 -173 457 -59 973 60 1204 280 l73 70 0 -99
c0 -54 -5 -116 -12 -138 -24 -81 -129 -170 -297 -253 -90 -45 -147 -64 -346
-115 -297 -76 -779 -38 -1045 83 -30 13 -75 33 -100 44 -123 54 -250 168 -270
244 -6 22 -10 84 -9 138 l2 97 66 -65 c47 -47 92 -80 156 -113z m-148 -243
c79 -65 210 -135 311 -165 39 -12 72 -26 72 -30 0 -34 -439 -455 -730 -700
-41 -35 -96 -83 -122 -108 l-47 -45 -58 22 c-79 30 -174 49 -288 57 -52 4 -95
11 -95 16 0 5 10 26 22 47 19 34 20 41 8 56 -8 10 -23 15 -37 12 -23 -4 -23
-2 -23 77 0 160 23 240 95 325 54 66 66 73 435 286 107 62 378 205 387 205 2
0 34 -25 70 -55z m2086 9 c50 -26 160 -86 242 -134 83 -47 191 -108 240 -134
179 -96 261 -169 309 -277 19 -44 25 -77 30 -176 l6 -123 -35 0 c-30 0 -35 -3
-35 -22 0 -13 11 -41 25 -63 13 -22 24 -42 25 -45 0 -3 -39 -6 -86 -7 -58 -1
-125 -12 -210 -33 -108 -28 -127 -30 -137 -18 -16 19 -164 142 -292 241 -60
47 -188 169 -323 308 -207 215 -263 282 -247 297 3 4 33 16 65 28 86 31 206
102 264 156 28 26 54 47 59 48 4 0 49 -21 100 -46z m-543 -213 c0 -16 67 -91
258 -290 163 -169 266 -263 549 -499 35 -29 63 -56 63 -60 0 -4 -43 -29 -96
-57 -114 -59 -196 -135 -231 -212 -23 -50 -24 -61 -23 -258 1 -240 6 -261 97
-351 121 -121 458 -234 699 -234 l54 0 0 -235 0 -235 -30 0 c-37 0 -38 -11 -6
-81 14 -29 23 -56 21 -59 -2 -4 -55 -10 -117 -13 -236 -13 -476 -107 -610
-238 -107 -105 -112 -122 -110 -369 3 -235 11 -273 72 -343 68 -77 206 -150
363 -192 37 -10 70 -21 72 -25 8 -13 -35 -179 -75 -290 -97 -262 -389 -804
-537 -991 -25 -33 -43 -62 -40 -66 12 -12 88 82 182 222 125 190 178 281 275
475 107 217 138 293 196 485 26 88 48 161 49 162 1 1 19 -2 40 -8 21 -6 86
-14 144 -17 l106 -7 5 -288 5 -288 -38 -37 c-21 -20 -50 -62 -65 -92 -26 -54
-26 -55 -24 -255 2 -110 6 -211 9 -225 10 -39 46 -91 94 -135 24 -22 42 -46
41 -54 -19 -81 -195 -402 -296 -539 -88 -119 -359 -369 -543 -503 -213 -154
-775 -458 -967 -522 -60 -20 -110 -36 -112 -34 -1 1 32 52 73 112 74 110 143
234 143 257 0 6 -22 -20 -48 -59 -27 -39 -76 -106 -109 -149 -33 -43 -65 -88
-71 -99 -9 -16 -11 21 -12 163 0 100 3 182 8 182 4 0 59 5 122 11 131 12 247
47 375 113 176 90 301 268 362 514 31 124 16 453 -22 491 -12 12 -28 12 -107
2 -354 -48 -591 -168 -709 -359 l-41 -67 6 40 c3 22 6 218 6 436 l0 396 113 6
c254 14 504 103 642 228 89 82 94 98 97 354 3 219 3 220 -23 275 -44 93 -136
172 -277 237 -147 67 -250 94 -436 112 -54 6 -100 12 -103 15 -2 2 5 23 17 46
26 51 23 84 -7 88 l-23 3 0 250 0 249 69 0 c223 0 570 115 690 228 85 82 89
94 93 352 l3 225 -28 57 c-73 148 -294 267 -587 317 -67 12 -144 21 -171 21
-27 0 -49 3 -49 6 0 4 10 23 21 44 25 45 20 70 -16 70 l-25 0 0 753 0 754 103
6 c126 8 256 31 350 61 82 27 97 30 97 17z m-896 -56 c49 -8 136 -18 193 -21
l103 -7 0 -748 0 -749 -24 0 c-33 0 -40 -34 -16 -88 11 -25 20 -46 20 -47 0
-1 -53 -5 -117 -8 -134 -7 -268 -38 -398 -92 -111 -46 -181 -92 -244 -160 -88
-98 -86 -89 -84 -343 3 -243 5 -253 64 -325 112 -136 462 -267 714 -267 l72 0
7 -61 c3 -34 6 -147 6 -250 l0 -189 -24 0 c-38 0 -40 -15 -12 -76 14 -31 26
-60 26 -63 0 -4 -57 -13 -127 -19 -145 -14 -246 -37 -377 -89 -114 -45 -187
-94 -261 -175 -94 -103 -98 -118 -96 -349 1 -108 6 -211 11 -229 15 -51 84
-134 147 -176 71 -47 209 -107 306 -134 80 -22 275 -50 348 -50 l47 0 7 -64
c6 -57 4 -806 -2 -806 -1 0 -15 26 -29 57 -44 93 -135 173 -268 238 -147 71
-294 108 -492 121 l-92 7 -5 -29 c-4 -16 -9 -81 -12 -144 -11 -192 23 -371
101 -529 38 -76 61 -109 132 -180 98 -98 178 -148 316 -196 47 -16 86 -35 86
-41 0 -25 72 -154 111 -197 32 -37 119 -192 119 -212 0 -33 -235 60 -520 206
-238 121 -438 247 -604 378 -154 123 -407 373 -490 485 -118 158 -252 398
-286 513 -13 41 -12 42 23 73 78 68 82 80 85 315 3 131 0 223 -7 246 -6 19
-29 63 -51 98 l-40 62 0 288 0 288 118 12 c178 20 163 22 183 -29 10 -25 52
-132 94 -238 92 -235 189 -447 260 -567 122 -208 395 -558 395 -508 0 8 -27
46 -159 221 -141 189 -330 533 -416 757 -20 55 -62 162 -91 238 -30 76 -54
144 -54 152 0 7 16 16 35 19 141 27 318 108 395 182 96 91 99 102 102 359 l3
220 -30 54 c-35 64 -129 152 -216 204 -115 68 -375 138 -521 141 -43 0 -78 3
-78 6 0 3 11 25 25 49 14 23 25 54 25 67 0 20 -5 24 -30 24 l-31 0 1 234 1
233 87 7 c358 27 679 167 752 328 17 38 20 67 20 258 0 207 -1 217 -24 267
-41 88 -151 183 -261 225 -30 11 -55 24 -55 27 0 4 51 49 112 101 244 206 706
648 749 716 l19 31 67 -19 c38 -10 108 -25 157 -33z m-1587 -756 c115 3 254
-20 392 -66 257 -85 368 -183 379 -333 4 -57 1 -76 -18 -115 -35 -72 -109
-138 -213 -189 -183 -89 -363 -126 -603 -126 -166 0 -243 10 -389 51 -162 45
-263 98 -351 183 -65 63 -75 78 -93 140 l-21 69 24 53 c35 75 108 141 223 201
160 83 444 153 548 134 17 -3 71 -4 122 -2z m4179 -28 c119 -29 199 -58 294
-107 112 -58 172 -111 206 -181 23 -49 26 -65 20 -115 -12 -115 -82 -200 -221
-268 -204 -99 -403 -136 -679 -127 -157 5 -181 8 -295 41 -139 41 -166 52
-268 114 -155 93 -210 208 -168 350 13 43 26 60 76 102 101 84 275 159 479
206 87 20 452 10 556 -15z m-4922 -686 c32 -20 83 -48 114 -62 145 -64 521
-124 648 -103 32 6 84 10 114 10 57 0 209 35 315 72 121 42 208 90 262 144
l53 53 0 -88 c0 -79 -3 -91 -29 -133 -35 -55 -72 -84 -176 -136 -193 -96 -375
-136 -615 -135 -191 1 -319 22 -485 77 -128 43 -205 86 -268 148 -62 62 -77
99 -77 195 l0 77 43 -41 c23 -22 68 -58 101 -78z m4020 -41 c130 -63 254 -97
423 -115 361 -37 766 55 936 213 l57 54 0 -76 c0 -134 -56 -209 -214 -288
-175 -87 -361 -126 -596 -126 -191 0 -324 22 -492 80 -115 40 -159 63 -235
123 -71 57 -93 106 -93 207 l0 80 52 -49 c33 -31 91 -68 162 -103z m-1114
-210 c203 -35 394 -118 491 -213 47 -46 61 -67 74 -115 30 -105 6 -185 -81
-270 -87 -86 -272 -166 -469 -203 -128 -24 -420 -24 -532 0 -312 68 -491 164
-559 302 -22 47 -26 65 -22 122 2 38 10 81 18 98 20 39 147 136 235 179 75 37
247 90 336 104 91 15 414 12 509 -4z m-923 -717 c88 -54 211 -93 428 -138 34
-7 135 -13 235 -13 153 0 191 3 302 27 240 51 346 95 464 194 28 23 54 39 58
36 8 -8 8 -112 -1 -154 -4 -21 -24 -51 -52 -79 -98 -98 -284 -174 -541 -221
-109 -20 -404 -18 -500 3 -231 52 -402 124 -482 203 -67 67 -80 99 -76 194 l3
79 50 -47 c27 -26 78 -64 112 -84z m-1122 -138 c132 -14 277 -55 385 -107 124
-60 228 -159 255 -241 58 -176 -82 -334 -386 -435 -314 -105 -730 -77 -1024
68 -164 82 -245 173 -258 293 -7 65 42 154 117 215 208 167 554 245 911 207z
m3970 -4 c141 -20 234 -48 352 -106 173 -83 263 -192 263 -317 0 -152 -132
-270 -405 -361 -437 -146 -1096 -3 -1221 264 -26 54 -31 128 -15 199 23 96
219 227 437 291 153 45 400 58 589 30z m-820 -759 c100 -48 163 -68 318 -102
105 -22 147 -26 297 -27 152 0 192 3 301 26 219 46 345 101 449 194 l60 55 0
-74 c0 -72 -18 -129 -52 -168 -137 -160 -576 -280 -885 -240 -341 43 -609 155
-673 280 -15 30 -20 59 -20 126 l0 86 63 -58 c39 -37 93 -74 142 -98z m-4019
36 c116 -80 390 -153 624 -166 221 -13 542 53 715 146 48 26 125 85 145 113
14 19 15 19 21 -10 20 -92 4 -156 -56 -222 -53 -60 -128 -101 -268 -148 -228
-75 -439 -104 -623 -86 -130 13 -358 69 -448 110 -87 39 -179 103 -213 148
-25 33 -28 46 -32 131 l-3 95 53 -45 c30 -24 68 -54 85 -66z m2949 -271 c134
-27 203 -52 312 -113 195 -108 267 -234 217 -382 -52 -152 -320 -291 -633
-327 -129 -16 -380 -6 -498 19 -335 72 -537 223 -536 401 1 79 22 118 104 196
108 101 303 185 501 214 40 6 84 13 98 15 69 10 342 -4 435 -23z m-2831 -57
c99 -45 251 -81 408 -96 l126 -11 7 -76 c4 -42 5 -167 3 -278 -3 -200 -3 -202
-23 -188 -133 96 -333 160 -532 172 -62 3 -113 10 -113 14 0 5 10 28 21 53 25
51 20 76 -16 76 l-25 0 0 159 c0 87 3 179 6 204 l7 46 28 -20 c16 -11 62 -36
103 -55z m5189 -151 l3 -183 -27 0 c-15 0 -30 -4 -33 -9 -3 -5 7 -34 23 -65
l30 -56 -42 0 c-152 0 -377 -58 -528 -137 -41 -21 -77 -39 -81 -41 -10 -4 -10
203 -1 396 l6 142 46 0 c157 1 365 49 495 114 77 39 101 47 103 36 1 -8 4 -97
6 -197z m-5362 -373 c13 -8 25 -7 40 1 29 15 210 -4 336 -36 118 -30 285 -111
342 -167 116 -113 120 -258 8 -370 -99 -100 -294 -182 -508 -214 -137 -20
-395 -15 -504 10 -337 76 -523 213 -542 400 -5 51 -3 57 33 109 94 134 350
243 634 270 78 8 142 6 161 -3z m5629 -6 c267 -39 501 -159 561 -289 26 -55
25 -146 -1 -201 -41 -83 -140 -157 -294 -220 -134 -55 -247 -75 -441 -81 -241
-7 -361 13 -560 93 -162 65 -258 142 -294 238 -38 103 -24 165 57 246 94 92
283 176 477 210 127 22 354 24 495 4z m-3633 -116 c54 -35 193 -92 296 -122
119 -35 232 -47 416 -47 274 1 432 32 607 118 61 30 133 74 161 98 28 24 53
42 55 39 3 -2 4 -41 2 -85 -4 -97 -20 -128 -99 -189 -73 -57 -252 -135 -378
-165 -146 -35 -330 -46 -476 -29 -359 44 -585 135 -672 272 -27 42 -29 53 -29
140 l0 95 40 -50 c21 -27 56 -61 77 -75z m4606 -125 c16 -8 35 -30 44 -51 22
-52 11 -100 -32 -139 -30 -28 -42 -33 -86 -33 -45 0 -55 4 -85 34 -30 30 -34
40 -34 84 0 106 93 156 193 105z m-7373 -357 c47 -64 155 -125 322 -181 128
-43 199 -54 398 -61 193 -8 332 10 500 66 160 53 215 81 288 146 l62 56 -3
-99 c-4 -113 -8 -122 -85 -183 -133 -106 -439 -198 -672 -203 -131 -2 -273 10
-265 24 4 5 -1 6 -9 3 -33 -13 -249 48 -358 101 -114 56 -177 109 -204 172
-15 34 -20 193 -6 193 4 0 18 -16 32 -34z m5422 -19 c63 -61 138 -103 261
-146 128 -45 202 -60 362 -73 169 -14 362 -1 490 32 189 50 348 131 417 213
l28 32 -4 -91 c-5 -109 -21 -150 -72 -193 -44 -37 -210 -119 -299 -149 -264
-88 -570 -89 -853 -2 -83 26 -238 95 -275 124 -59 46 -98 99 -108 148 -8 44
-12 158 -5 158 2 0 28 -24 58 -53z m-1092 -535 c15 -117 9 -271 -15 -362 -10
-36 -39 -112 -67 -168 -39 -84 -62 -117 -116 -171 -113 -113 -279 -184 -487
-210 -44 -5 -81 -8 -82 -7 -2 2 11 23 28 47 16 24 61 90 100 147 99 148 190
268 317 421 62 73 112 139 112 147 0 57 -102 -44 -316 -312 -77 -96 -202 -275
-281 -400 -9 -15 -12 28 -12 209 -1 205 1 234 20 290 67 200 207 330 424 396
88 27 290 70 331 70 l32 1 12 -98z m-1524 68 c355 -61 527 -175 614 -407 18
-48 20 -78 20 -285 l0 -231 -57 79 c-57 79 -229 300 -329 424 -86 105 -192
212 -206 208 -21 -7 -15 -34 17 -70 97 -107 494 -620 525 -678 9 -17 7 -20
-14 -26 -68 -17 -287 46 -422 121 -156 87 -263 238 -319 451 -22 81 -29 200
-20 327 l7 107 33 0 c18 0 86 -9 151 -20z m567 -1045 l77 -7 0 -141 c0 -78 3
-160 6 -182 l6 -40 -32 50 c-18 28 -49 68 -70 90 -21 22 -55 74 -75 115 -20
41 -43 88 -51 103 l-14 29 37 -6 c21 -3 73 -8 116 -11z m-2264 -436 c141 -35
300 -110 362 -171 120 -116 119 -250 -2 -363 -126 -118 -452 -215 -724 -215
-184 0 -409 47 -555 117 -182 87 -284 233 -238 340 30 70 62 106 133 152 92
61 201 106 325 137 132 33 229 41 420 36 139 -3 183 -9 279 -33z m2339 -305
c-3 -140 2 -129 -79 -160 -46 -18 -47 -19 -27 -36 11 -10 25 -15 31 -11 15 9
127 13 127 4 0 -4 17 -6 38 -4 20 3 48 5 62 6 14 1 28 6 32 12 5 6 11 6 19 -2
9 -9 15 -9 25 2 16 16 19 29 4 20 -6 -4 -19 -3 -28 1 -9 4 -44 14 -77 23 l-60
16 -3 128 -3 127 68 0 c215 0 487 -80 615 -181 42 -34 74 -105 64 -144 -10
-38 -86 -109 -153 -143 -84 -43 -254 -98 -358 -117 -142 -26 -382 -31 -506
-10 -114 18 -296 74 -373 112 -59 30 -140 103 -156 143 -27 64 36 149 159 214
71 37 277 101 371 115 30 5 90 9 133 10 l78 1 -3 -126z m2224 6 c108 -30 162
-148 102 -220 -32 -38 -68 -57 -133 -71 -65 -14 -117 1 -158 43 -83 88 -62
181 51 234 56 26 83 29 138 14z m-4113 -318 c1 -81 -14 -116 -76 -174 -64 -59
-157 -106 -305 -152 -150 -47 -285 -68 -418 -64 -122 2 -142 6 -133 22 4 6 -1
5 -10 -2 -9 -8 -28 -11 -44 -8 -15 3 -53 8 -83 11 -77 8 -232 52 -315 90 -88
40 -190 131 -205 183 -5 21 -10 70 -10 111 l0 74 20 -26 c28 -35 172 -128 240
-155 73 -29 157 -49 257 -64 46 -7 83 -15 83 -19 0 -4 82 -6 183 -4 190 3 315
21 465 66 96 30 237 107 291 159 54 53 59 48 60 -48z m2699 -127 c-23 -70
-170 -152 -398 -223 -107 -34 -206 -45 -380 -45 -185 0 -304 19 -465 75 -143
49 -263 118 -297 171 -17 25 -33 141 -22 158 4 7 22 -5 48 -29 54 -53 150
-104 261 -140 147 -48 219 -57 460 -57 242 0 332 12 500 66 138 44 288 137
297 184 1 6 3 -19 5 -55 2 -37 -2 -83 -9 -105z"/>
<path d="M5315 9356 c-38 -17 -87 -73 -83 -95 2 -9 15 -17 30 -19 20 -2 30 4
44 27 28 47 73 52 117 13 39 -35 2 -86 -64 -87 -40 0 -43 -4 -33 -42 5 -19 12
-22 51 -21 34 2 48 -2 59 -17 35 -47 1 -95 -66 -95 -27 0 -44 8 -65 30 -31 33
-85 42 -85 15 0 -27 84 -105 116 -107 90 -4 135 16 164 72 27 52 25 82 -6 120
l-27 31 22 20 c11 11 21 32 21 46 0 29 -33 84 -62 102 -30 19 -100 23 -133 7z"/>
<path d="M4510 9345 c-7 -9 -33 -28 -57 -42 -44 -25 -50 -37 -33 -63 8 -12 13
-12 44 3 l36 17 0 -151 0 -150 28 3 27 3 0 195 c0 170 -2 195 -16 198 -9 1
-22 -4 -29 -13z"/>
<path d="M4725 9342 c-60 -29 -84 -60 -96 -127 -25 -134 24 -232 128 -256 46
-10 96 6 140 44 47 41 63 82 63 160 0 53 -5 71 -29 109 -17 26 -41 54 -56 64
-39 25 -103 28 -150 6z m114 -58 c32 -23 51 -74 51 -138 0 -47 -4 -60 -30 -90
-37 -42 -71 -51 -110 -31 -42 22 -60 63 -60 138 0 51 5 70 21 91 36 46 88 58
128 30z"/>
<path d="M5654 9346 c-63 -28 -100 -113 -91 -212 7 -74 24 -112 69 -149 29
-24 38 -27 95 -23 53 3 68 9 94 33 48 45 69 99 69 179 0 84 -27 139 -82 167
-43 22 -110 24 -154 5z m136 -74 c35 -36 46 -88 30 -150 -14 -58 -42 -90 -87
-98 -45 -8 -77 14 -98 70 -25 65 -14 129 30 173 43 43 85 45 125 5z"/>
<path d="M5044 9173 c-37 -4 -41 -6 -37 -27 5 -22 11 -24 86 -29 45 -2 86 -1
91 3 5 5 6 20 2 34 -7 28 -22 30 -142 19z"/>
<path d="M3293 7285 c-39 -17 -83 -58 -83 -79 0 -8 14 -19 31 -25 44 -15 49
-14 49 12 0 49 58 64 99 26 31 -29 23 -51 -26 -74 -35 -16 -43 -24 -40 -45 2
-21 8 -26 42 -30 50 -6 59 -37 21 -75 -37 -37 -72 -33 -97 10 -21 35 -33 40
-63 29 -25 -10 -19 -40 15 -78 72 -83 204 -45 225 64 5 24 1 39 -15 61 -21 28
-21 32 -7 48 19 21 21 99 3 122 -17 22 -72 49 -99 49 -13 -1 -38 -7 -55 -15z"/>
<path d="M2603 7276 c-50 -23 -78 -95 -30 -80 12 3 24 11 25 15 2 5 8 9 13 9
5 0 9 -64 9 -145 l0 -145 25 0 c32 0 37 27 33 210 -3 136 -4 145 -23 147 -11
2 -34 -4 -52 -11z"/>
<path d="M2810 7269 c-72 -43 -95 -100 -80 -193 20 -126 119 -188 218 -137 59
30 77 71 77 171 0 97 -17 140 -65 165 -42 21 -108 19 -150 -6z m123 -59 c31
-36 41 -78 32 -135 -14 -95 -87 -127 -145 -65 -60 65 -45 175 30 212 47 24 54
23 83 -12z"/>
<path d="M3580 7273 c-53 -28 -73 -71 -73 -161 0 -129 50 -192 150 -192 54 0
96 29 122 85 45 96 35 199 -24 255 -34 32 -125 39 -175 13z m127 -59 c63 -40
39 -212 -32 -230 -67 -17 -109 32 -109 127 -1 107 62 153 141 103z"/>
<path d="M3053 7117 c-3 -5 -2 -19 1 -33 6 -22 11 -24 71 -24 l65 0 0 29 c0
29 -1 29 -66 33 -36 1 -68 -1 -71 -5z"/>
<path d="M7168 7284 c-25 -11 -40 -25 -47 -47 -16 -45 1 -56 38 -24 40 33 62
40 94 28 61 -23 35 -104 -32 -104 -28 0 -31 -3 -31 -31 0 -30 2 -31 41 -31 51
0 72 -23 58 -64 -10 -27 -44 -51 -74 -51 -7 0 -23 14 -35 30 -14 19 -30 30
-46 30 -20 0 -24 -5 -24 -30 0 -77 124 -107 198 -49 58 45 70 114 25 147 l-27
19 22 28 c51 64 7 153 -78 161 -27 2 -59 -2 -82 -12z"/>
<path d="M6684 7280 c-31 -12 -75 -70 -72 -94 5 -36 49 -32 73 6 28 46 67 58
103 31 58 -43 31 -88 -111 -183 -65 -44 -86 -73 -73 -105 4 -12 30 -15 147
-15 l141 0 -6 23 c-3 12 -6 25 -6 29 0 4 -44 9 -97 10 l-98 3 60 37 c119 73
163 153 119 216 -32 45 -120 66 -180 42z"/>
<path d="M7463 7283 c-30 -6 -42 -23 -59 -85 -16 -61 -10 -166 13 -211 33 -65
130 -87 194 -44 49 33 69 79 69 162 0 143 -76 205 -217 178z m112 -59 c35 -14
61 -107 45 -163 -15 -52 -47 -81 -91 -81 -56 0 -79 34 -79 119 0 88 24 131 74
131 19 0 42 -3 51 -6z"/>
<path d="M6952 7088 c3 -31 5 -33 47 -36 71 -5 93 4 89 36 -3 26 -5 27 -71 30
l-68 3 3 -33z"/>
<path d="M4555 6320 c-10 -11 -29 -20 -42 -20 -21 0 -24 -4 -21 -32 3 -34 9
-36 56 -22 l22 6 0 -141 0 -141 25 0 25 0 0 185 0 185 -23 0 c-13 0 -32 -9
-42 -20z"/>
<path d="M4750 6317 c-56 -37 -75 -81 -73 -164 1 -84 20 -125 72 -160 77 -52
156 -33 198 47 27 51 32 160 9 214 -33 80 -135 111 -206 63z m129 -61 c66 -71
32 -236 -49 -236 -93 0 -136 165 -61 232 39 35 80 36 110 4z"/>
<path d="M5247 6322 c-52 -35 -72 -83 -45 -110 21 -21 37 -13 52 23 23 54 88
62 115 13 22 -39 4 -69 -76 -125 -92 -65 -123 -97 -123 -126 l0 -25 128 -4
c70 -2 128 -3 129 -3 1 0 3 13 5 29 l3 29 -88 -2 c-57 -2 -87 1 -83 8 4 5 38
31 76 56 78 52 100 84 100 146 0 33 -6 47 -34 75 -29 29 -41 34 -82 34 -31 0
-60 -7 -77 -18z"/>
<path d="M5563 6320 c-56 -34 -68 -63 -68 -165 0 -136 39 -185 149 -185 38 0
50 5 79 35 42 44 62 107 54 179 -7 72 -30 112 -77 136 -49 25 -96 25 -137 0z
m131 -71 c21 -25 26 -41 26 -88 0 -81 -29 -125 -87 -129 -34 -3 -44 1 -62 24
-17 22 -21 41 -21 101 0 65 3 77 25 98 36 37 86 34 119 -6z"/>
<path d="M5016 6160 c-1 -3 0 -16 3 -30 6 -23 10 -25 71 -25 65 -1 80 6 80 37
0 14 -13 17 -76 20 -42 2 -77 1 -78 -2z"/>
<path d="M3275 5274 c-49 -33 -75 -60 -75 -76 0 -9 126 87 136 103 10 17 -11
8 -61 -27z"/>
<path d="M3095 5282 c-36 -9 -39 -33 -5 -43 66 -19 131 -2 112 28 -9 15 -69
23 -107 15z"/>
<path d="M6802 5463 c-32 -6 -92 -66 -92 -92 0 -27 48 -49 62 -29 4 7 8 18 8
25 0 18 41 43 71 43 54 0 77 -65 40 -111 -10 -13 -58 -51 -105 -84 -83 -58
-105 -87 -92 -120 4 -12 30 -15 141 -15 l135 0 0 30 0 30 -97 1 c-95 0 -97 1
-73 17 153 104 202 189 149 256 -37 47 -80 62 -147 49z"/>
<path d="M7050 5366 l0 -106 68 0 c40 0 73 -5 80 -12 7 -7 12 -31 12 -55 0
-38 -3 -43 -26 -49 -14 -4 -55 -4 -90 -1 l-64 6 0 -36 0 -35 100 4 c60 2 105
9 112 16 7 7 12 43 13 93 0 79 -1 81 -33 110 -27 24 -41 29 -82 29 -53 0 -58
6 -43 59 6 23 9 23 79 19 76 -5 94 2 94 34 0 16 -10 18 -79 18 -43 0 -93 3
-110 6 l-31 7 0 -107z"/>
<path d="M7330 5465 c0 0 -2 -46 -5 -102 l-5 -103 39 0 c22 0 43 5 46 10 12
20 80 11 103 -13 28 -29 28 -57 1 -91 -30 -39 -86 -37 -123 5 -18 20 -35 29
-49 27 -34 -5 -32 -35 5 -72 57 -57 145 -60 207 -8 66 55 57 149 -18 199 -37
25 -109 31 -129 11 -9 -9 -12 -1 -12 35 l0 48 55 -6 c30 -4 73 -4 95 0 33 6
40 11 40 30 0 24 -1 24 -125 27 -69 2 -125 3 -125 3z"/>
<path d="M4582 4468 c-76 -41 -96 -108 -32 -108 22 0 30 5 30 18 0 47 73 69
110 32 43 -43 20 -79 -123 -184 -48 -35 -70 -69 -62 -96 6 -19 14 -20 136 -20
l129 0 0 25 c0 24 -2 25 -72 25 -105 0 -110 8 -41 66 107 91 123 118 104 177
-26 78 -103 106 -179 65z"/>
<path d="M5214 4471 c-63 -39 -88 -111 -39 -111 17 0 29 9 40 30 9 17 27 36
41 42 33 15 78 -16 82 -58 3 -34 -24 -64 -128 -141 -57 -43 -65 -53 -68 -85
l-3 -38 135 3 136 2 0 27 0 27 -92 3 -92 3 74 60 c116 94 132 143 71 215 -35
42 -108 52 -157 21z"/>
<path d="M4848 4447 c-24 -18 -44 -43 -46 -54 -3 -20 -1 -21 30 -12 18 5 34 9
35 9 2 0 3 -63 3 -140 l0 -140 30 0 30 0 0 185 c0 176 -1 185 -19 185 -11 0
-39 -15 -63 -33z"/>
<path d="M5513 4459 c-50 -32 -65 -77 -61 -178 2 -67 7 -92 23 -113 47 -62
138 -82 192 -42 49 37 73 90 73 168 0 125 -50 186 -152 186 -26 0 -55 -8 -75
-21z m145 -65 c18 -20 22 -37 22 -89 0 -78 -12 -108 -56 -131 -38 -21 -72 -11
-99 29 -23 36 -24 147 -2 181 34 52 93 56 135 10z"/>
<path d="M4990 4276 l0 -34 61 -4 c56 -3 63 -1 72 20 14 31 3 38 -70 46 l-63
7 0 -35z"/>
<path d="M2248 3867 c-45 -41 -62 -77 -36 -77 6 0 20 7 30 17 10 9 21 14 24
10 3 -3 8 -71 11 -151 6 -145 6 -146 29 -146 l24 0 0 179 c0 99 -3 186 -6 195
-9 24 -25 19 -76 -27z"/>
<path d="M2474 3892 c-38 -24 -74 -69 -74 -92 0 -10 10 -20 23 -24 33 -9 34
-8 41 18 9 37 34 56 71 56 36 0 65 -28 65 -62 0 -26 -59 -87 -134 -138 -65
-44 -83 -72 -71 -111 6 -17 17 -19 136 -19 120 0 129 1 129 19 0 31 -22 40
-110 43 l-85 3 55 36 c65 42 127 108 136 144 10 39 -4 89 -31 115 -34 32 -109
38 -151 12z"/>
<path d="M7931 3900 c-20 -53 -41 -139 -41 -170 l0 -33 56 7 c31 3 64 11 74
16 53 28 140 -6 140 -56 0 -36 -48 -84 -93 -91 -32 -5 -42 -2 -65 21 -19 17
-44 28 -76 32 l-49 7 19 -32 c26 -45 105 -81 174 -81 50 0 56 3 95 44 68 70
67 115 -5 180 -41 36 -44 38 -106 34 -61 -3 -64 -2 -64 20 0 13 5 32 11 44 10
18 17 19 64 13 29 -3 69 -3 89 0 31 6 36 11 36 36 l0 28 -125 3 -125 3 -9 -25z"/>
<path d="M7595 3900 c-75 -38 -96 -130 -30 -130 21 0 25 5 25 28 0 38 17 52
61 52 41 0 89 -32 89 -59 0 -17 -104 -113 -183 -168 -41 -28 -47 -37 -47 -68
l0 -35 99 0 c54 0 119 3 145 6 40 6 46 10 46 30 0 23 -3 23 -96 26 l-97 3 77
63 c42 35 82 75 88 90 5 15 14 35 19 44 14 27 11 43 -13 73 -23 29 -90 64
-123 65 -12 0 -38 -9 -60 -20z"/>
<path d="M2455 1304 c-3 -44 -9 -91 -11 -106 -5 -24 -2 -28 19 -28 13 0 41 7
60 15 39 16 75 9 109 -22 41 -37 4 -117 -59 -129 -28 -6 -37 -2 -62 25 -18 19
-39 31 -55 31 -31 0 -33 -13 -5 -51 56 -80 165 -79 233 1 33 40 36 114 6 153
-27 34 -100 61 -145 54 l-35 -6 0 39 0 39 88 3 c82 3 87 4 90 26 3 21 1 22
-81 22 -46 0 -98 3 -115 6 l-30 6 -7 -78z"/>
<path d="M2170 1348 c-46 -31 -62 -74 -35 -94 24 -18 45 -18 45 0 0 7 9 25 21
40 31 40 94 32 119 -15 19 -35 -12 -72 -132 -155 -85 -58 -91 -66 -83 -103 l6
-30 135 -3 134 -3 0 33 0 32 -97 0 -98 1 30 22 c124 92 162 134 171 188 5 31
1 42 -24 70 -26 30 -36 33 -93 37 -55 3 -69 0 -99 -20z"/>
<path d="M5077 999 c7 -7 15 -10 18 -7 3 3 -2 9 -12 12 -14 6 -15 5 -6 -5z"/>
<path d="M8875 7594 c-59 -31 -87 -68 -99 -135 l-6 -36 -158 -6 c-86 -4 -247
-10 -357 -13 -110 -4 -207 -11 -215 -16 -12 -7 593 -3 709 5 19 2 26 -4 32
-25 21 -80 79 -113 185 -106 79 5 109 25 147 99 32 62 31 109 -4 166 -45 72
-161 105 -234 67z m172 -68 c12 -14 25 -45 28 -69 13 -83 -39 -137 -131 -137
-39 0 -51 5 -80 34 -29 29 -34 41 -34 81 0 75 33 115 105 127 36 7 90 -11 112
-36z"/>
<path d="M8885 7146 c-42 -18 -93 -63 -101 -88 l-6 -21 -384 7 c-252 4 -384 3
-384 -3 0 -17 56 -21 411 -23 l346 -3 12 -59 c15 -71 56 -118 116 -135 54 -15
79 -14 123 5 114 47 156 180 85 265 -51 61 -149 85 -218 55z m158 -77 c32 -26
37 -36 37 -72 0 -71 -40 -118 -114 -133 -36 -7 -101 31 -119 69 -46 96 -1 166
108 167 42 0 57 -5 88 -31z"/>
<path d="M8912 6690 c-48 -11 -108 -55 -123 -90 l-14 -32 -357 8 c-328 6 -358
5 -358 -10 0 -14 23 -16 218 -16 121 0 280 -3 355 -7 l137 -6 6 -48 c12 -87
62 -140 145 -153 139 -22 258 121 205 247 -31 75 -131 125 -214 107z m91 -61
c38 -20 76 -61 82 -90 8 -36 -25 -112 -58 -134 -33 -21 -95 -22 -135 -1 -41
21 -62 63 -62 124 0 40 5 53 28 74 15 14 34 28 42 31 26 10 81 7 103 -4z"/>
<path d="M8873 6084 c-49 -24 -82 -63 -94 -108 l-10 -41 -221 -2 c-121 -1
-224 -5 -229 -10 -5 -5 89 -9 221 -8 l230 0 0 -26 c0 -42 42 -110 80 -130 39
-21 132 -26 177 -8 96 36 142 170 91 261 -44 79 -162 113 -245 72z m156 -48
c15 -8 32 -26 39 -41 15 -32 16 -119 2 -146 -23 -43 -128 -67 -178 -40 -79 42
-90 157 -21 215 24 20 41 26 80 26 28 0 62 -6 78 -14z"/>
<path d="M8905 5603 c-46 -10 -100 -59 -121 -110 -16 -40 -23 -50 -35 -43 -16
11 -355 2 -409 -10 -21 -5 59 -8 196 -9 l230 -1 13 -49 c22 -86 97 -129 200
-115 71 9 108 35 136 97 27 58 30 82 14 124 -31 83 -132 135 -224 116z m115
-68 c36 -18 60 -62 60 -107 0 -65 -54 -108 -136 -108 -39 0 -51 5 -80 34 -28
28 -34 41 -34 78 0 24 7 54 16 67 33 47 119 65 174 36z"/>
<path d="M8900 5123 c-48 -18 -99 -66 -115 -105 l-16 -43 -112 3 c-153 5 -528
-9 -497 -19 14 -4 156 -7 316 -8 l292 -1 7 -37 c18 -97 75 -137 185 -131 55 3
74 9 105 32 42 32 74 95 75 144 0 37 -28 98 -56 123 -48 42 -133 61 -184 42z
m104 -57 c106 -44 100 -190 -9 -226 -118 -39 -221 106 -135 192 17 16 37 28
44 25 8 -3 20 1 26 9 15 18 32 18 74 0z"/>
<path d="M8849 4451 c-43 -27 -79 -83 -79 -124 0 -9 -53 -12 -218 -14 -119 -1
-235 -6 -257 -12 -30 -7 25 -10 217 -8 l257 2 6 -37 c19 -109 142 -175 250
-133 106 40 149 190 80 281 -42 55 -80 74 -151 74 -49 0 -68 -5 -105 -29z
m182 -34 c91 -61 65 -216 -40 -248 -104 -31 -207 103 -156 201 33 64 135 88
196 47z"/>
<path d="M8889 3441 c-43 -24 -87 -73 -95 -107 -16 -61 19 -162 68 -197 41
-30 124 -34 181 -9 51 23 95 86 104 150 16 121 -147 223 -258 163z m131 -46
c68 -35 93 -123 50 -177 -27 -35 -93 -60 -136 -52 -51 9 -94 63 -94 119 0 59
6 72 49 100 41 28 89 32 131 10z"/>
<path d="M8281 1289 c-85 -25 -148 -92 -173 -183 -16 -59 8 -122 63 -169 47
-41 97 -57 176 -57 132 0 221 66 238 175 23 155 -141 280 -304 234z m157 -68
c86 -44 115 -107 82 -175 -56 -116 -224 -142 -316 -49 -67 66 -48 165 40 218
52 32 139 34 194 6z"/>
<path d="M7746 1096 c-50 -19 -152 -120 -167 -165 -17 -50 -5 -161 23 -218 31
-62 99 -101 191 -110 113 -10 195 32 231 119 31 72 14 237 -31 305 -42 63
-168 98 -247 69z m166 -81 c52 -34 68 -76 68 -172 0 -96 -18 -131 -84 -162
-66 -32 -128 -30 -179 6 -56 40 -77 84 -77 163 0 83 20 124 85 168 45 31 55
34 99 28 28 -3 66 -17 88 -31z"/>
<path d="M7700 881 c8 -6 40 -13 70 -17 30 -4 58 -12 62 -18 5 -8 8 -7 8 2 0
8 12 12 33 10 17 -1 41 3 52 9 16 9 1 11 -70 10 -49 -1 -108 2 -130 6 -28 5
-35 5 -25 -2z"/>
</g>
</svg>
