<?xml version="1.0" standalone="no"?>
<!DOCTYPE svg PUBLIC "-//W3C//DTD SVG 20010904//EN"
 "http://www.w3.org/TR/2001/REC-SVG-20010904/DTD/svg10.dtd">
<svg version="1.0" xmlns="http://www.w3.org/2000/svg"
 width="1600.000000pt" height="664.000000pt" viewBox="0 0 1600.000000 664.000000"
 preserveAspectRatio="xMidYMid meet">

<g transform="translate(0.000000,664.000000) scale(0.100000,-0.100000)"
fill="#000000" stroke="none">
<path d="M8248 6055 c-81 -26 -125 -105 -116 -211 10 -114 81 -179 190 -172
102 7 161 78 162 193 0 146 -105 231 -236 190z m131 -81 c19 -18 26 -36 29
-83 6 -76 -2 -107 -35 -137 -18 -17 -38 -24 -65 -24 -82 0 -128 96 -97 199 25
79 110 102 168 45z"/>
<path d="M7837 6053 c-4 -3 -7 -17 -7 -29 0 -21 5 -23 58 -26 l57 -3 5 -160 5
-160 30 0 30 0 3 163 2 162 55 0 c54 0 55 0 55 30 l0 30 -143 0 c-79 0 -147
-3 -150 -7z"/>
<path d="M8535 6048 c-3 -7 -4 -95 -3 -193 l3 -180 35 0 35 0 3 73 c3 71 3 72
30 72 23 0 33 -11 70 -75 40 -71 44 -75 77 -75 19 0 35 4 35 9 0 5 -19 42 -42
82 -31 54 -38 74 -28 77 23 8 58 52 65 82 8 37 -16 94 -51 116 -37 25 -221 34
-229 12z m190 -68 c23 -19 19 -66 -7 -84 -12 -9 -42 -16 -65 -16 l-43 0 0 61
0 62 50 -5 c27 -3 56 -11 65 -18z"/>
<path d="M13747 5083 c-15 -14 -6 -23 23 -23 l30 0 0 -80 c0 -63 3 -80 15 -80
11 0 15 18 17 78 3 76 3 77 31 80 l27 3 0 -80 c0 -74 2 -81 20 -81 17 0 20 7
20 49 0 35 4 51 16 55 26 10 34 -3 34 -55 0 -42 3 -49 20 -49 17 0 20 7 20 50
0 63 -26 95 -65 80 -24 -9 -25 -8 -25 25 l0 35 -88 0 c-49 0 -92 -3 -95 -7z"/>
<path d="M14224 5079 c-10 -17 13 -36 27 -22 12 12 4 33 -11 33 -5 0 -12 -5
-16 -11z"/>
<path d="M1429 5015 c20 -36 31 -68 31 -95 0 -33 3 -40 20 -40 17 0 20 7 20
42 0 28 10 59 30 95 28 50 29 53 10 53 -13 0 -26 -12 -37 -35 -9 -19 -20 -35
-23 -35 -4 0 -15 16 -26 35 -11 21 -26 35 -37 35 -17 0 -16 -6 12 -55z"/>
<path d="M2070 5033 c0 -29 -3 -34 -12 -25 -44 44 -101 -47 -68 -108 8 -16 21
-19 65 -18 l55 2 0 93 c0 86 -1 93 -20 93 -16 0 -20 -7 -20 -37z m-2 -84 c2
-27 -1 -38 -14 -43 -35 -13 -60 44 -32 72 22 22 43 9 46 -29z"/>
<path d="M2392 5053 c2 -10 10 -18 18 -18 8 0 16 8 18 18 2 12 -3 17 -18 17
-15 0 -20 -5 -18 -17z"/>
<path d="M14440 5055 c0 -7 -8 -19 -17 -25 -13 -8 -14 -13 -5 -16 7 -3 12 -24
12 -49 0 -58 24 -84 64 -69 23 9 20 24 -4 24 -17 0 -20 7 -20 45 0 38 3 45 20
45 11 0 20 5 20 10 0 6 -9 10 -20 10 -13 0 -20 7 -20 20 0 11 -7 20 -15 20 -8
0 -15 -7 -15 -15z"/>
<path d="M15033 5053 c-4 -10 -11 -22 -17 -26 -8 -6 -7 -10 2 -14 7 -3 12 -24
12 -53 0 -40 4 -51 21 -60 22 -12 49 -7 49 9 0 5 -9 11 -20 14 -16 4 -20 14
-20 46 0 34 3 41 20 41 11 0 20 5 20 10 0 6 -7 10 -16 10 -9 0 -18 9 -21 20
-7 25 -21 26 -30 3z"/>
<path d="M14071 5027 c-74 -37 -27 -153 54 -133 31 8 28 32 -4 28 -12 -2 -29
2 -38 10 -14 11 -11 14 28 18 41 5 44 7 42 34 -1 16 -6 32 -10 36 -17 16 -49
19 -72 7z m48 -30 c6 -8 8 -17 4 -20 -12 -12 -53 -7 -53 6 0 28 30 37 49 14z"/>
<path d="M14340 5030 c-8 -5 -25 -7 -37 -3 -22 5 -23 3 -23 -61 0 -59 2 -66
20 -66 17 0 20 7 20 49 0 35 4 51 16 55 26 10 34 -3 34 -55 0 -43 2 -49 21
-49 20 0 21 4 16 57 -7 69 -31 96 -67 73z"/>
<path d="M14560 5033 c-25 -9 -40 -35 -40 -70 0 -54 45 -86 94 -67 26 10 18
24 -13 24 -16 0 -34 6 -40 14 -11 12 -6 15 31 18 34 2 44 7 46 23 5 37 -40 71
-78 58z m43 -37 c7 -19 -1 -26 -30 -26 -25 0 -29 10 -11 28 16 16 35 15 41 -2z"/>
<path d="M14705 5030 c-3 -6 -17 -7 -31 -4 -24 6 -24 5 -24 -60 0 -51 3 -66
14 -66 11 0 16 14 18 48 3 40 6 47 26 50 14 2 22 10 22 23 0 20 -15 26 -25 9z"/>
<path d="M14816 5033 c-3 -4 -21 -6 -39 -5 l-33 1 1 -64 c0 -55 3 -65 18 -65
14 0 17 9 17 44 0 44 19 74 40 61 5 -3 10 -28 10 -56 0 -42 3 -49 20 -49 17 0
20 7 20 53 0 28 -4 57 -8 63 -9 14 -38 24 -46 17z"/>
<path d="M14923 5030 c-25 -10 -36 -42 -31 -86 4 -36 43 -60 82 -50 32 8 30
33 -3 28 -12 -2 -29 2 -38 10 -14 11 -11 14 28 18 34 4 45 9 47 25 6 41 -42
72 -85 55z m50 -34 c7 -19 -1 -26 -30 -26 -25 0 -26 1 -17 24 8 20 40 21 47 2z"/>
<path d="M14220 4965 c0 -58 2 -65 20 -65 18 0 20 7 20 65 0 58 -2 65 -20 65
-18 0 -20 -7 -20 -65z"/>
<path d="M1563 4994 c-20 -20 -24 -31 -19 -56 9 -45 24 -58 67 -58 66 0 92 68
44 115 -31 32 -59 32 -92 -1z m75 -40 c3 -34 -17 -58 -42 -48 -10 4 -16 18
-16 38 0 39 7 48 35 44 14 -2 21 -12 23 -34z"/>
<path d="M1895 5010 c-3 -5 -17 -7 -31 -4 -24 6 -24 5 -24 -60 0 -59 2 -66 20
-66 17 0 20 7 20 50 0 28 5 51 10 51 6 1 16 2 23 3 15 1 16 28 0 33 -6 2 -14
-1 -18 -7z"/>
<path d="M2152 5004 c-27 -18 -31 -84 -6 -108 19 -20 98 -22 91 -3 -2 6 -14
11 -26 9 -12 -2 -29 2 -38 10 -14 11 -11 14 28 18 36 4 45 9 47 27 4 25 -30
63 -56 63 -10 0 -28 -7 -40 -16z m61 -28 c7 -17 -1 -26 -24 -26 -21 0 -33 15
-24 30 9 15 42 12 48 -4z"/>
<path d="M2465 4995 c-49 -48 -22 -115 46 -115 29 0 39 4 39 16 0 11 -5 14
-16 10 -25 -10 -51 2 -57 26 -9 33 10 58 43 58 32 0 40 14 14 24 -28 11 -44 6
-69 -19z"/>
<path d="M2581 5002 c-25 -20 -30 -66 -12 -100 10 -19 19 -23 54 -20 23 2 41
8 39 13 -2 6 -12 9 -23 7 -11 -2 -27 2 -36 10 -14 11 -11 14 28 18 36 4 45 9
47 27 4 26 -30 63 -57 63 -10 0 -29 -8 -40 -18z m59 -32 c0 -21 -33 -29 -45
-10 -9 15 4 30 26 30 12 0 19 -7 19 -20z"/>
<path d="M1690 4971 c0 -22 4 -51 10 -65 8 -23 14 -25 65 -25 l55 1 0 64 c0
57 -2 64 -20 64 -17 0 -20 -7 -20 -44 0 -44 -19 -74 -40 -61 -5 3 -10 28 -10
56 0 42 -3 49 -20 49 -17 0 -20 -7 -20 -39z"/>
<path d="M2273 4948 c17 -49 27 -63 42 -63 15 0 25 14 42 63 21 59 21 62 4 62
-13 0 -22 -13 -32 -47 l-13 -48 -15 48 c-10 33 -20 47 -32 47 -17 0 -17 -4 4
-62z"/>
<path d="M2390 4945 c0 -58 2 -65 20 -65 18 0 20 7 20 65 0 58 -2 65 -20 65
-18 0 -20 -7 -20 -65z"/>
<path d="M9806 4969 c-21 -24 -26 -41 -26 -82 0 -52 28 -117 50 -117 13 0 13
1 -6 46 -19 46 -13 127 11 154 10 11 12 20 7 24 -6 3 -22 -8 -36 -25z"/>
<path d="M10980 4988 c0 -9 4 -19 9 -23 6 -3 13 -26 17 -51 6 -41 -1 -79 -22
-131 -12 -27 17 -11 36 20 13 21 20 50 20 84 0 44 -5 58 -30 85 -22 24 -29 29
-30 16z"/>
<path d="M8860 4894 c0 -86 2 -95 18 -92 13 2 18 16 22 63 l5 60 35 -62 c22
-40 41 -63 52 -63 16 0 18 11 18 95 0 78 -3 95 -15 95 -12 0 -15 -13 -15 -61
0 -33 -4 -58 -9 -55 -5 3 -23 31 -40 61 -21 38 -37 55 -51 55 -19 0 -20 -7
-20 -96z"/>
<path d="M9290 4961 c0 -28 -2 -29 -34 -24 -27 4 -36 1 -50 -18 -20 -29 -21
-68 -1 -96 13 -18 25 -22 65 -21 l50 1 0 94 c0 76 -3 93 -15 93 -10 0 -15 -10
-15 -29z m-6 -67 c3 -8 3 -27 0 -40 -5 -18 -12 -24 -28 -22 -21 3 -33 36 -22
64 7 19 42 18 50 -2z"/>
<path d="M9862 4898 l3 -93 63 -3 c51 -2 62 0 62 13 0 11 -11 15 -45 15 -41 0
-45 2 -45 25 0 23 4 25 40 25 54 0 56 27 3 32 -31 2 -39 7 -41 26 -3 20 1 22
42 22 34 0 46 4 46 15 0 12 -14 15 -65 15 l-66 0 3 -92z"/>
<path d="M10150 4975 c0 -8 9 -15 20 -15 11 0 20 7 20 15 0 8 -9 15 -20 15
-11 0 -20 -7 -20 -15z"/>
<path d="M10780 4959 c0 -26 -3 -29 -20 -24 -52 16 -93 -39 -70 -95 14 -33 28
-39 85 -37 l40 2 3 93 c3 87 2 92 -18 92 -16 0 -20 -6 -20 -31z m-5 -89 c0
-31 -3 -35 -25 -35 -19 0 -26 6 -28 23 -5 36 5 54 30 50 19 -2 23 -9 23 -38z"/>
<path d="M9592 4920 c-50 -69 -49 -90 2 -90 21 0 36 -6 40 -15 9 -23 30 -18
44 12 8 18 9 30 2 37 -5 5 -10 34 -10 63 0 72 -22 70 -78 -7z m46 -27 c-2 -20
-9 -29 -25 -31 -27 -4 -28 1 -7 33 22 33 36 32 32 -2z"/>
<path d="M10233 4960 c-3 -11 -9 -20 -14 -20 -5 0 -9 -7 -9 -15 0 -8 4 -15 9
-15 6 0 11 -24 13 -52 3 -47 6 -53 27 -56 33 -5 53 17 23 24 -31 9 -33 79 -2
87 11 3 20 10 20 16 0 6 -9 11 -20 11 -13 0 -20 7 -20 20 0 11 -5 20 -11 20
-6 0 -13 -9 -16 -20z"/>
<path d="M6570 4864 c0 -84 2 -95 17 -92 14 2 16 13 14 61 -1 31 1 57 6 57 5
0 25 -27 44 -60 21 -37 41 -60 52 -60 15 0 17 11 17 95 0 78 -3 95 -15 95 -12
0 -15 -13 -15 -61 0 -33 -4 -58 -9 -55 -5 3 -23 31 -40 61 -21 38 -37 55 -51
55 -19 0 -20 -7 -20 -96z"/>
<path d="M7000 4931 c0 -28 -2 -29 -34 -24 -27 4 -36 1 -50 -18 -21 -31 -20
-82 2 -102 11 -10 34 -15 65 -15 l47 1 0 94 c0 76 -3 93 -15 93 -10 0 -15 -10
-15 -29z m-5 -71 c8 -26 -11 -60 -35 -60 -23 0 -35 33 -20 60 14 26 47 26 55
0z"/>
<path d="M7303 4950 c-26 -11 -31 -30 -8 -30 12 0 15 -13 15 -60 0 -53 -2 -60
-20 -60 -11 0 -20 -7 -20 -15 0 -12 13 -15 60 -15 47 0 60 3 60 15 0 8 -9 15
-20 15 -17 0 -19 8 -22 77 -2 42 -7 78 -13 79 -5 1 -20 -1 -32 -6z"/>
<path d="M9055 4920 c-40 -44 -10 -120 47 -120 37 0 68 32 68 70 0 61 -76 93
-115 50z m75 -29 c19 -36 -10 -77 -42 -60 -18 10 -25 58 -11 72 13 14 43 7 53
-12z"/>
<path d="M9370 4920 c-45 -45 -11 -120 55 -120 26 0 35 4 35 16 0 11 -6 15
-19 11 -20 -5 -51 9 -51 23 0 6 18 10 40 10 38 0 40 2 40 30 0 49 -62 68 -100
30z m70 -31 c0 -5 -11 -9 -25 -9 -26 0 -35 25 -12 33 13 5 37 -10 37 -24z"/>
<path d="M10010 4932 c0 -5 7 -17 15 -28 20 -26 19 -41 -6 -75 -18 -25 -18
-29 -4 -29 9 0 25 10 35 23 l19 22 16 -22 c9 -13 23 -23 31 -23 19 0 18 6 -8
41 -21 28 -21 31 -5 58 9 16 17 32 17 35 0 14 -23 4 -40 -16 l-17 -22 -12 22
c-11 21 -41 31 -41 14z"/>
<path d="M10150 4870 c0 -63 2 -71 18 -68 14 3 17 14 17 68 0 54 -3 65 -17 68
-16 3 -18 -5 -18 -68z"/>
<path d="M10385 4932 c-3 -3 -5 -34 -5 -69 0 -56 2 -63 19 -63 17 0 20 8 23
53 3 45 6 52 26 55 21 3 22 0 22 -52 0 -50 2 -56 21 -56 20 0 21 4 17 60 -2
33 -8 63 -12 67 -8 9 -103 13 -111 5z"/>
<path d="M10555 4920 c-40 -44 -10 -120 47 -120 37 0 68 32 68 70 0 61 -76 93
-115 50z m75 -29 c19 -36 -10 -77 -42 -60 -18 10 -25 58 -11 72 13 14 43 7 53
-12z"/>
<path d="M10867 4923 c-19 -22 -23 -49 -14 -85 8 -29 36 -42 78 -36 25 3 24
24 -1 21 -18 -2 -50 15 -50 27 0 6 20 10 45 10 38 0 45 3 45 20 0 49 -71 78
-103 43z m61 -26 c3 -12 -4 -17 -22 -17 -28 0 -33 9 -14 28 15 15 32 10 36
-11z"/>
<path d="M6768 4893 c-23 -28 -28 -51 -17 -80 13 -34 26 -43 62 -43 36 0 67
32 67 70 0 58 -76 94 -112 53z m70 -46 c5 -38 -14 -60 -39 -46 -19 10 -27 58
-12 73 17 17 48 0 51 -27z"/>
<path d="M7076 4895 c-54 -54 -12 -134 65 -123 25 3 24 24 -1 21 -18 -2 -50
15 -50 27 0 6 20 10 45 10 38 0 45 3 45 20 0 47 -71 78 -104 45z m64 -31 c0
-8 -10 -14 -25 -14 -27 0 -32 9 -14 27 14 14 39 6 39 -13z"/>
<path d="M14240 4705 c-319 -71 -566 -307 -656 -625 -28 -102 -26 -329 5 -435
65 -222 210 -409 404 -519 230 -130 524 -146 762 -40 161 71 315 208 398 355
275 487 31 1088 -509 1250 -92 28 -310 35 -404 14z m120 -276 l0 -159 -140 0
-140 0 10 24 c27 72 76 151 126 206 54 58 120 103 137 93 4 -2 7 -76 7 -164z
m171 143 c63 -40 132 -123 174 -208 19 -40 35 -78 35 -83 0 -7 -46 -11 -135
-11 l-135 0 0 165 c0 91 4 165 8 165 4 0 28 -13 53 -28z m-472 -89 c-30 -47
-65 -119 -83 -169 l-13 -39 -81 -3 c-45 -2 -82 0 -82 4 0 15 84 115 125 149
58 47 148 106 153 100 3 -3 -6 -22 -19 -42z m767 -2 c66 -46 204 -183 204
-202 0 -5 -38 -9 -85 -9 -68 0 -85 3 -85 15 0 18 -71 169 -100 213 -12 17 -18
32 -13 32 6 0 41 -22 79 -49z m-900 -348 c-2 -10 -7 -43 -11 -73 -3 -30 -8
-72 -11 -92 l-6 -38 -109 0 -109 0 0 25 c0 34 20 122 36 162 l14 33 101 0 c91
0 100 -2 95 -17z m434 -93 l0 -110 -170 0 -170 0 0 35 c0 19 5 68 11 110 l11
75 159 0 159 0 0 -110z m423 96 c9 -24 29 -173 25 -190 -3 -15 -21 -17 -168
-17 l-165 0 -3 110 -3 111 155 0 c123 0 155 -3 159 -14z m338 -46 c9 -30 20
-79 24 -108 l7 -53 -114 3 -113 3 -7 68 c-3 38 -10 86 -13 108 l-7 40 103 -3
103 -3 17 -55z m-1221 -292 c1 -22 20 -162 26 -191 l6 -28 -103 3 -102 3 -19
55 c-10 30 -21 81 -25 113 l-6 57 112 0 c82 0 111 -3 111 -12z m458 -100 l-3
-113 -155 0 -155 0 -11 65 c-7 36 -12 86 -13 113 l-1 47 170 0 171 0 -3 -112z
m449 50 c-3 -35 -11 -87 -17 -115 l-12 -53 -154 0 -154 0 0 115 0 115 171 0
172 0 -6 -62z m343 39 c0 -34 -38 -177 -51 -193 -8 -10 -39 -14 -107 -14 l-95
0 7 41 c4 22 9 68 12 102 8 93 0 87 124 87 109 0 110 0 110 -23z m-1160 -396
c17 -44 45 -101 61 -126 16 -25 29 -48 29 -51 0 -3 -23 7 -51 22 -62 34 -162
125 -207 188 l-33 46 84 0 85 0 32 -79z m370 -86 c0 -131 -3 -165 -13 -165
-27 0 -111 65 -152 118 -35 45 -115 188 -115 207 0 3 63 5 140 5 l140 0 0
-165z m380 147 c0 -22 -78 -159 -115 -204 -34 -41 -122 -108 -141 -108 -11 0
-14 30 -14 165 l0 165 135 0 c123 0 135 -2 135 -18z m290 11 c0 -14 -86 -116
-129 -152 -51 -42 -140 -101 -154 -101 -4 0 1 13 13 30 19 27 88 169 103 213
5 14 19 17 87 17 44 0 80 -3 80 -7z"/>
<path d="M6334 4580 c-12 -4 -31 -21 -43 -36 -21 -27 -21 -27 -21 -706 0 -731
-1 -718 52 -746 16 -9 63 -12 153 -10 l130 3 0 30 0 30 -123 3 c-121 3 -123 3
-132 28 -11 27 -14 1273 -4 1311 6 21 12 23 133 25 l126 3 0 35 0 35 -125 2
c-69 1 -135 -2 -146 -7z"/>
<path d="M9193 4576 c-65 -29 -63 -5 -63 -743 0 -510 3 -674 13 -692 26 -52
52 -60 192 -62 l130 -1 3 36 3 35 -128 3 -128 3 0 675 0 675 125 5 125 5 0 35
0 35 -120 2 c-85 2 -129 -2 -152 -11z"/>
<path d="M7420 4545 l0 -35 118 0 c64 0 123 -4 130 -8 10 -7 12 -149 10 -678
l-3 -669 -125 -5 -125 -5 -3 -37 -3 -38 126 0 c133 0 174 10 195 49 6 13 10
257 10 714 l0 695 -31 26 c-30 25 -35 26 -165 26 l-134 0 0 -35z"/>
<path d="M10280 4545 l0 -34 128 -3 127 -3 0 -675 0 -675 -125 -5 -125 -5 -3
-37 -3 -38 128 0 c151 0 184 13 203 77 8 27 10 240 8 706 l-3 669 -33 29 -32
29 -135 0 -135 0 0 -35z"/>
<path d="M1026 4494 c-14 -14 -16 -85 -16 -635 l0 -619 -125 0 -125 0 0 -43
c0 -23 7 -53 16 -65 l15 -22 1303 0 c1250 0 1304 1 1319 18 11 12 17 36 17 65
l0 46 -120 3 -120 3 -3 618 c-2 599 -3 619 -21 633 -17 12 -179 14 -1072 14
-944 0 -1054 -2 -1068 -16z m1089 -34 c0 -8 -8 -16 -17 -18 -13 -2 -18 3 -18
18 0 15 5 20 18 18 9 -2 17 -10 17 -18z m985 -590 l0 -540 -1005 0 -1005 0 0
540 0 540 1005 0 1005 0 0 -540z m-865 -695 c0 -19 -8 -20 -134 -23 -136 -3
-159 3 -148 33 6 13 26 15 144 13 130 -3 138 -4 138 -23z"/>
<path d="M6454 4440 c-46 -18 -54 -46 -54 -183 l0 -129 29 -29 29 -29 545 0
545 0 31 26 31 26 0 137 c0 135 0 138 -26 162 l-26 24 -541 2 c-298 1 -552 -2
-563 -7z m1086 -180 l0 -110 -532 2 -533 3 -3 94 c-1 52 -1 100 2 108 4 11
105 13 536 13 l530 0 0 -110z"/>
<path d="M6560 4255 c0 -33 2 -35 35 -35 33 0 35 2 35 35 0 33 -2 35 -35 35
-33 0 -35 -2 -35 -35z m50 0 c0 -8 -7 -15 -15 -15 -8 0 -15 7 -15 15 0 8 7 15
15 15 8 0 15 -7 15 -15z"/>
<path d="M6650 4255 c0 -33 2 -35 35 -35 33 0 35 2 35 35 0 33 -2 35 -35 35
-33 0 -35 -2 -35 -35z m50 0 c0 -8 -6 -15 -14 -15 -17 0 -28 14 -19 24 12 12
33 6 33 -9z"/>
<path d="M6740 4255 c0 -33 2 -35 35 -35 33 0 35 2 35 35 0 33 -2 35 -35 35
-33 0 -35 -2 -35 -35z m50 0 c0 -8 -9 -15 -20 -15 -11 0 -20 7 -20 15 0 8 9
15 20 15 11 0 20 -7 20 -15z"/>
<path d="M7420 4275 c-18 -22 -1 -50 31 -50 20 0 24 5 24 30 0 23 -5 31 -21
33 -11 2 -27 -4 -34 -13z m43 -20 c1 -5 -6 -11 -15 -13 -11 -2 -18 3 -18 13 0
17 30 18 33 0z"/>
<path d="M9311 4436 c-42 -23 -50 -53 -51 -173 0 -124 9 -157 51 -179 42 -21
1077 -21 1118 1 39 20 51 61 51 175 0 121 -12 158 -56 176 -48 20 -1077 20
-1113 0z m1089 -176 l0 -110 -530 0 -530 0 0 110 0 110 530 0 530 0 0 -110z"/>
<path d="M9420 4254 c0 -35 1 -35 38 -32 34 3 37 6 40 36 3 31 2 32 -37 32
-40 0 -41 -1 -41 -36z m60 1 c0 -8 -9 -15 -20 -15 -11 0 -20 7 -20 15 0 8 9
15 20 15 11 0 20 -7 20 -15z"/>
<path d="M9510 4255 c0 -33 2 -35 35 -35 33 0 35 2 35 35 0 33 -2 35 -35 35
-33 0 -35 -2 -35 -35z m50 0 c0 -8 -7 -15 -15 -15 -8 0 -15 7 -15 15 0 8 7 15
15 15 8 0 15 -7 15 -15z"/>
<path d="M9600 4255 c0 -33 2 -35 35 -35 33 0 35 2 35 35 0 33 -2 35 -35 35
-33 0 -35 -2 -35 -35z m50 0 c0 -8 -7 -15 -15 -15 -8 0 -15 7 -15 15 0 8 7 15
15 15 8 0 15 -7 15 -15z"/>
<path d="M10279 4274 c-17 -21 0 -49 31 -49 31 0 48 28 31 49 -8 9 -21 16 -31
16 -10 0 -23 -7 -31 -16z m42 -19 c-1 -15 -24 -12 -29 3 -3 9 2 13 12 10 10
-1 17 -7 17 -13z"/>
<path d="M3500 4035 l0 -65 45 0 c25 0 45 5 45 10 0 6 -13 10 -30 10 -23 0
-30 4 -30 20 0 16 7 20 31 20 17 0 28 4 24 10 -3 6 -17 10 -31 10 -15 0 -24 6
-24 15 0 10 10 15 30 15 17 0 30 5 30 10 0 6 -20 10 -45 10 l-45 0 0 -65z"/>
<path d="M4340 4079 c0 -15 -5 -19 -19 -14 -38 12 -69 -53 -39 -83 7 -7 27
-12 45 -12 l33 0 0 65 c0 37 -4 65 -10 65 -5 0 -10 -9 -10 -21z m-2 -57 c4
-26 -26 -42 -38 -21 -11 16 7 52 23 46 7 -2 13 -13 15 -25z"/>
<path d="M5110 4090 c0 -5 4 -10 9 -10 6 0 13 5 16 10 3 6 -1 10 -9 10 -9 0
-16 -4 -16 -10z"/>
<path d="M10970 4035 l0 -65 38 0 c47 0 72 24 72 68 0 42 -23 62 -71 62 l-39
0 0 -65z m78 33 c27 -27 7 -78 -30 -78 -15 0 -18 8 -18 45 0 37 3 45 18 45 10
0 23 -5 30 -12z"/>
<path d="M11810 4079 c0 -16 -4 -19 -20 -14 -13 4 -23 0 -32 -14 -15 -24 -28
-27 -28 -7 0 8 -9 18 -21 21 -41 13 -78 -52 -47 -83 15 -15 68 -16 68 -2 0 6
-6 10 -12 9 -24 -3 -38 1 -38 11 0 6 15 10 34 10 25 0 35 -5 39 -20 4 -16 14
-20 46 -20 l41 0 0 65 c0 51 -3 65 -15 65 -8 0 -15 -9 -15 -21z m-100 -44 c0
-8 -7 -15 -15 -15 -16 0 -20 12 -8 23 11 12 23 8 23 -8z m97 4 c14 -14 5 -49
-13 -49 -18 0 -28 24 -20 45 6 18 18 19 33 4z"/>
<path d="M12585 4090 c3 -5 10 -10 16 -10 5 0 9 5 9 10 0 6 -7 10 -16 10 -8 0
-12 -4 -9 -10z"/>
<path d="M4113 4076 c-6 -8 -10 -22 -8 -32 14 -70 16 -74 35 -74 11 0 20 5 20
10 0 6 -4 10 -10 10 -15 0 -12 58 2 62 9 3 8 9 -4 21 -20 20 -20 20 -35 3z"/>
<path d="M5040 4075 c-7 -9 -21 -13 -31 -10 -42 14 -80 -35 -59 -75 11 -21 70
-29 70 -10 0 6 -6 10 -12 9 -32 -4 -39 2 -36 29 2 22 8 28 35 30 30 3 32 1 35
-35 2 -31 7 -39 26 -41 12 -2 22 1 22 7 0 6 -4 11 -10 11 -15 0 -12 58 2 62 9
3 8 9 -4 21 -20 21 -22 21 -38 2z"/>
<path d="M11583 4071 c-6 -10 -8 -22 -3 -27 5 -5 10 -22 12 -39 2 -22 9 -31
26 -33 12 -2 22 1 22 7 0 6 -7 11 -15 11 -20 0 -20 49 1 57 13 5 12 8 -5 24
-25 23 -24 23 -38 0z"/>
<path d="M12516 4074 c-4 -11 -14 -14 -35 -9 -48 10 -83 -49 -49 -83 14 -14
68 -16 68 -2 0 5 -9 9 -21 7 -12 -1 -26 5 -32 15 -15 23 9 50 42 46 22 -3 26
-9 29 -40 3 -34 6 -38 30 -38 25 1 25 2 10 14 -24 17 -24 66 -1 66 14 0 14 3
-5 20 -26 24 -28 24 -36 4z"/>
<path d="M3615 4061 c-3 -2 -5 -24 -5 -48 0 -56 27 -61 32 -5 4 46 22 45 26
-3 4 -46 32 -49 32 -2 0 45 -14 62 -50 62 -17 1 -33 -1 -35 -4z"/>
<path d="M3738 4059 c-21 -12 -24 -59 -6 -77 14 -14 58 -16 58 -2 0 5 -6 7
-13 4 -20 -7 -40 21 -32 46 4 11 15 20 26 20 11 0 17 5 14 10 -8 13 -25 12
-47 -1z"/>
<path d="M3814 4061 c-2 -2 -4 -24 -4 -48 0 -32 4 -43 15 -43 10 0 15 11 15
35 0 24 5 35 15 35 8 0 15 6 15 14 0 13 -44 18 -56 7z"/>
<path d="M3886 4063 c-9 -10 -7 -52 4 -74 6 -10 20 -19 30 -19 11 0 20 -4 20
-10 0 -5 -11 -10 -25 -10 -14 0 -25 -4 -25 -10 0 -14 54 -12 68 2 14 14 16
114 3 123 -6 3 -11 -12 -13 -32 -2 -27 -8 -39 -20 -41 -14 -3 -18 4 -18 32 0
34 -11 52 -24 39z"/>
<path d="M4000 3998 c0 -39 4 -68 10 -68 6 0 10 9 10 20 0 14 7 20 23 20 29 0
47 18 47 45 0 33 -16 48 -54 50 l-36 1 0 -68z m64 8 c-4 -9 -14 -16 -23 -14
-20 4 -27 38 -9 49 18 11 40 -13 32 -35z"/>
<path d="M4196 4057 c-12 -9 -17 -23 -14 -47 3 -31 6 -35 36 -38 17 -2 32 1
32 7 0 6 -6 8 -13 5 -8 -3 -20 2 -27 11 -11 13 -8 15 19 15 23 0 31 5 31 18 0
20 -18 42 -35 42 -6 0 -19 -6 -29 -13z m42 -25 c2 -7 -6 -12 -17 -12 -21 0
-27 11 -14 24 9 9 26 2 31 -12z"/>
<path d="M4446 4057 c-12 -9 -17 -23 -14 -47 3 -31 6 -35 36 -38 17 -2 32 1
32 6 0 5 -7 9 -16 8 -21 -1 -39 27 -31 48 4 9 16 16 27 16 12 0 18 5 15 10 -8
14 -28 13 -49 -3z"/>
<path d="M4527 4052 c-36 -39 -12 -86 40 -80 24 3 28 8 31 38 5 53 -38 78 -71
42z m51 -29 c2 -11 -4 -25 -12 -32 -21 -17 -44 23 -25 45 16 19 33 13 37 -13z"/>
<path d="M4653 4063 c-20 -4 -23 -11 -23 -49 0 -24 5 -44 10 -44 6 0 10 15 10
34 0 20 6 36 14 39 20 8 26 -2 26 -40 0 -23 5 -33 15 -33 18 0 21 51 5 81 -11
19 -15 20 -57 12z"/>
<path d="M4740 4018 c0 -27 5 -48 10 -48 6 0 10 15 10 34 0 20 6 36 14 39 20
8 26 -2 26 -40 0 -18 5 -33 10 -33 6 0 10 20 10 45 0 25 -4 46 -10 46 -5 1
-23 2 -40 3 -29 1 -30 0 -30 -46z"/>
<path d="M4854 4045 c-24 -37 -6 -75 36 -75 16 0 30 5 30 10 0 6 -6 10 -12 9
-24 -3 -38 1 -38 11 0 6 14 10 30 10 34 0 40 19 14 44 -22 23 -41 20 -60 -9z
m46 -10 c0 -8 -7 -15 -15 -15 -16 0 -20 12 -8 23 11 12 23 8 23 -8z"/>
<path d="M5165 4050 c-15 -16 -17 -26 -9 -48 8 -22 15 -27 44 -27 29 0 36 5
45 29 8 24 6 31 -14 47 -30 24 -43 24 -66 -1z m53 -30 c4 -23 -15 -43 -30 -34
-10 6 -11 48 -1 58 12 12 28 0 31 -24z"/>
<path d="M5265 4060 c-1 -3 -2 -23 -1 -44 2 -52 24 -59 28 -9 4 52 32 53 36 1
2 -21 7 -38 13 -38 12 0 12 90 -1 91 -30 4 -72 3 -75 -1z"/>
<path d="M11118 4059 c-18 -10 -23 -44 -12 -73 4 -11 19 -16 42 -16 19 0 32 3
28 7 -4 4 -15 8 -23 8 -9 0 -18 6 -20 13 -3 7 5 12 21 12 28 0 36 26 14 48
-14 14 -27 15 -50 1z m40 -27 c2 -7 -6 -12 -17 -12 -21 0 -27 11 -14 24 9 9
26 2 31 -12z"/>
<path d="M11210 4050 c-23 -23 -24 -33 -10 -61 11 -20 70 -28 70 -9 0 6 -6 10
-12 9 -32 -4 -39 2 -36 29 2 19 9 28 26 30 12 2 20 8 17 13 -10 15 -34 10 -55
-11z"/>
<path d="M11290 4018 c0 -26 5 -48 10 -48 6 0 10 13 10 30 0 19 7 33 21 40 25
14 18 23 -16 25 -23 1 -25 -3 -25 -47z"/>
<path d="M11366 4063 c-11 -11 -7 -68 6 -81 7 -7 23 -12 36 -12 13 0 20 -4 17
-10 -3 -5 -17 -10 -31 -10 -13 0 -24 -4 -24 -10 0 -14 54 -12 68 2 14 14 16
114 3 123 -6 3 -11 -12 -13 -32 -2 -27 -8 -39 -20 -41 -14 -3 -18 4 -18 32 0
34 -11 52 -24 39z"/>
<path d="M11474 4061 c-2 -2 -4 -33 -4 -68 0 -49 3 -63 15 -63 8 0 15 9 15 19
0 14 8 21 28 23 23 3 28 8 30 37 2 18 -2 39 -8 45 -10 10 -67 16 -76 7z m61
-42 c0 -15 -7 -25 -17 -27 -13 -3 -18 3 -18 21 0 13 3 27 7 31 13 12 28 -1 28
-25z"/>
<path d="M11917 4052 c-20 -22 -22 -53 -5 -70 14 -14 68 -16 68 -2 0 5 -10 9
-22 7 -19 -2 -23 3 -23 28 0 24 5 31 23 33 12 2 20 8 17 13 -10 15 -41 10 -58
-9z"/>
<path d="M12006 4054 c-20 -19 -21 -58 -2 -73 8 -7 27 -11 43 -9 24 3 28 8 31
38 5 51 -38 78 -72 44z m52 -34 c4 -27 -17 -44 -35 -28 -16 13 -17 30 -1 46
17 17 32 10 36 -18z"/>
<path d="M12104 4061 c-2 -2 -4 -24 -4 -48 0 -56 27 -61 32 -5 2 25 8 37 18
37 10 0 16 -12 18 -37 2 -21 7 -38 13 -38 14 0 11 78 -3 87 -14 8 -67 11 -74
4z"/>
<path d="M12213 4053 c-8 -21 2 -76 15 -81 8 -2 12 8 12 31 0 21 6 37 14 40
20 8 26 -2 26 -40 0 -18 5 -33 10 -33 6 0 10 20 10 45 0 25 -4 46 -10 46 -41
5 -73 2 -77 -8z"/>
<path d="M12338 4059 c-18 -10 -23 -44 -12 -73 4 -11 19 -16 42 -16 19 0 32 3
28 7 -4 4 -15 8 -23 8 -9 0 -18 6 -20 13 -3 7 5 12 21 12 28 0 36 26 14 48
-14 14 -27 15 -50 1z m40 -27 c2 -7 -6 -12 -17 -12 -21 0 -27 11 -14 24 9 9
26 2 31 -12z"/>
<path d="M12648 4059 c-18 -10 -23 -44 -12 -73 7 -19 55 -21 72 -4 17 17 15
54 -4 72 -18 18 -32 20 -56 5z m47 -29 c9 -28 -13 -54 -31 -39 -15 12 -19 41
-7 52 13 13 32 7 38 -13z"/>
<path d="M12763 4063 c-20 -4 -23 -11 -23 -49 0 -24 5 -44 10 -44 6 0 10 13
10 29 0 29 21 57 33 44 4 -3 7 -21 7 -40 0 -23 5 -33 15 -33 19 0 21 70 3 88
-12 12 -16 13 -55 5z"/>
<path d="M5110 4015 c0 -33 4 -45 15 -45 11 0 15 12 15 45 0 33 -4 45 -15 45
-11 0 -15 -12 -15 -45z"/>
<path d="M12582 4018 c4 -59 28 -63 28 -4 0 35 -4 46 -16 46 -12 0 -14 -9 -12
-42z"/>
<path d="M6429 3991 l-29 -29 0 -129 c0 -140 6 -161 57 -182 21 -8 175 -11
567 -9 l538 3 24 28 c23 27 24 35 24 160 -1 137 -5 153 -47 175 -16 9 -171 12
-563 12 l-542 0 -29 -29z m1106 -156 l0 -110 -530 0 -530 0 -3 99 c-2 64 1
103 9 112 10 12 95 14 533 12 l521 -3 0 -110z"/>
<path d="M6643 3854 c-2 -7 -3 -23 -1 -36 2 -19 10 -24 41 -26 36 -3 37 -2 37
31 0 32 -2 35 -36 39 -23 3 -38 0 -41 -8z m55 -27 c2 -10 -3 -17 -12 -17 -18
0 -29 16 -21 31 9 14 29 6 33 -14z"/>
<path d="M6560 3825 c0 -33 2 -35 35 -35 33 0 35 2 35 35 0 33 -2 35 -35 35
-33 0 -35 -2 -35 -35z m50 5 c0 -11 -6 -20 -13 -20 -19 0 -27 10 -20 26 8 21
33 17 33 -6z"/>
<path d="M6732 3828 c3 -30 6 -33 41 -36 36 -3 37 -3 37 32 0 35 -1 36 -41 36
-39 0 -40 -1 -37 -32z m56 -1 c2 -12 -3 -17 -17 -17 -12 0 -21 6 -21 13 0 31
32 34 38 4z"/>
<path d="M7422 3848 c-18 -18 -14 -46 9 -58 26 -14 49 3 49 35 0 32 -35 46
-58 23z m36 -25 c-4 -22 -22 -20 -26 1 -2 10 3 16 13 16 10 0 15 -7 13 -17z"/>
<path d="M9307 4009 c-36 -21 -47 -63 -47 -178 0 -124 9 -152 54 -176 28 -14
85 -16 568 -13 l538 3 27 28 c27 26 28 33 31 134 2 62 -1 123 -7 145 -21 70
-5 68 -608 68 -347 -1 -544 -4 -556 -11z m1091 -176 l3 -113 -531 0 -530 0 0
108 c0 60 3 112 7 115 3 4 241 6 527 5 l521 -3 3 -112z"/>
<path d="M9420 3825 c0 -33 2 -35 35 -35 33 0 35 2 35 35 0 33 -2 35 -35 35
-33 0 -35 -2 -35 -35z m55 5 c0 -8 -8 -16 -17 -18 -13 -2 -18 3 -18 18 0 15 5
20 18 18 9 -2 17 -10 17 -18z"/>
<path d="M9510 3825 c0 -33 2 -35 35 -35 33 0 35 2 35 35 0 33 -2 35 -35 35
-33 0 -35 -2 -35 -35z m50 5 c0 -11 -7 -20 -15 -20 -8 0 -15 9 -15 20 0 11 7
20 15 20 8 0 15 -9 15 -20z"/>
<path d="M9600 3825 c0 -33 2 -35 35 -35 33 0 35 2 35 35 0 33 -2 35 -35 35
-33 0 -35 -2 -35 -35z m50 5 c0 -11 -6 -20 -14 -20 -18 0 -29 16 -21 30 11 18
35 11 35 -10z"/>
<path d="M10280 3841 c-18 -34 10 -68 44 -55 35 13 23 74 -14 74 -11 0 -24 -9
-30 -19z m46 -12 c10 -17 -13 -36 -27 -22 -12 12 -4 33 11 33 5 0 12 -5 16
-11z"/>
<path d="M5420 3983 c0 -3 9 -16 20 -30 11 -14 20 -35 20 -46 l0 -20 -1015 7
c-987 6 -1015 6 -1015 -12 0 -18 24 -19 638 -25 350 -4 807 -7 1015 -7 l377 0
0 -24 c0 -13 -9 -35 -21 -50 -11 -14 -16 -26 -10 -26 11 0 443 97 476 107 24
8 39 3 -264 77 -122 29 -221 51 -221 49z"/>
<path d="M12915 3964 c9 -13 20 -36 26 -51 l10 -26 -1014 7 c-917 6 -1015 5
-1021 -9 -3 -9 0 -18 7 -20 6 -2 464 -8 1017 -12 997 -8 1005 -8 1002 -28 -2
-11 -12 -32 -23 -47 -11 -16 -15 -28 -10 -28 16 0 454 100 474 108 17 7 -87
35 -431 117 l-53 13 16 -24z"/>
<path d="M6444 3578 c-35 -17 -44 -52 -44 -178 0 -113 1 -120 26 -149 l26 -31
554 0 555 0 24 25 c24 23 25 29 25 160 0 131 -1 137 -25 160 l-24 25 -548 -1
c-356 0 -555 -4 -569 -11z m1091 -173 l0 -110 -530 0 -530 0 -3 99 c-1 55 0
106 2 113 5 11 101 13 533 11 l528 -3 0 -110z"/>
<path d="M6570 3399 c0 -39 1 -40 33 -37 29 3 32 6 35 41 3 36 3 37 -32 37
-35 0 -36 -1 -36 -41z m50 1 c0 -11 -6 -20 -14 -20 -18 0 -29 16 -21 30 11 18
35 11 35 -10z"/>
<path d="M6654 3426 c-3 -8 -4 -25 -2 -38 2 -19 9 -23 38 -23 33 0 35 2 38 38
3 36 3 37 -33 37 -22 0 -38 -6 -41 -14z m56 -20 c0 -8 -5 -18 -11 -22 -14 -8
-33 11 -25 25 10 16 36 13 36 -3z"/>
<path d="M6742 3403 c3 -36 5 -38 38 -38 33 0 35 2 38 38 l3 37 -41 0 -41 0 3
-37z m56 0 c-2 -10 -10 -18 -18 -18 -8 0 -16 8 -18 18 -2 12 3 17 18 17 15 0
20 -5 18 -17z"/>
<path d="M7426 3414 c-9 -24 12 -56 36 -52 30 4 45 32 29 52 -17 21 -57 21
-65 0z m54 -14 c0 -5 -5 -12 -11 -16 -14 -8 -33 11 -25 25 7 11 36 4 36 -9z"/>
<path d="M9293 3566 c-28 -24 -28 -26 -31 -153 -3 -128 -3 -130 23 -161 l27
-32 553 0 554 0 28 24 c27 24 28 27 31 141 3 77 0 127 -8 146 -26 61 -3 59
-602 59 l-547 0 -28 -24z m1102 -161 l0 -110 -527 -3 -528 -2 0 108 c0 60 3
112 7 115 3 4 241 6 527 5 l521 -3 0 -110z"/>
<path d="M9430 3400 c0 -39 1 -40 35 -40 34 0 35 1 35 40 0 39 -1 40 -35 40
-34 0 -35 -1 -35 -40z m50 0 c0 -11 -7 -20 -15 -20 -8 0 -15 9 -15 20 0 11 7
20 15 20 8 0 15 -9 15 -20z"/>
<path d="M9520 3399 c0 -39 1 -40 33 -37 29 3 32 6 35 41 3 36 3 37 -32 37
-35 0 -36 -1 -36 -41z m50 1 c0 -11 -7 -20 -15 -20 -8 0 -15 9 -15 20 0 11 7
20 15 20 8 0 15 -9 15 -20z"/>
<path d="M9604 3426 c-3 -8 -4 -25 -2 -38 2 -19 9 -23 38 -23 33 0 35 2 38 38
3 36 3 37 -33 37 -22 0 -38 -6 -41 -14z m56 -26 c0 -11 -6 -20 -14 -20 -18 0
-29 16 -21 30 11 18 35 11 35 -10z"/>
<path d="M10291 3411 c-13 -24 8 -55 34 -50 23 5 40 32 32 53 -9 22 -54 20
-66 -3z m42 -22 c-17 -17 -37 -1 -22 17 8 10 15 12 23 4 7 -7 7 -13 -1 -21z"/>
<path d="M6967 2993 c-4 -54 -7 -153 -7 -221 0 -123 0 -123 -22 -116 -13 3
-36 16 -52 27 -27 19 -28 19 -22 1 3 -10 26 -109 51 -219 25 -110 49 -216 54
-235 5 -23 10 -30 14 -20 12 28 117 473 113 477 -2 2 -19 -5 -37 -16 -60 -37
-59 -42 -59 199 0 178 -3 220 -13 220 -10 0 -16 -26 -20 -97z"/>
<path d="M9836 2838 c-31 -128 -59 -240 -62 -249 -4 -14 4 -12 43 8 l48 24 3
-221 c2 -211 3 -220 22 -220 19 0 20 9 22 218 3 211 4 217 23 214 11 -2 32
-12 48 -23 15 -11 27 -16 27 -11 0 13 -110 485 -114 489 -2 2 -29 -101 -60
-229z"/>
<path d="M6304 2156 l-34 -34 0 -681 c0 -468 3 -687 11 -704 21 -47 56 -57
198 -57 l131 0 0 35 0 34 -127 3 -128 3 -3 677 -2 678 22 5 c13 3 70 6 128 8
l105 2 0 30 0 30 -133 3 -133 3 -35 -35z"/>
<path d="M7428 2184 c-5 -4 -8 -22 -8 -40 l0 -33 128 -3 127 -3 0 -675 0 -675
-128 -3 -128 -3 3 -37 3 -37 132 0 132 0 30 29 31 30 0 696 0 696 -31 30 c-30
29 -32 29 -157 32 -70 2 -130 0 -134 -4z"/>
<path d="M9168 2161 l-33 -29 0 -697 0 -697 33 -29 32 -29 135 0 135 0 0 35 0
35 -114 0 c-63 0 -121 3 -130 6 -14 6 -16 75 -16 679 0 604 2 673 16 679 9 3
67 6 130 6 l114 0 0 35 0 35 -135 0 -135 0 -32 -29z"/>
<path d="M10287 2183 c-4 -3 -7 -21 -7 -39 l0 -33 128 -3 127 -3 0 -675 0
-675 -128 -3 -128 -3 3 -37 3 -37 117 -3 c87 -2 126 1 153 12 67 28 65 9 65
748 0 611 -1 666 -18 698 -11 24 -28 39 -52 47 -37 13 -252 18 -263 6z"/>
<path d="M6429 2021 l-29 -29 0 -132 c0 -125 1 -132 24 -155 13 -13 39 -26 57
-30 19 -3 270 -5 557 -3 l524 3 24 28 c23 27 24 35 24 160 -1 137 -5 153 -47
175 -16 9 -171 12 -563 12 l-542 0 -29 -29z m1099 -49 c9 -6 12 -36 10 -113
l-3 -104 -530 0 -530 0 -3 99 c-2 64 1 103 9 112 10 12 97 14 523 14 281 0
517 -4 524 -8z"/>
<path d="M6567 1894 c-4 -4 -7 -22 -7 -41 0 -31 2 -33 36 -33 35 0 35 1 32 38
-3 31 -7 37 -28 40 -14 2 -29 0 -33 -4z m43 -34 c0 -11 -7 -20 -15 -20 -8 0
-15 9 -15 20 0 11 7 20 15 20 8 0 15 -9 15 -20z"/>
<path d="M6650 1861 c0 -40 1 -41 36 -41 35 0 35 1 32 38 -3 34 -6 37 -35 40
-32 3 -33 2 -33 -37z m50 -1 c0 -11 -6 -20 -13 -20 -19 0 -27 10 -20 26 8 21
33 17 33 -6z"/>
<path d="M6739 1896 c-3 -3 -3 -21 -1 -41 4 -32 7 -35 39 -35 33 0 34 1 31 38
-3 33 -6 37 -33 40 -17 2 -33 1 -36 -2z m49 -39 c2 -12 -3 -17 -17 -17 -12 0
-21 6 -21 13 0 31 32 34 38 4z"/>
<path d="M7413 1874 c-9 -24 10 -49 38 -49 20 0 24 5 24 30 0 25 -4 30 -28 33
-18 2 -29 -2 -34 -14z m47 -20 c0 -8 -7 -14 -15 -14 -15 0 -21 21 -9 33 10 9
24 -2 24 -19z"/>
<path d="M9307 2039 c-36 -21 -47 -63 -47 -183 0 -114 1 -116 29 -148 l29 -33
551 0 551 0 27 28 c27 26 28 32 31 141 4 129 -9 179 -53 196 -36 14 -1094 13
-1118 -1z m1091 -176 l3 -113 -531 0 -530 0 0 109 c0 78 4 111 13 114 6 3 244
5 527 4 l515 -2 3 -112z"/>
<path d="M9427 1894 c-4 -4 -7 -23 -7 -41 0 -33 1 -34 38 -31 35 3 37 5 37 38
0 32 -3 35 -30 38 -17 2 -34 0 -38 -4z m48 -34 c0 -8 -8 -16 -17 -18 -13 -2
-18 3 -18 18 0 15 5 20 18 18 9 -2 17 -10 17 -18z"/>
<path d="M9517 1894 c-4 -4 -7 -22 -7 -41 0 -31 2 -33 36 -33 35 0 35 1 32 38
-3 31 -7 37 -28 40 -14 2 -29 0 -33 -4z m43 -34 c0 -11 -7 -20 -15 -20 -8 0
-15 9 -15 20 0 11 7 20 15 20 8 0 15 -9 15 -20z"/>
<path d="M9607 1894 c-4 -4 -7 -22 -7 -41 0 -31 2 -33 36 -33 35 0 35 1 32 38
-3 31 -7 37 -28 40 -14 2 -29 0 -33 -4z m43 -34 c0 -11 -7 -20 -15 -20 -8 0
-15 9 -15 20 0 11 7 20 15 20 8 0 15 -9 15 -20z"/>
<path d="M10276 1874 c-9 -22 11 -54 34 -54 23 0 43 32 34 54 -8 21 -60 21
-68 0z m50 -5 c10 -17 -13 -36 -27 -22 -12 12 -4 33 11 33 5 0 12 -5 16 -11z"/>
<path d="M6429 1591 c-29 -29 -29 -30 -29 -153 0 -124 8 -155 44 -180 6 -4
260 -8 564 -8 l553 0 24 25 c24 23 25 29 25 160 0 131 -1 137 -25 160 l-24 25
-551 0 -552 0 -29 -29z m1106 -156 l0 -110 -530 0 -530 0 -3 99 c-1 55 0 106
2 113 5 11 101 13 533 11 l528 -3 0 -110z"/>
<path d="M6560 1430 c0 -39 1 -40 35 -40 34 0 35 1 35 40 0 39 -1 40 -35 40
-34 0 -35 -1 -35 -40z m50 0 c0 -11 -7 -20 -15 -20 -8 0 -15 9 -15 20 0 11 7
20 15 20 8 0 15 -9 15 -20z"/>
<path d="M6644 1456 c-3 -8 -4 -25 -2 -38 2 -19 10 -24 41 -26 l37 -3 0 40 c0
40 -1 41 -35 41 -22 0 -38 -6 -41 -14z m56 -26 c0 -11 -6 -20 -14 -20 -18 0
-29 16 -21 30 11 18 35 11 35 -10z"/>
<path d="M6734 1456 c-3 -8 -4 -25 -2 -38 2 -19 10 -24 41 -26 l38 -3 -3 38
c-3 35 -6 38 -36 41 -21 2 -34 -2 -38 -12z m56 -26 c0 -13 -7 -20 -20 -20 -19
0 -27 20 -13 33 13 14 33 6 33 -13z"/>
<path d="M7421 1446 c-21 -25 -4 -58 27 -54 23 2 27 8 27 33 0 23 -5 31 -21
33 -11 2 -26 -4 -33 -12z m42 -21 c1 -5 -6 -11 -15 -13 -11 -2 -18 3 -18 13 0
17 30 18 33 0z"/>
<path d="M9293 1596 l-28 -24 0 -135 c0 -130 1 -137 24 -161 l24 -26 557 0
557 0 24 26 c21 23 24 36 27 126 5 122 -2 163 -33 194 l-24 24 -550 0 -550 0
-28 -24z m1102 -161 l0 -110 -527 -3 -528 -2 0 108 c0 60 3 112 7 115 3 4 241
6 527 5 l521 -3 0 -110z"/>
<path d="M9420 1430 c0 -39 1 -40 35 -40 34 0 35 1 35 40 0 39 -1 40 -35 40
-34 0 -35 -1 -35 -40z m55 0 c0 -8 -8 -16 -17 -18 -13 -2 -18 3 -18 18 0 15 5
20 18 18 9 -2 17 -10 17 -18z"/>
<path d="M9510 1430 c0 -39 1 -40 35 -40 34 0 35 1 35 40 0 39 -1 40 -35 40
-34 0 -35 -1 -35 -40z m50 0 c0 -11 -7 -20 -15 -20 -8 0 -15 9 -15 20 0 11 7
20 15 20 8 0 15 -9 15 -20z"/>
<path d="M9600 1430 c0 -39 1 -40 35 -40 34 0 35 1 35 40 0 39 -1 40 -35 40
-34 0 -35 -1 -35 -40z m50 0 c0 -11 -6 -20 -14 -20 -18 0 -29 16 -21 30 11 18
35 11 35 -10z"/>
<path d="M10280 1440 c-9 -16 -8 -25 1 -36 26 -32 84 0 62 34 -16 26 -50 27
-63 2z m45 -10 c3 -6 -1 -13 -10 -16 -19 -8 -30 0 -20 15 8 14 22 14 30 1z"/>
<path d="M8410 1484 c0 -2 9 -18 20 -36 36 -59 40 -58 -200 -58 -213 0 -220
-1 -220 -20 0 -19 7 -20 220 -20 245 0 242 1 200 -67 -11 -18 -17 -33 -13 -33
8 0 439 99 468 107 19 6 19 6 -2 14 -12 4 -91 25 -175 45 -84 20 -186 44 -225
54 -40 9 -73 16 -73 14z"/>
<path d="M6425 1164 c-24 -26 -25 -33 -25 -156 l0 -130 29 -29 29 -29 550 0
549 0 27 25 c26 24 26 26 26 160 0 131 -1 137 -25 160 l-24 25 -556 0 -556 0
-24 -26z m1110 -159 l0 -110 -519 -3 c-375 -1 -523 1 -532 9 -10 8 -14 39 -14
109 0 53 3 100 7 103 3 4 243 6 532 5 l526 -3 0 -110z"/>
<path d="M6570 1005 c0 -33 2 -35 35 -35 33 0 35 2 35 35 0 33 -2 35 -35 35
-33 0 -35 -2 -35 -35z m50 0 c0 -8 -9 -15 -20 -15 -11 0 -20 7 -20 15 0 8 9
15 20 15 11 0 20 -7 20 -15z"/>
<path d="M6650 1005 c0 -34 1 -35 40 -35 39 0 40 1 40 35 0 34 -1 35 -40 35
-39 0 -40 -1 -40 -35z m60 0 c0 -8 -9 -15 -20 -15 -11 0 -20 7 -20 15 0 8 9
15 20 15 11 0 20 -7 20 -15z"/>
<path d="M6740 1005 c0 -34 1 -35 40 -35 39 0 40 1 40 35 0 34 -1 35 -40 35
-39 0 -40 -1 -40 -35z m60 0 c0 -8 -9 -15 -20 -15 -11 0 -20 7 -20 15 0 8 9
15 20 15 11 0 20 -7 20 -15z"/>
<path d="M7436 1024 c-9 -8 -16 -19 -16 -24 0 -11 29 -40 40 -40 11 0 40 29
40 40 0 11 -29 40 -40 40 -5 0 -16 -7 -24 -16z m40 -15 c10 -17 -13 -36 -27
-22 -12 12 -4 33 11 33 5 0 12 -5 16 -11z"/>
<path d="M9285 1158 c-26 -31 -26 -33 -23 -161 3 -127 3 -129 31 -153 l28 -24
547 0 c599 0 576 -2 602 59 8 19 11 69 8 144 -3 106 -5 118 -27 141 l-24 26
-558 0 -557 0 -27 -32z m1110 -153 l0 -110 -525 0 -525 0 -3 113 -3 112 528
-2 528 -3 0 -110z"/>
<path d="M9430 1005 c0 -33 2 -35 35 -35 33 0 35 2 35 35 0 33 -2 35 -35 35
-33 0 -35 -2 -35 -35z m50 0 c0 -8 -7 -15 -15 -15 -8 0 -15 7 -15 15 0 8 7 15
15 15 8 0 15 -7 15 -15z"/>
<path d="M9520 1005 c0 -33 2 -35 35 -35 33 0 35 2 35 35 0 33 -2 35 -35 35
-33 0 -35 -2 -35 -35z m50 0 c0 -8 -7 -15 -15 -15 -8 0 -15 7 -15 15 0 8 7 15
15 15 8 0 15 -7 15 -15z"/>
<path d="M9607 1033 c-4 -3 -7 -19 -7 -35 0 -26 3 -28 40 -28 39 0 40 1 40 35
0 33 -2 35 -33 35 -19 0 -37 -3 -40 -7z m53 -28 c0 -8 -9 -15 -20 -15 -11 0
-20 7 -20 15 0 8 9 15 20 15 11 0 20 -7 20 -15z"/>
<path d="M10296 1025 c-9 -9 -16 -20 -16 -25 0 -15 32 -41 48 -38 24 5 39 35
26 56 -15 23 -38 26 -58 7z m40 -16 c10 -17 -13 -36 -27 -22 -12 12 -4 33 11
33 5 0 12 -5 16 -11z"/>
<path d="M6630 405 c0 -78 3 -95 15 -95 12 0 15 13 15 60 0 33 3 60 8 60 4 0
23 -27 41 -60 23 -38 41 -60 53 -60 16 0 18 10 18 95 0 78 -3 95 -15 95 -12 0
-15 -13 -15 -60 0 -33 -3 -60 -8 -60 -4 0 -22 27 -40 60 -23 41 -39 60 -53 60
-17 0 -19 -8 -19 -95z"/>
<path d="M7057 493 c-4 -3 -7 -17 -7 -30 0 -20 -4 -22 -24 -17 -34 8 -66 -26
-66 -70 0 -49 21 -65 80 -64 l50 1 0 94 c0 71 -3 93 -13 93 -8 0 -17 -3 -20
-7z m-9 -112 c4 -35 -11 -53 -34 -44 -31 11 -18 87 13 81 12 -2 19 -14 21 -37z"/>
<path d="M7348 493 c-10 -2 -18 -11 -18 -20 0 -11 6 -14 24 -9 31 8 56 -2 56
-20 0 -8 -20 -37 -45 -63 -25 -26 -45 -53 -45 -60 0 -7 23 -11 65 -11 51 0 65
3 65 15 0 11 -11 15 -36 15 l-36 0 31 35 c30 35 40 76 23 102 -9 14 -58 24
-84 16z"/>
<path d="M9440 406 c0 -89 2 -96 20 -96 16 0 19 8 22 62 l3 63 35 -60 c24 -40
43 -61 58 -63 21 -3 22 -1 22 92 0 89 -2 96 -20 96 -16 0 -19 -8 -22 -62 l-3
-63 -35 60 c-24 40 -43 61 -58 63 -21 3 -22 1 -22 -92z"/>
<path d="M9870 470 c0 -27 -2 -29 -28 -24 -37 8 -66 -25 -65 -72 1 -51 17 -64
74 -62 l49 1 0 93 c0 77 -3 94 -15 94 -10 0 -15 -10 -15 -30z m-2 -86 c4 -38
-20 -63 -43 -44 -29 24 -15 83 19 78 15 -2 22 -11 24 -34z"/>
<path d="M10163 493 c-13 -2 -23 -11 -23 -19 0 -11 8 -13 33 -9 24 5 37 2 46
-9 17 -20 6 -36 -25 -36 -34 0 -31 -28 4 -32 19 -2 27 -9 27 -23 0 -16 -8 -21
-43 -23 -56 -4 -51 -26 7 -30 30 -2 49 2 62 14 21 18 25 49 9 59 -6 3 -7 23
-4 44 8 51 -30 77 -93 64z"/>
<path d="M6833 435 c-43 -30 -36 -109 12 -121 61 -15 102 21 91 81 -9 48 -62
69 -103 40z m65 -51 c4 -38 -20 -63 -43 -44 -15 13 -21 61 -8 74 4 4 16 6 28
4 14 -2 21 -12 23 -34z"/>
<path d="M7135 425 c-48 -47 -19 -115 50 -115 25 0 35 4 35 15 0 11 -7 14 -23
10 -15 -4 -28 -1 -36 9 -15 18 -7 23 44 28 25 3 30 7 27 28 -5 51 -58 65 -97
25z m65 -20 c0 -9 -9 -15 -25 -15 -24 0 -32 10 -18 23 12 13 43 7 43 -8z"/>
<path d="M9640 430 c-26 -26 -26 -81 -2 -103 23 -21 76 -22 96 -1 25 24 21 90
-6 108 -31 22 -64 20 -88 -4z m68 -22 c26 -26 1 -85 -31 -72 -22 8 -33 50 -17
69 15 18 32 19 48 3z"/>
<path d="M9950 430 c-24 -24 -27 -82 -4 -104 21 -22 94 -22 94 0 0 11 -5 14
-16 10 -23 -9 -54 2 -54 20 0 10 12 14 40 14 36 0 40 3 40 24 0 27 -33 56 -62
56 -10 0 -27 -9 -38 -20z m68 -27 c2 -9 -7 -13 -27 -13 -23 0 -29 4 -24 16 6
17 44 15 51 -3z"/>
</g>
</svg>
