<?xml version="1.0" standalone="no"?>
<!DOCTYPE svg PUBLIC "-//W3C//DTD SVG 20010904//EN"
 "http://www.w3.org/TR/2001/REC-SVG-20010904/DTD/svg10.dtd">
<svg version="1.0" xmlns="http://www.w3.org/2000/svg"
 width="8157.000000pt" height="8042.000000pt" viewBox="0 0 8157.000000 8042.000000"
 preserveAspectRatio="xMidYMid meet">

<g transform="translate(0.000000,8042.000000) scale(0.100000,-0.100000)"
fill="#000000" stroke="none">
<path d="M1451 80404 c-171 -38 -290 -142 -336 -294 -16 -51 -26 -1695 -136
-22345 -65 -12260 -118 -22488 -116 -22730 l2 -440 31 -65 c17 -36 50 -86 72
-111 39 -44 129 -100 195 -121 22 -7 9653 -37 30145 -93 l30113 -84 102 -103
c56 -57 128 -123 159 -147 l57 -43 -6 -286 c-8 -374 14 -746 62 -1082 l13 -95
-31 -25 c-110 -88 -263 -225 -396 -355 -652 -637 -1161 -1417 -1478 -2265 -36
-96 -66 -176 -67 -177 -4 -4 -185 158 -304 271 -74 70 -121 106 -170 129 -62
30 -75 32 -172 32 -97 0 -110 -2 -173 -32 -127 -61 -136 -73 -499 -728 -1286
-2323 -1939 -3623 -2513 -5000 -660 -1587 -1172 -3305 -1254 -4215 -16 -167
-13 -494 4 -642 77 -657 375 -1165 881 -1501 275 -182 593 -297 994 -359 134
-21 615 -17 760 5 494 77 947 263 1369 562 51 36 95 64 97 62 2 -2 -26 -73
-62 -158 -791 -1859 -1478 -3659 -2155 -5644 l-197 -580 -2114 2 c-1789 1
-5267 19 -5275 27 -1 1 20 69 47 151 229 698 399 1512 484 2315 47 436 60 691
60 1180 0 462 -7 632 -45 1020 -146 1508 -633 2781 -1396 3650 -680 775 -1524
1223 -2588 1374 -1083 154 -2378 250 -4150 308 -530 18 -2922 18 -3435 0
-1424 -48 -2743 -139 -3248 -223 -1245 -207 -2301 -1051 -2997 -2392 -391
-755 -661 -1699 -770 -2696 -65 -597 -72 -1349 -19 -1986 62 -756 207 -1559
415 -2303 22 -79 39 -146 36 -148 -2 -2 -780 9 -1728 26 -2456 42 -4048 69
-4539 75 -234 3 -470 8 -525 11 l-100 6 0 9186 c1 5417 -3 9210 -8 9242 -26
155 -139 278 -302 328 -45 14 -889 16 -8260 17 -7948 2 -9166 4 -11825 26
-1122 9 -1251 8 -1305 -6 -163 -43 -279 -171 -307 -341 -9 -51 -9 -1467 1
-5599 6 -3041 15 -7131 18 -9087 l6 -3558 -1099 0 c-704 0 -1115 -4 -1143 -11
-116 -26 -237 -125 -286 -231 -102 -224 8 -485 240 -570 l60 -22 3190 -7
c4778 -10 8611 -39 13840 -104 3696 -46 6575 -91 14085 -220 11589 -199 15839
-252 22223 -275 1364 -4 2480 -10 2482 -12 2 -2 -50 -174 -115 -383 -66 -208
-121 -386 -122 -395 -3 -10 -12 -14 -28 -12 -14 2 -934 8 -2045 12 -7424 31
-11303 78 -23110 285 -7870 138 -10918 185 -15145 235 -4579 54 -9976 90
-13617 90 -1578 0 -1623 -1 -1684 -19 -153 -48 -262 -175 -287 -336 -28 -178
70 -359 236 -438 l67 -32 1725 -7 c7049 -28 8582 -38 12230 -78 4528 -50 8034
-103 15900 -240 6460 -113 8508 -147 11250 -185 4714 -65 7827 -93 11608 -102
1453 -3 2642 -10 2642 -14 0 -4 -74 -266 -165 -583 -91 -316 -168 -599 -171
-629 -13 -107 34 -240 112 -321 58 -61 101 -86 219 -130 l100 -37 -98 -202
c-707 -1445 -1495 -3660 -2021 -5682 -158 -606 -318 -1366 -294 -1391 7 -6
6494 -265 6567 -262 l53 3 457 842 c251 464 460 842 465 840 18 -6 76 -131
110 -237 86 -265 141 -658 167 -1200 6 -135 13 -247 15 -249 23 -26 3911 -37
4664 -13 698 21 1367 50 1583 68 66 6 77 9 77 25 0 26 -216 1169 -295 1559
-303 1498 -625 2547 -1041 3392 -52 104 -94 190 -94 191 0 2 60 -3 133 -10 72
-6 164 -12 202 -13 l70 -1 40 -56 c48 -66 122 -135 201 -188 270 -179 687
-180 1031 -1 l83 43 5 -36 c71 -486 227 -802 527 -1067 429 -381 1004 -444
1439 -159 100 66 282 249 351 355 227 345 338 790 338 1360 0 449 -82 898
-241 1314 -27 71 -49 130 -49 131 0 1 19 8 43 15 126 37 209 109 282 245 107
199 308 547 519 899 343 571 758 1261 762 1265 5 5 272 17 819 35 1127 39
2072 59 4160 91 2556 39 4321 86 4460 121 143 35 251 138 295 282 74 240 -83
492 -332 531 -28 5 -136 5 -238 0 -498 -22 -1548 -52 -2405 -69 -924 -17
-1115 -20 -2105 -35 -1783 -27 -3360 -63 -4002 -91 -82 -4 -148 -4 -148 0 0 6
131 249 367 684 l34 62 72 0 c222 -1 8280 171 8370 179 89 7 119 14 170 39 68
34 146 105 182 167 54 91 68 220 36 324 -49 157 -163 261 -323 292 -39 8
-1071 -11 -4067 -75 -2208 -47 -4016 -84 -4018 -82 -2 2 28 75 67 162 540
1192 837 2192 946 3174 22 196 30 760 15 956 -7 82 -16 203 -21 269 -13 183
-61 374 -315 1270 -258 906 -871 2857 -1060 3370 -448 1217 -1106 2274 -2001
3217 -395 416 -801 767 -1367 1182 -811 596 -1505 1046 -2052 1332 -144 75
-164 89 -199 136 l-39 53 27 226 c14 125 29 263 33 307 3 44 9 86 13 93 6 8
73 14 225 20 778 29 1510 209 2260 556 88 41 184 88 214 104 l54 31 276 2
c303 3 433 18 666 75 951 234 1663 946 1834 1834 99 514 -11 1065 -303 1512
-56 85 -63 101 -48 107 9 4 87 29 172 56 1120 357 1975 1129 2440 2204 l34 78
1750 -3 c1315 -1 1773 1 1838 10 183 25 317 137 368 308 9 31 19 5341 45
22500 l34 22460 26 62 c88 214 -8 446 -228 548 -103 47 -152 58 -238 50 -41
-3 -227 -8 -414 -11 -254 -3 -70419 320 -75750 350 -789 4 -940 3 -994 -10z
m39159 -1005 c19896 -93 36348 -170 36559 -171 l384 -3 -624 -588 c-343 -323
-633 -598 -644 -611 l-20 -23 -36375 300 -36375 300 -214 221 c-118 122 -334
342 -480 489 l-266 268 940 -6 c517 -3 17219 -83 37115 -176z m-37897 -1167
l187 -192 0 -1293 c0 -710 -16 -9990 -35 -20622 l-35 -19330 -97 -97 c-54 -53
-307 -299 -563 -547 l-465 -450 -3 47 c-5 69 218 42710 224 43017 l6 260 297
-300 c163 -165 381 -387 484 -493z m75467 -21567 c-17 -11615 -32 -21120 -33
-21121 -2 -3 -725 686 -1021 972 l-168 163 11 3753 c23 7889 45 17508 61
27258 5 3352 12 6899 15 7881 l5 1787 27 58 c21 47 28 80 32 157 l6 97 545
512 545 512 3 -454 c1 -250 -11 -9959 -28 -21575z m-37793 20799 c19697 -162
35815 -294 35818 -294 3 0 5 -559 5 -1241 l0 -1242 -123 7 c-1208 64 -2448 94
-4317 103 -4110 19 -8189 -138 -10812 -417 -1451 -154 -2468 -341 -3058 -562
-388 -145 -833 -381 -1185 -628 l-80 -56 -1110 22 c-610 13 -1173 23 -1250 23
l-140 1 -1 158 c-5 634 -282 1251 -772 1723 -381 368 -857 598 -1362 659 -125
15 -381 12 -522 -6 -680 -87 -1312 -510 -1740 -1164 -374 -571 -479 -1276
-292 -1958 191 -699 682 -1250 1359 -1526 639 -260 1358 -247 1950 38 241 116
417 240 618 436 217 210 365 411 492 665 39 77 71 142 72 143 2 4 1807 -30
1812 -34 2 -2 -24 -36 -56 -76 -33 -40 -113 -147 -178 -238 -136 -192 -177
-241 -300 -369 -342 -355 -826 -615 -1318 -711 -84 -16 -267 -50 -407 -75
-1586 -284 -3139 -824 -4430 -1540 -1703 -944 -3090 -2189 -4449 -3994 -301
-400 -525 -717 -1196 -1696 -529 -771 -820 -1150 -1110 -1441 -137 -138 -142
-142 -224 -174 -331 -125 -992 -222 -1876 -275 -265 -15 -806 -37 -811 -33 -1
2 17 822 42 1823 24 1001 44 1844 44 1872 0 49 2 53 28 59 446 97 840 313
1165 638 390 390 643 907 718 1466 16 124 16 419 0 540 -53 390 -183 736 -395
1054 -387 580 -955 960 -1611 1077 -112 20 -162 24 -360 23 -244 0 -331 -10
-525 -59 -319 -81 -638 -243 -910 -462 -371 -298 -706 -771 -843 -1190 -87
-265 -121 -482 -120 -768 0 -286 34 -496 125 -773 116 -355 319 -678 583 -930
329 -314 765 -537 1211 -618 l101 -18 -4 -121 c-8 -232 -83 -3454 -83 -3539
l0 -86 -267 5 c-456 10 -915 25 -1218 41 -1927 99 -3468 360 -4146 700 -240
120 -565 380 -796 637 -415 460 -679 910 -1228 2097 -284 613 -467 979 -659
1314 -625 1089 -1386 1841 -2387 2360 -1033 535 -2321 822 -3969 886 -902 35
-4813 -10 -8462 -96 -395 -10 -720 -16 -722 -13 -4 4 -106 2469 -106 2558 l0
44 823 -7 c1044 -9 2502 14 2805 44 167 16 281 90 348 225 45 91 44 85 90 790
78 1224 91 1474 104 2047 13 549 -7 1334 -41 1588 -19 150 -105 271 -234 331
-85 40 -140 44 -810 64 -2420 70 -4870 98 -6735 77 -806 -9 -837 -10 -892 -30
-145 -52 -249 -172 -277 -317 -9 -47 -18 -359 -41 -1510 -15 -745 -22 -2170
-12 -2585 8 -355 10 -389 30 -438 45 -115 143 -207 262 -248 67 -23 38 -22
969 -5 605 11 931 11 1754 1 557 -6 1013 -13 1014 -14 2 -2 25 -558 53 -1237
27 -679 51 -1273 54 -1320 l6 -86 -273 -7 c-416 -10 -2188 -61 -3692 -106
-742 -23 -1367 -40 -1388 -38 -37 3 -40 6 -57 55 -36 101 -255 481 -423 733
-197 295 -402 561 -630 816 l-125 141 -11 414 c-6 228 -14 483 -17 567 -4 83
-3 152 0 152 4 0 134 -105 289 -233 334 -276 332 -274 409 -298 380 -119 695
306 469 634 -20 30 -188 176 -481 417 -247 205 -450 373 -450 375 0 1 28 19
63 40 236 145 433 360 557 606 155 311 195 632 115 945 -133 526 -605 891
-1245 965 -164 18 -430 7 -556 -25 -250 -62 -452 -172 -634 -343 -215 -203
-353 -462 -405 -762 -20 -111 -19 -333 1 -452 34 -200 118 -403 232 -562 111
-156 292 -318 453 -406 l67 -36 -142 -145 c-158 -162 -274 -295 -447 -511
-143 -180 -164 -215 -185 -310 -47 -207 76 -415 284 -479 131 -41 270 -16 380
68 18 14 104 113 190 220 86 107 167 206 179 221 l23 26 0 -80 c0 -44 7 -313
15 -598 l14 -518 -570 -864 -570 -864 -62 -5 c-84 -8 -1516 -41 -1520 -35 -2
2 -1 1716 4 3809 4 2093 8 3997 8 4232 l1 427 418 -5 c229 -3 16533 -138
36229 -300z m-25967 -934 c861 -11 1522 -24 2360 -45 918 -24 1132 -32 1141
-46 13 -22 22 -562 16 -989 -8 -552 -25 -904 -93 -1952 l-28 -427 -36 -5 c-19
-3 -294 -11 -610 -17 -654 -13 -2377 -7 -3310 13 -322 6 -1196 12 -1944 12
l-1359 1 6 1115 c5 1038 20 2066 33 2257 l6 82 46 4 c107 8 3084 6 3772 -3z
m-7520 -1601 c251 -31 428 -131 495 -281 78 -172 23 -402 -136 -572 -112 -120
-236 -184 -403 -207 -306 -43 -598 158 -646 443 -22 126 3 270 62 367 77 125
233 230 378 254 50 8 167 7 250 -4z m45127 -58 c397 -82 773 -350 1017 -723
241 -371 315 -802 210 -1222 -116 -461 -447 -874 -858 -1071 -418 -199 -945
-186 -1385 35 -423 212 -688 563 -792 1050 -20 90 -23 135 -23 315 0 179 3
225 22 311 45 210 111 366 226 539 302 451 701 724 1148 784 109 15 317 6 435
-18z m20158 -911 c1576 -13 2564 -37 3565 -86 173 -8 348 -16 388 -17 l73 -1
-7 -971 c-4 -533 -7 -971 -8 -972 -1 -1 -82 7 -181 17 -313 33 -461 41 -825
47 -488 8 -926 -15 -1110 -58 -576 -134 -1015 -683 -1079 -1350 -11 -117 272
-13512 289 -13664 24 -214 84 -416 180 -605 81 -158 164 -273 285 -395 192
-193 380 -301 645 -373 88 -24 111 -26 295 -25 l200 0 635 140 635 139 3 -244
c1 -135 1 -247 -1 -249 -2 -2 -475 -97 -1050 -213 -817 -163 -1058 -215 -1102
-236 -158 -74 -258 -268 -227 -437 34 -182 169 -316 353 -347 65 -11 74 -10
1025 180 527 105 969 194 982 197 l22 5 0 -230 c0 -211 -1 -231 -17 -236 -10
-3 -70 -16 -133 -30 -349 -75 -866 -208 -1235 -317 -2397 -713 -4600 -1893
-6520 -3494 -707 -590 -1392 -1257 -1996 -1946 -1975 -2253 -3386 -5058 -4043
-8035 -196 -891 -332 -1838 -385 -2699 -6 -93 -14 -207 -17 -252 l-6 -83 -179
0 -179 0 0 63 c0 35 5 191 10 347 24 675 53 964 142 1419 38 196 41 219 31
277 -24 139 -111 258 -232 316 -56 27 -81 33 -157 36 -141 7 -247 -37 -334
-135 -64 -73 -87 -135 -130 -350 -91 -459 -128 -817 -150 -1453 -6 -173 -13
-361 -16 -417 l-6 -103 -363 0 -363 0 -7 87 c-10 116 1 1036 15 1238 29 437
68 806 121 1160 154 1011 438 2025 857 3060 153 380 170 427 207 571 46 178
62 350 48 497 -33 322 -156 563 -422 827 -175 173 -251 230 -866 647 -3451
2336 -6483 5126 -9055 8333 -341 426 -492 573 -788 770 -348 232 -749 381
-1177 436 -177 23 -496 23 -670 0 -254 -34 -464 -90 -757 -202 -2143 -823
-3849 -2369 -5096 -4620 -1329 -2398 -2126 -5621 -2346 -9489 -47 -817 -57
-1190 -63 -2327 l-5 -1058 -1256 0 -1255 0 7 198 c52 1506 164 2867 352 4272
312 2338 828 4679 1541 6990 140 455 153 516 153 724 0 227 -48 441 -145 643
-78 164 -161 280 -300 419 -182 182 -357 289 -600 367 -152 49 -270 65 -560
76 -1601 66 -3938 78 -5565 31 -3914 -115 -6352 -479 -7348 -1098 -287 -179
-472 -385 -905 -1009 -598 -862 -1371 -2081 -3474 -5478 -2233 -3607 -3058
-4912 -3730 -5896 -89 -130 -168 -253 -177 -273 l-15 -36 -286 0 -286 0 19 28
c98 139 931 1430 951 1472 23 48 26 68 26 160 0 97 -2 110 -32 173 -60 126
-172 212 -311 237 -139 25 -298 -34 -385 -143 -57 -71 -1069 -1628 -1096
-1687 -22 -47 -25 -69 -26 -152 l0 -98 -393 0 c-312 0 -392 3 -386 13 35 58
481 767 716 1134 626 983 1138 1768 2573 3948 1814 2755 2862 4387 3497 5445
648 1079 909 1825 909 2600 1 369 -53 698 -177 1083 -141 437 -325 817 -794
1637 -355 621 -491 886 -880 1705 -1150 2424 -1908 4367 -2470 6330 -471 1647
-815 3363 -1035 5160 -22 176 -31 220 -54 271 -51 109 -136 185 -252 225 -64
21 -66 21 -379 10 -1158 -42 -1928 -51 -4545 -51 -2883 0 -4489 -14 -5875 -50
-521 -14 -1287 -38 -1550 -50 -118 -5 -250 -10 -292 -10 l-78 0 0 276 c0 152
3 274 8 272 60 -30 114 -50 158 -57 39 -6 360 8 1057 45 551 29 1018 56 1038
59 113 19 238 118 290 228 116 248 -25 533 -292 589 -47 10 -222 3 -1060 -41
-1024 -53 -1074 -58 -1159 -101 l-40 -20 0 419 0 419 192 6 c106 4 540 16 963
26 975 26 2415 67 4545 130 6649 198 8907 247 12386 270 1526 10 2007 5 2474
-25 1449 -95 2580 -395 3455 -917 619 -370 1112 -847 1543 -1494 268 -404 489
-823 912 -1734 447 -962 717 -1447 1045 -1879 378 -498 859 -924 1299 -1150
788 -405 2421 -693 4531 -801 497 -25 707 -31 1355 -37 2006 -17 3474 133
4068 417 148 71 216 123 392 299 353 354 633 717 1265 1636 652 949 791 1147
1100 1560 830 1111 1639 1966 2540 2686 1004 803 2121 1432 3360 1894 837 312
1729 549 2690 715 461 80 722 159 1050 320 356 174 615 359 895 640 168 167
277 298 415 497 141 202 237 316 434 514 329 329 671 576 1106 800 316 163
532 245 881 334 1522 390 4830 661 9339 765 584 13 1864 31 2450 33 270 1 528
3 575 4 47 2 589 -2 1205 -7z m3170 -2820 c132 -5 299 -15 370 -20 159 -13
467 -49 473 -55 5 -4 -16 -12989 -22 -13843 -2 -316 -6 -576 -9 -578 -3 -3
-326 -75 -718 -160 -645 -141 -721 -155 -784 -151 -85 6 -139 26 -227 84 -176
116 -294 336 -318 595 -6 62 -74 3114 -152 6782 -137 6461 -141 6673 -125
6768 48 279 229 506 437 547 30 5 141 15 245 21 353 20 528 22 830 10z
m-68196 -1120 c147 -198 410 -604 399 -616 -2 -2 -245 -10 -539 -19 -294 -8
-570 -16 -615 -17 l-80 -3 215 325 c118 179 256 389 308 468 l94 143 63 -78
c34 -43 104 -134 155 -203z m32133 -630 c607 -124 1114 -645 1254 -1290 29
-129 26 -437 -4 -577 -103 -475 -399 -886 -799 -1110 -495 -276 -1161 -232
-1663 111 -113 77 -285 253 -363 372 -162 245 -242 501 -254 810 -7 187 5 306
47 470 70 272 233 540 475 779 261 259 567 414 895 455 104 12 296 3 412 -20z
m-23338 -3762 c15 -141 120 -855 171 -1168 572 -3485 1549 -6454 3415 -10375
377 -792 501 -1031 835 -1615 401 -701 535 -960 665 -1285 314 -787 305 -1413
-30 -2230 -50 -122 -274 -579 -302 -618 -12 -17 -113 -18 -1918 -32 -1048 -8
-2088 -16 -2311 -18 l-407 -4 -6 61 c-28 249 -127 565 -258 816 -447 861
-1362 1402 -2253 1332 -749 -59 -1406 -471 -1868 -1172 -191 -289 -308 -597
-364 -955 -25 -156 -25 -536 0 -695 146 -932 727 -1620 1608 -1905 263 -85
483 -119 769 -118 319 0 583 49 860 160 648 257 1163 814 1396 1508 l43 130
63 2 c140 5 4121 33 4125 29 9 -9 -819 -1319 -1454 -2301 -384 -594 -867
-1333 -1428 -2185 -2028 -3081 -2541 -3870 -3315 -5100 -401 -638 -538 -861
-545 -891 l-7 -26 -626 -7 c-1027 -10 -9131 -30 -9139 -23 -7 8 33 26060 43
27633 l6 952 122 6 c309 16 1335 50 2016 66 1140 27 1728 32 4935 40 3143 8
4051 15 4755 39 124 4 264 9 311 9 l86 2 7 -62z m32751 -11708 c415 -48 797
-226 1104 -515 46 -44 174 -192 284 -330 1020 -1270 1943 -2302 3067 -3426
1953 -1954 3943 -3592 6315 -5200 560 -380 704 -499 785 -651 30 -55 35 -74
38 -155 7 -148 -16 -232 -163 -588 -550 -1337 -896 -2692 -1025 -4015 -50
-518 -76 -1149 -64 -1621 l6 -297 -173 -5 c-150 -5 -16768 -59 -17786 -57
l-373 0 0 623 c0 1510 48 2692 156 3877 116 1276 315 2561 561 3615 31 132 58
252 61 267 4 26 5 26 106 32 55 3 718 10 1471 16 754 6 1573 13 1820 17 l450
6 37 -134 c88 -328 231 -617 425 -860 234 -293 558 -538 905 -683 766 -321
1606 -257 2253 171 824 545 1260 1555 1074 2488 -237 1187 -1345 2074 -2482
1986 -732 -56 -1376 -451 -1839 -1126 -192 -280 -306 -549 -374 -885 -14 -69
-26 -125 -27 -126 -4 -2 -3582 -32 -3584 -30 -3 3 106 364 168 556 266 817
537 1483 885 2180 565 1128 1207 2036 1993 2820 742 739 1580 1313 2531 1735
439 194 719 287 953 314 104 12 338 12 442 1z m27459 -2142 c-4 -1265 -17
-6491 -29 -11783 -3 -1298 -8 -2568 -11 -2823 l-6 -463 -152 7 c-83 3 -254 9
-380 13 l-230 6 -22 168 c-96 715 -322 1425 -640 2011 -585 1076 -1446 1782
-2431 1990 -191 40 -333 56 -553 63 -251 7 -411 -5 -706 -52 l-41 -7 -48 68
c-71 100 -388 413 -545 538 -832 663 -1868 930 -2990 770 -803 -114 -1603
-450 -2285 -960 -378 -282 -746 -649 -1020 -1019 -488 -656 -783 -1412 -856
-2194 l-11 -124 -113 -201 c-111 -198 -307 -567 -361 -678 -24 -50 -32 -58
-56 -58 -27 0 -28 2 -23 38 2 20 7 96 10 167 13 291 56 775 106 1165 401 3174
1697 6228 3693 8704 1148 1424 2558 2682 4126 3682 200 127 593 365 597 361 6
-6 -108 -3652 -115 -3676 -6 -19 -26 -30 -112 -61 -205 -72 -337 -137 -511
-251 -578 -378 -971 -986 -1075 -1664 -20 -132 -23 -448 -5 -575 57 -410 186
-751 406 -1080 401 -599 1008 -968 1714 -1041 161 -17 493 -6 647 20 1139 194
1922 1043 2035 2206 14 145 6 427 -16 575 -58 390 -202 743 -429 1050 -81 110
-258 296 -366 383 -321 260 -738 434 -1170 491 -63 8 -152 18 -197 21 l-82 7
5 112 c3 61 32 975 65 2030 32 1056 60 1920 61 1922 2 1 120 60 263 131 971
481 2043 886 3107 1173 265 71 703 178 735 179 l22 1 -5 -1342z m-40499 -1823
c789 -6 1787 -31 2230 -55 257 -14 359 -54 501 -195 121 -120 183 -249 199
-412 10 -102 -7 -188 -95 -473 -1182 -3833 -1829 -7652 -1948 -11512 -5 -142
-10 -259 -13 -262 -2 -2 -3692 -15 -8199 -30 -4507 -14 -8768 -29 -9468 -32
l-1273 -7 264 399 c677 1022 1501 2333 3379 5369 2196 3551 3040 4878 3597
5650 331 459 399 525 696 666 1131 538 4052 861 8130 898 429 4 911 6 1070 4
160 -1 578 -5 930 -8z m-21688 -320 c400 -89 770 -352 1005 -715 118 -181 208
-403 244 -600 26 -142 24 -382 -4 -528 -72 -363 -273 -716 -538 -943 -110 -95
-138 -113 -90 -60 21 24 48 64 60 90 20 44 21 62 24 437 l3 391 38 12 c52 15
114 84 136 151 41 124 -19 265 -135 316 l-40 18 0 481 c0 547 0 544 -75 614
-42 38 -120 71 -170 71 -61 0 -131 -33 -181 -84 -89 -92 -88 -83 -92 -608 l-3
-458 -460 0 -459 0 0 478 c0 536 -1 543 -69 611 -62 62 -142 75 -235 41 -72
-27 -139 -88 -173 -158 l-28 -57 0 -1095 c0 -1053 1 -1097 19 -1144 37 -97
150 -186 236 -186 91 0 169 52 218 144 l27 51 3 393 3 392 459 0 459 0 4 -382
c4 -410 6 -425 57 -496 68 -95 183 -128 286 -83 l49 21 -30 -25 c-45 -37 -250
-139 -337 -168 -179 -60 -266 -72 -498 -71 -183 0 -230 3 -317 22 -635 138
-1071 560 -1202 1165 -75 348 -32 725 116 1022 154 305 418 594 700 763 155
93 350 165 519 192 89 13 386 5 471 -15z m34000 -2010 c400 -89 770 -352 1005
-715 118 -181 208 -403 244 -600 26 -142 24 -382 -4 -528 -74 -372 -279 -727
-556 -960 -198 -166 -386 -260 -633 -319 -110 -26 -132 -27 -338 -27 -190 0
-234 3 -322 22 -716 156 -1169 663 -1233 1379 -25 274 30 573 147 808 156 310
438 614 719 775 151 86 341 155 500 180 89 13 386 5 471 -15z m24093 -905
c614 -75 1074 -469 1223 -1045 39 -153 50 -245 49 -425 -1 -386 -119 -732
-348 -1026 -425 -546 -1279 -742 -1911 -439 -323 154 -568 405 -733 748 -67
138 -101 236 -132 381 -30 137 -32 437 -5 566 86 400 334 762 682 992 208 138
396 209 645 243 117 16 416 19 530 5z m-3212 -8491 c372 -427 725 -1038 916
-1587 91 -264 157 -538 192 -808 23 -174 23 -545 0 -698 -22 -147 -24 -137 32
-120 90 28 277 55 417 61 279 11 582 -46 828 -156 l67 -30 -36 -78 c-185 -397
-324 -809 -399 -1177 -61 -300 -67 -379 -70 -821 -3 -501 -22 -700 -96 -1003
-74 -305 -210 -604 -384 -847 -39 -55 -60 -91 -52 -93 31 -7 298 96 472 183
234 116 477 269 709 448 l28 22 74 -79 c142 -152 266 -366 318 -547 210 -737
-316 -1520 -1164 -1734 -185 -47 -289 -58 -515 -55 -115 2 -259 3 -320 4
l-110 1 -285 -142 c-157 -78 -354 -169 -438 -203 -441 -176 -879 -284 -1362
-337 -231 -25 -746 -25 -985 1 -736 77 -1428 289 -2127 648 -175 90 -501 279
-512 296 -3 5 16 33 41 63 100 119 181 259 228 391 l28 78 41 -6 c162 -23 330
-97 441 -194 123 -108 253 -153 376 -131 277 48 429 335 314 589 -64 141 -345
352 -602 452 -193 76 -405 120 -578 120 l-90 0 -40 57 c-54 75 -180 191 -258
236 l-63 38 14 82 c10 55 15 154 16 297 0 186 -3 228 -21 312 -114 507 -423
834 -883 934 -63 14 -128 19 -253 19 -160 0 -167 1 -167 20 0 11 -5 63 -10
115 -31 292 -29 810 5 1135 100 953 430 1910 1078 3119 l112 208 130 65 c71
36 227 117 345 181 699 376 1090 496 1615 495 378 -1 682 -64 1100 -230 402
-159 535 -201 710 -224 362 -47 759 133 961 437 53 79 114 222 114 265 0 33
20 18 98 -72z m-7538 -1943 c0 -3 -23 -42 -52 -88 -106 -171 -188 -380 -230
-589 -19 -97 -23 -144 -22 -319 0 -119 5 -230 12 -264 7 -33 10 -61 7 -64 -6
-6 -56608 146 -57788 155 l-939 8 504 487 503 488 535 1 c294 0 13144 42
28555 93 32675 109 28915 97 28915 92z m870 -426 c-102 -278 -216 -652 -260
-852 -7 -32 -17 -58 -21 -58 -8 0 -31 73 -50 165 -20 95 -15 295 10 390 27
105 106 263 175 350 49 62 205 209 213 201 2 -1 -28 -90 -67 -196z m13655 25
c231 -8 494 -15 585 -15 l165 0 473 -453 c260 -248 468 -453 461 -456 -11 -3
-2252 19 -2255 22 -1 1 9 61 23 132 34 184 61 401 75 608 12 168 13 177 33
177 11 0 209 -7 440 -15z m-12932 -4027 c88 -38 147 -133 174 -281 26 -143 3
-317 -82 -628 -51 -185 -55 -244 -25 -341 62 -202 263 -327 467 -289 65 12 67
12 91 -13 22 -21 25 -34 25 -86 -1 -93 -53 -193 -152 -290 -123 -122 -279
-218 -726 -446 -503 -257 -987 -471 -1470 -651 -66 -24 -141 -58 -168 -75
l-47 -30 -98 58 c-205 122 -363 227 -359 238 2 6 32 92 65 191 269 802 692
1496 1272 2089 256 262 426 403 593 495 163 89 318 110 440 59z m-56238 -1768
c1051 -5 5315 -10 9476 -10 l7566 0 6 -8093 c4 -4451 4 -8486 0 -8965 l-6
-872 -51 0 c-28 0 -312 5 -631 10 -1310 22 -4444 66 -6470 90 -4131 49 -7027
72 -12168 94 -538 2 -980 6 -983 9 -5 5 -20 6696 -31 13376 l-6 4384 694 -7
c382 -4 1554 -11 2604 -16z m52752 -1293 c445 -360 943 -686 1542 -1008 94
-50 169 -94 167 -98 -2 -3 -68 -118 -148 -256 -833 -1442 -1524 -2924 -2083
-4465 -151 -416 -281 -807 -289 -866 -16 -116 37 -256 129 -343 165 -156 405
-156 569 -1 30 28 66 75 80 103 15 29 72 185 127 347 377 1105 831 2194 1345
3230 l141 286 169 68 c203 82 460 175 694 250 l172 56 38 -33 c263 -226 405
-335 612 -471 657 -429 1375 -688 2173 -783 187 -22 794 -25 975 -5 596 66
1100 203 1618 441 120 55 350 175 396 207 17 11 43 -3 240 -135 420 -282 1043
-736 1311 -956 319 -261 676 -601 926 -880 689 -771 1213 -1616 1587 -2560
180 -456 797 -2393 1112 -3495 177 -620 251 -913 279 -1115 177 -1241 -223
-2789 -1230 -4763 -396 -776 -668 -1250 -1646 -2872 -138 -228 -308 -514 -378
-635 -70 -121 -128 -221 -130 -223 -2 -2 -153 22 -337 52 -472 78 -998 154
-1612 232 l-218 28 6 64 c20 192 88 491 166 724 204 608 557 1248 1220 2208
309 446 460 669 568 836 706 1091 1055 1930 1169 2809 25 196 25 683 0 870
-36 267 -132 700 -231 1047 -311 1088 -790 1950 -1542 2778 -203 224 -291 305
-368 341 -182 85 -404 24 -515 -142 -42 -63 -130 -318 -340 -992 -1154 -3687
-1849 -7512 -2081 -11452 -22 -381 -50 -956 -50 -1038 l0 -53 -222 22 c-2812
289 -5796 939 -8478 1849 -277 94 -793 276 -799 281 -6 5 64 254 216 769 1038
3526 2378 7111 3898 10430 210 460 215 471 227 535 47 268 -210 521 -479 471
-75 -14 -147 -46 -198 -89 -18 -15 -140 -151 -270 -302 -357 -412 -451 -516
-670 -738 -401 -408 -694 -637 -1040 -814 -234 -118 -400 -174 -650 -215 -161
-26 -477 -24 -636 5 -476 86 -811 330 -975 710 -79 182 -109 368 -108 657 1
331 45 608 184 1170 442 1785 1212 3679 2456 6037 266 505 1072 1987 1081
1988 2 0 60 -47 130 -103z m3976 14 l77 -55 -5 -45 c-2 -25 -7 -109 -10 -186
-17 -398 -113 -1199 -148 -1231 -7 -6 -93 -27 -192 -48 -363 -76 -934 -227
-1344 -356 -90 -28 -165 -50 -167 -48 -4 5 120 219 332 573 180 301 204 356
204 455 -1 113 -48 217 -135 299 l-62 57 206 89 c314 134 548 244 866 406 160
81 292 147 295 146 3 -1 40 -26 83 -56z m1058 -606 c431 -201 962 -382 1400
-479 147 -33 356 -72 432 -81 l57 -7 0 -42 c0 -35 -47 -463 -65 -592 l-6 -42
-107 -11 c-579 -61 -1141 -34 -1713 84 -120 25 -308 71 -314 77 -2 2 11 93 30
203 37 216 78 549 95 765 11 142 18 200 25 200 2 0 77 -34 166 -75z m-901
-1786 c277 -98 688 -201 1010 -253 366 -59 624 -79 1015 -79 337 0 562 16 869
59 l179 26 199 -98 c109 -54 195 -101 190 -105 -13 -14 -284 -116 -417 -158
-260 -81 -568 -144 -855 -173 -161 -16 -589 -16 -750 1 -496 51 -960 183
-1405 401 -224 110 -564 316 -547 331 4 4 72 21 152 38 80 17 163 35 185 40
22 5 45 9 50 10 6 0 62 -17 125 -40z m-22245 -5479 c1609 -47 2838 -130 3875
-261 489 -62 735 -110 990 -197 343 -117 679 -299 960 -522 135 -106 421 -393
534 -535 396 -497 706 -1156 895 -1901 106 -422 174 -835 217 -1334 21 -248
30 -996 15 -1275 -51 -930 -210 -1828 -471 -2663 -55 -176 -146 -440 -159
-461 -7 -11 -178 -12 -1112 -2 -3048 32 -5980 71 -9679 131 -1163 19 -4643 77
-4924 83 l-129 2 -58 200 c-598 2041 -633 4069 -98 5713 164 503 431 1049 697
1425 419 589 907 993 1480 1223 293 118 497 162 977 208 995 97 2089 154 3495
180 332 6 2165 -4 2495 -14z m27548 -2468 c508 -671 825 -1346 1052 -2237 62
-244 129 -567 146 -710 16 -131 16 -481 0 -620 -91 -795 -455 -1620 -1206
-2730 -288 -427 -254 -383 -305 -391 -39 -6 -1400 22 -1407 30 -4 4 107 672
167 1001 322 1782 724 3460 1240 5170 155 512 194 634 202 629 3 -2 53 -66
111 -142z m-1110 -7511 c142 -5 261 -11 263 -14 3 -3 -40 -77 -95 -165 -83
-133 -196 -326 -337 -579 l-24 -41 -92 -6 c-164 -10 -558 -16 -558 -8 0 6 48
380 90 712 6 47 13 91 15 98 5 15 335 16 738 3z m-573 -1654 c0 -2 -18 -57
-40 -122 -144 -426 -217 -827 -227 -1245 -5 -223 -4 -238 17 -299 23 -70 60
-129 109 -175 17 -17 31 -32 31 -36 0 -3 -28 -42 -62 -85 -121 -158 -244 -355
-347 -560 -49 -97 -47 -113 -26 256 36 625 82 1235 140 1854 19 203 35 377 35
387 0 9 8 19 18 21 19 5 352 9 352 4z m1217 -2097 c164 -23 400 -57 526 -75
125 -19 232 -35 237 -35 16 0 115 -159 190 -303 154 -299 257 -637 301 -992
19 -148 16 -513 -5 -665 -59 -438 -224 -709 -429 -710 -146 0 -332 126 -430
291 -130 221 -152 582 -67 1127 21 136 18 190 -14 280 -69 192 -299 306 -502
247 -120 -34 -274 -148 -541 -400 -92 -87 -194 -178 -226 -202 -60 -44 -163
-83 -219 -83 l-30 0 7 63 c10 89 66 305 109 422 85 228 241 504 396 700 95
121 351 375 377 375 12 0 156 -18 320 -40z"/>
<path d="M15030 76436 c-107 -23 -238 -75 -275 -110 -54 -51 -59 -134 -11
-179 l23 -22 5 -451 c4 -404 6 -454 21 -478 33 -50 117 -43 172 14 l30 31 3
154 3 154 47 6 c26 3 59 8 73 10 24 4 45 -17 195 -186 92 -105 180 -197 195
-205 46 -23 85 -18 124 19 24 22 38 44 42 70 5 32 1 45 -31 91 -20 30 -65 81
-100 114 -34 33 -85 87 -113 119 l-50 58 55 40 c139 102 220 305 177 450 -40
139 -150 240 -314 289 -77 23 -194 28 -271 12z m249 -247 c28 -12 65 -37 81
-56 57 -64 36 -181 -45 -251 -64 -57 -121 -78 -267 -97 l-48 -6 0 210 0 210
38 6 c20 4 42 8 47 11 25 10 148 -7 194 -27z"/>
<path d="M13981 76382 c-73 -78 -224 -451 -323 -796 -73 -256 -80 -307 -46
-356 47 -69 114 -75 166 -16 24 27 36 60 62 172 18 77 36 147 42 157 8 15 30
17 232 17 l224 0 25 -107 c14 -60 29 -128 32 -153 4 -25 16 -59 26 -76 48 -79
151 -68 190 20 17 40 18 49 5 123 -8 43 -21 106 -30 138 -8 33 -14 60 -13 60
1 1 14 6 29 13 37 16 63 58 63 105 0 32 -7 45 -38 73 -31 29 -44 34 -85 34
l-48 0 -67 153 c-79 178 -138 278 -225 382 -67 80 -90 95 -149 95 -29 0 -43
-8 -72 -38z m192 -436 c30 -61 57 -121 61 -133 l7 -23 -140 0 c-78 0 -141 2
-141 3 0 6 96 249 111 280 l13 28 17 -22 c9 -13 42 -73 72 -133z"/>
<path d="M12100 76364 c-121 -22 -217 -68 -285 -139 -94 -99 -120 -181 -90
-293 16 -57 27 -75 74 -123 65 -64 117 -88 285 -126 163 -36 197 -51 224 -98
31 -55 25 -106 -19 -151 -43 -45 -80 -54 -174 -43 -86 9 -174 45 -220 88 -39
37 -67 51 -102 51 -76 0 -126 -96 -89 -169 33 -63 203 -163 336 -197 102 -26
212 -16 294 26 121 61 180 127 212 236 33 116 4 232 -82 325 -81 86 -159 121
-355 160 -156 31 -192 65 -154 139 19 38 74 66 156 81 56 10 75 9 152 -10 49
-11 103 -21 121 -21 90 0 138 119 74 187 -43 46 -264 94 -358 77z"/>
<path d="M12682 76350 c-43 -26 -67 -77 -58 -124 6 -29 15 -40 49 -58 36 -19
63 -23 180 -26 l137 -4 0 -442 c0 -333 3 -447 13 -466 17 -33 74 -70 109 -70
41 0 87 26 98 56 6 15 10 212 10 473 l0 448 143 5 c184 6 217 21 217 99 0 38
-22 82 -56 108 -26 20 -36 21 -418 21 -373 0 -393 -1 -424 -20z"/>
<path d="M15822 76350 c-41 -25 -66 -81 -57 -127 5 -26 15 -38 48 -55 36 -19
63 -23 180 -26 l137 -4 0 -442 c0 -333 3 -447 13 -466 17 -33 74 -70 109 -70
41 0 87 26 98 56 6 15 10 212 10 473 l0 448 143 5 c184 6 217 21 217 99 0 38
-22 82 -56 108 -26 20 -36 21 -418 21 -375 0 -392 -1 -424 -20z"/>
<path d="M14510 74434 c-202 -43 -310 -113 -310 -202 0 -38 23 -87 43 -95 12
-5 15 -78 18 -459 4 -407 6 -457 21 -480 34 -51 118 -45 174 13 l29 30 3 154
3 154 32 5 c18 3 51 7 74 9 l42 5 167 -190 c92 -104 180 -196 195 -204 16 -8
41 -14 57 -14 52 0 112 66 112 123 0 31 -70 126 -141 193 -69 64 -164 174
-151 174 5 0 42 30 81 66 110 102 173 252 156 375 -10 70 -57 162 -110 214
-85 82 -253 146 -380 144 -27 0 -79 -7 -115 -15z m224 -231 c43 -12 71 -28
103 -58 41 -40 43 -44 43 -99 0 -132 -113 -232 -285 -251 -33 -3 -70 -8 -82
-11 l-23 -4 0 209 0 210 43 9 c66 15 135 13 201 -5z"/>
<path d="M12276 74381 c-15 -10 -37 -32 -47 -47 -18 -27 -19 -56 -19 -549 0
-498 1 -521 20 -552 21 -34 66 -63 100 -63 35 0 79 28 97 63 15 26 19 63 21
215 l4 182 208 0 208 0 4 -196 3 -196 37 -34 c44 -40 86 -44 136 -14 54 33 62
67 62 265 l0 175 25 10 c32 12 65 66 65 105 0 38 -33 92 -65 107 l-25 11 0
235 0 234 -35 35 c-33 33 -39 35 -85 31 -29 -3 -59 -13 -71 -24 -44 -38 -49
-71 -49 -294 l0 -210 -210 0 -210 0 0 208 c0 218 -6 261 -42 299 -27 29 -90
31 -132 4z"/>
<path d="M13665 74370 c-284 -12 -385 -50 -385 -145 0 -27 7 -51 19 -67 19
-24 20 -46 23 -439 3 -470 1 -454 85 -491 65 -29 339 -37 473 -14 128 22 155
32 185 67 58 70 3 179 -92 179 -15 0 -63 -7 -106 -15 -43 -8 -132 -15 -198
-15 l-119 0 0 110 0 110 83 0 c104 1 272 17 313 30 72 24 104 105 65 168 -32
51 -56 55 -226 43 -82 -6 -169 -11 -192 -11 l-43 0 0 129 0 128 83 6 c45 4
146 7 225 7 122 0 148 3 181 19 70 36 79 120 20 177 -29 28 -34 29 -127 30
-53 1 -173 -2 -267 -6z"/>
<path d="M15695 74370 c-249 -10 -347 -36 -380 -100 -21 -41 -19 -72 10 -114
l24 -36 3 -414 3 -415 30 -31 c44 -46 88 -54 305 -54 156 -1 211 3 275 17 97
23 122 38 141 84 19 45 5 92 -37 128 -35 29 -61 31 -174 10 -44 -8 -133 -14
-197 -15 l-118 0 0 108 0 109 153 7 c185 8 263 24 294 61 27 31 31 91 8 134
-25 49 -56 55 -228 42 -83 -6 -169 -11 -189 -11 l-38 0 0 129 0 128 77 7 c42
3 141 6 220 6 155 0 198 10 227 51 34 49 11 136 -44 164 -31 16 -66 17 -365 5z"/>
<path d="M51589 74610 c-170 -20 -367 -79 -524 -158 -68 -34 -107 -62 -161
-116 -82 -84 -104 -124 -104 -198 0 -100 80 -200 171 -214 l40 -7 -5 -816 c-3
-449 -5 -836 -6 -860 -1 -70 32 -126 93 -155 81 -40 175 -49 427 -43 251 5
394 25 543 75 124 42 188 84 303 197 117 115 167 194 215 335 29 86 33 106 33
210 -1 100 -4 126 -29 199 -16 45 -45 108 -65 140 -36 54 -135 155 -194 198
l-30 21 47 52 c109 122 168 264 175 426 11 270 -139 500 -413 630 -160 76
-336 105 -516 84z m261 -487 c212 -71 267 -258 115 -392 -82 -72 -177 -101
-352 -108 l-133 -6 0 251 0 251 53 10 c112 22 238 20 317 -6z m-25 -1008 c125
-26 254 -105 291 -177 21 -40 29 -147 15 -190 -15 -44 -91 -118 -157 -151
-105 -53 -279 -87 -446 -87 l-48 0 0 304 0 305 43 4 c103 9 237 5 302 -8z"/>
<path d="M73605 73360 c-553 -5 -561 -5 -615 -28 -155 -63 -253 -197 -267
-362 -6 -76 15 -173 52 -236 60 -101 180 -185 293 -203 82 -13 2300 5 2353 19
72 19 157 70 204 122 195 217 126 540 -141 665 l-59 28 -630 0 c-346 1 -882
-2 -1190 -5z"/>
<path d="M69898 73160 c-566 -15 -1047 -31 -1071 -34 -68 -10 -162 -60 -218
-116 -149 -149 -162 -392 -29 -560 44 -55 138 -114 214 -135 64 -18 101 -17
1154 9 1319 32 1328 33 1416 74 162 76 260 257 236 434 -22 158 -135 291 -287
338 -83 25 -91 25 -1415 -10z"/>
<path d="M64880 73044 c-515 -24 -938 -61 -1309 -114 -148 -22 -228 -51 -296
-111 -103 -90 -159 -243 -136 -372 28 -169 131 -289 289 -337 83 -26 105 -25
383 9 441 56 759 80 1184 89 349 8 822 0 1087 -18 200 -14 243 -9 341 43 76
40 159 130 188 204 19 47 23 77 24 163 0 98 -2 110 -32 172 -61 130 -186 220
-330 238 -151 20 -441 31 -868 34 -247 2 -484 2 -525 0z"/>
<path d="M60825 72693 c-16 -2 -104 -22 -195 -45 -765 -188 -1533 -525 -2185
-961 -346 -231 -399 -298 -400 -502 0 -92 3 -105 32 -167 77 -164 239 -260
412 -245 79 6 137 28 206 74 28 19 111 75 185 126 474 321 1041 594 1598 768
70 22 224 65 342 95 264 67 326 100 400 212 125 189 74 447 -114 573 -81 54
-199 85 -281 72z"/>
<path d="M66005 71704 c-981 -36 -1503 -76 -2175 -165 -2015 -267 -3680 -888
-4962 -1852 -329 -247 -556 -444 -853 -742 -483 -482 -877 -989 -1226 -1575
-57 -96 -120 -196 -139 -222 -20 -27 -42 -65 -49 -85 -7 -21 -50 -112 -96
-203 -712 -1410 -1108 -3001 -1252 -5025 -21 -302 -24 -887 -5 -1060 94 -847
407 -1625 918 -2276 116 -149 205 -246 590 -649 1470 -1540 2586 -2633 3684
-3611 1290 -1147 2494 -2073 3765 -2893 322 -208 569 -299 893 -327 353 -31
753 69 1047 261 143 94 196 141 450 395 380 382 631 608 1018 916 725 579
1528 1070 2401 1468 107 49 238 114 290 146 566 338 945 917 1030 1573 22 169
20 310 -9 734 -199 2910 -425 7853 -600 13158 -20 601 -29 683 -105 911 -193
582 -672 969 -1340 1085 -69 12 -203 18 -495 25 -413 8 -2620 19 -2780 13z
m2530 -844 c573 -9 612 -11 750 -49 303 -84 508 -293 569 -581 19 -87 24 -209
66 -1445 165 -4881 377 -9442 571 -12300 27 -399 29 -463 19 -565 -35 -341
-192 -645 -448 -866 -106 -91 -209 -152 -413 -244 -367 -166 -863 -425 -1208
-632 -897 -538 -1653 -1130 -2411 -1888 -260 -260 -316 -306 -443 -365 -125
-57 -184 -69 -357 -70 -253 0 -317 25 -715 284 -714 465 -1475 1020 -2195
1599 -354 285 -620 509 -1157 973 l-62 54 47 46 c26 26 699 677 1495 1447
l1448 1401 84 -39 c324 -149 630 -218 1000 -227 243 -6 375 6 583 53 961 215
1707 1062 1843 2094 16 123 16 419 0 540 -61 457 -245 884 -537 1250 -38 47
-123 139 -189 206 -366 366 -800 592 -1310 681 -144 25 -521 24 -660 -1 -245
-44 -436 -106 -650 -211 -655 -321 -1205 -1008 -1359 -1698 -76 -337 -83 -657
-21 -992 73 -396 245 -775 483 -1065 34 -41 62 -77 61 -80 -1 -5 -2550 -2473
-2804 -2714 l-135 -128 -97 88 c-412 378 -1143 1086 -1703 1650 -711 717
-1637 1681 -1789 1862 -189 227 -336 457 -475 742 -177 367 -282 727 -332
1150 -38 312 -16 898 62 1640 154 1478 494 2768 1011 3833 l96 197 171 0 c94
0 1170 7 2391 15 1221 9 2285 15 2365 13 l145 -3 3 -30 c9 -88 60 -298 103
-430 253 -764 865 -1321 1669 -1519 461 -113 909 -98 1343 44 816 269 1447
1015 1607 1900 133 741 -114 1520 -665 2089 -216 223 -431 380 -700 511 -235
115 -437 178 -690 215 -130 19 -409 22 -540 5 -663 -84 -1249 -449 -1687
-1050 -185 -255 -298 -485 -374 -759 -19 -68 -36 -126 -38 -129 -7 -7 -4585
-36 -4592 -29 -8 7 125 196 262 372 1041 1339 2521 2249 4443 2730 1073 268
2222 403 3761 439 198 5 1645 -4 2305 -14z m-3565 -2405 c304 -67 553 -206
785 -439 72 -72 161 -174 198 -226 124 -177 225 -409 273 -630 28 -129 26
-438 -4 -576 -70 -324 -226 -610 -461 -845 -328 -327 -710 -469 -1181 -437
-386 26 -751 187 -1010 448 -204 204 -335 452 -402 763 -19 88 -22 132 -22
322 0 190 3 234 22 322 65 300 217 572 462 827 267 278 590 448 930 490 74 9
337 -3 410 -19z m510 -7071 c191 -33 414 -131 600 -262 116 -82 305 -268 383
-378 168 -238 265 -470 303 -726 21 -145 14 -369 -16 -511 -118 -558 -528
-1040 -1026 -1206 -461 -154 -989 -81 -1408 196 -124 81 -308 263 -384 378
-164 247 -248 515 -259 821 -14 397 81 697 321 1017 257 343 569 564 922 652
183 46 370 52 564 19z"/>
<path d="M64930 68149 c-178 -23 -504 -163 -726 -310 -322 -214 -518 -547
-565 -959 -35 -307 51 -646 221 -871 68 -91 213 -226 291 -272 300 -176 668
-167 956 23 93 61 250 212 328 315 29 38 53 86 67 130 19 61 20 76 10 124 -28
131 -166 209 -302 171 -56 -15 -94 -50 -152 -135 -79 -119 -171 -208 -254
-247 -65 -31 -76 -33 -179 -33 -107 0 -112 1 -186 37 -138 68 -225 168 -286
329 -66 176 -67 389 -2 584 75 224 255 410 525 540 86 42 234 96 299 109 45
10 90 -26 144 -114 63 -102 110 -134 194 -134 233 0 313 244 152 462 -145 198
-320 280 -535 251z"/>
<path d="M64925 61099 c-104 -14 -288 -57 -382 -89 -158 -54 -284 -144 -332
-238 -68 -133 46 -294 220 -309 l59 -6 0 -870 c0 -643 3 -880 12 -909 16 -55
88 -132 154 -164 86 -42 151 -42 424 1 293 45 444 76 546 110 514 171 864 656
864 1197 0 362 -125 687 -350 910 -178 176 -397 290 -672 349 -108 24 -427 34
-543 18z m391 -494 c209 -28 354 -93 468 -210 232 -239 272 -602 105 -944 -43
-89 -64 -117 -133 -187 -68 -67 -99 -90 -177 -128 -52 -25 -145 -59 -209 -75
-109 -29 -301 -61 -362 -61 l-28 0 2 803 3 802 45 6 c83 11 168 9 286 -6z"/>
<path d="M71635 71587 c-168 -56 -281 -195 -293 -360 -8 -111 18 -1755 29
-1817 14 -82 61 -174 118 -229 235 -228 623 -112 697 208 19 82 -9 1818 -31
1904 -20 78 -54 134 -120 196 -82 77 -148 105 -265 108 -59 2 -110 -2 -135
-10z"/>
<path d="M56685 70083 c-68 -25 -133 -64 -172 -105 -47 -49 -1303 -2003 -1329
-2068 -45 -112 -40 -218 16 -337 116 -249 461 -309 658 -115 31 31 257 374
667 1011 341 531 632 985 647 1010 15 25 35 80 44 121 42 185 -49 371 -223
457 -68 33 -85 38 -167 40 -68 3 -103 -1 -141 -14z"/>
<path d="M53900 69645 c-8 -2 -89 -16 -180 -30 -537 -85 -1139 -238 -1658
-421 -297 -106 -351 -136 -422 -239 -79 -115 -92 -280 -33 -408 59 -124 181
-215 319 -237 80 -13 144 -1 289 53 542 202 1171 361 1782 452 56 8 127 24
157 36 175 65 289 266 256 450 -26 140 -111 252 -237 312 -60 27 -80 32 -163
34 -52 1 -102 0 -110 -2z"/>
<path d="M21625 68359 c-498 -25 -584 -43 -690 -140 -217 -200 -164 -557 99
-680 92 -43 144 -48 334 -33 656 53 1330 38 1997 -43 181 -22 219 -24 274 -13
181 32 313 165 344 344 32 191 -82 385 -267 455 -91 34 -615 89 -1045 111
-229 11 -818 11 -1046 -1z"/>
<path d="M50107 68290 c-32 -10 -140 -62 -240 -115 -432 -231 -856 -509 -1227
-805 -239 -192 -274 -246 -275 -430 0 -97 2 -110 31 -170 45 -94 102 -153 188
-195 121 -60 246 -63 363 -10 29 13 107 68 175 122 389 313 806 584 1226 798
138 70 210 132 252 219 83 168 54 353 -75 482 -111 111 -271 151 -418 104z"/>
<path d="M16770 68240 l-595 -5 -59 -28 c-161 -75 -248 -210 -249 -382 0 -172
101 -322 260 -387 l58 -23 1259 -3 c821 -1 1279 1 1315 8 221 40 380 259 342
473 -31 175 -167 314 -341 347 -54 10 -837 10 -1990 0z"/>
<path d="M53041 68235 c-113 -25 -351 -95 -576 -170 -1398 -465 -2852 -1396
-4300 -2755 -227 -214 -745 -734 -945 -950 -474 -511 -1014 -1151 -1394 -1650
-96 -126 -164 -255 -196 -370 -131 -476 132 -994 591 -1161 172 -63 252 -70
594 -53 1324 67 2682 176 3455 280 228 30 734 115 930 155 607 125 1006 284
1325 528 150 114 339 318 449 485 146 221 220 391 379 871 315 953 455 1445
571 2013 114 557 216 1285 216 1546 0 377 -131 747 -344 973 -130 138 -250
212 -410 253 -94 24 -247 26 -345 5z m174 -865 c37 -58 75 -181 87 -280 12
-97 2 -213 -53 -625 -99 -736 -241 -1356 -499 -2181 -153 -488 -307 -939 -358
-1046 -200 -425 -497 -645 -1069 -793 -273 -71 -823 -169 -1258 -224 -735 -94
-1952 -191 -3212 -257 -313 -17 -322 -17 -353 2 -39 23 -70 76 -70 120 0 41
26 80 235 344 335 424 718 874 1085 1275 219 239 778 803 1015 1025 1449 1351
2881 2240 4245 2634 85 25 161 45 167 46 7 0 24 -18 38 -40z"/>
<path d="M12010 67999 c-154 -31 -274 -138 -320 -288 -66 -210 49 -439 256
-513 75 -26 55 -26 1184 -43 1272 -20 1332 -20 1403 4 106 37 199 119 243 216
112 245 -26 526 -288 584 -24 6 -480 17 -1013 25 -534 8 -1071 17 -1195 20
-124 2 -245 0 -270 -5z"/>
<path d="M25661 67935 c-165 -46 -283 -177 -312 -344 -22 -125 27 -267 126
-360 78 -74 138 -98 317 -127 590 -95 1120 -337 1578 -720 98 -82 219 -200
341 -331 70 -75 99 -99 155 -125 65 -31 75 -33 179 -33 99 0 116 3 168 27 32
15 84 52 116 83 141 135 170 330 75 506 -34 62 -311 351 -460 479 -489 421
-1060 716 -1684 870 -304 75 -508 100 -599 75z"/>
<path d="M9029 67860 c-1143 -30 -1111 -28 -1211 -91 -140 -90 -216 -256 -190
-415 29 -172 155 -307 323 -344 46 -10 252 -8 1145 14 599 14 1118 31 1154 36
89 13 176 58 239 125 154 163 155 406 2 568 -88 93 -201 138 -341 136 -41 -1
-546 -14 -1121 -29z"/>
<path d="M71800 67864 c-141 -38 -246 -140 -291 -284 l-20 -65 15 -1015 c9
-558 21 -1049 26 -1089 13 -97 47 -168 111 -236 61 -65 145 -109 237 -125 210
-37 427 116 471 333 8 38 6 343 -8 1102 -18 1011 -20 1052 -40 1109 -28 78
-51 114 -110 169 -108 101 -252 138 -391 101z"/>
<path d="M22050 66873 c-596 -19 -1151 -84 -1556 -183 -475 -117 -747 -276
-860 -505 -44 -91 -68 -200 -60 -285 9 -101 455 -1872 742 -2945 995 -3718
1971 -6492 3077 -8745 74 -151 163 -322 198 -380 355 -586 948 -990 1629
-1110 93 -16 180 -23 340 -27 243 -5 15084 322 15300 338 496 35 888 128 1197
283 208 104 296 169 568 416 2064 1880 3666 2841 6850 4111 400 160 471 195
545 269 343 343 123 947 -360 987 -36 2 -504 -5 -1040 -16 -2192 -47 -3925
-76 -6055 -103 -1272 -15 -4794 -16 -5665 0 -2931 53 -4552 153 -5470 338
-339 69 -461 123 -735 328 -145 108 -423 384 -545 539 -348 443 -580 873 -930
1727 -182 445 -375 865 -780 1705 -218 452 -418 874 -497 1049 -108 241 -169
347 -299 521 -515 691 -1514 1199 -2899 1474 -829 165 -1805 242 -2695 214z
m1145 -852 c819 -64 1440 -165 2009 -327 739 -212 1309 -509 1643 -857 145
-151 227 -274 318 -477 89 -199 254 -547 515 -1090 438 -910 592 -1246 770
-1681 293 -715 510 -1148 782 -1559 377 -571 843 -1024 1344 -1304 334 -187
949 -310 2039 -406 955 -83 2072 -132 3970 -172 803 -17 5202 -17 6430 0 1672
23 2853 43 4305 71 498 10 906 17 908 16 1 -1 -60 -28 -135 -60 -899 -381
-1793 -816 -2493 -1213 -1228 -694 -2279 -1472 -3552 -2629 -213 -193 -293
-249 -451 -314 -260 -107 -566 -152 -1142 -169 -599 -17 -12795 -283 -12799
-279 -7 6 29 1827 36 1834 3 3 55 17 114 31 427 96 804 306 1123 625 399 398
649 911 722 1474 15 116 15 414 0 530 -130 1006 -874 1855 -1840 2100 -154 39
-275 56 -446 62 -538 20 -1066 -163 -1515 -524 -118 -94 -298 -277 -404 -408
-316 -393 -486 -783 -548 -1255 -18 -139 -15 -469 5 -615 111 -781 549 -1413
1227 -1768 183 -96 453 -192 640 -227 36 -7 69 -16 73 -20 7 -6 -21 -1849 -29
-1858 -1 -2 -283 -10 -626 -18 -661 -16 -747 -13 -916 26 -285 67 -526 203
-737 414 -150 150 -215 246 -351 518 -1057 2112 -2051 4918 -3022 8528 -221
820 -712 2737 -712 2778 0 14 42 30 163 62 294 78 660 132 1097 160 91 6 190
12 220 14 118 8 1133 -3 1265 -13z m4345 -6651 c603 -115 1121 -639 1262
-1278 32 -141 31 -443 0 -588 -111 -512 -450 -951 -895 -1159 -658 -307 -1538
-66 -1931 529 -111 168 -194 374 -232 581 -28 150 -26 483 4 617 45 205 112
361 226 533 195 292 417 496 686 634 289 147 573 190 880 131z"/>
<path d="M27284 59104 c-142 -23 -360 -102 -548 -196 -370 -185 -582 -458
-668 -861 -28 -133 -30 -376 -4 -515 67 -366 277 -700 555 -883 203 -134 412
-199 641 -199 302 0 573 112 786 324 63 63 85 92 98 131 27 83 38 253 31 462
l-7 193 55 52 c73 70 92 132 65 221 -17 55 -96 140 -156 165 -48 21 -59 21
-525 17 -330 -3 -488 -8 -516 -16 -81 -24 -139 -94 -161 -194 -9 -38 -7 -59 6
-104 51 -177 280 -233 712 -175 l42 6 0 -216 0 -216 -50 -39 c-103 -81 -225
-121 -375 -121 -113 0 -198 20 -300 70 -217 105 -371 314 -422 570 -30 156
-13 388 38 507 46 107 163 238 288 322 85 58 261 141 396 187 83 28 131 38
195 42 81 3 91 1 215 -44 204 -74 308 -66 393 30 110 125 32 324 -162 415
-154 72 -418 100 -622 65z"/>
<path d="M17823 66581 c-104 -38 -196 -121 -239 -216 -40 -86 -46 -143 -34
-315 51 -761 185 -1434 429 -2152 85 -248 110 -308 156 -364 89 -108 250 -168
386 -144 140 26 245 103 306 228 36 73 38 80 38 176 0 99 -1 104 -68 290 -226
627 -362 1284 -412 1988 -18 262 -39 323 -144 422 -79 73 -145 99 -266 103
-79 2 -111 -1 -152 -16z"/>
<path d="M54946 66138 c-67 -9 -151 -44 -205 -88 -59 -46 -103 -118 -210 -345
-331 -703 -606 -1470 -791 -2205 -51 -205 -55 -240 -36 -323 19 -81 42 -128
91 -185 164 -190 458 -192 628 -3 58 64 74 108 142 369 187 726 471 1496 769
2091 73 145 89 204 84 306 -13 240 -227 415 -472 383z"/>
<path d="M47096 66118 c-106 -14 -157 -46 -304 -191 -369 -364 -717 -789
-1023 -1250 -103 -154 -144 -225 -159 -273 -75 -245 79 -490 339 -535 110 -20
240 19 330 97 24 21 89 107 146 193 282 428 543 754 893 1114 199 204 230 251
253 371 21 113 -21 253 -101 340 -98 107 -229 154 -374 134z"/>
<path d="M29073 64920 c-210 -44 -354 -228 -341 -433 7 -104 37 -167 181 -376
326 -474 717 -1114 1007 -1651 121 -223 202 -295 363 -323 179 -30 383 84 448
250 31 80 37 212 13 285 -28 88 -373 701 -607 1083 -240 391 -623 970 -686
1038 -90 98 -255 153 -378 127z"/>
<path d="M71912 63910 c-72 -26 -111 -52 -165 -109 -53 -57 -81 -109 -102
-187 -13 -49 -13 -168 0 -988 8 -512 19 -962 25 -999 34 -229 248 -387 472
-349 178 31 314 163 347 336 11 61 -15 1839 -29 1950 -21 167 -122 293 -277
347 -75 25 -199 25 -271 -1z"/>
<path d="M44875 63307 c-115 -38 -154 -72 -310 -267 -355 -444 -636 -874 -880
-1345 -114 -218 -132 -293 -104 -414 27 -118 124 -236 236 -289 52 -24 69 -27
169 -27 107 0 112 1 186 38 105 52 145 100 253 308 218 420 487 830 789 1204
74 92 142 187 160 225 28 60 31 73 31 165 -1 131 -24 191 -107 281 -88 93
-162 127 -288 131 -59 2 -110 -2 -135 -10z"/>
<path d="M18791 62549 c-190 -37 -340 -215 -341 -407 0 -87 169 -784 295
-1212 129 -440 368 -1122 515 -1473 93 -224 324 -329 544 -246 190 70 305 293
252 484 -7 28 -54 154 -104 280 -271 691 -489 1407 -656 2158 -41 182 -65 234
-143 308 -59 56 -133 94 -213 109 -60 11 -87 11 -149 -1z"/>
<path d="M53393 61535 c-107 -29 -194 -92 -252 -183 -31 -49 -43 -86 -111
-342 -120 -448 -331 -975 -556 -1391 -42 -79 -90 -169 -105 -198 -116 -228 -3
-498 242 -581 52 -18 81 -21 151 -18 75 4 96 9 161 41 98 48 143 99 234 263
287 518 533 1128 695 1724 46 170 53 207 52 285 0 148 -60 260 -181 342 -98
66 -221 87 -330 58z"/>
<path d="M31114 61457 c-234 -89 -339 -351 -229 -573 27 -56 55 -91 130 -162
672 -642 1588 -1021 2540 -1049 218 -6 284 1 371 41 266 122 316 498 92 691
-97 84 -179 105 -408 105 -263 0 -521 38 -787 114 -184 53 -300 99 -498 196
-284 139 -502 288 -720 491 -144 134 -201 162 -335 166 -80 3 -105 -1 -156
-20z"/>
<path d="M51020 60714 c-494 -86 -1027 -128 -1540 -122 -231 2 -249 1 -310
-20 -236 -80 -347 -353 -236 -578 59 -119 168 -200 301 -225 85 -16 835 -5
1080 15 386 33 947 113 1060 151 144 50 248 175 276 333 28 160 -64 346 -211
426 -47 26 -162 56 -205 55 -11 0 -108 -16 -215 -35z"/>
<path d="M47560 60479 c-137 -18 -504 -49 -710 -60 -149 -8 -349 -9 -650 -4
-724 14 -686 14 -754 -18 -112 -52 -183 -129 -226 -245 -26 -67 -28 -184 -5
-258 37 -125 150 -237 274 -274 199 -58 1137 -63 1766 -10 464 40 543 56 638
134 196 161 209 446 27 620 -103 98 -214 134 -360 115z"/>
<path d="M72018 60381 c-73 -24 -112 -49 -170 -108 -55 -56 -94 -130 -109
-206 -13 -65 35 -1591 53 -1672 17 -81 57 -151 119 -210 223 -213 577 -128
681 163 26 72 25 110 -7 1017 -14 414 -29 706 -36 730 -34 118 -117 216 -227
268 -57 27 -81 32 -157 34 -67 2 -104 -2 -147 -16z"/>
<path d="M36133 60275 c-212 -46 -361 -260 -324 -467 31 -179 169 -320 341
-348 36 -6 544 -26 1130 -45 1162 -39 1113 -39 1222 16 68 35 145 115 180 188
41 85 51 217 23 302 -53 166 -185 270 -364 290 -47 5 -511 23 -1031 39 -520
16 -983 32 -1030 34 -52 3 -109 -1 -147 -9z"/>
<path d="M40810 60274 c-71 -19 -127 -53 -185 -110 -138 -139 -158 -365 -46
-528 42 -61 95 -104 169 -139 89 -41 130 -43 1311 -68 968 -20 1016 -20 1078
-4 237 64 364 316 279 553 -41 115 -151 214 -281 251 -27 8 -388 20 -1075 36
-1202 28 -1178 28 -1250 9z"/>
<path d="M54070 59096 c-203 -57 -337 -262 -303 -463 26 -150 -12 -108 920
-1023 922 -904 891 -877 1031 -901 122 -22 266 26 359 119 141 141 161 376 45
532 -39 53 -1656 1639 -1710 1678 -90 64 -233 88 -342 58z"/>
<path d="M20043 58615 c-162 -44 -278 -164 -312 -323 -15 -70 -14 -107 4 -174
19 -75 1030 -2412 1066 -2464 90 -131 259 -204 410 -176 249 46 405 295 330
529 -23 72 -1014 2363 -1046 2418 -29 51 -110 127 -163 154 -95 48 -196 61
-289 36z"/>
<path d="M51546 58329 c-83 -28 -94 -37 -259 -196 -255 -246 -502 -446 -764
-617 -190 -123 -322 -197 -578 -322 -259 -126 -306 -162 -357 -270 -60 -129
-60 -252 2 -374 74 -146 248 -243 403 -225 83 9 140 32 382 150 537 263 981
575 1442 1011 169 160 225 232 253 321 84 272 -115 544 -397 543 -41 -1 -91
-9 -127 -21z"/>
<path d="M72067 57090 c-112 -29 -228 -123 -279 -229 -29 -60 -33 -76 -36
-176 -4 -153 65 -1601 79 -1650 34 -118 117 -216 226 -267 120 -56 275 -49
389 18 96 57 186 191 199 298 4 28 -10 411 -30 851 -39 880 -39 880 -107 981
-44 64 -122 127 -195 154 -65 25 -185 35 -246 20z"/>
<path d="M53381 57059 c-545 -57 -1050 -356 -1343 -794 -159 -238 -277 -583
-266 -775 7 -123 34 -168 278 -460 1331 -1592 2851 -3157 4595 -4731 1262
-1139 2793 -2388 4230 -3451 310 -229 856 -625 968 -701 166 -114 359 -114
508 0 83 63 196 242 492 775 97 175 212 375 256 446 163 263 361 502 551 667
220 190 244 220 276 346 28 108 4 236 -62 331 -35 50 -921 885 -1814 1708
-2005 1850 -4012 3619 -6075 5356 -595 501 -779 646 -1025 807 -553 361 -1094
525 -1569 476z m382 -850 c295 -59 616 -225 998 -515 200 -152 785 -642 1699
-1423 1840 -1573 3649 -3185 5470 -4876 560 -520 970 -906 970 -915 0 -4 -39
-51 -86 -103 -237 -263 -402 -510 -686 -1025 -78 -141 -145 -261 -149 -265
-15 -18 -1119 805 -1849 1377 -1743 1366 -3251 2693 -4724 4156 -793 788
-1371 1398 -2017 2130 -213 241 -672 778 -737 862 -11 14 -7 28 26 95 92 182
230 316 428 416 205 103 430 133 657 86z"/>
<path d="M47455 56245 c-187 -55 -572 -203 -860 -330 -449 -198 -1208 -625
-1327 -747 -56 -58 -93 -131 -109 -221 -50 -269 205 -525 474 -476 86 15 107
25 285 137 530 333 1105 610 1664 800 213 73 247 90 310 153 219 219 125 597
-171 690 -83 25 -167 23 -266 -6z"/>
<path d="M57331 56174 c-124 -33 -239 -131 -282 -241 -50 -128 -31 -301 44
-403 51 -68 1745 -1559 1809 -1592 251 -128 549 27 599 310 19 106 -17 239
-87 321 -46 55 -1719 1529 -1772 1561 -90 56 -206 72 -311 44z"/>
<path d="M50565 55427 c-208 -53 -351 -266 -315 -469 6 -35 22 -85 34 -113 30
-66 272 -365 545 -675 335 -380 866 -905 965 -953 233 -114 503 -3 585 241 41
120 17 273 -57 369 -20 27 -118 125 -216 218 -347 329 -723 741 -1058 1160
-53 66 -117 136 -143 154 -91 66 -236 94 -340 68z"/>
<path d="M21790 54707 c-36 -12 -89 -39 -117 -60 -61 -44 -127 -138 -148 -210
-20 -68 -19 -189 3 -252 10 -27 317 -576 682 -1220 724 -1274 709 -1250 830
-1307 79 -37 164 -51 242 -38 247 39 405 277 343 515 -22 83 -1329 2385 -1398
2461 -111 123 -278 165 -437 111z"/>
<path d="M72290 54299 c-775 -230 -1272 -457 -2039 -935 -123 -76 -245 -158
-271 -181 -124 -111 -170 -275 -121 -434 53 -170 194 -278 372 -287 124 -6
167 10 364 134 763 479 1171 673 1838 874 126 38 250 81 275 96 67 39 127 106
164 182 31 63 33 72 33 177 0 98 -3 116 -26 165 -75 157 -220 251 -388 249
-47 0 -106 -12 -201 -40z"/>
<path d="M43323 53615 c-80 -22 -140 -56 -231 -133 -431 -367 -994 -1011
-1359 -1557 -204 -306 -234 -370 -234 -494 0 -126 41 -221 131 -305 142 -133
350 -149 517 -39 62 41 87 72 178 218 183 294 448 645 709 939 238 267 382
412 649 649 87 77 130 152 146 255 34 219 -118 431 -338 472 -70 13 -104 12
-168 -5z"/>
<path d="M60677 53278 c-222 -29 -388 -257 -348 -475 15 -83 49 -155 98 -210
39 -43 1825 -1604 1907 -1667 172 -131 441 -87 577 94 110 146 102 376 -16
508 -49 54 -1871 1649 -1930 1689 -78 53 -183 75 -288 61z"/>
<path d="M53227 52430 c-92 -24 -191 -93 -247 -175 -94 -137 -91 -343 8 -473
20 -27 352 -372 737 -766 671 -687 703 -719 773 -753 177 -88 387 -40 511 117
104 132 116 329 28 468 -38 60 -1420 1480 -1480 1520 -23 16 -62 37 -87 46
-52 21 -188 30 -243 16z"/>
<path d="M37520 52349 c-228 -11 -573 -38 -645 -50 -178 -31 -314 -166 -345
-346 -37 -213 116 -427 335 -473 43 -9 96 -8 242 4 756 64 1553 57 2277 -20
211 -22 312 5 420 110 218 212 140 579 -144 687 -74 28 -470 66 -939 89 -233
11 -955 11 -1201 -1z"/>
<path d="M32419 52187 c-155 -53 -254 -170 -281 -331 -32 -195 87 -391 279
-457 54 -18 95 -19 1342 -19 830 0 1302 4 1330 11 118 27 236 124 289 236 24
52 27 69 27 168 0 103 -2 114 -32 177 -41 88 -113 160 -201 201 l-67 32 -1310
2 -1310 3 -66 -23z"/>
<path d="M29220 52085 c-1259 -90 -1201 -83 -1304 -154 -142 -98 -208 -291
-157 -459 46 -151 170 -261 328 -292 36 -6 336 11 1178 70 622 43 1157 84
1190 89 246 43 399 290 327 528 -52 169 -182 274 -367 296 -22 2 -560 -33
-1195 -78z"/>
<path d="M68356 51938 c-84 -11 -143 -41 -328 -169 -644 -445 -1037 -767
-1520 -1248 -227 -227 -260 -264 -288 -322 -80 -172 -52 -349 77 -478 98 -97
226 -140 358 -119 122 19 146 36 439 326 468 463 812 745 1406 1152 91 62 180
127 198 144 154 142 175 381 49 553 -90 121 -235 181 -391 161z"/>
<path d="M25930 51761 c-813 -171 -1542 -593 -2069 -1200 -136 -156 -169 -292
-111 -458 69 -198 299 -316 501 -257 94 27 153 71 265 196 351 393 838 698
1355 847 57 17 174 44 259 61 88 17 177 41 206 55 149 72 251 268 224 428 -26
153 -102 256 -240 321 -93 44 -204 46 -390 7z"/>
<path d="M63888 50621 c-121 -31 -218 -115 -275 -237 -25 -53 -28 -70 -28
-164 0 -93 3 -111 27 -163 15 -32 41 -76 58 -97 49 -61 1479 -1190 1553 -1225
79 -37 203 -46 289 -21 129 37 240 148 280 279 43 143 1 313 -104 413 -56 54
-1425 1136 -1485 1174 -47 30 -157 60 -215 59 -18 0 -63 -8 -100 -18z"/>
<path d="M40618 49605 c-32 -8 -77 -24 -100 -36 -57 -29 -149 -124 -175 -179
-11 -25 -209 -562 -439 -1195 -412 -1133 -418 -1151 -422 -1237 -5 -99 11
-163 60 -241 86 -136 261 -216 413 -188 70 13 153 50 204 91 85 66 88 75 537
1310 470 1294 455 1244 419 1376 -59 217 -285 353 -497 299z"/>
<path d="M56190 49609 c-211 -41 -368 -264 -331 -470 19 -113 50 -161 194
-307 328 -333 755 -682 1172 -957 321 -212 338 -220 485 -220 86 0 101 3 162
32 173 82 273 267 240 443 -26 140 -89 225 -236 317 -453 284 -777 537 -1203
941 -183 172 -227 202 -333 222 -61 11 -87 11 -150 -1z"/>
<path d="M22815 49186 c-83 -20 -147 -56 -203 -115 -76 -80 -1103 -1705 -1133
-1793 -27 -81 -23 -194 11 -283 32 -84 141 -193 225 -225 89 -34 205 -38 288
-11 80 27 162 84 203 142 70 98 1059 1668 1083 1719 23 48 26 68 26 160 0 97
-2 110 -31 170 -58 123 -158 206 -284 234 -80 19 -116 19 -185 2z"/>
<path d="M64568 48091 c-81 -26 -115 -51 -204 -143 -328 -343 -1093 -1381
-1427 -1935 -81 -134 -93 -162 -106 -242 -36 -221 120 -432 347 -472 118 -21
264 26 352 112 25 24 76 96 114 159 300 502 923 1350 1338 1823 101 116 122
167 122 302 0 139 -23 196 -118 291 -88 88 -150 115 -276 120 -64 3 -99 -1
-142 -15z"/>
<path d="M59180 47239 c-219 -36 -381 -261 -341 -476 27 -145 59 -186 348
-440 370 -325 783 -634 1185 -886 215 -135 291 -160 413 -138 245 45 402 280
341 508 -35 133 -94 202 -257 302 -422 259 -880 608 -1285 977 -56 51 -119
101 -140 112 -77 39 -178 55 -264 41z"/>
<path d="M20698 45671 c-76 -25 -151 -74 -192 -125 -79 -98 -1142 -1686 -1162
-1736 -30 -74 -38 -145 -25 -215 42 -229 260 -386 478 -346 90 17 166 55 224
116 66 67 1156 1683 1187 1760 67 162 9 369 -133 477 -105 80 -259 108 -377
69z"/>
<path d="M39178 44775 c-84 -21 -135 -50 -198 -114 -70 -71 -88 -108 -156
-339 -215 -728 -366 -1621 -368 -2177 l-1 -180 32 -66 c36 -73 114 -154 181
-188 184 -94 403 -46 526 115 62 81 77 138 92 349 48 675 150 1265 319 1845
89 305 88 299 82 375 -17 259 -263 442 -509 380z"/>
<path d="M62395 44096 c-77 -19 -143 -56 -201 -114 -47 -47 -75 -97 -256 -460
-340 -679 -482 -1042 -609 -1556 -45 -184 -49 -257 -18 -348 85 -253 378 -365
605 -232 49 29 135 117 158 163 10 18 44 135 76 259 114 442 210 683 521 1312
243 492 254 521 230 637 -49 246 -273 396 -506 339z"/>
<path d="M18518 42241 c-73 -24 -113 -49 -169 -108 -28 -29 -265 -392 -594
-913 -645 -1019 -569 -897 -584 -940 -63 -179 0 -380 154 -485 170 -118 410
-91 542 60 23 27 295 447 602 932 617 974 599 941 589 1085 -8 115 -39 181
-122 264 -88 88 -150 115 -276 120 -64 3 -99 -1 -142 -15z"/>
<path d="M38509 40147 c-151 -52 -254 -170 -279 -323 -15 -85 -113 -2196 -106
-2273 3 -40 17 -88 35 -127 122 -261 459 -325 664 -126 59 57 90 109 112 184
21 73 127 2254 114 2338 -4 29 -21 80 -37 114 -88 187 -307 280 -503 213z"/>
<path d="M38804 69316 c-45 -20 -103 -74 -139 -131 -49 -77 -228 -465 -322
-700 -142 -354 -315 -899 -428 -1351 -33 -130 -40 -227 -21 -287 54 -177 236
-241 366 -130 68 59 84 99 145 363 32 135 68 279 81 321 l24 76 217 6 c120 4
338 7 484 7 l266 0 32 -107 c43 -148 78 -307 96 -436 20 -146 57 -214 144
-265 129 -76 290 4 338 168 16 53 15 61 -10 215 -15 88 -42 221 -61 295 -19
79 -29 137 -23 139 53 20 117 65 144 99 36 48 58 132 47 187 -10 54 -63 125
-117 159 -43 26 -58 30 -151 34 l-103 5 -68 161 c-91 216 -269 580 -340 691
-127 203 -333 441 -410 476 -48 22 -146 24 -191 5z m320 -981 c100 -204 160
-344 152 -353 -4 -4 -143 -8 -308 -10 l-300 -3 7 23 c34 111 207 545 252 632
l15 29 54 -84 c30 -46 87 -151 128 -234z"/>
<path d="M48155 47324 c-55 -8 -247 -18 -495 -24 -399 -9 -558 -23 -614 -52
-78 -41 -136 -127 -136 -201 0 -22 16 -87 36 -146 43 -130 56 -234 52 -444
l-3 -159 -38 -41 c-37 -41 -67 -115 -67 -167 0 -49 32 -122 71 -161 l39 -39 0
-497 0 -498 24 -50 c48 -105 117 -155 211 -155 98 0 197 75 235 177 19 51 20
79 20 513 l0 459 223 0 c321 -1 493 25 651 99 167 79 218 205 137 334 -72 114
-199 154 -351 113 -108 -30 -248 -46 -451 -52 l-206 -6 -5 239 c-4 131 -4 241
-1 244 2 3 192 8 421 11 396 5 420 7 480 28 116 40 166 84 197 172 23 63 19
118 -12 180 -64 126 -181 160 -418 123z"/>
<path d="M72308 46444 c-5 -4 -196 -11 -425 -15 -428 -8 -525 -16 -753 -64
-179 -37 -300 -142 -300 -261 0 -47 32 -123 70 -166 l40 -46 2 -893 3 -894 22
-41 c25 -47 77 -95 132 -123 116 -59 695 -87 976 -47 252 36 392 75 446 123
105 95 107 261 3 352 -89 78 -149 90 -297 57 -180 -41 -346 -59 -532 -60 -93
0 -191 3 -217 8 l-48 7 0 246 0 246 93 -7 c115 -8 510 9 638 29 218 32 303
105 304 260 0 59 -5 78 -30 124 -51 93 -136 129 -273 117 -268 -24 -465 -36
-589 -36 l-143 0 0 279 0 278 58 8 c31 4 248 10 482 14 413 7 427 8 484 30
118 47 174 128 163 241 -9 99 -66 175 -159 215 -43 17 -140 30 -150 19z"/>
<path d="M64680 37159 c-177 -22 -395 -92 -479 -154 -208 -152 -224 -456 -34
-636 62 -59 134 -94 221 -108 75 -12 138 -3 247 36 75 26 90 28 230 27 160 0
155 1 324 -69 207 -86 439 1 537 201 104 213 7 465 -220 570 -103 47 -241 92
-355 115 -112 23 -359 32 -471 18z"/>
<path d="M64635 36106 c-225 -51 -476 -266 -700 -601 -88 -131 -224 -409 -274
-560 -198 -603 -82 -1029 318 -1167 96 -33 267 -33 366 1 152 51 281 135 415
270 255 257 447 621 531 1011 20 89 23 135 24 300 0 174 -2 204 -23 274 -57
196 -164 336 -316 413 -125 63 -237 83 -341 59z"/>
<path d="M68269 35691 c-109 -35 -199 -117 -253 -230 -28 -60 -31 -75 -31
-167 0 -96 2 -103 38 -176 46 -93 112 -157 221 -212 159 -82 265 -212 329
-406 58 -176 115 -248 240 -305 214 -98 452 -8 554 211 25 53 28 70 28 164 0
97 -3 114 -43 230 -80 233 -187 404 -362 580 -145 146 -337 272 -479 314 -71
21 -171 20 -242 -3z"/>
<path d="M67650 34590 c-185 -44 -399 -244 -562 -527 -216 -374 -344 -887
-308 -1235 37 -363 191 -578 466 -648 234 -60 458 21 670 242 371 387 571
1124 443 1632 -11 45 -43 127 -70 184 -67 138 -155 230 -279 291 -126 61 -261
84 -360 61z"/>
<path d="M65355 33563 c-107 -24 -246 -86 -360 -162 -91 -60 -247 -216 -308
-308 -270 -407 -270 -921 0 -1325 114 -171 274 -250 442 -219 169 31 295 147
337 311 31 121 5 244 -75 356 -73 102 -92 228 -49 341 28 76 112 162 183 188
148 53 216 109 272 223 37 73 38 80 38 181 0 88 -4 116 -23 164 -29 70 -112
163 -179 200 -85 46 -203 67 -278 50z"/>
<path d="M4467 29136 c-115 -47 -183 -112 -234 -222 l-28 -59 2 -645 c2 -355
32 -3478 68 -6940 36 -3462 67 -6608 71 -6990 3 -382 10 -726 15 -763 10 -70
42 -146 87 -205 39 -51 129 -111 202 -133 l65 -20 8795 41 c7748 36 8802 42
8855 56 169 43 288 185 307 368 8 83 83 14596 76 14991 -3 215 -4 221 -30 278
-54 115 -176 213 -295 237 -45 9 -11736 31 -16128 30 l-1770 0 -58 -24z
m12515 -825 c2709 -3 4928 -8 4931 -11 5 -6 -68 -14218 -74 -14224 -7 -6
-16625 -80 -16641 -73 -13 4 -16 115 -21 744 -4 406 -36 3557 -72 7003 -36
3446 -65 6336 -65 6423 l0 157 3508 -6 c1929 -4 5724 -9 8434 -13z"/>
<path d="M13794 26651 c-46 -28 -79 -76 -141 -204 -151 -308 -270 -630 -389
-1047 -99 -346 -111 -428 -75 -504 56 -116 191 -128 273 -25 24 30 38 73 78
240 60 254 60 255 100 263 18 3 171 6 340 6 l308 0 31 -112 c26 -97 46 -194
67 -336 7 -43 74 -117 121 -133 98 -32 213 63 213 177 0 63 -41 278 -76 395
-3 12 3 19 21 23 34 9 90 60 105 96 7 17 11 53 8 85 -4 44 -11 62 -34 86 -44
47 -76 59 -151 59 l-68 0 -49 118 c-76 179 -206 437 -274 537 -82 123 -207
264 -248 281 -48 20 -123 18 -160 -5z m164 -528 c59 -101 192 -376 192 -398 0
-3 -97 -5 -216 -5 -202 0 -216 1 -209 18 4 9 22 60 41 112 47 127 137 340 145
340 4 0 25 -30 47 -67z"/>
<path d="M5340 26614 c-47 -20 -98 -71 -105 -105 -8 -38 22 -144 95 -337 446
-1171 500 -1307 534 -1339 46 -43 104 -60 155 -45 85 26 104 57 215 357 175
472 376 926 517 1165 21 36 43 87 50 113 30 121 -63 221 -188 202 -77 -11
-120 -65 -234 -290 -53 -104 -127 -260 -164 -345 -37 -85 -80 -180 -95 -210
-15 -30 -40 -91 -55 -135 -46 -133 -78 -215 -85 -215 -4 0 -67 165 -140 368
-138 381 -254 682 -290 753 -36 69 -131 97 -210 63z"/>
<path d="M7280 26611 c-188 -7 -212 -15 -258 -83 -21 -32 -27 -54 -27 -94 0
-67 23 -100 95 -136 43 -23 67 -28 122 -28 l68 0 0 -545 0 -545 -70 0 c-80 0
-123 -15 -162 -56 -75 -80 -57 -205 35 -258 41 -23 52 -24 317 -31 300 -8 362
-2 436 41 100 57 96 198 -8 270 -37 26 -50 29 -120 29 l-78 0 0 548 0 547 48
0 c99 1 156 26 200 90 50 75 12 188 -81 237 -34 17 -264 24 -517 14z"/>
<path d="M9975 26611 c-103 -4 -178 -11 -191 -18 -36 -21 -83 -81 -93 -121
-19 -68 9 -129 76 -169 37 -22 62 -28 130 -31 l83 -5 0 -543 0 -544 -75 0
c-88 0 -131 -15 -168 -59 -57 -68 -57 -154 0 -222 45 -53 64 -56 368 -64 242
-7 289 -5 344 9 114 29 157 79 149 172 -9 106 -96 171 -215 161 l-63 -5 0 549
0 549 51 0 c77 0 137 19 173 55 80 80 62 202 -40 261 -40 24 -53 25 -201 28
-87 2 -234 1 -328 -3z"/>
<path d="M15047 26597 c-20 -5 -50 -21 -66 -36 -54 -51 -56 -74 -56 -866 0
-790 -1 -777 60 -843 l33 -37 459 0 c492 0 503 1 564 52 87 73 78 185 -21 261
l-44 34 -359 -8 -359 -7 6 659 c5 519 4 666 -6 693 -27 71 -127 118 -211 98z"/>
<path d="M16411 26599 c-47 -10 -83 -38 -106 -85 -19 -37 -20 -70 -28 -751 -8
-630 -7 -720 6 -788 18 -88 35 -118 80 -146 31 -19 49 -19 482 -17 l450 3 57
28 c116 57 137 169 50 260 -57 60 -51 59 -436 51 l-353 -7 1 681 1 681 -30 31
c-16 18 -37 36 -46 41 -31 16 -94 25 -128 18z"/>
<path d="M10980 26591 c-94 -8 -129 -31 -166 -106 -47 -98 -19 -164 87 -204
57 -21 85 -24 257 -29 l192 -4 0 -664 c0 -445 4 -672 11 -691 44 -117 214
-150 299 -58 l25 27 3 693 2 692 198 6 c268 7 327 27 347 118 14 64 -43 175
-108 211 -24 13 -1010 21 -1147 9z"/>
<path d="M8740 26575 c-202 -42 -344 -134 -449 -291 -87 -129 -99 -222 -51
-377 17 -56 32 -79 85 -135 106 -113 196 -154 461 -212 207 -45 257 -64 299
-113 54 -63 67 -128 39 -195 -22 -55 -71 -99 -133 -123 -46 -17 -68 -19 -131
-14 -155 13 -286 63 -369 139 -103 96 -188 106 -259 33 -52 -54 -67 -138 -35
-204 10 -21 48 -61 95 -98 240 -190 566 -271 786 -195 90 32 237 133 294 204
113 141 143 337 78 508 -25 66 -120 189 -179 233 -105 77 -236 125 -461 170
-161 32 -202 48 -235 87 -30 36 -31 59 -4 115 26 53 61 79 151 109 118 40 183
41 331 5 71 -17 147 -31 170 -31 139 0 208 195 103 288 -38 34 -152 75 -269
97 -95 18 -228 18 -317 0z"/>
<path d="M5800 23665 c-36 -7 -110 -28 -165 -46 -55 -19 -107 -33 -115 -31
-60 9 -135 -39 -171 -109 -18 -36 -19 -62 -19 -397 l0 -360 -39 -39 c-76 -76
-77 -169 -1 -236 l39 -36 3 -274 3 -274 27 -40 c36 -55 103 -87 165 -80 59 6
92 31 123 93 25 48 25 51 22 272 l-4 223 149 -7 c168 -8 253 3 375 46 109 38
182 84 268 170 85 85 129 155 168 262 23 65 26 88 26 208 1 123 -2 142 -27
217 -36 105 -106 211 -188 288 -126 117 -261 166 -458 164 -64 0 -145 -7 -181
-14z m301 -335 c51 -15 108 -62 151 -126 47 -70 62 -120 62 -210 -2 -209 -175
-334 -464 -334 -58 0 -122 3 -143 6 l-37 7 2 300 3 301 56 22 c125 51 269 64
370 34z"/>
<path d="M11095 23652 c-47 -23 -89 -65 -104 -105 -7 -17 -11 -110 -11 -225 0
-108 -3 -335 -7 -504 l-6 -308 -27 38 c-170 238 -293 401 -458 606 -108 134
-226 280 -261 325 -35 44 -80 93 -100 108 -32 25 -44 28 -113 28 -83 0 -110
-12 -152 -69 -21 -27 -21 -32 -17 -839 2 -622 6 -819 16 -842 16 -40 66 -82
113 -95 48 -12 107 3 145 38 57 54 59 78 64 645 l5 517 86 -107 c171 -216 388
-513 520 -713 203 -309 205 -312 234 -334 43 -31 133 -33 182 -4 71 42 77 57
87 229 19 339 29 730 29 1108 l0 398 -30 41 c-37 51 -64 69 -115 77 -28 4 -52
0 -80 -13z"/>
<path d="M18005 23651 c-48 -22 -79 -54 -100 -103 -12 -31 -15 -93 -16 -360
-1 -178 -4 -402 -8 -498 l-6 -175 -74 105 c-126 178 -248 336 -425 556 -94
116 -201 249 -237 296 -37 47 -84 98 -104 114 -35 26 -46 29 -115 29 -69 0
-80 -3 -114 -28 -20 -16 -42 -41 -48 -55 -17 -41 -10 -1627 7 -1667 16 -40 67
-82 113 -94 81 -22 165 28 193 116 9 27 14 190 18 560 l6 522 50 -62 c219
-273 463 -609 611 -842 139 -217 160 -244 202 -262 48 -20 134 -13 169 13 59
44 66 65 74 201 18 310 30 728 31 1108 2 450 4 438 -59 498 -28 26 -79 47
-113 47 -8 0 -33 -9 -55 -19z"/>
<path d="M7585 23654 c-277 -45 -524 -234 -662 -509 -99 -196 -147 -448 -123
-647 25 -212 98 -395 205 -514 67 -75 125 -114 241 -159 117 -46 212 -65 326
-65 218 1 389 77 550 248 87 93 139 170 203 306 87 182 112 264 125 418 28
320 -49 555 -238 729 -73 67 -221 145 -327 174 -60 16 -244 27 -300 19z m195
-340 c169 -38 296 -165 331 -332 14 -69 6 -264 -14 -337 -70 -250 -200 -435
-363 -512 -74 -36 -85 -38 -174 -38 -86 0 -101 3 -163 32 -142 68 -236 197
-259 360 -21 146 17 364 89 508 60 120 179 252 265 296 78 40 180 48 288 23z"/>
<path d="M8840 23601 c-87 -27 -140 -92 -140 -173 0 -99 80 -158 212 -158 l78
0 0 -547 0 -548 -68 0 c-85 -1 -113 -8 -152 -41 -89 -75 -82 -209 13 -272 40
-27 44 -27 271 -35 341 -12 450 1 514 61 62 58 61 154 -1 221 -44 46 -84 61
-167 61 l-70 0 0 550 0 550 70 0 c81 0 126 16 164 56 75 82 44 209 -65 264
-36 19 -59 20 -336 19 -164 0 -309 -4 -323 -8z"/>
<path d="M15736 23596 c-107 -39 -159 -164 -103 -246 36 -55 96 -80 189 -80
l78 0 0 -549 c0 -544 0 -549 -20 -544 -11 3 -49 2 -85 -2 -69 -7 -114 -30
-148 -76 -21 -29 -33 -103 -23 -144 9 -37 72 -102 109 -114 45 -13 519 -23
595 -12 76 12 149 46 176 84 31 42 28 123 -6 175 -38 56 -96 82 -186 82 l-72
0 0 550 0 550 73 0 c97 0 151 27 185 90 41 79 22 146 -62 214 l-38 31 -311 2
c-247 2 -320 0 -351 -11z"/>
<path d="M11597 23580 c-50 -9 -87 -37 -114 -86 -32 -58 -37 -103 -16 -143 42
-80 127 -104 370 -105 l173 -1 0 -665 c0 -630 1 -667 19 -707 21 -46 81 -87
144 -98 46 -9 114 14 148 51 l24 26 3 699 2 700 113 -7 c133 -8 303 9 365 36
46 21 72 63 72 118 0 46 -48 131 -93 163 l-40 29 -566 -1 c-311 -1 -583 -5
-604 -9z"/>
<path d="M13699 23580 c-258 -25 -467 -167 -572 -388 -27 -59 -29 -69 -25
-155 7 -127 33 -190 114 -277 101 -106 182 -143 454 -205 250 -57 289 -75 330
-156 24 -45 26 -128 6 -167 -21 -39 -75 -89 -118 -106 -81 -34 -275 -11 -404
48 -28 13 -79 49 -112 79 -67 61 -120 83 -176 73 -44 -8 -94 -50 -112 -93 -18
-43 -18 -127 1 -163 16 -31 117 -116 202 -169 199 -124 496 -180 661 -122 151
52 313 182 365 293 83 176 74 364 -25 513 -111 167 -264 248 -593 315 -199 40
-255 71 -255 140 0 83 77 149 215 185 88 22 161 19 310 -16 162 -38 193 -35
247 22 41 43 53 85 45 155 -5 51 -32 86 -89 115 -54 28 -197 67 -270 74 -34 3
-76 7 -93 9 -16 2 -64 0 -106 -4z"/>
<path d="M10759 20685 c-171 -32 -357 -106 -427 -169 -51 -46 -77 -116 -67
-179 6 -32 18 -52 51 -84 l44 -43 1 -582 c0 -321 4 -632 8 -691 7 -96 10 -111
32 -133 69 -69 229 -23 278 80 19 39 21 61 21 254 0 162 3 214 13 216 6 2 55
8 107 13 114 12 89 28 279 -187 353 -401 389 -432 475 -416 72 14 146 107 146
184 0 56 -42 115 -205 282 -77 80 -163 172 -190 204 l-49 59 29 21 c133 96
204 177 265 301 98 200 94 403 -10 564 -124 191 -346 305 -615 316 -72 3 -136
0 -186 -10z m239 -335 c135 -22 230 -79 273 -161 30 -59 26 -160 -8 -230 -73
-147 -228 -227 -491 -254 l-72 -7 0 311 0 311 26 11 c70 26 179 34 272 19z"/>
<path d="M9165 20636 c-259 -60 -475 -238 -609 -503 -216 -430 -143 -989 161
-1228 59 -46 204 -109 313 -136 33 -8 107 -13 185 -13 113 1 140 4 210 27 112
37 194 88 295 184 106 100 175 198 245 346 101 215 124 313 125 532 0 161 -25
282 -84 400 -90 183 -232 299 -458 376 -81 27 -292 36 -383 15z m260 -330
c126 -33 232 -115 283 -219 46 -92 57 -175 43 -318 -19 -206 -106 -402 -237
-536 -188 -193 -428 -200 -610 -19 -97 98 -134 196 -134 361 0 326 180 649
403 726 63 22 181 24 252 5z"/>
<path d="M6938 20610 c-46 -25 -96 -85 -108 -132 -7 -24 -9 -312 -8 -795 l3
-758 24 -42 c62 -107 178 -132 262 -56 62 56 69 94 69 385 l0 248 320 0 320 0
0 -267 c0 -239 2 -272 19 -308 62 -136 225 -141 306 -11 l30 49 3 277 3 276
35 13 c85 31 119 172 62 258 -14 22 -42 48 -62 57 l-36 17 0 337 c0 330 0 339
-22 382 -51 100 -187 121 -272 42 -63 -60 -66 -74 -66 -429 l0 -323 -320 0
-319 0 -3 343 c-3 381 -6 395 -73 437 -42 26 -117 26 -167 0z"/>
<path d="M19849 20587 c-57 -38 -86 -94 -168 -317 -73 -198 -116 -311 -253
-665 -27 -71 -54 -134 -58 -139 -5 -4 -126 226 -269 512 -143 287 -274 536
-291 555 -58 67 -129 83 -207 47 -48 -21 -77 -62 -92 -129 -6 -25 -34 -289
-61 -586 -28 -297 -57 -598 -66 -670 -9 -71 -17 -173 -17 -227 -2 -105 7 -127
67 -172 40 -30 153 -30 193 0 68 51 86 121 108 418 26 352 47 591 53 613 6 17
57 -76 236 -425 126 -246 238 -457 249 -470 43 -46 148 -52 215 -12 47 29 82
108 237 530 145 394 173 465 179 459 8 -8 85 -408 111 -572 14 -93 32 -227 39
-299 11 -97 20 -141 38 -176 71 -140 261 -104 308 58 22 77 -108 839 -210
1233 -95 367 -111 406 -183 441 -51 23 -117 21 -158 -7z"/>
<path d="M17373 20581 c-62 -29 -98 -88 -98 -162 0 -50 4 -62 30 -90 46 -49
99 -69 183 -69 l72 0 0 -545 0 -545 -62 0 c-90 0 -131 -14 -172 -60 -41 -46
-50 -74 -43 -137 5 -51 29 -88 75 -119 29 -20 50 -22 277 -29 320 -10 385 -6
458 28 48 22 61 33 77 69 24 54 25 82 1 133 -37 82 -117 122 -217 109 l-54 -6
0 551 0 551 58 0 c82 0 131 17 173 59 80 79 54 207 -52 261 -36 19 -59 20
-351 20 -286 0 -317 -2 -355 -19z"/>
<path d="M21245 20590 c-487 -12 -667 -61 -707 -191 -14 -50 1 -106 42 -153
l30 -34 0 -611 c0 -594 1 -613 20 -651 24 -48 78 -85 140 -99 88 -18 354 -34
470 -27 134 8 210 19 335 48 76 18 96 26 127 57 90 91 56 230 -68 277 -44 17
-49 16 -156 -5 -155 -30 -336 -45 -440 -37 l-88 8 0 169 0 169 175 0 c277 0
428 23 484 74 52 47 66 137 31 206 -42 82 -91 94 -310 75 -91 -8 -213 -15
-272 -15 l-108 0 0 189 c0 170 2 190 18 196 9 4 161 10 337 14 298 6 323 8
367 28 75 34 112 114 88 188 -26 80 -106 136 -190 133 -25 -1 -171 -5 -325 -8z"/>
<path d="M12070 20581 c-116 -7 -141 -16 -183 -73 -52 -69 -56 -159 -9 -201
52 -47 165 -68 368 -68 l154 0 0 -657 c0 -397 4 -671 10 -691 37 -131 247
-165 314 -51 18 31 19 60 18 715 l-2 683 203 5 c114 3 219 10 242 17 84 25
119 90 95 175 -14 51 -81 133 -113 140 -33 7 -977 12 -1097 6z"/>
<path d="M15910 20581 c-131 -7 -166 -26 -206 -107 -45 -92 -24 -157 63 -196
67 -30 138 -39 311 -39 l162 0 0 -670 c0 -750 -3 -713 72 -765 56 -39 140 -45
195 -14 72 40 68 -9 71 756 l3 692 202 5 c208 5 256 13 301 48 55 43 51 146
-9 224 -48 64 -32 63 -570 67 -270 2 -537 2 -595 -1z"/>
<path d="M5907 20565 c-203 -39 -362 -143 -469 -309 -70 -108 -83 -196 -49
-325 33 -127 121 -226 256 -291 81 -39 144 -58 360 -105 194 -43 253 -80 285
-178 20 -65 6 -122 -47 -178 -61 -65 -117 -84 -227 -75 -160 13 -277 57 -359
135 -61 57 -109 81 -165 81 -105 0 -183 -137 -138 -243 37 -89 263 -233 463
-294 77 -23 106 -27 228 -27 158 -1 186 7 318 85 183 108 281 270 280 464 0
127 -33 217 -119 323 -62 78 -114 118 -209 162 -98 47 -180 71 -357 106 -192
38 -258 81 -244 159 16 81 107 142 254 171 88 17 117 14 289 -27 103 -25 128
-28 162 -19 108 29 155 189 81 273 -78 89 -398 149 -593 112z"/>
<path d="M14044 20569 c-78 -13 -203 -55 -260 -88 -109 -63 -235 -205 -275
-311 -37 -98 -15 -272 47 -361 76 -110 214 -192 399 -235 273 -65 310 -74 350
-94 59 -28 97 -86 103 -155 2 -30 2 -65 -2 -79 -9 -36 -62 -93 -110 -119 -81
-43 -301 -20 -429 45 -23 11 -67 43 -97 71 -64 58 -103 77 -161 77 -94 0 -154
-77 -147 -187 4 -59 7 -66 48 -109 99 -100 256 -189 426 -240 77 -24 107 -27
224 -28 157 -1 200 11 327 90 190 118 281 282 271 484 -6 105 -32 180 -91 263
-117 163 -247 230 -583 301 -226 48 -267 76 -250 171 12 61 68 109 166 140
119 38 199 37 369 -4 132 -32 135 -32 179 -15 85 32 127 145 88 239 -18 42
-57 67 -159 101 -147 49 -304 65 -433 43z"/>
<path d="M5790 17651 c-47 -11 -125 -33 -174 -50 -49 -17 -98 -28 -110 -26
-33 9 -107 -35 -141 -83 l-30 -44 -3 -370 -3 -369 -38 -37 c-76 -73 -77 -168
-1 -236 l40 -36 0 -262 c0 -298 5 -320 76 -374 33 -25 46 -29 105 -29 77 0
104 17 142 90 20 38 21 53 18 265 l-2 225 193 0 c172 0 202 3 272 23 134 39
230 95 326 192 136 135 200 286 200 471 0 286 -182 545 -447 635 -107 37 -297
43 -423 15z m309 -333 c35 -9 61 -26 107 -72 76 -76 107 -148 107 -251 1 -157
-73 -256 -240 -317 -46 -17 -87 -23 -196 -26 -76 -2 -154 -1 -173 3 l-34 6 2
302 3 302 81 27 c141 48 228 55 343 26z"/>
<path d="M7580 17638 c-336 -48 -625 -323 -734 -700 -39 -135 -49 -204 -49
-338 -1 -143 19 -259 64 -384 57 -158 181 -310 299 -367 480 -232 919 -63
1165 447 80 167 112 275 125 426 26 301 -43 530 -210 697 -86 87 -155 131
-278 177 -131 49 -246 62 -382 42z m244 -350 c124 -41 221 -130 268 -245 21
-52 23 -73 22 -213 -1 -148 -2 -159 -34 -250 -82 -237 -194 -387 -348 -462
-62 -31 -73 -33 -172 -33 -99 0 -109 2 -172 34 -178 89 -271 274 -254 507 15
223 99 417 241 560 126 127 274 161 449 102z"/>
<path d="M13362 17636 c-239 -46 -441 -158 -488 -273 -33 -79 15 -179 101
-208 l40 -13 3 -549 c1 -348 -1 -566 -8 -597 -20 -92 17 -160 100 -185 63 -19
271 -25 401 -12 225 22 355 70 466 174 245 229 263 546 42 751 l-71 65 40 48
c88 104 134 257 113 376 -32 187 -174 338 -381 407 -84 28 -254 35 -358 16z
m259 -343 c70 -23 135 -84 145 -137 14 -79 -63 -169 -171 -202 -27 -8 -92 -17
-142 -21 l-93 -6 0 181 0 182 28 6 c15 3 32 7 37 9 30 10 150 3 196 -12z m-30
-723 c76 -14 174 -65 205 -106 20 -25 27 -49 31 -96 5 -61 4 -64 -32 -105 -64
-75 -174 -115 -352 -127 l-83 -6 0 219 0 220 33 4 c65 8 146 7 198 -3z"/>
<path d="M11905 17591 c-93 -23 -149 -90 -149 -175 0 -99 69 -154 204 -163
l80 -6 0 -543 0 -544 -76 0 c-58 0 -85 -5 -113 -21 -66 -37 -100 -110 -87
-184 9 -45 67 -111 109 -124 49 -15 551 -24 617 -12 118 23 180 80 180 164 0
41 -27 102 -57 129 -34 31 -91 48 -158 48 l-65 0 0 545 0 545 40 0 c140 0 230
66 230 170 0 56 -31 111 -82 146 l-43 29 -300 2 c-165 1 -313 -2 -330 -6z"/>
<path d="M14523 17579 c-53 -16 -89 -60 -101 -126 -7 -36 -13 -321 -17 -743
-6 -602 -5 -694 9 -759 18 -85 34 -114 79 -142 31 -19 47 -20 482 -17 434 3
452 4 495 24 119 56 148 168 68 260 -60 69 -52 67 -444 59 l-353 -7 2 680 2
681 -30 31 c-16 18 -41 38 -55 45 -36 18 -100 25 -137 14z"/>
<path d="M16390 17580 c-377 -10 -535 -40 -616 -117 -62 -58 -63 -160 -3 -224
l29 -31 0 -609 c0 -492 3 -616 14 -642 14 -36 65 -83 105 -99 89 -36 507 -50
686 -23 175 26 256 51 292 89 82 87 59 212 -48 266 -49 25 -79 25 -209 -1 -85
-18 -143 -22 -300 -23 l-195 -1 -3 168 -2 167 142 0 c259 0 450 26 508 68 55
40 78 148 45 211 -20 41 -70 79 -110 87 -19 3 -92 1 -163 -5 -70 -6 -193 -14
-274 -18 l-148 -6 0 196 c0 109 1 197 3 198 1 1 151 5 332 9 361 8 386 12 441
67 74 74 48 204 -51 260 -33 19 -54 22 -120 21 -44 -1 -204 -5 -355 -8z"/>
<path d="M9233 17546 c-51 -14 -125 -42 -165 -63 -100 -51 -220 -172 -273
-273 -37 -70 -39 -81 -40 -160 0 -132 28 -209 109 -297 103 -110 203 -156 474
-214 189 -40 242 -60 286 -109 31 -35 56 -91 56 -130 0 -37 -24 -94 -53 -127
-49 -55 -97 -73 -201 -73 -160 0 -299 49 -402 142 -79 71 -134 88 -200 63 -74
-28 -113 -108 -99 -202 8 -56 61 -111 182 -190 174 -114 339 -166 523 -167 90
0 127 4 171 20 92 33 209 105 275 172 165 164 196 432 72 624 -114 177 -267
260 -593 324 -253 49 -310 105 -230 226 30 45 81 73 182 99 103 26 153 24 300
-11 69 -16 142 -30 162 -30 79 0 146 80 145 175 -1 75 -23 108 -96 144 -103
51 -206 73 -358 77 -119 4 -146 1 -227 -20z"/>
<path d="M10811 17560 c-191 -40 -352 -145 -454 -294 -77 -114 -95 -209 -61
-340 21 -84 52 -132 126 -202 99 -92 201 -135 443 -184 217 -45 276 -73 317
-153 46 -92 16 -195 -74 -254 -36 -25 -53 -28 -135 -31 -168 -7 -309 40 -421
140 -79 71 -132 88 -196 64 -51 -19 -69 -38 -91 -89 -19 -46 -19 -107 -1 -152
18 -43 146 -145 253 -202 173 -92 383 -137 531 -114 180 27 380 171 452 323
40 84 53 156 48 258 -8 140 -56 238 -170 351 -99 97 -234 153 -513 209 -198
40 -255 77 -242 156 13 80 79 130 214 165 103 26 143 24 297 -12 86 -20 146
-29 174 -26 90 10 156 116 131 212 -20 74 -78 113 -236 156 -88 24 -316 35
-392 19z"/>
<path d="M34835 19051 c-177 -18 -331 -151 -366 -319 -9 -44 0 -563 40 -2456
28 -1321 55 -2441 59 -2491 10 -110 41 -184 108 -256 52 -55 105 -90 172 -113
38 -14 660 -16 5410 -22 4131 -5 5382 -3 5432 6 141 26 253 111 313 237 l32
68 -3 935 c-2 514 2 1212 8 1550 15 743 16 2184 2 2403 -9 147 -12 163 -42
223 -42 86 -113 157 -197 197 l-68 32 -1470 0 c-808 0 -3243 3 -5410 7 -2167
4 -3976 3 -4020 -1z m8398 -836 l1987 0 0 -565 c0 -311 -7 -974 -15 -1475 -8
-500 -15 -1143 -15 -1427 l0 -518 -4900 0 c-4660 0 -4900 1 -4900 18 0 61 -80
3696 -84 3819 l-5 152 112 4 c62 3 1399 2 2972 -2 1573 -3 3754 -6 4848 -6z"/>
<path d="M42035 17190 c-66 -4 -260 -8 -431 -9 -337 -1 -374 -6 -440 -56 -76
-58 -101 -178 -54 -266 22 -42 23 -58 31 -369 10 -365 20 -427 73 -488 54 -62
135 -85 214 -63 18 6 56 29 84 53 l52 43 150 0 c136 0 157 -2 216 -25 83 -31
163 -107 180 -171 24 -90 -14 -219 -88 -298 -58 -62 -134 -97 -238 -112 -108
-15 -169 -1 -312 72 -122 62 -152 69 -225 47 -58 -17 -122 -82 -137 -138 -22
-83 7 -181 71 -234 84 -71 318 -158 481 -179 311 -40 666 157 809 448 54 112
73 190 73 310 -1 86 -5 114 -33 195 -68 202 -182 339 -356 427 -144 73 -218
94 -355 100 -63 3 -140 1 -171 -4 l-57 -10 -6 36 c-3 20 -6 84 -6 143 l0 107
343 4 c380 4 389 5 462 69 126 111 78 314 -84 362 -30 9 -71 15 -90 14 -20 -1
-90 -5 -156 -8z"/>
<path d="M43905 17190 c-66 -4 -260 -8 -431 -9 -337 -1 -374 -6 -440 -56 -78
-60 -100 -172 -52 -275 26 -54 26 -60 33 -379 8 -367 16 -419 77 -478 86 -84
191 -84 290 -1 l52 43 155 0 c191 -1 244 -17 327 -100 61 -60 80 -112 70 -188
-24 -179 -141 -292 -331 -318 -109 -15 -168 -2 -312 72 -76 39 -127 59 -150
59 -133 0 -239 -117 -219 -241 14 -85 52 -134 141 -184 195 -109 438 -163 604
-135 272 46 509 215 622 445 54 111 73 190 73 310 -1 86 -5 114 -33 195 -41
122 -110 236 -186 309 -98 94 -258 176 -404 207 -71 15 -227 18 -302 5 l-47
-8 -6 36 c-3 20 -6 84 -6 144 l0 107 318 0 c254 0 330 3 377 15 179 47 242
235 121 361 -45 46 -120 75 -185 72 -20 -1 -90 -5 -156 -8z"/>
<path d="M36965 17173 c-75 -27 -143 -70 -206 -130 -115 -109 -146 -226 -84
-314 35 -50 107 -91 159 -91 l36 0 0 -608 0 -609 -54 -11 c-97 -20 -172 -94
-197 -193 -14 -56 0 -122 34 -157 45 -49 72 -52 382 -53 396 -1 487 17 522
101 50 120 -88 312 -226 312 l-41 0 0 808 0 809 -23 44 c-13 24 -43 57 -66 74
-36 25 -53 30 -114 33 -50 1 -87 -3 -122 -15z"/>
<path d="M38835 17173 c-75 -27 -143 -70 -206 -130 -115 -109 -146 -226 -84
-314 35 -50 107 -91 159 -91 l36 0 0 -608 0 -609 -54 -11 c-95 -20 -171 -92
-196 -189 -25 -94 30 -191 117 -207 21 -4 162 -7 313 -7 381 0 472 18 507 101
50 120 -87 312 -224 312 l-43 0 0 808 0 809 -23 44 c-13 24 -43 57 -66 74 -36
25 -53 30 -114 33 -50 1 -87 -3 -122 -15z"/>
<path d="M40229 16546 c-59 -21 -104 -53 -133 -94 -65 -94 -48 -258 35 -341
97 -97 256 -100 367 -6 51 43 75 99 80 187 4 69 2 84 -22 132 -43 89 -126 136
-235 136 -31 -1 -72 -7 -92 -14z"/>
<path d="M40227 15526 c-130 -47 -188 -149 -166 -289 19 -116 76 -181 188
-213 70 -21 136 -13 202 23 66 35 105 81 124 145 42 144 -9 271 -135 327 -53
24 -155 27 -213 7z"/>
</g>
</svg>
