<svg id="svg" version="1.1" xmlns="http://www.w3.org/2000/svg" xmlns:xlink="http://www.w3.org/1999/xlink" width="400" height="400" viewBox="0, 0, 400,400"><g id="svgg"><path id="path0" d="M237.547 2.862 C 237.679 3.825,238.462 6.848,239.287 9.580 C 243.578 23.791,243.907 38.827,240.092 46.481 C 237.441 51.802,227.781 61.069,219.247 66.479 C 204.635 75.743,202.248 78.253,196.181 90.741 C 192.518 98.279,190.198 101.002,185.142 103.697 C 178.278 107.355,174.546 103.106,176.853 94.259 C 177.772 90.737,172.687 95.229,170.199 100.137 C 168.475 103.541,167.899 106.033,167.359 112.427 C 166.670 120.597,166.233 120.163,175.763 120.762 C 194.140 121.918,196.289 120.981,208.497 106.481 C 219.354 93.587,231.020 84.687,242.904 80.232 C 248.408 78.169,249.259 78.122,249.259 79.883 C 249.259 79.989,248.009 81.355,246.480 82.917 C 238.252 91.330,234.074 102.399,234.074 115.792 C 234.074 128.408,243.171 148.620,248.849 148.620 C 252.978 148.620,255.255 145.906,256.768 139.185 C 257.708 135.012,259.173 132.372,261.031 131.509 C 262.298 130.920,262.429 131.790,261.485 134.519 C 259.299 140.835,260.703 155.471,264.106 161.856 C 266.722 166.765,269.920 169.756,277.959 174.816 C 282.975 177.973,283.185 177.848,281.216 172.879 C 277.437 163.344,278.090 157.491,284.563 142.889 C 288.383 134.270,287.638 115.331,283.146 106.883 C 280.402 101.723,279.050 100.678,279.438 104.017 C 280.166 110.294,274.416 115.306,270.131 112.130 C 262.197 106.249,261.871 101.667,268.411 87.963 C 276.911 70.153,278.347 57.978,273.337 46.211 C 273.140 45.749,272.058 42.989,270.932 40.077 C 266.845 29.506,260.175 20.704,246.738 8.148 C 238.523 0.472,237.108 -0.342,237.547 2.862 M154.630 129.462 C 152.796 129.942,149.463 130.779,147.222 131.323 C 142.736 132.412,141.400 132.933,143.046 132.952 C 143.600 132.958,146.267 133.557,148.972 134.284 C 151.676 135.010,154.523 135.769,155.299 135.971 C 157.038 136.425,158.406 137.668,157.815 138.259 C 156.780 139.295,157.326 144.344,158.519 144.759 C 159.957 145.261,160.037 146.368,158.624 146.218 C 157.887 146.140,157.581 146.297,157.477 146.807 C 157.301 147.670,158.988 147.481,164.200 146.051 C 166.066 145.539,168.301 145.048,169.168 144.958 C 172.802 144.584,172.963 144.168,172.963 135.176 C 172.963 129.848,173.408 130.242,166.328 129.288 C 159.399 128.353,158.831 128.361,154.630 129.462 M333.184 128.938 C 333.096 129.217,332.920 130.859,332.792 132.588 C 331.905 144.620,327.567 151.741,317.222 158.145 C 314.778 159.659,311.528 161.837,310.000 162.987 C 308.472 164.136,306.485 165.452,305.585 165.911 C 300.907 168.297,298.111 162.904,301.111 157.281 C 302.575 154.538,302.513 154.165,300.802 155.431 C 292.658 161.455,285.770 178.104,288.137 186.042 C 290.637 194.425,291.001 195.186,292.509 195.184 C 295.002 195.180,296.792 193.099,298.876 187.778 C 300.903 182.604,302.172 180.502,304.695 178.143 C 308.961 174.151,314.096 172.843,311.347 176.448 C 308.850 179.722,306.497 186.038,305.947 190.944 C 305.542 194.550,305.880 195.880,307.834 198.377 C 308.720 199.509,310.028 201.546,310.741 202.903 C 313.295 207.765,316.010 206.171,319.043 198.027 C 320.974 192.841,322.042 190.972,324.225 188.960 C 327.133 186.279,327.950 187.008,326.447 190.945 C 324.830 195.183,324.486 196.913,323.872 203.889 C 322.781 216.304,324.189 219.825,332.480 225.414 C 338.321 229.351,339.071 230.373,339.768 235.338 L 340.188 238.333 342.594 239.921 C 343.917 240.794,346.583 242.358,348.519 243.397 C 350.454 244.436,354.175 246.529,356.788 248.046 C 362.354 251.279,361.856 251.429,362.241 246.410 C 362.410 244.208,362.839 240.491,363.195 238.148 C 365.505 222.933,362.472 207.950,355.041 197.870 C 352.385 194.267,351.577 195.311,351.097 202.963 C 350.595 210.966,349.182 212.963,344.019 212.963 C 341.729 212.963,341.687 212.944,340.011 211.160 C 335.465 206.318,335.303 203.780,338.986 195.185 C 344.123 183.198,345.181 175.016,342.985 164.259 C 342.514 161.950,342.226 159.091,342.220 156.667 C 342.208 151.383,341.574 142.466,341.079 140.600 C 339.750 135.600,333.837 126.866,333.184 128.938 M141.111 136.952 L 141.111 139.916 142.738 140.160 C 143.632 140.294,146.738 141.068,149.639 141.880 C 155.696 143.575,155.370 143.658,155.370 140.432 L 155.370 137.963 153.333 137.369 C 148.802 136.047,142.728 134.342,141.944 134.170 C 141.134 133.993,141.111 134.071,141.111 136.952 M208.889 137.386 C 204.917 138.359,199.583 139.613,197.037 140.172 C 194.491 140.732,186.407 142.671,179.074 144.481 C 163.842 148.241,154.532 150.294,151.240 150.617 L 148.962 150.841 150.170 152.735 C 153.623 158.153,158.105 167.899,165.379 185.807 C 166.884 189.510,168.937 194.343,169.942 196.548 C 170.946 198.752,172.711 202.972,173.862 205.926 C 175.013 208.880,176.514 212.630,177.198 214.259 C 180.395 221.882,181.111 223.678,181.111 224.078 C 181.111 224.316,181.690 225.827,182.398 227.438 C 184.004 231.089,188.747 245.035,189.818 249.257 L 190.618 252.407 192.254 252.341 C 194.002 252.270,201.700 249.537,211.852 245.384 C 215.213 244.008,219.380 242.388,221.111 241.783 C 222.843 241.178,226.009 239.882,228.148 238.904 C 230.287 237.926,234.370 236.249,237.222 235.177 C 240.074 234.106,245.074 232.103,248.333 230.728 C 251.593 229.353,255.676 227.727,257.407 227.115 C 259.139 226.502,262.639 225.078,265.185 223.949 C 267.731 222.821,270.024 221.845,270.280 221.782 C 270.955 221.614,270.948 290.328,270.272 290.984 C 269.802 291.441,263.700 293.947,255.556 297.028 C 253.009 297.992,248.676 299.715,245.926 300.857 C 239.953 303.338,224.419 309.475,220.000 311.101 C 218.269 311.737,212.019 314.198,206.111 316.569 C 200.204 318.941,194.037 321.342,192.407 321.905 L 189.444 322.930 189.259 286.743 C 189.077 251.222,188.953 247.702,187.931 249.289 C 187.734 249.595,187.547 265.265,187.483 286.759 C 187.423 307.079,187.257 323.703,187.113 323.702 C 186.839 323.700,185.679 323.118,174.259 317.249 C 164.954 312.466,164.123 311.931,163.871 310.556 C 163.759 309.944,163.717 299.639,163.778 287.654 L 163.889 265.865 163.072 265.201 C 162.622 264.836,160.539 263.862,158.442 263.037 C 156.345 262.212,152.713 260.786,150.370 259.868 C 145.388 257.915,140.384 256.505,139.956 256.933 C 139.791 257.098,139.608 266.259,139.550 277.290 C 139.492 288.321,139.341 297.449,139.215 297.576 C 139.088 297.702,137.172 296.791,134.955 295.551 C 129.686 292.604,124.172 289.931,119.709 288.162 L 116.111 286.735 115.926 259.888 C 115.750 234.332,115.707 233.003,115.049 232.276 C 113.833 230.933,114.736 228.575,124.771 206.909 C 126.832 202.459,128.519 198.746,128.519 198.657 C 128.519 197.722,142.112 170.800,146.166 163.704 C 148.742 159.196,149.630 157.351,149.630 156.506 C 149.630 155.502,147.865 152.345,146.864 151.557 C 145.140 150.201,146.054 149.520,150.478 148.867 C 155.379 148.142,156.836 147.080,155.008 145.562 C 154.610 145.232,142.155 141.852,141.335 141.852 C 141.276 141.852,141.125 144.686,141.000 148.150 L 140.774 154.449 138.391 158.984 C 134.434 166.513,114.712 206.074,111.850 212.222 C 110.381 215.380,108.537 219.213,107.753 220.741 C 103.605 228.822,104.760 231.797,112.118 231.983 L 114.259 232.037 114.354 259.870 L 114.449 287.703 118.058 289.097 C 124.298 291.508,136.058 297.575,147.675 304.379 C 151.093 306.381,154.806 308.528,155.926 309.150 C 158.036 310.322,159.022 310.860,166.481 314.901 C 180.258 322.366,188.682 326.229,189.193 325.317 C 189.364 325.011,190.907 324.182,192.622 323.474 C 199.062 320.815,218.214 313.265,224.815 310.782 C 231.427 308.296,239.318 305.197,252.963 299.730 C 256.528 298.302,261.278 296.427,263.519 295.564 C 265.759 294.701,268.634 293.523,269.907 292.946 L 272.222 291.898 272.228 256.782 C 272.231 237.469,272.356 221.487,272.506 221.268 C 272.655 221.049,273.778 220.475,275.000 219.993 C 280.019 218.015,279.834 217.405,270.539 205.291 C 268.697 202.890,265.364 198.290,263.132 195.069 C 260.900 191.848,258.206 187.965,257.144 186.440 C 256.083 184.915,253.818 181.967,252.111 179.889 C 249.185 176.328,244.287 169.886,235.074 157.485 C 232.874 154.523,229.121 149.669,226.734 146.698 C 224.347 143.727,221.914 140.630,221.326 139.815 C 217.826 134.961,218.364 135.066,208.889 137.386 M71.185 141.122 C 66.781 145.225,63.408 153.015,62.384 161.449 C 62.072 164.013,61.498 168.028,61.109 170.370 C 59.523 179.901,59.843 185.293,62.437 192.719 C 65.736 202.164,65.641 201.758,65.466 205.581 C 65.110 213.383,59.977 217.213,55.489 213.027 L 53.969 211.610 53.622 207.389 C 53.015 200.010,52.331 199.429,49.389 203.787 C 43.953 211.836,42.780 226.865,46.721 237.963 C 49.038 244.489,49.978 248.556,50.244 253.210 C 50.453 256.874,50.565 257.412,51.076 257.217 C 51.401 257.092,53.500 256.268,55.741 255.384 C 69.323 250.027,72.245 248.904,74.116 248.322 L 76.195 247.674 76.390 243.853 C 76.654 238.688,77.297 237.414,81.357 234.023 C 90.991 225.977,92.398 221.767,90.377 207.037 C 89.448 200.265,88.843 197.735,87.379 194.507 C 86.092 191.669,86.072 191.481,87.051 191.481 C 88.863 191.481,92.668 196.851,95.712 203.704 C 98.505 209.989,100.082 209.813,100.698 203.148 C 101.240 197.282,102.767 192.778,105.628 188.604 C 111.544 179.975,110.746 170.762,103.097 159.384 C 99.985 154.755,99.474 154.642,99.739 158.644 C 100.657 172.473,89.963 176.621,80.511 166.102 C 73.742 158.568,73.105 156.557,72.980 142.315 C 72.961 140.154,72.531 139.868,71.185 141.122 M150.737 158.981 C 150.735 159.236,149.676 161.288,148.384 163.540 C 147.092 165.793,144.359 170.960,142.311 175.022 C 140.264 179.084,137.306 184.907,135.738 187.963 C 134.171 191.019,131.255 197.185,129.259 201.667 C 127.262 206.148,124.599 211.981,123.339 214.630 C 122.080 217.278,120.729 220.244,120.338 221.221 C 119.947 222.198,118.888 224.615,117.986 226.591 C 115.944 231.064,115.626 232.222,116.438 232.222 C 117.221 232.222,122.767 220.791,129.825 204.630 C 131.651 200.447,140.454 182.510,147.041 169.548 C 148.669 166.346,150.000 163.304,150.000 162.789 C 150.000 160.083,153.304 165.723,156.611 174.074 C 157.216 175.602,158.240 178.019,158.886 179.444 C 159.532 180.870,161.236 184.954,162.672 188.519 C 164.108 192.083,165.947 196.500,166.758 198.333 C 167.569 200.167,169.635 205.167,171.349 209.444 C 173.064 213.722,174.618 217.556,174.803 217.963 C 175.984 220.562,183.857 241.500,185.217 245.660 C 186.155 248.529,186.898 248.756,186.759 246.133 C 186.634 243.770,183.777 235.794,177.665 220.741 C 176.053 216.769,173.824 211.269,172.713 208.519 C 171.602 205.769,169.797 201.435,168.702 198.889 C 167.606 196.343,166.137 192.759,165.436 190.926 C 164.735 189.093,163.042 185.009,161.674 181.852 C 160.306 178.694,158.524 174.542,157.715 172.624 C 154.351 164.651,150.749 157.609,150.737 158.981 M151.994 161.389 C 152.120 161.745,152.318 162.287,152.435 162.593 C 152.552 162.898,152.305 162.731,151.887 162.222 C 151.067 161.222,150.921 160.741,151.438 160.741 C 151.618 160.741,151.868 161.032,151.994 161.389 M216.209 177.767 C 216.562 177.965,221.935 179.569,228.148 181.331 C 240.737 184.900,242.222 185.409,242.222 186.151 C 242.222 186.948,240.123 186.787,236.430 185.706 C 226.934 182.926,215.156 179.630,214.737 179.636 C 214.191 179.643,211.528 183.309,208.151 188.704 C 206.876 190.741,205.270 193.269,204.583 194.323 C 202.332 197.771,201.983 197.541,209.107 197.307 C 215.855 197.086,215.279 197.211,225.926 193.647 C 230.598 192.083,232.835 191.222,234.665 190.284 C 238.159 188.493,238.603 189.686,238.815 201.434 L 238.986 210.957 238.104 211.918 C 237.619 212.447,236.222 213.266,235.000 213.738 C 233.778 214.210,232.611 214.711,232.407 214.851 C 231.092 215.756,216.264 221.111,215.073 221.111 C 214.767 221.111,214.731 210.906,215.033 209.779 C 215.182 209.224,215.472 209.044,216.047 209.148 C 216.490 209.229,218.496 208.703,220.504 207.981 C 225.573 206.157,225.185 205.882,225.185 211.296 C 225.185 214.968,225.290 215.926,225.692 215.926 C 226.371 215.926,226.658 213.985,226.663 209.352 C 226.666 206.043,226.747 205.556,227.290 205.556 C 227.632 205.556,229.538 204.889,231.525 204.074 C 236.258 202.133,235.926 201.952,235.926 206.481 C 235.926 210.268,236.338 211.549,236.806 209.213 C 237.115 207.668,237.053 194.431,236.733 193.625 C 236.128 192.100,235.581 193.645,235.477 197.174 L 235.370 200.803 231.296 202.428 C 229.056 203.322,227.113 204.058,226.979 204.064 C 226.845 204.070,226.624 202.449,226.487 200.463 C 226.014 193.585,225.000 193.490,225.000 200.324 L 225.000 204.845 220.211 206.477 C 214.480 208.431,214.815 208.571,214.815 204.213 C 214.815 199.030,215.186 199.296,208.246 199.503 C 199.914 199.751,198.978 198.947,202.128 194.246 C 202.942 193.031,205.347 189.370,207.473 186.111 C 213.066 177.536,214.074 176.573,216.209 177.767 M141.406 201.399 C 139.661 201.759,138.768 226.849,140.463 227.914 C 141.951 228.850,160.237 235.556,161.300 235.556 L 162.333 235.556 162.128 222.130 C 162.015 214.745,161.760 208.287,161.561 207.777 C 160.997 206.332,143.827 200.899,141.406 201.399 M147.222 203.973 C 148.852 204.490,150.354 205.045,150.560 205.207 C 150.905 205.477,150.587 215.463,150.221 215.828 C 150.144 215.905,148.230 215.170,145.967 214.194 L 141.852 212.420 141.852 208.223 C 141.852 202.092,141.693 202.217,147.222 203.973 M153.779 206.271 C 154.247 206.460,155.830 206.963,157.297 207.387 L 159.965 208.159 160.075 214.080 C 160.203 220.981,160.575 220.597,155.741 218.560 L 152.407 217.155 152.423 215.430 C 152.472 209.918,152.614 205.926,152.760 205.926 C 152.853 205.926,153.311 206.081,153.779 206.271 M147.496 216.421 L 150.362 217.593 150.366 223.796 C 150.369 227.443,150.226 230.000,150.021 230.000 C 149.473 230.000,143.244 227.433,142.315 226.825 C 141.509 226.297,141.481 226.087,141.481 220.424 C 141.481 213.819,141.458 213.895,143.288 214.677 C 144.026 214.992,145.919 215.777,147.496 216.421 M156.481 220.701 L 160.185 222.138 160.287 227.949 L 160.389 233.760 159.547 233.504 C 156.970 232.724,152.715 230.911,152.315 230.423 C 151.540 229.477,151.752 219.254,152.546 219.261 C 152.674 219.263,154.444 219.911,156.481 220.701 M235.853 256.058 C 229.193 258.736,222.193 261.481,220.298 262.160 C 216.110 263.659,211.764 265.582,211.395 266.100 C 210.826 266.897,211.064 299.499,211.641 299.979 C 212.550 300.733,224.289 296.308,244.755 287.498 L 250.436 285.053 250.218 283.961 C 250.098 283.361,250.000 275.725,250.000 266.991 L 250.000 251.111 248.981 251.151 C 248.421 251.173,242.514 253.381,235.853 256.058 M248.063 260.591 L 247.963 268.218 245.370 269.065 C 243.944 269.531,241.653 270.347,240.278 270.879 L 237.778 271.845 237.778 264.441 C 237.778 259.876,237.916 257.037,238.139 257.037 C 238.338 257.037,240.546 256.125,243.046 255.010 C 245.547 253.895,247.721 252.979,247.878 252.973 C 248.035 252.968,248.118 256.395,248.063 260.591 M235.926 265.278 L 235.925 272.407 232.500 273.626 C 229.070 274.846,227.261 275.420,225.589 275.821 L 224.696 276.035 224.941 272.590 C 225.075 270.696,225.185 267.606,225.185 265.725 L 225.185 262.304 230.093 260.253 C 232.792 259.125,235.208 258.190,235.463 258.175 C 235.818 258.154,235.926 259.806,235.926 265.278 M147.593 260.575 C 153.127 262.544,158.190 264.554,160.370 265.646 L 162.037 266.481 162.133 288.611 C 162.185 300.782,162.150 310.741,162.054 310.741 C 161.804 310.741,153.741 306.191,147.073 302.288 L 141.368 298.949 141.330 278.750 L 141.293 258.550 142.220 258.772 C 142.731 258.894,145.148 259.705,147.593 260.575 M223.353 268.601 C 223.306 271.713,223.158 274.906,223.023 275.696 L 222.778 277.134 217.964 278.903 C 215.317 279.876,213.067 280.620,212.964 280.557 C 212.862 280.494,212.826 277.362,212.886 273.598 L 212.994 266.753 218.071 264.718 C 220.863 263.598,223.213 262.741,223.293 262.813 C 223.372 262.885,223.399 265.490,223.353 268.601 M248.329 273.426 C 248.468 275.514,248.498 277.722,248.395 278.333 C 248.293 278.944,248.195 280.546,248.179 281.892 L 248.148 284.340 245.278 285.476 C 243.699 286.100,241.502 287.032,240.396 287.545 C 239.289 288.059,238.248 288.395,238.081 288.292 C 237.396 287.868,237.726 273.697,238.426 273.469 C 238.782 273.352,240.991 272.454,243.333 271.472 C 245.676 270.490,247.702 269.673,247.835 269.658 C 247.968 269.642,248.190 271.338,248.329 273.426 M236.020 281.759 C 236.131 285.782,236.172 289.126,236.111 289.191 C 235.900 289.415,225.485 293.704,225.152 293.704 C 224.960 293.704,224.815 290.366,224.815 285.975 L 224.815 278.246 227.870 277.120 C 229.551 276.500,231.843 275.654,232.963 275.238 C 234.083 274.823,235.184 274.474,235.409 274.464 C 235.687 274.451,235.882 276.775,236.020 281.759 M223.148 286.805 C 223.148 293.218,223.057 294.529,222.593 294.821 C 222.035 295.171,215.364 297.814,213.789 298.309 L 212.948 298.573 213.048 290.530 L 213.148 282.486 217.778 280.714 C 220.324 279.739,222.574 278.985,222.778 279.039 C 223.010 279.100,223.148 282.005,223.148 286.805 M143.241 282.848 C 142.396 283.069,142.424 283.303,143.451 284.587 C 144.397 285.769,145.926 285.490,145.926 284.135 C 145.926 282.863,144.959 282.399,143.241 282.848 " stroke="none" fill="#1e1e1e" fill-rule="evenodd"></path><path id="path1" d="M0.000 200.000 L 0.000 400.000 200.000 400.000 L 400.000 400.000 400.000 200.000 L 400.000 0.000 200.000 0.000 L 0.000 0.000 0.000 200.000 M239.006 1.162 C 245.200 4.384,265.241 26.457,268.720 33.889 C 279.101 56.066,279.000 67.262,268.220 89.086 C 263.979 97.672,263.062 102.119,264.822 105.570 C 269.839 115.404,280.100 114.287,279.068 104.018 C 278.281 96.174,284.871 107.341,286.096 115.926 C 286.227 116.843,286.596 119.176,286.916 121.111 C 288.377 129.944,287.511 136.788,283.846 145.347 C 279.085 156.469,278.093 163.886,280.524 170.185 C 284.074 179.381,284.230 179.287,275.185 173.392 C 268.285 168.894,264.398 164.372,262.410 158.527 C 259.940 151.265,259.293 139.638,261.080 134.634 C 262.143 131.658,261.995 131.095,260.484 132.368 C 258.620 133.937,257.828 135.563,257.014 139.493 C 254.948 149.454,248.120 152.218,243.483 144.970 C 229.804 123.586,230.704 98.749,245.719 83.293 C 250.414 78.460,249.975 78.006,243.056 80.538 C 231.772 84.667,218.639 94.616,209.103 106.259 C 202.461 114.369,199.680 116.949,194.630 119.689 L 191.667 121.296 183.704 121.270 C 166.562 121.215,166.425 121.161,166.814 114.688 C 167.408 104.788,169.037 99.909,173.393 94.984 C 176.582 91.379,177.798 91.527,177.063 95.432 C 176.755 97.067,176.552 99.976,176.634 101.561 C 176.710 103.028,178.869 104.815,180.565 104.815 C 185.866 104.815,191.429 99.679,195.873 90.684 C 202.308 77.658,203.996 75.898,219.778 65.764 C 229.462 59.546,238.691 50.043,240.664 44.259 C 243.623 35.584,242.901 22.415,238.716 8.704 C 236.509 1.473,236.570 -0.106,239.006 1.162 M165.683 128.881 C 168.824 129.285,171.853 129.789,172.413 130.002 L 173.433 130.390 173.257 137.066 C 173.055 144.778,173.079 144.723,169.766 145.194 C 168.571 145.364,165.962 145.922,163.969 146.435 C 157.895 147.995,157.037 148.052,157.037 146.894 C 157.037 145.945,157.309 145.774,158.611 145.907 C 159.665 146.014,159.351 145.382,158.119 144.917 L 156.979 144.487 157.116 141.595 C 157.192 140.005,157.385 138.423,157.546 138.081 C 157.936 137.247,156.244 136.381,152.593 135.545 C 147.662 134.415,141.852 132.801,141.852 132.560 C 141.852 132.220,157.509 128.262,159.153 128.186 C 159.603 128.165,162.542 128.478,165.683 128.881 M335.977 130.238 C 340.603 135.484,341.985 140.592,342.578 154.630 C 342.795 159.754,343.180 163.860,343.706 166.667 C 345.585 176.676,343.866 185.906,337.713 198.836 C 334.002 206.636,341.786 216.200,348.096 211.593 C 349.875 210.293,350.431 208.533,350.743 203.214 C 351.276 194.126,352.577 193.215,356.391 199.259 C 363.253 210.134,365.827 224.010,363.572 237.963 C 363.209 240.204,362.778 243.925,362.612 246.233 C 362.217 251.748,362.460 251.661,356.703 248.340 C 354.018 246.791,350.177 244.627,348.169 243.530 C 346.160 242.433,343.434 240.829,342.111 239.965 L 339.705 238.394 339.445 235.586 C 339.019 230.991,337.686 229.175,332.037 225.501 C 329.206 223.660,325.664 220.148,324.640 218.168 C 322.244 213.535,323.059 198.564,326.127 190.863 C 327.204 188.158,327.239 187.778,326.413 187.778 C 324.534 187.778,320.819 193.427,318.963 199.111 C 316.616 206.295,312.657 208.034,310.379 202.883 C 309.960 201.937,308.973 200.348,308.186 199.351 C 305.877 196.430,305.411 195.282,305.478 192.681 C 305.598 187.985,308.291 179.969,310.894 176.556 C 312.435 174.536,311.561 174.173,308.605 175.603 C 304.545 177.569,301.895 181.056,299.072 188.148 C 297.060 193.203,296.028 194.531,293.580 195.208 C 291.022 195.916,289.766 193.936,287.925 186.296 C 285.769 177.352,291.921 161.906,300.210 155.448 C 302.975 153.293,303.180 153.570,301.481 157.165 C 298.685 163.083,301.010 167.875,305.552 165.557 C 306.435 165.107,308.422 163.784,309.967 162.617 C 311.513 161.451,314.774 159.266,317.214 157.763 C 327.294 151.554,331.541 144.582,332.437 132.778 C 332.816 127.787,333.429 127.348,335.977 130.238 M145.357 134.808 C 147.401 135.415,150.574 136.304,152.407 136.783 L 155.741 137.654 155.671 140.533 C 155.582 144.174,156.012 144.014,150.481 142.456 C 147.874 141.721,144.657 140.903,143.333 140.637 L 140.926 140.154 140.819 136.929 C 140.694 133.153,140.340 133.318,145.357 134.808 M219.409 137.130 C 222.272 140.405,229.945 150.163,234.630 156.487 C 237.074 159.787,239.750 163.302,240.576 164.299 C 241.402 165.296,243.723 168.361,245.733 171.111 C 247.743 173.861,250.696 177.694,252.294 179.630 C 255.301 183.271,255.918 184.116,263.225 194.600 C 269.741 203.949,269.729 203.932,273.310 208.491 C 280.011 217.025,280.190 218.353,274.907 220.391 L 272.593 221.283 272.500 239.068 C 272.449 248.849,272.407 264.753,272.407 274.410 L 272.407 291.968 271.111 292.696 C 269.526 293.586,265.097 295.402,258.704 297.785 C 256.056 298.772,252.056 300.349,249.815 301.290 C 247.574 302.231,244.741 303.396,243.519 303.880 C 229.927 309.255,224.090 311.516,219.074 313.348 C 215.815 314.539,212.315 315.839,211.296 316.237 C 207.702 317.643,199.022 321.186,194.752 322.989 C 192.375 323.993,190.290 324.815,190.119 324.815 C 189.948 324.815,189.604 325.141,189.356 325.539 C 188.747 326.514,188.646 326.474,176.966 320.589 C 165.982 315.054,157.639 310.538,148.147 304.989 C 144.582 302.905,139.999 300.311,137.962 299.226 C 135.926 298.141,133.093 296.611,131.667 295.825 C 127.676 293.626,123.196 291.513,118.519 289.623 L 114.259 287.903 114.164 260.099 L 114.069 232.296 111.942 232.296 C 109.417 232.296,105.855 230.882,105.174 229.610 C 104.350 228.070,105.018 225.730,108.150 219.176 C 109.832 215.657,112.204 210.694,113.422 208.148 C 115.673 203.443,122.366 189.989,123.463 187.963 C 123.794 187.352,126.504 181.935,129.486 175.926 C 132.467 169.917,136.204 162.489,137.791 159.420 L 140.675 153.840 140.722 147.770 C 140.747 144.432,140.838 141.632,140.922 141.547 C 141.241 141.228,154.618 144.857,155.257 145.436 C 157.211 147.204,155.926 148.280,150.858 149.122 C 146.862 149.786,145.852 150.240,146.811 150.942 C 147.652 151.557,150.000 155.573,150.000 156.397 C 150.000 157.167,148.137 161.024,145.942 164.797 C 142.501 170.712,131.719 192.001,129.143 197.966 C 127.848 200.965,124.739 207.826,122.684 212.222 C 122.065 213.546,120.810 216.296,119.896 218.333 C 118.981 220.370,117.619 223.366,116.869 224.990 C 115.171 228.664,114.503 231.318,115.120 231.934 C 115.454 232.269,115.556 232.258,115.556 231.888 C 115.556 231.623,116.574 229.048,117.818 226.166 C 120.114 220.847,120.551 219.891,125.411 209.540 C 126.916 206.334,128.148 203.612,128.148 203.491 C 128.148 202.201,143.820 170.839,148.937 161.889 C 149.916 160.178,150.782 158.595,150.863 158.370 C 151.282 157.208,157.488 170.747,165.360 190.000 C 166.651 193.157,168.483 197.574,169.430 199.815 C 170.377 202.056,171.573 204.972,172.087 206.296 C 172.601 207.620,173.920 210.787,175.017 213.333 C 176.791 217.449,178.066 220.645,183.112 233.609 C 183.845 235.492,184.444 237.216,184.444 237.442 C 184.444 237.667,184.687 238.376,184.983 239.018 C 186.566 242.445,187.529 246.240,187.174 247.653 C 186.689 249.586,185.841 248.329,183.888 242.778 C 182.813 239.722,181.104 235.056,180.091 232.407 C 179.077 229.759,177.551 225.759,176.699 223.519 C 175.848 221.278,174.916 218.944,174.630 218.333 C 174.344 217.722,172.950 214.306,171.532 210.741 C 170.114 207.176,168.419 203.009,167.765 201.481 C 166.587 198.732,165.645 196.475,160.261 183.519 C 155.059 170.999,154.531 169.779,152.795 166.280 C 150.904 162.469,150.370 161.691,150.370 162.742 C 150.370 163.110,146.101 172.018,140.883 182.539 C 135.664 193.059,130.681 203.333,129.808 205.370 C 128.395 208.667,127.208 211.285,124.264 217.593 C 123.789 218.611,122.402 221.651,121.182 224.349 C 118.433 230.425,117.178 232.593,116.411 232.593 C 115.894 232.593,115.847 232.991,116.054 235.648 C 116.185 237.329,116.293 249.480,116.294 262.650 L 116.296 286.597 117.870 287.137 C 121.909 288.523,133.045 293.912,137.628 296.700 C 139.319 297.728,139.259 298.450,139.259 277.021 C 139.259 254.267,139.005 255.862,142.477 256.868 C 146.476 258.027,157.352 262.109,161.613 264.050 C 164.456 265.345,164.259 263.505,164.259 288.731 C 164.259 301.209,164.343 311.482,164.444 311.562 C 166.307 313.011,186.672 323.452,186.998 323.125 C 187.121 323.001,187.222 306.623,187.222 286.728 C 187.222 251.654,187.314 248.519,188.340 248.519 C 189.551 248.519,189.692 253.040,189.567 288.111 L 189.444 322.560 190.370 322.332 C 190.880 322.206,195.213 320.528,200.000 318.603 C 211.072 314.150,214.130 312.955,218.704 311.291 C 220.741 310.549,223.157 309.628,224.074 309.243 C 224.991 308.858,228.991 307.273,232.963 305.722 C 236.935 304.170,242.435 301.986,245.185 300.868 C 247.935 299.750,251.314 298.389,252.693 297.843 C 254.072 297.298,258.572 295.519,262.693 293.889 L 270.185 290.926 270.212 258.519 C 270.227 240.694,270.369 225.164,270.529 224.006 L 270.820 221.900 268.260 222.942 C 266.852 223.515,264.792 224.400,263.683 224.909 C 262.574 225.418,260.750 226.176,259.630 226.594 C 257.729 227.302,250.639 230.134,243.333 233.103 C 241.602 233.807,237.935 235.252,235.185 236.314 C 232.435 237.376,228.965 238.817,227.473 239.514 C 225.981 240.212,222.981 241.430,220.806 242.221 C 218.631 243.013,214.352 244.683,211.296 245.933 C 204.966 248.523,205.004 248.508,197.799 251.085 C 191.071 253.491,190.762 253.471,189.894 250.556 C 186.861 240.371,184.671 233.867,182.191 227.678 C 181.393 225.687,180.740 223.854,180.738 223.604 C 180.737 223.353,180.471 222.648,180.147 222.037 C 179.544 220.900,178.904 219.342,175.582 210.926 C 173.166 204.808,170.521 198.492,169.377 196.111 C 168.887 195.093,167.728 192.343,166.801 190.000 C 165.873 187.657,164.714 184.803,164.224 183.657 C 163.734 182.512,163.333 181.469,163.333 181.341 C 163.333 181.212,162.904 180.233,162.378 179.165 C 161.486 177.350,160.864 175.895,157.627 168.056 C 155.446 162.772,151.739 155.550,149.546 152.311 C 148.338 150.527,148.319 150.546,151.667 150.209 C 155.061 149.867,169.771 146.541,183.519 143.006 C 185.963 142.378,191.380 141.103,195.556 140.174 C 202.051 138.729,205.658 137.884,215.000 135.621 C 217.429 135.032,217.638 135.104,219.409 137.130 M73.341 142.870 C 73.379 156.642,74.547 159.908,82.077 167.299 C 90.476 175.544,99.494 171.807,99.408 160.118 C 99.388 157.405,99.494 155.185,99.645 155.185 C 100.818 155.185,104.279 160.113,107.037 165.710 C 111.218 174.198,110.937 180.934,106.083 188.519 C 102.771 193.693,101.594 197.053,101.087 202.778 C 100.617 208.083,100.593 208.148,99.074 208.148 C 97.610 208.148,96.956 207.370,95.342 203.704 C 92.522 197.302,88.791 191.852,87.228 191.852 C 86.509 191.852,86.478 191.705,87.801 194.622 C 89.504 198.376,90.793 205.469,91.606 215.556 C 92.108 221.774,89.005 228.187,83.267 232.790 C 77.652 237.294,77.043 238.319,76.720 243.794 L 76.481 247.844 72.407 249.246 C 70.167 250.016,67.333 251.079,66.111 251.607 C 63.695 252.650,52.150 257.158,50.889 257.550 C 50.138 257.784,50.103 257.645,49.896 253.618 C 49.599 247.855,48.932 244.987,45.966 236.731 C 42.835 228.016,43.956 211.979,48.184 204.993 C 52.081 198.552,53.334 199.208,54.047 208.065 C 54.442 212.974,56.609 214.977,60.556 214.078 C 65.582 212.935,66.702 205.063,63.164 195.741 C 59.537 186.185,58.956 179.355,60.925 169.444 C 61.208 168.019,61.614 165.102,61.826 162.963 C 62.697 154.176,65.769 146.528,70.491 141.389 C 72.632 139.058,73.332 139.422,73.341 142.870 M212.475 179.352 C 211.233 180.882,207.080 187.133,202.831 193.869 C 199.500 199.149,199.711 199.358,208.226 199.221 C 215.481 199.104,215.185 198.892,215.185 204.184 C 215.185 206.967,215.297 207.815,215.648 207.685 C 215.903 207.590,218.069 206.864,220.461 206.071 L 224.811 204.630 224.813 200.463 C 224.814 197.931,224.670 196.296,224.444 196.296 C 224.241 196.296,224.074 196.130,224.074 195.926 C 224.074 195.722,224.282 195.555,224.537 195.553 C 224.792 195.552,225.483 195.299,226.074 194.991 C 227.263 194.371,227.857 194.563,226.975 195.282 C 226.502 195.667,226.457 196.355,226.691 199.566 C 227.013 203.966,226.996 203.930,228.392 203.231 C 228.971 202.941,230.736 202.240,232.315 201.673 L 235.185 200.642 235.185 197.062 C 235.185 194.831,235.348 193.319,235.617 193.050 C 235.945 192.722,235.715 192.710,234.656 193.003 C 233.890 193.214,233.166 193.289,233.046 193.169 C 232.615 192.738,233.579 192.225,235.251 191.996 L 236.954 191.763 237.197 198.196 C 237.483 205.782,237.135 210.556,236.296 210.556 C 235.845 210.556,235.721 209.840,235.635 206.759 C 235.577 204.671,235.462 202.963,235.379 202.963 C 234.932 202.963,229.706 205.014,229.084 205.433 C 228.682 205.704,228.080 205.926,227.745 205.926 C 227.219 205.926,227.111 206.591,226.961 210.755 C 226.786 215.611,226.501 216.596,225.395 216.172 C 224.913 215.987,224.815 215.197,224.815 211.493 C 224.815 209.042,224.684 207.037,224.525 207.037 C 224.365 207.037,222.501 207.626,220.383 208.347 C 218.264 209.067,216.325 209.578,216.074 209.481 C 215.326 209.194,215.185 210.167,215.185 215.611 C 215.185 220.706,215.198 220.787,215.964 220.544 C 216.392 220.408,217.767 220.001,219.019 219.639 C 223.415 218.369,236.718 212.929,237.870 211.929 C 238.453 211.423,238.516 210.524,238.496 202.998 C 238.463 190.266,238.141 189.215,234.726 190.693 C 232.179 191.797,229.675 192.709,226.481 193.697 C 225.056 194.138,223.389 194.724,222.778 195.000 C 217.816 197.236,202.593 199.003,202.593 197.342 C 202.593 196.375,213.473 179.695,214.314 179.372 C 214.610 179.259,216.968 179.785,219.555 180.541 C 222.143 181.298,226.093 182.415,228.333 183.024 C 230.574 183.634,234.295 184.703,236.603 185.402 C 239.400 186.248,240.994 186.562,241.384 186.343 C 242.333 185.813,240.204 184.944,233.704 183.210 C 232.583 182.911,229.083 181.924,225.926 181.016 C 222.769 180.109,219.352 179.151,218.333 178.888 C 217.315 178.625,216.323 178.267,216.130 178.094 C 215.224 177.281,213.743 177.791,212.475 179.352 M231.111 193.664 C 231.111 193.845,230.653 194.103,230.093 194.237 C 229.532 194.370,228.741 194.576,228.333 194.693 C 227.191 195.023,228.034 194.340,229.370 193.853 C 230.917 193.290,231.111 193.269,231.111 193.664 M150.840 203.170 C 161.566 206.632,161.590 206.643,161.929 208.276 C 162.090 209.049,162.263 215.545,162.314 222.711 L 162.407 235.741 161.462 235.851 C 160.942 235.911,159.108 235.429,157.388 234.779 C 155.667 234.130,153.426 233.299,152.407 232.933 C 143.739 229.819,140.170 228.259,139.732 227.393 C 138.945 225.840,139.469 204.407,140.350 202.090 C 140.956 200.497,143.304 200.738,150.840 203.170 M142.404 203.470 C 142.332 203.701,142.208 205.747,142.129 208.017 L 141.985 212.146 145.529 213.686 C 147.479 214.533,149.262 215.310,149.492 215.413 C 150.067 215.671,150.334 213.883,150.411 209.259 L 150.476 205.370 147.923 204.503 C 144.349 203.289,142.565 202.956,142.404 203.470 M152.961 208.667 C 152.960 209.909,152.854 212.272,152.726 213.918 L 152.493 216.909 156.230 218.420 L 159.968 219.931 159.752 214.317 C 159.499 207.752,159.844 208.400,156.013 207.291 L 152.963 206.407 152.961 208.667 M141.935 220.416 L 142.037 226.473 145.185 227.816 C 146.917 228.555,148.713 229.278,149.176 229.422 L 150.019 229.685 149.917 223.692 L 149.815 217.699 146.296 216.233 C 144.361 215.427,142.565 214.675,142.305 214.563 C 141.931 214.400,141.854 215.616,141.935 220.416 M152.305 224.848 L 152.407 230.467 156.092 231.900 C 158.119 232.688,159.827 233.333,159.888 233.333 C 159.950 233.333,160.000 230.856,160.000 227.827 L 160.000 222.321 157.130 221.290 C 155.551 220.723,153.797 220.027,153.231 219.744 L 152.203 219.230 152.305 224.848 M250.370 267.963 C 250.472 277.333,250.459 285.129,250.342 285.288 C 250.074 285.648,242.980 288.652,227.407 294.997 C 226.287 295.454,224.870 296.039,224.259 296.299 C 216.233 299.707,212.281 300.909,211.481 300.184 C 210.715 299.491,210.283 267.214,211.024 266.057 C 211.503 265.309,215.566 263.550,223.704 260.565 C 226.657 259.482,232.241 257.303,236.111 255.723 C 239.981 254.144,243.898 252.579,244.815 252.246 C 245.731 251.914,246.815 251.440,247.222 251.193 C 247.630 250.946,248.463 250.785,249.074 250.835 L 250.185 250.926 250.370 267.963 M245.556 254.244 C 244.435 254.737,242.352 255.640,240.926 256.249 L 238.333 257.358 238.233 264.395 L 238.132 271.433 240.455 270.486 C 241.733 269.966,243.903 269.193,245.278 268.770 L 247.778 267.999 247.778 260.666 C 247.778 256.633,247.736 253.337,247.685 253.340 C 247.634 253.344,246.676 253.751,245.556 254.244 M230.926 260.227 C 228.685 261.154,226.560 262.001,226.204 262.110 C 225.652 262.279,225.555 262.784,225.554 265.506 C 225.553 267.265,225.443 270.349,225.310 272.359 L 225.068 276.015 225.896 275.572 C 226.351 275.328,227.503 274.901,228.455 274.623 C 229.406 274.345,231.352 273.714,232.778 273.220 L 235.370 272.322 235.471 265.420 C 235.527 261.624,235.443 258.524,235.286 258.531 C 235.129 258.538,233.167 259.301,230.926 260.227 M141.721 270.833 C 141.981 284.123,141.872 283.241,143.177 282.647 C 145.358 281.653,147.232 284.165,145.277 285.463 C 144.491 285.986,144.372 285.939,143.197 284.657 L 141.951 283.297 141.680 290.933 C 141.531 295.133,141.466 298.622,141.538 298.687 C 141.832 298.956,152.287 305.056,155.370 306.758 C 157.204 307.769,159.413 309.013,160.281 309.521 L 161.858 310.444 161.762 288.477 L 161.667 266.510 160.741 266.038 C 157.944 264.614,142.668 258.917,141.577 258.891 C 141.528 258.890,141.593 264.264,141.721 270.833 M222.037 263.512 C 221.426 263.756,219.241 264.602,217.182 265.391 L 213.439 266.826 213.201 271.249 C 213.070 273.681,212.963 276.713,212.963 277.986 C 212.963 280.700,212.437 280.665,218.649 278.365 L 222.778 276.837 223.011 269.992 C 223.139 266.228,223.223 263.130,223.196 263.108 C 223.170 263.086,222.648 263.268,222.037 263.512 M243.197 271.880 C 240.983 272.883,238.942 273.704,238.660 273.704 C 238.242 273.704,238.148 275.033,238.148 280.966 C 238.148 286.639,238.249 288.182,238.611 288.020 C 238.866 287.907,241.116 286.934,243.611 285.860 L 248.148 283.906 248.148 277.539 C 248.148 271.503,248.007 269.964,247.460 270.028 C 247.329 270.044,245.411 270.877,243.197 271.880 M231.852 275.979 C 230.120 276.602,227.912 277.377,226.944 277.701 L 225.185 278.290 225.185 285.836 L 225.185 293.383 226.019 293.119 C 226.477 292.974,228.910 292.004,231.426 290.965 L 236.000 289.074 235.779 285.000 C 235.658 282.759,235.558 279.551,235.557 277.870 C 235.556 276.190,235.431 274.822,235.278 274.830 C 235.125 274.838,233.583 275.355,231.852 275.979 M221.481 279.633 C 220.972 279.804,218.889 280.589,216.852 281.378 L 213.148 282.812 213.048 290.480 C 212.993 294.698,213.086 298.148,213.254 298.148 C 213.633 298.148,220.986 295.328,222.130 294.745 C 222.972 294.315,223.515 279.196,222.685 279.291 C 222.532 279.309,221.991 279.463,221.481 279.633 " stroke="none" fill="#fafafa" fill-rule="evenodd"></path><path id="path2" d="M183.986 121.373 C 184.447 121.462,185.113 121.458,185.467 121.366 C 185.821 121.273,185.444 121.200,184.630 121.205 C 183.815 121.209,183.525 121.284,183.986 121.373 M173.069 139.074 C 173.072 140.093,173.144 140.465,173.229 139.902 C 173.314 139.339,173.312 138.506,173.224 138.050 C 173.136 137.595,173.066 138.056,173.069 139.074 M260.119 142.593 C 260.119 143.917,260.186 144.458,260.268 143.796 C 260.350 143.134,260.350 142.051,260.268 141.389 C 260.186 140.727,260.119 141.269,260.119 142.593 M344.175 173.704 C 344.175 174.620,344.247 174.995,344.335 174.537 C 344.424 174.079,344.424 173.329,344.335 172.870 C 344.247 172.412,344.175 172.787,344.175 173.704 M238.645 203.519 C 238.647 205.148,238.712 205.769,238.790 204.898 C 238.868 204.026,238.867 202.693,238.788 201.935 C 238.708 201.176,238.644 201.889,238.645 203.519 M214.901 202.222 C 214.901 202.935,214.977 203.227,215.070 202.870 C 215.163 202.514,215.163 201.931,215.070 201.574 C 214.977 201.218,214.901 201.509,214.901 202.222 M152.714 208.704 C 152.716 210.130,152.783 210.668,152.863 209.899 C 152.943 209.131,152.942 207.964,152.860 207.307 C 152.778 206.649,152.712 207.278,152.714 208.704 M150.456 207.778 C 150.456 208.491,150.533 208.782,150.626 208.426 C 150.719 208.069,150.719 207.486,150.626 207.130 C 150.533 206.773,150.456 207.065,150.456 207.778 M224.926 209.259 C 224.926 210.380,224.995 210.838,225.080 210.278 C 225.165 209.718,225.165 208.801,225.080 208.241 C 224.995 207.681,224.926 208.139,224.926 209.259 M141.628 220.185 C 141.628 223.037,141.686 224.155,141.757 222.669 C 141.827 221.183,141.827 218.850,141.756 217.484 C 141.685 216.118,141.627 217.333,141.628 220.185 M214.921 217.222 C 214.924 218.241,214.995 218.613,215.081 218.050 C 215.166 217.487,215.163 216.654,215.076 216.199 C 214.988 215.743,214.918 216.204,214.921 217.222 M139.378 219.630 C 139.378 220.954,139.445 221.495,139.527 220.833 C 139.609 220.171,139.609 219.088,139.527 218.426 C 139.445 217.764,139.378 218.306,139.378 219.630 M149.926 224.260 C 149.865 227.417,149.940 230.001,150.093 230.001 C 150.245 230.000,150.370 227.417,150.370 224.259 C 150.370 216.832,150.069 216.832,149.926 224.260 M272.333 225.926 C 272.333 227.046,272.403 227.505,272.488 226.944 C 272.572 226.384,272.572 225.468,272.488 224.907 C 272.403 224.347,272.333 224.806,272.333 225.926 M270.489 228.889 C 270.489 230.213,270.556 230.755,270.638 230.093 C 270.720 229.431,270.720 228.347,270.638 227.685 C 270.556 227.023,270.489 227.565,270.489 228.889 M162.333 229.259 C 162.333 230.380,162.403 230.838,162.488 230.278 C 162.572 229.718,162.572 228.801,162.488 228.241 C 162.403 227.681,162.333 228.139,162.333 229.259 M160.119 231.111 C 160.119 232.435,160.186 232.977,160.268 232.315 C 160.350 231.653,160.350 230.569,160.268 229.907 C 160.186 229.245,160.119 229.787,160.119 231.111 M250.156 265.370 C 250.155 269.444,250.209 271.162,250.276 269.186 C 250.342 267.211,250.343 263.878,250.276 261.779 C 250.210 259.680,250.156 261.296,250.156 265.370 M116.092 273.704 C 116.092 280.528,116.142 283.319,116.203 279.907 C 116.264 276.495,116.264 270.912,116.203 267.500 C 116.142 264.088,116.092 266.880,116.092 273.704 M235.691 265.370 C 235.692 267.407,235.754 268.193,235.829 267.117 C 235.904 266.041,235.903 264.374,235.827 263.414 C 235.751 262.453,235.690 263.333,235.691 265.370 M162.024 286.667 C 162.024 297.361,162.072 301.736,162.129 296.389 C 162.187 291.042,162.187 282.292,162.129 276.944 C 162.072 271.597,162.024 275.972,162.024 286.667 M114.233 276.852 C 114.233 281.537,114.286 283.403,114.351 280.998 C 114.415 278.593,114.415 274.759,114.350 272.479 C 114.285 270.199,114.233 272.167,114.233 276.852 M223.056 269.815 C 223.060 270.630,223.136 270.919,223.225 270.459 C 223.314 269.998,223.310 269.331,223.217 268.977 C 223.125 268.623,223.052 269.000,223.056 269.815 M210.908 282.222 C 210.908 289.454,210.957 292.412,211.018 288.796 C 211.079 285.181,211.079 279.264,211.018 275.648 C 210.957 272.032,210.908 274.991,210.908 282.222 M139.408 276.296 C 139.408 279.454,139.465 280.745,139.535 279.167 C 139.604 277.588,139.604 275.005,139.535 273.426 C 139.465 271.847,139.408 273.139,139.408 276.296 M250.127 276.852 C 250.128 278.481,250.193 279.102,250.272 278.231 C 250.350 277.360,250.349 276.026,250.269 275.268 C 250.190 274.509,250.126 275.222,250.127 276.852 M224.963 283.889 C 224.963 286.944,225.021 288.145,225.090 286.557 C 225.160 284.969,225.160 282.469,225.089 281.002 C 225.019 279.534,224.962 280.833,224.963 283.889 M237.893 284.630 C 237.895 285.852,237.964 286.307,238.046 285.642 C 238.129 284.976,238.127 283.976,238.042 283.419 C 237.958 282.863,237.890 283.407,237.893 284.630 M224.815 292.015 C 224.815 292.716,224.943 293.369,225.099 293.466 C 225.256 293.562,225.322 292.989,225.246 292.191 C 225.075 290.400,224.815 290.294,224.815 292.015 M161.808 309.549 C 161.686 310.285,161.740 310.630,161.946 310.425 C 162.132 310.238,162.223 309.691,162.147 309.209 C 162.031 308.468,161.978 308.520,161.808 309.549 " stroke="none" fill="#959597" fill-rule="evenodd"></path><path id="path3" d="M244.074 5.741 C 244.765 6.454,245.414 7.037,245.516 7.037 C 245.618 7.037,245.135 6.454,244.444 5.741 C 243.753 5.028,243.105 4.444,243.003 4.444 C 242.901 4.444,243.383 5.028,244.074 5.741 M249.630 10.926 C 250.321 11.639,250.969 12.222,251.071 12.222 C 251.173 12.222,250.691 11.639,250.000 10.926 C 249.309 10.213,248.660 9.630,248.558 9.630 C 248.457 9.630,248.939 10.213,249.630 10.926 M251.481 12.708 C 251.481 12.772,252.023 13.314,252.685 13.912 L 253.889 15.000 252.801 13.796 C 251.787 12.674,251.481 12.422,251.481 12.708 M257.037 18.704 C 257.728 19.417,258.377 20.000,258.479 20.000 C 258.580 20.000,258.098 19.417,257.407 18.704 C 256.716 17.991,256.068 17.407,255.966 17.407 C 255.864 17.407,256.346 17.991,257.037 18.704 M242.316 36.481 C 242.320 37.296,242.396 37.586,242.484 37.125 C 242.573 36.665,242.569 35.998,242.477 35.644 C 242.384 35.290,242.312 35.667,242.316 36.481 M233.818 116.111 C 233.821 117.333,233.890 117.789,233.972 117.123 C 234.055 116.457,234.053 115.457,233.968 114.901 C 233.884 114.344,233.816 114.889,233.818 116.111 M170.463 120.626 C 170.819 120.719,171.403 120.719,171.759 120.626 C 172.116 120.533,171.824 120.456,171.111 120.456 C 170.398 120.456,170.106 120.533,170.463 120.626 M176.204 121.002 C 176.662 121.090,177.412 121.090,177.870 121.002 C 178.329 120.914,177.954 120.842,177.037 120.842 C 176.120 120.842,175.745 120.914,176.204 121.002 M186.389 121.366 C 186.745 121.460,187.329 121.460,187.685 121.366 C 188.042 121.273,187.750 121.197,187.037 121.197 C 186.324 121.197,186.032 121.273,186.389 121.366 M287.130 126.481 C 287.135 127.296,287.210 127.586,287.299 127.125 C 287.388 126.665,287.384 125.998,287.292 125.644 C 287.199 125.290,287.126 125.667,287.130 126.481 M173.094 134.259 C 173.093 136.093,173.156 136.889,173.234 136.030 C 173.311 135.170,173.312 133.670,173.236 132.696 C 173.159 131.723,173.096 132.426,173.094 134.259 M287.123 132.222 C 287.123 132.935,287.199 133.227,287.292 132.870 C 287.386 132.514,287.386 131.931,287.292 131.574 C 287.199 131.218,287.123 131.509,287.123 132.222 M140.859 137.407 C 140.859 138.731,140.927 139.273,141.009 138.611 C 141.091 137.949,141.091 136.866,141.009 136.204 C 140.927 135.542,140.859 136.083,140.859 137.407 M73.090 143.519 C 73.091 145.148,73.156 145.769,73.235 144.898 C 73.313 144.026,73.312 142.693,73.232 141.935 C 73.153 141.176,73.089 141.889,73.090 143.519 M157.138 142.593 C 157.138 143.509,157.210 143.884,157.298 143.426 C 157.387 142.968,157.387 142.218,157.298 141.759 C 157.210 141.301,157.138 141.676,157.138 142.593 M140.883 146.296 C 140.883 148.843,140.943 149.884,141.015 148.611 C 141.087 147.338,141.087 145.255,141.015 143.981 C 140.943 142.708,140.883 143.750,140.883 146.296 M341.958 149.074 C 341.961 150.093,342.032 150.465,342.118 149.902 C 342.203 149.339,342.200 148.506,342.113 148.050 C 342.025 147.595,341.955 148.056,341.958 149.074 M99.716 161.481 C 99.716 162.194,99.792 162.486,99.885 162.130 C 99.978 161.773,99.978 161.190,99.885 160.833 C 99.792 160.477,99.716 160.769,99.716 161.481 M151.111 160.960 C 151.111 161.081,151.444 161.603,151.852 162.121 C 152.259 162.639,152.593 162.894,152.593 162.688 C 152.593 162.482,152.344 162.107,152.041 161.855 C 151.738 161.604,151.581 161.250,151.693 161.069 C 151.804 160.889,151.719 160.741,151.503 160.741 C 151.288 160.741,151.111 160.839,151.111 160.960 M81.667 167.407 C 82.670 168.426,83.574 169.259,83.676 169.259 C 83.778 169.259,83.040 168.426,82.037 167.407 C 81.034 166.389,80.130 165.556,80.028 165.556 C 79.926 165.556,80.663 166.389,81.667 167.407 M90.463 171.737 C 90.819 171.830,91.403 171.830,91.759 171.737 C 92.116 171.644,91.824 171.567,91.111 171.567 C 90.398 171.567,90.106 171.644,90.463 171.737 M226.054 195.386 C 225.720 196.255,226.080 196.357,226.591 195.539 C 226.877 195.081,226.902 194.815,226.658 194.815 C 226.446 194.815,226.174 195.072,226.054 195.386 M238.643 198.148 C 238.643 199.676,238.708 200.301,238.788 199.537 C 238.868 198.773,238.868 197.523,238.788 196.759 C 238.708 195.995,238.643 196.620,238.643 198.148 M226.407 198.889 C 226.407 200.009,226.477 200.468,226.562 199.907 C 226.646 199.347,226.646 198.431,226.562 197.870 C 226.477 197.310,226.407 197.769,226.407 198.889 M224.942 201.296 C 224.943 202.926,225.008 203.547,225.086 202.675 C 225.165 201.804,225.164 200.471,225.084 199.712 C 225.004 198.954,224.940 199.667,224.942 201.296 M204.352 199.533 C 205.625 199.606,207.708 199.606,208.981 199.533 C 210.255 199.461,209.213 199.402,206.667 199.402 C 204.120 199.402,203.079 199.461,204.352 199.533 M214.933 205.556 C 214.933 206.880,215.001 207.421,215.083 206.759 C 215.165 206.097,215.165 205.014,215.083 204.352 C 215.001 203.690,214.933 204.231,214.933 205.556 M235.689 206.667 C 235.689 208.602,235.751 209.394,235.828 208.426 C 235.904 207.458,235.904 205.875,235.828 204.907 C 235.751 203.940,235.689 204.731,235.689 206.667 M141.958 205.370 C 141.961 206.389,142.032 206.762,142.118 206.199 C 142.203 205.636,142.200 204.802,142.113 204.347 C 142.025 203.891,141.955 204.352,141.958 205.370 M350.827 205.556 C 350.827 206.269,350.903 206.560,350.996 206.204 C 351.089 205.847,351.089 205.264,350.996 204.907 C 350.903 204.551,350.827 204.843,350.827 205.556 M150.481 210.741 C 150.481 211.861,150.551 212.319,150.636 211.759 C 150.721 211.199,150.721 210.282,150.636 209.722 C 150.551 209.162,150.481 209.620,150.481 210.741 M139.723 211.296 C 139.727 212.111,139.803 212.401,139.892 211.940 C 139.980 211.479,139.977 210.813,139.884 210.459 C 139.791 210.105,139.719 210.481,139.723 211.296 M214.942 212.778 C 214.943 214.407,215.008 215.028,215.086 214.157 C 215.165 213.286,215.164 211.952,215.084 211.194 C 215.004 210.435,214.940 211.148,214.942 212.778 M224.933 213.333 C 224.933 214.657,225.001 215.199,225.083 214.537 C 225.165 213.875,225.165 212.792,225.083 212.130 C 225.001 211.468,224.933 212.009,224.933 213.333 M161.953 213.333 C 161.953 214.250,162.025 214.625,162.113 214.167 C 162.202 213.708,162.202 212.958,162.113 212.500 C 162.025 212.042,161.953 212.417,161.953 213.333 M151.996 225.370 C 151.996 228.019,152.055 229.053,152.127 227.670 C 152.198 226.286,152.198 224.120,152.126 222.855 C 152.054 221.590,151.995 222.722,151.996 225.370 M326.667 220.857 C 326.667 220.920,327.208 221.462,327.870 222.060 L 329.074 223.148 327.986 221.944 C 326.972 220.822,326.667 220.570,326.667 220.857 M272.316 222.778 C 272.320 223.593,272.396 223.882,272.484 223.422 C 272.573 222.961,272.569 222.294,272.477 221.940 C 272.384 221.586,272.312 221.963,272.316 222.778 M139.345 222.963 C 139.345 223.676,139.421 223.968,139.515 223.611 C 139.608 223.255,139.608 222.671,139.515 222.315 C 139.421 221.958,139.345 222.250,139.345 222.963 M159.997 225.480 L 160.180 229.074 160.290 225.775 C 160.351 223.960,160.269 222.342,160.108 222.180 C 159.947 222.018,159.897 223.503,159.997 225.480 M162.337 233.148 C 162.339 234.370,162.408 234.826,162.491 234.160 C 162.573 233.494,162.571 232.494,162.487 231.938 C 162.402 231.381,162.335 231.926,162.337 233.148 M270.547 260.926 C 270.547 277.426,270.592 284.230,270.648 276.046 C 270.704 267.862,270.704 254.362,270.648 246.046 C 270.592 237.730,270.547 244.426,270.547 260.926 M114.889 232.045 C 115.311 232.549,115.561 233.643,115.649 235.379 L 115.781 237.963 115.853 235.335 C 115.917 233.017,115.828 232.624,115.093 232.002 C 114.264 231.300,114.263 231.301,114.889 232.045 M114.246 250.370 C 114.246 260.454,114.293 264.579,114.352 259.537 C 114.410 254.495,114.410 246.245,114.352 241.204 C 114.293 236.162,114.246 240.287,114.246 250.370 M79.051 236.019 L 77.963 237.222 79.167 236.134 C 80.289 235.120,80.541 234.815,80.254 234.815 C 80.191 234.815,79.649 235.356,79.051 236.019 M339.716 236.667 C 339.716 237.380,339.792 237.671,339.885 237.315 C 339.978 236.958,339.978 236.375,339.885 236.019 C 339.792 235.662,339.716 235.954,339.716 236.667 M76.382 246.296 C 76.382 247.009,76.458 247.301,76.552 246.944 C 76.645 246.588,76.645 246.005,76.552 245.648 C 76.458 245.292,76.382 245.583,76.382 246.296 M250.134 254.815 C 250.134 256.750,250.196 257.542,250.272 256.574 C 250.349 255.606,250.349 254.023,250.272 253.056 C 250.196 252.088,250.134 252.880,250.134 254.815 M50.111 253.704 C 50.111 254.824,50.180 255.282,50.265 254.722 C 50.350 254.162,50.350 253.245,50.265 252.685 C 50.180 252.125,50.111 252.583,50.111 253.704 M139.408 265.185 C 139.408 268.343,139.465 269.634,139.535 268.056 C 139.604 266.477,139.604 263.894,139.535 262.315 C 139.465 260.736,139.408 262.028,139.408 265.185 M141.248 264.074 C 141.248 266.213,141.309 267.088,141.384 266.019 C 141.459 264.949,141.459 263.199,141.384 262.130 C 141.309 261.060,141.248 261.935,141.248 264.074 M223.074 272.963 C 223.074 274.083,223.143 274.542,223.228 273.981 C 223.313 273.421,223.313 272.505,223.228 271.944 C 223.143 271.384,223.074 271.843,223.074 272.963 M224.930 273.519 C 224.932 274.741,225.001 275.196,225.083 274.530 C 225.166 273.865,225.164 272.865,225.079 272.308 C 224.995 271.752,224.928 272.296,224.930 273.519 M248.273 275.926 C 248.273 277.454,248.338 278.079,248.418 277.315 C 248.498 276.551,248.498 275.301,248.418 274.537 C 248.338 273.773,248.273 274.398,248.273 275.926 M222.492 279.155 C 222.817 279.386,222.979 281.522,223.060 286.683 L 223.173 293.889 223.161 286.512 C 223.150 280.276,223.062 279.112,222.593 278.984 C 222.190 278.874,222.162 278.921,222.492 279.155 M250.115 281.667 C 250.117 282.889,250.186 283.344,250.268 282.679 C 250.351 282.013,250.349 281.013,250.265 280.456 C 250.180 279.900,250.113 280.444,250.115 281.667 M139.403 286.481 C 139.404 289.130,139.463 290.164,139.534 288.781 C 139.606 287.397,139.605 285.231,139.533 283.966 C 139.461 282.701,139.403 283.833,139.403 286.481 M236.027 287.037 C 236.027 287.954,236.099 288.329,236.187 287.870 C 236.276 287.412,236.276 286.662,236.187 286.204 C 236.099 285.745,236.027 286.120,236.027 287.037 M163.866 300.926 C 163.866 306.426,163.917 308.728,163.980 306.041 C 164.044 303.354,164.044 298.854,163.981 296.041 C 163.918 293.228,163.866 295.426,163.866 300.926 M141.170 295.256 C 141.138 297.230,141.236 298.923,141.389 299.018 C 141.542 299.113,141.621 297.998,141.565 296.540 C 141.393 292.027,141.232 291.506,141.170 295.256 " stroke="none" fill="#7c7476" fill-rule="evenodd"></path><path id="path4" d="M245.926 7.222 C 246.617 7.935,247.266 8.519,247.368 8.519 C 247.469 8.519,246.987 7.935,246.296 7.222 C 245.605 6.509,244.957 5.926,244.855 5.926 C 244.753 5.926,245.235 6.509,245.926 7.222 M251.111 12.037 C 251.802 12.750,252.451 13.333,252.553 13.333 C 252.655 13.333,252.173 12.750,251.481 12.037 C 250.790 11.324,250.142 10.741,250.040 10.741 C 249.938 10.741,250.420 11.324,251.111 12.037 M231.832 56.204 L 230.556 57.593 231.944 56.316 C 233.237 55.128,233.504 54.815,233.221 54.815 C 233.159 54.815,232.534 55.440,231.832 56.204 M276.415 61.111 C 276.415 62.435,276.482 62.977,276.564 62.315 C 276.646 61.653,276.646 60.569,276.564 59.907 C 276.482 59.245,276.415 59.787,276.415 61.111 M190.162 99.722 L 189.074 100.926 190.278 99.838 C 190.940 99.240,191.481 98.698,191.481 98.634 C 191.481 98.348,191.176 98.600,190.162 99.722 M214.074 100.185 C 213.174 101.102,212.522 101.852,212.624 101.852 C 212.725 101.852,213.545 101.102,214.444 100.185 C 215.344 99.269,215.997 98.519,215.895 98.519 C 215.793 98.519,214.974 99.269,214.074 100.185 M263.805 101.852 C 263.805 102.769,263.877 103.144,263.965 102.685 C 264.053 102.227,264.053 101.477,263.965 101.019 C 263.877 100.560,263.805 100.935,263.805 101.852 M267.778 109.746 C 267.778 109.809,268.319 110.351,268.981 110.949 L 270.185 112.037 269.097 110.833 C 268.083 109.711,267.778 109.459,267.778 109.746 M166.788 116.481 C 166.790 117.907,166.857 118.445,166.937 117.677 C 167.017 116.908,167.016 115.742,166.934 115.084 C 166.852 114.427,166.787 115.056,166.788 116.481 M172.315 120.996 C 172.671 121.089,173.255 121.089,173.611 120.996 C 173.968 120.903,173.676 120.827,172.963 120.827 C 172.250 120.827,171.958 120.903,172.315 120.996 M180.284 121.380 C 180.950 121.462,181.950 121.460,182.507 121.376 C 183.063 121.291,182.519 121.224,181.296 121.226 C 180.074 121.228,179.619 121.297,180.284 121.380 M287.513 129.444 C 287.516 130.463,287.588 130.836,287.673 130.273 C 287.758 129.710,287.756 128.876,287.668 128.421 C 287.580 127.965,287.511 128.426,287.513 129.444 M158.796 128.410 C 159.255 128.498,160.005 128.498,160.463 128.410 C 160.921 128.321,160.546 128.249,159.630 128.249 C 158.713 128.249,158.338 128.321,158.796 128.410 M334.444 129.005 C 334.444 129.069,334.986 129.610,335.648 130.208 L 336.852 131.296 335.764 130.093 C 334.750 128.971,334.444 128.719,334.444 129.005 M155.550 139.554 L 155.729 141.667 155.850 139.856 C 155.916 138.860,155.836 137.909,155.671 137.743 C 155.505 137.578,155.451 138.393,155.550 139.554 M260.101 146.296 C 260.101 147.213,260.173 147.588,260.261 147.130 C 260.350 146.671,260.350 145.921,260.261 145.463 C 260.173 145.005,260.101 145.380,260.101 146.296 M73.452 150.000 C 73.452 151.324,73.519 151.866,73.601 151.204 C 73.683 150.542,73.683 149.458,73.601 148.796 C 73.519 148.134,73.452 148.676,73.452 150.000 M342.362 154.815 C 342.362 157.157,342.422 158.116,342.496 156.944 C 342.569 155.773,342.569 153.856,342.496 152.685 C 342.422 151.514,342.362 152.472,342.362 154.815 M298.310 157.130 L 297.222 158.333 298.426 157.246 C 299.088 156.647,299.630 156.106,299.630 156.042 C 299.630 155.756,299.324 156.008,298.310 157.130 M300.111 162.222 C 300.111 163.343,300.180 163.801,300.265 163.241 C 300.350 162.681,300.350 161.764,300.265 161.204 C 300.180 160.644,300.111 161.102,300.111 162.222 M279.000 162.593 C 279.000 163.713,279.069 164.171,279.154 163.611 C 279.239 163.051,279.239 162.134,279.154 161.574 C 279.069 161.014,279.000 161.472,279.000 162.593 M344.160 171.111 C 344.160 171.824,344.236 172.116,344.329 171.759 C 344.423 171.403,344.423 170.819,344.329 170.463 C 344.236 170.106,344.160 170.398,344.160 171.111 M344.167 176.481 C 344.172 177.296,344.247 177.586,344.336 177.125 C 344.425 176.665,344.421 175.998,344.329 175.644 C 344.236 175.290,344.163 175.667,344.167 176.481 M59.731 180.741 C 59.731 181.657,59.803 182.032,59.891 181.574 C 59.979 181.116,59.979 180.366,59.891 179.907 C 59.803 179.449,59.731 179.824,59.731 180.741 M229.074 193.993 C 228.667 194.077,228.167 194.308,227.963 194.507 C 227.620 194.840,229.573 194.549,229.969 194.207 C 230.266 193.951,229.808 193.841,229.074 193.993 M235.304 198.519 C 235.304 199.843,235.371 200.384,235.453 199.722 C 235.535 199.060,235.535 197.977,235.453 197.315 C 235.371 196.653,235.304 197.194,235.304 198.519 M203.603 197.675 C 204.260 197.757,205.427 197.758,206.195 197.678 C 206.964 197.598,206.426 197.531,205.000 197.529 C 203.574 197.527,202.945 197.593,203.603 197.675 M209.912 197.669 C 210.372 197.758,211.039 197.755,211.393 197.662 C 211.747 197.569,211.370 197.497,210.556 197.501 C 209.741 197.505,209.451 197.581,209.912 197.669 M237.177 202.222 C 237.177 204.565,237.237 205.523,237.311 204.352 C 237.384 203.181,237.384 201.264,237.311 200.093 C 237.237 198.921,237.177 199.880,237.177 202.222 M226.667 202.756 C 226.667 203.253,226.803 203.744,226.970 203.847 C 227.137 203.951,227.201 203.544,227.113 202.943 C 226.919 201.620,226.667 201.514,226.667 202.756 M100.834 203.519 C 100.838 204.333,100.914 204.623,101.003 204.162 C 101.091 203.702,101.088 203.035,100.995 202.681 C 100.903 202.327,100.830 202.704,100.834 203.519 M336.382 204.074 C 336.382 204.787,336.458 205.079,336.552 204.722 C 336.645 204.366,336.645 203.782,336.552 203.426 C 336.458 203.069,336.382 203.361,336.382 204.074 M53.810 207.222 C 53.812 208.241,53.884 208.613,53.969 208.050 C 54.055 207.487,54.052 206.654,53.964 206.199 C 53.877 205.743,53.807 206.204,53.810 207.222 M226.826 206.045 C 226.723 206.314,226.688 208.189,226.748 210.212 L 226.857 213.889 227.040 209.721 C 227.220 205.597,227.191 205.094,226.826 206.045 M139.731 207.407 C 139.731 208.324,139.803 208.699,139.891 208.241 C 139.979 207.782,139.979 207.032,139.891 206.574 C 139.803 206.116,139.731 206.491,139.731 207.407 M238.633 208.333 C 238.635 209.556,238.705 210.011,238.787 209.345 C 238.869 208.680,238.868 207.680,238.783 207.123 C 238.699 206.566,238.631 207.111,238.633 208.333 M159.628 212.517 L 159.811 216.852 159.919 212.809 C 159.978 210.586,159.895 208.635,159.735 208.475 C 159.575 208.314,159.527 210.133,159.628 212.517 M141.938 209.630 C 141.938 210.343,142.014 210.634,142.107 210.278 C 142.200 209.921,142.200 209.338,142.107 208.981 C 142.014 208.625,141.938 208.917,141.938 209.630 M323.049 210.741 C 323.049 211.454,323.125 211.745,323.218 211.389 C 323.311 211.032,323.311 210.449,323.218 210.093 C 323.125 209.736,323.049 210.028,323.049 210.741 M139.353 216.111 C 139.357 216.926,139.433 217.216,139.521 216.755 C 139.610 216.294,139.606 215.628,139.514 215.273 C 139.421 214.919,139.349 215.296,139.353 216.111 M162.364 223.148 C 162.364 225.593,162.424 226.544,162.497 225.263 C 162.569 223.982,162.569 221.982,162.495 220.819 C 162.422 219.656,162.363 220.704,162.364 223.148 M44.208 225.185 C 44.208 227.120,44.270 227.912,44.346 226.944 C 44.423 225.977,44.423 224.394,44.346 223.426 C 44.270 222.458,44.208 223.250,44.208 225.185 M364.217 227.037 C 364.217 229.583,364.276 230.625,364.348 229.352 C 364.421 228.079,364.421 225.995,364.348 224.722 C 364.276 223.449,364.217 224.491,364.217 227.037 M270.464 225.370 C 270.468 226.185,270.544 226.475,270.632 226.014 C 270.721 225.553,270.718 224.887,270.625 224.533 C 270.532 224.179,270.460 224.556,270.464 225.370 M272.391 242.222 C 272.391 250.269,272.440 253.560,272.500 249.537 C 272.559 245.514,272.559 238.931,272.500 234.907 C 272.440 230.884,272.391 234.176,272.391 242.222 M336.852 229.259 C 337.647 230.074,338.382 230.741,338.484 230.741 C 338.586 230.741,338.018 230.074,337.222 229.259 C 336.427 228.444,335.692 227.778,335.590 227.778 C 335.489 227.778,336.056 228.444,336.852 229.259 M85.347 230.833 L 84.259 232.037 85.463 230.949 C 86.585 229.935,86.837 229.630,86.551 229.630 C 86.487 229.630,85.945 230.171,85.347 230.833 M116.092 249.074 C 116.092 256.000,116.142 258.781,116.203 255.254 C 116.264 251.727,116.264 246.060,116.203 242.661 C 116.142 239.262,116.092 242.148,116.092 249.074 M270.169 256.852 C 270.169 265.000,270.218 268.281,270.277 264.142 C 270.337 260.003,270.337 253.337,270.277 249.327 C 270.217 245.318,270.169 248.704,270.169 256.852 M362.333 247.407 C 362.333 248.528,362.403 248.986,362.488 248.426 C 362.572 247.866,362.572 246.949,362.488 246.389 C 362.403 245.829,362.333 246.287,362.333 247.407 M189.436 284.259 C 189.436 301.981,189.482 309.286,189.537 300.491 C 189.592 291.696,189.592 277.196,189.537 268.269 C 189.482 259.341,189.436 266.537,189.436 284.259 M247.933 260.370 C 247.933 264.343,247.987 265.968,248.054 263.981 C 248.120 261.995,248.120 258.745,248.054 256.759 C 247.987 254.773,247.933 256.398,247.933 260.370 M187.210 277.963 C 187.210 289.574,187.257 294.271,187.315 288.400 C 187.372 282.529,187.372 273.029,187.315 267.288 C 187.257 261.548,187.210 266.352,187.210 277.963 M237.943 257.512 C 237.842 257.773,237.806 261.065,237.863 264.827 L 237.965 271.667 238.149 264.351 C 238.330 257.178,238.311 256.552,237.943 257.512 M235.667 260.000 C 235.667 261.120,235.736 261.579,235.821 261.019 C 235.906 260.458,235.906 259.542,235.821 258.981 C 235.736 258.421,235.667 258.880,235.667 260.000 M225.327 266.852 C 225.327 269.296,225.387 270.248,225.460 268.967 C 225.532 267.686,225.532 265.686,225.458 264.523 C 225.385 263.359,225.326 264.407,225.327 266.852 M223.056 267.222 C 223.060 268.037,223.136 268.327,223.225 267.866 C 223.314 267.405,223.310 266.739,223.217 266.385 C 223.125 266.030,223.052 266.407,223.056 267.222 M210.842 267.778 C 210.842 268.694,210.914 269.069,211.002 268.611 C 211.090 268.153,211.090 267.403,211.002 266.944 C 210.914 266.486,210.842 266.861,210.842 267.778 M141.492 279.064 C 141.498 285.950,141.586 291.501,141.688 291.399 C 141.930 291.157,141.909 266.971,141.667 266.729 C 141.565 266.627,141.486 272.178,141.492 279.064 M164.242 281.667 C 164.243 289.611,164.292 292.808,164.351 288.772 C 164.411 284.735,164.411 278.235,164.351 274.327 C 164.291 270.420,164.242 273.722,164.242 281.667 M213.087 270.000 C 213.087 271.528,213.153 272.153,213.233 271.389 C 213.313 270.625,213.313 269.375,213.233 268.611 C 213.153 267.847,213.087 268.472,213.087 270.000 M235.641 270.741 C 235.641 271.454,235.718 271.745,235.811 271.389 C 235.904 271.032,235.904 270.449,235.811 270.093 C 235.718 269.736,235.641 270.028,235.641 270.741 M272.385 281.667 C 272.385 287.370,272.437 289.652,272.499 286.737 C 272.562 283.822,272.562 279.155,272.499 276.366 C 272.436 273.578,272.385 275.963,272.385 281.667 M237.919 278.333 C 237.920 280.778,237.980 281.730,238.052 280.448 C 238.125 279.167,238.124 277.167,238.051 276.004 C 237.978 274.841,237.918 275.889,237.919 278.333 M235.698 279.259 C 235.698 281.806,235.757 282.847,235.830 281.574 C 235.902 280.301,235.902 278.218,235.830 276.944 C 235.757 275.671,235.698 276.713,235.698 279.259 M114.074 286.460 C 114.074 287.161,114.202 287.813,114.359 287.910 C 114.515 288.007,114.581 287.433,114.505 286.636 C 114.334 284.845,114.074 284.738,114.074 286.460 M210.859 297.407 C 210.859 298.731,210.927 299.273,211.009 298.611 C 211.091 297.949,211.091 296.866,211.009 296.204 C 210.927 295.542,210.859 296.083,210.859 297.407 M161.945 307.222 C 161.949 308.037,162.025 308.327,162.114 307.866 C 162.202 307.405,162.199 306.739,162.106 306.385 C 162.014 306.030,161.941 306.407,161.945 307.222 " stroke="none" fill="#c9c9ca" fill-rule="evenodd"></path></g></svg>