<?xml version="1.0" standalone="no"?>
<!DOCTYPE svg PUBLIC "-//W3C//DTD SVG 20010904//EN"
 "http://www.w3.org/TR/2001/REC-SVG-20010904/DTD/svg10.dtd">
<svg version="1.0" xmlns="http://www.w3.org/2000/svg"
 width="669.000000pt" height="914.000000pt" viewBox="0 0 669.000000 914.000000"
 preserveAspectRatio="xMidYMid meet">

<g transform="translate(0.000000,914.000000) scale(0.100000,-0.100000)"
fill="#000000" stroke="none">
<path d="M3700 8750 c-745 -70 -1299 -396 -1707 -1005 -112 -166 -184 -326
-231 -512 -63 -244 -63 -346 -1 -581 60 -230 172 -434 378 -692 250 -311 492
-496 860 -656 69 -30 128 -60 133 -66 4 -7 8 -43 8 -81 l0 -68 -57 -62 c-32
-35 -75 -84 -95 -109 -35 -43 -39 -45 -105 -52 -259 -26 -419 -159 -469 -387
-28 -127 -11 -119 -252 -119 -180 0 -210 2 -233 18 -14 9 -193 168 -398 352
-204 184 -386 343 -403 353 -29 15 -67 17 -354 17 -176 0 -323 -3 -326 -6 -6
-6 -6 -7 237 -223 88 -79 168 -152 177 -163 14 -15 18 -38 18 -93 0 -65 -3
-76 -31 -115 -17 -24 -35 -57 -40 -74 -17 -60 -18 -61 -161 -66 -155 -6 -188
-19 -228 -91 -23 -41 -25 -55 -28 -200 -4 -175 4 -223 47 -272 31 -34 49 -44
315 -161 93 -42 177 -83 187 -92 18 -17 19 -64 19 -1485 0 -1258 -2 -1470 -14
-1482 -9 -9 -48 -17 -103 -21 -106 -8 -300 -36 -328 -46 -48 -18 136 -46 510
-79 432 -38 812 -54 1758 -73 826 -16 1924 2 2562 42 459 29 924 84 902 106
-9 9 -178 33 -335 48 -85 8 -159 20 -166 26 -8 5 -23 38 -36 73 -12 34 -43
102 -69 152 -87 169 -262 310 -441 356 -47 12 -92 28 -100 36 -13 12 -16 70
-19 374 -4 435 -11 409 112 409 146 0 252 24 324 73 96 66 143 181 143 351 0
46 3 91 6 100 3 9 55 44 115 78 240 136 386 329 447 594 48 207 51 320 11 519
-36 180 -107 348 -212 505 -61 91 -183 219 -249 261 -49 32 -54 42 -73 139
-11 56 -66 151 -116 200 -93 92 -197 130 -355 130 l-101 0 -79 78 c-43 42
-106 95 -139 116 -33 21 -66 46 -72 54 -8 9 -13 44 -13 82 0 80 -2 77 135 150
55 30 132 74 170 98 254 162 495 421 658 711 69 121 83 137 153 184 78 52 138
162 168 308 18 87 10 164 -27 258 -21 55 -21 70 -24 615 l-3 558 25 45 c32 58
31 74 -4 112 -39 42 -80 42 -115 0 -33 -38 -33 -62 -1 -103 l25 -33 0 -350 c0
-374 1 -367 -50 -375 -16 -2 -26 -11 -31 -28 l-6 -25 -4 25 c-3 19 -11 26 -34
28 -33 4 -65 28 -65 48 0 24 -123 256 -184 347 -201 299 -477 536 -821 703
-171 83 -280 121 -447 158 -242 54 -463 73 -648 56z m496 -128 c202 -37 357
-87 539 -176 287 -141 513 -326 695 -568 55 -75 149 -231 150 -249 0 -3 -24 2
-52 12 -69 24 -179 24 -255 1 -209 -65 -384 -318 -429 -617 -27 -179 -13 -434
32 -585 22 -74 86 -201 140 -277 50 -70 106 -119 180 -156 56 -28 164 -51 194
-42 37 12 20 -14 -73 -107 -166 -167 -327 -281 -541 -383 -334 -159 -650 -221
-1032 -203 -475 22 -966 221 -1293 524 -39 36 -70 68 -68 71 3 2 56 -8 118
-22 207 -47 461 -66 854 -67 351 0 487 8 632 38 383 79 639 368 740 835 22
103 24 384 4 499 -33 186 -114 382 -211 512 -64 84 -191 203 -264 247 -71 42
-207 97 -289 116 -152 35 -294 47 -629 52 -442 7 -730 -15 -953 -73 -49 -13
-92 -21 -94 -18 -8 8 154 159 239 223 336 255 655 379 1120 435 92 11 439 -3
546 -22z m-1254 -749 c10 -9 18 -26 18 -39 0 -34 -36 -54 -96 -54 -86 0 -253
-20 -344 -41 -47 -11 -127 -40 -179 -65 -152 -74 -268 -205 -328 -371 -13 -37
-29 -73 -35 -80 -16 -19 -63 -16 -82 6 -17 19 -17 23 -1 78 108 374 430 575
929 582 80 1 103 -2 118 -16z m952 -37 c42 -18 66 -51 66 -93 0 -68 -45 -113
-115 -113 -108 0 -133 161 -31 206 39 17 40 17 80 0z m221 -241 c14 -13 25
-31 25 -40 0 -17 -43 -65 -58 -65 -19 0 -62 42 -62 61 0 21 42 69 60 69 6 0
22 -11 35 -25z m1431 -96 c33 -16 67 -38 77 -48 17 -17 15 -17 -51 -19 -162
-3 -289 -96 -371 -272 -50 -107 -63 -172 -68 -332 -5 -136 -3 -154 20 -236 73
-254 197 -395 366 -418 60 -8 57 -19 -17 -55 -35 -17 -64 -22 -117 -22 -117 0
-200 51 -291 179 -109 152 -160 384 -142 642 12 168 60 306 154 439 86 121
176 172 305 172 67 1 85 -3 135 -30z m118 -199 l29 -11 -45 -28 c-70 -44 -117
-99 -158 -186 -48 -100 -60 -159 -60 -289 0 -117 15 -181 66 -274 41 -76 85
-126 142 -163 51 -32 44 -40 -42 -46 -76 -7 -132 17 -199 83 -63 64 -105 148
-128 257 -63 304 49 603 249 668 32 10 105 5 146 -11z m-3006 -176 c84 -42
135 -141 117 -226 -32 -147 -173 -216 -305 -148 -132 68 -149 253 -32 350 67
55 141 63 220 24z m1268 -9 c181 -106 107 -388 -102 -389 -150 -1 -255 154
-195 290 29 64 46 82 106 111 62 30 126 26 191 -12z m-1982 -6 c30 -23 33 -45
10 -77 -29 -42 -104 -16 -104 36 0 15 44 62 58 62 5 0 21 -9 36 -21z m3928
-38 c13 -11 40 -48 58 -83 29 -53 35 -76 38 -147 6 -102 -10 -181 -48 -241
-74 -117 -176 -104 -243 30 -30 61 -32 71 -32 175 0 94 4 118 24 162 33 73 89
123 140 123 23 0 48 -8 63 -19z m-1543 -2007 c-77 -80 -191 -121 -365 -131
-183 -10 -328 32 -399 116 l-20 23 65 -6 c179 -16 259 -17 415 -6 94 6 202 17
240 24 102 19 102 19 64 -20z m366 9 c80 -25 167 -70 205 -106 70 -67 70 -61
2 -130 -111 -114 -162 -241 -162 -412 0 -161 49 -291 153 -402 67 -72 158
-135 197 -138 14 -1 52 -5 85 -9 37 -5 91 -3 138 4 95 14 113 6 151 -73 26
-52 26 -58 29 -273 l2 -219 -28 -47 c-44 -75 -70 -88 -174 -88 l-89 0 -18 55
c-33 104 -172 282 -255 324 -52 27 -139 41 -251 41 l-95 0 -20 36 c-26 49 -80
91 -210 161 -173 95 -452 250 -540 301 l-80 47 246 5 c326 7 309 -6 309 231 0
163 -1 169 -24 196 l-24 28 -399 3 c-304 2 -404 0 -421 -10 -38 -20 -52 -59
-52 -148 0 -45 -3 -80 -7 -78 -5 2 -33 17 -63 33 -53 29 -61 30 -208 33 l-153
4 6 41 c27 164 133 364 261 489 55 53 133 114 137 106 1 -1 17 -34 36 -72 52
-104 152 -175 309 -218 63 -18 104 -21 232 -21 136 0 167 4 254 27 55 15 129
42 165 61 88 47 186 135 217 197 28 55 29 55 139 21z m-3514 -160 c124 -109
310 -280 454 -416 l60 -57 -149 0 -149 0 -103 100 c-140 134 -167 151 -252
158 -77 5 -63 -4 -244 160 -53 48 -97 90 -97 95 -1 4 95 7 213 7 l214 0 53
-47z m4202 -137 c53 -19 113 -63 136 -99 24 -39 20 -47 -27 -47 -49 0 -130
-39 -174 -83 -87 -87 -121 -241 -78 -359 12 -35 27 -69 32 -75 8 -10 -2 -13
-46 -13 -106 0 -216 78 -244 173 -5 18 -15 51 -22 74 -18 60 -7 171 23 237 43
93 120 163 210 192 55 17 142 17 190 0z m-2623 -132 c-11 -38 -24 -96 -28
-129 l-7 -59 -39 98 c-33 85 -37 100 -24 112 14 14 110 55 116 49 2 -2 -6 -34
-18 -71z m-157 -111 c3 -10 12 -35 21 -55 l16 -38 -50 0 c-50 0 -50 0 -44 28
9 37 33 82 43 82 5 0 11 -8 14 -17z m-1497 -60 c13 -8 24 -19 24 -24 0 -5 -36
-9 -80 -9 -73 0 -80 2 -80 20 0 13 10 22 33 29 37 11 70 6 103 -16z m3039 -88
l0 -70 -312 -3 -313 -2 0 75 0 75 313 -2 312 -3 0 -70z m1355 59 c0 -3 -20
-28 -44 -55 -24 -26 -52 -65 -62 -86 -18 -37 -19 -37 -22 -11 -5 44 37 128 72
144 33 14 56 18 56 8z m242 -117 c34 -29 62 -57 61 -62 0 -5 -14 -16 -29 -25
-88 -47 -128 -76 -182 -131 l-60 -62 -34 20 c-31 19 -33 22 -30 69 3 54 30
114 70 158 39 42 102 86 123 86 11 0 47 -24 81 -53z m-2718 -109 c24 -34 24
-463 -1 -490 -15 -17 -63 -18 -1103 -18 -1225 0 -1125 -6 -1289 77 -105 54
-111 67 -111 258 0 120 3 155 16 173 l15 22 1229 0 1229 0 15 -22z m307 -80
c63 -35 206 -118 319 -183 253 -146 263 -152 435 -249 340 -192 317 -164 311
-377 -4 -165 -14 -192 -72 -208 -63 -18 -74 -13 -474 209 -698 386 -640 352
-658 387 -13 24 -17 474 -5 487 9 9 14 7 144 -66z m2601 -36 c39 -58 79 -142
74 -151 -3 -5 -25 -11 -48 -15 -70 -11 -159 -44 -229 -84 l-65 -39 -27 51 -27
50 21 43 c25 53 87 107 172 150 81 43 98 42 129 -5z m141 -339 c9 -32 17 -74
19 -93 l3 -35 -110 3 c-71 2 -138 -2 -190 -12 -44 -9 -81 -16 -82 -16 -9 0
-12 64 -3 80 21 40 127 91 240 116 103 22 105 22 123 -43z m-24 -259 l53 -15
-4 -84 c-1 -46 -6 -86 -10 -90 -4 -4 -19 0 -35 9 -52 29 -208 75 -275 82 -62
6 -68 9 -68 30 0 12 7 30 15 38 42 41 228 59 324 30z m-3319 -1504 l0 -1460
-820 0 -820 0 0 1460 0 1460 820 0 820 0 0 -1460z m2165 1319 c128 -118 131
-318 4 -389 -42 -24 -52 -25 -248 -28 l-205 -4 45 34 c29 23 55 56 78 100 31
62 34 73 39 197 l5 131 119 0 118 0 45 -41z m918 -45 c91 -20 247 -96 247
-120 0 -16 -47 -121 -57 -127 -5 -3 -42 21 -83 54 -41 33 -114 87 -162 120
-49 33 -88 64 -88 68 0 26 42 27 143 5z m-2929 -34 l26 -10 0 -1345 c0 -740
-3 -1345 -7 -1346 -5 -1 -24 -3 -44 -4 l-36 -4 -7 477 c-8 527 -7 1854 2 2091
5 165 5 165 66 141z m512 -237 l374 -187 -2 -1140 -3 -1141 -377 -3 -378 -2 0
1330 c0 731 3 1330 6 1330 3 0 174 -84 380 -187z m2303 97 c36 -27 100 -84
143 -126 86 -84 85 -79 23 -138 -30 -29 -85 -66 -96 -66 -4 0 -26 33 -50 73
-24 39 -58 94 -75 120 -18 27 -43 68 -55 92 l-23 44 24 25 c13 15 28 26 34 26
6 0 40 -23 75 -50z m-155 -221 c47 -91 86 -170 86 -176 0 -18 -172 -75 -185
-61 -9 9 -45 209 -52 292 -6 79 -6 80 23 102 16 13 32 20 35 16 4 -4 46 -82
93 -173z m-274 68 c0 -40 5 -127 12 -194 6 -67 9 -125 5 -129 -3 -4 -41 -3
-83 1 l-77 7 5 66 c4 51 18 97 58 192 62 148 59 142 71 135 5 -4 9 -39 9 -78z
m-288 -222 c-2 -19 -6 -35 -9 -35 -3 0 -21 8 -41 17 l-35 17 39 17 c52 23 51
24 46 -16z m-332 -66 c36 -33 83 -73 106 -89 51 -36 209 -104 292 -125 87 -22
238 -34 350 -28 l92 6 0 -72 c0 -104 -34 -158 -115 -180 -46 -13 -509 -14
-1038 -4 l-347 6 0 274 0 273 298 0 297 0 65 -61z m136 -734 c-27 -8 -77 -27
-110 -44 -68 -34 -94 -27 -51 13 35 33 74 44 150 44 l60 0 -49 -13z m132 -208
c1 -48 -1 -87 -5 -88 -4 -1 -33 -3 -63 -5 -71 -6 -142 -27 -196 -59 -23 -14
-45 -25 -48 -25 -3 0 -6 31 -6 69 0 67 1 69 39 104 56 50 88 70 102 61 8 -4 9
-3 5 4 -11 18 99 42 144 32 24 -6 25 -10 28 -93z m-534 -39 c3 -29 6 -198 6
-376 l0 -323 -64 64 c-67 67 -148 125 -206 147 -63 24 -60 11 -60 280 0 189 3
250 13 253 6 3 78 6 158 6 l146 1 7 -52z m524 -190 c8 -8 12 -47 12 -110 l0
-97 -42 -12 c-91 -25 -155 -52 -211 -90 -33 -21 -61 -39 -63 -39 -2 0 -4 55
-4 123 0 134 -1 131 71 185 55 41 210 67 237 40z m256 -444 c150 -39 283 -149
355 -295 23 -48 42 -101 44 -124 l2 -40 -537 -3 -538 -2 0 28 c0 39 32 130 67
189 66 113 207 217 335 249 74 17 199 17 272 -2z m-1074 -88 c96 -56 183 -195
197 -318 l6 -48 -152 0 -151 0 0 206 0 205 23 -6 c12 -4 47 -21 77 -39z"/>
<path d="M5222 7954 c-45 -31 -15 -114 41 -114 51 0 77 78 39 113 -23 21 -51
22 -80 1z"/>
<path d="M1148 4113 c-40 -46 -26 -108 32 -148 38 -26 51 -48 43 -72 -8 -22
-22 -14 -25 15 -2 22 -8 28 -35 30 -31 3 -33 2 -33 -30 0 -39 7 -51 37 -67 33
-17 78 -13 104 8 19 15 24 28 23 65 -1 50 -19 78 -66 102 -19 10 -28 22 -28
39 0 14 5 25 10 25 6 0 10 -9 10 -20 0 -16 7 -20 35 -20 31 0 35 3 35 25 0 14
-9 34 -20 45 -26 26 -100 28 -122 3z"/>
<path d="M2017 4123 c-18 -17 -5 -33 28 -33 28 0 35 4 35 20 0 15 -7 20 -28
20 -16 0 -32 -3 -35 -7z"/>
<path d="M2121 4088 c-10 -27 -2 -207 11 -230 6 -13 21 -18 48 -18 42 0 50 12
25 36 -18 19 -21 125 -4 153 19 30 -8 81 -44 81 -19 0 -30 -7 -36 -22z"/>
<path d="M1347 4060 c-26 -20 -27 -26 -27 -104 0 -94 11 -113 71 -122 46 -8
89 25 89 67 0 27 -3 29 -35 29 -31 0 -35 -3 -35 -25 0 -14 -4 -25 -10 -25 -5
0 -10 16 -10 35 0 35 0 35 45 35 l45 0 0 39 c0 49 -25 80 -70 87 -27 4 -42 1
-63 -16z m63 -50 c0 -11 -4 -20 -10 -20 -5 0 -10 9 -10 20 0 11 5 20 10 20 6
0 10 -9 10 -20z"/>
<path d="M1545 4069 c-32 -19 -35 -29 -35 -114 0 -44 4 -85 8 -91 14 -22 54
-36 87 -30 39 8 53 22 61 65 7 32 6 32 -27 29 -26 -2 -35 -8 -37 -25 -2 -13
-8 -23 -13 -23 -5 0 -9 34 -9 75 0 41 4 75 9 75 5 0 11 -10 13 -22 2 -18 10
-23 33 -23 27 0 30 3 28 29 -1 16 -8 36 -16 43 -19 19 -78 26 -102 12z"/>
<path d="M1690 3966 c0 -114 12 -143 54 -132 12 3 40 6 64 6 l42 0 0 115 0
115 -35 0 -35 0 0 -95 c0 -57 -4 -95 -10 -95 -6 0 -10 38 -10 95 l0 95 -35 0
-35 0 0 -104z"/>
<path d="M1880 3955 l0 -115 35 0 35 0 0 70 c0 59 3 71 20 80 14 7 20 21 20
43 0 33 0 33 -55 35 l-55 2 0 -115z"/>
<path d="M2010 3955 l0 -115 35 0 35 0 0 115 0 115 -35 0 -35 0 0 -115z"/>
<path d="M2230 4053 c1 -10 9 -58 20 -108 17 -82 17 -91 3 -102 -25 -19 -8
-43 31 -43 61 0 74 21 91 149 8 63 15 116 15 118 0 2 -16 3 -35 3 l-35 0 0
-55 c0 -30 -4 -55 -10 -55 -5 0 -10 11 -10 24 0 13 -3 38 -6 55 -6 26 -11 31
-35 31 -21 0 -29 -5 -29 -17z"/>
</g>
</svg>
