<?xml version="1.0" standalone="no"?>
<!DOCTYPE svg PUBLIC "-//W3C//DTD SVG 20010904//EN"
 "http://www.w3.org/TR/2001/REC-SVG-20010904/DTD/svg10.dtd">
<svg version="1.0" xmlns="http://www.w3.org/2000/svg"
 width="1085.000000pt" height="981.000000pt" viewBox="0 0 1085.000000 981.000000"
 preserveAspectRatio="xMidYMid meet">

<g transform="translate(0.000000,981.000000) scale(0.100000,-0.100000)"
fill="#000000" stroke="none">
<path d="M5209 9388 c-34 -40 -111 -122 -169 -183 -59 -60 -143 -153 -187
-205 -45 -52 -116 -129 -158 -170 -43 -41 -120 -127 -173 -190 -97 -117 -275
-303 -554 -580 -86 -85 -189 -192 -228 -238 -40 -46 -107 -110 -149 -143 -42
-33 -137 -119 -211 -192 -74 -73 -176 -167 -227 -210 -50 -43 -142 -134 -204
-202 -61 -69 -115 -125 -119 -125 -4 0 -83 -73 -176 -163 -93 -89 -216 -199
-274 -244 -58 -44 -146 -123 -195 -175 -50 -51 -127 -122 -170 -157 -44 -35
-147 -130 -230 -211 -82 -80 -194 -187 -249 -237 -85 -78 -98 -94 -93 -115 10
-37 415 -388 449 -388 9 0 55 29 102 64 l85 64 190 3 190 4 32 -120 c52 -198
74 -327 159 -955 17 -124 36 -261 43 -305 l13 -80 -355 -1 c-429 -1 -713 -22
-944 -70 l-27 -6 1 64 c0 35 4 83 8 108 9 59 2 127 -14 134 -8 3 -34 -14 -60
-36 -48 -42 -97 -127 -109 -188 -8 -36 -55 -188 -63 -203 -9 -15 -83 66 -124
134 -27 45 -43 86 -50 130 -5 35 -17 71 -25 79 -22 22 -64 -5 -89 -57 -11 -23
-23 -42 -26 -43 -8 0 -19 91 -19 165 0 33 9 137 21 230 22 178 20 243 -7 364
-22 97 -37 131 -121 270 -87 145 -203 305 -233 321 -43 23 -51 -14 -23 -113
14 -51 14 -71 4 -155 -14 -112 -52 -287 -86 -387 -42 -128 -94 -299 -104 -345
-15 -64 -13 -162 3 -257 31 -171 63 -259 157 -425 38 -67 82 -157 98 -199 l30
-78 1 -278 c0 -153 5 -411 10 -573 11 -349 12 -767 1 -970 -4 -83 -4 -153 1
-163 10 -19 250 -139 468 -234 325 -142 1069 -382 1450 -469 85 -19 220 -50
300 -69 238 -55 549 -106 890 -145 96 -11 211 -24 255 -30 44 -6 139 -15 210
-21 72 -5 198 -16 280 -24 244 -23 372 -34 525 -45 80 -6 200 -15 268 -20 156
-13 385 -13 782 0 391 13 619 32 1050 91 80 11 208 26 285 34 201 20 381 44
445 60 30 7 89 18 130 25 41 6 91 15 110 20 19 5 98 20 175 34 218 40 290 55
435 91 74 18 171 41 215 50 125 28 420 103 446 115 13 5 76 24 139 40 222 60
603 222 654 279 11 11 25 21 32 21 21 0 54 41 64 81 19 71 62 1720 50 1908 -9
134 -14 156 -47 232 l-24 55 62 100 c89 141 204 359 228 429 10 33 24 87 30
120 5 33 19 112 31 175 42 234 18 366 -121 659 -27 57 -56 130 -64 161 -32
122 -10 259 72 451 42 100 45 111 31 126 -27 26 -63 8 -146 -75 -124 -124
-248 -310 -297 -443 -63 -173 -78 -351 -50 -584 17 -140 19 -301 4 -365 -19
-83 -61 -210 -70 -210 -5 0 -9 5 -9 10 0 21 -98 156 -144 198 -57 52 -78 51
-89 -3 -46 -225 -78 -311 -149 -402 -29 -38 -46 -52 -57 -48 -9 4 -90 22 -181
40 -91 19 -194 41 -230 49 -36 8 -91 17 -122 21 -48 5 -61 11 -78 36 -30 41
-74 41 -89 -1 l-10 -30 -149 0 c-186 0 -242 7 -242 29 0 9 -18 69 -39 133 -42
126 -98 224 -190 334 l-54 64 17 128 c8 70 23 192 31 271 17 152 61 405 76
433 5 9 9 31 9 47 l0 31 53 -5 c28 -3 110 -7 181 -9 114 -2 130 -5 139 -22 14
-25 46 -52 76 -65 24 -10 51 2 176 78 28 16 91 54 140 84 50 29 123 74 163 99
l73 47 -139 149 c-137 147 -681 695 -903 909 -63 61 -157 156 -209 210 -53 55
-136 137 -187 182 -50 45 -130 125 -177 177 l-87 95 15 63 c20 80 49 246 81
463 30 202 54 351 60 383 5 21 7 22 36 7 34 -18 66 -12 73 13 2 9 10 44 16 77
6 33 23 106 36 163 29 118 26 127 -39 137 -23 4 -103 24 -177 45 -250 71 -473
125 -741 179 -21 5 -44 4 -53 -1 -19 -11 -51 -110 -72 -230 -21 -111 -13 -135
43 -140 l38 -3 -2 -70 c-1 -61 -32 -314 -39 -323 -6 -8 -183 151 -219 198 -22
28 -60 68 -85 88 -90 73 -255 239 -346 349 -53 64 -138 149 -195 197 -56 47
-144 133 -197 193 -53 59 -145 157 -204 218 -59 60 -108 112 -108 116 0 3 -9
18 -21 33 -15 19 -30 26 -53 26 -29 0 -42 -10 -97 -72z m1753 -696 c5 -5 1
-52 -9 -106 l-17 -98 -45 7 c-109 15 -113 16 -108 39 3 11 13 56 22 100 l18
79 65 -6 c36 -4 69 -10 74 -15z m280 -57 c49 -13 91 -25 93 -27 1 -2 -5 -47
-13 -101 l-16 -99 -31 5 c-40 8 -259 58 -262 61 -1 1 5 46 14 100 l16 98 55
-7 c30 -4 95 -17 144 -30z m-1472 -487 c212 -210 426 -417 475 -459 50 -42
121 -112 160 -155 38 -44 115 -119 170 -169 55 -49 161 -151 235 -226 74 -75
174 -168 222 -208 47 -39 144 -131 215 -204 70 -73 173 -175 228 -227 55 -53
136 -134 180 -180 44 -47 123 -126 175 -175 54 -51 117 -123 145 -165 27 -41
72 -97 100 -125 27 -27 63 -66 78 -85 16 -19 61 -68 100 -110 40 -42 105 -113
145 -158 l73 -82 -126 0 -126 0 -80 78 c-45 42 -98 102 -119 133 -21 30 -105
122 -187 205 -83 82 -175 183 -206 224 -31 41 -133 147 -227 235 -95 88 -187
179 -207 203 -19 23 -69 69 -111 100 -44 33 -120 107 -176 172 -55 63 -160
174 -232 245 -118 116 -188 194 -277 309 -15 19 -58 60 -96 90 -38 30 -131
123 -207 207 -94 103 -159 165 -203 194 -36 24 -122 98 -191 165 -69 67 -143
134 -165 148 -48 30 -133 101 -192 160 -23 23 -49 42 -58 42 -8 0 -27 -14 -42
-32 -16 -17 -85 -90 -154 -162 -70 -72 -162 -173 -205 -225 -111 -133 -116
-137 -246 -250 -65 -56 -122 -110 -127 -119 -5 -9 -54 -60 -108 -112 -54 -52
-168 -165 -253 -250 -85 -86 -191 -185 -235 -221 -44 -35 -150 -131 -236 -214
-181 -174 -439 -412 -554 -511 -44 -38 -114 -105 -155 -149 -41 -44 -114 -120
-162 -170 -89 -92 -203 -228 -272 -326 -22 -29 -53 -69 -70 -86 l-30 -33 -136
0 -135 0 55 62 c55 62 434 441 678 678 70 69 159 158 197 199 39 41 126 125
195 186 69 62 236 223 372 357 136 135 286 276 332 314 122 102 467 460 570
594 49 63 139 167 201 230 61 63 137 147 170 185 32 39 122 134 199 212 l140
142 55 -49 c31 -26 229 -221 441 -432z m1786 406 c71 -20 131 -38 133 -40 3
-3 -30 -206 -35 -213 -1 -1 -45 11 -96 27 -51 17 -111 34 -133 39 -39 9 -40
10 -38 49 4 66 24 174 33 174 4 0 66 -16 136 -36z m-566 -165 c30 -7 57 -14
58 -15 6 -4 -20 -159 -28 -167 -6 -7 -157 17 -166 26 -1 1 7 42 18 90 19 82
22 88 42 83 11 -3 46 -11 76 -17z m256 -59 c125 -26 224 -57 253 -81 21 -17
22 -23 15 -99 -5 -67 -9 -80 -23 -76 -9 2 -97 26 -196 52 -99 26 -184 51 -189
55 -7 6 10 143 21 162 6 10 8 10 119 -13z m-1848 -192 c23 -21 62 -51 86 -66
24 -15 107 -88 184 -162 78 -73 168 -150 199 -170 50 -32 179 -166 263 -273
12 -15 59 -59 105 -97 48 -40 127 -124 188 -198 57 -70 134 -152 171 -182 37
-30 117 -112 177 -182 134 -156 195 -218 271 -273 31 -24 81 -70 110 -103 29
-34 126 -129 216 -213 89 -83 179 -175 199 -203 20 -28 111 -127 202 -221 91
-93 186 -199 211 -234 25 -35 59 -75 77 -89 20 -15 33 -33 33 -47 0 -22 -18
-131 -59 -365 -12 -63 -30 -203 -41 -310 -21 -194 -28 -240 -37 -240 -3 0 -30
20 -61 44 -69 54 -166 106 -197 106 -12 0 -28 -6 -34 -13 -6 -8 -16 -76 -22
-153 -20 -263 -26 -230 -25 141 l1 370 -594 3 c-469 2 -596 0 -603 -10 -4 -7
-8 -355 -8 -773 0 -579 3 -764 12 -773 7 -7 30 -12 51 -12 27 0 38 -4 34 -12
-47 -112 -62 -158 -78 -236 -11 -52 -22 -98 -25 -104 -19 -30 -236 50 -309
115 l-41 35 7 69 c4 37 15 147 25 243 13 125 18 257 19 460 0 324 -4 346 -79
506 -59 123 -173 242 -286 296 -194 94 -211 98 -413 100 -181 2 -182 2 -278
-30 -81 -27 -111 -44 -201 -113 -66 -50 -120 -100 -142 -132 -20 -29 -52 -74
-71 -101 -19 -26 -45 -80 -58 -120 -22 -70 -22 -79 -20 -561 1 -269 5 -509 8
-533 4 -28 3 -42 -5 -42 -15 0 -91 165 -130 283 -31 92 -34 97 -61 97 -33 0
-57 -21 -65 -58 -3 -15 -9 -38 -14 -52 -7 -24 -8 -23 -13 10 -3 19 -17 341
-32 715 -20 533 -28 683 -39 693 -12 12 -97 10 -546 -12 -397 -18 -537 -28
-546 -38 -10 -11 -10 -62 1 -273 40 -772 40 -734 16 -758 -14 -16 -24 -46 -31
-95 -5 -40 -15 -93 -20 -118 -14 -62 -81 -193 -148 -287 -59 -84 -72 -87 -72
-13 0 43 -47 378 -85 606 -28 171 -70 464 -85 605 -20 181 -89 567 -125 700
-19 72 -35 137 -35 147 0 9 30 53 68 98 37 45 90 109 117 143 28 34 73 87 100
117 182 197 268 286 353 366 53 49 138 130 187 180 50 49 135 128 190 175 55
48 141 127 191 175 151 147 204 196 286 264 42 36 117 110 166 165 49 55 123
128 165 163 41 35 119 110 173 168 53 58 142 144 196 191 55 48 149 145 211
217 61 72 165 186 230 253 l119 122 37 -27 c20 -14 55 -43 79 -64z m1697 -37
c64 -16 118 -31 120 -33 7 -6 -7 -145 -15 -158 -6 -9 -39 -5 -131 18 -68 17
-153 36 -188 43 l-63 12 5 36 c4 20 9 59 13 87 l6 51 68 -13 c37 -7 121 -26
185 -43z m393 -106 c4 -4 -24 -155 -30 -160 -2 -2 -26 2 -53 11 -28 8 -67 19
-89 25 l-39 10 7 77 c4 42 9 79 11 82 4 6 184 -36 193 -45z m-556 -110 c112
-24 106 -19 101 -73 -2 -26 -6 -58 -9 -71 l-5 -24 -35 34 c-45 43 -138 149
-131 149 3 0 39 -7 79 -15z m348 -84 c85 -22 159 -37 164 -34 5 4 6 -8 2 -28
-4 -19 -9 -53 -13 -76 -3 -25 -11 -43 -18 -43 -7 0 -42 11 -78 25 -36 13 -104
30 -151 37 l-86 12 0 36 c0 46 11 110 19 110 3 0 76 -18 161 -39z m-85 -196
c26 -6 32 -30 17 -67 -6 -15 -15 -9 -51 33 -40 47 -41 50 -17 44 14 -3 37 -7
51 -10z m160 -46 l51 -21 -15 -89 c-8 -49 -18 -89 -21 -89 -3 0 -25 20 -48 43
l-43 44 7 66 c4 37 9 67 13 67 3 0 28 -9 56 -21z m2885 -2141 c-6 -18 -14 -78
-17 -133 -7 -126 13 -237 60 -337 106 -225 147 -355 147 -465 0 -61 -88 -412
-124 -494 l-14 -34 -1 35 c-3 110 -59 345 -103 433 -16 32 -23 38 -46 35 -24
-3 -27 -8 -30 -43 -11 -163 -55 -377 -94 -450 -51 -99 -152 -227 -224 -286
l-72 -59 -4 80 c-2 65 -7 84 -24 101 -32 31 -55 17 -87 -52 -22 -45 -63 -95
-168 -204 -149 -153 -272 -246 -406 -306 -38 -17 -104 -48 -148 -70 -44 -21
-85 -39 -92 -39 -9 0 -7 13 4 46 12 35 14 68 10 131 -6 85 -17 113 -43 113 -8
0 -53 -39 -101 -87 -71 -71 -116 -105 -233 -174 -120 -71 -167 -93 -275 -127
-147 -46 -247 -73 -253 -68 -2 2 4 43 13 92 15 75 15 104 6 203 -22 220 -61
388 -105 455 -29 46 -76 28 -76 -29 0 -82 -53 -191 -175 -358 -43 -58 -133
-129 -229 -179 -72 -37 -88 -42 -143 -41 -79 2 -103 15 -206 113 -47 44 -92
80 -102 80 -31 0 -71 -55 -165 -229 -109 -200 -144 -244 -232 -292 -57 -30
-71 -34 -138 -33 -89 1 -167 24 -232 67 -96 65 -237 179 -263 212 -23 31 -82
72 -90 63 -69 -68 -240 -223 -282 -255 -104 -77 -302 -140 -408 -128 -117 12
-267 56 -380 110 -96 46 -119 62 -166 115 -77 88 -148 160 -157 160 -12 0 -26
-13 -86 -83 -63 -72 -183 -159 -276 -198 -61 -26 -132 -30 -295 -16 -147 13
-152 15 -218 71 -34 28 -88 72 -120 96 -41 30 -70 63 -97 111 -22 37 -40 72
-40 78 0 14 -41 41 -61 41 -10 0 -35 -24 -56 -54 -67 -95 -152 -155 -291 -206
-57 -21 -74 -22 -170 -17 -119 7 -184 23 -288 73 -68 32 -106 62 -272 211 -75
67 -110 80 -137 52 -7 -8 -20 -63 -29 -124 -9 -60 -18 -110 -20 -112 -1 -1
-26 6 -55 18 -209 79 -415 238 -541 417 -44 63 -67 74 -90 47 -9 -11 -10 -33
-3 -90 l9 -74 -65 62 c-37 35 -88 78 -116 97 -27 18 -66 47 -86 64 -20 17 -66
55 -103 84 -36 29 -85 81 -110 115 -42 59 -159 284 -206 395 -18 41 -27 52
-45 52 -30 0 -48 -24 -40 -52 4 -13 27 -66 51 -118 24 -53 50 -122 59 -155 14
-57 65 -383 65 -415 -1 -8 -24 30 -53 85 -29 55 -82 150 -117 210 -69 118
-124 271 -135 373 -13 114 23 287 105 505 40 107 90 358 90 452 0 53 6 52 38
-5 11 -19 50 -87 86 -150 111 -193 129 -290 101 -551 -31 -295 -10 -483 62
-550 29 -28 53 -18 69 30 l10 32 25 -53 c27 -59 116 -156 168 -182 49 -26 94
-15 121 30 12 19 37 76 56 127 l33 92 1 -50 c0 -55 21 -161 46 -241 19 -62
120 -189 193 -244 36 -27 72 -43 126 -56 71 -17 78 -17 128 -1 29 9 63 28 76
41 26 27 91 171 91 202 0 11 3 23 6 27 3 3 43 -40 88 -96 117 -147 230 -256
312 -303 130 -75 270 -107 371 -86 60 13 168 85 210 140 73 94 147 235 198
377 33 89 33 90 45 60 114 -302 150 -364 285 -501 86 -87 112 -107 186 -142
112 -54 198 -70 276 -52 76 17 152 60 214 124 56 57 193 255 210 305 l12 33
54 -103 c69 -130 121 -197 200 -254 137 -101 396 -161 554 -128 105 21 189 71
281 166 91 94 165 198 229 320 l46 89 70 -109 c39 -59 92 -132 119 -162 70
-78 192 -179 228 -190 17 -5 58 -19 91 -31 94 -34 183 -51 210 -38 19 8 24 21
30 67 28 237 130 444 302 613 147 146 261 234 279 216 2 -2 -1 -31 -6 -64 -6
-32 -10 -102 -10 -154 0 -80 4 -103 25 -147 38 -83 64 -103 129 -103 174 0
322 185 421 525 28 99 66 287 93 466 l17 117 42 -20 c55 -26 212 -174 268
-252 24 -34 69 -112 99 -174 54 -107 56 -115 56 -189 0 -74 -41 -353 -77 -530
-13 -63 -14 -85 -5 -96 18 -22 136 -29 217 -13 91 18 115 28 196 81 117 79
191 185 240 348 13 42 28 76 33 74 23 -8 68 -143 76 -228 11 -118 20 -133 73
-125 143 23 404 164 522 281 79 79 163 217 199 328 l22 68 32 -40 c30 -37 57
-89 82 -158 24 -65 69 -32 132 98 46 93 78 218 78 302 0 35 -7 129 -16 208
-24 212 -15 400 24 544 17 61 40 135 51 165 20 52 159 255 169 245 2 -2 -1
-19 -8 -37z m-2701 -655 c0 -93 -4 -332 -8 -533 -8 -346 -9 -367 -30 -412 -12
-27 -25 -48 -28 -48 -3 0 -3 83 1 183 6 148 4 186 -6 195 -16 13 -150 30 -264
34 -105 3 -114 -4 -114 -87 0 -61 -1 -64 -32 -79 -17 -9 -33 -16 -35 -16 -1 0
-3 35 -3 78 0 47 -5 85 -12 95 -11 14 -43 19 -187 28 -156 10 -175 9 -190 -5
-24 -24 -37 -522 -14 -548 13 -15 10 -23 -28 -77 -42 -60 -52 -67 -83 -55 -14
6 -16 77 -16 710 l0 704 525 0 525 0 -1 -167z m-3389 95 c0 -23 11 -325 25
-671 14 -346 24 -631 22 -633 -4 -4 -858 -6 -862 -2 -2 2 -25 62 -53 133 l-50
130 -26 519 c-15 285 -26 520 -24 522 5 4 742 41 866 43 l102 1 0 -42z m1390
-235 c25 -13 72 -44 105 -71 81 -65 155 -196 179 -319 28 -137 49 -694 28
-707 -5 -3 -28 31 -51 74 -35 65 -47 80 -66 80 -33 0 -47 -17 -85 -106 -18
-44 -50 -108 -70 -144 -21 -36 -49 -86 -64 -112 -46 -82 -172 -197 -270 -247
-84 -42 -89 -44 -179 -43 -77 0 -105 5 -172 30 l-80 29 -3 64 c-1 35 2 294 7
574 8 479 10 514 31 583 58 196 102 242 290 305 101 35 108 36 240 33 96 -1
122 -5 160 -23z m4677 -700 c6 -141 5 -142 -22 -195 -104 -203 -243 -359 -465
-524 -241 -180 -303 -219 -460 -292 -228 -107 -310 -150 -360 -191 -58 -47
-189 -125 -196 -118 -4 3 -1 20 5 38 16 47 14 84 -12 179 -39 142 -72 185
-115 154 -12 -8 -22 -25 -22 -38 0 -38 -57 -114 -122 -162 -156 -114 -314
-261 -324 -300 -4 -14 -15 -24 -32 -27 -15 -2 -101 -16 -192 -31 -104 -18
-192 -39 -238 -57 -101 -40 -107 -39 -81 13 49 95 64 374 30 527 -21 92 -29
104 -61 99 -15 -2 -26 -15 -35 -40 -7 -20 -25 -52 -40 -70 -45 -54 -173 -145
-280 -199 l-100 -51 -6 40 c-8 63 -60 182 -95 219 -36 38 -77 44 -94 13 -6
-11 -8 -25 -4 -31 10 -17 -74 -175 -122 -228 -26 -29 -74 -64 -124 -91 -89
-48 -115 -75 -155 -162 -25 -55 -50 -203 -39 -232 6 -16 -7 -18 -276 -46 -107
-11 -234 -20 -281 -20 l-87 0 15 42 c39 115 38 307 -2 393 -24 48 -163 195
-187 195 -10 0 -29 -17 -42 -37 -26 -41 -93 -108 -141 -140 -116 -78 -330
-153 -440 -153 -78 0 -292 19 -336 31 -48 12 -109 54 -207 143 -45 42 -85 76
-88 76 -15 0 -48 -25 -91 -68 -55 -54 -110 -83 -218 -113 -67 -18 -88 -19
-178 -11 -88 8 -118 16 -215 57 -63 26 -126 58 -142 71 -32 28 -62 31 -80 9
-10 -12 -10 -28 0 -78 17 -82 49 -134 122 -203 l61 -56 -69 7 c-133 12 -228
27 -246 36 -20 11 -146 52 -191 63 -15 4 -44 26 -64 49 -20 23 -72 77 -116
120 -67 66 -98 87 -191 132 -64 31 -153 65 -211 80 -191 49 -293 83 -327 109
-40 30 -51 32 -69 10 -10 -13 -10 -23 4 -62 9 -26 19 -74 23 -107 3 -33 15
-87 25 -120 10 -32 17 -60 16 -61 -1 -1 -45 12 -98 30 -57 19 -128 53 -176 84
-61 38 -108 59 -185 81 -56 16 -132 40 -168 53 -36 14 -85 32 -110 41 -181 63
-569 249 -577 275 -3 9 -26 31 -51 47 -87 56 -125 156 -157 415 -9 74 -18 146
-21 160 -5 21 0 19 32 -19 63 -73 173 -166 334 -281 61 -44 134 -121 200 -214
22 -31 41 -46 55 -46 38 0 46 20 31 81 -31 124 -35 122 56 28 78 -81 218 -183
323 -237 76 -38 249 -103 270 -100 19 3 20 10 20 113 0 61 4 116 8 123 9 13
76 -35 185 -134 112 -101 267 -160 452 -173 101 -7 123 -6 180 11 135 42 243
106 318 192 17 20 33 36 36 36 2 0 17 -24 34 -53 30 -54 72 -96 181 -182 136
-108 135 -107 245 -118 56 -6 155 -11 221 -11 118 -1 121 0 197 36 102 49 180
103 252 176 l59 60 101 -102 c96 -96 107 -104 211 -150 105 -47 140 -58 300
-92 100 -22 218 -13 325 24 162 56 219 93 386 254 l80 78 40 -41 c21 -23 72
-67 112 -98 212 -162 260 -184 412 -185 100 -1 108 1 175 33 114 56 147 98
294 369 40 72 76 132 80 132 4 0 17 -13 29 -29 28 -38 132 -118 179 -138 27
-11 59 -14 113 -11 66 4 87 10 159 49 110 58 228 154 270 221 19 29 56 85 83
124 26 40 53 85 59 100 15 41 25 19 44 -97 25 -157 29 -313 10 -394 -30 -126
-30 -133 -2 -146 20 -9 42 -8 104 6 104 23 352 99 394 121 97 49 291 173 338
216 30 26 59 48 64 48 12 0 -1 -70 -24 -139 -26 -74 -25 -99 5 -107 13 -3 33
-1 44 5 12 6 28 11 36 11 15 0 190 79 309 140 160 82 369 255 488 406 24 30
45 50 47 44 2 -6 -2 -33 -8 -60 -14 -58 -4 -80 35 -80 25 0 193 129 256 196
57 60 164 225 187 286 11 30 28 90 36 134 28 138 27 138 48 39 10 -49 21 -154
25 -232z m-7588 -63 c46 -5 86 -12 89 -14 2 -3 7 -25 9 -50 l5 -44 -303 -6
c-167 -3 -323 -8 -346 -12 -36 -5 -43 -3 -43 10 0 9 -9 35 -21 57 -11 23 -18
43 -16 45 2 3 49 7 103 11 55 3 101 7 103 9 9 8 341 3 420 -6z m-788 -47 c6
-16 13 -40 16 -55 5 -27 4 -28 -39 -28 -48 0 -162 -27 -275 -66 -105 -36 -108
-35 -131 39 -11 34 -18 64 -16 66 7 7 351 69 392 70 38 1 44 -2 53 -26z m6835
-16 c3 -2 1 -20 -4 -38 l-8 -34 -177 -2 -177 -1 0 45 0 46 180 -5 c100 -3 183
-8 186 -11z m339 -22 c28 -8 113 -26 190 -41 77 -15 144 -30 148 -34 4 -4 -17
-23 -47 -43 l-55 -37 -133 35 c-73 18 -146 35 -162 37 -24 2 -34 12 -52 48
-13 25 -24 48 -24 53 0 9 66 0 135 -18z m-1662 -171 c12 -12 -15 -46 -61 -75
-70 -44 -120 -37 -141 22 -20 59 -20 59 92 59 57 0 107 -3 110 -6z m-3112
-207 c-67 -135 -202 -284 -299 -329 -40 -19 -50 -20 -104 -10 -170 32 -352
174 -434 341 l-33 66 447 5 c246 3 449 1 451 -3 2 -5 -11 -36 -28 -70z m5892
-92 c5 -16 11 -174 14 -350 l5 -320 -22 -13 c-12 -7 -101 -43 -198 -78 -98
-36 -215 -84 -262 -106 -82 -38 -250 -101 -256 -95 -2 2 -4 119 -4 261 l-1
259 93 64 c51 36 136 90 188 120 102 60 236 155 340 240 35 30 71 52 79 51 8
-2 19 -16 24 -33z m-9422 -196 c83 -82 217 -154 544 -289 77 -32 173 -74 212
-94 68 -34 167 -66 203 -66 9 0 40 -7 69 -16 l53 -15 -6 -137 c-4 -75 -9 -171
-12 -213 l-6 -76 -246 82 c-302 101 -317 107 -522 208 -204 101 -330 157 -351
157 -13 0 -17 19 -22 113 -4 61 -7 189 -7 282 l1 170 21 -30 c12 -16 43 -51
69 -76z m6839 -537 c-12 -97 -20 -128 -51 -193 -36 -74 -40 -78 -81 -89 -24
-6 -70 -20 -103 -30 -34 -10 -88 -21 -120 -24 -33 -4 -98 -11 -145 -16 -47 -5
-157 -14 -245 -20 -88 -6 -187 -13 -219 -16 l-59 -5 6 63 c13 134 53 199 162
259 108 59 175 133 246 271 l22 43 22 -50 c14 -30 25 -84 30 -135 9 -110 24
-131 65 -90 11 11 66 42 122 69 109 52 251 147 308 207 l35 35 9 -81 c6 -58 5
-117 -4 -198z m1088 223 c19 -71 15 -132 -13 -190 -24 -51 -25 -52 -101 -75
-65 -19 -290 -69 -317 -70 -5 0 -6 4 -2 9 9 16 204 183 265 228 30 22 75 63
100 91 25 27 47 50 50 51 3 1 11 -19 18 -44z m666 -27 c9 -57 15 -444 7 -456
-9 -16 -79 -39 -182 -62 -47 -10 -130 -32 -185 -49 -54 -17 -151 -44 -214 -61
-317 -83 -552 -142 -612 -154 -62 -12 -68 -12 -68 3 -1 37 -10 221 -15 291
l-5 75 177 29 c416 65 477 84 663 207 117 77 241 144 334 180 92 35 94 35 100
-3z m-6912 -57 c73 -21 158 -44 188 -51 124 -29 317 -147 384 -235 l29 -37
-42 7 c-23 4 -92 8 -154 10 -117 2 -388 54 -395 75 -2 6 -10 10 -18 10 -28 0
-93 71 -105 114 -12 43 -28 146 -23 146 2 0 63 -17 136 -39z m3316 -145 c65
-68 76 -107 70 -251 -5 -112 -19 -164 -53 -199 -15 -15 -28 -17 -79 -11 -98
10 -295 44 -376 65 -144 36 -240 43 -394 30 -177 -16 -534 -8 -661 15 -49 9
-166 20 -259 25 -159 9 -171 11 -195 34 -14 13 -40 32 -56 42 -60 37 -127 100
-147 138 -14 27 -16 37 -6 33 7 -3 65 -27 128 -53 111 -46 119 -47 235 -52
113 -4 125 -2 217 27 95 31 208 95 230 131 10 16 22 9 107 -62 53 -44 116 -90
141 -101 54 -24 227 -47 375 -50 98 -1 122 2 218 31 162 48 317 134 402 221
21 23 42 41 46 41 3 0 29 -24 57 -54z m-4724 -147 c66 -33 126 -66 132 -72 12
-14 1 -255 -17 -372 -6 -38 -13 -95 -16 -125 l-5 -55 -182 72 c-99 40 -198 75
-218 79 l-37 6 -3 307 c-2 168 -2 309 0 313 3 8 185 -73 346 -153z m1068 75
c70 -27 456 -124 588 -148 47 -8 164 -27 260 -42 96 -14 178 -29 182 -33 4 -3
8 -89 9 -191 1 -175 0 -185 -17 -183 -172 17 -604 92 -744 129 -77 20 -437
132 -448 139 -4 3 28 366 34 383 3 11 12 9 39 -8 19 -12 63 -32 97 -46z m8084
-171 c-10 -337 -15 -398 -35 -409 -56 -30 -179 -86 -266 -119 -55 -21 -138
-54 -185 -73 -170 -70 -398 -144 -545 -177 -82 -19 -172 -41 -200 -49 -27 -8
-50 -14 -52 -13 -1 2 1 141 4 310 l6 307 51 14 c81 24 226 63 291 79 99 25
425 142 500 179 39 20 135 59 214 88 79 29 158 58 175 66 17 7 35 13 40 14 5
0 6 -94 2 -217z m-2208 -168 c3 -199 1 -215 -33 -215 -14 0 -105 -20 -202 -45
-98 -25 -252 -59 -343 -75 -230 -40 -776 -118 -887 -126 l-93 -7 0 74 c0 41
-3 124 -6 184 l-7 110 129 23 c160 27 278 40 459 47 202 7 457 52 620 109 192
66 296 96 330 93 l30 -2 3 -170z m-6348 33 c513 -172 681 -226 747 -239 l62
-13 7 -45 c7 -44 -1 -489 -8 -497 -5 -5 -273 61 -328 81 -25 9 -99 30 -165 46
-104 26 -682 213 -693 224 -2 2 3 73 12 157 8 84 18 208 22 276 5 83 11 122
18 119 6 -2 153 -51 326 -109z m1740 37 c149 -26 468 -54 625 -55 55 0 154
-10 220 -21 66 -11 191 -23 278 -26 l157 -6 0 -172 c0 -101 5 -185 11 -204 6
-18 10 -33 8 -35 -7 -5 -287 24 -604 63 -176 22 -372 45 -435 51 -63 6 -170
20 -237 31 -68 10 -125 19 -128 19 -3 0 -5 83 -5 185 0 141 3 185 13 185 6 0
50 -7 97 -15z m1864 -116 c42 -5 92 -17 111 -25 103 -43 533 -72 782 -52 84 6
156 8 160 4 13 -12 26 -337 15 -348 -6 -6 -107 -17 -224 -25 -224 -15 -639 -8
-1089 19 l-197 12 -1 207 -2 208 98 4 c222 7 275 7 347 -4z m3540 -71 c8 -30
8 -445 0 -530 l-7 -66 -111 -31 c-202 -55 -449 -110 -567 -125 -64 -8 -147
-22 -185 -30 -99 -22 -348 -64 -424 -71 -36 -4 -72 -8 -80 -11 -13 -3 -15 23
-12 199 1 111 3 240 5 286 l2 85 95 17 c52 9 176 37 275 62 211 53 254 62 355
77 41 6 116 22 165 35 50 14 146 38 215 55 69 17 152 39 185 49 78 25 82 25
89 -1z m-6024 -162 c80 -14 170 -28 200 -31 30 -3 118 -17 195 -30 232 -39
342 -55 523 -74 95 -10 175 -21 178 -24 7 -7 -9 -554 -17 -561 -2 -2 -29 0
-59 5 -30 4 -158 22 -285 39 -322 44 -636 95 -797 132 l-138 31 0 274 0 275
28 -6 c15 -3 92 -17 172 -30z m-1878 -60 c90 -35 190 -76 223 -91 33 -15 177
-67 320 -115 l260 -88 3 -252 c2 -238 1 -252 -15 -245 -10 4 -83 31 -163 60
-208 76 -390 150 -472 191 -39 20 -110 51 -158 69 -48 18 -111 45 -140 60
l-53 27 7 66 c3 37 6 138 6 225 0 92 4 157 9 157 6 0 83 -29 173 -64z m9292
-33 c-2 -27 -8 -103 -14 -170 -5 -67 -10 -161 -10 -210 0 -48 -4 -93 -8 -99
-28 -41 -194 -123 -377 -187 -72 -25 -138 -49 -148 -52 -16 -7 -17 11 -17 262
l0 269 73 32 c39 17 128 52 196 77 69 25 161 63 205 85 45 21 86 39 92 39 7 1
10 -16 8 -46z m-2893 -190 c1 -71 3 -196 5 -279 l3 -152 -25 -6 c-14 -4 -195
-27 -402 -52 -207 -25 -431 -52 -497 -60 -66 -8 -250 -17 -410 -21 l-290 -6
-3 29 c-2 16 -6 142 -8 280 l-5 251 243 6 c403 9 710 37 1163 106 105 16 198
30 208 30 15 1 17 -12 18 -126z m-3091 87 c389 -47 755 -76 1108 -86 l222 -7
0 -283 0 -284 -172 6 c-312 9 -590 25 -802 45 -238 22 -595 65 -603 72 -4 5
10 292 23 479 7 87 7 87 33 83 14 -3 100 -14 191 -25z m5280 -398 l0 -267 -62
-23 c-99 -37 -370 -119 -434 -132 -33 -6 -99 -22 -149 -35 -49 -13 -133 -31
-185 -40 -81 -14 -286 -54 -357 -70 l-22 -5 5 202 c3 112 7 231 10 265 l5 62
152 36 c84 20 271 69 417 110 146 41 308 84 361 94 53 11 127 31 165 44 38 13
75 25 82 26 9 1 12 -58 12 -267z m-7540 169 c58 -15 170 -46 250 -68 267 -75
645 -159 842 -188 l116 -17 6 -132 c12 -248 12 -396 0 -396 -25 0 -301 54
-464 91 -220 49 -668 169 -780 208 -53 19 -87 37 -91 48 -4 10 -8 123 -8 251
-1 179 2 232 12 232 6 -1 59 -13 117 -29z m6200 -505 l0 -264 -97 -17 c-54 -9
-177 -32 -273 -50 -96 -19 -292 -47 -435 -64 -143 -17 -287 -36 -320 -41 -80
-13 -417 -51 -420 -48 -2 2 -5 123 -6 269 l-4 266 280 32 c518 60 920 119
1130 166 33 7 79 14 103 14 l42 1 0 -264z m-4710 189 c69 -9 202 -27 295 -40
225 -33 749 -95 800 -95 22 0 45 -4 52 -8 9 -5 13 -77 15 -260 2 -139 2 -252
0 -252 -2 0 -65 7 -140 15 -75 8 -254 26 -397 40 -253 24 -685 77 -755 93
l-35 8 -3 262 -2 262 22 -5 c13 -2 79 -12 148 -20z m1643 -176 c424 -23 1180
-13 1354 17 l31 6 4 -264 c2 -144 3 -264 3 -264 0 -1 -102 -11 -227 -23 -255
-23 -493 -26 -918 -11 -240 9 -593 40 -607 53 -3 3 -4 106 -3 229 2 123 3 236
2 252 l0 28 87 -6 c47 -3 171 -11 274 -17z"/>
<path d="M4609 6979 c-19 -19 -20 -28 -15 -88 4 -36 9 -379 12 -761 3 -382 9
-699 13 -703 4 -4 172 -4 372 0 446 10 884 2 952 -16 42 -12 51 -12 63 1 25
25 48 534 48 1087 l1 474 -45 13 c-36 11 -182 14 -712 14 -666 0 -668 0 -689
-21z m1190 -58 l193 -1 -5 -412 c-4 -328 -31 -1005 -40 -1015 -1 -1 -83 3
-182 9 -159 9 -1001 3 -1054 -7 -18 -3 -19 10 -25 258 -3 144 -7 467 -10 718
l-4 457 467 -3 c256 -2 553 -4 660 -4z"/>
<path d="M5382 6814 c-22 -15 -22 -17 -22 -295 l0 -279 26 -11 c28 -10 453 -1
455 10 0 3 2 53 4 111 2 58 6 177 10 265 5 126 4 164 -7 177 -25 34 -423 53
-466 22z"/>
<path d="M4781 6796 c-19 -22 -3 -532 17 -548 18 -15 450 -20 459 -5 3 5 5
127 4 271 -2 251 -2 262 -22 279 -19 15 -46 17 -234 17 -170 0 -215 -3 -224
-14z"/>
<path d="M4904 6173 c-62 -3 -85 -8 -97 -21 -14 -15 -17 -55 -17 -272 -1 -225
1 -256 15 -266 12 -9 65 -11 193 -8 232 6 259 10 273 37 15 27 3 506 -13 524
-10 13 -136 15 -354 6z"/>
<path d="M5363 6169 c-10 -10 -13 -78 -13 -273 0 -144 4 -266 8 -272 5 -8 84
-13 247 -15 l240 -4 7 270 c5 229 4 272 -8 285 -20 20 -462 28 -481 9z"/>
<path d="M6611 4786 c-11 -13 -12 -60 -6 -259 4 -138 11 -247 17 -254 7 -9 42
-13 102 -14 50 0 127 -4 171 -8 44 -4 87 -4 96 0 12 6 17 49 28 248 7 132 10
249 6 260 -3 10 -13 22 -21 25 -8 3 -97 9 -197 12 -162 6 -184 5 -196 -10z"/>
<path d="M7123 4778 c-16 -19 -46 -499 -33 -512 6 -6 57 -12 113 -13 56 -1
132 -5 170 -8 65 -5 68 -4 77 21 6 14 10 82 10 152 1 70 5 174 10 232 7 84 6
108 -5 119 -20 20 -326 29 -342 9z"/>
<path d="M3783 4760 c-15 -6 -23 -18 -23 -32 0 -13 -3 -118 -6 -234 -5 -163
-3 -213 6 -219 15 -10 314 -10 329 0 12 7 7 466 -4 485 -8 13 -272 12 -302 0z"/>
<path d="M3320 4741 c-25 -4 -36 -12 -38 -27 -4 -28 36 -456 44 -463 6 -6 346
-2 352 4 2 2 4 107 4 234 0 169 -3 235 -12 246 -10 12 -41 15 -164 14 -83 -1
-167 -4 -186 -8z"/>
<path d="M3351 4189 l-24 -9 8 -243 c4 -138 11 -247 17 -254 8 -10 54 -13 168
-13 147 0 158 1 176 21 21 23 21 25 16 312 -3 208 7 197 -189 196 -82 0 -159
-5 -172 -10z"/>
<path d="M3782 4187 c-16 -19 -5 -492 12 -506 14 -12 318 -17 335 -6 11 6 12
55 7 254 -4 138 -12 250 -17 256 -6 6 -81 12 -167 14 -130 2 -160 0 -170 -12z"/>
<path d="M4958 3704 c-75 -40 -82 -183 -12 -229 14 -9 46 -19 72 -22 39 -4 52
-1 76 18 35 28 56 76 56 128 0 33 -7 48 -38 81 -34 35 -44 40 -83 40 -24 -1
-56 -7 -71 -16z"/>
</g>
</svg>
