<?xml version="1.0" standalone="no"?>
<!DOCTYPE svg PUBLIC "-//W3C//DTD SVG 20010904//EN"
 "http://www.w3.org/TR/2001/REC-SVG-20010904/DTD/svg10.dtd">
<svg version="1.0" xmlns="http://www.w3.org/2000/svg"
 width="7823.000000pt" height="6967.000000pt" viewBox="0 0 7823.000000 6967.000000"
 preserveAspectRatio="xMidYMid meet">

<g transform="translate(0.000000,6967.000000) scale(0.100000,-0.100000)"
fill="#000000" stroke="none">
<path d="M38040 69649 c-910 -74 -1766 -429 -2459 -1023 -59 -50 -610 -590
-1226 -1201 -5167 -5120 -13260 -13058 -24563 -24095 -1572 -1534 -1604 -1566
-1640 -1639 -35 -71 -37 -80 -37 -176 0 -97 2 -104 38 -178 43 -88 81 -125
392 -384 727 -606 1874 -1487 2545 -1955 231 -160 458 -312 505 -335 97 -49
227 -54 335 -14 66 25 106 56 360 281 l195 173 250 -7 c442 -12 834 -37 1675
-106 780 -65 1122 -87 1635 -108 l169 -7 48 -310 c259 -1680 508 -3431 723
-5077 119 -908 587 -4670 581 -4674 0 -1 -107 -7 -236 -13 -1249 -61 -2443
-318 -3537 -761 -81 -33 -148 -58 -149 -57 -4 4 -43 462 -56 657 -20 289 -17
1351 5 1655 109 1529 410 2870 944 4215 155 392 272 650 489 1086 212 425 223
455 204 568 -22 139 -113 260 -238 319 -60 28 -79 32 -175 35 -674 24 -1501
-642 -2618 -2108 -490 -643 -811 -1112 -2232 -3261 -186 -281 -340 -509 -343
-507 -14 15 77 474 236 1193 177 800 242 1134 304 1561 107 731 119 1426 35
2022 -98 697 -340 1352 -707 1912 -299 455 -730 905 -1217 1272 -171 129 -203
143 -340 143 -103 0 -114 -2 -177 -32 -88 -41 -160 -113 -200 -199 -28 -60
-32 -79 -39 -213 -32 -559 -64 -787 -164 -1184 -289 -1139 -958 -2195 -1649
-2602 -243 -143 -490 -197 -657 -145 -296 92 -582 556 -795 1291 -162 563
-264 1114 -408 2212 -49 370 -61 415 -137 502 -89 102 -243 159 -370 137 -136
-23 -208 -71 -311 -209 -824 -1094 -1551 -2441 -2043 -3783 -473 -1291 -775
-2637 -904 -4030 -47 -503 -61 -788 -68 -1365 -6 -510 3 -873 32 -1320 108
-1646 447 -3288 1007 -4878 l59 -169 -41 -45 c-50 -54 -87 -132 -101 -210 -8
-44 32 -1252 164 -4968 138 -3877 173 -4922 164 -4968 -9 -47 -7 -76 6 -150
14 -75 32 -518 97 -2377 44 -1257 85 -2306 90 -2333 14 -69 55 -143 108 -196
69 -68 644 -414 1197 -719 4006 -2208 9903 -3998 17090 -5187 13693 -2265
30441 -2121 42925 369 4802 958 8771 2205 11865 3730 776 383 1725 907 1833
1013 61 60 108 152 117 227 3 28 93 3611 200 7961 l194 7910 41 110 c537 1410
928 3151 1085 4835 60 647 79 1068 79 1765 0 574 -7 806 -39 1260 -157 2196
-737 4103 -1678 5515 -260 390 -511 701 -827 1024 -424 433 -856 770 -1355
1056 -270 154 -679 346 -851 399 -201 63 -412 -31 -499 -222 -16 -34 -43 -153
-79 -352 -527 -2871 -1365 -5016 -2672 -6840 -181 -253 -198 -274 -209 -274
-5 0 -35 30 -65 66 -81 96 -376 390 -530 528 -1104 986 -2526 1803 -3609 2075
-469 117 -916 133 -1229 44 -191 -54 -306 -191 -319 -380 -5 -62 1 -92 45
-260 388 -1447 579 -2664 623 -3969 10 -290 6 -751 -6 -763 -2 -2 -86 17 -187
42 -567 142 -1404 265 -2113 311 -49 3 -113 8 -142 11 l-51 5 -43 82 c-326
633 -759 1282 -1235 1852 -216 261 -314 367 -605 659 l-269 269 135 1486 c74
817 184 2035 245 2706 155 1711 210 2299 218 2307 7 6 730 102 1842 243 673
86 906 116 1308 171 l334 45 97 -93 c266 -255 529 -504 639 -606 134 -124 189
-156 296 -174 106 -18 166 -1 361 96 674 337 1682 1090 2695 2010 231 209 762
718 799 765 99 126 117 301 46 446 -27 57 -69 102 -984 1075 -1270 1349 -2501
2628 -4100 4260 -670 683 -3697 3710 -4456 4456 -1342 1318 -2259 2209 -3768
3664 l-67 65 -10 170 c-52 922 -127 2947 -195 5315 -34 1174 -73 2644 -71
2647 1 1 91 11 201 22 579 61 1140 154 1262 211 79 36 152 104 191 178 61 116
162 466 201 697 46 269 52 602 17 843 -46 312 -185 741 -281 872 -66 89 -172
150 -291 165 -30 4 -122 -3 -244 -19 -1115 -144 -2509 -241 -4005 -277 -534
-13 -2298 -6 -2730 10 -750 29 -1131 48 -1601 81 -305 22 -344 20 -439 -24
-137 -62 -199 -160 -280 -438 -166 -570 -166 -1190 -1 -1765 41 -141 97 -291
131 -348 32 -54 100 -118 158 -149 47 -25 86 -34 227 -56 41 -7 122 -20 180
-30 207 -36 686 -81 1016 -96 l151 -7 6 -371 c8 -477 43 -1210 74 -1541 l6
-70 -54 50 c-30 28 -633 594 -1339 1260 -4007 3773 -4982 4701 -6394 6090
-302 297 -588 574 -636 616 -687 597 -1564 960 -2490 1029 -157 12 -488 11
-640 -1z m530 -829 c665 -42 1276 -256 1805 -633 178 -127 293 -232 785 -716
1450 -1426 2509 -2435 6275 -5981 6644 -6256 9817 -9307 13594 -13075 2807
-2800 4537 -4577 7009 -7200 l302 -320 -113 -109 c-535 -519 -1331 -1187
-1922 -1613 -300 -216 -744 -503 -778 -503 -6 0 -47 35 -91 78 -45 42 -194
185 -331 317 -2556 2450 -14368 14116 -22205 21930 -1774 1770 -1805 1798
-2156 2033 -512 342 -1112 574 -1724 667 -309 47 -739 59 -1051 29 -789 -75
-1542 -366 -2174 -842 -233 -175 -221 -164 -1560 -1492 -1979 -1963 -5427
-5364 -7950 -7840 -7383 -7247 -12359 -12041 -14315 -13788 l-224 -201 -29 17
c-63 37 -631 448 -941 681 -490 368 -1222 941 -1604 1256 l-24 21 1453 1419
c11779 11503 19148 18733 24539 24074 509 505 966 951 1015 992 625 517 1358
788 2190 807 33 1 134 -3 225 -8z m18100 -4158 c32 -168 43 -340 30 -499 -10
-132 -46 -340 -74 -433 l-13 -45 -74 -12 c-153 -26 -421 -63 -634 -87 -436
-50 -1213 -112 -1225 -99 -7 8 -142 1155 -137 1160 2 1 104 9 227 18 545 37
1112 87 1565 138 l290 32 12 -33 c7 -19 22 -82 33 -140z m-7950 -22 c323 -19
773 -39 1012 -46 130 -4 241 -10 247 -13 9 -6 71 -1001 71 -1140 l0 -44 -162
7 c-340 14 -582 27 -831 47 -241 18 -561 53 -599 65 -20 6 -24 16 -49 128 -65
290 -73 614 -24 903 22 124 15 116 93 109 37 -3 146 -10 242 -16z m5053 -619
c37 -321 67 -585 65 -586 -3 -3 -496 -21 -963 -35 -170 -6 -687 -13 -1147 -17
-820 -6 -838 -6 -838 13 0 10 -14 260 -30 554 -16 294 -30 553 -30 575 l0 40
833 1 c748 0 1380 12 1847 33 91 5 172 8 180 7 12 -1 27 -106 83 -585z
m-15142 -1122 c603 -47 1153 -235 1649 -564 284 -189 305 -209 1825 -1725
2535 -2527 6934 -6895 10325 -10250 547 -541 1204 -1192 1460 -1445 723 -717
2980 -2945 4425 -4370 1954 -1926 3303 -3250 4888 -4800 352 -343 387 -380
365 -387 -12 -4 -345 -48 -738 -98 -824 -105 -1517 -194 -1873 -241 l-248 -33
-150 149 c-221 219 -1291 1306 -1754 1780 -1323 1356 -2565 2650 -5475 5705
-2595 2725 -4041 4232 -5410 5640 -3138 3228 -5880 5938 -8350 8256 -629 590
-965 902 -1008 936 -121 98 -299 114 -447 41 -39 -20 -270 -245 -1090 -1062
-572 -571 -2392 -2382 -4045 -4026 -5082 -5054 -10793 -10772 -13230 -13246
-1465 -1487 -3167 -3236 -3321 -3413 l-33 -39 -226 7 c-472 14 -810 36 -1670
106 -519 42 -920 73 -1089 82 l-45 3 285 265 c2078 1937 5309 5049 9859 9495
3389 3311 7769 7622 10878 10705 1389 1378 1701 1682 1822 1779 561 447 1218
703 1940 754 109 8 357 6 481 -4z m16179 -271 c0 -43 39 -1494 46 -1704 l7
-212 -39 -6 c-83 -13 -442 -46 -714 -65 -521 -38 -1103 -64 -1715 -77 l-301
-7 -12 290 c-19 446 -48 818 -98 1258 -27 239 -50 403 -60 429 -6 14 11 16
172 16 521 0 1827 46 2414 84 301 20 300 20 300 -6z m-4029 -78 l348 0 -10
-32 c-14 -52 -11 -131 16 -339 60 -481 90 -850 120 -1509 l4 -105 -92 2 c-302
9 -718 40 -734 56 -22 23 -92 1431 -93 1881 l0 59 46 -7 c26 -3 203 -6 395 -6z
m-12254 -2200 c2970 -2770 6054 -5827 9893 -9805 1244 -1289 2020 -2101 5255
-5495 2710 -2844 4034 -4215 5713 -5917 l673 -682 -65 -698 c-67 -712 -173
-1882 -361 -3968 -248 -2750 -251 -2784 -281 -2840 -73 -138 -529 -864 -847
-1350 -1672 -2554 -3728 -5047 -5890 -7141 -594 -575 -576 -559 -586 -548 -5
5 -334 596 -732 1314 -397 718 -733 1320 -747 1338 -40 52 -130 111 -205 134
-141 42 -296 5 -405 -96 -63 -59 -96 -121 -128 -242 -214 -819 -679 -1523
-1364 -2067 -600 -477 -1312 -772 -2045 -848 -224 -23 -718 -8 -861 27 l-21 5
-6 1397 c-7 1353 -15 2025 -37 2797 -44 1579 -124 2775 -255 3830 -263 2107
-749 3506 -1494 4299 -798 849 -2042 1469 -3472 1731 -1919 352 -3859 4 -5284
-947 -459 -307 -920 -724 -1175 -1063 -833 -1108 -1373 -3625 -1575 -7340 -57
-1063 -70 -1620 -70 -3085 0 -1242 3 -1467 32 -2259 l6 -183 -34 7 c-69 14
-329 104 -448 154 -861 362 -1589 1002 -2070 1817 -97 165 -237 458 -306 637
-130 342 -209 696 -236 1062 -15 214 -37 282 -118 368 -114 122 -282 167 -432
117 -81 -28 -125 -57 -184 -122 -28 -31 -637 -798 -1355 -1706 -718 -908
-1308 -1651 -1311 -1651 -3 -1 -6 77 -7 172 -9 742 -186 1484 -512 2145 -163
331 -205 388 -327 449 -63 31 -87 37 -157 41 -166 9 -253 -38 -408 -218 -629
-733 -1540 -1204 -2583 -1336 -169 -21 -606 -29 -790 -15 -585 46 -1131 214
-1587 488 -100 60 -128 82 -133 102 -19 91 -245 1609 -344 2311 -192 1357
-335 2466 -646 5000 -435 3546 -703 5521 -1095 8066 -50 320 -90 592 -90 604
0 24 49 76 879 935 447 462 541 558 1316 1350 1763 1801 4785 4843 8517 8570
3611 3609 10580 10545 10590 10542 3 -1 96 -85 205 -187z m16372 -912 c6 -238
21 -698 31 -1022 11 -324 18 -591 17 -593 -9 -8 -955 -49 -961 -41 -2 2 -42
431 -90 953 -48 523 -89 971 -93 997 l-5 47 33 5 c19 3 149 12 289 21 140 10
356 27 480 40 124 12 239 23 256 24 l30 1 13 -432z m-4151 312 c371 -24 991
-32 1605 -20 335 6 610 10 611 8 2 -2 42 -435 90 -963 48 -528 89 -972 92
-986 l5 -26 -118 -7 c-65 -3 -186 -7 -269 -8 l-151 -2 -569 539 c-313 297
-778 738 -1034 979 -256 241 -473 447 -482 458 -32 36 -23 50 25 44 23 -3 111
-10 195 -16z m4241 -3065 c7 -165 21 -511 31 -769 11 -258 18 -471 16 -473 -2
-3 -217 199 -478 449 -260 249 -610 583 -776 742 -166 159 -301 291 -299 293
2 2 154 8 338 13 404 12 894 30 1044 39 60 4 111 6 111 6 1 0 7 -135 13 -300z
m18790 -18957 c320 -172 620 -375 911 -617 154 -128 540 -514 680 -681 1041
-1239 1706 -3016 1934 -5170 68 -636 81 -924 81 -1735 0 -701 -4 -811 -41
-1325 -109 -1514 -425 -3113 -887 -4485 -94 -279 -195 -554 -208 -571 -15 -19
-355 -284 -594 -464 -453 -341 -1113 -799 -1102 -764 3 10 46 114 95 229 480
1126 799 2416 911 3685 39 440 46 608 46 1130 0 523 -7 698 -46 1125 -125
1390 -476 2723 -1044 3960 -173 377 -213 440 -316 502 -171 102 -378 75 -513
-67 -68 -71 -84 -104 -136 -275 -398 -1332 -1034 -2691 -1807 -3865 -202 -306
-529 -770 -554 -785 -4 -3 -404 422 -889 945 -485 523 -902 964 -926 981 -168
115 -409 85 -544 -68 -52 -60 -79 -119 -134 -295 -156 -503 -267 -1155 -326
-1918 -72 -946 -55 -2106 45 -2924 8 -66 12 -122 10 -124 -3 -3 -78 0 -167 7
-658 49 -1086 192 -1935 649 -168 91 -223 107 -331 99 -189 -14 -342 -158
-374 -350 -9 -55 -7 -83 10 -184 42 -231 53 -350 59 -605 14 -606 -65 -1028
-388 -2088 -256 -838 -338 -1188 -401 -1705 -21 -176 -18 -774 5 -945 58 -431
164 -821 327 -1211 32 -79 58 -145 56 -147 -22 -21 -1439 -439 -2126 -626
-598 -163 -1789 -468 -1798 -461 -1 1 10 28 24 61 14 32 52 124 84 204 431
1080 592 2170 474 3210 -76 669 -282 1353 -583 1935 -188 364 -423 707 -537
786 -77 53 -146 71 -254 67 -82 -3 -104 -8 -161 -36 -80 -38 -150 -109 -203
-207 -61 -110 -199 -317 -296 -445 -265 -348 -610 -681 -941 -913 -196 -136
-473 -287 -674 -367 -84 -34 -244 -90 -256 -90 -3 0 -14 39 -23 88 -124 637
-409 1248 -825 1770 -177 223 -403 448 -631 630 -129 103 -396 282 -472 317
-81 37 -164 50 -239 36 -138 -24 -235 -97 -321 -240 -926 -1542 -2116 -2869
-3533 -3939 l-160 -121 -73 72 c-153 150 -277 351 -346 558 -37 113 -66 262
-66 344 0 134 -47 251 -135 334 -96 91 -227 132 -347 111 -131 -23 -147 -36
-478 -364 -168 -166 -354 -346 -414 -400 -485 -434 -934 -694 -1350 -782 -148
-31 -445 -44 -591 -25 -196 26 -385 89 -539 179 -99 59 -233 184 -303 283 -90
130 -171 186 -299 210 -188 35 -386 -80 -456 -263 -10 -27 -25 -99 -34 -161
-64 -467 -255 -904 -557 -1277 -47 -58 -116 -135 -154 -172 l-68 -66 -605 365
c-333 200 -697 421 -808 490 -230 141 -243 147 -334 163 -118 21 -265 -26
-351 -112 -93 -94 -284 -394 -387 -610 -316 -666 -421 -1425 -299 -2163 99
-597 353 -1167 727 -1634 46 -57 82 -104 80 -106 -6 -5 -998 -35 -1848 -56
-239 -5 -1067 -13 -1840 -16 -1844 -7 -3007 10 -4802 74 l-187 6 99 106 c356
382 584 795 710 1287 55 212 80 393 87 624 20 669 -176 1297 -567 1810 -72 95
-129 146 -195 176 -110 51 -213 53 -330 9 -33 -13 -555 -251 -1160 -530 -605
-279 -1110 -510 -1122 -512 -28 -6 -185 96 -290 189 -388 343 -555 857 -427
1315 54 194 59 228 46 305 -31 178 -172 319 -349 348 -65 11 -158 2 -312 -32
-676 -145 -1575 -681 -2270 -1353 l-103 -100 -44 50 c-71 80 -181 248 -245
377 -90 179 -148 333 -304 804 -163 491 -243 700 -355 929 -146 296 -246 441
-345 499 -132 78 -316 72 -439 -14 -81 -56 -113 -102 -204 -285 -49 -99 -115
-225 -147 -280 -373 -644 -905 -1139 -1523 -1414 -227 -101 -492 -179 -732
-216 -146 -23 -440 -30 -592 -16 -597 56 -1099 339 -1399 790 -203 305 -307
659 -325 1105 -7 177 -23 247 -74 321 -72 105 -189 173 -314 182 -154 12 -238
-29 -393 -192 -442 -460 -815 -1085 -1022 -1712 -145 -437 -209 -806 -218
-1254 -6 -281 3 -435 37 -662 53 -351 175 -738 327 -1041 24 -48 43 -89 41
-91 -4 -2 -106 16 -693 126 -1074 200 -2213 438 -3288 686 -167 38 -206 50
-202 62 3 8 19 80 35 160 163 815 28 1719 -394 2640 -201 440 -519 946 -912
1452 -236 303 -445 551 -944 1119 -753 855 -1144 1326 -1531 1843 -1072 1430
-1610 2615 -1758 3872 -27 229 -65 313 -179 396 -81 58 -165 82 -265 77 -155
-8 -228 -54 -381 -242 -439 -537 -811 -1168 -1076 -1827 -26 -66 -50 -122 -52
-124 -2 -2 -687 1293 -1522 2878 -835 1585 -1535 2902 -1554 2925 -157 196
-456 205 -628 20 -65 -69 -417 -595 -617 -920 -1039 -1694 -1696 -3487 -1951
-5323 -78 -557 -107 -968 -113 -1597 -7 -639 14 -1078 77 -1607 10 -86 17
-157 16 -158 -3 -4 -205 154 -398 309 l-186 152 -67 180 c-860 2321 -1221
4782 -1049 7161 171 2375 865 4605 2044 6565 138 231 190 313 195 308 2 -2 20
-102 40 -223 205 -1239 486 -2076 871 -2595 101 -136 285 -319 399 -396 244
-166 470 -237 750 -236 641 1 1299 395 1882 1127 577 723 1024 1742 1195 2719
l22 129 102 -106 c395 -411 703 -949 864 -1507 221 -764 226 -1658 15 -2815
-54 -295 -106 -544 -240 -1145 -115 -515 -161 -741 -199 -965 -114 -679 -92
-1125 74 -1474 122 -255 250 -349 459 -339 184 9 270 83 591 513 233 311 534
756 1195 1765 1202 1834 1885 2768 2537 3468 94 101 172 181 174 179 2 -1 -39
-109 -90 -238 -962 -2420 -1262 -5078 -860 -7629 107 -678 243 -1136 472
-1585 83 -162 211 -362 315 -490 92 -114 296 -308 408 -387 191 -136 438 -243
672 -290 152 -31 485 -33 617 -4 285 62 524 193 743 406 178 172 311 349 462
615 78 137 214 415 301 617 32 76 62 138 65 138 7 0 -1 31 140 -585 243 -1059
366 -1477 559 -1897 188 -408 401 -706 730 -1018 123 -118 184 -166 323 -259
285 -189 511 -307 817 -426 1190 -463 2571 -408 3800 150 392 178 818 452
1132 729 l97 85 29 -77 c190 -495 283 -1058 269 -1612 -14 -511 -87 -882 -282
-1429 -34 -96 -37 -111 -33 -185 8 -122 36 -186 122 -272 84 -84 150 -114 267
-122 119 -7 217 27 302 107 21 20 743 926 1605 2014 861 1087 1569 1977 1574
1977 4 0 8 -7 8 -15 0 -8 25 -92 56 -187 423 -1306 1388 -2418 2629 -3028 499
-245 975 -386 1545 -457 204 -25 740 -25 955 0 606 72 1154 235 1695 506 929
464 1719 1214 2204 2090 l85 154 39 -84 c222 -479 700 -1483 723 -1515 40 -59
94 -102 169 -138 60 -29 73 -31 170 -31 94 0 111 3 164 28 74 34 137 85 175
141 16 24 60 119 97 211 209 523 529 1049 910 1495 131 154 459 481 614 611
283 240 570 438 875 608 l109 61 57 -153 c77 -207 115 -292 223 -502 151 -295
326 -561 553 -840 122 -151 491 -521 643 -647 767 -634 1599 -991 2560 -1100
174 -20 678 -17 860 5 1088 131 2074 612 2860 1397 354 353 681 799 876 1193
21 42 41 77 44 77 3 -1 289 -514 635 -1142 475 -860 642 -1154 678 -1194 130
-144 359 -175 522 -72 40 25 309 270 665 607 257 243 1335 1321 1576 1576
2161 2289 4008 4702 5604 7325 78 129 145 237 147 240 3 3 32 -24 65 -60 1283
-1395 2143 -3179 2463 -5110 212 -1285 162 -2653 -142 -3855 -30 -121 -28
-217 7 -310 32 -84 141 -193 225 -225 134 -51 297 -32 403 47 62 47 73 61 217
263 615 864 1136 1814 1515 2763 491 1231 771 2496 860 3887 18 271 24 1035
11 1340 -48 1135 -208 2243 -497 3429 -30 123 -52 227 -49 229 9 10 229 -28
375 -63 610 -150 1355 -506 2135 -1019 871 -574 1603 -1239 1895 -1722 136
-224 349 -298 564 -195 81 38 107 64 276 276 1376 1724 2313 3715 2930 6230
89 362 169 718 232 1038 23 119 47 217 52 217 5 0 52 -23 105 -52z m-34519
-2918 c922 -64 1772 -279 2527 -641 639 -305 1185 -721 1504 -1145 703 -936
1116 -2755 1284 -5659 68 -1177 97 -2434 110 -4697 5 -908 4 -957 -13 -951
-49 17 -331 157 -427 212 -132 76 -307 191 -431 284 l-91 69 -6 1221 c-9 1516
-24 2301 -62 3182 -121 2754 -451 4384 -1082 5339 -107 162 -217 292 -392 466
-316 316 -658 558 -1094 776 -882 442 -1958 631 -2957 518 -1053 -118 -1984
-543 -2689 -1229 -236 -230 -399 -429 -515 -629 -585 -1006 -941 -3385 -1046
-6976 -20 -697 -29 -1883 -20 -2665 9 -750 24 -1452 35 -1606 l5 -76 -87 -16
c-210 -38 -516 -67 -709 -67 l-71 0 -7 198 c-21 620 -26 806 -37 1402 -17 949
-5 2191 31 3155 132 3546 577 6196 1246 7420 144 264 253 405 500 645 891 869
2130 1376 3599 1473 123 8 764 6 895 -3z m-45 -1855 c1052 -123 1994 -576
2533 -1220 590 -704 928 -2222 1057 -4745 47 -941 80 -2402 73 -3343 l-3 -448
-63 101 c-233 373 -386 745 -478 1155 -33 147 -65 214 -138 283 -64 61 -134
96 -223 112 -115 20 -210 -10 -558 -179 -1093 -530 -2043 -1412 -2662 -2468
l-67 -114 -26 58 c-47 102 -691 1465 -732 1551 -31 62 -56 96 -104 141 -88 83
-148 105 -284 106 -99 0 -109 -2 -173 -33 -78 -38 -151 -107 -188 -178 -15
-27 -41 -102 -58 -168 -67 -250 -145 -454 -266 -698 -363 -723 -928 -1322
-1663 -1760 -120 -71 -459 -244 -466 -237 -2 2 -10 227 -17 499 -18 636 -18
2759 -1 3350 65 2246 200 3856 427 5090 151 822 344 1443 547 1757 99 153 359
425 563 589 588 473 1286 741 2115 813 159 14 690 5 855 -14z m34893 -2116
c821 -2279 886 -4868 181 -7232 -253 -846 -598 -1643 -1046 -2414 l-95 -163
-196 -111 c-1905 -1081 -4071 -2034 -6543 -2880 l-317 -108 -40 89 c-265 579
-378 1173 -332 1756 33 418 119 810 330 1509 259 855 329 1120 395 1495 50
285 85 651 85 892 l0 97 84 -39 c381 -176 817 -307 1211 -364 299 -43 1031
-79 1157 -57 176 31 307 154 348 329 15 64 11 102 -28 332 -159 915 -187 2316
-72 3480 30 295 106 820 123 836 2 2 341 -359 753 -803 412 -445 774 -834 806
-866 37 -37 81 -69 125 -90 64 -30 75 -32 178 -32 98 0 116 3 167 27 76 35
130 88 257 248 965 1218 1784 2656 2337 4108 37 96 61 147 66 139 4 -8 34 -88
66 -178z m-67067 -3078 c1694 -3215 1627 -3093 1732 -3154 207 -121 477 -41
588 175 11 21 35 105 53 187 96 418 241 834 431 1241 75 160 228 450 294 557
l27 43 33 -122 c145 -536 420 -1197 732 -1758 530 -954 1191 -1839 2413 -3230
468 -533 548 -625 695 -800 410 -488 681 -856 919 -1250 108 -180 299 -561
367 -735 263 -668 339 -1320 224 -1903 -12 -59 -24 -110 -28 -114 -6 -7 -454
103 -981 242 -1055 277 -2570 719 -2715 792 -68 35 -144 58 -193 58 -39 0
-1016 324 -1537 510 -2536 904 -4671 1907 -6349 2983 l-209 135 -29 163 c-180
1044 -229 2027 -153 3039 146 1935 776 3843 1857 5628 178 293 219 355 228
345 4 -4 725 -1369 1601 -3032z m10666 -46 c53 -418 179 -1362 248 -1864 36
-256 63 -466 62 -467 -1 -2 -52 212 -111 474 -195 852 -402 1637 -473 1790
-79 169 -289 266 -470 218 -121 -32 -205 -100 -276 -221 -67 -114 -218 -442
-409 -890 -270 -632 -428 -944 -579 -1145 -128 -169 -269 -284 -405 -329 -143
-47 -345 -36 -513 29 -440 170 -803 773 -981 1628 -17 79 -30 153 -30 166 0
21 21 32 193 104 933 391 1905 632 2927 726 224 21 635 44 745 42 l39 -1 33
-260z m45448 184 c579 -63 1153 -166 1565 -282 l155 -44 -3 -39 c-6 -78 -54
-453 -78 -609 -183 -1184 -550 -2324 -1100 -3417 l-69 -138 0 473 c0 479 -7
642 -46 1036 -98 1015 -354 2068 -728 3000 l-22 53 73 -7 c40 -3 154 -15 253
-26z m-7002 -5369 c491 -423 880 -1072 1021 -1703 37 -165 55 -288 71 -485 14
-169 16 -180 50 -248 45 -91 130 -173 212 -204 122 -47 258 -36 588 50 620
160 1170 448 1700 891 217 182 513 489 706 731 45 57 83 105 85 107 5 6 131
-253 189 -390 125 -295 243 -704 299 -1029 184 -1078 20 -2205 -489 -3355 -45
-103 -259 -541 -270 -553 -4 -5 -579 -131 -985 -216 -3711 -778 -7731 -1322
-12005 -1626 -730 -51 -1892 -121 -2275 -135 -85 -4 -165 -8 -177 -11 -47 -9
-382 267 -546 451 -185 209 -296 374 -422 630 -126 255 -207 512 -251 800 -27
170 -27 659 -1 820 46 284 124 548 227 762 33 70 62 128 64 130 2 3 935 -557
1399 -840 87 -53 177 -102 200 -109 23 -7 83 -13 132 -13 79 0 98 4 155 31
190 90 576 470 809 798 141 199 309 510 391 726 18 47 34 88 36 91 2 3 63 -24
136 -60 340 -170 740 -253 1143 -237 419 16 770 111 1186 322 349 177 737 458
1088 789 53 50 75 66 79 55 14 -42 125 -246 177 -325 182 -275 450 -535 713
-689 102 -60 155 -76 248 -76 146 0 193 26 621 347 351 263 672 527 1018 836
215 192 857 832 1046 1042 529 589 989 1184 1395 1805 65 99 121 180 126 180
4 0 54 -40 111 -90z m19957 -2684 c-28 -1126 -53 -2052 -55 -2057 -6 -9 -419
-245 -720 -411 -1088 -601 -2288 -1186 -3540 -1725 -541 -233 -1213 -508
-1222 -499 -4 3 -143 3421 -143 3521 l0 41 143 64 c2057 928 3887 1980 5457
3139 l125 92 3 -58 c1 -32 -20 -980 -48 -2107z m-74128 1856 c1260 -972 2822
-1880 4693 -2729 1229 -558 2629 -1100 4120 -1593 220 -73 403 -135 407 -139
8 -7 105 -3318 97 -3325 -5 -6 -644 185 -1131 338 -3165 994 -5916 2142 -8063
3363 l-140 80 -3 54 c-4 82 -142 4000 -142 4037 0 17 2 32 5 32 2 0 73 -53
157 -118z m19508 -2447 c43 -121 165 -369 235 -480 431 -680 1120 -1099 1990
-1211 181 -23 542 -23 735 0 670 81 1285 332 1845 755 327 247 722 663 930
978 15 24 31 40 35 38 5 -3 70 -191 145 -418 76 -226 169 -493 208 -592 226
-577 522 -971 942 -1249 134 -89 188 -109 295 -109 158 0 248 52 376 216 262
334 760 749 1254 1042 115 68 396 215 412 215 4 0 8 -21 8 -47 0 -148 44 -383
107 -574 186 -571 626 -1064 1190 -1334 172 -83 280 -104 388 -74 22 6 519
232 1105 501 586 270 1072 492 1081 495 11 3 30 -26 71 -114 92 -195 140 -352
174 -573 23 -153 23 -443 0 -595 -108 -708 -530 -1268 -1221 -1620 -82 -42
-161 -88 -176 -101 -32 -30 -20 -30 -579 1 -3823 215 -7342 588 -10910 1155
l-445 70 -48 53 c-203 219 -418 577 -526 874 -303 834 -194 1828 297 2710 25
46 46 82 47 80 2 -1 17 -42 35 -92z m48189 -2730 c37 -929 65 -1693 62 -1697
-8 -10 -638 -242 -1066 -393 -2251 -795 -4750 -1503 -7360 -2084 -391 -87
-1187 -257 -1297 -276 l-38 -7 0 238 c0 880 -100 1881 -281 2818 -22 115 -36
212 -32 216 4 4 33 12 63 18 481 99 1566 350 2260 522 2729 679 5304 1513
7495 2428 l120 51 3 -72 c2 -40 34 -832 71 -1762z m-57299 355 c2347 -700
4958 -1315 7725 -1819 376 -69 950 -169 1201 -211 l72 -11 6 -52 c21 -186 286
-3160 282 -3165 -10 -10 -1283 206 -2146 364 -2452 449 -4744 965 -6950 1566
-223 60 -409 114 -414 119 -5 5 -28 655 -52 1476 -23 808 -45 1550 -48 1650
-5 147 -4 182 6 178 7 -2 150 -45 318 -95z m63653 -182 c-6 -189 -103 -4200
-103 -4260 l0 -56 -202 -118 c-2030 -1178 -4412 -2261 -7003 -3184 -861 -307
-2492 -836 -2512 -816 -6 6 -185 4439 -180 4442 1 0 112 33 247 73 2402 714
4822 1618 6900 2578 872 403 1911 929 2630 1331 118 66 218 121 221 121 3 1 4
-50 2 -111z m-73673 -173 c1036 -553 2365 -1166 3614 -1666 l209 -84 -7 -740
c-7 -863 -37 -3219 -40 -3222 -3 -3 -395 162 -736 310 -1037 450 -2069 956
-2975 1458 -138 76 -258 144 -268 151 -16 12 -23 156 -87 1973 -39 1078 -70
1973 -70 1988 l0 28 53 -29 c28 -17 167 -92 307 -167z m56488 -1397 c13 -51
73 -374 101 -543 76 -451 138 -990 171 -1495 17 -260 33 -949 25 -1073 -6
-109 -9 -117 -28 -122 -49 -11 -742 -139 -1105 -204 -3199 -572 -6680 -993
-10217 -1236 -627 -43 -780 -53 -784 -49 -4 4 -320 3208 -316 3212 1 1 166 14
366 27 4028 274 8023 785 11449 1465 162 32 302 59 311 59 11 1 20 -12 27 -41z
m-36173 -498 c3171 -485 6621 -845 9915 -1035 239 -13 472 -27 517 -31 l82 -6
6 -51 c3 -29 57 -720 120 -1537 63 -817 117 -1511 121 -1544 l6 -59 -103 7
c-57 3 -293 18 -524 31 -3035 181 -6080 482 -9005 891 -411 57 -1284 184
-1286 187 -1 1 -65 706 -143 1567 -78 861 -144 1585 -148 1609 -5 42 -5 44 18
38 13 -3 204 -33 424 -67z m-15335 -296 c2459 -904 5263 -1717 8315 -2409 209
-48 382 -88 384 -90 5 -5 42 -4117 37 -4122 -2 -2 -203 44 -447 102 -3116 747
-5997 1628 -8537 2611 l-123 47 6 431 c3 237 10 753 15 1146 6 393 13 1094 17
1558 3 463 9 842 12 842 3 0 148 -52 321 -116z m38523 -811 c25 -224 310
-3164 306 -3166 -8 -8 -1270 -65 -1994 -91 -2902 -105 -5879 -101 -8810 14
-809 32 -1064 43 -1075 50 -9 6 -263 3179 -256 3187 1 1 90 -2 197 -7 296 -15
903 -38 1409 -55 2909 -95 5838 -82 8695 40 414 18 1357 64 1400 69 17 1 51 4
76 4 l46 2 6 -47z m19432 -3336 c47 -1193 85 -2170 85 -2172 0 -6 -57 -22
-515 -150 -2842 -790 -6029 -1445 -9320 -1915 -539 -76 -1162 -160 -1197 -160
-24 0 -28 4 -28 28 0 15 -72 1012 -161 2215 -88 1204 -159 2190 -157 2193 3 2
139 22 304 44 3880 524 7335 1214 10669 2133 l230 63 3 -55 c1 -31 41 -1032
87 -2224z m-62820 1417 c380 -203 1177 -601 1585 -791 1627 -758 3264 -1404
5203 -2055 l477 -160 0 -404 c0 -222 7 -794 16 -1271 11 -595 14 -1063 10
-1487 -4 -341 -8 -621 -10 -623 -10 -11 -1203 390 -1791 602 -2030 730 -3819
1544 -5299 2409 -384 225 -354 204 -360 251 -3 22 -32 834 -66 1805 -33 971
-61 1791 -63 1823 -2 31 -1 57 2 57 3 0 137 -70 296 -156z m15365 -144 c2691
-540 5557 -988 8435 -1320 198 -23 362 -43 363 -45 7 -6 -86 -4216 -92 -4222
-7 -8 -193 15 -896 108 -2626 347 -5303 804 -7733 1320 -706 149 -981 210
-991 220 -8 7 -43 3066 -45 3965 l-1 171 133 -29 c72 -16 445 -91 827 -168z
m58016 -2050 c-25 -1042 -49 -1955 -52 -2027 l-6 -133 -137 -79 c-850 -491
-1899 -1005 -2979 -1460 -248 -104 -809 -331 -954 -385 l-67 -25 -5 32 c-7 47
-141 1417 -176 1797 -84 932 -157 2039 -134 2059 5 4 117 53 249 108 1324 555
2705 1219 3900 1878 149 82 299 166 335 187 l65 37 3 -46 c2 -26 -17 -900 -42
-1943z m-22685 688 c0 -13 73 -1012 162 -2220 89 -1209 160 -2198 156 -2198
-3 0 -141 -16 -305 -35 -3676 -433 -7923 -674 -11881 -675 l-793 0 0 98 c0 53
18 1015 40 2137 22 1122 40 2065 40 2096 l0 56 698 6 c3324 32 6754 222 10002
552 408 42 1444 157 1650 184 80 10 164 19 188 20 37 1 42 -2 43 -21z m-25091
-153 c3039 -300 5953 -480 9015 -555 763 -19 1542 -30 2107 -30 l557 0 -5
-147 c-3 -82 -20 -989 -39 -2018 -19 -1028 -38 -1948 -41 -2044 l-6 -174 -482
7 c-3611 50 -7612 307 -11331 726 -242 28 -447 50 -455 50 -13 0 -10 250 31
2122 26 1168 47 2124 48 2126 0 1 11 0 24 -3 12 -3 272 -30 577 -60z m42500
-2065 c41 -530 76 -914 170 -1870 43 -443 83 -852 87 -909 l9 -103 -26 -10
c-14 -5 -115 -41 -225 -80 -2704 -949 -5825 -1745 -9324 -2378 -155 -28 -286
-49 -289 -46 -7 8 -383 3454 -380 3480 3 17 45 28 328 87 2915 613 5688 1388
8230 2299 268 96 1034 382 1255 469 l100 39 17 -292 c10 -160 31 -469 48 -686z
m-59829 399 c2572 -794 5596 -1540 8589 -2118 615 -119 1476 -277 1913 -352
l67 -11 0 -357 c0 -370 10 -985 35 -2245 8 -407 15 -794 15 -861 0 -121 0
-122 -22 -118 -13 2 -225 35 -473 74 -2872 448 -5621 1008 -8090 1649 -637
166 -1542 417 -2040 567 l-160 48 2 45 c1 25 5 407 9 850 6 745 4 1015 -22
2518 -4 233 -3 362 3 362 6 0 84 -23 174 -51z m49029 -2487 c0 -11 83 -784
185 -1720 102 -935 185 -1709 185 -1719 0 -17 -32 -24 -322 -72 -3347 -547
-7032 -952 -10798 -1185 -797 -50 -960 -59 -965 -54 -7 7 -53 464 -74 743 -40
514 -61 1034 -61 1505 0 303 18 926 28 1005 l7 50 200 12 c1775 109 4047 322
5900 554 1865 233 3998 568 5485 863 209 41 230 43 230 18z m-37160 -211
c3033 -488 6310 -871 9531 -1112 l436 -33 6 -675 c4 -372 13 -955 21 -1296 8
-341 18 -797 22 -1013 l7 -393 -64 6 c-35 3 -253 17 -484 30 -2791 167 -5798
452 -8505 806 -442 57 -1312 176 -1351 185 l-27 5 -6 287 c-17 763 -56 2962
-56 3218 l0 61 78 -12 c42 -7 219 -36 392 -64z m11040 -1216 c1082 -71 2782
-148 4080 -185 3107 -87 6353 -49 9248 108 l132 7 -7 -160 c-5 -88 -8 -486 -7
-885 0 -755 8 -977 54 -1560 20 -246 55 -608 65 -666 l5 -30 -272 -12 c-1673
-74 -2836 -109 -4448 -133 -872 -13 -3824 -6 -4550 10 -1490 34 -2370 62
-3490 111 -812 36 -915 41 -957 46 l-43 5 0 297 c0 163 -7 583 -15 932 -14
620 -35 1793 -35 2018 0 61 3 112 8 112 4 0 108 -7 232 -15z"/>
<path d="M37985 52100 c-1726 -31 -3102 -149 -3678 -316 -419 -122 -757 -321
-1037 -610 -176 -182 -284 -337 -396 -569 -162 -336 -241 -682 -250 -1105 -5
-210 147 -8026 161 -8270 48 -861 561 -1642 1334 -2029 287 -144 511 -207 936
-261 1525 -194 4391 -232 6735 -90 409 25 700 52 818 76 474 95 938 356 1322
743 215 217 353 407 470 646 121 247 172 440 190 722 50 781 94 2194 120 3863
14 881 33 4282 25 4520 -13 433 -55 724 -145 1028 -206 694 -672 1169 -1337
1366 -222 66 -428 98 -973 150 -1117 107 -2841 162 -4295 136z m2235 -849
c1255 -46 2281 -124 2660 -201 252 -51 456 -155 611 -309 204 -205 322 -493
386 -946 17 -122 18 -235 17 -1875 -2 -2984 -44 -5155 -129 -6687 -17 -294
-29 -365 -85 -494 -77 -174 -184 -324 -349 -490 -257 -257 -576 -442 -869
-504 -148 -31 -1034 -86 -1847 -115 -1190 -42 -2770 -38 -3820 10 -699 32
-1368 87 -1775 146 -385 56 -673 197 -936 459 -228 228 -380 508 -437 810 -9
44 -18 94 -21 110 -3 17 -44 1891 -91 4165 -88 4307 -88 4253 -50 4470 101
583 435 977 984 1160 140 47 296 79 576 119 669 96 1530 152 2835 185 265 7
2079 -4 2340 -13z"/>
<path d="M35435 49950 c-555 -60 -1021 -432 -1194 -955 -75 -227 -78 -287 -62
-1395 12 -831 15 -882 60 -1045 30 -108 88 -237 150 -335 221 -351 570 -571
981 -619 111 -13 1416 -35 1675 -28 260 6 385 36 585 138 292 149 518 414 624
730 60 181 59 170 63 854 2 347 0 862 -5 1145 -9 505 -10 517 -35 611 -111
423 -418 729 -834 835 -92 23 -193 34 -518 55 -212 13 -1381 21 -1490 9z
m1121 -830 c153 -6 372 -17 485 -24 203 -13 208 -14 268 -46 72 -38 104 -73
140 -150 l26 -55 0 -1061 0 -1060 -38 -76 c-61 -124 -176 -213 -309 -239 -36
-6 -270 -6 -718 0 -863 14 -967 18 -1046 42 -74 23 -170 85 -220 142 -51 59
-101 166 -113 245 -5 37 -14 441 -20 913 -11 942 -12 921 54 1056 63 128 178
231 315 281 46 17 98 27 175 32 173 11 695 11 1001 0z"/>
<path d="M40315 49830 c-369 -22 -666 -147 -916 -388 -210 -201 -338 -426
-407 -716 l-27 -111 3 -660 c4 -933 15 -1327 40 -1435 59 -253 164 -453 332
-633 197 -210 469 -356 752 -402 104 -17 726 -33 1458 -37 381 -3 446 -1 520
14 343 70 638 266 825 548 81 121 137 245 179 400 l31 115 -1 1120 c-1 1112
-1 1121 -23 1223 -53 253 -156 440 -338 613 -161 154 -353 253 -568 294 -225
43 -1448 79 -1860 55z m1460 -854 c149 -10 258 -22 288 -32 64 -21 148 -99
178 -166 l24 -53 7 -1005 c5 -638 5 -1029 -2 -1070 -21 -140 -116 -268 -247
-332 -67 -33 -70 -33 -233 -37 -262 -5 -1519 18 -1580 30 -169 33 -312 160
-371 330 -22 62 -23 83 -30 574 -15 1080 -15 1294 5 1359 65 219 245 383 455
416 94 15 1234 4 1506 -14z"/>
<path d="M35620 45000 c-223 -8 -327 -23 -480 -72 -216 -69 -388 -175 -556
-342 -219 -220 -349 -474 -400 -786 -14 -83 -15 -187 -9 -810 8 -870 18 -1200
39 -1295 104 -466 421 -829 859 -984 179 -63 246 -71 657 -82 206 -5 625 -10
930 -12 614 -2 619 -2 810 65 390 137 695 467 804 869 48 178 49 210 43 1324
-6 880 -9 1054 -22 1130 -92 528 -509 907 -1049 955 -181 16 -469 30 -826 40
-361 10 -483 10 -800 0z m1225 -850 c326 -19 399 -27 447 -48 65 -28 120 -82
154 -149 l29 -58 0 -1065 0 -1065 -32 -68 c-59 -124 -184 -221 -318 -246 -84
-16 -1639 11 -1725 30 -188 41 -344 214 -370 409 -14 105 -31 1729 -19 1805
13 85 75 209 140 279 102 112 223 172 374 186 121 11 1081 4 1320 -10z"/>
<path d="M40405 45000 c-152 -6 -238 -14 -312 -29 -605 -126 -1047 -604 -1123
-1214 -17 -137 5 -1854 25 -1991 29 -192 107 -390 216 -552 68 -101 217 -255
317 -327 154 -111 327 -186 520 -227 112 -24 404 -34 1342 -45 612 -8 653 -5
847 60 429 144 733 479 846 935 20 82 21 111 24 925 2 462 0 982 -6 1155 -8
288 -11 323 -35 413 -110 424 -454 750 -881 836 -120 24 -488 47 -965 61 -364
11 -495 10 -815 0z m1315 -855 c155 -9 297 -22 326 -30 98 -28 182 -112 208
-209 12 -41 15 -241 20 -1043 3 -647 2 -1013 -5 -1054 -13 -82 -68 -186 -129
-243 -58 -54 -148 -101 -221 -114 -58 -11 -1180 1 -1542 17 l-198 8 -83 41
c-130 65 -208 152 -257 288 -21 56 -22 83 -29 579 -5 286 -9 698 -11 915 -2
379 -1 398 19 460 57 175 202 324 367 376 28 9 88 20 135 24 139 14 1093 4
1400 -15z"/>
<path d="M50310 35920 c-1193 -35 -2113 -116 -2560 -226 -907 -223 -1454 -879
-1515 -1814 -3 -52 26 -1555 65 -3340 54 -2490 74 -3267 85 -3338 87 -559 389
-1031 870 -1357 199 -136 509 -265 753 -314 276 -57 973 -118 1717 -151 746
-33 2385 -38 3160 -10 940 33 1536 72 1729 111 399 81 847 335 1157 655 290
301 457 622 498 959 20 168 59 1035 81 1795 31 1111 54 3229 47 4370 -5 793
-6 825 -63 1093 -174 824 -712 1310 -1574 1421 -446 57 -1064 101 -1955 137
-331 13 -2119 20 -2495 9z m2320 -840 c1035 -33 1971 -105 2222 -169 423 -109
626 -372 694 -902 15 -124 16 -266 11 -1829 -7 -1904 -21 -2793 -62 -3900 -30
-795 -49 -1100 -75 -1183 -94 -301 -487 -651 -868 -771 -107 -34 -171 -42
-437 -61 -1374 -94 -3312 -108 -4675 -35 -604 33 -1148 87 -1332 134 -497 127
-874 557 -903 1029 -13 203 -136 6205 -132 6387 4 161 10 213 30 300 93 393
346 655 754 779 379 116 1373 201 2694 231 437 10 1641 4 2079 -10z"/>
<path d="M48640 34253 c-211 -17 -449 -104 -630 -232 -89 -63 -224 -200 -288
-294 -109 -158 -183 -357 -201 -538 -10 -107 5 -1394 19 -1515 52 -473 412
-864 897 -975 112 -25 440 -37 1168 -41 468 -3 527 -1 594 15 241 57 422 156
582 316 134 136 223 293 282 501 22 74 22 83 22 980 l0 905 -27 96 c-49 179
-121 310 -239 434 -96 101 -173 158 -294 216 -181 89 -290 106 -795 129 -207
9 -985 11 -1090 3z m936 -833 c391 -15 548 -26 582 -44 16 -8 42 -30 59 -49
l30 -34 6 -543 c10 -756 9 -1029 -3 -1072 -17 -61 -69 -119 -139 -155 l-63
-33 -341 1 c-188 0 -508 4 -712 8 -346 8 -374 9 -426 30 -73 28 -143 90 -176
155 l-26 51 -9 590 c-12 749 -10 815 20 877 38 77 96 134 179 175 68 33 86 38
182 43 175 11 541 11 837 0z"/>
<path d="M52740 34160 c-267 -10 -432 -48 -614 -143 -303 -157 -522 -430 -614
-764 l-27 -98 3 -720 c1 -396 7 -768 12 -826 49 -510 407 -900 930 -1014 89
-19 545 -33 1215 -36 482 -2 509 0 702 73 383 144 657 495 702 898 13 119 4
1632 -10 1745 -42 319 -244 597 -544 747 -85 43 -206 82 -300 97 -98 15 -362
30 -755 41 -359 10 -400 10 -700 0z m1115 -850 c110 -6 217 -16 238 -21 22 -6
54 -26 76 -48 37 -37 38 -40 44 -131 4 -51 7 -415 7 -808 0 -703 0 -716 -21
-758 -23 -49 -70 -93 -132 -126 l-42 -23 -585 3 c-707 4 -856 10 -923 40 -77
34 -123 77 -156 145 l-31 62 -10 681 c-11 740 -11 724 44 818 51 88 173 162
290 177 86 11 962 3 1201 -11z"/>
<path d="M48710 30390 c-80 -4 -178 -15 -218 -24 -262 -57 -476 -177 -655
-367 -181 -191 -288 -419 -316 -674 -11 -104 5 -1413 19 -1525 36 -285 187
-555 409 -730 200 -157 405 -238 662 -260 64 -6 440 -12 835 -13 709 -2 720
-2 794 20 217 62 366 143 510 280 138 131 222 258 284 431 55 153 56 175 56
1049 0 502 -4 840 -11 901 -52 472 -433 835 -927 882 -309 29 -1157 47 -1442
30z m1220 -850 c206 -12 255 -27 296 -88 21 -31 22 -40 29 -744 8 -809 7 -878
-18 -929 -25 -50 -72 -96 -132 -127 l-50 -27 -510 3 c-280 2 -607 7 -725 11
-191 6 -221 10 -264 29 -75 34 -131 85 -162 148 l-28 56 -8 587 c-5 322 -8
642 -6 711 3 116 5 129 32 178 55 98 164 178 278 202 58 12 1033 5 1268 -10z"/>
<path d="M52675 30390 c-77 -4 -175 -15 -218 -24 -453 -97 -809 -419 -931
-840 -49 -168 -50 -194 -39 -991 12 -787 12 -791 64 -950 93 -282 320 -533
601 -665 87 -40 222 -83 317 -100 78 -14 940 -32 1331 -28 318 4 327 5 425 32
388 106 682 389 789 759 44 153 47 231 38 1117 -10 941 -6 897 -102 1095 -158
326 -459 529 -839 565 -305 28 -1155 46 -1436 30z m1215 -849 c192 -13 241
-25 286 -72 24 -26 30 -41 36 -107 3 -42 7 -406 7 -808 l1 -732 -28 -53 c-34
-66 -94 -113 -170 -135 -51 -15 -114 -16 -732 -5 -371 6 -691 15 -710 20 -99
23 -193 97 -228 179 -20 46 -21 77 -31 728 -6 373 -7 695 -2 715 21 91 90 178
184 233 91 54 125 56 692 52 286 -2 599 -9 695 -15z"/>
<path d="M25501 35800 c-1199 -28 -2136 -100 -2676 -206 -274 -55 -589 -181
-795 -319 -492 -331 -774 -841 -821 -1484 -15 -204 124 -6575 146 -6719 100
-641 501 -1184 1092 -1481 310 -156 531 -206 1168 -265 1222 -115 3255 -135
4955 -51 845 42 1007 62 1275 155 204 71 491 233 680 384 94 76 273 254 348
346 218 270 345 564 371 860 18 198 57 1112 76 1760 40 1424 66 4694 40 5040
-55 718 -306 1219 -765 1525 -261 175 -540 267 -955 315 -493 58 -1209 104
-2020 130 -437 14 -1680 20 -2119 10z m2274 -849 c1051 -44 1809 -105 2053
-166 132 -33 298 -117 380 -190 176 -160 273 -394 312 -754 15 -134 8 -3080
-9 -3936 -32 -1599 -80 -2789 -117 -2915 -82 -281 -404 -596 -769 -750 -137
-58 -234 -77 -475 -95 -1432 -102 -3513 -115 -4910 -30 -424 26 -859 67 -1055
101 -257 43 -497 166 -681 349 -186 185 -296 407 -324 654 -15 130 -143 6170
-137 6431 7 265 32 379 122 560 134 268 383 455 727 544 361 94 1273 172 2393
206 357 11 2173 4 2490 -9z"/>
<path d="M23670 34131 c-332 -21 -595 -131 -816 -343 -146 -140 -237 -277
-298 -449 -69 -193 -70 -203 -67 -709 1 -250 6 -606 11 -790 7 -287 11 -347
29 -418 82 -328 295 -593 601 -749 89 -45 227 -90 330 -109 96 -17 676 -33
1258 -34 381 0 454 8 624 70 334 122 588 399 686 747 l27 98 0 885 c0 962 1
942 -57 1110 -67 193 -204 370 -381 489 -74 50 -223 117 -310 140 -94 24 -216
37 -482 51 -263 14 -996 20 -1155 11z m1235 -851 c201 -13 251 -28 291 -87 21
-31 21 -41 28 -810 4 -428 4 -791 0 -808 -19 -79 -72 -144 -154 -186 l-45 -24
-490 3 c-269 2 -596 7 -725 11 -211 7 -240 10 -284 29 -75 34 -131 85 -163
149 l-28 58 -8 560 c-4 308 -6 628 -5 710 3 140 5 153 30 200 52 100 151 174
268 202 69 16 1009 11 1285 -7z"/>
<path d="M27585 34030 c-564 -44 -1027 -452 -1120 -988 -17 -98 -19 -432 -5
-1157 9 -472 12 -503 61 -655 110 -337 396 -615 747 -724 169 -53 199 -55 972
-68 660 -11 734 -10 830 5 302 47 562 200 742 437 65 85 152 264 178 365 35
140 38 244 30 1095 -7 793 -8 828 -28 905 -51 195 -119 312 -267 460 -119 119
-198 171 -349 231 -148 59 -256 72 -771 94 -264 11 -878 11 -1020 0z m1130
-841 c360 -16 405 -26 452 -104 17 -28 18 -74 21 -814 3 -583 1 -795 -8 -824
-16 -54 -89 -130 -153 -158 l-52 -24 -400 4 c-220 1 -542 6 -715 10 -310 7
-316 7 -371 33 -74 34 -133 88 -164 151 l-25 52 -10 683 c-12 792 -15 763 83
870 91 98 158 123 357 133 182 8 660 3 985 -12z"/>
<path d="M23610 30263 c-149 -12 -356 -73 -490 -145 -216 -115 -394 -295 -505
-510 -72 -138 -105 -255 -129 -448 -2 -19 0 -348 5 -730 10 -760 14 -818 71
-979 143 -409 504 -698 949 -760 122 -17 1459 -36 1561 -22 442 59 797 341
933 741 54 158 55 177 55 1039 0 457 -5 836 -10 891 -26 243 -125 447 -298
612 -190 181 -399 267 -696 288 -304 21 -598 30 -991 28 -225 -1 -430 -3 -455
-5z m1195 -843 c281 -14 316 -21 369 -70 l41 -39 9 -788 c6 -581 5 -799 -3
-830 -18 -66 -68 -123 -141 -162 l-65 -33 -665 6 c-366 4 -696 11 -733 17 -37
5 -86 18 -108 30 -60 30 -124 93 -150 147 l-23 47 -9 695 c-9 691 -9 695 12
750 31 83 98 152 188 197 67 33 86 38 182 44 141 10 821 3 1096 -11z"/>
<path d="M27575 30263 c-553 -50 -996 -437 -1105 -963 -22 -104 -22 -112 -16
-805 4 -385 11 -744 17 -798 26 -253 137 -486 319 -667 185 -185 422 -303 685
-339 39 -6 384 -15 768 -22 756 -12 811 -10 977 38 47 13 130 46 185 72 345
165 578 496 613 868 6 58 7 433 3 923 l-8 825 -25 95 c-97 362 -369 624 -745
721 -142 36 -643 59 -1218 57 -225 -1 -428 -3 -450 -5z m931 -833 c463 -17
549 -25 600 -55 84 -49 78 10 82 -882 l4 -793 -22 -45 c-28 -59 -99 -120 -163
-141 -47 -16 -104 -16 -708 -10 -362 4 -685 11 -719 16 -108 15 -197 72 -248
158 -26 45 -27 52 -33 257 -4 115 -8 437 -10 715 l-4 505 27 57 c34 73 101
139 184 179 55 27 79 33 172 39 168 11 533 11 838 0z"/>
<path d="M36246 26144 c-463 -87 -854 -415 -998 -838 -107 -315 -84 -642 66
-951 71 -144 157 -264 270 -373 185 -179 381 -281 631 -328 132 -24 373 -15
511 20 260 65 462 182 644 372 137 142 219 280 278 464 45 143 57 227 56 400
-1 226 -40 392 -137 585 -56 113 -109 187 -201 283 -170 177 -351 280 -608
347 -87 23 -129 28 -268 31 -118 2 -188 -1 -244 -12z m325 -832 c87 -24 147
-60 202 -122 64 -71 89 -141 95 -266 5 -124 -11 -186 -68 -266 -45 -63 -129
-124 -218 -159 -44 -18 -78 -23 -152 -23 -84 -1 -102 2 -157 28 -41 18 -81 48
-116 85 -98 103 -137 198 -137 335 0 106 35 183 118 265 123 121 280 165 433
123z"/>
</g>
</svg>
