<?xml version="1.0" standalone="no"?>
<!DOCTYPE svg PUBLIC "-//W3C//DTD SVG 20010904//EN"
 "http://www.w3.org/TR/2001/REC-SVG-20010904/DTD/svg10.dtd">
<svg version="1.0" xmlns="http://www.w3.org/2000/svg"
 width="1024.000000pt" height="768.000000pt" viewBox="0 0 1024.000000 768.000000"
 preserveAspectRatio="xMidYMid meet">

<g transform="translate(0.000000,768.000000) scale(0.100000,-0.100000)"
fill="#000000" stroke="none">
<path d="M746 7518 c-9 -218 -15 -4779 -7 -5371 5 -366 9 -469 19 -476 9 -5
12 -32 10 -96 l-3 -88 -50 -13 c-171 -45 -346 -87 -436 -104 -182 -36 -239
-54 -239 -76 0 -7 4 -15 8 -18 14 -8 573 111 582 124 6 9 128 40 156 40 11 0
40 6 65 14 112 34 157 45 199 48 25 2 48 7 51 12 7 8 95 29 424 96 l150 31
398 -1 c273 0 397 3 392 10 -4 6 -127 10 -358 11 -308 1 -345 3 -292 14 33 7
103 25 155 40 57 16 132 29 187 32 106 7 116 23 13 23 l-68 0 -4 60 -3 60 187
0 c102 0 193 3 202 6 13 5 16 -1 16 -28 0 -18 8 -50 19 -70 16 -32 16 -38 3
-52 -19 -18 -28 -107 -13 -133 16 -32 74 -55 105 -43 14 5 26 6 26 2 0 -5 15
-25 34 -45 39 -43 90 -51 120 -18 14 16 23 18 45 10 l28 -10 -16 -106 -16
-106 -39 -14 c-50 -17 -73 -37 -86 -77 l-10 -32 -65 4 c-44 3 -65 1 -65 -7 0
-7 22 -11 60 -11 62 0 66 -3 51 -42 -5 -13 -22 -63 -36 -113 -15 -49 -36 -99
-46 -111 -31 -33 -41 -82 -24 -118 8 -17 14 -38 13 -46 -4 -53 -1 -57 80 -73
42 -9 122 -21 177 -28 54 -7 120 -18 145 -25 41 -11 28 -12 -135 -14 -223 -1
-512 -9 -755 -20 -123 -5 117 -7 711 -6 l896 1 -46 -62 c-31 -42 -55 -65 -73
-69 -34 -8 -52 -29 -44 -50 8 -21 -11 -53 -38 -64 -12 -4 -115 -10 -227 -11
-286 -4 -301 -17 -21 -18 129 -1 232 -5 232 -10 0 -5 -47 -68 -105 -141 -58
-73 -105 -134 -105 -136 0 -19 35 17 134 140 l115 145 633 3 c887 4 902 4
1008 6 66 2 90 5 80 12 -9 6 -327 10 -847 10 -457 0 -834 4 -837 8 -3 5 8 23
24 40 l29 32 150 0 c89 0 152 4 156 10 4 6 -14 10 -47 10 -86 0 -248 13 -248
19 0 3 49 62 108 131 l108 125 270 1 c235 1 281 3 362 22 52 11 105 28 119 37
23 15 24 20 18 67 -12 84 -49 151 -154 274 -14 17 -44 41 -66 52 l-40 21 42 1
c23 0 45 4 48 10 4 6 -15 10 -50 10 -53 0 -115 21 -115 39 0 5 -19 26 -42 47
-23 22 -58 55 -77 75 -27 27 -48 38 -82 43 l-46 7 -2 87 c-1 48 -4 101 -7 118
l-6 31 271 1 c171 0 271 -3 271 -10 0 -5 6 -3 13 4 11 11 120 12 588 8 l575
-5 35 -28 c19 -15 42 -35 52 -44 9 -9 17 -12 17 -7 0 6 -16 25 -35 44 -19 19
-35 36 -35 39 0 4 63 6 140 6 78 0 148 3 158 7 9 4 -57 7 -147 7 l-163 1 -39
31 c-43 33 -52 29 -17 -8 l22 -24 -671 2 -672 1 59 68 c59 69 64 78 74 140 l6
35 703 2 c386 1 712 5 725 8 18 5 22 1 22 -21 0 -14 9 -38 19 -53 11 -14 31
-52 46 -84 51 -106 128 -148 163 -87 13 22 25 30 52 32 26 2 40 11 56 35 12
18 24 30 27 26 11 -11 54 7 80 33 30 30 34 59 12 91 -20 28 -6 33 96 33 69 0
79 -2 79 -17 0 -10 3 -35 6 -56 l7 -37 -77 6 c-51 3 -76 2 -76 -5 0 -7 33 -11
90 -11 l90 0 0 -29 c0 -22 -9 -35 -39 -55 -22 -15 -42 -34 -45 -42 -4 -11 -35
-14 -148 -15 -121 -1 -135 -3 -93 -11 27 -5 90 -8 138 -6 l88 3 -5 -30 c-3
-16 -8 -65 -12 -107 -6 -66 -10 -80 -30 -93 -15 -9 -24 -25 -24 -40 0 -18 -5
-25 -18 -25 -10 0 -59 -38 -109 -84 -51 -47 -101 -90 -113 -96 -25 -13 -51 -6
-75 20 -23 26 -38 26 -30 0 6 -18 2 -20 -39 -20 -78 0 -62 -19 19 -22 l76 -3
-95 -85 c-114 -102 -166 -181 -166 -253 0 -35 5 -49 18 -56 34 -18 216 -43
361 -48 l144 -6 31 -36 c17 -19 39 -43 49 -53 9 -10 17 -20 17 -23 0 -3 -30
-5 -67 -5 -74 0 -113 -7 -113 -21 0 -5 49 -9 109 -9 l108 0 104 -106 c57 -58
105 -108 106 -112 2 -4 -94 -9 -213 -11 -119 -2 -228 -7 -242 -11 -21 -5 -14
-7 28 -8 275 -4 454 -14 478 -26 15 -8 56 -45 92 -82 86 -90 161 -157 168
-149 3 3 -25 38 -64 78 -38 40 -89 94 -114 120 l-45 48 450 -2 c472 -1 705 6
705 22 0 5 -228 9 -594 9 l-593 0 -111 112 c-61 62 -110 113 -109 114 1 1 358
5 792 9 435 4 793 9 797 11 4 3 169 4 366 4 l359 0 94 -44 c52 -24 173 -76
269 -115 96 -40 179 -76 184 -81 5 -5 -100 -7 -250 -5 -329 6 -994 -5 -994
-16 0 -5 292 -9 648 -9 l649 0 95 -45 c52 -25 110 -47 129 -50 34 -6 34 -6
-11 19 -25 14 -72 35 -105 48 l-60 23 55 7 c30 3 134 7 230 8 96 1 186 6 200
10 14 4 -96 8 -250 9 l-274 1 -191 81 c-243 103 -348 149 -357 158 -4 3 92 5
214 3 124 -2 225 1 230 6 12 12 -167 23 -357 22 l-150 -1 -145 59 c-159 65
-201 80 -185 65 10 -9 225 -106 255 -115 23 -7 -1479 -23 -1905 -21 l-380 3
-52 52 c-65 65 -76 61 187 83 107 10 205 21 217 26 20 8 22 5 25 -39 4 -66 22
-72 253 -89 203 -15 276 -12 480 17 208 30 295 65 295 117 -1 37 -32 157 -70
268 -16 49 -30 93 -30 97 0 4 27 8 60 8 33 0 60 4 60 10 0 6 -28 10 -63 10
l-64 0 -18 40 c-14 32 -29 45 -67 63 -43 19 -49 26 -55 59 -6 38 -32 78 -50
78 -12 0 -23 47 -23 97 0 19 -9 71 -21 115 l-20 81 42 44 c24 23 47 43 52 43
4 0 5 -38 1 -84 -7 -83 -6 -85 21 -110 35 -33 89 -35 121 -5 20 18 26 19 62 8
35 -10 45 -9 66 5 14 9 32 16 41 16 8 0 33 16 55 36 37 33 40 40 40 88 0 30
-6 61 -15 73 -22 31 -3 38 59 24 28 -6 96 -20 151 -31 129 -26 456 -112 450
-119 -3 -3 -103 -8 -223 -11 l-217 -7 225 3 c124 2 245 4 269 5 24 1 46 -3 50
-8 3 -5 41 -16 84 -23 42 -7 77 -16 77 -21 0 -4 -26 -10 -57 -12 l-58 -3 62
-2 c34 -1 65 3 68 8 7 12 21 9 165 -31 58 -17 121 -34 140 -39 19 -5 105 -27
190 -49 171 -45 563 -137 628 -147 34 -5 43 -3 48 10 10 27 -6 35 -117 57 -87
16 -431 101 -623 152 l-50 13 -2 670 c-7 2018 -16 3386 -24 3679 -5 182 -10
653 -10 1048 l0 717 -22 0 -21 0 7 -1307 c4 -719 9 -1310 11 -1313 1 -3 6
-787 10 -1742 6 -1562 6 -1738 -8 -1738 -9 0 -62 12 -119 26 -57 14 -139 33
-183 43 -44 10 -132 30 -195 46 l-115 28 3 366 c1 203 -1 384 -7 406 -9 39 -9
38 -12 -30 -1 -38 -4 -99 -5 -135 -2 -36 -3 -134 -3 -219 -1 -132 -3 -152 -16
-147 -9 3 -15 0 -15 -9 0 -8 6 -15 14 -15 12 0 15 -21 18 -101 2 -56 1 -102
-2 -104 -3 -1 -79 15 -170 36 -221 52 -389 90 -422 96 -23 4 -29 12 -33 42
-27 170 -41 205 -88 214 -24 4 -13 11 33 21 22 5 25 10 26 53 2 51 22 146 54
252 24 76 25 126 5 165 -9 16 -20 61 -25 100 -6 39 -14 85 -19 101 -18 59 -21
105 -7 105 35 0 64 40 75 103 21 119 15 190 -21 260 -17 34 -32 67 -32 74 -1
7 -9 18 -20 26 -17 13 -18 48 -24 760 -3 411 -9 750 -14 753 -24 15 -30 -60
-25 -310 l4 -259 -29 63 c-15 35 -45 89 -65 119 -41 62 -147 189 -173 208 -16
11 -16 17 -5 51 21 60 23 96 4 100 -11 2 -20 -13 -34 -58 -10 -33 -20 -60 -21
-60 -23 0 -100 44 -141 79 -51 44 -53 48 -53 98 0 60 -12 76 -77 104 -86 37
-198 52 -325 45 -152 -8 -190 -20 -203 -63 -8 -28 -14 -33 -41 -33 -30 0 -64
-21 -64 -40 0 -4 -12 -11 -27 -15 -39 -9 -90 -42 -144 -93 -39 -35 -57 -44
-105 -52 -33 -6 -62 -10 -65 -10 -4 0 -9 13 -12 29 -7 33 -23 42 -54 30 -19
-7 -23 -16 -23 -48 0 -38 -2 -41 -47 -61 -161 -71 -200 -167 -210 -520 -5
-210 5 -299 47 -385 46 -95 160 -135 384 -135 72 0 127 -4 131 -10 3 -5 19
-10 36 -10 22 0 29 -5 29 -20 0 -11 -4 -20 -8 -20 -5 0 -29 -15 -53 -34 -31
-23 -59 -35 -94 -40 -96 -12 -220 -87 -356 -216 -59 -57 -69 -91 -69 -248 l0
-122 34 -17 c42 -19 51 -47 29 -88 -8 -16 -28 -55 -43 -85 -15 -30 -40 -66
-55 -80 -50 -47 -67 -94 -60 -169 10 -97 7 -225 -4 -229 -5 -2 -15 -20 -22
-40 -7 -20 -23 -51 -36 -69 -34 -44 -54 -126 -46 -190 l6 -53 -244 4 c-135 3
-252 8 -261 11 -9 4 -19 2 -23 -4 -4 -8 -151 -11 -466 -11 l-459 0 0 75 c0 67
-5 86 -44 176 -36 81 -43 106 -36 125 5 13 7 44 4 68 -5 30 -1 58 11 91 17 44
17 49 1 100 -10 32 -32 70 -52 92 -25 26 -47 68 -70 132 -41 112 -42 137 -9
171 46 48 44 230 -2 328 -25 52 -170 201 -218 223 -22 10 -55 19 -72 19 -25 0
-44 11 -79 45 -33 33 -56 47 -85 51 -38 6 -40 9 -34 33 4 14 7 27 8 27 2 2
202 22 267 28 82 7 174 40 193 69 23 37 28 75 28 214 -1 104 3 141 15 165 38
73 26 191 -25 251 -17 20 -34 58 -45 102 -48 194 -121 258 -394 346 -52 16
-72 28 -72 40 0 9 5 63 11 120 7 71 15 106 25 114 20 14 15 74 -7 88 -9 5 -27
7 -42 3 -33 -8 -47 -59 -23 -85 17 -19 20 -64 9 -174 l-6 -69 -36 7 c-20 3
-52 19 -71 34 -69 55 -172 96 -270 107 -55 6 -60 9 -60 30 0 13 -4 24 -9 24
-23 0 -41 -14 -41 -30 0 -15 -13 -21 -57 -30 -32 -6 -89 -22 -128 -35 -38 -13
-73 -21 -76 -17 -4 4 -9 66 -13 138 -5 110 -4 134 9 144 20 16 19 64 -1 84
-29 30 -75 13 -88 -30 -5 -15 1 -31 19 -52 24 -29 25 -35 25 -166 0 -84 -4
-136 -10 -136 -19 0 -50 -40 -50 -65 0 -22 -10 -30 -65 -55 -96 -43 -197 -106
-240 -148 -43 -43 -69 -88 -61 -107 3 -8 -12 -27 -35 -46 -52 -41 -78 -94 -95
-193 -21 -118 -6 -187 57 -266 19 -23 33 -60 43 -109 11 -52 23 -83 41 -101
25 -26 83 -50 121 -50 10 0 27 -9 39 -20 20 -19 63 -30 178 -45 l47 -6 0 -48
0 -48 -51 -7 -50 -7 6 -43 7 -42 -43 -13 c-23 -7 -55 -25 -70 -40 -19 -19 -46
-32 -85 -40 -185 -37 -250 -139 -239 -373 6 -112 18 -148 50 -148 30 0 -10
-261 -53 -347 -36 -70 -27 -168 22 -237 22 -32 59 -138 70 -198 4 -23 13 -38
21 -38 18 0 28 -35 17 -57 -5 -10 -13 -40 -17 -68 -13 -90 0 -85 -225 -85
-111 0 -201 4 -205 9 -5 9 -16 3484 -15 4994 l0 747 -21 0 -21 0 8 -2955 c4
-1752 3 -2955 -2 -2955 -5 0 -74 -16 -154 -35 -196 -48 -436 -100 -545 -120
-49 -9 -98 -19 -107 -21 -16 -5 -18 4 -18 83 -1 68 -3 84 -11 69 -6 -10 -9
-48 -7 -87 3 -64 2 -70 -17 -74 -11 -2 -72 -15 -135 -29 -227 -51 -245 -54
-250 -49 -13 13 -18 943 -19 3413 -1 1482 -1 2710 -1 2728 0 20 -5 32 -13 32
-11 0 -16 -36 -21 -162z m2244 -2198 c0 -11 -4 -20 -10 -20 -5 0 -10 9 -10 20
0 11 5 20 10 20 6 0 10 -9 10 -20z m811 -147 c-12 -20 -14 -14 -5 12 4 9 9 14
11 11 3 -2 0 -13 -6 -23z m3452 -140 c-13 -2 -33 -2 -45 0 -13 2 -3 4 22 4 25
0 35 -2 23 -4z m92 -13 c14 -7 8 -8 -20 -3 -22 3 -42 7 -44 9 -9 8 45 2 64 -6z
m-3845 -28 c30 -11 70 -28 88 -40 l34 -20 -170 6 c-105 3 -212 0 -282 -8 -61
-6 -114 -9 -118 -5 -23 23 68 67 178 85 78 13 206 4 270 -18z m3739 -16 c9 -8
39 -21 66 -30 l50 -15 -60 7 c-33 4 -126 7 -208 7 -127 0 -147 2 -147 16 0 9
3 19 7 22 3 4 67 7 141 7 102 0 139 -3 151 -14z m-4212 -58 c-3 -8 -6 -5 -6 6
-1 11 2 17 5 13 3 -3 4 -12 1 -19z m-47 -3 c0 -8 -7 -15 -15 -15 -8 0 -15 7
-15 15 0 8 7 15 15 15 8 0 15 -7 15 -15z m4407 9 c-3 -3 -12 -4 -19 -1 -8 3
-5 6 6 6 11 1 17 -2 13 -5z m-269 -45 c-40 -50 -60 -51 -22 -1 28 36 28 37 4
21 -14 -9 -29 -26 -35 -37 -8 -19 -18 -22 -70 -23 -33 0 -98 -4 -145 -9 -47
-4 -87 -6 -89 -4 -2 2 4 10 13 19 8 9 22 26 31 38 18 26 78 34 242 35 l102 0
-31 -39z m309 35 c-3 -3 -12 -4 -19 -1 -8 3 -5 6 6 6 11 1 17 -2 13 -5z
m-3777 -22 c20 -5 -38 -6 -135 -4 -93 3 -179 9 -190 14 -24 10 274 2 325 -10z
m3642 7 c63 -12 108 -29 108 -39 0 -11 -82 -20 -187 -20 l-94 0 27 35 c30 39
53 43 146 24z m-3991 -15 c15 -13 54 -16 251 -18 l233 -2 135 -48 c127 -46
190 -72 190 -80 0 -2 -28 7 -62 19 -35 13 -133 32 -218 44 -85 12 -184 27
-220 33 -64 10 -320 13 -392 3 -20 -3 -63 -16 -95 -30 -53 -24 -62 -25 -106
-14 -30 7 -80 9 -130 5 -74 -6 -80 -5 -63 8 30 24 132 54 251 75 141 24 203
26 226 5z m3437 -34 c-13 -18 -31 -30 -45 -30 -32 0 -29 6 15 34 50 33 57 32
30 -4z m753 -16 c27 -15 48 -28 46 -30 -8 -8 -107 31 -107 43 0 18 3 17 61
-13z m-3871 -38 c47 -8 146 -22 220 -31 185 -22 252 -45 312 -107 55 -57 75
-111 108 -297 31 -174 32 -168 -42 -173 -65 -5 -454 8 -498 17 -14 2 -117 12
-230 20 -113 9 -211 18 -217 20 -8 3 -13 24 -13 59 0 64 -26 274 -41 330 -9
34 -8 40 10 52 25 18 17 44 -12 39 -41 -8 -42 -19 -19 -173 30 -196 41 -323
42 -463 0 -76 4 -121 13 -132 25 -35 234 -62 560 -72 195 -6 425 1 446 15 6 3
15 33 21 66 l9 59 -3 -80 c-4 -92 -17 -128 -55 -145 -31 -15 -443 -15 -587 0
-102 11 -325 45 -396 61 -43 10 -48 14 -68 62 -21 48 -22 57 -11 149 6 54 11
145 11 201 0 123 -32 345 -60 419 -11 29 -20 56 -20 59 0 9 68 41 105 50 55
13 327 10 415 -5z m3851 -15 c63 -16 136 -38 162 -48 l49 -19 -94 0 c-89 1
-97 -1 -145 -30 -43 -27 -52 -29 -68 -18 -75 55 -297 82 -521 64 -210 -16
-570 -73 -589 -92 -2 -2 -7 -23 -11 -47 -6 -35 -4 -43 7 -39 9 3 13 17 12 36
-3 28 1 32 35 41 48 14 59 14 44 -1 -16 -16 -15 -28 2 -28 13 0 22 12 25 35 2
14 37 22 181 45 251 38 480 47 632 23 l36 -5 -13 -42 c-20 -59 -41 -184 -66
-391 -12 -103 -27 -186 -34 -194 -18 -19 -201 -30 -573 -33 -296 -3 -312 -2
-312 15 0 24 -33 18 -38 -6 -6 -32 17 -48 62 -42 23 3 217 7 431 9 215 3 399
8 410 12 34 12 54 35 60 68 2 17 16 128 30 246 25 209 47 326 65 344 8 7 140
-39 140 -49 0 -1 -9 -28 -20 -61 -35 -99 -61 -231 -80 -407 -27 -239 -33 -245
-270 -271 -311 -35 -715 -37 -817 -5 -38 12 -40 17 -54 137 -20 176 4 439 49
541 27 59 100 115 185 140 233 68 437 92 853 99 106 2 137 -2 235 -27z m-1051
-12 c0 -5 -4 -9 -10 -9 -5 0 -10 7 -10 16 0 8 5 12 10 9 6 -3 10 -10 10 -16z
m-3387 -8 c17 -6 16 -8 -8 -19 -27 -12 -27 -36 0 -25 8 3 15 0 15 -7 0 -6 5
-8 11 -4 8 5 8 9 -1 14 -8 5 -9 10 -2 14 47 29 103 -230 106 -484 1 -141 -2
-153 -55 -253 -19 -37 -20 -39 -2 -35 11 2 24 21 35 53 l17 50 1 -57 c0 -45 6
-68 29 -106 l29 -49 -43 24 c-52 28 -107 83 -101 99 6 15 -10 38 -22 30 -6 -4
-7 -20 -1 -48 6 -24 6 -45 1 -50 -14 -14 -127 -28 -228 -28 l-90 0 -22 45
c-12 25 -22 47 -22 50 0 2 15 -2 33 -9 37 -16 105 -8 153 17 77 40 135 151
142 269 8 133 -22 236 -90 313 -65 75 -141 91 -256 55 -35 -11 -68 -20 -73
-20 -9 0 25 64 50 94 24 28 66 46 140 61 71 14 225 18 254 6z m4702 -108 c54
-28 143 -109 131 -120 -2 -3 -25 7 -50 22 -147 86 -313 -39 -357 -269 -14 -76
-11 -145 11 -230 34 -128 7 -172 -118 -196 -67 -12 -72 -12 -106 10 l-37 22
39 37 c44 40 45 45 62 236 18 197 67 404 112 460 39 49 84 66 173 62 65 -3 91
-9 140 -34z m-4893 -82 c34 -22 53 -44 74 -88 27 -54 29 -67 29 -173 0 -106
-2 -119 -27 -167 -45 -84 -81 -119 -138 -133 -52 -12 -120 -6 -120 10 0 6 11
10 24 10 64 0 135 55 168 130 29 66 35 174 13 240 -21 64 -79 130 -136 155
-37 17 -39 20 -23 32 30 22 86 15 136 -16z m-147 -21 c4 -6 -5 -7 -24 -4 -63
13 -138 -34 -171 -108 -29 -64 -27 -198 4 -258 33 -66 77 -92 148 -88 49 3 55
1 44 -11 -11 -10 -29 -12 -71 -6 -48 6 -65 13 -100 46 -25 23 -46 54 -53 77
-15 50 -15 179 0 223 17 50 59 106 93 123 34 17 121 21 130 6z m5099 -9 c3 -5
-9 -11 -26 -15 -17 -3 -54 -20 -81 -38 -41 -26 -46 -33 -32 -41 11 -6 20 -6
24 1 12 20 105 62 137 62 48 0 113 -54 148 -123 23 -45 30 -75 34 -137 9 -157
-33 -271 -139 -376 l-60 -59 -64 2 c-35 0 -71 6 -81 11 -16 9 -12 11 21 17 55
9 85 21 120 49 38 31 31 38 -20 20 -122 -42 -206 20 -236 174 -33 177 28 378
135 443 32 19 110 26 120 10z m-5095 -66 c67 -34 97 -175 58 -276 -24 -63 -47
-82 -101 -83 -86 -2 -146 77 -146 190 0 78 11 108 56 151 40 37 85 43 133 18z
m4843 -57 c-14 -29 -29 -87 -35 -128 -12 -92 -19 -116 -25 -75 -8 60 29 192
67 238 21 26 20 22 -7 -35z m-4708 -13 c16 -34 17 -48 8 -100 -12 -71 -28
-115 -41 -115 -6 0 -6 11 1 30 11 32 6 167 -7 209 -13 39 17 20 39 -24z m1485
-109 c1 -57 -5 -40 -12 29 -3 37 -2 51 3 35 4 -14 8 -43 9 -64z m-802 -120 c3
-3 2 -14 -2 -25 -6 -18 -14 -21 -71 -21 -65 0 -73 5 -58 43 4 11 19 14 66 11
34 -2 63 -6 65 -8z m4513 -420 l0 -345 -72 26 c-63 22 -79 24 -113 15 -22 -6
-41 -8 -43 -4 -26 72 -90 109 -213 124 -89 11 -94 14 -83 54 4 16 11 20 30 16
36 -7 74 6 74 26 0 9 5 33 10 53 l10 36 80 6 c102 8 143 29 208 109 50 60 102
167 102 208 0 11 2 20 5 20 3 0 5 -155 5 -344z m-5426 257 c22 -17 47 -49 61
-80 28 -61 22 -64 -48 -34 -39 17 -45 24 -56 64 -21 86 -15 93 43 50z m5018
-139 c10 -3 18 -10 18 -15 0 -6 -7 -6 -18 0 -13 7 -36 6 -73 -4 -30 -7 -90
-16 -134 -18 -61 -4 -69 -4 -34 3 26 4 56 13 67 19 25 14 72 73 72 91 0 7 19
-6 42 -28 23 -23 50 -44 60 -48z m-4465 -20 c36 -14 32 -14 -77 -11 -63 3
-138 0 -167 -5 -52 -11 -163 -3 -163 11 0 4 20 6 45 4 84 -6 225 13 254 35 26
20 26 20 48 0 11 -11 38 -26 60 -34z m3258 -14 c161 -9 331 -2 603 26 161 16
164 16 191 -3 14 -11 38 -24 51 -28 23 -8 21 -9 -20 -17 -43 -8 -46 -6 -72 24
-30 36 -38 23 -12 -18 9 -13 15 -27 12 -29 -11 -11 -208 -25 -453 -31 l-270
-6 -24 26 c-19 20 -34 26 -68 26 -47 0 -54 -11 -26 -42 15 -17 15 -18 -3 -18
-55 1 -144 70 -144 113 0 13 5 13 42 0 23 -8 110 -18 193 -23z m-18 -92 c-3
-8 -6 -5 -6 6 -1 11 2 17 5 13 3 -3 4 -12 1 -19z m-3357 -13 c0 -23 -24 -45
-49 -45 -6 0 -11 16 -11 35 0 32 2 35 30 35 25 0 30 -4 30 -25z m4536 -1 c-3
-9 -6 -25 -6 -35 0 -17 -6 -20 -36 -17 -24 2 -42 10 -51 25 -14 21 -13 22 29
31 64 14 71 14 64 -4z m-4436 -14 c-36 -12 -70 -12 -70 0 0 6 21 10 48 9 38
-1 42 -2 22 -9z m4300 -15 c0 -8 -9 -15 -20 -15 -20 0 -26 11 -13 23 12 13 33
7 33 -8z m-3755 -35 c4 -6 -6 -10 -22 -10 -22 0 -25 -2 -13 -11 11 -7 -26 -9
-128 -6 -79 2 -147 8 -153 14 -5 5 4 10 23 11 18 2 34 5 37 7 9 10 250 5 256
-5z m3455 -19 c0 -17 -13 -19 -166 -26 -91 -4 -168 -4 -172 0 -13 13 25 25 88
26 36 1 92 5 125 9 109 13 125 12 125 -9z m-4003 -28 c-6 -32 -20 -52 -38 -53
-3 0 -5 17 -5 38 1 35 6 41 45 51 2 1 1 -16 -2 -36z m595 30 c-6 -2 -10 -9 -6
-14 3 -5 -6 -9 -20 -9 -14 0 -27 4 -30 9 -4 5 4 7 16 3 14 -3 19 -2 14 6 -5 8
1 12 16 11 13 0 17 -3 10 -6z m-675 -45 c-3 -7 -5 -2 -5 12 0 14 2 19 5 13 2
-7 2 -19 0 -25z m4390 0 c-3 -7 -5 -2 -5 12 0 14 2 19 5 13 2 -7 2 -19 0 -25z
m-4445 -3 c-4 -23 -9 -25 -58 -25 -51 0 -54 1 -54 25 0 24 3 25 59 25 57 0 58
-1 53 -25z m4390 -11 c-4 -20 -2 -25 8 -19 9 5 11 4 6 -3 -4 -7 -15 -12 -25
-12 -14 0 -17 6 -13 30 2 17 10 30 17 30 8 0 10 -9 7 -26z m-4202 -26 c0 -5
-4 -8 -10 -8 -5 0 -10 10 -10 23 0 18 2 19 10 7 5 -8 10 -18 10 -22z m129 6
c6 -15 10 -29 7 -31 -7 -8 -66 8 -66 17 0 44 41 53 59 14z m167 8 c6 -4 13
-15 17 -24 5 -15 21 -18 99 -19 51 -1 125 -5 163 -10 45 -5 -3 -6 -135 -3
-113 2 -214 7 -226 10 -18 5 -26 31 -15 52 3 5 87 1 97 -6z m414 -16 c14 -13
33 -32 42 -42 9 -11 23 -24 30 -31 28 -26 38 -42 28 -48 -10 -6 -448 10 -595
21 -44 4 -116 17 -159 30 -44 13 -92 24 -107 24 -15 0 -30 4 -33 9 -4 5 6 8
21 6 334 -42 820 -61 811 -32 -3 6 -13 14 -24 16 -10 2 -32 17 -48 35 -16 17
-26 25 -22 19 5 -9 2 -11 -8 -7 -26 10 -18 24 12 24 15 0 38 -10 52 -24z
m3410 -1 c0 -9 -9 -15 -23 -15 -13 0 -28 -5 -35 -12 -9 -9 -12 -7 -12 8 0 27
3 29 40 32 21 2 30 -2 30 -13z m-130 -14 c0 -16 -11 -19 -97 -24 -201 -13
-408 -19 -402 -13 9 9 40 13 191 21 99 6 289 27 306 34 1 1 2 -7 2 -18z
m-4097 -18 c-7 -2 -21 -2 -30 0 -10 3 -4 5 12 5 17 0 24 -2 18 -5z m4422 -5
c-22 -5 -85 -21 -140 -35 -55 -14 -125 -29 -155 -33 -70 -10 -640 -23 -640
-15 0 4 4 14 10 24 7 15 18 18 52 14 74 -8 601 16 684 31 77 15 138 22 199 23
25 1 24 -1 -10 -9z m-4400 -26 c50 -12 113 -28 140 -37 132 -42 163 -46 420
-55 143 -5 270 -12 282 -16 11 -3 23 -14 26 -25 4 -15 2 -17 -11 -10 -25 13
-316 18 -322 6 -3 -6 52 -12 150 -16 151 -6 183 -9 195 -21 3 -3 -115 -5 -262
-4 -251 1 -270 0 -302 -19 -73 -43 -72 -35 -61 -360 11 -321 17 -364 51 -402
16 -18 7 -14 -23 11 -27 21 -48 42 -48 47 0 5 -21 21 -47 36 l-48 26 1 356 2
355 26 21 c25 20 35 45 17 45 -16 0 -71 -70 -71 -90 0 -11 -4 -20 -10 -20 -5
0 -10 5 -10 11 0 7 -16 31 -34 54 -27 32 -46 45 -83 54 -26 7 -73 20 -103 28
-30 9 -84 17 -120 17 -57 1 -65 -1 -62 -16 3 -19 -6 -22 -25 -10 -15 10 5 38
38 51 37 16 193 6 294 -17z m4588 9 c16 -6 7 -9 -34 -14 -30 -4 -87 -14 -127
-24 -67 -15 -78 -22 -129 -74 l-56 -58 -30 42 c-17 23 -34 45 -39 48 -11 7 -7
8 152 50 63 16 117 34 118 40 4 10 108 3 145 -10z m-3588 -46 c30 -19 62 -49
71 -67 26 -50 43 -243 50 -568 7 -310 1 -392 -34 -440 -20 -28 -129 -87 -140
-76 -9 10 19 58 38 64 11 4 10 -1 -4 -17 -22 -24 -3 -30 27 -7 21 16 22 32 1
40 -25 10 -33 7 -55 -15 -29 -29 -108 -37 -464 -48 l-280 -8 -79 30 c-94 35
-122 62 -129 120 -4 40 16 107 32 107 4 0 24 16 46 35 29 27 40 32 47 23 4 -7
8 -10 8 -6 0 4 14 2 30 -4 18 -6 49 -34 76 -69 25 -32 53 -63 62 -68 28 -14
676 20 724 38 15 5 35 23 45 38 16 25 18 53 17 318 -1 184 -6 306 -13 332 -16
57 -45 83 -94 83 -31 0 -45 7 -68 31 -16 17 -30 35 -30 40 -1 5 -2 14 -3 21 0
7 -12 15 -26 19 -18 5 -11 7 26 8 60 1 73 18 48 57 -15 22 -15 24 0 24 9 0 41
-16 71 -35z m2450 18 c-5 -10 -10 -32 -13 -50 -4 -28 -1 -33 23 -39 40 -10
453 3 560 17 50 7 98 12 109 13 10 1 35 -19 58 -45 l39 -46 -11 -87 c-8 -53
-11 -184 -9 -336 l4 -250 -25 -10 c-36 -15 -90 -68 -105 -103 l-12 -29 -7 25
c-3 14 -2 56 3 94 5 37 11 183 13 323 4 363 25 342 -348 348 -232 4 -263 6
-252 19 7 9 14 11 15 6 2 -5 20 -7 41 -6 20 2 102 4 182 6 116 2 145 5 145 16
0 8 -8 19 -18 25 -14 8 -21 8 -30 -4 -9 -12 -41 -16 -147 -18 -74 -1 -143 -5
-154 -8 -13 -4 -17 -2 -13 7 2 8 10 13 16 11 7 -1 10 2 6 8 -9 14 -63 -19 -71
-42 -3 -10 -18 -19 -37 -22 -18 -3 -45 -7 -62 -10 -16 -2 -40 -7 -51 -11 -19
-6 -22 -2 -28 39 -11 70 6 95 94 138 85 43 95 45 85 21z m1201 -44 c3 -5 -16
-9 -43 -9 -51 0 -115 -25 -149 -57 -41 -41 -84 -121 -95 -179 -6 -32 -9 -108
-7 -169 4 -96 8 -118 33 -170 17 -34 52 -82 82 -111 38 -36 53 -59 53 -78 0
-14 5 -26 10 -26 6 0 10 15 10 34 0 30 3 34 33 39 17 3 39 8 49 12 27 11 34
-63 9 -106 -11 -19 -23 -57 -27 -86 -7 -60 -13 -63 -115 -63 l-66 0 -18 45
c-12 32 -33 59 -73 91 -32 26 -61 53 -66 62 -5 9 -7 143 -3 314 4 195 2 300
-5 304 -23 14 119 132 186 154 86 28 184 28 202 -1z m-4788 0 c79 -21 138 -50
190 -94 l30 -25 -2 -325 -1 -326 -56 -49 c-31 -27 -71 -72 -88 -99 l-32 -49
-57 5 c-82 7 -82 7 -82 58 0 50 -12 81 -40 105 -16 13 -17 24 -12 75 l7 60 33
-3 c50 -5 115 31 160 91 52 67 64 115 63 249 -1 124 -18 178 -74 236 -37 39
-106 82 -157 98 l-35 12 38 1 c20 1 72 -8 115 -20z m-224 -66 c43 -75 44 -101
4 -182 -20 -40 -29 -48 -68 -58 -25 -6 -84 -12 -132 -12 -85 -1 -88 0 -94 24
-8 34 21 169 45 209 26 41 112 85 166 85 39 0 41 -2 79 -66z m4746 63 c0 -2
-17 -14 -37 -25 l-38 -21 30 25 c28 23 45 31 45 21z m-4701 -36 c97 -53 96
-51 99 -143 3 -71 1 -88 -18 -120 -12 -20 -27 -37 -32 -37 -6 0 -28 10 -49 22
-36 20 -37 22 -25 47 7 14 19 49 26 77 15 61 5 96 -43 151 -36 41 -30 41 42 3z
m346 10 c3 -6 -1 -7 -9 -4 -18 7 -21 14 -7 14 6 0 13 -4 16 -10z m4725 5 c0
-3 -9 -15 -20 -27 -32 -35 -53 -114 -51 -197 1 -41 4 -77 6 -80 3 -2 14 4 24
13 11 10 39 20 62 23 35 5 54 0 113 -30 39 -20 84 -39 100 -42 27 -6 28 -8 22
-48 -4 -23 -10 -45 -14 -48 -4 -4 -56 -9 -115 -11 -121 -5 -111 -10 -167 82
-21 35 -28 40 -50 34 -60 -16 -67 -5 -69 120 -1 83 22 141 70 171 68 43 89 53
89 40z m122 -34 c105 -47 153 -122 146 -226 -3 -49 -4 -50 -32 -47 -16 2 -56
17 -90 34 -66 34 -151 43 -181 18 -25 -21 -20 104 6 169 21 50 23 51 62 51 38
0 40 1 21 15 -31 23 -1 17 68 -14z m-1680 -93 c-26 -64 -27 -74 -24 -278 0
-30 -1 -56 -2 -58 -2 -1 -20 5 -40 14 l-36 18 0 118 c0 83 5 129 15 155 8 20
18 34 20 31 3 -3 -2 -21 -10 -41 -18 -44 -21 -187 -3 -205 15 -15 48 -16 48
-1 0 14 -26 40 -33 33 -10 -10 -19 85 -12 123 12 65 67 151 97 153 4 0 -5 -28
-20 -62z m-2018 -20 c8 -18 17 -63 21 -100 l7 -66 -31 -16 -31 -17 0 44 c0 24
-3 86 -6 138 -6 89 -5 93 10 72 9 -13 23 -37 30 -55z m3357 10 c-11 -18 -21
-29 -21 -25 0 13 33 67 38 62 3 -2 -5 -19 -17 -37z m-3769 17 c177 -9 242 -16
257 -30 12 -12 11 -13 -6 -9 -30 8 -35 -8 -12 -45 15 -26 23 -30 33 -22 10 9
15 8 20 -5 3 -8 6 -139 6 -290 l0 -275 -24 -23 c-28 -29 -81 -35 -436 -45
-275 -8 -290 -6 -302 49 -5 19 -14 172 -20 339 l-11 305 28 22 c55 44 93 46
467 29z m-652 -10 c0 -8 -4 -15 -10 -15 -5 0 -10 7 -10 15 0 8 5 15 10 15 6 0
10 -7 10 -15z m3744 -2 c130 -6 135 -7 120 -24 -9 -10 -14 -26 -12 -36 4 -23
53 -30 61 -9 8 21 -10 31 -28 16 -19 -15 -19 -1 -1 23 13 16 15 16 30 2 9 -9
19 -28 22 -41 8 -32 -2 -580 -12 -617 -3 -16 -17 -33 -29 -39 -24 -11 -627 16
-680 30 -23 7 -32 17 -42 48 -14 46 -15 227 -4 447 10 189 13 194 105 200 120
7 335 7 470 0z m385 -188 l-5 -180 -2 160 c-1 129 4 221 12 203 0 -2 -1 -84
-5 -183z m-3204 136 c3 -5 1 -12 -4 -15 -5 -3 -11 1 -15 9 -6 16 9 21 19 6z
m-928 -38 c-3 -10 -5 -4 -5 12 0 17 2 24 5 18 2 -7 2 -21 0 -30z m4400 -40
c-3 -10 -5 -2 -5 17 0 19 2 27 5 18 2 -10 2 -26 0 -35z m-4670 -15 c-10 -18
-15 -25 -12 -15 3 10 5 30 5 45 0 20 3 23 12 14 9 -9 8 -19 -5 -44z m270 -30
c-2 -13 -4 -5 -4 17 -1 22 1 32 4 23 2 -10 2 -28 0 -40z m-450 2 c21 -11 43
-20 49 -20 8 0 3 -21 -12 -57 l-23 -58 -63 3 c-84 4 -239 29 -251 41 -5 5 -7
21 -5 37 l3 29 95 6 c54 3 110 12 130 21 19 9 36 17 38 17 1 1 19 -8 39 -19z
m178 -60 c-10 -11 -21 -18 -23 -15 -3 3 3 12 14 20 27 20 30 18 9 -5z m1358 0
c-5 -20 -33 -29 -33 -10 0 7 25 27 37 30 0 0 -1 -9 -4 -20z m-1086 -67 c-2
-16 -4 -3 -4 27 0 30 2 43 4 28 2 -16 2 -40 0 -55z m4596 40 c43 -69 42 -67
22 -59 -11 4 -21 2 -26 -5 -12 -20 -37 -2 -54 37 -11 28 -12 40 -4 50 19 23
38 16 62 -23z m-1484 -23 c0 -10 -3 -8 -9 5 -12 27 -12 43 0 25 5 -8 9 -22 9
-30z m-3343 -45 c-18 -47 -49 -79 -85 -90 -20 -6 -23 -4 -18 10 4 9 7 25 7 34
0 14 6 17 23 14 21 -4 28 3 53 54 32 66 47 50 20 -22z m4567 17 c-2 -11 2 -35
11 -55 8 -21 11 -37 6 -37 -10 0 -30 64 -30 98 0 13 4 21 9 18 5 -3 7 -14 4
-24z m94 -64 c12 29 23 8 22 -40 -2 -29 -4 -47 -7 -40 -2 6 -8 12 -13 12 -6 0
-7 -4 -4 -10 3 -5 1 -10 -5 -10 -16 0 -60 31 -60 43 0 5 9 2 20 -8 31 -28 35
-10 6 28 -14 19 -26 45 -26 58 1 23 2 23 31 -11 20 -22 32 -31 36 -22z m-5086
-11 c-10 -9 -11 -8 -5 6 3 10 9 15 12 12 3 -3 0 -11 -7 -18z m76 -3 c-3 -3
-12 -4 -19 -1 -8 3 -5 6 6 6 11 1 17 -2 13 -5z m5203 -44 c6 -10 15 -42 21
-70 12 -55 5 -69 -32 -70 -20 0 -39 60 -39 123 0 40 2 45 20 40 11 -3 25 -14
30 -23z m-5060 -27 c0 -13 -5 -44 -11 -69 -11 -42 -13 -45 -43 -42 -27 3 -31
7 -28 28 3 27 30 97 45 118 14 18 37 -4 37 -35z m5230 33 c0 -3 -4 -8 -10 -11
-5 -3 -10 -1 -10 4 0 6 5 11 10 11 6 0 10 -2 10 -4z m-3724 -56 c12 -40 10
-50 -11 -50 -7 0 -11 20 -12 51 -1 56 6 56 23 -1z m-1668 -1 c35 -11 37 -16
23 -52 -8 -21 -17 -25 -54 -25 -24 -1 -56 -6 -71 -12 -24 -9 -27 -8 -22 7 2
10 8 34 11 53 4 19 10 39 12 43 5 9 45 3 101 -14z m4729 -71 c-2 -18 -4 -6 -4
27 0 33 2 48 4 33 2 -15 2 -42 0 -60z m707 50 c3 -13 6 -35 6 -50 0 -26 -3
-28 -40 -29 -22 -1 -45 -2 -51 -3 -14 -1 -56 70 -46 80 7 8 68 21 103 23 15 1
24 -7 28 -21z m-1775 3 c18 -12 6 -61 -15 -61 -13 0 -15 6 -9 28 6 26 6 26 -9
7 -15 -20 -15 -20 -16 1 0 33 20 43 49 25z m-60 -97 c18 -16 18 -18 -10 -79
-16 -35 -31 -81 -35 -103 -5 -34 -9 -39 -28 -34 -36 8 -46 23 -46 63 0 32 4
39 19 39 11 0 23 -4 26 -10 9 -15 25 -12 25 5 0 8 -11 22 -25 31 -14 9 -25 21
-25 26 0 9 68 78 77 78 1 0 11 -7 22 -16z m-3595 -28 c17 -23 21 -42 21 -112
-1 -76 -3 -87 -25 -109 -28 -27 -108 -52 -134 -42 -46 18 -63 163 -26 222 11
18 36 40 56 50 33 16 37 16 54 0 10 -9 24 -29 30 -45 12 -29 9 -115 -5 -157
-14 -42 12 -24 29 20 21 57 12 130 -22 176 -14 18 -19 32 -12 29 8 -2 23 -17
34 -32z m114 -39 c7 -81 -43 -83 -63 -3 l-12 47 36 -3 c34 -3 36 -5 39 -41z
m5312 26 c35 -20 50 -52 50 -106 0 -45 -38 -167 -52 -167 -5 0 -31 9 -58 21
-36 16 -51 29 -59 51 -25 72 -6 170 40 202 30 20 44 20 79 -1z m-3668 -24 c22
-29 35 -82 30 -117 -4 -26 -57 -56 -116 -65 l-38 -6 6 31 c3 17 6 59 6 95 0
63 1 64 33 78 41 19 56 16 79 -16z m1872 -36 c-13 -38 -24 -82 -24 -100 0 -36
-9 -46 -30 -33 -27 17 31 200 63 200 10 0 8 -17 -9 -67z m160 -38 c19 -13 65
-19 193 -26 92 -4 253 -13 357 -19 104 -6 196 -8 205 -5 9 3 27 26 41 51 25
48 91 101 110 89 7 -4 -6 -18 -32 -34 -24 -16 -52 -38 -63 -51 l-20 -23 25 13
c14 7 38 24 53 36 44 37 69 39 114 11 59 -38 64 -47 54 -103 -16 -82 -26 -101
-61 -108 -60 -11 -176 -61 -152 -64 12 -2 60 11 107 29 63 24 90 40 99 58 13
23 18 25 112 27 55 1 110 4 123 8 23 5 23 4 18 -40 -2 -25 -8 -48 -12 -52 -4
-4 -64 -7 -133 -8 -141 0 -173 -5 -242 -40 -53 -27 -70 -24 -123 18 -26 21
-39 23 -180 25 -240 4 -479 23 -498 39 -18 16 -33 19 -24 4 9 -14 -8 -13 -23
2 -8 8 -15 9 -22 2 -36 -36 99 -61 405 -75 138 -7 252 -13 254 -15 1 -1 0 -8
-5 -15 -14 -23 -361 0 -585 39 -52 9 -113 44 -134 76 -9 13 -16 64 -20 136
l-5 115 19 -42 c11 -23 31 -49 45 -58z m1474 31 c-13 -50 -22 -54 -56 -30 -13
9 -29 13 -37 10 -17 -6 -19 -44 -5 -66 9 -13 12 -13 23 0 7 9 24 14 44 12 28
-3 31 -7 35 -43 l4 -39 -52 0 c-29 0 -60 -3 -69 -7 -16 -6 -17 1 -11 68 3 41
7 79 8 86 2 13 115 65 126 58 1 -1 -3 -23 -10 -49z m-5068 -71 c0 -53 -4 -75
-12 -76 -7 0 -43 -3 -80 -7 -61 -7 -66 -6 -57 9 5 10 9 34 9 53 0 35 1 36 40
36 32 0 43 5 62 30 12 17 25 30 30 30 4 0 8 -34 8 -75z m4662 -10 c3 -14 1
-25 -3 -25 -5 0 -9 11 -9 25 0 14 2 25 4 25 2 0 6 -11 8 -25z m-4415 -17 c-3
-8 -6 -5 -6 6 -1 11 2 17 5 13 3 -3 4 -12 1 -19z m3230 -13 c14 -10 19 -22 16
-34 -4 -17 -9 -18 -29 -9 -15 7 -24 20 -24 35 0 27 8 29 37 8z m-3274 -35 c74
0 78 -1 87 -25 12 -31 121 -84 188 -92 38 -5 40 -7 25 -19 -27 -20 -55 -17
-125 16 -60 29 -69 30 -195 30 -80 0 -133 4 -135 10 -2 6 -2 30 0 54 l4 43 36
-8 c21 -5 72 -9 115 -9z m3157 -6 l35 -14 -39 5 c-22 2 -44 9 -50 15 -14 14
11 12 54 -6z m-1793 -11 c1 -15 -7 -18 -43 -18 -56 -1 -56 9 -1 22 23 6 42 11
42 12 1 0 1 -7 2 -16z m1748 -23 c3 -5 1 -10 -4 -10 -6 0 -11 5 -11 10 0 6 2
10 4 10 3 0 8 -4 11 -10z m-3555 -10 c0 -5 -5 -10 -11 -10 -5 0 -7 5 -4 10 3
6 8 10 11 10 2 0 4 -4 4 -10z m216 -25 c1 -42 -21 -48 -29 -8 -6 31 -1 43 16
43 7 0 12 -15 13 -35z m3394 15 c0 -14 -6 -20 -22 -19 -13 0 -17 3 -10 6 6 2
12 11 12 19 0 8 5 14 10 14 6 0 10 -9 10 -20z m1754 -8 c-1 -7 -2 -25 -2 -42
-1 -19 -7 -30 -17 -30 -16 0 -18 12 -9 59 6 29 30 40 28 13z m-5383 -27 c22
14 6 -14 -17 -30 -30 -19 -29 -20 -37 22 -5 27 -3 32 16 35 15 2 23 -3 25 -15
2 -9 8 -15 13 -12z m1789 25 c-20 -13 -40 -13 -40 0 0 6 12 10 28 10 21 0 24
-2 12 -10z m3697 -15 c1 -1 -2 -17 -8 -37 -9 -35 -11 -36 -41 -28 -40 12 -38
10 -32 52 l6 35 37 -10 c20 -6 37 -11 38 -12z m-323 -96 c-11 -12 -15 -30 -12
-56 4 -31 0 -41 -22 -60 -15 -12 -33 -37 -40 -55 -44 -120 -70 -152 -70 -88 0
16 -4 32 -10 35 -6 4 -5 16 4 33 7 15 16 41 20 57 4 17 19 40 34 52 24 19 25
24 15 42 -7 11 -13 32 -13 45 0 21 7 27 41 36 32 9 44 18 53 42 l11 30 3 -47
c2 -33 -2 -52 -14 -66z m132 71 c8 0 14 -4 14 -10 0 -11 -49 -14 -74 -4 -29
11 -17 27 15 20 17 -3 38 -6 45 -6z m-4701 -24 c19 -8 35 -17 35 -20 0 -7 -63
13 -74 24 -14 14 -1 13 39 -4z m760 -12 c-65 -20 -109 -26 -240 -31 -141 -5
-162 -4 -174 11 -12 15 -6 16 80 17 52 1 153 7 224 14 190 18 200 17 110 -11z
m2265 17 c0 -13 -30 -22 -43 -14 -7 4 -2 10 13 14 14 4 26 7 28 8 1 1 2 -3 2
-8z m66 -3 c4 -6 3 -8 -4 -4 -5 3 -13 0 -15 -6 -3 -8 -6 -6 -6 5 -1 19 14 23
25 5z m176 -2 c18 -8 49 -17 69 -21 34 -5 39 -11 67 -74 17 -38 40 -76 52 -84
16 -11 19 -19 12 -38 -5 -13 -12 -50 -16 -81 l-7 -58 -85 0 c-78 0 -84 1 -84
21 0 24 -16 56 -41 85 -18 19 -18 23 -4 57 27 64 18 137 -16 137 -10 0 -19 3
-19 6 0 7 33 64 37 64 1 0 17 -6 35 -14z m767 -12 c2 -2 -8 -4 -22 -4 -18 0
-27 5 -27 15 0 13 4 14 23 4 12 -6 24 -13 26 -15z m271 22 c0 -10 -100 -54
-105 -46 -6 10 23 28 64 41 31 9 41 10 41 5z m-4870 -10 c0 -3 -4 -8 -10 -11
-5 -3 -10 -1 -10 4 0 6 5 11 10 11 6 0 10 -2 10 -4z m87 -2 c-3 -3 -12 -4 -19
-1 -8 3 -5 6 6 6 11 1 17 -2 13 -5z m253 -38 c0 -38 -12 -66 -27 -66 -10 0
-13 6 -9 16 8 20 -11 54 -29 54 -15 0 -21 21 -9 32 3 3 21 1 40 -5 24 -7 34
-16 34 -31z m1337 26 c0 -10 -6 -19 -12 -19 -5 0 -28 -3 -51 -7 -31 -6 -44 -4
-54 9 -7 8 -9 19 -5 23 4 4 10 1 12 -5 6 -17 40 -16 78 2 17 7 31 14 32 14 1
1 1 -7 0 -17z m98 7 c-8 -11 -55 -12 -55 -1 0 5 14 9 30 10 17 0 28 -4 25 -9z
m-1565 -7 c0 -5 -35 -16 -77 -25 -43 -10 -89 -20 -103 -23 -17 -5 -22 -3 -15
3 11 12 93 33 143 38 19 2 36 6 39 9 9 8 13 7 13 -2z m-245 -12 c-3 -5 -10
-10 -16 -10 -5 0 -9 5 -9 10 0 6 7 10 16 10 8 0 12 -4 9 -10z m968 -61 c14 -1
3 -2 182 11 77 6 153 13 169 17 l29 6 -39 -35 c-39 -35 -40 -35 -161 -42 -113
-7 -122 -6 -132 12 -6 12 -21 19 -42 20 -23 0 -39 10 -60 34 -41 48 -35 60 7
16 19 -21 41 -39 47 -39z m581 35 l28 -25 -21 -23 c-25 -26 -29 -106 -7 -145
9 -16 11 -35 5 -59 -4 -19 -5 -41 -2 -48 4 -11 -10 -14 -66 -14 -39 0 -74 0
-78 0 -8 -1 -11 18 -28 158 -7 58 -6 64 14 78 11 8 28 28 36 44 34 65 71 76
119 34z m3713 20 c-3 -3 -12 -4 -19 -1 -8 3 -5 6 6 6 11 1 17 -2 13 -5z
m-3896 -47 c-13 -12 -20 -15 -16 -7 14 26 28 41 33 35 3 -3 -5 -16 -17 -28z
m515 -41 c41 -87 42 -120 2 -124 -30 -4 -42 13 -74 108 -19 59 -30 77 -40 68
-3 -3 6 -35 19 -70 14 -34 28 -72 31 -84 4 -12 16 -26 29 -32 21 -11 21 -12
-7 -9 -28 2 -32 8 -56 78 -47 132 -47 127 2 132 24 2 47 4 51 5 4 1 24 -31 43
-72z m1721 59 c8 -3 3 -32 -17 -96 -16 -50 -33 -96 -37 -100 -11 -11 -92 26
-99 46 -4 8 8 38 27 67 17 29 38 63 45 74 12 20 35 23 81 9z m519 4 c4 3 0 -4
-7 -16 -17 -28 -24 -28 -49 -3 -27 27 -26 29 14 20 19 -4 38 -5 42 -1z m-502
-123 c-14 -47 -32 -86 -38 -86 -12 0 18 112 47 180 23 55 17 -11 -9 -94z m723
104 c79 -2 110 -7 104 -14 -5 -6 -15 -30 -22 -53 l-12 -43 -91 0 -90 0 -48 51
c-26 28 -46 54 -44 58 5 7 12 7 203 1z m-4157 -14 c0 -16 -60 -28 -75 -15 -13
13 12 29 48 29 16 0 27 -5 27 -14z m4331 4 c-34 -8 -51 -24 -51 -49 0 -8 -3
-11 -6 -8 -4 4 -1 20 6 37 11 26 17 30 49 29 l36 -1 -34 -8z m832 -10 c-6 -21
-12 -24 -37 -14 -28 11 -18 34 13 34 24 0 28 -3 24 -20z m-5033 0 c0 -5 -17
-10 -37 -9 -31 0 -34 2 -18 9 28 12 55 12 55 0z m3443 -14 c52 -8 58 -22 36
-84 -9 -27 -16 -31 -75 -41 -35 -7 -71 -14 -79 -17 -20 -8 -19 7 6 93 20 65
23 71 43 64 11 -5 42 -11 69 -15z m-3665 2 c-6 -18 -28 -21 -28 -4 0 9 7 16
16 16 9 0 14 -5 12 -12z m1650 -31 c22 -61 16 -86 -23 -103 -43 -18 -109 -18
-123 -1 -15 18 -19 84 -5 98 10 10 94 36 123 38 9 1 21 -13 28 -32z m-1120
-14 c40 -14 71 -27 70 -29 -5 -5 -85 20 -94 29 -12 12 -34 8 -34 -7 0 -19 49
-37 108 -39 28 -1 54 -6 58 -10 4 -4 -47 -7 -114 -7 l-122 0 0 41 c0 28 -4 39
-12 37 -8 -3 -11 -20 -9 -49 3 -48 -2 -46 -39 15 -20 33 -21 39 -7 33 11 -4
20 -1 23 8 8 20 78 11 172 -22z m4340 26 c-21 -8 -29 -20 -35 -52 l-9 -42 -92
-3 c-132 -4 -143 7 -51 52 71 35 136 53 189 54 l25 0 -27 -9z m-4949 -20 c-16
-10 -23 -4 -14 10 3 6 11 8 17 5 6 -4 5 -9 -3 -15z m4126 -1 c6 -6 -1 -7 -20
-2 -16 3 -34 11 -40 16 -6 6 1 7 20 2 17 -3 35 -11 40 -16z m853 -34 c-13 -38
-48 -61 -48 -30 0 26 20 67 29 62 5 -3 12 2 16 12 13 32 16 -4 3 -44z m425 49
c-7 -2 -21 -2 -30 0 -10 3 -4 5 12 5 17 0 24 -2 18 -5z m-4610 -46 c-2 -4 -18
1 -34 10 -30 18 -30 18 -7 24 23 5 51 -17 41 -34z m181 -28 c-23 -25 -30 -16
-10 13 9 12 17 32 17 43 1 12 4 9 6 -8 3 -18 -2 -36 -13 -48z m-630 40 c28
-22 49 -58 60 -101 5 -24 3 -28 -14 -28 -12 0 -34 -7 -49 -15 -33 -17 -68 -82
-53 -97 7 -7 12 0 17 21 8 38 64 76 100 67 52 -13 119 -156 74 -156 -6 0 -24
13 -42 30 -18 16 -35 30 -39 30 -16 0 -7 49 10 59 15 9 15 12 2 21 -19 13 -47
-21 -70 -83 -18 -49 -60 -81 -138 -103 -69 -20 -153 -15 -190 13 -33 24 -46
82 -30 133 6 19 14 59 17 88 l6 54 60 25 c73 31 179 61 221 62 18 1 43 -8 58
-20z m888 9 c-12 -12 -143 -37 -200 -37 -29 -1 -32 1 -22 19 8 15 23 20 78 23
155 8 157 8 144 -5z m3425 -13 c-32 -29 -47 -32 -47 -10 0 16 32 33 60 34 10
0 5 -8 -13 -24z m704 9 l34 -15 -35 6 c-19 3 -39 10 -44 15 -15 15 7 12 45 -6z
m-901 -48 c0 -18 -17 8 -24 34 l-7 25 15 -25 c9 -14 15 -29 16 -34z m-3142 32
c-5 -13 -38 -20 -38 -8 0 8 17 18 33 19 5 1 7 -4 5 -11z m3906 -2 c-6 -17 5
-25 43 -30 132 -17 193 -31 198 -45 14 -35 17 -159 5 -196 -10 -30 -10 -39 1
-46 16 -9 -7 -19 -89 -39 -100 -23 -185 7 -222 81 -23 44 -66 88 -88 89 -7 0
-10 5 -7 10 9 15 58 12 81 -5 10 -8 25 -15 33 -15 8 0 0 11 -19 25 -19 14 -42
25 -53 25 -14 0 -17 4 -12 18 4 9 13 38 21 64 10 33 23 52 42 62 36 20 73 21
66 2z m-4307 -81 c24 -4 57 -2 78 5 46 15 80 -4 89 -52 3 -19 15 -52 26 -74
17 -32 18 -44 9 -67 -7 -16 -9 -47 -5 -76 6 -48 6 -49 -29 -70 -19 -11 -35
-25 -35 -31 0 -5 -22 -10 -50 -10 -27 0 -50 -4 -50 -10 0 -5 23 -10 50 -10 28
0 50 -4 50 -8 0 -4 -5 -68 -11 -140 l-10 -133 -51 -49 c-47 -46 -52 -55 -56
-105 -2 -30 -8 -55 -12 -55 -5 0 -17 15 -29 33 -35 57 -105 117 -152 131 l-44
13 -6 139 c-3 76 -9 148 -14 158 -7 16 -5 18 9 13 24 -9 176 3 176 14 0 5 -51
10 -112 11 -134 4 -130 -2 -98 134 l22 94 204 0 c111 0 205 4 208 9 8 12 -171
20 -296 14 -62 -4 -108 -2 -111 4 -3 5 -3 35 0 66 5 54 7 56 37 60 38 5 156 1
213 -8z m253 -12 c0 -30 -15 -61 -25 -52 -3 4 -10 20 -14 37 -8 25 -6 32 7 35
30 8 32 7 32 -20z m160 -74 c0 -86 -1 -89 -23 -89 -22 0 -22 1 -14 83 11 99
14 110 27 102 5 -3 10 -46 10 -96z m2785 39 c4 -29 8 -64 9 -78 2 -14 6 -38
10 -55 6 -24 5 -27 -4 -12 -6 9 -20 17 -30 17 -23 0 -28 38 -8 58 9 9 9 12 0
12 -13 0 -16 58 -6 97 9 35 21 19 29 -39z m478 50 c26 1 57 2 70 3 12 1 36 0
52 -2 29 -3 31 -6 33 -45 1 -37 -2 -43 -20 -46 -32 -5 -35 -28 -4 -28 23 0 26
-4 26 -37 0 -21 7 -65 16 -98 30 -115 30 -126 -2 -152 l-29 -23 -5 -150 c-6
-138 -8 -151 -29 -174 -13 -13 -36 -30 -51 -36 -17 -7 -37 -30 -52 -56 -21
-41 -26 -45 -57 -42 -31 3 -35 7 -47 46 -15 51 -35 76 -75 92 l-29 12 0 159
c0 87 -4 168 -9 181 -5 14 -27 32 -50 43 -45 20 -46 25 -30 89 9 36 8 49 -5
75 -16 30 -16 33 8 74 13 23 28 59 31 79 8 42 20 46 140 39 39 -2 91 -3 118
-3z m-3986 -4 c-3 -3 -12 -4 -19 -1 -8 3 -5 6 6 6 11 1 17 -2 13 -5z m1303 -4
c0 -5 -8 -10 -17 -10 -15 0 -16 2 -3 10 19 12 20 12 20 0z m2368 -22 c-4 -46
-28 -49 -28 -4 0 26 4 36 16 36 11 0 14 -8 12 -32z m-783 3 c32 -11 65 -17 74
-14 14 4 13 3 -1 -9 -10 -8 -22 -27 -28 -42 -9 -23 -15 -27 -35 -22 -20 5 -25
3 -25 -13 0 -10 -7 -21 -15 -24 -10 -4 -17 5 -25 31 -9 35 -14 112 -7 112 2 0
30 -9 62 -19z m-1595 -46 c0 -40 -2 -45 -22 -45 -20 0 -23 6 -26 45 -3 42 -1
45 23 45 23 0 25 -3 25 -45z m1904 29 c10 -25 7 -33 -14 -44 -18 -10 -20 -8
-20 25 0 37 22 50 34 19z m-2204 -21 c0 -20 -3 -24 -11 -16 -7 7 -9 19 -6 27
10 24 17 19 17 -11z m229 13 c7 -8 11 -30 9 -48 -4 -33 -6 -31 -26 30 -11 34
-3 42 17 18z m-1224 -133 c-7 -29 -31 -30 -38 -1 -7 26 13 119 25 112 4 -3 9
1 10 8 1 7 3 -12 5 -41 2 -30 2 -65 -2 -78z m1118 96 c4 -16 3 -18 -9 -8 -7 6
-11 15 -8 20 8 13 11 11 17 -12z m3244 -71 c-2 -18 -4 -6 -4 27 0 33 2 48 4
33 2 -15 2 -42 0 -60z m-102 -56 c-2 -3 -12 1 -22 9 -11 9 -14 10 -9 2 4 -8 1
-13 -8 -13 -9 0 -16 3 -17 8 -10 73 -8 88 14 97 21 9 23 6 35 -44 7 -30 10
-56 7 -59z m-3291 82 c24 -9 19 -37 -10 -65 -55 -51 -56 -99 -3 -99 16 0 29
-3 29 -7 1 -21 34 -47 66 -52 21 -3 39 -12 42 -19 3 -11 -22 -13 -134 -10
l-138 3 -7 35 c-4 19 -20 46 -37 61 -24 22 -27 29 -19 50 5 13 12 40 16 59 l6
35 85 6 c47 3 86 6 87 7 1 1 8 -1 17 -4z m1966 -4 c0 -5 -6 -10 -14 -10 -8 0
-18 5 -21 10 -3 6 3 10 14 10 12 0 21 -4 21 -10z m-1644 -46 c-6 -44 -20 -74
-35 -74 -11 0 1 105 13 112 23 16 29 7 22 -38z m1919 25 c4 -5 4 -21 1 -35 -7
-27 -37 -32 -56 -9 -10 12 -8 18 11 35 28 22 35 24 44 9z m1295 -46 c0 -16
-45 -64 -53 -57 -6 6 -3 35 9 94 l6 25 19 -25 c10 -14 19 -30 19 -37z m-867
27 c3 -11 1 -23 -4 -26 -5 -3 -9 6 -9 20 0 31 6 34 13 6z m-766 -27 c-3 -10
-5 -4 -5 12 0 17 2 24 5 18 2 -7 2 -21 0 -30z m66 2 c8 -23 6 -31 -9 -42 -28
-20 -34 -16 -34 25 0 60 26 70 43 17z m-2353 16 c0 -5 -7 -11 -14 -14 -10 -4
-13 -1 -9 9 6 15 23 19 23 5z m641 -42 c-6 -16 -10 -18 -10 -7 -1 22 12 55 16
42 2 -6 -1 -22 -6 -35z m-87 16 c6 -17 4 -18 -18 -9 -20 8 -21 24 -2 24 8 0
16 -7 20 -15z m1953 -2 c2 -6 -6 -13 -19 -16 -28 -8 -34 -2 -17 17 15 16 31
16 36 -1z m1331 -27 c-2 -30 -7 -42 -15 -39 -16 6 -17 37 -3 64 16 30 21 23
18 -25z m-4605 -7 c18 -33 23 -89 7 -89 -5 0 -30 10 -54 22 l-45 21 16 31 c32
64 46 67 76 15z m887 21 c0 -18 -23 -59 -36 -64 -16 -6 -17 -1 -8 43 5 21 12
31 25 31 11 0 19 -4 19 -10z m-722 -43 c2 -27 -1 -39 -13 -43 -23 -9 -33 6
-12 17 21 12 22 35 2 43 -21 8 -19 28 3 24 12 -2 18 -14 20 -41z m3546 18 c20
-31 20 -46 0 -38 -8 3 -13 12 -10 19 3 8 -1 14 -9 14 -8 0 -15 7 -15 15 0 23
16 18 34 -10z m-2509 4 c10 -15 -1 -22 -24 -14 -12 3 -19 11 -16 16 8 12 32
11 40 -2z m85 -7 c0 -21 -27 -62 -41 -62 -11 0 -1 49 14 68 14 17 27 15 27 -6z
m-510 4 c0 -2 -3 -11 -6 -20 -9 -23 -24 -20 -24 4 0 11 7 20 15 20 8 0 15 -2
15 -4z m3037 -2 c-3 -3 -12 -4 -19 -1 -8 3 -5 6 6 6 11 1 17 -2 13 -5z m640
-1 c-9 -2 -15 -8 -12 -13 3 -5 -4 -7 -15 -5 -11 2 -18 0 -15 -5 3 -5 1 -11 -4
-14 -5 -4 -13 -1 -17 5 -10 16 17 34 52 36 16 0 21 -1 11 -4z m-4355 -19 c-12
-8 -22 -23 -23 -32 0 -11 -2 -13 -6 -4 -6 14 24 52 41 52 6 0 0 -7 -12 -16z
m1212 -8 c-3 -9 -10 -16 -15 -16 -6 0 -5 9 1 21 13 24 24 20 14 -5z m-1432
-38 c12 -40 11 -41 -21 -70 -18 -16 -38 -27 -44 -25 -16 5 -41 83 -33 103 6
16 66 45 78 38 4 -3 13 -23 20 -46z m1522 43 c7 -10 -50 -71 -65 -71 -10 0 42
79 53 80 4 0 9 -4 12 -9z m1851 -1 c13 -6 15 -9 5 -9 -8 0 -22 4 -30 9 -18 12
-2 12 25 0z m1814 -72 c-12 -23 -12 -22 -24 12 -12 32 -11 37 9 52 20 17 21
16 24 -12 2 -16 -2 -39 -9 -52z m-1923 48 c15 -16 19 -46 6 -46 -14 0 -32 23
-32 42 0 22 7 23 26 4z m-3530 -18 c3 -5 3 -30 -1 -54 -5 -39 -9 -45 -28 -42
-17 2 -23 11 -25 37 -5 54 5 80 28 74 11 -3 23 -10 26 -15z m4860 -6 c-7 -7
-46 9 -46 18 0 5 11 4 25 -2 14 -6 23 -13 21 -16z m347 19 c19 -7 24 -16 21
-36 -3 -36 -10 -40 -42 -29 -27 10 -38 33 -28 60 6 16 16 17 49 5z m163 -48
c-6 -45 -18 -63 -43 -63 -15 0 -26 38 -21 71 3 21 24 34 62 38 5 1 6 -20 2
-46z m-5243 -30 c4 -18 3 -33 -1 -33 -4 0 -17 -3 -30 -6 -18 -5 -25 0 -38 31
-19 46 -13 63 23 67 30 3 36 -4 46 -59z m1167 15 c0 -38 -5 -34 -13 10 -4 21
-3 31 3 27 6 -3 10 -20 10 -37z m-46 5 c4 -16 9 -36 12 -45 3 -10 1 -18 -4
-18 -6 0 -13 12 -16 28 -4 15 -9 35 -12 45 -3 9 -1 17 4 17 6 0 13 -12 16 -27z
m2869 -81 c-16 -12 -18 -10 -21 23 -2 27 2 41 15 51 17 13 17 13 -2 14 l-20 1
20 8 c18 7 20 4 23 -38 3 -35 -1 -48 -15 -59z m-3751 71 c18 -16 25 -43 10
-43 -4 0 -16 14 -25 30 -20 33 -13 39 15 13z m185 11 c-3 -3 -12 -4 -19 -1 -8
3 -5 6 6 6 11 1 17 -2 13 -5z m780 -26 c-3 -8 -6 -5 -6 6 -1 11 2 17 5 13 3
-3 4 -12 1 -19z m-843 -4 c9 -24 7 -74 -3 -74 -9 0 -31 53 -31 76 0 19 27 17
34 -2z m4394 -36 c-3 -45 -6 -53 -23 -53 -18 0 -20 6 -17 45 4 41 14 59 35 60
4 0 7 -24 5 -52z m-821 20 c-3 -8 -6 -5 -6 6 -1 11 2 17 5 13 3 -3 4 -12 1
-19z m755 -35 c3 -33 1 -39 -9 -31 -7 6 -13 29 -13 51 0 52 17 37 22 -20z
m-4281 14 c-8 -8 -11 -7 -11 4 0 20 13 34 18 19 3 -7 -1 -17 -7 -23z m561 3
c24 -43 78 -63 152 -58 54 4 63 8 93 43 27 31 33 35 34 19 1 -10 4 -65 8 -122
5 -81 3 -102 -7 -102 -7 0 -10 5 -6 11 7 11 -39 7 -88 -7 -16 -5 -18 2 -18 55
0 84 -18 77 -22 -9 -2 -57 0 -70 12 -71 8 -1 4 -4 -10 -9 -17 -5 -35 -1 -56
12 -18 10 -57 23 -88 29 l-56 12 6 91 c9 146 15 161 46 106z m4117 13 c3 -2
-3 -11 -12 -20 -13 -13 -19 -14 -31 -3 -27 21 -20 41 12 34 15 -4 29 -9 31
-11z m-916 0 c3 -5 6 -60 8 -123 l4 -115 -58 -6 c-32 -4 -66 -14 -76 -23 -12
-11 -27 -14 -47 -10 l-29 5 3 82 c2 58 0 78 -8 67 -5 -8 -10 -46 -10 -83 0
-60 -2 -68 -17 -63 -17 4 -103 22 -148 29 -18 3 -17 5 6 16 25 12 27 19 33
104 3 50 11 96 16 101 8 8 21 -1 43 -26 18 -21 45 -42 60 -48 74 -27 154 1
184 65 16 34 27 43 36 28z m-3983 -21 c0 -18 -37 -42 -65 -42 -23 0 -18 26 8
43 31 22 57 21 57 -1z m284 -34 c3 -13 6 -73 6 -134 l0 -111 -71 -7 c-39 -4
-73 -5 -76 -2 -3 3 -5 42 -4 86 2 51 -2 80 -8 80 -7 0 -11 -32 -11 -85 0 -77
-2 -85 -19 -85 -10 0 -45 -13 -76 -30 -31 -16 -59 -30 -62 -30 -2 0 -3 24 -1
53 l3 52 48 -3 c28 -2 47 1 47 7 0 6 -10 11 -22 11 -60 0 -67 8 -61 64 3 28
10 61 14 74 12 31 39 29 39 -3 0 -16 6 -25 16 -25 10 0 14 5 10 15 -3 8 -9 22
-12 30 -8 19 13 19 46 0 14 -8 47 -14 73 -15 39 0 52 5 72 26 14 15 25 33 25
40 0 22 17 16 24 -8z m-453 2 c24 -14 24 -26 -1 -33 -21 -5 -45 16 -35 33 8
13 12 13 36 0z m4640 -71 c13 -7 46 -9 83 -6 78 7 86 9 116 30 l25 18 7 -43
c10 -64 9 -138 -1 -138 -5 0 -16 -3 -25 -6 -13 -5 -16 3 -18 47 -1 45 -3 40
-7 -26 l-6 -80 -110 4 c-60 2 -112 6 -115 10 -3 3 -4 65 -1 136 3 120 5 128
17 98 8 -18 23 -37 35 -44z m-3626 -139 l27 -10 -37 -43 c-21 -23 -41 -46 -45
-50 -4 -5 -17 -4 -29 2 -18 10 -21 21 -21 68 l0 56 39 -7 c22 -3 52 -11 66
-16z m152 14 c-3 -3 -12 -4 -19 -1 -8 3 -5 6 6 6 11 1 17 -2 13 -5z m165 -31
c10 -9 18 -21 18 -27 0 -6 11 -24 25 -41 20 -25 24 -27 25 -11 0 11 -10 30
-22 43 -12 13 -19 25 -16 29 3 3 34 -21 67 -54 l62 -59 -83 -7 c-46 -4 -99
-15 -118 -24 -32 -16 -37 -24 -59 -103 l-24 -87 -41 19 c-23 10 -54 19 -70 19
-35 0 -100 -37 -139 -79 l-28 -31 -40 40 c-23 22 -45 40 -50 40 -19 0 -49 41
-49 67 0 27 0 27 40 -15 l39 -43 39 25 c51 32 77 66 96 124 33 98 121 163 244
181 31 5 59 9 61 10 3 0 13 -6 23 -16z m2828 -28 c0 -39 -4 -46 -27 -58 -27
-14 -29 -13 -60 34 -35 54 -38 48 32 62 52 11 55 9 55 -38z m772 10 c10 -13
10 -65 1 -65 -5 0 -26 7 -48 14 -52 18 -61 56 -18 72 28 10 47 4 65 -21z
m-1162 -1 c0 -10 -52 -49 -74 -54 -28 -8 -32 -30 -5 -30 25 0 89 56 89 78 0
17 85 8 140 -15 19 -8 48 -16 64 -17 37 -3 86 -56 86 -94 l-1 -27 -13 31 c-15
35 -61 84 -78 84 -7 0 4 -17 23 -37 20 -21 42 -54 49 -73 24 -64 50 -99 98
-128 l47 -29 23 28 c12 15 29 41 37 56 l15 28 0 -46 c0 -52 -11 -66 -73 -89
-43 -16 -61 -40 -30 -40 10 1 42 9 71 19 l52 18 0 -22 c0 -66 -36 -103 -105
-108 -25 -2 -30 2 -35 28 -15 71 -86 130 -171 141 -36 5 -50 2 -79 -18 -33
-23 -36 -23 -37 -6 -4 45 -34 126 -55 145 -31 27 -78 42 -162 50 l-70 6 54 49
c63 57 140 96 140 72z m-3371 -95 l44 -51 50 6 c69 8 84 24 57 59 -18 22 -19
27 -6 27 22 0 89 -62 142 -131 54 -71 57 -96 5 -45 l-39 38 -133 -4 c-186 -6
-257 -36 -343 -145 -49 -62 -111 -99 -148 -90 -15 4 -41 19 -58 34 -28 23 -32
24 -29 8 6 -29 66 -65 108 -65 45 0 91 27 127 77 31 42 90 104 83 88 -2 -6
-29 -54 -59 -108 l-55 -98 -45 7 c-79 11 -185 49 -181 65 2 8 10 42 17 76 15
68 71 231 87 251 5 6 13 12 18 12 17 0 9 -37 -17 -83 -35 -64 -43 -144 -17
-176 15 -18 26 -22 44 -18 41 11 94 63 127 124 27 51 47 113 37 113 -13 0 -35
-14 -35 -23 0 -6 -14 -39 -31 -74 -31 -63 -90 -120 -112 -106 -5 3 4 11 20 18
35 15 73 60 73 87 0 74 78 153 167 168 26 4 50 8 53 9 3 0 25 -22 49 -50z
m126 21 c20 -39 20 -38 -19 -45 -47 -9 -66 -1 -99 40 l-28 35 65 0 c62 0 66
-1 81 -30z m515 26 c0 -2 -8 -10 -17 -17 -16 -13 -17 -12 -4 4 13 16 21 21 21
13z m3583 -12 c3 -4 0 -16 -8 -28 -8 -12 -12 -31 -9 -43 6 -24 30 -33 87 -33
32 0 44 7 80 45 l42 46 59 -21 c74 -25 95 -43 88 -75 -2 -14 -1 -40 2 -59 7
-37 65 -119 95 -136 16 -8 19 -6 19 13 0 12 4 38 9 57 l9 35 12 -35 c20 -65
19 -81 -10 -103 l-28 -21 -32 24 c-18 13 -38 31 -45 39 -25 35 -69 79 -88 89
-55 28 -164 47 -280 47 -115 0 -122 -1 -168 -29 -26 -16 -50 -26 -53 -23 -6 6
52 125 74 150 8 9 23 17 32 17 9 0 31 11 50 25 34 25 51 30 63 19z m-3803 -23
c-17 -32 -12 -69 12 -85 34 -24 56 -19 89 17 23 25 31 29 38 18 14 -22 -6 -73
-39 -103 -17 -16 -34 -28 -38 -28 -13 0 -81 77 -91 103 -10 26 -5 63 12 85 15
19 29 14 17 -7z m3939 -13 c-13 -18 -28 -36 -34 -40 -9 -6 -84 0 -93 8 -2 1
-1 16 3 33 7 31 7 31 76 31 l70 0 -22 -32z m-510 8 c7 -8 14 -29 17 -48 5 -30
1 -38 -35 -71 -23 -21 -39 -42 -36 -47 7 -11 -45 -2 -61 11 -19 16 -36 65 -32
95 l3 29 18 -32 c14 -27 24 -33 49 -33 17 0 40 7 50 17 20 18 24 63 6 81 -8 8
-8 12 -1 12 6 0 16 -6 22 -14z m821 -84 c0 -12 -9 -7 -30 18 -39 47 -39 76 0
32 17 -18 30 -40 30 -50z m-4970 -43 c0 -28 -17 -57 -41 -69 -19 -11 -20 -9
-17 33 2 25 6 43 10 41 4 -3 13 2 20 10 16 17 28 11 28 -15z m1495 12 c46 -20
139 -111 127 -123 -4 -4 -38 -14 -76 -22 -38 -8 -72 -19 -75 -24 -14 -23 -169
-10 -299 24 -20 5 38 108 72 129 63 38 186 46 251 16z m2795 -1 c0 -15 -41
-124 -51 -134 -5 -6 -9 6 -9 30 0 21 -3 56 -6 77 l-7 37 37 0 c20 0 36 -4 36
-10z m-725 -20 c52 -14 77 -28 97 -51 24 -29 44 -76 35 -85 -2 -2 -49 -12
-104 -23 l-101 -20 -78 24 c-44 14 -104 30 -134 36 l-55 11 35 30 c98 84 123
97 180 98 30 0 87 -9 125 -20z m1366 3 c10 -11 10 -14 2 -9 -16 9 -17 -18 -2
-46 9 -17 13 -18 20 -7 5 8 9 10 9 4 0 -5 -4 -16 -9 -24 -7 -11 -14 -4 -31 28
-27 54 -19 92 11 54z m-4684 -29 c-3 -3 -12 -4 -19 -1 -8 3 -5 6 6 6 11 1 17
-2 13 -5z m307 -24 c35 -13 111 -85 149 -140 17 -25 44 -56 59 -68 15 -13 28
-30 28 -37 0 -18 -99 -35 -240 -42 -89 -4 -119 -9 -131 -22 -13 -14 -28 -16
-82 -11 -36 3 -69 9 -73 13 -4 4 1 25 11 47 13 28 23 39 33 35 8 -3 47 -10 86
-16 39 -5 75 -14 80 -19 14 -14 141 -11 196 3 41 11 45 15 43 41 -4 53 -19 59
-119 46 -128 -16 -134 -18 -134 -41 0 -15 -5 -19 -17 -16 -10 3 -40 8 -68 12
-27 3 -85 17 -128 31 -43 13 -87 24 -98 24 -29 0 -23 28 16 76 21 26 52 49 77
58 80 31 262 46 312 26z m4239 -13 c37 -16 90 -87 85 -113 -2 -14 -13 -5 -41
33 -21 29 -50 61 -65 72 -32 24 -24 26 21 8z m-83 -41 c39 -11 65 -26 88 -51
18 -20 31 -39 28 -44 -7 -10 -125 -45 -239 -70 l-88 -19 6 28 6 27 -117 16
c-117 15 -118 15 -136 -5 -23 -27 -23 -64 -1 -72 10 -4 66 -12 125 -18 94 -10
116 -9 166 6 61 17 140 35 158 36 6 0 16 -18 22 -39 9 -36 8 -40 -12 -45 -11
-3 -49 -6 -83 -6 -35 0 -63 -4 -63 -10 0 -13 132 -11 240 4 78 10 85 13 90 36
3 15 13 26 25 28 44 7 87 25 115 49 l30 25 0 -25 c0 -13 -7 -30 -15 -37 -20
-16 -19 -28 2 -32 39 -7 -60 -48 -164 -67 -191 -35 -323 -39 -323 -8 0 6 -10
21 -22 34 -17 19 -32 23 -75 23 -61 0 -268 27 -297 39 -17 6 -10 18 60 101 53
63 90 98 114 107 45 17 282 10 360 -11z m-3633 -8 c12 -13 13 -26 6 -69 l-8
-54 -65 3 c-36 2 -66 5 -68 7 -2 1 2 23 8 47 11 41 13 44 41 40 20 -3 29 -10
29 -23 0 -28 29 -23 36 6 8 34 4 37 -57 43 -60 6 -69 -3 -69 -65 0 -42 -1 -43
-35 -43 -19 0 -35 5 -35 11 0 19 62 100 83 110 31 13 116 5 134 -13z m2823 2
c11 -7 4 -10 -28 -10 -28 0 -45 -5 -48 -15 -11 -28 1 -34 34 -18 38 19 42 16
52 -36 7 -39 7 -39 -29 -45 -20 -3 -48 -6 -63 -6 -27 0 -28 2 -28 52 0 34 6
58 17 70 17 19 68 24 93 8z m50 -20 c16 -9 60 -69 60 -83 0 -3 -18 -7 -39 -9
l-39 -3 -4 52 c-2 29 -2 53 0 53 2 0 12 -4 22 -10z m-3186 -21 c24 -19 37 -60
19 -59 -11 1 -65 80 -54 80 4 0 20 -9 35 -21z m2430 -2 c-7 -20 14 -33 84 -51
78 -20 99 -20 136 -1 43 23 51 19 70 -35 l18 -50 77 0 c42 0 150 9 241 20 191
23 200 23 200 11 0 -37 -132 -57 -425 -67 l-130 -4 -26 46 c-25 45 -26 46 -85
50 -72 5 -204 25 -204 31 0 3 8 18 17 34 17 29 37 40 27 16z m-1503 -50 c-13
-13 -73 -25 -166 -32 l-83 -7 -24 -44 c-27 -52 -7 -49 -303 -34 -252 13 -265
15 -265 46 0 29 -14 29 200 4 96 -11 205 -20 241 -20 l66 0 23 50 c25 53 54
66 80 35 23 -28 182 -7 203 27 11 17 13 17 25 1 7 -10 8 -21 3 -26z m3339 -12
c-12 -22 -77 -65 -99 -65 -6 0 -11 11 -11 24 0 14 -4 28 -10 31 -5 3 -10 15
-10 26 0 16 3 18 19 9 30 -15 87 -12 102 6 18 22 25 -1 9 -31z m-3762 10 c40
-7 75 -15 78 -18 2 -2 1 -12 -2 -22 -6 -16 -17 -17 -113 -10 -58 3 -107 8
-109 9 -1 2 1 17 4 35 6 31 9 32 38 26 17 -3 64 -12 104 -20z m2467 -6 c4 -17
5 -32 3 -34 -1 -2 -49 -5 -106 -6 -69 -2 -106 1 -114 9 -19 19 1 29 82 41 41
7 76 14 79 16 2 3 14 5 27 5 17 0 24 -8 29 -31z m-3885 -48 c30 -10 90 -25
133 -32 68 -10 78 -14 74 -30 -3 -10 0 -22 7 -27 17 -14 195 -42 265 -42 54 0
62 -2 59 -17 -3 -16 -16 -18 -123 -16 -115 2 -384 35 -431 53 -21 8 -23 13
-13 36 11 30 5 40 -26 46 -23 4 -35 48 -13 48 8 0 38 -9 68 -19z m1868 -6 c2
-18 -9 -22 -110 -42 -208 -40 -198 -41 -173 6 18 35 32 41 103 42 31 0 75 4
97 9 58 12 80 8 83 -15z m1586 9 c85 -7 89 -8 107 -38 10 -17 19 -34 19 -38 0
-15 -106 -7 -168 12 -35 11 -79 20 -98 20 -36 0 -51 17 -40 46 5 13 15 15 49
10 23 -3 82 -8 131 -12z m1541 -19 c7 -5 15 -20 18 -33 6 -24 -3 -28 -75 -35
l-38 -3 0 43 c0 38 3 43 23 43 12 0 29 5 37 10 10 6 16 5 19 -3 2 -7 10 -16
16 -22z m52 -7 c-3 -8 -6 -5 -6 6 -1 11 2 17 5 13 3 -3 4 -12 1 -19z m-4694
-15 c33 -5 37 -9 37 -35 0 -31 7 -31 -98 -7 -40 8 -52 15 -48 26 3 8 6 19 6
25 0 7 12 8 33 3 17 -3 49 -9 70 -12z m597 -73 c0 -25 -5 -31 -37 -39 -47 -13
-325 -42 -332 -36 -2 3 3 21 12 40 17 35 17 35 84 36 38 0 106 6 153 13 125
20 120 20 120 -14z m3605 6 c101 -10 110 -13 122 -36 l12 -25 -67 -3 c-37 -2
-103 2 -147 8 -44 7 -101 14 -127 17 -48 6 -55 13 -41 48 5 15 15 16 72 10 36
-4 115 -13 176 -19z m-3455 -24 l45 -7 -50 -51 -50 -52 -133 -7 c-132 -7 -180
-2 -106 10 59 10 146 36 172 52 13 8 22 23 22 38 0 28 13 30 100 17z"/>
<path d="M3297 4662 c-12 -2 -17 -11 -15 -25 4 -26 27 -29 42 -5 13 21 -1 36
-27 30z"/>
<path d="M4082 4594 c-42 -29 -17 -114 33 -114 52 0 72 95 25 120 -25 13 -32
13 -58 -6z m42 -30 c3 -9 6 -25 6 -36 0 -25 -33 -21 -38 5 -8 38 19 64 32 31z"/>
<path d="M4107 3826 c-6 -15 1 -26 15 -26 4 0 8 9 8 20 0 23 -15 27 -23 6z"/>
<path d="M4140 3830 c0 -5 4 -10 9 -10 6 0 13 5 16 10 3 6 -1 10 -9 10 -9 0
-16 -4 -16 -10z"/>
<path d="M7010 4646 c0 -31 14 -40 30 -21 10 12 10 18 0 30 -18 22 -30 18 -30
-9z"/>
<path d="M7094 4655 c-9 -21 3 -45 21 -45 23 0 37 43 16 52 -25 10 -31 9 -37
-7z"/>
<path d="M6625 4569 c-169 -11 -327 -34 -373 -56 -53 -25 -64 -64 -70 -246
l-5 -157 209 5 c257 7 472 22 533 37 25 6 56 20 69 31 21 20 22 26 22 202 l0
183 -31 6 c-39 8 -172 6 -354 -5z m270 -233 c0 -24 -2 -46 -5 -49 -3 -2 -48
-7 -100 -11 l-95 -6 35 30 c40 34 126 80 150 80 12 0 15 -10 15 -44z m-467
-17 c35 -22 61 -43 58 -46 -6 -6 -167 -6 -173 1 -10 9 23 86 37 86 8 0 44 -19
78 -41z"/>
<path d="M6997 4106 c-7 -16 1 -26 20 -26 7 0 13 9 13 20 0 23 -25 27 -33 6z"/>
<path d="M7412 4061 c4 -13 18 -16 19 -4 0 4 -5 9 -11 12 -7 2 -11 -2 -8 -8z"/>
<path d="M7320 3952 c0 -14 9 -21 31 -26 46 -9 49 -8 49 15 0 16 -4 19 -20 14
-10 -3 -28 -1 -40 5 -17 9 -20 8 -20 -8z"/>
<path d="M2888 4183 c6 -2 18 -2 25 0 6 3 1 5 -13 5 -14 0 -19 -2 -12 -5z"/>
<path d="M7784 4430 c-31 -12 -81 -78 -99 -129 -8 -25 -15 -78 -15 -120 0 -90
21 -143 71 -185 30 -25 39 -28 83 -22 139 16 212 226 130 375 -15 29 -40 61
-55 72 -28 20 -79 24 -115 9z m95 -19 c10 -6 2 -9 -23 -9 -108 0 -173 -135
-144 -297 7 -35 6 -37 -4 -15 -6 14 -11 61 -12 105 0 65 5 89 25 130 36 74
111 115 158 86z m-33 -155 c-4 -15 -1 -27 7 -30 9 -5 9 -7 0 -12 -14 -6 -18
-44 -5 -44 27 1 35 19 24 59 -9 36 -8 40 4 30 20 -16 19 -113 -2 -133 -57 -58
-124 74 -71 142 5 6 18 12 29 12 16 0 19 -5 14 -24z m-73 -255 c-4 -7 -34 21
-45 43 -7 14 -2 11 18 -9 16 -16 28 -32 27 -34z"/>
<path d="M2599 4455 c-41 -22 -61 -62 -67 -132 -8 -106 36 -174 116 -176 29
-1 41 6 67 36 49 57 59 140 26 214 -30 64 -87 88 -142 58z m75 -25 c50 -19 80
-124 51 -182 -28 -53 -45 -68 -82 -68 -105 0 -137 175 -44 237 39 26 41 26 75
13z"/>
<path d="M3513 3653 c15 -2 39 -2 55 0 15 2 2 4 -28 4 -30 0 -43 -2 -27 -4z"/>
<path d="M3575 3380 c-8 -13 4 -32 16 -25 12 8 12 35 0 35 -6 0 -13 -4 -16
-10z"/>
<path d="M3196 2605 c-4 -11 2 -15 26 -15 17 0 46 -10 65 -21 34 -21 35 -21
22 -2 -27 44 -101 69 -113 38z"/>
<path d="M3229 2480 c-1 -8 -1 -22 0 -32 3 -28 -21 -33 -41 -8 -23 28 -35 19
-20 -15 9 -18 19 -25 41 -25 25 0 29 4 34 33 2 17 1 39 -4 47 -7 13 -9 13 -10
0z"/>
<path d="M3380 2370 c0 -5 7 -10 15 -10 8 0 15 5 15 10 0 6 -7 10 -15 10 -8 0
-15 -4 -15 -10z"/>
<path d="M7232 3288 c-16 -16 -15 -33 1 -47 19 -15 50 9 45 35 -4 23 -29 29
-46 12z m28 -23 c0 -8 -4 -15 -10 -15 -5 0 -10 7 -10 15 0 8 5 15 10 15 6 0
10 -7 10 -15z"/>
<path d="M7560 2706 c0 -9 5 -16 10 -16 6 0 10 4 10 9 0 6 -4 13 -10 16 -5 3
-10 -1 -10 -9z"/>
<path d="M3140 3330 c0 -22 16 -43 30 -38 8 2 5 11 -9 28 -14 17 -20 20 -21
10z"/>
<path d="M2546 3366 c-36 -21 -54 -44 -55 -71 0 -5 6 1 13 15 8 15 32 31 57
40 23 8 44 21 47 28 6 18 -18 14 -62 -12z"/>
<path d="M2486 3245 c-8 -23 -8 -35 3 -35 13 0 23 32 13 42 -6 6 -12 3 -16 -7z"/>
<path d="M7950 3219 c0 -17 4 -28 10 -24 6 3 10 17 10 31 0 13 -4 24 -10 24
-5 0 -10 -14 -10 -31z"/>
<path d="M3424 3244 c3 -8 2 -12 -3 -9 -13 8 -21 -8 -12 -23 9 -15 37 -6 45
15 8 19 -1 33 -21 33 -10 0 -13 -6 -9 -16z"/>
<path d="M3456 3015 c-23 -23 -20 -62 5 -75 30 -17 51 5 47 49 -3 41 -26 52
-52 26z m34 -30 c0 -8 -7 -15 -15 -15 -8 0 -15 7 -15 15 0 8 7 15 15 15 8 0
15 -7 15 -15z"/>
<path d="M3760 2660 c0 -5 5 -10 10 -10 6 0 10 5 10 10 0 6 -4 10 -10 10 -5 0
-10 -4 -10 -10z"/>
<path d="M4117 2664 c-10 -11 -8 -54 2 -54 14 0 25 40 14 51 -5 5 -12 6 -16 3z"/>
<path d="M4076 2634 c-9 -24 -7 -34 7 -34 6 0 13 11 13 25 2 28 -11 34 -20 9z"/>
<path d="M3453 2625 c-8 -21 26 -57 51 -53 12 2 22 12 24 22 7 36 -62 64 -75
31z m55 -17 c-3 -7 -11 -13 -18 -13 -7 0 -15 6 -17 13 -3 7 4 12 17 12 13 0
20 -5 18 -12z"/>
<path d="M6422 3248 c-15 -15 -16 -45 -2 -53 15 -9 47 3 54 20 14 36 -25 60
-52 33z m38 -18 c0 -5 -4 -10 -9 -10 -6 0 -13 5 -16 10 -3 6 1 10 9 10 9 0 16
-4 16 -10z"/>
<path d="M7062 2998 c-30 -30 1 -94 33 -68 25 20 13 80 -15 80 -3 0 -11 -5
-18 -12z m28 -33 c0 -8 -4 -15 -10 -15 -5 0 -10 7 -10 15 0 8 5 15 10 15 6 0
10 -7 10 -15z"/>
<path d="M6420 2650 c0 -19 7 -33 21 -40 25 -14 49 -6 49 14 0 9 -6 13 -14 10
-8 -3 -23 -1 -33 6 -16 10 -15 10 5 5 26 -8 29 3 5 21 -27 20 -33 17 -33 -16z"/>
<path d="M7040 2625 c-19 -20 -21 -27 -10 -40 16 -19 25 -19 55 1 21 13 22 19
13 40 -14 30 -29 30 -58 -1z m40 -14 c0 -5 -7 -11 -15 -15 -9 -3 -15 0 -15 9
0 8 7 15 15 15 8 0 15 -4 15 -9z"/>
<path d="M7780 3039 c0 -4 7 -20 15 -35 8 -16 15 -22 15 -13 0 14 -29 61 -30
48z"/>
<path d="M2485 2595 c-34 -33 -33 -77 1 -104 35 -27 59 -26 89 4 32 31 32 66
-1 99 -33 32 -58 33 -89 1z m73 -17 c24 -24 8 -78 -24 -78 -17 0 -44 28 -44
45 0 17 27 45 44 45 6 0 17 -5 24 -12z"/>
<path d="M7984 2612 c-37 -25 -46 -110 -14 -142 29 -29 64 -25 95 11 29 36 33
97 5 91 -8 -2 -12 0 -7 4 4 4 0 16 -10 26 -16 18 -49 23 -69 10z m69 -59 c9
-21 9 -27 -1 -31 -6 -2 -12 -10 -12 -18 0 -20 -25 -28 -49 -14 -26 13 -28 65
-5 91 20 23 49 10 67 -28z"/>
<path d="M4350 2627 c0 -3 5 -18 10 -32 17 -44 -1 -52 -32 -15 -34 42 -36 29
-4 -41 17 -38 25 -47 25 -31 1 12 8 25 16 28 25 10 28 42 6 70 -12 15 -21 24
-21 21z"/>
<path d="M7310 2441 c0 -26 32 -59 39 -40 2 7 -1 15 -7 17 -7 2 -12 12 -12 23
0 10 -4 19 -10 19 -5 0 -10 -9 -10 -19z"/>
<path d="M7370 2435 c-13 -35 -13 -40 3 -26 8 6 17 8 20 4 4 -3 7 3 7 15 0 32
-19 36 -30 7z"/>
<path d="M7350 2118 l-55 -29 44 6 c53 7 81 21 81 40 0 19 -4 18 -70 -17z"/>
<path d="M2657 2073 c-6 -13 14 -93 24 -93 10 0 12 43 3 78 -6 22 -19 29 -27
15z"/>
<path d="M2736 2064 c-39 -39 -2 -99 42 -68 17 12 21 21 16 42 -11 42 -32 52
-58 26z m34 -34 c0 -19 -11 -26 -23 -14 -8 8 3 34 14 34 5 0 9 -9 9 -20z"/>
<path d="M2610 2000 c0 -43 3 -50 19 -50 11 0 23 5 26 10 3 6 -1 10 -10 10
-14 0 -16 8 -13 40 2 28 0 40 -9 40 -9 0 -13 -16 -13 -50z"/>
<path d="M3000 1903 c0 -4 5 -15 10 -23 8 -13 10 -13 10 2 0 9 -4 20 -10 23
-5 3 -10 3 -10 -2z"/>
<path d="M7851 2013 c-12 -43 -1 -63 36 -63 13 0 33 -5 44 -10 16 -9 21 -7 29
16 12 30 6 44 -12 26 -20 -20 -27 -13 -21 23 4 28 2 35 -10 35 -11 0 -15 -8
-14 -27 1 -19 -3 -28 -15 -31 -20 -4 -26 32 -8 43 6 4 8 11 5 16 -12 18 -24 8
-34 -28z"/>
<path d="M3254 1808 c-3 -5 82 -8 188 -7 139 0 186 3 168 10 -28 12 -349 8
-356 -3z"/>
<path d="M6915 1930 c-4 -6 35 -10 109 -10 71 0 116 4 116 10 0 6 -43 10 -109
10 -63 0 -112 -4 -116 -10z"/>
<path d="M6925 1810 c-4 -7 55 -10 169 -10 106 0 177 4 181 10 4 7 -55 10
-169 10 -106 0 -177 -4 -181 -10z"/>
<path d="M7063 1663 c-46 -2 -83 -7 -83 -11 0 -4 79 -6 175 -4 102 2 175 7
175 12 0 10 -80 10 -267 3z"/>
<path d="M7178 1613 c12 -2 30 -2 40 0 9 3 -1 5 -23 4 -22 0 -30 -2 -17 -4z"/>
<path d="M6980 1605 c0 -2 23 -16 50 -30 28 -14 50 -21 50 -16 0 6 -21 19 -46
31 -50 21 -54 23 -54 15z"/>
<path d="M3993 1813 c15 -2 37 -2 50 0 12 2 0 4 -28 4 -27 0 -38 -2 -22 -4z"/>
<path d="M3896 1501 c-4 -7 -5 -15 -2 -18 9 -9 19 4 14 18 -4 11 -6 11 -12 0z"/>
<path d="M3890 1440 c0 -5 4 -10 9 -10 6 0 13 5 16 10 3 6 -1 10 -9 10 -9 0
-16 -4 -16 -10z"/>
<path d="M6648 1493 c7 -3 16 -2 19 1 4 3 -2 6 -13 5 -11 0 -14 -3 -6 -6z"/>
<path d="M6625 1380 c27 -12 43 -12 25 0 -8 5 -22 9 -30 9 -10 0 -8 -3 5 -9z"/>
<path d="M3100 1450 c0 -5 7 -10 15 -10 8 0 15 5 15 10 0 6 -7 10 -15 10 -8 0
-15 -4 -15 -10z"/>
<path d="M3087 1363 c-15 -14 -6 -23 23 -23 20 0 30 5 30 15 0 15 -40 21 -53
8z"/>
<path d="M7488 1397 l4 -64 -34 5 c-18 2 -38 9 -45 14 -7 5 -14 5 -18 -2 -12
-19 3 -25 57 -25 l53 0 -1 65 c-1 35 -5 65 -10 67 -5 2 -8 -25 -6 -60z"/>
<path d="M7420 1440 c0 -5 9 -10 20 -10 11 0 20 5 20 10 0 6 -9 10 -20 10 -11
0 -20 -4 -20 -10z"/>
<path d="M3982 1293 c21 -20 40 -34 44 -30 8 8 -50 67 -68 67 -7 0 4 -17 24
-37z"/>
<path d="M3920 1265 c0 -9 6 -12 15 -9 8 4 12 10 9 15 -8 14 -24 10 -24 -6z"/>
<path d="M3890 1190 c0 -13 48 -35 57 -27 8 8 -26 36 -44 37 -7 0 -13 -5 -13
-10z"/>
<path d="M6623 1287 c-13 -5 -23 -16 -23 -24 0 -10 5 -11 19 -3 20 10 36 29
30 34 -2 2 -14 -1 -26 -7z"/>
<path d="M6650 1191 c0 -11 -9 -21 -21 -24 -12 -3 -18 -10 -14 -17 5 -8 13 -7
28 3 23 15 36 57 18 57 -6 0 -11 -8 -11 -19z"/>
<path d="M3060 1236 c0 -9 7 -16 16 -16 17 0 14 22 -4 28 -7 2 -12 -3 -12 -12z"/>
<path d="M1154 6308 c9 -1891 10 -3477 1 -4145 -5 -379 -5 -563 2 -563 30 0
30 21 31 2560 0 828 -1 1570 -3 1650 -2 80 -3 533 -4 1008 -1 796 -2 862 -18
862 -15 0 -16 -98 -9 -1372z"/>
<path d="M1461 7633 c328 -362 529 -575 529 -560 0 4 -60 72 -132 150 -73 78
-151 162 -174 187 -204 225 -247 270 -256 270 -6 0 9 -21 33 -47z"/>
<path d="M8010 7300 c0 -236 -4 -380 -10 -380 -5 0 -47 9 -92 19 -216 51 -642
76 -1015 61 -456 -19 -576 -34 -701 -91 -132 -59 -262 -180 -316 -292 -41 -86
-59 -303 -36 -428 16 -84 115 -279 141 -279 20 0 7 51 -26 106 -72 118 -80
153 -80 319 0 176 12 232 64 312 41 64 154 165 229 206 81 44 230 77 402 88
261 18 691 23 865 10 421 -31 528 -51 630 -116 65 -41 91 -73 142 -171 56
-108 77 -213 71 -359 -6 -124 -8 -131 -100 -268 -66 -98 -90 -114 -209 -141
-115 -26 -442 -52 -789 -62 -154 -4 -221 -10 -237 -20 -14 -9 -32 -44 -52
-107 -29 -86 -54 -222 -44 -239 2 -5 0 -8 -5 -8 -11 0 -48 173 -58 267 -4 35
-12 70 -18 79 -14 19 -90 27 -371 43 -133 7 -198 16 -248 31 -39 12 -86 20
-110 18 l-42 -4 59 -27 c97 -46 158 -56 425 -72 140 -8 256 -16 257 -18 2 -2
8 -44 14 -93 14 -128 87 -384 110 -384 5 0 11 39 15 88 13 172 56 365 87 389
8 6 134 13 303 16 160 4 319 11 355 16 36 5 111 12 167 16 l102 7 4 -94 3 -93
2 96 2 96 38 7 c20 3 48 9 61 12 22 7 23 6 16 -37 -3 -24 -8 -107 -9 -184 -3
-98 -2 -115 3 -55 9 129 19 66 17 -110 l-1 -155 -32 -31 c-31 -31 -34 -31 -99
-25 -69 8 -73 10 -106 70 -10 18 -25 31 -36 31 -22 0 -35 -27 -76 -162 -14
-48 -31 -90 -36 -93 -18 -11 -10 -78 14 -119 91 -155 394 -149 461 9 9 22 11
63 5 160 -9 145 -14 165 -41 165 -18 0 -19 12 -19 279 l0 279 34 12 c43 14 80
57 156 179 39 62 61 109 66 139 12 82 -3 290 -26 367 -40 130 -120 248 -203
300 l-43 28 4 388 4 389 -21 0 -21 0 0 -380z m7 -1612 c-2 -13 -4 -5 -4 17 -1
22 1 32 4 23 2 -10 2 -28 0 -40z m-233 -427 l18 -38 84 -6 84 -5 42 39 c47 42
53 45 64 27 10 -15 11 -248 2 -248 -4 0 -5 -6 -2 -14 9 -24 -65 -83 -127 -100
-74 -21 -126 -13 -207 31 -83 46 -105 101 -62 155 10 14 17 28 14 30 -2 3 -1
16 5 29 21 56 40 105 45 122 9 27 22 20 40 -22z"/>
<path d="M8021 5234 c-38 -42 -36 -58 7 -62 l32 -3 0 50 c0 28 -2 51 -4 51 -2
0 -18 -16 -35 -36z"/>
<path d="M7752 5219 c-19 -31 -14 -41 13 -23 28 18 31 29 12 37 -7 3 -19 -3
-25 -14z"/>
<path d="M7746 5136 c-24 -20 -27 -28 -21 -55 3 -17 11 -31 16 -31 18 0 54 22
71 44 21 26 22 36 4 36 -8 0 -16 7 -20 15 -7 20 -16 19 -50 -9z"/>
<path d="M7915 5118 c-30 -23 -32 -49 -7 -71 28 -26 70 -22 83 7 28 60 -25
104 -76 64z m36 -31 c-13 -13 -26 -3 -16 12 3 6 11 8 17 5 6 -4 6 -10 -1 -17z"/>
<path d="M7840 5068 c0 -9 -9 -20 -20 -23 -24 -8 -25 -18 -5 -35 16 -13 55 -4
55 13 -1 7 -7 23 -15 37 -10 18 -14 20 -15 8z"/>
<path d="M8564 7583 c-49 -54 -176 -187 -283 -296 -107 -108 -191 -201 -187
-205 4 -4 95 83 201 193 107 110 199 199 204 198 11 -3 151 131 151 144 0 4
-35 -26 -77 -67 -88 -86 -79 -69 19 39 58 63 78 91 65 91 -2 0 -44 -44 -93
-97z"/>
<path d="M8683 7228 c4 -249 11 -1009 17 -1688 6 -679 15 -1523 20 -1875 6
-352 11 -732 11 -845 1 -113 5 -218 9 -235 11 -45 11 1093 0 1428 -5 161 -15
965 -20 1787 -11 1572 -16 1880 -33 1880 -7 0 -8 -152 -4 -452z"/>
<path d="M9060 7493 c0 -104 5 -195 10 -203 6 -10 10 53 10 188 0 128 -4 202
-10 202 -6 0 -10 -69 -10 -187z"/>
<path d="M9304 7088 c4 -353 11 -597 16 -602 7 -7 10 210 10 592 0 554 -1 602
-17 602 -15 0 -16 -44 -9 -592z"/>
<path d="M1983 7385 c0 -38 2 -53 4 -32 2 20 2 52 0 70 -2 17 -4 1 -4 -38z"/>
<path d="M461 7293 c1 -101 4 -127 10 -98 12 58 11 235 -1 235 -6 0 -10 -52
-9 -137z"/>
<path d="M9534 7285 c3 -71 6 -154 6 -184 0 -30 3 -52 6 -48 10 10 4 329 -7
346 -7 11 -9 -24 -5 -114z"/>
<path d="M9573 7305 c0 -27 2 -38 4 -22 2 15 2 37 0 50 -2 12 -4 0 -4 -28z"/>
<path d="M7870 7255 c0 -25 -1 -48 -2 -52 -1 -5 -5 -23 -9 -42 -6 -28 -5 -31
6 -20 16 18 31 159 16 159 -6 0 -11 -20 -11 -45z"/>
<path d="M1980 7261 c0 -11 5 -23 10 -26 6 -4 10 5 10 19 0 14 -4 26 -10 26
-5 0 -10 -9 -10 -19z"/>
<path d="M7837 7273 c-11 -10 -8 -43 3 -43 6 0 10 11 10 25 0 26 -2 29 -13 18z"/>
<path d="M9071 7260 c-1 -16 1 -2512 3 -2567 1 -18 4 -33 9 -33 9 0 7 2488 -3
2560 -4 30 -8 48 -9 40z"/>
<path d="M1030 7161 c0 -44 5 -83 10 -86 6 -4 10 25 10 79 0 51 -4 86 -10 86
-6 0 -10 -33 -10 -79z"/>
<path d="M1084 7120 c0 -63 1 -89 3 -57 2 31 2 83 0 115 -2 31 -3 5 -3 -58z"/>
<path d="M9590 7145 c0 -25 5 -45 10 -45 6 0 10 20 10 45 0 25 -4 45 -10 45
-5 0 -10 -20 -10 -45z"/>
<path d="M3070 7153 c-345 -24 -398 -36 -550 -122 -153 -87 -212 -147 -236
-243 -31 -117 -46 -281 -41 -428 6 -183 39 -297 116 -407 112 -159 202 -193
559 -215 108 -6 390 -12 625 -12 l428 -1 6 -25 c10 -40 -15 -209 -43 -293 -14
-43 -24 -81 -21 -84 10 -9 76 52 137 126 31 39 97 115 144 170 l87 99 297 5
c251 4 310 8 382 25 185 44 300 102 381 191 128 139 161 272 134 538 -25 252
-58 353 -143 442 -89 93 -216 164 -342 190 -106 23 -450 34 -1080 36 -349 0
-669 4 -710 7 -41 3 -100 3 -130 1z m1005 -57 c655 -2 929 -22 1037 -77 139
-71 235 -170 268 -277 41 -133 63 -357 48 -506 -11 -110 -20 -130 -113 -247
-63 -78 -120 -117 -234 -159 -137 -50 -241 -62 -544 -64 l-268 -1 -77 -80
c-43 -44 -104 -109 -136 -145 -43 -49 -57 -59 -52 -40 4 14 9 70 12 125 8 135
5 138 -118 145 -51 3 -158 2 -238 -2 -80 -4 -203 -3 -275 2 -71 5 -236 14
-365 20 -392 19 -491 41 -573 129 -57 61 -90 118 -123 216 -38 114 -45 321
-16 517 24 157 41 199 108 256 53 45 245 145 313 162 92 24 379 39 626 33 132
-4 456 -7 720 -7z"/>
<path d="M3200 6830 c0 -27 -2 -30 -25 -24 -31 8 -52 -8 -60 -47 -11 -48 15
-78 65 -76 l40 1 0 88 c0 52 -4 88 -10 88 -5 0 -10 -14 -10 -30z m-2 -73 c6
-52 -39 -78 -59 -33 -15 32 4 68 34 64 16 -2 23 -11 25 -31z"/>
<path d="M3540 6825 c0 -19 5 -35 10 -35 6 0 10 16 10 35 0 19 -4 35 -10 35
-5 0 -10 -16 -10 -35z"/>
<path d="M4240 6830 c0 -27 -2 -29 -28 -24 -37 8 -62 -17 -62 -61 0 -53 47
-84 78 -53 9 9 12 9 12 0 0 -7 5 -12 10 -12 6 0 10 37 10 90 0 53 -4 90 -10
90 -5 0 -10 -13 -10 -30z m-12 -52 c27 -27 7 -78 -29 -78 -21 0 -33 32 -25 66
7 26 34 32 54 12z"/>
<path d="M2660 6843 c0 -5 11 -30 25 -57 14 -27 25 -62 25 -78 0 -15 5 -28 10
-28 6 0 10 16 10 35 0 20 11 58 25 85 19 37 22 50 12 50 -8 0 -22 -19 -33 -41
l-18 -41 -20 41 c-18 37 -36 54 -36 34z"/>
<path d="M3610 6826 c0 -8 -6 -17 -12 -19 -10 -4 -10 -7 -1 -14 6 -5 13 -31
15 -58 3 -43 6 -50 26 -53 12 -2 22 1 22 7 0 6 -7 11 -15 11 -11 0 -15 12 -15
45 0 33 4 45 15 45 8 0 15 5 15 10 0 6 -7 10 -15 10 -8 0 -15 7 -15 15 0 8 -4
15 -10 15 -5 0 -10 -6 -10 -14z"/>
<path d="M4360 6826 c0 -8 -6 -17 -12 -20 -10 -5 -10 -7 0 -12 7 -3 12 -24 12
-49 0 -47 19 -72 47 -60 16 6 16 8 -4 16 -19 7 -23 16 -23 48 0 31 4 40 23 46
l22 8 -22 4 c-13 2 -23 11 -23 19 0 8 -4 14 -10 14 -5 0 -10 -6 -10 -14z"/>
<path d="M2790 6790 c-39 -39 -14 -110 40 -110 18 0 34 8 44 22 48 68 -27 145
-84 88z m68 -12 c7 -7 12 -21 12 -33 0 -46 -53 -62 -71 -21 -21 45 26 87 59
54z"/>
<path d="M2920 6756 c0 -62 11 -75 63 -73 l37 1 0 63 c0 76 -18 85 -22 11 -3
-49 -5 -53 -28 -53 -23 0 -25 4 -28 53 -4 68 -22 67 -22 -2z"/>
<path d="M3270 6790 c-39 -39 -14 -110 40 -110 18 0 34 8 44 22 48 68 -27 145
-84 88z m68 -12 c7 -7 12 -21 12 -33 0 -46 -53 -62 -71 -21 -21 45 26 87 59
54z"/>
<path d="M3400 6745 c0 -37 4 -65 10 -65 6 0 10 19 10 43 0 46 13 67 42 67 15
0 18 -9 18 -55 0 -30 5 -55 10 -55 6 0 10 27 10 60 0 55 -2 60 -25 66 -15 4
-32 1 -40 -6 -10 -9 -15 -9 -15 -1 0 6 -4 11 -10 11 -6 0 -10 -28 -10 -65z"/>
<path d="M3750 6745 c0 -37 4 -65 10 -65 6 0 10 20 10 44 0 46 19 72 45 62 11
-4 15 -20 15 -56 0 -28 5 -50 10 -50 7 0 10 22 8 56 -3 66 -23 88 -58 66 -12
-7 -20 -8 -20 -2 0 5 -4 10 -10 10 -6 0 -10 -28 -10 -65z"/>
<path d="M3900 6790 c-54 -54 16 -142 80 -100 11 7 6 10 -22 10 -27 0 -40 6
-48 20 -10 19 -8 20 35 20 38 0 45 3 45 19 0 25 -26 51 -51 51 -10 0 -28 -9
-39 -20z m68 -17 c2 -9 -7 -13 -27 -13 -30 0 -39 9 -24 24 11 10 46 3 51 -11z"/>
<path d="M4036 6794 c-9 -9 -16 -32 -16 -55 0 -32 5 -41 24 -50 24 -11 76 -5
76 9 0 4 -17 7 -37 7 -28 0 -38 5 -41 18 -3 14 4 17 37 17 36 0 41 3 41 23 0
45 -52 64 -84 31z m62 -21 c2 -9 -7 -13 -27 -13 -30 0 -39 9 -24 24 11 10 46
3 51 -11z"/>
<path d="M4456 6794 c-23 -23 -21 -91 3 -104 47 -25 91 3 91 58 0 36 -22 62
-55 62 -13 0 -31 -7 -39 -16z m70 -28 c10 -41 -4 -68 -34 -64 -21 2 -28 9 -30
31 -5 41 4 57 32 57 19 0 27 -7 32 -24z"/>
<path d="M2670 6450 c0 -53 4 -90 10 -90 6 0 10 37 10 90 0 53 -4 90 -10 90
-6 0 -10 -37 -10 -90z"/>
<path d="M3970 6450 c0 -53 4 -90 10 -90 6 0 10 19 10 43 0 46 13 67 42 67 15
0 18 -9 18 -55 0 -30 5 -55 10 -55 6 0 10 26 10 59 0 51 -3 61 -20 66 -11 3
-29 3 -40 0 -17 -5 -20 -2 -20 24 0 17 -4 31 -10 31 -6 0 -10 -37 -10 -90z"/>
<path d="M4500 6452 l0 -88 40 -1 c30 -2 43 3 55 20 35 50 6 114 -47 103 -26
-5 -28 -3 -28 24 0 17 -4 30 -10 30 -6 0 -10 -36 -10 -88z m81 -6 c20 -43 -18
-85 -49 -54 -25 25 -8 78 25 78 7 0 18 -11 24 -24z"/>
<path d="M4110 6520 c0 -5 4 -10 9 -10 6 0 13 5 16 10 3 6 -1 10 -9 10 -9 0
-16 -4 -16 -10z"/>
<path d="M3890 6506 c0 -8 -6 -17 -12 -19 -10 -4 -10 -7 -1 -14 6 -5 13 -31
15 -58 3 -43 6 -50 26 -53 12 -2 22 1 22 7 0 6 -7 11 -15 11 -11 0 -15 12 -15
45 0 33 4 45 15 45 8 0 15 5 15 10 0 6 -7 10 -15 10 -8 0 -15 7 -15 15 0 8 -4
15 -10 15 -5 0 -10 -6 -10 -14z"/>
<path d="M2740 6470 c-54 -54 16 -142 80 -100 11 7 6 10 -22 10 -27 0 -40 6
-48 20 -10 19 -8 20 35 20 38 0 45 3 45 19 0 25 -26 51 -51 51 -10 0 -28 -9
-39 -20z m68 -17 c2 -9 -7 -13 -27 -13 -30 0 -39 9 -24 24 11 10 46 3 51 -11z"/>
<path d="M2873 6483 c-27 -10 -11 -21 22 -16 46 7 48 -19 3 -32 -25 -8 -34
-16 -36 -37 -3 -29 14 -38 66 -35 20 1 22 6 22 58 0 43 -4 58 -16 63 -18 7
-43 7 -61 -1z m55 -80 c-4 -22 -48 -31 -48 -10 0 19 10 27 32 27 13 0 18 -6
16 -17z"/>
<path d="M2990 6425 c0 -37 4 -65 10 -65 6 0 10 16 10 36 0 42 15 74 35 74 8
0 15 5 15 10 0 14 -23 13 -38 -2 -9 -9 -12 -9 -12 0 0 7 -4 12 -10 12 -6 0
-10 -28 -10 -65z"/>
<path d="M3090 6423 c0 -76 18 -84 22 -11 2 42 7 54 22 56 25 5 36 -14 36 -65
0 -24 5 -43 10 -43 13 0 13 86 0 110 -8 15 -20 19 -50 17 l-40 -2 0 -62z"/>
<path d="M3297 6472 c-22 -24 -22 -76 -1 -97 10 -10 29 -15 47 -13 44 4 44 23
0 23 -28 0 -38 5 -41 18 -3 14 4 17 37 17 47 0 54 8 38 41 -16 31 -57 37 -80
11z m63 -17 c0 -10 -10 -15 -30 -15 -29 0 -38 9 -23 23 13 13 53 7 53 -8z"/>
<path d="M3423 6425 c26 -79 43 -82 68 -10 20 58 23 75 10 75 -4 0 -14 -20
-21 -45 -7 -25 -16 -45 -19 -45 -4 0 -13 19 -21 42 -26 71 -41 56 -17 -17z"/>
<path d="M3547 6472 c-22 -24 -22 -76 -1 -97 10 -10 29 -15 47 -13 44 4 44 23
0 23 -28 0 -38 5 -41 18 -3 14 4 17 37 17 47 0 54 8 38 41 -16 31 -57 37 -80
11z m63 -17 c0 -10 -10 -15 -30 -15 -29 0 -38 9 -23 23 13 13 53 7 53 -8z"/>
<path d="M3670 6424 c0 -74 17 -87 22 -17 2 38 8 50 26 59 27 13 19 22 -20 22
-28 0 -28 -1 -28 -64z"/>
<path d="M3750 6482 c0 -5 9 -35 20 -67 11 -32 17 -68 14 -81 -4 -14 -2 -24 4
-24 6 0 24 41 41 91 17 51 25 89 19 87 -7 -3 -19 -26 -28 -54 l-17 -49 -17 53
c-10 28 -22 52 -27 52 -5 0 -9 -4 -9 -8z"/>
<path d="M4110 6425 c0 -37 4 -65 10 -65 6 0 10 28 10 65 0 37 -4 65 -10 65
-6 0 -10 -28 -10 -65z"/>
<path d="M4180 6423 c0 -76 18 -84 22 -11 2 42 7 54 22 56 25 5 36 -14 36 -65
0 -24 5 -43 10 -43 13 0 13 86 0 110 -8 15 -20 19 -50 17 l-40 -2 0 -62z"/>
<path d="M4322 6477 c-6 -7 -11 -33 -10 -58 0 -24 -3 -52 -7 -62 -16 -37 40
-61 86 -37 23 13 25 55 3 64 -9 3 -27 6 -40 6 -13 0 -24 5 -24 10 0 6 11 10
24 10 27 0 41 14 50 53 6 26 5 27 -33 27 -21 0 -43 -6 -49 -13z m58 -22 c0 -9
-7 -18 -16 -22 -18 -7 -39 11 -30 26 11 17 46 13 46 -4z m8 -102 c-4 -20 -45
-30 -60 -15 -16 16 1 32 33 32 24 0 30 -4 27 -17z"/>
<path d="M4644 6425 c18 -50 22 -74 15 -91 -6 -18 -5 -24 4 -24 7 0 25 37 40
83 30 92 31 97 18 97 -4 0 -14 -20 -21 -45 -7 -25 -16 -45 -19 -45 -4 0 -13
19 -21 42 -8 23 -21 43 -28 46 -8 2 -4 -19 12 -63z"/>
<path d="M2670 6120 c0 -53 4 -90 10 -90 6 0 10 20 10 44 0 46 19 72 45 62 11
-4 15 -20 15 -56 0 -27 5 -50 10 -50 6 0 10 24 10 54 0 61 -16 82 -55 72 -23
-6 -25 -3 -25 24 0 16 -4 30 -10 30 -6 0 -10 -37 -10 -90z"/>
<path d="M3170 6176 c0 -8 -6 -17 -12 -19 -10 -4 -10 -7 -1 -14 6 -5 13 -31
15 -58 3 -43 6 -50 26 -53 12 -2 22 1 22 7 0 6 -7 11 -15 11 -11 0 -15 12 -15
45 0 33 4 45 15 45 8 0 15 5 15 10 0 6 -7 10 -15 10 -8 0 -15 7 -15 15 0 8 -4
15 -10 15 -5 0 -10 -6 -10 -14z"/>
<path d="M2820 6140 c-54 -54 16 -142 80 -100 11 7 6 10 -22 10 -27 0 -40 6
-48 20 -10 19 -8 20 35 20 38 0 45 3 45 19 0 25 -26 51 -51 51 -10 0 -28 -9
-39 -20z m68 -17 c2 -9 -7 -13 -27 -13 -30 0 -39 9 -24 24 11 10 46 3 51 -11z"/>
<path d="M2953 6153 c-23 -9 -14 -18 19 -18 42 0 46 -19 6 -30 -28 -8 -33 -15
-33 -40 0 -28 2 -30 43 -31 l42 -2 0 52 c0 29 -5 57 -12 64 -12 12 -43 15 -65
5z m55 -80 c-4 -22 -48 -31 -48 -10 0 19 10 27 32 27 13 0 18 -6 16 -17z"/>
<path d="M3070 6095 c0 -75 17 -89 22 -17 2 38 7 49 26 57 12 5 22 13 22 17 0
12 -25 9 -38 -4 -9 -9 -12 -9 -12 0 0 7 -4 12 -10 12 -6 0 -10 -28 -10 -65z"/>
<path d="M3250 6045 c0 -8 7 -15 15 -15 8 0 15 7 15 15 0 8 -7 15 -15 15 -8 0
-15 -7 -15 -15z"/>
<path d="M3320 6045 c0 -8 7 -15 15 -15 8 0 15 7 15 15 0 8 -7 15 -15 15 -8 0
-15 -7 -15 -15z"/>
<path d="M3390 6045 c0 -8 5 -15 10 -15 6 0 10 7 10 15 0 8 -4 15 -10 15 -5 0
-10 -7 -10 -15z"/>
<path d="M464 6950 c0 -80 2 -112 3 -72 2 39 2 105 0 145 -1 39 -3 7 -3 -73z"/>
<path d="M8886 6809 c-37 -34 -65 -64 -62 -66 7 -7 123 88 131 106 12 29 -4
20 -69 -40z"/>
<path d="M8880 6745 c-24 -24 -42 -47 -39 -50 3 -2 27 18 54 45 27 28 45 50
39 50 -5 0 -30 -20 -54 -45z"/>
<path d="M6660 6690 c0 -96 17 -125 22 -38 2 42 7 54 22 56 25 5 36 -14 36
-65 0 -24 5 -43 10 -43 13 0 13 86 -1 112 -8 16 -17 19 -40 14 -27 -5 -29 -3
-29 24 0 17 -4 30 -10 30 -6 0 -10 -37 -10 -90z"/>
<path d="M7650 6690 c0 -53 4 -90 10 -90 6 0 10 19 10 43 0 46 13 67 42 67 15
0 18 -9 18 -55 0 -30 5 -55 10 -55 6 0 10 26 10 59 0 51 -3 61 -20 66 -11 3
-29 3 -40 0 -17 -5 -20 -2 -20 24 0 17 -4 31 -10 31 -6 0 -10 -37 -10 -90z"/>
<path d="M8881 6694 c-45 -47 -80 -88 -76 -92 6 -6 175 157 175 170 0 20 -22
2 -99 -78z"/>
<path d="M6154 6763 c-32 -23 -20 -63 26 -86 14 -7 25 -21 25 -32 0 -17 -6
-20 -38 -19 -43 2 -47 -19 -4 -24 70 -8 92 54 32 89 -46 28 -49 63 -5 57 19
-3 29 -1 27 6 -4 13 -48 19 -63 9z"/>
<path d="M6570 6746 c0 -8 -6 -17 -12 -20 -10 -5 -10 -7 0 -12 7 -3 12 -24 12
-48 0 -45 13 -66 42 -66 24 0 23 16 -2 23 -16 4 -20 14 -20 46 0 34 3 41 20
41 11 0 20 5 20 10 0 6 -9 10 -20 10 -11 0 -20 7 -20 15 0 8 -4 15 -10 15 -5
0 -10 -6 -10 -14z"/>
<path d="M6273 6723 c-23 -9 -14 -18 19 -18 42 0 46 -19 6 -30 -28 -8 -33 -15
-33 -40 0 -28 2 -30 43 -31 l42 -2 0 52 c0 29 -5 57 -12 64 -12 12 -43 15 -65
5z m55 -80 c-4 -22 -48 -31 -48 -10 0 19 10 27 32 27 13 0 18 -6 16 -17z"/>
<path d="M6370 6726 c0 -3 9 -31 21 -62 13 -35 19 -67 15 -86 -11 -58 16 -23
45 57 32 86 33 95 20 95 -5 0 -17 -24 -27 -52 l-17 -53 -17 49 c-9 28 -22 52
-28 54 -7 2 -12 1 -12 -2z"/>
<path d="M6807 6712 c-22 -24 -22 -76 -1 -97 10 -10 29 -15 47 -13 44 4 44 23
0 23 -28 0 -38 5 -41 18 -3 14 4 17 37 17 47 0 54 8 38 41 -16 31 -57 37 -80
11z m63 -17 c0 -10 -10 -15 -30 -15 -29 0 -38 9 -23 23 13 13 53 7 53 -8z"/>
<path d="M6996 6708 c-48 -68 27 -145 84 -88 39 39 14 110 -40 110 -18 0 -34
-8 -44 -22z m75 -19 c8 -16 8 -28 0 -45 -18 -41 -71 -25 -71 21 0 44 50 61 71
24z"/>
<path d="M7130 6665 c0 -37 4 -65 10 -65 6 0 10 20 10 44 0 46 19 72 45 62 11
-4 15 -20 15 -56 0 -28 5 -50 10 -50 7 0 10 22 8 56 -3 66 -23 88 -58 66 -12
-7 -20 -8 -20 -2 0 5 -4 10 -10 10 -6 0 -10 -28 -10 -65z"/>
<path d="M7280 6710 c-54 -54 16 -142 80 -100 11 7 6 10 -22 10 -27 0 -40 6
-48 20 -10 19 -8 20 35 20 38 0 45 3 45 19 0 11 -7 27 -16 35 -21 22 -50 20
-74 -4z m68 -17 c2 -9 -7 -13 -27 -13 -30 0 -39 9 -24 24 11 10 46 3 51 -11z"/>
<path d="M7456 6703 c27 -107 51 -126 70 -53 l11 45 14 -48 c9 -31 18 -47 27
-45 13 3 56 117 47 126 -10 10 -24 -12 -30 -48 -9 -53 -22 -59 -30 -12 -3 20
-10 44 -15 52 -9 13 -11 13 -20 0 -5 -8 -12 -32 -16 -53 -7 -45 -16 -39 -33
21 -13 46 -36 60 -25 15z"/>
<path d="M7806 6714 c-23 -23 -21 -91 3 -104 47 -25 91 3 91 58 0 36 -22 62
-55 62 -13 0 -31 -7 -39 -16z m70 -28 c10 -41 -4 -68 -34 -64 -21 2 -28 9 -30
31 -5 41 4 57 32 57 19 0 27 -7 32 -24z"/>
<path d="M602 6510 c0 -74 2 -90 10 -73 8 16 8 45 1 95 l-10 73 -1 -95z"/>
<path d="M1976 6403 c-6 -149 1 -421 10 -432 2 -2 4 131 4 297 0 166 -2 302
-3 302 -2 0 -7 -75 -11 -167z"/>
<path d="M8636 6514 c-9 -24 -7 -39 9 -60 13 -18 14 -15 15 29 0 46 -12 62
-24 31z"/>
<path d="M9321 6454 c0 -11 3 -14 6 -6 3 7 2 16 -1 19 -3 4 -6 -2 -5 -13z"/>
<path d="M6520 6424 c0 -21 4 -33 10 -29 6 3 10 19 10 36 0 16 -4 29 -10 29
-5 0 -10 -16 -10 -36z"/>
<path d="M6950 6370 c0 -53 4 -90 10 -90 6 0 10 37 10 90 0 53 -4 90 -10 90
-6 0 -10 -37 -10 -90z"/>
<path d="M7010 6370 c0 -53 4 -90 10 -90 6 0 10 37 10 90 0 53 -4 90 -10 90
-6 0 -10 -37 -10 -90z"/>
<path d="M7717 6453 c-4 -3 -7 -14 -7 -24 0 -9 -6 -20 -12 -23 -10 -5 -10 -7
0 -12 7 -3 12 -26 12 -60 0 -30 5 -54 10 -54 6 0 10 25 10 55 0 42 3 55 15 55
8 0 15 5 15 10 0 6 -7 10 -15 10 -8 0 -15 7 -15 15 0 8 9 15 21 15 11 0 17 5
14 10 -7 11 -38 13 -48 3z"/>
<path d="M6580 6426 c0 -8 -6 -17 -12 -20 -10 -5 -10 -7 0 -12 7 -3 12 -24 12
-48 0 -45 13 -66 42 -66 24 0 23 16 -2 23 -16 4 -20 14 -20 46 0 34 3 41 20
41 11 0 20 5 20 10 0 6 -9 10 -20 10 -11 0 -20 7 -20 15 0 8 -4 15 -10 15 -5
0 -10 -6 -10 -14z"/>
<path d="M6730 6426 c0 -8 -6 -17 -12 -20 -10 -5 -10 -7 0 -12 7 -3 12 -24 12
-48 0 -45 13 -66 42 -66 24 0 23 16 -2 23 -16 4 -20 14 -20 46 0 34 3 41 20
41 11 0 20 5 20 10 0 6 -9 10 -20 10 -11 0 -20 7 -20 15 0 8 -4 15 -10 15 -5
0 -10 -6 -10 -14z"/>
<path d="M7560 6426 c0 -8 -6 -17 -12 -19 -10 -4 -10 -7 -1 -14 6 -5 13 -31
15 -58 3 -43 6 -50 26 -53 12 -2 22 1 22 7 0 6 -7 11 -15 11 -11 0 -15 12 -15
45 0 33 4 45 15 45 8 0 15 5 15 10 0 6 -7 10 -15 10 -8 0 -15 7 -15 15 0 8 -4
15 -10 15 -5 0 -10 -6 -10 -14z"/>
<path d="M6146 6388 c-32 -46 -6 -112 42 -106 14 2 27 8 29 14 2 7 -5 10 -21
7 -18 -4 -27 1 -36 17 -17 33 2 70 35 70 15 0 24 4 20 10 -11 18 -53 11 -69
-12z"/>
<path d="M6257 6403 c-14 -13 -6 -18 25 -18 43 0 47 -21 4 -29 -69 -13 -56
-77 15 -74 l39 1 0 52 c0 28 -5 56 -12 63 -13 13 -60 16 -71 5z m63 -78 c0 -9
-7 -18 -15 -21 -23 -9 -45 3 -39 21 8 20 54 20 54 0z"/>
<path d="M6380 6343 c0 -76 18 -85 22 -10 3 48 5 52 28 52 23 0 25 -4 28 -52
4 -69 22 -68 22 1 0 62 -11 75 -62 73 l-38 -1 0 -63z"/>
<path d="M6826 6394 c-9 -9 -16 -32 -16 -55 0 -32 5 -41 24 -50 24 -11 76 -5
76 9 0 4 -17 7 -37 7 -28 0 -38 5 -41 18 -3 14 4 17 37 17 36 0 41 3 41 23 0
45 -52 64 -84 31z m62 -21 c2 -9 -7 -13 -27 -13 -30 0 -39 9 -24 24 11 10 46
3 51 -11z"/>
<path d="M7137 6403 c-14 -14 -6 -19 22 -15 44 6 49 -24 5 -33 -68 -12 -56
-69 15 -71 l41 -1 0 44 c0 59 -14 83 -49 83 -15 0 -31 -3 -34 -7z m63 -67 c0
-18 -15 -36 -30 -36 -22 0 -34 15 -25 30 6 9 55 15 55 6z"/>
<path d="M7327 6392 c-21 -23 -22 -76 -1 -96 16 -17 33 -20 58 -10 27 10 18
21 -13 16 -23 -3 -30 0 -36 18 -4 12 -4 33 0 47 5 21 10 24 36 21 18 -3 28 -1
26 6 -6 19 -52 18 -70 -2z"/>
<path d="M7437 6403 c-14 -14 -6 -19 22 -15 44 6 49 -24 5 -33 -68 -12 -56
-69 15 -71 l41 -1 0 44 c0 59 -14 83 -49 83 -15 0 -31 -3 -34 -7z m63 -67 c0
-18 -15 -36 -30 -36 -22 0 -34 15 -25 30 6 9 55 15 55 6z"/>
<path d="M7780 6345 c0 -37 4 -65 10 -65 6 0 10 16 10 36 0 42 15 74 35 74 8
0 15 5 15 10 0 14 -23 13 -38 -2 -9 -9 -12 -9 -12 0 0 7 -4 12 -10 12 -6 0
-10 -28 -10 -65z"/>
<path d="M7886 6394 c-23 -23 -21 -91 3 -104 47 -25 91 3 91 58 0 36 -22 62
-55 62 -13 0 -31 -7 -39 -16z m70 -28 c10 -41 -4 -68 -34 -64 -21 2 -28 9 -30
31 -5 41 4 57 32 57 19 0 27 -7 32 -24z"/>
<path d="M8010 6345 c0 -37 4 -65 10 -65 6 0 10 20 10 44 0 46 19 72 45 62 11
-4 15 -20 15 -56 0 -63 18 -66 22 -4 2 32 9 51 21 58 24 15 37 -6 37 -61 0
-24 5 -43 10 -43 13 0 13 86 0 111 -12 21 -40 25 -57 8 -8 -8 -17 -7 -32 3
-17 10 -25 10 -41 0 -12 -7 -20 -8 -20 -2 0 5 -4 10 -10 10 -6 0 -10 -28 -10
-65z"/>
<path d="M1907 6303 c-3 -38 -2 -102 2 -143 7 -68 8 -62 10 68 0 78 -1 142 -3
142 -2 0 -6 -30 -9 -67z"/>
<path d="M6330 6040 c0 -96 17 -125 22 -37 3 48 5 52 28 52 23 0 25 -4 28 -52
4 -69 22 -68 22 1 0 61 -16 82 -55 72 -23 -6 -25 -3 -25 24 0 16 -4 30 -10 30
-6 0 -10 -37 -10 -90z"/>
<path d="M1019 6110 c-7 -48 -6 -59 6 -64 21 -8 30 33 11 52 -9 9 -16 14 -17
12z"/>
<path d="M6600 6096 c0 -8 -6 -17 -12 -19 -10 -4 -10 -7 -1 -14 6 -5 13 -31
15 -58 3 -43 6 -50 26 -53 12 -2 22 1 22 7 0 6 -7 11 -15 11 -11 0 -15 12 -15
45 0 33 4 45 15 45 8 0 15 5 15 10 0 6 -7 10 -15 10 -8 0 -15 7 -15 15 0 8 -4
15 -10 15 -5 0 -10 -6 -10 -14z"/>
<path d="M6147 6073 c-14 -13 -6 -18 25 -18 43 0 47 -21 4 -29 -69 -13 -56
-77 15 -74 l39 1 0 52 c0 28 -5 56 -12 63 -13 13 -60 16 -71 5z m63 -78 c0 -9
-7 -18 -15 -21 -23 -9 -45 3 -39 21 8 20 54 20 54 0z"/>
<path d="M6477 6073 c-14 -14 -6 -19 22 -15 44 6 49 -24 5 -33 -68 -12 -56
-69 15 -71 l41 -1 0 44 c0 59 -14 83 -49 83 -15 0 -31 -3 -34 -7z m63 -67 c0
-18 -15 -36 -30 -36 -22 0 -34 15 -25 30 6 9 55 15 55 6z"/>
<path d="M9324 5840 c0 -124 2 -174 3 -112 2 61 2 163 0 225 -1 61 -3 11 -3
-113z"/>
<path d="M6680 5965 c0 -8 7 -15 15 -15 8 0 15 7 15 15 0 8 -7 15 -15 15 -8 0
-15 -7 -15 -15z"/>
<path d="M6750 5965 c0 -8 7 -15 15 -15 8 0 15 7 15 15 0 8 -7 15 -15 15 -8 0
-15 -7 -15 -15z"/>
<path d="M6820 5965 c0 -8 5 -15 10 -15 6 0 10 7 10 15 0 8 -4 15 -10 15 -5 0
-10 -7 -10 -15z"/>
<path d="M9166 5943 c-9 -10 -7 -101 3 -107 12 -8 21 18 21 64 0 37 -10 56
-24 43z"/>
<path d="M1390 5785 c0 -90 4 -145 10 -145 6 0 10 55 10 145 0 90 -4 145 -10
145 -6 0 -10 -55 -10 -145z"/>
<path d="M1333 5815 c0 -38 2 -53 4 -32 2 20 2 52 0 70 -2 17 -4 1 -4 -38z"/>
<path d="M9318 5168 c-2 -233 -2 -673 2 -978 6 -515 6 -485 8 423 1 537 0 977
-1 977 -2 0 -6 -190 -9 -422z"/>
<path d="M1993 5500 c0 -30 2 -43 4 -27 2 15 2 39 0 55 -2 15 -4 2 -4 -28z"/>
<path d="M8664 5365 c0 -71 1 -99 3 -62 2 37 2 96 0 130 -2 34 -3 4 -3 -68z"/>
<path d="M1987 4958 c-4 -249 -10 -591 -14 -760 -4 -211 -3 -308 4 -308 11 0
31 1505 21 1515 -3 3 -8 -199 -11 -447z"/>
<path d="M2134 5185 c0 -71 1 -99 3 -62 2 37 2 96 0 130 -2 34 -3 4 -3 -68z"/>
<path d="M9525 5078 c4 -79 9 -145 11 -147 2 -2 4 62 4 142 0 101 -3 147 -11
147 -8 0 -9 -41 -4 -142z"/>
<path d="M9480 4980 c0 -29 2 -51 4 -49 8 8 10 88 3 95 -4 4 -7 -17 -7 -46z"/>
<path d="M7674 4889 c-8 -13 -5 -16 30 -25 21 -5 28 -4 24 6 -6 18 -46 32 -54
19z"/>
<path d="M8234 4525 c0 -77 2 -107 3 -67 2 40 2 103 0 140 -2 37 -3 4 -3 -73z"/>
<path d="M1775 4270 c0 -212 1 -298 2 -192 2 105 2 279 0 385 -1 105 -2 19 -2
-193z"/>
<path d="M9071 4328 c2 -147 16 -172 18 -30 1 75 -3 122 -9 122 -6 0 -10 -37
-9 -92z"/>
<path d="M9861 3929 c1 -205 6 -390 10 -409 4 -19 5 147 2 370 -3 223 -7 407
-10 409 -2 3 -3 -164 -2 -370z"/>
<path d="M593 4015 c0 -169 1 -195 8 -135 5 43 5 135 0 210 l-8 135 0 -210z"/>
<path d="M8570 3900 c0 -101 3 -181 6 -177 8 8 7 347 0 355 -4 3 -6 -77 -6
-178z"/>
<path d="M630 4020 c0 -5 5 -10 10 -10 6 0 10 5 10 10 0 6 -4 10 -10 10 -5 0
-10 -4 -10 -10z"/>
<path d="M9974 3790 c0 -69 1 -97 3 -62 2 34 2 90 0 125 -2 34 -3 6 -3 -63z"/>
<path d="M8648 3860 c2 -16 6 -30 8 -30 2 0 4 14 4 30 0 17 -4 30 -8 30 -5 0
-7 -13 -4 -30z"/>
<path d="M9091 3199 c0 -376 7 -853 14 -1059 l14 -375 -5 415 c-2 228 -7 703
-10 1055 -3 352 -8 642 -10 644 -2 2 -4 -304 -3 -680z"/>
<path d="M1294 3780 c0 -52 1 -74 3 -47 2 26 2 68 0 95 -2 26 -3 4 -3 -48z"/>
<path d="M1978 3624 c-5 -4 -7 -122 -6 -263 l1 -256 9 180 c9 198 7 351 -4
339z"/>
<path d="M987 3477 c-10 -27 -8 -307 3 -307 6 0 10 55 10 160 0 88 -2 160 -4
160 -2 0 -6 -6 -9 -13z"/>
<path d="M9871 3398 c-1 -27 4 -48 9 -48 12 0 12 34 0 70 -7 20 -8 16 -9 -22z"/>
<path d="M1020 3273 c0 -10 5 -25 10 -33 8 -12 10 -9 10 12 0 15 -4 30 -10 33
-5 3 -10 -2 -10 -12z"/>
<path d="M940 3244 c0 -8 5 -12 10 -9 6 4 8 11 5 16 -9 14 -15 11 -15 -7z"/>
<path d="M9150 3216 c0 -25 -4 -47 -10 -51 -5 -3 -6 -13 -3 -21 10 -26 21 -2
28 59 5 39 4 57 -4 57 -6 0 -11 -18 -11 -44z"/>
<path d="M1974 2870 c0 -102 2 -143 3 -92 2 50 2 134 0 185 -1 50 -3 9 -3 -93z"/>
<path d="M900 2834 c0 -14 8 -16 53 -10 28 3 69 6 90 6 23 0 36 4 32 10 -3 6
-44 10 -91 10 -71 0 -84 -2 -84 -16z"/>
<path d="M8880 2830 c0 -6 30 -10 69 -10 39 0 73 5 76 10 4 6 -22 10 -69 10
-44 0 -76 -4 -76 -10z"/>
<path d="M8851 2686 c2 -2 46 -7 97 -10 63 -5 92 -4 92 3 0 7 -34 11 -97 11
-53 0 -94 -2 -92 -4z"/>
<path d="M892 2671 c-11 -7 -11 -9 1 -14 21 -8 177 4 177 14 0 12 -161 11
-178 0z"/>
<path d="M8850 2650 c0 -6 29 -10 68 -9 49 1 60 3 42 9 -36 12 -110 12 -110 0z"/>
<path d="M938 2623 c-46 -7 -32 -23 20 -23 63 0 122 11 122 21 0 9 -89 10
-142 2z"/>
<path d="M1764 2515 c0 -60 1 -84 3 -52 2 32 2 81 0 110 -2 29 -3 3 -3 -58z"/>
<path d="M8890 2590 c20 -13 100 -13 100 0 0 6 -26 10 -57 10 -41 0 -54 -3
-43 -10z"/>
<path d="M900 2490 c0 -13 170 -13 190 0 10 7 -18 10 -87 10 -62 0 -103 -4
-103 -10z"/>
<path d="M1974 2280 c0 -85 2 -120 3 -77 2 42 2 112 0 155 -1 42 -3 7 -3 -78z"/>
<path d="M250 2205 c0 -47 4 -85 9 -85 13 0 17 36 13 108 -6 92 -22 75 -22
-23z"/>
<path d="M8642 2159 c-17 -37 -20 -55 -13 -62 8 -8 11 -2 11 22 0 20 4 30 11
26 6 -4 8 -12 6 -19 -2 -6 -1 -20 4 -31 5 -13 8 4 8 48 1 37 0 67 -1 67 -2 0
-13 -23 -26 -51z"/>
<path d="M8782 2137 c0 -26 4 -49 9 -53 12 -7 12 67 0 85 -6 10 -9 -1 -9 -32z"/>
<path d="M8168 2117 c-5 -56 -2 -71 13 -62 12 8 12 102 0 109 -5 3 -11 -18
-13 -47z"/>
<path d="M8910 2110 c-6 -78 -2 -122 11 -115 5 4 9 1 9 -6 0 -10 3 -10 12 -1
9 9 8 15 -5 24 -12 10 -17 32 -19 88 l-3 75 -5 -65z"/>
<path d="M9542 2115 c-29 -64 -2 -128 51 -123 31 3 32 5 35 55 2 42 -1 56 -17
72 -28 28 -55 26 -69 -4z m56 -42 c13 -24 4 -43 -19 -43 -14 0 -19 7 -19 30 0
34 23 41 38 13z"/>
<path d="M550 2030 c-32 -8 -50 -43 -50 -102 0 -46 1 -48 28 -47 74 3 97 31
85 105 -7 39 -27 54 -63 44z m43 -60 c6 -23 -7 -36 -46 -45 -22 -6 -27 -4 -27
11 0 43 63 73 73 34z"/>
<path d="M2320 2020 c0 -5 14 -10 31 -10 17 0 28 4 24 10 -3 6 -17 10 -31 10
-13 0 -24 -4 -24 -10z"/>
<path d="M5085 2000 c-24 -6 -18 -8 30 -8 42 0 54 2 40 8 -24 10 -30 10 -70 0z"/>
<path d="M8285 1924 c28 -7 127 -30 220 -49 94 -20 178 -38 189 -41 12 -4 17
-2 14 7 -3 8 -82 29 -219 56 -213 42 -299 54 -204 27z"/>
<path d="M5490 1875 c0 -3 12 -17 27 -29 l28 -24 -65 -7 c-36 -4 -217 -5 -403
-3 -185 1 -337 0 -337 -4 0 -9 779 -15 1035 -8 l190 6 -194 2 -194 2 -34 35
c-31 32 -53 44 -53 30z"/>
<path d="M4787 1850 c-9 -11 -13 -20 -8 -20 4 0 16 9 26 20 10 11 14 20 9 20
-5 0 -17 -9 -27 -20z"/>
<path d="M4890 1860 c0 -5 14 -10 30 -10 17 0 30 4 30 8 0 4 -13 9 -30 10 -16
1 -30 -2 -30 -8z"/>
<path d="M1711 1826 c-59 -12 -106 -27 -109 -34 -3 -9 3 -11 20 -7 12 3 63 14
111 24 49 10 94 24 100 30 15 15 5 14 -122 -13z"/>
<path d="M9059 1807 c-2 -27 -1 -51 2 -53 10 -6 16 48 9 76 -5 20 -8 14 -11
-23z"/>
<path d="M1363 1833 c-15 -5 -18 -53 -4 -53 5 0 11 7 15 15 3 8 17 15 31 15
16 0 25 6 25 15 0 15 -39 20 -67 8z"/>
<path d="M2165 1810 c-15 -6 -8 -9 27 -9 26 -1 50 4 53 9 8 12 -52 12 -80 0z"/>
<path d="M2300 1810 c0 -13 150 -13 170 0 10 7 -14 10 -77 10 -56 0 -93 -4
-93 -10z"/>
<path d="M8810 1812 c0 -10 219 -56 227 -48 6 5 -50 21 -147 42 -77 16 -80 16
-80 6z"/>
<path d="M4563 1803 c26 -2 67 -2 90 0 23 2 2 3 -48 3 -49 0 -68 -1 -42 -3z"/>
<path d="M1391 1774 c-125 -24 -140 -29 -128 -40 8 -9 296 46 303 57 8 14 -38
9 -175 -17z"/>
<path d="M9120 1703 c0 -29 5 -53 10 -53 13 0 13 70 0 90 -7 11 -10 0 -10 -37z"/>
<path d="M9983 1725 c-13 -12 -23 -28 -23 -36 0 -12 -2 -12 -9 -1 -15 24 -55
10 -71 -26 -15 -33 -15 -33 -70 -26 -30 3 -90 15 -133 25 -115 29 -167 38
-167 28 0 -5 10 -11 23 -14 12 -2 78 -18 147 -34 212 -49 197 -48 216 -1 18
45 20 46 40 25 21 -21 54 -2 54 31 0 32 16 23 23 -14 3 -15 15 -39 27 -53 25
-28 24 -19 -5 61 -21 58 -25 61 -52 35z"/>
<path d="M4590 1704 c0 -14 3 -14 15 -4 8 7 15 14 15 16 0 2 -7 4 -15 4 -8 0
-15 -7 -15 -16z"/>
<path d="M5138 1703 c12 -2 30 -2 40 0 9 3 -1 5 -23 4 -22 0 -30 -2 -17 -4z"/>
<path d="M284 1645 c-7 -29 -1 -41 15 -30 14 8 14 55 1 55 -5 0 -12 -11 -16
-25z"/>
<path d="M8153 1653 c20 -2 54 -2 75 0 20 2 3 4 -38 4 -41 0 -58 -2 -37 -4z"/>
<path d="M400 1601 c0 -15 -12 -21 -62 -30 -120 -22 -120 -23 -110 -33 7 -7
39 -5 99 6 203 39 287 56 291 61 15 15 -15 15 -83 1 -96 -20 -115 -20 -115 -1
0 8 -4 15 -10 15 -5 0 -10 -8 -10 -19z"/>
<path d="M8147 1613 c18 -2 50 -2 70 0 21 2 7 4 -32 4 -38 0 -55 -2 -38 -4z"/>
<path d="M8411 1615 c3 -2 74 -22 159 -45 85 -22 205 -53 265 -69 115 -30 242
-49 215 -32 -8 5 -51 16 -95 25 -44 9 -120 28 -170 41 l-90 25 103 -3 c134 -5
120 13 -17 20 -63 4 -105 2 -113 -5 -9 -7 -45 -2 -123 18 -107 28 -143 35
-134 25z"/>
<path d="M1830 1580 c0 -5 4 -10 9 -10 6 0 13 5 16 10 3 6 -1 10 -9 10 -9 0
-16 -4 -16 -10z"/>
<path d="M1922 1580 c-53 -13 -51 -23 3 -15 28 4 104 10 170 14 l120 7 -130 1
c-71 1 -145 -3 -163 -7z"/>
<path d="M1700 1570 c0 -5 14 -7 33 -3 45 8 47 13 4 13 -20 0 -37 -4 -37 -10z"/>
<path d="M4510 1565 c-8 -9 -8 -15 -2 -15 12 0 26 19 19 26 -2 2 -10 -2 -17
-11z"/>
<path d="M1610 1494 c-188 -49 -330 -83 -430 -100 -47 -9 -88 -19 -92 -22 -4
-4 43 -7 105 -7 62 0 100 1 85 3 -54 6 -27 20 90 47 173 40 424 103 430 110
14 14 -65 0 -188 -31z"/>
<path d="M4444 1479 c-3 -5 37 -9 88 -8 74 1 86 3 58 10 -44 10 -139 9 -146
-2z"/>
<path d="M5925 1470 c3 -5 10 -10 16 -10 5 0 9 5 9 10 0 6 -7 10 -16 10 -8 0
-12 -4 -9 -10z"/>
<path d="M9096 1442 c19 -18 275 -72 332 -71 l57 1 -95 24 c-81 20 -263 54
-294 54 -6 0 -6 -3 0 -8z"/>
<path d="M4335 1380 c-24 -25 -36 -30 -77 -30 -26 0 -48 -4 -48 -8 0 -5 13 -7
30 -4 44 6 66 -4 50 -23 -7 -9 -11 -18 -8 -20 3 -3 26 22 52 55 50 63 50 81 1
30z"/>
<path d="M5990 1401 c0 -11 99 -95 105 -90 2 3 -16 26 -40 52 -42 45 -65 58
-65 38z"/>
<path d="M6050 1400 c0 -6 40 -10 99 -10 56 0 103 4 106 10 4 6 -32 10 -99 10
-64 0 -106 -4 -106 -10z"/>
<path d="M108 1211 c-31 -3 -60 -9 -63 -13 -17 -17 6 -35 51 -42 60 -8 347 -8
397 0 78 13 31 24 -110 25 -82 1 -161 5 -178 9 -16 4 -22 8 -12 9 9 0 17 6 17
11 0 11 -11 11 -102 1z"/>
<path d="M9930 1190 c-30 -5 -199 -9 -375 -9 -319 -1 -365 -4 -365 -24 0 -11
895 -1 964 11 22 4 41 13 44 20 4 14 -171 15 -268 2z"/>
<path d="M758 1173 c-10 -2 -18 -9 -18 -14 0 -6 223 -8 618 -5 339 3 668 6
730 6 67 0 112 4 112 10 0 10 -1404 13 -1442 3z"/>
<path d="M2210 1170 c0 -6 60 -10 160 -10 100 0 160 4 160 10 0 6 -60 10 -160
10 -100 0 -160 -4 -160 -10z"/>
<path d="M4493 1173 c-49 -19 44 -23 596 -23 553 0 682 5 590 24 -37 7 -1168
7 -1186 -1z"/>
<path d="M8201 1171 c-82 -4 -146 -10 -148 -16 -3 -10 1077 -8 1087 1 2 3 -2
9 -9 13 -15 10 -701 11 -930 2z"/>
<path d="M590 1163 c0 -5 20 -8 44 -8 24 0 48 3 52 8 4 4 -16 7 -44 7 -29 0
-52 -3 -52 -7z"/>
<path d="M5735 1160 c8 -13 185 -13 185 -1 0 6 -43 10 -95 10 -59 0 -93 -3
-90 -9z"/>
<path d="M8388 1133 c-213 -2 -338 -7 -338 -13 0 -12 798 -12 930 -1 l85 8
-81 1 c-44 1 -121 3 -170 5 -49 2 -241 2 -426 0z"/>
<path d="M9295 1131 l-110 -6 160 -7 c288 -14 785 -5 785 14 0 9 -651 8 -835
-1z"/>
<path d="M115 1120 c-4 -7 59 -10 182 -9 130 1 173 4 138 9 -75 12 -313 12
-320 0z"/>
<path d="M590 1120 c-24 -8 -23 -8 8 -9 20 -1 31 3 27 9 -3 6 -7 10 -8 9 -1
-1 -13 -5 -27 -9z"/>
<path d="M725 1120 c-71 -10 503 -20 1115 -20 606 0 790 5 790 22 0 9 -1834 7
-1905 -2z"/>
<path d="M4695 1120 c-115 -3 116 -7 514 -8 398 -1 722 0 719 3 -7 7 -984 11
-1233 5z"/>
<path d="M2620 1085 c-14 -8 -95 -40 -180 -71 -85 -32 -165 -66 -176 -76 -12
-11 -50 -33 -85 -49 l-64 -31 -430 1 c-288 1 -425 -2 -415 -9 9 -6 166 -10
410 -11 217 0 384 -4 370 -8 -47 -15 -210 -94 -210 -102 0 -5 4 -9 9 -9 11 0
212 89 226 101 6 4 87 41 180 82 209 92 405 185 405 192 0 8 -14 5 -40 -10z"/>
<path d="M5330 1059 c0 -5 62 -9 138 -8 88 0 130 4 117 9 -26 12 -255 11 -255
-1z"/>
<path d="M2222 1043 c37 -2 100 -2 140 0 40 1 10 3 -67 3 -77 0 -110 -1 -73
-3z"/>
<path d="M8428 1043 c17 -2 47 -2 65 0 17 2 3 4 -33 4 -36 0 -50 -2 -32 -4z"/>
<path d="M7930 1014 c0 -8 71 -36 77 -30 3 3 -12 12 -32 20 -41 18 -45 18 -45
10z"/>
<path d="M8555 1010 c-3 -5 -1 -10 4 -10 6 0 11 5 11 10 0 6 -2 10 -4 10 -3 0
-8 -4 -11 -10z"/>
<path d="M8040 966 c0 -2 60 -30 133 -62 72 -32 134 -62 137 -65 9 -12 143
-60 154 -55 6 2 -13 15 -43 28 l-54 25 258 6 c142 4 363 7 492 7 153 0 233 4
233 10 0 7 -169 10 -523 10 l-522 -1 -113 50 c-96 44 -152 61 -152 47z"/>
<path d="M8155 955 c21 -8 41 -12 44 -10 5 6 -47 25 -67 25 -9 -1 1 -7 23 -15z"/>
<path d="M40 860 c0 -6 67 -10 180 -10 113 0 180 4 180 10 0 6 -67 10 -180 10
-113 0 -180 -4 -180 -10z"/>
<path d="M420 863 c0 -13 261 -23 577 -23 155 0 243 4 243 10 0 6 -66 10 -177
10 -98 0 -283 3 -410 7 -150 4 -233 2 -233 -4z"/>
<path d="M9390 860 c0 -6 57 -10 150 -10 93 0 150 4 150 10 0 6 -57 10 -150
10 -93 0 -150 -4 -150 -10z"/>
<path d="M9745 860 c-4 -7 75 -10 229 -10 151 0 236 4 236 10 0 6 -83 10 -229
10 -143 0 -232 -4 -236 -10z"/>
<path d="M915 800 c-27 -7 -25 -8 17 -9 26 0 50 4 53 9 7 11 -25 11 -70 0z"/>
<path d="M4743 783 c31 -2 83 -2 115 0 31 2 5 3 -58 3 -63 0 -89 -1 -57 -3z"/>
<path d="M8645 750 c3 -5 37 -10 76 -10 39 0 69 4 69 10 0 6 -32 10 -76 10
-47 0 -73 -4 -69 -10z"/>
<path d="M1670 669 c-120 -53 -147 -69 -116 -69 21 0 244 99 252 112 11 17
-24 6 -136 -43z"/>
<path d="M4700 710 c0 -6 80 -10 220 -10 140 0 220 4 220 10 0 6 -80 10 -220
10 -140 0 -220 -4 -220 -10z"/>
<path d="M5685 710 c-4 -7 53 -10 165 -10 112 0 169 3 165 10 -4 6 -70 10
-165 10 -95 0 -161 -4 -165 -10z"/>
<path d="M3985 620 c-3 -5 -1 -11 5 -15 15 -9 340 7 340 17 0 11 -338 9 -345
-2z"/>
<path d="M930 571 c-20 -4 71 -11 206 -15 133 -5 256 -5 275 -2 32 6 33 5 9
-6 -139 -67 -333 -158 -336 -158 -2 0 -38 -16 -79 -35 l-75 -34 -263 -1 c-243
-2 -306 -7 -279 -24 6 -3 108 -9 228 -13 l217 -6 -69 -35 c-100 -51 -63 -51
47 0 l94 43 613 -3 c361 -1 612 1 612 7 0 11 -227 20 -741 29 l-397 7 172 80
c94 43 207 96 251 117 l80 38 190 0 c126 0 185 4 175 10 -17 11 -873 12 -930
1z"/>
<path d="M5195 560 c-4 -6 20 -10 64 -10 41 0 71 4 71 10 0 6 -28 10 -64 10
-36 0 -68 -4 -71 -10z"/>
<path d="M7060 421 c-38 -11 -13 -18 70 -20 102 -3 103 -11 2 -11 -48 0 -82
-4 -82 -10 0 -12 140 -13 159 -1 49 31 -69 64 -149 42z"/>
<path d="M6889 399 c-14 -4 8 -7 51 -7 75 0 78 4 9 10 -19 2 -46 1 -60 -3z"/>
<path d="M4668 393 c34 -2 90 -2 125 0 34 2 6 3 -63 3 -69 0 -97 -1 -62 -3z"/>
<path d="M3658 383 c-59 -9 -24 -19 67 -18 80 0 93 2 78 12 -16 12 -85 15
-145 6z"/>
<path d="M7375 380 c-3 -5 3 -10 15 -10 12 0 18 5 15 10 -3 6 -10 10 -15 10
-5 0 -12 -4 -15 -10z"/>
<path d="M7285 360 c28 -12 75 -12 75 0 0 6 -21 10 -47 9 -36 0 -43 -3 -28 -9z"/>
<path d="M207 303 c18 -2 50 -2 70 0 21 2 7 4 -32 4 -38 0 -55 -2 -38 -4z"/>
<path d="M2398 302 c-121 -1 -198 -6 -198 -12 0 -12 612 -12 680 -1 57 10
-202 17 -482 13z"/>
<path d="M5608 303 c34 -2 90 -2 125 0 34 2 6 3 -63 3 -69 0 -97 -1 -62 -3z"/>
<path d="M6035 300 c88 -11 178 -11 195 0 10 6 -30 9 -120 8 -110 -1 -124 -2
-75 -8z"/>
<path d="M6450 280 c0 -6 38 -10 94 -10 53 0 98 4 101 10 4 6 -30 10 -94 10
-61 0 -101 -4 -101 -10z"/>
<path d="M938 233 c-52 -8 -28 -23 36 -23 66 0 94 13 53 24 -23 6 -44 6 -89
-1z"/>
<path d="M4650 210 c0 -5 67 -9 170 -9 104 -1 170 3 170 9 0 6 -66 10 -170 10
-103 0 -170 -4 -170 -10z"/>
</g>
</svg>
