<?xml version="1.0" standalone="no"?>
<!DOCTYPE svg PUBLIC "-//W3C//DTD SVG 20010904//EN"
 "http://www.w3.org/TR/2001/REC-SVG-20010904/DTD/svg10.dtd">
<svg version="1.0" xmlns="http://www.w3.org/2000/svg"
 width="768.000000pt" height="455.000000pt" viewBox="0 0 768.000000 455.000000"
 preserveAspectRatio="xMidYMid meet">

<g transform="translate(0.000000,455.000000) scale(0.100000,-0.100000)"
fill="#000000" stroke="none">
<path d="M1105 4540 c4 -6 11 -8 16 -5 14 9 11 15 -7 15 -8 0 -12 -5 -9 -10z"/>
<path d="M1208 4543 c7 -3 16 -2 19 1 4 3 -2 6 -13 5 -11 0 -14 -3 -6 -6z"/>
<path d="M3500 4429 c-436 -18 -918 -127 -1295 -294 -84 -37 -324 -168 -423
-232 -73 -47 -83 -57 -80 -80 6 -54 28 -51 143 21 59 37 109 65 112 62 3 -3 8
-120 11 -260 l4 -254 -48 -25 c-56 -29 -224 -138 -367 -239 -54 -39 -101 -67
-104 -64 -9 9 -101 -47 -106 -64 -2 -9 -34 -29 -70 -45 -39 -18 -67 -36 -67
-45 0 -8 -13 -22 -29 -32 -124 -70 -66 -281 78 -281 48 0 84 24 115 78 20 33
49 57 138 112 262 163 635 366 843 459 94 41 218 98 277 127 104 50 138 56
105 19 -25 -27 -47 -87 -47 -128 0 -30 8 -45 44 -80 50 -51 77 -55 127 -21 99
67 104 177 12 258 -33 29 -34 31 -17 44 17 12 16 14 -16 20 -43 8 -76 0 -261
-63 -156 -53 -428 -172 -519 -227 -30 -18 -80 -45 -110 -60 -71 -35 -486 -271
-523 -297 l-29 -20 -24 23 c-13 12 -24 25 -24 28 0 9 116 95 290 216 85 60
190 132 232 162 42 29 81 53 87 53 5 0 11 -21 13 -47 3 -42 6 -48 27 -51 35
-5 45 12 51 85 l5 66 134 63 c127 61 133 63 127 39 -9 -34 10 -65 38 -65 34 0
50 25 50 80 0 44 2 49 30 58 17 6 78 27 135 46 58 20 106 36 108 36 1 0 0 -13
-3 -30 -11 -55 39 -82 70 -38 9 12 16 39 16 60 0 31 4 39 23 43 12 3 70 16
128 30 59 14 112 25 118 25 6 0 8 -11 5 -29 -7 -36 11 -71 36 -71 26 0 50 38
50 80 l0 37 98 12 c53 7 119 15 145 18 l48 6 -6 -37 c-8 -43 6 -66 41 -66 30
0 58 41 50 74 -8 33 4 36 155 36 l129 0 -6 -43 c-5 -33 -2 -47 11 -60 39 -40
92 -2 82 59 l-6 37 87 -6 c48 -4 113 -9 145 -13 l57 -7 0 -46 c0 -51 13 -71
45 -71 31 0 45 19 45 62 0 42 0 42 50 29 19 -5 79 -19 133 -31 l97 -22 0 -48
c0 -33 5 -52 18 -63 41 -37 84 -8 75 50 -5 29 -3 35 8 31 8 -3 67 -23 131 -44
l118 -39 0 -45 c0 -54 22 -90 54 -90 32 0 49 24 44 60 -3 16 -2 30 1 30 3 0
65 -26 138 -57 l133 -58 0 -52 c0 -65 13 -99 40 -108 32 -10 50 12 50 61 0 24
2 44 5 44 3 0 29 -15 58 -34 28 -18 95 -58 147 -89 159 -93 328 -213 429 -304
31 -28 34 -34 23 -50 -7 -10 -15 -25 -18 -34 -4 -12 -30 1 -122 61 -212 139
-744 421 -896 474 -39 14 -114 41 -167 60 -53 19 -116 37 -141 41 -42 6 -46 5
-95 -39 -66 -60 -84 -114 -59 -181 40 -104 126 -124 198 -46 47 50 50 84 8
106 -49 25 -100 17 -100 -17 0 -12 11 -23 30 -30 25 -8 28 -13 19 -24 -23 -28
-73 -14 -94 27 -22 41 -19 57 16 91 29 29 33 30 89 25 155 -17 652 -258 1110
-539 193 -119 209 -130 234 -168 85 -129 283 -12 237 140 -6 21 -24 52 -40 69
-16 17 -25 34 -20 37 6 4 6 10 0 18 -7 9 -26 10 -63 6 l-53 -7 -95 84 c-52 46
-144 118 -205 160 -99 68 -373 230 -417 246 -16 6 -18 27 -16 262 0 140 3 255
5 255 2 0 23 -13 46 -29 53 -36 122 -71 140 -71 23 0 40 27 33 53 -11 45 -365
234 -601 320 -267 98 -404 140 -540 163 -44 7 -105 18 -135 23 -30 6 -93 17
-140 25 -74 13 -428 38 -470 33 -8 -1 -85 -5 -170 -8z m280 -334 l0 -255 -142
0 -143 0 0 255 0 255 143 0 142 0 0 -255z m358 226 c9 -1 12 -60 12 -259 l0
-257 -140 14 -140 15 0 252 c0 138 2 253 5 255 2 3 60 0 127 -7 68 -7 129 -13
136 -13z m-728 -236 l0 -255 -22 -5 c-22 -4 -229 -25 -254 -25 -10 0 -13 52
-13 233 0 128 -3 240 -7 250 -3 10 -1 19 7 22 22 8 200 33 247 34 l42 1 0
-255z m985 187 l130 -28 -2 -94 c-1 -52 -2 -170 -2 -261 l-1 -166 -82 23 c-46
13 -109 28 -140 34 l-57 11 0 255 c0 192 3 254 12 254 7 0 71 -13 142 -28z
m-1360 -238 c-3 -141 -6 -258 -7 -259 -6 -4 -224 -45 -243 -45 -20 0 -21 6
-22 236 -1 130 -5 244 -8 253 -4 15 11 21 107 43 62 14 127 26 145 27 l32 1
-4 -256z m-358 -88 l-2 -258 -125 -39 c-69 -21 -130 -39 -136 -39 -7 0 -11 80
-12 243 -1 133 -4 249 -7 257 -4 12 27 26 133 60 75 25 140 43 144 40 5 -3 7
-122 5 -264z m2073 229 c68 -25 126 -45 128 -45 5 0 -5 -501 -11 -507 -3 -2
-43 9 -89 26 -46 17 -102 35 -126 41 l-42 11 2 259 c1 143 5 260 8 260 3 0 62
-20 130 -45z m405 -163 l90 -48 0 -252 c0 -139 -2 -252 -4 -252 -2 0 -54 23
-115 52 -61 28 -122 54 -136 58 -28 7 -27 -7 -22 387 l2 142 48 -20 c26 -11
88 -41 137 -67z m-2841 56 c3 -13 6 -132 6 -266 l0 -243 -37 -15 c-21 -9 -80
-36 -132 -60 -51 -24 -95 -44 -97 -44 -2 0 -4 75 -4 168 1 92 -2 208 -6 259
l-7 92 129 65 c71 35 132 64 135 65 4 1 9 -9 13 -21z m540 -711 c28 -21 32
-87 6 -119 -42 -53 -110 -21 -110 52 0 60 60 99 104 67z m-1542 -550 c37 -46
14 -124 -41 -142 -24 -7 -77 18 -91 44 -24 46 -9 98 34 117 38 17 76 10 98
-19z m4842 11 c24 -22 30 -39 27 -86 -1 -29 -44 -72 -71 -72 -34 0 -80 53 -80
92 0 41 8 53 45 72 40 21 49 20 79 -6z"/>
<path d="M3450 3599 c-36 -4 -96 -12 -135 -18 -38 -6 -91 -11 -116 -11 -39 0
-113 -22 -199 -57 -8 -3 -19 -5 -25 -4 -7 2 -6 -1 0 -8 7 -7 75 -3 220 13 184
20 253 23 557 22 285 -2 349 -5 364 -17 12 -10 54 -16 138 -19 67 -3 123 -4
125 -3 16 10 -102 43 -189 53 -58 6 -130 16 -160 22 -82 16 -81 16 -135 22
-79 10 -373 13 -445 5z"/>
<path d="M3461 3483 c-21 -17 -22 -25 -19 -153 l3 -135 25 0 c23 0 25 5 30 48
l5 48 31 -33 c18 -18 37 -43 43 -56 16 -31 55 -26 59 7 3 16 -7 35 -34 62
l-38 39 38 35 c33 30 37 39 31 62 -18 75 -121 119 -174 76z m90 -53 c37 -20
17 -70 -28 -70 -16 0 -24 7 -29 25 -12 49 13 68 57 45z"/>
<path d="M3211 3481 c-10 -6 -13 -37 -12 -127 1 -66 4 -129 7 -141 7 -27 43
-36 124 -31 51 3 55 5 58 29 3 26 1 27 -57 34 -40 5 -61 12 -66 23 -8 22 5 31
56 40 31 5 45 13 47 26 5 25 -14 36 -65 36 -39 0 -43 2 -43 25 0 27 14 33 90
37 41 3 45 5 45 28 0 25 -2 25 -85 28 -47 1 -91 -2 -99 -7z"/>
<path d="M3741 3453 c-26 -53 -71 -198 -71 -233 0 -54 44 -50 54 4 6 30 10 34
48 39 50 7 58 3 58 -27 0 -32 24 -61 44 -53 10 4 16 18 16 38 0 32 -50 190
-76 242 -21 39 -50 35 -73 -10z m53 -85 c10 -38 7 -48 -14 -48 -20 0 -26 22
-14 54 9 23 21 20 28 -6z"/>
<path d="M3884 3475 c-11 -28 4 -45 41 -45 l35 0 0 -108 c0 -119 13 -159 44
-133 13 11 16 35 16 127 l0 113 38 3 c32 3 37 6 37 28 0 25 -1 25 -103 28 -85
2 -103 0 -108 -13z"/>
<path d="M2990 3460 c-19 -19 -20 -29 -14 -138 7 -141 8 -144 36 -140 19 2 24
10 26 43 3 37 6 42 48 59 47 19 84 57 84 87 0 26 -49 80 -87 95 -45 19 -70 17
-93 -6z m94 -61 c21 -16 24 -24 16 -39 -6 -11 -20 -25 -32 -31 -26 -14 -38 1
-38 54 0 43 14 47 54 16z"/>
<path d="M4395 3395 c4 -50 4 -85 -2 -85 -5 0 -26 29 -47 65 -44 75 -64 91
-92 70 -16 -11 -20 -29 -22 -107 -4 -112 6 -163 34 -163 17 0 20 9 24 75 l5
75 51 -75 c80 -118 101 -106 110 67 6 101 5 110 -16 136 -12 15 -28 27 -37 27
-13 0 -14 -13 -8 -85z"/>
<path d="M4134 3458 c-5 -7 -10 -65 -12 -128 -3 -92 -1 -119 12 -135 29 -38
43 -2 50 126 6 100 4 119 -9 133 -20 19 -31 20 -41 4z"/>
<path d="M3010 3127 c-13 -7 -31 -24 -39 -39 -24 -42 -6 -77 59 -116 66 -39
74 -68 20 -65 -19 0 -47 4 -62 8 -35 9 -47 -15 -24 -50 34 -51 135 -50 176 2
42 53 15 117 -66 152 -64 29 -59 51 11 51 48 0 55 2 55 20 0 22 -46 50 -82 50
-13 0 -34 -6 -48 -13z"/>
<path d="M3320 3086 c-22 -31 -43 -56 -45 -56 -2 0 -16 20 -31 45 -26 45 -59
60 -70 31 -3 -8 13 -49 35 -91 37 -70 41 -82 35 -126 -5 -40 -4 -50 10 -55 25
-9 36 6 45 62 6 44 33 96 94 187 9 12 9 22 1 34 -19 30 -32 25 -74 -31z"/>
<path d="M3653 3133 c-7 -2 -13 -21 -13 -40 l0 -36 40 6 40 5 0 -107 c0 -111
10 -142 37 -120 9 8 13 41 13 115 l0 104 40 0 c46 0 59 17 42 56 -11 23 -16
24 -99 23 -49 0 -94 -3 -100 -6z"/>
<path d="M3922 3133 c-33 -6 -39 -26 -47 -148 -6 -103 -6 -112 15 -137 19 -25
28 -28 84 -28 67 0 86 10 86 47 0 20 -5 22 -62 25 -60 3 -63 4 -63 28 0 22 5
26 45 30 40 4 45 8 45 30 0 22 -5 25 -43 28 -40 3 -43 5 -40 30 3 25 7 27 58
32 48 4 55 8 58 27 5 36 -55 51 -136 36z"/>
<path d="M3461 3095 c-17 -20 -31 -44 -31 -55 0 -32 43 -72 86 -79 30 -5 40
-11 42 -29 5 -35 -39 -50 -83 -29 -34 16 -35 16 -35 -4 0 -27 44 -69 73 -69
33 0 105 54 113 84 10 40 -23 84 -78 104 -34 12 -48 22 -48 35 0 20 19 20 78
2 19 -6 22 -4 22 18 0 36 -25 57 -70 57 -31 0 -44 -6 -69 -35z"/>
<path d="M4136 3115 c-22 -22 -27 -66 -24 -180 3 -92 5 -100 23 -100 16 0 21
8 23 35 1 19 5 55 8 79 l6 43 21 -31 c38 -54 71 -50 103 11 23 45 34 33 34
-41 0 -38 3 -76 6 -85 9 -23 31 -20 48 7 12 18 13 42 6 131 -13 161 -43 180
-111 74 -17 -27 -35 -46 -39 -43 -4 3 -22 30 -39 60 -33 59 -41 64 -65 40z"/>
<path d="M1126 2474 c-112 -41 -228 -184 -245 -303 l-6 -46 -67 -7 c-119 -11
-221 -88 -276 -206 -23 -49 -27 -70 -27 -152 0 -76 5 -105 22 -142 45 -98 109
-156 206 -188 43 -14 53 -22 59 -46 3 -16 14 -65 24 -109 22 -104 68 -223 104
-274 37 -51 118 -115 167 -133 24 -8 83 -13 163 -13 107 1 134 4 184 24 67 27
136 86 171 145 32 56 81 215 96 311 l12 81 50 12 c104 24 187 104 222 209 12
38 16 77 14 140 -3 74 -9 98 -34 147 -56 110 -150 181 -258 195 l-51 6 -11 50
c-22 99 -101 204 -195 262 -83 50 -239 68 -324 37z m259 -102 c114 -58 173
-153 184 -296 6 -75 8 -81 30 -84 15 -2 33 6 51 23 24 23 33 26 62 20 51 -11
81 -30 122 -76 57 -62 80 -121 80 -205 1 -93 -38 -174 -102 -217 -92 -62 -233
-40 -320 51 l-44 44 -60 -31 c-90 -46 -200 -41 -276 13 l-35 25 -44 -45 c-48
-50 -88 -70 -169 -85 -64 -12 -110 -2 -174 39 -133 84 -141 298 -15 426 70 70
161 88 217 41 47 -40 58 -34 58 33 1 84 16 139 61 214 41 71 97 118 160 137
59 18 148 7 214 -27z m-264 -937 c-2 -91 12 -234 35 -344 18 -90 19 -91 51
-91 25 0 25 2 19 48 -15 116 -36 342 -36 392 l0 55 63 0 c34 0 71 3 83 8 21 7
21 7 8 -75 -7 -46 -24 -146 -38 -222 -14 -77 -26 -152 -26 -168 0 -33 25 -48
44 -27 21 22 97 427 90 472 -5 29 -3 37 8 37 9 0 21 -6 27 -14 6 -8 25 -19 42
-26 21 -9 28 -17 24 -29 -6 -15 -28 -99 -75 -291 -10 -41 -20 -84 -23 -96 -2
-12 4 -32 13 -45 l18 -23 20 44 c30 67 70 205 90 306 l17 90 28 -10 c15 -5 27
-15 27 -22 0 -23 -58 -240 -80 -299 -44 -116 -136 -168 -301 -169 -91 -1 -100
1 -165 34 -42 22 -77 47 -90 68 -31 46 -70 151 -94 257 -12 50 -23 97 -26 106
-3 10 3 19 13 22 10 2 26 8 36 12 14 6 17 2 17 -25 0 -44 47 -252 72 -319 20
-54 57 -101 78 -101 16 0 12 26 -19 129 -17 53 -35 125 -42 161 -6 36 -17 91
-24 123 l-13 58 27 14 c15 7 33 21 41 30 7 9 24 15 38 13 25 -3 25 -5 23 -83z"/>
<path d="M5447 2406 c-61 -22 -114 -65 -151 -120 -64 -96 -64 -100 -65 -726 0
-556 0 -566 21 -625 25 -68 88 -138 153 -170 39 -19 63 -20 700 -20 l660 0 47
27 c61 37 119 104 141 165 16 46 18 95 15 659 l-3 609 -23 42 c-34 64 -80 111
-136 141 l-51 27 -635 2 c-517 2 -642 0 -673 -11z m1320 -95 c83 -42 112 -101
117 -237 4 -82 2 -94 -12 -94 -249 -4 -1545 0 -1550 4 -3 4 -5 43 -4 89 2 65
8 93 28 134 30 63 83 109 139 122 22 5 310 7 642 5 574 -3 604 -4 640 -23z
m93 -418 l26 -5 -1 -456 c-1 -420 -2 -460 -19 -494 -24 -50 -76 -95 -126 -108
-27 -7 -238 -10 -642 -9 -653 2 -653 1 -711 57 -16 15 -39 45 -50 67 -22 39
-22 48 -22 498 l0 458 760 -1 c418 -1 771 -4 785 -7z"/>
<path d="M5498 2241 c-42 -37 -53 -70 -38 -117 16 -48 53 -74 107 -74 38 0 50
5 79 34 45 45 47 96 6 145 -21 26 -37 34 -73 38 -41 5 -50 2 -81 -26z m100
-53 c19 -19 14 -56 -8 -68 -38 -21 -80 22 -60 61 12 21 50 25 68 7z"/>
<path d="M5771 2240 c-36 -37 -45 -61 -37 -105 15 -77 84 -106 152 -65 65 41
66 121 2 175 -40 34 -79 32 -117 -5z m93 -62 c15 -25 -4 -53 -35 -53 -17 0
-25 6 -27 23 -7 46 38 67 62 30z"/>
<path d="M6343 2250 c-40 -24 -53 -48 -53 -98 0 -100 135 -135 194 -50 33 46
10 125 -44 153 -38 20 -58 19 -97 -5z m71 -66 c27 -26 12 -58 -25 -52 -27 3
-37 32 -19 53 16 19 25 19 44 -1z"/>
<path d="M6628 2254 c-76 -41 -76 -154 -1 -189 33 -16 38 -16 79 0 44 17 74
54 74 91 0 28 -41 91 -67 103 -32 14 -52 13 -85 -5z m66 -70 c9 -8 16 -19 16
-24 0 -16 -32 -41 -49 -38 -20 4 -27 44 -11 64 16 18 25 18 44 -2z"/>
<path d="M5464 1716 c-43 -43 -44 -77 -5 -117 38 -37 62 -37 106 2 49 44 43
98 -15 132 -39 23 -47 22 -86 -17z m80 -35 c33 -36 -18 -83 -52 -49 -13 13
-16 50 -5 61 12 13 40 7 57 -12z"/>
<path d="M5663 1742 c-28 -4 -35 -29 -31 -112 3 -71 22 -91 39 -42 7 21 22 34
50 45 46 18 53 51 17 84 -27 24 -45 30 -75 25z m42 -62 c0 -8 -8 -16 -17 -18
-13 -2 -18 3 -18 18 0 15 5 20 18 18 9 -2 17 -10 17 -18z"/>
<path d="M6675 1719 c-47 -41 -49 -86 -4 -123 37 -31 81 -34 109 -6 41 41 14
92 -40 75 -25 -8 -26 -22 -2 -28 16 -4 16 -4 -1 -12 -21 -9 -47 10 -47 36 0
27 28 49 63 49 l32 1 -24 19 c-32 27 -44 25 -86 -11z"/>
<path d="M5799 1728 c-11 -8 -19 -35 -23 -75 -6 -70 4 -83 63 -83 42 0 61 9
61 31 0 14 -10 20 -40 25 -33 5 -40 10 -40 30 0 19 6 23 38 26 30 2 38 7 40
26 2 12 0 22 -5 22 -4 1 -24 3 -43 6 -21 3 -42 0 -51 -8z"/>
<path d="M5946 1721 c-24 -27 -19 -134 7 -139 10 -2 17 3 17 12 0 24 18 19 44
-11 16 -18 28 -24 40 -20 16 7 16 9 -3 41 -21 33 -21 33 -1 51 26 23 25 31 -5
60 -29 30 -75 33 -99 6z m64 -46 c0 -8 -7 -15 -15 -15 -8 0 -15 7 -15 15 0 8
7 15 15 15 8 0 15 -7 15 -15z"/>
<path d="M6121 1679 c-39 -79 -42 -126 -5 -112 8 3 14 11 14 19 0 20 66 19 74
-1 8 -23 23 -18 30 11 5 20 -1 40 -26 82 -18 30 -38 57 -44 59 -7 2 -26 -24
-43 -58z m54 -19 c3 -5 -1 -10 -10 -10 -9 0 -13 5 -10 10 3 6 8 10 10 10 2 0
7 -4 10 -10z"/>
<path d="M6241 1721 c-12 -22 -5 -31 26 -31 22 0 23 -4 23 -61 0 -52 2 -60 18
-57 14 3 17 14 17 60 0 55 1 58 28 64 20 4 27 10 23 21 -3 8 -6 17 -6 19 0 2
-27 4 -60 4 -48 0 -61 -4 -69 -19z"/>
<path d="M6580 1693 l0 -48 -42 44 c-39 40 -43 42 -55 25 -18 -25 -17 -118 2
-134 16 -14 21 -7 27 40 4 25 4 25 40 -14 20 -21 41 -35 47 -31 6 3 11 40 11
86 0 64 -3 79 -15 79 -11 0 -15 -12 -15 -47z"/>
<path d="M6404 1716 c-10 -25 1 -139 13 -143 18 -6 26 40 18 102 -6 53 -20 70
-31 41z"/>
<path d="M5711 1467 c-39 -39 14 -57 164 -57 l125 0 0 24 c0 14 -6 28 -12 32
-20 13 -265 13 -277 1z"/>
<path d="M6292 1465 c-48 -21 -40 -47 18 -57 57 -10 110 6 110 33 0 36 -69 49
-128 24z"/>
<path d="M5502 1463 c-23 -5 -49 -40 -37 -51 4 -4 39 -7 78 -7 66 0 72 2 75
22 2 14 -3 23 -15 27 -30 9 -77 13 -101 9z"/>
<path d="M6070 1435 c-14 -37 2 -55 50 -55 51 0 70 8 70 30 0 25 -23 41 -69
47 -37 5 -41 3 -51 -22z"/>
<path d="M6497 1384 c-16 -17 -6 -55 17 -66 38 -17 58 -4 54 34 -3 29 -7 33
-33 36 -17 2 -34 0 -38 -4z"/>
<path d="M5512 1342 c-23 -3 -46 -34 -35 -46 20 -19 128 4 121 26 -5 14 -52
25 -86 20z"/>
<path d="M6080 1331 c0 -13 9 -20 33 -24 39 -6 47 -2 47 24 0 16 -7 19 -40 19
-33 0 -40 -4 -40 -19z"/>
<path d="M6264 1336 c-15 -12 -17 -18 -8 -33 16 -25 151 -27 167 -1 8 12 7 21
-2 32 -18 21 -129 22 -157 2z"/>
<path d="M5702 1328 c-17 -17 -15 -35 6 -43 9 -5 76 -10 147 -13 113 -4 133
-2 144 12 22 26 0 39 -82 48 -112 11 -202 9 -215 -4z"/>
<path d="M5503 1162 c-12 -2 -27 -10 -34 -18 -28 -34 61 -64 134 -46 20 5 23
35 5 50 -14 11 -71 19 -105 14z"/>
<path d="M5728 1163 c-11 -3 -18 -14 -18 -28 0 -14 8 -28 18 -33 22 -12 207
-21 223 -12 19 12 2 59 -24 64 -35 7 -180 14 -199 9z"/>
<path d="M6042 1158 c-7 -7 -12 -22 -12 -35 0 -29 29 -37 94 -26 55 9 78 32
57 57 -16 19 -121 22 -139 4z"/>
<path d="M6274 1146 c-3 -8 -4 -23 -2 -33 3 -15 13 -18 63 -18 56 0 60 2 63
24 5 31 -12 41 -71 41 -32 0 -49 -5 -53 -14z"/>
<path d="M2236 1726 c-43 -29 -82 -60 -87 -68 -18 -32 9 -65 101 -127 97 -65
115 -67 141 -20 9 17 7 26 -8 48 l-20 26 666 0 c366 1 928 4 1249 9 320 4 582
6 582 3 0 -3 -6 -17 -14 -32 -16 -31 -9 -63 17 -79 21 -14 62 8 146 75 83 68
83 93 1 144 -25 15 -62 38 -82 52 -64 43 -120 12 -86 -47 l17 -29 -32 -6 c-41
-6 -2477 -15 -2477 -8 0 3 9 16 20 30 23 29 25 54 8 71 -22 22 -63 11 -142
-42z"/>
<path d="M832 694 c-22 -15 -23 -18 -16 -157 7 -142 22 -203 47 -194 7 2 13
29 15 65 2 34 7 62 12 62 12 0 35 -25 71 -76 31 -45 46 -53 67 -32 21 21 13
43 -28 83 -22 21 -40 45 -40 51 0 7 14 26 30 42 35 36 38 64 10 110 -34 55
-121 79 -168 46z m118 -69 c6 -8 9 -23 5 -33 -6 -22 -58 -48 -74 -37 -12 7
-15 68 -4 78 12 12 60 7 73 -8z"/>
<path d="M1065 696 c-16 -12 -17 -24 -11 -122 11 -176 17 -214 35 -224 28 -14
91 6 127 41 71 68 82 169 27 237 -47 58 -142 94 -178 68z m135 -119 c11 -18
20 -43 20 -56 0 -35 -46 -91 -74 -91 -22 0 -23 4 -30 96 -3 52 -4 99 -1 105
10 15 64 -19 85 -54z"/>
<path d="M1526 693 c-2 -10 -10 -57 -17 -105 -7 -49 -16 -88 -20 -88 -4 0 -14
18 -23 40 -21 53 -49 54 -75 3 l-19 -37 -7 54 c-12 97 -24 130 -46 130 -11 0
-22 -7 -25 -15 -4 -9 2 -74 11 -145 26 -190 44 -215 91 -126 l29 56 22 -43
c34 -67 47 -74 73 -37 23 33 60 188 60 257 0 56 -41 99 -54 56z"/>
<path d="M1853 686 l-28 -24 4 -133 c4 -148 11 -179 41 -179 24 0 35 35 27 86
-3 18 -3 34 -1 34 17 0 46 -26 78 -70 37 -51 59 -62 70 -34 12 30 6 45 -35 89
l-41 45 31 35 c37 42 39 70 8 116 -42 62 -106 76 -154 35z m98 -56 c28 -16 24
-47 -11 -65 -40 -21 -47 -19 -54 11 -14 55 16 80 65 54z"/>
<path d="M2090 690 c-18 -18 -20 -33 -20 -139 0 -125 11 -175 40 -191 10 -6
48 -10 83 -10 51 0 68 4 82 20 28 31 5 49 -68 52 -60 3 -62 4 -65 32 -4 32 10
46 49 46 14 0 33 6 43 13 17 13 17 14 1 30 -10 11 -33 17 -61 17 -43 0 -44 0
-44 34 0 38 12 46 70 46 51 0 70 8 70 31 0 27 -31 39 -99 39 -48 0 -65 -4 -81
-20z"/>
<path d="M312 683 c-5 -10 -10 -82 -10 -160 -1 -148 8 -183 42 -170 12 5 16
20 16 65 l0 59 50 7 c28 4 55 4 59 1 5 -3 7 -23 4 -44 -10 -74 15 -114 47 -76
16 20 25 270 11 308 -12 30 -45 37 -55 11 -3 -9 -6 -43 -6 -75 l0 -60 -52 3
-53 3 -3 50 c-3 71 -10 95 -27 95 -8 0 -18 -8 -23 -17z"/>
<path d="M634 664 c-25 -61 -68 -227 -68 -269 -1 -36 1 -40 24 -40 20 0 26 5
28 30 4 37 26 55 68 55 29 0 33 -3 43 -44 13 -51 25 -63 47 -45 20 17 12 85
-22 186 -55 166 -89 202 -120 127z m55 -105 c16 -47 14 -59 -12 -59 -33 0 -36
6 -25 50 13 48 22 50 37 9z"/>
<path d="M1656 673 c-16 -32 -71 -211 -80 -260 -7 -42 1 -63 25 -63 22 0 39
28 39 64 0 24 4 26 43 26 41 0 42 -1 57 -48 17 -53 39 -62 54 -20 8 22 2 55
-28 160 -21 73 -43 141 -48 151 -13 26 -46 21 -62 -10z m54 -149 c0 -14 -38
-25 -45 -14 -6 9 3 57 13 75 6 9 31 -39 32 -61z"/>
<path d="M5205 593 c-29 -7 -56 -34 -72 -71 -19 -46 -2 -77 72 -127 65 -45 78
-68 45 -85 -17 -9 -29 -7 -65 11 -52 26 -72 17 -61 -25 8 -31 52 -56 101 -56
65 0 114 41 115 96 0 33 -34 70 -108 118 -30 18 -42 32 -38 42 3 9 6 18 6 20
0 8 65 4 80 -6 9 -5 19 -5 27 2 23 18 14 48 -19 68 -33 20 -46 22 -83 13z"/>
<path d="M5683 589 c-18 -5 -37 -17 -41 -27 -5 -9 -7 -79 -4 -156 4 -120 7
-141 24 -158 29 -29 46 -8 50 60 l3 57 46 5 c101 12 100 63 -1 74 l-61 7 3 32
c3 31 4 32 58 35 62 4 80 14 73 43 -10 36 -78 49 -150 28z"/>
<path d="M6654 575 c-24 -24 -24 -25 -18 -167 4 -79 11 -149 17 -155 26 -34
47 -3 47 70 0 20 4 37 9 37 11 0 75 -71 91 -99 14 -27 36 -27 50 -1 15 29 4
56 -36 86 -19 15 -34 31 -34 36 0 6 14 26 30 45 35 39 37 66 10 110 -38 63
-121 83 -166 38z m97 -55 c29 -16 25 -58 -7 -72 -22 -11 -28 -10 -40 7 -8 10
-14 31 -14 47 0 22 5 28 21 28 11 0 29 -5 40 -10z"/>
<path d="M5420 551 c-49 -52 -65 -101 -55 -176 13 -104 98 -162 171 -117 85
54 84 214 -2 293 -50 46 -70 46 -114 0z m113 -104 c22 -45 16 -85 -18 -117
-21 -20 -29 -22 -49 -12 -49 22 -58 130 -15 173 18 18 23 19 42 6 12 -7 30
-30 40 -50z"/>
<path d="M5857 583 c-4 -3 -7 -19 -7 -35 0 -26 3 -28 40 -28 l40 0 0 -134 c0
-110 3 -136 16 -147 11 -9 20 -10 32 -2 15 9 17 29 14 146 l-3 136 38 3 c31 2
39 7 41 27 2 13 -2 28 -10 32 -15 10 -192 12 -201 2z"/>
<path d="M6330 566 c-4 -13 -14 -60 -20 -105 -7 -44 -15 -79 -19 -76 -4 2 -13
22 -21 44 -21 66 -57 65 -85 -2 l-17 -42 -9 35 c-4 19 -11 63 -15 98 -5 52 -9
62 -25 62 -32 0 -41 -42 -28 -139 6 -47 17 -110 26 -139 24 -85 66 -89 93 -7
6 19 15 35 19 35 4 0 16 -18 26 -40 25 -55 38 -64 58 -42 25 27 45 94 63 203
11 73 12 103 4 119 -14 27 -38 25 -50 -4z"/>
<path d="M6472 578 c-13 -18 -58 -151 -76 -228 -14 -61 -10 -100 13 -114 17
-11 41 24 41 60 0 33 1 34 39 34 37 0 40 -3 51 -37 16 -48 22 -55 43 -47 32
12 30 51 -8 182 -21 70 -42 135 -47 145 -10 20 -41 23 -56 5z m38 -134 c15
-38 13 -44 -16 -44 -22 0 -25 3 -20 23 3 12 6 28 6 35 0 22 20 13 30 -14z"/>
<path d="M6896 568 c-19 -27 -23 -209 -6 -270 14 -48 34 -58 117 -60 58 -1 69
2 85 22 28 35 8 50 -67 50 -59 0 -63 2 -69 25 -8 33 -1 45 29 45 37 0 75 18
75 35 0 20 -46 38 -82 32 -26 -3 -28 -1 -28 35 l0 38 53 0 c64 0 98 19 81 47
-9 15 -27 19 -92 21 -74 3 -82 1 -96 -20z"/>
</g>
</svg>
