<?xml version="1.0" standalone="no"?>
<!DOCTYPE svg PUBLIC "-//W3C//DTD SVG 20010904//EN"
 "http://www.w3.org/TR/2001/REC-SVG-20010904/DTD/svg10.dtd">
<svg version="1.0" xmlns="http://www.w3.org/2000/svg"
 width="8025.000000pt" height="6741.000000pt" viewBox="0 0 8025.000000 6741.000000"
 preserveAspectRatio="xMidYMid meet">

<g transform="translate(0.000000,6741.000000) scale(0.100000,-0.100000)"
fill="#000000" stroke="none">
<path d="M46505 67400 c-1728 -6 -1752 -6 -1900 -28 -696 -100 -1265 -323
-1738 -678 -682 -513 -1074 -1241 -1179 -2189 -10 -97 -13 -633 -13 -2750 0
-2164 3 -6346 4 -6500 5 -488 22 -3227 30 -4870 30 -5914 72 -11671 181
-25175 84 -10427 119 -14923 140 -18245 14 -2176 27 -3336 40 -3515 78 -1091
338 -1794 856 -2314 493 -495 1161 -757 2144 -841 344 -29 937 -34 4750 -40
2126 -2 5069 -10 6540 -16 3722 -17 13124 -17 15160 -1 2742 21 5113 48 5620
62 180 5 376 17 440 25 452 61 853 206 1183 426 171 113 272 196 406 330 512
511 830 1250 917 2128 15 155 23 785 44 3306 55 6809 83 12741 100 21555 15
7285 8 35538 -8 35810 -53 870 -164 1386 -398 1851 -207 414 -523 758 -920
1002 -489 300 -1162 479 -1984 526 -395 23 -4413 73 -8110 101 -5317 40
-16220 59 -22305 40z m15155 -840 c5638 -17 9366 -45 13430 -100 1132 -16
1749 -29 1895 -40 1178 -94 1835 -452 2142 -1167 158 -368 235 -817 263 -1533
5 -140 10 -846 10 -1567 l0 -1313 -18443 0 -18444 0 -6 872 c-10 1261 -8 2367
3 2563 34 567 184 1003 472 1376 399 517 1105 851 1928 912 110 8 13943 6
16750 -3z m17740 -8725 l0 -2165 -18438 0 -18439 0 -6 1217 c-4 669 -7 1643
-7 2165 l0 948 18445 0 18445 0 0 -2165z m5 -8302 c13 -8503 -4 -23009 -35
-30453 -24 -5853 -74 -13411 -100 -15160 -10 -646 -14 -711 -60 -955 -89 -472
-292 -917 -553 -1215 -288 -327 -684 -530 -1167 -595 -130 -18 -580 -28 -2000
-45 -3272 -38 -5716 -50 -10652 -50 l-4328 0 0 518 c0 379 -95 20295 -122
25610 l-3 542 970 -4 c534 -2 1001 -7 1039 -11 41 -4 86 -2 113 4 32 9 1167
14 4121 21 3741 8 4082 10 4132 25 112 34 210 119 261 228 25 55 33 100 73
417 198 1553 288 3090 273 4630 -13 1266 -81 2282 -223 3320 -77 562 -130 827
-220 1095 -347 1035 -1223 2064 -2209 2594 l-120 65 -2 54 c-6 134 -238 697
-387 942 -286 468 -667 762 -1116 861 -150 34 -390 34 -540 0 -466 -102 -852
-413 -1075 -866 -64 -129 -136 -341 -161 -473 l-18 -91 -70 4 c-74 5 -669 19
-1526 35 -1966 38 -4285 13 -5735 -60 -98 -5 -181 -8 -182 -6 -1 1 -7 216 -13
477 -22 1018 -58 1960 -105 2744 -11 179 -18 243 -34 288 -46 132 -162 237
-293 266 -50 12 -549 36 -1023 51 -765 24 -1480 3 -2222 -65 -263 -24 -729
-79 -782 -92 -100 -24 -216 -112 -264 -202 -57 -103 -55 -70 -63 -1550 -8
-1534 -13 -1421 67 -1540 51 -77 131 -135 223 -163 70 -21 74 -21 846 -15 426
4 847 10 936 14 l161 6 6 -59 c4 -32 9 -100 13 -150 l6 -91 -143 -28 c-792
-154 -1552 -404 -2204 -725 -1526 -752 -2571 -1945 -3089 -3525 -339 -1034
-541 -2444 -618 -4305 -17 -402 -17 -1841 0 -2270 27 -699 75 -1493 94 -1565
34 -130 145 -245 276 -285 l66 -21 3236 7 3237 7 6 -444 c15 -1041 280 -26199
276 -26202 -2 -2 -1145 1 -2539 5 -8863 28 -8518 26 -8685 42 -549 51 -889
133 -1206 291 -617 309 -937 894 -1029 1880 -31 333 -32 398 -60 4465 -28
4108 -61 8365 -135 17450 -117 14413 -173 22501 -190 27285 -3 842 -8 1711
-11 1932 l-5 403 5193 3 c2856 1 11154 3 18439 5 l13247 2 7 -5307z m-22708
-6039 l143 -6 5 -32 c11 -69 58 -1216 75 -1836 41 -1472 41 -3463 0 -5495 -23
-1154 -76 -3315 -82 -3320 -2 -2 -48 10 -103 26 -176 52 -290 71 -390 66 -49
-3 -103 -9 -119 -13 l-29 -7 6 384 c52 2934 19 5084 -104 6889 -34 500 -78
1011 -95 1087 -28 131 -124 243 -251 295 -56 22 -70 23 -388 26 -181 2 -604
-1 -939 -8 -335 -6 -610 -9 -612 -7 -6 6 11 1855 17 1861 3 4 89 15 190 26
303 31 562 49 1054 74 105 5 1458 -3 1622 -10z m10263 -2351 c239 -66 476
-310 630 -650 24 -53 26 -63 12 -59 -9 3 -89 15 -177 26 -117 15 -311 26 -720
40 -308 11 -561 20 -561 20 -8 1 38 126 75 205 78 163 169 267 306 350 146 88
284 110 435 68z m-3541 -1394 c355 -6 774 -14 930 -17 l285 -7 -110 -81 c-277
-204 -634 -540 -853 -803 -982 -1180 -1528 -2729 -1685 -4776 -72 -934 -74
-1725 -10 -3530 14 -402 28 -994 31 -1341 l6 -622 -974 -6 c-536 -3 -3222 -9
-5970 -12 l-4996 -6 -6 118 c-44 781 -58 1287 -58 2074 0 805 14 1259 57 1905
91 1378 297 2597 568 3355 315 886 801 1606 1471 2178 343 293 709 530 1170
757 484 238 919 396 1490 540 258 65 522 122 529 114 10 -9 46 -820 66 -1454
33 -1055 38 -3407 11 -4780 -36 -1790 -35 -1703 -17 -1795 50 -248 152 -437
331 -615 229 -230 503 -347 810 -347 299 0 572 113 796 329 113 109 175 191
238 313 97 189 122 301 126 570 5 271 10 486 45 1910 61 2495 77 3405 87 4890
l6 1070 38 0 c21 0 191 7 376 15 599 26 1369 48 1998 58 492 8 2670 5 3214 -4z
m3966 -123 c318 -52 594 -140 866 -276 942 -471 1799 -1558 1974 -2504 77
-420 165 -1116 214 -1711 67 -797 93 -1450 93 -2390 0 -1425 -66 -2531 -243
-4062 l-12 -103 -144 0 -143 0 2 2748 c3 3000 0 3199 -57 3992 -110 1504 -405
2352 -1026 2955 -229 222 -460 385 -790 559 -435 228 -717 298 -1214 297 -591
0 -1137 -130 -1542 -366 -802 -469 -1343 -1355 -1702 -2785 -288 -1145 -443
-2522 -492 -4370 -18 -688 -4 -2361 26 -2927 l6 -113 -176 0 -175 0 0 298 c0
351 -13 880 -40 1672 -37 1091 -42 1297 -42 1920 0 623 8 924 38 1370 121
1849 550 3213 1339 4265 154 206 275 344 456 520 589 575 1291 927 2029 1020
156 19 614 14 755 -9z m-165 -1345 c171 -29 241 -53 438 -152 205 -102 344
-185 478 -284 98 -73 313 -287 382 -380 415 -563 584 -1432 632 -3240 20 -769
21 -1431 10 -3505 -7 -1174 -13 -2136 -14 -2137 -1 -1 -1152 -5 -2557 -9
l-2556 -7 -7 209 c-51 1543 -45 2735 20 3864 135 2390 526 4029 1166 4888 109
147 321 353 452 441 140 93 274 160 412 206 125 41 353 89 499 104 55 6 116
13 135 15 65 8 444 -2 510 -13z m-10734 -6247 c157 -45 272 -122 314 -210 58
-120 -23 -285 -178 -361 -116 -56 -233 -36 -337 58 -113 104 -142 239 -78 364
38 74 140 173 179 174 7 1 52 -11 100 -25z m3064 -4366 c0 -35 29 -6034 65
-13332 36 -7298 64 -13270 63 -13271 -2 -1 -555 1 -1229 3 l-1227 4 -6 322
c-4 176 -67 6063 -141 13081 -74 7018 -136 12869 -138 13002 l-4 243 411 3
c226 1 815 3 1309 5 l897 2 0 -62z"/>
<path d="M54875 66179 c-767 -93 -1372 -616 -1655 -1434 -183 -531 -214 -1142
-85 -1720 59 -266 190 -597 326 -821 161 -267 403 -522 646 -681 229 -150 482
-248 768 -298 121 -22 842 -31 3525 -45 1152 -6 2748 -15 3545 -20 2723 -17
6618 -32 7690 -28 l1070 3 125 24 c606 112 1067 410 1394 900 210 313 350 710
412 1161 24 180 29 562 10 760 -88 919 -475 1667 -1023 1981 -102 58 -189 88
-307 104 -359 49 -1586 79 -4346 106 -1440 14 -11988 21 -12095 8z m9025 -829
c4348 -16 6542 -47 7185 -100 103 -9 125 -14 160 -37 242 -160 456 -587 540
-1078 106 -619 7 -1222 -268 -1635 -71 -106 -253 -283 -353 -343 -169 -100
-357 -163 -564 -187 -129 -16 -5885 4 -10374 36 l-958 7 6 36 c3 20 6 158 6
307 l0 271 158 6 c187 6 272 26 412 94 213 105 356 318 391 582 28 210 -36
467 -158 633 -79 108 -216 205 -342 242 -114 33 -298 15 -424 -41 l-58 -26
-37 35 c-51 49 -78 61 -137 61 -90 0 -178 -65 -204 -152 -8 -28 -11 -320 -11
-1046 l0 -1008 -257 7 c-142 3 -969 8 -1838 12 -896 3 -1625 9 -1685 15 -286
27 -522 140 -722 347 -238 247 -388 579 -455 1002 -25 162 -25 540 0 695 41
246 96 423 192 615 189 376 495 606 865 649 104 12 5843 13 8930 1z m-4208
-1596 c89 -62 148 -187 155 -329 6 -118 -17 -183 -90 -259 -100 -101 -283
-155 -439 -130 l-38 7 0 272 0 273 70 75 c92 99 151 130 237 125 50 -3 71 -10
105 -34z"/>
<path d="M63910 65128 c-80 -42 -68 -16 -490 -993 -43 -99 -126 -290 -185
-425 -59 -135 -166 -380 -237 -545 -72 -165 -144 -327 -161 -360 -41 -81 -49
-181 -19 -247 31 -70 109 -118 191 -118 42 0 108 29 134 57 21 24 183 390 607
1373 172 399 329 759 350 800 47 93 100 242 100 280 0 40 -27 110 -53 139 -56
61 -160 78 -237 39z"/>
<path d="M65054 65131 c-64 -29 -96 -79 -189 -295 -109 -250 -264 -606 -525
-1206 -112 -256 -231 -530 -265 -610 -34 -80 -77 -174 -95 -210 -54 -106 -53
-225 2 -296 28 -35 113 -74 163 -74 45 0 112 28 137 57 22 24 200 426 593
1338 163 380 325 751 360 825 70 150 105 245 105 287 0 149 -150 246 -286 184z"/>
<path d="M56585 64826 c-40 -18 -80 -62 -100 -109 -23 -56 -38 -243 -31 -393
l6 -132 -93 -4 c-79 -3 -100 -8 -140 -31 -150 -88 -135 -277 28 -353 39 -19
67 -24 128 -24 l77 0 0 -472 c0 -612 4 -637 109 -690 93 -47 211 -29 260 40
43 63 44 81 42 613 l-2 507 133 4 c122 3 138 6 191 32 39 19 66 41 84 67 63
95 8 258 -100 298 -16 6 -91 11 -167 11 l-139 0 -3 253 -3 254 -30 43 c-43 62
-95 93 -163 97 -34 2 -69 -2 -87 -11z"/>
<path d="M57935 64826 c-16 -7 -46 -31 -66 -53 -52 -57 -64 -129 -64 -379 l0
-202 -90 -4 c-77 -3 -98 -8 -138 -31 -113 -67 -140 -193 -60 -287 54 -62 119
-90 216 -90 l77 0 0 -482 c0 -622 3 -637 123 -688 100 -43 221 -9 261 74 30
64 35 125 25 341 -5 116 -6 333 -3 483 l7 272 106 0 c123 0 194 16 250 54 50
35 71 79 71 148 -1 87 -52 171 -123 197 -16 6 -91 11 -167 11 l-139 0 -3 253
-3 253 -35 49 c-60 83 -162 117 -245 81z"/>
<path d="M54685 64808 c-58 -21 -113 -67 -134 -111 -21 -44 -21 -44 -19 -1018
3 -939 4 -975 22 -1013 12 -23 38 -50 65 -68 41 -26 53 -29 113 -26 85 5 140
39 177 113 l26 49 3 334 3 334 94 112 c122 145 184 186 281 186 106 0 179
-114 199 -310 3 -36 -1 -160 -10 -276 -22 -291 -8 -399 62 -493 30 -39 93 -70
144 -71 77 0 167 69 198 153 18 46 26 595 11 727 -46 422 -275 683 -600 684
-107 0 -171 -15 -287 -69 l-93 -44 0 287 c-1 408 -8 450 -83 506 -32 23 -126
31 -172 14z"/>
<path d="M60830 64207 c-211 -60 -360 -258 -360 -476 0 -252 157 -405 505
-491 139 -34 195 -78 195 -152 0 -112 -73 -144 -221 -99 -72 23 -128 59 -200
131 -56 56 -103 80 -157 80 -105 0 -181 -80 -182 -190 0 -83 15 -113 98 -191
172 -164 346 -243 537 -242 154 2 256 45 361 155 155 161 193 386 99 585 -67
143 -159 206 -405 278 -69 20 -150 49 -180 64 -54 26 -55 28 -58 72 -2 37 2
50 23 73 26 28 28 29 113 24 66 -4 107 -13 167 -37 44 -17 101 -34 127 -38 62
-8 126 17 159 60 20 27 24 43 24 108 0 66 -4 81 -28 117 -41 63 -97 98 -221
138 -97 32 -126 37 -231 40 -79 3 -135 0 -165 -9z"/>
<path d="M62109 64177 c-114 -32 -179 -119 -179 -238 0 -82 16 -130 59 -180
97 -114 270 -118 382 -10 33 32 51 60 59 91 16 55 15 155 0 195 -43 114 -190
179 -321 142z"/>
<path d="M62121 63174 c-95 -26 -157 -77 -181 -150 -8 -22 -11 -67 -8 -113 7
-117 46 -179 140 -221 109 -48 210 -33 296 45 58 52 82 109 82 193 0 111 -42
182 -133 226 -68 33 -129 39 -196 20z"/>
<path d="M44420 65165 c-205 -29 -421 -90 -544 -152 -334 -168 -602 -493 -730
-886 -64 -192 -81 -306 -80 -527 0 -221 16 -316 80 -501 127 -365 383 -646
747 -819 216 -103 434 -146 687 -137 241 9 429 56 645 161 278 136 516 369
639 626 51 106 111 297 138 436 19 102 23 152 23 349 0 200 -3 245 -23 343
-118 584 -464 964 -992 1089 -89 21 -135 25 -300 28 -132 3 -226 0 -290 -10z
m368 -825 c203 -33 324 -155 382 -382 54 -217 26 -503 -67 -680 -48 -93 -129
-165 -246 -223 -127 -62 -198 -79 -337 -78 -98 0 -127 4 -195 27 -212 72 -356
222 -411 427 -24 93 -22 270 5 374 55 210 179 384 329 459 125 63 389 100 540
76z"/>
<path d="M47775 65174 c-314 -45 -524 -107 -682 -202 -375 -226 -630 -612
-720 -1095 -26 -142 -23 -429 6 -567 93 -436 329 -764 704 -978 245 -140 503
-201 796 -189 305 13 566 98 821 268 114 76 295 253 361 354 126 190 205 411
245 685 23 160 15 481 -16 625 -69 321 -193 559 -394 753 -142 137 -277 220
-461 281 -158 52 -225 62 -435 66 -107 2 -208 1 -225 -1z m384 -853 c199 -62
312 -250 328 -546 13 -246 -47 -473 -157 -589 -167 -176 -455 -256 -690 -190
-164 46 -317 168 -383 305 -52 105 -67 175 -67 304 0 291 143 556 357 664 144
72 461 99 612 52z"/>
<path d="M51065 65173 c-453 -55 -724 -178 -977 -442 -400 -416 -548 -1059
-368 -1602 106 -321 297 -568 580 -752 142 -91 268 -146 435 -190 148 -39 260
-50 425 -44 413 15 785 177 1060 463 191 199 309 447 366 767 66 376 20 763
-126 1074 -187 398 -530 652 -970 718 -86 13 -344 18 -425 8z m315 -834 c190
-30 306 -147 372 -374 20 -71 23 -101 22 -255 0 -156 -3 -186 -27 -273 -35
-131 -76 -204 -157 -280 -199 -188 -524 -238 -765 -118 -158 79 -258 188 -312
341 -32 92 -43 254 -23 364 39 222 174 432 329 514 128 68 399 107 561 81z"/>
<path d="M71088 58751 c-81 -26 -135 -61 -196 -125 -98 -104 -132 -222 -132
-461 l0 -143 -43 -11 c-79 -19 -127 -79 -127 -155 0 -77 64 -158 135 -172 l35
-6 0 -367 c0 -237 4 -380 11 -406 15 -54 82 -120 132 -129 50 -9 119 24 161
77 l31 39 3 392 3 393 122 6 c67 4 145 13 174 22 121 36 173 136 123 235 -42
82 -119 106 -304 96 l-118 -7 3 153 c4 140 6 156 27 191 24 37 66 67 96 67 9
0 63 -18 121 -40 112 -43 156 -48 208 -26 72 30 113 122 88 199 -24 72 -134
147 -266 182 -80 20 -215 19 -287 -4z"/>
<path d="M65411 58718 c-19 -7 -51 -28 -71 -47 -96 -91 -78 -253 35 -319 86
-50 219 -11 261 76 25 51 24 147 -3 198 -37 73 -145 117 -222 92z"/>
<path d="M60095 58700 c-40 -9 -65 -23 -91 -52 -43 -46 -49 -89 -49 -328 l0
-225 -160 0 c-147 -1 -167 -3 -242 -28 -298 -100 -468 -382 -450 -750 6 -129
29 -207 91 -300 106 -160 307 -261 483 -243 82 9 242 59 311 98 l52 30 30 -26
c32 -26 87 -46 129 -46 44 0 106 38 129 79 29 51 28 103 -3 169 l-25 54 0 709
c0 767 1 749 -53 807 -40 43 -99 63 -152 52z m-187 -946 l52 -7 0 -233 0 -233
-47 -45 c-66 -62 -137 -95 -232 -106 -87 -11 -114 -6 -169 36 -77 59 -102 187
-63 328 12 42 30 95 41 115 58 114 216 169 418 145z"/>
<path d="M62275 58666 c-44 -20 -82 -65 -96 -116 -8 -29 -13 -113 -13 -232
l-1 -186 -87 -4 c-79 -3 -89 -6 -125 -34 -53 -44 -78 -107 -64 -161 12 -45 55
-94 102 -118 16 -9 62 -18 103 -22 l75 -6 3 -431 c3 -371 5 -436 19 -466 40
-89 183 -117 260 -53 61 52 62 54 60 524 l-2 426 112 6 c121 7 175 25 219 72
55 58 29 199 -44 245 -29 17 -50 20 -160 20 l-126 0 0 208 0 209 -31 46 c-49
74 -133 104 -204 73z"/>
<path d="M49894 58569 c-78 -13 -203 -55 -260 -88 -109 -63 -235 -205 -275
-311 -41 -109 -14 -276 60 -375 87 -115 216 -184 431 -230 170 -37 268 -64
312 -86 88 -45 125 -175 75 -262 -53 -89 -133 -121 -272 -107 -154 15 -256 54
-339 129 -60 55 -94 75 -143 85 -44 10 -113 -22 -144 -65 -20 -29 -24 -46 -24
-111 0 -76 0 -77 40 -118 22 -23 71 -63 110 -89 241 -166 530 -230 731 -161
144 50 305 181 357 292 102 217 65 427 -108 604 -109 111 -230 163 -515 219
-139 28 -221 60 -240 94 -33 64 15 156 103 196 70 32 209 59 261 51 22 -4 97
-20 166 -36 145 -34 176 -31 227 22 55 57 69 136 37 204 -21 43 -58 66 -169
103 -142 47 -294 61 -421 40z"/>
<path d="M66215 58194 c-119 -38 -233 -153 -275 -279 -18 -53 -21 -83 -18
-153 6 -161 82 -268 243 -343 45 -21 127 -50 181 -65 119 -31 168 -60 184
-109 14 -43 -1 -97 -33 -120 -66 -46 -240 17 -342 125 -42 45 -81 62 -138 62
-104 0 -174 -105 -146 -220 10 -38 25 -60 81 -114 245 -239 567 -283 765 -104
106 96 157 213 156 356 0 63 -6 100 -23 145 -59 154 -129 210 -340 275 -128
39 -200 66 -229 86 -30 21 -28 73 4 108 36 39 110 36 240 -9 112 -39 164 -43
214 -17 104 53 89 232 -24 302 -19 12 -73 35 -122 52 -75 26 -106 31 -208 34
-90 3 -132 0 -170 -12z"/>
<path d="M68378 58191 c-189 -62 -320 -277 -289 -472 30 -181 163 -295 427
-365 104 -27 158 -53 174 -84 6 -10 10 -39 10 -65 0 -88 -60 -114 -181 -79
-66 19 -131 60 -184 114 -53 55 -88 72 -147 72 -78 0 -129 -43 -149 -127 -18
-82 -1 -127 80 -205 120 -117 230 -177 380 -207 229 -48 445 80 521 307 18 54
21 82 18 165 -3 87 -8 109 -35 166 -62 132 -131 181 -350 247 -73 22 -152 51
-175 64 -37 20 -43 28 -46 60 -3 29 2 43 22 63 38 38 113 34 241 -10 55 -19
118 -35 140 -35 115 0 178 112 126 225 -30 68 -87 110 -198 146 -127 42 -293
51 -385 20z"/>
<path d="M52711 58184 c-92 -25 -171 -74 -258 -161 -72 -71 -89 -97 -137 -195
-79 -162 -91 -213 -91 -393 0 -232 44 -354 170 -480 137 -137 333 -195 510
-150 83 21 193 76 248 125 120 106 127 257 14 313 -45 23 -112 24 -158 3 -19
-9 -62 -36 -96 -60 -84 -60 -142 -69 -216 -32 -100 49 -142 146 -135 308 5
119 31 191 105 286 50 64 100 96 167 105 54 8 95 -9 164 -66 23 -20 65 -43 93
-52 44 -15 57 -15 96 -4 91 25 142 108 122 199 -25 118 -195 226 -409 260 -85
13 -123 12 -189 -6z"/>
<path d="M55555 58180 c-74 -11 -159 -44 -233 -90 l-65 -41 -66 33 c-114 56
-221 38 -272 -46 -40 -65 -18 -168 48 -223 l26 -21 -2 -420 c-2 -293 1 -433 9
-463 21 -78 86 -129 165 -129 52 0 77 10 118 48 52 49 57 90 57 488 l0 362 63
56 c65 59 165 116 203 116 12 0 44 -16 70 -35 77 -55 104 -67 149 -67 52 -1
102 26 132 72 35 51 32 141 -5 201 -69 108 -251 181 -397 159z"/>
<path d="M65388 58158 c-45 -28 -71 -62 -87 -109 -14 -44 -14 -2 -4 -629 9
-560 8 -552 77 -605 65 -49 134 -45 198 13 70 63 68 41 68 644 0 335 -4 557
-10 579 -6 20 -27 56 -48 80 -36 40 -42 43 -98 46 -49 3 -65 0 -96 -19z"/>
<path d="M51448 58139 c-89 -9 -239 -57 -318 -101 -179 -100 -268 -213 -310
-391 -39 -165 -36 -302 11 -453 54 -174 229 -341 409 -389 127 -34 316 -12
513 58 118 43 174 74 217 123 88 101 77 210 -27 256 -64 28 -108 21 -233 -40
-128 -62 -203 -82 -306 -82 -62 0 -90 5 -129 24 -51 24 -93 60 -78 69 4 2 64
19 132 36 276 72 419 138 527 246 83 82 104 131 104 240 0 84 -20 150 -67 222
-44 67 -92 109 -167 144 -53 25 -79 31 -176 43 -14 1 -60 -1 -102 -5z m164
-369 c40 -49 12 -104 -77 -148 -55 -27 -386 -132 -416 -132 -10 0 14 99 33
135 32 60 121 122 226 156 82 27 208 22 234 -11z"/>
<path d="M56660 58139 c-145 -16 -289 -71 -405 -153 -165 -119 -238 -264 -252
-506 -10 -172 28 -318 112 -436 179 -251 430 -314 795 -198 161 50 253 107
297 181 54 92 28 184 -62 219 -61 23 -107 15 -217 -39 -51 -25 -115 -53 -143
-63 -66 -22 -212 -30 -269 -14 -48 13 -122 68 -109 81 4 4 54 19 111 34 349
88 547 197 618 340 54 112 40 259 -37 374 -93 140 -246 202 -439 180z m134
-353 c25 -10 36 -22 41 -45 17 -79 -72 -129 -381 -216 -70 -20 -129 -34 -131
-31 -3 3 4 36 16 74 14 46 32 80 54 103 39 40 140 96 206 115 63 17 155 17
195 0z"/>
<path d="M61245 58134 c-225 -50 -440 -225 -553 -449 -56 -112 -83 -218 -89
-350 -8 -179 28 -293 124 -396 97 -104 206 -148 383 -156 138 -6 224 11 318
63 l64 35 38 -34 c76 -69 184 -76 246 -16 38 37 58 94 48 136 -4 15 -34 84
-66 153 -57 120 -60 129 -69 240 -6 63 -9 232 -7 375 2 228 0 264 -15 291 -25
48 -70 88 -113 102 -63 21 -229 24 -309 6z m88 -421 c-5 -80 8 -322 23 -450
l7 -51 -72 -46 c-81 -52 -133 -64 -199 -47 -46 13 -105 59 -127 100 -52 102
-1 313 105 433 65 74 185 145 247 147 21 1 22 -1 16 -86z"/>
<path d="M63479 58135 c-144 -29 -278 -103 -395 -220 -114 -113 -182 -230
-229 -391 -107 -364 39 -658 364 -730 149 -33 352 -6 453 61 46 31 46 31 69 1
50 -63 176 -86 239 -43 41 27 70 80 70 126 0 22 -24 86 -67 175 l-67 141 -6
376 -5 376 -27 41 c-16 23 -39 49 -53 58 -64 42 -218 54 -346 29z m99 -855
c12 -65 8 -71 -77 -124 -67 -41 -121 -52 -177 -37 -101 27 -154 96 -154 200 0
214 135 405 335 473 l50 17 7 -237 c3 -130 11 -262 16 -292z"/>
<path d="M69890 58135 c-235 -47 -450 -221 -565 -458 -64 -133 -89 -237 -89
-372 0 -168 42 -285 138 -379 97 -97 234 -146 402 -146 135 0 233 26 326 86
26 17 27 17 59 -16 114 -113 299 -59 299 88 0 32 -17 78 -67 185 l-68 142 -5
371 -5 371 -27 41 c-16 23 -39 49 -53 58 -63 41 -218 54 -345 29z m99 -850
l11 -60 -34 -31 c-19 -16 -60 -43 -91 -58 -47 -25 -63 -28 -107 -23 -113 14
-188 96 -188 206 0 210 139 406 335 473 l50 17 7 -232 c3 -128 11 -259 17
-292z"/>
<path d="M72274 58139 c-136 -15 -285 -73 -400 -155 -173 -123 -246 -281 -248
-539 0 -150 14 -219 70 -333 45 -92 161 -213 249 -259 158 -83 351 -85 590 -6
181 59 267 117 305 204 37 88 14 155 -67 191 -64 28 -108 21 -233 -40 -129
-62 -204 -82 -306 -82 -62 0 -90 5 -129 24 -51 24 -93 60 -78 69 4 2 64 19
132 36 333 87 517 189 596 332 28 50 30 62 30 154 0 92 -3 106 -32 167 -84
177 -256 262 -479 237z m135 -350 c34 -12 51 -35 51 -70 0 -35 -63 -85 -149
-118 -74 -28 -343 -111 -362 -111 -12 0 0 56 24 112 32 78 113 139 237 179 63
21 153 24 199 8z"/>
<path d="M53613 58119 c-38 -11 -85 -65 -102 -117 -8 -24 -14 -144 -18 -342
-6 -348 1 -402 63 -528 40 -82 130 -184 202 -231 167 -107 375 -98 556 23 l63
42 57 -63 c43 -47 68 -65 99 -74 81 -22 146 5 178 74 27 60 25 124 -6 178 -88
155 -110 246 -109 464 0 88 6 212 13 276 17 143 7 200 -45 253 -99 102 -234
48 -284 -113 -25 -80 -36 -325 -22 -491 l9 -115 -46 -60 c-132 -168 -294 -166
-363 4 -22 54 -23 67 -23 386 0 242 -3 336 -12 351 -20 34 -70 72 -111 84 -43
12 -56 11 -99 -1z"/>
<path d="M57627 57236 c-74 -27 -77 -33 -237 -403 -72 -169 -82 -196 -75 -229
14 -78 110 -132 198 -112 78 17 107 59 251 369 47 102 86 197 86 211 0 68 -40
129 -105 159 -47 22 -67 23 -118 5z"/>
<path d="M52557 53675 c-549 -89 -997 -470 -1323 -1125 -614 -1234 -697 -3362
-189 -4860 134 -396 334 -782 535 -1035 248 -311 554 -527 878 -621 195 -56
149 -54 1662 -69 9218 -92 9391 -93 12085 -101 l2050 -7 115 22 c700 136 1235
651 1565 1506 362 938 476 2245 309 3545 -135 1055 -432 1881 -826 2296 -135
142 -238 210 -371 243 -419 107 -1958 160 -5817 202 -531 6 -3129 12 -5775 14
-4142 4 -4822 2 -4898 -10z m10018 -835 c3519 -29 5440 -78 6102 -154 134 -16
141 -21 228 -151 294 -444 505 -1299 566 -2292 15 -257 6 -962 -15 -1173 -38
-371 -80 -626 -147 -900 -178 -725 -486 -1220 -871 -1399 -176 -83 -27 -76
-1708 -73 -1549 2 -3634 15 -5510 32 -1781 17 -5078 49 -5630 55 -283 3 -1029
10 -1658 16 -1067 9 -1147 11 -1216 29 -209 53 -397 207 -568 465 -325 490
-530 1254 -589 2190 -15 243 -6 851 15 1065 66 656 192 1175 381 1577 203 430
452 679 725 723 72 12 8316 4 9895 -10z"/>
<path d="M63706 51599 c-159 -15 -337 -55 -541 -123 -165 -55 -197 -63 -243
-59 -45 5 -62 1 -116 -26 -74 -36 -151 -114 -187 -188 l-24 -48 -3 -712 -2
-712 -43 -30 c-110 -75 -170 -227 -138 -347 16 -61 68 -131 127 -172 l53 -37
3 -525 c3 -515 3 -526 25 -572 54 -117 171 -197 299 -206 125 -8 213 39 277
150 53 90 57 126 57 581 l0 420 58 -7 c163 -18 422 -26 535 -16 377 33 687
170 932 414 450 448 519 1107 173 1647 -160 250 -389 425 -666 513 -160 50
-392 72 -576 55z m336 -668 c112 -29 154 -54 248 -150 71 -71 94 -103 132
-181 84 -171 100 -351 45 -522 -31 -98 -72 -162 -148 -232 -141 -131 -341
-206 -599 -227 -129 -10 -346 -1 -440 17 l-30 7 2 586 3 586 80 32 c267 106
510 135 707 84z"/>
<path d="M53974 51510 c-111 -23 -233 -121 -286 -228 l-33 -67 0 -1500 0
-1500 27 -58 c35 -74 117 -160 184 -193 191 -93 405 27 453 254 7 35 11 224
11 547 l0 495 625 0 624 0 3 -527 c3 -525 3 -528 26 -585 28 -68 97 -148 161
-186 41 -24 56 -27 141 -27 81 0 103 4 145 25 106 51 194 179 215 310 6 37 10
265 10 535 l0 470 48 17 c70 25 126 78 164 156 30 60 33 75 33 157 0 79 -4 97
-29 149 -36 74 -93 131 -162 163 l-54 24 0 623 c0 638 -3 704 -40 776 -61 119
-206 189 -348 168 -107 -17 -213 -92 -261 -186 -50 -98 -51 -115 -51 -759 l0
-603 -625 0 -624 0 -3 663 -3 662 -29 63 c-59 127 -186 191 -322 162z"/>
<path d="M57005 51420 c-164 -9 -211 -26 -284 -105 -139 -151 -143 -361 -7
-452 122 -83 356 -118 733 -111 l243 5 2 -1296 c3 -1227 4 -1298 21 -1343 29
-73 88 -132 175 -175 70 -35 83 -38 162 -38 77 0 92 3 153 33 82 40 120 88
138 170 9 43 12 366 11 1354 l-2 1296 313 -1 c415 -2 571 21 661 95 99 82 112
232 33 384 -25 48 -106 132 -154 161 l-45 26 -1007 2 c-553 1 -1069 -1 -1146
-5z"/>
<path d="M59875 51420 c-164 -9 -211 -26 -284 -105 -139 -151 -143 -361 -7
-452 122 -83 356 -118 733 -111 l243 5 2 -1296 c3 -1227 4 -1298 21 -1343 29
-73 88 -132 175 -175 70 -35 83 -38 162 -38 77 0 92 3 153 33 82 40 120 88
138 170 9 43 12 366 11 1354 l-2 1296 313 -1 c415 -2 571 21 661 95 99 82 112
232 33 384 -25 48 -106 132 -154 161 l-45 26 -1007 2 c-553 1 -1069 -1 -1146
-5z"/>
<path d="M66704 51400 c-200 -28 -430 -108 -579 -200 -172 -108 -365 -318
-460 -501 -59 -114 -75 -180 -75 -309 0 -183 53 -363 141 -479 203 -270 421
-379 987 -496 197 -41 395 -96 461 -130 61 -30 136 -112 169 -183 24 -50 27
-69 27 -162 0 -94 -3 -110 -26 -155 -31 -58 -127 -154 -185 -183 -89 -45 -149
-55 -299 -49 -307 13 -559 103 -719 256 -45 43 -100 89 -123 104 -52 33 -152
67 -197 67 -101 0 -213 -76 -262 -177 -21 -43 -29 -75 -32 -138 -8 -152 27
-218 186 -346 191 -154 415 -278 642 -353 227 -75 313 -90 545 -90 216 -1 270
8 416 69 75 32 244 132 329 195 232 172 369 418 399 717 25 240 -40 463 -191
664 -133 177 -233 262 -413 351 -187 93 -334 138 -710 213 -302 61 -382 91
-449 165 -34 37 -36 44 -36 105 0 84 27 142 100 216 62 64 138 99 306 145 85
24 119 27 244 28 143 1 148 0 358 -52 261 -65 292 -69 365 -48 79 23 165 106
196 191 28 74 31 168 8 246 -32 107 -110 161 -335 235 -193 64 -324 85 -537
89 -104 2 -218 0 -251 -5z"/>
<path d="M75005 53640 c-624 -50 -1303 -196 -1705 -367 -870 -370 -1602 -1153
-1979 -2118 -195 -499 -286 -944 -298 -1461 -15 -649 108 -1217 382 -1759 108
-215 186 -341 320 -520 561 -747 1462 -1288 2425 -1454 261 -45 393 -55 710
-55 329 -1 425 7 719 55 918 151 1761 590 2339 1219 63 69 140 159 172 200
383 502 635 1191 731 2000 27 227 37 671 20 901 -71 961 -386 1760 -927 2351
-514 560 -1202 892 -2059 993 -164 19 -680 28 -850 15z m1350 -971 c380 -125
733 -354 975 -635 109 -126 124 -101 -120 -197 -190 -74 -382 -140 -560 -191
-69 -20 -132 -39 -141 -42 -13 -3 -20 9 -34 58 -58 212 -217 611 -359 904
l-93 191 91 -20 c50 -10 159 -41 241 -68z m-2131 -1 c-4 -7 -28 -42 -54 -78
-158 -216 -321 -488 -460 -766 l-95 -191 -135 42 c-213 66 -648 230 -673 254
-19 18 260 256 428 366 246 162 473 259 790 340 186 48 210 52 199 33z m1024
-240 c136 -247 286 -585 375 -845 l45 -131 -31 -6 c-18 -3 -111 -11 -207 -17
-261 -17 -704 -5 -928 26 l-43 6 59 112 c153 289 352 581 572 840 50 59 95
107 99 107 4 0 31 -42 59 -92z m-2658 -1315 c181 -75 454 -175 625 -228 66
-21 121 -39 123 -40 1 -1 -13 -67 -32 -146 -42 -171 -79 -383 -100 -569 -9
-74 -16 -141 -16 -147 0 -10 -138 -13 -658 -13 l-659 0 13 93 c48 344 160 705
321 1034 l74 152 77 -35 c42 -20 147 -65 232 -101z m5257 -13 c97 -311 150
-627 169 -1002 l6 -138 -630 0 -629 0 -7 123 c-10 179 -35 434 -55 577 -10 69
-18 126 -17 127 1 1 87 27 191 57 105 30 258 78 340 106 156 54 511 192 555
216 42 23 53 13 77 -66z m-3589 -455 c445 -66 1001 -78 1456 -30 103 11 142
12 147 4 4 -7 9 -32 13 -58 23 -179 37 -326 43 -453 l6 -147 -944 6 c-519 3
-946 7 -948 9 -16 14 106 684 125 684 2 0 48 -7 102 -15z m-1064 -1537 c3 -18
10 -78 16 -133 16 -135 54 -365 85 -504 27 -120 27 -141 -2 -141 -52 0 -673
-165 -905 -240 l-93 -30 -18 21 c-30 37 -129 219 -180 334 -87 194 -179 501
-203 679 l-7 46 651 0 651 0 5 -32z m2685 17 c15 -16 -114 -604 -138 -628 -6
-6 -66 -5 -173 4 -245 21 -990 19 -1216 -4 -95 -9 -179 -17 -187 -17 -27 0
-84 269 -130 615 l-5 40 922 -3 c507 -2 924 -5 927 -7z m2061 -2 c-1 -25 -84
-346 -115 -443 -61 -191 -205 -516 -257 -582 -12 -16 -30 -11 -238 53 -124 38
-345 99 -491 136 l-266 66 28 111 c39 150 84 383 105 539 l18 127 608 0 c334
0 608 -3 608 -7z m-2683 -1440 l112 -6 -49 -73 c-93 -137 -213 -279 -352 -417
-77 -75 -144 -134 -150 -131 -29 18 -253 386 -337 552 l-31 62 42 1 c24 1 93
5 153 9 151 9 476 11 612 3z m1141 -148 c99 -21 393 -94 497 -123 l30 -8 -64
-48 c-150 -110 -406 -252 -615 -341 -111 -48 -427 -157 -434 -151 -2 2 31 48
74 102 119 153 245 346 339 522 22 39 43 72 47 72 4 0 61 -11 126 -25z m-2784
-43 c33 -83 201 -414 264 -519 33 -57 56 -103 50 -103 -44 0 -318 110 -499
201 -205 102 -509 294 -492 309 18 16 588 158 638 159 15 1 25 -11 39 -47z"/>
<path d="M46765 53419 c-457 -40 -1031 -167 -1352 -300 -1464 -610 -2311
-2500 -1853 -4133 245 -871 844 -1570 1694 -1976 337 -161 670 -257 1061 -307
192 -24 593 -24 795 1 1084 130 2035 708 2515 1529 208 357 376 887 439 1387
42 328 46 775 11 1075 -78 667 -302 1250 -653 1705 -91 117 -296 325 -417 423
-420 339 -947 541 -1555 597 -134 12 -540 11 -685 -1z m581 -829 c408 -33 726
-135 1009 -325 205 -138 344 -278 487 -489 212 -317 349 -714 402 -1166 85
-728 -72 -1548 -392 -2040 -307 -474 -923 -863 -1577 -995 -222 -45 -376 -58
-630 -52 -418 10 -708 80 -1065 259 -267 133 -458 267 -645 453 -346 342 -564
784 -640 1295 -22 150 -30 448 -16 609 84 942 608 1789 1331 2151 156 78 259
115 462 165 473 118 911 164 1274 135z"/>
<path d="M46455 51710 c-233 -50 -433 -155 -604 -316 -169 -159 -263 -324
-336 -590 -56 -204 -104 -548 -105 -745 0 -42 -7 -95 -15 -118 -8 -24 -20 -80
-27 -126 -10 -74 -9 -118 15 -377 15 -161 34 -376 43 -478 8 -102 21 -217 30
-256 51 -240 250 -447 489 -508 105 -27 330 -40 685 -40 365 1 606 14 705 39
277 70 495 330 512 610 5 83 -31 874 -47 1029 -5 49 -19 123 -32 164 -21 72
-21 80 -9 201 34 344 32 510 -9 661 -11 41 -47 130 -80 197 -162 331 -425 558
-748 645 -114 30 -345 35 -467 8z m300 -834 c61 -28 124 -97 166 -181 26 -54
30 -70 27 -131 l-3 -69 -180 -7 c-99 -4 -245 -12 -325 -16 -80 -5 -146 -8
-148 -6 -5 4 45 184 62 226 34 79 127 158 225 189 76 24 117 23 176 -5z m225
-1253 c0 -21 7 -168 15 -327 8 -159 12 -292 9 -295 -7 -8 -730 -8 -738 0 -5 5
-56 546 -56 596 0 18 7 23 43 27 49 7 536 33 650 35 l77 1 0 -37z"/>
<path d="M49340 25784 c-555 -50 -1012 -180 -1501 -425 -1318 -660 -2273
-1962 -2717 -3704 -195 -763 -285 -1502 -313 -2568 -5 -221 -12 -403 -14 -405
-2 -2 -45 -12 -97 -22 -228 -44 -486 -126 -855 -271 -138 -54 -258 -99 -266
-99 -8 0 -46 -16 -84 -35 -78 -39 -157 -115 -193 -184 -32 -63 -50 -163 -44
-250 2 -42 9 -398 14 -791 6 -393 15 -1030 20 -1415 20 -1448 40 -3099 60
-5032 12 -1107 7 -1050 90 -1166 45 -63 120 -116 340 -242 559 -321 1214 -565
1865 -694 83 -16 171 -39 198 -51 63 -28 157 -37 587 -55 1796 -75 3245 -99
4490 -75 2438 48 3823 233 4223 565 257 213 434 702 551 1525 101 704 148
1501 148 2510 0 904 -38 1658 -118 2330 -89 758 -200 1235 -369 1585 -34 72
-70 150 -79 175 -10 29 -62 102 -138 195 -67 83 -259 323 -427 535 -301 381
-464 582 -526 650 l-32 35 8 120 c18 295 31 870 25 1125 -25 1054 -147 1842
-407 2637 -288 877 -708 1599 -1269 2177 -707 728 -1580 1181 -2510 1301 -119
16 -558 28 -660 19z m392 -834 c81 -5 193 -16 248 -25 914 -136 1802 -734
2388 -1606 491 -731 812 -1682 927 -2749 49 -461 68 -1168 46 -1705 -17 -416
-79 -1296 -92 -1309 -2 -2 -80 2 -174 9 -93 8 -251 18 -349 24 -99 6 -181 13
-184 15 -2 3 5 89 17 193 198 1782 97 3166 -306 4183 -180 454 -410 814 -717
1123 -758 761 -1760 1075 -2639 827 -1005 -283 -1730 -1006 -2143 -2138 -263
-721 -404 -1559 -464 -2757 -12 -253 -30 -1087 -30 -1457 0 -148 -2 -268 -5
-268 -2 0 -69 27 -147 59 -79 33 -210 86 -292 119 -137 53 -151 61 -158 88
-15 52 -22 1383 -9 1704 47 1215 196 2058 510 2898 300 802 791 1517 1361
1983 579 473 1233 747 1881 788 178 11 170 11 331 1z m81 -1799 c370 -75 714
-257 1045 -551 479 -426 777 -1116 902 -2090 45 -352 54 -524 55 -1057 0 -281
-2 -514 -5 -517 -3 -3 -222 0 -485 5 -1000 22 -3120 -20 -4060 -81 -77 -5
-142 -7 -144 -5 -12 13 35 707 70 1030 164 1525 592 2485 1324 2968 221 145
536 273 775 312 119 20 392 12 523 -14z m1932 -5053 c6 -6 -24 -318 -42 -429
l-5 -36 -837 -6 c-816 -6 -1018 -11 -1676 -42 -571 -28 -1204 -73 -1692 -121
-142 -14 -288 -28 -325 -31 l-68 -6 0 292 c0 224 3 293 13 296 13 4 512 30
877 45 333 14 891 30 1335 40 442 9 2411 8 2420 -2z m-7160 -1033 c248 -94
464 -179 480 -187 17 -9 55 -23 85 -32 30 -9 144 -50 252 -92 l197 -76 -24
-47 c-38 -75 -93 -244 -109 -334 -27 -146 -28 -206 -12 -612 40 -1027 72
-2270 96 -3725 16 -1008 33 -2600 27 -2606 -7 -7 -207 47 -382 103 -283 91
-668 256 -900 385 l-100 56 -7 484 c-3 265 -11 958 -17 1538 -18 1712 -57
4668 -67 5069 -6 255 -5 264 12 256 11 -4 222 -85 469 -180z m7195 -275 c1377
-33 2317 -140 2743 -311 86 -35 95 -44 132 -140 135 -344 252 -1096 310 -1989
27 -432 35 -661 42 -1205 13 -1231 -60 -2305 -208 -3038 -60 -302 -144 -556
-195 -596 -31 -24 -182 -73 -325 -105 -648 -145 -1657 -230 -3149 -267 -530
-13 -2425 -7 -2980 10 -833 25 -1721 59 -1728 66 -2 2 -8 374 -12 827 -25
2315 -57 3879 -107 5243 -8 248 -16 549 -17 670 l-1 220 37 78 c60 125 162
217 289 262 23 9 149 29 278 45 1406 174 3368 267 4891 230z"/>
<path d="M50670 15873 c-252 -17 -517 -86 -712 -184 -381 -191 -684 -544 -822
-959 -68 -203 -80 -289 -81 -535 0 -177 4 -236 19 -305 101 -467 354 -802 766
-1014 97 -51 144 -92 170 -151 33 -71 33 -106 5 -287 -69 -449 -184 -961 -371
-1655 -30 -111 -54 -220 -54 -242 0 -98 73 -206 167 -247 60 -26 341 -36 1013
-37 589 -2 1005 11 1092 34 57 15 130 69 162 122 23 37 30 62 34 120 4 70 2
78 -63 246 -182 473 -341 1038 -460 1624 -39 198 -42 234 -19 300 27 79 73
118 239 201 175 88 286 168 407 294 188 195 299 428 339 711 17 119 6 379 -21
506 -49 232 -174 519 -304 699 -324 450 -755 708 -1262 756 -105 10 -146 10
-244 3z"/>
<path d="M71052 22825 c-127 -36 -167 -71 -374 -338 -780 -1004 -1230 -1659
-1591 -2319 -468 -854 -759 -1723 -852 -2541 l-7 -58 -136 133 c-541 528
-1208 1001 -1900 1347 -269 135 -445 210 -521 223 -207 35 -412 -100 -465
-307 -30 -114 -22 -164 67 -390 247 -631 383 -1331 507 -2610 110 -1137 153
-1491 242 -1975 186 -1021 519 -1856 991 -2485 190 -254 479 -557 690 -725
l106 -85 -42 -4 c-23 -2 -211 3 -417 10 -447 17 -472 16 -541 -6 -116 -37
-199 -111 -253 -224 -29 -62 -31 -74 -34 -200 -7 -240 32 -776 84 -1161 238
-1773 899 -3437 1961 -4938 121 -170 142 -193 238 -265 478 -355 1788 -543
2732 -392 520 83 956 281 1208 546 112 118 320 406 488 675 1018 1629 1491
3706 1322 5810 -8 99 -21 201 -29 227 -45 150 -174 263 -330 290 -61 10 -97 7
-439 -41 -205 -29 -383 -55 -397 -58 -24 -4 -24 -4 -5 11 209 161 272 212 377
301 897 767 1584 1790 1975 2939 133 393 239 792 383 1449 238 1078 333 1443
485 1851 86 229 147 371 249 571 181 359 367 622 623 886 178 182 205 223 226
343 29 171 -65 351 -226 430 -92 45 -182 54 -542 55 -881 1 -1718 -149 -2555
-457 -468 -172 -960 -414 -1368 -672 -62 -39 -114 -71 -116 -71 -2 0 -6 57 -9
128 -12 252 -55 601 -112 913 -191 1044 -607 2071 -1182 2919 -109 161 -164
214 -260 250 -75 28 -182 35 -251 15z m155 -1287 c467 -875 734 -1791 815
-2793 6 -82 12 -292 12 -465 l1 -315 -229 -225 c-318 -314 -492 -511 -742
-842 -212 -282 -397 -568 -576 -893 -48 -88 -88 -150 -88 -138 0 12 7 106 15
210 46 573 150 1158 301 1685 56 197 63 265 39 354 -83 306 -454 414 -686 198
-85 -80 -97 -107 -178 -405 -137 -500 -240 -1062 -290 -1579 -19 -188 -41
-481 -41 -533 0 -12 -39 47 -88 133 -115 201 -203 343 -317 512 l-93 136 -11
132 c-14 165 -14 515 -1 675 77 909 416 1840 1038 2845 125 202 324 501 480
720 153 215 544 740 552 740 3 0 42 -69 87 -152z m5127 -2625 c-182 -272 -398
-716 -547 -1128 -176 -487 -263 -818 -517 -1970 -141 -639 -253 -1056 -375
-1400 -499 -1399 -1470 -2539 -2715 -3188 -120 -62 -430 -207 -444 -207 -12 0
69 399 135 665 276 1110 820 2211 1529 3087 192 239 206 259 230 335 61 197
-31 411 -215 497 -164 78 -347 47 -474 -81 -73 -74 -296 -354 -441 -553 -753
-1036 -1298 -2284 -1534 -3515 -55 -286 -39 -269 -125 -140 -184 277 -303 598
-363 980 -20 124 -22 179 -23 490 0 379 7 466 65 812 76 451 199 885 380 1333
78 195 302 651 410 835 511 869 1198 1598 2005 2128 836 548 1762 890 2765
1022 96 13 197 24 224 24 l48 1 -18 -27z m-9891 -965 c735 -472 1414 -1117
1914 -1818 827 -1160 1258 -2530 1194 -3794 -15 -314 -55 -631 -104 -846 l-13
-55 -22 75 c-53 178 -300 914 -376 1120 -230 620 -507 1262 -778 1804 -127
254 -160 296 -277 354 -72 35 -79 37 -175 37 -82 -1 -112 -5 -159 -24 -82 -32
-178 -124 -220 -210 -30 -62 -32 -72 -32 -176 l0 -110 124 -255 c373 -768 645
-1424 902 -2180 74 -217 231 -721 226 -726 -7 -7 -204 120 -313 201 -418 314
-752 727 -1004 1240 -272 554 -437 1146 -560 2005 -48 335 -75 580 -140 1255
-98 1017 -167 1521 -275 2001 -37 166 -38 174 -29 174 3 0 56 -32 117 -72z
m3756 -7173 l51 -70 -72 -6 c-40 -3 -74 -5 -76 -4 -2 2 7 37 19 79 12 42 23
75 25 74 1 -2 25 -34 53 -73z m3547 -661 c12 -98 -3 -954 -20 -1159 -109
-1278 -439 -2413 -993 -3423 -205 -374 -507 -822 -621 -923 -149 -131 -414
-227 -774 -281 -138 -21 -189 -23 -528 -23 -298 0 -406 4 -525 18 -384 46
-710 122 -895 209 -80 37 -88 44 -139 116 -529 748 -965 1568 -1274 2392 -270
722 -455 1475 -551 2240 -29 231 -60 569 -53 577 3 2 227 -1 497 -8 542 -13
1863 -7 2280 10 1281 55 2380 147 3325 280 284 40 262 42 271 -25z"/>
<path d="M3315 67184 c-360 -19 -660 -67 -975 -155 -1005 -283 -1745 -921
-2094 -1805 -135 -342 -209 -694 -237 -1119 -19 -296 2 -8416 41 -15320 35
-6344 71 -11115 195 -26465 45 -5509 71 -8963 105 -13510 5 -734 14 -2125 20
-3090 10 -1717 19 -2308 40 -2580 28 -365 92 -745 170 -1019 223 -775 662
-1332 1308 -1660 463 -235 969 -352 1732 -402 96 -6 1681 -13 4165 -18 2206
-5 5430 -15 7165 -22 6252 -25 13583 -16 17315 21 2780 28 3446 40 3635 65
251 33 479 89 699 172 570 213 1047 631 1366 1198 240 425 389 920 455 1505
40 352 111 11888 141 22830 15 5271 14 37164 -1 37625 -27 845 -111 1368 -297
1840 -416 1057 -1307 1614 -2793 1750 -292 27 -540 32 -3125 65 -2795 36
-6114 62 -10310 80 -2131 10 -18571 22 -18720 14z m19975 -853 c4108 -23 6898
-47 9455 -81 2382 -31 2454 -33 2789 -71 666 -74 1168 -257 1501 -546 385
-335 585 -838 660 -1658 30 -333 35 -617 35 -1977 l0 -1378 -18445 0 -18446 0
4 1788 3 1787 22 140 c89 550 285 960 618 1287 172 169 337 287 566 404 344
175 698 271 1173 318 87 8 18346 -3 20065 -13z m14440 -7418 c0 -478 3 -1452
7 -2165 l6 -1298 -18446 0 -18447 0 0 1008 c0 555 -3 1529 -7 2165 l-6 1157
18446 0 18447 0 0 -867z m7 -18340 c-3 -7727 -10 -15400 -16 -17053 -19 -5366
-37 -9211 -61 -12900 -10 -1456 -15 -2208 -40 -5395 -13 -1612 -23 -2124 -45
-2285 -96 -698 -377 -1271 -788 -1603 -276 -224 -576 -347 -977 -402 -127 -17
-559 -26 -2105 -45 -3213 -37 -5853 -50 -10696 -50 l-4157 0 -6 663 c-10 1019
-127 25709 -122 25714 2 2 36 -58 76 -134 409 -776 944 -1708 1338 -2328 1256
-1978 2597 -3391 4130 -4349 218 -136 450 -264 728 -402 l271 -134 -13 -87
c-123 -830 -1148 -7940 -1161 -8048 -25 -214 -25 -628 0 -780 65 -396 202
-684 447 -938 59 -61 135 -132 167 -157 l59 -44 -38 -109 c-42 -120 -81 -300
-97 -449 -16 -145 -13 -536 6 -768 19 -246 22 -602 4 -720 -45 -308 -148 -485
-333 -574 -105 -51 -217 -77 -533 -126 -423 -65 -627 -121 -880 -244 -636
-310 -1075 -882 -1169 -1527 -21 -139 -21 -390 0 -527 45 -303 162 -594 329
-822 66 -88 224 -249 311 -316 276 -211 626 -338 1059 -384 129 -14 540 -14
720 0 356 27 2345 212 2470 230 392 56 637 168 845 386 217 228 314 493 374
1019 62 541 102 1095 126 1715 13 332 13 1242 0 1580 -15 398 -54 1017 -76
1215 l-5 50 60 33 c91 49 214 146 308 241 308 315 475 768 523 1421 6 80 15
458 20 840 20 1473 96 2618 265 3990 123 994 237 1658 322 1874 l20 49 80
-224 c525 -1463 867 -3038 997 -4594 43 -511 56 -810 66 -1550 9 -643 16 -774
55 -992 86 -494 281 -865 611 -1162 l80 -73 -7 -57 c-11 -80 -75 -836 -99
-1161 -47 -653 -60 -959 -67 -1565 -8 -764 22 -1403 93 -1975 53 -426 162
-700 359 -909 205 -217 466 -334 875 -390 60 -9 1803 -172 2370 -223 207 -18
657 -15 815 6 621 81 1061 335 1347 776 191 294 288 632 288 1007 0 295 -54
533 -180 800 -99 209 -202 354 -380 537 -194 199 -371 327 -622 451 -253 124
-436 176 -848 240 -347 54 -443 77 -552 131 -40 20 -48 29 -54 61 -9 47 8 263
40 534 42 343 50 455 50 694 -1 162 -6 268 -18 358 -18 129 -61 323 -91 406
-16 47 -17 47 30 73 51 28 177 128 244 192 211 203 364 475 445 791 89 347
105 749 50 1249 -12 114 -1321 9256 -1340 9361 l-5 30 98 33 c813 276 1323
1156 1323 2283 0 284 -24 540 -100 1085 -49 351 -77 586 -85 719 -3 55 -8 118
-11 140 l-4 40 102 24 c554 128 1076 417 1470 814 441 445 692 979 785 1672
22 164 25 733 5 925 -44 422 -130 883 -273 1454 -261 1042 -591 1850 -1026
2516 -345 527 -781 983 -1268 1328 -312 220 -753 440 -1082 537 l-92 28 108
161 c699 1047 1114 2174 1235 3356 120 1165 -82 2328 -572 3290 -253 499 -585
954 -992 1360 -702 702 -1535 1158 -2455 1345 -191 39 -249 42 -420 20 -1207
-156 -2383 -869 -3159 -1915 -601 -811 -1002 -1888 -1107 -2973 l-12 -125 -85
117 c-146 200 -249 320 -436 506 -260 259 -490 430 -771 576 -412 214 -886
359 -1393 426 -154 20 -449 22 -1532 9 -742 -9 -1476 -3 -3155 25 -781 14
-2764 17 -2911 5 l-102 -7 -6 203 c-3 112 -11 392 -16 623 -11 435 -33 1054
-50 1420 -28 576 -52 975 -61 1020 -28 125 -135 253 -246 295 -74 28 -168 36
-623 56 -1123 47 -2058 22 -3000 -82 -358 -39 -482 -60 -544 -89 -85 -40 -150
-105 -193 -192 l-37 -76 -7 -216 c-4 -119 -10 -748 -14 -1397 -6 -932 -5
-1193 5 -1235 30 -129 116 -234 238 -292 l67 -32 325 -3 c179 -2 610 1 959 8
348 6 635 9 638 7 2 -3 6 -20 9 -39 l6 -35 -118 -7 c-280 -15 -746 -68 -1039
-117 -1590 -264 -2743 -908 -3556 -1984 -504 -668 -866 -1512 -1083 -2525
-311 -1455 -398 -3738 -251 -6560 33 -619 82 -1350 96 -1420 31 -152 159 -284
311 -320 29 -6 1099 -6 3270 2 1776 6 3231 9 3234 5 6 -6 294 -26639 288
-26646 -2 -2 -1906 1 -4231 8 -2326 6 -4739 11 -5363 11 -1335 0 -1621 10
-2013 70 -1192 183 -1725 791 -1851 2110 -29 302 -36 602 -46 2065 -32 4697
-65 9155 -105 14100 -16 1950 -64 7942 -90 11130 -80 10005 -155 21343 -155
23678 l0 587 18441 0 18441 0 -5 -14047z m-22922 2706 c143 -5 283 -9 311 -9
l51 0 7 -122 c81 -1502 116 -3396 96 -5318 -13 -1335 -25 -2003 -70 -3840 -11
-437 -23 -933 -26 -1102 -4 -170 -10 -308 -14 -308 -4 0 -33 9 -66 20 -91 32
-205 59 -310 75 -83 12 -107 12 -177 0 -45 -8 -83 -13 -85 -11 -1 2 2 257 8
567 6 310 13 1093 17 1739 10 1918 -23 3338 -107 4700 -36 571 -91 1251 -110
1343 -26 124 -131 252 -247 299 l-58 23 -712 -1 c-392 0 -817 -4 -944 -8
l-232 -7 5 931 c3 512 8 933 11 936 12 13 587 64 947 85 466 27 1110 30 1705
8z m16280 -284 c1256 -271 2383 -1244 2934 -2532 200 -469 327 -1010 371
-1582 13 -173 13 -606 0 -786 -70 -952 -346 -1843 -837 -2710 -582 -1026
-1476 -1989 -2581 -2782 -235 -169 -391 -253 -468 -253 -119 0 -542 400 -1110
1050 -93 107 -346 400 -560 650 -215 250 -398 461 -407 469 -15 12 -17 37 -16
195 1 99 4 231 8 291 l6 110 29 -50 c202 -345 648 -951 1090 -1480 358 -428
498 -582 561 -619 112 -66 270 -74 385 -19 66 31 264 189 605 482 1430 1231
2317 2427 2740 3696 175 524 255 994 255 1500 0 899 -273 1722 -788 2375 -92
116 -367 392 -482 484 -705 560 -1665 803 -2570 650 -515 -87 -974 -290 -1400
-620 -142 -110 -447 -412 -564 -559 -474 -597 -755 -1293 -853 -2113 -24 -206
-24 -742 0 -962 67 -599 221 -1180 465 -1752 27 -64 47 -120 44 -123 -3 -3
-79 -5 -168 -5 l-163 0 -16 55 c-56 196 -147 616 -194 905 -71 435 -92 674
-98 1126 -7 495 11 764 77 1159 149 887 490 1681 995 2315 600 753 1472 1283
2370 1439 148 26 205 25 340 -4z m20 -1671 c509 -63 968 -276 1345 -624 l65
-60 -150 5 c-860 27 -2253 1 -3205 -61 l-95 -6 85 87 c505 516 1203 752 1955
659z m1285 -1514 c201 -5 431 -12 512 -16 l147 -6 45 -137 c75 -227 123 -451
147 -687 l12 -121 -32 -68 c-157 -337 -572 -569 -966 -541 -120 9 -205 30
-292 72 -71 35 -183 127 -223 184 l-21 29 45 -19 c137 -61 279 -13 372 127 83
125 142 386 130 573 -11 180 -55 289 -157 393 -92 92 -156 122 -264 122 -68 0
-88 -5 -135 -29 -106 -55 -225 -211 -246 -322 -3 -19 -10 -34 -14 -34 -4 0
-15 89 -24 198 -10 108 -21 218 -26 245 l-7 47 316 0 c174 0 480 -5 681 -10z
m-2332 -92 c15 -93 29 -214 37 -303 l6 -70 -23 65 c-49 139 -129 235 -245 292
-60 29 -77 33 -148 33 -104 -1 -156 -25 -251 -119 -110 -110 -164 -240 -164
-395 0 -184 36 -374 92 -488 106 -216 346 -306 511 -191 33 23 26 13 -30 -41
-207 -202 -606 -280 -964 -190 -243 62 -466 209 -577 381 l-40 63 14 105 c32
244 101 519 184 733 23 59 43 107 45 107 2 0 120 9 262 20 407 30 1013 65
1194 69 l86 1 11 -72z m-10433 -68 c429 -6 869 -14 978 -18 l199 -7 -68 -55
c-154 -124 -388 -372 -541 -575 -928 -1231 -1501 -3481 -1693 -6650 -63 -1046
-85 -2320 -60 -3499 6 -263 9 -480 8 -481 -2 -1 -2261 -11 -5021 -20 -3841
-14 -5021 -15 -5026 -6 -17 26 -82 1270 -111 2101 -18 502 -24 1677 -11 2140
60 2226 290 3529 802 4553 687 1372 1844 2130 3634 2381 298 42 877 97 890 85
6 -7 42 -699 60 -1154 63 -1650 65 -3771 5 -6522 -8 -333 -8 -491 0 -540 67
-431 372 -798 782 -942 144 -50 242 -64 408 -58 228 8 399 64 594 194 233 155
405 387 481 649 38 130 43 191 49 591 4 199 17 806 31 1350 74 2979 95 4190
95 5625 l0 867 158 4 c305 7 2586 -1 3357 -13z m4091 -25 c338 -42 656 -132
963 -269 269 -121 472 -265 711 -505 273 -275 470 -551 681 -956 266 -512 488
-1175 597 -1786 l19 -107 -441 -6 c-243 -3 -1341 -8 -2441 -11 -1100 -3 -2446
-8 -2992 -11 l-992 -7 59 229 c167 653 341 1144 570 1609 307 625 612 1005
1020 1270 534 347 1067 528 1680 569 111 8 448 -4 566 -19z m7118 -1232 c86
-201 217 -394 376 -553 216 -217 460 -348 757 -408 l88 -18 -130 -12 c-701
-65 -1504 -46 -2364 55 l-55 6 95 19 c186 38 412 125 564 218 169 103 348 271
455 425 56 82 170 297 170 321 0 31 17 10 44 -53z m-4686 -3741 c-745 -597
-1487 -1198 -2643 -2140 -82 -67 -152 -122 -156 -122 -3 0 -843 569 -1865
1264 l-1859 1264 1 38 c0 22 6 72 13 112 l13 72 1131 1 c623 1 1809 5 2637 8
828 4 1923 8 2433 9 l929 2 -634 -508z m1428 -289 c-3 -197 -13 -1289 -21
-2428 -9 -1138 -19 -2145 -23 -2237 l-7 -167 -1327 1509 -1327 1509 467 379
c990 802 2223 1791 2236 1792 5 0 6 -153 2 -357z m-6868 -1190 c669 -455 1219
-828 1220 -829 2 -1 -72 -85 -165 -186 -777 -845 -1610 -1834 -2318 -2754
l-170 -221 -5 301 c-6 372 6 1514 20 1886 21 578 46 1022 86 1525 30 390 102
1105 111 1105 2 0 551 -372 1221 -827z m12737 382 c446 -90 883 -302 1292
-627 165 -131 480 -446 617 -618 571 -714 970 -1673 1270 -3050 232 -1063 217
-1765 -50 -2320 -283 -589 -887 -1012 -1609 -1127 -152 -24 -477 -24 -635 0
-282 43 -535 124 -789 251 -306 154 -558 341 -808 600 l-132 136 39 89 c108
250 193 546 230 811 12 79 26 147 31 151 6 3 55 9 109 13 277 18 661 119 935
245 341 157 584 327 851 596 166 167 205 225 225 343 47 268 -205 521 -474
475 -117 -20 -160 -49 -339 -226 -141 -140 -235 -218 -351 -292 l-27 -17 -21
48 c-155 360 -431 785 -573 884 -86 59 -202 86 -300 70 -215 -35 -370 -227
-353 -440 7 -97 39 -168 121 -273 40 -50 101 -135 136 -187 73 -112 207 -376
196 -387 -4 -5 -155 -8 -334 -8 l-327 0 -68 -32 -67 -32 -68 50 c-203 153
-471 285 -737 366 -442 133 -964 122 -1417 -32 -387 -131 -719 -352 -908 -606
l-56 -75 -81 86 c-62 65 -98 95 -150 121 l-68 34 -199 3 -199 4 7 551 c4 304
14 1357 22 2342 8 984 16 1791 17 1792 1 1 104 -116 229 -260 300 -348 500
-569 686 -758 l153 -157 -10 -63 c-6 -35 -18 -147 -28 -249 -21 -232 -24 -832
-5 -1055 18 -198 57 -514 78 -612 30 -149 111 -254 242 -316 62 -29 75 -32
167 -32 131 1 191 24 281 107 129 121 154 226 115 483 -43 280 -53 422 -58
809 l-5 379 43 -8 c208 -37 440 -10 641 75 l71 29 -6 -92 c-16 -229 -28 -829
-23 -1097 9 -394 24 -740 37 -819 33 -208 201 -351 412 -351 195 0 351 123
402 317 14 51 14 83 3 268 -17 281 -17 1349 0 1625 7 113 20 286 28 385 8 99
17 223 21 275 6 86 9 97 32 115 89 68 403 336 537 457 200 180 573 554 724
726 69 78 123 131 134 132 10 0 74 -11 141 -25z m-7751 -3203 c785 -893 1426
-1625 1424 -1627 -2 -2 -1628 -73 -3613 -159 -1986 -85 -3647 -158 -3693 -161
l-83 -5 172 227 c647 853 1373 1736 2078 2528 291 326 640 705 651 705 4 0
131 -83 281 -185 314 -213 352 -231 488 -223 126 7 165 31 515 317 l309 252
22 -23 c13 -13 665 -754 1449 -1646z m-10896 1468 c138 -38 263 -114 312 -189
26 -38 30 -54 30 -110 0 -56 -5 -75 -34 -126 -63 -114 -195 -192 -307 -182
-70 6 -147 45 -206 103 -121 122 -126 298 -12 429 34 38 113 95 134 95 6 0 43
-9 83 -20z m16117 -3520 c398 -37 768 -231 1030 -540 l77 -90 -27 -102 c-14
-56 -27 -104 -29 -106 -2 -1 -41 7 -87 18 -217 56 -302 62 -939 70 -522 7
-613 10 -740 29 -280 40 -420 83 -464 143 -18 25 -18 32 -7 83 26 117 154 236
366 340 269 132 533 182 820 155z m-2338 -687 c1029 -1201 1926 -2891 2207
-4158 66 -301 80 -420 80 -705 1 -241 -1 -262 -27 -383 -33 -156 -74 -288
-134 -430 -37 -87 -51 -110 -72 -118 -50 -20 -528 -138 -720 -179 -587 -124
-1051 -179 -1591 -187 -673 -11 -1186 54 -1754 222 -1944 573 -3658 2284
-5606 5593 -95 161 -170 295 -168 297 5 5 540 31 1023 50 1345 51 2562 77
5175 110 1224 16 1435 19 1457 23 7 1 66 -60 130 -135z m-8592 -325 c1265
-2226 2472 -3832 3675 -4887 1722 -1512 3601 -2046 5889 -1676 85 14 156 24
158 21 2 -2 -31 -26 -74 -53 -447 -287 -884 -447 -1413 -519 -191 -25 -666
-31 -890 -9 -1698 161 -3514 1270 -5085 3105 -757 884 -1458 1928 -2257 3360
-208 372 -498 909 -498 921 0 7 47 10 270 17 l65 1 160 -281z m-2111 -200 c5
-388 127 -25494 126 -26030 l0 -208 -1230 0 -1230 0 0 88 c0 48 -63 5984 -140
13191 -77 7207 -140 13168 -140 13247 l0 144 1178 3 c647 1 1234 3 1303 5
l127 2 6 -442z m12971 -369 c436 1 645 -8 778 -37 l78 -17 23 -57 c87 -215
560 -712 934 -982 489 -352 1089 -590 1636 -648 l114 -12 7 -101 c13 -196 45
-485 90 -805 105 -750 122 -1020 84 -1340 -54 -459 -232 -839 -487 -1042 -207
-164 -434 -220 -977 -238 -500 -16 -1735 -44 -1740 -38 -3 3 15 49 40 102 149
321 247 690 276 1036 79 965 -439 2509 -1353 4029 l-99 163 88 -7 c48 -5 277
-7 508 -6z m2762 -8989 c227 -1581 527 -3676 668 -4655 140 -979 262 -1861
271 -1960 20 -224 15 -563 -11 -705 -58 -323 -196 -537 -416 -644 -165 -80
-348 -117 -684 -137 -583 -36 -1108 37 -1429 198 -368 184 -545 451 -611 924
-22 157 -35 496 -35 924 -1 2306 -470 4703 -1351 6916 -104 261 -138 336 -173
380 -85 109 -215 166 -355 156 -94 -6 -158 -32 -259 -105 -169 -121 -283 -240
-407 -427 -152 -227 -267 -520 -350 -890 -102 -454 -280 -1785 -370 -2755 -95
-1034 -138 -1895 -155 -3130 -10 -649 -18 -783 -60 -989 -84 -414 -252 -626
-553 -702 -327 -82 -1347 31 -1770 197 -368 145 -567 355 -633 667 -36 173
-38 444 -4 712 33 262 1134 7851 1140 7858 4 4 69 -10 146 -31 619 -175 1262
-250 1826 -212 482 33 893 123 1308 287 480 190 903 458 1294 819 l130 119
1200 31 c661 17 1207 31 1215 30 12 -1 99 -589 428 -2876z m-7965 -8300 c327
-79 847 -147 1259 -166 l147 -7 6 -56 c10 -96 45 -644 58 -916 16 -340 16
-1453 0 -1790 -41 -845 -116 -1651 -173 -1863 -49 -185 -118 -252 -310 -301
-101 -26 -203 -36 -1459 -152 -1072 -99 -1101 -102 -1385 -103 -315 -1 -418 9
-594 60 -338 98 -547 316 -633 661 -18 72 -22 115 -22 243 1 134 4 168 27 253
116 437 544 805 1054 907 54 11 190 33 303 50 113 17 257 42 320 56 709 152
1098 579 1215 1334 27 173 31 523 9 810 -25 318 -25 688 -2 815 17 90 45 195
53 195 2 0 59 -13 127 -30z m6643 -564 c94 -19 231 -43 305 -52 186 -22 719
-30 955 -14 99 7 194 13 210 14 28 1 31 -3 48 -54 41 -120 58 -241 64 -440 6
-218 -2 -334 -49 -720 -28 -220 -32 -287 -32 -490 0 -222 1 -240 26 -331 71
-261 210 -419 493 -561 188 -95 373 -143 794 -208 273 -43 379 -68 521 -126
309 -125 585 -382 710 -659 120 -266 116 -604 -11 -871 -126 -266 -357 -425
-714 -490 -121 -22 -503 -30 -705 -15 -322 25 -2310 211 -2408 227 -364 55
-421 138 -481 685 -54 489 -74 921 -74 1549 0 748 25 1254 120 2393 16 201 18
208 37 204 12 -3 98 -21 191 -41z"/>
<path d="M13174 65955 c-576 -84 -1030 -381 -1364 -890 -124 -190 -267 -529
-329 -780 -143 -580 -117 -1226 71 -1775 131 -382 315 -686 568 -941 307 -308
651 -485 1096 -564 110 -20 852 -29 3744 -45 1092 -6 2705 -15 3585 -20 4773
-30 8306 -38 8473 -19 309 33 625 135 876 283 238 140 470 357 638 596 441
628 581 1610 357 2505 -106 422 -280 793 -494 1056 -78 95 -238 247 -325 308
-94 66 -232 137 -308 156 -399 106 -3699 146 -12032 144 -3658 -1 -4481 -4
-4556 -14z m9476 -825 c4063 -17 6172 -48 6783 -100 121 -10 151 -25 248 -122
302 -302 497 -942 476 -1563 -7 -203 -25 -337 -67 -506 -161 -649 -559 -1020
-1163 -1088 -50 -6 -1231 -6 -2987 0 -2622 8 -3595 12 -7308 35 l-1104 7 7 21
c4 12 9 157 12 324 l6 302 86 0 c195 0 373 41 508 115 41 23 100 70 149 119
68 67 89 97 127 176 62 129 78 193 84 346 6 150 -9 248 -59 377 -114 295 -392
478 -668 438 -83 -12 -162 -36 -220 -66 l-32 -17 -37 36 c-40 39 -96 66 -137
66 -78 0 -158 -51 -193 -123 -21 -43 -21 -49 -21 -1075 l0 -1032 -722 1 c-398
1 -1240 5 -1873 9 -1270 9 -1219 6 -1409 74 -479 171 -804 658 -897 1346 -19
137 -16 469 4 611 20 137 65 325 103 429 99 276 265 518 453 661 132 100 329
179 499 199 98 11 6680 11 9352 0z m-4700 -1558 c97 -60 166 -211 164 -362 -1
-98 -21 -151 -84 -223 -39 -44 -146 -107 -205 -122 -69 -16 -152 -24 -212 -18
l-63 6 0 276 0 276 60 67 c122 135 231 167 340 100z"/>
<path d="M20948 64895 c-60 -15 -93 -37 -122 -83 -14 -20 -122 -262 -242 -537
-322 -743 -380 -878 -441 -1015 -30 -69 -98 -224 -150 -345 -52 -121 -118
-269 -145 -329 -45 -95 -51 -117 -52 -175 0 -85 24 -135 87 -178 84 -57 184
-53 246 11 35 36 112 208 603 1346 182 421 347 799 368 840 57 115 92 219 93
277 0 130 -117 221 -245 188z"/>
<path d="M22088 64895 c-60 -15 -93 -37 -122 -83 -21 -32 -117 -249 -421 -952
-35 -80 -111 -255 -170 -390 -59 -135 -159 -364 -222 -510 -63 -146 -137 -314
-165 -373 -45 -96 -51 -117 -52 -176 0 -85 24 -135 87 -178 85 -57 184 -53
246 11 35 36 130 248 621 1386 172 399 329 759 350 800 58 115 92 219 93 277
0 130 -117 221 -245 188z"/>
<path d="M14865 64645 c-51 -18 -109 -82 -125 -137 -7 -26 -14 -138 -17 -275
l-5 -233 -82 0 c-98 0 -145 -19 -198 -78 -78 -86 -70 -183 21 -265 47 -42 121
-67 202 -67 l57 0 4 -402 c7 -574 7 -578 19 -635 12 -62 37 -97 91 -124 111
-56 228 -26 281 74 l22 42 -4 523 -3 522 88 0 c169 0 271 31 321 96 49 65 40
176 -20 249 -47 57 -76 65 -242 65 l-145 0 0 253 0 254 -31 46 c-54 82 -153
121 -234 92z"/>
<path d="M16216 64646 c-21 -8 -54 -29 -72 -47 -58 -57 -66 -96 -72 -361 l-4
-238 -82 0 c-95 0 -145 -19 -198 -74 -75 -77 -71 -176 11 -257 53 -54 121 -79
213 -79 l58 0 2 -232 c1 -128 3 -348 3 -488 2 -344 13 -393 108 -442 30 -16
60 -22 108 -23 84 0 140 33 172 103 21 46 21 54 18 563 l-3 516 128 6 c181 8
258 39 295 121 33 72 20 156 -34 222 -47 56 -76 64 -242 64 l-145 0 0 250 c0
197 -3 257 -14 278 -16 31 -81 95 -111 110 -38 18 -99 22 -139 8z"/>
<path d="M12942 64618 c-19 -6 -55 -31 -82 -55 -40 -36 -51 -53 -60 -96 -8
-37 -10 -323 -8 -997 l3 -945 23 -42 c76 -144 287 -131 358 21 24 50 24 55 24
379 l0 329 57 66 c158 185 224 233 318 236 69 1 113 -32 154 -117 56 -113 57
-127 35 -604 -12 -256 41 -389 167 -423 83 -23 184 28 228 114 24 47 26 61 33
285 13 369 -5 576 -61 731 -82 225 -227 365 -431 416 -126 32 -312 0 -446 -77
l-52 -29 5 212 c6 265 -8 485 -34 530 -31 52 -66 72 -136 75 -34 1 -77 -3 -95
-9z"/>
<path d="M18993 63920 c-62 -25 -127 -92 -142 -146 -24 -85 -5 -194 44 -259
30 -41 113 -85 173 -92 119 -14 243 66 276 176 41 138 -6 257 -124 317 -54 27
-163 29 -227 4z"/>
<path d="M19012 62921 c-105 -36 -163 -108 -170 -212 -12 -163 97 -289 251
-290 77 -1 133 19 187 68 61 54 82 106 82 200 0 125 -57 203 -175 238 -66 20
-110 18 -175 -4z"/>
<path d="M2770 64950 c-288 -40 -520 -118 -694 -234 -338 -225 -579 -609 -658
-1045 -27 -153 -29 -402 -4 -546 23 -131 84 -314 142 -427 185 -358 534 -631
937 -733 579 -146 1233 78 1581 543 247 328 351 882 255 1357 -102 504 -411
878 -849 1025 -149 50 -225 62 -440 65 -113 2 -234 0 -270 -5z m381 -834 c184
-39 301 -166 355 -386 28 -113 26 -373 -4 -492 -45 -183 -117 -286 -256 -373
-400 -248 -911 -59 -1003 370 -23 107 -13 286 22 395 62 196 177 346 322 419
127 64 416 98 564 67z"/>
<path d="M6040 64945 c-298 -44 -499 -114 -690 -240 -110 -73 -302 -269 -383
-390 -361 -546 -375 -1250 -35 -1760 69 -103 219 -260 328 -340 162 -122 385
-222 593 -267 149 -32 446 -32 597 1 192 41 397 121 534 209 163 104 346 283
435 426 247 396 309 1002 150 1478 -162 486 -530 803 -1024 883 -110 18 -384
18 -505 0z m403 -830 c178 -38 288 -151 349 -360 20 -71 23 -100 22 -265 0
-158 -4 -197 -22 -265 -62 -223 -174 -346 -391 -425 -386 -141 -786 62 -867
440 -19 90 -14 262 12 355 53 197 183 379 320 448 137 69 422 105 577 72z"/>
<path d="M9322 64944 c-51 -7 -141 -25 -200 -39 -300 -72 -473 -166 -678 -370
-220 -219 -364 -491 -436 -825 -30 -144 -33 -488 -4 -620 67 -308 184 -529
390 -736 210 -209 452 -340 753 -406 135 -30 421 -32 568 -4 212 39 428 126
602 242 106 70 267 224 343 325 212 285 325 760 279 1177 -40 375 -174 677
-399 903 -191 193 -421 308 -705 354 -112 19 -385 18 -513 -1z m413 -829 c144
-31 238 -105 300 -238 54 -114 67 -175 72 -347 10 -308 -59 -504 -220 -626
-129 -98 -275 -146 -442 -147 -186 0 -328 57 -456 183 -146 144 -205 341 -169
570 35 217 162 428 314 519 133 80 430 122 601 86z"/>
<path d="M15096 58528 c-58 -16 -120 -82 -135 -146 -11 -43 -10 -60 3 -104 42
-147 213 -188 321 -78 34 35 39 46 43 99 2 33 1 76 -2 96 -10 54 -68 112 -129
130 -28 8 -53 15 -56 14 -3 -1 -24 -6 -45 -11z"/>
<path d="M26306 58528 c-58 -16 -120 -82 -135 -146 -11 -43 -10 -60 3 -104 42
-147 213 -188 321 -78 34 35 39 46 43 99 2 33 1 76 -2 96 -10 54 -68 112 -129
130 -28 8 -53 15 -56 14 -3 -1 -24 -6 -45 -11z"/>
<path d="M30405 58535 c-5 -2 -22 -6 -37 -9 -66 -15 -137 -112 -138 -187 -1
-150 147 -247 277 -181 74 39 103 88 103 175 -1 97 -55 171 -145 196 -42 11
-44 12 -60 6z"/>
<path d="M32181 58525 c-88 -28 -151 -128 -137 -218 25 -155 192 -222 310
-125 47 39 66 82 66 150 -1 99 -55 172 -145 197 -47 13 -39 13 -94 -4z"/>
<path d="M20930 58488 c-79 -54 -93 -119 -88 -401 l3 -182 -155 0 c-134 0
-165 -3 -230 -23 -297 -93 -470 -352 -470 -706 0 -76 6 -144 15 -179 61 -236
287 -416 521 -417 74 0 236 44 324 88 l75 38 49 -30 c122 -76 261 -13 261 117
0 34 -8 68 -22 97 l-22 45 -3 727 -3 726 -30 43 c-56 78 -156 104 -225 57z
m-89 -934 c5 -3 9 -108 9 -234 l0 -229 -47 -45 c-70 -66 -134 -95 -240 -108
l-90 -12 -51 33 c-75 48 -97 98 -97 221 0 216 88 342 265 380 44 9 234 5 251
-6z"/>
<path d="M32862 58479 c-23 -12 -52 -35 -65 -53 l-22 -31 -3 -735 c-2 -719 -3
-735 -23 -777 -47 -98 20 -211 136 -228 22 -4 52 -2 68 4 22 9 42 6 105 -16
68 -23 92 -27 202 -27 148 1 249 23 376 84 169 82 275 254 304 499 20 163 -17
370 -87 490 -62 106 -159 176 -284 206 -126 29 -239 15 -374 -49 l-70 -33 3
196 c5 300 -19 417 -97 468 -44 30 -111 30 -169 2z m637 -923 c49 -18 68 -49
87 -145 19 -95 15 -192 -11 -278 -13 -44 -25 -60 -68 -93 -68 -51 -130 -78
-198 -86 -56 -6 -164 10 -186 28 -10 8 -13 56 -13 177 l0 166 53 61 c95 110
202 183 267 183 19 0 51 -6 69 -13z"/>
<path d="M14165 58470 c-85 -43 -105 -111 -105 -367 l0 -163 -70 0 c-85 0
-125 -15 -167 -63 -61 -69 -54 -159 17 -220 47 -40 98 -57 169 -57 l51 0 0
-377 c0 -508 6 -542 101 -591 84 -44 178 -19 224 59 19 33 20 49 16 470 l-3
436 115 5 c97 4 122 8 162 29 27 13 56 35 67 49 43 58 31 156 -27 218 l-33 37
-141 3 -140 3 1 207 c2 223 -1 240 -54 289 -28 26 -89 53 -120 53 -13 0 -41
-9 -63 -20z"/>
<path d="M23165 58476 c-41 -19 -83 -66 -96 -107 -6 -19 -14 -122 -16 -231
l-5 -196 -83 -4 c-75 -3 -87 -6 -122 -34 -52 -42 -75 -88 -70 -141 9 -91 106
-163 220 -163 l57 0 1 -117 c7 -747 9 -774 51 -820 51 -54 169 -68 227 -26 14
11 36 39 49 64 l23 44 -7 330 c-4 182 -4 373 0 426 l8 97 108 4 c119 5 184 28
222 79 45 60 29 165 -33 225 -30 29 -32 29 -164 32 l-134 4 -3 213 -3 213 -31
38 c-16 21 -41 46 -55 56 -33 24 -106 32 -144 14z"/>
<path d="M34334 58477 c-53 -21 -92 -56 -109 -100 -14 -38 -15 -126 -13 -837
3 -722 5 -798 20 -826 64 -116 249 -192 345 -141 69 37 90 118 53 205 -13 29
-34 62 -49 75 l-26 22 3 710 c2 390 1 729 -3 753 -8 52 -53 108 -110 133 -46
21 -68 22 -111 6z"/>
<path d="M3151 58449 c-28 -14 -54 -39 -72 -68 -29 -45 -29 -46 -29 -201 0
-286 -13 -850 -20 -850 -3 0 -31 35 -60 78 -107 154 -250 341 -426 559 -98
121 -204 253 -234 293 -75 97 -130 147 -180 160 -76 21 -156 -8 -204 -73 -21
-28 -21 -30 -18 -835 3 -783 4 -808 23 -849 47 -97 179 -123 253 -48 57 57 59
77 65 644 l6 514 101 -129 c189 -241 376 -499 502 -689 68 -104 145 -221 171
-260 41 -63 51 -72 99 -87 81 -27 154 -5 204 63 14 19 20 56 28 189 18 319 31
858 28 1176 l-3 321 -28 37 c-57 74 -129 94 -206 55z"/>
<path d="M27115 58006 c-158 -50 -275 -185 -306 -351 -26 -140 32 -287 149
-374 57 -43 172 -92 284 -120 139 -36 178 -67 178 -143 0 -39 -5 -54 -26 -75
-24 -23 -31 -25 -89 -21 -86 7 -159 43 -244 121 -77 71 -109 84 -183 74 -86
-12 -145 -117 -120 -214 10 -40 26 -61 91 -123 121 -117 241 -179 385 -202
152 -23 284 19 392 126 93 93 133 194 134 332 0 124 -57 260 -134 319 -53 40
-146 82 -257 114 -185 54 -219 73 -219 126 0 95 115 110 292 39 107 -44 201
-26 237 45 37 72 19 163 -45 223 -95 88 -385 147 -519 104z"/>
<path d="M31169 58002 c-68 -23 -131 -65 -186 -125 -154 -167 -147 -436 15
-578 51 -45 182 -104 298 -135 116 -31 145 -44 173 -80 34 -43 25 -118 -18
-151 -36 -28 -167 -5 -240 42 -20 12 -49 37 -66 55 -16 18 -50 46 -74 61 -56
36 -129 40 -179 9 -61 -37 -90 -148 -58 -223 27 -65 156 -177 269 -234 224
-112 435 -91 588 58 214 211 173 575 -79 703 -28 14 -103 41 -169 61 -159 48
-221 77 -228 107 -8 33 9 74 40 94 36 24 128 14 239 -27 111 -40 180 -38 226
6 75 72 54 206 -42 275 -22 17 -84 44 -137 61 -125 41 -284 50 -372 21z"/>
<path d="M9090 57992 c-205 -54 -386 -261 -462 -527 -29 -104 -32 -323 -5
-425 71 -266 284 -440 540 -440 180 0 386 108 447 236 27 55 24 131 -7 172
-58 79 -186 82 -275 7 -66 -55 -148 -83 -212 -71 -49 9 -119 75 -146 138 -35
80 -39 222 -10 308 74 220 232 327 361 246 24 -15 65 -43 92 -61 111 -79 241
-39 278 86 27 89 -39 191 -167 261 -125 68 -323 100 -434 70z"/>
<path d="M12143 57989 c-67 -20 -96 -64 -153 -236 -56 -169 -140 -384 -188
-478 l-29 -58 -59 59 c-135 135 -233 296 -289 472 -45 140 -69 187 -110 212
-111 68 -238 -4 -252 -143 -5 -48 0 -71 37 -173 88 -249 195 -417 388 -613 67
-69 122 -127 122 -130 0 -8 -110 -200 -222 -387 -59 -100 -115 -201 -124 -225
-30 -85 2 -176 77 -218 45 -26 92 -26 144 -2 61 28 87 63 178 236 47 88 132
243 191 345 254 439 481 951 502 1135 12 99 -38 181 -124 205 -43 11 -46 11
-89 -1z"/>
<path d="M10424 57962 c-45 -16 -109 -47 -142 -69 l-59 -39 -48 27 c-105 60
-192 59 -259 -4 -69 -66 -65 -181 10 -246 l35 -31 2 -448 c2 -494 1 -485 68
-532 88 -63 200 -36 249 61 19 36 20 60 20 418 l0 379 64 59 c119 109 214 142
273 95 81 -65 105 -76 158 -76 91 0 155 70 155 168 0 26 -6 61 -14 79 -19 47
-98 114 -174 150 -58 27 -80 32 -162 35 -84 2 -104 0 -176 -26z"/>
<path d="M15058 57961 c-31 -20 -52 -44 -69 -77 l-23 -48 3 -376 c5 -648 7
-713 29 -762 50 -113 165 -140 255 -59 69 62 67 41 67 633 0 293 -4 550 -9
571 -12 49 -57 114 -92 133 -46 23 -109 18 -161 -15z"/>
<path d="M26268 57961 c-31 -20 -52 -44 -68 -77 l-24 -48 3 -391 c5 -669 6
-696 28 -746 49 -111 164 -141 250 -66 69 60 73 81 73 367 0 140 -3 394 -7
563 l-6 308 -30 45 c-53 81 -136 98 -219 45z"/>
<path d="M30355 57975 c-43 -23 -71 -52 -91 -94 -17 -33 -18 -77 -16 -571 3
-599 4 -609 68 -673 65 -65 149 -63 218 6 69 70 69 61 61 671 -8 597 -6 576
-74 640 -38 37 -118 47 -166 21z"/>
<path d="M32165 57974 c-45 -25 -65 -45 -88 -89 -20 -39 -20 -52 -18 -565 1
-304 7 -545 12 -572 33 -154 182 -207 281 -102 62 67 61 53 53 659 -7 603 -5
582 -70 645 -28 28 -43 34 -87 37 -36 2 -63 -2 -83 -13z"/>
<path d="M7794 57950 c-39 -10 -99 -33 -133 -50 l-62 -31 -39 35 c-87 78 -225
48 -265 -58 -16 -40 -17 -95 -13 -568 l4 -523 26 -56 c20 -43 34 -59 63 -73
95 -46 181 -19 225 69 l25 50 -3 295 c-3 207 0 309 8 340 35 131 186 251 318
254 89 2 86 16 84 -464 -2 -445 2 -485 57 -541 37 -37 95 -52 146 -38 52 15
119 82 134 134 13 48 15 712 2 858 -5 54 -17 121 -28 149 -36 102 -154 200
-274 227 -68 16 -196 12 -275 -9z"/>
<path d="M12667 57956 c-50 -18 -85 -51 -108 -101 -18 -38 -19 -85 -19 -900 0
-815 1 -862 19 -900 33 -71 86 -105 165 -105 54 0 105 32 129 81 23 48 39 260
35 456 l-3 150 122 6 c147 7 232 26 340 78 150 71 253 193 310 364 24 71 27
95 27 220 0 133 -1 145 -32 234 -18 52 -48 120 -67 150 -39 64 -120 148 -185
191 -134 89 -319 98 -487 24 l-52 -22 -15 24 c-33 49 -117 73 -179 50z m543
-366 c89 -46 159 -201 147 -329 -15 -168 -168 -281 -378 -281 -107 0 -99 -20
-99 235 l0 222 60 65 c95 104 182 133 270 88z"/>
<path d="M17484 57950 c-39 -10 -99 -32 -133 -50 l-62 -31 -30 30 c-55 56
-144 64 -215 21 -71 -44 -69 -28 -70 -585 -1 -275 3 -527 8 -560 17 -109 64
-160 157 -172 58 -7 120 31 151 92 25 50 25 52 30 385 l5 335 32 45 c72 103
170 166 277 177 51 5 55 4 72 -22 17 -26 18 -60 19 -459 l0 -431 25 -50 c16
-31 38 -57 59 -69 75 -43 180 -10 229 74 l27 45 3 365 c3 385 -6 564 -34 643
-34 98 -157 199 -275 226 -68 16 -196 12 -275 -9z"/>
<path d="M29025 57961 c-44 -11 -70 -27 -99 -61 -54 -64 -45 -123 44 -300 93
-185 266 -599 349 -834 38 -108 62 -143 115 -167 53 -24 97 -24 146 1 74 38
92 76 260 545 153 428 203 590 203 650 -1 129 -102 205 -218 161 -62 -24 -98
-70 -124 -157 -41 -140 -185 -569 -191 -569 -4 0 -48 100 -100 223 -129 308
-171 396 -210 440 -51 59 -113 83 -175 68z"/>
<path d="M22155 57946 c-148 -28 -270 -93 -392 -210 -87 -83 -169 -199 -209
-296 -90 -222 -89 -465 3 -617 43 -72 63 -94 128 -139 91 -62 172 -86 315 -91
147 -6 219 8 319 63 l64 35 38 -37 c74 -72 184 -76 250 -8 28 29 33 43 37 91
3 54 0 66 -58 183 -76 154 -80 178 -80 588 0 271 -1 296 -20 331 -24 48 -70
87 -118 101 -61 18 -201 21 -277 6z m65 -483 c1 -139 9 -273 25 -389 l7 -51
-73 -48 c-96 -64 -152 -71 -234 -30 -102 49 -136 147 -101 285 46 180 142 296
301 362 77 32 75 36 75 -129z"/>
<path d="M24375 57945 c-150 -27 -284 -102 -410 -230 -162 -163 -255 -384
-255 -605 0 -158 42 -272 137 -371 103 -108 239 -154 438 -147 130 5 204 25
278 74 l39 26 32 -30 c46 -44 93 -64 147 -64 65 0 108 26 137 84 32 64 25 99
-50 251 l-60 122 -9 180 c-4 99 -5 254 -2 346 7 191 3 220 -37 281 -57 86
-200 117 -385 83z m78 -582 c3 -137 10 -267 15 -290 11 -48 5 -56 -86 -112
-88 -56 -187 -51 -258 11 -52 46 -66 81 -66 162 0 138 74 298 176 379 57 45
160 97 192 97 21 0 22 -3 27 -247z"/>
<path d="M6436 57930 c-161 -41 -330 -141 -422 -250 -138 -165 -169 -524 -63
-745 53 -111 168 -229 277 -284 140 -71 314 -72 542 -4 243 72 359 172 347
297 -5 59 -42 98 -108 116 -58 16 -90 8 -221 -54 -135 -64 -180 -76 -290 -76
-89 0 -163 25 -201 68 -22 24 -40 16 153 67 395 106 579 241 605 440 19 157
-78 326 -233 402 -73 37 -80 38 -191 40 -89 2 -135 -2 -195 -17z m244 -338
c28 -13 36 -24 38 -49 2 -18 -2 -41 -8 -53 -12 -22 -105 -73 -190 -102 -57
-19 -295 -88 -306 -88 -13 0 7 83 31 130 27 54 62 84 145 125 109 55 225 70
290 37z"/>
<path d="M35411 57940 c-226 -47 -438 -187 -515 -338 -96 -189 -101 -480 -11
-668 40 -83 145 -201 223 -252 150 -95 337 -110 562 -45 191 55 300 113 346
183 68 103 39 205 -70 240 -54 17 -92 8 -209 -49 -127 -62 -198 -81 -307 -81
-72 0 -94 4 -137 25 -28 14 -58 34 -67 44 -17 18 -15 20 36 34 29 9 90 25 135
36 220 56 385 134 480 227 86 84 107 134 108 250 0 84 -2 95 -38 166 -26 54
-54 92 -97 131 -83 78 -144 100 -285 103 -60 2 -130 -1 -154 -6z m191 -341
c39 -10 53 -35 50 -84 -2 -31 -59 -72 -144 -105 -73 -28 -341 -110 -360 -110
-12 0 0 66 22 115 55 127 285 225 432 184z"/>
<path d="M4040 57921 c-190 -61 -339 -200 -436 -404 -75 -160 -102 -362 -66
-502 32 -126 58 -185 114 -260 64 -84 174 -161 277 -195 299 -96 674 169 778
550 25 89 24 327 0 420 -28 107 -74 188 -146 261 -107 107 -214 149 -376 148
-58 0 -110 -6 -145 -18z m223 -332 c180 -93 167 -451 -23 -623 -80 -72 -181
-97 -248 -62 -63 33 -114 116 -127 207 -17 114 41 292 125 383 77 83 207 129
273 95z"/>
<path d="M16081 57924 c-258 -69 -469 -337 -517 -659 -19 -123 -13 -197 26
-319 54 -169 154 -285 309 -360 76 -36 94 -41 175 -44 79 -4 102 -1 171 23
109 36 186 85 275 175 91 91 162 201 204 318 30 85 31 91 31 262 -1 165 -2
180 -29 255 -34 100 -71 157 -144 227 -101 96 -210 138 -356 137 -50 0 -115
-7 -145 -15z m218 -339 c16 -8 44 -33 63 -55 109 -127 75 -387 -70 -542 -177
-189 -393 -95 -392 171 1 95 13 149 52 229 78 158 243 251 347 197z"/>
<path d="M18535 57050 c-84 -19 -98 -39 -228 -339 -107 -249 -113 -267 -104
-303 20 -78 115 -129 202 -107 75 19 110 72 257 394 79 172 81 179 63 240 -25
87 -104 135 -190 115z"/>
<path d="M10905 53459 c-101 -15 -245 -56 -347 -97 -836 -342 -1392 -1524
-1498 -3187 -13 -206 -13 -774 0 -980 60 -942 274 -1789 597 -2369 322 -579
751 -935 1253 -1040 137 -29 392 -35 1835 -46 787 -6 2296 -19 3355 -30 4667
-47 6113 -58 8530 -66 1819 -7 1941 -6 2040 10 552 93 1010 430 1347 991 302
502 509 1214 592 2035 59 581 54 1300 -15 1900 -128 1125 -446 2028 -862 2448
-180 181 -273 223 -577 262 -616 79 -2125 123 -5445 161 -1185 14 -10723 21
-10805 8z m10190 -838 c3453 -32 5315 -80 5930 -156 125 -15 119 -11 219 -160
246 -366 449 -1097 530 -1905 32 -323 40 -476 40 -850 0 -563 -36 -955 -129
-1410 -74 -359 -160 -620 -290 -885 -178 -364 -364 -576 -610 -695 -190 -93
-43 -85 -1630 -82 -2260 5 -4101 18 -8575 62 -1103 11 -2482 24 -3065 30 -583
5 -1355 12 -1715 16 -733 6 -749 8 -885 75 -427 209 -780 907 -939 1859 -70
420 -91 685 -90 1180 0 397 10 573 50 880 70 552 201 1025 384 1390 195 390
426 613 685 660 66 12 8608 4 10090 -9z"/>
<path d="M23336 51379 c-159 -15 -337 -55 -541 -123 -165 -55 -197 -63 -243
-59 -45 5 -62 1 -116 -26 -74 -36 -151 -114 -187 -188 l-24 -48 -3 -712 -2
-712 -43 -30 c-110 -75 -170 -227 -138 -347 16 -61 68 -131 127 -172 l53 -37
3 -525 c3 -515 3 -526 25 -572 54 -117 171 -197 299 -206 125 -8 213 39 277
150 53 90 57 126 57 581 l0 420 58 -7 c163 -18 422 -26 535 -16 377 33 687
170 932 414 450 448 519 1107 173 1647 -160 250 -389 425 -666 513 -160 50
-392 72 -576 55z m336 -668 c112 -29 154 -54 248 -150 71 -71 94 -103 132
-181 84 -171 100 -351 45 -522 -31 -98 -72 -162 -148 -232 -141 -131 -341
-206 -599 -227 -129 -10 -346 -1 -440 17 l-30 7 2 586 3 586 80 32 c267 106
510 135 707 84z"/>
<path d="M13604 51290 c-111 -23 -233 -121 -286 -228 l-33 -67 0 -1500 0
-1500 27 -58 c35 -74 117 -160 184 -193 191 -93 405 27 453 254 7 35 11 224
11 547 l0 495 625 0 624 0 3 -527 c3 -525 3 -528 26 -585 28 -68 97 -148 161
-186 41 -24 56 -27 141 -27 81 0 103 4 145 25 106 51 194 179 215 310 6 37 10
265 10 535 l0 470 48 17 c70 25 126 78 164 156 30 60 33 75 33 157 0 79 -4 97
-29 149 -36 74 -93 131 -162 163 l-54 24 0 623 c0 638 -3 704 -40 776 -61 119
-206 189 -348 168 -107 -17 -213 -92 -261 -186 -50 -98 -51 -115 -51 -759 l0
-603 -625 0 -624 0 -3 663 -3 662 -29 63 c-59 127 -186 191 -322 162z"/>
<path d="M16635 51200 c-164 -9 -211 -26 -284 -105 -139 -151 -143 -361 -7
-452 122 -83 356 -118 733 -111 l243 5 2 -1296 c3 -1227 4 -1298 21 -1343 29
-73 88 -132 175 -175 70 -35 83 -38 162 -38 77 0 92 3 153 33 82 40 120 88
138 170 9 43 12 366 11 1354 l-2 1296 313 -1 c415 -2 571 21 661 95 99 82 112
232 33 384 -25 48 -106 132 -154 161 l-45 26 -1007 2 c-553 1 -1069 -1 -1146
-5z"/>
<path d="M19505 51200 c-164 -9 -211 -26 -284 -105 -139 -151 -143 -361 -7
-452 122 -83 356 -118 733 -111 l243 5 2 -1296 c3 -1227 4 -1298 21 -1343 29
-73 88 -132 175 -175 70 -35 83 -38 162 -38 77 0 92 3 153 33 82 40 120 88
138 170 9 43 12 366 11 1354 l-2 1296 313 -1 c415 -2 571 21 661 95 99 82 112
232 33 384 -25 48 -106 132 -154 161 l-45 26 -1007 2 c-553 1 -1069 -1 -1146
-5z"/>
<path d="M33370 53424 c-613 -45 -1334 -198 -1739 -371 -407 -174 -750 -409
-1086 -747 -1113 -1116 -1497 -2881 -938 -4301 320 -812 923 -1462 1743 -1879
468 -238 905 -367 1450 -428 173 -19 659 -16 845 6 975 113 1820 494 2460
1108 335 323 558 654 739 1099 404 998 452 2225 126 3233 -192 591 -516 1105
-929 1474 -492 438 -1094 695 -1841 787 -130 16 -690 29 -830 19z m1169 -930
c300 -78 561 -201 802 -380 180 -135 430 -394 398 -415 -73 -47 -749 -282
-892 -310 -15 -3 -28 27 -82 187 -101 301 -256 669 -371 882 l-44 82 27 -6
c16 -3 88 -21 162 -40z m-1979 -38 c0 -3 -37 -58 -83 -123 -179 -256 -334
-519 -452 -766 -48 -101 -75 -147 -87 -147 -47 0 -676 226 -783 282 l-26 14
73 70 c185 176 401 325 638 443 177 87 311 136 531 191 148 37 189 45 189 36z
m1109 -416 c100 -197 214 -463 280 -654 28 -82 50 -150 48 -152 -15 -15 -264
-28 -542 -28 -294 -1 -452 7 -622 30 l-42 6 46 87 c167 315 372 616 606 889
l80 94 34 -59 c18 -32 69 -128 112 -213z m-2624 -1195 c93 -37 271 -101 395
-142 124 -42 226 -77 228 -78 2 -2 -13 -73 -32 -157 -43 -184 -80 -400 -96
-558 -6 -63 -14 -125 -16 -137 l-4 -23 -655 0 -655 0 0 24 c0 96 86 475 154
678 61 183 205 512 247 564 7 9 45 -4 137 -46 70 -31 203 -88 297 -125z m5150
-12 c90 -308 138 -601 151 -931 l7 -162 -631 0 -632 0 0 68 c0 109 -19 333
-46 551 -14 112 -23 206 -20 209 3 3 88 29 188 58 101 29 251 76 333 104 155
53 511 192 555 216 51 27 55 22 95 -113z m-3597 -407 c291 -43 418 -51 852
-51 335 1 457 4 576 18 83 9 155 17 161 17 16 0 50 -290 68 -574 l6 -99 -128
6 c-70 4 -498 7 -951 7 l-823 0 6 53 c22 186 101 593 122 630 5 9 -4 9 111 -7z
m-1059 -1628 c20 -195 83 -554 116 -659 5 -14 -17 -22 -132 -49 -242 -56 -740
-193 -890 -245 -13 -4 -61 71 -141 226 -110 209 -197 458 -246 702 -14 71 -26
133 -26 138 0 5 255 9 653 9 l653 0 13 -122z m2672 109 c13 -4 -57 -361 -108
-543 -30 -109 -12 -101 -188 -84 -329 33 -878 30 -1254 -6 -95 -8 -174 -14
-177 -12 -15 16 -93 424 -112 585 l-8 71 920 -5 c507 -2 924 -5 927 -6z m2059
-9 c0 -27 -60 -269 -95 -383 -63 -208 -182 -487 -264 -622 l-20 -31 -93 29
c-193 61 -539 158 -710 199 -98 24 -178 47 -178 52 0 5 13 62 29 126 38 151
75 337 95 482 9 63 19 125 21 138 l5 22 605 0 c477 0 605 -3 605 -12z m-2632
-1437 l63 -6 -53 -77 c-118 -171 -302 -380 -439 -499 l-58 -50 -84 128 c-124
189 -286 477 -274 489 17 17 704 30 845 15z m1100 -146 c142 -31 503 -123 511
-131 7 -6 16 1 -154 -112 -236 -157 -576 -315 -873 -405 -76 -23 -82 -24 -70
-8 7 11 52 70 100 133 103 136 211 303 288 445 30 56 61 103 68 103 7 0 65
-11 130 -25z m-2764 -102 c57 -128 162 -332 240 -463 30 -52 53 -96 51 -98
-13 -13 -300 100 -480 188 -197 97 -515 293 -515 318 0 14 575 159 636 161 17
1 29 -18 68 -106z"/>
<path d="M5150 53204 c-19 -2 -84 -9 -145 -15 -249 -24 -527 -74 -825 -149
-350 -88 -612 -201 -890 -384 -177 -117 -314 -229 -475 -391 -557 -556 -909
-1294 -1022 -2145 -26 -193 -25 -670 0 -860 137 -1007 649 -1795 1507 -2315
138 -84 410 -216 557 -270 867 -319 1827 -276 2706 121 528 239 1022 648 1312
1085 380 572 598 1478 555 2304 -43 820 -280 1504 -706 2035 -91 113 -277 299
-394 392 -327 260 -731 446 -1165 533 -240 48 -334 57 -665 60 -173 2 -331 1
-350 -1z m715 -853 c668 -101 1134 -427 1435 -1004 271 -521 365 -1237 254
-1945 -71 -455 -228 -872 -430 -1142 -72 -96 -255 -281 -365 -370 -394 -317
-881 -514 -1419 -576 -180 -20 -508 -15 -680 11 -269 40 -526 123 -768 246
-647 330 -1077 870 -1226 1541 -46 207 -59 336 -59 573 0 481 98 890 318 1325
282 556 716 965 1225 1153 226 83 692 177 1030 206 166 15 533 5 685 -18z"/>
<path d="M5680 51705 c-403 -64 -752 -379 -895 -808 -51 -153 -66 -250 -72
-454 l-6 -191 -86 -7 c-300 -21 -343 -26 -414 -48 -234 -75 -423 -273 -486
-508 -32 -121 -34 -173 -12 -390 12 -112 32 -339 46 -503 22 -264 28 -308 53
-381 73 -211 249 -377 462 -434 112 -30 328 -44 690 -44 685 0 829 32 1020
223 140 140 204 292 203 485 0 110 -40 900 -49 980 -33 295 -227 532 -509 621
-81 26 -83 29 -84 144 -1 164 47 315 130 405 56 61 105 85 170 85 50 0 53 -2
118 -65 112 -111 244 -159 374 -136 226 40 383 253 347 473 -15 93 -60 176
-147 268 -153 163 -349 260 -587 290 -101 13 -159 12 -266 -5z m-366 -2347
c14 -187 28 -569 22 -576 -10 -9 -558 -16 -659 -7 l-83 6 -27 307 c-19 212
-24 308 -16 312 5 4 133 12 282 19 150 7 279 14 287 16 8 1 54 3 101 4 l87 1
6 -82z"/>
<path d="M7610 26374 c-19 -2 -84 -9 -145 -15 -486 -48 -992 -223 -1434 -496
-556 -344 -1062 -871 -1439 -1500 -518 -862 -799 -1881 -897 -3248 -35 -493
-65 -1661 -45 -1766 32 -167 162 -304 321 -337 26 -6 437 -7 1024 -3 964 7
981 8 1037 29 147 54 249 173 277 324 8 47 4 114 -24 385 -59 568 -69 724 -69
1128 0 388 10 531 55 800 100 599 357 1127 713 1463 119 113 239 196 381 267
219 108 389 152 620 162 356 15 634 -87 859 -315 259 -262 427 -647 581 -1332
220 -980 334 -1934 352 -2955 l6 -350 -614 -1 c-593 0 -904 -8 -1659 -39
-2061 -87 -4295 -265 -5185 -415 -220 -37 -438 -91 -506 -125 -100 -51 -172
-136 -209 -246 l-22 -64 11 -705 c32 -2050 63 -4469 81 -6440 6 -645 16 -1187
21 -1215 21 -112 85 -204 189 -275 94 -64 297 -179 475 -270 499 -254 1017
-435 1590 -554 94 -19 202 -47 241 -61 66 -23 97 -26 390 -40 3381 -159 6335
-109 7804 131 497 81 857 189 1030 308 194 132 332 369 445 762 280 976 389
3041 260 4914 -73 1050 -217 1847 -407 2250 -22 47 -60 141 -85 210 -257 708
-600 1120 -1175 1410 -79 40 -144 73 -144 74 -1 0 7 78 17 171 133 1202 152
2150 58 2980 -226 2011 -1113 3584 -2486 4405 -525 314 -1074 505 -1658 576
-122 14 -558 27 -635 18z m556 -850 c708 -80 1443 -445 1990 -989 717 -713
1195 -1761 1373 -3011 66 -463 85 -806 78 -1419 -7 -582 -31 -944 -112 -1670
-40 -353 -131 -1074 -137 -1080 -2 -2 -98 2 -213 10 -116 7 -294 17 -397 21
-163 6 -188 9 -188 23 0 9 7 102 15 206 51 678 51 1511 0 2215 -53 718 -150
1402 -296 2090 -209 983 -434 1499 -833 1909 -335 343 -749 532 -1251 571
-517 40 -1103 -131 -1535 -448 -700 -514 -1133 -1362 -1257 -2462 -25 -218
-25 -1007 0 -1285 9 -104 20 -229 23 -277 l7 -88 -477 0 -477 0 6 213 c25 866
54 1283 125 1780 62 426 149 806 270 1167 344 1032 992 1855 1776 2257 478
245 955 330 1510 267z m1584 -7758 c0 -25 -20 -269 -25 -312 l-6 -41 -702 -6
c-691 -6 -906 -12 -1522 -42 -886 -44 -1743 -115 -2449 -206 -176 -22 -260
-38 -354 -67 l-63 -20 -167 70 c-143 60 -346 140 -767 302 -49 19 -84 35 -77
35 8 1 161 14 340 31 1240 112 3009 218 4357 259 138 4 517 9 843 9 510 2 592
0 592 -12z m2560 -497 c25 -21 29 -29 15 -25 -11 3 -46 8 -77 12 -32 3 -58 10
-58 14 0 4 3 22 6 39 l6 31 37 -21 c20 -11 52 -34 71 -50z m-9753 -285 c65
-25 332 -127 593 -226 504 -191 780 -298 780 -302 0 -1 -11 -26 -25 -55 -68
-139 -111 -304 -123 -461 -4 -55 -2 -247 5 -427 48 -1313 78 -2537 103 -4208
13 -914 24 -2175 18 -2175 -2 0 -70 18 -149 40 -384 105 -780 264 -1125 451
l-111 60 -7 812 c-6 816 -17 1782 -36 3257 -16 1233 -40 3022 -42 3158 -2 67
-2 122 -1 122 1 0 55 -21 120 -46z m7623 -414 c1375 -36 2317 -149 2702 -322
l67 -30 34 -87 c176 -438 304 -1425 348 -2676 13 -374 7 -1550 -10 -1840 -68
-1168 -177 -1895 -338 -2246 -33 -74 -37 -78 -87 -98 -384 -155 -1403 -277
-2771 -331 -1356 -53 -3398 -35 -5226 46 l-146 7 -7 581 c-34 2953 -67 4485
-132 6146 -7 184 3 249 54 344 35 65 133 163 198 198 77 41 142 54 469 92
1454 170 3366 255 4845 216z"/>
<path d="M8985 15654 c-351 -34 -629 -126 -870 -287 -559 -376 -840 -1074
-698 -1737 89 -420 363 -770 761 -975 150 -77 201 -158 189 -299 -24 -275
-169 -960 -338 -1597 -117 -439 -116 -431 -96 -500 31 -107 108 -178 213 -198
28 -5 272 -15 544 -22 497 -12 1111 -3 1397 21 163 13 235 55 285 165 39 88
32 143 -44 340 -173 445 -343 1045 -458 1614 -46 228 -47 262 -2 345 33 61 57
78 219 160 72 37 171 95 219 129 492 349 662 955 449 1595 -96 287 -268 558
-487 768 -261 249 -554 400 -888 458 -94 16 -317 28 -395 20z"/>
</g>
</svg>
