<?xml version="1.0" standalone="no"?>
<!DOCTYPE svg PUBLIC "-//W3C//DTD SVG 20010904//EN"
 "http://www.w3.org/TR/2001/REC-SVG-20010904/DTD/svg10.dtd">
<svg version="1.0" xmlns="http://www.w3.org/2000/svg"
 width="1368.000000pt" height="883.000000pt" viewBox="0 0 1368.000000 883.000000"
 preserveAspectRatio="xMidYMid meet">

<g transform="translate(0.000000,883.000000) scale(0.100000,-0.100000)"
fill="#000000" stroke="none">
<path d="M2527 8132 c-15 -9 -37 -35 -47 -58 -20 -40 -20 -70 -18 -2890 3
-2728 4 -2851 21 -2877 10 -16 32 -37 50 -47 31 -20 64 -20 1666 -20 l1634 0
-7 -82 c-4 -46 -16 -141 -27 -212 -78 -522 -273 -821 -566 -865 -43 -7 -234
-11 -477 -11 l-404 0 -31 -26 c-55 -46 -55 -47 -52 -344 3 -306 4 -311 71
-349 l38 -21 2359 0 2360 0 34 23 c66 44 69 61 69 357 0 245 -2 267 -20 297
-38 63 -37 63 -482 63 -522 1 -576 10 -711 123 -177 147 -320 539 -344 940
l-6 107 1629 0 c1559 0 1631 1 1663 18 19 10 43 34 53 53 17 32 18 143 18
2889 0 2814 0 2855 -20 2887 -10 18 -33 39 -49 48 -27 13 -455 15 -4203 15
-3932 -1 -4175 -2 -4201 -18z m8201 -2934 l2 -2678 -3995 0 -3995 0 0 2680 0
2680 3993 -2 3992 -3 3 -2677z m-3368 -3005 c0 -180 69 -542 140 -732 105
-285 265 -483 472 -585 143 -71 178 -76 591 -76 l357 0 0 -95 0 -95 -2190 0
-2191 0 3 93 3 92 385 5 c384 6 385 6 465 33 110 37 195 89 286 175 184 174
306 432 378 797 17 88 25 152 47 383 l5 52 625 0 624 0 0 -47z"/>
<path d="M3039 7623 c-63 -54 -59 127 -59 -2430 0 -2206 1 -2340 18 -2373 9
-19 32 -45 51 -57 l34 -23 3646 0 c3512 0 3648 1 3680 18 19 10 43 34 53 53
17 32 18 127 18 2389 0 2318 0 2356 -20 2387 -10 18 -33 39 -49 48 -27 13
-405 15 -3685 15 l-3654 0 -33 -27z m7169 -2420 l2 -2173 -664 0 -665 0 -3 57
c-2 46 -7 59 -20 61 -16 3 -18 -5 -18 -57 l0 -61 -2790 0 -2790 0 0 2175 0
2175 3473 -2 3472 -3 3 -2172z"/>
<path d="M8840 7235 c0 -115 2 -126 18 -123 15 3 17 17 17 123 0 106 -2 120
-17 123 -16 3 -18 -8 -18 -123z"/>
<path d="M8840 6916 c0 -123 4 -142 28 -127 9 5 12 40 10 127 -3 104 -5 119
-20 122 -16 3 -18 -8 -18 -122z"/>
<path d="M3545 6978 c-3 -7 -4 -391 -3 -853 l3 -840 100 0 100 0 3 442 2 442
50 51 c66 68 143 103 238 108 41 2 93 -1 117 -8 58 -16 122 -72 149 -129 20
-44 21 -61 24 -479 l3 -433 102 3 102 3 3 340 c3 389 -6 541 -39 632 -60 164
-181 243 -376 243 -136 0 -237 -42 -324 -135 l-44 -47 -5 334 -5 333 -98 3
c-72 2 -99 -1 -102 -10z"/>
<path d="M5188 6628 l-3 -143 -158 -3 -158 -3 3 -77 3 -77 157 -3 157 -3 3
-392 c3 -387 3 -393 27 -452 34 -83 118 -167 192 -190 113 -36 335 -26 443 19
l38 16 -7 52 c-13 90 -18 97 -62 88 -21 -5 -78 -14 -127 -20 -154 -19 -235 13
-280 110 -20 43 -21 65 -24 407 l-4 363 229 2 228 3 3 77 3 78 -228 2 -228 3
-3 143 -3 142 -99 0 -99 0 -3 -142z"/>
<path d="M6550 6625 l0 -145 -155 0 -156 0 3 -77 3 -78 152 -3 151 -3 4 -382
c5 -362 6 -385 27 -442 58 -160 174 -234 367 -235 115 0 276 34 312 65 4 3
-15 106 -23 131 -2 8 -24 7 -77 -3 -40 -8 -111 -15 -158 -16 -111 -3 -167 22
-208 91 l-27 47 -3 372 -3 373 228 2 228 3 3 78 3 77 -231 0 -230 0 0 145 0
145 -105 0 -105 0 0 -145z"/>
<path d="M8845 6708 c-3 -8 -4 -66 -3 -129 2 -93 6 -114 18 -114 13 0 15 20
15 124 0 91 -3 125 -12 128 -7 3 -15 -2 -18 -9z"/>
<path d="M8060 6493 c-8 -3 -39 -14 -67 -25 -29 -11 -77 -39 -107 -64 l-55
-44 -3 57 -3 58 -92 3 -93 3 0 -831 0 -830 100 0 100 0 0 280 c0 164 4 280 9
280 5 0 22 -11 38 -24 98 -82 276 -118 411 -82 153 41 269 170 324 361 20 69
23 102 22 245 0 190 -13 262 -71 377 -45 93 -136 181 -220 214 -46 18 -81 24
-168 26 -60 1 -117 0 -125 -4z m162 -181 c146 -53 221 -199 221 -432 0 -288
-118 -450 -329 -450 -95 0 -162 29 -223 96 l-51 56 0 293 0 293 33 43 c38 51
98 94 147 107 56 16 151 13 202 -6z"/>
<path d="M9353 6485 c-77 -21 -149 -61 -205 -113 -69 -64 -90 -110 -96 -204
-5 -93 15 -144 83 -207 79 -72 177 -112 425 -171 178 -42 247 -101 238 -202
-5 -45 -11 -57 -46 -89 -58 -54 -128 -73 -256 -67 -77 4 -112 10 -148 27 -61
30 -115 90 -130 146 l-12 45 -96 0 c-53 0 -99 -2 -102 -5 -10 -10 11 -97 34
-143 48 -95 170 -185 303 -223 32 -9 97 -14 180 -13 188 1 298 39 392 136 119
123 116 315 -6 420 -73 63 -189 107 -410 158 -168 39 -234 80 -246 151 -9 54
10 103 56 143 50 43 114 61 209 60 117 0 206 -49 251 -136 10 -21 19 -44 19
-53 0 -12 17 -15 100 -15 l100 0 0 35 c0 61 -38 142 -93 199 -57 57 -130 97
-222 121 -74 19 -251 19 -322 0z"/>
<path d="M8840 6265 c0 -115 2 -126 18 -123 15 3 17 17 17 123 0 106 -2 120
-17 123 -16 3 -18 -8 -18 -123z"/>
<path d="M8845 6058 c-3 -8 -4 -66 -3 -129 2 -93 6 -114 18 -114 13 0 15 20
15 124 0 91 -3 125 -12 128 -7 3 -15 -2 -18 -9z"/>
<path d="M8840 5615 c0 -118 1 -125 20 -125 19 0 20 7 20 125 0 118 -1 125
-20 125 -19 0 -20 -7 -20 -125z"/>
<path d="M8845 5408 c-3 -8 -4 -66 -3 -129 2 -93 6 -114 18 -114 13 0 15 20
15 124 0 91 -3 125 -12 128 -7 3 -15 -2 -18 -9z"/>
<path d="M8845 5088 c-3 -8 -4 -66 -3 -129 2 -93 6 -114 18 -114 13 0 15 20
15 124 0 91 -3 125 -12 128 -7 3 -15 -2 -18 -9z"/>
<path d="M9454 5001 c-56 -14 -135 -65 -179 -113 -87 -97 -105 -172 -105 -445
0 -165 -2 -183 -17 -183 -30 0 -92 -51 -113 -94 -19 -40 -20 -61 -20 -371 0
-313 1 -331 21 -372 14 -29 35 -52 63 -68 l43 -25 410 0 410 0 34 23 c18 12
44 40 56 62 22 39 23 46 23 378 0 292 -2 344 -16 373 -20 42 -67 83 -104 91
l-28 5 -4 232 c-3 226 -4 232 -30 288 -36 77 -109 153 -183 190 -50 26 -74 31
-145 34 -47 2 -99 0 -116 -5z m232 -76 c67 -30 129 -93 162 -164 26 -55 26
-60 27 -276 l0 -220 -45 0 -45 0 -5 215 c-5 234 -8 247 -69 307 -43 44 -91 63
-155 63 -95 0 -164 -41 -209 -125 -20 -37 -22 -57 -25 -252 l-3 -213 -45 0
-45 0 3 233 c3 264 8 283 90 366 98 99 236 124 364 66z m-56 -145 c85 -43 102
-102 98 -340 l-3 -175 -172 -3 -173 -2 0 206 c0 202 1 208 25 249 45 77 145
106 225 65z m341 -587 c58 -34 60 -49 57 -413 l-3 -330 -33 -32 -32 -33 -395
-3 c-431 -3 -434 -3 -472 55 -16 24 -18 60 -21 313 -4 351 -1 383 43 427 l33
33 397 0 c356 0 400 -2 426 -17z"/>
<path d="M9490 4002 c-45 -22 -80 -75 -80 -120 0 -36 43 -122 60 -122 6 0 10
-29 10 -64 0 -35 3 -72 6 -81 9 -22 59 -46 81 -38 44 15 53 34 53 107 0 60 3
73 20 83 55 35 66 148 19 200 -27 29 -77 53 -111 53 -13 0 -39 -8 -58 -18z
m116 -66 c41 -35 39 -90 -4 -126 -31 -25 -32 -30 -32 -98 0 -70 -13 -99 -31
-71 -5 8 -9 44 -9 81 0 58 -3 69 -21 78 -31 17 -49 67 -37 102 21 59 86 76
134 34z"/>
<path d="M8844 4777 c-2 -7 -3 -62 -2 -123 3 -94 5 -109 21 -112 15 -3 17 8
17 122 0 107 -2 126 -15 126 -9 0 -18 -6 -21 -13z"/>
<path d="M8845 4458 c-3 -8 -4 -66 -3 -129 2 -93 6 -114 18 -114 13 0 15 20
15 124 0 91 -3 125 -12 128 -7 3 -15 -2 -18 -9z"/>
<path d="M8853 4143 c-10 -3 -13 -41 -13 -140 0 -123 2 -134 18 -131 15 3 17
19 20 132 3 128 -1 148 -25 139z"/>
<path d="M8847 3813 c-12 -11 -8 -261 4 -269 22 -13 29 23 29 149 0 99 -3 127
-13 127 -8 0 -17 -3 -20 -7z"/>
<path d="M8847 3473 c-4 -3 -7 -62 -7 -130 0 -113 2 -124 18 -121 15 3 17 18
20 119 2 89 -1 119 -11 127 -8 7 -17 9 -20 5z"/>
</g>
</svg>
