<?xml version="1.0" standalone="no"?>
<!DOCTYPE svg PUBLIC "-//W3C//DTD SVG 20010904//EN"
 "http://www.w3.org/TR/2001/REC-SVG-20010904/DTD/svg10.dtd">
<svg version="1.0" xmlns="http://www.w3.org/2000/svg"
 width="1080.000000pt" height="1080.000000pt" viewBox="0 0 1080.000000 1080.000000"
 preserveAspectRatio="xMidYMid meet">

<g transform="translate(0.000000,1080.000000) scale(0.100000,-0.100000)"
fill="#000000" stroke="none">
<path d="M482 9343 c-11 -22 -22 -397 -12 -413 4 -7 16 -10 26 -8 15 3 20 16
26 65 8 72 35 134 49 112 5 -8 9 -51 9 -97 0 -66 3 -84 16 -89 29 -11 38 14
37 106 -1 61 -7 99 -18 121 -15 29 -20 32 -51 27 l-34 -6 -1 52 c-1 116 -23
176 -47 130z"/>
<path d="M8450 9345 c-20 -24 -28 -406 -8 -422 23 -20 37 0 47 67 9 66 28 120
42 120 11 0 22 -95 15 -137 -8 -48 6 -73 31 -57 15 10 18 26 18 112 0 86 -3
103 -20 122 -15 17 -27 21 -52 17 l-33 -6 0 88 c0 63 -4 92 -14 100 -10 9 -16
8 -26 -4z"/>
<path d="M2655 9328 c-2 -13 -6 -52 -7 -88 l-3 -65 -37 -3 c-73 -6 -120 -89
-98 -173 6 -22 20 -49 32 -61 18 -18 29 -20 77 -15 37 4 60 12 68 24 10 13 13
64 11 208 -3 170 -5 190 -20 193 -11 2 -19 -5 -23 -20z m-26 -232 c7 -8 11
-36 9 -63 -3 -41 -6 -48 -26 -51 -33 -5 -52 15 -52 56 0 56 42 91 69 58z"/>
<path d="M9802 9338 c-5 -8 -11 -98 -13 -207 -4 -177 -2 -195 14 -205 22 -14
37 5 37 49 l0 29 43 -42 c46 -46 58 -50 77 -27 9 11 3 23 -35 64 l-47 50 36
47 c40 53 42 57 22 73 -12 10 -23 5 -57 -26 l-42 -38 5 107 c5 122 -8 165 -40
126z"/>
<path d="M10575 9338 c-2 -7 -7 -48 -10 -90 l-7 -78 -35 0 c-41 0 -88 -43 -98
-90 -10 -47 5 -110 32 -138 22 -22 30 -24 80 -19 31 3 60 10 65 15 12 12 24
348 14 385 -7 28 -33 37 -41 15z m-26 -242 c7 -8 11 -36 9 -63 -3 -46 -5 -48
-34 -51 -26 -3 -33 2 -43 26 -25 59 32 132 68 88z"/>
<path d="M181 9306 c-6 -7 -9 -21 -5 -30 6 -15 19 -21 69 -28 19 -3 20 -11 20
-163 l0 -160 25 0 25 0 2 140 c4 180 5 185 46 185 45 0 71 20 63 48 -7 21 -13
22 -120 22 -84 0 -117 -4 -125 -14z"/>
<path d="M1067 9307 c-16 -11 -17 -32 -15 -197 3 -172 4 -185 22 -188 27 -5
36 15 36 80 l0 57 48 6 c26 3 54 7 62 8 9 1 15 13 15 27 0 24 -3 25 -62 28
l-63 3 0 59 0 60 43 0 c78 0 113 23 86 56 -15 18 -148 19 -172 1z"/>
<path d="M8147 9314 c-26 -26 8 -64 57 -64 l26 0 0 -165 0 -165 24 0 c13 0 27
7 30 16 3 9 6 83 6 165 l0 149 38 0 c48 0 65 12 60 41 -3 24 -5 24 -119 27
-63 1 -118 -1 -122 -4z"/>
<path d="M9056 9301 c-28 -30 -36 -80 -36 -213 0 -156 7 -168 95 -168 94 0
145 40 145 116 0 41 -15 64 -52 77 -15 5 -16 11 -8 32 23 60 3 142 -39 165
-32 16 -86 12 -105 -9z m87 -62 c11 -15 13 -29 6 -52 -8 -30 -55 -87 -71 -87
-13 0 -9 88 6 125 17 40 38 45 59 14z m51 -185 c23 -9 20 -41 -6 -58 -57 -35
-122 -26 -116 17 4 31 81 57 122 41z"/>
<path d="M1947 9293 c-3 -5 -8 -34 -12 -65 -6 -46 -11 -58 -25 -58 -9 0 -24
-8 -33 -18 -14 -15 -15 -21 -4 -34 6 -9 21 -18 32 -20 17 -3 21 -13 26 -75 7
-100 35 -126 94 -87 43 28 27 85 -17 62 -16 -8 -18 -3 -18 52 0 52 3 60 18 60
11 0 27 9 38 21 18 20 18 21 -1 35 -10 8 -27 14 -37 14 -15 0 -18 8 -18 48 0
54 -26 93 -43 65z"/>
<path d="M1288 9173 c-2 -5 -1 -62 2 -128 5 -112 6 -120 25 -120 16 0 22 9 28
45 14 77 29 130 37 130 4 0 13 -7 20 -15 7 -8 16 -12 21 -9 16 10 9 61 -11 79
-18 16 -23 17 -46 4 -23 -12 -27 -11 -35 4 -10 17 -35 23 -41 10z"/>
<path d="M716 9145 c-63 -58 -60 -163 6 -209 29 -20 102 -21 118 -1 22 27 4
45 -44 45 -25 0 -48 5 -51 10 -3 6 3 10 13 10 31 0 82 65 82 104 0 65 -72 89
-124 41z m63 -58 c-6 -13 -19 -28 -30 -35 -16 -10 -19 -9 -19 4 0 27 20 54 40
54 17 0 18 -3 9 -23z"/>
<path d="M1496 9144 c-52 -53 -55 -142 -6 -194 38 -41 82 -41 120 0 96 103
-15 292 -114 194z m81 -42 c31 -20 22 -105 -13 -119 -41 -16 -70 43 -48 95 13
31 36 40 61 24z"/>
<path d="M1746 9162 c-3 -5 -17 -7 -30 -5 -21 4 -26 1 -31 -28 -3 -19 -5 -72
-3 -119 3 -77 5 -85 23 -85 16 0 22 13 35 70 9 39 22 81 30 95 12 23 14 24 21
5 4 -11 8 -54 8 -96 1 -56 5 -78 15 -82 26 -10 36 17 36 98 0 102 -20 149 -67
153 -17 2 -34 -1 -37 -6z"/>
<path d="M2126 9145 c-63 -58 -60 -163 6 -209 29 -20 102 -21 118 -1 22 27 4
45 -44 45 -25 0 -48 5 -51 10 -3 6 3 10 13 10 31 0 82 65 82 104 0 65 -72 89
-124 41z m63 -58 c-6 -13 -19 -28 -30 -35 -16 -10 -19 -9 -19 4 0 27 20 54 40
54 17 0 18 -3 9 -23z"/>
<path d="M2366 9162 c-3 -5 -17 -7 -30 -5 -21 4 -26 1 -31 -28 -3 -19 -5 -72
-3 -119 3 -77 5 -85 23 -85 16 0 22 13 35 70 9 39 22 81 30 95 12 23 14 24 21
5 4 -11 8 -54 8 -96 1 -56 5 -78 15 -82 26 -10 36 17 36 98 0 102 -20 149 -67
153 -17 2 -34 -1 -37 -6z"/>
<path d="M8681 9144 c-58 -49 -62 -134 -8 -191 25 -27 38 -33 73 -33 46 0 77
21 68 45 -4 10 -20 15 -44 15 -21 0 -46 3 -55 7 -14 5 -10 9 16 17 45 15 82
71 75 111 -12 59 -73 73 -125 29z m69 -46 c0 -14 -40 -58 -52 -58 -13 0 -9 24
8 48 16 23 44 30 44 10z"/>
<path d="M9365 9151 c-17 -10 -39 -31 -49 -46 -37 -57 -18 -153 36 -181 27
-14 32 -14 64 5 42 25 44 25 44 6 0 -9 10 -15 26 -15 l26 0 -4 115 c-2 89 -7
118 -18 125 -25 16 -93 11 -125 -9z m77 -62 c-5 -32 -45 -112 -58 -116 -16 -5
-37 53 -30 82 7 26 62 68 81 62 6 -2 8 -15 7 -28z"/>
<path d="M9600 9134 c-68 -61 -73 -132 -13 -184 31 -27 41 -31 85 -28 35 2 54
8 62 20 16 25 -6 43 -50 40 -38 -3 -74 19 -74 45 0 23 28 70 45 77 9 3 26 -1
37 -9 15 -10 26 -11 40 -4 24 13 23 31 -5 57 -36 34 -79 29 -127 -14z"/>
<path d="M10052 9154 c-33 -23 -52 -67 -52 -120 0 -39 5 -51 34 -80 29 -29 41
-34 79 -34 47 0 74 18 63 45 -4 10 -19 15 -50 15 -25 0 -48 5 -51 10 -3 6 3
10 13 10 28 0 82 65 82 98 0 64 -64 94 -118 56z m58 -56 c0 -14 -40 -58 -52
-58 -13 0 -9 24 8 48 16 23 44 30 44 10z"/>
<path d="M10286 9161 c-3 -4 -17 -6 -30 -4 -33 7 -38 -14 -34 -137 3 -87 5
-95 23 -95 15 0 21 9 27 44 4 25 15 67 24 94 23 68 39 47 40 -54 2 -85 9 -104
34 -89 12 7 15 31 15 103 0 110 -16 147 -65 147 -16 0 -31 -4 -34 -9z"/>
<path d="M5255 8677 c-122 -19 -243 -25 -360 -17 -27 1 -71 -1 -97 -5 -36 -6
-48 -4 -48 5 0 32 -257 -37 -422 -114 -175 -81 -386 -251 -542 -436 -224 -266
-361 -577 -425 -960 -17 -106 -33 -311 -40 -540 l-7 -215 -68 -175 c-106 -271
-169 -487 -217 -745 -17 -90 -18 -392 -1 -464 35 -151 123 -306 224 -393 33
-29 98 -88 144 -130 101 -93 143 -116 343 -184 l155 -53 63 -88 c53 -74 63
-94 63 -130 0 -23 5 -65 11 -94 8 -37 8 -58 0 -75 -8 -18 -7 -32 4 -56 13 -31
14 -25 15 95 0 70 1 127 3 127 1 0 42 -39 91 -86 104 -100 187 -167 308 -249
48 -33 85 -62 82 -66 -2 -4 1 -11 7 -15 8 -4 9 -3 5 4 -12 19 0 14 71 -32 281
-180 448 -236 675 -223 l98 5 0 -41 c0 -63 27 -232 51 -316 31 -112 91 -249
149 -345 68 -114 210 -309 266 -367 42 -43 44 -46 27 -61 -10 -9 -27 -32 -37
-50 -19 -32 -17 -31 30 13 57 53 95 64 244 75 114 7 205 24 323 58 188 55 652
135 790 137 105 1 110 12 16 38 -69 19 -122 25 -299 31 -265 10 -271 11 -268
56 1 22 7 34 16 34 10 0 12 4 4 13 -13 16 -24 99 -14 113 4 6 30 14 58 18 73
9 284 80 311 104 27 24 31 76 7 110 -22 32 -89 63 -150 69 -49 5 -56 3 -94
-27 -136 -107 -148 -106 -172 15 -10 50 -16 100 -13 112 5 21 49 43 89 43 28
0 167 50 188 68 21 18 32 63 23 103 -7 32 -69 84 -111 95 -25 6 -165 -55 -202
-89 -13 -12 -26 -17 -31 -11 -12 14 -34 131 -27 143 4 6 37 11 76 11 57 0 81
6 131 30 34 16 67 37 74 47 22 30 27 74 10 99 -14 21 -104 74 -126 74 -6 0
-47 -22 -93 -50 -105 -63 -121 -64 -137 -8 -6 24 -15 53 -20 66 -5 13 -9 27
-9 32 0 14 80 13 119 -1 25 -9 36 -8 56 5 13 9 31 16 40 16 29 0 63 45 70 95
11 68 -3 89 -69 110 -31 10 -56 21 -56 25 0 11 87 90 151 137 71 53 117 108
125 151 4 19 1 111 -6 205 -13 186 -5 309 26 401 14 40 27 56 84 97 71 52 104
89 137 154 23 44 49 130 58 186 7 47 35 76 88 89 129 33 159 66 167 190 4 53
24 151 53 259 77 286 110 472 137 775 9 105 9 131 -2 137 -7 5 -346 9 -753 9
-737 1 -740 1 -716 20 33 28 8 25 -37 -4 -37 -24 -40 -24 -378 -31 l-341 -7
-6 23 c-4 13 -7 46 -7 72 0 45 2 49 35 63 42 17 137 18 187 0 20 -7 49 -28 64
-45 33 -40 44 -33 14 9 -19 26 -20 34 -9 41 8 5 20 9 27 9 6 0 12 5 12 11 0
10 -29 5 -58 -11 -8 -3 -37 -1 -65 7 -64 16 -111 16 -160 -1 -20 -8 -39 -11
-41 -7 -2 3 -3 96 -2 206 2 180 5 204 23 240 12 22 35 48 53 58 17 11 29 21
27 24 -7 6 -61 -23 -76 -41 -20 -24 -31 -10 -31 38 0 143 50 218 160 241 34 7
70 11 81 8 10 -3 19 -1 19 5 0 6 9 14 20 17 11 3 20 11 20 16 0 5 -13 3 -28
-5 -16 -8 -57 -18 -93 -22 -70 -7 -104 -21 -133 -53 -11 -12 -23 -21 -28 -21
-6 0 -8 44 -6 106 l3 106 44 39 c27 24 37 39 28 39 -9 0 -32 -16 -52 -35 -38
-39 -39 -38 -35 40 3 58 15 78 77 121 36 26 94 10 161 -44 69 -56 81 -71 82
-99 0 -12 5 -25 11 -29 8 -4 9 3 4 26 l-7 33 36 -6 c20 -3 51 -13 68 -21 36
-19 38 -19 38 -7 0 11 -93 51 -119 51 -12 0 -29 8 -39 18 -87 87 -193 128
-254 98 -17 -9 -35 -16 -40 -16 -12 0 -10 66 4 111 11 37 38 58 108 82 8 3 2
6 -15 6 -16 1 -45 -8 -64 -20 -39 -24 -48 -19 -35 19 13 36 80 72 147 79 42 4
66 0 117 -20 36 -14 85 -28 110 -31 55 -7 37 2 -75 38 -93 30 -176 34 -235 10
-52 -21 -63 -11 -25 22 28 24 25 26 -17 9 -49 -19 5 72 60 103 79 44 234 31
341 -29 58 -33 78 -33 37 -1 -15 11 -26 23 -26 27 0 15 136 -3 194 -25 34 -13
80 -41 105 -65 51 -46 105 -85 118 -85 4 0 -19 25 -52 55 -39 35 -54 54 -43
55 31 0 175 -50 201 -70 14 -11 29 -20 34 -20 22 0 147 -91 222 -161 45 -42
88 -76 97 -75 19 1 116 -80 140 -119 10 -16 33 -61 50 -98 28 -61 54 -102 54
-85 0 3 -9 27 -21 53 -11 25 -19 49 -16 51 6 6 60 -63 81 -103 9 -18 18 -45
19 -62 2 -16 10 -40 19 -53 39 -60 40 -72 2 -32 -22 23 -48 44 -59 48 -11 3
-28 20 -38 37 -24 44 -31 31 -9 -19 10 -24 22 -40 29 -37 22 8 75 -47 103
-107 15 -32 45 -83 65 -113 39 -55 56 -131 40 -172 -6 -16 -8 -16 -26 6 -24
30 -37 21 -15 -11 9 -12 16 -33 16 -45 0 -13 5 -23 10 -23 6 0 10 12 10 26 0
44 31 24 69 -46 47 -86 50 -161 8 -232 -31 -53 -26 -63 11 -20 l23 27 -5 -50
c-3 -27 -9 -61 -12 -74 -5 -15 -3 -22 3 -18 17 11 36 94 29 129 -8 40 -8 43 0
90 7 43 -19 121 -65 194 -22 34 -31 60 -31 90 0 24 -10 63 -24 91 -13 26 -34
75 -46 108 -20 56 -35 88 -73 160 -8 17 -23 57 -32 89 -14 47 -30 74 -84 133
-36 40 -86 96 -110 123 -24 28 -69 64 -100 82 -31 17 -78 52 -106 78 -118 111
-303 213 -434 240 -49 10 -98 23 -110 30 -62 33 -218 55 -250 36 -6 -4 -40 2
-77 14 -77 23 -157 25 -233 5 -59 -15 -96 -44 -117 -90 -13 -27 -14 -18 -12
95 2 104 0 125 -12 126 -8 1 -73 -8 -145 -19z m126 -1504 c1 -813 2 -1568 2
-1678 0 -110 0 -354 -1 -542 l-2 -343 -24 -6 c-14 -3 -41 -1 -61 6 -94 31
-125 15 -299 -149 l-116 -111 -60 0 c-39 0 -64 5 -74 15 -8 8 -19 15 -24 15
-14 0 -23 -43 -12 -54 7 -7 10 -3 10 9 0 17 1 17 19 1 15 -13 31 -15 87 -10
38 3 79 2 92 -3 15 -6 50 -5 92 3 71 12 111 8 302 -27 l67 -13 3 -90 c2 -50 3
-93 2 -96 -1 -3 -65 -2 -142 2 -162 7 -208 22 -260 84 -18 21 -43 50 -54 64
-29 34 -34 11 -9 -38 35 -69 122 -131 188 -133 23 -1 21 -3 -17 -15 -38 -12
-39 -13 -10 -9 19 3 53 8 75 11 38 4 37 3 -15 -15 -67 -23 -57 -25 30 -6 121
27 116 14 -8 -17 -67 -17 -121 -33 -118 -35 2 -3 50 7 106 21 56 14 130 29
166 32 55 6 64 5 64 -10 0 -13 -12 -16 -69 -16 -75 0 -193 -20 -256 -44 -55
-20 -40 -19 61 4 47 11 126 23 175 27 l89 6 0 -300 0 -301 -22 -6 c-42 -11
-222 -6 -290 8 -141 30 -267 95 -558 289 -215 143 -330 241 -451 386 -196 233
-270 430 -344 906 -15 94 -28 184 -30 200 -1 17 -12 80 -24 140 -30 158 -42
395 -30 598 6 92 8 173 6 180 -3 6 -6 -7 -6 -29 -1 -23 -4 -56 -7 -74 l-7 -32
-14 33 c-12 29 -12 42 2 101 10 37 15 73 13 80 -3 7 -10 -12 -17 -42 -7 -30
-15 -63 -18 -73 -3 -12 -13 1 -35 43 -18 36 -48 75 -74 98 -55 45 -67 81 -90
269 -20 170 -15 481 11 648 68 435 245 798 524 1075 115 114 213 190 301 232
36 17 67 35 68 40 11 26 190 97 332 130 97 23 417 36 485 20 27 -6 65 -5 115
3 41 7 94 13 118 14 l42 1 1 -1477z m36 1225 c-3 -7 -5 -2 -5 12 0 14 2 19 5
13 2 -7 2 -19 0 -25z m244 -1592 c-7 -8 -43 -40 -82 -72 -52 -44 -80 -77 -109
-131 -22 -39 -44 -75 -50 -78 -7 -4 -10 46 -10 144 l0 151 131 0 c112 0 130
-2 120 -14z m1159 -57 c12 -71 43 -141 113 -253 20 -33 37 -70 37 -82 0 -30
-42 -79 -96 -110 -36 -21 -47 -24 -59 -14 -17 14 -117 181 -112 186 2 2 21
-11 43 -28 l39 -32 -30 33 c-41 44 -156 119 -226 148 -43 17 -103 28 -234 41
-96 9 -175 20 -175 23 0 4 42 12 93 17 l92 11 -90 -4 c-192 -9 -329 -52 -378
-117 -36 -49 -103 -178 -117 -224 -7 -22 -18 -41 -26 -41 -18 0 -18 7 5 67 11
27 15 48 11 45 -5 -3 -16 -25 -25 -50 -13 -33 -15 -51 -7 -72 7 -21 5 -52 -6
-111 -13 -68 -14 -95 -5 -150 16 -92 58 -130 176 -162 45 -12 136 -42 202 -67
83 -31 148 -48 212 -56 l91 -11 -5 -33 c-5 -31 -3 -34 32 -49 59 -24 162 -121
218 -204 66 -98 77 -127 77 -200 0 -59 0 -60 -29 -60 -15 0 -57 10 -92 21 -69
23 -210 30 -217 11 -2 -6 -9 -10 -15 -8 -7 1 -9 1 -4 -1 4 -3 7 -11 7 -19 0
-21 -71 -124 -85 -124 -13 0 -85 -75 -85 -88 1 -4 19 13 41 38 39 43 40 43 33
15 -4 -17 -15 -54 -26 -84 -10 -30 -18 -67 -18 -83 0 -17 -4 -27 -10 -23 -5 3
-10 -2 -10 -12 0 -15 -2 -16 -10 -3 -5 8 -10 10 -10 4 0 -6 -14 -15 -32 -20
-32 -9 -32 -11 -28 -59 8 -91 5 -158 -6 -162 -7 -2 -14 18 -17 54 -4 32 -10
70 -13 86 -5 21 -3 27 10 27 9 0 16 7 16 15 0 17 -21 20 -37 4 -5 -5 -27 -12
-47 -15 -35 -4 -36 -3 -36 28 0 18 -5 40 -10 48 -6 10 -8 -2 -4 -36 6 -45 4
-53 -16 -67 -20 -14 -24 -14 -51 1 -24 14 -32 15 -49 4 -16 -10 -20 -10 -21 0
0 7 -5 0 -11 -15 -7 -21 -13 -25 -22 -18 -7 6 -71 13 -142 16 -71 3 -148 8
-171 11 l-43 5 0 223 0 223 48 -10 c136 -28 211 32 252 201 16 68 9 99 -55
257 -29 71 -60 155 -70 185 -10 30 -29 77 -43 105 -32 64 -32 140 1 249 18 59
30 82 48 92 28 16 39 17 57 5 11 -6 8 -21 -12 -71 -14 -35 -26 -71 -27 -79 0
-10 -2 -11 -6 -4 -2 7 6 42 18 78 25 73 21 96 -6 38 -12 -24 -19 -67 -21 -118
-2 -44 -6 -99 -9 -122 -4 -25 0 -65 10 -103 19 -75 55 -173 61 -167 2 2 -7 35
-22 73 -46 123 -42 272 11 399 34 82 32 93 -11 101 -36 7 -88 -11 -79 -27 3
-4 1 -9 -5 -11 -12 -4 -49 -142 -50 -184 0 -17 -5 -45 -11 -63 -9 -27 -16 -31
-45 -31 l-34 0 0 196 0 197 37 -6 c20 -4 48 -18 63 -32 14 -14 28 -25 31 -25
3 0 3 16 1 35 -5 42 -69 105 -106 105 -21 0 -25 5 -24 30 1 16 10 38 21 47 10
10 32 44 48 75 19 37 48 73 86 105 31 26 71 62 88 79 l30 31 562 2 561 1 12
-71z m104 59 c-4 -6 -11 -53 -14 -102 l-7 -91 -2 70 c-2 47 -5 63 -10 50 -6
-15 -9 -7 -12 31 -4 49 -3 50 24 52 20 2 26 -1 21 -10z m36 0 c0 6 6 12 13 12
10 0 8 -16 -9 -67 -13 -38 -23 -77 -23 -88 0 -11 9 11 20 49 31 109 28 106
117 106 l77 0 50 -61 c92 -111 135 -154 135 -134 0 10 -15 32 -34 50 -36 33
-59 73 -70 118 l-6 27 193 0 192 0 -7 -104 c-7 -106 -44 -407 -54 -439 -3 -9
-10 -14 -16 -11 -8 5 -9 -1 -5 -17 8 -30 -21 -171 -72 -358 -31 -110 -46 -149
-66 -167 -21 -19 -25 -21 -23 -6 2 9 -2 16 -9 15 -12 -2 -12 21 0 33 13 13 7
26 -9 20 -12 -5 -15 -2 -10 9 4 13 2 14 -12 6 -14 -8 -21 -2 -39 32 -19 35
-22 37 -17 13 5 -21 4 -27 -5 -21 -7 4 -3 -11 8 -33 11 -22 25 -43 31 -47 15
-9 12 -22 -5 -22 -8 0 -12 4 -9 9 3 4 2 13 -2 19 -5 8 -9 7 -14 -1 -6 -9 -15
1 -31 31 -13 26 -24 38 -27 30 -4 -11 -6 -11 -13 0 -7 11 -9 9 -9 -6 0 -17 -2
-17 -17 5 -13 19 -17 44 -17 105 1 73 1 75 -5 25 l-7 -55 -6 40 c-3 25 -4 15
-3 -25 3 -54 1 -60 -7 -35 -5 17 -11 91 -11 165 -1 74 -5 122 -8 105 -12 -56
-9 -210 5 -265 17 -64 15 -75 -5 -28 -21 50 -18 318 4 377 19 49 21 65 6 38
-24 -41 -32 -89 -39 -232 l-7 -150 -1 130 c-1 72 -5 141 -8 155 -5 20 -4 22 6
10 9 -12 11 -7 7 25 -3 22 -3 33 1 25 3 -8 17 21 34 69 15 47 26 86 24 88 -2
3 -13 -22 -24 -54 -11 -32 -21 -51 -21 -42 -1 9 6 36 14 59 8 24 13 45 11 48
-6 5 -51 -143 -67 -218 -11 -52 -7 -208 6 -270 5 -23 5 -24 -4 -3 -17 37 -32
180 -25 235 8 66 50 240 70 286 8 19 12 37 10 39 -13 13 -77 -213 -92 -322
-14 -102 -14 -23 0 108 9 89 19 143 30 158 18 26 21 43 6 34 -15 -9 -12 12 6
46 8 17 14 33 11 35 -8 8 -39 -74 -33 -85 4 -6 0 -21 -8 -33 -16 -22 -16 -22
-16 15 0 20 -4 37 -9 37 -5 0 -12 18 -16 40 -4 22 -11 40 -16 40 -5 0 -9 12
-10 28 -1 15 -5 38 -10 52 -6 19 -8 13 -6 -27 1 -32 -2 -48 -7 -43 -16 16 -20
49 -21 150 0 102 9 146 25 120 7 -10 10 -11 10 -2z m-1002 -382 c-13 -19 -24
-33 -26 -31 -5 4 37 65 44 65 2 0 -6 -15 -18 -34z m82 30 c0 -2 -8 -10 -17
-17 -16 -13 -17 -12 -4 4 13 16 21 21 21 13z m40 -23 c-5 -10 -24 -34 -42 -53
-30 -33 -30 -33 -13 -5 17 30 55 75 62 75 2 0 -1 -8 -7 -17z m-208 -44 c-9
-23 -18 -37 -20 -31 -3 10 24 72 32 72 3 0 -3 -19 -12 -41z m-377 -4 c17 -13
25 -24 18 -25 -6 0 -15 5 -18 10 -3 6 -24 10 -46 10 -28 0 -39 4 -39 15 0 24
51 18 85 -10z m456 -32 c-28 -74 -32 -80 -25 -49 7 36 31 96 38 96 3 0 -3 -21
-13 -47z m-2567 -68 c16 -24 16 -25 -9 -25 -82 0 -93 -40 -97 -341 -3 -244 -3
-244 25 -325 15 -45 47 -171 72 -280 56 -249 70 -288 120 -340 32 -34 50 -44
87 -49 27 -4 60 -3 77 3 l29 10 12 -71 c7 -40 19 -103 27 -140 8 -38 13 -70
11 -73 -5 -4 -81 90 -112 139 -10 16 -20 26 -24 23 -3 -4 -12 4 -19 16 -7 13
-12 17 -13 10 0 -28 72 -158 179 -322 9 -13 11 -21 4 -17 -7 4 -47 58 -89 120
-43 62 -81 117 -87 122 -22 23 37 -79 106 -183 41 -62 67 -107 58 -100 -32 24
-102 104 -138 158 -54 80 -59 83 -24 12 27 -54 125 -184 155 -204 6 -4 7 -8 2
-8 -15 0 -124 122 -189 213 -34 48 -90 138 -124 199 -35 62 -63 110 -63 108 0
-3 9 -29 20 -58 39 -102 84 -181 174 -308 l29 -39 -29 30 c-16 17 -46 50 -67
75 -31 36 -35 39 -23 15 42 -85 170 -220 279 -293 57 -38 35 -39 -30 -1 -68
41 -189 152 -249 230 -55 72 -108 169 -137 252 -27 77 -40 96 -31 46 28 -160
93 -277 233 -421 36 -38 62 -68 58 -68 -28 0 -122 63 -173 116 -102 105 -174
266 -219 489 -20 99 -25 154 -26 286 -1 176 -12 175 -25 -1 -8 -120 17 -328
52 -425 5 -15 4 -17 -4 -10 -7 6 -26 47 -42 90 -30 78 -30 79 -24 30 9 -72 44
-161 90 -230 23 -33 46 -70 53 -83 12 -23 12 -23 -11 -8 -57 37 -135 165 -174
286 -24 76 -28 104 -32 253 -5 190 0 221 64 492 51 213 95 354 175 561 l54
141 12 -39 c6 -21 18 -50 27 -63z m2505 83 c-6 -12 -16 -33 -20 -47 -8 -22 -8
-21 -4 8 3 19 10 40 16 48 17 20 21 16 8 -9z m104 7 c-3 -9 -8 -14 -10 -11 -3
3 -2 9 2 15 9 16 15 13 8 -4z m-221 -44 c-14 -9 -32 -103 -33 -174 0 -34 -5
-71 -10 -82 -6 -13 -8 16 -6 85 2 85 7 113 25 149 12 25 23 52 23 60 1 9 4 5
6 -8 3 -13 0 -26 -5 -30z m261 -6 c-15 -24 -29 -42 -32 -40 -4 5 46 85 54 85
2 0 -8 -20 -22 -45z m59 23 c-6 -7 -22 -35 -37 -63 -14 -27 -23 -39 -20 -25 8
28 52 100 61 100 4 0 2 -6 -4 -12z m42 -13 c-9 -14 -18 -25 -21 -25 -5 0 5 18
20 38 17 22 18 13 1 -13z m-217 -7 c-3 -8 -6 -5 -6 6 -1 11 2 17 5 13 3 -3 4
-12 1 -19z m-96 -48 c-5 -25 -9 -35 -10 -24 -1 28 11 92 16 79 1 -6 -1 -30 -6
-55z m170 33 c-12 -20 -14 -14 -5 12 4 9 9 14 11 11 3 -2 0 -13 -6 -23z m999
-8 c0 -13 -10 -48 -22 -77 -17 -42 -22 -74 -22 -158 -1 -131 13 -291 27 -309
18 -22 54 -31 237 -62 214 -36 210 -35 210 -63 0 -49 -70 -106 -130 -106 -18
0 -29 -4 -25 -10 3 -5 -3 -10 -15 -10 -11 0 -38 -11 -59 -25 -22 -13 -52 -27
-67 -31 -16 -4 -37 -16 -48 -26 -11 -10 -26 -16 -34 -13 -7 2 -10 0 -7 -5 4
-6 -9 -17 -27 -24 -18 -8 -32 -18 -30 -23 1 -4 -2 -8 -7 -8 -5 0 -12 -3 -16
-7 -4 -4 -19 -2 -34 3 -24 8 -25 8 -7 -6 19 -14 19 -15 0 -21 -10 -4 -34 -13
-53 -20 -18 -8 -37 -11 -42 -8 -5 3 -6 -2 -3 -10 3 -9 -3 -17 -18 -21 -13 -4
-34 -16 -47 -26 -35 -28 -41 -24 -41 31 0 28 -7 67 -15 86 -28 68 -107 184
-148 218 -37 31 -40 36 -27 51 8 10 38 29 67 42 46 22 75 43 60 43 -5 0 -103
-55 -142 -79 -17 -10 -30 -8 -87 18 -38 17 -68 35 -68 39 0 4 7 17 15 28 10
16 29 23 75 27 77 8 137 34 181 79 41 41 179 312 179 351 0 25 30 67 48 67 5
0 35 20 68 45 32 24 62 45 67 45 4 0 7 -11 7 -25z m-1110 -115 c-4 -69 -8
-116 -10 -105 -2 15 -4 13 -10 -10 l-8 -30 -1 27 c0 15 4 30 9 33 6 3 10 39
10 79 0 63 9 143 15 134 1 -2 -1 -59 -5 -128z m27 98 c-3 -8 -6 -5 -6 6 -1 11
2 17 5 13 3 -3 4 -12 1 -19z m44 -24 c-5 -16 -10 -21 -10 -12 -1 18 10 51 15
45 2 -1 -1 -16 -5 -33z m26 4 c-3 -8 -6 -5 -6 6 -1 11 2 17 5 13 3 -3 4 -12 1
-19z m-140 -50 c-2 -13 -4 -3 -4 22 0 25 2 35 4 23 2 -13 2 -33 0 -45z m1260
30 c-3 -8 -6 -5 -6 6 -1 11 2 17 5 13 3 -3 4 -12 1 -19z m-1130 -30 c-3 -7 -5
-2 -5 12 0 14 2 19 5 13 2 -7 2 -19 0 -25z m-50 -30 c-2 -13 -4 -5 -4 17 -1
22 1 32 4 23 2 -10 2 -28 0 -40z m-2485 16 c45 -23 85 -82 129 -193 48 -119
53 -170 25 -241 -22 -54 -33 -233 -18 -270 9 -20 11 -2 13 85 l2 110 8 -110
c4 -60 17 -157 28 -215 11 -58 22 -130 26 -160 4 -30 13 -93 22 -139 14 -80
14 -86 -3 -98 -41 -30 -126 -6 -167 48 -30 40 -43 83 -97 319 -22 96 -54 227
-71 290 -30 114 -30 117 -23 282 8 189 15 214 53 174 13 -14 32 -49 42 -78 17
-52 17 -52 -5 -79 -21 -25 -63 -146 -53 -155 2 -3 16 23 30 56 40 92 51 79 45
-52 l-5 -113 17 70 16 70 18 -67 c15 -55 17 -76 8 -126 -11 -62 -6 -100 22
-164 9 -21 16 -50 16 -65 0 -22 2 -25 10 -13 14 22 12 76 -5 117 -18 43 -19
88 -3 148 11 40 9 54 -11 122 -13 43 -32 115 -43 161 -30 136 -86 224 -132
206 -19 -7 -21 11 -6 53 20 54 47 60 112 27z m2335 -31 c-3 -10 -5 -2 -5 17 0
19 2 27 5 18 2 -10 2 -26 0 -35z m250 -30 c-3 -10 -5 -4 -5 12 0 17 2 24 5 18
2 -7 2 -21 0 -30z m-180 -10 c-3 -10 -5 -4 -5 12 0 17 2 24 5 18 2 -7 2 -21 0
-30z m1230 -105 c-2 -24 -4 -5 -4 42 0 47 2 66 4 43 2 -24 2 -62 0 -85z
m-1300 45 c-2 -16 -4 -5 -4 22 0 28 2 40 4 28 2 -13 2 -35 0 -50z m310 35 c-3
-8 -6 -5 -6 6 -1 11 2 17 5 13 3 -3 4 -12 1 -19z m-150 -30 c-3 -8 -6 -5 -6 6
-1 11 2 17 5 13 3 -3 4 -12 1 -19z m30 -15 c-3 -10 -5 -4 -5 12 0 17 2 24 5
18 2 -7 2 -21 0 -30z m-270 -40 c-3 -10 -5 -4 -5 12 0 17 2 24 5 18 2 -7 2
-21 0 -30z m200 5 c-3 -7 -5 -2 -5 12 0 14 2 19 5 13 2 -7 2 -19 0 -25z m-133
-30 l16 -33 -20 24 c-11 13 -20 27 -20 32 0 17 9 9 24 -23z m-248 -25 c-11
-11 -17 4 -9 23 7 18 8 18 11 1 2 -10 1 -21 -2 -24z m224 2 c0 -5 -5 -3 -10 5
-5 8 -10 20 -10 25 0 6 5 3 10 -5 5 -8 10 -19 10 -25z m1297 -2 c-3 -10 -5 -4
-5 12 0 17 2 24 5 18 2 -7 2 -21 0 -30z m-1323 11 c3 -8 2 -12 -4 -9 -6 3 -10
10 -10 16 0 14 7 11 14 -7z m1355 -134 c0 -10 -3 -8 -9 5 -12 27 -12 43 0 25
5 -8 9 -22 9 -30z m63 -42 c10 -21 16 -38 13 -38 -7 0 -45 78 -44 92 0 9 2 8
6 -2 3 -8 14 -32 25 -52z m52 -13 l17 -30 -20 24 c-12 13 -21 28 -21 34 0 12
0 11 24 -28z m143 -22 c12 -17 12 -17 6 2 -6 17 -5 18 10 7 9 -8 13 -20 10
-29 -5 -13 -12 -10 -35 16 -15 17 -28 37 -28 44 1 12 9 3 37 -40z m-67 -27 c0
-6 -4 -5 -9 3 -7 11 -9 11 -13 0 -3 -9 -9 -6 -18 11 -13 24 -12 24 5 10 17
-14 18 -13 12 5 -7 20 -7 20 8 1 8 -11 15 -25 15 -30z m-79 17 c13 -16 12 -17
-3 -4 -10 7 -18 15 -18 17 0 8 8 3 21 -13z m-23 -360 c-7 -21 -27 -52 -43 -69
-34 -33 -95 -122 -95 -137 0 -5 23 25 50 66 57 86 83 104 74 54 -10 -51 -42
-113 -85 -159 -28 -30 -36 -35 -28 -18 17 35 59 100 83 130 l21 25 -25 -22
c-14 -12 -40 -48 -59 -80 -57 -96 -62 -105 -67 -101 -2 3 5 23 16 47 12 23 18
46 15 51 -3 5 1 26 10 46 18 43 18 47 4 38 -6 -3 -4 8 5 24 9 17 20 34 26 37
5 3 10 11 10 17 0 6 -7 5 -17 -3 -11 -9 -10 -3 5 16 20 27 102 86 110 79 2 -1
-2 -20 -10 -41z m-268 -156 c0 -2 -11 -14 -24 -26 -19 -17 -26 -20 -32 -9 -4
7 -4 10 0 6 4 -3 16 2 27 13 17 17 29 24 29 16z m30 -37 c-6 -11 -9 -24 -6
-29 3 -5 -3 -44 -15 -87 -16 -64 -21 -122 -26 -304 -3 -129 -1 -263 5 -315 14
-117 1 -149 -93 -231 -37 -32 -113 -99 -168 -149 -55 -49 -113 -101 -130 -115
-55 -45 -242 -178 -245 -174 -2 1 8 35 22 75 37 103 24 98 -15 -6 -30 -79 -40
-93 -103 -151 -38 -35 -71 -62 -74 -60 -2 2 1 21 7 43 6 21 11 49 10 63 0 14
-10 -9 -22 -51 -17 -58 -29 -83 -53 -103 -18 -14 -34 -26 -37 -26 -2 0 -3 19
-1 43 3 41 3 40 -10 -12 -8 -33 -25 -64 -43 -83 l-29 -29 2 63 3 63 -8 -56
c-7 -47 -30 -111 -31 -85 0 4 -16 -6 -35 -23 -20 -17 -41 -32 -48 -32 -7 -1
-21 -3 -32 -6 -11 -2 -54 -6 -97 -9 -84 -7 -130 4 -190 42 l-38 24 0 190 c0
190 0 190 23 191 l22 2 -22 4 c-23 4 -23 6 -23 174 0 162 1 169 20 169 16 0
19 -5 15 -32 l-5 -33 13 33 c7 18 16 30 20 26 7 -7 8 -1 12 56 2 32 15 109 22
134 4 14 1 18 -11 13 -8 -3 -18 -2 -21 3 -3 5 9 10 27 10 18 0 44 1 58 2 l25
3 1 -103 c0 -56 -3 -105 -8 -108 -4 -3 -8 -10 -8 -15 0 -6 5 -7 10 -4 6 3 10
0 10 -7 1 -9 3 -9 9 2 5 8 11 64 13 123 3 100 4 108 24 113 12 3 33 4 45 2 20
-2 24 -10 27 -47 2 -23 -2 -57 -7 -73 -8 -23 -8 -35 0 -45 9 -11 8 -17 -7 -29
-10 -9 -13 -12 -5 -8 11 5 13 1 7 -22 -5 -23 -4 -26 5 -14 8 12 9 8 5 -15 -5
-22 -4 -26 4 -15 5 8 10 32 10 53 0 35 2 38 23 31 l22 -7 -22 19 c-20 18 -21
23 -11 74 5 30 12 64 14 76 3 17 40 44 59 44 6 0 -2 -219 -9 -256 -6 -26 -5
-25 8 6 13 34 14 34 18 10 4 -20 5 -19 3 5 -1 16 4 35 11 43 12 11 12 17 1 32
-10 15 -11 35 -4 90 9 62 13 73 34 81 13 5 28 9 34 9 5 0 8 -38 6 -85 -2 -63
-6 -88 -17 -95 -13 -8 -12 -10 3 -10 10 0 15 -4 12 -10 -3 -5 -1 -10 4 -10 6
0 11 12 11 26 0 19 4 25 15 20 19 -7 20 18 1 34 -11 8 -12 18 -5 36 5 14 9 43
9 64 0 29 5 42 19 50 36 19 43 12 41 -37 -4 -118 -8 -115 65 -43 68 68 125
162 117 194 -2 11 0 16 6 12 6 -3 14 -1 18 5 4 7 3 9 -3 6 -16 -10 -24 21 -11
42 6 10 20 24 31 30 11 7 16 8 12 2 -3 -6 -2 -11 2 -11 5 0 17 -6 27 -13 16
-12 16 -13 -4 -14 -11 -1 -18 2 -15 8 10 16 -1 10 -20 -11 -19 -21 -20 -20 30
-10 6 1 19 2 30 1 18 -2 18 -3 -5 -16 -24 -13 -23 -14 23 -11 26 1 53 8 59 14
19 19 28 14 19 -10 -5 -13 -14 -22 -20 -21 -6 2 -8 -4 -5 -12 5 -12 10 -10 25
8 26 31 23 17 -6 -34 -14 -24 -25 -48 -24 -54 0 -5 9 8 21 30 11 22 32 50 45
63 13 12 22 26 18 31 -6 10 11 24 33 27 10 2 10 -1 2 -11 -7 -8 -8 -20 -4 -26
4 -7 3 -9 -3 -6 -11 7 -58 -61 -49 -70 2 -3 12 9 21 27 9 18 19 30 21 27 3 -3
-2 -20 -11 -37 -11 -21 -12 -29 -4 -24 9 5 10 2 5 -12 -4 -10 -9 -32 -12 -49
-2 -16 5 -1 16 35 25 81 46 132 83 192 15 26 39 89 53 140 25 96 70 201 118
277 20 32 32 42 46 38 11 -3 25 1 31 9 8 10 15 11 24 4 6 -5 15 -6 19 -2 5 4
-3 -15 -16 -43 -12 -27 -25 -52 -28 -55 -3 -3 -6 -18 -7 -35 l-1 -30 15 35 c8
19 19 45 24 58 5 13 13 21 18 18 4 -3 16 13 26 35 19 42 39 63 29 32 -4 -13
-1 -12 12 5 21 27 28 29 14 2z m-3201 -563 c27 -36 52 -76 56 -89 17 -59 14
-59 -19 0 -19 35 -45 77 -58 95 -30 39 -88 141 -88 153 0 5 13 -14 30 -42 16
-29 51 -81 79 -117z m2454 138 c4 -8 4 -38 1 -67 -9 -87 -12 -97 -32 -92 -15
5 -17 15 -14 82 2 55 0 73 -7 62 -9 -13 -11 -13 -11 2 0 27 54 39 63 13z
m-139 -51 c12 -31 6 -161 -8 -173 -11 -9 -14 5 -19 81 -3 50 -4 95 -1 100 8
13 21 9 28 -8z m-54 -5 c0 -5 -4 -7 -10 -4 -5 3 -10 1 -10 -4 0 -6 4 -11 9
-11 12 0 20 -139 9 -171 -5 -15 -15 -30 -22 -32 -10 -4 -14 20 -19 101 -4 91
-3 108 11 119 21 15 32 16 32 2z m-86 -27 c20 -38 28 -109 19 -161 -7 -36 -13
-46 -36 -54 -16 -5 -31 -6 -34 -3 -3 3 -7 34 -8 69 -1 35 -8 73 -14 85 -6 12
-8 22 -4 22 4 0 2 4 -5 9 -10 6 -5 14 20 30 26 18 28 21 9 16 -16 -5 -21 -4
-17 4 14 22 55 12 70 -17z m-414 0 c15 -12 24 -33 27 -65 3 -26 10 -50 15 -53
11 -7 0 82 -14 109 -7 13 -5 17 9 17 16 0 18 -12 21 -116 2 -79 0 -120 -9
-130 -7 -9 -30 -14 -60 -14 l-49 0 0 135 c0 126 1 135 19 135 10 0 29 -8 41
-18z m169 -42 c29 -52 36 -165 12 -193 -21 -26 -78 -22 -92 6 -13 23 -16 208
-4 227 4 6 19 10 33 8 20 -2 33 -15 51 -48z m795 18 c-16 -18 -30 -35 -31 -37
-2 -2 -3 1 -3 8 0 11 47 61 58 61 3 0 -7 -15 -24 -32z m-771 16 c3 -3 3 -13 0
-21 -5 -12 -7 -12 -14 -1 -15 23 -4 40 14 22z m113 -20 c11 -16 19 -53 22
-102 4 -90 -7 -113 -57 -115 -31 -2 -34 1 -45 38 -13 44 -14 173 -2 193 14 22
64 14 82 -14z m583 -1 c-20 -25 -32 -33 -42 -26 -5 3 4 13 20 23 36 24 38 24
22 3z m-221 -65 c14 -14 16 -57 4 -76 -6 -9 -14 -1 -26 27 -23 50 -9 80 22 49z
m-805 -34 c45 -6 47 -8 47 -38 0 -36 -8 -50 -32 -59 -13 -4 -18 -1 -19 11 0
12 -2 13 -6 3 -4 -10 -9 -8 -19 10 l-14 24 -6 -22 c-6 -21 -16 -27 -36 -24 -5
0 -8 -4 -8 -10 0 -5 -4 -7 -10 -4 -5 3 -10 0 -10 -7 0 -9 -3 -9 -10 2 -9 13
-10 13 -10 -1 0 -17 -59 -49 -90 -49 -11 0 -20 -4 -20 -9 0 -5 -32 -22 -70
-37 -57 -22 -73 -25 -83 -15 -10 10 8 32 88 108 55 52 116 103 135 114 36 20
53 20 173 3z m757 -53 c0 -38 -6 -56 -25 -80 -31 -36 -59 -33 -44 6 5 13 9 38
9 54 0 41 17 69 40 69 17 0 20 -7 20 -49z m30 -6 c0 -8 -4 -15 -10 -15 -5 0
-10 7 -10 15 0 8 5 15 10 15 6 0 10 -7 10 -15z m-670 -90 c13 -16 10 -114 -5
-148 -6 -14 -4 -16 11 -10 17 6 17 5 5 -10 -7 -9 -22 -17 -32 -17 -17 0 -19 9
-19 100 0 78 3 100 14 100 7 0 19 -7 26 -15z m-70 -61 c0 -43 -2 -46 -23 -40
-12 3 -67 12 -122 21 -55 9 -101 18 -103 20 -13 13 58 31 138 36 52 3 98 6
103 7 4 1 7 -19 7 -44z m90 -61 c-11 -17 -11 -17 -6 0 3 10 7 28 7 40 2 22 2
22 6 0 2 -12 -1 -30 -7 -40z m1213 -303 c23 -11 27 -19 27 -56 0 -34 -5 -47
-22 -58 -40 -24 -76 -28 -88 -9 -9 14 -10 14 -7 2 4 -13 -5 -16 -59 -17 -35 0
-68 -4 -73 -7 -6 -3 -12 -1 -16 5 -3 5 -16 10 -28 10 -19 0 -16 3 13 21 19 12
62 43 95 69 81 63 98 68 158 40z m-250 -167 c28 -55 40 -134 34 -222 -5 -61
-11 -89 -22 -97 -13 -9 -13 -13 -3 -17 7 -3 -4 -5 -25 -4 -39 1 -64 16 -30 18
16 0 16 1 -2 8 -11 5 -22 7 -25 5 -4 -1 -11 6 -18 17 -7 11 -8 19 -2 19 5 0
10 -6 11 -12 0 -10 2 -10 6 0 2 6 9 10 14 6 5 -3 9 0 9 6 0 7 -6 10 -14 7 -8
-3 -20 1 -28 10 -11 14 -10 16 8 11 18 -5 21 -2 16 16 -3 11 -7 15 -10 8 -2
-6 -11 -12 -20 -12 -15 0 -15 2 -2 10 13 8 12 10 -2 10 -10 0 -18 5 -18 11 0
5 4 8 8 5 4 -2 8 4 8 15 0 10 -5 19 -11 20 -5 0 8 7 30 15 l40 13 -37 -5 c-30
-4 -38 -2 -38 11 0 9 4 14 9 11 12 -8 41 3 41 15 0 5 -8 9 -17 9 -15 0 -14 2
3 16 10 8 13 12 5 8 -10 -5 -11 -1 -6 17 15 50 36 79 55 79 11 0 25 -12 33
-27z m-124 -44 c-16 -10 -23 -4 -14 10 3 6 11 8 17 5 6 -4 5 -9 -3 -15z m489
-89 c19 0 22 -6 22 -40 0 -44 -6 -49 -90 -71 -54 -14 -69 -17 -137 -20 -29 -1
-53 -7 -53 -12 0 -6 -8 -3 -18 6 -13 12 -17 27 -14 50 3 31 8 35 60 51 32 10
70 25 85 33 86 45 80 44 102 23 12 -11 31 -20 43 -20z m-590 -21 c-2 -7 -10
-4 -18 7 -9 11 -10 15 -2 10 7 -4 12 -2 13 6 0 10 2 10 6 1 2 -7 3 -18 1 -24z
m-32 -1 c4 -7 3 -8 -4 -4 -7 4 -12 3 -12 -2 0 -5 -16 -13 -35 -19 -19 -6 -35
-9 -35 -7 0 3 68 42 77 44 1 0 5 -5 9 -12z m34 -68 c-12 -12 -18 -25 -15 -30
3 -4 -1 -10 -7 -13 -7 -2 -10 -7 -7 -11 4 -4 14 0 22 9 22 21 30 19 24 -7 -6
-22 -6 -22 8 -4 15 20 15 20 16 0 1 -10 1 -26 0 -34 -1 -11 3 -9 15 5 16 20
16 19 9 -5 -4 -14 -14 -37 -22 -52 -7 -16 -11 -28 -8 -28 2 0 14 18 25 40 20
38 38 56 26 25 -3 -8 -1 -15 4 -15 14 0 13 -87 -1 -96 -8 -4 -7 -9 2 -14 10
-7 10 -12 -1 -25 -31 -37 -130 -71 -260 -90 -94 -13 -123 -13 -189 0 -45 8
-49 11 -66 48 -10 22 -14 25 -11 10 2 -13 0 -23 -5 -23 -13 0 -7 72 7 87 7 7
14 9 18 6 3 -4 6 0 6 8 0 8 12 -4 26 -26 18 -28 23 -32 18 -15 -6 22 -5 23 10
11 14 -12 16 -12 10 5 -4 13 3 9 20 -11 25 -27 26 -28 15 -5 -6 14 -21 35 -32
48 -15 16 -18 25 -10 33 7 7 17 0 33 -25 12 -20 26 -33 33 -29 6 4 8 1 5 -8
-3 -8 3 -23 13 -33 24 -25 24 -15 -1 35 -13 24 -25 37 -32 33 -8 -5 -9 -1 -5
10 4 9 3 14 -2 11 -19 -11 -23 17 -5 36 22 24 32 24 63 -3 l26 -23 -22 26
c-34 38 -34 40 47 101 40 30 156 47 146 21 -8 -19 2 -16 32 12 32 30 51 34 22
5z m61 -37 c-12 -20 -14 -14 -5 12 4 9 9 14 11 11 3 -2 0 -13 -6 -23z m261
-104 c20 -94 16 -167 -11 -200 -16 -20 -96 -56 -85 -38 3 5 0 9 -6 9 -7 0 -23
9 -37 20 -29 23 -18 27 11 5 11 -8 34 -15 50 -14 32 1 29 3 -15 13 -25 5 -27
9 -25 57 1 32 8 56 17 63 19 14 44 78 54 134 4 25 12 41 18 39 6 -2 19 -41 29
-88z m-92 4 c-1 -20 -16 -31 -30 -23 -13 9 -13 10 0 11 10 0 8 3 -5 9 -18 8
-17 9 8 9 15 1 27 -2 27 -6z m-35 -41 c-3 -3 -11 0 -18 7 -9 10 -8 11 6 5 10
-3 15 -9 12 -12z m435 -22 c15 -11 30 -17 33 -13 4 3 11 -7 17 -22 15 -41 -3
-82 -41 -90 -16 -4 -30 -5 -32 -3 -2 2 -11 -3 -19 -10 -13 -10 -17 -10 -21 0
-3 8 -6 6 -6 -6 -1 -12 -6 -16 -16 -12 -8 3 -15 1 -15 -4 0 -18 -20 -10 -21 8
-1 16 -2 16 -6 -1 -2 -9 -8 -15 -13 -12 -12 7 -71 -18 -91 -38 -14 -13 -18
-13 -40 4 -22 18 -23 20 -7 33 10 7 15 16 12 19 -4 3 -4 21 0 39 5 27 15 37
52 55 25 13 50 20 55 17 5 -3 9 -1 9 4 0 6 15 13 33 16 19 3 42 13 53 21 25
19 31 19 64 -5z m-984 -1 c3 -6 0 -15 -7 -20 -13 -7 -28 5 -29 24 0 11 28 8
36 -4z m481 -11 c-3 -8 -6 -5 -6 6 -1 11 2 17 5 13 3 -3 4 -12 1 -19z m41 -83
c-3 -3 -9 2 -12 12 -6 14 -5 15 5 6 7 -7 10 -15 7 -18z m-57 -20 c5 4 6 -1 2
-10 -4 -12 -8 -13 -13 -5 -5 8 -9 7 -13 -5 -4 -9 -3 -13 3 -10 13 8 13 -1 -1
-28 -8 -16 -4 -14 13 6 l23 28 0 -49 c0 -28 3 -48 8 -45 4 2 7 1 8 -4 13 -103
16 -178 7 -178 -3 0 -17 -10 -30 -21 -66 -61 -182 -94 -328 -94 -153 0 -174 8
-208 78 -38 77 -43 92 -33 92 5 0 16 -21 26 -46 9 -25 20 -43 23 -40 3 3 10 2
17 -2 6 -4 3 1 -8 10 -13 12 -16 25 -12 40 4 15 3 18 -3 10 -6 -9 -12 -5 -21
15 -12 26 -24 113 -16 113 3 0 22 -33 45 -72 38 -70 57 -90 24 -27 -8 17 -13
33 -10 36 3 4 17 -19 31 -50 27 -63 43 -79 18 -19 -29 71 -45 95 -52 83 -5 -7
-18 7 -34 38 -29 53 -33 66 -16 55 8 -4 9 1 5 17 -6 20 -5 21 4 6 6 -9 9 -21
6 -26 -7 -10 23 -86 30 -78 3 3 -2 19 -10 36 -9 16 -16 34 -16 38 0 10 39 -39
40 -50 0 -10 60 -104 60 -94 0 4 -22 47 -50 95 -27 48 -50 91 -50 96 0 20 24
-12 56 -76 19 -38 37 -68 40 -66 2 3 -12 33 -31 69 -41 75 -43 86 -12 67 14
-10 39 -13 71 -11 44 4 255 39 281 47 20 6 50 18 80 32 18 8 31 9 33 3 2 -5 8
-7 13 -4z m99 -75 c0 -5 -2 -10 -4 -10 -3 0 -8 5 -11 10 -3 6 -1 10 4 10 6 0
11 -4 11 -10z m152 -40 c25 -50 51 -157 52 -212 1 -34 -5 -54 -21 -75 -13 -15
-32 -45 -43 -65 -16 -30 -26 -38 -49 -38 -21 0 -28 5 -27 18 0 10 -5 16 -14
14 -11 -2 -9 2 4 13 10 8 23 12 27 9 5 -3 9 0 9 5 0 6 -10 11 -22 12 -22 1
-22 1 2 10 23 8 22 8 -7 5 -18 -1 -33 1 -33 6 0 4 9 8 20 8 25 0 26 17 2 24
-10 4 -19 13 -19 21 0 8 9 15 19 15 10 0 18 5 18 10 0 6 -7 10 -15 10 -20 0
-37 42 -21 53 8 6 7 10 -3 14 -11 5 -11 7 0 14 12 8 12 10 0 18 -8 5 -9 11 -3
15 6 3 9 18 6 31 -2 14 -1 25 4 25 4 0 9 12 10 28 5 61 76 70 104 12z m-157
10 c-3 -5 -10 -10 -16 -10 -5 0 -9 5 -9 10 0 6 7 10 16 10 8 0 12 -4 9 -10z
m469 -187 c-5 -15 -3 -15 10 1 16 20 16 20 16 0 0 -14 2 -16 9 -6 6 11 17 11
46 3 66 -18 91 -56 63 -94 -13 -17 -116 -49 -130 -41 -3 2 -9 0 -12 -5 -4 -5
-32 -17 -63 -26 -46 -14 -61 -14 -80 -4 -12 7 -26 9 -30 6 -3 -4 1 -7 10 -7
10 0 17 -4 17 -9 0 -15 -65 -8 -84 8 -12 10 -15 22 -10 40 4 14 6 34 6 43 0
12 13 20 49 27 28 6 55 11 61 11 6 0 27 12 47 28 56 43 84 52 75 25z m-1111
-30 c2 -10 8 -27 13 -38 7 -17 6 -18 -8 -7 -9 7 -18 24 -21 37 -5 28 8 34 16
8z m582 -54 c-9 -17 -15 -33 -13 -35 2 -2 12 12 23 31 10 19 22 35 27 35 11 0
10 -17 -2 -25 -5 -3 -10 -11 -10 -16 0 -6 4 -7 10 -4 12 8 -2 -33 -26 -72 -17
-28 -16 -27 10 2 l27 30 -16 -32 c-19 -40 -19 -53 0 -27 13 17 14 14 15 -41 1
-33 3 -75 5 -93 2 -27 -3 -37 -29 -57 -70 -53 -193 -85 -328 -85 -71 0 -193
24 -214 41 -8 6 -14 8 -14 4 0 -21 -28 20 -33 48 -4 17 -9 43 -13 56 -5 17 -4
22 4 17 7 -4 12 -3 12 3 0 5 -4 12 -9 15 -14 9 -19 56 -10 90 5 19 5 34 -1 40
-6 6 -10 17 -10 26 0 13 1 13 10 0 9 -13 10 -13 10 0 1 17 25 -10 71 -79 40
-62 36 -73 -10 -26 -21 22 -37 45 -34 51 2 6 -4 17 -13 25 -16 13 -16 12 -5
-10 8 -15 9 -21 2 -17 -6 4 -11 2 -11 -3 0 -6 5 -11 10 -11 7 0 7 -6 0 -20 -8
-15 -7 -26 1 -42 12 -23 55 -85 72 -103 17 -18 -21 49 -47 84 -26 35 -34 57
-17 47 4 -3 30 -37 56 -76 26 -38 52 -70 58 -70 6 0 2 10 -9 23 -30 32 -94
126 -94 135 1 4 22 -16 48 -43 26 -28 41 -43 35 -34 -23 28 -14 33 15 8 l27
-24 -21 25 c-23 26 -54 83 -54 97 0 4 9 -3 20 -17 12 -15 18 -18 14 -7 -3 9
-1 17 5 17 6 0 3 8 -6 18 -15 15 -20 16 -29 4 -9 -12 -14 -10 -32 13 -12 16
-20 31 -16 34 3 3 11 -1 17 -9 18 -23 287 -17 383 9 22 6 44 11 49 12 6 1 30
17 55 35 25 18 46 33 48 33 1 1 -5 -13 -13 -30z m282 -91 c22 -28 23 -75 7
-216 -13 -114 -21 -152 -36 -167 -16 -17 -20 -18 -29 -5 -9 12 -10 10 -6 -7 6
-27 -14 -31 -33 -8 -10 12 -10 15 0 15 9 0 7 7 -5 20 -10 12 -21 16 -25 11 -3
-6 -11 -6 -20 -1 -12 7 -11 10 5 17 16 6 20 17 20 48 0 28 4 39 13 37 8 -1 11
2 7 8 -3 6 -10 8 -15 5 -5 -3 -11 -1 -15 5 -3 6 4 10 17 11 22 0 22 1 3 9 -19
8 -19 8 5 19 23 10 23 11 3 7 -25 -5 -28 1 -13 24 6 10 10 11 10 3 0 -7 5 -13
10 -13 6 0 8 11 6 25 -3 14 -1 25 4 25 5 0 7 7 4 15 -4 8 -1 15 5 15 6 0 10 3
9 8 -3 11 43 102 52 102 4 0 12 -6 17 -12z m-147 -52 c0 -3 -4 -8 -10 -11 -5
-3 -10 -1 -10 4 0 6 5 11 10 11 6 0 10 -2 10 -4z m28 -20 c-7 -8 -17 -12 -22
-9 -4 3 -2 9 5 14 22 13 31 11 17 -5z m-15 -196 c3 -11 1 -18 -4 -14 -5 3 -9
12 -9 21 0 9 -6 13 -14 10 -10 -4 -13 -1 -9 9 7 18 28 3 36 -26z m-83 6 c0 -3
-4 -8 -10 -11 -5 -3 -10 -1 -10 4 0 6 5 11 10 11 6 0 10 -2 10 -4z m-90 -24
c0 -5 -15 -16 -32 -25 l-33 -18 30 6 c17 3 42 15 58 26 15 11 27 15 27 9 0 -6
5 -8 11 -4 8 4 9 -1 5 -17 l-7 -24 16 25 c10 15 14 18 11 7 -4 -11 -9 -31 -12
-45 -4 -23 -3 -23 10 6 8 17 17 32 19 32 6 0 1 -39 -6 -46 -4 -4 -7 -12 -7
-18 0 -6 5 -4 10 4 8 13 10 12 10 -2 0 -10 5 -18 10 -18 6 0 4 -12 -5 -29 -17
-34 -99 -77 -172 -90 -27 -5 -97 -12 -158 -15 -60 -4 -121 -9 -135 -12 -21 -3
-37 9 -104 82 -63 69 -79 93 -82 121 l-3 35 29 -33 c35 -41 39 -60 8 -33 -17
14 38 -54 70 -86 11 -11 -12 26 -26 43 -9 10 -11 17 -4 17 6 0 19 -11 28 -25
9 -14 26 -31 38 -37 18 -10 19 -9 9 4 -7 8 -9 19 -5 23 4 5 2 5 -4 2 -14 -8
-100 80 -109 112 -8 27 -3 25 55 -18 59 -44 78 -51 107 -40 14 5 23 12 20 15
-3 3 -15 0 -27 -6 -17 -9 -25 -8 -39 4 -10 9 -23 16 -29 16 -7 0 -12 4 -12 9
0 5 12 7 28 3 40 -9 239 -3 302 9 30 6 64 18 75 25 23 16 25 17 25 6z m171
-19 c12 -16 12 -17 -2 -6 -9 7 -20 9 -24 5 -5 -4 -5 -1 -1 6 9 16 11 15 27 -5z
m499 -9 c0 -8 -5 -12 -10 -9 -6 4 -8 11 -5 16 9 14 15 11 15 -7z m-221 -9 c-1
-6 -5 -9 -10 -7 -18 4 -50 -19 -43 -31 4 -7 4 -9 -1 -5 -10 10 -47 -10 -40
-22 3 -5 1 -11 -5 -15 -5 -3 -10 -2 -10 4 0 6 -7 8 -15 5 -11 -5 -13 -2 -9 10
3 8 9 14 12 13 4 -1 7 1 7 4 0 4 9 17 20 29 l20 23 -25 -13 c-22 -12 -23 -11
-13 1 14 17 114 20 112 4z m104 2 c-4 -7 1 -7 13 -2 10 4 30 9 44 11 23 4 22
3 -4 -7 -21 -9 -25 -14 -15 -20 11 -7 9 -9 -6 -11 -42 -3 -51 -5 -76 -16 -14
-5 -41 -13 -61 -16 -19 -3 -43 -8 -54 -12 -15 -5 -15 -3 4 10 12 10 20 21 17
26 -3 5 0 12 6 16 8 4 9 3 5 -4 -4 -7 -4 -12 1 -13 4 0 18 -2 30 -3 12 -1 21
2 20 7 -1 5 4 12 12 15 9 3 11 0 6 -8 -6 -9 -2 -9 16 0 34 18 38 24 10 15 -16
-5 -21 -4 -17 4 4 7 1 9 -7 5 -8 -3 -18 -1 -21 4 -4 6 12 10 39 10 27 -1 42
-5 38 -11z m190 6 c-7 -2 -19 -2 -25 0 -7 3 -2 5 12 5 14 0 19 -2 13 -5z m64
1 c-3 -3 -12 -4 -19 -1 -8 3 -5 6 6 6 11 1 17 -2 13 -5z m-327 -19 c0 -2 -10
-10 -22 -16 -21 -11 -22 -11 -9 4 13 16 31 23 31 12z m437 -1 c-3 -3 -12 -4
-19 -1 -8 3 -5 6 6 6 11 1 17 -2 13 -5z m-717 -41 c-1 -18 -18 -35 -24 -24 -4
6 -4 16 -1 21 7 12 25 13 25 3z m-604 -160 c-4 -4 -30 16 -57 45 -77 83 -79
105 -3 30 37 -37 64 -71 60 -75z"/>
<path d="M4240 8411 c-31 -10 -110 -50 -110 -56 0 -6 92 30 129 50 28 15 21
18 -19 6z"/>
<path d="M4077 8276 c-62 -26 -90 -44 -47 -31 37 12 127 53 115 54 -5 0 -36
-10 -68 -23z"/>
<path d="M3990 8171 c-95 -35 -130 -54 -155 -80 -14 -16 8 -9 81 27 54 27 115
56 134 65 55 25 22 19 -60 -12z"/>
<path d="M3936 8084 c-72 -31 -125 -64 -151 -94 -22 -26 -18 -24 63 28 29 18
81 47 115 63 76 35 55 38 -27 3z"/>
<path d="M4675 8091 c22 -5 72 -12 110 -15 56 -6 66 -4 51 5 -10 6 -60 13
-110 15 -69 2 -81 1 -51 -5z"/>
<path d="M4455 8032 c-13 -6 30 -11 120 -15 77 -4 172 -9 210 -12 l70 -4 -70
14 c-84 17 -302 28 -330 17z"/>
<path d="M3916 8009 c-87 -35 -244 -138 -246 -161 0 -4 60 31 134 77 74 47
139 85 145 85 5 0 13 5 16 10 8 12 10 13 -49 -11z"/>
<path d="M4355 7970 c-22 -4 28 -5 110 -2 83 3 152 6 154 8 8 7 -223 1 -264
-6z"/>
<path d="M4421 7940 c-73 -5 -135 -11 -138 -13 -2 -3 147 -4 332 -3 184 0 321
4 303 9 -52 12 -351 16 -497 7z"/>
<path d="M3805 7890 c-44 -22 -98 -56 -120 -76 l-40 -36 40 24 c22 12 74 42
115 65 95 53 107 62 95 62 -5 1 -46 -17 -90 -39z"/>
<path d="M4444 7869 c-147 -11 -275 -35 -391 -74 -235 -79 -375 -181 -485
-355 -37 -58 -141 -260 -134 -260 2 0 39 60 82 133 42 72 97 157 120 188 98
128 219 211 391 270 127 43 218 57 476 75 344 23 398 32 202 31 -88 0 -205 -3
-261 -8z"/>
<path d="M3802 7835 c-60 -27 -152 -92 -152 -106 0 -5 27 9 60 32 33 22 84 54
112 70 64 35 53 37 -20 4z"/>
<path d="M4885 7830 c-33 -5 -134 -11 -225 -15 -467 -18 -698 -83 -875 -246
-90 -83 -211 -275 -277 -437 -36 -92 -88 -251 -87 -272 0 -8 15 30 33 85 79
235 214 482 323 590 91 90 234 161 400 200 71 17 285 46 291 40 2 -2 -23 -9
-55 -15 -200 -40 -437 -137 -536 -219 -50 -42 -117 -117 -117 -132 0 -21 27
-5 95 59 39 37 106 86 147 110 148 84 407 159 715 207 238 37 361 70 168 45z"/>
<path d="M3725 7733 c-61 -32 -123 -74 -129 -88 -3 -8 28 7 68 33 40 26 82 52
92 59 28 17 4 15 -31 -4z"/>
<path d="M3680 7283 c-98 -167 -196 -530 -235 -870 -8 -78 1 -64 15 20 43 267
121 558 205 766 25 63 44 116 41 118 -2 2 -14 -13 -26 -34z"/>
<path d="M3612 6743 c-23 -84 -83 -419 -81 -450 1 -10 7 7 15 37 20 79 95 483
90 487 -2 2 -13 -31 -24 -74z"/>
<path d="M4206 6795 c17 -13 15 -14 -28 -8 -39 4 -49 3 -54 -11 -3 -9 -17 -16
-31 -16 -32 0 -99 -40 -84 -50 7 -4 2 -11 -14 -18 -14 -7 -23 -17 -20 -22 4
-6 3 -9 -2 -8 -4 1 -24 -12 -43 -30 -19 -18 -29 -32 -21 -32 7 0 -8 -19 -34
-43 -31 -30 -44 -48 -40 -59 7 -18 28 -14 56 11 29 28 63 51 74 52 5 0 1 4
-10 9 -20 9 -20 9 1 9 11 1 24 5 30 11 5 5 27 16 49 25 l40 15 -35 -5 c-66 -9
-9 13 63 25 65 12 77 11 122 -5 20 -7 20 -6 1 9 -30 24 1 20 42 -6 20 -12 32
-16 27 -8 -5 8 7 4 27 -8 20 -12 48 -24 64 -25 16 -2 44 -12 62 -21 19 -10 36
-15 40 -12 3 3 16 -1 30 -10 13 -9 21 -11 18 -5 -4 6 -3 11 3 11 5 0 13 -4 16
-10 3 -5 16 -15 28 -21 l22 -12 -20 23 c-21 24 -5 20 27 -8 9 -7 21 -11 27 -8
5 3 23 -5 39 -19 l29 -24 -3 24 c-3 28 8 32 26 10 7 -8 16 -13 20 -10 4 3 13
-1 19 -8 15 -19 -21 -16 -46 3 -10 8 -5 0 11 -18 29 -32 43 -41 31 -22 -10 16
5 12 36 -11 35 -24 37 -18 7 24 -20 29 -20 31 -2 14 12 -9 23 -15 26 -12 3 3
11 -2 19 -12 12 -14 12 -16 0 -8 -10 5 -12 4 -7 -4 4 -6 11 -9 15 -6 10 5 62
-19 103 -47 32 -22 48 -23 48 -3 0 21 -41 127 -47 121 -10 -9 -33 22 -33 44 0
12 -4 18 -10 15 -6 -3 -10 4 -11 17 0 13 -3 18 -6 11 -3 -8 -13 -3 -29 14 -15
16 -24 21 -24 12 0 -9 -8 -4 -21 11 l-20 25 7 -25 c6 -25 6 -25 -16 3 -12 15
-25 26 -28 23 -3 -3 -12 0 -21 6 -13 10 -14 10 -3 -2 22 -26 12 -34 -13 -10
-14 13 -25 20 -25 15 0 -4 -10 0 -22 11 -13 10 -17 12 -10 4 17 -20 15 -35 -3
-20 -8 7 -15 9 -15 5 0 -4 -14 5 -31 19 -22 19 -35 24 -47 17 -11 -6 -24 -4
-41 7 l-26 16 24 -27 c34 -38 16 -34 -35 8 -45 37 -66 46 -43 19 12 -15 11
-16 -11 -10 -24 7 -24 7 5 -19 l30 -27 -30 20 c-46 29 -113 62 -127 62 -7 -1
4 -10 25 -21 20 -11 37 -21 37 -24 0 -4 -74 28 -147 64 -49 25 -65 27 -37 6z
m315 -102 l34 -38 -35 30 c-19 16 -39 33 -44 37 -6 5 -6 8 0 8 6 0 26 -17 45
-37z m94 7 c10 -11 16 -20 13 -20 -3 0 -13 9 -23 20 -10 11 -16 20 -13 20 3 0
13 -9 23 -20z m-24 -7 c13 -16 12 -17 -3 -4 -17 13 -22 21 -14 21 2 0 10 -8
17 -17z m-571 -7 c0 -2 -7 -7 -16 -10 -8 -3 -12 -2 -9 4 6 10 25 14 25 6z
m153 -3 c-7 -2 -19 -2 -25 0 -7 3 -2 5 12 5 14 0 19 -2 13 -5z m611 -29 c3 -8
2 -12 -4 -9 -6 3 -10 10 -10 16 0 14 7 11 14 -7z m196 -189 c0 -5 -5 -3 -10 5
-5 8 -10 20 -10 25 0 6 5 3 10 -5 5 -8 10 -19 10 -25z"/>
<path d="M4394 6761 c11 -11 23 -21 28 -21 14 0 -1 19 -25 31 -22 12 -22 12
-3 -10z"/>
<path d="M3660 6654 c-19 -49 -40 -148 -29 -137 6 6 19 43 29 84 20 75 19 105
0 53z"/>
<path d="M4335 6380 c-54 -11 -145 -46 -200 -77 -45 -25 -59 -38 -28 -26 12 5
14 3 9 -8 -4 -8 2 -4 13 9 11 13 25 21 31 17 5 -3 10 -1 10 5 0 6 5 8 10 5 6
-3 10 -2 10 4 0 9 44 27 89 36 13 2 31 7 41 10 15 5 17 2 13 -15 -4 -17 -1
-20 23 -20 22 0 25 3 14 9 -8 6 -18 7 -22 5 -4 -3 -5 2 -2 10 3 9 10 13 15 10
5 -3 9 0 9 6 0 7 6 10 13 7 6 -2 23 0 35 5 19 7 25 4 29 -11 4 -17 11 -19 37
-14 17 3 34 11 38 17 5 7 8 6 8 -4 0 -13 1 -13 10 0 6 9 10 10 10 3 0 -6 8
-11 18 -11 9 1 27 -2 39 -6 12 -4 24 -3 27 2 3 5 -20 17 -52 26 -61 17 -178
20 -247 6z"/>
<path d="M4400 6340 c-9 -6 -10 -10 -3 -10 6 0 15 5 18 10 8 12 4 12 -15 0z"/>
<path d="M4290 6331 c-8 -6 -18 -7 -22 -5 -4 3 -8 0 -8 -5 0 -15 48 -9 54 6 6
15 -3 16 -24 4z"/>
<path d="M4224 6304 c3 -9 6 -19 6 -22 0 -9 20 21 20 31 0 4 -7 7 -16 7 -11 0
-14 -5 -10 -16z"/>
<path d="M4414 6292 c4 -20 2 -31 -4 -27 -6 3 -10 0 -10 -7 0 -9 -3 -9 -10 2
-9 13 -10 13 -10 0 -1 -11 -4 -10 -17 5 -15 20 -15 20 -10 -2 7 -30 -19 -37
-43 -13 -17 17 -20 18 -20 4 0 -12 -7 -15 -25 -12 -14 3 -25 1 -25 -6 0 -6 -4
-5 -9 2 -6 10 -10 8 -14 -9 -4 -15 1 -36 13 -56 11 -18 16 -33 12 -33 -8 1
-38 41 -58 78 -18 36 -18 11 1 -36 l15 -37 -30 35 c-34 39 -41 27 -9 -14 11
-14 16 -26 10 -26 -6 0 -11 4 -11 9 0 5 -7 12 -16 15 -12 4 -10 -2 6 -27 l22
-32 -31 33 c-17 17 -33 32 -36 32 -6 0 15 -38 34 -62 21 -27 5 -21 -24 8 -14
14 -28 24 -31 21 -2 -2 2 -10 11 -17 20 -17 19 -31 -2 -24 -13 4 -11 0 6 -15
13 -12 20 -21 15 -21 -16 0 -42 32 -37 46 4 10 0 12 -11 8 -20 -8 -20 -18 0
-38 8 -9 12 -16 7 -16 -5 0 -14 5 -20 11 -8 8 -19 6 -39 -5 -25 -13 -26 -15
-8 -16 11 0 29 -7 40 -15 17 -14 16 -14 -23 -9 -29 5 -43 3 -43 -5 0 -6 7 -11
15 -11 8 0 14 -6 13 -12 -2 -7 5 -12 15 -11 12 0 16 -4 13 -12 -3 -9 0 -12 10
-8 17 6 18 -8 2 -27 -11 -12 -10 -12 5 -1 11 9 17 10 17 3 0 -7 8 -9 18 -5 15
6 16 5 2 -12 -14 -17 -13 -17 10 -10 l25 8 -20 -23 -20 -23 30 19 c26 17 28
17 23 2 -5 -12 -3 -15 8 -11 7 3 14 0 14 -7 0 -9 4 -9 13 -2 17 14 42 -1 32
-19 -6 -11 -5 -12 6 -1 20 19 31 14 24 -10 -7 -23 -7 -23 10 -3 11 13 18 16
21 8 3 -7 12 -9 20 -6 8 3 14 0 14 -7 0 -6 4 -9 9 -6 5 4 12 0 14 -6 4 -10 6
-10 6 0 1 19 21 14 22 -5 0 -11 3 -13 6 -5 2 6 16 12 29 12 13 0 24 -6 24 -12
0 -10 2 -10 8 -1 4 6 59 16 127 23 125 11 208 28 271 55 62 26 33 25 -56 -1
-114 -33 -307 -51 -397 -37 -118 19 -273 93 -281 135 -2 9 17 30 45 51 55 40
182 111 188 105 2 -2 -1 -22 -6 -44 -13 -51 1 -111 38 -154 92 -110 264 -86
328 45 21 42 26 63 21 90 -4 19 -4 35 -1 35 23 0 161 -85 207 -128 15 -14 30
-23 33 -20 8 8 -93 136 -123 155 -15 10 -30 22 -34 28 -4 5 -8 6 -8 1 0 -6 -7
-1 -15 10 -13 16 -16 17 -26 4 -8 -12 -10 -9 -6 13 4 24 -1 30 -32 46 -20 10
-44 17 -53 16 -10 -2 -22 4 -28 13 -5 10 -10 12 -10 7 0 -19 -59 -10 -75 10
-12 16 -14 17 -9 3 3 -10 1 -18 -5 -18 -6 0 -11 8 -12 18 0 14 -2 14 -9 -3 -5
-11 -9 -14 -9 -6 -1 11 -4 11 -16 1 -18 -15 -18 -14 -40 25 l-17 30 6 -33z
m117 -69 c13 -16 12 -17 -3 -4 -10 7 -18 15 -18 17 0 8 8 3 21 -13z m30 0 c13
-16 12 -17 -3 -4 -10 7 -18 15 -18 17 0 8 8 3 21 -13z m49 7 c0 -5 -2 -10 -4
-10 -3 0 -8 5 -11 10 -3 6 -1 10 4 10 6 0 11 -4 11 -10z m104 -35 c-4 -8 -10
-12 -15 -9 -11 6 -2 24 11 24 5 0 7 -7 4 -15z m-34 -5 c0 -5 -2 -10 -4 -10 -3
0 -8 5 -11 10 -3 6 -1 10 4 10 6 0 11 -4 11 -10z m-33 -42 c16 -13 27 -73 18
-95 -5 -10 -7 -21 -7 -25 1 -5 -6 -8 -15 -8 -14 0 -15 -2 -4 -9 34 -22 -51
-91 -120 -98 -32 -3 -39 -1 -40 14 -1 17 -2 17 -6 1 -4 -14 -8 -16 -24 -8 -10
6 -19 7 -19 3 0 -4 -4 -2 -9 6 -6 9 -4 23 7 40 14 20 14 23 2 16 -21 -13 -69
-15 -76 -4 -3 6 -1 16 6 24 9 11 7 12 -12 8 -17 -4 -20 -3 -13 5 6 7 25 14 42
18 29 6 32 4 28 -15 -2 -12 0 -19 6 -16 5 4 21 -3 35 -14 15 -12 37 -21 50
-21 15 0 29 -10 39 -27 15 -25 14 -16 -1 21 -9 23 35 27 47 4 6 -11 13 -18 16
-15 2 3 -2 15 -9 27 -11 18 -11 23 4 34 10 7 16 15 13 18 -3 2 6 11 20 18 31
17 32 30 2 30 -13 0 -28 5 -35 12 -13 13 -16 60 -5 71 8 8 42 -1 60 -15z
m-217 -5 c-1 -13 -24 -39 -40 -46 -12 -4 -11 -6 3 -6 10 -1 15 -5 12 -11 -3
-5 -23 -9 -43 -9 -20 1 -29 3 -19 6 18 5 18 5 0 19 -17 13 -17 13 6 14 16 0
21 4 18 14 -4 10 3 16 21 19 15 2 30 5 35 6 4 0 7 -2 7 -6z m-31 -87 c-2 -2
-20 -6 -39 -10 -25 -4 -31 -3 -20 4 14 9 69 15 59 6z m8 -106 c-1 -14 -5 -15
-18 -7 -20 12 -17 24 5 24 8 0 14 -8 13 -17z"/>
<path d="M4700 6315 c0 -2 19 -14 42 -26 22 -11 75 -55 116 -98 41 -42 69 -65
62 -51 -21 40 -122 136 -168 159 -42 22 -52 25 -52 16z"/>
<path d="M3566 6263 c-4 -27 -9 -57 -12 -68 -4 -16 -3 -17 5 -4 11 17 27 119
18 119 -2 0 -8 -21 -11 -47z"/>
<path d="M4163 6275 c-46 -20 -41 -24 12 -12 25 6 45 14 45 19 0 12 -20 9 -57
-7z"/>
<path d="M4941 6155 c0 -14 38 -59 45 -53 3 3 -6 19 -20 34 -14 16 -25 25 -25
19z"/>
<path d="M5142 5970 c0 -63 3 -124 8 -135 11 -26 12 156 1 210 -7 30 -9 12 -9
-75z"/>
<path d="M4908 5948 c7 -7 12 -21 12 -32 0 -15 3 -17 11 -9 15 15 2 53 -19 53
-12 0 -13 -3 -4 -12z"/>
<path d="M5173 5725 c0 -126 2 -173 7 -140 10 63 10 191 0 270 -5 41 -7 1 -7
-130z"/>
<path d="M3736 5363 c75 -137 141 -217 259 -316 41 -34 31 -21 -32 39 -107
104 -156 166 -213 269 -23 41 -44 75 -47 75 -2 0 12 -30 33 -67z"/>
<path d="M3690 5407 c0 -21 113 -217 126 -217 4 0 -2 12 -12 28 -10 15 -40 65
-66 112 -26 47 -48 81 -48 77z"/>
<path d="M3690 5356 c0 -11 50 -106 55 -106 3 0 -7 24 -21 53 -28 55 -34 65
-34 53z"/>
<path d="M3756 5227 c3 -10 9 -15 12 -12 3 3 0 11 -7 18 -10 9 -11 8 -5 -6z"/>
<path d="M3746 5182 c16 -29 39 -65 52 -80 12 -15 2 6 -22 47 -54 88 -71 107
-30 33z"/>
<path d="M3723 5155 c9 -16 23 -39 32 -50 9 -11 7 -2 -6 20 -27 49 -47 72 -26
30z"/>
<path d="M3845 5150 c10 -11 20 -20 23 -20 3 0 -3 9 -13 20 -10 11 -20 20 -23
20 -3 0 3 -9 13 -20z"/>
<path d="M3900 5085 c19 -19 36 -35 39 -35 3 0 -10 16 -29 35 -19 19 -36 35
-39 35 -3 0 10 -16 29 -35z"/>
<path d="M4996 5090 c-35 -42 -42 -91 -21 -145 20 -55 58 -83 121 -92 55 -7
55 11 0 21 -41 8 -91 60 -101 105 -9 40 1 84 26 116 29 36 6 31 -25 -5z"/>
<path d="M3855 5080 c10 -11 20 -20 23 -20 3 0 -3 9 -13 20 -10 11 -20 20 -23
20 -3 0 3 -9 13 -20z"/>
<path d="M3787 5049 c10 -17 24 -36 32 -42 8 -7 2 7 -14 31 -32 49 -45 57 -18
11z"/>
<path d="M3860 5020 c17 -22 37 -43 43 -47 6 -4 -6 14 -27 40 -21 26 -40 47
-43 47 -3 0 10 -18 27 -40z"/>
<path d="M3915 5010 c21 -22 41 -40 44 -40 3 0 -13 18 -34 40 -21 22 -41 40
-44 40 -3 0 13 -18 34 -40z"/>
<path d="M5215 5001 c3 -5 1 -11 -4 -13 -5 -1 2 -16 16 -33 l26 -30 -18 29
c-13 21 -14 30 -5 36 8 5 7 9 -5 13 -9 4 -14 3 -10 -2z"/>
<path d="M5063 4954 c-8 -21 9 -48 33 -53 16 -3 17 -1 5 13 -20 24 -6 46 29
46 31 0 43 -9 108 -87 15 -18 41 -35 57 -38 25 -5 23 -3 -12 14 -29 13 -48 32
-62 60 -26 49 -46 61 -106 61 -33 0 -47 -4 -52 -16z"/>
<path d="M3940 4925 c19 -19 36 -35 39 -35 3 0 -10 16 -29 35 -19 19 -36 35
-39 35 -3 0 10 -16 29 -35z"/>
<path d="M3995 4930 c10 -11 20 -20 23 -20 3 0 -3 9 -13 20 -10 11 -20 20 -23
20 -3 0 3 -9 13 -20z"/>
<path d="M5862 6653 c-37 -25 -149 -158 -174 -208 -15 -28 -8 -20 52 60 71 95
109 133 150 155 19 11 30 19 24 20 -6 0 -29 -12 -52 -27z"/>
<path d="M5666 6405 c-3 -9 -6 -22 -5 -28 0 -7 5 -1 10 12 5 13 8 26 5 28 -2
2 -6 -3 -10 -12z"/>
<path d="M5570 6379 c0 -5 5 -7 10 -4 6 3 10 8 10 11 0 2 -4 4 -10 4 -5 0 -10
-5 -10 -11z"/>
<path d="M5651 6344 c0 -11 3 -14 6 -6 3 7 2 16 -1 19 -3 4 -6 -2 -5 -13z"/>
<path d="M5684 5650 c9 -32 39 -101 43 -97 2 3 -8 29 -22 58 -14 30 -23 47
-21 39z"/>
<path d="M5984 5580 c-12 -5 -25 -13 -28 -19 -4 -6 10 -3 30 5 40 17 92 12
137 -11 15 -8 27 -10 27 -5 0 13 -77 40 -113 39 -17 0 -42 -4 -53 -9z"/>
<path d="M5984 5535 c-10 -8 -14 -15 -8 -15 6 0 17 7 24 15 16 19 9 19 -16 0z"/>
<path d="M6060 5536 c0 -2 11 -6 25 -8 13 -3 22 -1 19 3 -5 9 -44 13 -44 5z"/>
<path d="M5985 5510 c-10 -11 -21 -17 -25 -15 -11 7 -18 -16 -12 -37 6 -26 22
-22 22 5 0 37 19 -2 21 -43 1 -19 3 -27 6 -17 4 16 33 25 33 10 0 -5 4 -14 9
-21 7 -12 14 -11 39 2 36 19 52 44 52 81 0 28 -17 38 -86 48 -33 6 -44 3 -59
-13z m127 -36 c16 -10 8 -26 -12 -21 -11 3 -20 1 -20 -4 0 -5 5 -9 12 -9 6 0
3 -9 -7 -20 -22 -24 -35 -26 -35 -5 0 9 -7 30 -16 47 l-16 31 43 -7 c23 -4 46
-9 51 -12z"/>
<path d="M6302 5299 c-75 -14 -143 -59 -185 -119 -45 -67 -59 -90 -53 -90 2 0
27 31 54 69 69 94 121 123 254 140 55 7 57 8 18 9 -25 0 -64 -4 -88 -9z"/>
<path d="M5740 5292 c0 -7 -17 -31 -37 -54 -29 -33 -32 -39 -13 -27 28 18 66
76 56 86 -3 4 -6 1 -6 -5z"/>
<path d="M6458 5293 c6 -2 18 -2 25 0 6 3 1 5 -13 5 -14 0 -19 -2 -12 -5z"/>
<path d="M6310 5273 c-67 -23 -104 -50 -151 -111 l-51 -67 68 72 c38 40 83 77
99 84 17 6 66 15 110 19 l80 7 -70 1 c-38 0 -77 -2 -85 -5z"/>
<path d="M6254 5216 c-11 -8 -46 -45 -78 -83 -32 -37 -39 -48 -16 -23 23 25
60 62 82 83 42 39 47 47 12 23z"/>
<path d="M6261 5158 c-84 -94 -113 -128 -108 -128 3 0 37 36 77 80 40 44 70
80 66 80 -3 0 -19 -15 -35 -32z"/>
<path d="M6200 5130 c-17 -22 -29 -40 -27 -40 3 0 20 18 37 40 17 22 29 40 27
40 -3 0 -20 -18 -37 -40z"/>
<path d="M6016 5135 c-3 -9 -6 -24 -5 -33 0 -9 5 -4 10 12 9 32 6 48 -5 21z"/>
<path d="M6062 5035 c0 -16 2 -22 5 -12 2 9 2 23 0 30 -3 6 -5 -1 -5 -18z"/>
<path d="M5951 4874 c0 -11 3 -14 6 -6 3 7 2 16 -1 19 -3 4 -6 -2 -5 -13z"/>
<path d="M6062 4860 c0 -19 2 -27 5 -17 2 9 2 25 0 35 -3 9 -5 1 -5 -18z"/>
<path d="M5463 4820 c0 -30 2 -43 4 -27 2 15 2 39 0 55 -2 15 -4 2 -4 -28z"/>
<path d="M5980 4851 c0 -7 -4 -9 -10 -6 -16 10 -12 0 11 -26 l21 -24 -8 30
c-8 33 -14 45 -14 26z"/>
<path d="M5522 4820 c0 -14 2 -19 5 -12 2 6 2 18 0 25 -3 6 -5 1 -5 -13z"/>
<path d="M5881 4810 c0 -8 4 -24 9 -35 5 -13 9 -14 9 -5 0 8 -4 24 -9 35 -5
13 -9 14 -9 5z"/>
<path d="M5740 4805 c0 -5 5 -17 10 -25 5 -8 10 -10 10 -5 0 6 -5 17 -10 25
-5 8 -10 11 -10 5z"/>
<path d="M5782 4790 c0 -14 2 -19 5 -12 2 6 2 18 0 25 -3 6 -5 1 -5 -13z"/>
<path d="M6941 6774 c0 -11 3 -14 6 -6 3 7 2 16 -1 19 -3 4 -6 -2 -5 -13z"/>
<path d="M6932 6730 c0 -14 2 -19 5 -12 2 6 2 18 0 25 -3 6 -5 1 -5 -13z"/>
<path d="M6976 6704 c-9 -26 -16 -52 -15 -58 0 -6 9 13 20 43 10 30 17 56 15
58 -2 2 -11 -17 -20 -43z"/>
<path d="M7005 6617 c-10 -35 -14 -69 -9 -92 7 -41 9 -41 18 0 5 22 4 26 -4
15 -15 -23 -13 15 5 74 8 27 13 51 11 54 -3 2 -12 -21 -21 -51z"/>
<path d="M7039 6614 c-11 -26 -18 -49 -16 -51 2 -2 14 19 25 47 11 27 19 50
16 50 -3 0 -14 -21 -25 -46z"/>
<path d="M7399 6594 c8 -18 25 -38 39 -46 28 -14 42 -45 42 -90 0 -30 47 -125
57 -115 2 3 0 14 -6 25 -6 12 -11 35 -11 52 0 50 -27 101 -84 156 -49 48 -51
49 -37 18z"/>
<path d="M7092 6565 c-17 -37 -14 -45 4 -12 9 16 14 31 11 33 -2 2 -9 -7 -15
-21z"/>
<path d="M7036 6510 c-22 -56 -19 -65 5 -11 11 24 18 46 15 48 -2 2 -11 -14
-20 -37z"/>
<path d="M7160 6419 c-7 -11 -10 -23 -7 -25 2 -2 9 7 15 21 14 30 7 33 -8 4z"/>
<path d="M7228 6328 c-33 -51 -67 -126 -72 -164 -5 -32 -3 -29 12 18 11 31 34
82 51 112 31 56 36 76 9 34z"/>
<path d="M7152 6315 c-17 -37 -14 -45 4 -12 9 16 14 31 11 33 -2 2 -9 -7 -15
-21z"/>
<path d="M7169 6284 c-12 -25 -19 -48 -16 -50 2 -2 14 18 25 46 26 63 18 66
-9 4z"/>
<path d="M7220 6249 c-12 -23 -20 -43 -18 -45 3 -2 14 17 26 41 27 56 20 60
-8 4z"/>
<path d="M7226 6180 c-9 -22 -16 -55 -15 -73 1 -26 3 -21 13 23 7 30 16 63 21
73 4 9 5 17 2 17 -3 0 -12 -18 -21 -40z"/>
<path d="M7191 6174 c0 -11 3 -14 6 -6 3 7 2 16 -1 19 -3 4 -6 -2 -5 -13z"/>
<path d="M7183 6110 c0 -25 2 -35 4 -22 2 12 2 32 0 45 -2 12 -4 2 -4 -23z"/>
<path d="M7142 6090 c0 -19 2 -27 5 -17 2 9 2 25 0 35 -3 9 -5 1 -5 -18z"/>
<path d="M7246 6084 c-4 -20 -5 -38 -3 -40 3 -3 8 11 11 32 4 20 5 38 3 40 -3
3 -8 -11 -11 -32z"/>
<path d="M7286 6105 c-9 -26 -7 -32 5 -12 6 10 9 21 6 23 -2 3 -7 -2 -11 -11z"/>
<path d="M7184 5970 c2 -52 7 -104 11 -114 6 -14 5 -17 -3 -12 -7 4 -12 1 -12
-8 0 -9 8 -14 20 -13 11 1 20 2 20 3 0 0 -5 15 -11 32 -6 17 -14 71 -19 119
l-9 88 3 -95z"/>
<path d="M7203 5995 c0 -33 2 -45 4 -27 2 18 2 45 0 60 -2 15 -4 0 -4 -33z"/>
<path d="M7291 6000 c-6 -28 -11 -63 -10 -78 0 -15 7 7 14 48 16 85 13 107 -4
30z"/>
<path d="M7151 6024 c0 -11 3 -14 6 -6 3 7 2 16 -1 19 -3 4 -6 -2 -5 -13z"/>
<path d="M7262 5945 c0 -16 2 -22 5 -12 2 9 2 23 0 30 -3 6 -5 -1 -5 -18z"/>
<path d="M7211 5913 c-1 -18 49 -142 61 -149 5 -3 2 8 -7 25 -9 18 -13 42 -10
54 4 16 4 18 -3 8 -7 -10 -14 -2 -25 30 -8 24 -16 38 -16 32z"/>
<path d="M7242 5900 c0 -14 2 -19 5 -12 2 6 2 18 0 25 -3 6 -5 1 -5 -13z"/>
<path d="M7360 5756 c0 -2 8 -10 18 -17 15 -13 16 -12 3 4 -13 16 -21 21 -21
13z"/>
<path d="M3230 5933 c0 -5 -9 -60 -20 -123 -21 -120 -24 -158 -14 -147 17 16
54 277 40 277 -3 0 -6 -3 -6 -7z"/>
<path d="M3186 5863 c-9 -27 -25 -88 -36 -138 -12 -49 -23 -99 -26 -110 -3
-15 -1 -13 10 6 21 35 83 289 72 289 -3 0 -11 -21 -20 -47z"/>
<path d="M6645 5650 c-3 -5 1 -10 10 -10 9 0 13 5 10 10 -3 6 -8 10 -10 10 -2
0 -7 -4 -10 -10z"/>
<path d="M7098 5463 c7 -3 16 -2 19 1 4 3 -2 6 -13 5 -11 0 -14 -3 -6 -6z"/>
<path d="M3402 5570 c-1 -58 7 -101 33 -190 19 -63 45 -151 57 -195 l23 -80 3
49 c3 43 -16 119 -49 201 -16 40 -41 141 -54 215 l-13 75 0 -75z"/>
<path d="M3530 5296 c0 -3 14 -25 30 -48 32 -44 39 -44 16 1 -14 27 -46 60
-46 47z"/>
<path d="M3590 5280 c6 -11 13 -20 16 -20 2 0 0 9 -6 20 -6 11 -13 20 -16 20
-2 0 0 -9 6 -20z"/>
<path d="M7045 5310 c-10 -11 -16 -22 -13 -25 3 -3 13 6 22 20 20 30 16 32 -9
5z"/>
<path d="M6778 5171 c-8 -12 -18 -18 -23 -13 -5 4 -5 1 -1 -6 4 -7 -2 -25 -13
-41 -24 -33 -29 -55 -6 -25 19 26 19 18 -5 -44 -11 -29 -20 -58 -20 -65 1 -6
12 16 25 49 13 34 36 80 51 103 19 29 24 45 17 52 -7 7 -15 4 -25 -10z m2 -36
c-12 -20 -24 -34 -27 -31 -2 2 6 20 19 39 30 46 37 39 8 -8z"/>
<path d="M6870 5189 c0 -17 -50 -120 -50 -104 l-1 20 -9 -20 c-12 -28 -11 -56
1 -30 6 14 8 3 4 -35 l-4 -55 14 63 c8 35 24 84 35 109 11 25 18 48 15 51 -3
3 -5 3 -5 1z"/>
<path d="M6871 5130 c-23 -54 -45 -153 -38 -173 2 -7 7 13 12 43 4 30 18 82
31 115 29 73 25 85 -5 15z"/>
<path d="M6675 5069 c-4 -6 -5 -12 -2 -15 2 -3 7 2 10 11 7 17 1 20 -8 4z"/>
<path d="M6791 5014 c0 -11 3 -14 6 -6 3 7 2 16 -1 19 -3 4 -6 -2 -5 -13z"/>
<path d="M6731 4964 c-6 -21 -9 -40 -6 -42 2 -2 8 13 14 34 6 21 9 40 6 42 -2
2 -8 -13 -14 -34z"/>
<path d="M6781 4974 c0 -11 3 -14 6 -6 3 7 2 16 -1 19 -3 4 -6 -2 -5 -13z"/>
<path d="M6676 4955 c-3 -9 -6 -24 -5 -33 0 -9 5 -4 10 12 9 32 6 48 -5 21z"/>
<path d="M6801 4944 c0 -11 3 -14 6 -6 3 7 2 16 -1 19 -3 4 -6 -2 -5 -13z"/>
<path d="M6691 4914 c0 -11 3 -14 6 -6 3 7 2 16 -1 19 -3 4 -6 -2 -5 -13z"/>
<path d="M6662 4880 c0 -14 2 -19 5 -12 2 6 2 18 0 25 -3 6 -5 1 -5 -13z"/>
<path d="M6681 4854 c0 -11 3 -14 6 -6 3 7 2 16 -1 19 -3 4 -6 -2 -5 -13z"/>
<path d="M6366 4515 c-9 -26 -7 -32 5 -12 6 10 9 21 6 23 -2 3 -7 -2 -11 -11z"/>
<path d="M6747 4402 c-10 -63 -16 -116 -14 -119 7 -7 39 181 35 208 -1 13 -11
-27 -21 -89z"/>
<path d="M6720 4469 c0 -20 -3 -58 -7 -85 -5 -36 -8 -43 -14 -29 -6 15 -8 9
-8 -21 -1 -22 -8 -63 -16 -89 -8 -27 -13 -51 -11 -53 2 -2 11 18 19 45 47 151
61 230 46 254 -6 10 -9 2 -9 -22z"/>
<path d="M6402 4450 c0 -14 2 -19 5 -12 2 6 2 18 0 25 -3 6 -5 1 -5 -13z"/>
<path d="M6392 4390 c0 -19 2 -27 5 -17 2 9 2 25 0 35 -3 9 -5 1 -5 -18z"/>
<path d="M5760 4310 c-12 -8 -11 -10 8 -10 12 0 22 5 22 10 0 13 -11 13 -30 0z"/>
<path d="M6631 4295 c-2 -43 -21 -106 -30 -101 -4 3 -8 -11 -8 -32 l-1 -37 19
40 c21 45 33 113 26 141 -3 12 -5 8 -6 -11z"/>
<path d="M6602 4245 c0 -16 2 -22 5 -12 2 9 2 23 0 30 -3 6 -5 -1 -5 -18z"/>
<path d="M6551 4171 c-7 -35 -15 -70 -18 -80 -4 -14 -3 -14 6 -1 13 18 34 116
29 132 -3 7 -10 -16 -17 -51z"/>
<path d="M6497 4103 c-8 -32 -14 -59 -12 -61 2 -2 11 21 20 53 9 31 15 58 13
61 -3 2 -12 -22 -21 -53z"/>
<path d="M6430 4056 c-15 -39 -23 -76 -17 -76 7 0 38 92 32 98 -2 3 -9 -7 -15
-22z"/>
<path d="M6367 3994 c-9 -25 -12 -42 -7 -39 10 6 34 74 28 80 -2 2 -11 -16
-21 -41z"/>
<path d="M6306 3944 c-15 -31 -25 -58 -23 -60 2 -2 16 21 32 51 15 31 26 58
23 60 -2 2 -16 -21 -32 -51z"/>
<path d="M6186 3859 c-9 -29 -14 -54 -12 -57 3 -2 12 20 20 49 9 29 14 54 12
57 -3 2 -12 -20 -20 -49z"/>
<path d="M6136 3838 c-3 -13 -5 -39 -5 -58 1 -27 3 -22 9 20 9 58 7 77 -4 38z"/>
<path d="M6002 3713 c-15 -48 -8 -55 8 -8 7 20 10 38 8 41 -3 2 -10 -13 -16
-33z"/>
<path d="M5921 3633 c-1 -6 -4 -20 -7 -30 -5 -17 -5 -17 6 0 6 10 9 23 6 30
-3 9 -5 9 -5 0z"/>
<path d="M5815 3529 c-4 -6 -5 -12 -2 -15 2 -3 7 2 10 11 7 17 1 20 -8 4z"/>
<path d="M6048 3563 c12 -2 30 -2 40 0 9 3 -1 5 -23 4 -22 0 -30 -2 -17 -4z"/>
<path d="M6118 3553 c7 -3 16 -2 19 1 4 3 -2 6 -13 5 -11 0 -14 -3 -6 -6z"/>
<path d="M6233 3533 c-15 -5 -17 -23 -4 -23 5 0 11 7 15 15 3 8 4 15 3 14 -1
0 -8 -3 -14 -6z"/>
<path d="M6276 3465 c-9 -26 -7 -32 5 -12 6 10 9 21 6 23 -2 3 -7 -2 -11 -11z"/>
<path d="M5939 3442 c6 -12 16 -24 22 -28 8 -4 8 -1 0 14 -6 12 -16 24 -22 28
-8 4 -8 1 0 -14z"/>
<path d="M6261 3398 c1 -18 2 -19 6 -5 2 9 9 15 14 12 5 -4 9 -1 9 4 0 6 -7
11 -15 11 -9 0 -15 -9 -14 -22z"/>
<path d="M5800 3371 c0 -6 4 -13 10 -16 6 -3 7 1 4 9 -7 18 -14 21 -14 7z"/>
<path d="M5791 3345 c0 -5 6 -21 14 -35 8 -14 14 -20 14 -15 0 6 -6 21 -14 35
-8 14 -14 21 -14 15z"/>
<path d="M5879 3332 c6 -12 16 -24 22 -28 8 -4 8 -1 0 14 -6 12 -16 24 -22 28
-8 4 -8 1 0 -14z"/>
<path d="M5919 3315 c17 -33 31 -51 31 -40 0 6 -10 21 -21 35 -13 17 -17 18
-10 5z"/>
<path d="M6655 3260 c-16 -7 -17 -9 -3 -9 9 -1 20 4 23 9 7 11 7 11 -20 0z"/>
<path d="M6265 3259 c-4 -6 -5 -12 -2 -15 2 -3 7 2 10 11 7 17 1 20 -8 4z"/>
<path d="M5880 3175 c7 -9 15 -13 17 -11 7 7 -7 26 -19 26 -6 0 -6 -6 2 -15z"/>
<path d="M5918 3173 c7 -3 16 -2 19 1 4 3 -2 6 -13 5 -11 0 -14 -3 -6 -6z"/>
<path d="M5884 3145 c22 -17 40 -20 32 -6 -3 5 -16 11 -28 14 -22 6 -22 5 -4
-8z"/>
<path d="M5770 3109 c0 -4 7 -22 15 -40 8 -19 14 -27 14 -19 0 14 -28 72 -29
59z"/>
<path d="M6289 3013 c-13 -16 -12 -17 4 -4 9 7 17 15 17 17 0 8 -8 3 -21 -13z"/>
<path d="M6335 3019 c-11 -17 1 -21 15 -4 8 9 8 15 2 15 -6 0 -14 -5 -17 -11z"/>
<path d="M5872 2950 c9 -27 28 -50 28 -35 0 9 -30 65 -35 65 -2 0 1 -14 7 -30z"/>
<path d="M6460 3010 c0 -5 7 -10 15 -10 8 0 15 5 15 10 0 6 -7 10 -15 10 -8 0
-15 -4 -15 -10z"/>
<path d="M6470 2930 c0 -5 5 -10 11 -10 5 0 7 5 4 10 -3 6 -8 10 -11 10 -2 0
-4 -4 -4 -10z"/>
<path d="M6500 2899 c0 -5 5 -7 10 -4 6 3 10 -1 10 -9 0 -9 5 -16 10 -16 6 0
10 9 10 20 0 13 -7 20 -20 20 -11 0 -20 -5 -20 -11z"/>
<path d="M6315 2900 c-3 -5 -1 -10 4 -10 6 0 11 5 11 10 0 6 -2 10 -4 10 -3 0
-8 -4 -11 -10z"/>
<path d="M6361 2882 c-17 -31 -13 -40 5 -14 9 13 14 26 11 29 -3 2 -10 -4 -16
-15z"/>
<path d="M6307 2863 c-4 -3 -7 -11 -7 -17 0 -6 5 -5 12 2 6 6 9 14 7 17 -3 3
-9 2 -12 -2z"/>
<path d="M6268 2843 c7 -3 16 -2 19 1 4 3 -2 6 -13 5 -11 0 -14 -3 -6 -6z"/>
<path d="M5905 2830 c3 -5 11 -10 16 -10 6 0 7 5 4 10 -3 6 -11 10 -16 10 -6
0 -7 -4 -4 -10z"/>
<path d="M5820 2650 c6 -11 13 -20 16 -20 2 0 0 9 -6 20 -6 11 -13 20 -16 20
-2 0 0 -9 6 -20z"/>
<path d="M5820 2611 c5 -11 15 -23 21 -27 6 -3 3 5 -6 20 -20 30 -30 35 -15 7z"/>
<path d="M6360 2506 c-15 -41 -10 -56 6 -17 8 18 13 36 10 39 -3 2 -10 -7 -16
-22z"/>
<path d="M5840 2507 c0 -2 15 -16 33 -33 l32 -29 -29 33 c-28 30 -36 37 -36
29z"/>
<path d="M6300 2490 c-13 -8 -13 -10 2 -10 9 0 20 5 23 10 8 13 -5 13 -25 0z"/>
<path d="M6364 2444 c-11 -24 -17 -41 -12 -38 12 7 40 64 36 73 -2 4 -12 -12
-24 -35z"/>
<path d="M6148 2463 c6 -2 18 -2 25 0 6 3 1 5 -13 5 -14 0 -19 -2 -12 -5z"/>
<path d="M6430 2432 c0 -6 -7 -18 -16 -27 -9 -9 -14 -18 -11 -21 3 -3 13 6 23
20 9 15 14 29 10 33 -3 3 -6 1 -6 -5z"/>
<path d="M6696 2485 c-11 -8 -15 -15 -9 -15 6 0 16 7 23 15 16 19 11 19 -14 0z"/>
<path d="M5535 8500 c-4 -6 14 -10 47 -10 38 0 49 3 38 10 -20 13 -77 13 -85
0z"/>
<path d="M5760 8482 c0 -15 116 -52 185 -58 36 -4 77 -16 103 -31 62 -35 64
-20 3 17 -28 18 -51 38 -51 45 0 7 -7 18 -16 26 -13 11 -14 9 -9 -14 7 -25 5
-27 -22 -27 -26 0 -136 28 -175 45 -11 4 -18 3 -18 -3z"/>
<path d="M5990 8356 c0 -3 27 -21 60 -41 33 -20 84 -58 112 -84 29 -26 68 -53
87 -59 19 -7 43 -20 53 -29 10 -9 21 -13 25 -9 10 10 -34 44 -72 55 -16 5 -53
31 -82 58 -56 53 -183 129 -183 109z"/>
<path d="M6380 8338 c0 -27 51 -70 137 -116 44 -24 85 -53 90 -65 6 -12 17
-38 26 -57 l16 -35 -6 33 c-3 17 -2 32 1 32 18 0 75 -36 108 -68 21 -20 40
-33 43 -30 11 11 -44 64 -91 87 -27 13 -60 34 -74 46 -14 13 -66 48 -117 79
-50 31 -101 69 -112 84 -15 20 -20 23 -21 10z"/>
<path d="M5610 8321 c0 -6 9 -11 20 -11 12 0 39 -9 62 -21 51 -26 33 -46 -20
-23 -48 20 -64 17 -24 -4 l33 -18 -37 -17 c-20 -10 -34 -20 -31 -24 3 -3 27 5
53 17 73 36 133 38 188 7 44 -25 59 -24 34 1 -9 9 -4 12 25 12 20 0 37 5 37
11 0 7 -19 10 -52 8 -68 -4 -122 7 -178 36 -55 28 -110 41 -110 26z"/>
<path d="M6300 8279 c43 -43 49 -59 25 -59 -8 0 -15 -4 -15 -10 0 -5 13 -7 28
-4 37 7 107 -26 167 -78 25 -22 48 -38 51 -36 9 10 -97 100 -140 119 -24 10
-63 39 -88 64 -25 25 -51 45 -57 45 -7 0 6 -18 29 -41z"/>
<path d="M6068 8063 c62 -42 74 -55 93 -100 11 -29 22 -67 22 -85 2 -31 -1
-33 -38 -41 -115 -23 -173 -40 -212 -63 -67 -39 -50 -46 21 -9 36 18 86 36
113 40 26 3 67 11 91 17 58 15 124 -5 169 -50 19 -19 37 -31 40 -28 10 10 -73
85 -103 92 -41 10 -54 22 -54 53 0 14 -9 46 -21 70 -15 35 -17 46 -7 53 44 27
171 -3 225 -54 13 -12 26 -19 29 -15 10 10 -35 46 -95 74 -48 23 -61 25 -124
19 -63 -6 -72 -4 -101 17 -38 29 -91 57 -108 57 -7 0 20 -21 60 -47z"/>
<path d="M6530 7994 c0 -3 11 -15 25 -26 14 -11 25 -24 25 -29 0 -14 72 -99
83 -99 10 0 -52 89 -92 133 -23 25 -41 35 -41 21z"/>
<path d="M6710 7972 c0 -7 14 -34 31 -61 25 -41 29 -56 23 -85 -4 -24 -2 -36
5 -36 6 0 11 7 11 15 0 9 9 15 22 15 l21 0 -19 23 c-11 12 -29 41 -39 64 -18
43 -55 86 -55 65z"/>
<path d="M6797 7973 c-5 -9 73 -117 79 -110 5 5 -63 117 -71 117 -2 0 -6 -3
-8 -7z"/>
<path d="M6556 7813 c40 -67 42 -75 12 -64 -13 5 -34 4 -47 -1 -13 -5 -25 -7
-26 -6 -34 52 -54 72 -86 88 -21 11 -39 16 -39 10 0 -5 17 -18 38 -29 47 -24
73 -77 75 -150 1 -28 5 -51 10 -51 4 0 7 1 7 3 1 1 3 20 6 42 9 77 13 85 39
85 28 0 85 -47 114 -93 10 -18 32 -83 47 -146 23 -94 26 -121 17 -153 -14 -51
3 -49 18 3 11 36 9 54 -16 157 -16 65 -33 125 -38 136 -7 14 -4 24 11 39 20
20 21 20 58 0 52 -27 98 -117 97 -189 0 -41 3 -51 16 -50 9 1 22 -13 30 -31 8
-18 19 -33 23 -33 13 0 -1 39 -24 73 -11 15 -21 43 -24 62 -15 123 -134 240
-184 180 -14 -17 -40 -20 -40 -5 0 9 -58 105 -95 158 -33 46 -32 20 1 -35z"/>
<path d="M6834 7790 c3 -8 12 -37 21 -65 9 -27 31 -68 50 -90 38 -44 49 -33
12 12 -13 15 -29 47 -35 70 -7 22 -21 52 -33 65 -11 12 -18 16 -15 8z"/>
<path d="M6990 7674 c0 -16 74 -138 77 -127 2 6 -10 36 -27 67 -30 52 -50 77
-50 60z"/>
<path d="M5820 7621 c0 -6 5 -13 10 -16 13 -8 35 -53 44 -88 6 -25 3 -29 -31
-44 -24 -10 -60 -16 -97 -14 -60 2 -126 -22 -186 -68 -48 -37 -12 -32 41 6 49
35 59 38 126 40 41 1 93 9 117 18 40 15 46 15 74 1 16 -8 42 -30 56 -47 15
-17 29 -29 33 -26 10 11 -27 56 -66 81 -27 17 -40 34 -45 56 -9 48 -76 136
-76 101z"/>
<path d="M6343 7565 c-12 -22 -34 -49 -50 -61 -17 -13 -33 -38 -41 -65 -24
-82 -64 -141 -122 -182 -53 -38 -57 -39 -119 -33 -57 5 -67 9 -92 38 -20 23
-28 28 -29 17 0 -9 7 -22 15 -29 8 -7 15 -20 15 -29 0 -18 -40 -60 -75 -79
-19 -11 -19 -11 4 -12 15 0 38 15 63 41 37 39 41 41 83 35 50 -8 62 -19 66
-61 4 -53 0 -64 -32 -80 -16 -9 -62 -47 -102 -84 -40 -38 -90 -78 -112 -89
-22 -12 -34 -21 -27 -22 28 -1 100 46 163 105 88 83 144 109 230 109 51 -1 76
-6 103 -23 20 -13 36 -19 36 -14 0 5 -19 20 -42 33 -35 20 -56 24 -114 23
l-72 -2 -7 45 c-3 24 -3 48 0 54 3 6 34 29 67 51 53 36 65 50 94 115 19 40 34
79 34 86 0 8 14 27 31 44 35 33 62 80 56 97 -2 7 -13 -6 -24 -28z"/>
<path d="M6591 7428 c-20 -155 -44 -186 -151 -195 l-61 -6 7 42 c9 58 -11 53
-25 -6 -8 -33 -22 -57 -44 -75 -44 -38 -19 -35 28 2 21 17 45 28 53 25 8 -3
42 0 75 6 53 11 61 10 72 -4 18 -25 28 -21 21 9 -4 16 -1 35 8 48 22 34 42
115 45 177 4 91 -14 76 -28 -23z"/>
<path d="M7028 7435 c5 -88 -2 -100 -61 -108 -23 -3 -63 -15 -89 -26 -26 -12
-51 -22 -55 -21 -4 0 -7 17 -6 38 l2 37 -14 -30 c-8 -16 -14 -38 -15 -47 0
-10 -21 -41 -47 -70 -56 -63 -128 -161 -154 -208 -49 -90 -69 -116 -95 -127
l-29 -12 27 -1 c22 0 35 10 62 48 19 26 41 58 48 72 24 48 72 116 137 193 62
75 67 79 99 73 29 -4 32 -3 22 10 -10 12 -4 18 36 36 27 12 74 24 104 26 46 3
60 0 84 -19 37 -29 66 -93 66 -146 0 -24 5 -43 10 -43 6 0 10 14 10 30 0 23 5
30 19 30 25 0 56 -77 48 -120 -4 -16 -3 -30 2 -30 5 0 11 16 14 35 10 59 -26
135 -63 135 -10 0 -23 17 -34 43 -24 54 -44 77 -81 92 -27 12 -29 16 -27 61 2
39 9 54 30 73 16 15 20 22 10 18 -10 -4 -25 -10 -33 -13 -10 -4 -15 0 -15 14
0 12 -4 23 -8 26 -5 3 -7 -28 -4 -69z"/>
<path d="M5640 7263 c0 -5 5 -15 10 -23 7 -11 4 -19 -13 -32 -12 -9 -19 -20
-15 -23 4 -4 19 4 33 18 23 21 25 28 16 46 -11 20 -31 29 -31 14z"/>
<path d="M7056 7079 c-8 -61 -33 -128 -55 -150 -10 -11 -41 -19 -87 -22 l-71
-6 14 50 c8 28 12 58 8 67 -5 12 -11 2 -19 -34 -7 -28 -23 -67 -35 -87 -12
-21 -21 -37 -19 -37 2 0 21 7 43 15 55 20 144 20 151 0 9 -23 24 -18 24 10 0
13 11 41 25 61 14 20 25 43 25 50 0 7 14 16 32 19 26 6 35 3 50 -15 20 -25 23
-65 8 -105 -8 -20 -7 -26 2 -23 17 6 31 66 23 105 -7 37 -29 53 -76 53 l-32 0
6 45 c4 24 3 46 -2 49 -5 3 -12 -17 -15 -45z"/>
<path d="M4101 3910 c0 -8 4 -22 9 -30 12 -18 12 -2 0 25 -6 13 -9 15 -9 5z"/>
<path d="M4140 3810 c6 -11 13 -20 16 -20 2 0 0 9 -6 20 -6 11 -13 20 -16 20
-2 0 0 -9 6 -20z"/>
<path d="M4246 3725 c26 -49 51 -94 57 -100 14 -16 -69 147 -88 170 -8 11 5
-20 31 -70z"/>
<path d="M4205 3708 c26 -43 49 -78 51 -78 9 0 -45 94 -72 125 -13 17 -4 -5
21 -47z"/>
<path d="M4028 3745 c-4 -16 -16 -84 -28 -150 -25 -146 -69 -313 -110 -420
-37 -94 -113 -239 -144 -275 -12 -14 -31 -38 -40 -55 -36 -60 63 46 112 119
92 139 170 373 207 623 16 112 18 224 3 158z"/>
<path d="M4350 3630 c39 -77 72 -140 74 -140 6 0 -64 148 -104 223 -58 106
-41 58 30 -83z"/>
<path d="M4400 3666 c0 -24 138 -290 196 -379 72 -110 180 -253 210 -277 10
-8 -9 19 -42 60 -121 152 -218 305 -289 460 -49 104 -75 152 -75 136z"/>
<path d="M4495 3600 c12 -42 94 -190 153 -275 60 -86 153 -205 160 -205 2 0 0
6 -6 13 -93 116 -206 286 -266 402 -26 50 -44 79 -41 65z"/>
<path d="M4586 3533 c58 -102 113 -180 158 -228 l47 -50 -48 60 c-26 33 -76
106 -111 163 -63 102 -98 143 -46 55z"/>
<path d="M4710 3441 c5 -11 15 -23 21 -27 6 -3 3 5 -6 20 -20 30 -30 35 -15 7z"/>
<path d="M4914 3401 c4 -5 21 -20 39 -32 l32 -23 -20 23 c-22 25 -62 51 -51
32z"/>
<path d="M4758 3375 c11 -16 44 -52 73 -80 49 -46 49 -45 -11 20 -85 94 -86
95 -62 60z"/>
<path d="M4840 3375 c13 -14 26 -25 28 -25 3 0 -5 11 -18 25 -13 14 -26 25
-28 25 -3 0 5 -11 18 -25z"/>
<path d="M4890 3336 c0 -2 8 -10 18 -17 15 -13 16 -12 3 4 -13 16 -21 21 -21
13z"/>
<path d="M5004 3331 c7 -11 46 -35 46 -28 0 3 -12 12 -26 22 -15 9 -23 12 -20
6z"/>
<path d="M5090 3336 c0 -2 7 -7 16 -10 8 -3 12 -2 9 4 -6 10 -25 14 -25 6z"/>
<path d="M5180 3330 c8 -5 22 -9 30 -9 10 0 8 3 -5 9 -27 12 -43 12 -25 0z"/>
<path d="M4830 2976 c0 -2 8 -10 18 -17 15 -13 16 -12 3 4 -13 16 -21 21 -21
13z"/>
<path d="M6829 2641 c11 -7 10 -10 -5 -13 -10 -2 60 -7 158 -11 191 -7 283
-22 423 -68 329 -109 514 -288 616 -596 17 -51 29 -73 40 -73 14 0 15 6 9 33
-11 44 -35 108 -56 148 -15 31 -15 33 -1 20 10 -7 17 -9 17 -3 0 5 -7 15 -15
22 -8 7 -15 19 -15 26 0 8 -4 14 -8 14 -7 0 -20 21 -40 64 -3 5 0 6 7 2 6 -4
11 -3 11 1 0 5 -10 13 -22 18 -12 6 -23 16 -26 23 -6 19 28 14 35 -5 6 -15 8
-14 13 6 6 25 35 37 46 19 4 -6 -2 -18 -12 -26 -15 -12 -16 -14 -2 -9 13 4 20
-3 28 -29 7 -20 14 -34 16 -31 2 2 0 17 -5 33 -22 69 -22 80 3 92 27 12 36 7
36 -21 0 -22 30 -90 37 -83 2 2 -2 17 -10 33 -8 15 -17 42 -18 58 -4 27 -1 31
32 39 28 7 50 4 98 -12 62 -21 75 -18 44 10 -58 51 -141 53 -263 8 -47 -17
-92 -32 -101 -33 -13 -2 -139 105 -139 117 0 1 56 18 125 36 69 19 121 38 117
42 -11 11 -102 -2 -102 -14 0 -6 -6 -8 -14 -5 -8 3 -48 -3 -91 -14 l-76 -20
-47 29 c-105 64 -221 109 -380 147 -81 20 -106 23 -121 14 -14 -10 -23 -9 -42
4 -25 18 -94 24 -84 7 4 -6 -30 -10 -94 -10 -61 0 -101 4 -101 10 0 6 -8 10
-17 10 -15 0 -15 -2 -4 -9z"/>
<path d="M8563 2566 c-16 -13 -35 -35 -42 -49 -16 -29 -69 -56 -79 -40 -4 5
-23 15 -41 22 -28 9 -38 9 -49 -3 -12 -11 -10 -14 15 -20 15 -4 65 -18 111
-32 70 -21 86 -30 102 -57 26 -41 25 -78 -1 -110 -37 -48 -108 -56 -214 -22
-14 4 -12 2 5 -9 14 -8 47 -20 74 -27 28 -7 43 -15 36 -19 -6 -4 -11 -11 -10
-16 1 -5 -9 -12 -22 -16 -13 -3 -17 -6 -10 -7 17 -1 15 -21 -3 -21 -8 0 -14
-3 -13 -7 4 -15 -13 -53 -23 -53 -6 0 -8 -4 -4 -10 7 -11 -38 -6 -75 8 -14 5
-49 28 -78 51 -28 23 -52 36 -52 29 0 -6 -12 -1 -27 13 -16 13 -8 2 17 -24 25
-27 54 -53 65 -58 11 -6 4 3 -15 20 -53 46 -23 36 44 -14 53 -40 74 -50 99
-46 4 0 7 -3 7 -8 0 -5 -21 -9 -46 -9 -54 -1 -78 13 -162 98 -31 30 -50 46
-44 35 26 -49 149 -145 185 -145 20 0 24 -4 20 -19 -3 -11 -12 -22 -20 -25 -8
-3 -12 -10 -9 -15 3 -5 -9 -12 -27 -16 l-32 -8 30 -6 c27 -6 24 -8 -24 -14
-60 -7 -125 14 -168 55 -13 12 -23 17 -23 11 0 -16 31 -40 88 -66 29 -14 49
-26 43 -28 -6 -2 28 -4 76 -4 77 0 87 2 94 20 7 18 8 18 9 -5 0 -18 6 -9 20
30 22 62 25 82 9 60 -9 -13 -10 -13 -6 0 2 8 10 14 16 12 7 -1 11 3 10 10 -1
7 -1 20 0 28 1 12 3 12 11 -2 7 -11 5 -29 -8 -60 -19 -44 -37 -107 -29 -98 3
3 14 31 25 62 27 76 75 143 129 182 72 50 81 59 34 34 -24 -13 -66 -48 -94
-78 -28 -30 -47 -46 -43 -35 5 11 9 25 9 32 0 7 3 11 6 10 3 0 22 15 42 34 19
18 80 58 134 87 53 30 118 69 144 86 41 29 81 50 81 43 0 -2 -52 -36 -115 -77
-63 -40 -113 -76 -110 -78 2 -2 65 28 140 66 74 39 133 67 130 61 -4 -5 -1 -9
4 -9 7 0 11 29 11 75 0 55 -3 74 -12 72 -8 -1 -14 11 -16 29 -2 18 -11 39 -20
47 -24 20 -119 50 -142 44 -11 -3 -24 1 -31 9 -20 24 -103 18 -136 -10z m219
-44 c67 -27 68 -28 68 -65 0 -28 -8 -46 -33 -73 -32 -36 -33 -36 -67 -22 -19
8 -50 27 -67 42 -18 15 -33 23 -33 18 0 -11 65 -57 99 -70 l23 -8 -24 -16
c-14 -9 -33 -18 -44 -20 -10 -2 -25 -10 -32 -18 -9 -10 -11 -11 -6 -1 4 8 2
12 -5 10 -7 -3 -11 -7 -9 -10 4 -8 -22 -39 -33 -39 -5 0 -3 13 6 30 31 60 6
134 -57 166 -18 9 -34 18 -36 19 -9 8 46 76 68 85 37 14 106 4 182 -28z m-252
-326 c0 -11 -19 -15 -25 -6 -3 5 1 10 9 10 9 0 16 -2 16 -4z"/>
<path d="M8655 2470 c10 -11 20 -20 23 -20 3 0 -3 9 -13 20 -10 11 -20 20 -23
20 -3 0 3 -9 13 -20z"/>
<path d="M8590 2473 c0 -5 9 -18 20 -28 11 -10 20 -14 20 -8 0 5 -9 18 -20 28
-11 10 -20 14 -20 8z"/>
<path d="M8635 2460 c10 -11 20 -20 23 -20 3 0 -3 9 -13 20 -10 11 -20 20 -23
20 -3 0 3 -9 13 -20z"/>
<path d="M8726 2437 c3 -10 9 -15 12 -12 3 3 0 11 -7 18 -10 9 -11 8 -5 -6z"/>
<path d="M8700 2416 c0 -2 8 -10 18 -17 15 -13 16 -12 3 4 -13 16 -21 21 -21
13z"/>
<path d="M8744 2393 c2 -10 11 -20 22 -22 19 -3 19 -3 0 18 -23 26 -25 26 -22
4z"/>
<path d="M8654 2378 c-4 -7 -4 -10 0 -6 5 4 18 -5 31 -20 13 -15 26 -24 29
-21 3 3 -7 18 -23 33 -22 21 -31 25 -37 14z"/>
<path d="M8029 2511 c11 -7 11 -9 0 -14 -8 -3 -3 -5 11 -6 14 0 34 4 44 8 18
7 18 8 -5 14 -36 10 -67 9 -50 -2z"/>
<path d="M7053 2319 c-119 -11 -230 -34 -473 -95 -206 -52 -323 -75 -475 -90
-38 -4 -63 -9 -55 -10 25 -5 757 -43 1035 -54 208 -8 284 -15 382 -35 143 -29
269 -73 348 -121 32 -19 67 -34 78 -34 20 0 20 0 1 21 -22 25 -129 109 -139
109 -3 0 -4 -4 0 -10 3 -5 -24 4 -59 20 -36 17 -75 30 -86 30 -13 0 -19 4 -14
11 4 7 0 9 -13 5 -10 -3 -59 3 -108 13 -141 31 -277 40 -600 42 -338 1 -505 7
-505 20 0 4 17 11 38 14 20 4 51 9 67 11 23 4 27 3 15 -6 -11 -8 0 -9 45 -5
33 3 139 12 235 21 228 21 490 21 594 0 99 -20 239 -62 289 -88 55 -28 57 -15
3 17 -25 15 -46 29 -46 31 0 13 202 -114 215 -136 3 -5 11 -10 17 -10 36 0
-124 113 -236 167 -39 18 -60 31 -46 27 14 -4 51 -20 84 -36 32 -16 60 -27 63
-24 15 14 -192 93 -312 118 -27 6 -126 14 -220 17 l-170 8 141 1 c163 2 269
-13 407 -59 50 -17 98 -33 106 -36 9 -4 11 -1 6 8 -5 7 7 4 26 -8 19 -11 33
-25 31 -32 -1 -6 2 -11 6 -11 13 0 117 -92 118 -104 1 -6 3 -14 4 -18 1 -5 3
-11 4 -15 1 -5 6 -15 11 -23 5 -8 -13 1 -40 21 -101 72 -90 57 28 -43 l48 -40
-7 29 c-4 15 -9 33 -13 38 -3 6 -6 13 -7 18 -1 4 -2 8 -4 10 -1 1 -3 10 -5 20
-7 39 -59 110 -108 148 -161 127 -400 178 -704 148z m388 -53 c98 -22 215 -64
206 -72 -2 -2 -31 7 -64 21 -176 71 -467 91 -693 46 -63 -12 -154 -33 -202
-47 -113 -31 -137 -30 -33 2 74 23 284 68 365 78 91 11 317 -3 421 -28z m-448
-13 c-7 -2 -19 -2 -25 0 -7 3 -2 5 12 5 14 0 19 -2 13 -5z m-438 -73 c-11 -5
-27 -9 -35 -9 -9 0 -8 4 5 9 11 5 27 9 35 9 9 0 8 -4 -5 -9z"/>
<path d="M8100 2289 c0 -13 5 -31 10 -39 7 -11 8 -5 4 20 -8 43 -14 51 -14 19z"/>
<path d="M8850 2275 c-19 -14 -31 -25 -28 -25 9 0 78 41 78 46 0 9 -17 2 -50
-21z"/>
<path d="M8151 2274 c0 -11 3 -14 6 -6 3 7 2 16 -1 19 -3 4 -6 -2 -5 -13z"/>
<path d="M8909 2283 c-1 -5 -1 -11 0 -15 0 -4 -13 -15 -29 -23 -40 -21 -38
-28 3 -12 21 9 32 21 33 35 1 20 -5 31 -7 15z"/>
<path d="M8041 2259 c0 -13 4 -33 9 -44 7 -14 8 -8 3 20 -7 46 -13 59 -12 24z"/>
<path d="M8208 2265 c6 -11 23 -31 39 -45 l28 -25 -30 35 c-47 55 -48 56 -37
35z"/>
<path d="M5063 2221 c-41 -49 -110 -83 -171 -84 -26 0 -89 13 -143 31 -146 47
-238 56 -514 48 -132 -3 -314 -13 -405 -20 -91 -8 -230 -13 -310 -12 -80 1
-131 -1 -115 -4 20 -4 -5 -9 -70 -14 -130 -10 -296 11 -387 49 -10 4 -18 5
-18 2 0 -9 111 -48 180 -63 94 -20 364 -18 635 6 299 27 711 37 824 21 46 -7
126 -26 178 -42 53 -16 116 -29 141 -29 76 0 148 45 197 123 24 38 16 33 -22
-12z"/>
<path d="M8140 2233 c0 -6 9 -21 21 -34 l20 -24 -17 30 c-24 39 -24 40 -24 28z"/>
<path d="M8242 2195 c26 -27 49 -47 51 -45 2 3 -20 25 -47 50 l-51 44 47 -49z"/>
<path d="M8794 2231 c-54 -13 -197 -88 -241 -126 -42 -36 -124 -179 -122 -214
0 -9 6 0 13 19 28 76 66 138 109 177 51 48 89 68 205 113 97 37 110 48 36 31z"/>
<path d="M3883 2223 c9 -2 23 -2 30 0 6 3 -1 5 -18 5 -16 0 -22 -2 -12 -5z"/>
<path d="M8070 2226 c0 -15 29 -74 39 -81 6 -3 2 13 -11 37 -24 48 -28 54 -28
44z"/>
<path d="M8170 2226 c0 -2 8 -10 18 -17 15 -13 16 -12 3 4 -13 16 -21 21 -21
13z"/>
<path d="M3728 2213 c7 -3 16 -2 19 1 4 3 -2 6 -13 5 -11 0 -14 -3 -6 -6z"/>
<path d="M8400 2210 c8 -5 22 -9 30 -9 10 0 8 3 -5 9 -27 12 -43 12 -25 0z"/>
<path d="M3538 2203 c7 -3 16 -2 19 1 4 3 -2 6 -13 5 -11 0 -14 -3 -6 -6z"/>
<path d="M8860 2200 l-45 -7 40 -1 c22 -1 47 3 55 8 8 5 11 9 5 8 -5 0 -30 -4
-55 -8z"/>
<path d="M8310 2196 c0 -2 7 -7 16 -10 8 -3 12 -2 9 4 -6 10 -25 14 -25 6z"/>
<path d="M8201 2188 c2 -2 18 -14 34 -28 l30 -25 -24 28 c-14 15 -29 27 -34
27 -6 0 -8 -1 -6 -2z"/>
<path d="M8296 2179 c6 -11 64 -42 69 -37 2 2 -14 13 -36 25 -21 12 -37 17
-33 12z"/>
<path d="M8788 2183 c7 -3 16 -2 19 1 4 3 -2 6 -13 5 -11 0 -14 -3 -6 -6z"/>
<path d="M6822 2168 c-62 -6 -111 -13 -108 -15 3 -3 80 0 171 7 344 27 587 -8
790 -114 77 -40 86 -42 55 -16 l-25 21 25 -6 c24 -6 24 -5 6 9 -22 18 -40 21
-31 6 9 -15 5 -13 -76 24 -41 19 -123 46 -184 62 -99 25 -130 28 -310 30 -110
1 -251 -2 -313 -8z"/>
<path d="M8001 2170 c-1 -8 8 -32 19 -52 11 -21 17 -43 14 -51 -12 -33 128
-148 178 -147 7 1 0 7 -17 14 l-30 13 30 10 c28 9 28 10 7 15 -14 4 -20 2 -16
-4 4 -6 1 -9 -5 -7 -7 3 -12 9 -11 14 1 6 -9 13 -22 16 -13 3 -22 10 -21 16 1
6 -13 29 -32 51 -20 22 -44 60 -55 84 -17 37 -18 25 -2 -22 10 -30 -13 2 -25
33 -6 18 -12 25 -12 17z m98 -133 c22 -24 23 -27 6 -21 -20 7 -20 7 0 -18 11
-13 2 -6 -20 17 -25 26 -41 52 -41 69 l-2 28 16 -24 c8 -13 27 -36 41 -51z
m66 -85 c-3 -3 -11 0 -18 7 -9 10 -8 11 6 5 10 -3 15 -9 12 -12z"/>
<path d="M8065 2047 c10 -15 20 -25 23 -22 3 3 -5 16 -17 28 l-23 22 17 -28z"/>
<path d="M8688 2147 c-67 -38 -101 -67 -149 -127 -35 -43 -80 -121 -79 -137 1
-4 15 19 32 52 41 79 136 173 217 213 35 18 58 32 50 32 -8 0 -39 -15 -71 -33z"/>
<path d="M7684 2155 c11 -8 25 -15 30 -15 6 0 2 7 -8 15 -11 8 -25 15 -30 15
-6 0 -2 -7 8 -15z"/>
<path d="M8388 2163 c6 -2 18 -2 25 0 6 3 1 5 -13 5 -14 0 -19 -2 -12 -5z"/>
<path d="M8050 2154 c0 -15 51 -84 86 -114 20 -18 18 -13 -9 18 -58 66 -44 71
22 9 33 -32 65 -57 72 -57 6 0 -6 13 -28 29 -22 16 -48 41 -59 55 -11 15 -27
28 -37 30 -9 1 -24 11 -32 22 -8 10 -15 14 -15 8z"/>
<path d="M6593 2143 c15 -2 39 -2 55 0 15 2 2 4 -28 4 -30 0 -43 -2 -27 -4z"/>
<path d="M7100 2140 c189 -8 331 -27 409 -55 56 -20 86 -19 41 1 -84 38 -210
55 -425 59 l-210 3 185 -8z"/>
<path d="M8324 2125 c11 -8 25 -15 30 -15 6 0 4 -5 -4 -11 -12 -9 -12 -10 -1
-7 28 8 22 26 -11 37 -30 10 -31 9 -14 -4z"/>
<path d="M7730 2102 c13 -9 44 -32 68 -50 24 -19 41 -28 37 -22 -11 18 -106
90 -118 89 -7 0 -1 -8 13 -17z"/>
<path d="M8307 2109 c7 -7 15 -10 18 -7 3 3 -2 9 -12 12 -14 6 -15 5 -6 -5z"/>
<path d="M8385 2109 c-11 -17 1 -21 15 -4 8 9 8 15 2 15 -6 0 -14 -5 -17 -11z"/>
<path d="M8155 2090 c10 -11 20 -20 23 -20 3 0 -3 9 -13 20 -10 11 -20 20 -23
20 -3 0 3 -9 13 -20z"/>
<path d="M8212 2044 c10 -10 20 -16 22 -13 3 3 -5 11 -17 18 -21 13 -21 12 -5
-5z"/>
<path d="M8308 2043 c7 -3 16 -2 19 1 4 3 -2 6 -13 5 -11 0 -14 -3 -6 -6z"/>
<path d="M8170 2015 c0 -10 83 -45 105 -44 11 0 2 6 -20 13 -22 7 -50 18 -62
25 -13 6 -23 9 -23 6z"/>
<path d="M8255 2000 c11 -5 31 -8 45 -8 l25 0 -25 8 c-14 4 -34 8 -45 8 l-20
1 20 -9z"/>
<path d="M8090 1925 c0 -7 61 -37 66 -33 2 3 -12 12 -31 21 -19 9 -35 15 -35
12z"/>
</g>
</svg>
