<?xml version="1.0" standalone="no"?>
<!DOCTYPE svg PUBLIC "-//W3C//DTD SVG 20010904//EN"
 "http://www.w3.org/TR/2001/REC-SVG-20010904/DTD/svg10.dtd">
<svg version="1.0" xmlns="http://www.w3.org/2000/svg"
 width="7681.000000pt" height="5437.000000pt" viewBox="0 0 7681.000000 5437.000000"
 preserveAspectRatio="xMidYMid meet">

<g transform="translate(0.000000,5437.000000) scale(0.100000,-0.100000)"
fill="#000000" stroke="none">
<path d="M10525 54345 c-214 -39 -475 -138 -592 -226 -117 -87 -158 -246 -97
-375 16 -34 70 -84 91 -84 7 0 13 -310 17 -967 3 -533 10 -1003 14 -1046 6
-52 15 -87 29 -105 73 -98 242 -84 356 30 74 74 77 94 77 459 l0 318 33 5 c17
3 79 10 137 16 58 6 114 13 126 16 23 6 36 -8 285 -306 420 -503 480 -569 545
-596 48 -20 128 -18 173 6 86 43 151 152 151 252 0 92 -80 208 -295 428 -121
124 -344 387 -333 394 53 36 187 148 230 193 126 133 230 337 270 533 26 125
21 301 -12 405 -105 332 -387 565 -779 645 -115 23 -314 26 -426 5z m369 -510
c38 -8 106 -32 151 -54 217 -106 283 -315 170 -541 -79 -157 -248 -280 -444
-324 -90 -21 -262 -46 -313 -46 l-38 0 0 464 0 464 48 16 c27 9 68 20 93 25
71 14 258 12 333 -4z"/>
<path d="M16560 54295 c-63 -20 -124 -75 -157 -143 l-28 -57 -7 -753 c-4 -415
-9 -756 -12 -759 -2 -3 -60 78 -127 179 -183 274 -312 452 -560 773 -123 160
-262 344 -309 409 -110 154 -220 268 -276 284 -134 39 -272 -18 -319 -131 -14
-35 -15 -152 -9 -1245 7 -1341 2 -1248 73 -1320 51 -51 88 -66 161 -67 80 0
131 23 171 78 65 90 63 61 67 940 l3 799 124 -166 c339 -451 650 -906 881
-1291 75 -126 154 -246 174 -265 82 -80 229 -81 320 -2 69 59 72 68 86 357 27
544 35 841 41 1502 l6 682 -27 55 c-34 69 -101 130 -161 145 -53 13 -58 13
-115 -4z"/>
<path d="M23110 54301 c-50 -16 -87 -40 -124 -82 -76 -84 -73 -53 -80 -734 -3
-335 -9 -676 -13 -757 l-6 -147 -120 177 c-202 299 -323 465 -556 767 -123
159 -258 337 -299 395 -187 262 -256 320 -383 320 -93 0 -172 -43 -216 -118
l-28 -47 3 -1195 c4 -1354 -1 -1271 80 -1350 116 -112 292 -83 354 57 38 87
40 124 47 911 l6 773 136 -183 c343 -461 650 -912 869 -1278 153 -254 153
-255 214 -285 118 -59 278 -10 327 99 15 35 21 96 33 367 32 690 52 1701 38
1986 l-7 162 -41 58 c-59 83 -160 128 -234 104z"/>
<path d="M13205 54283 c-75 -11 -194 -47 -274 -82 -508 -219 -864 -874 -838
-1541 15 -380 128 -693 325 -901 106 -112 161 -148 327 -214 182 -73 263 -89
455 -89 130 0 169 3 239 22 266 73 515 271 695 555 86 137 205 404 260 587 33
113 49 258 49 470 1 126 -4 203 -17 275 -68 379 -267 656 -581 810 -177 87
-259 107 -450 110 -88 2 -173 1 -190 -2z m333 -516 c165 -58 293 -167 360
-308 53 -111 72 -201 72 -344 0 -185 -16 -293 -66 -448 -109 -334 -274 -557
-489 -663 -111 -54 -194 -69 -302 -54 -242 33 -448 226 -519 485 -22 79 -30
329 -14 438 25 174 69 316 146 467 65 127 129 214 226 306 130 123 218 156
398 150 91 -2 130 -9 188 -29z"/>
<path d="M2471 54258 c-57 -10 -134 -60 -177 -116 -68 -89 -65 -26 -62 -1288
l3 -1139 23 -50 c85 -184 297 -228 403 -82 66 90 63 72 67 525 l3 412 454 0
454 0 3 -407 c4 -445 4 -440 65 -525 48 -67 124 -103 199 -95 102 11 185 82
226 195 15 41 17 95 18 444 l0 396 36 12 c53 18 108 78 134 146 51 137 -12
298 -137 351 l-33 13 0 506 c0 351 -4 518 -11 545 -28 91 -126 159 -229 159
-109 0 -196 -65 -243 -180 -22 -54 -22 -65 -25 -532 l-3 -478 -454 0 -455 0 0
500 c0 478 -1 502 -20 554 -19 48 -83 125 -108 126 -4 1 -25 4 -47 8 -22 5
-60 5 -84 0z"/>
<path d="M61454 54219 c-201 -17 -411 -77 -598 -171 -82 -41 -115 -65 -177
-127 -90 -91 -113 -135 -113 -212 1 -108 94 -219 195 -235 l39 -7 -5 -856 c-2
-471 -6 -890 -7 -931 -4 -101 18 -144 93 -183 78 -40 157 -50 404 -50 530 -1
827 101 1037 357 138 167 202 336 202 526 0 121 -17 199 -69 305 -49 102 -145
209 -245 276 l-25 17 33 38 c200 239 257 497 163 745 -46 122 -158 261 -274
341 -188 129 -414 187 -653 167z m175 -509 c116 -19 237 -97 272 -175 65 -142
-45 -293 -261 -360 -34 -10 -106 -19 -192 -22 l-138 -6 0 271 0 271 53 10
c103 21 184 24 266 11z m46 -1105 c94 -19 224 -86 274 -140 46 -50 61 -95 61
-188 0 -61 -3 -74 -32 -113 -88 -122 -281 -194 -555 -208 l-113 -6 0 330 0
329 33 4 c81 10 267 6 332 -8z"/>
<path d="M63715 54211 c-73 -33 -138 -118 -221 -289 -230 -473 -437 -1019
-569 -1497 -26 -93 -70 -249 -97 -345 -54 -193 -83 -353 -73 -415 14 -98 90
-199 170 -225 61 -20 148 -9 197 26 53 37 101 99 121 156 8 24 39 147 67 273
29 127 64 267 78 313 l25 82 396 0 c218 0 446 3 507 6 l111 7 31 -109 c49
-169 81 -311 102 -453 21 -142 38 -185 96 -245 98 -101 240 -101 337 -1 46 47
76 109 83 171 7 58 -32 292 -82 498 -19 76 -33 140 -32 140 2 1 27 13 56 26
102 46 157 138 150 250 -3 55 -9 76 -33 110 -62 89 -127 119 -263 120 -79 0
-94 3 -99 18 -32 90 -175 410 -262 587 -153 310 -300 525 -486 711 -58 58 -91
83 -121 92 -60 17 -143 14 -189 -7z m218 -796 c68 -112 129 -234 223 -440 l72
-160 -66 -6 c-74 -7 -582 -11 -582 -5 0 10 75 217 111 310 85 213 172 407 180
399 4 -4 32 -48 62 -98z"/>
<path d="M73943 54213 c-55 -19 -129 -91 -156 -151 -21 -48 -25 -206 -36
-1464 -1 -49 -4 -88 -8 -88 -5 0 -35 39 -68 87 -200 290 -378 523 -720 943
-105 129 -224 280 -265 335 -41 55 -111 136 -155 181 -72 73 -86 82 -144 98
-140 39 -297 -33 -331 -151 -8 -27 -9 -375 -3 -1243 9 -1338 3 -1228 75 -1301
103 -102 283 -94 360 17 62 88 61 83 67 942 l6 782 140 -177 c405 -515 769
-1028 986 -1388 74 -123 130 -179 198 -199 68 -20 104 -20 167 -1 65 19 128
74 148 128 44 119 103 2345 66 2477 -17 59 -79 132 -139 163 -62 31 -121 34
-188 10z"/>
<path d="M5540 54200 c-369 -8 -461 -15 -670 -56 -246 -49 -359 -136 -360
-280 0 -67 23 -133 65 -182 l34 -40 3 -918 c3 -1029 -3 -950 77 -1037 88 -96
233 -121 686 -122 318 0 425 12 646 74 115 33 156 63 195 146 64 134 -9 298
-156 350 -56 20 -66 19 -195 -10 -188 -42 -327 -58 -515 -59 -96 0 -192 3
-212 7 l-38 8 0 249 0 250 183 0 c190 0 400 12 525 31 151 22 227 65 275 154
17 31 22 57 22 115 -1 126 -61 213 -168 242 -39 10 -82 9 -260 -6 -116 -10
-294 -21 -394 -23 l-183 -6 0 290 0 290 48 7 c26 4 236 11 467 15 396 6 423 8
473 28 72 29 118 66 143 114 65 128 6 294 -125 355 -42 20 -66 23 -131 22 -44
-1 -240 -5 -435 -8z"/>
<path d="M20290 54200 c-369 -8 -461 -15 -670 -56 -246 -49 -359 -136 -360
-280 0 -67 23 -133 65 -182 l34 -40 3 -918 c3 -1029 -3 -950 77 -1037 88 -96
233 -121 686 -122 318 0 425 12 646 74 115 33 156 63 195 146 64 134 -9 298
-156 350 -56 20 -66 19 -195 -10 -188 -42 -327 -58 -515 -59 -96 0 -192 3
-212 7 l-38 8 0 249 0 250 183 0 c187 0 412 13 527 31 208 31 295 111 295 269
-1 126 -61 213 -168 242 -39 10 -82 9 -260 -6 -116 -10 -294 -21 -394 -23
l-183 -6 0 290 0 290 48 7 c26 4 236 11 467 15 396 6 423 8 473 28 72 29 118
66 143 114 65 128 6 294 -125 355 -42 20 -66 23 -131 22 -44 -1 -240 -5 -435
-8z"/>
<path d="M394 54190 c-100 -4 -198 -13 -217 -19 -78 -26 -157 -139 -165 -237
-8 -97 29 -162 114 -200 105 -46 200 -59 447 -59 l227 0 0 -994 c0 -725 3
-1004 12 -1032 16 -56 70 -114 136 -146 133 -65 287 -10 322 115 6 24 10 384
10 1049 l0 1013 223 -2 c402 -4 516 32 547 175 11 45 10 63 -4 113 -22 77 -77
156 -134 194 l-45 30 -461 0 c-254 0 -544 2 -646 4 -102 2 -267 1 -366 -4z"/>
<path d="M9210 54185 c-55 -10 -222 -18 -470 -24 -523 -14 -608 -25 -686 -94
-93 -82 -104 -158 -48 -325 l37 -107 4 -252 5 -253 -26 -31 c-94 -111 -98
-264 -11 -349 l35 -34 0 -492 c0 -314 4 -511 11 -543 16 -75 77 -163 131 -190
130 -62 279 18 328 177 19 60 20 93 20 523 l0 459 204 0 c362 0 584 47 729
154 69 51 99 148 73 238 -43 148 -198 222 -362 173 -101 -30 -244 -47 -440
-52 l-201 -6 -10 244 c-5 134 -8 246 -5 249 2 3 180 8 396 11 315 6 404 10
456 23 121 31 197 95 225 188 19 64 19 92 1 152 -43 142 -181 198 -396 161z"/>
<path d="M17434 54189 c-100 -4 -198 -12 -217 -18 -46 -15 -109 -79 -139 -139
-18 -37 -23 -64 -23 -123 0 -68 3 -79 29 -113 35 -46 103 -78 218 -103 66 -14
130 -18 311 -18 l227 0 0 -994 c0 -733 3 -1004 12 -1033 17 -56 78 -121 140
-149 134 -59 284 -3 318 119 6 24 10 384 10 1049 l0 1013 223 -2 c398 -4 513
32 547 170 26 110 -53 271 -160 326 -20 11 -165 14 -670 17 -355 2 -727 1
-826 -2z"/>
<path d="M54725 54172 c-37 -12 -68 -34 -117 -82 -107 -107 -99 5 -96 -1311
l3 -1134 24 -52 c48 -107 160 -180 264 -171 72 6 124 35 169 93 64 85 68 113
68 543 l0 382 479 0 480 0 4 -402 c2 -281 7 -414 15 -440 19 -57 84 -133 137
-158 55 -26 130 -30 190 -10 54 18 138 100 166 163 24 51 24 56 27 458 l3 406
40 12 c75 23 142 114 155 214 14 101 -51 222 -144 267 l-52 25 0 501 c0 541
-1 549 -54 619 -13 17 -48 44 -77 60 -45 25 -65 30 -119 29 -121 0 -204 -56
-259 -174 l-26 -55 -3 -482 -3 -483 -479 0 -480 0 0 493 c0 549 -1 560 -65
634 -58 68 -149 88 -250 55z"/>
<path d="M24280 54169 c-100 -12 -341 -72 -428 -108 -94 -39 -167 -88 -225
-150 -57 -61 -77 -104 -77 -168 0 -121 121 -233 252 -233 l38 0 0 -907 0 -908
24 -50 c46 -99 167 -175 280 -175 54 0 396 53 586 91 292 59 502 171 696 371
139 143 232 297 293 481 49 146 61 221 68 392 20 561 -215 998 -657 1224 -249
127 -540 175 -850 140z m455 -524 c119 -24 250 -92 335 -171 233 -221 300
-563 176 -909 -119 -333 -327 -479 -775 -544 -78 -12 -144 -21 -147 -21 -2 0
-4 373 -4 829 l0 830 28 4 c56 10 309 -1 387 -18z"/>
<path d="M66745 54139 c-125 -19 -283 -75 -495 -176 -221 -105 -381 -213 -511
-343 -171 -173 -311 -451 -366 -727 -25 -125 -25 -424 0 -548 54 -267 151
-455 331 -643 192 -200 435 -305 701 -305 134 0 215 15 347 63 162 59 298 157
455 330 111 122 155 196 175 290 37 182 -139 332 -325 276 -69 -21 -101 -49
-169 -149 -203 -297 -425 -377 -686 -247 -174 87 -295 271 -332 502 -18 108
-8 300 19 408 86 332 361 586 790 731 130 43 151 46 190 23 27 -16 38 -31 105
-137 52 -83 109 -117 197 -117 165 0 281 143 249 309 -22 119 -151 293 -282
380 -105 71 -257 102 -393 80z"/>
<path d="M58340 54130 c-52 -4 -219 -8 -371 -9 -152 0 -323 -6 -380 -11 -123
-12 -326 -45 -407 -66 -136 -35 -231 -109 -258 -201 -14 -47 -14 -58 0 -114
17 -64 36 -97 80 -138 l26 -24 0 -910 c0 -668 3 -920 12 -949 25 -85 129 -166
238 -186 30 -6 141 -18 245 -28 300 -26 616 -12 865 41 180 38 228 55 271 99
56 55 79 107 79 180 0 74 -26 131 -82 181 -81 74 -159 90 -287 60 -216 -51
-560 -79 -754 -60 l-77 7 0 255 0 255 98 -7 c107 -7 493 9 618 25 43 6 113 21
154 33 127 36 190 119 190 248 0 61 -27 129 -68 172 -65 69 -136 81 -345 62
-219 -21 -501 -34 -579 -28 l-68 6 0 282 0 283 23 6 c54 13 404 27 662 25 258
-1 285 1 345 20 78 24 145 77 171 135 41 91 13 211 -67 288 -72 68 -147 84
-334 68z"/>
<path d="M67794 54122 c-54 -26 -109 -92 -124 -150 -27 -109 -31 -301 -27
-1259 3 -659 8 -999 16 -1043 16 -92 54 -165 104 -198 35 -23 51 -27 111 -27
84 1 129 21 193 87 50 51 83 122 85 180 1 24 -2 228 -7 454 l-8 411 29 10 c16
6 36 14 45 18 12 4 91 -73 310 -307 162 -172 348 -371 413 -443 279 -307 299
-327 351 -351 92 -44 185 -29 264 42 89 80 114 200 62 302 -38 75 -145 197
-386 442 -132 135 -312 322 -398 415 l-158 170 78 69 c150 133 398 392 468
489 39 53 101 136 139 185 92 117 121 178 120 262 0 183 -181 290 -360 211
-84 -38 -159 -118 -355 -379 -141 -187 -275 -330 -409 -433 -81 -63 -193 -139
-205 -139 -3 0 -2 174 1 388 7 376 7 388 -13 433 -27 60 -86 125 -137 151 -58
30 -150 34 -202 10z"/>
<path d="M71330 54130 c-52 -4 -219 -8 -370 -9 -302 -1 -469 -15 -680 -56
-147 -29 -196 -47 -266 -97 -119 -86 -134 -243 -34 -352 l39 -43 3 -919 c3
-860 4 -922 21 -959 38 -86 131 -153 237 -173 211 -40 721 -50 930 -18 130 19
257 46 344 71 203 59 250 305 84 435 -77 61 -155 74 -267 45 -192 -49 -545
-78 -754 -60 l-87 7 0 251 0 252 253 2 c369 2 590 29 698 84 137 69 160 290
42 401 -65 62 -138 72 -383 50 -221 -20 -455 -31 -535 -25 l-75 6 0 282 0 283
33 6 c77 14 394 27 657 25 267 -1 289 0 353 21 87 27 159 92 177 160 26 95 -5
196 -79 263 -76 68 -150 83 -341 67z"/>
<path d="M52475 54110 c-133 -7 -161 -16 -221 -77 -51 -50 -84 -126 -84 -191
0 -182 150 -242 607 -242 l223 0 2 -1007 3 -1008 22 -41 c92 -172 365 -195
455 -39 l23 40 3 1028 2 1027 223 0 c412 0 536 33 583 155 31 82 -5 200 -86
284 -76 78 -13 73 -869 75 -421 2 -820 0 -886 -4z"/>
<path d="M75182 54090 c-95 -13 -287 -58 -372 -86 -164 -55 -305 -156 -351
-250 -43 -90 -10 -197 83 -264 47 -35 138 -64 174 -57 l24 4 0 -881 c0 -955 0
-946 54 -1025 38 -54 119 -107 192 -126 51 -13 78 -14 155 -5 138 15 572 88
661 111 245 62 433 166 609 336 263 255 393 566 392 938 0 171 -19 302 -63
445 -114 369 -402 657 -790 790 -173 59 -253 72 -490 75 -118 2 -244 0 -278
-5z m477 -515 c320 -52 540 -256 618 -571 26 -107 23 -287 -7 -394 -112 -410
-331 -585 -824 -660 -70 -11 -144 -20 -162 -20 l-34 0 0 825 0 825 23 5 c78
17 242 13 386 -10z"/>
<path d="M34455 50740 c-725 -32 -1422 -117 -2110 -256 -2384 -484 -4592
-1596 -6350 -3199 -182 -165 -675 -661 -831 -835 -549 -611 -999 -1220 -1410
-1906 -1692 -2824 -2270 -6335 -1578 -9572 l35 -163 -84 -192 c-272 -620 -553
-1179 -1227 -2432 -782 -1455 -1084 -2068 -1387 -2814 -681 -1676 -910 -3185
-717 -4731 182 -1468 749 -2860 1623 -3985 290 -373 673 -759 1076 -1085 957
-773 2169 -1367 3413 -1674 568 -141 1211 -225 1717 -226 l110 0 64 -100 c114
-180 359 -530 553 -788 l189 -253 14 -147 c53 -558 44 -1288 -25 -1992 -232
-2340 -1090 -4939 -2283 -6910 -619 -1021 -1335 -1896 -2045 -2497 -172 -146
-210 -185 -243 -257 -136 -291 81 -612 402 -594 120 7 187 46 389 221 1059
922 1966 2133 2746 3662 1134 2226 1846 4890 1923 7193 5 145 11 265 13 267 2
3 107 -104 234 -236 762 -798 1728 -1627 2726 -2340 1474 -1052 2855 -1675
4133 -1863 573 -84 1119 -81 1635 10 80 14 159 28 176 31 l31 5 7 -178 c45
-1190 221 -2177 567 -3189 435 -1272 1161 -2471 2113 -3490 62 -66 166 -181
233 -255 121 -137 256 -267 393 -380 41 -34 114 -95 163 -136 48 -41 87 -70
87 -65 0 6 37 -14 83 -43 501 -326 1099 -526 1767 -592 199 -20 614 -22 815
-5 554 47 1050 170 1545 383 1900 817 4157 1365 5915 1437 298 13 355 30 459
140 154 165 150 418 -8 577 -76 75 -131 97 -431 168 -148 35 -288 69 -310 75
l-40 10 45 -5 c84 -10 534 -103 720 -149 1806 -447 3205 -1314 4146 -2568 525
-701 856 -1456 989 -2263 30 -185 53 -242 125 -318 179 -189 477 -175 634 30
84 110 99 213 62 436 -116 707 -373 1397 -758 2043 -53 88 -94 163 -92 167 6
9 218 134 342 202 482 263 899 347 1259 255 124 -31 354 -151 568 -294 203
-137 254 -162 343 -171 263 -28 498 222 452 479 -17 93 -61 177 -123 234 -59
53 -318 229 -470 317 -489 287 -955 368 -1504 261 -357 -69 -749 -234 -1185
-498 -97 -59 -180 -107 -183 -107 -4 0 -18 15 -33 32 -76 92 -208 237 -319
351 -69 71 -122 131 -119 134 10 10 313 124 471 177 174 59 379 119 545 161
58 15 131 40 163 58 109 57 186 170 208 302 10 60 10 81 -5 147 -42 187 -192
316 -381 326 -74 4 -100 0 -273 -47 -446 -119 -870 -269 -1290 -457 l-143 -64
-122 88 c-1298 940 -2973 1518 -4902 1691 -340 31 -425 35 -484 22 -80 -17
-153 -56 -208 -111 -149 -148 -169 -373 -49 -540 l34 -47 -52 9 c-207 33 -810
101 -1186 133 -101 9 -186 18 -188 20 -2 2 -8 84 -12 182 -8 161 -32 403 -46
460 -7 27 -6 27 181 42 473 38 989 162 1470 353 183 72 488 220 586 283 354
229 439 597 233 1008 -217 430 -610 758 -1042 868 -329 84 -665 47 -1055 -115
-127 -53 -253 -118 -496 -255 -117 -67 -215 -120 -216 -119 -1 2 -10 61 -19
132 -32 248 -120 617 -185 783 l-19 49 161 13 c496 39 1147 184 1449 324 278
128 465 344 538 622 30 112 38 319 17 440 -109 624 -672 1054 -1303 995 -64
-6 -159 -20 -211 -31 -191 -41 -469 -151 -722 -285 -57 -30 -105 -53 -106 -52
-2 2 -8 41 -15 88 -6 47 -13 99 -16 117 l-6 31 59 6 c283 30 420 53 613 101
331 83 709 238 927 381 328 213 446 540 321 894 -143 405 -493 751 -884 873
-171 54 -232 62 -477 62 -131 0 -213 3 -195 8 402 97 653 347 752 750 130 524
-54 1080 -448 1362 l-66 46 303 302 c770 768 1170 1289 1295 1687 45 142 55
232 43 407 -26 370 -35 712 -35 1278 0 805 26 1342 100 2085 22 225 29 267 60
359 65 196 186 425 357 679 156 232 268 369 500 611 406 423 691 893 872 1436
105 315 149 530 190 935 l6 55 182 80 c644 281 956 504 1194 852 138 202 216
403 247 638 13 102 21 127 111 340 736 1746 1192 3312 1415 4864 174 1215 210
2337 115 3621 -21 276 -30 334 -65 406 -54 110 -173 200 -296 223 -34 7 -188
2 -509 -14 -566 -30 -1281 -65 -1328 -65 l-35 0 14 47 c8 25 24 96 37 157 19
98 22 140 22 361 -1 212 -4 270 -23 379 -59 338 -127 542 -385 1143 -183 425
-256 635 -292 847 -22 128 -38 456 -32 636 7 192 -7 550 -27 690 -36 257 -94
448 -196 655 -77 156 -162 275 -275 387 l-74 74 -11 155 c-36 513 -164 976
-389 1404 -246 469 -603 883 -1033 1201 -193 143 -458 298 -575 336 -64 21
-65 22 -126 112 -229 343 -623 811 -1277 1516 -917 990 -1655 1547 -2482 1874
-469 185 -903 274 -1369 279 l-196 3 -39 30 c-21 17 -86 62 -144 101 -956 638
-2178 784 -3263 391 l-139 -50 -116 13 c-145 16 -464 16 -597 0 -493 -60 -977
-251 -1356 -533 l-86 -64 -6 245 c-4 135 -7 318 -7 406 0 232 -27 317 -132
417 -71 68 -132 94 -303 128 -538 109 -1110 182 -1730 220 -235 15 -948 20
-1190 10z m1320 -854 c384 -30 676 -64 1007 -117 l196 -31 4 -292 c2 -160 2
-293 1 -295 -2 -2 -56 8 -120 22 -870 192 -1841 132 -2662 -163 -322 -115
-427 -170 -494 -259 -200 -262 -32 -637 299 -668 79 -7 123 4 304 77 456 183
904 274 1415 287 412 10 783 -34 1163 -138 l112 -31 0 -390 0 -389 -52 5
c-277 32 -929 45 -1273 27 -1069 -56 -2082 -277 -3055 -666 -236 -94 -303
-133 -362 -211 -129 -172 -109 -406 49 -555 91 -86 221 -128 339 -109 31 5
151 47 267 94 596 238 1157 397 1772 501 715 121 1376 149 2157 93 l166 -12 6
-160 c3 -89 10 -705 16 -1371 6 -665 15 -1678 20 -2250 40 -4266 76 -9873 100
-15420 5 -1237 12 -2863 16 -3612 l6 -1363 -58 0 c-188 0 -294 49 -489 225
-395 356 -576 461 -815 472 -289 14 -445 -108 -678 -530 -35 -63 -76 -130 -91
-148 l-28 -33 -62 39 c-185 112 -320 311 -351 519 -25 167 25 357 134 509 55
78 122 141 215 202 329 217 232 703 -153 767 -126 21 -240 -17 -398 -134 -108
-79 -267 -241 -345 -351 -121 -172 -219 -397 -265 -611 -32 -151 -32 -439 0
-584 88 -394 296 -717 613 -952 98 -73 181 -120 308 -175 132 -57 187 -69 321
-69 174 0 307 44 456 149 116 83 269 267 354 428 14 26 29 47 35 47 5 -1 82
-66 170 -146 350 -317 608 -436 983 -451 l142 -6 0 -217 c0 -119 3 -306 7
-415 6 -191 6 -197 -13 -191 -63 19 -280 37 -449 37 -517 0 -985 -140 -1408
-421 -285 -189 -480 -387 -806 -820 -186 -246 -301 -389 -362 -448 -190 -187
-528 -365 -782 -412 -67 -12 -68 -12 -132 19 -101 50 -235 142 -336 232 -103
90 -161 122 -256 139 -269 48 -523 -209 -474 -479 25 -133 90 -219 285 -376
271 -217 615 -380 967 -459 64 -14 144 -29 177 -32 l61 -7 52 -86 c136 -225
281 -404 508 -631 302 -301 588 -505 955 -680 584 -279 1249 -390 1895 -314
68 8 126 13 128 11 2 -2 6 -949 10 -2104 l6 -2101 -54 -11 c-82 -18 -281 -49
-404 -63 -170 -20 -703 -16 -890 5 -711 84 -1368 281 -2136 643 -909 427
-1965 1131 -3024 2014 -1862 1554 -3279 3346 -4129 5223 -603 1333 -1001 3086
-1250 5517 -119 1150 -266 3153 -321 4350 -32 713 -37 892 -42 1735 -5 840 1
1271 28 1805 135 2737 629 4942 1577 7035 l86 190 176 175 c1143 1139 2474
1845 4350 2308 747 185 1515 324 2785 507 215 31 413 62 440 70 102 29 201
114 250 213 123 251 -30 547 -307 594 -55 10 -94 7 -323 -26 -1026 -146 -1673
-253 -2257 -372 -1498 -304 -2670 -713 -3659 -1275 -1220 -693 -2294 -1712
-3135 -2975 -404 -605 -763 -1281 -1024 -1926 -24 -59 -45 -106 -47 -104 -5 5
159 494 227 676 460 1229 1102 2363 1916 3380 291 364 501 598 874 971 581
581 1075 987 1762 1448 221 148 261 189 298 309 88 284 -136 564 -432 539 -89
-8 -153 -38 -328 -154 -2131 -1415 -3818 -3519 -4775 -5953 -51 -129 -109
-283 -131 -342 -21 -59 -39 -106 -41 -104 -10 9 151 652 242 971 371 1295 955
2627 1633 3725 85 137 104 193 104 295 0 183 -116 341 -289 395 -156 48 -334
-1 -436 -121 -38 -43 -257 -407 -395 -654 -372 -668 -704 -1375 -973 -2080
-49 -126 -89 -226 -89 -222 0 4 23 98 50 209 454 1806 1310 3485 2469 4838
361 421 832 893 1256 1255 1892 1621 4326 2665 6825 2929 532 56 730 65 1375
61 371 -2 603 -8 740 -19z m6007 -586 c284 -42 531 -118 788 -241 511 -246
924 -623 1218 -1110 110 -184 177 -242 317 -274 306 -72 579 225 485 526 -17
55 -82 178 -144 271 l-18 27 69 -19 c351 -99 751 -288 1098 -520 508 -340 971
-772 1732 -1618 567 -629 769 -881 965 -1205 221 -365 321 -649 348 -992 16
-198 46 -273 147 -366 53 -49 126 -83 210 -99 156 -30 342 58 426 201 46 78
60 158 53 294 l-7 119 27 -24 c45 -43 177 -212 246 -316 216 -326 353 -683
414 -1079 23 -151 27 -599 6 -740 -23 -150 -60 -315 -103 -456 -36 -119 -40
-143 -37 -214 10 -194 149 -350 346 -387 114 -21 254 19 341 97 22 21 42 36
42 34 1 -2 5 -227 9 -499 7 -484 17 -639 51 -788 5 -25 8 -46 6 -48 -1 -2 -52
40 -112 92 -448 391 -676 523 -1044 601 -115 25 -145 27 -346 27 -182 -1 -240
-4 -340 -22 -470 -86 -889 -298 -1353 -685 -46 -38 -84 -67 -86 -66 -1 2 -12
20 -24 39 -11 19 -42 56 -69 82 -221 215 -591 118 -683 -179 -36 -117 -21
-361 36 -593 l27 -108 -24 -34 c-175 -248 -972 -1349 -1033 -1428 -44 -58
-133 -157 -196 -221 -178 -179 -335 -273 -506 -304 -127 -23 -190 -43 -246
-77 l-50 -31 -1786 6 c-983 3 -2052 11 -2377 16 -1124 20 -2344 47 -2552 57
l-123 6 0 138 0 138 86 41 c107 52 229 93 364 123 91 19 134 22 320 22 317 0
322 -1 837 -229 296 -130 435 -187 478 -193 108 -17 225 12 310 76 106 80 167
201 167 330 0 121 -32 202 -116 290 -56 59 -86 76 -316 177 -85 38 -158 71
-163 75 -4 3 37 49 91 102 111 107 146 165 165 272 22 130 -22 264 -118 361
-94 94 -235 140 -358 117 -117 -22 -178 -61 -332 -217 -77 -77 -174 -186 -215
-243 -60 -81 -79 -101 -95 -97 -65 14 -317 26 -430 20 -215 -11 -473 -54 -621
-105 -32 -11 -58 -20 -59 -20 -1 0 -5 431 -9 958 -4 526 -11 1422 -16 1991
l-10 1034 23 16 c12 8 68 61 124 117 229 229 479 396 780 519 300 122 662 185
963 169 186 -11 273 18 381 125 91 91 113 148 114 291 0 100 -2 109 -33 173
-67 136 -183 217 -342 238 -108 15 -452 6 -610 -16 -485 -66 -943 -236 -1337
-495 l-73 -48 0 181 c0 100 -5 584 -10 1076 l-10 894 32 29 c61 53 190 127
274 157 143 52 270 73 439 74 304 1 545 -64 910 -243 160 -79 581 -321 612
-353 7 -8 19 -119 33 -301 11 -160 25 -310 31 -334 41 -183 215 -318 409 -315
168 2 305 93 377 250 32 70 39 162 25 333 -5 63 -9 115 -8 116 0 0 127 -17
281 -38 243 -34 289 -38 345 -29 179 28 318 167 352 351 22 115 -27 264 -117
353 -47 47 -132 97 -189 111 -15 4 -242 36 -502 71 l-475 64 -132 84 c-558
356 -947 540 -1362 646 -316 80 -697 92 -1006 30 -99 -20 -289 -73 -321 -90
-17 -9 -18 3 -18 270 0 154 -2 285 -5 293 -4 9 13 23 47 40 29 14 89 59 133
98 157 140 397 282 618 364 420 157 888 172 1309 44 213 -65 387 -20 501 128
62 81 81 143 82 260 0 96 -2 103 -38 176 -39 80 -107 152 -176 188 -90 46
-363 115 -576 147 -150 22 -570 24 -715 4 -414 -57 -799 -184 -1110 -366 -42
-25 -80 -45 -83 -45 -38 0 58 165 191 331 77 96 246 259 344 332 475 355 1031
482 1603 366 318 -64 666 -237 915 -454 131 -115 254 -158 383 -134 159 28
283 136 332 288 13 40 16 76 13 145 -7 152 -50 219 -253 394 l-50 43 165 -5
c91 -3 227 -15 302 -26z m7743 -9557 c39 -8 107 -32 151 -53 136 -63 225 -129
514 -381 252 -219 409 -333 579 -419 87 -44 280 -106 376 -122 l80 -14 58
-139 c159 -381 229 -695 213 -955 -6 -105 -32 -235 -59 -299 l-14 -34 -5 79
c-10 157 -69 250 -223 357 -204 140 -505 266 -760 317 -60 12 -111 23 -113 25
-2 2 29 121 68 265 67 246 72 268 68 344 -6 112 -35 181 -108 260 -61 65 -132
107 -211 125 -181 42 -380 -51 -462 -216 -13 -26 -64 -194 -112 -373 -48 -179
-92 -330 -97 -336 -4 -6 -35 -14 -68 -18 -70 -8 -270 -56 -354 -85 -33 -12
-62 -21 -66 -21 -4 0 -15 20 -25 46 -22 58 -109 152 -173 187 -184 100 -404
57 -532 -104 -53 -67 -80 -145 -91 -264 -18 -192 -57 -334 -135 -490 -57 -112
-114 -194 -218 -312 -72 -82 -85 -93 -121 -97 -44 -6 -1326 -28 -1331 -24 -1
2 38 55 86 117 49 63 307 417 572 787 l483 672 475 101 c540 115 562 123 653
221 73 78 100 146 104 265 3 71 0 102 -16 147 -25 73 -69 137 -126 185 -53 44
-59 36 100 116 296 148 584 196 840 140z m140 -2407 c58 -40 116 -49 315 -51
208 -2 291 -14 437 -61 99 -31 275 -118 248 -121 -28 -3 -843 -31 -1270 -43
-198 -5 -403 -12 -455 -14 l-95 -5 25 20 c58 45 222 136 319 176 125 50 300
94 446 112 6 0 19 -5 30 -13z m-24990 -172 c-78 -329 -184 -871 -249 -1274
-160 -989 -252 -1969 -296 -3145 -6 -153 -12 -280 -13 -282 -1 -1 -32 23 -67
53 -36 31 -108 84 -161 119 -122 81 -125 90 -115 303 57 1207 287 2495 636
3567 96 293 277 781 287 772 2 -2 -8 -53 -22 -113z m28997 -879 c40 -643 37
-1405 -7 -2045 -121 -1726 -535 -3438 -1285 -5308 -135 -337 -141 -352 -154
-352 -6 0 -536 163 -1178 362 l-1167 363 -21 54 c-33 87 -78 266 -100 400 -61
377 -51 781 36 1456 98 765 115 961 115 1320 0 453 -49 772 -181 1180 -101
312 -212 560 -546 1225 -256 511 -330 670 -413 891 -58 156 -117 356 -108 365
4 4 136 11 294 15 645 19 1266 39 1391 45 93 5 132 3 132 -4 0 -20 110 -214
187 -330 112 -170 221 -302 377 -458 159 -158 291 -267 469 -385 155 -102 284
-166 365 -180 126 -22 268 27 361 126 194 205 142 511 -114 657 -261 150 -451
307 -627 518 l-79 95 158 7 c87 4 419 19 738 33 319 15 729 35 910 45 182 10
355 17 385 16 l55 -1 7 -110z m-15237 -85 c2650 -75 6232 -85 9060 -24 l310 7
29 -124 c59 -258 155 -540 284 -834 36 -82 184 -386 328 -675 286 -572 364
-740 447 -966 80 -217 80 -192 -10 -270 -170 -144 -467 -356 -644 -457 l-47
-26 -12 62 c-18 93 -75 259 -123 361 -248 521 -804 992 -1422 1205 -482 167
-1462 368 -2413 496 -952 128 -1687 158 -2029 84 -366 -79 -741 -264 -1073
-529 -220 -176 -503 -483 -681 -740 -165 -237 -354 -595 -474 -900 -166 -417
-351 -1072 -376 -1325 -37 -389 108 -793 390 -1088 112 -116 188 -175 416
-321 1060 -680 2309 -1128 3668 -1316 l87 -12 0 -58 c0 -154 44 -329 124 -495
65 -134 128 -224 237 -339 119 -126 243 -221 557 -430 152 -101 313 -213 357
-249 592 -479 1018 -1150 1200 -1892 57 -233 95 -505 95 -686 l0 -86 -92 19
c-454 93 -1212 178 -1588 178 l-65 0 -115 -157 c-351 -479 -665 -1001 -927
-1543 -68 -140 -131 -270 -141 -289 -16 -30 -101 -76 -981 -523 -963 -490
-964 -491 -990 -474 -54 36 -189 95 -259 115 -126 35 -259 46 -379 32 -153
-18 -272 -52 -511 -147 -242 -97 -354 -129 -515 -145 -213 -22 -445 -3 -977
81 -523 81 -791 106 -1036 94 l-131 -7 -6 528 c-4 291 -7 846 -7 1234 l0 706
227 0 c199 0 243 3 343 23 832 169 1452 868 1571 1772 18 134 15 438 -5 593
-45 348 -152 725 -344 1202 -56 139 -677 1600 -772 1815 -64 145 -143 296
-205 390 l-55 84 10 126 c5 69 17 235 25 370 8 135 22 310 31 390 59 554 234
928 521 1117 123 81 171 142 207 262 20 69 20 140 0 216 -52 200 -252 332
-460 304 -203 -27 -541 -319 -733 -632 -205 -335 -325 -745 -375 -1277 -12
-126 -13 -91 -19 550 -7 710 -27 4002 -27 4403 l0 227 78 0 c42 0 230 -4 417
-10z m-15815 -2805 c41 -117 170 -460 196 -520 3 -6 -28 -21 -68 -34 -570
-181 -954 -876 -1112 -2006 -62 -447 -80 -752 -80 -1350 0 -585 23 -1021 85
-1570 208 -1863 715 -3502 1361 -4403 398 -554 842 -852 1346 -903 131 -13
276 -4 416 26 38 8 70 14 71 12 0 -1 18 -92 39 -202 79 -410 234 -1066 330
-1395 18 -63 30 -116 26 -118 -12 -5 -221 102 -324 166 -319 197 -565 427
-784 733 -74 105 -116 143 -199 181 -126 59 -283 46 -402 -33 -98 -66 -160
-164 -180 -287 -21 -134 16 -231 165 -429 477 -634 1156 -1087 1914 -1277 79
-20 144 -37 145 -39 1 -1 31 -76 67 -167 37 -91 84 -207 107 -259 l40 -93 -37
7 c-20 3 -95 22 -167 42 -778 212 -1505 634 -2075 1203 -173 173 -267 280
-415 474 -77 101 -114 140 -162 173 -209 140 -488 63 -600 -165 -37 -73 -38
-80 -38 -182 0 -103 1 -108 38 -181 66 -132 327 -447 577 -698 701 -704 1574
-1202 2541 -1451 208 -53 224 -62 52 -29 -1725 329 -3420 1295 -4375 2495
-1136 1426 -1695 3360 -1523 5265 83 912 342 1869 788 2909 291 680 553 1200
1325 2635 354 659 534 1002 710 1356 75 152 140 273 143 270 3 -3 29 -73 59
-156z m26450 -1146 c-14 -207 -32 -373 -90 -834 -71 -561 -81 -684 -87 -1028
-9 -497 32 -838 144 -1189 107 -339 208 -522 328 -592 23 -14 617 -204 1331
-427 709 -220 1290 -402 1292 -404 7 -6 -70 -139 -112 -193 -144 -187 -341
-307 -946 -575 -1108 -491 -2076 -994 -3070 -1597 -157 -95 -300 -182 -317
-192 -39 -24 -35 -32 -63 122 -98 529 -341 1118 -650 1580 -172 257 -350 470
-586 700 -215 210 -376 337 -720 565 -386 257 -483 349 -527 501 l-15 51 146
7 c468 23 819 119 1099 302 124 80 174 124 276 243 422 491 1099 1614 1435
2376 l61 140 143 65 c293 134 584 297 818 458 63 43 116 78 118 77 1 -1 -2
-72 -8 -156z m-25901 -204 c153 -32 278 -101 396 -220 258 -257 419 -701 525
-1445 17 -118 35 -231 40 -250 6 -19 9 -53 9 -75 l-1 -40 -15 50 c-245 847
-626 1434 -1186 1830 l-68 48 37 38 c46 47 107 78 156 79 20 0 68 -7 107 -15z
m-449 -1061 c47 -49 106 -116 132 -149 l46 -61 -78 -114 c-199 -294 -330 -604
-400 -947 -41 -199 -13 -310 109 -434 91 -91 149 -114 291 -114 97 0 110 2
172 32 80 38 156 109 193 183 14 28 35 93 46 143 23 111 80 297 89 297 4 0 10
-12 13 -27 4 -16 17 -77 31 -138 14 -60 38 -184 54 -275 33 -186 56 -243 128
-320 97 -104 254 -152 392 -120 69 16 130 49 187 102 l54 49 5 -33 c2 -18 14
-197 26 -398 27 -475 59 -935 121 -1735 108 -1412 194 -2251 320 -3144 22
-156 38 -290 35 -296 -7 -19 -134 -45 -215 -45 -100 0 -163 16 -266 65 -115
56 -196 118 -316 242 -183 189 -323 398 -499 748 -240 475 -425 996 -594 1672
-199 797 -318 1574 -388 2548 -18 245 -18 1294 0 1500 29 341 87 765 123 898
l10 38 47 -39 c26 -22 85 -80 132 -128z m27596 -5201 c-3 -10 -14 -54 -25 -98
-105 -419 -340 -859 -644 -1208 -33 -37 -61 -66 -63 -64 -9 8 227 1009 266
1132 9 27 35 43 232 142 123 62 227 112 231 112 5 1 6 -7 3 -16z m-1505 -990
c-249 -1133 -408 -2282 -476 -3448 -47 -801 -48 -1688 -4 -2498 l11 -208 -41
-86 c-312 -649 -1858 -2130 -4036 -3865 -1174 -934 -2461 -1877 -3025 -2215
-513 -307 -1195 -536 -1815 -608 -443 -52 -999 -10 -1336 101 l-47 15 -6 1022
c-4 562 -8 1581 -9 2265 l-2 1242 235 0 c833 0 1821 108 2288 250 414 126 791
332 1117 612 344 295 907 843 1220 1188 483 532 832 975 969 1230 100 188 195
453 240 672 26 128 81 550 116 892 11 110 21 200 23 202 1 1 72 -32 157 -75
300 -149 599 -281 1095 -482 160 -65 293 -115 296 -111 3 4 50 135 104 292
255 744 549 1526 850 2260 229 559 250 605 271 602 183 -29 233 -14 477 146
507 330 1361 851 1375 838 2 -2 -19 -107 -47 -233z m-5432 -3358 c-27 -271
-71 -627 -80 -651 -5 -13 -24 -27 -51 -36 l-43 -15 1 395 1 395 94 48 c52 26
94 46 95 45 1 0 -7 -82 -17 -181z m-2056 -372 c32 -199 33 -571 2 -773 -33
-219 -95 -420 -129 -420 -15 0 -20 40 -31 255 -9 174 -33 423 -61 635 -14 107
-28 216 -31 242 l-5 46 78 26 c44 14 100 25 125 26 46 0 46 0 52 -37z m1048
-190 c-12 -224 -32 -413 -50 -481 -6 -21 -21 -48 -33 -59 -23 -21 -100 -63
-116 -63 -4 0 -4 35 1 78 10 96 13 529 3 597 l-7 50 103 51 c57 29 105 50 107
48 2 -1 -2 -101 -8 -221z m-4132 20 c39 -309 45 -397 45 -688 1 -301 -12 -459
-46 -555 l-11 -33 -61 6 c-34 3 -82 13 -108 23 l-48 16 0 653 0 654 48 4 c26
2 75 4 108 5 l61 2 12 -87z m945 -18 c49 -8 93 -18 97 -22 8 -9 35 -283 49
-498 5 -82 10 -275 10 -427 l0 -278 -62 0 c-88 1 -184 22 -181 41 39 291 38
686 -2 1057 -8 74 -15 136 -15 138 0 6 6 5 104 -11z m1085 -157 c44 -338 71
-674 71 -881 l0 -138 -32 -13 c-18 -7 -54 -16 -79 -19 l-46 -6 -6 332 c-6 294
-25 644 -43 764 l-6 42 38 4 c100 10 90 18 103 -85z m-3369 -688 c47 -6 129
-20 183 -32 l97 -21 0 -132 0 -131 -82 12 c-103 16 -335 17 -448 4 -390 -49
-770 -197 -1260 -492 -113 -68 -218 -133 -235 -143 -70 -47 292 396 419 511
252 228 598 383 942 423 102 12 288 12 384 1z m5703 -530 c-66 -78 -68 -79
-74 -53 -13 57 -11 61 59 96 37 19 70 35 75 35 4 1 -23 -34 -60 -78z m-873
-367 c0 -10 15 -127 33 -260 l33 -242 -108 -108 c-59 -59 -109 -105 -111 -102
-2 2 -11 92 -21 199 -9 107 -25 257 -34 333 l-18 139 36 15 c29 13 130 37 178
42 6 0 12 -7 12 -16z m-4642 -253 l92 -22 0 -43 0 -42 -77 -7 c-192 -16 -630
-2 -728 23 -27 7 -20 11 80 44 97 31 205 57 300 71 66 10 244 -3 333 -24z
m3557 9 c51 -13 46 2 70 -229 25 -242 35 -414 42 -666 l6 -241 -54 -30 c-63
-36 -251 -118 -293 -129 l-29 -7 6 134 c3 74 11 301 17 504 18 610 20 635 39
635 9 0 43 9 76 19 74 24 68 23 120 10z m-1341 -79 c128 -8 192 -8 228 0 28 6
53 8 56 5 13 -12 -38 -1379 -52 -1392 -3 -4 -333 -38 -427 -45 l-46 -3 4 85
c5 122 43 1277 43 1328 0 24 4 41 8 38 5 -3 89 -10 186 -16z m-1082 -54 l47
-31 1 -70 c0 -38 -9 -324 -20 -635 -11 -311 -20 -589 -20 -617 l0 -53 -105 0
-105 0 0 724 0 724 78 -5 c64 -4 85 -10 124 -37z m-12549 -163 c-7 -2 -19 -2
-25 0 -7 3 -2 5 12 5 14 0 19 -2 13 -5z m54 -9 c-3 -3 -12 -4 -19 -1 -8 3 -5
6 6 6 11 1 17 -2 13 -5z m9871 -479 c264 -78 504 -127 800 -162 154 -18 708
-25 765 -10 l27 7 0 -489 0 -489 -52 -12 c-190 -40 -551 -52 -783 -25 -566 66
-1077 301 -1487 682 -109 101 -269 276 -260 284 4 4 39 17 77 29 115 37 290
115 459 203 l160 83 89 -33 c49 -18 141 -48 205 -68z m11449 -2400 c136 -57
210 -210 201 -415 -7 -144 -31 -200 -97 -228 -150 -65 -644 -94 -966 -57 -77
9 -150 19 -162 22 -18 4 17 38 220 213 133 114 314 270 401 347 l159 140 105
-4 c59 -2 120 -10 139 -18z m-1889 -1511 c139 -209 269 -468 358 -713 51 -140
124 -414 124 -465 0 -91 -108 -394 -221 -616 -63 -125 -214 -369 -236 -383 -6
-4 -15 24 -22 66 -18 109 -78 348 -121 477 -132 401 -339 787 -589 1099 -28
35 -51 66 -51 70 1 3 72 61 158 128 86 68 240 190 342 272 102 82 190 149 195
147 6 -1 34 -38 63 -82z m2089 20 c-3 -3 -12 -4 -19 -1 -8 3 -5 6 6 6 11 1 17
-2 13 -5z m-60 -10 c-3 -3 -12 -4 -19 -1 -8 3 -5 6 6 6 11 1 17 -2 13 -5z
m-162 -39 c-204 -57 -428 -156 -644 -284 l-99 -59 -38 92 c-20 50 -54 129 -76
175 l-38 84 43 -7 c23 -3 132 -9 242 -12 204 -7 451 6 610 31 128 20 128 16 0
-20z m605 -775 c102 -17 201 -69 279 -147 82 -82 129 -157 112 -177 -16 -19
-242 -120 -374 -167 -267 -96 -620 -159 -893 -159 l-80 0 -31 68 c-17 37 -47
95 -67 129 l-35 62 117 74 c429 270 702 359 972 317z m-3791 -305 c263 -345
447 -786 516 -1235 19 -124 31 -449 20 -573 l-7 -86 -80 -52 c-526 -337 -1104
-538 -1738 -605 -197 -20 -650 -15 -840 10 -437 58 -822 170 -1215 355 l-110
52 6 97 c4 53 7 114 8 135 1 24 6 37 14 37 26 0 383 123 537 185 224 90 458
201 618 293 392 225 1101 719 1967 1371 l200 150 18 -22 c10 -12 48 -63 86
-112z m2273 -1351 c30 -171 33 -585 6 -729 -22 -115 -62 -255 -94 -324 -64
-142 -396 -463 -584 -565 l-47 -26 -28 113 c-35 142 -112 376 -164 498 -23 52
-41 97 -41 100 0 3 46 44 103 90 187 153 411 388 575 605 66 88 198 288 226
342 10 19 19 32 21 30 3 -2 15 -62 27 -134z m2169 -557 c70 -34 142 -110 177
-185 33 -72 38 -178 9 -210 -74 -82 -625 -223 -1077 -277 -171 -20 -556 -33
-546 -17 3 6 21 65 39 132 l34 122 104 39 c57 22 246 109 419 193 173 85 335
161 360 171 187 72 375 84 481 32z m-3767 -1025 c127 -408 163 -897 104 -1409
l-12 -102 -143 -66 c-469 -215 -994 -368 -1528 -444 -503 -72 -1098 -72 -1600
0 -304 43 -636 120 -919 212 l-131 43 -3 160 c-4 187 13 788 33 1199 8 160 15
295 15 301 0 7 46 -6 110 -31 778 -307 1619 -404 2440 -280 486 73 1007 240
1435 461 77 40 145 72 151 73 6 1 27 -52 48 -117z m1780 -627 c123 -282 202
-589 241 -947 9 -81 19 -278 22 -456 l6 -313 -66 -97 c-89 -132 -204 -268
-325 -384 -105 -100 -281 -242 -290 -234 -3 3 -13 61 -23 128 -59 383 -202
770 -401 1080 l-49 77 15 98 c25 157 46 385 53 560 l6 162 161 81 c196 97 337
184 476 294 89 71 107 81 117 69 6 -9 32 -62 57 -118z m2630 -1160 c134 -35
302 -150 397 -271 50 -63 89 -124 89 -137 0 -5 -48 -31 -107 -59 -442 -206
-870 -332 -1338 -392 -124 -16 -381 -36 -472 -36 l-53 0 -28 58 c-26 53 -28
64 -24 148 l4 92 66 28 c119 49 272 129 507 264 337 193 501 267 675 304 87
19 213 19 284 1z m-4088 -655 c231 -448 285 -1011 141 -1471 l-22 -73 -110
-48 c-1224 -546 -2618 -702 -3900 -437 -151 31 -489 115 -503 124 -5 4 -41
290 -66 535 -30 282 -51 536 -65 800 -6 102 -13 226 -16 277 l-6 92 68 -20
c842 -244 1782 -310 2668 -188 555 76 1206 256 1645 454 52 24 101 42 109 42
7 -1 33 -40 57 -87z m2003 -1018 c61 -261 87 -525 78 -812 -11 -345 -23 -397
-136 -580 -113 -182 -275 -360 -451 -496 l-95 -74 -12 106 c-36 332 -171 647
-367 862 -34 37 -77 86 -95 110 l-33 42 32 103 c17 56 35 110 38 119 4 9 61
44 127 76 294 145 640 388 835 586 24 25 47 46 51 46 4 0 17 -40 28 -88z
m3868 -1148 c-3 -3 -12 -4 -19 -1 -8 3 -5 6 6 6 11 1 17 -2 13 -5z m-5607
-242 c0 -4 38 -50 85 -102 162 -180 222 -352 212 -610 -3 -74 -10 -151 -16
-170 -5 -19 -15 -54 -21 -77 -11 -44 -86 -143 -155 -205 -92 -82 -253 -176
-445 -261 -313 -137 -673 -230 -1100 -284 -172 -21 -693 -24 -850 -5 -418 52
-742 144 -1066 302 -343 168 -645 405 -888 696 -113 135 -233 304 -216 304 5
0 50 -9 98 -19 650 -145 1471 -188 2182 -115 628 64 1263 213 1855 434 116 43
230 88 255 99 48 22 70 26 70 13z m2760 -177 c324 -27 611 -59 598 -66 -7 -3
-49 -14 -93 -24 -129 -27 -639 -151 -778 -188 l-128 -35 16 25 c35 52 79 131
121 215 36 71 48 88 67 88 12 0 101 -7 197 -15z"/>
<path d="M29430 36433 c-645 -34 -1232 -271 -1855 -748 -231 -177 -422 -351
-748 -677 -181 -181 -327 -331 -325 -333 2 -2 109 49 238 114 614 306 1224
481 1930 551 177 18 638 24 825 11 533 -38 906 -118 1469 -316 477 -167 953
-366 2104 -879 823 -367 1301 -566 1687 -704 213 -75 453 -148 462 -139 12 13
6 419 -10 642 -9 121 -18 276 -21 343 -2 68 -8 127 -12 131 -26 23 -1050 498
-1629 756 -1136 506 -1931 824 -2482 990 -649 197 -1188 282 -1633 258z"/>
<path d="M30375 33574 c-22 -2 -103 -8 -180 -14 -726 -56 -1508 -265 -2151
-575 -111 -54 -148 -77 -194 -123 -101 -102 -144 -237 -116 -371 19 -90 47
-143 112 -211 114 -120 288 -160 440 -102 l49 18 116 -240 c100 -207 114 -242
100 -250 -9 -5 -81 -47 -160 -94 -114 -68 -145 -82 -152 -71 -55 81 -94 162
-123 252 -20 60 -44 123 -55 141 -34 54 -127 135 -188 164 -52 24 -69 27 -168
27 -103 0 -114 -2 -177 -32 -88 -41 -160 -113 -201 -201 -30 -63 -32 -74 -32
-177 1 -97 5 -121 33 -205 41 -120 116 -277 176 -370 25 -39 46 -73 46 -77 0
-6 -26 -28 -52 -43 -23 -13 -140 83 -283 232 -66 69 -128 124 -155 138 -148
76 -316 63 -447 -34 -178 -131 -220 -386 -94 -569 48 -70 221 -247 332 -339
214 -177 516 -355 644 -380 50 -9 69 -19 110 -57 628 -581 1653 -1081 2600
-1270 368 -74 616 -96 992 -88 370 7 649 45 1006 136 879 224 1738 695 2477
1357 206 184 239 225 274 343 41 140 -7 308 -119 409 -94 85 -490 360 -773
537 l-142 89 28 30 c16 17 39 46 51 63 l22 33 57 -47 c179 -146 407 -144 565
6 154 146 178 376 55 547 -70 98 -484 401 -809 592 -653 385 -1429 654 -2210
767 -331 47 -464 57 -874 60 -214 1 -408 1 -430 -1z m562 -841 c-3 -10 -18
-65 -33 -123 -15 -58 -34 -111 -42 -117 -9 -7 -39 -13 -66 -13 -28 0 -98 -7
-156 -15 -151 -21 -140 -24 -140 39 0 52 25 220 36 237 3 5 95 9 206 9 186 0
200 -1 195 -17z m-1274 -295 l-3 -211 -172 -68 c-95 -38 -173 -67 -174 -66 -5
6 -93 186 -145 294 l-58 123 67 19 c93 28 289 77 397 100 50 11 90 20 90 20 1
1 0 -94 -2 -211z m2392 155 c83 -19 152 -37 154 -39 2 -2 -16 -25 -40 -51 -24
-27 -61 -71 -82 -99 l-37 -51 -114 28 c-63 15 -135 31 -161 34 -25 4 -48 12
-51 17 -6 9 52 140 83 187 18 28 29 27 248 -26z m1136 -414 l121 -60 -49 -52
c-26 -29 -62 -69 -79 -90 l-31 -38 -116 52 -116 52 48 53 c27 29 59 74 71 99
12 25 24 45 26 45 2 0 59 -27 125 -61z m-1249 -663 c136 -40 346 -111 356
-121 7 -7 -51 -191 -95 -300 -24 -60 -66 -152 -93 -204 -47 -87 -154 -256
-170 -266 -4 -2 0 24 8 58 22 88 21 356 -1 456 -33 144 -90 285 -151 374 -14
21 -26 40 -26 42 0 9 21 5 172 -39z m-1860 -78 c-37 -66 -79 -181 -98 -273
-35 -168 -9 -428 60 -601 l32 -82 -28 21 c-15 11 -52 48 -82 82 -182 206 -288
429 -331 696 l-5 37 127 51 c155 62 347 130 352 126 2 -2 -10 -28 -27 -57z
m3147 -480 c167 -93 375 -218 539 -325 l113 -73 -51 -41 c-481 -380 -1116
-715 -1655 -873 -81 -23 -112 -29 -95 -18 430 293 756 735 945 1284 20 57 37
109 40 116 2 6 7 12 11 12 3 0 72 -37 153 -82z m-4330 -168 c120 -358 327
-667 626 -938 l80 -73 -55 21 c-312 121 -628 282 -895 457 -137 90 -385 272
-385 283 0 12 580 385 586 377 1 -1 20 -58 43 -127z"/>
<path d="M35899 30556 c-153 -43 -268 -168 -300 -329 -9 -43 -8 -90 5 -219
112 -1136 47 -2268 -190 -3327 -39 -178 -42 -247 -14 -332 60 -176 214 -289
396 -289 176 0 339 117 393 282 25 80 81 338 125 589 90 505 140 950 167 1469
30 597 -18 1725 -82 1896 -76 202 -295 316 -500 260z"/>
<path d="M26270 27419 c-75 -15 -163 -64 -219 -124 -119 -126 -149 -302 -77
-460 31 -69 65 -105 251 -270 762 -674 1597 -1325 2465 -1922 268 -185 649
-434 709 -464 298 -151 650 109 594 437 -13 74 -48 151 -93 206 -18 22 -187
141 -413 291 -975 650 -1816 1292 -2646 2021 -261 230 -253 223 -314 251 -89
41 -167 52 -257 34z"/>
<path d="M25889 25757 c-172 -59 -282 -212 -281 -392 0 -121 47 -232 129 -306
56 -51 1539 -1124 1583 -1146 180 -88 405 -26 521 144 110 160 86 397 -53 530
-42 40 -1533 1125 -1578 1148 -95 49 -217 57 -321 22z"/>
<path d="M42342 47959 c-61 -12 -148 -53 -198 -94 -114 -94 -170 -273 -130
-420 21 -82 50 -127 149 -236 439 -485 1083 -864 1742 -1027 159 -39 190 -43
259 -32 139 22 260 113 319 237 59 128 46 293 -33 408 -36 53 -98 109 -150
135 -22 11 -102 37 -178 56 -334 85 -606 206 -887 395 -157 106 -258 191 -425
359 -169 169 -211 198 -324 219 -67 12 -83 12 -144 0z"/>
<path d="M44839 47705 c-78 -21 -137 -56 -193 -115 -86 -90 -118 -171 -117
-295 1 -161 84 -291 244 -376 97 -52 284 -180 387 -267 224 -187 432 -442 570
-697 65 -120 105 -170 170 -213 113 -76 263 -92 393 -42 66 25 162 108 200
173 58 99 73 231 38 335 -44 129 -230 428 -397 637 -182 228 -464 486 -714
654 -302 202 -430 248 -581 206z"/>
<path d="M42453 46175 c-146 -41 -246 -135 -293 -276 -18 -51 -21 -81 -18
-149 7 -148 59 -230 235 -373 243 -198 476 -527 601 -850 63 -161 67 -144 -40
-152 -385 -28 -752 -130 -1308 -364 -211 -88 -271 -125 -325 -199 -183 -249
-50 -594 255 -658 106 -22 160 -9 420 100 514 214 790 286 1106 286 288 0 399
-34 702 -217 305 -185 443 -247 645 -290 120 -26 335 -23 442 6 177 48 278
122 338 249 30 63 32 74 32 177 0 99 -3 116 -27 168 -86 183 -303 287 -484
232 -129 -39 -220 -10 -492 158 -75 47 -177 107 -226 134 l-89 48 -27 135
c-29 140 -76 309 -116 417 l-24 62 63 20 c190 58 425 91 692 96 263 4 325 24
429 134 148 159 147 406 -3 564 -101 107 -193 137 -418 137 -357 0 -697 -54
-1043 -166 l-135 -44 -20 28 c-152 208 -498 525 -622 572 -75 28 -182 35 -250
15z"/>
<path d="M46042 45521 c-171 -64 -281 -218 -282 -397 0 -60 30 -163 62 -215
13 -20 182 -225 375 -455 368 -438 399 -468 505 -505 66 -23 186 -25 255 -4
268 80 381 421 212 644 -107 142 -712 851 -746 874 -77 53 -132 71 -233 74
-75 3 -106 -1 -148 -16z"/>
<path d="M46079 44097 c-155 -53 -254 -170 -281 -331 -13 -80 -2 -160 35 -239
13 -29 77 -115 142 -192 318 -377 561 -749 789 -1205 210 -421 346 -789 457
-1240 58 -232 87 -298 161 -365 217 -195 540 -126 665 141 25 53 28 69 27 164
-1 92 -7 129 -52 300 -115 445 -272 880 -456 1265 l-64 135 41 11 c23 6 64 12
91 13 l50 1 47 -90 c91 -170 149 -337 194 -558 29 -141 66 -216 137 -283 211
-197 540 -130 667 136 23 50 26 66 25 170 0 98 -6 137 -36 260 -82 327 -223
659 -365 858 -141 198 -344 317 -587 342 -128 13 -255 -1 -454 -50 -87 -21
-181 -42 -208 -45 l-50 -7 -47 72 c-97 145 -284 385 -466 598 -122 143 -297
195 -462 139z"/>
<path d="M42128 42951 c-122 -39 -207 -113 -261 -228 -29 -63 -31 -74 -38
-242 -4 -97 -8 -258 -8 -357 l-1 -181 -37 -26 c-60 -41 -181 -94 -268 -115
-166 -42 -332 -60 -780 -87 -548 -32 -851 -74 -1133 -155 -500 -145 -910 -420
-1143 -768 -64 -96 -82 -160 -77 -271 3 -71 10 -99 36 -154 39 -85 110 -155
199 -199 64 -31 74 -33 173 -33 170 1 247 43 370 205 173 227 457 381 850 460
186 37 349 55 750 80 625 39 822 66 1075 147 190 61 377 161 525 282 35 28 40
29 415 70 666 74 655 71 764 176 247 236 127 636 -213 707 -48 10 -92 8 -309
-16 -138 -16 -275 -31 -304 -34 l-52 -4 -3 223 c-4 265 -13 300 -103 397 -114
124 -278 170 -427 123z"/>
<path d="M46385 41873 c-77 -28 -139 -68 -184 -119 -72 -82 -87 -127 -131
-386 -82 -488 -159 -731 -303 -951 -104 -159 -247 -285 -384 -337 -89 -34
-224 -59 -360 -66 l-123 -7 0 79 c0 43 -7 110 -15 148 -70 329 -484 440 -714
191 -92 -100 -114 -184 -105 -402 l7 -163 -180 0 c-207 0 -249 -9 -342 -71
-181 -121 -236 -378 -120 -561 43 -67 110 -125 186 -160 64 -30 71 -31 277
-40 116 -5 312 -8 436 -6 220 3 226 4 283 30 31 15 81 50 110 77 l54 51 160 0
c89 0 207 5 264 10 549 56 965 311 1270 778 210 323 334 703 434 1337 24 151
26 177 16 234 -26 142 -104 247 -228 308 -68 33 -85 38 -167 40 -68 3 -103 -1
-141 -14z"/>
<path d="M44147 41694 c-56 -17 -248 -144 -405 -267 -297 -233 -585 -528 -814
-832 -68 -90 -123 -173 -309 -460 -72 -111 -137 -176 -209 -209 -77 -35 -215
-51 -361 -42 l-117 8 -42 38 c-23 21 -63 49 -88 63 -26 14 -267 94 -537 178
-436 135 -498 152 -560 152 -168 0 -325 -107 -388 -265 -16 -41 -21 -75 -21
-148 0 -112 22 -180 85 -260 61 -77 126 -115 289 -166 l144 -46 -24 -18 c-133
-97 -261 -205 -292 -245 -81 -107 -101 -275 -49 -408 65 -167 266 -279 447
-249 115 19 129 28 727 490 l95 73 129 -15 c71 -9 159 -16 195 -16 l67 0 5
-32 c3 -18 7 -70 8 -115 l3 -82 -92 -41 c-234 -106 -524 -286 -738 -457 -124
-99 -351 -316 -463 -443 -43 -49 -88 -113 -106 -150 -29 -61 -31 -72 -31 -175
0 -98 3 -116 27 -168 31 -66 112 -155 172 -191 119 -69 266 -74 392 -11 65 32
88 52 194 168 189 207 378 366 603 507 115 72 367 201 394 202 10 0 106 -40
213 -90 250 -115 474 -204 758 -300 223 -76 229 -77 327 -77 92 0 106 3 168
32 169 80 272 269 239 443 -22 118 -83 216 -177 280 -24 17 -131 59 -254 100
-302 100 -746 279 -777 313 -7 7 -16 101 -23 232 -6 121 -14 230 -17 241 -5
17 6 30 53 67 32 25 98 86 146 137 82 86 121 141 331 465 243 375 565 710 925
963 69 48 146 106 172 130 125 114 163 312 90 468 -34 72 -104 152 -165 188
-93 54 -237 71 -339 40z"/>
<path d="M52440 34840 c-113 -41 -197 -118 -248 -228 -24 -51 -27 -69 -27
-167 0 -134 16 -175 122 -308 153 -192 241 -400 274 -645 13 -96 6 -319 -12
-392 -17 -72 -13 -172 10 -242 65 -194 273 -315 470 -274 90 19 143 47 211
112 71 68 106 138 131 264 78 405 21 855 -158 1255 -109 241 -312 521 -426
588 -100 59 -244 74 -347 37z"/>
<path d="M40335 35503 c-151 -32 -440 -237 -696 -492 -232 -233 -383 -439
-524 -716 -118 -234 -182 -428 -169 -517 24 -174 130 -308 283 -359 95 -32
222 -24 312 19 89 42 166 125 204 218 146 355 248 522 450 732 131 137 213
205 366 305 63 41 133 95 156 119 149 154 149 403 0 565 -91 99 -256 153 -382
126z"/>
<path d="M42306 27210 c-297 -37 -567 -180 -821 -435 -184 -184 -232 -276
-223 -429 6 -95 33 -174 80 -230 18 -22 183 -177 368 -345 359 -327 393 -351
516 -371 64 -11 114 -6 189 17 59 19 74 28 180 107 377 281 561 544 635 906
50 248 13 406 -127 530 -205 183 -526 283 -797 250z"/>
<path d="M23395 28586 c-242 -77 -359 -322 -267 -561 47 -120 55 -167 54 -315
0 -133 -7 -192 -57 -505 -39 -250 -51 -449 -37 -610 38 -419 225 -763 518
-951 85 -55 166 -77 259 -71 121 7 185 35 271 121 87 87 115 151 122 273 7
149 -52 270 -176 361 -170 123 -199 332 -119 847 50 315 61 443 54 620 -10
289 -91 555 -204 676 -53 57 -108 91 -182 113 -64 19 -179 20 -236 2z"/>
<path d="M61820 5900 c-362 -44 -716 -173 -1005 -365 -113 -75 -311 -238 -360
-297 -15 -18 -45 -52 -67 -76 l-39 -42 -137 19 c-189 28 -454 43 -657 39 -218
-4 -256 -18 -361 -122 -86 -86 -114 -150 -121 -271 -9 -147 56 -277 183 -365
79 -56 138 -67 379 -74 554 -16 843 -83 1095 -252 102 -68 218 -195 263 -286
62 -126 66 -276 11 -399 -41 -91 -87 -125 -251 -188 -173 -67 -292 -128 -363
-186 -30 -25 -85 -66 -122 -91 -111 -75 -133 -106 -218 -308 -278 -662 -786
-1299 -1357 -1702 -165 -116 -211 -169 -248 -283 -26 -80 -18 -217 17 -294 52
-111 159 -199 283 -232 75 -19 125 -19 200 0 75 20 131 53 300 180 621 466
1148 1104 1473 1784 45 94 79 151 112 186 25 28 54 64 65 82 16 27 38 39 154
84 225 86 331 146 444 249 l56 52 163 14 c542 46 908 131 1224 284 494 239
843 671 940 1166 24 119 24 338 1 457 -102 515 -527 944 -1129 1142 -224 73
-372 97 -633 100 -121 2 -254 0 -295 -5z m531 -850 c220 -45 416 -146 554
-284 110 -111 147 -186 153 -311 4 -78 1 -101 -23 -170 -99 -295 -374 -508
-785 -608 -94 -23 -205 -44 -327 -61 l-43 -6 0 36 c0 142 -63 380 -141 536
-106 212 -326 461 -519 589 l-25 16 88 57 c190 124 417 203 662 230 88 9 304
-3 406 -24z"/>
<path d="M50810 4349 c-598 -44 -1219 -170 -1955 -394 -431 -132 -785 -256
-1615 -565 -1301 -485 -1915 -672 -2610 -796 -436 -77 -674 -99 -1100 -99
-373 1 -483 9 -814 64 -198 33 -248 31 -351 -18 -84 -39 -157 -112 -198 -199
-30 -62 -32 -75 -32 -172 0 -132 22 -194 100 -279 92 -99 162 -126 440 -170
520 -83 1162 -86 1698 -11 62 9 72 8 96 -10 32 -22 265 -103 463 -161 443
-128 943 -211 1528 -256 184 -13 355 -17 790 -17 570 -1 643 2 1515 54 1042
62 1078 64 1660 64 573 1 690 -4 1100 -45 1211 -122 2386 -464 3495 -1019 122
-61 249 -118 283 -127 157 -40 342 35 433 175 22 34 57 71 82 87 104 67 182
216 182 348 0 93 -78 258 -368 782 -516 932 -989 1520 -1567 1948 -631 467
-1436 746 -2364 817 -157 12 -723 11 -891 -1z m970 -844 c540 -58 958 -177
1374 -388 593 -301 1061 -781 1542 -1578 46 -77 91 -154 99 -170 l16 -30 -38
16 c-929 395 -1947 668 -2943 789 -489 60 -825 79 -1375 79 -535 0 -702 -7
-1955 -83 -179 -11 -408 -22 -510 -25 l-185 -5 220 40 c121 22 425 78 675 125
795 148 1112 192 1700 237 211 16 755 15 930 -1 439 -40 830 -123 1242 -263
137 -46 162 -51 238 -51 407 1 564 530 226 759 -34 23 -116 56 -246 98 -883
290 -1652 364 -2734 265 -121 -11 -309 -31 -419 -45 -110 -13 -202 -23 -204
-21 -5 6 423 111 577 142 332 67 610 104 980 129 127 9 653 -4 790 -19z
m-3987 -1402 c-7 -2 -21 -2 -30 0 -10 3 -4 5 12 5 17 0 24 -2 18 -5z"/>
<path d="M35467 3659 c-107 -25 -203 -101 -273 -218 -254 -418 -749 -691
-1411 -777 -156 -21 -526 -24 -693 -6 -199 22 -388 51 -615 97 -199 40 -349
74 -1075 251 -264 64 -659 145 -850 173 -852 127 -1766 113 -2880 -45 -488
-69 -836 -130 -1806 -319 -1462 -285 -1985 -363 -2789 -416 -235 -16 -884 -16
-1100 0 -1042 74 -1789 302 -2550 779 -204 128 -483 46 -591 -173 -80 -164
-42 -362 95 -487 130 -119 606 -374 962 -515 603 -239 1184 -367 1969 -434
204 -17 849 -23 1115 -10 857 42 1436 124 3015 431 1442 280 1978 362 2760
422 220 17 968 17 1165 0 513 -44 764 -90 1580 -287 661 -160 801 -191 1091
-240 497 -83 974 -97 1374 -39 268 39 526 106 764 201 325 128 593 296 819
512 169 162 331 371 399 517 108 231 -9 499 -251 575 -66 20 -158 24 -224 8z"/>
<path d="M62805 2876 c-81 -19 -268 -85 -450 -158 -921 -372 -1749 -1041
-2304 -1863 -171 -253 -201 -317 -201 -430 1 -159 101 -315 247 -383 52 -24
70 -27 168 -27 103 0 114 2 177 32 89 42 146 102 235 244 262 421 676 856
1110 1167 341 244 716 437 1107 571 96 33 188 67 204 75 63 32 131 107 169
184 36 73 38 80 38 176 -1 117 -20 179 -82 260 -94 123 -269 186 -418 152z"/>
</g>
</svg>
