<?xml version="1.0" encoding="UTF-8"?>
<!DOCTYPE svg PUBLIC "-//W3C//DTD SVG 1.1//EN" "http://www.w3.org/Graphics/SVG/1.1/DTD/svg11.dtd">
<svg xmlns="http://www.w3.org/2000/svg" version="1.1" width="7681px" height="5437px" style="shape-rendering:geometricPrecision; text-rendering:geometricPrecision; image-rendering:optimizeQuality; fill-rule:evenodd; clip-rule:evenodd" xmlns:xlink="http://www.w3.org/1999/xlink">
<g><path style="opacity:0.985" fill="#000000" d="M 1065.5,-0.5 C 1069.83,-0.5 1074.17,-0.5 1078.5,-0.5C 1108.9,1.61347 1134.73,13.6135 1156,35.5C 1176.37,60.9677 1181.37,89.301 1171,120.5C 1162.41,145.916 1146.91,165.916 1124.5,180.5C 1136.96,198.468 1151.46,214.802 1168,229.5C 1174.99,237.47 1180.99,246.136 1186,255.5C 1188.3,267.606 1184.8,277.773 1175.5,286C 1165.32,292.401 1155.65,291.735 1146.5,284C 1122.17,255.667 1097.83,227.333 1073.5,199C 1062.85,199.72 1052.19,200.554 1041.5,201.5C 1041.67,223.836 1041.5,246.169 1041,268.5C 1033.92,284.624 1021.75,291.124 1004.5,288C 997.925,285.031 994.758,279.864 995,272.5C 994.667,263.167 994.333,253.833 994,244.5C 993.833,186.83 993.333,129.164 992.5,71.5C 982.325,65.8421 978.158,57.1755 980,45.5C 981.504,34.659 987.004,26.4924 996.5,21C 1018.33,9.634 1041.33,2.46733 1065.5,-0.5 Z M 1061.5,51.5 C 1080.87,49.592 1098.54,54.092 1114.5,65C 1124.68,75.2042 1128.18,87.3709 1125,101.5C 1117.26,123.567 1102.1,137.734 1079.5,144C 1066.95,146.721 1054.29,148.554 1041.5,149.5C 1041.5,118.5 1041.5,87.5 1041.5,56.5C 1048.28,54.8059 1054.94,53.1392 1061.5,51.5 Z"/></g>
<g><path style="opacity:0.983" fill="#000000" d="M 1657.5,5.5 C 1670.99,4.83339 1680.16,10.8334 1685,23.5C 1686.65,105.902 1684.98,188.235 1680,270.5C 1675.88,281.157 1668.04,286.824 1656.5,287.5C 1649.23,287.249 1643.07,284.582 1638,279.5C 1603.19,220.373 1564.86,163.706 1523,109.5C 1522.97,163.525 1522.3,217.525 1521,271.5C 1515.19,290.003 1503.36,295.17 1485.5,287C 1479.28,282.385 1475.78,276.218 1475,268.5C 1474.8,195.495 1474.3,122.495 1473.5,49.5C 1473.67,42.1441 1474.17,34.8108 1475,27.5C 1479.86,17.3078 1488.03,11.9745 1499.5,11.5C 1505.38,11.8476 1510.71,13.6809 1515.5,17C 1527.15,29.6417 1537.65,43.1417 1547,57.5C 1578.2,95.5698 1607.2,135.236 1634,176.5C 1635.98,126.87 1636.98,77.203 1637,27.5C 1640,16.4208 1646.84,9.08749 1657.5,5.5 Z"/></g>
<g><path style="opacity:0.982" fill="#000000" d="M 2310.5,5.5 C 2325.48,4.97201 2334.98,11.972 2339,26.5C 2340.09,108.581 2338.09,190.581 2333,272.5C 2325.44,286.02 2314.27,290.187 2299.5,285C 2295.76,283.262 2292.59,280.762 2290,277.5C 2256.05,219.24 2218.38,163.573 2177,110.5C 2176.67,159.167 2176.33,207.833 2176,256.5C 2176.29,265.722 2174.29,274.389 2170,282.5C 2161.48,290.907 2151.65,292.74 2140.5,288C 2134.57,283.98 2130.74,278.48 2129,271.5C 2128.37,190.832 2128.03,110.166 2128,29.5C 2132.04,17.9693 2140.21,11.9693 2152.5,11.5C 2157.82,11.9421 2162.82,13.4421 2167.5,16C 2172.7,20.8653 2177.53,26.0319 2182,31.5C 2203.28,60.4502 2224.95,89.1169 2247,117.5C 2261.06,137.226 2274.72,157.226 2288,177.5C 2289.16,126.838 2290.16,76.1709 2291,25.5C 2294.35,15.6498 2300.85,8.98314 2310.5,5.5 Z"/></g>
<g><path style="opacity:0.981" fill="#000000" d="M 1329.5,6.5 C 1377.75,6.30215 1412.58,27.6355 1434,70.5C 1444.1,97.6921 1447.1,125.692 1443,154.5C 1437.29,187.251 1424.96,217.251 1406,244.5C 1365.67,294.803 1316.5,305.303 1258.5,276C 1240.92,264.081 1228.09,248.248 1220,228.5C 1200.94,173.926 1205.28,121.259 1233,70.5C 1245.45,50.3791 1261.62,33.8791 1281.5,21C 1296.62,12.7887 1312.62,7.95534 1329.5,6.5 Z M 1325.5,56.5 C 1355.64,55.1939 1377.47,67.8606 1391,94.5C 1396.71,111.792 1398.04,129.459 1395,147.5C 1390.17,179.664 1376,206.831 1352.5,229C 1318.61,249.905 1290.11,244.071 1267,211.5C 1257.96,194.244 1254.62,175.91 1257,156.5C 1260.02,120.302 1274.85,90.1349 1301.5,66C 1308.87,60.9383 1316.87,57.7716 1325.5,56.5 Z"/></g>
<g><path style="opacity:0.988" fill="#000000" d="M 247.5,9.5 C 260.914,8.4193 269.08,14.4193 272,27.5C 272.5,61.4984 272.667,95.4984 272.5,129.5C 302.833,129.5 333.167,129.5 363.5,129.5C 363.028,96.4508 363.528,63.4508 365,30.5C 371.406,13.0469 383.573,6.88019 401.5,12C 409.564,16.4126 414.064,23.2459 415,32.5C 415.167,65.505 415.667,98.505 416.5,131.5C 430.247,138.663 435.747,149.996 433,165.5C 430.453,174.299 424.953,180.299 416.5,183.5C 415.947,210.862 415.114,238.195 414,265.5C 407.504,285.334 394.67,291.501 375.5,284C 368.672,278.84 364.838,272.007 364,263.5C 363.5,237.169 363.333,210.835 363.5,184.5C 333.167,184.5 302.833,184.5 272.5,184.5C 272.667,211.502 272.5,238.502 272,265.5C 266.918,284.79 255.085,290.957 236.5,284C 229.656,279.151 225.156,272.651 223,264.5C 222.333,187.5 222.333,110.5 223,33.5C 227.111,21.221 235.278,13.221 247.5,9.5 Z"/></g>
<g><path style="opacity:0.983" fill="#000000" d="M 6378.5,12.5 C 6385.39,12.4256 6391.72,14.259 6397.5,18C 6422.91,43.6175 6442.74,73.1175 6457,106.5C 6464.53,122.585 6471.36,138.918 6477.5,155.5C 6493.4,151.628 6505.9,156.295 6515,169.5C 6520.01,187.972 6513.51,200.472 6495.5,207C 6502.56,228.62 6506.39,250.786 6507,273.5C 6500.24,293.133 6487.41,298.966 6468.5,291C 6462.69,286.859 6458.86,281.359 6457,274.5C 6453.9,251.771 6449.07,229.438 6442.5,207.5C 6408.83,207.333 6375.17,207.5 6341.5,208C 6334.83,229.167 6329.33,250.667 6325,272.5C 6319.57,288.969 6308.4,295.802 6291.5,293C 6278.16,285.822 6272.66,274.656 6275,259.5C 6291.93,179.722 6318.59,103.389 6355,30.5C 6360.19,20.7882 6368.02,14.7882 6378.5,12.5 Z M 6385.5,85.5 C 6390.14,91.4256 6394.31,97.7589 6398,104.5C 6406.65,120.805 6414.49,137.471 6421.5,154.5C 6400.17,155.615 6378.84,156.115 6357.5,156C 6366.14,132.213 6375.48,108.713 6385.5,85.5 Z"/></g>
<g><path style="opacity:0.982" fill="#000000" d="M 6147.5,13.5 C 6178.38,12.177 6204.55,22.5103 6226,44.5C 6245.6,70.4595 6247.6,97.7928 6232,126.5C 6228.1,132.459 6223.6,137.959 6218.5,143C 6250.85,166.405 6260.02,196.905 6246,234.5C 6229.93,267.643 6203.43,286.143 6166.5,290C 6141.09,293.664 6115.75,293.331 6090.5,289C 6080.57,285.486 6076.24,278.486 6077.5,268C 6078.47,208.507 6078.8,149.007 6078.5,89.5C 6062.26,86.7452 6054.76,77.0786 6056,60.5C 6059.31,52.0783 6064.47,44.9116 6071.5,39C 6094.8,24.1768 6120.14,15.6768 6147.5,13.5 Z M 6141.5,65.5 C 6159.79,62.2731 6175.29,67.2731 6188,80.5C 6192.96,88.435 6192.63,96.1017 6187,103.5C 6179.17,112.501 6169.33,118.001 6157.5,120C 6148.54,121.165 6139.54,121.665 6130.5,121.5C 6130.33,103.83 6130.5,86.1635 6131,68.5C 6134.56,67.3353 6138.06,66.3353 6141.5,65.5 Z M 6141.5,174.5 C 6157.48,173.186 6172.48,176.352 6186.5,184C 6200.84,193.703 6204.01,206.203 6196,221.5C 6185.77,231.2 6173.6,237.033 6159.5,239C 6149.87,240.244 6140.21,240.744 6130.5,240.5C 6130.5,218.833 6130.5,197.167 6130.5,175.5C 6134.37,175.815 6138.04,175.482 6141.5,174.5 Z"/></g>
<g><path style="opacity:0.986" fill="#000000" d="M 7395.5,13.5 C 7411.11,11.5465 7421.61,17.8798 7427,32.5C 7428.45,114.925 7426.45,197.258 7421,279.5C 7416.38,289.761 7408.38,294.761 7397,294.5C 7388.57,294.783 7381.57,291.783 7376,285.5C 7339.88,226.716 7299.88,170.716 7256,117.5C 7255.96,170.856 7255.29,224.189 7254,277.5C 7249.76,294.874 7238.92,301.374 7221.5,297C 7213.91,293.745 7208.74,288.245 7206,280.5C 7205.15,199.167 7204.82,117.834 7205,36.5C 7208.1,27.0731 7214.6,21.5731 7224.5,20C 7233.76,18.3986 7242.09,20.3986 7249.5,26C 7260.47,37.2983 7270.3,49.4649 7279,62.5C 7312.63,101.455 7343.96,142.122 7373,184.5C 7374.22,168.201 7374.89,151.868 7375,135.5C 7375.33,102.167 7375.67,68.8333 7376,35.5C 7379.2,25.1397 7385.7,17.8064 7395.5,13.5 Z"/></g>
<g><path style="opacity:0.982" fill="#000000" d="M 594.5,14.5 C 616.816,14.9806 626.982,26.3139 625,48.5C 621.078,59.4016 613.245,65.5683 601.5,67C 578.5,67.3333 555.5,67.6667 532.5,68C 525.148,68.463 517.815,69.1296 510.5,70C 509.507,88.757 509.174,107.59 509.5,126.5C 530.86,127.249 552.194,126.416 573.5,124C 599.67,118.633 611.836,129.133 610,155.5C 607.57,164.263 602.07,170.096 593.5,173C 581.68,175.906 569.68,177.573 557.5,178C 541.503,178.5 525.503,178.667 509.5,178.5C 509.5,195.167 509.5,211.833 509.5,228.5C 537.505,231.498 565.172,229.332 592.5,222C 607.434,220.381 617.6,226.548 623,240.5C 625.418,251.913 622.251,261.413 613.5,269C 588.584,277.584 562.918,281.75 536.5,281.5C 517.352,281.095 498.352,279.261 479.5,276C 469.362,272.199 463.196,265.033 461,254.5C 460.833,193.497 460.333,132.497 459.5,71.5C 449.224,61.1778 447.391,49.5112 454,36.5C 462.36,28.0377 472.527,23.2044 484.5,22C 497.058,19.5135 509.725,17.8469 522.5,17C 543.167,16.6667 563.833,16.3333 584.5,16C 588.025,15.8213 591.359,15.3213 594.5,14.5 Z"/></g>
<g><path style="opacity:0.982" fill="#000000" d="M 2069.5,14.5 C 2091.82,14.9806 2101.98,26.3139 2100,48.5C 2096.08,59.4016 2088.25,65.5683 2076.5,67C 2053.5,67.3333 2030.5,67.6667 2007.5,68C 2000.15,68.463 1992.81,69.1296 1985.5,70C 1984.51,88.757 1984.17,107.59 1984.5,126.5C 2005.86,127.293 2027.2,126.46 2048.5,124C 2074.67,118.633 2086.84,129.133 2085,155.5C 2082.57,164.263 2077.07,170.096 2068.5,173C 2056.68,175.906 2044.68,177.573 2032.5,178C 2016.5,178.5 2000.5,178.667 1984.5,178.5C 1984.5,195.167 1984.5,211.833 1984.5,228.5C 2012.51,231.498 2040.17,229.332 2067.5,222C 2082.74,219.924 2092.91,226.09 2098,240.5C 2100.42,251.913 2097.25,261.413 2088.5,269C 2063.58,277.584 2037.92,281.75 2011.5,281.5C 1992.35,281.095 1973.35,279.261 1954.5,276C 1944.36,272.199 1938.2,265.033 1936,254.5C 1935.83,193.497 1935.33,132.497 1934.5,71.5C 1923.75,60.6432 1922.25,48.6432 1930,35.5C 1938.37,27.9013 1948.2,23.4013 1959.5,22C 1972.06,19.5135 1984.72,17.8469 1997.5,17C 2018.17,16.6667 2038.83,16.3333 2059.5,16C 2063.03,15.8213 2066.36,15.3213 2069.5,14.5 Z"/></g>
<g><path style="opacity:0.98" fill="#000000" d="M -0.5,46.5 C -0.5,45.8333 -0.5,45.1667 -0.5,44.5C 0.877932,33.2634 6.5446,24.7634 16.5,19C 34.4515,17.2901 52.4515,16.4567 70.5,16.5C 107.853,17.6534 145.186,17.6534 182.5,16.5C 193.103,19.9357 200.27,26.9357 204,37.5C 206.982,46.5743 205.482,54.741 199.5,62C 197.112,63.8605 194.446,65.1939 191.5,66C 170.282,69.571 148.948,70.4043 127.5,68.5C 127.512,112.002 127.845,155.502 128.5,199C 128.434,224.176 127.934,249.342 127,274.5C 124.758,282.408 119.591,287.241 111.5,289C 99.1146,290.721 89.2812,286.554 82,276.5C 81.3333,274.5 80.6667,272.5 80,270.5C 78.7922,203.174 78.1255,135.841 78,68.5C 64.5752,69.6557 51.0752,69.8223 37.5,69C 27.3264,68.6945 17.6597,66.3612 8.5,62C 2.79072,58.3397 -0.209279,53.173 -0.5,46.5 Z"/></g>
<g><path style="opacity:0.982" fill="#000000" d="M 925.5,16.5 C 938.541,14.1239 949.374,17.7905 958,27.5C 966.104,49.7918 958.604,63.6252 935.5,69C 907.5,70 879.5,71 851.5,72C 853.154,88.0669 853.82,104.234 853.5,120.5C 878.908,121.522 903.908,118.855 928.5,112.5C 947.48,114.803 956.313,125.469 955,144.5C 953.419,150.086 950.252,154.586 945.5,158C 931.546,165.906 916.546,170.239 900.5,171C 884.837,171.5 869.17,171.667 853.5,171.5C 853.667,203.168 853.5,234.835 853,266.5C 847.859,286.372 835.692,293.205 816.5,287C 810.624,282.12 806.791,275.953 805,268.5C 804.667,234.167 804.333,199.833 804,165.5C 793.355,154.854 791.689,142.854 799,129.5C 800.667,127.833 802.333,126.167 804,124.5C 804.667,110.167 804.667,95.8333 804,81.5C 802.569,72.2925 800.236,63.2925 797,54.5C 794.026,39.1669 799.859,29.0002 814.5,24C 823.435,22.4248 832.435,21.4248 841.5,21C 864.845,20.7141 888.179,20.0474 911.5,19C 916.336,18.3196 921.003,17.4862 925.5,16.5 Z"/></g>
<g><path style="opacity:0.98" fill="#000000" d="M 1749.5,16.5 C 1795.19,17.4573 1840.85,17.4573 1886.5,16.5C 1898.71,20.5474 1906.21,28.8807 1909,41.5C 1911.36,53.6213 1906.86,61.788 1895.5,66C 1874.28,69.571 1852.95,70.4043 1831.5,68.5C 1831.47,112.003 1831.8,155.503 1832.5,199C 1832.38,224.174 1831.88,249.341 1831,274.5C 1828.76,282.408 1823.59,287.241 1815.5,289C 1800.61,290.809 1790.11,284.976 1784,271.5C 1782.77,203.842 1782.11,136.175 1782,68.5C 1768.58,69.6557 1755.08,69.8223 1741.5,69C 1731.33,68.6945 1721.66,66.3612 1712.5,62C 1706.6,58.1897 1703.6,52.6897 1703.5,45.5C 1704.28,35.431 1708.62,27.2643 1716.5,21C 1719.57,19.1539 1722.9,18.1539 1726.5,18C 1734.34,17.829 1742.01,17.329 1749.5,16.5 Z"/></g>
<g><path style="opacity:0.992" fill="#000000" d="M 5474.5,17.5 C 5489.5,15.0697 5499,21.0697 5503,35.5C 5503.5,69.4984 5503.67,103.498 5503.5,137.5C 5535.5,137.5 5567.5,137.5 5599.5,137.5C 5599.03,104.451 5599.53,71.4508 5601,38.5C 5607.4,21.3824 5619.56,14.8824 5637.5,19C 5645.09,22.255 5650.26,27.755 5653,35.5C 5653.33,69.8333 5653.67,104.167 5654,138.5C 5673.22,147.657 5678.22,161.991 5669,181.5C 5665.38,186.619 5660.55,189.953 5654.5,191.5C 5653.97,219.542 5653.13,247.542 5652,275.5C 5642.1,296.093 5627.6,300.426 5608.5,288.5C 5603.55,283.924 5600.71,278.258 5600,271.5C 5599.5,245.169 5599.33,218.835 5599.5,192.5C 5567.5,192.5 5535.5,192.5 5503.5,192.5C 5503.67,219.169 5503.5,245.835 5503,272.5C 5498.76,289.751 5487.93,296.918 5470.5,294C 5460.06,289.897 5453.56,282.397 5451,271.5C 5450.33,194.833 5450.33,118.167 5451,41.5C 5455.02,29.6498 5462.85,21.6498 5474.5,17.5 Z"/></g>
<g><path style="opacity:0.981" fill="#000000" d="M 2430.5,18.5 C 2472.08,14.2197 2508.75,25.3863 2540.5,52C 2558.08,68.9743 2569.58,89.4743 2575,113.5C 2585.15,157.054 2577.49,197.054 2552,233.5C 2534.65,255.433 2512.48,270.266 2485.5,278C 2459.18,284.499 2432.51,288.166 2405.5,289C 2392.67,285.168 2385.17,276.668 2383,263.5C 2382.5,204.168 2382.33,144.834 2382.5,85.5C 2365.67,85.7586 2356,77.5919 2353.5,61C 2355.32,52.4976 2359.66,45.4976 2366.5,40C 2375.22,33.4744 2384.89,28.8078 2395.5,26C 2407.15,22.771 2418.82,20.271 2430.5,18.5 Z M 2439.5,69.5 C 2460.05,68.2655 2479.38,72.4321 2497.5,82C 2519.19,98.2114 2530.19,120.045 2530.5,147.5C 2529.26,168.379 2522.76,187.379 2511,204.5C 2501.19,215.973 2489.02,223.807 2474.5,228C 2460.72,231.991 2446.72,234.825 2432.5,236.5C 2431.5,181.171 2431.17,125.837 2431.5,70.5C 2434.39,70.8064 2437.05,70.4731 2439.5,69.5 Z"/></g>
<g><path style="opacity:0.98" fill="#000000" d="M 6675.5,21.5 C 6705.78,20.5975 6727.28,33.9309 6740,61.5C 6745.23,75.0903 6742.39,86.5903 6731.5,96C 6720.63,102.551 6710.29,101.884 6700.5,94C 6696.88,88.5846 6693.38,83.0846 6690,77.5C 6687.82,75.0762 6685.15,73.4095 6682,72.5C 6652.28,79.3505 6626.95,93.6838 6606,115.5C 6586.76,141.012 6581.1,169.345 6589,200.5C 6598.46,232.323 6619.63,247.156 6652.5,245C 6663.53,241.636 6672.7,235.469 6680,226.5C 6685.17,219.333 6690.33,212.167 6695.5,205C 6707.74,197.403 6719.74,197.737 6731.5,206C 6737.47,212.728 6739.64,220.561 6738,229.5C 6735.66,239.182 6730.99,247.516 6724,254.5C 6713.64,266.538 6701.81,276.705 6688.5,285C 6641.89,306.943 6600.72,299.443 6565,262.5C 6543.62,237.206 6533.46,207.872 6534.5,174.5C 6535.27,118.426 6559.6,76.2594 6607.5,48C 6629.1,36.0152 6651.77,27.1818 6675.5,21.5 Z"/></g>
<g><path style="opacity:0.98" fill="#000000" d="M 5839.5,22.5 C 5862.2,20.0546 5874.37,30.0546 5876,52.5C 5875.04,60.249 5871.21,66.0823 5864.5,70C 5859.07,72.477 5853.4,74.1437 5847.5,75C 5816.12,74.0762 5784.79,74.9096 5753.5,77.5C 5753.5,96.5 5753.5,115.5 5753.5,134.5C 5779.91,134.761 5806.25,133.428 5832.5,130.5C 5851.9,131.066 5861.06,141.066 5860,160.5C 5857.31,173.191 5849.47,180.358 5836.5,182C 5809.06,186.041 5781.56,187.208 5754,185.5C 5753.33,202.167 5753.33,218.833 5754,235.5C 5785.2,239.104 5816.04,236.771 5846.5,228.5C 5862.85,230.017 5872.18,238.851 5874.5,255C 5874.01,265.662 5869.01,273.329 5859.5,278C 5826.81,287.457 5793.48,290.79 5759.5,288C 5746.35,287.319 5733.35,285.653 5720.5,283C 5709.94,279.103 5703.77,271.603 5702,260.5C 5701.67,200.167 5701.33,139.833 5701,79.5C 5690.42,69.8523 5688.09,58.519 5694,45.5C 5698.19,40.3257 5703.35,36.4924 5709.5,34C 5726.2,29.3827 5743.2,26.3827 5760.5,25C 5787.01,24.7341 5813.35,23.9008 5839.5,22.5 Z"/></g>
<g><path style="opacity:0.982" fill="#000000" d="M 6780.5,22.5 C 6796.52,20.4236 6807.69,26.757 6814,41.5C 6814.17,68.1729 6814.67,94.8396 6815.5,121.5C 6831.94,111.24 6846.77,98.9065 6860,84.5C 6869.58,72.3461 6878.91,60.0127 6888,47.5C 6893.13,41.3647 6898.63,35.5313 6904.5,30C 6915.68,23.1643 6927.01,22.831 6938.5,29C 6949.17,40.4774 6950.33,52.9774 6942,66.5C 6930.57,81.681 6918.91,96.681 6907,111.5C 6894.44,124.731 6881.27,137.231 6867.5,149C 6890.91,175.41 6915.41,200.91 6941,225.5C 6947,232.833 6953,240.167 6959,247.5C 6967.26,262.87 6964.43,275.703 6950.5,286C 6940.24,291.016 6930.57,290.016 6921.5,283C 6888.33,247.167 6855.17,211.333 6822,175.5C 6819.33,176.833 6816.67,178.167 6814,179.5C 6813.61,206.847 6814.11,234.18 6815.5,261.5C 6814.9,276.539 6807.57,286.705 6793.5,292C 6778.61,295.099 6769.44,289.265 6766,274.5C 6764.96,267.875 6764.29,261.208 6764,254.5C 6763.33,188.167 6763.33,121.833 6764,55.5C 6764.22,48.7136 6765.22,42.0469 6767,35.5C 6770.08,29.5887 6774.58,25.2554 6780.5,22.5 Z"/></g>
<g><path style="opacity:0.981" fill="#000000" d="M 7138.5,22.5 C 7163.87,20.0414 7176.03,31.3747 7175,56.5C 7173.38,62.4569 7169.88,66.9569 7164.5,70C 7158.78,72.685 7152.78,74.3517 7146.5,75C 7115.46,74.0992 7084.46,74.9325 7053.5,77.5C 7053.5,96.5 7053.5,115.5 7053.5,134.5C 7079.91,134.733 7106.24,133.399 7132.5,130.5C 7149.58,130.411 7158.91,138.911 7160.5,156C 7159.52,168.987 7152.86,177.32 7140.5,181C 7131.27,182.988 7121.93,184.321 7112.5,185C 7092.85,186.183 7073.18,186.683 7053.5,186.5C 7053.18,203.077 7053.51,219.577 7054.5,236C 7085.61,239.066 7116.27,236.566 7146.5,228.5C 7162.82,229.99 7172.16,238.824 7174.5,255C 7173.51,265.318 7168.51,272.984 7159.5,278C 7126.81,287.457 7093.48,290.79 7059.5,288C 7046.35,287.319 7033.35,285.652 7020.5,283C 7010.36,279.199 7004.2,272.033 7002,261.5C 7001.67,200.833 7001.33,140.167 7001,79.5C 6990.1,69.9194 6987.77,58.5861 6994,45.5C 6998.19,40.3257 7003.35,36.4924 7009.5,34C 7026.2,29.3827 7043.2,26.3827 7060.5,25C 7086.68,24.7481 7112.68,23.9147 7138.5,22.5 Z"/></g>
<g><path style="opacity:0.986" fill="#000000" d="M 5251.5,24.5 C 5304.83,24.3333 5358.17,24.5 5411.5,25C 5429.9,33.6306 5435.74,47.464 5429,66.5C 5426.41,69.5435 5423.24,71.7101 5419.5,73C 5413.57,74.4321 5407.57,75.4321 5401.5,76C 5384.5,76.4999 5367.5,76.6666 5350.5,76.5C 5350.36,120.004 5350.69,163.504 5351.5,207C 5351.1,231.835 5350.6,256.669 5350,281.5C 5346.37,292.081 5338.87,297.415 5327.5,297.5C 5318.31,296.653 5310.47,292.986 5304,286.5C 5302.39,283.618 5301.06,280.618 5300,277.5C 5298.69,210.476 5298.52,143.476 5299.5,76.5C 5280.11,78.1282 5260.78,77.6282 5241.5,75C 5216.35,70.8655 5209.85,57.6988 5222,35.5C 5229.93,26.5794 5239.77,22.9127 5251.5,24.5 Z"/></g>
<g><path style="opacity:0.98" fill="#000000" d="M 7680.5,145.5 C 7680.5,153.833 7680.5,162.167 7680.5,170.5C 7671.39,232.451 7636.39,271.285 7575.5,287C 7550.38,292.298 7525.05,295.632 7499.5,297C 7486.08,293.908 7477.58,285.741 7474,272.5C 7473.5,212.834 7473.33,153.168 7473.5,93.5C 7452.42,93.5944 7442.59,83.2611 7444,62.5C 7448.5,54 7455,47.5 7463.5,43C 7510.17,21.8945 7557.5,20.2279 7605.5,38C 7651.07,59.4122 7676.07,95.2456 7680.5,145.5 Z M 7541.5,76.5 C 7559.82,76.7174 7577.15,80.884 7593.5,89C 7620.43,107.717 7631.93,133.55 7628,166.5C 7620.64,209.188 7595.48,233.688 7552.5,240C 7543.52,241.414 7534.52,242.58 7525.5,243.5C 7525.5,188.5 7525.5,133.5 7525.5,78.5C 7531,78.0475 7536.33,77.3809 7541.5,76.5 Z"/></g>
<g><path style="opacity:0.992" fill="#000000" d="M 3455.5,361.5 C 3539.07,359.374 3622.07,365.207 3704.5,379C 3722.03,381.773 3739.37,385.44 3756.5,390C 3769.18,396.358 3777.02,406.525 3780,420.5C 3780.94,448.493 3781.61,476.493 3782,504.5C 3845.14,455.711 3916.48,436.377 3996,446.5C 4091.19,409.763 4186.02,410.596 4280.5,449C 4308.11,461.129 4333.78,476.296 4357.5,494.5C 4410.67,492.3 4462.01,501.133 4511.5,521C 4557.37,539.609 4599.7,563.942 4638.5,594C 4680.46,627.953 4719.96,664.787 4757,704.5C 4787.7,738.202 4818.04,772.202 4848,806.5C 4864.48,826.788 4879.98,847.788 4894.5,869.5C 4917.47,878.484 4938.81,890.317 4958.5,905C 5049.15,974.456 5096.98,1066.62 5102,1181.5C 5127.67,1205.16 5144.34,1234.16 5152,1268.5C 5154.98,1281.35 5156.98,1294.35 5158,1307.5C 5159.18,1340.15 5159.85,1372.82 5160,1405.5C 5161.87,1428.98 5167.2,1451.65 5176,1473.5C 5189.55,1504.6 5202.55,1535.94 5215,1567.5C 5230.57,1608.24 5235.9,1650.24 5231,1693.5C 5229.61,1702.28 5227.78,1710.95 5225.5,1719.5C 5287.16,1716.37 5348.83,1713.53 5410.5,1711C 5430.78,1714.95 5442.62,1727.12 5446,1747.5C 5466.19,1962.93 5445.19,2174.27 5383,2381.5C 5355.85,2472.29 5323.18,2560.95 5285,2647.5C 5282.15,2684.18 5268.15,2715.85 5243,2742.5C 5226.2,2758.65 5207.7,2772.48 5187.5,2784C 5165.95,2794.86 5144.12,2805.03 5122,2814.5C 5115.28,2905.89 5081.28,2985.22 5020,3052.5C 4979.77,3090.41 4949.43,3135.07 4929,3186.5C 4925.22,3202.27 4922.89,3218.27 4922,3234.5C 4911.82,3346.39 4910.32,3458.39 4917.5,3570.5C 4917.29,3584.07 4914.45,3597.07 4909,3609.5C 4904.78,3619.61 4899.78,3629.27 4894,3638.5C 4871.64,3671.51 4846.64,3702.51 4819,3731.5C 4797.17,3753.33 4775.33,3775.17 4753.5,3797C 4793.67,3826.53 4811.84,3866.36 4808,3916.5C 4806.21,3950.93 4791.71,3978.43 4764.5,3999C 4754.26,4005.42 4743.26,4010.08 4731.5,4013C 4801.35,4008.16 4851.52,4036.99 4882,4099.5C 4898.57,4141.45 4888.07,4174.61 4850.5,4199C 4801.43,4226.6 4748.77,4242.44 4692.5,4246.5C 4694.07,4254.09 4695.24,4261.75 4696,4269.5C 4723.61,4252.96 4753.11,4241.13 4784.5,4234C 4835.46,4224.87 4876.96,4240.37 4909,4280.5C 4930.47,4310.51 4936.8,4343.51 4928,4379.5C 4918.02,4410.15 4897.85,4430.98 4867.5,4442C 4817.91,4459.15 4766.91,4469.32 4714.5,4472.5C 4725.45,4502.95 4732.61,4534.29 4736,4566.5C 4736.72,4567.45 4737.55,4567.62 4738.5,4567C 4758.53,4554.65 4779.19,4543.32 4800.5,4533C 4886.82,4495.9 4956.65,4515.73 5010,4592.5C 5021.37,4609.27 5027.53,4627.77 5028.5,4648C 5027.39,4674.22 5015.73,4694.22 4993.5,4708C 4924.12,4746.4 4849.79,4767.9 4770.5,4772.5C 4773.53,4794.73 4775.2,4817.06 4775.5,4839.5C 4822.21,4842.56 4868.71,4847.56 4915,4854.5C 4915.5,4854.17 4916,4853.83 4916.5,4853.5C 4903.83,4836.24 4903.33,4818.57 4915,4800.5C 4927.75,4786.36 4943.58,4781.2 4962.5,4785C 5084.93,4792.44 5202.93,4819.11 5316.5,4865C 5378.97,4891.55 5437.3,4924.72 5491.5,4964.5C 5539.86,4942.21 5589.86,4924.38 5641.5,4911C 5664.01,4903.62 5682.18,4909.45 5696,4928.5C 5705.57,4948.37 5702.74,4966.2 5687.5,4982C 5683.83,4984.84 5679.83,4987.17 5675.5,4989C 5636.75,4998.42 5599.08,5010.92 5562.5,5026.5C 5578.55,5043.05 5594.05,5060.05 5609,5077.5C 5637.99,5058.09 5668.82,5041.92 5701.5,5029C 5773.72,5000.91 5842.38,5007.58 5907.5,5049C 5918.83,5056.67 5930.17,5064.33 5941.5,5072C 5957.9,5088.36 5960.74,5106.86 5950,5127.5C 5936.05,5145.78 5918.22,5150.95 5896.5,5143C 5885.33,5135.91 5874.33,5128.58 5863.5,5121C 5847.14,5110.32 5829.48,5102.65 5810.5,5098C 5781.07,5094.08 5752.74,5098.08 5725.5,5110C 5702.08,5119.87 5680.08,5132.04 5659.5,5146.5C 5704.52,5216.57 5733.35,5292.9 5746,5375.5C 5749.18,5397.97 5740.68,5414.14 5720.5,5424C 5701.03,5430.18 5684.53,5425.68 5671,5410.5C 5667.86,5405.89 5665.53,5400.89 5664,5395.5C 5652.02,5313.58 5622.36,5238.92 5575,5171.5C 5506.14,5076.31 5418.3,5004.14 5311.5,4955C 5242.7,4923.4 5171.04,4901.07 5096.5,4888C 5108.83,4891 5121.17,4894 5133.5,4897C 5158.26,4907.7 5167.1,4926.2 5160,4952.5C 5153.71,4968.13 5142.21,4976.96 5125.5,4979C 5024.41,4982.82 4924.75,4996.82 4826.5,5021C 4707.73,5049.7 4592.4,5088.37 4480.5,5137C 4390.29,5167.31 4298.96,5171.31 4206.5,5149C 4145.01,5132.62 4091.67,5102.95 4046.5,5060C 3998.91,5011.1 3955.08,4959.27 3915,4904.5C 3809.24,4750.92 3750.58,4580.58 3739,4393.5C 3737.5,4371.86 3736.67,4350.19 3736.5,4328.5C 3656.47,4344.41 3576.8,4342.58 3497.5,4323C 3417.37,4302.51 3341.37,4271.85 3269.5,4231C 3111.41,4138 2969.24,4024.17 2843,3889.5C 2838.47,4039.36 2814.47,4186.02 2771,4329.5C 2725.74,4483.66 2660.74,4628.66 2576,4764.5C 2526.2,4842.68 2467.7,4914.18 2400.5,4979C 2386.21,4992.14 2371.54,5004.81 2356.5,5017C 2339.95,5025.92 2323.61,5025.58 2307.5,5016C 2288.97,4999.03 2285.81,4979.53 2298,4957.5C 2356.15,4908.08 2408.15,4853.08 2454,4792.5C 2539.89,4674.07 2607.56,4545.41 2657,4406.5C 2706.17,4271.48 2738.17,4132.48 2753,3989.5C 2760.18,3920.82 2760.18,3852.15 2753,3783.5C 2724.57,3746.81 2697.74,3708.98 2672.5,3670C 2563.45,3668.72 2458.78,3646.72 2358.5,3604C 2260.39,3563.32 2173.06,3506.65 2096.5,3434C 2009.26,3344.25 1947.1,3239.09 1910,3118.5C 1862.55,2959.18 1860.22,2799.18 1903,2638.5C 1926.72,2555 1957.72,2474.34 1996,2396.5C 2010.74,2366.68 2025.74,2337.01 2041,2307.5C 2090.2,2217.78 2137.86,2127.11 2184,2035.5C 2196.59,2008.83 2208.75,1982 2220.5,1955C 2169.21,1719.54 2179.37,1486.71 2251,1256.5C 2354.44,937.937 2551.6,696.437 2842.5,532C 3033.33,426.709 3237.66,369.876 3455.5,361.5 Z M 2394.5,1667.5 C 2471.13,1431.93 2606.13,1237.43 2799.5,1084C 2826.34,1063.5 2854,1044.17 2882.5,1026C 2896.18,1014.62 2901.35,1000.12 2898,982.5C 2890.21,958.511 2873.71,948.011 2848.5,951C 2843.17,952.163 2838.17,954.163 2833.5,957C 2630.66,1090.84 2477.5,1267.67 2374,1487.5C 2357.68,1523.46 2342.51,1559.8 2328.5,1596.5C 2365.74,1429.56 2429.24,1273.56 2519,1128.5C 2528.73,1107.16 2524.9,1088.66 2507.5,1073C 2492.23,1063.8 2476.57,1063.13 2460.5,1071C 2457.33,1073.5 2454.17,1076 2451,1078.5C 2393.88,1169.08 2346.55,1264.74 2309,1365.5C 2364.2,1134.17 2477.7,937.335 2649.5,775C 2817.38,622.549 3013.04,521.883 3236.5,473C 3389.2,440.166 3542.54,436.833 3696.5,463C 3697.83,482.435 3697.83,501.935 3696.5,521.5C 3597.65,498.288 3500.65,504.455 3405.5,540C 3397.05,543.392 3388.72,547.059 3380.5,551C 3363.99,563.192 3358.16,579.359 3363,599.5C 3371.69,621.438 3387.86,630.938 3411.5,628C 3504.86,587.459 3600.52,580.959 3698.5,608.5C 3699.49,634.493 3699.66,660.493 3699,686.5C 3540.18,671.95 3387.35,695.783 3240.5,758C 3220.45,769.137 3212.95,785.97 3218,808.5C 3227.36,831.932 3244.53,841.432 3269.5,837C 3407.45,778.507 3551.11,756.007 3700.5,769.5C 3704.49,1145.16 3707.66,1520.83 3710,1896.5C 3712.48,2315.17 3714.64,2733.83 3716.5,3152.5C 3716.17,3163.83 3715.83,3175.17 3715.5,3186.5C 3702.7,3188.14 3690.7,3185.64 3679.5,3179C 3666.54,3168.37 3653.87,3157.37 3641.5,3146C 3629.9,3136.42 3617.23,3128.42 3603.5,3122C 3573.6,3110.85 3548.76,3117.68 3529,3142.5C 3519.67,3157.83 3510.33,3173.17 3501,3188.5C 3464.47,3167.45 3452.47,3136.78 3465,3096.5C 3472,3081.16 3482.84,3069.33 3497.5,3061C 3513.75,3047.51 3518.58,3030.68 3512,3010.5C 3502.72,2990.94 3487.22,2982.44 3465.5,2985C 3459.75,2985.87 3454.42,2987.87 3449.5,2991C 3401.84,3022.47 3377.17,3066.97 3375.5,3124.5C 3377.16,3178.99 3400.16,3221.83 3444.5,3253C 3457.5,3261.5 3471.5,3267.83 3486.5,3272C 3517.94,3276.96 3544.11,3267.46 3565,3243.5C 3573.08,3233.02 3580.41,3222.02 3587,3210.5C 3602,3225.51 3618.16,3239.01 3635.5,3251C 3660.5,3265.5 3687.5,3272.33 3716.5,3271.5C 3716.5,3298.5 3716.5,3325.5 3716.5,3352.5C 3618.06,3338.36 3536.56,3368.69 3472,3443.5C 3457.95,3461.22 3444.28,3479.22 3431,3497.5C 3405.07,3530.87 3371.24,3551.87 3329.5,3560.5C 3310.79,3551.96 3294.12,3540.46 3279.5,3526C 3258.26,3515.12 3239.42,3518.28 3223,3535.5C 3211.67,3552.87 3211.67,3570.2 3223,3587.5C 3262.15,3626.49 3309.31,3649.65 3364.5,3657C 3425.79,3757.18 3515.13,3814.18 3632.5,3828C 3661.28,3830.5 3689.95,3829.66 3718.5,3825.5C 3718.75,3965.83 3719.08,4106.17 3719.5,4246.5C 3654.61,4259.24 3589.95,4258.08 3525.5,4243C 3448.28,4224.04 3375.28,4194.71 3306.5,4155C 3146.48,4060.09 3003.98,3942.92 2879,3803.5C 2784.52,3697.23 2707.85,3578.89 2649,3448.5C 2619.04,3375.61 2595.7,3300.61 2579,3223.5C 2560.67,3138.21 2546.67,3052.21 2537,2965.5C 2515.04,2760.71 2501.04,2555.37 2495,2349.5C 2490.69,2193.76 2499.35,2038.76 2521,1884.5C 2544.99,1716.21 2592.99,1555.21 2665,1401.5C 2762.98,1299.22 2879.81,1226.39 3015.5,1183C 3097.98,1156.71 3181.98,1136.71 3267.5,1123C 3325.46,1113.72 3383.46,1104.72 3441.5,1096C 3464.03,1085.44 3472.53,1067.94 3467,1043.5C 3458.32,1021.57 3442.16,1012.07 3418.5,1015C 3320.46,1027.58 3223.12,1044.24 3126.5,1065C 3025.41,1086.69 2928.75,1120.69 2836.5,1167C 2746.42,1214.37 2666.58,1275.54 2597,1350.5C 2511.43,1444.23 2443.93,1549.89 2394.5,1667.5 Z M 4131.5,504.5 C 4224.72,504.693 4300.55,541.026 4359,613.5C 4369.08,627.321 4378.41,641.655 4387,656.5C 4402.02,670.969 4419.18,674.136 4438.5,666C 4458.62,653.33 4465.12,635.496 4458,612.5C 4453.8,603.921 4448.96,595.754 4443.5,588C 4477.72,596.938 4510.06,610.605 4540.5,629C 4574.45,650.27 4606.11,674.603 4635.5,702C 4691.95,757.766 4745.45,815.932 4796,876.5C 4815.08,900.305 4831.41,925.971 4845,953.5C 4857.39,980.463 4864.06,1008.8 4865,1038.5C 4874.11,1062.98 4891.61,1072.81 4917.5,1068C 4938.19,1060.62 4948.19,1045.96 4947.5,1024C 4947.19,1018.47 4947.02,1012.97 4947,1007.5C 5007.6,1076.34 5028.93,1156 5011,1246.5C 5008.61,1257.34 5005.61,1268.01 5002,1278.5C 4998.75,1302.51 5008.25,1319.01 5030.5,1328C 5047.24,1332.36 5061.74,1328.53 5074,1316.5C 5075.23,1347.48 5075.9,1378.48 5076,1409.5C 5076.68,1421.6 5078.18,1433.6 5080.5,1445.5C 5080.27,1446.93 5079.6,1447.43 5078.5,1447C 5058.89,1428.04 5037.55,1411.38 5014.5,1397C 4973.86,1376.09 4931.19,1370.75 4886.5,1381C 4849.09,1390.04 4815.09,1406.04 4784.5,1429C 4774.17,1437.17 4763.83,1445.33 4753.5,1453.5C 4740.82,1432.99 4722.82,1426.16 4699.5,1433C 4686.19,1439.1 4677.69,1449.26 4674,1463.5C 4672.07,1486.02 4674.57,1508.02 4681.5,1529.5C 4651.81,1570.69 4622.31,1612.03 4593,1653.5C 4579.51,1673.25 4564.01,1691.41 4546.5,1708C 4530.25,1722.29 4511.25,1730.29 4489.5,1732C 4485.6,1733.57 4481.93,1735.57 4478.5,1738C 4249.8,1740.34 4021.13,1738.18 3792.5,1731.5C 3792.18,1722.25 3792.52,1713.08 3793.5,1704C 3830.64,1684.21 3869.64,1679.54 3910.5,1690C 3937.25,1701.47 3963.92,1713.14 3990.5,1725C 4013.89,1732.71 4032.06,1726.21 4045,1705.5C 4053.22,1685.31 4049.39,1667.81 4033.5,1653C 4019.08,1645.45 4004.41,1638.45 3989.5,1632C 3997.4,1624.77 4004.57,1616.93 4011,1608.5C 4019.98,1587.25 4015.81,1569.09 3998.5,1554C 3981.3,1543.77 3964.3,1544.1 3947.5,1555C 3931.7,1569.13 3917.7,1584.79 3905.5,1602C 3867.41,1597.6 3830.08,1601.1 3793.5,1612.5C 3792.68,1609.89 3792.18,1607.23 3792,1604.5C 3791,1474.82 3790,1345.15 3789,1215.5C 3796.75,1208.75 3804.25,1201.59 3811.5,1194C 3863.84,1148.64 3924.84,1128.31 3994.5,1133C 4015.66,1127.51 4026.99,1113.84 4028.5,1092C 4026.31,1068.48 4013.65,1054.48 3990.5,1050C 3916.53,1045.53 3849.03,1064.03 3788,1105.5C 3787.19,1034.16 3786.52,962.823 3786,891.5C 3802.96,876.609 3822.8,868.109 3845.5,866C 3869.83,863.833 3893.5,866.833 3916.5,875C 3950.4,888.446 3982.4,905.279 4012.5,925.5C 4014.38,943.797 4015.88,962.13 4017,980.5C 4019.31,1002.32 4031.14,1015.49 4052.5,1020C 4073.5,1021.75 4088.67,1013.25 4098,994.5C 4099.82,989.314 4100.98,983.981 4101.5,978.5C 4100.36,969.206 4099.69,959.872 4099.5,950.5C 4116.16,952.619 4132.83,954.785 4149.5,957C 4174.87,958.57 4190.7,947.07 4197,922.5C 4199.17,900.66 4190.33,885.16 4170.5,876C 4136.58,870.536 4102.58,865.536 4068.5,861C 4041.48,843.153 4013.48,826.819 3984.5,812C 3951.94,795.942 3917.6,785.942 3881.5,782C 3848.53,778.977 3816.53,783.144 3785.5,794.5C 3784.17,775.167 3784.17,755.833 3785.5,736.5C 3788.99,734.921 3792.33,733.087 3795.5,731C 3848.21,683.816 3909.55,666.816 3979.5,680C 3988.23,682.132 3996.89,684.465 4005.5,687C 4028.05,688.818 4043.55,679.318 4052,658.5C 4057.48,632.947 4048.31,615.113 4024.5,605C 3940.33,579.855 3860.33,589.355 3784.5,633.5C 3783.28,631.102 3783.44,628.769 3785,626.5C 3824.67,564.149 3881.67,531.149 3956,527.5C 4009.39,528.461 4055.56,546.961 4094.5,583C 4112.41,594.59 4130.07,594.257 4147.5,582C 4163.64,565.598 4166.48,547.098 4156,526.5C 4149.19,517.512 4141.02,510.179 4131.5,504.5 Z M 4917.5,1460.5 C 4945.48,1457.44 4970.15,1464.94 4991.5,1483C 5012.91,1502.53 5035.25,1520.86 5058.5,1538C 5077.46,1550.21 5098.12,1557.87 5120.5,1561C 5137.36,1593.07 5147.02,1627.24 5149.5,1663.5C 5149.26,1676.64 5146.76,1689.3 5142,1701.5C 5142.77,1685.55 5136.94,1672.71 5124.5,1663C 5096.55,1643.23 5065.55,1630.9 5031.5,1626C 5037.36,1606.74 5042.36,1587.24 5046.5,1567.5C 5042.81,1537.31 5025.81,1523.48 4995.5,1526C 4979.61,1529.55 4969.11,1539.05 4964,1554.5C 4958.01,1576.14 4952.17,1597.81 4946.5,1619.5C 4929.54,1621.91 4912.88,1625.57 4896.5,1630.5C 4892.02,1617.19 4883.02,1608.35 4869.5,1604C 4844.31,1598.84 4826.81,1608.01 4817,1631.5C 4815.92,1660.74 4807.25,1687.41 4791,1711.5C 4785.02,1718.98 4778.85,1726.31 4772.5,1733.5C 4767.2,1734.33 4761.86,1734.83 4756.5,1735C 4716.16,1735.89 4675.82,1736.55 4635.5,1737C 4673.89,1684.95 4711.89,1632.61 4749.5,1580C 4781.89,1573.26 4814.22,1566.26 4846.5,1559C 4869.13,1547.89 4877.3,1530.06 4871,1505.5C 4867.79,1496.58 4862.29,1489.41 4854.5,1484C 4874.07,1472.09 4895.07,1464.26 4917.5,1460.5 Z M 4956.5,1702.5 C 4959.52,1702.34 4962.52,1702.5 4965.5,1703C 4969.5,1705.45 4973.83,1707.11 4978.5,1708C 5002.46,1706 5025.79,1709 5048.5,1717C 5054.61,1719.22 5060.28,1722.22 5065.5,1726C 5005.85,1728.48 4946.18,1730.15 4886.5,1731C 4907.71,1716.22 4931.05,1706.72 4956.5,1702.5 Z M 2466.5,1714.5 C 2467.1,1714.74 2467.43,1715.24 2467.5,1716C 2442.23,1826.86 2425.73,1939.03 2418,2052.5C 2415.02,2098.14 2412.52,2143.81 2410.5,2189.5C 2401.34,2181.01 2391.34,2173.67 2380.5,2167.5C 2379.06,2164.96 2377.9,2162.29 2377,2159.5C 2381.66,2006.03 2411.49,1857.7 2466.5,1714.5 Z M 5360.5,1796.5 C 5362.17,1796.5 5363.83,1796.5 5365.5,1796.5C 5379.03,1995.95 5355.53,2190.95 5295,2381.5C 5274.43,2446.56 5251.09,2510.56 5225,2573.5C 5224.31,2575.55 5223.15,2577.22 5221.5,2578.5C 5143.88,2554.01 5066.21,2529.68 4988.5,2505.5C 4981.83,2489.48 4977.33,2472.81 4975,2455.5C 4970.62,2420.85 4970.62,2386.18 4975,2351.5C 4980.82,2307.59 4985.82,2263.59 4990,2219.5C 4996.09,2151.71 4985.42,2086.71 4958,2024.5C 4935.2,1976.22 4911.86,1928.22 4888,1880.5C 4879.01,1860.04 4871.51,1839.04 4865.5,1817.5C 4924.83,1815 4984.16,1812.67 5043.5,1810.5C 5044.5,1810.83 5045.5,1811.17 5046.5,1811.5C 5075.92,1870.42 5119.92,1914.92 5178.5,1945C 5203.41,1951.63 5221.57,1943.46 5233,1920.5C 5238.7,1901.44 5234.2,1885.28 5219.5,1872C 5189.46,1856.46 5164.13,1835.29 5143.5,1808.5C 5143.83,1808.17 5144.17,1807.83 5144.5,1807.5C 5216.65,1804.25 5288.65,1800.58 5360.5,1796.5 Z M 3793.5,1815.5 C 4118.64,1824.78 4443.81,1825.78 4769,1818.5C 4772.75,1818.52 4776.42,1818.85 4780,1819.5C 4788.52,1859.53 4801.85,1897.87 4820,1934.5C 4837.35,1969.2 4854.68,2003.86 4872,2038.5C 4880.82,2057.95 4888.65,2077.79 4895.5,2098C 4871.75,2118.37 4846.42,2136.54 4819.5,2152.5C 4812.4,2119.64 4797.9,2090.64 4776,2065.5C 4733.27,2019.04 4680.77,1989.54 4618.5,1977C 4514.2,1952 4408.53,1936 4301.5,1929C 4231.15,1921.13 4168.48,1939.13 4113.5,1983C 4066.69,2021.76 4030.86,2068.93 4006,2124.5C 3983.55,2175.19 3967.55,2227.86 3958,2282.5C 3955.85,2336.37 3976.35,2379.2 4019.5,2411C 4139.43,2490.26 4271.1,2538.43 4414.5,2555.5C 4413.99,2588.8 4424.82,2617.8 4447,2642.5C 4454.23,2650.4 4462.07,2657.57 4470.5,2664C 4490.66,2677.91 4510.99,2691.58 4531.5,2705C 4620.04,2774.24 4666.71,2865.41 4671.5,2978.5C 4613.77,2966.51 4555.44,2960.35 4496.5,2960C 4448.79,3022.19 4408.79,3089.36 4376.5,3161.5C 4312.21,3193.96 4248.04,3226.63 4184,3259.5C 4161.31,3244.49 4136.47,3239.33 4109.5,3244C 4103.8,3245.18 4098.13,3246.51 4092.5,3248C 4073.6,3255.28 4054.6,3262.28 4035.5,3269C 4009.26,3274.53 3982.92,3274.87 3956.5,3270C 3926.88,3265.34 3897.21,3261.01 3867.5,3257C 3845.2,3254.51 3822.87,3254.01 3800.5,3255.5C 3800.32,3173.17 3799.98,3090.83 3799.5,3008.5C 3881.25,3014.88 3943.41,2983.21 3986,2913.5C 4016.03,2858.15 4023.37,2799.82 4008,2738.5C 4002.62,2715.01 3995.62,2692.01 3987,2669.5C 3955.89,2592.84 3923.22,2516.84 3889,2441.5C 3884.48,2434.32 3879.98,2427.16 3875.5,2420C 3877.87,2388.84 3880.37,2357.67 3883,2326.5C 3885.83,2294.68 3896.16,2265.68 3914,2239.5C 3921.99,2229.84 3931.49,2222.01 3942.5,2216C 3956.99,2201.53 3960.49,2184.7 3953,2165.5C 3939.27,2143.26 3920.1,2136.76 3895.5,2146C 3868.62,2161.88 3847.45,2183.38 3832,2210.5C 3810.65,2251.88 3798.99,2295.88 3797,2342.5C 3795.66,2166.83 3794.5,1991.17 3793.5,1815.5 Z M 2543.5,3572.5 C 2401.25,3543.71 2276.25,3481.54 2168.5,3386C 2104.81,3324.8 2055.31,3253.63 2020,3172.5C 1953.25,3016.24 1938.92,2855.24 1977,2689.5C 1993.7,2621.39 2016.37,2555.39 2045,2491.5C 2071.21,2433.09 2099.54,2375.75 2130,2319.5C 2173.21,2241.08 2214.88,2161.75 2255,2081.5C 2263.6,2104.46 2272.1,2127.46 2280.5,2150.5C 2255.62,2157.53 2235.12,2171.19 2219,2191.5C 2200.62,2216.6 2187.28,2244.27 2179,2274.5C 2164.28,2330.2 2156.28,2386.86 2155,2444.5C 2150.56,2609.36 2173.23,2770.36 2223,2927.5C 2238.85,2975.4 2259.52,3021.07 2285,3064.5C 2301.8,3091.97 2322.3,3116.47 2346.5,3138C 2386.33,3171.5 2431.83,3183.33 2483,3173.5C 2493.82,3230.76 2506.82,3287.43 2522,3343.5C 2472.63,3320.47 2432.8,3286.3 2402.5,3241C 2390.21,3231.62 2376.54,3228.96 2361.5,3233C 2343.28,3240.09 2333.61,3253.43 2332.5,3273C 2332.85,3279.77 2334.35,3286.27 2337,3292.5C 2389.91,3371.01 2462.74,3420.85 2555.5,3442C 2562.01,3459.02 2569.01,3475.85 2576.5,3492.5C 2461.58,3465.73 2369.42,3404.73 2300,3309.5C 2281.41,3293.61 2261.91,3292.45 2241.5,3306C 2222.63,3326.41 2221.8,3347.58 2239,3369.5C 2317.57,3471.18 2419.07,3538.85 2543.5,3572.5 Z M 3063.5,2161.5 C 3073.53,2161.33 3083.53,2161.83 3093.5,2163C 3090.31,2170.91 3087.98,2179.08 3086.5,2187.5C 3074.1,2188.26 3061.77,2189.59 3049.5,2191.5C 3049.6,2182.36 3050.77,2173.36 3053,2164.5C 3056.36,2162.93 3059.86,2161.93 3063.5,2161.5 Z M 2961.5,2172.5 C 2963.17,2172.5 2964.83,2172.5 2966.5,2172.5C 2965.74,2186.14 2965.24,2199.81 2965,2213.5C 2954.02,2217.83 2943.02,2222.16 2932,2226.5C 2924.4,2213.63 2917.57,2200.3 2911.5,2186.5C 2927.97,2180.89 2944.63,2176.22 2961.5,2172.5 Z M 3181.5,2172.5 C 3194.49,2174.59 3207.15,2177.76 3219.5,2182C 3213.93,2188.23 3208.43,2194.4 3203,2200.5C 3192.52,2197.92 3182.02,2195.42 3171.5,2193C 3174.72,2186.07 3178.05,2179.23 3181.5,2172.5 Z M 4904.5,2197.5 C 4905.82,2200.09 4906.48,2203.09 4906.5,2206.5C 4906.17,2213.51 4905.67,2220.51 4905,2227.5C 4898.93,2275.75 4893.59,2324.09 4889,2372.5C 4883.94,2428.33 4890.6,2482.66 4909,2535.5C 4912.79,2545.07 4917.12,2554.41 4922,2563.5C 4927.41,2571.29 4934.58,2576.79 4943.5,2580C 5028.09,2606.48 5112.76,2632.65 5197.5,2658.5C 5192.16,2672.03 5183.83,2683.53 5172.5,2693C 5155.81,2705.36 5137.81,2715.69 5118.5,2724C 4990.43,2778.44 4867.93,2842.61 4751,2916.5C 4729.64,2797.93 4670.8,2703.1 4574.5,2632C 4556.16,2620.5 4538.16,2608.5 4520.5,2596C 4514.63,2590.47 4509.13,2584.64 4504,2578.5C 4501.06,2573.53 4499.23,2568.19 4498.5,2562.5C 4539.71,2563.89 4578.71,2555.39 4615.5,2537C 4624.36,2531.74 4632.7,2525.74 4640.5,2519C 4651.71,2506.12 4662.54,2492.96 4673,2479.5C 4722.31,2409.59 4764.48,2335.25 4799.5,2256.5C 4836.92,2240.64 4871.92,2220.97 4904.5,2197.5 Z M 3305.5,2212.5 C 3313.83,2216.33 3321.83,2220.66 3329.5,2225.5C 3324.48,2231.02 3319.31,2236.36 3314,2241.5C 3306.77,2238.47 3299.61,2235.3 3292.5,2232C 3298.69,2226.66 3303.03,2220.16 3305.5,2212.5 Z M 2304.5,2230.5 C 2327.91,2232.45 2347.08,2242.45 2362,2260.5C 2379.05,2283.95 2390.72,2309.95 2397,2338.5C 2404.11,2369.94 2409.44,2401.6 2413,2433.5C 2399.5,2377.49 2374.16,2327.82 2337,2284.5C 2322.11,2268.44 2305.61,2254.44 2287.5,2242.5C 2291.66,2236.26 2297.32,2232.26 2304.5,2230.5 Z M 3177.5,2281.5 C 3195.4,2285.3 3212.73,2290.8 3229.5,2298C 3222.48,2324.88 3210.81,2349.38 3194.5,2371.5C 3200.63,2339.15 3194.96,2309.15 3177.5,2281.5 Z M 3005.5,2386.5 C 2982.3,2365.41 2968.3,2339.25 2963.5,2308C 2963.68,2306.34 2964.34,2305.01 2965.5,2304C 2979.86,2298.1 2994.36,2292.6 3009,2287.5C 2992.42,2319.78 2991.26,2352.78 3005.5,2386.5 Z M 2253.5,2322.5 C 2259.46,2327.29 2265.29,2332.29 2271,2337.5C 2277.07,2344.65 2282.91,2351.98 2288.5,2359.5C 2261.74,2394.93 2245.4,2434.76 2239.5,2479C 2242.1,2506.94 2257.44,2520.94 2285.5,2521C 2302.61,2518.55 2314.44,2509.38 2321,2493.5C 2323.4,2480.58 2326.73,2467.92 2331,2455.5C 2333.94,2463.94 2336.28,2472.61 2338,2481.5C 2339.89,2492.52 2341.89,2503.52 2344,2514.5C 2352.7,2536.44 2368.87,2545.94 2392.5,2543C 2402.29,2540.86 2410.46,2536.02 2417,2528.5C 2425.76,2673.4 2437.43,2818.06 2452,2962.5C 2456.61,3003.96 2462.11,3045.29 2468.5,3086.5C 2468.18,3087.65 2467.52,3088.48 2466.5,3089C 2452.37,3093.9 2438.37,3093.56 2424.5,3088C 2410.65,3081.49 2398.49,3072.66 2388,3061.5C 2361.72,3030.64 2340.72,2996.31 2325,2958.5C 2292.03,2876.61 2269.03,2791.94 2256,2704.5C 2241.05,2612.38 2235.72,2519.71 2240,2426.5C 2241.88,2391.47 2246.38,2356.81 2253.5,2322.5 Z M 3306.5,2332.5 C 3334.07,2347.25 3360.74,2363.42 3386.5,2381C 3348.07,2411.57 3306.07,2436.57 3260.5,2456C 3243.81,2462.9 3226.81,2468.56 3209.5,2473C 3258.01,2437.54 3290.34,2390.7 3306.5,2332.5 Z M 2956.5,2456.5 C 2910.33,2439.09 2868,2415.26 2829.5,2385C 2827.99,2384.16 2827.49,2383 2828,2381.5C 2846.58,2369.13 2865.41,2357.13 2884.5,2345.5C 2897.73,2389.66 2921.73,2426.66 2956.5,2456.5 Z M 5028.5,2857.5 C 5029.59,2857.62 5030.25,2858.29 5030.5,2859.5C 5018.4,2910.71 4994.57,2955.38 4959,2993.5C 4966.41,2955.19 4975.41,2917.19 4986,2879.5C 5000.31,2872.26 5014.47,2864.93 5028.5,2857.5 Z M 4883.5,2934.5 C 4884.24,2934.37 4884.91,2934.54 4885.5,2935C 4837.24,3143.59 4819.91,3354.75 4833.5,3568.5C 4831.03,3577.76 4827.2,3586.43 4822,3594.5C 4813.15,3607.52 4803.82,3620.19 4794,3632.5C 4758.29,3673.54 4720.46,3712.71 4680.5,3750C 4524.18,3892.08 4360.18,4024.08 4188.5,4146C 4167,4160.58 4145.34,4174.92 4123.5,4189C 4050.86,4231.08 3972.53,4252.08 3888.5,4252C 3859.56,4251.18 3831.23,4246.68 3803.5,4238.5C 3802.98,4087.5 3802.64,3936.5 3802.5,3785.5C 3879.48,3787.21 3955.81,3781.04 4031.5,3767C 4077.28,3756.77 4118.61,3737.44 4155.5,3709C 4238.84,3638.67 4312.67,3559.84 4377,3472.5C 4392.09,3447.65 4402.76,3420.98 4409,3392.5C 4414.84,3355.32 4419.5,3317.98 4423,3280.5C 4444.15,3291.66 4465.65,3302.16 4487.5,3312C 4516.39,3324.28 4545.39,3336.28 4574.5,3348C 4575.94,3348.78 4577.28,3348.61 4578.5,3347.5C 4614.17,3241.18 4654,3136.51 4698,3033.5C 4705.39,3033.49 4712.89,3033.32 4720.5,3033C 4724.98,3031.73 4729.31,3030.06 4733.5,3028C 4782.39,2995.06 4832.39,2963.89 4883.5,2934.5 Z M 4337.5,3275.5 C 4336.32,3302.44 4333.66,3329.44 4329.5,3356.5C 4329.17,3357.5 4328.83,3358.5 4328.5,3359.5C 4325.57,3360.8 4322.57,3361.8 4319.5,3362.5C 4320.83,3337.51 4320.83,3312.51 4319.5,3287.5C 4319.83,3286.5 4320.17,3285.5 4320.5,3284.5C 4326.39,3281.73 4332.05,3278.73 4337.5,3275.5 Z M 4123.5,3326.5 C 4126.17,3326.5 4128.83,3326.5 4131.5,3326.5C 4136.8,3362.88 4134.97,3398.88 4126,3434.5C 4124.73,3438.99 4123.06,3443.32 4121,3447.5C 4120,3448.17 4119,3448.83 4118,3449.5C 4116.28,3410.95 4112.44,3372.62 4106.5,3334.5C 4106.61,3333.56 4106.94,3332.72 4107.5,3332C 4112.84,3329.84 4118.18,3328.01 4123.5,3326.5 Z M 4235.5,3327.5 C 4236.93,3349.47 4235.76,3371.47 4232,3393.5C 4230.16,3401.67 4225.16,3407.01 4217,3409.5C 4217.54,3396.36 4218.04,3383.19 4218.5,3370C 4218.52,3359.23 4217.85,3348.57 4216.5,3338C 4222.9,3334.47 4229.23,3330.97 4235.5,3327.5 Z M 3813.5,3338.5 C 3816.45,3338.22 3819.28,3338.56 3822,3339.5C 3826.92,3371.33 3828.92,3403.33 3828,3435.5C 3827.32,3447.64 3825.65,3459.64 3823,3471.5C 3821.82,3473.24 3820.15,3474.24 3818,3474.5C 3812.69,3473.71 3807.52,3472.38 3802.5,3470.5C 3800.93,3427.17 3800.6,3383.84 3801.5,3340.5C 3805.63,3339.89 3809.63,3339.22 3813.5,3338.5 Z M 3907.5,3347.5 C 3914.09,3348.93 3920.76,3349.93 3927.5,3350.5C 3932.55,3390.34 3934.38,3430.34 3933,3470.5C 3925.81,3471.61 3918.64,3471.11 3911.5,3469C 3910.38,3468.16 3909.71,3466.99 3909.5,3465.5C 3913.82,3426.07 3913.15,3386.74 3907.5,3347.5 Z M 4023.5,3355.5 C 4024.22,3355.92 4024.72,3356.58 4025,3357.5C 4030.52,3393.3 4033.19,3429.3 4033,3465.5C 4028.38,3468.76 4023.22,3470.09 4017.5,3469.5C 4018.47,3431.82 4016.81,3394.32 4012.5,3357C 4016.36,3356.82 4020.02,3356.32 4023.5,3355.5 Z M 3661.5,3432.5 C 3680.23,3431.9 3698.56,3434.23 3716.5,3439.5C 3717.5,3447.81 3717.83,3456.14 3717.5,3464.5C 3671.72,3458.46 3628.06,3465.63 3586.5,3486C 3563.35,3497.4 3541.02,3510.07 3519.5,3524C 3518.24,3524.98 3516.91,3525.32 3515.5,3525C 3528.85,3506.36 3543.85,3489.03 3560.5,3473C 3589.97,3449.01 3623.64,3435.51 3661.5,3432.5 Z M 4262.5,3481.5 C 4259.55,3485.62 4256.38,3489.62 4253,3493.5C 4252.77,3490.91 4252.27,3488.41 4251.5,3486C 4255.19,3484.49 4258.85,3482.99 4262.5,3481.5 Z M 4170.5,3521.5 C 4171.12,3521.61 4171.62,3521.94 4172,3522.5C 4174.48,3539.49 4176.48,3556.49 4178,3573.5C 4171.33,3580.17 4164.67,3586.83 4158,3593.5C 4155.28,3571.61 4152.94,3549.61 4151,3527.5C 4153.54,3526.48 4156.04,3525.31 4158.5,3524C 4162.77,3523.81 4166.77,3522.98 4170.5,3521.5 Z M 3683.5,3545.5 C 3694.99,3546.13 3706.33,3547.8 3717.5,3550.5C 3717.99,3553.71 3717.32,3556.54 3715.5,3559C 3688.74,3561.43 3662.08,3560.76 3635.5,3557C 3651.08,3550.79 3667.08,3546.96 3683.5,3545.5 Z M 4058.5,3546.5 C 4061.7,3547.79 4065.03,3548.45 4068.5,3548.5C 4073.25,3586.04 4075.25,3623.7 4074.5,3661.5C 4063.22,3667.64 4051.56,3672.97 4039.5,3677.5C 4039.17,3675.33 4038.83,3673.17 4038.5,3671C 4040.32,3631.17 4041.98,3591.34 4043.5,3551.5C 4048.76,3550.28 4053.76,3548.61 4058.5,3546.5 Z M 3910.5,3554.5 C 3921.82,3555.23 3933.16,3555.9 3944.5,3556.5C 3948.97,3556.62 3953.3,3555.95 3957.5,3554.5C 3957.83,3558 3958.17,3561.5 3958.5,3565C 3957.31,3608.19 3955.65,3651.35 3953.5,3694.5C 3937.85,3696.03 3922.18,3697.36 3906.5,3698.5C 3907.92,3650.5 3909.26,3602.5 3910.5,3554.5 Z M 3801.5,3556.5 C 3810.75,3556.11 3818.91,3558.77 3826,3564.5C 3825.07,3609.83 3823.73,3655.17 3822,3700.5C 3815.26,3701.48 3808.42,3701.81 3801.5,3701.5C 3801.5,3653.17 3801.5,3604.83 3801.5,3556.5 Z M 3528.5,3616.5 C 3589.51,3639.22 3652.51,3648.22 3717.5,3643.5C 3717.41,3675.84 3717.74,3708.17 3718.5,3740.5C 3614.87,3757.69 3528.87,3726.85 3460.5,3648C 3484.37,3639.9 3507.03,3629.4 3528.5,3616.5 Z M 4680.5,3863.5 C 4709.2,3861.86 4723.87,3875.53 4724.5,3904.5C 4724.68,3912.93 4722.68,3920.77 4718.5,3928C 4714.17,3930.58 4709.5,3932.25 4704.5,3933C 4669.83,3938.98 4635.16,3938.98 4600.5,3933C 4627.65,3910.34 4654.32,3887.17 4680.5,3863.5 Z M 4508.5,4008.5 C 4536.3,4046.5 4554.63,4088.84 4563.5,4135.5C 4554.88,4171.74 4539.54,4204.74 4517.5,4234.5C 4506.58,4170.48 4480.58,4113.65 4439.5,4064C 4462.69,4045.64 4485.69,4027.14 4508.5,4008.5 Z M 4698.5,4018.5 C 4700.2,4018.34 4701.87,4018.51 4703.5,4019C 4676.63,4026.86 4651.46,4038.36 4628,4053.5C 4623.27,4042.06 4618.6,4030.72 4614,4019.5C 4618.41,4020.3 4622.91,4020.8 4627.5,4021C 4643.83,4021.67 4660.17,4021.67 4676.5,4021C 4684.03,4020.6 4691.36,4019.77 4698.5,4018.5 Z M 4745.5,4096.5 C 4771.4,4095.44 4790.4,4106.28 4802.5,4129C 4760.22,4152.03 4715.05,4162.86 4667,4161.5C 4663.61,4153.06 4659.45,4145.06 4654.5,4137.5C 4676.33,4121.08 4700.33,4108.58 4726.5,4100C 4732.93,4098.6 4739.27,4097.43 4745.5,4096.5 Z M 4371.5,4115.5 C 4373.02,4115.51 4374.18,4116.18 4375,4117.5C 4422.54,4176.18 4442.38,4243.01 4434.5,4318C 4333.57,4383.49 4224.91,4400.49 4108.5,4369C 4084.6,4362.05 4061.6,4352.88 4039.5,4341.5C 4038.6,4332.82 4038.93,4324.15 4040.5,4315.5C 4085,4302.24 4127.34,4284.08 4167.5,4261C 4237.63,4215.35 4305.63,4166.85 4371.5,4115.5 Z M 4607.5,4250.5 C 4616.49,4288.05 4615.33,4325.38 4604,4362.5C 4602.61,4366.29 4600.94,4369.95 4599,4373.5C 4582.45,4395.42 4562.45,4413.42 4539,4427.5C 4533.76,4402.78 4525.93,4378.94 4515.5,4356C 4553.27,4326.91 4583.94,4291.75 4607.5,4250.5 Z M 4804.5,4315.5 C 4825.9,4313.95 4840.07,4323.28 4847,4343.5C 4847.67,4347.83 4847.67,4352.17 4847,4356.5C 4843.8,4359.86 4839.97,4362.36 4835.5,4364C 4786.54,4380.6 4736.2,4388.77 4684.5,4388.5C 4686.94,4379.58 4689.6,4370.74 4692.5,4362C 4718.55,4351.98 4743.88,4340.31 4768.5,4327C 4780.27,4322.02 4792.27,4318.19 4804.5,4315.5 Z M 4445.5,4409.5 C 4447.98,4413.41 4449.82,4417.75 4451,4422.5C 4464.16,4470.84 4467.16,4519.84 4460,4569.5C 4459.75,4570.62 4459.25,4571.62 4458.5,4572.5C 4338.66,4629.17 4214,4643 4084.5,4614C 4065.55,4609.43 4046.89,4603.93 4028.5,4597.5C 4027.65,4542.1 4029.32,4486.76 4033.5,4431.5C 4156.56,4480.99 4279.56,4480.82 4402.5,4431C 4417.45,4424.86 4431.79,4417.69 4445.5,4409.5 Z M 4621.5,4471.5 C 4635.31,4496.76 4644.48,4523.76 4649,4552.5C 4654.39,4586.63 4656.39,4620.96 4655,4655.5C 4637.53,4683.47 4615.36,4707.14 4588.5,4726.5C 4582.36,4679.75 4566.36,4636.75 4540.5,4597.5C 4545.2,4570.72 4547.87,4543.72 4548.5,4516.5C 4575.38,4505.25 4599.71,4490.25 4621.5,4471.5 Z M 4871.5,4598.5 C 4902.63,4599.4 4925.63,4613.57 4940.5,4641C 4878.59,4672.55 4812.92,4688.38 4743.5,4688.5C 4737.88,4679.38 4736.88,4669.72 4740.5,4659.5C 4752.41,4654.55 4764.08,4649.05 4775.5,4643C 4793.67,4632.41 4812,4622.08 4830.5,4612C 4843.72,4605.76 4857.39,4601.26 4871.5,4598.5 Z M 4477.5,4656.5 C 4506.67,4707.89 4512.51,4761.89 4495,4818.5C 4407.75,4859.81 4315.75,4880.48 4219,4880.5C 4181.86,4880.89 4145.03,4877.72 4108.5,4871C 4086.69,4866.63 4065.03,4861.8 4043.5,4856.5C 4036.67,4803.7 4032,4750.7 4029.5,4697.5C 4029.83,4693.83 4030.17,4690.17 4030.5,4686.5C 4129.91,4715.36 4230.58,4720.52 4332.5,4702C 4382.82,4692.72 4431.16,4677.56 4477.5,4656.5 Z M 4679.5,4759.5 C 4680.59,4759.62 4681.25,4760.29 4681.5,4761.5C 4691.79,4802.4 4693.96,4843.74 4688,4885.5C 4674.12,4916.38 4653.29,4941.55 4625.5,4961C 4624.55,4961.48 4623.55,4961.65 4622.5,4961.5C 4621.28,4930.33 4611.78,4901.99 4594,4876.5C 4586.83,4868 4579.67,4859.5 4572.5,4851C 4575.74,4843.44 4578.08,4835.6 4579.5,4827.5C 4617.47,4811.51 4650.8,4788.85 4679.5,4759.5 Z M 4064.5,4948.5 C 4216.84,4980.09 4364.68,4965.76 4508,4905.5C 4513.63,4912.79 4519.63,4919.79 4526,4926.5C 4541.09,4952.67 4543.42,4980 4533,5008.5C 4521.33,5022.09 4507.5,5032.92 4491.5,5041C 4414.88,5076.71 4334.88,5087.37 4251.5,5073C 4171.15,5057.87 4108.82,5016.37 4064.5,4948.5 Z M 4763.5,4922.5 C 4790.2,4924.55 4816.87,4927.05 4843.5,4930C 4811.18,4938.16 4778.84,4946.16 4746.5,4954C 4753.34,4944.16 4759,4933.66 4763.5,4922.5 Z"/></g>
<g><path style="opacity:0.986" fill="#000000" d="M 4234.5,639.5 C 4247.65,638.276 4259.32,641.776 4269.5,650C 4311.05,697.789 4363.05,728.123 4425.5,741C 4442.33,748.511 4451.33,761.511 4452.5,780C 4450.32,806.179 4436.15,820.345 4410,822.5C 4328.2,806.954 4260.2,767.954 4206,705.5C 4194.37,683.188 4197.87,663.688 4216.5,647C 4222.24,643.623 4228.24,641.123 4234.5,639.5 Z"/></g>
<g><path style="opacity:0.985" fill="#000000" d="M 4485.5,664.5 C 4493.66,664.009 4501.66,664.842 4509.5,667C 4575.13,700.965 4623.3,751.465 4654,818.5C 4657.06,849.049 4643.4,866.383 4613,870.5C 4599.1,869.883 4587.77,864.217 4579,853.5C 4554.33,804.493 4517.83,766.993 4469.5,741C 4452.78,727.299 4447.95,710.132 4455,689.5C 4461.19,676.128 4471.36,667.794 4485.5,664.5 Z"/></g>
<g><path style="opacity:0.988" fill="#000000" d="M 4247.5,817.5 C 4260.45,816.152 4272.11,819.319 4282.5,827C 4301.71,841.872 4318.54,859.038 4333,878.5C 4333.72,879.059 4334.56,879.392 4335.5,879.5C 4380.81,862.908 4427.48,856.741 4475.5,861C 4497.08,868.972 4506.91,884.472 4505,907.5C 4501.17,927.333 4489.33,939.167 4469.5,943C 4448.72,942.757 4428.05,944.09 4407.5,947C 4396.81,948.755 4386.47,951.589 4376.5,955.5C 4383.58,975.478 4389.24,995.811 4393.5,1016.5C 4412.73,1027.57 4432.06,1038.4 4451.5,1049C 4459.17,1052.33 4466.83,1052.33 4474.5,1049C 4504.58,1046.41 4521.58,1060.08 4525.5,1090C 4524.72,1109.43 4515.38,1122.77 4497.5,1130C 4468.43,1138.82 4440.1,1136.82 4412.5,1124C 4393.51,1113.84 4374.84,1103.17 4356.5,1092C 4336.31,1083.59 4315.31,1080.59 4293.5,1083C 4269.36,1085.87 4246.03,1091.87 4223.5,1101C 4205.7,1108.57 4187.7,1115.57 4169.5,1122C 4144.64,1123.5 4128.81,1112.33 4122,1088.5C 4119.23,1069.46 4125.73,1054.62 4141.5,1044C 4179.23,1025.8 4218.57,1012.14 4259.5,1003C 4273.72,1000.37 4288.05,998.707 4302.5,998C 4287.56,953.403 4261.39,916.903 4224,888.5C 4210.69,871.7 4209.36,854.033 4220,835.5C 4226.84,825.836 4236.01,819.836 4247.5,817.5 Z"/></g>
<g><path style="opacity:0.984" fill="#000000" d="M 4612.5,881.5 C 4625.33,881.053 4636.66,884.886 4646.5,893C 4671.38,922.208 4695.88,951.708 4720,981.5C 4729.78,1004.21 4724.95,1023.05 4705.5,1038C 4683.38,1048.95 4664.22,1045.12 4648,1026.5C 4626.24,999.982 4604.24,973.648 4582,947.5C 4570.72,925.849 4573.88,906.682 4591.5,890C 4598.01,885.67 4605.01,882.836 4612.5,881.5 Z"/></g>
<g><path style="opacity:0.987" fill="#000000" d="M 4611.5,1024.5 C 4623.86,1022.64 4635.19,1025.14 4645.5,1032C 4667.33,1055.03 4687,1079.69 4704.5,1106C 4707.83,1106.67 4711.17,1106.67 4714.5,1106C 4731.46,1100.71 4748.79,1097.54 4766.5,1096.5C 4792.97,1096.59 4814.8,1106.59 4832,1126.5C 4855.88,1162.11 4870.71,1201.28 4876.5,1244C 4872.4,1274.43 4855.07,1288.09 4824.5,1285C 4809.17,1281 4799,1271.5 4794,1256.5C 4789.79,1231.54 4781.79,1207.87 4770,1185.5C 4768.95,1183.37 4767.45,1181.71 4765.5,1180.5C 4760.28,1181.09 4755.28,1182.42 4750.5,1184.5C 4775.98,1235.44 4794.82,1288.78 4807,1344.5C 4810.41,1371.2 4799.25,1388.04 4773.5,1395C 4749,1397.17 4732.83,1386.67 4725,1363.5C 4702,1261.49 4656.33,1171.49 4588,1093.5C 4575.06,1074.59 4575.39,1055.93 4589,1037.5C 4595.44,1031.2 4602.94,1026.87 4611.5,1024.5 Z"/></g>
<g><path style="opacity:0.988" fill="#000000" d="M 4215.5,1139.5 C 4246.28,1137.62 4263.28,1151.96 4266.5,1182.5C 4265.62,1193.48 4265.29,1204.48 4265.5,1215.5C 4284.97,1213.24 4304.47,1211.24 4324,1209.5C 4346.11,1210.22 4360.11,1221.22 4366,1242.5C 4369.31,1264.39 4361.14,1280.22 4341.5,1290C 4337.65,1291.62 4333.65,1292.62 4329.5,1293C 4298.78,1296.3 4268.11,1299.97 4237.5,1304C 4214.17,1324.02 4187.17,1336.35 4156.5,1341C 4143.57,1343.24 4130.57,1344.91 4117.5,1346C 4086.12,1347.75 4054.79,1350.09 4023.5,1353C 3989.24,1355.86 3958.24,1367.19 3930.5,1387C 3921.46,1395.77 3913.13,1405.1 3905.5,1415C 3888.4,1427.15 3871.07,1427.49 3853.5,1416C 3833.61,1397.03 3831.45,1376.2 3847,1353.5C 3873.75,1319.52 3907.92,1296.02 3949.5,1283C 3974.98,1275.3 4000.98,1270.3 4027.5,1268C 4061.87,1265.76 4096.2,1263.1 4130.5,1260C 4147.74,1258.25 4163.74,1252.92 4178.5,1244C 4179.7,1243.1 4180.53,1241.93 4181,1240.5C 4181.33,1222.17 4181.67,1203.83 4182,1185.5C 4181.94,1161.76 4193.11,1146.42 4215.5,1139.5 Z"/></g>
<g><path style="opacity:0.988" fill="#000000" d="M 4648.5,1246.5 C 4675.5,1248 4690.17,1262.17 4692.5,1289C 4688.47,1332.82 4677.97,1374.99 4661,1415.5C 4623.33,1490.77 4562.16,1525.27 4477.5,1519C 4467.88,1530.48 4455.54,1535.98 4440.5,1535.5C 4416.82,1534.89 4393.16,1534.05 4369.5,1533C 4348.34,1527.5 4337,1513.83 4335.5,1492C 4338.68,1465.32 4353.68,1451.15 4380.5,1449.5C 4389.15,1450.25 4397.82,1450.59 4406.5,1450.5C 4405.63,1438.51 4405.46,1426.51 4406,1414.5C 4411.12,1392.55 4424.95,1380.89 4447.5,1379.5C 4467.84,1381.02 4481.34,1391.35 4488,1410.5C 4489.33,1418.77 4489.83,1427.11 4489.5,1435.5C 4529.74,1438.63 4559.91,1422.97 4580,1388.5C 4590.72,1368 4598.05,1346.34 4602,1323.5C 4604.55,1309.54 4606.88,1295.54 4609,1281.5C 4613.97,1260.45 4627.13,1248.79 4648.5,1246.5 Z"/></g>
<g><path style="opacity:0.988" fill="#000000" d="M 4424.5,1264.5 C 4457.88,1267.92 4472.05,1286.25 4467,1319.5C 4464.5,1327.67 4460,1334.5 4453.5,1340C 4415.26,1364.24 4382.76,1394.74 4356,1431.5C 4343.5,1451.18 4330.5,1470.51 4317,1489.5C 4309.72,1497.78 4301.56,1504.95 4292.5,1511C 4294.11,1527.48 4295.78,1543.98 4297.5,1560.5C 4329.2,1575.46 4361.87,1587.96 4395.5,1598C 4416.76,1611.16 4423.26,1629.66 4415,1653.5C 4404.79,1672.35 4388.96,1680.19 4367.5,1677C 4326.41,1664.7 4286.57,1649.2 4248,1630.5C 4217.34,1643.18 4189.84,1660.68 4165.5,1683C 4155.14,1694.36 4144.48,1705.36 4133.5,1716C 4110.08,1728.22 4090.25,1724.06 4074,1703.5C 4064.89,1687.08 4065.55,1671.08 4076,1655.5C 4112.98,1611.35 4157.81,1577.69 4210.5,1554.5C 4211.52,1547.18 4211.52,1539.84 4210.5,1532.5C 4197.74,1531.92 4185.07,1530.58 4172.5,1528.5C 4150.83,1545 4129.17,1561.5 4107.5,1578C 4091.72,1587.61 4075.72,1587.94 4059.5,1579C 4041.02,1564.55 4036.19,1546.39 4045,1524.5C 4046.75,1521.33 4048.75,1518.33 4051,1515.5C 4060.41,1507.88 4069.91,1500.38 4079.5,1493C 4069.03,1489.73 4058.69,1486.06 4048.5,1482C 4031.13,1470.25 4024.97,1454.08 4030,1433.5C 4037.95,1411.93 4053.45,1402.1 4076.5,1404C 4109.25,1413.69 4141.92,1423.69 4174.5,1434C 4181.04,1436.77 4186.71,1440.77 4191.5,1446C 4207.69,1449.76 4223.69,1449.09 4239.5,1444C 4244.21,1441.95 4248.38,1439.12 4252,1435.5C 4266.51,1413.15 4281.51,1391.15 4297,1369.5C 4327.53,1330.63 4363.36,1297.79 4404.5,1271C 4410.89,1267.58 4417.56,1265.41 4424.5,1264.5 Z"/></g>
<g><path style="opacity:0.989" fill="#000000" d="M 2940.5,1792.5 C 2988.08,1791.7 3034.74,1797.87 3080.5,1811C 3133.97,1826.58 3186.31,1845.24 3237.5,1867C 3331.78,1906.81 3425.11,1948.81 3517.5,1993C 3519.3,2022.93 3520.97,2052.93 3522.5,2083C 3522.62,2090.91 3521.96,2098.74 3520.5,2106.5C 3484.88,2095.68 3449.88,2083.18 3415.5,2069C 3351.58,2041.58 3287.92,2013.58 3224.5,1985C 3168.14,1959.66 3110.47,1937.66 3051.5,1919C 2931.58,1888.08 2814.58,1896.74 2700.5,1945C 2683.02,1953.41 2665.69,1961.74 2648.5,1970C 2684.24,1929.19 2723.57,1892.53 2766.5,1860C 2807.9,1828.47 2854.24,1807.47 2905.5,1797C 2917.27,1795.16 2928.94,1793.66 2940.5,1792.5 Z"/></g>
<g><path style="opacity:0.985" fill="#000000" d="M 4032.5,1885.5 C 4066.97,1884.47 4083.47,1901.14 4082,1935.5C 4079.78,1945.77 4074.61,1954.27 4066.5,1961C 4020.07,1988.11 3988.24,2027.28 3971,2078.5C 3955.75,2097.58 3936.91,2102.08 3914.5,2092C 3893.4,2076.54 3888.23,2056.7 3899,2032.5C 3923.7,1970.47 3964.87,1922.64 4022.5,1889C 4025.98,1887.9 4029.31,1886.73 4032.5,1885.5 Z"/></g>
<g><path style="opacity:0.986" fill="#000000" d="M 5254.5,1949.5 C 5271.89,1949.73 5285.39,1957.06 5295,1971.5C 5336.58,2026.75 5349.25,2088.08 5333,2155.5C 5320,2176.95 5301.5,2183.78 5277.5,2176C 5261.77,2168.05 5253.43,2155.22 5252.5,2137.5C 5262.79,2090.99 5252.29,2049.99 5221,2014.5C 5209.62,1991.28 5214.12,1971.78 5234.5,1956C 5240.89,1952.58 5247.56,1950.41 5254.5,1949.5 Z"/></g>
<g><path style="opacity:0.992" fill="#000000" d="M 3062.5,2077.5 C 3185.24,2075.76 3298.9,2106.6 3403.5,2170C 3427.19,2184.77 3449.36,2201.6 3470,2220.5C 3479.61,2236.28 3479.94,2252.28 3471,2268.5C 3457.28,2286.18 3439.78,2291.35 3418.5,2284C 3412.56,2280.78 3407.06,2276.95 3402,2272.5C 3398.87,2276.63 3395.37,2280.47 3391.5,2284C 3424.98,2303.49 3456.81,2325.32 3487,2349.5C 3499.67,2367.83 3499.67,2386.17 3487,2404.5C 3407.29,2482.79 3312.79,2535.29 3203.5,2562C 3121.62,2578.88 3040.96,2574.22 2961.5,2548C 2890.18,2525.52 2825.85,2490.85 2768.5,2444C 2763.83,2439.67 2759.17,2435.33 2754.5,2431C 2744.46,2429.65 2735.13,2426.32 2726.5,2421C 2696.41,2404.25 2670.58,2382.41 2649,2355.5C 2638.48,2332.41 2643.32,2313.24 2663.5,2298C 2675.73,2291.91 2688.4,2290.91 2701.5,2295C 2705.83,2296.83 2709.83,2299.16 2713.5,2302C 2723.53,2313.7 2734.53,2324.37 2746.5,2334C 2749.52,2333.71 2752.19,2332.37 2754.5,2330C 2739.94,2310.5 2730.94,2288.67 2727.5,2264.5C 2732.02,2233.81 2749.69,2220.31 2780.5,2224C 2792.24,2227.08 2801.08,2233.91 2807,2244.5C 2809.82,2252.12 2812.49,2259.78 2815,2267.5C 2817.6,2273.05 2820.93,2278.05 2825,2282.5C 2835.23,2276.63 2845.4,2270.63 2855.5,2264.5C 2848.1,2248.7 2840.43,2233.04 2832.5,2217.5C 2810.46,2226.12 2792.29,2221.12 2778,2202.5C 2764.8,2170.73 2774.3,2148.56 2806.5,2136C 2887.85,2098.7 2973.19,2079.2 3062.5,2077.5 Z M 3063.5,2161.5 C 3059.86,2161.93 3056.36,2162.93 3053,2164.5C 3050.77,2173.36 3049.6,2182.36 3049.5,2191.5C 3061.77,2189.59 3074.1,2188.26 3086.5,2187.5C 3087.98,2179.08 3090.31,2170.91 3093.5,2163C 3083.53,2161.83 3073.53,2161.33 3063.5,2161.5 Z M 2961.5,2172.5 C 2944.63,2176.22 2927.97,2180.89 2911.5,2186.5C 2917.57,2200.3 2924.4,2213.63 2932,2226.5C 2943.02,2222.16 2954.02,2217.83 2965,2213.5C 2965.24,2199.81 2965.74,2186.14 2966.5,2172.5C 2964.83,2172.5 2963.17,2172.5 2961.5,2172.5 Z M 3181.5,2172.5 C 3178.05,2179.23 3174.72,2186.07 3171.5,2193C 3182.02,2195.42 3192.52,2197.92 3203,2200.5C 3208.43,2194.4 3213.93,2188.23 3219.5,2182C 3207.15,2177.76 3194.49,2174.59 3181.5,2172.5 Z M 3305.5,2212.5 C 3303.03,2220.16 3298.69,2226.66 3292.5,2232C 3299.61,2235.3 3306.77,2238.47 3314,2241.5C 3319.31,2236.36 3324.48,2231.02 3329.5,2225.5C 3321.83,2220.66 3313.83,2216.33 3305.5,2212.5 Z M 3177.5,2281.5 C 3195.4,2285.3 3212.73,2290.8 3229.5,2298C 3222.48,2324.88 3210.81,2349.38 3194.5,2371.5C 3200.63,2339.15 3194.96,2309.15 3177.5,2281.5 Z M 3005.5,2386.5 C 2991.26,2352.78 2992.42,2319.78 3009,2287.5C 2994.36,2292.6 2979.86,2298.1 2965.5,2304C 2964.34,2305.01 2963.68,2306.34 2963.5,2308C 2968.3,2339.25 2982.3,2365.41 3005.5,2386.5 Z M 3306.5,2332.5 C 3290.34,2390.7 3258.01,2437.54 3209.5,2473C 3226.81,2468.56 3243.81,2462.9 3260.5,2456C 3306.07,2436.57 3348.07,2411.57 3386.5,2381C 3360.74,2363.42 3334.07,2347.25 3306.5,2332.5 Z M 2956.5,2456.5 C 2921.73,2426.66 2897.73,2389.66 2884.5,2345.5C 2865.41,2357.13 2846.58,2369.13 2828,2381.5C 2827.49,2383 2827.99,2384.16 2829.5,2385C 2868,2415.26 2910.33,2439.09 2956.5,2456.5 Z"/></g>
<g><path style="opacity:0.988" fill="#000000" d="M 3591.5,2379.5 C 3614.37,2376.68 3630.53,2385.68 3640,2406.5C 3656.86,2539.73 3649.86,2671.73 3619,2802.5C 3608.65,2826.09 3590.82,2834.92 3565.5,2829C 3543.6,2819.73 3534.44,2803.23 3538,2779.5C 3555.87,2701.69 3565.03,2622.86 3565.5,2543C 3564.46,2499.75 3562.29,2456.59 3559,2413.5C 3562.9,2395.44 3573.73,2384.1 3591.5,2379.5 Z"/></g>
<g><path style="opacity:0.987" fill="#000000" d="M 2346.5,2575.5 C 2370.11,2575.72 2385.61,2587.06 2393,2609.5C 2401.02,2633.56 2403.69,2658.22 2401,2683.5C 2398.19,2705.86 2395.19,2728.19 2392,2750.5C 2389.49,2766.79 2392.16,2782.12 2400,2796.5C 2407.63,2801.79 2414.29,2808.13 2420,2815.5C 2428.99,2831.9 2428.32,2847.9 2418,2863.5C 2404.57,2878.98 2388.07,2883.48 2368.5,2877C 2340,2861.49 2321.5,2837.99 2313,2806.5C 2307.93,2786.8 2306.26,2766.8 2308,2746.5C 2310.46,2724.1 2313.46,2701.76 2317,2679.5C 2317.86,2668.12 2317.52,2656.79 2316,2645.5C 2313.08,2638.34 2310.75,2631 2309,2623.5C 2307.45,2608.77 2311.95,2596.27 2322.5,2586C 2329.75,2580.53 2337.75,2577.03 2346.5,2575.5 Z"/></g>
<g><path style="opacity:0.986" fill="#000000" d="M 2627.5,2693.5 C 2639.6,2692.22 2650.6,2695.05 2660.5,2702C 2762.85,2793.98 2871.85,2876.98 2987.5,2951C 3000.12,2965.35 3002.95,2981.51 2996,2999.5C 2986.29,3016.94 2971.46,3024.77 2951.5,3023C 2946.23,3022.13 2941.23,3020.47 2936.5,3018C 2817.56,2942.08 2705.72,2856.58 2601,2761.5C 2589.41,2743.58 2589.74,2725.92 2602,2708.5C 2608.99,2700.76 2617.49,2695.76 2627.5,2693.5 Z"/></g>
<g><path style="opacity:0.989" fill="#000000" d="M 4232.5,2714.5 C 4261.98,2712.72 4287.98,2721.22 4310.5,2740C 4320.12,2748.84 4325.12,2759.84 4325.5,2773C 4323.18,2813.32 4306.51,2846.32 4275.5,2872C 4267.65,2877.76 4259.99,2883.76 4252.5,2890C 4236.21,2899.99 4219.88,2899.99 4203.5,2890C 4183.5,2872 4163.5,2854 4143.5,2836C 4123.19,2818.31 4119.69,2797.81 4133,2774.5C 4153.25,2748.25 4179.08,2729.75 4210.5,2719C 4217.91,2717.16 4225.24,2715.66 4232.5,2714.5 Z"/></g>
<g><path style="opacity:0.985" fill="#000000" d="M 2592.5,2858.5 C 2604.28,2856.93 2615.28,2859.09 2625.5,2865C 2675.66,2901.91 2725.99,2938.58 2776.5,2975C 2794.02,2993.37 2795.86,3013.2 2782,3034.5C 2767.73,3049.28 2750.89,3053.11 2731.5,3046C 2678.83,3008 2626.17,2970 2573.5,2932C 2557.09,2914.27 2555.26,2895.11 2568,2874.5C 2574.52,2866.45 2582.69,2861.11 2592.5,2858.5 Z"/></g>
<g><path style="opacity:0.989" fill="#000000" d="M 6202.5,4844.5 C 6256.85,4843.78 6304.52,4860.95 6345.5,4896C 6393.92,4944.84 6402.42,5000.01 6371,5061.5C 6345.27,5103.87 6308.43,5132.03 6260.5,5146C 6225.76,5155.3 6190.43,5160.96 6154.5,5163C 6147.69,5170.14 6140.03,5176.14 6131.5,5181C 6118.41,5187.25 6105.08,5192.92 6091.5,5198C 6088.45,5204.22 6084.12,5209.38 6078.5,5213.5C 6039.53,5299.98 5980.53,5369.48 5901.5,5422C 5879.77,5429.93 5861.94,5424.76 5848,5406.5C 5838.67,5389.18 5839.67,5372.52 5851,5356.5C 5869.96,5342.27 5888.46,5327.43 5906.5,5312C 5952.32,5268.56 5986.82,5217.39 6010,5158.5C 6011.75,5155.33 6013.75,5152.33 6016,5149.5C 6026.12,5142.38 6035.95,5134.88 6045.5,5127C 6060.28,5119.74 6075.28,5113.08 6090.5,5107C 6101.66,5096.53 6105.82,5083.7 6103,5068.5C 6099.7,5055.74 6093.2,5044.9 6083.5,5036C 6066.35,5021.6 6046.69,5012.26 6024.5,5008C 6015.57,5006.2 6006.57,5004.87 5997.5,5004C 5977.84,5002.88 5958.17,5001.88 5938.5,5001C 5914.2,4992.91 5903.7,4976.08 5907,4950.5C 5912.37,4931.46 5924.87,4920.63 5944.5,4918C 5974.59,4917.26 6004.42,4919.42 6034,4924.5C 6078.6,4873.79 6134.77,4847.12 6202.5,4844.5 Z M 6203.5,4928.5 C 6231.22,4928.26 6256.55,4935.76 6279.5,4951C 6309.35,4972.7 6313.51,4998.54 6292,5028.5C 6276.01,5048.26 6255.51,5061.09 6230.5,5067C 6216.44,5070.61 6202.28,5073.44 6188,5075.5C 6184.5,5025.32 6162,4986.15 6120.5,4958C 6145.19,4939.72 6172.85,4929.88 6203.5,4928.5 Z"/></g>
<g><path style="opacity:0.991" fill="#000000" d="M 5108.5,4999.5 C 5182.72,4996.98 5254.39,5009.15 5323.5,5036C 5383.03,5061.19 5433.87,5098.36 5476,5147.5C 5504.45,5181.96 5529.79,5218.63 5552,5257.5C 5567.51,5285.18 5582.51,5313.18 5597,5341.5C 5603.51,5364.32 5596.84,5381.99 5577,5394.5C 5564.86,5415.55 5547.02,5422.72 5523.5,5416C 5346.65,5323.79 5158.65,5285.13 4959.5,5300C 4897.53,5303.88 4835.53,5307.21 4773.5,5310C 4706.36,5312.95 4639.53,5309.78 4573,5300.5C 4530.8,5293.99 4489.63,5283.49 4449.5,5269C 4447.83,5268 4446.17,5267 4444.5,5266C 4414.1,5268.99 4383.6,5270.83 4353,5271.5C 4315.43,5271.53 4278.26,5267.69 4241.5,5260C 4215.83,5249.16 4207,5230.33 4215,5203.5C 4222.55,5186.88 4235.55,5178.21 4254,5177.5C 4312.24,5188.92 4370.74,5190.42 4429.5,5182C 4485.66,5173.88 4540.66,5160.88 4594.5,5143C 4613.24,5136.86 4631.91,5130.53 4650.5,5124C 4710.35,5101.61 4770.35,5079.61 4830.5,5058C 4902.29,5032.3 4975.96,5014.3 5051.5,5004C 5070.63,5002.11 5089.63,5000.61 5108.5,4999.5 Z M 5110.5,5083.5 C 5175.63,5081.19 5238.3,5092.35 5298.5,5117C 5342.61,5137.11 5380.45,5165.61 5412,5202.5C 5437.34,5233.34 5459.84,5266.17 5479.5,5301C 5312.13,5231.27 5137.79,5202.94 4956.5,5216C 4898.52,5219.67 4840.52,5222.67 4782.5,5225C 4841.1,5214.28 4899.77,5203.95 4958.5,5194C 5001.15,5188.16 5043.98,5184.66 5087,5183.5C 5133.63,5183.81 5179.46,5189.97 5224.5,5202C 5240.84,5207 5257.17,5212 5273.5,5217C 5302.83,5218.51 5319.16,5204.67 5322.5,5175.5C 5321.54,5159.74 5314.54,5147.57 5301.5,5139C 5219.96,5108.02 5135.62,5095.35 5048.5,5101C 5014.72,5103.15 4981.05,5106.15 4947.5,5110C 5001.01,5095.08 5055.34,5086.25 5110.5,5083.5 Z"/></g>
<g><path style="opacity:0.989" fill="#000000" d="M 3547.5,5069.5 C 3577.54,5067.38 3594.54,5081.21 3598.5,5111C 3597.97,5121.89 3594.47,5131.72 3588,5140.5C 3557.69,5185.45 3516.86,5216.95 3465.5,5235C 3411.91,5253.62 3356.91,5259.95 3300.5,5254C 3265.43,5250.32 3230.76,5244.32 3196.5,5236C 3144.62,5222.28 3092.28,5210.61 3039.5,5201C 2974.96,5192.24 2910.3,5191.24 2845.5,5198C 2792.18,5203.43 2739.18,5211.09 2686.5,5221C 2616.24,5234.72 2545.91,5248.05 2475.5,5261C 2380.88,5278.3 2285.55,5284.64 2189.5,5280C 2100.33,5275.6 2015.99,5253.27 1936.5,5213C 1921.67,5205.09 1907.33,5196.42 1893.5,5187C 1878.58,5172.76 1874.75,5155.93 1882,5136.5C 1895.75,5113.4 1915.25,5106.9 1940.5,5117C 1998.84,5154.65 2062.51,5178.65 2131.5,5189C 2207.36,5199.24 2283.36,5200.24 2359.5,5192C 2408.81,5186.73 2457.81,5179.39 2506.5,5170C 2565.48,5158.54 2624.48,5147.2 2683.5,5136C 2766.58,5119.92 2850.41,5111.08 2935,5109.5C 2996.29,5109.38 3056.79,5116.22 3116.5,5130C 3165.25,5142.44 3214.25,5153.77 3263.5,5164C 3305.67,5172.57 3348.01,5173.9 3390.5,5168C 3426.74,5162.54 3459.41,5148.87 3488.5,5127C 3501.92,5115.92 3512.75,5102.75 3521,5087.5C 3527.6,5078.12 3536.43,5072.12 3547.5,5069.5 Z"/></g>
<g><path style="opacity:0.987" fill="#000000" d="M 6030.5,5436.5 C 6027.83,5436.5 6025.17,5436.5 6022.5,5436.5C 5994.95,5430.78 5982.45,5413.78 5985,5385.5C 5986.16,5380.17 5988.16,5375.17 5991,5370.5C 6059.49,5261.98 6154.99,5188.14 6277.5,5149C 6300.7,5144.38 6317.53,5152.55 6328,5173.5C 6335.31,5197.58 6328.15,5215.75 6306.5,5228C 6198.63,5261.9 6115.46,5327.06 6057,5423.5C 6049.34,5430.41 6040.5,5434.75 6030.5,5436.5 Z"/></g>
</svg>
