<?xml version="1.0" standalone="no"?>
<!DOCTYPE svg PUBLIC "-//W3C//DTD SVG 20010904//EN"
 "http://www.w3.org/TR/2001/REC-SVG-20010904/DTD/svg10.dtd">
<svg version="1.0" xmlns="http://www.w3.org/2000/svg"
 width="8222.000000pt" height="7839.000000pt" viewBox="0 0 8222.000000 7839.000000"
 preserveAspectRatio="xMidYMid meet">

<g transform="translate(0.000000,7839.000000) scale(0.100000,-0.100000)"
fill="#000000" stroke="none">
<path d="M24683 78375 c-168 -46 -285 -171 -313 -336 -8 -48 -3 -555 18 -1999
16 -1064 26 -1938 23 -1942 -3 -3 -679 -141 -1501 -307 -16411 -3297 -22450
-4514 -22495 -4535 -100 -46 -184 -144 -220 -255 -28 -85 -18 -217 23 -302 35
-73 112 -153 180 -188 65 -33 160 -54 217 -48 27 3 5390 1079 11916 2391 6527
1312 11873 2386 11882 2386 13 0 15 -41 19 -312 2 -172 3 -315 1 -317 -2 -2
-672 -130 -1490 -283 -4581 -857 -6691 -1260 -9333 -1784 -3904 -774 -7935
-1625 -12390 -2615 -1043 -232 -1019 -225 -1106 -323 -161 -178 -149 -428 28
-591 73 -68 146 -97 253 -102 74 -4 142 10 955 191 6015 1338 11009 2370
16970 3505 1836 350 6121 1153 6125 1149 2 -2 13 -672 24 -1490 20 -1424 22
-1490 41 -1552 96 -309 483 -394 705 -154 89 96 99 134 103 383 1 116 -6 811
-17 1545 -10 734 -18 1337 -16 1339 4 3 744 -40 2885 -169 3074 -187 6076
-377 8805 -561 655 -43 1238 -82 1297 -86 l108 -6 -71 -74 c-124 -131 -206
-281 -240 -438 -33 -156 -6 -361 72 -543 79 -185 275 -476 491 -729 234 -273
474 -413 735 -427 84 -5 87 -6 115 -41 l29 -35 -48 0 c-68 0 -355 26 -568 51
-281 33 -376 18 -491 -77 -78 -63 -203 -277 -280 -476 -198 -512 -128 -1085
184 -1518 l69 -95 6 -452 c20 -1325 93 -2177 273 -3198 42 -233 62 -284 144
-367 86 -86 276 -172 523 -238 229 -60 551 -108 879 -131 235 -15 785 -7 968
15 491 60 765 178 857 368 25 52 40 115 82 353 28 160 59 346 70 414 11 68 21
124 23 126 2 2 66 -3 143 -11 77 -8 266 -25 420 -37 l280 -22 6 -315 c8 -381
37 -695 94 -1019 30 -172 95 -259 266 -360 512 -301 1170 -516 1839 -600 268
-34 475 -44 785 -38 449 9 763 49 1160 148 418 105 895 296 1018 409 91 83
114 142 148 373 30 213 69 546 69 595 0 29 2 31 28 27 15 -3 173 -23 352 -46
556 -69 1563 -199 1567 -203 3 -3 -540 -292 -1147 -609 -1056 -552 -2133
-1084 -2994 -1479 l-240 -110 -1235 167 c-680 91 -2476 332 -3991 536 -1515
203 -4046 543 -5625 755 -1578 211 -3806 511 -4950 665 -1144 154 -2135 287
-2203 296 -104 14 -133 15 -185 4 -177 -37 -305 -167 -338 -345 -13 -72 1
-166 36 -244 45 -99 157 -194 260 -221 51 -13 1308 -183 10315 -1391 2626
-352 5477 -735 6335 -851 858 -116 1585 -213 1616 -216 30 -3 80 0 109 6 108
23 1215 545 2190 1033 777 388 1177 595 2495 1293 523 276 997 526 1054 556
176 92 255 185 283 337 32 173 -65 361 -227 441 -62 31 -83 34 -652 106 -323
41 -920 117 -1326 169 -405 53 -906 117 -1111 143 l-374 47 -6 35 c-3 20 -6
66 -6 102 0 241 -70 696 -150 979 -183 643 -475 1124 -938 1542 -225 202 -336
316 -368 378 -27 51 -29 62 -29 170 0 138 24 255 65 320 62 97 135 329 161
508 15 108 6 391 -16 489 -103 462 -401 812 -807 948 -198 66 -391 79 -578 40
-439 -92 -803 -431 -955 -888 -51 -155 -69 -282 -62 -451 6 -171 36 -295 104
-436 52 -107 54 -127 27 -297 -38 -250 -114 -352 -419 -568 -239 -169 -352
-261 -491 -399 -390 -390 -660 -886 -814 -1498 -22 -88 -40 -169 -40 -180 0
-20 -3 -21 -112 -15 -119 7 -711 58 -715 61 -2 1 13 124 32 272 49 379 137
1137 186 1609 l41 400 50 110 c258 563 271 1208 35 1669 -91 179 -234 343
-340 391 -103 48 -141 49 -404 16 -131 -16 -314 -37 -408 -45 -93 -9 -191 -18
-217 -20 -27 -3 -48 -3 -48 0 0 2 16 36 36 76 l36 71 59 -6 c128 -11 279 28
396 104 75 49 219 197 295 304 143 203 334 547 412 747 88 225 129 449 110
607 -7 60 -6 81 2 81 17 0 1962 -142 2819 -205 4258 -317 7941 -608 15815
-1251 2370 -194 2226 -186 2343 -129 72 36 159 126 195 202 24 52 27 70 27
168 0 103 -2 114 -32 177 -52 111 -153 196 -269 227 -59 16 -7601 631 -11724
956 -8703 686 -16062 1192 -25409 1750 -596 35 -1085 65 -1086 67 -1 2 -6 165
-10 362 -6 300 -5 358 6 353 8 -3 42 -17 76 -31 61 -26 189 -35 19110 -1412
16500 -1201 19055 -1385 19103 -1375 301 62 438 405 260 653 -46 65 -137 131
-214 153 -36 11 -5474 410 -19081 1401 -16256 1184 -19039 1384 -19094 1376
-35 -6 -90 -23 -121 -39 l-57 -28 -6 335 c-4 184 -16 1051 -27 1925 -11 875
-24 1625 -30 1669 -12 99 -45 172 -109 239 -107 113 -258 159 -398 122z
m15527 -7495 c327 -22 610 -43 628 -46 l33 -5 -46 -82 c-80 -142 -201 -389
-239 -485 -86 -214 -111 -344 -103 -524 6 -140 26 -219 88 -339 l39 -75 -93
-193 -93 -192 -113 131 -113 130 30 38 c35 45 72 117 98 192 15 43 19 82 18
185 0 119 -3 138 -32 225 -40 119 -105 247 -210 417 -147 236 -281 414 -432
576 -45 48 -76 87 -68 87 7 0 281 -18 608 -40z m1534 -326 c39 -15 -3 -172
-95 -356 -50 -102 -212 -380 -248 -427 l-18 -24 -37 22 c-20 13 -36 27 -36 33
0 56 172 424 280 600 48 77 115 158 131 158 4 0 14 -3 23 -6z m-2764 -219 c59
-43 140 -130 218 -233 98 -129 272 -397 272 -418 0 -5 -16 -19 -36 -32 l-35
-23 -78 78 c-132 133 -389 492 -421 589 -10 30 -9 38 6 55 9 10 19 19 22 19 2
0 26 -16 52 -35z m7168 -2186 c139 -69 231 -241 232 -431 l0 -68 -147 0 c-220
0 -572 35 -612 59 -19 12 5 124 44 207 54 113 157 214 253 249 20 7 67 14 103
14 54 1 77 -4 127 -30z m-4175 -269 c24 -86 33 -298 18 -413 -23 -168 -86
-371 -120 -381 -48 -15 -328 -68 -471 -90 -293 -45 -443 -57 -777 -63 -430 -7
-717 14 -1093 83 -206 37 -488 109 -512 130 -33 31 -105 155 -134 234 -26 70
-28 85 -29 235 0 141 3 169 24 238 13 42 25 77 26 77 1 0 67 -7 146 -15 611
-63 1457 -77 2109 -35 175 11 583 47 675 60 114 15 117 14 138 -60z m4018
-1057 l146 -6 0 -136 c0 -321 100 -574 327 -826 37 -41 158 -157 268 -257 231
-209 329 -316 439 -482 260 -391 405 -845 449 -1410 13 -167 13 -572 0 -768
-11 -158 -40 -454 -61 -615 l-11 -92 -132 -50 c-677 -257 -1500 -326 -2282
-191 -264 46 -533 119 -764 207 -156 59 -430 187 -430 200 0 4 -9 82 -20 173
-63 540 -45 1113 49 1559 105 494 299 891 583 1196 95 103 206 193 410 338
322 229 455 358 583 571 86 141 152 333 201 585 5 22 8 23 52 17 26 -3 113 -9
193 -13z m-6366 -668 c315 -45 514 -59 885 -59 410 0 657 19 1035 78 83 13
152 22 153 20 6 -4 -83 -786 -144 -1279 -90 -724 -250 -1796 -272 -1817 -12
-11 -222 -37 -404 -49 -408 -27 -1010 20 -1328 104 l-85 22 -37 220 c-118 710
-186 1539 -205 2494 l-6 338 119 -24 c65 -13 196 -34 289 -48z"/>
<path d="M67930 73544 c-214 -70 -951 -302 -1730 -544 -481 -149 -1010 -314
-1175 -367 -767 -243 -753 -238 -835 -330 -65 -74 -91 -142 -101 -257 -24
-293 -3 -2403 37 -3670 l7 -208 -124 6 c-532 29 -761 46 -1639 121 -1036 88
-1407 113 -1851 122 -228 5 -319 3 -355 -6 -118 -30 -1270 -491 -2311 -925
-787 -328 -3137 -1323 -3260 -1381 -93 -43 -164 -113 -206 -203 l-32 -67 -3
-835 c-5 -1228 16 -3841 48 -6010 44 -2981 95 -5333 240 -11170 216 -8669 270
-11695 296 -16594 6 -1223 6 -1269 -11 -1262 -10 4 -78 25 -152 48 l-133 42
-16 50 c-73 223 -261 426 -498 537 -336 157 -753 111 -1066 -116 -84 -61
-1081 -1060 -2099 -2102 l-803 -823 -1606 1598 c-884 878 -1788 1777 -2010
1998 l-403 400 -10 445 c-5 244 -14 2105 -18 4134 -9 3462 -21 5033 -41 5150
-5 28 -5 53 -2 57 4 4 219 128 477 276 1298 743 2897 1689 4174 2471 244 149
445 270 447 268 17 -17 39 -2946 54 -7207 6 -1570 15 -3161 20 -3535 16 -1241
31 -1949 41 -2002 43 -220 276 -385 655 -463 216 -45 334 -54 669 -54 356 0
481 12 579 57 70 32 381 238 625 415 345 249 502 387 550 481 43 84 50 153 45
450 -2 152 -9 704 -14 1226 -11 1029 -112 10029 -131 11630 l-11 980 35 52
c76 112 72 68 70 915 l-2 756 -25 64 c-38 102 -65 148 -120 206 -48 51 -130
102 -187 115 -14 4 -325 52 -690 106 -1300 196 -5490 839 -5495 844 -2 2 -8
810 -14 1797 -5 987 -13 1813 -16 1835 -4 22 -12 55 -20 73 l-13 33 151 197
c84 108 165 220 180 247 110 202 64 542 -127 930 -336 683 -910 1084 -1505
1051 -130 -7 -200 -23 -262 -59 -24 -13 -540 -328 -1148 -699 -608 -371 -1143
-696 -1188 -724 -139 -82 -302 -266 -389 -439 -44 -86 -89 -221 -110 -322 -28
-140 -23 -374 10 -534 170 -812 936 -1611 1730 -1804 306 -75 592 -48 852 79
195 96 326 210 442 386 62 93 199 269 422 543 l146 179 6 -569 c3 -312 7 -907
8 -1321 l1 -754 -27 6 c-48 10 -2619 404 -3697 567 -291 43 -532 81 -534 84
-2 2 19 284 47 627 120 1462 218 2840 341 4790 55 870 57 931 35 1091 -93 698
-601 1275 -1277 1451 -121 31 -182 40 -858 125 -2297 289 -4576 527 -6850 716
-723 60 -791 64 -932 54 -683 -47 -1284 -493 -1521 -1130 -82 -218 -101 -326
-127 -731 -74 -1150 -118 -2217 -175 -4283 -39 -1412 -35 -1315 -57 -1315 -10
0 -166 16 -346 35 -429 45 -956 96 -2077 200 -1061 99 -1416 133 -1465 140
-41 7 -35 -3 -285 465 -394 737 -765 1498 -1110 2280 -105 237 -275 635 -275
643 0 2 23 27 51 56 28 29 65 83 82 119 l32 67 -1 315 c-6 1243 -146 2231
-421 2974 -408 1102 -1119 1836 -1938 1999 l-111 22 49 80 c27 44 51 81 52 83
1 1 60 -37 131 -84 215 -144 449 -246 641 -279 307 -54 681 47 1022 275 137
92 325 265 417 386 l57 74 101 -6 c413 -27 796 206 936 567 53 137 64 200 63
359 0 125 -3 159 -26 245 -15 55 -50 146 -77 201 l-50 101 139 589 c76 324
141 598 143 609 3 17 17 21 112 32 641 76 1168 407 1435 903 134 250 214 595
196 850 -36 525 -335 934 -885 1210 -411 207 -939 326 -1650 374 -297 20 -436
52 -658 151 -241 106 -442 235 -822 526 -233 178 -330 236 -516 313 -264 108
-558 156 -831 135 -395 -30 -754 -179 -1046 -434 -295 -259 -550 -717 -721
-1295 -95 -325 -150 -588 -266 -1293 -107 -648 -161 -911 -257 -1246 -46 -160
-44 -238 7 -349 l33 -73 -67 -99 c-421 -622 -1024 -1267 -1510 -1614 -68 -49
-84 -56 -124 -56 -72 0 -423 -75 -630 -134 -1204 -346 -2380 -1154 -3319
-2283 -282 -339 -651 -881 -789 -1158 -62 -126 -67 -244 -16 -367 l18 -43
-463 -760 c-717 -1178 -779 -1283 -833 -1403 -333 -755 -298 -1737 86 -2433
124 -224 443 -661 924 -1264 353 -442 542 -693 702 -930 l115 -170 22 -182
c12 -100 35 -267 51 -370 16 -103 30 -193 30 -199 0 -8 -30 -4 -92 12 -305 78
-609 69 -866 -25 -282 -103 -523 -333 -644 -612 -253 -589 -20 -1277 527
-1551 163 -82 367 -125 545 -115 55 3 100 4 100 3 0 -1 -60 -128 -134 -282
-319 -666 -770 -1652 -787 -1717 -6 -27 -10 -82 -7 -127 11 -193 152 -346 350
-380 81 -14 156 -2 245 39 96 45 152 108 215 242 30 63 59 125 66 139 11 23
12 22 7 -15 -15 -118 -36 -423 -46 -665 -21 -506 17 -1284 70 -1435 42 -120
144 -216 270 -255 54 -17 92 -20 260 -20 l198 0 12 -52 c192 -818 342 -1813
406 -2688 34 -474 39 -652 40 -1250 l0 -615 -149 -390 c-367 -965 -767 -1987
-1072 -2743 -334 -829 -769 -1880 -784 -1896 -5 -5 -104 11 -232 38 -432 90
-797 146 -1218 188 -299 30 -995 33 -1225 5 -389 -48 -605 -103 -989 -254
l-190 -74 -106 31 c-686 203 -1478 419 -2625 715 -420 109 -3211 808 -3737
936 l-178 43 0 4681 c0 4247 -1 4686 -16 4736 -20 68 -63 136 -117 186 -84 78
-335 219 -637 358 -257 119 -699 305 -765 322 -94 24 -160 13 -342 -57 -87
-34 -320 -122 -518 -197 -544 -204 -850 -329 -1018 -415 -122 -64 -202 -169
-227 -298 -8 -38 -8 -209 -1 -565 18 -921 22 -1408 31 -4245 9 -2771 22 -4063
40 -4170 22 -126 119 -254 232 -305 89 -40 409 -130 911 -256 264 -66 534
-138 600 -159 195 -62 618 -170 2822 -720 2445 -610 3160 -793 4139 -1058
l179 -48 -114 -41 c-1163 -421 -1639 -597 -2209 -816 -2977 -1145 -4986 -2206
-6392 -3374 -183 -153 -231 -226 -245 -368 -25 -262 226 -494 480 -445 99 19
153 50 300 173 600 503 1385 1018 2327 1527 268 144 997 508 1305 650 1247
577 2515 1079 4806 1900 658 236 1223 444 1484 545 385 149 515 187 766 219
1602 209 4420 -565 6891 -1891 87 -47 160 -88 163 -93 2 -4 -44 -29 -103 -55
-2444 -1087 -5887 -2683 -8697 -4033 -2149 -1032 -5701 -2784 -5945 -2932
-541 -328 -949 -921 -1165 -1688 -130 -464 -175 -818 -225 -1742 -38 -712 -87
-1083 -192 -1448 -161 -562 -548 -1039 -995 -1227 -191 -79 -355 -99 -553 -66
-143 24 -204 19 -298 -24 -114 -52 -186 -136 -224 -258 -57 -190 33 -402 206
-487 113 -56 231 -74 481 -74 202 0 231 2 346 26 319 69 629 220 909 444 182
146 400 386 541 595 33 50 66 89 72 86 66 -25 1317 -436 1632 -536 4608 -1463
9265 -2555 14025 -3286 505 -78 1436 -212 1816 -261 l211 -28 -5 -1600 c-2
-881 -5 -1602 -7 -1604 -3 -4 -1593 373 -2620 623 -4438 1078 -9764 2483
-15815 4170 -788 220 -812 225 -929 185 -306 -103 -390 -484 -155 -699 29 -27
72 -57 97 -69 87 -41 4330 -1209 6992 -1926 4340 -1167 8291 -2169 11865
-3009 l565 -133 6 -130 c4 -71 7 -664 8 -1319 1 -654 6 -1584 11 -2066 9 -828
11 -879 29 -939 34 -109 109 -198 206 -247 22 -11 312 -136 645 -277 333 -142
665 -287 739 -324 l135 -67 105 0 106 0 125 54 c188 81 500 236 730 363 535
296 615 343 665 393 58 57 100 135 115 214 7 35 10 894 10 2515 l0 2461 283
164 c900 525 3355 1973 7532 4443 572 339 1488 879 2035 1202 l995 587 7 -188
c4 -103 12 -627 18 -1163 7 -536 15 -1150 18 -1365 l7 -390 32 -67 c35 -75
108 -155 170 -186 38 -20 417 -151 874 -302 456 -151 836 -222 964 -180 22 7
326 156 676 331 712 356 710 354 772 486 31 67 32 72 40 268 5 110 6 3324 2
7143 -6 6687 -5 6942 12 6942 10 -1 1013 -155 2228 -343 l2210 -342 5 -430 c5
-410 6 -432 26 -482 54 -130 137 -201 310 -264 372 -135 769 -234 1179 -295
287 -42 333 -31 552 131 74 55 285 210 467 345 182 135 404 299 494 364 162
118 212 166 250 241 40 81 41 97 31 587 -5 259 -8 473 -6 474 4 4 2611 -2535
2615 -2547 5 -12 -761 -791 -1984 -2019 -610 -613 -946 -957 -974 -999 -252
-375 -249 -864 6 -1248 105 -158 260 -291 416 -357 l65 -28 7 -126 c35 -635
183 -1329 430 -2019 69 -193 79 -213 133 -274 76 -84 198 -139 308 -139 334 0
1456 777 2790 1935 1115 967 2406 2222 3465 3370 912 989 1744 1996 2370 2870
372 520 836 1261 971 1550 41 86 51 200 26 286 -9 29 -15 54 -14 56 4 3 3060
-546 8942 -1607 4995 -901 8648 -1559 9517 -1712 l186 -33 4 -265 3 -265 36
-75 c41 -86 108 -159 178 -194 50 -26 145 -59 626 -223 171 -58 383 -131 473
-164 152 -54 196 -66 329 -89 61 -10 158 2 218 29 51 23 977 671 1028 720 53
50 92 115 113 186 15 53 16 92 11 345 -9 394 -35 1371 -43 1625 l-6 211 77 47
c42 27 80 46 83 42 3 -3 11 -132 18 -288 21 -463 22 -470 92 -576 59 -88 129
-132 300 -186 81 -26 278 -96 437 -157 429 -163 627 -228 711 -235 88 -7 185
20 255 69 58 41 999 826 1056 881 51 49 97 133 112 205 8 39 8 131 1 335 -5
155 -17 588 -25 962 -8 374 -20 797 -25 940 -6 159 -10 2048 -10 4875 0 2538
-5 8368 -11 12955 -6 4587 -14 10781 -17 13765 l-7 5425 -31 66 c-52 108 -139
189 -245 224 -93 31 -1325 155 -3824 385 -1757 162 -1969 182 -1984 186 -8 3
4 17 33 36 72 47 142 148 164 233 7 26 13 557 17 1469 l6 1429 60 28 c119 56
207 176 228 310 30 190 38 644 21 1161 -18 518 -22 566 -58 642 -41 88 -109
158 -193 200 -82 41 -79 41 -529 66 -868 50 -1703 112 -3480 260 -1688 140
-2344 190 -3165 240 -425 26 -461 25 -555 -6z m617 -834 c742 -45 1418 -97
3133 -240 591 -49 1177 -97 1302 -107 125 -9 226 -18 225 -20 -9 -8 -1146
-364 -1479 -463 l-107 -32 -338 27 c-729 56 -1646 134 -3008 255 -368 33 -877
78 -1129 100 -253 22 -461 42 -463 43 -1 2 212 70 475 152 262 82 585 184 717
226 169 55 255 78 292 79 28 0 199 -9 380 -20z m6531 -1017 l-3 -367 -190 -81
c-899 -384 -2089 -863 -2747 -1106 l-76 -28 5 482 c2 265 6 491 8 503 4 16 30
28 147 63 255 77 638 198 1448 456 857 274 1390 443 1403 444 4 1 6 -164 5
-366z m-9693 -153 c526 -42 1316 -109 2185 -186 1950 -172 2784 -244 3365
-289 110 -8 223 -18 252 -21 l52 -5 -6 -532 c-3 -293 -7 -533 -8 -534 -3 -5
-1682 114 -2445 172 -1289 100 -2515 211 -3523 320 -177 19 -325 35 -328 35
-11 0 -22 738 -14 914 l7 165 42 -5 c22 -2 212 -18 421 -34z m9375 -2331 l0
-1080 -57 -26 c-203 -89 -855 -358 -1088 -448 -675 -260 -1518 -566 -1529
-554 -2 2 -6 482 -10 1066 l-7 1061 38 12 c318 103 2313 892 2651 1049 1 0 2
-485 2 -1080z m-9310 396 c1388 -146 2944 -276 5088 -424 380 -26 694 -50 697
-53 7 -7 10 -2146 3 -2154 -14 -14 -1609 173 -3523 412 -1360 170 -1923 238
-2391 290 l-342 38 -6 171 c-6 150 -20 664 -42 1514 l-6 264 48 -6 c27 -4 240
-27 474 -52z m-4810 -2025 c437 -17 741 -39 1990 -144 612 -52 1050 -83 1295
-91 244 -9 228 -4 241 -73 25 -126 108 -239 217 -292 97 -47 206 -67 582 -105
505 -52 997 -111 2755 -330 2461 -306 3849 -464 3966 -451 90 10 1118 363
1760 603 l290 110 160 -18 c531 -61 1616 -166 3109 -304 1768 -163 3112 -290
3139 -298 16 -5 -3288 -2125 -3339 -2142 -60 -21 -89 -38 -137 -83 l-36 -34
-779 66 c-5207 447 -10014 933 -18920 1913 -288 32 -523 60 -523 63 1 5 430
187 1360 578 769 322 1232 512 1850 758 338 135 635 254 660 264 55 23 38 22
360 10z m20000 -6527 c0 -2447 5 -7263 10 -10703 5 -3440 12 -9403 15 -13250
l6 -6995 -78 -54 c-43 -30 -242 -172 -443 -315 -911 -648 -1796 -1244 -2335
-1573 -190 -116 -366 -215 -371 -210 -11 11 -24 5418 -34 14127 -10 9880 -24
16351 -40 19455 -8 1495 -8 1861 2 1867 7 4 742 477 1633 1052 891 574 1623
1045 1628 1045 4 1 7 -2000 7 -4446z m-25255 4186 c105 -12 192 -23 194 -25 6
-5 86 -3835 146 -6944 183 -9519 250 -15586 273 -24815 l7 -2650 32 -68 c39
-83 118 -164 193 -199 40 -19 173 -49 500 -112 2557 -492 5887 -1072 10050
-1751 295 -48 1827 -317 7643 -1344 554 -98 1009 -180 1011 -182 2 -2 6 -135
8 -296 4 -291 4 -292 -16 -288 -12 3 -563 102 -1226 220 -1591 285 -3815 685
-8225 1481 -4894 883 -8013 1444 -9339 1680 -189 34 -216 36 -272 27 -88 -15
-165 -53 -227 -112 -66 -62 -104 -130 -122 -217 -7 -36 -15 -67 -17 -69 -2 -1
-54 18 -115 43 l-113 46 0 1080 c0 1806 -27 4492 -70 7016 -46 2660 -89 4614
-220 9865 -207 8302 -262 11318 -290 15755 -12 1883 -12 1880 -2 1880 4 0 93
-9 197 -21z m1887 -209 c3619 -399 7175 -780 9003 -965 193 -19 367 -38 388
-41 l37 -6 0 -554 c0 -305 -3 -554 -8 -554 -8 0 -742 76 -821 86 l-54 6 59 29
c159 80 256 265 227 434 -38 219 -224 368 -442 353 -84 -6 -209 -55 -326 -129
-195 -122 -380 -339 -461 -541 -14 -37 -24 -48 -41 -48 -12 0 -302 27 -645 59
-342 33 -687 65 -765 72 -79 7 -143 16 -143 20 0 8 93 49 113 49 34 0 138 64
186 115 226 239 107 619 -218 695 -99 23 -246 -7 -406 -85 -254 -123 -469
-353 -577 -616 l-32 -79 -45 5 c-26 3 -309 30 -630 60 -321 30 -585 56 -587
58 -3 2 23 14 56 26 84 31 179 120 223 210 30 62 32 72 32 176 0 103 -2 114
-32 177 -41 88 -113 160 -201 201 -56 26 -82 32 -157 35 -81 3 -99 1 -180 -28
-177 -63 -364 -170 -486 -277 -121 -107 -232 -252 -280 -368 -12 -30 -28 -55
-34 -55 -26 0 -1430 143 -1725 175 -423 47 -529 53 -602 31 -79 -23 -171 -87
-218 -154 -176 -245 -42 -590 253 -652 62 -13 865 -98 1652 -174 314 -31 585
-59 603 -64 33 -7 35 -10 78 -137 25 -71 47 -137 50 -145 3 -10 -19 -28 -73
-59 -323 -182 -665 -451 -958 -752 -372 -382 -654 -786 -896 -1284 -338 -697
-503 -1414 -569 -2470 -22 -361 -67 -2250 -125 -5295 -40 -2129 -42 -2521 -15
-2995 53 -919 200 -1635 414 -2013 92 -164 264 -364 372 -435 l40 -27 18 -173
c23 -217 39 -306 77 -415 61 -174 150 -311 291 -448 169 -165 371 -267 615
-309 80 -14 170 -18 495 -19 l397 -1 5 -60 c3 -33 8 -127 11 -210 3 -82 14
-384 25 -670 11 -286 42 -1148 70 -1915 87 -2424 120 -3265 131 -3309 3 -9
-115 -65 -376 -180 -554 -243 -1627 -735 -2250 -1031 -116 -55 -189 -140 -226
-262 -27 -89 -25 -126 45 -573 31 -203 84 -545 117 -760 213 -1391 480 -2996
634 -3815 20 -106 22 -137 13 -143 -7 -4 -107 -66 -221 -137 -375 -233 -723
-467 -1124 -757 -117 -84 -214 -153 -216 -153 -2 0 -7 1412 -10 3138 -17 8127
-101 15147 -302 25167 -48 2381 -94 4601 -101 4828 -6 224 -6 227 14 227 11 0
386 -40 834 -90z m-31619 -654 c327 -71 607 -138 607 -147 0 -3 -68 -292 -151
-640 -83 -349 -157 -667 -164 -708 -25 -138 17 -274 114 -371 63 -63 71 -78
71 -134 0 -64 -24 -86 -92 -86 -45 0 -60 6 -111 41 -189 133 -442 95 -579 -86
-21 -27 -51 -83 -67 -123 -108 -264 -365 -488 -647 -563 -71 -19 -87 -20 -138
-9 -32 6 -106 36 -165 66 -195 99 -398 262 -654 524 -97 100 -179 176 -205
189 -236 121 -514 8 -598 -241 -38 -116 -14 -265 60 -368 l36 -49 -98 -163
-99 -163 -54 3 c-105 6 -356 34 -524 58 -448 66 -883 173 -1419 351 l-259 85
104 95 c322 295 706 721 993 1101 75 100 277 385 311 440 1 1 28 -7 61 -18
158 -55 406 -110 569 -125 39 -4 101 -16 138 -27 53 -16 86 -19 145 -16 118 8
183 37 268 122 115 115 133 191 109 461 -9 106 2 173 45 264 35 74 116 158
184 191 68 32 180 39 275 15 39 -9 71 -18 71 -19 0 0 5 -87 10 -193 6 -124 15
-204 24 -225 19 -45 71 -93 131 -119 66 -30 184 -32 235 -5 19 10 130 89 245
175 366 271 513 360 692 421 187 62 217 62 526 -4z m42692 -521 c2412 -240
4512 -437 6545 -615 255 -22 465 -42 466 -43 1 -1 7 -943 13 -2092 15 -2986
30 -9850 42 -19985 5 -4837 14 -9767 19 -10955 5 -1187 8 -2161 6 -2163 -2 -1
-1634 285 -3627 637 -1993 352 -3771 666 -3951 698 l-328 57 0 17272 0 17273
33 -5 c17 -2 370 -38 782 -79z m8050 -745 c61 -6 115 -10 121 -10 24 0 41
-5920 54 -17750 9 -9027 22 -15286 39 -18470 4 -773 5 -1407 3 -1410 -2 -3
-75 20 -162 50 l-158 54 -6 151 c-11 281 -26 5306 -36 11900 -5 3619 -15 9645
-20 13390 -9 5936 -21 10222 -33 11683 l-3 432 45 -5 c25 -3 96 -10 156 -15z
m-14711 -555 c383 -36 703 -65 711 -65 8 0 28 -26 44 -57 39 -77 104 -168 169
-238 37 -39 50 -60 44 -68 -6 -7 -77 -119 -160 -249 l-150 -237 -210 128
c-284 174 -619 388 -897 573 -228 152 -230 154 -263 216 l-33 62 24 0 c14 0
338 -29 721 -65z m2563 -240 c319 -30 590 -55 601 -55 14 0 26 -17 47 -65 15
-35 51 -105 80 -154 l53 -90 -51 19 c-103 38 -349 110 -697 205 -353 96 -680
192 -689 201 -3 3 13 2 34 -1 22 -3 302 -30 622 -60z m2109 -210 c182 -19 334
-35 338 -35 3 0 6 -3138 6 -6974 l0 -6974 -32 -6 c-99 -17 -352 -28 -523 -23
-342 11 -623 58 -941 158 l-132 42 -6 206 c-25 838 -42 5295 -27 7596 3 598 3
600 -18 657 -43 112 -133 205 -241 249 -77 32 -221 32 -300 1 -112 -45 -197
-130 -242 -242 -20 -52 -22 -78 -31 -480 -14 -654 -13 -5216 1 -6280 14 -1060
27 -1827 43 -2613 7 -319 8 -562 3 -567 -5 -5 -81 -16 -169 -26 -191 -22 -687
-25 -855 -6 -194 22 -277 34 -288 41 -19 11 -54 833 -73 1686 -13 577 -7 2095
11 2685 45 1550 108 2846 260 5300 56 908 96 1273 186 1710 121 590 320 1059
644 1515 412 580 968 1088 1865 1707 159 110 207 166 240 282 24 81 17 202
-16 276 -13 30 -43 79 -66 108 l-43 52 37 -5 c21 -3 187 -21 369 -40z m-5431
-557 c262 -173 613 -395 873 -553 61 -37 112 -71 112 -75 0 -4 -40 -79 -88
-166 -268 -481 -509 -968 -712 -1441 l-44 -102 -27 42 c-14 23 -49 64 -78 90
-218 204 -575 112 -673 -173 -22 -63 -23 -75 -21 -425 4 -778 64 -1543 204
-2590 51 -384 121 -846 258 -1720 298 -1899 388 -2694 422 -3751 32 -1022 -69
-2072 -279 -2873 -25 -96 -29 -105 -54 -112 -65 -17 -709 -32 -1128 -26 -453
7 -604 16 -730 43 -283 60 -407 264 -524 859 -95 480 -126 866 -133 1635 -7
726 10 1679 102 5955 34 1571 48 1849 115 2355 114 853 385 1540 849 2154 172
229 432 498 646 670 187 150 589 404 620 392 5 -2 136 -87 290 -188z m2588
-22 c116 -35 342 -99 500 -142 243 -66 286 -80 272 -91 -57 -41 -378 -351
-499 -483 -757 -815 -1140 -1591 -1325 -2683 -79 -459 -105 -767 -191 -2182
-121 -2014 -177 -3153 -210 -4240 -5 -187 -12 -410 -15 -495 -17 -495 -25
-1711 -16 -2385 6 -401 14 -756 17 -787 l6 -58 -141 0 c-81 0 -141 4 -141 9 0
5 7 41 15 79 204 971 257 2245 150 3577 -63 771 -149 1430 -375 2872 -215
1374 -293 1930 -360 2558 l-21 200 86 210 c48 116 170 419 272 675 436 1093
716 1680 1190 2499 158 272 561 930 571 931 1 0 98 -29 215 -64z m-43609 -345
c842 -316 1489 -496 2136 -595 91 -14 195 -28 233 -32 37 -4 67 -10 67 -14 0
-4 -39 -36 -87 -72 -363 -271 -669 -665 -847 -1089 -120 -287 -195 -591 -232
-942 -20 -194 -15 -664 11 -867 78 -632 254 -1220 640 -2140 59 -140 158 -379
221 -530 64 -151 124 -294 136 -318 l20 -42 -198 -206 c-1299 -1350 -2828
-2513 -4479 -3409 -431 -234 -1210 -614 -1225 -598 -8 8 -68 335 -94 518 -248
1690 -119 3460 378 5180 381 1320 1001 2627 1764 3715 324 463 639 852 1036
1279 136 146 171 178 226 207 36 18 69 33 74 34 4 0 103 -36 220 -79z m-1963
-583 c-492 -652 -900 -1313 -1271 -2063 -87 -176 -202 -419 -255 -540 -52
-121 -104 -237 -113 -259 l-18 -38 -210 248 c-116 137 -257 303 -312 368 -89
105 -100 121 -90 140 6 12 57 91 113 176 491 744 1152 1413 1880 1900 139 94
393 249 407 250 4 0 -55 -82 -131 -182z m5602 -538 c514 -159 989 -750 1262
-1573 152 -456 241 -961 289 -1642 17 -233 42 -813 35 -819 -4 -3 -2317 -727
-2333 -730 -10 -1 -191 420 -330 769 -265 661 -392 1114 -453 1605 -26 219
-24 616 6 809 55 359 157 635 330 892 242 360 606 622 967 693 98 20 153 19
227 -4z m10293 -1855 c2047 -167 4092 -373 6119 -616 710 -85 1600 -197 1665
-210 314 -63 586 -313 679 -624 26 -87 42 -226 35 -308 -3 -34 -23 -354 -45
-712 -109 -1773 -230 -3482 -354 -4980 -52 -634 -50 -616 -82 -725 -105 -366
-456 -630 -839 -630 -117 0 -1288 156 -3989 530 -1865 258 -2635 363 -3646
495 -456 59 -503 68 -619 118 -207 89 -394 279 -482 487 -70 169 -77 261 -58
845 6 171 21 715 35 1210 53 1899 94 2898 166 4030 26 412 38 473 131 645 153
287 462 475 784 479 39 1 264 -15 500 -34z m-18177 -1060 l291 -346 -61 -192
c-385 -1216 -588 -2394 -637 -3706 l-7 -183 -190 238 c-409 514 -710 936 -790
1108 -66 141 -106 273 -141 461 -22 118 -30 470 -15 602 26 217 83 428 157
575 58 116 1085 1799 1094 1793 5 -3 139 -160 299 -350z m9357 -2057 c14 -47
307 -724 427 -988 342 -756 735 -1546 1115 -2245 889 -1637 1942 -3249 3057
-4680 306 -392 315 -402 425 -445 95 -37 156 -37 325 4 250 59 408 68 545 30
249 -71 415 -318 528 -789 45 -184 57 -283 42 -330 -29 -89 -183 -191 -355
-236 -117 -31 -341 -37 -472 -14 -1298 230 -3184 2626 -5853 7435 -537 968
-1033 1893 -1017 1899 39 15 1204 380 1214 380 6 1 15 -9 19 -21z m21743 -384
c84 -41 109 -60 202 -153 149 -150 269 -341 334 -530 l24 -71 -146 -188 c-81
-103 -196 -248 -256 -322 -229 -280 -570 -690 -572 -688 -1 2 -29 46 -61 98
-221 360 -603 747 -993 1007 -91 61 -110 78 -97 85 9 5 315 192 679 414 l662
405 64 -4 c50 -4 84 -15 160 -53z m-23484 -819 c388 -725 762 -1407 1142
-2078 117 -208 213 -381 213 -385 0 -30 -1336 -669 -1356 -649 -8 7 -65 361
-113 693 -124 864 -189 1604 -207 2371 l-7 283 46 49 c26 28 52 62 59 76 6 14
15 22 19 18 3 -5 96 -174 204 -378z m21162 -520 c231 -73 546 -286 804 -544
291 -291 477 -598 482 -795 1 -49 -3 -59 -42 -111 -56 -74 -106 -97 -222 -103
-392 -20 -997 475 -1199 981 -55 137 -73 227 -68 341 3 86 8 109 32 156 55
110 78 118 213 75z m-15427 -2366 c1310 -121 2354 -225 2451 -245 22 -4 37
-27 98 -147 265 -529 751 -877 1341 -961 58 -8 407 -54 775 -102 369 -47 673
-89 677 -93 6 -6 -290 -343 -609 -693 -73 -80 -144 -168 -158 -195 -79 -159
-50 -345 76 -478 93 -99 115 -105 574 -170 423 -59 2905 -411 3505 -496 416
-60 454 -60 565 -5 64 32 89 54 242 218 94 101 329 345 524 544 195 199 392
405 439 457 49 56 93 97 104 97 10 0 277 -34 595 -76 317 -41 627 -79 689 -84
588 -45 1191 249 1528 746 32 46 65 84 73 84 29 0 1630 -243 4028 -612 l473
-72 2 -611 c2 -335 3 -611 3 -612 0 -1 -100 -6 -222 -12 -729 -36 -1279 -207
-1590 -496 -329 -304 -397 -789 -161 -1152 63 -98 208 -242 313 -311 315 -209
792 -341 1390 -383 212 -15 694 -6 895 15 651 71 1129 236 1384 476 108 102
173 202 218 336 20 61 23 87 22 229 0 144 -3 169 -27 248 -30 99 -80 203 -140
292 -60 90 -220 243 -333 318 -201 133 -500 256 -791 323 l-121 28 -4 591 c-2
324 -3 590 -3 591 0 1 765 -117 1700 -261 935 -144 2110 -324 2610 -399 501
-76 916 -140 924 -142 8 -2 -170 -116 -395 -252 -511 -310 -858 -523 -1924
-1179 -3390 -2086 -4787 -2909 -6283 -3702 -64 -34 -130 -73 -145 -85 l-27
-23 -475 74 c-1107 170 -2412 361 -4935 723 -3637 521 -5827 847 -5871 873
-12 6 -74 62 -139 123 l-118 111 18 49 c10 27 21 52 24 56 3 3 60 -2 126 -12
114 -18 519 -77 1995 -294 355 -52 778 -115 940 -140 328 -51 359 -51 467 -2
89 41 126 79 255 254 264 360 493 714 911 1407 143 237 298 492 344 568 94
152 118 205 128 288 20 161 -80 341 -229 414 -66 32 -44 28 -1272 224 -3027
483 -5438 847 -6361 963 l-262 33 -190 260 c-560 772 -1088 1564 -1563 2350
-159 263 -148 238 -96 231 24 -4 482 -47 1018 -97z m-3375 -1264 c1303 -2116
2417 -3570 3323 -4333 l102 -87 0 -83 c0 -173 35 -383 90 -547 l29 -86 -27 5
c-24 5 -825 116 -948 132 l-51 6 -33 122 c-56 207 -128 406 -196 541 -195 393
-549 722 -1041 968 -572 287 -1254 461 -2448 627 -159 22 -301 43 -314 47 -21
7 -28 21 -47 93 -90 349 -254 1003 -309 1235 -120 508 -335 1492 -335 1539 0
7 76 45 173 86 405 172 1059 482 1342 638 l109 60 201 -337 c111 -185 282
-466 380 -626z m-8411 -16 c23 -117 -8 -298 -78 -444 -68 -143 -143 -232 -235
-280 -130 -67 -395 120 -497 351 -25 56 -25 59 -7 72 34 25 438 220 533 258
118 46 205 72 246 73 27 1 32 -3 38 -30z m-2219 -30 c111 -13 268 -64 386
-125 l90 -46 -27 -47 c-101 -173 -284 -345 -450 -423 -93 -44 -210 -51 -278
-18 -114 55 -183 188 -174 339 10 172 117 297 275 320 82 12 79 12 178 0z
m21205 -489 c437 -60 1144 -157 1570 -216 426 -58 781 -108 789 -110 15 -5 8
-12 -407 -436 l-202 -208 -1343 191 c-738 105 -1447 205 -1575 223 -127 18
-234 35 -237 38 -3 3 72 93 167 200 95 107 220 249 278 316 98 113 107 121
135 116 17 -2 388 -54 825 -114z m-18085 -254 c176 -566 370 -1244 565 -1976
149 -558 486 -1907 479 -1914 -13 -13 -407 -117 -680 -180 -835 -192 -1723
-309 -2520 -333 l-226 -6 -6 123 c-18 327 -6 850 29 1225 22 246 102 806 116
821 2 1 28 -162 57 -364 30 -202 62 -391 72 -419 32 -95 112 -189 198 -233
261 -133 577 38 607 328 5 44 -29 292 -151 1115 -86 582 -155 1060 -153 1063
3 2 40 -5 84 -17 109 -29 320 -37 429 -16 427 82 790 446 957 961 23 74 44
133 45 132 1 0 45 -140 98 -310z m47116 -1571 c378 -90 661 -119 1089 -111
168 3 320 8 338 12 l32 6 0 -8871 0 -8871 -20 0 c-69 0 -3529 580 -5315 891
-1348 234 -3869 690 -3939 712 -18 6 386 293 768 546 261 173 376 245 380 240
2 -2 21 -97 43 -211 46 -239 69 -296 149 -375 86 -84 123 -96 481 -159 393
-68 772 -139 1318 -244 231 -45 618 -119 860 -166 593 -115 1187 -223 1589
-290 417 -69 392 -71 649 57 338 170 648 341 1288 715 397 231 674 385 884
491 94 47 192 102 219 121 57 42 120 134 141 207 10 34 21 193 35 500 11 248
34 729 50 1070 85 1788 113 2629 130 3885 5 426 12 887 14 1024 4 225 3 255
-15 311 -34 109 -122 207 -231 255 -95 41 -1523 310 -2657 500 -851 142 -2005
320 -2078 320 -35 0 -122 -18 -165 -35 -13 -5 -18 1 -22 37 -6 46 -31 712
-101 2673 -56 1552 -69 1906 -101 2708 l-25 638 88 87 c129 127 213 261 266
427 47 147 64 290 48 419 l-9 80 43 43 c23 24 53 66 66 93 21 44 26 49 49 43
14 -4 131 -7 261 -7 l237 -1 6 -110 c40 -696 38 -685 111 -791 70 -101 144
-143 323 -184 349 -80 611 -110 1012 -117 438 -8 715 16 1100 93 195 39 268
67 342 133 58 51 116 163 126 242 4 30 4 178 1 329 -8 322 -11 670 -5 670 2 0
68 -16 147 -35z m-33046 -295 c1056 -158 4661 -723 4671 -732 7 -8 -450 -753
-622 -1013 -197 -299 -273 -403 -292 -399 -20 4 -211 33 -1617 239 -577 85
-1132 166 -1231 181 l-182 27 -6 76 c-10 116 -51 306 -91 422 -73 211 -206
443 -303 530 -83 74 -213 115 -321 102 l-48 -5 -28 73 c-62 164 -172 365 -267
486 -26 35 -48 65 -48 68 0 3 10 3 23 0 12 -2 175 -27 362 -55z m21335 -100
l0 -90 -207 -136 c-1563 -1027 -4089 -2573 -6348 -3886 -591 -343 -1803 -1034
-1942 -1107 l-23 -12 0 123 0 123 213 114 c668 359 1611 898 2622 1499 823
490 1550 932 3390 2064 622 382 1326 814 1565 960 239 146 498 303 575 351 77
47 143 86 148 86 4 1 7 -40 7 -89z m6405 -143 c248 0 499 3 559 8 l108 7 -4
-66 c-5 -89 -40 -140 -123 -181 l-60 -30 -500 0 -500 0 -55 26 c-90 43 -162
129 -184 223 l-7 28 158 -8 c87 -4 361 -7 608 -7z m-12485 -216 c353 -48 616
-126 804 -239 76 -46 166 -131 166 -157 0 -20 -152 -90 -281 -129 -563 -170
-1472 -177 -2019 -16 -132 39 -294 116 -348 165 -81 72 -45 134 123 215 184
89 440 149 765 180 160 15 624 4 790 -19z m-22793 -496 c809 -125 1318 -254
1732 -439 383 -171 653 -391 781 -638 204 -391 377 -1408 515 -3028 65 -761
106 -1358 210 -3015 64 -1023 101 -1587 132 -2033 l6 -93 -24 5 c-13 3 -148
26 -299 51 -713 118 -1492 269 -2060 401 -107 25 -202 47 -211 50 -13 4 -17
31 -22 178 -4 106 -18 258 -37 392 -127 902 -344 1884 -626 2837 -35 119 -64
221 -64 225 0 5 73 30 163 57 259 77 317 105 422 210 211 212 294 534 215 838
-32 126 -326 1152 -645 2252 -178 615 -481 1685 -501 1768 -4 18 -2 27 6 27 6
0 145 -20 307 -45z m28813 -4760 c22 -1974 54 -4782 70 -6238 17 -1457 28
-2653 24 -2658 -3 -5 -35 -32 -72 -60 l-67 -51 -3 144 c-4 244 -131 11767
-137 12423 -3 341 -7 661 -10 710 l-5 90 73 47 72 48 8 -433 c4 -237 25 -2047
47 -4022z m-955 -2430 c35 -3206 68 -6088 71 -6402 7 -559 7 -573 -12 -573
-127 1 -460 36 -468 49 -6 10 -25 1137 -36 2141 -6 503 -14 2355 -20 4115 -5
1760 -14 3648 -20 4195 -11 1092 -28 2275 -34 2385 l-4 70 226 142 227 141 3
-216 c1 -120 31 -2840 67 -6047z m-50404 6149 c46 -20 87 -39 92 -43 4 -4 -98
-49 -227 -101 l-235 -93 -100 44 c-55 24 -98 45 -95 48 6 6 455 178 470 180 6
0 48 -15 95 -35z m29924 -180 c-56 -191 -167 -384 -305 -527 -143 -150 -311
-246 -490 -283 -121 -24 -312 -15 -435 20 -203 60 -407 184 -565 345 -75 76
-201 241 -185 241 3 0 51 -16 107 -35 364 -127 712 -154 1072 -85 292 57 559
186 751 363 39 36 71 62 73 58 1 -4 -9 -47 -23 -97z m-29215 -4764 c0 -2326
-3 -4230 -7 -4230 -5 0 -132 32 -285 71 l-276 72 -6 111 c-9 164 -47 1767 -66
2756 -23 1233 -49 3771 -50 4990 l0 195 333 132 c182 73 338 132 345 133 9 0
12 -852 12 -4230z m-1787 4101 c95 -38 193 -78 218 -89 l46 -20 6 -1453 c10
-2130 37 -3900 91 -5919 7 -261 12 -476 11 -477 -2 -4 -495 124 -501 129 -10
11 -25 1929 -35 4548 -6 1543 -13 2928 -16 3078 -3 149 -2 272 1 272 4 0 84
-31 179 -69z m17946 -163 c240 -1213 368 -2468 466 -4561 21 -441 7 -632 -65
-918 -40 -159 -73 -245 -258 -684 -632 -1499 -1199 -2716 -1935 -4152 -154
-300 -252 -502 -259 -535 -6 -29 -13 -54 -14 -56 -1 -2 -98 35 -215 81 -483
191 -1041 386 -1499 522 -124 37 -227 69 -229 71 -2 2 71 182 162 401 566
1362 1174 2896 1708 4311 103 272 132 359 139 420 28 239 20 1191 -15 1772
-58 951 -187 1907 -378 2791 l-43 195 241 23 c434 40 901 105 1330 186 202 38
633 132 750 164 104 28 102 29 114 -31z m9971 -288 c316 -43 654 -90 752 -103
l176 -24 92 -62 c51 -35 126 -83 168 -108 54 -31 68 -43 47 -39 -16 3 -185 29
-375 56 -923 136 -1465 221 -1472 233 -4 6 -8 19 -8 28 0 9 -3 38 -7 64 l-6
47 29 -6 c16 -3 288 -42 604 -86z m3404 -107 c5239 -4892 10424 -9903 15981
-15445 l1240 -1237 -97 -97 -96 -97 -50 44 c-27 24 -3908 3805 -8625 8402
l-8576 8358 72 64 c40 35 76 64 81 64 5 1 36 -25 70 -56z m2406 -588 c930
-138 1982 -291 4105 -595 2652 -380 4971 -722 5273 -776 l32 -6 0 -104 c0
-101 -1 -104 -22 -104 -54 0 -1363 190 -2313 335 -638 97 -1103 170 -2625 410
-2307 363 -3736 578 -4679 702 l-214 28 -106 102 c-58 56 -101 102 -96 103 6
0 296 -43 645 -95z m-5843 -295 c1316 -199 2501 -366 3138 -441 l190 -23 216
-210 c118 -116 866 -845 1661 -1619 l1446 -1409 6 -1311 c3 -722 8 -2588 11
-4147 3 -1559 8 -2912 11 -3006 l7 -172 -139 -92 c-226 -151 -439 -307 -482
-354 -48 -52 -74 -100 -97 -181 -16 -55 -18 -138 -18 -986 -1 -640 -4 -926
-12 -923 -5 2 -2502 593 -5549 1313 -3046 720 -5540 1312 -5543 1314 -2 3 34
124 81 268 653 2022 1219 4169 1445 5488 23 129 42 236 45 238 2 2 156 -30
342 -71 600 -133 1266 -260 1939 -370 187 -31 354 -58 370 -61 l30 -5 -1
-2932 c-1 -3180 -4 -2988 52 -3084 59 -100 160 -167 374 -247 374 -140 800
-151 1183 -31 254 80 359 182 401 390 42 203 54 1839 23 3059 -20 765 -35
1685 -40 2298 -3 435 -3 438 17 442 715 142 1247 335 2073 751 l342 172 11
-52 c6 -28 171 -805 366 -1726 635 -2995 638 -3009 676 -3084 38 -74 107 -143
183 -180 74 -36 249 -72 423 -87 366 -32 779 70 1109 275 106 65 153 115 196
205 47 99 47 169 2 431 -165 973 -310 1689 -686 3405 -198 901 -404 1850 -414
1905 -6 33 -2 39 52 95 111 113 183 242 220 391 24 101 22 285 -6 389 -64 240
-217 428 -438 536 -77 38 -279 87 -2780 675 -1484 349 -2705 637 -2713 639
-13 4 -20 68 -43 393 -43 602 -135 1681 -152 1775 -2 15 0 27 4 27 5 0 216
-31 468 -70z m6652 -831 l164 -23 -7 -95 c-3 -53 -6 -116 -6 -140 l0 -43 -67
61 c-149 134 -287 272 -268 267 11 -2 94 -15 184 -27z m1569 -235 c306 -47
1057 -164 1667 -260 2113 -333 3323 -520 3813 -591 67 -9 127 -20 133 -24 7
-4 18 -518 33 -1495 13 -819 23 -1490 22 -1491 -1 -1 -809 126 -1796 283 -987
156 -1819 284 -1850 284 l-55 0 -200 192 c-461 442 -1529 1461 -1910 1822
-225 214 -429 407 -451 430 l-42 41 29 420 c15 231 28 432 28 448 1 15 6 27
12 27 5 0 261 -38 567 -86z m8116 -1041 c2 -126 9 -1915 15 -3978 5 -2062 12
-3871 16 -4020 l7 -270 -141 140 -141 140 0 4045 1 4045 112 62 c61 34 115 62
119 63 3 0 9 -102 12 -227z m-24973 -163 c33 -129 74 -264 91 -299 61 -128
202 -247 348 -292 l55 -17 13 -73 c30 -177 106 -709 162 -1134 33 -253 85
-641 115 -861 l55 -402 -71 -533 c-216 -1647 -418 -2928 -790 -5009 -50 -277
-91 -506 -92 -507 -2 -1 -65 12 -141 30 l-139 33 -18 60 c-23 75 -80 158 -141
204 -53 40 -429 266 -653 393 -359 203 -898 480 -1278 657 l-157 74 20 21 c25
27 191 349 557 1080 678 1355 1150 2383 1753 3825 161 384 233 618 278 905 46
288 51 465 27 955 -23 463 -54 1049 -60 1100 -6 64 -3 52 66 -210z m3633 168
c288 -960 492 -1860 633 -2798 25 -167 28 -210 27 -440 -1 -276 -15 -437 -75
-820 -199 -1276 -766 -3448 -1476 -5650 -55 -171 -81 -240 -92 -240 -21 0
-1935 452 -1943 459 -4 3 -2 29 3 56 27 143 239 1345 314 1775 245 1421 439
2721 635 4256 l22 172 -31 213 c-17 118 -74 538 -126 934 -85 638 -177 1286
-204 1430 -5 27 -8 52 -6 54 7 6 2259 679 2277 680 13 1 23 -19 42 -81z
m19978 3 c147 -20 270 -40 273 -43 3 -2 4 -1607 3 -3565 l-3 -3561 -232 229
-232 228 -50 3318 c-28 1825 -51 3344 -51 3376 0 39 4 57 13 57 6 -1 132 -18
279 -39z m-12668 -1491 c1380 -325 2511 -591 2512 -593 6 -6 -833 -526 -1138
-705 -1327 -778 -2269 -1145 -3070 -1194 -207 -13 -449 -2 -577 27 l-70 16 -6
52 c-9 89 -52 740 -120 1822 -35 572 -67 1071 -70 1108 -6 63 -5 68 12 63 10
-3 1147 -271 2527 -596z m30865 -205 c639 -98 1529 -245 2066 -340 428 -76
1007 -184 1012 -189 10 -10 -525 -366 -1235 -823 l-507 -326 -165 22 c-550 75
-1448 235 -2420 430 -462 93 -1344 279 -1507 319 l-71 17 261 120 c805 367
1932 852 1986 854 13 1 274 -37 580 -84z m-23290 -3055 c1188 -1158 2158
-2106 2156 -2108 -3 -3 -4528 767 -4532 772 -1 1 -6 825 -9 1832 l-7 1829 116
-110 c64 -60 1088 -1057 2276 -2215z m26772 1203 c-22 -1129 -44 -1739 -131
-3603 -57 -1215 -48 -1090 -79 -1107 -378 -206 -537 -296 -841 -473 -419 -245
-731 -422 -735 -418 -3 3 91 5071 94 5074 0 1 250 162 554 357 303 196 685
445 847 555 162 109 297 198 298 196 2 -1 -1 -263 -7 -581z m-31887 -278 c74
-341 207 -948 295 -1350 244 -1113 352 -1636 474 -2300 89 -481 110 -605 104
-611 -16 -16 -164 -46 -252 -51 l-100 -6 -68 319 c-38 176 -245 1154 -462
2174 -217 1020 -412 1940 -435 2044 -22 105 -39 194 -37 199 4 12 342 217 344
209 1 -4 63 -286 137 -627z m7811 359 c726 -114 1321 -208 1322 -209 3 -1 33
-1899 33 -2069 l0 -139 -177 174 c-263 257 -1136 1105 -1803 1749 -757 731
-739 712 -715 707 11 -3 614 -99 1340 -213z m17580 68 c1385 -310 2726 -572
3725 -728 129 -20 236 -37 237 -38 4 -3 -94 -5186 -98 -5190 -8 -8 -742 128
-1804 333 -700 136 -1315 252 -1570 296 -82 15 -151 28 -153 29 -4 5 -107 549
-207 1096 -205 1126 -392 2250 -610 3665 -52 341 -97 631 -99 643 -3 20 0 23
18 19 11 -2 264 -59 561 -125z m-30070 -1407 c77 -8 146 -15 153 -15 9 0 12
-62 12 -277 0 -407 17 -1400 37 -2178 20 -764 25 -2807 7 -2880 l-10 -40 -139
0 c-77 0 -157 4 -177 8 l-38 8 0 2694 c0 1482 3 2695 8 2695 4 0 70 -7 147
-15z m10233 -2609 l2782 -475 424 -413 425 -413 0 -1527 c1 -1216 -2 -1528
-11 -1528 -7 1 -1007 155 -2223 343 l-2210 343 -5 304 c-6 327 -8 339 -65 436
-30 52 -111 126 -168 153 -23 11 -125 41 -227 66 -102 25 -457 116 -790 202
-333 86 -635 163 -671 171 l-66 15 -6 501 c-4 275 -7 905 -7 1399 0 848 1 897
18 897 9 0 1269 -214 2800 -474z m4836 -2571 c3 -55 8 -239 11 -410 3 -170 19
-746 35 -1280 16 -533 32 -1095 36 -1248 l7 -278 -29 6 c-78 18 -297 75 -361
95 l-73 22 0 1775 0 1775 184 -179 184 -178 6 -100z m-17079 -1785 c4329
-1024 7871 -1863 7873 -1865 8 -8 14 -956 7 -1266 l-7 -355 -532 -289 c-292
-158 -2248 -1218 -4346 -2355 -2098 -1137 -4303 -2332 -4899 -2656 -597 -324
-1088 -590 -1093 -592 -4 -2 -8 539 -8 1202 0 843 -3 1221 -11 1258 -16 77
-65 162 -124 216 -96 87 -292 204 -768 456 -274 145 -311 167 -383 221 -68 52
-167 79 -268 72 -80 -5 -84 -7 -351 -141 -478 -239 -944 -506 -1383 -791 -227
-147 -281 -194 -329 -293 l-28 -57 0 -355 c0 -195 6 -1628 13 -3183 8 -1556
11 -2831 9 -2834 -6 -6 -427 50 -1037 138 -5030 723 -9993 1863 -14855 3414
-462 148 -1457 474 -1464 481 -2 2 12 70 32 151 96 391 142 768 182 1498 51
924 101 1276 238 1680 158 464 404 823 698 1017 114 76 2106 1071 3804 1900
3136 1533 6455 3093 9535 4484 1335 602 1586 713 1605 710 11 -2 3561 -842
7890 -1866z m9792 1084 c128 -32 233 -61 233 -64 0 -3 -24 -21 -52 -40 -29
-19 -94 -66 -146 -104 l-94 -69 -231 62 c-127 35 -239 66 -249 70 -15 5 11 28
129 109 81 57 155 101 163 99 8 -2 120 -30 247 -63z m8527 -447 c5 -36 16
-539 30 -1282 l3 -200 -169 -125 c-93 -69 -173 -126 -178 -128 -4 -2 -11 82
-14 185 -12 337 -56 1826 -56 1891 l0 64 189 -182 c175 -168 189 -184 195
-223z m8461 317 c48 -23 68 -48 60 -76 -4 -13 -404 -421 -889 -908 -1051
-1055 -1477 -1491 -2951 -3020 -819 -849 -1173 -1215 -1740 -1794 -618 -632
-1689 -1706 -1701 -1706 -6 0 -24 23 -39 52 -34 62 -45 171 -25 234 10 32 180
207 889 919 1132 1137 1811 1828 4105 4180 456 468 1111 1132 1455 1476 540
541 632 629 671 642 59 20 124 21 165 1z m-16195 -7797 l0 -7232 -176 -88
c-97 -49 -179 -86 -181 -83 -17 16 -58 8359 -64 12860 l-2 1470 56 44 c49 39
357 260 365 261 1 1 2 -3254 2 -7232z m17177 7054 c164 -54 397 -136 518 -181
218 -82 543 -215 557 -229 7 -6 -157 -288 -182 -315 -5 -5 -78 29 -172 81 -90
50 -380 211 -646 358 l-482 267 52 58 c29 32 54 59 55 59 1 1 136 -43 300 -98z
m-18725 -78 l288 -78 2 -1137 c2 -626 3 -1245 3 -1375 l0 -237 -305 -167
c-168 -91 -306 -166 -306 -165 -1 1 -5 732 -9 1625 l-7 1624 23 -6 c13 -4 153
-41 311 -84z m44658 0 c0 -35 28 -1203 32 -1334 l3 -96 -67 -56 c-37 -32 -69
-57 -72 -57 -3 0 -6 337 -6 749 l0 749 48 35 c26 20 50 36 55 36 4 1 7 -11 7
-26z m-26239 -950 c395 -219 719 -401 719 -405 0 -10 -211 -303 -248 -345
l-27 -31 -710 449 c-390 247 -712 454 -714 460 -3 9 246 269 257 269 2 0 327
-179 723 -397z m25299 -293 c0 -335 -2 -610 -4 -610 -9 0 -302 112 -307 118
-4 4 -14 183 -23 397 -9 215 -17 408 -19 430 l-2 39 170 118 c94 64 173 117
178 117 4 1 7 -273 7 -609z m-26124 -671 l763 -482 -140 -172 c-77 -95 -156
-192 -177 -215 l-37 -42 -130 104 c-377 301 -760 575 -1164 833 l-202 129 58
60 c118 124 258 266 262 266 2 0 347 -217 767 -481z m23984 -564 c5 -236 13
-533 16 -660 l5 -230 -86 -58 c-48 -33 -88 -57 -89 -55 -2 1 -5 329 -7 727
l-4 723 75 27 75 28 2 -36 c1 -20 7 -229 13 -466z m-25435 -40 c424 -264 785
-518 1183 -833 72 -58 132 -108 132 -111 0 -10 -400 -456 -409 -456 -5 0 -332
270 -726 600 -395 330 -723 603 -728 607 -6 3 64 83 154 177 161 167 164 170
184 152 11 -10 106 -71 210 -136z m-387 -1413 c397 -332 722 -607 722 -610 0
-4 -92 -101 -204 -217 l-204 -210 -63 60 c-183 171 -1319 1268 -1319 1272 0 3
71 78 158 168 130 135 160 161 173 151 8 -6 340 -283 737 -614z m-15456 -1034
l3 -1138 -30 -12 c-56 -23 -2060 -1161 -6615 -3758 -2902 -1654 -5342 -3043
-5632 -3204 l-68 -38 0 1324 0 1325 383 208 c877 477 2911 1580 5897 3198
3076 1666 5259 2850 5795 3142 253 138 260 141 262 116 1 -14 4 -538 5 -1163z
m14497 62 c375 -360 681 -657 681 -661 0 -9 -408 -409 -418 -409 -7 0 -1184
1320 -1245 1397 -18 22 -18 22 134 178 84 86 156 154 160 153 4 -2 314 -298
688 -658z m-964 -951 c336 -379 611 -693 613 -698 5 -14 -585 -554 -599 -549
-6 3 -930 1401 -998 1511 l-23 38 188 193 c104 107 194 194 199 194 6 1 285
-310 620 -689z m-1111 -1063 c267 -406 486 -742 486 -746 0 -6 -305 -264 -571
-482 l-46 -38 -106 283 c-58 155 -168 449 -245 652 -138 366 -282 774 -282
800 0 19 262 288 271 278 4 -4 226 -341 493 -747z m-26150 -150 l159 -84 -54
-35 c-30 -19 -190 -120 -355 -224 l-301 -190 -63 29 c-35 15 -130 54 -213 85
-144 55 -148 57 -127 73 54 41 764 429 785 429 6 0 82 -37 169 -83z m13739
-983 c11 -1548 10 -1720 -8 -1727 -34 -13 -2744 -1608 -5395 -3176 -3593
-2125 -4919 -2907 -6150 -3630 -349 -205 -672 -394 -717 -421 l-83 -49 0 1489
0 1489 168 95 c92 52 599 340 1127 640 1188 674 2337 1327 5260 2994 1254 715
2791 1590 3415 1945 624 355 1412 804 1750 996 338 193 618 351 621 351 3 1 9
-448 12 -996z m11173 447 c179 -478 339 -908 380 -1028 l29 -83 -25 -19 c-14
-11 -123 -86 -243 -167 -174 -118 -220 -145 -227 -133 -13 21 -104 352 -139
508 -85 368 -140 826 -141 1152 l0 105 87 87 88 88 17 -47 c10 -27 88 -235
174 -463z m-24366 -7679 l0 -7390 -157 -89 c-227 -129 -333 -185 -339 -180 -7
8 -13 311 -49 2528 -102 6190 -124 7988 -128 10674 l-2 1419 335 213 c184 116
336 212 338 213 1 1 2 -3324 2 -7388z m-1657 7012 l147 -55 0 -1152 c0 -2622
42 -5915 166 -13083 4 -216 4 -393 1 -393 -3 0 -135 56 -294 124 l-288 123 -7
264 c-4 145 -11 3304 -17 7019 -6 3715 -13 6871 -17 7013 l-7 258 84 -31 c46
-17 150 -56 232 -87z m14867 -2780 c0 -175 5 -1030 11 -1901 7 -870 10 -1585
7 -1587 -3 -3 -153 45 -334 106 l-330 112 -17 1226 c-10 674 -18 1393 -17
1597 l0 372 333 195 c182 108 335 196 340 197 4 0 7 -143 7 -317z"/>
<path d="M25445 63963 c-64 -9 -152 -45 -200 -81 -71 -53 -111 -112 -185 -269
l-65 -138 0 -105 c0 -132 22 -194 100 -278 138 -150 338 -182 517 -85 77 42
130 108 202 250 83 166 100 226 93 318 -10 133 -73 244 -181 316 -81 54 -198
84 -281 72z"/>
<path d="M68965 46729 c-536 -71 -974 -541 -1002 -1075 -24 -452 245 -888 672
-1090 350 -166 763 -130 1096 97 88 59 221 189 291 283 157 210 239 501 210
744 -59 508 -443 904 -991 1022 -115 25 -192 30 -276 19z m146 -845 c123 -37
229 -115 268 -199 60 -127 -14 -287 -167 -362 -142 -70 -306 -3 -388 159 -76
148 12 334 191 405 39 15 34 15 96 -3z"/>
<path d="M33529 57539 c-299 -25 -591 -245 -714 -537 -35 -83 -61 -178 -70
-257 -3 -27 -44 -966 -90 -2085 -61 -1486 -81 -2053 -74 -2100 47 -334 296
-621 624 -719 108 -32 7357 -1004 7495 -1004 182 -1 326 55 455 175 119 111
182 226 205 375 6 38 87 1072 181 2298 126 1646 169 2256 166 2330 -6 117 -31
204 -90 320 -81 158 -266 310 -437 359 -30 9 -307 52 -615 96 -2451 352 -4003
525 -6350 709 -627 50 -594 48 -686 40z"/>
<path d="M39890 47533 c-109 -18 -197 -71 -291 -175 -518 -576 -865 -1022
-1549 -1993 -378 -536 -544 -760 -709 -955 -30 -36 -68 -94 -85 -130 -28 -59
-31 -74 -31 -165 0 -91 3 -106 31 -166 50 -105 139 -191 234 -224 40 -14 660
-125 2125 -380 996 -173 1485 -259 1654 -290 162 -30 220 -31 302 -6 94 30
158 80 242 189 667 876 1167 1552 1587 2147 274 388 599 872 631 940 52 110
48 250 -12 367 -29 58 -115 141 -179 173 -101 51 -930 201 -2400 435 -316 50
-779 125 -1029 166 -249 41 -463 73 -475 73 -11 -1 -32 -4 -46 -6z m428 -898
c114 -19 506 -82 872 -140 1032 -164 1709 -277 1748 -290 15 -5 0 -29 -217
-335 -339 -480 -775 -1075 -1194 -1628 -190 -252 -264 -341 -276 -338 -9 3
-135 26 -281 51 -146 25 -269 47 -274 49 -6 1 42 19 105 40 319 103 634 273
849 458 376 325 508 748 366 1172 -99 295 -320 568 -561 693 -349 180 -717
142 -1249 -130 -315 -161 -548 -319 -720 -491 -372 -371 -464 -800 -261 -1224
52 -109 91 -168 159 -240 27 -29 47 -54 45 -55 -5 -4 -1022 174 -1028 179 -3
3 9 23 25 47 17 23 140 197 274 387 481 682 706 987 990 1340 166 205 407 490
416 490 3 0 99 -16 212 -35z m797 -1048 c58 -59 114 -163 122 -226 24 -176
-380 -452 -815 -557 -119 -29 -268 -36 -339 -16 -53 16 -96 58 -119 117 -14
38 -15 52 -5 85 41 139 280 330 636 510 188 95 316 139 404 140 l65 0 51 -53z"/>
<path d="M38843 40320 c-190 -67 -309 -267 -274 -459 29 -157 128 -275 271
-326 25 -9 292 -52 595 -96 498 -73 556 -80 613 -71 209 35 352 202 352 412 0
186 -115 344 -290 398 -65 20 -1070 162 -1143 161 -43 0 -93 -8 -124 -19z"/>
<path d="M38795 31756 c-114 -36 -202 -113 -256 -222 -27 -54 -33 -81 -37
-148 -7 -137 33 -241 129 -331 94 -88 114 -93 721 -194 301 -50 572 -91 603
-91 171 0 339 129 389 299 46 157 -11 338 -139 442 -84 67 -115 74 -690 169
-552 91 -642 101 -720 76z"/>
<path d="M76373 70490 c-142 -51 -245 -173 -272 -327 -39 -211 113 -430 326
-473 26 -5 136 -14 243 -20 304 -16 4913 -279 5026 -286 209 -13 358 65 440
230 111 225 4 487 -234 576 -64 24 96 14 -1867 126 -3134 178 -3420 194 -3513
193 -67 0 -113 -6 -149 -19z"/>
<path d="M33540 69486 c-25 -7 -931 -297 -2015 -644 -1083 -346 -2030 -649
-2103 -672 -142 -44 -189 -71 -297 -166 -82 -72 -115 -124 -165 -255 -165
-440 -199 -936 -95 -1399 64 -288 193 -593 353 -836 l59 -90 -85 -89 c-506
-537 -565 -1489 -133 -2142 95 -143 158 -198 275 -240 43 -15 583 -75 1291
-142 1056 -101 2099 -185 3310 -266 702 -47 792 -51 850 -36 71 18 623 287
1255 612 311 160 854 434 1206 610 609 303 644 322 693 374 90 96 132 227 111
348 -12 67 -80 212 -136 289 -138 188 -214 542 -186 867 20 232 77 416 176
571 69 107 83 250 37 370 -11 30 -44 87 -72 125 -166 227 -244 559 -218 926
21 296 96 532 235 741 100 151 109 174 109 298 0 87 -4 115 -23 163 -50 122
-199 238 -324 251 -29 3 -165 17 -303 31 -253 26 -679 75 -1590 184 -953 114
-2033 232 -2120 230 -27 0 -70 -6 -95 -13z m487 -861 c678 -71 1721 -190 1768
-203 26 -7 -19 -28 -395 -191 -234 -102 -567 -245 -740 -319 l-315 -134 -380
27 c-657 46 -2325 186 -2325 195 0 3 460 152 1023 332 562 180 1023 327 1024
327 1 1 154 -15 340 -34z m2815 -747 c-63 -372 -30 -809 88 -1172 22 -66 37
-123 34 -126 -3 -3 -436 -217 -962 -477 l-957 -471 -6 381 c-3 210 -8 554 -10
765 l-4 383 425 183 c234 101 643 278 910 394 266 116 486 209 488 207 3 -2
-1 -32 -6 -67z m-6754 -593 c344 -26 1298 -105 2337 -195 319 -27 823 -68
1120 -90 297 -22 563 -43 591 -46 l51 -5 7 -312 c3 -172 9 -520 12 -774 l7
-461 -59 4 c-33 2 -165 11 -294 20 -322 20 -1039 81 -1886 159 -390 36 -956
88 -1259 115 -302 27 -570 51 -595 54 -54 5 -77 28 -185 191 -86 128 -172 301
-214 432 -90 276 -104 586 -41 881 11 48 14 52 41 52 16 0 181 -11 367 -25z
m6826 -2185 c22 -144 57 -284 104 -416 l39 -111 -216 -107 c-119 -60 -472
-240 -786 -401 -644 -331 -976 -498 -980 -493 -2 2 -5 259 -7 571 l-3 568 910
449 910 448 6 -201 c3 -111 14 -249 23 -307z m-6174 -240 c300 -27 862 -79
1250 -114 1056 -97 1746 -154 2097 -172 l131 -7 6 -121 c3 -66 8 -338 11 -604
l6 -482 -68 5 c-37 3 -297 21 -578 41 -1221 83 -2668 207 -3630 309 -126 14
-237 25 -246 25 -34 0 -92 182 -110 346 -19 182 11 362 86 519 49 101 123 192
192 231 82 49 192 82 253 77 30 -2 300 -26 600 -53z"/>
<path d="M76411 69004 c-79 -21 -145 -60 -202 -121 -208 -220 -118 -576 171
-678 69 -24 906 -95 3078 -260 1136 -86 1469 -113 2046 -161 352 -30 380 -29
484 22 149 73 249 264 223 424 -30 178 -139 302 -306 349 -54 15 -859 82
-2290 191 -1386 105 -2163 167 -2717 215 -218 19 -405 35 -415 34 -10 0 -42
-7 -72 -15z"/>
<path d="M13790 68004 c-388 -74 -1132 -215 -1655 -315 -2553 -485 -4070 -780
-5990 -1164 -2034 -407 -2954 -598 -3020 -629 -100 -46 -188 -147 -219 -255
-9 -32 -16 -92 -16 -145 0 -130 181 -4606 295 -7321 131 -3084 250 -5715 370
-8140 19 -385 42 -842 50 -1015 9 -173 20 -341 25 -373 33 -204 203 -347 412
-347 63 0 533 139 5135 1520 2786 837 5084 1530 5106 1542 60 30 144 120 173
183 79 171 45 354 -87 480 -95 91 -218 132 -341 114 -29 -4 -2190 -649 -4803
-1434 -2612 -784 -4760 -1428 -4772 -1431 -27 -7 -23 -60 -73 976 -191 3937
-341 7367 -555 12685 -30 754 -62 1534 -70 1735 -8 201 -15 400 -15 442 l0 75
32 6 c18 3 308 62 643 132 1759 364 4316 867 7325 1440 2152 410 2402 457
2409 450 8 -8 8 -24 26 -915 41 -2077 63 -3406 90 -5495 19 -1533 19 -1519 41
-1580 40 -116 117 -199 230 -252 53 -25 70 -28 164 -28 87 0 115 4 163 23 113
46 217 172 246 298 10 39 10 230 2 825 -55 3912 -64 4444 -116 6904 -8 396
-20 751 -25 789 -31 208 -205 358 -414 355 -33 0 -378 -61 -766 -135z"/>
<path d="M13305 66405 c-180 -40 -1243 -263 -1855 -389 -727 -149 -960 -197
-2770 -562 -2502 -505 -3785 -775 -3858 -810 -107 -52 -198 -173 -221 -295
-10 -54 22 -593 189 -3214 196 -3071 282 -4555 355 -6085 67 -1419 119 -2881
140 -3945 4 -165 11 -325 17 -355 23 -121 110 -234 226 -291 57 -28 80 -34
157 -37 80 -4 105 0 220 32 72 19 407 108 745 196 2744 719 4853 1306 6115
1704 533 167 523 163 607 253 78 85 110 166 109 285 -1 230 -184 411 -415 410
-60 -1 -101 -10 -242 -55 -1224 -397 -3200 -952 -6029 -1697 -357 -94 -658
-173 -667 -176 -17 -5 -18 5 -18 123 0 217 -41 1472 -75 2328 -76 1885 -174
3627 -420 7490 -126 1978 -166 2618 -162 2621 11 11 1624 343 4077 839 1489
301 2325 472 2984 610 252 53 461 93 464 90 3 -3 0 -1971 -7 -4373 -10 -3412
-11 -4377 -1 -4412 69 -260 351 -390 590 -273 102 50 194 164 220 275 10 42
45 8409 38 9109 l-3 305 -38 76 c-59 121 -167 204 -296 228 -68 13 -101 12
-176 -5z"/>
<path d="M57145 26665 c-213 -46 -934 -279 -1070 -345 -227 -111 -403 -330
-464 -579 -25 -101 -28 -281 -7 -382 8 -36 64 -201 125 -366 61 -165 111 -304
111 -308 0 -3 -20 -34 -44 -68 -95 -135 -160 -299 -191 -485 -24 -140 -17
-435 14 -607 18 -101 159 -718 178 -780 5 -17 1 -15 -32 9 -41 31 -171 90
-250 113 -66 19 -184 12 -255 -15 -113 -44 -377 -267 -538 -455 -359 -419
-584 -925 -668 -1502 -22 -149 -25 -514 -5 -655 65 -474 241 -887 533 -1248
111 -138 350 -365 478 -455 21 -14 24 -38 60 -404 100 -1002 196 -2077 390
-4338 153 -1785 217 -2515 286 -3260 86 -944 181 -1913 191 -1954 8 -33 49
-117 76 -153 71 -96 514 -417 808 -586 1025 -588 2550 -1000 4179 -1126 444
-35 607 -41 1165 -40 594 0 842 10 1305 55 1245 119 2314 394 3150 810 551
275 956 582 1284 974 130 155 127 144 195 645 417 3045 689 6027 831 9090 l20
435 27 20 c297 216 598 535 766 810 466 767 454 1751 -31 2490 -322 492 -823
849 -1393 995 l-126 32 39 192 c122 603 262 1368 374 2041 61 370 66 405 56
467 -21 143 -101 252 -230 315 l-76 38 -181 -1 c-99 -1 -328 -6 -509 -13 -940
-32 -2071 1 -3076 90 -133 12 -261 18 -295 15 -132 -14 -259 -105 -321 -231
-33 -67 -36 -81 -44 -206 -5 -74 -14 -316 -21 -539 l-12 -406 -126 43 c-328
110 -613 126 -1221 68 -342 -33 -648 -32 -786 3 -153 39 -199 66 -415 238
-206 165 -331 239 -512 303 -178 63 -267 75 -522 75 -212 0 -240 -2 -357 -27
-372 -79 -690 -233 -1101 -533 l-131 -96 -30 38 c-69 88 -216 229 -294 281
-46 31 -115 68 -155 83 -40 16 -75 34 -79 42 -3 7 -13 92 -22 188 -44 489 -61
581 -130 717 -115 230 -333 395 -588 447 -92 19 -249 20 -333 1z m179 -837 c4
-19 21 -189 62 -611 5 -55 4 -59 -28 -91 -37 -37 -154 -80 -303 -111 -135 -29
-391 -32 -433 -6 -20 12 -203 512 -197 538 5 23 55 44 342 139 144 48 526 163
545 164 4 0 10 -10 12 -22z m7731 -538 c735 -52 1691 -77 2360 -62 209 5 382
7 385 5 4 -4 -10 -96 -65 -406 -18 -104 -36 -191 -39 -194 -16 -16 -469 -77
-786 -105 -96 -9 -318 -13 -655 -13 -600 1 -765 12 -1299 92 l-179 27 7 260
c3 144 9 296 13 339 l6 79 56 -6 c31 -3 119 -10 196 -16z m-4991 -762 c-166
-316 -518 -1032 -642 -1308 l-25 -55 -29 115 c-53 210 -136 513 -183 664 -26
82 -42 152 -38 155 5 3 67 51 138 106 176 136 379 270 512 338 97 50 296 126
330 127 6 0 -22 -64 -63 -142z m-2059 -44 c33 -21 95 -104 146 -194 90 -159
200 -450 294 -779 54 -188 175 -680 175 -710 0 -17 -17 -29 -87 -62 -456 -211
-1193 -378 -1669 -379 l-111 0 -31 118 c-68 256 -251 1025 -277 1162 -23 124
-30 283 -16 365 13 77 50 150 80 160 11 3 78 1 148 -6 388 -35 910 89 1243
294 41 26 76 47 78 47 1 0 13 -7 27 -16z m3045 -124 c117 -86 271 -167 409
-214 103 -36 322 -86 376 -86 21 0 26 -4 23 -17 -3 -10 -409 -940 -904 -2066
-645 -1471 -901 -2044 -906 -2030 -4 10 -59 288 -123 618 -64 330 -142 735
-174 900 -53 270 -58 303 -45 327 8 14 56 127 108 250 288 682 635 1417 1004
2125 75 145 137 263 137 263 0 0 43 -31 95 -70z m2220 -260 c163 -12 267 -37
363 -87 90 -48 184 -139 221 -215 27 -56 28 -60 21 -170 -5 -85 -3 -127 8
-169 13 -49 11 -143 -15 -889 -16 -459 -31 -836 -32 -837 -2 -2 -91 37 -199
87 -108 49 -242 105 -298 125 -366 127 -681 92 -951 -106 -102 -76 -239 -226
-325 -357 -43 -65 -343 -576 -668 -1135 l-590 -1017 -49 0 c-41 0 -48 3 -43
18 3 9 468 1072 1034 2362 566 1290 1032 2353 1036 2363 5 13 19 17 54 18 62
2 286 15 293 17 3 1 66 -3 140 -8z m1605 -325 c147 -24 495 -63 725 -82 301
-24 1029 -24 1326 0 215 18 536 52 587 63 25 5 27 4 22 -18 -3 -12 -37 -180
-76 -373 -191 -952 -365 -1720 -616 -2727 l-146 -586 -88 -41 c-48 -23 -90
-41 -94 -41 -3 0 -84 65 -178 143 -326 272 -635 505 -982 739 -197 133 -515
334 -627 398 -32 17 -60 36 -63 41 -6 9 74 2440 81 2477 5 26 10 26 129 7z
m-8915 -1680 c97 -387 436 -1620 468 -1704 8 -20 -48 14 -164 100 -211 157
-361 347 -439 554 -93 245 -98 573 -14 918 36 150 91 319 100 309 3 -4 25 -83
49 -177z m2850 -161 c0 -3 45 -236 100 -516 55 -281 100 -519 100 -528 0 -32
-335 -133 -645 -194 -346 -69 -902 -121 -1072 -101 l-60 7 -111 391 c-61 216
-120 424 -131 463 l-19 71 112 7 c477 30 1134 180 1601 365 99 39 125 47 125
35z m10058 -146 c123 -123 199 -228 272 -370 113 -224 154 -405 154 -683 0
-209 -12 -294 -66 -465 -169 -533 -670 -979 -1523 -1355 -1601 -707 -3521
-1002 -6080 -935 -545 14 -1412 54 -1423 65 -5 5 56 189 115 353 l45 122 47
-5 c68 -8 595 -33 921 -45 368 -13 1311 -13 1645 0 1520 59 2706 266 3645 637
188 74 513 229 675 323 641 369 1089 853 1309 1414 57 143 109 341 131 496 17
122 22 379 10 494 -7 65 -7 68 11 58 11 -6 61 -52 112 -104z m-967 -384 c-14
-77 -52 -216 -58 -211 -2 3 11 68 29 146 32 139 50 179 29 65z m-4888 -230
c118 -30 609 -264 967 -460 505 -276 1038 -624 1484 -968 64 -50 116 -93 116
-97 0 -3 -12 -9 -27 -12 -16 -4 -104 -24 -198 -46 -684 -160 -1540 -259 -2535
-291 -298 -10 -1070 -14 -1070 -6 0 9 954 1646 1001 1718 59 89 148 178 179
178 12 0 49 -7 83 -16z m-8043 -176 c67 -277 185 -525 359 -753 70 -93 255
-279 366 -368 307 -248 719 -456 1300 -658 99 -35 181 -63 182 -64 1 0 -18
-86 -42 -190 -24 -105 -51 -225 -60 -267 l-17 -77 -31 5 c-219 39 -576 134
-757 202 -784 296 -1234 750 -1372 1386 -19 87 -22 132 -23 331 0 148 5 255
13 300 16 88 53 245 57 245 1 0 13 -42 25 -92z m4252 -1183 l7 -30 -152 16
c-185 21 -429 39 -540 40 -137 2 -146 12 -27 33 121 21 443 101 575 143 l90
29 21 -101 c11 -55 23 -114 26 -130z m-362 -829 c262 -27 723 -96 738 -111 2
-2 -30 -98 -72 -213 -322 -893 -512 -1835 -567 -2812 -15 -271 -6 -1002 15
-1249 9 -101 14 -187 10 -190 -11 -12 -489 -6 -594 7 -320 40 -617 124 -884
250 l-98 46 6 156 c58 1351 242 2670 562 4029 l26 114 352 -6 c199 -3 418 -13
506 -21z m9280 -824 c0 -50 -40 -802 -65 -1227 -151 -2523 -394 -5025 -730
-7500 -37 -272 -61 -417 -71 -433 -9 -13 -60 -68 -114 -122 -670 -665 -1948
-1131 -3580 -1304 -1148 -122 -2413 -85 -3560 105 -1374 227 -2474 638 -3212
1203 -19 14 -24 51 -108 936 -95 1005 -183 1997 -345 3895 -159 1857 -263
3038 -350 3943 -19 200 -35 369 -35 377 0 10 36 2 133 -31 180 -61 389 -117
587 -159 91 -20 174 -37 186 -40 l21 -5 -23 -137 c-136 -799 -226 -1569 -274
-2348 -17 -284 -33 -756 -28 -851 9 -163 77 -269 237 -368 466 -286 1027 -467
1600 -517 174 -15 616 -6 771 16 200 28 397 71 458 101 115 56 202 175 224
306 9 52 7 93 -10 233 -119 943 -89 1854 94 2826 14 74 29 140 32 146 5 7 72
7 227 -2 1235 -74 2467 -86 3370 -35 1674 96 3124 406 4345 931 113 48 208 88
213 88 4 1 7 -11 7 -27z"/>
<path d="M74035 18854 c-1001 -43 -1639 -143 -2248 -354 -461 -159 -911 -418
-1132 -652 -360 -378 -497 -1050 -324 -1581 58 -178 136 -321 256 -470 59 -73
65 -84 56 -107 -11 -26 -833 -1815 -934 -2032 l-59 -127 -60 -363 c-242 -1476
-370 -2786 -432 -4433 -15 -411 -15 -1793 0 -2215 50 -1360 143 -2487 308
-3750 43 -331 48 -361 77 -424 57 -122 140 -181 395 -281 1099 -428 2930 -556
4381 -305 796 138 1446 370 1948 696 127 82 179 143 219 258 23 64 84 854 114
1476 64 1345 48 2621 -55 4180 -38 572 -77 911 -151 1329 -90 507 -243 1068
-414 1520 -315 834 -762 1551 -1310 2100 -194 195 -465 426 -617 526 -24 15
-43 32 -43 38 0 5 -17 37 -39 71 -80 128 -131 267 -282 781 -81 274 -200 651
-234 736 -4 11 24 37 103 96 l108 80 69 -110 c38 -61 115 -175 171 -253 l102
-143 -98 -143 c-111 -162 -140 -231 -140 -332 0 -127 72 -273 166 -338 88 -60
130 -73 249 -73 103 0 114 2 177 32 37 17 86 51 110 75 52 53 413 574 439 635
44 104 42 235 -5 338 -13 28 -72 111 -132 185 -187 233 -343 462 -484 714
l-71 127 37 105 37 104 71 0 c283 0 1003 37 1095 56 191 39 363 130 506 266
152 144 249 306 303 506 24 91 26 110 25 307 -1 168 -5 229 -21 305 -83 400
-368 700 -760 801 -42 11 -131 24 -197 29 -118 10 -1123 21 -1280 14z m1290
-855 c52 -18 107 -74 123 -125 14 -49 16 -262 2 -298 -16 -42 -79 -104 -123
-120 -60 -22 -416 -38 -1378 -59 -123 -3 -128 -4 -201 -40 -91 -45 -157 -112
-200 -203 -27 -58 -32 -82 -39 -193 -13 -225 -84 -373 -274 -570 -137 -143
-291 -249 -495 -340 -166 -75 -217 -85 -445 -85 -171 0 -215 3 -305 22 -213
46 -421 117 -579 196 -133 68 -231 182 -285 336 -29 81 -30 93 -30 240 0 177
17 256 80 389 44 91 112 161 239 247 523 355 1288 551 2400 614 83 4 447 7
810 5 523 -2 668 -6 700 -16z m-3854 -2735 c116 -40 341 -92 494 -116 174 -26
491 -29 625 -5 47 8 88 12 92 8 12 -12 99 -283 203 -637 58 -197 128 -424 155
-504 27 -79 48 -146 46 -147 -7 -7 -241 -56 -397 -82 -471 -80 -1001 -108
-1514 -81 -185 10 -496 37 -503 44 -7 7 703 1545 714 1546 6 0 44 -11 85 -26z
m2210 -2181 c680 -525 1201 -1281 1553 -2251 68 -186 172 -519 182 -582 l6
-35 -64 -18 c-728 -201 -1386 -320 -2108 -383 -249 -21 -988 -30 -1260 -15
-494 28 -934 84 -1420 181 -259 52 -488 104 -498 114 -10 11 39 601 93 1116
61 577 214 1690 235 1713 4 4 90 -1 191 -12 680 -74 1352 -72 1954 5 298 38
705 120 935 188 63 19 118 34 121 35 4 1 40 -25 80 -56z m1923 -3710 c31 -151
78 -606 105 -1023 73 -1112 95 -1788 90 -2802 -2 -388 -7 -710 -11 -713 -18
-19 -797 -202 -1158 -274 -747 -147 -1293 -208 -1951 -218 -637 -9 -1081 28
-1629 137 -283 56 -687 163 -915 243 l-40 14 -17 224 c-76 1008 -103 1846 -95
2929 4 637 22 1336 33 1349 2 2 27 -1 56 -7 514 -108 705 -143 1028 -186 1207
-162 2366 -117 3625 141 211 43 842 197 853 208 12 11 21 4 26 -22z m142
-5520 c-22 -346 -48 -703 -54 -738 -7 -39 -9 -41 -137 -107 -565 -292 -1378
-477 -2324 -529 -274 -15 -1008 -6 -1251 15 -493 43 -887 105 -1255 197 -161
41 -403 115 -418 128 -13 12 -133 998 -123 1009 3 2 89 -19 193 -46 720 -194
1369 -276 2168 -276 597 0 1056 38 1705 140 377 59 1108 211 1415 293 39 11
74 20 79 20 5 1 6 -45 2 -106z"/>
<path d="M41990 11314 c-101 -21 -205 -61 -325 -123 -60 -31 -490 -304 -955
-606 -465 -301 -854 -550 -865 -552 -11 -3 -119 16 -240 42 -508 107 -1023
208 -1645 321 -342 62 -377 67 -550 71 -158 4 -203 2 -309 -16 -495 -84 -913
-384 -1154 -828 -31 -55 -169 -324 -307 -595 -138 -272 -256 -503 -263 -512
-12 -16 -17 -17 -74 -2 -133 35 -265 10 -371 -68 -53 -38 -123 -132 -141 -188
-16 -51 -391 -1672 -397 -1720 -3 -24 -1 -70 5 -102 25 -136 105 -243 224
-300 76 -37 455 -135 1006 -260 156 -36 285 -67 288 -69 6 -6 89 -627 173
-1292 137 -1083 219 -1902 269 -2680 22 -330 29 -367 95 -459 64 -91 122 -124
496 -291 1286 -572 2694 -928 4105 -1039 279 -22 674 -39 789 -34 l101 4 630
315 c347 173 902 445 1235 603 1227 585 1744 861 1856 989 80 92 116 219 96
340 -9 56 -7 568 12 2351 14 1253 26 2279 28 2281 2 1 19 10 38 20 19 10 107
61 195 113 185 109 253 169 296 260 44 92 47 165 15 392 -14 102 -53 403 -86
670 -92 750 -106 845 -139 916 -71 152 -215 244 -383 244 -110 -1 -177 -29
-396 -168 -106 -67 -195 -122 -197 -122 -2 0 -131 128 -287 284 -470 471 -731
689 -1553 1294 -379 279 -464 336 -610 407 -196 94 -326 125 -518 124 -67 0
-151 -7 -187 -15z m341 -859 c93 -47 140 -79 419 -284 781 -573 1050 -792
1439 -1177 l234 -231 -122 -77 -123 -78 -32 29 c-45 43 -93 69 -161 89 -55 15
-106 16 -595 11 -294 -4 -629 -11 -745 -17 -346 -16 -747 -41 -975 -59 -118
-10 -216 -17 -217 -16 -1 0 -16 53 -32 116 -76 296 -204 522 -416 735 -66 67
-134 132 -152 145 l-31 24 510 330 c675 437 704 455 768 482 75 32 134 26 231
-22z m-4635 -860 c954 -168 2308 -445 2451 -502 147 -59 301 -191 380 -328 42
-72 90 -191 81 -201 -3 -3 -126 -20 -274 -39 -368 -47 -772 -106 -1122 -166
-373 -62 -422 -73 -488 -103 -69 -32 -152 -115 -188 -188 -46 -94 -51 -158
-29 -355 10 -95 18 -173 17 -173 -1 0 -143 45 -315 99 -592 187 -1184 370
-1597 494 -227 68 -415 127 -418 129 -7 8 480 960 532 1038 101 154 290 284
464 319 30 6 64 13 75 15 70 14 191 3 431 -39z m7763 -1555 c23 -190 41 -348
41 -352 0 -10 -142 -88 -475 -261 -165 -85 -345 -180 -400 -211 -69 -39 -102
-52 -106 -43 -4 7 -10 35 -14 62 -3 28 -24 149 -46 270 -21 121 -40 230 -41
243 -3 21 53 59 492 336 272 172 498 310 501 307 3 -3 25 -161 48 -351z
m-1925 -138 c5 -9 79 -398 120 -632 97 -553 185 -1245 235 -1835 36 -423 70
-1025 58 -1025 -14 0 -245 104 -363 163 -247 124 -476 264 -703 431 -116 86
-157 110 -214 127 -189 58 -402 -32 -487 -205 -32 -64 -44 -119 -153 -691
l-53 -280 -154 -6 c-391 -16 -976 -5 -1475 26 -231 15 -567 43 -572 49 -2 1
-19 157 -38 347 -48 483 -91 853 -205 1789 -134 1102 -164 1369 -157 1376 14
14 727 120 1167 174 837 102 1698 166 2535 189 416 12 453 12 459 3z m-7782
-383 c594 -173 1356 -406 2298 -704 272 -86 514 -159 537 -162 41 -5 42 -7 48
-47 12 -84 53 -431 52 -433 -4 -4 -768 109 -1022 151 -510 85 -1065 191 -1570
301 -308 67 -769 176 -778 184 -4 4 31 173 78 377 99 425 94 404 105 404 5 0
119 -32 252 -71z m9203 -1501 c-8 -534 -35 -3183 -35 -3420 l0 -177 -107 -61
c-158 -88 -769 -390 -1397 -690 -301 -144 -699 -335 -884 -426 -184 -90 -337
-164 -338 -164 -14 0 -73 750 -118 1510 -14 228 -28 440 -31 472 l-4 56 127 6
c265 12 338 33 438 128 99 93 108 120 199 613 15 77 28 145 30 152 3 8 35 -6
89 -37 392 -225 820 -406 1260 -531 144 -41 213 -47 294 -29 139 32 254 139
301 278 18 52 21 86 21 229 0 362 -32 1017 -75 1531 -20 235 -66 702 -78 784
-1 12 40 42 148 108 82 49 154 90 158 90 5 0 6 -190 2 -422z m-7913 -432 c364
-67 748 -129 1188 -192 410 -59 432 -60 536 -29 19 6 21 -3 53 -277 46 -401
96 -885 126 -1223 27 -309 33 -342 72 -419 63 -125 182 -198 359 -221 426 -55
1308 -115 1707 -115 l127 0 0 -30 c0 -38 46 -782 65 -1065 21 -302 52 -678 75
-934 11 -118 19 -216 17 -218 -6 -5 -252 14 -496 38 -1204 117 -2462 447
-3541 928 l-135 60 -27 353 c-66 858 -171 1808 -333 3021 -45 340 -48 367 -41
367 2 0 114 -20 248 -44z"/>
<path d="M56995 5490 c-109 -35 -125 -50 -486 -450 -678 -753 -1210 -1425
-1656 -2094 -138 -207 -166 -264 -178 -357 -20 -159 80 -341 225 -412 40 -19
498 -129 1650 -396 1701 -394 2651 -615 3614 -841 402 -94 619 -140 657 -140
78 0 174 32 242 80 46 34 76 71 175 218 293 436 644 1029 932 1572 157 296
416 828 435 894 22 76 16 189 -15 269 -25 66 -110 165 -174 202 -50 29 -521
197 -996 355 -1297 433 -2564 773 -3948 1059 -319 66 -380 72 -477 41z m585
-916 c988 -208 2074 -495 3085 -814 272 -86 929 -306 950 -318 23 -12 -346
-702 -636 -1187 -153 -257 -324 -532 -343 -553 -10 -10 -175 26 -847 182 -809
189 -2452 571 -3496 812 -282 66 -513 121 -513 124 0 9 237 328 376 507 268
344 645 793 968 1151 122 135 150 161 169 157 12 -3 141 -30 287 -61z"/>
</g>
</svg>
