<?xml version="1.0" standalone="no"?>
<!DOCTYPE svg PUBLIC "-//W3C//DTD SVG 20010904//EN"
 "http://www.w3.org/TR/2001/REC-SVG-20010904/DTD/svg10.dtd">
<svg version="1.0" xmlns="http://www.w3.org/2000/svg"
 width="756.000000pt" height="750.000000pt" viewBox="0 0 756.000000 750.000000"
 preserveAspectRatio="xMidYMid meet">

<g transform="translate(0.000000,750.000000) scale(0.100000,-0.100000)"
fill="#000000" stroke="none">
<path d="M2287 7303 c-4 -3 -7 -100 -7 -214 0 -208 0 -209 -22 -213 -96 -20
-136 -27 -228 -41 -125 -20 -487 -86 -620 -114 -201 -43 -762 -142 -905 -161
-147 -20 -408 -60 -411 -63 -1 -1 -4 -12 -8 -23 -7 -21 16 -40 34 -29 9 5 218
39 345 55 180 22 468 71 685 115 63 13 156 31 205 41 50 9 136 27 193 40 56
13 135 29 175 34 39 6 126 21 192 35 102 20 206 39 338 60 26 4 27 3 27 -40
l0 -44 -47 -6 c-52 -6 -280 -43 -493 -80 -74 -13 -226 -44 -338 -69 -341 -77
-649 -132 -897 -162 -72 -8 -195 -27 -275 -42 -135 -25 -145 -29 -148 -50 -3
-23 -2 -23 45 -17 26 3 82 13 123 20 41 8 133 21 205 30 277 34 582 89 915
165 303 69 802 159 883 160 l27 0 0 -96 c0 -102 9 -134 40 -134 18 0 20 9 22
118 l3 117 40 3 c22 2 83 -1 135 -7 52 -6 237 -17 410 -26 695 -34 924 -47
1125 -66 116 -11 334 -26 485 -34 151 -8 302 -17 335 -19 33 -3 103 -8 155
-11 52 -3 160 -13 240 -21 249 -25 560 -25 560 0 0 23 -24 26 -190 26 -92 0
-229 8 -327 19 -92 11 -222 22 -288 26 -66 3 -257 12 -425 20 -168 9 -316 17
-330 20 -80 15 -808 62 -1150 75 -151 5 -286 12 -300 15 -14 2 -99 9 -190 15
-91 6 -193 13 -227 17 l-63 6 0 42 0 43 38 -4 c195 -21 406 -36 625 -44 318
-13 540 -25 792 -45 297 -23 593 -43 800 -55 422 -23 545 -31 645 -40 178 -16
550 -32 578 -25 l26 6 -29 19 c-25 15 -77 21 -300 34 -148 10 -342 23 -430 31
-88 8 -315 21 -505 30 -331 15 -866 52 -880 60 -4 2 -198 11 -431 20 -233 9
-464 20 -514 25 -49 5 -163 15 -252 21 l-163 13 0 207 c0 179 -2 208 -16 213
-20 8 -29 8 -37 -1z"/>
<path d="M6140 6859 c-94 -8 -114 -14 -188 -50 -45 -23 -84 -44 -87 -48 -7
-12 -7 -148 0 -255 l6 -98 -58 6 c-32 4 -103 7 -158 8 -99 2 -102 1 -225 -49
-69 -27 -156 -58 -195 -67 -125 -30 -213 -66 -219 -90 -3 -11 -6 -666 -6
-1454 0 -1252 -2 -1433 -15 -1438 -8 -3 -49 0 -92 8 l-78 14 -3 441 -2 441 45
26 c24 15 49 35 54 45 16 29 1 130 -20 142 -10 5 -79 17 -154 26 -117 14 -138
15 -145 3 -7 -12 -13 -11 -32 7 -30 27 -62 43 -87 43 -25 0 -26 6 -21 285 2
177 4 192 25 225 41 63 40 75 -5 124 -48 52 -120 91 -153 82 -29 -7 -170 -96
-224 -142 -48 -39 -52 -58 -24 -112 22 -44 119 -138 156 -152 60 -23 96 -9
141 51 l24 33 0 -193 0 -194 -42 6 c-24 3 -92 15 -151 26 -59 11 -147 25 -195
31 -48 6 -101 13 -119 16 l-31 6 24 35 c21 31 24 47 24 128 0 51 7 155 14 231
25 236 30 360 17 392 -16 39 -44 50 -159 62 -268 29 -377 40 -482 50 -63 6
-160 15 -215 21 -154 16 -170 4 -185 -134 -27 -241 -50 -592 -41 -622 l9 -32
-74 1 c-80 1 -107 -11 -84 -39 9 -11 32 -15 87 -15 67 0 397 -35 431 -46 8 -2
-3 -17 -30 -37 -25 -19 -43 -41 -43 -52 0 -21 30 -29 264 -70 l103 -19 52 28
c28 16 65 42 82 57 l30 29 135 -21 c74 -11 179 -27 234 -34 55 -8 115 -17 134
-20 l33 -6 -25 -27 c-47 -51 -43 -103 13 -135 62 -37 263 -30 332 11 16 9 34
31 40 49 8 22 17 32 28 29 8 -3 52 -10 98 -16 46 -6 90 -14 98 -17 8 -3 -23
-23 -78 -48 -51 -23 -190 -90 -308 -148 -318 -155 -331 -160 -409 -152 -87 8
-500 73 -576 90 -88 20 -314 49 -321 42 -16 -16 10 -35 63 -45 211 -42 722
-126 831 -138 60 -6 62 -8 62 -35 0 -26 -2 -27 -37 -23 -89 12 -234 35 -308
49 -239 44 -479 85 -502 85 -26 0 -26 0 -7 -21 10 -12 28 -25 39 -29 11 -4 29
-25 40 -46 26 -50 55 -58 55 -15 0 34 3 35 63 22 23 -6 85 -17 137 -26 52 -9
129 -23 170 -30 41 -8 108 -19 148 -25 l72 -12 0 -139 c0 -113 -3 -139 -14
-139 -13 0 -238 42 -296 56 l-25 6 25 -27 c14 -15 33 -31 42 -36 23 -12 202
-49 239 -49 l29 0 0 -100 c0 -105 15 -160 45 -160 13 0 15 41 15 291 l0 290
28 -3 27 -3 5 -320 5 -320 75 -78 c41 -43 115 -115 163 -159 l88 -80 120 76
c66 42 125 76 130 76 6 0 22 -9 36 -20 35 -28 107 -27 126 0 15 21 10 21 140
-1 l68 -11 -1 -87 c-3 -184 -2 -189 25 -207 40 -26 90 -34 122 -17 35 18 43
30 43 71 0 31 2 33 28 28 15 -3 51 -8 79 -11 29 -4 55 -11 58 -15 5 -8 -82
-66 -215 -145 -98 -58 -286 -183 -300 -200 -11 -13 -8 -15 17 -15 20 0 59 19
114 56 83 56 160 104 371 231 l107 65 98 -17 c143 -24 193 -36 193 -44 0 -9
-102 -76 -267 -175 -134 -80 -150 -96 -101 -96 26 0 71 24 198 106 251 161
243 157 298 150 177 -25 430 -71 438 -79 3 -3 -21 -23 -53 -45 -32 -22 -65
-47 -72 -56 -35 -42 74 1 164 65 l40 29 130 -21 c72 -12 133 -25 137 -28 4 -4
-76 -65 -179 -136 -202 -141 -213 -150 -213 -170 0 -34 150 51 315 180 22 18
67 51 101 74 l61 42 71 -13 72 -12 0 -50 c0 -32 6 -56 17 -68 9 -10 11 -18 5
-18 -26 0 -472 -326 -511 -374 -21 -25 -31 -19 -31 22 0 20 -9 55 -19 78 -19
41 -105 124 -130 124 -16 0 -11 32 13 97 18 49 13 71 -19 83 -15 6 -26 21 -30
40 -10 45 -82 76 -194 83 l-83 5 -29 -64 -29 -63 -36 24 c-45 31 -98 41 -127
26 -12 -7 -39 -27 -60 -46 -25 -22 -55 -37 -89 -45 -29 -6 -60 -18 -69 -26
-15 -14 -19 -13 -37 10 -23 30 -51 33 -112 11 -23 -8 -44 -15 -45 -15 -2 0
-24 29 -49 64 -25 35 -51 66 -58 69 -7 2 -24 -3 -38 -12 -39 -24 -120 -92
-120 -101 0 -4 21 -31 46 -59 l46 -51 -48 -50 c-63 -65 -76 -91 -76 -153 0
-56 10 -88 42 -127 21 -26 30 -86 45 -282 4 -64 3 -88 -6 -88 -31 0 -348 -215
-594 -402 -200 -152 -233 -180 -217 -186 27 -9 172 82 322 203 41 34 156 116
255 184 99 68 192 135 207 149 15 14 31 23 34 19 10 -10 22 -97 30 -218 6 -96
5 -109 -9 -109 -19 0 -138 -80 -297 -200 -63 -47 -173 -128 -245 -179 -71 -51
-144 -108 -161 -128 -39 -44 -57 -40 -131 30 l-53 50 0 93 c0 93 0 94 -28 108
-52 27 -253 68 -420 86 -105 12 -116 11 -170 -8 -31 -11 -85 -23 -120 -26 -72
-7 -107 -22 -164 -74 -80 -72 -122 -170 -85 -200 7 -6 32 -15 56 -21 23 -5 44
-11 46 -13 1 -1 7 -70 11 -152 9 -143 8 -149 -11 -162 -11 -8 -64 -43 -117
-79 -125 -83 -218 -154 -218 -166 0 -39 129 31 297 162 35 27 65 49 68 49 3 0
5 -13 5 -29 0 -61 23 -80 139 -111 243 -66 313 -68 470 -16 199 65 201 67 201
213 0 57 4 105 10 108 6 3 10 -1 10 -9 0 -23 19 -20 103 18 73 34 76 36 84 77
8 38 12 43 60 61 28 10 99 54 156 96 174 127 388 292 449 343 31 27 60 49 65
49 5 0 14 -50 20 -111 8 -83 16 -118 31 -138 l20 -27 -55 -45 c-30 -24 -78
-61 -106 -81 -28 -20 -71 -59 -96 -85 -25 -26 -32 -36 -16 -22 17 15 68 52
115 83 47 31 107 75 133 98 47 42 48 42 67 22 20 -19 19 -20 -79 -102 -137
-115 -141 -118 -141 -127 0 -5 10 1 23 12 12 11 36 28 54 37 29 14 87 60 155
122 31 28 36 29 66 8 l23 -16 -43 -31 c-65 -46 -178 -148 -178 -160 0 -6 12 1
28 15 15 14 61 50 102 80 41 30 81 62 89 71 14 18 48 22 69 8 10 -6 0 -18 -37
-45 -28 -21 -51 -42 -51 -47 0 -15 27 -10 41 8 19 23 90 73 103 73 6 0 18 -4
26 -9 11 -8 5 -18 -30 -49 -25 -22 -42 -43 -38 -47 4 -4 30 13 59 39 39 35 59
46 84 46 48 0 50 -14 9 -47 -20 -16 -35 -35 -33 -41 2 -6 28 9 57 33 51 43 57
45 116 45 67 0 227 22 289 40 53 16 55 8 7 -24 -22 -14 -40 -31 -40 -37 0 -12
46 19 75 51 11 12 38 31 60 42 54 28 133 95 149 127 8 15 18 101 25 211 7 102
23 299 37 439 13 140 24 265 24 277 0 35 41 76 117 117 38 21 98 61 134 88 35
27 123 93 195 148 71 54 142 113 156 130 21 25 34 31 64 31 33 0 45 7 89 53
27 29 70 69 95 89 25 19 63 52 84 73 28 26 45 35 60 31 63 -18 97 -18 122 -2
21 14 31 15 56 7 17 -6 42 -11 55 -11 21 0 24 4 21 27 -3 24 -10 30 -55 42
l-53 14 0 73 0 73 55 -6 c54 -6 55 -5 55 20 0 22 -6 28 -37 36 -21 6 -45 11
-54 11 -14 0 -17 29 -23 233 -9 319 -6 2481 4 2807 8 257 8 266 -12 282 -22
20 -29 21 -233 43 -82 9 -183 21 -223 28 -71 10 -73 11 -68 36 3 14 7 104 8
199 l3 174 -32 26 c-110 91 -97 85 -206 93 -131 10 -413 9 -547 -2z m578 -65
c12 -4 22 -10 22 -14 0 -10 -94 -31 -97 -22 -2 4 -141 6 -311 5 -169 -1 -314
2 -322 7 -19 12 9 18 130 30 99 9 538 5 578 -6z m139 -127 c-6 -16 -135 -70
-216 -92 l-53 -14 7 37 c4 20 12 39 18 41 7 3 62 21 122 41 102 34 111 36 119
19 5 -10 6 -24 3 -32z m-614 29 c131 -2 241 -7 245 -11 3 -3 8 -35 10 -70 l4
-65 -50 0 c-28 0 -127 7 -219 15 -92 8 -197 16 -233 17 l-65 3 -3 39 c-2 22
-1 50 3 63 5 21 10 23 38 18 18 -3 139 -7 270 -9z m610 -228 c-2 -68 -6 -128
-8 -134 -3 -10 -77 -37 -212 -79 -10 -3 -13 25 -13 120 l0 125 33 15 c61 27
182 74 194 74 8 1 10 -32 6 -121z m-580 36 c92 -8 177 -14 187 -14 19 0 20 -8
20 -121 0 -121 0 -121 -22 -115 -72 18 -392 56 -481 56 -25 0 -37 5 -41 18 -4
12 -1 183 4 199 0 3 168 -9 333 -23z m287 -144 c0 -80 -4 -130 -10 -130 -6 0
-10 48 -10 123 0 109 3 137 17 137 2 0 3 -58 3 -130z m-700 -27 c0 -68 3 -70
113 -83 56 -6 163 -20 237 -30 372 -52 385 -52 571 9 132 43 170 47 279 31 36
-5 121 -17 190 -25 69 -9 129 -20 134 -25 8 -8 -121 -80 -144 -80 -6 0 -52
-16 -103 -36 -90 -35 -94 -36 -157 -25 -69 12 -370 20 -370 10 0 -8 236 -29
323 -29 66 0 67 -1 67 -26 0 -25 -2 -26 -32 -20 -74 15 -332 46 -463 56 -77 5
-203 17 -280 25 -77 8 -216 20 -310 25 -167 10 -285 18 -637 43 -162 12 -200
18 -187 31 3 3 63 24 134 47 143 46 147 46 395 35 129 -6 170 -4 189 6 13 7
23 18 22 23 0 6 -69 13 -167 17 -91 3 -168 9 -172 12 -21 21 59 33 236 35
l132 1 0 -27z m-740 -1869 l0 -1675 -22 3 -23 3 1 1663 c1 1727 0 1681 37
1682 4 0 7 -754 7 -1676z m2258 29 c-3 -865 -7 -1575 -9 -1577 -2 -2 -62 -43
-134 -91 -71 -48 -140 -97 -152 -108 l-22 -20 -3 179 c-2 99 -1 838 2 1644 l5
1465 80 28 c44 15 85 29 90 30 6 1 9 -23 8 -61 -1 -43 2 -62 10 -59 6 2 12 30
13 65 2 34 5 66 9 72 11 17 35 11 35 -9 0 -11 5 -23 10 -26 6 -4 10 8 10 29 0
44 30 67 43 33 5 -12 7 -730 5 -1594z m-1963 1580 c66 -8 124 -19 129 -24 19
-17 -44 -27 -136 -22 -88 5 -97 4 -117 -16 -24 -24 -28 -73 -7 -90 12 -10 64
-21 174 -37 46 -7 48 -24 10 -65 -55 -59 -114 -141 -147 -204 -25 -48 -33 -80
-41 -160 -14 -146 -12 -429 5 -680 15 -237 21 -275 41 -317 8 -15 14 -36 14
-47 0 -38 46 -61 121 -61 l69 0 0 -277 0 -278 -115 -58 c-92 -47 -116 -63
-121 -84 -4 -14 8 -119 26 -232 18 -113 34 -212 34 -220 1 -8 -37 -38 -84 -67
l-85 -53 -5 622 c-3 342 -4 1021 -2 1510 l3 887 57 -5 c31 -4 111 -13 177 -22z
m535 -38 c127 -15 162 -27 140 -49 -5 -5 -21 -4 -39 4 -17 7 -38 9 -47 6 -9
-3 -66 -1 -128 5 -61 6 -133 12 -161 13 -135 5 -135 5 -135 28 0 21 2 21 118
15 64 -4 178 -14 252 -22z m430 -25 c91 -6 215 -16 275 -22 61 -6 139 -13 175
-17 l65 -6 3 -1627 c1 -1008 -2 -1628 -7 -1628 -5 0 -41 7 -78 14 -72 16 -414
79 -543 101 -41 7 -83 16 -92 20 -17 7 -18 92 -18 1589 0 871 3 1586 6 1589 4
4 16 5 28 2 12 -2 95 -9 186 -15z m-927 -40 c33 0 37 -3 37 -24 0 -23 -2 -24
-32 -15 -18 5 -52 9 -75 9 -43 0 -60 11 -47 31 4 7 21 9 43 5 20 -3 53 -6 74
-6z m1547 -1740 c0 -1704 0 -1750 -19 -1750 -12 0 -20 9 -23 28 -2 15 -3 403
-2 862 2 459 3 1234 3 1723 1 880 1 887 21 887 20 0 20 -7 20 -1750z m-1291
1724 c2 -2 1 -11 -3 -20 -5 -14 -16 -15 -74 -9 -78 8 -83 10 -75 31 5 13 17
15 77 9 39 -4 73 -9 75 -11z m237 -10 c22 -4 40 -30 26 -37 -4 -2 -50 2 -102
7 -77 9 -95 14 -98 28 -3 16 4 17 75 12 43 -3 88 -7 99 -10z m144 -14 c17 -11
7 -24 -27 -35 -20 -5 -23 -3 -23 19 0 28 21 34 50 16z m-385 -60 c7 -12 -21
-56 -41 -64 -9 -3 -30 10 -54 34 l-40 40 64 0 c36 0 68 -4 71 -10z m249 -21
c6 -5 -3 -22 -24 -44 l-35 -36 -30 37 c-17 20 -44 42 -60 50 -27 13 -23 13 55
8 47 -3 89 -10 94 -15z m139 6 c-6 -17 -25 -15 -31 3 -2 7 5 12 17 12 14 0 19
-5 14 -15z m-583 -142 c-65 -65 -82 -102 -27 -61 57 43 63 43 28 -1 -37 -47
-81 -156 -81 -199 1 -25 1 -26 12 -7 6 11 22 33 34 48 l23 28 5 -23 c3 -13 7
-48 10 -78 3 -30 17 -156 31 -280 24 -197 26 -247 20 -405 -7 -196 -13 -219
-62 -229 -15 -3 -53 -2 -83 2 l-55 7 -7 95 c-4 52 -10 239 -13 415 -9 381 1
511 41 585 32 59 119 159 148 170 43 17 34 -8 -24 -67z m271 61 c8 -10 9 -18
3 -22 -6 -4 -32 -22 -59 -41 -117 -80 -111 -127 6 -54 33 20 62 33 65 30 3 -3
-13 -36 -35 -73 -54 -90 -60 -113 -71 -284 -11 -161 -14 -928 -4 -954 16 -42
174 -43 238 -1 23 16 26 24 26 77 0 51 2 59 16 54 9 -3 40 -6 70 -6 l54 0 0
-379 0 -379 -39 14 c-72 25 -246 55 -355 61 l-108 6 5 316 c3 210 8 328 16
351 8 21 15 124 18 255 6 218 3 255 -32 475 -8 52 -20 131 -26 175 -5 44 -17
97 -26 117 -21 49 -10 75 63 151 52 54 140 126 155 127 4 0 12 -7 20 -16z
m239 -8 c0 -7 -24 -33 -54 -59 -29 -25 -68 -67 -85 -93 -52 -80 -55 -105 -37
-334 18 -240 33 -855 20 -862 -5 -3 -33 -9 -62 -13 l-53 -7 5 499 c2 274 9
524 14 556 17 95 56 162 149 254 78 77 103 91 103 59z m-2695 -315 c72 -6 186
-18 255 -26 69 -8 163 -19 209 -24 46 -5 88 -14 94 -20 10 -10 2 -155 -24
-443 -12 -126 -12 -128 -37 -128 -28 0 -29 -34 4 318 21 218 23 207 -56 217
-25 3 -78 10 -119 16 -110 16 -614 57 -628 52 -18 -7 -20 -22 -39 -248 -18
-213 -24 -245 -50 -245 -14 0 -16 8 -10 58 3 31 11 116 16 187 5 72 14 164 20
205 5 41 10 81 10 89 0 15 102 13 355 -8z m2627 -249 c11 -288 28 -530 38
-556 7 -20 17 -25 52 -28 l43 -4 -37 -17 c-81 -37 -94 -17 -108 169 -14 194
-30 606 -23 617 3 5 10 4 17 -3 7 -7 14 -75 18 -178z m71 33 c16 -81 34 -305
25 -305 -3 0 -13 48 -21 108 -17 116 -32 290 -24 282 2 -3 12 -41 20 -85z
m-1625 -84 c22 -16 43 -35 47 -41 7 -11 -19 -57 -75 -133 l-35 -48 -15 23
c-24 37 -72 77 -118 99 l-43 21 58 36 c32 20 69 44 82 54 33 25 51 23 99 -11z
m-199 -155 c63 -40 116 -116 81 -116 -34 0 -150 101 -150 130 0 17 28 11 69
-14z m-1060 -141 c78 -8 152 -17 164 -20 12 -3 83 -12 157 -20 177 -20 339
-44 369 -56 21 -9 23 -14 18 -51 -3 -22 -14 -49 -24 -60 -18 -17 -23 -17 -123
-3 -58 9 -179 24 -270 35 -310 38 -477 65 -496 81 -8 7 -14 31 -14 60 l0 49
39 0 c21 0 103 -7 180 -15z m359 -246 c61 -7 112 -16 112 -20 0 -5 -20 -20
-44 -34 l-44 -26 -145 18 -145 18 37 32 c31 29 42 32 76 29 22 -3 91 -11 153
-17z m902 -159 c0 -11 5 -20 12 -20 6 0 3 -9 -7 -20 -10 -11 -14 -20 -8 -20
17 0 63 41 63 56 0 18 19 18 43 -1 29 -21 17 -48 -28 -63 -57 -19 -219 -12
-242 10 -14 15 -14 19 -2 34 22 26 69 43 122 44 40 0 47 -3 47 -20z m1140 -9
c0 -24 -19 -31 -85 -31 -55 0 -71 10 -61 35 4 11 23 15 76 15 62 0 70 -2 70
-19z m-697 -132 c-10 -10 -175 -98 -366 -194 -276 -140 -349 -172 -353 -160
-3 8 -4 21 -1 28 2 7 135 75 293 152 159 77 323 158 364 182 60 34 76 39 78
26 2 -8 -4 -24 -15 -34z m-87 -693 c3 -323 1 -536 -4 -536 -5 0 -14 6 -20 13
-9 11 -26 187 -37 387 -7 108 12 458 31 574 8 49 14 94 14 99 0 6 3 8 6 4 3
-3 8 -247 10 -541z m-103 368 c9 -9 -4 -35 -14 -28 -5 3 -9 12 -9 20 0 14 12
19 23 8z m5 -101 c-5 -25 -28 -28 -28 -4 0 12 6 21 16 21 9 0 14 -7 12 -17z
m-520 -275 c-3 -150 -10 -274 -16 -288 -8 -18 -11 51 -11 263 -1 259 1 287 15
287 15 0 16 -24 12 -262z m520 180 c-4 -27 -28 -36 -28 -10 0 20 8 32 22 32 5
0 8 -10 6 -22z m1112 -48 c0 -24 -67 -93 -85 -86 -8 3 -15 -6 -19 -25 -3 -17
-12 -29 -21 -29 -20 0 -22 9 -28 93 l-5 67 79 0 c72 0 79 -2 79 -20z m175 -15
c89 -18 104 -27 85 -49 -36 -44 -173 -36 -191 12 -15 39 -11 64 9 58 9 -3 53
-13 97 -21z m-365 -50 l0 -65 -37 0 c-54 0 -155 18 -166 29 -6 6 7 18 34 32
49 25 150 68 162 69 4 0 7 -29 7 -65z m-996 40 c-4 -8 -8 -15 -10 -15 -2 0 -4
7 -4 15 0 8 4 15 10 15 5 0 7 -7 4 -15z m67 -102 c1 -60 3 -151 5 -203 2 -52
1 -106 -2 -120 -6 -23 -7 -24 -14 -5 -13 30 -12 435 0 435 6 0 10 -43 11 -107z
m1156 13 c7 -42 -5 -56 -44 -56 -29 0 -29 20 -1 70 26 44 36 41 45 -14z
m-1217 -21 c0 -8 -4 -15 -9 -15 -13 0 -22 16 -14 24 11 11 23 6 23 -9z m1449
-120 c-11 -71 -29 -191 -42 -265 l-23 -135 -83 -43 c-46 -24 -88 -39 -92 -35
-4 4 -4 28 1 53 5 25 9 124 10 221 0 230 1 233 57 256 25 10 77 32 117 49 39
17 72 30 72 30 1 -1 -7 -59 -17 -131z m-559 76 c116 -16 272 -40 275 -43 2 -2
5 -119 7 -261 2 -208 0 -257 -10 -257 -23 0 -269 40 -286 46 -20 8 -31 49 -51
189 -9 61 -23 155 -31 210 -8 55 -17 108 -20 118 -5 14 -1 17 18 13 13 -3 57
-10 98 -15z m-890 -135 c0 -8 -4 -17 -9 -21 -12 -7 -24 12 -16 25 9 15 25 12
25 -4z m398 -162 c20 -6 22 -12 22 -78 0 -40 -2 -75 -5 -78 -5 -4 -148 17
-172 27 -8 3 -13 24 -13 59 0 87 2 90 79 82 36 -3 76 -9 89 -12z m1096 -126
c3 -29 6 -110 6 -180 0 -108 -2 -128 -15 -128 -23 0 -441 71 -743 126 -73 13
-138 24 -143 24 -5 0 -9 11 -9 24 0 19 8 27 33 35 17 6 57 27 87 45 58 37 70
37 70 3 0 -12 9 -36 20 -54 24 -40 71 -54 260 -78 127 -16 138 -16 185 0 133
46 205 100 205 156 0 30 19 79 30 79 4 0 10 -24 14 -52z m-664 -243 c296 -53
503 -88 625 -105 155 -23 468 -73 585 -95 41 -7 117 -21 168 -31 85 -15 117
-32 99 -50 -6 -7 -179 19 -372 56 -82 16 -179 32 -215 35 -36 4 -108 16 -160
26 -52 11 -142 24 -200 30 -58 6 -150 22 -205 35 -55 13 -112 24 -127 24 -14
0 -82 11 -150 24 -69 14 -162 30 -209 36 -90 12 -103 18 -94 42 6 16 25 14
255 -27z m1959 -147 c1 -26 -3 -38 -13 -38 -26 0 -37 75 -14 98 16 16 26 -7
27 -60z m-130 -55 c-32 -35 -168 -143 -180 -143 -5 0 -9 13 -9 29 0 34 38 68
140 125 68 37 89 33 49 -11z m-1174 -191 c38 -13 51 -22 53 -39 4 -29 1 -29
-69 8 -88 47 -79 63 16 31z m-81 -56 c31 -18 83 -42 116 -52 33 -11 60 -25 60
-31 0 -18 -17 -16 -81 6 -112 38 -183 84 -162 105 8 8 4 10 67 -28z m-206 -22
c12 -8 22 -24 22 -34 0 -16 -5 -18 -35 -13 -24 4 -49 0 -76 -12 -38 -18 -40
-18 -54 1 -20 27 -20 28 28 51 51 26 85 28 115 7z m-606 -34 l27 -39 -22 -16
c-20 -14 -24 -13 -56 19 l-35 35 25 20 c13 11 26 20 29 20 3 0 17 -17 32 -39z
m833 -63 c60 -31 101 -59 103 -69 4 -20 -18 -24 -46 -8 -9 5 -56 27 -104 49
-80 36 -101 55 -81 74 12 12 27 7 128 -46z m-625 0 c0 -20 -19 -33 -122 -86
-114 -59 -122 -62 -135 -45 -7 10 -10 21 -6 25 14 13 238 128 251 129 6 0 12
-10 12 -23z m198 -37 c2 -38 -3 -70 -16 -100 l-18 -44 -43 83 c-23 46 -39 86
-36 90 12 12 70 30 90 28 17 -2 20 -10 23 -57z m198 18 c-3 -13 -11 -47 -17
-75 -11 -47 -15 -53 -38 -53 -15 0 -40 -14 -64 -37 l-40 -38 7 30 c3 17 11 65
17 107 13 85 11 83 103 87 35 1 38 -1 32 -21z m185 -57 c39 -18 84 -35 100
-38 16 -3 29 -8 29 -12 0 -3 -13 -46 -29 -96 -17 -49 -33 -103 -36 -120 l-7
-30 -12 30 c-16 38 -74 90 -153 139 l-60 37 24 62 c13 34 29 73 34 87 l11 25
13 -26 c9 -17 38 -37 86 -58z m-514 -48 c24 -56 72 -167 96 -226 9 -22 9 -30
-1 -36 -13 -8 -283 44 -322 62 -34 17 -70 112 -49 132 18 18 220 125 237 125
7 0 25 -26 39 -57z m768 -19 c43 -28 23 -113 -35 -148 l-30 -17 0 39 c0 38 26
142 36 142 2 0 16 -7 29 -16z m-1137 -150 c10 -19 51 -50 118 -90 11 -7 15
-16 11 -28 -7 -16 -11 -16 -55 9 -26 15 -64 45 -84 67 -32 34 -38 48 -38 85 0
24 6 54 12 66 12 20 13 17 18 -33 3 -30 11 -65 18 -76z m718 46 c64 -32 147
-105 141 -124 -2 -6 -33 -16 -68 -23 -69 -13 -259 -17 -259 -6 0 12 72 147 88
166 20 23 29 22 98 -13z m504 -20 c0 -132 -291 -240 -646 -240 -153 0 -176 5
-172 33 3 19 9 20 153 18 236 -3 388 21 522 85 75 36 111 70 120 116 8 41 23
34 23 -12z m-862 -155 c2 -2 -6 -29 -17 -62 -13 -37 -23 -103 -27 -177 -5 -88
-11 -119 -21 -123 -20 -8 -134 28 -140 44 -7 19 25 291 37 314 10 17 18 18 88
12 42 -3 78 -7 80 -8z m-244 -125 c-3 -36 -10 -98 -15 -139 -9 -70 -8 -76 13
-99 13 -14 47 -35 76 -48 l52 -24 0 -62 c0 -35 7 -155 14 -267 13 -197 18
-220 48 -221 12 0 -15 509 -28 544 -5 13 1 16 29 16 61 0 67 15 67 161 l0 129
43 0 44 0 6 -442 c4 -243 9 -443 12 -446 2 -2 11 -2 20 1 13 6 15 57 15 427 0
276 -4 428 -11 441 -10 19 -7 20 87 17 l97 -3 1 -464 1 -464 -130 7 c-71 3
-150 11 -174 16 -81 19 -198 70 -236 103 l-37 33 -24 244 c-13 135 -30 317
-38 405 -9 88 -16 176 -16 196 l0 37 44 -16 45 -16 -5 -66z m1033 53 c-4 -27
-11 -111 -17 -188 -46 -637 -47 -650 -83 -683 -53 -48 -231 -112 -313 -112
-21 0 -23 3 -17 33 4 17 7 224 7 458 l1 426 95 16 c52 8 97 13 99 11 2 -1 -2
-47 -8 -101 -6 -54 -16 -219 -21 -368 -6 -148 -13 -298 -17 -332 -5 -54 -3
-64 12 -69 9 -4 20 -2 25 5 4 7 10 74 13 149 4 75 11 220 17 322 6 102 10 233
8 292 l-3 106 80 31 c44 18 87 36 95 41 28 18 33 10 27 -37z m-2407 -819 c190
-22 254 -36 258 -56 2 -9 -8 -24 -22 -34 -24 -15 -34 -15 -157 0 -160 21 -289
58 -289 85 0 25 8 30 43 25 18 -2 93 -11 167 -20z m-244 -21 c-1 -17 10 -25
109 -69 l60 -27 -70 -13 c-38 -7 -86 -15 -106 -19 -34 -7 -37 -5 -77 49 -64
85 -65 84 15 89 37 1 69 4 69 5 1 1 1 -6 0 -15z m550 -90 c-3 -32 -10 -110
-15 -173 -6 -63 -10 -117 -10 -119 -1 -2 -4 -1 -7 2 -4 3 -16 63 -28 132 l-22
126 23 5 c26 7 43 32 43 63 0 12 5 21 11 21 8 0 10 -18 5 -57z m-744 17 c30
-26 31 -29 12 -30 -26 0 -84 20 -84 29 0 9 22 31 32 31 4 0 22 -13 40 -30z
m146 -149 c3 -21 1 -23 -20 -17 -12 3 -63 15 -113 26 -113 25 -135 35 -135 58
0 18 7 18 133 -12 121 -29 132 -34 135 -55z m444 52 c24 -59 61 -221 55 -237
-3 -8 -41 -26 -84 -40 l-79 -26 -47 20 c-36 16 -57 19 -100 14 l-55 -6 -22 58
c-37 101 -54 192 -41 221 11 24 15 25 69 20 31 -2 80 -1 107 3 28 4 80 8 116
9 l67 1 14 -37z m234 -107 c16 -13 40 -33 54 -44 l24 -20 -39 -19 c-85 -43
-85 -43 -85 36 0 39 4 71 8 71 5 0 21 -11 38 -24z m-731 -10 l70 -12 32 -88
c17 -49 36 -93 43 -100 6 -6 43 -11 83 -11 73 0 130 -19 139 -47 3 -9 19 -5
56 15 28 15 77 37 108 47 31 11 63 25 70 31 21 17 20 -154 -1 -174 -35 -36
-232 -97 -312 -97 -64 0 -268 42 -317 65 -42 20 -42 21 -56 154 -14 143 -13
231 3 230 6 0 44 -6 82 -13z"/>
<path d="M5293 6163 c9 -2 25 -2 35 0 9 3 1 5 -18 5 -19 0 -27 -2 -17 -5z"/>
<path d="M6185 6110 c-3 -5 -1 -10 4 -10 6 0 11 5 11 10 0 6 -2 10 -4 10 -3 0
-8 -4 -11 -10z"/>
<path d="M6216 6112 c-6 -9 121 -23 204 -21 45 1 45 1 11 9 -59 14 -208 23
-215 12z"/>
<path d="M7180 5962 c0 -22 5 -44 10 -47 7 -4 8 8 4 37 -9 57 -14 61 -14 10z"/>
<path d="M7306 5991 c-3 -4 1 -17 9 -27 14 -18 14 -18 15 9 0 26 -13 36 -24
18z"/>
<path d="M7300 5896 c0 -17 27 -29 35 -16 4 6 3 15 0 20 -9 15 -35 12 -35 -4z"/>
<path d="M7244 5866 c-4 -9 -4 -20 0 -23 3 -4 12 -1 18 5 9 9 9 15 0 24 -9 9
-13 7 -18 -6z"/>
<path d="M7180 5830 c0 -5 5 -10 11 -10 5 0 7 5 4 10 -3 6 -8 10 -11 10 -2 0
-4 -4 -4 -10z"/>
<path d="M7317 5833 c-11 -10 -8 -43 3 -43 6 0 10 11 10 25 0 26 -2 29 -13 18z"/>
<path d="M7240 5774 c0 -9 5 -14 12 -12 18 6 21 28 4 28 -9 0 -16 -7 -16 -16z"/>
<path d="M7302 5728 c3 -7 13 -15 22 -16 12 -3 17 1 14 10 -3 7 -13 15 -22 16
-12 3 -17 -1 -14 -10z"/>
<path d="M7240 5690 c0 -5 5 -10 10 -10 6 0 10 5 10 10 0 6 -4 10 -10 10 -5 0
-10 -4 -10 -10z"/>
<path d="M7313 5653 c-20 -7 -15 -23 7 -23 11 0 20 4 20 9 0 13 -12 19 -27 14z"/>
<path d="M7180 5640 c0 -5 5 -10 11 -10 5 0 7 5 4 10 -3 6 -8 10 -11 10 -2 0
-4 -4 -4 -10z"/>
<path d="M7237 5613 c-13 -12 -7 -23 13 -23 11 0 20 7 20 15 0 15 -21 21 -33
8z"/>
<path d="M7302 5554 c2 -11 11 -20 22 -22 13 -3 17 1 14 14 -2 11 -11 20 -22
22 -13 3 -17 -1 -14 -14z"/>
<path d="M7240 5510 c0 -11 5 -20 10 -20 6 0 10 9 10 20 0 11 -4 20 -10 20 -5
0 -10 -9 -10 -20z"/>
<path d="M7304 5469 c-7 -12 15 -31 28 -23 4 3 8 12 8 20 0 17 -26 19 -36 3z"/>
<path d="M7243 5433 c-18 -6 -16 -33 1 -33 19 0 31 19 20 30 -5 4 -15 5 -21 3z"/>
<path d="M7306 5383 c-13 -14 -5 -33 14 -33 11 0 20 6 20 14 0 15 -24 28 -34
19z"/>
<path d="M7240 5321 c0 -12 6 -21 16 -21 9 0 14 7 12 17 -5 25 -28 28 -28 4z"/>
<path d="M7302 5274 c1 -9 9 -19 16 -22 9 -3 13 2 10 14 -1 9 -9 19 -16 22 -9
3 -13 -2 -10 -14z"/>
<path d="M7240 5226 c0 -9 7 -16 16 -16 9 0 14 5 12 12 -6 18 -28 21 -28 4z"/>
<path d="M7297 5194 c-11 -11 3 -24 24 -24 12 0 19 5 17 13 -5 14 -31 21 -41
11z"/>
<path d="M7252 5140 c0 -14 2 -19 5 -12 2 6 2 18 0 25 -3 6 -5 1 -5 -13z"/>
<path d="M7300 5110 c0 -5 12 -10 26 -10 14 0 23 4 19 10 -3 6 -15 10 -26 10
-10 0 -19 -4 -19 -10z"/>
<path d="M7245 5071 c-3 -5 -1 -12 5 -16 5 -3 10 1 10 9 0 18 -6 21 -15 7z"/>
<path d="M7305 5031 c-8 -15 3 -31 21 -31 9 0 14 7 12 17 -4 20 -24 28 -33 14z"/>
<path d="M7245 4990 c-7 -12 2 -30 16 -30 12 0 12 27 0 35 -5 3 -12 1 -16 -5z"/>
<path d="M7304 4939 c-10 -17 13 -36 27 -22 12 12 4 33 -11 33 -5 0 -12 -5
-16 -11z"/>
<path d="M7242 4888 c6 -18 28 -21 28 -4 0 9 -7 16 -16 16 -9 0 -14 -5 -12
-12z"/>
<path d="M7307 4848 c-6 -19 4 -49 15 -46 5 2 9 7 9 11 -1 4 -1 16 -1 27 0 22
-16 27 -23 8z"/>
<path d="M7250 4801 c0 -25 6 -27 13 -6 4 8 2 17 -3 20 -6 4 -10 -3 -10 -14z"/>
<path d="M7247 4726 c-4 -10 -5 -21 -2 -24 9 -9 17 6 13 25 -3 17 -4 17 -11
-1z"/>
<path d="M7310 4710 c0 -16 5 -30 10 -30 6 0 10 14 10 30 0 17 -4 30 -10 30
-5 0 -10 -13 -10 -30z"/>
<path d="M7240 4594 c0 -14 4 -23 10 -19 6 3 10 15 10 26 0 10 -4 19 -10 19
-5 0 -10 -12 -10 -26z"/>
<path d="M7310 4605 c0 -8 5 -15 10 -15 6 0 10 7 10 15 0 8 -4 15 -10 15 -5 0
-10 -7 -10 -15z"/>
<path d="M7305 4540 c-7 -12 2 -30 16 -30 5 0 9 9 9 20 0 21 -15 27 -25 10z"/>
<path d="M7247 4514 c-8 -8 3 -34 14 -34 11 0 12 27 0 34 -4 3 -11 3 -14 0z"/>
<path d="M7304 4434 c3 -9 6 -18 6 -20 0 -2 5 -4 10 -4 6 0 10 9 10 20 0 12
-7 20 -16 20 -11 0 -14 -5 -10 -16z"/>
<path d="M7240 4400 c0 -19 11 -26 23 -14 8 8 -3 34 -14 34 -5 0 -9 -9 -9 -20z"/>
<path d="M7300 4356 c0 -21 20 -30 33 -17 9 9 8 14 -3 21 -21 14 -30 12 -30
-4z"/>
<path d="M7242 4311 c4 -13 18 -16 19 -4 0 4 -5 9 -11 12 -7 2 -11 -2 -8 -8z"/>
<path d="M7300 4271 c0 -5 6 -14 14 -20 16 -13 32 2 21 19 -8 12 -35 13 -35 1z"/>
<path d="M7240 4215 c0 -9 5 -15 11 -13 6 2 11 8 11 13 0 5 -5 11 -11 13 -6 2
-11 -4 -11 -13z"/>
<path d="M7295 4181 c-3 -5 4 -13 16 -16 23 -8 34 -1 24 14 -8 13 -32 14 -40
2z"/>
<path d="M7240 4125 c0 -8 5 -15 10 -15 6 0 10 7 10 15 0 8 -4 15 -10 15 -5 0
-10 -7 -10 -15z"/>
<path d="M7295 4100 c-8 -12 20 -24 35 -15 6 3 8 11 5 16 -8 12 -32 12 -40 -1z"/>
<path d="M7237 4046 c-6 -16 2 -28 14 -20 12 7 11 34 0 34 -5 0 -11 -6 -14
-14z"/>
<path d="M7307 4013 c-12 -11 -8 -23 8 -23 8 0 15 7 15 15 0 16 -12 20 -23 8z"/>
<path d="M7240 3949 c0 -11 5 -17 10 -14 6 3 10 13 10 21 0 8 -4 14 -10 14 -5
0 -10 -9 -10 -21z"/>
<path d="M7297 3923 c-8 -7 11 -33 24 -33 5 0 9 9 9 20 0 19 -20 27 -33 13z"/>
<path d="M7240 3849 c0 -11 5 -17 10 -14 6 3 10 13 10 21 0 8 -4 14 -10 14 -5
0 -10 -9 -10 -21z"/>
<path d="M7300 3809 c0 -24 23 -21 28 4 2 10 -3 17 -12 17 -10 0 -16 -9 -16
-21z"/>
<path d="M7251 3774 c0 -11 3 -14 6 -6 3 7 2 16 -1 19 -3 4 -6 -2 -5 -13z"/>
<path d="M7302 3714 c4 -21 22 -23 26 -1 2 10 -3 17 -13 17 -10 0 -15 -6 -13
-16z"/>
<path d="M7230 3681 c0 -12 6 -21 15 -21 8 0 15 4 15 9 0 5 -7 14 -15 21 -13
10 -15 9 -15 -9z"/>
<path d="M7301 3627 c-12 -15 -5 -27 16 -27 7 0 13 9 13 20 0 23 -13 26 -29 7z"/>
<path d="M7230 3576 c0 -22 17 -28 24 -10 9 22 8 24 -9 24 -8 0 -15 -6 -15
-14z"/>
<path d="M7297 3523 c-13 -12 -7 -23 13 -23 11 0 20 7 20 15 0 15 -21 21 -33
8z"/>
<path d="M7236 3475 c-10 -28 -7 -45 9 -45 12 0 14 7 9 28 -9 35 -10 36 -18
17z"/>
<path d="M7300 3414 c-9 -10 -10 -18 -2 -26 12 -12 32 -2 32 17 0 21 -16 26
-30 9z"/>
<path d="M7235 3350 c-7 -12 2 -30 16 -30 12 0 12 27 0 35 -5 3 -12 1 -16 -5z"/>
<path d="M7300 3304 c-9 -10 -10 -18 -2 -26 12 -12 32 -2 32 17 0 21 -16 26
-30 9z"/>
<path d="M7232 3248 c6 -18 28 -21 28 -4 0 9 -7 16 -16 16 -9 0 -14 -5 -12
-12z"/>
<path d="M7300 3209 c0 -24 23 -21 28 4 2 10 -3 17 -12 17 -10 0 -16 -9 -16
-21z"/>
<path d="M7247 3173 c-4 -3 -7 -13 -7 -22 1 -13 3 -13 11 2 11 19 8 33 -4 20z"/>
<path d="M7302 3118 c2 -13 8 -23 13 -23 6 0 11 10 13 23 2 15 -2 22 -13 22
-11 0 -15 -7 -13 -22z"/>
<path d="M7240 3081 c0 -12 5 -21 10 -21 6 0 10 6 10 14 0 8 -4 18 -10 21 -5
3 -10 -3 -10 -14z"/>
<path d="M7311 2975 c1 -40 1 -40 11 -12 7 21 7 32 -1 40 -8 8 -11 0 -10 -28z"/>
<path d="M7240 2974 c0 -14 4 -23 10 -19 6 3 10 15 10 26 0 10 -4 19 -10 19
-5 0 -10 -12 -10 -26z"/>
<path d="M7182 2888 c6 -18 28 -21 28 -4 0 9 -7 16 -16 16 -9 0 -14 -5 -12
-12z"/>
<path d="M5228 4453 c7 -3 16 -2 19 1 4 3 -2 6 -13 5 -11 0 -14 -3 -6 -6z"/>
<path d="M5230 4370 c0 -5 5 -10 11 -10 5 0 7 5 4 10 -3 6 -8 10 -11 10 -2 0
-4 -4 -4 -10z"/>
<path d="M5220 4290 c0 -5 10 -10 23 -10 18 0 19 2 7 10 -19 13 -30 13 -30 0z"/>
<path d="M5222 4199 c2 -7 10 -15 17 -17 8 -3 12 1 9 9 -2 7 -10 15 -17 17 -8
3 -12 -1 -9 -9z"/>
<path d="M5290 4161 c0 -5 5 -13 10 -16 6 -3 10 -2 10 4 0 5 -4 13 -10 16 -5
3 -10 2 -10 -4z"/>
<path d="M5225 4100 c4 -6 11 -8 16 -5 14 9 11 15 -7 15 -8 0 -12 -5 -9 -10z"/>
<path d="M5220 4010 c0 -5 5 -10 10 -10 6 0 10 5 10 10 0 6 -4 10 -10 10 -5 0
-10 -4 -10 -10z"/>
<path d="M6275 4411 c-40 -12 -56 -28 -61 -63 -5 -28 -2 -39 16 -55 39 -37
107 -36 132 1 16 23 8 73 -14 93 -29 25 -47 31 -73 24z m43 -74 c4 -20 -25
-34 -40 -19 -15 15 -1 44 19 40 10 -2 19 -11 21 -21z"/>
<path d="M4340 4406 c0 -2 7 -7 16 -10 8 -3 12 -2 9 4 -6 10 -25 14 -25 6z"/>
<path d="M5448 3503 c9 -16 25 -22 84 -27 40 -3 102 -9 138 -12 106 -10 60 14
-60 31 -58 8 -120 17 -139 21 -31 7 -33 6 -23 -13z"/>
<path d="M6182 1800 c0 -14 2 -19 5 -12 2 6 2 18 0 25 -3 6 -5 1 -5 -13z"/>
<path d="M6116 1774 c-9 -24 -7 -54 4 -54 6 0 10 16 10 35 0 38 -4 44 -14 19z"/>
<path d="M6170 1735 c0 -14 5 -25 10 -25 6 0 10 11 10 25 0 14 -4 25 -10 25
-5 0 -10 -11 -10 -25z"/>
<path d="M5902 1710 c0 -14 2 -19 5 -12 2 6 2 18 0 25 -3 6 -5 1 -5 -13z"/>
<path d="M6104 1665 c-3 -8 -3 -19 1 -25 11 -18 25 -11 25 15 0 27 -17 34 -26
10z"/>
<path d="M6170 1651 c0 -17 5 -31 10 -31 6 0 10 11 10 24 0 14 -4 28 -10 31
-6 4 -10 -7 -10 -24z"/>
<path d="M6100 1559 c0 -27 2 -30 15 -19 8 7 15 21 15 31 0 11 -7 19 -15 19
-10 0 -15 -10 -15 -31z"/>
<path d="M6166 1561 c-4 -7 -5 -15 -2 -18 9 -9 19 4 14 18 -4 11 -6 11 -12 0z"/>
<path d="M6100 1460 c0 -19 11 -26 23 -14 8 8 -3 34 -14 34 -5 0 -9 -9 -9 -20z"/>
<path d="M6140 1261 c0 -5 5 -13 10 -16 6 -3 10 -2 10 4 0 5 -4 13 -10 16 -5
3 -10 2 -10 -4z"/>
<path d="M6075 1200 c-3 -5 -1 -10 4 -10 6 0 11 5 11 10 0 6 -2 10 -4 10 -3 0
-8 -4 -11 -10z"/>
<path d="M6140 1158 c0 -19 2 -20 10 -8 13 19 13 30 0 30 -5 0 -10 -10 -10
-22z"/>
<path d="M6066 1131 c-3 -5 1 -14 9 -21 13 -10 15 -9 15 9 0 21 -14 28 -24 12z"/>
<path d="M6130 1064 c0 -14 4 -23 10 -19 6 3 10 15 10 26 0 10 -4 19 -10 19
-5 0 -10 -12 -10 -26z"/>
<path d="M6067 1053 c-11 -10 -8 -73 3 -73 6 0 10 18 10 40 0 41 -2 45 -13 33z"/>
<path d="M5883 950 c0 -25 2 -35 4 -22 2 12 2 32 0 45 -2 12 -4 2 -4 -23z"/>
<path d="M3786 455 c-11 -31 -19 -145 -9 -145 5 0 11 24 11 53 1 28 5 64 8 80
6 29 0 37 -10 12z"/>
<path d="M6964 6579 c-12 -20 22 -40 86 -49 88 -12 421 -24 454 -16 34 8 37
46 4 46 -13 0 -126 7 -253 15 -279 18 -282 18 -291 4z"/>
<path d="M3503 6544 c-3 -9 -1 -38 6 -66 16 -72 17 -71 -41 -65 -351 40 -390
42 -446 30 -31 -6 -88 -19 -127 -27 -38 -8 -100 -30 -137 -48 l-66 -33 -7 -73
c-9 -92 0 -144 30 -172 23 -22 23 -22 7 -67 -14 -37 -25 -49 -64 -69 -77 -39
-55 -60 31 -29 37 13 50 13 112 0 39 -8 89 -15 112 -15 22 0 98 -7 168 -17
l126 -16 54 31 c30 17 89 44 131 60 l77 30 6 -47 c15 -107 20 -110 182 -114
89 -2 105 0 130 19 15 11 33 31 40 44 7 14 30 29 62 40 l51 17 -3 -73 c-1 -42
3 -78 9 -84 6 -6 50 -15 99 -21 83 -9 90 -12 122 -46 20 -20 30 -40 26 -44 -5
-5 -67 0 -144 11 -274 42 -505 70 -774 95 -93 9 -233 22 -310 29 -77 8 -185
17 -240 20 -55 4 -121 9 -147 12 -46 6 -48 5 -48 -19 0 -14 4 -28 9 -31 8 -5
129 -18 566 -61 88 -9 216 -23 285 -30 477 -55 582 -68 640 -80 36 -7 99 -16
140 -20 82 -7 100 -2 429 124 146 55 166 68 174 108 10 54 -6 62 -173 83 -52
6 -110 16 -127 21 l-33 11 0 121 c0 142 -7 175 -50 224 -28 31 -31 41 -26 73
9 59 -16 82 -93 88 -61 4 -61 4 -72 -26 -10 -29 -11 -30 -40 -15 -16 8 -53 17
-83 20 -65 7 -71 -1 -82 -97 -4 -37 -19 -91 -36 -125 -25 -53 -28 -71 -28
-155 l0 -95 -56 -1 -57 -1 6 126 c3 86 10 138 21 164 11 24 16 58 14 90 l-3
52 -57 3 c-32 2 -58 7 -58 13 0 5 9 27 20 49 28 54 25 67 -16 80 -28 10 -41
10 -59 0 -17 -9 -28 -9 -43 -1 -33 18 -131 14 -139 -5z m98 -64 c12 -40 7 -62
-11 -44 -5 5 -12 29 -16 53 -9 55 10 49 27 -9z m-471 -70 c-8 -5 -31 -9 -50
-9 l-35 2 35 7 c19 4 42 8 50 9 13 1 13 0 0 -9z m1170 -54 c0 -45 -3 -55 -19
-59 -23 -6 -31 10 -31 62 0 42 5 51 32 51 15 0 18 -8 18 -54z m-188 23 c19
-10 20 -17 13 -78 -3 -36 -6 -154 -5 -263 0 -108 -3 -199 -8 -202 -5 -3 -32
-3 -61 1 l-51 6 0 168 c0 152 2 170 19 186 12 12 23 45 31 93 18 112 18 112
62 89z m-703 -66 c6 -31 9 -58 7 -61 -6 -6 -167 -52 -182 -52 -7 0 -9 10 -7
24 4 18 14 27 37 31 79 16 126 37 126 56 0 23 -14 24 -96 2 -69 -18 -81 -15
-65 15 11 20 73 38 137 41 30 1 32 -1 43 -56z m-276 27 c44 0 47 -2 47 -26 0
-25 -2 -26 -42 -20 -24 3 -88 8 -143 11 -116 7 -186 15 -199 23 -24 15 41 22
159 17 72 -3 151 -5 178 -5z m667 -10 c0 -39 -16 -45 -132 -48 -62 -2 -131 1
-153 5 -34 7 -41 13 -43 36 l-3 28 165 -3 c140 -3 166 -5 166 -18z m-814 -80
l174 0 12 -25 c6 -14 8 -28 5 -32 -4 -3 -73 -1 -155 5 -88 7 -161 8 -182 3
-19 -5 -32 -9 -28 -10 4 -1 53 -10 110 -20 57 -11 138 -23 181 -27 59 -5 77
-10 77 -22 0 -13 -17 -14 -122 -9 -187 9 -301 43 -311 93 -8 43 2 57 36 50 16
-3 108 -6 203 -6z m1372 -7 c5 -10 12 -88 16 -174 5 -120 3 -159 -6 -166 -7
-6 -37 -15 -65 -20 l-53 -10 0 81 c0 45 -3 132 -7 194 l-6 112 56 0 c44 0 58
-4 65 -17z m-603 -180 c-5 -105 -12 -171 -19 -176 -11 -8 -122 -2 -163 9 -26
7 -30 20 -43 169 -6 66 -13 130 -15 143 -5 22 -5 22 121 22 l126 0 -7 -167z
m-298 102 c-1 -1 -45 -11 -97 -24 -52 -12 -103 -25 -112 -27 -22 -6 -24 18 -4
35 8 7 52 21 98 32 45 11 87 24 93 30 6 6 12 0 17 -18 4 -15 6 -27 5 -28z
m724 -316 c-12 -31 -14 77 -3 201 l7 85 3 -131 c1 -72 -2 -142 -7 -155z m-718
244 c3 -16 0 -33 -6 -39 -11 -10 -193 -74 -210 -74 -4 0 -7 18 -7 39 l0 39 68
16 c38 8 84 22 103 30 45 20 46 20 52 -11z m-548 -18 c55 -8 123 -15 151 -15
110 0 127 -14 116 -90 l-5 -32 -51 7 c-28 4 -118 15 -201 24 l-150 17 -3 52
c-4 61 -11 59 143 37z m1692 -201 c23 -3 46 -11 53 -18 9 -11 -3 -19 -57 -39
-37 -14 -117 -44 -178 -67 -129 -49 -183 -65 -192 -56 -7 7 -6 113 1 125 3 4
40 14 83 21 43 7 94 21 113 31 35 17 57 17 177 3z"/>
<path d="M6948 6447 c8 -9 28 -20 45 -26 61 -19 243 -40 400 -46 152 -5 157
-5 157 15 0 12 -8 21 -22 24 -38 7 -376 37 -488 43 -96 6 -104 5 -92 -10z"/>
<path d="M2147 6389 c-10 -6 -22 -22 -27 -35 -8 -19 -17 -24 -44 -24 -35 0
-66 -21 -66 -44 0 -8 -7 -19 -16 -27 -8 -7 -25 -31 -37 -53 -18 -36 -21 -57
-20 -159 2 -116 1 -118 -27 -150 -20 -23 -55 -43 -114 -65 -46 -18 -112 -51
-145 -73 -79 -53 -212 -196 -264 -284 -23 -38 -63 -97 -88 -131 -91 -121 -90
-212 7 -365 53 -83 96 -131 141 -158 17 -10 16 -13 -12 -33 -54 -41 -65 -57
-65 -94 0 -31 4 -37 31 -47 19 -8 28 -17 26 -27 -38 -124 -41 -147 -27 -206 7
-32 17 -64 22 -70 16 -22 29 -163 35 -401 l6 -242 -37 -71 c-41 -77 -86 -238
-86 -305 l0 -42 107 -22 c59 -12 119 -29 134 -37 16 -8 35 -14 43 -14 33 0
185 477 186 582 0 15 -13 83 -29 150 -16 68 -39 168 -50 223 -45 216 -57 239
-112 228 -26 -5 -29 -3 -29 18 0 13 5 44 11 69 6 25 11 82 11 127 l1 82 24
-10 c52 -20 61 -29 68 -71 19 -122 66 -377 75 -403 5 -16 16 -70 26 -120 26
-139 94 -353 94 -294 0 10 56 28 206 64 114 28 208 55 211 61 2 6 -16 72 -41
145 -120 359 -168 559 -167 690 0 53 5 108 11 123 5 15 8 32 4 37 -6 10 26 89
37 89 10 0 79 -136 79 -157 0 -12 67 -84 175 -188 97 -92 181 -177 187 -188
14 -28 -82 50 -216 173 -107 98 -156 155 -156 183 0 7 -18 25 -40 40 l-40 26
0 -27 c0 -66 60 -132 323 -360 59 -51 120 -112 137 -135 16 -23 63 -77 103
-119 60 -64 79 -78 104 -78 25 0 54 -24 190 -162 200 -204 581 -572 733 -708
176 -158 705 -692 799 -807 46 -57 96 -111 112 -121 l28 -18 -177 -110 c-97
-61 -260 -165 -362 -231 -174 -112 -341 -215 -507 -312 -81 -47 -99 -76 -35
-59 20 6 50 17 66 25 129 66 843 514 1028 645 53 37 104 78 113 90 33 48 11
85 -86 144 -61 38 -372 329 -673 630 -133 132 -290 287 -351 344 -60 57 -242
233 -403 392 -161 158 -298 288 -303 288 -7 0 -8 12 -4 31 14 64 -12 114 -107
210 -93 95 -169 192 -233 299 -21 36 -66 108 -99 160 -86 137 -132 242 -167
387 -62 259 -84 310 -159 375 -54 46 -66 75 -27 64 78 -24 93 -21 145 28 27
25 54 46 60 46 17 0 42 42 42 70 0 14 9 44 20 68 14 32 25 42 42 42 45 0 65
25 72 87 13 123 14 116 -21 125 -27 7 -34 16 -44 51 -15 51 -26 67 -48 67 -9
0 -32 9 -51 20 -72 42 -117 58 -180 63 -37 3 -73 1 -83 -4z m33 -338 c5 -11
10 -31 10 -46 0 -39 27 -42 64 -6 17 17 38 31 45 31 7 0 29 7 47 16 46 22 89
6 81 -29 -23 -90 -57 -158 -100 -201 -60 -59 -85 -60 -140 -6 -22 22 -41 39
-42 38 -1 -2 -9 -23 -17 -48 -9 -27 -21 -44 -29 -43 -8 1 -39 6 -69 12 -30 6
-77 14 -105 17 -44 6 -47 8 -30 18 11 6 43 34 70 63 46 48 55 53 107 59 55 6
56 7 47 31 -14 37 -11 58 12 87 24 31 35 33 49 7z m-320 -303 c30 -10 87 -22
125 -28 106 -16 107 -19 47 -85 -65 -71 -88 -141 -101 -310 -6 -66 -15 -133
-20 -150 -6 -16 -15 -68 -20 -115 l-9 -85 -70 -65 c-60 -56 -211 -150 -243
-150 -5 0 -16 11 -24 24 -15 22 -15 42 0 218 30 367 82 585 169 710 18 25 67
59 81 55 6 -1 35 -10 65 -19z m-294 -219 c-20 -62 -36 -119 -36 -127 0 -20
-23 0 -51 44 l-21 34 32 38 c17 20 47 58 67 84 20 26 39 46 41 44 2 -2 -13
-55 -32 -117z m611 87 c44 -37 79 -111 108 -225 14 -56 28 -108 31 -115 3 -8
-12 -19 -43 -31 -26 -10 -70 -28 -97 -41 -27 -13 -53 -21 -57 -18 -17 10 -37
59 -54 132 -20 81 -38 90 -43 21 -4 -54 -18 -72 -28 -35 -19 78 22 224 82 294
41 48 61 52 101 18z m-724 -226 c10 -16 27 -35 38 -40 22 -12 23 -21 8 -74
l-11 -38 -44 7 c-24 3 -44 4 -44 1 0 -3 18 -15 41 -26 34 -18 39 -23 28 -36
-9 -11 -26 -15 -56 -12 -39 3 -43 1 -41 -17 2 -16 14 -22 57 -28 l53 -9 -4
-114 c-2 -64 -9 -119 -15 -125 -8 -8 -25 7 -62 57 -102 139 -132 235 -96 305
15 28 17 28 39 14 28 -19 42 -6 26 24 -5 11 -10 26 -10 33 0 18 57 108 68 108
4 0 16 -13 25 -30z m560 -161 c32 -69 34 -62 -45 -166 -61 -80 -67 -75 -45 31
24 112 48 196 56 196 3 0 19 -27 34 -61z m327 -48 c5 -11 10 -28 10 -38 0 -10
11 -40 25 -68 13 -27 25 -56 25 -62 0 -14 -117 -76 -129 -69 -4 3 -16 26 -26
51 -9 25 -30 60 -46 78 -43 47 -38 60 39 95 80 37 88 38 102 13z m189 -377
c141 -227 211 -323 270 -372 91 -77 119 -107 127 -136 10 -43 -1 -41 -46 8
-24 25 -47 46 -53 46 -10 0 -5 -71 8 -102 5 -14 2 -18 -13 -18 -39 0 -115 108
-147 210 -16 47 -36 73 -150 190 -155 158 -229 246 -221 265 3 8 29 30 58 50
62 42 43 59 167 -141z m-1062 -89 c-4 -8 -11 -15 -17 -15 -14 0 -13 27 3 33
16 6 21 1 14 -18z m68 -186 c-8 -41 -15 -89 -15 -107 0 -33 -23 -54 -39 -36
-8 8 39 190 55 215 14 23 14 -3 -1 -72z m546 -46 c53 -6 64 -19 24 -29 -26 -7
-75 7 -112 31 -34 23 -28 38 8 20 16 -9 52 -19 80 -22z m1112 -541 c139 -136
293 -285 342 -332 50 -46 323 -314 609 -595 403 -397 526 -512 552 -518 42
-11 43 -20 2 -48 l-31 -23 -16 25 c-41 62 -497 520 -986 989 -634 608 -755
727 -755 745 0 27 70 -32 283 -243z m-1588 -332 c3 -5 1 -10 -4 -10 -6 0 -11
5 -11 10 0 6 2 10 4 10 3 0 8 -4 11 -10z"/>
<path d="M2345 5959 c-11 -17 0 -20 21 -4 17 13 17 14 2 15 -9 0 -20 -5 -23
-11z"/>
<path d="M1165 6344 c-44 -8 -107 -21 -140 -29 -33 -8 -116 -26 -185 -39 -69
-14 -154 -32 -190 -40 -36 -8 -92 -20 -125 -27 -33 -6 -85 -19 -115 -29 l-55
-17 -3 -746 c-2 -733 -2 -747 18 -767 47 -47 75 -42 500 94 290 92 390 131
390 152 0 21 -25 17 -120 -15 -123 -42 -569 -179 -608 -186 -32 -7 -33 -6 -23
13 7 13 32 27 68 37 32 9 101 29 153 45 52 16 149 45 215 64 210 61 284 89
285 109 0 25 -36 22 -143 -13 -51 -16 -148 -46 -217 -66 -187 -56 -302 -90
-327 -98 l-23 -7 0 623 0 624 40 -4 c22 -2 80 5 128 16 48 12 137 32 197 46
61 14 151 37 200 50 50 13 102 26 118 30 l27 6 0 -207 c0 -277 11 -583 21
-583 27 0 31 54 30 434 -1 215 -6 395 -10 399 -8 8 -85 -9 -531 -118 -118 -29
-218 -51 -222 -48 -10 5 -10 65 0 78 9 14 64 28 257 70 342 74 442 95 491 101
l51 6 6 -173 c4 -96 7 -271 7 -389 l0 -215 28 28 27 27 0 371 0 371 -24 19
c-28 23 -80 24 -196 3z m-711 -306 c3 -50 6 -374 6 -719 0 -618 -2 -661 -31
-632 -26 26 -20 1443 6 1443 8 0 14 -29 19 -92z"/>
<path d="M1050 6010 c-12 -8 -12 -10 5 -10 11 0 27 5 35 10 12 8 12 10 -5 10
-11 0 -27 -5 -35 -10z"/>
<path d="M868 5975 c-2 -3 -25 -9 -49 -14 -24 -5 -68 -14 -98 -20 -58 -12 -87
-29 -73 -43 8 -8 143 15 164 28 5 3 30 9 56 13 33 4 48 11 50 24 3 12 -3 17
-21 17 -13 0 -26 -2 -29 -5z"/>
<path d="M815 5874 c-88 -26 -140 -30 -151 -12 -5 7 -10 4 -16 -11 -13 -37 -1
-44 63 -37 70 7 189 35 207 49 18 14 15 37 -5 36 -10 -1 -54 -12 -98 -25z"/>
<path d="M870 5696 c-179 -45 -245 -66 -245 -76 0 -20 59 -16 150 10 39 11
136 38 218 60 163 43 176 48 156 61 -19 12 -8 14 -279 -55z"/>
<path d="M3211 5674 c0 -11 3 -14 6 -6 3 7 2 16 -1 19 -3 4 -6 -2 -5 -13z"/>
<path d="M3280 5664 c0 -8 5 -12 10 -9 6 3 10 10 10 16 0 5 -4 9 -10 9 -5 0
-10 -7 -10 -16z"/>
<path d="M3355 5660 c3 -5 8 -10 11 -10 2 0 4 5 4 10 0 6 -5 10 -11 10 -5 0
-7 -4 -4 -10z"/>
<path d="M873 5588 c-211 -52 -243 -62 -243 -79 0 -10 2 -19 4 -19 13 0 222
53 296 75 47 13 114 33 149 43 61 17 95 43 54 41 -10 0 -127 -28 -260 -61z"/>
<path d="M980 5518 c-74 -21 -184 -52 -244 -68 -116 -31 -138 -42 -118 -62 12
-12 26 -9 237 54 204 60 299 93 303 106 6 19 -31 13 -178 -30z"/>
<path d="M1010 5416 c-205 -48 -380 -105 -380 -124 0 -18 36 -12 175 28 55 16
153 44 218 62 111 31 149 51 102 55 -11 0 -63 -9 -115 -21z"/>
<path d="M955 5297 c-194 -52 -325 -98 -325 -114 0 -18 1 -18 136 21 65 19
172 49 238 67 65 18 128 41 140 51 21 17 21 17 -9 16 -16 0 -97 -19 -180 -41z"/>
<path d="M1090 5230 c-98 -21 -378 -105 -452 -135 -22 -9 -24 -45 -3 -45 8 0
84 22 168 50 83 27 197 62 252 77 73 21 101 33 103 46 4 19 -9 20 -68 7z"/>
<path d="M2198 4629 c-42 -24 -7 -65 47 -55 45 9 70 33 54 52 -13 16 -76 18
-101 3z"/>
<path d="M2902 4490 c22 -34 128 -60 371 -91 53 -7 97 -16 97 -21 0 -5 -39
-28 -87 -50 -84 -40 -88 -40 -164 -34 -84 7 -102 -1 -71 -32 13 -13 41 -22 85
-26 l66 -7 113 58 c88 46 115 64 122 86 15 42 -9 58 -111 73 -48 7 -128 20
-178 29 -115 21 -204 35 -233 35 -20 0 -21 -2 -10 -20z"/>
<path d="M2220 4460 c0 -26 25 -48 70 -60 43 -11 50 -25 70 -135 13 -67 32
-295 34 -397 0 -36 4 -69 7 -72 3 -3 31 0 61 6 68 14 168 3 418 -48 91 -18
186 -36 213 -40 61 -8 68 -20 16 -29 -47 -8 -218 -68 -326 -114 -82 -35 -124
-38 -240 -16 -99 19 -133 19 -133 1 0 -16 96 -41 213 -56 76 -9 75 -9 312 86
88 35 208 75 212 70 16 -15 -296 -151 -416 -182 -70 -17 -150 -14 -248 12 -69
18 -89 18 -97 -2 -10 -27 -7 -33 26 -50 27 -14 29 -17 14 -26 -11 -6 -21 -6
-30 1 -9 8 -16 -7 -30 -67 -10 -42 -22 -92 -26 -109 -5 -18 -7 -33 -5 -33 2 0
26 12 55 27 42 21 55 25 70 15 15 -9 20 -7 30 19 16 37 46 59 82 59 25 0 28
-4 28 -34 0 -40 -11 -51 -81 -75 -118 -40 -209 -96 -209 -127 0 -10 26 -2 83
25 34 15 73 32 87 36 14 4 47 18 73 32 l48 24 -3 -87 -3 -88 -59 -30 c-33 -17
-62 -37 -64 -43 -6 -21 47 -15 85 8 39 24 37 25 49 -21 7 -25 15 -35 29 -35
19 0 20 12 30 254 8 202 13 255 24 259 12 4 13 -36 10 -259 l-4 -264 22 -3
c27 -4 32 12 35 113 l3 70 87 50 c84 48 148 99 137 109 -3 3 -54 -19 -114 -49
-60 -30 -109 -55 -110 -55 0 0 1 38 3 85 3 81 5 85 26 85 15 0 27 -9 34 -25
13 -28 37 -33 50 -9 8 14 18 14 87 4 120 -18 117 -16 136 -106 31 -138 38
-126 -113 -198 -141 -66 -174 -90 -142 -103 12 -4 62 16 155 65 l137 71 15
-22 14 -22 21 33 c11 19 30 41 42 49 21 15 22 21 16 86 -4 39 -9 80 -12 92 -4
18 0 25 25 33 l31 11 0 -74 c0 -90 5 -105 36 -105 13 0 24 1 25 3 0 1 3 40 6
87 3 47 6 86 8 88 1 1 93 -16 205 -38 112 -22 212 -40 222 -40 17 0 17 2 3 24
-21 31 -50 41 -210 72 -183 35 -219 44 -227 57 -4 6 -5 75 -2 153 5 138 5 143
-16 154 -47 25 -50 13 -50 -175 l0 -175 -26 -10 c-33 -13 -41 -7 -54 38 -9 32
-60 258 -60 267 0 1 14 8 30 15 64 26 77 81 32 131 -25 28 -42 34 -163 60 -73
16 -168 33 -208 39 -108 15 -224 40 -236 51 -6 6 1 8 20 4 17 -3 72 -9 124
-15 52 -5 141 -21 198 -36 111 -28 161 -27 144 4 -18 32 -243 263 -271 277
-15 8 -67 19 -116 25 -49 6 -105 15 -124 20 -19 4 -59 11 -87 15 -47 6 -53 9
-53 31 0 29 -1 29 146 4 65 -11 119 -18 121 -16 2 2 1 10 -3 19 -8 23 -87 45
-189 53 l-85 7 -10 41 c-27 103 -53 132 -134 151 -52 12 -56 12 -56 -5z m909
-1060 c16 -80 40 -191 52 -248 12 -56 19 -105 15 -109 -13 -13 -11 -16 -66
212 -32 130 -60 281 -55 294 11 29 24 -6 54 -149z m-111 78 c8 -32 8 -44 -1
-50 -8 -5 -8 -8 -1 -8 12 0 34 -64 34 -97 0 -20 -1 -20 -91 3 -50 13 -95 26
-100 30 -5 3 -9 25 -9 50 l0 45 72 34 c40 19 75 35 79 35 4 0 11 -19 17 -42z
m-230 -102 c-2 -11 -9 -21 -15 -24 -9 -2 -13 9 -13 40 1 40 2 42 16 23 8 -11
13 -29 12 -39z m-208 30 c0 -2 3 -11 6 -20 5 -13 -2 -16 -40 -16 -43 0 -59 13
-39 33 7 8 73 10 73 3z"/>
<path d="M1220 4447 l-45 -12 0 -60 c0 -55 2 -61 28 -73 l27 -13 0 -358 0
-358 -47 -21 c-27 -11 -102 -43 -168 -71 -66 -29 -149 -65 -184 -81 l-63 -28
47 -7 c52 -8 106 4 170 39 22 12 72 35 110 51 39 16 81 35 95 42 l25 13 7 -91
c6 -93 15 -116 41 -106 23 9 30 140 28 565 -2 390 -2 392 18 392 21 0 21 -3
21 -322 l0 -321 25 23 c42 39 48 78 41 244 -4 83 -12 203 -17 266 -11 139 -23
159 -95 175 -39 8 -50 14 -52 33 -3 22 -1 22 52 16 61 -7 66 -2 46 50 -11 29
-35 32 -110 13z"/>
<path d="M2470 4375 c0 -18 31 -35 64 -35 35 0 24 25 -16 39 -41 14 -48 14
-48 -4z"/>
<path d="M3605 4331 c-64 -29 -97 -68 -93 -110 4 -45 35 -62 122 -68 59 -4 64
-2 145 46 47 28 97 53 113 56 15 4 30 10 33 15 11 17 -27 40 -63 39 -21 0 -62
8 -92 20 -68 25 -113 26 -165 2z m154 -56 c12 -11 6 -18 -35 -44 -55 -35 -79
-38 -131 -16 -31 13 -34 17 -22 32 8 9 32 25 54 35 44 20 110 17 134 -7z"/>
<path d="M22 4218 l-23 -12 6 -375 c3 -207 9 -379 13 -382 4 -4 40 -14 80 -24
79 -19 95 -30 60 -41 -90 -27 -128 -47 -128 -65 0 -26 7 -25 129 17 l106 37
225 -56 c124 -30 261 -63 305 -72 44 -8 87 -18 95 -21 8 -3 -39 -27 -105 -53
-232 -93 -372 -154 -542 -236 -168 -81 -173 -84 -173 -114 0 -17 2 -31 5 -31
3 0 49 22 103 49 235 118 599 277 750 328 125 41 224 46 337 14 39 -11 146
-40 238 -65 93 -25 191 -52 218 -61 47 -16 62 -32 37 -39 -110 -31 -271 -90
-428 -159 -107 -47 -269 -116 -360 -155 -91 -38 -262 -114 -380 -168 -184 -85
-222 -106 -266 -149 -62 -61 -91 -133 -105 -255 -29 -259 -33 -270 -106 -270
-49 0 -57 -16 -22 -51 27 -27 65 -20 124 22 40 29 44 30 71 16 16 -8 61 -24
99 -37 39 -12 107 -38 152 -56 105 -43 188 -57 256 -43 29 6 57 11 62 10 23
-1 153 -31 200 -45 100 -31 332 -85 415 -96 47 -6 86 -13 87 -14 1 -1 -32 -66
-74 -144 l-75 -142 -27 18 c-23 17 -209 71 -351 102 -110 25 -434 112 -635
171 -210 61 -307 82 -317 67 -17 -27 -4 -52 32 -60 19 -5 48 -14 64 -20 l29
-12 -54 -24 c-30 -13 -49 -26 -42 -29 6 -2 35 8 63 22 49 25 101 28 100 7 -1
-4 -34 -22 -75 -41 -78 -36 -124 -71 -91 -71 19 0 146 62 188 92 25 17 30 18
57 3 17 -8 36 -15 43 -15 30 0 178 -44 171 -51 -4 -4 -46 -24 -93 -44 -47 -20
-151 -68 -231 -107 -123 -59 -146 -73 -142 -89 3 -11 11 -19 18 -19 17 0 112
44 343 159 183 90 183 90 220 76 20 -7 71 -21 112 -30 41 -10 80 -21 87 -24 7
-3 -124 -75 -290 -159 -166 -83 -336 -171 -377 -195 -73 -41 -93 -68 -58 -75
16 -3 227 102 654 324 l162 84 126 -31 c69 -18 126 -35 126 -39 0 -4 -30 -21
-67 -39 -180 -83 -467 -242 -465 -256 3 -25 57 -14 140 28 148 76 426 228 442
242 10 9 29 12 59 8 31 -4 45 -2 51 8 5 7 12 10 17 6 10 -10 -108 -241 -175
-341 -28 -43 -52 -84 -52 -91 0 -19 -31 -40 -54 -37 -34 5 -141 31 -276 68
-69 19 -154 39 -188 44 -59 10 -68 9 -120 -15 -64 -29 -72 -38 -72 -81 0 -34
-1 -34 -148 -128 -49 -31 -72 -52 -72 -65 0 -11 4 -22 9 -25 5 -3 58 28 119
69 61 41 113 75 117 75 19 0 -10 -26 -99 -87 -55 -37 -101 -73 -103 -79 -2 -6
6 -14 18 -17 15 -4 46 13 115 64 52 39 100 79 107 90 14 22 27 25 27 5 0 -13
-104 -104 -162 -141 -34 -21 -35 -38 -5 -57 53 -35 62 -33 144 39 43 37 93 82
112 100 18 18 38 30 43 27 10 -6 -26 -43 -134 -136 -32 -28 -58 -57 -58 -65 0
-7 14 -16 30 -20 17 -3 33 -10 36 -14 13 -21 39 -3 135 96 87 90 129 122 129
100 0 -3 -46 -50 -102 -104 -88 -86 -100 -101 -89 -115 18 -22 38 -20 52 5 13
25 155 180 176 192 35 21 5 -22 -78 -108 -50 -53 -89 -101 -86 -108 8 -26 46
-12 74 30 38 56 153 175 165 171 11 -4 -13 -35 -116 -151 -53 -59 -67 -80 -56
-87 22 -13 45 2 86 55 122 160 154 194 154 169 0 -6 -124 -169 -147 -192 -22
-23 -16 -52 11 -52 13 0 38 -8 55 -17 16 -10 32 -15 34 -13 13 15 117 225 117
236 0 16 16 19 25 4 4 -6 -19 -63 -49 -126 -31 -64 -53 -120 -50 -125 3 -5 15
-9 27 -9 18 0 26 12 44 63 51 146 69 187 80 187 7 0 13 -2 13 -4 0 -12 -56
-167 -71 -198 -25 -50 -24 -60 7 -56 23 3 29 13 54 90 16 48 32 103 36 123 6
33 17 44 28 27 3 -4 -10 -62 -29 -127 -18 -66 -31 -123 -29 -127 3 -4 13 -8
23 -8 14 0 23 21 44 105 15 58 27 114 27 125 0 11 5 20 10 20 14 0 13 -10 -14
-140 -13 -63 -23 -116 -23 -117 1 0 11 -3 21 -5 23 -4 27 10 52 144 12 71 21
98 32 98 10 0 13 -7 8 -22 -3 -13 -13 -69 -23 -125 -14 -81 -15 -105 -5 -115
19 -19 30 0 41 72 17 105 30 136 23 55 -11 -124 -10 -140 15 -143 25 -4 25 -1
2 176 -5 41 -7 78 -3 83 14 23 24 5 24 -43 0 -28 5 -91 11 -140 10 -72 15 -89
31 -94 11 -3 22 -4 24 -1 2 2 -3 61 -12 131 -15 117 -14 150 2 133 4 -3 13
-55 20 -114 17 -125 30 -173 49 -173 25 0 26 18 5 116 -11 53 -20 111 -20 128
0 57 18 12 40 -104 26 -133 33 -150 62 -150 16 0 19 5 15 23 -3 12 -17 69 -32
126 -23 92 -26 126 -9 109 3 -3 16 -48 28 -99 28 -111 51 -168 72 -176 33 -12
36 14 8 78 -36 86 -65 181 -59 188 8 7 22 -15 41 -69 9 -25 30 -76 47 -115 39
-89 60 -108 95 -86 11 6 6 19 -21 57 -43 61 -110 194 -102 202 8 8 42 -35 51
-63 8 -25 104 -175 112 -175 3 0 15 9 27 20 l21 20 -40 43 c-47 48 -105 152
-92 164 5 4 13 0 20 -11 15 -25 63 -94 102 -144 24 -32 34 -38 47 -30 29 16
20 51 -24 93 -22 22 -52 60 -66 84 -24 39 -25 44 -10 53 13 7 17 23 17 63 0
62 -4 65 -90 85 -30 7 -120 31 -200 55 -80 23 -164 48 -187 54 -24 6 -43 16
-43 21 0 4 9 30 21 57 12 26 21 59 21 72 0 14 26 68 56 120 31 53 66 119 79
146 13 28 30 64 40 80 50 93 173 326 225 427 72 141 88 159 88 97 0 -24 -3
-74 -7 -111 -6 -68 -6 -68 -37 -68 -36 0 -50 -8 -59 -32 -7 -19 23 -39 76 -52
l27 -6 0 -140 c0 -92 -4 -140 -11 -140 -5 0 -59 12 -118 27 -60 14 -116 23
-125 20 -20 -8 -22 -57 -2 -57 7 0 36 -7 62 -15 27 -8 78 -23 114 -33 52 -15
66 -24 71 -43 11 -38 10 -218 -1 -239 -5 -10 -31 -30 -57 -45 -137 -79 -154
-97 -101 -103 16 -2 48 12 93 42 37 26 69 46 71 46 1 0 4 -21 6 -47 3 -46 5
-49 48 -70 25 -12 64 -25 88 -29 37 -6 49 -2 112 35 l70 42 0 88 0 89 32 6
c17 3 68 32 112 65 45 32 104 71 131 87 28 16 93 61 145 100 52 39 172 115
265 169 216 124 279 166 283 188 6 32 -30 18 -142 -57 -61 -40 -144 -91 -184
-112 -40 -21 -125 -77 -188 -125 -63 -47 -151 -105 -194 -128 -44 -23 -102
-60 -129 -82 -54 -42 -111 -79 -123 -79 -5 0 -8 63 -8 140 0 78 4 140 9 140 5
0 72 38 148 84 76 46 269 161 428 255 160 95 315 188 347 207 31 19 59 34 62
34 3 0 6 -72 6 -161 l0 -160 48 -21 c26 -12 67 -25 92 -29 39 -6 52 -3 96 22
29 16 57 36 64 43 8 11 11 183 11 693 -1 736 -2 741 -57 796 -32 32 -94 48
-139 36 -20 -6 -48 -26 -68 -49 -32 -37 -34 -47 -40 -130 -4 -49 -4 -116 -1
-148 8 -71 -5 -85 -37 -40 -64 94 -95 107 -464 192 -110 26 -227 53 -260 61
-114 27 -331 75 -450 100 -111 23 -122 27 -150 60 -37 43 -86 65 -235 105
-272 73 -401 102 -500 110 -118 10 -179 20 -330 55 -58 13 -150 34 -205 46
-130 27 -337 88 -351 103 -8 8 -9 108 -5 336 3 179 4 335 2 348 -8 53 -137 92
-199 60z m99 -48 c30 -17 23 -29 -21 -36 l-40 -7 -1 -81 c-1 -74 -2 -78 -11
-41 -12 49 -3 156 15 167 17 11 35 10 58 -2z m34 -93 c4 -29 5 -174 3 -321
l-3 -267 -30 6 c-16 3 -32 9 -36 13 -7 7 7 475 17 570 4 42 9 52 24 52 15 0
20 -10 25 -53z m1825 -1148 c69 -17 190 -44 270 -61 225 -47 252 -53 465 -102
315 -73 375 -91 375 -115 0 -4 -73 -43 -162 -86 -147 -71 -407 -204 -607 -312
-72 -38 -102 -65 -89 -78 6 -6 418 194 443 215 6 5 89 48 185 96 96 48 191 97
211 110 40 25 49 23 49 -11 0 -24 -37 -46 -345 -210 -254 -134 -418 -223 -492
-266 l-83 -48 0 64 c0 58 -3 66 -25 81 -16 11 -25 26 -25 43 0 80 -109 128
-185 81 -35 -22 -79 -96 -102 -175 -14 -47 -159 -336 -204 -407 l-21 -33 7 94
c5 66 4 91 -4 87 -7 -5 -11 -46 -11 -106 0 -73 -5 -109 -17 -135 -19 -40 -22
-40 -80 -20 -23 8 -72 21 -110 29 -170 37 -306 68 -383 89 -30 8 -72 18 -93
21 -21 4 -41 14 -44 22 -5 15 7 89 47 279 14 66 30 111 46 132 19 25 98 69
347 193 177 89 324 166 325 171 13 35 -134 -23 -408 -161 -312 -158 -329 -176
-369 -391 -38 -206 -46 -226 -104 -256 -35 -18 -81 -9 -237 47 -58 21 -145 50
-193 64 l-88 27 6 82 c23 292 49 357 168 416 89 44 403 186 527 237 58 25 130
56 160 69 241 108 479 207 550 230 47 15 90 29 95 30 15 6 69 -4 205 -36z
m1411 15 c59 -30 5 -87 -67 -69 -47 12 -52 28 -20 60 29 29 46 31 87 9z m59
-733 c0 -340 3 -632 6 -649 5 -25 2 -33 -20 -47 -15 -10 -29 -16 -31 -13 -3 3
-6 296 -6 653 -2 617 -1 649 17 662 10 7 21 13 26 13 4 0 8 -278 8 -619z
m-104 583 c6 -25 1 -171 -7 -178 -2 -2 -19 -1 -36 1 l-33 5 0 99 0 99 35 0
c29 0 36 -4 41 -26z m-56 -239 c0 -10 -340 -198 -915 -507 -60 -33 -125 -69
-143 -80 l-34 -21 4 29 c3 27 24 40 283 180 154 83 332 180 395 215 213 116
382 200 396 197 8 -2 15 -7 14 -13z m42 -137 c3 -51 4 -97 1 -103 -5 -13 -484
-299 -653 -390 -69 -38 -203 -112 -298 -166 -96 -55 -176 -99 -178 -99 -2 0
-4 53 -4 118 l0 117 43 23 c23 13 98 53 167 89 69 36 141 76 160 88 19 12 138
77 264 144 272 146 457 249 471 262 19 18 22 7 27 -83z m-1264 -140 c31 -31
-4 -88 -55 -88 -25 0 -53 24 -53 46 0 16 56 54 81 54 8 0 20 -5 27 -12z m1282
-38 c0 -5 -4 -10 -10 -10 -5 0 -10 5 -10 10 0 6 5 10 10 10 6 0 10 -4 10 -10z
m-18 -168 c-4 -113 -6 -124 -26 -136 -11 -7 -97 -58 -191 -113 -163 -97 -529
-314 -760 -451 -60 -36 -120 -72 -132 -80 l-23 -14 0 140 0 141 58 39 c31 21
122 75 202 119 237 132 609 342 695 393 141 83 170 99 176 92 3 -4 3 -62 1
-130z m-1202 -1317 c-6 -7 -20 -15 -30 -18 -20 -5 -20 4 -20 673 0 373 -3 685
-6 694 -4 10 5 22 28 36 l33 20 3 -696 c1 -471 -1 -701 -8 -709z m-151 1386
c14 -9 3 -31 -139 -291 -31 -58 -82 -152 -112 -210 -30 -58 -88 -166 -128
-240 -41 -74 -91 -171 -113 -215 -67 -138 -141 -265 -155 -265 -26 0 -25 34 2
84 16 28 79 150 141 271 167 328 176 345 215 410 20 33 83 151 139 263 103
202 114 216 150 193z m44 -763 c-3 -365 -6 -664 -8 -666 -1 -2 -19 4 -39 12
l-36 15 -1 428 c0 235 -4 475 -10 533 -13 144 -13 145 22 219 17 36 38 81 46
98 8 18 19 31 23 28 4 -2 5 -303 3 -667z m1325 302 c-2 -110 -5 -200 -8 -200
-3 1 -21 9 -40 18 l-35 17 -1 156 c-1 86 1 161 5 166 6 11 61 42 74 43 4 0 6
-90 5 -200z m-2055 -821 c12 -7 23 -13 25 -15 2 -1 -14 -32 -37 -69 -22 -37
-42 -72 -43 -77 -4 -11 -58 11 -58 24 0 15 75 148 83 148 5 0 18 -5 30 -11z
m-548 -27 c22 -5 103 -28 180 -50 77 -22 149 -42 160 -44 15 -3 19 -10 17 -30
-4 -32 12 -42 107 -69 73 -21 106 -25 82 -10 -17 11 -8 39 14 47 9 4 39 -1 68
-9 29 -9 126 -37 217 -62 215 -60 200 -54 168 -71 -15 -8 -29 -23 -33 -34 -3
-11 -12 -20 -18 -20 -14 0 -407 98 -652 163 -210 55 -495 145 -514 163 -12 11
-8 16 27 32 44 19 75 18 177 -6z m-125 -130 c0 -11 -62 -68 -149 -137 -105
-83 -83 -47 35 56 96 85 114 98 114 81z m130 -41 c0 -4 -45 -50 -100 -101 -55
-50 -100 -86 -100 -78 0 7 39 52 87 99 81 80 113 102 113 80z m283 -108 c-9
-27 -117 -193 -125 -193 -18 0 -4 30 54 117 59 88 85 115 71 76z m781 -32 c5
-8 -34 -41 -49 -41 -13 0 -3 30 13 39 21 13 29 13 36 2z"/>
<path d="M2275 2691 c-101 -36 -211 -87 -220 -101 -17 -27 14 -27 75 -1 36 15
101 42 145 60 102 42 108 45 113 59 6 19 -27 14 -113 -17z"/>
<path d="M425 2161 c-3 -6 -8 -47 -11 -93 -7 -107 13 -84 23 26 6 71 2 89 -12
67z"/>
<path d="M1086 2064 c-3 -9 -6 -66 -5 -127 1 -132 14 -110 25 43 4 66 3 100
-4 100 -5 0 -13 -7 -16 -16z"/>
<path d="M1169 2070 c-7 -29 -22 -305 -18 -318 4 -10 9 6 12 38 26 238 28 263
18 273 -6 6 -11 9 -12 7z"/>
<path d="M1247 2032 c-4 -5 -9 -59 -11 -121 -3 -62 -8 -116 -10 -120 -3 -4 -1
-21 3 -37 l8 -29 6 25 c13 60 27 274 18 283 -5 5 -11 5 -14 -1z"/>
<path d="M1329 1985 c-11 -18 -21 -245 -11 -245 6 0 13 46 17 103 7 105 5 160
-6 142z"/>
<path d="M1476 1943 c-2 -10 -7 -74 -10 -143 -6 -154 10 -110 20 53 7 98 3
133 -10 90z"/>
<path d="M1556 1940 c-11 -35 -17 -250 -7 -250 7 0 11 24 12 58 0 31 4 84 8
117 8 58 -1 110 -13 75z"/>
<path d="M2140 3824 c-69 -18 -135 -33 -147 -33 -30 -1 -29 -16 9 -97 30 -65
31 -69 19 -123 -34 -157 -41 -193 -50 -271 -5 -47 -12 -119 -16 -161 -6 -74
-6 -77 17 -81 13 -3 67 -17 122 -32 54 -14 106 -26 115 -26 17 0 42 96 77 304
7 45 22 131 34 191 11 61 20 140 20 176 0 81 -34 190 -58 188 -10 -1 -73 -16
-142 -35z m48 -217 c2 -10 -3 -17 -12 -17 -18 0 -29 16 -21 31 9 14 29 6 33
-14z"/>
<path d="M3563 3824 c-10 -28 11 -48 60 -58 51 -10 77 2 77 34 0 35 -124 57
-137 24z"/>
<path d="M1866 3685 c-3 -9 -3 -40 0 -68 6 -51 6 -52 -26 -64 -38 -14 -38 -44
0 -53 28 -7 27 2 15 -172 -7 -104 -8 -108 -30 -108 -13 0 -37 8 -54 18 -28 15
-33 15 -41 2 -15 -22 -13 -25 27 -44 21 -10 54 -31 74 -47 20 -16 42 -29 47
-29 13 0 21 62 58 445 8 83 -5 129 -38 133 -16 2 -28 -3 -32 -13z"/>
<path d="M352 3215 c-46 -18 -98 -43 -115 -54 l-32 -21 50 7 c51 6 171 54 216
85 l24 17 -30 0 c-16 0 -67 -15 -113 -34z"/>
<path d="M1000 3097 c-41 -15 -66 -29 -68 -40 -5 -24 20 -21 102 11 120 47 90
72 -34 29z"/>
<path d="M3560 3095 c-11 -14 -10 -19 6 -35 31 -29 77 -34 105 -11 20 16 22
23 13 38 -15 25 -105 31 -124 8z"/>
<path d="M3947 3036 c-4 -10 -7 -55 -7 -101 0 -46 -3 -86 -7 -88 -5 -2 -35 2
-68 9 -228 50 -325 64 -325 47 0 -5 7 -17 15 -27 8 -11 15 -30 15 -42 0 -27
26 -37 154 -59 87 -15 112 -24 90 -32 -30 -11 -277 -160 -278 -168 0 -6 8 -11
19 -13 22 -3 305 154 305 169 0 10 40 12 64 3 12 -4 16 -20 16 -54 0 -41 4
-52 26 -69 15 -12 33 -21 40 -21 8 0 14 -4 14 -8 0 -9 -121 -78 -240 -137
-107 -54 -234 -126 -242 -139 -12 -18 -9 -26 8 -26 21 0 355 176 442 233 37
24 87 52 111 61 49 19 174 97 186 116 13 21 -6 24 -40 5 -20 -10 -38 -15 -42
-11 -4 4 -8 31 -9 59 -2 38 -8 58 -24 77 l-23 25 -9 -25 c-5 -14 -7 -48 -3
-77 6 -53 -5 -93 -28 -93 -9 0 -11 30 -9 118 4 106 2 120 -16 142 l-20 25 -7
-47 c-4 -25 -5 -89 -3 -142 3 -98 1 -104 -36 -90 -14 5 -16 30 -16 175 0 161
-1 169 -23 195 -21 24 -24 25 -30 10z"/>
<path d="M4830 3028 c-155 -90 -321 -193 -330 -203 -7 -9 -6 -15 3 -23 13 -11
33 -1 222 117 93 58 155 107 155 122 0 13 -10 10 -50 -13z"/>
<path d="M628 2950 c-109 -36 -168 -66 -168 -85 0 -21 17 -19 91 11 35 14 99
37 142 50 50 16 77 30 77 39 0 22 -44 18 -142 -15z"/>
<path d="M3097 2869 c-9 -6 -27 -12 -38 -14 -73 -14 -78 -31 -10 -34 41 -1 52
3 65 21 26 37 19 48 -17 27z m-42 -29 c-3 -5 -12 -10 -18 -10 -7 0 -6 4 3 10
19 12 23 12 15 0z"/>
<path d="M4815 2764 c-77 -47 -141 -89 -143 -93 -1 -4 4 -14 12 -20 16 -13 41
0 215 118 57 38 95 82 70 80 -8 0 -77 -39 -154 -85z"/>
<path d="M245 2766 c-61 -23 -165 -77 -165 -86 0 -3 4 -11 8 -18 7 -10 26 -5
83 22 41 19 100 46 132 60 57 25 68 47 24 45 -12 0 -49 -10 -82 -23z"/>
<path d="M7444 2500 c-27 -22 -119 -95 -205 -163 -152 -119 -321 -254 -406
-323 -46 -37 -55 -64 -23 -64 22 0 70 35 310 226 222 176 395 327 395 344 0
26 -23 20 -71 -20z"/>
<path d="M414 2516 c-30 -14 -54 -36 -37 -36 11 0 73 38 73 45 0 6 0 7 -36 -9z"/>
<path d="M4365 2487 c-106 -74 -224 -148 -511 -322 -334 -202 -329 -198 -321
-212 17 -28 58 -6 575 316 310 192 354 224 345 246 -8 22 -22 18 -88 -28z"/>
<path d="M4840 2131 c-231 -138 -367 -222 -530 -328 -102 -66 -239 -154 -305
-197 -72 -46 -156 -111 -210 -163 -101 -97 -96 -102 20 -18 44 31 101 68 128
81 26 14 154 95 285 181 130 86 316 205 412 266 189 118 275 180 284 203 9 23
-15 16 -84 -25z"/>
<path d="M7349 2073 c-198 -165 -284 -243 -379 -345 l-95 -102 52 28 c53 29
158 117 392 329 124 112 151 142 151 166 0 21 -17 10 -121 -76z"/>
<path d="M4909 1843 c-212 -132 -251 -157 -328 -210 -99 -69 -348 -248 -514
-370 -109 -80 -147 -117 -134 -130 3 -2 16 1 29 8 55 29 294 191 425 288 78
58 228 162 334 231 230 150 326 230 276 230 -8 0 -47 -21 -88 -47z"/>
<path d="M6573 1860 c-71 -15 -100 -35 -119 -85 -13 -36 -15 -53 -7 -79 6 -20
7 -40 2 -47 -5 -8 -18 -45 -30 -84 -11 -38 -29 -91 -39 -116 -46 -110 -59
-255 -61 -674 -2 -360 0 -373 66 -401 49 -20 88 -18 243 15 272 58 260 39 264
413 l3 273 -32 80 c-18 44 -49 104 -68 132 -67 99 -111 259 -89 317 5 14 11
12 36 -9 16 -14 34 -25 39 -25 5 0 0 -13 -12 -30 -32 -43 -17 -48 26 -8 l37
33 -22 60 c-32 92 -33 89 39 97 95 11 94 10 89 69 -3 27 -9 54 -14 59 -13 13
-301 21 -351 10z m152 -76 c6 -33 3 -41 -31 -75 -34 -35 -43 -39 -89 -39 -66
0 -95 20 -95 65 0 29 5 37 33 51 27 15 89 27 158 33 12 1 19 -10 24 -35z m165
9 c10 -9 -27 -23 -62 -23 -43 0 -54 26 -15 33 22 4 68 -2 77 -10z m-353 -174
c15 -6 45 -11 67 -11 l38 1 -6 -37 c-3 -20 -6 -53 -6 -74 l0 -36 -70 -12 c-77
-13 -100 -9 -100 16 0 17 41 164 46 164 1 0 15 -5 31 -11z m143 -249 c13 -28
30 -56 37 -62 8 -6 19 -20 24 -30 10 -18 8 -18 -30 1 -22 12 -42 25 -46 31 -3
5 -13 10 -22 10 -29 0 9 -42 73 -81 55 -34 60 -40 84 -105 24 -67 25 -77 25
-314 0 -287 -5 -314 -63 -329 -87 -24 -299 -62 -327 -59 -30 3 -30 3 -38 83
-12 116 0 725 16 810 l12 70 100 11 c55 6 107 12 116 13 10 0 24 -18 39 -49z"/>
<path d="M6577 1176 c-45 -17 -82 -49 -105 -91 -14 -25 -17 -62 -17 -220 0
-212 10 -257 65 -310 30 -29 30 -29 103 -18 102 14 127 29 157 88 23 47 24 59
25 225 0 198 -10 242 -68 298 -40 39 -102 49 -160 28z m128 -70 c36 -36 45
-87 44 -256 0 -224 -12 -247 -135 -252 -59 -3 -59 -3 -76 32 -12 26 -18 77
-23 201 -7 191 0 235 46 273 42 35 110 36 144 2z"/>
<path d="M7459 1793 c-24 -21 -84 -73 -134 -118 -49 -45 -170 -150 -268 -234
-195 -168 -224 -201 -176 -201 22 0 96 47 120 76 8 9 64 60 124 112 163 140
395 362 395 377 0 27 -18 24 -61 -12z"/>
<path d="M2956 1537 c-11 -7 -55 -36 -98 -64 -43 -29 -113 -71 -156 -94 -154
-84 -434 -264 -451 -292 -6 -10 9 -2 36 17 73 52 298 193 388 243 92 51 249
148 291 180 30 23 23 30 -10 10z"/>
<path d="M270 1436 c-102 -64 -148 -102 -137 -112 4 -4 17 2 30 13 12 11 64
48 115 82 50 34 92 64 92 66 0 12 -20 2 -100 -49z"/>
<path d="M374 1421 c-18 -11 -36 -25 -40 -33 -7 -12 14 0 71 39 30 20 4 15
-31 -6z"/>
<path d="M3564 1396 c-28 -13 -94 -50 -145 -83 -52 -33 -116 -72 -144 -88 -27
-15 -124 -76 -215 -135 -208 -133 -431 -276 -583 -371 -65 -41 -181 -115 -258
-166 -77 -50 -156 -101 -175 -112 -39 -24 -37 -41 5 -41 20 0 88 38 212 118
101 66 250 160 331 210 80 50 265 170 410 265 144 95 301 197 348 225 47 29
122 77 168 106 136 86 160 125 46 72z"/>
<path d="M665 1374 c-48 -26 -106 -67 -100 -72 4 -5 135 76 135 84 0 6 -1 5
-35 -12z"/>
<path d="M7443 1348 c-223 -181 -523 -479 -523 -520 0 -18 27 -6 72 31 87 71
518 494 518 508 0 22 -25 15 -67 -19z"/>
<path d="M723 1339 c-18 -12 -33 -25 -33 -30 0 -11 23 1 60 30 33 27 14 26
-27 0z"/>
<path d="M2341 1230 c-54 -36 -65 -48 -26 -27 43 23 92 57 80 56 -5 0 -30 -13
-54 -29z"/>
<path d="M2475 1150 c-3 -6 1 -7 9 -4 18 7 21 14 7 14 -6 0 -13 -4 -16 -10z"/>
<path d="M1640 1089 c-30 -16 -66 -41 -80 -56 -24 -24 -21 -23 38 8 66 36 124
78 107 78 -5 1 -35 -13 -65 -30z"/>
<path d="M1661 1005 c-155 -89 -211 -132 -211 -160 0 -16 2 -16 23 -3 12 8 54
32 92 53 39 22 93 53 120 71 28 17 78 45 113 63 34 17 62 38 62 46 0 33 -59
12 -199 -70z"/>
<path d="M1123 932 c-59 -35 -84 -72 -48 -72 18 0 115 58 133 78 36 45 -6 42
-85 -6z"/>
<path d="M4893 803 c-111 -87 -219 -171 -240 -186 -74 -54 -150 -123 -205
-184 -74 -84 -142 -172 -136 -178 8 -8 114 93 155 147 21 28 63 66 93 85 56
37 133 102 279 238 48 44 123 108 168 143 45 35 87 70 94 78 32 39 -25 0 -208
-143z"/>
<path d="M6220 914 c-25 -20 -75 -63 -111 -97 -87 -82 -200 -176 -275 -231
-57 -41 -86 -76 -63 -76 29 0 101 51 188 132 53 50 144 134 203 186 97 86 130
123 110 121 -4 0 -27 -16 -52 -35z"/>
<path d="M5825 734 c-22 -18 -34 -34 -28 -34 15 0 80 56 73 63 -3 3 -23 -10
-45 -29z"/>
<path d="M3180 740 c-86 -28 -442 -278 -470 -330 -16 -31 20 -26 51 6 13 14
49 41 79 59 94 55 273 170 327 209 73 52 79 78 13 56z"/>
<path d="M5189 618 c-18 -24 -60 -71 -94 -106 -33 -35 -60 -71 -60 -80 0 -12
26 -23 110 -44 61 -15 173 -47 250 -69 134 -40 140 -41 152 -23 60 84 143 219
143 230 0 20 -28 29 -145 49 -139 24 -224 45 -267 66 -21 11 -42 19 -47 19 -5
0 -24 -19 -42 -42z m141 -56 c36 -11 101 -28 145 -37 44 -9 90 -20 103 -24
l23 -6 -29 -41 c-17 -23 -37 -55 -46 -72 l-16 -31 -42 14 c-51 16 -213 60
-283 76 -27 7 -52 13 -54 15 -8 7 113 134 123 130 6 -3 40 -14 76 -24z"/>
<path d="M5414 455 c-16 -13 -17 -16 -4 -25 8 -5 22 -10 30 -10 19 0 60 28 60
41 0 15 -64 11 -86 -6z"/>
<path d="M6265 558 c-29 -16 -326 -261 -354 -292 -35 -38 -18 -44 42 -14 58
29 252 191 310 258 48 57 49 75 2 48z"/>
<path d="M156 497 c-17 -13 -17 -14 -1 -30 20 -21 35 -21 61 -2 19 15 19 15 0
30 -24 18 -37 19 -60 2z"/>
<path d="M284 459 c-8 -13 24 -41 41 -36 5 2 10 12 10 23 0 22 -39 32 -51 13z"/>
<path d="M241 376 c-11 -13 -11 -19 -1 -31 9 -11 35 -15 105 -15 107 0 125 5
125 31 0 17 -8 19 -79 19 -43 0 -92 3 -108 6 -20 4 -33 1 -42 -10z"/>
<path d="M525 319 c-4 -6 -5 -12 -4 -14 8 -7 58 -10 59 -2 1 23 -2 27 -24 27
-14 0 -28 -5 -31 -11z"/>
<path d="M616 297 c-19 -14 -19 -15 3 -26 33 -18 76 -10 76 14 0 25 -51 33
-79 12z"/>
<path d="M2064 259 c-8 -13 5 -26 31 -31 14 -2 21 3 23 20 3 18 -1 22 -22 22
-14 0 -28 -5 -32 -11z"/>
<path d="M761 183 c-13 -10 -14 -14 -3 -25 10 -10 55 -13 180 -13 149 0 167 2
170 17 5 23 -17 27 -187 30 -99 2 -149 -1 -160 -9z"/>
<path d="M2014 176 c-8 -21 2 -46 19 -46 23 0 53 28 42 38 -20 20 -55 24 -61
8z"/>
<path d="M1922 93 c5 -25 28 -28 28 -4 0 12 -6 21 -16 21 -9 0 -14 -7 -12 -17z"/>
</g>
</svg>
