<?xml version="1.0" standalone="no"?>
<!DOCTYPE svg PUBLIC "-//W3C//DTD SVG 20010904//EN"
 "http://www.w3.org/TR/2001/REC-SVG-20010904/DTD/svg10.dtd">
<svg version="1.0" xmlns="http://www.w3.org/2000/svg"
 width="6483.000000pt" height="6367.000000pt" viewBox="0 0 6483.000000 6367.000000"
 preserveAspectRatio="xMidYMid meet">

<g transform="translate(0.000000,6367.000000) scale(0.100000,-0.100000)"
fill="#000000" stroke="none">
<path d="M53877 63660 c-1698 -102 -3280 -827 -4493 -2061 -1560 -1588 -2209
-3697 -1808 -5879 212 -1154 703 -2239 1423 -3145 223 -281 568 -639 836 -869
999 -857 2247 -1386 3623 -1536 533 -58 1162 -52 1684 15 1235 160 2373 631
3291 1362 361 288 742 669 1028 1028 655 824 1120 1794 1363 2845 194 843 229
1722 100 2560 -207 1348 -854 2605 -1860 3615 -1175 1181 -2696 1908 -4289
2050 -207 19 -696 27 -898 15z m923 -854 c710 -81 1330 -263 1975 -581 283
-139 454 -237 700 -400 932 -617 1678 -1461 2146 -2430 505 -1047 662 -2220
459 -3439 -231 -1384 -931 -2669 -1945 -3571 -1328 -1182 -3273 -1673 -5145
-1299 -506 101 -971 257 -1426 478 -585 286 -1037 607 -1489 1060 -479 480
-850 1007 -1155 1640 -323 670 -508 1325 -597 2116 -26 229 -26 947 0 1180 92
821 323 1536 722 2230 369 642 888 1246 1478 1717 918 736 2014 1188 3142
1297 242 24 235 24 625 21 257 -2 408 -8 510 -19z"/>
<path d="M54121 62419 c-159 -31 -294 -161 -330 -320 -6 -26 -11 -228 -11
-496 0 -414 2 -456 19 -512 25 -80 60 -138 114 -188 188 -174 487 -140 627 70
72 108 73 112 78 580 4 451 -2 540 -41 628 -30 69 -111 157 -174 192 -54 29
-160 57 -208 56 -16 -1 -50 -5 -74 -10z"/>
<path d="M50407 60659 c-161 -23 -291 -134 -338 -291 -41 -135 -9 -289 81
-391 53 -60 714 -575 773 -602 208 -96 443 -13 544 191 81 165 47 360 -84 485
-87 83 -701 556 -748 576 -44 19 -71 25 -150 37 -11 2 -46 -1 -78 -5z"/>
<path d="M57855 60389 c-73 -26 -49 -9 -461 -326 -187 -144 -353 -278 -368
-298 -15 -19 -39 -61 -54 -93 -24 -51 -27 -69 -27 -167 0 -98 3 -116 26 -165
102 -215 346 -309 550 -213 93 44 755 557 803 622 66 89 95 209 76 313 -26
139 -104 244 -227 305 -68 33 -85 37 -167 40 -73 3 -103 -1 -151 -18z"/>
<path d="M55000 59840 c-101 -37 -189 -111 -234 -199 -17 -31 -84 -234 -473
-1427 l-137 -422 -59 -7 c-156 -17 -373 -108 -515 -215 -151 -114 -290 -284
-363 -446 -234 -522 -12 -1097 525 -1359 354 -173 741 -159 1050 39 l57 37
255 -106 c378 -157 748 -316 1444 -622 641 -282 1046 -456 1313 -566 152 -62
152 -62 252 -62 92 0 106 3 167 32 276 130 333 476 113 682 -54 50 -80 65
-216 120 -275 113 -612 258 -1249 538 -623 274 -1157 504 -1492 643 l-177 73
6 122 c7 138 -6 244 -43 374 -44 149 -140 316 -238 410 -20 19 -36 41 -36 49
0 8 134 422 297 921 l298 906 0 95 c0 86 -3 101 -32 162 -36 76 -105 156 -167
192 -99 58 -243 72 -346 36z m-669 -2907 c64 -33 94 -74 103 -141 12 -91 -29
-224 -85 -278 -63 -60 -216 -38 -312 46 -102 90 -101 191 3 304 87 95 191 119
291 69z"/>
<path d="M49285 57310 c-165 -5 -243 -11 -277 -22 -198 -65 -325 -270 -289
-465 32 -174 156 -305 327 -343 35 -8 172 -8 494 0 391 10 453 13 511 30 248
73 368 350 252 586 -34 69 -125 157 -200 192 l-58 27 -265 1 c-146 0 -368 -2
-495 -6z"/>
<path d="M58333 57250 c-107 -35 -199 -119 -252 -230 -23 -49 -26 -67 -26
-165 0 -103 2 -114 32 -177 41 -88 113 -160 201 -201 65 -31 72 -32 252 -38
352 -14 760 -11 823 6 203 53 326 220 315 429 -9 170 -111 307 -276 369 -55
20 -74 21 -532 24 -450 2 -478 1 -537 -17z"/>
<path d="M50973 54330 c-64 -21 -101 -47 -610 -422 -273 -201 -318 -264 -318
-448 0 -104 21 -168 79 -248 108 -146 318 -208 482 -141 78 32 744 519 813
595 72 79 95 144 95 269 0 139 -23 196 -118 291 -88 88 -150 115 -276 120 -66
3 -99 -1 -147 -16z"/>
<path d="M57085 54109 c-104 -15 -188 -61 -259 -139 -77 -85 -117 -226 -97
-336 22 -117 52 -160 345 -494 152 -173 296 -333 319 -354 23 -21 71 -53 107
-70 60 -29 73 -31 170 -31 97 0 110 2 172 32 173 82 273 267 240 443 -21 113
-47 151 -286 425 -365 416 -398 450 -470 484 -34 17 -82 33 -107 36 -24 4 -53
8 -64 9 -11 2 -42 0 -70 -5z"/>
<path d="M54183 52959 c-129 -17 -258 -113 -316 -237 l-32 -67 -3 -475 c-2
-302 1 -492 8 -523 27 -126 132 -254 247 -297 184 -71 396 -7 502 151 71 106
71 106 71 630 0 439 -1 471 -20 532 -59 190 -255 313 -457 286z"/>
<path d="M6605 63444 c-1792 -23 -2977 -37 -3655 -44 -886 -9 -884 -9 -1124
-66 -479 -114 -925 -386 -1244 -759 -231 -270 -403 -593 -491 -927 -55 -206
-73 -334 -78 -563 -5 -261 283 -13485 297 -13610 78 -697 431 -1312 988 -1723
112 -83 219 -148 331 -203 l92 -44 -8 -225 c-4 -124 -8 -349 -8 -500 1 -315 6
-347 78 -452 50 -73 141 -140 220 -162 44 -12 364 -15 2122 -21 3042 -9 4389
9 5657 76 424 22 463 29 560 99 65 46 131 138 153 213 19 66 19 241 0 671 -8
181 -14 331 -12 332 1 1 52 23 112 49 389 166 727 452 980 830 191 286 337
683 385 1050 22 174 57 2137 81 4580 16 1670 24 8682 10 8910 -21 339 -65 585
-157 865 -274 833 -919 1393 -1789 1555 -175 32 -349 43 -870 55 -444 10
-2186 20 -2630 14z m2375 -844 c862 -17 971 -27 1206 -105 558 -186 896 -624
1006 -1307 21 -128 22 -168 25 -1045 l4 -913 -213 0 c-117 0 -566 -5 -998 -10
-432 -6 -2277 -28 -4100 -50 -1823 -22 -3699 -45 -4169 -50 -469 -6 -854 -10
-856 -8 -1 2 -12 451 -23 998 -22 1013 -21 1078 13 1240 122 586 604 1065
1190 1184 144 29 312 36 900 36 319 0 938 5 1375 11 437 6 1049 14 1360 18
865 12 2703 12 3280 1z m2237 -7217 c-6 -3258 -16 -4445 -57 -6768 -19 -1056
-25 -1142 -101 -1370 -120 -359 -380 -677 -691 -844 -187 -101 -327 -133 -718
-160 -1073 -76 -2399 -103 -5215 -105 -1817 -1 -1915 0 -2010 17 -313 58 -593
206 -820 432 -126 127 -217 254 -300 420 -103 208 -147 362 -165 590 -6 72
-60 2425 -120 5230 -60 2805 -112 5179 -115 5276 l-7 176 674 7 c370 3 1582
17 2693 31 1111 14 2970 36 4130 50 2324 28 2451 29 2674 33 l154 2 -6 -3017z
m-1563 -10075 c3 -51 7 -130 8 -175 l3 -82 -90 -5 c-128 -9 -523 -24 -920 -36
-752 -23 -1674 -30 -3842 -30 l-2273 0 0 63 c0 34 3 105 6 158 l7 97 2196 5
c1208 3 2410 10 2671 16 872 19 1492 41 1909 66 113 6 231 13 263 14 l56 1 6
-92z"/>
<path d="M7630 61964 c-222 -27 -406 -115 -572 -273 -189 -180 -300 -392 -344
-653 -30 -182 -3 -396 71 -563 63 -144 203 -308 341 -402 372 -252 894 -252
1248 1 193 138 336 363 387 611 23 113 25 319 4 432 -81 426 -385 735 -808
823 -90 19 -263 31 -327 24z m183 -845 c82 -23 137 -106 137 -209 0 -128 -63
-190 -193 -190 -74 0 -119 13 -164 47 -44 32 -56 57 -55 118 1 83 53 184 116
225 35 22 99 26 159 9z"/>
<path d="M9815 61960 c-221 -31 -416 -130 -577 -292 -164 -166 -272 -377 -313
-612 -94 -539 244 -1026 796 -1147 184 -40 368 -35 546 17 355 101 598 354
694 719 21 78 24 113 24 265 0 151 -3 187 -24 264 -109 414 -402 693 -810 770
-101 19 -261 27 -336 16z m218 -844 c83 -30 121 -95 122 -206 0 -129 -48 -182
-170 -188 -171 -9 -269 79 -235 209 19 69 62 140 104 171 45 32 113 37 179 14z"/>
<path d="M2400 57613 c-221 -35 -369 -89 -523 -191 -175 -115 -305 -277 -383
-477 l-28 -70 3 -1405 c2 -773 7 -1835 10 -2360 l6 -955 38 -79 c149 -313 417
-517 777 -592 116 -25 344 -25 460 0 345 72 612 257 782 541 74 123 68 -97 66
2551 l-3 2381 -42 84 c-150 301 -471 516 -848 568 -73 10 -261 13 -315 4z
m296 -854 c28 -11 59 -28 69 -39 17 -19 18 -116 11 -2177 l-7 -2158 -24 -22
c-13 -11 -50 -31 -82 -43 -48 -18 -73 -21 -148 -18 -76 3 -98 8 -142 32 -48
26 -53 32 -57 70 -3 22 -8 998 -11 2168 l-6 2126 33 25 c87 67 241 82 364 36z"/>
<path d="M29440 58920 c-723 -128 -1319 -793 -1376 -1535 l-7 -83 -161 -6
c-89 -3 -3446 -44 -7461 -91 -4015 -47 -7337 -89 -7381 -93 -157 -17 -283
-103 -347 -239 -59 -128 -46 -293 33 -408 66 -95 167 -159 283 -177 42 -6
2536 21 7682 84 l7620 93 19 -25 c10 -14 71 -77 135 -140 183 -182 401 -313
650 -390 l112 -35 -7 -1150 c-6 -1079 4 -3543 26 -6115 15 -1803 24 -4875 15
-5632 l-7 -697 -57 -6 c-967 -110 -1849 -496 -2642 -1156 -159 -133 -485 -459
-618 -618 -400 -481 -691 -989 -880 -1536 -61 -177 -122 -393 -151 -543 l-22
-109 -122 -13 c-1575 -157 -3057 -1214 -3792 -2704 -225 -456 -363 -916 -431
-1431 -26 -201 -26 -759 0 -960 161 -1233 797 -2345 1807 -3154 727 -582 1576
-932 2456 -1011 67 -6 1110 -33 2319 -59 1208 -27 2199 -51 2202 -54 2 -3 0
-403 -6 -889 -13 -1004 -26 -2651 -41 -4893 -14 -2163 -28 -3878 -40 -4865
-17 -1428 -18 -1298 4 -1360 56 -164 195 -273 366 -287 208 -17 398 129 438
337 18 92 40 2126 67 6165 25 3734 45 5759 58 5771 4 4 975 -14 2159 -41 1323
-29 2232 -45 2358 -42 656 19 1315 181 1896 466 214 105 295 152 514 297 579
383 1048 883 1419 1511 87 147 252 485 314 643 409 1038 467 2169 161 3158
-353 1141 -1170 2068 -2311 2622 -591 288 -1293 465 -1930 487 l-182 6 -6 56
c-119 1041 -582 1962 -1381 2741 -818 797 -1881 1316 -2980 1452 l-102 13 -6
3055 c-3 1680 -11 3453 -16 3940 -12 1192 -25 6213 -15 6421 l7 166 57 13
c163 36 372 129 526 234 101 68 270 232 330 320 l40 58 2640 -6 c1452 -4 3475
-11 4495 -16 4289 -22 8267 -31 8332 -20 139 26 244 103 305 227 32 65 37 86
41 163 3 65 0 102 -13 141 -34 104 -115 203 -204 249 -100 50 36 48 -2851 54
-1482 3 -3575 11 -4650 17 -1075 5 -3281 13 -4902 17 -1620 4 -2949 9 -2951
12 -3 3 -10 55 -17 115 -31 296 -125 560 -287 805 -101 152 -294 348 -438 443
-185 122 -383 202 -593 238 -148 25 -356 25 -502 -1z m668 -17484 c504 -68
929 -199 1384 -427 460 -230 838 -506 1198 -875 428 -438 736 -936 909 -1467
104 -322 148 -583 157 -942 6 -231 17 -290 65 -367 59 -92 139 -150 253 -183
53 -15 77 -16 226 -6 602 40 1172 -51 1760 -282 874 -342 1594 -992 1966
-1772 166 -349 254 -653 310 -1070 24 -174 29 -635 10 -835 -130 -1357 -878
-2517 -2016 -3123 -460 -245 -989 -390 -1560 -426 -112 -8 -1226 14 -4900 94
-2615 57 -4811 107 -4880 110 -1260 63 -2503 884 -3171 2097 -227 411 -372
852 -435 1323 -25 184 -25 618 0 800 85 622 306 1172 685 1705 590 831 1496
1434 2446 1628 218 45 485 72 716 72 157 0 247 36 337 134 79 86 92 128 132
416 69 504 262 1010 563 1482 309 482 735 917 1222 1244 564 379 1167 606
1805 679 163 18 656 13 818 -9z"/>
<path d="M54127 49220 c-153 -39 -278 -176 -305 -335 -7 -39 -14 -1534 -22
-4355 -6 -2362 -13 -4440 -16 -4617 l-6 -321 -1607 5 c-1710 6 -1721 6 -1947
-42 -798 -169 -1455 -781 -1683 -1568 -38 -129 -67 -274 -80 -399 -7 -65 -11
-706 -11 -1918 l0 -1820 -512 -1 c-282 0 -2225 -8 -4318 -18 -3562 -17 -3808
-19 -3855 -35 -188 -66 -309 -245 -292 -431 17 -175 130 -315 298 -366 l68
-21 3648 16 c2006 8 3948 18 4314 21 l666 5 7 -402 c16 -1003 66 -2024 111
-2285 154 -891 890 -1587 1815 -1718 151 -21 882 -39 2729 -65 354 -5 644 -10
646 -12 1 -2 10 -1366 19 -3033 9 -1666 20 -3444 24 -3950 l7 -920 32 -67 c79
-166 260 -264 438 -236 162 25 290 136 337 292 l21 70 -7 1846 c-4 1015 -11
2349 -16 2965 -5 616 -9 1548 -10 2071 l0 950 3925 -4 c3020 -4 3958 -2 4068
8 647 55 1144 266 1527 650 329 328 538 756 615 1255 40 264 57 1144 62 3350
5 2262 -7 3819 -31 3965 -85 523 -271 919 -580 1239 -303 312 -667 495 -1111
557 -83 11 -820 16 -4284 29 -2302 8 -4187 17 -4189 19 -2 3 3 2085 11 4628
10 2880 12 4642 6 4672 -24 127 -106 234 -226 293 -66 33 -84 37 -161 40 -48
1 -104 -2 -125 -7z m3553 -10475 c3369 -10 5211 -19 5277 -26 246 -24 440
-111 612 -274 232 -218 368 -536 401 -930 17 -203 19 -5045 2 -5770 -25 -1103
-30 -1187 -85 -1385 -138 -495 -476 -818 -987 -944 -256 -63 -142 -60 -2315
-64 -2959 -5 -6422 14 -8405 48 -1175 20 -1582 31 -1680 45 -510 75 -951 455
-1069 922 -34 134 -54 364 -81 918 -47 989 -74 2972 -68 5055 l3 1175 23 108
c30 142 72 258 139 388 71 138 158 252 281 370 223 214 489 342 788 379 38 4
501 6 1029 4 528 -2 3289 -11 6135 -19z"/>
<path d="M52985 38299 c-2041 -18 -2102 -19 -2166 -39 -165 -50 -280 -191
-296 -365 -15 -164 89 -341 244 -413 50 -23 74 -27 178 -31 213 -7 4667 30
4754 39 106 12 175 44 250 115 169 161 173 424 8 589 -60 61 -110 89 -194 111
-69 18 23 18 -2778 -6z"/>
<path d="M57803 38285 c-187 -34 -348 -117 -497 -256 -313 -292 -436 -757
-304 -1144 90 -264 314 -489 591 -593 242 -91 529 -98 763 -18 397 135 650
478 671 908 16 323 -95 617 -310 825 -119 114 -227 180 -387 233 -165 56 -372
73 -527 45z m293 -848 c65 -34 98 -98 98 -192 0 -86 -24 -141 -74 -170 -55
-31 -189 -29 -250 5 -24 14 -55 41 -68 60 -20 29 -23 43 -19 87 10 99 85 214
150 231 39 10 124 -1 163 -21z"/>
<path d="M60053 38285 c-187 -34 -348 -117 -497 -256 -313 -292 -436 -757
-304 -1144 90 -264 314 -489 591 -593 242 -91 529 -98 763 -18 397 135 650
478 671 908 16 323 -95 617 -310 825 -119 114 -227 180 -387 233 -165 56 -372
73 -527 45z m293 -848 c65 -34 98 -98 98 -192 0 -86 -24 -141 -74 -170 -55
-31 -189 -29 -250 5 -24 14 -55 41 -68 60 -20 29 -23 43 -19 87 10 99 85 214
150 231 39 10 124 -1 163 -21z"/>
<path d="M62303 38285 c-187 -34 -348 -117 -497 -256 -313 -292 -436 -757
-304 -1144 90 -264 314 -489 591 -593 242 -91 529 -98 763 -18 397 135 650
478 671 908 16 323 -95 617 -310 825 -119 114 -227 180 -387 233 -165 56 -372
73 -527 45z m293 -848 c65 -34 98 -98 98 -192 0 -86 -24 -141 -74 -170 -55
-31 -189 -29 -250 5 -24 14 -55 41 -68 60 -20 29 -23 43 -19 87 10 99 85 214
150 231 39 10 124 -1 163 -21z"/>
<path d="M55035 37294 c-308 -7 -1524 -35 -1895 -44 -217 -5 -762 -14 -1210
-20 -894 -12 -915 -14 -1085 -74 -376 -135 -654 -464 -757 -896 -36 -154 -35
-661 8 -2665 8 -396 21 -1075 29 -1510 13 -785 13 -791 38 -895 65 -270 168
-462 347 -640 132 -133 270 -220 435 -277 162 -56 145 -54 950 -63 413 -5 986
-15 1275 -24 907 -27 1572 -38 1955 -34 362 4 372 5 469 31 123 33 295 116
401 192 256 185 425 412 512 690 l28 90 -1 955 c-1 525 -7 1223 -13 1550 -6
327 -14 964 -17 1415 -3 451 -9 875 -15 943 -29 379 -169 685 -427 934 -135
130 -274 216 -444 276 -160 57 -296 72 -583 66z m352 -873 c110 -59 203 -178
250 -320 13 -38 17 -153 24 -666 4 -341 15 -1113 24 -1715 9 -602 17 -1399 18
-1770 l2 -675 -30 -50 c-39 -65 -128 -151 -201 -195 l-58 -35 -736 1 c-438 0
-962 8 -1295 18 -718 21 -1458 36 -1846 36 l-305 0 -51 25 c-89 45 -175 162
-203 277 -7 26 -15 293 -20 663 -5 341 -19 1063 -30 1605 -31 1518 -41 2365
-29 2440 20 127 94 242 190 295 l54 30 245 2 c756 8 1775 27 3175 62 182 5
427 8 545 7 l215 -1 62 -34z"/>
<path d="M57850 36129 c-214 -8 -300 -26 -425 -89 -99 -49 -188 -120 -255
-203 -59 -72 -133 -216 -156 -302 -36 -139 -41 -703 -7 -860 19 -91 89 -234
150 -310 90 -110 217 -196 368 -247 69 -23 74 -23 449 -20 428 4 464 9 611 81
192 95 332 269 386 479 17 66 19 112 19 388 0 172 -5 348 -11 391 -48 357
-322 636 -679 693 -71 11 -166 11 -450 -1z m303 -951 c4 -66 7 -150 7 -185 l0
-63 -170 0 -170 0 0 179 0 180 33 4 c17 2 91 5 163 5 l131 2 6 -122z"/>
<path d="M60045 36129 c-161 -6 -203 -11 -278 -33 -288 -85 -487 -292 -558
-580 -16 -67 -21 -129 -26 -356 -7 -320 3 -443 46 -567 41 -118 84 -185 181
-283 92 -93 180 -146 315 -192 69 -23 74 -23 449 -20 430 4 462 8 616 84 70
34 102 58 180 137 105 105 150 179 192 311 22 73 23 84 22 445 -1 346 -2 375
-23 450 -87 324 -337 552 -662 604 -70 12 -164 12 -454 0z m305 -961 c0 -73 3
-157 6 -185 l7 -53 -172 0 -171 0 0 179 0 180 33 4 c17 2 92 5 165 5 l132 2 0
-132z"/>
<path d="M62320 36130 c-254 -10 -361 -38 -508 -133 -165 -107 -275 -260 -335
-465 -21 -73 -22 -94 -22 -447 0 -328 2 -377 18 -435 77 -273 286 -475 562
-540 84 -20 105 -21 424 -15 360 7 433 15 545 62 231 97 398 308 441 560 13
77 14 137 6 424 -10 365 -14 392 -77 527 -102 222 -296 384 -534 447 -79 21
-259 26 -520 15z m300 -1015 l0 -185 -170 0 -170 0 0 179 0 180 33 4 c17 2 94
5 170 5 l137 2 0 -185z"/>
<path d="M57785 34000 c-196 -11 -312 -46 -444 -134 -144 -96 -258 -249 -313
-418 -26 -81 -31 -116 -39 -273 -13 -243 -3 -547 22 -645 67 -263 267 -466
535 -542 76 -21 91 -22 424 -19 235 2 367 7 415 16 273 52 484 239 576 510 24
69 24 76 24 450 -1 362 -2 384 -23 460 -44 159 -119 283 -236 392 -84 79 -177
134 -296 174 -94 33 -97 33 -300 35 -113 1 -268 -2 -345 -6z m368 -947 c4 -71
7 -153 7 -184 l0 -56 -97 -6 c-54 -4 -131 -7 -170 -7 l-73 0 0 185 0 184 133
4 c72 1 146 4 163 5 l31 2 6 -127z"/>
<path d="M59985 33999 c-140 -7 -200 -19 -307 -59 -140 -52 -309 -202 -387
-342 -94 -167 -117 -330 -108 -753 4 -198 8 -253 25 -316 79 -295 321 -513
617 -557 46 -7 185 -8 410 -2 384 9 401 11 554 86 167 82 301 239 368 429 l28
80 0 365 c0 401 -5 445 -65 590 -98 237 -322 421 -579 476 -72 15 -309 16
-556 3z m367 -1001 c3 -101 4 -184 3 -185 0 -1 -76 -5 -168 -9 l-167 -7 0 186
0 186 133 4 c72 1 146 4 163 5 l32 2 4 -182z"/>
<path d="M62245 33999 c-162 -8 -251 -30 -365 -90 -155 -81 -270 -198 -345
-354 -78 -161 -80 -179 -80 -600 0 -360 1 -372 23 -445 76 -243 250 -426 481
-506 111 -39 181 -43 546 -34 373 9 400 13 531 75 169 81 304 227 370 401 48
126 54 191 48 514 -3 162 -10 326 -15 364 -23 163 -94 309 -213 433 -117 124
-239 195 -399 233 -89 22 -293 25 -582 9z m375 -1002 l0 -184 -97 -6 c-54 -4
-131 -7 -171 -7 l-72 0 2 183 3 182 135 5 c74 3 150 7 168 8 l32 2 0 -183z"/>
<path d="M58016 31880 c-114 -5 -238 -13 -274 -20 -256 -44 -489 -234 -588
-478 -57 -143 -59 -158 -59 -552 0 -411 2 -425 76 -576 97 -199 273 -338 498
-395 79 -20 101 -21 440 -16 403 5 425 8 577 82 165 80 306 238 368 412 45
127 50 204 38 563 -12 364 -15 388 -87 535 -129 266 -384 433 -686 448 -52 3
-188 1 -303 -3z m244 -1015 l0 -185 -139 0 c-76 0 -153 -3 -170 -6 l-31 -6 0
148 c0 82 3 166 6 186 l6 37 72 4 c39 1 113 4 164 5 l92 2 0 -185z"/>
<path d="M60215 31880 c-227 -9 -304 -19 -400 -54 -112 -40 -196 -95 -286
-185 -97 -97 -155 -189 -193 -302 -43 -127 -48 -193 -44 -556 4 -320 5 -342
27 -408 86 -262 283 -450 538 -516 67 -17 112 -19 382 -19 168 0 345 5 393 10
100 12 221 51 305 101 87 51 221 190 265 274 90 173 100 250 89 670 -8 281
-12 329 -30 395 -99 344 -389 576 -743 593 -51 3 -187 1 -303 -3z m239 -852
c3 -13 6 -96 6 -185 l0 -163 -139 0 c-76 0 -153 -3 -170 -6 l-31 -6 0 185 0
186 78 4 c232 10 249 9 256 -15z"/>
<path d="M62473 31880 c-258 -10 -353 -28 -478 -90 -208 -104 -360 -295 -417
-525 -20 -84 -22 -113 -22 -430 -1 -393 5 -434 81 -588 39 -78 61 -107 142
-187 111 -110 208 -166 350 -201 79 -20 104 -21 440 -17 324 5 363 7 434 26
258 70 448 254 529 512 22 73 23 84 22 435 -1 331 -3 367 -22 447 -87 357
-384 603 -750 622 -48 2 -187 0 -309 -4z m249 -1015 l3 -185 -145 0 c-80 0
-155 -3 -167 -6 l-23 -6 0 185 0 186 78 4 c42 1 116 4 164 5 l87 2 3 -185z"/>
<path d="M5695 43750 c-165 -34 -287 -147 -330 -303 -16 -61 -15 -246 29
-4098 26 -2219 46 -4107 46 -4196 l0 -162 -119 -61 c-323 -167 -608 -465 -771
-807 -54 -113 -105 -268 -131 -404 -31 -157 -31 -389 0 -536 61 -293 188 -520
405 -730 123 -120 249 -208 401 -283 109 -54 301 -120 403 -140 l62 -13 0
-351 c0 -361 -9 -1765 -35 -5386 -27 -3856 -37 -5533 -33 -5990 l3 -455 32
-68 c40 -84 111 -155 199 -198 120 -60 282 -50 396 22 93 60 163 159 186 264
8 34 15 607 22 1845 6 987 15 2400 20 3140 19 2641 31 4376 39 5778 5 783 11
1426 14 1429 3 2 47 19 99 37 365 127 661 385 822 715 24 49 48 103 54 120 11
31 11 31 84 31 608 -2 11253 72 11304 78 144 18 256 98 321 230 37 73 38 80
38 182 0 102 -1 109 -38 182 -59 121 -166 202 -295 226 -44 8 -4732 -18
-10800 -60 l-552 -4 -10 40 c-126 508 -447 923 -875 1131 -100 49 -274 109
-348 120 -26 4 -50 12 -53 17 -3 5 -28 1877 -54 4161 -35 2984 -52 4163 -60
4192 -46 159 -173 274 -334 304 -67 12 -84 12 -141 1z"/>
<path d="M2017 18930 c-191 -24 -354 -73 -522 -156 -380 -188 -671 -538 -790
-949 -55 -191 -55 -199 -66 -1100 -12 -966 -4 -5431 12 -7260 6 -654 12 -2747
14 -4650 l3 -3460 25 -105 c26 -110 82 -271 124 -353 209 -416 615 -727 1070
-822 129 -26 287 -34 868 -40 314 -3 968 -10 1455 -15 1117 -13 4277 -13 4965
0 454 8 535 12 634 30 222 40 459 136 640 260 398 272 641 671 711 1165 10 75
30 1408 110 7340 64 4740 98 7220 109 7987 12 734 6 817 -76 1052 -182 524
-628 903 -1173 997 -103 18 -188 21 -835 29 -396 5 -1447 14 -2335 20 -2015
13 -4031 28 -4510 34 -201 3 -396 1 -433 -4z m2773 -850 c3776 -27 4436 -32
4810 -39 l405 -7 86 -31 c222 -77 392 -264 445 -488 18 -79 20 123 -16 -2445
-19 -1324 -35 -2510 -110 -8100 -82 -6069 -69 -5389 -99 -5502 -59 -227 -215
-418 -426 -522 -140 -70 -177 -76 -465 -86 -1078 -38 -7164 -8 -7375 35 -38 8
-113 36 -165 61 -79 39 -110 62 -181 134 -73 72 -94 101 -132 180 -81 168 -77
58 -67 1725 8 1366 0 4996 -15 6480 -15 1559 -24 5206 -15 6550 10 1617 5
1523 80 1680 88 184 254 321 454 376 68 19 98 19 751 14 374 -3 1290 -10 2035
-15z"/>
<path d="M4779 17921 c-98 -31 -194 -112 -240 -203 -122 -239 4 -523 266 -597
26 -7 422 -18 1171 -31 1003 -17 1138 -18 1188 -5 147 38 248 133 296 276 18
52 21 81 18 151 -4 75 -9 96 -41 161 -65 131 -176 209 -325 227 -67 9 -1886
42 -2172 40 -72 -1 -123 -7 -161 -19z"/>
<path d="M2133 16575 c-157 -35 -278 -149 -317 -299 -45 -173 -48 -4040 -4
-7056 6 -443 12 -1890 13 -3217 l3 -2412 30 -66 c58 -122 172 -210 307 -234
85 -15 1506 -29 4045 -41 1174 -5 2450 -12 2835 -15 762 -6 766 -6 861 50 102
60 184 182 203 302 22 144 34 3085 22 5503 -14 2885 -14 4967 0 6169 10 908
10 914 -10 981 -47 154 -172 260 -346 294 -16 3 -1155 10 -2530 16 -2436 9
-4794 25 -4965 34 -52 3 -109 0 -147 -9z m4351 -854 c1545 -6 2810 -12 2812
-14 2 -1 -2 -603 -8 -1337 -7 -962 -7 -1979 1 -3640 13 -2577 14 -5039 4
-6013 l-6 -647 -1256 6 c-1937 7 -4459 23 -4936 31 l-430 6 -1 1806 c0 993 -6
2234 -12 2756 -29 2338 -34 2996 -35 4650 0 968 3 1909 8 2090 l7 330 522 -7
c286 -3 1785 -11 3330 -17z"/>
<path d="M5533 3196 c-603 -115 -1030 -734 -908 -1316 81 -384 390 -691 803
-796 383 -97 777 0 1032 256 311 310 391 845 189 1269 -174 367 -508 584 -914
597 -84 2 -155 -1 -202 -10z m276 -848 c141 -67 161 -373 28 -446 -23 -12 -56
-17 -117 -17 -77 0 -92 3 -153 33 -89 44 -127 93 -127 166 0 116 113 260 224
286 41 10 91 2 145 -22z"/>
<path d="M54165 18874 c-22 -2 -98 -9 -170 -14 -701 -58 -1463 -276 -2064
-591 -486 -255 -843 -519 -1242 -918 -219 -219 -351 -370 -512 -586 -676 -905
-1084 -2014 -1167 -3170 -13 -181 -13 -591 0 -770 39 -536 151 -1035 343
-1525 77 -198 257 -554 372 -739 100 -159 398 -560 756 -1016 502 -640 676
-898 822 -1220 183 -404 260 -841 243 -1385 -4 -118 -11 -231 -16 -250 -4 -19
-31 -100 -59 -180 -134 -383 -226 -789 -278 -1227 -26 -215 -26 -837 0 -1043
59 -472 180 -897 368 -1296 39 -83 113 -163 187 -202 89 -47 569 -204 809
-263 l212 -52 11 -63 c43 -250 154 -467 335 -653 191 -197 432 -332 723 -406
361 -91 876 -84 1217 17 450 133 730 450 838 951 l22 101 105 22 c356 75 699
188 975 320 128 61 187 118 242 234 149 313 249 718 305 1234 19 174 22 258
23 621 0 427 -4 503 -46 825 -39 305 -120 650 -208 883 l-39 105 9 113 c71
919 295 1728 632 2280 124 205 204 304 457 564 266 274 462 520 672 840 552
840 883 1825 958 2850 13 181 13 633 0 806 -78 1010 -411 1923 -980 2684 -331
442 -768 851 -1250 1170 -780 516 -1652 821 -2660 931 -136 15 -838 28 -945
18z m665 -834 c702 -44 1338 -209 1945 -505 1240 -605 2052 -1640 2314 -2950
273 -1361 -83 -2862 -950 -4006 -124 -162 -249 -306 -450 -514 -239 -247 -366
-411 -516 -665 -364 -617 -611 -1460 -708 -2410 -9 -87 -20 -157 -27 -161 -37
-23 -604 -179 -650 -179 -22 0 -22 3 -3 251 84 1055 341 2297 698 3371 237
712 454 1203 712 1608 193 305 274 476 334 715 32 128 42 211 43 351 0 330
-114 618 -352 892 -234 267 -558 402 -970 402 -336 0 -613 -69 -949 -235 -322
-160 -491 -201 -786 -192 -303 10 -403 44 -760 257 -248 148 -313 182 -442
234 -346 139 -655 148 -994 30 -328 -114 -561 -320 -728 -644 -151 -291 -222
-580 -222 -897 0 -180 18 -305 67 -453 45 -134 85 -208 190 -347 112 -147 194
-285 318 -533 524 -1052 1026 -2649 1236 -3930 55 -336 114 -860 98 -875 -14
-14 -546 120 -803 202 l-90 29 -6 284 c-7 297 -22 468 -64 695 -95 513 -299
986 -641 1481 -124 180 -259 359 -568 754 -585 747 -719 942 -881 1285 -476
1002 -521 2262 -124 3448 362 1081 1046 1981 1924 2530 163 102 508 276 685
346 661 261 1397 376 2120 331z m-1925 -4475 c91 -24 207 -83 458 -232 263
-156 396 -219 566 -268 576 -166 1141 -110 1691 167 96 49 216 102 266 118
239 76 515 76 642 -2 47 -29 136 -143 174 -224 32 -66 33 -74 32 -184 0 -102
-4 -125 -32 -207 -42 -123 -86 -210 -197 -383 -222 -349 -377 -659 -560 -1120
-546 -1373 -939 -3148 -1011 -4561 l-7 -137 -45 -6 c-59 -8 -564 -8 -669 1
l-82 6 -5 51 c-3 28 -12 143 -21 256 -51 644 -195 1431 -411 2238 -374 1397
-948 2816 -1365 3369 -97 129 -104 142 -118 218 -45 245 59 617 220 786 103
106 310 156 474 114z m-520 -7551 c814 -243 1688 -360 2432 -326 590 28 1121
116 1642 273 73 22 136 38 138 35 5 -5 53 -193 53 -207 0 -3 -37 -23 -82 -44
-811 -371 -2248 -461 -3493 -219 -310 61 -649 153 -863 235 -80 30 -83 33 -77
58 3 14 20 77 37 139 25 94 33 112 47 107 9 -4 84 -27 166 -51z m-289 -1094
c255 -88 686 -194 989 -244 509 -85 900 -117 1430 -117 660 0 1183 59 1725
196 119 30 410 120 483 150 16 7 17 -2 15 -135 l-3 -143 -145 -53 c-640 -232
-1244 -346 -1915 -361 -775 -17 -1548 114 -2423 411 -122 42 -229 76 -237 76
-12 0 -15 21 -15 125 0 69 1 125 3 125 2 0 43 -14 93 -30z m247 -1201 c1105
-330 2125 -420 3147 -278 298 41 745 141 1011 225 61 20 112 34 114 32 4 -4
-63 -235 -75 -258 -17 -31 -161 -87 -400 -156 -1057 -304 -2609 -259 -3750
108 l-135 44 -37 93 c-39 97 -90 251 -82 251 2 0 95 -27 207 -61z m1747 -1460
c119 -7 355 -9 562 -7 339 5 357 4 348 -13 -36 -67 -173 -128 -333 -149 -124
-16 -429 -13 -538 6 -153 26 -281 79 -374 154 l-40 33 85 -7 c47 -3 177 -11
290 -17z"/>
<path d="M27185 15860 c-226 -34 -395 -167 -499 -392 -19 -40 -57 -149 -85
-243 -27 -93 -244 -782 -481 -1530 -237 -748 -441 -1401 -454 -1450 -74 -278
-58 -492 51 -710 96 -192 289 -364 544 -484 126 -59 126 -59 1694 -616 693
-247 1262 -450 1264 -452 6 -4 13 17 -166 -478 -278 -768 -573 -1515 -812
-2057 l-82 -185 -77 -7 c-431 -39 -962 -287 -1310 -611 l-82 -77 -453 13
c-473 12 -1046 8 -1407 -12 -113 -6 -252 -12 -310 -12 l-105 -2 -3 50 c-11
218 -54 542 -104 769 -54 253 -165 557 -264 728 -116 200 -286 388 -449 494
-345 225 -788 243 -1176 48 -480 -240 -731 -1004 -800 -2434 -21 -437 -2
-1482 36 -1930 99 -1191 242 -1957 435 -2342 103 -204 298 -396 516 -508 172
-88 344 -126 536 -117 530 23 940 430 1157 1147 112 369 170 773 192 1343 6
155 11 282 12 283 1 1 561 7 1245 14 l1242 12 110 -105 c289 -275 637 -445
1021 -498 121 -17 367 -16 489 0 737 102 1359 601 1583 1272 95 283 113 638
47 916 l-18 75 110 241 c284 624 469 1083 903 2242 169 451 308 821 309 822 1
1 139 -45 306 -104 705 -244 1616 -551 2375 -799 446 -146 999 -328 1230 -406
387 -129 427 -141 510 -145 202 -12 387 85 520 272 63 88 145 265 205 439 28
82 52 151 54 153 2 3 185 -52 407 -122 459 -143 535 -160 694 -152 338 17 637
200 808 493 86 148 342 833 382 1025 19 89 19 265 1 361 -36 186 -128 360
-261 494 -140 143 -217 182 -787 410 -130 52 -241 94 -247 94 -6 0 -11 6 -11
13 0 7 38 114 84 238 155 417 216 625 216 741 0 146 -78 290 -198 366 -71 45
-1110 432 -2059 766 -1863 656 -3815 1283 -6473 2079 -1400 420 -1870 556
-1952 567 -90 11 -90 11 -163 0z m685 -1010 c3401 -1004 5862 -1790 8000
-2555 676 -242 1019 -369 1014 -377 -5 -8 -462 -202 -642 -272 -538 -209 -963
-313 -1452 -355 -355 -31 -1361 -50 -1675 -32 -757 44 -1676 254 -2930 668
-781 258 -1533 537 -2785 1033 -294 117 -541 215 -547 217 -7 3 -13 11 -13 18
0 11 288 929 460 1465 38 118 76 241 85 272 10 35 21 55 28 53 7 -2 212 -63
457 -135z m-485 -2780 c1768 -699 2954 -1103 4009 -1365 553 -138 963 -213
1456 -266 155 -17 1072 -23 1455 -10 809 28 1268 103 1875 308 125 42 492 180
585 219 6 3 10 -39 10 -113 0 -108 2 -123 27 -176 15 -32 41 -76 58 -97 42
-53 141 -117 209 -136 145 -40 208 -60 371 -121 187 -69 639 -252 703 -284 43
-22 77 -71 77 -110 0 -36 -65 -230 -161 -481 -132 -344 -144 -365 -229 -388
-44 -12 -7 -22 -555 150 -383 121 -521 166 -670 220 -50 18 -76 21 -155 18
-83 -3 -103 -8 -162 -37 -80 -40 -157 -116 -192 -192 -14 -30 -48 -133 -77
-229 -56 -194 -135 -438 -147 -457 -14 -23 -2973 962 -4392 1462 -98 35 -110
37 -200 33 -79 -3 -105 -9 -155 -33 -70 -34 -161 -120 -193 -185 -26 -53 -162
-409 -514 -1349 -425 -1137 -615 -1602 -941 -2302 -53 -113 -101 -225 -106
-250 -18 -77 -12 -140 23 -261 81 -275 67 -496 -44 -718 -151 -299 -481 -531
-829 -581 -113 -16 -304 -7 -406 20 -215 57 -416 197 -567 394 -82 107 -148
154 -253 182 -49 12 -253 12 -1638 0 -870 -8 -1610 -19 -1644 -24 -155 -23
-283 -129 -339 -281 -14 -39 -16 -95 -15 -420 3 -513 -17 -817 -75 -1149 -46
-268 -96 -435 -184 -616 -130 -266 -264 -354 -416 -271 -121 66 -171 148 -238
394 -243 883 -369 2738 -270 3972 51 644 158 1127 293 1323 25 36 40 47 87 62
76 24 179 23 235 -3 289 -129 477 -733 495 -1587 3 -132 9 -269 15 -305 27
-181 166 -320 350 -349 33 -6 73 -8 87 -6 40 7 353 32 647 52 216 15 391 18
1030 17 424 0 858 -5 966 -11 336 -17 355 -10 578 215 177 179 280 255 471
346 218 103 364 136 599 136 219 0 297 26 394 129 53 56 104 155 245 472 314
704 658 1590 1075 2764 l121 340 1 105 c0 98 -2 110 -32 172 -36 76 -108 155
-171 187 -22 11 -762 277 -1644 591 -943 335 -1644 590 -1703 618 -55 27 -115
63 -133 80 -30 28 -32 35 -27 69 9 53 29 126 81 289 l45 142 197 -78 c108 -43
382 -151 607 -240z"/>
<path d="M12088 11481 c-121 -31 -218 -115 -275 -237 -25 -52 -28 -71 -28
-159 1 -81 5 -111 24 -158 44 -111 132 -196 249 -241 l57 -21 5700 -3 c3788
-1 5718 1 5755 8 219 40 381 263 342 471 -32 174 -148 300 -319 344 -50 13
-735 15 -5748 14 -5368 0 -5694 -1 -5757 -18z"/>
<path d="M40212 11489 c-123 -24 -231 -108 -289 -227 -37 -73 -38 -80 -38
-181 0 -98 2 -111 31 -171 39 -83 83 -133 157 -181 116 -75 -240 -69 4014 -69
4127 0 3879 -3 3984 51 89 45 170 144 204 248 28 85 18 217 -23 302 -56 116
-172 204 -302 229 -66 12 -7674 12 -7738 -1z"/>
</g>
</svg>
