<?xml version="1.0" standalone="no"?>
<!DOCTYPE svg PUBLIC "-//W3C//DTD SVG 20010904//EN"
 "http://www.w3.org/TR/2001/REC-SVG-20010904/DTD/svg10.dtd">
<svg version="1.0" xmlns="http://www.w3.org/2000/svg"
 width="1118.000000pt" height="1116.000000pt" viewBox="0 0 1118.000000 1116.000000"
 preserveAspectRatio="xMidYMid meet">

<g transform="translate(0.000000,1116.000000) scale(0.100000,-0.100000)"
fill="#000000" stroke="none">
<path d="M8340 9940 c-203 -45 -305 -95 -435 -215 -203 -185 -301 -448 -274
-736 12 -128 39 -242 74 -314 57 -117 207 -286 320 -360 146 -95 238 -123 435
-131 113 -5 151 -3 234 14 172 36 311 117 444 257 91 95 142 173 182 276 49
128 63 201 63 339 0 212 -61 399 -176 545 -124 157 -265 255 -452 315 -100 32
-296 37 -415 10z m303 -81 c152 -24 287 -96 414 -221 75 -74 100 -108 141
-187 28 -53 55 -114 62 -136 17 -59 29 -299 18 -377 -22 -167 -97 -310 -228
-438 -174 -169 -333 -227 -602 -218 -111 4 -146 9 -212 32 -172 59 -373 243
-446 409 -31 69 -70 257 -70 335 0 136 50 340 107 440 66 115 218 244 351 297
168 68 312 88 465 64z"/>
<path d="M8461 9704 c-1 -58 2 -111 7 -117 6 -8 6 -48 0 -112 -5 -55 -8 -144
-5 -197 4 -96 4 -97 -24 -117 -61 -46 -61 -147 1 -206 59 -56 142 -33 182 50
19 40 20 48 9 86 -7 24 -26 55 -42 70 l-29 27 0 169 c0 125 -4 175 -14 195
-13 25 -13 28 6 34 18 5 20 12 14 58 -3 28 -6 77 -6 109 l0 57 -48 0 -48 0 -3
-106z m83 -636 c12 -20 -8 -48 -35 -48 -16 0 -39 26 -39 45 0 8 42 24 54 21 5
-1 14 -9 20 -18z"/>
<path d="M8006 9617 l-25 -33 63 -67 c35 -37 68 -67 74 -67 6 0 22 14 36 31
l27 31 -26 32 c-14 17 -37 48 -50 69 -33 48 -64 50 -99 4z"/>
<path d="M8905 9589 c-72 -91 -69 -83 -40 -118 15 -17 32 -31 38 -31 7 0 22
18 35 40 12 22 41 52 62 66 22 15 40 30 40 34 0 14 -61 60 -78 60 -9 -1 -35
-24 -57 -51z"/>
<path d="M7787 9113 c-26 -4 -28 -7 -25 -46 l3 -42 100 0 100 0 3 35 c5 47
-17 60 -92 59 -34 -1 -74 -4 -89 -6z"/>
<path d="M9044 9094 c-4 -15 -3 -39 2 -53 9 -24 15 -26 69 -29 33 -2 75 0 93
3 30 5 32 9 32 46 0 23 -5 41 -12 43 -7 3 -50 7 -95 10 l-83 6 -6 -26z"/>
<path d="M8055 8647 c-52 -52 -65 -89 -40 -117 10 -11 23 -20 29 -20 7 0 38
26 70 59 52 53 57 60 45 79 -7 11 -24 26 -37 32 -22 9 -29 6 -67 -33z"/>
<path d="M8864 8655 c-14 -14 -24 -29 -22 -34 6 -17 83 -103 100 -112 12 -7
25 -2 47 17 17 14 31 31 31 38 0 21 -91 116 -111 116 -11 0 -31 -11 -45 -25z"/>
<path d="M8466 8494 c-8 -59 -8 -118 0 -138 4 -11 19 -16 45 -16 44 0 44 0 53
109 7 76 -2 91 -54 91 -37 0 -37 -1 -44 -46z"/>
<path d="M1351 9923 c-51 -25 -98 -77 -110 -120 -7 -25 -11 -393 -11 -1106 0
-1166 -4 -1092 58 -1150 24 -23 37 -28 68 -25 35 3 39 1 42 -22 5 -49 13 -71
31 -89 17 -17 48 -17 582 -13 310 2 567 7 572 11 4 4 10 31 14 59 5 46 8 52
30 52 35 0 85 24 113 55 l25 27 0 1118 0 1119 -30 31 c-16 18 -47 40 -67 51
-35 18 -67 19 -660 19 -564 0 -626 -2 -657 -17z m1302 -106 c28 -26 29 -30 23
-80 -3 -28 -6 -109 -6 -179 l0 -128 -670 0 -670 0 0 171 c0 181 8 216 52 236
10 4 293 8 630 8 l610 0 31 -28z m17 -1361 c0 -674 -2 -815 -14 -825 -9 -8
-192 -10 -667 -9 l-654 3 -3 820 -2 820 670 3 670 2 0 -814z m-358 -926 c191
0 198 -1 198 -20 0 -19 -9 -20 -502 -22 -277 -2 -504 -3 -504 -3 -1 0 -5 10
-8 22 l-7 23 238 3 c131 2 271 2 312 0 41 -2 163 -3 273 -3z"/>
<path d="M2462 9734 c-31 -22 -52 -66 -52 -113 0 -31 7 -49 30 -75 38 -43 72
-52 109 -30 61 36 80 115 42 177 -33 54 -87 71 -129 41z m86 -111 c3 -19 -1
-23 -22 -23 -28 0 -41 14 -32 36 9 24 50 13 54 -13z"/>
<path d="M2220 9712 c-33 -34 -48 -92 -31 -128 13 -30 67 -64 102 -64 42 0 89
63 89 120 0 23 -10 42 -34 66 -44 44 -86 46 -126 6z m84 -71 c9 -14 -4 -41
-20 -41 -8 0 -14 10 -14 25 0 25 23 35 34 16z"/>
<path d="M1468 9124 c-15 -8 -32 -23 -38 -34 -6 -11 -10 -139 -10 -337 0 -301
1 -320 20 -351 11 -18 36 -40 55 -48 30 -12 39 -12 69 0 64 27 66 38 66 390 0
223 -3 323 -12 341 -23 50 -95 69 -150 39z m72 -308 c0 -128 3 -261 6 -295 6
-57 5 -61 -14 -61 -11 0 -23 7 -26 16 -8 21 -8 559 1 567 3 4 12 7 20 7 10 0
13 -46 13 -234z"/>
<path d="M5144 9135 l-33 -35 -1094 0 c-961 0 -1096 2 -1107 15 -17 21 -36 19
-70 -7 -42 -31 -40 -69 3 -102 40 -31 50 -32 73 -8 16 16 84 17 1104 19 l1087
2 22 -30 23 -31 -1 -896 c-1 -495 3 -903 7 -910 5 -8 22 -12 38 -10 l29 3 5
896 5 896 41 42 42 41 1110 -1 c822 -1 1115 2 1131 11 23 12 22 44 -3 65 -7 7
-390 8 -1126 5 -613 -3 -1117 -1 -1118 3 -2 4 -15 21 -29 37 -20 24 -33 30
-65 30 -33 0 -46 -6 -74 -35z"/>
<path d="M8479 8104 c-12 -14 -15 -132 -17 -721 l-3 -703 -250 0 c-283 0 -306
-5 -354 -78 l-25 -38 0 -558 c-1 -551 0 -558 21 -592 11 -19 36 -46 55 -61
l35 -26 259 7 260 7 2 -143 c0 -79 1 -354 2 -613 l1 -470 36 -3 37 -3 6 113
c3 62 5 337 3 610 l-2 498 588 0 c487 0 593 2 615 14 31 16 74 61 91 93 16 32
14 1095 -2 1143 -8 21 -28 45 -55 65 l-44 30 -581 3 c-320 1 -589 4 -597 5
-13 2 -15 89 -15 717 l0 715 -26 3 c-15 2 -32 -4 -40 -14z m1224 -1526 c59
-23 57 -5 57 -581 l0 -528 -26 -25 -25 -26 -877 6 -877 7 -18 22 c-18 20 -19
49 -15 547 3 442 5 530 18 555 15 29 18 30 95 35 163 10 1639 0 1668 -12z"/>
<path d="M9275 6540 c-58 -24 -93 -101 -70 -156 34 -81 110 -109 169 -63 82
65 71 160 -25 209 -42 22 -45 22 -74 10z m59 -86 c19 -18 20 -28 6 -55 -14
-26 -56 -25 -71 2 -9 17 -7 25 12 45 26 28 32 29 53 8z"/>
<path d="M8993 6521 c-41 -26 -62 -86 -44 -129 6 -15 23 -40 37 -55 44 -48
122 -30 164 38 28 44 21 81 -24 124 -42 41 -90 49 -133 22z m82 -101 c0 -32
-2 -35 -30 -35 -36 0 -45 27 -19 56 27 30 49 20 49 -21z"/>
<path d="M9510 6527 c-31 -24 -50 -62 -50 -100 0 -73 46 -127 108 -127 130 0
168 165 52 225 -35 18 -89 19 -110 2z m94 -86 c14 -15 15 -24 6 -40 -19 -36
-80 -22 -80 19 0 39 46 52 74 21z"/>
<path d="M8640 6510 c-186 -11 -290 -26 -307 -43 -13 -13 -11 -16 18 -22 19
-4 119 -6 224 -4 l190 4 3 -47 3 -48 -138 0 c-76 -1 -253 -3 -393 -6 l-255 -6
0 -397 c0 -323 3 -401 14 -414 12 -15 53 -17 410 -17 232 0 402 4 411 10 13 8
15 75 15 502 l0 493 -30 1 c-16 1 -91 -2 -165 -6z m122 -565 c2 -184 2 -340 0
-345 -2 -6 -130 -10 -351 -10 l-348 0 -6 98 c-8 107 -9 576 -3 583 2 2 162 5
355 7 l350 2 3 -335z"/>
<path d="M8970 6223 c-14 -3 -35 -14 -47 -26 -20 -18 -23 -31 -23 -93 0 -103
22 -121 142 -112 81 6 108 34 108 113 0 65 -14 99 -47 114 -24 11 -84 13 -133
4z m98 -111 c3 -38 1 -43 -25 -53 -41 -15 -70 -4 -78 30 -3 17 -1 39 5 51 9
17 19 21 53 18 42 -3 42 -3 45 -46z"/>
<path d="M9230 6213 c-42 -29 -49 -46 -50 -109 0 -52 3 -64 26 -85 23 -21 35
-24 104 -24 92 0 106 9 121 74 14 61 -4 117 -44 141 -41 25 -123 27 -157 3z
m109 -62 c18 -11 19 -65 1 -85 -33 -41 -100 -4 -84 47 13 45 47 60 83 38z"/>
<path d="M9550 6223 c-96 -12 -131 -152 -53 -213 20 -16 41 -20 94 -20 61 0
70 3 88 26 37 47 26 186 -16 197 -35 10 -78 14 -113 10z m74 -79 c18 -18 20
-33 6 -68 -8 -21 -16 -26 -43 -26 -18 0 -38 5 -45 12 -13 13 -16 56 -6 82 8
21 67 21 88 0z"/>
<path d="M8945 5948 c-36 -19 -45 -40 -45 -108 0 -85 12 -101 82 -110 74 -10
117 0 141 32 36 49 18 174 -28 192 -27 10 -128 6 -150 -6z m113 -60 c7 -7 12
-29 12 -50 l0 -38 -45 0 c-39 0 -47 4 -57 25 -23 50 51 102 90 63z"/>
<path d="M9217 5944 c-33 -18 -47 -50 -47 -104 0 -90 49 -126 156 -115 75 9
93 26 101 100 8 63 -3 93 -40 115 -39 24 -129 26 -170 4z m114 -54 c13 -7 19
-21 19 -44 0 -43 -20 -60 -60 -51 -39 8 -55 37 -39 68 20 38 44 46 80 27z"/>
<path d="M9485 5938 c-24 -21 -29 -34 -33 -85 -4 -55 -2 -63 24 -92 26 -27 37
-32 101 -37 67 -6 73 -5 97 19 23 23 26 34 26 95 0 100 -15 115 -112 120 -68
4 -77 2 -103 -20z m143 -60 c6 -6 12 -21 12 -34 0 -41 -69 -71 -98 -42 -16 16
-15 85 1 91 16 7 69 -3 85 -15z"/>
<path d="M8944 5688 c-29 -14 -44 -49 -44 -104 0 -50 20 -98 45 -108 25 -9
131 -7 159 4 51 19 60 156 13 200 -16 16 -34 20 -86 19 -36 0 -76 -5 -87 -11z
m125 -62 c7 -8 11 -30 9 -48 -3 -31 -5 -33 -48 -36 -33 -3 -47 1 -57 14 -18
25 -16 61 5 73 25 15 78 13 91 -3z"/>
<path d="M9211 5671 c-25 -23 -31 -37 -31 -70 0 -52 22 -106 48 -120 26 -14
127 -14 153 -1 23 13 49 61 49 92 0 13 -5 40 -11 61 -13 46 -52 67 -128 67
-40 0 -54 -5 -80 -29z m131 -48 c22 -20 23 -56 2 -77 -19 -20 -27 -20 -64 -1
-34 18 -39 48 -13 77 20 22 51 23 75 1z"/>
<path d="M9485 5667 c-30 -30 -35 -42 -35 -82 0 -40 5 -52 34 -81 31 -31 39
-34 96 -34 34 0 70 5 80 10 45 24 51 158 9 196 -14 12 -41 19 -84 22 -63 4
-66 3 -100 -31z m127 -44 c20 -18 24 -63 6 -81 -30 -30 -90 -3 -90 41 0 53 46
75 84 40z"/>
<path d="M1956 7328 c-4 -18 -6 -315 -5 -660 l1 -628 -30 -25 c-52 -43 -50
-119 3 -175 l25 -26 2 -889 3 -890 38 -3 37 -3 1 328 c1 180 0 583 -1 894 l-2
565 25 17 c14 9 28 24 31 34 5 17 50 18 886 15 l880 -2 0 40 0 41 -880 -3
c-484 -2 -880 0 -880 4 0 4 -14 23 -32 43 l-31 36 5 647 c3 356 3 653 1 660
-3 6 -19 12 -38 12 -29 0 -33 -4 -39 -32z"/>
<path d="M9450 7168 c-11 -12 -20 -32 -20 -45 l0 -23 20 20 c16 16 33 20 80
20 46 0 58 3 54 14 -15 38 -103 47 -134 14z"/>
<path d="M5019 7052 c-150 -40 -210 -73 -305 -167 -100 -99 -152 -189 -178
-307 -6 -26 -10 -28 -59 -28 -146 -1 -283 -57 -385 -159 -121 -121 -172 -251
-172 -441 0 -198 43 -303 180 -441 67 -67 102 -94 160 -121 136 -65 112 -63
912 -61 717 1 729 1 800 23 143 43 240 111 329 234 97 131 132 265 111 413
-16 108 -26 140 -69 211 -91 150 -255 267 -391 279 -57 5 -63 8 -68 32 -26
127 -51 181 -127 276 -138 172 -326 269 -542 281 -77 4 -105 0 -196 -24z m292
-92 c94 -17 235 -94 310 -169 87 -87 144 -201 160 -316 6 -44 14 -83 17 -87 4
-3 48 -8 97 -10 78 -3 100 -8 157 -36 169 -83 258 -229 258 -422 0 -226 -127
-402 -339 -472 -64 -21 -83 -21 -761 -26 -483 -3 -713 -1 -755 7 -33 6 -91 26
-130 45 -178 84 -290 239 -309 426 -25 250 100 455 324 530 55 19 76 20 161
14 l98 -6 15 53 c8 30 18 70 21 89 13 66 66 157 126 217 117 117 245 172 400
173 53 0 121 -4 150 -10z"/>
<path d="M6484 5946 c-3 -8 -4 -25 -2 -38 l3 -23 616 -3 c339 -1 634 1 655 6
35 7 39 11 39 37 l0 30 -653 3 c-559 2 -653 0 -658 -12z"/>
<path d="M5163 5298 c-10 -16 -18 -1137 -8 -1225 l7 -63 32 0 33 0 6 603 c3
331 3 622 -1 647 -6 39 -10 45 -34 48 -14 2 -30 -3 -35 -10z"/>
<path d="M8320 3987 c-102 -28 -163 -54 -227 -98 -211 -143 -339 -378 -358
-656 -12 -165 43 -357 146 -514 33 -49 59 -91 59 -94 0 -2 13 -24 30 -48 38
-57 85 -151 100 -202 6 -22 15 -93 20 -157 5 -65 14 -127 20 -138 9 -17 8 -27
-4 -45 -20 -31 -20 -59 0 -91 16 -23 15 -26 -1 -44 -15 -17 -17 -30 -10 -82 4
-35 10 -96 14 -136 7 -81 25 -107 83 -119 20 -4 42 -25 78 -73 27 -38 71 -83
97 -102 46 -32 52 -33 138 -33 109 1 132 11 233 106 39 38 76 69 82 69 5 0 13
12 16 26 4 16 11 23 21 20 19 -8 70 19 82 43 6 10 10 65 10 122 0 57 1 118 2
134 0 17 0 44 0 60 -1 17 -1 43 -1 59 0 16 -6 38 -14 50 -11 18 -11 25 -1 39
6 9 15 61 18 115 13 186 46 275 172 457 165 238 224 430 196 640 -33 258 -210
514 -432 626 -121 61 -202 81 -349 85 -119 4 -145 2 -220 -19z m410 -106 c101
-32 187 -88 286 -186 78 -78 98 -104 137 -185 72 -148 92 -297 61 -448 -21
-102 -75 -216 -177 -370 -136 -204 -157 -258 -166 -412 l-6 -105 -87 -3 -88
-3 0 50 c0 27 14 130 30 228 32 187 91 384 186 615 48 117 56 174 26 201 -49
44 -150 59 -222 34 -19 -7 -64 -34 -99 -60 -35 -26 -70 -47 -78 -47 -9 0 -38
16 -66 36 -112 80 -218 105 -302 70 -77 -32 -81 -84 -18 -234 19 -48 53 -130
75 -182 74 -178 138 -446 154 -642 l7 -81 -54 6 c-30 4 -72 7 -95 7 l-41 0 -7
81 c-14 170 -44 249 -158 417 -131 194 -198 362 -198 496 0 133 34 272 101
411 67 138 234 268 409 317 90 25 296 20 390 -11z m-362 -680 c53 -27 50 -35
-9 -22 -82 19 -99 13 -41 -14 117 -54 247 -72 302 -40 14 8 19 14 13 15 -28 0
-10 19 49 50 47 25 74 33 117 34 l56 1 -1 -45 c-1 -25 -14 -72 -29 -105 -98
-219 -182 -538 -206 -789 l-13 -128 -66 6 c-36 4 -68 10 -71 14 -4 4 -12 54
-19 112 -22 205 -91 471 -168 656 -72 169 -104 262 -96 275 11 19 133 5 182
-20z m508 -1133 c4 -5 4 -11 0 -15 -8 -8 -676 -17 -676 -9 0 2 3 12 6 21 6 14
38 16 334 13 181 -2 332 -6 336 -10z m-11 -119 c4 -6 5 -12 3 -14 -2 -3 -141
-7 -309 -11 -299 -6 -359 -2 -359 26 0 14 656 14 665 -1z m-17 -127 c2 -7 0
-12 -5 -12 -4 0 -151 -3 -325 -6 -300 -4 -318 -4 -318 13 0 17 20 18 322 17
239 0 323 -3 326 -12z m0 -117 c6 -2 12 -8 12 -12 0 -10 -646 -10 -655 -1 -23
23 25 26 317 22 172 -3 319 -7 326 -9z m-185 -94 c54 -4 103 -13 110 -20 9 -9
-46 -11 -238 -9 -326 4 -331 24 -10 36 22 0 84 -3 138 -7z m-125 -101 l117 0
-33 -32 c-30 -31 -37 -33 -102 -33 -62 0 -71 3 -99 29 -34 32 -41 52 -15 42 9
-3 68 -6 132 -6z"/>
<path d="M1404 3935 c-40 -16 -98 -68 -123 -108 -18 -31 -19 -62 -24 -862 -3
-456 -3 -983 1 -1170 l7 -340 27 -46 c32 -54 87 -106 126 -116 36 -10 1096
-10 1143 0 52 11 124 77 146 135 17 45 18 108 18 1202 l0 1156 -26 49 c-15 30
-42 62 -68 80 l-43 30 -577 1 c-448 2 -584 -1 -607 -11z m1183 -96 c8 -7 22
-26 31 -43 16 -28 17 -124 20 -1165 2 -820 0 -1142 -8 -1161 -6 -15 -27 -43
-46 -61 l-35 -34 -542 0 -542 0 -36 23 c-74 45 -69 -40 -69 1235 0 1143 0
1144 21 1171 41 52 29 51 599 56 294 3 548 2 563 -2 16 -4 36 -13 44 -19z"/>
<path d="M1812 3778 c-7 -7 -12 -24 -12 -38 0 -47 12 -50 185 -50 170 0 185 4
185 46 0 54 0 54 -179 54 -117 0 -171 -4 -179 -12z"/>
<path d="M1920 3620 l-525 -5 0 -953 c0 -836 2 -954 15 -962 9 -6 247 -10 596
-10 l581 0 6 113 c4 87 3 1761 -2 1815 -1 8 -21 11 -73 10 -40 -2 -309 -5
-598 -8z m580 -963 l0 -874 -361 -6 c-199 -3 -428 -3 -510 0 l-149 6 0 874 0
873 510 0 510 0 0 -873z"/>
<path d="M1925 1670 c-27 -11 -61 -49 -74 -83 -28 -73 4 -146 82 -187 44 -23
45 -24 91 -6 88 34 135 156 85 220 -40 51 -130 79 -184 56z m95 -90 c24 -24
25 -48 4 -78 -18 -26 -50 -28 -76 -5 -22 20 -23 51 -2 81 19 27 48 28 74 2z"/>
<path d="M5147 3913 c-9 -8 -9 -185 -1 -247 7 -46 7 -46 45 -46 l39 0 0 150 0
150 -38 0 c-21 0 -42 -3 -45 -7z"/>
<path d="M4616 3681 c-21 -23 -15 -38 48 -115 23 -28 52 -68 64 -88 29 -46 61
-50 91 -12 l21 26 -23 27 c-12 15 -46 58 -76 95 -71 89 -94 101 -125 67z"/>
<path d="M5614 3613 c-36 -43 -73 -87 -80 -99 -17 -25 -10 -50 19 -66 18 -9
26 -5 60 33 21 24 63 69 93 100 30 31 54 61 54 67 0 15 -40 42 -62 42 -10 0
-47 -35 -84 -77z"/>
<path d="M4995 3452 c-126 -60 -270 -217 -307 -336 -44 -140 -49 -243 -18
-355 26 -94 57 -154 120 -231 l50 -63 0 -154 c0 -139 2 -155 19 -170 19 -16
19 -16 -1 -44 -25 -33 -18 -76 15 -89 l22 -9 -23 -7 c-23 -7 -23 -9 -18 -102
7 -129 33 -183 94 -197 29 -7 51 -22 73 -48 42 -50 77 -67 144 -67 70 0 117
21 157 71 25 31 38 39 63 39 36 0 61 24 88 83 21 47 21 66 1 95 -14 20 -14 24
0 44 21 29 20 55 -1 67 -17 9 -16 11 5 33 28 30 28 58 1 92 -20 26 -21 28 -3
40 16 12 17 29 16 167 l-3 154 61 68 c72 82 95 124 121 224 36 141 22 292 -37
413 -49 99 -160 211 -258 260 -68 34 -73 35 -205 38 -116 2 -142 0 -176 -16z
m339 -97 c69 -47 79 -60 40 -52 -164 34 -229 39 -314 24 -47 -8 -101 -20 -120
-26 l-35 -11 25 20 c14 11 30 20 37 20 6 0 30 16 54 36 l43 36 106 -4 c105 -3
107 -3 164 -43z m66 -130 c122 -42 170 -108 191 -262 17 -128 -20 -263 -93
-340 -85 -89 -304 -136 -453 -98 -141 36 -207 90 -272 222 -35 70 -35 74 -31
170 10 250 146 349 463 338 95 -3 135 -9 195 -30z m-234 -783 c102 -3 173 -1
192 6 l31 10 5 -61 c15 -174 15 -175 -1 -181 -8 -3 -113 -6 -234 -6 l-219 0 0
119 c0 66 -3 126 -6 135 -5 14 -2 14 32 0 28 -12 83 -18 200 -22z m238 -333
c18 -16 -22 -19 -229 -17 -192 3 -210 5 -213 21 -3 17 9 17 215 11 120 -4 222
-10 227 -15z m-6 -111 c-4 -10 -58 -13 -228 -13 -170 0 -224 3 -227 13 -4 9
46 12 227 12 181 0 231 -3 228 -12z m-3 -108 c-4 -6 -90 -10 -225 -10 -135 0
-221 4 -225 10 -4 7 73 10 225 10 152 0 229 -3 225 -10z m0 -105 c0 -6 -81
-11 -217 -13 -191 -2 -218 0 -218 13 0 13 27 15 218 13 136 -2 217 -7 217 -13z
m-145 -94 c0 -20 -57 -33 -98 -21 -69 18 -60 30 22 30 42 0 76 -4 76 -9z"/>
<path d="M5095 3379 c-12 -18 4 -24 81 -27 61 -4 74 -1 74 11 0 8 -10 17 -22
21 -38 10 -126 7 -133 -5z"/>
<path d="M5830 3404 c-19 -14 -57 -36 -83 -50 -56 -29 -66 -47 -42 -74 30 -33
30 -33 178 80 35 27 38 70 5 70 -13 -1 -39 -12 -58 -26z"/>
<path d="M4417 3403 c-18 -17 -4 -45 36 -69 23 -14 61 -39 84 -55 23 -16 50
-29 60 -29 22 0 48 41 40 63 -8 22 -150 97 -184 97 -16 0 -33 -3 -36 -7z"/>
<path d="M4274 2917 c-3 -8 0 -25 5 -39 10 -26 12 -26 128 -30 134 -4 149 1
138 51 l-7 31 -129 0 c-99 0 -131 -3 -135 -13z"/>
<path d="M5795 2910 c-3 -11 -4 -29 0 -39 5 -17 19 -19 133 -23 70 -2 131 -1
135 3 5 4 10 22 10 40 l2 34 -137 3 c-130 2 -137 2 -143 -18z"/>
<path d="M2832 2904 c-58 -40 1 -119 70 -95 21 7 244 11 675 11 l644 0 -3 33
-3 32 -645 5 c-490 4 -650 8 -667 18 -29 16 -44 15 -71 -4z"/>
<path d="M6218 2900 c-18 -5 -23 -13 -23 -39 l0 -32 520 0 c286 0 608 -3 715
-8 209 -9 210 -9 210 41 0 20 -6 29 -22 33 -31 7 -1371 11 -1400 5z"/>
<path d="M4570 2531 c-14 -10 -51 -33 -83 -52 -69 -40 -80 -56 -64 -90 19 -37
41 -34 103 16 31 26 72 54 90 63 38 18 43 41 16 65 -23 21 -30 21 -62 -2z"/>
<path d="M5700 2535 c-21 -25 -1 -49 96 -112 82 -54 98 -61 114 -50 50 31 28
62 -95 132 -87 49 -97 52 -115 30z"/>
</g>
</svg>
