<?xml version="1.0" standalone="no"?>
<!DOCTYPE svg PUBLIC "-//W3C//DTD SVG 20010904//EN"
 "http://www.w3.org/TR/2001/REC-SVG-20010904/DTD/svg10.dtd">
<svg version="1.0" xmlns="http://www.w3.org/2000/svg"
 width="2732.000000pt" height="2048.000000pt" viewBox="0 0 2732.000000 2048.000000"
 preserveAspectRatio="xMidYMid meet">

<g transform="translate(0.000000,2048.000000) scale(0.100000,-0.100000)"
fill="#000000" stroke="none">
<path d="M2105 16819 c-63 -20 -85 -39 -85 -73 0 -31 48 -117 81 -147 l29 -26
45 -1219 45 -1219 28 -26 29 -26 779 -6 c428 -4 1329 -10 2002 -14 672 -3
1222 -10 1222 -14 0 -19 -43 -116 -64 -144 -12 -16 -82 -149 -154 -295 -156
-312 -235 -458 -332 -606 -116 -178 -227 -422 -237 -520 -5 -47 -3 -55 20 -78
43 -43 67 -35 159 50 46 42 148 129 228 194 237 191 404 372 573 620 116 171
315 370 642 643 50 41 98 83 107 93 33 37 66 69 92 91 21 17 26 30 26 65 0 24
4 49 9 57 6 9 5 21 -2 32 -8 13 0 330 30 1225 44 1292 44 1248 -4 1269 -10 4
-1150 21 -2533 36 -2133 25 -2524 31 -2577 44 -75 18 -83 18 -158 -6z m1745
-154 c718 -9 1780 -22 2360 -28 580 -7 1060 -15 1065 -19 7 -4 -3 -397 -28
-1160 -33 -992 -41 -1158 -55 -1192 -10 -24 -16 -60 -14 -90 l3 -51 -122 -100
c-68 -55 -148 -122 -180 -150 -357 -309 -380 -333 -502 -515 -156 -233 -321
-415 -538 -590 -82 -67 -149 -118 -149 -115 0 16 91 184 151 277 101 156 363
646 426 792 14 33 42 85 63 115 20 31 41 67 45 81 16 54 59 126 86 148 35 28
39 70 8 98 -25 23 196 19 -2279 34 -1009 7 -1837 13 -1839 15 -8 9 -90 2358
-84 2418 l5 47 137 0 c75 0 723 -7 1441 -15z"/>
<path d="M3610 15729 l0 -70 -22 15 c-34 24 -75 20 -103 -10 -21 -22 -25 -37
-25 -86 0 -49 4 -63 25 -83 27 -28 71 -33 101 -10 25 19 34 19 34 0 0 -8 7
-15 15 -15 13 0 15 25 15 165 0 158 -1 165 -20 165 -18 0 -20 -7 -20 -71z
m-25 -85 c21 -14 25 -24 25 -65 0 -47 -2 -50 -35 -66 -34 -16 -36 -16 -57 4
-27 27 -28 95 -3 123 22 24 38 25 70 4z"/>
<path d="M6008 15789 c-10 -5 -18 -16 -18 -24 0 -11 6 -12 30 -3 41 14 74 4
88 -28 17 -36 -3 -78 -41 -82 -25 -3 -27 -6 -27 -53 0 -37 4 -49 15 -49 10 0
15 11 15 35 0 23 5 35 14 35 7 0 25 9 40 21 36 29 37 99 1 134 -26 27 -84 34
-117 14z"/>
<path d="M2470 15620 c0 -143 1 -150 20 -150 18 0 20 7 20 70 l0 70 70 0 70 0
0 -70 c0 -63 2 -70 20 -70 19 0 20 7 20 150 0 142 -1 150 -20 150 -16 0 -19
-8 -22 -62 l-3 -63 -67 -3 -68 -3 0 66 c0 58 -2 65 -20 65 -19 0 -20 -7 -20
-150z"/>
<path d="M5720 15750 c0 -13 7 -20 20 -20 13 0 20 7 20 20 0 13 -7 20 -20 20
-13 0 -20 -7 -20 -20z"/>
<path d="M4960 15721 c0 -20 -6 -30 -20 -34 -11 -3 -20 -10 -20 -16 0 -6 9
-11 20 -11 18 0 20 -7 20 -78 0 -90 16 -116 67 -110 39 4 45 38 6 35 l-28 -2
-3 78 -3 77 31 0 c20 0 30 5 30 15 0 10 -10 15 -30 15 -27 0 -30 3 -30 30 0
23 -4 30 -20 30 -15 0 -20 -7 -20 -29z"/>
<path d="M5840 15721 c0 -20 -6 -30 -20 -34 -11 -3 -20 -10 -20 -16 0 -6 9
-11 20 -11 18 0 20 -7 20 -78 0 -90 16 -116 67 -110 39 4 45 38 6 35 l-28 -2
-3 78 -3 77 31 0 c20 0 30 5 30 15 0 10 -10 15 -30 15 -27 0 -30 3 -30 30 0
23 -4 30 -20 30 -15 0 -20 -7 -20 -29z"/>
<path d="M2803 15678 c-12 -6 -29 -25 -37 -43 -51 -107 41 -203 143 -151 33
18 51 54 51 107 0 77 -82 123 -157 87z m97 -38 c44 -44 14 -140 -42 -140 -63
1 -91 88 -43 135 29 30 58 32 85 5z"/>
<path d="M2990 15688 c0 -2 15 -50 34 -108 27 -85 37 -106 54 -108 24 -4 35
13 52 86 6 28 15 52 20 52 4 0 16 -30 26 -67 17 -60 23 -68 44 -68 22 0 28 9
57 100 39 117 38 115 15 115 -14 0 -24 -19 -44 -87 -14 -49 -28 -81 -31 -73
-3 8 -16 48 -27 88 -17 54 -26 72 -40 72 -13 0 -22 -19 -40 -85 -13 -47 -25
-83 -28 -81 -2 3 -14 40 -27 83 -18 63 -26 79 -44 81 -11 2 -21 2 -21 0z"/>
<path d="M3764 15680 c-35 -14 -54 -50 -54 -103 0 -40 5 -53 29 -78 55 -55
146 -31 171 46 31 95 -52 173 -146 135z m87 -39 c18 -14 24 -29 24 -61 0 -66
-53 -99 -103 -64 -17 12 -22 25 -22 60 0 73 51 106 101 65z"/>
<path d="M4060 15683 c0 -5 14 -54 32 -111 30 -97 33 -103 56 -100 22 3 28 12
45 78 22 82 23 81 52 -22 14 -50 20 -58 40 -58 22 0 27 10 55 95 16 52 30 102
30 110 0 18 -29 20 -35 3 -2 -7 -14 -47 -26 -88 l-22 -75 -27 85 c-20 67 -30
85 -45 85 -14 0 -23 -16 -39 -77 -12 -42 -23 -79 -26 -82 -3 -3 -16 33 -29 80
-19 67 -27 84 -42 84 -11 0 -19 -3 -19 -7z"/>
<path d="M4439 15661 c-25 -25 -29 -37 -29 -81 0 -44 4 -56 29 -81 21 -21 39
-29 65 -29 47 0 86 16 86 36 0 11 -5 14 -17 9 -63 -24 -123 -7 -123 35 0 18 7
20 75 20 73 0 75 1 75 25 0 87 -99 128 -161 66z m102 -11 c10 -6 19 -20 19
-30 0 -18 -7 -20 -55 -20 -59 0 -68 10 -38 42 18 20 45 23 74 8z"/>
<path d="M4782 15674 c-17 -12 -22 -24 -20 -47 3 -27 10 -36 51 -55 32 -15 47
-28 47 -42 0 -25 -36 -35 -74 -21 -35 14 -36 14 -36 -4 0 -52 133 -42 146 12
9 36 -2 52 -50 74 -24 10 -46 25 -49 33 -9 23 20 39 58 33 25 -4 35 -2 35 8 0
28 -72 34 -108 9z"/>
<path d="M5143 15678 c-12 -6 -29 -25 -37 -43 -51 -107 41 -203 143 -151 33
18 51 54 51 107 0 77 -82 123 -157 87z m97 -38 c44 -44 14 -140 -42 -140 -63
1 -91 88 -43 135 29 30 58 32 85 5z"/>
<path d="M5360 15540 c0 -143 1 -150 20 -150 17 0 20 7 20 50 0 47 11 63 25
40 13 -21 66 -10 96 19 24 24 29 38 29 76 0 51 -20 99 -45 109 -28 10 -60 7
-81 -9 -25 -19 -34 -19 -34 0 0 8 -7 15 -15 15 -13 0 -15 -23 -15 -150z m134
98 c23 -32 20 -94 -4 -118 -24 -24 -38 -25 -68 -4 -18 12 -22 25 -22 64 0 39
4 52 22 64 31 22 54 20 72 -6z"/>
<path d="M5720 15580 c0 -103 1 -110 20 -110 19 0 20 7 20 110 0 103 -1 110
-20 110 -19 0 -20 -7 -20 -110z"/>
<path d="M6034 15505 c-8 -20 4 -35 27 -35 14 0 19 7 19 25 0 18 -5 25 -20 25
-11 0 -23 -7 -26 -15z"/>
<path d="M10357 14872 c-23 -25 -21 -65 4 -88 19 -17 41 -19 253 -22 127 -1
1246 -11 2486 -22 1240 -11 2489 -22 2775 -26 l521 -7 39 -1168 c21 -643 36
-1171 34 -1174 -3 -2 -19 -1 -35 4 -16 5 -1169 12 -2561 16 l-2531 7 -17 -26
c-10 -14 -15 -35 -12 -45 2 -10 2 -23 -2 -28 -3 -6 -73 -56 -156 -113 -189
-129 -211 -148 -488 -414 -248 -238 -287 -286 -459 -553 -61 -96 -113 -171
-115 -169 -8 8 36 134 103 291 35 83 101 258 147 390 47 132 94 261 105 287
12 26 26 66 32 88 8 28 19 44 41 55 16 9 37 31 46 50 13 28 14 38 3 64 -6 17
-20 33 -30 36 -20 6 -26 31 -54 195 -21 126 -34 269 -56 625 -42 693 -48 1147
-19 1445 11 121 4 156 -36 166 -40 10 -71 -3 -85 -36 -7 -16 -15 -92 -19 -167
-8 -179 4 -1031 18 -1283 14 -230 75 -841 94 -932 l13 -63 -44 -120 c-24 -66
-86 -237 -137 -380 -51 -143 -120 -323 -153 -400 -55 -126 -146 -416 -182
-577 -11 -50 -11 -60 4 -82 19 -29 58 -43 86 -30 28 14 160 190 291 389 259
396 241 374 589 708 149 143 235 215 360 306 91 65 177 122 190 126 36 11 50
25 50 48 l0 20 1968 -7 c3092 -10 3021 -10 3041 8 15 14 20 14 37 1 21 -16 62
-19 81 -7 6 4 16 19 21 32 5 16 -4 384 -24 975 -18 523 -35 1058 -39 1190 -7
235 -8 241 -36 301 -15 33 -34 66 -41 72 -10 8 -750 18 -2739 37 -1498 14
-2864 25 -3035 25 -288 0 -312 -1 -327 -18z"/>
<path d="M12370 13783 c-1 -16 -7 -39 -15 -53 -18 -31 -18 -40 -2 -40 18 0 57
65 57 95 0 18 -5 25 -20 25 -15 0 -20 -7 -20 -27z"/>
<path d="M13180 13785 c0 -15 -7 -40 -16 -56 -23 -44 -7 -50 27 -9 35 41 40
90 9 90 -15 0 -20 -7 -20 -25z"/>
<path d="M13931 13791 c-13 -13 -21 -34 -21 -56 0 -28 -4 -35 -20 -35 -11 0
-20 -7 -20 -15 0 -8 9 -15 20 -15 19 0 20 -7 20 -95 0 -88 1 -95 20 -95 19 0
20 7 20 95 0 95 0 95 25 95 16 0 25 6 25 15 0 9 -9 15 -25 15 -22 0 -25 4 -25
34 0 26 5 36 20 41 11 3 25 3 31 -1 7 -4 10 1 7 12 -5 28 -52 30 -77 5z"/>
<path d="M10910 13763 c1 -10 18 -76 39 -148 36 -120 40 -130 64 -133 28 -3
24 -12 62 138 9 36 20 68 24 73 4 4 21 -41 37 -100 28 -98 33 -108 56 -111 24
-3 26 3 66 137 23 77 42 145 42 151 0 5 -8 10 -18 10 -14 0 -24 -25 -52 -127
-18 -70 -36 -120 -39 -112 -3 8 -19 64 -36 124 -25 91 -34 111 -51 113 -19 3
-24 -10 -54 -123 -18 -69 -34 -125 -35 -125 -1 0 -17 56 -36 125 -27 101 -37
125 -51 125 -11 0 -18 -7 -18 -17z"/>
<path d="M12880 13630 c0 -143 1 -150 20 -150 19 0 20 7 20 150 0 143 -1 150
-20 150 -19 0 -20 -7 -20 -150z"/>
<path d="M12490 13730 c0 -20 -5 -30 -15 -30 -8 0 -15 -7 -15 -15 0 -8 7 -15
15 -15 12 0 15 -14 15 -67 0 -90 15 -118 60 -118 25 0 36 5 38 17 2 13 -1 16
-12 12 -32 -12 -46 15 -46 87 l0 69 30 0 c20 0 30 5 30 15 0 10 -10 15 -30 15
-27 0 -30 3 -30 30 0 23 -4 30 -20 30 -16 0 -20 -7 -20 -30z"/>
<path d="M13010 13730 c0 -23 -4 -30 -20 -30 -11 0 -20 -6 -20 -14 0 -7 9 -16
20 -19 18 -5 20 -14 20 -86 0 -71 2 -82 21 -91 27 -15 63 -9 67 12 2 12 -2 15
-17 11 -28 -7 -43 27 -39 95 3 54 4 57 31 60 38 5 36 32 -3 32 -27 0 -30 3
-30 30 0 20 -5 30 -15 30 -10 0 -15 -10 -15 -30z"/>
<path d="M14510 13730 c0 -23 -4 -30 -20 -30 -11 0 -20 -6 -20 -14 0 -7 9 -16
20 -19 18 -5 20 -14 20 -86 0 -71 2 -82 21 -91 27 -15 63 -9 67 12 2 12 -2 15
-17 11 -28 -7 -43 27 -39 95 3 54 4 57 31 60 38 5 36 32 -3 32 -27 0 -30 3
-30 30 0 20 -5 30 -15 30 -10 0 -15 -10 -15 -30z"/>
<path d="M11368 13684 c-62 -33 -60 -157 4 -190 37 -19 103 -14 126 10 22 22
8 31 -27 16 -42 -17 -90 -4 -102 27 -5 13 -9 26 -9 29 0 2 34 4 75 4 l75 0 0
35 c0 71 -74 107 -142 69z m96 -36 c9 -12 16 -26 16 -30 0 -5 -27 -8 -60 -8
-64 0 -72 8 -40 40 27 27 65 26 84 -2z"/>
<path d="M11704 13677 c-22 -19 -28 -34 -32 -80 -4 -52 -2 -58 26 -87 32 -31
62 -37 106 -20 16 6 26 17 26 29 0 18 -2 19 -27 5 -37 -19 -49 -18 -73 6 -28
28 -27 93 1 121 20 20 41 21 82 4 13 -5 17 -2 17 13 0 38 -85 44 -126 9z"/>
<path d="M11903 13690 c-26 -11 -33 -46 -7 -36 59 23 104 12 104 -24 0 -15 -7
-20 -29 -20 -36 0 -83 -17 -93 -33 -4 -7 -8 -24 -8 -39 0 -47 63 -73 113 -47
16 9 22 9 25 0 2 -6 10 -11 18 -11 19 0 20 168 1 194 -15 21 -90 31 -124 16z
m97 -135 c0 -47 -82 -63 -88 -16 -4 29 12 41 56 41 27 0 32 -3 32 -25z"/>
<path d="M12110 13590 c0 -103 1 -110 20 -110 18 0 20 7 20 79 0 74 2 80 26
96 20 13 32 15 49 7 25 -12 35 -47 35 -128 0 -41 4 -54 15 -54 12 0 15 17 15
90 0 77 -3 93 -20 110 -24 24 -68 26 -96 5 -25 -19 -34 -19 -34 0 0 8 -7 15
-15 15 -12 0 -15 -19 -15 -110z"/>
<path d="M13283 13688 c-25 -12 -37 -39 -29 -65 3 -10 27 -29 53 -43 26 -14
49 -31 51 -37 6 -22 -42 -37 -77 -25 -27 10 -31 9 -31 -7 0 -32 80 -42 118
-15 15 10 22 25 22 49 0 31 -5 37 -47 57 -34 16 -48 29 -48 43 0 17 6 20 43
19 34 -1 42 2 40 15 -4 20 -63 25 -95 9z"/>
<path d="M13578 13693 c-10 -2 -18 -13 -18 -23 0 -16 4 -17 35 -7 43 13 85 -3
85 -33 0 -16 -7 -20 -35 -20 -20 0 -49 -7 -65 -15 -24 -13 -30 -22 -30 -50 0
-54 59 -82 113 -54 16 9 22 9 25 0 2 -6 10 -11 19 -11 13 0 14 15 11 91 -3 81
-6 93 -27 110 -22 18 -71 23 -113 12z m102 -134 c0 -25 -26 -48 -55 -49 -21 0
-45 17 -45 31 0 19 35 39 66 39 28 0 34 -4 34 -21z"/>
<path d="M14074 13690 c-35 -14 -54 -50 -54 -103 0 -85 70 -129 154 -97 14 5
26 17 26 26 0 11 -5 14 -17 9 -63 -24 -123 -7 -123 35 0 18 7 20 75 20 73 0
75 1 75 25 0 73 -65 114 -136 85z m77 -30 c10 -6 19 -20 19 -30 0 -18 -7 -20
-55 -20 -59 0 -68 10 -38 42 18 20 45 23 74 8z"/>
<path d="M14293 13690 c-26 -11 -33 -46 -7 -36 59 23 104 12 104 -24 0 -15 -7
-20 -29 -20 -36 0 -83 -17 -93 -33 -4 -7 -8 -24 -8 -39 0 -47 63 -73 113 -47
16 9 22 9 25 0 2 -6 10 -11 18 -11 19 0 20 168 1 194 -15 21 -90 31 -124 16z
m97 -135 c0 -47 -82 -63 -88 -16 -4 29 12 41 56 41 27 0 32 -3 32 -25z"/>
<path d="M14660 13610 c0 -77 3 -93 20 -110 24 -24 68 -26 96 -5 25 19 34 19
34 0 0 -8 7 -15 15 -15 12 0 15 19 15 110 0 103 -1 110 -20 110 -18 0 -20 -7
-20 -79 0 -74 -2 -80 -26 -96 -20 -13 -32 -15 -49 -7 -25 12 -35 47 -35 128 0
41 -4 54 -15 54 -12 0 -15 -17 -15 -90z"/>
<path d="M14910 13590 c0 -103 1 -110 20 -110 18 0 20 7 20 75 0 62 3 78 21
96 13 13 27 18 40 14 15 -5 19 -2 19 14 0 26 -35 28 -68 5 -20 -14 -22 -14
-22 0 0 9 -7 16 -15 16 -12 0 -15 -19 -15 -110z"/>
<path d="M15114 13690 c-35 -14 -54 -50 -54 -103 0 -85 70 -129 154 -97 14 5
26 17 26 26 0 11 -5 14 -17 9 -63 -24 -123 -7 -123 35 0 18 7 20 75 20 73 0
75 1 75 25 0 73 -65 114 -136 85z m77 -30 c10 -6 19 -20 19 -30 0 -18 -7 -20
-55 -20 -59 0 -68 10 -38 42 18 20 45 23 74 8z"/>
<path d="M12644 13515 c-8 -20 4 -35 27 -35 14 0 19 7 19 25 0 18 -5 25 -20
25 -11 0 -23 -7 -26 -15z"/>
<path d="M8445 13179 c-431 -35 -830 -215 -1126 -509 -210 -207 -344 -455
-406 -750 -24 -115 -24 -527 0 -706 33 -239 118 -505 234 -733 34 -68 60 -128
56 -135 -4 -6 -61 -94 -128 -196 -363 -551 -451 -757 -529 -1230 -42 -255 -49
-371 -43 -650 6 -271 9 -301 62 -700 44 -325 70 -563 90 -815 9 -110 25 -281
36 -380 11 -103 24 -315 29 -495 10 -328 15 -393 50 -650 37 -265 41 -286 61
-318 58 -96 200 -96 259 0 25 42 27 146 4 349 -9 83 -19 317 -24 554 -5 251
-15 458 -24 535 -8 69 -25 238 -36 375 -26 317 -50 534 -100 905 -51 382 -64
566 -57 820 6 217 27 392 73 600 68 303 138 448 454 930 175 267 191 297 197
369 5 53 2 62 -46 151 -130 242 -213 452 -251 639 -25 124 -44 420 -37 571 15
298 151 575 376 767 204 174 451 290 712 334 160 27 381 23 502 -10 312 -83
477 -322 554 -801 26 -162 23 -467 -4 -586 -42 -179 -122 -314 -270 -454 -170
-160 -398 -291 -661 -380 -134 -45 -180 -67 -231 -114 -62 -57 -76 -127 -42
-202 21 -45 45 -65 211 -173 221 -145 449 -361 574 -545 64 -94 167 -308 210
-436 68 -201 120 -486 151 -825 49 -534 48 -523 51 -1610 2 -1080 6 -1203 45
-1365 36 -151 50 -232 60 -363 10 -133 24 -185 62 -225 84 -90 230 -66 279 45
18 42 20 58 13 162 -8 136 -33 292 -71 446 l-27 110 -7 1135 c-7 1104 -8 1144
-34 1450 -63 762 -136 1091 -322 1462 -88 176 -169 291 -310 445 -76 82 -229
222 -324 295 l-35 26 30 12 c104 40 312 155 425 235 476 338 653 761 585 1395
-19 181 -48 320 -96 465 -126 379 -330 603 -646 708 -172 57 -373 81 -558 66z"/>
<path d="M10930 13010 c0 -91 3 -110 15 -110 12 0 15 15 15 74 0 69 2 76 26
95 58 46 84 18 84 -90 0 -74 1 -79 21 -79 20 0 21 4 17 91 -3 81 -6 93 -27
110 -28 23 -64 24 -96 3 -23 -15 -25 -15 -25 0 0 9 -7 16 -15 16 -12 0 -15
-19 -15 -110z"/>
<path d="M11207 13100 c-48 -38 -54 -145 -10 -178 46 -33 121 -26 153 15 23
29 27 96 9 136 -22 48 -106 63 -152 27z m101 -26 c18 -12 22 -25 22 -64 0 -39
-4 -52 -22 -64 -50 -35 -103 -2 -103 64 0 66 53 99 103 64z"/>
<path d="M11410 13109 c0 -6 14 -56 30 -110 28 -90 33 -99 55 -99 20 0 26 7
35 43 6 23 16 58 22 77 l11 35 24 -77 c20 -68 27 -78 46 -78 20 0 27 12 57
105 19 57 31 107 27 111 -17 17 -36 -11 -57 -85 -13 -45 -25 -80 -27 -78 -2 2
-14 39 -27 83 -18 61 -27 79 -41 79 -19 0 -21 -4 -51 -110 l-17 -60 -27 85
c-18 59 -31 86 -43 88 -9 2 -17 -2 -17 -9z"/>
<path d="M3647 13084 c-322 -50 -638 -193 -884 -402 -121 -103 -359 -340 -418
-417 -165 -215 -275 -511 -275 -739 0 -198 75 -420 210 -622 69 -103 277 -311
410 -409 58 -42 107 -79 108 -80 2 -2 -37 -50 -88 -107 -126 -141 -209 -259
-279 -397 -76 -149 -245 -522 -304 -671 -46 -115 -239 -675 -322 -931 -146
-452 -238 -1018 -220 -1354 19 -362 56 -617 179 -1220 86 -423 99 -524 90
-745 -7 -196 10 -382 42 -460 54 -129 205 -149 287 -38 32 43 44 109 34 186
-5 37 -10 189 -11 337 -2 310 -2 305 -121 900 -176 878 -190 1230 -70 1815 50
244 97 406 252 860 174 508 209 597 373 950 171 368 248 489 443 697 103 109
117 137 117 229 0 74 -28 110 -123 159 -209 108 -473 382 -578 600 -101 210
-103 381 -5 607 73 168 159 277 384 484 249 229 457 344 733 406 89 20 131 23
294 23 203 0 264 -9 425 -62 313 -104 462 -319 525 -754 36 -253 5 -437 -116
-689 -102 -212 -249 -480 -317 -580 -36 -52 -85 -123 -108 -158 -91 -132 -95
-268 -14 -387 60 -87 365 -367 602 -553 148 -116 349 -324 430 -447 101 -151
201 -365 243 -520 76 -280 103 -497 85 -697 -26 -296 -30 -380 -30 -678 0
-224 4 -350 15 -435 9 -66 20 -248 25 -405 9 -254 15 -394 36 -800 3 -63 15
-173 26 -245 10 -71 23 -214 27 -316 7 -170 10 -191 32 -230 45 -81 145 -112
229 -69 47 24 76 63 89 121 13 59 -2 346 -27 519 -11 74 -23 187 -26 250 -22
437 -28 556 -36 805 -5 154 -17 334 -26 400 -21 158 -15 767 11 1010 26 243 4
480 -69 771 -48 192 -86 294 -167 457 -162 323 -362 562 -674 803 -121 94
-265 219 -400 346 l-100 95 28 39 c62 84 177 263 215 334 122 229 191 363 221
425 156 328 192 593 132 950 -54 323 -151 533 -326 711 -172 175 -376 270
-693 325 -136 23 -388 25 -525 3z"/>
<path d="M11744 12935 c-4 -9 -2 -21 4 -27 15 -15 44 -1 40 19 -4 23 -36 29
-44 8z"/>
<path d="M11864 12935 c-8 -20 4 -35 27 -35 14 0 19 7 19 25 0 18 -5 25 -20
25 -11 0 -23 -7 -26 -15z"/>
<path d="M11984 12935 c-8 -20 4 -35 27 -35 14 0 19 7 19 25 0 18 -5 25 -20
25 -11 0 -23 -7 -26 -15z"/>
<path d="M18896 11310 c-1538 -101 -2930 -835 -3862 -2035 -220 -284 -387
-554 -555 -900 -325 -669 -489 -1374 -489 -2105 0 -1055 349 -2056 1002 -2873
214 -268 508 -561 755 -750 l61 -47 -15 -40 c-19 -48 -6 -90 27 -90 24 0 25
-8 5 -34 -18 -24 -19 -68 -3 -84 15 -15 70 -16 85 -1 14 14 53 2 53 -15 0 -7
-82 -116 -182 -242 -746 -935 -704 -878 -658 -924 17 -17 33 -20 112 -20 74 0
4761 106 7205 163 l542 12 30 29 c43 41 58 89 37 121 -9 13 -170 208 -358 432
-187 224 -418 500 -512 612 l-170 204 34 26 c173 132 463 402 621 577 357 395
588 732 814 1186 276 553 435 1112 497 1743 16 167 16 652 0 820 -95 978 -460
1849 -1082 2580 -130 153 -389 409 -550 543 -215 179 -566 422 -610 422 -11 0
-36 15 -55 34 -45 45 -426 234 -645 320 -435 170 -876 275 -1355 321 -194 19
-602 27 -779 15z m774 -146 c624 -58 1286 -258 1820 -549 65 -36 128 -65 138
-65 10 0 27 -10 38 -21 10 -12 77 -59 148 -106 1296 -849 2046 -2235 2046
-3781 0 -105 -3 -144 -12 -147 -21 -7 -790 -106 -794 -102 -3 2 -6 91 -9 198
-9 408 -70 760 -197 1129 -393 1143 -1354 2049 -2611 2464 -1276 421 -2723
308 -3959 -310 -464 -232 -840 -493 -1229 -854 -103 -95 -110 -100 -79 -55
207 307 532 674 819 924 187 164 209 179 116 80 -187 -197 -275 -307 -275
-342 0 -29 29 -57 57 -57 16 0 35 12 51 32 157 186 316 343 485 478 58 47 111
95 118 107 15 29 -2 72 -31 80 -11 3 -17 10 -14 15 4 5 51 39 106 74 523 339
1119 586 1726 718 61 13 112 22 112 21 0 -2 -62 -52 -137 -112 -351 -275 -545
-452 -559 -507 -8 -35 19 -66 57 -66 20 0 36 10 56 35 40 50 177 166 403 340
249 192 285 225 276 262 -4 16 -14 33 -22 39 -7 6 -14 14 -14 17 0 15 397 65
585 73 l140 6 -105 -59 c-191 -108 -329 -202 -547 -373 -67 -52 -134 -103
-148 -113 -48 -35 -23 -97 39 -97 27 0 58 19 152 91 217 167 375 271 568 376
55 30 116 66 135 80 30 24 33 29 28 66 l-5 40 186 -7 c103 -4 257 -14 342 -22z
m-816 -864 c413 -18 738 -69 1112 -171 618 -169 1195 -469 1659 -862 102 -86
324 -307 419 -417 448 -517 739 -1148 836 -1810 26 -178 44 -473 35 -585 -3
-49 -8 -133 -11 -185 -24 -500 -216 -1113 -507 -1620 -58 -101 -206 -329 -245
-379 l-20 -24 -103 17 c-57 9 -171 33 -254 53 -137 34 -153 40 -189 75 -41 38
-112 77 -184 99 -23 7 -42 15 -42 19 0 15 81 118 105 134 14 9 30 28 35 42 5
13 18 27 27 31 10 3 104 42 208 86 255 106 437 210 530 302 79 78 135 175 135
234 0 27 5 39 22 46 11 6 28 20 36 33 14 21 13 23 -20 36 -19 8 -40 22 -48 30
-7 9 -25 16 -41 16 -18 0 -41 11 -61 29 -31 28 -32 30 -18 56 8 15 36 39 62
54 71 39 92 97 93 256 1 66 5 128 9 138 12 25 -16 63 -64 87 -21 11 -45 20
-51 20 -7 0 -46 20 -88 44 -50 29 -114 55 -186 75 -60 17 -146 45 -190 62 -73
29 -95 33 -259 42 -229 14 -305 4 -501 -61 -83 -27 -195 -63 -250 -80 -56 -18
-135 -52 -179 -78 -44 -26 -112 -60 -150 -76 -39 -16 -84 -42 -101 -58 -16
-16 -57 -41 -90 -55 -81 -36 -115 -62 -131 -101 -8 -19 -20 -34 -28 -34 -7 0
-45 -16 -85 -36 -97 -48 -201 -150 -240 -235 -32 -67 -52 -172 -44 -226 3 -20
1 -33 -5 -33 -6 0 -198 205 -426 456 l-414 456 19 32 c21 34 25 108 10 149
-13 35 -69 95 -103 113 -41 21 -153 29 -206 15 -47 -13 -115 -68 -138 -112
-17 -33 -19 -121 -3 -152 6 -12 23 -35 37 -50 26 -27 26 -28 5 -33 -13 -4
-107 -121 -249 -312 -126 -169 -343 -460 -483 -647 -140 -187 -259 -352 -265
-367 -13 -34 -14 -34 -173 -4 -71 14 -148 28 -173 31 l-46 7 -14 -54 c-8 -29
-15 -57 -15 -63 0 -5 43 -17 95 -26 52 -9 164 -29 248 -43 83 -14 207 -44 275
-65 67 -21 170 -46 229 -55 59 -10 122 -21 140 -27 53 -15 437 -41 514 -35
156 14 582 133 749 211 39 17 95 52 125 76 30 25 79 62 108 83 40 29 74 70
141 171 l89 133 44 -45 c116 -119 221 -167 429 -197 63 -9 142 -26 175 -37 71
-23 107 -14 122 30 21 59 -34 103 -143 116 -99 11 -237 34 -243 40 -13 12 -31
82 -37 139 l-7 61 49 51 c37 39 76 64 166 107 131 63 191 82 285 92 34 4 69
14 77 22 20 19 19 58 -1 77 -20 20 -114 21 -204 2 -73 -16 -289 -110 -355
-156 -56 -39 -112 -104 -137 -159 -18 -40 -19 -50 -8 -98 6 -30 9 -57 6 -60
-9 -9 -84 56 -120 106 -30 40 -36 57 -36 98 0 82 26 138 97 214 107 113 240
163 475 177 164 10 198 22 198 69 0 54 -20 62 -138 56 l-107 -6 24 26 c13 14
49 36 80 48 31 12 98 45 150 72 55 29 154 69 235 94 78 25 191 60 251 79 131
42 236 50 430 36 106 -8 142 -15 195 -37 36 -15 112 -41 169 -57 98 -27 181
-61 181 -74 0 -3 -9 -17 -20 -31 -11 -14 -20 -38 -20 -53 0 -54 40 -80 148
-97 27 -4 32 -9 32 -33 0 -15 -6 -43 -14 -61 -21 -50 -134 -161 -207 -204 -35
-20 -67 -42 -71 -49 -16 -25 -7 -61 24 -93 37 -38 63 -41 148 -18 30 8 60 15
67 15 7 0 14 -23 18 -55 6 -48 4 -60 -20 -101 -15 -26 -46 -66 -69 -89 -62
-62 -284 -181 -534 -285 -197 -83 -223 -97 -228 -119 -4 -14 -30 -51 -60 -81
-29 -30 -73 -81 -96 -113 l-43 -58 -185 -2 c-163 -2 -190 -4 -225 -22 -32 -16
-41 -26 -43 -51 -4 -44 21 -68 62 -59 17 3 90 9 162 12 108 4 148 1 230 -16
144 -29 261 -76 294 -117 24 -28 89 -50 272 -94 95 -23 181 -46 190 -51 10 -5
59 -13 108 -19 89 -9 152 -4 239 20 23 6 90 10 149 8 121 -3 204 15 233 51 10
12 25 43 35 69 23 62 26 65 57 51 56 -25 22 -101 -95 -215 -78 -76 -130 -111
-181 -124 -127 -33 -190 -50 -247 -69 -72 -23 -154 -46 -335 -92 -140 -35
-385 -106 -535 -154 -451 -144 -557 -177 -645 -204 -55 -16 -118 -33 -140 -37
-22 -3 -62 -23 -90 -44 -27 -20 -84 -56 -125 -80 -41 -23 -122 -71 -181 -106
-177 -107 -316 -156 -739 -258 -255 -62 -386 -72 -925 -70 -199 0 -537 27
-700 55 -114 19 -360 88 -470 132 l-110 43 3 36 c3 30 -1 40 -21 52 -20 14
-35 15 -93 6 -128 -18 -394 -9 -724 26 -341 35 -543 77 -596 123 -24 22 -52
32 -124 45 -106 19 -170 47 -170 75 0 25 -38 71 -59 71 -9 0 -26 -7 -38 -15
-19 -13 -24 -12 -58 15 -21 17 -48 30 -61 30 -29 0 -64 -33 -64 -60 0 -30 53
-84 118 -118 56 -30 59 -33 60 -73 1 -22 9 -88 18 -146 8 -58 13 -107 11 -109
-2 -2 -55 49 -118 113 -536 552 -917 1236 -1110 1991 -252 984 -161 2029 261
2996 38 88 73 147 128 220 863 1140 2290 1865 3792 1926 96 4 180 7 185 8 6 1
108 -3 229 -8z m-45 -3924 c40 -21 54 -42 47 -71 -7 -29 -52 -55 -96 -55 -103
0 -151 89 -68 125 43 18 82 19 117 1z m5037 -63 c-3 -27 -10 -95 -16 -153 -24
-232 -96 -589 -166 -818 -41 -137 -40 -135 -66 -119 -19 11 -92 12 -393 8
-203 -3 -374 -3 -378 0 -5 4 10 64 32 134 80 250 150 581 167 787 3 47 9 90
13 96 5 8 706 106 789 111 21 1 22 -2 18 -46z m-5104 -198 c24 3 55 8 70 10
30 5 5 30 564 -584 318 -349 334 -367 334 -375 0 -4 -22 -40 -50 -81 -39 -58
-72 -90 -149 -149 -55 -41 -118 -84 -141 -96 -75 -38 -392 -138 -560 -175
l-165 -37 -195 12 c-107 6 -238 20 -290 30 -52 10 -117 22 -145 25 -27 3 -111
25 -186 48 l-136 41 56 76 c30 41 214 289 409 550 346 464 355 475 390 478 62
6 112 69 91 116 -9 20 -8 32 5 60 9 19 16 38 15 43 -3 19 2 23 21 13 10 -6 39
-8 62 -5z m4778 -1186 c-108 -271 -300 -639 -453 -870 l-37 -55 -113 4 c-61 2
-114 5 -116 7 -2 2 17 28 43 57 52 59 76 104 76 142 0 23 6 27 58 41 131 36
171 72 141 127 -7 12 -12 37 -10 54 3 37 -20 64 -54 64 -12 0 -53 -11 -89 -25
-37 -14 -71 -25 -77 -25 -6 0 14 24 45 53 68 64 73 97 19 126 -33 17 -36 15
-106 -44 -35 -30 -78 -58 -95 -61 -44 -9 -56 -26 -92 -140 l-33 -101 -66 -17
c-69 -17 -121 -22 -209 -18 l-53 2 59 88 c129 192 289 485 367 672 15 36 31
69 35 74 13 14 814 24 818 10 1 -6 -25 -80 -58 -165z m-674 -1048 l96 -6 -72
-95 c-104 -136 -246 -304 -348 -409 l-87 -90 -405 95 c-222 52 -406 97 -409
100 -3 2 33 40 80 84 97 91 105 95 426 174 129 32 214 60 295 96 90 41 117 49
130 41 26 -16 49 -13 83 8 23 15 41 18 73 14 23 -3 85 -8 138 -12z m-1356
-335 c0 -2 -22 -22 -49 -45 l-48 -40 -22 23 -22 24 63 20 c69 22 78 24 78 18z
m-235 -128 c31 -34 35 -43 24 -52 -446 -348 -962 -628 -1489 -808 -131 -45
-377 -118 -395 -118 -41 0 53 213 140 320 l54 66 118 28 c252 61 429 129 578
220 38 23 108 64 155 91 47 26 117 69 155 96 62 42 93 54 280 108 116 33 230
67 255 75 71 22 84 20 125 -26z m299 -68 c529 -121 753 -174 759 -180 14 -13
-373 -345 -394 -338 -13 5 -439 518 -439 530 0 5 7 7 16 4 9 -4 35 -11 58 -16z
m-5909 -90 c78 -18 93 -38 99 -130 4 -67 7 -77 33 -97 35 -29 36 -30 82 -78
21 -22 61 -59 89 -83 29 -24 59 -56 69 -73 18 -30 48 -43 125 -54 25 -3 51
-11 56 -18 19 -25 64 -155 60 -178 -2 -15 -13 -27 -29 -33 -22 -7 -33 -4 -60
17 -19 14 -67 43 -106 64 -97 51 -308 201 -359 255 -33 35 -46 60 -67 133 -23
80 -57 246 -57 284 0 9 6 11 18 6 9 -4 31 -11 47 -15z m5937 -233 c112 -133
210 -251 218 -261 13 -17 12 -21 -15 -42 -17 -14 -88 -63 -158 -110 l-128 -86
-107 7 c-169 10 -396 34 -530 55 -142 23 -380 78 -387 89 -8 13 22 33 165 111
232 125 496 297 665 432 33 26 63 47 67 48 4 0 98 -109 210 -243z m-5377 88
c94 -13 209 -28 258 -31 48 -4 87 -10 87 -13 0 -3 -43 -60 -96 -126 -53 -66
-105 -131 -115 -144 l-19 -23 -29 31 c-33 35 -68 51 -114 51 -27 0 -49 17
-139 103 -109 106 -158 167 -158 197 0 16 5 16 78 -1 42 -11 154 -30 247 -44z
m940 -80 c44 -50 505 -209 710 -244 192 -33 489 -55 760 -56 l280 -1 11 -150
c6 -82 14 -170 18 -196 l8 -47 -33 -5 c-316 -54 -753 -77 -1079 -57 -327 20
-624 64 -925 139 -195 48 -540 163 -540 180 0 7 73 104 162 215 89 112 164
214 168 228 l6 24 217 -3 c211 -4 218 -5 237 -27z m2235 -271 c0 -3 -25 -54
-55 -112 -47 -90 -57 -119 -64 -182 -8 -72 -6 -79 27 -157 19 -46 35 -83 37
-83 1 0 23 11 48 26 l46 25 -6 -34 c-4 -28 -1 -37 21 -54 21 -17 25 -26 20
-51 -3 -16 -1 -38 5 -49 9 -19 6 -21 -42 -27 -114 -13 -142 -8 -200 40 -20 17
-35 21 -60 17 -44 -7 -53 7 -66 97 -6 41 -19 101 -30 134 -19 52 -41 243 -41
346 l0 37 152 12 c84 7 154 14 157 17 6 6 51 5 51 -2z m3016 -709 c269 -321
490 -589 492 -595 2 -6 -28 -10 -86 -10 -49 0 -476 -9 -948 -20 -472 -11
-1552 -36 -2399 -55 -847 -19 -2127 -49 -2844 -65 -717 -17 -1305 -29 -1307
-27 -1 1 164 211 367 467 317 400 481 590 510 590 4 0 49 -25 100 -56 137 -81
492 -254 654 -317 481 -189 971 -299 1500 -338 313 -23 815 -2 1125 47 796
124 1563 428 2205 873 72 49 133 90 136 90 3 1 226 -262 495 -584z m-2044 540
c141 -79 376 -127 873 -181 55 -6 58 -7 40 -21 -11 -8 -110 -59 -220 -113
-207 -102 -418 -190 -613 -256 l-113 -39 -18 24 c-15 20 -31 25 -97 31 -181
18 -377 68 -405 104 -11 14 -29 26 -42 28 -18 2 -24 13 -33 61 -7 32 -24 76
-39 98 -14 23 -25 42 -23 43 2 2 64 23 138 48 140 48 345 127 440 171 30 14
58 26 61 26 4 1 26 -10 51 -24z m-3907 -180 c224 -85 623 -180 940 -225 131
-18 154 -25 707 -225 315 -113 575 -209 578 -212 15 -17 -415 18 -640 52 -532
79 -1104 272 -1570 529 -125 69 -127 71 -110 91 16 19 16 19 95 -10z m3165
-209 c0 -15 -30 -26 -75 -25 l-30 0 35 19 c42 23 70 25 70 6z m-620 -60 c30
-63 53 -83 91 -78 8 2 30 -16 48 -38 47 -59 100 -83 199 -88 76 -4 97 -12 72
-27 -5 -3 -10 -17 -10 -31 0 -70 58 -87 106 -31 22 25 63 92 70 114 0 2 15 6
32 9 26 5 32 3 32 -11 0 -28 30 -55 61 -55 29 0 69 39 69 67 0 12 8 14 38 9
84 -15 258 -59 267 -67 5 -5 5 -9 1 -9 -5 0 -65 -13 -135 -30 -244 -57 -527
-100 -799 -120 l-153 -12 -27 29 c-22 23 -115 60 -485 193 l-459 165 204 7
c215 8 477 30 618 52 134 22 125 24 160 -48z"/>
<path d="M19849 11087 c-122 -64 -639 -382 -674 -415 -42 -40 -47 -82 -13
-106 31 -22 39 -21 89 18 24 19 163 102 309 186 326 187 408 240 416 263 10
30 -4 63 -31 75 -33 15 -22 17 -96 -21z"/>
<path d="M20815 10758 c-44 -17 -176 -54 -294 -84 -123 -31 -222 -61 -233 -71
-29 -26 -21 -75 14 -87 58 -20 605 121 659 170 40 36 12 105 -42 103 -13 0
-60 -14 -104 -31z"/>
<path d="M17168 10748 c-25 -18 -167 -152 -316 -298 -218 -212 -272 -270 -272
-291 0 -36 32 -63 65 -55 25 6 202 167 498 451 165 159 167 163 129 208 -22
25 -53 21 -104 -15z"/>
<path d="M21962 9504 c-15 -10 -22 -25 -22 -48 0 -45 26 -66 83 -66 236 0 626
-382 841 -824 117 -239 170 -425 170 -596 0 -86 -4 -116 -23 -163 -26 -67 -22
-102 14 -119 41 -19 72 -3 100 51 65 130 55 355 -29 613 -149 458 -518 941
-848 1109 -109 55 -240 75 -286 43z"/>
<path d="M21105 8790 c-35 -11 -55 -35 -55 -65 0 -37 33 -57 99 -60 181 -8
421 -212 647 -551 246 -368 360 -768 269 -940 -23 -45 -25 -55 -14 -75 16 -32
28 -39 66 -39 39 0 64 29 90 103 29 83 24 263 -11 397 -111 428 -452 930 -774
1141 -117 77 -243 112 -317 89z"/>
<path d="M20516 8354 c-19 -18 -21 -77 -3 -92 6 -6 41 -20 77 -32 419 -141
823 -655 856 -1091 8 -104 19 -122 72 -117 59 5 69 34 55 160 -7 57 -24 143
-38 193 -118 405 -500 832 -863 965 -93 34 -133 37 -156 14z"/>
<path d="M19786 7747 c-24 -17 -26 -72 -4 -93 9 -9 48 -20 94 -25 341 -41 670
-267 778 -534 41 -103 50 -168 36 -262 -12 -77 -12 -84 5 -103 20 -22 55 -26
85 -10 43 23 60 167 36 291 -65 325 -380 618 -774 720 -106 28 -231 35 -256
16z"/>
<path d="M19422 7244 c-35 -24 -46 -51 -32 -85 15 -35 37 -43 98 -34 41 5 56
2 121 -31 89 -44 227 -176 281 -269 31 -53 35 -66 33 -124 -3 -72 13 -101 53
-101 36 0 54 10 69 41 97 187 -285 619 -548 619 -31 0 -62 -6 -75 -16z"/>
<path d="M19025 6824 c-19 -20 -16 -74 5 -85 8 -4 36 -17 63 -29 34 -16 54
-34 72 -64 31 -52 52 -113 60 -168 13 -91 100 -106 121 -21 16 60 -54 239
-117 302 -39 39 -122 81 -161 81 -15 0 -34 -7 -43 -16z"/>
<path d="M18150 6332 c-28 -9 -50 -35 -50 -61 1 -55 31 -168 66 -242 42 -88
70 -110 110 -84 33 21 31 67 -5 146 -17 35 -35 93 -42 129 -6 36 -15 75 -19
86 -9 22 -35 34 -60 26z"/>
<path d="M14432 6255 c-68 -57 -103 -222 -84 -394 61 -537 453 -1286 911
-1741 132 -131 219 -197 339 -257 87 -44 99 -47 187 -51 90 -4 95 -3 119 21
31 32 33 70 5 98 -19 19 -28 20 -83 15 -131 -14 -286 75 -493 285 -457 463
-851 1257 -856 1725 -2 105 0 113 31 176 37 76 40 100 12 128 -27 27 -52 25
-88 -5z"/>
<path d="M17600 6155 c-58 -62 17 -257 120 -309 14 -8 48 -16 76 -20 43 -5 55
-3 77 15 55 43 21 109 -56 109 -32 0 -49 6 -64 23 -35 38 -53 84 -53 135 0 26
-5 53 -12 60 -20 20 -63 14 -88 -13z"/>
<path d="M15125 6110 c-15 -17 -20 -42 -23 -135 -8 -197 38 -388 147 -610 98
-200 211 -355 368 -506 120 -115 208 -179 337 -244 88 -46 116 -55 150 -53 32
2 43 9 56 31 13 24 13 30 0 54 -18 31 -26 36 -102 64 -71 25 -209 115 -303
196 -140 121 -298 329 -385 508 -105 216 -145 381 -138 562 4 87 2 117 -9 133
-19 27 -74 27 -98 0z"/>
<path d="M16993 6110 c-34 -14 -63 -68 -63 -118 0 -98 78 -256 181 -367 97
-104 186 -132 248 -79 59 49 31 117 -46 113 -49 -3 -85 21 -140 93 -46 60 -97
157 -107 204 -4 19 -1 41 9 60 20 38 19 46 -6 78 -21 27 -39 31 -76 16z"/>
<path d="M16109 6029 c-75 -81 -63 -222 36 -425 64 -132 148 -246 248 -341
104 -97 164 -127 249 -128 78 0 101 15 101 66 0 43 -36 73 -79 66 -130 -21
-395 289 -459 538 -20 78 -19 104 5 140 26 39 25 67 -3 93 -32 30 -64 27 -98
-9z"/>
<path d="M21587 6005 c-59 -22 -93 -51 -143 -121 -53 -75 -59 -108 -21 -138
15 -12 27 -34 29 -51 5 -46 44 -60 122 -45 99 19 191 48 208 67 9 10 33 36 52
57 44 48 46 80 7 132 -75 103 -156 134 -254 99z m17 -147 c-9 -31 -12 -34 -26
-20 -8 8 -8 15 2 27 19 22 32 18 24 -7z"/>
</g>
</svg>
