<?xml version="1.0" encoding="UTF-8"?>
<!DOCTYPE svg PUBLIC "-//W3C//DTD SVG 1.1//EN" "http://www.w3.org/Graphics/SVG/1.1/DTD/svg11.dtd">
<svg xmlns="http://www.w3.org/2000/svg" version="1.1" width="1940px" height="1216px" style="shape-rendering:geometricPrecision; text-rendering:geometricPrecision; image-rendering:optimizeQuality; fill-rule:evenodd; clip-rule:evenodd" xmlns:xlink="http://www.w3.org/1999/xlink">
<g><path style="opacity:0.999" fill="#b8b8b8" d="M -0.5,-0.5 C 122.833,-0.5 246.167,-0.5 369.5,-0.5C 369.5,13.8333 369.5,28.1667 369.5,42.5C 424.167,42.5 478.833,42.5 533.5,42.5C 533.5,28.1667 533.5,13.8333 533.5,-0.5C 767.167,-0.5 1000.83,-0.5 1234.5,-0.5C 1234.5,51.8333 1234.5,104.167 1234.5,156.5C 1215.07,162.487 1195.41,167.653 1175.5,172C 1086.82,199.686 1022.65,255.52 983,339.5C 933.048,372.003 916.715,417.003 934,474.5C 940.367,489.898 949.701,503.231 962,514.5C 971.852,566.859 993.519,613.525 1027,654.5C 1025.75,659.706 1025.42,665.04 1026,670.5C 1029.65,677.95 1031.82,685.783 1032.5,694C 1029.74,706.613 1028.91,719.446 1030,732.5C 1031.78,738.477 1033.11,744.477 1034,750.5C 1010.84,780.134 992.842,812.801 980,848.5C 974.705,869.076 975.372,889.409 982,909.5C 990.699,926.616 1004.53,937.116 1023.5,941C 1053.91,943.037 1083.25,938.37 1111.5,927C 1116.18,926.118 1120.85,925.285 1125.5,924.5C 1126.5,924.5 1127.5,924.5 1128.5,924.5C 1128.17,983.336 1128.5,1042 1129.5,1100.5C 1145.99,1101.5 1162.66,1101.83 1179.5,1101.5C 1179.5,1102.5 1179.5,1103.5 1179.5,1104.5C 1175.59,1141.42 1172.93,1178.42 1171.5,1215.5C 780.833,1215.5 390.167,1215.5 -0.5,1215.5C -0.5,1209.5 -0.5,1203.5 -0.5,1197.5C 26.1687,1197.67 52.8354,1197.5 79.5,1197C 80.1624,1183.41 80.4958,1169.74 80.5,1156C 80.4958,1142.26 80.1624,1128.59 79.5,1115C 52.8354,1114.5 26.1687,1114.33 -0.5,1114.5C -0.5,1107.83 -0.5,1101.17 -0.5,1094.5C 53.5,1094.5 107.5,1094.5 161.5,1094.5C 161.5,1066.5 161.5,1038.5 161.5,1010.5C 107.5,1010.5 53.5,1010.5 -0.5,1010.5C -0.5,822.833 -0.5,635.167 -0.5,447.5C 26.5,447.5 53.5,447.5 80.5,447.5C 80.5,419.5 80.5,391.5 80.5,363.5C 53.5,363.5 26.5,363.5 -0.5,363.5C -0.5,242.167 -0.5,120.833 -0.5,-0.5 Z"/></g>
<g><path style="opacity:1" fill="#c8c8c8" d="M 369.5,-0.5 C 424.167,-0.5 478.833,-0.5 533.5,-0.5C 533.5,13.8333 533.5,28.1667 533.5,42.5C 478.833,42.5 424.167,42.5 369.5,42.5C 369.5,28.1667 369.5,13.8333 369.5,-0.5 Z"/></g>
<g><path style="opacity:1" fill="#444444" d="M 1234.5,-0.5 C 1469.5,-0.5 1704.5,-0.5 1939.5,-0.5C 1939.5,389.833 1939.5,780.167 1939.5,1170.5C 1924.88,935.304 1840.05,729.971 1685,554.5C 1677.83,547.333 1670.67,540.167 1663.5,533C 1662.17,532.333 1660.83,532.333 1659.5,533C 1642.73,545.7 1623.73,552.034 1602.5,552C 1589.62,583.281 1572.79,612.114 1552,638.5C 1551.31,677.101 1563.31,711.101 1588,740.5C 1588.18,743.282 1587.02,743.949 1584.5,742.5C 1562.33,714.014 1549.33,681.68 1545.5,645.5C 1476.43,720.168 1390.76,754.168 1288.5,747.5C 1288.5,752.167 1288.5,756.833 1288.5,761.5C 1327.98,751.996 1364.98,757.663 1399.5,778.5C 1421.05,792.716 1438.05,811.049 1450.5,833.5C 1452.37,839.108 1454.04,844.775 1455.5,850.5C 1486.41,849.581 1515.74,855.748 1543.5,869C 1563.87,882.466 1568.7,900.299 1558,922.5C 1550.03,935.812 1540.53,947.979 1529.5,959C 1510.03,975.305 1491.03,992.138 1472.5,1009.5C 1487.14,1017.81 1496.48,1030.15 1500.5,1046.5C 1511.14,1043.13 1521.97,1040.47 1533,1038.5C 1548.2,1041.01 1553.2,1049.68 1548,1064.5C 1545.25,1069.59 1541.08,1072.76 1535.5,1074C 1551.03,1075.54 1557.53,1084.04 1555,1099.5C 1553.38,1104.94 1549.88,1108.44 1544.5,1110C 1508.83,1110.67 1473.17,1110.67 1437.5,1110C 1423.76,1106.25 1412.76,1098.59 1404.5,1087C 1387.93,1086.18 1371.43,1086.34 1355,1087.5C 1350.55,1130.06 1347.72,1172.73 1346.5,1215.5C 1345.5,1215.5 1344.5,1215.5 1343.5,1215.5C 1343.8,1173.38 1346.13,1131.38 1350.5,1089.5C 1351.43,1088.43 1351.77,1087.1 1351.5,1085.5C 1341.32,1085.17 1331.32,1085.51 1321.5,1086.5C 1316.23,1129.18 1313.56,1172.18 1313.5,1215.5C 1297.83,1215.5 1282.17,1215.5 1266.5,1215.5C 1266.8,1173.38 1269.13,1131.38 1273.5,1089.5C 1274.43,1088.43 1274.77,1087.1 1274.5,1085.5C 1264.32,1085.17 1254.32,1085.51 1244.5,1086.5C 1238.96,1129.16 1236.29,1172.16 1236.5,1215.5C 1235.17,1215.5 1233.83,1215.5 1232.5,1215.5C 1233.43,1178.49 1234.43,1141.49 1235.5,1104.5C 1235.43,1103.23 1235.1,1102.06 1234.5,1101C 1228.92,1100.19 1223.42,1100.36 1218,1101.5C 1214.01,1139.4 1211.51,1177.4 1210.5,1215.5C 1197.5,1215.5 1184.5,1215.5 1171.5,1215.5C 1172.93,1178.42 1175.59,1141.42 1179.5,1104.5C 1180.43,1103.43 1180.77,1102.1 1180.5,1100.5C 1163.5,1100.5 1146.5,1100.5 1129.5,1100.5C 1129.5,1041.5 1129.5,982.5 1129.5,923.5C 1127.9,923.232 1126.57,923.566 1125.5,924.5C 1120.85,925.285 1116.18,926.118 1111.5,927C 1083.25,938.37 1053.91,943.037 1023.5,941C 1004.53,937.116 990.699,926.616 982,909.5C 975.372,889.409 974.705,869.076 980,848.5C 992.842,812.801 1010.84,780.134 1034,750.5C 1033.11,744.477 1031.78,738.477 1030,732.5C 1028.91,719.446 1029.74,706.613 1032.5,694C 1031.82,685.783 1029.65,677.95 1026,670.5C 1025.42,665.04 1025.75,659.706 1027,654.5C 993.519,613.525 971.852,566.859 962,514.5C 949.701,503.231 940.367,489.898 934,474.5C 916.715,417.003 933.048,372.003 983,339.5C 1022.65,255.52 1086.82,199.686 1175.5,172C 1195.41,167.653 1215.07,162.487 1234.5,156.5C 1234.5,104.167 1234.5,51.8333 1234.5,-0.5 Z"/></g>
<g><path style="opacity:1" fill="#b2b3b2" d="M 269.5,63.5 C 323.167,63.5 376.833,63.5 430.5,63.5C 430.5,90.5 430.5,117.5 430.5,144.5C 376.833,144.5 323.167,144.5 269.5,144.5C 269.5,117.5 269.5,90.5 269.5,63.5 Z"/></g>
<g><path style="opacity:1" fill="#555555" d="M 1730.5,82.5 C 1766.83,82.5 1803.17,82.5 1839.5,82.5C 1839.5,101.167 1839.5,119.833 1839.5,138.5C 1803.17,138.5 1766.83,138.5 1730.5,138.5C 1730.5,119.833 1730.5,101.167 1730.5,82.5 Z"/></g>
<g><path style="opacity:1" fill="#c2c2c2" d="M 1068.5,332.5 C 1069.5,332.586 1070.33,332.252 1071,331.5C 1110.61,238.899 1179.11,179.399 1276.5,153C 1275.55,152.517 1274.55,152.351 1273.5,152.5C 1387.95,138.025 1481.79,175.025 1555,263.5C 1585.37,303.936 1604.54,349.269 1612.5,399.5C 1590.25,399.632 1571.25,407.466 1555.5,423C 1504.83,423.833 1454.16,423.667 1403.5,422.5C 1393.83,405.822 1389.5,387.822 1390.5,368.5C 1412.42,361.625 1432.25,350.958 1450,336.5C 1450.5,335.5 1451,334.5 1451.5,333.5C 1450.83,333.167 1450.17,332.833 1449.5,332.5C 1437.53,341.616 1424.86,349.783 1411.5,357C 1397.81,363.897 1383.48,368.563 1368.5,371C 1334.39,330.633 1292.06,318.633 1241.5,335C 1235.68,337.745 1230.01,340.745 1224.5,344C 1223.17,344.667 1221.83,344.667 1220.5,344C 1186.61,319.721 1172.28,286.887 1177.5,245.5C 1176.18,245.33 1175.01,245.663 1174,246.5C 1163.73,285.22 1143.23,317.387 1112.5,343C 1108.62,345.438 1104.62,347.605 1100.5,349.5C 1090.1,343.302 1079.44,337.635 1068.5,332.5 Z"/></g>
<g><path style="opacity:1" fill="#f8f8f8" d="M 1273.5,152.5 C 1274.55,152.351 1275.55,152.517 1276.5,153C 1179.11,179.399 1110.61,238.899 1071,331.5C 1070.33,332.252 1069.5,332.586 1068.5,332.5C 1060.71,331.267 1053.05,329.433 1045.5,327C 1091.64,230.067 1167.64,171.9 1273.5,152.5 Z"/></g>
<g><path style="opacity:1" fill="#555555" d="M 1675.5,151.5 C 1712.17,151.5 1748.83,151.5 1785.5,151.5C 1785.5,170.167 1785.5,188.833 1785.5,207.5C 1748.83,207.5 1712.17,207.5 1675.5,207.5C 1675.5,188.833 1675.5,170.167 1675.5,151.5 Z"/></g>
<g><path style="opacity:1" fill="#444444" d="M 768.5,666.5 C 756.5,666.5 744.5,666.5 732.5,666.5C 732.5,678.833 732.5,691.167 732.5,703.5C 541.5,703.5 350.5,703.5 159.5,703.5C 159.5,542.5 159.5,381.5 159.5,220.5C 362.5,220.5 565.5,220.5 768.5,220.5C 768.5,369.167 768.5,517.833 768.5,666.5 Z"/></g>
<g><path style="opacity:1" fill="#656565" d="M 373.5,224.5 C 354.167,224.5 334.833,224.5 315.5,224.5C 315.737,225.791 315.404,226.791 314.5,227.5C 314.5,226.167 314.5,224.833 314.5,223.5C 334.34,223.17 354.007,223.503 373.5,224.5 Z"/></g>
<g><path style="opacity:1" fill="#565656" d="M 162.5,223.5 C 172.167,223.5 181.833,223.5 191.5,223.5C 191.5,370.167 191.5,516.833 191.5,663.5C 181.833,663.5 172.167,663.5 162.5,663.5C 162.5,516.833 162.5,370.167 162.5,223.5 Z"/></g>
<g><path style="opacity:1" fill="#686968" d="M 163.5,224.5 C 172.5,224.5 181.5,224.5 190.5,224.5C 190.5,370.5 190.5,516.5 190.5,662.5C 181.5,662.5 172.5,662.5 163.5,662.5C 163.5,516.5 163.5,370.5 163.5,224.5 Z"/></g>
<g><path style="opacity:1" fill="#8a8a8a" d="M 201.5,236.5 C 211.089,274.216 212.589,312.216 206,350.5C 204.049,357.22 200.883,363.22 196.5,368.5C 194.854,320.674 194.354,272.674 195,224.5C 196.333,223.167 197.667,223.167 199,224.5C 200.283,228.414 201.116,232.414 201.5,236.5 Z"/></g>
<g><path style="opacity:1" fill="#8d8d8d" d="M 228.5,236.5 C 234.943,272.798 235.11,309.131 229,345.5C 225.704,363.93 216.87,379.097 202.5,391C 200.473,392.879 198.14,394.046 195.5,394.5C 195.334,386.493 195.5,378.493 196,370.5C 196.717,369.956 197.217,369.289 197.5,368.5C 202.893,362.91 206.393,356.244 208,348.5C 214.432,309.359 212.599,270.692 202.5,232.5C 202.722,229.61 202.055,226.943 200.5,224.5C 209.475,223.502 218.475,223.168 227.5,223.5C 227.467,227.869 227.8,232.202 228.5,236.5 Z"/></g>
<g><path style="opacity:1" fill="#8b8b8b" d="M 242.5,227.5 C 252.851,283.011 246.185,336.344 222.5,387.5C 218.524,392.768 215.024,398.434 212,404.5C 208.5,408 205,411.5 201.5,415C 199.783,416.559 197.783,417.392 195.5,417.5C 195.5,410.833 195.5,404.167 195.5,397.5C 215.823,385.297 227.657,367.297 231,343.5C 235.757,316.661 236.757,289.661 234,262.5C 233.181,252.917 231.681,243.584 229.5,234.5C 229.5,231.167 229.5,227.833 229.5,224.5C 233.514,224.334 237.514,224.501 241.5,225C 242.252,225.671 242.586,226.504 242.5,227.5 Z"/></g>
<g><path style="opacity:1" fill="#898989" d="M 267.5,224.5 C 273.287,259.599 272.787,294.599 266,329.5C 262.623,339.331 258.79,348.998 254.5,358.5C 234.42,392.985 215.087,427.985 196.5,463.5C 195.174,448.995 195.174,434.328 196.5,419.5C 209.206,412.127 217.872,401.46 222.5,387.5C 225.137,384.653 227.304,381.319 229,377.5C 242.525,347.534 249.025,316.034 248.5,283C 247.918,263.441 246.585,243.941 244.5,224.5C 252.167,224.5 259.833,224.5 267.5,224.5 Z"/></g>
<g><path style="opacity:1" fill="#8d8d8d" d="M 513.5,530.5 C 507.845,537.154 501.511,543.154 494.5,548.5C 493.914,548.291 493.414,547.957 493,547.5C 492.105,534.753 492.772,522.086 495,509.5C 511.176,437.79 527.843,366.123 545,294.5C 550.03,271.181 554.864,247.847 559.5,224.5C 561.833,224.5 564.167,224.5 566.5,224.5C 571.5,224.5 576.5,224.5 581.5,224.5C 580.636,276.207 575.802,327.54 567,378.5C 556.355,385.811 548.688,395.478 544,407.5C 543.333,414.167 543.333,420.833 544,427.5C 545.677,434.031 547.844,440.365 550.5,446.5C 548.083,458.182 544.749,469.516 540.5,480.5C 545.762,470.901 549.595,460.567 552,449.5C 552.414,449.043 552.914,448.709 553.5,448.5C 556.467,451.286 558.801,454.453 560.5,458C 554.385,477.678 547.885,497.178 541,516.5C 539.863,522.377 540.696,527.877 543.5,533C 542.549,535.822 542.049,538.655 542,541.5C 542.931,539.541 543.764,537.541 544.5,535.5C 548.796,534.672 553.129,534.172 557.5,534C 564.482,530.751 571.815,528.418 579.5,527C 581.5,526.333 582.833,525 583.5,523C 586.146,522.503 588.813,522.336 591.5,522.5C 588.015,534.788 583.849,546.788 579,558.5C 564.148,592.463 549.648,626.463 535.5,660.5C 535.586,661.496 535.252,662.329 534.5,663C 524.333,663.167 514.167,663.333 504,663.5C 493.477,663.499 483.311,662.832 473.5,661.5C 462.479,577.706 460.645,493.706 468,409.5C 474.987,347.989 479.82,286.323 482.5,224.5C 493.167,224.5 503.833,224.5 514.5,224.5C 513.55,238.553 512.05,252.553 510,266.5C 498.791,334.751 488.125,403.084 478,471.5C 474.827,495.408 473.494,519.408 474,543.5C 476.208,512.091 479.208,480.757 483,449.5C 495.155,374.571 506.655,299.571 517.5,224.5C 530.5,224.5 543.5,224.5 556.5,224.5C 552.375,249.959 547.542,275.292 542,300.5C 523.428,372.783 506.762,445.45 492,518.5C 491.116,524.3 490.616,530.133 490.5,536C 490.294,540.523 490.961,544.856 492.5,549C 494.971,549.706 497.305,549.373 499.5,548C 504.784,542.562 509.45,536.728 513.5,530.5 Z"/></g>
<g><path style="opacity:1" fill="#4a4a4a" d="M 566.5,224.5 C 588.892,223.382 611.558,223.382 634.5,224.5C 631.104,244.868 627.271,265.201 623,285.5C 615.674,313.138 608.507,340.805 601.5,368.5C 613.689,369.007 625.856,369.673 638,370.5C 638.772,370.355 639.439,370.022 640,369.5C 647.708,329.503 652.541,289.17 654.5,248.5C 655.482,251.962 655.815,255.629 655.5,259.5C 654.482,296.481 649.815,332.981 641.5,369C 641.585,370.107 641.919,371.107 642.5,372C 652.172,377.663 660.672,384.83 668,393.5C 670.157,405.393 669.99,417.226 667.5,429C 667.625,430.627 668.125,432.127 669,433.5C 669.667,443.5 669.667,453.5 669,463.5C 668.667,454.5 668.333,445.5 668,436.5C 667.781,435.062 667.281,433.729 666.5,432.5C 664.179,435.13 662.346,438.13 661,441.5C 656.798,445.367 652.965,449.533 649.5,454C 652.922,461.102 655.255,468.602 656.5,476.5C 659.553,476.089 662.553,475.423 665.5,474.5C 667.022,471.371 667.855,468.037 668,464.5C 668.333,467.5 668.667,470.5 669,473.5C 676.31,477.359 677.31,482.359 672,488.5C 671.333,489.833 671.333,491.167 672,492.5C 674.14,494.487 676.64,495.82 679.5,496.5C 682.436,500.76 682.103,504.76 678.5,508.5C 675.573,509.801 672.573,510.801 669.5,511.5C 671.645,521.384 667.978,527.884 658.5,531C 657.119,537.02 656.453,536.853 656.5,530.5C 647.76,529.423 643.093,524.423 642.5,515.5C 640.5,515.5 638.5,515.5 636.5,515.5C 637.607,529.558 631.273,536.058 617.5,535C 613.781,533.737 611.281,531.237 610,527.5C 608.88,529.03 608.046,530.697 607.5,532.5C 606.662,532.158 606.328,531.492 606.5,530.5C 607.3,528.393 607.967,526.226 608.5,524C 606.718,517.322 604.552,510.822 602,504.5C 580.487,556.855 558.987,609.188 537.5,661.5C 536.833,661.167 536.167,660.833 535.5,660.5C 549.648,626.463 564.148,592.463 579,558.5C 583.849,546.788 588.015,534.788 591.5,522.5C 588.813,522.336 586.146,522.503 583.5,523C 582.833,525 581.5,526.333 579.5,527C 571.815,528.418 564.482,530.751 557.5,534C 553.129,534.172 548.796,534.672 544.5,535.5C 543.764,537.541 542.931,539.541 542,541.5C 542.049,538.655 542.549,535.822 543.5,533C 540.696,527.877 539.863,522.377 541,516.5C 547.885,497.178 554.385,477.678 560.5,458C 558.801,454.453 556.467,451.286 553.5,448.5C 552.914,448.709 552.414,449.043 552,449.5C 549.595,460.567 545.762,470.901 540.5,480.5C 544.749,469.516 548.083,458.182 550.5,446.5C 547.844,440.365 545.677,434.031 544,427.5C 543.333,420.833 543.333,414.167 544,407.5C 548.688,395.478 556.355,385.811 567,378.5C 575.802,327.54 580.636,276.207 581.5,224.5C 576.5,224.5 571.5,224.5 566.5,224.5 Z"/></g>
<g><path style="opacity:1" fill="#8d8d8d" d="M 584.5,224.5 C 600.167,224.5 615.833,224.5 631.5,224.5C 628.684,247.745 624.518,270.745 619,293.5C 612.489,318.543 605.822,343.543 599,368.5C 589.434,370.854 579.934,373.521 570.5,376.5C 577.703,326.068 582.369,275.401 584.5,224.5 Z"/></g>
<g><path style="opacity:1" fill="#8d8d8d" d="M 634.5,224.5 C 636.5,224.5 638.5,224.5 640.5,224.5C 645.167,224.5 649.833,224.5 654.5,224.5C 654.5,232.5 654.5,240.5 654.5,248.5C 652.541,289.17 647.708,329.503 640,369.5C 639.439,370.022 638.772,370.355 638,370.5C 625.856,369.673 613.689,369.007 601.5,368.5C 608.507,340.805 615.674,313.138 623,285.5C 627.271,265.201 631.104,244.868 634.5,224.5 Z"/></g>
<g><path style="opacity:1" fill="#696969" d="M 640.5,224.5 C 654.657,223.504 668.99,223.171 683.5,223.5C 683.737,224.791 683.404,225.791 682.5,226.5C 674.231,224.53 665.565,223.864 656.5,224.5C 656.828,236.345 656.495,248.012 655.5,259.5C 655.815,255.629 655.482,251.962 654.5,248.5C 654.5,240.5 654.5,232.5 654.5,224.5C 649.833,224.5 645.167,224.5 640.5,224.5 Z"/></g>
<g><path style="opacity:1" fill="#8d8d8d" d="M 682.5,226.5 C 681.8,230.798 681.467,235.131 681.5,239.5C 674.69,277.051 670.69,315.051 669.5,353.5C 669.289,367.232 670.123,380.899 672,394.5C 672.946,399.058 674.946,403.058 678,406.5C 679.356,407.38 680.856,407.714 682.5,407.5C 674.945,400.692 671.445,392.025 672,381.5C 671.15,361.476 671.484,341.476 673,321.5C 675.012,295.008 678.179,268.675 682.5,242.5C 683.54,236.884 684.207,231.217 684.5,225.5C 691.412,224.538 698.412,224.205 705.5,224.5C 701.771,256.73 699.937,289.063 700,321.5C 701,327.167 702,332.833 703,338.5C 706.26,344.646 711.093,346.146 717.5,343C 726.316,334.552 732.482,324.386 736,312.5C 743.715,283.685 747.548,254.352 747.5,224.5C 752.833,224.5 758.167,224.5 763.5,224.5C 763.403,243.415 761.236,262.081 757,280.5C 751.073,304.445 744.24,328.112 736.5,351.5C 751.379,318.332 760.546,283.332 764,246.5C 764.5,277.165 764.667,307.832 764.5,338.5C 765.723,375.42 765.723,412.42 764.5,449.5C 737.701,518.905 715.701,589.905 698.5,662.5C 686.5,662.5 674.5,662.5 662.5,662.5C 665.833,644.168 669.166,625.835 672.5,607.5C 671.113,610.639 669.946,613.972 669,617.5C 666.275,632.959 663.108,648.292 659.5,663.5C 651.587,664.776 643.587,664.443 635.5,662.5C 642.547,622.885 649.38,583.218 656,543.5C 656.667,541.167 656.667,538.833 656,536.5C 648.338,578.454 640.838,620.454 633.5,662.5C 613.489,662.833 593.489,662.5 573.5,661.5C 581.567,617.633 592.901,574.633 607.5,532.5C 608.046,530.697 608.88,529.03 610,527.5C 611.281,531.237 613.781,533.737 617.5,535C 631.273,536.058 637.607,529.558 636.5,515.5C 638.5,515.5 640.5,515.5 642.5,515.5C 643.093,524.423 647.76,529.423 656.5,530.5C 656.453,536.853 657.119,537.02 658.5,531C 667.978,527.884 671.645,521.384 669.5,511.5C 672.573,510.801 675.573,509.801 678.5,508.5C 682.103,504.76 682.436,500.76 679.5,496.5C 676.64,495.82 674.14,494.487 672,492.5C 671.333,491.167 671.333,489.833 672,488.5C 677.31,482.359 676.31,477.359 669,473.5C 668.667,470.5 668.333,467.5 668,464.5C 667.855,468.037 667.022,471.371 665.5,474.5C 662.553,475.423 659.553,476.089 656.5,476.5C 655.255,468.602 652.922,461.102 649.5,454C 652.965,449.533 656.798,445.367 661,441.5C 662.346,438.13 664.179,435.13 666.5,432.5C 667.281,433.729 667.781,435.062 668,436.5C 668.333,445.5 668.667,454.5 669,463.5C 669.667,453.5 669.667,443.5 669,433.5C 668.125,432.127 667.625,430.627 667.5,429C 669.99,417.226 670.157,405.393 668,393.5C 660.672,384.83 652.172,377.663 642.5,372C 641.919,371.107 641.585,370.107 641.5,369C 649.815,332.981 654.482,296.481 655.5,259.5C 656.495,248.012 656.828,236.345 656.5,224.5C 665.565,223.864 674.231,224.53 682.5,226.5 Z"/></g>
<g><path style="opacity:1" fill="#5c5c5c" d="M 708.5,225.5 C 703.546,260.646 702.046,295.98 704,331.5C 705.777,344.895 711.444,346.895 721,337.5C 726.06,330.047 730.06,322.047 733,313.5C 741.723,284.494 745.889,254.827 745.5,224.5C 737.833,224.5 730.167,224.5 722.5,224.5C 736.323,223.504 750.323,223.171 764.5,223.5C 765.759,261.993 765.759,300.327 764.5,338.5C 764.667,307.832 764.5,277.165 764,246.5C 760.546,283.332 751.379,318.332 736.5,351.5C 744.24,328.112 751.073,304.445 757,280.5C 761.236,262.081 763.403,243.415 763.5,224.5C 758.167,224.5 752.833,224.5 747.5,224.5C 747.548,254.352 743.715,283.685 736,312.5C 732.482,324.386 726.316,334.552 717.5,343C 711.093,346.146 706.26,344.646 703,338.5C 702,332.833 701,327.167 700,321.5C 699.937,289.063 701.771,256.73 705.5,224.5C 698.412,224.205 691.412,224.538 684.5,225.5C 687.768,224.178 691.435,223.511 695.5,223.5C 699.167,223.667 702.833,223.833 706.5,224C 707.044,224.717 707.711,225.217 708.5,225.5 Z"/></g>
<g><path style="opacity:1" fill="#8d8d8d" d="M 722.5,224.5 C 730.167,224.5 737.833,224.5 745.5,224.5C 745.889,254.827 741.723,284.494 733,313.5C 730.06,322.047 726.06,330.047 721,337.5C 711.444,346.895 705.777,344.895 704,331.5C 702.046,295.98 703.546,260.646 708.5,225.5C 713.181,225.331 717.848,224.998 722.5,224.5 Z"/></g>
<g><path style="opacity:1" fill="#565656" d="M 229.5,234.5 C 231.681,243.584 233.181,252.917 234,262.5C 236.757,289.661 235.757,316.661 231,343.5C 227.657,367.297 215.823,385.297 195.5,397.5C 195.5,396.5 195.5,395.5 195.5,394.5C 198.14,394.046 200.473,392.879 202.5,391C 216.87,379.097 225.704,363.93 229,345.5C 235.11,309.131 234.943,272.798 228.5,236.5C 229.338,236.158 229.672,235.492 229.5,234.5 Z"/></g>
<g><path style="opacity:1" fill="#525252" d="M 202.5,232.5 C 212.599,270.692 214.432,309.359 208,348.5C 206.393,356.244 202.893,362.91 197.5,368.5C 197.167,368.5 196.833,368.5 196.5,368.5C 200.883,363.22 204.049,357.22 206,350.5C 212.589,312.216 211.089,274.216 201.5,236.5C 202.434,235.432 202.768,234.099 202.5,232.5 Z"/></g>
<g><path style="opacity:1" fill="#585858" d="M 395.5,224.5 C 391.233,224.203 387.066,224.536 383,225.5C 379.46,238.215 374.627,250.215 368.5,261.5C 372.993,249.359 377.327,237.026 381.5,224.5C 386.267,223.203 390.934,223.203 395.5,224.5 Z"/></g>
<g><path style="opacity:1" fill="#8d8d8d" d="M 312.5,230.5 C 311.959,249.237 312.792,267.904 315,286.5C 317.027,295.05 320.527,302.883 325.5,310C 330.357,312.21 335.024,311.877 339.5,309C 346.488,303.348 351.988,296.514 356,288.5C 360.731,279.707 364.898,270.707 368.5,261.5C 374.627,250.215 379.46,238.215 383,225.5C 387.066,224.536 391.233,224.203 395.5,224.5C 397.806,224.993 400.139,225.326 402.5,225.5C 397.337,240.504 392.337,255.504 387.5,270.5C 389.625,267.419 391.458,264.086 393,260.5C 396.92,248.906 400.753,237.24 404.5,225.5C 407.625,224.521 410.958,224.187 414.5,224.5C 436.5,224.5 458.5,224.5 480.5,224.5C 480.666,234.839 480.5,245.172 480,255.5C 475.06,309.505 470.06,363.505 465,417.5C 457.585,499.45 459.752,581.117 471.5,662.5C 469.833,662.5 468.167,662.5 466.5,662.5C 449.472,581.687 441.972,500.021 444,417.5C 449.188,381.182 454.188,344.849 459,308.5C 459.667,299.5 459.667,290.5 459,281.5C 454.691,266.548 444.858,260.715 429.5,264C 413.225,271.11 400.559,282.277 391.5,297.5C 399.68,286.822 409.346,277.655 420.5,270C 432.902,261.64 444.068,262.806 454,273.5C 455.75,276.246 456.75,279.246 457,282.5C 457.667,291.833 457.667,301.167 457,310.5C 452.24,343.487 447.573,376.487 443,409.5C 438.839,455.313 440.173,500.98 447,546.5C 451.802,585.278 457.302,623.945 463.5,662.5C 455.833,662.5 448.167,662.5 440.5,662.5C 440.5,661.833 440.5,661.167 440.5,660.5C 438.856,651.063 436.69,641.73 434,632.5C 435.426,642.471 436.926,652.471 438.5,662.5C 435.5,662.5 432.5,662.5 429.5,662.5C 428.5,662.5 427.5,662.5 426.5,662.5C 422.956,647.543 419.456,632.543 416,617.5C 415.333,619.833 415.333,622.167 416,624.5C 418.639,637.142 421.139,649.809 423.5,662.5C 410.5,662.5 397.5,662.5 384.5,662.5C 384.5,619.5 384.5,576.5 384.5,533.5C 385.396,530.931 387.062,528.931 389.5,527.5C 390.093,525.618 390.76,523.785 391.5,522C 394.168,521.433 396.834,520.933 399.5,520.5C 402.613,551.462 407.447,582.129 414,612.5C 409.409,580.612 405.075,548.612 401,516.5C 399.573,495.182 398.906,473.849 399,452.5C 413.736,439.364 419.736,423.031 417,403.5C 418.96,405.036 420.46,406.869 421.5,409C 412.845,483.831 416.678,557.997 433,631.5C 427.366,598.727 423.033,565.727 420,532.5C 417.067,491.349 418.4,450.349 424,409.5C 424.249,408.376 424.749,407.376 425.5,406.5C 429.508,404.996 431.842,402.163 432.5,398C 430.888,394.573 429.554,391.073 428.5,387.5C 432.056,369.274 436.556,351.274 442,333.5C 443.454,325.214 443.787,316.881 443,308.5C 439.452,301.322 434.286,299.822 427.5,304C 424.833,306 422.167,308 419.5,310C 422.801,309.176 425.801,307.51 428.5,305C 433.109,303.926 437.276,304.76 441,307.5C 441.985,309.366 442.485,311.366 442.5,313.5C 441.858,319.487 441.358,325.487 441,331.5C 435.377,350.902 430.211,370.402 425.5,390C 421.249,390.443 417.249,391.61 413.5,393.5C 409.224,391.331 406.057,387.998 404,383.5C 404.429,368.633 398.262,364.966 385.5,372.5C 382.095,371.752 378.762,370.752 375.5,369.5C 374.749,368.624 374.249,367.624 374,366.5C 373.167,367.333 372.333,368.167 371.5,369C 364.215,370.262 357.215,372.428 350.5,375.5C 349.417,374.635 349.251,373.635 350,372.5C 354.62,361.259 359.787,350.259 365.5,339.5C 365.154,338.304 364.654,338.304 364,339.5C 357.394,352.377 351.061,365.377 345,378.5C 338.148,383.929 331.481,389.596 325,395.5C 319.152,403.365 315.985,412.198 315.5,422C 316.528,431.185 317.362,440.351 318,449.5C 294.779,518.787 278.613,589.787 269.5,662.5C 262.615,664.159 255.615,664.826 248.5,664.5C 250.679,657.271 252.345,649.938 253.5,642.5C 251.222,649.577 248.888,656.743 246.5,664C 242.464,664.85 238.631,664.35 235,662.5C 236.142,656.917 236.809,651.25 237,645.5C 235.031,651.045 233.531,656.711 232.5,662.5C 230.833,662.5 229.167,662.5 227.5,662.5C 217.833,662.5 208.167,662.5 198.5,662.5C 198.5,661.5 198.5,660.5 198.5,659.5C 202.217,621.073 210.05,583.739 222,547.5C 216.885,558.84 212.552,570.507 209,582.5C 203.587,607.646 199.254,632.979 196,658.5C 195.5,635.836 195.333,613.169 195.5,590.5C 201.12,571.813 205.787,552.813 209.5,533.5C 204.094,549.781 199.594,566.448 196,583.5C 195.5,563.836 195.333,544.169 195.5,524.5C 195.283,519.77 195.617,515.103 196.5,510.5C 201.281,498.922 206.114,487.256 211,475.5C 211.991,473.553 212.325,471.553 212,469.5C 206.191,482.444 200.691,495.444 195.5,508.5C 195.199,493.452 195.532,478.452 196.5,463.5C 215.087,427.985 234.42,392.985 254.5,358.5C 256.532,356.149 258.365,353.483 260,350.5C 272.014,321.784 276.348,291.784 273,260.5C 272.49,249.09 271.324,237.756 269.5,226.5C 275.75,224.541 282.416,223.874 289.5,224.5C 290.096,260.509 293.93,296.176 301,331.5C 297.432,305.95 294.432,280.283 292,254.5C 291.5,244.506 291.334,234.506 291.5,224.5C 298.5,224.5 305.5,224.5 312.5,224.5C 312.5,226.5 312.5,228.5 312.5,230.5 Z"/></g>
<g><path style="opacity:1" fill="#585858" d="M 402.5,225.5 C 403.167,225.5 403.833,225.5 404.5,225.5C 400.753,237.24 396.92,248.906 393,260.5C 391.458,264.086 389.625,267.419 387.5,270.5C 392.337,255.504 397.337,240.504 402.5,225.5 Z"/></g>
<g><path style="opacity:1" fill="#8d8d8d" d="M 373.5,224.5 C 376.167,224.5 378.833,224.5 381.5,224.5C 377.327,237.026 372.993,249.359 368.5,261.5C 361.96,274.535 354.794,287.202 347,299.5C 343.749,303.422 339.916,306.588 335.5,309C 327.872,310.407 323.039,307.241 321,299.5C 317.977,292.097 315.977,284.431 315,276.5C 314.5,260.17 314.333,243.837 314.5,227.5C 315.404,226.791 315.737,225.791 315.5,224.5C 334.833,224.5 354.167,224.5 373.5,224.5 Z"/></g>
<g><path style="opacity:1" fill="#c1c1c1" d="M 1170.5,267.5 C 1175.22,300.943 1191.22,327.61 1218.5,347.5C 1197.01,364.479 1182.51,386.145 1175,412.5C 1163.24,404.536 1151.41,404.536 1139.5,412.5C 1133.21,389.581 1121.54,369.914 1104.5,353.5C 1135.66,331.855 1157.66,303.188 1170.5,267.5 Z"/></g>
<g><path style="opacity:1" fill="#515151" d="M 387.5,270.5 C 381.931,284.969 374.765,298.636 366,311.5C 372.601,297.635 379.768,283.968 387.5,270.5 Z"/></g>
<g><path style="opacity:1" fill="#535353" d="M 267.5,224.5 C 259.833,224.5 252.167,224.5 244.5,224.5C 246.585,243.941 247.918,263.441 248.5,283C 249.025,316.034 242.525,347.534 229,377.5C 227.304,381.319 225.137,384.653 222.5,387.5C 246.185,336.344 252.851,283.011 242.5,227.5C 243.434,226.432 243.768,225.099 243.5,223.5C 251.684,223.174 259.684,223.508 267.5,224.5 Z"/></g>
<g><path style="opacity:1" fill="#5f5f5f" d="M 681.5,239.5 C 681.263,240.791 681.596,241.791 682.5,242.5C 678.179,268.675 675.012,295.008 673,321.5C 671.484,341.476 671.15,361.476 672,381.5C 671.445,392.025 674.945,400.692 682.5,407.5C 680.856,407.714 679.356,407.38 678,406.5C 674.946,403.058 672.946,399.058 672,394.5C 670.123,380.899 669.289,367.232 669.5,353.5C 670.69,315.051 674.69,277.051 681.5,239.5 Z"/></g>
<g><path style="opacity:1" fill="#5e5e5e" d="M 391.5,297.5 C 387.308,305.204 382.475,312.538 377,319.5C 380.545,311.435 385.379,304.101 391.5,297.5 Z"/></g>
<g><path style="opacity:1" fill="#5e5e5e" d="M 312.5,230.5 C 312.5,228.5 312.5,226.5 312.5,224.5C 305.5,224.5 298.5,224.5 291.5,224.5C 291.334,234.506 291.5,244.506 292,254.5C 294.432,280.283 297.432,305.95 301,331.5C 293.93,296.176 290.096,260.509 289.5,224.5C 282.416,223.874 275.75,224.541 269.5,226.5C 268.596,225.791 268.263,224.791 268.5,223.5C 283.5,223.5 298.5,223.5 313.5,223.5C 313.802,226.059 313.468,228.393 312.5,230.5 Z"/></g>
<g><path style="opacity:1" fill="#4d4d4d" d="M 381.5,355.5 C 389.873,339.952 400.706,326.285 414,314.5C 414.667,315.167 414.667,315.833 414,316.5C 402.172,328.814 391.339,341.814 381.5,355.5 Z"/></g>
<g><path style="opacity:1" fill="#c0c0c0" d="M 1263.5,339.5 C 1290.23,337.114 1314.9,342.947 1337.5,357C 1343.65,361.983 1349.32,367.483 1354.5,373.5C 1311.78,381.09 1271.78,374.09 1234.5,352.5C 1243.66,346.79 1253.33,342.457 1263.5,339.5 Z"/></g>
<g><path style="opacity:1" fill="#f8f8f8" d="M 1064.5,344.5 C 1062.75,350.66 1061.09,356.826 1059.5,363C 1053.84,363.499 1048.18,363.666 1042.5,363.5C 1039.83,363.5 1037.17,363.5 1034.5,363.5C 1035.41,355.525 1037.41,347.858 1040.5,340.5C 1048.72,340.626 1056.72,341.96 1064.5,344.5 Z"/></g>
<g><path style="opacity:1" fill="#bbbbbb" d="M 1064.5,344.5 C 1072.22,347.407 1079.56,351.073 1086.5,355.5C 1087.83,356.167 1087.83,356.833 1086.5,357.5C 1072.24,363.538 1057.57,365.538 1042.5,363.5C 1048.18,363.666 1053.84,363.499 1059.5,363C 1061.09,356.826 1062.75,350.66 1064.5,344.5 Z"/></g>
<g><path style="opacity:1" fill="#595959" d="M 302.5,336.5 C 305.551,347.807 309.718,358.807 315,369.5C 318.355,374.31 322.021,374.644 326,370.5C 326.507,371.996 326.007,373.163 324.5,374C 321.833,374.667 319.167,374.667 316.5,374C 313.271,369.767 310.438,365.267 308,360.5C 305.847,352.556 304.014,344.556 302.5,336.5 Z"/></g>
<g><path style="opacity:1" fill="#626262" d="M 358.5,321.5 C 359.573,322.251 359.74,323.251 359,324.5C 350.247,337.674 341.247,350.674 332,363.5C 331.333,362.833 331.333,362.167 332,361.5C 341.483,348.532 350.316,335.199 358.5,321.5 Z"/></g>
<g><path style="opacity:1" fill="#c2c2c2" d="M 1226.5,355.5 C 1228.86,355.337 1231.19,355.503 1233.5,356C 1272.47,377.553 1314.14,385.22 1358.5,379C 1377.5,406.316 1381.66,435.816 1371,467.5C 1358.1,499.397 1334.93,519.564 1301.5,528C 1261.42,534.865 1228.92,522.365 1204,490.5C 1183.13,457.541 1181.13,423.541 1198,388.5C 1205.53,375.807 1215.03,364.807 1226.5,355.5 Z"/></g>
<g><path style="opacity:1" fill="#c3c3c3" d="M 1060.5,526.5 C 1052.07,496.399 1048.57,465.732 1050,434.5C 1061.58,449.685 1076.08,453.185 1093.5,445C 1107.59,433.487 1111.09,419.32 1104,402.5C 1091.89,387.43 1077.05,383.93 1059.5,392C 1057.67,393.833 1055.83,395.667 1054,397.5C 1053.33,393.167 1053.33,388.833 1054,384.5C 1055.49,379.223 1056.65,373.889 1057.5,368.5C 1053.63,368.815 1049.96,368.482 1046.5,367.5C 1061.67,368.83 1076.17,366.496 1090,360.5C 1107.56,370.749 1119.23,385.749 1125,405.5C 1135.39,449.842 1122.89,486.008 1087.5,514C 1078.98,519.259 1069.98,523.425 1060.5,526.5 Z"/></g>
<g><path style="opacity:1" fill="#b4b4b4" d="M 971.5,361.5 C 972.586,361.62 973.253,362.287 973.5,363.5C 959.764,405.485 954.597,448.485 958,492.5C 937.757,463.921 933.424,432.921 945,399.5C 951.327,385.02 960.16,372.353 971.5,361.5 Z"/></g>
<g><path style="opacity:1" fill="#c8c8c8" d="M -0.5,363.5 C 26.5,363.5 53.5,363.5 80.5,363.5C 80.5,391.5 80.5,419.5 80.5,447.5C 53.5,447.5 26.5,447.5 -0.5,447.5C -0.5,419.5 -0.5,391.5 -0.5,363.5 Z"/></g>
<g><path style="opacity:1" fill="#676767" d="M 736.5,351.5 C 734.838,357.826 732.338,363.826 729,369.5C 730.234,362.963 732.734,356.963 736.5,351.5 Z"/></g>
<g><path style="opacity:1" fill="#4c4c4c" d="M 384.5,533.5 C 383.833,535.5 383.167,537.5 382.5,539.5C 382.799,537.396 382.466,535.396 381.5,533.5C 377.006,535.741 373.339,538.908 370.5,543C 361.877,548.218 354.711,546.718 349,538.5C 348.506,536.866 348.34,535.199 348.5,533.5C 348.683,526.132 348.35,518.799 347.5,511.5C 347.5,496.833 347.5,482.167 347.5,467.5C 345.801,467.38 344.135,467.046 342.5,466.5C 341.261,466.942 340.261,467.609 339.5,468.5C 339.737,467.209 339.404,466.209 338.5,465.5C 336.338,462.58 333.338,460.913 329.5,460.5C 327.744,455.555 324.911,451.222 321,447.5C 296.869,517.315 280.702,588.981 272.5,662.5C 272.5,662.833 272.5,663.167 272.5,663.5C 271.609,662.89 270.609,662.557 269.5,662.5C 278.613,589.787 294.779,518.787 318,449.5C 317.362,440.351 316.528,431.185 315.5,422C 315.985,412.198 319.152,403.365 325,395.5C 331.481,389.596 338.148,383.929 345,378.5C 351.061,365.377 357.394,352.377 364,339.5C 364.654,338.304 365.154,338.304 365.5,339.5C 359.787,350.259 354.62,361.259 350,372.5C 349.251,373.635 349.417,374.635 350.5,375.5C 357.215,372.428 364.215,370.262 371.5,369C 372.333,368.167 373.167,367.333 374,366.5C 374.249,367.624 374.749,368.624 375.5,369.5C 378.762,370.752 382.095,371.752 385.5,372.5C 398.262,364.966 404.429,368.633 404,383.5C 406.057,387.998 409.224,391.331 413.5,393.5C 417.249,391.61 421.249,390.443 425.5,390C 430.211,370.402 435.377,350.902 441,331.5C 441.358,325.487 441.858,319.487 442.5,313.5C 442.485,311.366 441.985,309.366 441,307.5C 437.276,304.76 433.109,303.926 428.5,305C 425.801,307.51 422.801,309.176 419.5,310C 422.167,308 424.833,306 427.5,304C 434.286,299.822 439.452,301.322 443,308.5C 443.787,316.881 443.454,325.214 442,333.5C 436.556,351.274 432.056,369.274 428.5,387.5C 429.554,391.073 430.888,394.573 432.5,398C 431.842,402.163 429.508,404.996 425.5,406.5C 424.749,407.376 424.249,408.376 424,409.5C 418.4,450.349 417.067,491.349 420,532.5C 423.033,565.727 427.366,598.727 433,631.5C 416.678,557.997 412.845,483.831 421.5,409C 420.46,406.869 418.96,405.036 417,403.5C 419.736,423.031 413.736,439.364 399,452.5C 398.906,473.849 399.573,495.182 401,516.5C 405.075,548.612 409.409,580.612 414,612.5C 407.447,582.129 402.613,551.462 399.5,520.5C 396.834,520.933 394.168,521.433 391.5,522C 390.76,523.785 390.093,525.618 389.5,527.5C 387.062,528.931 385.396,530.931 384.5,533.5 Z"/></g>
<g><path style="opacity:1" fill="#494949" d="M 381.5,355.5 C 380.657,358.516 379.157,361.183 377,363.5C 377.375,360.27 378.875,357.603 381.5,355.5 Z"/></g>
<g><path style="opacity:1" fill="#565656" d="M 721.5,445.5 C 731.955,415.593 743.788,386.26 757,357.5C 756.985,360.57 756.318,363.57 755,366.5C 743.201,392.742 732.034,419.075 721.5,445.5 Z"/></g>
<g><path style="opacity:1" fill="#fbfbfb" d="M 1046.5,367.5 C 1049.96,368.482 1053.63,368.815 1057.5,368.5C 1056.65,373.889 1055.49,379.223 1054,384.5C 1053.33,388.833 1053.33,393.167 1054,397.5C 1055.83,395.667 1057.67,393.833 1059.5,392C 1077.05,383.93 1091.89,387.43 1104,402.5C 1111.09,419.32 1107.59,433.487 1093.5,445C 1076.08,453.185 1061.58,449.685 1050,434.5C 1048.57,465.732 1052.07,496.399 1060.5,526.5C 1051.7,529.031 1042.7,530.031 1033.5,529.5C 1018.82,475.808 1018.32,422.141 1032,368.5C 1036.74,367.531 1041.57,367.197 1046.5,367.5 Z"/></g>
<g><path style="opacity:1" fill="#868686" d="M 392.5,370.5 C 400.701,369.37 403.368,372.703 400.5,380.5C 397.003,377.917 393.336,375.584 389.5,373.5C 390.34,372.265 391.34,371.265 392.5,370.5 Z"/></g>
<g><path style="opacity:1" fill="#bfbfbf" d="M 613.5,372.5 C 631.72,369.868 646.386,375.701 657.5,390C 657.095,390.945 656.428,391.612 655.5,392C 652.828,392.834 650.161,393.668 647.5,394.5C 638.25,392.687 628.916,391.853 619.5,392C 605.446,396.25 599.613,405.75 602,420.5C 610.96,438.449 623.793,441.782 640.5,430.5C 647.229,421.98 648.229,412.813 643.5,403C 648.731,401.759 653.398,402.759 657.5,406C 660.146,406.497 662.813,406.664 665.5,406.5C 667.251,425.325 660.584,440.325 645.5,451.5C 649.311,461.322 652.645,471.322 655.5,481.5C 659.726,480.815 663.893,479.815 668,478.5C 671.293,479.138 672.293,481.138 671,484.5C 669.933,485.191 668.766,485.691 667.5,486C 666.919,486.893 666.585,487.893 666.5,489C 667.869,492.012 668.536,495.179 668.5,498.5C 671.187,498.336 673.854,498.503 676.5,499C 677.406,500.699 677.739,502.533 677.5,504.5C 673.426,506.25 669.259,507.917 665,509.5C 665.434,513.452 665.434,517.452 665,521.5C 664.535,522.931 663.701,524.097 662.5,525C 658.961,526.504 655.295,526.837 651.5,526C 649.951,524.786 648.785,523.286 648,521.5C 641.333,500.167 634.667,478.833 628,457.5C 592.721,453.587 578.387,434.254 585,399.5C 590.383,386.075 599.883,377.075 613.5,372.5 Z"/></g>
<g><path style="opacity:1" fill="#b9b9b9" d="M 1383.5,372.5 C 1384.12,372.611 1384.62,372.944 1385,373.5C 1385.88,376.952 1386.72,380.286 1387.5,383.5C 1388.72,396.831 1392.39,409.497 1398.5,421.5C 1398.29,422.086 1397.96,422.586 1397.5,423C 1394.24,423.784 1391.07,423.617 1388,422.5C 1386.06,405.995 1380.56,390.828 1371.5,377C 1375.05,374.322 1379.05,372.822 1383.5,372.5 Z"/></g>
<g><path style="opacity:1" fill="#7c7c7c" d="M 1383.5,372.5 C 1384.91,371.172 1386.08,371.505 1387,373.5C 1387.5,376.817 1387.67,380.15 1387.5,383.5C 1386.72,380.286 1385.88,376.952 1385,373.5C 1384.62,372.944 1384.12,372.611 1383.5,372.5 Z"/></g>
<g><path style="opacity:1" fill="#c9c9c9" d="M 589.5,373.5 C 593.846,373.334 598.179,373.501 602.5,374C 581.925,387.99 572.758,407.49 575,432.5C 576.568,437.875 578.901,442.875 582,447.5C 586.387,452.38 590.553,457.38 594.5,462.5C 591.432,470.705 588.765,479.038 586.5,487.5C 590.49,489.164 594.49,490.831 598.5,492.5C 599.76,494.353 599.76,496.186 598.5,498C 595.313,498.001 592.48,498.834 590,500.5C 588.475,503.72 587.808,507.053 588,510.5C 591.947,511.79 593.113,514.29 591.5,518C 586.934,518.538 582.601,517.704 578.5,515.5C 575.337,517.967 573.003,521.133 571.5,525C 566.354,527.504 561.854,526.671 558,522.5C 557.333,518.5 557.333,514.5 558,510.5C 565.031,491.075 571.864,471.575 578.5,452C 576.05,448.547 573.217,445.38 570,442.5C 558.143,425.377 557.476,407.71 568,389.5C 574.126,382.546 581.293,377.212 589.5,373.5 Z"/></g>
<g><path style="opacity:1" fill="#bfbfbf" d="M 395.5,517.5 C 390.5,517.5 385.5,517.5 380.5,517.5C 380.5,520.833 380.5,524.167 380.5,527.5C 377.521,533.646 372.854,535.146 366.5,532C 364.859,530.871 363.859,529.371 363.5,527.5C 363.918,506.306 363.251,485.306 361.5,464.5C 361.5,461.5 361.5,458.5 361.5,455.5C 337.497,448.528 327.33,432.528 331,407.5C 339.734,379.797 358.234,369.63 386.5,377C 394.763,380.095 401.429,385.261 406.5,392.5C 393.179,393.333 379.846,393.833 366.5,394C 353.168,397.697 347.334,406.531 349,420.5C 355.406,438.449 367.239,443.283 384.5,435C 395.307,425.947 397.307,415.28 390.5,403C 397.492,402.5 404.492,402.334 411.5,402.5C 416.471,425.127 409.137,442.293 389.5,454C 387.109,454.287 384.776,454.787 382.5,455.5C 381.501,466.814 381.168,478.147 381.5,489.5C 386.26,489.513 390.926,490.18 395.5,491.5C 397.561,496.446 395.894,498.446 390.5,497.5C 390.5,501.833 390.5,506.167 390.5,510.5C 395.786,510.413 397.452,512.746 395.5,517.5 Z"/></g>
<g><path style="opacity:1" fill="#5a5a5a" d="M 290.5,361.5 C 284.544,360.875 279.211,362.375 274.5,366C 268.333,372.833 262.167,379.667 256,386.5C 261.638,375.857 269.804,367.357 280.5,361C 284.027,360.192 287.36,360.359 290.5,361.5 Z"/></g>
<g><path style="opacity:1" fill="#545454" d="M 682.5,407.5 C 689.795,408.014 696.462,406.18 702.5,402C 710.974,394.519 718.141,386.019 724,376.5C 724.315,377.908 723.982,379.241 723,380.5C 717.286,389.221 710.452,397.054 702.5,404C 696.171,408.094 689.504,409.261 682.5,407.5 Z"/></g>
<g><path style="opacity:1" fill="#a7a7a7" d="M 420.5,394.5 C 426.89,393.218 428.89,395.551 426.5,401.5C 420.662,402.656 418.662,400.323 420.5,394.5 Z"/></g>
<g><path style="opacity:1" fill="#a8a8a8" d="M 658.5,394.5 C 664.313,394.062 665.98,396.562 663.5,402C 657.593,402.746 655.927,400.246 658.5,394.5 Z"/></g>
<g><path style="opacity:1" fill="#474747" d="M 1290.5,398.5 C 1298.35,396.963 1301.51,399.963 1300,407.5C 1290.83,413.333 1281.67,419.167 1272.5,425C 1284.22,425.229 1295.88,426.063 1307.5,427.5C 1308.93,430.533 1308.59,433.366 1306.5,436C 1286.49,436.833 1266.49,436.666 1246.5,435.5C 1245.03,432.138 1245.37,428.971 1247.5,426C 1262.54,417.759 1276.88,408.593 1290.5,398.5 Z"/></g>
<g><path style="opacity:1" fill="#484848" d="M 1058.5,402.5 C 1076.8,400.627 1083.96,408.627 1080,426.5C 1072.07,435.845 1063.24,436.845 1053.5,429.5C 1046.83,418.767 1048.5,409.767 1058.5,402.5 Z"/></g>
<g><path style="opacity:1" fill="#c6c6c6" d="M 622.5,403.5 C 635.972,406.707 640.805,415.041 637,428.5C 631.347,432.004 625.18,433.337 618.5,432.5C 620.857,427.769 622.69,422.769 624,417.5C 624.779,412.682 624.279,408.015 622.5,403.5 Z"/></g>
<g><path style="opacity:1" fill="#c2c2c2" d="M 1349.5,741.5 C 1295.66,740.414 1245.16,726.748 1198,700.5C 1197.81,702.708 1197.31,704.708 1196.5,706.5C 1196.71,694.879 1191.05,688.379 1179.5,687C 1190.05,672.266 1186.72,662.1 1169.5,656.5C 1176.48,647.688 1183.64,639.021 1191,630.5C 1193.6,617.682 1188.43,610.682 1175.5,609.5C 1172.21,609.295 1169.21,610.128 1166.5,612C 1155.3,624.695 1143.97,637.195 1132.5,649.5C 1102.2,618.108 1079.87,581.608 1065.5,540C 1065.16,538.97 1064.5,538.47 1063.5,538.5C 1093.95,528.234 1116.61,508.734 1131.5,480C 1135.15,481.56 1138.98,483.06 1143,484.5C 1145.8,484.18 1148.3,483.18 1150.5,481.5C 1152.96,476.665 1154.96,471.665 1156.5,466.5C 1150.8,466.404 1145.14,465.904 1139.5,465C 1129.59,459.091 1126.76,450.591 1131,439.5C 1133.26,436.567 1136.1,434.4 1139.5,433C 1144.82,432.501 1150.16,432.334 1155.5,432.5C 1155.5,431.167 1155.5,429.833 1155.5,428.5C 1141.35,429.876 1140.02,426.709 1151.5,419C 1160.89,416.45 1168.05,419.283 1173,427.5C 1174.5,482.031 1200.66,518.864 1251.5,538C 1298.62,548.738 1337.45,535.572 1368,498.5C 1380.15,479.704 1387.32,459.204 1389.5,437C 1395.5,436.333 1401.5,436.333 1407.5,437C 1431.32,464.242 1461.32,477.242 1497.5,476C 1510.1,474.265 1522.44,471.432 1534.5,467.5C 1534.25,470.32 1534.75,472.986 1536,475.5C 1537,476.833 1538,476.833 1539,475.5C 1541.44,436.721 1561.61,412.888 1599.5,404C 1634.97,400.146 1660.8,413.979 1677,445.5C 1689.91,481.039 1681.74,510.539 1652.5,534C 1620.97,552.342 1590.97,550.342 1562.5,528C 1561.55,527.517 1560.55,527.351 1559.5,527.5C 1559.24,528.978 1559.57,530.311 1560.5,531.5C 1565.59,534.423 1570.26,537.923 1574.5,542C 1555.9,571.732 1546.4,604.232 1546,639.5C 1494.16,699.177 1428.66,733.177 1349.5,741.5 Z"/></g>
<g><path style="opacity:1" fill="#5c5c5c" d="M 414.5,224.5 C 463.128,223.759 511.461,223.759 559.5,224.5C 554.864,247.847 550.03,271.181 545,294.5C 527.843,366.123 511.176,437.79 495,509.5C 492.772,522.086 492.105,534.753 493,547.5C 493.414,547.957 493.914,548.291 494.5,548.5C 501.511,543.154 507.845,537.154 513.5,530.5C 509.45,536.728 504.784,542.562 499.5,548C 497.305,549.373 494.971,549.706 492.5,549C 490.961,544.856 490.294,540.523 490.5,536C 490.616,530.133 491.116,524.3 492,518.5C 506.762,445.45 523.428,372.783 542,300.5C 547.542,275.292 552.375,249.959 556.5,224.5C 543.5,224.5 530.5,224.5 517.5,224.5C 506.655,299.571 495.155,374.571 483,449.5C 479.208,480.757 476.208,512.091 474,543.5C 473.494,519.408 474.827,495.408 478,471.5C 488.125,403.084 498.791,334.751 510,266.5C 512.05,252.553 513.55,238.553 514.5,224.5C 503.833,224.5 493.167,224.5 482.5,224.5C 479.82,286.323 474.987,347.989 468,409.5C 460.645,493.706 462.479,577.706 473.5,661.5C 471.34,663.564 469.007,663.898 466.5,662.5C 468.167,662.5 469.833,662.5 471.5,662.5C 459.752,581.117 457.585,499.45 465,417.5C 470.06,363.505 475.06,309.505 480,255.5C 480.5,245.172 480.666,234.839 480.5,224.5C 458.5,224.5 436.5,224.5 414.5,224.5 Z"/></g>
<g><path style="opacity:1" fill="#575757" d="M 242.5,403.5 C 243.376,403.369 244.043,403.702 244.5,404.5C 241.818,409.864 239.151,415.198 236.5,420.5C 236.167,420.167 235.833,419.833 235.5,419.5C 238.402,414.368 240.735,409.035 242.5,403.5 Z"/></g>
<g><path style="opacity:1" fill="#898989" d="M 355.5,405.5 C 357.857,405.337 360.19,405.503 362.5,406C 363.022,406.561 363.355,407.228 363.5,408C 360.903,412.668 359.069,417.502 358,422.5C 360.438,417.125 363.271,411.958 366.5,407C 374.73,408.918 379.063,414.251 379.5,423C 379.94,434.765 374.606,438.432 363.5,434C 351.908,426.832 349.242,417.332 355.5,405.5 Z"/></g>
<g><path style="opacity:1" fill="#7b7b7b" d="M 605.5,412.5 C 606.777,413.694 607.444,415.36 607.5,417.5C 607.333,419.167 607.167,420.833 607,422.5C 605.684,419.312 605.184,415.978 605.5,412.5 Z"/></g>
<g><path style="opacity:1" fill="#575757" d="M 290.5,361.5 C 292.903,361.393 294.736,362.393 296,364.5C 298.842,368.356 300.509,372.69 301,377.5C 302.751,405.708 301.084,433.708 296,461.5C 292.609,480.25 288.942,498.916 285,517.5C 284.333,514.833 284.333,512.167 285,509.5C 294.764,468.719 299.764,427.386 300,385.5C 299.385,380.094 298.385,374.761 297,369.5C 295.641,366.097 293.474,363.431 290.5,361.5 Z"/></g>
<g><path style="opacity:1" fill="#505050" d="M 1602.5,425.5 C 1618.88,424.459 1633.21,429.293 1645.5,440C 1646.38,441.356 1646.71,442.856 1646.5,444.5C 1645.45,444.649 1644.45,444.483 1643.5,444C 1630.15,431.412 1614.49,427.412 1596.5,432C 1583.54,436.958 1574.54,445.958 1569.5,459C 1582.87,451.791 1593.03,454.957 1600,468.5C 1603.02,484.524 1596.52,492.857 1580.5,493.5C 1580.5,492.5 1580.5,491.5 1580.5,490.5C 1594.58,488.909 1599.75,481.242 1596,467.5C 1587.7,457.588 1578.7,456.922 1569,465.5C 1567.69,469.446 1565.86,473.112 1563.5,476.5C 1563.2,454.291 1573.2,438.458 1593.5,429C 1596.72,428.1 1599.72,426.933 1602.5,425.5 Z"/></g>
<g><path style="opacity:1" fill="#5b5b5b" d="M 266.5,430.5 C 260.695,429.524 255.695,431.024 251.5,435C 247.578,438.251 244.412,442.084 242,446.5C 239.916,452.339 237.083,457.673 233.5,462.5C 236.449,452.567 241.116,443.567 247.5,435.5C 252.124,430.518 257.79,428.352 264.5,429C 265.416,429.278 266.082,429.778 266.5,430.5 Z"/></g>
<g><path style="opacity:1" fill="#585858" d="M 266.5,430.5 C 268.888,431.219 270.388,432.885 271,435.5C 271.667,441.167 271.667,446.833 271,452.5C 271.251,444.708 269.751,437.374 266.5,430.5 Z"/></g>
<g><path style="opacity:1" fill="#727272" d="M 1545.5,436.5 C 1501.33,436.168 1457.33,436.501 1413.5,437.5C 1412.96,437.44 1412.62,437.107 1412.5,436.5C 1457,435.169 1501.33,435.169 1545.5,436.5 Z"/></g>
<g><path style="opacity:1" fill="#c1c1c1" d="M 1545.5,436.5 C 1541.77,444.695 1538.44,453.029 1535.5,461.5C 1489.02,481.728 1448.35,473.728 1413.5,437.5C 1457.33,436.501 1501.33,436.168 1545.5,436.5 Z"/></g>
<g><path style="opacity:1" fill="#606060" d="M 224.5,440.5 C 225.571,443.781 224.738,446.781 222,449.5C 221.333,448.167 221.333,446.833 222,445.5C 223.372,444.09 224.205,442.423 224.5,440.5 Z"/></g>
<g><path style="opacity:1" fill="#8d8d8d" d="M 329.5,460.5 C 333.338,460.913 336.338,462.58 338.5,465.5C 329.051,496.625 320.218,527.958 312,559.5C 304.228,593.529 298.061,627.862 293.5,662.5C 286.5,662.5 279.5,662.5 272.5,662.5C 280.702,588.981 296.869,517.315 321,447.5C 324.911,451.222 327.744,455.555 329.5,460.5 Z"/></g>
<g><path style="opacity:1" fill="#8b8b8b" d="M 396.5,467.5 C 396.5,473.5 396.5,479.5 396.5,485.5C 392.833,485.5 389.167,485.5 385.5,485.5C 385.5,478.833 385.5,472.167 385.5,465.5C 385.351,464.448 385.517,463.448 386,462.5C 388.979,460.356 391.812,458.022 394.5,455.5C 395.086,455.709 395.586,456.043 396,456.5C 396.499,460.152 396.665,463.818 396.5,467.5 Z"/></g>
<g><path style="opacity:1" fill="#8d8d8d" d="M 764.5,514.5 C 764.007,516.806 763.674,519.139 763.5,521.5C 750.533,567.521 742.533,614.521 739.5,662.5C 726.833,662.5 714.167,662.5 701.5,662.5C 718.204,591.89 739.038,522.557 764,454.5C 764.5,474.497 764.667,494.497 764.5,514.5 Z"/></g>
<g><path style="opacity:1" fill="#626262" d="M 721.5,445.5 C 715.596,464.789 708.93,483.789 701.5,502.5C 701.34,500.801 701.506,499.134 702,497.5C 706.918,485.079 711.252,472.413 715,459.5C 716.575,454.47 718.742,449.803 721.5,445.5 Z"/></g>
<g><path style="opacity:1" fill="#878787" d="M 617.5,460.5 C 619.857,460.337 622.19,460.503 624.5,461C 626.629,464.721 627.962,468.721 628.5,473C 628.643,476.557 627.143,479.057 624,480.5C 623.055,480.095 622.388,479.428 622,478.5C 620.307,472.529 618.807,466.529 617.5,460.5 Z"/></g>
<g><path style="opacity:1" fill="#8d8d8d" d="M 347.5,511.5 C 329.916,546.252 320.416,583.252 319,622.5C 318.488,635.841 318.655,649.174 319.5,662.5C 311.833,662.5 304.167,662.5 296.5,662.5C 304.537,596.359 318.871,531.692 339.5,468.5C 340.261,467.609 341.261,466.942 342.5,466.5C 344.135,467.046 345.801,467.38 347.5,467.5C 347.5,482.167 347.5,496.833 347.5,511.5 Z"/></g>
<g><path style="opacity:1" fill="#676767" d="M 385.5,465.5 C 385.5,472.167 385.5,478.833 385.5,485.5C 389.167,485.5 392.833,485.5 396.5,485.5C 396.5,479.5 396.5,473.5 396.5,467.5C 397.49,473.645 397.823,479.978 397.5,486.5C 393.167,486.5 388.833,486.5 384.5,486.5C 384.175,479.313 384.509,472.313 385.5,465.5 Z"/></g>
<g><path style="opacity:1" fill="#474747" d="M 1168.5,475.5 C 1176.77,473.941 1180.27,477.274 1179,485.5C 1174.28,487.595 1169.45,489.428 1164.5,491C 1163.33,492.167 1162.17,493.333 1161,494.5C 1159.05,499.495 1156.89,504.328 1154.5,509C 1146.94,510.085 1144.44,506.919 1147,499.5C 1149.85,487.49 1157.02,479.49 1168.5,475.5 Z"/></g>
<g><path style="opacity:1" fill="#545454" d="M 329.5,460.5 C 325.461,473.118 321.294,485.785 317,498.5C 319.288,485.138 323.454,472.471 329.5,460.5 Z"/></g>
<g><path style="opacity:1" fill="#808080" d="M 592.5,478.5 C 595.893,480.073 597.226,482.74 596.5,486.5C 594.833,486.5 593.167,486.5 591.5,486.5C 591.833,483.833 592.167,481.167 592.5,478.5 Z"/></g>
<g><path style="opacity:1" fill="#525252" d="M 540.5,480.5 C 537.337,489.83 533.337,498.83 528.5,507.5C 528.167,507.167 527.833,506.833 527.5,506.5C 531.879,497.741 536.213,489.075 540.5,480.5 Z"/></g>
<g><path style="opacity:1" fill="#666666" d="M 196.5,510.5 C 195.662,510.158 195.328,509.492 195.5,508.5C 200.691,495.444 206.191,482.444 212,469.5C 212.325,471.553 211.991,473.553 211,475.5C 206.114,487.256 201.281,498.922 196.5,510.5 Z"/></g>
<g><path style="opacity:1" fill="#7c7c7c" d="M 361.5,464.5 C 363.251,485.306 363.918,506.306 363.5,527.5C 362.503,506.67 361.836,485.67 361.5,464.5 Z"/></g>
<g><path style="opacity:1" fill="#7f7f7f" d="M 393.5,501.5 C 398.378,501.535 399.711,503.868 397.5,508.5C 396.264,507.754 394.93,507.421 393.5,507.5C 393.5,505.5 393.5,503.5 393.5,501.5 Z"/></g>
<g><path style="opacity:1" fill="#808080" d="M 592.5,502.5 C 600.467,502.333 601.8,505.333 596.5,511.5C 592.993,509.539 591.66,506.539 592.5,502.5 Z"/></g>
<g><path style="opacity:1" fill="#5d5d5d" d="M 233.5,462.5 C 224.699,485.903 216.699,509.569 209.5,533.5C 213.947,508.492 221.947,484.825 233.5,462.5 Z"/></g>
<g><path style="opacity:1" fill="#8d8d8d" d="M 606.5,530.5 C 595.29,563.655 585.457,597.322 577,631.5C 574.713,641.768 572.879,652.101 571.5,662.5C 563.5,662.5 555.5,662.5 547.5,662.5C 543.958,662.813 540.625,662.479 537.5,661.5C 558.987,609.188 580.487,556.855 602,504.5C 604.552,510.822 606.718,517.322 608.5,524C 607.967,526.226 607.3,528.393 606.5,530.5 Z"/></g>
<g><path style="opacity:1" fill="#808080" d="M 395.5,517.5 C 391.03,518.486 386.363,518.819 381.5,518.5C 381.81,521.713 381.477,524.713 380.5,527.5C 380.5,524.167 380.5,520.833 380.5,517.5C 385.5,517.5 390.5,517.5 395.5,517.5 Z"/></g>
<g><path style="opacity:1" fill="#606060" d="M 513.5,530.5 C 515.149,526.687 517.149,523.02 519.5,519.5C 520.583,520.365 520.749,521.365 520,522.5C 518.054,525.42 515.887,528.087 513.5,530.5 Z"/></g>
<g><path style="opacity:1" fill="#5f5f5f" d="M 270.5,456.5 C 271.654,462.987 271.821,469.654 271,476.5C 264.557,532.377 253.891,587.377 239,641.5C 238.333,639.5 238.333,637.5 239,635.5C 255.329,576.859 265.829,517.192 270.5,456.5 Z"/></g>
<g><path style="opacity:1" fill="#5c5c5c" d="M 280.5,535.5 C 280.268,530.954 281.101,526.621 283,522.5C 283.623,527.217 282.789,531.551 280.5,535.5 Z"/></g>
<g><path style="opacity:1" fill="#8d8d8d" d="M 762.5,529.5 C 763.268,530.263 763.768,531.263 764,532.5C 764.5,575.832 764.667,619.165 764.5,662.5C 756.833,662.5 749.167,662.5 741.5,662.5C 744.496,617.525 751.496,573.191 762.5,529.5 Z"/></g>
<g><path style="opacity:0.999" fill="#686868" d="M 1939.5,1170.5 C 1939.5,1185.5 1939.5,1200.5 1939.5,1215.5C 1741.83,1215.5 1544.17,1215.5 1346.5,1215.5C 1347.72,1172.73 1350.55,1130.06 1355,1087.5C 1371.43,1086.34 1387.93,1086.18 1404.5,1087C 1412.76,1098.59 1423.76,1106.25 1437.5,1110C 1473.17,1110.67 1508.83,1110.67 1544.5,1110C 1549.88,1108.44 1553.38,1104.94 1555,1099.5C 1557.53,1084.04 1551.03,1075.54 1535.5,1074C 1541.08,1072.76 1545.25,1069.59 1548,1064.5C 1553.2,1049.68 1548.2,1041.01 1533,1038.5C 1521.97,1040.47 1511.14,1043.13 1500.5,1046.5C 1496.48,1030.15 1487.14,1017.81 1472.5,1009.5C 1491.03,992.138 1510.03,975.305 1529.5,959C 1540.53,947.979 1550.03,935.812 1558,922.5C 1568.7,900.299 1563.87,882.466 1543.5,869C 1515.74,855.748 1486.41,849.581 1455.5,850.5C 1454.04,844.775 1452.37,839.108 1450.5,833.5C 1467.74,833.825 1484.91,833.492 1502,832.5C 1502.67,814.167 1502.67,795.833 1502,777.5C 1467.73,776.356 1433.56,776.69 1399.5,778.5C 1364.98,757.663 1327.98,751.996 1288.5,761.5C 1288.5,756.833 1288.5,752.167 1288.5,747.5C 1390.76,754.168 1476.43,720.168 1545.5,645.5C 1549.33,681.68 1562.33,714.014 1584.5,742.5C 1587.02,743.949 1588.18,743.282 1588,740.5C 1563.31,711.101 1551.31,677.101 1552,638.5C 1572.79,612.114 1589.62,583.281 1602.5,552C 1623.73,552.034 1642.73,545.7 1659.5,533C 1660.83,532.333 1662.17,532.333 1663.5,533C 1670.67,540.167 1677.83,547.333 1685,554.5C 1840.05,729.971 1924.88,935.304 1939.5,1170.5 Z"/></g>
<g><path style="opacity:1" fill="#5c5c5c" d="M 606.5,530.5 C 606.328,531.492 606.662,532.158 607.5,532.5C 592.901,574.633 581.567,617.633 573.5,661.5C 593.489,662.5 613.489,662.833 633.5,662.5C 640.838,620.454 648.338,578.454 656,536.5C 656.667,538.833 656.667,541.167 656,543.5C 649.38,583.218 642.547,622.885 635.5,662.5C 606.069,663.828 576.736,663.828 547.5,662.5C 555.5,662.5 563.5,662.5 571.5,662.5C 572.879,652.101 574.713,641.768 577,631.5C 585.457,597.322 595.29,563.655 606.5,530.5 Z"/></g>
<g><path style="opacity:1" fill="#656565" d="M 701.5,502.5 C 691.342,537.475 681.676,572.475 672.5,607.5C 676.404,585.882 681.571,564.549 688,543.5C 691.837,529.49 696.337,515.823 701.5,502.5 Z"/></g>
<g><path style="opacity:1" fill="#fafafa" d="M 1063.5,538.5 C 1064.5,538.47 1065.16,538.97 1065.5,540C 1079.87,581.608 1102.2,618.108 1132.5,649.5C 1129.21,653.959 1125.71,658.292 1122,662.5C 1120.89,664.329 1119.39,665.163 1117.5,665C 1081.39,631.442 1055.05,591.442 1038.5,545C 1038.64,544.228 1038.98,543.561 1039.5,543C 1047.49,541.39 1055.49,539.89 1063.5,538.5 Z"/></g>
<g><path style="opacity:1" fill="#bebebe" d="M 1576.5,543.5 C 1583.24,546.189 1590.24,547.855 1597.5,548.5C 1588.02,579.43 1572.85,607.097 1552,631.5C 1552.68,600.099 1560.85,570.766 1576.5,543.5 Z"/></g>
<g><path style="opacity:1" fill="#5b5b5b" d="M 338.5,465.5 C 339.404,466.209 339.737,467.209 339.5,468.5C 318.871,531.692 304.537,596.359 296.5,662.5C 304.167,662.5 311.833,662.5 319.5,662.5C 318.655,649.174 318.488,635.841 319,622.5C 320.416,583.252 329.916,546.252 347.5,511.5C 348.35,518.799 348.683,526.132 348.5,533.5C 347.674,528.684 347.174,523.684 347,518.5C 337.902,535.123 331.569,552.79 328,571.5C 321.669,601.552 319.836,631.885 322.5,662.5C 327.167,662.5 331.833,662.5 336.5,662.5C 331.966,638.329 330.466,613.995 332,589.5C 333.608,574.647 339.441,561.814 349.5,551C 354.254,548.779 358.087,549.945 361,554.5C 361.667,557.167 362.333,559.833 363,562.5C 366.41,595.848 369.91,629.181 373.5,662.5C 376.5,662.5 379.5,662.5 382.5,662.5C 383.314,621.49 383.314,580.49 382.5,539.5C 383.167,537.5 383.833,535.5 384.5,533.5C 384.5,576.5 384.5,619.5 384.5,662.5C 397.5,662.5 410.5,662.5 423.5,662.5C 421.139,649.809 418.639,637.142 416,624.5C 415.333,622.167 415.333,619.833 416,617.5C 419.456,632.543 422.956,647.543 426.5,662.5C 375.209,663.491 323.875,663.824 272.5,663.5C 272.5,663.167 272.5,662.833 272.5,662.5C 279.5,662.5 286.5,662.5 293.5,662.5C 298.061,627.862 304.228,593.529 312,559.5C 320.218,527.958 329.051,496.625 338.5,465.5 Z"/></g>
<g><path style="opacity:1" fill="#8d8d8d" d="M 348.5,533.5 C 348.34,535.199 348.506,536.866 349,538.5C 354.711,546.718 361.877,548.218 370.5,543C 373.339,538.908 377.006,535.741 381.5,533.5C 382.466,535.396 382.799,537.396 382.5,539.5C 383.314,580.49 383.314,621.49 382.5,662.5C 379.5,662.5 376.5,662.5 373.5,662.5C 369.91,629.181 366.41,595.848 363,562.5C 362.333,559.833 361.667,557.167 361,554.5C 358.087,549.945 354.254,548.779 349.5,551C 339.441,561.814 333.608,574.647 332,589.5C 330.466,613.995 331.966,638.329 336.5,662.5C 331.833,662.5 327.167,662.5 322.5,662.5C 319.836,631.885 321.669,601.552 328,571.5C 331.569,552.79 337.902,535.123 347,518.5C 347.174,523.684 347.674,528.684 348.5,533.5 Z"/></g>
<g><path style="opacity:1" fill="#8d8d8d" d="M 350.5,552.5 C 353.97,551.875 356.804,552.875 359,555.5C 359.413,558.232 360.08,560.899 361,563.5C 363.892,596.533 367.058,629.533 370.5,662.5C 360.167,662.5 349.833,662.5 339.5,662.5C 334.634,638.743 332.801,614.743 334,590.5C 335.461,575.926 340.961,563.26 350.5,552.5 Z"/></g>
<g><path style="opacity:1" fill="#5a5a5a" d="M 280.5,535.5 C 273.826,571.863 264.826,607.53 253.5,642.5C 262.055,606.614 271.055,570.947 280.5,535.5 Z"/></g>
<g><path style="opacity:1" fill="#595959" d="M 764.5,449.5 C 765.826,471.264 765.826,492.931 764.5,514.5C 764.667,494.497 764.5,474.497 764,454.5C 739.038,522.557 718.204,591.89 701.5,662.5C 714.167,662.5 726.833,662.5 739.5,662.5C 742.533,614.521 750.533,567.521 763.5,521.5C 763.833,521.5 764.167,521.5 764.5,521.5C 764.142,524.267 763.475,526.933 762.5,529.5C 751.496,573.191 744.496,617.525 741.5,662.5C 749.316,663.492 757.316,663.826 765.5,663.5C 765.5,621.5 765.5,579.5 765.5,537.5C 766.499,579.663 766.832,621.997 766.5,664.5C 731.114,664.382 695.947,663.382 661,661.5C 660.722,662.416 660.222,663.082 659.5,663.5C 663.108,648.292 666.275,632.959 669,617.5C 669.946,613.972 671.113,610.639 672.5,607.5C 669.166,625.835 665.833,644.168 662.5,662.5C 674.5,662.5 686.5,662.5 698.5,662.5C 715.701,589.905 737.701,518.905 764.5,449.5 Z"/></g>
<g><path style="opacity:1" fill="#5f5f5f" d="M 195.5,524.5 C 195.333,544.169 195.5,563.836 196,583.5C 199.594,566.448 204.094,549.781 209.5,533.5C 205.787,552.813 201.12,571.813 195.5,590.5C 194.194,568.36 194.194,546.36 195.5,524.5 Z"/></g>
<g><path style="opacity:1" fill="#575757" d="M 538.5,546.5 C 539.097,546.735 539.43,547.235 539.5,548C 536.53,556.71 533.03,565.21 529,573.5C 529.305,570.509 529.972,567.509 531,564.5C 534.102,558.766 536.602,552.766 538.5,546.5 Z"/></g>
<g><path style="opacity:1" fill="#707070" d="M 765.5,537.5 C 765.5,579.5 765.5,621.5 765.5,663.5C 757.316,663.826 749.316,663.492 741.5,662.5C 749.167,662.5 756.833,662.5 764.5,662.5C 764.667,619.165 764.5,575.832 764,532.5C 763.768,531.263 763.268,530.263 762.5,529.5C 763.475,526.933 764.142,524.267 764.5,521.5C 765.5,526.068 765.833,531.401 765.5,537.5 Z"/></g>
<g><path style="opacity:1" fill="#595959" d="M 514.5,604.5 C 509.93,616.972 503.763,628.638 496,639.5C 493.795,642.04 491.295,644.207 488.5,646C 486.299,646.825 484.466,646.325 483,644.5C 478.579,631.15 475.579,617.483 474,603.5C 472.807,585.845 472.473,568.179 473,550.5C 472.72,581.979 476.386,612.979 484,643.5C 488.19,644.751 491.523,643.418 494,639.5C 501.364,628.099 508.198,616.432 514.5,604.5 Z"/></g>
<g><path style="opacity:1" fill="#4d4d4d" d="M 514.5,604.5 C 515.763,599.968 517.597,595.635 520,591.5C 520.667,592.833 520.667,594.167 520,595.5C 518.141,598.564 516.308,601.564 514.5,604.5 Z"/></g>
<g><path style="opacity:1" fill="#c1c1c1" d="M 1170.5,613.5 C 1182.82,611.991 1188.32,617.324 1187,629.5C 1175.08,644.757 1162.41,659.424 1149,673.5C 1148.51,674.793 1148.34,676.127 1148.5,677.5C 1153.82,673.692 1158.82,669.192 1163.5,664C 1177.4,659.897 1183.23,665.064 1181,679.5C 1176.77,684.057 1172.94,688.89 1169.5,694C 1169.83,694.5 1170.17,695 1170.5,695.5C 1177.1,691.574 1183.6,691.574 1190,695.5C 1192.34,699.555 1193.01,703.889 1192,708.5C 1181.88,721.618 1170.72,733.785 1158.5,745C 1145.57,752.414 1131.91,754.414 1117.5,751C 1118.87,752.34 1120.2,753.674 1121.5,755C 1098,783.155 1081.17,814.988 1071,850.5C 1069.51,861.88 1070.84,872.88 1075,883.5C 1079.33,887.163 1084.17,889.996 1089.5,892C 1099.87,892.767 1110.2,892.433 1120.5,891C 1134.96,887.846 1149.13,883.679 1163,878.5C 1170.2,879.362 1174.53,883.362 1176,890.5C 1176.83,895.533 1176.66,900.533 1175.5,905.5C 1147.17,918.112 1117.5,923.612 1086.5,922C 1061.17,917.669 1046,902.836 1041,877.5C 1039.22,857.988 1041.55,838.988 1048,820.5C 1059.86,789.741 1076.53,762.075 1098,737.5C 1099.47,738.33 1100.97,738.496 1102.5,738C 1097.45,730.643 1094.45,722.476 1093.5,713.5C 1095.26,698.543 1095.76,683.543 1095,668.5C 1092.43,660.633 1090.6,652.633 1089.5,644.5C 1090.55,644.351 1091.55,644.517 1092.5,645C 1099.64,653.136 1107.14,660.97 1115,668.5C 1115.67,669.167 1115.67,669.833 1115,670.5C 1111.64,673.384 1109.14,676.884 1107.5,681C 1108.5,681.667 1109.5,681.667 1110.5,681C 1130.34,658.331 1150.34,635.831 1170.5,613.5 Z"/></g>
<g><path style="opacity:1" fill="#5a5a5a" d="M 466.5,662.5 C 458.019,663.692 449.352,663.692 440.5,662.5C 448.167,662.5 455.833,662.5 463.5,662.5C 457.302,623.945 451.802,585.278 447,546.5C 440.173,500.98 438.839,455.313 443,409.5C 447.573,376.487 452.24,343.487 457,310.5C 457.667,301.167 457.667,291.833 457,282.5C 456.75,279.246 455.75,276.246 454,273.5C 444.068,262.806 432.902,261.64 420.5,270C 409.346,277.655 399.68,286.822 391.5,297.5C 400.559,282.277 413.225,271.11 429.5,264C 444.858,260.715 454.691,266.548 459,281.5C 459.667,290.5 459.667,299.5 459,308.5C 454.188,344.849 449.188,381.182 444,417.5C 441.972,500.021 449.472,581.687 466.5,662.5 Z"/></g>
<g><path style="opacity:1" fill="#616161" d="M 440.5,660.5 C 439.596,661.209 439.263,662.209 439.5,663.5C 435.958,663.813 432.625,663.479 429.5,662.5C 432.5,662.5 435.5,662.5 438.5,662.5C 436.926,652.471 435.426,642.471 434,632.5C 436.69,641.73 438.856,651.063 440.5,660.5 Z"/></g>
<g><path style="opacity:1" fill="#646464" d="M 198.5,659.5 C 198.5,660.5 198.5,661.5 198.5,662.5C 208.167,662.5 217.833,662.5 227.5,662.5C 217.681,663.494 207.681,663.827 197.5,663.5C 197.232,661.901 197.566,660.568 198.5,659.5 Z"/></g>
<g><path style="opacity:1" fill="#7f7f7f" d="M 768.5,666.5 C 757.098,667.176 745.598,667.843 734,668.5C 733.831,680.341 733.331,692.007 732.5,703.5C 732.5,691.167 732.5,678.833 732.5,666.5C 744.5,666.5 756.5,666.5 768.5,666.5 Z"/></g>
<g><path style="opacity:1" fill="#f6f6f6" d="M 1349.5,741.5 C 1295.51,747.112 1243.84,738.778 1194.5,716.5C 1194.17,715.833 1193.83,715.167 1193.5,714.5C 1194.51,711.817 1195.51,709.151 1196.5,706.5C 1197.31,704.708 1197.81,702.708 1198,700.5C 1245.16,726.748 1295.66,740.414 1349.5,741.5 Z"/></g>
<g><path style="opacity:1" fill="#b8b8b8" d="M 1158.5,748.5 C 1176.56,752.032 1194.56,755.865 1212.5,760C 1220.13,761.142 1227.79,761.642 1235.5,761.5C 1235.88,766.337 1235.22,771.003 1233.5,775.5C 1181.65,791.682 1147.98,825.682 1132.5,877.5C 1123.97,880.43 1115.64,883.93 1107.5,888C 1080.26,892.044 1069.43,880.544 1075,853.5C 1083.41,817.277 1099.91,785.277 1124.5,757.5C 1133.59,756.512 1142.59,755.012 1151.5,753C 1154.24,751.974 1156.57,750.474 1158.5,748.5 Z"/></g>
<g><path style="opacity:1" fill="#fbfbfb" d="M 1312.5,762.5 C 1317.18,762.334 1321.85,762.501 1326.5,763C 1267.65,778.513 1232.15,816.013 1220,875.5C 1219.5,943.833 1219.33,1012.17 1219.5,1080.5C 1219.5,1080.83 1219.5,1081.17 1219.5,1081.5C 1219.17,1081.5 1218.83,1081.5 1218.5,1081.5C 1210.17,1081.5 1201.83,1081.5 1193.5,1081.5C 1193.5,1022.83 1193.5,964.167 1193.5,905.5C 1192.52,833.661 1226.19,786.828 1294.5,765C 1300.46,763.838 1306.46,763.005 1312.5,762.5 Z"/></g>
<g><path style="opacity:1" fill="#c2c2c2" d="M 1312.5,762.5 C 1378.71,758.436 1425.05,786.769 1451.5,847.5C 1433.85,848.5 1416.18,848.833 1398.5,848.5C 1398.5,849.5 1398.5,850.5 1398.5,851.5C 1442.39,851.056 1485.72,855.556 1528.5,865C 1562.8,881.355 1568.63,904.855 1546,935.5C 1539.85,942.95 1533.35,950.117 1526.5,957C 1501.86,977.578 1477.7,998.744 1454,1020.5C 1447.19,1028.14 1440.85,1036.14 1435,1044.5C 1432.58,1049.33 1430.75,1054.33 1429.5,1059.5C 1430.93,1059.58 1432.26,1059.25 1433.5,1058.5C 1436.43,1048.75 1441.26,1040.08 1448,1032.5C 1454.17,1026.33 1460.33,1020.17 1466.5,1014C 1468.79,1014.05 1471.12,1014.39 1473.5,1015C 1496.24,1030.71 1503.57,1051.88 1495.5,1078.5C 1512.6,1078.59 1529.6,1079.42 1546.5,1081C 1552.55,1086.39 1554.05,1092.89 1551,1100.5C 1549.13,1102.71 1546.96,1104.54 1544.5,1106C 1508.5,1106.67 1472.5,1106.67 1436.5,1106C 1409.25,1096.02 1397.42,1076.52 1401,1047.5C 1404.5,1036.16 1409.83,1025.83 1417,1016.5C 1436.97,993.858 1458.8,973.358 1482.5,955C 1494.67,943.5 1506.83,932 1519,920.5C 1522.39,916.102 1525.39,911.435 1528,906.5C 1528.81,904.098 1528.65,901.765 1527.5,899.5C 1521.51,895.787 1515.18,892.954 1508.5,891C 1472.21,883.421 1435.55,880.587 1398.5,882.5C 1398.5,883.833 1398.5,885.167 1398.5,886.5C 1399.55,886.351 1400.55,886.517 1401.5,887C 1415.91,905.876 1434.91,917.043 1458.5,920.5C 1459.48,931.752 1459.81,943.086 1459.5,954.5C 1459.67,959.844 1459.5,965.177 1459,970.5C 1435.04,989.121 1415.37,1011.45 1400,1037.5C 1395.53,1050.78 1395.37,1064.11 1399.5,1077.5C 1382.36,1079.11 1365.03,1079.94 1347.5,1080C 1304.83,1080.5 1262.17,1080.67 1219.5,1080.5C 1219.33,1012.17 1219.5,943.833 1220,875.5C 1232.15,816.013 1267.65,778.513 1326.5,763C 1321.85,762.501 1317.18,762.334 1312.5,762.5 Z"/></g>
<g><path style="opacity:1" fill="#b4b4b4" d="M 1065.5,771.5 C 1066.38,771.369 1067.04,771.702 1067.5,772.5C 1051.99,797.524 1041.49,824.524 1036,853.5C 1035.21,861.881 1035.55,870.214 1037,878.5C 1039.62,887.076 1042.79,895.409 1046.5,903.5C 1020.33,906.828 1009.83,895.494 1015,869.5C 1020.92,841.674 1032.25,816.341 1049,793.5C 1054.33,786.007 1059.83,778.673 1065.5,771.5 Z"/></g>
<g><path style="opacity:0.998" fill="#7a7a7a" d="M 1450.5,833.5 C 1438.05,811.049 1421.05,792.716 1399.5,778.5C 1433.56,776.69 1467.73,776.356 1502,777.5C 1502.67,795.833 1502.67,814.167 1502,832.5C 1484.91,833.492 1467.74,833.825 1450.5,833.5 Z"/></g>
<g><path style="opacity:1" fill="#c0c0c0" d="M 602.5,804.5 C 657.167,804.5 711.833,804.5 766.5,804.5C 766.5,832.5 766.5,860.5 766.5,888.5C 711.833,888.5 657.167,888.5 602.5,888.5C 602.5,860.5 602.5,832.5 602.5,804.5 Z"/></g>
<g><path style="opacity:1" fill="#c8c9c8" d="M 603.5,805.5 C 657.5,805.5 711.5,805.5 765.5,805.5C 765.5,832.833 765.5,860.167 765.5,887.5C 711.5,887.5 657.5,887.5 603.5,887.5C 603.5,860.167 603.5,832.833 603.5,805.5 Z"/></g>
<g><path style="opacity:1" fill="#686868" d="M 1464.5,888.5 C 1485,888.766 1504.66,892.933 1523.5,901C 1524.06,901.725 1524.39,902.558 1524.5,903.5C 1522.19,908.787 1519.36,913.787 1516,918.5C 1499.38,934.301 1482.38,949.635 1465,964.5C 1464.5,939.169 1464.33,913.836 1464.5,888.5 Z"/></g>
<g><path style="opacity:1" fill="#c0c0c0" d="M 683.5,907.5 C 738.167,907.5 792.833,907.5 847.5,907.5C 847.5,935.5 847.5,963.5 847.5,991.5C 792.833,991.5 738.167,991.5 683.5,991.5C 683.5,963.5 683.5,935.5 683.5,907.5 Z"/></g>
<g><path style="opacity:1" fill="#b2b3b2" d="M 502.5,908.5 C 556.167,908.5 609.833,908.5 663.5,908.5C 663.5,935.833 663.5,963.167 663.5,990.5C 609.833,990.5 556.167,990.5 502.5,990.5C 502.5,963.167 502.5,935.833 502.5,908.5 Z"/></g>
<g><path style="opacity:1" fill="#c8c9c8" d="M 684.5,908.5 C 738.5,908.5 792.5,908.5 846.5,908.5C 846.5,935.833 846.5,963.167 846.5,990.5C 792.5,990.5 738.5,990.5 684.5,990.5C 684.5,963.167 684.5,935.833 684.5,908.5 Z"/></g>
<g><path style="opacity:1" fill="#7e7e7e" d="M 1458.5,920.5 C 1459.83,925.792 1460.5,931.458 1460.5,937.5C 1460.5,943.343 1460.17,949.01 1459.5,954.5C 1459.81,943.086 1459.48,931.752 1458.5,920.5 Z"/></g>
<g><path style="opacity:0.753" fill="#7e7e7e" d="M 1125.5,924.5 C 1126.57,923.566 1127.9,923.232 1129.5,923.5C 1129.5,982.5 1129.5,1041.5 1129.5,1100.5C 1128.5,1042 1128.17,983.336 1128.5,924.5C 1127.5,924.5 1126.5,924.5 1125.5,924.5 Z"/></g>
<g><path style="opacity:1" fill="#979797" d="M 1193.5,905.5 C 1193.5,964.167 1193.5,1022.83 1193.5,1081.5C 1201.83,1081.5 1210.17,1081.5 1218.5,1081.5C 1218.5,1081.83 1218.5,1082.17 1218.5,1082.5C 1209.83,1082.5 1201.17,1082.5 1192.5,1082.5C 1192.17,1023.33 1192.5,964.331 1193.5,905.5 Z"/></g>
<g><path style="opacity:1" fill="#c8c8c8" d="M -0.5,1010.5 C 53.5,1010.5 107.5,1010.5 161.5,1010.5C 161.5,1038.5 161.5,1066.5 161.5,1094.5C 107.5,1094.5 53.5,1094.5 -0.5,1094.5C -0.5,1066.5 -0.5,1038.5 -0.5,1010.5 Z"/></g>
<g><path style="opacity:1" fill="#8d8d8d" d="M 1661.5,1029.5 C 1697.5,1029.33 1733.5,1029.5 1769.5,1030C 1770.66,1048.09 1770.83,1066.26 1770,1084.5C 1733.9,1085.66 1697.74,1085.83 1661.5,1085C 1660.17,1066.5 1660.17,1048 1661.5,1029.5 Z"/></g>
<g><path style="opacity:1" fill="#7a7a7a" d="M 1783.5,1029.5 C 1819.5,1029.33 1855.5,1029.5 1891.5,1030C 1892.66,1048.09 1892.83,1066.26 1892,1084.5C 1855.9,1085.66 1819.74,1085.83 1783.5,1085C 1782.17,1066.5 1782.17,1048 1783.5,1029.5 Z"/></g>
<g><path style="opacity:1" fill="#bfbfbf" d="M 1524.5,1042.5 C 1541.59,1040.56 1548.09,1047.89 1544,1064.5C 1540.32,1068.42 1535.82,1070.92 1530.5,1072C 1520.3,1074.4 1509.97,1075.57 1499.5,1075.5C 1501.21,1067.59 1502.37,1059.59 1503,1051.5C 1510.23,1048.41 1517.4,1045.41 1524.5,1042.5 Z"/></g>
<g><path style="opacity:1" fill="#a0a0a0" d="M 1399.5,1077.5 C 1400.34,1077.84 1400.67,1078.51 1400.5,1079.5C 1340.51,1081.5 1280.18,1082.16 1219.5,1081.5C 1219.5,1081.17 1219.5,1080.83 1219.5,1080.5C 1262.17,1080.67 1304.83,1080.5 1347.5,1080C 1365.03,1079.94 1382.36,1079.11 1399.5,1077.5 Z"/></g>
<g><path style="opacity:1" fill="#747474" d="M 1400.5,1079.5 C 1401.4,1080.21 1401.74,1081.21 1401.5,1082.5C 1340.5,1082.5 1279.5,1082.5 1218.5,1082.5C 1218.5,1082.17 1218.5,1081.83 1218.5,1081.5C 1218.83,1081.5 1219.17,1081.5 1219.5,1081.5C 1280.18,1082.16 1340.51,1081.5 1400.5,1079.5 Z"/></g>
<g><path style="opacity:0.753" fill="#949494" d="M 1244.5,1086.5 C 1254.32,1085.51 1264.32,1085.17 1274.5,1085.5C 1274.77,1087.1 1274.43,1088.43 1273.5,1089.5C 1273.5,1088.5 1273.5,1087.5 1273.5,1086.5C 1263.83,1086.5 1254.17,1086.5 1244.5,1086.5 Z"/></g>
<g><path style="opacity:0.753" fill="#949494" d="M 1321.5,1086.5 C 1331.32,1085.51 1341.32,1085.17 1351.5,1085.5C 1351.77,1087.1 1351.43,1088.43 1350.5,1089.5C 1350.5,1088.5 1350.5,1087.5 1350.5,1086.5C 1340.83,1086.5 1331.17,1086.5 1321.5,1086.5 Z"/></g>
<g><path style="opacity:0.996" fill="#c2c2c2" d="M 1244.5,1086.5 C 1254.17,1086.5 1263.83,1086.5 1273.5,1086.5C 1273.5,1087.5 1273.5,1088.5 1273.5,1089.5C 1269.13,1131.38 1266.8,1173.38 1266.5,1215.5C 1256.5,1215.5 1246.5,1215.5 1236.5,1215.5C 1236.29,1172.16 1238.96,1129.16 1244.5,1086.5 Z"/></g>
<g><path style="opacity:1" fill="#656565" d="M 1307.5,1086.5 C 1310.5,1086.5 1313.5,1086.5 1316.5,1086.5C 1314.72,1109.5 1312.89,1132.5 1311,1155.5C 1308.54,1132.62 1307.37,1109.62 1307.5,1086.5 Z"/></g>
<g><path style="opacity:0.996" fill="#c2c2c2" d="M 1321.5,1086.5 C 1331.17,1086.5 1340.83,1086.5 1350.5,1086.5C 1350.5,1087.5 1350.5,1088.5 1350.5,1089.5C 1346.13,1131.38 1343.8,1173.38 1343.5,1215.5C 1333.5,1215.5 1323.5,1215.5 1313.5,1215.5C 1313.56,1172.18 1316.23,1129.18 1321.5,1086.5 Z"/></g>
<g><path style="opacity:1" fill="#7a7a7a" d="M 1729.5,1097.5 C 1765.5,1097.33 1801.5,1097.5 1837.5,1098C 1838.66,1116.43 1838.83,1134.93 1838,1153.5C 1801.9,1154.66 1765.74,1154.83 1729.5,1154C 1728.17,1135.17 1728.17,1116.33 1729.5,1097.5 Z"/></g>
<g><path style="opacity:1" fill="#7d7d7d" d="M 1129.5,1100.5 C 1146.5,1100.5 1163.5,1100.5 1180.5,1100.5C 1180.77,1102.1 1180.43,1103.43 1179.5,1104.5C 1179.5,1103.5 1179.5,1102.5 1179.5,1101.5C 1162.66,1101.83 1145.99,1101.5 1129.5,1100.5 Z"/></g>
<g><path style="opacity:0.995" fill="#b6b6b6" d="M 1232.5,1215.5 C 1225.17,1215.5 1217.83,1215.5 1210.5,1215.5C 1211.51,1177.4 1214.01,1139.4 1218,1101.5C 1223.42,1100.36 1228.92,1100.19 1234.5,1101C 1235.1,1102.06 1235.43,1103.23 1235.5,1104.5C 1234.43,1141.49 1233.43,1178.49 1232.5,1215.5 Z"/></g>
<g><path style="opacity:0.991" fill="#b2b2b2" d="M -0.5,1114.5 C 26.1687,1114.33 52.8354,1114.5 79.5,1115C 80.1624,1128.59 80.4958,1142.26 80.5,1156C 80.4958,1169.74 80.1624,1183.41 79.5,1197C 52.8354,1197.5 26.1687,1197.67 -0.5,1197.5C -0.5,1169.83 -0.5,1142.17 -0.5,1114.5 Z"/></g>
</svg>
