<?xml version="1.0" standalone="no"?>
<!DOCTYPE svg PUBLIC "-//W3C//DTD SVG 20010904//EN"
 "http://www.w3.org/TR/2001/REC-SVG-20010904/DTD/svg10.dtd">
<svg version="1.0" xmlns="http://www.w3.org/2000/svg"
 width="1431.000000pt" height="828.000000pt" viewBox="0 0 1431.000000 828.000000"
 preserveAspectRatio="xMidYMid meet">

<g transform="translate(0.000000,828.000000) scale(0.100000,-0.100000)"
fill="#000000" stroke="none">
<path d="M827 7827 c-53 -57 -112 -159 -194 -339 -70 -153 -87 -224 -59 -247
25 -21 46 -6 46 31 0 37 104 276 171 394 24 42 64 97 88 122 34 35 41 49 34
61 -19 30 -44 24 -86 -22z"/>
<path d="M5857 7663 c-16 -15 -5 -46 26 -73 43 -38 91 -127 112 -210 18 -70
39 -97 62 -79 19 17 16 51 -12 135 -47 140 -150 265 -188 227z"/>
<path d="M902 7603 c-50 -65 -114 -175 -115 -202 -2 -21 2 -26 22 -26 19 0 34
17 78 90 30 50 63 99 74 111 23 25 25 50 3 58 -26 10 -31 7 -62 -31z"/>
<path d="M5630 7545 c-11 -13 -10 -20 8 -43 51 -63 80 -116 144 -264 75 -174
114 -295 129 -408 12 -84 21 -100 47 -83 54 35 -24 328 -166 623 -81 168 -127
217 -162 175z"/>
<path d="M11964 7332 c-11 -9 -31 -48 -44 -87 -44 -132 -108 -205 -241 -280
-92 -51 -115 -56 -274 -58 -124 -1 -157 1 -189 16 -51 23 -205 115 -235 141
-26 23 -57 87 -75 156 l-12 44 -410 2 c-225 1 -413 3 -419 4 -32 7 -57 -11
-163 -112 -125 -121 -275 -254 -430 -384 -53 -44 -126 -111 -162 -149 -36 -37
-96 -92 -135 -123 -88 -69 -134 -120 -135 -150 0 -14 33 -62 90 -130 49 -59
129 -159 177 -223 121 -159 225 -277 246 -278 10 -1 17 -9 17 -21 0 -53 65
-29 198 72 42 32 124 94 182 138 58 44 116 83 130 87 14 3 53 26 86 49 l61 44
7 -38 c3 -20 6 -139 6 -264 l0 -228 -24 0 c-39 0 -259 -47 -299 -63 -20 -9
-75 -53 -122 -98 -72 -70 -93 -97 -130 -173 -71 -144 -81 -270 -35 -431 15
-53 17 -71 7 -77 -6 -4 -67 -8 -134 -8 -122 0 -173 -9 -173 -31 0 -7 -6 -17
-14 -23 -12 -9 -12 -27 -2 -109 13 -109 27 -130 93 -143 30 -6 33 -10 47 -73
8 -36 17 -86 21 -111 4 -25 22 -106 40 -180 18 -74 47 -220 65 -325 18 -104
43 -224 56 -266 13 -41 33 -120 44 -175 11 -54 37 -164 58 -244 33 -128 40
-145 59 -148 l22 -3 -20 -34 c-27 -45 -42 -204 -30 -305 6 -41 15 -226 21
-410 10 -267 15 -338 27 -352 9 -11 11 -18 4 -23 -18 -10 -12 -43 8 -55 25
-13 481 -13 706 0 94 5 591 15 1105 21 1075 13 1266 16 1297 24 29 7 60 74
107 225 47 154 54 182 66 270 6 41 19 103 30 138 11 35 33 138 50 230 17 92
41 219 54 282 13 63 27 149 31 190 3 41 17 120 30 175 13 55 33 147 46 205 12
58 34 160 50 226 16 67 40 194 54 283 14 89 34 198 45 242 12 45 24 111 27
147 6 58 10 69 39 95 41 35 56 85 46 152 -6 45 -10 50 -32 50 -24 0 -25 -3
-28 -68 -2 -57 -6 -69 -25 -82 -20 -13 -110 -15 -603 -16 l-579 -1 -3 84 -3
84 373 14 c392 15 659 18 818 10 l95 -5 0 25 c0 23 -5 26 -60 33 -33 5 -75 11
-92 13 l-33 5 0 68 c0 90 -27 167 -90 251 -61 82 -112 125 -205 173 -86 44
-194 57 -287 34 l-58 -14 0 373 0 374 34 -14 c36 -15 206 -111 321 -181 39
-24 118 -67 178 -96 84 -42 111 -51 125 -43 18 11 26 26 207 394 64 129 147
294 185 365 38 72 70 138 70 148 0 10 -8 21 -17 24 -17 6 -55 32 -168 113
-123 87 -469 317 -514 340 -20 10 -73 44 -118 77 -116 82 -285 188 -295 185
-5 -1 -11 5 -14 13 -6 14 -56 15 -408 15 -361 -1 -403 -3 -422 -18z m111 -94
c-20 -148 -46 -214 -119 -300 -83 -98 -146 -141 -261 -178 -98 -31 -103 -32
-240 -27 -110 4 -159 11 -230 31 -158 46 -238 83 -312 145 -86 73 -118 119
-138 201 -9 36 -18 71 -20 78 -3 8 10 12 45 12 38 0 50 -4 50 -15 0 -26 59
-140 85 -165 14 -13 46 -36 70 -50 192 -110 198 -113 269 -123 49 -7 113 -7
197 -1 103 8 133 15 179 37 200 100 274 176 330 342 17 51 18 52 93 64 5 0 6
-23 2 -51z m723 32 c10 -11 65 -50 124 -88 59 -37 147 -93 195 -126 48 -32
174 -114 278 -182 105 -68 225 -148 267 -179 l78 -55 -75 -153 c-118 -237
-195 -387 -231 -447 -18 -30 -46 -91 -64 -134 -50 -128 -42 -121 -108 -84 -31
17 -68 39 -82 49 -47 32 -294 172 -330 186 -19 8 -43 22 -52 30 -9 8 -25 13
-35 11 -17 -3 -18 -27 -23 -437 l-5 -433 -35 -20 -35 -21 -103 78 c-137 102
-201 128 -312 129 -80 1 -89 -1 -150 -36 -102 -58 -153 -112 -206 -219 -24
-47 -28 -51 -38 -34 -26 45 -83 98 -159 147 l-82 53 -107 0 -107 -1 -21 64
c-55 168 -173 255 -350 256 -80 1 -90 -2 -170 -41 -88 -43 -177 -119 -207
-176 l-15 -29 -28 34 c-45 54 -106 91 -209 124 l-96 31 -2 284 c-4 363 -6 368
-121 284 -34 -25 -69 -45 -77 -45 -18 0 -201 -129 -285 -200 -30 -26 -67 -54
-81 -64 -26 -16 -27 -16 -60 21 -19 21 -60 74 -91 118 -99 139 -231 317 -299
403 l-66 83 116 114 c64 63 153 145 198 182 127 106 309 268 410 365 51 49
103 92 115 97 13 4 52 5 88 0 36 -5 146 -5 245 -2 99 3 205 3 236 -1 l56 -7
21 -86 c27 -109 65 -168 161 -249 124 -105 327 -177 549 -195 147 -12 170 -9
312 37 88 28 115 42 170 88 67 56 156 158 183 212 18 35 41 132 52 214 4 30 9
58 12 63 2 4 146 7 319 7 304 0 316 -1 332 -20z m1039 -711 c2 -8 -24 -63 -57
-124 -62 -114 -199 -390 -289 -579 -28 -60 -53 -111 -55 -113 -8 -8 -56 21
-52 31 55 135 84 198 104 230 14 22 87 165 164 319 137 273 140 278 161 264
12 -8 23 -21 24 -28z m-4655 -161 c26 -22 180 -226 356 -473 36 -49 78 -104
94 -121 l29 -31 -32 -21 -33 -20 -13 26 c-8 14 -44 60 -82 102 -37 41 -87 102
-111 135 -45 62 -174 225 -243 307 l-39 47 22 30 c24 35 29 36 52 19z m1959
-854 c124 -39 209 -191 209 -374 0 -50 3 -60 20 -65 32 -10 40 3 40 66 0 70 0
70 107 72 l78 2 75 -51 c41 -28 84 -61 94 -73 l19 -21 -60 0 c-50 0 -66 -5
-100 -29 -23 -16 -53 -45 -67 -64 -32 -41 -81 -149 -97 -211 l-11 -46 -584 0
c-428 0 -641 -4 -798 -15 -118 -9 -245 -15 -282 -13 l-68 3 -24 80 c-19 67
-23 98 -20 190 3 103 5 115 41 189 28 58 57 99 113 157 42 43 91 85 110 94 18
9 80 25 136 36 57 10 116 24 132 29 17 5 32 6 35 1 10 -15 59 -22 63 -9 5 15
122 -22 186 -59 47 -27 109 -100 179 -211 46 -74 65 -85 86 -50 9 13 4 28 -21
68 -37 59 -42 111 -14 151 47 69 161 144 257 169 37 10 105 3 166 -16z m1249
-242 c69 -33 194 -126 208 -155 23 -46 46 -51 94 -20 24 15 46 26 50 25 3 -1
12 5 18 13 7 8 18 15 25 15 8 0 15 4 17 10 2 5 33 16 70 24 166 35 313 -28
426 -182 59 -80 84 -151 80 -224 l-3 -53 -200 -7 c-110 -4 -274 -9 -365 -13
-91 -3 -245 -7 -342 -8 l-177 -1 -5 -51 c-3 -27 -8 -104 -11 -169 -3 -66 -11
-143 -16 -170 -14 -69 -64 -150 -119 -192 -44 -34 -46 -35 -130 -32 l-85 3 -5
69 c-5 76 -24 102 -54 77 -13 -11 -16 -41 -16 -185 0 -237 -23 -322 -100 -373
-38 -27 -73 -29 -114 -8 -15 8 -36 15 -46 15 -30 0 -77 67 -96 139 -34 125
-29 708 8 846 6 22 12 54 15 70 11 68 67 180 114 227 47 47 49 48 111 48 57 0
91 -6 156 -25 17 -6 22 -3 22 11 0 48 88 192 142 233 81 62 109 72 198 68 61
-2 98 -10 130 -25z m-964 -669 c-4 -32 -9 -79 -12 -105 l-6 -48 -1001 -2
c-880 -3 -1004 -1 -1015 12 -10 11 -12 32 -7 80 3 35 8 66 11 69 2 2 154 10
337 18 182 7 379 17 437 22 58 4 365 9 684 10 l578 1 -6 -57z m-1308 -285 c7
-40 17 -123 22 -183 6 -61 21 -169 35 -240 14 -72 32 -188 41 -259 9 -72 22
-162 29 -200 8 -39 11 -73 8 -76 -2 -3 -51 -5 -108 -5 -61 0 -108 -4 -115 -11
-6 -6 -13 -33 -16 -60 l-6 -50 -107 3 c-58 1 -118 2 -132 2 -23 1 -27 6 -33
44 -3 23 -19 87 -35 142 -16 55 -43 181 -61 280 -17 99 -46 245 -65 325 -19
80 -41 184 -49 233 -8 48 -18 92 -21 97 -12 19 -1 20 471 28 l130 2 12 -72z
m664 2 c3 -36 15 -144 26 -240 11 -96 23 -209 27 -250 4 -41 22 -184 41 -318
19 -134 34 -252 34 -262 0 -19 -9 -20 -244 -20 l-243 0 -7 31 c-3 17 -6 44 -6
59 0 28 -34 60 -64 60 -9 0 -19 8 -25 18 -9 17 -34 168 -46 277 -3 33 -19 130
-35 216 -16 86 -34 214 -40 285 -6 71 -15 146 -19 166 -5 20 -6 40 -3 43 3 3
139 4 301 3 l296 -3 7 -65z m629 -162 c0 -310 7 -373 48 -435 17 -26 49 -61
70 -78 l38 -30 10 -175 c5 -96 8 -176 8 -177 -3 -5 -383 -23 -491 -23 -108 0
-112 1 -117 23 -17 68 -138 1058 -137 1120 0 4 128 7 285 7 l285 0 1 -232z
m1589 220 c0 -7 -15 -80 -35 -163 -19 -82 -57 -292 -85 -465 -27 -173 -55
-345 -61 -382 l-11 -68 -248 0 -249 0 4 33 c3 17 12 147 20 287 9 140 18 264
20 276 3 12 9 115 15 230 5 115 13 221 16 237 l6 27 304 0 c236 0 304 -3 304
-12z m463 -40 c-2 -29 -15 -100 -28 -158 -13 -58 -33 -168 -45 -245 -11 -77
-31 -183 -44 -235 -14 -52 -29 -122 -36 -155 -6 -33 -20 -100 -32 -150 l-21
-90 -193 -2 -194 -1 5 21 c3 12 32 191 65 397 49 303 97 554 126 658 3 9 52
12 202 12 l199 0 -4 -52z m-1167 -393 c-9 -110 -23 -301 -31 -425 -9 -123 -17
-225 -18 -226 -1 -1 -117 -7 -257 -13 -140 -6 -274 -14 -297 -17 -37 -5 -43
-4 -44 12 -1 11 -4 85 -8 167 l-6 147 48 0 c57 0 114 27 151 71 47 56 70 134
82 277 l6 84 77 -7 c59 -5 86 -3 114 9 58 24 121 82 158 147 l34 58 3 -42 c2
-23 -4 -132 -12 -242z m-1948 -722 l-3 -88 -132 -3 -131 -3 -7 65 c-10 95 -10
96 87 97 46 1 97 5 113 9 76 19 76 20 73 -77z m77 -239 c39 -47 80 -98 93
-112 12 -15 36 -48 53 -74 26 -40 30 -54 27 -105 l-3 -58 -55 1 c-30 1 -145
-2 -255 -8 -165 -7 -203 -12 -218 -26 -18 -16 -19 -28 -13 -182 8 -189 23
-351 36 -386 16 -40 48 -45 208 -34 81 6 186 13 233 17 86 6 86 6 92 -19 4
-14 6 -71 6 -126 l-1 -100 -39 -6 c-145 -23 -655 -40 -704 -23 -23 8 -21 -26
-35 408 -6 180 -15 351 -19 380 -4 30 -4 94 0 143 7 87 8 89 65 174 33 46 75
103 95 126 20 23 41 51 47 63 15 28 30 30 187 31 l130 1 70 -85z m2781 63 c4
-4 0 -47 -9 -95 -78 -419 -99 -526 -118 -586 -11 -38 -27 -110 -34 -160 -8
-50 -22 -118 -32 -151 -18 -58 -20 -60 -58 -67 -22 -4 -104 -7 -182 -7 l-142
-1 4 28 c3 15 12 77 20 137 21 151 153 854 171 904 3 11 40 12 188 10 102 -2
188 -8 192 -12z m-451 -19 c-8 -38 -72 -362 -109 -558 -20 -102 -45 -252 -57
-335 -12 -82 -22 -151 -23 -151 0 -1 -74 -5 -163 -9 l-163 -8 6 79 c5 71 26
274 39 379 3 22 9 165 15 319 5 153 11 280 13 282 5 5 256 20 370 23 75 1 77
0 72 -21z m-515 -190 c0 -193 -7 -302 -35 -563 -9 -77 -19 -178 -23 -225 l-7
-85 -85 -7 c-47 -3 -146 -6 -221 -7 l-135 -1 -17 173 c-9 94 -19 260 -22 367
-3 107 -12 263 -20 345 -8 83 -15 158 -15 167 0 22 25 24 333 26 l247 2 0
-192z m-640 135 c1 -27 5 -79 10 -118 5 -38 14 -187 20 -330 6 -143 17 -329
26 -414 8 -84 13 -155 10 -158 -6 -6 -291 -22 -403 -23 -72 0 -93 3 -93 14 0
43 -95 707 -120 841 -37 197 -40 215 -37 216 5 4 325 16 450 17 l137 2 0 -47z
m-645 -20 c3 -27 17 -102 31 -168 18 -91 124 -820 124 -858 0 -4 -94 -7 -209
-7 l-209 0 -5 208 c-2 114 -10 308 -17 432 l-13 225 -30 45 c-17 25 -50 68
-74 95 l-43 50 187 11 c104 6 202 12 219 12 30 2 32 0 39 -45z m-1051 15 c-4
-7 -21 -30 -37 -52 -33 -42 -36 -41 -51 32 l-8 32 52 0 c38 0 49 -3 44 -12z
m703 -402 c1 -1 5 -110 9 -242 l7 -241 -124 -7 c-68 -5 -173 -11 -232 -14 -69
-5 -112 -3 -117 3 -9 12 -18 113 -25 270 -3 61 -7 136 -11 168 l-6 57 109 1
c59 1 133 4 163 8 44 5 219 3 227 -3z"/>
<path d="M10963 5430 c-25 -10 -43 -39 -36 -58 4 -9 20 -11 63 -6 58 6 58 6
103 -36 46 -42 67 -87 82 -175 8 -45 21 -58 47 -44 24 13 23 51 -2 131 -41
133 -166 225 -257 188z"/>
<path d="M9952 5191 c-60 -61 -104 -240 -66 -272 27 -23 49 1 50 57 1 54 35
143 65 170 23 21 25 60 3 68 -22 8 -19 9 -52 -23z"/>
<path d="M12228 5160 c-51 -27 -80 -67 -67 -91 14 -27 33 -24 67 10 53 53 128
53 182 0 48 -49 93 -20 56 36 -40 61 -163 84 -238 45z"/>
<path d="M12938 5140 c-21 -13 -24 -50 -6 -68 16 -16 23 -15 42 3 22 23 55 5
113 -60 51 -56 84 -69 91 -35 4 25 -52 103 -96 134 -45 31 -116 44 -144 26z"/>
<path d="M12085 4428 c-2 -7 -9 -40 -16 -72 -6 -33 -16 -68 -23 -79 -9 -15 -7
-21 8 -32 40 -30 71 23 83 142 6 52 5 53 -21 53 -15 0 -28 -6 -31 -12z"/>
<path d="M11570 4050 c-27 -17 -18 -102 16 -157 36 -60 107 -100 151 -86 38
13 40 57 3 61 -56 6 -71 14 -95 49 -17 25 -25 51 -25 78 0 23 -5 46 -12 53
-14 14 -18 15 -38 2z"/>
<path d="M9707 3994 c-18 -18 0 -231 31 -365 16 -67 20 -74 42 -74 23 0 25 4
24 40 0 22 -7 67 -14 100 -7 33 -17 114 -24 180 -10 109 -13 120 -31 123 -12
2 -24 0 -28 -4z"/>
<path d="M9883 3844 c-9 -24 5 -172 19 -202 8 -16 21 -27 33 -27 17 0 20 6 19
40 -2 74 -17 180 -27 193 -13 17 -36 15 -44 -4z"/>
<path d="M10496 4178 c-14 -67 -31 -255 -31 -333 0 -76 4 -99 26 -145 32 -70
53 -90 89 -90 46 0 64 36 57 115 -7 74 -26 118 -62 141 -21 14 -28 14 -42 3
-15 -13 -16 -10 -9 31 17 100 34 273 29 286 -9 24 -52 17 -57 -8z m58 -380
c13 -22 31 -118 21 -118 -9 0 -35 58 -44 99 -10 45 1 54 23 19z"/>
<path d="M11177 3674 c-11 -11 -8 -193 3 -215 11 -19 45 -26 53 -11 3 4 2 57
-2 117 -5 101 -8 110 -26 113 -12 2 -24 0 -28 -4z"/>
<path d="M13333 4234 c-23 -114 -22 -134 8 -134 24 0 34 20 53 114 23 113 22
126 -12 126 -28 0 -29 -1 -49 -106z"/>
<path d="M13235 4250 c-11 -18 -43 -212 -38 -227 9 -23 52 -16 57 10 27 122
36 200 25 213 -14 17 -35 18 -44 4z"/>
<path d="M11841 2341 c-11 -7 -13 -30 -9 -108 5 -99 18 -143 42 -143 28 0 36
25 26 80 -5 29 -10 79 -10 110 0 44 -4 59 -16 64 -19 7 -16 8 -33 -3z"/>
<path d="M11975 2237 c-3 -7 -5 -49 -3 -93 3 -77 4 -79 28 -79 25 0 25 1 25
90 0 86 -1 90 -23 93 -12 2 -24 -3 -27 -11z"/>
<path d="M1570 7135 c-8 -2 -101 -9 -207 -16 -106 -7 -196 -15 -200 -18 -5 -3
-16 -18 -26 -34 -16 -25 -17 -50 -11 -295 6 -249 1 -451 -27 -1097 -5 -132
-14 -406 -19 -610 -4 -203 -13 -458 -19 -565 -20 -367 -36 -915 -38 -1320 -1
-223 -6 -569 -11 -770 -9 -350 -8 -367 10 -402 11 -20 25 -41 31 -46 7 -5 61
-12 121 -16 60 -4 113 -9 118 -12 4 -3 8 -35 8 -72 0 -134 12 -142 204 -142
159 0 156 -2 156 111 l0 72 193 -6 c105 -3 327 -11 492 -17 287 -10 930 -28
1770 -50 215 -6 418 -13 451 -16 l62 -5 6 -61 c5 -45 14 -66 32 -85 24 -24 27
-24 127 -18 128 9 137 16 137 117 l0 70 115 -3 c69 -2 119 1 125 7 6 6 12 90
15 194 3 102 10 232 15 290 10 108 13 189 30 805 5 198 12 383 15 410 3 28 10
304 15 615 5 311 14 666 20 790 5 124 17 369 25 545 32 662 35 749 35 1100 0
295 -3 364 -14 381 -12 17 -27 20 -88 22 -90 2 -200 8 -478 27 -415 28 -707
44 -905 50 -110 4 -364 18 -565 31 -201 14 -511 29 -690 34 -299 9 -995 12
-1030 5z m984 -507 c4 -238 9 -445 12 -460 5 -23 1 -27 -25 -33 -16 -3 -135 1
-263 11 -164 11 -355 16 -643 16 -225 0 -419 2 -429 5 -17 5 -18 13 -12 117 7
137 7 669 -1 714 -3 17 -4 32 -2 33 2 1 60 7 129 14 81 8 320 13 676 14 l551
1 7 -432z m714 396 c194 -13 437 -26 540 -29 213 -6 631 -29 932 -51 113 -8
278 -18 368 -21 l162 -6 -1 -301 c-1 -166 -4 -386 -8 -491 l-6 -190 -35 3
c-19 1 -102 7 -185 12 -82 6 -233 17 -335 25 -102 8 -329 20 -505 26 -286 9
-322 12 -340 29 -42 38 -224 119 -340 151 -116 32 -128 33 -342 37 -271 5
-399 -10 -525 -63 -14 -6 -17 5 -22 87 -3 51 -8 257 -11 456 l-6 364 153 -7
c84 -3 312 -17 506 -31z m172 -888 c30 -8 82 -22 114 -31 68 -19 176 -71 256
-124 l55 -36 275 -6 c257 -6 556 -22 660 -34 25 -3 134 -12 243 -19 109 -8
201 -17 204 -20 3 -3 -2 -157 -11 -343 -9 -186 -21 -435 -26 -553 -6 -118 -15
-450 -20 -736 -5 -287 -14 -647 -20 -800 -5 -154 -14 -407 -20 -563 -5 -156
-11 -286 -14 -289 -3 -3 -92 3 -198 12 -190 16 -756 34 -1847 56 -403 8 -575
15 -630 25 -42 8 -121 15 -176 15 -55 0 -194 4 -310 10 -742 35 -870 42 -874
45 -2 3 -4 170 -5 372 -1 366 15 995 35 1358 6 105 15 352 19 550 9 377 25
799 36 973 l6 102 432 0 c290 0 485 -5 596 -15 91 -7 212 -15 270 -16 96 -2
112 0 185 28 44 17 112 36 150 42 39 6 81 13 95 15 62 11 467 -3 520 -18z
m-1990 -3476 c146 -6 357 -15 470 -20 113 -6 259 -10 325 -10 71 0 125 -4 131
-10 15 -15 323 -27 994 -40 1095 -22 1347 -29 1500 -44 85 -8 181 -15 214 -16
l58 0 -5 -82 c-3 -46 -11 -184 -16 -307 -6 -123 -12 -225 -13 -227 -2 -1 -66
-4 -143 -6 l-140 -3 -6 250 c-3 138 -9 259 -12 270 -6 19 -16 20 -194 20 -104
0 -348 2 -543 3 l-355 4 -7 -39 c-9 -51 -8 -353 1 -428 5 -33 8 -61 7 -61 -1
-1 -143 2 -316 7 -1439 38 -1845 55 -2100 84 -69 8 -145 16 -170 17 l-45 3 -3
180 c-2 99 0 244 3 322 l7 142 32 4 c17 2 38 2 46 1 8 -1 134 -7 280 -14z
m3141 -295 l156 -8 6 -156 c4 -86 7 -192 7 -235 l0 -79 -417 7 c-230 3 -450 9
-489 12 l-72 7 -6 36 c-3 20 -6 124 -6 231 l0 196 333 -2 c182 0 402 -5 488
-9z"/>
<path d="M1802 6624 c-35 -8 -94 -23 -130 -34 -37 -12 -112 -25 -166 -30 -103
-9 -123 -19 -105 -52 9 -17 19 -18 97 -13 48 4 134 20 192 35 58 16 139 34
180 40 80 12 73 13 280 -41 48 -12 118 -22 160 -23 74 -1 75 -1 75 24 0 24 -4
25 -69 33 -65 7 -140 23 -279 61 -69 19 -149 19 -235 0z"/>
<path d="M3110 6913 c-30 -15 -78 -50 -105 -78 -43 -42 -55 -64 -79 -135 -22
-68 -27 -95 -21 -135 13 -103 69 -187 145 -218 71 -30 182 -42 259 -28 121 22
183 84 220 221 41 149 22 250 -61 325 -59 53 -117 72 -228 74 -64 2 -83 -2
-130 -26z m212 -193 c66 -81 22 -234 -72 -255 -68 -15 -160 64 -160 137 0 37
40 102 82 133 33 24 126 14 150 -15z"/>
<path d="M3844 6875 c-8 -19 3 -578 13 -638 9 -60 24 -63 303 -71 135 -3 304
-11 375 -17 172 -14 264 -10 279 13 26 42 35 41 -633 67 -140 6 -256 12 -258
14 -18 18 -31 571 -14 582 6 3 79 -2 163 -10 122 -13 551 -33 737 -35 l34 0
-4 -322 -4 -323 25 0 c24 0 25 3 32 85 3 47 6 200 7 341 1 224 -1 258 -15 270
-12 10 -89 15 -307 21 -161 4 -344 12 -407 18 -63 6 -161 14 -217 17 -92 5
-103 4 -109 -12z"/>
<path d="M4987 6793 c-2 -5 -1 -68 1 -141 3 -111 7 -134 21 -141 28 -15 171
-17 180 -3 4 7 9 61 10 120 1 59 5 117 7 129 4 15 0 25 -14 32 -23 12 -199 15
-205 4z m148 -62 c3 -6 3 -46 -1 -90 l-7 -81 -38 0 -39 0 0 90 0 90 39 0 c22
0 42 -4 46 -9z"/>
<path d="M5090 6423 c-55 -3 -78 -8 -87 -20 -9 -11 -13 -57 -13 -140 0 -142
-3 -137 102 -146 99 -9 101 -5 114 186 6 98 -2 130 -30 125 -6 -1 -45 -3 -86
-5z m50 -130 c0 -103 -5 -113 -51 -113 -38 0 -39 1 -39 38 0 20 3 61 6 90 l7
52 38 0 39 0 0 -67z"/>
<path d="M2909 6031 c-31 -5 -60 -11 -66 -14 -5 -3 -41 -13 -80 -21 -67 -14
-208 -71 -341 -138 -34 -18 -104 -65 -155 -105 -50 -40 -97 -73 -104 -73 -18
0 -169 -156 -220 -227 -45 -63 -174 -330 -223 -463 -64 -173 -74 -237 -75
-465 0 -196 2 -217 27 -315 38 -150 81 -260 145 -375 103 -183 133 -219 322
-399 154 -146 198 -179 348 -260 130 -71 188 -90 309 -105 45 -6 103 -18 130
-28 43 -16 70 -17 224 -12 195 7 334 28 426 65 33 13 65 24 70 24 5 1 27 9 49
20 22 11 48 19 57 20 44 1 280 148 378 237 123 110 249 263 317 382 14 25 59
101 99 168 40 67 73 130 73 140 -1 10 9 61 21 113 15 63 24 143 27 240 6 156
-10 273 -62 482 -14 53 -25 104 -25 114 0 10 -6 25 -13 33 -8 9 -26 52 -41 96
-46 133 -84 190 -218 325 -67 69 -142 148 -166 177 -37 45 -183 153 -230 170
-10 4 -33 17 -52 29 -19 12 -55 28 -80 34 -24 7 -60 20 -80 30 -39 20 -65 27
-220 60 -160 34 -464 56 -571 41z m286 -66 c88 -9 201 -25 250 -36 50 -10 99
-19 109 -19 26 0 83 -18 126 -40 20 -10 56 -23 80 -30 25 -7 57 -20 71 -31 15
-10 38 -23 53 -29 52 -20 175 -110 213 -157 21 -26 93 -103 160 -170 67 -68
135 -147 151 -175 27 -48 82 -187 82 -208 0 -4 -21 -20 -47 -36 -26 -15 -66
-45 -90 -67 -24 -22 -45 -38 -46 -36 -2 2 -16 36 -31 74 -37 91 -67 143 -134
234 -72 97 -178 203 -250 248 -31 20 -70 47 -86 60 -89 74 -308 155 -464 173
-129 15 -312 7 -388 -16 -27 -8 -83 -19 -124 -25 -84 -12 -228 -67 -279 -107
-18 -15 -57 -44 -85 -64 -73 -54 -259 -260 -311 -344 -57 -94 -136 -292 -169
-423 -35 -138 -35 -268 -1 -441 22 -112 33 -141 100 -277 l76 -153 137 -141
c136 -141 210 -199 286 -225 23 -8 66 -28 96 -44 31 -16 96 -41 145 -56 87
-27 97 -28 325 -28 224 -1 240 0 338 26 145 39 177 55 326 168 105 79 153 123
228 212 52 62 110 137 129 165 19 29 37 53 41 53 3 0 20 -24 37 -54 37 -66 85
-123 112 -131 10 -4 19 -11 19 -17 0 -17 -95 -149 -162 -224 -113 -128 -256
-240 -415 -324 -31 -17 -62 -30 -70 -30 -8 0 -35 -9 -61 -19 -194 -80 -306
-101 -544 -106 -133 -2 -167 0 -206 15 -26 10 -78 21 -117 25 -106 10 -168 31
-288 96 -140 77 -194 117 -336 253 -180 172 -213 212 -309 381 -60 106 -103
220 -140 365 -24 94 -26 123 -26 285 0 204 9 263 64 420 48 141 167 398 218
472 44 64 197 223 215 223 7 0 46 28 87 61 88 71 172 123 228 143 22 8 73 30
113 50 41 20 107 43 148 51 40 8 78 18 84 22 9 6 47 11 157 22 8 0 87 -6 175
-14z m150 -309 c191 -23 370 -107 573 -267 57 -45 62 -55 32 -64 -65 -21 -198
-173 -216 -248 -5 -23 -10 -26 -28 -20 -47 18 -130 7 -201 -26 -86 -39 -105
-57 -162 -149 l-46 -73 -26 25 c-58 55 -136 105 -172 111 -77 13 -155 -23
-208 -95 l-29 -40 -6 27 c-8 31 -74 133 -86 133 -5 0 -28 21 -52 46 -23 25
-71 59 -106 76 -53 26 -79 32 -160 37 -93 6 -170 1 -228 -13 l-27 -7 26 43
c30 52 167 206 184 207 7 1 20 13 29 27 30 45 162 144 241 181 46 21 109 40
159 49 46 7 101 18 121 24 91 28 238 34 388 16z m727 -431 c21 -28 53 -72 72
-100 37 -56 116 -236 116 -264 0 -10 -20 -52 -45 -92 -48 -79 -85 -199 -85
-274 0 -37 -3 -44 -29 -55 -31 -12 -91 -66 -91 -82 0 -5 -20 3 -45 18 -42 24
-53 26 -128 22 -149 -8 -249 -72 -354 -227 -1 -2 -24 13 -51 33 -113 82 -181
93 -328 50 -139 -40 -237 -116 -286 -221 -13 -27 -23 -49 -24 -51 -1 -1 -34
18 -75 43 -181 112 -344 114 -503 7 -26 -18 -48 -32 -50 -32 -2 0 -24 44 -49
98 -54 115 -85 250 -94 402 -5 93 -2 118 22 215 28 113 75 243 97 271 57 69
92 79 259 78 116 0 131 -3 180 -27 68 -34 179 -140 201 -192 9 -22 24 -66 34
-97 9 -32 23 -63 30 -69 16 -13 43 -5 48 13 24 85 35 108 73 146 39 38 47 42
93 42 44 0 57 -6 110 -46 72 -54 71 -53 79 -118 l6 -51 40 0 40 0 6 52 c7 53
31 101 89 181 23 32 49 52 93 72 87 39 115 43 166 25 24 -8 52 -15 62 -15 27
0 50 28 44 53 -7 25 48 123 97 174 35 36 105 75 128 71 8 -2 31 -26 52 -53z
m84 -1050 c11 -65 13 -97 6 -115 -19 -47 -77 -128 -167 -235 -115 -136 -325
-300 -426 -333 -152 -49 -214 -57 -429 -56 -192 1 -210 3 -295 28 -49 15 -112
40 -140 55 -27 16 -68 34 -90 41 -21 7 -62 27 -90 45 -55 35 -315 298 -315
318 0 44 120 114 211 124 73 7 167 -18 249 -66 85 -51 106 -74 139 -157 24
-58 32 -69 52 -69 35 0 36 33 3 105 -21 46 -24 64 -16 72 7 7 12 20 12 30 0
56 91 159 175 199 75 36 195 63 240 55 19 -4 66 -28 104 -53 l71 -47 -6 -66
c-5 -53 -3 -68 10 -79 27 -23 43 -6 49 53 7 69 46 143 109 208 61 62 141 99
227 105 63 5 68 4 111 -30 25 -19 52 -46 60 -61 10 -20 20 -26 39 -24 27 3 28
9 15 74 -5 26 -1 35 28 59 l33 28 8 -59 c4 -32 14 -99 23 -149z"/>
<path d="M3968 5131 c-27 -22 -62 -94 -72 -153 -6 -30 -3 -39 13 -47 23 -13
51 8 51 37 0 9 11 41 25 70 17 37 30 53 42 52 38 -4 44 0 41 28 -3 23 -8 27
-39 30 -23 2 -43 -4 -61 -17z"/>
<path d="M2302 4933 c-28 -6 -39 -28 -22 -48 8 -10 31 -14 78 -12 81 2 165
-33 218 -89 37 -39 67 -42 72 -7 9 59 -146 153 -261 158 -34 2 -72 1 -85 -2z"/>
<path d="M3110 4074 c-47 -21 -80 -53 -80 -80 0 -35 28 -38 66 -5 37 33 99 50
117 32 16 -16 44 -14 51 5 8 22 9 21 -16 44 -26 24 -87 26 -138 4z"/>
<path d="M2497 3963 c-20 -19 -4 -43 41 -63 26 -12 73 -41 105 -66 47 -38 60
-44 72 -34 27 22 16 47 -37 88 -86 65 -160 96 -181 75z"/>
<path d="M1311 6001 c-19 -12 -30 -110 -30 -267 -1 -105 1 -123 16 -128 34
-13 41 15 51 199 10 197 5 222 -37 196z"/>
<path d="M1451 5881 c-18 -32 -14 -166 5 -182 11 -9 20 -10 32 -2 14 8 17 27
17 104 0 89 -1 94 -22 97 -14 2 -26 -4 -32 -17z"/>
<path d="M4437 5583 c-17 -16 -6 -54 18 -63 38 -15 108 -171 139 -311 13 -59
72 -34 61 25 -21 104 -90 265 -140 324 -25 30 -62 42 -78 25z"/>
<path d="M4604 5555 c-3 -7 6 -43 20 -78 14 -36 31 -87 37 -115 11 -52 31 -71
55 -51 8 6 14 20 14 31 0 26 -58 198 -72 215 -14 17 -47 16 -54 -2z"/>
<path d="M1561 5034 c-12 -15 -31 -59 -43 -98 -19 -61 -22 -96 -22 -241 l-1
-170 25 0 25 0 6 155 c7 166 26 266 60 313 25 34 21 61 -7 65 -14 2 -29 -7
-43 -24z"/>
<path d="M1409 4793 c-15 -40 -33 -168 -26 -187 4 -9 17 -16 30 -16 22 0 25 6
41 105 9 58 14 110 11 115 -12 20 -45 10 -56 -17z"/>
<path d="M4974 3535 c-8 -43 11 -763 21 -787 17 -41 73 -17 59 26 -4 11 -10
194 -13 406 l-6 385 -27 3 c-24 3 -28 -1 -34 -33z"/>
<path d="M4832 3178 c-13 -13 -16 -342 -4 -413 6 -34 11 -40 35 -43 l27 -3 0
223 c0 223 -4 248 -35 248 -6 0 -16 -5 -23 -12z"/>
<path d="M2537 3013 c-4 -3 -7 -19 -7 -34 0 -23 8 -32 38 -48 161 -82 594
-121 619 -55 12 32 -14 38 -140 35 -189 -4 -433 43 -457 89 -10 20 -40 27 -53
13z"/>
<path d="M2627 2843 c-4 -3 -7 -17 -7 -30 0 -19 10 -28 43 -43 50 -21 177 -43
227 -38 30 2 35 7 35 28 0 24 -4 26 -85 36 -117 16 -147 23 -161 40 -12 15
-41 19 -52 7z"/>
<path d="M1215 2440 c-11 -18 -27 -229 -21 -265 4 -20 18 -43 34 -56 24 -19
35 -20 97 -15 73 7 102 23 91 51 -5 14 -18 17 -79 14 l-72 -4 0 140 c0 136 -1
140 -22 143 -11 2 -24 -2 -28 -8z"/>
<path d="M6932 4959 c-116 -11 -126 -19 -151 -127 -28 -118 -27 -163 2 -189
12 -11 32 -24 45 -28 26 -7 26 -4 -24 -170 -18 -60 -35 -127 -39 -147 -4 -21
-10 -38 -14 -38 -4 0 -13 30 -20 68 -6 37 -23 118 -37 181 l-26 113 29 30 c27
28 28 34 27 123 0 108 -14 138 -66 149 -51 11 -339 25 -370 19 -60 -12 -108
-90 -116 -189 -4 -59 -3 -65 24 -92 21 -20 44 -31 77 -36 27 -4 50 -13 52 -19
1 -7 26 -109 55 -227 29 -118 67 -267 86 -330 18 -63 42 -157 54 -207 30 -129
29 -128 226 -137 126 -5 161 -4 171 7 19 19 88 286 114 437 19 111 100 396
128 449 6 11 26 25 46 31 19 6 46 25 61 43 24 28 26 37 22 106 -7 132 -32 161
-153 175 -103 13 -122 13 -203 5z m257 -79 c24 -12 41 -61 41 -115 0 -46 -14
-63 -67 -84 -17 -7 -38 -20 -47 -30 -28 -31 -116 -322 -146 -486 -16 -88 -45
-214 -63 -280 -28 -104 -35 -120 -52 -118 -11 2 -69 3 -129 5 -69 1 -112 6
-120 14 -7 6 -18 38 -25 70 -7 33 -30 122 -52 199 -50 180 -118 451 -134 536
-7 36 -15 71 -18 76 -4 6 -33 13 -66 17 -33 4 -64 13 -70 20 -16 19 -4 91 23
140 l21 39 165 -5 c100 -3 174 -10 188 -17 20 -10 22 -20 22 -85 0 -65 -3 -75
-26 -97 -33 -31 -32 -48 29 -336 55 -259 59 -273 87 -273 25 0 34 20 55 120 9
41 39 158 67 258 56 201 56 211 -1 223 -50 10 -54 19 -41 85 25 127 28 132 63
137 52 8 276 -2 296 -13z"/>
<path d="M7937 4905 c-9 -9 -17 -23 -17 -31 0 -18 -2 -18 -101 7 -118 29 -189
24 -263 -21 -85 -51 -125 -95 -164 -180 -44 -94 -55 -203 -27 -275 42 -111
149 -198 314 -256 105 -37 161 -79 161 -122 0 -23 -5 -27 -42 -32 -58 -9 -91
6 -126 57 -17 24 -48 60 -70 81 l-40 39 -105 -4 c-61 -2 -111 -8 -117 -14 -17
-17 -14 -425 3 -441 7 -7 43 -15 80 -19 60 -6 72 -4 96 14 l28 20 60 -29 c147
-70 344 -55 450 35 46 38 77 97 113 215 43 137 40 217 -11 317 -31 60 -40 69
-104 105 -38 21 -101 49 -140 60 -141 43 -194 75 -209 126 -10 32 33 73 76 73
27 0 42 -10 91 -62 128 -137 220 -155 263 -52 15 35 20 271 8 333 -9 44 -43
63 -122 69 -55 3 -71 1 -85 -13z m148 -89 c4 -18 5 -88 3 -154 -2 -96 -6 -125
-19 -138 -15 -15 -19 -14 -50 1 -19 10 -63 48 -99 85 -85 89 -126 104 -197 69
-120 -60 -105 -187 30 -255 27 -14 75 -32 106 -40 31 -8 92 -32 137 -54 74
-37 82 -45 108 -95 40 -80 43 -141 12 -248 -49 -165 -93 -223 -192 -253 -110
-33 -273 -7 -336 53 -24 23 -31 25 -53 15 -14 -7 -28 -19 -31 -27 -5 -11 -21
-15 -60 -15 l-54 0 0 169 c0 145 2 170 16 175 22 9 127 7 141 -2 7 -4 36 -39
66 -77 44 -58 62 -73 104 -88 48 -18 55 -18 107 -3 70 21 93 54 76 115 -21 78
-63 111 -210 164 -198 72 -289 173 -278 311 6 68 50 175 89 216 40 41 126 92
167 97 41 5 160 -18 219 -42 34 -15 63 -11 63 8 0 27 34 47 81 47 47 0 48 -1
54 -34z"/>
<path d="M8362 3893 c-53 -19 -77 -63 -69 -131 6 -52 36 -88 85 -102 47 -12
127 20 147 61 33 63 7 142 -58 172 -42 20 -49 20 -105 0z m103 -77 c33 -49
-17 -108 -79 -92 -47 12 -42 100 6 109 47 9 58 6 73 -17z"/>
<path d="M5979 2363 c0 -5 -2 -42 -4 -84 -4 -88 -16 -140 -51 -226 -31 -74
-29 -108 5 -108 20 0 28 11 52 75 48 123 73 283 53 334 -6 16 -53 23 -55 9z"/>
<path d="M628 2265 c-10 -22 -7 -38 21 -108 42 -104 122 -257 169 -322 49 -68
151 -174 182 -189 33 -16 57 -10 66 16 6 21 -20 53 -36 43 -8 -5 -111 100
-152 155 -40 53 -104 170 -148 270 -33 75 -38 94 -28 109 9 15 9 23 -1 35 -21
25 -60 20 -73 -9z"/>
<path d="M5761 2178 c-5 -13 -17 -50 -26 -83 -22 -76 -70 -171 -141 -280 -55
-85 -61 -109 -28 -122 20 -7 34 7 84 87 106 169 186 373 160 406 -18 21 -39
17 -49 -8z"/>
<path d="M569 1976 c-10 -21 -8 -31 14 -68 36 -61 121 -142 141 -135 36 14 29
38 -25 93 -46 46 -54 60 -54 92 0 34 -2 37 -32 40 -27 3 -35 -1 -44 -22z"/>
<path d="M1845 1216 c-53 -22 -77 -76 -95 -209 -19 -134 19 -288 87 -359 39
-41 89 -39 131 5 53 55 10 97 -45 45 -22 -20 -24 -20 -42 -4 -57 52 -87 220
-61 349 16 85 34 117 65 117 16 0 25 -6 25 -16 0 -11 8 -14 28 -12 21 2 28 9
30 29 6 48 -65 79 -123 55z"/>
<path d="M2122 1207 c-37 -39 -60 -233 -42 -357 13 -92 58 -192 96 -209 22
-10 32 -9 63 6 53 26 81 102 88 243 6 118 -5 185 -43 262 -37 74 -118 102
-162 55z m80 -67 c31 0 68 -103 68 -193 0 -115 -36 -253 -65 -244 -5 2 -21 25
-35 52 -23 47 -25 60 -25 200 0 160 8 216 28 196 6 -6 19 -11 29 -11z"/>
<path d="M2925 1211 c-29 -6 -30 -8 -30 -66 1 -112 26 -460 35 -482 10 -25 45
-31 53 -10 2 6 2 57 -1 113 l-5 100 58 55 c89 84 102 125 66 204 -36 80 -88
105 -176 86z m99 -82 c24 -28 31 -52 26 -89 -1 -8 -18 -32 -38 -53 l-37 -38
-7 43 c-15 100 -6 168 23 168 4 0 19 -14 33 -31z"/>
<path d="M3220 1205 c-10 -12 -11 -74 -4 -287 l9 -273 25 0 25 0 0 274 c0 214
-3 277 -13 288 -17 17 -27 16 -42 -2z"/>
<path d="M2452 1197 c-24 -28 -32 -112 -32 -328 0 -200 2 -228 16 -233 39 -15
44 8 45 213 l0 196 19 -66 c11 -37 29 -83 41 -103 18 -31 26 -37 52 -34 34 3
37 7 74 106 l28 74 6 -39 c4 -21 12 -103 19 -183 7 -80 17 -155 21 -167 9 -23
43 -32 54 -14 3 5 -4 108 -15 228 -11 120 -20 245 -20 279 0 64 -11 84 -46 84
-29 0 -30 -3 -59 -103 -33 -114 -65 -184 -75 -166 -5 8 -20 64 -35 124 -15 61
-31 118 -36 128 -11 20 -42 23 -57 4z"/>
<path d="M3417 1195 c-4 -8 -2 -65 3 -127 5 -62 10 -190 10 -284 0 -125 3
-174 13 -182 6 -5 66 -12 132 -13 l120 -4 0 30 0 30 -101 3 -101 3 -5 262 c-3
144 -9 270 -13 280 -9 21 -51 23 -58 2z"/>
<path d="M3741 1156 c-5 -11 -2 -100 5 -196 13 -178 33 -303 53 -323 7 -7 38
-7 97 -1 67 7 90 13 98 27 9 15 7 21 -9 33 -19 15 -29 14 -116 -3 -25 -5 -27
-2 -37 54 -6 32 -14 77 -17 101 l-7 42 71 0 c59 0 72 3 81 19 17 33 -12 51
-85 51 l-63 0 -7 64 c-4 36 -4 70 0 76 5 9 33 11 92 8 92 -5 113 4 94 40 -12
23 -64 33 -169 31 -65 -1 -74 -4 -81 -23z"/>
<path d="M4125 1167 c-17 -13 -17 -24 -6 -213 21 -342 21 -343 41 -354 28 -15
52 14 46 53 -3 18 -8 72 -12 121 l-6 90 28 -19 c46 -29 154 -116 154 -123 0
-4 11 -20 25 -35 21 -22 30 -25 45 -17 11 6 20 16 20 23 -1 22 -65 96 -127
146 -55 44 -60 51 -46 63 9 7 29 31 45 52 35 48 36 95 6 156 -27 54 -60 69
-117 54 -28 -8 -43 -7 -57 3 -17 11 -23 11 -39 0z m160 -93 c16 -34 16 -40 2
-69 -17 -36 -83 -92 -94 -81 -4 4 -9 38 -11 77 -4 58 -2 69 12 69 9 0 16 5 16
10 0 9 32 27 51 29 4 1 15 -15 24 -35z"/>
<path d="M11019 1146 c-25 -6 -54 -18 -64 -26 -19 -16 -19 -17 5 -265 5 -55 9
-130 10 -166 0 -70 13 -94 47 -87 16 3 18 14 14 121 -2 77 0 117 7 117 19 0
169 -149 182 -180 9 -22 19 -30 37 -30 64 0 32 70 -83 179 l-82 78 28 16 c15
9 42 33 59 52 69 79 15 208 -86 204 -15 -1 -49 -6 -74 -13z m111 -66 c11 -11
20 -30 20 -43 0 -44 -112 -126 -130 -96 -12 18 -21 122 -13 130 7 7 66 24 96
28 4 1 16 -8 27 -19z"/>
<path d="M11345 1146 c-16 -11 -16 -20 -6 -96 6 -46 11 -161 11 -255 0 -152 2
-175 18 -195 16 -20 21 -21 41 -10 19 10 22 17 16 43 -4 18 -9 74 -12 125 -4
92 -4 92 20 92 38 0 111 29 146 58 43 36 51 91 23 155 -30 67 -70 90 -147 83
-32 -2 -67 0 -76 4 -10 6 -23 5 -34 -4z m172 -71 c29 -20 48 -78 34 -103 -12
-22 -79 -52 -116 -52 -24 0 -25 3 -26 65 -1 36 -2 70 -3 77 -2 25 80 35 111
13z"/>
<path d="M9669 1143 c-1 -5 0 -89 1 -188 2 -236 14 -356 37 -372 14 -11 20
-11 31 1 11 11 12 35 3 140 -6 70 -11 189 -11 265 0 93 -4 141 -12 149 -13 13
-47 16 -49 5z"/>
<path d="M10101 1121 c-7 -12 -11 -95 -12 -208 0 -169 -2 -185 -14 -158 -8 17
-40 89 -72 160 -31 72 -69 142 -84 158 -28 28 -74 36 -81 15 -3 -7 0 -132 6
-278 10 -245 12 -265 30 -268 10 -2 23 1 28 6 10 10 12 293 3 387 l-5 50 36
-75 c20 -41 54 -120 74 -175 52 -136 97 -190 128 -152 6 7 11 114 13 282 3
268 3 270 -18 273 -14 2 -26 -4 -32 -17z"/>
<path d="M12347 1125 c-21 -20 -21 -20 -1 -39 8 -9 31 -16 50 -16 43 0 42 4
53 -232 10 -183 18 -228 45 -228 32 0 34 24 20 215 -7 105 -13 202 -14 218 l0
27 74 0 c77 0 102 12 90 44 -5 13 -23 16 -103 16 -53 0 -119 3 -147 6 -40 5
-54 3 -67 -11z"/>
<path d="M11703 1118 c-12 -16 3 -476 17 -512 11 -30 44 -35 58 -10 5 10 5 33
0 59 -5 23 -8 71 -6 106 l3 64 50 -50 c28 -27 73 -85 99 -128 39 -62 53 -77
70 -75 11 2 22 11 24 21 4 22 -71 145 -129 210 -23 26 -40 49 -38 51 2 1 21
13 43 26 73 44 98 130 56 198 -31 50 -60 59 -131 41 -49 -13 -61 -14 -70 -2
-14 16 -34 17 -46 1z m201 -95 c11 -41 -9 -75 -62 -102 -82 -41 -82 -42 -82
41 l0 74 33 11 c17 6 48 10 67 9 30 -1 36 -5 44 -33z"/>
<path d="M12071 1115 l-34 -15 7 -68 c4 -37 13 -150 21 -251 15 -220 16 -221
102 -202 84 19 103 28 103 51 0 28 -16 32 -75 21 -36 -7 -52 -6 -57 2 -4 7 -8
46 -8 88 l0 77 70 4 c77 4 102 18 83 46 -8 13 -22 16 -54 14 -24 -1 -58 0 -75
3 -30 5 -31 6 -40 86 -11 97 -7 102 72 97 46 -2 59 0 68 15 9 15 7 21 -8 33
-26 18 -130 18 -175 -1z"/>
<path d="M10262 1112 c-29 -4 -48 -38 -32 -57 8 -10 24 -13 54 -9 l42 6 12
-123 c7 -68 12 -149 13 -179 0 -95 11 -135 37 -138 14 -2 25 3 29 14 6 16 -12
309 -24 387 l-6 37 85 0 c66 0 89 4 99 16 9 11 10 20 2 32 -9 15 -30 17 -149
17 -76 0 -149 -1 -162 -3z"/>
<path d="M10680 1101 c-51 -6 -55 -8 -60 -36 -3 -16 -2 -59 2 -95 4 -36 11
-136 16 -224 7 -138 11 -160 27 -172 35 -26 180 -12 199 18 19 30 -7 43 -83
40 -81 -4 -81 -4 -81 120 l0 76 73 9 c68 8 72 9 72 33 0 25 -1 25 -76 25 l-77
-1 -6 63 c-4 35 -4 68 -2 72 3 4 38 11 78 15 75 7 93 18 77 48 -10 19 -45 21
-159 9z"/>
<path d="M12755 1093 c-22 -3 -44 -8 -49 -13 -9 -9 -9 -451 0 -475 9 -21 23
-23 118 -11 92 11 110 22 85 52 -10 12 -28 15 -78 12 -47 -2 -66 1 -69 10 -2
8 -1 46 3 86 l6 73 60 7 c66 6 99 20 99 40 0 18 -24 37 -41 32 -8 -2 -40 -7
-71 -10 l-58 -6 0 69 0 68 38 7 c20 3 56 6 79 6 31 0 45 5 52 18 21 39 -30 49
-174 35z"/>
<path d="M13023 1058 c-12 -19 -3 -570 9 -585 17 -21 47 -15 53 10 3 12 6 80
8 152 l2 129 101 -97 c56 -54 109 -113 118 -132 18 -37 52 -48 62 -20 14 35
-12 74 -118 180 -109 109 -110 110 -87 125 53 35 89 74 104 115 16 42 16 46
-1 82 -24 49 -57 61 -127 46 -31 -7 -56 -7 -61 -2 -14 13 -54 11 -63 -3z m195
-79 c4 -33 -37 -83 -89 -109 -21 -11 -41 -20 -44 -20 -3 0 -5 32 -5 71 0 63 2
70 15 59 13 -10 19 -10 33 3 38 34 86 32 90 -4z"/>
</g>
</svg>
