<?xml version="1.0" standalone="no"?>
<!DOCTYPE svg PUBLIC "-//W3C//DTD SVG 20010904//EN"
 "http://www.w3.org/TR/2001/REC-SVG-20010904/DTD/svg10.dtd">
<svg version="1.0" xmlns="http://www.w3.org/2000/svg"
 width="901.000000pt" height="486.000000pt" viewBox="0 0 901.000000 486.000000"
 preserveAspectRatio="xMidYMid meet">

<g transform="translate(0.000000,486.000000) scale(0.100000,-0.100000)"
fill="#000000" stroke="none">
<path d="M6260 4765 c0 -57 4 -95 10 -95 6 0 10 -33 10 -80 0 -47 4 -80 10
-80 6 0 10 -4 10 -10 0 -5 -9 -10 -20 -10 -18 0 -20 -7 -20 -86 0 -85 -10
-114 -40 -114 -7 0 -25 -13 -40 -30 -15 -16 -33 -30 -40 -30 -16 0 -40 -26
-40 -44 0 -9 -4 -16 -10 -16 -5 0 -10 -13 -10 -30 0 -16 -4 -30 -10 -30 -5 0
-10 -7 -10 -15 0 -20 65 -85 85 -85 8 0 15 -4 15 -10 0 -5 18 -10 40 -10 22 0
40 -4 40 -10 0 -6 70 -10 190 -10 120 0 190 4 190 10 0 6 9 10 20 10 11 0 20
5 20 10 0 6 7 10 15 10 18 0 65 44 65 61 0 6 -13 24 -30 39 -16 15 -30 35 -30
44 0 9 -7 16 -16 16 -8 0 -33 18 -54 40 -21 22 -46 40 -54 40 -9 0 -16 5 -16
10 0 6 -13 10 -30 10 -16 0 -30 5 -30 10 0 6 -27 10 -60 10 l-60 0 0 40 c0 22
-4 40 -10 40 -5 0 -10 23 -10 50 0 28 -4 50 -10 50 -5 0 -10 18 -10 40 0 22
-4 40 -10 40 -6 0 -10 33 -10 80 0 47 -4 80 -10 80 -6 0 -10 32 -10 75 0 43
-4 75 -10 75 -6 0 -10 -38 -10 -95z m60 -365 c0 -27 -3 -50 -6 -50 -16 0 -34
33 -34 64 0 29 4 36 20 36 17 0 20 -7 20 -50z m6 -84 c8 -8 14 -22 14 -30 0
-12 11 -16 50 -16 28 0 50 -4 50 -10 0 -5 14 -10 30 -10 17 0 30 -4 30 -10 0
-5 12 -10 26 -10 16 0 37 -12 54 -30 15 -16 33 -30 39 -30 12 0 61 -44 61 -55
0 -3 -9 -5 -20 -5 -11 0 -20 5 -20 10 0 6 -70 10 -190 10 -120 0 -190 -4 -190
-10 0 -5 -22 -10 -50 -10 -27 0 -50 -4 -50 -10 0 -5 -9 -10 -20 -10 -11 0 -20
-4 -20 -10 0 -5 -4 -10 -10 -10 -5 0 -10 18 -10 40 0 22 5 40 10 40 6 0 10 7
10 15 0 19 44 65 62 65 8 0 20 9 28 20 8 11 20 20 28 20 18 0 42 25 42 44 0
20 27 21 46 2z m314 -216 c0 -5 9 -10 20 -10 11 0 20 -3 20 -6 0 -11 -29 -34
-42 -34 -8 0 -20 -9 -28 -20 -13 -19 -26 -20 -182 -20 -105 0 -168 4 -168 10
0 6 -13 10 -30 10 -16 0 -30 5 -30 10 0 6 -9 10 -20 10 -13 0 -20 7 -20 20 0
18 7 20 60 20 33 0 60 4 60 10 0 6 67 10 180 10 113 0 180 -4 180 -10z"/>
<path d="M2340 4510 c0 -153 -4 -240 -10 -240 -5 0 -10 -9 -10 -20 0 -11 5
-20 10 -20 6 0 10 -13 10 -30 0 -16 -4 -30 -10 -30 -6 0 -10 -29 -10 -66 0
-66 -13 -94 -42 -94 -8 0 -20 -9 -28 -20 -8 -11 -20 -20 -28 -20 -17 0 -42
-25 -42 -42 0 -8 -9 -20 -20 -28 -11 -8 -20 -22 -20 -32 0 -10 -4 -18 -10 -18
-6 0 -10 -37 -10 -90 l0 -90 50 0 c28 0 50 -4 50 -10 0 -5 9 -10 20 -10 11 0
20 -4 20 -10 0 -6 47 -10 120 -10 73 0 120 4 120 10 0 6 14 10 30 10 17 0 30
5 30 10 0 6 30 10 70 10 40 0 70 4 70 10 0 6 13 10 28 10 16 0 34 8 42 20 8
11 22 20 32 20 27 0 26 90 -2 110 -11 8 -20 21 -20 30 0 9 -9 22 -20 30 -11 8
-20 22 -20 32 0 11 -7 18 -20 18 -11 0 -20 5 -20 10 0 6 -9 10 -20 10 -11 0
-20 5 -20 10 0 6 -9 10 -20 10 -11 0 -20 5 -20 10 0 6 -13 10 -30 10 -16 0
-30 5 -30 10 0 6 -27 10 -60 10 -53 0 -60 2 -60 20 0 11 -4 20 -10 20 -6 0
-10 27 -10 60 0 33 -4 60 -10 60 -5 0 -10 18 -10 40 0 22 -4 40 -10 40 -5 0
-10 9 -10 20 0 11 -4 20 -10 20 -6 0 -10 80 -10 220 0 140 -4 220 -10 220 -6
0 -10 -87 -10 -240z m40 -280 c0 -22 -4 -40 -10 -40 -5 0 -10 9 -10 19 0 11
-5 21 -12 23 -9 3 -8 9 2 21 23 25 30 20 30 -23z m20 -126 c0 -82 10 -94 84
-94 31 0 56 -4 56 -10 0 -5 17 -10 38 -10 26 0 42 -6 52 -20 8 -11 25 -20 38
-20 25 0 52 -21 52 -40 0 -7 14 -25 30 -40 17 -15 30 -35 30 -44 0 -9 5 -16
10 -16 6 0 10 -9 10 -20 0 -11 -4 -20 -10 -20 -5 0 -10 5 -10 10 0 6 -13 10
-30 10 -16 0 -30 5 -30 10 0 6 -37 10 -90 10 -53 0 -90 -4 -90 -10 0 -6 -30
-10 -70 -10 -40 0 -70 -4 -70 -10 0 -5 -13 -10 -30 -10 -16 0 -30 -4 -30 -10
0 -5 -18 -10 -40 -10 -22 0 -40 -4 -40 -10 0 -5 -13 -10 -30 -10 -16 0 -30 -4
-30 -10 0 -5 -13 -10 -30 -10 -29 0 -30 1 -30 50 0 28 5 50 10 50 6 0 10 14
10 30 0 17 5 30 10 30 6 0 10 7 10 15 0 20 85 105 105 105 8 0 15 5 15 10 0 6
9 10 20 10 18 0 20 7 20 80 l0 80 30 0 30 0 0 -66z m320 -334 c0 -17 -7 -20
-40 -20 -22 0 -40 -4 -40 -10 0 -6 -27 -10 -60 -10 -33 0 -60 -4 -60 -10 0 -6
-43 -10 -110 -10 -67 0 -110 4 -110 10 0 6 9 10 20 10 11 0 20 5 20 10 0 6 18
10 40 10 22 0 40 5 40 10 0 6 33 10 80 10 47 0 80 4 80 10 0 6 30 10 70 10 63
0 70 -2 70 -20z m20 -50 c0 -5 -9 -10 -20 -10 -11 0 -20 -4 -20 -10 0 -6 -30
-10 -70 -10 -40 0 -70 -4 -70 -10 0 -5 -18 -10 -40 -10 -22 0 -40 -4 -40 -10
0 -17 -209 -13 -226 4 -8 8 -14 17 -14 20 0 3 68 6 150 6 93 0 150 4 150 10 0
6 23 10 50 10 28 0 50 5 50 10 0 6 23 10 50 10 28 0 50 -4 50 -10z"/>
<path d="M5753 2655 c-7 -8 -13 -21 -13 -30 0 -11 -11 -15 -40 -15 -22 0 -40
5 -40 10 0 6 -13 10 -30 10 -16 0 -30 -4 -30 -10 0 -5 -17 -10 -38 -10 -26 0
-42 -6 -52 -20 -8 -11 -22 -20 -32 -20 -10 0 -18 -4 -18 -10 0 -5 -7 -10 -15
-10 -19 0 -125 -104 -125 -123 0 -7 9 -19 20 -27 11 -8 20 -22 20 -32 0 -14 8
-18 40 -18 l40 0 0 -58 c0 -46 -4 -60 -20 -72 -29 -21 -25 -57 10 -90 18 -17
30 -38 30 -54 0 -14 5 -26 10 -26 6 0 10 -9 10 -20 0 -11 5 -20 10 -20 6 0 10
-7 10 -16 0 -9 14 -29 30 -44 27 -26 30 -34 30 -94 0 -64 -1 -66 -26 -66 -16
0 -37 -12 -54 -30 -15 -16 -33 -30 -39 -30 -15 0 -101 -86 -101 -100 0 -6 -40
-51 -90 -100 -66 -66 -90 -96 -90 -115 0 -14 -4 -25 -10 -25 -5 0 -10 -11 -10
-25 0 -33 42 -75 75 -75 14 0 25 -4 25 -10 0 -5 9 -10 20 -10 11 0 20 -4 20
-10 0 -5 7 -10 16 -10 22 0 53 -32 36 -38 -19 -6 -14 -22 8 -22 13 0 20 7 20
20 0 11 5 20 10 20 6 0 10 -4 10 -10 0 -5 14 -10 30 -10 17 0 30 5 30 10 0 15
49 12 66 -4 8 -8 14 -22 14 -30 0 -9 5 -16 10 -16 6 0 10 -9 10 -20 0 -19 -7
-20 -100 -20 -60 0 -100 -4 -100 -10 0 -6 -100 -10 -280 -10 -180 0 -280 4
-280 10 0 6 5 10 10 10 6 0 10 8 10 18 0 10 9 24 20 32 11 8 20 22 20 32 0 10
5 18 10 18 6 0 10 13 10 29 0 16 6 32 13 35 10 5 10 7 0 12 -7 3 -13 19 -13
35 0 16 -4 29 -10 29 -5 0 -10 9 -10 20 0 11 -4 20 -10 20 -5 0 -10 9 -10 20
0 11 -4 20 -10 20 -5 0 -10 13 -10 28 0 16 -8 34 -20 42 -11 8 -20 22 -20 32
0 10 -4 18 -10 18 -5 0 -10 9 -10 20 0 11 -4 20 -10 20 -5 0 -10 9 -10 20 0
11 -4 20 -10 20 -5 0 -10 16 -10 36 0 19 -6 42 -14 50 -20 19 -26 18 -26 -6 0
-11 5 -20 10 -20 6 0 10 -18 10 -39 0 -22 6 -42 13 -45 10 -5 10 -7 0 -12 -20
-9 -15 -24 7 -24 13 0 20 -7 20 -20 0 -11 5 -20 10 -20 6 0 10 -9 10 -19 0
-11 6 -21 12 -23 9 -3 8 -9 -5 -22 -15 -15 -19 -16 -32 -2 -8 8 -15 20 -15 26
0 7 -13 25 -30 40 -16 15 -30 35 -30 44 0 20 -7 20 -26 2 -9 -9 -14 -35 -14
-70 0 -31 -4 -56 -10 -56 -6 0 -10 -53 -10 -140 0 -87 4 -140 10 -140 6 0 10
-13 10 -29 0 -16 6 -31 12 -33 9 -3 8 -10 -5 -23 -16 -15 -20 -16 -28 -4 -8
12 -11 12 -20 -1 -8 -11 -12 -12 -16 -2 -6 14 -43 16 -43 2 0 -5 -4 -10 -10
-10 -6 0 -10 37 -10 90 0 53 -4 90 -10 90 -5 0 -10 -4 -10 -10 0 -6 -47 -10
-120 -10 -113 0 -120 1 -120 20 0 11 -4 20 -10 20 -5 0 -10 9 -10 20 0 19 7
20 90 20 53 0 90 4 90 10 0 6 14 10 30 10 17 0 30 5 30 10 0 6 -13 10 -30 10
-16 0 -30 -4 -30 -10 0 -6 -37 -10 -90 -10 l-90 0 0 40 c0 22 -4 40 -10 40 -5
0 -10 -13 -10 -30 0 -34 -5 -37 -26 -16 -17 17 -20 166 -4 166 6 0 10 -13 10
-30 0 -16 5 -30 10 -30 6 0 10 -9 10 -20 0 -19 7 -20 136 -20 104 0 139 -3
150 -14 17 -18 18 -62 2 -70 -10 -5 -10 -7 0 -12 6 -3 12 -14 12 -25 0 -10 5
-19 10 -19 6 0 10 30 10 70 0 40 4 70 10 70 6 0 10 -43 10 -110 0 -67 4 -110
10 -110 6 0 10 83 10 230 0 147 4 230 10 230 6 0 10 -18 10 -40 0 -22 5 -40
10 -40 6 0 10 14 10 30 0 23 4 30 20 30 17 0 20 7 20 40 0 22 5 40 10 40 6 0
10 50 10 130 0 80 -4 130 -10 130 -5 0 -10 18 -10 40 0 22 -4 40 -10 40 -5 0
-10 13 -10 29 0 16 -6 32 -12 35 -10 5 -10 7 0 12 6 3 12 14 12 24 0 10 6 21
13 24 10 5 10 7 0 12 -7 3 -13 14 -13 25 0 12 -7 19 -18 19 -10 0 -24 9 -32
20 -8 11 -21 20 -30 20 -9 0 -22 9 -30 20 -8 11 -21 20 -30 20 -9 0 -22 9 -30
20 -8 11 -20 20 -28 20 -26 0 -42 28 -42 74 0 25 -4 46 -10 46 -5 0 -10 -13
-10 -30 l0 -30 -70 0 c-40 0 -70 -4 -70 -10 0 -5 -9 -10 -20 -10 -11 0 -20 -4
-20 -10 0 -5 -9 -10 -20 -10 -11 0 -20 -4 -20 -10 0 -5 -8 -10 -18 -10 -10 0
-24 -9 -32 -20 -8 -11 -22 -20 -32 -20 -10 0 -18 -4 -18 -10 0 -5 -9 -10 -20
-10 -16 0 -20 -7 -20 -30 0 -16 -4 -30 -10 -30 -5 0 -10 -7 -10 -16 0 -18 23
-44 40 -44 17 0 40 -26 40 -44 0 -9 -4 -16 -10 -16 -5 0 -10 -9 -10 -20 0 -11
-4 -20 -10 -20 -5 0 -10 -13 -10 -30 0 -16 -4 -30 -10 -30 -6 0 -10 -50 -10
-130 0 -80 -4 -130 -10 -130 -5 0 -10 -9 -10 -20 0 -11 -4 -20 -10 -20 -5 0
-10 -9 -10 -20 0 -11 -4 -20 -10 -20 -5 0 -10 -9 -10 -20 0 -11 -4 -20 -10
-20 -5 0 -10 -8 -10 -18 0 -10 -9 -24 -20 -32 -11 -8 -20 -22 -20 -32 0 -10
-4 -18 -10 -18 -5 0 -10 -8 -10 -18 0 -10 -9 -24 -20 -32 -11 -8 -20 -26 -20
-40 0 -14 -9 -32 -20 -40 -11 -8 -20 -22 -20 -32 0 -10 -4 -18 -10 -18 -5 0
-10 -13 -10 -30 0 -16 -4 -30 -10 -30 -6 0 -10 -30 -10 -70 0 -40 4 -70 10
-70 6 0 10 -7 10 -16 0 -9 14 -29 30 -44 17 -15 30 -31 30 -34 0 -3 -126 -6
-280 -6 l-280 0 0 180 c0 113 -4 180 -10 180 -6 0 -10 33 -10 80 0 47 -4 80
-10 80 -5 0 -10 14 -10 30 0 17 -4 30 -10 30 -5 0 -10 14 -10 30 0 17 -4 30
-10 30 -5 0 -10 14 -10 30 0 23 -4 30 -20 30 -16 0 -20 7 -20 30 0 17 -4 30
-10 30 -5 0 -10 18 -10 40 0 22 5 40 10 40 6 0 10 26 10 59 0 38 4 61 13 64 6
2 9 8 5 12 -15 16 -38 -25 -38 -69 0 -25 -4 -46 -10 -46 -6 0 -10 -33 -10 -80
0 -73 -2 -80 -20 -80 -11 0 -20 -4 -20 -10 0 -5 -18 -10 -40 -10 l-40 0 0 90
c0 53 -4 90 -10 90 -5 0 -10 -9 -10 -20 0 -13 -7 -20 -20 -20 -11 0 -20 5 -20
10 0 6 -9 10 -20 10 -11 0 -20 5 -20 10 0 6 -7 10 -15 10 -25 0 -65 46 -65 75
0 20 5 25 26 25 27 0 61 26 49 38 -4 4 -10 1 -12 -5 -3 -8 -22 -13 -44 -13
-37 0 -39 2 -39 30 0 17 5 30 10 30 6 0 10 9 10 20 0 11 5 20 10 20 6 0 10 9
10 19 0 11 5 21 12 23 8 3 2 14 -15 32 -24 24 -29 25 -42 12 -8 -8 -15 -26
-15 -40 0 -14 -4 -26 -10 -26 -5 0 -10 -18 -10 -40 0 -22 5 -40 10 -40 6 0 10
-18 10 -40 0 -22 5 -40 10 -40 6 0 10 -9 10 -20 0 -11 5 -20 10 -20 6 0 10 -7
10 -16 0 -19 24 -44 42 -44 8 0 20 -9 28 -20 10 -14 26 -20 52 -20 l38 0 0
-50 c0 -43 -3 -50 -19 -50 -11 0 -22 6 -25 13 -5 10 -7 10 -12 0 -3 -7 -23
-13 -45 -13 -21 0 -39 -4 -39 -10 0 -5 -7 -10 -16 -10 -8 0 -37 -22 -64 -50
-27 -27 -56 -50 -64 -50 -9 0 -16 -4 -16 -10 0 -5 -9 -10 -20 -10 -11 0 -20
-4 -20 -10 0 -5 -18 -10 -40 -10 -22 0 -40 -4 -40 -10 0 -5 -9 -10 -20 -10
-11 0 -20 -4 -20 -10 0 -5 -13 -10 -30 -10 -16 0 -30 -4 -30 -10 0 -5 -13 -10
-30 -10 -16 0 -30 -4 -30 -10 0 -5 -13 -10 -30 -10 -16 0 -30 -4 -30 -10 0 -5
-13 -10 -30 -10 -16 0 -30 -4 -30 -10 0 -5 -13 -10 -30 -10 -16 0 -30 -4 -30
-10 0 -5 -9 -10 -20 -10 -11 0 -20 -4 -20 -10 0 -5 -13 -10 -30 -10 -16 0 -30
-4 -30 -10 0 -5 -8 -10 -18 -10 -10 0 -24 -9 -32 -20 -8 -11 -20 -20 -28 -20
-18 0 -42 -25 -42 -44 0 -9 -4 -16 -10 -16 -5 0 -10 -13 -10 -30 0 -16 5 -30
10 -30 6 0 10 -7 10 -15 0 -25 46 -65 75 -65 14 0 25 5 25 10 0 6 9 10 20 10
11 0 20 -4 20 -10 0 -5 14 -10 30 -10 36 0 41 27 10 50 -11 8 -20 22 -20 32 0
10 -4 18 -10 18 -5 0 -10 14 -10 30 0 21 5 30 16 30 23 0 44 -25 44 -54 0 -19
5 -26 20 -26 16 0 20 7 20 30 0 23 4 30 20 30 11 0 20 5 20 10 0 6 9 10 20 10
11 0 20 5 20 10 0 6 18 10 40 10 22 0 40 5 40 10 0 6 14 10 30 10 17 0 30 5
30 10 0 6 14 10 30 10 17 0 30 5 30 10 0 6 14 10 30 10 17 0 30 5 30 10 0 6
14 10 30 10 17 0 30 5 30 10 0 6 18 10 40 10 22 0 40 5 40 10 0 6 9 10 20 10
11 0 20 5 20 10 0 6 9 10 20 10 11 0 20 5 20 10 0 6 14 10 30 10 27 0 30 -3
30 -30 0 -23 -4 -30 -20 -30 -11 0 -20 -4 -20 -10 0 -5 -9 -10 -20 -10 -11 0
-20 -4 -20 -10 0 -5 -9 -10 -20 -10 -11 0 -20 -4 -20 -10 0 -5 -13 -10 -30
-10 -16 0 -30 -4 -30 -10 0 -5 -18 -10 -40 -10 -22 0 -40 -4 -40 -10 0 -5 -13
-10 -30 -10 -16 0 -30 -4 -30 -10 0 -5 -13 -10 -30 -10 -16 0 -30 -4 -30 -10
0 -5 -13 -10 -30 -10 -16 0 -30 -4 -30 -10 0 -5 -9 -10 -20 -10 -16 0 -20 -7
-20 -30 0 -28 -3 -30 -35 -30 -55 0 -85 -36 -85 -100 0 -52 15 -80 43 -80 9 0
17 6 19 12 6 17 38 -14 38 -36 0 -14 -28 -16 -239 -16 -182 0 -240 -3 -243
-12 -3 -9 -9 -8 -21 4 -15 15 -17 46 -17 262 0 157 -4 246 -10 246 -6 0 -10
67 -10 180 0 113 -4 180 -10 180 -6 0 -10 40 -10 100 0 60 -4 100 -10 100 -6
0 -10 40 -10 100 l0 100 -60 0 c-33 0 -60 -4 -60 -10 0 -6 -50 -10 -130 -10
-80 0 -130 -4 -130 -10 0 -6 -90 -10 -250 -10 -160 0 -250 -4 -250 -10 0 -6
-47 -10 -120 -10 -73 0 -120 -4 -120 -10 0 -6 70 -10 190 -10 120 0 190 4 190
10 0 6 73 10 200 10 127 0 200 4 200 10 0 6 47 10 120 10 73 0 120 4 120 10 0
6 14 10 30 10 17 0 30 -2 30 -5 0 -12 -50 -55 -62 -55 -8 0 -20 -9 -28 -20 -8
-11 -21 -20 -30 -20 -9 0 -22 -9 -30 -20 -8 -11 -22 -20 -32 -20 -10 0 -18 -4
-18 -10 0 -5 -9 -10 -20 -10 -11 0 -20 -4 -20 -10 0 -5 -9 -10 -20 -10 -11 0
-20 -4 -20 -10 0 -5 -9 -10 -20 -10 -11 0 -20 -4 -20 -10 0 -5 -13 -10 -30
-10 -16 0 -30 -4 -30 -10 0 -5 -9 -10 -20 -10 -11 0 -20 -4 -20 -10 0 -5 -9
-10 -20 -10 -11 0 -20 -4 -20 -10 0 -6 -110 -10 -310 -10 -200 0 -310 -4 -310
-10 0 -6 105 -10 296 -10 243 0 298 -3 310 -14 10 -11 14 -41 14 -110 0 -57 4
-96 10 -96 6 0 10 -22 10 -50 0 -27 5 -50 10 -50 6 0 10 -22 10 -50 0 -27 5
-50 10 -50 6 0 10 -30 10 -70 0 -40 4 -70 10 -70 6 0 10 -27 10 -60 0 -33 4
-60 10 -60 6 0 10 -30 10 -70 0 -40 4 -70 10 -70 6 0 10 -37 10 -90 0 -53 4
-90 10 -90 6 0 10 -27 10 -60 0 -33 4 -60 10 -60 6 0 10 -30 10 -70 0 -40 4
-70 10 -70 6 0 10 -40 10 -100 l0 -100 -60 0 c-33 0 -60 -4 -60 -10 0 -6 -27
-10 -60 -10 -33 0 -60 -4 -60 -10 0 -6 -93 -10 -260 -10 -167 0 -260 -4 -260
-10 0 -5 -22 -10 -50 -10 -27 0 -50 -4 -50 -10 0 -5 -22 -10 -50 -10 -43 0
-50 -3 -50 -20 0 -11 5 -20 10 -20 6 0 10 5 10 10 0 6 30 10 70 10 40 0 70 4
70 10 0 6 23 10 50 10 28 0 50 5 50 10 0 6 87 10 240 10 153 0 240 4 240 10 0
16 357 13 363 -2 4 -10 8 -9 16 2 10 13 12 13 22 0 8 -11 12 -12 16 -2 3 9 50
12 184 12 113 0 179 4 179 10 0 6 127 10 360 10 233 0 360 4 360 10 0 6 57 10
150 10 93 0 150 4 150 10 0 6 30 10 70 10 40 0 70 4 70 10 0 6 107 10 300 10
193 0 300 4 300 10 0 14 37 12 44 -2 5 -10 7 -10 12 0 4 9 131 12 585 12 379
0 579 3 579 10 0 6 18 10 40 10 22 0 40 -4 40 -10 0 -6 53 -10 140 -10 87 0
140 4 140 10 0 6 33 10 80 10 47 0 80 4 80 10 0 6 27 10 60 10 33 0 60 -4 60
-10 0 -6 37 -10 90 -10 53 0 90 -4 90 -10 0 -5 18 -10 40 -10 22 0 40 5 40 10
0 6 47 10 120 10 73 0 120 4 120 10 0 6 43 10 110 10 67 0 110 4 110 10 0 6
-43 10 -110 10 -67 0 -110 -4 -110 -10 0 -6 -37 -10 -90 -10 -75 0 -90 3 -90
16 0 45 -22 44 864 44 551 0 836 -3 836 -10 0 -7 -193 -10 -560 -10 -367 0
-560 -3 -560 -10 0 -7 237 -10 690 -10 453 0 690 -3 690 -10 0 -6 67 -10 180
-10 113 0 180 -4 180 -10 0 -5 23 -10 50 -10 28 0 50 -4 50 -10 0 -6 40 -10
100 -10 60 0 100 4 100 10 0 6 23 10 50 10 43 0 50 3 50 20 0 11 -4 20 -10 20
-5 0 -10 -4 -10 -10 0 -5 -22 -10 -50 -10 -39 0 -50 4 -50 16 0 25 -26 44 -60
44 -24 0 -41 10 -70 40 -21 22 -45 40 -52 40 -7 0 -20 9 -28 20 -8 11 -22 20
-32 20 -10 0 -18 5 -18 10 0 6 -9 10 -20 10 -11 0 -20 5 -20 10 0 6 -8 10 -18
10 -10 0 -24 9 -32 20 -8 11 -22 20 -32 20 -10 0 -18 5 -18 10 0 6 -9 10 -20
10 -11 0 -20 5 -20 10 0 6 -8 10 -18 10 -10 0 -24 9 -32 20 -8 11 -21 20 -30
20 -9 0 -22 9 -30 20 -8 11 -21 20 -30 20 -9 0 -22 9 -30 20 -8 11 -20 20 -28
20 -12 0 -62 43 -62 55 0 3 54 5 120 5 73 0 120 4 120 10 0 6 18 10 40 10 22
0 40 5 40 10 0 6 -33 10 -80 10 -47 0 -80 -4 -80 -10 0 -6 -137 -10 -390 -10
-253 0 -390 4 -390 10 0 6 5 10 10 10 6 0 10 14 10 30 0 17 5 30 10 30 6 0 10
9 10 20 0 11 5 20 10 20 6 0 10 7 10 16 0 23 25 44 54 44 14 0 26 5 26 10 0 6
9 10 20 10 18 0 20 -7 20 -60 0 -33 4 -60 10 -60 6 0 10 -13 10 -30 0 -16 5
-30 10 -30 6 0 10 18 10 40 0 22 -4 40 -10 40 -6 0 -10 27 -10 60 0 53 2 60
20 60 11 0 20 5 20 10 0 6 7 10 15 10 20 0 85 65 85 85 0 8 -4 15 -10 15 -5 0
-10 7 -10 15 0 20 -65 85 -85 85 -8 0 -15 7 -15 16 0 8 -22 37 -50 64 -27 27
-50 56 -50 64 0 9 -4 16 -10 16 -5 0 -10 9 -10 20 0 11 -4 20 -10 20 -5 0 -10
7 -10 15 0 18 -44 65 -60 65 -15 0 -40 25 -40 40 0 7 -13 25 -30 40 -16 15
-30 35 -30 44 0 9 -4 16 -10 16 -5 0 -10 9 -10 20 0 11 -4 20 -10 20 -5 0 -10
9 -10 20 0 11 -4 20 -10 20 -5 0 -10 9 -10 20 0 11 -4 20 -10 20 -5 0 -10 -13
-10 -30 0 -16 5 -30 10 -30 6 0 10 -9 10 -20 0 -11 5 -20 10 -20 6 0 10 -9 10
-20 0 -11 5 -20 10 -20 6 0 10 -8 10 -18 0 -10 9 -24 20 -32 24 -17 26 -36 6
-56 -20 -19 -66 -18 -66 1 0 18 -44 65 -61 65 -6 0 -24 -13 -39 -30 -15 -16
-35 -30 -44 -30 -9 0 -16 -4 -16 -10 0 -5 -16 -10 -35 -10 -30 0 -45 9 -90 55
-30 30 -55 57 -55 60 0 3 18 5 40 5 22 0 40 5 40 10 0 6 9 10 20 10 13 0 20 7
20 20 0 11 -4 20 -8 20 -4 0 -14 -9 -22 -20 -11 -15 -26 -20 -62 -20 l-48 0 0
80 c0 47 -4 80 -10 80 -6 0 -10 -30 -10 -70 0 -63 -2 -70 -20 -70 -11 0 -20
-2 -20 -5 0 -3 38 -43 85 -90 l85 -85 55 0 c30 0 55 5 55 10 0 6 8 10 18 10
10 0 24 9 32 20 17 24 36 26 56 6 10 -11 14 -42 14 -120 0 -95 -2 -106 -18
-106 -10 0 -24 9 -32 20 -8 11 -22 20 -32 20 -10 0 -18 5 -18 10 0 6 -35 10
-85 10 -84 0 -86 -1 -120 -35 -32 -32 -35 -39 -35 -95 0 -71 19 -103 45 -76 8
8 15 26 15 40 0 14 5 26 10 26 6 0 10 -20 10 -45 0 -36 6 -52 25 -71 22 -22
27 -23 40 -10 17 16 21 86 5 86 -5 0 -10 23 -10 50 0 43 3 50 20 50 17 0 20
-7 20 -40 0 -33 3 -40 20 -40 11 0 20 5 20 10 0 23 33 7 75 -35 40 -40 45 -49
45 -90 0 -25 -4 -45 -10 -45 -5 0 -10 -9 -10 -19 0 -11 -6 -22 -12 -25 -10 -5
-10 -7 0 -12 22 -10 12 -24 -18 -24 -28 0 -30 -3 -30 -36 0 -38 18 -64 44 -64
11 0 16 -9 16 -30 0 -16 5 -30 10 -30 6 0 10 -4 10 -10 0 -7 -207 -10 -600
-10 l-600 0 0 80 c0 47 -4 80 -10 80 -5 0 -10 14 -10 30 0 17 -4 30 -10 30 -5
0 -10 23 -10 50 0 28 -4 50 -10 50 -5 0 -10 9 -10 20 0 13 7 20 20 20 13 0 20
-7 20 -18 0 -10 9 -24 20 -32 11 -8 20 -20 20 -28 0 -18 45 -62 64 -62 8 0 16
-5 18 -12 6 -16 58 35 58 57 0 8 5 15 10 15 6 0 10 14 10 30 0 17 5 30 10 30
6 0 10 23 10 50 0 28 5 50 10 50 6 0 10 14 10 30 0 17 5 30 10 30 6 0 10 14
10 30 0 17 5 30 10 30 6 0 10 18 10 40 0 22 5 40 10 40 15 0 12 77 -2 83 -8 2
-9 8 -4 13 5 5 11 4 13 -3 3 -7 13 -13 24 -13 28 0 28 89 -1 110 -11 8 -20 22
-20 32 0 11 -7 18 -20 18 -11 0 -20 5 -20 10 0 6 -9 10 -20 10 -11 0 -20 5
-20 10 0 6 -13 10 -30 10 -16 0 -30 -4 -30 -10 0 -5 -7 -10 -16 -10 -20 0 -44
-24 -44 -44 0 -9 -4 -16 -10 -16 -5 0 -10 -18 -10 -40 0 -22 5 -40 10 -40 6 0
10 -9 10 -20 0 -13 7 -20 20 -20 17 0 20 7 20 50 0 28 -4 50 -10 50 -5 0 -10
14 -10 30 0 23 4 30 20 30 11 0 20 -4 20 -10 0 -5 -4 -10 -10 -10 -5 0 -10 -9
-10 -20 0 -11 5 -20 10 -20 6 0 10 -33 10 -80 0 -44 3 -80 6 -80 4 0 15 10 26
22 16 19 21 20 29 8 8 -11 12 -12 16 -2 8 20 43 14 43 -8 0 -11 -4 -20 -10
-20 -5 0 -10 -9 -10 -20 0 -13 -7 -20 -20 -20 -11 0 -20 5 -20 10 0 6 -13 10
-30 10 -23 0 -30 -4 -30 -20 0 -11 -4 -20 -10 -20 -5 0 -10 -22 -10 -50 0 -27
-4 -50 -10 -50 -5 0 -10 -13 -10 -30 0 -23 -4 -30 -20 -30 -16 0 -20 7 -20 30
0 17 -4 30 -10 30 -5 0 -10 7 -10 16 0 9 -10 26 -22 37 -16 13 -19 21 -10 24
21 8 13 23 -13 23 -14 0 -37 11 -50 25 -22 21 -25 33 -25 100 0 43 4 75 10 75
6 0 10 9 10 20 0 11 5 20 10 20 6 0 10 13 10 28 0 16 8 34 20 42 11 8 20 22
20 32 0 10 7 18 16 18 8 0 22 6 30 14 16 17 19 66 4 66 -5 0 -10 -9 -10 -20 0
-11 -7 -20 -15 -20 -20 0 -65 -45 -65 -65 0 -8 -4 -15 -10 -15 -5 0 -10 -9
-10 -20 0 -11 -4 -20 -10 -20 -5 0 -10 -13 -10 -30 0 -16 -4 -30 -10 -30 -5 0
-10 -7 -10 -16 0 -8 -6 -22 -14 -30 -16 -16 -86 -19 -86 -4 0 6 -12 10 -26 10
-27 0 -54 20 -54 40 0 7 -13 25 -30 40 -18 17 -30 38 -30 54 0 14 -4 26 -10
26 -5 0 -10 9 -10 20 0 11 -4 20 -10 20 -6 0 -10 35 -10 86 0 83 1 87 30 114
17 15 30 35 30 44 0 9 8 16 20 16 11 0 20 5 20 10 0 6 17 10 38 10 26 0 42 -6
52 -20 8 -11 22 -20 32 -20 10 0 18 -4 18 -10 0 -5 14 -10 30 -10 17 0 30 -4
30 -10 0 -5 5 -10 10 -10 6 0 10 9 10 20 0 11 3 20 6 20 14 0 34 -31 34 -54 0
-14 5 -26 10 -26 6 0 10 -12 10 -26 0 -33 21 -54 54 -54 19 0 26 5 26 20 0 22
-16 27 -22 8 -3 -9 -9 -8 -21 4 -22 22 -21 28 3 28 11 0 20 5 20 10 0 6 7 10
15 10 20 0 85 65 85 85 0 8 5 15 10 15 6 0 10 14 10 30 0 17 -4 30 -10 30 -5
0 -10 14 -10 30 0 22 -5 30 -18 30 -10 0 -24 9 -32 20 -8 11 -22 20 -32 20
-10 0 -18 5 -18 10 0 6 -8 10 -18 10 -10 0 -24 9 -32 20 -8 11 -20 20 -28 20
-22 0 -42 26 -42 54 0 29 -9 32 -27 11z m-53 -255 c0 -5 -4 -10 -10 -10 -5 0
-10 5 -10 10 0 6 5 10 10 10 6 0 10 -4 10 -10z m-3980 -260 c0 -53 4 -90 10
-90 6 0 10 -60 10 -160 0 -100 4 -160 10 -160 6 0 10 -103 10 -290 0 -187 4
-290 10 -290 6 0 10 -21 10 -46 0 -44 -16 -74 -40 -74 -38 0 -40 17 -40 384 0
231 -4 356 -10 356 -6 0 -10 40 -10 100 0 60 -4 100 -10 100 -6 0 -10 33 -10
80 0 44 -3 80 -6 80 -3 0 -23 -18 -44 -40 -21 -22 -45 -40 -52 -40 -7 0 -20
-9 -28 -20 -8 -11 -22 -20 -32 -20 -10 0 -18 -4 -18 -10 0 -5 -9 -10 -20 -10
-11 0 -20 -4 -20 -10 0 -5 -9 -10 -20 -10 -11 0 -20 -4 -20 -10 0 -5 -7 -10
-16 -10 -34 0 -44 -26 -44 -114 0 -51 4 -86 10 -86 6 0 10 -33 10 -80 0 -47 4
-80 10 -80 6 0 10 -13 10 -30 0 -16 5 -30 10 -30 6 0 10 -18 10 -40 0 -22 5
-40 10 -40 6 0 10 -22 10 -50 0 -27 5 -50 10 -50 6 0 10 -18 10 -40 0 -22 5
-40 10 -40 6 0 10 -53 10 -140 0 -87 4 -140 10 -140 6 0 10 -37 10 -90 0 -53
4 -90 10 -90 6 0 10 -50 10 -130 0 -80 4 -130 10 -130 6 0 10 -9 10 -20 0 -17
-7 -20 -40 -20 l-40 0 0 110 c0 67 -4 110 -10 110 -6 0 -10 40 -10 100 0 60
-4 100 -10 100 -5 0 -10 14 -10 30 0 17 -4 30 -10 30 -6 0 -10 43 -10 110 0
67 -4 110 -10 110 -6 0 -10 37 -10 90 0 53 -4 90 -10 90 -5 0 -10 23 -10 50 0
28 -4 50 -10 50 -6 0 -10 27 -10 60 0 33 -4 60 -10 60 -6 0 -10 27 -10 60 0
33 -4 60 -10 60 -5 0 -10 23 -10 50 0 28 -4 50 -10 50 -6 0 -10 37 -10 90 0
83 1 90 20 90 11 0 20 5 20 10 0 6 9 10 20 10 11 0 20 5 20 10 0 6 17 10 38
10 26 0 42 6 52 20 8 11 22 20 32 20 10 0 18 5 18 10 0 6 9 10 20 10 11 0 20
5 20 10 0 6 8 10 18 10 10 0 24 9 32 20 8 11 21 20 30 20 9 0 22 9 30 20 8 11
22 20 32 20 10 0 18 5 18 10 0 6 9 10 20 10 19 0 20 -7 20 -90z m2620 60 c0
-5 11 -10 25 -10 14 0 37 -11 50 -25 14 -13 25 -36 25 -50 0 -14 5 -25 10 -25
6 0 10 -30 10 -69 0 -46 4 -71 13 -75 10 -5 10 -7 0 -12 -7 -3 -13 -14 -13
-25 0 -10 -4 -19 -10 -19 -5 0 -10 -7 -10 -15 0 -20 -105 -125 -125 -125 -8 0
-15 -4 -15 -10 0 -5 -21 -10 -46 -10 -46 0 -74 16 -74 42 0 8 -9 20 -20 28
-11 8 -20 22 -20 32 0 10 -4 18 -10 18 -5 0 -10 9 -10 20 0 11 -4 20 -10 20
-5 0 -10 9 -10 20 0 11 -4 20 -10 20 -5 0 -10 -9 -10 -20 0 -11 5 -20 10 -20
6 0 10 -9 10 -20 0 -11 5 -20 10 -20 6 0 10 -9 10 -20 0 -11 5 -20 10 -20 6 0
10 -9 10 -19 0 -11 6 -22 13 -24 9 -4 8 -8 -3 -16 -8 -5 -11 -14 -6 -18 5 -4
11 -2 13 5 3 6 9 12 14 12 16 0 11 -150 -5 -166 -22 -21 -26 -17 -26 26 0 22
-4 40 -10 40 -5 0 -10 -13 -10 -29 0 -16 -6 -32 -12 -35 -10 -5 -10 -7 0 -12
8 -4 12 -33 12 -95 0 -53 4 -89 10 -89 6 0 10 -13 10 -30 0 -16 5 -30 10 -30
6 0 10 5 10 10 0 6 5 10 10 10 6 0 10 -9 10 -20 0 -11 -4 -20 -10 -20 -5 0
-10 -9 -10 -20 0 -11 5 -20 10 -20 6 0 10 -30 10 -70 0 -40 4 -70 10 -70 6 0
10 18 10 40 0 22 5 40 10 40 6 0 10 -9 10 -20 0 -11 5 -20 10 -20 6 0 10 -9
10 -20 0 -18 7 -20 86 -20 61 0 90 4 100 14 19 20 18 26 -6 26 -11 0 -20 -4
-20 -10 0 -6 -29 -10 -66 -10 -73 0 -94 12 -94 54 l0 26 110 0 110 0 0 -56 c0
-35 -5 -61 -14 -70 -19 -19 -221 -20 -230 -1 -5 10 -7 10 -12 0 -9 -20 -24
-15 -24 7 0 11 -4 20 -10 20 -5 0 -10 18 -10 40 0 22 -4 40 -10 40 -6 0 -10
-27 -10 -60 l0 -60 -90 0 c-53 0 -90 4 -90 10 0 6 -7 10 -16 10 -9 0 -29 14
-44 30 -15 17 -31 30 -34 30 -12 0 -6 -38 7 -44 10 -5 10 -7 0 -12 -7 -3 -13
-14 -13 -25 0 -23 -6 -24 -26 -5 -20 21 -17 59 6 76 21 15 28 50 10 50 -5 0
-10 23 -10 50 0 28 5 50 10 50 6 0 10 9 10 20 0 11 5 20 10 20 6 0 10 14 10
30 0 17 5 30 10 30 6 0 10 8 10 18 0 10 9 24 20 32 11 8 20 22 20 32 0 10 5
18 10 18 6 0 10 9 10 20 0 11 5 20 10 20 6 0 10 9 10 20 0 11 5 20 10 20 6 0
10 9 10 20 0 16 7 20 30 20 17 0 30 -4 30 -10 0 -5 -4 -10 -10 -10 -6 0 -10
-37 -10 -90 0 -53 4 -90 10 -90 6 0 10 -9 10 -20 0 -11 5 -20 10 -20 6 0 10
-9 10 -20 0 -11 5 -20 10 -20 6 0 10 -9 10 -20 0 -11 5 -20 10 -20 6 0 10 -12
10 -26 0 -27 26 -61 38 -49 4 4 1 10 -5 12 -7 3 -13 18 -13 34 0 16 -4 29 -10
29 -5 0 -10 14 -10 30 0 17 -4 30 -10 30 -5 0 -10 8 -10 18 0 10 -9 24 -20 32
-17 12 -20 26 -20 92 0 45 4 78 10 78 6 0 10 14 10 30 0 28 -3 30 -36 30 -38
0 -64 -18 -64 -44 0 -9 -4 -16 -10 -16 -5 0 -10 -9 -10 -20 0 -13 -7 -20 -20
-20 -11 0 -20 5 -20 10 0 6 -9 10 -20 10 -27 0 -25 7 10 40 17 15 30 35 30 44
0 9 8 16 20 16 11 0 20 5 20 10 0 6 -4 10 -10 10 -5 0 -10 9 -10 20 0 11 5 20
10 20 6 0 10 9 10 20 0 11 5 20 10 20 6 0 10 -4 10 -10 0 -5 5 -10 10 -10 6 0
10 9 10 20 0 11 -4 20 -10 20 -6 0 -10 47 -10 120 0 73 4 120 10 120 6 0 10
18 10 40 0 22 5 40 10 40 6 0 10 9 10 20 0 11 5 20 10 20 6 0 10 -13 10 -30 0
-16 -4 -30 -10 -30 -6 0 -10 -27 -10 -60 0 -33 4 -60 10 -60 6 0 10 27 10 60
0 33 4 60 10 60 6 0 10 12 10 26 0 29 21 54 44 54 9 0 16 5 16 10 0 6 9 10 20
10 11 0 20 5 20 10 0 6 33 10 80 10 47 0 80 -4 80 -10z m1100 0 c0 -5 -4 -10
-10 -10 -5 0 -10 5 -10 10 0 6 5 10 10 10 6 0 10 -4 10 -10z m-860 -90 c0 -22
5 -40 10 -40 6 0 10 -18 10 -40 0 -22 5 -40 10 -40 6 0 10 -47 10 -120 0 -66
-3 -120 -6 -120 -3 0 -12 6 -20 14 -10 11 -14 41 -14 110 0 57 -4 96 -10 96
-5 0 -10 18 -10 40 0 22 -4 40 -10 40 -5 0 -10 14 -10 30 0 17 -4 30 -10 30
-5 0 -10 9 -10 20 0 16 7 20 30 20 28 0 30 -2 30 -40z m1460 -90 c0 -5 7 -10
16 -10 8 0 22 -6 30 -14 16 -17 19 -46 4 -46 -5 0 -10 -18 -10 -40 0 -33 -3
-40 -20 -40 -17 0 -20 7 -20 46 0 35 -5 51 -21 65 -18 15 -19 20 -7 33 15 18
28 20 28 6z m-1520 -120 c0 -27 -4 -50 -10 -50 -6 0 -10 -33 -10 -80 0 -47 4
-80 10 -80 6 0 10 -27 10 -60 0 -53 -2 -60 -20 -60 -19 0 -20 7 -20 90 0 53
-4 90 -10 90 -6 0 -10 -40 -10 -100 l0 -100 -50 0 c-27 0 -50 5 -50 10 0 6
-33 10 -80 10 l-80 0 0 70 0 70 60 0 c33 0 60 4 60 10 0 6 7 10 15 10 18 0
105 84 105 100 0 17 26 40 44 40 12 0 16 10 16 40 0 22 5 40 10 40 6 0 10 -22
10 -50z m1606 36 c14 -14 20 -46 8 -46 -11 0 -34 29 -34 44 0 20 7 20 26 2z
m-506 -56 c0 -5 23 -10 50 -10 l50 0 0 -46 c0 -57 -16 -74 -70 -74 -56 0 -70
17 -70 84 0 49 2 56 20 56 11 0 20 -4 20 -10z m1566 -24 c16 -17 19 -66 4 -66
-5 0 -10 -13 -10 -30 0 -23 -4 -30 -20 -30 -13 0 -20 7 -20 20 0 11 5 20 10
20 6 0 10 13 10 29 0 16 6 31 13 34 6 2 9 8 5 12 -12 12 -38 -22 -38 -49 0
-14 -4 -26 -10 -26 -5 0 -10 -9 -10 -20 0 -16 -7 -20 -30 -20 -28 0 -30 3 -30
36 0 36 18 64 42 64 8 0 20 9 28 20 17 24 36 26 56 6z m-2646 -36 c0 -5 -4
-10 -10 -10 -5 0 -10 5 -10 10 0 6 5 10 10 10 6 0 10 -4 10 -10z m2706 -24 c8
-8 14 -22 14 -30 0 -9 5 -16 10 -16 6 0 10 -8 10 -18 0 -10 9 -24 20 -32 11
-8 20 -21 20 -30 0 -9 9 -22 20 -30 24 -17 27 -50 4 -50 -22 0 -53 32 -36 38
17 5 15 22 -4 22 -22 0 -53 32 -36 38 19 6 14 22 -8 22 -13 0 -20 7 -20 20 0
13 -7 20 -20 20 -23 0 -27 23 -7 45 15 18 16 18 33 1z m-4386 -76 c0 -27 5
-50 10 -50 6 0 10 9 10 20 0 11 5 20 10 20 6 0 10 -4 10 -10 0 -5 9 -10 20
-10 11 0 20 -4 20 -10 0 -5 14 -10 30 -10 26 0 30 -4 30 -26 0 -29 -31 -67
-38 -46 -2 6 -16 12 -32 12 -16 0 -30 6 -32 12 -3 9 -10 7 -24 -6 -13 -14 -15
-21 -6 -24 14 -4 17 -62 2 -62 -5 0 -10 14 -10 30 0 27 -3 30 -30 30 -16 0
-30 -4 -30 -10 0 -5 -16 -10 -35 -10 -27 0 -44 8 -71 35 -31 31 -33 37 -20 50
8 8 20 15 26 15 6 0 29 18 50 40 21 22 46 40 54 40 9 0 16 5 16 10 0 6 9 10
20 10 17 0 20 -7 20 -50z m90 30 c8 -12 26 -20 42 -20 15 0 28 -4 28 -10 0 -5
5 -10 10 -10 6 0 10 7 10 16 0 15 23 44 34 44 15 0 4 -33 -19 -55 -42 -43
-135 -29 -135 19 0 9 -8 16 -20 16 -11 0 -20 5 -20 10 0 18 55 11 70 -10z
m2590 4 c0 -9 -10 -26 -22 -37 -16 -13 -19 -21 -10 -24 14 -5 16 -43 2 -43 -5
0 -10 -9 -10 -20 0 -11 5 -20 10 -20 6 0 10 -47 10 -120 0 -113 -1 -120 -20
-120 -11 0 -20 -4 -20 -10 0 -22 -53 -9 -80 20 -15 17 -33 30 -39 30 -17 0
-81 -67 -81 -85 0 -8 5 -15 10 -15 6 0 10 7 10 16 0 39 57 58 86 29 13 -13 11
-19 -20 -50 -34 -34 -66 -46 -66 -25 0 6 -13 10 -30 10 -16 0 -30 5 -30 10 0
6 -7 10 -15 10 -9 0 -27 11 -40 25 -25 24 -33 55 -15 55 6 0 10 14 10 30 0 29
1 30 50 30 28 0 50 5 50 10 0 6 -13 10 -30 10 -16 0 -30 3 -30 6 0 16 33 34
64 34 29 0 36 -4 36 -20 0 -11 -4 -20 -10 -20 -5 0 -10 -13 -10 -30 0 -23 4
-30 20 -30 22 0 27 15 8 24 -10 5 -10 7 0 12 6 3 12 12 12 20 0 19 65 84 85
84 12 0 15 -15 15 -80 0 -47 4 -80 10 -80 6 0 10 43 10 110 0 61 -3 110 -6
110 -3 0 -19 -13 -34 -30 -15 -16 -33 -30 -40 -30 -16 0 -40 26 -40 44 0 19
36 22 43 4 2 -8 8 -9 13 -4 5 5 4 11 -3 13 -17 6 -16 31 1 49 18 17 43 18 49
2 2 -8 8 -9 13 -4 5 5 4 11 -3 13 -28 10 -3 63 29 63 8 0 20 9 28 20 17 24 30
26 30 4z m-2400 -24 c0 -11 5 -20 10 -20 6 0 10 -13 10 -30 0 -16 5 -30 10
-30 6 0 10 -22 10 -50 0 -27 5 -50 10 -50 6 0 10 -43 10 -110 0 -67 4 -110 10
-110 6 0 10 -42 10 -106 0 -123 -6 -134 -74 -134 l-46 0 0 39 c0 22 6 42 13
45 10 5 10 7 0 12 -7 3 -13 14 -13 25 0 10 -4 19 -10 19 -5 0 -10 5 -10 10 0
6 12 10 26 10 27 0 61 26 49 38 -4 4 -10 1 -12 -5 -3 -7 -18 -13 -34 -13 -26
0 -29 4 -29 30 0 23 4 30 20 30 11 0 20 5 20 10 0 6 9 10 20 10 11 0 20 5 20
10 0 14 -38 12 -42 -2 -7 -21 -38 17 -38 46 0 14 -4 26 -10 26 -5 0 -10 7 -10
15 0 20 -65 85 -85 85 -8 0 -15 -4 -15 -10 0 -5 7 -10 16 -10 20 0 44 -24 44
-44 0 -9 -8 -16 -18 -16 -10 0 -24 -9 -32 -20 -8 -11 -21 -20 -30 -20 -9 0
-22 -9 -30 -20 -8 -11 -22 -20 -32 -20 -10 0 -18 -4 -18 -10 0 -5 -18 -10 -40
-10 -22 0 -40 5 -40 10 0 6 -9 10 -19 10 -11 0 -21 6 -24 13 -2 6 -8 9 -12 5
-5 -5 2 -16 13 -27 12 -10 22 -26 22 -35 0 -22 -33 -20 -50 4 -15 21 -70 28
-70 10 0 -5 14 -10 30 -10 23 0 30 -4 30 -20 0 -15 -7 -20 -29 -20 -16 0 -31
-6 -34 -12 -3 -9 -11 -6 -24 10 -21 22 -53 30 -53 12 0 -5 9 -10 20 -10 13 0
20 -7 20 -20 0 -16 -7 -20 -38 -20 -26 0 -42 6 -52 20 -8 11 -22 20 -31 20
-10 0 -19 6 -22 13 -2 6 -8 9 -12 5 -9 -8 18 -38 35 -38 12 0 40 -24 40 -34 0
-3 -17 -6 -38 -6 -26 0 -42 6 -52 20 -8 11 -22 20 -32 20 -10 0 -18 7 -18 16
0 23 25 44 54 44 14 0 26 5 26 10 0 6 14 10 30 10 17 0 30 5 30 10 0 15 77 12
83 -2 2 -8 8 -9 13 -4 5 5 4 11 -3 13 -24 9 -13 23 17 23 17 0 30 5 30 10 0 6
9 10 20 10 11 0 20 5 20 10 0 6 9 10 20 10 11 0 20 5 20 10 0 6 14 10 30 10
17 0 30 5 30 10 0 6 9 10 20 10 11 0 20 5 20 10 0 6 9 10 20 10 11 0 20 -4 20
-10 0 -5 9 -10 19 -10 11 0 21 -6 24 -12 2 -7 8 -10 12 -6 5 5 -2 17 -14 27
l-23 20 26 26 c14 14 30 25 36 25 6 0 31 20 55 45 34 33 45 52 45 75 0 18 9
41 23 55 28 30 57 32 57 5z m2460 10 c0 -6 30 -10 70 -10 40 0 70 4 70 10 0 6
5 10 10 10 6 0 10 -13 10 -30 0 -16 -4 -30 -10 -30 -5 0 -10 5 -10 10 0 6 -9
10 -20 10 -11 0 -20 -4 -20 -10 0 -5 -22 -10 -50 -10 -27 0 -50 5 -50 10 0 6
-9 10 -20 10 -13 0 -20 7 -20 20 0 13 7 20 20 20 11 0 20 -4 20 -10z m420 0
c0 -5 14 -10 30 -10 17 0 30 -4 30 -10 0 -5 -4 -10 -10 -10 -5 0 -10 -13 -10
-30 0 -16 -4 -30 -10 -30 -5 0 -10 -12 -10 -26 0 -15 -10 -35 -22 -46 -19 -16
-20 -21 -8 -28 8 -5 11 -13 6 -17 -5 -4 -11 -2 -13 5 -3 6 -13 12 -24 12 -10
0 -19 5 -19 10 0 6 9 10 20 10 11 0 20 5 20 10 0 6 -9 10 -20 10 -13 0 -20 7
-20 20 0 11 5 20 10 20 6 0 10 9 10 20 0 13 7 20 20 20 26 0 25 8 -1 31 -18
15 -19 20 -7 33 15 18 28 20 28 6z m1100 -60 c0 -23 -4 -30 -20 -30 -11 0 -20
-4 -20 -10 0 -5 9 -10 20 -10 15 0 20 -7 20 -29 0 -16 -6 -32 -12 -35 -10 -5
-10 -7 0 -12 14 -7 17 -104 2 -104 -15 0 -12 -49 4 -66 8 -8 22 -14 30 -14 9
0 16 -4 16 -10 0 -5 -22 -10 -50 -10 l-50 0 0 180 0 180 30 0 c27 0 30 -3 30
-30z m46 16 c21 -21 17 -46 -6 -46 -16 0 -20 7 -20 30 0 34 5 37 26 16z m74
-6 c0 -11 5 -20 10 -20 6 0 10 -9 10 -20 0 -11 5 -20 10 -20 6 0 10 -8 10 -18
0 -10 9 -24 20 -32 11 -8 20 -21 20 -30 0 -9 9 -22 20 -30 39 -28 14 -70 -42
-70 -22 0 -39 -7 -48 -20 -8 -11 -22 -20 -32 -20 -14 0 -18 8 -18 40 0 33 3
40 20 40 11 0 20 5 20 10 0 6 -9 10 -20 10 -27 0 -26 28 2 51 11 11 18 22 13
27 -4 4 -10 1 -12 -5 -3 -7 -9 -13 -14 -13 -14 0 -11 58 4 64 10 5 10 7 0 12
-7 3 -13 19 -13 35 0 22 5 29 20 29 13 0 20 -7 20 -20z m-1640 -10 c0 -5 22
-10 49 -10 30 0 52 -5 55 -12 5 -10 7 -10 12 0 10 20 44 15 44 -8 0 -19 -7
-20 -100 -20 l-100 0 0 30 c0 23 4 30 20 30 11 0 20 -4 20 -10z m240 -10 c0
-11 5 -20 10 -20 6 0 10 -9 10 -20 0 -11 5 -20 10 -20 6 0 10 -11 10 -25 0
-38 42 -75 85 -75 34 0 35 -1 35 -40 0 -22 -4 -40 -10 -40 -5 0 -10 -9 -10
-20 0 -11 -4 -20 -10 -20 -5 0 -10 -9 -10 -20 0 -11 -2 -20 -5 -20 -12 0 -95
90 -95 103 0 7 -9 19 -20 27 -11 8 -20 21 -20 30 0 9 -9 22 -20 30 -22 16 -27
65 -7 74 10 5 10 7 0 12 -28 13 -4 63 30 64 10 0 17 -7 17 -20z m1060 10 c0
-5 14 -10 30 -10 17 0 30 -4 30 -10 0 -5 7 -10 15 -10 29 0 65 -47 65 -85 0
-19 -2 -35 -5 -35 -16 0 -55 53 -55 75 0 18 -5 25 -20 25 -11 0 -20 5 -20 10
0 6 -4 10 -10 10 -5 0 -10 -9 -10 -20 0 -11 -3 -20 -6 -20 -11 0 -34 29 -34
44 0 23 -8 20 -43 -16 -19 -21 -32 -28 -34 -20 -10 28 -63 1 -63 -32 0 -9 -4
-16 -10 -16 -22 0 -9 52 23 85 29 30 38 34 90 34 32 1 57 -3 57 -9z m-4250
-70 c8 -11 20 -20 28 -20 18 0 42 -25 42 -44 0 -12 -10 -16 -40 -16 -22 0 -40
-4 -40 -10 0 -5 -13 -10 -30 -10 -16 0 -30 -4 -30 -10 0 -5 -13 -10 -30 -10
-16 0 -30 -4 -30 -10 0 -21 -70 -10 -95 15 -38 37 -33 55 15 55 22 0 40 -4 40
-10 0 -5 9 -10 19 -10 11 0 21 -6 24 -12 2 -7 8 -10 12 -6 5 5 -2 16 -13 27
-35 29 -28 51 14 51 27 0 43 -7 64 -30 33 -35 40 -37 40 -10 0 12 -7 20 -16
20 -15 0 -44 23 -44 34 0 3 9 6 20 6 11 0 20 5 20 10 0 16 15 11 30 -10z
m4530 -10 c0 -23 -4 -30 -20 -30 -16 0 -20 7 -20 30 0 23 4 30 20 30 16 0 20
-7 20 -30z m-1480 -30 l0 -40 -70 0 -70 0 0 40 0 40 70 0 70 0 0 -40z m60 0
c0 -43 -4 -47 -26 -26 -17 18 -18 33 -1 51 20 23 27 17 27 -25z m-2800 14 c0
-3 -6 -12 -14 -20 -21 -21 -46 -17 -46 6 0 16 7 20 30 20 17 0 30 -3 30 -6z
m4440 -14 c0 -16 -7 -20 -30 -20 -33 0 -36 4 -17 25 18 21 47 18 47 -5z
m-2054 -15 c14 -13 14 -17 0 -31 -14 -14 -18 -14 -31 0 -20 19 -19 46 1 46 8
0 22 -7 30 -15z m1474 -15 c0 -16 5 -30 10 -30 6 0 10 -9 10 -20 0 -24 -6 -25
-26 -6 -16 16 -19 86 -4 86 6 0 10 -13 10 -30z m-2900 -18 c0 -16 -8 -34 -20
-42 -11 -8 -20 -22 -20 -32 0 -10 -4 -18 -10 -18 -5 0 -10 -13 -10 -30 0 -16
-4 -30 -10 -30 -5 0 -10 -9 -10 -20 0 -11 -4 -20 -10 -20 -5 0 -10 -9 -10 -20
0 -11 -4 -20 -10 -20 -5 0 -10 -13 -10 -30 0 -16 5 -30 10 -30 6 0 10 -18 10
-40 0 -43 -18 -53 -46 -26 -16 17 -19 46 -4 46 6 0 10 5 10 10 0 6 -9 10 -20
10 -16 0 -20 7 -20 36 0 38 18 64 44 64 9 0 16 5 16 10 0 6 -4 10 -10 10 -18
0 -11 55 10 70 12 8 20 26 20 42 0 24 4 28 30 28 17 0 30 5 30 10 0 6 -4 10
-10 10 -5 0 -10 9 -10 20 0 16 7 20 30 20 26 0 30 -4 30 -28z m420 18 c0 -6
33 -10 80 -10 47 0 80 4 80 10 0 6 5 10 10 10 6 0 10 -18 10 -40 0 -22 -4 -40
-10 -40 -5 0 -10 9 -10 20 0 11 -4 20 -10 20 -5 0 -10 -9 -10 -20 0 -19 -7
-20 -136 -20 -147 0 -164 6 -164 54 0 26 1 26 80 26 47 0 80 -4 80 -10z m325
-25 c19 -19 35 -41 35 -50 0 -8 5 -15 10 -15 6 0 10 -9 10 -20 0 -11 5 -20 10
-20 6 0 10 -13 10 -30 0 -16 5 -30 10 -30 6 0 10 -18 10 -40 0 -22 -4 -40 -10
-40 -5 0 -10 -7 -10 -15 0 -14 -102 -125 -115 -125 -3 0 -5 23 -5 50 0 28 -4
50 -10 50 -6 0 -10 40 -10 100 0 60 4 100 10 100 6 0 10 27 10 60 0 33 2 60 5
60 3 0 21 -16 40 -35z m2515 15 c0 -11 -4 -20 -10 -20 -5 0 -10 -9 -10 -20 0
-11 5 -20 10 -20 6 0 10 -9 10 -20 0 -13 -7 -20 -20 -20 -11 0 -20 -4 -20 -10
0 -5 14 -10 30 -10 17 0 30 -4 30 -10 0 -5 14 -10 30 -10 23 0 30 -5 30 -19 0
-11 6 -21 13 -24 8 -3 5 -11 -10 -24 -13 -11 -23 -28 -23 -37 0 -9 -4 -16 -10
-16 -5 0 -10 -7 -10 -15 0 -20 -45 -65 -65 -65 -8 0 -15 -4 -15 -10 0 -5 -9
-10 -20 -10 -11 0 -20 -4 -20 -10 0 -5 -9 -10 -20 -10 -13 0 -20 7 -20 20 0
16 7 20 30 20 17 0 30 5 30 10 0 6 9 10 20 10 13 0 20 7 20 20 0 13 -7 20 -20
20 -11 0 -20 -4 -20 -10 0 -5 -9 -10 -20 -10 -11 0 -20 -4 -20 -10 0 -20 -51
-10 -75 15 -32 31 -31 35 5 35 17 0 30 -4 30 -10 0 -15 29 -12 46 4 18 19 18
26 -2 26 -15 0 -44 23 -44 34 0 3 9 6 20 6 11 0 20 -4 20 -10 0 -5 9 -10 20
-10 11 0 20 5 20 10 0 6 12 10 26 10 14 0 32 7 40 15 14 13 14 17 0 30 -8 8
-26 15 -40 15 -19 0 -26 5 -26 20 0 11 5 20 10 20 6 0 10 27 10 60 0 53 2 60
20 60 13 0 20 -7 20 -20z m-4775 -35 c19 -19 35 -37 35 -40 0 -3 -13 -5 -29
-5 -16 0 -31 -6 -34 -12 -3 -9 -11 -5 -26 11 -11 13 -24 21 -29 16 -4 -4 -1
-10 6 -12 6 -3 12 -13 12 -24 0 -27 -47 -25 -71 3 -11 11 -22 18 -27 13 -4 -4
-1 -10 6 -12 18 -7 15 -43 -4 -43 -8 0 -22 6 -30 14 -8 8 -14 22 -14 30 0 9
-4 16 -10 16 -5 0 -10 5 -10 10 0 6 9 10 20 10 11 0 20 5 20 10 0 6 9 10 20
10 11 0 20 5 20 10 0 6 18 10 40 10 22 0 40 5 40 10 0 21 32 9 65 -25z m5055
25 c0 -5 -13 -10 -30 -10 -16 0 -30 -4 -30 -10 0 -5 23 -10 50 -10 47 0 50 -2
50 -26 0 -26 -20 -54 -40 -54 -16 0 -60 47 -60 65 0 8 -4 15 -10 15 -5 0 -10
9 -10 20 0 17 7 20 40 20 22 0 40 -4 40 -10z m-1700 -160 c0 -93 4 -150 10
-150 6 0 10 -18 10 -40 0 -33 -3 -40 -20 -40 -19 0 -20 7 -20 119 0 86 -3 121
-12 124 -10 4 -9 8 2 16 8 5 11 14 6 18 -5 4 -11 2 -13 -4 -3 -7 -18 -13 -34
-13 -16 0 -29 -4 -29 -10 0 -5 7 -10 16 -10 36 0 44 -25 44 -134 0 -99 -1
-106 -20 -106 -11 0 -20 -4 -20 -10 0 -5 -4 -10 -10 -10 -6 0 -10 38 -10 95 0
88 -2 98 -25 120 -13 14 -29 25 -35 25 -20 0 -40 28 -40 54 0 24 3 26 50 26
28 0 50 5 50 10 0 6 -16 10 -36 10 -38 0 -64 18 -64 44 0 14 16 16 100 16
l100 0 0 -150z m-980 90 c0 -11 5 -20 10 -20 6 0 10 -9 10 -20 0 -11 5 -20 10
-20 6 0 10 -9 10 -20 0 -11 5 -20 10 -20 6 0 10 -18 10 -40 0 -22 -4 -40 -10
-40 -5 0 -10 -13 -10 -30 0 -16 -4 -30 -10 -30 -5 0 -10 -9 -10 -20 0 -16 -7
-20 -30 -20 -23 0 -30 4 -30 20 0 16 7 20 30 20 17 0 30 5 30 10 0 6 -9 10
-20 10 -26 0 -25 8 3 33 15 13 18 21 10 24 -22 8 -15 43 7 43 11 0 20 5 20 10
0 6 -9 10 -20 10 -13 0 -20 7 -20 20 0 11 -4 20 -10 20 -5 0 -10 9 -10 20 0
11 -4 20 -10 20 -5 0 -10 9 -10 20 0 13 7 20 20 20 13 0 20 -7 20 -20z m2600
-10 c0 -5 7 -10 16 -10 8 0 22 -7 30 -15 14 -13 14 -17 0 -30 -22 -22 -54 -18
-81 10 -30 29 -31 35 -5 35 11 0 20 5 20 10 0 6 5 10 10 10 6 0 10 -4 10 -10z
m-5200 -50 c0 -44 -8 -50 -30 -20 -8 11 -20 20 -28 20 -42 0 -59 -84 -22 -110
11 -8 20 -18 20 -22 0 -4 -9 -8 -20 -8 -11 0 -20 7 -20 15 0 15 -42 65 -55 65
-3 0 -5 -18 -5 -40 0 -43 -4 -47 -26 -26 -24 24 -18 93 11 121 13 14 31 25 40
25 8 0 15 5 15 10 0 6 27 10 60 10 l60 0 0 -40z m860 14 c0 -29 -21 -54 -44
-54 -9 0 -16 -4 -16 -10 0 -5 14 -10 30 -10 27 0 30 -3 30 -30 0 -26 -3 -30
-29 -30 -16 0 -31 6 -34 13 -2 6 -8 9 -12 5 -12 -12 22 -38 49 -38 22 0 26 -4
26 -30 0 -28 -2 -30 -40 -30 -22 0 -40 -4 -40 -10 0 -5 18 -10 40 -10 l40 0 0
-40 0 -40 -50 0 -50 0 0 80 c0 47 -4 80 -10 80 -5 0 -10 25 -10 56 0 56 14 84
42 84 8 0 20 9 28 20 21 29 50 26 50 -6z m4285 -9 c41 -40 42 -45 15 -45 -11
0 -20 -4 -20 -10 0 -5 -4 -10 -10 -10 -5 0 -10 14 -10 30 0 17 -4 30 -10 30
-5 0 -10 9 -10 20 0 27 5 26 45 -15z m-4425 -75 c0 -16 -4 -30 -10 -30 -6 0
-10 -40 -10 -100 l0 -100 -130 0 c-80 0 -130 -4 -130 -10 0 -6 -47 -10 -120
-10 l-120 0 0 29 c0 16 -6 31 -12 34 -7 2 -10 8 -6 12 9 10 38 -19 38 -39 0
-9 8 -16 20 -16 17 0 20 7 20 50 0 49 1 50 30 50 17 0 30 5 30 10 0 6 9 10 20
10 11 0 20 5 20 10 0 6 14 10 30 10 17 0 30 5 30 10 0 6 14 10 30 10 17 0 30
5 30 10 0 6 14 10 30 10 17 0 30 5 30 10 0 6 14 10 30 10 17 0 30 5 30 10 0 6
9 10 20 10 11 0 20 5 20 10 0 6 9 10 20 10 13 0 20 -7 20 -20 0 -11 5 -20 10
-20 6 0 10 14 10 30 0 17 5 30 10 30 6 0 10 -13 10 -30z m2640 0 c0 -20 5 -30
15 -30 20 0 65 -45 65 -65 0 -8 5 -15 10 -15 6 0 10 -9 10 -20 0 -11 -3 -20
-6 -20 -10 0 -34 28 -34 40 0 17 -30 44 -38 35 -4 -4 -1 -10 6 -12 6 -3 12
-13 12 -24 0 -10 5 -19 10 -19 6 0 10 -13 10 -30 0 -23 -4 -30 -20 -30 -16 0
-20 7 -20 35 0 27 -8 44 -35 70 -33 34 -65 46 -65 25 0 -5 -9 -10 -19 -10 -11
0 -22 -6 -25 -12 -5 -10 -7 -10 -12 0 -3 6 -14 12 -25 12 -10 0 -19 5 -19 10
0 6 5 10 10 10 6 0 10 7 10 16 0 28 27 44 74 44 25 0 46 5 46 10 0 6 9 10 20
10 16 0 20 -7 20 -30z m86 -4 c14 -14 20 -46 9 -46 -8 0 -55 47 -55 55 0 11
32 5 46 -9z m-3220 -80 c16 -17 19 -66 4 -66 -5 0 -10 9 -10 20 0 23 -25 27
-46 6 -16 -16 -19 -86 -4 -86 6 0 10 -4 10 -10 0 -5 -9 -10 -20 -10 -18 0 -20
7 -20 60 0 48 -3 60 -16 60 -23 0 -44 -25 -44 -54 0 -14 -4 -26 -10 -26 -5 0
-10 23 -10 50 0 43 3 50 20 50 11 0 20 5 20 10 0 16 109 12 126 -4z m674 -106
c0 -22 -4 -40 -10 -40 -5 0 -10 18 -10 40 0 22 5 40 10 40 6 0 10 -18 10 -40z
m1667 25 c14 -14 13 -18 -6 -34 -12 -10 -21 -24 -21 -30 0 -16 -25 -41 -40
-41 -15 0 -40 25 -40 40 0 6 7 19 16 27 13 14 17 14 24 2 5 -7 12 -10 17 -6 4
5 1 12 -6 16 -12 8 -12 11 0 25 18 20 36 20 56 1z m2433 -5 c0 -16 -7 -20 -30
-20 -16 0 -30 5 -30 10 0 6 9 10 20 10 11 0 20 5 20 10 0 6 5 10 10 10 6 0 10
-9 10 -20z m-4260 -20 c0 -11 -4 -20 -10 -20 -5 0 -10 9 -10 20 0 11 5 20 10
20 6 0 10 -9 10 -20z m986 -34 c19 -19 18 -93 -1 -112 -13 -14 -17 -14 -30 0
-8 8 -15 21 -15 29 0 9 -6 17 -12 20 -9 3 -6 11 10 24 12 11 22 28 22 37 0 20
7 20 26 2z m3884 -6 c8 -11 21 -20 30 -20 9 0 22 -9 30 -20 8 -11 21 -20 28
-20 8 0 27 -13 42 -30 15 -16 34 -30 42 -30 7 0 20 -9 28 -20 8 -11 22 -20 32
-20 10 0 18 -4 18 -10 0 -5 9 -10 20 -10 11 0 20 -4 20 -10 0 -5 8 -10 18 -10
10 0 24 -9 32 -20 8 -11 22 -20 32 -20 10 0 18 -4 18 -10 0 -5 9 -10 20 -10
11 0 20 -4 20 -10 0 -5 8 -10 18 -10 10 0 24 -9 32 -20 8 -11 21 -20 30 -20 9
0 22 -9 30 -20 8 -11 22 -20 32 -20 11 0 18 -7 18 -20 0 -19 -7 -20 -120 -20
-73 0 -120 4 -120 10 0 7 -183 10 -530 10 -347 0 -530 3 -530 10 0 6 -8 10
-18 10 -10 0 -24 9 -32 20 -8 11 -21 20 -30 20 -9 0 -22 9 -30 20 -8 11 -21
20 -30 20 -9 0 -22 9 -30 20 -8 11 -21 20 -28 20 -8 0 -27 14 -42 30 -15 17
-35 30 -44 30 -9 0 -16 5 -16 10 0 6 -7 10 -16 10 -9 0 -29 14 -44 30 -15 16
-34 30 -42 30 -7 0 -20 9 -28 20 -8 11 -20 20 -28 20 -12 0 -62 43 -62 55 0 3
225 5 500 5 327 0 500 3 500 10 0 6 43 10 108 10 96 0 109 -2 122 -20z m-2195
-145 c80 -80 145 -151 145 -158 0 -7 9 -19 20 -27 11 -8 20 -22 20 -32 0 -17
-26 -18 -470 -18 -307 0 -470 -3 -470 -10 0 -6 -79 -10 -216 -10 -233 0 -244
2 -244 54 0 14 -4 26 -10 26 -5 0 -10 23 -10 50 0 28 -4 50 -10 50 -5 0 -10 9
-10 20 0 11 -4 20 -10 20 -5 0 -10 23 -10 50 0 28 -4 50 -10 50 -5 0 -10 14
-10 30 0 29 1 30 50 30 43 0 50 -3 50 -20 0 -11 -4 -20 -10 -20 -5 0 -10 -13
-10 -30 0 -16 -4 -30 -10 -30 -5 0 -10 -13 -10 -30 0 -16 5 -30 10 -30 6 0 10
-9 10 -20 0 -13 7 -20 20 -20 16 0 20 7 20 30 0 17 5 30 10 30 6 0 10 -18 10
-40 0 -22 5 -40 10 -40 6 0 10 -9 10 -20 0 -13 7 -20 20 -20 17 0 20 7 20 46
0 40 16 74 34 74 3 0 6 -18 6 -40 0 -33 3 -40 20 -40 17 0 20 7 20 50 0 28 5
50 10 50 6 0 10 5 10 10 0 6 -13 10 -30 10 -16 0 -30 5 -30 10 0 6 -4 10 -10
10 -5 0 -10 -9 -10 -20 0 -11 -4 -20 -10 -20 -5 0 -10 -7 -10 -16 0 -15 -23
-44 -34 -44 -3 0 -6 9 -6 20 0 11 5 20 10 20 6 0 10 18 10 40 0 32 -4 40 -18
40 -10 0 -24 -9 -32 -20 -8 -11 -18 -20 -22 -20 -4 0 -8 9 -8 20 0 11 5 20 10
20 6 0 10 9 10 20 0 16 7 20 30 20 17 0 30 -4 30 -10 0 -5 7 -10 16 -10 9 0
25 -10 36 -22 16 -19 21 -20 28 -8 7 12 12 11 28 -8 11 -12 22 -22 26 -22 14
0 4 34 -15 51 -19 16 -20 20 -6 34 9 8 21 15 27 15 14 0 60 -46 60 -60 0 -17
-26 -40 -44 -40 -20 0 -21 -27 -1 -46 13 -14 17 -14 30 0 8 8 15 26 15 40 0
14 5 26 10 26 6 0 10 7 10 15 0 9 11 27 25 40 24 25 25 25 220 25 123 0 195 4
195 10 0 6 58 10 155 10 l155 0 145 -145z m45 135 c0 -5 9 -10 20 -10 11 0 20
5 20 10 0 7 146 10 418 10 406 0 418 -1 432 -20 8 -11 21 -20 30 -20 9 0 22
-9 30 -20 8 -11 21 -20 30 -20 9 0 22 -9 30 -20 8 -11 21 -20 28 -20 8 0 27
-13 42 -30 15 -16 34 -30 42 -30 7 0 20 -9 28 -20 8 -11 21 -20 30 -20 9 0 22
-9 30 -20 8 -11 21 -20 30 -20 9 0 22 -9 30 -20 8 -11 21 -20 30 -20 9 0 22
-9 30 -20 8 -11 22 -20 32 -20 11 0 18 -7 18 -20 0 -11 -4 -20 -10 -20 -5 0
-10 5 -10 10 0 7 -150 10 -430 10 -280 0 -430 -3 -430 -10 0 -6 -50 -10 -130
-10 -80 0 -130 4 -130 10 0 6 -16 10 -35 10 -36 0 -85 35 -85 60 0 6 -22 33
-50 60 -27 27 -50 54 -50 60 0 6 -36 46 -80 90 -44 44 -80 82 -80 85 0 3 32 5
70 5 40 0 70 -4 70 -10z m-2494 -24 c11 -12 14 -51 14 -190 l0 -176 -60 0
c-33 0 -60 -4 -60 -10 0 -6 -27 -10 -60 -10 -33 0 -60 -4 -60 -10 0 -6 -50
-10 -130 -10 -80 0 -130 -4 -130 -10 0 -6 -60 -10 -160 -10 -100 0 -160 -4
-160 -10 0 -6 -67 -10 -180 -10 -113 0 -180 -4 -180 -10 0 -5 -4 -10 -10 -10
-5 0 -10 18 -10 40 0 22 5 40 10 40 6 0 10 14 10 30 0 17 5 30 10 30 6 0 10 9
10 20 0 11 5 20 10 20 6 0 10 14 10 30 0 17 5 30 10 30 6 0 10 9 10 20 0 11 5
20 10 20 6 0 10 9 10 20 0 11 5 20 10 20 6 0 10 14 10 30 0 17 5 30 10 30 6 0
10 9 10 20 0 17 7 20 50 20 28 0 50 5 50 10 0 6 57 10 150 10 93 0 150 4 150
10 0 6 37 10 90 10 53 0 90 4 90 10 0 6 82 10 226 10 182 0 228 -3 240 -14z
m114 4 c0 -6 99 -10 276 -10 288 0 304 -2 304 -44 0 -9 5 -16 10 -16 6 0 10
-13 10 -30 0 -40 23 -39 61 1 26 27 30 29 44 16 9 -10 15 -34 15 -67 0 -35 5
-57 17 -68 12 -12 18 -13 21 -4 5 16 39 16 46 0 5 -10 7 -10 12 0 3 6 23 12
45 12 l39 0 0 78 c0 66 -3 80 -20 92 -11 8 -20 22 -20 32 0 16 10 18 80 18
l80 0 0 -30 c0 -16 5 -30 10 -30 6 0 10 -22 10 -50 0 -27 5 -50 10 -50 6 0 10
-9 10 -20 0 -11 5 -20 10 -20 6 0 10 -22 10 -50 0 -27 5 -50 10 -50 6 0 10
-13 10 -30 0 -16 5 -30 10 -30 6 0 10 -4 10 -10 0 -5 -18 -10 -40 -10 -22 0
-40 -4 -40 -10 0 -6 -67 -10 -180 -10 -113 0 -180 4 -180 10 0 6 -110 10 -310
10 -200 0 -310 4 -310 10 0 6 -9 10 -20 10 -11 0 -20 -4 -20 -10 0 -5 -22 -10
-50 -10 l-50 0 0 190 0 190 40 0 c22 0 40 -4 40 -10z m820 -6 c0 -9 14 -29 30
-44 26 -25 30 -35 30 -84 0 -31 -3 -56 -6 -56 -14 0 -34 31 -34 54 0 14 -4 26
-10 26 -5 0 -10 9 -10 20 0 11 -4 20 -10 20 -5 0 -10 9 -10 20 0 11 -4 20 -8
20 -4 0 -14 -9 -22 -20 -15 -21 -50 -28 -50 -10 0 6 -9 10 -20 10 -13 0 -20 7
-20 20 0 16 7 20 30 20 17 0 30 5 30 10 0 6 18 10 40 10 30 0 40 -4 40 -16z
m480 10 c0 -3 -7 -12 -15 -20 -13 -14 -17 -14 -30 0 -22 21 -19 26 15 26 17 0
30 -3 30 -6z m-2480 -74 c0 -11 -4 -20 -10 -20 -5 0 -10 -9 -10 -20 0 -11 -4
-20 -10 -20 -5 0 -10 -9 -10 -20 0 -11 -4 -20 -10 -20 -5 0 -10 -13 -10 -30 0
-16 -4 -30 -10 -30 -5 0 -10 -9 -10 -20 0 -11 -4 -20 -10 -20 -5 0 -10 -9 -10
-20 0 -11 -4 -20 -10 -20 -5 0 -10 -18 -10 -40 0 -22 -4 -40 -10 -40 -5 0 -10
-9 -10 -20 0 -11 -4 -20 -10 -20 -5 0 -10 -9 -10 -20 0 -11 -4 -20 -10 -20 -5
0 -10 5 -10 10 0 6 -27 10 -60 10 -33 0 -60 -4 -60 -10 0 -5 -18 -10 -40 -10
-22 0 -40 5 -40 10 0 6 -32 10 -76 10 -52 0 -80 4 -90 14 -10 11 -14 43 -14
130 0 71 -4 116 -10 116 -6 0 -10 30 -10 70 l0 70 290 0 c283 0 290 0 290 -20z
m1940 -100 c0 -11 -4 -20 -10 -20 -5 0 -10 9 -10 20 0 11 5 20 10 20 6 0 10
-9 10 -20z m1720 -230 c0 -29 -1 -30 -50 -30 -27 0 -50 5 -50 10 0 6 -37 10
-90 10 -53 0 -90 -4 -90 -10 0 -6 -50 -10 -130 -10 -80 0 -130 -4 -130 -10 0
-5 -18 -10 -40 -10 -22 0 -40 5 -40 10 0 6 -37 10 -90 10 -53 0 -90 -4 -90
-10 0 -6 -33 -10 -80 -10 -47 0 -80 4 -80 10 0 6 -80 10 -220 10 -140 0 -220
-4 -220 -10 0 -5 -9 -10 -20 -10 -11 0 -20 5 -20 10 0 6 -50 10 -130 10 -80 0
-130 -4 -130 -10 0 -6 -67 -10 -180 -10 -113 0 -180 -4 -180 -10 0 -6 -37 -10
-90 -10 -53 0 -90 4 -90 10 0 15 -57 12 -63 -3 -4 -9 -8 -8 -17 3 -9 11 -13
12 -17 3 -10 -27 -23 -11 -23 27 l0 40 230 0 c147 0 230 -4 230 -10 0 -6 107
-10 300 -10 193 0 300 4 300 10 0 6 90 10 250 10 160 0 250 4 250 10 0 7 140
10 400 10 l400 0 0 -30z m160 14 c0 -8 -6 -22 -14 -30 -21 -21 -46 -17 -46 6
0 11 -4 20 -10 20 -5 0 -10 5 -10 10 0 6 18 10 40 10 30 0 40 -4 40 -16z
m2180 6 c0 -6 57 -10 150 -10 83 0 150 -3 150 -6 0 -3 -6 -12 -14 -20 -16 -16
-86 -19 -86 -4 0 6 -70 10 -190 10 -120 0 -190 4 -190 10 0 6 -13 10 -30 10
-16 0 -30 5 -30 10 0 6 47 10 120 10 73 0 120 -4 120 -10z m-4860 -50 l0 -40
-60 0 c-33 0 -60 -4 -60 -10 0 -6 -30 -10 -70 -10 -40 0 -70 -4 -70 -10 0 -6
-50 -10 -130 -10 -80 0 -130 -4 -130 -10 0 -6 -130 -10 -370 -10 -240 0 -370
-4 -370 -10 0 -5 -13 -10 -30 -10 -21 0 -30 5 -30 16 0 30 27 44 84 44 31 0
56 5 56 10 0 6 80 10 220 10 140 0 220 4 220 10 0 6 53 10 140 10 87 0 140 4
140 10 0 6 40 10 100 10 60 0 100 4 100 10 0 6 30 10 70 10 40 0 70 4 70 10 0
6 27 10 60 10 l60 0 0 -40z m126 26 c21 -21 17 -46 -6 -46 -13 0 -20 7 -20 20
0 13 -7 20 -20 20 -16 0 -20 -7 -20 -30 0 -16 -3 -30 -6 -30 -10 0 -34 28 -34
40 0 36 76 55 106 26z m5094 -2 c0 -15 -23 -44 -34 -44 -3 0 -6 14 -6 30 0 23
4 30 20 30 12 0 20 -7 20 -16z m46 2 c19 -20 18 -26 -6 -26 -13 0 -20 7 -20
20 0 24 6 25 26 6z m-6846 -76 c0 -6 27 -10 60 -10 l60 0 0 -30 0 -30 -110 0
-110 0 0 40 0 40 50 0 c28 0 50 -4 50 -10z m190 -30 c8 -11 18 -20 22 -20 4 0
8 9 8 20 0 13 7 20 20 20 11 0 20 -2 20 -5 0 -15 -52 -55 -70 -55 -25 0 -50
22 -50 44 0 23 33 20 50 -4z"/>
<path d="M4200 2050 c0 -11 -4 -20 -10 -20 -5 0 -10 -13 -10 -30 0 -16 -4 -30
-10 -30 -15 0 -12 -49 4 -66 17 -16 66 -19 66 -4 0 6 -13 10 -30 10 -27 0 -30
3 -30 30 0 17 5 30 10 30 6 0 10 14 10 30 0 17 5 30 10 30 6 0 10 9 10 20 0
11 -4 20 -10 20 -5 0 -10 -9 -10 -20z"/>
<path d="M4120 2020 c0 -23 4 -30 20 -30 16 0 20 7 20 30 0 23 -4 30 -20 30
-16 0 -20 -7 -20 -30z"/>
<path d="M4300 2010 c0 -43 4 -47 26 -26 22 23 18 66 -6 66 -17 0 -20 -7 -20
-40z"/>
<path d="M4020 1880 c0 -40 4 -70 10 -70 6 0 10 30 10 70 0 40 -4 70 -10 70
-6 0 -10 -30 -10 -70z"/>
<path d="M4220 1820 c0 -5 18 -10 40 -10 22 0 40 5 40 10 0 6 -18 10 -40 10
-22 0 -40 -4 -40 -10z"/>
<path d="M5620 1820 c0 -5 9 -10 20 -10 11 0 20 5 20 10 0 6 -9 10 -20 10 -11
0 -20 -4 -20 -10z"/>
<path d="M2840 1630 c0 -11 5 -20 10 -20 6 0 10 9 10 20 0 11 -4 20 -10 20 -5
0 -10 -9 -10 -20z"/>
<path d="M5243 1405 c-24 -25 -31 -55 -13 -55 6 0 10 8 10 18 0 10 9 24 20 32
20 14 27 31 13 29 -5 0 -18 -11 -30 -24z"/>
<path d="M3020 1574 c0 -20 29 -49 38 -39 4 4 1 10 -5 12 -7 3 -13 13 -13 24
0 10 -4 19 -10 19 -5 0 -10 -7 -10 -16z"/>
<path d="M3073 1495 c-18 -20 -16 -25 7 -25 13 0 20 7 20 20 0 23 -10 25 -27
5z"/>
<path d="M2780 1420 c0 -5 9 -10 19 -10 11 0 21 -6 24 -12 2 -7 8 -10 12 -6
10 9 -19 38 -39 38 -9 0 -16 -4 -16 -10z"/>
<path d="M2500 1320 c0 -5 9 -10 20 -10 11 0 20 5 20 10 0 6 -9 10 -20 10 -11
0 -20 -4 -20 -10z"/>
<path d="M6000 1640 c0 -5 5 -10 10 -10 6 0 10 5 10 10 0 6 -4 10 -10 10 -5 0
-10 -4 -10 -10z"/>
<path d="M7000 1600 c0 -5 5 -10 10 -10 6 0 10 5 10 10 0 6 -4 10 -10 10 -5 0
-10 -4 -10 -10z"/>
<path d="M6780 1040 c0 -5 5 -10 10 -10 6 0 10 5 10 10 0 6 -4 10 -10 10 -5 0
-10 -4 -10 -10z"/>
<path d="M6880 960 c0 -5 5 -10 10 -10 6 0 10 5 10 10 0 6 -4 10 -10 10 -5 0
-10 -4 -10 -10z"/>
<path d="M6980 860 c0 -5 9 -10 20 -10 11 0 20 5 20 10 0 6 -9 10 -20 10 -11
0 -20 -4 -20 -10z"/>
<path d="M7080 800 c0 -5 5 -10 10 -10 6 0 10 5 10 10 0 6 -4 10 -10 10 -5 0
-10 -4 -10 -10z"/>
<path d="M4420 770 c0 -24 6 -25 26 -6 19 20 18 26 -6 26 -13 0 -20 -7 -20
-20z"/>
<path d="M5620 1040 c0 -5 5 -10 10 -10 6 0 10 5 10 10 0 6 -4 10 -10 10 -5 0
-10 -4 -10 -10z"/>
<path d="M5680 960 c0 -5 5 -10 10 -10 6 0 10 5 10 10 0 6 -4 10 -10 10 -5 0
-10 -4 -10 -10z"/>
<path d="M5760 860 c0 -5 9 -10 20 -10 11 0 20 5 20 10 0 6 -9 10 -20 10 -11
0 -20 -4 -20 -10z"/>
<path d="M2120 960 c0 -5 5 -10 10 -10 6 0 10 5 10 10 0 6 -4 10 -10 10 -5 0
-10 -4 -10 -10z"/>
<path d="M2100 860 c0 -5 5 -10 10 -10 6 0 10 5 10 10 0 6 -4 10 -10 10 -5 0
-10 -4 -10 -10z"/>
<path d="M2060 790 c0 -11 5 -20 10 -20 6 0 10 9 10 20 0 11 -4 20 -10 20 -5
0 -10 -9 -10 -20z"/>
<path d="M2040 700 c0 -5 5 -10 10 -10 6 0 10 5 10 10 0 6 -4 10 -10 10 -5 0
-10 -4 -10 -10z"/>
<path d="M3240 920 c0 -5 5 -10 10 -10 6 0 10 5 10 10 0 6 -4 10 -10 10 -5 0
-10 -4 -10 -10z"/>
<path d="M3260 860 c0 -5 5 -10 10 -10 6 0 10 5 10 10 0 6 -4 10 -10 10 -5 0
-10 -4 -10 -10z"/>
<path d="M3260 760 c0 -5 5 -10 10 -10 6 0 10 5 10 10 0 6 -4 10 -10 10 -5 0
-10 -4 -10 -10z"/>
<path d="M2900 2640 c0 -5 -22 -10 -50 -10 -27 0 -50 -4 -50 -10 0 -5 -9 -10
-20 -10 -11 0 -20 -4 -20 -10 0 -5 -7 -10 -15 -10 -9 0 -27 -11 -40 -25 -32
-31 -34 -84 -5 -105 11 -8 20 -22 20 -32 0 -10 5 -18 10 -18 6 0 10 -9 10 -20
0 -11 5 -20 10 -20 6 0 10 -18 10 -40 0 -22 5 -40 10 -40 6 0 10 21 10 46 0
64 14 74 100 74 71 0 100 -12 100 -40 0 -7 14 -25 30 -40 17 -15 30 -33 30
-40 0 -20 27 -40 54 -40 19 0 26 -5 26 -20 0 -11 5 -20 10 -20 6 0 10 -13 10
-30 0 -16 -4 -30 -10 -30 -5 0 -10 -9 -10 -20 0 -13 -7 -20 -20 -20 -11 0 -20
-4 -20 -10 0 -5 9 -10 20 -10 11 0 20 5 20 10 0 6 9 10 20 10 13 0 20 7 20 20
0 11 5 20 10 20 6 0 10 9 10 20 0 11 5 20 10 20 6 0 10 9 10 20 0 17 7 20 50
20 49 0 50 1 50 30 0 17 5 30 10 30 18 0 11 35 -10 50 -11 8 -20 20 -20 28 0
7 -27 40 -60 72 -33 32 -60 64 -60 70 0 17 26 40 44 40 9 0 16 5 16 10 0 18
-35 11 -50 -10 -15 -21 -50 -28 -50 -10 0 6 -7 10 -16 10 -9 0 -29 14 -44 30
-15 17 -35 30 -44 30 -9 0 -16 5 -16 10 0 6 -9 10 -20 10 -11 0 -20 5 -20 10
0 6 -13 10 -30 10 -16 0 -30 -4 -30 -10z"/>
<path d="M6720 2520 l0 -50 -50 0 c-27 0 -50 5 -50 10 0 18 -35 11 -50 -10 -8
-11 -20 -20 -27 -20 -19 0 -103 -86 -103 -105 0 -8 -4 -15 -10 -15 -5 0 -10
-11 -10 -25 0 -26 59 -95 80 -95 17 0 40 -26 40 -44 0 -9 8 -16 20 -16 11 0
20 5 20 10 0 6 -4 10 -10 10 -15 0 -12 49 4 66 8 8 22 14 30 14 9 0 16 5 16
10 0 6 9 10 20 10 11 0 20 5 20 10 0 6 27 10 60 10 33 0 60 -4 60 -10 0 -5 14
-10 30 -10 17 0 30 -4 30 -10 0 -5 21 -10 46 -10 47 0 74 -16 74 -44 0 -9 5
-16 10 -16 6 0 10 5 10 10 0 6 5 10 10 10 15 0 12 -58 -2 -63 -7 -2 -10 -8 -6
-12 5 -5 16 2 27 13 10 12 26 22 35 22 11 0 16 9 16 30 0 17 5 30 10 30 6 0
10 14 10 30 0 17 -4 30 -10 30 -5 0 -10 9 -10 20 0 11 -4 20 -10 20 -5 0 -10
9 -10 20 0 11 -4 20 -10 20 -5 0 -10 9 -10 20 0 11 -4 20 -10 20 -5 0 -10 7
-10 16 0 35 -25 44 -130 44 -115 0 -130 7 -130 64 0 20 -4 36 -10 36 -5 0 -10
-22 -10 -50z m280 -270 c0 -24 -6 -25 -26 -6 -19 20 -18 26 6 26 13 0 20 -7
20 -20z"/>
<path d="M2900 2220 c0 -27 3 -50 6 -50 16 0 34 33 34 64 0 29 -4 36 -20 36
-17 0 -20 -7 -20 -50z"/>
<path d="M5600 2230 c0 -22 -4 -40 -10 -40 -5 0 -10 -9 -10 -20 0 -11 -4 -20
-10 -20 -5 0 -10 -13 -10 -30 0 -27 3 -30 30 -30 17 0 30 -4 30 -10 0 -5 9
-10 20 -10 11 0 20 5 20 10 0 6 -9 10 -20 10 -11 0 -20 5 -20 10 0 6 -9 10
-20 10 -13 0 -20 7 -20 20 0 11 5 20 10 20 6 0 10 9 10 20 0 11 5 20 10 20 6
0 10 18 10 40 0 22 -4 40 -10 40 -5 0 -10 -18 -10 -40z"/>
<path d="M6680 2264 c0 -11 29 -34 44 -34 9 0 16 -4 16 -10 0 -5 18 -10 40
-10 22 0 40 -4 40 -10 0 -5 23 -10 50 -10 28 0 50 5 50 10 0 6 -22 10 -50 10
-27 0 -50 5 -50 10 0 6 -18 10 -40 10 -22 0 -40 5 -40 10 0 6 -9 10 -20 10
-11 0 -20 5 -20 10 0 6 -4 10 -10 10 -5 0 -10 -3 -10 -6z"/>
<path d="M3040 2230 c0 -12 7 -20 16 -20 8 0 23 -7 31 -16 14 -13 14 -17 2
-24 -7 -5 -10 -12 -7 -16 4 -3 15 2 25 12 13 12 14 19 5 22 -6 2 -12 12 -12
23 0 12 -7 19 -20 19 -11 0 -20 5 -20 10 0 6 -4 10 -10 10 -5 0 -10 -9 -10
-20z"/>
<path d="M5513 2235 c-7 -8 -13 -26 -13 -40 0 -21 5 -25 30 -25 26 0 30 4 30
26 0 14 -6 32 -14 40 -17 17 -18 17 -33 -1z"/>
<path d="M5680 2204 c0 -14 7 -32 15 -40 13 -14 17 -14 30 0 19 18 19 33 1 52
-23 23 -46 17 -46 -12z"/>
<path d="M6770 2153 c-10 -12 -11 -18 -2 -21 7 -2 12 -12 12 -23 0 -12 7 -19
20 -19 24 0 28 43 6 66 -18 17 -18 17 -36 -3z"/>
<path d="M6580 2080 c0 -27 3 -30 30 -30 17 0 30 5 30 10 0 6 -4 10 -10 10 -5
0 -10 9 -10 20 0 13 -7 20 -20 20 -16 0 -20 -7 -20 -30z"/>
<path d="M5600 2020 c0 -5 14 -10 30 -10 17 0 30 5 30 10 0 6 -13 10 -30 10
-16 0 -30 -4 -30 -10z"/>
<path d="M2880 2000 c0 -5 14 -10 30 -10 17 0 30 5 30 10 0 6 -13 10 -30 10
-16 0 -30 -4 -30 -10z"/>
<path d="M6863 1985 c-21 -22 -31 -55 -18 -55 13 0 55 50 55 65 0 21 -11 18
-37 -10z"/>
<path d="M520 1980 c0 -5 18 -10 40 -10 22 0 40 5 40 10 0 6 -18 10 -40 10
-22 0 -40 -4 -40 -10z"/>
<path d="M7280 1240 c0 -5 18 -10 40 -10 22 0 40 5 40 10 0 6 -18 10 -40 10
-22 0 -40 -4 -40 -10z"/>
<path d="M7260 1160 c0 -5 23 -10 50 -10 28 0 50 5 50 10 0 6 -22 10 -50 10
-27 0 -50 -4 -50 -10z"/>
<path d="M7980 1060 c0 -5 5 -10 10 -10 6 0 10 5 10 10 0 6 -4 10 -10 10 -5 0
-10 -4 -10 -10z"/>
<path d="M8140 960 c0 -5 5 -10 10 -10 6 0 10 5 10 10 0 6 -4 10 -10 10 -5 0
-10 -4 -10 -10z"/>
<path d="M8280 860 c0 -5 5 -10 10 -10 6 0 10 5 10 10 0 6 -4 10 -10 10 -5 0
-10 -4 -10 -10z"/>
<path d="M8440 760 c0 -5 5 -10 10 -10 6 0 10 5 10 10 0 6 -4 10 -10 10 -5 0
-10 -4 -10 -10z"/>
<path d="M8540 680 c0 -5 18 -10 40 -10 22 0 40 5 40 10 0 6 -18 10 -40 10
-22 0 -40 -4 -40 -10z"/>
<path d="M3080 500 c0 -6 -80 -10 -220 -10 -140 0 -220 -4 -220 -10 0 -6 -30
-10 -70 -10 -40 0 -70 -4 -70 -10 0 -6 -50 -10 -130 -10 -80 0 -130 -4 -130
-10 0 -6 -133 -10 -380 -10 -247 0 -380 -4 -380 -10 0 -6 -27 -10 -60 -10 -33
0 -60 -4 -60 -10 0 -5 -22 -10 -50 -10 -27 0 -50 -4 -50 -10 0 -6 -40 -10
-100 -10 -60 0 -100 -4 -100 -10 0 -6 -33 -10 -80 -10 -47 0 -80 -4 -80 -10 0
-6 -60 -10 -160 -10 -100 0 -160 -4 -160 -10 0 -5 -18 -10 -40 -10 -22 0 -40
-4 -40 -10 0 -5 18 -10 40 -10 22 0 40 5 40 10 0 6 63 10 170 10 107 0 170 4
170 10 0 6 33 10 80 10 47 0 80 4 80 10 0 6 40 10 100 10 60 0 100 4 100 10 0
6 18 10 40 10 22 0 40 5 40 10 0 6 33 10 80 10 47 0 80 4 80 10 0 7 150 10
430 10 280 0 430 3 430 10 0 6 33 10 80 10 47 0 80 4 80 10 0 6 30 10 70 10
40 0 70 4 70 10 0 6 80 10 220 10 140 0 220 4 220 10 0 6 70 10 190 10 120 0
190 -4 190 -10 0 -7 150 -10 430 -10 280 0 430 3 430 10 0 7 140 10 400 10
260 0 400 -3 400 -10 0 -6 83 -10 230 -10 147 0 230 -4 230 -10 0 -6 83 -10
230 -10 147 0 230 4 230 10 0 6 107 10 300 10 193 0 300 -4 300 -10 0 -6 47
-10 120 -10 73 0 120 4 120 10 0 7 223 10 650 10 427 0 650 -3 650 -10 0 -6
57 -10 150 -10 93 0 150 -4 150 -10 0 -6 53 -10 140 -10 87 0 140 4 140 10 0
6 14 10 30 10 17 0 30 5 30 10 0 6 -27 10 -60 10 -33 0 -60 -4 -60 -10 0 -6
-33 -10 -80 -10 -47 0 -80 4 -80 10 0 6 -30 10 -70 10 -40 0 -70 4 -70 10 0 7
-190 10 -550 10 -360 0 -550 3 -550 10 0 6 -30 10 -70 10 -40 0 -70 -4 -70
-10 0 -6 -57 -10 -150 -10 -93 0 -150 -4 -150 -10 0 -6 -37 -10 -90 -10 -53 0
-90 4 -90 10 0 6 -120 10 -340 10 -220 0 -340 -4 -340 -10 0 -6 -63 -10 -170
-10 -107 0 -170 4 -170 10 0 6 -90 10 -250 10 -160 0 -250 4 -250 10 0 7 -183
10 -530 10 -347 0 -530 -3 -530 -10 0 -6 -93 -10 -260 -10 -167 0 -260 4 -260
10 0 6 -97 10 -270 10 -173 0 -270 -4 -270 -10z"/>
<path d="M440 280 c0 -5 9 -10 20 -10 11 0 20 5 20 10 0 6 -9 10 -20 10 -11 0
-20 -4 -20 -10z"/>
<path d="M6540 80 c0 -6 -70 -10 -190 -10 -120 0 -190 -4 -190 -10 0 -7 -603
-10 -1790 -10 -1187 0 -1790 -3 -1790 -10 0 -6 -37 -10 -90 -10 -51 0 -90 -4
-90 -10 0 -5 -48 -11 -107 -13 -60 -2 -7 -2 117 0 131 2 226 8 228 13 5 14
1262 13 1262 0 0 -6 93 -10 260 -10 167 0 260 4 260 10 0 6 33 10 80 10 47 0
80 -4 80 -10 0 -5 9 -10 20 -10 11 0 20 5 20 10 0 7 273 10 800 10 527 0 800
3 800 10 0 6 113 10 320 10 207 0 320 4 320 10 0 6 47 10 120 10 73 0 120 -4
120 -10 0 -7 177 -10 510 -10 333 0 510 -3 510 -10 0 -6 97 -10 270 -10 173 0
270 4 270 10 0 6 -87 10 -240 10 -153 0 -240 4 -240 10 0 6 -123 10 -350 10
-227 0 -350 4 -350 10 0 7 -163 10 -470 10 -307 0 -470 -3 -470 -10z"/>
<path d="M7608 3 c6 -2 18 -2 25 0 6 3 1 5 -13 5 -14 0 -19 -2 -12 -5z"/>
</g>
</svg>
