<?xml version="1.0" standalone="no"?>
<!DOCTYPE svg PUBLIC "-//W3C//DTD SVG 20010904//EN"
 "http://www.w3.org/TR/2001/REC-SVG-20010904/DTD/svg10.dtd">
<svg version="1.0" xmlns="http://www.w3.org/2000/svg"
 width="8000.000000pt" height="3175.000000pt" viewBox="0 0 8000.000000 3175.000000"
 preserveAspectRatio="xMidYMid meet">

<g transform="translate(0.000000,3175.000000) scale(0.100000,-0.100000)"
fill="#000000" stroke="none">
<path d="M41303 31739 c-124 -9 -242 -30 -390 -69 -650 -172 -1243 -682 -1573
-1355 -194 -394 -269 -715 -257 -1099 6 -186 21 -281 68 -426 26 -77 111 -285
146 -354 l25 -49 -55 -56 c-151 -156 -246 -327 -300 -540 -18 -72 -21 -114
-21 -256 1 -157 3 -179 32 -288 59 -226 169 -416 340 -587 l105 -105 63 -152
c355 -851 776 -1547 1227 -2030 96 -104 105 -117 110 -160 3 -27 17 -101 31
-167 68 -323 57 -689 -30 -1006 -15 -52 -30 -99 -35 -104 -4 -5 -67 3 -146 18
-309 60 -431 71 -788 71 -353 0 -430 -7 -690 -61 -699 -146 -1349 -502 -2084
-1141 -195 -169 -736 -711 -946 -948 -636 -717 -1282 -1561 -2036 -2660 -334
-486 -378 -555 -394 -608 -32 -114 -224 -1991 -295 -2889 -26 -329 -26 -492
-1 -640 103 -597 468 -1048 1111 -1372 783 -395 1235 -446 1528 -172 l67 62
990 -306 990 -306 -5 -429 c-3 -237 -5 -689 -5 -1005 1 -599 7 -708 44 -815
89 -253 404 -354 627 -202 65 44 135 139 159 212 22 70 23 104 7 410 -9 156
-10 367 -6 657 l7 427 80 -112 c102 -143 219 -289 258 -322 71 -59 113 -74
434 -150 710 -170 1318 -327 1845 -475 135 -38 266 -72 291 -75 150 -22 338
84 408 229 16 32 632 2260 702 2536 33 134 -26 312 -134 405 -64 55 -114 74
-360 137 -204 52 -1311 345 -1787 473 -117 32 -203 49 -260 52 -82 5 -90 3
-235 -46 -82 -29 -321 -101 -530 -161 -209 -60 -406 -118 -439 -129 l-58 -21
-77 22 c-42 12 -79 24 -82 27 -7 6 -24 834 -39 1966 -16 1168 -29 1951 -36
2100 l-5 140 119 58 c295 143 592 381 787 631 82 106 180 267 221 362 16 38
48 106 71 152 72 139 73 149 73 481 0 336 -13 787 -35 1226 -20 390 -73 1302
-80 1384 l-6 64 83 -7 c89 -7 271 -33 301 -42 14 -5 18 -12 13 -32 -5 -26 29
-2568 37 -2769 4 -88 9 -111 37 -172 59 -127 189 -225 319 -240 64 -7 3271 14
3373 22 186 15 352 181 365 364 3 38 -4 169 -16 293 -62 664 -98 1347 -108
2020 l-6 445 124 -8 c68 -5 128 -13 133 -17 4 -5 46 -637 92 -1405 87 -1460
88 -1473 145 -1649 158 -482 628 -931 1199 -1145 l105 -39 0 -3654 c1 -2840 3
-3665 13 -3707 41 -181 174 -311 350 -342 158 -28 352 66 424 205 53 103 50
-77 48 2601 l-1 2480 57 45 c158 126 189 149 261 187 212 113 537 199 833 219
l100 7 0 -26 c0 -14 -13 -193 -30 -399 -16 -205 -66 -854 -110 -1443 -94
-1250 -140 -1837 -179 -2281 -31 -351 -30 -396 14 -492 30 -65 110 -150 173
-185 27 -15 78 -34 113 -43 213 -55 443 88 494 306 23 97 81 813 265 3270 64
847 95 1229 101 1235 9 8 231 -46 343 -85 61 -21 149 -57 196 -79 46 -23 90
-41 97 -41 17 0 18 5 -22 -127 -186 -613 -305 -1357 -345 -2152 -13 -259 -13
-847 0 -926 19 -117 93 -228 193 -292 l43 -28 -37 -470 c-21 -258 -42 -501
-48 -539 -37 -225 -207 -434 -414 -506 -28 -10 -871 -193 -1872 -406 l-1820
-387 -405 -3 c-780 -6 -1146 -40 -1525 -139 -326 -85 -603 -206 -850 -370
-359 -239 -573 -497 -652 -787 -17 -62 -25 -300 -13 -372 l5 -29 -367 -123
-366 -122 -33 45 c-338 472 -1201 770 -2597 899 l-174 16 -85 72 c-46 40 -132
101 -191 136 -406 240 -632 403 -906 655 -211 195 -393 407 -718 841 -212 282
-292 377 -424 503 -270 258 -710 479 -1115 560 -509 102 -987 15 -1424 -257
l-80 -50 -53 81 c-29 45 -77 123 -107 173 -100 167 -200 235 -361 242 -146 7
-155 3 -569 -269 l-369 -241 -106 26 c-267 66 -589 59 -901 -20 -150 -37 -260
-79 -433 -166 -113 -57 -157 -74 -152 -62 15 39 87 296 120 429 98 397 159
792 187 1228 15 232 6 797 -15 1017 -99 993 -392 1905 -884 2750 -288 494
-638 947 -1058 1366 l-221 221 61 86 c33 47 79 106 101 131 l40 46 120 -59
c150 -74 322 -134 485 -168 108 -23 150 -27 305 -27 160 0 192 3 292 26 476
112 833 433 1147 1030 l66 124 102 38 c584 214 912 691 858 1248 -12 127 -54
314 -95 423 -28 72 -27 104 7 239 26 108 77 235 160 398 l69 136 48 11 c234
50 405 233 483 516 29 104 35 319 14 465 -66 455 -277 944 -579 1345 -151 200
-389 445 -577 596 -541 433 -1227 714 -1989 814 -63 8 -115 16 -116 17 -1 2
-31 62 -67 133 -189 383 -445 684 -762 896 -454 305 -997 385 -1476 217 -587
-207 -975 -827 -875 -1401 18 -106 80 -284 129 -371 116 -208 320 -399 498
-468 32 -13 57 -26 56 -30 -2 -3 -43 -33 -93 -65 -565 -371 -927 -1048 -929
-1738 -1 -197 13 -309 59 -490 117 -455 394 -877 760 -1156 l93 -71 -19 -43
c-83 -187 -244 -394 -427 -548 -155 -130 -387 -271 -443 -269 -37 1 -234 54
-367 99 -155 52 -358 134 -713 288 -506 220 -745 309 -1014 378 -698 180
-1291 92 -1889 -280 -301 -187 -619 -462 -1022 -883 -748 -781 -1369 -1578
-1924 -2470 -580 -933 -867 -1625 -1004 -2423 -53 -308 -72 -691 -45 -935 25
-233 92 -482 181 -672 129 -277 601 -938 1012 -1420 566 -662 1253 -1322 1900
-1824 69 -54 126 -99 126 -100 0 -1 -14 -42 -30 -92 -247 -723 -496 -1669
-654 -2479 -81 -418 -177 -1025 -217 -1375 -13 -117 -23 -141 -33 -80 -13 82
-89 289 -155 425 -118 240 -259 432 -470 638 -67 65 -121 120 -121 123 0 2 13
10 29 18 47 25 120 105 151 166 41 82 57 174 42 253 -33 179 -169 315 -346
348 -45 8 -82 7 -169 -6 -132 -19 -414 -75 -547 -109 -52 -13 -96 -22 -98 -21
-2 2 -59 182 -127 402 -537 1740 -1123 3443 -1580 4593 -334 840 -601 1412
-840 1799 -294 475 -808 910 -1420 1201 -682 325 -1443 494 -2637 586 -49 3
-88 11 -88 16 0 5 -7 68 -15 141 -18 162 -35 429 -35 558 l0 97 113 75 c791
527 1305 1353 1476 2372 24 142 51 391 51 470 0 54 1 57 64 125 245 267 359
644 300 990 -49 282 -202 554 -409 723 l-62 51 18 54 c36 106 51 204 51 337 0
149 -17 245 -67 379 l-33 89 28 86 c46 137 61 225 67 391 12 320 -69 615 -237
866 -67 100 -242 276 -340 341 -214 143 -442 219 -690 230 -110 5 -272 -7
-314 -23 -10 -4 -15 16 -20 83 -10 130 -41 245 -95 358 -162 339 -477 558
-885 614 -112 16 -331 13 -455 -4 -288 -42 -593 -151 -1016 -362 l-169 -85
-101 18 c-143 27 -375 25 -512 -5 -283 -59 -518 -185 -713 -381 -163 -163
-276 -345 -354 -569 -61 -175 -79 -282 -83 -490 l-3 -185 -80 -42 c-309 -160
-542 -489 -605 -853 -17 -97 -19 -288 -4 -381 5 -36 25 -110 44 -165 l34 -100
-37 -29 c-131 -105 -272 -277 -346 -424 -102 -203 -147 -486 -112 -712 42
-275 153 -499 343 -690 l94 -95 14 -155 c82 -908 371 -1660 866 -2250 170
-203 431 -441 621 -567 36 -25 69 -54 72 -66 14 -48 18 -326 7 -439 -11 -108
-44 -295 -54 -304 -2 -3 -109 -13 -238 -24 -1157 -99 -1861 -267 -2519 -601
-387 -196 -684 -411 -965 -700 -270 -277 -455 -547 -656 -954 -128 -261 -192
-413 -359 -860 -535 -1430 -1195 -3415 -1635 -4920 -38 -126 -68 -231 -69
-231 -1 -1 -48 7 -106 17 -58 10 -153 21 -212 25 -132 9 -211 -9 -297 -67
-188 -125 -242 -383 -120 -567 16 -24 29 -44 29 -46 0 -2 -59 -43 -131 -91
-682 -454 -1115 -1124 -1200 -1855 -17 -151 -6 -446 21 -575 62 -294 183 -528
365 -710 229 -230 514 -346 850 -346 383 -1 730 147 988 422 l86 91 88 -11
c123 -15 408 -13 533 3 289 39 584 139 816 275 l89 53 70 -22 70 -22 77 -231
c436 -1318 1032 -2265 1714 -2723 127 -85 350 -194 486 -238 880 -286 4366
-446 6558 -300 770 51 1370 144 1685 262 529 198 1071 644 1528 1256 311 417
614 959 882 1579 37 87 71 156 74 154 77 -43 256 -119 356 -152 278 -92 540
-121 820 -94 l111 11 100 -99 c180 -178 363 -254 609 -254 192 0 341 37 555
138 341 161 618 424 786 749 l46 89 -6 -115 c-40 -742 -38 -1583 4 -2280 20
-328 50 -647 66 -701 57 -196 265 -326 463 -290 170 32 292 143 337 307 16 61
17 80 6 213 -56 683 -67 949 -67 1646 0 740 17 1115 81 1785 123 1297 387
2604 776 3835 33 105 61 191 63 193 1 2 43 -21 91 -51 575 -347 1097 -559
1534 -623 194 -28 315 -6 418 76 68 53 109 121 182 301 l63 156 106 -44 c564
-238 1091 -439 1598 -610 l222 -75 -44 -53 c-70 -87 -89 -148 -88 -290 5 -741
505 -1764 1291 -2639 111 -123 305 -306 380 -358 98 -68 250 -91 360 -54 30
10 139 70 244 133 104 63 192 113 194 110 3 -2 -14 -890 -37 -1973 -33 -1579
-39 -1981 -29 -2028 47 -236 280 -382 514 -321 137 36 255 152 296 290 8 28
23 600 50 1860 22 1001 39 1859 40 1907 l0 86 80 -34 c352 -153 758 -108 1087
118 94 65 237 214 297 310 146 236 203 513 161 791 -23 152 -94 345 -160 433
l-24 31 137 94 c75 52 141 97 146 101 8 4 11 -48 11 -165 0 -204 4 -220 120
-457 286 -583 711 -1083 1285 -1511 1453 -1083 3645 -1486 5485 -1009 1336
346 2353 1110 2910 2184 134 257 260 584 331 856 15 58 32 110 38 116 19 20
1405 476 1429 471 12 -2 155 -39 317 -80 729 -187 1117 -252 1354 -228 375 39
771 171 995 332 l85 61 200 -14 c254 -17 1110 -17 1371 0 1150 74 2187 250
3138 533 93 28 171 48 174 46 3 -3 -9 -185 -26 -404 -137 -1773 -190 -3505
-120 -3942 14 -88 54 -166 119 -232 69 -69 139 -103 263 -125 l97 -17 0 -96
c0 -53 5 -339 11 -635 9 -498 12 -544 30 -599 61 -181 227 -295 414 -284 121
7 185 35 271 121 53 53 77 86 95 131 l24 60 -3 578 c-3 435 -1 577 8 577 6 0
98 -11 203 -24 702 -90 1270 -121 2062 -113 868 9 1534 67 2379 208 131 21
240 38 241 37 1 -2 25 -283 54 -625 55 -673 56 -676 123 -778 44 -66 135 -130
220 -156 146 -45 319 -1 416 105 22 24 43 41 46 38 3 -3 6 -22 6 -43 0 -20 9
-68 21 -105 78 -257 330 -481 606 -539 81 -17 242 -19 313 -4 28 6 53 9 56 6
3 -2 -7 -44 -21 -92 -77 -265 -37 -534 109 -739 60 -84 180 -195 264 -246 407
-241 923 -145 1286 241 325 346 632 1143 901 2344 234 1040 580 3419 754 5185
83 841 121 1479 101 1699 -40 436 -306 1489 -656 2593 -52 164 -106 329 -120
368 l-25 71 23 19 c13 11 26 19 30 20 19 1 100 129 118 187 32 104 27 159 -44
458 -523 2202 -1259 3765 -2251 4784 -183 187 -364 348 -550 488 -77 58 -141
106 -142 107 -1 1 11 40 28 88 62 182 73 401 29 586 -11 46 -59 180 -106 298
-259 651 -415 1213 -709 2564 -279 1280 -410 1786 -607 2350 -520 1492 -1319
2346 -2514 2688 -399 114 -874 182 -1284 182 -940 1 -2085 -536 -2865 -1341
-492 -508 -750 -1062 -695 -1490 31 -244 130 -431 322 -614 89 -85 92 -87 132
-82 23 3 49 8 59 12 17 7 18 4 13 -36 -3 -24 -8 -152 -11 -284 -3 -132 -8
-289 -12 -350 l-6 -110 -54 -40 c-136 -98 -287 -294 -357 -460 -177 -423 -91
-869 229 -1190 118 -117 315 -242 428 -270 15 -4 27 -8 27 -9 0 -23 50 -265
75 -366 144 -573 425 -992 820 -1225 99 -59 161 -86 279 -124 160 -51 253 -65
441 -65 192 0 353 23 528 75 55 17 104 26 108 22 14 -14 58 -192 74 -298 15
-103 20 -288 9 -392 l-6 -59 -63 -22 c-176 -64 -506 -239 -720 -382 -626 -420
-1168 -1051 -1531 -1782 -32 -65 -61 -118 -64 -118 -3 0 -428 886 -945 1968
-1047 2192 -1220 2545 -1359 2777 -433 720 -963 1148 -1752 1415 -507 172
-972 248 -1864 305 l-95 7 -52 166 c-89 284 -147 559 -174 827 l-12 117 74 66
c557 491 1051 1248 1478 2267 l68 160 89 90 c330 331 421 800 234 1212 l-30
65 34 72 c163 344 230 940 151 1333 -24 119 -86 291 -136 378 -81 143 -218
270 -378 350 -158 79 -314 118 -781 195 -459 76 -680 153 -895 312 -33 25
-127 109 -210 188 -660 630 -1297 955 -1979 1010 -141 11 -172 11 -323 -1z
m2412 -1914 c258 -925 494 -1499 765 -1861 94 -124 247 -268 344 -323 44 -25
113 -55 155 -67 73 -20 77 -23 104 -70 24 -42 27 -58 25 -115 -4 -81 -40 -146
-108 -196 -145 -107 -165 -134 -249 -348 -221 -560 -511 -1114 -783 -1498
-385 -543 -792 -879 -1203 -994 -124 -34 -349 -43 -480 -18 -733 137 -1479
1034 -2070 2490 -96 236 -103 246 -291 412 -114 100 -169 238 -144 359 6 29
14 54 16 54 3 0 38 -29 78 -64 114 -99 221 -153 278 -141 40 9 175 140 237
230 61 88 133 236 189 390 23 61 64 173 92 250 109 294 223 494 364 637 117
119 99 114 273 84 780 -134 1325 -77 1701 176 245 165 430 431 569 818 18 52
36 102 39 110 7 17 4 25 99 -315z m8261 -5336 c251 -35 532 -176 714 -360 298
-300 626 -932 953 -1839 81 -225 194 -563 252 -755 l28 -90 -74 -69 c-484
-450 -1199 -909 -1654 -1061 -194 -65 -396 -83 -529 -49 -224 58 -419 283
-529 615 -46 135 -80 300 -122 581 -38 255 -54 301 -131 387 -31 34 -70 63
-120 88 -68 33 -84 37 -187 43 -86 5 -122 11 -153 28 -64 33 -100 68 -128 124
-36 71 -35 135 2 213 35 74 92 126 167 154 88 33 115 50 176 108 63 60 103
137 119 225 11 67 44 1114 38 1247 l-4 100 191 87 c294 135 478 196 660 223
87 12 242 13 331 0z m-9881 -967 c122 -25 278 -42 391 -42 166 0 396 35 552
85 42 13 77 23 79 22 1 -2 16 -75 33 -162 36 -186 56 -268 111 -457 21 -76 39
-141 39 -146 0 -11 -231 -56 -415 -82 -370 -50 -767 -53 -1167 -9 -60 7 -108
16 -108 20 0 4 11 50 25 101 54 199 95 476 95 634 0 45 3 94 6 110 l5 29 127
-42 c70 -22 172 -50 227 -61z m-13437 -173 c73 -36 113 -86 177 -221 55 -118
90 -224 105 -322 27 -178 -30 -336 -213 -595 -49 -69 -94 -132 -101 -140 -13
-17 -16 -19 114 67 111 74 335 186 471 236 111 41 294 88 424 110 553 94 1115
-1 1585 -266 89 -50 149 -90 334 -223 19 -14 18 -19 -37 -132 -193 -406 -275
-755 -238 -1014 7 -46 33 -145 58 -219 37 -110 46 -151 51 -232 5 -95 4 -100
-27 -163 -24 -47 -47 -78 -84 -107 -76 -60 -217 -124 -341 -153 -127 -30 -191
-60 -258 -122 -40 -38 -66 -81 -148 -245 -119 -237 -133 -263 -223 -396 -124
-184 -258 -300 -395 -342 -85 -27 -228 -27 -337 -1 -402 97 -901 509 -1200
991 -87 141 -198 377 -248 530 -93 280 -130 514 -130 820 0 358 60 676 183
975 100 242 103 275 52 475 -55 212 -54 353 5 465 55 107 158 214 234 244 50
20 123 13 187 -20z m-18526 -196 c213 -268 580 -453 899 -453 59 0 76 5 141
39 106 57 181 75 318 75 125 0 207 -16 316 -63 219 -94 379 -244 492 -460 134
-255 182 -487 182 -876 l0 -214 48 -8 c79 -13 260 -6 342 14 l75 19 55 -43
c125 -98 139 -114 176 -189 33 -65 37 -83 37 -147 0 -131 -56 -227 -186 -321
-70 -49 -101 -86 -139 -161 -36 -71 -48 -139 -48 -273 0 -311 -59 -678 -156
-977 -130 -398 -347 -758 -629 -1040 -560 -563 -1374 -821 -2165 -689 -661
111 -1236 498 -1605 1079 -80 127 -215 407 -270 558 -110 307 -179 661 -205
1047 -18 270 -40 380 -92 462 -39 63 -104 121 -175 157 -73 37 -114 80 -150
156 -25 54 -28 71 -28 165 0 94 3 111 28 165 36 77 79 122 147 152 30 14 67
34 82 44 28 20 28 20 81 1 79 -30 297 -72 297 -58 0 3 -10 41 -22 83 -18 64
-22 104 -22 218 -1 158 12 220 70 342 100 210 276 337 617 443 484 151 578
191 783 329 209 140 382 308 524 510 l64 90 34 -57 c19 -31 57 -85 84 -119z
m29092 -1110 c7 -81 58 -963 76 -1303 17 -334 29 -723 32 -1025 2 -329 0 -343
-76 -500 -143 -298 -497 -576 -846 -665 -115 -29 -150 -47 -305 -155 -570
-398 -1202 -920 -1695 -1401 l-165 -161 -59 103 c-197 345 -500 628 -862 804
-90 44 -291 117 -402 146 l-33 9 183 260 c1112 1576 2000 2604 2806 3247 312
249 633 448 934 580 89 38 370 137 394 138 8 0 14 -29 18 -77z m4390 -355 c11
-557 37 -1129 75 -1658 10 -135 18 -246 17 -247 -2 -2 -2390 -21 -2393 -19 -5
4 -35 2177 -30 2182 3 3 65 -4 139 -15 546 -86 1111 -88 1658 -6 121 18 371
68 445 89 90 26 81 58 89 -326z m2125 175 c495 -149 891 -401 1165 -743 123
-152 291 -423 416 -670 50 -98 1819 -3795 1817 -3796 -1 -1 -56 5 -122 14
-158 20 -780 23 -935 4 -355 -44 -688 -128 -917 -232 -36 -17 -69 -30 -72 -30
-3 0 -6 413 -6 917 l0 918 -23 55 c-65 160 -186 246 -376 270 -357 44 -751
300 -909 590 -20 36 -43 90 -51 120 -12 40 -36 389 -91 1312 -41 691 -75 1271
-75 1288 0 30 1 31 33 25 17 -4 83 -23 146 -42z m8490 -1552 c60 -247 143
-656 166 -816 21 -147 22 -233 6 -403 -15 -153 -6 -319 24 -447 7 -33 11 -62
8 -65 -11 -11 -422 -4 -508 9 -110 16 -338 63 -460 94 l-90 23 2 35 c8 129 5
440 -6 524 -20 158 -58 328 -108 478 -25 76 -44 139 -42 141 2 1 51 31 109 66
242 146 587 390 770 543 40 33 67 50 71 43 4 -6 30 -107 58 -225z m-30659
-261 c312 -39 527 -112 1230 -417 453 -197 669 -278 934 -354 77 -21 140 -40
141 -42 1 -1 25 -45 54 -97 219 -390 524 -761 831 -1007 136 -110 356 -256
493 -328 86 -46 107 -61 101 -74 -13 -33 -16 -161 -5 -208 7 -26 79 -199 161
-383 549 -1242 800 -1946 959 -2696 220 -1035 178 -2091 -137 -3469 l-27 -120
-80 -8 c-171 -16 -301 -67 -444 -174 -168 -126 -298 -193 -447 -230 -91 -22
-291 -22 -394 1 -228 50 -514 184 -985 461 -323 191 -518 301 -632 359 l-72
36 83 204 c98 239 111 286 103 371 -15 163 -118 300 -267 355 -183 68 -265
104 -435 190 -800 404 -1628 1082 -1982 1622 -161 245 -222 450 -223 743 0
210 37 387 114 551 63 132 116 206 233 320 82 80 109 114 135 170 31 64 33 76
33 175 0 101 -1 108 -38 181 -102 207 -344 291 -553 192 -161 -76 -417 -378
-548 -648 -145 -297 -210 -592 -210 -946 0 -584 180 -1027 629 -1550 466 -544
1207 -1119 1954 -1516 97 -52 183 -94 190 -94 7 0 11 -3 9 -8 -1 -4 -191 -479
-421 -1055 -231 -576 -423 -1050 -428 -1053 -21 -13 -244 68 -462 167 -327
149 -855 471 -967 590 -40 43 -75 67 -130 93 -80 37 -249 160 -499 364 -636
520 -1253 1142 -1778 1794 -270 334 -607 819 -687 988 -158 333 -152 833 16
1495 146 577 452 1199 994 2028 463 706 954 1324 1573 1981 584 620 988 918
1380 1017 150 38 338 49 501 29z m3889 -239 c140 -316 352 -637 604 -913 l113
-123 -64 -80 c-34 -44 -93 -124 -130 -178 -78 -115 -61 -112 -226 -32 -386
186 -694 452 -935 805 -32 47 -61 90 -64 97 -5 7 34 38 105 85 159 103 295
214 423 343 61 62 112 113 116 113 3 1 29 -52 58 -117z m30169 -1753 c551
-370 1052 -938 1467 -1663 408 -711 750 -1575 1030 -2601 77 -278 147 -555
143 -559 -7 -7 -233 -90 -357 -131 -268 -88 -700 -196 -896 -224 -69 -10 -172
-28 -267 -46 -26 -5 -28 -2 -47 63 -30 101 -64 250 -141 613 -165 781 -223
994 -336 1230 -52 108 -61 121 -156 213 -111 106 -185 151 -277 166 -31 5
-125 4 -222 -2 -93 -6 -171 -8 -174 -6 -2 3 6 225 20 495 47 957 65 1517 65
2104 l0 365 28 17 c15 9 31 17 35 17 4 1 43 -22 85 -51z m-4518 -142 c755
-210 1260 -235 1816 -92 l131 34 84 -33 c390 -156 909 -182 1434 -71 38 8 71
13 73 12 4 -5 -18 -1005 -29 -1296 -6 -157 -23 -528 -38 -825 l-26 -540 -90
-6 c-49 -4 -162 -7 -250 -8 -247 -2 -522 -20 -595 -39 -60 -16 -161 -17 -1220
-17 -781 0 -1265 4 -1495 13 -409 16 -624 27 -629 33 -8 8 141 716 265 1259
108 471 371 1520 404 1608 3 7 13 11 22 8 10 -3 74 -21 143 -40z m-1230 -752
c-302 -1233 -571 -2573 -791 -3938 -33 -204 -61 -372 -64 -374 -5 -5 -665 17
-723 24 l-43 5 6 157 c24 640 68 1059 161 1537 214 1096 639 1999 1229 2613
117 122 284 277 291 269 2 -2 -28 -134 -66 -293z m-13781 -1179 c6 -440 16
-1094 22 -1453 7 -359 9 -655 7 -658 -3 -2 -319 84 -703 193 l-697 198 5 70
c31 406 -278 832 -791 1088 l-110 55 89 105 89 105 47 -10 c60 -13 154 2 230
37 49 22 105 75 397 372 461 468 778 758 1216 1111 l175 141 7 -277 c3 -152
11 -637 17 -1077z m-3347 1081 c309 -79 590 -305 735 -590 19 -37 32 -73 30
-80 -3 -6 -121 -146 -262 -311 -142 -165 -262 -310 -268 -322 -7 -16 -16 -21
-31 -18 -115 27 -367 31 -510 10 -55 -8 -101 -13 -103 -11 -5 5 117 1220 133
1320 l6 39 87 -6 c47 -3 130 -17 183 -31z m-6107 -272 c405 -483 753 -1080
984 -1691 468 -1239 492 -2649 66 -3928 -47 -140 -112 -308 -211 -545 -17 -41
-29 -93 -33 -140 -5 -67 -9 -76 -32 -89 -25 -14 -28 -12 -110 56 -46 38 -111
88 -145 111 l-61 41 33 143 c144 613 235 1179 286 1778 20 240 17 987 -5 1215
-89 911 -337 1821 -802 2935 -59 140 -109 262 -112 270 -6 18 15 -4 142 -156z
m-19138 -180 c269 -70 544 -99 876 -91 293 7 552 42 776 107 44 12 51 3 51
-71 0 -76 26 -333 51 -504 31 -215 67 -374 99 -441 56 -115 169 -202 290 -224
30 -5 175 -18 323 -28 147 -11 270 -22 273 -24 3 -3 2 -310 -2 -683 l-7 -677
-141 6 c-78 4 -697 11 -1376 16 -679 5 -1484 13 -1787 16 l-553 7 0 26 c0 14
-7 94 -15 176 -17 189 -33 460 -49 870 -7 176 -12 321 -12 321 1 1 107 9 236
18 276 20 340 35 426 99 107 80 210 210 267 338 77 175 134 428 153 677 4 50
11 92 15 92 5 0 53 -11 106 -26z m-2033 -1356 c3 -35 10 -196 16 -358 12 -328
23 -524 46 -770 23 -256 63 -580 79 -636 21 -75 87 -167 153 -214 106 -76 130
-80 622 -90 239 -5 1022 -14 1740 -20 718 -5 1594 -15 1947 -21 589 -10 647
-9 700 6 82 23 132 55 196 124 84 91 101 144 101 306 0 72 2 473 4 893 l5 762
23 0 c38 0 379 -67 519 -102 l130 -33 6 -120 c34 -620 110 -4613 135 -7094 l7
-664 -64 6 c-157 17 -431 37 -629 47 -118 6 -242 13 -275 16 l-61 5 -11 52
c-16 68 -124 284 -207 415 -111 174 -214 300 -386 473 -247 248 -449 392 -755
540 -736 355 -1511 353 -2241 -6 -553 -272 -1002 -721 -1265 -1264 -44 -91
-86 -177 -93 -191 -9 -20 -20 -25 -56 -27 -423 -22 -835 -61 -1037 -99 l-32
-6 10 33 c12 44 12 116 0 269 -42 516 -38 3747 9 6225 11 596 26 1146 36 1347
l6 127 147 35 c80 19 207 46 281 60 74 14 144 27 155 29 11 3 23 5 27 6 3 0 9
-27 12 -61z m27391 -344 c291 -54 712 -218 878 -344 82 -62 157 -153 157 -189
0 -6 -21 -11 -47 -11 -70 0 -250 -26 -313 -45 -248 -75 -381 -263 -367 -520 6
-111 28 -198 106 -408 26 -73 47 -133 45 -135 -4 -6 -230 90 -378 162 -530
257 -757 577 -716 1011 26 287 147 466 333 495 64 10 196 3 302 -16z m-28869
-286 c-35 -1127 -50 -2559 -51 -4713 0 -2637 1 -2664 115 -2831 18 -25 30 -47
28 -48 -1 -2 -68 -22 -148 -46 -533 -155 -1082 -407 -1509 -693 -57 -38 -106
-65 -110 -60 -4 4 -46 67 -93 138 -296 445 -729 875 -1182 1174 -59 39 -129
83 -157 98 -27 16 -49 33 -49 38 0 16 202 699 209 708 9 9 170 -86 268 -159
77 -58 196 -173 363 -351 110 -117 155 -137 310 -138 100 0 109 2 173 33 86
43 156 113 199 199 31 64 33 73 33 178 0 104 -2 114 -32 175 -37 75 -190 257
-314 374 -181 171 -400 326 -612 435 -63 32 -120 60 -127 63 -15 5 -4 40 247
813 372 1148 962 2815 1163 3290 316 746 621 1131 1162 1470 57 36 107 65 112
65 5 0 6 -91 2 -212z m8686 95 c97 -56 284 -184 378 -260 117 -93 303 -283
372 -379 307 -430 763 -1470 1313 -2999 231 -641 805 -2339 805 -2381 0 -7
-33 -22 -72 -33 -351 -103 -667 -284 -906 -518 -100 -97 -145 -174 -162 -276
-24 -147 42 -304 164 -394 82 -61 174 -87 277 -80 111 7 184 43 292 144 105
97 204 167 324 227 92 46 236 99 305 111 l37 7 40 -129 c94 -302 131 -426 129
-427 -2 -1 -50 -22 -108 -46 -586 -243 -1223 -637 -1580 -976 -48 -46 -90 -84
-93 -84 -3 0 -77 47 -164 103 -388 254 -814 483 -1153 621 l-135 54 -7 459
c-3 252 -11 834 -17 1293 -32 2354 -75 4697 -107 5778 -4 122 -4 222 -1 222 3
0 34 -16 69 -37z m42298 -473 c0 -6 -24 -108 -54 -228 -674 -2691 -964 -5417
-836 -7847 34 -625 96 -1287 175 -1859 14 -99 22 -183 18 -187 -17 -14 -557
-94 -898 -133 -993 -114 -2025 -125 -3010 -30 -343 33 -859 102 -1140 154 -60
11 -110 20 -112 20 -7 0 -2 862 7 1125 77 2258 338 4964 716 7405 86 558 258
1567 268 1577 2 2 84 -1 182 -7 1158 -65 3367 -61 4424 9 177 12 260 12 260 1z
m770 -940 c102 -484 173 -753 245 -935 l37 -90 18 -650 c26 -889 42 -1402 105
-3405 30 -949 64 -2033 75 -2410 11 -377 22 -779 26 -895 l6 -210 -63 -42
c-131 -87 -378 -188 -675 -276 -196 -59 -403 -111 -410 -105 -6 7 -56 382 -88
668 -46 412 -78 812 -108 1355 -18 313 -18 1743 0 2075 77 1459 238 2729 527
4150 79 389 233 1075 240 1068 1 -2 31 -136 65 -298z m-21418 201 c18 -5 620
-177 1338 -380 718 -204 1327 -378 1354 -386 97 -30 178 -21 360 40 90 30 301
93 467 140 167 47 361 104 430 125 l125 40 110 -29 c904 -240 1481 -394 1490
-400 8 -4 -58 -261 -208 -811 -121 -443 -221 -807 -223 -808 -2 -2 -149 35
-327 82 -282 76 -1007 258 -1362 342 l-120 29 -59 80 c-77 105 -359 530 -477
720 -51 83 -104 165 -118 182 -37 49 -135 110 -215 134 -91 27 -2424 745
-2614 805 l-142 45 -17 45 c-9 24 -14 48 -10 52 4 4 26 12 49 17 38 10 45 8
89 -21 26 -18 62 -37 80 -43z m23953 -1423 c230 -700 503 -1694 617 -2243 l43
-210 -1 -265 c-6 -1162 -514 -5081 -849 -6542 -180 -785 -389 -1411 -581
-1739 -102 -177 -265 -289 -339 -235 -21 15 -24 7 83 302 57 156 75 248 75
389 1 186 -47 332 -157 472 -137 175 -345 273 -551 260 -49 -3 -110 -13 -134
-21 -24 -9 -45 -16 -48 -16 -5 0 162 219 251 330 111 138 257 289 341 356 94
73 136 120 166 189 44 100 289 1482 453 2555 202 1323 332 2406 377 3136 16
269 7 639 -20 834 -95 671 -325 1786 -495 2393 -17 63 -21 89 -13 92 7 2 93
25 193 50 99 25 250 67 335 94 85 27 159 49 166 50 7 1 43 -94 88 -231z
m-9449 -68 l71 0 -14 -92 c-87 -583 -249 -1930 -324 -2701 -20 -198 -25 -230
-41 -238 -10 -6 -112 -41 -226 -79 -787 -260 -1781 -457 -2757 -545 -717 -64
-1490 -66 -2068 -4 -197 21 -325 -34 -440 -190 -33 -45 -53 -60 -121 -91 -143
-67 -406 -130 -543 -130 -153 0 -524 75 -1088 220 -353 91 -398 104 -403 119
-2 7 36 52 84 100 279 274 738 454 1274 500 234 21 574 31 1021 31 416 0 450
1 503 19 31 11 69 27 84 36 15 8 803 180 1752 381 1087 230 1763 378 1827 399
205 68 380 175 541 330 210 202 347 431 417 700 34 132 41 196 80 680 19 242
37 469 41 504 l6 64 126 -6 c70 -4 159 -7 198 -7z m8169 -1475 c122 -607 191
-1040 202 -1275 13 -279 -49 -1037 -147 -1810 -28 -219 -38 -277 -39 -225 0
39 -19 630 -41 1315 -21 685 -46 1481 -54 1770 -9 289 -17 566 -19 615 l-4 90
14 -55 c7 -30 47 -221 88 -425z m-26008 33 c55 -84 116 -179 136 -210 l36 -57
-312 -188 c-171 -103 -331 -205 -355 -226 -25 -24 -57 -70 -79 -114 -31 -63
-37 -87 -41 -157 -6 -108 14 -178 79 -277 88 -135 108 -222 69 -298 -31 -62
-131 -181 -212 -254 -117 -106 -259 -215 -287 -222 -14 -3 -69 -26 -121 -50
-224 -102 -371 -130 -680 -129 -372 0 -626 49 -1320 254 -586 173 -961 255
-1264 276 l-99 7 29 24 c186 151 2473 1388 2674 1446 105 30 233 47 361 47
149 0 218 -12 258 -46 76 -63 213 -99 319 -82 85 13 132 39 427 232 148 97
272 176 276 176 4 0 52 -69 106 -152z m2138 77 c33 -12 106 -45 163 -74 273
-137 343 -205 690 -668 100 -133 227 -297 283 -365 404 -494 842 -870 1407
-1209 247 -148 275 -180 289 -323 21 -231 -163 -508 -385 -576 -78 -24 -209
-26 -302 -5 -88 21 -265 109 -375 187 -114 81 -321 280 -445 429 -372 445
-749 1125 -1080 1944 -117 290 -206 454 -338 620 -30 39 -60 76 -65 82 -10 14
57 -4 158 -42z m-9880 -307 c99 -58 275 -160 390 -228 405 -238 717 -383 984
-456 219 -60 284 -68 521 -68 185 0 230 3 320 23 150 32 305 86 439 152 64 31
117 56 118 55 1 -1 -15 -60 -35 -131 l-38 -129 -264 -166 c-146 -91 -329 -209
-408 -262 l-143 -95 -162 49 c-441 135 -1042 345 -1537 538 -265 103 -711 288
-724 300 -7 7 180 503 216 572 8 16 14 15 76 -16 37 -19 148 -81 247 -138z
m9010 -120 c150 -142 228 -264 329 -514 110 -272 230 -543 346 -781 l108 -221
-92 -7 c-597 -43 -1237 -130 -1651 -224 -93 -21 -171 -38 -173 -36 -1 1 22 39
53 83 183 266 240 551 170 847 -11 46 -11 63 -2 71 7 6 152 95 323 197 337
202 378 234 429 342 47 100 46 236 -2 354 -12 29 82 -36 162 -111z m-23550
-2048 c363 -73 704 -260 978 -537 91 -92 247 -286 247 -307 0 -5 -139 -6 -342
-2 -443 10 -2169 9 -2492 0 l-249 -7 51 74 c291 421 789 731 1282 799 116 16
402 5 525 -20z m18104 -115 c209 -36 433 -93 911 -230 455 -131 624 -174 819
-210 74 -14 136 -27 138 -29 2 -2 -99 -73 -224 -158 -651 -443 -1252 -832
-1988 -1285 l-329 -203 -61 67 c-338 374 -669 873 -856 1292 l-47 104 42 63
c22 34 57 91 76 125 48 88 193 230 297 292 158 94 343 160 539 192 147 24 490
14 683 -20z m6779 -262 c273 -383 605 -719 904 -916 190 -125 380 -209 593
-263 72 -18 116 -33 99 -33 -18 -1 -141 -8 -275 -16 -524 -32 -679 -37 -1389
-42 -855 -6 -1245 5 -1820 53 -677 56 -1199 150 -1508 271 -134 52 -132 50
-102 114 33 71 180 220 285 289 491 321 1473 542 2745 620 96 6 195 12 220 13
25 2 75 4 112 5 l66 2 70 -97z m3410 77 c781 -100 1340 -269 1555 -468 40 -38
47 -50 47 -82 0 -49 -30 -75 -159 -139 -355 -178 -957 -326 -1826 -450 -268
-38 -746 -93 -753 -86 -3 3 1 5 9 5 26 0 215 97 290 148 336 228 564 596 619
1001 15 108 -7 100 218 71z m-36390 -1049 c64 -44 167 -119 227 -167 107 -86
409 -379 452 -439 l21 -31 -86 13 c-151 22 -516 27 -684 10 -277 -30 -541 -98
-709 -183 -294 -148 -499 -392 -581 -693 -29 -104 -31 -335 -4 -430 21 -78 66
-178 108 -244 17 -26 27 -51 23 -55 -3 -4 -57 -7 -118 -7 -100 0 -118 3 -168
26 -83 39 -133 90 -178 180 -58 115 -76 206 -76 374 1 214 43 390 145 603 243
509 722 887 1385 1092 50 16 98 29 108 29 10 1 71 -35 135 -78z m16070 -219
c526 -235 900 -664 972 -1115 18 -109 8 -293 -20 -382 -47 -150 -145 -292
-262 -380 -33 -25 -62 -44 -64 -42 -2 1 4 27 12 57 25 86 30 307 10 413 -41
218 -148 419 -305 575 -207 205 -485 322 -911 384 -118 17 -509 14 -630 -5
-52 -8 -96 -14 -97 -13 -1 1 48 32 110 68 256 152 544 293 824 403 92 37 177
70 188 75 38 16 66 10 173 -38z m-7158 -112 c1311 -24 2131 -68 2442 -131 579
-117 1352 -515 2114 -1091 219 -166 208 -157 203 -162 -19 -16 -362 -113 -569
-160 -750 -170 -1747 -275 -3125 -328 -709 -27 -2147 -14 -3055 27 -2047 94
-3928 323 -4983 606 -92 25 -94 19 45 130 634 506 1452 839 2438 993 369 58
1273 105 2270 119 503 7 1757 5 2220 -3z m18735 -255 c58 -124 21 -302 -78
-375 -94 -69 -224 -79 -313 -24 -42 26 -114 103 -114 122 0 4 21 20 48 37 26
16 132 85 236 152 104 68 192 123 196 123 4 0 15 -16 25 -35z m9903 -85 c-43
-75 -192 -278 -287 -390 -585 -689 -1533 -1152 -2641 -1289 -255 -32 -420 -41
-737 -41 -674 0 -1282 95 -1908 297 -334 108 -724 279 -1010 442 -301 172
-693 466 -870 652 l-40 42 40 -7 c22 -3 132 -19 245 -36 1922 -278 5272 -126
7024 320 88 22 162 43 165 45 2 3 13 5 23 5 17 0 17 -2 -4 -40z m-37052 -780
c85 -12 235 -40 246 -46 4 -3 -2 -20 -14 -40 -24 -42 -107 -86 -244 -132 -260
-87 -574 -94 -813 -16 -42 13 -104 27 -138 31 -35 3 -63 9 -63 12 0 10 60 64
93 85 80 49 272 97 467 116 110 10 351 5 466 -10z m15037 -109 c216 -47 314
-110 354 -228 l11 -31 -51 -7 c-58 -8 -109 -25 -182 -60 -74 -35 -181 -48
-352 -42 -166 5 -283 30 -409 87 l-71 31 -6 59 c-4 32 -16 82 -27 111 -11 30
-16 56 -12 60 4 4 50 14 102 23 52 9 106 18 120 20 14 3 115 3 225 1 157 -3
221 -8 298 -24z m-12945 -1005 c1267 -237 2854 -390 4852 -468 441 -17 2292
-18 2685 0 1111 48 1867 117 2570 232 222 36 586 107 663 129 17 5 32 7 32 4
0 -12 -208 -409 -270 -518 -152 -263 -308 -495 -477 -705 -122 -153 -366 -403
-493 -504 -201 -160 -430 -291 -605 -345 -377 -116 -1136 -196 -2195 -231
-388 -13 -1683 -13 -2115 0 -1393 40 -2556 135 -3154 256 -278 56 -459 156
-695 384 -358 346 -684 889 -977 1629 -38 95 -69 175 -69 177 0 6 -3 7 248
-40z m53297 -408 c-3 -13 -18 -93 -34 -178 l-29 -155 -119 -121 c-142 -145
-261 -285 -460 -544 -189 -246 -286 -387 -357 -520 -36 -69 -56 -97 -56 -81 0
13 -23 294 -50 624 -28 330 -49 601 -48 602 2 1 77 21 168 44 248 65 656 203
825 280 83 38 153 69 158 70 4 0 5 -9 2 -21z"/>
<path d="M41385 28853 c-44 -11 -348 -124 -386 -144 -55 -27 -132 -100 -163
-153 -68 -116 -75 -273 -17 -390 43 -88 114 -159 198 -198 55 -26 83 -33 154
-36 l87 -4 -23 -47 c-36 -74 -45 -134 -47 -351 -3 -240 6 -285 82 -384 175
-230 524 -217 680 25 57 88 69 156 71 399 1 172 -1 213 -16 255 -38 112 -132
215 -231 255 l-51 21 51 52 c95 95 141 234 118 357 -39 211 -205 352 -411 349
-42 -1 -85 -4 -96 -6z"/>
<path d="M43265 28792 c-153 -53 -252 -166 -285 -325 -29 -141 37 -311 155
-401 l44 -33 -52 -35 c-68 -45 -129 -122 -157 -195 -19 -49 -24 -89 -31 -263
-6 -131 -5 -224 1 -259 32 -175 170 -310 348 -341 205 -36 411 103 466 314 11
40 16 118 17 269 2 227 -2 248 -55 343 l-23 41 56 6 c158 14 313 154 350 318
43 184 -56 388 -223 465 -29 13 -136 44 -239 69 -207 50 -288 56 -372 27z"/>
<path d="M42935 26236 c-60 -19 -117 -51 -165 -91 -97 -81 -218 -120 -346
-112 -94 5 -147 26 -240 93 -92 65 -162 94 -242 101 -134 11 -248 -34 -342
-133 -82 -88 -104 -148 -105 -284 0 -100 2 -109 33 -173 51 -104 155 -196 332
-294 128 -71 313 -126 482 -143 344 -34 761 106 993 335 140 137 171 317 85
492 -39 79 -129 163 -207 194 -71 28 -216 36 -278 15z"/>
<path d="M51719 23727 c-150 -52 -245 -161 -278 -315 -16 -78 -14 -267 4 -337
81 -311 467 -418 695 -193 99 97 136 221 128 423 -6 124 -26 194 -78 270 -99
144 -304 211 -471 152z"/>
<path d="M30326 21970 c-132 -47 -193 -112 -289 -307 l-72 -146 0 -106 c0
-136 22 -196 105 -285 113 -121 268 -164 419 -117 144 45 204 106 302 304 73
149 94 224 83 301 -22 159 -109 278 -250 343 -82 37 -212 43 -298 13z"/>
<path d="M9155 22443 c-50 -13 -391 -145 -436 -170 -138 -75 -228 -264 -200
-417 31 -167 138 -290 293 -337 114 -35 176 -26 408 61 226 84 259 101 322
168 213 227 118 590 -179 682 -61 19 -159 25 -208 13z"/>
<path d="M11195 22376 c-116 -37 -207 -116 -258 -223 -39 -85 -49 -207 -23
-296 39 -133 150 -241 291 -282 l78 -22 -61 -7 c-121 -14 -256 -107 -311 -215
-38 -73 -49 -148 -56 -366 -6 -231 1 -282 52 -377 35 -64 120 -143 185 -173
160 -72 336 -44 461 74 66 63 104 130 122 218 19 90 22 470 5 533 -25 93 -83
177 -165 239 -29 21 -29 22 -5 16 14 -4 61 -9 106 -12 95 -6 173 12 246 58
226 144 261 458 71 647 -70 70 -120 91 -360 151 -215 54 -298 62 -378 37z"/>
<path d="M9265 21587 c-138 -46 -241 -146 -282 -274 -20 -61 -35 -463 -21
-542 23 -128 114 -250 229 -304 203 -96 450 -13 548 185 41 81 49 133 55 362
7 237 -4 302 -63 394 -46 70 -106 122 -187 159 -48 22 -76 28 -149 30 -56 2
-105 -2 -130 -10z"/>
<path d="M10847 19480 c-57 -15 -125 -53 -195 -109 -72 -58 -166 -106 -242
-122 -29 -6 -94 -9 -145 -7 -82 3 -101 8 -166 40 -41 21 -99 58 -129 83 -75
62 -145 88 -252 93 -99 5 -163 -11 -240 -60 -136 -85 -216 -259 -189 -410 26
-146 101 -243 282 -364 147 -98 296 -160 479 -200 116 -26 370 -26 490 -1 304
64 624 240 745 412 120 168 93 403 -61 545 -71 66 -159 102 -257 106 -45 2
-99 -1 -120 -6z"/>
<path d="M70108 28095 c-224 -37 -421 -140 -555 -291 l-56 -63 -66 33 c-365
184 -863 144 -1239 -100 -114 -74 -261 -223 -326 -332 -54 -91 -110 -242 -125
-342 -36 -224 9 -486 122 -705 107 -207 312 -409 506 -499 l49 -23 -36 -12
c-593 -209 -1147 -575 -1512 -997 -192 -222 -317 -412 -443 -674 -44 -91 -109
-216 -145 -279 -491 -867 -640 -1638 -436 -2248 87 -261 208 -454 420 -673
l112 -115 22 -139 c82 -517 307 -1076 637 -1581 191 -291 371 -515 644 -800
l107 -112 8 -159 c10 -186 12 -1220 2 -1229 -4 -4 -35 2 -70 13 -113 36 -129
36 -400 -17 -542 -106 -1041 -169 -1678 -213 -253 -18 -1293 -18 -1535 0 -601
44 -1091 115 -1525 222 -162 39 -191 42 -269 26 -89 -19 -142 -46 -208 -108
-60 -57 -106 -141 -123 -225 -29 -135 58 -598 180 -963 87 -262 199 -508 323
-714 l35 -58 -53 -67 c-154 -190 -245 -458 -245 -721 0 -477 280 -915 761
-1192 111 -63 308 -140 460 -180 l126 -33 -57 -170 c-83 -243 -193 -542 -419
-1138 -109 -287 -218 -575 -241 -639 l-43 -117 -41 24 c-170 98 -386 63 -520
-86 -68 -75 -154 -294 -196 -497 -61 -302 -45 -576 50 -863 248 -747 1019
-1207 1777 -1060 321 62 606 216 913 491 47 42 117 99 155 127 83 61 224 182
364 312 l101 93 -1 -1013 c0 -558 -4 -1147 -8 -1309 l-8 -295 -145 -425 c-151
-440 -327 -975 -468 -1425 -81 -255 -82 -261 -77 -342 3 -58 12 -97 31 -138
31 -68 136 -222 221 -325 90 -108 276 -285 379 -360 48 -36 97 -72 109 -81 19
-15 19 -20 8 -145 -19 -205 -25 -618 -12 -824 23 -368 71 -699 114 -793 37
-80 116 -161 196 -199 132 -63 312 -46 426 40 92 70 151 174 169 297 3 22 -3
97 -14 167 -49 312 -72 674 -62 961 5 155 5 158 26 153 152 -36 603 -44 781
-13 302 52 588 157 827 303 l88 53 57 -51 c309 -273 709 -475 1125 -568 166
-38 284 -51 484 -57 233 -7 371 5 588 48 378 75 784 264 1080 502 l69 55 139
-69 c365 -183 732 -279 1069 -279 l77 0 9 -97 c13 -155 10 -700 -6 -878 -12
-145 -12 -166 3 -225 42 -164 171 -281 345 -311 151 -27 323 52 409 188 60 96
74 180 94 571 13 256 2 601 -28 851 -8 73 -14 134 -12 135 2 1 55 36 118 77
341 223 636 562 838 965 33 66 65 146 72 179 21 103 10 152 -110 457 l-109
280 -32 346 c-17 191 -56 656 -87 1035 -49 585 -55 686 -42 681 79 -34 123
-46 189 -51 86 -6 270 8 475 38 l138 20 54 -42 c151 -116 422 -402 648 -682
430 -534 748 -1110 811 -1471 23 -134 19 -176 -34 -392 -65 -263 -75 -326 -74
-469 1 -130 17 -222 58 -330 94 -252 303 -447 545 -512 86 -22 244 -22 328 1
130 35 238 97 350 201 l60 55 17 -47 c111 -306 177 -426 305 -553 323 -323
866 -388 1314 -157 251 130 450 358 561 645 189 489 115 1063 -204 1591 -138
228 -279 406 -631 796 -139 154 -504 566 -810 915 -581 662 -787 894 -1024
1145 -77 83 -165 175 -193 206 l-53 56 121 109 c162 146 321 320 353 387 37
79 50 169 36 248 -25 134 -83 216 -217 305 -237 155 -446 328 -655 540 -167
170 -256 273 -403 469 -369 491 -662 1034 -1082 2000 -365 839 -433 990 -599
1325 -242 489 -468 868 -726 1215 -598 805 -1339 1355 -2243 1664 -175 60
-418 128 -542 152 -49 9 -62 15 -67 33 -8 35 -45 378 -62 576 -8 102 -18 327
-21 501 l-6 316 168 164 c732 717 1217 1514 1423 2340 l37 146 55 44 c30 24
95 82 144 129 276 266 457 600 528 978 29 155 32 488 5 657 -69 442 -257 904
-565 1397 -32 51 -80 140 -107 198 -333 718 -841 1278 -1468 1619 l-117 63 38
42 c90 98 152 242 172 399 25 206 -43 423 -183 582 l-48 54 35 48 c229 323
178 808 -116 1089 -152 146 -336 219 -573 229 -60 3 -135 -1 -187 -10z m-2396
-5844 c356 -116 714 -192 1113 -235 801 -86 1713 -7 2493 216 79 22 146 37
149 34 11 -11 22 -131 29 -331 26 -734 -182 -1388 -568 -1781 l-70 -71 79 -6
c93 -7 313 7 437 28 49 9 91 13 94 11 2 -3 -23 -61 -56 -130 -218 -450 -538
-885 -950 -1288 -279 -272 -545 -479 -766 -594 -107 -56 -110 -57 -172 -51
-197 19 -549 198 -849 432 -542 423 -995 1005 -1250 1603 -31 73 -55 135 -53
138 3 2 45 -10 94 -26 98 -34 445 -122 452 -116 2 3 -32 65 -76 138 -279 465
-409 797 -474 1213 -29 187 -31 582 -5 780 10 72 20 135 22 142 3 9 25 4 74
-17 39 -15 152 -56 253 -89z m1201 -4881 c278 -119 559 -175 755 -150 93 12
209 46 306 90 75 33 76 32 76 -58 0 -90 37 -495 66 -729 15 -117 25 -216 22
-218 -3 -3 -40 -14 -84 -25 -424 -106 -888 -88 -1324 50 -52 17 -101 34 -109
39 -12 8 -12 36 -2 182 15 215 31 639 31 817 l0 133 73 -40 c39 -22 125 -63
190 -91z m-1823 -1518 c0 -19 -71 -265 -105 -362 -20 -58 -71 -177 -114 -265
-126 -256 -256 -440 -438 -616 -361 -350 -806 -529 -1318 -529 -835 0 -1587
486 -1995 1290 -100 198 -206 475 -177 465 7 -3 104 -18 217 -34 937 -136
1925 -156 2985 -60 234 21 628 69 810 98 138 23 135 23 135 13z m1278 -278
c362 -131 722 -194 1109 -194 290 0 501 25 776 91 71 17 130 29 132 27 7 -6
34 -269 46 -437 15 -216 6 -805 -15 -1006 -24 -216 -52 -404 -93 -613 l-36
-182 -111 -35 c-583 -180 -1120 -211 -1648 -94 l-97 22 -16 71 c-106 462 -179
905 -216 1316 -19 201 -16 681 4 867 18 159 27 213 34 213 2 0 61 -21 131 -46z
m3157 -99 c143 -59 410 -197 545 -282 559 -350 1012 -842 1422 -1543 237 -405
418 -783 818 -1705 218 -503 311 -706 450 -990 309 -627 625 -1130 981 -1556
136 -163 424 -455 572 -582 l119 -101 -29 -24 c-455 -374 -1039 -641 -1620
-742 -165 -29 -153 -32 -197 58 -237 481 -766 1339 -1242 2012 -711 1007
-1392 1753 -1873 2052 -60 37 -69 47 -96 107 -16 36 -96 212 -177 390 -81 178
-146 326 -144 330 8 13 86 364 110 496 118 655 145 1295 81 1952 -8 83 -18
172 -21 198 l-7 46 109 -39 c60 -22 150 -56 199 -77z m-4125 -1300 c35 -315
114 -751 211 -1171 l39 -171 -71 -224 c-141 -445 -124 -403 -163 -417 -112
-41 -569 -466 -1076 -1002 -210 -222 -977 -1042 -1030 -1102 l-35 -39 -70 69
c-86 84 -149 112 -277 121 l-86 6 77 180 c402 932 813 2172 951 2866 l11 57
137 47 c155 53 413 175 547 260 275 173 568 446 755 702 44 60 45 61 52 35 4
-15 16 -112 28 -217z m-4092 -313 c288 -220 620 -388 972 -495 201 -61 507
-117 643 -117 84 0 84 -2 53 -127 -210 -841 -752 -2305 -1080 -2916 -56 -104
-57 -106 -89 -102 -171 22 -208 28 -212 36 -6 8 92 272 400 1084 321 845 514
1437 532 1631 11 120 -36 242 -128 329 -92 88 -197 124 -364 125 -87 0 -306
35 -410 65 -347 99 -586 350 -560 588 10 94 9 93 89 23 40 -34 109 -90 154
-124z m7140 -1657 c899 -1971 1714 -3940 3157 -7628 l58 -148 -21 -37 c-57
-101 -158 -228 -262 -333 -164 -165 -313 -257 -507 -315 -120 -35 -324 -44
-469 -20 -236 40 -518 164 -792 348 -157 106 -295 120 -449 48 -50 -23 -84
-50 -151 -121 -423 -444 -981 -631 -1581 -528 -389 66 -755 280 -1015 593
-126 151 -204 200 -341 213 -66 6 -158 -13 -224 -47 -22 -11 -84 -58 -138
-106 -219 -192 -438 -303 -705 -356 -146 -29 -394 -31 -537 -4 -295 54 -549
185 -762 393 -60 58 -111 114 -114 124 -7 21 43 181 272 874 285 861 528 1554
1206 3435 362 1004 586 1635 774 2180 98 281 460 1370 494 1485 18 59 9 58
189 27 286 -50 679 -67 960 -42 243 22 613 92 795 149 33 11 62 19 65 20 3 0
47 -92 98 -204z m-3574 -1697 c-9 -24 -66 -187 -129 -363 -114 -324 -486
-1359 -488 -1362 -4 -3 3 608 9 853 l6 261 304 327 c168 179 307 326 309 326
2 0 -3 -19 -11 -42z m5598 -703 c174 -238 312 -436 476 -681 l141 -212 25
-178 c49 -343 118 -915 113 -921 -2 -1 -26 55 -55 125 -263 648 -529 1295
-667 1627 -92 220 -169 407 -172 415 -10 26 11 0 139 -175z m-9322 -418 c143
-44 325 -81 495 -103 144 -18 474 -24 648 -11 l109 8 -34 -47 c-60 -85 -204
-220 -305 -288 -180 -119 -288 -156 -463 -156 -198 0 -373 73 -515 216 -121
120 -192 262 -220 440 l-6 42 88 -33 c48 -19 140 -49 203 -68z m13261 -1915
c300 -308 557 -594 1239 -1372 277 -316 583 -662 679 -769 479 -529 593 -674
710 -907 96 -193 127 -329 118 -526 -9 -223 -86 -368 -230 -434 -55 -26 -73
-29 -157 -29 -154 0 -167 12 -251 240 -93 252 -160 365 -290 491 -124 120
-232 178 -389 210 -193 39 -391 -13 -568 -150 -39 -31 -72 -52 -72 -46 0 5 18
78 39 162 60 231 71 304 71 458 0 235 -48 457 -163 750 -199 511 -604 1128
-1110 1693 -78 88 -143 162 -145 166 -1 3 46 28 105 54 60 26 144 68 188 92
44 24 85 45 91 45 6 0 67 -57 135 -128z"/>
<path d="M68495 21847 c-116 -30 -232 -125 -280 -230 -42 -91 -58 -284 -34
-413 25 -135 104 -241 225 -301 169 -83 365 -46 494 93 87 95 114 194 108 398
-5 158 -20 213 -83 298 -94 127 -278 194 -430 155z"/>
<path d="M70386 21768 c-161 -21 -308 -157 -345 -319 -15 -65 -13 -305 3 -364
20 -76 53 -133 110 -190 202 -202 536 -145 663 113 l38 76 0 190 0 191 -31 66
c-82 173 -248 263 -438 237z"/>
<path d="M70037 19829 c-62 -15 -132 -56 -204 -119 -127 -113 -276 -166 -403
-142 -84 15 -140 44 -224 115 -39 33 -100 74 -136 91 -60 29 -73 31 -170 31
-97 0 -110 -2 -173 -32 -239 -114 -317 -412 -161 -624 64 -88 235 -219 379
-291 95 -48 238 -95 349 -114 134 -24 356 -14 495 20 203 51 382 142 545 277
157 130 207 214 214 360 5 107 -12 173 -69 258 -93 139 -275 209 -442 170z"/>
<path d="M63950 19572 c-63 -5 -154 -41 -205 -80 -199 -151 -226 -433 -58
-613 26 -28 65 -62 86 -75 35 -23 37 -27 37 -79 0 -75 -26 -146 -130 -365
-140 -292 -187 -428 -211 -615 -53 -411 172 -810 534 -948 74 -28 93 -31 197
-31 109 -1 118 1 182 31 88 41 160 113 201 201 30 62 32 75 32 172 0 131 -22
194 -98 276 -57 63 -99 92 -169 119 -48 18 -48 18 -48 65 0 72 24 137 135 375
169 360 210 500 209 725 0 104 -5 155 -22 223 -52 211 -156 377 -306 491 -131
99 -246 140 -366 128z"/>
<path d="M65160 19501 c-172 -55 -290 -218 -290 -398 0 -48 8 -89 26 -138 59
-161 66 -195 68 -325 1 -165 -12 -211 -128 -445 -52 -104 -104 -219 -115 -255
-112 -350 -30 -707 223 -968 88 -92 167 -149 277 -201 188 -90 328 -92 472 -8
144 85 225 278 186 446 -27 119 -126 239 -236 287 -98 43 -102 46 -123 90 -15
29 -19 51 -14 71 4 15 45 103 91 196 46 92 95 198 109 234 117 313 126 697 23
1019 -60 188 -105 265 -200 336 -97 73 -250 97 -369 59z"/>
</g>
</svg>
