<?xml version="1.0" standalone="no"?>
<!DOCTYPE svg PUBLIC "-//W3C//DTD SVG 20010904//EN"
 "http://www.w3.org/TR/2001/REC-SVG-20010904/DTD/svg10.dtd">
<svg version="1.0" xmlns="http://www.w3.org/2000/svg"
 width="8007.000000pt" height="7395.000000pt" viewBox="0 0 8007.000000 7395.000000"
 preserveAspectRatio="xMidYMid meet">

<g transform="translate(0.000000,7395.000000) scale(0.100000,-0.100000)"
fill="#000000" stroke="none">
<path d="M66330 73929 c-1422 -105 -2712 -619 -3760 -1499 -173 -145 -584
-557 -724 -725 -578 -694 -990 -1456 -1275 -2356 -47 -149 -121 -416 -121
-437 0 -12 -12 -14 -72 -8 -424 37 -751 33 -1183 -15 -887 -99 -1831 -408
-2605 -853 -515 -296 -995 -691 -1325 -1089 -936 -1129 -1296 -2739 -935
-4177 321 -1275 1156 -2279 2365 -2842 675 -314 1442 -488 2335 -528 294 -13
7309 -13 8565 0 2127 22 3676 60 5280 130 1048 46 2200 112 2525 146 1981 203
3484 1125 4215 2584 229 457 370 946 432 1492 23 211 23 682 0 898 -66 594
-219 1120 -478 1640 -249 500 -539 901 -938 1300 -400 399 -827 707 -1346 970
-683 347 -1415 549 -2300 637 -259 25 -1053 25 -1340 0 -259 -23 -542 -59
-779 -98 -207 -35 -206 -35 -206 28 0 18 -9 101 -20 185 -205 1595 -1098 2923
-2535 3767 -178 105 -535 282 -735 364 -662 273 -1370 436 -2110 487 -171 12
-765 11 -930 -1z m820 -829 c1774 -106 3305 -945 4092 -2243 384 -633 585
-1337 604 -2117 7 -293 25 -366 111 -461 108 -119 270 -166 432 -125 31 8 134
31 230 51 959 196 1850 235 2671 114 1320 -193 2428 -816 3141 -1764 451 -602
720 -1292 789 -2030 15 -161 12 -527 -5 -690 -120 -1128 -724 -2061 -1720
-2654 -616 -367 -1327 -587 -2185 -675 -343 -36 -1785 -115 -2925 -161 -1621
-65 -3162 -97 -5580 -116 -1680 -13 -7611 -4 -7875 12 -993 61 -1821 323
-2470 783 -157 112 -284 219 -431 366 -543 542 -871 1228 -976 2045 -26 201
-26 750 0 950 128 988 564 1836 1247 2430 704 611 1765 1071 2827 1225 469 68
1017 68 1408 0 240 -42 230 -41 304 -26 91 19 159 55 219 115 72 72 96 130
146 357 336 1510 1071 2699 2176 3521 1048 779 2410 1174 3770 1093z"/>
<path d="M67424 70601 c-121 -56 -149 -226 -54 -321 44 -44 103 -65 160 -55
55 9 123 56 143 98 23 48 22 141 -2 194 -40 86 -157 126 -247 84z"/>
<path d="M63400 70579 c-82 -18 -244 -71 -305 -98 -114 -52 -174 -128 -175
-221 0 -50 25 -100 63 -125 l24 -15 6 -663 c3 -374 10 -679 16 -701 16 -65 40
-81 120 -81 61 0 74 4 112 30 84 60 84 57 87 315 l3 229 42 5 c23 3 74 9 112
13 l70 8 82 -90 c44 -49 157 -175 250 -280 93 -104 184 -200 202 -212 103 -70
231 -8 260 125 15 69 -19 122 -194 302 -83 85 -173 181 -199 214 -43 50 -47
60 -33 68 43 24 147 114 190 166 56 67 119 190 143 282 23 91 22 218 -5 301
-58 184 -222 331 -451 404 -73 24 -105 28 -230 31 -80 2 -165 -1 -190 -7z
m303 -344 c131 -34 215 -103 237 -197 33 -136 -63 -294 -225 -370 -67 -31
-239 -67 -322 -68 l-43 0 0 310 c0 171 3 310 8 310 4 1 30 7 57 15 67 18 217
19 288 0z"/>
<path d="M66464 70066 c-201 -74 -364 -282 -430 -546 -23 -96 -24 -274 0 -380
73 -334 400 -530 711 -425 185 62 297 171 297 291 0 53 -24 100 -65 124 -70
43 -140 38 -214 -16 -78 -56 -143 -84 -196 -84 -56 0 -90 16 -133 62 -44 46
-62 86 -76 167 -39 227 117 490 289 491 47 0 95 -23 155 -74 65 -56 142 -69
214 -37 80 36 113 127 80 215 -63 165 -429 288 -632 212z"/>
<path d="M67456 70070 c-46 -14 -105 -78 -119 -130 -10 -35 -12 -163 -8 -580
l6 -535 24 -48 c30 -61 81 -97 138 -97 57 0 84 12 126 55 60 62 61 66 52 668
-6 493 -9 545 -25 577 -42 82 -112 114 -194 90z"/>
<path d="M68045 70034 c-45 -23 -66 -45 -86 -89 -18 -38 -19 -87 -19 -895 0
-533 4 -868 10 -889 14 -49 74 -107 124 -121 78 -22 157 19 186 94 17 45 32
294 28 454 l-3 142 95 0 c309 0 524 117 635 343 58 120 80 227 72 357 -21 349
-253 610 -541 610 -82 0 -179 -21 -238 -51 l-40 -21 -32 30 c-17 16 -41 35
-53 41 -31 16 -103 13 -138 -5z m580 -365 c48 -32 91 -99 115 -177 75 -244
-79 -422 -366 -422 l-94 0 0 226 0 227 55 63 c98 111 203 141 290 83z"/>
<path d="M65180 70025 c-242 -50 -452 -194 -525 -360 -59 -134 -80 -337 -51
-486 69 -344 369 -549 711 -484 180 34 357 102 430 166 102 90 104 220 4 271
-64 33 -124 24 -251 -37 -157 -77 -266 -98 -377 -74 -48 10 -131 60 -131 78 0
4 37 18 83 31 318 86 457 146 560 241 135 123 163 278 80 443 -30 60 -115 146
-171 175 -98 50 -230 63 -362 36z m216 -350 c30 -19 37 -64 15 -95 -10 -14
-40 -37 -67 -52 -45 -26 -206 -83 -299 -107 -22 -6 -62 -18 -89 -26 l-48 -15
7 38 c12 63 46 131 83 164 44 37 162 95 223 108 55 11 147 4 175 -15z"/>
<path d="M69928 70030 c-179 -31 -344 -116 -461 -238 -102 -108 -149 -250
-150 -452 -1 -144 16 -227 66 -329 44 -92 178 -226 267 -270 73 -35 180 -61
256 -61 117 0 332 55 469 120 182 87 231 264 93 336 -52 27 -124 18 -209 -26
-132 -68 -221 -93 -329 -94 -87 -1 -99 1 -148 28 -52 29 -79 52 -70 61 2 2 73
23 158 45 261 70 406 139 511 243 79 78 102 141 97 257 -5 107 -35 177 -110
256 -106 112 -257 155 -440 124z m152 -341 c53 -11 70 -29 70 -74 0 -61 -90
-108 -347 -184 -92 -27 -169 -48 -170 -47 -7 7 30 124 48 153 35 56 147 123
247 147 72 18 89 19 152 5z"/>
<path d="M70894 69964 c-51 -18 -110 -75 -125 -122 -16 -47 -6 -139 20 -190
33 -64 89 -96 175 -100 66 -3 75 -1 125 30 67 40 94 88 99 174 11 163 -133
265 -294 208z"/>
<path d="M70895 69128 c-92 -32 -141 -111 -132 -214 7 -89 41 -144 109 -178
177 -88 362 56 319 249 -15 66 -46 106 -104 134 -48 23 -139 27 -192 9z"/>
<path d="M74820 67567 c-76 -40 -104 -132 -64 -213 26 -51 63 -76 121 -81 94
-8 163 56 163 151 0 68 -26 115 -80 143 -54 29 -86 29 -140 0z"/>
<path d="M73755 67570 c-17 -5 -46 -26 -65 -45 l-35 -36 -3 -652 c-2 -359 0
-666 3 -684 8 -45 50 -91 95 -104 34 -10 44 -9 87 12 81 40 87 60 93 294 l5
199 138 -159 c274 -319 303 -345 379 -345 69 0 128 64 128 138 0 41 -35 88
-241 318 l-187 209 114 108 c143 137 186 193 191 255 11 114 -106 179 -212
118 -23 -14 -54 -43 -70 -66 -16 -23 -76 -87 -134 -142 l-106 -101 -6 285 c-4
157 -9 301 -13 320 -12 67 -85 101 -161 78z"/>
<path d="M71523 67541 c-71 -45 -68 -9 -71 -665 -2 -364 -6 -594 -12 -600 -17
-17 -11 -99 9 -132 23 -38 96 -70 138 -60 38 9 39 9 123 -14 177 -50 432 9
546 126 147 152 183 464 79 691 -85 186 -318 254 -529 155 l-64 -30 1 181 c1
204 -14 292 -58 336 -33 34 -117 40 -162 12z m515 -737 c47 -18 59 -41 74
-140 9 -56 9 -89 -1 -144 -16 -87 -46 -126 -129 -167 -47 -23 -69 -28 -127
-27 -38 1 -82 6 -97 12 l-28 12 0 139 0 139 68 70 c64 66 147 121 184 122 10
0 35 -7 56 -16z"/>
<path d="M64039 67417 c-71 -47 -69 -26 -69 -668 0 -479 -2 -582 -14 -611 -22
-51 -4 -111 42 -146 30 -23 46 -27 106 -28 39 0 98 -8 131 -17 170 -48 424 12
538 126 150 149 187 469 81 694 -50 104 -145 172 -274 195 -81 14 -169 0 -257
-42 l-66 -30 5 117 c7 148 -7 303 -31 359 -33 73 -123 97 -192 51z m521 -735
c43 -21 56 -47 71 -140 10 -57 9 -88 -1 -143 -14 -83 -42 -120 -122 -165 -46
-25 -63 -29 -133 -29 -126 0 -125 0 -125 159 l0 133 40 51 c60 74 172 151 220
151 8 0 31 -8 50 -17z"/>
<path d="M66424 67420 c-32 -13 -72 -67 -81 -108 -4 -20 -8 -101 -8 -179 l0
-141 -73 -4 c-68 -3 -74 -6 -110 -41 -33 -33 -37 -43 -37 -87 0 -40 5 -54 30
-81 39 -41 83 -59 145 -59 l50 0 1 -337 c0 -235 4 -349 12 -373 34 -98 195
-109 244 -17 15 29 16 70 14 380 l-2 347 83 0 c94 0 151 20 186 65 40 51 24
138 -34 184 -23 18 -40 21 -130 21 l-104 0 0 168 c0 149 -2 171 -20 200 -36
59 -107 86 -166 62z"/>
<path d="M67324 67420 c-32 -13 -72 -67 -81 -108 -4 -20 -8 -101 -8 -179 l0
-141 -73 -4 c-68 -3 -74 -6 -110 -41 -33 -33 -37 -43 -37 -87 0 -40 5 -54 30
-81 39 -41 83 -59 145 -59 l50 0 1 -337 c0 -235 4 -349 12 -373 34 -98 196
-109 243 -17 15 28 17 71 15 380 l-2 347 73 0 c96 0 145 15 185 55 27 27 33
41 33 74 0 50 -20 91 -56 120 -23 18 -40 21 -130 21 l-104 0 0 168 c0 149 -2
171 -20 200 -36 59 -107 86 -166 62z"/>
<path d="M57665 67407 c-27 -8 -68 -23 -90 -34 -46 -24 -125 -104 -149 -151
-31 -60 -48 -163 -47 -289 1 -122 0 -123 -23 -123 -64 0 -125 -84 -112 -155 9
-44 63 -100 105 -108 l31 -6 0 -302 c0 -332 2 -344 63 -395 27 -23 38 -25 81
-21 41 4 55 11 82 40 18 19 37 52 43 74 7 23 11 152 11 324 l0 287 113 4 c83
3 122 9 151 23 80 38 102 135 45 200 -41 46 -85 58 -206 53 l-102 -3 -5 29
c-9 43 -7 156 3 200 11 46 56 96 88 96 12 0 57 -14 100 -31 42 -17 93 -31 113
-31 98 -1 156 90 116 185 -40 96 -268 171 -411 134z"/>
<path d="M58241 67323 c-18 -9 -42 -31 -52 -47 -18 -29 -19 -64 -19 -679 0
-538 2 -653 14 -675 40 -76 138 -127 238 -123 38 1 86 46 94 87 8 43 -16 111
-51 144 l-25 23 0 596 c0 565 -1 598 -19 627 -35 58 -115 79 -180 47z"/>
<path d="M74840 67143 c-24 -9 -61 -46 -77 -78 -14 -26 -16 -86 -14 -445 1
-228 4 -431 8 -450 19 -113 115 -171 192 -118 19 12 44 36 55 51 20 28 21 40
24 470 3 489 2 500 -59 552 -30 24 -88 33 -129 18z"/>
<path d="M75700 67125 c-30 -9 -79 -27 -109 -40 l-53 -25 -29 25 c-60 50 -159
41 -203 -18 -21 -28 -21 -38 -21 -470 0 -438 0 -442 22 -484 37 -69 124 -90
190 -47 53 34 58 58 63 355 l5 276 42 55 c31 42 58 64 104 87 66 33 141 42
156 19 4 -7 10 -173 13 -368 5 -322 7 -359 24 -393 24 -49 66 -71 124 -64 53
6 107 53 123 108 15 48 6 729 -10 779 -28 91 -100 164 -193 197 -62 22 -182
26 -248 8z"/>
<path d="M73053 67120 c-125 -23 -244 -91 -346 -200 -224 -237 -258 -607 -72
-779 134 -124 390 -149 552 -55 l44 27 27 -25 c40 -38 65 -48 116 -48 39 0 52
6 84 34 55 51 52 92 -18 237 l-55 113 -2 294 c-2 283 -3 295 -24 329 -14 22
-39 43 -66 55 -52 23 -164 31 -240 18z m47 -377 c0 -106 15 -311 26 -345 4
-13 -11 -28 -58 -58 -51 -32 -72 -40 -111 -40 -56 0 -95 18 -130 60 -34 40
-43 89 -29 162 17 92 58 171 118 228 49 46 141 100 172 100 9 0 12 -28 12
-107z"/>
<path d="M76760 67100 c-111 -20 -197 -68 -282 -158 -92 -96 -138 -227 -138
-390 0 -50 5 -115 11 -144 39 -185 179 -340 341 -378 70 -16 198 -12 277 9
l73 19 -7 -76 c-13 -152 -53 -187 -210 -187 -98 0 -103 1 -187 43 -111 54
-153 56 -204 9 -47 -43 -56 -97 -24 -162 20 -41 31 -50 109 -90 148 -74 252
-94 391 -75 107 14 199 55 263 118 63 62 94 116 117 209 19 71 20 112 20 593
l0 517 -30 41 c-44 61 -105 72 -179 32 -16 -8 -26 -8 -36 0 -21 18 -167 67
-215 73 -25 3 -65 1 -90 -3z m159 -300 c23 -11 61 -34 82 -51 l39 -31 -2 -177
-3 -176 -70 -35 c-60 -30 -79 -35 -140 -35 -131 0 -181 49 -207 201 -9 57 -9
83 1 128 15 66 63 141 110 173 44 30 128 31 190 3z"/>
<path d="M69410 67015 c-25 -8 -74 -31 -108 -53 l-64 -38 -56 29 c-77 39 -138
35 -187 -13 -59 -57 -56 -136 5 -195 l30 -29 0 -348 c0 -386 2 -401 62 -438
37 -23 101 -26 138 -7 13 7 35 28 47 46 23 34 23 38 23 341 l0 307 53 50 c62
59 123 93 167 93 19 0 46 -13 75 -35 57 -43 105 -53 151 -31 66 31 95 127 59
195 -22 43 -92 98 -152 121 -64 24 -174 26 -243 5z"/>
<path d="M68252 66980 c-144 -38 -282 -126 -349 -223 -94 -139 -110 -403 -32
-567 33 -70 130 -177 193 -214 117 -67 251 -78 421 -32 55 15 130 41 168 58
151 69 204 200 107 266 -51 34 -102 29 -211 -22 -116 -54 -183 -70 -265 -63
-47 3 -76 12 -104 31 -22 14 -40 30 -40 35 0 5 42 19 93 31 273 67 442 161
498 277 60 123 7 299 -115 382 -93 63 -223 78 -364 41z m213 -266 c18 -7 28
-39 21 -68 -8 -34 -99 -78 -256 -125 -74 -23 -138 -41 -142 -41 -24 0 7 94 44
136 33 38 124 88 186 104 36 9 117 5 147 -6z"/>
<path d="M65175 66980 c-27 -11 -61 -49 -76 -85 -18 -44 -25 -497 -9 -578 37
-190 185 -343 356 -366 100 -14 227 21 310 84 l33 25 36 -44 c35 -43 94 -76
136 -76 35 0 76 28 93 64 26 55 21 109 -19 180 -59 106 -70 166 -66 366 8 355
8 346 -15 377 -56 74 -132 80 -194 14 -58 -61 -65 -97 -65 -354 l-1 -228 -43
-50 c-108 -126 -229 -115 -278 24 -16 45 -18 87 -18 314 l0 261 -25 27 c-43
47 -107 65 -155 45z"/>
<path d="M61373 66935 c-57 -16 -121 -46 -166 -77 -27 -19 -27 -19 -81 6 -70
33 -131 34 -177 3 -77 -52 -80 -147 -5 -216 l26 -24 0 -356 c0 -339 1 -358 20
-389 53 -87 185 -80 230 12 19 40 20 61 20 343 l0 301 53 47 c64 58 148 99
179 89 13 -4 40 -20 60 -36 71 -55 137 -58 188 -6 55 54 52 144 -7 208 -77 86
-225 128 -340 95z"/>
<path d="M59078 66894 c-84 -20 -154 -59 -221 -123 -132 -125 -200 -274 -214
-465 -10 -137 40 -282 132 -384 61 -68 185 -131 272 -139 205 -19 458 183 534
427 40 128 34 315 -13 434 -48 124 -160 221 -288 250 -82 19 -126 19 -202 0z
m192 -300 c68 -62 88 -175 51 -293 -60 -193 -224 -295 -331 -204 -132 110 -76
406 94 504 75 43 133 41 186 -7z"/>
<path d="M59855 66891 c-28 -12 -51 -40 -71 -86 -14 -34 -17 -81 -18 -305 -1
-253 0 -268 22 -329 87 -239 294 -358 510 -292 38 11 93 37 122 56 l52 35 47
-49 c83 -88 175 -88 219 -1 30 61 28 84 -18 174 -63 124 -74 195 -65 410 4 99
8 206 8 236 2 172 -176 219 -252 67 -31 -63 -46 -245 -34 -410 l9 -119 -53
-58 c-87 -95 -169 -113 -233 -49 -58 58 -70 158 -60 486 4 142 3 154 -16 180
-38 52 -114 76 -169 54z"/>
<path d="M75905 65160 c-68 -28 -88 -105 -83 -332 l3 -145 -100 5 c-173 7
-299 -36 -410 -139 -113 -106 -175 -265 -175 -449 0 -150 34 -243 122 -337
123 -130 282 -167 463 -109 44 14 99 37 122 50 l41 24 34 -24 c70 -50 158 -37
198 28 25 42 25 88 0 138 -19 38 -20 59 -20 612 0 539 -1 575 -19 608 -34 66
-112 97 -176 70z m-91 -756 c14 -5 16 -31 16 -189 l0 -183 -40 -35 c-61 -56
-116 -80 -197 -85 -62 -4 -77 -1 -108 18 -77 48 -100 162 -60 300 23 77 78
139 146 163 44 15 211 23 243 11z"/>
<path d="M66050 65011 c-19 -10 -44 -30 -55 -45 -20 -27 -20 -40 -20 -679 0
-733 -5 -688 76 -747 92 -66 186 -74 241 -20 38 38 39 104 3 167 -14 23 -30
43 -35 43 -6 0 -10 224 -10 599 l0 598 -22 33 c-26 38 -81 70 -118 70 -14 0
-41 -8 -60 -19z"/>
<path d="M66690 64993 c-34 -33 -41 -47 -50 -103 -5 -36 -10 -118 -10 -182 l0
-118 -66 0 c-65 0 -68 -1 -110 -44 -36 -36 -44 -50 -44 -81 0 -79 78 -145 172
-145 l45 0 6 -157 c4 -87 7 -240 7 -341 0 -206 7 -239 62 -272 39 -24 107 -26
147 -5 16 8 36 31 46 51 16 34 17 71 16 381 l-2 343 73 0 c96 0 145 15 185 55
37 37 43 81 19 139 -26 63 -56 76 -172 76 l-104 0 0 168 c0 164 -1 168 -26
206 -28 41 -75 66 -124 66 -22 0 -42 -11 -70 -37z"/>
<path d="M60014 64921 c-53 -33 -68 -91 -69 -263 l0 -148 -51 0 c-93 0 -174
-65 -174 -141 0 -68 93 -139 182 -139 l48 0 0 -326 c0 -207 4 -341 11 -370 15
-57 54 -86 124 -92 44 -4 55 -1 84 24 18 15 37 39 43 53 7 17 10 147 9 369
l-3 342 61 0 c149 0 231 47 231 132 0 24 -8 59 -18 78 -28 53 -71 70 -179 70
l-93 0 0 171 0 172 -44 43 c-38 39 -49 44 -87 44 -26 0 -57 -8 -75 -19z"/>
<path d="M77977 64749 c-56 -11 -138 -47 -186 -81 l-33 -24 -56 28 c-90 46
-171 33 -212 -35 -35 -57 -22 -124 34 -176 l26 -24 0 -356 c0 -335 1 -358 20
-388 54 -89 188 -83 231 10 17 38 19 69 19 344 l0 302 61 51 c112 93 159 102
234 45 25 -19 61 -37 80 -41 70 -13 145 56 145 134 0 133 -192 245 -363 211z"/>
<path d="M73650 64733 c-30 -11 -71 -58 -80 -94 -19 -70 31 -269 187 -742 61
-187 89 -230 156 -242 89 -17 138 17 177 122 11 32 51 134 87 228 l67 170 32
-70 c18 -39 54 -123 80 -188 79 -199 133 -267 211 -267 73 0 126 53 175 174
50 123 239 699 245 747 12 96 -60 180 -140 165 -46 -9 -94 -41 -111 -75 -9
-16 -45 -125 -80 -243 -90 -297 -90 -297 -103 -273 -14 27 -125 323 -153 408
-13 41 -35 81 -55 102 -28 30 -39 35 -79 35 -50 0 -90 -16 -118 -46 -9 -11
-55 -115 -103 -233 -47 -118 -90 -221 -94 -229 -10 -17 -63 171 -98 342 -25
128 -48 178 -93 201 -29 15 -81 19 -110 8z"/>
<path d="M71492 64710 c-20 -13 -41 -38 -53 -65 -19 -43 -19 -67 -17 -737 3
-649 4 -696 21 -721 26 -41 75 -67 125 -67 34 0 49 6 77 33 32 29 36 40 45
107 5 41 10 152 10 245 l0 170 94 2 c334 6 546 209 546 524 -1 264 -156 479
-374 520 -66 12 -167 -2 -239 -33 -45 -20 -50 -20 -59 -5 -26 47 -120 61 -176
27z m486 -289 c39 -28 89 -127 97 -194 13 -105 -35 -196 -127 -241 -66 -32
-150 -48 -205 -40 l-43 6 0 182 0 181 40 46 c74 87 168 111 238 60z"/>
<path d="M72923 64705 c-239 -52 -425 -299 -440 -586 -5 -92 -3 -116 16 -180
32 -104 65 -160 132 -224 182 -174 423 -160 619 35 79 79 129 159 166 265 23
68 28 96 27 190 0 61 -5 135 -12 165 -44 184 -174 312 -348 340 -72 12 -83 12
-160 -5z m165 -285 c154 -94 93 -434 -94 -526 -93 -45 -170 -19 -216 74 -19
38 -23 62 -22 127 2 140 69 263 173 317 63 33 113 36 159 8z"/>
<path d="M76762 64700 c-157 -42 -315 -157 -367 -265 -43 -92 -58 -176 -52
-305 6 -141 28 -209 96 -300 154 -205 380 -243 702 -119 97 38 162 94 179 158
21 80 -35 145 -125 143 -26 0 -72 -16 -132 -45 -115 -56 -211 -76 -289 -59
-52 11 -114 44 -114 62 0 4 37 17 83 29 224 59 353 117 439 198 73 70 92 116
86 215 -6 122 -75 225 -183 278 -70 33 -219 38 -323 10z m198 -259 c14 -4 31
-19 38 -34 19 -40 -3 -69 -80 -105 -52 -25 -294 -102 -319 -102 -10 0 8 76 26
111 45 86 231 159 335 130z"/>
<path d="M64164 64647 c-175 -45 -293 -239 -249 -409 8 -34 25 -76 36 -94 46
-76 145 -134 296 -175 128 -35 153 -55 153 -119 0 -35 -38 -80 -67 -80 -34 0
-122 28 -155 48 -18 12 -51 39 -72 61 -89 92 -204 73 -237 -38 -19 -62 0 -109
69 -177 112 -109 236 -164 371 -164 101 0 168 24 238 85 169 149 163 436 -12
557 -22 15 -85 41 -140 59 -192 61 -215 73 -215 116 0 69 83 81 226 32 81 -27
95 -29 133 -19 108 29 108 191 -1 254 -102 58 -276 88 -374 63z"/>
<path d="M65384 64600 c-236 -35 -443 -220 -526 -469 -27 -84 -31 -110 -31
-201 0 -81 5 -118 21 -163 60 -164 184 -246 388 -255 113 -5 186 11 262 55
l44 25 31 -30 c91 -87 229 -43 231 73 1 29 -14 71 -54 155 l-55 115 -3 289
c-3 270 -4 292 -23 326 -26 46 -58 65 -133 79 -65 12 -77 12 -152 1z m30 -457
c4 -104 10 -210 15 -237 l8 -48 -60 -39 c-49 -32 -69 -39 -110 -39 -132 0
-196 110 -151 261 26 88 59 143 118 197 45 41 132 88 167 91 3 1 9 -83 13
-186z"/>
<path d="M62185 64543 c-60 -13 -127 -39 -178 -70 l-57 -35 -52 26 c-64 32
-128 34 -173 6 -33 -21 -65 -73 -65 -107 1 -29 36 -99 59 -115 20 -14 20 -23
23 -381 l3 -367 38 -37 c34 -35 42 -38 91 -38 70 0 105 25 128 91 15 42 17 92
18 335 l0 286 55 52 c61 58 135 96 169 87 13 -3 39 -19 60 -35 54 -43 94 -54
142 -39 76 25 108 128 65 208 -46 86 -219 156 -326 133z"/>
<path d="M57244 64511 c-17 -10 -39 -36 -48 -56 -30 -63 -11 -163 94 -505 131
-427 155 -479 229 -501 81 -24 151 14 180 99 30 85 154 398 160 405 7 7 64
-117 120 -260 54 -138 101 -212 153 -239 68 -35 139 -2 194 91 29 50 125 317
219 612 75 236 78 267 24 328 -50 57 -122 58 -185 3 -36 -32 -34 -27 -149
-401 -60 -195 -50 -191 -106 -47 -28 69 -66 172 -85 228 -56 168 -83 208 -144
213 -110 10 -133 -17 -245 -298 -53 -131 -93 -217 -97 -209 -11 20 -75 272
-92 361 -19 104 -28 125 -66 163 -26 27 -39 32 -78 32 -28 0 -59 -8 -78 -19z"/>
<path d="M59225 64510 c-167 -36 -335 -157 -424 -304 -149 -249 -145 -526 9
-670 65 -61 137 -93 239 -108 107 -16 209 -2 297 42 l65 32 34 -31 c62 -54
154 -54 199 0 45 53 40 94 -26 233 l-52 110 -6 300 c-5 291 -6 302 -27 332
-34 47 -84 66 -182 70 -47 2 -104 -1 -126 -6z m55 -392 c0 -68 5 -172 11 -231
13 -124 13 -125 -72 -172 -86 -47 -171 -26 -226 55 -45 65 -19 215 54 320 51
71 158 144 221 149 9 1 12 -30 12 -121z"/>
<path d="M61050 64510 c-200 -26 -392 -144 -460 -283 -91 -188 -75 -450 38
-599 160 -212 380 -252 700 -128 122 47 192 119 192 198 0 63 -83 122 -152
107 -17 -4 -66 -25 -109 -46 -166 -83 -299 -88 -393 -14 -11 8 -17 17 -14 20
3 3 55 19 114 35 329 86 478 193 500 357 15 117 -65 262 -176 318 -39 20 -159
49 -180 44 -3 -1 -30 -5 -60 -9z m137 -296 c32 -43 5 -87 -77 -123 -53 -23
-312 -102 -318 -97 -8 8 11 74 32 112 24 43 100 95 176 119 61 20 169 14 187
-11z"/>
<path d="M74178 62755 c-55 -31 -63 -61 -66 -275 l-3 -195 -127 0 c-106 0
-138 -4 -194 -23 -215 -74 -342 -254 -364 -514 -22 -260 134 -480 370 -518 90
-14 247 20 342 76 36 20 44 22 54 9 6 -8 31 -21 55 -31 81 -30 151 3 175 84
11 36 10 45 -14 97 l-26 57 0 580 0 579 -38 41 c-33 35 -45 41 -88 44 -32 3
-58 -1 -76 -11z m-71 -940 l2 -190 -52 -43 c-59 -49 -126 -72 -205 -72 -130 0
-192 127 -146 302 37 145 120 199 299 195 l100 -2 2 -190z"/>
<path d="M58865 62564 c-48 -25 -64 -44 -80 -96 -34 -117 55 -225 168 -204
108 20 156 125 108 233 -33 71 -127 103 -196 67z"/>
<path d="M60063 62551 c-24 -11 -51 -34 -63 -53 -20 -32 -20 -45 -18 -710 l3
-677 29 -30 c50 -52 118 -59 177 -18 51 36 54 48 59 277 l5 215 143 -165 c292
-337 315 -358 395 -347 57 8 108 60 114 118 6 58 -7 77 -238 335 l-186 208
132 130 c167 166 200 229 160 306 -24 46 -62 70 -112 70 -66 0 -108 -25 -167
-99 -54 -68 -159 -170 -213 -209 l-31 -22 5 148 c2 81 1 222 -4 315 -9 161
-10 168 -35 193 -35 35 -98 41 -155 15z"/>
<path d="M59435 62531 c-28 -12 -74 -60 -81 -85 -2 -12 -3 -312 -2 -668 3
-636 3 -647 24 -675 50 -69 171 -121 237 -102 94 27 115 143 40 224 l-28 30
-1 597 c0 579 -1 599 -20 625 -39 51 -115 76 -169 54z"/>
<path d="M71647 62370 c-56 -15 -95 -37 -150 -88 -133 -125 -149 -318 -36
-454 38 -47 159 -108 273 -138 106 -28 146 -59 146 -113 0 -19 -8 -45 -19 -58
-40 -50 -175 -13 -268 74 -58 54 -82 67 -123 67 -85 0 -145 -88 -121 -178 13
-46 103 -137 186 -187 133 -80 298 -98 410 -44 67 32 140 107 173 177 38 82
43 204 11 286 -44 118 -116 170 -319 231 -109 32 -150 57 -150 90 0 68 89 84
215 40 79 -28 133 -32 174 -11 73 38 66 171 -13 231 -76 58 -291 99 -389 75z"/>
<path d="M75163 62320 c-211 -38 -401 -202 -490 -420 -146 -363 27 -670 378
-670 110 0 188 21 266 70 20 13 25 12 50 -12 41 -37 66 -48 117 -48 54 0 101
34 115 85 12 45 8 60 -52 185 l-50 105 -4 295 c-5 288 -5 296 -29 336 -16 29
-35 46 -64 58 -51 20 -168 28 -237 16z m51 -452 c3 -101 9 -208 12 -238 l6
-55 -59 -37 c-98 -64 -190 -48 -250 41 -56 83 -6 270 100 373 38 37 146 98
173 98 8 0 13 -59 18 -182z"/>
<path d="M72715 62308 c-94 -17 -185 -70 -262 -151 -81 -86 -121 -152 -158
-262 -72 -215 -27 -444 114 -578 170 -162 378 -166 573 -12 203 160 290 431
223 690 -44 167 -175 288 -342 315 -67 11 -80 11 -148 -2z m174 -305 c99 -95
88 -292 -25 -441 -34 -43 -120 -92 -164 -92 -79 0 -150 76 -165 176 -13 90 29
226 96 307 38 46 121 87 176 87 35 0 49 -6 82 -37z"/>
<path d="M64164 62247 c-175 -45 -293 -239 -249 -409 8 -34 25 -76 36 -94 46
-76 145 -134 296 -175 128 -35 153 -55 153 -119 0 -35 -38 -80 -67 -80 -34 0
-122 28 -155 48 -18 12 -51 39 -72 61 -89 92 -204 73 -237 -38 -19 -62 0 -109
69 -177 112 -109 236 -164 371 -164 101 0 168 24 238 85 169 149 163 436 -12
557 -22 15 -85 41 -140 59 -192 61 -215 73 -215 116 0 69 83 81 226 32 81 -27
95 -29 133 -19 108 29 108 191 -1 254 -102 58 -276 88 -374 63z"/>
<path d="M68550 62210 c-30 -11 -79 -35 -108 -53 l-53 -33 -56 28 c-68 34
-118 36 -164 5 -76 -50 -85 -138 -23 -207 l34 -37 0 -348 c0 -303 2 -351 17
-382 25 -53 66 -75 132 -70 45 3 59 9 82 35 15 17 33 48 38 69 7 23 11 154 11
325 l0 286 52 47 c101 91 164 106 228 55 80 -63 147 -64 200 -3 30 34 32 40
28 101 -4 64 -5 66 -56 113 -95 87 -236 114 -362 69z"/>
<path d="M67584 62200 c-280 -43 -507 -287 -554 -593 -28 -190 51 -372 195
-446 137 -70 348 -68 471 4 l45 26 34 -30 c19 -17 53 -35 75 -41 87 -23 171
52 155 138 -4 19 -27 76 -52 125 -39 79 -46 102 -54 186 -5 53 -9 191 -7 306
3 207 2 211 -21 249 -15 24 -39 45 -65 56 -50 22 -152 31 -222 20z m33 -443
c1 -94 6 -199 11 -232 12 -70 10 -73 -63 -115 -92 -53 -180 -37 -239 43 -46
62 -16 233 58 330 52 69 163 142 221 146 6 1 11 -64 12 -172z"/>
<path d="M64915 62180 c-28 -11 -61 -49 -75 -85 -17 -43 -26 -493 -11 -570 26
-141 128 -283 243 -339 132 -64 302 -44 426 51 19 14 37 21 41 16 35 -52 69
-84 102 -97 49 -20 72 -20 109 -1 69 36 80 131 25 229 -56 100 -69 174 -65
366 2 91 4 209 4 262 l1 98 -38 37 c-32 32 -44 38 -81 38 -127 0 -173 -125
-163 -445 l5 -174 -31 -41 c-38 -49 -51 -60 -99 -85 -49 -26 -87 -25 -128 3
-77 52 -93 134 -84 432 l7 220 -29 34 c-43 52 -108 73 -159 51z"/>
<path d="M66257 62160 c-163 -52 -286 -188 -334 -370 -20 -79 -23 -234 -4
-310 34 -139 133 -280 233 -331 105 -54 254 -68 374 -36 34 10 65 17 68 17 3
0 6 -30 6 -67 -1 -128 -42 -176 -163 -193 -80 -12 -140 1 -238 50 -88 44 -134
50 -180 23 -60 -36 -77 -140 -32 -202 27 -37 194 -118 283 -137 139 -30 317
-2 415 66 59 41 114 104 141 165 50 109 54 152 54 688 0 546 2 528 -60 581
-37 30 -97 35 -143 11 -26 -13 -32 -13 -65 4 -124 62 -246 76 -355 41z m240
-284 c18 -9 49 -30 68 -47 l35 -31 0 -179 0 -179 -62 -31 c-105 -53 -224 -50
-289 9 -57 51 -87 225 -54 316 20 57 75 132 109 150 39 20 148 16 193 -8z"/>
<path d="M57299 62140 c-45 -13 -68 -30 -84 -60 -21 -41 -23 -943 -1 -994 28
-66 128 -85 197 -36 56 41 59 58 59 398 l0 309 43 46 c23 25 54 48 68 52 35 9
103 -10 136 -39 36 -31 42 -90 43 -416 0 -142 5 -271 10 -292 23 -82 117 -103
196 -43 62 47 64 59 64 400 0 338 -1 335 65 375 58 36 143 20 178 -33 14 -21
16 -73 19 -355 3 -316 4 -332 24 -359 30 -41 81 -65 127 -59 53 6 86 31 109
82 18 42 19 65 16 392 l-3 347 -34 62 c-67 124 -198 211 -332 221 -93 6 -149
-11 -227 -71 -44 -33 -69 -47 -77 -41 -137 102 -270 130 -400 85 -32 -11 -57
-15 -61 -10 -16 27 -96 50 -135 39z"/>
<path d="M58895 62140 c-41 -12 -91 -67 -102 -110 -5 -19 -6 -228 -3 -465 5
-407 6 -432 25 -464 58 -99 159 -102 229 -7 21 27 21 39 21 484 0 439 -1 458
-20 491 -36 62 -92 88 -150 71z"/>
<path d="M39160 73589 c-1445 -113 -2709 -617 -3761 -1500 -172 -144 -583
-556 -723 -724 -577 -694 -990 -1456 -1275 -2356 -47 -149 -121 -416 -121
-437 0 -12 -12 -14 -72 -8 -524 46 -1005 26 -1536 -65 -1313 -224 -2561 -835
-3347 -1641 -323 -330 -570 -678 -785 -1103 -596 -1183 -683 -2607 -230 -3805
622 -1648 2116 -2677 4160 -2864 363 -34 614 -36 4315 -36 4616 0 6007 13
8130 75 1616 48 3715 150 4315 211 1946 196 3450 1105 4186 2529 250 482 397
977 461 1547 23 211 23 682 0 898 -88 791 -346 1509 -782 2170 -289 438 -698
875 -1135 1212 -790 608 -1800 1004 -2902 1138 -331 40 -443 45 -923 45 -567
-1 -818 -20 -1340 -102 -126 -20 -244 -38 -262 -41 -38 -5 -33 -22 -62 223
-187 1582 -1096 2939 -2536 3785 -282 165 -705 362 -1020 473 -534 189 -1034
300 -1637 363 -180 19 -934 28 -1118 13z m1030 -844 c1057 -102 2009 -454
2775 -1025 554 -412 971 -905 1270 -1500 281 -561 425 -1153 441 -1820 7 -293
25 -366 111 -461 108 -119 270 -166 432 -125 107 28 407 87 611 121 1216 200
2321 134 3284 -195 224 -77 411 -156 638 -272 1314 -667 2167 -1886 2298
-3283 15 -161 12 -527 -5 -690 -87 -817 -420 -1521 -990 -2090 -691 -690
-1690 -1115 -2915 -1240 -249 -25 -1270 -85 -2115 -125 -1911 -89 -3620 -129
-6385 -151 -1676 -13 -7616 -4 -7880 12 -760 46 -1393 202 -1965 484 -1081
532 -1754 1487 -1912 2710 -26 201 -26 750 0 950 97 744 360 1394 793 1955
117 152 406 441 574 574 799 634 1916 1064 3017 1161 344 30 805 16 1098 -35
66 -12 145 -25 175 -30 160 -28 351 73 424 222 14 30 45 141 70 254 336 1510
1071 2700 2176 3521 865 643 1914 1017 3066 1093 190 12 722 4 914 -15z"/>
<path d="M40208 70140 c-76 -40 -116 -133 -96 -223 20 -95 120 -167 209 -151
46 9 113 48 132 77 66 101 24 260 -80 303 -46 20 -121 17 -165 -6z"/>
<path d="M36253 70129 c-89 -11 -237 -53 -339 -96 -136 -57 -204 -135 -204
-233 1 -39 37 -109 63 -121 l24 -11 7 -621 c8 -726 11 -766 48 -803 78 -78
254 -9 287 113 6 21 11 128 11 239 l0 201 95 7 c52 3 101 9 109 12 13 5 125
-117 437 -472 70 -79 121 -121 169 -135 94 -28 201 65 204 177 1 59 -53 135
-194 274 -64 63 -146 151 -183 194 l-65 79 61 45 c248 182 363 490 274 733
-80 222 -309 382 -598 419 -93 11 -116 11 -206 -1z m270 -359 c96 -30 156 -74
190 -140 56 -108 22 -238 -88 -338 -95 -87 -203 -126 -408 -147 l-67 -7 2 313
3 313 45 12 c76 20 248 17 323 -6z"/>
<path d="M39330 69628 c-278 -44 -520 -392 -520 -750 0 -218 51 -361 173 -483
112 -112 235 -165 387 -165 174 0 365 94 435 214 56 95 35 195 -49 235 -74 36
-147 24 -226 -39 -182 -144 -357 -53 -384 200 -9 78 8 164 48 245 69 138 148
205 241 205 55 0 86 -13 151 -66 109 -87 233 -79 295 18 29 47 23 141 -13 196
-80 120 -357 218 -538 190z"/>
<path d="M40240 69609 c-72 -30 -121 -112 -122 -202 -2 -238 15 -1029 23
-1059 11 -44 50 -93 90 -113 73 -38 177 4 218 88 22 44 22 47 19 603 l-3 559
-28 48 c-15 26 -39 55 -53 64 -31 20 -110 27 -144 12z"/>
<path d="M40866 69587 c-58 -15 -112 -73 -126 -139 -8 -38 -10 -284 -8 -898 3
-944 -2 -879 75 -937 32 -24 45 -28 104 -28 64 0 70 2 103 34 23 22 39 50 46
80 6 25 14 163 17 307 l6 261 126 6 c333 17 548 161 638 430 25 74 27 96 28
227 0 155 -16 233 -70 340 -68 135 -194 248 -323 291 -113 38 -273 25 -383
-31 l-40 -21 -21 26 c-38 48 -106 69 -172 52z m539 -370 c90 -51 150 -186 143
-321 -4 -89 -38 -151 -112 -207 -68 -51 -133 -71 -253 -77 l-103 -4 0 232 0
232 50 58 c88 102 191 135 275 87z"/>
<path d="M37955 69564 c-146 -31 -303 -114 -404 -214 -103 -102 -156 -236
-168 -430 -10 -165 30 -321 112 -435 141 -197 336 -285 568 -255 202 27 424
114 496 196 96 109 70 232 -55 263 -60 15 -83 10 -217 -54 -62 -29 -137 -59
-167 -66 -84 -20 -198 -16 -251 9 -52 24 -96 58 -87 67 3 3 79 26 168 50 170
47 315 103 390 150 69 43 149 125 179 180 23 44 26 61 26 150 0 87 -3 107 -26
155 -98 206 -300 289 -564 234z m215 -337 c26 -9 37 -20 44 -45 23 -83 -49
-123 -431 -235 -46 -14 -83 -22 -83 -18 0 19 29 110 43 138 44 84 216 171 342
172 28 0 66 -5 85 -12z"/>
<path d="M42701 69570 c-232 -49 -458 -200 -526 -354 -100 -227 -88 -529 28
-710 118 -182 292 -280 497 -280 106 0 171 12 310 56 174 55 261 109 303 187
64 117 3 224 -128 225 -40 0 -71 -10 -155 -52 -125 -61 -210 -85 -305 -85 -90
0 -142 15 -190 56 l-38 33 74 21 c41 12 116 33 166 47 409 113 585 295 528
543 -30 133 -127 245 -252 294 -65 25 -233 35 -312 19z m214 -354 c27 -18 34
-61 15 -96 -12 -23 -78 -61 -155 -89 -65 -25 -322 -101 -338 -101 -15 0 1 76
28 129 35 70 129 133 248 166 64 18 168 13 202 -9z"/>
<path d="M43675 69501 c-51 -23 -101 -79 -116 -131 -17 -58 1 -152 39 -199 68
-86 191 -106 288 -46 65 41 97 102 97 188 0 70 -15 107 -60 149 -61 58 -169
75 -248 39z"/>
<path d="M43708 68676 c-120 -33 -176 -130 -149 -257 15 -69 52 -116 115 -145
66 -31 126 -31 191 0 84 39 125 105 125 202 0 144 -136 241 -282 200z"/>
<path d="M37422 67080 c-176 -63 -252 -207 -252 -477 l0 -102 -40 -11 c-79
-21 -115 -112 -76 -188 18 -35 69 -72 99 -72 16 0 17 -20 17 -287 0 -170 4
-303 11 -326 14 -52 63 -105 103 -112 45 -9 97 15 132 61 l29 37 3 312 3 312
110 5 c89 5 118 10 156 29 89 46 106 134 38 207 l-33 37 -136 3 -136 4 0 113
c0 123 7 152 41 184 31 29 70 26 159 -9 85 -33 116 -36 165 -16 61 26 86 116
52 183 -54 103 -299 166 -445 113z"/>
<path d="M38040 67008 c-84 -43 -80 -7 -80 -726 0 -513 3 -639 14 -665 31 -76
156 -145 240 -134 105 14 130 142 45 233 -20 21 -20 38 -22 622 l-2 601 -30
32 c-29 31 -81 59 -108 59 -7 0 -33 -10 -57 -22z"/>
<path d="M41136 66609 c-32 -11 -82 -35 -111 -54 l-53 -33 -53 26 c-100 50
-182 31 -223 -52 -24 -49 -15 -96 30 -145 l34 -38 0 -347 c0 -378 2 -395 56
-433 84 -58 186 -19 213 82 7 24 11 151 11 326 l0 287 41 37 c63 56 129 95
165 95 21 0 47 -12 79 -37 36 -27 61 -37 96 -41 46 -4 51 -2 89 36 37 36 40
44 40 93 0 67 -23 107 -85 152 -97 68 -216 85 -329 46z"/>
<path d="M38829 66567 c-285 -103 -462 -478 -366 -772 45 -138 124 -231 242
-286 111 -52 197 -55 318 -9 160 60 320 253 363 436 22 96 15 285 -15 369 -42
118 -118 202 -228 252 -84 39 -222 43 -314 10z m200 -262 c73 -37 106 -115 99
-235 -10 -175 -129 -320 -261 -320 -40 0 -53 5 -86 36 -80 72 -94 218 -32 349
63 135 194 215 280 170z"/>
<path d="M39663 66579 c-45 -13 -80 -59 -93 -126 -20 -93 -17 -484 3 -560 24
-90 62 -159 123 -223 142 -149 343 -167 523 -46 l49 33 37 -44 c79 -94 187
-97 230 -7 22 48 16 120 -14 163 -67 94 -91 262 -72 505 7 91 10 181 7 201 -8
40 -61 99 -99 109 -39 9 -97 -15 -128 -54 -50 -62 -60 -129 -57 -363 l3 -207
-43 -50 c-103 -120 -215 -121 -270 -2 l-27 57 0 265 c0 237 -2 269 -18 293
-30 46 -99 71 -154 56z"/>
<path d="M39820 64612 c-65 -36 -75 -66 -79 -254 l-3 -168 -57 0 c-76 0 -120
-24 -148 -81 -19 -37 -21 -50 -13 -80 19 -68 83 -109 170 -109 l49 0 3 -347
c2 -285 6 -353 18 -377 33 -65 140 -92 197 -50 62 45 62 51 56 430 l-6 344 89
0 c133 1 195 35 210 117 8 43 -28 118 -67 138 -19 10 -59 15 -126 15 l-98 0 0
169 c0 156 -2 172 -21 197 -50 67 -115 88 -174 56z"/>
<path d="M41914 64212 c-28 -10 -79 -34 -112 -54 l-62 -37 -42 24 c-61 35
-117 41 -163 19 -89 -42 -101 -167 -23 -231 l23 -18 0 -355 c0 -336 1 -357 20
-388 19 -31 85 -72 116 -72 8 0 33 9 57 20 33 15 47 29 62 62 18 39 20 67 20
338 l0 296 53 51 c97 95 166 115 227 65 49 -41 74 -52 112 -52 77 0 136 74
123 157 -8 58 -66 122 -143 160 -73 35 -192 42 -268 15z"/>
<path d="M37051 64203 c-115 -58 -98 -175 116 -826 61 -186 86 -225 159 -247
36 -11 47 -10 85 7 54 24 58 31 166 311 l78 203 32 -68 c18 -37 44 -99 59
-138 49 -127 100 -230 133 -268 82 -93 186 -62 254 78 53 108 267 757 267 810
0 140 -142 195 -238 92 -14 -15 -38 -75 -63 -158 -93 -310 -121 -391 -129
-383 -11 11 -88 210 -140 361 -22 62 -47 124 -56 138 -21 32 -63 55 -100 55
-41 0 -107 -36 -126 -67 -8 -16 -53 -120 -98 -233 -46 -113 -86 -209 -90 -213
-9 -11 -62 180 -95 341 -28 138 -31 145 -73 185 -38 36 -94 44 -141 20z"/>
<path d="M38980 64185 c-210 -58 -380 -225 -457 -449 -25 -72 -28 -95 -28
-211 0 -122 2 -134 29 -193 37 -81 122 -162 203 -193 43 -16 87 -23 169 -27
124 -5 200 10 267 54 l38 25 38 -34 c70 -63 167 -56 211 15 30 49 25 85 -28
194 -27 54 -52 116 -56 137 -4 21 -7 157 -7 302 0 254 0 265 -22 306 -34 64
-79 83 -202 86 -65 2 -119 -3 -155 -12z m98 -417 c1 -90 6 -194 11 -233 12
-79 7 -88 -63 -128 -57 -33 -90 -39 -139 -26 -86 22 -135 102 -121 197 24 160
107 273 242 328 31 13 60 24 63 24 4 0 7 -73 7 -162z"/>
<path d="M40785 64185 c-164 -35 -326 -139 -390 -250 -41 -70 -68 -189 -69
-300 0 -172 52 -297 170 -404 105 -96 232 -134 381 -112 150 21 315 83 376
140 95 87 69 215 -46 228 -42 5 -60 0 -146 -40 -118 -56 -182 -71 -273 -65
-53 4 -77 11 -108 33 -23 16 -37 31 -33 35 4 4 55 20 113 35 353 92 500 207
500 391 0 133 -97 264 -224 303 -77 24 -161 26 -251 6z m189 -278 c12 -9 17
-23 14 -47 -5 -56 -61 -85 -294 -154 l-115 -34 6 31 c14 69 47 118 99 152 28
18 72 40 96 48 55 20 170 22 194 4z"/>
<path d="M41571 62342 c-63 -34 -76 -75 -80 -258 l-3 -162 -67 -4 c-98 -5
-151 -53 -151 -136 0 -76 72 -132 169 -132 l50 0 3 -342 c4 -383 6 -401 70
-434 43 -23 115 -23 150 0 51 34 62 86 55 280 -3 96 -3 246 0 335 l6 161 79 0
c162 0 237 72 193 186 -26 69 -58 84 -177 84 l-98 0 0 164 c0 153 -1 165 -22
196 -49 72 -117 95 -177 62z"/>
<path d="M40685 61980 c-75 -11 -119 -34 -179 -90 -75 -71 -110 -150 -110
-250 -1 -173 108 -282 347 -345 72 -19 98 -31 120 -55 35 -39 36 -82 1 -117
-22 -22 -31 -25 -71 -19 -67 9 -133 42 -183 91 -79 78 -158 92 -214 40 -32
-30 -50 -93 -42 -142 10 -52 116 -155 214 -206 181 -96 359 -81 480 39 126
126 147 317 53 467 -41 64 -103 101 -241 144 -161 50 -190 66 -190 103 0 17 9
39 21 51 19 19 29 21 83 16 34 -3 83 -15 108 -26 68 -29 111 -35 153 -21 65
22 92 99 61 174 -22 52 -78 90 -174 119 -101 30 -167 37 -237 27z"/>
<path d="M37174 61946 c-39 -17 -71 -58 -85 -109 -9 -35 -7 -51 26 -144 71
-208 158 -346 316 -507 l98 -99 -81 -141 c-45 -77 -96 -165 -114 -193 -55 -87
-94 -171 -94 -203 0 -117 120 -182 211 -115 38 29 61 63 124 185 24 47 93 173
155 280 202 355 348 681 390 873 14 66 -1 117 -45 156 -30 26 -44 31 -85 31
-41 0 -55 -5 -84 -30 -28 -25 -40 -49 -66 -133 -36 -114 -102 -287 -151 -390
l-32 -68 -30 28 c-50 47 -142 167 -181 236 -20 36 -52 113 -70 170 -41 128
-56 151 -107 171 -47 19 -55 19 -95 2z"/>
<path d="M38612 61911 c-174 -44 -334 -157 -388 -274 -61 -135 -71 -345 -21
-479 43 -118 138 -222 249 -273 139 -64 274 -57 506 27 106 38 186 108 198
172 14 78 -42 136 -131 136 -21 0 -66 -16 -113 -39 -42 -21 -102 -46 -131 -55
-73 -22 -175 -20 -226 3 -42 19 -71 46 -58 54 4 3 60 19 123 35 332 89 481
205 483 377 2 88 -25 155 -89 224 -71 77 -130 103 -244 107 -60 3 -107 -2
-158 -15z m208 -281 c42 -42 16 -85 -76 -126 -54 -24 -280 -94 -302 -94 -30 0
1 96 46 143 27 29 104 73 152 88 14 4 55 8 93 8 54 1 71 -3 87 -19z"/>
<path d="M39763 61916 c-274 -67 -495 -359 -496 -656 -1 -204 95 -345 272
-401 127 -39 326 -19 410 41 l32 22 31 -31 c88 -86 220 -49 234 65 5 33 -3 56
-47 144 l-52 105 -8 150 c-5 83 -6 209 -3 280 4 83 2 145 -5 170 -12 47 -61
97 -110 114 -44 14 -192 13 -258 -3z m90 -324 c-4 -53 6 -252 20 -386 1 -14
-16 -32 -56 -60 -51 -35 -65 -40 -112 -40 -69 1 -117 30 -144 88 -24 48 -26
74 -10 148 18 85 54 154 107 207 55 55 140 103 194 110 4 1 4 -29 1 -67z"/>
<path d="M12305 73174 c-27 -2 -120 -8 -205 -14 -1111 -79 -2208 -449 -3130
-1054 -954 -627 -1734 -1540 -2235 -2614 -164 -353 -319 -772 -420 -1139 -64
-230 -59 -218 -81 -216 -193 19 -398 25 -675 20 -425 -7 -685 -35 -1114 -122
-1287 -260 -2503 -897 -3225 -1690 -219 -241 -435 -536 -591 -810 -200 -351
-378 -799 -479 -1210 -189 -769 -194 -1557 -14 -2295 42 -174 154 -512 219
-665 584 -1374 1798 -2295 3435 -2609 322 -62 607 -96 969 -117 292 -16 7869
-18 9016 -1 2963 42 4836 105 6890 232 632 39 972 83 1407 181 782 176 1511
500 2073 922 353 266 702 622 953 974 231 324 436 730 564 1118 262 796 287
1667 73 2510 -199 779 -586 1489 -1149 2105 -800 874 -1954 1471 -3256 1684
-831 136 -1763 124 -2680 -34 -90 -16 -166 -28 -167 -27 -1 2 -9 66 -18 142
-163 1438 -848 2635 -2006 3510 -889 671 -2010 1085 -3249 1200 -154 15 -787
28 -905 19z m750 -845 c1555 -110 2948 -811 3766 -1895 333 -440 576 -947 708
-1479 84 -339 131 -709 131 -1035 0 -81 5 -171 10 -200 33 -174 172 -310 347
-341 71 -13 69 -13 383 54 355 76 694 127 1080 164 145 14 283 18 645 18 483
0 616 -8 950 -56 1502 -216 2706 -965 3402 -2117 754 -1249 758 -2769 8 -3912
-133 -203 -249 -344 -440 -536 -324 -325 -616 -532 -1050 -744 -533 -262
-1112 -423 -1790 -499 -577 -65 -2763 -172 -4510 -221 -2042 -57 -3497 -70
-7965 -70 -3616 0 -3897 3 -4230 35 -1323 130 -2334 637 -2974 1492 -369 492
-584 1052 -668 1743 -20 164 -17 690 5 870 63 504 192 934 412 1369 238 470
544 850 946 1172 703 564 1676 975 2674 1128 537 83 1134 78 1563 -13 128 -28
219 -16 322 40 62 34 139 115 169 180 12 26 36 108 52 182 133 609 293 1078
539 1577 291 592 619 1055 1055 1490 428 428 892 761 1430 1025 928 456 1965
654 3030 579z"/>
<path d="M13065 70146 c-61 -28 -115 -110 -115 -177 0 -132 114 -228 234 -198
57 14 121 69 137 116 14 45 7 139 -15 182 -26 50 -99 91 -160 91 -28 -1 -64
-7 -81 -14z"/>
<path d="M9095 70129 c-87 -13 -207 -46 -294 -79 -171 -67 -230 -123 -239
-226 -5 -65 10 -105 53 -142 l33 -27 4 -670 c5 -742 4 -727 69 -760 70 -37
199 9 244 85 18 32 20 57 25 260 l5 225 85 7 c47 4 95 10 107 13 23 6 56 -26
209 -200 341 -389 380 -424 465 -410 76 13 148 103 149 186 0 54 -46 117 -204
279 -168 172 -242 258 -230 269 5 4 37 29 71 54 177 134 283 340 283 550 0
261 -201 485 -505 562 -109 28 -244 38 -330 24z m320 -377 c121 -57 168 -120
168 -229 0 -51 -7 -76 -32 -128 -72 -145 -228 -225 -488 -251 l-73 -7 0 311 0
310 33 11 c61 19 72 20 197 18 118 -3 129 -5 195 -35z"/>
<path d="M12180 69629 c-113 -19 -202 -72 -309 -184 -56 -60 -81 -97 -125
-187 -75 -156 -90 -222 -90 -388 1 -221 50 -356 175 -481 176 -177 438 -209
668 -82 154 85 223 227 158 324 -50 76 -164 91 -247 33 -103 -71 -125 -84
-166 -90 -68 -10 -111 3 -159 47 -69 64 -90 122 -90 259 0 110 2 118 33 185
72 152 154 225 254 225 56 0 79 -10 161 -73 90 -68 176 -73 244 -14 152 133
14 337 -274 407 -95 23 -173 29 -233 19z"/>
<path d="M13068 69600 c-39 -21 -81 -69 -94 -110 -4 -14 -7 -263 -5 -555 2
-592 4 -607 66 -669 38 -39 85 -52 142 -41 51 9 117 76 133 135 18 67 3 1101
-17 1150 -40 98 -137 136 -225 90z"/>
<path d="M13745 69595 c-5 -2 -22 -6 -37 -9 -37 -8 -85 -51 -108 -97 -19 -37
-20 -64 -20 -903 0 -587 3 -874 11 -893 13 -34 55 -80 91 -99 63 -33 165 -8
202 48 25 39 36 151 36 394 l0 231 128 6 c155 8 231 25 342 79 155 75 267 215
316 398 24 89 24 271 0 365 -78 305 -327 502 -587 465 -69 -10 -143 -32 -190
-56 -24 -12 -28 -11 -59 21 -18 18 -44 36 -59 40 -14 3 -33 8 -41 10 -8 2 -19
2 -25 0z m511 -380 c104 -61 168 -249 129 -381 -14 -47 -28 -70 -73 -115 -80
-79 -144 -102 -282 -103 l-105 -1 -3 227 -2 227 60 65 c100 107 188 133 276
81z"/>
<path d="M10821 69570 c-161 -34 -309 -108 -414 -209 -71 -68 -103 -118 -139
-223 -32 -90 -33 -98 -33 -258 0 -151 3 -171 26 -241 31 -91 84 -174 160 -250
165 -165 375 -204 657 -123 195 57 296 110 348 185 25 36 29 52 29 106 0 60
-2 67 -32 93 -38 34 -102 54 -146 45 -18 -4 -77 -29 -132 -55 -130 -63 -202
-83 -300 -83 -88 0 -164 25 -205 68 l-21 22 118 32 c346 94 516 180 603 306
123 179 37 446 -177 552 -71 35 -80 37 -186 39 -62 2 -132 -1 -156 -6z m214
-354 c20 -13 25 -25 25 -56 0 -48 -31 -75 -137 -119 -67 -28 -341 -111 -364
-111 -17 0 -2 66 27 128 34 70 127 134 247 167 64 18 168 14 202 -9z"/>
<path d="M15525 69564 c-103 -23 -209 -68 -301 -129 -137 -91 -194 -167 -240
-320 -24 -78 -27 -108 -28 -230 -2 -230 41 -343 183 -486 126 -126 239 -174
411 -173 183 1 460 89 557 178 51 46 87 125 78 173 -9 51 -57 99 -111 112 -59
15 -90 8 -189 -42 -155 -77 -271 -104 -377 -87 -61 9 -147 52 -155 77 -3 7 16
18 49 27 267 73 324 92 425 141 192 94 280 198 291 344 5 77 -15 159 -55 228
-38 65 -134 148 -200 174 -76 29 -236 35 -338 13z m215 -337 c47 -16 62 -65
34 -105 -30 -41 -152 -96 -337 -150 l-169 -50 7 37 c10 53 42 122 73 154 88
92 288 150 392 114z"/>
<path d="M16532 69507 c-92 -35 -136 -104 -130 -206 7 -126 77 -200 198 -209
215 -16 318 270 142 393 -36 24 -54 30 -110 32 -37 1 -82 -3 -100 -10z"/>
<path d="M16542 68671 c-60 -21 -108 -61 -128 -108 -17 -39 -17 -136 -1 -178
49 -128 210 -174 328 -95 51 33 74 68 89 135 26 114 -33 217 -141 249 -66 20
-82 20 -147 -3z"/>
<path d="M11000 65770 c-108 -23 -209 -102 -252 -198 -31 -69 -48 -169 -48
-288 l0 -112 -33 -6 c-39 -7 -85 -51 -96 -92 -17 -65 27 -142 95 -164 l33 -11
3 -307 c3 -301 3 -308 26 -345 31 -50 59 -67 106 -67 52 0 100 32 125 84 20
40 21 59 21 342 l0 299 93 1 c116 2 172 17 213 58 43 43 53 93 27 143 -34 65
-69 78 -211 78 l-122 0 0 121 c0 109 2 124 23 155 37 55 62 58 164 18 125 -48
185 -41 230 27 21 33 21 105 0 138 -59 90 -261 154 -397 126z"/>
<path d="M11565 65682 c-16 -11 -39 -29 -50 -42 -20 -22 -20 -36 -20 -685 l0
-663 31 -39 c61 -76 193 -118 258 -83 70 37 73 153 6 220 l-21 21 1 587 c0
542 -1 590 -17 621 -37 71 -128 101 -188 63z"/>
<path d="M14703 65295 c-48 -13 -146 -59 -184 -87 -13 -9 -27 -6 -70 15 -110
55 -211 20 -233 -80 -9 -39 22 -115 53 -135 21 -13 21 -19 21 -361 0 -272 3
-355 14 -380 46 -107 188 -116 243 -15 16 29 18 67 21 340 l3 307 56 51 c103
94 152 105 229 48 61 -45 101 -54 148 -34 97 40 103 190 10 261 -91 69 -214
97 -311 70z"/>
<path d="M12421 65259 c-69 -13 -181 -71 -238 -123 -110 -100 -190 -261 -212
-429 -18 -133 12 -261 87 -375 64 -98 202 -180 317 -190 217 -17 474 204 540
463 19 76 19 241 0 324 -56 235 -265 375 -494 330z m159 -291 c57 -39 75 -88
75 -203 0 -94 -2 -104 -34 -167 -97 -193 -273 -235 -354 -85 -18 35 -22 58
-22 133 0 84 3 95 37 165 20 40 52 89 70 106 74 72 167 92 228 51z"/>
<path d="M13164 65241 c-53 -32 -65 -74 -75 -259 -11 -207 1 -384 30 -467 98
-276 383 -376 627 -220 l53 34 38 -45 c78 -91 182 -92 229 -2 25 48 17 100
-27 185 -66 129 -80 248 -57 515 13 157 6 197 -40 241 -60 58 -152 41 -196
-37 -39 -67 -48 -140 -45 -356 l4 -198 -41 -48 c-43 -51 -114 -94 -156 -94
-40 0 -91 41 -118 95 -25 50 -25 52 -25 322 l0 271 -25 27 c-50 54 -122 69
-176 36z"/>
<path d="M13326 63270 c-45 -40 -56 -92 -56 -264 l0 -133 -66 -6 c-127 -10
-192 -105 -137 -199 25 -43 94 -78 154 -78 l48 0 3 -342 c3 -243 8 -352 16
-374 19 -46 81 -78 143 -72 56 6 85 27 106 77 12 29 14 73 8 257 -4 122 -4
273 0 336 l7 115 87 5 c147 9 212 62 196 159 -15 85 -71 119 -199 119 l-84 0
-4 168 c-3 156 -5 169 -26 200 -50 69 -137 83 -196 32z"/>
<path d="M15492 62899 c-50 -9 -139 -49 -183 -80 l-30 -21 -58 26 c-70 31
-124 33 -168 6 -50 -30 -66 -62 -61 -121 4 -41 12 -57 42 -88 l36 -37 0 -361
c0 -350 1 -361 21 -387 67 -85 193 -69 235 31 11 25 14 100 14 332 l0 299 52
47 c95 85 166 107 216 66 49 -39 110 -63 145 -56 67 15 115 91 102 163 -14 76
-100 148 -210 177 -65 16 -88 17 -153 4z"/>
<path d="M10584 62880 c-11 -4 -33 -22 -47 -40 -23 -27 -27 -41 -27 -93 0 -78
14 -138 100 -422 127 -423 151 -479 216 -510 58 -27 121 -16 160 29 17 19 36
55 43 78 13 41 149 390 156 396 4 5 49 -95 101 -223 89 -222 144 -295 221
-295 65 0 114 41 161 136 12 23 76 205 142 405 106 317 121 371 118 415 -11
128 -132 174 -227 85 -22 -21 -38 -55 -66 -147 -94 -307 -129 -414 -136 -407
-9 11 -125 317 -145 384 -37 124 -78 169 -153 169 -62 0 -105 -28 -134 -87
-13 -26 -57 -131 -97 -233 -40 -102 -76 -188 -80 -193 -8 -10 -63 186 -94 339
-26 133 -42 172 -82 203 -28 22 -90 27 -130 11z"/>
<path d="M12534 62865 c-173 -37 -344 -174 -433 -344 -63 -121 -84 -213 -79
-340 6 -139 31 -205 104 -279 130 -130 372 -162 547 -72 l59 29 38 -30 c71
-57 169 -50 210 16 30 49 25 84 -32 202 l-52 108 -6 300 c-5 276 -7 303 -25
334 -28 47 -61 69 -124 81 -70 13 -131 12 -207 -5z m79 -472 c3 -115 9 -220
12 -235 7 -25 2 -30 -55 -68 -50 -31 -73 -40 -108 -40 -120 0 -185 89 -162
223 24 133 101 241 213 297 100 50 94 61 100 -177z"/>
<path d="M14295 62856 c-155 -44 -287 -125 -350 -216 -67 -97 -104 -273 -85
-411 15 -108 41 -175 98 -250 128 -172 314 -226 557 -164 54 13 134 42 180 64
102 50 137 90 143 167 4 46 1 56 -21 78 -31 31 -93 49 -133 37 -16 -5 -68 -27
-115 -50 -155 -73 -291 -78 -369 -12 l-33 28 124 32 c279 74 426 160 479 283
60 139 -19 327 -168 399 -59 29 -228 37 -307 15z m211 -277 c10 -8 14 -25 12
-48 -3 -33 -8 -39 -63 -68 -58 -30 -332 -119 -341 -111 -9 10 28 109 53 138
27 32 99 74 168 97 47 15 149 11 171 -8z"/>
<path d="M45590 57889 c-731 -82 -1403 -571 -1776 -1294 -195 -376 -287 -748
-288 -1155 0 -239 28 -433 94 -657 266 -898 1059 -1572 2000 -1699 138 -18
426 -18 560 1 470 66 896 283 1249 636 630 630 899 1551 691 2364 -172 677
-647 1253 -1295 1571 -392 192 -842 277 -1235 233z m335 -829 c681 -64 1277
-599 1406 -1262 26 -132 30 -362 10 -493 -86 -551 -425 -1041 -879 -1270 -196
-99 -331 -130 -567 -129 -136 0 -191 5 -271 22 -473 101 -878 406 -1093 822
-69 135 -111 248 -143 391 -20 90 -23 131 -23 299 0 146 5 217 18 282 76 376
246 690 513 949 238 229 506 360 798 388 118 12 112 12 231 1z"/>
<path d="M71950 57890 c-591 -73 -1112 -372 -1505 -865 -278 -349 -461 -757
-536 -1200 -26 -154 -36 -460 -20 -615 84 -799 576 -1510 1303 -1881 343 -175
688 -259 1061 -259 248 0 429 28 650 101 137 44 340 139 465 217 334 207 641
536 850 909 158 281 276 650 312 968 16 144 13 419 -5 560 -134 1025 -986
1885 -2031 2051 -118 18 -438 27 -544 14z m454 -846 c375 -63 763 -307 1008
-635 349 -466 393 -1066 119 -1624 -225 -457 -599 -769 -1035 -862 -122 -27
-388 -24 -523 5 -565 122 -1035 547 -1197 1085 -47 154 -60 250 -60 432 0 136
4 192 22 283 106 529 437 984 877 1204 250 126 496 160 789 112z"/>
<path d="M18427 57504 c-724 -105 -1373 -607 -1733 -1339 -342 -697 -351
-1446 -24 -2120 230 -474 623 -868 1104 -1105 230 -113 423 -175 686 -222 164
-29 509 -32 665 -5 474 83 869 289 1215 637 406 406 664 936 742 1520 18 141
15 460 -6 600 -97 637 -427 1179 -960 1577 -331 247 -744 414 -1146 463 -118
14 -426 11 -543 -6z m578 -844 c54 -12 142 -37 195 -57 532 -199 920 -634
1036 -1164 29 -129 26 -466 -4 -604 -67 -303 -208 -588 -404 -814 -216 -251
-509 -425 -798 -477 -115 -20 -330 -20 -455 1 -341 57 -698 258 -927 521 -276
318 -406 703 -377 1117 48 666 531 1295 1124 1463 172 49 419 54 610 14z"/>
<path d="M43155 52143 c-202 -24 -324 -53 -478 -113 -397 -158 -755 -498 -933
-888 -44 -97 -98 -266 -121 -377 -27 -136 -25 -415 5 -552 139 -641 661 -1129
1372 -1280 114 -25 144 -27 350 -27 195 0 239 3 327 22 372 81 690 265 941
545 242 270 391 611 423 967 25 288 -52 606 -211 865 -93 152 -274 351 -420
462 -267 202 -604 336 -942 372 -92 10 -246 12 -313 4z m390 -863 c320 -87
589 -334 651 -596 20 -83 14 -240 -11 -324 -86 -283 -334 -523 -620 -601 -120
-33 -323 -31 -457 4 -335 88 -592 321 -659 597 -18 75 -15 221 5 300 80 307
363 574 677 640 79 16 324 5 414 -20z"/>
<path d="M16415 52123 c-209 -16 -444 -83 -636 -179 -99 -49 -262 -162 -364
-252 -264 -230 -462 -566 -536 -904 -86 -392 -2 -803 234 -1153 92 -136 303
-342 447 -438 210 -139 451 -238 700 -289 101 -20 143 -23 340 -23 194 1 239
4 327 23 458 100 845 365 1096 752 113 175 196 374 239 574 30 139 32 439 4
566 -91 418 -331 761 -706 1012 -336 224 -768 342 -1145 311z m370 -863 c96
-26 239 -92 326 -150 81 -55 204 -180 248 -253 170 -286 115 -612 -149 -878
-194 -195 -409 -281 -665 -265 -471 29 -865 373 -865 756 0 368 311 728 701
810 78 16 314 5 404 -20z"/>
<path d="M69740 51905 c-607 -84 -1128 -494 -1364 -1076 -35 -84 -75 -231 -92
-338 -17 -103 -18 -324 -3 -424 88 -586 519 -1080 1129 -1292 560 -195 1123
-119 1595 214 109 76 315 285 397 401 131 185 233 416 279 628 30 142 36 375
15 517 -33 213 -133 454 -263 638 -78 111 -287 317 -403 399 -114 81 -331 194
-454 237 -278 98 -575 132 -836 96z m460 -850 c306 -83 565 -304 651 -555 29
-85 32 -253 5 -349 -93 -341 -395 -601 -743 -642 -173 -21 -362 15 -538 101
-338 164 -520 469 -464 776 57 311 347 608 663 680 86 19 339 13 426 -11z"/>
<path d="M13435 48994 c-352 -36 -567 -81 -867 -184 -844 -287 -1606 -891
-2121 -1682 -200 -307 -320 -550 -436 -884 l-56 -162 -95 60 c-284 180 -626
299 -980 339 -148 17 -503 6 -640 -20 -297 -55 -543 -145 -775 -284 -198 -119
-411 -297 -593 -497 -822 -904 -969 -2097 -435 -3529 218 -585 555 -1224 996
-1886 257 -385 584 -833 671 -919 l59 -58 -13 -257 c-37 -717 1 -1143 141
-1572 l41 -125 -35 -140 c-46 -177 -94 -412 -103 -495 -6 -65 -6 -65 -53 -90
-139 -73 -293 -191 -411 -315 -382 -401 -544 -943 -430 -1432 125 -532 537
-981 1081 -1180 l100 -37 83 -250 c320 -959 724 -1736 1226 -2360 l97 -121
-66 13 c-49 11 -81 11 -131 4 -89 -14 -120 -28 -253 -114 -377 -246 -685 -550
-902 -892 -135 -214 -258 -514 -306 -750 -12 -60 -27 -115 -33 -122 -6 -6
-150 -89 -321 -184 -1137 -632 -1934 -1124 -2592 -1601 -1062 -770 -1857
-1556 -2445 -2418 -732 -1075 -1180 -2347 -1423 -4043 -94 -659 -145 -1193
-240 -2492 -74 -1015 -100 -1315 -185 -2090 -129 -1182 -157 -1598 -147 -2190
9 -541 51 -920 147 -1350 107 -479 295 -979 515 -1366 83 -145 248 -389 356
-524 193 -243 492 -523 739 -691 87 -59 100 -72 153 -157 73 -114 214 -400
260 -527 130 -352 181 -626 197 -1065 13 -357 40 -523 115 -707 63 -155 197
-318 339 -413 147 -97 267 -134 465 -143 l145 -7 -60 -24 c-313 -128 -821
-370 -1043 -496 -433 -247 -628 -436 -757 -735 -153 -353 -128 -700 73 -1003
64 -97 217 -253 335 -343 301 -226 757 -422 1436 -614 l222 -64 -187 -96
c-866 -444 -1453 -999 -1651 -1561 -55 -157 -75 -268 -76 -434 0 -170 16 -272
66 -413 77 -219 196 -400 388 -592 274 -274 571 -435 955 -517 124 -26 143
-27 400 -28 236 0 286 3 400 23 439 76 903 244 1425 514 395 205 699 385 1485
885 226 143 493 311 595 372 l186 112 374 -185 c1402 -688 2328 -995 3330
-1103 230 -24 780 -24 999 0 281 32 539 91 932 213 2210 685 6864 3045 8704
4414 434 323 711 592 830 804 44 80 79 187 101 311 24 138 25 407 0 529 -57
291 -172 503 -390 722 l-121 122 47 52 c96 103 165 229 216 390 48 151 70 295
92 600 29 387 119 751 270 1085 83 183 165 324 393 677 279 431 464 869 597
1413 94 383 141 694 182 1205 17 208 17 1083 0 1345 -56 867 -140 1533 -377
2985 -253 1546 -264 1660 -300 2890 -29 1017 -52 1400 -111 1880 -118 974
-367 1742 -792 2455 -446 747 -1116 1479 -1992 2175 -438 349 -814 616 -1800
1280 -900 606 -1411 975 -1744 1257 l-69 58 -28 110 c-142 556 -444 1064 -814
1371 -191 159 -323 234 -411 234 -13 0 -24 2 -24 4 0 2 29 46 64 97 287 424
562 960 764 1495 75 199 159 448 210 624 22 74 46 137 53 141 8 4 66 32 129
62 398 190 694 521 828 922 65 194 77 278 77 520 0 192 -3 234 -23 328 -89
416 -308 762 -630 996 l-70 51 -7 67 c-20 196 -107 646 -164 852 -11 41 -19
77 -16 80 2 4 17 74 34 156 68 341 99 755 81 1085 -6 106 -13 210 -16 232 -6
36 -3 43 33 81 22 23 83 99 137 169 53 70 181 230 284 355 716 874 947 1173
1245 1614 523 775 844 1481 976 2144 54 274 65 385 65 685 1 238 -2 296 -23
430 -80 535 -292 1041 -570 1357 -302 344 -714 567 -1210 655 -168 29 -487 32
-661 5 -344 -54 -674 -180 -958 -366 -77 -51 -124 -76 -127 -68 -2 6 -20 70
-40 141 -137 480 -387 953 -720 1361 -49 60 -155 177 -235 259 -591 605 -1316
979 -2095 1081 -115 16 -457 27 -540 19z m425 -844 c439 -53 871 -236 1278
-540 151 -112 430 -385 551 -538 255 -324 452 -712 554 -1092 58 -217 97 -483
97 -670 0 -191 38 -297 137 -391 127 -120 299 -148 460 -74 75 34 109 65 203
184 259 328 546 541 877 650 177 59 290 75 496 68 139 -4 191 -10 272 -30 273
-70 504 -216 656 -416 111 -146 250 -480 298 -716 64 -319 59 -675 -14 -1025
-112 -530 -376 -1098 -816 -1760 -284 -427 -494 -701 -1192 -1553 l-219 -266
-51 23 c-29 13 -97 45 -152 71 -384 181 -877 369 -1312 501 -717 216 -1386
343 -2173 410 -251 21 -1006 30 -1278 15 -1315 -74 -2522 -386 -3648 -942
-110 -54 -203 -99 -207 -99 -5 0 -209 276 -354 480 -111 156 -357 533 -470
720 -510 847 -802 1593 -878 2246 -17 148 -20 460 -5 584 63 523 298 958 707
1311 165 142 299 221 475 280 509 171 1097 52 1439 -290 101 -101 167 -198
226 -335 54 -124 72 -154 127 -204 171 -158 425 -147 586 24 85 91 101 140
111 339 25 489 112 824 320 1235 270 536 666 983 1164 1314 397 264 784 418
1215 481 106 16 407 18 520 5z m-144 -7994 c1065 -85 2024 -318 2978 -727 292
-124 287 -121 307 -195 69 -256 77 -762 19 -1148 -11 -71 -22 -131 -24 -133
-1 -2 -68 22 -147 53 -745 291 -1713 507 -2656 593 -416 38 -583 45 -1068 45
-573 0 -878 -17 -1380 -80 -911 -113 -1846 -363 -2610 -698 -44 -19 -83 -32
-87 -28 -9 9 -43 192 -59 317 -16 116 -18 580 -5 847 l8 177 227 114 c1063
533 2184 818 3461 881 166 8 855 -4 1036 -18z m-41 -2357 c238 -11 575 -40
805 -70 242 -31 610 -94 565 -96 -308 -19 -539 -77 -790 -198 -467 -225 -855
-648 -1012 -1102 l-28 -83 -101 0 c-56 0 -121 -3 -146 -6 l-44 -6 -38 118
c-21 66 -68 182 -105 259 -260 539 -715 897 -1304 1027 l-108 24 78 13 c763
122 1437 158 2228 120z m2519 -446 c268 -88 525 -188 722 -283 l141 -67 17
-94 c34 -185 56 -356 66 -509 9 -160 21 -211 65 -286 32 -54 113 -127 173
-154 122 -57 156 -76 212 -124 110 -93 200 -239 242 -394 28 -103 31 -316 5
-412 -40 -149 -130 -290 -244 -385 -81 -68 -255 -155 -368 -186 -107 -29 -168
-61 -225 -119 -65 -64 -93 -124 -135 -287 -171 -661 -452 -1343 -774 -1877
-600 -993 -1396 -1628 -2340 -1866 -806 -203 -1613 -79 -2326 358 -641 393
-1194 1041 -1629 1910 -199 397 -386 876 -532 1360 -77 256 -92 291 -159 358
-67 67 -136 99 -280 127 -245 49 -441 167 -577 346 -100 133 -148 266 -148
411 0 107 20 190 70 297 108 231 301 400 511 449 80 19 132 46 191 102 105 98
128 165 138 392 6 126 15 212 34 305 46 223 22 191 209 278 89 42 200 92 247
112 80 35 409 165 417 165 2 0 -36 -34 -86 -75 -319 -268 -545 -635 -637
-1035 -139 -604 72 -1285 546 -1761 219 -220 448 -366 729 -463 661 -230 1437
-33 1967 498 263 264 408 524 510 913 6 24 88 56 154 61 l66 4 12 -63 c18 -89
68 -249 108 -347 l34 -83 -5 -512 c-6 -459 -14 -657 -31 -701 -12 -30 -106 16
-221 109 -85 69 -152 101 -240 116 -58 10 -80 10 -145 -5 -134 -30 -232 -109
-292 -236 -29 -60 -31 -73 -31 -171 0 -101 1 -108 38 -181 41 -83 84 -128 221
-230 209 -156 408 -234 623 -245 377 -20 694 189 822 543 50 136 71 260 78
445 l6 166 111 -53 c400 -192 832 -229 1275 -108 530 144 1007 530 1248 1009
122 242 180 466 190 741 20 518 -167 1031 -514 1413 -120 133 -306 278 -474
371 -92 51 -74 47 215 -47z m-4940 -518 c315 -55 556 -215 720 -477 158 -254
216 -595 146 -863 -55 -214 -218 -444 -415 -584 l-48 -35 6 33 c16 77 19 253
7 366 -29 288 -118 505 -269 656 -114 113 -226 159 -391 159 -153 0 -275 -47
-371 -143 -99 -98 -206 -342 -240 -546 -16 -93 -13 -312 4 -401 8 -41 13 -77
12 -79 -8 -7 -128 115 -180 184 -114 149 -192 314 -227 485 -26 127 -21 337
12 450 49 171 171 364 312 495 264 244 605 355 922 300z m4039 -66 c212 -42
398 -145 540 -299 317 -342 395 -868 185 -1248 -68 -124 -201 -276 -309 -352
l-32 -23 6 34 c4 19 10 104 13 189 10 247 -29 456 -121 647 -121 250 -298 373
-539 373 -303 0 -483 -178 -594 -589 -24 -88 -26 -113 -26 -291 0 -180 2 -203
27 -294 15 -55 25 -101 24 -102 -2 -2 -39 27 -82 65 -213 181 -359 442 -401
716 -63 403 156 816 556 1049 241 141 475 180 753 125z m757 -6140 c-238
-1051 -594 -1814 -1164 -2494 -107 -128 -527 -555 -546 -555 -5 0 -38 18 -72
41 -243 157 -581 240 -862 210 -205 -22 -396 -88 -546 -186 l-82 -54 -130 55
c-166 70 -426 200 -588 294 -393 229 -711 471 -1016 775 -297 296 -494 564
-649 880 -156 318 -213 536 -233 896 l-7 126 145 -134 c330 -302 638 -517 999
-697 409 -204 829 -329 1311 -388 162 -20 651 -17 825 5 966 124 1841 560
2544 1271 52 52 96 94 98 92 2 -1 -10 -63 -27 -137z m803 -676 c106 -221 172
-446 208 -713 17 -122 17 -467 0 -590 -143 -1047 -910 -1748 -2156 -1973
l-130 -24 -8 91 -7 91 37 34 c354 321 467 433 659 652 531 603 907 1274 1179
2104 40 121 88 275 106 342 19 68 37 123 40 123 3 0 35 -62 72 -137z m-7398
-256 c13 -60 107 -302 166 -425 442 -933 1410 -1814 2564 -2334 72 -32 129
-62 128 -66 -26 -120 -36 -185 -40 -269 l-6 -101 -106 -8 c-789 -54 -1730 362
-2568 1134 -272 250 -469 534 -537 773 -100 353 -24 761 208 1113 68 103 167
226 178 220 3 -3 10 -19 13 -37z m9165 -1677 c52 -37 331 -226 620 -420 1193
-803 1609 -1110 2150 -1588 190 -168 538 -514 683 -679 726 -830 1099 -1598
1277 -2628 90 -521 125 -981 155 -2020 41 -1424 55 -1565 300 -3067 198 -1213
276 -1765 335 -2383 85 -894 86 -1672 5 -2310 -27 -211 -90 -553 -105 -569 -4
-4 -39 10 -77 32 -375 218 -802 362 -1268 428 -155 21 -569 30 -736 15 -261
-24 -536 -80 -758 -156 -58 -19 -109 -35 -114 -35 -6 0 -9 171 -7 448 3 578
-10 894 -44 1057 -62 295 -187 566 -384 835 -11 16 -5 24 55 75 179 150 458
298 733 389 288 95 538 137 820 138 269 0 459 -35 643 -120 109 -51 174 -66
252 -59 298 28 470 335 338 603 -61 124 -204 216 -473 302 -249 80 -439 107
-755 107 -369 0 -679 -49 -1043 -164 l-92 -29 33 47 c165 227 564 813 585 859
24 50 27 69 27 162 0 94 -3 111 -28 164 -113 243 -393 324 -614 179 -68 -45
-68 -45 -299 -378 l-198 -286 -73 608 c-319 2672 -560 4370 -837 5913 -346
1927 -745 3453 -1170 4478 -30 73 -49 129 -43 125 7 -4 55 -37 107 -73z
m-10632 -337 c-915 -3217 -1490 -6544 -1713 -9903 -37 -565 -70 -1269 -81
-1735 -3 -154 -9 -304 -13 -334 l-6 -53 -68 118 c-95 165 -224 432 -290 599
-121 309 -176 533 -183 754 -6 195 -26 252 -120 351 -232 243 -636 122 -705
-210 -16 -77 -5 -327 20 -472 42 -241 120 -504 227 -766 30 -74 54 -135 54
-136 0 -1 -92 43 -204 99 -287 144 -529 222 -836 270 -165 26 -486 31 -660 11
-271 -32 -554 -106 -646 -169 -223 -153 -243 -466 -42 -652 73 -68 145 -97
254 -103 69 -3 97 1 190 27 369 107 753 102 1100 -14 434 -144 1052 -581 1331
-941 33 -41 133 -210 133 -223 0 -3 -25 -42 -56 -86 -195 -279 -376 -646 -476
-967 -18 -59 -37 -106 -43 -104 -5 3 -55 23 -110 46 -372 155 -849 200 -1260
119 -618 -122 -1199 -512 -1638 -1101 l-65 -88 -41 98 c-279 665 -396 1425
-362 2352 18 480 40 744 141 1675 88 808 113 1096 210 2415 88 1200 156 1827
271 2515 265 1576 745 2738 1547 3738 746 931 1757 1752 3292 2673 224 134
931 542 941 543 3 1 -39 -155 -93 -346z m9754 70 c97 -214 263 -669 378 -1036
587 -1876 1054 -4541 1600 -9117 34 -283 103 -864 154 -1290 51 -426 92 -776
91 -777 0 -1 -58 20 -127 47 -306 121 -626 180 -1168 215 -1342 85 -2140 77
-2838 -31 -90 -14 -306 -54 -480 -89 -465 -93 -514 -100 -747 -99 -169 0 -216
4 -305 23 -210 45 -415 121 -818 302 -136 61 -315 140 -399 175 -973 406
-1677 460 -2368 182 -55 -22 -246 -112 -425 -198 -336 -164 -432 -203 -585
-238 -200 -47 -390 -65 -860 -82 -345 -13 -502 -24 -690 -51 -361 -52 -713
-162 -1047 -328 -54 -26 -98 -43 -98 -37 1 86 22 869 30 1076 137 3655 699
7269 1682 10818 l23 83 41 -43 42 -43 -44 -275 c-202 -1282 -342 -2818 -409
-4490 -25 -647 -37 -1129 -38 -1620 l-2 -475 32 -66 c41 -82 121 -160 205
-199 52 -23 124 -39 403 -84 1260 -205 2368 -296 3615 -296 1346 0 2628 114
3935 351 567 102 1260 254 1342 295 108 52 198 167 223 284 20 93 -4 1009 -45
1730 -87 1517 -280 2961 -612 4573 l-55 268 60 92 c101 157 226 398 256 495 4
12 10 22 12 22 3 0 19 -30 36 -67z m-4032 -782 c31 -11 80 -36 109 -54 48 -30
56 -41 83 -108 75 -187 30 -401 -113 -534 -79 -72 -144 -97 -276 -103 -84 -3
-114 -1 -170 16 -152 47 -229 137 -240 283 -18 234 110 453 300 515 63 21 237
13 307 -15z m-4035 -481 c651 -465 1394 -758 2078 -821 145 -13 551 -7 661 10
38 6 71 9 73 7 2 -2 -16 -61 -41 -130 -225 -620 -299 -1327 -210 -2011 61
-470 202 -924 421 -1359 75 -148 95 -180 152 -237 81 -81 147 -109 267 -117
168 -10 240 33 520 313 226 226 329 349 483 580 262 394 425 826 472 1247 l12
107 116 -108 c202 -189 340 -299 533 -429 272 -182 596 -341 899 -443 152 -51
279 -37 398 42 73 49 132 127 160 212 26 78 41 282 41 548 0 503 -72 920 -227
1314 -125 318 -249 513 -460 724 -79 79 -142 144 -141 145 2 1 46 19 98 41
150 60 417 199 550 286 67 44 127 81 133 82 6 1 14 -16 18 -38 4 -22 30 -160
58 -307 284 -1496 446 -2938 500 -4433 25 -680 25 -652 4 -659 -36 -11 -443
-96 -649 -135 -2319 -442 -4691 -496 -7039 -160 -192 27 -359 52 -369 55 -19
6 -19 18 -12 388 26 1472 114 2961 247 4176 42 392 128 1067 145 1153 6 31 1
33 109 -43z m5387 -945 c199 -35 369 -151 491 -333 105 -157 209 -414 256
-634 36 -167 73 -458 58 -458 -10 0 -102 56 -209 128 -428 287 -780 687 -1018
1154 l-70 136 42 7 c135 23 320 23 450 0z m-1732 -532 c363 -347 470 -711 350
-1179 -68 -263 -197 -523 -380 -769 l-74 -100 -37 116 c-193 603 -207 1303
-39 1937 29 109 34 120 50 112 10 -6 69 -58 130 -117z m-1585 -9423 c370 -34
712 -143 1340 -425 418 -188 610 -264 815 -323 489 -142 839 -142 1538 0 l253
51 62 -27 c108 -46 254 -135 522 -314 143 -96 261 -176 262 -176 1 -1 -43
-199 -97 -441 -64 -279 -100 -460 -100 -496 0 -159 96 -308 241 -373 30 -13
257 -72 504 -131 422 -100 455 -106 535 -103 70 3 98 10 153 35 87 41 159 113
200 201 30 62 32 74 32 172 -1 133 -23 195 -100 279 -82 88 -135 111 -406 175
-129 31 -238 56 -241 56 -3 0 23 125 58 278 116 511 120 531 107 605 -25 148
-92 236 -248 329 l-100 60 325 -6 c464 -8 1264 -50 1555 -82 516 -56 837 -203
1046 -479 145 -191 223 -402 236 -635 7 -136 34 -105 -210 -239 -231 -127
-678 -349 -947 -471 -1638 -744 -3515 -1262 -5085 -1404 -594 -54 -1208 -55
-1675 -3 l-104 12 -62 89 c-292 419 -765 794 -1369 1087 -1127 545 -2600 761
-3820 559 -336 -56 -533 -115 -752 -226 l-123 -62 76 149 c141 276 295 489
519 718 385 394 836 660 1337 786 211 54 431 76 948 95 398 15 595 33 822 77
l88 16 217 -214 c422 -416 815 -723 1293 -1011 241 -145 221 -145 811 -24 257
53 473 96 480 96 29 0 201 -295 304 -520 59 -130 128 -313 170 -455 54 -183
76 -225 152 -296 182 -171 483 -136 622 72 85 127 92 233 32 440 -124 421
-304 812 -548 1184 -202 306 -282 392 -410 436 -99 34 -150 27 -708 -86 -413
-84 -520 -103 -537 -94 -98 53 -401 265 -580 407 -193 153 -459 395 -447 406
13 12 206 103 298 141 122 50 227 79 338 94 163 23 230 24 378 11z m8492
-3167 c-14 -709 -52 -1449 -132 -2588 -19 -269 -48 -697 -65 -950 -17 -253
-33 -482 -36 -510 l-5 -50 -127 -101 c-245 -195 -569 -430 -579 -421 -3 4 -9
361 -14 794 -6 523 -13 805 -20 838 -51 222 -277 365 -498 314 -122 -28 -247
-133 -293 -246 -22 -54 -23 -73 -26 -303 -2 -135 1 -625 7 -1089 9 -776 8
-846 -7 -857 -25 -18 -367 -212 -572 -324 -300 -163 -1025 -522 -1027 -508 -1
7 -7 436 -13 952 -13 994 -12 993 -61 1088 -27 54 -101 131 -153 162 -110 65
-268 74 -380 23 -112 -52 -187 -132 -228 -245 -25 -67 -24 -5 -7 -1420 7 -542
8 -937 3 -941 -23 -21 -710 -291 -1069 -421 -231 -84 -517 -181 -521 -177 -2
1 -34 538 -73 1192 -39 655 -75 1229 -80 1277 -16 140 -65 232 -164 305 -209
153 -505 85 -621 -145 -54 -108 -56 -44 33 -1526 45 -747 80 -1360 78 -1362
-1 -1 -113 -32 -247 -68 -369 -98 -884 -215 -897 -203 -3 4 4 87 16 184 72
594 137 1352 176 2048 31 570 36 744 42 1375 9 1045 -27 1663 -134 2294 -6 36
-4 39 13 32 10 -4 186 -10 389 -13 486 -7 864 11 1375 68 1787 197 3941 849
5635 1704 154 78 282 143 284 143 2 1 1 -145 -2 -325z m-11777 242 c1189 -119
2234 -529 2809 -1102 l113 -114 -178 -121 c-324 -218 -680 -494 -1003 -775
-198 -173 -681 -656 -716 -716 -82 -143 -74 -331 20 -458 20 -28 147 -138 317
-275 156 -125 363 -292 460 -371 l176 -143 -324 -811 c-192 -477 -330 -835
-336 -870 -21 -123 29 -265 127 -358 127 -120 302 -149 462 -76 61 28 145 103
178 160 33 56 783 1927 802 2000 27 106 1 234 -70 332 -20 28 -182 166 -429
365 -219 176 -398 324 -398 328 0 10 180 179 325 305 225 196 566 460 812 629
l111 76 11 -52 c19 -95 40 -259 60 -463 96 -963 72 -2469 -64 -4040 -41 -472
-117 -1150 -130 -1163 -4 -5 -4934 1576 -4955 1588 -10 6 -132 575 -210 985
-226 1183 -385 2373 -481 3605 -24 303 -20 418 20 572 104 401 405 724 796
851 157 52 489 106 775 126 179 13 735 5 920 -14z m-4000 -272 c168 -27 327
-87 465 -174 l70 -44 -135 -6 c-442 -21 -861 -160 -1231 -407 -289 -193 -501
-407 -691 -696 l-78 -120 -141 141 -141 141 38 69 c239 434 571 771 944 958
297 149 575 192 900 138z m18140 -407 c318 -43 652 -154 906 -299 129 -73 244
-149 244 -160 0 -14 -78 -164 -136 -259 -63 -104 -130 -199 -211 -301 l-55
-68 -66 62 c-202 189 -522 405 -769 521 -372 172 -749 261 -1168 275 l-180 6
80 38 c207 97 497 171 779 199 121 12 445 4 576 -14z m-17584 -652 l81 -7 7
-96 c45 -638 135 -1504 222 -2126 19 -137 38 -271 41 -297 l6 -47 -44 40 c-24
22 -73 54 -108 72 -62 30 -72 32 -176 32 -99 0 -116 -3 -168 -27 -142 -67
-184 -127 -272 -386 -123 -365 -222 -513 -373 -558 -68 -21 -98 -18 -121 12
-42 53 -57 158 -71 504 -11 282 -27 427 -75 666 -77 379 -214 757 -396 1087
l-71 129 26 68 c36 92 131 248 210 346 256 318 670 545 1062 583 123 12 129
12 220 5z m16504 -425 c380 -44 763 -207 1075 -458 109 -87 257 -223 320 -296
l58 -65 -52 -169 c-98 -318 -147 -589 -176 -961 -25 -322 -58 -451 -117 -458
-46 -5 -125 37 -177 94 -85 92 -143 230 -221 523 -46 176 -74 233 -142 297
-147 138 -375 151 -531 32 -32 -25 -170 -175 -322 -350 -146 -170 -268 -308
-271 -308 -17 0 -94 23 -94 28 0 4 22 324 50 712 50 713 90 1312 90 1362 0 27
1 27 78 31 104 6 328 -2 432 -14z m-273 -3079 c241 -71 499 -149 573 -173 693
-227 1024 -447 1090 -726 8 -35 11 -96 8 -177 -6 -149 -7 -151 -171 -311
-1171 -1142 -6723 -4025 -9047 -4698 -346 -100 -509 -128 -834 -145 -762 -40
-1643 150 -2651 572 -379 159 -934 419 -1403 658 -263 134 -323 149 -457 115
-109 -29 -437 -222 -1175 -690 -733 -466 -1073 -666 -1449 -855 -752 -376
-1326 -493 -1731 -352 -232 81 -466 281 -561 480 -38 79 -49 188 -30 281 18
81 90 222 168 326 387 514 1367 1065 2261 1270 84 19 174 46 200 59 155 79
247 258 221 431 -21 137 -109 252 -248 324 -169 88 -348 144 -976 306 -499
129 -701 187 -953 271 -447 150 -780 328 -889 477 -35 47 -38 57 -38 117 1 56
6 75 40 139 47 89 120 152 314 267 320 192 820 418 1800 813 l419 169 17 -76
c67 -309 128 -575 142 -617 31 -97 96 -177 186 -229 23 -14 1309 -432 2857
-930 1548 -497 2835 -912 2860 -921 92 -33 156 -30 455 19 1242 207 2718 663
4205 1299 1657 708 3093 1541 4090 2370 168 140 200 172 231 230 10 20 24 37
29 37 5 0 206 -58 447 -130z m-15981 -263 l46 -57 -34 -14 c-155 -65 -412
-165 -415 -162 -2 2 18 23 46 46 58 49 162 170 217 253 l38 59 28 -34 c15 -18
48 -59 74 -91z"/>
<path d="M12795 32468 c-276 -28 -577 -135 -805 -286 -116 -77 -184 -147 -223
-229 -30 -63 -32 -75 -32 -174 0 -101 1 -108 38 -181 95 -194 319 -284 517
-209 25 10 88 47 140 82 172 118 338 169 550 169 200 0 369 -49 526 -151 90
-59 126 -75 204 -89 122 -22 266 26 358 120 180 183 155 476 -54 631 -328 242
-785 361 -1219 317z"/>
<path d="M7610 12046 c-97 -27 -182 -87 -240 -170 -103 -151 -90 -368 32 -501
32 -36 223 -179 546 -411 274 -197 505 -364 514 -373 16 -15 -21 -65 -563
-756 -319 -407 -591 -758 -604 -780 -30 -50 -55 -145 -55 -205 0 -54 21 -137
48 -189 29 -55 885 -1197 940 -1254 56 -58 145 -103 230 -118 126 -22 267 27
361 126 123 130 151 310 74 465 -16 31 -181 259 -367 509 -309 412 -338 455
-327 473 7 12 281 363 610 782 328 418 607 775 619 793 61 86 82 235 49 345
-10 31 -37 85 -60 120 -40 58 -85 92 -727 555 -377 272 -709 510 -739 530
-100 67 -231 90 -341 59z"/>
<path d="M63105 48544 c-454 -33 -733 -86 -1075 -203 -531 -181 -965 -453
-1370 -860 -605 -606 -1003 -1411 -1130 -2286 -38 -260 -51 -626 -32 -863 6
-60 4 -81 -4 -78 -7 3 -70 15 -140 27 -106 19 -166 23 -339 23 -268 1 -444
-24 -695 -99 -550 -163 -1023 -504 -1320 -953 -194 -293 -330 -661 -391 -1057
-27 -171 -36 -505 -20 -697 63 -747 372 -1501 872 -2129 120 -151 208 -248
379 -423 490 -500 1055 -922 2035 -1521 88 -54 166 -103 172 -109 10 -9 9 -24
-8 -71 -17 -50 -20 -76 -16 -155 4 -87 9 -108 65 -250 240 -618 528 -1119 929
-1617 l122 -153 -49 -65 c-228 -301 -325 -714 -254 -1075 111 -561 580 -969
1183 -1030 58 -6 150 -8 205 -4 l101 6 59 -86 c187 -277 440 -587 669 -823
l150 -153 19 -267 c13 -172 16 -269 10 -271 -22 -7 -222 -149 -312 -220 -122
-97 -330 -300 -432 -422 -254 -303 -433 -666 -513 -1041 -13 -61 -25 -112 -27
-113 -1 -1 -136 -76 -298 -166 -889 -492 -1503 -860 -2090 -1251 -851 -567
-1426 -1033 -2015 -1630 -419 -425 -711 -782 -1010 -1234 -179 -269 -285 -452
-435 -750 -568 -1126 -888 -2423 -1064 -4320 -36 -378 -59 -674 -106 -1315
-78 -1075 -106 -1396 -190 -2155 -117 -1067 -150 -1514 -150 -2049 1 -1204
241 -2169 744 -2991 268 -437 668 -860 1045 -1104 52 -33 73 -56 116 -124 185
-291 330 -650 399 -987 39 -194 55 -341 66 -613 11 -293 21 -383 56 -527 75
-303 245 -529 489 -652 126 -64 340 -107 469 -93 59 6 53 2 -154 -88 -615
-270 -1000 -472 -1242 -655 -109 -82 -238 -212 -296 -299 -52 -77 -122 -216
-155 -309 -68 -191 -80 -408 -33 -589 83 -317 311 -582 691 -804 285 -167 731
-338 1266 -487 l177 -49 -159 -82 c-996 -515 -1593 -1124 -1730 -1763 -29
-135 -31 -374 -5 -490 61 -274 186 -502 394 -721 261 -274 547 -445 897 -534
180 -46 291 -59 500 -59 515 0 1037 151 1745 505 405 202 718 386 1495 879
404 256 662 417 790 492 l60 35 156 -78 c1268 -632 2135 -959 2974 -1123 377
-73 601 -96 990 -103 541 -9 841 31 1355 181 1945 567 6138 2628 8355 4106
762 508 1196 888 1349 1180 75 144 110 322 110 565 0 189 -14 281 -65 438 -68
208 -169 368 -345 544 l-122 121 40 39 c61 59 150 199 191 299 68 171 97 320
122 634 19 245 29 323 61 484 77 392 231 765 460 1112 41 63 74 116 74 118 0
3 37 63 83 133 303 466 510 990 637 1613 96 473 137 878 147 1470 13 775 -52
1596 -213 2705 -41 283 -76 504 -254 1605 -171 1057 -192 1283 -225 2425 -25
867 -44 1234 -85 1655 -128 1286 -455 2210 -1109 3125 -211 295 -443 567 -755
884 -656 664 -1196 1084 -2691 2091 -956 644 -1388 954 -1779 1278 -71 59
-147 119 -169 134 -58 40 -143 69 -216 73 l-64 4 -32 93 c-194 570 -646 1029
-1161 1180 -57 17 -74 26 -70 38 2 8 36 85 74 170 294 654 466 1457 534 2495
18 273 17 1111 -2 1420 -20 331 -19 420 5 535 16 79 20 134 19 320 0 196 -3
238 -23 330 -114 525 -419 975 -856 1263 -49 32 -92 61 -94 63 -9 8 34 45 76
66 63 31 138 111 173 182 45 92 52 156 35 316 -65 587 -223 1115 -493 1644
l-90 177 29 53 c16 29 54 143 84 252 69 247 133 456 285 924 65 201 145 451
178 555 360 1138 492 1943 442 2687 -62 915 -351 1663 -863 2229 -397 440
-919 707 -1532 785 -171 21 -470 21 -630 -1 -257 -34 -513 -109 -721 -211
-140 -68 -324 -190 -434 -287 l-84 -75 -56 49 c-129 116 -269 230 -381 309
-553 396 -1235 650 -1947 725 -137 15 -492 26 -587 19z m455 -844 c873 -80
1668 -489 2163 -1115 96 -122 124 -148 203 -186 215 -104 445 -22 563 202 165
311 446 500 856 577 115 21 445 23 555 4 382 -69 647 -200 891 -442 403 -399
643 -972 709 -1695 13 -141 13 -554 0 -710 -34 -410 -143 -928 -315 -1500 -36
-121 -133 -430 -216 -686 -82 -257 -183 -574 -223 -705 -70 -227 -75 -239 -97
-237 -13 1 -69 7 -124 13 -55 6 -210 13 -345 17 -1874 46 -4466 -914 -6448
-2389 -336 -249 -662 -520 -952 -790 l-146 -135 -39 32 c-22 17 -134 89 -250
160 -1208 738 -1839 1249 -2299 1862 -127 169 -212 309 -316 518 -151 306
-243 592 -291 906 -29 189 -32 498 -6 669 57 373 199 686 416 913 221 232 567
411 904 468 174 30 427 23 572 -15 190 -50 329 -130 475 -275 70 -69 112 -102
160 -125 60 -29 73 -31 175 -31 98 0 116 3 167 27 118 55 200 151 233 272 27
100 17 185 -38 331 -120 317 -170 613 -170 995 0 252 13 386 59 623 123 632
460 1256 909 1686 474 453 1027 697 1735 764 85 9 425 6 530 -3z m4797 -7306
l73 -6 82 -131 c162 -260 327 -620 413 -902 40 -130 107 -406 101 -413 -3 -2
-82 2 -178 9 -218 15 -761 15 -978 0 -1443 -101 -2789 -537 -4015 -1303 -779
-487 -1495 -1122 -2054 -1821 -52 -64 -97 -117 -101 -117 -10 0 -152 183 -245
315 -110 157 -222 340 -320 522 -84 158 -215 440 -215 466 0 17 417 430 585
578 389 345 750 621 1220 934 1151 766 2447 1348 3690 1656 721 179 1407 254
1942 213z m-678 -2298 c-2 -2 -51 -39 -109 -82 -434 -325 -733 -847 -789
-1379 -6 -55 -12 -115 -13 -134 l-3 -33 -110 -28 c-60 -15 -140 -39 -176 -53
l-66 -25 -90 102 c-321 364 -768 586 -1260 628 -149 13 -339 1 -500 -31 -51
-10 -93 -17 -93 -16 0 2 60 36 133 78 920 521 1896 838 2967 966 93 11 115 12
109 7z m1324 -587 c417 -135 740 -551 764 -983 22 -414 -257 -861 -659 -1051
-142 -67 -244 -89 -408 -88 -111 1 -152 5 -233 26 -202 53 -371 147 -522 290
-199 187 -308 391 -336 631 -33 283 82 621 295 861 l44 50 -16 -75 c-25 -120
-22 -437 6 -563 128 -579 556 -1010 921 -926 181 41 312 195 378 444 24 91 26
117 27 295 1 209 -6 269 -55 459 -65 254 -170 459 -313 610 l-51 53 48 -7 c26
-3 76 -15 110 -26z m-5702 -1331 c-131 -201 -248 -517 -280 -753 -19 -138 -18
-136 -44 -131 -12 3 -121 12 -242 21 -121 9 -228 20 -237 23 -14 6 4 32 98
142 160 187 391 428 569 592 82 76 151 138 153 138 2 0 -6 -15 -17 -32z m2269
-145 c281 -225 452 -591 425 -913 -20 -248 -137 -497 -323 -692 -102 -106
-185 -168 -317 -234 -161 -80 -237 -97 -420 -97 -130 0 -163 4 -248 26 -199
53 -398 168 -547 317 -184 184 -289 406 -306 644 -21 291 111 627 335 855 70
72 193 171 211 171 4 0 2 -20 -5 -45 -39 -128 -44 -412 -10 -585 53 -273 182
-528 361 -719 271 -289 583 -371 812 -214 96 66 162 170 205 321 18 66 21 104
21 257 0 206 -16 304 -85 510 -60 181 -108 277 -238 475 l-16 24 33 -19 c19
-11 69 -48 112 -82z m1485 -788 c78 -214 151 -408 162 -430 26 -50 115 -136
171 -164 71 -36 159 -54 232 -47 60 6 69 4 118 -24 61 -36 112 -106 112 -155
0 -41 -34 -91 -86 -128 -59 -41 -105 -49 -183 -30 -245 57 -484 -118 -508
-372 -20 -213 125 -393 362 -452 105 -26 344 -23 447 5 390 106 671 378 774
748 10 36 18 116 21 205 l5 146 122 6 c314 15 642 126 920 312 l29 19 -6 -309
c-14 -694 -99 -1341 -247 -1884 -195 -717 -528 -1282 -880 -1491 -403 -240
-1251 -312 -2050 -174 -827 142 -1598 471 -2261 965 -551 410 -1024 934 -1400
1549 -76 125 -132 183 -216 222 -121 57 -223 56 -378 -2 -73 -28 -206 -37
-287 -21 -142 30 -283 132 -340 248 -28 56 -33 79 -36 158 -2 50 1 117 8 148
13 66 66 176 109 227 l29 36 670 -56 c369 -31 672 -58 674 -60 2 -3 23 -45 47
-94 262 -527 786 -924 1391 -1054 114 -24 145 -26 350 -27 195 0 240 3 336 23
772 156 1394 802 1540 1597 34 185 22 595 -21 707 -5 12 5 20 37 31 91 33 75
58 233 -378z m-2912 -4154 c23 -16 94 -60 157 -98 1178 -712 2644 -1017 3874
-808 343 59 708 188 925 329 39 25 72 42 74 38 21 -36 32 -172 31 -382 0 -215
-2 -246 -27 -360 -35 -169 -69 -282 -123 -414 -158 -386 -436 -781 -847 -1203
l-148 -151 -58 34 c-118 70 -276 127 -446 161 -120 23 -375 24 -501 0 -179
-33 -368 -108 -507 -201 -37 -25 -72 -46 -78 -46 -20 0 -223 91 -354 159 -594
309 -1107 770 -1482 1331 -191 287 -348 607 -451 920 -39 120 -42 135 -61 380
-12 140 -23 274 -26 298 -2 23 -2 42 1 42 3 0 24 -13 47 -29z m6033 -634 c154
-171 254 -394 284 -631 16 -128 7 -357 -20 -490 -144 -717 -689 -1440 -1425
-1892 -107 -65 -459 -244 -481 -244 -12 0 -24 44 -24 88 0 19 52 78 228 256
229 233 379 401 525 588 616 792 868 1594 760 2423 l-6 50 51 -44 c29 -23 77
-71 108 -104z m-6836 -151 c0 -27 75 -248 137 -406 447 -1133 1326 -2063 2444
-2584 l125 -59 -12 -76 c-7 -42 -13 -108 -13 -147 l-1 -71 -46 -7 c-83 -11
-336 -6 -466 9 -637 74 -1318 401 -1964 942 -651 546 -865 982 -753 1535 57
285 211 562 443 801 78 81 106 97 106 63z m8777 -1652 c125 -89 390 -270 588
-404 1136 -768 1243 -841 1595 -1103 864 -643 1478 -1236 1926 -1863 553 -773
820 -1514 943 -2619 42 -376 64 -753 86 -1515 41 -1435 57 -1599 300 -3075
307 -1870 398 -2697 398 -3645 0 -476 -20 -779 -74 -1155 -21 -149 -77 -442
-88 -461 -4 -8 -31 3 -81 33 -374 222 -843 375 -1335 435 -145 17 -606 17
-745 0 -251 -32 -483 -83 -686 -151 l-117 -39 6 437 c4 297 11 474 21 554 58
446 10 944 -135 1427 l-41 135 49 43 c185 166 503 314 798 372 140 28 424 38
575 20 182 -21 391 -81 541 -156 102 -51 170 -67 259 -62 256 15 442 269 376
514 -36 136 -121 227 -280 303 -289 138 -598 217 -949 243 -321 24 -721 -29
-1035 -136 -40 -14 -70 -21 -67 -15 4 5 120 172 258 372 295 423 290 416 311
486 50 170 -20 363 -165 460 -85 57 -151 74 -258 69 -104 -5 -192 -42 -261
-111 -25 -25 -137 -177 -250 -340 l-205 -295 -23 166 c-576 4209 -1152 7191
-1813 9387 -185 612 -435 1307 -614 1705 -84 186 -80 176 -56 159 11 -8 123
-86 248 -175z m-925 -389 c828 -1923 1611 -5516 2303 -10574 30 -223 55 -415
55 -427 0 -20 -10 -15 -91 45 -236 176 -545 341 -834 446 -784 284 -1607 297
-2382 36 -78 -26 -146 -44 -150 -40 -22 22 -291 177 -422 243 -555 281 -1140
444 -1786 497 -179 15 -675 6 -845 -16 -1232 -153 -2336 -755 -3072 -1675 -55
-69 -103 -128 -107 -132 -4 -4 -36 1 -71 12 -653 201 -1358 220 -2050 54 -284
-68 -556 -164 -815 -288 l-150 -72 2 80 c110 3797 678 7556 1696 11224 l23 83
42 -45 c31 -34 41 -52 37 -68 -30 -136 -143 -936 -200 -1413 -171 -1459 -284
-3387 -289 -4950 l-1 -470 33 -68 c42 -85 113 -157 194 -196 52 -25 110 -38
334 -76 870 -145 1620 -227 2629 -286 288 -17 1491 -23 1843 -10 1243 47 2376
180 3557 416 565 113 885 189 956 226 123 66 207 195 216 337 6 80 -11 690
-27 1037 -78 1601 -284 3268 -626 5060 -66 348 -198 992 -215 1055 -8 31 -4
47 38 138 l47 103 33 -73 c19 -40 62 -136 95 -213z m-9363 193 c-41 -137 -193
-680 -263 -939 -967 -3584 -1517 -7320 -1624 -11038 l-7 -244 -77 124 c-236
384 -395 745 -453 1034 -9 44 -19 138 -21 209 -7 182 -36 259 -133 350 -93 86
-225 128 -343 107 -171 -30 -301 -146 -342 -306 -19 -69 -21 -231 -6 -355 36
-291 145 -632 309 -967 39 -79 68 -143 66 -143 -2 0 -42 24 -87 54 -294 189
-645 319 -1023 378 -201 31 -559 31 -760 0 -260 -40 -482 -106 -564 -166 -299
-220 -179 -686 192 -748 70 -11 97 -7 289 46 159 44 307 59 521 53 153 -4 217
-11 313 -31 535 -113 983 -459 1240 -957 56 -109 126 -183 204 -219 30 -13 56
-25 58 -26 1 0 -17 -52 -42 -115 -104 -270 -221 -666 -282 -947 -23 -108 -31
-132 -44 -128 -8 2 -76 29 -150 60 -151 62 -348 116 -520 142 -158 24 -473 25
-630 1 -421 -65 -804 -234 -1170 -518 -185 -143 -443 -411 -588 -611 l-57 -78
-18 36 c-67 131 -195 514 -250 749 -114 484 -162 1065 -138 1680 19 468 48
809 156 1790 71 656 101 1005 190 2215 65 880 115 1421 176 1900 143 1128 355
1998 675 2778 83 203 319 673 431 862 754 1260 1891 2286 3816 3442 237 142
955 558 964 558 1 0 -3 -15 -8 -32z m5626 -1053 c32 -9 84 -29 115 -46 50 -26
60 -37 79 -84 56 -135 52 -275 -12 -409 -64 -134 -175 -216 -327 -238 -128
-19 -284 23 -372 100 -101 89 -114 309 -29 496 40 88 119 147 244 181 71 19
229 19 302 0z m2934 -380 c191 -1030 311 -1802 415 -2690 107 -906 185 -1963
198 -2670 l3 -149 -55 -13 c-143 -33 -770 -156 -980 -192 -2240 -384 -4513
-412 -6725 -85 -132 20 -260 38 -284 41 l-44 6 7 386 c23 1323 100 2717 211
3841 46 460 137 1216 176 1452 l11 68 86 -61 c660 -465 1336 -742 2012 -825
173 -21 549 -22 705 -1 61 8 112 13 114 11 2 -2 -15 -54 -38 -116 -169 -468
-251 -938 -251 -1453 0 -705 167 -1389 483 -1984 105 -198 181 -264 338 -297
102 -21 220 2 305 60 107 73 362 326 530 526 392 468 652 1057 699 1583 l7 78
110 -106 c414 -397 906 -699 1418 -871 95 -31 128 -38 190 -37 219 3 379 152
412 384 20 141 16 754 -5 929 -67 539 -229 998 -474 1343 -72 101 -275 307
-366 372 -38 26 -102 67 -143 90 l-74 43 115 72 c237 148 487 344 695 547 63
61 118 109 121 105 4 -4 39 -178 78 -387z m-1589 -1019 c104 -19 180 -48 264
-100 278 -173 479 -607 542 -1169 10 -81 14 -150 11 -153 -16 -16 -292 171
-457 309 -228 190 -435 422 -596 667 -115 175 -246 421 -232 435 23 23 356 31
468 11z m-1727 -526 c201 -188 335 -408 383 -625 26 -119 24 -338 -5 -475 -63
-299 -229 -646 -431 -899 l-43 -55 -19 55 c-38 107 -89 307 -114 439 -98 529
-79 1041 58 1562 l30 118 27 -19 c14 -10 65 -56 114 -101z m732 -7820 c582
-43 1139 -207 1622 -480 226 -128 296 -181 458 -344 377 -379 634 -792 801
-1290 24 -70 58 -150 75 -177 85 -133 253 -208 406 -182 184 32 323 170 352
351 13 81 3 142 -53 305 -136 402 -349 804 -602 1138 -84 111 -88 100 51 123
249 42 636 47 865 11 878 -137 1555 -619 1951 -1390 145 -282 226 -524 280
-836 23 -137 37 -543 22 -653 l-8 -60 -185 -103 c-242 -136 -826 -426 -1110
-551 -1571 -696 -3254 -1168 -4770 -1336 -433 -48 -646 -60 -1095 -60 -396 0
-534 6 -800 35 l-100 11 -45 67 c-617 908 -2037 1568 -3705 1722 -189 17 -737
23 -935 10 -585 -39 -995 -128 -1312 -287 -70 -35 -108 -49 -108 -41 0 8 20
83 44 168 200 693 492 1236 826 1534 141 126 470 319 715 421 582 241 1231
306 1835 184 172 -34 398 -106 548 -174 628 -283 1131 -628 1607 -1100 186
-184 234 -216 353 -237 266 -47 519 208 472 474 -17 95 -50 157 -139 256 -91
101 -350 343 -511 477 -243 202 -552 418 -833 582 l-138 81 72 83 c749 859
1950 1351 3094 1268z m6181 -4792 c-15 -748 -51 -1436 -146 -2788 -27 -388
-56 -815 -65 -950 -24 -375 -16 -339 -88 -397 -280 -224 -512 -394 -807 -591
-197 -131 -215 -141 -218 -120 -1 13 16 472 38 1022 38 933 40 1002 25 1059
-37 146 -139 253 -283 297 -213 66 -431 -44 -513 -259 -20 -53 -24 -121 -75
-1354 -29 -715 -54 -1300 -56 -1301 -12 -10 -412 -223 -598 -319 -210 -108
-641 -317 -654 -317 -3 0 -7 534 -8 1188 l-3 1187 -32 67 c-131 278 -479 332
-688 106 -32 -34 -63 -81 -77 -115 l-23 -58 -5 -1375 -5 -1375 -160 -66 c-338
-140 -1051 -408 -1058 -398 -2 2 -70 717 -151 1589 -82 872 -153 1608 -158
1635 -16 77 -60 155 -122 213 -164 155 -407 156 -569 3 -66 -62 -104 -130
-122 -218 -14 -66 -9 -121 146 -1772 88 -938 158 -1710 155 -1716 -10 -28
-873 -256 -1320 -350 l-159 -33 6 51 c3 29 22 194 41 367 127 1130 196 2330
196 3425 0 898 -40 1507 -136 2056 l-6 35 430 -4 c551 -6 941 15 1462 79 1711
207 3648 787 5330 1594 140 67 302 147 360 178 58 31 109 57 114 57 6 0 6
-134 2 -332z m-12026 272 c1600 -89 3034 -761 3391 -1590 277 -643 326 -2723
119 -5040 -35 -384 -114 -1098 -123 -1106 -1 -1 -1118 357 -2482 796 l-2480
797 -32 144 c-168 741 -359 1829 -467 2659 -112 856 -215 1945 -201 2134 29
411 247 766 595 971 146 86 260 124 510 169 355 65 768 88 1170 66z m-3748
-289 c171 -30 358 -102 486 -189 l43 -29 -133 -7 c-569 -28 -1087 -244 -1521
-634 -154 -138 -331 -350 -428 -513 -23 -38 -44 -69 -46 -69 -9 0 -143 128
-215 206 l-68 72 46 83 c319 577 842 1000 1334 1079 41 6 82 13 90 15 60 11
311 3 412 -14z m18083 -402 c202 -20 457 -82 653 -159 195 -76 533 -264 549
-306 11 -29 -189 -362 -316 -523 -36 -47 -69 -89 -73 -95 -3 -5 -41 22 -85 61
-291 261 -653 484 -988 607 -308 114 -693 183 -1030 187 l-90 0 65 31 c103 48
275 107 402 138 302 74 586 92 913 59z m-17459 -667 c7 -4 18 -92 28 -227 52
-678 126 -1373 221 -2057 19 -141 35 -262 35 -269 0 -7 -19 5 -42 27 -81 77
-173 114 -283 114 -113 0 -202 -37 -288 -119 -69 -66 -81 -90 -147 -290 -90
-272 -168 -423 -257 -501 -50 -44 -130 -80 -178 -80 -48 0 -58 6 -77 45 -35
71 -44 142 -58 495 -13 332 -42 539 -116 833 -79 316 -210 649 -363 922 -47
84 -60 116 -56 135 11 44 103 219 155 294 253 366 644 607 1100 679 46 8 315
7 326 -1z m16409 -412 c404 -45 770 -200 1105 -465 148 -118 370 -338 370
-366 0 -8 -16 -61 -36 -119 -49 -147 -109 -389 -138 -560 -24 -142 -30 -196
-61 -546 -16 -173 -38 -282 -69 -328 -40 -62 -166 -9 -244 102 -79 114 -119
215 -188 477 -49 188 -80 252 -153 316 -127 112 -299 137 -455 66 -77 -35
-108 -67 -401 -405 l-260 -299 -45 15 c-25 8 -46 16 -48 17 -1 1 13 222 32
491 38 523 78 1113 97 1414 7 117 15 188 23 192 17 11 367 9 471 -2z m-640
-2966 c28 -8 226 -67 440 -130 610 -180 871 -272 1108 -390 306 -153 469 -314
508 -502 7 -35 10 -103 7 -174 -6 -140 -14 -156 -142 -283 -601 -598 -2546
-1770 -4836 -2915 -2126 -1063 -3975 -1813 -4740 -1924 -521 -75 -1169 -25
-1810 140 -662 171 -1311 434 -2362 955 -482 240 -514 251 -634 230 -116 -21
-425 -198 -1157 -662 -486 -309 -715 -452 -927 -576 -854 -500 -1447 -722
-1931 -723 -324 0 -547 89 -764 305 -170 170 -221 274 -213 434 6 112 43 207
134 343 353 531 1374 1119 2313 1333 176 40 232 66 301 142 158 173 150 429
-19 585 -133 124 -319 190 -1108 394 -477 123 -696 185 -921 260 -584 194
-952 422 -952 590 0 51 29 133 68 192 99 147 543 390 1322 722 381 162 1180
483 1186 477 3 -3 24 -88 45 -189 85 -390 118 -520 145 -566 41 -70 98 -126
161 -160 33 -17 1241 -410 2813 -915 1515 -488 2804 -902 2863 -922 138 -45
181 -45 452 0 2284 374 5321 1595 7379 2968 545 364 1112 808 1181 925 17 29
32 52 35 52 3 0 28 -7 55 -16z m-15610 -352 c37 -46 66 -84 64 -86 -4 -3 -296
-122 -405 -165 l-52 -20 97 97 c53 53 123 136 156 183 33 48 63 84 66 80 3 -3
36 -43 74 -89z"/>
<path d="M67758 32975 c-144 -36 -231 -118 -309 -291 -59 -130 -74 -204 -73
-369 1 -129 5 -164 27 -248 84 -314 307 -587 549 -673 254 -89 492 33 603 311
51 128 68 240 62 410 -10 276 -89 491 -246 667 -62 69 -178 143 -274 174 -103
32 -253 41 -339 19z"/>
<path d="M36376 47930 c-1083 -71 -1995 -540 -2663 -1370 -91 -113 -282 -396
-355 -525 -365 -644 -559 -1422 -534 -2135 3 -102 9 -203 13 -224 5 -33 4 -38
-9 -33 -9 3 -74 16 -144 28 -169 30 -487 32 -664 6 -544 -83 -1038 -326 -1405
-692 -370 -368 -597 -856 -681 -1460 -22 -157 -25 -564 -6 -720 62 -494 197
-928 421 -1361 198 -381 451 -726 795 -1081 480 -496 1055 -929 2036 -1532
l216 -133 -24 -71 c-39 -114 -29 -192 46 -387 236 -614 533 -1134 921 -1614
53 -65 104 -129 115 -142 18 -24 18 -25 -22 -77 -134 -175 -232 -402 -267
-617 -19 -122 -19 -332 0 -446 92 -524 488 -916 1049 -1036 80 -17 137 -22
274 -22 l174 -1 55 -80 c220 -319 442 -591 699 -855 l121 -125 17 -235 c22
-322 27 -288 -47 -335 -181 -117 -395 -293 -548 -453 -352 -366 -572 -783
-665 -1261 l-9 -43 -225 -125 c-2028 -1126 -3121 -1880 -4063 -2803 -1356
-1328 -2083 -2802 -2441 -4945 -118 -709 -188 -1362 -281 -2635 -88 -1209
-118 -1549 -195 -2253 -87 -798 -119 -1138 -139 -1497 -43 -750 -9 -1402 100
-1955 140 -706 398 -1337 755 -1846 244 -348 572 -675 891 -891 82 -56 92 -67
155 -166 165 -262 304 -598 373 -909 45 -201 65 -366 75 -633 12 -292 29 -446
66 -586 29 -116 95 -260 158 -348 62 -87 182 -197 271 -249 144 -84 362 -137
515 -124 65 6 65 6 31 -9 -19 -9 -122 -54 -229 -100 -554 -242 -952 -454
-1189 -631 -267 -199 -434 -461 -499 -782 -25 -125 -16 -325 20 -446 55 -185
140 -323 293 -478 102 -103 188 -171 333 -261 282 -177 730 -356 1270 -506
102 -28 196 -55 210 -59 22 -7 7 -17 -120 -81 -470 -236 -877 -517 -1176 -815
-400 -398 -595 -795 -595 -1210 1 -268 71 -493 225 -724 255 -380 650 -658
1092 -769 175 -44 286 -56 499 -56 274 1 498 35 805 124 579 167 1205 485
2202 1116 145 92 371 235 503 319 284 179 558 345 572 345 5 0 189 -87 409
-194 587 -285 956 -448 1359 -601 712 -270 1312 -420 1955 -487 194 -20 826
-17 1010 5 546 65 1325 317 2489 804 1334 557 3134 1439 4586 2246 1589 883
2697 1620 3144 2092 262 277 335 466 336 865 0 169 -3 209 -23 299 -63 281
-185 495 -401 704 l-101 98 59 70 c172 204 256 459 286 864 15 201 28 319 46
430 70 418 223 812 459 1182 49 76 110 172 136 213 358 560 554 1054 688 1730
97 488 136 946 136 1590 0 988 -85 1790 -385 3635 -265 1627 -271 1692 -310
3040 -40 1364 -98 1960 -261 2642 -375 1579 -1345 2849 -3204 4195 -260 188
-565 398 -1175 810 -993 670 -1441 993 -1835 1323 -47 39 -99 81 -117 93 -49
34 -141 63 -210 65 l-63 2 -31 95 c-59 181 -182 411 -308 575 -63 83 -212 236
-296 305 -157 128 -358 239 -540 296 -49 16 -91 29 -92 29 -2 1 30 75 71 166
296 663 460 1410 538 2454 20 270 17 1285 -5 1613 -18 260 -18 264 2 355 114
527 -43 1123 -413 1566 -133 159 -332 333 -482 423 -30 18 -54 36 -54 39 0 4
21 21 48 38 135 87 186 141 221 236 31 83 35 146 17 305 -64 560 -220 1084
-477 1598 -59 117 -103 215 -98 218 22 13 59 110 98 253 65 238 128 442 311
1011 250 779 322 1021 410 1384 155 641 208 1069 197 1600 -7 354 -26 533 -88
837 -112 555 -340 1061 -657 1458 -409 512 -927 812 -1584 918 -162 26 -606
26 -763 0 -449 -75 -831 -250 -1115 -514 l-59 -55 -108 97 c-616 552 -1424
902 -2283 989 -189 19 -482 27 -644 16z m514 -840 c430 -39 836 -155 1210
-345 352 -179 683 -440 911 -716 178 -217 232 -258 372 -281 170 -28 343 64
433 230 91 168 205 298 339 387 415 275 1047 299 1555 59 456 -216 824 -704
1004 -1332 124 -429 163 -945 110 -1452 -54 -521 -172 -1014 -460 -1910 -183
-570 -288 -905 -324 -1028 -33 -110 -34 -113 -59 -108 -175 35 -809 42 -1116
12 -1237 -118 -2565 -527 -3890 -1196 -1101 -556 -2077 -1227 -2889 -1988
l-120 -112 -25 24 c-15 13 -140 95 -280 180 -968 597 -1467 967 -1906 1417
-408 418 -667 817 -841 1296 -105 292 -154 548 -161 854 -9 377 41 640 177
925 197 411 583 705 1075 820 111 26 136 28 330 29 185 0 220 -3 298 -23 207
-52 333 -122 494 -275 75 -71 132 -117 166 -132 254 -116 542 40 587 317 13
84 3 136 -59 308 -108 298 -151 540 -158 900 -6 272 6 429 48 650 182 950 752
1761 1529 2173 318 169 693 279 1076 316 129 12 441 13 574 1z m4880 -7330
c80 -106 259 -432 342 -623 64 -147 126 -321 168 -467 42 -150 83 -330 76
-337 -2 -3 -82 1 -178 7 -216 14 -750 14 -963 1 -1928 -125 -3758 -895 -5195
-2186 -156 -140 -495 -482 -630 -635 -100 -113 -295 -348 -336 -403 l-20 -29
-96 124 c-251 324 -484 716 -642 1080 -35 81 -44 112 -37 126 14 27 398 401
551 537 404 360 781 649 1265 970 947 629 2032 1150 3065 1474 675 212 1252
329 1890 384 25 3 197 4 383 3 l338 -1 19 -25z m-836 -2332 c-105 -75 -291
-252 -375 -356 -269 -334 -419 -711 -455 -1139 l-6 -81 -45 -7 c-51 -7 -173
-43 -252 -74 l-55 -20 -35 42 c-292 348 -676 577 -1106 661 -127 25 -311 38
-425 31 -100 -6 -326 -37 -366 -51 -60 -20 241 148 477 267 807 404 1655 660
2544 768 83 11 158 19 169 20 10 1 -21 -27 -70 -61z m1706 -687 c70 -51 185
-167 245 -246 62 -81 160 -282 186 -380 27 -102 36 -288 20 -390 -79 -485
-487 -893 -950 -947 -467 -55 -994 285 -1153 742 -68 195 -64 449 9 653 37
106 109 240 174 326 56 76 205 229 213 220 2 -2 -1 -51 -7 -109 -26 -256 48
-602 176 -830 90 -160 224 -320 349 -416 164 -127 356 -186 497 -153 229 52
371 272 387 599 15 295 -92 690 -260 955 -18 28 -36 56 -41 64 -11 18 80 -34
155 -88z m-6032 -1217 c-92 -152 -184 -378 -227 -564 -24 -102 -51 -300 -51
-377 0 -52 -1 -55 -22 -50 -13 3 -142 29 -288 57 -146 29 -267 53 -269 56 -9
9 223 281 412 484 116 124 478 472 485 466 1 -2 -16 -34 -40 -72z m2170 -15
c255 -154 444 -406 524 -695 31 -114 32 -354 0 -469 -110 -408 -422 -734 -803
-837 -71 -19 -107 -23 -234 -22 -129 1 -164 4 -250 27 -195 52 -403 175 -547
323 -228 234 -325 493 -297 796 16 174 88 368 197 532 42 63 216 256 231 256
3 0 6 -75 6 -168 1 -185 15 -279 67 -442 149 -470 545 -852 908 -877 131 -9
253 39 341 135 97 106 139 226 146 419 6 150 -5 247 -47 408 -53 207 -155 427
-271 588 -27 37 -47 67 -44 67 3 0 36 -18 73 -41z m1601 -852 c74 -204 147
-399 162 -433 68 -146 245 -246 406 -230 94 10 171 -32 213 -115 31 -60 26
-102 -17 -150 -70 -77 -129 -95 -236 -72 -65 14 -90 15 -142 6 -185 -32 -323
-168 -355 -350 -29 -170 67 -356 225 -434 183 -90 479 -89 715 2 168 64 354
204 466 350 135 176 218 438 200 635 l-7 71 128 6 c150 6 303 35 452 83 121
39 333 141 435 208 l69 46 -7 -233 c-13 -439 -36 -748 -82 -1097 -143 -1087
-491 -1924 -953 -2292 -369 -295 -1267 -396 -2151 -242 -934 161 -1775 551
-2510 1163 -151 125 -489 463 -622 621 -193 230 -408 529 -540 753 -57 95
-124 161 -202 198 -122 57 -207 57 -374 0 -197 -68 -409 -23 -550 116 -139
137 -161 355 -56 554 59 113 -24 117 749 -37 374 -74 703 -137 730 -140 49 -6
51 -8 94 -76 72 -115 130 -187 241 -302 293 -303 641 -496 1050 -584 116 -24
143 -26 360 -26 266 0 343 11 562 84 887 295 1480 1280 1302 2163 -9 43 -13
84 -11 92 3 7 23 17 44 23 81 21 65 49 212 -361z m-2619 -4349 c639 -366 1404
-630 2135 -737 482 -70 995 -79 1420 -25 457 58 875 194 1135 369 29 20 54 34
56 32 2 -1 10 -41 18 -87 59 -345 3 -749 -154 -1117 -157 -367 -411 -723 -826
-1160 l-145 -152 -102 54 c-116 62 -268 114 -407 141 -140 27 -391 25 -527 -4
-180 -39 -345 -106 -484 -198 -37 -24 -72 -44 -78 -44 -23 0 -292 124 -416
192 -871 477 -1542 1263 -1856 2176 l-51 147 -24 270 c-13 149 -24 287 -24
307 l0 37 108 -68 c59 -37 159 -97 222 -133z m5731 -444 c152 -159 255 -366
294 -592 19 -110 19 -349 0 -477 -109 -719 -691 -1514 -1440 -1964 -162 -98
-451 -241 -485 -241 -4 0 -11 24 -14 54 l-7 53 188 189 c784 789 1180 1456
1312 2214 50 282 55 600 15 854 l-6 40 38 -31 c22 -17 69 -62 105 -99z m-6821
-160 c0 -29 117 -366 175 -503 242 -575 583 -1080 1035 -1531 401 -402 818
-698 1325 -941 166 -80 175 -85 170 -109 -10 -49 -24 -176 -25 -221 0 -46 -1
-46 -37 -53 -70 -11 -347 -6 -473 9 -572 67 -1166 330 -1760 781 -433 328
-718 630 -860 914 -88 175 -120 313 -120 514 0 327 105 619 329 911 52 69 220
245 232 245 5 0 9 -7 9 -16z m8720 -1619 c227 -161 507 -352 1010 -690 850
-572 1236 -847 1645 -1176 1221 -981 1931 -1940 2243 -3029 177 -618 256
-1261 292 -2370 5 -179 15 -478 20 -665 31 -1021 57 -1271 290 -2700 60 -368
129 -803 154 -965 256 -1669 308 -2843 170 -3810 -23 -161 -80 -465 -90 -482
-2 -4 -38 13 -80 38 -377 223 -848 376 -1339 436 -164 19 -615 16 -780 -6
-244 -33 -465 -83 -679 -156 l-86 -29 6 417 c4 306 9 453 22 552 13 100 17
208 17 415 -1 306 -12 422 -65 686 -24 119 -100 406 -125 470 -12 33 220 197
400 284 123 59 276 109 425 140 157 33 424 44 588 25 145 -16 347 -69 462
-120 200 -89 213 -93 292 -98 240 -14 438 171 438 411 0 128 -57 248 -155 328
-22 17 -85 53 -140 79 -591 280 -1293 324 -1930 120 -55 -18 -106 -35 -113
-37 -7 -3 108 167 254 378 147 211 278 406 291 435 78 170 28 379 -117 494
-140 111 -350 120 -495 20 -63 -43 -94 -83 -305 -388 -107 -154 -198 -278
-201 -274 -3 4 -20 117 -38 252 -59 450 -219 1559 -311 2151 -556 3604 -1152
6282 -1797 8069 -98 271 -240 628 -323 812 -32 71 -53 125 -47 121 7 -4 95
-66 197 -138z m-902 -345 c523 -1178 1040 -3068 1517 -5550 242 -1260 475
-2665 694 -4195 96 -665 191 -1359 187 -1362 -2 -2 -32 19 -68 46 -483 366
-1093 599 -1758 672 -148 16 -552 16 -700 0 -280 -31 -557 -92 -792 -174
l-127 -44 -118 73 c-161 101 -515 278 -703 351 -580 227 -1133 333 -1735 333
-588 0 -1115 -101 -1678 -322 -179 -70 -561 -264 -734 -373 -473 -296 -908
-692 -1245 -1133 l-47 -61 -73 25 c-109 37 -367 99 -508 123 -429 72 -898 72
-1325 0 -351 -59 -716 -174 -1034 -325 l-134 -64 7 218 c105 3346 574 6694
1391 9947 103 407 255 985 306 1157 l20 67 39 -43 40 -43 -50 -324 c-268
-1743 -431 -3995 -443 -6129 l-2 -395 32 -68 c42 -88 120 -170 197 -207 49
-23 115 -38 331 -74 970 -163 1852 -254 2880 -297 339 -14 1286 -14 1630 0
1516 63 2824 240 4289 580 71 17 153 42 183 56 73 36 145 110 185 192 32 66
33 70 37 223 4 178 -13 715 -34 1125 -94 1755 -348 3633 -761 5617 -41 196
-74 365 -74 375 0 10 19 59 42 109 51 107 36 118 136 -106z m-9388 -111
c-1105 -3853 -1726 -7891 -1828 -11897 l-7 -264 -58 99 c-81 137 -215 405
-275 548 -140 334 -212 621 -212 847 0 184 -35 283 -134 376 -164 156 -406
157 -569 3 -122 -116 -155 -256 -127 -542 29 -291 115 -619 250 -950 l48 -119
-42 25 c-454 277 -1015 415 -1533 377 -261 -19 -571 -83 -711 -147 -159 -73
-262 -267 -232 -437 32 -183 170 -320 354 -350 73 -12 85 -10 296 45 184 48
305 61 524 54 289 -9 505 -64 756 -193 176 -91 295 -178 445 -329 147 -146
234 -263 331 -442 74 -137 146 -215 228 -249 25 -11 46 -22 46 -26 0 -3 -20
-57 -44 -120 -101 -260 -232 -708 -291 -994 l-17 -82 -75 35 c-433 200 -961
252 -1438 141 -573 -133 -1130 -519 -1547 -1074 l-72 -96 -19 43 c-140 323
-247 686 -306 1037 -66 395 -85 693 -78 1217 7 516 27 785 128 1705 99 908
120 1147 199 2220 53 720 68 912 101 1280 215 2417 668 3861 1606 5115 705
944 1717 1800 3203 2712 337 206 1159 684 1167 678 2 -1 -29 -111 -67 -246z
m5731 -847 c100 -36 131 -62 158 -133 47 -121 39 -274 -18 -395 -63 -132 -173
-213 -322 -236 -170 -25 -358 44 -424 156 -62 106 -49 313 29 464 34 65 124
126 233 158 72 20 271 13 344 -14z m2832 -59 c312 -1600 512 -3050 611 -4443
34 -467 66 -1106 66 -1300 l0 -76 -247 -52 c-1140 -242 -2216 -379 -3493 -444
-325 -17 -1526 -16 -1850 0 -833 43 -1467 104 -2175 208 -132 20 -260 38 -284
41 l-44 6 7 306 c46 2104 158 3688 368 5214 29 214 32 227 49 215 951 -679
1887 -974 2774 -877 50 5 100 12 112 14 20 5 20 2 -14 -93 -315 -869 -346
-1801 -90 -2687 106 -365 312 -824 425 -946 99 -107 241 -154 381 -125 94 20
147 51 269 158 441 389 781 877 969 1388 70 190 143 529 143 661 l0 41 92 -87
c431 -411 901 -704 1403 -878 153 -53 212 -62 291 -48 177 33 312 169 344 347
17 97 27 467 19 678 -23 575 -165 1097 -409 1501 -145 240 -383 476 -597 592
l-73 40 123 75 c235 146 517 370 707 562 52 53 97 96 100 96 3 0 14 -39 23
-87z m-1529 -1328 c353 -62 596 -352 736 -879 50 -188 98 -546 74 -546 -17 0
-216 130 -327 213 -387 291 -693 661 -916 1104 -22 46 -41 87 -41 92 0 28 339
39 474 16z m-1730 -526 c143 -137 230 -250 301 -394 79 -159 99 -250 100 -450
0 -175 -12 -252 -66 -430 -54 -176 -158 -395 -262 -550 -87 -129 -161 -225
-170 -216 -15 15 -86 269 -116 415 -58 279 -66 372 -66 726 0 259 4 350 18
445 38 258 111 565 133 565 6 0 64 -50 128 -111z m720 -7819 c672 -46 1289
-249 1846 -607 47 -30 114 -83 150 -117 36 -35 103 -92 150 -128 312 -240 572
-575 746 -963 49 -109 68 -139 116 -188 130 -131 314 -161 483 -78 177 87 269
312 205 501 -31 92 -155 346 -229 470 -103 171 -252 374 -364 497 -21 23 -34
44 -29 47 4 2 62 13 128 23 169 25 610 25 774 0 616 -97 1123 -351 1517 -761
314 -326 556 -763 672 -1211 63 -240 98 -553 86 -770 -10 -198 -9 -196 -63
-226 -883 -492 -1758 -878 -2757 -1215 -1169 -396 -2342 -659 -3395 -763 -613
-61 -1222 -66 -1715 -16 -125 13 -142 17 -157 37 -9 13 -51 68 -91 123 -146
197 -303 357 -527 536 -730 585 -1854 989 -3075 1104 -231 22 -754 31 -975 16
-609 -41 -1045 -138 -1349 -302 -40 -22 -76 -38 -78 -35 -2 2 16 77 42 165
195 681 482 1225 806 1525 142 132 450 316 704 421 347 144 709 220 1105 232
446 13 854 -61 1265 -230 61 -24 151 -59 200 -77 373 -134 790 -420 1051 -722
199 -229 247 -266 381 -289 266 -47 521 208 474 474 -16 90 -59 168 -159 287
-270 319 -616 607 -973 807 -54 30 -99 58 -99 62 0 14 213 242 316 338 789
735 1791 1102 2818 1033z m6196 -4821 c-24 -876 -54 -1440 -150 -2814 -28
-390 -58 -829 -68 -975 l-17 -265 -158 -126 c-231 -184 -563 -422 -831 -595
l-29 -18 7 119 c40 706 75 1169 107 1408 16 123 18 159 8 210 -25 138 -103
243 -225 304 -64 31 -88 37 -158 41 -211 11 -380 -112 -431 -316 -30 -121 -71
-555 -105 -1112 -47 -771 -76 -1153 -90 -1179 -4 -8 -102 -66 -216 -128 -237
-129 -1041 -533 -1062 -533 -11 0 -12 9 -6 43 5 23 7 589 6 1258 -2 1324 0
1273 -59 1381 -35 63 -120 143 -185 173 -161 73 -357 37 -475 -88 -28 -29 -60
-72 -72 -95 -51 -100 -50 -86 -44 -1221 5 -986 0 -1407 -24 -1748 l-6 -91
-326 -130 c-452 -181 -1166 -442 -1175 -431 -1 2 -26 703 -55 1558 -47 1411
-54 1559 -71 1615 -47 152 -169 258 -329 288 -131 25 -277 -27 -374 -132 -82
-88 -101 -143 -104 -305 -2 -71 21 -839 51 -1705 29 -866 53 -1576 51 -1578
-13 -14 -647 -175 -935 -238 -113 -24 -216 -47 -229 -50 -23 -5 -24 -4 -17 43
14 104 67 569 85 763 195 1999 208 3980 32 5010 -11 63 -19 116 -17 117 1 2
128 -1 282 -6 1330 -40 2897 213 4565 738 901 284 1781 638 2574 1036 154 77
281 140 282 139 2 0 -2 -164 -7 -365z m-12050 301 c1412 -72 2720 -603 3260
-1324 65 -88 157 -258 188 -352 108 -318 174 -846 203 -1619 13 -339 7 -1290
-11 -1675 -42 -936 -99 -1679 -186 -2425 -19 -165 -38 -310 -42 -321 -7 -21
-102 9 -2482 774 -1361 437 -2477 797 -2479 799 -14 11 -218 1023 -296 1463
-172 984 -303 2010 -385 3025 -24 302 -26 483 -4 596 48 254 169 476 356 654
102 97 193 160 320 220 123 58 230 88 445 124 376 62 716 81 1113 61z m-3728
-290 c62 -10 152 -32 199 -49 87 -29 263 -115 308 -150 23 -18 22 -18 -105
-25 -538 -29 -1022 -218 -1437 -559 -189 -156 -399 -395 -509 -580 -22 -37
-45 -70 -49 -73 -11 -7 -266 242 -274 267 -7 20 55 135 151 279 327 493 785
821 1249 895 126 20 335 18 467 -5z m18073 -401 c390 -38 799 -181 1117 -392
l108 -71 -61 -115 c-84 -161 -207 -346 -323 -486 l-25 -30 -48 46 c-197 187
-458 369 -712 498 -394 199 -778 297 -1253 317 l-163 8 82 37 c358 166 812
232 1278 188z m-17447 -667 c8 -6 18 -87 32 -263 42 -534 94 -1049 155 -1544
35 -280 90 -683 101 -740 l6 -30 -29 32 c-102 113 -274 160 -422 114 -83 -26
-141 -62 -191 -118 -54 -62 -71 -96 -110 -223 -49 -160 -117 -326 -169 -414
-80 -136 -188 -216 -292 -216 -82 0 -106 88 -120 435 -10 258 -21 402 -45 560
-68 460 -236 946 -461 1337 l-44 77 30 73 c114 273 347 533 638 710 147 90
372 173 548 202 88 15 353 20 373 8z m16432 -416 c385 -48 712 -183 1035 -425
116 -87 283 -238 362 -328 l63 -70 -36 -104 c-106 -313 -165 -623 -199 -1047
-17 -215 -35 -321 -64 -387 -18 -42 -23 -45 -57 -45 -118 0 -234 135 -318 368
-14 40 -44 143 -67 230 -49 187 -67 227 -130 296 -139 152 -368 177 -541 58
-25 -17 -167 -172 -322 -350 l-277 -320 -49 16 -49 15 5 46 c8 80 93 1306 116
1686 19 303 25 365 38 369 39 10 387 5 490 -8z m-461 -3022 c900 -266 1066
-323 1336 -455 211 -103 376 -229 451 -345 58 -91 78 -164 77 -294 0 -174 -4
-182 -146 -325 -1143 -1142 -6788 -4076 -9110 -4734 -339 -96 -535 -127 -872
-137 -779 -24 -1644 175 -2679 618 -316 135 -555 247 -1066 499 -507 250 -528
258 -646 239 -34 -6 -79 -17 -100 -26 -55 -23 -282 -151 -473 -267 -154 -93
-266 -163 -911 -572 -804 -510 -1343 -795 -1802 -953 -467 -162 -860 -186
-1153 -73 -222 85 -465 312 -539 501 -135 345 282 857 1064 1306 430 247 1003
468 1431 554 228 45 380 259 340 476 -28 152 -111 253 -274 333 -174 85 -311
127 -927 287 -634 164 -853 228 -1130 331 -407 151 -689 323 -761 465 -28 55
-22 109 25 203 42 85 85 127 226 220 240 157 657 361 1233 601 450 188 1071
434 1077 427 4 -4 24 -87 45 -183 70 -333 114 -509 140 -561 34 -65 108 -140
171 -172 27 -13 1275 -419 2774 -900 1499 -482 2787 -897 2863 -922 167 -54
202 -56 432 -20 2272 356 5373 1600 7445 2985 351 235 665 468 956 711 151
126 196 172 222 225 8 19 18 34 20 34 2 0 120 -34 261 -76z m-15814 -289 c36
-44 65 -83 65 -86 0 -5 -277 -120 -446 -186 -6 -2 36 44 95 104 58 59 129 141
156 181 27 40 52 71 57 70 4 -2 37 -39 73 -83z"/>
<path d="M41994 32885 c-123 -27 -198 -84 -296 -228 -247 -360 -720 -561
-1133 -481 -130 26 -195 28 -265 10 -164 -42 -283 -174 -311 -345 -24 -149 49
-313 177 -402 56 -39 106 -56 228 -80 520 -102 1097 33 1544 361 192 141 427
403 508 565 19 39 40 98 46 133 39 209 -122 431 -341 472 -66 12 -80 12 -157
-5z"/>
</g>
</svg>
