<?xml version="1.0" standalone="no"?>
<!DOCTYPE svg PUBLIC "-//W3C//DTD SVG 20010904//EN"
 "http://www.w3.org/TR/2001/REC-SVG-20010904/DTD/svg10.dtd">
<svg version="1.0" xmlns="http://www.w3.org/2000/svg"
 width="1080.000000pt" height="1080.000000pt" viewBox="0 0 1080.000000 1080.000000"
 preserveAspectRatio="xMidYMid meet">

<g transform="translate(0.000000,1080.000000) scale(0.100000,-0.100000)"
fill="#000000" stroke="none">
<path d="M3670 8844 c-566 -70 -1103 -410 -1405 -889 -111 -177 -225 -447
-209 -498 12 -41 45 -67 85 -67 53 0 84 31 104 105 24 90 146 328 219 429 321
445 826 724 1346 743 173 7 277 -5 455 -52 430 -112 825 -403 1053 -777 73
-119 171 -332 159 -344 -2 -2 -103 57 -224 131 -239 146 -260 154 -310 111
-35 -30 -39 -95 -8 -125 21 -20 673 -421 684 -421 5 1 98 151 334 538 98 162
104 187 58 233 -33 33 -74 38 -108 14 -12 -8 -74 -101 -139 -206 l-117 -191
-32 79 c-215 530 -681 950 -1240 1119 -174 53 -259 65 -470 69 -110 2 -216 1
-235 -1z"/>
<path d="M1973 7049 c-29 -4 -72 -18 -97 -33 -108 -63 -153 -166 -182 -411 -8
-66 -21 -144 -30 -174 -10 -35 -12 -57 -6 -63 18 -18 153 -4 204 20 63 31 88
23 88 -28 0 -35 -3 -39 -40 -54 -22 -9 -46 -16 -53 -16 -6 0 -28 -5 -48 -10
l-36 -10 -23 -103 c-29 -133 -71 -247 -121 -333 -40 -68 -41 -70 -36 -144 5
-74 29 -162 50 -189 8 -9 25 -11 59 -7 l48 7 -35 -98 c-19 -54 -62 -152 -95
-219 -33 -67 -60 -124 -60 -127 0 -3 30 -15 68 -27 37 -13 71 -26 75 -30 4 -4
-3 -52 -17 -106 -52 -206 -79 -470 -96 -954 -10 -276 -24 -499 -51 -802 -7
-69 -9 -133 -6 -141 3 -8 24 -18 46 -22 l40 -7 -39 -37 c-49 -46 -53 -85 -14
-122 23 -21 37 -24 118 -27 152 -6 209 22 224 109 9 55 37 66 47 19 6 -29 10
-32 40 -28 32 4 32 4 27 -34 -11 -84 46 -113 209 -107 82 3 112 9 139 25 73
42 63 108 -24 155 l-48 26 51 7 c27 4 54 12 58 19 4 7 16 113 26 237 24 314
32 966 17 1355 -7 171 -13 330 -14 355 l-1 44 44 9 c40 8 43 10 37 35 -3 15
-9 74 -12 132 -5 88 -2 119 16 190 31 123 38 310 15 420 -17 82 -104 387 -143
499 l-18 54 -80 23 c-43 12 -101 26 -129 30 -41 7 -51 13 -53 31 -3 20 -1 21
30 12 62 -17 102 -12 124 19 33 44 45 91 51 202 11 196 -54 343 -176 404 -56
28 -100 35 -168 25z m142 -43 c60 -27 109 -80 144 -156 24 -51 26 -65 26 -200
0 -131 -2 -149 -23 -187 -21 -40 -25 -43 -66 -43 -47 0 -113 19 -99 29 9 7 33
48 33 57 0 4 -8 0 -17 -7 -10 -8 -3 4 15 26 17 22 38 60 47 84 16 46 20 136 7
145 -5 3 -37 -7 -73 -21 -77 -31 -168 -40 -238 -23 -55 13 -75 8 -49 -13 11
-8 17 -36 21 -95 3 -54 12 -97 26 -124 19 -39 19 -42 3 -54 -31 -23 -89 -37
-125 -30 l-34 6 3 95 c6 197 40 349 93 422 75 103 199 139 306 89z m45 -328
c0 -53 -30 -114 -84 -175 -24 -27 -41 -53 -39 -59 2 -7 -9 -16 -26 -22 -23 -8
-36 -7 -62 6 -47 24 -72 80 -77 171 l-4 76 83 1 c58 1 101 7 139 21 30 11 58
21 63 22 4 0 7 -18 7 -41z m-72 -309 c7 -29 11 -53 9 -55 -4 -5 -120 -34 -123
-31 -1 1 1 26 3 55 4 40 9 52 22 52 10 0 26 7 37 15 31 24 40 18 52 -36z m177
-61 c25 -7 45 -18 45 -25 0 -7 6 -13 14 -13 8 0 17 -11 20 -25 3 -13 11 -37
17 -52 8 -22 12 -24 19 -13 8 13 10 12 10 -2 0 -9 -6 -19 -12 -21 -9 -4 -7 -6
3 -6 12 -1 26 -34 52 -123 115 -390 117 -486 25 -826 -29 -105 -33 -113 -52
-107 -12 3 -42 11 -68 18 -50 12 -63 32 -48 72 5 13 5 26 0 31 -6 6 -3 32 5
64 44 164 59 275 60 440 0 189 -11 303 -28 297 -7 -2 -11 -17 -10 -33 13 -228
14 -341 4 -424 -13 -102 -60 -317 -85 -389 -21 -58 -21 -58 14 -66 33 -7 33
-13 5 -95 l-12 -35 -111 -3 c-128 -3 -275 16 -409 54 -99 28 -114 44 -85 85
11 16 12 24 4 27 -8 2 -2 23 17 60 16 31 49 113 75 182 26 69 53 130 61 136 9
6 36 9 64 6 40 -3 52 -1 70 17 27 27 29 26 41 -3 29 -78 164 -75 205 5 19 36
36 174 28 224 -5 31 -12 40 -42 52 -64 27 -211 4 -211 -32 0 -6 -18 -9 -42 -7
-36 3 -47 -1 -67 -22 -26 -28 -59 -34 -67 -13 -2 7 11 68 31 135 19 66 35 130
35 142 0 35 -19 22 -30 -22 -6 -24 -23 -81 -36 -127 -14 -46 -26 -97 -26 -114
-1 -30 22 -57 49 -57 10 0 13 -20 13 -74 l0 -75 -54 -15 c-30 -9 -63 -16 -74
-16 -27 0 -52 66 -59 157 -6 72 -6 73 51 185 41 82 65 149 90 247 24 96 39
137 52 145 11 6 62 10 114 9 83 -2 105 2 170 27 86 33 103 34 165 18z m-105
-518 c13 -9 13 -11 0 -19 -22 -15 -101 -22 -139 -13 -39 8 -52 28 -24 35 34 9
148 7 163 -3z m-235 -39 c3 -5 1 -13 -5 -16 -7 -5 -9 -35 -4 -91 l7 -83 -27
-10 c-48 -19 -56 -7 -56 82 0 69 3 84 22 104 22 24 52 30 63 14z m250 -81 c-4
-36 -11 -80 -17 -98 -11 -36 -59 -72 -93 -71 l-20 0 20 9 c19 8 19 9 -2 9 -12
1 -30 12 -41 26 -14 17 -22 21 -25 13 -4 -8 -6 -7 -6 4 -1 9 5 19 12 21 7 3 5
6 -5 6 -15 1 -18 11 -18 74 l0 72 101 0 100 0 -6 -65z m-154 -147 c13 -16 12
-17 -3 -4 -10 7 -18 15 -18 17 0 8 8 3 21 -13z m462 -475 l6 -47 -42 -9 c-23
-5 -43 -8 -45 -7 -7 5 21 64 33 69 7 2 16 19 20 37 9 40 20 24 28 -43z m-114
31 c17 -6 31 -12 31 -13 0 -8 -82 -251 -88 -263 -7 -12 -15 -3 -37 41 l-28 56
27 83 c15 45 29 88 31 95 5 15 23 15 64 1z m-519 -109 c58 -12 162 -24 232
-27 l127 -6 11 -33 c6 -19 9 -38 5 -43 -8 -13 18 -72 38 -90 20 -16 23 -2 5
19 -11 12 -10 12 5 1 9 -7 17 -21 17 -30 0 -11 9 -17 26 -19 20 -1 25 2 20 14
-3 8 9 57 26 107 32 90 32 91 40 57 13 -64 28 -519 28 -905 0 -286 -5 -459
-21 -700 -12 -176 -23 -322 -25 -324 -6 -7 -330 -70 -341 -66 -7 2 -13 0 -13
-6 0 -6 -7 -4 -15 5 -8 8 -15 28 -15 44 0 17 -6 32 -12 35 -21 6 -14 723 11
1251 12 246 19 451 16 454 -3 3 -9 1 -14 -4 -18 -18 -53 -900 -54 -1333 l-1
-413 -115 4 c-122 5 -263 34 -239 49 10 7 10 9 1 9 -8 0 -13 15 -13 41 0 27
-4 38 -11 33 -8 -4 -9 3 -5 22 3 16 10 90 16 164 6 74 13 155 16 180 2 25 11
217 19 427 20 533 46 798 96 998 22 87 27 105 31 105 2 0 50 -9 108 -20z m-37
-2037 c62 -5 67 -8 67 -29 0 -38 -21 -72 -51 -84 -37 -16 -195 -16 -231 -2
-51 21 -33 80 37 121 12 7 38 9 65 6 25 -3 75 -9 113 -12z m502 -27 c59 -27
78 -47 73 -78 -6 -42 -68 -63 -184 -63 -124 0 -154 14 -154 73 0 20 4 42 8 48
8 11 129 41 177 43 17 0 53 -10 80 -23z"/>
<path d="M9721 7049 c-121 -23 -217 -142 -239 -293 -5 -36 -3 -39 16 -34 18 5
22 1 28 -31 18 -113 53 -185 106 -224 24 -18 32 -19 65 -9 46 14 53 6 53 -60
0 -41 -4 -50 -27 -64 -128 -78 -141 -102 -155 -273 -26 -328 -37 -394 -103
-630 -8 -29 -15 -92 -16 -140 -1 -83 -2 -87 -32 -112 -31 -26 -31 -27 -18 -70
7 -24 15 -50 17 -57 2 -7 17 -18 34 -23 16 -6 30 -17 30 -25 0 -8 -2 -14 -5
-14 -4 0 -172 52 -243 76 -8 2 -21 -13 -32 -39 -24 -54 -137 -434 -181 -605
l-34 -134 22 -18 c13 -10 76 -35 140 -55 65 -20 137 -43 160 -51 l42 -15 -5
-97 c-5 -87 -2 -109 25 -207 17 -60 55 -203 85 -317 59 -221 83 -283 120 -299
18 -9 30 -33 55 -112 17 -56 31 -109 31 -118 0 -21 -120 -135 -197 -187 -102
-69 -128 -122 -73 -149 83 -41 121 -53 164 -53 l48 0 -98 -189 -97 -189 -94 5
c-60 4 -93 2 -93 -4 0 -11 69 -23 131 -23 22 0 39 -3 39 -7 0 -3 -21 -44 -47
-91 -60 -105 -104 -158 -126 -149 -49 19 -73 174 -40 261 25 68 60 92 129 89
60 -2 73 13 20 23 -80 14 -144 -26 -172 -108 -22 -66 -16 -191 12 -238 54 -93
102 -61 213 143 l43 77 69 0 c55 0 69 -3 69 -15 0 -8 -14 -77 -31 -153 -38
-172 -49 -282 -27 -282 20 0 32 31 16 41 -9 6 -9 22 1 76 12 70 58 284 67 315
4 15 14 16 70 11 41 -4 64 -2 64 4 0 12 -46 23 -91 23 -16 0 -29 3 -29 8 0 4
19 89 42 189 l42 181 89 7 c48 4 90 5 92 3 3 -2 -6 -35 -19 -74 -45 -131 -166
-697 -153 -710 13 -13 27 9 27 41 0 36 45 262 86 429 13 57 40 132 63 175 22
42 45 98 52 126 7 27 18 61 26 75 8 15 13 59 13 112 0 78 -2 87 -20 93 -17 5
-20 15 -20 66 0 36 7 73 16 91 12 23 18 79 25 217 10 240 14 274 49 507 17
106 30 196 30 198 0 2 8 6 18 8 14 4 27 50 70 249 67 310 103 507 100 538 -2
20 -14 28 -57 43 -30 10 -56 20 -58 22 -5 4 18 122 39 204 10 38 14 43 33 38
41 -10 48 15 55 177 6 147 20 215 40 202 13 -8 50 31 50 55 0 10 -9 43 -21 72
-15 40 -19 65 -15 103 3 28 1 68 -5 90 -6 22 -14 123 -18 225 -8 209 -15 233
-81 275 -22 14 -86 44 -142 67 -57 23 -106 47 -110 53 -4 5 -8 34 -8 62 0 48
4 57 39 93 l39 40 31 -31 c38 -37 69 -34 116 12 25 25 30 37 30 80 0 77 -41
103 -116 74 -15 -5 -17 2 -16 57 3 175 -159 310 -332 277z m164 -47 c91 -47
138 -124 140 -230 1 -46 7 -77 14 -81 7 -5 30 -3 51 2 50 14 70 -1 70 -55 0
-77 -83 -119 -115 -58 -19 37 -49 39 -71 5 -9 -14 -20 -25 -25 -25 -18 0 -20
49 -4 102 17 59 11 92 -20 118 -15 13 -22 12 -56 -7 l-39 -21 -6 24 c-9 36
-58 72 -108 79 -53 8 -123 -19 -175 -68 l-34 -32 7 30 c12 50 56 138 84 169
15 16 50 39 77 53 41 20 61 23 110 20 34 -2 78 -13 100 -25z m-115 -199 c22
-20 32 -39 34 -66 5 -53 12 -56 47 -14 59 71 95 34 63 -66 -15 -49 -15 -57 -2
-84 13 -26 13 -33 1 -49 -11 -15 -13 -41 -8 -119 l5 -100 -79 -83 -79 -84 -11
51 c-16 74 -14 92 11 118 19 21 22 34 21 99 0 42 -5 80 -10 85 -6 6 -27 5 -57
-3 -60 -16 -72 -8 -113 73 -23 44 -35 85 -39 132 -6 63 -5 69 16 85 83 61 150
69 200 25z m403 -559 c58 -38 67 -71 67 -236 0 -95 6 -165 16 -208 10 -42 13
-85 9 -121 -4 -44 -1 -66 15 -103 22 -51 26 -91 10 -101 -5 -3 -27 3 -50 15
-22 11 -60 23 -85 27 -25 3 -45 11 -45 17 0 6 -5 4 -10 -4 -9 -13 -10 -13 -11
0 -1 8 0 25 1 38 1 12 -4 22 -10 22 -8 0 -10 17 -6 58 15 155 18 232 8 232
-12 0 -22 -48 -22 -104 0 -22 -4 -57 -9 -76 -5 -19 -12 -74 -15 -122 l-5 -88
35 0 c30 0 34 -3 30 -22 -3 -13 -10 -48 -16 -78 -6 -30 -22 -91 -35 -135 l-25
-80 -67 -39 c-92 -53 -114 -58 -212 -44 l-83 11 5 41 c3 23 19 120 35 216 39
219 59 401 67 601 l7 156 84 94 c50 57 84 103 84 116 0 21 3 21 98 -18 53 -22
114 -51 135 -65z m-436 -206 c6 -107 -10 -308 -42 -528 -26 -178 -62 -370 -70
-378 -2 -3 -25 3 -50 13 -26 9 -44 20 -41 23 4 3 -3 16 -15 28 -47 50 -51 163
-9 298 46 151 63 257 80 506 12 178 22 215 68 258 l36 34 19 -83 c10 -46 21
-123 24 -171z m472 -559 c17 -6 31 -12 31 -14 0 -2 -23 -93 -51 -202 -55 -219
-74 -267 -105 -271 -25 -4 -74 34 -74 57 0 10 20 78 44 152 24 74 49 163 56
199 6 36 13 71 16 78 4 15 41 16 83 1z m-732 -241 c-3 -7 -5 -2 -5 12 0 14 2
19 5 13 2 -7 2 -19 0 -25z m728 -126 c-4 -17 -9 -22 -17 -14 -7 7 -6 28 4 68
l13 59 3 -44 c2 -25 1 -56 -3 -69z m-702 43 c22 -19 27 -33 27 -68 0 -24 -3
-46 -6 -50 -3 -3 -22 0 -41 7 -30 10 -38 20 -51 59 -14 45 -14 48 4 62 26 20
35 18 67 -10z m493 -41 c-3 -9 -6 -20 -6 -25 0 -5 -7 -9 -15 -9 -22 0 -20 -59
3 -67 9 -3 29 -15 44 -25 16 -11 41 -20 58 -20 16 -1 30 -4 30 -8 0 -4 -11
-56 -25 -116 -24 -108 -29 -156 -55 -629 -5 -99 -26 -290 -45 -425 -25 -167
-39 -313 -46 -460 -12 -264 -20 -300 -68 -315 -18 -5 -22 -4 -16 6 6 9 3 10
-11 5 -10 -4 -16 -4 -12 -1 3 4 -2 15 -13 26 -10 10 -22 37 -25 59 -4 22 -10
38 -14 35 -4 -2 -10 73 -13 168 -6 164 -15 248 -53 527 -27 205 -24 458 8 676
34 221 45 364 29 348 -6 -5 -18 -66 -26 -134 -9 -68 -25 -185 -36 -259 -10
-74 -22 -189 -25 -255 -3 -67 -10 -142 -15 -169 -7 -39 -5 -62 16 -134 30
-101 63 -353 72 -539 l6 -131 -33 -6 c-48 -10 -78 -9 -61 2 10 7 5 11 -18 16
-31 7 -65 40 -76 76 -4 11 -10 17 -15 14 -5 -3 -13 11 -19 32 -22 87 -93 356
-121 458 -38 139 -39 228 -6 351 13 49 35 132 49 184 32 122 87 455 112 687 7
62 7 63 33 57 15 -4 34 -13 42 -20 21 -18 142 -37 205 -32 38 3 67 14 102 36
54 36 68 39 59 16z m-546 -144 l55 -17 -2 -62 c-6 -136 -68 -465 -123 -649
l-20 -68 -92 29 c-51 16 -122 38 -158 50 l-65 22 1 48 c1 26 -2 47 -5 47 -14
0 146 568 181 645 l10 23 82 -26 c44 -14 106 -33 136 -42z m66 13 c-10 -10
-19 5 -10 18 6 11 8 11 12 0 2 -7 1 -15 -2 -18z m652 -208 l38 -16 -23 -132
c-35 -193 -122 -599 -134 -622 -7 -15 -8 -16 -4 -2 3 10 12 163 20 340 8 177
17 333 19 347 3 14 7 42 11 63 7 42 16 44 73 22z m-422 -1645 c7 -49 18 -88
28 -99 25 -28 17 -55 -19 -61 -42 -8 -65 -1 -65 20 0 10 -13 61 -30 115 -16
54 -30 99 -30 101 0 2 24 4 53 4 l53 0 10 -80z m144 -200 c0 -57 -1 -60 -24
-60 -49 0 -56 9 -56 66 l0 54 40 0 40 0 0 -60z m-110 -2 c0 -9 -10 -20 -22
-24 -13 -3 -54 -29 -91 -57 -37 -27 -99 -62 -137 -78 -98 -39 -110 -47 -110
-69 0 -11 -7 -20 -15 -20 -26 0 -17 35 18 67 17 16 52 44 77 61 25 16 72 54
104 84 58 53 61 54 118 54 47 -1 58 -4 58 -18z m113 -82 l37 6 0 -77 c0 -42
-4 -85 -10 -95 -12 -22 -87 -40 -169 -40 -54 0 -59 2 -65 25 -8 33 -19 32 -49
-5 -26 -31 -76 -42 -78 -17 0 9 -2 9 -6 0 -3 -10 -8 -9 -20 2 -8 8 -23 15 -33
15 -10 0 -25 9 -33 20 -8 11 -16 19 -18 17 -2 -1 2 3 10 10 8 7 44 24 80 38
36 14 99 49 139 79 l72 53 53 -18 c33 -12 65 -17 90 -13z m-233 -243 c0 -5
-20 -89 -43 -188 l-43 -180 -67 -3 c-41 -2 -67 1 -67 7 0 10 148 302 177 349
13 20 43 31 43 15z m224 -42 c-9 -23 -18 -40 -21 -38 -2 3 4 23 13 46 9 23 18
40 21 38 2 -3 -4 -23 -13 -46z"/>
<path d="M9910 5980 c0 -5 -16 -10 -35 -10 -19 0 -35 -4 -35 -9 0 -12 143 -26
167 -17 15 6 13 10 -12 26 -32 21 -85 27 -85 10z"/>
<path d="M5492 7026 c-32 -72 -21 -161 27 -205 22 -21 26 -31 20 -48 -4 -12
-12 -61 -17 -109 -9 -77 -8 -94 9 -139 25 -67 68 -108 114 -109 32 -1 35 -4
35 -30 0 -21 -13 -40 -49 -75 -60 -56 -81 -117 -81 -236 0 -84 -36 -312 -71
-450 -29 -113 -73 -221 -114 -282 -19 -29 -35 -58 -35 -66 0 -8 32 -51 71 -96
l72 -82 -12 -142 c-6 -78 -16 -227 -21 -332 -11 -209 -23 -327 -46 -452 -8
-45 -15 -113 -16 -150 -1 -62 4 -78 49 -178 85 -185 133 -343 160 -525 4 -30
12 -53 17 -52 17 7 28 -28 32 -101 l5 -72 -56 -45 c-30 -25 -92 -66 -137 -92
-81 -47 -105 -69 -93 -88 3 -5 1 -19 -5 -30 -16 -30 9 -64 57 -82 54 -19 385
-18 431 1 47 20 66 62 64 146 -4 239 -3 288 11 304 34 39 80 510 76 776 -2
133 4 213 34 475 58 487 73 574 115 643 31 50 39 57 66 57 42 0 115 38 140 73
34 46 33 176 -4 497 -38 336 -48 384 -95 428 -30 27 -42 32 -86 32 -47 0 -55
4 -106 50 -30 27 -85 66 -123 86 -38 19 -71 42 -74 51 -3 8 -3 45 0 81 6 61 9
69 38 87 71 46 97 188 56 299 -43 113 -94 145 -231 146 -65 0 -146 21 -184 47
-26 18 -30 17 -43 -11z m88 -37 c36 -14 88 -23 150 -27 108 -5 139 -17 169
-65 31 -51 54 -152 46 -206 -8 -54 -49 -131 -70 -131 -19 0 -19 18 0 50 19 33
19 70 -1 98 -16 23 -58 30 -69 12 -14 -23 -23 -7 -22 37 l2 46 -95 2 c-115 2
-153 15 -174 60 -22 46 -20 145 3 145 3 0 31 -10 61 -21z m109 -209 l74 0 -7
-54 c-3 -30 -2 -57 2 -60 5 -3 24 5 42 19 41 30 60 23 60 -22 0 -41 -15 -73
-35 -73 -18 0 -20 -16 -2 -23 14 -5 15 -253 0 -267 -12 -13 -115 -51 -120 -46
-3 2 -2 42 2 89 7 82 8 84 39 95 39 15 83 49 74 57 -4 4 -35 -7 -69 -24 -104
-52 -150 -40 -188 50 -20 44 -22 62 -16 123 4 39 11 88 16 109 9 33 13 38 32
33 12 -3 55 -6 96 -6z m250 -530 l22 -40 -41 0 c-48 0 -85 -17 -121 -57 -48
-51 -61 -122 -94 -498 -27 -310 -45 -439 -70 -498 -17 -40 -20 -94 -6 -116 5
-7 6 -21 4 -31 -8 -32 -46 -4 -139 102 -113 130 -142 166 -122 150 14 -12 16
-11 11 8 -3 12 2 28 12 40 9 10 14 24 10 30 -3 5 3 25 14 44 38 62 90 244 131
459 35 191 67 318 69 277 1 -8 10 -1 20 16 11 18 31 40 46 50 15 11 35 26 45
35 9 9 42 28 73 42 34 16 58 33 62 47 l7 22 22 -21 c12 -12 32 -39 45 -61z
m-283 -29 c-15 -14 -16 -12 -16 26 0 24 5 43 13 46 19 6 21 -53 3 -72z m397
-9 c29 -28 34 -42 14 -42 -16 0 -117 96 -117 111 0 12 54 -25 103 -69z m-457
-62 c-13 -29 -15 -31 -16 -12 0 13 6 44 13 70 l12 47 3 -35 c2 -20 -4 -51 -12
-70z m74 46 c0 -2 -8 -10 -17 -17 -16 -13 -17 -12 -4 4 13 16 21 21 21 13z
m310 -20 c61 -22 45 -41 -36 -42 -50 0 -83 -6 -112 -21 -23 -11 -42 -18 -42
-14 0 19 38 55 74 72 47 21 68 22 116 5z m237 -26 c47 -28 58 -80 99 -440 46
-405 41 -466 -42 -505 -20 -9 -55 -19 -78 -21 -37 -3 -38 -2 -11 5 30 9 30 9
4 10 -32 1 -47 17 -55 59 -4 18 -10 30 -14 27 -4 -3 -10 14 -14 38 -3 23 -21
157 -41 297 -59 433 -64 473 -51 489 17 22 108 61 141 61 17 0 44 -9 62 -20z
m-228 -152 c7 -62 28 -219 46 -348 19 -129 32 -236 30 -238 -1 -2 -24 39 -51
90 l-49 93 0 227 c0 220 -1 227 -23 257 l-23 31 29 0 29 0 12 -112z m-67 66
c16 -28 19 -61 21 -295 2 -248 4 -273 32 -406 28 -136 28 -144 13 -177 -10
-19 -42 -53 -73 -77 -52 -39 -67 -59 -46 -59 5 0 30 15 54 34 l45 34 7 -34
c14 -75 -77 -173 -180 -194 -30 -6 -53 -16 -50 -21 9 -13 43 -11 90 6 48 17
58 12 16 -9 -39 -21 -106 -20 -141 0 -35 21 -60 64 -60 103 0 35 7 38 36 16
10 -8 28 -14 39 -15 15 0 9 10 -27 41 -42 35 -48 46 -48 79 0 20 7 57 15 80
24 69 43 207 70 520 21 242 30 303 46 338 37 75 108 93 141 36z m158 -743 c0
-9 -23 22 -50 68 -28 46 -50 91 -50 100 0 9 23 -22 50 -68 28 -46 50 -91 50
-100z m12 -90 c17 -31 35 -59 41 -63 16 -10 -39 -96 -73 -113 -49 -25 -57 -20
-62 37 -4 37 -1 59 10 76 11 17 13 39 9 95 -4 40 -9 83 -12 97 -8 29 39 -40
87 -129z m-484 -261 c5 0 14 -17 20 -38 7 -21 23 -49 37 -62 31 -29 32 -60 1
-108 -13 -20 -29 -54 -36 -75 -10 -32 -10 -41 4 -56 9 -10 16 -35 16 -59 0
-77 60 -106 118 -57 43 36 61 92 69 210 6 96 8 106 30 121 14 8 30 28 36 43
19 45 89 117 126 129 19 7 36 10 39 7 3 -2 -2 -51 -12 -107 -9 -57 -30 -227
-46 -378 -27 -242 -57 -448 -76 -517 -8 -27 10 -31 25 -5 8 13 10 7 11 -31 1
-151 -46 -671 -66 -741 -5 -16 -13 -17 -61 -11 -76 9 -159 39 -154 56 21 81
23 171 7 337 -17 190 -21 293 -8 291 18 -3 20 3 12 34 -23 82 -113 643 -119
736 -4 70 -10 106 -18 109 -30 9 -15 -130 57 -548 21 -123 30 -209 30 -290 1
-63 5 -160 10 -215 18 -190 23 -301 16 -367 -7 -58 -9 -65 -27 -61 -10 3 -19
13 -19 23 0 10 -6 20 -13 23 -7 2 -18 38 -26 78 -17 96 -68 249 -121 369 -73
165 -74 169 -61 273 6 51 18 135 26 187 8 52 19 169 25 260 25 408 33 516 37
523 3 4 27 -12 53 -37 27 -26 53 -46 58 -46z m204 -220 c-6 -150 -33 -222 -86
-232 -37 -7 -46 9 -46 79 0 49 -3 63 -15 63 -21 0 -20 6 22 91 l38 77 45 -2
45 -1 -3 -75z m-123 -1501 c31 -11 31 -11 31 -84 0 -57 -3 -74 -16 -79 -28
-11 -31 -7 -38 62 -3 37 -9 77 -12 90 -7 26 -7 26 35 11z m189 -44 c1 -1 -3
-48 -9 -104 -11 -94 -14 -103 -36 -112 -25 -9 -90 1 -85 14 1 4 2 56 2 115 l0
108 63 -10 c34 -5 63 -10 65 -11z m-187 -145 c42 0 35 -21 -14 -46 -23 -12
-87 -44 -142 -72 -167 -85 -214 -83 -61 2 46 26 101 65 122 87 21 22 45 37 52
34 8 -3 27 -5 43 -5z m44 -80 c43 -22 80 -25 120 -10 l27 10 -3 -80 c-5 -108
-17 -119 -135 -132 -92 -9 -264 -2 -264 12 0 4 -12 10 -27 13 -16 3 -37 9 -47
13 -15 6 -17 4 -11 -7 5 -9 1 -8 -10 3 -10 9 -15 22 -13 30 3 7 42 28 87 46
45 19 117 54 159 78 42 24 77 44 77 44 1 0 18 -9 40 -20z"/>
<path d="M5880 4949 c-40 -36 -41 -39 -12 -22 35 19 82 63 66 63 -5 0 -29 -19
-54 -41z"/>
<path d="M5458 2682 c-2 -4 -27 -18 -56 -32 -30 -13 -66 -39 -82 -57 -43 -49
-61 -129 -40 -178 11 -26 12 -22 15 46 2 31 10 70 19 87 25 48 136 121 136 89
0 -8 -16 -90 -36 -183 -19 -93 -38 -182 -40 -199 -3 -16 -16 -86 -30 -155 -32
-168 -53 -311 -47 -327 8 -20 22 -15 35 13 9 20 9 27 -1 33 -10 7 -6 49 23
207 20 109 37 198 39 199 37 13 111 55 154 88 31 23 62 47 69 52 22 15 86 -24
107 -65 14 -26 17 -50 14 -96 -10 -145 -132 -266 -297 -297 -71 -14 -80 -32
-12 -25 127 14 246 97 303 213 28 57 31 71 27 134 -4 80 -23 113 -81 146 l-35
20 24 40 c57 94 52 166 -15 210 -20 14 -58 27 -86 30 -28 3 -62 8 -77 10 -15
2 -28 1 -30 -3z m127 -33 c99 -25 122 -96 65 -195 -28 -50 -31 -52 -84 -58
-30 -4 -76 -18 -101 -30 -26 -14 -45 -19 -45 -12 0 22 57 284 64 295 9 14 45
14 101 0z m-29 -302 c-15 -12 -56 -39 -90 -60 -50 -31 -62 -35 -64 -22 -8 37
93 105 153 105 l30 -1 -29 -22z"/>
<path d="M6131 2622 c-26 -37 -53 -120 -86 -267 -29 -125 -51 -164 -102 -180
-20 -6 -23 -3 -23 25 0 38 -16 70 -34 70 -24 0 -76 -68 -76 -99 0 -30 27 -61
52 -61 8 0 23 9 33 20 10 11 25 20 34 20 9 0 28 7 44 14 32 17 32 15 12 -69
-17 -71 -19 -105 -5 -105 5 0 12 11 16 24 4 17 15 26 38 30 47 9 155 85 194
135 48 64 31 62 -32 -2 -31 -31 -64 -61 -75 -67 -19 -10 -19 -9 -5 17 16 32
19 89 4 98 -14 9 -49 -16 -72 -53 -11 -18 -22 -31 -24 -29 -12 12 51 237 85
305 45 91 75 177 66 192 -10 17 -23 12 -44 -18z m-2 -76 c-11 -32 -23 -55 -25
-53 -3 2 5 30 17 61 12 31 24 55 26 53 2 -3 -6 -30 -18 -61z m-229 -337 c0
-10 -4 -19 -9 -19 -12 0 -23 29 -15 41 8 14 24 0 24 -22z m-22 -66 c-6 -7 -14
-13 -19 -13 -15 0 -30 40 -23 62 6 20 7 19 29 -8 17 -21 20 -33 13 -41z m217
-4 c-18 -33 -62 -79 -77 -79 -12 0 26 71 59 111 21 25 29 29 31 17 2 -9 -4
-31 -13 -49z"/>
<path d="M1877 2633 c-3 -5 -26 -55 -52 -113 -80 -182 -161 -294 -232 -321
-43 -16 -56 4 -51 86 4 81 41 171 90 222 18 18 29 36 25 39 -12 13 -34 -5 -65
-52 -72 -108 -100 -260 -56 -305 65 -64 192 63 301 301 l44 95 -6 -65 c-15
-145 -45 -295 -63 -308 -9 -7 -58 -39 -108 -72 -159 -104 -264 -244 -264 -351
0 -53 25 -93 65 -103 29 -7 89 15 123 47 66 61 137 199 185 358 l34 112 69 31
c39 18 64 35 57 39 -6 4 -36 -4 -68 -18 -50 -22 -56 -23 -51 -8 19 64 57 359
49 379 -6 15 -19 18 -26 7z m-84 -535 c-84 -279 -240 -461 -315 -368 -45 55 2
182 105 285 56 56 206 165 227 165 5 0 -3 -37 -17 -82z"/>
<path d="M10202 2303 c-10 -16 -28 -48 -40 -73 -31 -66 -108 -150 -137 -150
-15 0 -26 7 -30 20 -10 31 3 91 25 120 20 25 20 25 20 3 0 -13 5 -23 11 -23 6
0 9 12 7 28 -5 44 -36 34 -82 -26 -23 -29 -56 -62 -73 -73 -30 -19 -33 -20
-39 -4 -4 9 -2 37 3 61 6 25 7 47 2 50 -14 8 -23 -25 -24 -80 0 -70 20 -80 78
-40 l44 31 9 -41 c8 -37 12 -41 43 -44 29 -3 40 3 82 47 l49 51 0 -29 c0 -36
23 -61 57 -61 18 0 43 18 89 66 57 58 79 95 57 93 -5 0 -29 -26 -54 -57 -78
-97 -129 -105 -129 -21 0 31 8 48 45 89 25 28 45 60 45 70 0 30 -35 25 -58 -7z
m19 -26 c-10 -9 -11 -8 -5 6 3 10 9 15 12 12 3 -3 0 -11 -7 -18z"/>
<path d="M9867 2303 c-12 -11 -8 -23 8 -23 8 0 15 7 15 15 0 16 -12 20 -23 8z"/>
<path d="M1992 2241 c-25 -24 -32 -38 -32 -68 0 -62 40 -83 80 -43 11 11 27
20 35 20 9 0 29 7 45 15 28 15 29 14 32 -12 4 -34 32 -42 58 -18 18 16 19 15
22 -17 5 -52 40 -51 92 5 48 52 73 94 62 104 -4 4 -12 0 -17 -9 -23 -42 -91
-118 -105 -118 -13 0 -14 9 -9 55 9 65 -2 70 -42 20 -15 -19 -32 -35 -37 -35
-5 0 -5 24 -2 53 l7 52 -28 -26 c-35 -33 -70 -52 -83 -44 -6 3 -10 21 -10 39
0 29 -14 56 -30 56 -3 0 -20 -13 -38 -29z m48 -27 c0 -14 -4 -23 -10 -19 -5 3
-10 15 -10 26 0 10 5 19 10 19 6 0 10 -12 10 -26z m-10 -62 c0 -12 -29 -24
-41 -16 -10 6 -12 57 -3 67 7 7 44 -36 44 -51z"/>
<path d="M9046 1560 c-187 -115 -346 -215 -353 -223 -8 -7 -16 -29 -19 -49 -5
-29 -1 -41 24 -69 50 -56 68 -50 323 106 123 76 227 140 231 142 12 6 -29
-104 -75 -200 -118 -250 -339 -509 -577 -680 -116 -82 -351 -202 -482 -245
-413 -137 -836 -110 -1233 77 -418 197 -770 574 -919 986 -20 55 -42 110 -48
121 -12 25 -48 44 -84 44 -34 0 -84 -51 -84 -85 0 -86 153 -415 267 -574 327
-456 836 -763 1377 -831 139 -18 402 -8 541 20 135 27 299 79 428 136 442 196
827 583 1014 1021 25 59 47 109 48 111 1 1 55 -86 121 -194 139 -229 163 -250
235 -207 40 24 54 71 36 115 -22 48 -411 681 -422 685 -6 2 -163 -91 -349
-207z"/>
</g>
</svg>
