<?xml version="1.0" encoding="UTF-8" standalone="no"?>
<!-- Created with Inkscape (http://www.inkscape.org/) -->

<svg
   xmlns:dc="http://purl.org/dc/elements/1.1/"
   xmlns:cc="http://creativecommons.org/ns#"
   xmlns:rdf="http://www.w3.org/1999/02/22-rdf-syntax-ns#"
   xmlns:svg="http://www.w3.org/2000/svg"
   xmlns="http://www.w3.org/2000/svg"
   xmlns:sodipodi="http://sodipodi.sourceforge.net/DTD/sodipodi-0.dtd"
   xmlns:inkscape="http://www.inkscape.org/namespaces/inkscape"
   id="svg3799"
   version="1.1"
   inkscape:version="0.91 r13725"
   xml:space="preserve"
   width="894.90002"
   height="451.68814"
   viewBox="0 0 894.90002 451.68814"
   sodipodi:docname="State diagram oven.svg"><metadata
     id="metadata3805"><rdf:RDF><cc:Work
         rdf:about=""><dc:format>image/svg+xml</dc:format><dc:type
           rdf:resource="http://purl.org/dc/dcmitype/StillImage" /><dc:title></dc:title></cc:Work></rdf:RDF></metadata><defs
     id="defs3803"><clipPath
       clipPathUnits="userSpaceOnUse"
       id="clipPath3813"><path
         d="m 0,1.2207e-4 960,0 0,539.99999793 -960,0 L 0,1.2207e-4 Z"
         id="path3815"
         inkscape:connector-curvature="0"
         style="clip-rule:evenodd" /></clipPath><clipPath
       clipPathUnits="userSpaceOnUse"
       id="clipPath3825"><path
         d="M 1.4305e-5,0 960.00001,0 l 0,540 -959.999995695,0 0,-540 z"
         id="path3827"
         inkscape:connector-curvature="0"
         style="clip-rule:evenodd" /></clipPath><clipPath
       clipPathUnits="userSpaceOnUse"
       id="clipPath3837"><path
         d="M 1.4305e-5,0 960.00001,0 l 0,540 -959.999995695,0 0,-540 z"
         id="path3839"
         inkscape:connector-curvature="0"
         style="clip-rule:evenodd" /></clipPath><clipPath
       clipPathUnits="userSpaceOnUse"
       id="clipPath3849"><path
         d="M 1.4305e-5,0 960.00001,0 l 0,540 -959.999995695,0 0,-540 z"
         id="path3851"
         inkscape:connector-curvature="0"
         style="clip-rule:evenodd" /></clipPath><clipPath
       clipPathUnits="userSpaceOnUse"
       id="clipPath3863"><path
         d="M 1.4305e-5,0 960.00001,0 l 0,540 -959.999995695,0 0,-540 z"
         id="path3865"
         inkscape:connector-curvature="0"
         style="clip-rule:evenodd" /></clipPath><clipPath
       clipPathUnits="userSpaceOnUse"
       id="clipPath3875"><path
         d="M 1.4305e-5,0 960.00001,0 l 0,540 -959.999995695,0 0,-540 z"
         id="path3877"
         inkscape:connector-curvature="0"
         style="clip-rule:evenodd" /></clipPath><clipPath
       clipPathUnits="userSpaceOnUse"
       id="clipPath3887"><path
         d="M 1.4305e-5,0 960.00001,0 l 0,540 -959.999995695,0 0,-540 z"
         id="path3889"
         inkscape:connector-curvature="0"
         style="clip-rule:evenodd" /></clipPath><clipPath
       clipPathUnits="userSpaceOnUse"
       id="clipPath3901"><path
         d="M 1.4305e-5,0 960.00001,0 l 0,540 -959.999995695,0 0,-540 z"
         id="path3903"
         inkscape:connector-curvature="0"
         style="clip-rule:evenodd" /></clipPath><clipPath
       clipPathUnits="userSpaceOnUse"
       id="clipPath3913"><path
         d="M 1.4305e-5,0 960.00001,0 l 0,540 -959.999995695,0 0,-540 z"
         id="path3915"
         inkscape:connector-curvature="0"
         style="clip-rule:evenodd" /></clipPath><clipPath
       clipPathUnits="userSpaceOnUse"
       id="clipPath3925"><path
         d="M 1.4305e-5,0 960.00001,0 l 0,540 -959.999995695,0 0,-540 z"
         id="path3927"
         inkscape:connector-curvature="0"
         style="clip-rule:evenodd" /></clipPath><clipPath
       clipPathUnits="userSpaceOnUse"
       id="clipPath3941"><path
         d="M 1.4305e-5,0 960.00001,0 l 0,540 -959.999995695,0 0,-540 z"
         id="path3943"
         inkscape:connector-curvature="0"
         style="clip-rule:evenodd" /></clipPath><clipPath
       clipPathUnits="userSpaceOnUse"
       id="clipPath3953"><path
         d="M 1.4305e-5,0 960.00001,0 l 0,540 -959.999995695,0 0,-540 z"
         id="path3955"
         inkscape:connector-curvature="0"
         style="clip-rule:evenodd" /></clipPath><clipPath
       clipPathUnits="userSpaceOnUse"
       id="clipPath3965"><path
         d="M 1.4305e-5,0 960.00001,0 l 0,540 -959.999995695,0 0,-540 z"
         id="path3967"
         inkscape:connector-curvature="0"
         style="clip-rule:evenodd" /></clipPath><clipPath
       clipPathUnits="userSpaceOnUse"
       id="clipPath3977"><path
         d="M 1.4305e-5,0 960.00001,0 l 0,540 -959.999995695,0 0,-540 z"
         id="path3979"
         inkscape:connector-curvature="0"
         style="clip-rule:evenodd" /></clipPath><clipPath
       clipPathUnits="userSpaceOnUse"
       id="clipPath3989"><path
         d="M -3.245e-6,540 960,540 960,6.1035e-5 l -960.000003245,0"
         id="path3991"
         inkscape:connector-curvature="0"
         style="clip-rule:evenodd" /></clipPath><clipPath
       clipPathUnits="userSpaceOnUse"
       id="clipPath3999"><path
         d="M 1.4305e-5,0 960.00001,0 l 0,540 -959.999995695,0 0,-540 z"
         id="path4001"
         inkscape:connector-curvature="0"
         style="clip-rule:evenodd" /></clipPath><clipPath
       clipPathUnits="userSpaceOnUse"
       id="clipPath4011"><path
         d="M 1.4305e-5,0 960.00001,0 l 0,540 -959.999995695,0 0,-540 z"
         id="path4013"
         inkscape:connector-curvature="0"
         style="clip-rule:evenodd" /></clipPath><clipPath
       clipPathUnits="userSpaceOnUse"
       id="clipPath4025"><path
         d="M 1.4305e-5,0 960.00001,0 l 0,540 -959.999995695,0 0,-540 z"
         id="path4027"
         inkscape:connector-curvature="0"
         style="clip-rule:evenodd" /></clipPath><clipPath
       clipPathUnits="userSpaceOnUse"
       id="clipPath4037"><path
         d="M 1.4305e-5,0 960.00001,0 l 0,540 -959.999995695,0 0,-540 z"
         id="path4039"
         inkscape:connector-curvature="0"
         style="clip-rule:evenodd" /></clipPath><clipPath
       clipPathUnits="userSpaceOnUse"
       id="clipPath4049"><path
         d="M -7.846e-6,540 960,540 960,1.2207e-4 l -960.000007846,0"
         id="path4051"
         inkscape:connector-curvature="0"
         style="clip-rule:evenodd" /></clipPath><clipPath
       clipPathUnits="userSpaceOnUse"
       id="clipPath4059"><path
         d="M 1.4305e-5,0 960.00001,0 l 0,540 -959.999995695,0 0,-540 z"
         id="path4061"
         inkscape:connector-curvature="0"
         style="clip-rule:evenodd" /></clipPath><clipPath
       clipPathUnits="userSpaceOnUse"
       id="clipPath4071"><path
         d="M 1.4305e-5,0 960.00001,0 l 0,540 -959.999995695,0 0,-540 z"
         id="path4073"
         inkscape:connector-curvature="0"
         style="clip-rule:evenodd" /></clipPath><clipPath
       clipPathUnits="userSpaceOnUse"
       id="clipPath4085"><path
         d="M 1.4305e-5,0 960.00001,0 l 0,540 -959.999995695,0 0,-540 z"
         id="path4087"
         inkscape:connector-curvature="0"
         style="clip-rule:evenodd" /></clipPath><clipPath
       clipPathUnits="userSpaceOnUse"
       id="clipPath4097"><path
         d="M 1.4305e-5,0 960.00001,0 l 0,540 -959.999995695,0 0,-540 z"
         id="path4099"
         inkscape:connector-curvature="0"
         style="clip-rule:evenodd" /></clipPath></defs><sodipodi:namedview
     pagecolor="#ffffff"
     bordercolor="#666666"
     borderopacity="1"
     objecttolerance="10"
     gridtolerance="10"
     guidetolerance="10"
     inkscape:pageopacity="0"
     inkscape:pageshadow="2"
     inkscape:window-width="2435"
     inkscape:window-height="1186"
     id="namedview3801"
     showgrid="false"
     fit-margin-top="0"
     fit-margin-left="0"
     fit-margin-right="0"
     fit-margin-bottom="0"
     inkscape:zoom="0.78666667"
     inkscape:cx="226.86576"
     inkscape:cy="370.71763"
     inkscape:window-x="0"
     inkscape:window-y="0"
     inkscape:window-maximized="0"
     inkscape:current-layer="g3807" /><g
     id="g3807"
     inkscape:groupmode="layer"
     inkscape:label="State diagram oven"
     transform="matrix(1.25,0,0,-1.25,-152.55,592.08813)"><g
       id="g3809"><g
         id="g3811"
         clip-path="url(#clipPath3813)"><path
           d="m 0,6.1035e-5 960,0 0,539.999998965 -960,0 L 0,6.1035e-5 Z"
           style="fill:#ffffff;fill-opacity:1;fill-rule:evenodd;stroke:none"
           id="path3817"
           inkscape:connector-curvature="0" /></g></g><path
       d="m 369.12,366.78 c 0,29.66 49.64,53.7 110.88,53.7 61.24,0 110.88,-24.04 110.88,-53.7 0,-29.66 -49.64,-53.7 -110.88,-53.7 -61.24,0 -110.88,24.04 -110.88,53.7 z"
       style="fill:none;stroke:#000000;stroke-width:0.72000003;stroke-linecap:butt;stroke-linejoin:round;stroke-miterlimit:10;stroke-dasharray:none;stroke-opacity:1"
       id="path3819"
       inkscape:connector-curvature="0" /><g
       id="g3821"><g
         id="g3823"
         clip-path="url(#clipPath3825)"><text
           transform="matrix(1,0,0,-1,459.86,366.7)"
           style="font-variant:normal;font-weight:normal;font-size:32.04000092px;font-family:Calibri;-inkscape-font-specification:Calibri;writing-mode:lr-tb;fill:#000000;fill-opacity:1;fill-rule:nonzero;stroke:none"
           id="text3829"><tspan
             x="0 21.21048 30.630239"
             y="0"
             sodipodi:role="line"
             id="tspan3831">Off</tspan></text>
</g></g><g
       id="g3833"><g
         id="g3835"
         clip-path="url(#clipPath3837)"><text
           transform="matrix(1,0,0,-1,440.18,341.5)"
           style="font-variant:normal;font-weight:normal;font-size:18px;font-family:Calibri;-inkscape-font-specification:Calibri;writing-mode:lr-tb;fill:#000000;fill-opacity:1;fill-rule:nonzero;stroke:none"
           id="text3841"><tspan
             x="0 9.4499998 18.468 26.982 33.012001 37.062 46.512001"
             y="0"
             sodipodi:role="line"
             id="tspan3843">heating</tspan></text>
</g></g><g
       id="g3845"><g
         id="g3847"
         clip-path="url(#clipPath3849)"><text
           transform="matrix(1,0,0,-1,499.37,341.5)"
           style="font-variant:normal;font-weight:normal;font-size:18px;font-family:Calibri;-inkscape-font-specification:Calibri;writing-mode:lr-tb;fill:#000000;fill-opacity:1;fill-rule:nonzero;stroke:none"
           id="text3853"><tspan
             x="0 9.4860001 14.886"
             y="0"
             sodipodi:role="line"
             id="tspan3855">off</tspan></text>
</g></g><path
       d="m 615.84,166.38 c 0,29.66 49.64,53.7 110.88,53.7 61.24,0 110.88,-24.04 110.88,-53.7 0,-29.66 -49.64,-53.7 -110.88,-53.7 -61.24,0 -110.88,24.04 -110.88,53.7 z"
       style="fill:none;stroke:#000000;stroke-width:0.72000003;stroke-linecap:butt;stroke-linejoin:round;stroke-miterlimit:10;stroke-dasharray:none;stroke-opacity:1"
       id="path3857"
       inkscape:connector-curvature="0" /><g
       id="g3859"><g
         id="g3861"
         clip-path="url(#clipPath3863)"><text
           transform="matrix(1,0,0,-1,691.06,166.3)"
           style="font-variant:normal;font-weight:normal;font-size:32.04000092px;font-family:Calibri;-inkscape-font-specification:Calibri;writing-mode:lr-tb;fill:#000000;fill-opacity:1;fill-rule:nonzero;stroke:none"
           id="text3867"><tspan
             x="0 8.0740805 24.895081 32.168159 39.537361 56.35836"
             y="0"
             sodipodi:role="line"
             id="tspan3869">Idling</tspan></text>
</g></g><g
       id="g3871"><g
         id="g3873"
         clip-path="url(#clipPath3875)"><text
           transform="matrix(1,0,0,-1,686.98,141.1)"
           style="font-variant:normal;font-weight:normal;font-size:18px;font-family:Calibri;-inkscape-font-specification:Calibri;writing-mode:lr-tb;fill:#000000;fill-opacity:1;fill-rule:nonzero;stroke:none"
           id="text3879"><tspan
             x="0 9.4499998 18.468 26.982 33.012001 37.062 46.512001"
             y="0"
             sodipodi:role="line"
             id="tspan3881">heating</tspan></text>
</g></g><g
       id="g3883"><g
         id="g3885"
         clip-path="url(#clipPath3887)"><text
           transform="matrix(1,0,0,-1,746.14,141.1)"
           style="font-variant:normal;font-weight:normal;font-size:18px;font-family:Calibri;-inkscape-font-specification:Calibri;writing-mode:lr-tb;fill:#000000;fill-opacity:1;fill-rule:nonzero;stroke:none"
           id="text3891"><tspan
             x="0 9.4860001 14.886"
             y="0"
             sodipodi:role="line"
             id="tspan3893">off</tspan></text>
</g></g><path
       d="m 122.4,166.38 c 0,29.66 49.64,53.7 110.88,53.7 61.24,0 110.88,-24.04 110.88,-53.7 0,-29.66 -49.64,-53.7 -110.88,-53.7 -61.24,0 -110.88,24.04 -110.88,53.7 z"
       style="fill:none;stroke:#000000;stroke-width:0.72000003;stroke-linecap:butt;stroke-linejoin:round;stroke-miterlimit:10;stroke-dasharray:none;stroke-opacity:1"
       id="path3895"
       inkscape:connector-curvature="0" /><g
       id="g3897"><g
         id="g3899"
         clip-path="url(#clipPath3901)"><text
           transform="matrix(1,0,0,-1,182.74,166.3)"
           style="font-variant:normal;font-weight:normal;font-size:32.04000092px;font-family:Calibri;-inkscape-font-specification:Calibri;writing-mode:lr-tb;fill:#000000;fill-opacity:1;fill-rule:nonzero;stroke:none"
           id="text3905"><tspan
             x="0 19.96092 35.91684 51.007679 61.741081 69.01416 85.835159"
             y="0"
             sodipodi:role="line"
             id="tspan3907">Heating</tspan></text>
</g></g><g
       id="g3909"><g
         id="g3911"
         clip-path="url(#clipPath3913)"><text
           transform="matrix(1,0,0,-1,194.14,141.1)"
           style="font-variant:normal;font-weight:normal;font-size:18px;font-family:Calibri;-inkscape-font-specification:Calibri;writing-mode:lr-tb;fill:#000000;fill-opacity:1;fill-rule:nonzero;stroke:none"
           id="text3917"><tspan
             x="0 9.4499998 18.468 26.982 33.012001 37.062 46.512001"
             y="0"
             sodipodi:role="line"
             id="tspan3919">heating</tspan></text>
</g></g><g
       id="g3921"><g
         id="g3923"
         clip-path="url(#clipPath3925)"><text
           transform="matrix(1,0,0,-1,253.3,141.1)"
           style="font-variant:normal;font-weight:normal;font-size:18px;font-family:Calibri;-inkscape-font-specification:Calibri;writing-mode:lr-tb;fill:#000000;fill-opacity:1;fill-rule:nonzero;stroke:none"
           id="text3929"><tspan
             x="0 9.4799995"
             y="0"
             sodipodi:role="line"
             id="tspan3931">on</tspan></text>
</g></g><path
       d="m 311.64,204.86 331.68,0 -0.01,-1 -331.67,0 0,1 z m 330.67,2.5 6,-3 -6,-3 0,6 z"
       style="fill:#000000;fill-opacity:1;fill-rule:nonzero;stroke:none"
       id="path3933"
       inkscape:connector-curvature="0" /><path
       d="m 648.31,128.9 -331.67,0 0,-1 331.67,0 0,1 z m -330.67,2.5 -6,-3 6,-3 0,6 z"
       style="fill:#000000;fill-opacity:1;fill-rule:nonzero;stroke:none"
       id="path3935"
       inkscape:connector-curvature="0" /><g
       id="g3937"><g
         id="g3939"
         clip-path="url(#clipPath3941)"><text
           transform="matrix(1,0,0,-1,450.31,137.02)"
           style="font-variant:normal;font-weight:normal;font-size:18px;font-family:Calibri;-inkscape-font-specification:Calibri;writing-mode:lr-tb;fill:#000000;fill-opacity:1;fill-rule:nonzero;stroke:none"
           id="text3945"><tspan
             x="0 5.8860002 15.372"
             y="0"
             sodipodi:role="line"
             id="tspan3947">too</tspan></text>
</g></g><g
       id="g3949"><g
         id="g3951"
         clip-path="url(#clipPath3953)"><text
           transform="matrix(1,0,0,-1,479.23,137.02)"
           style="font-variant:normal;font-weight:normal;font-size:18px;font-family:Calibri;-inkscape-font-specification:Calibri;writing-mode:lr-tb;fill:#000000;fill-opacity:1;fill-rule:nonzero;stroke:none"
           id="text3957"><tspan
             x="0 7.434 16.92 20.988001"
             y="0"
             sodipodi:role="line"
             id="tspan3959">cold</tspan></text>
</g></g><g
       id="g3961"><g
         id="g3963"
         clip-path="url(#clipPath3965)"><text
           transform="matrix(1,0,0,-1,453.07,212.95)"
           style="font-variant:normal;font-weight:normal;font-size:18px;font-family:Calibri;-inkscape-font-specification:Calibri;writing-mode:lr-tb;fill:#000000;fill-opacity:1;fill-rule:nonzero;stroke:none"
           id="text3969"><tspan
             x="0 5.8860002 15.372"
             y="0"
             sodipodi:role="line"
             id="tspan3971">too</tspan></text>
</g></g><g
       id="g3973"><g
         id="g3975"
         clip-path="url(#clipPath3977)"><text
           transform="matrix(1,0,0,-1,481.99,212.95)"
           style="font-variant:normal;font-weight:normal;font-size:18px;font-family:Calibri;-inkscape-font-specification:Calibri;writing-mode:lr-tb;fill:#000000;fill-opacity:1;fill-rule:nonzero;stroke:none"
           id="text3981"><tspan
             x="0 9.4499998 18.936001"
             y="0"
             sodipodi:role="line"
             id="tspan3983">hot</tspan></text>
</g></g><g
       id="g3985"><g
         id="g3987"
         clip-path="url(#clipPath3989)"><path
           d="m 727.24,220.05 -0.19,6.88 -0.59,6.89 -0.96,6.86 -1.32,6.82 -1.67,6.77 -2.01,6.69 -2.33,6.61 -2.65,6.52 -2.94,6.41 -3.23,6.29 -3.5,6.15 -3.76,6.01 -4.02,5.85 -4.25,5.66 -4.47,5.49 -4.7,5.27 -4.89,5.06 -5.07,4.84 -5.25,4.59 -5.42,4.33 -5.56,4.07 -5.7,3.78 -5.83,3.49 -5.93,3.18 -6.05,2.86 -6.13,2.52 -6.21,2.16 -6.26,1.81 -6.32,1.43 -6.36,1.04 -6.39,0.63 -1.39,0.04 -0.03,-0.99 1.37,-0.05 -0.03,0 6.35,-0.63 -0.03,0.01 6.33,-1.04 -0.03,0.01 6.29,-1.42 -0.03,0.01 6.24,-1.8 -0.02,0.01 6.18,-2.16 -0.03,0 6.11,-2.5 -0.03,0.01 6.03,-2.85 -0.03,0.01 5.92,-3.16 -0.02,0.01 5.81,-3.48 -0.02,0.01 5.68,-3.76 -0.02,0.01 5.54,-4.06 -0.01,0.01 5.4,-4.32 -0.02,0.02 5.24,-4.58 -0.02,0.02 5.05,-4.82 -0.01,0.01 4.88,-5.05 -0.02,0.02 4.68,-5.26 -0.01,0.02 4.46,-5.47 -0.01,0.01 4.24,-5.64 -0.02,0.01 4.01,-5.82 -0.01,0.01 3.75,-5.99 -0.01,0.02 3.49,-6.14 -0.01,0.02 3.22,-6.27 -0.01,0.02 2.93,-6.39 -0.01,0.02 2.64,-6.49 -0.01,0.02 2.32,-6.59 -0.01,0.02 2.01,-6.67 -0.01,0.03 1.66,-6.74 0,0.02 1.32,-6.8 -0.01,0.03 0.96,-6.83 -0.01,0.03 0.59,-6.87 0,0.03 0.19,-6.87 1,0.03 z m -130.26,149.47 -6.1,-2.8 5.9,-3.2 0.2,6 z"
           style="fill:#000000;fill-opacity:1;fill-rule:nonzero;stroke:none"
           id="path3993"
           inkscape:connector-curvature="0" /></g></g><g
       id="g3995"><g
         id="g3997"
         clip-path="url(#clipPath3999)"><text
           transform="matrix(1,0,0,-1,711.22,318.07)"
           style="font-variant:normal;font-weight:normal;font-size:18.02400017px;font-family:Calibri;-inkscape-font-specification:Calibri;writing-mode:lr-tb;fill:#000000;fill-opacity:1;fill-rule:nonzero;stroke:none"
           id="text4003"><tspan
             x="0 9.4986477 14.887824 20.385143"
             y="0"
             sodipodi:role="line"
             id="tspan4005">off </tspan></text>
</g></g><g
       id="g4007"><g
         id="g4009"
         clip-path="url(#clipPath4011)"><text
           transform="matrix(1,0,0,-1,711.22,296.45)"
           style="font-variant:normal;font-weight:normal;font-size:18px;font-family:Calibri;-inkscape-font-specification:Calibri;writing-mode:lr-tb;fill:#000000;fill-opacity:1;fill-rule:nonzero;stroke:none"
           id="text4015"><tspan
             x="0 9.4499998 15.48 24.444 31.535999 38.574001 47.591999"
             y="0"
             sodipodi:role="line"
             id="tspan4017">pressed</tspan></text>
</g></g><path
       d="m 369.13,367.22 -6.39,-0.21 -6.38,-0.63 -6.36,-1.04 -6.32,-1.43 -6.27,-1.81 -6.21,-2.16 -6.13,-2.52 -6.03,-2.86 -5.95,-3.18 -5.83,-3.49 -5.69,-3.78 -5.57,-4.07 -5.41,-4.33 -5.25,-4.59 -5.08,-4.84 -4.89,-5.06 -4.69,-5.27 -4.47,-5.49 -4.26,-5.66 -4.01,-5.85 -3.77,-6.01 -3.5,-6.15 -3.23,-6.29 -2.94,-6.41 -2.65,-6.52 -2.33,-6.61 -2,-6.69 -1.68,-6.77 -1.32,-6.82 -0.96,-6.86 -0.58,-6.89 -0.06,-1.88 1,-0.03 0.05,1.87 0,-0.03 0.59,6.87 0,-0.03 0.95,6.83 -0.01,-0.03 1.32,6.8 0,-0.02 1.66,6.74 0,-0.03 2,6.67 -0.01,-0.02 2.32,6.59 -0.01,-0.02 2.64,6.49 -0.01,-0.02 2.93,6.39 -0.01,-0.02 3.22,6.27 -0.01,-0.01 3.5,6.13 -0.01,-0.02 3.75,5.99 -0.01,-0.01 4,5.82 -0.01,-0.01 4.24,5.64 -0.01,-0.01 4.46,5.47 -0.01,-0.02 4.67,5.26 -0.01,-0.02 4.87,5.05 -0.01,-0.01 5.06,4.82 -0.02,-0.02 5.24,4.58 -0.02,-0.02 5.4,4.32 -0.02,-0.01 5.55,4.06 -0.02,-0.01 5.68,3.76 -0.02,-0.01 5.8,3.48 -0.02,-0.01 5.93,3.16 -0.03,-0.01 6.02,2.85 -0.03,-0.01 6.11,2.5 -0.02,0 6.18,2.16 -0.03,-0.01 6.24,1.8 -0.03,-0.01 6.29,1.42 -0.03,-0.01 6.33,1.04 -0.03,-0.01 6.35,0.63 -0.03,0 6.37,0.21 -0.03,1 z m -138.68,-141.1 2.83,-6.08 3.17,5.91 -6,0.17 z"
       style="fill:#000000;fill-opacity:1;fill-rule:nonzero;stroke:none"
       id="path4019"
       inkscape:connector-curvature="0" /><g
       id="g4021"><g
         id="g4023"
         clip-path="url(#clipPath4025)"><text
           transform="matrix(1,0,0,-1,238.44,325.34)"
           style="font-variant:normal;font-weight:normal;font-size:18px;font-family:Calibri;-inkscape-font-specification:Calibri;writing-mode:lr-tb;fill:#000000;fill-opacity:1;fill-rule:nonzero;stroke:none"
           id="text4029"><tspan
             x="0 9.4860001 18.936001"
             y="0"
             sodipodi:role="line"
             id="tspan4031">on </tspan></text>
</g></g><g
       id="g4033"><g
         id="g4035"
         clip-path="url(#clipPath4037)"><text
           transform="matrix(1,0,0,-1,200.28,303.74)"
           style="font-variant:normal;font-weight:normal;font-size:18px;font-family:Calibri;-inkscape-font-specification:Calibri;writing-mode:lr-tb;fill:#000000;fill-opacity:1;fill-rule:nonzero;stroke:none"
           id="text4041"><tspan
             x="0 9.4499998 15.48 24.444 31.535999 38.574001 47.591999"
             y="0"
             sodipodi:role="line"
             id="tspan4043">pressed</tspan></text>
</g></g><g
       id="g4045"><g
         id="g4047"
         clip-path="url(#clipPath4049)"><path
           d="m 392.64,328.44 -0.54,-5.65 -0.92,-5.31 -1.27,-5.28 -1.61,-5.24 -1.93,-5.19 -2.24,-5.12 -2.54,-5.05 -2.82,-4.95 -3.11,-4.88 -3.37,-4.76 -3.61,-4.64 -3.86,-4.53 -4.09,-4.38 -4.29,-4.23 -4.5,-4.09 -4.7,-3.91 -4.87,-3.74 -5.04,-3.55 -5.2,-3.35 -5.34,-3.14 -5.47,-2.93 -5.59,-2.69 -5.7,-2.46 -5.8,-2.21 -5.88,-1.95 -5.95,-1.67 -6.02,-1.39 -6.06,-1.11 -6.1,-0.8 -6.12,-0.49 -6.13,-0.16 -0.02,1 6.11,0.16 -0.03,0 6.1,0.49 -0.02,0 6.07,0.79 -0.02,0 6.03,1.1 -0.02,-0.01 5.99,1.39 -0.02,0 5.93,1.66 -0.02,-0.01 5.86,1.95 -0.02,-0.01 5.77,2.2 -0.02,-0.01 5.68,2.45 -0.02,-0.01 5.57,2.69 -0.02,-0.01 5.46,2.92 -0.01,-0.01 5.31,3.12 -0.01,-0.01 5.18,3.35 -0.02,-0.01 5.03,3.54 -0.02,-0.02 4.85,3.72 -0.01,-0.01 4.68,3.9 -0.02,-0.01 4.49,4.07 -0.02,-0.01 4.28,4.22 -0.01,-0.02 4.07,4.37 -0.01,-0.02 3.84,4.51 -0.02,-0.02 3.6,4.63 -0.01,-0.02 3.36,4.74 -0.01,-0.02 3.09,4.85 -0.02,-0.02 2.82,4.94 -0.02,-0.03 2.53,5.03 -0.01,-0.02 2.23,5.09 -0.01,-0.03 1.92,5.16 -0.01,-0.03 1.59,5.22 0,-0.03 1.26,5.25 0,-0.03 0.91,5.28 0,-0.04 0.53,5.62 1,-0.09 z m -3.54,-0.82 3.26,5.86 2.73,-6.12 -5.99,0.26 z"
           style="fill:#000000;fill-opacity:1;fill-rule:nonzero;stroke:none"
           id="path4053"
           inkscape:connector-curvature="0" /></g></g><g
       id="g4055"><g
         id="g4057"
         clip-path="url(#clipPath4059)"><text
           transform="matrix(1,0,0,-1,335.54,292.61)"
           style="font-variant:normal;font-weight:normal;font-size:18px;font-family:Calibri;-inkscape-font-specification:Calibri;writing-mode:lr-tb;fill:#000000;fill-opacity:1;fill-rule:nonzero;stroke:none"
           id="text4063"><tspan
             x="0 9.4860001 14.886 20.375999"
             y="0"
             sodipodi:role="line"
             id="tspan4065">off </tspan></text>
</g></g><g
       id="g4067"><g
         id="g4069"
         clip-path="url(#clipPath4071)"><text
           transform="matrix(1,0,0,-1,298.8,271.01)"
           style="font-variant:normal;font-weight:normal;font-size:18px;font-family:Calibri;-inkscape-font-specification:Calibri;writing-mode:lr-tb;fill:#000000;fill-opacity:1;fill-rule:nonzero;stroke:none"
           id="text4075"><tspan
             x="0 9.4499998 15.48 24.444 31.535999 38.574001 47.591999"
             y="0"
             sodipodi:role="line"
             id="tspan4077">pressed</tspan></text>
</g></g><path
       d="m 480.5,454.44 0,-29.07 -1,0 0,29.07 1,0 z m -3.5,0 c 0,1.66 1.34,3 3,3 1.66,0 3,-1.34 3,-3 0,-1.66 -1.34,-3 -3,-3 -1.66,0 -3,1.34 -3,3 z m 6,-28.07 -3,-6 -3,6 6,0 z"
       style="fill:#000000;fill-opacity:1;fill-rule:nonzero;stroke:none"
       id="path4079"
       inkscape:connector-curvature="0" /><g
       id="g4081"><g
         id="g4083"
         clip-path="url(#clipPath4085)"><text
           transform="matrix(1,0,0,-1,461.76,463.15)"
           style="font-variant:normal;font-weight:normal;font-size:18px;font-family:Calibri;-inkscape-font-specification:Calibri;writing-mode:lr-tb;fill:#000000;fill-opacity:1;fill-rule:nonzero;stroke:none"
           id="text4089"><tspan
             x="0"
             y="0"
             id="tspan4091">s</tspan></text>
</g></g><g
       id="g4093"><g
         id="g4095"
         clip-path="url(#clipPath4097)"><text
           transform="matrix(1,0,0,-1,468.6,463.15)"
           style="font-variant:normal;font-weight:normal;font-size:18px;font-family:Calibri;-inkscape-font-specification:Calibri;writing-mode:lr-tb;fill:#000000;fill-opacity:1;fill-rule:nonzero;stroke:none"
           id="text4101"><tspan
             x="0 5.7600002 14.382 20.664"
             y="0"
             sodipodi:role="line"
             id="tspan4103">tart</tspan></text>
</g></g></g></svg>