<?xml version="1.0" encoding="UTF-8" standalone="no"?>
<svg
   xmlns:dc="http://purl.org/dc/elements/1.1/"
   xmlns:cc="http://creativecommons.org/ns#"
   xmlns:rdf="http://www.w3.org/1999/02/22-rdf-syntax-ns#"
   xmlns:svg="http://www.w3.org/2000/svg"
   xmlns="http://www.w3.org/2000/svg"
   xmlns:sodipodi="http://sodipodi.sourceforge.net/DTD/sodipodi-0.dtd"
   xmlns:inkscape="http://www.inkscape.org/namespaces/inkscape"
   version="1.0"
   width="1237.588"
   height="509.3075"
   viewBox="0 0 12375.88 5093.075"
   preserveAspectRatio="xMidYMid meet"
   id="svg304"
   sodipodi:docname="lazy-programmer.svg"
   inkscape:version="0.92.4 (5da689c313, 2019-01-14)">
  <metadata
     id="metadata310">
    <rdf:RDF>
      <cc:Work
         rdf:about="">
        <dc:format>image/svg+xml</dc:format>
        <dc:type
           rdf:resource="http://purl.org/dc/dcmitype/StillImage" />
        <dc:title></dc:title>
      </cc:Work>
    </rdf:RDF>
  </metadata>
  <defs
     id="defs308" />
  <sodipodi:namedview
     pagecolor="#ffffff"
     bordercolor="#666666"
     borderopacity="1"
     objecttolerance="10"
     gridtolerance="10"
     guidetolerance="10"
     inkscape:pageopacity="0"
     inkscape:pageshadow="2"
     inkscape:window-width="3840"
     inkscape:window-height="1537"
     id="namedview306"
     showgrid="false"
     inkscape:zoom="1.1803869"
     inkscape:cx="954.71978"
     inkscape:cy="129.3199"
     inkscape:window-x="2992"
     inkscape:window-y="-8"
     inkscape:window-maximized="1"
     inkscape:current-layer="layer102" />
  <g
     id="layer101"
     style="fill:#000000;stroke:none"
     transform="translate(-1964.12,-376.925)">
    <path
       d="m 12590,5405 c 0,-47 4,-65 13,-65 10,0 12,16 9,60 -3,53 -2,60 15,60 10,0 23,-4 29,-8 35,-24 68,-152 52,-207 -5,-17 -11,-38 -13,-48 -9,-42 -17,-55 -32,-61 -31,-12 -45,17 -47,103 -1,45 -6,80 -12,79 -9,-3 -10,-53 -3,-138 l 4,-45 -55,2 c -30,1 -64,4 -76,7 -30,8 -71,47 -84,81 -14,38 -15,148 0,174 6,12 9,21 8,22 -2,0 -28,3 -58,6 -30,3 -60,9 -67,15 -24,20 -31,-4 -29,-90 4,-105 34,-207 75,-246 36,-35 79,-46 173,-46 61,0 78,-3 78,-14 0,-8 -6,-17 -12,-19 -8,-3 -6,-6 4,-6 10,-1 20,-11 22,-23 6,-30 19,-116 21,-148 4,-42 6,-46 14,-25 5,11 7,34 4,50 -4,33 -12,89 -16,120 -2,18 6,21 73,27 41,3 76,5 78,3 11,-11 -9,-367 -27,-465 -5,-30 -13,-118 -17,-195 -10,-196 -9,-235 5,-235 5,0 10,46 11,103 1,56 3,116 5,132 2,17 6,64 9,105 4,41 9,91 12,110 9,62 14,152 18,293 2,103 7,141 17,151 8,6 39,20 69,31 109,37 179,101 188,173 8,74 7,108 -4,142 -12,34 -13,35 -72,38 l -59,3 -7,-92 c -10,-137 -33,-165 -136,-171 l -45,-3 3,35 c 14,195 -20,290 -105,290 h -33 z m -238,-55 c -5,-161 53,-223 218,-233 25,-2 61,0 80,4 22,5 39,4 48,-3 9,-8 16,-8 20,-1 4,5 36,13 72,17 35,4 72,12 82,17 36,19 53,79 57,202 1,47 1,47 36,47 49,0 78,-45 71,-110 -12,-106 -19,-116 -113,-190 -20,-16 -122,-52 -131,-46 -5,3 -24,1 -43,-4 -19,-5 -60,-11 -92,-14 -54,-4 -59,-3 -69,20 -12,25 -14,26 -123,28 -66,2 -101,14 -126,42 -16,18 -49,78 -49,89 -1,3 -3,10 -5,17 -3,7 -9,50 -13,95 -9,91 -7,93 47,90 l 35,-2 z"
       id="path2"
       inkscape:connector-curvature="0"
       style="fill:#000000" />
    <path
       d="m 9834,5429 c -19,-38 -21,-120 -5,-254 49,-426 63,-534 71,-560 9,-29 13,-63 25,-195 4,-36 11,-103 16,-150 19,-180 28,-289 33,-405 2,-66 7,-131 10,-145 8,-34 9,-231 1,-252 -6,-15 -24,-17 -151,-15 -132,2 -145,0 -163,-18 -18,-17 -19,-25 -11,-56 6,-20 21,-48 35,-63 22,-23 32,-27 73,-25 26,2 72,2 101,1 l 55,-2 -31,-32 c -19,-20 -38,-56 -49,-93 -18,-63 -17,-137 6,-400 5,-60 12,-163 16,-227 5,-87 11,-118 20,-118 15,0 13,80 -6,310 -22,257 -24,382 -7,441 26,87 44,98 152,95 50,-2 199,-7 333,-11 l 242,-8 v -34 c 0,-27 -4,-33 -22,-34 -13,-1 -154,-2 -313,-3 -262,-1 -294,-3 -318,-19 -46,-30 -52,-56 -39,-155 6,-48 16,-134 22,-192 6,-58 20,-143 32,-190 32,-126 34,-161 12,-177 -10,-7 -29,-13 -43,-13 -16,0 -22,-3 -15,-10 14,-14 82,7 94,30 15,28 12,60 -10,126 -11,32 -27,124 -35,204 -9,80 -20,164 -25,188 -13,56 -13,128 1,153 20,38 52,42 366,40 298,-2 302,-2 313,19 6,11 10,34 8,50 l -3,30 -235,5 c -129,3 -253,9 -275,14 -46,10 431,5 565,-6 47,-4 97,-7 113,-7 38,0 34,-17 -10,-41 -26,-14 -40,-30 -47,-53 -18,-63 20,-101 108,-108 56,-4 145,44 170,91 l 19,35 h 76 c 90,0 117,-11 72,-30 -40,-16 -61,-51 -61,-100 0,-48 14,-80 35,-80 17,0 19,12 5,26 -6,6 -12,29 -14,52 -4,36 0,46 24,71 36,36 102,49 136,27 27,-18 42,-58 25,-64 -8,-3 -7,-8 3,-16 13,-9 14,-15 3,-36 -14,-28 -78,-53 -165,-65 -33,-5 -50,-11 -44,-17 11,-11 126,14 189,42 33,14 45,26 49,48 l 6,28 151,-27 c 84,-15 165,-32 180,-38 16,-6 46,-11 68,-11 34,0 38,2 27,14 -9,10 -17,11 -25,4 -8,-7 -26,-5 -55,6 -24,8 -83,23 -133,32 -49,9 -97,17 -105,19 -8,1 -38,6 -65,9 -47,7 -51,10 -61,42 -13,40 -11,40 101,22 39,-6 135,-12 215,-13 80,-1 172,-2 205,-3 l 60,-2 -35,-21 c -66,-39 -122.651,-85.9026 -122.651,-94.9026 0,-4 37.651,24.9026 55.651,37.9026 17,14 58,37 89,51 51,24 68,27 175,27 82,1 157.71,5 178.71,16 27,13 -3.71,14 -25.71,10 -14,-3 -79,-8 -145,-11 l -120,-7 35,26 c 76,57 105,82 125,106 11,13 36,41 55,60 20,20 46,51 59,70 37,54 75,88 103,95 15,4 34,15 44,26 9,10 21,19 26,19 5,0 25,10 46,23 20,13 57,31 81,41 l 43,17 -18,-29 c -35,-52 -99,-143 -184,-261 -88,-122 -124,-180 -116,-188 3,-3 14,10 25,28 22,37 90,134 106,153 22,25 95,126 95,131 0,16 125,177 156,200 50,38 34,44 -18,6 -23,-17 -49,-31 -57,-31 -9,-1 -52,-20 -96,-44 -44,-25 -106,-58 -137,-75 -38,-21 -70,-48 -96,-83 -58,-78 -195,-221 -228,-238 -16,-8 -40,-22 -54,-31 -22,-15 -49,-16 -255,-8 -126,4 -275,15 -330,24 -55,9 -161,18 -235,21 -131,6 -136,7 -157,32 -12,15 -22,30 -23,33 -1,26 245,38 567,28 112,-3 125,-2 150,17 20,16 27,29 26,49 -6,68 -43,79 -304,84 l -56,1 -6,43 c -3,23 -13,72 -21,109 -15,67 -20,120 -32,298 -3,52 -7,97 -9,100 -3,6 -13,185 -21,400 -2,80 -7,152 -9,160 -2,8 -7,35 -10,60 -4,25 -13,72 -20,105 -19,81 -45,340 -41,390 3,22 5,98 6,168 2,97 6,131 17,142 18,19 53,19 78,1 16,-12 18,-31 20,-207 2,-212 20,-518 35,-589 5,-25 12,-81 15,-125 7,-107 20,-221 43,-390 15,-105 20,-203 21,-390 1,-151 5,-253 11,-259 12,-12 11,-40 11,284 0,151 -5,302 -10,335 -24,148 -42,296 -61,505 -12,124 -27,286 -34,360 -7,74 -11,203 -9,286 2,84 -1,163 -6,177 -13,34 -85,53 -118,31 -13,-8 -23,-24 -23,-37 -1,-32 -9,-170 -15,-257 -6,-87 18,-333 45,-471 19,-92 33,-276 45,-557 2,-74 7,-137 9,-140 2,-4 7,-61 11,-127 6,-117 19,-240 30,-280 19,-76 26,-117 22,-122 -3,-3 -109,-7 -234,-8 -125,-2 -284,-6 -353,-10 -127,-7 -403,13 -480,35 -19,6 -65,10 -101,10 -65,0 -66,0 -66,28 0,15 -10,140 -23,277 -12,138 -23,293 -25,345 -6,218 -17,419 -27,475 -5,33 -12,76 -14,95 -3,19 -7,46 -9,60 -11,60 -21,315 -24,607 -1,63 -1,63 -41,83 -57,29 -86,26 -106,-11 z m 89,0 c 12,-7 25,-17 29,-22 3,-6 7,-63 8,-126 3,-329 9,-421 49,-701 5,-36 12,-146 16,-245 3,-99 8,-216 11,-260 2,-44 6,-112 9,-152 2,-40 6,-94 9,-120 15,-124 29,-271 30,-303 1,-32 -2,-35 -34,-40 l -35,-6 v 125 c 0,70 -6,160 -12,201 -7,41 -15,136 -18,210 -6,143 -11,200 -20,265 -4,22 -13,101 -20,175 -13,127 -20,175 -30,210 -5,15 -21,129 -31,205 -2,22 -9,74 -14,115 -5,41 -12,104 -15,140 -4,36 -8,71 -11,79 -9,29 -5,221 6,240 12,23 40,27 73,10 z m 332,-1994 c 232,-36 477,-47 640,-28 85,10 763,1 787,-11 26,-12 31,-38 11,-58 -21,-21 -59,-23 -388,-20 -162,2 -234,-1 -275,-12 -41,-10 -97,-13 -215,-9 -217,6 -367,9 -575,11 -96,1 -253,5 -349,9 l -173,6 -19,31 c -25,41 -24,63 4,72 12,4 92,7 177,6 85,-1 184,2 220,6 67,8 86,7 155,-3 z m -188,-152 c -4,-3 -10,-3 -14,0 -3,4 0,7 7,7 7,0 10,-3 7,-7 z m 903,-55 c 20,-21 20,-23 4,-35 -16,-12 -16,-13 4,-13 27,0 28,-11 5,-38 -24,-26 -80,-62 -68,-43 6,11 4,13 -11,6 -71,-29 -71,-29 -105,-9 -27,16 -35,27 -37,55 -3,41 15,62 74,83 60,22 110,20 134,-6 z"
       id="path4"
       inkscape:connector-curvature="0"
       style="fill:#000000"
       sodipodi:nodetypes="cccccccccccccccccccscccccsccccsccssccccccccccccscccccscssscccccccscccccscsccccccscccscccccccccscccscccccsccscccccccccscccccccccccccscccccccccccssccsccccscccccccccssccccccccccccccccsccsccccccscccccccsccccccccsccccsccssccccccc" />
    <path
       d="m 3165,5416 c -17,-12 -18,-24 -12,-147 4,-74 13,-170 22,-214 9,-44 18,-151 20,-239 3,-87 7,-179 10,-205 8,-83 33,-465 31,-498 -1,-32 -2,-33 -44,-33 -54,0 -91,19 -126,64 -15,20 -25,36 -22,36 2,0 -2,23 -10,52 -8,34 -14,116 -15,233 -1,169 -16,319 -40,392 -5,17 -12,44 -15,60 -8,48 -38,128 -51,136 -7,4 -13,14 -13,22 0,8 -16,26 -35,41 -19,14 -35,32 -35,39 0,7 -7,18 -15,25 -8,7 -12,17 -9,22 7,10 -42,55 -69,64 -13,4 -15,9 -8,18 8,9 2,12 -24,12 -27,0 -35,-4 -35,-18 0,-19 67,-89 84,-87 30,4 43,-4 60,-36 10,-19 26,-37 35,-40 9,-3 25,-20 36,-37 39,-66 54,-117 96,-318 6,-30 13,-155 15,-278 6,-335 32,-397 182,-417 l 52,-7 v -81 c 0,-45 1,-156 3,-247 l 2,-165 -484,2 c -266,2 -486,4 -487,6 -2,2 -4,86 -4,188 -2,219 -16,418 -40,544 -19,100 -22,125 -36,350 -3,49 -9,108 -14,130 -10,45 -23,296 -24,480 l -1,120 h 53 c 63,0 58,12 71,-180 10,-134 18,-209 42,-375 6,-47 7,-114 2,-180 -11,-143 -10,-243 4,-320 6,-36 14,-96 18,-135 3,-38 15,-126 27,-195 16,-102 19,-148 13,-247 -4,-77 -3,-123 4,-127 16,-10 21,24 22,159 1,89 -5,166 -19,245 -11,63 -24,157 -27,209 -4,52 -11,105 -16,118 -12,31 -14,144 -5,275 4,62 3,133 -3,165 -5,32 -13,92 -16,133 -4,41 -10,93 -15,115 -5,22 -11,94 -15,160 -4,66 -11,137 -16,158 l -10,38 -62,-3 -62,-3 2,-235 c 2,-129 7,-275 13,-325 10,-90 12,-119 30,-352 5,-68 11,-127 14,-131 20,-32 44,-484 38,-719 l -2,-63 h -115 c -108,0 -115,-1 -128,-22 -8,-13 -15,-43 -16,-67 -1,-25 -4,-48 -6,-52 -3,-4 2,-10 10,-13 18,-6 31,-4 28,5 -4,11 375,-9 577,-31 62,-7 60,-7 -38,-8 -113,-2 -184,-16 -204,-39 -35,-42 -36,-161 -9,-583 7,-96 13,-199 13,-228 l 2,-53 35,3 36,3 -2,100 c 0,55 -4,188 -9,295 -8,200 -7,302 2,332 8,27 67,37 237,39 86,1 157,5 157,8 0,10 -331,1 -368,-10 -17,-6 -37,-20 -43,-31 -11,-20 -8,-246 7,-615 4,-106 3,-113 -15,-113 -17,0 -19,11 -25,148 -4,81 -9,163 -11,182 -2,19 -7,89 -10,155 -3,66 -8,153 -11,193 -7,96 6,116 78,131 93,19 279,32 423,31 166,-2 164,-2 145,10 -11,7 -7,10 18,10 40,0 72,-15 72,-35 0,-20 -16,-28 -95,-41 l -70,-13 65,6 c 70,6 120,25 120,47 0,29 -36,46 -95,46 -32,0 -55,3 -51,7 3,4 156,8 338,10 321,3 334,4 378,25 42,22 45,26 48,68 2,25 -2,57 -8,70 -9,21 -10,16 -7,-30 5,-69 3,-76 -36,-97 -29,-16 -78,-17 -512,-17 -364,1 -519,5 -640,17 -88,9 -225,19 -305,22 -204,8 -200,7 -200,60 0,24 4,47 10,50 9,6 786,9 1230,5 234,-2 443,7 436,19 -2,3 -93,3 -202,-2 -108,-4 -198,-6 -200,-5 -1,2 -5,185 -7,408 -3,223 -8,419 -10,435 -11,57 -28,271 -36,452 -5,100 -12,187 -16,193 -4,6 -13,78 -20,161 -16,165 -10,206 25,195 11,-3 30,-9 42,-13 15,-4 19,-3 14,5 -10,17 13,15 48,-3 32,-17 45,-15 22,4 -21,17 -75,31 -81,21 -3,-5 -16,-5 -31,0 -31,12 -27,13 -49,-4 z m -417,-166 c 31,-19 43,-40 22,-40 -13,0 -78,59 -65,60 6,0 25,-9 43,-20 z m -6,-1891 c 75,-1 140,1 145,4 4,2 21,-1 37,-8 23,-10 -8,-13 -195,-19 -123,-3 -260,-12 -304,-20 -44,-7 -82,-12 -84,-10 -2,2 -1,10 2,18 11,27 95,46 182,41 44,-3 142,-5 217,-6 z"
       id="path6"
       inkscape:connector-curvature="0"
       style="fill:#000000" />
    <path
       d="m 5702,5408 c -14,-14 -16,-58 -2,-58 5,0 9,10 7,23 -2,19 3,22 34,25 19,2 47,-1 61,-7 25,-9 26,-13 33,-133 4,-68 9,-188 10,-268 2,-80 6,-174 9,-210 3,-36 8,-112 11,-170 3,-58 10,-132 15,-165 11,-69 50,-629 50,-711 v -55 l -47,3 -48,3 -2,65 c -2,36 -7,128 -13,205 -5,77 -13,230 -16,340 -5,211 -8,232 -47,445 -29,161 -34,200 -43,390 -4,80 -10,154 -15,165 -4,11 -5,-45 -2,-125 5,-151 30,-361 63,-540 13,-70 23,-190 30,-360 5,-140 14,-311 19,-380 12,-179 12,-197 -2,-203 -7,-2 -44,-2 -82,2 -86,7 -112,4 -119,-15 -3,-9 -3,-52 0,-97 l 7,-82 136,-2 c 187,-2 435,-11 501,-18 30,-3 298,-7 594,-10 391,-3 542,-8 547,-16 10,-16 16,12 23,101 4,41 3,80 -1,85 -5,7 -61,11 -143,10 h -135 l 3,55 c 4,65 -15,343 -30,445 -5,39 -11,214 -13,390 -2,176 -8,354 -14,395 -7,41 -14,89 -17,105 -2,17 -7,62 -10,100 -6,83 -42,255 -56,273 -6,6 -25,12 -42,12 h -32 l -2,-137 c -1,-76 2,-169 7,-208 6,-38 12,-115 15,-170 7,-113 30,-311 53,-460 8,-55 19,-215 24,-355 5,-140 12,-297 16,-348 7,-77 6,-92 -7,-92 -8,0 -102,7 -210,16 -149,12 -271,15 -517,11 -234,-4 -326,-2 -336,6 -10,8 -17,43 -21,112 -3,55 -8,123 -10,150 -3,28 -8,102 -11,165 -6,106 -19,266 -30,372 -16,149 -27,316 -35,553 -12,338 -14,351 -51,370 -34,18 -91,19 -107,3 z m 1292,-24 c 13,-35 35,-143 41,-209 3,-38 15,-133 25,-210 15,-112 19,-199 19,-435 -1,-212 3,-329 14,-415 20,-148 32,-390 23,-437 -6,-31 -9,-35 -31,-30 -21,4 -25,10 -26,41 0,20 -2,54 -4,76 -1,22 -7,108 -14,190 -6,83 -9,173 -7,200 4,60 -9,226 -29,350 -22,143 -45,333 -49,420 -2,44 -9,133 -16,199 -11,109 -11,121 6,152 14,25 16,37 7,42 -6,4 -14,24 -18,45 -7,36 -6,37 23,37 18,0 32,-6 36,-16 z M 6330,3655 c 344,-1 498,-6 633,-19 99,-9 236,-16 310,-14 l 132,3 -3,-65 c -2,-36 -6,-68 -8,-72 -5,-8 -910,-3 -1234,7 -102,3 -216,9 -255,14 -38,5 -115,9 -170,10 -55,1 -103,5 -106,9 -10,11 -19,128 -11,137 4,4 63,4 132,-1 69,-4 330,-8 580,-9 z"
       id="path8"
       inkscape:connector-curvature="0"
       style="fill:#000000" />
    <path
       d="m 3434,5348 c 11,-100 35,-166 72,-196 37,-30 124,-60 201,-69 29,-3 53,-11 53,-16 0,-19 17,6 24,36 4,18 2,27 -6,28 -7,1 -22,3 -34,4 -12,1 -52,18 -90,37 -62,31 -73,42 -107,100 -21,37 -39,80 -39,96 -1,31 -17,42 -62,42 -17,0 -18,-6 -12,-62 z m 65,5 c 6,-21 11,-42 11,-46 0,-12 61,-100 79,-115 21,-16 114,-60 146,-68 39,-10 29,-26 -12,-20 -201,31 -250,72 -271,225 -8,59 -8,61 14,61 18,0 25,-8 33,-37 z"
       id="path10"
       inkscape:connector-curvature="0"
       style="fill:#000000" />
    <path
       d="m 7604,5341 c 3,-38 12,-88 19,-110 l 14,-40 -29,15 c -37,19 -97,15 -112,-8 -14,-23 25,-65 74,-78 l 37,-10 -8,-62 c -13,-95 -51,-231 -129,-448 -28,-80 -62,-176 -76,-215 -26,-75 -61,-155 -68,-155 -2,0 -4,55 -4,123 0,243 -10,649 -17,695 -8,53 -32,105 -44,97 -5,-3 0,-28 10,-56 17,-45 20,-78 20,-296 0,-135 4,-267 9,-292 17,-92 11,-293 -11,-333 -14,-25 -34,-112 -44,-184 l -6,-51 46,-13 c 57,-16 204,-8 260,14 22,8 76,23 120,31 44,9 117,28 163,41 46,14 90,23 98,20 8,-3 14,-1 14,4 0,14 -76,12 -145,-5 -72,-18 -141,-19 -151,-4 -10,17 -104,4 -152,-20 -61,-31 -83,-27 -130,23 -38,41 -42,49 -42,98 0,37 7,67 24,98 83,156 242,630 267,795 5,33 12,74 14,92 6,36 31,50 54,29 18,-16 125,-46 163,-46 32,0 47,-47 54,-163 2,-45 7,-89 11,-97 9,-24 12,-46 19,-196 l 6,-141 -47,-23 c -53,-26 -75,-63 -75,-130 v -40 h -57 c -67,0 -203,-23 -282,-47 -39,-13 -59,-25 -72,-48 -35,-57 -19,-123 38,-154 28,-15 96,-14 111,1 6,6 35,13 64,14 29,1 100,5 158,10 58,4 184,6 280,5 124,-2 172,1 165,8 -11,11 -427,17 -443,7 -4,-2 -63,-5 -132,-7 -90,-2 -130,-6 -142,-17 -23,-19 -68,2 -86,42 -12,24 -12,34 0,64 12,31 22,40 63,53 89,30 236,49 373,49 73,0 144,3 157,6 19,5 25,2 25,-10 0,-20 16,-21 28,-1 10,19 170,22 250,5 58,-13 81,-7 37,10 -48,18 -168,31 -227,25 l -57,-7 1,50 c 0,54 -21,97 -53,107 -16,5 -19,16 -19,75 0,38 -7,95 -15,127 -9,32 -18,112 -20,178 -2,66 -4,125 -5,130 -1,6 -2,33 -1,62 l 1,51 58,1 c 141,1 240,68 253,173 5,36 -15,33 -22,-4 -15,-79 -48,-112 -134,-132 -25,-6 -22,-2 20,26 49,32 81,79 91,132 2,14 0,27 -5,30 -5,4 -12,-12 -16,-35 -13,-78 -85,-133 -188,-144 l -57,-6 v 72 c 0,54 -3,70 -11,62 -7,-7 -10,-35 -7,-70 4,-58 3,-59 -20,-55 -23,5 -23,5 -16,111 7,115 1,136 -10,31 -11,-105 -13,-110 -52,-110 -78,0 -144,70 -160,168 -8,51 -24,66 -24,23 0,-44 39,-142 69,-171 16,-16 49,-31 84,-40 75,-17 75,-35 -1,-27 -117,12 -155,56 -175,203 -14,101 -32,112 -23,15 z m 4,-157 c 31,-21 28,-32 -14,-40 -28,-5 -40,-2 -59,16 -14,13 -22,27 -19,31 9,15 68,10 92,-7 z m 322,-136 c 0,-29 2,-98 5,-153 4,-76 3,-93 -5,-70 -6,17 -12,57 -14,90 -2,33 -5,60 -6,60 -1,0 -3,11 -4,25 -2,14 -6,42 -11,63 -6,33 -5,37 14,37 19,0 21,-6 21,-52 z m 39,-505 c 1,-29 -3,-53 -9,-53 -6,0 -10,32 -9,78 1,87 16,66 18,-25 z m 16,-97 c 38,-16 55,-42 55,-83 0,-51 -12,-58 -111,-62 -59,-2 -94,1 -98,8 -15,24 2,83 34,117 36,38 65,43 120,20 z m -675,-401 c 1,-22 4,-32 7,-22 4,15 10,12 37,-17 48,-53 72,-58 129,-29 39,20 60,23 115,21 54,-3 61,-5 37,-11 -16,-4 -58,-17 -92,-28 -71,-24 -197,-31 -249,-15 -32,10 -33,12 -28,51 3,22 10,63 16,90 10,44 13,47 19,25 4,-14 8,-43 9,-65 z"
       id="path12"
       inkscape:connector-curvature="0"
       style="fill:#000000" />
    <path
       d="m 7910,4320 c 0,-7 3,-10 7,-7 3,4 3,10 0,14 -4,3 -7,0 -7,-7 z"
       id="path14"
       inkscape:connector-curvature="0"
       style="fill:#000000" />
    <path
       d="m 3773,5364 c -13,-35 30,-231 62,-278 22,-32 23,-42 28,-337 3,-167 10,-317 15,-334 9,-25 9,-22 6,25 -3,30 -7,182 -10,338 l -5,282 h 39 c 50,0 168,43 199,72 46,43 54,71 47,158 -6,67 -10,80 -25,80 -9,0 -24,3 -33,6 -14,5 -16,-4 -16,-63 0,-60 -4,-76 -30,-117 -33,-51 -76,-76 -134,-76 h -35 v 63 c 0,35 -5,82 -11,104 -22,72 -81,119 -97,77 z m 65,-37 c 34,-72 43,-169 18,-203 -21,-27 -30,-12 -50,81 -22,101 -27,135 -21,145 9,14 42,-1 53,-23 z m 300,-54 c 3,-70 2,-73 -32,-110 -26,-29 -52,-44 -103,-61 -73,-23 -133,-29 -133,-12 0,5 6,7 14,4 8,-3 40,-1 70,6 41,8 62,19 81,42 42,50 59,90 61,148 1,30 3,56 3,58 1,2 9,2 19,0 14,-3 18,-16 20,-75 z"
       id="path16"
       inkscape:connector-curvature="0"
       style="fill:#000000" />
    <path
       d="m 7948,5360 c -4,-14 -8,-38 -7,-55 0,-30 0,-30 10,-5 6,13 9,38 7,55 -3,29 -3,30 -10,5 z"
       id="path18"
       inkscape:connector-curvature="0"
       style="fill:#000000" />
    <path
       d="m 3333,5315 c 0,-33 2,-45 4,-27 2,18 2,45 0,60 -2,15 -4,0 -4,-33 z"
       id="path20"
       inkscape:connector-curvature="0"
       style="fill:#000000" />
    <path
       d="m 2718,5334 c -16,-8 -28,-19 -28,-25 0,-6 13,-1 29,10 35,25 66,26 115,6 44,-19 48,-50 9,-81 -25,-19 -26,-23 -14,-51 9,-22 21,-33 43,-37 16,-3 34,-3 39,0 5,3 9,2 8,-3 -1,-4 12,-37 29,-73 18,-36 32,-73 32,-82 0,-9 6,-43 14,-75 28,-113 47,-303 39,-402 -7,-104 9,-189 56,-286 42,-88 89,-145 118,-145 14,1 12,4 -9,15 -15,8 -30,24 -33,35 -4,11 -11,18 -16,15 -5,-4 -9,0 -9,8 0,8 -7,20 -15,27 -9,7 -14,15 -11,17 2,3 -9,37 -26,76 -30,69 -31,78 -33,237 -1,91 -6,190 -10,220 -16,124 -58,307 -81,352 -29,57 -29,58 -4,58 32,0 67,21 79,47 16,35 15,39 -24,63 -28,17 -43,20 -80,15 -44,-7 -45,-6 -45,19 0,49 -109,75 -172,40 z m 292,-99 24,-25 -22,-23 c -31,-31 -128,-28 -155,4 -17,21 -17,23 1,39 25,23 40,28 88,29 31,1 46,-5 64,-24 z"
       id="path22"
       inkscape:connector-curvature="0"
       style="fill:#000000" />
    <path
       d="m 5695,5330 c 3,-5 8,-10 11,-10 3,0 2,5 -1,10 -3,6 -8,10 -11,10 -3,0 -2,-4 1,-10 z"
       id="path24"
       inkscape:connector-curvature="0"
       style="fill:#000000" />
    <path
       d="m 3325,5218 c 5,-41 15,-280 15,-371 0,-42 4,-66 10,-62 6,4 7,44 4,103 -7,111 -13,269 -14,325 0,20 -4,37 -9,37 -6,0 -8,-15 -6,-32 z"
       id="path26"
       inkscape:connector-curvature="0"
       style="fill:#000000" />
    <path
       d="m 7193,5228 c -33,-16 -28,-37 12,-54 43,-18 96,-18 120,-1 23,18 13,35 -31,53 -39,16 -70,17 -101,2 z m 96,-19 c 24,-9 29,-14 19,-20 -30,-19 -117,-1 -103,22 8,12 45,11 84,-2 z"
       id="path28"
       inkscape:connector-curvature="0"
       style="fill:#000000" />
    <path
       d="m 3776,4960 c 2,-47 7,-157 10,-245 7,-229 11,-295 19,-303 4,-4 4,54 1,128 -3,74 -8,203 -12,285 -3,83 -9,166 -14,185 -7,25 -8,11 -4,-50 z"
       id="path30"
       inkscape:connector-curvature="0"
       style="fill:#000000" />
    <path
       d="m 12617,4768 c 7,-89 -1,-330 -14,-372 -3,-13 -1,-16 7,-11 9,6 11,-17 7,-96 -3,-57 -9,-120 -13,-139 -6,-31 -5,-34 9,-22 27,23 34,168 24,487 -6,184 -6,185 -15,185 -5,0 -7,-15 -5,-32 z"
       id="path32"
       inkscape:connector-curvature="0"
       style="fill:#000000" />
    <path
       d="m 3340,4694 c 0,-47 4,-73 10,-69 11,7 9,145 -2,145 -4,0 -8,-34 -8,-76 z"
       id="path34"
       inkscape:connector-curvature="0"
       style="fill:#000000" />
    <path
       d="m 3338,4473 c 0,-76 -1,-154 -1,-173 -1,-96 8,-211 24,-313 22,-139 40,-230 48,-239 14,-16 -5,169 -19,187 -8,11 -18,77 -21,138 -1,21 -5,39 -8,41 -3,2 -6,115 -5,250 0,135 -3,246 -8,246 -4,0 -9,-62 -10,-137 z"
       id="path36"
       inkscape:connector-curvature="0"
       style="fill:#000000" />
    <path
       d="m 13598,4564 c -58,-31 -41,-111 32,-154 72,-43 82,-56 76,-103 -6,-46 -20,-269 -36,-562 -15,-277 -47,-516 -71,-531 -5,-3 -9,-19 -9,-35 0,-27 -2,-29 -15,-15 -8,8 -15,18 -15,21 0,4 -17,24 -38,44 -20,20 -43,47 -49,61 -13,29 -54,79 -103,126 -33,32 -55,48 -185,139 -27,19 -117,69 -198,110 -113,56 -162,76 -206,81 -36,4 -61,2 -65,-4 -3,-6 13,-10 42,-10 47,0 111,-27 301,-126 158,-82 323,-218 387,-316 16,-25 56,-76 90,-113 52,-58 65,-80 84,-143 12,-41 26,-74 31,-74 12,0 12,3 -12,97 l -21,83 21,107 c 25,123 28,143 36,233 13,144 15,171 20,320 3,85 7,173 9,195 2,22 7,118 11,213 l 8,173 33,33 c 27,27 32,39 28,62 -7,36 -39,72 -83,90 -42,18 -69,17 -103,-2 z m 105,-13 c 14,-5 35,-24 48,-42 l 23,-32 -21,-36 c -24,-42 -43,-51 -43,-21 0,12 -4,19 -9,16 -5,-3 -7,-15 -4,-27 6,-20 5,-20 -23,-5 -79,43 -110,100 -76,139 17,19 66,23 105,8 z"
       id="path38"
       inkscape:connector-curvature="0"
       style="fill:#000000" />
    <path
       d="m 3141,4391 c -16,-16 -18,-26 -11,-55 10,-44 33,-82 60,-96 27,-15 25,-8 -9,29 -36,39 -50,100 -26,117 9,7 24,10 33,7 15,-4 15,-3 2,6 -21,15 -27,14 -49,-8 z"
       id="path40"
       inkscape:connector-curvature="0"
       style="fill:#000000" />
    <path
       d="m 3749,4397 c -39,-9 -59,-38 -59,-82 0,-14 -2,-25 -5,-25 -3,0 -45,19 -93,42 -86,41 -202,64 -202,41 0,-6 26,-13 58,-15 40,-4 83,-18 140,-47 45,-22 88,-41 97,-41 8,0 15,-5 15,-10 0,-6 6,-10 13,-8 6,1 44,-8 82,-19 39,-12 85,-25 103,-28 17,-4 32,-12 32,-18 0,-8 3,-8 11,0 23,23 245,-45 275,-85 20,-26 43,-112 54,-199 8,-60 6,-101 -6,-188 -21,-143 -14,-410 15,-530 10,-44 22,-102 26,-128 3,-27 22,-103 42,-170 48,-168 59,-213 67,-280 l 7,-57 -32,2 c -27,2 -44,16 -109,95 -75,92 -123,183 -149,288 -11,42 -8,767 2,795 25,63 11,204 -25,256 -24,35 -128,90 -152,81 -7,-3 -62,12 -123,33 -60,21 -152,45 -204,55 -52,10 -128,26 -169,36 -41,10 -76,16 -78,14 -4,-3 23,-11 116,-34 20,-5 58,-13 85,-16 26,-4 47,-10 47,-14 0,-4 -53,-15 -117,-25 -65,-10 -122,-20 -128,-22 -17,-7 124,4 224,17 72,9 102,9 133,0 44,-14 46,-17 85,-161 25,-88 27,-109 27,-305 0,-115 -3,-232 -8,-260 -21,-130 -85,-294 -159,-408 l -31,-48 -13,43 c -7,24 -15,68 -18,98 -8,76 -54,241 -74,264 -13,15 -25,17 -76,12 -174,-18 -235,-19 -260,-2 -20,13 -25,14 -25,3 0,-21 -44,-57 -71,-58 -13,0 -33,-4 -44,-9 -16,-7 -11,-9 20,-9 l 40,-1 -3,-82 c -4,-82 4,-140 34,-270 16,-65 15,-68 -5,-94 -12,-15 -21,-37 -21,-50 0,-12 -5,-26 -10,-29 -6,-4 -23,-25 -37,-48 -33,-52 -36,-124 -9,-217 46,-161 47,-163 105,-221 81,-79 145,-108 256,-114 53,-3 95,-11 104,-19 9,-7 25,-16 36,-20 20,-6 20,-6 1,9 -11,8 -24,15 -29,15 -4,0 -5,5 -2,10 3,6 23,10 43,10 40,1 128,27 183,56 50,25 139,93 139,105 0,6 13,39 29,72 34,75 54,178 42,227 -12,53 -28,78 -98,157 -51,57 -80,81 -139,109 -41,21 -74,39 -74,41 0,2 11,21 25,43 119,189 178,410 176,663 -1,196 -16,301 -61,425 -7,18 -10,36 -6,39 3,3 32,-4 63,-15 32,-12 67,-19 78,-17 11,3 45,-7 75,-23 73,-36 100,-86 100,-187 0,-38 -5,-90 -11,-115 -6,-27 -10,-197 -11,-415 v -370 l 27,-75 c 41,-111 61,-146 135,-235 88,-106 92,-109 136,-101 l 35,7 -5,57 c -7,74 -16,113 -59,252 -19,63 -38,133 -42,155 -4,22 -19,90 -33,150 -22,98 -25,131 -25,310 -1,110 3,250 8,311 9,127 -3,215 -41,302 -21,49 -29,55 -86,81 -57,25 -82,33 -168,47 -45,8 -50,13 -50,49 0,96 -94,166 -191,142 z m 96,-27 c 46,-22 72,-60 78,-114 l 4,-38 -36,7 c -51,9 -155,43 -176,59 -25,18 -12,72 23,91 37,19 59,18 107,-5 z M 3538,3325 c 9,-7 53,-182 58,-235 l 7,-64 -29,18 c -26,17 -69,49 -128,96 -50,40 -185,164 -182,168 2,2 37,6 78,9 40,2 89,8 108,13 29,6 77,4 88,-5 z m -331,-12 c -4,-3 -10,-3 -14,0 -3,4 0,7 7,7 7,0 10,-3 7,-7 z m 59,-34 c 33,-37 206,-183 277,-232 56,-40 67,-53 67,-77 0,-15 5,-30 12,-32 6,-2 9,-9 5,-15 -3,-5 -53,-13 -109,-16 -57,-3 -132,-15 -168,-25 -73,-22 -153,-34 -145,-22 3,4 0,21 -5,36 -22,67 -50,270 -44,321 5,45 10,53 38,67 41,21 49,20 72,-5 z m 482,-415 c 64,-33 177,-151 205,-213 34,-78 15,-185 -65,-346 -16,-32 -121,-95 -204,-121 -69,-22 -92,-25 -198,-21 -128,4 -146,9 -233,69 -43,29 -100,94 -91,104 3,3 16,7 29,9 13,3 54,13 90,23 l 67,19 -5,-36 c -5,-39 27,-153 45,-159 6,-2 3,18 -8,46 -22,57 -27,154 -11,195 17,43 14,54 -21,88 -33,31 -42,32 -125,12 -19,-4 -7.275,-21.9666 -7.275,0.033 0,19 25.7011,-0.9571 10.7011,-0.9571 -16,0 -14.0095,25.9475 -14.0095,2.9475 0,-16 -56.4166,-15.0238 -62.4166,-15.0238 -5,0 -10,10 -10,23 0,35 -11,67 -21,61 -5,-3 -9,-22 -9,-42 0,-28 -3,-33 -10,-22 -11,18 -13,100 -2,100 4,0 16,-7 26,-15 11,-8 31,-15 45,-14 25,1 25,1 -4,10 -37,11 -71,36 -62,46 4,3 18,1 32,-5 14,-7 47,-12 72,-12 41,0 50,5 85,40 40,43 51,34 23,-20 -18,-35 -43,-50 -84,-50 -17,0 -31,-5 -31,-11 0,-14 62,-3 102,17 30,16 51,72 42,111 -9,34 -27,28 -53,-17 -34,-61 -75,-73 -149,-46 l -33,12 23,29 c 38,48 62,70 75,67 7,-2 13,6 13,18 0,11 7,20 15,20 8,0 15,-4 15,-10 0,-5 7,-10 15,-10 8,0 15,5 15,10 0,18 35,45 75,58 77,25 131,31 235,28 92,-3 112,-7 158,-32 z m -508,-18 c 0,-3 -5,-8 -12,-12 -7,-4 -8,-3 -4,4 7,12 16,16 16,8 z m -50,-30 c 0,-3 -5,-8 -12,-12 -7,-4 -8,-3 -4,4 7,12 16,16 16,8 z m -44,-316 c 14,0 22,-4 19,-10 -3,-5 -17,-10 -31,-10 -18,0 -24,5 -23,23 0,12 3,16 6,10 2,-7 16,-13 29,-13 z m 174.0286,-37.7488 c 2,-33 16.9714,-43.2512 -2.0286,-56.2512 -25,-17 -68,-22 -68,-7 0,6 5,13 10,16 16,10 12,57 -7,77 -17,19 -16,19 32,16 l 18.5501,-24.7154 z M 3133,2455 c -3,-9 -8,-14 -10,-11 -3,3 -2,9 2,15 9,16 15,13 8,-4 z m 27,-71 c 0,-8 -4,-14 -10,-14 -5,0 -10,4 -10,9 0,5 -3,18 -7,28 -6,16 -5,16 10,4 9,-7 17,-20 17,-27 z m 71,6 c 6,0 7,-4 4,-10 -3,-5 -17,-10 -30,-10 -18,0 -23,4 -18,16 3,8 12,13 20,10 8,-3 19,-6 24,-6 z"
       id="path42"
       inkscape:connector-curvature="0"
       style="fill:#000000"
       sodipodi:nodetypes="csscsccsscccsscccccccccccccccsscccscccccsccccccccscccccccsccccccccscccsccccscccccccscccccccccsccccccscccccccccccccccccccscccscccccccccsccccccccccsccccssssssscscccccsccsscccccccssssscccsscssscsscsccsccsccccccsccsssccsssscsss" />
    <path
       d="m 3459,2434 c -23,-28 -13,-204 13,-204 6,0 7,7 3,18 -14,33 -18,158 -6,180 14,26 9,29 -10,6 z"
       id="path44"
       inkscape:connector-curvature="0"
       style="fill:#000000" />
    <path
       d="m 3544,2375 c -9,-14 -14,-28 -11,-31 3,-3 12,9 20,25 19,38 14,40 -9,6 z"
       id="path46"
       inkscape:connector-curvature="0"
       style="fill:#000000" />
    <path
       d="m 3610,2350 c 0,-7 3,-10 7,-7 3,4 3,10 0,14 -4,3 -7,0 -7,-7 z"
       id="path48"
       inkscape:connector-curvature="0"
       style="fill:#000000" />
    <path
       d="m 3519,2318 c 0,-7 -2,-22 -3,-34 -1,-11 1,-29 5,-40 5,-12 8,-1 8,34 1,28 -1,52 -4,52 -3,0 -5,-6 -6,-12 z"
       id="path50"
       inkscape:connector-curvature="0"
       style="fill:#000000" />
    <path
       d="m 3593,2303 c 4,-3 10,-3 14,0 3,4 0,7 -7,7 -7,0 -10,-3 -7,-7 z"
       id="path52"
       inkscape:connector-curvature="0"
       style="fill:#000000" />
    <path
       d="m 3585,2260 c -3,-5 -1,-10 4,-10 6,0 11,5 11,10 0,6 -2,10 -4,10 -3,0 -8,-4 -11,-10 z"
       id="path54"
       inkscape:connector-curvature="0"
       style="fill:#000000" />
    <path
       d="m 3462,2188 c 2,-6 10,-14 16,-16 7,-2 10,2 6,12 -7,18 -28,22 -22,4 z"
       id="path56"
       inkscape:connector-curvature="0"
       style="fill:#000000" />
    <path
       d="m 8361,4304 c 10,-12 14,-91 16,-347 3,-343 13,-467 53,-632 10,-44 28,-134 40,-200 12,-66 32,-158 45,-205 13,-47 33,-130 45,-185 12,-55 26,-109 30,-120 5,-11 27,-76 50,-144 42,-127 47,-191 16,-191 -8,0 -27,-3 -43,-6 -27,-5 -33,-1 -65,43 -34,47 -86,151 -93,185 -2,10 -13,44 -23,75 -126,369 -173,640 -178,1023 -1,118 2,250 8,292 11,86 4,176 -17,204 -21,30 -26,12 -10,-41 18,-57 19,-116 5,-165 -18,-59 -21,-412 -5,-515 7,-49 16,-124 20,-166 5,-71 14,-126 46,-279 16,-76 74,-275 115,-393 44,-126 76,-193 115,-240 31,-38 89,-76 89,-58 0,5 13,12 29,16 30,6 51,39 51,78 0,12 -22,89 -50,170 -27,82 -54,174 -60,205 -5,31 -25,118 -44,192 -35,137 -113,511 -122,585 -2,22 -9,72 -14,110 -9,72 -15,366 -11,559 2,114 -9,166 -36,166 -13,0 -13,-3 -2,-16 z"
       id="path58"
       inkscape:connector-curvature="0"
       style="fill:#000000" />
    <path
       d="m 12610,4093 c -62,-24 -107,-91 -96,-143 3,-17 2,-30 -3,-30 -5,0 -61,-34 -126,-75 -120,-77 -175,-99 -280,-110 -98,-11 -126,-43 -88,-101 32,-49 147,-90 206,-73 18,5 68,30 112,55 44,26 112,65 150,87 39,22 76,48 82,58 7,9 32,20 55,24 24,4 81,26 128,49 79,38 91,41 170,41 118,0 145,-17 326,-208 33,-35 68,-87 111,-163 22,-39 52,-88 65,-108 33,-48 119,-138 126,-132 5,6 -20,48 -46,75 -39,40 -61,72 -115,160 -31,51 -57,95 -57,97 0,6 -5,12 -92,114 -84,98 -85,99 -158,148 -54,36 -57,37 -150,37 -90,0 -100,-3 -185,-42 -49,-22 -105,-43 -123,-47 -19,-3 -47,-17 -63,-30 -33,-28 -218,-140 -296,-180 -62,-31 -112,-28 -181,11 -47,28 -62,47 -55,74 6,23 21,28 111,39 81,11 159,34 182,55 49,43 258,166 330,193 129,49 233,61 316,38 71,-21 166,-68 214,-108 49,-40 175,-182 220,-248 52,-77 200,-226 200,-203 0,10 -27,45 -61,78 -34,33 -80,88 -102,121 -73,107 -212,257 -277,298 -19,13 -71,38 -115,56 -72,30 -90,34 -179,34 -92,1 -100,3 -109,23 -15,34 -98,54 -147,36 z m 110,-33 c 27,-27 25,-36 -12,-50 -18,-6 -63,-24 -100,-40 l -68,-28 v 32 c 0,37 31,83 64,96 39,16 95,11 116,-10 z"
       id="path60"
       inkscape:connector-curvature="0"
       style="fill:#000000" />
    <path
       d="m 7951,3983 c -5,-37 -15,-137 -21,-222 -9,-122 -19,-177 -44,-260 l -32,-106 -59,-2 c -33,-2 -82,-7 -110,-13 -51,-11 -182,-34 -245,-44 -164,-25 -223,-49 -328,-133 -31,-25 -63,-50 -69,-56 -9,-6 -20,0 -39,22 -20,24 -31,30 -50,25 -20,-5 -35,4 -85,55 l -61,61 h 34 c 21,0 41,7 51,18 20,22 22,85 4,100 -7,6 -102,11 -247,13 -289,3 -379,6 -495,15 -83,6 -91,5 -109,-14 -10,-12 -23,-43 -28,-69 -10,-51 -10,-383 1,-648 l 6,-160 31,-3 c 19,-2 40,4 55,16 23,20 24,24 27,198 2,99 2,258 2,355 -1,125 2,179 10,184 16,10 285,7 405,-5 55,-5 104,-10 108,-10 4,0 3,-9 -3,-20 -6,-11 -15,-18 -21,-15 -15,10 -11,-83 6,-114 27,-53 115,-85 250,-91 18,-1 17,-2 -4,-11 -32,-13 -22,-21 17,-13 17,3 41,17 54,31 19,20 20,26 8,34 -12,8 -11,9 5,8 11,-2 31,1 44,5 15,5 26,4 30,-3 13,-21 171,48 286,126 28,18 68,38 90,44 22,6 42,15 45,20 8,12 209,55 293,63 61,6 67,5 67,-12 0,-31 -84,-235 -117,-283 -17,-24 -40,-62 -51,-84 -29,-59 -148,-203 -186,-226 -37,-23 -71,-24 -119,-4 -63,26 -122,19 -212,-24 -44,-22 -110,-53 -147,-70 -77,-34 -110,-72 -154,-179 -41,-99 -40,-194 3,-277 47,-90 109,-163 169,-197 30,-16 52,-34 48,-39 -3,-5 2,-6 10,-3 8,3 31,1 51,-6 38,-13 101,-15 150,-5 17,3 59,10 95,15 76,10 197,65 248,114 19,17 40,46 48,65 13,30 28,175 26,236 -5,107 -77,218 -190,291 l -53,35 68,46 c 90,60 118,88 159,150 18,28 49,69 68,90 45,50 138,237 144,290 3,27 -1,49 -11,63 -13,19 -13,26 4,70 40,104 58,209 74,413 17,214 15,271 -4,150 z M 6460,3424 c 135,-3 286,-7 335,-8 l 90,-1 3,-37 c 3,-33 0,-38 -23,-44 -15,-4 -115,-3 -223,1 -262,10 -512,9 -521,-2 -4,-4 -4,-75 0,-158 4,-82 3,-206 -3,-275 -5,-69 -6,-158 -2,-198 8,-89 -5,-122 -48,-122 h -28 l -2,133 c -1,72 -3,157 -4,187 -9,378 -6,485 16,520 11,18 77,27 125,18 22,-4 150,-10 285,-14 z m 1413,-149 c -9,-45 -102,-219 -140,-262 -18,-21 -49,-60 -67,-88 -19,-27 -46,-61 -61,-75 -20,-18 -13,-2 26,57 130,198 156,247 204,392 17,53 18,54 31,30 8,-14 11,-36 7,-54 z m -1083,25 c 0,-5 -7,-10 -16,-10 -8,0 -12,5 -9,10 3,6 10,10 16,10 5,0 9,-4 9,-10 z m -46,-58 c 0,-63 11,-83 57,-102 34,-15 39,-30 7,-24 -22,4 -22,4 1,-6 13,-6 45,-8 71,-4 36,5 50,2 63,-11 10,-9 14,-21 11,-27 -4,-6 -9,-7 -13,-1 -3,6 -42,13 -86,17 -93,8 -188,42 -193,69 -4,17 -1,17 26,-3 17,-12 44,-24 61,-26 27,-3 30,-1 22,14 -5,9 -21,27 -35,40 -27,23 -42,52 -50,97 -4,22 -1,25 27,25 h 32 z m 595,30 c -40,-31 -208,-121 -245,-131 l -35,-10 43,40 c 24,21 54,42 68,45 14,4 34,15 45,24 18,16 101,46 134,49 7,1 3,-7 -10,-17 z m -475,-42 c 26,-27 53,-50 59,-50 6,0 8,-3 5,-6 -12,-12 -99,40 -113,67 -30,57 -12,53 49,-11 z m -91,22 c 3,1 14,-9 26,-23 22,-29 148,-96 159,-85 3,4 0,11 -8,16 -13,8 -12,10 3,10 26,0 59,-19 52,-31 -9,-14 -106,-11 -163,6 -38,12 -56,23 -66,43 -16,32 -31,93 -18,74 5,-8 12,-12 15,-10 z m -51,-83 c 7,-4 6,-9 -2,-14 -15,-10 -48,26 -50,56 -4,50 1,53 21,9 11,-24 25,-47 31,-51 z m -75,49 c -3,-7 -5,-2 -5,12 0,14 2,19 5,13 2,-7 2,-19 0,-25 z m 10,-35 c -4,-3 -7,0 -7,7 0,7 3,10 7,7 3,-4 3,-10 0,-14 z m 706,-449 c 26,-9 47,-21 47,-27 0,-6 3,-7 7,-4 3,4 28,-9 55,-28 26,-19 52,-35 56,-35 16,0 80,-76 113,-135 l 34,-60 -3,-123 c -4,-184 -18,-208 -167,-284 -50,-26 -84,-36 -120,-37 -27,0 -66,-5 -85,-11 -76,-22 -212,-6 -193,22 4,7 8,15 8,18 3,19 21,61 41,92 27,42 30,56 11,40 -7,-6 -28,-43 -47,-81 -18,-39 -36,-71 -39,-71 -3,1 -33,15 -66,33 -65,35 -118,96 -160,183 -44,93 -44,132 6,259 22,56 13,53 158,57 68,2 96,7 99,17 3,10 -14,12 -89,8 -52,-2 -105,-8 -118,-12 l -25,-8 23,32 c 15,21 47,43 95,64 39,17 104,49 145,69 85,43 137,48 214,22 z"
       id="path62"
       inkscape:connector-curvature="0"
       style="fill:#000000" />
    <path
       d="m 6935,2370 c -3,-5 -14,-10 -24,-10 -31,0 -54,-35 -46,-67 5,-15 7,-32 7,-36 -4,-16 29,-67 44,-67 8,0 12,-4 9,-10 -9,-15 17,-12 38,5 11,7 25,11 32,9 7,-3 23,7 35,23 18,23 21,37 17,76 -5,59 -29,87 -73,87 -18,0 -36,-4 -39,-10 z m 83,-38 c 6,-9 13,-22 13,-29 1,-7 2,-19 3,-25 3,-18 -9,-50 -17,-49 -4,1 -20,-5 -36,-14 -19,-9 -37,-12 -51,-7 -20,7 -20,9 10,30 34,26 37,38 13,64 -20,23 -49,23 -62,1 -8,-14 -10,-15 -11,-3 0,25 13,38 50,48 41,12 70,6 88,-16 z"
       id="path64"
       inkscape:connector-curvature="0"
       style="fill:#000000" />
    <path
       d="m 7224,2125 c -3,-8 -25,-25 -49,-39 -23,-14 -45,-32 -49,-41 -8,-21 -2,-19 45,14 45,33 86,81 69,81 -6,0 -13,-7 -16,-15 z"
       id="path66"
       inkscape:connector-curvature="0"
       style="fill:#000000" />
    <path
       d="m 7351,2084 c -1,-7 -25,-27 -53,-45 -66,-41 -62,-38 -56,-45 9,-8 80,30 102,54 10,12 16,27 13,34 -3,8 -6,9 -6,2 z"
       id="path68"
       inkscape:connector-curvature="0"
       style="fill:#000000" />
    <path
       d="m 3409,3714 c -1,-10 0,-23 1,-29 1,-5 2,-18 3,-27 1,-10 5,-18 10,-18 5,0 6,19 3,42 -6,45 -15,62 -17,32 z"
       id="path70"
       inkscape:connector-curvature="0"
       style="fill:#000000" />
    <path
       d="m 3420,3600 c 0,-11 2,-20 4,-20 2,0 6,9 9,20 3,11 1,20 -4,20 -5,0 -9,-9 -9,-20 z"
       id="path72"
       inkscape:connector-curvature="0"
       style="fill:#000000" />
    <path
       d="m 7623,3403 c 4,-3 10,-3 14,0 3,4 0,7 -7,7 -7,0 -10,-3 -7,-7 z"
       id="path74"
       inkscape:connector-curvature="0"
       style="fill:#000000" />
    <path
       d="m 7528,3393 c 7,-3 16,-2 19,1 4,3 -2,6 -13,5 -11,0 -14,-3 -6,-6 z"
       id="path76"
       inkscape:connector-curvature="0"
       style="fill:#000000" />
    <path
       d="m 7395,3360 c -3,-5 1,-10 10,-10 9,0 13,5 10,10 -3,6 -8,10 -10,10 -2,0 -7,-4 -10,-10 z"
       id="path78"
       inkscape:connector-curvature="0"
       style="fill:#000000" />
    <path
       d="m 13730,3335 c 0,-21 209,-206 278,-247 45,-26 172,-55 270,-61 l 44,-2 -22,-28 c -12,-15 -37,-34 -56,-42 -30,-12 -40,-12 -81,2 -27,9 -52,19 -58,23 -5,4 -32,13 -60,20 -27,7 -92,33 -143,57 -51,23 -97,43 -102,43 -5,0 -15,6 -22,13 -56,54 -144,96 -107,50 41,-48 290,-172 390,-192 31,-7 74,-21 95,-31 21,-11 56,-20 79,-19 31,0 36,2 20,9 -14,6 -15,9 -5,9 25,1 90,61 90,82 0,20 -26,30 -70,26 -46,-3 -174,24 -225,48 -44,20 -134,91 -272,213 -24,21 -43,33 -43,27 z"
       id="path80"
       inkscape:connector-curvature="0"
       style="fill:#000000" />
    <path
       d="m 2810,3258 c 0,-4 16,-8 35,-8 19,0 35,2 35,4 0,2 -16,6 -35,8 -19,2 -35,0 -35,-4 z"
       id="path82"
       inkscape:connector-curvature="0"
       style="fill:#000000" />
    <path
       d="m 7125,3249 c -11,-17 -2,-18 25,-4 24,14 24,14 3,15 -12,0 -25,-5 -28,-11 z"
       id="path84"
       inkscape:connector-curvature="0"
       style="fill:#000000" />
    <path
       d="m 7050,3190 c 0,-5 5,-10 10,-10 6,0 10,5 10,10 0,6 -4,10 -10,10 -5,0 -10,-4 -10,-10 z"
       id="path86"
       inkscape:connector-curvature="0"
       style="fill:#000000" />
    <path
       d="m 6505,3156 c -22,-11 -103,-47 -180,-78 -85,-35 -124,-55 -100,-51 65,10 292,110 316,139 14,17 14,17 -36,-10 z"
       id="path88"
       inkscape:connector-curvature="0"
       style="fill:#000000" />
    <path
       d="m 6695,3070 c 3,-5 11,-10 16,-10 6,0 7,5 4,10 -3,6 -11,10 -16,10 -6,0 -7,-4 -4,-10 z"
       id="path90"
       inkscape:connector-curvature="0"
       style="fill:#000000" />
    <path
       d="m 2832,3025 c -27,-27 -147,-79 -288,-126 -52,-17 -93,-33 -90,-36 6,-6 150,41 256,85 99,40 146,66 154,87 8,21 -5,17 -32,-10 z"
       id="path92"
       inkscape:connector-curvature="0"
       style="fill:#000000" />
    <path
       d="m 10469,3004 c -20,-7 -117,-31 -215,-54 -98,-23 -181,-44 -184,-47 -8,-8 88,6 140,21 25,7 81,21 125,31 75,16 185,53 185,61 0,6 -10,3 -51,-12 z"
       id="path94"
       inkscape:connector-curvature="0"
       style="fill:#000000" />
    <path
       d="m 6864,2998 c -4,-7 -3,-8 4,-4 7,4 12,9 12,12 0,8 -9,4 -16,-8 z"
       id="path96"
       inkscape:connector-curvature="0"
       style="fill:#000000" />
    <path
       d="m 13780,2951 c -81,-16 -175,-79 -225,-151 -41,-59 -40,-151 4,-270 18,-48 27,-86 21,-88 -5,-2 -10,-8 -10,-14 0,-6 7,-8 15,-4 8,3 15,0 15,-7 0,-26 50,-114 88,-154 36,-39 38,-43 18,-44 -11,-1 -24,-1 -28,0 -5,0 -8,-4 -8,-10 0,-14 110,-9 175,8 28,7 64,13 82,13 34,0 240,70 272,92 25,18 49,49 85,111 21,36 29,67 33,120 5,65 2,80 -27,153 -46,118 -122,184 -255,224 -67,21 -202,31 -255,21 z m 250,-39 c 129,-42 191,-97 239,-211 47,-111 41,-186 -21,-291 -25,-41 -46,-62 -83,-82 -28,-15 -54,-28 -58,-28 -19,0 26,86 80,153 13,16 23,33 23,39 0,21 -100,-122 -121,-174 -6,-15 -23,-31 -39,-37 l -30,-10 2,47 c 1,64 24,145 50,178 15,18 17,25 7,23 -28,-9 -66,-104 -74,-183 -5,-53 -11,-76 -20,-76 -7,0 -20,-3 -29,-6 -12,-4 -14,2 -13,33 2,76 -24,193 -44,193 -12,0 -11,-14 1,-26 6,-6 11,-52 13,-103 l 2,-93 -45,-14 c -56,-17 -98,-17 -129,0 -23,13 -23,13 21,39 58,34 128,110 128,140 0,27 -32,64 -67,78 -39,15 -72,11 -141,-17 -35,-14 -65,-24 -65,-22 -1,2 -10,17 -20,35 -9,17 -20,51 -23,75 -5,39 -3,46 28,77 44,45 111,75 152,67 18,-4 47,-17 66,-31 18,-13 37,-22 42,-19 12,7 -10,34 -28,34 -8,0 -14,4 -14,9 0,4 -20,14 -44,21 -55,15 -97,3 -162,-46 -24,-19 -48,-34 -53,-34 -13,0 -19,78 -7,90 6,6 7,10 3,10 -4,0 -1,13 7,29 22,42 107,113 168,139 47,20 64,22 148,17 52,-2 120,-13 150,-23 z m -189,-451 c 36,-36 36,-51 4,-89 -28,-33 -111,-92 -130,-92 -16,0 -64,69 -80,117 l -14,38 57,27 c 78,37 125,36 163,-1 z"
       id="path98"
       inkscape:connector-curvature="0"
       style="fill:#000000" />
    <path
       d="m 13715,2396 c -17,-12 -16,-46 2,-46 15,0 73,40 73,50 0,15 -53,12 -75,-4 z"
       id="path100"
       inkscape:connector-curvature="0"
       style="fill:#000000" />
    <path
       d="m 6237,2830 c -80,-10 -84,-21 -6,-15 35,3 124,5 197,6 73,1 134,4 136,8 6,10 -255,10 -327,1 z"
       id="path102"
       inkscape:connector-curvature="0"
       style="fill:#000000" />
    <path
       d="m 10052,2765 c 20,-8 52,-20 70,-28 72,-32 274,-103 336,-117 17,-4 35,-4 38,1 3,5 -3,9 -14,9 -23,0 -246,74 -355,118 -43,18 -86,32 -95,31 -9,0 0,-7 20,-14 z"
       id="path104"
       inkscape:connector-curvature="0"
       style="fill:#000000" />
    <path
       d="m 2755,2729 c -66,-4 -140,-12 -165,-18 l -45,-10 45,5 c 25,2 100,7 168,11 67,3 122,10 122,14 0,5 -1,8 -2,7 -2,0 -57,-5 -123,-9 z"
       id="path106"
       inkscape:connector-curvature="0"
       style="fill:#000000" />
    <path
       d="m 6190,2697 c 47,-43 181,-162 242,-214 27,-24 55,-43 61,-43 7,1 1,10 -13,21 -20,17 -139,124 -194,174 -57,53 -111,95 -120,95 -6,0 5,-15 24,-33 z"
       id="path108"
       inkscape:connector-curvature="0"
       style="fill:#000000" />
    <path
       d="m 2471,2689 c -18,-6 -31,-12 -29,-14 2,-2 26,2 53,10 28,7 41,13 30,13 -11,0 -35,-4 -54,-9 z"
       id="path110"
       inkscape:connector-curvature="0"
       style="fill:#000000" />
    <path
       d="m 10002,2627 c 117,-86 334,-229 400,-263 46,-23 94,-35 53,-13 -65,36 -217,131 -323,205 -68,46 -129,84 -135,84 -7,0 -5,-6 5,-13 z"
       id="path112"
       inkscape:connector-curvature="0"
       style="fill:#000000" />
    <path
       d="m 2450,2596 c 0,-7 78,-55 206,-126 71,-40 139,-79 152,-88 12,-8 22,-10 22,-5 0,5 -12,16 -27,23 -16,8 -35,20 -43,26 -8,7 -42,27 -75,44 -33,18 -97,55 -141,81 -77,46 -94,54 -94,45 z"
       id="path114"
       inkscape:connector-curvature="0"
       style="fill:#000000" />
    <path
       d="m 3760,2103 c -13,-23 -19,-45 -16,-59 8,-29 44,-50 59,-35 7,7 2,13 -16,20 -32,12 -38,46 -7,36 21,-7 27,4 10,21 -8,8 -7,14 2,21 17,14 58,-2 58,-22 0,-12 3,-13 19,-4 26,17 51,4 51,-25 0,-32 -31,-50 -71,-41 -23,5 -28,4 -23,-9 13,-35 82,-26 103,13 15,28 14,66 -3,80 -8,7 -30,15 -50,18 -20,3 -39,10 -42,14 -14,23 -53,8 -74,-28 z"
       id="path116"
       inkscape:connector-curvature="0"
       style="fill:#000000" />
    <path
       d="m 7735,1962 c -29,-6 -105,-72 -105,-91 0,-43 21,-53 136,-63 25,-3 72,25 82,48 13,26 3,66 -20,80 -25,17 -73,30 -93,26 z m 30,-33 c 4,-6 13,-8 21,-5 16,6 54,-27 54,-48 0,-32 -79,-56 -104,-31 -13,13 -16,14 -23,1 -7,-13 -13,-13 -32,-3 -36,18 -36,34 -2,52 17,8 31,22 31,30 0,17 45,21 55,4 z"
       id="path118"
       inkscape:connector-curvature="0"
       style="fill:#000000" />
    <path
       d="m 3660,1908 c -6,-13 -15,-30 -22,-39 -25,-36 64,-109 133,-109 25,0 57,20 60,38 16,86 -4,121 -68,113 -11,-1 -24,3 -28,8 -3,6 -20,11 -36,11 -21,0 -32,-6 -39,-22 z m 64,-4 c 9,-3 16,-15 16,-25 0,-23 15,-25 24,-4 3,8 17,15 31,15 20,0 25,-5 25,-25 0,-14 -5,-25 -11,-25 -6,0 -9,-9 -6,-20 4,-15 -1,-21 -16,-25 -39,-8 -52,-8 -72,-1 -38,14 -48,22 -57,45 -7,19 -5,22 8,17 13,-5 15,-1 10,17 -8,35 9,46 48,31 z"
       id="path120"
       inkscape:connector-curvature="0"
       style="fill:#000000" />
    <path
       d="m 7826,1711 c -17,-11 -36,-32 -44,-46 -12,-23 -11,-30 3,-51 21,-33 61,-52 77,-36 7,7 17,8 29,2 12,-7 24,-5 40,9 22,17 22,21 10,62 -7,24 -16,51 -20,59 -12,23 -62,23 -95,1 z m 76,-11 c 6,0 8,-13 6,-30 -3,-18 0,-31 9,-34 7,-3 13,-13 13,-22 0,-13 -7,-15 -35,-10 -22,4 -35,3 -35,-4 0,-5 -7,-10 -15,-10 -11,0 -13,8 -8,31 6,31 5,32 -20,25 -16,-4 -27,-2 -27,3 0,16 73,62 88,56 8,-3 18,-5 24,-5 z"
       id="path122"
       inkscape:connector-curvature="0"
       style="fill:#000000" />
    <path
       d="m 3632,1655 c -17,-14 -42,-25 -56,-25 -32,0 -34,-22 -3,-47 12,-10 28,-30 34,-45 7,-16 20,-28 28,-28 15,0 15,1 1,16 -9,8 -16,26 -16,40 0,17 -6,24 -19,24 -11,0 -23,5 -27,11 -5,8 3,10 25,7 20,-3 31,0 31,8 0,14 26,37 46,40 8,1 14,-6 14,-17 0,-16 3,-17 19,-8 10,7 26,9 35,6 41,-16 -4,-93 -50,-84 -16,3 -23,0 -21,-7 6,-18 46,-19 71,-2 50,32 36,116 -19,116 -13,0 -27,5 -30,10 -10,17 -32,11 -63,-15 z"
       id="path124"
       inkscape:connector-curvature="0"
       style="fill:#000000" />
    <path
       d="m 3113,1456 -16,-35 -25,20 c -34,26 -61,24 -95,-8 -27,-26 -29,-27 -42,-10 -21,29 -79,33 -104,8 -11,-11 -21,-28 -21,-37 0,-11 -6,-14 -20,-9 -56,18 -120,-4 -120,-42 0,-8 -11,-13 -27,-13 -32,0 -91,-33 -100,-55 -3,-9 -12,-13 -23,-10 -43,14 -100,-31 -100,-77 0,-20 -11,-43 -31,-66 -29,-32 -31,-40 -26,-85 4,-27 11,-55 17,-62 8,-9 8,-15 0,-20 -20,-12 -11,-98 15,-144 17,-30 25,-58 25,-93 0,-68 42,-148 79,-148 9,0 26,-17 39,-38 35,-57 122,-97 122,-57 0,12 7,14 27,9 18,-5 30,-2 38,9 11,15 14,14 35,-8 13,-14 34,-25 47,-25 23,0 63,31 63,50 0,5 11,-2 25,-15 33,-34 96,-35 130,-1 21,21 26,22 36,9 7,-8 25,-21 41,-29 26,-13 32,-13 58,3 17,9 30,23 30,30 0,19 14,16 35,-7 33,-36 100,-18 117,31 4,11 9,11 24,-3 41,-36 119,-30 151,11 10,14 13,14 30,-2 26,-23 68,-22 103,3 23,16 32,18 57,8 16,-6 45,-8 65,-4 44,8 91,43 84,62 -3,9 2,14 13,14 11,0 33,13 50,29 23,22 31,38 31,64 0,20 -4,38 -9,42 -6,3 3,30 19,60 29,55 30,84 4,106 -8,6 -14,23 -14,38 0,15 -7,37 -16,49 -14,20 -14,24 0,44 9,12 16,32 16,43 0,16 -4,13 -20,-13 -11,-18 -27,-35 -35,-38 -22,-9 -18,-21 12,-36 35,-17 42,-47 13,-55 -25,-7 -21,-26 6,-32 55,-10 59,-58 9,-108 l -34,-34 19,-22 c 28,-29 25,-51 -12,-86 -35,-33 -57,-38 -76,-19 -15,15 -15,3 0,-21 16,-26 -3,-48 -55,-62 -53,-14 -85,-5 -93,26 -3,14 -10,25 -14,25 -5,0 -6,-8 -3,-19 6,-25 -48,-63 -84,-59 -20,2 -32,12 -43,35 -19,40 -30,42 -30,4 0,-28 -7,-34 -73,-55 -30,-10 -67,12 -83,49 -16,39 -27,47 -19,13 9,-37 -29,-88 -64,-88 -30,0 -71,38 -71,66 0,8 -4,14 -10,14 -5,0 -10,-15 -10,-33 0,-41 -15,-57 -55,-57 -33,0 -75,34 -75,61 0,8 -6,24 -14,35 -13,17 -14,15 -9,-22 4,-35 2,-44 -18,-58 -45,-31 -108,-14 -132,36 l -14,30 -7,-37 c -10,-50 -46,-67 -84,-38 -15,11 -29,29 -30,39 -7,35 -22,39 -22,7 0,-18 -5,-35 -10,-38 -14,-9 -60,22 -60,39 0,17 -28,41 -37,32 -3,-3 1,-14 10,-24 20,-22 23,-72 4,-72 -15,0 -57,28 -74,50 -7,8 -15,27 -18,42 -4,15 -11,31 -17,34 -7,4 -8,2 -4,-4 5,-8 0,-12 -14,-12 -31,0 -60,55 -60,117 0,42 3,51 15,47 11,-5 15,1 15,19 0,31 -16,43 -34,28 -28,-24 -70,94 -47,129 9,13 12,12 25,-5 15,-20 15,-20 16,1 0,11 -9,29 -20,39 -43,39 -46,111 -5,145 13,11 21,11 36,2 23,-15 24,-8 3,28 -25,41 -12,76 34,95 35,15 38,15 54,-4 22,-28 29,-26 22,7 -5,23 -1,32 21,46 38,25 91,25 110,0 12,-17 14,-17 15,-2 0,9 -4,20 -10,23 -15,9 -12,23 10,45 24,24 68,26 96,5 28,-21 34,-18 34,15 0,60 81,75 110,20 11,-20 12,-19 44,15 40,42 58,44 93,9 14,-14 26,-24 27,-22 1,2 9,20 19,41 21,46 44,46 67,2 8,-17 16,-32 18,-34 1,-2 21,9 45,26 59,42 86,47 97,19 15,-40 56,-43 123,-9 15,7 27,9 27,4 0,-5 33,-12 73,-15 139,-12 176,-18 188,-32 8,-10 8,-14 0,-14 -6,0 -11,-7 -11,-15 0,-10 10,-15 28,-15 57,0 91,-49 57,-84 -22,-22 -18,-34 13,-38 20,-2 28,-9 30,-28 2,-15 13,-30 29,-37 25,-12 25,-12 7,8 -10,11 -19,27 -20,35 -1,9 -10,24 -18,33 -9,10 -16,31 -16,48 0,18 -9,38 -22,51 -74,71 -101,92 -116,93 -9,1 -30,3 -47,5 -16,2 -60,7 -97,10 -49,4 -68,10 -68,20 0,18 -2,18 -47,-5 -64,-33 -100,-31 -109,5 -6,23 -10,25 -38,20 -17,-4 -48,-18 -68,-33 -21,-14 -40,-24 -41,-22 -2,2 -11,16 -20,32 -24,38 -54,35 -74,-7 z"
       id="path126"
       inkscape:connector-curvature="0"
       style="fill:#000000" />
    <path
       d="m 7889,1462 c -7,-11 -19,-18 -27,-15 -18,7 -32,-14 -32,-48 0,-31 43,-60 62,-41 8,8 14,7 23,-5 10,-13 15,-13 33,-2 47,30 33,121 -20,127 -18,2 -31,-3 -39,-16 z m 56,-50 c 1,-48 -7,-59 -26,-39 -7,7 -24,11 -37,9 -26,-5 -44,12 -35,34 6,17 33,6 33,-13 0,-25 25,-8 26,18 2,38 3,41 22,37 13,-3 17,-14 17,-46 z"
       id="path128"
       inkscape:connector-curvature="0"
       style="fill:#000000" />
    <path
       d="m 7555,1366 c -16,-8 -40,-23 -52,-35 l -22,-21 -43,22 c -54,29 -134,28 -184,-1 -26,-16 -34,-17 -34,-6 0,21 -62,38 -94,25 -20,-7 -36,-6 -59,4 -42,17 -95,11 -129,-14 -25,-19 -31,-19 -55,-6 -50,25 -111,28 -155,6 -32,-15 -45,-17 -61,-8 -47,25 -119,5 -166,-46 -18,-19 -28,-23 -42,-16 -37,21 -89,12 -121,-21 -27,-26 -36,-29 -68,-24 -79,13 -151,-27 -165,-92 -5,-25 -14,-34 -41,-43 -50,-17 -68,-49 -62,-112 4,-41 11,-56 33,-74 l 27,-22 -21,-21 c -44,-44 -15,-122 66,-176 30,-20 65,-40 78,-45 22,-8 24,-12 13,-35 -16,-35 0,-66 54,-103 45,-31 128,-52 128,-33 0,6 -6,11 -12,11 -60,0 -158,63 -158,101 0,11 14,28 32,39 22,13 27,21 17,23 -8,3 -33,10 -55,16 -53,14 -140,78 -155,113 -17,40 -4,78 31,91 36,14 39,37 5,37 -30,0 -55,35 -62,87 -6,47 10,69 62,87 31,11 40,20 41,38 2,54 5,59 47,78 51,24 83,25 121,5 16,-9 30,-14 31,-13 1,2 7,18 15,36 13,34 38,46 86,40 18,-2 33,-11 39,-25 13,-31 17,-29 36,15 19,46 71,75 127,70 32,-3 37,-7 40,-30 3,-28 22,-40 22,-15 0,23 45,57 82,63 45,8 128,-27 128,-53 0,-13 7,-9 28,15 30,36 72,51 117,43 24,-5 31,-12 33,-34 l 3,-28 29,31 c 23,25 35,30 52,25 36,-11 47,-24 50,-58 l 4,-32 12,27 c 17,40 53,59 112,60 57,0 130,-27 130,-49 0,-22 16,-15 28,12 7,15 30,34 53,44 78,35 146,2 133,-65 -4,-22 -2,-34 5,-34 6,0 11,6 11,14 0,22 40,46 77,46 43,0 101,-29 109,-54 6,-18 7,-18 19,-3 18,24 56,21 100,-9 52,-35 74,-64 75,-96 0,-16 7,-29 18,-33 29,-10 72,-75 66,-100 -4,-16 2,-30 20,-48 40,-40 37,-100 -8,-142 -25,-23 -33,-38 -29,-56 5,-30 -39,-100 -78,-123 -28,-17 -29,-17 -29,4 0,28 -24,21 -28,-8 -5,-34 -80,-92 -119,-92 -30,0 -33,2 -24,19 6,10 7,21 4,25 -10,9 -33,-14 -33,-34 0,-37 -69,-64 -138,-54 -41,6 -43,8 -37,35 8,36 -7,38 -30,3 -9,-14 -32,-32 -50,-40 -45,-19 -148,-18 -185,1 -25,13 -29,19 -23,45 3,17 1,30 -4,30 -16,0 -33,-23 -33,-47 0,-35 -41,-56 -100,-51 -58,6 -86,24 -69,44 6,7 8,18 4,24 -9,14 -35,13 -36,-2 -1,-7 -2,-21 -3,-32 -2,-30 -70,-78 -113,-81 -46,-3 -112,14 -95,24 19,11 43,79 31,86 -16,11 -58,-23 -65,-53 -11,-50 -13,-52 -55,-52 -32,0 -42,4 -46,20 -6,23 -18,26 -30,8 -32,-50 -102,-72 -175,-57 -57,13 -64,21 -48,60 19,45 5,45 -37,1 -32,-33 -43,-39 -66,-35 -16,3 -32,15 -37,27 -8,19 -9,19 -9,-6 -1,-32 27,-44 82,-35 17,2 44,-2 58,-9 76,-38 158,-36 212,6 20,16 30,18 52,10 33,-12 85,-13 105,0 8,5 19,5 25,0 16,-13 95,-18 131,-8 18,4 46,22 63,37 l 31,29 54,-18 c 61,-22 83,-20 124,10 27,20 32,21 58,8 47,-23 165,-23 213,1 38,18 44,18 71,4 39,-19 160,-6 160,18 0,5 10,9 23,9 44,0 99,22 135,54 20,18 49,36 64,40 24,5 103,85 103,104 0,4 18,42 39,84 33,68 37,84 32,122 -4,24 -16,52 -26,61 -11,10 -20,31 -20,47 0,15 -4,28 -10,28 -5,0 -10,6 -10,13 0,8 -13,26 -30,40 -16,15 -30,36 -30,46 0,49 -121,136 -180,129 -15,-1 -34,3 -41,9 -8,6 -33,19 -56,28 -39,16 -46,16 -82,2 -38,-16 -39,-16 -45,6 -5,23 -62,57 -94,57 -9,-1 -30,-7 -47,-14 z"
       id="path130"
       inkscape:connector-curvature="0"
       style="fill:#000000" />
    <path
       d="m 3503,1288 c -22,-29 -23,-38 -3,-58 11,-11 26,-20 33,-20 6,1 1,10 -12,20 -19,17 -21,23 -11,35 14,17 56,20 65,4 4,-6 4,-39 0,-74 -6,-64 -7,-64 -35,-59 -35,8 -46,-10 -26,-41 18,-27 46,-33 46,-10 0,8 -6,12 -14,9 -7,-3 -16,2 -19,10 -9,24 19,20 36,-4 13,-19 15,-12 22,75 5,70 4,100 -5,110 -15,18 -64,20 -77,3 z"
       id="path132"
       inkscape:connector-curvature="0"
       style="fill:#000000" />
    <path
       d="m 6917,1223 c -20,-20 9,-123 34,-123 6,0 9,6 6,13 -3,6 -12,29 -21,49 -17,41 -10,54 27,44 26,-6 59,-58 51,-79 -3,-9 2,-18 13,-21 10,-3 38,-26 62,-51 24,-25 48,-45 53,-45 20,0 5,30 -27,55 -29,21 -34,30 -24,41 9,11 8,14 -5,14 -22,0 -56,36 -56,60 0,24 26,26 58,4 20,-14 22,-14 22,1 0,8 -16,23 -36,32 -35,17 -37,17 -53,-2 -15,-20 -17,-20 -33,-3 -18,18 -58,24 -71,11 z"
       id="path134"
       inkscape:connector-curvature="0"
       style="fill:#000000" />
    <path
       d="m 3167,1177 c -19,-21 -24,-23 -35,-10 -9,9 -29,13 -55,11 l -42,-3 -1,-65 c 0,-36 3,-78 7,-95 5,-23 7,-17 8,29 1,57 2,58 19,43 30,-28 59,-21 71,16 l 12,32 17,-28 c 20,-32 60,-47 73,-26 21,33 5,90 -31,109 -17,9 -24,6 -43,-13 z m 57,-26 c 17,-19 15,-61 -2,-61 -18,0 -52,33 -52,49 0,36 27,42 54,12 z m -96,-20 c 5,-30 -10,-45 -37,-36 -24,7 -45,40 -36,56 4,5 21,9 38,7 25,-2 33,-8 35,-27 z"
       id="path136"
       inkscape:connector-curvature="0"
       style="fill:#000000" />
    <path
       d="m 3360,1128 c 0,-62 5,-60 13,5 4,28 3,47 -3,47 -6,0 -10,-23 -10,-52 z"
       id="path138"
       inkscape:connector-curvature="0"
       style="fill:#000000" />
    <path
       d="m 3467,1141 c 4,-33 2,-42 -12,-47 -20,-8 -35,10 -35,44 0,12 -4,22 -10,22 -19,0 -10,-49 15,-77 l 25,-28 20,24 c 23,27 26,73 6,90 -12,10 -13,6 -9,-28 z"
       id="path140"
       inkscape:connector-curvature="0"
       style="fill:#000000" />
    <path
       d="m 3276,1143 c -3,-16 -8,-38 -12,-51 -7,-24 -2,-24 69,-5 31,8 19,26 -13,19 -31,-6 -31,-5 -24,29 7,42 -11,48 -20,8 z"
       id="path142"
       inkscape:connector-curvature="0"
       style="fill:#000000" />
    <path
       d="m 3930,1130 c 0,-7 3,-10 7,-7 3,4 3,10 0,14 -4,3 -7,0 -7,-7 z"
       id="path144"
       inkscape:connector-curvature="0"
       style="fill:#000000" />
    <path
       d="m 3360,1020 c 0,-7 3,-10 7,-7 3,4 3,10 0,14 -4,3 -7,0 -7,-7 z"
       id="path146"
       inkscape:connector-curvature="0"
       style="fill:#000000" />
    <path
       d="m 6990,1020 c 0,-5 5,-10 10,-10 6,0 10,5 10,10 0,6 -4,10 -10,10 -5,0 -10,-4 -10,-10 z"
       id="path148"
       inkscape:connector-curvature="0"
       style="fill:#000000" />
    <path
       d="m 6294,899 c -21,-20 -23,-20 -54,-4 -41,21 -46,15 -22,-26 11,-19 38,-66 60,-105 23,-40 44,-83 48,-98 6,-26 24,-37 24,-15 0,6 -23,57 -51,113 -28,55 -48,98 -44,94 4,-4 21,4 37,17 16,14 33,25 38,25 14,0 21,-18 10,-25 -19,-12 -10,-51 19,-83 32,-35 55,-39 85,-17 38,29 -12,62 -54,35 -20,-12 -40,6 -40,36 0,30 40,48 88,40 23,-3 32,-1 29,7 -2,7 -23,11 -56,11 -28,-1 -51,2 -51,7 0,17 -46,9 -66,-12 z m 151,-99 c 7,-11 -42,-26 -53,-16 -7,8 17,26 35,26 6,0 15,-4 18,-10 z"
       id="path150"
       inkscape:connector-curvature="0"
       style="fill:#000000" />
    <path
       d="m 7855,869 c -4,-30 -12,-60 -18,-67 -8,-10 -8,-15 0,-20 7,-4 13,-28 16,-52 3,-41 4,-39 5,14 2,57 3,58 20,43 27,-25 60,-21 74,8 16,36 -5,59 -49,50 -31,-5 -32,-5 -24,17 10,27 40,34 83,19 17,-6 34,-9 36,-6 20,20 -83,51 -106,33 -10,-9 -16,-8 -22,1 -5,9 -10,-6 -15,-40 z m 83,-48 c 18,-11 -10,-34 -32,-25 -19,7 -21,20 -3,27 18,8 21,8 35,-2 z"
       id="path152"
       inkscape:connector-curvature="0"
       style="fill:#000000" />
    <path
       d="m 3618,893 c -30,-15 -40,-40 -10,-28 9,5 32,10 50,13 43,6 43,-19 0,-39 -18,-8 -35,-22 -36,-32 -7,-36 55,-76 73,-47 3,6 -5,10 -19,10 -33,0 -56,37 -29,46 38,12 48,22 48,49 0,35 -36,48 -77,28 z"
       id="path154"
       inkscape:connector-curvature="0"
       style="fill:#000000" />
    <path
       d="m 3742,884 c -28,-19 -28,-47 -1,-91 29,-46 69,-44 83,4 16,57 -40,116 -82,87 z m 65,-43 c 15,-31 1,-61 -29,-61 -12,0 -18,3 -15,6 3,4 -3,18 -13,32 -16,19 -18,28 -8,39 17,20 51,12 65,-16 z"
       id="path156"
       inkscape:connector-curvature="0"
       style="fill:#000000" />
    <path
       d="m 7240,879 c -11,-19 -13,-19 -29,-5 -23,21 -48,20 -63,-3 -11,-18 -12,-18 -42,0 -38,23 -40,23 -60,3 -22,-22 -20,-60 5,-85 15,-15 30,-19 62,-17 42,3 42,3 39,39 -5,67 47,76 69,12 8,-24 14,-31 19,-23 5,7 6,19 3,26 -7,20 16,54 37,54 21,0 40,-28 40,-59 0,-32 15,-25 25,11 13,41 32,47 33,9 1,-33 67,-171 82,-171 16,0 12,17 -15,56 -14,20 -25,41 -25,45 0,5 20,9 45,9 25,0 56,7 69,15 21,14 24,14 36,0 15,-18 41,-20 58,-3 9,9 16,8 30,-5 21,-19 67,-23 77,-7 4,6 11,8 16,4 6,-3 21,-3 34,0 18,5 24,14 27,45 2,25 0,37 -8,34 -6,-2 -17,3 -24,12 -14,17 -46,20 -55,5 -3,-5 -12,-7 -20,-3 -19,7 -19,-8 0,-33 21,-27 19,-54 -4,-54 -21,0 -71,53 -71,76 0,8 -5,14 -10,14 -6,0 -8,-15 -4,-40 5,-33 4,-40 -9,-40 -9,0 -25,17 -36,38 -11,20 -20,30 -21,22 0,-12 -2,-12 -10,1 -13,22 -58,33 -76,18 -8,-6 -14,-27 -14,-45 0,-29 -3,-34 -25,-34 -20,0 -25,6 -31,35 -8,43 0,54 26,37 17,-10 20,-10 20,3 0,26 -30,29 -71,7 -39,-21 -39,-21 -52,-2 -16,27 -63,26 -77,-1 z m -133,-31 c 26,-30 36,-58 20,-59 -48,-5 -77,13 -77,46 0,41 26,47 57,13 z m 404,12 c 20,-11 26,-45 9,-55 -17,-11 -48,5 -54,27 -3,13 0,26 7,30 15,10 15,10 38,-2 z m 271,-15 c 7,-16 8,-29 2,-35 -14,-14 -54,16 -54,41 0,29 38,24 52,-6 z"
       id="path158"
       inkscape:connector-curvature="0"
       style="fill:#000000" />
    <path
       d="m 3337,873 c -15,-14 -6,-23 17,-17 14,3 32,2 41,-4 14,-7 12,-10 -13,-15 -18,-4 -38,-18 -48,-32 -16,-24 -16,-27 1,-45 19,-21 75,-28 75,-10 0,6 -10,10 -22,10 -13,0 -30,5 -38,10 -13,9 -12,13 9,30 13,11 32,20 42,20 25,0 25,36 0,50 -22,11 -54,13 -64,3 z"
       id="path160"
       inkscape:connector-curvature="0"
       style="fill:#000000" />
    <path
       d="m 6738,873 c -33,-8 -18,-19 21,-15 42,4 65,-14 38,-30 -22,-12 -47,-38 -47,-48 0,-16 31,-40 51,-40 27,0 23,17 -6,24 -32,8 -32,17 5,49 37,33 38,45 4,57 -26,10 -37,11 -66,3 z"
       id="path162"
       inkscape:connector-curvature="0"
       style="fill:#000000" />
    <path
       d="m 6535,847 c -17,-27 -10,-87 10,-87 15,0 115,-106 115,-121 0,-6 5,-7 10,-4 13,8 4,24 -48,79 -42,45 -43,46 -17,46 15,0 24,4 20,10 -3,6 -19,10 -35,10 -31,0 -56,30 -46,56 7,19 51,18 70,-1 10,-10 17,-12 21,-4 10,15 -25,38 -57,39 -18,0 -33,-8 -43,-23 z"
       id="path164"
       inkscape:connector-curvature="0"
       style="fill:#000000" />
    <path
       d="m 3002,849 c -13,-5 -20,-13 -17,-19 4,-6 11,-8 16,-4 14,8 59,-4 59,-16 0,-5 -16,-16 -35,-24 -46,-19 -45,-40 3,-65 18,-10 22,-9 22,4 0,8 -9,15 -20,15 -30,0 -24,20 10,31 22,8 30,17 30,34 0,31 -38,55 -68,44 z"
       id="path166"
       inkscape:connector-curvature="0"
       style="fill:#000000" />
    <path
       d="m 3271,808 c 1,-55 5,-50 11,15 2,20 0,37 -4,37 -4,0 -7,-24 -7,-52 z"
       id="path168"
       inkscape:connector-curvature="0"
       style="fill:#000000" />
    <path
       d="m 2816,805 c 6,-48 36,-120 69,-160 9,-11 2,8 -15,43 -27,55 -28,61 -10,50 17,-11 22,-10 30,2 12,19 13,77 1,85 -6,3 -8,-8 -4,-29 11,-68 -45,-49 -66,22 -10,35 -10,35 -5,-13 z"
       id="path170"
       inkscape:connector-curvature="0"
       style="fill:#000000" />
    <path
       d="m 2920,835 c -10,-12 -9,-23 4,-52 l 17,-38 -6,39 c -6,35 -5,38 14,33 13,-3 18,-1 14,8 -7,21 -30,25 -43,10 z"
       id="path172"
       inkscape:connector-curvature="0"
       style="fill:#000000" />
    <path
       d="m 2660,838 c 0,-3 7,-23 16,-44 9,-22 20,-52 25,-68 l 8,-28 -44,6 c -24,4 -46,3 -48,-1 -3,-5 2,-9 11,-10 9,-1 46,-6 82,-12 83,-14 143,-14 135,-1 -3,6 -19,10 -34,10 -75,0 -88,8 -111,74 -19,53 -40,92 -40,74 z"
       id="path174"
       inkscape:connector-curvature="0"
       style="fill:#000000" />
    <path
       d="m 6748,687 c 11,-12 25,-33 31,-47 9,-23 10,-23 10,-4 1,24 -34,74 -51,74 -7,0 -2,-10 10,-23 z"
       id="path176"
       inkscape:connector-curvature="0"
       style="fill:#000000" />
    <path
       d="m 2970,680 c 0,-7 3,-10 7,-7 3,4 3,10 0,14 -4,3 -7,0 -7,-7 z"
       id="path178"
       inkscape:connector-curvature="0"
       style="fill:#000000" />
  </g>
  <g
     id="layer102"
     style="fill:#fefefe;stroke:none"
     transform="translate(-1964.12,-376.925)">
    <path
       d="m 12275,5414 c -10,-4 -2,-150 10,-182 2,-7 4,-14 5,-17 0,-11 33,-71 49,-89 25,-28 60,-40 126,-42 109,-2 111,-3 123,-28 10,-23 15,-24 69,-20 32,3 73,9 92,14 19,5 38,7 43,4 9,-6 111,30 131,46 94,74 101,84 113,190 7,65 -22,110 -71,110 -35,0 -35,0 -36,-47 -4,-123 -21,-183 -57,-202 -10,-5 -47,-13 -82,-17 -36,-4 -68,-12 -72,-17 -4,-7 -11,-7 -20,1 -9,7 -26,8 -48,3 -85,-18 -204,7 -249,53 -39,40 -52,88 -49,176 l 2,65 -35,2 c -19,1 -39,0 -44,-3 z"
       id="path183"
       inkscape:connector-curvature="0" />
    <path
       d="m 9850,5419 c -11,-19 -15,-211 -6,-240 3,-8 7,-43 11,-79 3,-36 10,-99 15,-140 5,-41 12,-93 14,-115 10,-76 26,-190 31,-205 10,-35 17,-83 30,-210 7,-74 16,-153 20,-175 9,-65 14,-122 20,-265 3,-74 11,-169 18,-210 6,-41 12,-131 12,-201 v -125 l 35,6 c 32,5 35,8 34,40 -1,32 -15,179 -30,303 -3,26 -7,80 -9,120 -3,40 -7,108 -9,152 -3,44 -8,161 -11,260 -4,99 -11,209 -16,245 -40,280 -46,372 -49,701 -1,63 -5,120 -8,126 -10,15 -48,33 -71,33 -11,0 -25,-9 -31,-21 z"
       id="path185"
       inkscape:connector-curvature="0" />
    <path
       d="m 10100,3438 c -36,-4 -135,-7 -220,-6 -85,1 -165,-2 -177,-6 -28,-9 -29,-31 -4,-72 l 19,-31 173,-6 c 96,-4 253,-8 349,-9 208,-2 358,-5 575,-11 118,-4 174,-1 215,9 41,11 113,14 275,12 329,-3 367,-1 388,20 20,20 15,46 -11,58 -24,12 -702,21 -787,11 -163,-19 -408,-8 -640,28 -69,10 -88,11 -155,3 z"
       id="path187"
       inkscape:connector-curvature="0" />
    <path
       d="m 10053,3283 c 4,-3 10,-3 14,0 3,4 0,7 -7,7 -7,0 -10,-3 -7,-7 z"
       id="path189"
       inkscape:connector-curvature="0" />
    <path
       d="m 10836,3234 c -59,-21 -77,-42 -74,-83 2,-28 10,-39 37,-55 34,-20 34,-20 105,9 15,7 17,5 11,-6 -12,-19 44,17 68,43 23,27 22,38 -5,38 -20,0 -20,1 -4,13 16,12 16,14 -4,35 -24,26 -74,28 -134,6 z"
       id="path191"
       inkscape:connector-curvature="0" />
    <path
       d="m 11354,3126 c 10,-32 14,-35 61,-42 27,-3 57,-8 65,-9 8,-2 56,-10 105,-19 50,-9 109,-23 132,-32 l 42.813,-13.7536 L 11802,3043 c 24,19 63,46 88,60 l 45,27 -60,2 c -33,1 -125,2 -205,3 -80,1 -176,7 -215,13 -112,18 -114,18 -101,-22 z"
       id="path193"
       inkscape:connector-curvature="0"
       sodipodi:nodetypes="ccccccccccscc" />
    <path
       d="m 2715,5314 -30,-25 30,5 30,6 -23,-19 -22,-19 31,-26 c 32,-27 49,-33 49,-16 0,6 -15,19 -32,30 -18,11 -29,20 -25,20 14,0 67,-34 67,-42 0,-14 20,-9 50,14 43,31 40,64 -6,83 -52,21 -85,19 -119,-11 z"
       id="path195"
       inkscape:connector-curvature="0" />
    <path
       d="m 2890,5253 c -8,-3 -22,-14 -32,-23 -18,-16 -18,-18 -1,-39 27,-32 124,-35 155,-4 l 22,23 -24,25 c -18,19 -33,25 -64,24 -23,0 -48,-3 -56,-6 z"
       id="path197"
       inkscape:connector-curvature="0" />
    <path
       d="m 2397,3354 c -41,-13 -69,-37 -56,-48 2,-2 40,3 84,10 44,8 181,17 304,20 187,6 218,9 195,19 -16,7 -33,10 -37,8 -10,-6 -253,-5 -362,2 -56,3 -94,0 -128,-11 z"
       id="path199"
       inkscape:connector-curvature="0" />
    <path
       d="m 6935,5363 c 4,-21 12,-41 18,-45 9,-5 7,-17 -7,-42 -17,-31 -17,-43 -6,-152 7,-66 14,-155 16,-199 4,-87 27,-277 49,-420 20,-124 33,-290 29,-350 -2,-27 1,-117 7,-200 7,-82 13,-168 14,-190 2,-22 4,-56 4,-76 1,-31 5,-37 26,-41 22,-5 25,-1 31,30 9,47 -3,289 -23,437 -11,86 -15,203 -14,415 0,236 -4,323 -19,435 -10,77 -22,172 -25,210 -6,66 -28,174 -41,209 -4,10 -18,16 -36,16 -29,0 -30,-1 -23,-37 z"
       id="path201"
       inkscape:connector-curvature="0" />
    <path
       d="m 5618,3665 c -8,-9 1,-126 11,-137 3,-4 51,-8 106,-9 55,-1 132,-5 170,-10 39,-5 153,-11 255,-14 324,-10 1229,-15 1234,-7 2,4 6,36 8,72 l 3,65 -132,-3 c -74,-2 -211,5 -310,14 -135,13 -289,18 -633,19 -250,1 -511,5 -580,9 -69,5 -128,5 -132,1 z"
       id="path203"
       inkscape:connector-curvature="0" />
    <path
       d="m 3452,5329 c 21,-153 70,-194 271,-225 41,-6 51,10 12,20 -32,8 -125,52 -146,68 -18,15 -79,103 -79,115 0,4 -5,25 -11,46 -8,29 -15,37 -33,37 -22,0 -22,-2 -14,-61 z"
       id="path205"
       inkscape:connector-curvature="0" />
    <path
       d="m 7516,5191 c -3,-4 5,-18 19,-31 19,-18 31,-21 59,-16 42,8 45,19 14,40 -24,17 -83,22 -92,7 z"
       id="path207"
       inkscape:connector-curvature="0" />
    <path
       d="m 7895,5063 c 5,-21 9,-49 11,-63 1,-14 3,-25 4,-25 1,0 4,-27 6,-60 2,-33 8,-73 14,-90 8,-23 9,-6 5,70 -3,55 -5,124 -5,153 0,46 -2,52 -21,52 -19,0 -20,-4 -14,-37 z"
       id="path209"
       inkscape:connector-curvature="0" />
    <path
       d="m 7951,4568 c -1,-46 3,-78 9,-78 12,0 12,94 0,130 -6,17 -8,2 -9,-52 z"
       id="path211"
       inkscape:connector-curvature="0" />
    <path
       d="m 7865,4426 c -32,-34 -49,-93 -34,-117 4,-7 39,-10 98,-8 99,4 111,11 111,62 0,41 -17,67 -55,83 -55,23 -84,18 -120,-20 z m 52,-113 c -4,-3 -7,0 -7,7 0,7 3,10 7,7 3,-4 3,-10 0,-14 z"
       id="path213"
       inkscape:connector-curvature="0" />
    <path
       d="m 7282,4085 c -6,-27 -13,-68 -16,-90 -5,-39 -4,-41 28,-51 52,-16 178,-9 249,15 34,11 76,24 92,28 24,6 17,8 -37,11 -55,2 -76,-1 -115,-21 -57,-29 -81,-24 -129,29 -27,29 -33,32 -37,17 -3,-10 -6,0 -7,22 -1,22 -5,51 -9,65 -6,22 -9,19 -19,-25 z"
       id="path215"
       inkscape:connector-curvature="0" />
    <path
       d="m 3785,5350 c -6,-10 -1,-44 21,-145 20,-93 29,-108 50,-81 35,48 0,217 -47,229 -11,3 -21,2 -24,-3 z"
       id="path217"
       inkscape:connector-curvature="0" />
    <path
       d="m 4099,5348 c 0,-2 -2,-28 -3,-58 -2,-58 -19,-98 -61,-148 -19,-23 -40,-34 -81,-42 -30,-7 -62,-9 -70,-6 -8,3 -14,1 -14,-4 0,-17 60,-11 133,12 51,17 77,32 103,61 34,37 35,40 32,110 -2,59 -6,72 -20,75 -10,2 -18,2 -19,0 z"
       id="path219"
       inkscape:connector-curvature="0" />
    <path
       d="m 7205,5211 c -14,-23 73,-41 103,-22 10,6 5,11 -19,20 -39,13 -76,14 -84,2 z"
       id="path221"
       inkscape:connector-curvature="0" />
    <path
       d="m 13598,4543 c -34,-39 -3,-96 76,-139 28,-15 29,-15 23,5 -3,12 -1,24 4,27 5,3 9,-4 9,-16 0,-30 19,-21 43,21 l 21,36 -23,32 c -37,51 -121,70 -153,34 z"
       id="path223"
       inkscape:connector-curvature="0" />
    <path
       d="m 3738,4375 c -35,-19 -48,-73 -23,-91 21,-16 125,-50 176,-59 l 36,-7 -4,38 c -6,54 -32,92 -78,114 -48,23 -70,24 -107,5 z"
       id="path225"
       inkscape:connector-curvature="0" />
    <path
       d="m 3450,3330 c -19,-5 -68,-11 -108,-13 -41,-3 -76,-7 -78,-9 -3,-4 132,-128 182,-168 59,-47 102,-79 128,-96 l 29,-18 -7,64 c -5,53 -49,228 -58,235 -11,9 -59,11 -88,5 z"
       id="path227"
       inkscape:connector-curvature="0" />
    <path
       d="m 3193,3313 c 4,-3 10,-3 14,0 3,4 0,7 -7,7 -7,0 -10,-3 -7,-7 z"
       id="path229"
       inkscape:connector-curvature="0" />
    <path
       d="m 3194,3284 c -28,-14 -33,-22 -38,-67 -6,-51 22,-254 44,-321 5,-15 8,-32 5,-36 -8,-12 72,0 145,22 36,10 111,22 168,25 56,3 106,11 109,16 4,6 1,13 -5,15 -7,2 -12,17 -12,32 0,24 -11,37 -67,77 -71,49 -244,195 -277,232 -23,25 -31,26 -72,5 z"
       id="path231"
       inkscape:connector-curvature="0" />
    <path
       d="m 3440,2890 c -100,-20 -160,-50 -160,-80 0,-5 -7,-10 -15,-10 -8,0 -15,5 -15,10 0,6 -7,10 -15,10 -8,0 -15,-9 -15,-20 0,-12 -6,-20 -13,-18 -13,3 -37,-19 -75,-67 l -23,-29 33,-12 c 74,-27 115,-15 149,46 26,45 44,51 53,17 9,-39 -12,-95 -42,-111 -40,-20 -102,-31 -102,-17 0,6 14,11 31,11 41,0 66,15 84,50 28,54 17,63 -23,20 -35,-35 -44,-40 -85,-40 -25,0 -58,5 -72,12 -14,6 -28,8 -32,5 -9,-10 25,-35 62,-46 29,-9 29,-9 4,-10 -14,-1 -34,6 -45,14 -10,8 -22,15 -26,15 -11,0 -9,-82 2,-100 7,-11 60.1702,-35.9523 60.1702,-7.9523 0,20 -24.4548,16.9101 -19.4548,19.9101 10,6 -0.7154,26.0422 -0.7154,-8.9578 0,-13 5,-23 10,-23 6,0 10,14 10,30 0,23 4,30 20,30 15,0 20,-7 20,-26 0,-22 4,-25 23,-21 83,20 64.2941,5.5215 97.2941,-25.4785 25.7293,-24.9942 29.9527,-36.7724 33.1518,-53.1839 1.1527,-5.9133 6.5785,-30.1657 2.0756,-41.5554 -16,-41 2.4785,-117.7822 24.4785,-174.7822 11,-28 14,-48 8,-46 -18,6 -50,120 -45,159 l 5,36 -67,-19 c -36,-10 -77,-20 -90,-23 -13,-2 -26,-6 -29,-9 -9,-10 48,-75 91,-104 87,-60 105,-65 233,-69 106,-4 129,-1 198,21 83,26 188,89 204,121 80,161 99,268 65,346 -28,62 -141,180 -205,213 -46,25 -66,29 -158,32 -58,2 -125,-1 -150,-6 z m 29,-462 c -12,-22 -8,-147 6,-180 4,-11 3,-18 -3,-18 -26,0 -36,176 -13,204 19,23 24,20 10,-6 z m 84,-59 c -8,-16 -20.7641,-32.4692 -23.7641,-29.4692 -6,5 26.7641,60.4692 34.7641,60.4692 3,0 -2,-14 -11,-31 z m -24,-91 c 0,-35 -3,-46 -8,-34 -4,11 -6,29 -5,40 1,12 3,27 3,34 1,6 7.2359,21.5308 10.2359,21.5308 3,0 0.7641,-33.5308 -0.2359,-61.5308 z m -45,-94 c 4,-10 1,-14 -6,-12 -15,5 -23,28 -10,28 5,0 13,-7 16,-16 z"
       id="path233"
       inkscape:connector-curvature="0"
       sodipodi:nodetypes="sssssscccccccssccscccccscsssssssccsccsccccccccccccsccsccccscccccscccsc" />
    <path
       d="m 3224,2838 c -4,-7 -3,-8 4,-4 12,7 16,16 8,16 -3,0 -8,-5 -12,-12 z"
       id="path235"
       inkscape:connector-curvature="0" />
    <path
       d="m 3174,2808 c -4,-7 -3,-8 4,-4 7,4 12,9 12,12 0,8 -9,4 -16,-8 z"
       id="path237"
       inkscape:connector-curvature="0" />
    <path
       d="m 3111,2503 c -1,-18 5,-23 23,-23 14,0 28,5 31,10 3,6 -5,10 -19,10 -13,0 -27,6 -29,13 -3,6 -6,2 -6,-10 z"
       id="path239"
       inkscape:connector-curvature="0" />
    <path
       d="m 3253,2492 c 19,-20 23,-67 7,-77 -5,-3 -10,-10 -10,-16 0,-15 43,-10 68,7 19,13 4.0286,23.2512 2.0286,56.2512 l -23.2178,34.5119 -50,3 c -48,3 -10.8108,11.2369 6.1892,-7.7631 z"
       id="path241"
       inkscape:connector-curvature="0"
       sodipodi:nodetypes="ccsccccc" />
    <path
       d="m 3125,2459 c -4,-6 -5,-12 -2,-15 2,-3 7,2 10,11 7,17 1,20 -8,4 z"
       id="path243"
       inkscape:connector-curvature="0" />
    <path
       d="m 3133,2407 c 4,-10 7,-23 7,-28 0,-5 5,-9 10,-9 16,0 12,26 -7,41 -15,12 -16,12 -10,-4 z"
       id="path245"
       inkscape:connector-curvature="0" />
    <path
       d="m 3187,2386 c -5,-12 0,-16 18,-16 13,0 27,5 30,10 3,6 2,10 -4,10 -5,0 -16,3 -24,6 -8,3 -17,-2 -20,-10 z"
       id="path247"
       inkscape:connector-curvature="0" />
    <path
       d="m 12604,4070 c -33,-13 -64,-59 -64,-96 v -32 l 68,28 c 37,16 82,34 100,40 37,14 39,23 12,50 -21,21 -77,26 -116,10 z"
       id="path249"
       inkscape:connector-curvature="0" />
    <path
       d="m 6096,3439 c -21,-3 -42,-12 -46,-19 -22,-35 -25,-142 -16,-520 1,-30 3,-115 4,-187 l 2,-133 h 28 c 43,0 56,33 48,122 -4,40 -3,129 2,198 6,69 7,193 3,275 -4,83 -4,154 0,158 9,11 259,12 521,2 108,-4 208,-5 223,-1 23,6 26,11 23,44 l -3,37 -90,1 c -290,5 -585,15 -620,22 -22,4 -57,5 -79,1 z"
       id="path251"
       inkscape:connector-curvature="0" />
    <path
       d="m 7835,3299 c -48,-145 -74,-194 -204,-392 -39,-59 -46,-75 -26,-57 15,14 42,48 61,75 18,28 49,67 67,88 38,43 131,217 140,262 4,18 1,40 -7,54 -13,24 -14,23 -31,-30 z"
       id="path253"
       inkscape:connector-curvature="0" />
    <path
       d="m 6765,3300 c -3,-5 1,-10 9,-10 9,0 16,5 16,10 0,6 -4,10 -9,10 -6,0 -13,-4 -16,-10 z"
       id="path255"
       inkscape:connector-curvature="0" />
    <path
       d="m 6686,3275 c 8,-45 23,-74 50,-97 14,-13 30,-31 35,-40 8,-15 5,-17 -22,-14 -17,2 -44,14 -61,26 -27,20 -30,20 -26,3 5,-27 100,-61 193,-69 44,-4 83,-11 86,-17 4,-6 9,-5 13,1 3,6 -1,18 -11,27 -13,13 -27,16 -63,11 -26,-4 -58,-2 -71,4 -23,10 -23,10 -1,6 32,-6 27,9 -7,24 -46,19 -57,39 -57,102 l 1,58 h -32 c -28,0 -31,-3 -27,-25 z"
       id="path257"
       inkscape:connector-curvature="0" />
    <path
       d="m 7285,3273 c -27,-8 -59,-23 -70,-33 -11,-9 -31,-20 -45,-24 -14,-3 -44,-24 -68,-45 l -43,-40 35,10 c 37,10 205,100 245,131 28,21 15,22 -54,1 z"
       id="path259"
       inkscape:connector-curvature="0" />
    <path
       d="m 6800,3275 c 0,-4 7,-19 15,-34 14,-27 101,-79 113,-67 3,3 1,6 -5,6 -6,0 -33,23 -59,50 -43,45 -64,60 -64,45 z"
       id="path261"
       inkscape:connector-curvature="0" />
    <path
       d="m 6756,3245 c 14,-63 32,-84 86,-100 57,-17 154,-20 163,-6 7,12 -26,31 -52,31 -15,0 -16,-2 -3,-10 8,-5 11,-12 8,-16 -11,-11 -137,56 -159,85 -12,14 -23,24 -26,23 -3,-2 -10,2 -15,10 -5,8 -6,2 -2,-17 z"
       id="path263"
       inkscape:connector-curvature="0" />
    <path
       d="m 6669,3250 c -5,-54 26,-110 51,-95 8,5 9,10 2,14 -6,4 -20,27 -31,51 -11,25 -21,38 -22,30 z"
       id="path265"
       inkscape:connector-curvature="0" />
    <path
       d="m 6642,3230 c 0,-14 2,-19 5,-12 2,6 2,18 0,25 -3,6 -5,1 -5,-13 z"
       id="path267"
       inkscape:connector-curvature="0" />
    <path
       d="m 6650,3190 c 0,-7 3,-10 7,-7 3,4 3,10 0,14 -4,3 -7,0 -7,-7 z"
       id="path269"
       inkscape:connector-curvature="0" />
    <path
       d="m 7149,2712 c -41,-20 -106,-52 -145,-69 -48,-21 -80,-43 -95,-64 l -23,-32 25,8 c 13,4 66,10 118,12 75,4 92,2 89,-8 -3,-10 -31,-15 -99,-17 -145,-4 -136,-1 -158,-57 -50,-127 -50,-166 -6,-259 42,-87 95,-148 160,-183 33,-18 63,-32 66,-33 3,0 21,32 39,71 19,38 40,75 47,81 19,16 16,2 -11,-40 -20,-31 -38,-73 -41,-92 0,-3 -4,-11 -8,-18 -19,-28 117,-44 193,-22 19,6 58,11 85,11 36,1 70,11 120,37 149,76 163,100 167,284 l 3,123 -34,60 c -33,59 -97,135 -113,135 -5,0 -27,14 -50,30 -22,17 -47,30 -55,30 -7,0 -13,4 -13,9 0,15 -90,41 -140,41 -34,0 -66,-10 -121,-38 z m -124,-352 c 10,-11 20,-41 22,-67 4,-39 1,-53 -17,-76 -12,-16 -28,-26 -35,-23 -7,2 -21,-2 -32,-9 -21,-17 -47,-20 -38,-5 3,6 -1,10 -9,10 -15,0 -48,51 -44,67 0,4 -2,21 -7,36 -8,32 15,67 46,67 10,0 21,5 24,10 11,18 71,11 90,-10 z m 206,-246 c -18,-23 -94,-84 -106,-84 -17,0 14,35 50,56 24,14 46,31 49,39 3,8 10,15 16,15 6,0 2,-12 -9,-26 z m 113,-66 c -22,-24 -93,-62 -102,-54 -6,7 -10,4 56,45 28,18 52,38 53,45 0,7 3,6 6,-2 3,-7 -3,-22 -13,-34 z"
       id="path271"
       inkscape:connector-curvature="0" />
    <path
       d="m 6930,2348 c -37,-10 -50,-23 -50,-48 1,-12 3,-11 11,3 13,22 42,22 62,-1 24,-26 21,-38 -13,-64 -30,-21 -30,-23 -10,-30 14,-5 32,-2 51,7 16,9 32,15 36,14 8,-1 20,31 17,49 -1,6 -2,18 -3,25 -4,41 -47,60 -101,45 z"
       id="path273"
       inkscape:connector-curvature="0" />
    <path
       d="m 13732,2918 c -61,-26 -146,-97 -168,-139 -8,-16 -11,-29 -7,-29 4,0 3,-4 -3,-10 -12,-12 -6,-90 7,-90 5,0 29,15 53,34 65,49 107,61 162,46 24,-7 44,-17 44,-21 0,-5 6,-9 14,-9 18,0 40,-27 28,-34 -5,-3 -24,6 -42,19 -19,14 -48,27 -66,31 -41,8 -108,-22 -152,-67 -31,-31 -33,-38 -28,-77 3,-24 14,-58 23,-75 10,-18 19,-33 20,-35 0,-2 30,8 65,22 69,28 102,32 141,17 35,-14 67,-51 67,-78 0,-30 -70,-106 -128,-140 -44,-26 -44,-26 -21,-39 31,-17 73,-17 129,0 l 45,14 -2,93 c -2,51 -7,97 -13,103 -12,12 -13,26 -1,26 20,0 46,-117 44,-193 -1,-31 1,-37 13,-33 9,3 22,6 29,6 9,0 15,23 20,76 8,79 46,174 74,183 10,2 8,-5 -7,-23 -26,-33 -49,-114 -50,-178 l -2,-47 30,10 c 16,6 33,22 39,37 21,52 121,195 121,174 0,-6 -10,-23 -23,-39 -54,-67 -99,-153 -80,-153 4,0 30,13 58,28 37,20 58,41 83,82 62,105 68,180 21,291 -64,152 -183,223 -389,234 -84,5 -101,3 -148,-17 z"
       id="path275"
       inkscape:connector-curvature="0" />
    <path
       d="m 13678,2462 -57,-27 14,-38 c 16,-48 64,-117 80,-117 19,0 102,59 130,92 32,38 32,53 -4,89 -38,37 -85,38 -163,1 z m 112,-62 c 0,-10 -58,-50 -73,-50 -18,0 -19,34 -2,46 22,16 75,19 75,4 z"
       id="path277"
       inkscape:connector-curvature="0" />
    <path
       d="m 7710,1925 c 0,-8 -14,-22 -31,-30 -34,-18 -34,-34 2,-52 19,-10 25,-10 32,3 7,13 10,12 23,-1 25,-25 104,-1 104,31 0,21 -38,54 -54,48 -8,-3 -17,-1 -21,5 -10,17 -55,13 -55,-4 z"
       id="path279"
       inkscape:connector-curvature="0" />
    <path
       d="m 3677,1904 c -4,-4 -4,-18 -1,-31 5,-18 3,-22 -10,-17 -13,5 -15,2 -8,-17 9,-23 19,-31 57,-45 20,-7 33,-7 72,1 15,4 20,10 16,25 -3,11 0,20 6,20 6,0 11,11 11,25 0,20 -5,25 -25,25 -14,0 -28,-7 -31,-15 -9,-21 -24,-19 -24,4 0,25 -45,42 -63,25 z"
       id="path281"
       inkscape:connector-curvature="0" />
    <path
       d="m 7827,1685 c -43,-30 -49,-48 -10,-39 25,7 26,6 20,-25 -5,-23 -3,-31 8,-31 8,0 15,5 15,10 0,7 13,8 35,4 28,-5 35,-3 35,10 0,9 -6,19 -13,22 -9,3 -12,16 -9,34 2,17 0,30 -6,30 -6,0 -16,2 -24,5 -7,3 -30,-6 -51,-20 z"
       id="path283"
       inkscape:connector-curvature="0" />
    <path
       d="m 7909,1453 c -1,-4 -2,-19 -3,-32 -1,-26 -26,-43 -26,-18 0,19 -27,30 -33,13 -9,-22 9,-39 35,-34 13,2 30,-2 37,-9 19,-20 27,-9 26,39 0,32 -4,43 -17,46 -10,2 -19,0 -19,-5 z"
       id="path285"
       inkscape:connector-curvature="0" />
    <path
       d="m 3177,1163 c -14,-13 -6,-42 15,-57 29,-21 35,-20 43,5 11,32 -36,75 -58,52 z"
       id="path287"
       inkscape:connector-curvature="0" />
    <path
       d="m 3055,1151 c -9,-16 12,-49 36,-56 27,-9 42,6 37,36 -2,19 -10,25 -35,27 -17,2 -34,-2 -38,-7 z"
       id="path289"
       inkscape:connector-curvature="0" />
    <path
       d="m 6400,800 c -8,-5 -11,-12 -8,-16 11,-10 60,5 53,16 -8,12 -26,12 -45,0 z"
       id="path291"
       inkscape:connector-curvature="0" />
    <path
       d="m 7903,823 c -18,-7 -16,-20 3,-27 22,-9 50,14 32,25 -14,10 -17,10 -35,2 z"
       id="path293"
       inkscape:connector-curvature="0" />
    <path
       d="m 3742,857 c -10,-11 -8,-20 8,-39 10,-14 16,-28 13,-32 -3,-3 3,-6 15,-6 30,0 44,30 29,61 -14,28 -48,36 -65,16 z"
       id="path295"
       inkscape:connector-curvature="0" />
    <path
       d="m 7057,863 c -12,-11 -8,-50 6,-61 12,-10 39,-15 64,-13 16,1 6,29 -20,59 -21,22 -38,28 -50,15 z"
       id="path297"
       inkscape:connector-curvature="0" />
    <path
       d="m 7473,862 c -7,-4 -10,-17 -7,-30 6,-22 37,-38 54,-27 17,10 11,44 -9,55 -23,12 -23,12 -38,2 z"
       id="path299"
       inkscape:connector-curvature="0" />
    <path
       d="m 7730,851 c 0,-25 40,-55 54,-41 6,6 5,19 -2,35 -14,30 -52,35 -52,6 z"
       id="path301"
       inkscape:connector-curvature="0" />
    <rect
       style="fill:#ffffff;fill-opacity:1;stroke:none;stroke-width:1.92000008;stroke-miterlimit:4;stroke-dasharray:none;stroke-opacity:1"
       id="rect4826"
       width="1033.5594"
       height="584.55408"
       x="2583.8987"
       y="618.59039" />
    <rect
       style="fill:#ffffff;fill-opacity:1;stroke:none;stroke-width:1.92000008;stroke-miterlimit:4;stroke-dasharray:none;stroke-opacity:1"
       id="rect4828"
       width="565.49274"
       height="529.4873"
       x="3229.873"
       y="728.72388" />
    <rect
       style="fill:#ffffff;fill-opacity:1;stroke:none;stroke-width:1.92000008;stroke-miterlimit:4;stroke-dasharray:none;stroke-opacity:1"
       id="rect4830"
       width="36.005169"
       height="42.358978"
       x="3759.3606"
       y="1258.2112" />
    <rect
       style="fill:#ffffff;fill-opacity:1;stroke:none;stroke-width:1.92000008;stroke-miterlimit:4;stroke-dasharray:none;stroke-opacity:1"
       id="rect4832"
       width="156.72827"
       height="105.89748"
       x="3460.7297"
       y="1213.7343" />
    <rect
       style="fill:#ffffff;fill-opacity:1;stroke:none;stroke-width:1.92000008;stroke-miterlimit:4;stroke-dasharray:none;stroke-opacity:1"
       id="rect4834"
       width="151.19649"
       height="152.98538"
       x="3695"
       y="760" />
    <text
       xml:space="preserve"
       style="font-style:normal;font-weight:normal;font-size:341.18115234px;line-height:0.89999998;font-family:sans-serif;letter-spacing:0px;word-spacing:0px;fill:#000000;fill-opacity:1;stroke:none;stroke-width:8.52952957"
       x="2554.9404"
       y="866.34302"
       id="text4822"
       transform="scale(0.98812318,1.0120196)"><tspan
         sodipodi:role="line"
         id="tspan4820"
         x="2554.9404"
         y="866.34302"
         style="font-style:normal;font-variant:normal;font-weight:normal;font-stretch:normal;line-height:0.89999998;font-family:'Bradley Hand ITC';-inkscape-font-specification:'Bradley Hand ITC';stroke-width:8.52952957">This is so </tspan><tspan
         sodipodi:role="line"
         x="2554.9404"
         y="1195.7441"
         style="font-style:normal;font-variant:normal;font-weight:normal;font-stretch:normal;line-height:0.89999998;font-family:'Bradley Hand ITC';-inkscape-font-specification:'Bradley Hand ITC';stroke-width:8.52952957"
         id="tspan4824">  boring</tspan></text>
    <rect
       style="fill:#ffffff;fill-opacity:1;stroke:none;stroke-width:1.92000008;stroke-miterlimit:4;stroke-dasharray:none;stroke-opacity:1"
       id="rect4857"
       width="1440.707"
       height="545.13239"
       x="6298.9751"
       y="605.03705" />
    <rect
       style="fill:#ffffff;fill-opacity:1;stroke:none;stroke-width:1.92000008;stroke-miterlimit:4;stroke-dasharray:none;stroke-opacity:1"
       id="rect4859"
       width="281.55212"
       height="245.60905"
       x="6146.2183"
       y="712.86542"
       ry="0" />
    <rect
       style="fill:#ffffff;fill-opacity:1;stroke:none;stroke-width:1.92000008;stroke-miterlimit:4;stroke-dasharray:none;stroke-opacity:1"
       id="rect4861"
       width="440.29926"
       height="272.56619"
       x="7571.9492"
       y="703.87976" />
    <rect
       style="fill:#ffffff;fill-opacity:1;stroke:none;stroke-width:1.92000008;stroke-miterlimit:4;stroke-dasharray:none;stroke-opacity:1"
       id="rect4863"
       width="374.40414"
       height="278.55667"
       x="6769.2266"
       y="958.47461" />
    <text
       xml:space="preserve"
       style="font-style:normal;font-weight:normal;font-size:341.18115234px;line-height:0.89999998;font-family:sans-serif;letter-spacing:0px;word-spacing:0px;fill:#000000;fill-opacity:1;stroke:none;stroke-width:8.52952957"
       x="6402.5347"
       y="778.41199"
       id="text4822-3"
       transform="scale(0.98812316,1.0120196)"><tspan
         sodipodi:role="line"
         x="6402.5347"
         y="778.41199"
         style="font-style:normal;font-variant:normal;font-weight:normal;font-stretch:normal;line-height:0.89999998;font-family:'Bradley Hand ITC';-inkscape-font-specification:'Bradley Hand ITC';stroke-width:8.52952957"
         id="tspan4824-0">     Let's </tspan><tspan
         sodipodi:role="line"
         x="6402.5347"
         y="1107.8131"
         style="font-style:normal;font-variant:normal;font-weight:normal;font-stretch:normal;line-height:0.89999998;font-family:'Bradley Hand ITC';-inkscape-font-specification:'Bradley Hand ITC';stroke-width:8.52952957"
         id="tspan4888">automate it</tspan></text>
  </g>
</svg>
