<svg xmlns="http://www.w3.org/2000/svg" viewBox="0 0 2051.62 1670.36"><defs><style>.cls-1{font-size:40px;font-family:STIXGeneral-Regular, STIXGeneral;}.cls-2,.cls-3,.cls-4,.cls-8{font-size:60px;}.cls-3,.cls-4,.cls-8{font-family:InputSans-Regular, Input Sans;}.cls-3{letter-spacing:0em;}.cls-5{letter-spacing:0.05em;}.cls-6{letter-spacing:-0.05em;}.cls-7{letter-spacing:-0.05em;}</style></defs><title>image-076-VCS</title><g id="Zeichnungseb.-2" data-name="Zeichnungseb."><path d="M1914,326.35a34.31,34.31,0,0,0-6.53,2.59l-.64.3a31.58,31.58,0,0,0-7.43,4.93,27.73,27.73,0,0,0-4.68,5.65c-2,3-3.06,6.78-3.38,11.56-.09,1.41-.18,3.07-.13,4.74a48,48,0,0,0,.6,5.1l.24,1.47a34.92,34.92,0,0,0,.93,4.59,21.93,21.93,0,0,0,5.15,8.79,26.57,26.57,0,0,0,3.94,3.26l.48.36a55.3,55.3,0,0,0,4.87,3.23,27.78,27.78,0,0,0,7.51,3v1.57l.14,3.41.05,1.57.14,3.72.08,2.28c.06,1.6.12,3.21.16,4.82l-.06,2.54-.06,2.57c0,1.47,0,2.92,0,4.37v2.57c0,1,0,1.91.06,2.87l0,1.21,0,1.24c0,.83.12,1.65.21,2.46l.09.91.19,1.32c0,1.42,0,2.68,0,3.94l0,2.63,0,1.17c0,1.94-.07,3.88-.07,5.82q0,10.46.09,20.91l-.09,2.37-.09,2.38-.16,4.46c-.1,2.32-.19,4.49-.26,6.67l-.16,5.6c-.15,4.5-.29,9-.37,13.49v.34l.28.66.28.66,2.4,5.63.25.57,0,1.09.19,5.23q.24,6.71.41,13.42v1.81q.22,14.19.38,28.39a2.07,2.07,0,0,0-.44.89,42,42,0,0,0-.77,4.64c-.14,1.83-.18,3.68-.2,5.4,0,2.11,0,4.25.06,6.37,0,1.22,0,2.43,0,3.65q.06,4.11.1,8.22l.1,6.91h-.11c-1.06,0-2.15.09-3.24.19a21.4,21.4,0,0,0-7.76,2.42,22.34,22.34,0,0,0-7.66,6.46,27.56,27.56,0,0,0-2.85,5,45.09,45.09,0,0,0-1.93,4.77,31.36,31.36,0,0,0-1.33,6.88,39,39,0,0,0-.23,4.94,29.84,29.84,0,0,0,1.1,8.51,56.73,56.73,0,0,0,3,7.92,21.31,21.31,0,0,0,7.8,8.48,26.68,26.68,0,0,0,5.79,2.56,25.27,25.27,0,0,0,7.63,1l0,3.46c0,5.17,0,10.26.09,15.34q.07,7.28.2,14.53c.08,5.72.16,11.43.2,17.15q.09,9.79.15,19.59c0,3,0,5.89,0,8.85,0,1.27,0,2.53,0,3.79,0,.84,0,1.67,0,2.5s0,1.65,0,2.48a28.78,28.78,0,0,0,.29,3.06l.07.31,0,5.47v5.46c0,7.81.11,15.73.22,23.4l.1,7c0,3.7.2,7.4.36,11.09l.06,1.14.1,2.16,0,1.7c0,1.77-.06,3.47-.12,5.18l-.08,4q-.13,6.06-.29,12.11-.24,8.75-.43,17.48c-.12,5.68-.17,10.22-.11,14.27,0,2.91.08,5.82.15,8.73,0,.86.05,1.73.08,2.6l0,1.41,0,.47a21,21,0,0,0,.55,5,2.68,2.68,0,0,0,1.14,1.59,2.45,2.45,0,0,0,1.15.38l-.15,6.82-.1,7c-.07,4.62-.21,9.25-.38,13.87-.07,2.07-.16,4.14-.25,6.2a2.5,2.5,0,0,0-.4,1.36c.06,1.32,0,2.63-.06,3.94l0,1.17-.1,2.89-.11,2.77-.15,4-.15,3.89c-.11,3.2-.19,6.41-.27,9.62.1,2.45.16,4.91.14,7.37-.06,5.62,0,11.27-.23,16.88l-.36,8.55c.11,1.77.17,3.54.17,5.33v1.57l.21.31.19,2.38.19,2.4c0,.63.08,1.28.1,1.91l0,.75.25,4.91c.07,1.29.09,2.59.12,3.9V990l0,2.08-.11,2.93c-.07,1.63-.08,3.19-.09,4.76l0,4.91-.06,4.94q-.09,8.68-.13,17.36l-.06,8.74,0,7.34,0,7.18q0,7.27,0,14.53c0,3.26,0,6.51,0,9.77l0,5.16a2.64,2.64,0,0,0-.19.76c.14,4.57.27,9.14.31,13.72,0,3.5.08,7,.16,10.49,0,3.09.21,6.17.19,9.25,0,3.8,0,7.58-.09,11.38a2,2,0,0,0,.28.31l0,3.79,0,3.81,0,1.95c0,1.29,0,2.57,0,3.85q-.08,14.82-.31,29.64-.06,3.6-.13,7.2a6,6,0,0,0-.48,3.46,15.21,15.21,0,0,1,0,1.65v.3c0,1.28,0,2.57,0,3.87,0,2.08.07,4.17.07,6.27v3.83c0,1.06,0,2.11,0,3.17,0,2.46,0,4.92,0,7.4,0,3.65,0,7.31-.09,11l0,1.84,0,2.12c0,2.78-.12,5.57-.21,8.36l-.09,2.83h-.08a29.69,29.69,0,0,0-4.52.4,22,22,0,0,0-4.62,1.41l-.77.29a15.87,15.87,0,0,0-1.77.83,18.64,18.64,0,0,0-5.27,3.82,32.68,32.68,0,0,0-3.87,4.85,39.78,39.78,0,0,0-3,5.85,14.12,14.12,0,0,0-.61,2,32.46,32.46,0,0,0-.92,4.72,41.16,41.16,0,0,0,.28,7.9l0,.33a31,31,0,0,0,3.61,12.21,26.36,26.36,0,0,0,7.89,9.3,24,24,0,0,0,11.28,4,10.29,10.29,0,0,0,1.79,1.22l0,.23q-.16,4.8-.4,9.63t-.41,9.54l-.1,2.44,0,.85c-.1,2.36-.2,4.74-.25,7.09-.05,3.63-.08,7.28,0,10.91,0,1.51.06,3,.11,4.56,0,.73.08,1.48.15,2.21a16.76,16.76,0,0,0,.25,1.73l.17.39.16.36v2.77c0,1.53,0,3,0,4.57,0,1.72,0,3.39-.07,5l0,.61v.27q-.17,6.87-.35,13.73c0,1.86-.07,3.72-.1,5.58l0,1.82-.09,4.93c-.06,3.65-.29,7.47-.69,11.35l0,.41a44.25,44.25,0,0,0-.41,5.35,3.15,3.15,0,0,0,2.15,2.91l-.07.76c-.14,3-.27,6-.31,9s-.07,5.84-.11,8.75-.07,6-.11,8.93c0,1.1,0,2.14,0,3.19l.11,5.71c.13,7.65.26,15.29.43,22.93l.12,5.15c.06,2.58.12,5,.15,7.43l0,2.51c.07,3.8.13,7.55.25,11.29.09,3,.15,5.9.21,8.85l.1,4.53c.09,4.41.15,8.81.14,13.21,0,.67,0,1.35,0,2a7,7,0,0,0,.46,2.84,4.28,4.28,0,0,0,.38.62c0,2.06-.07,4.15-.08,6.24,0,4.48-.06,9-.12,13.42s-.06,9.21,0,13.84c0,3.11.12,6.24.22,9.35l.11,4.31c.13,4.76.34,9.51.54,14.28l.06,1.74.08,2.09.14,3.18.13,3.18c.07,1.4.14,2.79.24,4.18,0,.29,0,.6.1.91a8.29,8.29,0,0,0-.38,1.95,23.21,23.21,0,0,0-.09,2.51v4.41c0,1.29,0,2.56.05,3.84l0,1,0,2.05c.07,3.88.18,7.78.32,11.66q.29,7.44.46,14.91.16,6.26.17,12.54c0,4.36,0,8.74-.09,13.11,0,2-.07,4-.09,6v3a7.69,7.69,0,0,0,.26,2.42,51.5,51.5,0,0,0-.9,7.92l-.08,1.1c-.14,2.31-.21,4.62-.27,6.94l0,1.6a3.1,3.1,0,0,0-.64,1.42,13.18,13.18,0,0,0-.28,2.55l0,1.06,0,.63c-.08,1.4-.16,2.72-.21,4s-.08,2.6-.1,3.9l0,1.56c0,1.69-.06,3.37-.08,5.06a20.13,20.13,0,0,0-1.17,2.81,1.45,1.45,0,0,0,.61,1.67,1.43,1.43,0,0,0,.55.21c-.07,3.21-.11,6.4-.14,9.61l0,2.37c0,1.39,0,2.78,0,4.16v2.09c0,2.09,0,4.17,0,6.26l-.08,7.12-.09,7,0,2.35,0,1.79,0,1.77c0,1.11,0,2.2,0,3.31,0,.43,0,.87,0,1.3v.46a9.33,9.33,0,0,0,.12,1.83,2.58,2.58,0,0,0,.35.91c.09,6.58,0,13.16,0,17.52v.74l0,.93,0,.7H1920a24.74,24.74,0,0,0-7.66,1.51,34.78,34.78,0,0,0-9.08,4.89,31.67,31.67,0,0,0-9.6,11.49,14.69,14.69,0,0,0-.64,1.4,20.45,20.45,0,0,0-2.53,4.13,17.37,17.37,0,0,0-1.42,8.32,14.54,14.54,0,0,0,.59,2.83c.1.34.19.67.28,1a12.23,12.23,0,0,0,.56,1.64,18.76,18.76,0,0,0,0,5.5,22.1,22.1,0,0,0,3.35,8.18,23.87,23.87,0,0,0,4.18,4.64l.37.35a26.37,26.37,0,0,0,5.73,3.87c1.29.79,2.67,1.5,4,2.19a31.67,31.67,0,0,0,6.24,2.19l.89.25a17.83,17.83,0,0,0,4.68.5h1.37a21,21,0,0,0,6.12-1.12,29.36,29.36,0,0,0,5.36-2.56,20.88,20.88,0,0,0,3.84-2.65,28.22,28.22,0,0,0,5.19-5.67,58.62,58.62,0,0,0,4.22-7.12,35.69,35.69,0,0,0,1.69-4.66,55.26,55.26,0,0,0,1.83-6.7,26.64,26.64,0,0,0-.76-11.91,23.38,23.38,0,0,0-2.35-5.27l-.45-.82a21.48,21.48,0,0,0-3.73-4.91,17.15,17.15,0,0,0-1.66-2.34,25.94,25.94,0,0,0-3.1-3.11,27.8,27.8,0,0,0-3.87-2.54l-.46-.26a24.09,24.09,0,0,0-4.22-2,23.27,23.27,0,0,0-4.6-1.18l0-1.13c.09-7.18,0-14.44-.18-21.22a1.85,1.85,0,0,0-.1-.7v-1.54c0-1.21,0-2.43,0-3.64l0-3,0-3c0-4.62,0-9.22,0-13.85,0-2.63,0-5.1-.07-7.58,0-1.85,0-3.63,0-5.42,0-5,0-9.67,0-14.3a3,3,0,0,0,.83-1.45,12.67,12.67,0,0,0,.4-2.27c.67-1.16,1.25-2.16,1.84-3.16a1.05,1.05,0,0,0,.84-.52c1.43-2.43,2.82-4.93,4.18-7.41,0-1.66.08-3.32.14-5,0-.36,0-.72,0-1.08l-3,5.8-.5,1a.51.51,0,0,0-.27-.06,1.72,1.72,0,0,0-1.47.81c-.58.91-1.13,1.81-1.68,2.73l0-.36,0-.48v-1.08c.06-1.74.12-3.51.17-5.27l.12-3.56.05-1.31c.1-2.85.21-5.71.41-8.56.11-1.56.27-3.1.44-4.65.07-.65.19-1.28.31-1.92l.07-.36.07-.29.08-.38a2.47,2.47,0,0,0,.14-.94,2,2,0,0,0-.25-.82,22.4,22.4,0,0,1-.07-2.59V1668l0-1.84,0-3.36,0-3.31c0-4.32.06-8.65,0-13,0-3.43-.1-6.85-.18-10.27l0-1.29,0-2.08c0-1.64-.1-3.29-.17-4.93l-.07-1.71,0-1.46c-.06-1.48-.11-3-.15-4.43l-.08-2.58c-.08-2.63-.17-5.19-.21-7.78l-.06-3.12-.06-3.11c0-1,0-2,0-3.08v-2.1l0-.28a2.23,2.23,0,0,0,.88-1,2.59,2.59,0,0,0,.08-2,6.8,6.8,0,0,0-.27-1.1c-.13-1.06-.18-2.14-.23-3.21l0-.8c-.11-2.31-.21-4.62-.32-6.94q-.13-3.19-.28-6.39c-.12-2.3-.22-4.47-.31-6.65-.13-3.06-.21-6.15-.3-9.21l-.09-3.47c-.14-4.51-.21-9.19-.2-13.94s0-9.28.09-13.91c0-3.28.06-6.46.08-9.64,0-.72,0-1.42,0-2.14a1.3,1.3,0,0,0,.3-.52,7.46,7.46,0,0,0,.35-1.36c.1-.66.15-1.34.2-2,.07-.84.13-1.6.15-2.37,0-.58,0-1.17,0-1.76a4.24,4.24,0,0,0-.57-2.09c0-1.44,0-2.93,0-4.4,0-1.25-.06-2.51-.1-3.76l-.07-2.51q-.07-3.62-.2-7.23c0-1.16-.07-2.26-.11-3.35l-.07-1.7,0-1c-.07-2-.15-4.09-.19-6.14v-.28l-.11-4.6-.23-9.94c-.19-6.85-.32-13.73-.45-20.59l-.06-3-.06-3.43-.13-6.18v-.49c0-.88,0-1.76,0-2.65v-.44l0-1.36.1-8.37.09-8.2c0-.29,0-.4,0-.52,0-1.48.11-3,.17-4.46l.1-2.24a2.8,2.8,0,0,0-.45-1.91,2.49,2.49,0,0,0-.78-.7,2.69,2.69,0,0,0,.27-1.13l.07-1.5c0-.63.07-1.26.09-1.91,0-1,0-1.93.07-2.84l.14-3.39.15-3.39c.15-3.61.2-7.24.24-10.85l.06-3.8c0-3,.12-6,.21-9l.09-3.56.06-2.4.06-2.41,0-.9c0-.61,0-1.24,0-1.85l0-3.58,0-3.57v-2a9.23,9.23,0,0,0-.14-1.41l0-.37a3.54,3.54,0,0,0-.43-.9c-.18-1.72-.24-3.47-.28-5.55-.06-2.44-.08-4.87-.09-7.31,0-4.21.12-8.52.26-12.32l.08-2.13.17-4.73.08-2c.07-2.08.16-4.16.22-6.23l.14-5.24.36,0a36.77,36.77,0,0,0,4.48-.28,15.16,15.16,0,0,0,5.49-2.15,49.09,49.09,0,0,0,5.38-3.66,32.08,32.08,0,0,0,6.76-7.55,33.08,33.08,0,0,0,4.53-10.25,25.52,25.52,0,0,0,1-7.46l0-.81a28.57,28.57,0,0,0-.38-4.07,21.61,21.61,0,0,0-1-3.44l-.42-1.14a23.31,23.31,0,0,0-4.49-7.06,18.13,18.13,0,0,0-1.64-1.64l-.39-.37a37.31,37.31,0,0,0-13.84-8.68,22.91,22.91,0,0,0-5.57-1.47c.24-7,.46-15.29.51-23.44,0-3.16,0-6.14,0-9.11a2.36,2.36,0,0,0,.17-.54,23.71,23.71,0,0,0,.21-4.12v-3.08l0-2.24,0-2.25v-.52l0-2.33c0-3.57.08-7.15.11-10.72l0-3.93q.12-14.57.13-29.13c0-3.14-.06-6.29-.12-9.44l-.07-4-.09-4.17a3.26,3.26,0,0,0,0-.33,16.24,16.24,0,0,0,.28-2.77l.1-1.71.08-1.5c.06-1.28.06-2.56.06-3.82v-1.39c0-1.23,0-2.44-.08-3.65l0-1.81c0-1.35-.1-2.71-.17-4.07l0-.85q-.13-2.91-.24-5.82l-.15-4-.08-1.81c0-1.22-.1-2.43-.16-3.65,0-.78-.08-1.57-.14-2.35l-.12-1.37a9.74,9.74,0,0,0-.14-1.21l-.14-.6a4.7,4.7,0,0,0-.17-.45l-.07-7.47-.08-7.62-.07-7.15-.08-7.21a1.23,1.23,0,0,0,.47-.81,56.51,56.51,0,0,0,.5-8.62l0-2.09c0-2,0-4,0-5.94,0-5.21-.07-10.42-.11-15.63,0-4.4-.1-8.79-.23-13.18l-.07-2.33c-.13-3.92-.25-7.86-.3-11.79,0-3.38-.06-6.75,0-10.13a1.56,1.56,0,0,0-1.12-1.46c0-.46,0-.93-.06-1.4l-.24-2.68a6,6,0,0,0,1.53-.94,3.43,3.43,0,0,0,1.07-2.32,28.87,28.87,0,0,0,.15-3.4c0-1.42,0-2.84,0-4.25,0-2.44,0-4.9,0-7.35,0-1.13,0-2.24,0-3.36,0-1.33,0-2.69,0-4,0-2.64,0-5.3.06-7.94l0-4.82c0-3.53.08-7.07.17-10.6l.18-6.84.18-7a32.5,32.5,0,0,0,.1-4.18V906a7.44,7.44,0,0,0-.15-1.73,4.11,4.11,0,0,0-.15-.46c0-2.26.07-4.41.11-6.57.09-4.72.16-9.22.18-13.71s.07-8.8.12-13.2c.08-6.53.15-12.95.15-19.4a2.35,2.35,0,0,0-1.67-2.29,1.89,1.89,0,0,0-.6-.09,2.83,2.83,0,0,0-.5.05c0-1.71,0-3.43,0-5.14v-2.62q0-3.17.08-6.35.32-13.94.65-27.88a2.9,2.9,0,0,0,1.65-2.44,40.06,40.06,0,0,0,0-5.14l-.08-1.65-.16-3.3,0-.82,0-.81c-.12-2.81-.24-5.33-.51-7.84q-.16-7.27-.25-14.56-.11-8.19-.18-16.39l0-3.68c.25.76.56,1.51.88,2.24a65.79,65.79,0,0,0,3.85,7.57,70.12,70.12,0,0,0,4.8,7.13c0-1.42,0-2.84,0-4.26-.06-1.63-.11-3.26-.14-4.88q-1.39-2.31-2.63-4.74a68.8,68.8,0,0,1-4.94-14.16l-.08-.49-.09-.55a2.65,2.65,0,0,0-.9-1.75,1.67,1.67,0,0,0-.32-.24,26,26,0,0,0,.16-2.84c0-1.12.06-2.24.11-3.37l.06-1.44,0-.76c0-1,.09-2,.1-3.07l0-1.78,0-1.07c0-3.55.1-7.11,0-10.68a3,3,0,0,0-1.34-2.54c0-1.52,0-3.08,0-4.63q-.1-9.23-.26-18.42l-.15-10.09c.14-1,.23-2.12.27-3.2l.07-1.54.08-1.55.14-3.36.1-2.32c0-1.19.07-2.38.09-3.57l.05-2.05,0-1.6c0-1.13.06-2.16.08-3.21l0-1.78c0-1.19,0-2.38,0-3.57a28.35,28.35,0,0,0,10.79-3.25,48.18,48.18,0,0,0,5.05-3.37,15.37,15.37,0,0,0,2.19-2.15l.79-.87c.8-.88,1.58-1.75,2.31-2.66a43.94,43.94,0,0,0,5.13-8.82,23.76,23.76,0,0,0,2.13-10.31,54.9,54.9,0,0,0-.52-6.26,11.66,11.66,0,0,0-.6-2.32l-.16-.51a11.43,11.43,0,0,0-1.26-2.9,16,16,0,0,0-2.74-3.39,47.59,47.59,0,0,0-4.48-3.74l-.75-.51-.57-.45-.32-.24c-.91-.7-1.69-1.29-2.5-1.86a14.42,14.42,0,0,0-1.41-1.41,16.73,16.73,0,0,0-2.41-1.78,46.42,46.42,0,0,0-4.18-2.2,31.14,31.14,0,0,0-3-1.17,9.28,9.28,0,0,0-3-.54c0-4.54-.16-9.14-.31-13.73,0-1.79-.14-3.59-.23-5.38l0-1-.1-1.72-.08-1.76c-.07-1.57-.16-3.14-.28-4.72,0-.55-.11-1.1-.18-1.64,0-.26,0-.51,0-.76l-.07-4.89-.07-4.88c-.07-9-.28-17.91-.52-27.81l0-2,.07.37,2.55,6.29.78,1.91,0-3.45q-.09-7.45-.28-14.89l-.09-4.14c0-1.57,0-3.14,0-4.72v-3.23q0-6.74-.05-13.46v-.27c0-1.22,0-2.45,0-3.68v-.9l0-2c0-.11,0-.22,0-.32l0-2.35,0-2.35v-.55a23.4,23.4,0,0,0,.18-3.6c0-.47,0-.95-.07-1.42,0-2.54.07-5.08.06-7.6q.13-8.58.29-17.17c0-1.83.08-3.62.11-5.42l0-1.76v-.39c.14-6.55.28-13.33.14-20a5.5,5.5,0,0,0-.82-2.75l.07-2.35.08-2.38.07-3,.09-3,.06-2.27.07-2.28c0-1,.06-2.08.1-3.12,0-1.35,0-2.55,0-3.77h.42l1-.15c4.35-.65,10.32-2.38,14-7,1.74-2.18,3.31-4.6,4.69-6.74l.23-.35a36.7,36.7,0,0,0,4.32-11.17,29.27,29.27,0,0,0,.8-4.74,18.27,18.27,0,0,0-.45-5.06,42.86,42.86,0,0,0-1.54-5.81c-1.77-5.14-5.55-9.86-11.25-14a32.89,32.89,0,0,0-5.87-3.36,44.52,44.52,0,0,0-4.33-1.71,17.09,17.09,0,0,0-3-.56,17.44,17.44,0,0,0-3.43-.35h-.72l-.28,0-.85,0a30.37,30.37,0,0,0-7.17,1Z" transform="translate(-309.02 -183.27)"/><path d="M1917.36,369.7q.08,3,.12,6.05a2.23,2.23,0,0,0-.8-.76,2.69,2.69,0,0,0-2.51-.12,2.66,2.66,0,0,0-1.4,2.15,11.75,11.75,0,0,0,0,2.22c0,.93.1,1.85.14,2.78.08,1.66.18,3.34.27,5,.2,3.41.38,6.84.59,10.26.41,6.42.58,12.87.8,19.31l.42,11.92c0,1.35,0,2.72,0,4.08l.06,7.36q0,4.64,0,9.25-.33,9.17-.64,18.35c-.22,6.58-.49,13.16-.64,19.75q-.16,6.46-.31,12.92c-.07,3-.24,6.06-.22,9.07,0,6.92,0,13.83.11,20.74.1,6.64.22,13.3.3,20,.17,14.12.2,28.27,1.21,42.36.12,1.64.24,3.3.39,4.94a29,29,0,0,0,.48,3.84A3.07,3.07,0,0,0,1917,603a43.56,43.56,0,0,0,.31,5.48,2.8,2.8,0,0,0,5.54-.44c0-.25,0-.49,0-.73a2.55,2.55,0,0,0,1.08.33,2.48,2.48,0,0,0,2.42-1.68,7,7,0,0,0,.36-1.45,3.41,3.41,0,0,0,.76.15,2.76,2.76,0,0,0,2-.71,3,3,0,0,0,.91-1.92.68.68,0,0,0,0-.14c.08-.43.16-.86.22-1.3a12.12,12.12,0,0,0,.08-2.17c0-1.27-.15-2.52-.25-3.77s-.17-2.33-.25-3.49a3.69,3.69,0,0,0,2.49-3.31,69,69,0,0,0-.9-7.58q-.43-3.24-.81-6.48c-.13-3-.2-6-.28-9.08l-.18-6.46c0-1.6,0-3.21,0-4.82,0-6.83-.06-13.66-.15-20.49-.15-13.13-.41-26.25-.47-39.36q0-12.19-.11-24.4c0-2.6.06-5.21.09-7.8q.09-7.14.16-14.26.14-10,.28-20.09c0-2.44.1-4.89.08-7.33q-.06-6.61-.13-13.23c0-2.34,0-4.68-.12-7-.11-3.63-.19-7.27-.47-10.89l.06.67c0-.33,0-.65-.08-1,0,.05,0,.09,0,.14,0-.19,0-.38,0-.57v-.17a7,7,0,0,0-.23-1.65,3.77,3.77,0,0,0-1.43-2.14.76.76,0,0,1,0-.15c-.12-2.85-.26-5.73-.6-8.57,0-.21,0-.42,0-.64a5.37,5.37,0,0,0-1-2.13,4,4,0,0,0-2.17-1.2c0-.38,0-.75,0-1.13a3.52,3.52,0,0,0-.87-2.44,3.47,3.47,0,0,0-2.34-1.1h-.14a3.39,3.39,0,0,0-3.39,3.21Zm13.08,231.85,0,.14a.68.68,0,0,1,0-.14Z" transform="translate(-309.02 -183.27)"/><path d="M1919.65,1278.76a4.67,4.67,0,0,0-4.22,5c.26,3.94.45,7.86.6,11.81.11,2.65.3,5.31.31,8q.06,9.4.14,18.82c.11,11.34.5,22.69,1.1,34,.58,11,1.11,22,1.38,32.94.15,5.79.3,11.57.59,17.35s.65,11.3.81,17c.17,5.84.32,11.67.54,17.51.23,5.55.49,11.1.69,16.64.4,12,1,23.9,1.36,35.85.17,5.47.19,10.94.26,16.43.06,5.79.26,11.58.38,17.37.21,11.33.08,22.67.14,34,0,5.58,0,11.19-.11,16.77s-.32,11-.41,16.56c-.2,11.7-.56,23.4-.78,35.11-.09,5.44,0,10.89,0,16.35s-.15,11.14-.25,16.7c-.1,5.72-.13,11.45-.14,17.17s.13,11.33.07,17c-.06,5.83-.26,11.66-.45,17.49-.18,5.54-.28,11.09-.4,16.63-.12,5.9-.23,11.78-.37,17.67-.14,5.2-.36,10.39-.47,15.59-.15,7.12-.44,14.24-.59,21.36s-.1,14.18-.13,21.27a4,4,0,0,0,3.31,3.61c2,.36,4.44-1.07,4.63-3.25.44-4.82.59-9.65.75-14.49.1-3.63.25-7.27.42-10.89.49-6.65.81-13.3,1.12-19.93l-.06,1.2c.07-1.51.14-3,.2-4.53l0,.88c0-1.32.11-2.64.17-4,0-.13,0-.27,0-.41.6-11,1-22.09,1.35-33.14,0-.24,0-.48,0-.72,0-6.26.12-12.51.35-18.76q.11-4.54.25-9.09c.15-4.75.34-9.5.72-14.23.06-4.38.11-8.76.23-13.13,0-1.29.07-2.6.11-3.9q-.32-4.39-.6-8.79c-.23-3.19-.15-6.4-.2-9.6-.06-3.84,0-7.69.12-11.53,0-.15,0-.31,0-.45,0-1-.11-2-.16-3a4,4,0,0,1-.75-1.57,66.69,66.69,0,0,1-1.14-7c-.17-2.2-.3-4.39-.35-6.6-.08-4,0-8.1,0-12.15,0-2.22,0-4.43.07-6.66l.27-22.45c0-4.43.3-8.84.46-13.25l.72-19c0-.88.08-1.75.12-2.63q-.1-13.79.07-27.57c.05-3.68.11-7.36.16-11,0-2.83,0-5.67.14-8.5.23-4.63.45-9.27.7-13.91-.56-10.66-1-21.33-1.53-32-.56-11.72-.94-23.44-1.64-35.14-.66-11.14-.84-22.31-1.41-33.45-.59-11.77-1.29-23.54-1.83-35.31s-.69-23.31-.81-35c-.08-7.6-.46-15.19-1-22.77a4.68,4.68,0,0,0-4.63-4.24l-.35,0Z" transform="translate(-309.02 -183.27)"/><path d="M1924.5,1282.16a5,5,0,0,0-2.17,3.4c-1.22,23.91-1.17,47.85-1.43,71.79-.06,5.8,0,11.6,0,17.4,0,5.41-.18,10.81-.18,16.22,0,11.13.29,22.25.14,33.37-.16,11.54-.17,23.09-.55,34.62q-.58,17.82-.8,35.64c-.12,11.7-.14,23.4-.25,35.1-.12,10.87.24,21.73.33,32.6,0,5.81.13,11.62,0,17.43q-.19,9.15-.41,18.34c-.11,5.39-.33,10.78-.5,16.17s-.23,10.87-.41,16.29q-.32,9.26-.75,18.5c0-.12,0-.23,0-.34-.61,13.25-1.09,26.49-1.66,39.75-.3,5.88-.54,11.75-.7,17.65-.13,5.21.08,10.45.16,15.67.2,11.3.24,22.61-.12,33.92-.25,8.16-.58,16.32-.91,24.48-.16,3.82-.2,7.66-.21,11.49,0,4.13-.25,8.48,1,12.46a4.4,4.4,0,0,0,7.53,1.32,4.57,4.57,0,0,0,1-2.93c.22-3.73.21-7.47.29-11.21s.23-7.38.39-11.07c.66-11.42,1.25-22.86,1.7-34.3.43-11,.27-22.06.33-33.1,0-5.13.17-10.26.35-15.4.74-13.19,1.24-26.39,1.82-39.59l0,.61c.56-11.69,1.16-23.38,1.47-35.09.08-3.31.19-6.62.3-9.93-.07-3.94,0-7.88,0-11.82,0-2.21,0-4.43.07-6.66l.27-22.45c0-4.43.3-8.84.46-13.25.14-3.58.27-7.17.41-10.75q-.12-14.61,0-29.2c.12-11.32.11-22.65.2-34,.08-10.91.63-21.81.74-32.71.12-11.63.23-23.26.19-34.88,0-2.71,0-5.42,0-8.14-.08-2.93-.22-5.86-.24-8.8-.07-6-.12-12-.08-18.07.09-11.62-.12-23.24-.15-34.87,0-11.19-.1-22.39,0-33.58.1-8.39.28-16.79.63-25.17,0-.57,0-1.15.08-1.72a5.73,5.73,0,0,0-.88-3.93,5.24,5.24,0,0,0-3.4-2.16,4.58,4.58,0,0,0-.9-.09,5.29,5.29,0,0,0-3,1Z" transform="translate(-309.02 -183.27)"/><path d="M1928.42,1657.83c0-.28,0-.56,0-.85,0,.29,0,.56,0,.85Z" transform="translate(-309.02 -183.27)"/><path d="M1916.27,1275.84a4.37,4.37,0,0,0-4,4.69c.72,6.45,1.49,13,1.76,19.44.28,6.82.49,13.62.66,20.45q.16,8.1.41,16.2c.17,6,.46,12.06.6,18.1.28,11.94.3,23.88.25,35.83,0,5.24,0,10.47-.07,15.71-.06,5.88-.24,11.75-.45,17.62s-.73,11.58-.87,17.36l-.45,19.76c-.14,6.32-.23,12.64-.34,19-.1,5.68-.32,11.34-.33,17,0,12.42.24,24.84.16,37.27-.07,12.23-.14,24.47-.13,36.7q0,17.88.23,35.75c.12,12.24-.12,24.48,0,36.73q.06,9.4.06,18.82c0,5.94-.19,11.87-.33,17.82-.31,12.67-.85,25.33-1,38-.14,11.34,0,22.71-.24,34.06s-.62,22.89-1.12,34.33c-.15,2.52-.32,5-.47,7.58-.2,3.24-.49,6.49-.4,9.75a5.41,5.41,0,0,0,9.57,3,5.82,5.82,0,0,0,1.22-3.89c.77-24,1.89-48,2.58-71.93.27-9.5.47-19,.88-28.49.39-7.93.82-15.86,1.16-23.79.32-6.53.59-13.06.72-19.6.11-5.72.15-11.45.19-17.16.11-12.27.46-24.53.43-36.8s.08-24.25.14-36.38c.07-12.62.15-25.23.17-37.83,0-12.37-.39-24.72-.55-37.09-.08-5.52.08-11,.08-16.56,0-6.11-.06-12.23-.07-18.34q0-9.77,0-19.53c0-5.58.2-11.15.24-16.73l.09-10.25c0-3.3-.13-6.61-.19-9.91-.12-6-.32-12-.45-18-.27-11.79-.59-23.58-1.32-35.35-.76-12.55-1.24-25.12-1.67-37.68-.07-2-.17-3.91-.27-5.86-.13-2.57-.18-5.15-.4-7.7-.51-6.06-1.1-12.09-1.78-18.13a4.42,4.42,0,0,0-4.32-4l-.37,0Z" transform="translate(-309.02 -183.27)"/><path d="M1916.61,633.3c-1,15.09-2,30.19-2.48,45.29v.15a21.51,21.51,0,0,1,.95,4.18c1.18,7.5,1.76,15.12,2.31,22.67.45,6.15.68,12.31.56,18.47-.24,12.68-1.28,25.34-1.51,38-.12,6.7-.2,13.39-.38,20.09q-.11,3.95-.33,7.9c.21,2.7.41,5.4.62,8.1.25,3.38.28,6.78.42,10.17s.11,6.54.15,9.81c.17,12.42.11,24.85.73,37.25.33,6.46.65,12.91.78,19.37.13,6.18.21,12.38,0,18.55-.12,4-.25,7.9-.37,11.85,0,.22,0,.43,0,.64.35,2.59.65,5.18.85,7.8.25,3.32.42,6.61.56,9.93.23,5.62.64,11.25.59,16.86s0,11.27-.22,16.88c-.12,2.85-.25,5.7-.37,8.55.11,1.77.17,3.55.17,5.33,0,1.36,0,2.71,0,4.07,0,2.75,0,5.51,0,8.28,0,5.88.08,11.77.07,17.66q0,18.42-.33,36.83c-.22,12.67,0,25.38.37,38,.2,6,.41,12,.47,18.09,0,3.5.08,7,.15,10.5,0,3.08.21,6.16.19,9.24,0,6.27,0,12.54-.3,18.8-.27,6.43-.25,12.86-.33,19.3-.08,6-.43,12-.8,18-.39,6.57-.58,13.15-1.13,19.7l.12-1.4a40.23,40.23,0,0,1-.34,4.1c0,.24,0,.49-.07.72a6.15,6.15,0,0,1-.11,1.35c0,.08,0,.16,0,.25,0-.09,0-.17,0-.25s0,.06,0,.09c-.2,2.09-.46,4.18-.77,6.25q.12,3.45.11,6.91c0,6.55-.22,13.09-.42,19.64-.19,3.89-.49,7.77-.6,11.65-.06,1.94-.08,3.88-.14,5.82a37.42,37.42,0,0,0,.28,6.52,5.7,5.7,0,0,0,4.58,5,5.59,5.59,0,0,0,6.42-4.52c.42-3.12.63-6.3.83-9.44.19-2.93.53-5.84.79-8.78.64-7,.92-14.1,1.18-21.18.22-6.46.2-12.91,0-19.38s-.29-13-.27-19.42c0-4.41.11-8.82.23-13.24.29-6.5.59-13,.75-19.52.19-7.23.46-14.46.57-21.7.2-12.94.34-25.88.49-38.82.16-13.42,0-26.86-.34-40.28-.17-6.25-.56-12.5-.66-18.76s-.26-12.71-.48-19.07c-.23-6.86-.46-13.71-.56-20.56-.09-6.19-.15-12.37-.46-18.55-.33-6.54-.5-13.06-.45-19.61s.2-12.82,0-19.23-.5-12.84-.9-19.26-.47-12.87-.53-19.31c-.13-13.06-.61-26.1-1-39.15-.19-6.36-.24-12.72-.24-19.07,0-3.17.14-6.33.12-9.48,0-3.36,0-6.71,0-10.06q-.11-9.66-.31-19.31c-.12-6.51-.19-13-.46-19.51-.26-6.69-.76-13.36-1.27-20s-.82-13.21-.91-19.85c-.16-13-.11-26-.15-39,0-7.51,0-15,.23-22.51.51-11,1.07-22,1.77-32.93a4.54,4.54,0,0,0-.72-3.2,4.27,4.27,0,0,0-2.77-1.76,4.51,4.51,0,0,0-.65-.05c-2,0-4.17,1.43-4.31,3.53Zm1.54,554.83s0,.08,0,.12,0-.08,0-.12Z" transform="translate(-309.02 -183.27)"/><path d="M1924.13,627.9a3.34,3.34,0,0,0-3,3.56c.41,12.58.4,25.15.3,37.74-.09,10.95-.22,21.88-.66,32.82v-.21c-.32,6.81-.7,13.61-.9,20.42s-.29,13.75-.36,20.64c-.08,6.6-.34,13.2-.3,19.81s-.24,13.16-.33,19.75c-.19,13.68-.55,27.36-.81,41-.14,6.69-.13,13.38-.19,20.08,0,4.5-.13,9-.13,13.52.3,5.91.57,11.8.69,17.71.13,5.75.21,11.51.06,17.26q.19,5.82.4,11.63.36,9.93.87,19.85c.36,6.93.5,13.87.75,20.81.23,6.52.18,13.06.18,19.59s0,12.78,0,19.16c0,6.65,0,13.28.16,19.92.15,6.92.27,13.83.28,20.74,0,6.67.27,13.33.51,20s.39,13.27.42,19.92c0,6.43-.22,12.84-.2,19.25,0,6.92.1,13.83.05,20.75s-.07,14.13-.06,21.19c0,6.44.23,12.86.34,19.3.12,6.87.21,13.73.23,20.6,0,3.29-.19,6.59-.19,9.88s0,6.3,0,9.46c-.18,9.51-.85,19-.92,28.54,0,4.52,0,9.06,0,13.58,0,4.37-.19,8.72-.35,13.07-.15,3.16-.27,6.31-.2,9.46a35.31,35.31,0,0,0,1.4,10.27,5.4,5.4,0,0,0,10.41-.89c.37-4.16.18-8.35.31-12.54.33-6.17.83-12.32,1-18.51s.29-12.27.43-18.41c.34-6.41.75-12.8,1-19.2.35-7,.4-14,.64-21,.22-6.54.33-13,.34-19.58,0-6.77-.14-13.54-.14-20.32,0-13.65.27-27.31.31-41,0-3.61,0-7.2.09-10.79,0-3.08.18-6.16.18-9.25,0-6.75-.06-13.51-.27-20.27s-.51-13.23-.75-19.85c-.1-3.15,0-6.3-.08-9.45-.06-3.69-.12-7.4-.2-11.1-.14-6.54-.27-13.09-.3-19.64s.05-13,0-19.45-.09-13-.26-19.44q-.24-10.11-.75-20.22c-.34-6.81-.87-13.59-1.21-20.39-.32-6.42-.56-12.85-.82-19.28-.29-6.88-.49-13.76-.8-20.66-.15-3.37-.36-6.73-.47-10.11-.11-3.08-.15-6.18-.2-9.27-.24-13.66-.19-27.34-.26-41,0-6.84-.11-13.7-.13-20.55,0-6.61-.07-13.21-.27-19.83s-.42-13.11-.46-19.68c0-6.76-.19-13.51-.35-20.27s-.12-13.76-.14-20.64c0-3.09-.12-6.19-.18-9.28-.06-3.32-.09-6.63-.15-9.95-.3-14.22-.39-28.44-.57-42.66-.06-4.54-.21-9.08-.36-13.62a3.32,3.32,0,0,0-3.3-3Zm-3.38,74.27,0,.69,0-.69Zm.19,536c0,.3,0,.61,0,.91,0-.3,0-.61,0-.91Z" transform="translate(-309.02 -183.27)"/><path d="M1925.6,629.12a3,3,0,0,0-2.71,3.2c.45,3.66.9,7.34,1.34,11,.16,1.38.24,2.78.35,4.17.13,1.56.3,3.13.38,4.7.16,3.51.34,7,.38,10.55,0,3.73,0,7.44,0,11.17-.2,13.38-.77,26.75-.82,40.12,0,6.51.12,13,.13,19.5,0,6.81,0,13.63,0,20.45,0,13.31-.46,26.61-.82,39.9q-.25,10.08-.25,20.13c0,6.53.12,13,.16,19.57s-.1,13.08-.16,19.63.15,13.08.24,19.62c0,3.3.21,6.6.21,9.9s-.11,6.87-.15,10.3c-.08,6.6,0,13.2-.13,19.8-.12,6.34,0,12.68.1,19,0,3-.12,6.1-.18,9.15-.06,3.3-.12,6.59-.11,9.89,0,6.9,0,13.8,0,20.7,0,6.67.14,13.33.15,20s-.07,13.46,0,20.19c.1,6.46.45,12.9.52,19.35.16,13.57-.12,27.12-.11,40.68,0,6.77.3,13.53.56,20.29.13,3.65.3,7.29.47,11,.15,3.44.18,6.89.25,10.33.14,6.1.1,12.22.16,18.31,0,3.28.08,6.56.12,9.84s-.05,6.45-.07,9.68c-.06,6.63-.32,13.26-.53,19.88q-.3,9.35-.73,18.68v-.16c-.25,5.5-.52,11-.77,16.5-.26,5.68-.73,11.35-1.12,17-.78,11.48-1.36,23-1.64,34.48a3.75,3.75,0,0,0,3.11,3.41,3.82,3.82,0,0,0,4.4-3.07c.82-6.26,1.15-12.6,1.49-18.9.35-6.73.8-13.46,1.25-20.17q1.35-20.49,2.08-41c.48-13.76,1-27.53.87-41.31q-.11-10.72-.09-21.45c0-6.68-.23-13.36-.49-20s-.42-13.58-.49-20.37.17-13.35.31-20,.29-13,.29-19.57c0-6.75-.18-13.48-.26-20.23s0-13.61.08-20.42,0-13.47.09-20.2.16-13.42.26-20.13c0-3.17,0-6.35.09-9.52s.23-6.38.32-9.57c.17-6.42,0-12.83.12-19.25.06-3.44.16-6.9.23-10.34.08-3.28,0-6.56.08-9.84s.08-6.67.16-10,0-6.54-.07-9.81c-.14-6.35-.25-12.7-.25-19,0-6.71.17-13.42.17-20.13,0-3.47,0-6.94-.11-10.42-.07-3.07,0-6.14-.1-9.22-.13-6.71-.16-13.41-.14-20.13s.2-13.69.23-20.53c0-6.39.08-12.78-.07-19.17s-.48-13-.68-19.49c-.24-7-.54-14-.8-21-.22-6.42-.33-12.85-.44-19.28-.09-5.38-.23-10.76-.29-16.16s-.08-10.74-.31-16.1-.53-10.95-1.06-16.4c-.29-2.83-.56-5.64-.93-8.46s-.74-5.65-1.07-8.47a3,3,0,0,0-3-2.72Z" transform="translate(-309.02 -183.27)"/><path d="M1912.88,633a2.83,2.83,0,0,0-2.58,3c.69,4.39,1.44,8.78,2,13.18.51,3.65,1,7.31,1.52,10.95.57,4.15,1.15,8.28,1.73,12.43.24,1.78.53,3.56.73,5.35.78,6.85,1.58,13.7,2.35,20.55.6,5.29,1.1,10.59,1.63,15.88.34,3.46.59,6.92.89,10.38q.57,6.57,1.12,13.15a2.53,2.53,0,1,0,5-.42c-.37-6.49-.85-13-1.33-19.45-.42-5.87-1-11.72-1.53-17.58-.21-2.38-.52-4.75-.78-7.13q-.69-6.21-1.37-12.42c-.52-4.63-1.19-9.25-1.83-13.88l-2.19-15.86c-.72-5.21-1.56-10.4-2.39-15.6a3,3,0,0,0-1-1.95,2.85,2.85,0,0,0-1.8-.64Z" transform="translate(-309.02 -183.27)"/><path d="M1916.25,630.18a3.49,3.49,0,0,0-3.16,3.75q1.17,12.9,2.09,25.84c.49,6.88.76,13.77,1.22,20.65q.8,11.87,1.33,23.73c.32,6.9.43,13.81.59,20.72.08,3.52.15,7,.26,10.57.13,3.84.37,7.67.56,11.51a3.07,3.07,0,0,0,3.3,2.79,3.11,3.11,0,0,0,2.11-1.1,3.34,3.34,0,0,0,.69-2.2c.13-4.08.27-8.17.34-12.25.06-3.64,0-7.27,0-10.9-.06-7.17-.31-14.35-.69-21.5q-.61-11.6-1.46-23.18c-.22-3.2-.38-6.42-.58-9.63q-.37-5.88-.81-11.76-.88-12-2-23.87a3.51,3.51,0,0,0-3.47-3.18Z" transform="translate(-309.02 -183.27)"/><text x="-309.02" y="-183.27"/><path d="M1924.15,728.47a2.63,2.63,0,0,0-1.58,3.33c1.56,4.51,3.14,9,4.54,13.59.6,2,1.2,4,1.93,5.94a59.45,59.45,0,0,0,3,6.72c.86,1.64,1.73,3.26,2.61,4.88v-.3c-.08-1.91-.13-3.82-.16-5.73,0-2.79-.09-5.58-.14-8.37-.25-.53-.49-1.06-.72-1.6-.7-1.63-1.27-3.35-1.9-5-1.47-3.93-2.86-7.9-4.24-11.86a2.62,2.62,0,0,0-2.48-1.72,2.82,2.82,0,0,0-.86.14Z" transform="translate(-309.02 -183.27)"/><path d="M1921,743.64a4.11,4.11,0,0,0-1,5.64c3.07,5.08,6,10.26,9,15.37,1.4,2.36,2.85,4.69,4.32,7l1.53,2.46c-.06-1.37-.11-2.74-.16-4.11-.09-2.45,0-4.92,0-7.38q-.09-2.46-.15-4.92c-2.72-4.3-5.27-8.73-7.92-13.07a3.75,3.75,0,0,0-3.28-1.71,4.07,4.07,0,0,0-2.35.71Z" transform="translate(-309.02 -183.27)"/><path d="M1922.17,749.72a5.28,5.28,0,0,0-1.28,7.28c4.58,6.47,9.22,12.89,14,19.22l-.24-6.21c-.09-2.45,0-4.92,0-7.38-.06-1.51-.11-3-.14-4.52-1.7-2.37-3.39-4.73-5.07-7.11a5.26,5.26,0,0,0-7.27-1.28Z" transform="translate(-309.02 -183.27)"/><path d="M1930.72,767.09a2.08,2.08,0,0,0-.46,1.48A2.2,2.2,0,0,0,1931,770l3.79,3.68c0-1.22-.1-2.44-.14-3.66,0-.74,0-1.48,0-2.23l-1-1a1.74,1.74,0,0,0-1.24-.47,2.2,2.2,0,0,0-1.66.74Z" transform="translate(-309.02 -183.27)"/><path d="M1930.63,1686c-1.38,2.26-2.76,4.49-4.05,6.8-1.42,2.56-2.73,5.17-3.93,7.81-1,2.25-2,4.52-2.94,6.81a42.09,42.09,0,0,0-1.88,6.6,5.94,5.94,0,0,0,.28,4.23,5.47,5.47,0,0,0,7.35,2.42,5.87,5.87,0,0,0,2.7-3.1c1-2.23,1.75-4.56,2.76-6.79.27-.6.54-1.19.82-1.79,0-2.1.12-4.21.2-6.31.07-3,.15-6.06.25-9.09.11-3.63.25-7.26.48-10.89-.69,1.09-1.36,2.2-2,3.3Z" transform="translate(-309.02 -183.27)"/><path d="M1931.25,1683.5a123.91,123.91,0,0,0-8.66,16.84,5.92,5.92,0,0,0,2.32,6.84,6.2,6.2,0,0,0,6.89-.16c0-1.45.09-2.9.14-4.34.07-3,.15-6.06.25-9.09.13-4.22.3-8.44.6-12.65-.52.85-1,1.7-1.54,2.56Z" transform="translate(-309.02 -183.27)"/><path d="M1928.75,1691.72a48.83,48.83,0,0,0-3.75,7,5.18,5.18,0,0,0,2,6,5.24,5.24,0,0,0,3.89.77,5.31,5.31,0,0,0,.93-.29l.09-2.55c.07-3,.14-6.06.25-9.09.08-2.71.18-5.41.32-8.12-1.26,2.08-2.48,4.18-3.76,6.25Z" transform="translate(-309.02 -183.27)"/><path d="M2252.26,949.07q-.5,10.2-1.16,20.38c-.43,6.66-.88,13.31-1.11,20-.08,2.47,0,5,0,7.44s0,4.85-.07,7.27c-.09,5-.11,10.07,0,15.1s.16,9.9.3,14.86c.07,2.73.06,5.49.22,8.22s.3,5.26.42,7.88c.08,3.08.12,6.17.07,9.26s-.18,6.43-.3,9.63-.11,6.29-.2,9.43-.12,6.39-.24,9.59c-.26,6.47-.48,13-.55,19.43,0,3.17-.21,6.34-.26,9.51s-.12,6.59-.16,9.87c-.2,13.24.28,26.47.3,39.71,0,6.77.08,13.54-.12,20.31s-.43,13.57-.57,20.36c-.06,3.17.05,6.37.08,9.53,0,3,0,5.89-.09,8.85-.05,3.13-.12,6.27-.1,9.4,0,3,.13,5.89.19,8.84.14,6.15.18,12.31.22,18.47,0,6.46.21,12.92.43,19.37.06,1.84.11,3.68.16,5.52,0,.1,0,.21,0,.32s0,.43,0,.66c0-.21,0-.41,0-.62.4,13.85.52,27.72.6,41.59,0,6.53.3,13.06.35,19.6.05,7,.17,14.07.22,21.1,0,5.41.14,10.8.23,16.19.09,5.11.16,10.23.31,15.35v-.08q.55,19.92-.09,39.86c-.09,3.06-.21,6.12-.23,9.19q0,5.73.05,11.44c.09,6.8.23,13.6.31,20.39.06,4.38.15,8.75.19,13.13,0,4.57,0,9.13,0,13.69,0,1.85,0,3.71,0,5.57,0-.05,0-.1.05-.15,2.24-6.78,4.34-13.59,6.41-20.42,0-5.37-.06-10.74-.09-16.11,0-7.16-.16-14.32-.21-21.48-.05-6.46.34-12.92.48-19.37q.2-10.12.3-20.23c0-3.24,0-6.46,0-9.7s-.19-6.54-.21-9.82c0-7-.13-13.89-.15-20.85s-.1-14-.11-20.93c0-3.26,0-6.51,0-9.76s-.13-6.55-.16-9.83q-.11-10.46-.05-20.9c0-3.19-.12-6.4-.16-9.59,0-3.63-.11-7.27-.17-10.89,0-2.15-.12-4.3-.19-6.44a.49.49,0,0,0,0-.12v0c-.12-3.82-.26-7.66-.4-11.49-.17-6.39-.31-12.78-.38-19.18-.06-6.92-.23-13.82-.41-20.72-.16-6.38.22-12.76.19-19.13,0-3.36-.1-6.73,0-10.08.08-3.86.19-7.71.33-11.57.24-6.61.5-13.22.51-19.83s.2-13,.23-19.54-.07-12.92,0-19.38.25-13.06.39-19.6c.06-3.26.24-6.52.28-9.78,0-3.07.1-6.13.17-9.19s.24-6.1.35-9.15c.13-3.22.17-6.45.26-9.66s.14-6.23.17-9.35.19-6.3.27-9.45c.19-6.55-.16-13.12-.52-19.66-.17-6.6-.32-13.21-.39-19.81,0-3-.09-6.09-.08-9.14,0-3.46,0-6.93.08-10.39,0-3.07,0-6.13,0-9.19-.05-3.55.07-7.09.24-10.63.07-1.41.15-2.82.22-4.23-.07-.51-.16-1-.23-1.52-.69-4.61-1.36-9.22-2.12-13.82-.9-5.31-1.6-10.7-2.69-16-.42-2-.81-4-1.22-6q-.15,4.24-.36,8.49Z" transform="translate(-309.02 -183.27)"/><path d="M2249.75,1287.64v0a2.44,2.44,0,0,1,0-.27v.31Z" transform="translate(-309.02 -183.27)"/><path d="M2257.45,1288.15v0h0v0Z" transform="translate(-309.02 -183.27)"/><path d="M2251.47,1401.81c0-.11,0-.23,0-.34,0,.11,0,.23,0,.34Z" transform="translate(-309.02 -183.27)"/><path d="M2251.48,1402.3c0-.16,0-.32,0-.49,0,.17,0,.33,0,.49Z" transform="translate(-309.02 -183.27)"/><path d="M1922.82,676.3a32.65,32.65,0,0,0-.46,4.72,23.9,23.9,0,0,0,.38,3.48c.44,2.51,1,5,1.62,7.47.87,4.11,1.74,8.26,2.87,12.3s2.38,8.29,3.61,12.42,2.65,8.08,4.18,12c.77,2,1.59,4,2.45,6,.94,2.18,2.06,4.28,3.19,6.37a174.19,174.19,0,0,0,13.17,20.78c1.21,1.63,2.66,3.13,4,4.65,1.63,1.84,3.27,3.65,5,5.41,1.33,1.38,2.8,2.6,4.26,3.84s3.09,2.6,4.69,3.82c3.49,2.67,7.1,5.17,10.77,7.61s7.4,4.89,11.19,7.19c7.23,4.37,14.58,8.55,22.21,12.2q5.86,2.8,11.8,5.45c3.76,1.69,7.61,3.15,11.45,4.63,8.08,3.11,16.26,5.91,24.38,8.9,4,1.48,8.06,2.93,12.07,4.44s7.78,3,11.66,4.5c4,1.58,8.11,3.11,12.08,4.86s7.85,3.53,11.76,5.31,7.66,3.49,11.44,5.34c4,2,8,4,12,6.05,3.75,1.89,7.44,3.89,11.17,5.83s7.6,3.86,11.38,5.84c1.56.83,3.15,1.62,4.71,2.45,1.77.92,3.49,1.94,5.24,2.89,3.31,1.79,6.53,3.72,9.8,5.58s6.49,3.77,9.71,5.66,6.67,4,10,6.12l-.67-.43c2.47,1.7,4.91,3.42,7.41,5.08a63.4,63.4,0,0,1,7.19,5.23c2.17,1.91,4.23,3.94,6.33,5.92s4.08,3.83,6,5.89c2.61,3,4.94,6.25,7.25,9.47a103.92,103.92,0,0,1,6.65,10.47c1.08,2.2,2.14,4.43,3,6.72,1,2.63,2,5.29,2.91,7.93a160.21,160.21,0,0,1,4.78,16.17c1.07,5.07,1.73,10.22,2.5,15.34.42,2.76.76,5.51,1,8.3.23,3.05.3,6.11.27,9.17a2.9,2.9,0,0,0,3.16,2.64,2.84,2.84,0,0,0,2-1,3.1,3.1,0,0,0,.7-2.15,119.52,119.52,0,0,0-.61-13.9c-.45-4.12-1-8.22-1.54-12.33-.3-2.26-.6-4.51-1-6.76s-1-4.51-1.62-6.74c-1.11-4.07-2.48-8.07-4-12-1.4-3.71-2.89-7.39-4.62-11a78.63,78.63,0,0,0-6.62-11.18c-2.4-3.35-4.83-6.68-7.4-9.9-1.32-1.64-2.7-3.2-4.15-4.71s-2.95-2.85-4.44-4.25-3-2.9-4.57-4.32a52.3,52.3,0,0,0-4.49-3.94c-3.38-2.49-6.82-4.9-10.24-7.34-3.63-2.61-7.4-5-11.2-7.33s-7.4-4.6-11.13-6.87-7.09-4.47-10.66-6.67-7.15-4.23-10.79-6.25c-7.41-4.08-14.74-8.3-22.16-12.35-7.72-4.21-15.58-8.15-23.48-12l-6.07-3c-1.74-.86-3.46-1.79-5.23-2.59-3.91-1.79-7.86-3.44-11.8-5.12-8-3.44-16.18-6.48-24.33-9.58-7.73-2.94-15.56-5.64-23.28-8.61-8-3.09-15.89-6.56-23.66-10.2-3.78-1.78-7.48-3.71-11.14-5.69s-7.39-4.06-11-6.26c-1.59-1-3.16-2-4.74-3-2.47-1.59-4.94-3.18-7.38-4.82-2.68-1.8-5.26-3.71-7.8-5.7a76.18,76.18,0,0,1-7-5.86c-2.3-2.32-4.47-4.75-6.66-7.17.27.28.52.58.79.86a102.07,102.07,0,0,1-8.62-11.64c-2.6-4-5-8.17-7.27-12.39-1.67-3.42-3-7-4.37-10.52-1.5-4-2.87-8.07-4.08-12.19s-2.53-8.14-3.59-12.26-2-8.32-3.06-12.49l-.78-3.34c-.24-1.14-.5-2.28-.69-3.44a27.6,27.6,0,0,1-.24-3.84,3.72,3.72,0,0,0-3.08-3.34,3.79,3.79,0,0,0-.58,0,3.74,3.74,0,0,0-3.71,3.08Zm8.07,6.56.12.51-.12-.51Zm291.93,229.33.39.42c-.13-.13-.26-.28-.39-.42Z" transform="translate(-309.02 -183.27)"/><path d="M1927.5,690.52a5.77,5.77,0,0,0-3.49,2.7,6.23,6.23,0,0,0-.56,4.38q.45,2.89.85,5.79c.38,3.54.74,7.11,1.45,10.61.59,2.87.81,5.81,1.63,8.63a37.2,37.2,0,0,0,2.07,5c.69,1.53,1.4,3.07,2.07,4.61,1.3,2.92,2.59,5.84,3.94,8.72s2.81,5.66,4.24,8.48a49.32,49.32,0,0,0,5.22,7.77c1.95,2.55,4.09,5,6.21,7.4s4.36,4.89,6.65,7.24,4.41,4.51,6.81,6.56c2.61,2.23,5.31,4.37,8,6.5,5.65,4.45,11.16,9.1,17.17,13.06,5.81,3.82,11.82,7.47,17.93,10.79a183.31,183.31,0,0,0,17.8,8.16c2.4,1,4.82,1.93,7.23,2.87,1.61.67,3.22,1.35,4.85,2l.84.35,1,.4-.85-.34c6.18,2.56,12.31,5.23,18.53,7.68s12.74,4.91,19.11,7.35c5.94,2.28,11.92,4.47,17.89,6.67s11.82,4.27,17.67,6.58c2.78,1.14,5.55,2.28,8.35,3.39q3.7,1.5,7.44,3c3.52,1.49,6.95,3.18,10.45,4.74s6.85,3,10.3,4.4c2.08.88,4.16,1.74,6.25,2.6l-.31-.12c4.74,2,9.43,4.14,14,6.48,4.84,2.49,9.61,5.11,14.39,7.71s9.57,5.39,14.26,8.25c4.15,2.53,8.1,5.37,12,8.3A112,112,0,0,1,2218,907a87.24,87.24,0,0,1,7.64,8.52,79.49,79.49,0,0,1,5.07,8.41c1.59,2.92,3.08,5.9,4.4,9,2,5,3.74,10.17,5.24,15.37a152.57,152.57,0,0,1,3.5,16.58c.38,3,.67,6,1,9q.51,5.05.89,10.13c.52,6.8,1.2,13.59,1.53,20.4.34,6.65.29,13.32.43,20,.16,6.93.52,13.86.48,20.79-.09,13.78.09,27.55.07,41.34,0,6.39,0,12.81-.33,19.2-.16,3.21-.08,6.45-.1,9.67q0,5.28,0,10.57c0,3.11.15,6.24,0,9.34-.2,3.43-.3,6.86-.4,10.31-.2,6.87-.53,13.74-.83,20.6-.61,13.6-1,27.24-.61,40.84.16,5.54.25,11.07.37,16.61.11,5.27.33,10.53.11,15.81-.13,3,0,6,.07,9,.09,2.57,0,5.15.08,7.71a161.86,161.86,0,0,0,1.35,17.47,5.19,5.19,0,0,0,1.38,3.3,4.74,4.74,0,0,0,8.1-3.39c.14-3.74.4-7.46.43-11.2,0-3.18.19-6.38.33-9.57s.19-6.43.21-9.66.42-6.62.42-9.95c0-6.41,0-12.81.07-19.21.06-6.61-.18-13.22.06-19.81.5-13.84.82-27.69,1.46-41.52.15-3.4.25-6.8.37-10.19s.44-6.62.5-9.92c.15-6.73.1-13.45.26-20.18q.51-19.68.25-39.33c-.08-6.87-.22-13.74-.29-20.6,0-3.46,0-6.93,0-10.4,0-3.32-.23-6.66-.41-10-.61-11.57-.54-23.19-1.51-34.74-.49-5.77-.89-11.56-1.25-17.34-.18-2.91-.43-5.81-.69-8.72-.15-1.59-.28-3.19-.44-4.79-.2-1.27-.4-2.54-.61-3.82-.88-5.15-1.57-10.38-2.6-15.52-.12-.53-.25-1.07-.39-1.6-1.25-5.06-2.95-10-4.63-14.89a95.58,95.58,0,0,0-4.35-10c-1.26-2.58-2.63-5.13-4-7.64a83.85,83.85,0,0,0-12.38-16.07,156.65,156.65,0,0,0-14.74-13,163,163,0,0,0-17.66-12.31c-5.9-3.61-11.88-7.1-17.91-10.52a192.54,192.54,0,0,0-17.46-8.64c-5.07-2.23-10.1-4.51-15.11-6.9-2.78-1.32-5.58-2.65-8.39-3.94s-5.88-2.39-8.82-3.55c-6.68-2.75-13.39-5.41-20.18-7.83-6.1-2.17-12.25-4.18-18.3-6.43q-10-3.72-20.12-7.25c-6.63-2.33-13.17-4.92-19.74-7.4-10.06-3.79-20.38-6.88-30.39-10.81a163.71,163.71,0,0,1-15-7.67,153,153,0,0,1-15.14-9.49l-2.82-2.15-6.11-4.7c-2.44-1.9-4.89-3.79-7.22-5.83s-4.42-4.11-6.55-6.26-4.29-4.54-6.35-6.88c-1.91-2.16-3.82-4.32-5.59-6.58a42.38,42.38,0,0,1-3.69-5.73c-1.35-2.63-2.77-5.23-4.09-7.88-1.43-2.88-2.79-5.79-4.2-8.68-1.12-2.32-2.33-4.6-3.39-6.94a41.35,41.35,0,0,1-1.44-6.13c-.44-2.35-1-4.64-1.42-7-.52-4-1.07-7.92-1.67-11.88a5.63,5.63,0,0,0-2.71-3.48,5.81,5.81,0,0,0-2.87-.76,6,6,0,0,0-1.5.2Zm-3.15,13.17.15,1c0-.35-.11-.7-.15-1Zm65.18,77.83,1,.75-1-.75Z" transform="translate(-309.02 -183.27)"/><path d="M2038.58,822.23l-.15-.06-.66-.27.81.33Z" transform="translate(-309.02 -183.27)"/><path d="M1934.36,719.79c-2.52,0-5.15,2.31-4.9,5,.21,2.12.4,4.25.63,6.36a27.59,27.59,0,0,0,1,5.5c.52,1.62,1.27,3.18,1.94,4.73,1.29,3,2.55,6.06,4,9a98.58,98.58,0,0,0,5,8.91,93.26,93.26,0,0,0,5.31,7.76l-.12-.16a71.51,71.51,0,0,0,5.7,7.06q2.43,2.53,5,5c3.8,3.65,7.7,7.24,11.76,10.6a140.25,140.25,0,0,0,13.76,10.12c2.34,1.51,4.69,3,7.15,4.35s5,2.7,7.58,4c1.77.93,3.64,1.71,5.48,2.51s3.62,1.62,5.43,2.42c3.75,1.64,7.62,3,11.45,4.54,2.45,1,4.9,2,7.38,3s5.31,1.76,8,2.57,5.43,1.74,8.15,2.63,5.37,1.62,8.07,2.42c5.08,1.52,10.15,3.06,15.21,4.66s10,3.37,15,4.9c4.74,1.44,9.44,3,14.19,4.41s9.71,2.93,14.54,4.52c4.62,1.53,9.19,3.21,13.82,4.73s9.32,3,13.88,4.9l-1.65-.67,4.65,1.87,2.73,1.09c4.7,2,9.25,4.29,13.87,6.49,5.22,2.47,10.29,5.2,15.37,8l7.4,4c2.46,1.34,5,2.55,7.48,3.83s5,2.49,7.37,4,4.93,3.14,7.35,4.79c.57.39,1.13.79,1.69,1.2a118.42,118.42,0,0,1,9,8.45c2.87,2.92,5.7,5.91,8.27,9.11.78,1,1.52,2.13,2.24,3.23,1.05,1.58,1.94,3.25,2.88,4.9,1.84,3.25,3.5,6.6,5.31,9.86,2,3.54,3.89,7.12,5.81,10.71,2.07,3.86,3.89,7.85,5.86,11.76a4.18,4.18,0,0,0,4.72,2c2.06-.56,3.75-3,2.94-5.14-2.26-6-4.53-12.1-7.31-17.93-1.29-2.72-2.64-5.42-4-8.12s-2.57-5.35-3.94-8a61.92,61.92,0,0,0-9.37-14.07,159.19,159.19,0,0,0-11.82-12.13c-4.26-4-9.21-7.17-14.12-10.29-4.71-3-9.89-5.22-14.68-8.09s-9.55-5.68-14.37-8.44-10-5.43-14.95-8.12-10.09-4.81-15.21-7.07c-5.34-2.36-10.91-4.16-16.44-6s-10.94-3.74-16.43-5.52c-5.26-1.68-10.63-3.06-15.9-4.7s-10.55-3-15.8-4.49c-5-1.46-10-2.94-15-4.34-5.38-1.5-10.82-2.83-16.19-4.36-2.74-.79-5.47-1.64-8.22-2.38s-5.39-1.38-8-2.28c-2.46-.84-4.87-1.81-7.3-2.73s-4.72-1.75-7.06-2.66q-9.3-4-18.23-8.67A139.12,139.12,0,0,1,1980,784c-4.25-3.39-8.24-7.06-12.32-10.64a88.81,88.81,0,0,1-11.5-11.77c.18.25.37.49.56.74l-1.61-2.1c-1.25-1.68-2.42-3.4-3.53-5.18-1.38-2.25-2.83-4.46-4.16-6.73a67.62,67.62,0,0,1-3.35-6.57c-1.1-2.38-2.2-4.75-3.23-7.15a16.88,16.88,0,0,1-.78-2.69c-.28-2.4-.52-4.81-.74-7.22a5.32,5.32,0,0,0-1.44-3.45,5,5,0,0,0-3.52-1.46Zm84.83,97.2.68.29-.68-.29Z" transform="translate(-309.02 -183.27)"/><path d="M2194.45,878.62a2.36,2.36,0,0,0,.86,3.16c1.67,1.09,3.29,2.24,4.92,3.38a76.29,76.29,0,0,1,9,7.76c1.3,1.39,2.47,3,3.65,4.45s2.51,3.27,3.79,4.9c1.45,1.94,2.85,3.91,4.2,5.93,1.47,2.19,2.76,4.48,4.1,6.76a133,133,0,0,1,7.24,14.42,193.67,193.67,0,0,1,6.35,19.26c1,3.58,2,7.2,3,10.79s1.92,7,2.8,10.54c1.17,4.73,2.44,9.44,3.52,14.18a3.82,3.82,0,0,0,6.36,1.7,3.65,3.65,0,0,0,1.13-2.74c-.45-3.89-1.1-7.75-1.89-11.58-.76-3.59-1.52-7.19-2.51-10.72-2-7.12-3.87-14.26-6.27-21.24a129.45,129.45,0,0,0-8.45-20.15c-1.65-3-3.42-6-5.28-8.85s-4-5.82-6.16-8.63c-1.76-2.29-3.74-4.38-5.7-6.5s-3.9-4.24-5.94-6.27a31.77,31.77,0,0,0-3.2-2.59c-1.32-1-2.66-2-4-3-2.73-2-5.47-4-8.31-5.83a2.08,2.08,0,0,0-1.1-.31,2.43,2.43,0,0,0-2.07,1.18Z" transform="translate(-309.02 -183.27)"/><path d="M2199.55,880.14a3.66,3.66,0,0,0,0,5.1c2.35,2.61,4.75,5.16,6.95,7.89,1.75,2.14,3.49,4.27,5.22,6.41l8.78,10.8c3.37,4.69,6.77,9.36,10,14.11,1.8,2.61,3.62,5.2,5.39,7.83.85,1.29,1.72,2.58,2.57,3.87l1.27,2a28.58,28.58,0,0,1,1.64,2.65,3,3,0,0,0,5.86-1,9.74,9.74,0,0,0-1.41-4.57c-.42-.86-.89-1.69-1.36-2.53-.92-1.62-1.95-3.17-2.94-4.75-.88-1.4-1.84-2.75-2.76-4.13s-1.64-2.48-2.51-3.7q-3.83-5.42-7.68-10.82c-.86-1.23-1.7-2.5-2.64-3.67l-2.16-2.64q-4.74-5.85-9.49-11.66l-3.24-4c-2-2.49-4.26-4.81-6.4-7.2a3.32,3.32,0,0,0-2.5-1,3.73,3.73,0,0,0-2.6,1Z" transform="translate(-309.02 -183.27)"/><path d="M2197,879.87a3.07,3.07,0,0,0,0,4.32c1.61,1.5,3.22,3,4.75,4.57l4.69,4.88c1.59,1.64,3.18,3.3,4.77,5,.54.56,1.1,1.1,1.61,1.71,2.71,3.19,5.41,6.41,8.11,9.62,1.77,2.09,3.54,4.16,5.2,6.33l5,6.54c3,4.14,6.09,8.23,8.77,12.59a3.06,3.06,0,1,0,5.31-3.06,102.35,102.35,0,0,0-5.89-8.86c-1.11-1.52-2.2-3.09-3.35-4.58s-2.31-3-3.46-4.48c-1.76-2.26-3.49-4.5-5.34-6.68-3-3.51-6-7-9-10.55-1.94-2.29-4.07-4.39-6.16-6.54l-5.55-5.74c-1.67-1.74-3.42-3.37-5.19-5a3.29,3.29,0,0,0-2.22-.88,2.94,2.94,0,0,0-2.1.87Z" transform="translate(-309.02 -183.27)"/><path d="M2195.76,877.78a2.19,2.19,0,0,0,0,3.07q5,5.05,9.8,10.34c3.32,3.69,6.4,7.58,9.43,11.52l-.22-.27q1.74,2.28,3.44,4.59c1,1.35,2,2.69,3,4.07l2,2.86c2.13,3.13,4.26,6.27,6.4,9.39,1.48,2.18,2.87,4.41,4.29,6.62s2.86,4.64,4.25,7c.65,1.11,1.27,2.22,1.82,3.37a2.53,2.53,0,0,0,4.64-.63,2.77,2.77,0,0,0-.27-1.89,54,54,0,0,0-4.8-8.29c-1.62-2.51-3.32-5-5-7.43-1.46-2.15-3-4.25-4.48-6.38-1.82-2.58-3.59-5.2-5.47-7.73-4-5.36-8-10.67-12.31-15.78s-8.77-9.75-13.41-14.39a2.18,2.18,0,0,0-1.53-.62,2.13,2.13,0,0,0-1.52.61Zm19,24.66-.14-.19a1.33,1.33,0,0,0,.14.19Z" transform="translate(-309.02 -183.27)"/><path d="M2200,880.42a4.51,4.51,0,0,0-2.12,2.8,4.32,4.32,0,0,0,.46,3.37c2.41,3.2,4.88,6.35,7.19,9.63l4.27,6,10.31,14.62c2.23,3.15,4.25,6.46,6.35,9.7,2.3,3.53,4.59,7.07,6.9,10.6q6.75,10.3,13.57,20.6a3.88,3.88,0,0,0,6.72-3.87c-1-2.13-2.25-4.17-3.47-6.2-1.13-1.86-2.23-3.73-3.38-5.57-2.35-3.75-4.67-7.52-7.05-11.24l-9.27-14.58c-1.75-2.72-3.59-5.37-5.45-8q-4.65-6.62-9.3-13.24c-3.09-4.4-6.32-8.69-9.56-13a5,5,0,0,0-2.8-2.12,4.56,4.56,0,0,0-1.11-.14,4.5,4.5,0,0,0-2.26.6Z" transform="translate(-309.02 -183.27)"/><path d="M2208.49,889.53a3.48,3.48,0,0,0-1.62,2.15,3.32,3.32,0,0,0,.35,2.59c1.29,1.82,2.63,3.6,3.91,5.44s2.5,3.79,3.74,5.69c2.57,4,5.06,8.06,7.42,12.19a221.51,221.51,0,0,1,11.56,24h0c.12.27.23.55.35.82-.06-.13-.12-.27-.17-.4a133.07,133.07,0,0,1,5.64,16.61c.62,2.35,1.12,4.73,1.68,7.1.41,1.81.77,3.64,1.16,5.46.52,2.5,1,5,1.48,7.5a2.92,2.92,0,0,0,5.74-.79,112.73,112.73,0,0,0-1.5-12.43c-.27-1.63-.62-3.23-1-4.83-.6-2.86-1.29-5.67-2.1-8.47a133.87,133.87,0,0,0-5.35-14.36q-3-7-6.32-13.91a236.72,236.72,0,0,0-15.66-26.62c-1.46-2.2-3.07-4.31-4.61-6.46a3.65,3.65,0,0,0-2.14-1.63,3.61,3.61,0,0,0-2.59.35ZM2234,942l-.18-.42h0l.18.42Z" transform="translate(-309.02 -183.27)"/><path d="M2189.45,875.37a2.42,2.42,0,0,0,0,3.36l.44.48c-2.18-1.45-4.47-2.73-6.73-4.05a2,2,0,0,0-2,3.54c1.62,1,3.24,1.91,4.85,2.88a51.49,51.49,0,0,1,4.91,3.38c4,3.06,7.81,6.35,11.47,9.78l8.61,8.06c.86.8,1.7,1.61,2.55,2.42l.55.61c2.47,2.73,5,5.38,7.55,8.07.91,1,1.84,1.9,2.77,2.84s1.57,1.62,2.37,2.42c.12.14.25.26.38.39.42.42.84.83,1.29,1.21.28.22.58.43.87.63a5.23,5.23,0,0,0,1,.35,2.38,2.38,0,0,0,2.28-4l-.92-1a1.71,1.71,0,0,0,.64-.41,1.82,1.82,0,0,0,0-2.55c-1.1-1.3-2.19-2.59-3.33-3.86-1-1.1-2-2.18-3-3.27-1.69-1.87-3.4-3.74-5.14-5.57-2-2-3.84-4.11-5.88-6s-4.08-4-6.21-5.84-4.35-3.89-6.55-5.8c-1.47-1.29-2.95-2.56-4.43-3.84l-1.29-1.12a47.7,47.7,0,0,0-4.15-3.5,2,2,0,0,0-1.11-.32,2.57,2.57,0,0,0-1.75.7Z" transform="translate(-309.02 -183.27)"/><path d="M2187.53,875.66a2.51,2.51,0,0,0-.73,1.77,2.67,2.67,0,0,0,.72,1.73,25.93,25.93,0,0,0,2.11,2.22,4.73,4.73,0,0,0,.28.39l.18.23c.46.6.94,1.18,1.47,1.75s1.27,1.26,1.92,1.88l1.54,1.54,3.69,3.74c.65.65,1.3,1.3,2,1.93l4.1,4.48c.68.74,1.31,1.54,2,2.29l4,4.71c1.55,1.82,3.12,3.62,4.62,5.47l5.4,6.64c6.89,9.07,13.67,18.22,20.47,27.36a3.39,3.39,0,0,0,1.92,1.46,3.13,3.13,0,0,0,2.32-.32,3.19,3.19,0,0,0,1.47-1.92,3.07,3.07,0,0,0-.32-2.33l-11.19-15.08c-1.55-2.08-3.11-4.18-4.67-6.24l-1.17-1.55a2.85,2.85,0,0,0,1.3-.36,2.9,2.9,0,0,0,1.26-1.58,2,2,0,0,0-.06-2.78c-4.79-4.66-9.67-9.22-14.58-13.74-3.92-3.61-7.81-7.22-11.79-10.75l-3.45-3-1.32-1.42c-.63-.68-1.28-1.37-1.91-2.06-1.5-1.62-3.26-3-4.88-4.53a3.34,3.34,0,0,0-2-.86l-1.16-1a2.74,2.74,0,0,0-1.81-.71,2.36,2.36,0,0,0-1.68.7Zm2.64,6.45-.08-.11-.16-.2.24.31Zm-.24-.31v0Zm0,0a3.15,3.15,0,0,1-.22-.29,3.15,3.15,0,0,0,.22.29Z" transform="translate(-309.02 -183.27)"/><path d="M2247.05,954.71a4.08,4.08,0,0,0-4,4.1c.33,5.35.76,10.69,1.13,16,.36,5,.66,10,1,15,.58,8.84.86,17.68,1.22,26.52.29,7.4.52,14.78.81,22.17.15,3.6.36,7.2.56,10.81.1,1.65.22,3.33.39,5a59.21,59.21,0,0,0,1,7.27,3.89,3.89,0,0,0,7.64-1.05c-.28-4.5-.39-9-.6-13.52-.23-5-.47-10-.69-15q-.6-13-1.24-26.07c-.17-3.53-.28-7.07-.52-10.58-.3-4.11-.58-8.21-.88-12.31-.57-8.12-1.24-16.23-1.77-24.33a4.11,4.11,0,0,0-4-4Z" transform="translate(-309.02 -183.27)"/><path d="M2250.25,963.66a6.29,6.29,0,0,0-6.18,6.29c.84,28.54,1.36,57.1,1.74,85.65q.12,8.93.33,17.84c.1,3.15.13,6.29.29,9.44.09,1.72.12,3.48.29,5.21.27,3,.25,6.24,1.72,8.86a5.1,5.1,0,0,0,4.46,2.54,5,5,0,0,0,4.36-2.55,1,1,0,0,1,.07-.15,5.92,5.92,0,0,0,.63-2.79c.46-6.69.4-13.4.42-20.1,0-5.92-.09-11.86-.15-17.79-.11-11.17-.17-22.35-.41-33.53-.4-17.58-.77-35.17-1.29-52.75a6.3,6.3,0,0,0-6.22-6.17Z" transform="translate(-309.02 -183.27)"/><path d="M2250,961.26a5.16,5.16,0,0,0-5.08,5.17c.69,13.68,1,27.36,1.44,41.05.14,4.53.1,9.09.14,13.62q.12,10.64.22,21.27c.2,20.39-.71,40.84,1.05,61.17a5,5,0,0,0,1.36,3.28,4.71,4.71,0,0,0,3.38,1.38,4.78,4.78,0,0,0,4.66-4.74c.58-11.62.36-23.25.28-34.88-.06-9.7,0-19.42-.19-29.12q-.18-10.89-.35-21.78c-.06-3.7-.07-7.4-.19-11.1-.46-13.42-.85-26.84-1.55-40.25a5.21,5.21,0,0,0-5.12-5.07Z" transform="translate(-309.02 -183.27)"/><path d="M2249.73,967.79a4.85,4.85,0,0,0-4.76,4.84c.35,27.18.88,54.34,1.18,81.52.13,11.89-.08,23.78-.07,35.67,0,5.65,0,11.28,0,16.92-.09,6.09-.22,12.16-.35,18.24s-.06,12.3-.09,18.44,0,12.12.1,18.16c0,5.58.27,11.16.41,16.74q.22,9.89.37,19.78c.11,7.36.39,14.73.63,22.08.27,7.92.41,15.85.76,23.76a5.18,5.18,0,1,0,10.36-.09c.36-12,.3-24,.37-36s0-24.18-.3-36.26-.5-24-.66-36q-.14-10.1-.15-20.2c0-5.35.08-10.72-.12-16.06-.44-12.14-.74-24.25-1-36.38-.21-12.31-.55-24.61-.84-36.91-.44-17.8-.73-35.61-1-53.42a4.84,4.84,0,0,0-4.79-4.75Z" transform="translate(-309.02 -183.27)"/><path d="M2248.35,958.72c-2.08,0-4.4,1.95-4.13,4.21.46,3.83.91,7.66,1.28,11.5.34,3.54.5,7.09.69,10.63.35,6.35.37,12.76.33,19.11-.07,13.24-.62,26.48-1.05,39.72q-.67,20.56-1.52,41.1c-.57,13.4-1,26.81-1.11,40.22-.05,6.58,0,13.16.11,19.73s.08,13,.22,19.47c.13,6.34.42,12.67.61,19s.38,12.95.68,19.43.75,12.8.87,19.23.46,13.13.7,19.69c.47,12.89,1.34,25.76,1.35,38.67,0,6.36-.37,12.74-.71,19.11-.31,6-.85,12.09-1.11,18.14-.13,3.1-.1,6.2-.16,9.31s-.2,6.22-.24,9.33c-.09,6.29-.27,12.6-.11,18.9.17,6.46.43,12.92.53,19.39.1,6.3,0,12.58-.06,18.88-.07,6.51-.38,13-.62,19.53s-.54,13.3-.76,20c-.21,6.42-.56,12.83-.75,19.26-.1,3.29,0,6.57.07,9.86,0,3.09.09,6.19.25,9.28.35,6.49.94,13,1.43,19.46.46,6.18,1,12.35,1.44,18.53.37,4.63.56,9.3.49,14,1.37-2.35,2.74-4.68,4.13-7,.19-.59.4-1.2.59-1.79,2.24-6.78,4.34-13.59,6.41-20.41,0-3.47.1-6.93,0-10.4q-.26-10-.2-20c0-6.4.17-12.76.65-19.14s.87-13,1.16-19.54.74-13.06,1.11-19.58.56-12.92.72-19.38.17-12.75,0-19.12c-.14-6.18-.41-12.37-.32-18.55.09-6.4.16-12.8.34-19.19.09-3.12,0-6.24.11-9.36s.21-6.24.4-9.36c.73-12.57,1.16-25.14.77-37.73-.19-6.42-.59-12.81-.92-19.22-.34-6.58-.56-13.16-.82-19.74-.27-6.35-.34-12.71-.58-19.06-.24-6.57-.68-13.15-1-19.73-.24-6.22-.27-12.45-.59-18.67-.34-6.58-.5-13.18-.71-19.77-.22-6.42-.33-12.84-.51-19.27-.2-6.68-.47-13.35-.71-20s-.25-13.34-.28-20-.1-13.17-.08-19.75c.05-13.41-.27-26.82-.36-40.22,0-6.78-.1-13.56-.22-20.33-.11-7-.47-14-.78-21-.24-5.31-.6-10.61-1-15.91-.44-5.75-1.19-11.47-1.89-17.19a4.57,4.57,0,0,0-1.22-2.9,4.2,4.2,0,0,0-3-1.23Z" transform="translate(-309.02 -183.27)"/><path d="M2244.38,945.61a3.86,3.86,0,0,0-2.66,1.11,3.75,3.75,0,0,0-1.12,2.74c1.2,10.67,2,21.39,2.93,32.1.35,4.06.51,8.14.78,12.21s.55,8,.74,12c.47,9.54.92,19.07,1.29,28.59.16,4.19.37,8.37.58,12.54q.15,2.92.35,5.85c.15,2.15.24,4.34.52,6.48.17,1.29.34,2.56.58,3.84a3.86,3.86,0,0,0,7.58-1c-.13-2.31-.15-4.62-.25-6.93s-.22-4.75-.34-7.13c-.21-3.77-.43-7.54-.62-11.31q-.73-14.7-1.64-29.4c-.52-8.5-1.21-17-1.81-25.47-.29-4.15-.74-8.28-1.11-12.42-.43-4.73-.8-9.46-1.3-14.18-.2-1.93-.45-3.86-.66-5.78a4.23,4.23,0,0,0-1.1-2.66,3.94,3.94,0,0,0-2.7-1.12Z" transform="translate(-309.02 -183.27)"/><path d="M2251.89,965.41a4.38,4.38,0,0,0-3,1.25,4.2,4.2,0,0,0-1.28,3.12c.43,3.49,1,7,1.25,10.48.17,2.14.36,4.28.53,6.43q.7,8.32,1.4,16.68c.25,3,.31,6,.4,9,.14,4.12.31,8.24.4,12.37.09,3.72.14,7.43.27,11.15.06,1.86.11,3.73.21,5.59a61.54,61.54,0,0,0,.46,6.21,4.85,4.85,0,0,0,.09.55v0h0a3.4,3.4,0,0,0,.32.77,3.29,3.29,0,0,0,2,1.53,3.24,3.24,0,0,0,2.43-.34,3.46,3.46,0,0,0,1.52-2,8.65,8.65,0,0,0,.43-2.31c0-.43.12-.86.14-1.29.08-1.21.16-2.44.23-3.65.13-2.12.12-4.25.18-6.36s.05-3.91.07-5.86c0-1.61.07-3.22,0-4.84l-.33-15.22c0-1.13,0-2.27-.1-3.39l-.39-5q-.64-7.7-1.27-15.41c-.14-1.69-.28-3.39-.42-5.07-.28-3.42-.8-6.81-1.21-10.21a4.75,4.75,0,0,0-1.26-3,4.32,4.32,0,0,0-3.05-1.27Z" transform="translate(-309.02 -183.27)"/><path d="M2247.72,953.41a3.72,3.72,0,0,0-2.58,4.52,297.72,297.72,0,0,1,6.81,31.24c.38,2.81.67,5.64.92,8.47.19,2.39.41,4.8.48,7.19.07,2.79.15,5.58.22,8.37,0,2,0,4,0,6a70.47,70.47,0,0,1-.23,7.12c-.11.65-.21,1.31-.38,1.94h0a3.46,3.46,0,0,0,.55,4.13,3.41,3.41,0,0,0,2.47,1,3.55,3.55,0,0,0,2.4-1c1.67-1.38,2.35-3.66,2.61-5.74.15-1.29.24-2.57.27-3.87,0-1.65.05-3.3,0-5,0-3.65-.15-7.31-.27-11a172.17,172.17,0,0,0-2.25-22c-1.61-9.73-4.07-19.33-6.58-28.87a3.71,3.71,0,0,0-4.51-2.59Z" transform="translate(-309.02 -183.27)"/><path d="M2243.16,929.54a2.77,2.77,0,0,0-1.93,3.37c.51,1.77,1,3.54,1.47,5.34.35,1.5.71,3,1.06,4.5l2.31,9.78c.48,2.05.82,4.13,1.22,6.19.52,2.69,1,5.38,1.56,8.06.41,3.5.8,7,1.21,10.51.11.9.15,1.78.2,2.68.13,2.34.26,4.67.4,7,.14,2.54.25,5.07.3,7.63l.27,13.41c.12,6,0,12.1,0,18.15,0,6.26-.11,12.52-.19,18.78q-.21,16.83-.4,33.63a3.28,3.28,0,1,0,6.55-.06c.14-6.61.22-13.22.31-19.83.08-6.43.18-12.88.22-19.32.05-7.15.09-14.29,0-21.44,0-3,0-5.92-.07-8.87-.12-4.15-.25-8.28-.38-12.42-.08-2.56-.14-5.11-.33-7.65-.18-2.35-.35-4.71-.52-7.06-.11-1.31-.13-2.66-.31-4-.5-3.72-1-7.43-1.52-11.16-.14-1-.34-2.07-.55-3.12l-1.41-6.74q-.55-2.66-1.1-5.33c-.32-1.54-.75-3.07-1.12-4.61-.66-2.76-1.34-5.52-2-8.27-.59-2.44-1.26-4.84-1.95-7.26a2.79,2.79,0,0,0-2.66-2,2.42,2.42,0,0,0-.7.1Z" transform="translate(-309.02 -183.27)"/><path d="M2249.93,1115.21a4.29,4.29,0,0,0-4.21,4.29c.5,7.69.8,15.38,1.14,23.08.25,5.76.21,11.54.28,17.31.16,11.22.07,22.44.19,33.66.12,11.43-.41,22.84-.77,34.24-.16,5.15-.4,10.33-.38,15.48,0,5.72.11,11.44.22,17.17.24,11.83.67,23.65.89,35.48.19,11,.49,22.1.42,33.15,0,5.6.06,11.22.09,16.83,0,5.88,0,11.76.15,17.64.3,11,.76,22,1.15,33,.42,11.36,1,22.69.68,34.06-.15,5.73-.43,11.46-.54,17.19-.11,5.38.12,10.75.17,16.12,0,5.7,0,11.41.08,17.11,0,5.46-.3,10.91,0,16.38.26,5.67.44,11.34.51,17,0,1.31,0,2.62,0,3.92l1.24-2.08c.19-.59.4-1.2.59-1.79,2.58-7.83,5-15.7,7.36-23.59q.87-3.33,1.72-6.68l.89-3.44c0-.25,0-.5,0-.74.12-5.49.09-11,.07-16.46s-.25-11.27-.15-16.91c.18-11,.8-22.07.37-33.13-.42-11.27-1-22.54-1.42-33.82-.21-5.78-.51-11.55-.69-17.33s-.18-11.36-.27-17-.2-11.25-.22-16.87-.12-11.23-.33-16.84c-.41-11.39-.78-22.78-1.34-34.15-.58-11.62-1-23.27-1.19-34.91-.11-5.2,0-10.41,0-15.61,0-5.71.18-11.41.16-17.11,0-11.27-.5-22.52-.7-33.78q-.15-8.59-.32-17.19c-.12-5.7-.14-11.4-.4-17.1-.35-7.47-.68-14.93-1.17-22.39a4.33,4.33,0,0,0-4.25-4.22Z" transform="translate(-309.02 -183.27)"/><path d="M2257,1439.41a2.41,2.41,0,0,0-1.6.93,2.61,2.61,0,0,0-.49,1.8V1445c0,3.49-.05,7-.18,10.45s-.17,7.27-.48,10.88-.77,7.37-1.25,11.05a92.29,92.29,0,0,1-1.93,10.29c-.16.66-.31,1.31-.47,2a91,91,0,0,1-7.49,19.2l.12-.2c-.93,1.59-1.85,3.18-2.93,4.68-1.23,1.73-2.47,3.45-3.78,5.12a54.85,54.85,0,0,1-4.08,4.79c-1.44,1.45-2.87,2.91-4.32,4.36l.07-.07-.12.12-.47.47.34-.34c-2.42,2.38-4.83,4.76-7.31,7.06a90.61,90.61,0,0,1-7.88,6.5c-5.72,4.21-11.62,8.17-17.38,12.31-7.29,5.26-14.87,10.1-22.58,14.71a191.66,191.66,0,0,1-19,9.38c-3.27,1.41-6.64,2.54-10,3.67s-6.43,2.26-9.65,3.39-6.54,2.3-9.77,3.53-6.37,2.65-9.6,3.78c-3.43,1.2-6.89,2.32-10.34,3.46-1.73.58-3.49,1.14-5.21,1.79s-3.38,1.4-5.06,2.14c-.71.31-1.39.68-2.07,1s-1.59.75-2.36,1.16l-5.31,2.81c-3.16,1.66-6.35,3.28-9.5,4.94-6.43,3.4-12.94,6.67-19.35,10.1-3.47,1.86-6.8,4-10.15,6q-4.6,2.81-9.17,5.66c-2.94,1.83-5.86,3.66-8.76,5.55s-5.89,3.84-8.89,5.66c-6.08,3.68-12.26,7.22-18.2,11.08-3.08,2-6.15,4-9.14,6.12-2.82,2-5.55,4.09-8.31,6.15-5.69,4.25-11.35,8.55-16.64,13.29-2.54,2.28-5,4.6-7.46,7-2.63,2.61-5.25,5.2-7.7,8a58.67,58.67,0,0,0-4.55,6.08c-1.36,2-2.65,4-3.87,6.1-.1.19-.21.37-.32.56l.18-.31c-.09.14-.17.29-.25.43l-.09.15,0,0,0-.08c-1.67,3-3.06,6.06-4.55,9.11-.76,1.52-1.53,3-2.31,4.54s-1.48,3.07-2.26,4.58a184.7,184.7,0,0,0-8.67,18.6c-.54,1.45-1,2.94-1.44,4.42a52.56,52.56,0,0,0-1.56,6.17,3.64,3.64,0,0,0,3.08,4.1,3.59,3.59,0,0,0,2.72-.72,3.76,3.76,0,0,0,1.38-2.35c.07-.35.15-.68.23-1,.51-1.86,1-3.73,1.5-5.6.47-1.57,1-3.13,1.55-4.66s1.26-3.12,2-4.67,1.4-3.17,2.14-4.74,1.56-3,2.34-4.57c1.51-3,3.1-5.89,4.65-8.83.83-1.59,1.66-3.16,2.48-4.74s1.46-2.95,2.27-4.38c.11-.21.22-.41.34-.61,1.87-3.09,3.94-6,6-9,.58-.81,1.15-1.61,1.75-2.38s1.22-1.42,1.84-2.12c1.12-1.27,2.3-2.5,3.49-3.71l-.1.1c.44-.43.86-.86,1.3-1.28l-.35.34.7-.69-.34.34.34-.34.14-.15a197.87,197.87,0,0,1,15.27-13.82c2.86-2.31,5.76-4.56,8.68-6.79,2.67-2,5.29-4.11,8-6,5.87-4.18,11.89-8.11,18.06-11.84q4.74-2.85,9.46-5.73c3-1.81,5.9-3.73,8.81-5.65q6.48-4.29,13.08-8.4c4.68-2.93,9.37-5.86,14.13-8.66l-.78.46c6.2-3.38,12.48-6.62,18.7-10,3.46-1.85,6.92-3.69,10.41-5.51,1.65-.87,3.29-1.77,4.95-2.66s3.08-1.56,4.62-2.33a72.39,72.39,0,0,1,9.29-3.74c3.43-1.19,6.89-2.3,10.31-3.51,3.26-1.17,6.41-2.6,9.63-3.84s6.62-2.5,10-3.66,6.52-2.31,9.81-3.4c1.73-.57,3.45-1.13,5.18-1.73s3.49-1.26,5.24-2c3.4-1.36,6.71-3,10-4.58,3.06-1.51,6.13-3,9.11-4.73,6.52-3.74,12.88-7.79,19.12-12,2.93-2,5.76-4.08,8.65-6.1,2.74-1.93,5.5-3.83,8.23-5.76,2.89-2,5.8-4.1,8.55-6.33,1.42-1.14,2.83-2.29,4.17-3.52s2.46-2.33,3.68-3.51c2.65-2.57,5.25-5.17,7.83-7.81,1.37-1.4,2.7-2.79,4-4.26,1.09-1.22,2.1-2.54,3.08-3.85s2.12-2.9,3.15-4.37a54.14,54.14,0,0,0,2.92-4.79,66.06,66.06,0,0,0,4.4-9.6c.58-1.55,1.08-3.12,1.6-4.69.57-1.79,1.12-3.59,1.59-5.4a96.91,96.91,0,0,0,2.07-10.39c.42-3,.69-6,1-9,.3-3.25.5-6.51.56-9.79.13-7.33.26-14.66.26-22a2.3,2.3,0,0,0-.93-1.61,2.47,2.47,0,0,0-1.5-.51l-.3,0Zm-308.85,272.21-.38.64c.12-.22.25-.43.38-.64Zm-19.25,42.91c-.07.25-.13.5-.21.75l.21-.75Zm13.25-47.25c0-.08.09-.15.12-.22l-.12.22ZM2228,1527.77l.13-.13.05-.05-.18.18Z" transform="translate(-309.02 -183.27)"/><path d="M2251.92,1445.36a4.07,4.07,0,0,0-3.43,4.45c.11,3,.15,6,.2,9,0,.11,0,.22,0,.34a4.58,4.58,0,0,0-.87,1.62q-2.8,9.92-5.53,19.83c-1.77,6.21-3.66,12.38-5.75,18.49a99.22,99.22,0,0,1-7,16c-2.48,3.94-5.23,7.7-8,11.45a101.24,101.24,0,0,1-8.83,10.47,89.19,89.19,0,0,1-10.06,8.44c-4.32,3.07-8.69,6.06-13.19,8.81-6.08,3.29-12.34,6.18-18.6,9.11l-.3.13q-11,4.55-22.16,8.76c-6.79,2.56-13.57,5.25-20.51,7.36-7.68,2.35-15.39,4.62-23.08,6.93-3.28,1-6.59,1.93-9.81,3.11-3.41,1.25-6.73,2.7-10.08,4.07-6.88,2.83-14,5.1-20.86,8s-13.63,5.61-20.1,9c-6.74,3.59-13.37,7.35-20,11.22-6.4,3.68-13,7.08-19,11.34-6.23,4.41-12.33,9-18.37,13.72-5.72,4.45-11.44,9-16.72,13.92-2.89,2.72-5.86,5.35-8.65,8.16-1.9,1.9-3.66,3.94-5.38,6-1.36,1.44-2.72,2.89-4,4.39a142.42,142.42,0,0,0-13.11,17.66c-3.43,5-6.55,10.29-9.57,15.54-3.72,6.46-7.08,13.24-8.9,20.5a59.89,59.89,0,0,0-1.19,6.55,97.6,97.6,0,0,0-2.94,11.17c-.31,1.55-.6,3.1-.8,4.68-.34,2.78-.21,5.65,2.62,7,2,1,4.17-.27,5.13-2.08a27.64,27.64,0,0,0,1.87-6.1c.34-1.33.62-2.68.91-4,.64-3,1.28-6,2.08-9,1.13-3,2.33-5.91,3.58-8.86,1.07-2.54,2.28-5.05,3.54-7.53l0-.05v0h0l0-.07,0,0,.09-.15h0c2.48-4.2,5.07-8.3,7.76-12.35a156.21,156.21,0,0,1,9-12.77c1.57-1.91,3.23-3.75,4.82-5.65,1.73-2.06,3.4-4.19,5.09-6.29,1-1.26,2-2.52,3.07-3.76,3-2.87,6.08-5.65,9.31-8.31,4.47-3.68,9.07-7.2,13.67-10.72a319.91,319.91,0,0,1,27.72-19.44c6.31-3.57,12.58-7.2,19.13-10.31s13.44-6.32,20.39-8.93,13.87-4.35,20.78-6.59c3.46-1.11,6.89-2.3,10.33-3.46s7.21-2.16,10.83-3.21c7.29-2.12,14.47-4.6,21.69-6.94s14.2-4.8,21.31-7.23c6.92-2.38,13.82-4.77,20.67-7.29,7.12-2.63,13.9-6,20.75-9.18a194.77,194.77,0,0,0,22-11.56c3-1.89,5.84-3.92,8.69-6,2.66-1.92,5.34-3.78,7.82-5.93a106.86,106.86,0,0,0,15-15.76l.19-.24q5.74-9.33,11.28-18.8c1.24-2.13,2.49-4.25,3.75-6.38.88-2.51,1.65-5.06,2.47-7.59,1.72-5.25,2.92-10.69,4.2-16.06,1.07-4.49,1.81-9.07,2.62-13.62q1.41-7.87,2.61-15.78a7.56,7.56,0,0,0-4.52-8,7,7,0,0,0-1.09-.36c0-2.55-.11-5.11-.21-7.66a4,4,0,0,0-4-3.45,3.31,3.31,0,0,0-.44,0Zm-316.37,279.08-.21.36.21-.36Z" transform="translate(-309.02 -183.27)"/><path d="M1935.22,1725l0-.07,0,.07Z" transform="translate(-309.02 -183.27)"/><path d="M1935.2,1725l0,0,0,0Z" transform="translate(-309.02 -183.27)"/><path d="M1935.15,1725.13v0s0,0,0,0Z" transform="translate(-309.02 -183.27)"/><path d="M1933.24,736.28a4.12,4.12,0,0,0-1.25,2.94,4.52,4.52,0,0,0,1.15,2.88c3.59,4.8,7.23,9.57,11,14.22,3.43,4.25,7,8.33,10.76,12.3,1.78,1.89,3.54,3.8,5.36,5.65s3.59,3.38,5.42,5c3.85,3.48,7.47,7.18,11.43,10.53,2,1.66,4,3.23,6,4.75,1.86,1.38,3.66,2.84,5.56,4.18a112.18,112.18,0,0,0,12,6.9c3.78,2,7.65,3.81,11.53,5.62,4.73,2.21,9.64,4.12,14.45,6.18l-1.32-.57q10.53,4.58,21.12,9l-.06,0c4.7,2,9.44,3.92,14.32,5.47,5.07,1.62,10.16,3.14,15.27,4.64,5.45,1.6,10.92,3.18,16.36,4.85,5.28,1.61,10.47,3.61,15.58,5.68,1.28.51,2.54,1,3.81,1.57,4.34,1.89,8.67,3.78,12.94,5.8,4.77,2.25,9.45,4.64,14.16,7s9.63,4.88,14.38,7.46c2.52,1.38,5.05,2.74,7.56,4.13,2.36,1.29,4.61,2.83,6.89,4.28s4.6,2.87,6.92,4.29c2.15,1.32,4.37,2.61,6.45,4.05,4.26,2.95,8.41,6.06,12.49,9.24,2.34,2,4.52,4.13,6.7,6.3,2.51,2.5,5,5,7.43,7.61l7.59,8.08c2.21,2.33,4.11,4.94,6.12,7.42s3.6,5.33,5.31,8c.84,1.33,1.69,2.63,2.52,4,1,1.63,2,3.26,2.88,4.94,1.64,3,3,6.23,4.42,9.36,1.32,2.9,2.62,5.81,3.87,8.74l.6,1.53a3.12,3.12,0,0,0,3.72,2.18,3.08,3.08,0,0,0,2.17-3.71c-.6-2.8-1.25-5.55-2-8.31s-1.74-5.17-2.63-7.72-1.94-5.18-2.93-7.75-2-5.12-3.19-7.59a168.22,168.22,0,0,0-8.07-15,70.13,70.13,0,0,0-5.81-7.69c-1.61-2-3.28-3.92-5-5.81-3.73-4.11-7.42-8.31-11.45-12.13A153.85,153.85,0,0,0,2192.54,876c-2-1.53-4.06-3-6.19-4.42s-4.38-2.78-6.57-4.14c-4.62-2.85-9.13-5.84-13.9-8.4-9.38-5-19-9.67-28.69-14-5.22-2.3-10.46-4.54-15.75-6.68-5-2.05-10.15-3.87-15.28-5.63s-10.26-3.37-15.48-4.77-10.48-2.82-15.71-4.25c-5.08-1.38-10.17-2.74-15.18-4.38-5.26-1.73-10.35-3.85-15.48-5.93q-6.72-2.73-13.39-5.59c-4.42-1.88-8.89-3.64-13.32-5.5l-3.24-1.39c-2.55-1.14-5-2.34-7.58-3.5-2.77-1.28-5.55-2.57-8.24-4a80.79,80.79,0,0,1-8.1-4.95c-2.44-1.7-4.89-3.39-7.23-5.21-3.89-3.18-7.47-6.69-11.26-10-1.87-1.62-3.78-3.2-5.56-4.92s-3.65-3.68-5.44-5.55-3.68-3.84-5.46-5.81-3.64-4.24-5.4-6.41c-3.78-4.63-7.43-9.4-11-14.19a3.93,3.93,0,0,0-2.94-1.27,4.14,4.14,0,0,0-2.88,1.17Zm49.45,46.55.32.26-.32-.26Zm62.46,42.48.56.24-.56-.24Z" transform="translate(-309.02 -183.27)"/><path d="M2229.54,917a3.69,3.69,0,0,0-2,2.06,3.89,3.89,0,0,0,.06,2.77c1.11,3.16,2.21,6.31,3.23,9.5s1.95,6.28,2.86,9.44c4.09,14.49,6.56,29.37,8.87,44.23q1,6.57,2,13.14c.54,3.48,1,7,1.46,10.44q.57,4.14,1.18,8.28l.51,3.56c.32,2,.69,4.12.81,6.2v.65a3,3,0,0,0,.61,2.08,2.86,2.86,0,0,0,1.9,1,2.78,2.78,0,0,0,2.08-.6,3,3,0,0,0,1-1.91,19.44,19.44,0,0,0,.28-5.05l-.27-3.66c-.13-1.62-.29-3.25-.45-4.87-.36-3.71-.77-7.4-1.19-11.11-.31-2.85-.64-5.68-1.06-8.52-.73-5-1.47-9.94-2.21-14.9-1.18-8-2.65-16-4.3-24-1.33-6.36-2.94-12.65-4.77-18.89-.9-3-1.86-6.06-2.82-9.08s-2-5.93-3.08-8.89a3.71,3.71,0,0,0-4.83-1.91Z" transform="translate(-309.02 -183.27)"/><path d="M2233.67,929.27a3.23,3.23,0,0,0-2.12,1.29,3,3,0,0,0-.56,2.33c.79,3.22,1.75,6.42,2.35,9.69.19,1,.38,2,.56,3q1.18,6.35,2.35,12.71,1.11,6,2.23,12c.26,1.42.48,2.81.64,4.25q1.4,12,2.78,23.94c.25,2.23.41,4.48.6,6.72.27,3.23.6,6.46.82,9.69.43,6.49.85,13,1.19,19.45.16,3.33.34,6.65.52,10,.17,3,.3,6,.53,9.06.09,1.08.18,2.16.26,3.24a2.54,2.54,0,0,0,2.25,2.18,2.57,2.57,0,0,0,2.83-2.28c.07-3.47.12-7,.18-10.42s-.11-7-.2-10.51c-.18-6.53-.56-13.06-1-19.58-.18-2.78-.43-5.55-.67-8.33l-.57-6.72c-.07-.79-.12-1.59-.22-2.38q-1.35-11.36-2.67-22.71c-.2-1.67-.33-3.37-.64-5-.64-3.39-1.26-6.77-1.9-10.15q-1.28-6.79-2.54-13.58c-.56-3-1.09-5.95-1.81-8.89-.52-2.11-1.08-4.22-1.6-6.33a3.35,3.35,0,0,0-1.28-2.11,3.2,3.2,0,0,0-1.86-.6,3.44,3.44,0,0,0-.46,0Z" transform="translate(-309.02 -183.27)"/><path d="M2241.52,946.93a3,3,0,0,0-2.48,3.36c.54,5.1,1.09,10.2,1.62,15.3.31,3.11.7,6.21,1,9.33.3,3.67.59,7.36.89,11,.11,1.22.11,2.47.16,3.69.1,2.35.19,4.7.29,7.05.2,4.85.26,9.7.4,14.55.06,3,.12,6.11.09,9.16s0,6-.07,9q-.35,10-.7,20c-.5,13.47-.94,27-1.13,40.43,0,2.84.06,5.67.28,8.48a2.7,2.7,0,0,0,5.35-.1c.1-3.52.44-7,.67-10.56.19-3.19.29-6.4.42-9.61.25-5.95.33-11.91.54-17.87.23-6.81.48-13.61.68-20.42q.09-3.54.2-7.08c0-1.07.1-2.14.1-3.22,0-3.31,0-6.61-.06-9.91-.06-2.89-.13-5.77-.19-8.66,0,.26,0,.53,0,.8-.13-6.71-.42-13.41-.73-20.11-.15-3-.27-5.92-.53-8.87-.28-3.22-.52-6.43-.85-9.65q-1.28-11.85-2.56-23.71a3,3,0,0,0-3-2.52l-.4,0Zm1.83,64.64c0,.1,0,.2,0,.3,0-.1,0-.2,0-.3Z" transform="translate(-309.02 -183.27)"/><path d="M2222,908.41a3.63,3.63,0,0,0-1.87,4.75c2.13,4.25,4,8.6,6,12.93,1.27,2.79,2.27,5.68,3.35,8.55q1.35,3.6,2.71,7.19c.35,1,.75,1.91,1.07,2.88,1.35,4.15,2.7,8.28,4,12.42q1.65,5,3.31,10.07c1,3.11,2.09,6.21,3,9.36l.21.8a3.19,3.19,0,0,0,1.2,2,3,3,0,0,0,4.67-2.84,41,41,0,0,0-1.15-5.48c-.51-1.89-1-3.8-1.54-5.68-1-3.29-1.91-6.58-2.93-9.86q-2-6.45-4-12.94c-.24-.78-.52-1.53-.81-2.29-.82-2.21-1.65-4.41-2.47-6.62s-1.75-4.71-2.63-7.06c-.36-.93-.71-1.83-1.12-2.74-2.08-4.53-4.09-9.08-6.33-13.53a3.79,3.79,0,0,0-3.34-2.18,3.44,3.44,0,0,0-1.41.3Z" transform="translate(-309.02 -183.27)"/><path d="M2220.28,905.42a3.19,3.19,0,0,0-1.64,4.15c1,2.07,2,4.13,2.85,6.25.78,1.87,1.55,3.72,2.34,5.59q2.39,5.75,4.79,11.49c.27.67.51,1.35.76,2q1.17,3.17,2.33,6.33c1.13,3,2.32,6.08,3.36,9.16,1.23,3.62,2.47,7.25,3.67,10.88s2.45,7.29,3.53,11c.07.26.15.51.22.78a3.41,3.41,0,0,0,1.23,2,3.13,3.13,0,0,0,2.24.54,3.06,3.06,0,0,0,2-1.24,2.93,2.93,0,0,0,.54-2.23c-1.86-7.3-4.34-14.44-6.74-21.57-2.24-6.62-4.75-13.14-7.16-19.69-.34-.93-.76-1.84-1.14-2.76l-3-7.27c-1-2.31-1.93-4.6-2.89-6.91s-2.06-4.61-3.13-6.89a3.25,3.25,0,0,0-2.92-1.9,3.18,3.18,0,0,0-1.23.25Z" transform="translate(-309.02 -183.27)"/><path d="M2033.68,1619.45l-2.31,1.45c-3.53,2.11-7,4.26-10.61,6.26q-6.36,3.51-12.74,7c-3.83,2.07-7.66,4.17-11.45,6.3-4.32,2.43-8.48,5.08-12.68,7.7-2.22,1.32-4.49,2.61-6.58,4.12-2.35,1.67-4.6,3.46-6.88,5.23-4.49,3.49-9.07,6.9-13.27,10.77a51.77,51.77,0,0,0-5.87,6.59c-1.67,2.16-3.38,4.3-5,6.49s-3.37,4.7-4.88,7.18A86.71,86.71,0,0,0,1937,1697c-.62,1.33-1.2,2.68-1.76,4q-1.71,2.49-3.33,5c-2.55,4.06-5.19,8.09-7.52,12.28a5.34,5.34,0,0,0,.14,6.53,5.31,5.31,0,0,0,1.52,1.29v0a5.43,5.43,0,0,0,.91,2.16c-.35.79-.69,1.59-1,2.4a24.64,24.64,0,0,0-1.65,5.14,4.09,4.09,0,0,0,0,1.26l-1.11,2.95c-.47,1.26-.88,2.56-1.27,3.84-.21.65-.4,1.29-.6,1.94-.46,1.53-1,3.11-.69,4.73,0,.2.1.4.17.6-.73,1.86-1.43,3.72-2.09,5.6-1.58,4.57-3.12,9.13-3.47,14a5.09,5.09,0,0,0,8.27,4.45,5.43,5.43,0,0,0,1.88-3.48c.31-1.63.58-3.26.91-4.88,2.12-7.35,4.88-14.5,7.53-21.66q1.93-5.19,3.86-10.41c.5-1.35,1-2.7,1.51-4.06l.7-1.25c1.42-2.52,2.95-5,4.44-7.44,1.24-2.06,2.49-4.09,3.82-6.09,1.61-2.46,3.18-5,4.89-7.37l6-8.42.44-.61c2-2,4.07-4,6.06-6,2.46-2.53,4.87-5,7.23-7.66,1.09-1.22,2.06-2.56,3.07-3.82.69-.87,1.43-1.7,2.09-2.59a10.19,10.19,0,0,0,1.27-2.48,7,7,0,0,0,.2-3.54,5.1,5.1,0,0,0-5-4.25c2.71-2.22,5.46-4.4,8.17-6.6,3-2.48,6.37-4.64,9.59-6.9s6.46-4.49,9.8-6.59c5.49-3.28,11.06-6.43,16.62-9.59,7.11-4,14.18-8.14,21.1-12.52a4.6,4.6,0,0,0,1.79-3.32,4.84,4.84,0,0,0-1-3.5,5,5,0,0,0-3.32-1.8l-.45,0a5.54,5.54,0,0,0-3,1.08Zm-48.67,28-1.06.63,1.06-.63Zm17.89,1.12-.5.31.5-.31Z" transform="translate(-309.02 -183.27)"/><path d="M1923.57,1529.72q-.3,24-.49,48.09c-.09,10.47,0,21,0,31.43,0,2.78,0,5.56.06,8.34s0,5.59.06,8.38q.09,8.85.17,17.69c0,.69,0,1.36,0,2a1.61,1.61,0,0,0,.3,1,1.46,1.46,0,0,0,.94.5,1.4,1.4,0,0,0,1.53-1.25c.33-6.42.37-12.86.43-19.29,0-5.68,0-11.36,0-17,0-10.23,0-20.45.1-30.67.15-15.43.27-30.87.47-46.3,0-.87,0-1.74,0-2.61a1.89,1.89,0,0,0-.4-1.32,1.8,1.8,0,0,0-1.22-.66h-.16a1.81,1.81,0,0,0-1.82,1.63Z" transform="translate(-309.02 -183.27)"/><path d="M1926.29,1554.54a1.83,1.83,0,0,0-.69,1.3q.2,12.12.3,24.26.09,9.48.16,19c0,2.24,0,4.49,0,6.72,0,4.07,0,8.12,0,12.19,0,1.86,0,3.71,0,5.57,0,3.62-.06,7.24,0,10.86,0,.47,0,.93,0,1.4a2.12,2.12,0,0,0,.44,1.45,2,2,0,0,0,1.34.72,2,2,0,0,0,1.46-.44,1.9,1.9,0,0,0,.71-1.34c-.13-6.14,0-12.29,0-18.43l.27-17.47a1.77,1.77,0,0,0-.38-1.25l0,0c0-1.8,0-3.61-.06-5.41q0-6.18-.11-12.35c-.08-7.82-.17-15.64-.31-23.46,0-.52,0-1,0-1.57a2,2,0,0,0-.43-1.41,2,2,0,0,0-1.3-.7h-.19a1.93,1.93,0,0,0-1.23.44Z" transform="translate(-309.02 -183.27)"/><path d="M1925.4,1554.64c-.15,3.29-.15,6.58-.18,9.88s-.06,6.42-.09,9.64c0,2.15,0,4.32,0,6.48,0,4.12,0,8.22.08,12.33.08,11.22,0,22.45-.19,33.68-.06,3.71-.11,7.43-.18,11.14-.1,4.86-.29,9.72-.27,14.58a1.91,1.91,0,0,0,.38,1.29,1.76,1.76,0,0,0,3.11-.94c.06-3,.25-6.11.35-9.17.08-2.73.17-5.46.22-8.19.12-6.47.19-12.94.26-19.41,0-5.87,0-11.74,0-17.61s-.12-11.71-.18-17.58c0-3.23,0-6.47,0-9.72,0-3,0-6.08.08-9.13,0-2.31,0-4.61.14-6.92a1.8,1.8,0,0,0-1.59-1.94h-.16a1.77,1.77,0,0,0-1.78,1.6Z" transform="translate(-309.02 -183.27)"/><path d="M1926.76,1563.91a1.68,1.68,0,0,0-.63,1.18c.19,6.19.35,12.38.57,18.57,0-.15,0-.32,0-.47.3,12.77.68,25.54,1,38.31l.06,2.32c0-.15,0-.31,0-.46.29,11,.47,22,.71,33,.12,5.27.25,10.54.34,15.81.11,6,.32,12,.18,18a1.54,1.54,0,0,0,1.35,1.65,1.52,1.52,0,0,0,1.64-1.35c.15-3,.18-6.11.16-9.17,0-3.28-.05-6.57-.08-9.85,0-6-.19-12.07-.28-18.1-.07-4.73-.17-9.45-.25-14.18l-.21-10.81c0-1.62,0-3.25-.09-4.88,0,.06,0,.12,0,.18-.3-12.77-.67-25.54-1-38.3,0-.78,0-1.56-.07-2.33,0,.15,0,.31,0,.47-.17-6-.37-12.06-.55-18.09a2,2,0,0,0-.39-1.29,1.81,1.81,0,0,0-1.18-.64h-.17a1.79,1.79,0,0,0-1.13.4Z" transform="translate(-309.02 -183.27)"/><path d="M1926.25,1570.39a2.4,2.4,0,0,0-1.52.95,2.58,2.58,0,0,0-.42,1.8c.28,6.2.52,12.41.83,18.62,0-.14,0-.29,0-.43.19,5.73.45,11.46.67,17.19.28,6.66.53,13.31.8,20,0,.06,0,.11,0,.17s0,.19,0,.29v0c.27,8.22.51,16.43.79,24.65h0c0,.13,0,.25,0,.38.25,10,.55,20,1,30a1.94,1.94,0,0,0,1.75,1.63,2,2,0,0,0,2.17-1.78c0-11.27-.21-22.55-.5-33.83-.11-4.5-.23-9-.35-13.5-.07-2.77-.08-5.53-.21-8.29v0c-.42-12.26-1-24.52-1.43-36.77v0a1.62,1.62,0,0,0,0,.22c-.22-6.42-.57-12.85-.86-19.26a2.19,2.19,0,0,0-.94-1.52,2.45,2.45,0,0,0-1.42-.46l-.38,0Zm1.17,83.49a2.81,2.81,0,0,0,0,.29,2.81,2.81,0,0,1,0-.29Z" transform="translate(-309.02 -183.27)"/><path d="M2237.71,1023.17a23.71,23.71,0,0,0-7.71,4.92c-1.29,1.21-2.5,2.61-3.68,4a33,33,0,0,0-3.05,4.17,26.08,26.08,0,0,0-2.92,5.77c-.33,1-.6,2-.87,3.09a71.11,71.11,0,0,0-1.5,7.53,44.57,44.57,0,0,0-.33,8,27,27,0,0,0,2.5,9c.06.12.11.24.16.36l.27.69a17.65,17.65,0,0,0,1.66,3,31,31,0,0,0,3.62,5.35,50.92,50.92,0,0,0,4.25,4.19,27.42,27.42,0,0,0,5,3.78,11.79,11.79,0,0,0,4.72,3.75c3,1.43,6.5,1,9.63.85a27.16,27.16,0,0,0,10.1-2.42,58.26,58.26,0,0,0,6.37-3.81,31,31,0,0,0,6.67-6.07,25.64,25.64,0,0,0,2.91-4.93c.31-.67.62-1.33.9-2a22.92,22.92,0,0,0,1.23-4l.48-1a39.75,39.75,0,0,0,2.28-6,18,18,0,0,0,.86-4.86c0-1.26-.06-2.72-.17-4-.09-1.06-.19-2.11-.3-3.18a25.94,25.94,0,0,0-1.7-6.2,21.12,21.12,0,0,0-2.47-4c-.56-.85-1.24-1.61-1.87-2.39a34,34,0,0,0-5.34-5.11,48.64,48.64,0,0,0-6.81-4,49.92,49.92,0,0,0-10.63-4.19c-1.65-.45-3.35-.87-5-1.18a15.75,15.75,0,0,0-2.74-.23,18.49,18.49,0,0,0-6.52,1.24Zm12.5,35-.24.26.24-.26Zm-4.33,1.26a1.5,1.5,0,0,1,.29.06h0l-.3-.07Zm.59.46Zm7.39,29.08-2.46.76,1.42-.44,1-.32Z" transform="translate(-309.02 -183.27)"/><path d="M2247.56,1360.3a13.14,13.14,0,0,0-2.48.5c-1.17.3-2.36.73-3.54,1.09a20,20,0,0,0-4.7,2.44,27.53,27.53,0,0,0-5.37,4.31,28.33,28.33,0,0,0-2.47,2.78,38.25,38.25,0,0,0-3.72,5,25.76,25.76,0,0,0-3.16,6.79,22.6,22.6,0,0,0-.82,7.75,18.25,18.25,0,0,0,3.07,9.08l1.35,2.16a25,25,0,0,0,4.08,7.93,25.67,25.67,0,0,0,11.34,8.95,30.13,30.13,0,0,0,17.13,1.11,26.92,26.92,0,0,0,10.2-4.81,14.6,14.6,0,0,0,1.5-1.45c1-1,2-2.09,3-3.14,3.65-3.9,6.36-9.18,6.6-14.57a59.27,59.27,0,0,0-.55-10,39.94,39.94,0,0,0-2-7.51,23.22,23.22,0,0,0-2.09-4.63,24.21,24.21,0,0,0-2.95-4.14,28.79,28.79,0,0,0-6.29-5c-2.71-1.63-5.8-3.24-9-3.62-.67-.09-1.35-.14-2-.17a5.83,5.83,0,0,0-.7-.25,11.58,11.58,0,0,0-3.16-.67h-.37c-.93,0-1.87.06-2.79.13Zm3.29,35.91h0l0,0h0Z" transform="translate(-309.02 -183.27)"/><path d="M2236.23,1368.65a24.2,24.2,0,0,0-10.56,8.82,35.43,35.43,0,0,0-2.67,4.92,23.61,23.61,0,0,0-1.17,4.55,28,28,0,0,0-.51,5v.37l0,.16a17.09,17.09,0,0,0-.27,6.49,7.68,7.68,0,0,0,.35,1.35,22.79,22.79,0,0,0,1,3.26c.05.13.1.27.16.41a22.84,22.84,0,0,0,2.17,5.59,27.15,27.15,0,0,0,2,3.21,20.55,20.55,0,0,0,3.82,3.92,40.78,40.78,0,0,0,6.43,4.31,12.64,12.64,0,0,0,2.7,1.16c1.21.32,2.44.56,3.67.83a22.94,22.94,0,0,0,6.62.25c1.76-.12,3.53-.35,5.27-.59a21.33,21.33,0,0,0,9.39-4.13,14.52,14.52,0,0,0,4.26-4.5c1.54-2.74,3-5.91,1.54-9a6.73,6.73,0,0,0-2.14-2.7,7.16,7.16,0,0,0-5-1.22c-2,.13-3.78,1.41-5.31,2.66-1.1.9-2.24,1.76-3.4,2.58a7.2,7.2,0,0,0-2.41-1.43h0a21.19,21.19,0,0,0-.72-3.68,81.63,81.63,0,0,0-4.22-12.09A37.39,37.39,0,0,0,2245,1385a17.34,17.34,0,0,0-2.15-2.92c1.37-.62,2.78-1.12,4.2-1.61l.68-.13a6.81,6.81,0,0,0,7.29-6,6.74,6.74,0,0,0-1.49-4.94,7.37,7.37,0,0,0-4.55-2.44,15.52,15.52,0,0,0-3.45-.38,24.45,24.45,0,0,0-9.3,2.12Z" transform="translate(-309.02 -183.27)"/><path d="M2253.53,1021.91a10.63,10.63,0,0,0-5.05,2.34c-1.27,0-2.54.11-3.79.19a23.56,23.56,0,0,0-5.59,1.26c-3.23,1-6.94,4-7.77,7.39a9.53,9.53,0,0,0-.51,5c.26.92.54,1.82.83,2.72a10.5,10.5,0,0,0,5.59,5.3c2.32.89,5,.93,7.49,1.17,1.47.14,2.94.26,4.4.5a36,36,0,0,1,3.78,1.32c.65.5,1.28,1,1.89,1.57a40.13,40.13,0,0,1,3.69,4.25l0,0a32.79,32.79,0,0,1,.6,4.29,28.44,28.44,0,0,1-.26,3.57c-.24.74-.52,1.46-.82,2.17q-.81.75-1.65,1.44c-.84.63-1.7,1.25-2.57,1.85a46,46,0,0,0-3.8,2.79l-.33-.14a6.09,6.09,0,0,0-4.65.14,6.36,6.36,0,0,0-3.09,3.29,27,27,0,0,0-1.44,3.2,7.28,7.28,0,0,0-.2,3.87l-.18.92c-.73,3.93,2.25,8.36,5.92,9.62a10,10,0,0,0,5.32.47,21.86,21.86,0,0,0,2.7-.79c1.91-.57,3.81-1.16,5.7-1.79,2.26-.77,4.43-1.76,6.6-2.73a19.61,19.61,0,0,0,6.61-5,28.94,28.94,0,0,0,4.11-6.67c.67-1.33,1.28-2.7,1.86-4.07a25.94,25.94,0,0,0,2.85-6.25c2.09-6.52,2.21-13.71-.8-19.9-.47-1.61-1-3.18-1.62-4.73a26.21,26.21,0,0,0-4.21-7.54,31,31,0,0,0-6.11-5.54,39.41,39.41,0,0,0-5-2.92c-1.59-.77-3.28-1.22-4.87-2a10.55,10.55,0,0,0-3.82-.71,10.93,10.93,0,0,0-1.8.15Zm5.26,33.74c.09.26.17.52.24.8l-.24-.8Z" transform="translate(-309.02 -183.27)"/><text class="cls-1" transform="translate(0 536.53)"><tspan class="cls-2" x="45.8" y="0"> </tspan><tspan class="cls-3" x="60.8" y="0">group_project</tspan><tspan class="cls-4"><tspan class="cls-5" x="0" y="120" xml:space="preserve">				</tspan><tspan x="144" y="120">code.py</tspan><tspan class="cls-5" x="0" y="240" xml:space="preserve">				</tspan><tspan x="144" y="240">code_new.py</tspan><tspan class="cls-5" x="0" y="360" xml:space="preserve">				</tspan><tspan x="144" y="360">code_johns</tspan><tspan class="cls-6" x="525.81" y="360">_</tspan><tspan x="572.18" y="360">version.py</tspan><tspan class="cls-5" x="0" y="480" xml:space="preserve">				</tspan><tspan x="144" y="480">code_ne</tspan><tspan class="cls-6" x="422.18" y="480">w</tspan><tspan x="468.54" y="480">_fin</tspan><tspan class="cls-7" x="615.81" y="480">a</tspan><tspan x="656.72" y="480">l.py</tspan><tspan class="cls-5" x="0" y="600" xml:space="preserve">				</tspan><tspan x="144" y="600">code_johns</tspan><tspan class="cls-6" x="525.81" y="600">_</tspan><tspan x="572.18" y="600">version2.py</tspan><tspan class="cls-5" x="0" y="720" xml:space="preserve">				</tspan><tspan x="144" y="720">code_combined.py</tspan></tspan></text><text class="cls-8" transform="translate(1349.76 51.82)">[group_project]</text><text class="cls-8" transform="translate(1833.44 551.85)">[john]</text><text class="cls-8" transform="translate(1229.82 931.95)">vs.</text></g></svg>