<svg id="Ebene_1" data-name="Ebene 1" xmlns="http://www.w3.org/2000/svg" viewBox="0 0 2136.56 1472.83"><title>image-117-why-stick-to-one-example</title><g id="Zeichnungseb.-3"><path d="M1504.08,976.7a1.23,1.23,0,0,0-.43.21,5.54,5.54,0,0,0-.71.57c-.44.37-.84.78-1.26,1.19a10,10,0,0,0-1.09,1.16c-.4.53-.79,1.06-1.15,1.63a23.68,23.68,0,0,0-1.56,3c-.27.59-.49,1.19-.7,1.8a17.12,17.12,0,0,0-.46,1.74,1.11,1.11,0,0,0,2.17.5c.13-.55.29-1.09.45-1.63.15-.35.3-.69.46-1a2.46,2.46,0,0,0,.8-.74c.3-.38.57-.77.84-1.17.46-.66.89-1.34,1.34-2l1.24-1.52a11.64,11.64,0,0,1,1.09-1.17,1.54,1.54,0,0,0,.72-1,1.32,1.32,0,0,0-.4-1.29,1.4,1.4,0,0,0-.61-.33h-.28a2.32,2.32,0,0,0-.46.07Z" transform="translate(-0.03 0.1)"/><path d="M1509.46,975.22a15.19,15.19,0,0,0-2.32.3c-.31.08-.61.18-.92.28s-.66.21-1,.34a13.71,13.71,0,0,0-2,1.07,7.29,7.29,0,0,0-1,.84,9.44,9.44,0,0,0-1,1c-.33.38-.62.79-.91,1.2a11.65,11.65,0,0,0-.86,1.44c-.46.9-.91,1.79-1.32,2.71a13.79,13.79,0,0,0-.78,2.18c-.15.62-.29,1.23-.42,1.85a1.16,1.16,0,0,0,.86,1.37,1.14,1.14,0,0,0,1.37-.85h0a24.13,24.13,0,0,1,.59-2.37,21.26,21.26,0,0,1,1.1-2.25c.39-.71.81-1.4,1.24-2.08a15.37,15.37,0,0,1,2.17-2.39,8.72,8.72,0,0,1,1.55-1,9.25,9.25,0,0,1,1-.37c.35-.11.71-.23,1.08-.31a15.21,15.21,0,0,1,1.57-.15c.57,0,1.08-.08,1.62-.07a8,8,0,0,1,1.36.34,12.19,12.19,0,0,1,2.31,1.09,10.88,10.88,0,0,1,1.33,1.3,3.3,3.3,0,0,1,.31.51,8,8,0,0,1,.5,1.8,11.28,11.28,0,0,1,.17,2.32,9.13,9.13,0,0,1-.4,1.64,10.93,10.93,0,0,1-1,1.84,21.41,21.41,0,0,1-3.13,3.39c-.56.46-1.11.94-1.66,1.42l-1.18.92c-.51.38-1,.8-1.5,1.18s-1.11.81-1.65,1.23-1.07.84-1.59,1.28l-.74.65c-.24.22-.46.45-.69.67-.4.39-.78.8-1.18,1.19s-.65.65-.95,1c-.44.56-.9,1.14-1.29,1.74s-.68,1.09-1,1.65-.73,1.12-1.09,1.68a13.62,13.62,0,0,0-.83,1.43,15.86,15.86,0,0,0-.75,1.87,47.07,47.07,0,0,0-1.92,7,12.37,12.37,0,0,0-.18,1.49c0,.33-.06.66-.07,1a1.51,1.51,0,0,0,3,.28,8,8,0,0,1,.19-1.38c.08-.45.19-.94.29-1.41.18-.87.41-1.74.64-2.6.41-1.49.88-3,1.41-4.42a15.08,15.08,0,0,1,1.33-2.43c.61-1,1.13-2,1.76-2.88.33-.46.67-.92,1-1.36a14.79,14.79,0,0,1,1.05-1.17c.36-.39.9-1,1.38-1.48a14.82,14.82,0,0,1,1.55-1.41l1.24-1c.5-.38,1-.76,1.47-1.16l-.16.14c.61-.51,1.25-1,1.86-1.48s.94-.84,1.4-1.26a10.64,10.64,0,0,0,1-1,25,25,0,0,0,2.16-2.43c.45-.59.89-1.18,1.28-1.81a11,11,0,0,0,.92-2,7,7,0,0,0,.45-1.69,9.31,9.31,0,0,0,0-2.11,8.57,8.57,0,0,0-.15-1.24,10.31,10.31,0,0,0-.28-1.47,9,9,0,0,0-.44-1.12,3.64,3.64,0,0,0-.38-.7c-.13-.18-.28-.35-.42-.52a13.18,13.18,0,0,0-1-1.11,7.13,7.13,0,0,0-1.67-1.16,12.81,12.81,0,0,0-3.44-1.26,4.9,4.9,0,0,0-.94-.08,9,9,0,0,0-1.54.09Zm8.45,3.38a1.63,1.63,0,0,1,.17.2h0l.07.07c-.08-.08-.15-.17-.23-.26Zm-6.8,15-.29.24.17-.15Zm1.17,2.52.11-.09Zm.12-.11h0l.16-.14-.15.12Z" transform="translate(-0.03 0.1)"/><path d="M1500.14,1018.82l-4.49.24a1.51,1.51,0,0,0-1.43,1.55,1.52,1.52,0,0,0,1.56,1.43c1.78-.1,3.57-.18,5.35-.24l2.54-.08c.8,0,1.61,0,2.41.06,1.57,0,3.14.13,4.72.2s3.14.11,4.71.12h1.73a6.42,6.42,0,0,0,2-.2,1.54,1.54,0,0,0,1-1.1,1.47,1.47,0,0,0-.76-1.66,4.44,4.44,0,0,0-.72-.27,3.17,3.17,0,0,0-.87,0h-1.17l-2.25-.09c-1.52-.08-3.06,0-4.58-.07s-3.21,0-4.81,0h-.38c-1.53,0-3,.11-4.58.19Z" transform="translate(-0.03 0.1)"/><path d="M1478.68,1048.89a1.4,1.4,0,0,0-.61.06,1.61,1.61,0,0,0-.87.73,6.66,6.66,0,0,0-.45.83c-.28.56-.49,1.15-.77,1.71a1.09,1.09,0,0,1-.08.15c-.18.25-.37.49-.56.73-.53.65-1.14,1.25-1.68,1.91s-1,1.33-1.56,2c-.24.31-.51.62-.76.93l-.33.44-.33.45a1.47,1.47,0,0,0,.44,2,1.45,1.45,0,0,0,1.2.18,1.87,1.87,0,0,0,1.08-1l.06-.1q.21-.27.39-.54l.21-.31,1-1.29c.64-.79,1.24-1.61,1.82-2.45l.51-.71v.4c.07,1.37.13,2.74.19,4.11.11,2.92.22,5.83.32,8.75s.19,5.62.31,8.43c0,1.36.23,2.71.34,4.06,0,.68.1,1.36.16,2a7.23,7.23,0,0,0,.1.91v.42a3.07,3.07,0,0,0,.18.85,1.38,1.38,0,0,0,2.53.22.93.93,0,0,0,.12-.33h0a4.68,4.68,0,0,0,.12-1.18v-1c0-.69,0-1.37-.06-2-.07-1.36-.23-2.71-.29-4.06l-.3-6.36V1067c0-1.43-.13-2.87-.14-4.31s0-2.89-.07-4.33-.12-2.75-.22-4.12c0-.69-.1-1.39-.14-2.09a12.93,12.93,0,0,0-.13-1.91,2.23,2.23,0,0,0-.12-.51,1.54,1.54,0,0,0-.6-.73,1.09,1.09,0,0,0-.61-.18,1.37,1.37,0,0,0-.49.09Zm-1.06,1h0v0Zm-.76,5.59-.07.1Z" transform="translate(-0.03 0.1)"/><path d="M1542.19,1048.5a1.86,1.86,0,0,0-.38.74c-.16.36-.36.7-.55,1s-.38.75-.58,1.13l-.31.62-.28.42c-.53.72-1.11,1.42-1.71,2.1l-.26.24c-.73.7-1.39,1.47-2.1,2.18l-1,1c-.15.17-.32.31-.48.46a1.43,1.43,0,0,0-.43,1.43,1.19,1.19,0,0,0,1.19.83h0a1,1,0,0,0,1-.31c.47-.4.91-.86,1.35-1.29s.8-.77,1.18-1.17c.81-.86,1.61-1.72,2.39-2.6.2-.23.4-.47.58-.72v2.94c0,1.35-.1,2.71-.16,4.06s-.17,2.63-.16,3.94,0,2.84.1,4.27.17,2.65.17,4,0,2.77.11,4.15v2c0,.7.06,1.3.06,1.94v3.27a10.14,10.14,0,0,0,0,1.35,1.07,1.07,0,0,0,.2.63,1.31,1.31,0,0,0,.77.55,1.24,1.24,0,0,0,1.39-.64,2.07,2.07,0,0,0,.18-.69,2.16,2.16,0,0,0,0-.36v-.42c0-.32.06-.64.07-1,.06-1.27.15-2.53.18-3.8s.1-2.71.1-4.07v-4c-.06-2.73-.19-5.45-.21-8.18,0-1.33.07-2.67.11-4s.07-2.74.09-4.11v-3.66a13.55,13.55,0,0,0-.08-1.8c-.06-1,0-2.21-1-2.75a1.46,1.46,0,0,0-.68-.17,1.64,1.64,0,0,0-1.12.48Z" transform="translate(-0.03 0.1)"/><path d="M1413.66,984.82a17.21,17.21,0,0,0-2.67.4,15.56,15.56,0,0,0-2,.65,10.63,10.63,0,0,0-2.34,1.39,13.41,13.41,0,0,0-3.27,3.57,21.24,21.24,0,0,0-2,4.62,1.67,1.67,0,0,0,.22,1.27,1.72,1.72,0,0,0,1,.73,1.79,1.79,0,0,0,1.28-.22,1.82,1.82,0,0,0,.72-1c.09-.28.18-.55.28-.82a14.5,14.5,0,0,1,1.16-2.25,13.3,13.3,0,0,1,1.91-2.06,12.44,12.44,0,0,1,2.16-1.43,13.79,13.79,0,0,1,2.36-.75,18.08,18.08,0,0,1,3.82-.22,9.45,9.45,0,0,1,1.66.36,15.49,15.49,0,0,1,2.45,1.29,10.24,10.24,0,0,1,1.45,1.34,17,17,0,0,1,1.81,3.12,11.29,11.29,0,0,1,.51,1.25,9.35,9.35,0,0,1,.32,1.29,14.86,14.86,0,0,1,.15,2.31,8.09,8.09,0,0,1-.43,1.53,9.62,9.62,0,0,1-.71,1.44c-.43.53-.88,1-1.35,1.55a15.7,15.7,0,0,1-1.26,1.19,21.53,21.53,0,0,1-3.65,2.48c-.68.3-1.37.58-2.06.87a29.71,29.71,0,0,0-2.87,1.31,1.68,1.68,0,0,0-.78,1.5,1.74,1.74,0,0,0,1.27,1.59c.33,0,.66.07,1,.09a4.27,4.27,0,0,0,1-.17c.31-.07.61-.18.91-.28.61-.2,1.23-.37,1.83-.59a17.3,17.3,0,0,0,2-.89,12.94,12.94,0,0,0,1.63-1,24.63,24.63,0,0,0,2.32-1.87,21,21,0,0,0,1.78-1.75,16.16,16.16,0,0,0,1.81-2.31,13.58,13.58,0,0,0,1.09-2.61,7.82,7.82,0,0,0,.33-1.37,16.48,16.48,0,0,0,.06-1.72,17.3,17.3,0,0,0-.48-3.2,13.51,13.51,0,0,0-1.13-2.82,25.34,25.34,0,0,0-1.33-2.46,10.85,10.85,0,0,0-1-1.24,9.44,9.44,0,0,0-1-1,13.18,13.18,0,0,0-2.22-1.55,17.26,17.26,0,0,0-2.9-1.25,10.08,10.08,0,0,0-2.89-.4h-.48a11.47,11.47,0,0,0-1.66.08Z" transform="translate(-0.03 0.1)"/><path d="M1418.94,1009.89a19.41,19.41,0,0,0-3.23.41c-.66.1-1.32.17-2,.3s-1.5.32-2.24.53a1.17,1.17,0,0,0,.72,2.23l.94-.22a6.77,6.77,0,0,1,1.1-.15l1.62-.06c.48,0,1-.06,1.43-.07s.85,0,1.27,0a16.91,16.91,0,0,1,1.73.3c.6.14,1.21.29,1.79.48a11.54,11.54,0,0,1,4.18,3.11,17.75,17.75,0,0,1,1.64,2.57c.29.64.57,1.29.84,1.94a17.37,17.37,0,0,1,.71,2.33c.1.72.16,1.44.22,2.18a18.74,18.74,0,0,1,0,2.37c-.06.51-.17,1-.25,1.51a9.71,9.71,0,0,1-.45,1.66,15.79,15.79,0,0,1-1.73,3.08,17.23,17.23,0,0,1-2.57,2.69,14.32,14.32,0,0,1-2.21,1.5,16.22,16.22,0,0,1-1.91.71,15.64,15.64,0,0,1-1.92.42,18.88,18.88,0,0,1-3.9.29,4.26,4.26,0,0,1-.79-.16,8.88,8.88,0,0,1-.94-.25,24.89,24.89,0,0,1-2.59-1.15c-.56-.29-1.15-.5-1.71-.78a15.05,15.05,0,0,1-1.74-1c-.31-.23-.65-.45-1-.66l-.37-.22c-.63-.5-1.18-1.1-1.77-1.66-.3-.29-.62-.58-.94-.86a4.22,4.22,0,0,0-1.26-1,1.21,1.21,0,0,0-.32-.11,1.83,1.83,0,0,0-1.66.51,2.13,2.13,0,0,0,0,2.85,9,9,0,0,0,1,1.07c.6.62,1.15,1.3,1.77,1.91a15.85,15.85,0,0,0,2.48,1.75,14.69,14.69,0,0,0,3.26,1.65c.74.3,1.45.66,2.21.94.4.14.8.24,1.21.36a14,14,0,0,0,1.69.32,12.14,12.14,0,0,0,2.48.19,21.61,21.61,0,0,0,5.24-.89,8.49,8.49,0,0,0,1-.36c.48-.21,1-.41,1.44-.65l1-.52a5.27,5.27,0,0,0,.86-.63,21.11,21.11,0,0,0,1.91-1.61c.43-.44.88-.87,1.32-1.32a12,12,0,0,0,1.29-1.71c.43-.64.82-1.31,1.19-2a20.18,20.18,0,0,0,1-2.1c.31-.76.66-1.53.89-2.31.1-.31.19-.61.26-.92a9.81,9.81,0,0,0,.17-1.53,22.4,22.4,0,0,0-.07-2.59,16,16,0,0,0-1.24-5,22.58,22.58,0,0,0-1.19-2.6,17.16,17.16,0,0,0-1.36-2,13.44,13.44,0,0,0-4.43-3.64c-.42-.2-.84-.41-1.27-.58a7,7,0,0,0-1.26-.36l-.72-.13a16.65,16.65,0,0,0-2.81-.3Zm-12.07,26.7h.06l-.09-.06Zm.18.12.26.19Zm1.36,5.2h0Z" transform="translate(-0.03 0.1)"/><path d="M1413.85,1123.43c-2,0-4,.13-6,.24-2.25.12-4.5.26-6.75.47a2.59,2.59,0,1,0,.21,5.18c2.21-.21,4.42-.34,6.63-.42,1.92-.08,3.85-.17,5.77-.2s3.62-.15,5.43-.16h4a3.78,3.78,0,0,0,1.55-.39h.19a2.08,2.08,0,0,0,1.41-1.54,2.1,2.1,0,0,0-1.07-2.34,3.11,3.11,0,0,1-.4-.22,3.9,3.9,0,0,0-.93-.36,5.15,5.15,0,0,0-1.24-.1h-8.72Z" transform="translate(-0.03 0.1)"/><path d="M1398.73,1126.34c-.23.93-.42,1.87-.65,2.81s-.42,1.76-.6,2.65c-.36,1.81-.59,3.65-.91,5.47s-.64,3.75-.92,5.64-.5,3.84-.73,5.77c-.13,1.09-.31,2.18-.46,3.27s-.26,2.29-.36,3.44v.48c0,.16-.06.48-.07.72a2.62,2.62,0,0,0,.14.79,2,2,0,0,0,1.45,1.33,1.94,1.94,0,0,0,1.91-.6l.39-.53a2.57,2.57,0,0,0,.23-.6,2,2,0,0,0,.08-.35c.08-.43.13-.87.18-1.3.11-1,.22-1.93.35-2.88.26-1.85.54-3.69.75-5.54.42-3.82,1-7.61,1.41-11.42.16-1.43.25-2.86.37-4.28a32,32,0,0,1,.72-4.12,1.68,1.68,0,0,0-1.24-2h-.37a1.69,1.69,0,0,0-1.62,1.28Zm-4.65,29.25v0Z" transform="translate(-0.03 0.1)"/><path d="M1408.88,1148.66a21.7,21.7,0,0,0-3.75.77,17.21,17.21,0,0,0-3.17,1.31,14.63,14.63,0,0,0-1.25.79l-1.38.9a19.64,19.64,0,0,0-2.36,2c-.88.77-1.71,1.58-2.53,2.41a1.91,1.91,0,1,0,2.68,2.73l.13-.15c.58-.58,1.17-1.14,1.79-1.68a20.31,20.31,0,0,1,2.44-1.68,24.45,24.45,0,0,1,2.5-1.37,19.54,19.54,0,0,1,3.5-1.12,23.38,23.38,0,0,1,4.8-.29,11.5,11.5,0,0,1,2.32.54c.74.31,1.43.72,2.14,1.1a13,13,0,0,1,1.42.85,18.19,18.19,0,0,1,1.71,1.45c.45.43.86.91,1.27,1.38a16.52,16.52,0,0,1,1,1.47c.26.44.52.88.75,1.33.48,1.28.84,2.6,1.21,3.93s.6,2.38.83,3.59a32.69,32.69,0,0,1,.26,7.33,29.85,29.85,0,0,1-.47,3.38,28.34,28.34,0,0,1-1.1,3.72,23,23,0,0,1-2,3.72c-.33.45-.68.88-1,1.29a11,11,0,0,1-3.09,2.41c-.81.42-1.61.83-2.42,1.22a18,18,0,0,1-3.85,1.15,16.24,16.24,0,0,1-3.75.17,24.31,24.31,0,0,1-5.37-1.42l-.44-.16a19.12,19.12,0,0,1-2.15-1.13,16.84,16.84,0,0,1-1.59-1c-.67-.5-1.34-1-2-1.53a11.76,11.76,0,0,1-1.51-1.4l.22.26c-.53-.61-1.1-1.17-1.64-1.76a1.92,1.92,0,0,0-2.62-.71,1.88,1.88,0,0,0-.92,1.24c-.42,1.69.93,2.75,1.92,3.85a23.39,23.39,0,0,0,4.21,3.8c.82.57,1.67,1.07,2.54,1.56.44.24.86.49,1.31.69s.92.36,1.38.54c.94.35,1.88.68,2.85,1a15.76,15.76,0,0,0,2.64.5,15.48,15.48,0,0,0,3.6,0,29.31,29.31,0,0,0,3.6-.69c.76-.19,1.51-.42,2.24-.66a22.5,22.5,0,0,0,3-1.37,16.58,16.58,0,0,0,2.42-1.38,15.59,15.59,0,0,0,2.43-2.09,18.55,18.55,0,0,0,3.27-5.2,30.48,30.48,0,0,0,1.91-6.27,41,41,0,0,0,.59-6.55,19.93,19.93,0,0,0-.23-3.18c-.16-1.18-.37-2.33-.64-3.48-.46-2-.85-4-1.49-5.92a18,18,0,0,0-1.28-2.91,17.39,17.39,0,0,0-1.54-2.42,27.32,27.32,0,0,0-2.4-2.75,14.59,14.59,0,0,0-2.9-2.1c-.52-.31-1-.63-1.59-.92a12.62,12.62,0,0,0-2.15-.8,13.09,13.09,0,0,0-3.29-.49h-.59a17.23,17.23,0,0,0-2.38.19Zm10.49,40.85-.21.18Zm-18.2,2h0Zm-5.26,2.07a1.09,1.09,0,0,0-.17-.13Zm-.17-.13-.16-.11-.13-.09Z" transform="translate(-0.03 0.1)"/><path d="M1621,1135c-.77,0-1.55,0-2.32.07s-1.73.06-2.6.16a10.64,10.64,0,0,0-2.6.64c-.9.35-1.78.75-2.65,1.18a21.73,21.73,0,0,0-2.11,1.17,15.46,15.46,0,0,0-2.15,1.64,33.27,33.27,0,0,0-3,3.17,14.26,14.26,0,0,0-2.48,4.09,11.63,11.63,0,0,0-.91,5.43,14,14,0,0,0,1.27,4.93,27.19,27.19,0,0,0,2.33,4.23,17.48,17.48,0,0,0,2.83,3c.58.46,1.17.9,1.78,1.32a13.25,13.25,0,0,0,1.45.87,17.27,17.27,0,0,0,2.42.93,6.11,6.11,0,0,0,.85.18,1.31,1.31,0,0,0,.79.23h1.33a15.54,15.54,0,0,0,1.93,0l2.17-.07a17.72,17.72,0,0,0,2.52-.12c.84-.12,1.84-.21,2.76-.38a9.75,9.75,0,0,0,2.25-.62c.8-.37,1.61-.72,2.38-1.16a28.4,28.4,0,0,0,4.12-2.92,7.18,7.18,0,0,0,.92-.82c.26-.3.51-.6.76-.91a20.87,20.87,0,0,0,1.59-2.26,18.15,18.15,0,0,0,1-1.84,10.28,10.28,0,0,0,.71-2.37,18,18,0,0,0,.37-4.91,13,13,0,0,0-.42-2.47,10.12,10.12,0,0,0-.43-1.08c-.21-.48-.43-.94-.65-1.41.07.15.14.31.22.46-.39-.81-.78-1.62-1.25-2.39-.17-.28-.34-.57-.53-.85a11.36,11.36,0,0,0-.77-.92l-.44-.49a18.87,18.87,0,0,0-1.62-1.74,14.38,14.38,0,0,0-2.18-1.55,15.77,15.77,0,0,0-4.7-1.7c-.7-.16-1.41-.31-2.11-.44a14.33,14.33,0,0,0-2.62-.21Zm-1.58,3.89a29.36,29.36,0,0,1,3.25,0c.77.12,1.52.29,2.28.46a18,18,0,0,1,2.06.59,12,12,0,0,1,2.3,1.28,11.7,11.7,0,0,1,1.53,1.37l1.42,1.61a15,15,0,0,1,1,1.62c.31.53.59,1.08.86,1.64.15.32.29.64.42,1a6.2,6.2,0,0,1,.24.87,13.21,13.21,0,0,1,.12,2.81c-.06.5-.14,1-.23,1.48a14.52,14.52,0,0,1-.38,1.58,13.11,13.11,0,0,1-.87,1.66c-.34.57-.69,1.13-1.06,1.67a13.88,13.88,0,0,1-1,1.29A13.73,13.73,0,0,1,1630,1161l.35-.29a22.67,22.67,0,0,1-2.11,1.53,20.85,20.85,0,0,1-2.07,1.14,11.28,11.28,0,0,1-1.59.6c-.62.17-1.26.3-1.88.43l-1.07.23a2,2,0,0,0-1.38-.57h-3.14a18.94,18.94,0,0,1-2.61,0,8.33,8.33,0,0,1-1-.16,9.07,9.07,0,0,1-1.15-.37,10.07,10.07,0,0,1-1-.44,7.61,7.61,0,0,1-.87-.51c-.55-.34-1.09-.69-1.62-1.06a13.77,13.77,0,0,1-2.11-2,17.92,17.92,0,0,1-2-3.41,12.89,12.89,0,0,1-.78-2.42,11.2,11.2,0,0,1-.14-2.24,10.69,10.69,0,0,1,.5-2.44,12.84,12.84,0,0,1,.59-1.37,16.86,16.86,0,0,1,.87-1.48,28.51,28.51,0,0,1,3.91-4.16,14.1,14.1,0,0,1,1.55-1c.57-.34,1.15-.65,1.75-1a7,7,0,0,1,1.47-.59,10.14,10.14,0,0,1,1.42-.44,34.68,34.68,0,0,1,3.53-.24Zm-6.58,1.34-.13.06Zm13.7,23-.31.14Z" transform="translate(-0.03 0.1)"/><path d="M1627.88,1163.68c-1.69.08-3.39.15-5.08.32-.85.09-1.71.17-2.56.24s-1.69.19-2.53.27a23.37,23.37,0,0,0-3,.46c-.87.21-1.72.45-2.57.71a20.55,20.55,0,0,0-2.27.83c-.86.38-1.67.85-2.49,1.29-.32.17-.64.34-.94.54s-.76.58-1.14.87a16.16,16.16,0,0,0-2.21,2,21.42,21.42,0,0,0-1.89,2.46c-.48.7-1,1.39-1.41,2.11s-.84,1.37-1.22,2.08a20.54,20.54,0,0,0-1.89,5.08,25.09,25.09,0,0,0-.47,2.59c0,.36-.07.73-.1,1.1h0c-.1,1.09-.22,2.18-.25,3.27a13.38,13.38,0,0,0,.23,2.53,16.17,16.17,0,0,0,.71,2.84,20.56,20.56,0,0,0,1.18,2.62,14.4,14.4,0,0,0,1.32,2.06,27.39,27.39,0,0,0,1.81,2.22,22.37,22.37,0,0,0,4.22,3.35c1,.6,2,1,3,1.57a12.27,12.27,0,0,0,1.37.88c.5.22,1,.38,1.53.56l1.73.66h-.12c.62.23,1.23.49,1.86.66a7.93,7.93,0,0,0,2.43.11c.6,0,1.21-.07,1.81-.12a15.9,15.9,0,0,0,2.37-.42,1.84,1.84,0,0,0,1.27-1.82,1.87,1.87,0,0,0-.59-1.27,2,2,0,0,0-1.31-.48c-.9,0-1.79-.08-2.68-.07h-2.38a14.09,14.09,0,0,1-2.11-.6l-1.6-.55a5.17,5.17,0,0,1-.74-.38,14.69,14.69,0,0,0-1.74-1.17c-.57-.32-1.13-.66-1.68-1a18.92,18.92,0,0,1-3-2.58,18.17,18.17,0,0,1-1.33-1.8c-.4-.63-.76-1.27-1.1-1.93a14.08,14.08,0,0,1-.56-1.4,15.6,15.6,0,0,1-.42-1.63,16.43,16.43,0,0,1-.22-2.1q0-1.31.12-2.61v-.17l.09-1.07a24.79,24.79,0,0,1,1.14-5.38,38.85,38.85,0,0,1,3.73-7,23,23,0,0,1,1.67-2,22,22,0,0,1,1.78-1.7,16.32,16.32,0,0,1,3-1.93,30.61,30.61,0,0,1,3.08-1.12c1.12-.35,2.26-.53,3.4-.78,2.15-.47,4.3-1,6.46-1.39a18.84,18.84,0,0,1,2.37-.24.77.77,0,0,0,0-1.54ZM1601.32,1187v0Zm-5.22.07a1,1,0,0,0,0,.24A1,1,0,0,1,1596.1,1187.07Zm5.15.79v.29l.06-.7v.41Z" transform="translate(-0.03 0.1)"/><path d="M1624.74,1164.43c-.83.08-1.65.23-2.48.35s-1.74.31-2.61.5-1.47.25-2.2.41a27.71,27.71,0,0,0-3.53,1c-1.34.44-2.65.93-4,1.45a.55.55,0,0,0,.34,1h0c.87-.35,1.76-.67,2.66-1a20.68,20.68,0,0,1,2.44-.6c.56-.08,1.13-.17,1.7-.21a14.55,14.55,0,0,1,2.09,0c.7.06,1.22,0,1.83,0a12.45,12.45,0,0,1,1.74.08,11,11,0,0,1,2.13.41c.39.16.77.36,1.16.54s.91.37,1.35.6c.81.42,1.61.85,2.37,1.34l.74.59a13.82,13.82,0,0,1,1.2,1c.77.67,1.5,1.38,2.2,2.12.27.35.51.72.77,1.08s.63.78.92,1.19a13.17,13.17,0,0,1,1.32,2.27,27.12,27.12,0,0,1,1.65,4.87c.19,1.32.33,2.66.42,4a30.6,30.6,0,0,1,.12,4.06,15.8,15.8,0,0,1-.43,2.26c-.19.69-.39,1.38-.62,2.07a14.9,14.9,0,0,1-1.35,2.4,15.21,15.21,0,0,1-1.92,2.17c-.67.53-1.38,1-2.08,1.48-.39.26-.77.52-1.18.76s-.69.37-1,.54c-1.3.57-2.65,1.07-4,1.53-.76.26-1.52.46-2.29.68s-1.32.41-2,.57a10.36,10.36,0,0,1-2.08.1c-.61-.07-1.22-.12-1.84-.18s-1.44-.06-2.16-.1a1.8,1.8,0,0,0-.33,3.56l2.89.45c.5.08,1,.14,1.5.19a9.94,9.94,0,0,0,1.89,0,26,26,0,0,0,2.63-.53c.77-.17,1.55-.3,2.32-.46,1.43-.29,2.86-.63,4.27-1.06a20.77,20.77,0,0,0,4.73-2.26,15,15,0,0,0,3.84-3.21,25.78,25.78,0,0,0,1.66-2.23c.35-.53.7-1.07,1-1.64a12.46,12.46,0,0,0,1-2.49,19.49,19.49,0,0,0,.53-2.13,17.72,17.72,0,0,0,.19-3c0-.82-.08-1.64-.13-2.45-.09-1.67-.21-3.33-.4-5a24.07,24.07,0,0,0-1.38-5.27c-.34-.91-.72-1.78-1.14-2.66a11.94,11.94,0,0,0-1.13-2c-.44-.59-.92-1.16-1.37-1.76a14.59,14.59,0,0,0-1.41-1.63l-.93-.83a20.47,20.47,0,0,0-2.22-1.71l-.94-.59a8.11,8.11,0,0,0-.89-.54,18.47,18.47,0,0,0-2.59-1.1c-.73-.25-1.5-.4-2.24-.6a8.85,8.85,0,0,0-2.29-.38h-.42Z" transform="translate(-0.03 0.1)"/><path d="M1663.59,797.49a7.26,7.26,0,0,0-1.78,2.63c-.67,1.15-1.3,2.32-2,3.42a28.1,28.1,0,0,1-2.29,2.86c-.94,1.07-2,2-3,3-2.28,2.25-4.5,4.57-6.73,6.87a2.26,2.26,0,0,0,3.33,3.06h0c1.76-1.82,3.52-3.64,5.3-5.44.75-.75,1.5-1.5,2.27-2.24s1.54-1.46,2.24-2.25,1.21-1.41,1.79-2.15c0,1.16,0,2.31-.08,3.46s-.06,2.37,0,3.56c0,2.41.08,4.82,0,7.23s0,4.91.08,7.36.09,5.13.15,7.69,0,4.89.07,7.33-.06,4.77-.07,7.16,0,5-.07,7.43c0,1.94.1,3.87.12,5.81,0,.89,0,1.78.07,2.67a9.38,9.38,0,0,0,.12,1.29,5.79,5.79,0,0,0,.6,2,2.12,2.12,0,0,0,1.9,1,2.17,2.17,0,0,0,2-1.66,12.56,12.56,0,0,0,.29-3.46v-3.33c0-1.11-.06-2.49,0-3.73s.1-2.46.13-3.69c.07-2.49.11-5,.14-7.48s-.09-4.79-.18-7.19c0-1.21-.06-2.42-.1-3.62s-.1-2.38-.12-3.57c0-2.51-.19-5-.29-7.53s-.1-4.87-.18-7.3-.29-5-.36-7.47v-5.9c0-1,.06-2,.07-3V800.8a4.65,4.65,0,0,0-.44-2.67,2.22,2.22,0,0,0-1.83-1,1.91,1.91,0,0,0-1.11.34Z" transform="translate(-0.03 0.1)"/><path d="M1696.35,797.64a32.56,32.56,0,0,0-3.93.54,15,15,0,0,0-3.61,1.31,31.65,31.65,0,0,0-2.92,1.59,34.65,34.65,0,0,0-2.89,2.08c-.52.41-1,.82-1.51,1.25a12.86,12.86,0,0,0-1.28,1.17,18.59,18.59,0,0,0-1.34,1.73l-.61.92a10.1,10.1,0,0,0-1,2,2,2,0,0,0-.13,1.41,1.86,1.86,0,0,0,.88,1.05,1.84,1.84,0,0,0,2.46-.76,10.76,10.76,0,0,1,.89-1.76,13.63,13.63,0,0,1,1.64-1.76q1.65-1.27,3.39-2.4a34.64,34.64,0,0,1,3.48-1.93,23.28,23.28,0,0,1,2.27-.9,19.53,19.53,0,0,1,2-.51,30.8,30.8,0,0,1,4.7-.26,22,22,0,0,1,4.1.78,14.25,14.25,0,0,1,2,1.16c.52.4,1,.8,1.53,1.26a13.64,13.64,0,0,1,1.5,1.6,16.52,16.52,0,0,1,1.79,3,13,13,0,0,1,.65,2,19.46,19.46,0,0,1,.21,3,15.46,15.46,0,0,1-.68,2.57,16,16,0,0,1-1.45,2.86,37.14,37.14,0,0,1-5.34,5.73,14.16,14.16,0,0,1-1.38,1,15.28,15.28,0,0,1-1.52.87,20.34,20.34,0,0,1-4.4,1.27c-1.14.19-2.27.38-3.38.67a2.44,2.44,0,0,0-.91,4.13,2.64,2.64,0,0,0,1.76.65,20.59,20.59,0,0,0,3.14-.16,25.27,25.27,0,0,0,3.35-.6,17.09,17.09,0,0,0,5.09-2.11,26.32,26.32,0,0,0,4-3.38,31.05,31.05,0,0,0,3.47-4.21l-.06.09c.11-.16.23-.32.33-.48l.07-.09v.07a14.46,14.46,0,0,0,1.09-1.91,30.13,30.13,0,0,0,1.51-4,11.61,11.61,0,0,0,.52-3.75,25.38,25.38,0,0,0-.49-3.89,13,13,0,0,0-1.43-3.55c-.26-.48-.52-.95-.79-1.42a19.49,19.49,0,0,0-2.93-3.54c-.48-.44-1-.85-1.51-1.25a14.64,14.64,0,0,0-5.16-2.65,19.8,19.8,0,0,0-3.34-.59c-.87-.08-1.74-.14-2.61-.14h-1.2Z" transform="translate(-0.03 0.1)"/><path d="M1702,830.12h-.69a11.6,11.6,0,0,0-1.44.09,14.56,14.56,0,0,0-1.72.35,47.52,47.52,0,0,0-6.11,2.13,1.08,1.08,0,0,0,.66,2.06,16.79,16.79,0,0,1,2.67-.82,18.53,18.53,0,0,1,3.16.05,17,17,0,0,1,2.92.52c.87.24,1.73.54,2.59.85a20.42,20.42,0,0,1,2.11.88,17.72,17.72,0,0,1,2,1.21,25.45,25.45,0,0,1,3.74,3.21,21,21,0,0,1,2.5,3.55c.32.78.58,1.56.82,2.36a16.82,16.82,0,0,1,.45,2,21.46,21.46,0,0,1,.14,4.46c0,.36-.09.72-.15,1.07s-.22,1-.34,1.48c-.18.72-.41,1.41-.65,2.1a21.48,21.48,0,0,1-1.68,3.4,13,13,0,0,1-1.39,1.58c-.54.53-1.1,1-1.67,1.56a13.48,13.48,0,0,1-2.1,1.46,26.84,26.84,0,0,1-2.48,1.46,25.71,25.71,0,0,1-4.82,1.75,21.07,21.07,0,0,1-4.56.13,16.79,16.79,0,0,1-3.14-.55c-.82-.33-1.62-.69-2.42-1s-1.74-.94-2.62-1.39-1.76-.86-2.63-1.3a23.15,23.15,0,0,1-2.47-1.41c-.78-.58-1.53-1.17-2.26-1.82a12.34,12.34,0,0,1-1.07-1,8.78,8.78,0,0,0-.79-.7h0a2,2,0,0,0-.87-.46,2.11,2.11,0,0,0-1,0,2,2,0,0,0-1.34,1.93,4.94,4.94,0,0,0,1.57,2.86,20.36,20.36,0,0,0,1.94,2,22.37,22.37,0,0,0,2.5,2,26.72,26.72,0,0,0,2.49,1.43l2.4,1.22A20.66,20.66,0,0,0,1689,872a30.61,30.61,0,0,0,3.12,1,10.11,10.11,0,0,0,1.9.18l1.35.08a26.29,26.29,0,0,0,6-.54,20.46,20.46,0,0,0,2.63-.81c.85-.31,1.69-.66,2.5-1.05a39.62,39.62,0,0,0,5.16-3,27.34,27.34,0,0,0,2.25-1.77,15.81,15.81,0,0,0,1.93-1.82,17.56,17.56,0,0,0,3-5c.36-.91.67-1.83.94-2.77a16,16,0,0,0,.54-2.56,23,23,0,0,0-.61-8.82,15.71,15.71,0,0,0-1.29-3.38,26.52,26.52,0,0,0-1.6-2.59,21.48,21.48,0,0,0-2-2.56,24.32,24.32,0,0,0-4.87-4,10.35,10.35,0,0,0-1.16-.68,18,18,0,0,0-2-.78,25.65,25.65,0,0,0-2.7-.73,11.29,11.29,0,0,0-1.14-.19,10,10,0,0,0-1.1-.09Zm12.61,27.77-.09.23Zm-36,2h0Z" transform="translate(-0.03 0.1)"/><path d="M1130.24,662.81a33.24,33.24,0,0,0-3.69,1.82,19.58,19.58,0,0,0-3.27,2.29,24.39,24.39,0,0,0-2.52,2.46,16.24,16.24,0,0,0-2.21,3,28.39,28.39,0,0,0-1.88,4.81,9.49,9.49,0,0,0-.39,1.48c-.13.8-.17,1.62-.25,2.42l-.06.67a2.38,2.38,0,0,0,.4,1.26,2.48,2.48,0,0,0,1.55,1.09,2.54,2.54,0,0,0,1.92-.33,2.44,2.44,0,0,0,1.09-1.55c.08-.77.13-1.55.24-2.32a6.72,6.72,0,0,1,.28-1,27.57,27.57,0,0,1,2.29-4.89c.47-.63,1-1.26,1.47-1.84s1.26-1.33,1.93-2a28.46,28.46,0,0,1,4.81-3c.67-.29,1.34-.56,2-.79a16.36,16.36,0,0,1,1.83-.47,15.08,15.08,0,0,1,1.89-.17h1a13,13,0,0,1,1.73.36,24.07,24.07,0,0,1,2.12,1.15c.48.28,1,.55,1.43.85a9.44,9.44,0,0,1,1,1,18.08,18.08,0,0,1,2,3.25,13.47,13.47,0,0,1,.8,2.55c.1.66.17,1.31.21,2a16.68,16.68,0,0,1,0,2,14.68,14.68,0,0,1-.49,2.46,22.21,22.21,0,0,1-2.06,3.65,17.9,17.9,0,0,1-1.23,1.53,16.35,16.35,0,0,1-1.8,1.63l.49-.41c-1.47,1.21-3.1,2.2-4.66,3.3-.71.5-1.39,1-2.08,1.55s-1.41,1-2.11,1.47-1.43,1-2.16,1.53c-1,.71-1.91,1.49-2.84,2.28a27.7,27.7,0,0,0-2.21,2c-.39.39-.76.77-1.12,1.18a16.11,16.11,0,0,0-1.21,1.64l.11-.17c-1.37,2-2.65,4-3.87,6-.52.88-1.1,1.74-1.57,2.65s-1,2-1.54,2.95a23.42,23.42,0,0,0-1.37,3.32c-.38,1.06-.68,2.14-1,3.21a37.72,37.72,0,0,0-1.34,5.84c-.12.82-.17,1.66-.24,2.5a9.43,9.43,0,0,0,.1,3.63,2.27,2.27,0,0,0,4.37-.19,21.49,21.49,0,0,0,.19-3V729a35.29,35.29,0,0,1,1.11-5.76c.23-.86.54-1.71.81-2.56s.58-1.84.9-2.75c.74-2,1.51-3.93,2.41-5.83.53-1.16,1.11-2.3,1.75-3.4s1.29-2,2-3c.43-.6.88-1.19,1.36-1.75a14.92,14.92,0,0,1,1.58-1.5c.9-.71,1.8-1.42,2.72-2.09s1.85-1.26,2.79-1.86,1.69-1.06,2.52-1.6,1.7-1.17,2.56-1.73,1.92-1.21,2.87-1.83a29.31,29.31,0,0,0,3.12-2.43,17.2,17.2,0,0,0,2.18-2.41,26.71,26.71,0,0,0,2.17-3.29,12.65,12.65,0,0,0,1.43-3.49,18.22,18.22,0,0,0-.13-7.92,13.28,13.28,0,0,0-1.22-3.4,17.51,17.51,0,0,0-4.29-5.83,15.5,15.5,0,0,0-2-1.29l-1.49-.88a10.68,10.68,0,0,0-5.33-1.33h-.22a20.86,20.86,0,0,0-7.67,1.65Zm-2.77,42.68a.91.91,0,0,1-.11.16Z" transform="translate(-0.03 0.1)"/><path d="M1121.68,730.07c-1.74,0-3.48.15-5.22.29a2.32,2.32,0,1,0,.2,4.64h0c1.32-.1,2.64-.19,4-.19s2.65,0,4,.08,2.45.18,3.68.26l3.69.21a134.08,134.08,0,0,0,14.73.32,23.21,23.21,0,0,0,2.35-.17,6.56,6.56,0,0,0,1.07-.15c.36-.06.62-.1.92-.17a3.38,3.38,0,0,0,.79-.38,2.15,2.15,0,0,0,.29-3.39,3.55,3.55,0,0,0-1.36-.71,8.17,8.17,0,0,0-1.21-.15c-.61,0-1.23-.06-1.84-.07-1.16,0-2.33-.08-3.49-.1l-7.4-.16c-2.56-.05-5.11-.11-7.67-.11-1.2,0-2.4-.06-3.6-.08h-3.88Z" transform="translate(-0.03 0.1)"/><path d="M1180.49,661.76c-.16.15-.3.34-.44.5a9.89,9.89,0,0,0-.76,1.07l-.72,1.07-1.34,2c-.84,1.17-1.71,2.33-2.57,3.48s-1.91,2.61-2.9,3.87a67.66,67.66,0,0,1-6.19,6.81,1.84,1.84,0,0,0,.11,2.59,1.82,1.82,0,0,0,2.57-.1h0a86.81,86.81,0,0,0,7.92-8.68c1.2-1.5,2.37-3,3.55-4.54a42.06,42.06,0,0,0,3.23-4.7,6.36,6.36,0,0,0,.49-1.1,2.63,2.63,0,0,0,.22-1.07,1.87,1.87,0,0,0-1-1.54,1.78,1.78,0,0,0-.82-.21,2,2,0,0,0-1.39.59Z" transform="translate(-0.03 0.1)"/><path d="M1182.14,660.28a2.11,2.11,0,0,0-2,2.16v6.94c0,2.23-.12,4.46-.22,6.69s-.21,4.5-.24,6.75,0,4.38,0,6.58.12,4.57.18,6.85.06,4.33,0,6.49-.19,4.42-.25,6.62-.09,4.33-.07,6.49c0,2.93,0,5.87.09,8.8,0,1.42.07,2.84.11,4.26a16.39,16.39,0,0,0,.08,2,10.59,10.59,0,0,0,.29,2.45,2.09,2.09,0,0,0,4-.17,14,14,0,0,0,0-3.42l-.15-3c-.12-2.17-.27-4.34-.34-6.51s0-4.32,0-6.48v-6.7c.11-4.34.26-8.68.32-13,0-2.28,0-4.56.07-6.84s.14-4.37.17-6.55c0-3,.07-5.93.09-8.89,0-3.18-.12-6.36-.13-9.54a2.08,2.08,0,0,0-2.08-2Z" transform="translate(-0.03 0.1)"/><path d="M1477.28,1047.65a7.35,7.35,0,0,0-1.07.94,16,16,0,0,0-1.29,1.77c-.35.5-.68,1-1,1.52-.73,1-1.43,2-2.14,3-1.29,1.79-2.56,3.59-3.79,5.43a2.5,2.5,0,0,0-.18,2,2.62,2.62,0,0,0,1.26,1.51,2.68,2.68,0,0,0,2,.18,2.86,2.86,0,0,0,1.51-1.27c.43-.63.86-1.26,1.3-1.88.9-1.27,1.81-2.52,2.7-3.79v3.3c0,1.1,0,2.37.12,3.56.14,2.27,0,4.55,0,6.82,0,1.18.07,2.37.12,3.55s.06,2.19.14,3.27a17.42,17.42,0,0,0,.2,1.77c.06.59.13,1.42.18,2.13s.08,1.27.13,1.89a7,7,0,0,0,.33,2.4,2.22,2.22,0,0,0,4.29-.18,10.39,10.39,0,0,0,.11-1.85V1082q0-1.62-.09-3.24a11.21,11.21,0,0,1,0-1.42,15.16,15.16,0,0,0,.08-1.75c0-1.12-.06-2.24-.1-3.36-.1-2.31-.12-4.61-.13-6.92,0-1.19-.15-2.38-.23-3.57s0-2.35-.13-3.53c-.11-1.44-.24-2.89-.35-4.34s-.14-2.85-.33-4.25a4.19,4.19,0,0,0-.17-1,2.18,2.18,0,0,0-1-1.23,2.05,2.05,0,0,0-1-.24,2.25,2.25,0,0,0-1.35.44Zm-3.14,12.85-.15.21Z" transform="translate(-0.03 0.1)"/><path d="M1543.91,1045.44a2.43,2.43,0,0,0-1.1.73.76.76,0,0,0-.11.14l-.26.31c-.21.25-.41.52-.6.78-.68.93-1.35,1.88-2.07,2.78-1,1.3-2.15,2.53-3.22,3.8-1.21,1.43-2.39,2.88-3.59,4.32a2.39,2.39,0,0,0,3.52,3.24c1.17-1.41,2.33-2.82,3.52-4.21.73-.84,1.49-1.66,2.24-2.49v.8c-.1,2.25-.26,4.51-.27,6.77s0,4.56,0,6.85v6.63c0,1.08-.09,1.93-.12,2.89s-.09,2-.12,3.07a52.25,52.25,0,0,0,0,5.87,2.31,2.31,0,0,0,2.38,2.18,2.28,2.28,0,0,0,1.58-.73,2.46,2.46,0,0,0,.6-1.64v-3.42c0-1.18,0-2.36.11-3.53s.08-2.3.14-3.44.13-2.1.15-3.15c0-2.24.21-4.48.23-6.72,0-1.14.07-2.29.1-3.43s0-2.38.08-3.56c.07-2,.07-4,.1-6,0-1.1,0-2.19.06-3.29v-2.46a4.28,4.28,0,0,0-.56-2.07,2.33,2.33,0,0,0-.87-.81,2.49,2.49,0,0,0-1.16-.29,1.46,1.46,0,0,0-.65.13Z" transform="translate(-0.03 0.1)"/><path d="M1508.58,974.06a17.11,17.11,0,0,0-2.26.34,11.92,11.92,0,0,0-1.55.56,13.2,13.2,0,0,0-4,2.54,16.11,16.11,0,0,0-2.36,3.09,20.72,20.72,0,0,0-1.45,3c-.18.46-.37.93-.52,1.4a7.07,7.07,0,0,0-.27,1.43l-.27,2.15a2.27,2.27,0,0,0,.28,1.61,2.14,2.14,0,0,0,1.29.91,2.11,2.11,0,0,0,2.52-1.58,25.35,25.35,0,0,1,.51-3.12,20.29,20.29,0,0,1,1.64-3,16.66,16.66,0,0,1,1.87-2.15,6.34,6.34,0,0,1,.91-.62c.32-.18.65-.35,1-.52a9.25,9.25,0,0,1,1.71-.56,16.71,16.71,0,0,1,3-.14,5.4,5.4,0,0,1,.7.13,9.77,9.77,0,0,1,1.31.71,14.44,14.44,0,0,1,1.58,1.45,2.2,2.2,0,0,1,.21.32,6.54,6.54,0,0,1,.26.86,13.53,13.53,0,0,1,.14,1.91,12.36,12.36,0,0,1-.48,1.68,13.45,13.45,0,0,1-1.2,2.4,17.33,17.33,0,0,1-2.31,2.38c-.47.37-.94.73-1.43,1.07a28.56,28.56,0,0,0-2.48,1.9,50.81,50.81,0,0,0-3.63,3.56,29.72,29.72,0,0,0-3.1,3.8c-.58.84-1,1.75-1.61,2.58l.43-.6a14.6,14.6,0,0,0-1.48,2.46c-.33.72-.63,1.45-.91,2.19-.46,1.23-.89,2.48-1.3,3.72a28.88,28.88,0,0,0-1,4c-.12.61-.21,1.23-.31,1.85a9,9,0,0,0-.23,2.26,2.6,2.6,0,0,0,2,2.35,2.51,2.51,0,0,0,2.78-1.28,16.06,16.06,0,0,0,.79-2.81c.24-1,.5-2,.79-2.94s.59-1.72.87-2.57l.63-1.77a19.86,19.86,0,0,1,2-3.82c.31-.45.63-.9.9-1.38s.5-.87.77-1.29a28.62,28.62,0,0,1,2.61-3c1.07-1.09,2.12-2.19,3.26-3.2.83-.65,1.72-1.23,2.54-1.9a27.38,27.38,0,0,0,2.33-2.11,15.3,15.3,0,0,0,2.92-3.91,25.19,25.19,0,0,0,1-2.48,9.37,9.37,0,0,0,.53-2,13.69,13.69,0,0,0-.29-4.28,7.13,7.13,0,0,0-1.41-3.16,14.56,14.56,0,0,0-2.22-2.22,13.18,13.18,0,0,0-1.71-1.16,10.23,10.23,0,0,0-1.59-.7,3.56,3.56,0,0,0-.85-.23,15.43,15.43,0,0,0-3.72,0Zm-5.25,33.3-.15.2Z" transform="translate(-0.03 0.1)"/><path d="M1509,1017h-5.25c-2.26.11-4.51.35-6.75.62a3.1,3.1,0,0,0-2.09,1,3,3,0,0,0,.23,4.24,3,3,0,0,0,2.11.76c2.08-.25,4.17-.49,6.27-.59,1.85-.09,3.71-.07,5.57-.07h5.35c.82,0,1.65.08,2.47.12a7.6,7.6,0,0,0,2.77-.22,2.81,2.81,0,0,0,1.78-3.55,2.63,2.63,0,0,0-.29-.61,3.25,3.25,0,0,0-2.23-1.49,10.17,10.17,0,0,0-1.65-.11c-.9,0-1.79-.07-2.69-.11s-1.81-.1-2.72-.1H1509Z" transform="translate(-0.03 0.1)"/><path d="M1412.36,983.74a10.77,10.77,0,0,0-4.43,1.51,13.27,13.27,0,0,0-2.57,2.16,16.11,16.11,0,0,0-1.72,2.31,13.94,13.94,0,0,0-1.11,2.09c-.2.52-.37,1-.54,1.56a7.23,7.23,0,0,0-.59,3.08,1.92,1.92,0,0,0,2,1.79,1.88,1.88,0,0,0,1.8-2V996a1.66,1.66,0,0,1,.11-.39,11,11,0,0,1,.93-1.89,20.4,20.4,0,0,1,2.47-2.7,12.67,12.67,0,0,1,1.78-1.12,11.49,11.49,0,0,1,1.73-.52,19.55,19.55,0,0,1,3.42-.16,8.79,8.79,0,0,1,1.6.43,11.32,11.32,0,0,1,2,1,14.94,14.94,0,0,1,1.15,1,12.51,12.51,0,0,1,1.35,1.47c-.17-.19-.33-.38-.49-.58a13.08,13.08,0,0,1,1.31,1.9,4.69,4.69,0,0,1,.24.75c.07.64.1,1.28.12,1.92s0,1.24,0,1.85a9.5,9.5,0,0,1-.42,1.67,10.68,10.68,0,0,1-1,2,22.16,22.16,0,0,1-3.1,3.46c-1,.7-1.93,1.34-2.94,1.94s-2.08,1.27-3.16,1.83h.06l-1,.52a4.73,4.73,0,0,0-.74.39,2.23,2.23,0,0,0-.91,2.53,2.21,2.21,0,0,0,2.19,1.53,5.58,5.58,0,0,0,1-.12c.54-.09,1.07-.16,1.61-.2a23.55,23.55,0,0,1,2.91,0,14.27,14.27,0,0,1,2.66.62,17.23,17.23,0,0,1,2.48,1.21,8,8,0,0,1,1.21,1.11h0c.28.33.54.67.8,1a10.4,10.4,0,0,1,1,1.67,18.93,18.93,0,0,1,1.15,3.68,22.93,22.93,0,0,1,.21,4.38,18.77,18.77,0,0,1-.93,3.61,17.69,17.69,0,0,1-1.46,3,9.85,9.85,0,0,1-1.25,1.41l-.74.62.44-.37a18.22,18.22,0,0,1-3.37,2.33,14.37,14.37,0,0,1-2,.7c-.67.17-1.37.3-2.06.42a9,9,0,0,1-1.8.14,12.32,12.32,0,0,1-2.25-.55,18.09,18.09,0,0,1-3.47-1.79c-.57-.42-1.14-.87-1.68-1.33a18.42,18.42,0,0,1-1.5-1.56,6.24,6.24,0,0,0-1.87-1.89,2.72,2.72,0,0,0-2.73.11,2.76,2.76,0,0,0-1.12,3.11,6.29,6.29,0,0,0,1.55,2.29q.57.61,1.17,1.2a24.45,24.45,0,0,0,3.52,2.74,11.06,11.06,0,0,0,1.55,1,22.5,22.5,0,0,0,2.84,1.15,16,16,0,0,0,2.89.69,12.82,12.82,0,0,0,3.5,0,32.18,32.18,0,0,0,3.91-.64,15,15,0,0,0,3.15-1.32,20.06,20.06,0,0,0,3.23-2.25,15.08,15.08,0,0,0,1.41-1.2c.41-.43.62-.67.91-1a17.68,17.68,0,0,0,1.59-2.26,16.73,16.73,0,0,0,1.23-2.69,23.53,23.53,0,0,0,1.06-3.47,16.59,16.59,0,0,0,.3-4.61,25.65,25.65,0,0,0-.79-5,19.87,19.87,0,0,0-1.63-4,13.65,13.65,0,0,0-1.76-2.51l-.49-.59a11.27,11.27,0,0,0-3.77-2.94c-.72-.34-1.45-.65-2.2-.92a18.64,18.64,0,0,0,5.91-8c.15-.45.3-.91.41-1.38a9.28,9.28,0,0,0,.25-2.1,20.5,20.5,0,0,0-.11-3.59,8.2,8.2,0,0,0-.57-2.28,15.49,15.49,0,0,0-1.19-2.15,20.89,20.89,0,0,0-1.39-1.72,12.83,12.83,0,0,0-1.51-1.53,18.76,18.76,0,0,0-3.2-2.17,16.09,16.09,0,0,0-2.13-.81,9.76,9.76,0,0,0-2.78-.52h-.45a19.65,19.65,0,0,0-3.06.26Zm8.92,19-.23.32Zm2.43,33-.27.22Zm-8.36,4.16-.55.1Zm7.53-3.47.12-.1Z" transform="translate(-0.03 0.1)"/><path d="M1419.38,1121.76c-.81,0-1.61.09-2.42.1h-2.81c-4.17.25-8.34.71-12.51,1a3,3,0,1,0,.25,6h0c4.09-.29,8.17-.75,12.27-1,1.77-.11,3.55,0,5.33-.15l2.52-.17a12.88,12.88,0,0,0,1.86-.09,3,3,0,0,0,2.36-4.56,2.84,2.84,0,0,0-1.82-1.28,11.42,11.42,0,0,0-1.65-.1c-1.14,0-2.29.12-3.43.2Z" transform="translate(-0.03 0.1)"/><path d="M1397.44,1124.6c-.31,1.79-.56,3.57-.74,5.37-.17,1.61-.42,3.22-.6,4.83-.35,3-.69,5.89-1,8.85-.19,1.77-.39,3.56-.51,5.34-.11,1.53-.13,3.06-.26,4.58,0,.6-.09,1.2-.14,1.8a4.85,4.85,0,0,1-.06.93,4.11,4.11,0,0,0,.17,1.35,2.42,2.42,0,0,0,1.78,1.64,2.47,2.47,0,0,0,2.73-1.24,6.77,6.77,0,0,0,.6-2.06c.12-.58.23-1.16.34-1.74.26-1.34.37-2.72.5-4.08s.32-3,.48-4.5c.18-1.71.26-3.43.39-5.13.11-1.2.24-2.4.33-3.6s.17-2.45.28-3.68.21-2.32.31-3.49.34-2.64.58-4a2.73,2.73,0,0,0-2-3.21,2.76,2.76,0,0,0-.57-.06,2.68,2.68,0,0,0-2.64,2.06Zm3.7,16.29v0Z" transform="translate(-0.03 0.1)"/><path d="M1405.28,1147.69a18.19,18.19,0,0,0-2.51,1.13,17.64,17.64,0,0,0-2.15,1.35,30,30,0,0,0-2.5,2,15.24,15.24,0,0,0-2.22,2.39,7.14,7.14,0,0,0-1,1.84,13.69,13.69,0,0,0-.48,1.66,2.38,2.38,0,0,0,4.63,1.07c.08-.35.17-.68.27-1a5,5,0,0,1,.26-.52,13.82,13.82,0,0,1,1.24-1.3,24.44,24.44,0,0,1,4.26-2.61,18.39,18.39,0,0,1,2.41-.8,15.37,15.37,0,0,1,3.18-.12,32.29,32.29,0,0,1,6,1.32c.41.16.81.33,1.2.52a13.06,13.06,0,0,1,1.64,1,15.31,15.31,0,0,1,1.82,1.69c.36.47.69,1,1,1.42a15.28,15.28,0,0,1,1.07,1.67c.43,1,.83,2.08,1.18,3.13a21.48,21.48,0,0,1,.79,3.06c.19,1.39.28,2.79.39,4.18a28.65,28.65,0,0,1,.06,3.93,30.42,30.42,0,0,1-.6,3.54,32.14,32.14,0,0,1-1,3.44,26.55,26.55,0,0,1-2.43,5,6.14,6.14,0,0,1-.69.75c-.55.44-1.12.86-1.68,1.29a17.73,17.73,0,0,1-2.72,1.83,23.53,23.53,0,0,1-4.39,1.68c-1.14.16-2.3.24-3.46.3a31.76,31.76,0,0,1-3.38,0,15.21,15.21,0,0,1-1.87-.51c-.45-.13-.9-.27-1.34-.42a17.68,17.68,0,0,1-2.73-1.42c-.43-.34-.83-.71-1.23-1.06s-.77-.67-1.13-1c-.47-.59-.94-1.18-1.44-1.74-.19-.22-.4-.42-.59-.63a4,4,0,0,0-.87-.67c-.11-.08-.24-.11-.36-.18a2.58,2.58,0,0,0-2.63.11,2.62,2.62,0,0,0-1.08,3v.07a2.93,2.93,0,0,0,.5,1.16c.17.23.35.45.54.67l.5.61-.06-.07c.54.66,1,1.38,1.56,2a19.15,19.15,0,0,0,2.35,2.24,15.69,15.69,0,0,0,4.12,2.33c.88.34,1.78.64,2.68.9.38.11.75.24,1.13.34a9.76,9.76,0,0,0,2.22.26,34,34,0,0,0,3.78,0,28.26,28.26,0,0,0,4.49-.56,18.65,18.65,0,0,0,3.93-1.54,19.41,19.41,0,0,0,1.92-1,13.5,13.5,0,0,0,2.3-1.74,31.23,31.23,0,0,0,3.3-3,11.7,11.7,0,0,0,1.7-2.7c.26-.52.53-1,.77-1.56s.33-.83.48-1.25c.65-1.7,1.32-3.38,1.87-5.1a27.26,27.26,0,0,0,1.14-5.64,36.89,36.89,0,0,0-.07-8.27,29.82,29.82,0,0,0-2.23-7.61,13.82,13.82,0,0,0-1.17-2.26c-.35-.52-.73-1-1.09-1.53a18,18,0,0,0-2.8-3.11,15.14,15.14,0,0,0-4.43-2.7,24.11,24.11,0,0,0-4.39-1.32,34.42,34.42,0,0,0-4.85-.63h-.25a16,16,0,0,0-4.86.78Zm.4,5.65-.24.12Zm14.19,2.41.18.13Zm11.59,18.59v.35l.07-.75v.4Z" transform="translate(-0.03 0.1)"/><path d="M1619.85,1134.4c-.74,0-1.48.07-2.22.13a19.25,19.25,0,0,0-2.82.45,14,14,0,0,0-2.17.76,30.86,30.86,0,0,0-8,4.76,18.77,18.77,0,0,0-3.83,4.41,15,15,0,0,0-1.93,5.86,16.44,16.44,0,0,0-.08,3.84,18.44,18.44,0,0,0,1.06,4,15.41,15.41,0,0,0,1.61,3.06,10,10,0,0,0,1.94,2.17,27.17,27.17,0,0,0,2.3,1.69,13.2,13.2,0,0,0,1.41.93c.54.28,1.11.5,1.67.73a15,15,0,0,0,3,.9c.73.12,1.49.15,2.23.2h1.58a31.14,31.14,0,0,0,3.47-.25q3.69-.4,7.37-1a2.42,2.42,0,0,0,1.56-.72,2,2,0,0,0,.37-.55c.52-.16,1-.35,1.54-.55a18.73,18.73,0,0,0,3.29-1.72,24.41,24.41,0,0,0,3.18-2.56,10.41,10.41,0,0,0,2.45-4.23,23.16,23.16,0,0,0,.87-3.37,22.45,22.45,0,0,0,.24-3.84v-1.45a13.76,13.76,0,0,0-2.48-6.46,15.62,15.62,0,0,0-3.61-3.32,20.7,20.7,0,0,0-5.15-2.47c-1-.32-1.92-.62-2.89-.91a14.81,14.81,0,0,0-3.56-.59h-.7a14.62,14.62,0,0,0-1.62.06Zm2,5.78a27.16,27.16,0,0,1,5.6,1.53,18.56,18.56,0,0,1,3.13,1.62,16.14,16.14,0,0,1,1.94,1.76,9.92,9.92,0,0,1,.69,1.08,15.29,15.29,0,0,1,.72,2.1,24.18,24.18,0,0,1,.1,3.71,20.53,20.53,0,0,1-.86,3.88,11.65,11.65,0,0,1-.79,1.58,19.55,19.55,0,0,1-2.3,2.34,20.34,20.34,0,0,1-3.26,2.1c-.61.26-1.22.49-1.84.7h-5.23c-1.9,0-3.8,0-5.69-.13a13.08,13.08,0,0,1-1.77-.3c-.36-.09-.72-.2-1.08-.32a10.43,10.43,0,0,1-1.59-.74c-.65-.4-1.28-.86-1.9-1.3l.63.44a13.3,13.3,0,0,1-1.64-1.36,13.72,13.72,0,0,1-1.19-1.93,16.84,16.84,0,0,1-.9-2.85,15.51,15.51,0,0,1,0-2.55,14.64,14.64,0,0,1,.59-2.93,12.31,12.31,0,0,1,.92-1.81,16.81,16.81,0,0,1,2.18-2.36,24.8,24.8,0,0,1,4-2.58,25.82,25.82,0,0,1,4-1.45,26.82,26.82,0,0,1,5.52-.18Zm-17.44.48.19-.16.17-.15Zm.36-.31.16-.13Z" transform="translate(-0.03 0.1)"/><path d="M1621.7,1163.27c-.62,0-1.23.13-1.84.18s-1.15.13-1.72.23h-.82a15.78,15.78,0,0,0-3.55.53,19.89,19.89,0,0,0-4.21,1.68,29.9,29.9,0,0,0-2.93,1.76,20.89,20.89,0,0,0-3,2.21,25.66,25.66,0,0,0-4.48,5.32,26.65,26.65,0,0,0-1.67,3c-.47,1-.93,2-1.34,3.06a22.53,22.53,0,0,0-1,3.11,9.72,9.72,0,0,0-.19,1.52q-.12,1.1-.15,2.19a15.55,15.55,0,0,0,.51,3.59c.21,1,.44,2,.73,3a20.72,20.72,0,0,0,1.31,3.38,15.88,15.88,0,0,0,1.6,2.61,35,35,0,0,0,2.52,2.91,15.19,15.19,0,0,0,2.71,2.07,22,22,0,0,0,2.93,1.91c.6.31,1.21.59,1.82.86a18.68,18.68,0,0,0,4.69,1.3,34.19,34.19,0,0,0,7.36.35c1.15-.08,2.31-.19,3.47-.34a31.78,31.78,0,0,0,3.88-.67,28,28,0,0,0,3.1-1,21.47,21.47,0,0,0,3.63-1.79,18.69,18.69,0,0,0,5.45-4.56,29.38,29.38,0,0,0,2.06-3.34,22.76,22.76,0,0,0,1.5-3.7,21.71,21.71,0,0,0,.92-7.3c0-1.15-.06-2.3-.15-3.44a28.43,28.43,0,0,0-.62-4,24.86,24.86,0,0,0-2.21-6.19,14,14,0,0,0-1.27-1.87,16.52,16.52,0,0,0-2.44-2.71A22.31,22.31,0,0,0,1635,1167c-1.06-.61-2.11-1.28-3.22-1.8-.71-.32-1.44-.59-2.17-.85a9,9,0,0,0-1.92-.5c-1.54-.22-3.11-.24-4.65-.38h.18c-.36,0-.72-.05-1.07-.05Zm-2,5.31a2.68,2.68,0,0,0,1.7-.79v-.06c.76.19,1.51.42,2.26.62,1.2.29,2.43.45,3.61.82a23.24,23.24,0,0,1,3.17,1.65c1.07.64,2.13,1.29,3.17,2a11.12,11.12,0,0,1,1.56,1.43,17.76,17.76,0,0,1,2,2.87,25.89,25.89,0,0,1,.9,2.7c.25.84.47,1.7.65,2.57a41.88,41.88,0,0,1,.28,7.51,20.12,20.12,0,0,1-1,3.9,21.8,21.8,0,0,1-2.1,4,10.9,10.9,0,0,1-1.39,1.49,30.79,30.79,0,0,1-5.14,3.3c-.86.39-1.72.76-2.62,1.07a23.65,23.65,0,0,1-3.12.76c-1.14.19-2.3.35-3.46.45a25.66,25.66,0,0,1-3.72,0,11.62,11.62,0,0,1-7-2.47c-.88-.65-1.72-1.33-2.6-2l.21.15a14.24,14.24,0,0,1-2.35-2.24c-.41-.5-.81-1-1.18-1.53a11.26,11.26,0,0,1-.9-1.54,28.32,28.32,0,0,1-1.67-5.78,14.65,14.65,0,0,1-.09-2.81,8.33,8.33,0,0,1,.16-1c.11-.44.23-.87.37-1.3.45-1.12.93-2.23,1.45-3.32a27.27,27.27,0,0,1,2-3.48,27.66,27.66,0,0,1,3.19-3.48c.89-.68,1.85-1.27,2.77-1.91a28.19,28.19,0,0,1,3-1.78,21,21,0,0,1,4-1.43l1.84-.29Zm-18.85,18.22a1.7,1.7,0,0,1,0,.5A1.73,1.73,0,0,1,1600.85,1186.8Zm23.29,17.49h0Z" transform="translate(-0.03 0.1)"/><path d="M1661.83,796.72c-.26.37-.52.73-.74,1.12-.65,1.1-1.34,2.17-2,3.23-1.73,2.36-3.56,4.65-5.39,6.93-2.21,2.74-4.48,5.4-6.86,8a3,3,0,0,0,4.42,4.06q4.6-5,8.77-10.39c.68-.88,1.35-1.77,2-2.68a11.3,11.3,0,0,0,0,1.3c.1,2.91,0,5.83,0,8.74v9.31c0,3.1.2,6,.32,9s.26,5.86.28,8.79c0,1.58,0,3.16.08,4.74s0,2.89,0,4.34.07,2.89.09,4.34,0,2.89,0,4.34v5.92a17.22,17.22,0,0,0,0,1.76,3.9,3.9,0,0,0,.52,1.63,2.81,2.81,0,0,0,2.52,1.32,3,3,0,0,0,1.43-.45,3.11,3.11,0,0,0,1.24-1.77,7.08,7.08,0,0,0,.25-2V857.84c0-1.48-.07-2.93-.09-4.4s0-2.87,0-4.3-.09-2.89-.1-4.33c0-2.94-.14-5.87-.27-8.81-.14-3.16-.28-6.31-.4-9.47-.11-2.93-.12-5.84-.14-8.76,0-3.12,0-6.24-.1-9.36-.06-1.4-.13-2.81-.22-4.21s-.14-3-.33-4.46c-.08-.65-.18-1.3-.32-1.94a3,3,0,0,0-.86-1.44,2.81,2.81,0,0,0-1.33-.67,3.05,3.05,0,0,0-.6-.06,2.81,2.81,0,0,0-2.24,1.08Z" transform="translate(-0.03 0.1)"/><path d="M1691.26,798.18a21.54,21.54,0,0,0-11.66,7,29.57,29.57,0,0,0-3.75,6.34,2.45,2.45,0,0,0,.07,2,2.58,2.58,0,0,0,1.39,1.29,2.53,2.53,0,0,0,2-.07,2.73,2.73,0,0,0,1.29-1.39c.19-.4.4-.79.6-1.18.37-.62.74-1.22,1.14-1.82a13.78,13.78,0,0,1,1.07-1.35,14.23,14.23,0,0,1,1.53-1.38c.53-.41,1.08-.8,1.64-1.18a26.85,26.85,0,0,1,4.81-2.22c.69-.19,1.38-.36,2.09-.51a22.2,22.2,0,0,1,2.69-.45c.84,0,1.67.07,2.5.13a15.27,15.27,0,0,1,5.56,1.3,19.28,19.28,0,0,1,2.83,2,11.42,11.42,0,0,1,3.29,5.16,14.18,14.18,0,0,1,.5,2.66,10.08,10.08,0,0,1-.18,1.55,23,23,0,0,1-1.88,4.6,20.07,20.07,0,0,1-1.17,2,15,15,0,0,1-1.27,1.59,21.72,21.72,0,0,1-2.29,2c-.63.48-1.25,1-1.89,1.4a13.83,13.83,0,0,1-2,1c-1.09.52-2.17,1-3.28,1.49a2.25,2.25,0,0,0,.16,4.14,2.46,2.46,0,0,0,1.75-.07l1.68-.53a16.23,16.23,0,0,0,3.34-1.06,18.34,18.34,0,0,0,2.65-1.52c.75-.49,1.49-1,2.19-1.55a18.19,18.19,0,0,0,2.33-2.23,14.22,14.22,0,0,0,1.59-2.11c.65-1.09,1.25-2.2,1.83-3.33a17.77,17.77,0,0,0,1.83-5.64,12.13,12.13,0,0,0-.11-3.35,16.34,16.34,0,0,0-1.14-4c-.17-.42-.34-.84-.53-1.25a16.78,16.78,0,0,0-1.17-2.06,14.56,14.56,0,0,0-2-2.45,17.1,17.1,0,0,0-6.61-4.3,26.26,26.26,0,0,0-3.62-.91c-1.17-.19-2.36-.24-3.54-.33h-1.09a23.37,23.37,0,0,0-5.13.69Zm-.25,6.06-.24.08Zm18,15.83c-.06.11-.12.21-.17.32C1708.89,820.28,1709,820.18,1709.06,820.07Z" transform="translate(-0.03 0.1)"/><path d="M1700.32,829.89c-1.23,0-2.45.13-3.67.24a2.29,2.29,0,0,0-1.87,2.64,2.35,2.35,0,0,0,.93,1.48,2.38,2.38,0,0,0,1.7.38l1.78-.14a15.18,15.18,0,0,1,3,.36l.89.22h.12l.54.12h0a13.64,13.64,0,0,1,1.66.47c.53.2,1,.43,1.56.68a18,18,0,0,1,1.56,1,14.22,14.22,0,0,1,1.4,1.17,21.63,21.63,0,0,1,2.85,3.27,14.55,14.55,0,0,1,1.12,2.44,35.72,35.72,0,0,1,1.61,7,24.78,24.78,0,0,1-.41,4.94,17.48,17.48,0,0,1-1.32,3.27,23.34,23.34,0,0,1-2.57,3.81,17.39,17.39,0,0,1-2.59,2.18,18.71,18.71,0,0,1-3.2,1.43,29.84,29.84,0,0,1-6.33,1.33,19.93,19.93,0,0,1-3.92-.57c-1.4-.36-2.74-.92-4.11-1.4a35.87,35.87,0,0,1-4-1.54,39.92,39.92,0,0,1-5.08-3.27,16.86,16.86,0,0,0-3.52-2.46,3.31,3.31,0,0,0-1.68-.18,2.7,2.7,0,0,0-1.26.58,2.86,2.86,0,0,0-1,1.79,3,3,0,0,0,1,2.61,18,18,0,0,0,1.79,1.59c.56.45,1.08.95,1.67,1.37.92.65,1.84,1.31,2.8,1.88,1.13.67,2.29,1.34,3.48,1.9a34.27,34.27,0,0,0,3.25,1.21c1.11.4,2.21.82,3.32,1.2a30.45,30.45,0,0,0,4.22,1c.54.1,1.09.16,1.64.22a16.83,16.83,0,0,0,2.46,0,25.3,25.3,0,0,0,3.87-.69c.6-.14,1.18-.31,1.77-.48a26.62,26.62,0,0,0,2.58-.82c.52-.2,1-.42,1.55-.65a13.7,13.7,0,0,0,2-1.16,19.11,19.11,0,0,0,5.45-5.52,32.68,32.68,0,0,0,2.24-4c.27-.57.51-1.15.75-1.73a13.26,13.26,0,0,0,.63-2.32,24.31,24.31,0,0,0,.36-3.8,19.1,19.1,0,0,0-.19-4,29.08,29.08,0,0,0-.87-3.69c-.43-1.42-.78-2.87-1.35-4.25a16.34,16.34,0,0,0-1.68-3,16.65,16.65,0,0,0-2-2.36,23.89,23.89,0,0,0-2.54-2.28,17,17,0,0,0-3-1.88,16.43,16.43,0,0,0-2.69-1,15.53,15.53,0,0,0-3.78-.53h-1.81Zm13.33,13.65.21.68v-.06l-.19-.62Zm.35,15.39-.09.17Z" transform="translate(-0.03 0.1)"/><path d="M1136.41,661.66c-.91,0-1.82.06-2.72.15a10.91,10.91,0,0,0-1.7.35,19.32,19.32,0,0,0-2.44.8c-.53.22-1,.46-1.55.72a13,13,0,0,0-3,1.85q-1.65,1.5-3.17,3.15a22.9,22.9,0,0,0-3.5,4.9,18.42,18.42,0,0,0-1.16,2.56,25.44,25.44,0,0,0-.79,3,8.11,8.11,0,0,0-.18,3.6,2.23,2.23,0,0,0,4.39-.74,3.39,3.39,0,0,0-.08-.44,14.41,14.41,0,0,1,.26-1.6,18.32,18.32,0,0,1,.94-2.6,21.8,21.8,0,0,1,1.27-2c.46-.65,1-1.26,1.48-1.86a32.55,32.55,0,0,1,4.48-3.89,25.56,25.56,0,0,1,3.43-1.52,10.92,10.92,0,0,1,1.6-.37,15.08,15.08,0,0,1,1.9-.18,13.75,13.75,0,0,1,2.31.1,17.83,17.83,0,0,1,2.85,1,23,23,0,0,1,3.11,2.25,15.28,15.28,0,0,1,1.5,1.9,14.13,14.13,0,0,1,1,2.21,13.15,13.15,0,0,1,.34,2.25,16.29,16.29,0,0,1-.43,3.11A11.58,11.58,0,0,1,1146,682c-.26.63-.55,1.24-.86,1.85a17.37,17.37,0,0,1-2,2.67c-.76.76-1.64,1.4-2.46,2.09s-1.64,1.37-2.52,2c-2.18,1.32-4.43,2.5-6.53,3.94a28.38,28.38,0,0,0-3,2.37,40.06,40.06,0,0,0-3.29,3.35,26.66,26.66,0,0,0-2.23,2.74c-.73,1.06-1.43,2.15-2.1,3.25s-1.33,2.38-1.93,3.59-1.12,2.18-1.6,3.31c-.32.77-.66,1.53-1,2.31a25.56,25.56,0,0,0-.83,2.42c-.26.81-.54,1.62-.79,2.44-.32,1.1-.56,2.23-.79,3.34-.3,1.4-.52,2.8-.74,4.21a31.45,31.45,0,0,0-.42,4.11,3,3,0,0,0,5.34,2,3.7,3.7,0,0,0,.63-1.73v-.52c0-.38.07-.77.1-1.15.07-.79.2-1.58.32-2.37.25-1.62.54-3.22.89-4.82.27-1,.58-2,.93-3.07s.72-2.27,1.18-3.37,1-2.34,1.56-3.49c.47-.94.94-1.88,1.42-2.81.76-1.34,1.6-2.62,2.46-3.9a27.07,27.07,0,0,1,2.57-3.18,32.54,32.54,0,0,1,5.52-4.69c.88-.55,1.76-1.09,2.67-1.6a35.9,35.9,0,0,0,3.62-2.19c1-.74,2-1.57,3-2.38.44-.35.88-.71,1.31-1.08a16.17,16.17,0,0,0,1.72-1.79,19.73,19.73,0,0,0,2.44-3.7,17.75,17.75,0,0,0,1.43-3.5,31.59,31.59,0,0,0,.8-4.32,12.62,12.62,0,0,0,0-2.3,9.71,9.71,0,0,0-.31-1.93,15.75,15.75,0,0,0-1.66-4.13,16.12,16.12,0,0,0-3-3.68,21.11,21.11,0,0,0-3-2.16,16.77,16.77,0,0,0-2.94-1.46,21.12,21.12,0,0,0-3.23-.88,5.2,5.2,0,0,0-1.11-.09h-1.21Zm-14.82,15.88c0,.1-.1.2-.16.3Z" transform="translate(-0.03 0.1)"/><path d="M1181.74,659a3.31,3.31,0,0,0-2.19,1.44,19.62,19.62,0,0,0-1.4,2.69c-.48.83-1,1.63-1.54,2.43-.73,1.11-1.5,2.19-2.32,3.23-1.53,2-3.1,3.92-4.77,5.77s-3.26,3.46-4.92,5.17a3.13,3.13,0,0,0-1,2,3,3,0,0,0,2.65,3.25,2.91,2.91,0,0,0,2.21-.68c1.73-1.77,3.42-3.58,5.13-5.37s3.26-3.67,4.79-5.59c.44-.55.87-1.1,1.29-1.67v.89q0,2.31-.09,4.62c0,1.4-.19,2.8-.25,4.2-.14,2.93-.07,5.87-.07,8.8V699c0,2.38-.1,4.75-.1,7.13V710c0,1.26-.06,2.54-.09,3.81v7.3c0,2,0,4.11.08,6.16h0a.74.74,0,0,1,0,.21v-.15c0,1.45.16,2.88.23,4.32a14.12,14.12,0,0,0,0,1.84,2.7,2.7,0,0,0,3.13,2.19,2.76,2.76,0,0,0,1.24-.57,3.75,3.75,0,0,0,1.14-3c0-.85-.06-1.7-.1-2.56h0v-8.33c0-1.36,0-2.8,0-4.2s.06-3,.1-4.44c.09-2.87.11-5.74.2-8.61s.16-5.63.17-8.46,0-6,0-8.92v-2a21.41,21.41,0,0,1,.09-2.34c.06-1.4.2-2.8.25-4.21.11-2.93.09-5.86.1-8.8v-6.29a4.87,4.87,0,0,0-.48-2.16,4.62,4.62,0,0,0-1.08-1.25,2.74,2.74,0,0,0-1.72-.57,2.22,2.22,0,0,0-.51.06Zm-2.67,67.68Zm0,.62Z" transform="translate(-0.03 0.1)"/><path d="M1116.14,730.09a3,3,0,1,0,1,5.92h0c.91-.18,1.83-.33,2.75-.48.66-.1,1.32-.23,2-.3,1.23-.11,2.45-.2,3.68-.26,4.43,0,8.85.15,13.28.17,2.2,0,4.4.07,6.59.17l2.73.12a26.06,26.06,0,0,0,3.06.08,2.8,2.8,0,0,0,2.18-1.8,3,3,0,0,0-.48-2.82c-1-1.48-2.91-1.35-4.49-1.45-1.33-.07-2.66-.11-4-.17-2.93-.14-5.86-.09-8.79-.11s-5.8-.13-8.69-.16h-.42A54.23,54.23,0,0,0,1116.14,730.09Z" transform="translate(-0.03 0.1)"/></g><g id="Zeichnungseb.-4"><path d="M1118.14.14c-2.82.06-5.63.18-8.45.32s-5.64.22-8.46.22c-11.16,0-22.33.47-33.43,1.56q-9.13.9-18.23,1.86c-6.53.68-13,1.57-19.52,2.46-6,.64-12,1.28-17.95,2-3.26.36-6.51.88-9.75,1.35s-6.22.9-9.33,1.33q-7.07.93-14.14,1.91c-12.1,1.55-24.13,3.53-36.15,5.59L934,20.25c-3,.52-6,1.15-9,1.73-5.89,1.14-11.73,2.55-17.55,4-12.75,3.14-25.52,6.16-38.19,9.63-6.13,1.69-12.26,3.33-18.39,5-5.93,1.62-11.76,3.55-17.59,5.5q-17.53,5.84-35,11.84c-11.5,3.94-23,8-34.38,12.2-2.91,1.09-5.85,2.14-8.75,3.27s-5.91,2.31-8.87,3.45c-5.78,2.22-11.57,4.39-17.33,6.67s-11.52,4.58-17.23,7c-6.16,2.6-12.29,5.26-18.43,7.88q-9.74,4.15-19.42,8.38c-2.58,1.08-5.16,2.16-7.71,3.32Q662,112,658,113.91q-4.34,2.06-8.68,4.07c-2.84,1.33-5.65,2.75-8.49,4.1-5.34,2.53-10.67,5-16,7.68s-11,5.38-16.42,8.16-11.17,5.7-16.75,8.57c-2.47,1.27-4.91,2.59-7.38,3.87-2.86,1.48-5.75,2.93-8.54,4.54q-8.43,4.84-16.92,9.6l-7.55,4.19c-2.5,1.39-4.92,2.92-7.39,4.37-5.4,3.18-10.85,6.29-16.18,9.58s-10.75,6.74-16.15,10.06q-9.06,5.55-18.08,11.14c-5.12,3.18-10.17,6.46-15.21,9.75s-10.07,6.84-15.12,10.23c-4.81,3.23-9.62,6.46-14.39,9.75q-8,5.53-16,11.12c-2.64,1.84-5.25,3.72-7.88,5.58s-4.93,3.71-7.39,5.57c-5.46,4.14-10.84,8.37-16.25,12.57l-15.13,11.7L379,285.62c-2.23,1.73-4.39,3.54-6.58,5.32l-7.23,5.82c-2.78,2.24-5.48,4.59-8.22,6.88-4.8,4-9.52,8.14-14.28,12.2s-9.38,7.78-14,11.69q-7.5,6.14-14.84,12.36c-4.92,4.12-9.7,8.41-14.47,12.69-2,1.76-3.91,3.52-5.86,5.31-2.3,2.1-4.63,4.16-6.88,6.32L279,371.49c-2.54,2.44-5,5-7.5,7.45-4.36,4.32-8.67,8.71-13,13.07-8.7,8.79-17.46,17.53-26,26.45L225.23,426c-2.41,2.51-4.73,5.09-7.1,7.64-2,2.14-3.9,4.36-5.83,6.54s-3.73,4.25-5.57,6.41c-8.44,9.92-16.67,20-24.95,30.09-7.65,9.3-15.67,18.28-23.17,27.69-8.11,10.18-16.19,20.36-24.16,30.64-7.38,9.53-14.52,19.25-21.88,28.81-3.68,4.78-7.46,9.51-10.85,14.51S95.09,588.17,91.64,593Q86,600.86,80.26,608.69c-3.54,4.84-7,9.74-10.55,14.59s-7,9.69-10.57,14.55-7.06,9.68-10.49,14.6q-10.41,14.9-20,30.33-4.93,7.89-9.59,16c-1.59,2.74-3.17,5.48-4.77,8.22s-3.21,5.65-4.79,8.49-3.09,5.89-4.6,8.84c-.74,1.44-1.33,3-2,4.46-1,2.17-1.91,4.34-2.83,6.54a1.06,1.06,0,0,0,.73,1.29,1.07,1.07,0,0,0,1.29-.74l.58-1.38c1.27-3,2.63-6,4-9,.59-1.33,1.35-2.61,2-3.9s1.37-2.73,2.12-4c1.42-2.5,2.78-5,4.26-7.5l5-8.41c6.38-10.73,13.14-21.22,20.18-31.51C54,649.89,69.14,630.67,83.64,611c4.16-5.62,8.49-11.11,12.63-16.75,4.26-5.8,8.33-11.74,12.62-17.51q5.35-6.85,10.77-13.66c4-5,7.91-10.11,11.91-15.13s7.75-9.84,11.65-14.74,8.06-10,12.13-14.91c3.71-4.52,7.43-9.06,11.21-13.53,1.79-2.11,3.56-4.22,5.38-6.3,2.3-2.63,4.61-5.23,6.89-7.87,8.5-9.81,16.87-19.72,25.23-29.64,1.66-2,3.32-3.91,5-5.85,2.1-2.42,4.16-4.89,6.31-7.28l7.32-8.08c2.26-2.5,4.62-4.91,6.93-7.36,4.1-4.35,8.32-8.58,12.52-12.83s8.6-8.68,12.92-13q14.32-14.31,28.76-28.53c8.71-8.53,17.89-16.56,27-24.61,2.9-2.56,5.9-5,8.85-7.51,3.22-2.73,6.53-5.37,9.79-8.06q9.36-7.69,18.83-15.27c5.6-4.51,11.07-9.18,16.66-13.71,3.35-2.71,6.7-5.43,10.1-8.07l8.74-6.78q15.15-11.31,30.26-22.69c4.81-3.63,9.65-7.2,14.51-10.77,2.31-1.7,4.7-3.3,7.06-4.93,2.56-1.78,5.14-3.53,7.72-5.3,4.92-3.36,9.81-6.76,14.78-10,5.23-3.46,10.49-6.85,15.69-10.35s10.63-7.06,16-10.52,10.78-6.74,16.19-10.07c5-3.11,10.11-6.14,15.13-9.27,5.4-3.36,10.78-6.77,16.28-10l16.44-9.61c5.36-3.15,10.86-6,16.26-9.1s10.76-6.15,16.21-9.08c2.71-1.46,5.48-2.82,8.2-4.25s5.48-2.84,8.23-4.26q8.34-4.33,16.78-8.5c5.32-2.61,10.61-5.28,16-7.84,12.81-6.16,25.64-12.26,38.6-18.07,11.74-4.92,23.43-10,35.12-15,5-2.1,10-4.23,15-6.22q9-3.52,18-7c11.68-4.46,23.33-9,35.12-13.15s23.31-8.12,35-12L832,59.51c5.46-1.81,10.92-3.64,16.44-5.26s10.77-3,16.18-4.43c2.54-.68,5.1-1.34,7.65-2s5-1.37,7.51-2c11-2.76,22.08-5.4,33.13-8,2.6-.61,5.18-1.29,7.8-1.83s5.54-1.17,8.32-1.71,5.51-1.1,8.28-1.57l8-1.37c10.37-1.76,20.75-3.46,31.16-4.93,3.72-.47,7.43-1,11.14-1.5,4.4-.58,8.79-1.16,13.18-1.77,3.91-.53,7.81-1.13,11.72-1.68,4.88-.57,9.76-1.11,14.64-1.66,5.3-.6,10.58-1.4,15.86-2.16,10.61-1.25,21.22-2.45,31.86-3.44,4.71-.44,9.45-.7,14.17-1,2.73-.16,5.47-.26,8.2-.34,2.51-.08,5-.08,7.52-.23,5.46-.34,10.9-.71,16.36-1,5-.23,10-.41,14.94-.59,11.54-.41,23.09-.72,34.62-1.09a4.59,4.59,0,1,0,.43-9.17,3.09,3.09,0,0,0-.43,0Q1153,.29,1135.26,0h-5c-4.06,0-8.11.06-12.16.14ZM994.37,11l-1,.14Zm-285.83,93.7-.46.19Z" transform="translate(-0.03 0.1)"/><path d="M1165,0c-9.94.07-19.87.66-29.8.94-10.65.29-21.3.37-32,.65-5,.13-9.92.35-14.89.49-5.16.13-10.31.31-15.47.58s-10.3.66-15.46.87c-5,.21-10,.53-15,.81-2.52.13-5,.29-7.54.44-2.3.15-4.62.33-6.9.63-4.7.61-9.38,1.32-14,2.09-9.72,1.61-19.36,3.71-29,5.83a2.06,2.06,0,1,0,1,4h0c6.11-1.33,12.22-2.56,18.35-3.75,5-1,10.06-1.61,15.11-2.27q3.35-.36,6.69-.68c2.66-.24,5.31-.38,8-.53,2.43-.14,4.89-.15,7.32-.19l8.3-.12c5.16-.07,10.31-.14,15.46-.29,4.8-.13,9.6-.3,14.4-.28,10.27,0,20.54.2,30.8.33,10.62.13,21.23.32,31.85.36,5.16,0,10.32.08,15.48.1q7.47,0,14.92.34,15.69.63,31.37,1.44c9.93.52,19.84,1.27,29.77,1.83,5.3.3,10.6.65,15.9,1,5.11.37,10.23.87,15.34,1.3,12.46,1.07,24.87,2.63,37.25,4.4,4.75.73,9.51,1.49,14.27,2.25,4.93.79,9.9,1.48,14.81,2.43q8,1.55,15.94,3.19c4.71,1,9.46,1.83,14.15,2.94s9.62,2.25,14.43,3.4l8.59,2.05c2.64.64,5.26,1.4,7.89,2.1,4.76,1.28,9.51,2.62,14.27,3.88q7.42,2,14.83,3.9c5,1.31,9.89,2.64,14.79,4.12s9.72,2.93,14.57,4.41,9.72,3,14.6,4.52,10,3,15,4.59c19.64,6.29,39.23,12.75,58.46,20.21,5.44,2.12,10.85,4.32,16.24,6.56,5.64,2.34,11.29,4.64,16.93,7q6.43,2.74,12.81,5.59c4.77,2.13,9.46,4.44,14.16,6.7,4.88,2.36,9.69,4.89,14.51,7.34,4.4,2.23,8.8,4.44,13.19,6.7,8.94,4.6,17.72,9.48,26.47,14.41s17.66,9.91,26.53,14.82c8.7,4.82,17.38,9.68,25.86,14.89q6.51,4,13,7.95c4.09,2.48,8.11,5.06,12.15,7.63l13.13,8.39c3.92,2.5,7.73,5.17,11.57,7.78,2,1.35,4,2.68,6,4.07,2.21,1.56,4.46,3.08,6.61,4.73l13.42,10.27c3.16,2.43,6.36,4.79,9.54,7.2l11.92,9,20,15.14,9,7.1c3.27,2.59,6.62,5.09,9.94,7.62,3.62,2.83,7.25,5.65,10.78,8.59,3.92,3.26,7.78,6.59,11.62,9.94s7.47,6.62,11.25,9.89,7.39,6.61,11,10.06q5.85,5.64,11.58,11.4c1.74,1.75,3.39,3.6,5.08,5.4s3.45,3.73,5.17,5.59,3.24,3.57,4.86,5.35,3.32,3.57,4.9,5.42q5.19,6.08,10.42,12.14,6.81,7.89,13.83,15.6a4.59,4.59,0,0,0,7.85-3.16c0-.39-.09-.79-.13-1.18a4.76,4.76,0,0,0-1.2-2.13c-6.32-8.13-12.72-16.19-19.11-24.26-1.57-2-3.1-4-4.73-5.9-1.84-2.14-3.66-4.29-5.52-6.41-3.34-3.82-6.71-7.62-10.14-11.36s-6.77-7.23-10.3-10.71-7.26-7.25-11-10.69c-4-3.61-8-7.15-12-10.79-3.6-3.3-7.29-6.51-11-9.72s-7.39-6.34-11.2-9.4-7.46-5.91-11.24-8.81c-4.09-3.32-8.15-6.69-12.32-9.9-3.92-3-7.84-6.06-11.78-9-8.14-6.18-16.24-12.41-24.4-18.56q-6.48-4.89-12.89-9.83l-6.58-5.06c-2.15-1.64-4.4-3.16-6.61-4.73-4.12-2.94-8.35-5.73-12.54-8.57-3.86-2.62-7.76-5.16-11.67-7.71q-12.43-8.1-25-16c-4.1-2.59-8.18-5.24-12.32-7.77-4.67-2.85-9.4-5.6-14.16-8.32q-13.06-7.49-26.17-14.89c-8.55-4.85-17.08-9.76-25.78-14.34-9-4.72-18.06-9.29-27.12-13.85-4.7-2.36-9.4-4.74-14.16-7-4.61-2.15-9.2-4.36-13.88-6.36Q1570.74,82,1556.16,76c-9.79-4-19.58-8-29.54-11.6-9.22-3.29-18.44-6.61-27.76-9.64-5.33-1.73-10.64-3.52-16-5.25-5-1.62-10.08-3.09-15.12-4.65-9.68-3-19.36-6-29.07-8.89-4.85-1.45-9.75-2.68-14.65-4s-10.07-2.58-15.11-3.87c-4.74-1.22-9.46-2.52-14.19-3.74-2.25-.59-4.5-1.21-6.77-1.73l-8.55-2c-5-1.14-10-2.22-15-3.33-2.18-.48-4.39-.83-6.58-1.25-2.38-.44-4.77-.87-7.15-1.32q-8-1.53-16.06-3c-2.77-.49-5.58-.83-8.37-1.23l-7.82-1.12c-9.82-1.41-19.65-2.75-29.51-3.83Q1281,4.64,1273,4c-5.13-.45-10.27-.77-15.4-1.12-10.25-.69-20.5-1.06-30.76-1.45-10.07-.39-20.14-.88-30.21-1-9.74-.12-19.47-.5-29.21-.5ZM1019.21,11.34h0Z" transform="translate(-0.03 0.1)"/><path d="M1847.14,261.19a2.37,2.37,0,0,0,.83,3.19q7.62,5.1,14.94,10.63c2.5,2,4.93,4,7.24,6.2,1.07,1,2,2.09,3.08,3.13q2.1,2.1,4.17,4.22,3.35,3.42,6.62,6.9c2.23,2.38,4.61,4.61,6.77,7.05,4.63,5.24,9.26,10.46,13.75,15.81q7.08,8.42,14,16.94,5.6,6.93,11.11,13.92c3.8,4.83,7.68,9.6,11.42,14.48,4,5.23,7.89,10.5,11.62,15.91,1.85,2.7,3.61,5.48,5.43,8.2s3.64,5.57,5.43,8.39c3.94,6.19,8.08,12.27,12,18.47,1.81,2.85,3.48,5.81,5.19,8.72s3.6,6.07,5.38,9.11,3.71,6.16,5.56,9.23c1.71,2.84,3.33,5.74,5,8.6,3.5,5.93,7,11.86,10.41,17.84,7,12.34,13.55,25,20.17,37.56,2.88,5.48,5.74,11,8.52,16.5,2.93,5.82,5.94,11.61,8.84,17.44,1.31,2.63,2.58,5.27,3.78,7.94s2.4,5.4,3.62,8.08c2.62,5.74,5.11,11.52,7.55,17.33,2.51,6.33,5.08,12.64,7.43,19,2.55,7,5,14,7.5,21q3.28,9.27,6.32,18.63,1.77,5.48,3.55,10.93c1,3,2,6.06,2.92,9.13,2,6.76,4,13.52,5.75,20.34,1.85,7.19,3.67,14.38,5.51,21.56.77,3,1.61,5.94,2.35,8.92q1.44,5.79,2.82,11.6c.74,3.13,1.43,6.28,2.14,9.42.81,3.62,1.66,7.23,2.35,10.88s1.35,7.58,2,11.37,1.37,7.73,2,11.6q1.83,11.26,3.56,22.53.89,6.57,1.82,13.12,1.3,10.56,2.51,21.13c.77,6.72,1.58,13.45,2.24,20.18l.55,5.62c.2,2.06.26,4.14.4,6.21.2,3.14.29,6.28.46,9.42.21,3.63.37,7.26.63,10.89.23,3.47.5,6.93.68,10.4s.36,6.86.55,10.29c.19,3.23.2,6.46.24,9.69.05,3.43-.08,6.88-.1,10.31s0,6.84.08,10.25a4.29,4.29,0,0,0,7.3,3,4.45,4.45,0,0,0,1.26-3.07c.21-3.42.48-6.83.75-10.25.13-1.72.24-3.45.4-5.16s.36-3.5.49-5.26c.28-3.58.49-7.14.54-10.73s0-7.07-.12-10.6c-.07-3.17-.29-6.33-.4-9.49-.12-3.58-.27-7.16-.39-10.74s-.24-7.2-.43-10.79c-.2-3.78-.5-7.53-.82-11.3-.26-3.07-.61-6.13-.91-9.2q-.57-5.8-1.18-11.61c-.7-6.68-1.37-13.38-2.27-20-1-7.7-2-15.4-3.17-23.09-.47-3.21-1-6.41-1.5-9.61-.56-3.59-1.08-7.19-1.7-10.76s-1.29-7.31-1.93-11c-.56-3.17-1-6.37-1.7-9.51-1.62-7.25-3.22-14.5-4.94-21.73-1.61-6.78-3.46-13.5-5.2-20.24-1.64-6.4-3.19-12.82-4.94-19.19-1-3.8-2.09-7.58-3.17-11.37-.87-3.05-1.71-6.11-2.68-9.12-2.19-6.84-4.42-13.66-6.63-20.49s-4.5-13.42-6.84-20.1-4.76-13.56-7.22-20.32c-1.06-2.91-2.23-5.79-3.36-8.67-1.29-3.31-2.56-6.62-3.93-9.91q-2.51-6-5.09-12.05c-1.35-3.11-2.76-6.18-4.12-9.28s-2.72-6.26-4.2-9.34-2.95-6.13-4.48-9.16l-9.6-19c-3.07-6-6.33-12-9.52-18-3.31-6.21-6.57-12.45-10-18.61s-6.87-12.13-10.44-18.12-7.22-12.22-10.94-18.25-7.51-12.1-11.19-18.2c-1.75-2.89-3.44-5.83-5.3-8.65s-3.9-5.8-5.87-8.7c-2.17-3.19-4.31-6.38-6.43-9.61-1.82-2.79-3.66-5.57-5.57-8.3s-3.66-5.46-5.59-8.1c-2.23-3.05-4.54-6-6.86-9q-6.59-8.48-13.46-16.69c-2.26-2.71-4.6-5.35-6.91-8-2.18-2.5-4.34-5-6.55-7.49-4.87-5.44-9.7-10.92-14.59-16.35-4.58-5.11-9.33-10.05-14.06-15-3.71-3.89-7.49-7.71-11.51-11.29s-7.84-7-11.77-10.49a74.86,74.86,0,0,0-5.94-4.86c-2.21-1.58-4.41-3.17-6.69-4.66-4.75-3.12-9.45-6.32-14.19-9.47a2,2,0,0,0-1.12-.33,2.47,2.47,0,0,0-2.07,1.16Zm15.3,13.45.17.13Z" transform="translate(-0.03 0.1)"/><path d="M2126.51,843.94a3.28,3.28,0,0,0-2.37,3.95c.83,4.86,1.5,9.72,2.09,14.61.31,3,.63,6,.86,9s.29,6,.23,8.94-.33,6-.54,9-.46,6.18-.72,9.27c-.5,6-1.19,12-1.58,18.09s-1,11.85-1.65,17.76c-.24,2.12-.48,4.23-.75,6.35l-.78,5.15c-.5,3.14-1.06,6.27-1.59,9.4-.48,2.85-.94,5.71-1.56,8.53-.68,3.1-1.41,6.19-2.11,9.28-.76,3.3-1.45,6.6-2.17,9.9-1.36,6.26-3.07,12.44-4.82,18.61-1.64,5.81-3.4,11.58-4.79,17.45-3,12.55-6.51,25-10,37.36-1.7,6-3.69,12-5.9,17.87s-4.48,11.44-6.75,17.14q-3.68,9.2-7.3,18.42c-2.27,5.75-4.67,11.45-7.09,17.14-.91,2-1.8,4.06-2.7,6.09-3.63,8.08-7.34,16.12-10.93,24.21-1.2,2.67-2.39,5.33-3.57,8-2.58,5.6-5.23,11.16-7.88,16.72-2.5,5.24-5.19,10.37-8,15.43-3.12,5.55-6.49,11-9.87,16.35s-6.63,10.47-10.12,15.59c-1.42,2.07-3,4.06-4.47,6.08-1.67,2.25-3.3,4.52-5,6.76-3,4.06-6.08,8.12-9.26,12.07-1.83,2.25-3.63,4.52-5.45,6.78-3.8,4.54-7.54,9.15-11.45,13.6-1.92,2.2-4,4.24-6.09,6.29s-4.11,4.06-6.14,6.12-4,4.18-6.07,6.23-4,3.9-6,5.87c-4.29,4.27-8.61,8.51-12.85,12.84s-8.47,8.35-12.8,12.42-8.67,8.16-13.23,12c-4.78,4-9.52,8.08-14.33,12.06l-3.2,2.65c-1,.82-2,1.71-3,2.49-2.44,1.89-4.91,3.74-7.35,5.64-.67.52-1.34,1-2,1.53-1.87,1.35-3.74,2.72-5.59,4.1q-4.61,3.33-9.15,6.73l.24-.18c-9.38,6.79-19,13.34-28.87,19.33-2.54,1.54-5.07,3.09-7.62,4.61-2.36,1.41-4.69,2.89-7.1,4.22-4.74,2.59-9.49,5.18-14.24,7.73-7.32,4-14.72,7.74-22.16,11.45-7.26,3.63-14.75,6.81-22.27,9.83-2.22.87-4.43,1.77-6.64,2.65-3.26,1.25-6.49,2.57-9.73,3.88a77.91,77.91,0,0,1-8.42,2.85,4.87,4.87,0,0,0-2.36,8.07,4.63,4.63,0,0,0,3.47,1.52,41.7,41.7,0,0,0,8.57-1.63c2.64-.87,5.22-1.9,7.79-2.93s5-1.89,7.56-2.88c5.63-2.14,11.24-4.32,16.78-6.71,5.13-2.22,10.16-4.61,15.18-7.08,10-4.91,19.76-10.31,29.53-15.65,5.06-2.76,10-5.81,14.88-8.86,2.48-1.54,5-3,7.44-4.6,2.65-1.66,5.24-3.43,7.82-5.18,10.06-6.81,19.74-14.16,29.44-21.44,4.72-3.54,9.55-7,14-10.84,2.13-1.84,4.32-3.62,6.47-5.42s4.51-3.85,6.76-5.78c2.47-2.1,5-4.18,7.43-6.3,2.22-1.91,4.36-3.91,6.51-5.92q6.57-6.12,13-12.44c2-2,4-4.12,6-6.18,2.22-2.28,4.5-4.51,6.75-6.77,4-4.07,8.29-8,12.27-12.12s8.26-8.25,12.43-12.33,7.78-8.51,11.52-12.9c3.34-3.92,6.55-7.92,9.78-11.92,3.62-4.43,7.08-9,10.52-13.55,1.79-2.39,3.55-4.81,5.33-7.21s3.67-4.91,5.41-7.44c3.59-5.23,7-10.61,10.35-16,3.22-5.1,6.44-10.2,9.44-15.43,2.9-5.06,5.72-10.14,8.3-15.37,2.77-5.61,5.53-11.22,8.08-16.93,5.29-11.89,10.85-23.65,16.12-35.55,1.4-3.09,2.75-6.21,4.09-9.33,1.18-2.74,2.27-5.52,3.4-8.29,2.55-6.17,5-12.39,7.48-18.58,2.3-5.64,4.68-11.26,6.94-16.92,1.24-3.09,2.46-6.18,3.59-9.31,1-2.73,2-5.47,2.85-8.25,3.65-12.35,7.13-24.75,10.06-37.28.67-2.85,1.22-5.73,1.94-8.57.81-3.25,1.68-6.48,2.55-9.72,1.62-6,3.22-12.11,4.51-18.24.7-3.27,1.32-6.56,1.94-9.85.59-3.11,1.25-6.2,1.91-9.29,1.36-6.42,2.14-12.93,3-19.42.43-3.1.72-6.22,1.07-9.33s.5-5.92.7-8.89.34-5.76.47-8.63c.07-1.57.16-3.14.19-4.7v-4.16c.13-5.57.31-11.13.61-16.7.15-2.69.22-5.38.33-8.07s.24-5.66.28-8.48a118.74,118.74,0,0,0-1.28-16.74c-.82-6.43-1.7-12.84-2.8-19.22a3.19,3.19,0,0,0-3.18-2.44,3,3,0,0,0-.73.09Zm-.21,18.82v0ZM2077,1133.21a1.08,1.08,0,0,1-.08.19A1.08,1.08,0,0,0,2077,1133.21Zm-80.84,120.15-.68.83Zm-6.59,8.17Zm-117.73,109.29-.78.56Z" transform="translate(-0.03 0.1)"/><path d="M1307.7,1333.39a4.13,4.13,0,0,0-1.84,5.51,70.68,70.68,0,0,0,4.5,7.09,71.58,71.58,0,0,0,4.85,5.87c3.52,3.83,7.34,7.37,11.08,11,3.59,3.47,7.19,6.94,10.75,10.46,1.84,1.82,3.65,3.68,5.59,5.41,2.23,2,4.57,3.81,6.91,5.66,4,3.2,8.18,6.32,12.29,9.45,2.17,1.64,4.34,3.29,6.54,4.91,2,1.43,4.08,2.68,6.12,4l13.2,8.61c4.26,2.79,8.59,5.5,13,8s9.09,5.17,13.67,7.66c4.92,2.68,9.76,5.52,14.77,8l-1.24-.63c1.77.9,3.53,1.8,5.31,2.67l-1.24-.62c4.55,2.29,9.11,4.54,13.79,6.55s9.3,3.73,14,5.46,9.63,3.48,14.49,5.11,9.76,3.16,14.68,4.63c4.72,1.41,9.57,2.42,14.37,3.55,5.07,1.19,10.14,2.3,15.22,3.43,5.35,1.19,10.72,2.24,16.09,3.32a112.86,112.86,0,0,0,15.94,2.47c5,.28,9.91.61,14.86.83s10,.35,15,.58c2.4.1,4.81.11,7.22.19s4.89.17,7.34.17h15.45c7,0,14-.18,20.92-.58h-.42c5.76-.32,11.52-.73,17.25-1.31,5.09-.51,10.18-.94,15.25-1.53s10.37-1.17,15.49-2.2c5.31-1.07,10.64-2.11,15.91-3.39,2.5-.6,5-1.26,7.47-2s5-1.31,7.56-2c5.23-1.45,10.49-2.85,15.71-4.35a317.07,317.07,0,0,0,30.16-10.17c2.39-1,4.79-1.88,7.17-2.87s4.51-1.9,6.76-2.85,4.66-1.86,7-2.75,4.7-1.91,7.06-2.85c4.54-1.8,9-3.91,13.4-5.93,5.13-2.32,10.3-4.52,15.59-6.48a3.06,3.06,0,0,0,1.58-1.8,3.18,3.18,0,0,0-2-4,3.43,3.43,0,0,0-2.46.16c-4,1.46-7.88,3-11.82,4.58q-5.57,2.16-11.2,4.12l-4.23,1.45c-3.54,1.16-7.11,2.24-10.67,3.34-3.94,1.2-7.84,2.5-11.74,3.82l.71-.24-7.49,2.56-4,1.35c-4.94,1.59-9.91,3.11-14.92,4.41-4.85,1.25-9.68,2.59-14.53,3.82-2.57.65-5.15,1.22-7.72,1.87l-7.9,2c-5.21,1.23-10.38,2.59-15.62,3.72-5,1.09-10,2.07-15,3.08-2.53.51-5.14.83-7.7,1.17s-5,.71-7.56,1c-5.36.67-10.71,1.44-16.08,2-5,.56-10,1.08-15,1.5l-5.69.34c-4.86.26-9.73.35-14.59.45-5.06.1-10.13.16-15.18.09s-10-.3-15-.53-9.9-.49-14.82-1c-3.07-.3-6.15-.63-9.23-.84-1.71-.12-3.4-.25-5.09-.44-1.94-.21-3.86-.52-5.78-.8-3.34-.5-6.67-1.1-10-1.65-3-.5-6-1-9.07-1.6-4.77-1-9.52-2-14.26-3.2-2.42-.59-4.84-1.19-7.24-1.83s-4.86-1.25-7.26-2c-9.79-3-19.4-6.5-29-10-2.91-1.07-5.83-2.11-8.72-3.22s-6-2.21-8.88-3.46c-5.18-2.22-10.26-4.67-15.31-7.17-4.53-2.46-9.1-4.83-13.6-7.34s-9.21-5-13.72-7.62c-4.28-2.53-8.56-5.07-12.69-7.83-4.46-3-9-5.85-13.5-8.8-2.43-1.6-4.84-3.21-7.16-5-2.73-2.11-5.48-4.21-8.22-6.32-4.8-3.69-9.69-7.3-14.3-11.24-1.47-1.37-2.87-2.8-4.31-4.2s-3-2.8-4.45-4.22c-3.13-3-6.24-6-9.42-9s-6.52-6-9.6-9.14c-1.42-1.46-2.77-3-4.13-4.51-1.54-1.7-3.08-3.39-4.57-5.13a4.11,4.11,0,0,0-4.91-1ZM1760.93,1433l.5-.17Z" transform="translate(-0.03 0.1)"/><path d="M1226.28,1086.32c-.23,1.2-.5,2.41-.66,3.62-.13,1-.24,2-.34,3-.23,2.11-.35,4.23-.48,6.34-.27,4.57-.49,9.13-.6,13.7v-1.08c-.12,3.93-.29,7.87-.2,11.81.08,3.72.31,7.45.57,11.16.12,1.86.3,3.71.44,5.57s.21,3.74.35,5.61c.28,3.7.49,7.41.86,11.11s.89,7.42,1.31,11.13.81,7.29,1.32,10.92c.45,3.26,1.07,6.47,1.71,9.69.69,3.42,1.4,6.83,2.19,10.22.44,1.91.85,3.84,1.27,5.75.45,2.09.91,4.19,1.49,6.24.47,1.65.93,3.3,1.46,4.93s1.14,3.32,1.74,5c2.38,6.62,4.82,13.24,7.34,19.81.89,2.33,1.68,4.68,2.64,7,1.07,2.52,2,5.07,3.25,7.52s2.49,4.89,3.69,7.35c.63,1.31,1.24,2.62,1.85,3.93s1.37,2.75,2.1,4.11l-.2-.37c2.67,5.1,5.19,10.29,8,15.34l-.45-.84q1.53,2.88,3.11,5.73c.83,1.5,1.81,2.91,2.72,4.37,1.88,3,3.81,6,5.68,9,1,1.65,2.12,3.26,3.14,4.92.85,1.39,1.73,2.77,2.65,4.12,2,2.88,3.94,5.74,6.07,8.51s4.37,5.61,6.61,8.36,4.51,5.62,6.9,8.32,4.92,5.68,7.49,8.43c1.1,1.18,2.23,2.37,3.41,3.48,1.34,1.25,2.75,2.44,4.12,3.65,2.56,2.23,5.21,4.37,7.78,6.59,2.4,2.06,4.64,4.3,7,6.42,2.66,2.39,5.48,4.58,8.26,6.81,3.17,2.53,6.33,5.08,9.54,7.56a1.63,1.63,0,0,0,2.24-.21,1.59,1.59,0,0,0-.21-2.23,124.88,124.88,0,0,1-14.27-12.52c-2.17-2.41-4.13-5-6.15-7.51s-4.42-5.18-6.68-7.73c-1.18-1.34-2.32-2.7-3.49-4s-2.32-2.69-3.38-4.13c-2-2.63-3.81-5.33-5.77-8-4.32-5.78-8.48-11.67-12.74-17.49q-3-4.14-5.93-8.38c-1-1.46-2-2.92-3-4.41s-1.91-3-2.9-4.46c-2.61-3.89-5.15-7.85-7.65-11.82-1.21-1.92-2.43-3.82-3.53-5.8s-2.26-4-3.37-6c-2.21-4.22-4.51-8.38-6.81-12.55l.17.32-.77-1.43c-1.85-3.67-3.8-7.27-5.77-10.87-1.42-2.77-2.68-5.61-3.9-8.48s-2.34-6-3.58-8.91c-.7-1.68-1.3-3.42-2-5.12s-1.33-3.38-2-5.07-1.17-3.2-1.78-4.79-1.21-3.13-1.77-4.72a81.63,81.63,0,0,1-2.52-8.2c-.75-3.22-1.48-6.44-2.24-9.66v.13c-1.56-6.64-3-13.31-4-20.06-.52-3.6-.91-7.23-1.37-10.84-.49-3.84-1-7.68-1.4-11.52-.69-6.32-1-12.66-1.67-19a168.36,168.36,0,0,1-.88-18.79l.12-5.4q.19-5.79.46-11.57c.19-4.14.36-8.27.76-12.39a4,4,0,0,0-.66-2.77,3.81,3.81,0,0,0-3.07-1.59,3.87,3.87,0,0,0-3.73,3.2Z" transform="translate(-0.03 0.1)"/><path d="M1404.14,908.44c-3.28.69-6.59,1.17-9.87,1.78s-6.38,1.32-9.59,1.9-6.36,1-9.5,1.83c-1.54.37-3,.82-4.58,1.21a44.34,44.34,0,0,0-4.25,1.32c-6.36,2.25-12.58,4.82-18.71,7.59-1.46.66-2.86,1.4-4.29,2.11s-2.84,1.45-4.23,2.21q-4.2,2.31-8.37,4.65c-2.73,1.53-5.45,3-8.16,4.63s-5.38,3.36-8,5.14-5.32,3.76-7.9,5.76c-2.3,1.79-4.6,3.57-6.83,5.44-5,4.18-9.86,8.44-14.51,13q-3.58,3.5-7.06,7.11c-2.12,2.21-4.2,4.49-6.14,6.85-2.18,2.65-4.21,5.42-6.23,8.18s-3.82,5.23-5.64,7.92c-.89,1.32-1.77,2.65-2.67,4s-1.7,2.45-2.51,3.7c-1.73,2.65-3.32,5.39-5,8.1s-3,5.41-4.43,8.14-2.77,5.63-4.07,8.48c-1.42,3.1-2.79,6.25-4,9.46q-1.63,4.5-3,9-1.5,4.88-2.83,9.82c-.83,3.08-1.61,6.17-2.28,9.29-.33,1.56-.61,3.12-.86,4.69s-.55,3.11-.8,4.66c-.57,3.55-1,7.12-1.35,10.69-.17,1.52-.34,3-.4,4.57s-.11,3.11-.15,4.67c-.1,3-.32,6.05-.42,9.08s-.28,6.36-.27,9.54.11,6.3.22,9.45c.06,1.69,0,3.39.21,5.07s.29,3.34.42,5c.24,3.27.3,6.56.66,9.83.31,2.66.73,5.31,1.08,8,.39,2.91.76,5.82,1.14,8.74v-.16l1.17,10.55a1.53,1.53,0,0,0,1.48,1.52,1.51,1.51,0,0,0,1.52-1.47c-.4-3.64-.75-7.28-1.14-10.91-.34-3.28-.69-6.56-.93-9.85s-.38-6.35-.42-9.54,0-6.39.06-9.58,0-6.31.08-9.46.25-6.34.48-9.5.51-6.29.83-9.43.66-6.21.9-9.33c.21-2.65.55-5.28.94-7.91.51-3.13,1-6.25,1.77-9.34s1.41-6.18,2.23-9.24c1.7-6.34,3.59-12.64,5.78-18.82,1.67-4.7,3.6-9.29,5.59-13.85,2.6-5.59,5.28-11.14,8.33-16.49,1.55-2.73,3.2-5.4,4.87-8,.83-1.32,1.73-2.59,2.61-3.88s1.81-2.69,2.71-4.05c1.91-2.88,3.93-5.69,5.92-8.52,1.85-2.64,3.73-5.27,5.71-7.8,2-2.29,3.93-4.57,6-6.78,2.18-2.37,4.43-4.66,6.74-6.9,4.63-4.51,9.46-8.81,14.37-13,1.65-1.4,3.29-2.8,5-4.15s3.38-2.69,5.11-4q7.41-5.25,15.26-9.82c2.66-1.54,5.3-3.12,8-4.64l4.44-2.5c1.44-.81,2.72-1.42,4.08-2.12,2.72-1.41,5.53-2.66,8.33-3.9s5.66-2.4,8.51-3.55c1.36-.52,2.73-1,4.1-1.53s2.76-.88,4.16-1.29c1.57-.47,3.14-.94,4.72-1.37s3-.71,4.58-1.07c3.11-.74,6.21-1.48,9.3-2.27s6.38-1.57,9.58-2.35c1.26-.31,2.51-.65,3.76-1a2.69,2.69,0,0,0-.7-5.3,3.05,3.05,0,0,0-.6.06Zm-170.09,176.74a3.47,3.47,0,0,1-.08.55A1.32,1.32,0,0,1,1234.05,1085.18Zm-7.25,59.36V1144l.06.51Z" transform="translate(-0.03 0.1)"/><path d="M1427.66,903.41c-6.2.57-12.42,1.13-18.6,2-1.46.2-2.92.45-4.38.7s-2.91.44-4.37.67c-3,.47-6,1.06-9,1.67-3.29.66-6.54,1.54-9.78,2.41-2.93.79-5.82,1.71-8.69,2.7a143.61,143.61,0,0,0-16.54,7.09c-1.33.66-2.64,1.35-3.94,2.06s-2.5,1.31-3.75,2-2.79,1.47-4.19,2.19-2.63,1.42-3.94,2.15c-2.68,1.43-5.35,2.87-7.93,4.48s-5.11,3.12-7.67,4.67c-1.45.87-2.9,1.73-4.33,2.62-1.25.77-2.44,1.65-3.63,2.51-2.41,1.74-4.84,3.46-7.18,5.3l-3.17,2.51a1.77,1.77,0,1,0,1.91,3,1.33,1.33,0,0,0,.19-.14c2.31-1.84,4.65-3.67,7.12-5.31,2.23-1.48,4.5-2.91,6.83-4.24,2.6-1.41,5.25-2.74,7.9-4s5.51-2.68,8.29-4c1.21-.57,2.45-1.11,3.67-1.66s2.66-1.33,4-2c2.75-1.26,5.52-2.47,8.28-3.68,1.24-.55,2.46-1.13,3.7-1.7s2.62-1.11,4-1.63l8.07-3c2.7-1,5.56-1.91,8.37-2.78,2.52-.78,5.07-1.42,7.63-2.06l4-.93c1.52-.33,3.07-.58,4.6-.88s3-.59,4.47-.84,2.88-.43,4.31-.68c3-.51,6.07-1.09,9.14-1.51s6.09-.82,9.15-1.19c3.71-.45,7.43-1,11.16-1.24,1.79-.1,3.57-.25,5.36-.28s3.81,0,5.72,0l2.28.07c2.89.11,5.78.29,8.66.56s5.9.68,8.85,1.11,5.64,1,8.46,1.48a77.44,77.44,0,0,1,8.75,2l.79.23-.79-.23c2.38.75,4.71,1.6,7,2.44,2.52.91,5,1.83,7.48,2.94a157.54,157.54,0,0,1,14.13,7.48l7.11,4.48c1.26.81,2.53,1.6,3.75,2.45l4.11,2.85a3.13,3.13,0,0,0,2.13.62,2.87,2.87,0,0,0,1.94-1.06,2.91,2.91,0,0,0-.43-4.07c-2.64-2-5.22-4.13-7.92-6.07-1.25-.89-2.53-1.73-3.83-2.56-1.49-1-3-1.92-4.51-2.81q-4-2.35-8.15-4.5c-1.26-.65-2.56-1.24-3.84-1.84s-2.44-1.14-3.69-1.63c-2.68-1-5.42-2-8.14-2.94s-5.73-2-8.66-2.83c-1.56-.43-3.11-.83-4.69-1.17-1.27-.27-2.54-.53-3.8-.83-2.87-.69-5.74-1.39-8.64-1.94a102.83,102.83,0,0,0-16.15-1.56h.07q-3-.09-6-.09c-4.38,0-8.75.16-13.11.56Zm15.84,6.87h0Zm3.7.11ZM1340.4,929l-.52.29C1340.05,929.23,1340.22,929.13,1340.4,929Zm-17.9,15.41-.29.15Z" transform="translate(-0.03 0.1)"/><path d="M1450.06,905.5a1.79,1.79,0,1,0,0,3.58h0a74,74,0,0,1,8.93.32c2.15.33,4.27.79,6.37,1.33s4.44,1.32,6.67,1.95a60.79,60.79,0,0,1,6.41,2.37c1.93.78,3.87,1.52,5.8,2.31,1.55.69,3.11,1.35,4.67,2l2,.83c2.44,1.06,4.86,2.15,7.21,3.4,1.21.65,2.41,1.31,3.61,2s2.63,1.38,3.92,2.1c2.5,1.39,4.94,2.84,7.3,4.45,1.14.78,2.3,1.53,3.41,2.35l3.14,2.39c2.27,1.84,4.4,3.84,6.5,5.88,2.34,2.27,4.63,4.59,6.91,6.92s4.45,4.53,6.72,6.74c1,1,2,2.1,3,3.14s2,2.22,3,3.38c.69.83,1.34,1.69,2,2.55q2.57,3.54,4.82,7.27c1.56,2.57,3.18,5.11,4.74,7.69a74,74,0,0,1,4,8.08c1.06,2.4,2.13,4.78,3.18,7.18.38.9.76,1.8,1.12,2.7.84,2.31,1.64,4.63,2.38,7s1.29,4.58,1.86,6.88,1.06,4.91,1.65,7.34c.3,1.27.59,2.54.91,3.8.15.62.3,1.23.43,1.86s.35,1.42.46,2.14a3.74,3.74,0,0,0,6.25,1.77,3.88,3.88,0,0,0,1.13-2.63,13.63,13.63,0,0,0-.2-3.19c-.11-.72-.23-1.44-.4-2.15-.34-1.48-.66-3-1-4.44-.62-2.82-1.13-5.66-1.86-8.45-.35-1.34-.66-2.69-1-4s-.77-2.56-1.17-3.84a67.87,67.87,0,0,0-3.37-8.69c-1.11-2.37-2.29-4.7-3.41-7.06-.64-1.33-1.24-2.67-1.89-4s-1.42-2.72-2.21-4c-1.56-2.58-3.26-5.08-4.86-7.63s-3.4-5.26-5.23-7.81c-2-2.73-4-5.36-6.12-8-.91-1.14-1.8-2.28-2.79-3.35s-2.15-2.27-3.24-3.39c-2.23-2.29-4.46-4.57-6.72-6.82s-4.51-4.5-6.89-6.62c-1.45-1.29-2.93-2.52-4.46-3.71-1.2-.92-2.4-1.87-3.63-2.75q-3.69-2.64-7.62-5c-1.29-.76-2.62-1.45-3.94-2.14l-4.1-2.17c-2.87-1.52-5.79-2.94-8.8-4.18-2.07-.86-4.18-1.64-6.31-2.37s-4-1.38-6.1-1.89-4.32-1-6.49-1.51l-1.38-.33c-.75-.16-1.5-.25-2.26-.34-1.07-.12-2.14-.24-3.2-.4l.7.11c-1.75-.26-3.49-.41-5.25-.55-1.59-.13-3.17-.28-4.76-.37-1.39-.07-2.79-.1-4.18-.1-2.08,0-4.15.06-6.22.09Zm41.27,14.91.36.14ZM1565.59,999a.81.81,0,0,0,.11.26A.66.66,0,0,0,1565.59,999Z" transform="translate(-0.03 0.1)"/></g><g id="Zeichnungseb.-5"><path d="M1439.05,899.32a5.07,5.07,0,0,0-1.53,3.69c.65,9.24,1.37,18.48,1.7,27.74.29,8.09.23,16.19.36,24.28s.22,16.23.3,24.34c0,4.13.34,8.25.49,12.38s.19,8.13.25,12.2.12,8,.33,11.94.43,8.08.52,12.13,0,8.16.3,12.23.43,8,.52,12.06c0,1.88,0,3.76.15,5.63s.26,3.74.4,5.61c.27,3.48.4,7,.56,10.47.16,3.66.34,7.32.51,11,.19,4,.47,8,.74,12a2.38,2.38,0,0,0,4.75,0c.54-8.2,1-16.41,1.21-24.63.1-3.85.06-7.7-.09-11.55s0-7.92-.09-11.89q-.06-3.24-.18-6.48c-.07-1.94-.19-3.88-.19-5.83v-11.7c-.06-4.2-.2-8.39-.26-12.59-.06-4,.08-8,.08-12s0-8.3-.18-12.45c-.08-2.06-.17-4.11-.23-6.18v-5.37c.06-8.36.21-16.72.32-25.09.09-7.65.08-15.31-.21-23-.31-8.43-1-16.85-1.63-25.27a5.47,5.47,0,0,0-1.54-3.69,5.21,5.21,0,0,0-7.37,0h0Z" transform="translate(-0.03 0.1)"/><path d="M1549.44,1028.7c-8.59.08-17.18.11-25.77.23-4.18.06-8.36.38-12.54.58-4.37.21-8.75.16-13.14.14s-8.62-.06-12.92.12-8.37.38-12.55.58c-7.92.38-15.84,1-23.74,1.62a4.2,4.2,0,0,0,.85,8.35q7.66-.58,15.34-1.06c4.24-.27,8.47-.37,12.72-.41,4.42,0,8.83-.22,13.25-.2,4.13,0,8.26.16,12.39.21,2.17,0,4.36.12,6.54,0s4.25-.16,6.38-.25c4.43-.22,8.84-.37,13.27-.38s8.61-.11,12.9-.25,8.27-.42,12.4-.71c3.24-.22,6.47-.5,9.7-.77,1.67-.13,3.34-.18,5-.3,1.89-.14,3.79-.31,5.67-.56a3.39,3.39,0,0,0,1.77-6,3.68,3.68,0,0,0-2.46-.72h-.36c-4.55-.24-9.09-.3-13.64-.3-3.7,0-7.39,0-11.09.07Z" transform="translate(-0.03 0.1)"/><path d="M1508.54,1032.3a3.92,3.92,0,0,0-2.61,1.43,4.09,4.09,0,0,0-.81,2.78v11.13c0,3.71-.23,7.44-.37,11.16-.15,4.15.06,8.34.26,12.49.18,3.82.47,7.62.56,11.44.07,3.48.13,7,.07,10.42v3.25a3.34,3.34,0,0,0,6.62.18,176.47,176.47,0,0,0,.43-18.54c-.06-3.24-.25-6.47-.34-9.7-.09-3-.08-6-.06-9,.15-3.55.28-7.09.4-10.64.14-4.34.09-8.68.07-13a3.72,3.72,0,0,0-1.43-2.62,4,4,0,0,0-2.39-.83h-.39Zm-3.42,14.48v0Z" transform="translate(-0.03 0.1)"/><path d="M1395.6,1098.07c-4.32.07-8.66.28-13,.51s-8.94.58-13.42.7c-2,.06-4-.06-6.08-.06h-7.39c-4.43,0-8.86,0-13.28.2s-8.57.45-12.85.66q-7.17.36-14.35.61c-2,.06-3.92,0-5.88.12-2.54.11-5.07.24-7.61.39-9,.53-18,1.42-27,2.19-2.25.19-4.51.34-6.77.52-2.1.16-4.21.4-6.32.57s-4.43.38-6.64.5l-6.71.34c-3.55.17-7.08.37-10.61.76a4.11,4.11,0,0,0-2.71,1.13,3.9,3.9,0,0,0,0,5.51,3.78,3.78,0,0,0,2.8,1.15c4.62-.49,9.25-.64,13.89-.78,4.84-.15,9.68-.4,14.52-.68,2.13-.12,4.27-.17,6.4-.27,2.43-.11,4.85-.26,7.28-.41,4.28-.26,8.54-.65,12.82-.91,4.49-.27,9-.54,13.48-.72s9-.17,13.55-.37c4.72-.2,9.43-.41,14.15-.69,4.21-.26,8.44-.47,12.66-.54,4.53-.08,9.06,0,13.59,0h6.75c2.25,0,4.71,0,7.07-.09,4.35-.16,8.69-.46,13-.58s8.78-.3,13.17-.25c9.15.1,18.3.43,27.46.57,4.5.07,9,0,13.52,0h24c5.36,0,10.72.1,16.09,0,8.81-.19,17.62.07,26.43.18,4.34,0,8.67.3,13,.43s8.78.22,13.17.17c2.11,0,4.22-.14,6.34-.1s4.49.08,6.74.14c4.38.11,8.76,0,13.14-.08,3.12-.07,6.25-.21,9.35-.5a3.56,3.56,0,0,0,2.35-1,3.36,3.36,0,0,0,1-2.43,3.41,3.41,0,0,0-3.41-3.34c-4.54-.13-9.06-.78-13.59-1.15s-8.83-.74-13.25-1c-4.19-.27-8.4-.2-12.59-.27-4.55-.07-9.1-.24-13.65-.43-8.85-.36-17.7-.43-26.55-.48h-7.17c-2,0-4.11.06-6.16.06-4.51,0-9-.1-13.54-.17h-26.07c-4.43,0-9,.1-13.53,0s-9-.18-13.49-.23h-14.22Z" transform="translate(-0.03 0.1)"/><path d="M1581.82,921.23a2.58,2.58,0,0,0-1.76.74,2.8,2.8,0,0,0-.74,1.82l-.12,1.11c-.17,1.12-.37,2.23-.55,3.34s-.31,2.47-.51,3.7c-.46,2.76-.72,5.53-1,8.3l.06-.52c-.29,2.45-.49,4.9-.7,7.36s-.46,5.07-.64,7.6c-.2,2.73-.45,5.45-.66,8.18s-.34,5.27-.5,7.91c-.34,5.43-.78,10.85-1.27,16.27s-1,10.81-1.19,16.22-.28,11.08-.58,16.61c-.31,5.73-.51,11.47-.66,17.21-.15,5.45-.23,10.9-.32,16.36,0,2.78-.1,5.56-.11,8.35s-.11,5.64-.06,8.46c.1,5.3,0,10.61.08,15.91,0,2.79.06,5.59,0,8.38s-.08,5.63-.07,8.44,0,5.58-.06,8.37-.2,5.68-.29,8.52-.2,5.58-.34,8.37c-.14,2.54-.19,5.08-.32,7.62-.14,2.8-.33,5.6-.44,8.4s-.19,5.87-.3,8.81c-.23,5.69-.4,11.39-.69,17.08-.15,2.79-.19,5.6-.28,8.39s-.15,5.69-.18,8.54.07,5.7.13,8.55c.06,2.68.11,5.36.21,8,.21,5.56.36,11.12.51,16.69s.08,11.34.22,17,.48,11.46.75,17.2.56,11.75.81,17.63c.23,5.28.59,10.56.71,15.85.13,5.68.25,11.36.41,17,.17,5.86.34,11.7.45,17.55.11,5.43,0,10.88-.09,16.31-.07,5.69-.27,11.38-.38,17.08q-.13,7.93,0,15.88c.06,5.62.19,11.25.51,16.85s.69,11.21,1,16.82c.22,3.7.32,7.41.43,11.12s.32,7.71.37,11.56v5.27a50.88,50.88,0,0,0,0,5.24c.37,4.11.73,8.23,1.36,12.31a2.62,2.62,0,0,0,1.28,1.66,2.78,2.78,0,0,0,2.09.26,2.73,2.73,0,0,0,1.65-1.29,2.9,2.9,0,0,0,.26-2.08,5,5,0,0,0-.07-.52c-.33-2.65-.59-5.3-.73-8-.07-1.31-.12-2.61-.11-3.92s.09-2.6.16-3.9c.15-2.71.26-5.43.3-8.16s-.07-5.38-.08-8.07c0-2.89,0-5.79-.09-8.69,0-2.67-.17-5.35-.26-8-.19-5.58-.32-11.17-.33-16.75s0-11.1.3-16.65.4-10.82.71-16.23c.63-11.27,1.06-22.56.85-33.85-.11-5.77-.27-11.53-.43-17.3-.14-5.46-.23-10.92-.38-16.38-.07-2.74-.22-5.48-.35-8.22s-.2-5.31-.32-8c-.25-5.83-.44-11.65-.7-17.48-.25-5.59-.43-11.16-.42-16.75V1224c0-3-.11-6-.16-9-.1-5.64-.31-11.27-.39-16.91-.08-5.47-.2-11,0-16.42.1-2.77.21-5.54.3-8.31s.28-5.52.38-8.28c.22-5.65.39-11.29.63-16.94s.6-11.33.82-17c.11-2.73.26-5.46.37-8.19s.19-5.61.33-8.41c.27-5.7.2-11.4.32-17.1.12-5.54.08-11.08.12-16.62,0-5.28-.06-10.56,0-15.83,0-2.73,0-5.45.11-8.18s.12-5.48.17-8.22c.11-5.53.25-11,.45-16.58s.55-11.34.82-17c.12-2.65.13-5.31.25-8s.27-5.65.46-8.47c.39-5.75.92-11.49,1.34-17.24.34-4.67.55-9.35.72-14,.08-2.33.12-4.66.23-7,.12-2.53.21-5,.24-7.58,0-4.43.14-8.84,0-13.26-.09-2.27-.28-4.54-.52-6.79-.26-2.42-.5-4.85-.85-7.27a4.2,4.2,0,0,0,.11.71c-.11-.83-.2-1.67-.25-2.51a2.59,2.59,0,0,0-2.53-2.5Zm-4.59,17.87v0Zm2.88,509.46.06.36Z" transform="translate(-0.03 0.1)"/><path d="M1764.14,889.89h-2.51c-3.89,0-7.79,0-11.68.07-9.34.18-18.67.62-28,.78-9.1.15-18.18.67-27.28.79-9.45.13-18.89.56-28.34.71-9.08.14-18.17.23-27.26.22-9.29,0-18.58-.12-27.87-.19h-12.92c-4.58,0-9.17-.19-13.75-.19-4.42,0-8.83.1-13.25.16s-9,.06-13.47.09c-4.65,0-9.32,0-14,.27s-9.46.43-14.2.61c-4.41.17-8.82.19-13.23.29-5,.12-9.94.27-14.91.35-9,.14-18,.86-27,.87-5,0-10,.06-15,.12h-14.63c-4.49.08-9,.12-13.47.21h-13.28c-4.55,0-9.1.11-13.66.27-2.73.1-5.47.1-8.21.1h-4.8c-9.1.11-18.19.48-27.29.67-4.77.09-9.53.28-14.3.45-4.58.15-9.16.3-13.74.49l-14.72.67c-4.27.2-8.52.5-12.78.72-4.71.26-9.43.47-14.14.83-4.29.33-8.62.39-12.92.53-3.44.11-6.87.29-10.3.45-4,.19-7.92.35-11.87.57-3.38.19-6.77.24-10.15.25-4.52,0-9,0-13.56-.13a3.81,3.81,0,0,0,0,7.62c4.87.11,9.73.17,14.59.25l6.26.09c2,0,4-.06,6-.11,4.63-.13,9.26-.28,13.89-.37,4.39-.09,8.77-.09,13.16-.19s8.69-.32,13-.48c4.55-.16,9.1-.31,13.64-.54s9.15-.3,13.72-.44,8.89-.23,13.35-.34c4.64-.12,9.3-.22,13.94-.3s9.18-.09,13.77-.19,9.38-.26,14.06-.35,9.28-.12,13.92-.18c1.91,0,3.82,0,5.73-.1,2.48-.09,5-.2,7.44-.24,4.32,0,8.64-.13,13-.11,4.94,0,9.88-.07,14.82-.16,4.54-.08,9.09-.16,13.63-.16s9.25,0,13.88-.07h4.4c3.09,0,6.18,0,9.27-.1,5-.18,10-.4,15-.57,4.64-.15,9.28-.13,13.92-.26,9.06-.24,18.12-.26,27.18-.66,4.54-.2,9.07-.45,13.62-.5s9.16,0,13.74,0c9,0,18-.29,26.94,0,4.47.12,8.93.16,13.4.16,4.91,0,9.83.07,14.75.12,8.72.1,17.45.28,26.17.24,9.51,0,19-.08,28.53-.21,4.72-.06,9.44-.24,14.16-.33,4.34-.09,8.67-.07,13-.17,4.81-.11,9.62-.29,14.43-.42,4.36-.12,8.73-.07,13.1-.19,9.78-.26,19.54-.52,29.32-.51,8.74,0,17.49.08,26.24.13,3.54,0,7.09.09,10.63.19q3.21.1,6.41.25c2.22.1,4.45.21,6.67.26,4.19.1,8.4,0,12.59,0,3.93,0,7.85,0,11.77-.09,4.16,0,8.32-.08,12.48,0s8.54,0,12.8.14,8.52,0,12.77,0c4,0,8.1-.07,12.14-.07s8.2.09,12.3.16,8.44.12,12.66.34q12.36.63,24.73.89c3.94.09,7.87.28,11.81.26h24.94c4.46,0,8.91.07,13.37,0h12.24c3.91,0,7.82.08,11.73.16,7.16.14,14.32.4,21.49.33,7.92-.07,15.83-.19,23.74-.08,3.8,0,7.59,0,11.39-.12,4.29-.1,8.58,0,12.87,0,3.13,0,6.27-.16,9.39-.39,3.83-.27,7.64-.37,11.48-.38,3.47,0,6.94-.1,10.41-.11,3.8,0,7.57-.48,11.36-.57a1.4,1.4,0,0,0,.24-2.79h-.24c-1.19-.11-2.38-.25-3.56-.42-1.78-.27-3.55-.54-5.31-.94s-3.74-.76-5.63-1-3.93-.51-5.9-.75c-2.16-.28-4.31-.54-6.48-.71-3.61-.3-7.24-.29-10.86-.37-4.1-.1-8.2-.29-12.3-.46-2.75-.12-5.51-.12-8.27-.11h-3.67c-3.82,0-7.64-.23-11.46-.32-4.14-.1-8.28-.18-12.42-.18-3.73,0-7.46-.11-11.19-.17-7.11-.11-14.2-.69-21.3-.92-8.39-.28-16.79-.18-25.18-.31s-17-.25-25.45-.2c-4.07,0-8.15,0-12.21-.18s-8-.32-12-.43-8.07-.28-12.1-.46c-2-.09-3.93-.23-5.89-.34-2.16-.11-4.32-.17-6.49-.22-4.26-.1-8.51-.23-12.77-.35-4-.11-8.11-.13-12.16-.15s-8.33,0-12.5,0c-4.35,0-8.71-.12-13-.13-4.07,0-8.14-.1-12.21-.08s-8,.1-12,.11-8.24.12-12.36.17c-2.09,0-4.18.06-6.27,0s-4.3-.14-6.45-.23c-7.61-.32-15.22-.44-22.84-.46h-14.42Z" transform="translate(-0.03 0.1)"/><path d="M1225.25,89.89q-.23,6.69-.16,13.38c0,4.34.15,8.69.25,13,0,2.47-.15,4.93-.3,7.39-.2,3.37-.38,6.74-.59,10.1-.4,6.28-.63,12.58-1.08,18.86-.21,3-.39,6.09-.49,9.15-.1,2.8-.31,5.58-.57,8.38-.54,6-1,11.94-1.48,17.92-.23,3.25-.5,6.5-.67,9.75-.2,3.51-.34,7-.49,10.55-.3,6.77-.5,13.55-.73,20.32-.11,3.13-.31,6.26-.39,9.39-.09,3.49-.14,7-.25,10.48-.09,3.12-.2,6.25-.36,9.37-.17,3.35-.38,6.7-.5,10.05q-.32,8.7-.37,17.4c0,5.52.08,11,.14,16.54.14,10.94.58,21.88.79,32.81,0,5.75-.12,11.49-.14,17.23,0,6.53-.18,13.05-.24,19.58,0,2.72,0,5.44-.07,8.15-.07,3.05-.16,6.11-.24,9.16-.08,2.9-.11,5.8-.16,8.7-.06,3.57-.25,7.15-.29,10.72-.06,6.49,0,13-.14,19.47-.13,7-.4,14.07-.54,21.11-.13,6.39-.25,12.82-.11,19.22q.21,9.84.37,19.69V487q0,9.13.29,18.27c.17,5.33.19,10.66.22,16,0,3.29,0,6.56.11,9.84s.16,6.86.2,10.3c0,4.25,0,8.5-.09,12.75,0,4.71-.22,9.43-.14,14.13.07,4.36.15,8.72.3,13.07s.38,9,.45,13.51c-.11,5.42-.43,10.83-.62,16.24s-.27,10.89-.39,16.33c-.12,5.62-.15,11.25-.37,16.87-.25,6.28-.63,12.55-1,18.83-.32,5.53-.56,11.06-.58,16.6v18.79c0,3.19-.13,6.38-.22,9.57-.06,2.61-.07,5.23-.12,7.85,0,3-.13,6-.12,8.94q0,4.92.09,9.84c0,5.39-.07,10.78-.15,16.17-.11,6.5-.1,13-.26,19.49-.14,5.88-.39,11.74-.36,17.62v9.67c0,3.06-.11,6.12-.16,9.18-.09,6.19,0,12.39-.19,18.58-.1,2.91-.14,5.82-.21,8.74-.07,3.22-.19,6.43-.32,9.65s-.2,6.29-.25,9.44c0,1.57,0,3.14-.06,4.71v3.52c0,3.64.1,7.27.13,10.9v-.22c.06,7.51.38,15,.58,22.54,0,6.29.09,12.57.16,18.85s.34,12.72.39,19.08c0,3.49.08,7,.13,10.45s.24,6.82.39,10.23c.26,6.32.57,12.63.63,19,0,2.34,0,4.68.11,7s.15,4.66.22,7c.17,5.36.21,10.72.25,16.09.07,10,.49,19.88.58,29.82-.07,10-.1,19.93-.37,29.89-.13,4.69-.46,9.37-.71,14.06-.25,4.86-.41,9.74-.64,14.61s-.37,9.72-.48,14.59-.13,9.65-.29,14.48c-.16,5-.35,10-.53,15-.18,5.3-.12,10.59,0,15.89v18.19c0,4.44.07,8.88.1,13.31h0v.19q0,9.33.23,18.66v-.25c0,2.82,0,5.63.07,8.46s0,5.52,0,8.28v-1.07q0,15.3.06,30.58h0v.55c0,5.71,0,11.42.14,17.13.08,5.31.24,10.62.3,15.93,0,4.37-.06,8.74-.1,13.11,0,4.88-.15,9.75-.35,14.63s-.36,9.84-.52,14.75c-.14,4.4-.41,8.79-.37,13.2,0,4.67,0,9.35-.06,14,0,2.67-.12,5.35-.06,8,.06,2.48.18,5,.31,7.44.26,5.47.53,10.93.68,16.4.14,4.93.61,9.85.71,14.79,0,4-.22,7.92-.3,11.88-.12,5.12-.14,10.25-.16,15.37a3.77,3.77,0,0,0,.68,2.54,3.51,3.51,0,0,0,2.35,1.35,3.6,3.6,0,0,0,2.54-.68,3.36,3.36,0,0,0,1.35-2.35c0-7.23.12-14.46.47-21.68.18-3.57.2-7.14.11-10.71-.07-3.21-.29-6.42-.39-9.63v1q0-6.9-.29-13.76c-.16-4.39-.36-8.77-.42-13.16,0-4,.18-7.92.21-11.89,0-3.77.06-7.56.11-11.33,0-2.13.18-4.26.3-6.38s.19-4.44.28-6.65c.2-4.67.38-9.34.61-14s.28-9.41.38-14.11c.08-4.26.2-8.51.18-12.76q0-7.41-.22-14.8c-.11-4.21-.11-8.42-.14-12.64q0-7.1-.14-14.21v1.09c0-9.18,0-18.35-.07-27.52v.3c0-2.6,0-5.19-.08-7.8v.23c0-4.77-.11-9.55-.18-14.34v-17.06c0-4.25.07-8.51.07-12.76s0-8.81-.06-13.22v-7.84c.06-2.91.23-5.82.35-8.74.25-5.78.46-11.56.57-17.34.21-11.44.75-22.85,1.37-34.27.29-5.16.64-10.32.9-15.48.31-5.86.32-11.74.47-17.6s.19-11.64.21-17.46c0-3.16-.08-6.32-.11-9.48q-.06-4.44-.13-8.88V993c0-5.76-.18-11.25-.28-16.87v-8c0-2.92-.12-5.85-.21-8.77q-.3-8.77-.5-17.55c0-5.42,0-10.83-.07-16.24v.57c0-4.32-.09-8.63-.12-12.94v-8.75c0-5.15.09-10.29,0-15.45q-.09-6.68-.19-13.37V863c0-1.46,0-2.94,0-4.41v-.29q.1-6.06.39-12.1c.13-2.84.3-5.68.38-8.52.1-3,.18-6.08.29-9.12.09-2.81.2-5.61.25-8.43s0-5.56.07-8.34c.09-5.88.27-11.74.26-17.62,0-5.55,0-11.08.23-16.63q.32-9.63.31-19.26c0-5.55.12-11.09.18-16.63.06-5.78-.12-11.56-.22-17.33q0-9.11.2-18.19c.14-6.81,0-13.61,0-20.42,0-3.52,0-7,.06-10.56.08-3.25.23-6.51.41-9.76.38-6.81.87-13.63,1-20.46.17-6.52.34-13,.47-19.57s.38-13,.62-19.58c.11-3.13.27-6.26.3-9.4,0-3.6-.2-7.19-.34-10.79-.13-3.32-.28-6.64-.4-10-.13-3-.15-6-.21-9.07,0-6.47.08-12.94.12-19.41,0-7.12-.23-14.23-.51-21.34v1.41c0-5.86-.1-11.73-.17-17.58,0-3-.19-6-.3-9-.1-2.71-.14-5.42-.2-8.13v.85c-.06-9.23-.27-18.44-.49-27.66,0-7.24,0-14.48.13-21.72.06-3.69.18-7.38.24-11.06.07-4.2,0-8.39.07-12.58v-11.9c0-4,.21-8.15.25-12.23.07-6.65.27-13.3.25-19.95,0-12.34.25-24.67.48-37,.11-6.65-.13-13.3-.24-19.95-.1-6.05-.13-12.11-.2-18.16,0-13.1.1-26.19.74-39.28.3-6.14.38-12.28.5-18.43.14-6.79.44-13.59.58-20.39s.46-13.86.72-20.79c.24-6.28.73-12.54,1.1-18.81.34-5.77.89-11.52,1.08-17.3,0-1.47.08-3,.1-4.43q-.17-6.35-.16-12.68,0-11,.1-22.07c-.09-2.14-.16-4.28-.19-6.41-.09-6-.19-11.9-.24-17.85V97.32c-.26-2.48-.52-5-.67-7.45a3,3,0,0,0-2.59-2.57h-.33a3,3,0,0,0-3,2.62Zm-1.53,771.84Zm.18,41.44v0Zm.23,39Zm-8,90.76v0Zm5.29,113.44Z" transform="translate(-0.03 0.1)"/><path d="M1212.54,862.89v0Z" transform="translate(-0.03 0.1)"/><path d="M1224.06,925.52Z" transform="translate(-0.03 0.1)"/><path d="M1214.94,972Z" transform="translate(-0.03 0.1)"/><path d="M1221.69,1213Z" transform="translate(-0.03 0.1)"/><path d="M1224.24,3.6c-.4,4.09-.81,8.18-1.06,12.27-.23,3.84-.3,7.67-.4,11.51-.08,3.31-.19,6.62-.41,9.92-.25,3.62-.3,7.26-.37,10.89-.16,7.71-.58,15.41-.56,23.12v1.41c0,3.66-.14,7.32,0,11s.43,7,.66,10.58.27,7.17.5,10.75c.24,3.73.48,7.46.67,11.19.22,4.44.38,8.86.46,13.31,0,2.85,0,5.7-.15,8.56-.09,1.84-.18,3.67-.21,5.52s0,3.49.06,5.23c0,1.45,0,2.9.1,4.35.11,1.64.21,3.28.3,4.93.19,3.28.27,6.57.37,9.85v6.86a2.76,2.76,0,0,0,.51,1.91,2.63,2.63,0,0,0,3.69.5,2.67,2.67,0,0,0,1-1.75c.24-7.58,0-15.17-.11-22.75.07-3.68.14-7.37.45-11q.29-3.27.53-6.54c.14-1.79.16-3.57.23-5.36.13-3.87.14-7.74.15-11.6s.06-7.64.09-11.45c0-4.74.2-9.49.11-14.23-.08-4-.31-8-.38-11.94,0-3.53.06-7.06,0-10.59V50.71c0-3.14-.11-6.29-.14-9.43V40c0-2.83.07-5.66,0-8.5s-.19-5.83-.26-8.74c-.09-3.08-.13-6.17-.21-9.25-.08-2.91-.19-5.82-.23-8.73v-.5a2.92,2.92,0,0,0-.52-1.92,2.65,2.65,0,0,0-1.78-1H1227a2.66,2.66,0,0,0-2.64,2.31Zm6,36.67v0Zm0,.55Zm-8.78,32v0Zm8.78-31.6Z" transform="translate(-0.03 0.1)"/><path d="M1225.14,85.56a5.07,5.07,0,0,0-.67,1.81,2.22,2.22,0,0,0-1.07,1.84c.16,4.17-.11,8.34-.3,12.51-.17,3.79-.33,7.59-.51,11.39q-.33,6.7-.58,13.41c0,1.54-.14,3.09-.15,4.63s0,3.35,0,5c0,.38,0,.76-.07,1.14-.12,2-.23,3.89-.32,5.85l-.27,6.17c-.07,1.85-.17,3.7-.21,5.55q-.27,13.13-.37,26.26c0,1.86,0,3.73.06,5.59s0,3.42.09,5.13l.21,7.84c0,.65.07,1.31.12,2,.08,1.27.17,2.55.25,3.82.05.73.1,1.45.17,2.18s.11,1.27.2,1.91.19,1,.3,1.57a2,2,0,0,0,.75,1.19v.74h0v.49a2,2,0,0,0,.47.89,1.88,1.88,0,0,0,3.24-1h.13a1.78,1.78,0,0,0,1.85-1.71h0c-.08-2.15-.25-4.31-.37-6.46s-.24-4.31-.35-6.47v-6.19c.07-.09.15-.18.22-.28a2,2,0,0,0,.29-.87,8.71,8.71,0,0,0,0-1.84v-.39a1.51,1.51,0,0,0,.46-1.15c-.07-2-.14-4-.19-6,0-.87.06-1.73.08-2.6q.21-6.64.34-13.29.15-7.82.25-15.62c.19-3.57.45-7.13.66-10.7.12-2,.21-4,.29-6s.1-3.75.17-5.63c.14-4.06.24-8.13.18-12.2s-.12-8.28-.32-12.42c0-1.17-.11-2.33-.19-3.5,0-.59-.07-1.19-.12-1.78,0-.41-.07-.83-.11-1.24a4,4,0,0,0-.21-1.18h0c0-1.25-.07-2.49-.1-3.74,0-.68-.06-1.35-.1-2s-.11-1.48-.21-2.22a8.61,8.61,0,0,0-.48-1.79,1.84,1.84,0,0,0-.49-.92,2,2,0,0,0-.85-.53,1.84,1.84,0,0,0-.57-.09,2,2,0,0,0-1.68.93Z" transform="translate(-0.03 0.1)"/></g></svg>