<?xml version="1.0" standalone="no"?>
<!DOCTYPE svg PUBLIC "-//W3C//DTD SVG 20010904//EN"
 "http://www.w3.org/TR/2001/REC-SVG-20010904/DTD/svg10.dtd">
<svg version="1.0" xmlns="http://www.w3.org/2000/svg"
 width="750.000000pt" height="1000.000000pt" viewBox="0 0 750.000000 1000.000000"
 preserveAspectRatio="xMidYMid meet">

<g transform="translate(0.000000,1000.000000) scale(0.100000,-0.100000)"
fill="#000000" stroke="none">
<path d="M3454 8575 c-77 -17 -167 -62 -238 -120 l-55 -45 -38 23 c-77 45
-250 19 -313 -48 -21 -23 -24 -23 -63 -9 -60 22 -162 28 -232 15 -96 -18 -181
-65 -257 -143 l-67 -69 -66 12 c-136 25 -298 -26 -400 -126 -55 -54 -119 -168
-130 -233 l-6 -39 -82 -11 c-108 -14 -178 -42 -259 -103 -126 -94 -223 -257
-253 -424 -16 -88 -16 -102 -2 -188 9 -51 19 -100 22 -109 5 -12 -2 -18 -27
-23 -227 -49 -354 -346 -242 -567 44 -86 71 -109 202 -175 2 -1 -1 -10 -7 -21
-19 -35 -30 -149 -21 -212 25 -175 161 -312 338 -339 35 -6 76 -8 91 -5 25 5
30 1 65 -71 81 -164 226 -255 406 -255 60 0 88 8 197 56 7 3 20 -11 32 -33 35
-68 89 -121 158 -155 57 -28 77 -33 142 -33 51 0 91 6 120 18 l44 18 36 -25
c79 -55 171 -51 263 9 l40 27 29 -35 c16 -20 45 -45 65 -58 62 -38 216 -42
262 -6 7 5 14 8 16 6 13 -15 52 -307 62 -463 l7 -109 -24 7 c-13 4 -49 10 -81
13 -73 7 -150 -26 -198 -86 -33 -40 -34 -41 -84 -35 -59 7 -106 -9 -165 -55
-36 -29 -39 -29 -77 -16 -82 29 -169 8 -237 -59 -123 -119 -91 -317 60 -367
20 -6 47 -24 60 -39 47 -56 153 -78 216 -45 27 14 29 13 67 -25 65 -65 113
-85 200 -84 61 1 85 6 128 28 30 15 56 25 58 23 5 -4 -19 -304 -34 -441 l-7
-60 -68 -16 c-134 -33 -209 -118 -215 -245 l-4 -71 -45 -24 c-36 -19 -48 -21
-61 -12 -124 91 -300 72 -399 -42 l-37 -42 -68 35 c-61 31 -76 35 -146 34
-148 -1 -254 -66 -317 -197 l-35 -72 -59 -2 c-147 -4 -251 -105 -251 -244 0
-53 -2 -58 -22 -59 -13 -1 -36 -2 -53 -4 -16 -1 -102 -6 -190 -10 -111 -5
-178 -13 -220 -26 -33 -10 -75 -19 -94 -19 -116 0 96 -17 434 -35 55 -3 147
-8 205 -12 l105 -8 -65 -6 c-36 -4 -157 -7 -270 -8 -113 -1 -223 -5 -245 -10
-40 -7 -39 -7 25 -14 55 -6 377 -23 782 -41 60 -3 246 -8 415 -12 170 -4 326
-10 348 -15 37 -7 -235 -6 -920 5 -181 3 -240 2 -195 -4 61 -9 173 -15 740
-39 294 -13 2878 -36 3006 -27 55 4 117 12 139 18 l40 12 -85 7 c-47 4 -153 7
-237 8 -91 1 -154 5 -158 11 -4 7 195 10 617 9 479 -1 643 2 708 13 83 13 79
13 -240 19 -462 9 -454 9 -449 13 5 5 242 14 549 21 278 6 390 14 390 26 0 5
-64 10 -142 10 -79 1 -213 4 -298 8 l-155 6 90 8 c300 25 355 32 355 47 0 10
-131 20 -260 20 l-107 0 20 58 c36 107 8 231 -71 309 -69 69 -182 99 -266 70
-44 -15 -47 -15 -52 1 -29 90 -94 170 -167 202 -70 31 -134 35 -201 12 l-59
-20 -51 39 c-104 80 -252 91 -374 30 l-61 -31 -15 29 c-36 68 -132 134 -216
147 -23 4 -44 12 -46 18 -5 15 -74 476 -81 545 -6 52 -5 53 18 46 129 -42 247
-17 306 63 l22 30 47 -14 c113 -34 211 -9 295 75 69 69 93 132 87 224 -10 159
-134 278 -298 285 -65 3 -81 0 -122 -22 -42 -22 -48 -23 -48 -8 0 27 -45 115
-71 139 -67 61 -197 82 -272 44 l-37 -19 0 127 c1 144 15 390 24 398 3 3 29
-5 58 -18 44 -19 70 -23 153 -24 91 0 106 3 165 31 65 31 117 74 155 128 20
28 22 29 45 13 43 -27 131 -47 206 -47 104 0 174 28 242 97 l52 54 68 -28 c59
-24 80 -28 177 -28 104 0 114 2 183 34 85 40 153 107 184 181 20 48 22 50 52
45 45 -9 163 12 223 40 66 30 132 91 166 153 28 51 57 156 57 207 0 27 7 34
58 62 73 41 151 121 184 193 115 246 11 575 -225 709 -57 33 -58 33 -50 69 4
21 8 91 8 157 0 100 -4 132 -24 190 -75 223 -299 403 -526 424 l-70 6 -21 45
c-36 76 -103 133 -195 169 -20 7 -29 21 -38 56 -43 170 -188 300 -381 341 -94
20 -187 13 -284 -22 -39 -13 -79 -27 -88 -30 -12 -4 -22 5 -37 35 -52 101
-194 203 -334 241 -71 19 -99 22 -207 17 -134 -5 -195 -20 -297 -69 l-62 -30
-43 35 c-104 85 -266 117 -424 82z m276 -131 c98 -38 189 -128 173 -170 -6
-17 -5 -18 13 -4 10 8 41 34 67 58 85 78 193 112 350 112 154 0 268 -43 363
-135 53 -52 73 -87 135 -237 13 -32 27 -58 32 -58 8 0 11 33 12 120 l0 55 69
23 c226 76 486 -39 583 -256 13 -30 29 -90 36 -135 13 -81 13 -81 30 -57 9 13
20 39 23 57 7 38 6 38 42 19 65 -34 112 -107 127 -193 l7 -43 73 0 c87 0 181
-27 245 -70 80 -53 159 -140 197 -218 33 -66 37 -82 41 -175 3 -72 0 -112 -9
-135 -13 -31 -14 -28 -11 51 3 69 0 93 -18 135 -12 28 -31 59 -42 69 l-21 18
18 -35 c22 -42 32 -187 17 -240 l-10 -35 -1 45 c-1 51 -24 148 -44 186 -12 22
-13 13 -9 -68 l5 -93 -44 45 c-73 76 -187 114 -283 96 -41 -8 -49 -26 -11 -26
34 0 101 -28 154 -63 101 -69 160 -158 201 -305 13 -45 27 -79 31 -75 4 5 12
31 16 58 l8 50 53 3 c174 10 331 -193 332 -429 0 -47 -7 -108 -15 -135 -14
-47 -72 -150 -80 -142 -2 2 8 28 22 57 20 39 28 73 31 133 4 75 -10 182 -26
192 -4 2 -7 -37 -7 -87 0 -129 -30 -224 -94 -304 -36 -45 -47 -42 -16 5 41 62
67 150 68 225 0 37 -5 73 -11 79 -7 7 -9 -1 -6 -28 3 -22 -1 -59 -9 -84 l-14
-45 -1 71 c0 51 -6 84 -21 115 -12 24 -19 35 -16 24 9 -31 19 -145 12 -145 -3
0 -11 26 -17 58 -16 74 -82 202 -120 230 -31 24 -80 45 -80 36 0 -3 13 -17 30
-30 72 -61 123 -235 102 -351 -10 -56 -48 -160 -56 -152 -3 2 2 29 10 59 29
112 7 280 -41 320 -17 14 -21 0 -5 -16 18 -18 24 -175 10 -235 -28 -119 -102
-226 -200 -289 -28 -18 -53 -30 -56 -28 -2 3 13 17 35 31 51 34 117 121 142
186 29 78 23 82 -18 12 -53 -89 -160 -187 -261 -239 -46 -24 -85 -42 -87 -40
-2 2 33 24 78 48 95 53 190 142 231 218 40 75 52 174 31 255 -15 59 -43 112
-31 57 26 -112 -4 -245 -75 -330 l-20 -25 19 40 c47 98 53 227 16 314 l-19 43
-1 -109 c0 -87 -5 -119 -23 -165 -23 -59 -90 -152 -117 -162 -17 -7 -13 2 22
50 64 84 95 207 73 284 l-13 45 -7 -63 c-13 -107 -118 -284 -192 -324 -19 -9
-20 -9 -11 3 93 118 127 182 144 269 6 29 9 55 7 57 -2 2 -19 -27 -38 -64 -47
-95 -189 -237 -282 -283 -37 -18 -70 -30 -73 -27 -3 3 17 17 45 32 127 64 251
246 259 382 3 40 0 69 -7 76 -8 8 -11 1 -11 -26 0 -45 -40 -144 -83 -207 -49
-71 -119 -133 -195 -173 -83 -44 -104 -48 -41 -9 143 91 235 229 252 380 3 23
1 42 -4 42 -5 0 -9 -8 -9 -18 0 -42 -65 -149 -130 -213 -67 -66 -189 -139
-233 -139 -11 0 12 16 51 35 111 56 216 184 237 290 5 28 4 27 -16 -10 -37
-69 -176 -198 -249 -233 -90 -42 -130 -51 -50 -10 83 42 170 130 211 213 37
75 35 108 -3 44 -14 -24 -46 -64 -70 -90 -45 -46 -176 -145 -183 -137 -2 2 23
25 56 52 58 47 157 171 146 183 -4 3 -34 -20 -69 -52 -35 -31 -81 -66 -103
-77 l-40 -20 48 42 c43 38 137 157 137 175 0 4 -30 -21 -66 -54 -37 -33 -70
-59 -74 -56 -4 2 -20 -9 -35 -25 -16 -17 -33 -30 -39 -30 -6 0 7 15 29 33 22
17 50 43 63 56 25 27 88 149 80 156 -3 3 -24 -22 -47 -54 -44 -63 -134 -147
-139 -131 -2 5 11 28 30 49 36 43 93 134 103 166 7 22 -1 13 -78 -82 -23 -29
-45 -52 -49 -53 -18 -1 52 130 89 168 23 23 38 42 32 42 -16 0 -97 -58 -114
-82 -14 -21 -15 -21 -15 -3 0 31 48 95 83 111 l32 15 -35 -6 c-19 -3 -52 -19
-73 -36 -48 -39 -58 -32 -18 13 21 24 54 43 113 66 145 55 201 123 202 242 0
49 -6 79 -26 123 -30 63 -42 75 -27 25 16 -53 13 -151 -5 -186 -21 -41 -30
-41 -23 1 5 36 -10 158 -21 169 -4 4 -8 -28 -9 -70 -1 -43 -8 -93 -16 -113
-15 -33 -15 -33 -10 36 3 39 1 86 -5 105 -10 34 -10 34 -11 -20 -1 -57 -21
-144 -40 -176 -8 -15 -9 -12 -3 16 10 48 9 157 -3 205 -8 36 -10 28 -16 -70
-3 -60 -11 -123 -18 -139 -16 -40 -23 -28 -10 20 21 75 -9 274 -42 274 -4 0
-2 -15 6 -32 15 -38 31 -165 16 -133 -5 11 -10 29 -10 41 -1 33 -57 137 -91
169 l-31 30 26 -48 c38 -67 55 -140 54 -232 -1 -116 -15 -140 -21 -35 -3 47
-12 101 -20 120 -15 34 -16 33 -11 -55 3 -49 1 -106 -5 -125 -9 -33 -10 -30
-12 35 -2 95 -14 125 -25 65 -8 -41 -9 -36 -15 57 -5 88 -10 110 -39 167 -29
55 -71 112 -71 94 0 -3 12 -31 26 -62 35 -77 43 -189 19 -271 -20 -70 -59
-151 -88 -182 -35 -39 -11 -36 33 3 l42 38 18 -24 c48 -63 68 -248 36 -325
-20 -46 -24 -44 -17 8 3 23 4 60 1 82 -5 40 -5 40 -17 -24 -12 -60 -68 -199
-78 -190 -2 3 7 32 20 65 24 59 48 235 26 189 -5 -11 -12 -37 -16 -57 -8 -54
-78 -186 -125 -238 -38 -42 -37 -40 14 37 59 88 73 126 81 213 l5 55 -13 -41
c-20 -58 -74 -156 -108 -195 l-29 -34 29 60 c35 72 61 157 61 199 0 24 -6 14
-25 -41 -14 -40 -37 -93 -52 -117 -26 -40 -128 -156 -139 -156 -2 0 16 27 41
61 45 61 77 144 89 229 5 39 4 41 -5 20 -63 -138 -136 -245 -200 -291 -36 -25
-32 -17 20 51 63 83 117 238 91 264 -7 7 -10 2 -10 -15 0 -39 -65 -164 -111
-214 -47 -51 -67 -54 -25 -4 15 17 35 48 46 68 21 43 54 150 47 157 -2 3 -17
-19 -32 -48 -39 -75 -97 -158 -135 -193 -30 -27 -28 -24 14 38 48 71 101 216
94 258 -3 20 -6 18 -17 -16 -21 -62 -81 -179 -97 -188 -8 -5 -12 -12 -10 -16
3 -4 -1 -8 -7 -8 -8 0 -1 24 20 63 38 71 73 198 72 258 l-1 41 -10 -35 c-52
-187 -163 -358 -287 -442 -42 -29 -40 -26 25 38 119 116 188 258 198 409 l6
80 -13 -57 c-18 -80 -25 -80 -23 -1 1 73 -10 143 -23 143 -5 0 -5 -19 -1 -42
9 -46 -3 -132 -25 -185 -19 -44 -26 -42 -13 4 13 49 5 191 -13 225 -13 25 -14
19 -11 -70 2 -59 -2 -114 -10 -141 -12 -41 -13 -38 -13 70 0 124 -14 180 -64
251 -34 49 -47 48 -22 -1 32 -61 47 -196 32 -277 -11 -62 -47 -151 -57 -142
-2 2 1 20 6 39 23 78 1 208 -42 245 -21 19 -21 19 -12 -1 14 -32 17 -214 4
-280 -14 -72 -57 -166 -101 -218 -39 -47 -49 -42 -15 8 42 61 68 144 74 230 5
86 -5 96 -19 18 -8 -44 -76 -199 -84 -191 -2 2 5 29 16 61 22 64 38 188 22
172 -5 -5 -15 -30 -22 -55 -13 -44 -57 -140 -65 -140 -3 0 4 24 14 53 10 28
21 81 24 117 l6 65 -28 -85 c-32 -95 -86 -192 -128 -230 l-28 -25 23 32 c55
81 111 252 111 343 0 54 -15 31 -32 -48 -17 -86 -69 -200 -124 -275 -41 -57
-57 -58 -19 -2 45 67 67 158 72 295 3 69 2 122 -3 118 -4 -5 -9 -38 -11 -75
-1 -38 -12 -99 -24 -138 -24 -81 -84 -209 -107 -227 -14 -12 -14 -10 -3 10 34
63 92 304 77 319 -2 2 -12 -22 -21 -54 -21 -71 -107 -252 -112 -236 -2 6 3 25
11 41 21 40 82 257 89 317 7 54 -6 44 -18 -14 -4 -19 -31 -93 -60 -165 -28
-72 -55 -140 -59 -150 -3 -10 -9 -17 -11 -14 -3 2 7 49 21 104 37 148 73 317
64 307 -4 -4 -35 -84 -68 -178 -81 -225 -85 -235 -93 -235 -7 0 -2 24 61 299
22 96 38 176 36 178 -11 11 -70 -182 -120 -392 -30 -124 -32 -100 -6 74 11 74
18 136 16 138 -6 7 -56 -144 -75 -227 l-19 -85 -1 61 c-1 70 21 207 49 308 11
39 17 72 15 74 -7 7 -52 -98 -81 -186 -33 -103 -57 -238 -52 -297 5 -48 5 -49
-8 -20 -31 71 -12 243 48 438 16 54 28 100 26 103 -3 2 -19 -27 -37 -65 -122
-264 -132 -448 -35 -592 l37 -54 -32 29 c-40 38 -66 94 -82 174 -16 84 0 199
51 381 22 78 40 147 39 154 -1 18 -67 -127 -94 -208 -14 -40 -25 -59 -25 -45
0 38 25 148 53 230 14 41 28 84 32 95 l7 20 -17 -20 c-34 -41 -76 -138 -96
-223 -17 -71 -20 -107 -16 -197 3 -60 12 -132 21 -160 8 -27 14 -51 12 -53 -8
-7 -36 97 -47 173 -28 200 32 416 150 548 60 66 18 45 -54 -27 -104 -105 -154
-226 -162 -396 -6 -137 9 -214 62 -320 19 -38 33 -70 31 -70 -11 0 -68 103
-85 153 -30 88 -45 238 -32 331 23 160 124 343 226 407 17 10 23 19 15 19 -8
0 -39 -16 -68 -36 -91 -61 -194 -220 -222 -343 -19 -83 -8 -259 22 -348 14
-42 19 -68 12 -62 -17 14 -41 88 -55 173 -42 250 79 550 266 657 66 38 35 37
-42 -1 -95 -47 -181 -138 -249 -262 -47 -85 -32 -33 19 67 30 58 62 100 117
154 74 73 74 74 30 51 -51 -26 -151 -118 -182 -168 -12 -19 -32 -60 -45 -91
-20 -46 -23 -50 -19 -21 16 93 141 253 239 305 61 32 42 38 -21 6 -77 -39
-157 -103 -195 -157 -17 -24 -33 -42 -35 -40 -8 8 56 91 105 138 28 25 69 56
93 68 68 35 37 35 -37 1 -71 -33 -144 -95 -170 -144 -8 -16 -17 -27 -19 -24
-11 10 30 72 80 122 30 29 82 66 126 88 l75 37 -50 0 c-70 0 -137 -26 -205
-81 l-58 -47 -19 26 c-35 48 -54 93 -68 161 l-13 66 -1 -50 c-1 -68 13 -114
54 -175 40 -59 40 -60 21 -60 -20 0 -66 64 -93 129 -17 43 -23 76 -23 141 0
67 -2 81 -12 71 -9 -8 -13 -42 -12 -99 0 -105 21 -158 90 -232 26 -27 41 -50
34 -50 -27 0 -107 97 -130 156 -51 137 -48 242 11 323 16 23 25 41 20 41 -12
0 -53 -53 -75 -97 -38 -75 -10 -271 50 -350 35 -46 30 -52 -10 -14 -53 51 -78
120 -85 236 l-7 100 -13 -60 c-16 -71 -6 -146 30 -222 33 -69 33 -71 4 -38
-35 41 -65 143 -65 221 0 91 29 161 98 236 38 40 49 57 32 48 -86 -45 -152
-131 -168 -219 -13 -71 2 -183 31 -243 13 -27 20 -48 16 -48 -4 0 -20 26 -36
58 -25 51 -28 68 -28 157 0 88 3 106 27 155 33 67 94 129 168 169 63 35 54 40
-20 12 -162 -62 -248 -197 -238 -374 6 -93 -10 -80 -19 16 -25 274 240 511
541 484 71 -6 63 6 -19 27 -165 44 -365 -17 -504 -153 -83 -81 -116 -138 -143
-243 -31 -124 -9 -230 64 -305 18 -18 27 -33 21 -33 -15 0 -93 89 -93 106 0 8
-4 14 -9 14 -13 0 2 -50 24 -84 10 -15 31 -36 47 -47 16 -12 27 -24 24 -27 -9
-8 -80 45 -106 80 -13 17 -29 50 -36 72 l-13 41 0 -35 c-1 -41 46 -128 85
-159 19 -15 24 -25 17 -32 -13 -13 -86 57 -113 112 -12 22 -23 39 -26 37 -11
-12 32 -101 67 -139 41 -45 47 -59 26 -59 -35 0 -116 123 -117 178 0 12 -4 22
-10 22 -14 0 -13 -9 11 -85 14 -47 31 -77 58 -104 l38 -38 -30 -52 c-34 -61
-47 -165 -27 -216 l12 -30 22 70 c32 99 47 125 111 183 69 63 151 92 259 92
55 0 83 -6 126 -26 73 -34 90 -51 90 -89 0 -44 26 -128 50 -158 19 -24 19 -25
1 -20 -15 4 -24 -7 -45 -51 -15 -31 -28 -56 -31 -56 -6 0 11 54 30 93 16 34
14 57 -5 57 -5 0 -23 -29 -41 -65 -23 -47 -33 -85 -38 -142 -7 -77 -7 -78 -15
-32 -9 54 5 141 34 206 20 46 20 46 0 28 -58 -53 -95 -202 -72 -290 10 -36 10
-38 -3 -20 -36 47 -45 145 -20 215 13 36 13 41 1 31 -22 -18 -46 -99 -46 -152
0 -71 18 -144 46 -185 32 -47 24 -56 -10 -12 -38 50 -56 101 -63 176 -6 60 -8
63 -14 33 -8 -39 6 -152 22 -184 6 -12 28 -39 48 -61 21 -22 28 -34 16 -28
-22 11 -72 63 -99 102 l-18 25 7 -25 c15 -50 35 -79 97 -135 46 -42 55 -53 31
-41 -53 27 -133 108 -148 151 l-14 40 -1 -32 c0 -39 69 -128 135 -173 25 -17
45 -33 45 -36 0 -14 -85 45 -130 89 -55 56 -66 51 -21 -9 35 -48 76 -86 116
-108 l30 -17 -29 6 c-32 7 -189 109 -248 163 -49 45 -89 102 -134 193 -20 39
-37 69 -40 67 -9 -9 45 -151 72 -189 39 -57 158 -157 280 -236 10 -7 -6 -3
-36 8 -210 79 -365 265 -387 463 -6 49 -8 55 -13 31 -8 -45 8 -158 30 -216 20
-49 58 -110 97 -154 46 -52 154 -125 223 -151 31 -11 32 -13 10 -13 -14 -1
-59 15 -99 34 -98 47 -200 148 -240 237 -40 91 -63 183 -65 260 -1 45 -4 64
-11 57 -6 -6 -10 -58 -9 -117 0 -85 5 -120 24 -172 46 -129 129 -224 257 -294
37 -20 57 -34 43 -30 -99 26 -246 156 -298 264 -60 122 -76 262 -42 360 10 30
17 56 16 58 -6 6 -53 -75 -66 -111 -20 -62 -15 -211 9 -287 11 -35 19 -66 17
-67 -8 -8 -45 88 -57 146 -18 94 -6 195 36 294 4 10 3 17 -4 17 -20 0 -70
-121 -82 -199 -6 -40 -9 -92 -7 -116 1 -24 0 -41 -4 -38 -14 8 -8 167 8 228 8
33 24 75 35 94 29 49 17 48 -26 -1 -56 -65 -87 -134 -100 -223 -12 -77 -12
-78 -20 -41 -10 50 -1 187 15 216 6 12 9 24 6 27 -3 4 -16 -16 -28 -43 -19
-41 -23 -66 -23 -149 0 -90 3 -106 27 -153 15 -29 23 -50 17 -46 -6 3 -24 34
-40 68 -16 33 -29 52 -29 41 0 -11 13 -48 30 -83 16 -35 25 -60 20 -57 -18 11
-64 98 -76 144 -11 40 -13 42 -13 16 -1 -44 26 -143 51 -184 12 -20 37 -53 57
-75 23 -25 29 -35 15 -28 -33 17 -101 97 -129 152 -14 28 -32 79 -39 113 -13
57 -14 59 -15 22 -1 -53 24 -155 50 -208 12 -23 44 -64 73 -91 39 -38 44 -45
21 -33 -44 24 -68 46 -109 100 -37 50 -76 157 -76 210 0 23 -3 28 -11 20 -16
-16 5 -160 31 -216 43 -92 123 -157 257 -213 71 -29 45 -32 -31 -3 -133 49
-223 139 -267 264 -29 83 -23 218 15 329 15 43 25 80 23 82 -2 2 -17 -20 -35
-49 -104 -173 -75 -426 66 -569 25 -27 43 -48 39 -48 -21 0 -74 51 -109 104
-56 87 -78 167 -78 290 0 121 16 193 68 299 21 42 36 77 33 77 -7 0 -60 -65
-82 -100 -9 -14 -26 -52 -39 -85 -21 -53 -24 -78 -24 -202 -1 -157 -13 -152
-23 9 -4 61 -1 120 6 159 12 61 70 191 91 204 5 3 10 11 10 17 0 18 -57 -41
-90 -93 -54 -83 -73 -152 -74 -272 0 -111 -9 -108 -21 6 -12 116 41 286 116
372 48 54 5 29 -48 -28 -80 -87 -117 -190 -117 -330 -1 -106 -13 -94 -15 13
-3 202 132 411 287 445 42 9 29 27 -19 28 -62 1 -108 -13 -155 -49 -25 -20
-43 -30 -38 -22 4 7 18 30 31 51 13 20 19 37 14 37 -9 0 -65 -59 -93 -100 -17
-24 -17 -23 -1 15 25 56 61 115 91 148 14 15 21 27 14 27 -21 0 -85 -64 -124
-124 -21 -33 -38 -54 -38 -47 0 28 60 141 104 194 26 32 46 60 44 62 -8 8
-102 -81 -141 -134 -23 -31 -56 -92 -74 -136 -37 -90 -44 -81 -12 16 30 90 50
127 125 225 59 77 62 84 34 68 -51 -30 -128 -122 -167 -200 -24 -49 -41 -105
-54 -175 l-18 -104 5 85 c11 171 64 289 191 420 46 47 83 86 83 88 0 2 -23 -9
-51 -25 -64 -35 -171 -147 -205 -215 -44 -87 -56 -129 -63 -233 l-8 -100 -1
95 c-1 53 4 118 12 146 29 110 137 268 224 328 57 39 45 45 -22 12 -55 -27
-128 -90 -179 -156 l-28 -35 18 34 c26 49 130 159 183 194 41 26 42 29 15 23
-86 -20 -225 -143 -277 -246 -16 -30 -28 -48 -28 -41 0 32 71 142 130 201 62
62 169 130 204 130 9 0 16 5 16 10 0 11 -24 7 -90 -12 -84 -25 -190 -107 -242
-187 -38 -60 -36 -40 4 29 46 80 141 170 220 209 56 28 82 34 156 39 136 7
220 -25 291 -111 l24 -29 -24 -66 c-20 -55 -24 -86 -24 -172 0 -92 4 -112 26
-160 44 -93 145 -170 225 -170 44 0 51 15 13 30 -17 7 -41 27 -53 44 -38 51
-41 63 -9 33 26 -24 93 -54 93 -41 0 3 -13 16 -29 29 -71 60 -101 226 -63 352
12 38 35 88 52 112 42 58 32 62 -18 7 -53 -57 -81 -113 -97 -195 -10 -53 -13
-59 -14 -29 -1 55 33 155 75 216 51 73 154 145 256 177 44 14 86 25 96 25 13
0 14 2 3 13 -17 17 -208 16 -238 -1 -13 -7 -23 -9 -23 -4 0 8 91 66 123 78 34
13 16 22 -25 12 -57 -12 -111 -45 -178 -107 -30 -28 -56 -51 -58 -51 -2 0 10
17 27 38 49 63 119 122 174 148 l52 25 -49 -6 c-87 -9 -171 -70 -247 -178 -61
-87 -64 -68 -5 27 51 81 113 145 171 174 38 20 39 21 12 22 -60 1 -199 -97
-234 -164 -9 -17 -18 -26 -20 -19 -11 32 124 224 182 259 59 35 13 31 -50 -5
-73 -42 -142 -106 -176 -165 -17 -28 -27 -40 -23 -26 19 71 129 196 206 236
16 8 28 17 26 20 -9 8 -73 -19 -126 -53 -62 -39 -94 -71 -133 -132 -37 -58
-37 -46 1 29 74 147 248 247 390 222 45 -7 45 -8 48 -52 2 -25 7 -49 11 -53 4
-4 28 28 54 71 25 43 66 100 92 125 51 51 146 101 214 112 65 11 173 8 222 -5
41 -11 44 -11 63 15 41 57 147 72 237 34 l50 -22 -6 -41 c-4 -25 0 -70 10
-114 l17 -73 72 -33 c86 -40 155 -110 185 -192 12 -30 21 -59 21 -64 0 -5 4
-11 9 -15 5 -3 27 27 48 67 42 80 97 142 170 189 42 27 44 30 18 24 -66 -15
-173 -94 -202 -149 -9 -17 -18 -26 -20 -19 -7 19 32 85 83 142 l47 53 -38 -16
c-43 -18 -56 -27 -102 -70 -18 -16 -33 -24 -33 -18 0 23 89 109 147 141 52 29
54 32 24 27 -53 -9 -146 -55 -177 -87 -35 -37 -49 -37 -30 0 21 39 71 80 131
106 106 46 105 46 46 41 -58 -6 -160 -49 -216 -92 -49 -37 -35 -5 15 35 37 29
149 88 202 106 l23 8 -25 4 c-22 3 -63 -6 -149 -33 -18 -5 -23 -4 -19 7 2 8
46 30 96 49 50 19 93 38 96 41 3 3 -25 2 -62 -2 -76 -8 -169 -45 -224 -90 -52
-41 -48 -19 3 25 44 37 168 94 225 103 46 8 32 23 -21 23 -56 0 -160 -33 -207
-65 -56 -38 -46 -13 11 29 59 43 144 83 203 96 61 13 175 5 228 -16z m-2515
-1228 c-9 -20 -22 -60 -30 -89 -15 -49 -15 -50 -11 -12 3 39 45 150 52 142 3
-2 -3 -21 -11 -41z m3985 -322 c30 -48 21 -51 -12 -3 -15 21 -24 39 -19 39 5
0 19 -16 31 -36z m-4128 -124 c-36 -47 -62 -106 -77 -174 -3 -15 -8 -26 -11
-24 -8 8 17 111 36 148 16 30 76 100 86 100 2 0 -13 -23 -34 -50z m2047 -47
c1 -57 44 -188 79 -243 44 -70 46 -78 12 -40 -41 44 -78 127 -96 210 -15 71
-18 185 -4 140 4 -14 8 -44 9 -67z m-2246 22 c-20 -25 -39 -45 -40 -45 -8 0
16 37 41 63 41 44 40 31 -1 -18z m222 -66 c-16 -26 -23 -34 -19 -19 8 29 35
73 41 67 2 -2 -8 -24 -22 -48z m-188 4 c-21 -25 -47 -91 -57 -150 -7 -44 -8
-45 -9 -12 0 20 5 56 13 82 14 48 54 112 64 103 3 -3 -2 -14 -11 -23z m2198
-183 c15 -30 43 -75 63 -100 l35 -45 -42 40 c-52 49 -109 163 -116 230 l-5 50
18 -60 c11 -33 32 -85 47 -115z m-1775 -110 c25 -73 96 -186 141 -224 17 -15
26 -26 21 -26 -18 0 -100 80 -131 128 -17 26 -37 68 -46 92 -23 64 -36 174
-28 223 7 38 8 35 14 -43 4 -47 17 -114 29 -150z m-405 183 c-5 -10 -14 -43
-21 -73 -10 -44 -12 -49 -13 -23 -1 31 25 113 36 113 3 0 2 -8 -2 -17z m325
-215 c48 -129 153 -242 285 -308 33 -16 52 -30 41 -30 -33 0 -143 59 -194 105
-120 108 -183 262 -172 420 2 17 6 -6 11 -50 4 -44 17 -106 29 -137z m150 12
c23 -67 17 -79 -8 -19 -23 54 -42 138 -41 182 0 21 6 9 16 -38 8 -38 23 -95
33 -125z m-297 65 c3 -46 2 -69 -3 -55 -8 24 -14 147 -6 139 2 -2 6 -40 9 -84z
m3435 3 c-20 -35 -49 -67 -93 -101 -31 -24 -24 -14 30 45 39 43 71 78 73 78 1
0 -3 -10 -10 -22z m-333 -77 c-54 -51 -141 -91 -198 -90 -24 0 -13 6 43 22 71
21 150 66 179 101 8 9 16 16 20 16 3 0 -17 -22 -44 -49z m-1165 -98 c25 -8 80
-15 122 -16 83 -2 90 -6 29 -17 -51 -9 -142 5 -192 30 -39 20 -55 39 -21 25 9
-4 37 -14 62 -22z m37 -79 c37 -8 80 -13 96 -10 17 4 26 2 22 -4 -3 -6 -35
-10 -71 -10 -49 0 -76 6 -114 25 -27 13 -52 30 -55 36 -4 6 7 4 24 -5 16 -9
61 -23 98 -32z m-452 -58 c61 -1 126 2 145 6 l35 7 -35 -16 c-23 -11 -65 -16
-125 -17 -93 -1 -156 12 -190 39 -16 12 -12 11 20 -2 29 -12 70 -17 150 -17z
m1075 24 c0 -5 -4 -10 -10 -10 -5 0 -10 5 -10 10 0 6 5 10 10 10 6 0 10 -4 10
-10z m1275 0 c-16 -25 -163 -41 -195 -20 -10 7 2 8 40 4 36 -3 71 0 100 9 56
19 63 19 55 7z m-2363 -87 c60 -4 95 -1 128 11 56 19 62 14 13 -10 -57 -28
-191 -26 -260 5 -28 13 -59 31 -67 40 -11 12 3 8 43 -12 47 -23 77 -30 143
-34z m-1322 29 c0 -13 -12 -22 -22 -16 -10 6 -1 24 13 24 5 0 9 -4 9 -8z
m3279 -73 c-23 -39 -81 -124 -127 -188 -96 -133 -170 -278 -205 -401 -68 -236
-128 -511 -134 -612 -3 -56 -3 -100 1 -97 3 3 13 61 21 128 9 67 31 183 51
259 19 75 49 189 65 252 17 63 46 147 65 185 62 122 169 250 279 333 l60 45
-46 -49 c-94 -100 -144 -172 -200 -289 -122 -257 -173 -503 -186 -907 l-6
-196 -36 -7 c-19 -4 -37 -3 -38 2 -35 104 -182 163 -297 119 -25 -10 -61 -35
-80 -57 l-36 -39 -42 26 -41 26 7 172 c20 536 30 586 34 168 2 -197 12 -315
27 -330 3 -3 5 12 6 34 0 21 2 46 4 54 10 51 26 552 20 637 -9 128 5 506 16
423 4 -30 10 -251 13 -490 5 -272 12 -463 20 -510 l12 -75 7 55 c4 30 9 96 12
145 3 50 8 113 10 140 2 28 7 91 10 140 17 249 80 687 122 838 26 95 26 58 -1
-84 -69 -358 -96 -589 -103 -850 -5 -202 1 -378 12 -367 2 2 6 84 10 183 6
180 33 506 42 515 3 3 3 -53 1 -124 -2 -71 -1 -120 3 -110 5 11 20 98 34 194
14 96 32 189 39 205 8 17 19 41 24 55 17 41 14 -1 -8 -92 -24 -106 -77 -424
-90 -548 -13 -123 -13 -247 0 -255 6 -4 10 21 10 67 0 190 152 936 230 1133
31 78 87 195 94 195 2 0 -16 -57 -40 -126 -63 -181 -111 -383 -174 -734 -6
-30 -19 -104 -30 -163 -20 -109 -38 -286 -27 -277 3 3 13 49 21 101 55 343
147 642 278 903 61 121 57 82 -6 -51 -65 -140 -99 -227 -131 -343 -30 -110
-64 -300 -70 -398 l-5 -77 15 75 c68 336 124 526 193 654 22 41 87 137 143
213 56 76 120 163 143 195 23 31 43 54 45 52 2 -2 -16 -36 -40 -75z m-2599 61
c0 -5 -5 -10 -11 -10 -5 0 -7 5 -4 10 3 6 8 10 11 10 2 0 4 -4 4 -10z m2945 0
c-16 -4 -41 -8 -55 -8 l-25 0 25 8 c14 4 39 8 55 8 l30 0 -30 -8z m135 -6 c0
-9 -68 -34 -92 -33 -13 0 0 8 32 19 30 10 56 18 58 19 1 1 2 -1 2 -5z m-3792
-138 c21 -22 22 -26 7 -18 -41 21 -85 92 -84 134 0 16 8 6 25 -32 14 -30 37
-68 52 -84z m3932 104 c0 -5 -4 -10 -10 -10 -5 0 -10 5 -10 10 0 6 5 10 10 10
6 0 10 -4 10 -10z m130 -6 c0 -11 -127 -63 -170 -68 -40 -5 -37 -3 25 17 39
13 84 31 100 40 32 17 45 21 45 11z m-2040 -28 c0 -3 -4 -8 -10 -11 -5 -3 -10
-1 -10 4 0 6 5 11 10 11 6 0 10 -2 10 -4z m-1035 -31 c22 -8 67 -15 100 -15
52 -2 56 -3 30 -11 -43 -13 -175 14 -175 36 0 7 -1 7 45 -10z m3075 0 c0 -2
-18 -14 -41 -25 -38 -20 -132 -30 -146 -16 -4 3 14 6 38 6 24 1 67 9 94 20 28
10 51 19 53 19 1 1 2 -1 2 -4z m-3116 -35 c32 -17 74 -30 93 -30 20 0 32 -4
28 -10 -15 -25 -109 0 -157 41 -42 36 -37 36 36 -1z m-1063 -9 c11 -27 -6 -19
-22 11 -8 16 -8 19 2 16 6 -2 16 -14 20 -27z m281 -75 c17 -23 18 -27 4 -17
-20 17 -46 64 -45 83 0 7 5 2 10 -11 5 -13 19 -37 31 -55z m2091 -31 c34 -133
44 -205 62 -436 16 -210 17 -235 10 -228 -2 3 -11 74 -20 159 -9 85 -20 180
-25 210 -10 56 -60 391 -60 399 0 19 12 -20 33 -104z m1382 89 c-11 -8 -49
-31 -85 -51 -36 -20 -99 -55 -140 -79 l-75 -44 39 35 c22 19 92 62 155 95 121
62 139 69 106 44z m-3410 -13 c3 -5 1 -12 -4 -15 -5 -3 -11 1 -15 9 -6 16 9
21 19 6z m223 -33 c6 -16 8 -28 3 -28 -8 0 -31 52 -31 68 0 11 16 -13 28 -40z
m-608 28 c0 -3 -4 -8 -10 -11 -5 -3 -10 -1 -10 4 0 6 5 11 10 11 6 0 10 -2 10
-4z m560 -57 c0 -18 -10 -8 -25 24 l-16 32 21 -24 c11 -13 20 -27 20 -32z
m4694 -48 c-17 -45 -54 -104 -61 -97 -2 2 10 28 26 59 16 30 33 75 37 99 7 38
9 40 12 14 2 -16 -4 -50 -14 -75z m-4545 6 c7 -32 27 -79 47 -108 40 -60 43
-71 10 -40 -31 29 -72 123 -79 180 -7 59 7 39 22 -32z m1381 26 c121 -160 198
-364 254 -673 38 -212 70 -610 49 -610 -6 0 -13 64 -17 158 -13 293 -70 618
-137 789 -35 89 -108 235 -159 320 -45 74 -40 82 10 16z m-169 -101 c88 -83
164 -188 213 -294 52 -110 53 -133 3 -42 -75 136 -125 203 -262 343 -101 105
-119 127 -80 100 27 -19 84 -67 126 -107z m-1082 -6 c16 -23 48 -55 70 -70 23
-16 41 -30 41 -31 0 -2 -14 2 -31 8 -44 17 -114 98 -133 154 -23 66 -19 88 5
29 11 -26 32 -67 48 -90z m4331 52 c-22 -43 -97 -128 -113 -128 -5 0 13 25 41
55 30 32 57 75 68 106 13 37 20 46 22 32 2 -12 -7 -41 -18 -65z m-4177 -58
c35 -17 76 -30 98 -30 21 0 41 -4 44 -10 10 -15 -76 -12 -124 5 -57 20 -97 50
-132 98 -42 58 -36 64 12 12 23 -24 68 -58 102 -75z m3564 98 c-20 -7 -35 -7
-50 0 -18 9 -14 11 28 11 46 -1 48 -1 22 -11z m514 -42 c-24 -38 -95 -106
-112 -106 -6 0 12 21 39 48 26 26 57 60 67 75 26 40 31 25 6 -17z m-1011 -9
c-56 -26 -154 -34 -198 -16 -31 13 -28 14 50 11 55 -2 96 1 123 11 60 22 76
18 25 -6z m-2456 -32 c112 -34 233 -82 225 -89 -5 -4 -322 99 -346 113 -32 19
4 12 121 -24z m3146 0 c-18 -13 -54 -31 -80 -40 -47 -16 -146 -23 -157 -11 -3
3 11 6 33 6 52 0 151 26 189 50 44 27 54 24 15 -5z m130 -19 c0 -2 -18 -15
-39 -29 -61 -41 -152 -67 -223 -66 l-63 2 63 8 c80 10 154 33 212 64 49 26 50
27 50 21z m-521 -42 c-13 -14 -41 -35 -62 -46 -45 -23 -161 -34 -197 -20 -21
9 -16 11 36 11 64 1 156 28 208 61 41 26 44 25 15 -6z m-1999 -8 c0 -3 -4 -8
-10 -11 -5 -3 -10 -1 -10 4 0 6 5 11 10 11 6 0 10 -2 10 -4z m-1707 -155 c21
-22 25 -30 12 -23 -39 20 -86 92 -84 129 0 10 9 -2 20 -27 11 -25 35 -60 52
-79z m827 58 c25 -6 90 -10 145 -11 81 0 95 -2 75 -11 -14 -6 -68 -11 -120
-11 -81 0 -103 4 -151 26 -65 30 -92 58 -32 33 21 -9 58 -21 83 -26z m2327 26
c51 0 78 -4 73 -9 -18 -18 -142 -12 -175 7 -26 15 -26 17 -5 10 14 -4 62 -8
107 -8z m-3016 -100 c19 -8 28 -14 21 -15 -26 0 -88 32 -119 62 -51 49 -39 55
16 9 27 -23 64 -48 82 -56z m630 26 c24 -11 66 -21 92 -22 26 -2 47 -7 47 -12
0 -15 -115 0 -153 19 -45 23 -97 63 -97 75 0 6 15 -1 33 -15 18 -14 53 -34 78
-45z m-842 -35 c23 -26 24 -28 3 -14 -30 20 -72 77 -72 97 0 9 10 0 21 -19 12
-19 33 -48 48 -64z m3883 14 c-25 -21 -96 -44 -115 -37 -6 2 13 11 43 21 30
10 62 22 70 27 25 14 26 9 2 -11z m-3269 -75 c20 -16 25 -23 12 -19 -29 10
-65 44 -82 79 l-14 30 26 -32 c14 -18 40 -44 58 -58z m-110 -5 c-7 -7 -53 53
-53 69 0 8 13 -4 29 -25 15 -21 26 -41 24 -44z m3728 32 c-14 -26 -43 -49 -76
-61 -25 -9 -27 -8 -11 2 11 6 36 27 55 44 42 38 45 39 32 15z m-1196 -3 c54 0
74 -3 60 -9 -32 -14 -147 -10 -185 6 l-35 14 40 -5 c22 -3 76 -5 120 -6z m455
-4 c0 -7 -58 -35 -72 -35 -7 1 3 9 22 19 37 20 50 24 50 16z m105 -25 c-47
-50 -120 -80 -189 -80 -34 0 -68 5 -76 10 -11 7 3 10 47 10 71 0 159 29 201
66 39 34 51 30 17 -6z m375 5 c-14 -8 -32 -14 -40 -14 -8 0 -1 6 15 14 40 18
57 18 25 0z m-1017 -27 c40 -7 70 -7 100 0 48 13 63 7 23 -8 -47 -17 -147 -12
-186 11 -19 11 -26 17 -15 14 11 -4 46 -11 78 -17z m-1588 2 c8 -13 -15 -13
-35 0 -12 8 -11 10 7 10 12 0 25 -4 28 -10z m-20 -50 c39 -9 38 -9 -13 -6 -34
2 -60 10 -70 20 -16 16 -15 16 13 6 17 -7 48 -16 70 -20z m508 -100 c4 -37 3
-59 -2 -50 -5 8 -11 47 -14 85 -4 39 -3 61 2 50 4 -11 11 -49 14 -85z m-778
70 c-8 -13 -45 -13 -65 0 -11 7 -3 10 28 10 26 0 41 -4 37 -10z m-51 -44 c15
-4 26 -9 23 -12 -9 -9 -84 16 -98 33 -13 15 -12 15 16 1 17 -8 43 -18 59 -22z
m1892 -27 c-35 -28 -80 -39 -146 -38 l-55 2 66 7 c36 5 83 17 105 28 52 26 63
27 30 1z m-1539 -49 l38 -10 -44 4 c-24 3 -51 12 -60 21 -15 16 -14 17 6 6 12
-6 39 -15 60 -21z m1633 -5 c0 -11 -85 -45 -110 -44 -19 0 -16 3 15 13 23 7
50 18 60 24 22 13 35 15 35 7z m-1086 -532 c4 -62 3 -93 -4 -93 -6 0 -10 37
-10 97 0 53 2 94 4 92 2 -2 6 -46 10 -96z m396 -151 c19 -11 42 -35 52 -54 19
-35 18 -36 -3 -77 -12 -23 -20 -44 -17 -46 2 -3 26 4 54 14 120 45 194 36 261
-35 42 -44 43 -44 49 -19 9 38 -4 76 -39 113 l-32 33 23 19 c53 43 138 38 197
-13 33 -29 38 -39 42 -87 2 -30 1 -50 -4 -44 -8 11 -47 34 -57 34 -3 0 -6 -4
-6 -10 0 -5 7 -10 15 -10 8 0 20 -9 27 -19 10 -16 20 -19 59 -14 62 7 111 -11
150 -54 28 -33 31 -41 27 -89 -5 -64 -43 -126 -90 -149 l-33 -16 27 21 c29 22
73 88 65 96 -2 2 -12 -7 -21 -21 -25 -37 -95 -85 -125 -84 -24 0 -23 1 9 12
36 13 80 73 80 112 0 16 -4 14 -19 -11 -20 -32 -61 -67 -69 -59 -3 2 0 11 7
19 11 13 16 55 12 101 0 11 -12 34 -25 50 l-24 30 5 -47 c7 -64 -1 -92 -44
-139 -46 -50 -81 -69 -130 -68 l-38 0 43 14 c69 21 112 73 112 132 l-1 28 -13
-30 c-17 -38 -62 -80 -100 -95 -39 -14 -45 -5 -9 13 34 18 83 65 83 80 0 6 -9
1 -21 -12 -24 -26 -36 -22 -20 7 19 36 12 35 -24 -4 -36 -38 -55 -41 -36 -6 6
12 11 29 11 39 -1 12 -5 8 -14 -12 -28 -64 -86 -85 -71 -26 7 29 3 25 -39 -33
-39 -52 -111 -96 -155 -95 l-36 1 36 10 c50 13 117 75 134 123 14 43 10 62 -7
30 -25 -44 -92 -105 -134 -121 -24 -9 -47 -14 -51 -11 -3 4 5 11 18 16 45 17
90 82 102 149 4 17 4 32 2 32 -2 0 -16 -25 -30 -55 -27 -56 -75 -105 -103
-105 -13 0 -10 6 10 23 23 18 58 80 58 102 0 16 -18 0 -40 -35 -24 -39 -49
-57 -32 -22 13 25 22 92 12 92 -4 0 -10 -10 -14 -22 -8 -32 -46 -92 -53 -84
-3 3 0 12 7 20 14 18 15 100 2 135 -8 21 -10 18 -15 -28 -7 -58 -39 -121 -84
-163 -28 -27 -91 -58 -115 -58 -7 1 1 7 18 14 44 19 99 71 114 106 13 32 6
115 -11 125 -5 4 -9 -13 -9 -39 0 -56 -45 -120 -110 -155 l-45 -25 33 37 c46
53 40 65 -12 23 -53 -44 -66 -46 -32 -5 15 17 34 45 43 63 l15 31 -33 -31
c-43 -39 -90 -74 -99 -74 -4 0 10 34 32 75 22 41 36 75 31 74 -4 0 -27 -25
-51 -55 -40 -51 -66 -70 -58 -41 3 6 7 24 10 40 6 26 5 27 -14 15 -11 -7 -20
-18 -20 -25 0 -26 -19 -21 -40 10 l-22 32 5 -30 c3 -16 9 -39 12 -50 5 -13 -5
-8 -29 17 -26 27 -36 47 -37 70 0 27 -2 29 -8 13 -12 -29 -1 -85 22 -119 19
-27 19 -28 1 -18 -30 16 -71 64 -89 102 l-16 35 4 -48 c3 -26 12 -56 21 -66
24 -27 19 -33 -13 -17 -32 17 -56 50 -76 104 l-14 37 0 -43 c-1 -47 10 -74 42
-109 26 -29 9 -29 -34 0 -61 41 -108 138 -94 194 3 15 2 22 -4 18 -21 -12 -24
-77 -7 -129 18 -55 34 -78 80 -114 33 -25 28 -29 -13 -8 -68 35 -109 114 -99
187 4 26 3 28 -9 16 -37 -37 -24 -140 24 -197 14 -17 21 -30 16 -30 -12 0 -68
59 -82 87 -16 31 -14 129 4 163 17 33 10 40 -12 13 -49 -64 -57 -163 -18 -232
30 -53 31 -60 4 -35 -73 66 -77 198 -9 295 12 16 17 29 11 29 -23 0 -80 -72
-100 -127 -18 -51 -20 -53 -15 -18 7 48 38 111 72 148 35 37 21 34 -23 -4 -40
-36 -45 -31 -12 12 65 90 214 93 306 6 25 -23 35 -28 39 -18 8 24 74 92 105
107 43 23 109 20 157 -7 36 -20 40 -27 40 -62 0 -33 3 -38 17 -32 10 3 47 9
82 12 l64 6 -22 19 c-13 10 -34 18 -47 18 -23 0 -24 1 -10 28 8 15 23 35 34
45 43 39 137 48 192 19z m931 -210 c91 -47 148 -146 133 -228 -8 -44 -60 -114
-94 -126 -23 -8 -22 -7 8 23 36 36 65 84 60 101 -2 5 -15 -7 -28 -28 -29 -44
-83 -84 -114 -84 -16 1 -13 5 16 20 44 24 76 67 83 112 5 31 5 31 -5 8 -22
-50 -64 -84 -124 -101 -29 -8 -30 -7 -11 6 62 46 103 112 86 140 -3 6 -7 0 -9
-12 -3 -22 -60 -78 -69 -69 -3 2 0 13 6 24 6 12 11 28 11 38 0 13 -3 14 -15 4
-13 -11 -15 -6 -15 36 0 48 -28 125 -49 138 -23 15 -9 26 33 26 28 0 62 -10
97 -28z m-2027 -32 c-2 -36 13 -140 23 -166 3 -8 1 -14 -5 -14 -6 0 -20 20
-32 45 -12 25 -24 45 -27 45 -11 0 10 -87 28 -112 28 -40 23 -46 -11 -13 -37
36 -63 115 -50 150 6 16 6 25 0 25 -15 0 -30 -45 -30 -89 0 -24 9 -52 25 -75
l24 -36 -23 16 c-76 49 -71 183 7 219 31 15 32 15 3 10 -43 -9 -77 -35 -92
-72 -27 -64 -14 -126 39 -180 36 -39 23 -45 -17 -8 -31 29 -56 82 -56 120 0
56 56 145 105 166 11 4 36 7 55 6 33 -2 35 -4 34 -37z m-254 -2 c0 -2 -9 -27
-20 -56 -11 -29 -20 -67 -20 -85 1 -43 31 -108 66 -141 16 -14 24 -26 17 -26
-19 0 -75 62 -94 105 -10 22 -19 60 -19 85 0 33 -3 41 -11 33 -17 -17 -14
-112 5 -156 8 -21 30 -52 48 -69 l33 -31 -31 16 c-46 24 -87 92 -92 154 -6 67
2 94 34 126 32 32 18 36 -20 6 -32 -25 -56 -69 -56 -104 0 -14 -5 -25 -10 -25
-15 0 -2 67 19 105 20 36 73 65 119 65 17 0 32 -1 32 -2z m1860 -378 c-8 -5
-26 -9 -40 -9 l-25 1 25 8 c14 4 32 8 40 9 13 1 13 0 0 -9z m-1420 -34 c8 -3
-5 -4 -29 -2 -24 3 -51 12 -60 20 -14 15 -12 15 29 2 25 -8 52 -17 60 -20z
m476 -213 c-9 -329 -36 -613 -58 -613 -5 0 -7 18 -4 43 17 122 35 362 41 517
6 191 14 290 22 290 4 0 3 -107 -1 -237z m358 102 c13 -279 17 -353 28 -447 6
-54 15 -98 20 -98 10 0 9 -10 17 210 6 155 7 167 14 105 10 -93 36 -238 45
-247 4 -4 6 95 5 220 -2 241 7 258 26 47 11 -131 38 -265 52 -265 5 0 7 68 5
158 -3 86 -2 177 3 202 7 43 7 42 19 -50 15 -111 39 -211 54 -225 8 -7 9 -4 4
8 -3 10 -8 64 -11 120 -3 56 -8 133 -10 170 -4 45 -2 66 5 62 5 -3 10 -30 10
-58 1 -108 54 -404 81 -445 8 -13 9 -9 5 18 -16 100 -26 231 -30 375 l-5 160
14 -105 c34 -257 47 -334 71 -431 21 -82 24 -107 15 -122 -15 -23 -6 -54 17
-61 9 -2 40 -7 67 -11 91 -13 158 -53 191 -118 14 -25 13 -30 -7 -60 -13 -18
-23 -33 -24 -35 -1 -1 -26 9 -56 23 -30 14 -72 25 -96 25 -44 0 -45 0 -58 70
-21 102 -108 199 -203 226 -134 39 -276 -1 -374 -104 -58 -61 -78 -61 -89 -1
l-6 34 -2 -32 c-1 -30 -14 -44 -24 -25 -4 6 0 106 18 477 4 77 10 144 14 148
5 4 11 -63 15 -150 6 -141 18 -249 45 -393 8 -43 9 -42 11 30 1 41 1 151 0
245 -1 93 1 168 4 165 2 -3 8 -62 11 -130 8 -152 22 -300 30 -308 3 -3 5 73 6
169 0 96 4 183 9 194 6 14 9 0 9 -46 1 -79 20 -228 32 -249 5 -9 6 13 2 51 -5
62 6 643 13 637 1 -2 5 -62 8 -133z m655 109 c-31 -38 -110 -55 -142 -31 -15
10 -9 12 37 12 40 0 62 6 83 21 32 24 43 23 22 -2z m-709 -183 c0 -6 -4 -13
-10 -16 -5 -3 -10 1 -10 9 0 9 5 16 10 16 6 0 10 -4 10 -9z m-259 -370 c-14
-208 -21 -261 -32 -261 -12 0 -12 16 11 255 23 240 21 226 27 201 3 -11 0 -99
-6 -195z m-317 -81 c-42 -232 -64 -333 -71 -327 -5 6 49 315 72 407 7 30 16
68 19 84 4 15 9 27 11 25 2 -2 -12 -87 -31 -189z m146 -3 c-6 -56 -20 -136
-30 -177 l-19 -75 5 75 c3 41 14 124 25 184 10 60 19 112 20 115 0 3 3 0 6 -7
2 -7 0 -58 -7 -115z m215 -71 c-4 -53 -10 -96 -14 -96 -3 0 -3 42 1 92 8 119
7 112 14 105 3 -3 3 -49 -1 -101z m-495 0 c0 -3 -18 -15 -39 -27 -46 -25 -73
-59 -90 -112 -7 -21 -15 -36 -18 -33 -9 9 17 89 36 113 29 35 111 79 111 59z
m1029 -82 c31 -16 64 -43 81 -66 36 -49 57 -140 41 -175 -20 -44 -15 -52 27
-42 132 31 268 -36 330 -162 17 -35 34 -73 38 -84 5 -14 10 1 15 46 4 37 12
76 18 87 19 36 102 101 137 108 46 9 43 24 -5 24 -55 0 -90 -15 -133 -58 -21
-20 -38 -30 -38 -24 0 7 17 31 38 53 45 48 127 79 215 81 l62 1 -35 15 c-23 9
-53 12 -87 9 -29 -3 -53 -3 -53 -1 0 3 16 12 35 20 44 18 123 18 168 -1 63
-26 104 -103 94 -175 l-5 -37 77 1 c85 1 146 -22 190 -72 l23 -27 -6 39 c-9
63 -63 109 -145 122 -40 6 -41 8 -41 45 0 48 23 62 101 62 128 -2 225 -99 254
-256 10 -50 32 -47 56 8 16 37 25 45 55 51 53 10 103 -2 149 -35 97 -71 112
-199 34 -294 -36 -44 -48 -43 -25 2 17 32 20 84 6 116 -8 18 -9 17 -9 -8 -1
-41 -28 -98 -63 -134 -46 -48 -60 -42 -32 14 13 25 24 60 24 77 0 29 -2 28
-24 -19 -21 -46 -66 -100 -66 -79 1 5 7 36 15 69 16 69 5 96 -15 35 -7 -22
-17 -40 -23 -40 -5 0 -6 7 -3 16 9 25 -12 90 -40 124 -37 44 -46 37 -22 -17
20 -45 20 -49 4 -98 -9 -28 -28 -62 -43 -76 -14 -13 -23 -18 -19 -12 14 25 26
126 16 142 -7 12 -9 8 -10 -17 0 -18 -11 -55 -25 -82 -30 -59 -41 -66 -18 -13
17 43 14 136 -6 156 -10 10 -11 5 -6 -23 9 -47 -18 -124 -62 -178 -42 -52 -53
-49 -21 4 18 30 23 54 23 106 0 42 -5 72 -13 80 -11 11 -12 8 -7 -13 10 -39
-12 -107 -52 -166 -43 -64 -59 -69 -29 -10 25 50 29 163 7 215 -19 46 -26 40
-23 -20 2 -30 -3 -70 -12 -93 l-15 -40 0 38 c-2 73 -22 126 -69 178 -51 57
-65 59 -28 5 48 -72 46 -180 -5 -261 -32 -50 -46 -56 -29 -11 5 15 10 55 9 89
l-1 62 -9 -45 c-12 -60 -27 -98 -57 -138 -28 -39 -38 -37 -18 4 21 42 26 164
7 164 -4 0 -6 -11 -3 -25 7 -38 -16 -109 -48 -147 l-28 -33 20 60 c20 62 20
128 -2 163 -8 13 -9 8 -4 -20 3 -20 1 -45 -5 -55 -10 -17 -10 -17 -11 2 -1 47
-91 185 -121 185 -4 0 -2 -19 6 -41 22 -62 19 -136 -9 -194 -12 -27 -30 -56
-39 -64 -21 -17 -21 -13 -1 35 17 41 22 140 7 155 -4 4 -9 -14 -9 -40 -2 -55
-30 -115 -70 -151 -24 -22 -26 -22 -19 -5 4 11 9 45 12 75 l4 55 -18 -48 c-17
-44 -70 -123 -79 -115 -1 2 7 26 20 53 13 28 26 73 30 100 l5 50 -19 -56 c-11
-30 -34 -71 -50 -90 l-30 -34 20 45 c11 25 19 65 19 90 -1 36 -2 40 -8 20 -13
-42 -38 -84 -62 -105 l-22 -20 7 25 c25 80 29 130 16 172 l-14 43 -6 -65 c-4
-41 -15 -79 -30 -103 -12 -21 -24 -37 -25 -35 -2 2 0 21 4 43 9 54 -3 139 -24
167 l-17 23 9 -25 c14 -42 7 -113 -17 -167 -28 -65 -55 -93 -34 -36 16 47 18
109 3 154 -19 56 -26 53 -21 -10 6 -82 -18 -149 -74 -208 l-45 -48 29 45 c51
77 65 170 40 255 l-12 40 -8 -69 c-14 -114 -71 -215 -148 -260 -28 -16 -26
-13 13 27 62 61 79 100 85 183 5 79 -8 132 -39 160 -20 18 -20 18 -10 -10 30
-78 2 -192 -67 -267 -53 -60 -80 -69 -38 -14 62 81 80 181 50 272 -16 49 -52
100 -41 58 23 -87 14 -166 -30 -253 -27 -53 -66 -99 -48 -57 4 11 17 53 28 93
18 65 19 81 9 130 -15 72 -31 88 -25 25 6 -60 -8 -116 -44 -170 -15 -23 -28
-41 -30 -39 -2 1 4 32 13 69 9 37 13 74 9 84 -6 14 -10 9 -17 -22 -13 -58 -23
-61 -24 -5 -2 40 -43 160 -56 160 -2 0 -3 -46 -3 -103 0 -95 -2 -107 -33 -169
-40 -81 -94 -132 -163 -152 -73 -22 -96 -19 -31 4 66 24 105 51 130 93 26 42
43 133 32 177 l-8 35 -1 -31 c-1 -46 -20 -94 -54 -139 -16 -22 -27 -31 -23
-21 12 34 27 109 23 113 -3 2 -16 -21 -31 -50 -14 -30 -35 -62 -46 -72 -20
-18 -20 -18 -6 17 20 48 33 143 17 134 -6 -4 -11 -14 -11 -22 0 -23 -46 -107
-70 -129 l-23 -20 23 45 c24 46 42 157 28 166 -4 3 -8 -5 -8 -18 0 -33 -52
-112 -62 -95 -4 6 -8 23 -9 37 0 15 -7 0 -18 -36 -9 -33 -27 -77 -40 -97 -35
-57 -144 -138 -183 -137 -7 1 1 8 17 17 83 43 165 158 165 230 l0 38 -31 -55
c-36 -66 -60 -92 -118 -131 -59 -38 -73 -37 -31 4 33 32 90 114 90 129 0 5
-24 -15 -52 -44 -47 -47 -173 -127 -184 -116 -2 3 16 19 41 38 37 28 96 100
130 160 5 8 -18 -10 -51 -40 -33 -30 -80 -66 -105 -79 l-44 -25 56 61 c59 65
114 136 89 117 -8 -6 -55 -44 -104 -83 -49 -39 -94 -71 -99 -71 -5 0 30 43 78
95 48 53 85 98 83 101 -6 5 -132 -88 -230 -171 -108 -90 -79 -47 47 71 63 59
113 110 111 112 -12 11 -139 -80 -218 -157 -27 -25 -48 -41 -48 -35 0 18 164
187 209 216 56 35 37 36 -32 2 -60 -30 -149 -103 -225 -183 -31 -32 -48 -45
-41 -31 14 28 157 175 204 209 l30 21 -30 -6 c-44 -10 -93 -41 -158 -103 -31
-30 -59 -52 -61 -50 -7 7 87 116 126 146 21 15 37 32 38 36 0 19 -141 -76
-195 -130 -9 -8 -19 -13 -22 -10 -3 4 27 40 67 82 41 41 70 75 66 75 -3 0 -25
-12 -49 -27 -63 -40 -140 -125 -181 -200 -20 -38 -34 -57 -30 -43 18 67 113
214 191 298 27 28 47 52 44 52 -4 0 -29 -13 -57 -29 -70 -41 -168 -150 -209
-236 -20 -41 -35 -61 -35 -49 0 12 18 58 41 103 50 100 143 204 214 238 l50
25 -43 -6 c-24 -4 -62 -16 -84 -27 -40 -21 -141 -115 -186 -174 l-23 -30 23
44 c29 55 108 143 154 172 19 12 56 30 82 41 l47 19 -40 -7 c-97 -15 -244
-122 -302 -221 -28 -49 -38 -56 -21 -15 32 73 101 162 163 210 l30 23 -37 -5
c-70 -9 -175 -102 -211 -186 -9 -21 -16 -28 -16 -17 -3 55 114 214 176 238 52
21 6 20 -50 -1 -68 -26 -137 -96 -178 -183 -16 -34 -27 -51 -23 -37 20 78 90
186 150 230 18 14 34 28 34 33 0 13 -73 -22 -115 -55 l-40 -31 35 36 c89 96
225 103 293 16 24 -31 27 -32 44 -16 71 63 218 63 275 0 17 -19 17 -20 -13
-42 -30 -22 -74 -102 -67 -122 2 -5 19 1 38 14 60 41 145 67 216 67 75 0 116
-15 168 -60 46 -41 67 -80 76 -145 l7 -50 18 40 c13 31 16 55 12 106 -6 65 -5
66 26 84 22 13 51 19 90 20 48 0 55 2 41 12 -31 23 -101 27 -150 8 -25 -9 -48
-15 -51 -11 -21 21 100 86 162 86 29 0 36 3 28 11 -20 20 -124 6 -182 -25 -29
-15 -55 -25 -58 -22 -21 21 121 96 179 96 27 0 37 4 32 11 -13 22 -133 2 -198
-31 -32 -17 -60 -29 -63 -27 -9 10 75 69 125 87 173 65 342 -35 342 -203 l0
-39 63 59 c47 44 80 65 128 82 107 38 111 42 37 37 -40 -2 -84 -12 -108 -24
-48 -24 -52 -12 -7 22 46 35 105 57 154 58 50 1 48 14 -4 24 -47 9 -118 -10
-160 -42 -45 -34 -48 -30 -14 20 30 43 69 67 115 70 31 1 23 16 -10 16 -34 0
-83 -22 -121 -54 -29 -24 -34 -26 -39 -11 -9 23 40 73 101 101 28 12 43 23 35
23 -30 1 -87 -19 -133 -49 -26 -16 -47 -26 -47 -22 0 17 32 52 66 73 93 57
206 66 293 23z m-1061 -11 c-14 -16 -36 -44 -48 -63 -12 -19 -19 -27 -16 -17
3 10 6 23 6 27 0 14 61 80 73 80 6 0 -1 -12 -15 -27z m212 -33 c-6 -29 -13
-56 -16 -59 -7 -6 4 83 13 106 11 29 13 4 3 -47z m-1118 -266 c36 -19 48 -43
48 -98 0 -39 -4 -47 -32 -65 -52 -31 -103 -91 -136 -156 -17 -33 -31 -53 -32
-44 0 30 63 142 106 187 24 25 42 47 40 49 -12 12 -79 -32 -120 -78 -54 -60
-52 -48 2 20 37 45 83 71 127 71 15 0 24 4 20 10 -8 13 -66 13 -102 -1 -51
-19 -105 -63 -139 -114 -36 -53 -44 -54 -18 -2 47 89 130 157 195 157 21 0 41
5 44 10 4 6 -14 10 -47 10 -133 0 -254 -117 -278 -268 l-9 -57 3 57 c4 78 51
173 118 232 28 26 61 49 74 52 13 3 24 11 24 16 0 18 -73 -2 -125 -33 l-50
-31 31 32 c62 63 180 83 256 44z m-548 -268 c-23 -24 -49 -63 -57 -87 -8 -24
-16 -37 -16 -29 -1 28 46 116 74 138 45 36 45 25 -1 -22z m541 -17 c-25 -34
-45 -66 -45 -72 0 -6 -3 -8 -6 -5 -12 13 67 138 86 138 6 0 -10 -27 -35 -61z
m-425 28 c0 -2 -19 -21 -42 -42 -39 -38 -40 -39 -19 -8 21 31 61 64 61 50z
m456 -94 c-14 -20 -26 -34 -26 -29 0 13 42 78 47 72 3 -2 -7 -22 -21 -43z
m534 -79 c0 -8 -5 -12 -10 -9 -6 4 -8 11 -5 16 9 14 15 11 15 -7z"/>
<path d="M4155 8386 c-68 -22 -120 -53 -158 -95 -49 -54 -47 -73 2 -28 50 45
118 85 195 113 49 18 55 23 31 23 -16 0 -48 -6 -70 -13z"/>
<path d="M4520 8338 c91 -34 169 -100 209 -176 25 -46 22 -13 -3 36 -44 87
-155 163 -235 161 -19 0 -12 -6 29 -21z"/>
<path d="M3737 8314 c-8 -8 1 -24 14 -24 5 0 9 7 9 15 0 15 -12 20 -23 9z"/>
<path d="M4151 8299 c-54 -10 -121 -49 -155 -90 -35 -41 -26 -49 15 -15 35 29
113 71 168 91 45 15 28 24 -28 14z"/>
<path d="M2910 8275 c0 -8 9 -15 20 -15 11 0 20 7 20 15 0 8 -9 15 -20 15 -11
0 -20 -7 -20 -15z"/>
<path d="M4380 8281 c0 -4 27 -11 59 -14 33 -3 74 -12 92 -21 40 -20 50 -14
15 9 -43 29 -166 48 -166 26z"/>
<path d="M4285 8240 c-3 -5 -1 -10 4 -10 6 0 11 5 11 10 0 6 -2 10 -4 10 -3 0
-8 -4 -11 -10z"/>
<path d="M2485 8206 c-89 -42 -148 -119 -161 -208 l-6 -43 40 70 c37 65 138
175 172 187 8 3 13 8 10 11 -3 3 -28 -4 -55 -17z"/>
<path d="M2627 8219 c-126 -30 -228 -146 -227 -260 1 -33 1 -33 33 25 17 33
54 81 81 108 48 47 172 118 207 118 10 0 21 5 24 10 8 12 -64 12 -118 -1z"/>
<path d="M3030 8205 c-9 -11 -7 -16 8 -24 20 -11 32 -6 32 15 0 18 -27 25 -40
9z"/>
<path d="M2345 8156 c-37 -36 -57 -66 -65 -95 -13 -48 -9 -91 5 -56 25 65 52
110 92 155 60 67 36 64 -32 -4z"/>
<path d="M5009 8166 c-34 -12 -91 -46 -77 -46 3 0 35 7 69 16 44 11 92 15 161
12 54 -2 94 -1 90 3 -33 29 -178 38 -243 15z"/>
<path d="M2873 8153 c-18 -6 -16 -33 1 -33 19 0 31 19 20 30 -5 4 -15 5 -21 3z"/>
<path d="M2920 8140 c0 -5 7 -10 15 -10 8 0 15 5 15 10 0 6 -7 10 -15 10 -8 0
-15 -4 -15 -10z"/>
<path d="M4462 8138 c10 -7 35 -26 57 -41 51 -35 100 -131 108 -211 11 -104
30 -72 23 39 -6 101 -82 194 -180 219 -22 6 -23 6 -8 -6z"/>
<path d="M4220 8133 c-75 -11 -76 -15 -10 -32 174 -44 276 -168 288 -347 2
-46 9 -84 14 -84 5 0 18 21 28 46 24 55 26 140 5 211 -27 91 -132 182 -230
198 -22 4 -47 8 -55 9 -8 2 -26 1 -40 -1z"/>
<path d="M4623 8103 c44 -44 77 -126 77 -193 0 -28 5 -50 10 -50 6 0 10 29 10
67 0 81 -25 139 -78 183 -51 42 -63 38 -19 -7z"/>
<path d="M3867 8123 c-12 -11 -8 -23 8 -23 8 0 15 7 15 15 0 16 -12 20 -23 8z"/>
<path d="M2675 8101 c-6 -11 9 -23 19 -14 9 9 7 23 -3 23 -6 0 -12 -4 -16 -9z"/>
<path d="M2576 8087 c-10 -7 -17 -22 -14 -33 3 -18 4 -18 26 4 35 35 26 57
-12 29z"/>
<path d="M5240 8096 c0 -2 21 -14 48 -27 73 -35 164 -132 191 -204 38 -101 42
-105 38 -49 -8 108 -97 224 -202 263 -55 21 -75 25 -75 17z"/>
<path d="M4515 8025 c42 -63 65 -118 65 -160 0 -11 5 -27 11 -35 19 -27 2 95
-21 147 -20 45 -75 113 -91 113 -4 0 12 -29 36 -65z"/>
<path d="M4756 8045 c16 -39 19 -144 5 -193 -13 -42 6 -32 25 14 20 48 17 117
-7 169 -25 53 -45 61 -23 10z"/>
<path d="M3849 8046 c-7 -14 -9 -29 -5 -33 11 -11 41 12 41 32 0 29 -24 29
-36 1z"/>
<path d="M4945 8050 c-10 -11 -16 -22 -13 -25 7 -7 88 27 88 37 0 16 -57 8
-75 -12z"/>
<path d="M5174 8033 c93 -28 177 -102 237 -208 17 -31 33 -54 36 -52 11 12
-44 122 -83 166 -53 59 -150 111 -203 110 -36 0 -36 0 13 -16z"/>
<path d="M3927 8033 c-4 -3 -7 -12 -7 -20 0 -11 5 -11 20 -3 11 6 20 15 20 20
0 11 -23 13 -33 3z"/>
<path d="M3720 8017 c-45 -21 -88 -57 -108 -90 -26 -42 -36 -77 -23 -77 5 0
12 8 15 18 6 18 85 100 136 141 28 22 19 26 -20 8z"/>
<path d="M3991 8016 c-8 -10 -9 -16 -1 -21 5 -3 13 1 16 10 9 22 -1 29 -15 11z"/>
<path d="M2585 7989 c-4 -6 -5 -13 -2 -16 7 -7 27 6 27 18 0 12 -17 12 -25 -2z"/>
<path d="M3267 7953 c-14 -13 -6 -33 13 -33 11 0 20 4 20 9 0 13 -26 32 -33
24z"/>
<path d="M2009 7923 c-14 -9 -32 -25 -39 -37 -11 -18 -11 -19 1 -9 8 7 39 23
69 37 49 23 52 26 25 26 -16 0 -42 -8 -56 -17z"/>
<path d="M3090 7925 c0 -8 7 -15 15 -15 8 0 15 7 15 15 0 8 -7 15 -15 15 -8 0
-15 -7 -15 -15z"/>
<path d="M5250 7931 c0 -6 4 -11 10 -11 5 0 34 -24 65 -54 57 -57 73 -58 30
-2 -26 34 -105 84 -105 67z"/>
<path d="M3550 7906 c0 -2 -7 -20 -15 -40 -8 -20 -12 -36 -8 -36 5 0 16 18 25
40 9 22 12 40 7 40 -5 0 -9 -2 -9 -4z"/>
<path d="M4334 7885 c-8 -20 4 -35 27 -35 22 0 23 4 9 31 -13 23 -28 25 -36 4z"/>
<path d="M3150 7875 c-10 -12 -10 -18 0 -30 21 -25 42 -18 38 12 -4 32 -20 40
-38 18z"/>
<path d="M4200 7880 c-20 -13 -2 -44 29 -48 26 -4 38 22 21 43 -14 17 -29 19
-50 5z"/>
<path d="M2290 7870 c0 -5 7 -10 15 -10 8 0 15 5 15 10 0 6 -7 10 -15 10 -8 0
-15 -4 -15 -10z"/>
<path d="M4890 7849 c-28 -11 -70 -48 -70 -61 0 -5 13 -2 28 6 46 24 140 29
197 12 59 -19 65 -19 65 -6 0 5 -20 21 -43 35 -47 27 -128 33 -177 14z"/>
<path d="M3060 7820 c-12 -7 -12 -12 4 -29 11 -12 25 -21 33 -21 16 0 17 32 1
48 -14 14 -18 15 -38 2z"/>
<path d="M3762 7804 c-23 -16 -48 -54 -35 -54 4 0 21 16 36 35 31 39 31 42 -1
19z"/>
<path d="M3844 7801 c-17 -10 -38 -34 -47 -54 -14 -29 -23 -35 -59 -41 -82
-13 -199 -89 -211 -137 -6 -23 -4 -23 36 -2 46 24 125 43 177 43 56 0 147 -23
202 -51 61 -31 135 -111 168 -182 29 -62 56 -193 47 -228 -9 -33 10 -21 29 19
13 28 18 63 19 142 0 62 6 114 13 127 7 12 12 52 12 90 0 80 -16 119 -18 44
-1 -56 -28 -119 -43 -104 -7 7 -6 27 2 57 12 48 7 166 -8 189 -5 7 -10 -20
-14 -61 -10 -129 -48 -123 -50 8 l0 75 -16 -50 c-18 -60 -19 -61 -38 -45 -17
14 -20 69 -5 119 5 19 8 37 6 39 -8 8 -46 -77 -46 -103 0 -29 2 -28 -39 -14
-36 13 -35 11 -17 72 17 57 1 51 -25 -9 -19 -41 -20 -43 -57 -37 -20 3 -38 7
-39 8 -9 6 37 69 62 85 25 17 27 20 10 20 -11 0 -34 -9 -51 -19z"/>
<path d="M4372 7796 c1 -10 8 -17 13 -17 15 1 12 24 -3 29 -9 3 -13 -2 -10
-12z"/>
<path d="M4272 7778 c4 -27 33 -36 42 -13 8 22 -1 35 -25 35 -15 0 -20 -6 -17
-22z"/>
<path d="M4864 7729 c-19 -21 -19 -21 11 -16 17 3 50 9 74 13 53 8 37 24 -25
24 -29 0 -46 -6 -60 -21z"/>
<path d="M5285 7731 c-16 -4 -41 -14 -55 -22 -24 -13 -21 -14 51 -21 176 -16
322 -113 403 -266 43 -83 62 -185 48 -261 -13 -74 3 -73 38 1 51 108 38 247
-35 372 -65 110 -205 193 -340 201 -44 2 -93 1 -110 -4z"/>
<path d="M3007 7714 c-16 -16 -7 -44 14 -44 15 0 20 5 17 22 -3 22 -19 33 -31
22z"/>
<path d="M4971 7681 c-11 -7 -9 -11 9 -21 26 -14 73 -5 67 13 -4 15 -57 21
-76 8z"/>
<path d="M5665 7681 c-3 -5 -1 -12 5 -16 12 -7 30 2 30 16 0 12 -27 12 -35 0z"/>
<path d="M3180 7655 c-7 -9 -10 -18 -7 -21 10 -11 37 5 37 21 0 19 -14 19 -30
0z"/>
<path d="M4541 7609 c-41 -21 -73 -45 -92 -72 -16 -22 -27 -42 -25 -44 2 -3
21 7 43 21 64 42 122 59 213 60 74 1 92 -3 141 -27 64 -31 156 -116 165 -152
9 -38 24 -30 24 13 -1 85 -86 182 -192 216 -30 9 -84 16 -133 16 -72 0 -90 -4
-144 -31z"/>
<path d="M5240 7620 c19 -4 61 -13 93 -20 72 -14 190 -73 217 -107 32 -42 33
-20 1 24 -21 29 -51 52 -98 75 -60 29 -78 33 -158 35 -68 2 -81 0 -55 -7z"/>
<path d="M3376 7584 c-9 -25 10 -41 32 -28 24 15 21 38 -4 42 -13 2 -24 -4
-28 -14z"/>
<path d="M2132 7518 c-44 -37 -93 -105 -110 -157 -30 -86 -4 -241 49 -297 36
-38 38 -28 8 31 -15 31 -31 76 -35 100 -15 102 40 261 113 325 46 41 25 38
-25 -2z"/>
<path d="M2950 7534 c0 -35 30 -111 52 -130 12 -11 19 -14 17 -9 -3 6 -15 32
-27 58 -12 27 -22 54 -22 60 0 7 -5 19 -10 27 -8 12 -10 11 -10 -6z"/>
<path d="M1664 7529 c-8 -14 21 -43 35 -35 8 5 8 13 1 27 -12 21 -25 25 -36 8z"/>
<path d="M4266 7465 c-5 -33 -14 -77 -21 -97 -7 -21 -9 -38 -5 -38 10 0 38 69
44 108 2 17 1 44 -3 60 -7 23 -9 18 -15 -33z"/>
<path d="M6000 7510 c0 -10 39 -34 46 -27 3 2 2 12 -2 21 -7 17 -44 23 -44 6z"/>
<path d="M1582 7484 c2 -11 11 -20 22 -22 13 -3 17 1 14 14 -2 11 -11 20 -22
22 -13 3 -17 -1 -14 -14z"/>
<path d="M1707 7474 c-10 -10 12 -44 28 -44 19 0 19 15 -1 34 -18 18 -18 18
-27 10z"/>
<path d="M4670 7472 c0 -5 14 -12 30 -14 19 -3 29 -1 27 6 -4 14 -57 21 -57 8z"/>
<path d="M5857 7452 c-6 -9 55 -32 84 -32 11 0 10 3 -1 15 -19 18 -76 30 -83
17z"/>
<path d="M5142 7438 c6 -18 28 -21 28 -4 0 9 -7 16 -16 16 -9 0 -14 -5 -12
-12z"/>
<path d="M3730 7426 c0 -7 7 -19 15 -26 12 -10 16 -9 21 3 3 9 3 21 -1 27 -9
15 -35 12 -35 -4z"/>
<path d="M1630 7422 c0 -24 14 -42 32 -42 29 0 20 44 -9 48 -13 2 -23 -1 -23
-6z"/>
<path d="M2157 7412 c-66 -73 -60 -206 14 -284 49 -52 82 -53 40 0 -58 71 -77
180 -47 265 16 42 15 44 -7 19z"/>
<path d="M5562 7413 c23 -26 47 -77 57 -120 6 -29 10 -34 16 -20 12 29 -4 86
-37 122 -16 19 -35 35 -41 35 -5 0 -3 -8 5 -17z"/>
<path d="M2206 7394 c-3 -9 -6 -46 -6 -82 0 -70 29 -152 63 -181 23 -18 22
-14 -15 65 -27 57 -32 81 -33 141 0 40 -1 73 -1 73 -1 0 -5 -7 -8 -16z"/>
<path d="M2086 7349 c-44 -89 -31 -196 31 -261 35 -37 50 -36 23 1 -49 70 -64
179 -35 261 22 61 12 60 -19 -1z"/>
<path d="M1572 7374 c4 -20 34 -41 45 -31 10 11 -11 41 -31 45 -12 3 -17 -2
-14 -14z"/>
<path d="M3990 7380 c0 -3 7 -23 15 -45 18 -50 18 -158 1 -208 -18 -48 1 -46
26 4 31 60 20 175 -23 230 -10 13 -19 22 -19 19z"/>
<path d="M4360 7355 c-7 -14 -11 -28 -8 -31 11 -11 49 17 46 33 -5 26 -23 25
-38 -2z"/>
<path d="M3662 7348 c-16 -16 -15 -33 1 -47 19 -15 50 9 45 35 -4 23 -29 29
-46 12z"/>
<path d="M3895 7269 c0 -49 3 -89 6 -89 13 0 27 81 19 113 -16 74 -25 65 -25
-24z"/>
<path d="M4583 7346 c4 -10 7 -63 7 -117 0 -108 14 -126 25 -34 8 57 -9 150
-28 162 -7 4 -8 0 -4 -11z"/>
<path d="M6092 7348 c3 -7 12 -14 21 -16 12 -2 15 1 11 12 -7 19 -38 22 -32 4z"/>
<path d="M1709 7313 c-11 -30 -5 -84 14 -114 21 -34 25 -20 10 38 -8 31 -12
67 -9 80 9 32 -2 29 -15 -4z"/>
<path d="M3763 7333 c-7 -2 -13 -18 -13 -34 0 -24 4 -29 24 -29 29 0 44 33 26
55 -13 16 -17 17 -37 8z"/>
<path d="M5866 7332 c-9 -14 5 -73 15 -66 5 3 9 15 9 27 0 28 -15 53 -24 39z"/>
<path d="M2251 7299 c-2 -44 30 -118 61 -144 39 -33 47 -25 15 17 -28 38 -56
91 -68 128 l-7 25 -1 -26z"/>
<path d="M4742 7278 c17 -31 14 -167 -4 -245 -9 -35 -14 -63 -12 -63 2 0 13
19 25 43 31 59 38 181 14 242 -9 25 -21 45 -26 45 -5 0 -4 -10 3 -22z"/>
<path d="M4663 7178 c-5 -51 -8 -95 -7 -97 9 -11 34 74 34 116 0 89 -17 78
-27 -19z"/>
<path d="M1665 7228 c7 -32 33 -83 40 -76 2 1 -4 27 -13 55 -19 58 -38 72 -27
21z"/>
<path d="M4436 7253 c-12 -12 -6 -33 9 -33 8 0 15 6 15 14 0 17 -14 28 -24 19z"/>
<path d="M6050 7251 c0 -13 60 -45 68 -36 3 3 1 14 -4 23 -12 19 -64 29 -64
13z"/>
<path d="M4856 7195 c-13 -88 -45 -181 -80 -234 -41 -60 -34 -66 16 -13 60 61
94 172 79 257 l-8 40 -7 -50z"/>
<path d="M4932 7131 c-6 -39 -28 -110 -47 -158 -32 -80 -33 -85 -11 -64 56 53
99 195 79 264 -8 26 -10 21 -21 -42z"/>
<path d="M5071 7130 c-1 -30 -7 -76 -15 -101 -15 -47 -64 -147 -92 -186 -29
-40 2 -25 45 22 59 65 81 121 80 208 -1 89 -17 139 -18 57z"/>
<path d="M5016 7158 c-3 -7 -7 -33 -11 -57 -3 -25 -25 -83 -47 -130 -55 -113
-55 -112 -14 -67 20 21 44 62 55 90 19 52 38 176 27 176 -4 0 -8 -6 -10 -12z"/>
<path d="M2697 7135 c-8 -18 11 -31 25 -17 11 11 3 32 -12 32 -4 0 -10 -7 -13
-15z"/>
<path d="M2716 7081 c-4 -5 -2 -12 3 -15 5 -4 12 -2 15 3 4 5 2 12 -3 15 -5 4
-12 2 -15 -3z"/>
<path d="M2543 7058 c-39 -19 -41 -79 -2 -63 21 8 51 54 44 65 -7 12 -13 12
-42 -2z"/>
<path d="M5680 7023 c0 -28 -3 -60 -6 -70 -5 -16 -4 -16 10 1 18 22 21 83 6
106 -7 11 -10 0 -10 -37z"/>
<path d="M2270 7051 c0 -6 5 -13 10 -16 6 -3 10 1 10 9 0 9 -4 16 -10 16 -5 0
-10 -4 -10 -9z"/>
<path d="M5887 7036 c-3 -8 1 -17 9 -20 9 -4 14 1 14 14 0 23 -15 27 -23 6z"/>
<path d="M5746 6987 c-4 -21 -10 -45 -13 -53 -3 -8 0 -14 6 -14 18 0 33 50 23
79 -9 25 -9 25 -16 -12z"/>
<path d="M2602 6998 c-19 -19 -15 -48 7 -48 24 0 45 25 37 45 -7 18 -27 20
-44 3z"/>
<path d="M6078 6953 c52 -63 97 -145 117 -215 9 -32 19 -58 22 -58 3 0 2 26
-1 58 -10 79 -57 172 -113 221 -62 55 -73 52 -25 -6z"/>
<path d="M2545 6939 c-10 -15 3 -25 16 -12 7 7 7 13 1 17 -6 3 -14 1 -17 -5z"/>
<path d="M6030 6898 c0 -2 21 -26 46 -52 48 -51 83 -115 84 -153 0 -13 4 -23
8 -23 13 0 -2 91 -20 125 -9 17 -27 40 -40 51 -26 24 -78 58 -78 52z"/>
<path d="M6043 6808 c40 -40 68 -79 78 -107 8 -25 18 -41 21 -35 9 14 -21 95
-49 132 -20 26 -88 72 -107 72 -2 0 24 -28 57 -62z"/>
<path d="M4770 6820 c0 -11 5 -20 10 -20 6 0 10 9 10 20 0 11 -4 20 -10 20 -5
0 -10 -9 -10 -20z"/>
<path d="M2420 6795 c0 -8 7 -15 15 -15 8 0 15 7 15 15 0 8 -7 15 -15 15 -8 0
-15 -7 -15 -15z"/>
<path d="M1857 6783 c-13 -12 -7 -33 8 -33 8 0 15 9 15 20 0 20 -11 26 -23 13z"/>
<path d="M5930 6782 c0 -12 70 -92 81 -92 19 0 9 57 -14 78 -23 21 -67 30 -67
14z"/>
<path d="M5591 6729 c-12 -12 -20 -23 -18 -26 7 -6 57 27 57 38 0 15 -15 10
-39 -12z"/>
<path d="M2611 6693 c-1 -24 4 -43 9 -43 12 0 12 37 0 65 -7 15 -9 10 -9 -22z"/>
<path d="M2515 6685 c4 -22 11 -44 17 -50 7 -7 8 1 3 25 -11 53 -28 74 -20 25z"/>
<path d="M2558 6714 c-11 -10 -10 -56 2 -74 5 -8 10 -12 12 -10 7 10 -7 92
-14 84z"/>
<path d="M5880 6700 c-13 -9 -12 -13 9 -30 13 -11 27 -20 32 -20 13 0 11 34
-3 48 -14 14 -19 15 -38 2z"/>
<path d="M6390 6687 c0 -14 31 -47 43 -47 14 0 7 27 -11 43 -22 21 -32 21 -32
4z"/>
<path d="M6480 6692 c0 -5 11 -19 25 -32 19 -18 25 -20 25 -8 0 8 -8 22 -18
31 -20 19 -32 22 -32 9z"/>
<path d="M2440 6686 c0 -20 36 -96 61 -127 39 -49 52 -43 15 6 -15 19 -36 56
-47 80 -17 38 -29 55 -29 41z"/>
<path d="M5615 6679 c-12 -19 5 -23 22 -6 16 16 16 17 1 17 -9 0 -20 -5 -23
-11z"/>
<path d="M5662 6638 c-7 -7 -12 -16 -12 -20 0 -12 28 -10 36 3 10 17 -10 31
-24 17z"/>
<path d="M4166 4953 c-9 -48 -20 -151 -26 -228 -12 -171 -12 -165 -1 -165 5 0
12 51 16 113 3 61 13 168 21 236 8 68 12 126 10 128 -2 2 -11 -36 -20 -84z"/>
<path d="M3853 4464 c-30 -30 -23 -46 8 -18 11 10 33 24 47 31 l27 11 -28 1
c-17 1 -38 -9 -54 -25z"/>
<path d="M3489 4421 c-16 -16 -29 -35 -29 -42 0 -7 15 1 33 18 17 18 43 36 57
42 l25 10 -28 0 c-19 1 -39 -9 -58 -28z"/>
<path d="M3536 4409 c-38 -30 -32 -45 7 -16 17 14 41 27 52 30 16 4 15 5 -6 6
-15 0 -38 -8 -53 -20z"/>
<path d="M4341 4107 c-13 -21 -12 -21 5 -5 10 10 16 20 13 22 -3 3 -11 -5 -18
-17z"/>
<path d="M4900 4210 c0 -19 20 -27 33 -13 8 7 -11 33 -24 33 -5 0 -9 -9 -9
-20z"/>
<path d="M4440 2950 c0 -4 14 -13 30 -19 17 -5 30 -6 30 -1 0 4 -13 13 -30 19
-16 5 -30 6 -30 1z"/>
<path d="M4217 2784 c-8 -8 1 -24 14 -24 5 0 9 7 9 15 0 15 -12 20 -23 9z"/>
<path d="M4350 2711 c8 -6 24 -11 35 -11 11 0 42 -11 68 -24 51 -25 59 -16 15
17 -16 12 -48 22 -80 24 -39 3 -49 2 -38 -6z"/>
<path d="M4860 2704 c-36 -15 -100 -71 -100 -87 0 -4 19 6 43 23 52 37 123 60
186 60 33 0 42 3 31 10 -23 15 -121 11 -160 -6z"/>
<path d="M4855 2624 c-27 -14 -74 -53 -50 -42 6 3 26 11 45 20 19 8 46 20 60
26 l25 11 -25 0 c-14 1 -38 -6 -55 -15z"/>
<path d="M3554 2558 c-1 -63 1 -68 13 -52 10 12 13 34 10 62 -8 72 -22 66 -23
-10z"/>
<path d="M5014 2614 c3 -9 6 -18 6 -20 0 -2 7 -4 15 -4 8 0 15 9 15 20 0 14
-7 20 -21 20 -15 0 -19 -4 -15 -16z"/>
<path d="M4447 2613 c-14 -13 -6 -33 13 -33 11 0 20 4 20 9 0 13 -26 32 -33
24z"/>
<path d="M5717 2574 c-8 -9 11 -44 24 -44 6 0 9 10 7 22 -3 22 -19 34 -31 22z"/>
<path d="M2350 2007 c6 -7 203 -24 370 -32 364 -19 604 -24 1020 -20 426 5
601 13 617 29 4 3 -83 6 -193 7 -109 1 -237 2 -284 3 -241 7 -1534 17 -1530
13z"/>
<path d="M6317 1853 c-23 -37 -237 -520 -237 -534 0 -21 31 -41 47 -31 6 4 65
126 131 272 94 205 118 268 111 282 -10 18 -44 25 -52 11z"/>
<path d="M2139 1794 c-16 -20 -1 -48 30 -52 17 -3 21 -10 21 -44 0 -34 -3 -39
-17 -33 -83 34 -150 25 -207 -28 -66 -62 -70 -160 -9 -228 44 -48 109 -66 174
-48 24 7 72 11 106 10 53 -2 63 0 72 17 9 16 7 24 -5 36 -8 9 -22 16 -30 16
-12 0 -14 31 -14 185 l0 185 -54 0 c-37 0 -58 -5 -67 -16z m7 -199 c27 -18 48
-68 40 -100 -11 -44 -44 -65 -102 -65 -46 0 -55 4 -79 32 -21 25 -25 38 -21
62 17 82 91 115 162 71z"/>
<path d="M5380 1788 c-26 -17 -37 -34 -44 -66 -8 -33 -14 -42 -31 -42 -34 0
-59 -23 -51 -48 6 -17 15 -22 42 -22 l34 0 0 -85 0 -85 -29 0 c-27 0 -61 -21
-61 -39 0 -25 31 -31 157 -31 115 0 135 2 140 16 12 33 -11 49 -76 52 l-61 3
0 84 0 85 70 0 c56 0 72 3 77 16 13 34 -11 49 -81 52 -57 3 -66 5 -66 22 0 29
34 41 107 38 53 -2 67 0 76 14 20 31 -12 50 -95 55 -65 4 -77 2 -108 -19z"/>
<path d="M1220 1681 c-43 -14 -69 -34 -81 -63 -26 -63 21 -112 120 -124 71 -9
101 -20 101 -38 0 -19 -22 -26 -86 -26 -46 0 -59 4 -80 26 -16 15 -35 24 -48
22 -18 -3 -21 -9 -21 -52 l0 -50 75 -13 c131 -22 230 17 230 91 -1 58 -38 86
-143 106 -44 9 -82 21 -84 27 -6 16 62 34 98 26 15 -3 36 -14 45 -24 9 -11 28
-19 40 -19 28 0 42 39 28 79 -8 21 -16 26 -44 27 -19 1 -55 4 -80 7 -25 4 -56
3 -70 -2z"/>
<path d="M2456 1675 c-87 -31 -137 -116 -115 -197 29 -111 183 -161 278 -90
115 85 82 253 -57 292 -47 13 -58 12 -106 -5z m91 -65 c27 0 73 -56 73 -90 0
-48 -47 -90 -100 -90 -108 0 -153 89 -79 157 26 22 56 33 77 27 8 -2 20 -4 29
-4z"/>
<path d="M3374 1665 c-27 -14 -50 -25 -51 -25 -2 0 -3 9 -3 20 0 18 -7 20 -54
20 -51 0 -86 -16 -86 -39 0 -15 25 -31 47 -31 22 0 23 -3 23 -85 0 -82 -1 -85
-23 -85 -32 0 -60 -23 -55 -46 3 -18 14 -19 142 -22 105 -2 141 1 148 10 22
35 -10 58 -83 58 l-59 0 0 49 c0 45 3 52 38 81 46 38 76 46 107 30 58 -31 79
36 23 70 -42 26 -54 25 -114 -5z"/>
<path d="M3675 1681 c-11 -4 -38 -6 -61 -3 -69 7 -110 -31 -64 -60 17 -11 20
-24 20 -94 0 -72 -2 -83 -21 -96 -16 -10 -20 -20 -15 -36 7 -20 14 -22 76 -22
51 0 69 4 74 15 8 21 -3 43 -25 50 -16 5 -19 16 -19 71 0 56 4 68 24 89 15 15
31 22 40 19 13 -5 16 -27 16 -126 l0 -119 53 3 c45 3 52 6 55 25 2 14 -4 26
-17 33 -18 9 -21 20 -21 85 0 68 2 76 25 91 13 8 29 13 35 9 6 -4 10 -54 10
-126 l0 -120 53 3 c45 3 52 6 55 25 2 14 -4 27 -17 35 -19 11 -21 23 -21 104
0 76 -3 95 -20 117 -26 33 -69 42 -112 24 -29 -12 -38 -12 -59 -1 -27 15 -36
16 -64 5z"/>
<path d="M5024 1665 c-27 -14 -50 -25 -51 -25 -2 0 -3 9 -3 20 0 18 -7 20 -54
20 -51 0 -86 -16 -86 -39 0 -15 25 -31 47 -31 22 0 23 -3 23 -85 0 -82 -1 -85
-23 -85 -32 0 -60 -23 -55 -46 3 -18 14 -19 142 -22 105 -2 141 1 148 10 22
35 -10 58 -83 58 l-59 0 0 50 c0 47 2 51 46 85 46 34 87 45 99 25 10 -16 44
-11 54 8 12 23 -2 48 -39 67 -39 20 -48 19 -106 -10z"/>
<path d="M1506 1667 c-25 -18 -17 -50 14 -57 24 -6 25 -9 30 -102 4 -83 8
-100 28 -121 29 -31 76 -41 122 -26 19 6 65 10 101 9 51 0 68 3 72 15 9 21 -2
43 -24 50 -17 6 -19 17 -19 126 l0 119 -53 0 c-64 0 -98 -19 -81 -47 6 -10 23
-19 38 -21 25 -3 26 -5 26 -77 0 -73 -1 -75 -31 -90 -16 -9 -47 -15 -67 -13
l-37 3 -3 123 -3 122 -47 0 c-27 0 -56 -6 -66 -13z"/>
<path d="M4430 1565 l0 -35 145 0 145 0 0 35 0 35 -145 0 -145 0 0 -35z"/>
</g>
</svg>
