<?xml version="1.0" standalone="no"?>
<!DOCTYPE svg PUBLIC "-//W3C//DTD SVG 20010904//EN"
 "http://www.w3.org/TR/2001/REC-SVG-20010904/DTD/svg10.dtd">
<svg version="1.0" xmlns="http://www.w3.org/2000/svg"
 width="1024.000000pt" height="1024.000000pt" viewBox="0 0 1024.000000 1024.000000"
 preserveAspectRatio="xMidYMid meet">

<g transform="translate(0.000000,1024.000000) scale(0.100000,-0.100000)"
fill="#000000" stroke="none">
<path d="M3003 8881 c-89 -30 -141 -80 -186 -178 -21 -45 -22 -60 -20 -251 2
-186 0 -209 -19 -260 -26 -70 -35 -85 -116 -190 -135 -175 -174 -262 -176
-387 l-1 -80 -49 -15 c-27 -8 -65 -29 -84 -47 l-35 -33 8 -68 c10 -82 10 -125
0 -178 -15 -83 43 -138 181 -173 45 -12 123 -37 175 -57 151 -58 247 -47 312
39 23 30 33 35 83 40 31 3 92 2 136 -3 78 -9 81 -10 139 -64 65 -61 113 -80
169 -67 46 10 106 42 155 81 55 44 110 75 176 100 79 29 109 61 109 117 0 38
-6 50 -46 93 -39 41 -47 57 -53 104 -8 56 -35 100 -70 111 -13 4 -16 24 -16
122 0 112 -2 121 -32 185 -17 37 -62 111 -100 163 -180 253 -179 251 -192 475
-13 220 -51 310 -161 380 -91 59 -194 73 -287 41z m264 -133 c35 -34 45 -84
18 -94 -23 -9 -100 38 -103 63 -4 29 15 63 35 63 10 0 32 -14 50 -32z m-282
-208 c19 -21 36 -84 26 -96 -3 -5 -20 -20 -36 -34 -22 -18 -25 -19 -12 -4 22
27 22 66 -2 95 -16 19 -23 22 -37 13 -32 -19 -38 -60 -16 -104 21 -43 14 -52
-16 -22 -25 25 -36 96 -20 130 24 50 78 60 113 22z m272 -2 c32 -36 37 -65 18
-114 -18 -48 -49 -64 -82 -45 -17 10 -17 10 0 11 25 0 57 36 57 65 0 30 -32
65 -60 65 -27 0 -48 -67 -30 -99 17 -33 8 -34 -24 -4 -24 22 -27 31 -22 62 7
46 46 81 90 81 21 0 40 -8 53 -22z m-112 -181 c86 -54 92 -73 39 -122 -21 -19
-57 -42 -80 -51 -36 -14 -48 -14 -81 -3 l-38 13 55 11 c80 17 127 34 142 52
12 15 9 16 -32 10 -214 -32 -254 -9 -161 92 24 26 47 41 62 41 14 0 56 -19 94
-43z m260 -75 c5 -25 3 -33 -10 -39 -40 -15 -75 85 -37 106 19 11 35 -10 47
-67z m-158 -14 c-3 -8 -6 -5 -6 6 -1 11 2 17 5 13 3 -3 4 -12 1 -19z m102
-192 c101 -193 141 -314 141 -425 0 -47 -1 -49 -32 -55 -72 -14 -98 -58 -98
-161 0 -110 -33 -160 -127 -195 -68 -25 -218 -28 -263 -5 -51 27 -53 45 -9 83
32 28 39 40 39 70 0 32 -8 44 -59 93 -33 31 -94 74 -135 95 -42 22 -77 44 -79
49 -2 6 -1 43 3 83 6 59 16 90 50 155 24 45 60 129 82 187 22 58 43 109 48
113 4 5 31 -7 59 -26 28 -20 60 -39 71 -42 26 -8 109 37 169 92 34 30 49 38
58 31 7 -6 44 -69 82 -142z m193 -164 c52 -57 72 -118 66 -197 l-6 -64 44 -22
c43 -20 84 -64 84 -90 0 -6 -11 0 -25 15 -25 27 -98 65 -124 66 -8 0 -28 -12
-43 -27 -39 -37 -37 -7 2 35 42 47 50 65 50 117 0 50 -31 120 -75 174 -38 45
-14 38 27 -7z m-849 -57 c-33 -70 -35 -81 -31 -145 5 -71 -5 -91 -22 -44 -22
56 -5 134 46 221 41 70 46 49 7 -32z m9 -312 c14 -16 38 -53 53 -83 15 -30 58
-102 95 -160 87 -136 90 -142 90 -183 0 -27 -8 -42 -35 -66 -46 -40 -81 -40
-175 -1 -41 17 -117 42 -169 56 -133 36 -145 44 -138 101 3 25 -1 75 -9 112
-8 36 -14 71 -14 78 0 23 41 51 99 67 58 16 88 37 117 81 21 33 54 32 86 -2z
m787 -60 c46 -90 99 -106 195 -59 29 14 58 26 63 26 20 0 37 -32 44 -87 6 -45
15 -63 43 -92 54 -55 48 -77 -29 -101 -54 -16 -108 -48 -195 -115 -79 -59
-109 -67 -160 -40 -16 8 -34 24 -40 34 -14 27 -12 110 5 216 8 50 15 124 15
166 0 42 3 79 7 82 15 16 34 5 52 -30z"/>
<path d="M3081 7904 c0 -11 3 -14 6 -6 3 7 2 16 -1 19 -3 4 -6 -2 -5 -13z"/>
<path d="M6065 8745 c-115 -18 -164 -33 -187 -58 -11 -12 -46 -62 -79 -112
-32 -49 -69 -102 -81 -117 l-21 -27 42 -48 c90 -103 231 -290 374 -493 28 -41
69 -92 89 -115 l37 -40 31 30 c17 17 48 55 68 85 61 92 224 310 308 410 89
106 134 164 134 172 0 3 -27 38 -60 79 -33 40 -72 97 -87 126 -33 62 -53 74
-177 103 -101 23 -263 26 -391 5z m71 -157 c-10 -108 -10 -108 -64 -108 -26 0
-85 -5 -131 -10 -46 -6 -85 -9 -88 -6 -3 2 22 38 54 80 45 59 66 77 93 84 158
41 144 45 136 -40z m264 51 c58 -11 112 -26 121 -32 8 -7 36 -40 62 -74 l48
-63 -39 0 c-22 0 -58 7 -80 14 -25 9 -44 11 -47 5 -4 -5 -58 -9 -121 -9 l-114
0 0 83 c0 46 3 87 7 90 11 12 54 8 163 -14z m-270 -281 c0 -24 5 -63 11 -88
12 -53 50 -303 46 -306 -3 -3 -63 77 -167 226 -41 58 -87 121 -104 140 -34 40
-43 35 94 55 129 19 120 21 120 -27z m291 21 c74 -5 140 -12 147 -14 8 -3 -17
-43 -66 -107 -43 -57 -101 -137 -129 -178 -57 -86 -79 -108 -93 -94 -6 6 -14
66 -20 134 -5 69 -13 158 -16 198 -8 85 -28 78 177 61z"/>
<path d="M3593 8738 c-21 -27 -21 -47 -2 -72 34 -43 82 -26 82 29 0 14 -6 32
-13 40 -15 18 -54 20 -67 3z"/>
<path d="M8910 8731 l-555 -6 -37 -28 c-69 -53 -68 -46 -68 -525 0 -428 0
-429 23 -462 12 -18 39 -47 61 -64 l38 -31 591 3 c652 3 616 0 679 70 l36 40
4 438 c5 431 5 440 -16 483 -30 65 -63 85 -139 86 -34 1 -312 -1 -617 -4z
m645 -112 c21 -17 25 -29 25 -74 l0 -54 -37 -7 c-42 -8 -1169 9 -1178 17 -7 8
5 93 16 110 7 11 84 15 401 19 799 10 744 11 773 -11z m-382 -236 l407 -6 0
-317 c0 -258 -3 -320 -14 -329 -21 -18 -1170 -21 -1188 -3 -19 19 -25 641 -6
653 16 11 264 11 801 2z"/>
<path d="M9192 8598 c-7 -7 -12 -24 -12 -38 0 -32 17 -50 45 -50 25 0 55 29
55 53 0 38 -61 62 -88 35z"/>
<path d="M9386 8594 c-21 -20 -21 -70 0 -78 40 -15 94 12 94 48 0 22 -29 46
-55 46 -13 0 -31 -7 -39 -16z"/>
<path d="M8485 8258 c-8 -26 -12 -367 -4 -379 6 -10 18 -10 46 -3 l38 9 8 140
c5 77 6 164 2 193 l-6 52 -40 0 c-23 0 -41 -5 -44 -12z"/>
<path d="M8708 8240 c-19 -12 -23 -46 -9 -68 14 -22 76 -25 415 -17 l324 7 7
26 c4 17 1 30 -10 41 -14 14 -61 16 -363 19 -233 1 -353 -1 -364 -8z"/>
<path d="M8790 8061 l-85 -6 -3 -40 -3 -40 373 3 c235 3 378 8 386 14 17 14
15 43 -4 62 -13 14 -53 16 -297 14 -155 -1 -320 -4 -367 -7z"/>
<path d="M8830 7883 c-30 -6 -40 -19 -40 -55 0 -25 3 -27 48 -30 26 -2 166 -1
311 2 236 4 265 7 275 22 8 14 6 22 -12 40 -22 23 -26 23 -290 24 -147 1 -278
0 -292 -3z"/>
<path d="M3979 8720 c-87 -15 -171 -71 -214 -144 -47 -80 -49 -229 -6 -315 26
-49 98 -113 168 -147 46 -23 63 -26 113 -21 170 15 308 175 298 347 -7 120
-71 205 -195 261 -67 30 -86 32 -164 19z m131 -107 c44 -18 75 -47 111 -102
47 -74 35 -169 -30 -224 -14 -12 -34 -34 -43 -49 -20 -30 -70 -48 -133 -48
-43 0 -69 14 -123 64 -132 123 -74 335 103 376 34 8 64 4 115 -17z"/>
<path d="M3969 8474 c-55 -59 -9 -166 65 -149 17 4 42 8 56 9 53 2 49 87 -6
136 -43 38 -82 39 -115 4z"/>
<path d="M1227 8709 c-137 -21 -280 -91 -392 -193 l-60 -54 13 -33 c28 -71 28
-72 -6 -52 -30 17 -31 17 -55 -5 -65 -61 -117 -256 -112 -417 6 -202 74 -356
218 -491 148 -140 318 -205 542 -208 108 -1 128 2 205 28 114 39 217 88 263
127 l38 31 -21 23 c-12 13 -38 48 -58 78 -21 30 -63 83 -94 117 l-57 62 -34
-26 c-96 -73 -269 -104 -394 -71 -129 34 -190 81 -242 184 -38 74 -49 140 -40
227 7 67 44 164 61 164 5 0 30 20 56 44 56 52 132 93 197 105 25 5 48 9 50 10
3 0 19 1 35 1 l30 0 0 103 c0 57 -3 139 -6 181 l-7 77 -41 -3 c-23 -1 -63 -5
-89 -9z"/>
<path d="M2516 8701 c-39 -43 11 -103 69 -81 28 11 43 54 28 79 -16 25 -75 26
-97 2z"/>
<path d="M4466 8678 c-23 -32 -20 -54 11 -77 25 -20 27 -21 47 -4 12 10 24 22
28 27 9 13 -17 62 -37 70 -26 10 -33 7 -49 -16z"/>
<path d="M2327 8684 c-4 -4 -7 -62 -7 -130 0 -129 2 -134 51 -134 39 0 49 37
41 155 l-7 110 -35 3 c-20 2 -39 0 -43 -4z"/>
<path d="M2202 8653 c2 -21 10 -29 36 -37 43 -12 60 3 44 39 -9 20 -19 25 -47
25 -34 0 -36 -2 -33 -27z"/>
<path d="M7895 8603 c-69 -73 -82 -103 -65 -148 9 -24 14 -27 43 -22 17 3 40
8 50 12 16 7 17 -14 17 -361 0 -203 3 -379 6 -391 8 -29 23 -33 85 -26 l51 6
-3 499 -4 498 -58 0 -58 0 -64 -67z"/>
<path d="M5354 8646 c-10 -26 0 -50 26 -63 32 -16 52 0 48 41 -3 27 -7 31 -36
34 -22 2 -34 -2 -38 -12z"/>
<path d="M7059 8640 c-67 -35 -139 -134 -139 -189 0 -32 42 -37 93 -12 24 12
47 21 51 21 4 0 5 -167 2 -370 -4 -204 -3 -382 0 -395 5 -21 12 -25 43 -25 20
0 45 3 57 6 21 5 21 10 28 486 6 391 5 483 -6 489 -23 15 -92 9 -129 -11z"/>
<path d="M7445 8634 c-43 -22 -103 -83 -128 -129 -21 -38 -22 -52 -22 -315 0
-311 6 -342 72 -401 55 -48 98 -62 173 -57 100 8 191 66 220 143 14 35 4 537
-11 597 -32 125 -201 215 -304 162z m132 -144 c18 -11 36 -32 40 -47 5 -15 8
-142 8 -281 l0 -254 -24 -19 c-48 -39 -104 -37 -147 6 l-24 24 0 258 c0 285 1
291 64 319 41 18 46 17 83 -6z"/>
<path d="M1816 8609 c-13 -20 -22 -50 -42 -156 -4 -23 -4 -23 -24 -3 -33 33
-48 25 -55 -27 -4 -27 -15 -82 -26 -123 -18 -65 -27 -82 -74 -130 -94 -97
-129 -169 -89 -184 9 -3 82 -6 164 -6 l149 0 34 -42 c18 -24 47 -67 64 -97
l31 -54 25 44 c28 49 47 102 72 200 9 35 31 111 50 169 34 102 65 241 65 288
0 16 -6 22 -23 22 -27 0 -101 -46 -136 -84 l-24 -26 -61 112 c-34 61 -66 113
-73 115 -6 2 -18 -6 -27 -18z"/>
<path d="M5047 8572 c-20 -22 -22 -75 -4 -89 28 -22 47 -22 77 3 35 30 37 42
9 78 -24 30 -59 34 -82 8z"/>
<path d="M4786 8558 c-24 -34 -20 -75 8 -93 19 -13 29 -14 45 -5 42 22 53 76
23 103 -26 23 -58 21 -76 -5z"/>
<path d="M5306 8484 c-21 -21 -20 -57 2 -77 47 -43 110 7 88 71 -6 17 -15 22
-41 22 -18 0 -41 -7 -49 -16z"/>
<path d="M4555 8447 c-15 -77 46 -126 92 -73 13 15 23 40 23 56 0 23 -6 30
-31 39 -57 20 -77 15 -84 -22z"/>
<path d="M5506 8364 c-31 -31 -7 -94 35 -94 26 0 59 31 59 55 0 25 -33 55 -62
55 -9 0 -24 -7 -32 -16z"/>
<path d="M2456 8329 c-12 -63 -7 -166 10 -179 15 -13 69 -18 80 -8 3 4 8 50
11 103 7 109 4 115 -58 115 -33 0 -37 -3 -43 -31z"/>
<path d="M4865 8150 c-167 -35 -272 -88 -383 -194 -91 -87 -151 -186 -195
-321 l-32 -100 1 -260 c0 -143 4 -355 9 -470 l8 -211 -28 -89 c-51 -167 -103
-259 -336 -590 -99 -140 -289 -463 -365 -619 -84 -173 -105 -254 -111 -431 -3
-84 -1 -155 5 -178 6 -21 9 -44 6 -52 -9 -23 -118 -74 -211 -99 -141 -37 -205
-77 -249 -153 -38 -64 -37 -130 6 -255 37 -109 40 -81 -25 -238 -23 -54 -26
-73 -21 -122 3 -32 18 -82 32 -111 74 -145 150 -191 382 -227 179 -28 352 -80
527 -159 121 -55 219 -81 303 -81 96 1 157 21 242 82 78 55 132 74 260 93 135
20 414 37 485 30 98 -10 269 -44 330 -65 31 -11 86 -41 122 -66 158 -113 312
-123 493 -32 69 35 107 64 200 154 129 124 174 153 392 258 174 83 203 104
242 176 25 46 28 60 23 112 -8 89 -47 161 -137 249 -43 42 -83 86 -89 98 -7
12 -19 61 -27 109 -9 50 -26 105 -39 128 -27 46 -88 104 -109 104 -8 0 -49 35
-93 78 -87 87 -177 139 -262 149 -39 4 -59 1 -102 -19 -57 -27 -121 -84 -145
-130 -16 -31 -29 -35 -41 -14 -37 63 -166 44 -238 -36 -60 -67 -70 -118 -56
-284 6 -69 11 -169 11 -224 l0 -98 -96 -90 c-191 -178 -373 -259 -606 -269
-202 -9 -378 28 -446 95 -35 34 -122 177 -122 202 0 5 6 10 13 10 7 0 37 7 66
16 65 19 124 71 146 128 16 40 15 46 -5 106 -56 166 -157 255 -407 360 -113
48 -169 87 -189 135 -19 47 -28 236 -15 348 14 127 42 226 103 367 60 142 107
210 144 210 15 0 63 19 108 42 44 23 128 58 185 78 109 39 113 46 39 64 -35 8
-210 -26 -271 -54 -27 -12 -51 -19 -54 -17 -10 10 29 122 93 264 73 163 115
285 139 406 28 135 53 143 124 39 51 -74 108 -130 173 -168 51 -30 56 -31 127
-24 59 6 92 17 166 54 108 55 240 158 304 236 24 30 48 57 53 59 14 5 57 -39
78 -79 10 -19 33 -76 53 -125 19 -50 54 -128 77 -175 96 -190 183 -390 205
-472 13 -48 33 -101 45 -117 72 -102 127 -287 136 -461 8 -140 -4 -228 -50
-378 l-34 -114 49 55 c27 31 79 77 114 103 112 82 165 182 165 308 0 155 -68
310 -186 427 -41 41 -74 77 -74 81 0 15 43 8 76 -13 53 -32 152 -148 184 -215
37 -76 70 -211 70 -285 0 -69 -22 -147 -62 -217 -17 -29 -29 -55 -27 -56 2 -2
28 -11 57 -21 108 -35 212 -120 297 -242 40 -57 57 -55 85 10 80 184 76 387
-12 655 -76 231 -201 456 -438 787 -128 180 -212 347 -261 521 -20 71 -23 112
-29 419 -8 337 -8 341 -39 457 -104 395 -370 626 -770 669 -120 12 -163 10
-266 -11z m580 -284 c102 -48 169 -145 163 -235 -3 -44 -4 -46 -36 -49 -41 -4
-167 53 -228 103 -71 58 -92 129 -53 179 27 34 85 35 154 2z m-45 -552 c95
-52 141 -139 141 -267 0 -45 -4 -96 -9 -113 -20 -65 -107 -174 -138 -174 -9 0
-61 33 -117 73 -56 39 -128 90 -160 111 -32 22 -63 48 -69 59 -15 29 -2 159
21 211 21 48 81 103 132 123 52 20 139 10 199 -23z m-723 -8 c82 -38 133 -135
133 -252 0 -50 -2 -55 -37 -81 -20 -15 -71 -60 -113 -99 -109 -103 -111 -104
-163 -52 -89 90 -120 299 -60 409 53 98 135 124 240 75z m312 -391 c41 -14
162 -93 211 -138 57 -52 90 -98 90 -128 0 -41 -65 -102 -167 -156 -153 -82
-270 -88 -365 -21 -41 29 -77 66 -78 79 0 3 25 -7 56 -23 72 -35 122 -36 238
-3 138 41 238 96 215 120 -4 3 -73 -10 -154 -30 -81 -19 -167 -35 -191 -35
-84 0 -214 61 -214 100 0 19 94 143 147 192 62 59 130 72 212 43z m772 -155
c34 -41 68 -133 76 -202 5 -44 4 -48 -16 -48 -57 0 -141 63 -167 126 -19 44
-11 102 18 139 27 34 53 29 89 -15z m-1711 -1078 c0 -5 -25 -40 -55 -78 -105
-132 -183 -315 -192 -451 -7 -100 16 -181 83 -300 24 -42 43 -78 41 -79 -2 -2
-27 16 -56 39 -69 55 -121 165 -129 273 -9 135 71 351 189 507 54 71 119 120
119 89z m-219 -974 c29 -23 60 -65 99 -135 32 -56 102 -172 156 -257 55 -86
118 -186 141 -224 53 -83 146 -269 169 -337 11 -33 17 -86 18 -155 1 -115 -12
-155 -70 -214 -51 -50 -82 -61 -174 -60 -81 0 -92 3 -245 66 -223 92 -351 133
-490 158 -211 38 -222 41 -266 63 -58 29 -100 91 -106 154 -4 38 2 63 26 120
40 92 41 166 6 276 -30 94 -31 122 -5 165 27 44 66 65 177 96 150 42 204 74
320 191 56 57 110 108 120 114 35 20 80 12 124 -21z m2067 -115 c12 -10 35
-45 52 -78 57 -107 100 -135 212 -135 108 0 212 39 287 109 48 44 74 50 110
25 30 -21 48 -65 61 -150 16 -101 48 -162 132 -251 41 -43 82 -89 91 -103 21
-31 22 -108 2 -137 -8 -12 -93 -60 -188 -106 -222 -109 -306 -171 -463 -339
-70 -74 -140 -113 -228 -128 -106 -17 -194 18 -233 94 -21 39 -19 162 4 336
13 98 16 198 15 459 -2 319 -1 336 19 367 30 50 91 67 127 37z"/>
<path d="M5263 7220 c-58 -13 -81 -36 -99 -96 -27 -95 1 -173 79 -214 56 -30
88 -22 143 33 69 70 68 163 -4 237 -40 42 -70 51 -119 40z"/>
<path d="M4551 7207 c-57 -29 -80 -124 -52 -210 16 -47 73 -97 110 -97 34 0
76 31 96 70 21 41 19 128 -4 170 -32 61 -102 92 -150 67z"/>
<path d="M3977 7872 c-24 -27 -21 -69 8 -97 31 -32 55 -32 85 -1 44 48 18 116
-45 116 -18 0 -39 -8 -48 -18z"/>
<path d="M6523 7746 c-103 -59 -403 -282 -403 -299 1 -17 65 -62 199 -142 62
-37 145 -90 185 -117 65 -45 72 -47 83 -31 10 13 13 85 11 312 -3 331 0 320
-75 277z m-21 -288 l-7 -146 -100 63 c-55 34 -101 69 -103 77 -3 17 94 96 163
133 27 14 50 24 51 22 2 -2 0 -69 -4 -149z"/>
<path d="M2070 7490 c-17 -41 -6 -75 29 -90 75 -31 113 68 41 105 -42 22 -56
19 -70 -15z"/>
<path d="M7017 7447 c-53 -17 -106 -63 -128 -111 -18 -39 -19 -84 -19 -967 l0
-926 23 -43 c12 -24 40 -57 61 -74 l38 -31 206 -6 c114 -3 696 -5 1293 -5
l1085 1 42 28 c23 15 51 44 61 66 20 38 20 64 22 993 2 859 0 956 -14 985 -22
41 -69 80 -115 93 -56 15 -2504 12 -2555 -3z m2550 -132 l34 -34 -3 -88 -3
-88 -90 1 c-49 0 -635 1 -1301 2 -666 1 -1213 4 -1215 6 -2 3 -2 43 1 91 5 82
7 88 37 116 l33 29 1237 -1 1237 -1 33 -33z m-824 -315 l617 0 20 -32 20 -33
-1168 -5 -1167 -5 0 -685 c0 -377 1 -703 3 -725 l4 -40 876 3 c482 1 1050 -1
1262 -5 350 -7 385 -10 388 -25 2 -9 -5 -25 -15 -35 -18 -18 -63 -19 -1278
-16 l-1259 3 -26 25 -25 25 -3 775 -2 775 547 3 c302 1 557 1 568 0 11 -2 298
-3 638 -3z m847 -660 l0 -650 -65 0 -64 0 -3 614 c-3 584 -4 615 -22 635 -34
38 -15 51 74 51 l80 0 0 -650z m-2322 438 c3 -26 1 -28 -33 -28 -37 0 -52 17
-41 46 4 10 16 14 38 12 28 -2 34 -8 36 -30z m422 2 l0 -30 -89 0 c-48 0 -116
3 -150 6 -56 6 -61 9 -61 30 l0 24 150 0 150 0 0 -30z m188 -7 c3 -32 2 -33
-32 -33 -35 0 -36 1 -36 36 0 34 1 35 33 32 28 -3 32 -7 35 -35z m770 -11 c3
-35 0 -42 -15 -42 -38 0 -58 51 -31 78 24 24 43 9 46 -36z m-130 -7 l3 -38
-152 6 c-84 4 -205 7 -271 7 l-118 0 0 34 0 34 268 -3 267 -2 3 -38z m-1246
-100 c-5 -39 -5 -39 -47 -31 -59 11 -41 70 20 64 27 -3 30 -6 27 -33z m492 25
c29 -11 35 -44 10 -54 -9 -3 -99 -6 -200 -6 l-184 0 0 30 0 29 118 4 c64 1
143 4 174 5 31 1 68 -2 82 -8z m-486 -168 l3 -33 -43 3 c-32 2 -44 8 -46 21
-7 36 6 48 45 45 35 -3 38 -6 41 -36z m640 11 c4 -26 -27 -46 -66 -41 -20 2
-28 9 -30 27 -5 30 13 42 58 39 27 -2 36 -8 38 -25z m-220 11 c16 -5 22 -14
22 -36 l0 -30 -157 4 -158 5 0 24 c0 18 7 25 30 30 39 9 234 10 263 3z m667
-164 l0 -35 -227 -3 c-199 -2 -228 0 -243 14 -9 9 -15 24 -13 33 3 14 30 17
213 22 297 7 270 10 270 -31z m-1090 -5 c0 -28 -2 -30 -40 -30 -30 0 -41 4
-43 18 -7 36 6 48 45 45 35 -3 38 -6 38 -33z m200 24 c4 -5 4 -21 1 -35 -6
-22 -11 -25 -44 -22 -32 3 -37 6 -37 28 0 17 7 26 25 31 37 10 48 10 55 -2z
m310 -24 l0 -30 -97 -3 -98 -3 0 30 c0 16 6 32 13 35 6 2 50 4 97 3 l85 -2 0
-30z m721 10 c9 -36 -2 -57 -28 -53 -39 5 -38 78 1 78 14 0 23 -9 27 -25z
m-1226 -160 c0 -35 0 -35 -45 -35 -38 0 -45 3 -45 19 0 40 11 51 51 51 38 0
39 -1 39 -35z m380 0 l0 -35 -114 0 c-63 0 -121 -3 -129 -6 -16 -6 -26 19 -19
48 4 15 21 18 126 21 66 1 124 4 129 5 4 1 7 -14 7 -33z m628 -14 l3 -34 -98
6 c-54 4 -151 7 -215 7 l-118 0 0 24 c0 13 6 27 13 29 6 3 102 5 212 4 l200
-2 3 -34z m-1010 -148 c3 -32 2 -33 -37 -33 -40 0 -41 1 -41 36 0 35 1 35 38
32 34 -3 37 -6 40 -35z m666 12 c4 -14 4 -30 1 -35 -4 -6 -115 -10 -276 -10
-290 0 -286 -1 -259 51 10 18 24 19 269 19 l259 0 6 -25z m346 -136 c6 -11 10
-29 8 -41 -3 -20 -9 -21 -176 -24 l-173 -3 3 32 3 32 131 1 c75 1 139 6 150
12 28 17 42 14 54 -9z m-1020 -3 c6 -8 10 -25 8 -38 -3 -20 -9 -23 -43 -23
-34 0 -40 3 -43 23 -4 30 14 52 43 52 12 0 28 -7 35 -14z m236 -11 c11 -44 -1
-55 -56 -55 l-51 0 3 33 c3 28 7 33 38 38 58 10 59 10 66 -16z m349 -15 c0
-32 -3 -35 -27 -34 -16 0 -67 1 -114 2 l-85 2 3 28 c3 26 6 27 68 33 36 3 85
6 110 5 45 -1 45 -1 45 -36z m-197 -119 c8 -5 12 -21 10 -37 l-3 -29 -127 -2
-128 -2 0 30 0 29 68 1 c54 0 113 7 162 18 3 0 11 -3 18 -8z m341 -1 c96 -1
180 -4 188 -7 7 -3 13 -18 13 -34 l0 -29 -209 0 c-200 0 -209 1 -214 20 -9 36
3 62 27 56 12 -3 99 -6 195 -6z m744 -10 c4 -4 5 -19 2 -32 -7 -28 -36 -38
-110 -38 -63 0 -75 7 -75 44 0 18 2 35 4 37 7 7 170 -2 179 -11z m-1463 -25
c0 -34 -1 -35 -39 -35 -45 0 -56 10 -47 46 5 20 12 24 46 24 39 0 40 -1 40
-35z m1200 0 l0 -35 -95 0 -95 0 0 35 0 35 95 0 95 0 0 -35z m1110 -190 l0
-55 -49 0 c-55 0 -69 11 -73 61 -3 34 -3 34 47 40 28 3 56 7 63 7 8 2 12 -15
12 -53z"/>
<path d="M7137 7293 c-57 -29 -64 -93 -14 -123 43 -27 69 -25 101 6 32 33 34
73 4 101 -31 28 -60 33 -91 16z"/>
<path d="M7356 7279 c-56 -44 -14 -129 63 -129 40 1 62 14 79 47 18 33 15 52
-14 78 -34 32 -91 33 -128 4z"/>
<path d="M7606 7278 c-40 -37 -42 -64 -7 -98 22 -23 39 -30 67 -30 47 0 94 40
94 81 0 62 -103 93 -154 47z"/>
<path d="M8889 7277 c-39 -33 -42 -52 -13 -87 56 -66 148 -15 118 65 -6 15
-53 45 -71 45 -4 0 -20 -10 -34 -23z"/>
<path d="M9133 7280 c-37 -22 -52 -62 -32 -86 21 -26 68 -46 92 -38 63 19 76
76 26 118 -37 31 -45 32 -86 6z"/>
<path d="M9361 7265 c-17 -20 -31 -40 -31 -46 0 -20 59 -69 82 -69 28 0 64 23
79 52 14 27 -5 64 -43 84 -40 21 -53 18 -87 -21z"/>
<path d="M580 7345 c-9 -11 -9 -22 -1 -46 6 -19 11 -106 11 -209 0 -197 4
-210 68 -210 49 0 53 18 45 212 -5 140 -9 180 -24 210 -28 54 -73 74 -99 43z"/>
<path d="M1820 7134 c-102 -41 -270 -108 -375 -149 -104 -40 -282 -112 -395
-160 -113 -48 -263 -109 -335 -137 -195 -75 -233 -95 -265 -140 -41 -56 -46
-118 -21 -248 11 -58 34 -188 50 -290 17 -102 33 -196 36 -210 3 -14 14 -77
26 -140 62 -351 102 -512 141 -570 27 -38 177 -126 568 -332 347 -183 446
-231 476 -230 54 2 43 -4 539 277 363 206 415 235 690 380 332 175 371 199
390 236 8 15 15 51 15 80 0 46 -4 55 -34 84 -19 18 -63 44 -98 58 -35 14 -157
71 -273 128 -115 56 -280 133 -365 170 -99 43 -157 74 -161 86 -13 33 -76 341
-120 583 -49 268 -98 500 -111 526 -23 47 -61 68 -131 71 -57 2 -76 -3 -247
-73z m284 -46 c14 -23 56 -211 82 -373 15 -95 52 -298 86 -475 38 -195 40
-212 26 -226 -11 -10 -250 -125 -378 -182 -19 -8 -147 -69 -285 -135 -284
-135 -460 -215 -655 -294 -74 -30 -160 -68 -192 -84 -31 -16 -59 -29 -62 -29
-6 0 -42 160 -61 275 -9 55 -27 152 -40 215 -13 63 -28 153 -34 200 -16 116
-17 125 -45 288 -37 216 -25 237 175 316 165 65 402 164 519 216 52 23 129 55
170 70 124 44 337 126 480 184 151 62 192 68 214 34z m308 -1178 c24 -10 84
-36 133 -56 50 -20 205 -93 345 -161 140 -69 278 -134 305 -145 62 -24 69 -31
60 -57 -8 -26 -79 -67 -375 -217 -312 -158 -497 -259 -715 -389 -214 -128
-368 -209 -405 -211 -19 -1 -47 -7 -62 -14 -27 -13 -78 -7 -78 9 0 5 14 12 31
16 30 7 28 9 -71 62 -56 30 -137 65 -179 78 -88 27 -278 114 -325 149 -17 14
-61 36 -98 51 -36 14 -74 35 -84 46 -18 20 -18 20 11 13 17 -4 48 -19 70 -34
51 -34 162 -87 200 -95 l30 -6 -30 25 c-38 33 -180 107 -262 136 -35 12 -60
26 -58 31 3 4 -8 18 -24 30 -17 12 -28 26 -25 31 8 12 111 63 289 143 143 64
606 279 916 426 178 84 341 158 351 158 4 1 27 -8 50 -19z"/>
<path d="M1945 6965 c-49 -18 -155 -61 -235 -95 -204 -87 -389 -163 -730 -300
-358 -144 -348 -139 -352 -159 -5 -21 11 -127 56 -376 19 -110 38 -216 41
-235 14 -90 47 -270 56 -312 12 -53 25 -58 81 -33 18 7 77 32 130 54 120 50
360 159 618 281 107 51 260 121 339 156 171 77 258 120 265 132 3 5 -1 49 -9
98 -8 49 -20 121 -26 159 -6 39 -19 104 -29 145 -10 41 -28 140 -40 220 -23
148 -52 276 -67 290 -4 5 -48 -7 -98 -25z m-37 -197 c13 -13 16 -75 6 -103 -5
-13 -8 -14 -15 -3 -7 10 -9 10 -9 1 0 -7 -4 -13 -10 -13 -6 0 -10 26 -10 58 0
71 11 87 38 60z m-963 -520 c7 -27 -9 -141 -24 -182 -9 -23 -14 -26 -26 -16
-8 7 -15 23 -15 36 0 23 25 139 36 168 9 23 23 20 29 -6z"/>
<path d="M1336 6818 c-21 -29 -20 -41 4 -63 18 -17 21 -17 45 -1 27 18 31 36
15 67 -14 26 -45 24 -64 -3z"/>
<path d="M2310 5820 c-41 -22 -115 -58 -165 -81 -118 -54 -293 -137 -325 -155
-14 -7 -41 -21 -60 -30 -19 -9 -108 -52 -197 -95 -89 -44 -168 -79 -175 -79
-7 0 -26 -8 -43 -18 -16 -10 -46 -24 -65 -32 -94 -36 -261 -121 -266 -135 -8
-20 16 -39 86 -65 30 -12 73 -39 95 -60 45 -43 209 -140 237 -140 10 0 98 40
196 89 97 49 400 200 673 336 273 136 500 255 507 266 18 29 -4 58 -51 66 -22
3 -61 21 -88 39 -39 27 -58 34 -98 34 -47 0 -53 3 -100 50 -28 28 -58 50 -68
49 -10 0 -52 -18 -93 -39z m161 -104 c-18 -19 -42 -36 -52 -39 -22 -6 -103 49
-94 63 3 6 45 10 93 10 l86 0 -33 -34z m-172 -59 c34 -17 31 -29 -10 -51 l-36
-19 -69 34 c-67 33 -68 34 -39 40 51 11 129 9 154 -4z m345 -9 c-5 -8 -2 -9
11 -4 15 5 16 4 6 -8 -7 -8 -45 -27 -84 -43 -40 -15 -91 -41 -114 -57 -38 -26
-47 -29 -80 -20 -20 5 -38 14 -40 21 -6 17 50 43 105 48 36 3 47 7 45 20 -2
26 56 55 110 55 34 0 46 -3 41 -12z m-523 -68 c24 -14 24 -32 -1 -55 -28 -25
-70 -23 -116 5 l-38 24 40 18 c44 20 86 23 115 8z m-169 -91 c20 -11 20 -11
-3 -35 -33 -35 -87 -33 -123 5 l-28 29 23 5 c47 9 111 7 131 -4z m358 -4 c17
-20 -4 -36 -79 -65 -94 -36 -125 -1 -44 50 51 33 103 39 123 15z m-531 -56
c37 -13 37 -16 8 -52 -19 -23 -28 -26 -54 -21 -35 7 -92 49 -81 60 7 6 23 10
89 23 3 0 20 -4 38 -10z m366 -25 c17 -13 18 -16 5 -25 -37 -26 -118 -59 -142
-59 -18 0 -28 -5 -28 -15 0 -17 -216 -125 -250 -125 -12 0 -35 7 -52 16 l-32
16 55 24 c30 13 60 23 68 24 7 0 37 13 65 29 28 16 69 34 90 41 22 7 66 30 99
51 65 42 91 47 122 23z m-498 -71 c9 -22 -40 -63 -76 -63 -15 0 -47 14 -70 32
-38 28 -41 33 -25 39 11 4 52 8 92 8 59 1 74 -2 79 -16z m-199 -79 c29 -20 28
-26 -7 -47 -40 -23 -50 -22 -107 15 -47 30 -48 32 -24 39 45 13 115 10 138 -7z
m-193 -76 c33 -15 32 -24 -5 -43 -35 -18 -80 -20 -80 -2 1 55 29 71 85 45z
m362 -20 l23 -22 -27 -18 c-33 -21 -82 -23 -109 -4 -10 8 -17 16 -14 18 23 18
78 48 89 48 8 0 25 -10 38 -22z m-159 -80 c18 -18 15 -24 -23 -47 -34 -20 -37
-20 -70 -4 -40 19 -45 40 -12 53 32 13 91 12 105 -2z"/>
<path d="M2445 5344 c-44 -25 -160 -86 -257 -135 -116 -58 -178 -95 -178 -105
0 -28 217 -107 251 -91 8 4 32 18 54 32 22 13 108 61 191 106 156 83 211 125
200 154 -6 16 -140 85 -166 85 -8 0 -51 -21 -95 -46z"/>
<path d="M6154 7152 c-6 -4 -14 -17 -18 -28 -12 -40 43 -71 72 -42 35 35 -13
98 -54 70z"/>
<path d="M978 7119 c-30 -17 -39 -45 -26 -74 15 -33 51 -42 83 -21 31 20 33
58 5 86 -22 22 -37 24 -62 9z"/>
<path d="M6363 6993 c-20 -4 -23 -11 -23 -53 0 -27 -4 -60 -10 -74 -9 -23 -15
-26 -62 -26 -95 0 -109 -12 -100 -81 4 -25 7 -27 74 -31 38 -3 74 -10 79 -15
6 -6 13 -42 16 -82 l6 -72 51 3 51 3 7 74 c4 44 12 77 20 82 7 5 43 9 80 9
l67 0 6 34 c13 65 8 70 -80 79 -43 4 -82 10 -85 13 -3 3 -6 33 -7 67 -1 34 -2
65 -3 70 0 7 -48 8 -87 0z"/>
<path d="M3924 6926 c-7 -18 -1 -242 6 -249 3 -3 17 -8 32 -12 20 -5 32 -1 48
15 19 19 21 28 15 64 -5 22 -9 68 -9 102 -1 35 -7 68 -15 77 -17 21 -70 22
-77 3z"/>
<path d="M494 6905 c-4 -8 -3 -26 0 -40 5 -18 13 -25 31 -25 21 0 25 5 25 28
0 21 -7 32 -25 40 -21 10 -27 9 -31 -3z"/>
<path d="M3136 6858 c-9 -12 -16 -26 -16 -30 0 -18 35 -38 66 -38 28 0 35 4
40 25 13 54 -59 88 -90 43z"/>
<path d="M2500 6820 c-40 -40 -19 -100 42 -115 19 -5 32 -1 47 14 27 27 27 61
0 95 -25 31 -61 34 -89 6z"/>
<path d="M3534 6756 c-10 -26 1 -51 23 -54 29 -4 73 25 73 49 0 16 -8 19 -45
19 -31 0 -47 -5 -51 -14z"/>
<path d="M2723 6745 c-39 -17 -53 -42 -53 -94 0 -34 4 -42 24 -47 36 -9 88 19
120 65 25 36 27 45 18 66 -13 29 -56 33 -109 10z"/>
<path d="M3074 6651 c-39 -24 -62 -93 -79 -236 -3 -27 -8 -62 -11 -77 l-6 -28
-139 0 -139 0 0 -55 0 -54 147 -3 148 -3 12 -90 c7 -49 20 -109 29 -132 32
-85 117 -126 215 -104 24 6 62 11 84 11 23 0 46 5 53 12 8 8 12 58 12 160 l0
148 140 0 140 0 0 56 0 57 -140 -6 -140 -5 -1 106 c-1 59 -4 132 -7 162 -7 51
-10 56 -45 74 -27 13 -69 20 -140 23 -90 4 -106 2 -133 -16z m207 -93 c13 -23
23 -506 12 -555 -6 -25 -30 -29 -92 -17 -56 11 -78 43 -86 120 -3 38 -12 83
-19 100 -15 33 -6 176 13 212 5 10 13 41 17 69 3 28 9 55 13 60 13 20 47 32
88 33 34 0 45 -5 54 -22z"/>
<path d="M3673 6579 c-29 -8 -33 -14 -33 -44 0 -43 25 -62 112 -80 35 -7 78
-21 95 -30 39 -19 67 -13 89 21 16 24 14 73 -4 101 -15 24 -207 47 -259 32z"/>
<path d="M6547 6563 c-10 -9 -8 -346 2 -361 6 -10 20 -11 57 -5 l49 9 0 172
c0 143 -3 174 -15 182 -17 11 -83 13 -93 3z"/>
<path d="M2537 6452 c-21 -23 -22 -66 -1 -86 34 -35 104 -8 104 40 0 55 -68
85 -103 46z"/>
<path d="M6606 6054 c-9 -8 -16 -26 -16 -38 0 -26 38 -66 63 -66 20 0 47 37
47 66 0 45 -62 70 -94 38z"/>
<path d="M5420 5825 l-25 -13 30 -8 c17 -4 95 -31 173 -60 157 -59 207 -67
209 -34 2 27 -64 65 -177 101 -97 31 -170 36 -210 14z"/>
<path d="M4877 5174 c-24 -49 -41 -268 -33 -424 7 -139 12 -170 32 -170 18 0
24 12 45 94 25 96 28 460 4 506 -20 39 -28 38 -48 -6z"/>
<path d="M7070 5140 c-54 -7 -82 -21 -109 -56 -38 -48 -21 -56 98 -49 101 6
158 -2 223 -29 11 -5 24 0 37 13 l21 21 1109 0 c1006 0 1111 -2 1141 -17 37
-18 83 -9 88 18 5 25 -46 78 -86 90 -26 7 -353 9 -1097 7 -995 -3 -1063 -4
-1109 -21 -47 -18 -50 -18 -115 1 -78 24 -140 31 -201 22z"/>
<path d="M3185 5111 c-8 -27 11 -61 36 -61 17 0 20 5 17 38 -2 29 -8 38 -25
40 -14 2 -23 -3 -28 -17z"/>
<path d="M3027 5013 c-4 -3 -7 -25 -7 -48 0 -71 50 -98 89 -49 25 32 26 52 5
82 -15 21 -71 31 -87 15z"/>
<path d="M506 4981 c-26 -28 -17 -72 17 -91 27 -14 29 -14 53 13 29 34 30 51
4 77 -25 25 -52 25 -74 1z"/>
<path d="M7085 4942 c-25 -5 -55 -31 -55 -47 0 -22 46 -55 76 -55 37 0 54 16
54 51 0 37 -33 60 -75 51z"/>
<path d="M2889 4879 c-25 -25 -24 -64 2 -90 28 -28 59 -21 82 19 17 30 18 34
4 56 -21 32 -64 39 -88 15z"/>
<path d="M7553 4870 c-20 -8 -23 -16 -23 -72 0 -63 0 -63 -39 -84 l-38 -21
-49 43 c-27 24 -54 43 -59 44 -14 0 -225 -212 -225 -226 0 -7 20 -38 45 -70
32 -41 45 -66 43 -84 -3 -24 -6 -25 -74 -28 -64 -3 -73 -5 -78 -25 -10 -38 -7
-287 4 -308 8 -14 22 -19 53 -19 23 0 53 -6 67 -13 39 -20 37 -52 -10 -118
l-42 -60 43 -55 c48 -62 156 -164 174 -164 6 0 22 12 36 26 13 14 36 34 50 45
27 19 27 19 73 -7 46 -26 46 -26 46 -80 0 -81 14 -87 191 -82 162 4 169 7 169
90 0 43 3 49 30 63 42 22 52 19 95 -25 21 -22 46 -40 53 -40 35 0 222 194 222
230 0 7 -16 34 -35 60 -34 47 -41 72 -29 104 5 12 21 16 69 16 51 0 64 3 70
18 14 33 18 265 6 310 l-12 43 -55 -2 c-30 -2 -58 2 -63 7 -21 21 -14 61 22
116 20 31 37 61 37 65 0 13 -215 233 -227 233 -6 0 -33 -20 -59 -43 -44 -40
-52 -43 -81 -35 -40 11 -45 18 -49 84 -2 30 -6 59 -9 64 -8 13 -311 12 -342 0z
m255 -156 l3 -62 46 -11 c25 -7 67 -23 94 -36 27 -14 53 -25 58 -25 6 0 25 20
43 44 l34 43 57 -63 58 -63 -41 -40 -42 -40 25 -63 c14 -35 29 -75 32 -90 7
-27 10 -28 66 -28 l59 0 0 -90 0 -90 -56 0 c-53 0 -55 -1 -66 -32 -7 -18 -24
-56 -38 -84 l-27 -50 33 -40 c19 -21 34 -45 34 -52 0 -7 -19 -36 -42 -63 l-43
-50 -40 46 -40 45 -80 -40 c-44 -22 -87 -40 -96 -40 -17 0 -29 -37 -29 -91 l0
-29 -85 0 -85 0 0 56 c0 54 -1 56 -32 67 -18 7 -67 29 -108 50 l-74 37 -47
-46 -46 -45 -37 49 c-20 27 -36 54 -36 59 0 5 18 26 39 47 l40 39 -28 56 c-16
31 -31 68 -35 84 -7 28 -13 30 -78 27 -45 -2 -50 10 -46 109 l3 71 60 0 60 0
23 68 c12 37 25 75 28 84 4 11 -9 33 -38 64 l-44 46 54 55 54 56 43 -43 44
-43 38 26 c21 14 63 32 93 40 l55 14 3 61 3 61 52 4 c29 2 68 3 87 3 l35 -1 3
-61z"/>
<path d="M7688 4528 c-79 -10 -158 -50 -208 -104 -49 -53 -69 -95 -86 -183
-11 -57 -10 -71 7 -125 37 -121 103 -194 215 -236 64 -23 130 -25 195 -6 134
41 206 118 243 259 24 94 -10 210 -85 292 -81 87 -165 118 -281 103z m127
-127 c56 -25 101 -81 121 -147 35 -120 -31 -237 -155 -279 -151 -50 -305 101
-270 265 29 137 180 218 304 161z"/>
<path d="M637 4819 c-113 -59 -111 -229 3 -286 55 -28 82 -29 137 -2 113 55
115 227 3 286 -53 28 -93 29 -143 2z m112 -105 c26 -33 27 -58 1 -84 -37 -37
-100 -14 -100 35 0 29 37 75 60 75 10 0 28 -12 39 -26z"/>
<path d="M6962 4768 c-18 -18 -14 -63 6 -81 52 -47 126 28 76 77 -18 19 -65
21 -82 4z"/>
<path d="M8427 4742 c-32 -35 -14 -92 28 -92 28 0 65 32 65 55 0 21 -36 55
-58 55 -11 0 -26 -8 -35 -18z"/>
<path d="M2601 4743 c-23 -5 -24 -6 -16 -91 4 -48 8 -246 10 -441 2 -236 7
-357 14 -364 13 -13 90 -12 102 0 5 5 4 177 -1 383 -6 206 -7 400 -4 431 9 80
-15 99 -105 82z"/>
<path d="M9499 4695 c-3 -2 -204 -6 -448 -7 l-443 -3 -19 -24 c-18 -22 -19
-42 -19 -300 l0 -277 29 -80 c27 -75 31 -80 79 -107 42 -23 65 -28 127 -30 64
-2 78 1 86 16 9 15 27 17 144 17 122 0 137 -2 155 -20 29 -29 104 -26 203 7
66 23 84 33 100 60 11 19 36 41 60 52 23 10 52 28 65 40 22 22 22 24 22 317
l0 295 -25 24 c-18 19 -35 25 -68 25 -24 0 -46 -2 -48 -5z m45 -123 c0 -17 -1
-129 -2 -248 l-2 -215 -27 3 c-18 2 -36 17 -58 48 l-32 45 -82 3 c-81 3 -82 3
-116 -31 -31 -31 -65 -114 -65 -158 0 -35 -25 -42 -127 -33 l-97 9 -12 70 c-6
39 -21 87 -33 107 -19 31 -29 38 -67 44 -57 8 -116 -1 -130 -21 -6 -8 -13 -15
-16 -15 -12 0 -18 151 -12 280 l7 140 421 3 c232 1 428 2 436 2 10 0 15 -10
14 -33z m-697 -459 c3 -16 7 -57 7 -93 l1 -65 -48 -6 c-46 -5 -50 -3 -78 29
-44 50 -55 78 -38 98 26 31 84 63 116 63 27 1 34 -3 40 -26z m547 -4 c28 -33
41 -71 33 -94 -8 -18 -92 -61 -140 -70 -33 -7 -37 -5 -43 19 -3 15 -4 51 -2
81 6 71 27 95 84 95 35 0 47 -5 68 -31z"/>
<path d="M8718 4490 c-21 -13 -23 -39 -5 -64 12 -16 41 -18 373 -21 361 -3
408 1 428 34 4 6 -11 19 -34 31 -39 20 -61 21 -393 26 -248 4 -357 2 -369 -6z"/>
<path d="M9055 4348 c-206 -9 -223 -12 -231 -44 -4 -14 -4 -28 -1 -31 9 -8
113 -4 252 10 116 12 120 13 133 40 8 16 12 29 10 30 -1 2 -75 -1 -163 -5z"/>
<path d="M2811 4654 c-26 -33 -27 -60 -2 -74 48 -25 101 1 101 51 0 54 -63 68
-99 23z"/>
<path d="M1020 4643 c-41 -14 -51 -62 -20 -93 37 -37 110 -15 110 32 0 36 -55
73 -90 61z"/>
<path d="M2359 4623 c-9 -2 -21 -15 -27 -28 -30 -66 62 -130 102 -73 19 27 21
72 4 85 -16 13 -58 21 -79 16z"/>
<path d="M559 4330 c-20 -10 -50 -35 -67 -55 l-32 -36 0 -411 0 -411 24 -42
c16 -27 42 -50 75 -69 l51 -27 828 3 829 3 48 30 c90 55 86 36 85 506 -1 462
4 435 -77 497 l-36 27 -846 2 c-816 2 -847 2 -882 -17z m1705 -105 l26 -17 0
-388 0 -387 -24 -26 -23 -25 -814 5 c-565 3 -818 8 -827 16 -7 6 -20 24 -29
41 -14 27 -15 73 -9 386 4 195 9 362 12 372 3 9 12 20 22 24 30 15 412 22
1033 19 553 -3 609 -5 633 -20z"/>
<path d="M655 4180 c-26 -29 -10 -74 28 -78 35 -4 56 35 39 73 -14 30 -42 32
-67 5z"/>
<path d="M820 4181 c-14 -28 -13 -56 4 -71 43 -35 99 28 61 70 -23 25 -51 26
-65 1z"/>
<path d="M990 4179 c-16 -28 -5 -66 21 -74 41 -13 78 52 47 83 -19 19 -56 14
-68 -9z"/>
<path d="M1960 4170 c-8 -14 -8 -26 0 -40 14 -25 46 -26 60 -1 13 25 13 27 -6
45 -21 22 -41 20 -54 -4z"/>
<path d="M2127 4174 c-23 -23 17 -82 48 -70 11 4 15 16 13 38 -2 27 -8 34 -28
36 -14 2 -29 0 -33 -4z"/>
<path d="M664 4030 c-20 -8 -23 -19 -29 -117 -11 -154 -1 -347 19 -377 l16
-25 757 3 758 3 14 29 c12 23 15 75 14 242 0 185 -3 216 -17 230 -15 16 -82
17 -764 19 -427 1 -756 -1 -768 -7z m337 -136 c42 -40 59 -76 59 -126 0 -58
-30 -104 -83 -128 -74 -34 -140 -20 -190 39 -22 26 -27 43 -27 85 0 135 151
216 241 130z m1028 4 c82 -66 93 -163 26 -231 -61 -61 -154 -60 -216 1 -48 49
-59 104 -31 159 50 97 149 129 221 71z m-423 -26 l51 -2 7 -86 c5 -61 4 -90
-5 -100 -10 -12 -51 -14 -238 -12 l-226 3 -3 88 c-2 49 1 94 7 100 8 11 215
15 407 9z"/>
<path d="M850 3810 c-29 -29 -26 -76 5 -96 22 -14 32 -15 65 -5 77 23 87 86
19 110 -46 16 -66 14 -89 -9z"/>
<path d="M1898 3820 c-47 -29 -45 -81 4 -106 23 -12 36 -13 61 -5 64 23 84 62
48 95 -24 21 -90 30 -113 16z"/>
<path d="M8472 3918 c-18 -18 -15 -53 6 -71 35 -32 72 -14 72 35 0 40 -51 63
-78 36z"/>
<path d="M8795 3710 c-343 -48 -532 -247 -561 -590 -4 -47 -11 -96 -16 -109
-11 -31 -124 -139 -253 -244 -55 -45 -141 -118 -190 -162 -255 -227 -339 -298
-434 -369 -63 -47 -111 -75 -120 -72 -126 40 -257 47 -370 21 -131 -31 -260
-126 -345 -254 -57 -85 -78 -134 -105 -243 -26 -106 -26 -139 -3 -168 17 -22
20 -22 49 -6 17 8 75 53 128 98 176 149 227 188 249 188 33 0 136 -112 202
-219 l57 -95 -33 -25 c-155 -118 -347 -276 -355 -293 -7 -17 -4 -25 19 -43 35
-28 67 -35 155 -35 79 0 155 18 269 65 201 82 286 176 327 362 10 43 22 94 26
113 7 28 30 53 110 120 277 233 412 350 613 529 120 108 255 225 300 260 l81
63 80 -6 c44 -3 114 -9 156 -12 175 -15 356 87 464 261 55 88 98 188 116 267
10 50 10 63 -5 103 -12 29 -24 45 -35 45 -10 0 -58 -28 -107 -63 -175 -123
-253 -176 -283 -191 -74 -39 -153 -3 -218 98 -98 152 -89 187 83 341 49 44
113 103 143 131 l54 51 -18 27 c-10 15 -30 33 -44 41 -33 17 -120 24 -186 15z"/>
<path d="M9379 3669 c-45 -27 -69 -66 -69 -115 0 -32 7 -45 48 -84 27 -25 69
-56 94 -69 l46 -22 57 20 c78 28 101 44 125 91 24 47 20 57 -37 112 -72 68
-110 88 -172 88 -38 0 -67 -7 -92 -21z m121 -134 c0 -8 -4 -15 -10 -15 -5 0
-10 7 -10 15 0 8 5 15 10 15 6 0 10 -7 10 -15z"/>
<path d="M2642 3643 c-42 -23 -109 -89 -129 -127 -20 -38 -13 -109 17 -170 24
-50 103 -121 146 -132 63 -16 174 48 208 120 25 52 35 123 24 162 -28 105
-185 191 -266 147z m109 -98 c42 -22 69 -71 69 -125 -1 -69 -45 -110 -118
-110 -37 0 -50 6 -78 34 -29 29 -34 41 -34 81 0 108 75 164 161 120z"/>
<path d="M2690 3472 c-51 -16 -66 -71 -26 -97 29 -20 82 -4 72 21 -3 9 -6 28
-6 44 0 29 -14 41 -40 32z"/>
<path d="M7037 3592 c-24 -26 -21 -65 7 -91 20 -19 27 -20 50 -10 33 15 44 54
25 88 -18 32 -59 39 -82 13z"/>
<path d="M7847 3373 c-3 -5 -6 -80 -8 -168 l-4 -160 50 0 50 0 7 45 c3 25 7
100 7 168 l1 122 -49 0 c-28 0 -52 -3 -54 -7z"/>
<path d="M3093 3340 c-17 -7 -23 -18 -23 -38 0 -60 72 -84 109 -36 26 33 26
39 1 64 -21 21 -51 24 -87 10z"/>
<path d="M7190 3329 c-41 -5 -172 -13 -289 -18 l-215 -9 -23 -26 c-12 -15 -30
-51 -38 -80 -12 -40 -22 -55 -37 -60 -33 -8 -18 -16 45 -22 56 -5 56 -5 70 28
30 69 39 72 352 83 83 3 180 8 217 11 l66 6 27 -61 c15 -33 36 -68 46 -77 11
-9 19 -22 19 -27 0 -7 -165 -8 -490 -4 -456 5 -583 13 -470 28 25 4 -25 6
-110 5 -180 -1 -170 6 -158 -125 3 -42 7 -201 7 -353 l1 -277 43 -5 c23 -3
259 -10 525 -15 561 -12 510 -20 636 99 60 57 79 84 107 146 24 55 35 72 39
59 9 -26 24 18 45 130 9 50 25 121 36 160 29 108 27 127 -21 148 -22 9 -44 17
-48 17 -4 0 -26 19 -49 43 -28 28 -50 64 -67 112 -14 38 -33 75 -43 82 -19 15
-107 15 -223 2z m-195 -363 c270 -2 493 -4 498 -5 13 -2 8 -40 -23 -169 -41
-173 -58 -229 -87 -282 -41 -79 -15 -75 -498 -71 -236 1 -459 6 -495 9 l-65 7
-3 265 -2 266 92 -8 c51 -5 314 -10 583 -12z"/>
<path d="M566 3072 c-17 -7 -41 -23 -54 -35 -54 -50 -52 -27 -52 -729 0 -397
4 -667 10 -687 11 -39 51 -86 92 -107 42 -22 2984 -22 3025 0 36 18 69 54 82
89 7 19 11 245 11 688 0 538 -3 666 -14 692 -16 37 -61 82 -93 92 -13 3 -687
7 -1499 8 -1195 2 -1483 0 -1508 -11z m259 -202 l0 -85 -112 -3 -113 -3 0 85
0 85 88 4 c152 6 137 15 137 -83z m287 80 l59 0 -3 -82 -3 -83 -105 0 -105 0
-3 74 c-4 101 -2 105 55 97 25 -3 72 -6 105 -6z m388 -80 c0 -77 -1 -81 -25
-90 -15 -6 -60 -7 -108 -2 l-82 7 -3 60 c-6 107 -8 105 113 105 l105 0 0 -80z
m328 56 c2 -10 1 -47 -3 -82 l-7 -64 -104 0 -104 0 0 85 0 86 107 -3 c97 -3
108 -5 111 -22z m332 -38 c0 -112 3 -108 -115 -108 -120 0 -119 -1 -109 102
l7 68 108 0 109 0 0 -62z m328 -20 l-3 -83 -107 -3 -108 -3 0 79 c0 43 3 82 7
85 3 4 53 7 110 7 l104 0 -3 -82z m332 -3 l0 -86 -107 3 c-124 3 -119 -1 -108
104 l7 64 104 0 104 0 0 -85z m332 58 c2 -38 -2 -136 -5 -140 -6 -6 -196 -5
-206 2 -12 7 -15 84 -5 134 l7 31 103 0 104 0 2 -27z m383 -58 l0 -80 -30 -6
c-48 -11 -191 -10 -219 1 -22 8 -26 16 -26 52 0 24 3 60 6 81 l7 38 131 -3
131 -3 0 -80z m-2497 -250 c2 -33 1 -74 -3 -91 l-6 -32 -81 -7 c-104 -9 -113
-1 -104 97 9 103 5 99 105 96 l86 -3 3 -60z m1270 -29 c2 -65 -1 -92 -10 -98
-7 -4 -55 -8 -105 -8 l-93 0 0 95 0 94 58 4 c31 2 77 3 102 3 l45 -1 3 -89z
m320 -3 c3 -109 7 -106 -123 -101 l-80 3 0 90 0 90 55 6 c30 3 75 6 100 5 l45
-1 3 -92z m326 81 c3 -9 6 -51 6 -94 l0 -78 -94 -7 c-52 -4 -99 -4 -105 -1 -7
4 -11 43 -11 96 l0 89 58 4 c132 8 140 7 146 -9z m-2210 -119 c8 -150 39 -275
57 -229 5 12 8 -7 8 -48 l1 -68 -109 0 -108 0 -7 38 c-8 48 -8 395 0 416 5 13
22 16 79 16 l72 0 7 -125z m594 33 l-3 -93 -95 0 -95 0 -3 93 -3 92 101 0 101
0 -3 -92z m322 3 c0 -105 4 -101 -115 -101 l-82 0 -6 30 c-4 16 -4 59 0 95 l6
65 98 0 99 0 0 -89z m324 62 c3 -16 2 -57 -2 -93 l-7 -65 -100 0 -100 0 -3 30
c-2 16 -1 58 3 92 l7 63 98 0 98 0 6 -27z m1296 -68 l0 -96 -102 3 -103 3 -3
93 -3 92 106 0 105 0 0 -95z m280 -127 c0 -123 -4 -229 -8 -236 -7 -9 -49 -12
-178 -10 l-169 3 -3 65 c-2 35 0 75 3 88 6 23 9 24 86 21 93 -4 99 0 99 76 0
28 3 87 7 133 l6 82 78 0 79 0 0 -222z m-2412 -155 l-3 -88 -89 -8 c-53 -5
-93 -4 -98 1 -14 14 -21 85 -14 136 l7 46 100 0 100 0 -3 -87z m327 7 c0 -112
1 -110 -104 -110 -104 0 -101 -4 -101 111 l0 80 103 -3 102 -3 0 -75z m319 58
c9 -35 7 -131 -4 -148 -9 -15 -123 -25 -167 -15 -28 6 -37 48 -28 126 l7 59
93 0 c88 0 93 -1 99 -22z m320 -15 c10 -64 7 -133 -6 -137 -7 -3 -48 -7 -91
-9 -101 -7 -107 -1 -107 104 l0 79 99 0 98 0 7 -37z m326 -52 c0 -72 -3 -90
-16 -95 -29 -11 -169 -7 -182 6 -7 7 -12 44 -12 95 l0 83 105 0 105 0 0 -89z
m323 44 c4 -25 4 -65 1 -90 -6 -43 -8 -44 -48 -50 -22 -4 -65 -5 -95 -3 -51 3
-55 5 -63 33 -5 17 -6 58 -3 93 l7 62 97 0 98 0 6 -45z m322 -45 l0 -85 -100
0 -100 0 -3 88 -3 88 103 -3 103 -3 0 -85z m-2107 -282 l3 -88 -196 0 -196 0
3 83 3 82 45 6 c25 3 110 5 190 5 l145 -1 3 -87z m322 2 l0 -90 -100 0 -100 0
0 85 0 84 58 4 c31 2 76 4 100 5 l42 2 0 -90z m330 1 l0 -88 -31 -7 c-17 -3
-60 -6 -95 -6 -61 0 -65 2 -75 27 -5 15 -9 54 -7 87 l3 61 40 6 c22 3 68 7
103 8 l62 1 0 -89z m315 -6 l0 -90 -95 0 -95 0 -3 87 -3 87 53 4 c29 2 73 3
98 3 l45 -1 0 -90z m333 6 c2 -61 -1 -87 -10 -92 -21 -14 -172 -11 -186 3 -7
7 -12 43 -12 89 l0 78 53 4 c28 2 75 3 102 3 l50 -1 3 -84z m310 83 c21 -6 22
-12 22 -89 0 -98 3 -95 -115 -95 -76 0 -85 2 -96 22 -12 22 -8 136 5 157 8 12
144 15 184 5z m320 0 c21 -6 22 -12 22 -90 0 -98 2 -97 -125 -92 l-80 3 -3 87
c-2 76 -1 87 15 91 27 7 145 8 171 1z m635 -86 c3 -46 4 -84 3 -85 -5 -5 -74
-7 -278 -5 l-218 2 0 85 0 85 244 0 243 0 6 -82z m-2748 -288 l0 -85 -89 -3
c-55 -2 -93 1 -100 8 -12 12 -13 140 -2 159 5 8 38 11 99 9 l92 -3 0 -85z
m344 73 c8 -16 16 -112 12 -151 -1 -10 -28 -12 -113 -10 l-113 3 -3 74 c-2 41
-1 80 2 88 4 10 31 13 105 13 85 0 102 -3 110 -17z m1479 1 c11 -9 13 -124 3
-143 l-12 -22 -637 3 c-470 2 -644 6 -664 15 -37 17 -59 53 -61 105 l-2 43 50
6 c48 5 1316 -1 1323 -7z m327 -73 c0 -82 -1 -85 -25 -91 -14 -4 -57 -4 -95
-1 l-70 6 -3 74 c-2 41 -1 80 2 88 4 11 27 13 98 11 l93 -3 0 -84z m309 58 c8
-40 8 -113 0 -133 -5 -13 -24 -16 -100 -16 l-94 0 0 90 0 90 94 0 94 0 6 -31z
m294 -56 l-3 -88 -92 -3 c-91 -3 -93 -2 -94 20 -2 50 3 143 7 150 3 5 46 8 95
8 l90 0 -3 -87z"/>
<path d="M5316 3058 c-26 -37 -20 -75 14 -93 41 -21 57 -19 85 11 31 33 31 54
2 82 -31 29 -81 29 -101 0z"/>
<path d="M4800 3050 c-30 -30 -30 -73 0 -104 24 -25 54 -14 74 28 20 43 20 60
0 80 -21 22 -50 20 -74 -4z"/>
<path d="M4319 3014 c-50 -15 -117 -55 -151 -91 -15 -15 -39 -55 -55 -88 -23
-50 -28 -73 -28 -140 1 -98 27 -156 104 -228 99 -93 206 -115 312 -66 239 113
273 404 65 559 -84 62 -161 79 -247 54z m150 -114 c103 -52 158 -186 117 -284
-31 -74 -122 -145 -186 -146 -37 0 -121 43 -157 81 -37 39 -63 105 -63 158 0
41 38 128 67 154 63 56 155 71 222 37z"/>
<path d="M4343 2788 c-32 -15 -56 -73 -49 -113 12 -64 96 -112 145 -82 42 25
47 40 33 103 -19 90 -65 123 -129 92z"/>
<path d="M3895 2996 c-14 -14 -25 -34 -25 -46 0 -53 85 -84 118 -42 17 23 15
66 -5 84 -34 30 -61 31 -88 4z"/>
<path d="M5005 2982 c-46 -29 -101 -95 -136 -163 -30 -61 -31 -62 -7 -55 12 4
43 10 68 13 58 7 83 31 114 109 30 74 32 99 10 108 -20 8 -14 9 -49 -12z"/>
<path d="M5625 2938 c-2 -7 -5 -43 -8 -79 -2 -37 -8 -72 -11 -78 -9 -14 -91
-14 -154 0 -61 15 -97 6 -118 -27 -20 -30 -9 -64 31 -90 25 -16 29 -16 83 7
61 25 96 28 208 15 68 -8 72 -8 88 15 23 33 23 210 0 233 -19 20 -113 22 -119
4z"/>
<path d="M5910 2901 c-5 -11 -10 -59 -10 -108 0 -121 26 -159 80 -115 21 17
23 27 22 103 -1 46 -1 87 -2 92 -1 15 -41 47 -60 47 -10 0 -24 -9 -30 -19z"/>
<path d="M9500 2751 l-25 -7 -3 -166 c-3 -190 0 -199 65 -189 l38 6 5 150 c3
83 9 157 13 166 14 29 -43 54 -93 40z"/>
<path d="M4950 2564 c-110 -73 -135 -123 -83 -164 33 -26 53 -23 70 10 20 40
83 193 80 196 -1 1 -31 -18 -67 -42z"/>
<path d="M3897 2522 c-22 -25 -21 -44 4 -76 24 -31 52 -33 79 -6 27 27 26 65
-2 84 -30 21 -61 20 -81 -2z"/>
<path d="M5638 2436 c-72 -24 -125 -57 -202 -127 -87 -79 -43 -73 -626 -79
-489 -5 -529 -4 -585 13 -200 61 -421 -96 -419 -298 1 -193 209 -337 404 -280
48 14 127 16 596 17 596 1 548 6 649 -70 74 -55 123 -77 219 -97 119 -24 245
0 349 67 120 77 200 252 125 272 -13 3 -84 6 -159 6 -128 0 -137 1 -156 23
-49 53 -56 105 -20 158 29 43 46 47 197 48 140 1 170 12 170 58 0 63 -90 185
-177 241 -99 63 -255 83 -365 48z m234 -106 c60 -23 168 -103 168 -125 0 -12
-18 -15 -97 -15 -75 0 -108 -5 -140 -19 -53 -24 -98 -86 -114 -155 -15 -69 4
-131 62 -201 37 -45 46 -51 93 -57 28 -3 85 -6 125 -7 l75 -1 -35 -36 c-46
-48 -139 -94 -210 -104 -142 -20 -299 73 -367 218 -23 48 -27 71 -27 142 0 75
4 93 32 152 31 66 107 159 147 180 93 50 202 60 288 28z m-1640 -201 c50 -25
66 -29 80 -20 12 8 167 11 517 11 553 0 501 7 487 -61 l-6 -27 -367 3 c-203 1
-424 0 -493 -4 l-125 -6 3 -55 c4 -69 20 -84 82 -75 25 3 216 10 425 15 209 4
396 11 416 15 40 8 36 12 69 -82 l19 -52 -477 -1 c-328 0 -493 3 -529 11 -49
11 -57 10 -111 -14 -107 -48 -202 -26 -269 62 -27 34 -33 52 -33 89 0 58 27
117 71 158 79 73 144 82 241 33z"/>
<path d="M4050 2054 c-36 -31 -60 -73 -60 -106 0 -66 89 -135 152 -118 56 16
91 60 96 125 4 52 3 56 -31 90 -30 30 -42 35 -80 35 -34 0 -53 -6 -77 -26z
m94 -97 c8 -21 6 -31 -5 -43 -30 -29 -68 11 -54 57 10 29 47 21 59 -14z"/>
<path d="M8745 2383 c-13 -13 -16 -27 -11 -60 8 -57 -5 -85 -47 -108 l-35 -18
-38 30 c-76 59 -68 61 -184 -43 -58 -52 -106 -103 -108 -113 -2 -10 17 -42 42
-71 48 -56 53 -71 36 -116 -10 -26 -12 -27 -70 -21 -52 6 -61 4 -70 -13 -15
-28 -13 -312 3 -333 8 -11 32 -18 69 -21 32 -2 62 -7 68 -11 22 -14 10 -67
-25 -108 -19 -22 -35 -48 -35 -57 0 -9 13 -35 29 -56 39 -54 156 -164 174
-164 8 0 37 18 63 40 55 46 66 48 111 20 29 -17 32 -24 35 -77 l3 -58 158 -3
c97 -1 165 2 177 8 16 9 20 21 20 65 0 53 1 55 38 74 l39 20 54 -55 c29 -30
56 -54 59 -54 11 0 158 139 191 181 l31 40 -31 59 c-22 41 -31 71 -29 93 l3
32 70 5 c70 5 70 5 82 40 16 47 15 265 -1 310 l-13 35 -69 0 -69 0 -3 43 c-2
33 4 55 27 96 17 29 31 59 31 66 0 14 -186 216 -207 224 -9 4 -36 -13 -70 -42
-56 -48 -71 -51 -110 -26 -20 12 -23 23 -23 73 0 89 -5 91 -193 91 -132 0
-158 -2 -172 -17z m265 -157 c0 -61 1 -64 27 -71 15 -3 53 -20 86 -36 32 -16
65 -29 73 -29 8 0 34 21 58 46 l44 46 39 -43 c21 -23 44 -48 51 -55 20 -21 14
-39 -28 -87 l-41 -46 24 -48 c14 -26 30 -67 37 -90 l13 -43 66 0 66 0 1 -90 2
-90 -68 0 -67 0 -18 -47 c-10 -27 -26 -63 -37 -81 l-20 -33 41 -44 c23 -25 41
-50 41 -57 0 -7 -22 -35 -47 -62 l-47 -49 -46 51 c-25 29 -48 52 -52 52 -4 0
-33 -16 -65 -35 -31 -19 -70 -37 -85 -40 -35 -8 -48 -31 -48 -85 l0 -41 -87 3
-88 3 -3 56 c-3 56 -4 57 -37 63 -18 4 -59 20 -91 36 -57 28 -58 29 -83 10
-14 -10 -37 -30 -50 -44 l-24 -25 -27 37 c-15 20 -34 43 -43 51 -25 20 -21 33
18 71 19 19 35 39 35 44 0 6 -14 46 -31 88 -34 82 -42 88 -111 88 l-38 0 0 86
0 87 60 -6 59 -5 16 56 c8 32 24 74 35 96 l20 38 -45 53 c-25 29 -45 56 -44
61 1 5 23 29 50 53 l49 44 45 -42 c24 -22 47 -41 50 -41 3 0 23 12 44 26 22
14 61 32 87 40 26 8 51 19 55 25 3 6 4 35 2 65 l-4 54 91 0 90 0 0 -64z"/>
<path d="M8782 1995 c-123 -62 -186 -166 -186 -310 -1 -124 71 -233 192 -292
48 -24 70 -28 138 -28 71 0 87 4 148 34 129 66 207 194 191 314 -26 187 -149
305 -330 315 -76 4 -83 2 -153 -33z m234 -96 c79 -38 135 -123 136 -204 1 -62
-42 -147 -92 -184 -112 -81 -272 -46 -329 73 -31 64 -35 105 -17 170 40 136
181 204 302 145z"/>
<path d="M9592 2268 c-24 -31 -24 -59 -1 -84 42 -44 102 -25 102 33 0 47 -74
84 -101 51z"/>
<path d="M7932 1828 c-29 -29 0 -88 45 -88 12 0 31 9 44 19 20 16 22 23 14 47
-9 25 -17 29 -50 32 -23 2 -46 -3 -53 -10z"/>
<path d="M7795 1580 c-52 -25 -108 -80 -131 -128 -26 -50 -26 -183 -1 -229 88
-163 318 -191 415 -52 34 50 62 126 62 168 0 58 -33 135 -78 179 -79 80 -183
104 -267 62z m149 -94 c106 -44 116 -217 17 -283 -42 -28 -80 -29 -131 -3
-100 51 -118 170 -36 249 49 48 96 60 150 37z"/>
<path d="M7846 1389 c-34 -27 -35 -71 -1 -104 35 -36 63 -32 81 10 18 45 18
80 -2 99 -21 22 -46 20 -78 -5z"/>
<path d="M3926 1504 c-19 -18 -21 -75 -4 -92 19 -19 34 -14 75 23 21 19 47 35
57 35 25 0 16 9 -14 15 -13 2 -30 11 -40 20 -21 19 -54 19 -74 -1z"/>
<path d="M4593 1509 c-35 -13 -38 -30 -7 -54 24 -19 33 -21 63 -13 48 13 57
23 37 43 -22 22 -67 34 -93 24z"/>
<path d="M5060 1492 c0 -23 29 -32 101 -32 73 0 89 6 89 36 0 2 -43 4 -95 4
-52 0 -95 -4 -95 -8z"/>
<path d="M4737 1484 c-19 -19 -6 -35 26 -32 39 4 45 32 7 36 -14 2 -29 0 -33
-4z"/>
<path d="M4248 1473 c6 -2 18 -2 25 0 6 3 1 5 -13 5 -14 0 -19 -2 -12 -5z"/>
<path d="M447 1322 c-39 -43 -5 -106 56 -105 196 1 741 17 771 22 49 8 67 32
43 59 -28 31 -171 42 -530 42 -301 0 -325 -1 -340 -18z"/>
<path d="M1389 1314 c-16 -18 -19 -26 -10 -42 26 -49 14 -49 1076 -39 735 6
1022 5 1116 -4 95 -8 131 -8 148 0 22 12 27 41 11 71 -9 16 -33 18 -292 25
-156 3 -676 7 -1156 9 l-873 2 -20 -22z"/>
<path d="M4795 1261 c-121 -6 -126 -6 -65 -13 96 -11 383 -18 749 -19 178 0
332 -5 342 -10 11 -5 28 -13 39 -19 28 -14 61 -12 79 4 9 7 29 18 45 23 49 15
41 30 -19 37 -57 6 -104 -10 -87 -30 4 -5 -4 0 -17 11 -22 19 -39 20 -480 21
-251 0 -514 -2 -586 -5z"/>
<path d="M8166 1184 c-38 -37 1 -122 48 -108 27 7 56 41 56 63 0 24 -41 61
-67 61 -12 0 -29 -7 -37 -16z"/>
</g>
</svg>
