<svg width="959" height="670" viewBox="0 0 959 670" fill="none" xmlns="http://www.w3.org/2000/svg">
<path d="M248.864 292.074C250.536 292.424 252.417 291.985 254.054 292.524C255.553 293.017 256.424 293.889 257.214 295.2C259.153 298.417 254.805 315.65 253.701 320.179C252.915 323.407 252.57 325.858 249.545 327.676C248.34 327.777 247.063 327.929 245.86 327.772C243.051 327.406 241.974 325.553 240.452 323.402C241.04 316.013 242.528 307.918 244.098 300.662C244.866 297.111 245.694 294.103 248.864 292.074Z" fill="black"/>
<path d="M153.163 314.816C153.288 314.795 153.412 314.743 153.538 314.754C154.851 314.871 156.098 315.407 157.13 316.208C161.573 319.657 173.211 334.694 173.591 340.221C173.693 341.71 173.352 343.355 172.126 344.341C170.267 345.835 168.388 345.571 166.295 345.104C165.681 345.018 164.881 345.214 164.262 345.293C158.935 339.055 152.541 332.686 148.026 325.87C146.743 323.934 145.63 322.109 146.308 319.711C146.913 317.569 148.518 316.701 150.288 315.606C151.149 315.594 151.584 315.495 152.406 315.154C152.662 315.048 152.911 314.928 153.163 314.816Z" fill="black"/>
<path d="M295.799 306.79L296.64 307.345C298.042 307.316 299.141 307.424 300.378 308.135C302.4 309.297 302.842 311.172 303.42 313.294C302.535 319.034 290.493 336.586 285.819 340.067C285.026 340.066 284.443 339.944 283.695 339.67C279.843 338.259 278.902 336.678 277.197 333.204C277.507 332.479 277.81 331.782 278.177 331.083C281.041 325.633 288.101 311.817 292.685 308.168C293.575 307.46 294.725 307.116 295.799 306.79Z" fill="black"/>
<path d="M333.207 333.035C335.224 333.25 337.107 333.701 338.758 334.954C340.007 335.901 340.576 337.101 340.64 338.647C340.734 340.908 339.241 343.355 337.788 344.964C334.881 348.181 319.035 360.4 315.638 360.625L314.499 360.857C312.99 359.657 309.865 358.161 309.188 356.398C308.638 354.965 308.687 352.679 309.422 351.316C311.468 347.525 328.978 334.582 333.207 333.035Z" fill="black"/>
<path d="M197.257 294.836C198.081 294.692 198.713 294.576 199.551 294.715C200.682 294.902 201.793 296.101 202.42 297.026C204.739 300.451 213.017 323.098 211.759 326.347C210.958 328.415 208.15 329.707 206.317 330.75C205.422 330.295 205.13 330.221 204.099 330.296C203.175 330.362 202.857 330.366 202.006 330.063C197.555 324.788 192.071 307.713 190.644 300.718L190.99 300.031C191.976 298.036 192.523 296.783 194.414 295.532C195.173 295.436 195.807 295.306 196.543 295.074C196.782 294.998 197.019 294.915 197.257 294.836Z" fill="black"/>
<path d="M162.736 451.369C154.116 433.962 151.358 419.304 157.869 400.347C163.599 383.663 176.426 370.642 192.173 363.077C213.317 352.919 239.404 351.379 261.511 359.269C277.364 364.927 290.159 375.275 297.305 390.733C298.857 394.091 300.212 397.75 301.093 401.344C307.369 401.058 315.491 401.231 320.453 405.58C320.75 405.839 321.034 406.112 321.305 406.399C321.575 406.686 321.83 406.986 322.07 407.299C322.31 407.612 322.534 407.936 322.742 408.271C322.949 408.606 323.14 408.951 323.313 409.306C323.486 409.66 323.64 410.022 323.777 410.392C323.914 410.762 324.032 411.138 324.131 411.52C324.23 411.901 324.31 412.287 324.37 412.677C324.43 413.066 324.471 413.458 324.492 413.852C324.741 418.524 322.357 422.754 319.2 426.023C318.081 427.196 316.9 428.302 315.655 429.341C316.33 430.64 317.649 432.636 317.779 434.09C317.936 435.86 316.878 437.531 317.528 439.285L318.303 439.384C319.176 437.893 318.593 434.123 320.438 433.595C321.972 433.156 349.49 439.29 353.552 440.044L460.702 460.839C466.092 461.937 471.64 462.348 477.03 463.474C478.778 463.84 480.086 464.415 481.565 465.401C482.809 468.573 481.55 474.35 480.452 477.53C479.227 478.165 476.812 477.282 475.424 476.939C466.949 474.844 458.197 473.316 449.58 471.908C446.713 471.44 443.4 471.617 440.665 470.759C440.481 470.701 440.299 470.635 440.114 470.582C433.732 468.762 426.429 468.651 419.841 467.303C410.749 465.36 401.627 463.571 392.475 461.936C388.689 461.266 384.835 460.955 381.063 460.234C365.989 457.354 350.881 454.197 335.896 450.887C329.591 449.494 322.341 449.243 316.647 446.047C316.375 445.894 316.097 445.75 315.827 445.594C315.664 445.5 315.507 445.397 315.347 445.299L317.66 441.322C313.512 443.802 311.581 448.159 306.394 450.748C299.508 454.185 290.509 453.226 284.994 456.373C282.162 457.989 279.493 460.634 277.059 462.808C293.799 468.63 308.529 482.145 316.254 497.982C322.127 510.024 325.479 525.245 323.035 538.62C322.318 542.543 320.576 546.262 319.745 550.196C317.86 553.692 316.277 557.309 314.101 560.647C312.565 563.001 308.722 565.802 308.052 568.309L308.582 568.537L310.417 570.867L310.361 571.238L307.496 568.623L306.713 568.812C306.326 569.873 306.55 569.824 306.973 570.807C306.356 570.702 306.007 570.531 305.455 570.254C303.106 571.734 297.849 574.265 297.025 576.926C296.779 577.72 296.982 578.23 297.382 578.956C297.962 580.007 299.427 581.217 300.275 582.094C298.339 580.734 296.519 579.315 294.721 577.777L293.35 578.053L293.12 578.783C294 580.147 294.979 581.156 296.151 582.274C294.632 582.074 292.81 580.508 291.51 579.668C291.408 580.666 291.615 581.416 291.801 582.402C290.905 581.842 290.72 581.423 290.186 580.537L289.107 580.49L288.807 581.272C289.298 582.022 289.884 582.483 289.796 583.399C287.893 582.746 285.956 581.87 283.976 582.752C282.112 583.583 280.582 585.033 278.715 585.906L277.31 585.228C277.014 585.395 276.722 585.57 276.422 585.728C272.458 587.812 266.365 588.231 261.905 588.9C258.391 589.455 254.868 589.941 251.335 590.36C247.802 590.779 244.263 591.13 240.716 591.413C237.17 591.696 233.62 591.91 230.065 592.056C226.511 592.202 222.955 592.28 219.398 592.289C215.84 592.298 212.284 592.239 208.729 592.111C205.174 591.984 201.622 591.788 198.074 591.523C194.527 591.259 190.986 590.927 187.451 590.526C183.916 590.125 180.39 589.657 176.873 589.121C171.944 588.398 165.931 588.116 161.251 586.405C160.417 586.1 159.634 585.685 158.872 585.236C158.566 585.274 158.262 585.32 157.956 585.35C156.122 585.529 153.781 584.836 152.187 583.94L151.59 584.294L151.135 583.755L150.229 582.906C148.13 582.74 146.085 581.823 144.113 581.119C140.341 578.678 135.432 577.665 131.409 575.537C114.499 566.591 104.251 556.669 94.414 540.453C87.071 526.341 84.078 512.67 82.651 496.954C82.357 493.716 81.571 489.995 82.561 486.846C82.638 486.601 82.728 486.36 82.812 486.117C82.541 484.941 82.761 484.995 81.722 484.208C80.4051 486.324 82.346 488.146 79.3292 490.604C75.653 493.6 69.4844 494.592 65.0453 496.284C45.7909 503.829 26.354 510.87 6.7347 517.407C4.0459 515.945 1.8997 514.924 0.927804 511.772C0.348504 509.893 0.711804 508.035 1.7575 506.397C2.6149 505.055 4.13771 503.476 5.54561 502.716C10.2294 500.188 18.3662 498.31 23.7029 496.361C36.3461 491.676 48.9575 486.907 61.5371 482.054C68.2286 479.492 75.3229 477.248 81.798 474.208C81.654 476.164 81.262 478.145 82.13 479.965C83.664 478.798 84.085 471.641 84.631 469.482C88.851 452.775 99.942 439.198 118.838 441.734C133.426 443.692 137.458 450.626 148.867 456.523C153.474 454.79 158.069 452.93 162.736 451.369Z" fill="black"/>
<path d="M300.488 436.09L301.762 436.117L302.054 436.726C301.135 438.185 299.238 439.222 297.768 440.066C292.601 443.035 284.938 442.296 279.343 440.842C276.908 440.009 274.476 439.163 272.049 438.304C282.098 439.576 290.703 438.595 300.488 436.09Z" fill="#FCFCFD"/>
<path d="M297.636 413.246C301.336 413.978 305.326 412.741 310.752 414.142C308.07 416.898 305.149 419.372 301.989 421.563C298.302 424.067 289.631 428.87 285.25 428.011C280.989 429.195 276.672 428.637 272.417 427.747C273.628 425.981 274.904 424.263 276.243 422.592C282.223 415.135 288.811 414.196 297.636 413.246Z" fill="#FCFCFD"/>
<path d="M228.569 369.346C228.876 369.356 229.182 369.38 229.489 369.375C241.914 369.19 253.471 370.953 264.517 376.985C274.65 382.519 281.859 391.268 285.123 402.344C284.932 402.403 284.739 402.456 284.548 402.519C274.646 405.788 265.704 413.425 261.022 422.767C258.377 428.046 257.102 434.341 259.141 440.041C261.252 445.941 265.537 448.405 270.904 450.824C266.757 454.622 260.106 456.092 256.751 460.569C254.449 463.642 256.995 463.564 257.257 466.048C256.462 466.384 256.059 466.574 255.4 467.158L255.921 467.891C260.165 468.604 262.871 473.724 263.299 473.705C263.886 473.679 263.841 472.718 264.749 472.888C266.86 473.284 269.727 475.265 271.672 476.288C282.86 482.177 292.344 488.196 299.31 499.063C307.821 512.339 310.341 525.525 306.602 540.807C304.199 550.627 295.816 559.159 287.5 564.351C282.824 567.27 277.481 569.887 272.207 571.509C244.681 579.976 197.94 578.445 169.884 572.063C158.934 569.568 147.738 566.457 137.602 561.548C120.313 553.175 108.122 537.817 101.94 519.795C96.636 504.333 94.542 480.111 102.328 465.083C104.304 461.27 108.484 456.784 112.794 455.663C116.551 454.686 125.825 459.036 128.998 461.192C130.522 462.227 134.339 465.228 134.724 467.032C131.497 468.571 127.12 467.365 123.542 468.378C123.311 468.444 123.084 468.523 122.853 468.59C120.427 469.291 119.44 470.099 117.789 472.023C118.165 472.934 119.428 475.252 119.041 476.061C118.942 476.268 118.823 476.465 118.714 476.668C119.232 477.192 119.287 477.29 119.963 477.754C125.01 481.22 145.147 478.299 151.49 477.372C161.47 475.915 182.599 472.875 188.407 464.413C188.974 463.588 190.333 461.344 190.122 460.325C189.814 458.844 186.501 455.912 185.351 454.716C181.397 450.607 177.688 446.571 174.83 441.584C172.636 437.753 171.116 432.814 170.295 428.475C168.019 416.445 171.383 403.977 178.267 393.975C184.831 384.439 192.165 379.429 202.614 374.837C204.973 373.801 207.623 372.336 210.171 371.914C216.331 370.893 222.31 369.572 228.569 369.346Z" fill="#FCFCFD"/>
<path d="M244.782 398.706C244.939 398.698 245.098 398.663 245.255 398.681C248.078 399.012 251.428 400.509 253.274 402.722C255.629 405.546 256.733 409.548 256.28 413.185C255.875 416.429 254.311 419.856 251.615 421.811C249.961 423.011 247.539 424.158 245.476 423.769L243.236 423.588C241.011 423.425 239.496 423.146 237.64 421.821C234.81 419.799 233.181 416.947 232.617 413.537C232.047 410.096 232.695 406.441 234.848 403.64C237.466 400.233 240.689 399.237 244.782 398.706Z" fill="black"/>
<path d="M129.045 497.132C140.799 495.946 153.056 500.184 164.524 502.469C167.846 503.131 171.963 503.321 175.115 504.448C176.989 505.117 178.277 507.076 179.106 508.772C179.205 510.286 178.406 511.243 177.606 512.428C176.916 513.45 175.934 514.903 174.621 515.152C172.448 515.564 169.423 514.768 167.234 514.455C158.077 513.145 137.899 507.795 129.871 509.582C127.745 510.055 125.564 511.155 124.444 513.104C123.191 515.285 123.342 517.827 123.952 520.182C126.609 530.451 135.137 538.179 144.007 543.279C149.274 546.139 156.776 548.414 162.725 549.017C165.581 549.306 169.067 548.875 171.781 549.772C173.177 550.234 174.338 551.112 174.883 552.515C175.342 553.695 175.244 555.431 174.648 556.521C173.559 558.506 171.223 559.378 169.135 559.832C157.634 562.337 140.531 556.65 130.97 550.407C121.571 544.27 113.106 534.333 110.965 523.041C109.834 517.072 110.869 510.054 114.449 505.056C118.125 499.925 123.086 498.069 129.045 497.132Z" fill="black"/>
<path d="M759.063 0.436981C760.896 0.543981 762.687 0.42897 764.517 0.31897C772.042 4.74997 777.366 12.829 781.222 20.47C786.599 31.124 792.653 46.905 788.674 58.88C798.908 60.788 807.868 64.529 815.838 71.34C845.345 96.556 847.069 141.821 837.591 176.763C835.562 184.241 828.666 200.289 828.445 206.287C828.314 209.837 832.656 215.087 834.003 218.711C834.713 220.619 835.285 222.568 835.719 224.557C836.152 226.546 836.443 228.555 836.591 230.586C837.757 245.795 832.391 261.433 820.006 270.82C816.013 273.847 811.082 275.845 807.338 279.154C805.319 280.939 803.593 283.289 801.83 285.334C797.323 290.565 786.476 302.552 779.025 302.399C776.714 302.351 775.688 300.981 774.229 299.416C770.948 302.091 767.381 304.254 764.516 307.424C770.99 313.699 778.089 319.093 783.543 326.372C785.959 329.596 793.626 343.781 796.131 344.945C798.375 345.987 809.233 347.018 812.497 347.547C835.037 351.203 870.609 357.01 886.345 374.345C907.201 397.32 896.298 442.357 892.594 469.993C890.225 487.675 888.259 505.465 885.543 523.095C884.411 530.438 882.242 537.718 881.939 545.165C881.93 545.377 881.926 545.59 881.919 545.803C899.229 550.689 917.611 553.314 935.282 556.84C940.94 557.969 950.142 558.885 955.151 561.445C956.721 562.248 958.098 563.491 958.519 565.268C958.981 567.217 958.38 569.945 957.271 571.59C956.185 573.201 954.469 574.015 952.589 574.286C951.01 574.514 949.298 574.333 947.73 574.086C943.031 573.347 938.435 571.805 933.766 570.876C924.795 569.091 915.433 568.087 906.542 565.886C905.696 565.677 905.276 565.426 904.588 564.886C904.4 564.738 904.223 564.577 904.04 564.423C902.586 564.652 900.785 564.999 899.327 564.728C897.492 564.386 895.963 562.931 894.113 562.63C892.451 562.359 890.749 562.503 889.066 562.214C874.406 559.697 859.834 556.301 845.249 553.378C840.617 552.45 835.907 551.972 831.264 551.12C816.043 548.32 800.842 545.415 785.661 542.406C771.279 539.501 756.882 536.894 742.469 534.181C735.062 532.787 727.693 530.881 720.193 530.068C708.892 528.844 710.283 529.985 701.8 536.785C713.684 539.224 732.478 542.445 743.536 546.185C745.955 547.003 748.805 547.967 749.938 550.454C750.668 552.055 750.817 553.788 750.072 555.419C749.04 557.677 704.012 584.964 700.367 585.563C696.618 586.179 692.677 584.169 689.678 582.169C689.179 582.561 688.678 582.949 688.173 583.333C684.617 586.038 681.495 587.833 676.911 587.189C665.698 585.614 655.014 582.223 644.023 579.679L563.995 560.781C558.436 559.451 552.778 558.539 547.22 557.204C542.353 556.035 537.594 554.384 532.7 553.344C525.567 551.828 517.802 551.103 510.974 548.521C507.522 547.215 505.486 544.939 503.326 542.088C503.507 541.129 503.699 540.173 503.904 539.219C506.351 527.233 516.993 528.822 524.468 523.209C528.082 520.496 530.579 516.447 534.177 513.645C538.848 510.009 549.541 502.047 555.844 502.96C573.772 505.555 591.741 510.929 609.435 514.882C612.395 515.543 615.395 516.392 618.404 516.765C619.097 516.85 622.104 516.86 622.542 517.129C623.063 517.449 623.03 518.325 623.535 518.669C623.703 518.784 631.178 519.254 632.645 519.722C633.738 520.071 634.037 520.241 635.202 520.125C635.29 519.963 635.402 519.812 635.465 519.639C635.828 518.642 635.323 510.148 634.557 509.004C634.056 508.255 633.163 507.826 632.314 507.588C630.539 507.089 628.543 507.084 626.724 506.693C619.558 505.153 612.5 503.492 605.268 502.124C596.112 500.393 587.081 498.122 577.912 496.362C569.181 494.685 560.19 493.518 551.544 491.563L551.014 491.44C541.606 500.914 535.301 500.768 522.789 501.17L524.188 507.363C517.618 515.286 510.654 515.749 502.125 520.062C501.964 520.81 501.781 521.552 501.62 522.299C501.409 523.28 501.258 524.321 500.799 525.227C498.839 529.089 484.349 539.427 479.968 539.88C472.726 540.628 436.672 530.692 426.816 528.478C419.168 526.76 411.377 525.655 403.786 523.678C401.565 523.099 399.083 522.522 397.178 521.2C394.926 519.638 394.115 518.079 393.624 515.422C393.593 515.251 393.565 515.08 393.535 514.909L392.892 514.684C388.731 516.252 383.575 519.404 380.382 522.479C413.938 528.722 447.285 537.389 480.443 545.469C507.194 551.987 534.214 558.012 561.088 563.974C571.459 566.275 581.677 569.31 592.078 571.464C593.759 571.812 602.434 572.882 603.433 573.557C604.605 574.35 604.029 574.864 605.68 575.088C606.108 574.077 605.837 574.502 606.433 573.777C608.599 574.863 610.997 576.318 613.32 576.983C615.87 577.714 618.708 577.328 621.304 577.979C635.091 581.435 648.923 584.6 662.757 587.884C672.429 590.179 681.92 592.883 691.764 594.396C705.36 589.138 758.949 550.458 766.675 552.412C773.351 554.099 770.412 558.867 772.805 562.411C773.144 562.913 773.524 563.375 773.852 563.899L772.795 564.156L772.749 565.499C773.353 566.559 773.856 567.543 774.296 568.688C773.659 568.369 773.92 568.536 773.31 568.066C773.16 567.951 773.013 567.832 772.864 567.715C772.66 569.068 772.701 570.445 772.467 571.786C771.82 575.484 769.371 578.603 766.445 580.799L765.211 580.583L764.407 581.265L764.76 582.151L764.468 582.67C763.665 581.843 764.109 582.137 763.181 581.723C761.119 583.239 763.063 582.609 762.706 584.623C761.499 583.788 761.357 583.518 759.917 583.568C758.556 585.019 760.372 585.411 759.566 586.931C758.927 586.149 758.248 585.469 757.516 584.773C757.438 585.849 757.581 586.241 756.919 587.129L755.479 586.425L755.011 586.68L755.333 589.461C754.632 589.392 754.164 588.08 753.265 587.608L752.679 588.172L753.19 590.114L752.662 590.241C752.367 589.431 752.312 589.178 751.644 588.595L751.023 590.43C750.68 590.489 750.339 590.556 749.995 590.609C748.944 590.773 747.906 590.857 746.913 591.276C744.773 592.179 743.699 593.56 742.862 595.673C742.803 595.819 742.75 595.967 742.694 596.115C741.931 595.105 742.411 595.477 741.26 594.99C736.549 596.315 730.691 600.796 727.145 604.195C727.003 604.332 726.863 604.472 726.721 604.61L725.641 604.046L725.675 604.087C722.488 606.376 718.903 608.027 715.502 609.97C711.063 612.507 706.71 615.3 702.187 617.678C698.58 619.573 692.735 619.872 688.789 619.457C673.923 617.893 654.154 611.673 639.093 608.243C627.899 605.693 616.686 603.302 605.519 600.62C602.356 599.86 598.896 599.563 595.853 598.568C594.095 597.994 592.087 597.707 590.421 596.956C589.69 596.626 589.435 596.787 588.643 596.895C585.948 596.737 577.717 594.029 574.359 593.244C559.114 589.678 543.809 586.425 528.577 582.783C523.652 581.606 516.939 580.761 512.434 578.481C510.193 577.347 507.76 578.4 505.339 577.671L504.955 576.516C502.511 577.808 501.028 575.27 498.528 575.498C492.346 576.063 491.607 571.522 483.29 573.868L481.831 572.264C478.919 573.508 476.618 577.405 473.953 579.309C470.173 582.011 465.391 583.892 461.143 585.751C449.007 591.063 435.733 592.36 423.739 597.534C421.487 598.506 417.353 600.812 416.4 603.18C417.772 605.63 420.751 606.364 423.322 606.756C433.586 608.324 445.266 606.543 455.633 605.915C466.727 605.243 478.104 605.208 489.176 606.302C509.788 608.339 532.905 615.14 548.976 628.59C558.599 636.644 566.963 645.047 578.555 650.412C599.959 660.319 627.898 661.561 649.761 652.458C660.198 648.112 669.61 642.059 680.351 638.211C704.325 629.624 731.273 625.582 756.651 628.18C761.053 628.631 765.692 628.731 769.738 630.625C775.51 619.674 784.985 613.203 795.93 607.951C807.383 602.454 820.674 598.602 833.42 598.119C835.796 598.029 838.072 598.562 840.408 598.51C843.245 598.446 846.446 597.718 849.155 598.701C852.046 599.75 855.191 600.141 858.185 600.849C865.648 602.612 873.207 605.673 879.472 610.148C887.68 616.009 895.28 626.598 896.685 636.755C897.432 642.151 893.798 645.907 890.788 649.925L889.719 649.432L889.011 649.834L889.332 651.282L888.717 652.044C888.573 651.963 887.496 651.334 887.341 651.347C885.975 651.462 882.474 653.911 881.012 654.551C878.301 655.737 875.196 656.369 872.319 657.06C847.92 662.923 799.601 673.554 777.221 659.228C773.626 656.927 768.295 651.54 767.723 647.104C767.468 645.121 767.8 642.827 767.237 640.922C766.914 639.828 766.702 639.789 765.745 639.346C760.721 640.3 754.927 638.509 749.728 638.332C737.312 637.91 724.52 638.504 712.291 640.688C709.088 641.249 705.91 641.927 702.757 642.722C699.604 643.518 696.484 644.429 693.398 645.455C690.313 646.482 687.269 647.621 684.268 648.872C681.266 650.123 678.315 651.484 675.414 652.953C667.363 656.968 659.504 661.522 650.99 664.505C637.54 669.217 624.205 670.097 610.14 669.462C608.221 669.375 606.289 669.716 604.364 669.628C603.244 669.577 602.624 668.937 601.599 668.75C599.97 668.453 598.29 668.803 596.691 668.272C595.749 667.959 596.217 668.05 595.312 667.941C577.787 665.84 563.129 656.724 549.867 645.702C545.03 641.682 540.329 637.293 535.141 633.733C532.792 632.147 530.375 630.671 527.892 629.304C525.409 627.937 522.869 626.686 520.272 625.549C517.675 624.412 515.033 623.396 512.344 622.499C509.655 621.602 506.931 620.829 504.172 620.18C492.595 617.407 480.972 616.434 469.102 616.381C454.355 616.315 418.764 622.622 407.94 612.619C405.674 610.524 404.63 607.764 404.672 604.706C404.925 586.354 437.598 582.689 451.22 577.897C457.324 575.75 462.799 573.18 467.58 568.745C464.178 567.346 461.009 566.463 457.323 566.406C457.127 566.403 456.932 566.406 456.737 566.407C456.518 565.174 456.682 565.737 456.284 564.706C455.117 565.603 455.087 565.881 453.646 565.755L453.419 564.505L452.796 564.191L451.909 565.219C450.511 565.432 448.975 563.922 447.794 563.105C447.133 563.162 446.468 563.198 445.809 563.26C442.114 563.605 437.052 561.288 433.38 560.36C423.368 557.828 413.076 555.975 402.988 553.708C398.395 552.675 392.527 550.453 387.933 550.339C387.054 550.317 386.547 550.321 385.795 549.805C385.588 549.663 385.394 549.504 385.194 549.353C381.944 549.523 376.571 548.177 373.76 546.607C371.041 545.089 369.282 542.803 368.447 539.815C367.078 534.921 367.168 522.461 369.847 518.238C371.442 515.724 373.802 513.723 376.195 511.995C383.418 506.778 391.823 502.611 399.517 498.085C410.445 491.658 421.555 484.4 433.015 478.976C435.665 477.722 438.489 476.667 441.376 476.118C446.904 475.069 450.868 476.241 455.376 479.399C455.806 479.701 457.151 480.894 457.603 480.99C459.173 481.321 461.756 480.867 463.451 480.913C469.638 481.082 478.839 482.249 483.989 485.909C484.126 486.006 484.26 486.108 484.395 486.207C483.497 481.653 481.758 476.404 482.829 471.814C485.025 462.401 488.894 454.322 496.776 448.312C505.681 441.523 516.86 439.975 527.765 440.38C530.959 440.499 534.904 441.211 537.98 440.391C540.808 439.637 543.822 437.238 546.288 435.663C557.179 428.705 563.062 428.514 575.383 430.253C577.866 427.219 578.76 417.091 579.79 412.909C583.519 397.994 587.966 383.297 593.13 368.817C599.783 350.676 608.061 334.369 619.711 318.932C601.313 314.347 582.71 309.575 567.718 297.274C553.92 285.953 545.962 270.138 544.365 252.455C543.681 244.879 544.135 237.503 546.265 230.172C547.146 227.137 548.669 223.722 548.979 220.597C549.348 216.881 548.79 212.677 548.719 208.922C548.499 197.328 547.875 176.143 550.737 165.783C551.915 161.522 553.561 158.345 556.395 154.956C549.958 156.486 544.993 157.053 538.926 154.084L536.97 148.783C538.561 139.65 542.422 130.171 546.859 122.066C549.14 117.941 551.687 113.987 554.5 110.204C556.163 107.942 559.663 104.95 560.661 102.431C560.808 102.06 560.693 101.634 560.709 101.236C556.893 98.605 550.567 102.335 543.508 95.726C543.122 93.745 542.556 91.591 542.468 89.579C542.267 84.965 562.656 67.407 566.814 64.139C572.369 59.772 578.799 56.229 583.828 51.262L584.377 50.711C579.4 49.501 573.281 48.51 569.795 44.349C568.799 43.159 568.238 41.717 568.493 40.142C568.754 38.527 569.648 37.327 570.956 36.416C571.532 36.0186 572.139 35.676 572.777 35.388C573.414 35.1 574.073 34.8713 574.752 34.702C577.892 33.924 581.273 34.378 584.471 33.98C589.531 33.352 594.88 31.781 599.824 30.463C618.094 25.591 635.408 17.88 653.448 12.431C674.256 6.14597 699.002 3.88996 720.449 8.21896C738.977 11.958 758.168 20.056 768.956 36.282C768.482 34.4493 767.905 32.6496 767.225 30.883C766.546 29.1163 765.768 27.394 764.891 25.716C761.967 20.106 755.959 12.999 755.747 6.57098C755.656 3.82898 757.267 2.28398 759.063 0.436981Z" fill="black"/>
<path d="M467.405 523.584C471.195 523.225 477.139 524.442 480.701 525.781C481.66 526.141 481.632 526.072 482.053 527.063L480.79 527.921C479.899 528.29 478.871 528.77 477.915 528.912C474.672 529.392 468.439 528.704 465.71 526.713C465.794 525.183 466.455 524.752 467.405 523.584Z" fill="#FCFCFD"/>
<path d="M524.606 535.38C526.346 535.403 531.518 537.954 533.778 538.565C533.147 539.41 532.486 540.417 531.713 541.132C530.613 542.15 528.614 541.698 527.237 541.57C524.089 540.86 519.58 540.026 516.903 538.254L517.228 537.439C518.391 536.352 520.25 535.701 521.857 535.793C522.768 535.846 523.117 536.022 524.03 535.663C524.229 535.584 524.414 535.474 524.606 535.38Z" fill="#FCFCFD"/>
<path d="M450.471 504.876C453.165 505.083 460.997 507.23 461.849 507.139C462.821 507.036 463.2 506.944 464.145 507.385L464.353 508.142L460.97 511.366C457.217 510.026 449.437 510.432 447.021 507.321C447.725 505.909 449.115 505.505 450.471 504.876Z" fill="#FCFCFD"/>
<path d="M477.893 511.589C481.653 512.412 489.075 513.195 491.838 515.75L491.28 516.859C490.49 517.187 490.224 517.366 489.675 518.066C489.522 518.26 489.386 518.466 489.242 518.666L488.384 518.658C483.354 517.297 478.302 516.026 473.227 514.843C474.68 513.512 476.197 512.583 477.893 511.589Z" fill="#FCFCFD"/>
<path d="M630.269 530.915C630.629 530.905 631.151 530.873 631.53 530.916C634.392 531.244 640.351 533.493 642.141 535.675L641.975 536.738C640.91 537.407 640.128 537.613 638.892 537.822C635.335 537.19 629.101 537.384 626.286 535.152L626.179 534.214C627.157 532.594 628.683 531.873 630.269 530.915Z" fill="#FCFCFD"/>
<path d="M634.738 562.087C638.652 562.411 646.342 563.266 649.145 565.964C649.738 566.535 649.532 566.926 649.534 567.683L647.904 569.319C643.285 568.752 638.448 567.848 633.926 566.746C632.948 566.508 632.63 566.677 632.111 565.827C632.557 564.316 633.719 563.245 634.738 562.087Z" fill="#FCFCFD"/>
<path d="M410.742 508.874C415.125 510.367 421.92 510.608 425.541 513.312C424.28 514.171 423.249 515.033 422.209 516.154L421.899 516.494C417.844 515.475 413.285 515.627 409.385 514.283C408.149 513.857 407.687 513.505 407.136 512.348C407.742 510.618 409.298 509.859 410.742 508.874Z" fill="#FCFCFD"/>
<path d="M659.213 554.138C661.996 554.094 664.642 554.593 667.358 555.153C669.928 555.683 673.368 556.178 674.864 558.462C674.233 559.985 673.579 560.076 672.177 560.877C667.276 561.083 661.564 559.296 656.746 558.324C657.468 556.868 658.351 555.514 659.213 554.138Z" fill="#FCFCFD"/>
<path d="M438.936 516.015C439.241 516.023 439.547 516.018 439.852 516.039C443.409 516.291 451.81 517.392 454.226 520.07L454.165 521.003L452.244 522.352C452.21 522.402 452.192 522.468 452.142 522.501C450.011 523.891 437.711 520.58 434.787 519.965L438.936 516.015Z" fill="#FCFCFD"/>
<path d="M663.26 569.387C667.21 569.907 671.36 570.34 675.182 571.485C676.743 571.953 678.049 572.441 678.881 573.937C678.21 575.346 677.294 575.639 675.987 576.452C671.028 576.72 664.317 574.248 659.422 573.065C660.597 571.737 661.947 570.576 663.26 569.387Z" fill="#FCFCFD"/>
<path d="M605.678 554.885C609.59 555.723 615.023 556.259 618.5 558.21C619.722 558.896 620.1 559.259 620.449 560.601C619.829 562.011 618.655 562.553 617.402 563.325C614.443 560.944 609.671 561.314 605.964 560.324C604.467 559.924 603.612 559.514 602.852 558.159C603.268 556.554 604.44 555.858 605.678 554.885Z" fill="#FCFCFD"/>
<path d="M631.003 546.258C631.705 546.507 632.376 546.717 633.116 546.822C638.114 547.53 642.733 549.11 647.45 550.859C646.25 551.928 644.932 552.892 643.665 553.883C638.115 553.379 632.25 551.739 626.726 550.771C628.017 549.112 629.493 547.712 631.003 546.258Z" fill="#FCFCFD"/>
<path d="M546.972 541.511C552.816 541.444 557.847 543.446 563.217 545.455C561.821 546.661 560.315 547.746 558.845 548.86C554.801 547.877 549.396 547.682 545.725 545.848C544.679 545.326 544.575 545.175 544.2 544.136C544.96 542.677 545.62 542.403 546.972 541.511Z" fill="#FCFCFD"/>
<path d="M656.51 538.368C661.304 538.93 667.097 539.739 671.502 541.77C672.884 542.407 673.212 542.832 673.802 544.208L673.103 545.711C666.903 545.752 659.998 543.801 653.927 542.5L653.548 541.841C654.211 540.243 655.206 539.467 656.51 538.368Z" fill="#FCFCFD"/>
<path d="M574.947 548.397C581.39 548.461 586.25 549.905 592.031 552.639C591.17 553.698 590.04 554.691 589.079 555.671C587.535 556.318 574.6 552.879 572.123 552.335L574.947 548.397Z" fill="#FCFCFD"/>
<path d="M570.812 532.444C574.766 532.422 583.047 533.017 585.952 535.768C586.559 536.343 586.391 536.578 586.422 537.34L584.744 539.12C578.801 539.217 573.021 537.612 567.15 536.807C568.249 535.247 569.538 533.861 570.812 532.444Z" fill="#FCFCFD"/>
<path d="M540.714 524.823C542.687 525.507 544.868 525.548 546.913 526.033C550.805 526.955 554.556 528.305 558.317 529.648L553.799 532.409C548.908 532.928 540.915 529.702 535.519 529.208C537.141 527.59 538.906 526.221 540.714 524.823Z" fill="#FCFCFD"/>
<path d="M600.15 539.468C606.204 539.313 612.62 541.491 618.224 543.58C616.814 544.731 615.276 545.736 613.78 546.772C608.067 546.516 602.573 544.64 596.924 543.73C597.899 542.225 599.023 540.86 600.15 539.468Z" fill="#FCFCFD"/>
<path d="M598.558 523.364C601.769 523.513 605.624 524.7 608.796 525.471C611.239 526.064 614.053 526.687 615.428 528.927C614.695 530.279 613.91 530.426 612.562 531.114C609.472 531.022 596.43 528.843 594.533 527.072C595.433 525.521 597.15 524.45 598.558 523.364Z" fill="#FCFCFD"/>
<path d="M463.333 492.116C468.631 491.533 473.981 493.471 478.883 495.198C477.055 496.963 475.35 498.683 473.174 500.027C467.86 500.296 462.043 498.144 456.948 496.732C459.17 495.329 461.237 493.698 463.333 492.116Z" fill="#FCFCFD"/>
<path d="M493.131 500.118C497.134 500.728 506.516 501.828 509.399 504.584L509.15 505.468C507.636 506.57 506.122 507.15 504.375 507.803C498.999 508.978 491.731 505.926 486.377 504.641C488.479 502.591 490.467 501.357 493.131 500.118Z" fill="#FCFCFD"/>
<path d="M706.741 486.414C707.999 486.531 709.336 486.606 710.572 486.859C713.398 487.437 716.461 490.65 718.073 492.931C723.105 500.049 723.498 507.524 722.159 515.788L721.53 516.145C720.464 516.129 718.896 515.882 718.332 514.854C717.475 513.294 717.52 510.872 717.352 509.086C716.483 499.847 713.544 492.863 706.741 486.414Z" fill="#FCFCFD"/>
<path d="M553.824 513.471C554.482 513.351 555.115 513.294 555.786 513.332C559.34 513.532 582.932 518.863 584.962 521.002C584.446 522.082 583.199 522.392 582.147 522.927C577.261 524.921 554.112 518.399 548.274 516.598C550.059 515.446 551.954 514.478 553.824 513.471Z" fill="#FCFCFD"/>
<path d="M648.217 321.273C648.827 322.124 649.366 322.508 650.26 323.045L650.519 322.049L650.615 322.533L650.893 321.726C653.23 322.872 655.094 323.408 657.704 323.481L657.497 323.331C658.622 323.732 659.664 324.178 660.881 324.121C661.089 324.111 661.293 324.065 661.499 324.036C660.932 326.207 658.596 328.86 657.332 330.754C655.07 334.616 652.64 338.328 649.795 341.785C648.507 337.063 645.642 332.128 645.407 327.268C645.285 324.738 646.664 323.102 648.217 321.273Z" fill="#FCFCFD"/>
<path d="M435.94 489.574C438.28 491.935 439.411 495.344 440.642 498.367C437.915 500.438 435.454 502.412 433.46 505.232L424.915 502.99L416.635 501.392C423.016 497.825 430.043 493.833 435.94 489.574Z" fill="#FCFCFD"/>
<path d="M672.288 332.306C672.397 332.401 672.505 332.497 672.615 332.591L673.17 333.054C681.575 340.18 686.926 334.948 691.742 337.501C692.885 336.823 694.048 336.241 694.815 335.121C694.965 334.902 695.057 334.631 695.262 334.46C696.077 333.781 696.909 334.294 697.8 334.504C698.155 335.213 698.135 334.862 697.945 335.55C697.262 336.132 696.704 336.606 696.157 337.324C696.634 338.349 696.564 337.828 696.426 338.878L694.616 340.216L694.482 340.305L694.032 341.157C691.76 342.187 692.287 344.019 688.948 344.812C685.047 345.739 679.329 345.288 675.876 343.107C673.125 341.369 672.118 339.083 671.383 336.033C671.913 335.014 672.337 334.291 672.319 333.118C672.314 332.847 672.298 332.577 672.288 332.306Z" fill="#FCFCFD"/>
<path d="M687.877 561.314C688.58 561.276 689.286 561.257 689.988 561.213C696.975 560.778 706.091 563.704 712.598 566.18L705.694 571.016C702.99 572.58 700.289 573.824 697.397 575.004C693.205 571.266 690.399 567.285 685.321 564.566C686.131 563.451 687.015 562.39 687.877 561.314Z" fill="#FCFCFD"/>
<path d="M813.099 506.334C814.087 509.994 815.491 529.945 813.964 533.418C810.113 532.569 806.19 531.432 802.252 531.216L800.986 531.348C799.391 529.215 797.424 530.639 795.873 529.018C802.048 522.547 810.172 514.945 813.099 506.334Z" fill="#FCFCFD"/>
<path d="M690.672 545.154C693.347 545.861 696.32 546.15 699.059 546.724C710.105 549.039 721.319 550.976 732.247 553.789C729.914 555.04 727.701 556.591 725.469 558.018C724.584 558.546 722.559 559.647 721.554 559.515C719.458 559.242 717.887 557.179 715.784 556.596C708.577 554.599 693.986 551.119 686.54 550.539C685.491 550.457 685.998 550.67 685.144 549.806C685.962 547.425 688.575 546.319 690.672 545.154Z" fill="#FCFCFD"/>
<path d="M687.34 603.001C690.556 603.288 693.06 603.994 696.235 602.84C707.386 598.789 724.587 586.393 735.379 579.855C742.236 575.701 756.734 567.994 762.208 563.28C762.389 563.124 762.566 562.963 762.744 562.804C762.803 565.001 762.978 567.094 762.344 569.226C759.437 571.086 756.272 572.435 753.366 574.264C734.998 585.823 714.878 598.782 695.186 607.833C692.72 608.966 690.565 608.181 688.083 607.518C687.359 607.325 686.837 607.45 686.144 607.392C685.989 607.379 685.845 607.306 685.696 607.263C685.978 605.827 686.763 604.355 687.34 603.001Z" fill="#FCFCFD"/>
<path d="M675.842 355.21C678.613 355.646 682.666 355.803 685.016 357.308C685.274 357.473 685.522 357.653 685.776 357.826L686.503 356.604L686.788 356.703C687.11 357.258 687.327 357.584 687.56 358.214C688.016 359.447 687.875 360.271 687.348 361.409L686.732 361.527C686.345 360.838 686.26 360.6 685.562 360.183L685.118 361.471C685.563 362.401 685.734 362.522 686.59 363.114C687.165 362.851 687.706 362.63 688.305 362.421C688.543 363.138 688.569 363.5 688.345 364.229C687.94 365.548 687.555 366.382 687.842 367.802C688.312 370.128 689.522 374.206 689.013 376.479C688.731 377.739 687.913 378.324 686.943 379.06C686.406 379.467 686.449 379.789 686.258 380.419C683.57 383.396 680.071 385.68 677.126 388.44C675.69 386.082 674.1 383.702 672.896 381.219C668.995 373.181 673.013 363.142 675.842 355.21Z" fill="#FCFCFD"/>
<path d="M859.443 637.948C860.452 638.846 861.368 639.872 862.309 640.842L862.086 639.211L862.705 638.949C863.462 639.332 864.234 639.701 864.977 640.109C865.941 640.639 866.747 641.026 867.8 641.372C867.704 640.145 867.719 640.738 867.743 639.591L868.743 639.886C869.589 640.901 870.26 641.671 871.362 642.426C871.779 642.211 872.086 642.027 872.556 641.907C873.778 641.595 874.778 642.213 875.812 642.76C876.464 643.105 876.198 642.856 876.474 643.731C873.68 645.827 871.322 645.918 867.966 646.084C867.343 647.17 867.71 646.647 866.851 647.641L865.862 646.182L865.524 646.162L865.315 647.468C864.454 647.489 863.915 647.525 863.108 647.876C862.906 647.964 862.713 648.07 862.516 648.167C861.684 647.993 860.979 647.95 860.134 647.922C858.843 648.63 857.685 649.485 856.157 649.34L856.291 648.217L855.783 647.956C855.29 648.768 854.958 649.231 854.258 649.903C853.55 649.411 852.891 649.023 852.105 648.668L852.361 650.199L851.505 650.469C850.855 649.946 850.321 649.555 849.581 649.154L849.401 650.461L848.516 650.608C847.901 649.893 847.377 649.311 846.641 648.713C846.835 649.62 846.929 650.33 846.858 651.255L846.411 651.265L845.57 650.33L844.886 650.378C843.934 651.102 843.268 651.676 842.054 651.84C840.787 652.011 840.106 651.533 839.114 650.795L838.832 652.129C837.112 652.639 835.058 652.863 833.266 652.847C830.879 652.826 828.637 653.875 826.31 654.4C826.053 654.177 825.741 654.005 825.539 653.731C825.375 653.509 825.344 653.215 825.247 652.957C823.724 654.053 822.119 655.412 820.157 655.243C819.198 654.478 819.067 654.615 818.743 653.356C820.94 650.715 831.255 644.261 834.525 642.99C836.285 642.305 838.569 642.169 840.435 641.884C841.524 640.818 842.281 640.22 843.694 639.602C844.379 640.752 844.663 641.742 845.909 642.312C845.594 641.474 845.329 640.657 845.106 639.79C846.269 638.693 846.703 640.278 848.311 639.887L848.135 638.789L848.797 638.677C849.443 639.424 850.061 640.138 850.809 640.786L850.449 638.787L851.006 638.688C851.971 639.38 852.795 640.179 854.045 640.123C854.95 639.35 855.628 638.73 856.755 638.3C857.481 638.655 858.054 639.043 858.671 639.557L859.376 640.15L859.443 637.948Z" fill="#FCFCFD"/>
<path d="M746.42 315.515L747.046 316.248C745.346 325.446 728.016 344.069 720.584 350.312C719.677 347.341 718.668 344.632 717.288 341.848C714.136 336.064 711.501 329.964 708.391 324.133C713.733 321.505 720.865 321.656 726.756 320.604C733.456 319.407 740.013 317.821 746.42 315.515Z" fill="#FCFCFD"/>
<path d="M756.431 139.865C758.064 141.109 757.763 148.598 757.896 150.794C758.843 166.438 761.776 181.845 764.23 197.296C761.248 196.762 752.485 197.293 750.634 196.087C749.813 192.341 749.966 188.163 749.798 184.325C749.483 179.827 747.637 175.036 744.657 171.626C740.52 166.89 732.299 163.524 725.966 163.405C725.725 163.4 725.485 163.407 725.244 163.408C727.132 160.88 737.217 155.829 740.517 153.404C746.184 149.239 750.942 144.188 756.431 139.865Z" fill="#FCFCFD"/>
<path d="M679.825 492.238C680.723 492.121 680.568 492.113 681.361 492.099C685.014 492.033 688.186 492.009 691.679 493.316C696.32 495.052 699.922 498.143 701.943 502.714C703.603 506.468 704.44 511.599 702.757 515.5C700.889 519.833 688.037 530.833 683.519 532.174C682.173 532.573 681.966 532.471 680.824 531.843C677.749 526.154 685.803 523.766 685.871 518.704C685.883 517.833 685.536 517.388 684.881 516.81C683.628 515.706 681.034 514.584 679.343 514.956C675.059 515.898 670.049 522.491 667.94 526.127L667.568 526.773L666.955 527.734C665.983 527.848 665.408 528.014 664.666 527.168C663.951 526.353 663.768 525.454 663.81 524.412C664.026 519.029 670.03 513.074 673.747 509.642C672.602 508.6 671.331 507.241 669.967 506.499C668.094 505.48 665.553 505.789 663.642 506.536C656.847 509.19 653.107 517.3 650.46 523.545C649.579 521.641 648.865 519.885 648.801 517.758C648.641 512.463 652.601 505.77 656.11 502.084C662.097 495.796 671.247 492.493 679.825 492.238Z" fill="#FCFCFD"/>
<path d="M525.546 452.371C526.392 452.641 526.102 452.631 526.787 452.63C529.004 452.629 531.157 452.792 533.356 453.074C541.342 454.095 553.795 456.114 558.958 462.875C561.66 466.414 565.56 474.022 564.209 478.557C563.808 479.902 563.41 480.054 562.288 480.751L561.389 480.438C559.718 477.743 559.764 473.584 559.033 470.472C558.415 467.844 556.941 464.171 554.304 462.956C552.88 462.299 550.8 462.429 549.462 463.2C546.417 464.955 546.246 472.025 545.133 475.19C543.08 481.025 536.569 484.967 531.104 487.331C529.76 487.913 528.623 488.345 527.225 487.793C527.215 486.989 527.2 486.22 527.091 485.422C526.854 483.678 526.648 482.033 527.316 480.351C527.397 480.146 527.505 479.953 527.6 479.754C527.856 479.103 528.115 478.445 528.299 477.768C528.796 475.938 528.131 474.389 527.254 472.811C526.488 472.247 525.922 471.827 524.939 471.711C523.025 471.485 521.158 472.345 519.719 473.547C515.338 477.207 515.337 482.26 514.905 487.46L514.279 487.894C513.426 487.399 512.702 486.99 511.769 486.657L510.805 486.869C507.883 482.176 512.744 475.366 512.381 470.483C512.332 469.819 511.668 469.258 511.145 468.914C509.646 467.931 507.592 468.091 505.942 468.541C500.621 469.993 500.329 476.706 497.965 480.872L497.327 480.634C496.929 479.79 496.569 479.008 496.416 478.079C495.65 473.434 498.082 467.542 500.777 463.853C507.565 454.56 514.669 454.218 524.754 452.509L525.546 452.371Z" fill="#FCFCFD"/>
<path d="M685.696 607.263C676.852 603.685 666.183 602.269 656.858 599.984C652.162 598.835 647.474 597.654 642.794 596.443C641.058 595.979 639.384 595.162 637.639 594.789C635.715 594.378 633.911 594.885 631.965 594.188C628.62 592.989 617.836 591.38 616.23 590.586C615.829 590.388 615.099 589.408 614.739 589.049C607.768 590.157 607.242 587.327 601.718 586.71L600.999 586.633C599.166 586.426 578.211 581.982 577.711 581.629C577.324 581.357 577.121 580.889 576.826 580.519C570.906 580.137 565.263 578.442 559.5 577.149C549.879 574.986 540.271 572.771 530.674 570.505L497.808 562.747C490.195 560.95 482.899 559.591 475.5 556.934C475.003 557.227 474.537 557.532 474.062 557.857C460.745 553.464 446.733 550.768 433.064 547.716C415.801 543.861 398.606 539.83 381.28 536.255C381.098 535.863 380.816 535.321 380.769 534.894C380.623 533.568 381.036 533.09 381.825 532.176C385.17 531.512 485.132 555.867 498.016 558.849L687.34 603.001C686.763 604.355 685.978 605.827 685.696 607.263Z" fill="#FCFCFD"/>
<path d="M780.278 638.935C780.823 637.413 781.471 635.936 782.221 634.504C788.026 623.395 804.592 616.137 816.026 612.416C825.437 609.352 833.851 609.051 843.592 608.572C845.488 608.479 848.848 607.821 850.498 608.669C847.896 608.864 845.714 609.448 843.258 610.244C841.904 611.653 840.2 613.18 839.557 615.072C839.171 616.205 839.258 617.368 839.883 618.398C841.945 621.795 851.289 624.349 854.955 624.805C856.038 624.94 856.231 624.747 857.282 625.277C857.519 625.396 857.746 625.538 857.978 625.668C861.301 624.381 871.23 628.092 875.189 628.971L878.526 625.789C880.21 628.17 883.631 631.881 883.35 634.87L879.472 633.034C874.927 630.901 869.35 631.173 865.026 629.032L864.665 629.126C864.399 629.041 864.145 628.9 863.868 628.871C863.173 628.799 862.315 629.094 861.524 629.032C856.459 628.634 851.574 628.04 846.473 628.419C835.546 629.229 823.252 635.113 814.524 641.625C810.185 644.863 805.853 648.732 800.473 650.057C795.675 651.239 789.503 650.118 785.275 647.516C781.967 645.482 781.218 642.44 780.278 638.935Z" fill="#FCFCFD"/>
<path d="M812.056 615.497C814.299 615.384 816.76 615.139 818.97 615.578C821.391 616.058 823.67 616.987 825.06 619.094C825.175 620.348 825.277 620.875 824.693 622.044C824.223 622.987 823.291 623.901 822.268 624.198C821.19 624.511 820.305 624.993 819.312 625.514C817.76 626.416 813.832 625.789 812.085 625.388C809.924 624.892 808.419 623.623 807.218 621.83C807.064 620.81 806.862 620.368 807.222 619.368C808.022 617.149 810.082 616.45 812.056 615.497Z" fill="black"/>
<path d="M706.409 114.963L706.623 115.191C707.001 116.52 703.564 152.835 703.221 157.447L702.501 157.464L702.523 159.102L702.893 159.534L702.662 160.211C698.221 160.953 693.213 159.116 688.626 159.339C675.919 159.956 664.435 165.704 661.872 179.169C661.384 181.733 661.313 186.492 659.63 188.438C654.986 189.32 648.703 187.356 643.954 186.899C641.6 186.672 639.198 186.799 636.823 186.619C634.257 184.275 636.436 170.139 631.127 162.185C622.629 149.453 601.942 152.28 588.989 149.138C587.308 148.73 585.911 148.696 584.189 148.745L583.441 148.771L582.485 147.786L581.879 148.579C577.832 146.904 571.206 148.331 566.957 148.963C574.157 145.472 582.165 143.592 589.767 141.159C603.977 136.611 618.35 130.156 630.596 121.635C625.843 126.815 617.398 135.238 616.724 142.391C616.538 144.367 616.926 146.283 618.298 147.772C620.415 150.07 623.866 150.523 626.822 150.58C632.784 150.695 639.129 149.439 644.924 148.166C668.699 142.941 688.929 131.971 706.409 114.963Z" fill="#FCFCFD"/>
<path d="M577.577 163.403C579.78 164.132 583.195 163.979 585.62 164.23C594.283 165.128 604.523 165.588 612.772 168.445C614.832 169.158 616.77 170.005 617.723 172.086C621.151 179.575 619.827 216.008 616.797 224.322C615.582 227.657 613.361 229.478 610.193 230.868C610.061 230.878 609.928 230.919 609.798 230.898C596.453 228.791 579.902 230.823 567.784 223.798C567.075 222.602 566.375 221.32 565.938 219.995C563.804 213.525 563.6 173.979 566.702 168.6C569.688 163.423 572.474 164.911 576.887 163.638C577.12 163.571 577.347 163.482 577.577 163.403Z" fill="#FCFCFD"/>
<path d="M595.121 186.002C596.258 185.977 597.422 186.051 598.492 186.475C600.461 187.256 601.807 188.726 602.62 190.652C605.294 196.991 603.319 207.488 600.844 213.675L595.625 215.651C594.611 215.755 594.887 215.833 594.008 215.573C591.958 214.965 590.157 214.248 589.093 212.253C586.457 207.303 587.367 197.802 589.17 192.574C590.355 189.138 591.881 187.571 595.121 186.002Z" fill="black"/>
<path d="M692.149 174.722C694.485 176.485 719.731 176.986 725.858 178.84C729.002 179.791 731.796 181.52 733.301 184.543C735.606 189.174 733.285 230.664 731.151 236.025C730.271 238.235 728.095 240.488 725.84 241.287C724.055 241.919 721.719 241.711 720.022 240.952C719.287 241.243 719.56 241.24 718.887 241.18C711.498 240.529 685.425 239.111 680.356 235.593C677.613 233.689 676.464 229.83 675.837 226.723C674.009 217.666 674.024 185.025 679.003 178.263C681.901 174.328 687.865 175.405 692.149 174.722Z" fill="#FCFCFD"/>
<path d="M706.175 197.993C707.144 197.945 708.139 197.894 709.094 198.099C711.063 198.521 712.539 199.674 713.496 201.437C715.942 205.938 715.276 214.613 713.886 219.495C712.772 223.407 711.159 225.232 707.683 227.233C706.682 227.161 705.637 227.103 704.668 226.824C702.779 226.279 701.299 224.945 700.356 223.245C697.594 218.269 698.532 210.067 700.303 204.795C701.513 201.195 702.814 199.695 706.175 197.993Z" fill="black"/>
<path d="M639.572 205.315C643.812 205.896 654.895 205.881 658.054 208.012C659.015 208.66 659.241 209.073 659.431 210.2C660.542 216.797 659.029 224.461 660.627 232.189C661.998 238.816 665.247 244.741 671.13 248.387C674.42 250.425 678.182 251.657 681.933 252.522C690.329 254.458 722.759 258.183 730.321 256.08C744.923 252.019 747.272 238.768 748.208 225.761C748.438 222.559 748.249 218.653 749.838 215.816C752.863 213.688 761.926 214.798 765.604 215.261C767.297 218.615 764.748 227.088 767.623 232.862C769.152 235.932 771.441 236.286 774.46 237.241C776.165 236.161 777.716 234.972 779.292 233.714C781.077 228.486 782.68 222.863 785.798 218.246C788.904 213.647 793.965 209.946 799.575 209.1C803.412 208.52 808.81 210.88 811.801 213.145C817 217.084 820.241 223.593 821.14 229.968C822.312 238.274 820.355 247.4 815.178 254.095C810.364 260.321 801.757 265.794 793.588 264.725C789.874 264.239 785.663 262.815 781.913 263.441C777.49 264.178 776.861 270.285 775.171 273.606C774.076 275.756 772.462 277.836 771.103 279.837C770.206 280.994 769.282 282.129 768.33 283.242C748.944 305.644 709.7 309.568 681.704 309.436C677.474 309.416 673.206 309.161 668.981 309.27C667.445 309.309 665.883 309.648 664.351 309.569C662.473 309.472 660.923 308.455 658.958 308.608C655.921 308.844 652.865 308.701 649.838 308.367C619.287 304.992 573.719 296.302 562.314 263.261C560.845 259.005 559.859 254.297 559.566 249.8C559.473 248.368 559.956 245.471 559.571 244.256C559.403 243.727 558.877 243.389 558.53 242.955C559.215 241.318 558.853 239.755 559.446 238.106C563.139 238.446 566.653 240.538 570.222 241.534C575.13 242.903 580.253 243.619 585.301 244.239C597.839 245.78 614.217 248.685 624.772 240.111C634.092 232.54 633.814 216.87 634.78 205.927C636.1 205.28 638.085 205.401 639.572 205.315Z" fill="#FCFCFD"/>
<path d="M625.653 259.888C625.959 259.97 626.257 260.092 626.57 260.134C627.361 260.241 628.454 260.05 629.32 260.121C639.684 260.967 650.024 262.363 660.378 263.365C665.571 263.867 671.752 263.589 676.724 264.813C678.969 265.365 681.866 267.325 683.305 269.14C686.127 272.699 686.001 278.192 685.447 282.491C684.388 290.707 679.673 296.867 673.338 301.791C669.854 304.074 665.613 305.444 661.527 306.148C651.828 307.819 636.755 305.861 628.779 300.184C621.732 295.168 617.615 287.874 616.297 279.41C615.513 274.38 614.918 267.825 618.218 263.574C620.268 260.932 622.461 260.363 625.653 259.888Z" fill="black"/>
<path d="M629.479 273.425C631.485 273.871 633.46 273.694 635.491 273.898C643.467 274.697 665.427 275.428 671.405 278.318C670.469 281.678 669.369 284.624 667.42 287.541C664.66 290.79 661.901 292.439 657.746 293.357C651.353 294.77 643.462 293.313 638.106 289.582C632.296 285.535 630.593 280.039 629.479 273.425Z" fill="#FCFCFD"/>
<path d="M759.645 323.644C769.289 329.023 779.665 347.725 784.842 357.739C800.429 387.896 805.254 422.772 806.117 456.323C806.426 468.348 806.703 481.213 802.955 492.763C798.353 506.942 788.283 517.565 773.619 521.285C771.051 521.937 766.563 521.573 764.471 522.801C764.212 522.953 764.002 523.202 763.715 523.293C763.09 523.492 737.907 519.658 735.251 519.255C735.105 516.718 735.305 514.744 735.731 512.257C737.721 500.621 732.663 491.312 726.233 482.123C727.157 481.997 728.087 481.889 729.009 481.749C740.919 479.946 746.334 486.928 756.449 489.118C758.46 489.553 759.836 489.421 761.575 488.339C763.126 486.199 763.676 484.067 763.729 481.445C762.349 478.241 759.269 476.717 756.457 474.899C756.056 469.8 757.138 463.817 757.547 458.684C758.234 449.949 758.751 441.203 759.098 432.447C759.244 429.22 759.935 425.44 759.501 422.253C759.262 420.497 758.307 418.618 756.764 417.656C755.065 416.596 754.083 416.802 752.22 417.257C750.796 417.605 749.169 417.974 748.265 419.235C743.753 425.533 745.415 464.461 742.817 468.909C742.567 468.755 742.332 468.573 742.067 468.446C740.822 467.853 738.059 468.145 736.658 468.175C731.01 468.294 727.234 468.707 722.281 471.512C720.785 472.36 719.065 473.562 717.444 474.091C716.585 474.371 716.195 474.174 715.415 473.812C710.557 471.555 699.852 472.086 694.915 474.283C691.256 475.911 688.152 478.671 684.288 479.898C681.705 480.719 678.432 480.372 675.73 480.442C660.215 480.848 649.983 488.051 639.745 498.848L639.794 498.615L639.579 498.53L639.83 497.096C638.43 494.463 617.47 491.857 613.084 490.429L616.214 450.781C616.764 444.431 616.889 437.51 618.415 431.329C618.451 431.133 618.515 430.939 618.523 430.74C618.754 424.583 619.725 417.741 620.677 411.605C621.665 405.238 624.091 397.522 623.325 391.019C623.084 388.976 622.58 387.647 620.96 386.321C618.946 385.596 616.967 385.98 615.078 386.92C613.769 387.571 612.568 388.677 611.932 390.006C610.083 393.873 609.821 399.068 609.031 403.285C605.811 420.472 603.188 437.513 601.521 454.978C600.762 462.937 601.444 472.489 598.717 479.989C597.395 479.616 597.088 478.966 596.205 477.942C595.97 479.019 595.399 479.599 594.706 480.428L593.822 480.247C593.42 479.337 593.314 478.863 592.496 478.257C592.631 479.276 592.727 479.858 592.306 480.813C589.34 481.324 585.677 482.379 582.707 482.218L581.416 480.532L580.883 480.677L580.747 481.94L580.235 482.349C579.007 482.393 578.121 482.647 577.04 482.008C576.755 481.171 576.681 480.65 576.861 479.776C577.493 476.709 577.309 474.308 576.789 471.278C574.805 459.714 567.896 452.717 558.627 446.214C567.471 442.259 571.286 443.109 579.904 446.662C581.202 447.198 582.645 447.757 584.082 447.612C588.733 447.141 589.232 439.745 589.82 436.176C594.291 409.012 604.4 374.308 617.123 349.72C621.166 341.906 625.933 334.735 631.196 327.7C634.068 335.311 636.698 349.581 642.418 354.982C644.075 356.547 646.163 357.461 648.464 357.279C653.961 356.846 658.767 350.625 662.095 346.734L664.738 351.023C663.35 355.945 661.629 360.884 659.882 365.691C658.9 368.392 657.171 371.773 656.792 374.592C656.125 379.545 666.699 395.837 670.239 399.774C671.624 401.314 673.083 402.361 675.219 402.402C681.919 402.532 696.291 387.969 701.442 383.275C701.954 381.572 702.554 379.792 702.6 378.001C702.722 373.166 700.493 358.555 699 353.898C700.905 351.726 703.199 349.946 705.406 348.094C708.426 352.847 709.948 360.728 714.761 363.97C716.489 365.133 718.617 365.35 720.623 364.93C734.047 362.121 752.257 334.936 759.645 323.644Z" fill="#FCFCFD"/>
</svg>
