<?xml version="1.0" standalone="no"?>
<!DOCTYPE svg PUBLIC "-//W3C//DTD SVG 20010904//EN"
 "http://www.w3.org/TR/2001/REC-SVG-20010904/DTD/svg10.dtd">
<svg version="1.0" xmlns="http://www.w3.org/2000/svg"
 width="1024.000000pt" height="602.000000pt" viewBox="0 0 1024.000000 602.000000"
 preserveAspectRatio="xMidYMid meet">

<g transform="translate(0.000000,602.000000) scale(0.100000,-0.100000)"
fill="#000000" stroke="none">
<path d="M810 5793 c-72 -37 -70 -14 -70 -711 0 -673 0 -670 53 -705 24 -15
63 -17 378 -17 l351 0 34 34 34 34 0 646 c0 466 -3 652 -12 670 -27 60 -32 61
-398 64 -304 2 -338 1 -370 -15z m50 -121 c0 -5 -13 -21 -30 -37 l-30 -29 0
31 c0 17 6 34 13 36 20 9 47 8 47 -1z m80 0 c0 -4 -31 -39 -70 -77 -62 -61
-70 -67 -70 -45 0 29 95 130 122 130 10 0 18 -3 18 -8z m588 -4 c19 -19 17
-1101 -2 -1117 -9 -8 -114 -11 -367 -9 l-354 3 -3 473 -2 473 87 95 87 94 271
0 c197 0 274 -3 283 -12z m-318 -1168 c11 -11 20 -31 20 -45 0 -30 -32 -65
-60 -65 -24 0 -70 42 -70 63 0 8 9 26 21 41 25 31 61 34 89 6z"/>
<path d="M927 5575 c-42 -46 -73 -86 -69 -89 5 -3 46 35 91 84 45 50 76 90 69
90 -7 -1 -48 -38 -91 -85z"/>
<path d="M3980 5635 c0 -16 6 -25 15 -25 9 0 15 9 15 25 0 16 -6 25 -15 25 -9
0 -15 -9 -15 -25z"/>
<path d="M3640 5640 c0 -5 7 -10 15 -10 12 0 15 -19 15 -110 0 -91 -3 -110
-15 -110 -8 0 -15 -4 -15 -10 0 -5 18 -10 40 -10 22 0 40 5 40 10 0 6 -7 10
-15 10 -12 0 -15 13 -15 55 0 78 37 113 91 85 16 -9 19 -22 19 -75 0 -51 -3
-65 -15 -65 -8 0 -15 -4 -15 -10 0 -5 18 -10 40 -10 40 0 53 13 25 24 -11 4
-15 22 -15 70 0 56 -3 67 -22 80 -12 9 -32 16 -43 16 -11 0 -31 -7 -43 -16
-22 -15 -22 -15 -22 35 0 48 -2 51 -25 51 -14 0 -25 -4 -25 -10z"/>
<path d="M8188 5624 c-152 -36 -312 -162 -376 -294 -35 -71 -62 -167 -62 -215
0 -28 -5 -33 -53 -53 -75 -31 -156 -107 -197 -184 -29 -54 -35 -75 -38 -148
-5 -107 19 -176 85 -250 58 -65 112 -101 193 -131 l65 -24 855 0 855 0 56 26
c205 96 287 338 185 545 -40 79 -98 139 -171 174 -46 22 -147 42 -169 34 -10
-4 -19 11 -31 45 -65 197 -300 329 -518 291 l-67 -12 -63 58 c-70 66 -165 117
-260 139 -77 18 -213 18 -289 -1z m275 -99 c94 -24 157 -63 235 -142 l72 -75
48 16 c75 24 126 28 187 17 165 -31 284 -150 304 -305 5 -38 11 -50 21 -47 8
3 49 6 90 9 68 3 80 1 130 -25 170 -90 201 -333 60 -474 -83 -83 -40 -80 -976
-77 l-819 3 -56 23 c-203 82 -262 298 -124 451 39 43 116 85 178 96 l37 7 0
67 c1 124 40 227 121 315 119 129 318 186 492 141z"/>
<path d="M8081 5382 c-86 -89 -141 -210 -141 -314 0 -33 3 -38 23 -38 21 0 24
7 33 73 15 98 52 171 123 242 51 50 58 61 48 77 -7 10 -16 18 -20 18 -5 0 -34
-26 -66 -58z"/>
<path d="M7950 4665 c0 -148 1 -155 20 -155 19 0 20 7 20 155 0 148 -1 155
-20 155 -19 0 -20 -7 -20 -155z"/>
<path d="M8310 4775 c0 -14 -8 -29 -20 -35 -25 -14 -26 -26 0 -33 17 -4 20
-15 22 -98 l3 -94 33 -3 c36 -4 47 22 12 31 -18 5 -20 14 -20 82 0 68 2 77 20
82 11 3 20 12 20 19 0 8 -9 14 -20 14 -16 0 -20 7 -20 30 0 20 -5 30 -15 30
-9 0 -15 -9 -15 -25z"/>
<path d="M9300 4770 c0 -20 -5 -30 -15 -30 -8 0 -15 -6 -15 -14 0 -8 7 -16 15
-20 12 -4 15 -23 15 -85 0 -102 4 -111 46 -111 37 0 46 19 14 27 -18 5 -20 14
-20 89 0 77 2 84 20 84 11 0 20 5 20 11 0 6 -9 13 -20 16 -14 4 -20 14 -20 34
0 22 -5 29 -20 29 -16 0 -20 -7 -20 -30z"/>
<path d="M8050 4625 c0 -108 1 -115 20 -115 18 0 20 7 20 84 0 76 2 86 22 100
29 20 52 20 72 0 12 -12 16 -36 16 -100 0 -68 3 -84 15 -84 12 0 15 18 15 99
0 92 -2 101 -22 115 -28 20 -67 20 -95 1 -19 -13 -22 -13 -27 0 -3 8 -12 15
-21 15 -13 0 -15 -18 -15 -115z"/>
<path d="M8448 4720 c-38 -29 -55 -88 -40 -138 15 -50 41 -72 91 -79 37 -5 44
-2 78 33 32 32 35 39 20 42 -10 2 -29 -8 -42 -22 -30 -33 -59 -33 -90 -1 -46
45 -35 55 60 55 l85 0 0 34 c0 51 -35 87 -90 93 -36 4 -51 1 -72 -17z m102
-30 c38 -38 27 -50 -45 -50 -36 0 -65 3 -65 6 0 11 23 49 34 56 20 14 56 8 76
-12z"/>
<path d="M8667 4733 c-4 -3 -7 -55 -7 -115 0 -101 1 -108 20 -108 18 0 20 7
20 73 0 79 16 117 51 117 12 0 19 7 19 20 0 11 -7 20 -15 20 -8 0 -24 -9 -35
-20 l-20 -20 0 20 c0 19 -20 27 -33 13z"/>
<path d="M8810 4625 c0 -108 1 -115 20 -115 18 0 20 7 20 84 0 76 2 86 22 100
31 22 65 20 78 -3 5 -11 10 -56 10 -100 0 -76 1 -81 21 -81 21 0 22 3 17 95
-4 73 -10 100 -23 115 -22 24 -72 26 -102 5 -19 -13 -22 -13 -27 0 -3 8 -12
15 -21 15 -13 0 -15 -18 -15 -115z"/>
<path d="M9074 4706 c-29 -29 -34 -41 -34 -80 0 -59 15 -90 55 -111 42 -23 97
-14 125 22 11 14 20 30 20 34 0 17 -30 9 -54 -16 -14 -14 -34 -25 -46 -25 -26
0 -60 34 -60 60 0 18 7 20 85 20 76 0 85 2 85 19 0 38 -23 82 -51 96 -48 25
-87 19 -125 -19z m108 -8 c9 -7 19 -23 23 -35 6 -22 4 -23 -59 -23 -73 0 -84
12 -46 50 23 23 59 26 82 8z"/>
<path d="M2860 5620 c0 -5 7 -10 15 -10 12 0 15 -18 15 -100 0 -60 -4 -100
-10 -100 -5 0 -10 -4 -10 -10 0 -5 18 -10 39 -10 22 0 43 5 46 10 4 6 -5 10
-19 10 l-26 0 0 92 c0 50 3 88 6 85 4 -4 32 -48 64 -99 79 -130 90 -129 90 11
0 67 4 111 10 111 6 0 10 5 10 10 0 6 -20 10 -45 10 -25 0 -45 -4 -45 -10 0
-5 9 -10 20 -10 18 0 20 -7 20 -87 0 -63 -3 -84 -10 -73 -6 8 -33 52 -61 98
-45 73 -54 82 -80 82 -16 0 -29 -4 -29 -10z"/>
<path d="M3420 5600 c0 -23 -4 -30 -20 -30 -11 0 -20 -4 -20 -10 0 -5 9 -10
20 -10 18 0 20 -7 20 -65 0 -52 4 -69 20 -85 22 -22 61 -26 109 -9 35 12 43
35 9 25 -97 -28 -120 -14 -116 73 l3 56 53 3 c69 4 67 22 -3 22 -54 0 -55 0
-55 30 0 17 -4 30 -10 30 -5 0 -10 -13 -10 -30z"/>
<path d="M3170 5553 c-28 -25 -33 -36 -33 -73 0 -37 5 -48 33 -73 28 -25 38
-28 74 -24 54 7 86 44 86 97 0 53 -32 90 -86 97 -36 4 -46 1 -74 -24z m100 -8
c32 -17 46 -51 36 -90 -6 -24 -51 -55 -79 -55 -8 0 -26 9 -41 21 -37 29 -37
89 0 118 32 25 46 26 84 6z"/>
<path d="M4222 5564 c-12 -8 -22 -10 -22 -5 0 6 -9 11 -20 11 -11 0 -20 -4
-20 -10 0 -5 5 -10 10 -10 6 0 10 -30 10 -70 0 -56 -3 -70 -15 -70 -8 0 -15
-4 -15 -10 0 -5 18 -10 40 -10 22 0 40 5 40 10 0 6 -7 10 -15 10 -11 0 -15 13
-15 54 0 47 4 57 26 75 30 24 54 27 72 9 15 -15 16 -138 2 -138 -5 0 -10 -4
-10 -10 0 -5 16 -10 35 -10 19 0 35 5 35 10 0 6 -4 10 -10 10 -6 0 -10 27 -10
60 0 51 -4 65 -25 85 -28 29 -61 32 -93 9z"/>
<path d="M4439 5551 c-20 -20 -29 -39 -29 -61 0 -67 84 -112 138 -74 21 15 22
14 22 -19 0 -43 -26 -67 -73 -67 -20 0 -37 -4 -37 -10 0 -5 19 -10 43 -10 33
0 49 6 65 23 19 21 22 34 22 120 0 91 1 97 21 97 11 0 17 5 14 10 -8 13 -55
13 -55 -1 0 -5 -10 -3 -22 5 -35 25 -76 20 -109 -13z m105 -12 c16 -13 26 -30
26 -47 0 -33 -36 -72 -67 -72 -30 0 -73 42 -73 70 0 26 43 70 68 70 11 0 31
-9 46 -21z"/>
<path d="M3930 5560 c0 -5 14 -10 30 -10 l30 0 0 -70 0 -70 -41 0 c-24 0 -38
-4 -34 -10 8 -13 175 -13 175 -1 0 6 -17 11 -37 13 l-38 3 -3 78 -3 77 -39 0
c-22 0 -40 -4 -40 -10z"/>
<path d="M6856 5188 c3 -13 13 -35 20 -50 8 -15 14 -29 14 -33 0 -3 -1035 -5
-2300 -5 -1265 0 -2300 2 -2300 5 0 2 7 23 16 45 9 23 14 44 10 47 -7 8 -229
-120 -228 -132 0 -10 211 -134 229 -135 8 0 3 19 -12 55 l-25 55 2305 0 2304
0 -20 -45 c-11 -25 -19 -50 -17 -55 2 -5 59 23 126 62 l124 71 -29 17 c-133
79 -206 120 -214 120 -6 0 -7 -10 -3 -22z"/>
<path d="M802 3820 c-64 -39 -63 -24 -60 -723 3 -589 4 -634 21 -658 32 -48
48 -50 421 -47 l348 3 29 33 29 32 0 646 c0 708 2 687 -60 719 -24 13 -84 15
-362 15 -316 0 -335 -1 -366 -20z m58 -118 c0 -5 -13 -21 -30 -37 l-30 -29 0
30 c0 17 3 34 7 37 9 10 53 9 53 -1z m64 -14 c-10 -13 -43 -48 -71 -78 -48
-50 -53 -53 -53 -30 1 36 86 130 118 130 25 0 25 0 6 -22z m604 10 c17 -17 17
-1099 0 -1116 -9 -9 -101 -12 -354 -12 -188 0 -349 3 -358 6 -14 5 -16 57 -16
478 l0 471 86 93 86 92 272 0 c198 0 275 -3 284 -12z m-316 -1165 c35 -32 18
-92 -32 -108 -41 -13 -86 34 -74 80 11 44 70 60 106 28z"/>
<path d="M969 3652 c-103 -109 -123 -134 -109 -130 22 5 173 165 162 172 -5 3
-29 -16 -53 -42z"/>
<path d="M8255 3694 c-185 -29 -357 -146 -437 -300 -38 -72 -68 -171 -68 -222
0 -28 -6 -34 -63 -61 -78 -37 -158 -115 -194 -190 -25 -50 -28 -67 -28 -156 0
-90 3 -105 28 -153 54 -103 137 -172 255 -211 62 -21 72 -21 925 -19 l862 3
53 28 c75 39 138 106 175 185 29 62 32 75 32 167 -1 80 -5 111 -23 157 -25 63
-96 147 -152 183 -46 29 -132 55 -180 55 -36 0 -38 2 -65 66 -52 122 -173 224
-309 260 -59 16 -163 18 -222 4 -40 -9 -41 -8 -96 44 -62 58 -163 115 -248
140 -56 17 -193 28 -245 20z m240 -125 c95 -29 180 -90 245 -177 l25 -33 60
22 c81 29 198 23 278 -14 113 -51 192 -158 204 -272 l6 -57 36 9 c142 33 256
-19 322 -147 20 -37 24 -60 24 -130 0 -102 -22 -157 -85 -218 -78 -77 -24 -73
-970 -70 l-845 3 -49 23 c-150 69 -217 201 -174 344 24 82 128 168 236 197
l42 12 0 62 c0 123 41 227 122 313 139 147 326 194 523 133z"/>
<path d="M8072 3426 c-85 -92 -131 -197 -132 -304 0 -39 2 -43 22 -40 19 3 23
13 34 75 17 102 53 174 122 243 45 44 57 62 50 74 -15 27 -34 18 -96 -48z"/>
<path d="M7950 2720 c0 -153 1 -160 20 -160 19 0 20 7 20 160 0 153 -1 160
-20 160 -19 0 -20 -7 -20 -160z"/>
<path d="M8310 2825 c0 -14 -8 -29 -20 -35 -25 -14 -26 -26 0 -33 17 -4 20
-15 22 -98 l3 -94 33 -3 c36 -4 47 22 12 31 -18 5 -20 14 -20 86 0 74 2 81 20
81 11 0 20 7 20 15 0 8 -9 15 -20 15 -16 0 -20 7 -20 30 0 20 -5 30 -15 30 -9
0 -15 -9 -15 -25z"/>
<path d="M9300 2820 c0 -20 -5 -30 -15 -30 -8 0 -15 -7 -15 -15 0 -8 7 -15 15
-15 12 0 15 -17 15 -89 0 -96 9 -115 51 -109 29 4 35 24 9 31 -18 5 -20 13
-20 86 0 74 2 81 20 81 11 0 20 5 20 11 0 6 -9 13 -20 16 -14 4 -20 14 -20 34
0 22 -5 29 -20 29 -16 0 -20 -7 -20 -30z"/>
<path d="M8123 2785 c-18 -8 -33 -10 -33 -5 0 6 -9 10 -20 10 -19 0 -20 -7
-20 -115 0 -108 1 -115 20 -115 18 0 20 7 20 83 0 93 13 117 63 117 37 0 47
-25 47 -119 0 -65 3 -81 15 -81 12 0 15 17 15 98 0 103 -3 113 -37 131 -27 14
-30 14 -70 -4z"/>
<path d="M8485 2793 c-96 -22 -112 -190 -22 -228 55 -23 137 11 137 57 0 25
-19 23 -42 -7 -14 -18 -29 -25 -53 -25 -34 0 -48 11 -59 47 -7 21 -5 22 76 25
l83 3 3 32 c5 56 -63 109 -123 96z m67 -50 c35 -32 23 -43 -47 -43 -36 0 -65
3 -65 8 0 4 7 18 16 30 18 27 69 30 96 5z"/>
<path d="M8726 2779 c-21 -17 -26 -18 -26 -5 0 9 -9 16 -20 16 -20 0 -21 -5
-18 -112 3 -98 5 -113 21 -116 15 -3 17 6 17 77 0 68 3 84 20 101 11 11 27 20
35 20 8 0 15 9 15 20 0 25 -11 25 -44 -1z"/>
<path d="M8883 2785 c-18 -8 -33 -10 -33 -5 0 6 -9 10 -20 10 -19 0 -20 -7
-20 -115 0 -108 1 -115 20 -115 18 0 20 7 20 83 0 93 13 117 63 117 37 0 47
-25 47 -120 0 -72 2 -81 18 -78 14 3 18 16 20 70 4 89 -11 141 -43 156 -32 15
-32 15 -72 -3z"/>
<path d="M9103 2786 c-39 -18 -63 -62 -63 -118 0 -78 61 -127 133 -107 32 9
67 44 67 69 0 19 -28 10 -44 -15 -30 -45 -116 -24 -116 28 0 15 12 17 80 17
91 0 99 7 80 65 -19 58 -80 86 -137 61z m91 -48 c9 -12 16 -26 16 -30 0 -5
-29 -8 -65 -8 -69 0 -79 8 -48 42 23 26 78 24 97 -4z"/>
<path d="M2544 3455 c-28 -19 -60 -96 -74 -178 l-12 -67 -184 0 -184 0 0 -25
0 -25 180 -2 181 -3 2 -87 3 -88 -83 0 c-46 0 -83 2 -83 5 0 2 7 23 16 45 9
23 14 43 11 47 -8 7 -229 -120 -230 -133 0 -10 211 -134 230 -134 8 0 3 19
-13 55 l-24 56 92 -3 91 -3 13 -61 c7 -34 22 -80 33 -102 39 -76 7 -72 561
-72 426 0 499 2 517 15 26 18 59 103 69 174 l7 51 203 0 204 0 0 30 0 30 -200
0 -200 0 0 90 0 90 95 0 c106 0 108 -2 78 -65 -9 -19 -14 -38 -10 -41 7 -7
229 118 234 132 2 9 -228 146 -236 139 -2 -3 6 -27 18 -54 11 -27 21 -52 21
-55 0 -3 -45 -6 -99 -6 -107 0 -111 2 -111 60 0 45 -36 150 -61 176 l-22 24
-507 0 c-427 0 -509 -2 -526 -15z m1049 -52 c18 -32 49 -171 41 -185 -3 -4
-36 -8 -75 -8 -67 0 -69 -1 -69 -25 0 -24 2 -25 75 -25 l75 0 0 -90 0 -90 -75
0 -75 0 0 -30 0 -30 70 0 c80 0 78 2 56 -92 -15 -66 -40 -108 -62 -108 -20 0
-49 68 -65 150 -19 99 -17 349 5 442 17 77 48 132 70 125 6 -2 19 -17 29 -34z"/>
<path d="M4715 3425 l-25 -24 0 -220 0 -221 -22 -4 c-13 -3 -43 -7 -68 -10
-76 -8 -83 -26 -78 -186 5 -158 22 -213 90 -294 97 -115 276 -246 337 -248 31
-1 129 57 218 128 l41 34 145 0 c127 0 146 2 160 18 15 17 17 67 17 513 0 272
-4 499 -8 505 -21 31 -54 34 -417 34 l-366 0 -24 -25z m769 -21 c14 -5 16 -28
16 -145 l0 -139 -385 0 -385 0 0 138 c0 76 3 142 7 145 8 9 726 9 747 1z
m-597 -354 c-53 -34 -96 -56 -132 -70 -25 -9 -25 -9 -25 45 l0 55 102 0 102 0
-47 -30z m613 -120 l0 -150 -60 0 -60 0 0 33 c0 22 7 36 20 45 31 19 40 52 24
84 -19 36 -59 46 -97 25 -16 -10 -43 -17 -61 -17 -57 0 -189 53 -271 109 l-30
21 268 0 267 0 0 -150z m-508 67 c64 -48 165 -90 228 -94 111 -8 102 6 98
-151 -3 -120 -6 -143 -27 -187 -31 -65 -154 -185 -259 -254 l-82 -54 -82 54
c-100 66 -227 188 -259 249 -21 40 -24 61 -27 191 l-4 147 79 3 c69 4 90 9
164 46 47 23 93 51 104 62 10 12 20 21 21 21 2 0 23 -15 46 -33z m402 -74 c11
-29 -10 -36 -28 -9 -16 25 -16 26 3 26 10 0 22 -8 25 -17z m101 -343 l0 -155
-117 -3 c-65 -1 -118 0 -118 3 0 4 14 24 31 45 27 34 35 38 64 33 80 -13 104
93 30 134 -9 6 -12 21 -8 56 l6 48 56 -3 56 -3 0 -155z m-101 5 c9 -24 -4 -45
-30 -45 -21 0 -22 2 -13 30 12 32 33 40 43 15z"/>
<path d="M5317 3332 c-23 -25 -21 -75 3 -97 61 -56 151 34 95 95 -23 25 -76
26 -98 2z m83 -46 c0 -23 -30 -41 -48 -30 -23 15 -25 29 -7 48 12 12 21 13 36
6 10 -6 19 -17 19 -24z"/>
<path d="M4840 3286 c0 -8 7 -17 16 -20 24 -9 357 -7 373 3 38 24 -6 31 -195
31 -159 0 -194 -3 -194 -14z"/>
<path d="M4698 2804 c-5 -5 22 -95 47 -156 4 -10 17 -18 30 -18 19 0 27 12 49
74 31 87 32 99 9 94 -11 -2 -24 -24 -35 -62 -10 -33 -20 -61 -22 -63 -2 -2
-13 28 -25 66 -19 64 -35 83 -53 65z"/>
<path d="M4890 2715 c0 -69 3 -85 15 -85 9 0 15 9 15 25 0 14 6 27 13 29 59
16 71 23 80 49 14 43 -13 67 -75 67 l-48 0 0 -85z m83 43 c7 -23 -5 -38 -30
-38 -19 0 -24 4 -19 16 3 9 6 20 6 25 0 14 38 11 43 -3z"/>
<path d="M5050 2715 c0 -69 3 -85 15 -85 11 0 15 12 15 49 0 28 4 52 9 55 5 3
24 -19 42 -49 25 -41 39 -55 56 -55 22 0 23 3 23 85 0 78 -2 85 -20 85 -18 0
-20 -7 -20 -57 l0 -58 -37 58 c-28 42 -43 57 -60 57 -22 0 -23 -3 -23 -85z"/>
<path d="M6850 3160 c0 -6 6 -23 14 -38 7 -15 17 -37 20 -49 l7 -23 -566 0
c-450 0 -566 3 -562 13 3 6 12 29 21 50 11 24 12 37 5 37 -11 0 -190 -98 -222
-122 -16 -12 -6 -20 103 -82 66 -38 123 -66 126 -64 2 3 -5 26 -16 52 -11 26
-20 51 -20 54 0 4 252 7 560 7 409 0 560 -3 560 -11 0 -6 -7 -28 -15 -47 -19
-46 -19 -51 3 -42 20 7 232 126 232 130 0 1 -42 26 -92 55 -51 29 -108 62
-125 72 -20 12 -33 15 -33 8z"/>
<path d="M3300 2220 c0 -5 6 -10 13 -10 8 0 32 -46 57 -110 30 -75 48 -110 58
-108 7 2 33 50 56 108 24 57 48 106 55 108 6 2 11 8 11 13 0 12 -77 12 -85 -1
-3 -5 3 -10 14 -10 12 0 21 -5 21 -10 0 -12 -60 -161 -70 -173 -3 -4 -22 34
-42 85 -32 86 -34 93 -17 96 37 6 18 22 -26 22 -25 0 -45 -4 -45 -10z"/>
<path d="M3570 2221 c0 -5 9 -11 20 -14 18 -5 20 -14 20 -97 0 -83 -2 -92 -20
-97 -41 -11 -18 -23 45 -23 37 0 65 4 65 10 0 6 -16 10 -35 10 -34 0 -35 1
-35 40 l0 40 45 0 c51 0 95 32 95 70 0 12 -11 32 -25 45 -21 22 -33 25 -100
25 -41 0 -75 -4 -75 -9z m160 -31 c11 -11 20 -24 20 -30 0 -24 -41 -50 -80
-50 l-40 0 0 50 0 50 40 0 c27 0 47 -7 60 -20z"/>
<path d="M3820 2221 c0 -6 7 -11 15 -11 12 0 15 -18 15 -100 0 -60 -4 -100
-10 -100 -5 0 -10 -4 -10 -10 0 -5 20 -10 45 -10 25 0 45 5 45 10 0 6 -9 10
-20 10 -18 0 -20 7 -20 87 l0 88 23 -35 c13 -19 41 -63 62 -97 56 -92 65 -85
65 47 0 67 4 110 10 110 6 0 10 5 10 10 0 6 -18 10 -40 10 -22 0 -40 -4 -40
-10 0 -5 9 -10 20 -10 19 0 20 -7 20 -92 0 -50 -3 -88 -6 -85 -4 4 -32 48 -64
99 -50 83 -60 93 -88 96 -18 2 -32 -1 -32 -7z"/>
<path d="M802 1860 c-64 -39 -63 -24 -60 -723 3 -589 4 -634 21 -658 32 -48
48 -50 421 -47 l348 3 29 33 29 32 0 646 c0 566 -2 649 -16 675 -28 56 -50 59
-411 59 -311 0 -330 -1 -361 -20z m58 -118 c0 -5 -13 -21 -30 -37 l-30 -29 0
30 c0 17 3 34 7 37 9 10 53 9 53 -1z m52 -29 c-17 -21 -49 -56 -71 -78 -38
-36 -41 -37 -41 -16 0 33 88 131 118 131 l24 0 -30 -37z m616 25 c17 -17 17
-1099 0 -1116 -9 -9 -101 -12 -354 -12 -188 0 -349 3 -358 6 -14 5 -16 57 -16
478 l0 471 86 93 86 92 272 0 c198 0 275 -3 284 -12z m-316 -1165 c37 -33 17
-96 -34 -108 -39 -10 -83 34 -73 73 12 50 69 69 107 35z"/>
<path d="M929 1649 c-46 -50 -77 -90 -69 -88 23 6 173 166 162 173 -6 3 -47
-35 -93 -85z"/>
<path d="M6860 1877 c0 -3 9 -24 20 -48 11 -24 20 -50 20 -56 0 -10 -468 -13
-2305 -13 -1838 0 -2305 3 -2305 13 1 6 7 23 15 37 8 14 14 33 15 43 0 17 -8
14 -63 -16 -106 -59 -177 -102 -177 -108 0 -7 240 -143 245 -138 2 2 -7 30
-20 62 l-24 57 2310 0 c1270 0 2309 -2 2309 -5 0 -2 -9 -27 -20 -56 -19 -48
-19 -51 -3 -45 29 11 233 130 233 136 0 4 -219 130 -241 138 -5 2 -9 2 -9 -1z"/>
<path d="M8170 1754 c-98 -25 -199 -83 -271 -156 -96 -96 -140 -188 -164 -349
-5 -32 -11 -38 -66 -64 -124 -60 -212 -181 -225 -312 -13 -126 53 -257 171
-338 125 -85 64 -80 998 -83 923 -3 900 -4 1003 64 123 82 191 244 164 394
-32 177 -165 307 -334 325 l-62 7 -23 60 c-32 83 -121 177 -211 222 -93 46
-191 62 -288 47 l-74 -11 -61 56 c-69 62 -192 126 -275 143 -73 15 -216 13
-282 -5z m279 -99 c109 -29 232 -113 282 -194 l15 -24 55 19 c76 26 196 24
271 -5 114 -44 208 -164 223 -287 l6 -51 56 13 c173 40 326 -92 326 -281 0
-117 -57 -214 -157 -268 l-41 -22 -845 0 -845 0 -66 31 c-124 59 -183 143
-183 259 0 81 20 128 81 188 44 45 77 64 153 88 l55 17 1 70 c5 260 213 460
479 461 44 1 104 -6 134 -14z"/>
<path d="M8070 1514 c-84 -80 -131 -176 -138 -279 l-5 -75 27 0 c24 0 26 3 26
43 0 98 53 210 136 286 48 45 51 53 29 71 -12 10 -25 2 -75 -46z"/>
<path d="M7930 795 c0 -148 1 -155 20 -155 19 0 20 7 20 155 0 148 -1 155 -20
155 -19 0 -20 -7 -20 -155z"/>
<path d="M8290 900 c0 -20 -5 -30 -15 -30 -8 0 -15 -7 -15 -15 0 -8 7 -15 15
-15 12 0 15 -16 15 -84 0 -107 4 -116 46 -116 37 0 46 19 14 27 -18 5 -20 14
-20 89 0 77 2 84 20 84 11 0 20 5 20 11 0 6 -9 13 -20 16 -14 4 -20 14 -20 34
0 22 -5 29 -20 29 -16 0 -20 -7 -20 -30z"/>
<path d="M9290 905 c0 -14 -8 -29 -20 -35 -25 -14 -26 -26 0 -33 17 -4 20 -15
22 -98 l3 -94 33 -3 c36 -4 47 22 12 31 -18 5 -20 14 -20 82 0 68 2 77 20 82
11 3 20 12 20 19 0 8 -9 14 -20 14 -16 0 -20 7 -20 30 0 20 -5 30 -15 30 -9 0
-15 -9 -15 -25z"/>
<path d="M8037 863 c-4 -3 -7 -55 -7 -115 0 -101 1 -108 20 -108 18 0 20 7 20
80 0 88 17 120 63 120 39 0 47 -18 47 -112 0 -83 1 -88 21 -88 20 0 21 4 17
101 -2 86 -6 103 -22 115 -26 19 -76 18 -104 -2 -20 -14 -22 -14 -22 0 0 16
-21 22 -33 9z"/>
<path d="M8424 836 c-29 -29 -34 -41 -34 -80 0 -61 16 -92 57 -111 45 -22 96
-13 123 22 11 14 20 30 20 34 0 17 -30 9 -54 -16 -14 -14 -34 -25 -46 -25 -26
0 -60 34 -60 60 0 18 7 20 86 20 l86 0 -7 33 c-12 59 -16 67 -45 82 -49 25
-88 19 -126 -19z m102 -4 c11 -7 34 -45 34 -56 0 -3 -29 -6 -65 -6 -58 0 -65
2 -65 19 0 36 64 64 96 43z"/>
<path d="M8650 755 c0 -108 1 -115 20 -115 18 0 20 7 20 76 0 87 11 114 45
114 18 0 25 5 25 20 0 24 -32 27 -51 4 -11 -14 -13 -14 -21 0 -5 9 -16 16 -23
16 -12 0 -15 -21 -15 -115z"/>
<path d="M8800 755 c0 -96 3 -115 15 -115 12 0 15 15 15 74 0 82 22 126 64
126 38 0 46 -19 46 -112 0 -81 2 -88 20 -88 19 0 20 7 20 95 0 82 -3 98 -20
115 -24 24 -77 26 -108 4 -20 -14 -22 -14 -22 0 0 9 -7 16 -15 16 -12 0 -15
-19 -15 -115z"/>
<path d="M9067 849 c-59 -46 -56 -162 6 -199 38 -24 68 -25 106 -6 34 18 59
66 34 66 -8 0 -26 -11 -39 -25 -13 -14 -32 -25 -42 -25 -25 0 -58 29 -67 58
-6 22 -5 22 79 22 l86 0 0 36 c0 78 -100 123 -163 73z m105 -26 c10 -9 18 -24
18 -35 0 -16 -8 -18 -65 -18 -36 0 -65 4 -65 9 0 4 9 20 21 35 24 30 63 34 91
9z"/>
<path d="M4711 1334 c-20 -25 -21 -39 -21 -243 l0 -217 -31 -30 c-150 -142
-174 -372 -58 -548 55 -83 143 -143 252 -172 138 -37 285 7 401 120 l57 56 97
0 c63 0 102 4 110 12 9 9 12 137 12 513 0 474 -1 503 -18 518 -17 15 -59 17
-400 17 l-381 0 -20 -26z m784 -159 l0 -140 -382 -3 -383 -2 0 145 0 145 383
-2 382 -3 0 -140z m3 -332 l3 -153 -79 0 -78 0 -21 43 c-92 187 -344 278 -536
194 l-57 -26 0 43 c0 23 3 46 7 49 4 4 176 6 382 5 l376 -3 3 -152z m-467 30
c33 -35 52 -71 44 -83 -3 -6 -28 -10 -56 -10 l-49 0 0 70 c0 64 2 70 18 61 9
-5 29 -22 43 -38z m-103 -25 l-3 -63 -44 -3 c-24 -2 -48 1 -53 6 -13 13 5 47
45 90 47 49 58 43 55 -30z m-136 -6 c-27 -53 -27 -53 -67 -46 -22 3 -42 8 -44
10 -6 6 48 47 93 71 23 11 42 20 43 19 2 -1 -10 -26 -25 -54z m404 -14 c21
-22 19 -24 -27 -32 -35 -6 -37 -5 -62 45 -15 28 -27 53 -27 56 0 8 99 -50 116
-69z m-474 -75 c24 -5 29 -10 23 -27 -3 -12 -8 -54 -12 -93 l-6 -73 -82 0 -82
0 8 43 c10 53 25 92 51 135 17 28 25 32 45 27 14 -3 39 -9 55 -12z m567 -42
c17 -32 34 -80 37 -105 l7 -46 -80 0 -80 0 -7 68 c-3 37 -9 79 -12 93 -5 24
-2 27 38 36 23 6 48 11 54 12 6 0 25 -26 43 -58z m-359 -61 l0 -90 -80 0 -80
0 0 27 c0 14 5 55 11 90 l11 63 69 0 69 0 0 -90z m187 30 c6 -30 12 -70 12
-87 l1 -33 -80 0 -80 0 0 90 0 91 68 -3 67 -3 12 -55z m381 -187 l-3 -158 -82
-3 c-46 -2 -83 1 -83 6 0 28 32 82 49 82 26 0 54 35 54 67 0 18 -11 36 -31 53
-21 17 -32 38 -37 68 l-7 42 71 0 72 0 -3 -157z m-765 -55 c4 -40 9 -83 13
-95 7 -24 -13 -33 -77 -36 -27 -2 -34 3 -56 46 -15 27 -32 73 -39 103 l-12 54
82 0 83 0 6 -72z m197 -18 l0 -90 -49 0 c-27 0 -56 -3 -64 -6 -19 -7 -35 37
-43 122 l-7 64 82 0 81 0 0 -90z m200 68 c-1 -28 -25 -157 -31 -162 -2 -2 -32
-1 -66 2 l-63 4 0 89 0 89 80 0 c76 0 80 -1 80 -22z m197 -19 c-3 -23 -20 -70
-37 -106 l-32 -65 -37 7 c-71 12 -74 14 -67 48 3 18 9 60 12 95 l7 62 80 0 80
0 -6 -41z m70 25 c3 -8 -2 -23 -11 -32 -15 -15 -16 -14 -16 16 0 33 16 43 27
16z m-467 -275 c0 -42 -4 -59 -13 -59 -22 0 -97 88 -97 114 0 6 91 13 103 8 4
-2 7 -30 7 -63z m149 55 c5 -5 -27 -54 -57 -86 -40 -44 -52 -37 -52 30 0 32 3
62 6 65 6 6 94 -2 103 -9z m-285 -48 c14 -25 26 -47 26 -51 0 -8 -59 23 -97
52 -18 13 -33 28 -33 33 0 8 58 19 72 13 3 -2 18 -23 32 -47z m410 34 c9 -9
-91 -80 -112 -80 -8 0 -4 16 13 50 24 47 27 49 58 43 17 -3 36 -9 41 -13z"/>
<path d="M5326 1249 c-33 -26 -35 -70 -4 -99 35 -33 80 -25 102 19 16 31 7 62
-26 85 -29 21 -40 20 -72 -5z m68 -34 c9 -24 -4 -45 -29 -45 -27 0 -40 26 -24
46 15 18 45 18 53 -1z"/>
<path d="M4845 1209 c-16 -25 18 -29 201 -27 160 3 189 5 189 18 0 13 -29 15
-192 18 -132 2 -194 -1 -198 -9z"/>
<path d="M5326 879 c-62 -49 -6 -141 69 -113 24 10 44 55 35 80 -9 23 -47 54
-66 54 -6 0 -23 -9 -38 -21z m63 -33 c16 -20 3 -46 -24 -46 -13 0 -26 7 -29
16 -7 19 10 44 29 44 7 0 18 -6 24 -14z"/>
<path d="M3330 1240 c0 -5 7 -10 15 -10 12 0 15 -18 15 -100 0 -82 -3 -100
-15 -100 -8 0 -15 -4 -15 -10 0 -6 27 -10 60 -10 33 0 60 4 60 10 0 6 -16 10
-35 10 -34 0 -35 1 -35 40 0 40 0 40 40 40 75 0 111 35 96 93 -3 13 -17 29
-31 35 -32 15 -155 16 -155 2z m148 -26 c47 -33 14 -84 -55 -84 l-43 0 0 50 0
50 38 0 c21 0 48 -7 60 -16z"/>
<path d="M3707 1180 c-30 -24 -37 -25 -37 -5 0 10 -10 15 -30 15 -16 0 -30 -4
-30 -10 0 -5 9 -10 20 -10 18 0 20 -7 20 -70 0 -68 -1 -70 -25 -70 -14 0 -25
-4 -25 -10 0 -6 33 -10 80 -10 47 0 80 4 80 10 0 6 -20 10 -45 10 l-45 0 0 44
c0 38 5 48 35 75 40 35 39 35 65 21 12 -6 21 -7 25 -1 6 11 -25 31 -48 31 -8
0 -26 -9 -40 -20z"/>
<path d="M3901 1186 c-49 -27 -64 -86 -34 -136 38 -66 134 -65 169 1 46 91
-47 184 -135 135z m83 -17 c35 -16 52 -61 37 -98 -12 -28 -47 -51 -77 -51 -23
0 -74 55 -74 80 0 25 51 80 74 80 8 0 26 -5 40 -11z"/>
<path d="M4110 1185 c0 -2 18 -21 41 -42 l41 -39 -46 -42 c-25 -23 -46 -45
-46 -47 0 -3 18 -5 40 -5 39 0 56 15 24 22 -12 2 -9 9 13 31 l29 27 29 -30
c22 -23 25 -30 12 -30 -9 0 -17 -4 -17 -10 0 -5 18 -10 40 -10 22 0 40 2 40 5
0 2 -21 24 -46 47 l-46 43 41 36 c22 20 41 39 41 43 0 3 -16 6 -35 6 -19 0
-35 -4 -35 -10 0 -5 5 -10 12 -10 6 0 1 -11 -12 -25 l-24 -25 -23 22 c-13 13
-19 24 -14 26 24 8 9 22 -24 22 -19 0 -35 -2 -35 -5z"/>
<path d="M4360 1181 c0 -5 6 -13 13 -19 7 -6 28 -42 46 -80 31 -64 32 -71 20
-98 -11 -22 -22 -30 -47 -32 -56 -6 -35 -22 28 -22 33 0 60 4 60 10 0 6 -7 10
-15 10 -8 0 -15 2 -15 5 0 12 103 210 111 213 22 9 6 22 -26 22 -19 0 -35 -4
-35 -10 0 -5 7 -10 15 -10 11 0 7 -15 -17 -65 l-32 -65 -32 62 c-25 48 -29 64
-18 66 28 7 13 22 -21 22 -19 0 -35 -4 -35 -9z"/>
<path d="M4273 753 c3 -10 12 -35 21 -55 l16 -38 -1010 0 c-555 0 -1010 2
-1010 5 0 2 7 23 16 45 9 23 14 44 10 47 -7 8 -227 -119 -228 -131 0 -11 210
-135 229 -136 8 0 3 19 -12 55 l-25 55 1010 0 c699 0 1010 -3 1010 -10 0 -6
-7 -25 -16 -41 -31 -62 -13 -60 108 9 65 37 116 71 114 77 -3 10 -215 135
-230 135 -4 0 -6 -8 -3 -17z"/>
<path d="M6885 685 l24 -55 -576 0 c-456 0 -574 3 -570 13 3 6 12 29 21 50 11
24 13 37 5 37 -11 0 -216 -114 -232 -129 -7 -7 177 -118 226 -136 21 -9 21 -7
-3 51 -11 26 -19 48 -18 50 6 6 1138 9 1138 2 0 -3 -9 -27 -20 -52 -11 -27
-15 -46 -9 -46 11 0 190 99 223 123 17 13 8 20 -97 80 -64 37 -121 67 -127 67
-5 0 1 -25 15 -55z"/>
</g>
</svg>
