<?xml version="1.0" standalone="no"?>
<!DOCTYPE svg PUBLIC "-//W3C//DTD SVG 20010904//EN"
 "http://www.w3.org/TR/2001/REC-SVG-20010904/DTD/svg10.dtd">
<svg version="1.0" xmlns="http://www.w3.org/2000/svg"
 width="300.000000pt" height="225.000000pt" viewBox="0 0 300.000000 225.000000"
 preserveAspectRatio="xMidYMid meet">
<metadata>
Created by potrace 1.10, written by Peter Selinger 2001-2011
</metadata>
<g transform="translate(0.000000,225.000000) scale(0.100000,-0.100000)"
fill="#000000" stroke="none">
<path d="M1436 2235 c-10 -8 -23 -12 -27 -9 -5 3 -9 0 -9 -6 0 -15 -41 -49
-58 -50 -8 0 -10 -5 -6 -12 4 -7 -7 -1 -25 11 -22 16 -36 20 -43 13 -13 -13
28 -55 45 -47 7 4 4 0 -6 -9 -11 -8 -25 -12 -31 -10 -7 3 -19 -2 -26 -11 -9
-11 -9 -15 -1 -15 7 0 10 -4 7 -9 -10 -15 26 -6 38 10 21 27 113 99 119 93 3
-4 23 10 44 30 32 30 35 36 18 36 -11 -1 -29 -7 -39 -15z"/>
<path d="M1558 2234 c23 -16 32 -41 10 -28 -7 5 0 -7 15 -25 20 -24 25 -37 18
-44 -8 -8 -4 -18 10 -33 18 -19 25 -21 40 -11 15 9 23 7 50 -18 35 -34 74 -85
64 -85 -4 0 -26 21 -50 46 -28 31 -47 44 -55 39 -10 -6 -7 -13 11 -29 14 -12
38 -40 53 -64 l29 -42 21 22 c23 25 30 48 13 45 -7 -1 -11 4 -10 10 4 16 -116
112 -139 113 -11 0 -18 8 -18 19 0 36 22 35 56 -2 25 -27 40 -35 61 -33 42 5
41 32 -1 46 -45 14 -66 38 -45 51 12 7 11 9 -3 9 -9 0 -20 -4 -23 -10 -11 -17
-57 -6 -72 17 -9 13 -25 23 -36 23 -21 0 -21 0 1 -16z"/>
<path d="M1494 2218 c-10 -12 -13 -18 -6 -14 15 9 16 -6 0 -22 -17 -17 -31
-15 -24 3 3 8 -30 -11 -74 -43 -44 -31 -80 -62 -80 -68 0 -7 -12 -15 -27 -19
-21 -5 -24 -8 -12 -16 22 -14 24 -12 84 40 31 27 70 56 88 65 18 9 41 23 52
31 19 13 24 13 43 -1 12 -8 22 -20 22 -26 0 -6 -11 -1 -25 12 -14 13 -25 19
-25 14 0 -19 61 -57 73 -45 7 7 -2 22 -30 51 -23 23 -34 40 -26 40 8 0 11 5 8
10 -9 15 -20 12 -41 -12z"/>
<path d="M1443 2117 c-145 -113 -167 -127 -180 -116 -10 9 -13 6 -13 -14 0
-46 56 -40 133 15 21 15 45 24 53 21 17 -6 19 -23 3 -23 -6 0 -43 -23 -82 -50
-57 -40 -73 -47 -75 -35 -2 10 -10 14 -19 11 -8 -3 -17 -6 -19 -6 -2 0 -4 -7
-4 -16 0 -8 5 -12 10 -9 6 3 10 1 10 -4 0 -6 -5 -11 -12 -11 -9 0 -9 -3 0 -12
9 -9 16 -8 30 5 23 21 39 22 22 2 -10 -13 -6 -12 18 2 18 10 32 21 32 25 0 4
21 22 48 39 26 18 61 49 78 68 l31 35 28 -19 c45 -32 78 -53 108 -70 16 -9 54
-36 86 -60 59 -45 101 -55 101 -24 0 16 -30 49 -45 49 -4 0 0 -10 11 -22 l19
-21 -32 18 c-18 10 -53 38 -78 62 -44 40 -57 48 -79 44 -6 -1 -88 46 -115 66
-3 2 0 8 5 13 7 7 26 -1 57 -25 27 -20 52 -32 61 -29 11 4 -1 18 -44 51 -33
24 -62 49 -65 54 -8 13 -26 11 -22 -2 3 -16 -126 -114 -131 -99 -2 6 5 18 16
26 25 17 108 94 102 94 -3 0 -24 -15 -47 -33z"/>
<path d="M1063 2110 c6 -19 -11 -52 -24 -45 -5 4 -9 1 -9 -4 0 -15 9 -14 35 7
21 16 21 20 8 38 -9 11 -13 13 -10 4z"/>
<path d="M1432 1926 c-46 -35 -82 -67 -80 -72 5 -13 15 -8 90 47 37 27 71 49
74 49 4 0 23 -12 42 -27 19 -14 45 -27 58 -29 13 -1 37 -12 54 -24 16 -12 30
-17 30 -11 0 18 16 13 48 -14 31 -26 42 -30 42 -17 0 4 -26 22 -57 40 -32 18
-69 40 -83 50 -13 9 -21 11 -16 5 13 -23 -5 -14 -56 27 -28 22 -53 40 -57 40
-3 0 -44 -29 -89 -64z"/>
<path d="M1463 1879 c-24 -17 -43 -34 -43 -39 0 -15 -58 -42 -62 -29 -2 6 -20
-1 -41 -15 -30 -21 -37 -22 -37 -10 0 13 -8 11 -35 -10 -41 -32 -49 -13 -10
24 27 25 27 34 1 24 -9 -3 -16 -12 -16 -19 0 -7 -7 -15 -15 -19 -19 -7 -20
-55 -1 -62 7 -3 41 14 75 37 58 40 63 41 79 26 15 -16 15 -17 -4 -17 -12 0
-39 -14 -60 -31 -22 -17 -50 -35 -64 -41 -23 -9 -23 -10 -7 -20 14 -7 16 -13
6 -24 -6 -7 -15 -12 -19 -9 -4 3 -10 -2 -14 -10 -3 -8 2 -18 11 -23 18 -11 9
-34 -11 -26 -20 8 -30 -28 -10 -39 14 -8 11 -12 -15 -28 -17 -10 -31 -23 -31
-29 0 -18 31 -24 53 -11 14 9 22 10 30 2 17 -17 25 -13 29 11 2 14 22 31 60
52 34 18 58 38 58 48 0 13 -10 11 -57 -15 -32 -17 -66 -41 -76 -54 -10 -13
-25 -23 -33 -23 -13 0 -12 4 1 30 18 35 19 43 3 35 -7 -4 0 5 16 19 21 18 37
23 56 19 18 -3 38 3 66 22 21 15 59 38 84 51 25 13 53 30 62 36 13 10 26 6 69
-21 28 -17 58 -30 66 -26 9 3 26 -7 41 -22 34 -36 68 -62 58 -45 -11 19 16 14
44 -8 28 -22 21 -26 -13 -9 -30 16 -19 5 26 -25 43 -30 67 -33 67 -10 0 10 -6
14 -15 10 -12 -4 -14 2 -10 36 3 23 1 46 -6 54 -13 16 -33 19 -24 4 14 -22
-25 -8 -94 35 -40 25 -75 45 -77 45 -3 0 0 -9 6 -19 16 -31 12 -34 -20 -11
-17 12 -35 18 -42 14 -7 -4 -10 -4 -6 1 4 4 0 14 -8 22 -20 21 -8 36 19 22 25
-13 15 -2 -27 29 l-28 22 -27 -28 c-15 -15 -35 -32 -46 -39 -20 -11 -20 -11 0
-10 11 1 28 12 38 25 22 26 37 28 37 5 0 -16 -18 -27 -104 -62 -5 -2 -6 4 -3
13 4 11 -11 5 -48 -18 -73 -47 -135 -78 -135 -68 0 13 40 47 97 81 29 18 55
41 58 52 9 27 115 94 132 83 6 -5 52 -37 102 -71 57 -40 91 -58 94 -50 5 15
43 -5 40 -21 -1 -6 4 -15 12 -22 19 -16 55 4 55 30 0 22 -10 26 -27 9 -12 -12
-37 -3 -29 10 3 4 -8 18 -24 30 -17 12 -27 15 -24 8 3 -10 -4 -14 -26 -14 -35
0 -37 7 -12 30 25 23 33 22 79 -12 39 -28 40 -28 64 -10 20 15 22 20 11 31
-10 10 -14 10 -22 -2 -7 -12 -17 -9 -54 18 -52 37 -81 42 -71 12 3 -11 4 -20
1 -20 -3 0 -42 25 -86 55 -44 30 -84 55 -88 55 -4 -1 -26 -14 -49 -31z m117
-24 c7 -9 11 -18 8 -20 -9 -10 -38 7 -38 21 0 18 14 18 30 -1z m208 -231 c12
-8 20 -19 17 -24 -8 -13 -55 10 -55 27 0 17 11 17 38 -3z"/>
<path d="M1488 1678 c-2 -6 -29 -24 -59 -40 -40 -21 -47 -27 -25 -24 16 3 36
12 46 21 31 28 61 26 127 -10 64 -35 103 -67 103 -85 0 -6 -12 -3 -27 7 -16 9
-24 13 -20 7 5 -5 32 -23 60 -40 29 -17 53 -38 55 -47 3 -12 -14 -6 -63 24
-74 45 -95 42 -77 -8 l10 -28 1 28 1 28 63 -36 c35 -19 71 -35 81 -35 9 0 30
-13 48 -30 17 -16 34 -30 37 -30 9 0 73 -62 68 -66 -6 -6 -66 21 -102 46 -16
11 -34 20 -40 20 -5 -1 -2 -5 8 -11 9 -5 17 -17 17 -24 0 -17 -16 -20 -25 -5
-4 7 -12 7 -24 0 -10 -5 -20 -8 -22 -7 -3 1 1 -4 7 -11 6 -8 28 -14 48 -15 20
-1 36 -3 36 -7 0 -3 9 -11 20 -18 31 -19 110 3 110 32 0 30 -8 38 -72 71 -54
28 -72 45 -48 45 6 0 10 6 10 14 0 8 5 16 12 18 16 6 2 38 -17 38 -8 0 -59 26
-113 58 -156 94 -230 132 -234 120z m253 -146 c43 -29 97 -85 74 -78 -34 12
-112 69 -112 83 0 17 7 16 38 -5z"/>
<path d="M1484 1619 c-8 -13 -91 -60 -111 -63 -9 -2 -19 -8 -21 -15 -3 -10 0
-10 17 -2 27 15 30 -5 4 -25 -10 -7 -15 -16 -11 -20 12 -12 49 28 43 45 -3 8
-3 12 1 9 4 -4 26 4 50 18 37 22 46 24 66 13 13 -7 29 -12 36 -11 6 2 12 -4
12 -13 0 -18 23 -20 38 -2 8 9 -5 20 -54 43 -36 17 -67 27 -70 23z"/>
<path d="M1381 1460 c-67 -38 -132 -72 -143 -75 -18 -6 -18 -8 -3 -19 15 -11
14 -13 -10 -24 -32 -15 -43 -9 -25 13 8 9 8 15 2 15 -6 0 -14 -5 -17 -10 -10
-15 -86 -52 -93 -45 -7 7 76 85 90 85 5 0 39 20 76 45 37 25 72 45 79 45 7 0
13 7 13 17 0 15 -2 15 -17 1 -28 -25 -125 -68 -136 -61 -6 3 -7 1 -4 -4 10
-16 -18 -24 -32 -10 -7 7 -11 8 -10 2 5 -23 -22 -63 -51 -75 -26 -11 -31 -17
-28 -43 3 -30 13 -35 80 -40 14 -1 15 -4 5 -16 -10 -12 -9 -14 3 -9 52 19 60
19 54 4 -3 -9 -12 -16 -19 -16 -7 0 -18 -7 -26 -16 -8 -10 -21 -13 -36 -9 -20
5 -23 2 -23 -26 0 -32 5 -34 51 -15 29 12 31 -30 2 -43 -31 -14 -33 -14 -33 7
-1 16 -2 16 -15 -1 -19 -26 -9 -44 27 -53 25 -5 34 -2 48 16 9 12 35 30 58 40
23 11 47 30 53 43 6 13 26 32 45 41 42 19 42 19 46 2 2 -11 17 -7 68 16 l65
30 -33 10 c-27 7 -38 5 -62 -12 -24 -17 -30 -18 -30 -6 0 8 7 22 16 30 34 34
50 37 116 16 35 -11 73 -20 86 -20 15 0 22 -6 22 -20 0 -18 -3 -19 -21 -10
-11 7 -23 9 -26 7 -2 -3 12 -13 32 -23 30 -14 41 -15 56 -6 27 17 45 15 72
-10 13 -13 34 -30 47 -38 12 -8 34 -27 48 -42 14 -15 33 -30 44 -34 10 -3 16
-10 13 -15 -4 -5 1 -9 9 -9 31 0 15 31 -25 49 -37 17 -39 20 -20 26 17 5 21
14 21 51 0 32 -4 44 -15 44 -8 0 -15 -7 -15 -15 0 -8 -6 -15 -12 -15 -7 -1 -2
-7 11 -14 15 -8 20 -16 13 -20 -12 -7 -122 42 -122 55 0 4 -15 11 -32 14 -18
4 -44 13 -58 21 -14 7 -53 27 -87 43 -60 28 -65 29 -98 15 -46 -19 -48 -18
-41 10 5 21 3 23 -16 18 -36 -9 -11 16 42 43 l49 25 32 -19 c28 -17 34 -18 53
-5 19 12 25 12 45 -2 16 -11 19 -20 12 -27 -7 -7 0 -15 22 -26 27 -14 36 -14
60 -3 15 7 27 17 27 20 0 4 -29 22 -65 41 -38 19 -63 38 -59 45 3 6 -2 2 -10
-8 -9 -11 -16 -15 -16 -10 0 5 -15 18 -32 28 -18 11 -42 27 -53 37 -20 18 -23
17 -144 -51z m159 13 c22 -10 40 -21 40 -25 0 -11 -2 -10 -43 7 -30 12 -38 13
-49 1 -8 -7 -25 -17 -38 -21 -14 -4 -35 -18 -48 -31 -13 -12 -37 -26 -54 -29
-26 -6 -80 -45 -62 -45 4 0 1 -7 -6 -15 -7 -9 16 -2 55 16 68 30 95 29 82 -5
-5 -13 -165 -96 -187 -96 -12 0 -2 29 18 52 13 16 12 17 -16 8 -17 -4 -36 -11
-42 -15 -5 -3 -10 2 -10 13 0 22 18 32 56 32 14 0 24 6 24 14 0 14 96 86 115
86 6 0 33 16 60 35 28 19 53 34 57 35 5 0 26 -8 48 -17z m-255 -272 c19 -8 19
-8 -2 -19 -12 -7 -28 -9 -36 -6 -8 3 -18 1 -22 -5 -3 -6 -10 -11 -16 -11 -10
0 -12 33 -2 43 8 9 53 8 78 -2z"/>
<path d="M1057 1273 c-4 -3 -7 -19 -7 -34 0 -15 -7 -34 -15 -43 -9 -8 -16 -18
-15 -21 0 -3 0 -9 0 -14 0 -5 -23 -25 -50 -45 -30 -22 -48 -41 -44 -48 4 -7 3
-8 -4 -4 -15 9 -52 -11 -52 -29 0 -19 -17 -28 -26 -14 -4 8 -3 9 4 5 12 -7 17
6 6 16 -8 8 -98 -28 -102 -41 -5 -15 15 -14 21 2 4 9 6 9 6 -1 1 -7 -4 -22 -9
-32 -9 -16 -8 -18 6 -13 13 5 15 3 10 -8 -4 -8 -1 -5 8 5 8 10 13 24 9 30 -3
6 -3 8 2 4 4 -4 14 0 21 10 8 9 14 12 14 5 0 -6 -5 -15 -10 -18 -6 -4 -17 -22
-25 -41 -18 -43 -40 -52 -66 -28 -17 16 -20 27 -15 61 3 23 2 45 -3 47 -13 9
-31 -18 -22 -32 9 -15 3 -61 -11 -78 -9 -12 23 -20 100 -28 33 -3 37 3 33 50
-1 16 6 24 24 28 14 4 24 10 21 15 -3 4 25 25 62 45 60 33 71 44 105 105 20
38 44 72 53 75 8 3 12 10 9 16 -3 5 -1 10 5 10 6 0 4 10 -6 25 -17 26 -26 30
-37 18z"/>
<path d="M652 1217 c-32 -34 -27 -55 4 -23 29 29 40 31 80 16 19 -8 30 -7 42
2 13 11 11 14 -14 19 -60 13 -90 9 -112 -14z"/>
<path d="M1410 1173 c-69 -30 -145 -61 -170 -68 -43 -12 -44 -13 -15 -17 29
-3 28 -4 -27 -32 -42 -21 -61 -26 -70 -18 -10 8 -20 5 -38 -9 -23 -18 -24 -20
-7 -30 13 -8 16 -18 11 -48 -5 -34 -3 -40 15 -46 11 -3 29 -1 40 4 24 14 51
14 51 2 0 -5 -12 -11 -27 -13 -14 -2 -29 -9 -31 -17 -4 -11 0 -12 14 -6 11 4
33 9 49 10 17 1 49 11 72 23 23 12 49 22 57 22 9 0 12 7 9 19 -6 24 45 54 85
49 l27 -3 -35 -23 c-41 -26 -27 -29 31 -6 34 14 47 15 82 4 23 -7 51 -18 61
-26 11 -7 52 -23 90 -34 39 -12 94 -30 121 -40 62 -24 79 -25 116 -3 25 15 31
15 38 4 5 -8 10 -9 12 -3 3 7 18 7 50 0 36 -8 61 -7 112 4 l66 15 -5 -81 c-3
-45 -13 -103 -21 -129 -8 -27 -13 -51 -10 -53 11 -11 37 96 43 179 7 85 15
110 30 86 4 -7 3 -10 -2 -6 -11 6 -11 -109 -1 -119 4 -4 17 2 30 14 30 29 106
54 140 48 26 -5 37 7 17 19 -12 7 -9 37 4 46 13 10 -2 57 -27 81 -12 12 -40
49 -62 82 -42 63 -72 87 -56 44 7 -20 3 -26 -37 -49 -40 -24 -42 -28 -23 -34
11 -3 21 -13 21 -22 0 -12 7 -14 33 -9 28 5 41 1 72 -24 31 -24 38 -37 40 -70
2 -28 0 -40 -8 -37 -7 2 -19 -1 -27 -8 -17 -14 -113 -46 -119 -40 -2 3 2 11 8
19 7 8 10 20 6 27 -5 8 -2 8 11 1 23 -12 81 9 90 32 3 9 -3 31 -15 49 -20 33
-22 34 -67 27 -25 -4 -49 -12 -53 -17 -11 -17 -73 -31 -168 -38 -82 -6 -93 -5
-93 9 0 9 -4 16 -10 16 -5 0 -10 6 -10 14 0 24 -18 28 -42 11 l-23 -16 24 3
c14 2 26 -3 29 -12 4 -12 2 -13 -9 -3 -10 8 -20 9 -29 3 -13 -8 -13 -10 -1
-10 8 0 12 -3 9 -6 -10 -10 -107 29 -100 41 3 5 -2 4 -10 -3 -14 -11 -24 -10
-62 7 -45 20 -46 20 -46 0 0 -22 -3 -23 -51 -6 -19 7 -34 17 -32 22 1 6 -13
11 -33 12 -20 1 -41 6 -45 10 -5 5 6 7 25 5 48 -6 54 14 9 28 -21 7 -42 16
-47 20 -4 5 -22 2 -40 -5 -61 -25 -75 -27 -72 -11 3 21 88 65 118 61 23 -3
172 -54 235 -80 20 -8 33 -21 33 -32 1 -17 1 -17 10 -1 10 16 13 16 55 0 34
-12 48 -13 56 -5 17 17 3 43 -22 43 -15 0 -19 -5 -15 -15 8 -21 -8 -18 -89 13
-55 22 -71 32 -73 51 -3 20 -5 21 -16 6 -11 -16 -17 -16 -79 4 -37 11 -76 25
-87 31 -16 9 -32 4 -80 -22 -33 -18 -60 -40 -60 -48 0 -9 -19 -23 -46 -33
l-46 -17 5 25 c2 14 0 28 -4 31 -5 3 -9 -8 -9 -24 0 -26 -6 -31 -65 -55 -77
-32 -75 -32 -75 -10 0 23 49 73 65 67 7 -3 16 -1 20 5 4 7 -1 9 -12 5 -10 -3
-2 4 17 15 19 11 42 20 50 21 16 0 139 48 188 74 26 14 35 14 63 2 29 -12 34
-11 51 6 32 32 109 10 94 -27 -4 -12 -10 -14 -25 -5 -25 13 -61 13 -61 0 0
-12 -6 -11 63 -16 32 -2 73 -11 92 -18 29 -13 33 -13 28 0 -3 8 0 14 6 14 23
0 70 -30 73 -46 4 -19 59 -27 95 -13 25 9 28 16 13 39 -7 11 -12 12 -21 3 -6
-6 -19 -9 -28 -6 -26 8 -184 75 -206 86 -11 6 -27 12 -35 12 -18 2 -100 35
-115 45 -5 4 -66 -17 -135 -47z m149 8 c9 -6 10 -11 2 -15 -15 -10 -53 3 -46
15 8 11 26 11 44 0z m741 -149 c-6 -2 -10 -10 -10 -18 0 -9 -4 -12 -10 -9 -5
3 -10 1 -10 -6 0 -7 -3 -9 -6 -6 -4 4 -2 13 4 20 7 8 9 17 5 21 -4 4 -1 11 7
16 9 6 17 5 22 -3 4 -7 3 -13 -2 -15z m-1011 -81 c16 -10 5 -19 -46 -37 -29
-10 -33 -10 -33 6 0 27 52 48 79 31z m1041 -64 c0 -4 -10 -11 -22 -16 -31 -12
-51 5 -38 30 10 17 7 18 -22 13 -33 -5 -33 -5 7 14 l40 19 17 -26 c10 -14 18
-30 18 -34z m-450 13 c31 -7 32 -8 8 -9 -14 0 -28 -7 -30 -15 -2 -12 -11 -11
-48 6 -39 18 -42 22 -25 29 11 4 29 6 40 3 11 -3 36 -9 55 -14z"/>
<path d="M704 1175 c6 -17 -5 -20 -20 -5 -7 7 -20 0 -39 -20 -29 -30 -29 -31
-12 -63 23 -42 52 -55 95 -42 17 5 32 13 32 17 0 4 7 5 15 2 8 -4 27 -3 42 1
24 6 26 8 10 16 -9 6 -29 21 -44 35 -24 22 -23 29 1 25 5 -1 4 4 -2 12 -7 8
-9 17 -5 20 3 4 -1 7 -9 7 -15 0 -72 -67 -81 -94 -6 -17 -37 13 -37 35 0 11 7
20 15 21 8 0 21 1 28 2 15 1 37 28 31 38 -9 14 -26 8 -20 -7z"/>
<path d="M1958 1158 c5 -21 4 -22 -13 -8 -17 14 -17 14 -1 -17 9 -18 16 -36
15 -39 0 -4 10 -14 24 -23 13 -9 36 -30 51 -48 28 -34 105 -83 130 -83 27 0
27 20 0 32 -15 7 -39 23 -53 36 -14 13 -46 38 -71 56 -36 26 -46 40 -53 74 -5
24 -14 42 -22 42 -9 0 -11 -7 -7 -22z"/>
<path d="M2243 1161 c-7 -11 -8 -23 -2 -32 7 -11 9 -9 9 9 0 26 12 28 31 6 9
-11 22 -14 46 -9 18 3 42 1 53 -5 26 -14 26 1 1 17 -11 7 -34 10 -51 8 -18 -2
-42 3 -54 10 -19 13 -23 12 -33 -4z"/>
<path d="M2343 1095 c-10 -8 -13 -15 -8 -16 6 -1 15 -2 20 -4 6 -1 15 -3 22
-3 18 -3 26 -41 12 -58 -6 -8 -9 -18 -5 -22 10 -9 46 36 46 58 0 36 -58 66
-87 45z"/>
<path d="M670 970 c-6 -12 -14 -38 -16 -57 -5 -43 -11 -53 -30 -53 -18 0 -18
12 0 55 16 38 6 49 -11 13 -14 -29 -33 -111 -28 -117 3 -2 14 4 26 15 17 15
34 19 82 17 33 -1 71 -7 84 -14 27 -14 37 -8 29 18 -5 15 -18 18 -73 21 -37 1
-68 4 -70 5 -1 2 4 28 11 58 16 59 14 73 -4 39z"/>
<path d="M1410 870 c-36 -10 -104 -32 -152 -49 -49 -17 -90 -31 -92 -31 -3 0
-6 15 -8 33 -3 29 -6 32 -35 32 -18 0 -33 3 -33 7 0 4 -6 5 -12 3 -8 -3 -14
-27 -15 -60 -2 -60 11 -72 57 -49 14 7 48 15 75 18 45 5 47 5 20 -5 -16 -7
-38 -18 -47 -27 -10 -8 -26 -12 -38 -9 -12 3 -20 0 -20 -8 0 -7 -16 -16 -35
-19 -43 -8 -55 -30 -52 -92 2 -47 3 -49 30 -47 15 1 25 -2 22 -6 -2 -5 12 0
32 10 43 22 84 24 101 7 9 -9 12 -9 12 3 0 12 2 12 10 -1 5 -9 5 -19 0 -25 -6
-8 -4 -19 5 -31 13 -18 14 -17 15 14 0 18 5 42 10 52 11 20 66 40 111 40 23 0
25 -3 21 -32 -6 -45 -17 -55 -64 -63 -22 -4 -48 -15 -57 -24 -35 -34 -121 -64
-121 -42 0 13 11 19 44 25 37 7 46 16 15 16 -31 0 -75 -23 -72 -38 2 -7 -4 -9
-15 -5 -33 12 -43 26 -38 52 4 21 2 20 -9 -7 -14 -29 -17 -31 -35 -20 -19 12
-19 14 -3 26 17 13 17 14 -1 27 -14 11 -23 12 -33 4 -18 -15 -17 -64 2 -79 8
-7 15 -23 15 -36 0 -20 -5 -24 -29 -24 -49 0 -57 -7 -53 -45 4 -32 2 -35 -23
-35 -25 0 -26 -2 -20 -32 7 -33 7 -33 -13 -15 -17 15 -23 16 -40 6 -28 -17
-16 -39 22 -39 69 0 95 -22 61 -50 -29 -24 -7 -21 29 4 20 13 55 27 77 31 34
6 45 4 62 -14 25 -25 22 -28 -40 -47 -43 -12 -46 -12 -29 1 18 14 39 19 59 16
14 -2 7 17 -9 23 -22 8 -128 -45 -112 -56 8 -5 1 -6 -17 -2 -16 4 -47 20 -69
36 -21 15 -45 28 -53 28 -7 0 -13 9 -13 20 0 13 -7 20 -20 20 -11 0 -20 -6
-20 -14 0 -16 -27 -29 -42 -20 -5 3 -17 0 -26 -8 -9 -8 -29 -20 -44 -28 -16
-7 -28 -19 -28 -26 0 -19 -20 -28 -33 -15 -8 8 -8 11 1 11 6 0 17 27 24 60 7
37 18 62 28 65 18 6 48 70 66 145 7 30 20 76 28 102 8 27 11 50 6 53 -5 3 -12
-11 -16 -32 -4 -21 -11 -45 -15 -53 -6 -9 -6 -4 -2 15 4 17 7 62 7 102 -1 67
0 71 17 60 14 -8 18 -20 15 -44 -3 -25 -1 -33 11 -33 13 0 13 3 3 15 -10 13
-9 15 8 15 26 0 38 39 45 140 5 73 -3 60 -18 -30 -8 -53 -20 -67 -40 -50 -12
10 -13 15 -3 21 22 14 2 19 -30 8 -24 -8 -31 -16 -31 -37 1 -72 -4 -128 -13
-145 -6 -13 -6 -23 3 -33 10 -12 9 -13 -5 -8 -14 5 -17 2 -15 -12 2 -10 -4
-30 -14 -44 -20 -28 -22 -46 -6 -56 8 -4 9 0 4 15 -4 12 -2 21 4 21 6 0 20 15
31 33 30 48 24 20 -9 -45 -16 -31 -27 -59 -25 -61 3 -2 -2 -10 -10 -16 -12
-10 -13 -8 -9 11 3 13 3 20 -1 17 -3 -3 -8 -19 -10 -35 -5 -39 -24 -87 -39
-96 -21 -13 -47 -9 -41 7 3 8 9 14 12 13 4 -1 15 2 25 6 17 8 25 56 8 56 -5 0
-7 9 -4 20 3 11 9 20 14 20 5 0 8 3 8 8 -1 4 0 9 1 12 8 21 6 40 -3 40 -7 0
-5 5 3 10 8 5 11 10 6 10 -5 0 -4 6 1 13 16 20 17 117 1 117 -11 0 -11 2 0 9
16 9 18 21 5 30 -4 3 -13 21 -20 38 -10 31 -9 35 25 72 21 21 44 41 52 44 10
4 8 6 -7 6 -12 1 -28 -7 -35 -17 -16 -23 -55 -45 -61 -34 -10 15 6 63 24 73
21 11 122 15 138 5 6 -4 8 -13 4 -21 -3 -8 0 -15 6 -15 6 0 11 4 11 9 0 5 7
12 16 15 12 5 15 2 10 -11 -5 -13 -4 -15 4 -7 13 13 4 40 -17 49 -41 15 -129
16 -164 1 -33 -14 -37 -20 -48 -74 -6 -33 -21 -70 -32 -83 -11 -13 -16 -25
-11 -27 7 -2 7 -15 1 -35 -11 -39 -11 -39 0 -33 5 3 12 22 15 41 4 20 11 33
15 31 7 -5 11 8 12 47 1 37 17 5 24 -50 12 -94 1 -201 -25 -238 -14 -19 -57
-162 -74 -244 -1 -8 -17 -20 -34 -25 -34 -12 -64 -36 -45 -36 6 0 13 5 15 11
2 6 17 9 33 7 l30 -4 -28 -12 c-16 -7 -53 -12 -84 -12 -48 0 -54 -2 -43 -15
10 -12 10 -15 0 -15 -8 0 -11 -3 -7 -6 5 -6 56 4 148 27 20 5 59 12 85 15 66
8 72 17 8 13 -48 -4 -52 -3 -49 18 1 13 8 29 14 37 7 8 10 20 6 26 -6 9 16 15
39 11 5 -1 4 4 -3 12 -9 12 -8 16 5 21 23 9 23 9 13 -29 -13 -45 -7 -53 47
-66 67 -17 57 -42 -35 -86 -33 -16 -40 -22 -24 -22 12 -1 24 3 27 8 3 5 25 12
49 15 37 6 43 10 42 29 -1 12 3 28 9 36 8 11 8 13 -1 7 -7 -4 -14 -2 -14 3 -1
6 -2 17 -3 24 -1 6 0 17 3 22 3 6 -1 4 -9 -5 -9 -9 -21 -15 -29 -12 -8 3 -3
11 15 23 15 10 31 16 35 14 3 -3 25 5 48 16 23 11 47 17 53 13 6 -4 20 -8 32
-9 11 -1 25 -3 30 -4 5 0 3 -7 -3 -15 -10 -12 -8 -15 10 -18 37 -5 32 -22 -17
-51 -37 -22 -53 -26 -82 -21 -21 4 -34 3 -29 -2 4 -4 17 -9 29 -11 12 -2 25
-8 28 -13 3 -6 16 -2 30 8 24 17 126 58 165 67 37 9 181 15 150 7 -25 -7 -19
-9 40 -15 94 -9 95 -9 89 -18 -2 -4 1 -11 7 -14 6 -4 13 2 16 13 5 22 41 40
83 43 42 2 50 0 44 -15 -4 -9 -16 -12 -40 -9 -28 4 -33 2 -28 -11 3 -9 1 -17
-5 -17 -6 -1 -16 -2 -23 -3 -6 0 -13 -6 -15 -12 -2 -7 7 -10 24 -7 15 2 52 6
81 10 29 3 55 10 58 14 3 5 29 8 57 8 53 -1 51 -3 -17 -14 -29 -5 -36 -9 -25
-16 16 -10 15 -10 -66 -10 -58 -1 -156 -32 -142 -46 4 -3 13 -1 20 5 7 6 43
11 79 11 37 -1 77 2 89 6 15 5 19 4 14 -5 -6 -9 -1 -10 16 -4 13 4 40 9 59 10
32 2 64 7 115 18 11 3 26 5 33 5 6 1 12 6 12 11 0 15 -63 12 -105 -6 -60 -25
-77 -13 -28 20 34 22 48 26 74 21 27 -6 31 -5 26 8 -4 11 1 18 16 23 12 3 29
12 37 20 14 11 22 11 55 -5 22 -10 49 -22 60 -26 20 -7 20 -7 0 -15 -11 -4
-24 -5 -28 -3 -12 7 -67 -18 -67 -31 0 -6 21 -12 53 -12 28 -1 44 1 34 5 -17
6 -16 8 7 20 21 12 28 12 41 1 8 -7 18 -10 22 -6 3 3 1 6 -6 6 -7 0 -9 5 -6
10 3 6 0 10 -8 10 -7 0 -24 11 -36 24 -13 13 -38 27 -57 31 -19 3 -32 10 -29
15 3 5 1 11 -5 15 -5 3 -10 1 -10 -4 0 -6 -9 -11 -20 -11 -11 0 -20 -4 -20 -9
0 -4 -23 -13 -50 -18 -47 -10 -50 -9 -35 7 20 22 19 32 -2 21 -10 -5 -52 -19
-93 -31 -90 -26 -104 -31 -67 -26 15 2 27 0 27 -4 0 -9 -49 -20 -51 -11 -12
55 -7 58 141 85 113 21 164 37 148 47 -6 4 -20 3 -29 -2 -10 -5 -34 -9 -53 -9
-20 0 -36 -3 -36 -7 0 -5 -15 -8 -32 -9 -57 -1 -109 -12 -133 -28 -14 -9 -35
-16 -49 -16 -14 0 -37 -5 -52 -10 -29 -11 -47 -4 -25 9 7 5 9 11 4 14 -14 9
-44 -19 -37 -36 4 -12 1 -14 -15 -10 -11 3 -19 8 -17 12 2 3 -22 7 -55 8 -93
2 -102 5 -85 21 16 17 104 19 132 4 14 -7 24 -6 37 3 18 13 18 14 -2 25 -31
16 -26 38 19 82 22 22 40 42 40 44 0 1 -19 4 -42 6 -46 3 -62 22 -26 31 12 4
19 9 16 12 -3 4 -15 2 -25 -3 -26 -13 -85 -9 -90 6 -3 7 1 10 10 7 7 -3 20 1
27 10 15 18 0 21 -18 3 -9 -9 -12 -8 -12 4 0 9 6 20 13 25 19 13 127 33 143
26 9 -3 14 1 14 14 0 22 42 44 118 63 42 11 101 6 134 -11 26 -14 61 -68 61
-95 0 -30 9 -23 13 9 1 12 3 25 3 28 1 4 16 9 34 12 17 4 48 9 67 13 33 7 34
8 10 14 -14 4 -34 3 -44 -3 -44 -22 -76 -26 -89 -11 -33 40 -62 63 -88 68 -19
3 -29 12 -29 23 0 15 -1 15 -14 -2 -8 -11 -19 -16 -30 -12 -9 4 -16 2 -16 -3
0 -6 -10 -10 -23 -10 -13 0 -28 -5 -34 -11 -6 -6 -16 -8 -22 -5 -15 10 -14 61
2 73 29 24 157 57 157 42 0 -5 8 -9 18 -9 15 1 15 2 -2 12 -26 15 -97 19 -135
8 -19 -5 -31 -5 -31 1 0 5 -7 9 -16 9 -14 0 -15 -3 -3 -17 7 -10 10 -15 5 -11
-4 3 -22 2 -39 -3 -32 -10 -216 -49 -229 -49 -11 0 -10 54 2 84 7 19 22 29 61
40 68 20 72 20 64 -5 -11 -34 -13 -67 -4 -80 10 -17 17 1 21 54 3 37 6 40 53
56 28 10 66 25 85 34 19 8 42 17 50 20 13 4 12 6 -2 12 -10 4 -39 -4 -74 -20
-61 -29 -73 -27 -57 8 13 28 69 47 102 35 17 -6 29 -4 40 5 15 14 25 13 61 0
8 -3 24 -5 35 -4 27 2 60 -23 53 -41 -5 -12 -17 -13 -69 -6 -66 9 -91 5 -40
-7 17 -4 31 -11 31 -17 0 -6 12 -8 27 -5 16 3 79 -10 151 -30 117 -34 140 -46
204 -106 26 -24 18 -43 -16 -39 -25 3 -27 2 -16 -17 6 -12 18 -21 28 -22 10 0
12 -3 5 -6 -10 -4 -10 -9 2 -26 10 -15 12 -24 4 -34 -13 -15 -4 -47 11 -38 6
3 10 -5 10 -19 0 -13 -6 -26 -12 -29 -7 -2 -6 -3 4 -2 9 2 18 -6 21 -16 3 -11
14 -19 26 -19 13 0 26 -10 32 -24 9 -20 8 -27 -9 -44 -13 -13 -24 -16 -34 -11
-10 6 -15 3 -15 -7 0 -11 9 -14 33 -11 22 3 38 0 45 -10 23 -28 69 -45 102
-38 l32 7 -21 -21 c-12 -13 -36 -23 -60 -25 -21 -2 -41 -5 -44 -6 -3 -1 -9 -1
-15 0 -5 1 -7 -2 -3 -6 4 -4 0 -13 -10 -21 -16 -13 -15 -13 3 -5 11 5 26 7 34
4 10 -3 12 0 8 12 -4 9 -2 16 3 16 6 0 10 -4 10 -9 0 -10 32 -10 40 0 5 7 43
12 67 10 6 -1 9 -9 6 -19 -4 -17 2 -19 51 -21 31 -1 56 2 56 7 0 17 -12 21
-36 12 -24 -9 -44 3 -24 15 5 3 10 12 10 18 0 8 -3 8 -9 -1 -6 -10 -11 -5 -20
17 -14 31 -53 48 -89 37 -11 -4 -24 0 -32 9 -7 8 -18 15 -24 15 -8 0 -12 20
-13 55 -2 68 -6 75 -48 75 -33 0 -34 1 -28 37 5 31 4 35 -10 30 -19 -7 -21 1
-7 23 6 10 4 22 -6 37 -13 20 -13 26 0 46 10 15 12 34 8 62 -7 35 -11 40 -45
48 -32 8 -37 13 -37 37 0 24 5 29 28 32 24 3 27 7 25 36 -1 41 1 39 -48 47
l-40 6 28 -25 c15 -14 27 -28 27 -31 0 -18 -199 27 -285 65 -22 10 -56 21 -75
24 -19 3 -46 8 -60 10 -14 3 -54 -4 -90 -14z m-264 -76 c-3 -8 -19 -14 -38
-14 -25 0 -29 3 -18 10 8 5 11 10 5 10 -5 0 4 8 20 18 24 15 31 16 33 5 2 -8
1 -21 -2 -29z m572 6 c2 0 0 -6 -4 -12 -6 -10 -3 -9 9 0 13 11 21 11 49 -1 18
-9 50 -20 70 -27 26 -8 35 -16 31 -26 -9 -24 -63 -14 -63 13 0 10 -6 13 -17 9
-18 -7 -153 31 -153 43 0 16 13 19 43 10 18 -5 33 -9 35 -9z m-410 -12 c-3 -7
-17 -15 -33 -16 -25 -3 -27 -2 -16 12 16 19 55 22 49 4z m-187 -96 c-6 -12
-11 -30 -11 -41 0 -12 -9 -30 -20 -41 -24 -24 -26 -24 -34 -4 -7 19 8 50 42
86 28 31 39 30 23 0z m-26 -231 c9 -16 -35 -35 -48 -22 -9 9 -8 14 3 21 19 12
37 13 45 1z m85 -33 c-1 -16 -42 -47 -67 -51 -10 -1 -23 -6 -30 -10 -26 -16
-22 15 6 43 31 31 91 43 91 18z m-126 -52 c-3 -15 -9 -25 -11 -22 -3 3 -15 1
-27 -3 -18 -7 -21 -5 -22 15 -1 13 1 22 5 20 3 -2 17 2 31 9 30 16 33 14 24
-19z m184 -16 c19 0 34 -50 27 -91 -7 -37 -7 -38 -52 -34 -25 1 -57 -1 -72 -5
-18 -5 -30 -2 -41 10 -8 9 -22 19 -30 22 -9 3 5 11 33 19 26 7 47 17 47 22 0
5 7 4 15 -3 11 -9 18 -10 28 -1 8 6 17 8 20 4 4 -3 7 1 7 10 0 21 -25 21 -100
2 -87 -21 -121 -33 -146 -50 -34 -22 -49 -20 -32 6 22 34 218 103 263 93 11
-2 26 -4 33 -4z"/>
<path d="M1013 830 c-2 -26 12 -33 28 -14 10 13 10 17 -2 25 -21 13 -25 11
-26 -11z"/>
<path d="M2341 790 c-67 -24 -101 -46 -101 -65 0 -18 16 -20 26 -4 11 19 107
59 142 59 46 0 40 -16 -10 -24 -43 -7 -89 -26 -122 -51 -13 -10 -17 -21 -12
-40 4 -14 11 -23 16 -20 5 3 12 -11 16 -31 6 -30 8 -34 16 -19 6 9 11 22 12
28 1 7 6 18 10 26 7 11 6 12 -5 6 -11 -7 -11 -5 1 10 14 17 15 16 20 -16 3
-21 0 -39 -8 -47 -24 -26 -42 -72 -52 -134 -14 -84 -14 -97 4 -117 8 -9 18
-35 22 -59 3 -23 10 -39 14 -37 5 3 6 -4 3 -15 -6 -22 7 -26 24 -9 8 8 13 7
18 -3 5 -7 5 -10 0 -6 -4 4 -16 -2 -27 -14 -10 -12 -14 -24 -9 -27 12 -8 -5
-51 -21 -52 -7 -1 -24 -2 -38 -4 -55 -4 -60 -5 -60 -15 0 -5 7 -10 15 -10 8 0
15 5 15 10 0 6 10 8 23 5 12 -3 35 -7 50 -9 50 -8 97 -27 92 -37 -4 -5 1 -9 9
-9 8 0 18 5 21 10 3 6 1 10 -5 10 -7 0 -10 7 -6 15 3 8 1 15 -3 15 -5 0 -8 18
-7 41 1 22 -1 42 -6 45 -4 3 -5 16 -2 29 3 12 1 26 -4 29 -6 3 -8 15 -5 25 3
10 -5 40 -16 66 -25 56 -26 74 -7 100 13 18 15 16 26 -25 10 -39 49 -104 71
-120 3 -3 19 -30 35 -60 15 -30 31 -57 34 -60 4 -3 10 -19 13 -36 7 -37 -12
-52 -63 -48 -23 2 -30 0 -20 -6 8 -4 57 -10 108 -13 86 -4 94 -7 116 -32 15
-17 26 -23 30 -16 4 6 15 11 26 11 14 0 39 30 28 34 -2 1 -16 8 -33 17 -21 11
-40 14 -63 9 -29 -7 -34 -5 -47 24 -8 17 -16 42 -17 55 -2 14 -11 33 -20 43
-10 10 -18 26 -18 36 0 11 -18 46 -40 79 -51 75 -87 196 -69 229 9 17 14 20
24 11 7 -7 11 -23 8 -35 -2 -16 0 -23 9 -20 20 7 17 86 -5 111 -16 19 -17 22
-3 25 13 3 11 10 -11 45 -14 23 -32 45 -39 50 -7 4 -11 14 -8 22 4 10 -3 18
-21 25 -33 13 -30 13 -94 -10z m104 -50 c3 -5 -14 -14 -37 -20 -36 -9 -66 -21
-121 -48 -5 -3 -4 5 2 16 21 38 140 78 156 52z m25 -77 c13 -40 13 -44 -7 -71
-18 -24 -21 -39 -17 -92 4 -60 4 -63 -13 -48 -25 21 -48 28 -63 18 -8 -5 -19
-2 -29 7 -13 14 -13 17 0 27 8 6 13 19 11 29 -2 10 3 28 12 41 15 24 19 89 4
80 -4 -3 -8 3 -8 13 0 11 11 24 28 30 47 19 66 12 82 -34z m-122 -287 c-10 -7
-15 -15 -12 -18 3 -4 1 -9 -5 -12 -6 -4 -8 1 -6 12 2 10 0 25 -5 32 -4 7 -6
20 -3 27 5 12 10 10 27 -7 20 -20 20 -22 4 -34z"/>
<path d="M1453 734 c-21 -23 -21 -24 -3 -24 11 0 20 7 20 16 0 8 5 12 10 9 6
-3 10 1 10 9 0 22 -11 18 -37 -10z"/>
<path d="M1623 649 c9 -5 17 -18 17 -27 0 -14 2 -14 9 -3 8 12 16 12 55 1 25
-7 46 -16 46 -20 0 -13 94 -17 107 -4 9 8 -18 18 -110 38 -132 28 -152 31
-124 15z"/>
<path d="M1867 450 c3 -11 9 -20 13 -20 5 0 12 -9 15 -20 3 -11 11 -20 16 -20
5 0 0 18 -11 40 -21 42 -42 54 -33 20z"/>
<path d="M837 430 c3 -14 11 -41 18 -60 11 -29 14 -32 20 -16 5 10 3 21 -3 25
-5 3 -17 22 -26 41 -9 21 -13 25 -9 10z"/>
<path d="M1470 399 c-14 -11 -44 -20 -68 -22 -32 -1 -42 -6 -39 -17 2 -8 9
-14 15 -12 7 1 20 3 30 5 9 1 23 7 31 11 8 5 28 12 45 16 17 3 31 12 31 20 0
21 -18 21 -45 -1z"/>
<path d="M1905 355 c-11 -16 -35 -19 -100 -10 -40 5 -40 5 8 -11 27 -8 63 -14
81 -12 28 3 31 6 27 26 -5 19 -8 20 -16 7z"/>
<path d="M747 345 c3 -9 8 -14 10 -11 3 3 15 -6 28 -20 23 -25 35 -30 35 -15
0 5 -9 12 -19 16 -11 3 -23 15 -26 26 -4 10 -13 19 -20 19 -9 0 -12 -6 -8 -15z"/>
<path d="M1923 227 c-2 -19 10 -18 71 9 31 13 31 13 -20 11 -41 -1 -50 -5 -51
-20z"/>
<path d="M548 128 c-5 -27 -3 -28 31 -27 35 1 36 1 9 10 -15 6 -28 18 -30 27
-3 11 -6 7 -10 -10z"/>
<path d="M106 126 c6 -17 18 -21 82 -31 24 -4 42 -3 42 3 0 13 -49 34 -93 39
-30 4 -36 2 -31 -11z"/>
<path d="M255 107 c-16 -39 -47 -62 -71 -53 -8 3 -14 1 -14 -4 0 -19 -39 -10
-45 11 -5 14 -13 19 -26 16 -10 -3 -22 -1 -25 4 -10 17 -43 9 -58 -13 -24 -33
-19 -40 14 -23 38 20 66 19 87 -2 13 -13 32 -18 66 -16 41 1 53 6 75 32 24 27
34 31 87 33 43 2 60 7 60 17 0 9 -15 14 -45 16 -25 1 -55 5 -68 10 -19 6 -24
2 -37 -28z"/>
<path d="M2881 89 c2 -13 0 -30 -4 -36 -6 -9 -1 -13 14 -13 11 0 39 -10 60
-22 41 -23 66 -18 33 7 -10 8 -14 15 -9 15 6 0 0 6 -12 13 -11 6 -36 23 -53
36 l-32 24 3 -24z"/>
<path d="M932 85 c-35 -19 -46 -32 -33 -40 6 -3 14 1 17 9 3 9 9 14 13 13 3
-2 14 4 24 15 19 21 12 22 -21 3z"/>
<path d="M970 65 c-32 -33 -32 -35 -12 -35 12 0 22 4 22 9 0 5 9 13 20 16 11
4 18 10 15 15 -10 16 12 19 31 5 17 -13 17 -16 4 -26 -13 -9 -12 -10 3 -5 10
3 26 6 35 6 15 0 15 2 2 10 -11 7 -11 10 -2 10 7 0 10 5 7 10 -3 6 -2 10 4 10
5 0 13 -4 16 -10 3 -5 43 -10 88 -10 58 0 78 3 70 11 -6 6 -66 12 -140 14
l-130 4 -33 -34z"/>
<path d="M1948 58 c12 -12 24 -19 28 -15 10 10 -16 37 -34 37 -13 0 -12 -4 6
-22z"/>
<path d="M2216 60 c5 -5 25 -12 44 -15 l35 -5 -30 14 c-35 18 -64 21 -49 6z"/>
<path d="M2447 63 c-16 -15 -4 -22 37 -21 24 0 50 5 57 10 9 5 4 6 -15 2 -21
-5 -27 -4 -22 5 8 12 -45 16 -57 4z"/>
<path d="M1154 40 c-12 -4 -24 -15 -27 -23 -4 -12 3 -11 43 4 26 10 51 15 55
11 5 -4 5 -1 1 6 -8 14 -41 15 -72 2z"/>
<path d="M2800 29 c0 -5 -9 -9 -20 -9 -11 0 -20 -4 -20 -10 0 -5 11 -10 25
-10 14 0 25 4 25 9 0 6 12 6 32 0 18 -5 46 -9 63 -8 l30 1 -30 9 c-63 19 -105
27 -105 18z"/>
<path d="M1740 20 c8 -5 18 -6 22 -4 4 3 8 0 8 -5 0 -6 16 -11 36 -11 56 0 26
25 -33 28 -32 1 -43 -1 -33 -8z"/>
<path d="M1306 12 c-2 -4 18 -9 46 -10 29 -1 50 0 47 2 -10 8 -88 15 -93 8z"/>
</g>
</svg>
