<?xml version="1.0" standalone="no"?>
<!DOCTYPE svg PUBLIC "-//W3C//DTD SVG 20010904//EN"
 "http://www.w3.org/TR/2001/REC-SVG-20010904/DTD/svg10.dtd">
<svg version="1.0" xmlns="http://www.w3.org/2000/svg"
 width="1640.000000pt" height="1589.000000pt" viewBox="0 0 1640.000000 1589.000000"
 preserveAspectRatio="xMidYMid meet">

<g transform="translate(0.000000,1589.000000) scale(0.100000,-0.100000)"
fill="#000000" stroke="none">
<path d="M2704 13350 c-72 -5 -174 -13 -225 -20 -504 -65 -923 -380 -1115
-837 -80 -190 -107 -325 -124 -623 -14 -243 -14 -6176 0 -6416 6 -99 20 -233
31 -298 99 -601 569 -1061 1173 -1151 211 -31 459 -35 2214 -35 l1762 0 0
-895 0 -895 -940 0 -940 0 0 -400 0 -400 3610 0 3610 0 0 400 0 400 -970 0
-970 0 0 895 0 894 1913 4 c1954 4 1976 5 2187 43 266 49 521 184 720 384 206
205 341 465 389 751 41 239 43 412 39 3674 -4 2870 -6 3130 -21 3245 -24 172
-49 272 -103 403 -104 255 -273 467 -491 618 -142 98 -345 185 -509 218 -236
47 13 45 -5709 47 -2970 0 -5459 -2 -5531 -6z m10872 -161 c99 -5 229 -19 290
-29 439 -75 797 -374 949 -794 46 -127 71 -276 84 -499 15 -241 15 -6157 1
-6399 -13 -205 -33 -344 -67 -452 -94 -298 -297 -550 -568 -705 -182 -104
-379 -152 -696 -170 -258 -15 -10598 -15 -10845 0 -99 5 -229 19 -290 29 -449
77 -812 389 -963 829 -32 93 -58 264 -70 458 -15 234 -15 6159 -1 6409 22 369
81 565 242 801 66 95 216 239 324 310 210 136 413 194 747 212 229 13 10653
13 10863 0z m-3816 -10114 l0 -895 -1640 0 -1640 0 0 895 0 895 1640 0 1640 0
0 -895z"/>
<path d="M8520 12620 l0 -360 2755 0 2755 0 0 360 0 360 -2755 0 -2755 0 0
-360z m5450 0 l0 -300 -2555 0 -2555 0 0 68 1 67 23 -29 c21 -25 26 -27 45
-16 27 14 25 21 -38 108 l-51 69 17 34 c23 45 21 113 -4 147 -67 91 -176 96
-247 12 l-26 -32 0 86 0 86 2695 0 2695 0 0 -300z m-5179 167 c64 -43 70 -134
13 -188 -20 -19 -36 -24 -79 -24 -62 0 -99 26 -114 83 -21 72 39 152 114 152
18 0 47 -10 66 -23z m-134 -232 c26 -13 51 -16 87 -12 45 4 53 2 69 -19 l18
-24 -74 0 c-43 0 -78 -5 -85 -12 -7 -7 -12 -43 -12 -90 l0 -78 -40 0 -40 0 0
158 0 157 21 -32 c11 -17 36 -39 56 -48z m183 -155 l0 -80 -80 0 -80 0 0 80 0
80 80 0 80 0 0 -80z"/>
<path d="M9930 12633 c0 -112 2 -133 15 -133 12 0 15 14 15 65 0 77 22 111 62
96 21 -7 23 -16 26 -85 2 -59 6 -76 17 -76 17 0 17 1 15 90 -2 73 -18 100 -58
100 -14 0 -34 -7 -44 -17 -17 -15 -18 -14 -18 39 0 42 -3 55 -15 55 -13 0 -15
-22 -15 -134z"/>
<path d="M9048 12740 c-21 -16 -28 -30 -28 -55 0 -40 20 -57 87 -75 50 -13 69
-38 49 -66 -20 -27 -85 -25 -104 4 -13 20 -42 31 -42 16 0 -19 26 -48 55 -60
45 -18 103 -1 125 39 23 41 -1 77 -65 97 -64 19 -75 27 -75 50 0 40 67 53 100
20 23 -23 40 -26 40 -7 0 23 -36 48 -77 54 -29 4 -44 0 -65 -17z"/>
<path d="M9250 12672 c-16 -13 -24 -32 -27 -69 -5 -45 -2 -55 20 -77 32 -32
84 -35 118 -7 32 26 16 39 -20 18 -22 -13 -35 -15 -55 -7 -14 5 -26 14 -26 19
0 5 -3 16 -6 25 -5 14 4 16 65 16 l71 0 -6 28 c-16 66 -85 94 -134 54z m94
-34 c15 -24 5 -30 -47 -26 -42 3 -44 4 -36 26 7 19 15 23 40 20 18 -2 37 -11
43 -20z"/>
<path d="M9445 12670 c-25 -28 -12 -36 27 -17 37 18 68 8 68 -22 0 -14 -10
-20 -45 -23 -53 -6 -75 -22 -75 -53 0 -47 70 -73 104 -39 15 14 16 14 16 0 0
-9 7 -16 15 -16 24 0 21 151 -3 173 -26 24 -85 22 -107 -3z m93 -102 c-4 -29
-45 -50 -70 -37 -39 21 -6 55 55 58 14 1 18 -5 15 -21z"/>
<path d="M9620 12595 c0 -78 3 -95 15 -95 12 0 15 14 15 69 0 70 7 86 44 92
11 2 21 10 24 17 5 16 -40 16 -56 0 -9 -9 -12 -9 -12 0 0 7 -7 12 -15 12 -12
0 -15 -17 -15 -95z"/>
<path d="M9759 12671 c-20 -16 -24 -28 -24 -76 0 -48 4 -60 24 -76 31 -25 85
-25 111 1 32 32 24 55 -9 26 -27 -24 -58 -28 -75 -11 -24 24 -30 61 -16 95 10
25 18 30 47 30 21 0 36 -6 39 -15 7 -17 34 -21 34 -5 0 6 -9 19 -20 30 -26 26
-80 26 -111 1z"/>
<path d="M8750 12435 c0 -20 -5 -25 -25 -25 -14 0 -25 -4 -25 -10 0 -5 11 -10
25 -10 20 0 25 -5 25 -25 0 -14 5 -25 10 -25 6 0 10 11 10 25 0 20 5 25 25 25
14 0 25 5 25 10 0 6 -11 10 -25 10 -20 0 -25 5 -25 25 0 14 -4 25 -10 25 -5 0
-10 -11 -10 -25z"/>
<path d="M7356 12913 c-3 -3 -6 -29 -6 -56 0 -48 -1 -49 -18 -34 -25 22 -64
21 -93 -2 -20 -16 -24 -29 -24 -74 0 -40 5 -61 19 -76 23 -25 72 -28 98 -4 17
15 18 15 18 0 0 -10 7 -17 15 -17 13 0 15 21 15 129 0 118 -6 152 -24 134z
m-17 -129 c33 -72 -26 -142 -78 -93 -35 33 -24 107 19 121 25 8 47 -2 59 -28z"/>
<path d="M5423 12902 c-6 -4 -27 -50 -46 -102 -19 -52 -40 -107 -46 -122 -9
-24 -8 -28 8 -28 12 0 21 11 27 33 9 31 11 32 64 32 53 0 55 -1 65 -32 6 -22
15 -33 28 -33 14 0 17 5 12 18 -4 9 -24 64 -46 122 -43 114 -48 123 -66 112z
m31 -99 c9 -26 16 -48 16 -50 0 -2 -18 -3 -41 -3 -29 0 -39 4 -35 13 2 6 10
29 17 50 7 20 16 37 20 37 4 0 14 -21 23 -47z"/>
<path d="M5570 12780 c0 -109 2 -130 15 -130 8 0 15 7 15 16 0 14 1 14 16 0
24 -24 71 -20 101 10 22 22 25 32 20 77 -3 37 -11 56 -27 69 -27 22 -73 23
-94 2 -15 -14 -16 -11 -16 35 0 39 -4 51 -15 51 -13 0 -15 -21 -15 -130z m130
1 c16 -40 4 -90 -23 -100 -58 -22 -95 38 -65 104 9 19 19 25 43 25 27 0 35 -5
45 -29z"/>
<path d="M6692 12902 c-9 -3 -12 -38 -12 -128 0 -104 2 -124 15 -124 11 0 15
12 15 45 l0 45 39 0 c57 0 86 14 101 49 15 38 6 76 -23 95 -22 14 -111 26
-135 18z m96 -33 c35 -12 45 -37 28 -71 -9 -18 -21 -24 -59 -26 l-47 -3 0 49
c0 27 3 52 7 55 9 10 36 9 71 -4z"/>
<path d="M6190 12865 c0 -16 -6 -25 -15 -25 -8 0 -15 -7 -15 -15 0 -8 7 -15
15 -15 12 0 15 -14 15 -68 0 -73 10 -92 47 -92 28 0 31 26 3 33 -17 4 -20 14
-20 66 0 54 2 61 20 61 11 0 20 7 20 15 0 8 -9 15 -20 15 -15 0 -20 7 -20 25
0 16 -6 25 -15 25 -9 0 -15 -9 -15 -25z"/>
<path d="M7840 12865 c0 -16 -6 -25 -15 -25 -8 0 -15 -7 -15 -15 0 -8 7 -15
15 -15 12 0 15 -13 15 -61 0 -73 12 -99 45 -99 30 0 34 25 5 33 -17 4 -20 14
-20 66 0 54 2 61 20 61 11 0 20 7 20 15 0 8 -9 15 -20 15 -15 0 -20 7 -20 25
0 16 -6 25 -15 25 -9 0 -15 -9 -15 -25z"/>
<path d="M5800 12820 c-39 -39 -38 -126 3 -155 33 -23 84 -19 112 10 19 18 25
35 25 70 0 35 -6 52 -25 70 -31 31 -86 34 -115 5z m100 -29 c28 -53 -7 -129
-53 -116 -44 14 -59 58 -35 110 14 32 71 36 88 6z"/>
<path d="M5980 12762 c0 -64 4 -82 18 -95 21 -19 54 -22 83 -7 13 7 19 7 19 0
0 -5 7 -10 15 -10 12 0 15 17 15 95 0 78 -3 95 -15 95 -12 0 -15 -14 -15 -70
0 -63 -2 -71 -24 -85 -19 -13 -29 -14 -45 -5 -18 9 -21 20 -21 85 0 60 -3 75
-15 75 -12 0 -15 -15 -15 -78z"/>
<path d="M6890 12745 c0 -78 3 -95 15 -95 12 0 15 14 15 69 0 70 7 86 44 92
11 2 21 10 24 17 6 19 -45 15 -57 -5 -10 -17 -10 -17 -11 0 0 9 -7 17 -15 17
-12 0 -15 -17 -15 -95z"/>
<path d="M7035 12815 c-29 -28 -33 -80 -10 -124 25 -50 90 -57 132 -15 22 22
25 32 20 77 -3 37 -11 56 -27 69 -32 26 -86 23 -115 -7z m102 -24 c16 -21 16
-73 0 -95 -30 -41 -97 -13 -97 40 0 71 59 104 97 55z"/>
<path d="M7430 12762 c0 -64 4 -82 18 -95 21 -19 54 -22 83 -7 13 7 19 7 19 0
0 -5 7 -10 15 -10 12 0 15 17 15 95 0 78 -3 95 -15 95 -12 0 -15 -13 -15 -61
0 -87 -26 -123 -71 -99 -16 9 -19 22 -19 85 0 60 -3 75 -15 75 -12 0 -15 -15
-15 -78z"/>
<path d="M7662 12833 c-18 -7 -42 -57 -42 -88 0 -33 24 -81 45 -89 32 -12 75
-6 95 14 24 24 26 40 5 40 -8 0 -15 -5 -15 -10 0 -19 -49 -31 -70 -17 -28 17
-36 71 -16 102 19 29 73 35 82 10 8 -19 34 -20 34 -1 0 33 -73 57 -118 39z"/>
<path d="M7958 12826 c-21 -15 -24 -59 -5 -74 6 -6 26 -14 42 -18 56 -13 70
-36 33 -55 -17 -9 -28 -8 -55 6 -40 22 -57 11 -24 -16 50 -41 141 -10 128 44
-6 20 -18 29 -57 42 -37 12 -50 22 -50 36 0 24 60 31 68 8 5 -13 32 -11 32 2
0 19 -33 38 -65 38 -16 0 -38 -6 -47 -13z"/>
<path d="M3087 12463 c-4 -3 -7 -69 -7 -145 0 -116 2 -138 15 -138 10 0 15 10
15 31 0 37 16 69 34 69 8 0 28 -22 46 -50 18 -27 39 -50 47 -50 9 0 11 5 7 13
-4 6 -23 36 -42 66 l-34 53 33 34 c21 22 28 34 18 34 -8 0 -33 -18 -54 -40
-21 -22 -43 -40 -47 -40 -4 0 -8 38 -8 85 0 78 -5 96 -23 78z"/>
<path d="M4075 12458 c-27 -15 -35 -28 -35 -60 0 -24 -3 -27 -22 -19 -13 4
-34 5 -48 1 -14 -4 -33 -3 -42 2 -9 4 -24 5 -33 2 -14 -6 -16 -21 -14 -103 2
-53 4 -99 6 -103 2 -3 12 -4 23 -1 17 5 20 14 20 65 0 76 12 99 49 96 16 -1
36 4 45 11 14 11 16 3 18 -81 3 -87 4 -93 25 -96 19 -3 22 3 28 40 3 24 4 60
2 81 -4 33 -1 40 19 47 29 11 32 40 4 40 -15 0 -20 7 -20 25 0 19 5 25 21 25
15 0 19 4 15 16 -3 9 -6 18 -6 20 0 8 -35 3 -55 -8z"/>
<path d="M4160 12348 c0 -93 4 -129 15 -145 18 -25 61 -35 76 -17 13 15 4 34
-16 34 -11 0 -15 25 -17 123 l-3 122 -27 3 -28 3 0 -123z"/>
<path d="M2610 12327 c0 -98 3 -116 18 -130 20 -18 52 -23 52 -8 0 5 -9 11
-20 14 -18 5 -20 14 -20 75 0 66 2 71 23 74 12 2 22 8 22 13 0 6 -10 11 -22
13 -18 3 -23 10 -23 33 0 19 -5 29 -15 29 -12 0 -15 -19 -15 -113z"/>
<path d="M2485 12383 c-29 -7 -55 -33 -55 -55 0 -27 36 -58 69 -58 44 0 61
-10 61 -35 0 -34 -57 -48 -100 -25 -12 6 -21 7 -25 1 -19 -32 111 -43 138 -13
33 36 8 92 -41 92 -38 0 -72 19 -72 40 0 23 36 35 80 27 40 -9 47 9 8 22 -17
6 -34 10 -37 10 -3 -1 -15 -4 -26 -6z"/>
<path d="M3338 12375 c-34 -19 -51 -75 -39 -126 11 -48 18 -58 49 -70 69 -26
122 20 122 104 0 80 -69 127 -132 92z m77 -95 c0 -53 -1 -55 -28 -58 -28 -3
-33 3 -40 48 -8 44 9 72 40 68 27 -3 28 -5 28 -58z"/>
<path d="M3485 12381 c-3 -5 11 -52 31 -105 31 -80 40 -96 58 -96 18 0 27 16
58 98 20 53 32 101 28 105 -19 21 -47 -5 -64 -58 -9 -30 -20 -55 -24 -55 -4 0
-14 23 -23 52 -10 35 -22 54 -37 59 -12 5 -24 4 -27 0z"/>
<path d="M3723 12375 c-55 -24 -71 -137 -24 -179 25 -22 79 -30 114 -17 44 17
28 37 -26 33 -37 -3 -47 0 -56 17 -6 11 -11 22 -11 25 0 3 29 6 65 6 l65 0 0
31 c0 43 -16 69 -55 85 -40 16 -32 17 -72 -1z m85 -63 c2 -8 -12 -12 -42 -12
-46 0 -53 5 -38 26 18 27 69 18 80 -14z"/>
<path d="M4334 12380 c-49 -19 -70 -103 -43 -163 22 -49 91 -61 135 -24 21 19
27 33 28 68 1 66 -11 97 -44 114 -32 17 -45 18 -76 5z m61 -100 c0 -45 -3 -55
-18 -58 -27 -5 -47 17 -47 53 0 52 9 66 39 63 25 -3 26 -6 26 -58z"/>
<path d="M4467 12383 c-3 -2 10 -50 27 -106 26 -84 35 -102 51 -102 15 0 25
14 40 57 11 31 23 59 26 63 4 3 15 -21 25 -54 17 -59 31 -75 57 -66 13 6 72
194 62 203 -11 11 -34 10 -43 -1 -5 -7 -15 -37 -22 -67 l-13 -55 -22 60 c-19
49 -27 60 -46 60 -19 0 -25 -9 -37 -52 -8 -29 -18 -53 -22 -53 -5 0 -13 23
-20 50 -7 28 -17 53 -24 57 -14 9 -33 12 -39 6z"/>
<path d="M2730 12370 c-11 -7 -12 -12 -4 -20 9 -9 14 -9 18 -1 10 15 69 14 84
-1 16 -16 15 -48 0 -49 -48 -2 -94 -12 -105 -21 -18 -15 -16 -63 3 -82 11 -12
33 -15 80 -14 l64 2 0 76 c0 95 -17 120 -83 120 -23 0 -49 -5 -57 -10z m110
-125 c0 -31 -36 -51 -74 -41 -19 5 -26 13 -26 30 0 32 7 36 57 36 39 0 43 -2
43 -25z"/>
<path d="M2928 12363 c-44 -51 -47 -116 -5 -160 24 -27 97 -32 116 -9 15 17 1
28 -19 15 -47 -29 -100 8 -100 71 0 63 43 95 91 70 27 -15 47 -1 24 17 -27 19
-89 17 -107 -4z"/>
<path d="M5790 8300 c0 -2467 3 -3710 10 -3710 7 0 10 630 10 1870 l0 1870
4015 0 c2670 0 4015 3 4015 10 0 7 -1345 10 -4015 10 l-4015 0 0 1405 0 1405
4015 0 c2670 0 4015 3 4015 10 0 7 -1345 10 -4015 10 l-4015 0 0 415 c0 270
-3 415 -10 415 -7 0 -10 -1243 -10 -3710z"/>
<path d="M6620 11620 l0 -170 30 0 c30 0 30 1 30 55 l0 55 48 0 c69 0 114 26
131 76 13 36 13 47 0 80 -20 55 -63 74 -161 74 l-78 0 0 -170z m147 114 c30
-8 47 -53 32 -87 -12 -27 -34 -37 -86 -37 l-33 0 0 65 0 65 33 0 c17 0 42 -3
54 -6z"/>
<path d="M6910 11620 l0 -170 30 0 30 0 0 65 0 65 33 0 c30 0 36 -5 68 -65 31
-59 37 -65 66 -65 37 0 37 2 -7 82 l-27 49 28 29 c54 53 34 143 -38 171 -13 5
-60 9 -104 9 l-79 0 0 -170z m181 99 c16 -25 10 -67 -11 -82 -11 -8 -39 -14
-63 -13 l-42 1 -3 59 -3 59 56 -5 c34 -3 61 -11 66 -19z"/>
<path d="M7290 11771 c-92 -49 -106 -220 -24 -293 44 -39 143 -40 200 -3 86
56 81 241 -8 295 -43 26 -121 27 -168 1z m143 -57 c31 -31 41 -70 32 -126 -10
-57 -43 -88 -95 -88 -52 0 -85 31 -95 88 -9 55 0 92 31 125 34 37 91 37 127 1z"/>
<path d="M7580 11620 l0 -170 90 0 c102 0 145 15 160 56 16 42 11 64 -21 96
l-30 31 20 21 c24 25 27 72 7 98 -20 27 -62 38 -147 38 l-79 0 0 -170z m168
108 c16 -16 15 -53 0 -66 -7 -5 -26 -11 -43 -12 -63 -4 -65 -3 -65 45 l0 45
48 0 c26 0 53 -5 60 -12z m10 -144 c26 -18 28 -41 5 -66 -12 -13 -30 -18 -70
-18 l-53 0 0 50 0 50 48 0 c27 0 57 -7 70 -16z"/>
<path d="M7890 11620 l0 -170 110 0 110 0 0 25 c0 25 -1 25 -80 25 l-80 0 0
145 0 145 -30 0 -30 0 0 -170z"/>
<path d="M8150 11620 l0 -170 110 0 110 0 0 25 c0 25 -1 25 -80 25 l-80 0 0
50 0 50 75 0 c73 0 75 1 75 25 0 24 -2 25 -76 25 l-75 0 3 43 3 42 78 3 c74 3
77 4 77 27 l0 25 -110 0 -110 0 0 -170z"/>
<path d="M8430 11621 l0 -171 30 0 29 0 3 113 3 112 44 -112 c38 -96 48 -113
67 -113 19 0 28 16 65 110 23 61 46 113 51 116 5 4 8 -42 6 -110 l-3 -116 28
0 27 0 0 171 0 170 -36 -3 -37 -3 -46 -119 c-25 -65 -50 -119 -55 -120 -4 0
-30 53 -56 119 l-48 120 -36 3 -36 3 0 -170z"/>
<path d="M8920 11765 c0 -23 3 -25 50 -25 l50 0 1 -127 c1 -71 2 -136 2 -145
0 -23 52 -25 61 -2 3 9 6 74 6 145 l0 129 50 0 c47 0 50 2 50 25 l0 25 -135 0
-135 0 0 -25z"/>
<path d="M9230 11620 l0 -170 30 0 30 0 0 170 0 170 -30 0 -30 0 0 -170z"/>
<path d="M9340 11765 c0 -23 3 -25 50 -25 l50 0 1 -130 c2 -166 0 -155 30
-158 22 -3 27 2 33 29 3 17 6 83 6 145 l0 114 51 0 c47 0 50 2 47 23 -3 21 -7
22 -135 25 l-133 3 0 -26z"/>
<path d="M9650 11620 l0 -170 110 0 110 0 0 25 c0 25 -1 25 -80 25 l-80 0 0
145 0 145 -30 0 -30 0 0 -170z"/>
<path d="M9910 11620 l0 -170 110 0 110 0 0 25 c0 25 -1 25 -80 25 l-80 0 0
50 0 50 75 0 c73 0 75 1 75 25 0 24 -2 25 -76 25 l-75 0 3 43 3 42 78 3 c74 3
77 4 77 27 l0 25 -110 0 -110 0 0 -170z"/>
<path d="M1770 10375 l0 -1245 1620 0 1620 0 0 1245 0 1245 -1620 0 -1620 0 0
-1245z m3220 0 l0 -1225 -1600 0 -1600 0 0 1225 0 1225 1600 0 1600 0 0 -1225z"/>
<path d="M2070 11405 l-135 -135 43 0 42 0 0 -110 0 -110 70 0 70 0 0 90 0 90
50 0 50 0 0 -90 0 -90 70 0 70 0 0 110 0 110 42 0 42 0 -42 43 c-38 39 -42 47
-42 95 0 49 -2 52 -25 52 -21 0 -25 -5 -25 -27 0 -26 -4 -24 -68 40 -37 37
-70 67 -72 67 -3 0 -66 -61 -140 -135z"/>
<path d="M2690 11175 c0 -103 3 -125 15 -125 10 0 15 15 17 58 l3 57 68 3 67
3 0 -61 c0 -50 3 -60 18 -60 14 0 17 9 15 53 0 28 -2 85 -2 125 -1 57 -4 72
-16 72 -12 0 -15 -13 -15 -55 l0 -56 -67 3 -68 3 -3 53 c-2 37 -7 52 -18 52
-11 0 -14 -23 -14 -125z"/>
<path d="M2963 11225 c-25 -17 -39 -71 -29 -110 17 -66 94 -87 143 -39 22 22
25 32 20 77 -3 37 -11 56 -27 69 -27 22 -78 23 -107 3z m94 -34 c16 -21 16
-73 0 -95 -30 -41 -97 -13 -97 40 0 71 59 104 97 55z"/>
<path d="M3150 11145 c0 -78 3 -95 15 -95 12 0 15 14 15 69 0 75 12 95 52 89
21 -3 23 -8 26 -80 2 -60 6 -78 17 -78 12 0 15 15 15 68 0 73 10 92 47 92 32
0 46 -41 39 -107 -6 -48 -4 -53 13 -53 18 0 20 7 18 78 -1 50 -7 85 -16 95
-17 21 -74 22 -91 2 -12 -14 -15 -14 -30 0 -20 18 -61 20 -78 3 -9 -9 -12 -9
-12 0 0 7 -7 12 -15 12 -12 0 -15 -17 -15 -95z"/>
<path d="M3470 11222 c-16 -13 -24 -32 -27 -69 -5 -45 -2 -55 20 -77 32 -32
84 -35 118 -7 33 26 17 37 -25 17 -38 -18 -61 -13 -76 15 -19 34 -12 39 61 39
61 0 70 2 65 16 -3 9 -6 22 -6 29 0 25 -42 55 -76 55 -17 0 -42 -8 -54 -18z
m88 -24 c26 -26 13 -38 -38 -38 -55 0 -56 1 -38 30 14 22 57 27 76 8z"/>
<path d="M2120 10961 c-173 -53 -275 -236 -225 -406 9 -32 27 -73 39 -92 l23
-34 -33 -117 c-18 -64 -31 -118 -29 -120 2 -2 49 28 103 67 l100 72 46 -12
c97 -24 238 21 308 98 61 68 81 124 82 228 1 84 -1 94 -34 154 -37 69 -102
125 -178 155 -44 17 -156 21 -202 7z"/>
<path d="M3646 10503 c-12 -12 -6 -33 9 -33 8 0 15 6 15 14 0 17 -14 28 -24
19z"/>
<path d="M2744 10491 c-56 -24 -85 -103 -63 -172 18 -56 55 -82 113 -82 27 1
50 -4 57 -13 6 -8 18 -14 26 -14 14 0 14 3 1 22 -13 20 -13 26 4 55 33 56 23
147 -20 186 -24 22 -87 31 -118 18z m81 -27 c40 -16 60 -121 29 -160 -11 -13
-17 -15 -20 -6 -3 6 -14 12 -25 12 -16 0 -18 -3 -9 -19 14 -28 -2 -34 -44 -17
-25 10 -37 23 -41 43 -4 15 -8 33 -10 40 -7 23 16 83 38 98 23 16 54 19 82 9z"/>
<path d="M3530 10455 c0 -16 -6 -25 -15 -25 -8 0 -15 -7 -15 -15 0 -8 7 -15
15 -15 12 0 15 -13 15 -61 0 -73 12 -99 45 -99 30 0 34 25 5 33 -17 4 -20 14
-20 66 0 54 2 61 20 61 11 0 20 7 20 15 0 8 -9 15 -20 15 -15 0 -20 7 -20 25
0 16 -6 25 -15 25 -9 0 -15 -9 -15 -25z"/>
<path d="M2940 10352 c0 -64 4 -82 18 -95 23 -21 66 -22 86 -1 15 14 16 14 16
0 0 -9 7 -16 15 -16 12 0 15 17 15 95 0 78 -3 95 -15 95 -12 0 -15 -14 -15
-70 0 -63 -2 -71 -24 -85 -19 -13 -29 -14 -45 -5 -18 9 -21 20 -21 85 0 60 -3
75 -15 75 -12 0 -15 -15 -15 -78z"/>
<path d="M3155 10404 c-35 -38 -35 -105 0 -139 30 -31 83 -33 116 -6 32 26 17
38 -22 18 -35 -16 -57 -13 -76 11 -20 25 -16 44 10 42 12 -1 43 -2 70 -1 46 1
47 2 41 29 -17 72 -92 96 -139 46z m93 -16 c26 -26 13 -38 -38 -38 -49 0 -50
0 -38 25 12 27 54 35 76 13z"/>
<path d="M3352 10410 c-12 -12 -22 -25 -22 -29 0 -20 37 -51 70 -59 24 -6 36
-15 38 -29 4 -30 -30 -39 -68 -17 -35 22 -50 12 -25 -16 36 -40 135 -15 135
33 0 21 -33 47 -74 58 -37 10 -50 41 -22 52 18 7 56 -3 56 -14 0 -5 7 -9 15
-9 22 0 19 27 -4 40 -31 16 -75 12 -99 -10z"/>
<path d="M3640 10335 c0 -78 3 -95 15 -95 12 0 15 17 15 95 0 78 -3 95 -15 95
-12 0 -15 -17 -15 -95z"/>
<path d="M3740 10412 c-16 -13 -24 -32 -27 -69 -5 -45 -2 -55 20 -77 35 -35
89 -35 122 -1 19 18 25 35 25 70 0 35 -6 52 -25 70 -29 30 -83 33 -115 7z m98
-30 c30 -38 1 -122 -42 -122 -39 0 -65 63 -46 110 17 41 59 47 88 12z"/>
<path d="M3920 10335 c0 -77 3 -95 15 -95 11 0 15 17 17 71 2 59 7 74 23 84
13 9 28 10 43 4 20 -8 22 -15 22 -84 0 -60 3 -75 15 -75 24 0 21 151 -3 173
-25 23 -78 22 -91 0 -10 -17 -10 -17 -11 0 0 9 -7 17 -15 17 -12 0 -15 -17
-15 -95z"/>
<path d="M4130 10410 c-11 -11 -20 -23 -20 -28 0 -21 34 -52 65 -58 46 -8 61
-27 40 -48 -21 -20 -30 -20 -66 1 -36 21 -52 8 -20 -18 31 -25 85 -25 111 1
37 37 18 72 -50 90 -41 11 -56 42 -26 53 18 7 56 -3 56 -14 0 -5 7 -9 15 -9
22 0 19 27 -4 40 -31 16 -79 12 -101 -10z"/>
<path d="M1992 10036 l-62 -74 0 -331 0 -331 250 0 250 0 0 333 0 333 -62 72
-62 72 -126 0 -126 0 -62 -74z m226 -68 c6 -47 -59 -62 -73 -17 -9 27 13 51
44 47 20 -2 27 -9 29 -30z"/>
<path d="M2640 9751 c0 -5 18 -11 40 -15 l40 -6 0 -110 c0 -90 3 -110 15 -110
12 0 15 22 17 112 l3 113 38 -1 c24 0 37 4 37 13 0 10 -23 13 -95 13 -52 0
-95 -4 -95 -9z"/>
<path d="M2846 9684 c-20 -20 -20 -34 -1 -34 8 0 15 5 15 11 0 6 16 9 38 7 29
-2 38 -8 40 -24 3 -18 -3 -22 -42 -26 -54 -6 -76 -22 -76 -54 0 -31 25 -54 60
-54 16 0 36 7 44 16 15 14 16 14 16 0 0 -9 7 -16 15 -16 12 0 15 15 15 79 0
71 -2 82 -22 95 -29 20 -82 20 -102 0z m92 -106 c-4 -29 -45 -50 -70 -37 -39
21 -6 55 55 58 14 1 18 -5 15 -21z"/>
<path d="M3031 9674 c-30 -38 -28 -98 4 -129 28 -29 70 -32 97 -8 17 15 18 14
18 -16 0 -45 -35 -60 -90 -38 -40 15 -47 13 -32 -10 23 -37 111 -36 137 1 22
30 21 226 0 226 -8 0 -15 -7 -15 -17 0 -15 -1 -15 -18 0 -29 26 -77 22 -101
-9z m107 -22 c31 -39 1 -102 -48 -102 -21 0 -30 7 -39 28 -30 72 40 131 87 74z"/>
<path d="M3239 9687 c-40 -31 -23 -80 34 -92 57 -13 72 -36 35 -56 -17 -9 -28
-8 -55 6 -39 21 -54 13 -28 -15 25 -27 88 -27 115 0 37 37 18 72 -50 90 -41
11 -56 42 -26 53 18 7 56 -3 56 -14 0 -5 7 -9 15 -9 22 0 19 27 -4 40 -26 13
-72 12 -92 -3z"/>
<path d="M10194 11496 c-10 -26 4 -48 28 -44 17 2 23 10 23 28 0 18 -6 26 -23
28 -13 2 -25 -3 -28 -12z"/>
<path d="M10297 11496 c-11 -28 4 -47 32 -44 20 2 26 8 26 28 0 20 -6 26 -26
28 -17 2 -29 -3 -32 -12z"/>
<path d="M10404 11495 c-10 -25 4 -45 30 -45 13 0 26 7 30 15 9 25 -5 45 -30
45 -14 0 -27 -7 -30 -15z"/>
<path d="M6620 9760 l0 -170 30 0 c30 0 30 1 30 55 l0 55 48 0 c102 0 163 72
131 156 -20 55 -63 74 -161 74 l-78 0 0 -170z m150 110 c32 -17 43 -48 30 -80
-12 -30 -34 -40 -87 -40 l-33 0 0 65 0 65 36 0 c19 0 44 -5 54 -10z"/>
<path d="M6910 9760 l0 -170 30 0 30 0 0 65 0 65 34 0 c32 0 36 -4 67 -65 31
-60 37 -65 67 -65 17 0 32 2 32 5 0 2 -15 32 -34 65 l-33 61 28 29 c24 23 29
37 29 75 0 79 -45 105 -181 105 l-69 0 0 -170z m168 104 c26 -18 30 -65 7 -84
-8 -6 -36 -12 -62 -13 l-48 -2 -3 58 -3 57 43 0 c24 0 54 -7 66 -16z"/>
<path d="M7290 9912 c-83 -44 -107 -200 -41 -276 44 -50 141 -65 202 -30 99
57 104 245 7 304 -42 26 -121 27 -168 2z m143 -58 c48 -48 45 -163 -6 -199
-12 -8 -39 -15 -60 -15 -67 0 -106 65 -92 150 14 81 105 118 158 64z"/>
<path d="M7580 9760 l0 -170 90 0 c102 0 145 15 160 56 17 43 11 66 -26 100
-19 19 -30 34 -23 34 29 0 49 62 33 105 -12 30 -60 45 -149 45 l-85 0 0 -170z
m168 108 c16 -16 15 -53 0 -66 -13 -10 -45 -15 -85 -13 -20 1 -23 6 -23 46 l0
45 48 0 c26 0 53 -5 60 -12z m14 -145 c44 -39 8 -83 -69 -83 l-53 0 0 50 0 50
52 0 c34 0 58 -6 70 -17z"/>
<path d="M7890 9760 l0 -170 110 0 110 0 0 25 c0 25 -1 25 -80 25 l-80 0 0
145 0 145 -30 0 -30 0 0 -170z"/>
<path d="M8150 9760 l0 -170 110 0 110 0 0 25 c0 25 -1 25 -81 25 l-80 0 3 48
3 47 73 3 c69 3 72 4 72 27 0 24 -2 25 -75 25 l-75 0 0 45 0 45 80 0 c79 0 80
0 80 25 l0 25 -110 0 -110 0 0 -170z"/>
<path d="M8430 9760 l0 -171 28 3 27 3 5 110 5 110 45 -112 c38 -95 48 -113
67 -113 18 0 28 17 64 110 23 61 46 113 51 116 6 4 8 -41 6 -110 l-3 -116 28
0 27 0 0 170 0 170 -34 0 c-36 0 -30 10 -123 -219 -7 -19 -16 -31 -20 -28 -3
4 -27 60 -53 124 l-47 118 -37 3 -36 3 0 -171z"/>
<path d="M8940 9760 l0 -170 110 0 110 0 0 25 c0 25 -1 25 -80 25 l-80 0 0 50
0 50 75 0 c73 0 75 1 75 25 0 24 -2 25 -76 25 l-75 0 3 43 3 42 78 3 c74 3 77
4 77 27 l0 25 -110 0 -110 0 0 -170z"/>
<path d="M9210 9923 c0 -4 23 -42 51 -85 l52 -78 -52 -78 c-28 -43 -51 -81
-51 -85 0 -4 13 -7 29 -7 26 0 35 9 67 60 20 33 40 60 43 60 3 0 23 -27 44
-60 35 -55 41 -60 74 -60 l35 0 -24 33 c-13 17 -39 55 -57 84 l-32 52 49 73
c70 105 68 98 30 98 -30 0 -37 -6 -74 -66 l-41 -66 -39 66 c-35 59 -42 66 -71
66 -18 0 -33 -3 -33 -7z"/>
<path d="M9540 9760 l0 -170 30 0 c30 0 30 1 30 55 l0 55 46 0 c61 0 109 24
128 65 20 41 20 56 1 101 -19 46 -63 64 -160 64 l-75 0 0 -170z m147 114 c13
-4 26 -19 33 -37 16 -48 -12 -81 -74 -85 l-46 -3 0 65 0 66 33 0 c17 0 42 -3
54 -6z"/>
<path d="M9840 9760 l0 -170 110 0 110 0 0 25 c0 25 -1 25 -80 25 l-80 0 0
145 0 145 -30 0 -30 0 0 -170z"/>
<path d="M10195 9918 c-66 -182 -115 -321 -115 -325 0 -2 14 -3 32 -1 27 3 33
9 46 46 l14 43 61 -3 62 -3 15 -42 c12 -37 18 -43 42 -43 15 0 28 4 28 9 0 5
-25 82 -56 170 l-56 161 -35 0 c-18 0 -36 -6 -38 -12z m79 -174 c6 -18 2 -21
-33 -22 -22 -1 -42 2 -45 7 -5 8 19 105 32 125 5 8 19 -26 46 -110z"/>
<path d="M10430 9760 l0 -170 30 0 30 0 0 118 0 117 24 -30 c14 -16 51 -69 83
-117 49 -74 62 -87 86 -88 l27 0 0 170 0 170 -30 0 -29 0 -3 -115 -3 -115 -80
115 c-69 100 -83 115 -107 115 l-28 0 0 -170z"/>
<path d="M10875 9918 c-66 -182 -115 -321 -115 -325 0 -2 14 -3 32 -1 27 3 33
9 46 46 l14 43 61 -3 62 -3 15 -42 c12 -37 18 -43 42 -43 15 0 28 3 28 8 0 4
-25 80 -56 170 l-57 162 -34 0 c-18 0 -36 -6 -38 -12z m79 -175 c7 -22 4 -23
-38 -23 -25 0 -46 3 -46 8 0 8 27 99 36 122 6 14 20 -19 48 -107z"/>
<path d="M11040 9905 c0 -23 3 -25 50 -25 33 0 50 -4 50 -12 0 -7 1 -73 1
-146 l1 -133 32 3 c35 3 32 -11 35 171 l1 117 50 0 c47 0 50 2 50 25 l0 25
-135 0 -135 0 0 -25z"/>
<path d="M11350 9760 l0 -170 30 0 30 0 0 170 0 170 -30 0 -30 0 0 -170z"/>
<path d="M11539 9906 c-68 -47 -89 -155 -46 -237 30 -56 73 -81 137 -81 65 0
109 26 138 82 42 83 18 198 -50 240 -49 29 -132 27 -179 -4z m141 -41 c46 -24
63 -105 36 -170 -17 -39 -42 -55 -88 -55 -46 0 -75 24 -88 71 -32 117 47 202
140 154z"/>
<path d="M11840 9760 l0 -170 30 0 29 0 3 118 3 117 80 -117 c69 -101 84 -117
108 -118 l27 0 0 170 0 170 -30 0 -29 0 -3 -116 -3 -116 -79 116 c-70 102 -83
116 -108 116 l-28 0 0 -170z"/>
<path d="M12184 9636 c-10 -26 4 -48 28 -44 17 2 23 10 23 28 0 18 -6 26 -23
28 -13 2 -25 -3 -28 -12z"/>
<path d="M12287 9636 c-11 -28 4 -47 32 -44 20 2 26 8 26 28 0 20 -6 26 -26
28 -17 2 -29 -3 -32 -12z"/>
<path d="M12394 9635 c-10 -25 4 -45 30 -45 13 0 26 7 30 15 9 25 -5 45 -30
45 -14 0 -27 -7 -30 -15z"/>
<path d="M1820 8030 l0 -850 1620 0 1620 0 0 850 0 850 -1620 0 -1620 0 0
-850z m3220 0 l0 -830 -1600 0 -1600 0 0 830 0 830 1600 0 1600 0 0 -830z"/>
<path d="M2255 8785 c-29 -28 -31 -42 -9 -73 17 -25 71 -31 92 -10 21 21 15
75 -10 92 -31 22 -45 20 -73 -9z"/>
<path d="M2176 8654 c-13 -12 -16 -41 -16 -145 0 -122 1 -129 20 -129 19 0 20
7 20 100 0 59 4 100 10 100 6 0 11 -92 12 -242 l3 -243 25 0 25 0 3 148 c1 84
7 147 12 147 5 0 11 -61 12 -141 3 -118 6 -144 19 -152 9 -6 24 -7 33 -4 14 6
16 33 16 247 0 153 4 240 10 240 6 0 10 -40 10 -100 0 -93 1 -100 20 -100 19
0 20 7 20 129 0 165 3 161 -135 161 -81 0 -107 -3 -119 -16z"/>
<path d="M2700 8470 c0 -61 5 -101 15 -119 13 -27 54 -49 83 -45 6 1 21 2 32
3 12 0 32 12 45 26 23 22 25 31 25 125 0 82 -3 100 -15 100 -12 0 -15 -17 -15
-94 0 -91 -1 -95 -27 -116 -19 -15 -35 -19 -53 -15 -47 12 -55 29 -58 130 -3
73 -7 95 -18 95 -11 0 -14 -19 -14 -90z"/>
<path d="M2968 8489 c-21 -12 -24 -62 -5 -77 6 -6 26 -14 42 -18 56 -13 70
-36 33 -55 -17 -9 -28 -8 -55 6 -39 21 -54 13 -28 -15 22 -25 76 -26 110 -4
47 31 25 75 -45 94 -41 11 -56 42 -26 53 18 7 56 -3 56 -14 0 -5 7 -9 15 -9
20 0 19 20 -2 36 -21 16 -71 17 -95 3z"/>
<path d="M3162 8493 c-20 -8 -42 -59 -42 -96 0 -73 85 -114 141 -68 32 26 17
38 -22 18 -35 -16 -57 -13 -76 11 -27 34 -16 42 58 42 61 0 70 2 65 16 -3 9
-6 22 -6 29 0 38 -71 67 -118 48z m82 -45 c15 -24 5 -30 -47 -26 -42 3 -44 4
-36 26 7 19 15 23 40 20 18 -2 37 -11 43 -20z"/>
<path d="M3330 8405 c0 -78 3 -95 15 -95 12 0 15 14 15 68 0 73 10 92 47 92
14 0 23 6 23 15 0 18 -41 20 -58 3 -9 -9 -12 -9 -12 0 0 7 -7 12 -15 12 -12 0
-15 -17 -15 -95z"/>
<path d="M3468 8488 c-39 -32 -21 -81 35 -93 59 -13 73 -38 32 -57 -19 -9 -29
-7 -50 6 -36 24 -54 15 -27 -12 29 -29 85 -29 112 -2 36 36 23 64 -41 85 -35
12 -49 22 -49 35 0 10 6 20 14 23 18 7 56 -3 56 -14 0 -5 7 -9 15 -9 19 0 19
14 -1 34 -19 19 -74 21 -96 4z"/>
<path d="M2250 8000 c0 -38 -3 -41 -50 -65 -28 -14 -66 -25 -90 -25 -38 0 -40
-2 -40 -30 l0 -30 -100 0 -100 0 0 -25 0 -25 385 0 385 0 0 25 0 25 -100 0
-100 0 0 30 c0 29 -2 30 -45 30 -79 0 -175 77 -115 93 29 8 26 37 -5 37 -22 0
-25 -4 -25 -40z m30 -105 c20 -24 3 -57 -28 -53 -27 3 -39 26 -28 54 7 18 40
18 56 -1z"/>
<path d="M1890 7550 l0 -230 120 0 c79 0 120 4 120 11 0 11 25 39 35 39 30 0
52 109 23 110 -7 1 4 10 26 21 38 20 40 20 79 3 22 -10 34 -20 28 -22 -6 -2
-11 -21 -11 -43 0 -29 7 -47 25 -64 13 -14 29 -25 35 -25 5 0 10 -7 10 -15 0
-12 20 -15 120 -15 l120 0 0 230 0 230 -365 0 -365 0 0 -230z m130 155 c0 -35
0 -35 -45 -35 -45 0 -45 0 -45 35 0 35 0 35 45 35 45 0 45 0 45 -35z m140 0
c0 -35 0 -35 -45 -35 -45 0 -45 0 -45 35 0 35 0 35 45 35 45 0 45 0 45 -35z
m140 0 c0 -35 0 -35 -45 -35 -45 0 -45 0 -45 35 0 35 0 35 45 35 45 0 45 0 45
-35z m130 0 c0 -34 -1 -35 -40 -35 -39 0 -40 1 -40 35 0 34 1 35 40 35 39 0
40 -1 40 -35z m140 0 c0 -35 0 -35 -45 -35 -45 0 -45 0 -45 35 0 35 0 35 45
35 45 0 45 0 45 -35z m-550 -130 c0 -35 0 -35 -45 -35 -45 0 -45 0 -45 35 0
35 0 35 45 35 45 0 45 0 45 -35z m140 0 c0 -35 0 -35 -45 -35 -45 0 -45 0 -45
35 0 35 0 35 45 35 45 0 45 0 45 -35z m140 0 c0 -35 0 -35 -45 -35 -45 0 -45
0 -45 35 0 35 0 35 45 35 45 0 45 0 45 -35z m130 0 c0 -34 -1 -35 -40 -35 -39
0 -40 1 -40 35 0 34 1 35 40 35 39 0 40 -1 40 -35z m140 0 c0 -35 0 -35 -45
-35 -45 0 -45 0 -45 35 0 35 0 35 45 35 45 0 45 0 45 -35z m-550 -130 c0 -35
0 -35 -45 -35 -45 0 -45 0 -45 35 0 35 0 35 45 35 45 0 45 0 45 -35z m140 0
c0 -35 0 -35 -45 -35 -45 0 -45 0 -45 35 0 35 0 35 45 35 45 0 45 0 45 -35z
m270 0 c0 -34 -1 -35 -40 -35 -39 0 -40 1 -40 35 0 34 1 35 40 35 39 0 40 -1
40 -35z m140 0 c0 -35 0 -35 -45 -35 -45 0 -45 0 -45 35 0 35 0 35 45 35 45 0
45 0 45 -35z"/>
<path d="M4031 7706 c-12 -14 -5 -26 16 -26 15 0 18 26 4 34 -5 3 -14 0 -20
-8z"/>
<path d="M2730 7694 c-37 -27 -48 -45 -55 -89 -8 -52 13 -113 48 -139 37 -27
101 -25 133 5 27 25 31 49 9 49 -8 0 -15 -4 -15 -10 0 -17 -54 -38 -83 -33
-44 9 -61 46 -58 126 1 35 42 77 76 77 14 0 37 -11 51 -26 14 -14 33 -24 42
-22 13 2 10 10 -13 36 -37 42 -97 53 -135 26z"/>
<path d="M2939 7621 c-20 -16 -24 -28 -24 -76 0 -48 4 -60 24 -76 36 -29 94
-25 120 7 31 39 29 107 -4 139 -30 31 -83 33 -116 6z m99 -29 c15 -19 16 -66
2 -93 -8 -13 -21 -19 -46 -19 -28 0 -36 5 -44 26 -16 40 -12 63 14 89 26 26
51 25 74 -3z"/>
<path d="M3130 7545 c0 -78 3 -95 15 -95 12 0 15 14 15 69 0 75 12 95 52 89
21 -3 23 -8 26 -80 2 -60 6 -78 17 -78 12 0 15 14 15 61 0 72 12 99 45 99 34
0 47 -31 43 -98 -3 -49 0 -57 16 -60 17 -4 18 2 14 76 -3 45 -10 88 -18 96
-16 20 -59 20 -87 1 -18 -13 -22 -13 -33 0 -15 18 -61 20 -78 3 -9 -9 -12 -9
-12 0 0 7 -7 12 -15 12 -12 0 -15 -17 -15 -95z"/>
<path d="M3430 7515 c0 -104 2 -125 15 -125 11 0 15 12 15 46 0 41 1 44 16 30
21 -22 77 -20 98 3 37 41 28 138 -15 161 -27 15 -60 12 -81 -7 -17 -15 -18
-15 -18 0 0 10 -7 17 -15 17 -13 0 -15 -21 -15 -125z m131 58 c15 -40 -14
-103 -48 -103 -24 0 -53 39 -53 73 1 76 75 98 101 30z"/>
<path d="M3655 7620 c-24 -27 -11 -38 23 -18 33 19 72 8 72 -20 0 -16 -9 -20
-45 -24 -53 -6 -75 -22 -75 -54 0 -45 53 -69 101 -44 13 7 19 7 19 0 0 -5 7
-10 15 -10 12 0 15 15 15 79 0 71 -2 82 -22 95 -31 22 -81 20 -103 -4z m95
-100 c0 -30 -43 -54 -70 -40 -29 16 -21 44 15 51 50 11 55 10 55 -11z"/>
<path d="M3830 7545 c0 -78 3 -95 15 -95 12 0 15 14 15 69 0 77 11 94 57 89
28 -3 28 -4 31 -80 2 -60 6 -78 17 -78 22 0 21 152 -1 174 -21 22 -80 21 -93
-1 -10 -17 -10 -17 -11 0 0 9 -7 17 -15 17 -12 0 -15 -17 -15 -95z"/>
<path d="M4030 7545 c0 -78 3 -95 15 -95 12 0 15 17 15 95 0 78 -3 95 -15 95
-12 0 -15 -17 -15 -95z"/>
<path d="M4142 7633 c-20 -8 -42 -59 -42 -98 0 -72 85 -112 141 -66 32 26 16
39 -20 18 -43 -26 -91 -2 -91 45 0 5 10 9 23 8 12 -1 43 -2 70 -1 46 1 47 2
41 29 -14 57 -68 87 -122 65z m86 -57 c3 -13 -6 -16 -47 -16 -28 0 -51 3 -51
8 1 12 24 38 40 44 19 7 54 -14 58 -36z"/>
<path d="M2210 7435 l0 -45 40 0 40 0 0 45 0 45 -40 0 -40 0 0 -45z"/>
<path d="M1830 5920 l0 -1020 1630 0 1630 0 0 1020 0 1020 -1630 0 -1630 0 0
-1020z m3240 0 l0 -1000 -1610 0 -1610 0 0 1000 0 1000 1610 0 1610 0 0 -1000z"/>
<path d="M2290 6705 l0 -55 -40 0 c-29 0 -40 4 -40 15 0 11 -11 15 -40 15 -29
0 -40 -4 -40 -15 0 -8 -9 -15 -19 -15 -11 0 -33 -11 -48 -24 l-28 -24 0 -271
c0 -268 0 -271 23 -293 l23 -23 385 0 386 0 24 28 24 28 0 260 0 261 -29 29
c-16 16 -39 29 -50 29 -12 0 -21 6 -21 15 0 11 -11 15 -40 15 -29 0 -40 -4
-40 -15 0 -11 -11 -15 -40 -15 l-40 0 0 55 0 55 -175 0 -175 0 0 -55z m290
-30 l0 -25 -115 0 -115 0 0 25 0 25 115 0 115 0 0 -25z"/>
<path d="M3460 6395 c0 -113 2 -135 15 -135 8 0 15 7 15 16 0 14 1 14 16 0 25
-26 79 -20 103 10 31 39 29 107 -4 139 -28 29 -70 32 -97 8 -17 -15 -18 -14
-18 34 0 36 -4 53 -15 57 -13 5 -15 -14 -15 -129z m130 -5 c17 -42 1 -96 -30
-100 -33 -5 -47 1 -58 25 -26 57 -5 105 44 105 26 0 34 -6 44 -30z"/>
<path d="M3180 6413 c0 -54 -4 -103 -8 -109 -15 -22 -42 -24 -62 -4 -11 11
-27 20 -35 20 -25 0 5 -49 34 -57 81 -21 101 7 101 143 0 86 -3 104 -15 104
-12 0 -15 -18 -15 -97z"/>
<path d="M3280 6432 c-16 -13 -24 -32 -27 -69 -5 -45 -2 -55 20 -77 35 -35 89
-35 122 -1 19 18 25 35 25 70 0 35 -6 52 -25 70 -29 30 -83 33 -115 7z m96
-29 c17 -23 18 -74 2 -95 -48 -60 -119 7 -88 82 10 24 19 30 43 30 17 0 36 -8
43 -17z"/>
<path d="M3688 6438 c-39 -32 -21 -81 35 -93 57 -13 72 -36 35 -56 -17 -9 -28
-8 -55 6 -40 22 -57 11 -24 -16 44 -36 131 -13 131 34 0 21 -33 47 -74 58 -37
10 -50 41 -22 52 18 7 56 -3 56 -14 0 -5 7 -9 15 -9 20 0 19 20 -2 36 -23 17
-75 18 -95 2z"/>
<path d="M2325 5835 c-274 -50 -431 -225 -355 -393 10 -23 43 -65 72 -93 l53
-51 -63 -120 c-35 -66 -62 -121 -60 -123 1 -1 81 35 177 81 l174 83 101 -6
c217 -12 426 65 512 190 57 83 57 171 0 254 -99 144 -370 223 -611 178z"/>
<path d="M4246 5435 c-3 -9 1 -18 10 -22 19 -7 28 2 21 22 -8 19 -23 19 -31 0z"/>
<path d="M3250 5425 c0 -8 7 -15 15 -15 8 0 15 7 15 15 0 8 -7 15 -15 15 -8 0
-15 -7 -15 -15z"/>
<path d="M3000 5305 l0 -125 61 0 c72 0 112 20 134 66 19 40 19 75 1 118 -21
51 -50 66 -128 66 l-68 0 0 -125z m142 84 c9 -5 22 -25 27 -45 22 -79 -17
-134 -95 -134 l-44 0 0 93 c0 52 3 97 7 101 9 8 80 -2 105 -15z"/>
<path d="M3250 5275 c0 -78 3 -95 15 -95 12 0 15 17 15 95 0 78 -3 95 -15 95
-12 0 -15 -17 -15 -95z"/>
<path d="M3340 5350 c-11 -11 -20 -23 -20 -28 0 -21 35 -52 66 -58 19 -3 39
-15 45 -25 8 -16 5 -21 -15 -30 -20 -10 -30 -9 -51 5 -36 24 -54 15 -27 -12
28 -28 81 -29 110 -2 39 36 20 72 -46 89 -30 9 -42 17 -42 30 0 11 6 21 14 24
18 7 56 -3 56 -14 0 -5 7 -9 15 -9 19 0 19 14 -1 34 -22 23 -80 20 -104 -4z"/>
<path d="M3529 5351 c-20 -16 -24 -28 -24 -76 0 -48 4 -60 24 -76 41 -33 131
-15 131 27 0 20 -16 18 -40 -6 -24 -24 -43 -25 -64 -4 -35 35 -27 116 13 127
21 5 61 -9 61 -23 0 -5 7 -10 15 -10 21 0 19 16 -5 40 -26 26 -80 26 -111 1z"/>
<path d="M3700 5293 c1 -49 6 -85 14 -95 15 -20 57 -23 87 -8 13 7 19 7 19 0
0 -5 7 -10 15 -10 12 0 15 17 15 95 0 77 -3 95 -15 95 -11 0 -15 -17 -17 -71
-2 -59 -7 -74 -23 -84 -13 -9 -28 -10 -42 -4 -21 8 -23 15 -23 84 0 60 -3 75
-15 75 -12 0 -15 -15 -15 -77z"/>
<path d="M3918 5359 c-21 -12 -24 -62 -5 -77 6 -6 26 -14 42 -18 39 -9 55 -22
48 -39 -8 -24 -41 -27 -73 -9 -35 22 -50 12 -25 -16 36 -40 135 -15 135 33 0
21 -33 47 -74 58 -26 7 -36 16 -36 29 0 19 15 25 50 20 8 -1 17 -6 18 -11 5
-13 32 -11 32 2 0 32 -74 50 -112 28z"/>
<path d="M4089 5357 c-40 -31 -23 -80 34 -92 57 -13 72 -36 35 -56 -17 -9 -28
-8 -55 6 -40 22 -57 11 -24 -16 31 -25 85 -25 111 1 37 37 18 72 -50 90 -41
11 -56 42 -26 53 18 7 56 -3 56 -14 0 -5 7 -9 15 -9 22 0 19 27 -4 40 -26 13
-72 12 -92 -3z"/>
<path d="M4250 5275 c0 -78 3 -95 15 -95 12 0 15 17 15 95 0 78 -3 95 -15 95
-12 0 -15 -17 -15 -95z"/>
<path d="M4350 5352 c-16 -13 -24 -32 -27 -69 -5 -45 -2 -55 20 -77 35 -35 89
-35 122 -1 19 18 25 35 25 70 0 35 -6 52 -25 70 -29 30 -83 33 -115 7z m100
-33 c14 -25 12 -72 -3 -93 -29 -40 -96 -12 -97 41 -1 70 71 107 100 52z"/>
<path d="M4530 5275 c0 -78 3 -95 15 -95 12 0 15 14 15 69 0 77 11 94 57 89
28 -3 28 -4 31 -80 2 -60 6 -78 17 -78 24 0 21 151 -3 173 -21 19 -54 22 -83
7 -13 -7 -19 -7 -19 0 0 5 -7 10 -15 10 -12 0 -15 -17 -15 -95z"/>
<path d="M4742 5350 c-12 -12 -22 -24 -22 -28 0 -20 34 -51 63 -57 57 -13 72
-36 35 -56 -17 -9 -28 -8 -55 6 -40 22 -57 11 -24 -16 31 -25 85 -25 111 1 36
36 18 67 -52 90 -40 12 -55 49 -20 51 28 2 47 -2 50 -12 6 -15 32 -10 32 6 0
36 -83 47 -118 15z"/>
<path d="M6610 6670 l0 -170 30 0 c30 0 30 1 30 55 l0 55 46 0 c61 0 109 24
128 65 20 41 20 56 1 101 -19 46 -63 64 -160 64 l-75 0 0 -170z m165 95 c14
-13 25 -31 25 -40 0 -31 -46 -65 -90 -65 l-40 0 0 65 0 65 40 0 c30 0 47 -7
65 -25z"/>
<path d="M6900 6670 l0 -170 30 0 c29 0 29 1 32 63 3 61 3 62 33 65 29 3 33
-2 65 -63 31 -60 36 -65 67 -65 18 0 33 1 33 3 0 2 -15 31 -34 66 l-33 62 28
29 c51 50 32 147 -32 169 -18 6 -67 11 -110 11 l-79 0 0 -170z m168 104 c26
-18 30 -65 7 -84 -8 -6 -36 -12 -62 -13 l-48 -2 -3 58 -3 57 43 0 c24 0 54 -7
66 -16z"/>
<path d="M7280 6822 c-45 -22 -80 -89 -80 -152 0 -60 35 -129 78 -153 20 -12
52 -19 82 -19 65 0 109 26 138 82 42 83 18 198 -50 240 -42 25 -120 26 -168 2z
m152 -64 c38 -50 35 -142 -7 -184 -28 -28 -88 -33 -122 -9 -42 29 -53 142 -20
186 35 45 116 49 149 7z"/>
<path d="M7570 6670 l0 -170 90 0 c104 0 141 14 160 59 16 41 6 76 -30 102
l-29 22 25 19 c17 14 24 29 24 53 0 62 -43 85 -161 85 l-79 0 0 -170z m168
108 c7 -7 12 -21 12 -33 0 -33 -20 -45 -72 -45 l-48 0 0 45 0 45 48 0 c26 0
53 -5 60 -12z m14 -145 c45 -40 10 -83 -68 -83 l-54 0 0 50 0 50 52 0 c34 0
58 -6 70 -17z"/>
<path d="M7880 6670 l0 -170 110 0 110 0 0 25 c0 25 -1 25 -80 25 l-80 0 0
145 0 145 -30 0 -30 0 0 -170z"/>
<path d="M8140 6670 l0 -170 110 0 110 0 0 25 c0 25 -1 25 -80 25 l-80 0 0 50
0 50 75 0 c73 0 75 1 75 25 0 24 -2 25 -75 25 l-75 0 0 45 0 45 80 0 c79 0 80
0 80 25 l0 25 -110 0 -110 0 0 -170z"/>
<path d="M8420 6671 l0 -171 30 0 29 0 3 113 3 112 45 -112 c60 -152 70 -152
129 -5 24 59 47 111 52 117 5 5 9 -40 9 -108 l0 -117 25 0 25 0 0 170 0 170
-34 0 c-33 0 -34 -2 -71 -92 -21 -51 -45 -110 -54 -132 l-16 -39 -50 129 -51
129 -37 3 -37 3 0 -170z"/>
<path d="M8983 6830 c-34 -14 -55 -53 -51 -96 4 -47 40 -74 122 -93 46 -10 57
-17 62 -37 9 -36 -12 -54 -62 -54 -30 0 -50 6 -64 20 -28 28 -70 34 -70 10 0
-31 42 -70 84 -80 96 -21 176 24 176 100 0 46 -29 74 -94 90 -76 20 -96 31
-96 54 0 32 19 46 62 46 29 0 41 -6 54 -25 10 -15 26 -25 40 -25 36 0 32 42
-7 74 -25 21 -41 26 -82 25 -29 0 -62 -4 -74 -9z"/>
<path d="M9300 6821 c-74 -39 -102 -154 -57 -241 28 -57 74 -84 139 -82 62 1
107 27 135 78 44 77 19 202 -49 244 -43 26 -121 27 -168 1z m145 -55 c46 -46
42 -166 -8 -201 -28 -19 -87 -19 -114 0 -42 29 -53 142 -20 186 34 44 105 52
142 15z"/>
<path d="M9600 6670 l0 -170 110 0 110 0 0 25 c0 25 -1 25 -80 25 l-80 0 0
145 0 145 -30 0 -30 0 0 -170z"/>
<path d="M9850 6719 c0 -175 27 -220 133 -221 68 -1 102 14 127 54 17 28 20
51 20 161 l0 127 -30 0 -30 0 0 -116 c0 -149 -12 -174 -82 -174 -28 0 -42 6
-57 26 -19 24 -21 40 -21 145 l0 119 -30 0 -30 0 0 -121z"/>
<path d="M10177 6833 c-4 -3 -7 -15 -7 -25 0 -15 8 -18 50 -18 62 0 63 -4 58
-169 l-3 -121 31 0 32 0 0 143 1 142 50 3 c47 3 51 5 51 28 l0 24 -128 0 c-71
0 -132 -3 -135 -7z"/>
<path d="M10480 6670 l0 -170 30 0 30 0 0 170 0 170 -30 0 -30 0 0 -170z"/>
<path d="M10673 6819 c-91 -58 -96 -237 -8 -295 56 -36 156 -35 198 4 81 73
72 236 -15 290 -47 29 -130 30 -175 1z m150 -53 c47 -43 48 -146 2 -192 -34
-34 -97 -33 -129 1 -45 49 -44 144 1 190 34 34 90 34 126 1z"/>
<path d="M10970 6670 l0 -170 30 0 29 0 3 117 3 118 80 -115 c65 -93 86 -116
108 -118 l27 -3 0 171 0 171 -27 -3 -28 -3 -5 -114 -5 -114 -79 117 c-70 102
-83 116 -108 116 l-28 0 0 -170z"/>
<path d="M11322 6533 c2 -22 8 -28 28 -28 20 0 25 5 25 25 0 20 -6 26 -28 28
-26 3 -28 1 -25 -25z"/>
<path d="M11427 6546 c-11 -28 4 -47 32 -44 20 2 26 8 26 28 0 20 -6 26 -26
28 -17 2 -29 -3 -32 -12z"/>
<path d="M11534 6545 c-10 -25 4 -45 30 -45 25 0 39 20 30 45 -4 8 -17 15 -30
15 -14 0 -27 -7 -30 -15z"/>
<path d="M11652 6533 c2 -22 8 -28 28 -28 20 0 25 5 25 25 0 20 -6 26 -28 28
-26 3 -28 1 -25 -25z"/>
</g>
</svg>
