<?xml version="1.0" standalone="no"?>
<!DOCTYPE svg PUBLIC "-//W3C//DTD SVG 20010904//EN"
 "http://www.w3.org/TR/2001/REC-SVG-20010904/DTD/svg10.dtd">
<svg version="1.0" xmlns="http://www.w3.org/2000/svg"
 width="1406.000000pt" height="1062.000000pt" viewBox="0 0 1406.000000 1062.000000"
 preserveAspectRatio="xMidYMid meet">

<g transform="translate(0.000000,1062.000000) scale(0.100000,-0.100000)"
fill="#000000" stroke="none">
<path d="M8112 9607 l-572 -572 0 -1013 0 -1012 -400 0 -400 0 0 915 c0 894 0
915 -19 925 -13 7 -444 10 -1323 10 l-1303 0 -577 -577 -578 -578 0 -842 0
-843 -198 0 -197 0 -578 -578 -577 -577 0 -2111 0 -2111 -323 -6 c-177 -4
-395 -7 -485 -7 -136 0 -164 -2 -168 -15 -4 -8 -1 -22 6 -30 12 -14 711 -15
6539 -10 3589 4 6536 8 6547 11 25 4 36 25 24 43 -5 9 -55 12 -194 11 l-186
-1 0 4755 c0 2615 -3 4761 -6 4770 -6 15 -212 16 -2233 16 l-2226 0 -573 -573z
m4388 -22 l-535 -535 -2160 0 -2160 0 535 535 535 535 2160 0 2160 0 -535
-535z m580 -4230 l0 -4715 -255 0 c-140 0 -255 4 -255 9 0 4 97 101 215 215
l215 208 -2 682 c-3 672 -3 681 -23 684 -15 2 -130 -108 -437 -415 l-418 -418
-2 -480 -3 -480 -50 0 -50 0 -3 4180 -2 4180 532 532 c293 293 534 533 535
533 2 0 3 -2122 3 -4715z m-1130 -540 l0 -4176 -72 3 -73 3 -5 475 -5 475
-727 3 -728 2 0 90 0 90 714 0 c393 0 721 3 730 6 14 6 16 76 16 689 0 613 -2
683 -16 689 -9 3 -337 6 -730 6 l-714 0 0 95 0 95 714 0 c393 0 721 3 730 6
14 6 16 75 16 684 0 415 -4 681 -9 685 -6 3 -534 5 -1175 5 l-1166 0 0 110 0
110 1163 0 c891 0 1166 3 1175 12 15 15 18 1353 3 1363 -5 3 -527 5 -1160 5
l-1151 0 0 110 0 110 1154 0 c1043 0 1154 2 1160 16 3 9 6 314 6 678 0 502 -3
665 -12 674 -17 17 -4029 17 -4046 0 -9 -9 -12 -126 -12 -465 l0 -453 -65 0
-65 0 0 990 0 990 2175 0 2175 0 0 -4175z m-5860 3440 l-535 -535 -1255 0
-1255 0 535 535 535 535 1255 0 1255 0 -535 -535z m580 -380 l0 -865 -80 0
-80 0 -2 242 c-3 229 -4 243 -22 246 -14 3 -127 -104 -422 -399 l-404 -404 0
-175 0 -176 -35 -34 -35 -34 0 695 0 694 537 537 c296 296 539 538 540 538 2
0 3 -389 3 -865z m5060 -625 l0 -630 -1125 0 -1125 0 0 189 c0 163 -2 190 -16
195 -9 3 -389 6 -845 6 l-829 0 0 428 c0 236 3 432 7 435 3 4 890 7 1970 7
l1963 0 0 -630z m-6200 -313 l0 -723 -30 -29 -30 -28 -2 249 -3 249 -1190 0
-1190 0 -3 -317 -2 -318 -40 0 -40 0 0 820 0 820 1265 0 1265 0 0 -723z m920
263 l0 -190 -62 0 -62 0 -303 -302 -303 -303 0 130 0 130 362 362 c200 200
364 363 365 363 2 0 3 -85 3 -190z m2390 -795 l-535 -535 -1515 0 -1515 0 535
535 535 535 1515 0 1515 0 -535 -535z m560 -1036 c-12 -833 -23 -1542 -26
-1576 -5 -62 -6 -63 -35 -63 l-29 0 0 201 c0 202 -6 239 -36 239 -9 0 -119
-99 -244 -220 l-227 -220 -79 0 -79 0 332 333 333 332 0 548 c0 359 -4 555
-10 568 -6 10 -18 19 -28 19 -9 0 -209 -192 -444 -427 l-428 -428 0 -472 0
-473 -25 0 -25 0 0 1047 0 1048 532 532 c293 293 534 531 535 529 2 -2 -6
-684 -17 -1517z m-3990 978 l0 -252 -120 -120 -120 -120 0 -202 0 -203 -205 0
-205 0 0 273 c0 199 -3 276 -12 285 -9 9 -203 12 -810 12 l-798 0 0 290 0 290
1135 0 1135 0 0 -253z m6320 -697 l0 -620 -1137 0 -1136 0 6 452 c4 248 7 527
7 620 l0 168 1130 0 1130 0 0 -620z m-7610 -225 l-535 -535 -1040 0 -1040 0
535 535 535 535 1040 0 1040 0 -535 -535z m577 -4782 c-2 -2 -195 -2 -429 -1
l-425 3 384 390 383 389 -2 466 -3 465 -25 3 c-21 2 -91 -63 -442 -415 l-418
-419 0 -442 0 -442 -50 0 -50 0 0 2097 0 2098 538 538 537 537 3 -2632 c1
-1447 0 -2633 -1 -2635z m3593 4127 l0 -1040 -40 0 -40 0 0 448 c0 335 -3 451
-12 460 -17 17 -2859 17 -2876 0 -9 -9 -12 -150 -12 -575 0 -546 1 -563 19
-573 13 -7 431 -10 1283 -10 l1262 0 -64 -65 -64 -65 -1206 0 c-925 0 -1209
-3 -1218 -12 -9 -9 -12 -148 -12 -564 0 -304 3 -559 6 -568 6 -14 88 -16 830
-16 l824 0 0 -75 0 -75 -819 0 c-679 0 -820 -2 -830 -14 -8 -9 -10 -169 -9
-577 l3 -564 828 -3 827 -2 0 -120 0 -120 -870 0 -870 0 0 2578 c0 1418 3
2582 7 2585 3 4 692 7 1530 7 l1523 0 0 -1040z m608 -697 l-343 -343 -47 0
-48 0 0 457 0 458 388 388 387 387 3 -502 2 -503 -342 -342z m-3728 1262 l0
-55 -205 0 -205 0 0 55 0 55 205 0 205 0 0 -55z m0 -688 l0 -564 -112 -6 c-62
-4 -155 -7 -205 -7 l-93 0 0 570 0 570 205 0 205 0 0 -563z m-1610 -1917 l0
-2090 -30 0 -30 0 0 458 c0 343 -3 461 -12 470 -17 17 -1949 17 -1966 0 -9 -9
-12 -127 -12 -470 l0 -458 -30 0 -30 0 0 2090 0 2090 1055 0 1055 0 0 -2090z
m8180 1320 l0 -620 -700 0 -700 0 0 140 c0 127 -2 140 -19 150 -13 6 -173 10
-450 10 l-431 0 0 168 c0 93 3 304 7 470 l6 302 1144 0 1143 0 0 -620z m-3590
105 c0 -310 -3 -425 -11 -425 -7 0 -53 -40 -103 -90 l-92 -90 -1287 0 -1287 0
0 515 0 515 1390 0 1390 0 0 -425z m1090 -260 l0 -165 -172 0 -173 1 170 164
c94 90 171 165 173 165 1 0 2 -74 2 -165z m-4070 50 l0 -75 -205 0 -205 0 0
70 0 70 198 3 c108 1 200 3 205 5 4 1 7 -32 7 -73z m0 -705 l0 -569 -205 -3
-205 -3 0 573 0 572 205 0 205 0 0 -570z m4520 -115 l-535 -535 -1040 0 -1040
0 535 535 535 535 1040 0 1040 0 -535 -535z m588 -997 l-3 -1483 -535 0 -535
0 -3 950 -2 949 532 533 c293 293 536 533 540 533 5 0 7 -667 6 -1482z m-2951
804 l-357 -357 0 -163 0 -162 -797 2 -798 3 -3 505 c-1 278 0 511 3 518 3 9
244 12 1157 12 l1153 0 -358 -358z m4413 -457 l0 -625 -700 0 -700 0 0 625 0
625 700 0 700 0 0 -625z m-6570 70 l0 -65 -205 0 -205 0 0 60 0 59 73 4 c39 1
132 4 205 5 l132 2 0 -65z m3970 -960 l0 -945 -1055 0 -1055 0 0 945 0 945
1055 0 1055 0 0 -945z m-3970 265 l0 -570 -92 0 c-51 0 -144 -3 -205 -7 l-113
-6 0 576 0 576 205 0 205 0 0 -569z m7533 -977 l-238 -232 -142 -1 -143 0 0
467 0 468 378 378 377 377 3 -612 3 -613 -238 -232z m-8153 976 l0 -402 -380
-381 -380 -381 0 410 0 410 372 372 c205 205 376 373 380 373 5 0 8 -181 8
-401z m2418 -391 l2 -518 -800 0 -800 0 0 513 c0 283 3 517 7 520 3 4 362 6
797 5 l791 -3 3 -517z m4772 -368 l0 -450 -700 0 -700 0 0 450 0 450 700 0
700 0 0 -450z m-8302 -12 l2 -438 -930 0 -930 0 0 440 0 440 928 -2 927 -3 3
-437z m1732 -148 l0 -290 -205 0 -205 0 0 285 0 284 143 4 c78 1 170 4 205 5
l62 2 0 -290z"/>
<path d="M12537 8423 l-417 -418 2 -680 c3 -671 3 -680 23 -683 15 -2 130 108
438 415 l417 418 -2 680 c-3 671 -3 680 -23 683 -15 2 -130 -108 -438 -415z
m23 -1298 l-380 -380 0 615 0 615 378 378 377 377 3 -612 2 -613 -380 -380z"/>
<path d="M12537 6793 l-417 -418 2 -680 c3 -671 3 -680 23 -683 15 -2 130 108
438 415 l417 418 -2 680 c-3 671 -3 680 -23 683 -15 2 -130 -108 -438 -415z
m23 -1298 l-380 -380 0 615 0 615 378 378 377 377 3 -612 2 -613 -380 -380z"/>
<path d="M12538 5192 l-418 -417 0 -683 c0 -617 2 -683 16 -689 12 -4 133 111
440 418 l424 424 0 670 c0 678 -1 695 -34 695 -6 0 -199 -188 -428 -418z m402
-311 l0 -610 -380 -383 -379 -383 -1 620 0 620 372 372 c205 205 376 373 380
373 5 0 8 -274 8 -609z"/>
<path d="M12537 3583 l-417 -418 2 -680 c3 -671 3 -680 23 -683 15 -2 130 108
438 415 l417 418 -2 680 c-3 671 -3 680 -23 683 -15 2 -130 -108 -438 -415z
m23 -1298 l-380 -380 0 615 0 615 378 378 377 377 3 -612 2 -613 -380 -380z"/>
<path d="M7990 8801 c-23 -6 -25 -11 -24 -62 9 -367 16 -588 20 -607 3 -17 10
-22 27 -20 22 3 22 5 24 187 l2 183 48 4 c84 7 127 58 126 151 0 63 -39 135
-80 151 -39 15 -113 22 -143 13z m114 -62 c14 -7 32 -26 41 -44 38 -82 3 -155
-75 -155 -37 0 -40 2 -40 28 0 16 -3 63 -6 105 l-7 77 31 0 c17 0 42 -5 56
-11z"/>
<path d="M8255 8780 c-18 -20 -18 -33 -7 -288 7 -147 12 -297 12 -333 0 -45 5
-70 14 -78 9 -7 42 -11 88 -9 70 3 73 4 73 28 0 24 -3 25 -62 28 l-63 3 0 143
0 143 41 6 c48 6 64 19 55 42 -5 13 -17 16 -53 14 l-48 -3 -3 132 -3 132 59 0
c68 0 94 17 67 44 -12 12 -35 16 -84 16 -56 0 -71 -4 -86 -20z"/>
<path d="M8498 8788 c-15 -12 -16 -37 -7 -258 5 -135 13 -290 17 -345 7 -98 7
-100 32 -100 21 0 25 4 24 30 0 17 -4 107 -8 200 l-6 170 34 -65 c19 -36 51
-110 71 -165 49 -130 72 -175 91 -175 28 0 27 32 -4 108 -17 43 -43 109 -58
147 -15 39 -40 95 -55 126 l-28 57 38 25 c81 54 94 164 29 235 -18 18 -32 22
-88 22 -38 0 -73 -5 -82 -12z m142 -67 c13 -25 13 -77 0 -101 -10 -20 -70 -60
-89 -60 -7 0 -11 30 -11 90 l0 90 45 0 c34 0 47 -5 55 -19z"/>
<path d="M9042 8792 c-88 -3 -108 -15 -81 -48 11 -13 26 -15 76 -11 l63 6 0
-32 c1 -124 32 -613 39 -620 5 -5 17 -7 27 -3 19 7 19 -32 -2 489 l-7 167 65
0 c52 0 67 3 72 17 4 9 3 20 -2 25 -10 10 -124 15 -250 10z"/>
<path d="M9314 8785 c-10 -26 14 -673 26 -695 6 -12 19 -20 28 -18 20 4 19
-29 7 403 -4 170 -12 305 -18 313 -13 17 -36 15 -43 -3z"/>
<path d="M9411 8786 c-10 -12 -10 -53 -1 -198 6 -101 14 -241 16 -313 7 -180
10 -197 37 -193 19 3 22 10 26 63 3 53 -10 272 -25 440 -3 33 -2 57 2 52 7 -7
47 -105 105 -262 41 -110 111 -277 122 -292 10 -14 53 -18 60 -5 5 7 -2 148
-23 502 -9 139 -16 199 -26 210 -12 13 -16 13 -27 0 -14 -15 -14 -11 7 -430 8
-156 11 -160 -131 221 -38 103 -96 214 -114 217 -9 2 -21 -4 -28 -12z"/>
<path d="M9838 8789 c-47 -18 -62 -67 -66 -223 -6 -187 12 -377 41 -436 30
-62 82 -88 135 -69 29 11 43 25 61 63 21 41 24 63 24 145 0 53 -1 119 -4 146
l-4 50 -75 0 c-73 0 -75 -1 -75 -25 0 -22 5 -26 42 -31 24 -3 46 -9 50 -13 5
-4 8 -58 8 -120 0 -125 -15 -166 -59 -166 -60 0 -76 64 -83 336 -6 250 0 294
44 294 14 0 33 -10 43 -22 17 -21 20 -22 35 -7 24 24 10 58 -31 75 -38 16 -48
16 -86 3z"/>
<path d="M10672 8787 c-6 -7 -15 -32 -21 -57 -36 -161 -44 -190 -51 -190 -4 0
-25 55 -46 121 -22 67 -45 124 -52 126 -8 3 -20 -1 -28 -8 -12 -13 -7 -35 37
-164 l50 -150 8 -181 c4 -99 11 -186 15 -192 10 -16 46 -15 47 1 0 6 -1 66 -2
132 -2 66 -3 136 -2 155 0 19 16 96 36 170 57 210 59 220 46 236 -14 17 -24
18 -37 1z"/>
<path d="M10777 8779 c-32 -24 -49 -82 -50 -164 -1 -103 30 -160 98 -182 48
-15 77 -78 77 -168 0 -148 -77 -195 -128 -78 -26 58 -56 70 -62 25 -5 -34 36
-110 69 -127 105 -55 187 39 177 204 -6 103 -38 161 -106 194 -38 18 -49 29
-60 62 -15 43 -10 141 8 175 16 31 46 25 59 -11 14 -40 45 -36 49 7 7 71 -73
109 -131 63z"/>
<path d="M11050 8791 c-106 -6 -115 -7 -115 -26 0 -17 8 -20 53 -23 l52 -3 0
-147 c0 -239 12 -491 24 -508 7 -10 18 -13 30 -8 17 7 18 16 12 133 -3 69 -7
216 -7 326 l-2 200 49 5 c38 4 50 9 52 24 4 17 -15 39 -28 34 -3 -1 -57 -4
-120 -7z"/>
<path d="M11251 8786 c-8 -10 -9 -74 -1 -237 5 -123 10 -275 10 -337 0 -95 3
-114 16 -119 9 -3 64 0 123 8 103 14 106 15 106 39 0 28 -15 30 -126 15 l-56
-7 -6 62 c-4 35 -7 91 -7 125 0 73 3 75 89 75 64 0 98 17 88 44 -6 16 -17 17
-92 11 l-85 -7 0 49 c0 28 -3 91 -6 141 l-7 92 79 -3 c75 -2 79 -1 82 20 4 26
-6 29 -119 37 -58 4 -80 2 -88 -8z"/>
<path d="M11765 8790 c-10 -17 -55 -172 -55 -192 0 -28 -14 -22 -34 15 -20 37
-78 133 -99 161 -9 13 -19 17 -32 12 -16 -6 -17 -15 -11 -83 3 -42 6 -197 6
-345 0 -235 2 -269 16 -275 8 -3 19 -2 24 3 5 5 11 129 12 276 3 253 4 266 20
250 10 -9 30 -48 46 -87 24 -60 32 -70 53 -70 21 0 25 7 37 60 7 33 16 74 20
90 5 18 13 -77 21 -240 11 -227 15 -272 29 -283 13 -10 19 -9 31 3 13 12 13
36 3 172 -7 87 -12 201 -12 253 0 113 -17 259 -32 277 -12 15 -34 17 -43 3z"/>
<path d="M7758 8770 c-45 -35 -70 -113 -76 -235 -11 -270 53 -445 163 -445 33
0 70 37 85 86 18 58 25 319 11 400 -17 100 -54 170 -101 194 -48 25 -51 25
-82 0z m97 -104 c47 -103 58 -327 23 -461 -11 -43 -17 -50 -41 -53 -25 -3 -30
2 -59 65 -31 65 -32 74 -36 220 -4 155 4 225 33 270 23 34 54 18 80 -41z"/>
<path d="M8872 8778 c-20 -25 -69 -424 -74 -603 -3 -83 -2 -90 16 -90 26 0 35
35 42 160 7 106 16 125 60 125 23 0 35 -32 50 -142 3 -24 10 -64 16 -90 8 -41
13 -48 34 -48 29 0 29 4 5 140 -10 58 -36 202 -56 320 -38 213 -46 240 -70
240 -7 0 -17 -6 -23 -12z m42 -267 c7 -44 10 -83 8 -86 -3 -3 -16 -5 -30 -5
-20 0 -23 4 -19 23 3 12 9 53 12 90 4 37 9 66 12 64 2 -2 10 -41 17 -86z"/>
<path d="M10291 8774 c-79 -55 -60 -237 28 -273 66 -28 113 -117 115 -221 3
-160 -120 -194 -140 -39 -8 57 -23 75 -48 56 -16 -12 -17 -19 -5 -78 10 -52
19 -71 49 -101 61 -61 121 -49 170 34 29 50 31 57 27 138 -6 127 -59 228 -136
260 -15 6 -35 25 -45 41 -24 40 -15 112 17 134 27 19 47 19 47 0 0 -21 34 -37
48 -23 18 18 14 46 -8 68 -25 25 -86 27 -119 4z"/>
<path d="M8008 7723 c-8 -10 -27 -43 -43 -75 -25 -47 -27 -58 -16 -72 18 -21
37 -20 50 2 8 13 10 14 11 2 0 -8 3 -25 6 -37 5 -20 2 -23 -19 -23 -38 0 -57
-10 -57 -31 0 -30 32 -39 114 -32 87 7 117 22 100 50 -6 10 -25 19 -41 21
l-30 3 -7 92 c-4 50 -12 97 -18 104 -14 18 -32 16 -50 -4z"/>
<path d="M3054 7545 c-9 -22 23 -251 56 -400 15 -71 36 -170 45 -220 22 -124
23 -127 48 -123 25 3 21 -16 63 338 32 273 42 381 36 398 -3 7 -14 12 -26 10
-19 -3 -22 -12 -30 -83 -4 -44 -18 -161 -30 -260 l-22 -180 -23 95 c-12 52
-33 169 -46 259 -23 151 -32 180 -58 181 -4 0 -10 -7 -13 -15z"/>
<path d="M3337 7554 c-4 -4 -7 -173 -7 -374 0 -313 2 -369 15 -380 8 -7 22
-10 30 -6 13 5 15 43 14 278 -2 362 -9 482 -29 486 -9 1 -19 0 -23 -4z"/>
<path d="M3433 7543 c-18 -17 -18 -35 -13 -383 l5 -365 49 2 c64 2 90 17 126
71 44 67 65 173 64 327 0 132 -12 205 -45 283 -15 33 -28 47 -61 62 -54 24
-100 25 -125 3z m106 -56 c16 -8 31 -32 44 -67 18 -47 21 -80 21 -230 1 -161
-1 -180 -23 -234 -26 -65 -60 -106 -88 -106 -17 0 -18 19 -19 325 0 322 0 325
20 325 12 0 32 -6 45 -13z"/>
<path d="M3917 7542 c-8 -9 -21 -30 -27 -46 -32 -85 -18 -558 19 -642 39 -87
108 -96 146 -19 17 35 20 65 23 246 5 293 -11 402 -69 460 -24 24 -71 25 -92
1z m78 -79 c15 -30 20 -80 26 -258 10 -278 -4 -390 -44 -356 -34 27 -42 100
-42 361 0 140 3 263 7 273 12 28 34 20 53 -20z"/>
<path d="M4300 7551 l-35 -6 2 -363 c1 -229 6 -368 12 -376 12 -15 129 -9 149
7 23 19 6 32 -49 37 l-54 5 -3 158 -3 157 35 0 c47 0 66 9 66 30 0 21 -31 34
-57 26 -36 -11 -42 7 -49 142 l-7 132 49 0 c57 0 77 10 72 36 -2 15 -13 19
-48 20 -25 1 -61 -1 -80 -5z"/>
<path d="M4468 7548 c-17 -12 -17 -38 -10 -383 l7 -370 35 -3 c47 -3 94 27
119 77 42 81 64 335 42 471 -14 85 -49 167 -79 189 -38 26 -92 36 -114 19z
m80 -65 c42 -36 62 -129 62 -287 0 -204 -30 -334 -81 -344 -12 -2 -14 34 -14
210 -1 117 -4 264 -8 326 -9 121 -4 133 41 95z"/>
<path d="M4800 7550 c-47 -4 -55 -8 -55 -25 0 -17 8 -20 46 -23 39 -2 48 -7
53 -25 3 -12 8 -161 11 -332 4 -170 8 -320 11 -333 3 -17 10 -22 27 -20 l22 3
-2 260 c-1 143 -5 301 -8 351 l-6 91 52 6 c58 7 75 18 66 42 -7 16 -78 18
-217 5z"/>
<path d="M5082 7549 c-47 -18 -56 -65 -60 -307 -4 -237 6 -362 36 -421 34 -69
109 -61 147 14 38 77 31 586 -9 663 -25 49 -70 69 -114 51z m65 -76 c16 -24
18 -56 18 -320 0 -260 -2 -294 -17 -309 -47 -47 -67 35 -75 301 -5 172 5 317
23 346 10 17 34 9 51 -18z"/>
<path d="M5291 7543 c-21 -18 -21 -24 -21 -372 -1 -219 3 -358 9 -364 5 -5 17
-7 25 -4 14 6 16 33 16 189 1 136 3 178 11 164 6 -10 37 -95 69 -190 47 -140
61 -171 76 -171 12 0 20 8 22 21 3 20 -77 272 -113 358 -9 21 -15 39 -13 41 2
1 13 7 25 13 11 7 33 35 47 64 30 61 36 160 11 207 -27 54 -122 79 -164 44z
m109 -58 c47 -56 -2 -225 -66 -225 -14 0 -15 8 -10 53 3 28 6 82 6 120 l0 67
29 0 c16 0 34 -7 41 -15z"/>
<path d="M3673 7533 c-3 -9 -1 -131 5 -272 7 -141 12 -299 12 -352 0 -65 4
-100 13 -107 7 -5 41 -7 82 -3 63 5 70 8 73 29 2 13 -2 22 -10 23 -7 0 -33 1
-58 2 l-45 2 -3 157 -2 156 39 7 c75 13 80 55 6 55 -53 0 -52 -2 -57 150 l-3
115 55 3 c59 3 82 15 73 38 -8 22 -171 20 -180 -3z"/>
<path d="M4675 7540 c-7 -11 13 -705 21 -728 2 -7 14 -12 26 -10 22 3 23 4 20
168 -4 206 -21 560 -28 571 -7 12 -31 11 -39 -1z"/>
<path d="M3350 6394 c-35 -63 -36 -97 -2 -102 16 -2 25 3 31 20 8 20 10 17 10
-19 1 -36 -3 -44 -26 -55 -17 -8 -28 -21 -28 -33 0 -19 6 -20 95 -16 52 1 99
7 105 12 16 16 -9 43 -49 52 l-36 9 0 75 c0 85 -11 113 -44 113 -19 0 -31 -13
-56 -56z"/>
<path d="M4138 4353 l-418 -418 0 -471 c0 -435 1 -472 17 -478 13 -5 119 95
440 416 l423 423 -2 470 c-3 461 -3 470 -23 473 -15 2 -130 -108 -437 -415z
m22 -878 l-380 -380 0 405 0 405 378 378 377 377 3 -402 2 -403 -380 -380z"/>
<path d="M4138 3173 l-418 -418 0 -471 c0 -435 1 -472 17 -478 13 -5 119 95
440 416 l423 423 -2 470 c-3 461 -3 470 -23 473 -15 2 -130 -108 -437 -415z
m22 -878 l-380 -380 0 405 0 405 378 378 377 377 3 -402 2 -403 -380 -380z"/>
<path d="M6698 5593 c-20 -2 -39 -11 -42 -19 -3 -8 1 -65 9 -127 7 -62 19
-206 25 -322 6 -115 12 -219 13 -230 3 -27 43 -33 51 -7 4 11 2 92 -4 182 -6
89 -9 164 -6 167 8 8 60 -105 100 -217 48 -133 49 -135 72 -135 15 0 19 7 17
35 -2 42 -83 253 -125 328 l-29 52 32 27 c97 82 69 256 -42 267 -19 2 -50 2
-71 -1z m94 -70 c21 -19 25 -108 5 -134 -12 -16 -57 -43 -61 -37 -6 8 -24 174
-20 180 9 14 57 8 76 -9z"/>
<path d="M7898 5582 c-8 -9 -8 -43 0 -115 14 -129 20 -211 32 -416 5 -90 13
-168 18 -173 5 -5 17 -6 27 -2 17 7 17 18 11 160 -3 84 -9 167 -12 186 l-6 33
21 -25 c20 -24 112 -245 126 -302 4 -15 13 -32 21 -39 22 -18 45 7 38 40 -12
50 -95 257 -129 317 l-33 62 24 13 c80 42 93 190 24 252 -28 25 -38 28 -92 25
-33 -2 -64 -9 -70 -16z m142 -72 c25 -47 2 -127 -43 -147 -28 -13 -30 -9 -43
114 -6 59 -6 61 17 65 30 5 56 -7 69 -32z"/>
<path d="M5737 5576 c-8 -8 -25 -12 -40 -9 -21 4 -27 1 -31 -18 -11 -49 -36
-217 -45 -299 -17 -153 -24 -191 -31 -183 -4 4 -15 46 -25 93 -21 101 -29 120
-54 120 -23 0 -26 -7 -42 -103 -21 -126 -22 -123 -58 183 -26 216 -27 220 -51
220 -10 0 -21 -4 -24 -9 -10 -16 35 -387 70 -570 8 -40 14 -83 14 -96 0 -32
27 -53 45 -34 10 11 41 169 46 242 0 7 14 -39 30 -102 15 -63 35 -121 43 -129
25 -25 43 -7 51 50 14 111 46 348 63 463 l17 120 6 -70 c4 -38 7 -131 8 -206
1 -175 18 -351 35 -364 20 -15 175 -3 185 14 20 33 1 43 -73 39 l-71 -3 -6 60
c-4 33 -7 92 -8 131 l-1 72 48 9 c37 6 47 12 47 28 0 17 -8 20 -52 23 l-53 3
0 141 0 140 63 -6 c52 -6 66 -4 77 9 22 27 -7 42 -92 49 -58 4 -80 2 -91 -8z"/>
<path d="M6018 5583 c-14 -2 -30 -10 -35 -16 -9 -12 0 -414 12 -596 l7 -93 73
4 c79 4 110 21 141 80 35 67 6 228 -51 288 l-27 28 28 53 c20 40 28 69 28 110
1 67 -18 101 -74 129 -39 20 -49 21 -102 13z m97 -78 c30 -29 33 -75 9 -135
-14 -35 -68 -89 -79 -78 -3 3 -8 201 -6 231 2 17 54 5 76 -18z m7 -292 c33
-34 44 -63 53 -135 11 -89 -28 -148 -99 -148 -23 0 -23 2 -29 146 -4 81 -4
151 -1 155 11 18 51 8 76 -18z"/>
<path d="M6440 5575 c-10 -12 -10 -55 -1 -202 6 -104 11 -254 11 -334 0 -107
3 -149 13 -157 19 -16 122 1 148 24 70 62 65 261 -8 327 -20 17 -20 17 2 65
45 95 40 200 -12 263 -22 26 -31 29 -83 29 -39 0 -62 -5 -70 -15z m120 -67
c25 -42 26 -119 1 -173 -17 -38 -47 -72 -55 -64 -8 7 -19 238 -13 253 11 27
46 18 67 -16z m9 -322 c42 -45 54 -160 22 -212 -16 -27 -65 -53 -77 -41 -7 7
-17 245 -11 261 9 23 40 20 66 -8z"/>
<path d="M6945 5568 c-33 -30 -45 -101 -45 -268 1 -217 23 -330 76 -386 25
-28 39 -34 71 -34 73 0 88 41 100 275 4 83 9 134 11 115 10 -108 53 -365 63
-376 16 -19 36 -17 48 4 5 10 13 54 17 98 4 43 10 85 13 92 6 11 25 -56 46
-166 8 -37 37 -59 53 -39 6 7 16 71 22 142 6 72 17 177 25 235 29 204 35 303
19 320 -29 29 -44 -8 -54 -131 -5 -63 -17 -170 -27 -239 l-17 -124 -22 84
c-12 47 -25 97 -28 113 -4 18 -13 27 -26 27 -28 0 -40 -30 -40 -102 0 -107
-16 -100 -30 13 -6 57 -19 160 -28 229 -17 122 -18 125 -42 125 -24 0 -25 -2
-22 -50 l3 -50 -19 35 c-18 35 -88 80 -124 80 -9 0 -29 -10 -43 -22z m107 -69
c27 -32 38 -112 37 -277 -1 -173 -9 -266 -26 -283 -15 -15 -49 5 -68 40 -25
49 -37 160 -37 331 0 192 8 226 50 216 15 -4 35 -16 44 -27z"/>
<path d="M7524 5575 c-35 -24 -46 -67 -43 -164 l4 -89 57 -59 c47 -50 57 -68
63 -107 10 -66 0 -161 -19 -191 -30 -45 -54 -28 -70 48 -4 18 -13 27 -26 27
-27 0 -33 -15 -25 -61 10 -59 42 -91 89 -91 48 0 73 23 96 92 l18 52 7 -61 c4
-35 15 -71 25 -83 16 -21 21 -22 52 -10 19 6 48 12 65 12 35 0 58 22 49 46 -5
12 -19 15 -68 12 l-63 -3 0 150 0 150 50 5 c42 4 50 8 50 25 0 17 -8 20 -52
23 l-53 3 0 115 0 114 70 0 c56 0 72 3 77 16 11 30 -19 39 -113 34 l-89 -5 -5
-215 c-3 -118 -7 -205 -8 -192 -3 37 -31 84 -80 135 -46 46 -47 49 -50 120 -3
53 0 77 11 92 15 20 16 20 26 -7 13 -34 28 -43 46 -28 23 19 18 49 -14 81 -33
33 -47 35 -77 14z"/>
<path d="M1695 4670 c-3 -5 -14 -40 -24 -78 -10 -37 -23 -77 -29 -87 -10 -18
-12 -17 -27 20 -48 116 -64 145 -83 145 -17 0 -20 -10 -26 -92 -3 -50 -6 -162
-6 -248 0 -126 3 -160 15 -170 30 -25 35 0 35 193 l1 192 30 -65 c44 -94 66
-103 91 -37 l17 42 0 -147 c1 -80 4 -153 7 -162 3 -9 15 -16 25 -16 18 0 19
11 19 248 0 180 -3 251 -12 260 -15 15 -25 15 -33 2z"/>
<path d="M1763 4673 c-16 -6 -18 -342 -3 -424 13 -69 46 -101 99 -97 30 2 39
9 53 38 15 30 18 68 18 248 1 116 -2 216 -5 222 -9 14 -35 12 -35 -2 0 -91
-12 -427 -16 -440 -3 -10 -13 -18 -23 -18 -41 0 -46 23 -49 246 -3 213 -8 238
-39 227z"/>
<path d="M1982 4672 c-16 -11 -32 -67 -32 -117 0 -66 18 -111 54 -138 69 -53
76 -216 9 -217 -7 0 -13 18 -15 43 -2 34 -7 42 -23 42 -17 0 -21 -8 -23 -45
-7 -110 107 -123 147 -17 25 66 -2 174 -58 225 -35 32 -36 35 -36 105 0 57 3
72 15 72 8 0 16 -10 18 -22 2 -15 10 -23 23 -23 15 0 19 7 19 31 0 48 -16 69
-53 69 -18 0 -38 -4 -45 -8z"/>
<path d="M2220 4662 c-39 -31 -50 -162 -30 -362 8 -84 12 -98 35 -117 29 -25
77 -30 93 -10 18 22 24 58 12 72 -15 18 -40 8 -40 -16 0 -10 -7 -19 -15 -19
-32 0 -39 41 -40 222 0 191 6 215 45 190 29 -18 50 -15 50 7 0 24 -36 51 -66
51 -12 0 -32 -8 -44 -18z"/>
<path d="M2492 4668 c-9 -9 -12 -79 -12 -255 0 -214 2 -244 16 -250 27 -10 34
17 34 127 l0 106 29 11 c18 6 37 26 50 49 l20 39 -6 -160 c-5 -130 -3 -162 8
-171 9 -7 39 -9 77 -6 57 4 63 6 60 26 -3 19 -9 21 -51 18 l-47 -3 3 230 c2
127 0 236 -4 242 -12 20 -39 1 -39 -27 l0 -26 -35 31 c-37 32 -81 41 -103 19z
m70 -55 c32 -29 18 -148 -19 -161 -10 -3 -13 19 -13 87 0 50 3 91 7 91 3 0 15
-7 25 -17z"/>
<path d="M2847 4673 c-10 -15 -68 -454 -65 -486 2 -24 8 -32 23 -32 18 0 21 9
28 85 9 103 11 110 36 110 22 0 26 -15 36 -113 7 -68 24 -92 46 -70 11 11 -31
367 -53 458 -12 46 -37 70 -51 48z m33 -233 c0 -22 -4 -40 -10 -40 -5 0 -10
18 -10 40 0 22 5 40 10 40 6 0 10 -18 10 -40z"/>
<path d="M2944 4667 c-3 -8 9 -56 27 -108 29 -85 32 -109 38 -254 6 -151 7
-160 26 -160 19 0 20 9 26 150 5 132 10 163 39 258 28 90 31 110 20 117 -23
14 -36 -5 -55 -77 -10 -38 -20 -72 -24 -78 -3 -5 -17 28 -32 75 -17 58 -31 86
-42 88 -10 2 -20 -3 -23 -11z"/>
<path d="M3356 4672 l-29 -7 -1 -255 -1 -255 23 -3 c22 -3 22 -2 22 103 0 62
4 104 9 100 5 -3 24 -48 41 -100 33 -98 44 -115 63 -96 14 14 0 69 -45 183
l-31 78 20 23 c42 45 57 102 43 162 -14 60 -49 81 -114 67z m68 -79 c11 -39
-17 -123 -40 -123 -11 0 -14 17 -14 73 0 41 3 77 7 81 15 15 38 -1 47 -31z"/>
<path d="M2118 4628 c-2 -24 -1 -137 2 -253 5 -202 6 -210 25 -210 23 0 21
-23 17 320 -2 176 -3 185 -21 185 -16 0 -20 -8 -23 -42z"/>
<path d="M3157 4664 c-4 -4 -7 -119 -7 -254 0 -186 3 -250 13 -257 6 -5 39 -7
72 -4 51 5 60 9 60 26 0 17 -8 20 -47 23 l-48 3 0 95 0 94 28 0 c36 0 56 14
49 34 -4 10 -18 16 -40 16 -32 0 -35 3 -41 38 -3 20 -6 61 -6 90 l0 52 56 0
c52 0 55 1 52 23 -3 20 -9 22 -68 25 -36 2 -69 0 -73 -4z"/>
<path d="M1522 3928 c-19 -19 -17 -1041 2 -1057 10 -8 277 -10 992 -9 l979 3
3 524 c1 378 -1 528 -9 537 -16 19 -1948 21 -1967 2z m1903 -54 c13 -5 15 -64
15 -480 l0 -474 -930 0 -930 0 0 480 0 480 915 0 c503 0 921 -3 930 -6z"/>
<path d="M1760 3716 c-48 -63 -48 -91 -1 -84 27 4 30 1 33 -29 4 -33 4 -33
-39 -33 -54 0 -68 -23 -33 -52 20 -16 37 -18 119 -16 95 3 96 3 96 28 0 20 -7
26 -37 33 -38 9 -38 9 -39 60 -1 99 -12 142 -36 145 -16 2 -32 -10 -63 -52z"/>
<path d="M1522 2748 c-17 -17 -17 -1039 0 -1056 19 -19 1951 -17 1967 2 8 9
10 159 9 537 l-3 524 -980 3 c-755 2 -984 -1 -993 -10z m1913 -528 l0 -475
-927 -3 -928 -2 0 480 0 480 928 -2 927 -3 0 -475z"/>
<path d="M1759 2551 c-43 -42 -46 -59 -12 -76 19 -10 20 -13 7 -35 -18 -33
-17 -45 2 -64 20 -21 136 -22 153 -2 19 23 1 46 -40 52 -21 4 -39 8 -39 11 0
2 9 21 20 43 52 101 -9 149 -91 71z"/>
<path d="M5620 4483 c-15 -4 -90 -123 -90 -142 0 -6 8 -14 18 -20 13 -7 23 -4
40 11 l22 21 0 -46 0 -46 -42 -3 c-38 -3 -43 -6 -43 -28 0 -25 1 -25 104 -30
79 -4 108 -2 118 8 21 21 -2 52 -37 52 -29 0 -30 2 -30 44 0 137 -18 190 -60
179z"/>
<path d="M9724 2088 l-429 -393 -3 -471 c-2 -426 -1 -472 14 -478 20 -8 -4
-29 478 413 l406 373 -2 471 c-3 425 -5 472 -19 475 -10 2 -184 -151 -445
-390z m406 -122 l0 -404 -342 -313 c-189 -173 -364 -333 -390 -358 l-48 -44 0
406 0 407 387 355 c213 195 389 355 390 355 2 0 3 -182 3 -404z"/>
<path d="M5588 3167 c-33 -28 -51 -63 -43 -86 12 -40 65 -32 65 10 0 10 5 21
10 24 32 20 -10 -90 -54 -142 -31 -37 -28 -70 7 -78 12 -3 58 -5 102 -3 70 3
80 5 83 22 6 28 -25 46 -76 46 -24 0 -42 3 -40 8 52 100 66 174 39 206 -19 23
-61 20 -93 -7z"/>
<path d="M7364 2406 c-3 -7 -1 -145 3 -307 l8 -294 74 0 c41 0 81 5 89 11 28
20 2 34 -64 34 l-64 0 0 119 0 120 43 3 c34 2 42 7 42 23 0 16 -8 21 -42 23
l-43 3 0 115 0 114 49 0 c48 0 72 13 55 30 -16 14 -145 19 -150 6z"/>
<path d="M7686 2403 c-3 -10 -12 -57 -22 -105 -17 -90 -27 -102 -39 -45 -28
125 -63 189 -81 143 -4 -11 22 -110 67 -249 10 -31 10 -50 -4 -110 -28 -128
-39 -209 -28 -220 23 -23 37 3 50 93 7 51 17 88 21 84 4 -5 13 -33 19 -62 15
-73 37 -122 55 -122 24 0 27 15 10 61 -8 24 -26 89 -39 144 l-23 100 26 124
c15 69 30 124 35 123 4 -1 24 -2 45 -2 l39 0 6 -272 c5 -200 10 -274 19 -279
7 -5 16 -5 21 0 4 4 7 130 5 280 -3 265 -2 272 17 277 11 3 31 3 45 2 20 -2
26 2 28 20 l4 24 -116 -3 c-64 -1 -119 1 -123 4 -12 13 -32 7 -37 -10z"/>
<path d="M8083 2408 c-11 -18 -3 -549 8 -570 7 -13 22 -18 49 -18 51 0 70 8
70 31 0 15 -7 19 -40 19 l-40 0 0 109 c0 60 -3 116 -6 125 -5 12 5 17 46 22
39 5 50 10 48 23 -2 11 -16 17 -51 19 l-47 3 0 104 0 103 36 0 c39 0 60 14 50
31 -10 15 -113 14 -123 -1z"/>
<path d="M8243 2408 c-9 -13 2 -512 12 -557 5 -21 10 -23 42 -18 44 8 76 36
105 96 21 42 23 60 23 201 0 147 -1 157 -25 200 -37 66 -131 113 -157 78z m76
-53 c46 -23 61 -77 61 -218 -1 -148 -10 -191 -48 -230 l-30 -30 -6 54 c-6 61
-14 439 -8 439 1 0 16 -7 31 -15z"/>
<path d="M8560 2412 c-25 -2 -49 -8 -55 -13 -14 -15 22 -39 57 -39 l28 0 1
-167 c1 -93 4 -213 8 -268 5 -91 8 -100 26 -100 18 0 20 6 19 55 0 30 -2 152
-3 270 l-3 215 39 5 c30 4 38 9 38 25 0 18 -7 20 -55 20 -30 0 -75 -1 -100 -3z"/>
<path d="M8762 2397 c-34 -36 -45 -121 -40 -312 4 -150 7 -175 26 -212 35 -68
89 -71 122 -7 24 46 28 431 5 491 -25 66 -73 83 -113 40z m70 -49 c19 -33 18
-424 0 -456 -18 -31 -34 -24 -51 24 -19 52 -20 362 -2 417 14 42 34 48 53 15z"/>
<path d="M7115 2403 c-22 -6 -36 -23 -29 -35 3 -4 27 -8 55 -8 l49 0 0 -88 c0
-49 3 -171 7 -271 5 -146 9 -184 21 -188 8 -3 17 -1 21 6 4 6 5 134 3 283 l-5
271 43 -6 c52 -7 70 -1 70 24 0 18 -8 19 -107 18 -60 -1 -117 -4 -128 -6z"/>
<path d="M8448 2403 c-2 -4 -1 -138 2 -298 4 -249 7 -290 20 -290 25 0 34 146
24 381 -8 182 -11 209 -26 212 -9 2 -18 -1 -20 -5z"/>
<path d="M8903 2394 c-9 -25 6 -557 17 -568 6 -6 15 -5 23 3 12 9 14 39 11
149 l-4 137 19 -41 c11 -23 32 -86 47 -140 15 -55 33 -105 40 -113 14 -16 34
-7 34 16 0 26 -78 267 -94 288 -12 17 -11 22 13 46 48 48 66 152 34 199 -24
36 -33 40 -86 40 -35 0 -49 -4 -54 -16z m86 -34 c41 -21 27 -128 -22 -169 -16
-12 -17 -6 -17 83 0 98 3 106 39 86z"/>
<path d="M7117 1663 c-4 -3 -7 -214 -7 -469 0 -412 2 -463 16 -468 9 -3 445
-6 969 -6 933 0 955 0 965 19 6 13 10 174 10 456 0 282 -4 443 -10 456 -10 19
-32 19 -974 19 -529 0 -966 -3 -969 -7z m1883 -468 l0 -415 -912 2 -913 3 -3
413 -2 412 915 0 915 0 0 -415z"/>
<path d="M7345 1488 c-32 -38 -47 -72 -39 -93 7 -18 54 -20 55 -2 0 6 5 1 10
-12 13 -33 8 -42 -31 -55 -28 -9 -35 -16 -35 -36 0 -28 0 -28 124 -14 54 7 77
14 85 27 9 15 7 21 -8 33 -11 8 -30 14 -42 14 -19 0 -22 7 -28 68 -4 37 -10
75 -12 85 -9 28 -49 21 -79 -15z"/>
<path d="M5589 1847 c-42 -28 -53 -75 -20 -84 14 -3 21 -13 21 -29 0 -25 33
-50 51 -38 7 4 9 -4 7 -22 -3 -27 -6 -29 -43 -29 -34 0 -41 -4 -43 -22 -4 -29
38 -58 74 -49 47 12 74 50 74 102 0 29 -6 54 -16 65 -12 13 -13 25 -6 51 20
74 -29 102 -99 55z"/>
<path d="M1762 1419 c-47 -30 -57 -89 -15 -89 9 0 28 10 42 23 l25 22 -17 -25
c-26 -38 -30 -48 -23 -66 4 -11 14 -15 31 -12 22 5 25 2 25 -23 0 -34 -17 -47
-34 -24 -16 23 -50 15 -54 -12 -7 -50 68 -81 115 -48 40 28 51 127 18 155 -9
8 -10 20 -2 49 8 30 8 43 -2 55 -19 22 -70 20 -109 -5z"/>
</g>
</svg>
