<?xml version="1.0" standalone="no"?>
<!DOCTYPE svg PUBLIC "-//W3C//DTD SVG 20010904//EN"
 "http://www.w3.org/TR/2001/REC-SVG-20010904/DTD/svg10.dtd">
<svg version="1.0" xmlns="http://www.w3.org/2000/svg"
 width="720.000000pt" height="720.000000pt" viewBox="0 0 720.000000 720.000000"
 preserveAspectRatio="xMidYMid meet">

<g transform="translate(0.000000,720.000000) scale(0.100000,-0.100000)"
fill="#000000" stroke="none">
<path d="M1655 6555 c-182 -32 -310 -84 -455 -186 -259 -182 -424 -475 -456
-806 -7 -72 -6 -73 18 -73 23 0 24 4 36 103 56 469 404 837 862 912 112 18
185 19 283 4 250 -37 500 -175 653 -360 130 -158 204 -326 232 -531 16 -111
18 -118 40 -118 26 0 27 11 11 127 -33 245 -140 457 -318 631 -142 140 -343
247 -536 287 -111 23 -273 27 -370 10z"/>
<path d="M6075 6525 c-308 -52 -564 -218 -736 -478 -88 -134 -169 -362 -169
-477 0 -54 -17 -32 -23 31 -23 213 -142 447 -316 617 -179 176 -414 282 -678
308 -72 7 -73 6 -73 -18 0 -23 4 -24 103 -36 400 -48 738 -315 868 -686 17
-50 38 -141 47 -208 l17 -118 45 0 46 0 12 103 c48 400 315 738 686 868 50 17
141 38 208 47 111 16 118 18 118 40 0 19 -5 22 -37 21 -21 -1 -74 -7 -118 -14z"/>
<path d="M3477 5724 c-4 -4 -7 -67 -7 -140 l0 -133 -132 -3 c-125 -3 -133 -4
-133 -23 0 -19 8 -20 132 -23 l132 -3 3 -147 c3 -139 4 -147 23 -147 19 0 20
8 23 147 l3 147 137 3 c129 3 137 4 137 23 0 19 -8 20 -137 23 l-137 3 -3 137
c-3 114 -6 137 -18 140 -9 1 -19 0 -23 -4z"/>
<path d="M1864 5453 c-5 -4 -16 -53 -22 -109 -49 -399 -316 -736 -686 -865
-50 -17 -141 -38 -208 -47 -111 -16 -118 -18 -118 -39 0 -27 11 -28 127 -12
245 33 457 140 631 318 172 175 272 391 307 664 7 53 3 52 108 36 250 -37 500
-175 653 -360 130 -158 204 -326 232 -531 16 -111 18 -118 40 -118 26 0 27 11
11 127 -69 508 -477 893 -994 938 -38 3 -75 2 -81 -2z"/>
<path d="M6152 5318 c-56 -470 -404 -838 -862 -913 -112 -18 -185 -19 -283 -4
-250 37 -500 175 -653 360 -130 158 -204 326 -232 531 -16 111 -18 118 -39
118 -27 0 -28 -11 -12 -127 33 -245 140 -457 318 -631 266 -261 668 -371 1011
-276 452 126 760 497 806 972 7 71 6 72 -18 72 -23 0 -24 -4 -36 -102z"/>
<path d="M3562 4148 c-9 -9 -12 -82 -12 -285 l0 -273 -45 0 c-29 0 -48 -5 -51
-13 -3 -8 44 -146 103 -308 92 -248 112 -294 128 -294 17 0 37 46 128 294 59
161 106 300 103 307 -4 9 -22 14 -56 14 l-50 0 -2 283 -3 282 -115 3 c-81 2
-119 -1 -128 -10z m198 -312 c0 -208 3 -276 13 -284 7 -6 29 -12 48 -14 l37
-3 -86 -234 c-47 -129 -88 -230 -89 -225 -2 5 -41 110 -87 234 l-84 225 44 3
44 3 0 285 0 284 80 0 80 0 0 -274z"/>
<path d="M6305 2755 c-308 -52 -564 -218 -736 -478 -88 -134 -169 -362 -169
-477 0 -54 -17 -32 -23 31 -23 213 -142 447 -316 617 -179 176 -414 282 -678
308 -72 7 -73 6 -73 -18 0 -23 4 -24 103 -36 469 -56 837 -404 912 -862 18
-112 19 -185 4 -283 -37 -250 -175 -500 -360 -653 -158 -130 -326 -204 -531
-232 -111 -16 -118 -18 -118 -39 0 -27 11 -28 127 -12 245 33 457 140 631 318
172 175 272 391 307 664 7 53 3 52 108 36 250 -37 500 -175 653 -360 130 -158
204 -326 232 -531 16 -111 18 -118 40 -118 26 0 27 11 11 127 -43 314 -215
588 -482 764 -134 88 -362 169 -477 169 -27 0 -30 3 -30 31 0 117 52 304 121
439 154 302 437 500 781 548 111 16 118 18 118 40 0 19 -5 22 -37 21 -21 -1
-74 -7 -118 -14z"/>
<path d="M1815 2745 c-182 -32 -310 -84 -455 -186 -259 -182 -424 -475 -456
-806 -7 -72 -6 -73 18 -73 23 0 24 4 36 103 56 469 404 837 862 912 112 18
185 19 283 4 250 -37 500 -175 653 -360 130 -158 204 -326 232 -531 16 -111
18 -118 40 -118 26 0 27 11 11 127 -33 245 -140 457 -318 631 -142 140 -343
247 -536 287 -111 23 -273 27 -370 10z"/>
<path d="M4230 1740 c0 -5 11 -10 25 -10 14 0 25 5 25 10 0 6 -11 10 -25 10
-14 0 -25 -4 -25 -10z"/>
<path d="M6343 1743 c9 -2 23 -2 30 0 6 3 -1 5 -18 5 -16 0 -22 -2 -12 -5z"/>
<path d="M2992 1578 c-56 -470 -404 -838 -862 -913 -112 -18 -185 -19 -283 -4
-250 37 -500 175 -653 360 -130 158 -204 326 -232 531 -16 111 -18 118 -39
118 -27 0 -28 -11 -12 -127 33 -245 140 -457 318 -631 266 -261 668 -371 1011
-276 452 126 760 497 806 972 7 71 6 72 -18 72 -23 0 -24 -4 -36 -102z"/>
</g>
</svg>
