<svg xmlns="http://www.w3.org/2000/svg" viewBox="0 0 2390.62 1701.22"><title>image-122-ascii</title><g id="Zeichnungseb."><path d="M1552.28,949.75c-3.06,12.55-5.71,25.19-8.72,37.74-1.58,6.61-3.14,13.22-4.75,19.82-1.56,6.38-3.18,12.75-4.65,19.14q-4.76,20.63-9.13,41.33c-1.4,6.69-2.69,13.41-4,20.13-1.2,6.18-2.1,12.43-3.13,18.65-2.19,13.21-4.8,26.35-7.23,39.52-1.07,5.81-2,11.64-3.16,17.45q-1.95,10.15-4,20.31c-1.18,5.91-2.41,11.82-3.53,17.75q-2,10.85-3.91,21.7c-2.27,13-4.28,26.15-6.44,39.22s-4.06,26-6,39c-.86,5.71-1.88,11.41-2.81,17.13q-1.77,10.95-3.44,21.92c-2,12.93-4.27,25.83-6.52,38.73q-3.45,19.74-7.07,39.45c-1.11,6-2.31,12-3.33,18-1.09,6.4-2.23,12.79-3.32,19.18q-3.33,19.39-7.27,38.68-3.06,14.87-6.37,29.66c-1,4.26-2,8.52-2.91,12.78s-2,8.51-2.68,12.81a6.69,6.69,0,0,0-.59,2.77,10.44,10.44,0,0,0,.24,3.38,7.11,7.11,0,0,0,5,5c2.94.8,6.69-.45,8.12-3.31a29.39,29.39,0,0,0,1.65-4c.22-.72.4-1.45.6-2.18.39-1.52.77-3,1.15-4.58q1.25-5,2.53-10c1.49-5.93,2.95-11.86,4.31-17.82,3-13.17,5.88-26.35,8.51-39.6,2.52-12.73,4.85-25.5,7.17-38.27,1.09-6,2.34-12,3.51-18q2.14-11,4.2-22,3.64-19.53,7.13-39.08c2.29-12.9,4.25-25.86,6.38-38.78,1-5.71,2-11.41,2.82-17.13q1.6-10.79,3.18-21.58c1.9-13.16,4.06-26.29,6-39.46s3.79-26.18,6-39.24c2.11-12.8,4.3-25.57,6.38-38.37,2.14-13.19,4-26.42,6.12-39.62.93-5.93,1.78-11.87,2.61-17.81.88-6.25,1.64-12.54,2.67-18.77,1.12-6.77,2.23-13.54,3.44-20.29q1.93-10.68,4-21.34c2.51-13.23,5.46-26.37,8.41-39.51,1.89-8.44,3.84-16.87,5.72-25.31,2.4-10.8,4.69-21.62,7.3-32.37a5.31,5.31,0,0,0-3.66-6.44,5.07,5.07,0,0,0-1.33-.18,5.25,5.25,0,0,0-5.11,3.83Zm-114.62,601.79,0,.28v0c0-.11,0-.21,0-.32Z" transform="translate(-74.25 -164.61)"/><path d="M1547.85,949a5.51,5.51,0,0,0-2.64,3.44q-.23,1.45-.42,2.91c-.07.47-.15.95-.22,1.43a5.38,5.38,0,0,0-1.42,3.52c-.21,3-.44,5.9-.72,8.85-.25,1.36-.5,2.72-.76,4.08-1.21,6.44-2.52,12.86-3.68,19.3l-1,5.68c-.23,1.13-.47,2.26-.7,3.39-1.4,6.81-2.93,13.6-4.19,20.43s-2.59,13.7-3.81,20.56q-2,11.1-4,22.2c-.55,3-.94,6.14-1.4,9.19-.58,3.82-1.26,7.62-1.71,11.46-.75,6.44-1.55,12.88-2.2,19.33q-1.14,11.25-2.12,22.51c-.37,4.21-.83,8.41-1.25,12.62-.44,3.2-.87,6.39-1.31,9.59-.41,3-.94,6.06-1.43,9.08-1,6.23-2.21,12.42-3.31,18.63-2.36,13.3-4.36,26.64-6.54,40-1.09,6.7-2.08,13.42-3.25,20.11s-2.25,13.15-3.3,19.75c-2.24,14-4.47,28-6.93,42-2.23,12.63-4.7,25.21-7,37.83-1.22,6.78-2.42,13.55-3.48,20.36s-2,13.38-3.11,20.06-2.23,13.29-3.26,19.94-2,13.22-3.13,19.81c-.56,3.32-1.08,6.66-1.7,10-.65,3.5-1.31,7-1.92,10.49q-1.82,10.47-3.61,21-1.66,9.57-3.51,19.1c-1.29,6.58-2.8,13.12-4.19,19.68-2.69,12.66-4.94,25.39-7,38.17-.69,4.28-1.37,8.55-2.07,12.83-.41,2.54-.8,5.08-1.09,7.64-.18,1.55-.35,3.1-.54,4.65-.44,2.93-1.1,5.83-1.51,8.76a6.29,6.29,0,0,0,.29,5.79,6.7,6.7,0,0,0,3.78,2.91l.23.08c2.17.8,4.61-.19,6.22-1.64,1.82-1.65,2.39-4.12,2.86-6.42.31-1.52.56-3,.82-4.56.56-3.25.9-6.54,1.29-9.82,1-6.08,2.15-12.13,3.28-18.19s2.34-12.32,3.64-18.46c1.43-6.67,2.84-13.34,4.35-20s3.06-13.13,4.42-19.74c2.7-13.12,4.86-26.35,7.16-39.55.59-3.34,1.24-6.67,1.86-10,.66-3.5,1.18-7,1.77-10.56,1.07-6.44,2-12.91,3-19.37.95-6.3,2-12.57,3-18.87,1-6.71,2-13.43,3-20.14.53-3.37,1-6.74,1.59-10.1l2-11.21c1.17-6.61,2.38-13.22,3.59-19.82q1.74-9.51,3.38-19c1.08-6.3,2.07-12.63,3.07-19q1.73-10.83,3.38-21.67.73-4.82,1.49-9.63c.5-3.25,1.12-6.48,1.61-9.73,2.11-13.8,4.28-27.6,6.3-41.41,1.93-13.18,4.38-26.26,6.45-39.41,1-6.56,1.84-13.15,2.7-19.73.39-3,.57-6,.85-9,.25-2.67.48-5.33.7-8,.55-6.73,1.19-13.46,1.84-20.18.54-5.62,1.21-11.22,1.84-16.82.44-3,.89-6.1,1.33-9.14.07-.45.13-.89.19-1.33s.15-.68.22-1a5.81,5.81,0,0,0,.49-1.2c.86-3.16,1.29-6.42,1.87-9.65l2-11c1.07-6,2.34-12,3.55-17.93.17-.86.34-1.72.52-2.58l8.16-38.61c2.29-10.87,4.71-21.72,7.11-32.57a4.6,4.6,0,0,0-3.11-5.55l0-1.45a5.82,5.82,0,0,0-4.22-5.53,5.63,5.63,0,0,0-1.52-.21,5.82,5.82,0,0,0-2.91.78Zm-32,189.12-.12.85.12-.85Z" transform="translate(-74.25 -164.61)"/><path d="M1565.78,939.41c-2.44,0-4.87.19-7.31.27-1.33.05-2.67,0-4,.08a14.26,14.26,0,0,0-2.85.37,4.54,4.54,0,0,0-1,.35l-2.52-.16a5,5,0,0,0-5,4.93,5.08,5.08,0,0,0,1.39,3.49,5.15,5.15,0,0,0,3.55,1.53l5.88.38c.94.17,1.89.29,2.75.44,2.47.43,4.93.88,7.4,1.3,4.59.76,9.18,1.55,13.77,2.33,5,.83,9.92,1.59,14.88,2.37,4.37.7,8.73,1.47,13.09,2.19,4.8.79,9.61,1.53,14.41,2.26,4.57.7,9.12,1.47,13.67,2.22,9.92,1.63,19.86,3.06,29.83,4.36,3.94.52,7.88,1.07,11.82,1.6,9.36,1.52,18.71,3.1,28.06,4.64,9.1,1.48,18.2,2.93,27.26,4.63q13.9,2.6,27.86,4.94c9.71,1.62,19.45,3,29.18,4.52,6.27,1,12.55,1.81,18.82,2.74s12.45,1.93,18.67,2.89,12.59,2.12,18.9,3c6.6,1,13.21,1.83,19.82,2.67q18,2.57,36.1,5c9.2,1.4,18.4,2.83,27.61,4.15,9.6,1.36,19.19,2.8,28.74,4.42,5,.84,10,1.72,14.94,2.6,4.63.81,9.28,1.52,13.94,2.2,5,.74,10,1.63,15,2.46,4.4.74,8.81,1.41,13.21,2.12,9.55,1.54,19.07,3.22,28.58,5,8.86,1.62,17.77,3,26.68,4.24,4.91.7,9.84,1.36,14.73,2.21s9.52,1.64,14.29,2.39c9.74,1.54,19.45,3.23,29.23,4.55l5.56.76c4.77.68,9.54,1.33,14.31,2,4.62.65,9.26,1.28,13.89,1.91,9.09,1.41,18.09,3.28,27.15,4.88s18,3.2,27,5c4.75,1,9.51,1.87,14.25,2.85s9.43,2.08,14.14,3.12,9.22,2.09,13.84,3.06c5,1,9.95,2.19,14.91,3.4,4.18,1,8.32,2.2,12.51,3.15q7.38,1.66,14.78,3.29c9,2,18,4,26.91,6.08s18.19,4.23,27.31,6.21c4.48,1,8.94,2,13.43,3s8.89,1.86,13.32,2.81c4.82,1,9.66,2,14.49,3,5.13,1,10.22,2.28,15.34,3.36,4.38.93,8.76,1.83,13.13,2.76,2.55.55,5.11,1,7.68,1.36,2.87.45,5.73.93,8.6,1.37l1.62.23a6.3,6.3,0,0,0,2.67-12,5.22,5.22,0,0,0,.32-3.46,5.48,5.48,0,0,0-2.37-3.19,12.28,12.28,0,0,0-4.42-1.55c-1-.23-2-.47-3.06-.67l-5.09-1-1-.24c-4.26-1.07-8.57-2-12.86-2.87s-8.47-1.81-12.68-2.84c-4.72-1.14-9.44-2.27-14.19-3.27-4.31-.91-8.64-1.71-13-2.54-4.58-.88-9.15-1.79-13.73-2.67-9.39-1.8-18.74-3.75-28.09-5.76s-18.57-3.64-27.84-5.56q-6.86-1.43-13.7-2.89c-4.87-1-9.72-2.23-14.57-3.36-4.54-1.07-9.12-2-13.66-3s-9.3-1.94-14-2.85c-9.46-1.86-19-3.57-28.43-5.37-9-1.71-18-2.85-27.06-4.31-9.77-1.59-19.55-3.13-29.3-4.78-10-1.69-20-3.21-30.08-4.81-8.95-1.44-17.92-2.75-26.86-4.26-9.66-1.63-19.36-3.09-29-4.65q-14-2.25-28-4.67c-4.67-.83-9.35-1.59-14-2.43s-9.55-1.71-14.34-2.51c-9.38-1.57-18.8-3-28.2-4.43-9.2-1.43-18.38-3-27.59-4.36q-3-.45-6.09-.95l-3.38-.67c-9.62-1.92-19.21-4-28.81-6-4.66-1-9.35-1.83-14-2.69-4.38-.8-8.75-1.67-13.14-2.43-9.49-1.65-19-3-28.54-4.67-3.9-.69-7.82-1.31-11.72-2s-7.82-1.19-11.72-1.85c-7.85-1.31-15.72-2.5-23.59-3.65-3.82-.57-7.65-1.09-11.47-1.6-6.22-1-12.44-2.13-18.66-3.2q-7.74-1.34-15.49-2.6c-4.54-.74-9.1-1.36-13.65-2.05-2.75-.41-5.51-.78-8.27-1.15-1.75,0-3.63-.07-5.88-.17-.87,0-1.73-.11-2.59-.18-1.41-.12-2.81-.35-4.21-.54-2.24-.3-4.47-.71-6.69-1.12-2.93-.54-5.85-1.11-8.76-1.69-11.63-1.44-23.28-2.76-34.92-4.05-13.18-1.47-26.4-2.59-39.62-3.77-4.36-.66-8.72-1.31-13.08-1.9l1.39.19c-5.6-.82-11.19-1.65-16.8-2.38q-4.95-.72-9.93-1.41-8.46-1.23-16.89-2.64c-2.93-.49-5.87-.93-8.81-1.39s-6.12-1-9.21-1.35a128.2,128.2,0,0,0-14.8-.86l-2,0Zm581.93,104.51.62.09-.62-.09Z" transform="translate(-74.25 -164.61)"/><path d="M1453.8,1566.77a6.57,6.57,0,0,0-4.31,1.71,6.19,6.19,0,0,0-1.88,4.38,5.39,5.39,0,0,0,.15,1.39,5,5,0,0,0-2.89,4.34,4.74,4.74,0,0,0,1.31,3.29,4.91,4.91,0,0,0,3.35,1.44l13.87,1.11c4,.32,7.93.79,11.89,1.25,16.56,2.5,33.09,5.22,49.63,7.88l14.29,2.29c5,.8,10,1.43,15,2.15q12.43,1.79,24.88,3.49h0l16.22,2.25h-.11q21.85,3.38,43.7,6.79l3.26.82c5,1.3,10,2.6,14.93,3.86l14.8,3.71c4.75,1.19,9.52,2.25,14.29,3.33s9.45,2,14.18,2.91,9.3,1.84,14,2.76c9.55,1.89,19.14,3.58,28.71,5.38q7.21,1.35,14.43,2.66c4.76.88,9.55,1.62,14.32,2.42,18.25,3,36.52,5.93,54.75,9.09l14.07,2.44c4.86.83,9.72,1.75,14.59,2.48q15.54,2.36,31.09,4.59c6.24.9,12.51,1.67,18.77,2.5l-.92-.13,14.88,2.09c4.92.69,9.81,1.54,14.7,2.31,9.3,1.46,18.59,3,27.89,4.57,9,1.46,18,2.7,26.92,4,4.75.69,9.51,1.34,14.25,2.09l15.51,2.48c18.93,3,37.86,6.07,56.84,8.79l31.37,4.47c10.36,1.47,20.69,3.15,31,4.81,17.87,2.88,35.62,6.54,53.49,9.42q15.48,2.49,31,5c4.13.66,8.29,1.27,12.41,2l18.42,3.19c7.07,1.23,14.12,2.55,21.17,3.83s14.08,2.51,21.13,3.75c2.79.49,5.6.92,8.4,1.37,3.35.55,6.71,1.14,10.08,1.61l11.51,1.61c4.5.63,9,1.23,13.55,1.51a6,6,0,0,0,5.81-4.39,5.88,5.88,0,0,0,0-3.06,6.22,6.22,0,0,0-2.73-3.66l-.61-.42a7,7,0,0,0-2.81-.9c-.46-.09-.92-.16-1.38-.23-1-.19-2.06-.36-3.1-.53-2.06-.32-4.12-.61-6.18-.91-4.53-.65-9.06-1.3-13.57-2.08-4.19-.73-8.35-1.65-12.54-2.43l-15-2.79c-4.8-.9-9.55-2-14.3-3.06-4.5-1-9-2-13.5-3s-8.78-1.91-13.19-2.76c-4.91-.93-9.82-2-14.75-2.83-4.77-.83-9.53-1.71-14.3-2.5s-9.74-1.54-14.58-2.42l-15.05-2.71c-5.15-.93-10.26-2-15.4-3-9.59-1.88-19.25-3.46-28.89-5.1-9.34-1.6-18.69-3.23-28-4.8-12.05-2-24.14-3.84-36.22-5.72-6.25-1-12.54-1.73-18.81-2.59-5.65-.77-11.31-1.49-17-2.22l-14.9-2.09c-4.75-.67-9.49-1.5-14.23-2.25-8.55-1.35-17-3-25.58-4.48q-15.94-2.68-31.93-5.19c-9.36-1.47-18.7-3-28-4.59-19.15-3.19-38.33-6.14-57.5-9.18-19.48-3.09-38.95-6.29-58.42-9.47q-14.78-2.41-29.56-4.7c-9.14-1.66-18.22-3.63-27.31-5.53-18.36-3.84-36.79-7.27-55.22-10.77q-15.27-2.88-30.5-5.94c-9.39-1.89-18.81-3.58-28.22-5.32-19.27-3.56-38.54-7-57.81-10.6-4.77-.88-9.52-1.82-14.27-2.73-4.21-.8-8.41-1.53-12.64-2.23-4.42-.75-8.85-1.53-13.29-2.19l-16.18-2.37c-12.48-1.83-25-3.4-37.51-5-5-.62-10-1.1-15-1.5-2.92-.24-5.84-.53-8.77-.7l-5.82-.35c-1.52-.09-3-.25-4.58-.25q-.75,0-1.47.06Zm141.94,37,.72.1-.72-.1Zm447.52,60.38.36,0-.36,0Z" transform="translate(-74.25 -164.61)"/><path d="M2456.41,1078a5.61,5.61,0,0,0-1.91,2.22,9.57,9.57,0,0,0-.52,1.67c-.18.68-.25,1.4-.36,2.09-.22,1.41-.53,2.81-.83,4.21-.61,2.86-1.3,5.71-1.84,8.58-.61,3.15-1.18,6.31-1.91,9.44-.79,3.43-1.59,6.84-2.37,10.27-1.54,6.73-3.17,13.44-4.72,20.17q-2.49,10.82-4.81,21.68c-1.45,6.84-2.89,13.67-4.23,20.54-1.3,6.64-2.44,13.32-3.55,20-1.16,6.93-2.43,13.83-3.73,20.74s-2.69,13.57-4,20.38c-.24,1.34-.49,2.67-.73,4-.18.73-.35,1.46-.53,2.18-.87,3.61-1.68,7.24-2.63,10.83q-1.62,6.2-3.26,12.4c-.93,3.55-2,7.07-3,10.6s-1.81,6.81-2.69,10.22q-2.4,9.27-4.5,18.61c-1.68,7.46-3.34,14.91-4.88,22.4s-3.07,14.87-4.6,22.31q-2.24,10.88-4.52,21.74c-1.24,6-2.34,12-3.48,18-2.76,14.44-5.54,28.87-7.84,43.39s-4.75,28.94-7.27,43.4c-2.45,14.11-5.09,28.19-7.61,42.28-2.56,14.24-5.21,28.46-8.11,42.64s-5.88,28.62-8.63,43-5.56,28.55-8.36,42.82c-.61,3.11-1.32,6.22-1.83,9.36l-1.95,12c-.48,2.91-1,5.81-1.41,8.73q-.88,6.69-1.76,13.39c-.86,6.49-1.57,13-2.31,19.5-.3,2.64-.56,5.29-.84,7.94a146.55,146.55,0,0,0-1.21,16.73,6.76,6.76,0,0,0,10.48,5.11l1.36-1.21a6.64,6.64,0,0,0,1.52-3.18,33.41,33.41,0,0,0,.87-5.49l.66-5.09c.44-3.32.91-6.64,1.47-10,1.12-6.61,2.53-13.16,3.95-19.72,3.12-14.38,6.07-28.8,8.94-43.23,1.36-6.81,2.55-13.67,3.82-20.5s2.55-13.4,3.77-20.11c2.66-14.7,5.26-29.41,8-44.09,1.21-6.48,2.31-13,3.56-19.46.66-3.4,1.28-6.8,2-10.19.77-3.63,1.6-7.24,2.29-10.88q4.07-21.66,8.6-43.22c1.55-7.31,3-14.63,4.5-22,1.23-6.11,2.2-12.28,3.33-18.41q2.11-11.64,4.38-23.25c1.23-6.3,2.65-12.59,4-18.87q2.61-11.82,5.12-23.67c1.41-6.59,2.62-13.22,3.9-19.83,2.61-13.48,5.26-27,7.81-40.45q4.32-23,8.44-46c2.4-13.52,5.09-27,7.39-40.52q1.56-9.26,3.18-18.5,1.56-6.94,3.1-13.9,1.21-5.48,2.39-11c.74-3.48,1.29-7,1.93-10.49s1.25-7.11,1.88-10.67c.58-3.25,1.26-6.49,1.89-9.74,1.34-6.88,3-13.7,4.49-20.56,1.17-5.54,2.33-11.1,3.3-16.69.5-2.86,1-5.72,1.56-8.58.57-3.06,1.25-6.09,1.66-9.17a6.69,6.69,0,0,0-1.34-5.13c.37-2.16.74-4.31,1.17-6.45.39-1.9.77-3.79,1.12-5.7.17-1,.29-1.92.39-2.89q.06-.55.09-1.11c0-.14,0-.27,0-.41a4.41,4.41,0,0,0,.06-1.26,3.59,3.59,0,0,0-.3-1.31,6.1,6.1,0,0,0-.53-1.09l-.09-.16h0a5.6,5.6,0,0,0-1-1.09,5.44,5.44,0,0,0-2.54-1.23,6.49,6.49,0,0,0-1-.08,4.66,4.66,0,0,0-3,.91Z" transform="translate(-74.25 -164.61)"/><path d="M1523.54,1153.44a6.12,6.12,0,0,0-2.91,5.49,5,5,0,0,0-1.36,6.73,5.16,5.16,0,0,0,5.55,2.2,6,6,0,0,0,4.52,4c3,.5,6,.94,9.05,1.36l4.86.9c5.21,1,10.44,1.89,15.67,2.8q16.44,2.88,32.92,5.35c10.91,1.65,21.85,3.11,32.77,4.67,10.21,1.46,20.41,3,30.61,4.56q8.68,1.32,17.35,2.67l13.81,2.36q11.1,1.89,22.2,3.8,7.73,1.39,15.48,2.69,6.11,1.08,12.2,2.2c2.71.48,5.43,1,8.14,1.46l4.68.87a21.25,21.25,0,0,1,2.23.53,8.83,8.83,0,0,0,6.14-.25c5.32.78,10.66,1.55,16,2.47,2.58.45,5.18.85,7.77,1.28,3.38.55,6.77,1.41,10.18,1.65.43,0,.87.06,1.3.06a6.8,6.8,0,0,0,2.06-.41,10,10,0,0,0,2.73.09,6.52,6.52,0,0,0,1.83-.35l8.47,1.62a6.64,6.64,0,0,0,3-.11,6.2,6.2,0,0,0,2.5-.91,6,6,0,0,0,1.34-1.15c6.18,1,12.34,2.12,18.59,2.63l-1.45-.12.43,0,2.08.17a8,8,0,0,0,7.47-6.32,8.17,8.17,0,0,0-1-6,8.34,8.34,0,0,0-5.11-3.58,71.06,71.06,0,0,0-7.54-1.28c-2.59-.38-5.17-.76-7.77-1.08-5.36-.66-10.72-1.19-16.09-1.76s-10.47-1.36-15.7-2.21q-8.09-1.3-16.18-2.52c-11-1.67-21.9-3.43-32.84-5.16-10.72-1.69-21.4-3.55-32.12-5.19-5.76-.88-11.53-1.64-17.31-2.42-5.39-.72-10.77-1.52-16.16-2.29-4.93-.7-9.86-1.58-14.77-2.4l-15.44-2.54c-10.73-1.78-21.47-3.51-32.18-5.36-11.19-1.93-22.37-3.88-33.6-5.51-6.42-.93-12.84-2-19.28-2.76l-13.74-1.69-3.85-.46c-1.76-.22-3.53-.41-5.3-.6-2.48-.45-5-.87-7.48-1.08l-1.61-.14a6.39,6.39,0,0,0-3,1Zm308.17,61.16-.66,0,.66,0Z" transform="translate(-74.25 -164.61)"/><path d="M770.2,881.19a7.32,7.32,0,0,0-4.2,3.52c-.22.61-.45,1.22-.67,1.84a7.22,7.22,0,0,0,.18,3.8q9.3,47,18.18,94.15c4.92,26.23,9.85,52.46,15.12,78.63,2.49,12.37,5,24.74,7.41,37.12,2.77,14.17,5.46,28.35,8.23,42.53,4,20.52,8.52,41,13.15,61.34q1.32,7.7,2.66,15.38c1,5.9,1.89,11.83,2.92,17.73q.95,5.41,1.88,10.82c.57,3.27,1.08,6.55,1.73,9.8q2.57,12.9,5.14,25.79c1.68,8.43,3.28,16.88,4.86,25.33q3.44,19.79,6.67,39.6c1.12,6.88,2.14,13.76,3.15,20.66.9,6.15,1.67,12.32,2.64,18.47.54,3.42,1.06,6.83,1.69,10.23.55,3,1.09,6,1.64,8.94,1.14,6.51,2.32,13,3.37,19.53,1,6.11,1.9,12.22,2.89,18.33,2.1,12.89,4.09,25.79,6.28,38.67q.72,4.24,1.43,8.49c.22,1.25.39,2.5.61,3.75a21.65,21.65,0,0,0,.56,3.09,18.47,18.47,0,0,0,1.46,3.24,5.89,5.89,0,0,0,6.75,2.44,6.06,6.06,0,0,0,4.09-6.14c0-.6,0-1.19,0-1.8s-.09-1.28-.15-1.91c-.16-1.7-.34-3.39-.52-5.08-.35-3.3-.75-6.59-1.18-9.87l-.48-3.67c.44,1.56.89,3.11,1.33,4.66,1.24,4.35,2.49,8.71,4,13a5.12,5.12,0,0,0,3.7,3.37,5,5,0,0,0,4.77-1.5,5.77,5.77,0,0,0,1.41-2.56,6.36,6.36,0,0,0,0-2.46c-1.65-13.51-4.2-26.85-7.12-40.12q-2.09-9.48-4.18-19c-1.42-6.45-3-12.86-4.47-19.28s-3.2-13-4.79-19.53c-1.65-6.77-3.24-13.55-4.83-20.34-1-4.07-1.82-8.17-2.7-12.26-1.88-10.87-3.89-21.71-5.9-32.56-.31-1.66-.61-3.33-.92-5l-3.39-19.22c-1-5.69-1.8-11.42-2.7-17.13-.94-6-1.8-11.94-2.76-17.89-1-6.41-2-12.85-3.16-19.23l.12.62q-1.92-10.52-3.85-21c0,.09,0,.18,0,.27-1.33-7.21-2.8-14.39-4.2-21.59-1.25-6.39-2.53-12.79-3.8-19.18-2.51-12.69-5.31-25.33-8.27-37.92s-5.65-25.21-8.55-37.8c-1.64-7.13-3.3-14.25-5-21.36-1.59-6.45-3.25-12.88-4.91-19.31q-1.8-6.93-3.61-13.86c-.47-1.82-.87-3.67-1.3-5.51-.54-2.34-1.17-4.68-1.64-7q-2.81-13.87-5.44-27.77l.06.37c-2.36-13-4.86-25.93-7.42-38.88s-4.73-26.1-7.51-39.06q-1.73-8-3.82-15.89-3.71-19.07-7.5-38.1a7,7,0,0,0-3.52-4.2,7.26,7.26,0,0,0-3.41-.84,7.07,7.07,0,0,0-2.23.35Zm35.43,136.71.21,1.17-.21-1.17ZM847,1310.16l.1.53c0-.17-.07-.35-.1-.53Zm9.26-59.75c0-.29-.11-.57-.16-.86,0,.29.11.57.16.86Z" transform="translate(-74.25 -164.61)"/><path d="M1117.89,788.8c-18.86,4.4-37.71,8.83-56.66,12.82-9.81,2.06-19.64,4.09-29.43,6.27s-19.55,4.39-29.36,6.42q-29.36,6-58.62,12.59c-9.54,2.12-19.09,4.2-28.63,6.3-9,2-18,3.84-26.92,5.88-9.94,2.26-19.87,4.55-29.83,6.75-9.22,2-18.46,4-27.63,6.3s-18.61,4.54-27.85,7c-4.05,1.1-8.1,2.17-12.11,3.37-4.44,1.34-8.77,3-13.12,4.57-4.77,1.75-9.52,3.56-14.29,5.33-4.41,1.64-8.88,3-13.4,4.32-3.27.84-5.43,4.39-5.26,7.64a7.62,7.62,0,0,0,6,7,8.37,8.37,0,0,0,3,.1c1-.17,1.91-.35,2.86-.57s2.1-.53,3.15-.8c2.09-.55,4.16-1.16,6.23-1.8l3.12-1,7-1.65c8-1.87,16-3.75,24.05-5.69a5.43,5.43,0,0,0,2.18-1.16l.26-.05c10.08-1.84,20.1-4,30.14-6,18.71-3.78,37.37-7.8,56.09-11.51q16-3.18,31.92-6.29c9.48-1.86,18.91-3.92,28.36-5.92,8.59-1.81,17.13-3.86,25.69-5.8l29.77-6.76q30.71-7,61.43-14c18.09-4.12,36.13-8.45,54.3-12.19,20.58-4.24,41.18-8.36,61.78-12.49q5.82-1.17,11.64-2.39l-7.72-4.59c-6.84-4.06-13.5-8.41-20.15-12.77l-.72-.48c-15.7,3.82-31.44,7.49-47.18,11.17Z" transform="translate(-74.25 -164.61)"/><path d="M1474.61,1381.9c-4.5.22-9,1.27-13.4,2.07l-1.52.28-2.64.39c-4.86.77-9.72,1.63-14.56,2.52h0l-1.17.21,1.17-.21a5.49,5.49,0,0,0-2-.19c-3.26.33-6.5.9-9.74,1.44-3,.5-6,1-9,1.56-7,1.25-14.07,2.61-21.1,4-12.81,2.48-25.57,5.21-38.35,7.85l-3.46.71-10.18,1.94c-11.07,1.94-22.18,3.65-33.26,5.58-15.7,2.74-31.34,5.71-47,8.75q-16.15,2.65-32.32,5.26c-6.31,1-12.64,2-18.94,3.06-6.58,1.16-13.16,2.35-19.75,3.45q-18.84,3.15-37.62,6.58c-6.95,1.27-13.94,2.43-20.87,3.83l-21.12,4.27c-6.77,1.37-13.51,2.91-20.27,4.36q-8.55,1.85-17.08,3.72-18,3.92-35.94,7.85c-12.91,2.83-25.82,5.64-38.67,8.69-5.83,1.38-11.7,2.64-17.49,4.18l-23,6.14c-11.68,3.11-23.32,6.33-35,9.57q-22.59,6.3-45.16,12.67a5.78,5.78,0,0,0,3.54,11q7.56-2.14,15.13-4.27a7.29,7.29,0,0,0,3.7,2.13c2.47.57,5.14-.09,7.54-.64,1.57-.36,3.14-.75,4.7-1.13,2.85-.71,5.73-1.31,8.6-1.9l-1.93.35c6.51-1.19,13-2.34,19.5-3.71,6.06-1.27,12.09-2.63,18.12-4,12.64-2.87,25.29-5.69,37.88-8.71,25.89-6.2,51.7-12.7,77.68-18.49,5.45-1.22,10.93-2.29,16.36-3.55,6.61-1.52,13.21-3,19.79-4.68,12.31-3,24.55-6.42,37-8.93,12-2.42,24.07-4.89,36.07-7.52l1.53-.25,18.59-3.07c6.79-1.12,13.54-2.36,20.3-3.61,12.88-2.38,25.67-5.14,38.46-7.9,6-1.28,11.89-2.61,17.84-3.92,1.39-.3,2.78-.6,4.17-.88l4.46-.71,17.58-2.79c5.66-.89,11.28-2,16.91-3.07s11.36-2.26,17-3.41c5.4-1.1,10.81-2.11,16.23-3.15,10.51-1.91,21-3.79,31.54-5.72l-1.73.31,12.74-2.34-.54.1c9.72-1.73,19.44-3.49,29.11-5.46l5.36-1.08,4.2-.75c6.71-1.2,13.4-2.5,20.09-3.79,1.21-.19,2.43-.37,3.64-.53,1.5-.21,3-.44,4.49-.63.83-.1,1.65-.25,2.47-.4s1.56-.28,2.34-.45a8.88,8.88,0,0,0,2.68-1,6.47,6.47,0,0,0-3.49-11.92Zm-80.83,27.81-.51.1-.38.07.11,0h0l.16,0h0l.32-.06.1,0h0l.21,0Zm-.15,0h0Zm-.17,0-.33.06-.13,0,.27,0,.27,0Zm49-22.61h0l.11,0-.11,0Z" transform="translate(-74.25 -164.61)"/><path d="M1710.36,957.1c.48,2.2,1,4.39,1.4,6.59s.87,4.42,1.5,6.59a6.12,6.12,0,0,0,11.8-.61,15.27,15.27,0,0,0,.22-2.94c0-.14,0-.29,0-.44h0a6.54,6.54,0,0,0,4-3.39,7.6,7.6,0,0,0,.81-3.6c0-.15,0-.3,0-.44-2.34-.46-4.67-.94-7-1.42-3.06-.36-6.11-.75-9.14-1.3-1.29-.24-2.58-.48-3.86-.75l.36,1.72Z" transform="translate(-74.25 -164.61)"/><path d="M1125.8,1020.21a8.1,8.1,0,0,0-1.65.74c-1.13.51-2.29.91-3.46,1.32-1,.35-2,.63-3,.88a13.87,13.87,0,0,0-2-.07,21.82,21.82,0,0,0-3.2.54c-1,.19-1.91.45-2.88.64l-3.47.68-11.44,2.24q-6.75,1.32-13.48,2.6l-17.52,3.38c-5.59,1.07-11.14,2.32-16.71,3.47-22.17,4.61-44.31,9.36-66.47,14-9.37,2-18.71,4.09-28,6.25q-17.5,4.07-35,8.16c-10.62,2.5-21.24,5.05-31.86,7.55q-7.45,1.77-14.95,3.34c-2.52.52-5,1-7.56,1.56-2.69.58-5.35,1.28-8,1.91-3.5.83-7,1.71-10.49,2.58-1.63.41-3.27.79-4.91,1.16-.93.21-1.86.42-2.77.71a10.11,10.11,0,0,0-1.89.8,5.13,5.13,0,0,0-2.38,4.6v.22a4.44,4.44,0,0,0-3.14,6.64l-7.35,1.86a4.66,4.66,0,0,0-3.06,5.8,4.71,4.71,0,0,0,5.8,3.06c14.76-3.74,29.55-7.37,44.34-11q13.46-3.3,26.93-6.46c11-2.56,22.09-5.15,33.15-7.69l20.29-4.66c3.94-.9,7.91-1.72,11.82-2.76,10.61-2.8,21.25-5.52,31.82-8.44,11.11-3.07,22.2-6.18,33.35-9.09l14.75-3.84c3.81-1,7.67-1.8,11.49-2.69,3.54-.83,7.07-1.71,10.64-2.41l13.94-2.71c5-.82,9.9-1.65,14.86-2.44,2.87-.47,5.74-.92,8.61-1.37l3.33-.52a34.87,34.87,0,0,0,7.38-1.56,4.36,4.36,0,0,0,2.82-3.09l1.31-.29c2.58-.56,5.18-1,7.77-1.55,1.17-.24,2.34-.49,3.5-.78l1.71-.44a13.14,13.14,0,0,0,3-1.32,6,6,0,0,0,3.94-7.47,5.77,5.77,0,0,0-2.86-3.48l-.53-.22a6.26,6.26,0,0,0-3.2-.74l-.74-.07-2.47.43Z" transform="translate(-74.25 -164.61)"/><path d="M902.86,1075.35c-11.28,1.65-22.52,3.69-33.77,5.63l.36-.06c-4,.69-8.06,1.52-12.08,2.29-2.59.5-5.18,1-7.75,1.58q-16,3.56-32,7.18a3.82,3.82,0,0,0-2.31,1.89,4,4,0,0,0,1.59,5.36,4.14,4.14,0,0,0,3,.31q17.21-3.94,34.43-7.82c4-.91,8.08-1.63,12.12-2.43,3.73-.75,7.47-1.44,11.22-2.12,8-1.46,16-2.93,24.07-4.33l1.39-.23.93-.16a3.78,3.78,0,0,0,1.56-1,3.66,3.66,0,0,0-2.48-6.15l-.3,0Zm-1.12,7.48-.7.12.7-.12Zm-33.27-1.75.62-.1-.62.1Z" transform="translate(-74.25 -164.61)"/><path d="M487.45,796.84c-.53.64-1.06,1.29-1.57,1.95a6.39,6.39,0,0,0-7-1.63,19.36,19.36,0,0,0-5.86,4c-1,.93-1.92,1.89-2.83,2.9-1.78,2-3.44,4-5.13,6-3.29,3.94-6.55,7.89-9.67,12s-6,8.14-8.91,12.26c-3.39,4.79-6.89,9.49-10.46,14.16-2.92,3.83-5.92,7.59-8.92,11.36-3.59,4.52-7.17,9-10.87,13.49q-11.2,13.49-22.23,27.13c-5.42,6.7-10.89,13.35-16.34,20-2.71,3-5.39,6-8.08,8.94-3.51,3.89-6.88,7.92-10.31,11.89-14,16.25-28.21,32.38-41.77,49q-4.56,5.6-9.1,11.2l-10.22,11.52c-4,4.56-8,9.22-11.94,13.83-6.43,7.44-12.61,15.1-18.92,22.64-6.94,8.29-13.82,16.62-20.84,24.83q-11.67,13.66-23.27,27.37c-3,3.54-6,7-8.93,10.65L201,1128.94c-2.86,3.55-5.6,7.21-8.37,10.83-3.28,4.25-6.58,8.49-9.83,12.77-6.41,8.45-12.92,16.82-19.21,25.35-6.79,9.19-13.64,18.33-20.4,27.54-6.37,8.67-12.86,17.25-19.09,26L111.68,1249c-2.25,3.17-4.36,6.42-6.48,9.67q-3.54,4.66-7.13,9.29-11.07,14.25-22.2,28.46a7,7,0,0,0-1.59,5,6.8,6.8,0,0,0,12,3.77l4.17-5.31a6.07,6.07,0,0,0,2.48.29l1.54-.35a6.13,6.13,0,0,0,2.53-1.77,49.68,49.68,0,0,0,3.44-3.81c.88-1,1.75-2,2.63-3,1.71-1.92,3.42-3.84,5.09-5.78,3.67-4.25,7.29-8.54,10.92-12.83,6.88-8.11,13.7-16.26,20.25-24.63,7.18-9.16,14.27-18.38,21.45-27.54,6.44-8.24,13-16.39,19.45-24.62,13.91-17.71,27.69-35.51,41.57-53.24,13.12-16.74,27.25-32.65,40.75-49.08q21.08-25.63,42.61-50.87,12-14.1,24.08-28.06l19.24-22.17c3.6-4.17,7.32-8.26,10.81-12.52l11.49-14c3.81-4.65,7.51-9.4,11.27-14.1q5.21-6.52,10.44-13.05c13.27-16.59,25.92-33.67,39-50.44q10.79-13.89,21.61-27.75c6.51-8.36,13.14-16.63,19.6-25l5.54-7.19c.38-.5.76-1,1.13-1.51.95-1.14,1.92-2.28,2.89-3.41s2.05-2.41,3-3.65a45.83,45.83,0,0,0,3.36-5.14c.95-1.62,1.94-3.21,2.94-4.8l.23-.31a71.89,71.89,0,0,0,4.65-7,5.38,5.38,0,0,0-8.95-5.79Z" transform="translate(-74.25 -164.61)"/><path d="M494,784.24a6.72,6.72,0,0,0-4.38,2.08,5,5,0,0,0-4.53,1.71,5.12,5.12,0,0,0,.59,7.18q28.88,22.38,57.68,44.86,13.5,10.53,27,21.07c8.68,6.82,17.41,13.57,26,20.49q14.27,11.46,28.56,22.9c8,6.44,16.28,12.64,24.38,19,17.47,13.79,35,27.61,52.07,41.84,8.3,6.9,16.44,14,24.83,20.77q13.46,10.88,27,21.66c3.82,3.07,7.7,6,11.51,9.13,4.48,3.62,9,7.24,13.4,10.93,4,3.34,7.92,6.78,11.85,10.21,4.21,3.69,8.47,7.34,12.49,11.23a5.36,5.36,0,0,0,5.24,1,5.42,5.42,0,0,0,2.37-1.62,5.72,5.72,0,0,0,1.27-3.87,7.52,7.52,0,0,0-2.1-4.77,45.16,45.16,0,0,0-3.61-3.58c-.8-.74-1.56-1.54-2.33-2.32l-.2-.19a5.2,5.2,0,0,0,.33-1.23,15,15,0,0,0,.15-2.51,8.68,8.68,0,0,0-1.41-3.86,25.43,25.43,0,0,0-3.49-3.92c-2.54-2.5-5-5.05-7.73-7.38l-7-6c-4.11-3.54-8.26-7-12.41-10.53q-11.82-9.94-23.8-19.68-19.2-15.63-38.43-31.21c-8-7.11-16-14.34-23.93-21.54-4.13-3.75-8.29-7.45-12.44-11.17-3.91-3.51-7.93-6.89-11.91-10.32-7.81-6.72-15.59-13.5-23.59-20-4.15-3.38-8.28-6.79-12.52-10.06s-8.75-6.76-13.16-10.08c-8.95-6.75-17.91-13.48-27-20-8.93-6.43-17.78-13-26.77-19.33-7.42-5.24-14.81-10.52-22.22-15.77q-5.36-3.79-10.68-7.62c-1.6-1.15-3.21-2.29-4.84-3.4l-2.46-1.69-1.13-.76c-.81-.53-1.61-1.06-2.44-1.55a10.76,10.76,0,0,0-2.31-.75,5.89,5.89,0,0,0-1.67-.08l-3.76-2.42-1.16-.75c-2.19-1.49-4.35-3-6.53-4.54l-1.44-.93a6.59,6.59,0,0,0-2.85-.64Z" transform="translate(-74.25 -164.61)"/><path d="M89.06,1290.31a7.41,7.41,0,0,0-2.38,2.66,5.38,5.38,0,0,0-3.1,1.83,5.59,5.59,0,0,0,.64,7.83q13.56,10.61,27.21,21.07c5.48,4.23,11,8.33,16.6,12.46q20.28,15.06,40.58,30.12c5.8,4.3,11.51,8.71,17.3,13l8.34,6.21.44.35c3,2.44,6,4.93,9.1,7.31l11,8.53c13,10.06,25.72,20.51,38.5,30.86,11.55,9.36,23.34,18.42,35.21,27.35,6.55,4.93,13.08,9.88,19.74,14.66q6,4.26,11.93,8.46,18.72,15,37.25,30.26c12,9.8,24,19.53,36,29.3,5.75,4.69,11.54,9.32,17.27,14,6.32,5.17,12.6,10.38,19,15.41l11.8,9.22c2.75,2.15,5.62,4.14,8.43,6.2q10.18,7.47,20.32,15c12.9,9.56,25.61,19.39,38.38,29.12,11.84,9,24,17.72,35.94,26.55q10.17,7.49,20.27,15c3.08,2.31,6.12,4.67,9.23,6.92l11.29,8.15c6.66,4.81,13.27,9.68,19.89,14.54,6.13,4.51,12.1,9.25,18.13,13.89q18.81,14.51,37.5,29.17c12.28,9.69,24.48,19.47,36.91,29q10.36,7.92,20.81,15.69c5.83,4.36,11.57,8.84,17.35,13.26,13.12,10.06,26,20.4,38.91,30.74q9.23,7.39,18.36,14.9c3,2.44,5.9,4.91,8.88,7.32l4.64,3.75c.64.52,1.26,1.06,1.89,1.6l1.11,1a13.85,13.85,0,0,0,2.49,1.76,2.23,2.23,0,0,0,.75.42,7.11,7.11,0,0,0,10.16-6.93,7.56,7.56,0,0,0-2.5-4.93q-2.07-2.12-4.28-4.09a7.44,7.44,0,0,0-2.5-4.79c-1.41-1.3-2.74-2.69-4.15-4s-2.92-2.68-4.37-4q-4.33-4-8.72-8c-5.45-4.93-10.92-9.85-16.49-14.66-6.25-5.38-12.53-10.71-19-15.89s-12.68-9.94-19.06-14.86c-5.85-4.51-11.59-9.17-17.39-13.75q-10-7.9-20.07-15.75c-3.32-2.59-6.7-5.11-10.05-7.67-2.88-2.19-5.68-4.46-8.51-6.7-6-4.81-12-9.78-17.9-14.74-12.78-10.67-25.47-21.44-38.29-32.06-6-4.94-12-9.82-17.94-14.72q-8.38-6.87-16.94-13.54-10.29-8-20.67-15.82-9.95-7.48-19.84-15c-5.53-4.21-11.08-8.41-16.68-12.54l-12-8.86c-3.06-2.25-6-4.63-9-7-6.43-5-12.78-10-19.15-15-2.88-2.28-5.79-4.54-8.69-6.8-2.65-2.08-5.26-4.19-7.95-6.21-6.49-4.86-12.93-9.78-19.55-14.46q-10.68-7.54-21.25-15.23c-12.92-9.39-25.59-19.14-38.27-28.86L383.43,1504c-6.28-4.81-12.46-9.74-18.7-14.6-13.3-10.37-26.49-20.89-39.75-31.32-11.69-9.2-23.51-18.24-35.29-27.33q-20.74-16-41.63-31.78-9-6.82-18-13.7-8.13-6.18-16.38-12.21c-6.36-4.64-12.69-9.35-19.09-13.94q-12-8.6-24-17.18c-6.28-4.48-12.66-8.84-19-13.25-6.1-4.25-12.24-8.43-18.38-12.6-4.34-2.94-8.67-5.87-13-8.83l-10.35-7.09c-2.35-1.6-4.73-3.19-7-4.91a30.21,30.21,0,0,0-4.75-4.45,7.54,7.54,0,0,0-3.44-1.64,8,8,0,0,0-1.38-.13,7.44,7.44,0,0,0-4.2,1.3Z" transform="translate(-74.25 -164.61)"/><path d="M1133.74,1454.7a10.22,10.22,0,0,0-6.45,3.5c-1.73,1.83-2.94,4.11-4.46,6.11s-3.21,4.06-4.86,6.07c-3.46,4.22-6.78,8.56-10.19,12.82q-10,12.55-20.24,25c-7.18,8.77-14.26,17.62-21.37,26.45-6.59,8.17-13.23,16.3-19.7,24.56q-3,3.88-6.07,7.78-2.14,2.52-4.26,5.06c-3.69,4.42-7.47,8.78-11.06,13.27q-6.09,7.62-12.16,15.25c-3.31,4.14-6.35,8.5-9.5,12.77q-4.32,5.87-8.58,11.79c-3.21,3.72-6.48,7.4-9.6,11.2-3.41,4.16-6.89,8.28-10.23,12.51s-6.87,8.68-10.29,13c-13.87,17.64-27.81,35.23-41.44,53.06q-3.25,4.26-6.54,8.5l-15.6,19.45c-6.24,7.53-12.54,15-18.84,22.49l-12,14.31c-3.66,4.35-7.13,8.86-10.69,13.29-3.43,4.27-6.65,8.72-10,13.1-2.93,3.88-5.72,7.85-8.52,11.82-1.86,2.63-3.74,5.25-5.58,7.89-.28.37-.55.75-.82,1.13l-4.78,6.72c-.27.38-.54.76-.8,1.15l-.82,1a39.7,39.7,0,0,0-5.42,7.54,6.73,6.73,0,0,0-.68,2.22q-1.53,2.3-3.05,4.59l-.93,1.51a6.81,6.81,0,0,0-.58,3.59,6.84,6.84,0,0,0,7.56,6,6.57,6.57,0,0,0,4.54-2.46q1.49-2.25,3-4.48a8.83,8.83,0,0,0,3.75-2.55,41.29,41.29,0,0,0,3-3.93c2.28-2.72,4.66-5.36,7-8,3.56-4.07,7-8.23,10.44-12.41s7-8.66,10.5-13,6.57-8.66,9.79-13c2.9-3.93,5.51-8.1,8.51-11.95q4.15-5.34,8.32-10.66,2.73-3.2,5.48-6.38,11.81-13.69,23.6-27.38,10.53-12.24,21.09-24.42c7.56-8.77,14.82-17.81,22.11-26.8,6.76-8.35,13.08-17.08,19.52-25.69q10.07-13.43,20-27c6.16-8.43,12.37-16.82,18.55-25.24l3.35-4.54.27-.32c3.33-3.84,6.71-7.64,10-11.56q11.28-13.67,22.35-27.5c6.5-8.15,13-16.3,19.44-24.53q10.47-13.44,20.87-26.94c4.12-5.33,8.34-10.61,12.58-15.85,1.12-1.34,2.23-2.68,3.36-4,3.47-4.06,7-8.11,10.35-12.23,2.62-3.19,5.3-6.31,8-9.39,2.49-2.79,5-5.56,7.37-8.46a9.73,9.73,0,0,0-7.55-15.9,9.24,9.24,0,0,0-1,.06Z" transform="translate(-74.25 -164.61)"/><path d="M277.52,428a8,8,0,0,0-6.94,6.62,22.36,22.36,0,0,0,.13,6.88c.17,1.34.33,2.68.52,4,.42,2.75.86,5.5,1.29,8.24.85,5.31,1.59,10.64,2.33,16,.81,5.81,1.48,11.65,2.33,17.45q1.36,9.41,2.84,18.79,1.05,6.56,2.09,13.11c1.12,10.74,2.21,21.48,3.34,32.22.59,5.66,1.39,11.3,2.08,16.94.64,5.21,1.26,10.41,1.92,15.61,1.44,11.26,3,22.5,4.31,33.77,1.48,12.41,3,24.81,4.62,37.2s3.44,24.78,5.25,37.17c1.57,10.71,3.4,21.39,5.14,32.08,1.79,11,3.48,22.07,5.42,33.06q3,17.08,6.12,34.15c1.07,5.86,2.17,11.72,3.09,17.61q1.44,9.12,2.89,18.23c.17,1.11.35,2.22.53,3.33q.56,8.06,1.09,16.12.7,10.73,1.42,21.44c.38,5.8,1,11.59,1.48,17.38.41,4.73.89,9.43,1.41,14.15.65,5.91,1.21,11.83,2,17.72.87,6.87,1.68,13.75,2.63,20.61l1.56,11.2c.22,1.63.45,3.25.67,4.88s.48,3,.73,4.58a42.7,42.7,0,0,0,.77,6.4c.14.58.29,1.17.43,1.75a7,7,0,0,0,11.84,1.89,7.2,7.2,0,0,0,1.53-5.18,50.16,50.16,0,0,0-.58-5.17c-.08-1.49-.11-3-.21-4.43-.16-2.59-.37-5.17-.56-7.75,0-.36-.05-.72-.07-1.08a7.23,7.23,0,0,0,2.2-1.81,7.46,7.46,0,0,0,1.62-5.43c-.41-5.77-1.23-11.49-2-17.23-.66-5.2-1.31-10.41-1.92-15.62-1.35-11.44-2.52-22.9-4.08-34.32-1.67-12.25-3.42-24.48-5.34-36.7-.18-1.11-.35-2.23-.52-3.34q-.24-2.88-.5-5.74c-1-11.33-2.08-22.66-3.25-34s-2.62-22.35-4.13-33.5L333.86,747c-1.23-10.69-2.31-21.4-3.48-32.09q-1-9-2-18c-.29-2.63-.51-5.27-.9-7.89q-.75-5.16-1.51-10.32c-.74-5.07-1.74-10.11-2.56-15.17-1-5.88-1.91-11.76-2.91-17.64-2-11.53-3.86-23.08-5.63-34.64q-.84-5.49-1.73-11-3.35-24.31-6.89-48.6-5.39-37-10.68-74.07c-.68-4.79-1.08-9.64-1.61-14.45q-1.31-11.67-2.5-23.37a8.31,8.31,0,0,0-5.8-7c-.3-.53-.61-1.05-.9-1.58a7.89,7.89,0,0,0-3.13-2.56,8,8,0,0,0-3.28-.71,8.46,8.46,0,0,0-.87,0Z" transform="translate(-74.25 -164.61)"/><path d="M1204.93,280.69c-18.49,3.32-37.16,5.42-55.76,8l-.4.05c-4.34.35-8.67.83-13,1.35-5,.6-10,1.26-15,2-4.67.71-9.32,1.53-14,2.26-9.8,1.53-19.58,3.13-29.38,4.65-10.18,1.58-20.34,3.22-30.48,5l-1.41.24c-4.75.72-9.51,1.44-14.26,2.2-5.32.84-10.63,1.77-16,2.53l-17.48,2.5c-5.17.74-10.38,1.2-15.57,1.79l-12.36,1.4c-5.29.59-10.61,1.07-15.9,1.77l-17,2.26c-10,1.32-20,2.87-30.06,4.38l-2.77.42c-13.33,1.6-26.65,3.33-39.86,5.71q-7.1,1.28-14.19,2.51l-1.74.26c-10.09,1.49-20.2,2.76-30.29,4.29s-20.28,3.17-30.44,4.69c-19.53,2.93-39,6.46-58.49,9.5Q715,352.69,701,355c-10.67,1.74-21.34,3.48-32,5.1-9.19,1.39-18.36,2.92-27.53,4.47l-1.82.18c-4.39.45-8.76,1-13.15,1.56-20.43,2.36-40.87,4.59-61.26,7.32-10,1.34-19.93,3-29.89,4.47-10.15,1.53-20.3,3-30.44,4.6-9.83,1.53-19.63,3.24-29.46,4.8-4.53.73-9.06,1.52-13.6,2.2q-8.08,1.23-16.17,2.4c-10,1.46-20,3.1-29.93,4.79-9.17,1.56-18.36,2.95-27.48,4.8q-14.46,2.93-28.93,5.87c-9.79,2-19.55,4.21-29.31,6.41-6.93,1.55-13.91,2.95-20.86,4.41s-14.23,2.91-21.22,4.81a7.25,7.25,0,0,0-4.55,5.72c-2.73.52-5.47,1.07-8.2,1.63a6.71,6.71,0,0,0-4.16,2.26,6.27,6.27,0,0,0,.87,8.84,6.09,6.09,0,0,0,4.68,1.39c3.51-.72,7-1.47,10.55-2.08l10.17-1.75c4.21-.72,8.41-1.59,12.65-2.09,10.22-1.23,20.44-2.48,30.68-3.63,10.88-1.23,21.75-2.44,32.6-3.85,4.61-.61,9.25-1.13,13.85-1.83l18.74-2.85c10.25-1.55,20.47-3.36,30.69-5.09,9.41-1.6,18.83-3.13,28.26-4.66,20.51-3.33,41-6.63,61.5-10.19l61.61-10.74c9-1.57,18-3,27.06-4.44,10.19-1.65,20.38-3.37,30.59-4.89l15.89-2.37c4.86-.72,9.73-1.31,14.58-2.06q15-2.28,29.89-4.63c9.76-1.54,19.54-3,29.24-4.8,10.26-1.95,20.54-3.8,30.82-5.62q14.58-2.58,29.2-4.85c10.22-1.57,20.45-3,30.67-4.56,20.09-3,40.12-6.38,60.16-9.67,20.47-3.36,40.9-6.94,61.39-10.17,5-.79,10-1.48,15-2.26,5.26-.81,10.52-1.7,15.77-2.58,10.09-1.7,20.16-3.47,30.2-5.41,9.31-1.79,18.6-3.69,27.94-5.32l4.53-.77c1.53-.24,3.07-.47,4.61-.69,10-1.46,20-2.93,29.91-4.53s20.09-3.07,30.14-4.59,20-2.95,30-4.2c12.55-1.58,25.1-3.25,37.7-4.45,6-.58,12.09-1.2,18.12-1.93,6.55-.8,13.26-1.27,19.53-3.46a8.17,8.17,0,0,0,.43-15.06l-2.1-.63a8.37,8.37,0,0,0-1.31-.11,8.13,8.13,0,0,0-2.79.5Z" transform="translate(-74.25 -164.61)"/><path d="M1195,287.52a6.42,6.42,0,0,0-4.24,2.3,6.08,6.08,0,0,0-1.31,2.95,6.4,6.4,0,0,0-7.23,1.93,6.82,6.82,0,0,0-1.43,4.81c.06,3,.09,5.93.11,8.9,0,2.69.23,5.37.42,8,.39,5.54,1,11.06,1.71,16.58.3,2.43.74,4.85,1.13,7.27s.82,5,1.25,7.49q1.52,8.74,3.09,17.47c.87,4.81,1.68,9.66,2.31,14.52.68,5.26,1.32,10.52,2.08,15.77,1.57,11,3.17,21.9,5,32.83q2.57,15.81,5.52,31.54l0,.19q.81,6.38,1.63,12.77c2.38-3.7,4.77-7.39,7.22-11q4.38-6.54,8.79-13l2.76-4c-.34-2.49-.68-5-1-7.48-3.24-22.55-7.35-45-11.43-67.4-1-5.36-1.89-10.73-2.82-16.1s-1.69-10.79-2.51-16.19c-.78-5-1.33-10.12-2-15.18-.36-2.82-.51-5.69-.77-8.53-.19-2.13-.36-4.25-.48-6.38-.25-4.79-.51-9.57-.69-14.36a6.22,6.22,0,0,0-2.3-4.23,6.37,6.37,0,0,0-4.07-1.46,5.58,5.58,0,0,0-.7,0Z" transform="translate(-74.25 -164.61)"/><path d="M647.63,581.35c-2,.08-3.9.32-5.84.54l-3.52.4-10.57,1.29c-4.34.53-8.69,1-13,1.66l-7,1a8.74,8.74,0,0,0-5.13.21l-.34.11c-1.49.36-3,.73-4.45,1.11l-16.58,2.42q-35,5.13-69.89,10.53-16.65,2.57-33.3,5.09c-4.4.67-8.76,1.5-13.13,2.27l-11.42,2c-1.46.25-2.93.48-4.38.78q-33.09,6.9-66.09,14.1-6.62,1.44-13.21,3-19.94,3.72-39.85,7.66c-3.32.65-6.65,1.31-10,2l-.2,0-1.72.32c-2,.36-4,.75-6.06,1.12a3.67,3.67,0,0,0-2.09,1.15,14.47,14.47,0,0,0-3.2,1.65,7.18,7.18,0,0,0,5,12.94c1.87-.18,3.76-.29,5.61-.61l4.25-.76,11.58-2.06c4.5-.81,9-1.59,13.51-2.37q17.16-3,34.3-6.1,32.75-5.93,65.51-11.78L480.29,625c10.87-2,21.75-3.81,32.64-5.68,3-.52,6-1,9-1.49l7.12-.94c5.45-.74,10.88-1.63,16.32-2.45L561.68,612c6.1-.92,12.18-2,18.27-3,5-.82,9.94-1.8,14.92-2.64a7.45,7.45,0,0,0,4-1.84l.61-.14c1.73-.4,3.47-.81,5.17-1.31a18.41,18.41,0,0,0,5.44-2.73,8,8,0,0,0,2.45-3q16-2.28,32-4.67c1.58-.24,3.16-.46,4.73-.73a43.6,43.6,0,0,0,4.79-1.21,4.89,4.89,0,0,0,2.19-7.43,4.64,4.64,0,0,0-3.19-2c-1.24,0-2.47-.08-3.7-.08l-1.67,0Zm-49.81,6.32-.09,0h0l.1,0Z" transform="translate(-74.25 -164.61)"/><path d="M362.84,959.2a5.32,5.32,0,0,0,1,7.4q6,4.32,11.9,8.64l-.19.1-1.84-.84c-1.82-.83-3.6-1.72-5.37-2.66l-2.16-1.29-1.11-.65c-.86-.56-1.73-1.11-2.6-1.66a6.26,6.26,0,0,0-4.31-1.18,5.93,5.93,0,0,0-5.19,6.6,5.77,5.77,0,0,0,2.29,4c10,6.61,19.75,13.68,29.53,20.64,4.49,3.2,9.05,6.32,13.49,9.6q7.71,5.73,15.43,11.43c9.07,6.71,18,13.62,26.95,20.49,3.09,2.37,6.21,4.7,9.25,7.13l15.65,12.55q12.9,10.35,25.68,20.85,13.38,11,26.81,21.93c8.06,6.57,16,13.29,24,20,4.61,3.87,9.08,7.91,13.61,11.86,4.08,3.56,8.23,7,12.35,10.55,6,5.09,12.12,10,18.24,14.87s12.31,9.41,18,14.62a6.89,6.89,0,0,0,11-4.54,6.6,6.6,0,0,0-1.33-5.11,95.65,95.65,0,0,0-7.26-6.84c-2-1.69-4.11-3.24-6.17-4.84q-2.73-2.11-5.44-4.26a7,7,0,0,0-.29-1.8,5.48,5.48,0,0,0,2.09-1,5.59,5.59,0,0,0,2.15-3.67,5.28,5.28,0,0,0-1.07-4.12l-1.06-1h0l-.07-.06c-1.71-1.68-3.48-3.3-5.27-4.9-2.13-1.91-4.24-3.86-6.41-5.73-3.77-3.26-7.49-6.56-11.3-9.77l-15.29-12.87c-3.55-3-7.17-5.87-10.75-8.8-7.73-6.32-15.45-12.62-23.27-18.8q-15.48-12.23-31-24.44c-7.63-6-15.36-11.92-23-17.87l-31.74-24.61c-6.95-5.38-14.07-10.54-21.11-15.81l-30.32-22.64c-5.64-4.22-11.39-8.29-17.09-12.43a5.48,5.48,0,0,0-3.24-1.06,5.19,5.19,0,0,0-4.16,2Z" transform="translate(-74.25 -164.61)"/><path d="M1376.1,169.59l-1.73.4a7,7,0,0,0-2.89,2c-2.41,2.42-4.06,5.51-5.78,8.45-1.12,1.9-2.17,3.85-3.26,5.77-2.19,3.85-4.48,7.62-6.82,11.37-6.08,9.31-12.18,18.61-18.1,28q-8.7,13.85-17.39,27.71l-10.35,16.48.11-.18c-5.6,8.9-11.25,17.76-16.82,26.68q-5.44,8.71-10.9,17.44c-1.52,2.28-3,4.6-4.5,6.89-2.89,4.4-5.85,8.77-8.67,13.22.07-.12.14-.24.22-.36q-7.32,11.6-14.59,23.23-9.24,14-18.5,28L1227,398.51c-1,1.55-2,3.14-3,4.71-1.64,2.61-3.31,5.21-4.94,7.84-.64,1-1.28,2-1.9,3a19.35,19.35,0,0,0-2,4,6.22,6.22,0,0,0-.54,3.24,6.3,6.3,0,0,0,5.19,5.58,4.36,4.36,0,0,0,.79,2.42,4.26,4.26,0,0,0,4,1.82,6.12,6.12,0,0,0,2.57-.86,8,8,0,0,0,1.74-1.83,12.19,12.19,0,0,1,1-1.23c.82-.95,1.62-1.92,2.4-2.92,1.58-2,3-4.09,4.48-6.18,3.22-4.65,6.41-9.33,9.6-14,2.7-3.95,5.36-7.91,8-11.86,3-4.43,6.08-8.82,9-13.32l10.62-16.45c3.06-4.73,6-9.58,8.91-14.38q3.29-5.28,6.55-10.57l10.31-15.49c3.12-4.68,6.12-9.45,9.18-14.18,2.6-4,5.15-8.07,7.64-12.18,2.91-4.82,5.89-9.61,8.75-14.46q7.52-12.75,15-25.53,12.18-19.51,24.29-39.06,2.47-3.65,4.93-7.3c2-3,3.79-6.06,5.64-9.12,1.35-2.23,2.7-4.44,4-6.67.43-.69.84-1.39,1.26-2.09a21.51,21.51,0,0,0,1.81-3.38l.09-.14a3.66,3.66,0,0,0,.47-1.76c0-.1.06-.19.08-.29a6.52,6.52,0,0,0-.39-3.27,5.34,5.34,0,0,0-.77-1.41l.23-.3a7,7,0,0,0-.86-9.76,6.93,6.93,0,0,0-4.46-1.62,5.17,5.17,0,0,0-.68,0Zm-20.84,28.6-.54.87.54-.87Z" transform="translate(-74.25 -164.61)"/><path d="M1392.94,164.65a7.64,7.64,0,0,0-5,2.65,7.39,7.39,0,0,0-1.46,2.8l-2-1.12a4,4,0,0,0-5.24,2,4,4,0,0,0,2,5.24c9.44,5.2,18.82,10.5,28.2,15.81l3.17,1.8c5.6,3.66,11.21,7.3,16.81,11,14.94,9.8,30.2,19.14,45.58,28.22q10.17,6,20.43,11.86,7.65,4.88,15.4,9.57c7.23,4.36,14.41,8.81,21.76,13,7.59,4.31,15.13,8.72,22.79,12.91,7.83,4.28,15.71,8.48,23.49,12.85l26.06,14.63c7.31,4.11,14.53,8.38,21.77,12.58l11.05,7.07c6.78,4.34,13.59,8.63,20.32,13l12.81,8.38c3.39,2.21,6.7,4.55,10,6.84q4.35,3,8.74,5.9c3.8,2.54,7.57,5.13,11.41,7.61q11.35,7.33,22.64,14.78,9.77,6.46,19.64,12.78,11.93,7.59,23.94,15c6.41,4,12.89,7.83,19.33,11.76q8.25,5.22,16.52,10.41,11.09,7.06,22.27,14,7.57,4.8,15.16,9.57l-1.54-1c14.17,9,28.65,17.39,43,26q11.7,7,23.35,14.05c6.57,4,13.21,7.8,19.88,11.61,7.87,4.5,15.73,9,23.5,13.67q10.43,6.28,20.89,12.51c6.88,4.08,13.7,8.29,20.64,12.26,7.55,4.3,15,8.71,22.5,13.15,2.14,1.28,4.25,2.61,6.37,3.93,2.71,1.71,5.41,3.42,8.14,5.09,2.53,1.55,5.1,3,7.66,4.53,5.71,3.35,11.38,6.77,17,10.2,4.76,2.89,9.59,5.67,14.4,8.48,4.12,2.49,8.26,5,12.39,7.42l5.66,3.5c8.87,5.62,17.74,11.26,26.65,16.84l5.07,3.2c7.53,4.74,15.14,9.41,23,13.53,3.73,2,7.42,4,11.15,6s7.44,4,11,6.21a6.93,6.93,0,0,0,3.62.6,7,7,0,0,0,6.28-7.69,6.83,6.83,0,0,0-2.47-4.68c-3.22-2.33-6.38-4.72-9.73-6.85-3.67-2.34-7.43-4.51-11.23-6.62-3.51-1.95-7.06-3.81-10.54-5.82s-6.73-3.88-10.07-5.86c-12.64-7.48-25.06-15.35-37.58-23l-3.14-2c-6.67-4.26-13.23-8.65-19.91-12.89-7.73-4.91-15.45-9.84-23.22-14.68-15.5-9.66-31.07-19.19-46.62-28.77-6.64-4.08-13.21-8.28-19.81-12.42l.72.44-21.34-13.46c-8.32-5.25-16.77-10.31-25.16-15.46-2.88-1.76-5.78-3.48-8.68-5.19l-26.36-16.82q-23-14.7-45.95-29.55c-7-4.56-14-9.28-20.94-13.92-7.47-5-15.08-9.74-22.61-14.62-14.46-9.34-29-18.53-43.5-27.81q-10.77-6.9-21.56-13.78c-7.18-4.58-14.31-9.26-21.45-13.91-6.23-4.06-12.33-8.31-18.53-12.4-7.39-4.86-14.76-9.73-22.24-14.46-4-2.51-7.85-5.14-11.88-7.51l-13.63-8q-9.9-5.82-20-11.24c-7.48-4-15-8-22.49-11.88l-13.55-7.05c-3.44-1.78-6.81-3.7-10.22-5.55-14.69-8-29.54-15.84-44.06-24.18q-7.79-4.47-15.62-8.88l-4.76-2.92q-22.89-14.06-45.81-28.07-18.71-11.41-37.75-22.25l-21.81-12.33c-4.07-2.3-8.17-4.54-12.25-6.81q-4.29-2.57-8.64-5v0a7.35,7.35,0,0,0-3.12-.71,6.12,6.12,0,0,0-.74,0Zm173.57,101.62,1.1.69-.34-.21-.76-.48Zm.93.59.18.11.4.25.39.25-.63-.4-.34-.21Zm.21.13.36.23-.36-.23Zm4.11,2.59.24.15-.24-.15Zm6.53,4.11.1.06.18.12-.28-.18Zm.34.21.78.49-.78-.49Zm538,349.4-.53-.34-1.22-.77,1.75,1.11ZM1978.12,518.72l-.5-.32.5.32Z" transform="translate(-74.25 -164.61)"/><path d="M2169,643.9a27.36,27.36,0,0,0-4,3.57,33.54,33.54,0,0,0-2.57,3.36q-2.1,2.86-4.15,5.76l-2.28,3.26c-3.18,4.3-6.34,8.61-9.43,13l-12.7,17.94c-5.43,7.67-11,15.25-16.18,23.1q-11.46,17.37-22.91,34.76c-5.95,9-11.75,18.19-17.62,27.29s-11.69,18.26-17.54,27.39c-5.51,8.59-11.21,17.07-16.59,25.74-2.92,4.72-5.92,9.4-8.77,14.17l-10.2,17.07q-7.91,13.22-16,26.29-3.19,5.13-6.41,10.26a7.3,7.3,0,0,0-.61.95,5.9,5.9,0,0,0-.5.83l-1.12,1.8a6.09,6.09,0,0,0-.76,1.22l-1.29,2.07a15.07,15.07,0,0,0-1.2,1.93l-.25.39a6.75,6.75,0,0,0-.89,1.44q-2.36,3.81-4.69,7.64c-2.9,4.75-5.74,9.53-8.58,14.31-2,3-4,5.92-6,8.87-2.8,4.11-5.67,8.18-8.39,12.35q-5.36,8.21-10.72,16.42c-1.92,2.94-3.64,6-5.44,9l-2.24,3.72c-.58,1-1.18,1.94-1.77,2.91a14.07,14.07,0,0,0-1,2.11c-.25.76-.47,1.52-.68,2.28a15.1,15.1,0,0,0,0,2.33,5.54,5.54,0,0,0,1.14,3c-.13.27-.26.54-.4.81-1,2.09-2,4.22-2.89,6.36a31.1,31.1,0,0,0-1.29,3.89,11.67,11.67,0,0,0-.19,3.91,6.31,6.31,0,0,0,8.48,5.28c.82-.39,1.62-.81,2.4-1.25l1.22-1.12a8.63,8.63,0,0,0,1.07-1.11c.39-.44.78-.88,1.15-1.33.85-1.05,1.71-2.1,2.52-3.19,1.58-2.11,3.1-4.26,4.54-6.47,3.18-4.85,6.25-9.75,9.15-14.77q4.5-7.82,8.94-15.66c2.33-4.11,4.58-8.26,7-12.31,2.85-4.77,5.68-9.54,8.59-14.27,2.78-4.52,5.57-9,8.32-13.57q9.59-15.86,19-31.8,8.55-14.37,17.12-28.71l3.09-5.15q7.72-10.89,15.3-21.89c6.36-9.22,12.8-18.38,19.12-27.63q5.13-7.54,10.28-15.07c3.26-4.78,6.41-9.64,9.62-14.45,6.1-9.18,12.09-18.44,18.19-27.62.77-1.16,1.53-2.32,2.27-3.5-.3.49-.61,1-.92,1.47.16-.25.31-.5.47-.74-.13.19-.25.39-.37.59l.38-.61.19-.3c.36-.56.72-1.08,1-1.62l.46-.73c1-1.61,2-3.22,3-4.84l-.21.34,1.43-2.27.43-.68,1-1.67-.13.21.22-.35c-.21.34-.43.68-.65,1,3-4.68,5.66-9.55,8.38-14.37,2.63-4.66,5.18-9.36,7.78-14,5-8.9,9.94-17.76,15.09-26.55.74-1.22,1.48-2.44,2.23-3.66,1.39-2.28,2.88-4.56,4-7a6.22,6.22,0,0,0,.53-3.21,5.88,5.88,0,0,0-.24-1.18q2.51-3.55,5-7.1,2-2.88,4.15-5.7a46.57,46.57,0,0,0,2.95-4.29c.66-1.16,1.29-2.33,2-3.48a5.79,5.79,0,0,0-5.3-8.2,5.68,5.68,0,0,0-3.31,1ZM2119.84,751l-.73,1.16.72-1.15Zm-.77,1.23-.14.2.11-.17,0,0Zm7.33-11.65.27-.43-.27.43Z" transform="translate(-74.25 -164.61)"/><path d="M1268.69,345.28a6.73,6.73,0,0,0-3.14,1.18,6.58,6.58,0,0,0-2.21,2.66,6.71,6.71,0,0,0,1.77,7.82c1.19,1,2.34,2.11,3.59,3.09,1.43,1.11,3,2.1,4.49,3.09,3.29,2.15,6.68,4.18,10,6.24l6.14,3.78c4.66,2.86,9.3,5.77,14,8.58,9.33,5.61,18.69,11.18,28,16.87,20.13,12.34,40.17,24.82,60.24,37.26q12.53,7.75,25,15.57a7,7,0,0,0,1.23.79l13.89,8.8c4.38,2.78,8.7,5.65,13,8.48q13.17,8.6,26.39,17.14c12.49,8.11,24.91,16.35,37.51,24.3l0,0,.34.22,1.36.85-.71-.44,4.26,2.68h0l.12.07,1.25.79.26.16,9.48,6,6.15,4a42.56,42.56,0,0,1,6.72,5c2.15,2,5.82,2,8.15.34a6.69,6.69,0,0,0,2.75-4.41,6.44,6.44,0,0,0-1.13-4.91l-.32-.37a6.44,6.44,0,0,0,3.58-3.35,6.57,6.57,0,0,0,.56-3.41,6.37,6.37,0,0,0-2.33-4.4c-3.26-2.24-6.65-4.3-10-6.33a6.16,6.16,0,0,0-2.22-5.09c-2.73-1.91-5.66-3.56-8.53-5.24-2.13-1.25-4.27-2.48-6.39-3.73q-7.32-4.29-14.58-8.7c-4.32-2.6-8.55-5.35-12.84-8l-15.45-9.53c-19.23-11.84-39-22.78-58.63-33.89q-25.89-14.64-51.92-29.09-11.82-7.6-23.76-15c-8.81-5.46-18-10.34-27-15.42-9.78-5.51-19.51-11.07-29.43-16.31-2.66-1.4-5.35-2.74-8-4.09l-3.4-1.69c-.72-.36-1.45-.7-2.17-1l-1.25-.64c-.76-.25-1.52-.47-2.29-.69a6.09,6.09,0,0,0-1-.09,5.93,5.93,0,0,0-1.5.19ZM1513.85,514.2l.06,0-.06,0Zm.88.55.54.34-.54-.34Zm11.33,7.11.42.26-.42-.26Zm-17-10.65.58.37-.45-.29.65.41-.85-.53-.34-.22,0,0-.39-.24.84.52Z" transform="translate(-74.25 -164.61)"/><path d="M345.93,471.6c-2.56.37-5.12.78-7.69,1.14-3.11.45-6.61.6-9.18,2.6l-.06.05a5.83,5.83,0,0,0-1.91,3,5.26,5.26,0,0,0-.45.58,5.46,5.46,0,0,0,1.48,7.57,5.26,5.26,0,0,0,4.16.81c1-.31,2-.6,3-.86l1.36-.19c1.4-.19,2.8-.34,4.21-.49,2.49-.28,5-.51,7.49-.77,5.31-.56,10.64-.92,16-1.43,4.87-.46,9.73-1.07,14.61-1.52,2.39-.22,4.77-.48,7.15-.75l2.63-.31,1.14-.13a8.43,8.43,0,0,0,3.92-1.91,6.57,6.57,0,0,0,2.29-4.72,6.72,6.72,0,0,0-3-6,7.9,7.9,0,0,0-4.14-1.35c-.92.06-1.82.13-2.73.26s-1.85.22-2.77.33c-2.32.28-4.64.54-7,.75-4.9.45-9.77,1.07-14.66,1.61-4.47.5-9,.86-13.42,1.41-.83.11-1.65.21-2.47.33Z" transform="translate(-74.25 -164.61)"/><path d="M389.81,471.55a6.09,6.09,0,0,0-3.61,2.23,4.78,4.78,0,0,0-.5.39,5.71,5.71,0,0,0-1.84,3.79c-.07.54-.15,1.07-.23,1.61s-.4,1.17-.61,1.74c-.87,2.52-1.57,5.08-2.3,7.64-.84,2.94-1.5,5.93-2.15,8.91-.91,3-1.81,6-2.64,9-1.37,5-2.51,10-3.84,15-1.39,5.17-2.57,10.39-3.93,15.57s-2.6,10.62-4,15.9c-.82,3.12-1.59,6.21-2.13,9.39-.39,2.34-.66,4.7-1.06,7-.17.84-.33,1.69-.49,2.54-.33,1.61-.65,3.21-1,4.82.05-.28.1-.55.16-.83-.06.3-.13.61-.19.91a5.06,5.06,0,0,0-.3,2,7.89,7.89,0,0,0,.68,3.17l.3.53a5,5,0,0,0,3.33,3.62,5.13,5.13,0,0,0,5.8-2,8.17,8.17,0,0,0,.84-1.64c1.05-1.56,1.39-3.6,1.94-5.38.48-1.56.94-3.15,1.43-4.72s.73-2.91,1-4.38c.8-2.3,1.63-4.59,2.46-6.88.89-2.45,1.67-4.94,2.47-7.42,1.59-4.93,3-9.9,4.41-14.9s2.29-10,3.46-14.94q1.55-6.66,3.14-13.32c1.25-5.16,2.17-10.39,3.1-15.61l-.36,1.87q.84-4.35,1.56-8.71c.32-1.5.66-3,1-4.49s.84-3.15,1.15-4.76a6,6,0,0,0,.11-2.94,6.15,6.15,0,0,0-2.58-3.84,6.25,6.25,0,0,0-4.2-1l-.49.09Z" transform="translate(-74.25 -164.61)"/><path d="M453.37,459.72c-1.25.19-2.48.48-3.71.77a58.48,58.48,0,0,0-9.14,2.9,19.11,19.11,0,0,0-5.65,3.59,38.36,38.36,0,0,0-3.29,3.69c-2.07,2.54-4.39,4.93-5.77,7.94-.29.61-.57,1.23-.83,1.85a12.77,12.77,0,0,0-.68,2.87c-.1.68-.11,1.39-.16,2.07a41.84,41.84,0,0,0-.09,4.75,5.15,5.15,0,0,0,1.18,3.4A4.77,4.77,0,0,0,432,494a4.56,4.56,0,0,0,1.62-3.33,30.65,30.65,0,0,1,.32-5.9,6.65,6.65,0,0,1,.26-.75,15.9,15.9,0,0,1,1.51-2.32c.25-.31.49-.61.75-.91.9-1,1.82-1.93,2.75-2.89a35.56,35.56,0,0,1,3.4-3.21,27.2,27.2,0,0,1,3.51-1.61,60.56,60.56,0,0,1,9.69-2.16,34.2,34.2,0,0,1,5.8.46,31.79,31.79,0,0,1,5.67,1.66,28.78,28.78,0,0,1,4.09,2.85,15.31,15.31,0,0,1,1.44,1.57,28.86,28.86,0,0,1,2.29,4.95,53.9,53.9,0,0,1,1.73,9.27,5.19,5.19,0,0,0,8.5,2.84,5.4,5.4,0,0,0,1.76-3.63,14.19,14.19,0,0,0,.19-2.52c-.06-1.2-.16-2.41-.34-3.6a33.93,33.93,0,0,0-2-7.47c-.38-1-.73-1.92-1.16-2.85a20.13,20.13,0,0,0-1.56-2.7,20.37,20.37,0,0,0-1.82-2.49,26.8,26.8,0,0,0-2.48-2.29,33.06,33.06,0,0,0-3.4-2.62,25.13,25.13,0,0,0-6.42-3,39.34,39.34,0,0,0-8.25-1.74,27.43,27.43,0,0,0-5.87,0l-.56.08Z" transform="translate(-74.25 -164.61)"/><path d="M477.08,490.92c-3,4.54-5.77,9.25-8.56,13.94q-3.87,6.52-7.94,12.93c-1.33,2.09-2.78,4.1-4.15,6.16s-2.64,4.23-3.92,6.36c-2.65,4.39-5.31,8.79-7.74,13.31-1.57,2.91-3.12,5.8-4.58,8.76-1.87,3.73-3.86,7.4-5.7,11.14-.6,1.17-1.21,2.33-1.82,3.5-.73,1.43-1.89,3-1.8,4.66a4.54,4.54,0,0,0,2,4,4.62,4.62,0,0,0,5.48-.35,10.12,10.12,0,0,0,2.47-3.85c1.87-3.7,3.92-7.3,6-10.87,1.19-2,2.28-4.09,3.49-6.09s2.59-4.2,3.87-6.32c2.57-4.2,5.35-8.27,7.9-12.49,1.35-2.23,2.72-4.45,4.13-6.65s2.8-4.26,4.12-6.45c5.18-8.58,10-17.4,15.55-25.76a5.3,5.3,0,0,0-8.8-5.91ZM439.8,553.18c-.07.13-.13.26-.19.39.06-.13.12-.26.19-.39Z" transform="translate(-74.25 -164.61)"/><path d="M467.94,562.74c-2.18.3-4.36.66-6.52,1-2.5.43-5,.77-7.52,1.2-2.33.39-4.65.8-7,1.2-1.44.25-2.89.63-4.32,1a56.16,56.16,0,0,0-5.39,1.7,40.41,40.41,0,0,0-4,1.84,4.94,4.94,0,0,0,2.21,9.37,5.29,5.29,0,0,0,3.5.55c1.68-.23,3.36-.66,5-1,1.32-.23,2.66-.38,4-.53.85-.09,1.7-.19,2.54-.3,4.84-.66,9.69-1.31,14.49-2.2,5-.92,10-2,14.95-3.06,2.42-.5,4.87-.92,7.3-1.39l.71-.13,1-.09a4.6,4.6,0,0,0,1.3-.37l.91-.18c.52-.11,1-.25,1.55-.38a11.12,11.12,0,0,0,1.88-.64,5.76,5.76,0,0,0,2.21-1.95,5.59,5.59,0,0,0,.37-5.68,5.77,5.77,0,0,0-4.76-3.12,11.27,11.27,0,0,0-2.84.35c-.8.13-1.61.21-2.42.3-2,.21-3.94.41-5.9.63l-1.58.19c-3.92.49-7.83,1.1-11.73,1.63Z" transform="translate(-74.25 -164.61)"/><path d="M478.69,491.89l-1,.65a4.61,4.61,0,0,0-1.33,2c-.89,1.87-1.65,3.79-2.53,5.66l-.54,1.1c-2,4-4.32,7.84-6.72,11.6-1.39,2.18-2.85,4.32-4.25,6.5s-2.63,4.23-3.9,6.38c-2.66,4.5-5.34,9-8.19,13.36-1.32,2-2.63,4.09-4,6.08s-2.77,4.21-4.12,6.35c-.84,1.32-1.69,2.63-2.49,4s-1.45,2.62-2.17,3.93q-3,5.43-5.88,10.89c-.24.48-.47,1-.71,1.43a6.09,6.09,0,0,0-.18,3.11,5.95,5.95,0,0,0,7,4.6,5.72,5.72,0,0,0,3.72-2.5c2.77-5.19,5.53-10.39,8.37-15.54,1.19-2.16,2.42-4.31,3.62-6.47s2.72-4.45,4.06-6.68c2.64-4.38,5.31-8.75,7.86-13.18s4.93-8.75,7.6-13A153.65,153.65,0,0,0,481,507.46a52.3,52.3,0,0,0,4-10,4.82,4.82,0,0,0-.25-3.5,4.63,4.63,0,0,0-2.65-2.3,4.58,4.58,0,0,0-2-.2,4.36,4.36,0,0,0-1.49.45Z" transform="translate(-74.25 -164.61)"/><path d="M448.68,461.29a20.42,20.42,0,0,0-4.74,1.68c-1,.51-1.94,1-2.86,1.55-1.17.71-2.29,1.46-3.39,2.26a25.48,25.48,0,0,0-4.61,4.67l-1.38,1.66a27.24,27.24,0,0,0-3.18,4.9,36.76,36.76,0,0,0-3.65,12.08,3.72,3.72,0,0,0,6.17,3,3.94,3.94,0,0,0,1.27-2.6c0-.33.09-.65.15-1a34,34,0,0,1,2.26-7,30.77,30.77,0,0,1,3.33-4.89l1.08-1.2,1.13-1.24a14.56,14.56,0,0,1,2.33-2,36.13,36.13,0,0,1,5.65-2.87,35.63,35.63,0,0,1,5.1-1,34.09,34.09,0,0,1,7.2.65c1.06.24,2.13.46,3.16.78a23.39,23.39,0,0,1,2.38.91,22.08,22.08,0,0,1,3.46,2.45c.52.47,1,.94,1.52,1.45a21.94,21.94,0,0,1,2,2.78c.74,1.07,1.56,2.05,2.34,3.08a14.07,14.07,0,0,1,1,2.18,15.52,15.52,0,0,1,.61,2.7,32.52,32.52,0,0,1-.56,4.81,4.31,4.31,0,0,0,1.1,3.19,4.48,4.48,0,0,0,7.85-2.71,26.74,26.74,0,0,0-.59-8.83,22.58,22.58,0,0,0-1.71-4.56,31.21,31.21,0,0,0-1.95-3c-.81-1.26-1.5-2.58-2.33-3.83a15.47,15.47,0,0,0-1.69-2.26c-.29-.31-.59-.6-.89-.89-.84-.83-1.68-1.65-2.59-2.4a21.17,21.17,0,0,0-5.71-3.27,16.35,16.35,0,0,0-2.56-.76c-1.49-.35-3-.64-4.49-.9a31.09,31.09,0,0,0-5.77-.5,21.9,21.9,0,0,0-2.45.17,33.48,33.48,0,0,0-4,.77Z" transform="translate(-74.25 -164.61)"/><path d="M855.75,911.83a5.4,5.4,0,0,0-1.46,2.52h0c-.88,2.85-1.55,5.75-2.36,8.63s-1.61,5.53-2.43,8.3c-1.77,6-3.4,12-4.6,18.18,0,.21-.07.41-.1.62-.68,2.47-1.32,4.95-1.95,7.43-1.23,5-2.56,9.88-3.78,14.83-.44,1.81-.77,3.64-1.21,5.45-.51,2.13-1.05,4.25-1.56,6.39-.44,1.86-.74,3.76-1,5.65a50.72,50.72,0,0,0-.69,5.62h0a4.24,4.24,0,0,0,6.37,3.7,4.43,4.43,0,0,0,2-2.54c.73-2,1.33-4.12,1.9-6.21.7-2.62,1.53-5.2,2.32-7.79s1.32-5,2-7.46,1.34-5,1.94-7.48c1-4,1.88-8,2.83-12,.15-.54.31-1.06.46-1.59a4.49,4.49,0,0,0,.83-1.78c.33-1.55.69-3.11,1.08-4.65s.92-2.95,1.39-4.42c.77-2.47,1.44-5,2.16-7.44.85-3,1.78-5.9,2.66-8.85,1-3.17,2-6.34,2.8-9.55a5.76,5.76,0,0,0-5.47-7.23,5.49,5.49,0,0,0-1.08.1,5.72,5.72,0,0,0-3,1.55Z" transform="translate(-74.25 -164.61)"/><path d="M846.05,952.71a44.36,44.36,0,0,1-1.89,6c-.76,2.06-1.49,4.13-2.24,6.19-.7,1.91-1.41,3.82-2,5.78s-1.19,3.87-1.77,5.81-1,3.93-1.44,5.91a68.61,68.61,0,0,0-1.31,7.4,51.39,51.39,0,0,0-.25,6,11,11,0,0,0,1.32,5.75,6.5,6.5,0,0,0,4.51,3.31,4.76,4.76,0,0,0,5.88-5.84l-.48-1.14a4.65,4.65,0,0,0-1-1.23v0c-.06-1,0-2.11,0-3.16,0-1.29.11-2.57.25-3.85.32-1.9.72-3.79,1-5.69.33-2.12.7-4.21,1.17-6.3,1-4.6,1.83-9.28,2.47-14,0,.34-.09.68-.14,1,.58-3.4,1.32-6.77,2-10.15a3.22,3.22,0,0,0-2.2-3.91,3.23,3.23,0,0,0-3.9,2.2Z" transform="translate(-74.25 -164.61)"/><path d="M896.83,982.56c-1.83.41-3.64.93-5.45,1.42-2,.55-4.13,1-6.2,1.5-4.88,1.07-9.77,2.11-14.59,3.39-2.32.61-4.65,1.13-7,1.68s-4.81,1.16-7.23,1.68c-5,1.08-9.93,2.15-14.91,3.16-2.77.57-4.35,3.77-3.64,6.37a5.25,5.25,0,0,0,2.37,3.11,5.38,5.38,0,0,0,4,.53c5.35-1.09,10.68-2.21,15.95-3.63l1.1-.3c1.6-.16,3.19-.4,4.77-.67,2-.34,3.91-.66,5.84-1.09,4.14-.92,8.24-2,12.36-3,3.69-.92,7.42-1.74,11.13-2.56s7.37-1.63,11-2.47l.4-.06a4.19,4.19,0,0,0,.51-.11,5.3,5.3,0,0,0,.52-.17,5.13,5.13,0,0,0,3.5-4.81,5.22,5.22,0,0,0-2.57-4.46,6.42,6.42,0,0,0-3-.78,12.42,12.42,0,0,0-2.19.11c-1.36.14-2.7.35-4,.61-.91.17-1.81.36-2.71.56Z" transform="translate(-74.25 -164.61)"/><path d="M878.37,936.9a4.83,4.83,0,0,0-1.49,3.57c.72,5.69,1.55,11.35,2.53,17,.36,2.1.73,4.18,1.08,6.28.4,2.4.92,4.76,1.48,7.13s1.11,4.53,1.58,6.81c.23,1.09.46,2.19.67,3.28q1.13,6.56,2.33,13.09c.22,1.23.44,2.47.67,3.7,0,.28.11.56.16.85.42,3,.86,6.06,1.38,9.09.09.53.18,1,.28,1.58.11.78.22,1.56.34,2.33.07.48.16,1,.26,1.43h0c.08.71.12,1.43.2,2.13a11.75,11.75,0,0,0,.36,2.27,5.06,5.06,0,0,0,1.29,2.24,5.22,5.22,0,0,0,2.27,1.32,5,5,0,0,0,3.89-.49,5.05,5.05,0,0,0,2.51-4.34,6.5,6.5,0,0,0-.2-1.57c.06.44.12.89.17,1.33,0-.33-.08-.67-.13-1l0-.11h0q-.42-3.27-.93-6.53s0-.07,0-.11c-.29-2.49-.77-4.94-1.24-7.39-.25-1.28-.49-2.56-.72-3.83-.37-3.36-.68-6.73-1-10.09-.52-5.13-1.22-10.23-2-15.34-.68-4.61-1.62-9.18-2.6-13.74-.21-.95-.48-1.89-.74-2.83-.35-1.22-.62-2.45-.88-3.7-.42-2-.9-4-1.28-6a12.12,12.12,0,0,0-1.25-4.26l-.24-.35-.15-.5-.12-.94a5.07,5.07,0,0,0-4.86-3.73,5.2,5.2,0,0,0-1,.09,5.14,5.14,0,0,0-2.62,1.38Z" transform="translate(-74.25 -164.61)"/><path d="M947.08,891.59c-.77.26-1.53.56-2.28.88l-.17,0a27.82,27.82,0,0,0-6.35,2c-.91.4-1.8.8-2.66,1.28a24.76,24.76,0,0,0-3,2.19,28.76,28.76,0,0,0-4.19,3.84,31.56,31.56,0,0,0-6.4,10.93,27.58,27.58,0,0,0-.95,5.19c-.21,2-.29,4.06-.37,6.1a5.09,5.09,0,1,0,10.18,0c.06-1.42.13-2.84.27-4.25a27.56,27.56,0,0,1,1.35-5,28.45,28.45,0,0,1,2.86-4.52,28.15,28.15,0,0,1,2.71-2.75,52.92,52.92,0,0,1,5.55-3.57,23.12,23.12,0,0,1,4.24-1.15,43.47,43.47,0,0,1,6.55-.22c1.61.25,3.21.5,4.81.77.92.16,1.84.33,2.75.54a13.14,13.14,0,0,1,2,.66,22,22,0,0,1,3.16,1.8l.63.8c.86,1.1,1.76,2.16,2.65,3.23.43.63.83,1.27,1.2,1.94.15.29.29.58.42.88.3.81.57,1.62.82,2.45.34,1.17.54,2.38.92,3.54a5,5,0,0,0,2.21,2.89,4.94,4.94,0,0,0,3.72.5l0,0a4.75,4.75,0,0,0,3.38-3.35,12.1,12.1,0,0,0-.32-5.91,26.74,26.74,0,0,0-1.23-3.9,24.15,24.15,0,0,0-2.18-4.45c-.84-1.22-1.77-2.37-2.69-3.54a33.93,33.93,0,0,0-4-5,24.55,24.55,0,0,0-3.28-2.45,14.81,14.81,0,0,0-3.16-1.45,14.35,14.35,0,0,0-1.8-.55,60.08,60.08,0,0,0-8.24-1.16,27.57,27.57,0,0,0-7.2.21,14.4,14.4,0,0,0-1.93.5Z" transform="translate(-74.25 -164.61)"/><path d="M977.57,917.11a4.68,4.68,0,0,0-2.88,2.19l-.27.56-.08.1c-.16.18-.32.38-.48.59a9.42,9.42,0,0,0-.84,1.28c-.28.53-.57,1-.85,1.59-.82,1.61-1.59,3.24-2.34,4.89-1.77,3.91-3.6,7.77-5.56,11.59-.85,1.66-1.72,3.33-2.51,5-1.61,3.11-3.07,6.31-4.56,9.48-2,4.2-3.84,8.45-5.6,12.75q-2.26,5.26-4.52,10.52c-1.51,3.43-3,6.89-4.41,10.34-1.67,3.78-3.35,7.55-4.81,11.42a58.44,58.44,0,0,0-2.71,8.21,4.19,4.19,0,0,0,4,5.32,4,4,0,0,0,3-1.22,42.89,42.89,0,0,0,4.86-8.41c.86-1.81,1.66-3.64,2.51-5.45s1.82-3.66,2.68-5.5c3.66-7.86,7.44-15.67,10.82-23.65q1.17-2.73,2.32-5.47c1.26-2.87,2.46-5.76,3.57-8.69l1.22-3.3.12-.24c1-2.23,2.26-4.4,3.43-6.57,2.18-4,4.15-8.17,6-12.38l-.06.14c.63-1.4,1.31-2.78,2-4.16.21-.43.43-.85.63-1.28a7.87,7.87,0,0,0,.86-2.8,5,5,0,0,0,.41-3.51,4.78,4.78,0,0,0-5.54-3.45,2,2,0,0,0-.35.08Zm-3.15,2.76h0l0,0,0,0ZM952.09,966c-.08.17-.15.35-.23.53.08-.18.15-.36.23-.53Zm10.85,2.89c-.12.27-.23.54-.35.8.12-.26.23-.53.35-.8Z" transform="translate(-74.25 -164.61)"/><path d="M943.59,999.51a5.8,5.8,0,0,0-4.06,3.76,5.09,5.09,0,0,0,2.68,9.83c5.27-1.17,10.56-2.21,15.84-3.33,2.24-.48,4.43-1.14,6.66-1.62s4.61-1,6.89-1.52,4.62-1.06,6.94-1.53c2.12-.43,4.21-.93,6.33-1.38,1.9-.39,3.78-.9,5.65-1.42l.39-.1.75,0a5.72,5.72,0,0,0,3.16-1l.14,0a5.36,5.36,0,0,0,3.12-2.38,5,5,0,0,0,.54-4v0a5.18,5.18,0,0,0-1.34-2.31,5.07,5.07,0,0,0-3.68-1.54l-.52,0a6.17,6.17,0,0,0-4.27.59l0,0a75.18,75.18,0,0,0-9.82,2.07l-.21.06c-3.89.67-7.76,1.42-11.65,2.11-2.18.39-4.37.73-6.55,1.06-1.93.29-3.84.7-5.77,1s-4.14.6-6.22.9c-1.41.21-2.86.34-4.27.61l-.7.15Z" transform="translate(-74.25 -164.61)"/><path d="M1641.1,1013.59q-4.18,2.31-8.23,4.82c-2.19,1.37-4.34,2.79-6.53,4.14a72.14,72.14,0,0,0-7,5c-2.07,1.65-4.06,3.35-6,5.16s-3.71,3.42-5.5,5.2-3.58,3.82-5.32,5.77a110.31,110.31,0,0,0-9.5,12.45c-1.35,2-2.51,4.22-3.71,6.35-.49.89-1,1.78-1.46,2.69-.77,1.53-1.43,3.08-2.09,4.65a52.21,52.21,0,0,0-3.9,15.09c-.52,5.23-.6,10.67.79,15.79a30.47,30.47,0,0,0,3,7.48,34.47,34.47,0,0,0,5,6.27,22.41,22.41,0,0,0,5.15,4.37,25.86,25.86,0,0,0,4.85,2,65.8,65.8,0,0,0,9.78,2.39,34.19,34.19,0,0,0,4.3.4,28.1,28.1,0,0,0,5.56-.55,50,50,0,0,0,8.67-2.5,43,43,0,0,0,6.54-2.81,38.32,38.32,0,0,0,6.14-4.46,34.63,34.63,0,0,0,4-3.69,33.75,33.75,0,0,0,3.86-5.13,25.85,25.85,0,0,0,2.84-9.89,31.48,31.48,0,0,0,0-7.88c-.12-1-.38-1.93-.57-2.89-.23-1.14-.37-2.29-.61-3.42a20.83,20.83,0,0,0-2-5.73c-.72-1.3-1.53-2.56-2.32-3.82a20.79,20.79,0,0,0-3.2-4.15,20,20,0,0,0-4.41-3.27,50.49,50.49,0,0,0-7.91-3.14,49.58,49.58,0,0,0-8.25-1.81,44.4,44.4,0,0,0-7-.47,36.43,36.43,0,0,0-11,1.78l.39-.57q2.08-3.09,4.36-6c1.28-1.66,2.66-3.25,4-4.84,1.72-2,3.53-3.87,5.31-5.78s3.78-4,5.75-5.89,4-3.69,6.06-5.42,4.18-3.23,6.33-4.76c.93-.62,1.85-1.27,2.82-1.83,1.73-1,3.45-2,5.2-3a4.61,4.61,0,0,0,2-6.13,4.71,4.71,0,0,0-3.41-2.43,4.25,4.25,0,0,0-2.72.46Zm-16.82,55.51a25,25,0,0,1,4.4,1.3c1.28.54,2.54,1.14,3.79,1.74a10.08,10.08,0,0,1,1.24.8,18.72,18.72,0,0,1,1.84,2c.65,1,1.22,2.09,1.83,3.15a31.8,31.8,0,0,1,1.73,3.39c.37,1.21.66,2.44.93,3.68s.66,2.77.85,4.17a32.83,32.83,0,0,1-.59,6.25,22,22,0,0,1-.87,3,35.09,35.09,0,0,1-3.28,5,28.62,28.62,0,0,1-3.8,3.67,16,16,0,0,1-1.75,1,29.1,29.1,0,0,1-2.82,1.2,44,44,0,0,1-5.08,1.5,46.4,46.4,0,0,1-5.25.75,39.92,39.92,0,0,1-7.79-.59,38.44,38.44,0,0,1-7.41-2,15,15,0,0,1-1.31-.88c-.79-.8-1.52-1.68-2.25-2.53s-1.23-1.46-1.8-2.21a22.3,22.3,0,0,1-1.44-3,33.89,33.89,0,0,1-1.17-6.34,54.89,54.89,0,0,1,.18-6.28c.15-2,.38-4.07.71-6.09,0-.23.1-.46.16-.69a5,5,0,0,0,1.35-.87c1.79-1.61,3.43-3.4,5.27-4.94,1.14-1,2.33-1.86,3.53-2.72a27.6,27.6,0,0,1,4.47-2.27,43.47,43.47,0,0,1,8.24-1.59,31.11,31.11,0,0,1,6.09.44Z" transform="translate(-74.25 -164.61)"/><path d="M1714.56,1019.36c-1.22-.17-2.43-.36-3.64-.56l-2.63-.41c-2-.31-4.12-.56-6.18-.83s-4-.61-6-1l-.89-.19-1.69-.32a6.41,6.41,0,0,0-6,9.34,6.12,6.12,0,0,0,3.67,3.15c5,1.06,10.13,1.81,15.26,2.47,1,.13,1.91.28,2.87.44s2,.34,3,.46c2.12.26,4.24.51,6.35.89,4.23.76,8.52,1.18,12.8,1.54l1.8.18c-1.18,1.18-2.34,2.38-3.5,3.59-3.28,3.42-7,6.33-10.38,9.69-1.64,1.65-3.22,3.36-4.84,5-1.2,1.23-2.5,2.37-3.72,3.59-.77.78-1.58,1.53-2.32,2.35-1.37,1.53-2.62,3-2.74,5.2a6.76,6.76,0,0,0,.74,3.3,7.5,7.5,0,0,0,2.34,2.51l.42.21c.54.28,1.07.54,1.62.78q.39.17.78.3c2.15.75,4.39,1.17,6.53,2,1.73.64,3.53,1.12,5.24,1.82a31.14,31.14,0,0,1,3.85,2.58,30.12,30.12,0,0,1,3.41,4.22,11.53,11.53,0,0,1,1,1.85c.13.37.24.74.34,1.12a14.07,14.07,0,0,1,.39,2.23,32.26,32.26,0,0,1-.27,5.64,29.62,29.62,0,0,1-2,5.59,29.93,29.93,0,0,1-3.34,5.06,34.84,34.84,0,0,1-4.19,3.67c-1.49,1.15-3,2.3-4.52,3.4a65.24,65.24,0,0,1-12.16,6.84c-2.54.84-5.15,1.44-7.76,2.05-1.57.37-3.13.81-4.72,1s-3.17.37-4.75.53c-.74,0-1.48.1-2.21.13a23.28,23.28,0,0,1-3.34-.15c-1-.1-2-.17-3.05-.27s-2.15-.34-3.22-.4a6.42,6.42,0,0,0-5.13,10.7,6.15,6.15,0,0,0,4.43,2.12c1.93-.12,3.86-.13,5.79-.19,2.51-.08,5-.45,7.47-.67l1.9-.16a57.21,57.21,0,0,0,7.84-.91c2.1-.44,4.23-.7,6.31-1.22a68.15,68.15,0,0,0,6.67-2.15,29.46,29.46,0,0,0,4.36-2.16,51.8,51.8,0,0,0,8.52-6c1.31-1.14,2.52-2.39,3.81-3.55s2.39-2.34,3.53-3.59a48.83,48.83,0,0,0,6.62-9.31,55.61,55.61,0,0,0,3.06-6.37,30.16,30.16,0,0,0,1.69-7.45,28.15,28.15,0,0,0-.31-8,19.59,19.59,0,0,0-2.15-6.06,26.36,26.36,0,0,0-4.11-6,30.37,30.37,0,0,0-6.26-4.53,19.07,19.07,0,0,0-4.52-2l-3-.85c1-.93,2-1.94,3-2.92,2.25-2.19,4.45-4.42,6.66-6.66s4.49-5,6.66-7.52c1.51-1.69,3.06-3.33,4.65-4.94.84-.85,1.68-1.67,2.47-2.55a15.83,15.83,0,0,0,1.6-2,11.88,11.88,0,0,0,1-2.06,11.41,11.41,0,0,0,.31-1.73,5.66,5.66,0,0,0-.61-2.86c-.77-2-3-3.23-5-3.81l-2.51-.7a39,39,0,0,0-4.43-.87l-3.56-.61.33.06c-2.45-.45-4.91-.82-7.37-1.2-1.93-.29-3.86-.58-5.79-.92-1.55-.3-3.1-.59-4.66-.84l-1.7-.25Z" transform="translate(-74.25 -164.61)"/><path d="M1399.45,247a6.4,6.4,0,0,0-.71,4.82,6.52,6.52,0,0,0,2.91,3.91c6.82,4.46,13.51,9.16,20.52,13.31,1.54.91,3.08,1.81,4.7,2.57s3.15,1.5,4.69,2.32l.56.3c-2.19.67-4.4,1.3-6.59,1.95-4.49,1.34-8.92,2.84-13.39,4.23-1.93.61-3.85,1.27-5.76,1.95-.76.27-1.52.51-2.27.79a11.38,11.38,0,0,0-4,2.33,7.66,7.66,0,0,0-2,3.34,6.55,6.55,0,0,0,0,3.29,7.48,7.48,0,0,0,1.55,2.85,9.57,9.57,0,0,0,3.55,2.22,23.24,23.24,0,0,1,4.24,2.59,37.49,37.49,0,0,1,3.59,3.54c.93,1,1.87,2.06,2.74,3.14a18.64,18.64,0,0,1,1.13,2c.21.63.4,1.26.59,1.89a17,17,0,0,1,.5,2.56,25.33,25.33,0,0,1,0,4.44,32.36,32.36,0,0,1-1.34,5.14,22.34,22.34,0,0,1-1.75,2.88,40.83,40.83,0,0,1-6.14,5.83,20,20,0,0,1-3.26,1.75c-1.42.52-2.87,1-4.3,1.46-2,.64-4,1.28-6,1.76-3.64.85-7.37,1.46-11.07,2a81.12,81.12,0,0,1-18.09-.51c-2.67-.39-5.36-.86-8-1.48a45.78,45.78,0,0,1-4.67-1.45c-1.56-.57-3-1.47-4.79-1.26a5.47,5.47,0,0,0-5.35,4,5.57,5.57,0,0,0,0,2.81,5.33,5.33,0,0,0,2.51,3.37,58.8,58.8,0,0,0,6.46,2.39,42.92,42.92,0,0,0,7,1.7,107.8,107.8,0,0,0,14.77,1.63,60.68,60.68,0,0,0,13.52-.9c4-.74,8-1.48,11.83-2.61,2.16-.64,4.29-1.37,6.42-2.12,1.9-.67,3.82-1.26,5.68-2.07a31.94,31.94,0,0,0,5.23-2.93,37,37,0,0,0,6.17-5.06,33.71,33.71,0,0,0,2.88-3.54,20.52,20.52,0,0,0,2.11-4.15,31.68,31.68,0,0,0,1.75-6.39,27,27,0,0,0,.45-4.48,38.41,38.41,0,0,0-.47-5,25.21,25.21,0,0,0-1.39-5.4,18.78,18.78,0,0,0-1.69-3.53c-.59-1-1.29-1.84-2-2.74-.81-1.09-1.8-2.07-2.7-3.08s-1.89-2.05-2.91-3c3.54-1.42,7.06-2.89,10.6-4.32,2.27-.86,4.57-1.64,6.84-2.49s4.53-1.61,6.78-2.45c1.46-.55,2.88-1.16,4.28-1.85a10.29,10.29,0,0,0,3.63-3.31,6.85,6.85,0,0,0,.91-3.25,6.67,6.67,0,0,0-1.75-4.35,21.53,21.53,0,0,0-3.81-3.17c-1-.71-2-1.37-3-2-2.07-1.29-4.19-2.55-6.37-3.63-1.15-.57-2.3-1.13-3.44-1.73-1.31-.69-2.57-1.52-3.84-2.29-4.31-2.58-8.45-5.45-12.64-8.22-2.25-1.49-4.51-3-6.76-4.44l-.19-.12a6.43,6.43,0,0,0-8.54,2.31Zm40.25,24.14-.14.19h0l.15-.19Z" transform="translate(-74.25 -164.61)"/><path d="M1470.51,288a6.6,6.6,0,0,0,2.25,8.94q6.79,4.28,13.65,8.46c4.19,2.56,8.2,5.4,12.36,8s8.57,5.26,12.89,7.83c1.91,1.14,3.83,2.27,5.77,3.36l.61.34c-.59.49-1.2,1-1.8,1.42-2.29,1.73-4.58,3.45-6.9,5.15-1.86,1.37-3.61,2.88-5.43,4.3s-3.79,2.92-5.71,4.35c-3.56,2.56-7.12,5.11-10.63,7.75-3.18,2.4-6.25,4.94-9.47,7.3l.22-.15c-2.67,2-5.3,3.95-8,5.94-3.27,2.28-6.42,4.67-9.52,7.17-1.5,1.22-3,2.38-4.56,3.59s-2.76,2.34-4.13,3.51c-2.84,2.44-5.71,4.85-8.49,7.35-1.3,1.17-2.64,2.3-4,3.41-1.65,1.38-3.75,2.54-4.63,4.62a6.29,6.29,0,0,0-.9,3.16,6.39,6.39,0,0,0,1.74,4.41c2.27,2.36,6.55,2.7,8.89.2.49-.53,1.11-.95,1.63-1.45s.93-.9,1.42-1.32c1.15-1,2.32-2,3.46-3,2.36-2.13,4.74-4.24,7.08-6.41s4.52-4.11,6.9-6c1.33-1.08,2.72-2.09,4-3.17,1-.84,2.08-1.68,3.14-2.5,1.86-1.3,3.79-2.49,5.68-3.75q3.27-2.2,6.53-4.44c4.52-3.09,8.82-6.48,13.21-9.75s9.08-6.32,13.38-9.81c1.79-1.45,3.54-2.94,5.33-4.4s3.7-2.86,5.56-4.27c2.08-1.59,4.16-3.16,6.1-4.91a18.28,18.28,0,0,0,2-2.12,22.85,22.85,0,0,0,2.47-3.48,7.75,7.75,0,0,0,0-7.43c-.91-1.76-2.68-3-4.21-4.18-.92-.68-1.87-1.34-2.83-2-2.12-1.39-4.29-2.71-6.46-4s-4.48-2.67-6.73-4c-4.09-2.41-8.19-4.83-12.2-7.38-1.69-1.07-3.36-2.15-5-3.23-.94-.59-1.9-1.15-2.86-1.71-.64-.37-1.28-.74-1.91-1.13-3.69-2.23-7.34-4.51-11-6.8a.41.41,0,0,1-.11-.07,6.58,6.58,0,0,0-8.83,2.32Z" transform="translate(-74.25 -164.61)"/><path d="M522.38,875.83a8.77,8.77,0,0,0-2.58-1.19,28.21,28.21,0,0,0-5.37-1.14,62.42,62.42,0,0,0-9.86.08c-2,.08-3.95.19-5.92.31-5,.25-10,.46-15.08.77a5.74,5.74,0,0,0-3.89,2.55,6,6,0,0,0,1.63,8.31l1.38.69a5.89,5.89,0,0,0,3,.23l4.87-.28c5.47-.24,10.93-.29,16.4-.41,1.79,0,3.58,0,5.37.13-.31.44-.63.87-.95,1.3q-2.39,3.17-4.76,6.36c-1.44,1.92-2.95,3.79-4.46,5.67s-3,4-4.46,6-3,3.87-4.38,5.83l-.31.42-.09.1c-3.6,3.86-7,7.93-10.35,12-3.13,3.86-6.15,7.85-9,11.91l-.36.51c-2.45,3-4.86,5.92-7.14,9-2.16,2.9-4.49,5.67-6.74,8.49-1.07,1.35-2.13,2.7-3.12,4.11a10.24,10.24,0,0,0-2,4.53,4.57,4.57,0,0,0,3.07,4.69,4.8,4.8,0,0,0,2.32.17h0l.09,0a5,5,0,0,0,1-.31l.26-.12a5.09,5.09,0,0,0,.5-.3,11.56,11.56,0,0,0,1-.7,11,11,0,0,0,1.1-1.17c1.12-1.25,2.22-2.51,3.32-3.78,3.29-3.62,6.32-7.44,9.37-11.27s6.06-7.6,9.15-11.35c1.52-1.84,3-3.66,4.57-5.5s3-3.74,4.5-5.56,3.16-3.86,4.7-5.82,3-3.93,4.46-5.87q2.88-3.24,5.7-6.54c1.49-1.74,2.87-3.57,4.29-5.36,1.28-1.61,2.58-3.19,3.7-4.92s2.05-3.22,3.09-4.82,2.19-3.26,3.14-5a18.19,18.19,0,0,0,1.58-3.51,11.85,11.85,0,0,0,.44-2.13,8.71,8.71,0,0,0,0-1.53v-.09a5.49,5.49,0,0,0-1.32-4,6,6,0,0,0-.7-.63c-.23-.22-.47-.43-.71-.63l-.38-.28Zm-22.31-2-.5,0,.5,0Z" transform="translate(-74.25 -164.61)"/><path d="M580.63,921.46a40.61,40.61,0,0,0-9.46-4.25,27.26,27.26,0,0,0-6.4-1.05,29.19,29.19,0,0,0-7,.69,25.09,25.09,0,0,0-6,2,45.74,45.74,0,0,0-6.3,3.88,74.39,74.39,0,0,0-9.2,7.8c-1.68,1.67-3.27,3.44-4.82,5.22a52,52,0,0,0-3.77,5.1q-3.11,4.56-6.37,9c-1.17,1.6-2.4,3.17-3.59,4.77-1,1.32-1.86,2.72-2.89,4l-.72.73a4,4,0,0,0-1.35,2.66,3.9,3.9,0,0,0,6.42,3.25c1.07-1.06,2.08-2.18,3.17-3.23,1.25-1.23,2.62-2.34,3.94-3.5s2.48-2.35,3.7-3.56c1.52-1.53,3-3.09,4.4-4.71l-1,1.08c2.25-2.5,4.4-5.09,6.56-7.66,2.14-2.33,4.4-4.56,6.74-6.67,1.43-1.28,2.82-2.61,4.33-3.79,1.26-1,2.53-2,3.85-2.88a28.79,28.79,0,0,1,3.8-2c.78-.22,1.57-.44,2.37-.63a17,17,0,0,1,2.56-.38,20.26,20.26,0,0,1,3.11.24,24.9,24.9,0,0,1,4,1.52,39.36,39.36,0,0,1,5.76,3.54c1.93,1.5,3.86,3,5.7,4.64l.41.37c1.2,1.1,2.39,2.21,3.54,3.36a37.27,37.27,0,0,1,3.17,3.36,17.66,17.66,0,0,1,1.09,2.33,16.3,16.3,0,0,1,.43,2.19,18.32,18.32,0,0,1-.29,4.11c.1-.47.19-.93.29-1.4-.24,1.14-.45,2.27-.68,3.4a26.92,26.92,0,0,1-1.91,5.52,54.85,54.85,0,0,1-6.27,8.92c-2.92,3.55-5.78,7.14-8.71,10.69s-5.71,7-8.59,10.56c-.66.8-1.34,1.59-2,2.43s-1.18,1.7-1.75,2.57c-1.23,1.84-2.62,3.56-4,5.29s-2.85,3.58-4.31,5.34a3.21,3.21,0,0,0,4.76,4.23,59.11,59.11,0,0,0,5.4-5.1l2.27-2.49c.7-.77,1.47-1.48,2.2-2.23,1.45-1.53,3-3,4.53-4.43s3.24-3.18,4.88-4.74,3.22-3.22,4.82-4.83,3.27-3.28,4.83-5a107.57,107.57,0,0,0,8.76-10.89,45,45,0,0,0,4.11-7.65,37.87,37.87,0,0,0,2.08-7.73,35.16,35.16,0,0,0,.87-5.09,18.94,18.94,0,0,0,0-4.19A21.6,21.6,0,0,0,601,942a19.21,19.21,0,0,0-4.48-6.93c-2-2.11-4.15-4.17-6.33-6.14-1.71-1.51-3.46-2.95-5.23-4.38l-.56-.45a31,31,0,0,0-3.8-2.64Zm9.59,7.47.39.35-.56-.5.17.15Zm-.17-.15-.61-.54.61.54Z" transform="translate(-74.25 -164.61)"/><path d="M541.77,933.84a4.74,4.74,0,0,0-3.49-.72,5.11,5.11,0,0,0-3.09,2c-4.15,4.94-8.11,10-12.3,15-1.31,1.46-2.63,2.91-4,4.33-1.83,1.93-3.73,3.81-5.48,5.82-.73.85-1.4,1.75-2.09,2.62a27.06,27.06,0,0,0-1.87,2.53c-.92,1.41-1.76,2.86-2.63,4.3a60.4,60.4,0,0,0-3,5.67c-.72,1.51-1.12,3.13-1.75,4.67a26.65,26.65,0,0,0-1.6,4.6,19.26,19.26,0,0,0-.61,4.71,35.47,35.47,0,0,0,.67,5.44,27.63,27.63,0,0,0,1,3.34,20.56,20.56,0,0,0,1.18,3.15,36.71,36.71,0,0,0,3.42,5c.88,1.19,1.76,2.38,2.74,3.49s1.79,1.93,2.74,2.83,2.16,1.87,3.25,2.8a32.88,32.88,0,0,0,3.58,3c1,.67,2,1.24,3,1.92a21.23,21.23,0,0,0,4.22,2.28,24.06,24.06,0,0,0,4.16,1.18,21,21,0,0,0,2.36.49,14.32,14.32,0,0,0,2.93-.08c.92-.1,1.86-.15,2.77-.3a12.23,12.23,0,0,0,1.36-.32c1-.25,1.91-.49,2.85-.78,1.66-.5,3.31-1.08,4.91-1.74a43.75,43.75,0,0,0,5-2.4,60.36,60.36,0,0,0,6.62-4.46,57.56,57.56,0,0,0,5.42-4.68,52.67,52.67,0,0,0,4.92-5.53c1.2-1.59,2.2-3.32,3.34-5s2.13-3.12,3.25-4.65,2.4-3,3.64-4.5c1.51-1.8,3-3.62,4.51-5.42a3.79,3.79,0,0,0,.63-1.84,3.8,3.8,0,0,0-6.26-3.17,142.69,142.69,0,0,0-11.44,11.5c-1.57,1.68-3.19,3.28-4.74,5l.39-.43-1.07,1.2a90,90,0,0,1-7.34,6.74,99,99,0,0,1-7.77,6.41,33.67,33.67,0,0,1-5.87,2.66c-.91.25-1.83.43-2.75.64a11.1,11.1,0,0,1-1.28.24,18.48,18.48,0,0,1-2.36-.1c-.45-.13-.9-.28-1.35-.4a20.58,20.58,0,0,1-2.58-.87c-.64-.37-1.25-.78-1.86-1.21-.9-.62-1.86-1.12-2.78-1.7a23.74,23.74,0,0,1-2.65-2c-.56-.48-1.14-.94-1.72-1.39s-1-.75-1.43-1.14a40,40,0,0,1-3.46-3.67c-.64-.77-1.26-1.56-1.92-2.32s-1.31-1.49-1.91-2.29a19.63,19.63,0,0,1-1.13-2.57,23.33,23.33,0,0,1-.68-3.62,16.52,16.52,0,0,1,.23-2.43,19,19,0,0,1,1.28-3.31c.62-1.29,1.09-2.65,1.67-4s1.36-2.42,2.11-3.56,1.74-2.49,2.61-3.73c.55-.8,1.08-1.62,1.65-2.4s1.31-1.71,2-2.57,1.26-1.72,1.93-2.55,1.29-1.55,1.91-2.34c1.43-1.84,2.78-3.75,4.19-5.61s2.65-3.56,3.94-5.36c2.93-4.05,6.06-7.94,9.28-11.77a4.55,4.55,0,0,0,.73-3.5,4.79,4.79,0,0,0-1.73-2.86,3.15,3.15,0,0,0-.29-.22Z" transform="translate(-74.25 -164.61)"/><path d="M662.47,985.18a19.48,19.48,0,0,0-3.77-.88,68.62,68.62,0,0,0-11.64-.61c-3.85,0-7.71.11-11.55.37-2,.14-4,.29-5.92.59-2.11.32-4.2.65-6.31.92a5.23,5.23,0,0,0-2,9.48,5.42,5.42,0,0,0,3.86.81c2.74-.35,5.47-.73,8.23-1q3.39-.12,6.8-.2c2.52-.05,5,0,7.55,0s4.85,0,7.25.24l.9.07c-.54.87-1.1,1.71-1.69,2.54-.83,1-1.68,2-2.51,3l-3,3.75c-5.82,6.34-11.47,12.86-17,19.46-2.88,3.46-5.87,6.86-8.6,10.44s-5.56,7.33-8.16,11.12c-.91,1.32-1.86,2.62-2.82,3.91-.73.9-1.45,1.8-2.16,2.72-1.25,1.61-2.48,3.23-3.71,4.85-.66.84-1.32,1.67-2,2.53-.39.51-.76,1-1.13,1.56l-1,1.32c-1.31,1.73-2.61,3.46-3.94,5.17-.73.94-1.46,1.87-2.16,2.83a12.15,12.15,0,0,0-2,3.19,4,4,0,0,0,6.39,4.35,23.29,23.29,0,0,0,2-2.19c1.12-1.25,2.17-2.55,3.25-3.85l1-1.15c2.14-2.35,4.2-4.77,6.3-7.15,1.66-1.87,3.32-3.74,5-5.64,1.43-1.57,2.88-3.14,4.23-4.78s2.75-3.49,4.19-5.18c3-3.54,5.88-7.14,8.87-10.67,2.83-3.33,5.45-6.81,8.17-10.23s5.71-7.07,8.68-10.52l1.47-1.68c1.52-1.61,3.1-3.17,4.58-4.8,1.72-1.91,3.4-3.85,4.94-5.91a28.7,28.7,0,0,0,3.82-6.56c.26-.64.5-1.3.7-2s.3-1.22.43-1.88a8.5,8.5,0,0,0,0-2.14,6,6,0,0,0-.64-2.22,7.68,7.68,0,0,0-2.43-2.79,9.72,9.72,0,0,0-2.56-1.27Zm-55,84.55c-.09.11-.19.21-.29.32.1-.11.2-.21.29-.32Z" transform="translate(-74.25 -164.61)"/><path d="M660.22,988a18.65,18.65,0,0,0-5.13-2.19,33.74,33.74,0,0,0-8.27-.8c-2.72,0-5.47.2-8.19.43s-5.68.49-8.53.72c-2.41.2-4.83.41-7.24.65a4.27,4.27,0,0,0-2.88,1.88,4.49,4.49,0,0,0-.68,3.27,4.42,4.42,0,0,0,1.89,2.87,4.68,4.68,0,0,0,3.26.69c2.15-.19,4.3-.34,6.45-.5,3.12-.14,6.23-.28,9.35-.29a62.63,62.63,0,0,1,9.68.52,15.48,15.48,0,0,1,1.9.59.57.57,0,0,1,.13.08c.29.29.56.59.83.91-.13.36-.27.71-.42,1.07a54,54,0,0,1-3.29,5.19,51.49,51.49,0,0,1-3.74,4.58c-2.11,2.33-4.23,4.65-6.29,7l.53-.6c-3.33,3.77-6.48,7.7-9.72,11.54s-6.78,7.87-10.08,11.88q-2.28,2.79-4.55,5.6c-1.58,2-3.1,4-4.7,5.91a127.29,127.29,0,0,0-8.15,10.91c-1.36,2.06-2.82,4.07-4.29,6-1,1.37-2,2.78-3.06,4.1a12.21,12.21,0,0,0-1.38,1.58,4,4,0,0,0,6.7,4.51,26.37,26.37,0,0,1,2.23-2.91l-.71.79c.57-.63,1.13-1.28,1.69-1.92,1-1,2-2,2.93-3.07s1.91-2,2.84-2.94c2.69-2.87,5.23-5.88,7.82-8.84,2.45-2.81,4.8-5.71,7.22-8.55s5-5.82,7.49-8.74c3.29-3.7,6.48-7.47,9.52-11.38,1.51-1.95,3.06-3.87,4.52-5.86,1.32-1.79,2.71-3.5,4.15-5.18s3-3.18,4.43-4.76c2-2.08,3.81-4.26,5.6-6.49a34.4,34.4,0,0,0,2-2.91,23,23,0,0,0,1.83-3.69,11,11,0,0,0,.78-3.43,9.11,9.11,0,0,0-3.53-7.6,11.2,11.2,0,0,0-1-.68Zm-14.94,19.74-.69.77.69-.77Z" transform="translate(-74.25 -164.61)"/><path d="M1054.78,716.76a8.36,8.36,0,0,0-3,3.89c-.22.77-.44,1.53-.67,2.3a9,9,0,0,0,.53,4.54c.75,2.44,2.71,4.25,4.59,5.86a103,103,0,0,0,9,6.57c4.14,2.85,8.26,5.74,12.47,8.5L1095.2,760c3.93,2.59,7.93,5.06,11.91,7.59,4.57,2.9,9.09,5.89,13.72,8.71,9.48,5.79,18.92,11.67,28.47,17.36,9.37,5.59,18.71,11.23,28.19,16.63l15.36,8.73c16.42,10.75,32.85,21.47,49.65,31.62l14.21,8.58c18.83,11.64,37.54,23.47,56.34,35.17,10,6.19,20.06,12.1,30.19,18,8.71,5.06,17.35,10.23,26.1,15.22,19.6,11.19,39.31,22.22,58.7,33.77l3.4,2c9.42,5.81,18.81,11.69,28.39,17.23,9.75,5.65,19.59,11.16,29.32,16.85q6.21,3.63,12.39,7.28c2.83,1.83,5.64,3.68,8.49,5.47,1.91,1.21,3.82,2.42,5.75,3.6l.31.19,1.16,2.13a9.51,9.51,0,0,0,3.92,3.15c3.64,1.07,7.59,2.56,11.43,2a10,10,0,0,0,7.84-5.8,9.79,9.79,0,0,0-1-9.7,28.24,28.24,0,0,0-6.85-5.89c-1.8-1.2-3.59-2.43-5.41-3.59q-6-3.79-12-7.49c-8.34-5.11-16.74-10.11-25.13-15.13q-13.43-8.25-26.69-16.76c-4.79-3.07-9.63-6.05-14.47-9-4.68-2.89-9.51-5.53-14.29-8.25q-14.13-8-28.17-16.2-14.73-8.61-29.32-17.47l2.18,1.32c-19.39-11.8-38.8-23.55-58.39-35-19.86-11.62-39.61-23.43-59.38-35.19q-9.85-5.87-19.82-11.55l-3.61-2.21c-19.2-11.72-38.53-23.22-57.83-34.75q-21.86-13-43.6-26.26c-2.09-1.28-4.17-2.55-6.25-3.84l-2-1.27-8.81-5.56-10-6.53c-9.27-6-18.51-12-27.61-18.3-4.94-3.41-10-6.83-15.15-9.84a16.46,16.46,0,0,0-2.42-1.19,11.63,11.63,0,0,0-4-.74,9.26,9.26,0,0,0-5.52,1.77ZM1134.57,761l1.89,1.15-1.89-1.15Z" transform="translate(-74.25 -164.61)"/><path d="M1258.22,352.7c-3.59,4.15-6.82,8.63-10.12,13-3.46,4.6-6.87,9.23-10.3,13.86-1.39,1.89-2.71,3.84-4.06,5.75-1.57,2.23-3.19,4.43-4.72,6.69-2.86,4.25-5.75,8.49-8.59,12.75-6.33,9.51-12.62,19.06-19.15,28.43l-10.82,15.52c-2.89,4.16-5.66,8.39-8.47,12.61-6.19,9.28-12.06,18.76-17.85,28.3q-9.3,15.35-18.47,30.75c-10.86,18.32-21.63,36.7-32.54,55q-9,15-17.76,30.15c-5.69,9.78-11.25,19.63-16.8,29.48l-16.65,29.57c-2.22,3.95-4.38,7.95-6.53,11.95-2.5,4.62-5.06,9.19-7.29,13.94-3.94,8.39-8.29,16.71-10.17,25.85a10.39,10.39,0,0,0,3.76,9.62,10.56,10.56,0,0,0,8.36,2.17,9.25,9.25,0,0,0,11.65-4.86c5.67-12.07,11.64-24,17.53-36,2.38-4.83,5-9.55,7.49-14.31,2.24-4.28,4.39-8.62,6.74-12.83l9.41-16.87c2.37-4.26,4.92-8.43,7.35-12.65q8.17-14.21,15.93-28.61,7-13,14.33-26c4-7.15,8.19-14.2,12.31-21.28q4.34-7,8.66-14.06c2.67-4.33,5.47-8.57,8.23-12.83,5.55-8.59,11.22-17.09,16.91-25.57l4.26-6.36c.44-.84.9-1.68,1.38-2.51,2.47-4.22,5-8.49,7.62-12.59l4.58-7.12c2.56-4,5.14-8,7.77-11.89,2.92-4.36,5.84-8.71,8.8-13q1.93-2.85,3.9-5.68a82.87,82.87,0,0,1,6.82-9.09c2.45-3.51,4.9-7,7.3-10.58,3.69-5.45,7.39-10.88,11-16.35l6-8.95c1-1.49,2-3,3-4.45l1.15-1.68c.43-.63.88-1.25,1.29-1.9a18.16,18.16,0,0,0,1.72-2.95c.31-1,.59-2,.84-3A10,10,0,0,0,1263,378c3.12-4.58,6.27-9.15,9.5-13.67a9.56,9.56,0,0,0,2-6.86,9.26,9.26,0,0,0-3.33-6.07,9,9,0,0,0-5.68-2,9.65,9.65,0,0,0-7.26,3.36Z" transform="translate(-74.25 -164.61)"/><path d="M1052.59,713.15a9.52,9.52,0,0,0-6.29,3.45,9.62,9.62,0,0,0-2.07,7.1,9.2,9.2,0,0,0,3.46,6.28q32.79,21.81,65.77,43.32c17.67,11.5,35.27,23.13,53,34.53l15.4,9.89c2.54,1.63,5.2,3.1,7.8,4.63l9.68,5.68c4.59,2.69,9.31,5.17,14,7.72s9.49,5.14,14.24,7.7c9.58,5.15,19.2,10.21,28.74,15.44,9.33,5.11,18.69,10.21,28.09,15.21,18.84,10,38.31,18.79,57.33,28.46q11.7,5.94,23.25,12.12c7.39,4,14.51,8.42,21.67,12.76q14.5,8.88,29.09,17.59c9.27,5.53,18.78,10.61,28.28,15.72,10.29,5.54,20.7,10.89,30.78,16.79,4.2,2.77,8.17,5.83,12.24,8.78,4.41,3.22,8.87,6.38,13.3,9.58s8.63,6.25,13,9.35c4.14,3,8.33,5.86,12.38,8.93,1,.78,2.09,1.47,3.15,2.16l1.75,1.07a7.57,7.57,0,0,0,4,.59,7.64,7.64,0,0,0,6.71-8.47,7.9,7.9,0,0,0-2.77-5c-4-3.51-8.46-6.3-12.76-9.33s-8.53-6-12.75-9-8.37-5.84-12.5-8.82c-4.6-3.32-9.14-6.73-13.75-10-2.5-1.77-5.18-3.34-7.83-4.89s-5.19-3-7.8-4.49c-4.29-2.43-8.63-4.75-13-7.12-10.08-5.57-20.16-11.12-30.21-16.75-3.54-2-7-4.19-10.44-6.31l1.09.66c-9.35-5.69-18.64-11.48-28-17.19-2.61-1.6-5.22-3.21-7.83-4.79s-5-3.16-7.6-4.61q-7.42-4.14-14.89-8.18-13.74-7.42-27.64-14.56c-5-2.58-10.07-5.09-15.11-7.65s-10.1-5.27-15.12-8c-4.77-2.57-9.52-5.14-14.23-7.81s-9.48-5.48-14.24-8.19q-13.71-7.8-27.53-15.39-13.26-7.26-26.54-14.52c-4.28-2.34-8.6-4.63-12.81-7.1l-14-8.19c-18.78-12-37.45-24.19-56.15-36.33q-28.59-18.54-57-37.3-10.12-6.69-20.23-13.41l-2.18-1.33a9.54,9.54,0,0,0-3.81-.8,8.23,8.23,0,0,0-1.1.07Z" transform="translate(-74.25 -164.61)"/></g><g id="Zeichnungseb.-2" data-name="Zeichnungseb."><path d="M711.17,616.5a8.75,8.75,0,0,0-1.46,3,10.05,10.05,0,0,0-3.82,6.72c-.28,4-.16,8-.13,11.93,0,2.51.18,5,.32,7.55.32,5.65.77,11.27,1.41,16.89,1.22,10.83,2.5,21.65,4,32.44.81,5.85,1.7,11.65,2.66,17.48.86,5.21,1.9,10.4,2.87,15.59,2,10.75,4.28,21.44,6.55,32.14,2.23,10.48,4.44,21,6.78,31.43.76,3.42,1.56,6.84,2.33,10.27a26.12,26.12,0,0,0-.12,4.75,38.85,38.85,0,0,0,.62,5.27c.43,2.46,1,4.9,1.33,7.37q.56,4,1.13,8c.86,6.14,1.75,12.28,2.59,18.42.81,6,1.87,11.89,2.81,17.83l.78,4.9c.33,2.42.68,4.85,1,7.27.24,1.92.48,3.84.74,5.75.69,5.27,1.41,10.52,2.19,15.77.31,2.16.64,4.31,1,6.47.16,1,.33,2.08.5,3.12.09.52.18,1,.26,1.55a31.92,31.92,0,0,0,1,4.07,11.73,11.73,0,0,0,1.84,3.36,8.63,8.63,0,0,0,2.32,2.23c.18.8.4,1.58.64,2.36a9.93,9.93,0,0,0,.84,2.18,9.05,9.05,0,0,0,17.29-4.78c-.71-4.87-1.28-9.75-2.23-14.57-.28-1.44-.57-2.87-.85-4.31-.07-.75-.14-1.5-.22-2.24q-.5-5.21-1-10.41c-.54-5.69-1.41-11.36-2.13-17-.39-3.08-.77-6.16-1.16-9.25a23.73,23.73,0,0,0,0-8.61,71.91,71.91,0,0,0-2.19-8.64c-.17-.67-.33-1.33-.48-2s-.19-1.22-.29-1.82c-.88-5.29-1.67-10.59-2.7-15.85-.21-1-.41-2.11-.62-3.17-1.66-11.36-3.17-22.74-4.73-34.12q-4.4-32.15-8.56-64.34-4.39-33.59-9-67.14-1.29-9.2-2.59-18.39a8.34,8.34,0,0,0-4.62-6.29c-.29-2.47-.58-4.95-.88-7.42a6.73,6.73,0,0,0-.29-1.29v-.33c0-2.19-1.72-4.54-3.38-5.8a8.78,8.78,0,0,0-12.3,1.67Z" transform="translate(-74.25 -164.61)"/><path d="M852.64,737.75c-12.27,3-24.18,7.46-36.09,11.69l-10.76,3.81c-1.47.52-3,1-4.42,1.57l-4.52,1.87-3.1,1c-2.27.76-4.59,1.43-6.84,2.27l-10.72,4-6.65,2.54c-2,.74-3.9,1.54-5.81,2.43a40.25,40.25,0,0,0-7,4.29l-.15.12c-5.25,2.24-10.4,4.71-15.6,7.06a9.12,9.12,0,1,0,7.18,16.76c7.26-3.27,14.47-6.59,21.83-9.64l21.23-8.79,16.62-6.89c3.81-1.58,7.79-2.83,11.67-4.22l15.1-5.42,5.13-1.58c5.92-1.83,11.82-3.68,17.77-5.41,2-.6,3.85-2.81,4.64-4.69a10,10,0,0,0-3-11.11,8.73,8.73,0,0,0-6-1.81,3,3,0,0,0-.52.1Z" transform="translate(-74.25 -164.61)"/><path d="M855.7,738.8l-4.9,1.08-8.34,1.8c-4.63,1-9.29,2-13.88,3.13l-19.43,4.88c-5.92,1.48-11.76,3.36-17.62,5.08-2,.57-4,1-5.9,1.74q-4.87,1.82-9.76,3.59Q770.67,762,765.5,764c-3.91,1.49-7.79,3-11.61,4.71a105.17,105.17,0,0,0-11.79,6.45l-1.11.66a7.87,7.87,0,0,0,1.84,13.46l2,.53a7.93,7.93,0,0,0,4.14-.56q6.7-2.09,13.37-4.29l2.45,1.42a11.39,11.39,0,0,0,5.86.76A15.43,15.43,0,0,0,774.8,786l2.64-.9,3.1-1.07c2.39-.83,4.76-1.66,7.15-2.47,5.11-1.73,10.2-3.5,15.35-5.09,5.38-1.65,10.74-3.42,16.16-5l19.22-5.47,9.6-2.71,6.63-1.87c3.41-1,6.75-2.13,10.12-3.23a10.09,10.09,0,0,0,5.55-5.61A10.7,10.7,0,0,0,862,738a10.22,10.22,0,0,0-2.71,0c-1.19.16-2.35.47-3.54.73Z" transform="translate(-74.25 -164.61)"/><path d="M824,582.12a12.23,12.23,0,0,0-10.54,11.28c0,1.72,0,2.57.07,4,0,.61.07,1.22.12,1.83.12,1.51.26,3,.39,4.52l.12,1.16a9.17,9.17,0,0,0-2.84.7,9.27,9.27,0,0,0-5.45,9.61,28.46,28.46,0,0,0,1,4.54c.38,1.47.77,2.94,1.16,4.41q1.08,4,2.13,8.09,2,7.57,3.92,15.15c1.35,5.24,2.7,10.49,4,15.75l.33,5.27c1.42,22.06,3.34,44.08,5.42,66.08,1.06,11.22,2.44,22.39,3.88,33.55,1.41,10.84,3.22,21.6,5.06,32.37.94,5.53,2,11,3.17,16.49,1.07,5.11,2.41,10.16,3.55,15.25,1.18,5.3,2.13,10.65,3.05,16q.85,8.61,1.77,17.22A29.37,29.37,0,0,1,859,853.28a82.41,82.41,0,0,1,10.51-3c-.08-.55-.16-1.09-.23-1.64l-1.41-10.47-.66-4.9c-1-8.22-1.89-16.45-3-24.65a9.86,9.86,0,0,0-.75-2.69q-1.28-9.36-2.53-18.73c-1.4-10.38-2.74-20.77-4.16-31.15s-3-21-4.45-31.54c-3-22.47-5.84-45-8.63-67.45-1.3-10.53-2.62-21.06-3.48-31.64-.36-4.39-.77-8.78-1.19-13.16l-.27-4.24c-.14-2.33-.29-4.67-.43-7-.17-2.88-.59-5.74-.94-8.61a12.1,12.1,0,0,0-10.31-10.3,11.23,11.23,0,0,0-1.53-.1,10.8,10.8,0,0,0-1.61.11Z" transform="translate(-74.25 -164.61)"/></g><g id="Zeichnungseb.-3" data-name="Zeichnungseb."><path d="M1262.79,1111.06a7.5,7.5,0,0,0-2.89,2.5c-.29.57-.58,1.14-.88,1.71a7.49,7.49,0,0,0-.3,3.9c.18,3.39.72,6.79,1.14,10.16.33,2.62.65,5.25,1,7.86s.65,5,1.12,7.55l1.83,9.81c.28,1.48.58,3,.89,4.45.58,4,1.22,8,1.82,12,.76,5,1.43,10.14,2.29,15.18q1.7,9.84,3.38,19.66c.87,5.12,2.17,10.16,3.33,15.21.47,2.07,1.07,4.06,1.68,6.09,1,3.16,1.87,6.32,3,9.44,1,2.75,1.89,5.51,2.91,8.24.53,1.41,1.05,2.84,1.62,4.26a47.48,47.48,0,0,0,1.24,5c.18.56.37,1.11.55,1.67a6.41,6.41,0,0,0,1.26,1.76c.21,1,.43,2,.64,3A6.86,6.86,0,0,0,1302,1259c.13-.1.26-.2.38-.31a9,9,0,0,0,3-6c0-.79-.09-1.58-.12-2.38a8.92,8.92,0,0,0-1.7-3.77,62.25,62.25,0,0,1-3.29-7.6q-1.46-3.68-2.87-7.38t-2.59-7.17q-1.06-5.87-2.14-11.72c-1.18-9.25-2.16-18.52-3.17-27.79-.92-8.59-1.8-17.16-2.94-25.72-.58-4.43-1.21-8.84-1.86-13.26-.27-1.77-.53-3.54-.8-5.32l-.54-3.53c-.18-1.2-.32-2.41-.5-3.61a38.13,38.13,0,0,0-.9-3.8,6,6,0,0,0-2.85-3.9l-1.32-9.69c-.5-3.76-4.53-6.22-8.11-5.55a8.33,8.33,0,0,0-.86.22,7.8,7.8,0,0,0-4.15-.33,7.39,7.39,0,0,0-1.91.63Z" transform="translate(-74.25 -164.61)"/><path d="M1283.51,1124.17a13.09,13.09,0,0,0-2,3.37c-.81,1.83-1.49,3.71-2.12,5.6a11.18,11.18,0,0,0-4,5.55,22.61,22.61,0,0,0-.9,4.4c-.17,1.21-.29,2.43-.51,3.63q-1.2,5.46-2.39,10.94-1.08,3.43-2.15,6.88c-.72,2.32-1.3,4.69-1.94,7-1,3.58-2,7.17-3,10.75-1.4,5.08-2.48,10.26-3.69,15.39s-2.3,10.28-3.43,15.42l-.42,1.53-.45,1.75-.06.25c-.48,1.82-1,3.63-1.45,5.45-.23.87-.46,1.74-.71,2.6a31.21,31.21,0,0,0-1,4.16,21.73,21.73,0,0,0,0,4.63,9.63,9.63,0,0,0,13.68,6.86,9.36,9.36,0,0,0,4.83-5.41q.83-3.08,1.58-6.16a8.93,8.93,0,0,0,1.89-3.28q5.18-16.26,10.11-32.58c3.24-10.74,6.24-21.54,9.22-32.36,2.6-9.48,4.6-19.13,6.56-28.77a10.34,10.34,0,0,0-.3-3.43v0a9,9,0,0,0-6-9.26,8.76,8.76,0,0,0-4.63-.36,9.21,9.21,0,0,0-6.77,5.44Z" transform="translate(-74.25 -164.61)"/><path d="M1216.41,1156.08a8.15,8.15,0,0,0-2.25,3.25,9.25,9.25,0,0,0-3.44,4.47c-1.64,4.56.78,10.35,5.6,11.81,5.12,1.55,10.36,2.73,15.56,4s10.61,2.53,15.93,3.74c11.12,2.55,22.32,4.82,33.49,7.14,2.91.64,5.82,1.28,8.72,1.94,4.91,1.74,9.83,3.49,14.82,5,3.22,1,6.44,1.92,9.68,2.81,2.65.72,5.32,1.36,7.91,2.27l.42.24a6.55,6.55,0,0,0,1.11.59l.41.2,0,0a7.25,7.25,0,0,0,5.73-.27,7,7,0,0,0,1.17-.73,8.35,8.35,0,0,0,5.72-9.55,8.17,8.17,0,0,0-3.53-5.41,48.1,48.1,0,0,0-8.2-3.9l-1.45-.78c-2.93-1.52-6-2.79-9-4.07-5-2.1-10.23-3.66-15.41-5.32-.74-.24-1.53-.4-2.29-.6l-5.82-1.51c-2.57-.66-5.12-1.34-7.72-1.89l-2.27-.48c-3.83-1.32-7.68-2.56-11.56-3.68-15.58-4.51-31.47-7.84-47.33-11.13a5,5,0,0,0-2,0,8.88,8.88,0,0,0-3.95,1.93Z" transform="translate(-74.25 -164.61)"/><path d="M1221.14,1198.43a3,3,0,1,0,2.38-3.47,3,3,0,0,0-2.38,3.47Z" transform="translate(-74.25 -164.61)"/><path d="M1327.39,1155.55c-1.52.49-3,1-4.53,1.57l-3.67,1.39-9,3.43q-2.43.93-4.87,1.83-9.83,3.11-19.69,6.09c-5.4,1.65-10.77,3.47-16.14,5.22-4.93,1.59-9.81,3.29-14.7,5-4.39,1.55-8.81,3-13.16,4.68-6.34,2.43-12.68,4.84-19,7.3a6.17,6.17,0,0,0-3.2,3.58,6.4,6.4,0,0,0,.27,4.95,6.47,6.47,0,0,0,3.58,3.2,6.78,6.78,0,0,0,5-.28l4.29-1.66a7.56,7.56,0,0,0,1.74.9l1.84.4a7.41,7.41,0,0,0,3.79-.71c7.48-2.66,14.93-5.41,22.4-8.13l8.41-2.84c20.58-6.34,41.23-12.49,62-18.3,5.9-1.65,11.81-3.34,17.75-4.86a8.86,8.86,0,0,0,5.45-3.56,8.51,8.51,0,0,0-2.22-11.81c-1.68-1.15-4.35-2-6.37-1.34l-11.52,3.59a5.05,5.05,0,0,0-2.35-.59c-1.09,0-2.17.08-3.26.17l-.44.06a18.88,18.88,0,0,0-2.28.71Z" transform="translate(-74.25 -164.61)"/><path d="M1322.73,1151.25c-.68.21-1.37.4-2.06.59-1.34.38-2.68.74-4,1.14-2.47.73-5,1.4-7.42,2.19q-9.68,3.06-19.26,6.37c-4.52,1.56-9,3.21-13.49,5-5,2-10.12,4-15.1,6.19s-10.07,4.46-15.07,6.75c-2,.91-4,1.83-5.92,2.78l-1,.47-3.19,1.07c-2.14.72-4.24,1.54-6.36,2.31l-2.68,1a33.94,33.94,0,0,0-6.26,3.14,9.71,9.71,0,0,0-3.82,3.31,9.92,9.92,0,0,0-1.56,7.41,10,10,0,0,0,8.91,8c2.93.3,5.45-.61,8.09-1.77.63-.27,1.3-.48,2-.73l4.17-1.52c2.2-.8,4.41-1.55,6.6-2.35,5.25-1.92,10.5-3.87,15.76-5.77,10.69-3.88,21.31-7.93,32-11.85,5.61-2.06,11.23-4.08,16.79-6.28,3.17-1.25,6.39-2.45,9.53-3.8l5.83-2.51c2.92-.79,5.91-1.4,8.84-2.11,5.24-1.27,10.47-2.47,15.75-3.59a8.9,8.9,0,1,0-3.29-17.49c-4.16.87-8.29,1.82-12.41,2.8a8.51,8.51,0,0,0-4.4-1.53,20,20,0,0,0-4.25.11h-.08a26.76,26.76,0,0,0-2.6.66Zm-74,28.35-1.43.48,1.43-.48Z" transform="translate(-74.25 -164.61)"/></g><g id="Zeichnungseb.-4" data-name="Zeichnungseb."><path d="M611.86,1306c-3.2-1.78-6.27-3.64-9.81-4.59a50.58,50.58,0,0,0-18.25-1.53,29.8,29.8,0,0,0-4.79.73c-2,.51-3.9,1-5.81,1.67a38.79,38.79,0,0,0-8.13,4.17c-5,3.14-9.35,7.2-13.66,11.25a77.26,77.26,0,0,0-9.81,11.18,165.59,165.59,0,0,0-13.14,22.48,142.12,142.12,0,0,0-8,20.28,91.91,91.91,0,0,0-3.45,14.18c-.29,1.87-.54,3.75-.79,5.64a71.77,71.77,0,0,0-.27,12c.34,8.93,3.17,17.72,6.84,25.78,1.51,3.31,3.44,6.46,5.26,9.61,2.45,4.26,5.12,8.37,7.79,12.49a79,79,0,0,0,6.18,8.46c1.93,2.25,4.06,4.3,6.15,6.39,3.58,3.57,7.3,7,11.13,10.27,4.91,4.22,9.93,8.54,15.62,11.7a96.57,96.57,0,0,0,12.43,6.09c3,1.14,6,2.14,9.08,3.12,4.17,1.36,8.49,2.35,12.75,3.35a48.23,48.23,0,0,0,9.46,1.46,27.76,27.76,0,0,0,11.17-1.66c4.67-1.86,9-5,11-9.74,1.22-2.92,1.53-7,0-9.9-1-2-2-3.8-4-5.1a20.43,20.43,0,0,0-4-2.13,40.79,40.79,0,0,0-6.58-1.61c-11-3-21.31-8.11-31.54-13.21l1.23.67c-4-2.18-8-4.36-11.8-6.89-2.84-2.46-5.58-5-8.31-7.62a86.48,86.48,0,0,1-11.3-13.64q-2.61-4.11-5.2-8.24c-1.76-3.11-3.48-6.25-5-9.48-.35-1.69-.63-3.39-.81-5.1a133.27,133.27,0,0,1,1.77-14c.48-3.21.85-6.46,1.31-9.68,5.1,3.18,10.35,6.11,15.6,9q11.1,6.19,22.28,12.22c10.35,5.61,20.93,10.77,31.31,16.33,2.84,2.6,7.78,3.36,11.43,2.81a15.46,15.46,0,0,0,2.94-.75l.61,0a15.71,15.71,0,0,0,7.4-3.2,15.88,15.88,0,0,0,3.49-3.84c.36-.16.72-.34,1.07-.52a19.58,19.58,0,0,0,4.62-3.16l2.27-2.35c.67-1.2,1.32-2.41,2-3.62a14.82,14.82,0,0,0,1.16-5.12,30.92,30.92,0,0,0-.23-6.79,43.65,43.65,0,0,0-1.53-7.14c-.8-3-1.65-5.92-2.67-8.82a82.9,82.9,0,0,0-4.12-9.12c-1.68-3.35-3.36-6.71-5-10.08-3.26-6.73-6.17-13.54-9-20.44a104.5,104.5,0,0,0-13.28-21,114.12,114.12,0,0,0-10.94-10.49c-.45-.38-.93-.75-1.42-1.11a25.1,25.1,0,0,0-2.63-1.71Zm-14.2,41.71a60.78,60.78,0,0,1,6.65,8.11c1.26,2.41,2.35,4.87,3.44,7.38,1.52,3.5,3.17,7,4.79,10.41.7,1.52,1.42,3,2.11,4.55l-4.27-2.82q-9.32-6.13-18.57-12.37A219,219,0,0,0,573,1351.42l.1-.07a108.09,108.09,0,0,1,17.4-7.42l.38-.08h0c1.18.36,2.36.75,3.51,1.21,1.14.82,2.22,1.7,3.28,2.63Z" transform="translate(-74.25 -164.61)"/></g><g id="Zeichnungseb.-5" data-name="Zeichnungseb."><path d="M1933.58,1275.36c-3.42-.11-6.88.09-10.29.32-3,.2-5.94.44-8.89.91a61.33,61.33,0,0,0-8.86,2.3,18.13,18.13,0,0,0-2.72,1.26,16.25,16.25,0,0,0-3.86,2.52,11.39,11.39,0,0,0,.54,18,11.73,11.73,0,0,0,8.62,2c2-.24,4-.53,6-.69a73.86,73.86,0,0,1,11.7.66c4,.59,8,1.3,11.89,2.17a63.74,63.74,0,0,1,6.47,2c1.88.73,3.7,1.55,5.51,2.43a96.27,96.27,0,0,1,13.25,9.6l1.86,2.55c1.51,2.09,3,4.19,4.51,6.3,1.17,1.67,2.29,3.37,3.39,5.08,1.44,2.51,2.84,5,4.22,7.58a47.36,47.36,0,0,1,3.06,7.32,72.73,72.73,0,0,1,2.3,12.15,45.39,45.39,0,0,1-.76,8,76.63,76.63,0,0,1-5.87,14.62,61.39,61.39,0,0,1-6.77,9.42c-.61.63-1.24,1.25-1.87,1.86-2.48,1.22-5,2.35-7.53,3.46-4.74,2.11-9.5,4.18-14.26,6.25-2.37,1-4.72,2.12-7,3.34s-4.49,2.5-6.72,3.77c-4.57,2.6-9.16,5.18-13.73,7.79a94,94,0,0,0-12,7.56,17.29,17.29,0,0,0-3.06,3.22c-1.4.77-2.79,1.6-4.16,2.51a25.13,25.13,0,0,0-4.19,4,23.7,23.7,0,0,0-3.29,5.26c-2,3.75-2.62,8.22-2.68,12.42-.07,5.32-.19,10.63-.48,16v.13c0,.27-.07.54-.11.81-.71,5-1.37,10.13-1.8,15.2-.45,5.48-.75,11-1,16.45-.16,2.92-.32,5.84-.44,8.77,0,1.3-.06,2.61,0,3.92a34,34,0,0,0,.23,4.16,12.37,12.37,0,0,0,2.5,5.57,9,9,0,0,0,6.31,3.37,9.3,9.3,0,0,0,8.49-3.82c1.73-1.86,2.39-4.88,2.79-7.28.18-1,.32-2.08.43-3.13a8.65,8.65,0,0,0,1.83-4.68c1.09-9.87,1.94-19.76,3-29.63.92-8.73,1.78-17.52,3.39-26.17a36.07,36.07,0,0,1,3.94-3c4.3-2.56,8.62-5.09,12.87-7.73,4.52-2.81,9-5.71,13.4-8.65,3.31-1.2,6.61-2.4,9.84-3.79a148.32,148.32,0,0,0,14.07-6.68,141.19,141.19,0,0,0,14.93-9.33c2.49-1.81,4.94-3.65,7.39-5.51a47.85,47.85,0,0,0,8.64-8.83,44.3,44.3,0,0,0,8.91-20,88.3,88.3,0,0,0,.91-15.67,78.53,78.53,0,0,0-.75-10.16c-.41-2.54-.82-5.07-1.37-7.58a59.84,59.84,0,0,0-2.87-9.68c-.78-1.92-1.64-3.8-2.52-5.68a27.63,27.63,0,0,0-1.67-3.79c-.63-1.17-1.26-2.34-1.91-3.5a107.78,107.78,0,0,0-10.11-15.25c-3.69-4.59-8.36-8.45-13-12.11l-.1-.08c-2.78-3.58-5.74-7.1-9.53-9.6-3.11-2-6.77-3.33-10.22-4.68-2.36-.93-4.72-1.85-7.07-2.8a50.86,50.86,0,0,0-9.36-2.94,28.72,28.72,0,0,0-4.33-.5Z" transform="translate(-74.25 -164.61)"/><path d="M1895.53,1540.19c-.86,0-1.72,0-2.57.1a10.25,10.25,0,0,0-3.09,1,8.92,8.92,0,0,0-4.21,3.77,5,5,0,0,0-.68,1.11,17.15,17.15,0,0,0-1.72,3.14,24.93,24.93,0,0,0-1.33,4.82,14.47,14.47,0,0,0-.12,4.82,6.92,6.92,0,0,0,.31,1.62,12.81,12.81,0,0,0,2.13,4.71,11.31,11.31,0,0,0,10.81,4.64,13.53,13.53,0,0,0,2.89-.69l.82,0a22.52,22.52,0,0,0,2.88-.94,12.12,12.12,0,0,0,2.56-1.73,11.65,11.65,0,0,0,3.72-6.13,15.21,15.21,0,0,0,.66-3.26l0-.94a12.86,12.86,0,0,0-1.4-7.2,21.15,21.15,0,0,0-2.8-4,14.8,14.8,0,0,0-4.75-3.56,12.27,12.27,0,0,0-3.43-1.1l-.65-.12Z" transform="translate(-74.25 -164.61)"/><path d="M1934,1276.33a39.91,39.91,0,0,0-12,.17,8.87,8.87,0,0,0-5.36,14.37,8.55,8.55,0,0,0,6,3.2,54.31,54.31,0,0,1,10,1,91,91,0,0,1,15.95,5.92,105.13,105.13,0,0,1,9.39,6.93c3.29,2.58,6.64,5.07,9.8,7.81a91.51,91.51,0,0,1,10,13.08,87.22,87.22,0,0,1,6.43,15.25c.61,2.36,1.21,4.73,1.64,7.14a81.49,81.49,0,0,1,.94,8.11l0-1c0,.21,0,.41,0,.62,0-.09,0-.18,0-.28,0,.11,0,.22,0,.32l0,.87c0,.42,0,.84.05,1.26,0-.68-.05-1.37-.08-2a57.21,57.21,0,0,1-.35,9.71c-.37,2.64-.87,5.25-1.4,7.85a41.92,41.92,0,0,1-2.6,8c-1.47,2.34-3.08,4.59-4.67,6.85a43.84,43.84,0,0,1-3.73,4.46c-3.58,3.53-7.1,7.24-11.24,10.11-4,2.49-8.09,4.9-12.32,7a103.53,103.53,0,0,1-14.35,6.23,148.8,148.8,0,0,0-15,6c-2.26,1-4.43,2.2-6.59,3.43-1,.57-2,1.18-3,1.79l-2.1,1.26c-.92.55-1.82,1.14-2.73,1.71a17,17,0,0,0-3.51,3.11,13.41,13.41,0,0,0-2.88,5.45,17.2,17.2,0,0,0-.72,5.11,36.24,36.24,0,0,1,0,3.9c-.26,2.9-.6,5.78-1,8.68-.63,5-1.37,9.88-2.09,14.82q-2.83,19.44-6,38.82l-.63,3.91c-.73,4.5,3.17,8.71,7.49,9.13a8.35,8.35,0,0,0,6.12-1.85,8.69,8.69,0,0,0,3-5.64c2.16-13.28,4.3-26.56,6.27-39.87q1.23-8.23,2.43-16.5c.34-2.26.68-4.54.92-6.82.14-1.32.3-2.63.36-4s0-2.74.14-4.09l.5-.36q3-1.8,6.06-3.5c2.37-1.3,4.84-2.42,7.31-3.52,2.26-1,4.53-2,6.85-2.89s5-1.7,7.43-2.6c2.63-1,5.17-2,7.7-3.17s4.84-2.38,7.25-3.6,4.65-2.58,6.92-3.94a63,63,0,0,0,17.4-13.32,85.82,85.82,0,0,0,6.9-7.37c1.74-2.09,3.3-4.32,4.85-6.56a39.59,39.59,0,0,0,4.53-8.37,55,55,0,0,0,2-6.9c.77-3.12,1.53-6.31,2-9.5a48.89,48.89,0,0,0,.64-6c0-1.55,0-3.09,0-4.64,0-3.41-.23-6.79-.56-10.18a72.48,72.48,0,0,0-1.35-7.58,97.37,97.37,0,0,0-2.79-9.74c-.76-2.39-1.58-4.78-2.57-7.1a60.63,60.63,0,0,0-4.43-8.54c-1.53-2.44-3.11-4.84-4.78-7.19s-3.24-4.45-5-6.54a55.07,55.07,0,0,0-7.33-6.74c-3.92-3.13-7.9-6.24-11.91-9.27a48.35,48.35,0,0,0-9.85-5.82c-3-1.28-6-2.39-9-3.48a64.2,64.2,0,0,0-9.47-2.54c-.65-.13-1.29-.24-1.94-.35Zm52.74,80.53c0,.12,0,.25,0,.37,0-.12,0-.25,0-.37Zm-70.4,91.12-.43.8c.13-.28.28-.54.43-.8Zm70.47-89v0Z" transform="translate(-74.25 -164.61)"/></g><g id="Zeichnungseb.-6" data-name="Zeichnungseb."><path d="M1669.69,648.7c-.28-.22-.5-.38-.78-.57-.9-.59-1.8-1.21-2.73-1.76-2.26-1.34-4.53-2.65-6.81-4-3.77-2.15-7.57-4.25-11.43-6.23-4.3-2.21-8.58-4.42-12.93-6.52l-4.53-2.62c-3.25-1.87-6.6-3.54-9.94-5.25l-4.53-2.31c-1.81-.92-3.7-1.74-5.58-2.52a30.06,30.06,0,0,0-7.93-2,7.59,7.59,0,0,0-7.75,5,7.34,7.34,0,0,0-.37,1.67,6.69,6.69,0,0,0-1.25,1.35,6.79,6.79,0,0,0-1.1,5,6.53,6.53,0,0,0,2.78,4.32c3.32,2,6.9,3.53,10.38,5.21,2,.94,3.89,1.9,5.84,2.85q5.64,2.76,11.28,5.48,4.31,2.09,8.63,4.12,6.84,4,13.58,8.24a7.18,7.18,0,0,0,7.14.46l.15,0,.44-.09.49.3,3.75,2.27c1.23.74,2.49,1.44,3.68,2.25a8.49,8.49,0,0,0,10.09,2.25,8.42,8.42,0,0,0,3.4-2.86,8.21,8.21,0,0,0,1.39-6.35q-.37-1.34-.81-2.64a13.9,13.9,0,0,0-1.85-2.74,13.67,13.67,0,0,0-1.54-1.47l-1.16-.94Zm-10.24,13.89a2.39,2.39,0,0,1,.23.22l-.23-.22Z" transform="translate(-74.25 -164.61)"/><path d="M1666.25,658.68a9.54,9.54,0,0,0-2.18-1.11l-2.37-.5a8.85,8.85,0,0,0-1.63,0,7.18,7.18,0,0,0-4.32-1.89,6.88,6.88,0,0,0-5.17,1.64l-3.13,3.39a22.7,22.7,0,0,0-3.65,3.68c-.65.72-1.3,1.44-1.93,2.18l-2.37,2.74q-22.76,24.61-45.45,49.3-1.87,1.86-3.76,3.71c-8,7.79-15.84,15.72-23.72,23.63-1.38,1.39-2.76,2.77-4.09,4.22l.06-.07c.1-.11.2-.21.29-.32l-.27.3c.13-.15.26-.29.4-.43l.08-.09c-.44.47-.83.85-1.16,1.26s-.74.82-1.12,1.22l-2.68,2.93-.13.14.1-.1-.27.29-.9,1,.34-.36-1.94,2.11-1.47,1.61.39-.43-.51.56c-9.36,9.63-18.59,19.4-28.07,28.92q-11.77,11.84-23.74,23.47c-4,3.86-7.88,7.78-11.81,11.68-3.41,3.37-6.9,6.65-10.37,10-3.09,3-6.19,5.88-9.35,8.76-6,5.47-12.4,10.75-17.59,17.06a8.54,8.54,0,0,0-1.52,4.24,8.62,8.62,0,0,0,4,8,8.38,8.38,0,0,0,1.21,1.94,8.58,8.58,0,0,0,3.7,2.58c3.29,1.51,6.83.2,9.49-1.87a11.11,11.11,0,0,0,1-.92,9,9,0,0,0,1.94-1.21c2.82-3,5.66-6,8.51-9.06l3.6-3.79c1.42-1.5,3-2.91,4.45-4.43a7.54,7.54,0,0,0,2.37-1.26c2.93-2.3,5.21-5.33,7.66-8.12q2.17-2.44,4.33-4.91l2-2.25,4-3.76c2.73-2.55,5.44-5.13,8.19-7.65,6.7-6.14,13.45-12.21,20-18.47a7.66,7.66,0,0,0,2.35-3.85l4.53-4.48c7.78-7.7,15.37-15.55,23-23.41,6.42-6.61,12.64-13.41,18.94-20.13l3.77-4c6.73-6.29,13.48-12.57,20-19.06,3.82-3.77,7.66-7.5,11.4-11.34s7.34-7.72,11-11.59,7.66-7.81,11.26-11.92c.21-.24.42-.47.62-.71,5.62-5.5,11.35-10.91,16.71-16.66.79-.85,1.58-1.71,2.36-2.58a38.77,38.77,0,0,0,4.61-5.06,12.85,12.85,0,0,0,2.11-5.76.57.57,0,0,1,0-.13,8.06,8.06,0,0,0-1.64-6.78,8.51,8.51,0,0,0-1-1,7.51,7.51,0,0,0-1.55-1Zm-103.72,91-.08.09-.07.08.15-.17Zm-3.56,3.9-.5.54c.17-.18.33-.37.5-.54Zm-2.82,3.07-.38.42.38-.42Zm-3.06,3.34-.4.44-.18.2h0l.15-.16-.5.54.61-.66.12-.14-.08.09.28-.31Zm-2.07,2.27-.21.22-.21.23.07-.08.35-.37Zm-1.29,1.4-.33.36-.06.07,0,0,0,0h0l0,0,0,0-.12.14.06-.06c-.23.24-.45.49-.68.74l.48-.53h0l0,0-.11.12a1.07,1.07,0,0,1-.14.16l1-1Zm-.31.34-.06.07,0,0,0,0Zm-.52.57c-.24.27-.49.53-.73.79.24-.26.49-.52.73-.79ZM1479.76,864l-.43.47.42-.46Zm-3.44,3.75-.46.51.16-.18.3-.33Zm-2.21,2.42h0l-.46.5c.16-.16.31-.33.46-.5ZM1549,764.41h0l.14-.15-.14.15Zm0,0,.27-.29,0,0-.31.33Zm3.74-4.07-.11.12,0,0,.12-.13,0,0Zm1.43-1.57.38-.42-.38.42Zm8.76-9.56a1.59,1.59,0,0,1-.13.13l.22-.23-.09.1Zm.11-.13,0,0,0,0Zm0,0,0-.06,0,.06Zm0,0,0,0,.46-.5-.49.54Z" transform="translate(-74.25 -164.61)"/><path d="M1662.05,652.57c-.91-.6-1.86-1.15-2.79-1.74-2.3-1.45-4.59-2.93-6.87-4.41l-12.51-8.11c-10.19-6.61-20.52-13-30.87-19.38l-3.79-2.34a9,9,0,0,0-6.45-1.41,8.71,8.71,0,0,0-5.56,3.57c-2.57,3.7-1.85,9.54,2.16,12,10.94,6.75,21.91,13.49,32.69,20.5l14,9.13c1.82,1.19,3.65,2.38,5.49,3.52,1.07.66,2.12,1.33,3.21,2a25,25,0,0,0,5,2.47,10.66,10.66,0,0,0,4.92.38c4.15-.44,7.4-5.24,6.43-9.25a8.43,8.43,0,0,0-.84-2.46,10.07,10.07,0,0,0-2.94-3.46l0,0a13.84,13.84,0,0,0-1.33-.94Z" transform="translate(-74.25 -164.61)"/><path d="M1540.16,739.15a9,9,0,0,0-8,10l.57,2.27a9.11,9.11,0,0,0,2.88,3.86,47.45,47.45,0,0,0,3.71,3.09c1.71,1.25,3.5,2.38,5.26,3.54,1.3.85,2.62,1.69,3.94,2.54,2.42,1.55,4.85,3.1,7.25,4.69,5.56,3.65,11.08,7.35,16.63,11a10.12,10.12,0,0,0,6.8,1.94c1.12.67,2.26,1.31,3.43,1.92l.49.19c1.93,1.23,3.86,2.46,5.77,3.71a9.92,9.92,0,0,0,6.78,1.89,9.33,9.33,0,0,0,4.64-16.65c-3.64-2.67-7.42-5.17-11.18-7.66s-7.24-4.8-10.88-7.19l-1.63-1.24c-2.84-2.13-5.64-4.32-8.57-6.34l-6.41-4.4c-2.08-1.43-4.19-2.73-6.35-4l-1.39-.81a6.13,6.13,0,0,0-3.11-.45l-.21,0c-.73-.41-1.47-.81-2.21-1.19a9.82,9.82,0,0,0-5-.71l-.41,0a9,9,0,0,0-1.8-.18,9.24,9.24,0,0,0-1,.06Z" transform="translate(-74.25 -164.61)"/></g></svg>