<?xml version="1.0" standalone="no"?>
<!DOCTYPE svg PUBLIC "-//W3C//DTD SVG 20010904//EN"
 "http://www.w3.org/TR/2001/REC-SVG-20010904/DTD/svg10.dtd">
<svg version="1.0" xmlns="http://www.w3.org/2000/svg"
 width="912.000000pt" height="1144.000000pt" viewBox="0 0 912.000000 1144.000000"
 preserveAspectRatio="xMidYMid meet">

<g transform="translate(0.000000,1144.000000) scale(0.100000,-0.100000)"
fill="#000000" stroke="none">
<path d="M4353 8583 c-22 -27 -46 -58 -54 -70 -18 -29 -22 -29 -75 8 -50 34
-63 32 -46 -6 6 -13 7 -27 2 -30 -4 -3 -42 -8 -84 -12 -81 -6 -92 -16 -56 -48
21 -19 21 -19 -32 -52 -28 -18 -60 -33 -70 -33 -26 0 -22 -12 11 -44 24 -23
29 -35 24 -57 -3 -16 -2 -45 1 -64 6 -29 10 -34 21 -25 15 13 18 9 35 -43 6
-20 34 -60 61 -88 48 -50 49 -52 32 -71 -12 -13 -24 -17 -41 -13 -17 4 -32 0
-46 -13 -11 -10 -40 -24 -63 -30 -90 -26 -280 -199 -413 -375 -38 -51 -78
-103 -90 -117 -13 -16 -18 -33 -15 -48 3 -12 1 -31 -5 -43 -17 -30 -15 -168 2
-209 33 -77 150 -189 226 -216 43 -15 50 -22 72 -73 13 -31 43 -90 66 -131
l42 -75 -23 -20 c-13 -11 -55 -57 -94 -102 -40 -46 -83 -86 -96 -89 -14 -3
-25 -12 -25 -20 0 -16 -26 -19 -35 -4 -9 15 -58 12 -83 -6 -30 -21 -29 -58 9
-262 45 -249 65 -305 107 -300 42 5 55 60 49 208 l-5 125 33 32 c32 31 34 32
47 13 12 -19 17 -16 92 53 105 96 274 290 283 325 6 24 -5 136 -24 246 l-6 39
33 -6 c18 -4 71 -7 119 -7 47 0 92 -4 99 -8 10 -7 7 -24 -14 -83 -37 -102 -93
-229 -115 -261 -23 -32 -24 -48 -4 -48 8 0 15 -3 15 -7 -1 -26 -39 -113 -58
-133 -12 -13 -29 -43 -38 -67 -19 -50 -11 -67 36 -77 l30 -6 -49 -60 c-73 -92
-83 -156 -32 -208 l28 -28 -58 -88 c-64 -96 -88 -152 -125 -291 -42 -156 -31
-225 65 -410 80 -156 204 -340 274 -408 138 -133 351 -261 545 -326 162 -55
302 -15 604 172 183 113 253 197 297 358 43 153 23 432 -49 720 -40 157 -68
233 -137 364 -92 176 -138 211 -367 284 -93 30 -146 41 -190 41 l-62 0 1 59
c0 49 -4 64 -24 85 -36 39 -89 49 -174 36 -101 -15 -182 -44 -266 -94 -52 -31
-80 -42 -98 -38 -23 4 -24 6 -10 17 19 13 23 35 7 35 -5 0 -10 11 -10 24 0 18
8 25 32 32 27 8 34 16 39 44 3 19 45 125 92 236 128 295 126 307 -88 379 -71
24 -177 53 -235 66 -58 12 -107 24 -109 25 -2 2 1 10 8 17 6 8 8 27 5 44 -8
43 46 168 107 244 27 34 49 67 49 74 0 15 151 29 215 19 41 -6 45 -4 56 19 12
27 42 37 209 68 36 6 70 17 77 23 23 21 54 122 74 236 17 100 23 119 49 145
18 19 30 42 30 58 0 17 12 40 30 59 17 17 28 38 25 46 -3 7 -5 17 -5 22 0 5
-9 12 -20 15 -11 3 -20 11 -20 16 0 24 -62 59 -108 60 l-27 0 25 10 c20 8 22
12 10 19 -8 5 -23 10 -33 10 -9 0 -60 16 -113 36 l-95 37 26 27 26 27 -23 7
c-13 4 -81 9 -151 13 l-129 6 7 36 c3 20 8 44 11 54 9 30 -12 18 -53 -30z
m446 -290 c-1 -10 -5 -29 -9 -43 l-8 -25 -1 27 c-1 15 -6 30 -11 33 -13 8 -3
25 16 25 8 0 14 -8 13 -17z m48 -31 c-8 -32 -8 -45 1 -54 9 -9 12 -7 12 9 0
34 21 83 36 83 17 0 17 2 -1 -51 -10 -27 -12 -46 -6 -52 6 -6 14 5 20 31 13
46 41 77 41 45 0 -10 -9 -35 -19 -56 -22 -43 -10 -49 23 -10 13 15 28 23 35
19 8 -5 4 -16 -14 -38 -14 -16 -25 -38 -25 -49 0 -27 -26 -76 -46 -87 -11 -6
-25 -47 -40 -116 -13 -59 -34 -137 -48 -174 l-24 -67 -112 -22 c-63 -13 -115
-22 -116 -20 -7 7 18 92 29 99 7 4 30 8 52 8 l40 1 62 127 c81 168 80 165 43
192 -30 21 -73 94 -62 104 11 11 32 6 32 -8 0 -7 7 -19 15 -26 13 -11 15 -8
15 13 0 14 4 28 9 31 5 4 12 24 16 46 6 35 31 77 40 68 2 -2 -2 -22 -8 -46z
m-290 -29 c78 -27 115 -44 119 -56 3 -11 12 -16 20 -13 9 3 14 -1 14 -14 0
-10 16 -39 35 -64 19 -26 35 -51 35 -57 0 -6 -27 -62 -60 -125 l-61 -113 -45
-7 c-25 -3 -55 -2 -67 3 l-22 10 24 8 c59 19 109 101 127 212 18 116 18 118
-12 132 -22 10 -28 9 -39 -6 -15 -21 -34 -107 -32 -148 2 -27 -1 -30 -28 -30
-16 -1 -28 -5 -25 -10 8 -15 53 -6 68 12 6 9 12 37 12 62 0 60 9 91 26 91 17
0 17 -5 0 -101 -16 -86 -32 -122 -73 -161 -58 -55 -113 -61 -211 -22 -79 31
-127 65 -153 108 -24 40 -24 57 1 63 11 3 17 10 14 15 -3 5 -17 7 -30 4 -55
-14 -98 81 -57 126 28 31 59 23 93 -27 31 -45 31 -45 55 -28 32 24 55 82 55
140 l0 46 52 -6 c29 -4 103 -24 165 -44z m-342 -353 c38 -39 45 -50 30 -50
-22 0 -95 67 -95 87 0 23 14 14 65 -37z m-83 -6 c27 -20 47 -39 44 -41 -10
-10 -101 42 -104 60 -5 24 4 22 60 -19z m-92 -14 c7 -13 36 -27 83 -41 39 -12
83 -28 96 -36 16 -10 73 -18 175 -25 83 -5 152 -11 153 -12 4 -4 -24 -106 -30
-112 -17 -18 -141 -35 -294 -40 -95 -4 -173 -11 -173 -15 0 -10 41 -18 107
-21 29 -2 53 -4 53 -6 0 -15 -36 -81 -68 -124 -45 -61 -96 -108 -161 -149
l-44 -28 32 4 c18 2 45 6 60 10 25 5 29 3 33 -20 6 -31 -15 -48 -83 -66 -95
-25 -282 29 -426 123 -35 22 -63 45 -63 50 0 19 108 159 239 311 71 83 193
178 263 207 33 13 36 12 48 -10z m339 -61 l36 -18 -31 -1 c-50 0 -94 11 -94
25 0 28 25 26 89 -6z m491 -1404 c24 -13 30 -22 30 -50 0 -26 -13 -50 -61
-109 -72 -90 -110 -124 -238 -210 -112 -76 -236 -126 -311 -126 -27 0 -74 9
-105 21 -47 18 -55 24 -55 46 0 29 46 106 85 143 15 14 39 25 58 26 18 1 66 9
107 18 152 32 230 65 230 94 0 32 -22 42 -89 42 -62 1 -65 2 -46 16 65 50 222
102 313 103 29 1 66 -6 82 -14z m315 -220 c86 -20 178 -68 225 -116 19 -19 64
-93 99 -163 52 -102 66 -139 69 -184 4 -59 -9 -92 -91 -233 -16 -27 -35 -85
-47 -147 -35 -172 -51 -204 -161 -312 -53 -52 -104 -109 -113 -127 -19 -38
-75 -72 -166 -102 -78 -25 -197 -93 -260 -148 -87 -77 -170 -132 -188 -126
-37 14 -193 127 -231 168 -49 53 -67 87 -124 240 -25 66 -49 128 -53 139 -7
17 -4 18 37 12 24 -3 108 -13 185 -20 l142 -14 106 -56 c83 -44 116 -56 151
-56 56 0 59 16 4 25 -25 4 -72 28 -121 62 -95 65 -128 77 -275 97 -230 33
-316 60 -350 113 -19 29 -20 68 -5 236 11 119 31 163 114 261 37 43 43 46 87
46 186 0 372 96 589 302 130 125 140 130 232 125 41 -3 107 -12 145 -22z"/>
<path d="M4443 8185 c-24 -17 -33 -42 -10 -28 6 4 30 10 52 13 22 3 40 10 40
15 0 17 -59 17 -82 0z"/>
<path d="M4160 8135 c-7 -9 -10 -18 -6 -22 3 -3 6 -1 6 5 0 22 20 12 26 -13 8
-31 24 -33 24 -2 0 22 -16 47 -31 47 -4 0 -12 -7 -19 -15z"/>
<path d="M4490 8071 c-13 -25 -13 -61 0 -61 13 0 41 61 34 72 -9 14 -23 9 -34
-11z"/>
<path d="M4400 7975 c0 -25 30 -72 55 -85 26 -14 67 -10 73 8 2 8 -8 12 -30
12 -34 0 -78 32 -78 58 0 6 -4 14 -10 17 -5 3 -10 -1 -10 -10z"/>
<path d="M4990 5583 c-36 -27 -94 -63 -130 -79 -64 -30 -135 -82 -126 -91 3
-3 33 4 68 15 35 11 85 26 111 32 28 8 61 26 78 43 33 32 72 103 67 119 -2 6
-33 -12 -68 -39z"/>
<path d="M4720 5150 c0 -5 5 -10 11 -10 5 0 7 5 4 10 -3 6 -8 10 -11 10 -2 0
-4 -4 -4 -10z"/>
<path d="M6675 7080 c-56 -11 -350 -156 -466 -229 -112 -71 -180 -139 -293
-296 -91 -127 -96 -137 -130 -271 -31 -122 -41 -254 -28 -358 8 -62 7 -102 -5
-180 -24 -162 -7 -226 94 -351 57 -70 111 -103 182 -112 l51 -6 -38 -28 c-20
-16 -43 -29 -49 -29 -7 0 -13 -6 -13 -14 0 -8 -7 -16 -15 -20 -8 -3 -15 -12
-15 -21 0 -8 -11 -20 -25 -25 -16 -6 -23 -14 -19 -25 4 -8 -4 -36 -15 -61 -50
-106 -47 -205 9 -316 42 -81 62 -110 155 -218 195 -228 280 -339 333 -438 l42
-79 -57 -74 c-31 -41 -81 -103 -112 -139 -30 -36 -61 -73 -70 -83 -11 -13 -12
-20 -3 -29 18 -18 15 -23 -24 -53 -31 -24 -40 -26 -56 -16 -38 24 -219 -93
-218 -142 1 -18 36 -94 61 -128 11 -16 29 -29 40 -29 11 0 19 -7 19 -16 0 -31
71 -150 121 -202 62 -64 109 -95 188 -122 100 -33 212 -24 267 24 23 19 26 27
20 59 -8 41 -55 87 -89 87 -31 0 -206 117 -220 147 -9 20 -7 31 8 59 17 32 17
35 1 53 -16 18 -15 21 39 66 l56 48 52 -26 c78 -38 121 -51 149 -44 25 7 81
75 204 252 26 39 70 95 96 125 59 69 78 114 78 183 0 59 -17 96 -93 204 -26
37 -78 115 -114 173 -37 58 -95 143 -130 190 -61 83 -62 85 -38 88 19 3 32 17
55 60 40 78 49 87 180 187 63 49 177 142 252 206 l137 118 21 -34 c26 -42 103
-111 152 -136 76 -39 141 -13 193 76 26 43 75 248 90 378 7 51 10 58 34 63
104 22 262 72 346 109 55 23 125 51 157 60 31 10 87 39 125 65 79 54 118 111
158 230 25 75 25 78 9 126 -24 72 -90 202 -129 256 -19 26 -60 66 -91 89 -67
49 -308 167 -444 216 -52 19 -108 43 -125 53 -16 10 -103 57 -193 104 -177 94
-228 111 -549 176 -147 30 -232 35 -308 20z m289 -56 c262 -47 303 -60 481
-149 94 -46 197 -101 230 -122 34 -21 99 -51 145 -67 256 -85 465 -206 532
-306 48 -72 110 -214 115 -265 8 -81 -33 -115 -200 -171 -62 -20 -123 -43
-137 -50 -32 -16 -202 -87 -287 -119 -44 -17 -86 -25 -128 -25 -91 0 -118 22
-180 145 -45 90 -55 102 -95 123 -24 12 -60 22 -80 22 l-35 0 -2 84 c-2 54 3
99 12 125 12 34 12 47 1 78 -12 35 -17 38 -50 38 -28 0 -39 5 -49 24 -18 36
-41 47 -69 34 -13 -7 -32 -13 -43 -15 -11 -2 -24 -13 -30 -25 -5 -12 -18 -23
-29 -25 -15 -2 -23 -15 -30 -43 -5 -22 -16 -45 -25 -52 -15 -10 -14 -17 2 -80
10 -37 29 -89 42 -115 l25 -47 -33 -24 c-57 -43 -87 -60 -112 -62 -13 -2 -79
-34 -147 -72 -68 -38 -136 -75 -153 -82 -16 -7 -100 -50 -185 -96 -85 -46
-168 -87 -185 -90 -16 -4 -75 -21 -130 -37 -123 -38 -184 -40 -244 -9 -73 38
-91 62 -91 123 1 29 5 73 11 98 6 25 14 149 19 275 7 203 11 240 34 313 25 81
70 166 130 247 38 51 154 153 209 184 23 13 83 48 133 77 49 29 103 56 120 60
48 11 174 65 174 75 0 12 35 29 83 39 50 11 129 6 251 -16z m191 -717 c2 -37
7 -72 11 -78 12 -20 24 13 24 68 0 28 5 55 11 59 21 12 33 -16 30 -71 -3 -65
13 -74 29 -15 12 46 26 58 46 39 11 -12 11 -22 -2 -64 -11 -36 -13 -70 -9
-120 7 -69 6 -70 -31 -120 -62 -83 -194 -233 -319 -362 -64 -68 -114 -123
-111 -123 16 0 63 30 85 54 14 14 28 26 33 26 13 0 9 -122 -5 -149 -30 -59
-140 -112 -201 -97 -42 11 -114 83 -126 127 -11 39 1 154 20 188 15 29 54 58
170 128 115 68 250 159 299 200 l26 21 -21 24 c-37 40 -81 150 -54 133 8 -5
10 16 4 75 -8 97 7 103 25 10 7 -33 16 -60 21 -60 5 0 9 35 8 78 -1 43 2 84 6
91 16 25 27 4 31 -62z m487 -742 c3 -3 -1 -45 -9 -93 -40 -258 -73 -348 -139
-380 -34 -16 -37 -15 -78 6 -24 13 -62 43 -86 67 l-42 43 27 36 c15 20 30 36
34 36 3 0 19 11 34 25 l27 26 0 -46 c0 -25 5 -45 10 -45 6 0 10 2 10 4 0 35
30 130 66 211 l47 104 41 4 c23 2 44 4 47 5 3 1 8 0 11 -3z m-1692 -544 c0
-22 148 -165 213 -205 81 -50 263 -131 319 -141 34 -7 47 -20 140 -149 152
-207 299 -440 310 -488 16 -75 3 -107 -100 -247 -53 -72 -119 -163 -146 -201
-41 -58 -53 -69 -70 -64 -38 11 -160 66 -194 86 l-33 20 121 119 c67 65 125
119 128 119 4 0 25 -12 47 -25 40 -25 75 -33 75 -17 0 12 -41 47 -75 65 -26
13 -30 21 -30 58 0 41 -2 44 -49 68 -44 23 -54 36 -96 116 -55 107 -166 282
-242 386 -70 95 -126 182 -144 225 l-14 34 50 -30 c58 -34 131 -55 157 -45 15
5 16 8 3 14 -8 5 -33 12 -54 16 -52 9 -136 51 -162 82 -11 13 -23 20 -27 17
-23 -24 17 -106 137 -282 39 -57 87 -127 106 -155 60 -88 126 -199 159 -267
l32 -65 -48 50 c-26 28 -97 109 -158 180 -60 71 -149 173 -197 227 -96 108
-132 157 -174 238 -25 47 -29 66 -28 135 0 79 14 135 34 135 5 0 10 -4 10 -9z
m669 -1078 c13 -29 10 -29 -39 2 -36 23 -40 23 -49 7 -16 -27 -13 -4 4 29 l16
30 29 -23 c15 -13 33 -33 39 -45z m-39 -34 l35 -18 -122 -120 c-67 -67 -126
-121 -131 -121 -11 0 -102 69 -102 77 0 12 175 196 194 203 27 11 82 2 126
-21z m-281 -263 c25 -18 106 -63 179 -100 83 -41 124 -66 109 -66 -54 0 -314
141 -300 163 4 6 0 8 -9 4 -15 -5 -38 9 -38 25 0 14 11 9 59 -26z"/>
<path d="M6870 6479 c-219 -76 -282 -97 -315 -105 l-30 -7 25 -7 c14 -5 52 -8
86 -9 58 -1 66 2 150 56 49 31 119 68 156 83 58 23 92 40 77 40 -2 0 -69 -23
-149 -51z"/>
<path d="M6150 6266 c-64 -14 -113 -37 -155 -71 -26 -22 -28 -25 -10 -25 39 0
137 30 167 51 16 12 51 30 76 40 l47 18 -35 0 c-19 -1 -60 -7 -90 -13z"/>
<path d="M6639 6231 c-93 -17 -151 -41 -209 -90 l-25 -20 60 14 c33 8 89 20
125 26 65 12 108 29 165 68 30 21 30 21 5 20 -14 -1 -68 -9 -121 -18z"/>
<path d="M2061 6128 l4 -81 -34 -12 c-18 -6 -40 -20 -48 -30 -14 -20 -15 -19
-36 6 -57 69 -138 82 -343 54 -166 -22 -191 -33 -341 -158 -180 -151 -220
-211 -230 -349 -3 -46 -12 -90 -19 -98 -7 -8 -30 -51 -51 -95 -29 -63 -37 -92
-38 -137 0 -51 3 -61 30 -88 17 -17 57 -41 88 -54 l57 -23 -98 -85 c-54 -48
-112 -94 -129 -105 -16 -10 -28 -24 -25 -31 2 -8 -10 -29 -28 -47 -17 -18 -30
-39 -29 -46 1 -8 -3 -27 -10 -44 -58 -141 -21 -252 150 -449 200 -229 281
-340 318 -437 9 -25 3 -31 -114 -128 -68 -55 -130 -101 -138 -101 -23 0 -39
-27 -32 -51 10 -30 -41 -72 -68 -57 -21 11 -111 -28 -142 -62 -24 -27 -13 -76
29 -131 18 -24 50 -80 70 -123 69 -151 164 -233 258 -224 34 4 48 1 48 -7 0
-25 32 -38 118 -51 48 -7 113 -17 146 -23 48 -8 77 -7 157 9 54 10 119 28 144
39 38 17 45 24 45 49 0 18 -10 37 -25 52 -23 22 -34 24 -128 24 -94 1 -106 3
-149 29 -51 31 -57 46 -33 87 8 14 21 40 30 58 14 30 18 32 68 32 l52 0 94
168 c51 92 108 188 126 214 67 96 56 188 -35 301 -31 40 -109 144 -173 232
-65 88 -126 172 -138 188 l-21 27 26 0 c22 0 30 9 50 54 29 66 81 124 201 224
50 42 132 116 182 166 51 49 94 88 96 85 2 -2 18 -25 36 -51 18 -27 37 -48 44
-48 7 0 43 -34 81 -75 85 -94 148 -129 218 -123 59 6 81 25 121 103 30 60 30
61 42 309 l11 249 36 31 c63 54 78 90 78 185 0 66 -4 89 -17 104 -17 19 -17
20 5 34 29 20 28 29 -12 73 -30 33 -35 47 -40 107 -4 37 -11 83 -16 102 -10
37 1 61 26 61 21 0 17 17 -10 37 l-23 18 41 18 c36 17 39 20 21 27 -11 5 -30
9 -43 9 -13 1 -22 4 -20 9 2 4 10 19 17 35 8 15 12 30 9 33 -4 3 -27 -2 -52
-10 -71 -24 -194 -16 -230 16 -17 14 -80 8 -125 -12 -24 -11 -47 -20 -52 -20
-4 0 -20 20 -35 45 -14 25 -30 45 -36 45 -6 0 -9 -31 -7 -82z m-204 -89 c38
-14 77 -53 125 -123 54 -78 60 -127 25 -198 -26 -54 -162 -222 -233 -290 -64
-60 -315 -188 -370 -188 -14 0 -35 6 -47 12 -12 7 -66 15 -119 18 -85 5 -100
9 -123 30 -38 36 -48 82 -44 221 4 113 6 128 31 170 45 76 254 261 346 305 18
8 72 19 120 25 48 5 107 13 132 18 64 13 124 13 157 0z m689 -124 c9 -14 19
-60 24 -112 9 -103 13 -116 47 -138 35 -23 17 -37 -46 -37 -28 0 -54 -4 -56
-9 -3 -4 -12 -6 -20 -3 -30 12 -52 -16 -84 -104 l-31 -89 -50 25 c-27 13 -56
22 -64 19 -9 -4 -32 -29 -52 -57 -20 -27 -40 -48 -45 -45 -11 7 -39 101 -39
130 0 17 16 30 77 60 68 34 75 40 58 49 -44 25 -65 55 -65 91 0 103 77 100
120 -5 14 -34 31 -38 51 -13 10 11 14 44 13 115 -1 54 2 98 7 98 5 0 4 11 -1
25 l-10 25 75 0 c68 0 76 -2 91 -25z m-446 -296 l30 -59 -25 -6 c-45 -11 -105
13 -105 42 0 23 50 95 61 89 5 -4 23 -33 39 -66z m436 -95 c-8 -86 8 -96 19
-11 4 28 11 61 15 72 15 39 24 -13 11 -67 -13 -60 -14 -81 -2 -73 5 3 15 30
22 60 7 30 16 55 21 55 11 0 10 -22 -4 -75 -12 -45 -5 -72 12 -45 8 13 10 12
10 -3 0 -28 -18 -57 -70 -113 -56 -59 -56 -58 -69 -366 l-9 -187 -36 -59 c-38
-63 -50 -72 -97 -72 -61 0 -132 55 -219 169 l-34 44 67 63 67 64 50 -55 c28
-30 50 -60 50 -65 0 -6 4 -10 10 -10 5 0 7 13 4 28 -4 18 6 71 25 138 46 161
53 239 31 311 -11 32 -19 50 -19 41 -1 -26 -15 -22 -73 20 -47 33 -50 37 -29
40 13 2 36 -6 52 -17 15 -12 35 -21 42 -21 15 0 35 45 62 143 22 78 39 74 33
-8 -3 -36 -2 -67 2 -70 10 -6 17 12 25 71 9 64 12 74 26 74 9 0 10 -21 5 -76z
m-230 -164 c16 -16 41 -35 56 -41 15 -6 28 -17 28 -25 0 -21 -27 -94 -66 -178
l-36 -78 -39 38 c-22 22 -56 63 -75 92 l-35 52 20 26 c12 15 21 35 21 44 0 10
13 23 30 30 24 10 30 19 30 41 0 39 29 39 66 -1z m-1281 -866 c88 -49 227
-102 289 -109 29 -4 57 -10 62 -13 13 -10 150 -184 209 -266 28 -38 82 -112
122 -166 82 -110 93 -133 93 -196 0 -46 -20 -94 -69 -168 -14 -22 -51 -85 -81
-140 l-55 -101 -53 1 c-76 2 -142 14 -142 25 0 5 29 70 64 144 l65 135 50 0
c39 0 51 4 51 15 0 11 -11 15 -39 15 l-39 0 9 38 c7 30 5 39 -8 50 -9 6 -22
12 -29 12 -14 0 -74 69 -74 85 0 22 -120 207 -221 339 -57 76 -112 148 -121
160 l-17 22 72 -18 c75 -19 117 -17 117 6 0 9 -22 15 -73 19 -91 7 -144 27
-149 58 -5 34 -28 36 -28 2 0 -34 3 -39 137 -210 114 -146 193 -264 247 -369
44 -85 53 -97 93 -118 30 -15 31 -18 21 -41 -6 -14 -16 -25 -22 -24 -21 1 -51
16 -51 25 -2 31 -117 174 -265 329 -204 213 -323 352 -356 417 -33 64 -43 158
-20 193 l16 25 67 -70 c38 -41 92 -85 128 -106z m473 -854 c-2 -4 -32 -69 -67
-144 -69 -147 -61 -140 -129 -115 -29 11 -27 20 44 159 l53 105 51 2 c28 0 50
-2 48 -7z m-273 -309 c3 -10 16 -22 29 -25 21 -5 22 -9 16 -49 -7 -51 -16 -67
-36 -67 -9 0 -14 -11 -14 -35 0 -38 -27 -115 -40 -115 -5 0 -14 16 -20 35 -7
21 -24 42 -45 55 -52 32 -75 70 -75 126 0 70 46 110 80 69 17 -20 33 -19 61 5
30 24 36 25 44 1z m126 -1 c39 -10 98 -22 132 -26 88 -9 110 -27 26 -20 -84 6
-201 33 -225 51 -25 19 -16 18 67 -5z"/>
<path d="M1571 5639 c-18 -11 -31 -22 -28 -25 6 -7 63 22 72 36 10 16 -7 12
-44 -11z"/>
<path d="M1246 5590 c-52 -21 -74 -36 -64 -46 12 -12 63 7 98 37 40 34 34 35
-34 9z"/>
<path d="M2488 5873 c-9 -10 -21 -29 -28 -41 -11 -22 -10 -23 12 -16 12 4 35
7 50 6 26 -2 26 -1 17 30 -5 18 -9 34 -9 35 0 10 -30 0 -42 -14z"/>
<path d="M2500 5739 c0 -36 3 -50 10 -43 15 15 17 86 3 91 -9 3 -13 -10 -13
-48z"/>
<path d="M2240 5718 c0 -19 2 -20 11 -8 8 11 9 8 5 -17 -4 -23 -1 -33 11 -37
12 -5 14 -1 10 14 -3 11 -1 18 4 14 13 -8 11 30 -3 44 -19 19 -38 14 -38 -10z"/>
<path d="M3890 4030 c-75 -7 -108 -23 -205 -94 -38 -29 -110 -79 -158 -111
-172 -114 -257 -228 -257 -343 0 -111 62 -333 114 -412 35 -54 151 -109 331
-157 l140 -38 250 0 c270 1 388 14 553 61 100 29 142 50 209 103 40 31 55 51
68 90 l17 51 271 3 c150 1 373 0 497 -2 124 -2 223 -1 220 2 -15 16 -422 40
-688 41 l-294 1 9 65 c17 139 12 186 -36 294 -54 121 -80 151 -194 228 -121
82 -195 114 -313 139 -54 11 -155 33 -224 49 -139 32 -213 39 -310 30z m230
-71 c36 -11 126 -27 200 -35 74 -8 151 -19 170 -26 107 -34 289 -158 340 -233
33 -48 67 -159 76 -251 l7 -62 -79 -79 c-44 -43 -110 -111 -149 -152 -71 -74
-125 -108 -224 -142 -78 -27 -134 -24 -261 16 -103 32 -122 35 -236 35 -69 0
-134 5 -145 10 -10 6 -33 39 -50 73 -18 34 -45 81 -61 105 -17 24 -28 45 -26
46 10 9 150 38 233 48 90 11 102 11 185 -11 61 -16 94 -20 105 -13 20 11 14
16 -35 30 -19 6 -62 22 -95 36 -85 36 -143 40 -284 22 -160 -21 -226 -20 -300
3 -71 22 -147 64 -160 90 -14 26 2 77 47 147 50 77 120 140 188 170 32 14 77
47 109 79 88 88 151 112 295 114 60 0 104 -5 150 -20z"/>
</g>
</svg>
