<?xml version="1.0" standalone="no"?>
<!DOCTYPE svg PUBLIC "-//W3C//DTD SVG 20010904//EN"
 "http://www.w3.org/TR/2001/REC-SVG-20010904/DTD/svg10.dtd">
<svg version="1.0" xmlns="http://www.w3.org/2000/svg"
 width="1024.000000pt" height="1024.000000pt" viewBox="0 0 1024.000000 1024.000000"
 preserveAspectRatio="xMidYMid meet">

<g transform="translate(0.000000,1024.000000) scale(0.100000,-0.100000)"
fill="#000000" stroke="none">
<path d="M3760 9710 l0 -250 35 0 34 0 -2 100 c-2 94 -1 101 23 124 33 32 70
41 95 22 18 -13 20 -26 20 -133 l0 -118 30 0 30 0 3 120 c3 98 0 126 -14 152
-32 61 -110 76 -160 32 l-21 -19 5 110 5 110 -42 0 -41 0 0 -250z"/>
<path d="M2610 9939 c0 -2 -1 -109 -3 -237 -2 -201 0 -232 13 -232 8 0 25 -3
37 -6 22 -6 22 -6 25 142 l3 149 28 -70 c15 -38 48 -106 73 -149 l46 -79 24
68 c24 69 28 76 77 134 16 19 35 48 43 65 12 28 13 19 15 -99 2 -71 3 -137 3
-147 0 -11 10 -17 30 -20 l31 -3 2 237 2 238 -35 0 -35 0 -75 -155 c-41 -86
-79 -153 -83 -150 -5 2 -38 64 -75 137 -37 73 -72 141 -79 150 -11 14 -67 37
-67 27z"/>
<path d="M4100 9914 c-20 -52 -6 -84 36 -84 25 0 54 34 54 62 0 20 -36 48 -62
48 -11 0 -23 -11 -28 -26z"/>
<path d="M3184 9771 c-40 -18 -60 -44 -48 -62 8 -13 58 -11 72 3 19 19 75 12
94 -13 10 -11 18 -25 18 -29 0 -4 -28 -10 -61 -14 -134 -14 -187 -91 -115
-169 29 -32 40 -37 79 -37 30 0 53 7 71 21 l27 22 15 -22 c27 -38 81 -18 63
24 -4 11 -8 63 -8 116 -1 83 -4 100 -23 124 -42 54 -113 68 -184 36z m126
-191 c0 -34 -36 -62 -78 -58 -32 3 -37 6 -37 28 0 29 34 50 83 50 25 0 32 -4
32 -20z"/>
<path d="M3540 9779 c-40 -16 -90 -70 -100 -110 -12 -45 0 -111 28 -148 27
-37 91 -71 134 -71 29 0 45 7 73 35 41 42 43 53 10 61 -16 4 -32 0 -50 -14
-31 -24 -53 -20 -94 20 -25 25 -31 38 -31 73 0 36 5 48 31 69 37 32 74 34 90
5 9 -17 17 -20 41 -15 35 7 58 23 58 40 0 13 -120 66 -147 65 -10 0 -29 -5
-43 -10z"/>
<path d="M4102 9626 l3 -161 33 -3 32 -3 0 159 0 160 -35 4 -35 4 2 -160z"/>
<path d="M4350 9765 c-41 -30 -50 -31 -50 -5 0 15 -7 20 -29 20 l-30 0 -3
-132 c-4 -182 -3 -188 36 -188 l31 0 0 99 c0 97 1 101 29 130 34 35 65 39 89
13 14 -15 17 -40 17 -130 0 -83 3 -112 13 -112 6 0 22 -3 35 -6 22 -6 22 -6
22 120 0 142 -10 175 -60 201 -40 21 -61 19 -100 -10z"/>
<path d="M4611 9755 c-53 -48 -75 -97 -67 -148 21 -132 153 -191 256 -116 41
30 42 33 25 45 -26 19 -41 18 -74 -6 -23 -18 -32 -19 -57 -10 -35 14 -74 48
-74 67 0 10 27 13 121 13 l122 0 -6 46 c-9 83 -76 144 -158 144 -42 0 -55 -5
-88 -35z m146 -48 c6 -6 13 -21 15 -32 3 -18 -2 -19 -72 -16 -41 1 -77 5 -79
7 -2 1 11 17 28 35 27 26 37 30 64 25 17 -4 37 -12 44 -19z"/>
<path d="M2515 9150 l0 -230 126 0 c126 0 127 0 133 24 12 49 1 56 -90 56
l-84 0 -2 188 -3 187 -40 3 -40 3 0 -231z"/>
<path d="M4030 9349 c-17 -31 -8 -62 21 -73 41 -14 59 -2 59 38 0 53 -58 78
-80 35z"/>
<path d="M5125 9301 c-51 -23 -95 -85 -95 -132 0 -27 8 -43 35 -69 l35 -34 0
-150 c0 -83 -5 -202 -10 -265 -10 -125 -5 -147 36 -157 18 -5 32 0 49 16 l24
22 -5 212 c-2 116 -6 235 -9 264 l-4 52 33 0 c44 0 86 44 93 98 8 56 -26 125
-71 146 -43 20 -62 20 -111 -3z"/>
<path d="M3552 9214 c-42 -35 -42 -35 -42 -11 0 18 -7 27 -26 31 -15 4 -28 6
-29 4 -2 -2 -6 -74 -10 -160 l-7 -158 31 0 c17 0 34 -1 37 -2 4 -2 6 41 5 94
-2 111 6 127 78 149 32 9 41 18 46 40 13 60 -22 65 -83 13z"/>
<path d="M2854 9221 c-36 -22 -69 -71 -79 -118 -10 -48 27 -125 77 -158 57
-38 94 -41 148 -13 54 28 62 61 16 66 -16 2 -33 -1 -39 -7 -21 -21 -70 -12
-95 16 -13 15 -19 29 -14 31 5 1 50 6 102 10 118 9 126 18 87 97 -32 65 -74
95 -132 95 -22 0 -54 -9 -71 -19z m127 -61 c10 -6 19 -20 19 -30 0 -18 -7 -20
-70 -20 -74 0 -83 7 -50 40 22 22 70 26 101 10z"/>
<path d="M3180 9233 c-29 -11 -50 -36 -50 -61 0 -26 -7 -26 90 -6 51 11 80 -2
80 -36 0 -29 0 -29 -48 -23 -53 6 -92 -9 -128 -49 -33 -36 -37 -61 -14 -90 45
-57 130 -74 173 -34 l25 24 6 -24 c5 -19 13 -24 40 -24 44 0 48 6 31 47 -10
23 -15 69 -15 128 l0 93 -35 31 c-31 27 -43 31 -88 30 -29 0 -59 -3 -67 -6z
m109 -198 c10 -11 -12 -37 -44 -52 -33 -16 -37 -16 -52 -1 -19 20 -11 45 19
58 20 8 66 5 77 -5z"/>
<path d="M3687 9234 c-4 -4 -7 -79 -7 -166 l0 -159 35 3 35 2 0 108 0 108 33
20 c38 24 56 25 83 6 16 -12 20 -31 24 -128 l5 -113 30 0 30 0 3 107 c3 118
-9 165 -50 192 -45 29 -80 30 -121 2 -46 -31 -47 -31 -47 -6 0 11 -4 20 -9 20
-5 0 -16 2 -23 5 -8 3 -17 2 -21 -1z"/>
<path d="M4310 9232 c-8 -2 -27 -16 -42 -30 -22 -21 -28 -22 -28 -9 0 17 -29
37 -54 37 -14 0 -16 -21 -16 -155 l0 -155 25 0 c14 0 28 1 33 3 4 1 5 41 4 89
-4 86 -3 88 26 118 36 36 85 41 102 11 5 -11 10 -62 10 -115 0 -107 5 -126 30
-126 35 0 42 24 38 144 -3 111 -4 116 -32 145 -31 32 -72 51 -96 43z"/>
<path d="M4585 9228 c-70 -38 -113 -117 -101 -183 6 -32 61 -93 105 -115 27
-14 84 -6 119 17 13 8 25 13 27 11 1 -2 -4 -24 -12 -50 -12 -44 -16 -48 -46
-50 -55 -2 -82 3 -90 18 -18 32 -107 5 -94 -29 21 -56 163 -77 237 -36 67 38
68 43 60 319 -2 55 -8 98 -14 102 -22 15 -46 8 -51 -15 -6 -24 -6 -24 -43 -6
-55 26 -75 29 -97 17z m109 -88 c11 -11 21 -37 23 -67 6 -58 -6 -72 -67 -80
-35 -5 -45 -2 -71 22 -40 39 -40 86 1 127 25 25 35 29 63 23 17 -4 40 -15 51
-25z"/>
<path d="M4022 9093 c-3 -166 1 -183 39 -183 l29 0 0 155 0 155 -33 0 -33 0
-2 -127z"/>
<path d="M4950 8420 c-450 -22 -923 -179 -1335 -445 -216 -140 -535 -427 -666
-600 -259 -345 -404 -611 -507 -935 -101 -318 -139 -587 -129 -925 13 -435
103 -802 294 -1193 91 -187 292 -473 487 -694 308 -350 923 -716 1379 -822
179 -42 422 -76 545 -76 72 0 74 -4 42 -88 -27 -69 -26 -121 3 -163 33 -50 74
-51 121 -4 43 43 46 75 17 178 l-20 67 22 4 c12 2 101 14 197 26 369 46 651
140 1045 349 267 141 539 365 760 627 92 109 130 158 199 259 12 17 33 46 48
66 15 19 35 53 44 74 9 22 28 58 43 80 14 22 50 90 79 150 30 61 69 139 87
175 73 146 154 451 185 703 31 252 25 555 -15 767 -95 503 -207 785 -470 1180
-234 352 -486 597 -843 819 -212 132 -324 190 -483 249 -276 103 -516 156
-769 172 -91 5 -174 9 -185 8 -11 -1 -90 -4 -175 -8z m684 -1216 c109 -15 303
-77 407 -129 211 -105 452 -315 576 -500 110 -165 205 -379 254 -575 21 -84
24 -117 23 -285 0 -205 -17 -314 -70 -475 -76 -228 -178 -387 -373 -580 -149
-148 -182 -172 -403 -294 -77 -43 -292 -118 -404 -141 -231 -48 -512 -17 -758
82 -114 46 -156 69 -283 155 -416 282 -658 709 -680 1200 -7 151 4 256 43 433
25 111 92 299 124 345 9 14 26 46 38 71 18 42 112 173 130 181 4 2 20 20 35
41 32 42 221 200 303 253 30 18 98 56 152 83 278 142 550 183 886 135z"/>
<path d="M4420 2400 c-2 -23 1 -464 3 -465 1 -1 43 2 92 6 110 9 165 30 206
77 91 103 91 219 -1 313 -37 39 -54 49 -100 57 -62 12 -200 20 -200 12z m225
-105 c67 -39 92 -121 59 -192 -25 -51 -69 -79 -135 -86 -31 -3 -60 -2 -65 1
-5 4 -8 73 -6 155 l3 147 51 0 c36 0 63 -7 93 -25z"/>
<path d="M5870 2170 l0 -230 80 0 80 0 0 29 c0 30 -14 41 -56 41 l-24 0 0 134
c0 73 -3 161 -6 195 l-7 61 -33 0 -34 0 0 -230z"/>
<path d="M7262 2388 c-10 -13 -15 -40 -13 -65 1 -8 16 -13 41 -13 41 0 46 6
41 55 -3 33 -48 48 -69 23z"/>
<path d="M4860 2219 c-54 -56 -66 -102 -43 -170 22 -66 84 -119 140 -119 44 0
113 37 113 62 0 25 -49 37 -62 14 -5 -9 -19 -16 -31 -16 -31 0 -83 34 -90 59
-6 26 7 30 123 34 l85 2 -3 33 c-3 45 -35 105 -66 125 -15 10 -46 17 -76 17
-46 0 -54 -4 -90 -41z m134 -40 c14 -11 26 -29 26 -41 0 -16 -5 -19 -27 -14
-16 3 -47 8 -70 11 -48 8 -52 16 -23 45 26 26 60 25 94 -1z"/>
<path d="M5193 2240 c-39 -23 -61 -55 -77 -112 -18 -60 -5 -97 53 -152 55 -50
93 -59 141 -31 14 8 33 18 43 21 23 8 22 41 -2 54 -25 13 -24 13 -51 -10 -13
-11 -30 -20 -38 -20 -20 0 -85 67 -77 80 4 6 50 10 111 10 l104 0 0 28 c0 15
-9 46 -20 69 -34 76 -119 105 -187 63z m92 -46 c8 -4 22 -19 31 -35 l15 -29
-76 0 c-82 0 -89 7 -50 45 24 25 49 31 80 19z"/>
<path d="M5436 2188 c3 -40 1 -117 -5 -171 -6 -53 -8 -122 -5 -153 l7 -55 41
3 41 3 -4 85 c-3 82 -3 84 15 69 51 -44 108 -29 165 43 46 58 51 105 19 168
-40 79 -116 102 -181 54 l-34 -25 -3 25 c-3 21 -9 26 -33 26 l-29 0 6 -72z
m190 -11 c20 -18 28 -35 31 -74 5 -47 3 -54 -22 -77 -34 -31 -64 -33 -98 -6
-52 41 -41 131 21 164 36 20 36 20 68 -7z"/>
<path d="M6112 2240 c-48 -30 -72 -75 -72 -140 0 -63 22 -114 63 -144 39 -28
125 -28 164 0 35 26 40 49 15 63 -16 8 -25 6 -45 -9 -35 -28 -71 -25 -96 6
-12 15 -21 33 -21 40 0 19 61 28 142 21 l70 -6 -5 44 c-12 111 -127 178 -215
125z m129 -78 c5 -14 8 -27 5 -29 -2 -2 -34 -3 -71 -1 l-67 3 21 27 c35 43 96
44 112 0z"/>
<path d="M6406 2239 c-14 -11 -26 -30 -26 -41 0 -18 4 -20 38 -13 20 4 49 9
65 12 33 6 57 -11 57 -43 0 -22 -4 -24 -46 -24 -51 0 -76 -10 -116 -48 -45
-42 -35 -94 26 -131 46 -29 90 -27 114 4 25 32 28 31 36 -5 4 -23 11 -30 28
-30 40 0 51 14 43 51 -4 19 -9 76 -10 128 l-2 94 -36 34 c-32 29 -43 33 -91
33 -39 0 -60 -6 -80 -21z m134 -177 c0 -36 -29 -62 -71 -62 -35 0 -39 2 -39
25 0 20 8 29 33 40 46 20 77 19 77 -3z"/>
<path d="M6775 2238 c-25 -19 -28 -20 -37 -5 -5 10 -20 17 -33 17 l-25 0 0
-154 0 -154 35 -4 c34 -4 35 -3 34 32 0 19 -4 61 -8 93 -7 53 -5 59 18 81 35
32 66 47 84 40 11 -4 17 4 22 25 3 17 4 35 0 41 -11 17 -61 11 -90 -12z"/>
<path d="M6904 2199 c3 -34 6 -108 6 -164 l0 -103 33 3 32 3 -3 99 -4 99 36
32 c43 37 66 40 92 11 16 -18 20 -40 22 -135 4 -110 4 -114 26 -114 39 0 46
19 46 115 0 108 -11 154 -46 189 -35 34 -111 37 -139 6 -10 -11 -21 -20 -25
-20 -4 0 -10 9 -13 20 -4 15 -14 20 -37 20 l-33 0 7 -61z"/>
<path d="M7398 2253 c-15 -4 -16 -19 -12 -136 7 -174 7 -177 44 -177 l30 0 0
100 c0 109 10 132 65 146 59 15 75 -18 75 -152 l0 -94 29 0 c28 0 30 3 33 43
2 23 1 82 -2 130 -5 85 -6 90 -38 118 -43 38 -92 39 -136 3 -29 -25 -31 -26
-35 -8 -2 10 -8 22 -15 26 -12 8 -12 8 -38 1z"/>
<path d="M7764 2228 c-20 -18 -43 -47 -51 -65 -15 -37 -9 -101 14 -145 28 -56
116 -75 186 -39 l37 19 0 -30 c0 -45 -39 -78 -92 -78 -24 0 -52 7 -62 15 -41
31 -95 8 -81 -35 8 -26 47 -46 105 -54 63 -8 118 7 154 44 l31 30 0 180 0 180
-26 0 c-15 0 -29 -7 -33 -15 -5 -13 -9 -12 -26 5 -15 15 -33 20 -70 20 -41 0
-55 -5 -86 -32z m144 -44 c32 -22 44 -50 36 -89 -8 -43 -48 -68 -102 -63 -29
2 -40 10 -55 36 -22 37 -18 65 14 105 24 31 71 36 107 11z"/>
<path d="M7256 2158 c-3 -50 -6 -120 -6 -155 l0 -63 35 0 35 0 0 155 0 155
-29 0 -28 0 -7 -92z"/>
<path d="M4077 2220 c-54 -42 -56 -133 -6 -186 44 -47 149 -21 184 45 19 38
19 66 -1 101 -36 59 -126 80 -177 40z"/>
</g>
</svg>
