<?xml version="1.0" standalone="no"?>
<!DOCTYPE svg PUBLIC "-//W3C//DTD SVG 20010904//EN"
 "http://www.w3.org/TR/2001/REC-SVG-20010904/DTD/svg10.dtd">
<svg version="1.0" xmlns="http://www.w3.org/2000/svg"
 width="1024.000000pt" height="1024.000000pt" viewBox="0 0 1024.000000 1024.000000"
 preserveAspectRatio="xMidYMid meet">

<g transform="translate(0.000000,1024.000000) scale(0.100000,-0.100000)"
fill="#000000" stroke="none">
<path d="M3668 9735 c-2 -1 -55 -5 -118 -9 -140 -8 -159 -11 -255 -31 -265
-58 -583 -188 -780 -320 -283 -190 -454 -370 -621 -653 -125 -211 -201 -479
-209 -731 -1 -57 -7 -106 -12 -110 -5 -3 -33 -21 -61 -40 -135 -87 -252 -342
-252 -548 0 -116 40 -261 98 -358 85 -141 229 -246 376 -276 l67 -13 58 -120
c96 -198 264 -401 471 -568 130 -105 216 -161 359 -234 61 -31 111 -59 111
-63 0 -3 -46 -16 -103 -28 -244 -54 -359 -111 -430 -213 -33 -48 -46 -58 -99
-77 -86 -32 -143 -67 -191 -120 -30 -32 -72 -59 -145 -95 -124 -59 -221 -146
-309 -274 -31 -46 -62 -84 -68 -84 -19 0 -148 -67 -187 -96 -96 -73 -172 -216
-219 -411 -28 -113 -32 -146 -33 -278 -1 -273 67 -479 207 -619 41 -41 48 -52
38 -65 -29 -40 -72 -143 -87 -211 -14 -58 -18 -127 -19 -304 l-1 -228 -35 -19
c-20 -10 -61 -45 -92 -79 -94 -101 -96 -111 -92 -566 4 -357 5 -384 25 -436
39 -105 153 -203 253 -220 55 -9 316 -10 887 -3 l346 5 28 -118 c35 -146 78
-274 122 -366 l34 -71 -189 -5 c-104 -3 -193 -9 -197 -13 -11 -11 -15 -38 -9
-63 5 -22 44 -42 80 -42 11 0 292 0 625 -1 1446 0 2455 -1 2581 -2 80 0 152 4
176 11 30 9 45 9 61 1 16 -8 372 -10 1343 -6 1272 5 1586 9 1694 21 63 6 111
50 100 93 -13 52 94 48 -977 36 l-527 -6 -1 233 c-1 128 -1 249 -2 268 0 19 0
71 1 116 l1 81 52 6 c60 8 124 46 140 85 16 42 14 902 -2 933 -22 41 -75 72
-141 84 -18 3 -36 11 -40 17 -4 6 -7 335 -7 732 -1 396 -1 874 -1 1061 -1 187
0 739 1 1228 2 488 0 887 -4 887 -4 0 -5 6 -3 13 3 6 7 261 9 565 2 304 6 556
10 559 4 4 33 9 64 11 61 4 96 25 113 71 8 21 11 202 9 755 l0 89 -40 38 c-31
30 -53 41 -100 50 l-60 12 1 429 c1 235 5 431 10 433 4 3 20 -6 36 -19 15 -13
96 -58 178 -101 383 -198 399 -207 725 -385 241 -131 495 -234 528 -214 30 19
27 51 -7 68 -16 9 -35 16 -41 16 -6 0 -26 11 -44 25 -17 13 -59 36 -92 51 -32
14 -95 47 -139 73 -89 53 -364 209 -465 264 -36 19 -101 55 -146 80 -123 69
-532 275 -594 299 -51 21 -71 22 -301 21 -170 0 -257 -4 -284 -13 -52 -17
-124 -85 -148 -140 -20 -44 -20 -70 -22 -1710 -1 -916 -5 -1672 -9 -1680 -4
-8 -28 -28 -54 -43 -26 -15 -85 -52 -132 -82 -136 -88 -246 -145 -278 -145
-22 0 -39 10 -64 38 -61 67 -113 199 -91 227 15 19 148 131 225 189 93 70 165
145 174 180 24 96 -102 159 -316 158 -120 -1 -196 -20 -309 -77 -150 -76 -252
-169 -307 -280 -38 -77 -79 -227 -87 -320 -3 -33 -9 -67 -12 -77 -4 -9 -50
-46 -103 -83 -167 -114 -352 -235 -361 -235 -5 0 -38 17 -73 38 -36 20 -99 49
-141 62 -42 14 -77 28 -77 32 0 4 36 26 79 48 214 107 377 224 536 385 135
137 240 286 332 473 42 85 83 156 92 159 9 3 52 23 96 44 136 65 262 212 305
359 98 333 -33 709 -290 832 -41 20 -88 40 -103 43 -16 4 -34 17 -42 29 -12
19 -85 189 -85 199 0 2 35 17 78 32 149 53 289 132 370 209 67 63 96 127 96
211 1 92 -31 158 -119 247 -95 96 -148 129 -315 194 -138 53 -366 97 -620 120
-73 7 -76 8 -105 48 -51 69 -239 187 -435 274 -155 69 -403 127 -580 137 -139
8 -288 13 -292 10z m164 -138 c80 -33 211 -132 346 -261 51 -49 91 -106 75
-106 -9 0 -139 -22 -268 -45 -135 -24 -361 -80 -440 -110 -38 -14 -115 -42
-169 -61 -55 -20 -118 -44 -140 -54 -252 -113 -351 -160 -436 -206 -55 -31
-104 -53 -109 -49 -5 3 -19 30 -30 60 -50 132 -125 250 -208 325 l-58 52 23
16 c13 9 35 28 50 41 42 37 191 135 252 166 148 75 445 183 575 209 17 4 41 9
55 12 48 10 75 13 175 20 55 4 101 7 102 8 11 8 178 -6 205 -17z m293 -7 c125
-25 327 -90 419 -137 88 -44 266 -159 266 -172 0 -14 -19 -18 -80 -19 -116 -1
-354 -13 -359 -17 -2 -3 -15 13 -27 35 -12 22 -39 60 -60 84 -55 66 -203 191
-257 217 -44 22 -56 41 -19 33 9 -2 62 -13 117 -24z m3231 -85 c4 -11 9 -205
10 -431 2 -321 -1 -424 -12 -470 -10 -45 -14 -163 -15 -489 -2 -542 -3 -506
13 -516 9 -6 16 -55 24 -171 5 -90 9 -165 7 -167 -1 -2 -18 10 -38 28 -76 66
-164 92 -295 87 -82 -4 -145 -26 -198 -70 l-32 -28 0 29 c-3 291 1 2145 5
2154 3 8 20 24 38 35 26 17 50 22 117 23 46 1 85 3 86 4 1 1 65 2 143 2 131 0
140 -1 147 -20z m-2266 -369 c132 -10 256 -24 320 -36 104 -20 295 -83 374
-123 73 -38 155 -101 144 -112 -2 -3 -51 11 -109 30 -219 74 -363 105 -580
125 -64 5 -141 13 -172 16 -172 19 -1084 -61 -1257 -109 -47 -14 -129 -36
-183 -51 -163 -44 -446 -154 -697 -271 -63 -29 -169 -77 -235 -106 -66 -28
-165 -73 -220 -100 l-100 -48 50 45 c87 79 363 234 665 375 535 249 945 342
1625 367 212 8 240 8 375 -2z m-2716 -136 c29 -25 73 -74 97 -110 48 -72 112
-221 107 -248 -2 -9 -48 -45 -103 -79 -55 -35 -134 -92 -175 -127 -102 -87
-414 -386 -452 -433 l-31 -38 7 85 c9 116 11 131 46 275 45 192 134 368 283
565 68 90 137 161 153 158 7 -2 38 -23 68 -48z m2906 -74 c256 -32 409 -72
590 -154 50 -23 110 -77 110 -99 0 -28 -28 -79 -61 -110 -46 -43 -168 -107
-270 -142 -46 -16 -92 -32 -101 -36 -13 -5 -23 6 -48 56 -43 83 -132 171 -212
209 -110 51 -307 91 -528 105 -149 9 -713 13 -810 5 -224 -18 -534 -73 -649
-114 -24 -9 -46 -14 -49 -11 -3 3 -3 6 -1 8 38 26 369 134 589 192 96 25 183
39 300 50 91 8 179 18 195 22 37 8 47 9 162 18 321 25 590 25 783 1z m-1045
-299 c26 -2 36 -17 30 -42 -3 -11 -2 -15 1 -8 3 7 16 0 34 -19 16 -17 27 -35
23 -41 -3 -6 -1 -7 5 -3 9 5 12 -8 12 -45 0 -29 3 -50 6 -46 4 3 6 24 6 47 -1
23 3 38 9 35 5 -4 9 4 9 17 1 13 6 33 13 45 11 20 13 21 33 4 30 -24 38 -56
22 -91 -7 -17 -16 -30 -19 -30 -3 0 -6 -15 -6 -32 0 -18 2 -25 4 -15 5 20 14
22 31 5 9 -9 12 -9 12 0 0 6 -7 15 -15 20 -19 10 -8 47 21 76 11 12 14 20 6
25 -6 3 -14 18 -17 34 -4 15 -12 24 -17 21 -10 -6 -28 12 -28 29 0 4 15 7 33
7 27 0 35 -6 49 -38 10 -20 16 -27 14 -15 -3 19 -1 20 14 11 27 -17 53 -67 46
-91 -4 -20 -4 -20 8 -5 12 16 14 16 34 -4 12 -12 24 -19 28 -16 3 4 -4 16 -15
27 -28 28 -28 61 0 61 15 0 19 4 15 16 -4 11 -1 14 12 12 12 -2 16 -11 13 -28
-7 -46 -6 -53 8 -58 10 -3 11 0 5 9 -7 12 -5 12 9 1 9 -8 21 -11 27 -7 17 11
11 24 -15 31 -22 5 -37 34 -17 34 17 0 102 -35 102 -42 0 -8 -97 -74 -142 -97
-15 -8 -33 -11 -42 -8 -10 4 -13 1 -10 -7 3 -9 -18 -24 -62 -45 -36 -17 -72
-31 -79 -31 -7 0 -15 -4 -17 -10 -1 -5 -30 -15 -62 -21 -50 -9 -72 -8 -130 6
-83 20 -289 92 -370 129 -32 15 -105 40 -164 58 -59 17 -113 35 -120 41 -21
17 12 29 79 29 32 0 59 4 59 9 0 5 -12 6 -27 3 -20 -5 -25 -3 -18 4 6 6 22 14
38 17 23 6 26 4 21 -9 -7 -19 31 -66 53 -66 18 0 16 10 -4 32 -21 24 -24 55
-5 63 18 7 35 -4 29 -19 -3 -7 -1 -19 3 -26 6 -10 16 -6 40 18 33 33 80 44 80
18 0 -8 -6 -16 -12 -19 -10 -3 -10 -7 1 -20 20 -25 26 -21 37 19 8 32 13 37
42 39 27 2 33 -1 38 -21 3 -13 -1 -41 -9 -62 -17 -42 -12 -56 17 -59 13 -1 15
2 7 10 -18 18 -13 55 12 77 21 20 21 22 5 34 -25 18 -22 26 7 26 15 0 25 -6
25 -14 0 -8 5 -18 10 -21 6 -4 10 -3 9 2 -4 22 2 35 14 30 8 -3 20 -1 28 4 8
5 23 7 34 3 11 -3 29 -6 40 -7z m93 -9 c9 -9 12 -9 12 0 0 15 26 16 36 1 7
-12 -15 -89 -25 -89 -4 0 -17 18 -31 40 -14 22 -28 40 -32 40 -5 0 -8 5 -8 10
0 14 33 13 48 -2z m634 -14 c35 -9 71 -20 80 -25 9 -5 36 -11 59 -14 72 -9
136 -44 190 -102 72 -80 98 -121 182 -288 82 -164 145 -338 177 -485 38 -174
33 -515 -9 -708 -35 -161 -173 -440 -303 -612 -80 -106 -277 -295 -383 -366
-218 -146 -430 -255 -593 -303 -108 -32 -343 -84 -349 -77 -3 2 10 20 27 39
17 20 48 66 69 104 21 37 43 67 50 65 36 -8 199 24 328 64 284 89 444 183 638
378 186 187 310 376 386 588 58 163 73 259 72 478 0 152 -4 204 -22 295 -27
131 -85 293 -154 430 -101 203 -304 428 -467 519 -73 40 -70 43 22 20z m-377
-16 c30 -13 31 -20 7 -41 -16 -15 -20 -14 -45 18 -26 32 -26 35 -8 35 11 0 32
-5 46 -12z m-1445 -95 c0 -4 -46 -55 -102 -113 -105 -109 -153 -169 -222 -275
-22 -33 -47 -72 -57 -87 -10 -15 -33 -57 -50 -95 -116 -252 -151 -475 -126
-803 21 -288 146 -556 387 -829 199 -226 557 -416 838 -446 26 -3 79 -9 117
-14 39 -5 73 -7 78 -4 30 17 -20 -64 -86 -138 -57 -66 -92 -79 -212 -80 -163
-3 -338 27 -554 95 -274 86 -568 268 -775 482 -124 127 -290 365 -302 433 -7
32 -4 38 31 66 21 16 57 49 80 73 44 44 61 53 51 26 -5 -14 -4 -15 9 -4 17 14
21 35 5 25 -17 -11 -11 6 21 57 33 55 61 125 85 214 19 69 26 267 13 339 -5
28 -11 65 -14 83 -6 38 -51 155 -77 197 -70 117 -180 217 -254 231 -19 3 -34
12 -34 20 0 20 132 149 192 187 58 37 309 135 331 129 4 -1 7 3 7 9 0 6 9 9
20 6 12 -3 20 0 20 7 0 17 45 37 65 30 8 -4 15 -1 15 5 0 12 78 50 145 71 22
7 45 17 52 22 7 6 27 14 45 18 18 5 62 16 98 25 36 9 70 18 75 19 6 2 21 8 35
14 29 13 50 15 50 5z m4414 -23 c15 -15 26 -240 23 -498 -2 -281 1 -271 -73
-268 l-43 1 -5 387 c-2 212 -2 388 0 391 7 7 88 -4 98 -13z m-4101 -18 c-1 -5
3 -9 10 -9 34 1 48 -4 41 -15 -5 -8 -2 -9 9 -5 22 8 159 -39 175 -60 6 -9 12
-14 12 -11 0 4 28 -5 62 -19 177 -71 442 -156 523 -166 67 -8 210 44 469 174
98 49 180 89 183 89 2 0 56 -52 119 -117 117 -118 150 -163 140 -189 -3 -8 -2
-13 3 -10 11 7 61 -63 98 -139 185 -368 213 -748 82 -1105 -61 -166 -198 -380
-323 -506 -118 -117 -290 -237 -430 -299 -79 -35 -218 -82 -260 -89 -21 -4
-42 -8 -45 -11 -16 -9 -192 -20 -296 -17 -453 10 -844 224 -1097 602 -199 299
-269 620 -214 991 19 125 98 337 172 460 51 84 246 303 293 328 25 13 68 47
118 92 12 12 30 19 40 17 10 -2 23 3 29 10 9 12 13 12 27 -3 9 -9 17 -11 17
-5 0 6 5 8 10 5 6 -3 10 1 10 10 0 9 6 15 13 12 6 -2 11 -9 10 -15z m2418
-670 c46 -53 101 -163 119 -238 6 -29 12 -101 12 -160 1 -173 -47 -296 -157
-407 -26 -26 -50 -46 -52 -43 -3 3 1 36 8 73 10 48 14 149 14 343 0 265 -8
355 -41 477 -6 22 -5 22 25 12 17 -6 49 -32 72 -57z m-3872 14 c159 -83 259
-319 244 -581 -10 -174 -98 -341 -212 -399 -41 -22 -161 -34 -161 -17 0 7 -5
9 -10 6 -14 -9 -77 13 -125 43 l-39 25 41 12 c65 19 116 66 152 139 112 228
49 533 -130 631 -41 22 -60 26 -105 23 -33 -2 -53 1 -51 7 5 16 115 86 176
112 66 28 164 27 220 -1z m-253 -281 c88 -91 104 -298 35 -433 -22 -43 -103
-104 -127 -95 -8 3 -14 0 -14 -6 0 -23 -60 20 -86 61 -46 72 -66 145 -66 243
-1 145 31 222 105 255 70 32 104 27 153 -25z m5479 -269 c45 -29 106 -88 119
-115 7 -14 15 -60 16 -101 1 -41 3 -785 3 -1652 0 -1224 -3 -1581 -12 -1592
-7 -8 -34 -23 -59 -32 -26 -10 -63 -24 -82 -32 -44 -19 -123 -25 -113 -9 4 7
-1 6 -10 -2 -13 -10 -17 -10 -17 -1 0 9 -4 9 -17 -1 -12 -10 -17 -11 -20 -2
-2 7 -11 9 -19 6 -8 -3 -55 14 -104 38 l-90 42 1 836 c0 460 -2 886 -6 946 -6
106 -5 112 20 155 55 96 68 134 69 195 0 67 -13 97 -55 132 l-28 24 0 491 c0
290 4 510 10 538 8 39 18 52 57 82 71 52 111 70 172 77 70 8 131 -1 165 -23z
m-967 -762 c18 -3 32 -11 32 -19 0 -7 -50 -48 -111 -90 -189 -131 -233 -183
-242 -285 -16 -180 149 -400 299 -400 29 0 63 11 111 36 70 37 346 207 374
231 18 15 29 8 29 -18 0 -28 -97 -212 -146 -278 -54 -72 -156 -162 -222 -195
-112 -57 -202 -67 -347 -41 -44 8 -96 15 -115 15 -25 0 -51 12 -90 40 -30 22
-89 57 -130 78 -71 35 -81 37 -180 39 -125 3 -171 -7 -269 -54 -128 -61 -208
-164 -256 -328 -20 -69 -15 -173 10 -211 8 -13 15 -29 15 -37 0 -8 -30 -34
-67 -58 -90 -60 -461 -311 -703 -477 -107 -73 -263 -179 -347 -235 -84 -56
-212 -142 -285 -191 -73 -49 -145 -98 -160 -108 l-26 -18 -25 43 c-14 24 -64
84 -111 133 -47 49 -85 94 -85 99 0 12 1 13 205 153 204 139 260 178 422 293
74 52 185 128 248 169 212 139 518 348 605 412 48 34 126 92 174 128 48 36
104 76 124 90 20 14 72 52 116 85 82 62 183 129 306 201 125 74 142 99 155
239 8 92 39 217 70 282 48 101 160 200 285 250 90 36 211 46 337 27z m-1484
-977 c31 -14 56 -30 56 -35 0 -10 -109 -107 -114 -101 -7 10 -86 161 -86 166
0 13 92 -6 144 -30z m-1858 -20 c114 -75 255 -328 333 -597 19 -64 70 -403 71
-465 0 -14 -22 -37 -66 -70 -37 -28 -84 -70 -105 -94 -37 -42 -41 -43 -66 -32
-15 7 -68 15 -118 18 -112 6 -228 -15 -312 -58 -68 -35 -68 -35 -54 72 6 41
13 93 16 117 3 27 17 58 35 80 16 20 58 95 94 165 l65 129 16 -38 c15 -37 48
-207 61 -317 8 -71 22 -87 80 -87 43 0 44 1 44 33 0 51 -56 372 -85 487 -55
219 -146 397 -267 526 -38 39 -68 76 -68 82 0 17 53 41 133 61 105 27 137 25
193 -12z m3760 11 c4 -13 7 -1078 6 -2368 0 -1650 3 -2359 11 -2393 5 -26 8
-50 4 -53 -7 -7 -1545 -9 -1553 -1 -3 3 6 23 20 45 37 59 67 155 120 382 35
148 85 507 91 651 1 35 8 116 14 179 7 63 14 284 16 490 2 206 6 395 9 420 10
76 11 673 2 870 -5 102 -9 223 -11 270 -1 47 -5 92 -9 101 -6 15 7 16 126 15
148 -1 188 8 311 72 134 69 224 179 271 329 50 162 49 253 -3 376 -16 36 -18
60 -14 139 4 76 1 112 -16 178 -11 45 -19 86 -16 89 2 4 31 3 65 -3 82 -13
197 4 294 44 85 36 196 115 222 160 22 36 30 38 40 8z m-3453 -34 c137 -69
375 -148 522 -173 116 -20 324 -23 415 -7 112 20 212 70 275 137 26 28 51 47
54 42 22 -26 81 -113 96 -143 l18 -34 -39 -33 c-22 -19 -70 -55 -109 -80 -38
-26 -138 -95 -221 -154 -84 -59 -162 -113 -174 -119 -16 -9 -122 -13 -361 -15
-324 -2 -339 -1 -339 16 0 34 -71 232 -116 322 -24 49 -63 119 -87 155 -49 77
-60 100 -51 114 9 14 57 3 117 -28z m2367 -5 c121 -28 289 -157 340 -262 43
-91 14 -235 -66 -333 -100 -122 -285 -193 -414 -159 -70 19 -132 57 -201 126
-88 88 -130 188 -123 297 11 178 104 284 294 333 65 17 87 16 170 -2z m-3076
-213 c89 -37 149 -155 142 -276 -2 -36 -4 -73 -5 -83 -1 -10 -5 -16 -10 -13
-5 4 -7 -3 -4 -13 10 -38 -49 -135 -110 -181 -17 -13 -19 -12 -16 10 9 96
-112 284 -236 366 -16 11 -53 28 -84 40 -30 11 -56 25 -58 31 -5 14 114 90
178 113 64 23 156 26 203 6z m-330 -265 c85 -42 169 -132 191 -203 22 -74 30
-171 16 -196 -6 -12 -29 -31 -51 -42 -47 -24 -50 -24 -50 -5 0 26 -33 89 -85
158 -78 106 -197 176 -328 192 -33 4 -57 12 -57 19 0 15 56 69 89 86 79 41
182 37 275 -9z m2907 -208 c104 -147 205 -210 371 -233 162 -23 297 31 455
183 28 27 55 47 61 43 5 -3 12 -29 16 -57 14 -103 -53 -231 -182 -351 -99 -91
-253 -133 -407 -111 -109 15 -176 52 -267 144 -94 97 -144 191 -154 290 -6 64
-5 67 26 102 18 20 35 37 39 37 4 0 23 -21 42 -47z m-3191 16 c82 -18 190 -96
245 -178 25 -38 48 -83 51 -100 7 -35 -2 -81 -16 -81 -5 0 -29 28 -54 63 -105
147 -219 222 -381 249 -33 5 -69 9 -79 9 -14 0 -8 7 20 24 44 28 126 33 214
14z m1960 -19 c0 -4 -42 -37 -92 -71 -238 -162 -341 -230 -343 -227 -2 2 -6
43 -10 93 -4 49 -8 92 -10 95 -2 3 -6 28 -10 57 -6 50 -6 51 22 57 15 3 52 5
82 5 29 0 55 1 56 3 8 7 305 -4 305 -12z m1035 -174 c22 -195 124 -344 307
-449 26 -15 49 -35 52 -45 7 -25 17 -171 25 -382 7 -184 5 -817 -3 -855 -3
-11 -5 -31 -5 -44 -1 -22 -4 -23 -45 -17 -103 16 -305 -52 -536 -181 -155 -86
-138 -76 -255 -147 -90 -54 -217 -110 -235 -104 -5 2 11 48 36 103 63 138 74
171 83 242 8 69 5 73 -55 73 -27 0 -34 -4 -34 -19 0 -34 -41 -154 -86 -249
-24 -51 -44 -97 -44 -101 0 -16 -42 -61 -51 -56 -5 4 -9 1 -9 -4 0 -6 -10 -10
-22 -9 -13 1 -33 -2 -45 -6 -14 -4 -23 -3 -23 3 0 6 -7 8 -14 5 -14 -5 -72 34
-124 84 -33 31 -217 154 -277 184 -77 39 -283 106 -373 122 -188 32 -331 18
-476 -48 l-58 -27 7 83 c8 86 13 164 14 233 2 69 9 73 93 45 206 -68 437 -11
599 150 86 85 134 173 164 298 18 77 25 209 13 254 -7 25 -1 31 95 100 56 41
112 80 123 88 12 8 78 54 145 101 68 47 205 141 304 208 99 67 267 182 373
256 107 74 197 135 202 135 11 0 19 -46 26 -156 8 -110 22 -128 91 -122 33 3
38 6 41 31 2 16 -2 43 -8 60 -11 29 -23 102 -36 212 -4 28 -2 36 5 26 5 -8 13
-42 16 -75z m-3136 29 c184 -48 332 -206 370 -394 19 -91 -4 -401 -29 -401 -5
0 -18 13 -30 29 -34 49 -148 118 -236 143 -99 28 -279 31 -359 6 -74 -24 -135
-53 -184 -88 -33 -24 -46 -29 -51 -19 -12 19 -4 176 14 260 41 198 71 284 125
356 38 53 67 72 150 100 76 26 153 29 230 8z m717 -244 c-3 -36 -8 -86 -10
-111 -3 -25 -8 -81 -11 -124 -6 -70 -13 -92 -60 -180 -64 -124 -88 -217 -87
-348 0 -84 8 -130 38 -237 7 -23 6 -22 -36 8 -24 17 -47 31 -52 31 -4 0 -29
10 -54 22 -41 19 -45 24 -40 47 20 91 32 171 32 203 -1 20 2 34 5 32 3 -2 11
29 18 69 6 40 18 104 26 142 25 119 25 231 0 341 -4 17 11 34 71 84 81 67 141
103 156 94 5 -4 7 -36 4 -73z m592 -286 c108 -39 181 -105 258 -233 88 -146
87 -329 -3 -491 -48 -86 -112 -145 -208 -191 -130 -63 -281 -65 -412 -5 -77
35 -177 134 -222 220 l-36 70 0 150 0 150 37 77 c60 126 163 219 288 259 80
26 216 23 298 -6z m-1233 -196 c72 -27 142 -75 175 -121 52 -71 60 -188 19
-270 -50 -100 -251 -193 -389 -181 -124 11 -248 118 -325 279 -30 62 -44 105
-41 119 18 73 170 175 287 193 82 12 215 3 274 -19z m5536 -276 c3 -440 -4
-1088 -11 -1108 -5 -13 -14 -26 -20 -30 -9 -6 -10 -70 -6 -249 4 -132 9 -353
12 -491 2 -137 7 -272 10 -300 8 -76 7 -725 -1 -733 -3 -4 -109 -7 -233 -7
-198 0 -231 2 -259 18 -18 9 -35 27 -38 40 -7 28 -12 2958 -5 2954 3 -2 35
-18 72 -36 64 -31 74 -33 187 -34 l119 -2 79 42 c43 23 81 42 86 42 4 1 7 -47
8 -106z m-5131 -341 c57 -61 103 -147 129 -242 20 -73 26 -174 22 -401 l-1
-66 -60 -1 -60 0 0 161 c0 253 -39 390 -142 494 -64 65 -69 85 -26 103 46 19
90 4 138 -48z m-731 -56 c7 -8 26 -18 42 -21 16 -4 29 -10 29 -14 0 -5 -14
-35 -30 -67 -31 -59 -31 -59 -35 -259 -2 -110 -4 -222 -4 -250 l-1 -50 -65 3
c-73 4 -75 6 -70 87 1 28 3 106 5 175 3 170 30 330 66 388 16 25 46 29 63 8z
m515 -75 c89 -96 111 -180 119 -448 l4 -133 -36 -1 c-42 -2 -150 -2 -341 0
l-135 1 2 138 c3 257 5 297 24 357 34 110 44 119 145 139 49 10 96 22 104 26
18 10 51 -12 114 -79z m512 -36 c43 -35 50 -44 35 -48 -26 -6 -32 -74 -26
-280 4 -158 -2 -217 -24 -217 -5 0 -11 102 -13 243 -4 234 -5 244 -31 310 -31
77 -33 92 -10 59 9 -13 40 -43 69 -67z m2728 -444 c17 -28 10 -720 -8 -738 -2
-2 -26 7 -53 21 -154 78 -324 64 -613 -51 -133 -52 -199 -88 -286 -154 l-63
-47 -5 26 c-18 81 -25 186 -15 199 9 10 8 13 -5 13 -19 0 -21 21 -3 39 10 10
9 12 -2 9 -10 -2 -15 7 -17 27 -2 17 -6 43 -10 59 -9 40 17 86 71 125 24 17
47 31 51 31 4 0 15 6 23 14 9 8 48 31 86 51 39 21 107 62 153 91 45 30 85 54
87 54 3 0 28 15 57 33 146 92 332 179 423 197 55 11 123 12 129 1z m-2060 -60
c256 -68 508 -232 570 -371 l27 -60 -16 -123 c-8 -67 -17 -133 -19 -147 -2
-14 -7 -48 -10 -77 -6 -49 -34 -141 -35 -117 -2 26 -115 123 -202 172 -114 65
-210 98 -308 107 -113 9 -260 -15 -363 -59 -21 -9 -38 -13 -39 -9 0 5 -1 94
-2 198 -2 189 -2 190 -32 249 -16 32 -49 75 -72 96 -24 21 -43 44 -43 52 0 29
86 78 185 104 72 19 259 11 359 -15z m-1002 -164 l319 0 43 -29 c54 -35 96
-95 106 -150 11 -58 10 -659 -1 -727 -13 -80 -77 -153 -145 -165 -16 -3 -183
-6 -371 -6 -376 -1 -375 -1 -427 61 -59 69 -57 58 -58 479 l-1 388 25 44 c26
43 95 101 133 111 11 2 28 2 39 0 10 -3 162 -5 338 -6z m-612 -7 c0 -5 -10
-20 -21 -31 -22 -22 -22 -26 -22 -463 -1 -242 3 -459 7 -482 7 -35 5 -44 -16
-69 -23 -26 -30 -28 -125 -33 -90 -4 -105 -2 -135 16 -39 24 -96 99 -108 142
-5 16 -10 195 -11 397 -3 362 -3 369 18 409 12 23 41 58 65 78 l43 37 143 -2
c79 0 146 2 149 5 9 9 13 7 13 -4z m5970 -60 c16 -29 17 -789 1 -818 -9 -18
-21 -22 -56 -22 l-45 0 0 203 c0 111 -3 302 -7 424 l-6 221 24 5 c55 10 78 7
89 -13z m-3518 -230 c4 -19 14 -89 23 -155 9 -66 24 -183 35 -260 10 -77 24
-183 30 -235 42 -334 76 -512 135 -698 19 -59 35 -110 35 -114 0 -4 -162 -7
-360 -8 l-360 0 11 27 c6 15 18 41 28 58 26 43 66 156 95 265 64 245 172 775
206 1009 11 78 25 138 32 143 7 4 29 7 48 6 30 -3 35 -7 42 -38z m1098 -280
c44 -22 90 -74 90 -100 0 -47 -69 -73 -195 -74 -148 -1 -245 46 -245 120 0 54
14 62 145 77 64 8 168 -4 205 -23z m-1809 -12 c74 -27 82 -43 47 -94 -33 -48
-75 -65 -166 -66 -127 -1 -206 15 -243 48 -15 14 -16 11 -9 -27 10 -53 36 -87
86 -113 31 -17 57 -21 134 -21 86 0 100 3 148 30 65 35 89 64 103 122 6 24 15
43 21 43 47 0 182 -111 212 -175 9 -18 16 -53 16 -77 0 -56 -60 -348 -101
-485 -17 -59 -36 -124 -41 -143 -16 -56 -79 -169 -106 -191 -24 -18 -38 -19
-269 -15 -225 4 -245 6 -272 25 -65 47 -133 203 -171 394 -11 56 -25 122 -32
146 -9 36 -9 46 3 55 30 23 92 118 105 163 14 46 21 283 9 302 -12 21 150 85
239 95 33 3 61 7 62 9 12 12 171 -6 225 -25z m1428 -88 c15 -75 51 -119 129
-157 50 -24 69 -28 147 -28 80 0 96 3 139 28 27 15 51 25 53 23 5 -4 -27 -257
-33 -267 -2 -4 -9 -42 -15 -85 -23 -177 -91 -438 -129 -499 -10 -16 -32 -43
-49 -59 l-31 -30 -142 1 c-225 0 -341 5 -365 14 -12 4 -32 27 -43 49 -41 81
-111 397 -144 655 -3 17 -7 53 -11 81 -6 45 -4 53 20 82 62 74 209 168 348
223 107 42 112 41 126 -31z"/>
<path d="M4166 8605 c-16 -16 -16 -19 -2 -27 9 -5 13 -16 10 -26 -5 -13 -4
-14 4 -3 16 23 47 -31 32 -58 -14 -27 1 -27 18 0 l14 21 19 -21 c10 -11 19
-27 19 -36 0 -8 7 -15 15 -15 18 0 10 25 -17 52 -21 21 -24 54 -5 61 9 4 9 6
0 6 -7 1 -18 -8 -25 -19 -17 -26 -22 -25 -36 5 -7 15 -8 25 -2 25 6 0 10 7 10
15 0 8 -6 15 -14 15 -8 0 -16 5 -18 11 -3 8 -10 5 -22 -6z"/>
<path d="M3867 8578 c-8 -30 -1 -35 12 -9 6 11 7 22 2 25 -5 3 -11 -4 -14 -16z"/>
<path d="M3967 8593 c-11 -11 -8 -31 6 -36 8 -3 14 4 15 19 2 23 -8 31 -21 17z"/>
<path d="M4105 8546 c10 -14 11 -26 5 -36 -16 -24 -11 -36 5 -14 15 19 15 19
31 -1 8 -11 18 -32 21 -48 4 -22 8 -25 19 -16 15 12 20 34 5 25 -10 -7 -31 37
-31 67 0 18 -2 19 -10 7 -9 -13 -11 -13 -20 0 -5 8 -10 20 -10 26 0 6 -6 11
-14 11 -12 0 -12 -3 -1 -21z"/>
<path d="M3657 8539 c7 -7 15 -10 18 -7 3 3 -2 9 -12 12 -14 6 -15 5 -6 -5z"/>
<path d="M3870 8514 c0 -14 3 -14 15 -4 8 7 15 14 15 16 0 2 -7 4 -15 4 -8 0
-15 -7 -15 -16z"/>
<path d="M3900 8500 c0 -14 51 -59 68 -60 6 0 12 7 12 15 0 8 -9 15 -20 15
-11 0 -20 3 -20 8 0 4 -9 13 -20 20 -13 8 -20 8 -20 2z"/>
<path d="M4390 8480 c6 -11 13 -20 16 -20 2 0 0 9 -6 20 -6 11 -13 20 -16 20
-2 0 0 -9 6 -20z"/>
<path d="M4515 8457 c0 -26 4 -32 21 -33 16 -1 20 3 17 17 -3 11 -9 19 -14 19
-5 0 -9 7 -9 15 0 8 -3 15 -7 15 -5 0 -8 -15 -8 -33z"/>
<path d="M4072 8453 c-8 -15 -3 -21 24 -34 l33 -16 -19 25 c-11 13 -17 28 -14
33 3 5 1 9 -5 9 -6 0 -14 -8 -19 -17z"/>
<path d="M4210 8421 c0 -10 19 -25 25 -20 1 2 -3 10 -11 17 -8 7 -14 8 -14 3z"/>
<path d="M4270 8405 c0 -8 2 -15 4 -15 2 0 6 7 10 15 3 8 1 15 -4 15 -6 0 -10
-7 -10 -15z"/>
<path d="M4157 8403 c-4 -3 -7 -11 -7 -17 0 -6 5 -5 12 2 6 6 9 14 7 17 -3 3
-9 2 -12 -2z"/>
<path d="M4240 8379 c0 -4 9 -13 20 -19 16 -8 20 -8 20 3 0 8 -9 17 -20 20
-11 3 -20 1 -20 -4z"/>
<path d="M4360 8376 c0 -2 7 -6 15 -10 8 -3 15 -1 15 4 0 6 -7 10 -15 10 -8 0
-15 -2 -15 -4z"/>
<path d="M2851 8384 c0 -11 3 -14 6 -6 3 7 2 16 -1 19 -3 4 -6 -2 -5 -13z"/>
<path d="M3283 8385 c-3 -9 -3 -18 -1 -21 3 -3 8 4 11 16 6 23 -1 27 -10 5z"/>
<path d="M3422 7607 c-111 -35 -167 -188 -140 -387 16 -126 54 -186 133 -213
90 -30 184 27 221 134 22 63 26 257 6 324 -30 103 -133 170 -220 142z"/>
<path d="M4994 7609 c-43 -12 -82 -54 -112 -117 -22 -48 -24 -66 -24 -178 1
-146 5 -174 38 -231 64 -112 208 -93 271 34 26 53 28 67 28 168 -1 184 -30
267 -110 312 -44 25 -46 25 -91 12z"/>
<path d="M1898 6923 c7 -3 16 -2 19 1 4 3 -2 6 -13 5 -11 0 -14 -3 -6 -6z"/>
<path d="M7021 7104 c-60 -25 -119 -81 -131 -122 -14 -50 -13 -79 5 -140 47
-157 225 -203 341 -86 59 58 79 117 64 187 -27 131 -165 211 -279 161z m117
-80 c27 -19 62 -84 62 -116 0 -61 -79 -128 -135 -114 -38 10 -73 48 -80 90
-11 54 28 127 75 143 47 16 52 16 78 -3z"/>
<path d="M7060 6950 c-11 -11 -20 -31 -20 -45 0 -30 32 -65 59 -65 44 0 68 82
33 113 -25 22 -48 21 -72 -3z"/>
<path d="M7045 6101 c-41 -10 -66 -25 -94 -55 -20 -21 -26 -41 -31 -103 -8
-95 -3 -197 11 -241 27 -82 147 -119 238 -72 87 44 106 97 99 269 -3 90 -6
102 -32 136 -46 60 -115 84 -191 66z m72 -136 c39 -27 43 -153 7 -190 -23 -23
-70 -19 -88 7 -20 29 -21 120 -1 158 21 42 47 49 82 25z"/>
<path d="M7018 4931 c-56 -35 -75 -62 -83 -117 -6 -37 -4 -44 39 -94 32 -37
44 -60 41 -74 -3 -12 -9 -59 -15 -105 -11 -92 -8 -100 40 -102 74 -3 144 1
154 10 8 7 9 40 4 118 -7 98 -6 109 12 128 85 91 22 245 -107 261 -31 3 -48
-2 -85 -25z"/>
<path d="M6994 4165 c-77 -46 -122 -148 -108 -242 5 -34 15 -51 49 -81 66 -58
128 -85 176 -77 93 16 188 122 189 210 0 47 -37 130 -71 162 -62 57 -166 70
-235 28z m149 -96 c31 -23 52 -86 43 -123 -7 -30 -70 -76 -104 -76 -31 0 -79
26 -92 49 -5 11 -10 36 -10 56 0 88 98 146 163 94z"/>
<path d="M7070 4017 c-44 -22 -37 -107 9 -107 26 0 63 44 59 70 -5 35 -37 52
-68 37z"/>
<path d="M4289 4233 c-23 -62 6 -106 58 -87 22 7 29 17 31 43 6 64 -67 101
-89 44z"/>
<path d="M4280 3971 c0 -33 0 -64 0 -68 0 -5 24 -8 53 -8 l52 0 -3 60 c-2 33
-6 62 -8 64 -1 2 -23 6 -49 8 l-45 6 0 -62z"/>
<path d="M4282 3675 l-3 -75 53 0 53 0 -3 75 -4 75 -47 0 -47 0 -2 -75z"/>
<path d="M4277 3403 c-4 -37 -5 -69 -3 -71 3 -2 26 -4 53 -5 l48 -2 3 73 3 72
-49 0 -49 0 -6 -67z"/>
<path d="M4267 3148 c-4 -18 -9 -68 -13 -111 l-7 -78 44 3 c39 3 46 7 61 38
10 20 18 64 19 105 l3 70 -51 3 c-50 3 -51 3 -56 -30z"/>
<path d="M1561 4544 c-37 -31 -41 -69 -10 -108 37 -47 101 -31 143 36 17 25
16 27 -15 62 -38 44 -74 47 -118 10z"/>
<path d="M2770 3914 c-233 -84 -275 -371 -81 -546 126 -114 328 -100 426 28
95 124 83 326 -25 434 -82 82 -224 119 -320 84z m167 -135 c60 -29 88 -66 103
-138 16 -77 4 -127 -45 -175 -82 -82 -217 -45 -278 75 -33 66 -34 90 -3 155
45 96 130 128 223 83z"/>
<path d="M7027 983 c-12 -11 -8 -23 8 -23 8 0 15 7 15 15 0 16 -12 20 -23 8z"/>
<path d="M7117 983 c-13 -12 -7 -23 13 -23 11 0 20 7 20 15 0 15 -21 21 -33 8z"/>
<path d="M6925 970 c-3 -5 3 -10 15 -10 12 0 18 5 15 10 -3 6 -10 10 -15 10
-5 0 -12 -4 -15 -10z"/>
<path d="M7240 970 c0 -5 11 -10 25 -10 14 0 25 5 25 10 0 6 -11 10 -25 10
-14 0 -25 -4 -25 -10z"/>
<path d="M6900 879 c0 -5 18 -9 41 -9 22 0 38 4 35 9 -8 12 -76 12 -76 0z"/>
<path d="M7010 881 c0 -6 9 -9 20 -8 11 1 20 5 20 9 0 4 -9 8 -20 8 -11 0 -20
-4 -20 -9z"/>
<path d="M7120 880 c0 -5 9 -10 20 -10 11 0 20 5 20 10 0 6 -9 10 -20 10 -11
0 -20 -4 -20 -10z"/>
<path d="M7180 880 c0 -5 5 -10 11 -10 5 0 7 5 4 10 -3 6 -8 10 -11 10 -2 0
-4 -4 -4 -10z"/>
<path d="M7210 879 c0 -5 23 -9 52 -9 28 0 48 3 45 7 -11 11 -97 13 -97 2z"/>
<path d="M6890 784 c0 -10 13 -14 45 -14 32 0 45 4 45 14 0 10 -13 14 -45 14
-32 0 -45 -4 -45 -14z"/>
<path d="M7005 792 c-14 -15 -1 -23 34 -21 24 2 37 7 35 14 -5 11 -59 17 -69
7z"/>
<path d="M7120 785 c0 -9 9 -15 25 -15 18 0 23 4 19 15 -4 8 -15 15 -25 15
-10 0 -19 -7 -19 -15z"/>
<path d="M7185 789 c-4 -6 -5 -13 -2 -16 7 -7 27 6 27 18 0 12 -17 12 -25 -2z"/>
<path d="M7226 791 c-8 -12 32 -24 63 -19 12 2 23 8 24 13 3 13 -79 19 -87 6z"/>
<path d="M4960 2546 c0 -9 -4 -14 -10 -11 -5 3 -10 1 -10 -4 0 -6 5 -11 10
-11 13 0 25 28 16 37 -3 4 -6 -1 -6 -11z"/>
<path d="M4744 2411 c-13 -15 -20 -17 -26 -8 -6 9 -8 9 -8 0 0 -7 -7 -13 -15
-13 -7 0 -19 -8 -24 -17 -6 -10 -11 -14 -11 -10 0 13 -40 -13 -40 -26 0 -8 3
-8 9 2 5 7 13 11 19 7 6 -3 17 3 25 15 9 13 17 16 22 10 3 -6 11 -11 16 -11 6
0 7 5 4 10 -3 6 -2 10 3 10 14 0 56 39 49 46 -3 3 -14 -3 -23 -15z"/>
<path d="M4570 2315 c-10 -12 -9 -15 4 -15 10 0 15 4 12 9 -4 5 0 12 6 14 8 4
9 6 2 6 -6 1 -17 -6 -24 -14z"/>
<path d="M4511 2283 c-7 -14 -9 -28 -5 -32 4 -3 9 0 11 7 3 6 8 10 13 7 14 -8
18 19 5 32 -10 9 -15 6 -24 -14z"/>
<path d="M4444 2256 c-10 -8 -16 -18 -11 -22 4 -4 7 -2 7 4 0 7 4 12 9 12 4 0
7 -12 5 -27 -2 -16 -1 -21 2 -13 4 8 10 20 15 25 4 6 4 16 0 23 -5 9 -12 9
-27 -2z"/>
<path d="M4410 2226 c0 -2 8 -10 18 -17 15 -13 16 -12 3 4 -13 16 -21 21 -21
13z"/>
<path d="M4320 2201 c0 -7 7 -19 15 -27 19 -20 19 -5 0 20 -9 11 -15 14 -15 7z"/>
<path d="M4386 2194 c-8 -21 -8 -24 5 -24 5 0 8 4 5 9 -4 5 -1 11 6 13 8 3 9
6 1 11 -6 4 -14 0 -17 -9z"/>
<path d="M4275 2169 c-4 -6 -5 -12 -2 -15 2 -3 7 2 10 11 7 17 1 20 -8 4z"/>
<path d="M4206 2134 c-5 -14 -4 -15 9 -4 17 14 19 20 6 20 -5 0 -12 -7 -15
-16z"/>
<path d="M4200 2066 c0 -2 7 -9 15 -16 13 -11 14 -10 9 4 -5 14 -24 23 -24 12z"/>
<path d="M4246 2033 c-6 -14 -5 -15 5 -6 7 7 10 15 7 18 -3 3 -9 -2 -12 -12z"/>
<path d="M2196 2205 c-116 -41 -164 -199 -93 -303 27 -38 27 -39 21 -159 -9
-154 -5 -159 115 -161 76 -2 84 0 108 24 21 21 24 31 19 62 -4 20 -11 74 -17
120 l-11 82 30 28 c30 28 52 84 52 132 0 32 -41 120 -66 142 -22 19 -87 48
-106 48 -7 -1 -30 -7 -52 -15z"/>
<path d="M7859 8472 c-5 -13 -9 -27 -9 -31 0 -19 44 -43 155 -84 66 -24 188
-72 270 -107 243 -101 463 -180 502 -180 30 0 31 32 2 59 -12 11 -74 41 -138
67 -225 91 -347 143 -436 184 -169 77 -283 120 -314 118 -14 -2 -27 -12 -32
-26z"/>
<path d="M8136 8052 c-15 -24 -18 -153 -18 -652 1 -713 9 -935 36 -952 21 -14
34 -8 47 25 11 26 14 164 14 750 0 631 2 717 15 717 8 0 87 -30 175 -66 88
-36 189 -76 225 -90 36 -14 67 -28 70 -31 3 -2 6 -161 6 -351 2 -365 10 -556
25 -584 10 -18 41 -14 37 6 -1 10 6 108 18 246 5 57 6 322 2 584 -3 171 4 156
-117 210 -36 15 -120 52 -186 81 -209 92 -334 130 -349 107z"/>
<path d="M7745 6650 c-97 -46 -135 -111 -171 -295 -23 -121 -30 -855 -8 -980
16 -98 66 -217 105 -254 16 -15 20 -24 12 -29 -8 -5 -6 -14 7 -32 l19 -25 -6
24 -6 24 44 -26 c76 -44 109 -45 178 -3 32 20 73 52 90 72 58 65 121 217 121
289 l0 25 303 0 c402 0 516 18 642 102 93 62 148 172 148 299 0 59 -5 86 -22
123 -65 133 -230 223 -418 229 -37 1 -160 -2 -273 -7 -114 -5 -249 -5 -302 -2
l-95 8 -5 67 c-7 98 -69 277 -114 330 -68 79 -163 102 -249 61z m145 -152 c23
-32 70 -148 70 -174 0 -2 -13 -4 -29 -4 -65 0 -107 -62 -141 -215 -55 -244
-17 -597 74 -688 22 -21 77 -22 118 -1 l31 16 -7 -32 c-10 -54 -56 -146 -87
-176 -27 -26 -30 -27 -68 -14 -62 20 -127 123 -158 247 -14 56 -17 126 -17
408 -1 353 3 404 45 531 11 34 36 80 55 103 47 55 74 54 114 -1z m109 -267
c28 -39 27 -42 -11 -34 -44 8 -52 17 -39 42 16 28 26 27 50 -8z m909 -183 c52
-16 76 -31 124 -78 l60 -58 -5 -79 c-6 -112 -19 -131 -119 -178 l-83 -40 -160
1 c-88 0 -171 1 -185 3 -42 3 -512 -8 -552 -14 -20 -3 -44 -8 -54 -12 -14 -5
-16 -3 -11 11 4 10 3 15 -3 11 -6 -3 -10 -3 -10 2 0 4 -5 37 -10 73 -8 55 -7
67 8 84 15 17 15 19 1 13 -13 -4 -18 3 -23 31 -5 32 6 146 18 183 2 8 7 26 10
41 l6 27 462 -1 c431 0 467 -1 526 -20z"/>
<path d="M7950 5781 c0 -5 7 -12 16 -15 14 -5 15 -4 4 9 -14 17 -20 19 -20 6z"/>
<path d="M9000 5771 c0 -6 4 -13 10 -16 6 -3 7 1 4 9 -7 18 -14 21 -14 7z"/>
<path d="M9035 5770 c-3 -5 -1 -10 4 -10 6 0 11 5 11 10 0 6 -2 10 -4 10 -3 0
-8 -4 -11 -10z"/>
<path d="M7900 5740 c0 -5 10 -10 23 -10 18 0 19 2 7 10 -19 13 -30 13 -30 0z"/>
<path d="M8860 5731 c0 -6 4 -12 8 -15 5 -3 9 1 9 9 0 8 -4 15 -9 15 -4 0 -8
-4 -8 -9z"/>
<path d="M8301 5693 c7 -12 15 -20 18 -17 3 2 -3 12 -13 22 -17 16 -18 16 -5
-5z"/>
<path d="M7910 5689 c0 -5 4 -8 9 -4 6 3 14 -3 20 -12 6 -10 11 -13 11 -7 0
12 -20 34 -32 34 -4 0 -8 -5 -8 -11z"/>
<path d="M8166 5687 c3 -10 9 -15 12 -12 3 3 0 11 -7 18 -10 9 -11 8 -5 -6z"/>
<path d="M8195 5690 c-3 -5 -1 -10 4 -10 6 0 11 5 11 10 0 6 -2 10 -4 10 -3 0
-8 -4 -11 -10z"/>
<path d="M8230 5686 c0 -8 4 -17 9 -20 5 -4 7 3 4 14 -6 23 -13 26 -13 6z"/>
<path d="M8518 5693 c7 -3 16 -2 19 1 4 3 -2 6 -13 5 -11 0 -14 -3 -6 -6z"/>
<path d="M8546 5683 c-6 -14 -5 -15 5 -6 7 7 10 15 7 18 -3 3 -9 -2 -12 -12z"/>
<path d="M8590 5697 c0 -2 6 -10 14 -16 11 -9 16 -9 22 1 4 7 4 10 -1 6 -4 -4
-14 -3 -22 3 -7 6 -13 9 -13 6z"/>
<path d="M8454 5678 c-4 -7 -4 -10 1 -6 4 4 15 2 24 -5 14 -11 14 -10 2 6 -16
20 -18 21 -27 5z"/>
<path d="M8775 5680 c-8 -13 5 -13 25 0 13 8 13 10 -2 10 -9 0 -20 -4 -23 -10z"/>
<path d="M8856 5681 c-4 -7 -5 -15 -2 -18 9 -9 19 4 14 18 -4 11 -6 11 -12 0z"/>
<path d="M8960 5680 c0 -5 7 -7 15 -4 8 4 15 8 15 10 0 2 -7 4 -15 4 -8 0 -15
-4 -15 -10z"/>
<path d="M8890 5670 c0 -5 9 -8 20 -7 21 1 18 10 -5 13 -8 1 -15 -2 -15 -6z"/>
<path d="M8385 5660 c3 -5 8 -10 11 -10 2 0 4 5 4 10 0 6 -5 10 -11 10 -5 0
-7 -4 -4 -10z"/>
<path d="M8159 5278 c-3 -17 -7 -28 -9 -30 -1 -2 -3 -14 -4 -28 -2 -14 -6 -38
-10 -53 -5 -15 -10 -49 -12 -75 -7 -82 -16 -3324 -9 -3359 5 -31 9 -33 45 -33
21 0 42 5 46 12 4 6 8 743 9 1637 2 1355 0 1642 -12 1721 -7 52 -16 115 -19
140 -5 42 -21 85 -25 68z"/>
<path d="M7747 4979 c12 -12 25 -20 28 -17 3 3 -7 13 -22 23 l-28 17 22 -23z"/>
<path d="M7826 4951 c-3 -4 6 -6 19 -3 14 2 25 6 25 8 0 8 -39 4 -44 -5z"/>
<path d="M7770 4911 c0 -6 5 -13 10 -16 6 -3 10 1 10 9 0 9 -4 16 -10 16 -5 0
-10 -4 -10 -9z"/>
<path d="M7851 4864 c-11 -14 -25 -23 -32 -19 -7 5 -10 1 -7 -10 4 -23 28 -32
28 -12 0 9 11 25 25 35 14 11 21 23 16 26 -5 4 -19 -5 -30 -20z"/>
<path d="M8724 4808 c-6 -13 -9 -33 -8 -45 1 -13 -1 -23 -5 -23 -7 0 -8 -35
-10 -585 -2 -391 3 -1045 14 -1890 4 -362 13 -500 31 -516 45 -38 48 35 49
1286 0 1308 -7 1706 -32 1724 -4 3 -10 17 -11 31 -5 36 -17 44 -28 18z"/>
<path d="M7915 4790 c3 -5 10 -10 16 -10 5 0 9 5 9 10 0 6 -7 10 -16 10 -8 0
-12 -4 -9 -10z"/>
<path d="M7860 4749 l-25 -21 30 7 c36 8 42 12 29 25 -5 5 -19 1 -34 -11z"/>
<path d="M7876 1492 c-9 -8 -7 -80 2 -85 12 -8 119 -17 261 -22 73 -3 136 -7
140 -9 3 -2 51 -7 106 -11 55 -4 159 -13 230 -19 176 -17 200 -16 200 9 0 11
-11 25 -25 32 -36 17 -236 50 -345 58 -49 3 -121 10 -160 15 -38 5 -101 9
-138 10 -38 0 -101 5 -140 10 -117 18 -125 18 -131 12z"/>
<path d="M1572 670 c-27 -11 -36 -32 -28 -64 13 -53 127 -60 146 -10 14 35 13
41 -10 64 -21 21 -68 25 -108 10z"/>
<path d="M1823 654 c-23 -23 -22 -54 2 -74 14 -12 149 -22 187 -14 33 7 55 53
39 82 -15 28 -36 33 -127 30 -65 -2 -83 -7 -101 -24z"/>
<path d="M2202 664 c-31 -22 -30 -69 3 -90 25 -16 27 -16 50 6 29 27 32 61 9
84 -19 20 -34 20 -62 0z"/>
</g>
</svg>
