<?xml version="1.0" standalone="no"?>
<!DOCTYPE svg PUBLIC "-//W3C//DTD SVG 20010904//EN"
 "http://www.w3.org/TR/2001/REC-SVG-20010904/DTD/svg10.dtd">
<svg version="1.0" xmlns="http://www.w3.org/2000/svg"
 width="1080.000000pt" height="1080.000000pt" viewBox="0 0 1080.000000 1080.000000"
 preserveAspectRatio="xMidYMid meet">

<g transform="translate(0.000000,1080.000000) scale(0.100000,-0.100000)"
fill="#000000" stroke="none">
<path d="M3824 9763 c-15 -34 -16 -610 -4 -1373 8 -548 9 -782 1 -825 -6 -33
-12 -217 -13 -408 l-3 -349 -50 6 c-338 41 -2776 45 -3115 5 -52 -6 -101 -15
-107 -21 -22 -18 -14 -31 14 -25 16 3 750 1 1633 -4 883 -5 1615 -7 1628 -4
12 3 22 12 22 19 0 8 4 16 9 18 10 3 33 2941 24 2966 -7 18 -30 15 -39 -5z"/>
<path d="M5963 9653 c-11 -25 -10 -565 2 -1153 l10 -495 7 235 c4 129 8 502
10 829 2 469 0 595 -9 598 -7 3 -16 -4 -20 -14z"/>
<path d="M4790 9328 c-7 -46 -7 -227 0 -238 19 -31 35 8 38 98 4 86 -8 142
-28 142 -5 0 -10 -1 -10 -2z"/>
<path d="M4785 8658 c0 -87 3 -103 16 -106 19 -4 29 35 29 112 0 67 -9 96 -29
96 -14 0 -16 -14 -16 -102z"/>
<path d="M4783 8242 c-3 -82 7 -116 28 -95 29 29 22 173 -9 173 -14 0 -17 -12
-19 -78z"/>
<path d="M4055 8253 c-33 -5 -57 -21 -50 -32 2 -4 7 -158 10 -342 6 -281 4
-352 -9 -445 -23 -154 -26 -358 -6 -378 43 -43 349 -85 468 -65 37 6 78 18 91
26 23 15 23 16 17 146 -3 73 -10 184 -15 247 -13 151 -12 540 0 610 19 104 21
156 7 167 -23 18 -93 30 -149 25 -36 -3 -77 3 -124 16 -72 21 -187 33 -240 25z
m205 -59 c30 -8 99 -19 152 -23 115 -10 132 -20 123 -70 -3 -20 -11 -83 -18
-141 l-12 -105 -85 7 c-47 3 -147 6 -222 7 l-138 1 0 164 0 165 33 4 c70 9
115 6 167 -9z m225 -366 c4 -3 2 -16 -5 -27 -9 -17 -8 -22 4 -27 8 -3 20 -3
26 1 7 4 10 -51 10 -173 0 -148 -3 -181 -15 -185 -8 -4 -20 -28 -28 -54 l-14
-48 -79 -8 c-157 -16 -263 -18 -283 -8 -24 14 -41 68 -41 137 0 27 -4 54 -8
60 -4 5 -6 83 -4 174 l4 165 213 0 c117 0 216 -3 220 -7z m38 -788 c-9 -10
-231 -11 -334 -2 -118 11 -165 29 -175 67 -3 14 -1 70 6 124 l13 99 23 -28
c38 -45 72 -53 181 -45 54 3 123 8 153 9 30 1 63 3 73 4 9 1 25 18 35 39 l17
36 6 -149 c4 -82 4 -151 2 -154z"/>
<path d="M4788 7863 c-2 -5 -4 -44 -3 -87 0 -54 4 -81 12 -83 28 -10 46 115
23 158 -11 19 -26 25 -32 12z"/>
<path d="M5927 7654 c-35 -141 -45 -253 -57 -674 -6 -190 -12 -353 -14 -362
-2 -10 2 -22 9 -28 48 -40 655 -53 2160 -47 1397 6 1635 15 1635 60 0 10 -282
13 -1322 15 -728 1 -1572 5 -1877 9 l-554 6 6 361 c4 278 10 402 27 540 26
226 23 261 -13 120z"/>
<path d="M4756 7123 c7 -161 15 -193 41 -171 13 11 15 32 10 144 -5 133 -15
174 -43 174 -13 0 -14 -20 -8 -147z"/>
<path d="M6118 6423 c-13 -22 -15 -46 -11 -119 5 -77 2 -104 -17 -165 -24 -79
-42 -257 -28 -274 15 -17 197 -22 488 -14 388 11 648 11 669 0 30 -17 181 -32
201 -21 18 9 19 26 16 273 -1 145 -6 268 -9 274 -5 8 -19 8 -49 0 -25 -7 -144
-11 -288 -12 -200 0 -258 3 -317 18 -40 9 -106 17 -147 17 -41 0 -86 4 -101
10 -35 13 -255 40 -330 40 -56 0 -62 -2 -77 -27z m187 -43 c50 -5 114 -10 143
-10 28 0 52 -1 52 -3 0 -1 -9 -20 -20 -42 -15 -30 -20 -59 -20 -125 0 -105 19
-174 64 -233 l34 -44 -215 -7 c-118 -4 -220 -8 -227 -9 -14 -3 -21 120 -7 137
13 16 28 116 36 249 l7 109 32 -6 c17 -3 72 -10 121 -16z m478 -37 c60 -15
117 -18 340 -17 l267 0 0 -221 c0 -163 3 -224 13 -234 10 -10 1 -11 -43 -5
-30 3 -75 11 -100 16 -25 5 -89 15 -142 21 l-97 12 19 25 c33 42 42 92 26 142
-8 24 -16 78 -19 122 -6 79 -16 104 -36 92 -15 -9 -13 -57 4 -136 24 -109 20
-156 -17 -206 l-33 -43 -170 6 c-93 3 -172 9 -175 13 -3 4 -15 12 -27 18 -12
7 -36 38 -55 69 -32 56 -33 61 -33 172 l0 113 35 29 c30 26 42 29 103 29 37 0
100 -8 140 -17z"/>
<path d="M4595 6151 c-33 -15 -105 -81 -105 -97 0 -26 32 -15 77 27 l45 41 83
-4 c71 -4 95 -10 158 -41 140 -69 162 -99 160 -226 0 -77 -3 -86 -24 -104 -20
-16 -34 -18 -90 -13 -100 9 -167 -7 -206 -48 -17 -19 -36 -52 -42 -73 -11 -44
-18 -239 -8 -249 3 -4 14 -4 23 0 15 6 16 18 10 99 -7 109 2 149 46 194 l32
33 104 0 c116 0 162 14 181 56 6 14 11 65 11 115 0 140 -21 169 -181 250 -74
37 -91 42 -168 45 -47 2 -95 0 -106 -5z"/>
<path d="M952 5837 c-23 -27 5 -32 173 -32 88 0 166 -2 174 -5 8 -3 16 2 18
11 5 23 -19 28 -197 35 -134 6 -157 5 -168 -9z"/>
<path d="M1636 5843 c-16 -16 -2 -31 33 -37 44 -7 95 8 89 26 -4 12 -111 22
-122 11z"/>
<path d="M2065 5840 c-16 -27 18 -35 153 -38 136 -3 198 6 190 30 -6 16 -333
24 -343 8z"/>
<path d="M2931 5806 c-10 -12 -8 -17 11 -28 33 -19 433 -19 467 0 13 8 19 18
15 22 -5 5 -115 12 -245 15 -201 5 -237 4 -248 -9z"/>
<path d="M9175 5659 c-15 -22 25 -37 121 -44 98 -8 252 1 291 16 13 5 23 14
23 21 0 19 -424 25 -435 7z"/>
<path d="M7730 5649 c-47 -4 -86 -13 -88 -18 -2 -6 -4 -14 -5 -18 -2 -8 377
-5 406 3 21 7 22 30 1 38 -21 8 -209 5 -314 -5z"/>
<path d="M8393 5654 c-22 -10 -14 -33 15 -41 15 -5 108 -8 207 -8 186 0 235 6
235 29 0 10 -36 13 -167 15 -93 1 -193 3 -223 6 -30 2 -61 2 -67 -1z"/>
<path d="M6015 5629 c-13 -21 16 -33 85 -37 91 -5 140 4 140 26 0 15 -14 17
-109 20 -72 1 -112 -2 -116 -9z"/>
<path d="M6651 5626 c-26 -32 29 -40 269 -39 220 0 287 8 278 33 -2 7 -102 13
-269 16 -234 5 -266 4 -278 -10z"/>
<path d="M2785 5558 c-49 -6 -157 -11 -240 -12 -82 -1 -156 -5 -162 -9 -8 -5
-13 -32 -13 -72 0 -37 -11 -107 -25 -162 -14 -54 -31 -155 -37 -226 -11 -115
-10 -129 5 -144 15 -15 48 -16 324 -14 222 1 333 6 398 17 70 12 151 15 367
12 188 -2 280 0 288 8 14 14 16 151 3 319 -18 229 -15 221 -111 264 -57 25
-58 25 -382 27 -179 1 -365 -3 -415 -8z m670 -48 c3 -5 27 -10 52 -10 25 0 63
-5 83 -11 34 -10 39 -16 44 -53 9 -55 30 -426 25 -430 -2 -2 -119 -6 -260 -8
l-256 -3 37 42 c45 52 46 56 60 280 6 98 13 184 15 191 5 15 191 17 200 2z
m-762 -29 c-47 -34 -88 -117 -78 -160 3 -15 -1 -43 -10 -64 -40 -95 1 -287 62
-287 20 0 16 27 -12 68 -28 41 -33 112 -16 227 21 145 41 179 116 199 36 9 50
17 49 29 -2 15 18 17 202 17 l204 0 -2 -37 c-1 -21 0 -100 2 -175 3 -131 2
-139 -24 -192 -36 -74 -88 -114 -174 -132 -52 -12 -132 -14 -364 -12 l-296 3
-5 40 c-8 55 9 180 38 297 14 53 25 117 25 142 l0 46 78 1 c64 1 203 11 236
17 5 1 -9 -11 -31 -27z"/>
<path d="M4646 5199 c-51 -12 -76 -35 -76 -69 0 -46 30 -63 123 -67 45 -3 92
-9 104 -15 31 -15 35 -9 37 58 1 50 -2 59 -24 75 -31 22 -112 31 -164 18z
m-29 -71 c-3 -8 -6 -5 -6 6 -1 11 2 17 5 13 3 -3 4 -12 1 -19z m120 -24 c-3
-3 -12 -4 -19 -1 -8 3 -5 6 6 6 11 1 17 -2 13 -5z"/>
<path d="M5904 4789 c-13 -22 24 -39 111 -50 64 -9 557 -13 1690 -16 1783 -5
2053 1 2099 47 13 13 -12 33 -29 21 -5 -4 -572 -4 -1260 0 -1975 11 -2603 11
-2611 -2z"/>
<path d="M1825 4780 c-293 -8 -426 -20 -452 -42 -8 -6 -12 -12 -10 -14 1 -2
569 -6 1261 -10 1067 -6 1260 -5 1268 7 7 10 8 5 3 -16 -16 -77 -16 -993 0
-2112 14 -933 15 -1228 7 -1282 -16 -97 -16 -111 7 -111 18 0 19 14 25 273 3
149 8 948 11 1775 4 1362 3 1503 -11 1509 -9 3 -19 0 -24 -6 -5 -10 -17 -10
-49 -1 -23 6 -112 15 -199 20 -216 13 -1470 20 -1837 10z"/>
<path d="M5895 4688 c-15 -48 -17 -474 -5 -1070 9 -453 10 -643 2 -710 -6 -51
-16 -138 -23 -193 -36 -321 -25 -738 19 -711 4 2 9 124 11 271 2 179 6 273 14
288 12 24 22 788 22 1722 0 379 -2 420 -16 423 -10 2 -19 -6 -24 -20z"/>
<path d="M5112 4658 c-8 -8 -12 -47 -12 -116 0 -57 -5 -133 -10 -170 -20 -133
-44 -521 -44 -732 -1 -253 3 -270 71 -282 23 -4 78 -18 122 -32 84 -27 238
-55 319 -58 29 -1 63 5 85 15 l37 18 -7 297 c-5 163 -8 444 -8 623 0 296 2
329 18 360 15 28 17 39 8 63 -9 21 -16 26 -29 21 -25 -10 -204 -26 -366 -32
-133 -4 -140 -4 -156 16 -12 17 -18 19 -28 9z m538 -63 c-5 -13 -12 -72 -16
-129 l-7 -104 -26 11 c-15 6 -115 12 -229 15 -187 4 -205 3 -224 -14 l-21 -19
6 70 c4 39 7 93 7 120 l0 50 147 1 c119 1 256 9 360 22 9 2 10 -5 3 -23z
m-105 -256 c37 -9 44 -15 47 -38 2 -17 9 -26 19 -25 15 1 16 -30 12 -325 -4
-280 4 -570 18 -621 6 -22 -105 -25 -216 -5 -320 56 -335 62 -335 117 0 18 -5
68 -12 112 -7 49 -8 111 -4 159 l8 78 38 -35 c40 -36 61 -42 240 -71 137 -22
176 -20 204 8 28 28 44 101 26 122 -17 21 -28 10 -41 -40 -17 -68 -24 -70
-142 -55 -150 18 -238 37 -258 56 -10 9 -26 42 -35 72 -14 50 -15 78 -5 237
16 256 12 244 69 246 20 1 48 5 62 9 38 12 255 11 305 -1z"/>
<path d="M4829 4623 c-12 -33 -5 -93 13 -104 20 -12 23 -4 23 62 0 69 -17 90
-36 42z"/>
<path d="M4864 4249 c-12 -20 -17 -160 -7 -199 5 -19 16 -35 23 -35 19 0 22
236 3 242 -6 2 -15 -2 -19 -8z"/>
<path d="M4851 3581 c-12 -21 -15 -188 -5 -215 3 -9 12 -16 19 -16 8 0 12 26
14 91 1 51 4 102 7 114 3 13 -1 27 -10 34 -12 10 -17 9 -25 -8z"/>
<path d="M4881 2881 c-17 -31 -14 -243 3 -267 8 -10 17 -16 21 -13 3 4 7 71 8
149 1 103 -1 144 -10 147 -6 2 -16 -5 -22 -16z"/>
<path d="M4872 2277 c-29 -34 -22 -172 8 -172 10 0 14 21 17 87 4 84 -4 111
-25 85z"/>
<path d="M4846 1814 c-10 -26 -7 -144 4 -165 20 -36 28 -19 29 57 1 42 3 80 6
84 8 13 -6 40 -20 40 -7 0 -16 -7 -19 -16z"/>
</g>
</svg>
