<?xml version="1.0" standalone="no"?>
<!DOCTYPE svg PUBLIC "-//W3C//DTD SVG 20010904//EN"
 "http://www.w3.org/TR/2001/REC-SVG-20010904/DTD/svg10.dtd">
<svg version="1.0" xmlns="http://www.w3.org/2000/svg"
 width="1080.000000pt" height="1080.000000pt" viewBox="0 0 1080.000000 1080.000000"
 preserveAspectRatio="xMidYMid meet">

<g transform="translate(0.000000,1080.000000) scale(0.100000,-0.100000)"
fill="#000000" stroke="none">
<path d="M7555 9774 c-22 -2 -92 -9 -155 -15 -291 -27 -643 -135 -960 -294
-133 -67 -392 -295 -477 -420 -53 -78 -124 -220 -158 -317 l-28 -78 -41 0
c-40 0 -66 6 -153 32 -99 29 -67 -41 96 -212 50 -52 91 -98 91 -102 0 -5 6 -8
13 -8 6 0 23 -9 37 -20 14 -11 31 -20 38 -20 17 0 15 30 -4 51 -16 17 -14 21
18 57 19 22 53 65 75 98 22 32 50 68 62 78 11 11 21 25 21 32 0 17 -77 28
-150 21 l-59 -5 25 72 c63 177 137 297 272 438 190 199 410 326 771 445 305
100 500 127 901 128 265 0 280 -1 399 -28 276 -63 384 -121 572 -307 128 -126
155 -169 226 -357 20 -54 44 -109 54 -123 31 -43 79 -232 103 -407 l6 -43
-124 0 c-68 0 -131 -3 -140 -6 -29 -11 -16 -35 29 -54 45 -19 227 -181 252
-224 7 -12 12 -32 13 -47 0 -14 5 -30 12 -37 16 -16 48 13 48 44 0 31 114 256
145 285 47 45 36 52 -78 44 l-104 -7 -12 63 c-34 174 -93 383 -117 410 -8 9
-27 54 -43 102 -63 184 -149 312 -301 447 -168 148 -263 193 -535 256 -111 25
-138 27 -360 30 -132 1 -258 0 -280 -2z m-1843 -1160 c43 -5 55 -10 51 -20 -3
-8 -8 -37 -12 -66 l-6 -51 -72 62 c-86 75 -98 96 -51 88 18 -3 59 -9 90 -13z
m219 -43 c-55 -70 -123 -141 -133 -141 -12 0 -6 148 6 168 4 8 35 12 82 12
l76 0 -31 -39z m3399 -146 c0 -3 -12 -24 -27 -48 -14 -23 -36 -64 -48 -92
l-22 -50 -7 65 c-4 36 -9 77 -12 92 -5 25 -2 27 33 31 68 7 83 7 83 2z m-156
-36 c3 -17 6 -57 6 -89 l0 -57 -47 46 c-27 26 -70 66 -98 89 l-50 42 91 0 92
0 6 -31z"/>
<path d="M5575 8041 c-50 -12 -166 -78 -233 -131 -51 -42 -68 -65 -102 -134
-22 -46 -52 -127 -65 -181 -25 -99 -55 -338 -55 -442 l0 -58 -138 -1 c-257 -1
-307 -38 -352 -263 -28 -137 -38 -265 -46 -553 l-7 -238 -28 0 c-15 0 -35 -3
-45 -7 -15 -6 -16 -1 -10 48 11 81 35 196 57 268 15 49 19 93 19 195 0 220
-22 281 -146 415 -71 77 -97 85 -238 78 -124 -6 -251 -40 -384 -104 -85 -40
-189 -138 -292 -274 -77 -103 -112 -172 -162 -324 -32 -94 -41 -139 -44 -210
-6 -131 -8 -133 -211 -210 -63 -24 -133 -56 -155 -71 -124 -87 -221 -280 -262
-524 -37 -221 -45 -336 -52 -678 -6 -269 -10 -352 -20 -352 -18 0 -25 -26 -31
-120 l-6 -85 -66 -70 c-120 -127 -302 -345 -434 -519 -154 -203 -189 -246
-326 -391 -123 -130 -175 -194 -378 -466 -83 -112 -219 -284 -302 -382 -83
-98 -216 -264 -296 -370 -80 -106 -170 -221 -201 -256 -39 -45 -53 -66 -45
-74 28 -28 117 68 286 308 108 154 161 221 321 406 58 68 197 246 309 394 111
149 254 325 316 393 170 183 218 240 361 430 123 162 282 345 395 455 l50 49
6 -364 c5 -346 12 -427 36 -451 16 -16 38 7 24 25 -6 8 -6 155 -1 418 5 223 9
451 9 508 0 91 2 105 21 124 21 21 21 24 14 317 -8 331 -1 440 44 706 45 264
98 393 204 493 49 46 146 102 177 102 31 0 180 75 210 106 33 34 34 39 40 132
7 112 55 271 119 399 42 84 148 222 233 303 119 114 375 201 556 188 85 -6
126 -28 166 -90 17 -26 40 -55 52 -65 41 -36 55 -98 61 -260 4 -144 3 -159
-23 -257 -26 -99 -29 -104 -49 -96 -51 19 -123 -26 -162 -102 -18 -35 -22
-124 -6 -140 19 -19 32 3 32 57 0 46 5 59 30 89 17 19 48 40 68 47 20 6 42 15
47 20 7 5 7 -19 -1 -73 -17 -119 -14 -124 80 -130 36 -3 41 -6 48 -35 10 -37
33 -44 43 -13 9 27 13 26 75 -18 88 -61 195 -207 232 -318 35 -104 53 -468 28
-580 -14 -64 -68 -236 -141 -454 -45 -134 -59 -189 -59 -233 0 -32 -5 -67 -10
-78 -17 -31 -16 -189 1 -199 25 -16 32 7 35 102 4 185 18 253 113 540 49 150
95 300 101 333 14 68 7 396 -11 505 -12 74 -51 161 -114 256 l-45 66 11 72 c6
39 19 87 29 106 25 50 43 175 29 202 -20 36 -38 1 -45 -87 -4 -44 -12 -87 -19
-95 -8 -8 -19 -44 -26 -80 -7 -36 -14 -66 -15 -68 -1 -2 -20 9 -41 25 -22 16
-59 37 -81 47 l-42 19 -2 231 c-3 299 -1 380 17 501 21 141 35 195 57 233 34
56 58 62 241 62 217 0 207 -10 207 197 0 134 3 164 30 269 61 247 109 332 232
415 99 68 139 81 259 87 101 4 111 3 161 -21 110 -54 195 -154 244 -289 20
-55 37 -233 38 -410 1 -176 1 -175 118 -158 49 7 150 11 249 9 162 -4 166 -5
201 -31 20 -15 50 -48 67 -74 44 -66 109 -240 121 -320 13 -92 12 -383 -2
-514 -6 -58 -11 -189 -12 -292 -1 -102 -5 -190 -9 -195 -14 -13 -31 -9 -49 12
-15 17 -19 18 -28 5 -5 -8 -10 -25 -10 -37 0 -17 -6 -23 -24 -23 -30 0 -44 17
-54 65 -4 21 -12 40 -17 42 -6 1 -23 -23 -40 -55 -24 -46 -35 -57 -55 -57 -24
0 -25 3 -28 60 -1 33 -11 89 -22 125 -10 36 -26 121 -35 190 -41 322 -54 380
-82 380 -24 0 -25 -26 -4 -95 12 -37 21 -91 21 -120 0 -29 7 -72 15 -96 9 -24
20 -87 25 -139 5 -57 18 -114 30 -142 17 -39 19 -59 14 -110 -7 -71 4 -93 49
-104 23 -5 33 0 61 29 l34 36 23 -25 c17 -18 32 -24 51 -22 l27 4 3 -340 c2
-188 2 -343 0 -345 -1 -3 -91 6 -200 18 -335 38 -1289 56 -1299 24 -11 -31 50
-35 462 -28 432 7 516 3 849 -37 l189 -23 14 -32 c9 -23 13 -82 13 -198 0
-140 2 -167 15 -172 9 -3 19 -2 23 2 4 4 7 92 6 196 0 129 3 189 10 189 6 0
81 -14 166 -31 163 -32 235 -35 235 -9 0 22 -58 38 -228 61 -84 11 -162 22
-174 25 l-23 4 0 365 c0 285 3 365 13 366 6 1 20 0 30 -1 36 -3 49 59 47 234
-1 89 3 265 10 391 15 285 6 431 -35 550 -65 186 -132 288 -212 322 -54 22
-170 27 -318 13 -71 -7 -143 -13 -160 -14 l-30 -1 -1 135 c-3 282 -29 413
-108 547 -39 67 -79 103 -182 163 -68 40 -69 40 -169 39 -55 -1 -114 -4 -130
-8z"/>
<path d="M9090 7521 c-82 -27 -160 -69 -203 -110 -45 -43 -111 -147 -102 -161
13 -22 33 -8 56 41 29 63 88 117 175 158 127 61 233 69 305 22 66 -43 125
-109 156 -176 26 -57 28 -70 33 -235 3 -96 8 -180 12 -186 4 -6 28 -14 53 -17
124 -17 273 -187 322 -368 15 -56 17 -117 17 -514 -1 -263 -6 -502 -13 -575
-16 -176 -32 -366 -34 -425 -2 -39 1 -50 15 -53 17 -3 17 -3 38 233 5 61 15
169 21 240 8 79 13 308 13 580 0 506 -2 527 -72 659 -67 128 -211 256 -288
256 -52 0 -55 12 -52 192 l3 164 -38 76 c-41 84 -115 161 -190 197 -54 26
-149 27 -227 2z"/>
<path d="M5385 7509 c-10 -15 1 -23 20 -15 9 3 13 10 10 16 -8 13 -22 13 -30
-1z"/>
<path d="M5700 7504 c0 -9 5 -14 12 -12 18 6 21 28 4 28 -9 0 -16 -7 -16 -16z"/>
<path d="M5465 7436 c-46 -20 -57 -40 -63 -112 -4 -61 -3 -66 14 -62 15 2 20
15 24 56 7 63 24 83 82 89 40 5 47 2 66 -22 16 -20 22 -42 22 -77 0 -42 3 -49
18 -46 22 4 27 52 12 108 -19 69 -98 100 -175 66z"/>
<path d="M7185 6970 c-23 -37 77 -49 505 -56 508 -9 826 11 809 50 -6 15
-1304 21 -1314 6z"/>
<path d="M4243 6564 c-3 -8 1 -22 9 -30 13 -13 16 -13 27 0 7 9 11 23 7 31 -7
20 -35 19 -43 -1z"/>
<path d="M7227 6208 c-17 -13 -17 -15 -3 -27 30 -25 200 -33 826 -38 789 -6
1120 8 1120 50 0 9 -151 13 -667 15 -368 1 -801 5 -963 8 -244 5 -298 4 -313
-8z"/>
<path d="M7670 5437 c-122 -24 -225 -83 -267 -154 -50 -85 -80 -223 -49 -223
14 0 26 42 26 95 0 62 109 182 193 213 68 25 189 45 225 37 30 -6 53 -38 77
-104 8 -22 32 -67 53 -98 59 -87 64 -100 73 -181 5 -41 14 -81 21 -89 13 -16
34 -15 183 3 47 6 54 3 95 -28 70 -53 99 -109 111 -214 12 -107 5 -910 -9
-1134 -6 -85 -17 -186 -26 -225 -16 -71 -21 -170 -10 -199 10 -26 32 -18 39
14 4 17 4 47 1 68 -3 21 1 66 10 102 25 105 37 393 38 910 1 476 1 486 -21
556 -20 62 -31 79 -80 124 -31 29 -67 56 -80 61 -34 13 -170 11 -195 -2 -27
-14 -38 2 -38 58 0 56 -27 125 -77 199 -23 33 -54 89 -70 124 -16 36 -37 71
-47 79 -23 19 -98 23 -176 8z"/>
<path d="M4439 5128 c-9 -16 -11 -137 -9 -447 1 -234 -1 -452 -5 -484 -6 -49
-4 -62 11 -79 23 -24 83 -20 123 9 19 14 38 18 70 15 l43 -4 -6 -58 c-9 -74
-9 -661 -1 -732 8 -63 24 -110 37 -106 6 2 12 189 15 479 6 481 3 521 -29 469
-14 -23 -60 -27 -76 -7 -6 6 -12 26 -14 42 -5 46 -30 38 -43 -13 -11 -48 -36
-72 -73 -72 -23 0 -24 2 -18 43 24 160 36 875 15 936 -13 37 -24 39 -40 9z"/>
<path d="M10392 4733 c-11 -16 -58 -107 -104 -203 -46 -96 -112 -219 -147
-273 -133 -209 -194 -328 -341 -667 -146 -335 -191 -422 -415 -805 -199 -339
-249 -430 -425 -775 -103 -201 -246 -471 -320 -600 -73 -129 -148 -266 -166
-305 -47 -103 -97 -266 -85 -278 19 -19 39 13 56 88 20 92 74 203 249 510 75
132 207 380 293 550 173 344 217 424 457 835 176 301 294 530 396 770 90 212
229 490 303 606 113 178 297 523 297 559 0 24 -27 17 -48 -12z"/>
<path d="M5250 4411 c-21 -14 -3 -30 46 -42 162 -38 1712 -39 1942 -1 60 10
67 15 58 38 -5 13 -9 14 -21 4 -10 -8 -41 -10 -102 -6 -172 11 -1907 17 -1923
7z"/>
<path d="M6358 4023 c-14 -16 -50 -62 -80 -104 -30 -42 -85 -114 -124 -158
l-69 -82 -378 4 c-310 3 -379 1 -389 -10 -6 -7 -8 -16 -5 -20 17 -16 121 -22
410 -23 l317 0 -73 -87 c-125 -151 -147 -180 -147 -197 0 -50 59 7 185 178
l80 108 255 -6 c254 -6 370 -16 633 -56 105 -16 142 -18 158 -9 19 10 20 13 7
25 -28 28 -243 50 -918 90 l-94 6 25 22 c45 39 228 255 248 293 28 54 1 71
-41 26z"/>
<path d="M5457 2850 c-19 -16 -69 -80 -112 -142 -179 -258 -244 -348 -327
-456 -88 -112 -103 -142 -71 -142 36 0 186 193 358 460 65 102 140 207 167
234 26 27 48 55 48 62 0 23 -27 16 -63 -16z"/>
<path d="M4670 1735 c0 -46 -86 -172 -234 -341 -76 -88 -136 -172 -136 -191 0
-7 8 -13 18 -13 13 0 26 15 38 43 10 23 60 85 110 137 126 133 239 304 232
352 -4 26 -28 37 -28 13z"/>
</g>
</svg>
