<?xml version="1.0" standalone="no"?>
<!DOCTYPE svg PUBLIC "-//W3C//DTD SVG 20010904//EN"
 "http://www.w3.org/TR/2001/REC-SVG-20010904/DTD/svg10.dtd">
<svg version="1.0" xmlns="http://www.w3.org/2000/svg"
 width="7725.000000pt" height="8079.000000pt" viewBox="0 0 7725.000000 8079.000000"
 preserveAspectRatio="xMidYMid meet">

<g transform="translate(0.000000,8079.000000) scale(0.100000,-0.100000)"
fill="#000000" stroke="none">
<path d="M42190 78936 c-839 -122 -1497 -738 -1815 -1700 -71 -217 -136 -517
-339 -1576 -695 -3623 -1690 -10223 -2800 -18580 -189 -1420 -516 -3934 -516
-3965 0 -7 -24 -27 -52 -43 -29 -17 -72 -50 -94 -74 -39 -41 -5615 -7767
-5688 -7881 -49 -76 -83 -156 -112 -262 -28 -100 -34 -198 -54 -900 -6 -203
-17 -550 -26 -770 -8 -220 -16 -560 -17 -755 -2 -326 0 -359 17 -400 10 -25
24 -76 32 -115 37 -187 170 -318 351 -345 37 -6 543 -24 1123 -40 6115 -173
11010 -293 23415 -575 7344 -167 9048 -206 11285 -261 806 -20 1650 -37 1875
-38 l410 -1 57 27 c32 15 76 42 99 60 32 25 214 292 734 1073 1911 2874 2156
3262 3795 6020 288 484 547 918 576 965 67 109 80 155 104 380 12 102 66 552
120 1000 163 1340 173 1430 174 1550 1 110 0 118 -31 183 -56 119 -183 218
-298 234 -36 4 -44 9 -40 22 455 1436 931 4612 1539 10291 203 1886 376 3603
791 7810 74 756 196 1980 270 2720 74 740 140 1410 147 1490 17 198 17 916 0
1080 -68 655 -219 1122 -493 1525 -495 729 -1338 1121 -2719 1264 -440 46
-917 70 -2310 116 -3209 105 -7145 174 -16895 295 -6070 75 -9415 125 -11340
170 -827 19 -1172 21 -1275 6z m1250 -841 c2810 -58 5123 -92 11365 -170 7585
-94 10644 -141 13735 -210 1948 -44 3916 -104 4725 -145 1707 -87 2515 -406
2885 -1140 215 -426 297 -1067 239 -1875 -6 -77 -70 -743 -144 -1480 -74 -737
-218 -2188 -320 -3225 -328 -3327 -499 -5023 -680 -6735 -652 -6166 -1153
-9530 -1615 -10840 -18 -49 -35 -93 -38 -97 -4 -4 -162 -2 -352 3 -190 5
-1337 34 -2550 64 -16258 406 -33130 851 -33130 872 0 28 373 2879 560 4283
991 7432 1881 13403 2546 17085 142 789 382 2027 440 2275 137 587 455 1047
859 1245 186 92 317 116 590 109 99 -3 497 -11 885 -19z m-5140 -25840 c5433
-157 18385 -495 33053 -862 1739 -43 2317 -61 2315 -70 -2 -6 -1078 -1690
-2393 -3743 l-2390 -3731 -235 6 c-2218 56 -7263 140 -16170 270 -10964 160
-14824 223 -18730 305 -1844 39 -2063 46 -2098 64 -49 25 -72 62 -72 116 0 44
7 58 78 157 42 59 1281 1777 2752 3817 l2675 3709 180 -7 c99 -3 565 -18 1035
-31z m35456 -2682 l-45 -372 -569 -958 c-1508 -2537 -1809 -3018 -3202 -5125
l-395 -597 -3 47 c-1 26 1 214 6 417 l7 370 2120 3307 c1166 1819 2121 3302
2123 3295 1 -6 -18 -179 -42 -384z m-41381 -5948 c4388 -98 8180 -161 19420
-325 9401 -137 14089 -214 16370 -270 220 -5 433 -10 474 -10 l74 0 -6 -264
c-6 -230 -21 -634 -43 -1125 l-6 -144 -262 7 c-1377 35 -5270 125 -11456 266
-12592 286 -17995 416 -22780 550 -586 16 -1402 39 -1815 50 -412 12 -770 23
-794 26 l-44 6 6 271 c9 368 26 858 33 933 l5 60 67 -8 c37 -4 378 -14 757
-23z"/>
<path d="M44310 76246 c-643 -94 -1162 -515 -1466 -1189 -60 -131 -145 -390
-178 -537 -94 -425 -680 -4465 -1265 -8725 -370 -2692 -1095 -8085 -1137
-8454 -21 -183 -21 -528 0 -692 72 -575 289 -1018 687 -1405 446 -434 1066
-706 1759 -774 166 -16 26319 -662 26560 -656 113 3 250 12 305 21 606 96
1184 342 1660 704 132 100 375 342 463 461 125 169 205 327 256 503 50 171
303 1662 482 2832 293 1920 496 3548 914 7320 397 3580 610 5333 832 6850 65
445 67 460 78 656 12 204 2 458 -26 648 -102 699 -421 1230 -952 1584 -305
203 -712 342 -1173 402 -413 53 -2999 129 -6299 185 -2296 39 -4831 70 -10125
125 -5577 57 -8301 94 -10200 135 -896 19 -1074 20 -1175 6z m890 -836 c2734
-54 4626 -79 10485 -140 7365 -76 10301 -118 13090 -185 1369 -33 2820 -83
3095 -105 515 -43 875 -180 1138 -435 230 -221 361 -517 408 -919 13 -111 15
-187 10 -356 -4 -118 -10 -237 -15 -265 -19 -111 -136 -954 -206 -1475 -199
-1490 -368 -2915 -670 -5655 -373 -3374 -544 -4783 -795 -6535 -170 -1191
-384 -2520 -554 -3442 -38 -208 -63 -273 -156 -398 -55 -75 -216 -233 -305
-301 -384 -294 -902 -501 -1368 -549 -76 -8 -2985 61 -13215 314 -7214 179
-13172 327 -13240 331 -574 27 -1068 234 -1412 591 -117 122 -181 212 -253
354 -131 260 -182 600 -147 975 17 179 585 4423 956 7140 736 5397 1359 9704
1455 10064 113 427 345 758 634 908 145 75 284 104 470 96 50 -2 317 -8 595
-13z"/>
<path d="M50071 71837 c-27 -10 -56 -40 -133 -142 -152 -201 -215 -338 -257
-558 -61 -320 -21 -644 114 -924 52 -106 136 -205 191 -223 78 -26 139 21 132
102 -4 39 -13 56 -56 103 -60 68 -101 148 -138 270 -25 83 -28 107 -32 300 -2
134 0 236 8 285 38 241 95 368 260 574 50 63 55 74 55 117 0 39 -5 53 -25 73
-31 29 -74 38 -119 23z"/>
<path d="M49240 71808 c-75 -29 -150 -105 -180 -183 -17 -45 -25 -97 -33 -206
l-11 -147 -47 -6 c-108 -15 -134 -128 -40 -176 22 -11 48 -20 58 -20 18 0 18
-12 -2 -307 -14 -197 -18 -320 -13 -341 19 -70 121 -95 179 -44 25 22 31 35
30 67 -1 45 26 472 35 553 l5 52 125 0 c139 0 194 14 213 56 15 33 14 49 -3
83 -23 43 -76 59 -203 64 -62 2 -115 6 -118 8 -2 3 0 61 6 129 11 144 31 199
81 230 40 25 67 20 160 -26 85 -43 147 -46 183 -9 27 26 34 80 15 115 -17 32
-93 78 -173 105 -96 32 -189 33 -267 3z"/>
<path d="M51368 71735 c-15 -9 -31 -30 -38 -51 -12 -35 -10 -41 74 -208 119
-236 136 -304 136 -555 0 -264 -33 -438 -117 -611 -40 -83 -57 -107 -139 -186
-78 -76 -94 -97 -94 -122 0 -65 36 -102 100 -102 103 0 218 122 326 345 105
217 143 368 151 605 11 311 -31 475 -194 763 -59 105 -94 137 -148 137 -16 -1
-42 -7 -57 -15z"/>
<path d="M45263 71625 c-13 -9 -27 -34 -33 -56 -10 -36 -7 -55 20 -152 58
-203 136 -344 283 -509 l87 -97 -160 -240 c-139 -209 -160 -246 -160 -280 0
-57 32 -92 90 -98 76 -7 92 10 288 304 286 430 412 655 502 894 37 98 36 139
-5 183 -19 21 -33 26 -70 26 -72 0 -105 -38 -165 -188 -48 -118 -164 -355
-196 -397 -14 -19 -16 -18 -54 25 -60 67 -146 198 -180 274 -17 36 -42 112
-56 169 -30 124 -57 157 -127 157 -23 0 -52 -7 -64 -15z"/>
<path d="M50313 71270 c-34 -20 -51 -69 -38 -110 4 -12 64 -90 133 -173 70
-84 133 -160 141 -170 12 -15 4 -27 -70 -110 -98 -107 -158 -179 -218 -260
-58 -77 -61 -125 -12 -169 30 -27 39 -30 82 -26 27 3 56 11 65 18 8 8 62 70
118 139 57 70 121 146 143 171 l41 45 74 -115 c41 -63 89 -142 108 -175 47
-86 77 -123 112 -141 66 -34 148 13 148 86 0 42 -104 227 -219 391 -39 55 -71
104 -71 109 0 8 230 217 303 275 49 40 64 83 42 128 -20 42 -56 62 -110 61
-38 -1 -52 -10 -181 -121 -76 -66 -148 -130 -158 -142 -11 -11 -22 -21 -27
-21 -4 0 -62 65 -130 145 -68 80 -137 155 -155 165 -40 25 -80 25 -121 0z"/>
<path d="M47143 71255 c-17 -7 -39 -25 -49 -40 -16 -25 -16 -31 -3 -68 25 -72
34 -75 414 -102 334 -25 338 -25 380 -6 24 11 48 29 55 41 27 50 -22 119 -98
139 -35 9 -572 52 -637 51 -16 -1 -44 -7 -62 -15z"/>
<path d="M53729 70971 c-96 -30 -131 -122 -72 -192 93 -110 288 -51 270 82 -6
49 -29 76 -82 100 -42 20 -74 22 -116 10z"/>
<path d="M47123 70889 c-46 -13 -76 -56 -69 -97 13 -84 33 -90 420 -118 182
-14 344 -22 361 -19 79 15 112 105 58 157 -40 38 -83 45 -408 68 -320 22 -317
22 -362 9z"/>
<path d="M53739 70383 c-19 -7 -39 -23 -45 -36 -6 -12 -54 -89 -108 -171 -84
-130 -96 -154 -91 -180 10 -49 38 -81 75 -84 55 -6 77 6 108 55 16 27 66 105
111 175 44 69 81 137 81 150 0 37 -43 91 -81 101 -8 2 -31 -2 -50 -10z"/>
<path d="M49092 66110 c-43 -41 -41 -110 9 -263 56 -171 148 -322 280 -462 38
-40 69 -75 69 -79 0 -4 -72 -116 -160 -248 -165 -247 -174 -267 -149 -322 13
-28 64 -56 102 -56 52 0 90 43 250 280 281 418 397 620 492 855 48 116 56 146
52 183 -8 76 -73 116 -142 87 -47 -20 -70 -53 -113 -160 -60 -149 -96 -227
-159 -338 l-56 -101 -45 50 c-53 58 -129 169 -164 239 -30 58 -72 190 -83 255
-11 64 -52 100 -114 100 -34 0 -54 -6 -69 -20z"/>
<path d="M44617 65390 c-30 -26 -37 -39 -37 -69 0 -46 21 -77 63 -89 17 -6
130 -13 251 -16 120 -3 221 -7 223 -10 2 -2 -20 -26 -49 -52 -202 -184 -445
-439 -510 -536 -31 -46 -36 -92 -13 -125 30 -42 84 -51 335 -57 146 -3 271
-11 330 -21 52 -9 122 -19 156 -22 57 -5 63 -4 93 23 52 46 41 117 -24 160
-33 22 -262 54 -438 62 l-149 7 169 166 c92 92 227 220 298 285 155 141 165
153 165 194 0 41 -14 67 -48 84 -41 21 -221 36 -517 43 l-261 6 -37 -33z"/>
<path d="M46462 65055 c-74 -32 -57 -141 29 -174 37 -13 656 -56 700 -47 49 9
89 47 89 85 0 40 -40 85 -90 100 -45 13 -511 51 -625 51 -38 -1 -85 -7 -103
-15z"/>
<path d="M53107 64896 c-72 -26 -102 -75 -87 -139 10 -48 22 -61 74 -86 129
-63 270 44 211 159 -31 60 -127 92 -198 66z"/>
<path d="M46455 64695 c-50 -18 -65 -38 -65 -87 0 -48 31 -82 86 -96 22 -6
184 -20 361 -32 357 -25 369 -24 404 34 26 42 24 60 -12 100 -39 45 -68 50
-369 71 -129 8 -264 18 -300 20 -44 4 -78 0 -105 -10z"/>
<path d="M48117 64490 c-4 -35 -7 -82 -7 -105 l0 -42 213 -7 c974 -31 2765
-71 2774 -62 5 4 10 50 11 102 3 72 1 95 -10 98 -7 2 -348 12 -758 21 -734 16
-1607 38 -2011 51 l-206 7 -6 -63z"/>
<path d="M53127 64313 c-10 -3 -70 -84 -134 -181 -112 -171 -115 -177 -108
-219 10 -68 63 -98 128 -74 28 11 239 330 244 371 5 32 -30 88 -63 100 -26 10
-37 11 -67 3z"/>
<path d="M49313 64085 c-20 -9 -39 -27 -48 -47 -11 -24 -27 -199 -58 -638 -48
-665 -49 -653 12 -684 51 -27 98 -21 136 17 43 43 50 76 64 297 l12 185 67 68
c73 74 164 127 218 127 43 0 87 -44 111 -112 21 -62 22 -173 3 -413 -10 -127
-10 -158 2 -181 42 -87 170 -88 197 -1 11 36 26 331 24 482 -1 154 -44 260
-142 348 -47 42 -86 60 -166 77 -68 14 -126 3 -230 -44 l-70 -32 16 235 c14
203 15 240 3 263 -27 53 -96 76 -151 53z"/>
<path d="M43798 59133 c-15 -9 -32 -27 -38 -38 -7 -13 -30 -264 -54 -594 -28
-375 -46 -575 -54 -583 -7 -7 -12 -29 -12 -51 0 -30 7 -46 30 -69 27 -27 36
-30 83 -27 36 2 70 -4 112 -20 82 -32 225 -40 327 -17 253 56 368 211 368 496
0 174 -39 289 -118 347 -132 97 -271 108 -439 32 l-63 -28 0 33 c0 19 7 126
15 239 17 228 14 246 -37 277 -40 24 -84 25 -120 3z m487 -696 c40 -40 55 -89
55 -184 0 -156 -43 -246 -143 -297 -76 -39 -185 -42 -261 -8 l-49 22 7 128
c10 182 11 185 74 254 79 85 140 118 221 118 58 0 66 -3 96 -33z"/>
<path d="M50872 58623 c-19 -9 -40 -30 -47 -47 -20 -46 -98 -1225 -84 -1265
11 -32 101 -106 150 -123 61 -21 139 28 139 88 0 35 -41 94 -66 94 -8 0 -14 6
-14 13 0 6 18 270 41 585 45 630 45 616 -15 653 -38 23 -61 24 -104 2z"/>
<path d="M47294 58460 c-30 -12 -74 -68 -74 -93 0 -33 36 -86 62 -91 13 -3
104 -7 203 -10 99 -3 203 -9 231 -12 l51 -6 -106 -98 c-181 -167 -395 -394
-459 -486 -31 -44 -36 -77 -18 -112 26 -50 67 -62 213 -62 171 0 386 -16 503
-37 143 -26 176 -24 211 15 50 55 32 122 -43 159 -54 27 -247 55 -431 62
l-139 6 169 166 c92 92 229 222 303 289 74 67 141 134 148 147 29 54 -10 124
-76 137 -49 10 -495 36 -612 35 -63 0 -124 -4 -136 -9z"/>
<path d="M45565 58363 c-83 -20 -85 -138 -3 -176 23 -10 123 -21 323 -36 372
-27 393 -27 436 2 66 44 46 127 -38 163 -56 24 -653 63 -718 47z"/>
<path d="M49148 58324 c-48 -25 -64 -87 -34 -130 8 -11 103 -101 210 -199 155
-141 194 -181 184 -191 -7 -6 -101 -67 -208 -135 -238 -151 -254 -165 -254
-212 0 -63 69 -110 137 -94 30 8 586 362 603 384 19 25 17 73 -4 104 -15 22
-209 202 -433 401 -100 89 -142 104 -201 72z"/>
<path d="M53138 58004 c-71 -22 -105 -79 -88 -145 27 -98 184 -134 259 -59 59
60 49 143 -22 184 -57 33 -93 38 -149 20z"/>
<path d="M45550 57999 c-91 -25 -107 -127 -28 -174 25 -14 90 -22 347 -42 377
-28 404 -27 443 16 32 36 36 70 12 107 -33 50 -58 55 -404 80 -179 13 -327 23
-330 23 -3 0 -21 -5 -40 -10z"/>
<path d="M53158 57419 c-19 -7 -58 -58 -138 -182 -106 -162 -112 -174 -107
-212 7 -46 44 -85 82 -85 54 0 72 18 180 185 59 92 110 175 112 185 7 28 -27
89 -58 105 -32 17 -34 17 -71 4z"/>
<path d="M37259 51837 c-81 -28 -138 -66 -190 -127 -65 -75 -584 -1126 -608
-1231 -34 -144 7 -278 118 -390 113 -113 139 -118 726 -139 395 -14 704 -29
1840 -90 1560 -84 2278 -115 2485 -108 146 5 206 27 290 105 71 65 116 150
133 246 10 61 8 81 -21 234 -38 202 -52 298 -87 593 -33 282 -67 478 -95 553
-45 120 -178 224 -315 247 -52 9 -1628 58 -3375 105 -305 8 -618 17 -695 20
-128 5 -146 3 -206 -18z m1256 -847 c369 -10 1093 -31 1610 -45 517 -15 949
-28 961 -31 19 -3 22 -16 38 -146 9 -79 16 -149 16 -157 0 -12 -27 -13 -167
-7 -319 13 -802 37 -1718 86 -506 28 -1102 59 -1324 70 -222 10 -406 21 -408
24 -2 2 21 54 51 115 l56 111 108 0 c59 0 409 -9 777 -20z"/>
<path d="M43113 51765 c-141 -44 -260 -179 -284 -323 -10 -64 -49 -500 -79
-901 -16 -201 -18 -277 -10 -319 32 -176 164 -310 335 -341 34 -7 407 -20 855
-31 437 -11 901 -22 1030 -26 201 -5 245 -4 300 10 82 21 161 68 212 126 86
97 108 175 115 410 6 187 -21 937 -37 1029 -20 114 -90 217 -188 280 -91 57
-119 61 -577 71 -231 6 -602 14 -825 20 -544 13 -794 12 -847 -5z m1318 -841
l306 -7 7 -81 c3 -45 6 -102 6 -128 l0 -48 -42 5 c-24 2 -283 10 -577 16
l-533 12 6 76 c4 42 9 98 12 125 l6 49 252 -6 c138 -4 389 -10 557 -13z"/>
<path d="M46639 51627 c-37 -13 -86 -36 -110 -52 -94 -66 -161 -187 -174 -315
-13 -131 -46 -525 -65 -760 -32 -410 -28 -461 51 -579 50 -75 130 -134 217
-161 69 -21 360 -32 1657 -62 l530 -12 71 22 c130 40 229 136 273 265 32 91
43 297 31 564 -32 743 -31 726 -52 787 -33 99 -109 190 -195 235 -92 46 -123
49 -658 61 -280 6 -676 15 -880 20 -568 15 -618 14 -696 -13z m1099 -831 c287
-7 525 -16 530 -20 4 -4 9 -61 12 -127 5 -114 4 -119 -15 -119 -11 0 -249 7
-530 15 -280 8 -532 15 -558 15 l-49 0 6 38 c3 20 8 76 12 125 l6 87 32 -1
c17 0 266 -6 554 -13z"/>
<path d="M50160 51510 c-120 -26 -238 -120 -291 -233 -28 -61 -31 -80 -59
-383 -57 -631 -73 -882 -60 -948 17 -86 59 -163 124 -224 70 -67 142 -100 242
-112 44 -6 376 -17 739 -26 1481 -35 1390 -36 1493 11 65 30 150 110 185 173
41 75 57 155 64 314 6 155 -21 923 -37 1038 -13 89 -58 176 -125 239 -70 66
-146 101 -244 112 -42 5 -420 16 -841 24 -421 8 -850 17 -955 20 -104 2 -210
0 -235 -5z m1110 -850 c261 -6 475 -12 476 -13 1 -1 5 -57 9 -124 l7 -123 -99
0 c-76 1 -1036 27 -1052 29 -4 1 7 157 15 211 l5 35 82 -2 c45 -2 296 -7 557
-13z"/>
<path d="M53452 51290 c-151 -31 -279 -150 -316 -295 -26 -98 -111 -1115 -103
-1225 12 -166 113 -298 275 -361 55 -21 83 -23 702 -40 1284 -36 1465 -38
1534 -24 84 18 138 46 201 106 157 148 165 250 110 1359 -3 66 -13 128 -25
165 -38 114 -139 215 -255 256 -72 25 -68 24 -1005 44 -388 8 -788 17 -890 19
-102 3 -204 1 -228 -4z m1369 -857 l216 -6 6 -121 c2 -67 3 -123 1 -125 -6 -7
-1133 25 -1140 31 -3 4 -3 59 1 124 l8 117 346 -6 c190 -4 443 -10 562 -14z"/>
<path d="M56643 51205 c-146 -41 -259 -147 -299 -281 -24 -79 -109 -1111 -102
-1235 12 -202 169 -358 382 -381 82 -8 1607 -47 1941 -50 159 -1 187 2 237 20
155 56 251 178 279 352 17 99 17 381 1 725 -22 476 -25 505 -60 580 -62 131
-182 217 -330 235 -42 6 -423 17 -847 25 -423 8 -855 17 -960 20 -149 4 -201
2 -242 -10z m1122 -846 c258 -5 472 -12 475 -15 5 -6 18 -236 13 -243 -3 -5
-1143 25 -1147 30 -1 2 2 58 7 125 l10 120 86 -3 c47 -2 297 -8 556 -14z"/>
<path d="M68020 51124 c-69 -19 -132 -55 -184 -108 -71 -70 -512 -798 -641
-1056 -98 -198 -125 -300 -106 -405 34 -183 175 -319 356 -344 72 -10 3347
-37 3535 -30 87 4 115 9 163 32 109 50 178 123 219 230 25 65 92 406 112 567
25 202 47 621 36 681 -24 128 -113 246 -226 299 -79 38 -134 45 -564 70 -743
42 -1184 58 -1828 65 -262 3 -553 7 -647 9 -129 4 -183 1 -225 -10z m985 -834
c286 -6 635 -14 775 -20 270 -10 874 -41 877 -44 4 -4 -20 -194 -26 -204 -5
-9 -2419 5 -2430 14 -3 3 101 178 141 237 23 32 -48 30 663 17z"/>
<path d="M59989 51102 c-158 -53 -265 -190 -288 -367 -24 -188 -91 -999 -91
-1106 0 -74 21 -155 56 -214 51 -88 158 -167 259 -194 58 -15 493 -17 1360 -8
798 9 824 11 913 56 109 56 193 174 218 309 35 180 25 1069 -13 1195 -22 73
-55 127 -116 185 -118 111 -99 108 -903 132 -374 11 -829 22 -1010 25 -303 5
-333 4 -385 -13z m1216 -843 c215 -6 391 -12 392 -13 0 0 4 -42 8 -92 l7 -91
-213 -6 c-118 -4 -374 -10 -569 -13 l-355 -7 9 123 9 122 161 -6 c89 -3 337
-11 551 -17z"/>
<path d="M63323 51099 c-118 -37 -223 -142 -262 -261 -20 -63 -34 -187 -66
-593 -29 -370 -45 -637 -39 -663 35 -176 122 -289 264 -343 94 -36 279 -41
1255 -32 892 9 900 9 955 31 113 45 209 146 243 256 42 136 53 382 38 822 -7
186 -17 364 -22 394 -29 171 -162 309 -329 340 -41 8 -1876 73 -1960 69 -8 0
-43 -9 -77 -20z m1012 -844 c231 -8 448 -15 483 -15 l62 0 0 -93 0 -94 -277
-6 c-153 -4 -392 -7 -532 -7 l-254 0 6 83 c4 45 7 97 7 115 0 39 -59 37 505
17z"/>
<path d="M36390 49616 c-136 -29 -215 -96 -326 -276 -208 -336 -582 -996 -607
-1071 -27 -80 -31 -141 -13 -222 35 -155 148 -273 301 -316 22 -6 227 -18 455
-26 585 -21 1270 -49 2340 -95 1011 -43 1994 -83 2497 -101 255 -9 333 -9 375
1 149 35 259 136 308 281 19 55 22 77 16 164 -10 172 -162 1209 -185 1260 -50
114 -146 200 -259 235 -62 19 -201 25 -2337 95 -1248 40 -2324 76 -2390 79
-74 3 -141 0 -175 -8z m2423 -901 c1090 -36 1983 -68 1986 -70 5 -6 40 -239
41 -273 0 -23 0 -23 -107 -17 -60 3 -286 12 -503 21 -217 8 -919 37 -1560 64
-641 27 -1340 56 -1555 65 -471 18 -545 22 -552 29 -5 4 102 197 130 234 6 7
34 12 75 12 35 0 956 -29 2045 -65z"/>
<path d="M42798 49451 c-77 -25 -117 -52 -181 -121 -86 -93 -94 -123 -127
-480 -56 -600 -74 -889 -62 -948 35 -165 159 -297 314 -331 25 -6 378 -19 784
-30 1239 -34 1353 -36 1414 -21 164 38 283 162 320 330 26 124 22 505 -14
1165 -8 142 -66 256 -169 331 -108 80 -123 82 -682 94 -269 6 -659 15 -865 20
-548 14 -663 13 -732 -9z m1197 -836 c182 -3 353 -8 381 -11 l51 -5 7 -121 c4
-66 5 -122 3 -124 -3 -3 -302 4 -916 22 l-233 7 7 106 c10 160 -12 145 194
138 97 -4 325 -9 506 -12z"/>
<path d="M46520 49350 c-146 -26 -251 -106 -312 -236 -33 -71 -45 -168 -93
-754 -41 -503 -42 -535 -17 -616 37 -120 109 -207 218 -260 91 -44 -13 -39
1807 -85 365 -9 425 -8 477 5 83 21 135 50 195 107 140 132 158 262 131 920
-21 508 -27 563 -65 645 -39 83 -113 156 -197 196 -88 41 -136 44 -1109 63
-440 8 -843 17 -895 19 -52 2 -115 0 -140 -4z m1291 -857 l276 -6 6 -121 c2
-67 3 -123 1 -125 -5 -5 -1137 20 -1143 25 -2 2 0 58 4 125 l7 122 287 -6
c157 -4 410 -10 562 -14z"/>
<path d="M50014 49186 c-121 -45 -205 -132 -250 -260 -15 -42 -48 -372 -83
-841 -12 -148 -23 -295 -26 -325 -20 -207 128 -409 332 -450 26 -5 401 -18
833 -30 1430 -36 1298 -35 1365 -15 120 34 208 101 259 196 48 87 57 139 63
349 6 210 -21 939 -38 1025 -29 148 -133 266 -276 314 -55 19 -101 21 -509 31
-247 6 -624 15 -839 20 -214 5 -475 10 -580 9 -172 0 -196 -2 -251 -23z m1307
-832 l336 -7 7 -66 c3 -36 6 -94 6 -127 l0 -62 -122 4 c-255 9 -856 24 -942
24 l-88 0 6 68 c4 37 9 94 12 126 l6 59 222 -6 c121 -4 372 -10 557 -13z"/>
<path d="M53470 49100 c-146 -26 -251 -106 -312 -236 -33 -71 -45 -168 -93
-754 -41 -503 -42 -535 -17 -616 37 -120 109 -207 218 -260 91 -44 -13 -39
1807 -85 365 -9 425 -8 477 5 83 21 135 50 195 107 140 132 158 262 131 920
-21 508 -27 563 -65 645 -39 83 -113 156 -197 196 -88 41 -136 44 -1109 63
-440 8 -843 17 -895 19 -52 2 -115 0 -140 -4z m1291 -857 l276 -6 6 -121 c2
-67 3 -123 1 -125 -5 -5 -1137 20 -1143 25 -2 2 0 58 4 125 l7 122 287 -6
c157 -4 410 -10 562 -14z"/>
<path d="M57000 48948 c-124 -19 -253 -117 -305 -230 -30 -65 -39 -129 -65
-428 -64 -749 -70 -864 -44 -951 44 -149 175 -264 331 -289 32 -6 333 -17 668
-25 336 -8 798 -20 1028 -26 365 -9 425 -8 477 5 149 38 252 132 299 274 32
93 43 296 31 563 -5 123 -15 334 -20 469 -13 285 -25 344 -92 434 -48 65 -137
129 -210 151 -61 18 -153 21 -1083 40 -396 8 -774 16 -840 18 -66 2 -145 0
-175 -5z m1080 -849 c267 -6 487 -13 490 -16 2 -2 7 -58 10 -123 l5 -120 -165
1 c-91 1 -349 6 -575 12 l-410 12 1 25 c1 14 5 69 9 123 l7 97 71 0 c40 0 290
-5 557 -11z"/>
<path d="M65130 48931 c-111 -35 -140 -62 -416 -386 -585 -685 -742 -904 -780
-1086 -27 -132 11 -263 107 -364 60 -63 147 -110 229 -124 30 -5 438 -12 905
-15 468 -3 1318 -15 1890 -26 572 -11 1418 -23 1880 -27 788 -6 844 -5 895 12
132 42 230 137 275 266 40 112 181 1151 172 1264 -8 103 -41 171 -121 251
-105 105 -142 117 -366 121 -887 14 -1258 25 -2250 68 -1172 50 -1656 65
-2085 64 -239 0 -288 -3 -335 -18z m905 -826 c325 -6 543 -14 1500 -55 819
-35 1159 -47 1569 -56 l298 -7 -6 -51 c-4 -28 -11 -86 -17 -128 l-11 -78 -77
0 c-148 0 -1378 20 -2231 35 -476 9 -1096 19 -1378 23 l-512 7 137 163 138
162 155 -5 c85 -3 281 -7 435 -10z"/>
<path d="M60411 48875 c-120 -34 -228 -123 -276 -227 -31 -68 -39 -129 -70
-493 -47 -578 -58 -777 -45 -838 37 -179 177 -311 358 -337 73 -11 657 -11
1522 -1 l555 6 67 32 c130 61 213 177 240 333 16 93 16 912 0 1069 -9 87 -17
117 -47 177 -63 128 -175 206 -323 225 -42 5 -453 21 -912 34 -459 14 -875 27
-925 30 -63 3 -106 0 -144 -10z m1077 -857 l444 -12 9 -24 c5 -13 9 -54 9 -92
l0 -68 -122 -6 c-68 -3 -310 -8 -538 -11 l-415 -6 7 83 c3 46 7 100 7 122 l1
39 78 -6 c42 -4 277 -12 520 -19z"/>
<path d="M35124 47195 c-118 -25 -183 -73 -308 -229 -196 -244 -733 -979 -772
-1055 -103 -206 -17 -454 194 -558 l74 -37 222 -7 c121 -5 437 -13 701 -19
559 -12 1089 -29 2280 -70 2402 -83 3612 -118 3794 -108 128 7 189 34 277 122
122 122 149 245 100 457 -34 146 -58 295 -91 544 -48 372 -86 558 -131 646
-58 114 -186 202 -321 219 -37 5 -401 14 -808 20 -407 6 -1370 22 -2140 35
-770 13 -1695 29 -2055 35 -360 5 -722 12 -805 14 -100 2 -170 -1 -211 -9z
m1916 -856 c652 -10 1691 -28 2310 -39 619 -11 1186 -20 1261 -20 l136 0 22
-161 c12 -89 20 -163 19 -164 -7 -7 -1224 30 -2683 80 -1405 49 -2163 73
-2500 81 -159 4 -309 10 -333 13 l-43 6 88 117 88 117 225 -5 c124 -3 758 -14
1410 -25z"/>
<path d="M42672 47021 c-111 -38 -204 -125 -253 -236 -22 -50 -24 -64 -63
-510 -50 -562 -61 -742 -47 -808 33 -162 158 -291 316 -326 44 -9 814 -33
1856 -57 284 -7 299 -6 366 14 128 39 225 131 272 258 23 59 41 213 41 343 1
124 -29 821 -39 916 -17 178 -125 314 -288 365 -53 16 -118 20 -529 30 -258 6
-644 15 -859 20 -581 15 -709 13 -773 -9z m1158 -835 l475 -11 8 -124 c4 -68
6 -125 5 -127 -2 -1 -145 2 -318 6 -173 5 -431 12 -574 16 l-258 7 7 116 c4
64 9 119 12 124 5 8 34 8 643 -7z"/>
<path d="M46660 46898 c-72 -11 -148 -47 -200 -94 -69 -62 -365 -470 -685
-944 -202 -298 -210 -314 -210 -451 0 -101 1 -108 38 -181 59 -121 165 -203
292 -227 28 -5 248 -15 490 -21 556 -14 3837 -105 6140 -170 1894 -54 6487
-185 6930 -198 148 -5 294 -4 323 0 70 11 148 48 203 97 99 86 796 1107 845
1236 14 36 19 76 19 145 0 86 -3 101 -32 162 -54 116 -159 204 -278 237 -25 7
-1387 51 -3570 116 -4088 121 -8728 258 -9515 280 -300 8 -588 16 -640 18 -52
2 -120 0 -150 -5z m1665 -873 c4553 -133 11338 -335 11341 -338 1 -1 -35 -55
-80 -119 l-81 -118 -83 0 c-45 0 -1019 27 -2165 60 -3050 88 -6781 193 -8642
244 -896 25 -1678 47 -1737 48 -59 2 -109 6 -113 10 -4 3 33 61 80 127 l87
121 96 0 c54 0 637 -16 1297 -35z"/>
<path d="M62730 46539 c-96 -19 -161 -62 -281 -186 -261 -269 -630 -727 -847
-1052 -103 -154 -127 -225 -119 -344 13 -191 154 -346 344 -378 32 -5 715 -23
1518 -39 803 -17 2198 -46 3101 -65 1807 -38 1692 -40 1807 22 59 33 136 115
166 177 44 94 117 421 176 791 20 121 47 272 61 335 47 208 22 331 -91 449
-59 62 -134 105 -212 121 -26 5 -235 14 -463 20 -550 14 -1165 33 -2375 75
-1024 35 -1800 60 -2190 70 -121 3 -294 7 -385 9 -91 3 -185 1 -210 -5z m1120
-855 c283 -8 1028 -32 1655 -54 627 -22 1390 -47 1695 -56 305 -9 557 -19 560
-21 4 -4 -37 -264 -42 -268 -2 -1 -172 2 -378 6 -206 5 -1246 27 -2310 48
-1064 22 -2022 43 -2127 47 l-193 6 82 97 c45 53 107 124 138 159 l55 63 175
-6 c96 -3 407 -12 690 -21z"/>
<path d="M26673 77975 c-499 -57 -989 -216 -1563 -506 -621 -314 -1163 -718
-1710 -1276 -291 -295 -500 -544 -555 -658 -56 -118 -69 -182 -70 -345 0 -133
2 -152 29 -233 50 -154 145 -282 289 -388 165 -123 329 -178 557 -186 162 -6
268 8 411 53 209 66 299 137 560 444 303 356 744 753 1109 998 385 258 782
401 1226 443 178 16 259 -12 410 -140 237 -202 473 -644 491 -921 21 -326
-177 -691 -606 -1121 -184 -183 -292 -277 -676 -584 -676 -541 -968 -787
-1150 -970 -100 -99 -206 -214 -236 -255 -214 -290 -398 -689 -461 -1000 -20
-100 -23 -144 -23 -335 0 -190 3 -236 23 -333 111 -548 463 -1030 972 -1330
265 -157 636 -276 896 -289 357 -17 612 77 823 303 235 252 294 558 161 841
-66 142 -185 281 -312 365 -145 97 -365 181 -502 193 -44 3 -87 10 -96 15 -20
11 -58 119 -66 190 -17 156 92 392 288 625 231 275 691 654 1253 1032 231 156
602 515 868 842 439 540 654 988 722 1505 19 151 19 408 0 545 -73 502 -360
1153 -696 1576 -84 106 -256 282 -349 358 -225 182 -549 348 -870 445 -91 28
-274 68 -400 87 -146 23 -582 29 -747 10z"/>
<path d="M14420 70724 c-360 -14 -614 -28 -850 -44 -2212 -159 -4362 -679
-6415 -1553 -986 -420 -1831 -902 -2490 -1422 -440 -347 -866 -769 -1173
-1164 -591 -759 -974 -1670 -1089 -2591 -14 -115 -18 -218 -18 -495 0 -392 8
-486 72 -795 20 -96 38 -187 40 -201 4 -22 -15 -49 -109 -160 -544 -640 -964
-1189 -1270 -1659 -624 -956 -969 -1848 -1083 -2800 -26 -210 -31 -674 -11
-890 101 -1054 551 -1867 1209 -2180 122 -58 239 -94 380 -114 412 -62 831 83
1049 363 28 36 55 70 58 74 4 4 -8 -65 -27 -155 -97 -464 -136 -775 -137
-1088 0 -309 27 -500 105 -735 164 -492 521 -880 924 -1004 269 -83 546 -61
855 70 223 95 376 195 865 563 193 145 351 263 353 261 1 -1 -11 -53 -27 -116
-64 -249 -76 -348 -76 -644 0 -290 12 -396 71 -625 219 -850 876 -1622 1764
-2074 976 -497 1997 -524 2715 -71 l90 57 90 -43 c299 -140 502 -230 664 -296
1005 -408 1954 -634 3046 -724 72 -5 306 -13 520 -16 512 -7 860 12 1325 73
2772 365 5139 1992 6314 4342 723 1447 978 3078 770 4942 -13 124 -27 241 -30
261 -6 36 -6 36 82 94 187 122 338 253 480 418 491 570 701 1344 558 2056 -45
223 -142 486 -249 673 -417 725 -1157 1202 -1949 1256 l-109 7 -148 430 -149
430 74 75 c239 244 400 535 466 839 107 489 -31 1010 -397 1499 -324 432 -781
754 -1458 1024 -167 67 -621 219 -877 294 -92 27 -168 51 -168 54 0 3 30 16
68 28 189 66 368 228 477 435 234 443 176 952 -160 1422 -341 476 -976 912
-1745 1198 -592 220 -1205 342 -2020 402 -193 15 -1039 27 -1250 19z m6474
-8345 c827 -2408 1135 -3681 1248 -5159 20 -257 16 -1035 -5 -1290 -59 -678
-168 -1223 -362 -1805 -368 -1104 -1014 -2090 -1890 -2883 -1590 -1439 -3785
-2137 -6040 -1921 -1149 110 -2276 447 -3368 1007 -227 116 -290 134 -399 113
-91 -18 -155 -52 -239 -127 -243 -215 -501 -310 -874 -321 -221 -7 -381 11
-600 67 -768 195 -1467 739 -1790 1392 -399 807 -180 1648 636 2443 158 154
460 408 546 459 22 12 136 -241 278 -619 120 -319 177 -457 257 -625 75 -158
239 -460 250 -460 15 0 302 411 442 633 660 1048 980 2063 953 3027 -15 528
-116 1011 -322 1535 -206 525 -485 1014 -1011 1770 -88 127 -163 235 -167 241
-4 6 46 -4 111 -22 1196 -345 2699 -320 4262 71 576 144 1224 367 1529 526
409 214 721 537 867 898 79 195 111 366 101 537 -30 490 -329 918 -732 1050
-38 13 -63 23 -54 24 10 0 905 -43 1990 -95 1086 -52 2125 -100 2311 -106 740
-25 1298 37 1743 195 66 23 121 42 122 41 1 -1 94 -269 207 -596z m1246 -721
c122 -43 320 -147 423 -223 344 -255 575 -615 642 -1004 22 -124 20 -362 -5
-507 -51 -296 -195 -596 -397 -822 -36 -40 -67 -72 -68 -70 -2 2 -24 102 -50
223 -132 615 -343 1384 -603 2197 l-79 248 26 -7 c14 -3 64 -19 111 -35z"/>
<path d="M18090 61895 c-224 -31 -320 -67 -404 -151 -62 -62 -100 -137 -117
-227 -40 -217 120 -438 347 -478 51 -9 79 -7 174 10 160 29 278 36 400 22 204
-24 367 -79 533 -179 50 -30 113 -64 139 -74 198 -75 427 21 521 219 29 63 32
76 32 168 -1 116 -20 178 -83 260 -99 131 -482 320 -797 393 -216 51 -532 66
-745 37z"/>
<path d="M19225 60283 c-370 -42 -628 -218 -788 -538 -320 -641 -110 -1811
451 -2506 82 -102 241 -253 335 -317 100 -69 240 -135 347 -164 69 -18 110
-22 220 -22 148 0 220 13 346 64 463 185 660 747 533 1520 -89 535 -334 1106
-640 1491 -102 129 -270 284 -380 352 -137 84 -310 133 -424 120z"/>
<path d="M12248 59147 c-158 -54 -429 -320 -589 -577 -120 -193 -217 -439
-259 -656 -32 -169 -46 -361 -32 -445 31 -182 167 -318 350 -350 126 -22 268
27 361 126 85 90 121 192 121 346 0 259 155 591 358 766 145 126 162 146 200
222 35 71 37 80 37 175 0 93 -3 107 -32 168 -96 203 -308 295 -515 225z"/>
<path d="M13660 57683 c-76 -8 -196 -36 -273 -64 -114 -41 -208 -100 -298
-186 -166 -159 -265 -352 -325 -637 -35 -164 -44 -483 -20 -690 101 -874 582
-1678 1139 -1904 338 -137 726 -66 966 178 145 147 234 344 283 620 19 114 16
476 -5 625 -103 693 -419 1374 -818 1760 -121 117 -218 187 -321 235 -105 47
-236 72 -328 63z"/>
<path d="M16910 57060 c-111 -24 -233 -116 -283 -216 -116 -232 -1 -513 242
-589 181 -57 335 -184 416 -345 55 -110 69 -171 69 -305 1 -177 -33 -282 -135
-422 -110 -151 -128 -306 -52 -457 37 -74 116 -152 192 -189 62 -30 72 -32
176 -32 103 0 114 2 178 32 185 88 369 396 449 755 20 90 23 129 23 313 -1
179 -4 224 -22 307 -60 264 -174 491 -345 687 -256 291 -682 508 -908 461z"/>
<path d="M18815 53751 c-152 -38 -330 -119 -485 -222 -127 -84 -325 -282 -409
-409 -376 -565 -369 -1280 16 -1588 120 -96 259 -137 438 -129 288 14 618 170
852 404 274 274 427 672 410 1068 -13 321 -113 576 -289 740 -147 138 -334
186 -533 136z"/>
<path d="M26020 68315 c-186 -31 -367 -104 -517 -207 -166 -114 -322 -299
-394 -468 -115 -272 -111 -607 11 -877 71 -157 222 -338 380 -455 136 -101
258 -158 438 -205 99 -26 121 -28 302 -28 153 0 213 4 280 19 253 55 445 160
625 341 110 110 176 203 235 328 155 331 124 744 -80 1048 -56 83 -217 241
-305 300 -160 106 -340 176 -527 203 -125 19 -341 19 -448 1z"/>
<path d="M27394 38299 c-984 -53 -1985 -470 -2754 -1146 -607 -534 -1040
-1172 -1285 -1894 -136 -401 -201 -776 -212 -1224 -8 -358 15 -633 83 -975
243 -1226 967 -2320 1963 -2965 l104 -67 -6 -252 -5 -251 -40 -65 c-159 -263
-270 -589 -319 -941 -23 -169 -23 -511 0 -670 61 -415 218 -770 448 -1013 89
-94 134 -121 424 -252 l160 -72 6 -149 c7 -157 14 -201 56 -328 55 -170 140
-311 266 -442 166 -173 342 -273 592 -334 104 -26 329 -36 448 -20 617 83
1105 546 1135 1078 l5 91 106 38 c171 60 333 125 371 149 40 25 121 109 140
145 7 13 32 47 55 76 148 181 308 613 362 973 24 163 24 532 0 691 -49 314
-133 582 -273 866 l-74 151 1 119 c1 65 4 130 8 143 5 20 26 32 101 63 230 93
535 255 755 401 1079 717 1811 1863 1984 3107 141 1014 -107 2040 -710 2937
-604 898 -1524 1581 -2524 1871 -326 95 -604 142 -945 162 -192 11 -218 11
-426 -1z m496 -839 c1009 -92 1964 -649 2613 -1525 350 -473 582 -1022 668
-1580 27 -176 37 -584 20 -762 -83 -823 -452 -1592 -1056 -2199 -412 -413
-895 -712 -1445 -893 -67 -22 -141 -52 -164 -65 -52 -30 -128 -110 -154 -162
-41 -81 -45 -112 -51 -424 l-6 -305 -84 -28 c-46 -15 -86 -25 -90 -22 -12 12
-13 242 -2 483 34 712 154 1229 401 1723 111 222 192 351 436 694 180 254 254
372 320 510 101 210 138 362 138 570 0 196 -33 351 -121 564 -152 371 -579
657 -1044 700 -293 28 -585 -67 -790 -256 -31 -29 -59 -53 -61 -53 -2 0 -49
29 -104 65 -190 126 -417 225 -614 271 -327 76 -638 18 -874 -164 -84 -65
-246 -222 -320 -311 -299 -359 -384 -726 -264 -1136 54 -186 124 -331 371
-760 166 -289 331 -617 402 -800 132 -336 217 -679 260 -1050 31 -269 40 -702
19 -911 l-5 -52 -84 36 -84 36 2 355 c2 348 2 357 -20 411 -48 116 -105 170
-293 275 -127 70 -321 202 -445 301 -147 118 -418 390 -542 545 -738 925
-1021 2149 -745 3229 148 577 467 1124 923 1579 610 611 1431 1013 2244 1100
55 6 116 12 135 14 83 8 404 6 510 -3z m-1320 -3522 c89 -27 243 -107 348
-182 125 -88 168 -112 274 -148 87 -30 102 -32 223 -32 120 0 137 3 227 33
119 41 226 105 341 205 47 42 98 81 112 86 96 37 314 -32 409 -129 50 -51 88
-159 94 -268 9 -155 -42 -258 -322 -652 -452 -636 -660 -1065 -810 -1673 -119
-479 -160 -846 -161 -1437 l0 -383 -93 4 c-51 3 -94 7 -96 9 -2 2 1 51 7 109
15 156 15 827 -1 995 -56 597 -188 1113 -419 1634 -85 193 -191 394 -380 724
-155 271 -246 447 -279 542 -9 28 -17 82 -18 120 -1 63 3 77 39 145 50 95 249
302 305 319 43 12 115 5 200 -21z m-558 -5142 c476 -189 865 -268 1313 -268
382 0 737 59 1138 189 60 19 110 33 112 31 5 -5 65 -210 65 -222 -1 -20 -437
-175 -635 -225 -361 -90 -720 -113 -1030 -66 -297 45 -636 160 -980 332 -66
33 -137 66 -157 72 -21 7 -38 16 -38 19 0 15 64 192 69 192 3 0 68 -24 143
-54z m-98 -1110 c671 -287 1291 -371 1952 -266 185 30 468 101 653 164 41 14
76 24 78 22 6 -5 -52 -147 -96 -235 l-40 -79 -117 -41 c-377 -134 -682 -191
-1021 -191 -418 0 -775 90 -1255 317 -123 58 -143 78 -202 192 -24 45 -67 161
-61 161 3 0 52 -20 109 -44z m1066 -1448 c52 -7 202 -12 332 -13 l238 0 -23
-22 c-38 -38 -139 -93 -212 -115 -51 -16 -96 -22 -165 -22 -83 0 -103 3 -157
28 -61 28 -135 94 -163 145 -12 23 -11 23 21 18 19 -4 77 -12 129 -19z"/>
<path d="M41010 38304 c-511 -64 -883 -243 -1235 -598 -414 -416 -665 -939
-800 -1666 -437 -2371 -772 -4373 -1244 -7435 -658 -4269 -1583 -10824 -2227
-15775 l-48 -365 -60 -36 c-34 -20 -77 -56 -98 -80 -93 -112 -5667 -7853
-5705 -7924 -99 -187 -112 -260 -123 -735 -6 -212 -19 -623 -30 -915 -11 -291
-23 -705 -27 -920 -5 -384 -5 -391 16 -450 13 -33 27 -87 32 -120 21 -132 110
-259 221 -314 106 -53 -69 -44 2078 -106 4802 -138 10546 -278 22740 -555
7154 -162 9452 -216 11895 -275 1334 -32 1419 -34 1489 -23 71 11 157 53 213
104 27 25 331 476 831 1229 1859 2805 2010 3045 3610 5730 361 605 671 1129
689 1165 31 61 35 80 63 325 17 143 73 609 125 1035 152 1252 168 1390 169
1495 1 92 -2 105 -31 168 -59 124 -183 225 -299 243 -36 5 -45 10 -41 23 47
154 125 433 151 539 390 1552 804 4406 1310 9032 206 1878 416 3936 831 8150
108 1092 252 2543 320 3225 68 682 130 1310 137 1395 19 242 16 857 -5 1070
-83 814 -331 1406 -772 1844 -558 554 -1388 844 -2720 950 -767 61 -3544 145
-6945 211 -2795 54 -5678 95 -12115 175 -5802 72 -8816 117 -11045 165 -839
18 -1304 25 -1350 19z m1080 -849 c3062 -62 5235 -95 11715 -175 6626 -82
9457 -124 12465 -185 2863 -58 5431 -138 6100 -191 1325 -103 2038 -380 2413
-936 172 -256 276 -574 334 -1018 20 -159 29 -739 14 -967 -6 -98 -72 -783
-146 -1523 -74 -740 -214 -2146 -310 -3125 -470 -4771 -672 -6739 -920 -8955
-415 -3712 -783 -6277 -1111 -7735 -94 -418 -211 -842 -286 -1038 l-30 -79
-187 6 c-102 4 -636 18 -1186 31 -3399 84 -13733 347 -19270 490 -8461 219
-15371 408 -15382 419 -9 9 462 3527 798 5966 931 6757 1765 12243 2430 15995
125 705 277 1529 305 1655 43 191 108 372 199 555 99 197 183 320 312 455 256
267 547 386 913 373 58 -2 431 -10 830 -18z m-5110 -25840 c5699 -165 16959
-458 34302 -894 615 -15 1120 -30 1123 -33 3 -3 -1071 -1686 -2387 -3742
l-2393 -3736 -170 5 c-1240 40 -7294 142 -15380 260 -7954 116 -10470 154
-13525 205 -3234 54 -6249 113 -7724 151 -438 11 -443 11 -485 65 -31 39 -36
87 -15 130 11 20 1250 1744 2754 3831 l2735 3794 155 -6 c85 -3 540 -17 1010
-30z m35514 -2674 l-45 -382 -581 -977 c-1051 -1767 -1397 -2338 -1886 -3107
-486 -765 -1693 -2597 -1699 -2578 -1 4 1 190 5 413 l7 405 2119 3307 c1166
1819 2121 3306 2123 3304 2 -1 -17 -175 -43 -385z m-42049 -5936 c146 -7 2078
-49 3640 -80 3556 -69 7450 -132 16620 -265 6536 -95 9875 -147 12550 -195
1709 -31 3668 -70 4000 -81 l200 -6 -3 -122 c-3 -179 -41 -1206 -48 -1315 l-6
-94 -302 7 c-165 3 -857 20 -1536 36 -1976 48 -4319 102 -9960 230 -13958 317
-19118 444 -24585 602 l-770 22 3 141 c1 77 7 275 12 440 6 165 13 389 17 498
6 195 7 198 27 193 12 -3 75 -8 141 -11z"/>
<path d="M43090 35610 c-637 -78 -1156 -472 -1470 -1115 -104 -214 -171 -411
-224 -656 -72 -332 -523 -3403 -950 -6464 -534 -3823 -1435 -10520 -1457
-10825 -26 -362 16 -711 123 -1037 161 -492 491 -910 958 -1216 379 -248 818
-402 1315 -461 163 -20 26224 -669 26590 -663 212 4 273 8 398 31 692 121
1368 450 1821 886 239 230 403 475 484 725 75 229 404 2216 632 3815 248 1730
392 2919 779 6400 408 3660 598 5232 817 6739 31 212 63 429 70 481 21 142 29
589 15 751 -57 618 -272 1114 -645 1484 -285 284 -629 471 -1071 585 -340 88
-486 102 -1335 135 -2750 104 -6314 164 -15675 260 -5466 56 -8102 91 -10135
135 -825 18 -964 19 -1040 10z m1295 -850 c1791 -39 4611 -76 10355 -135 7298
-75 10621 -124 13305 -195 1125 -30 2277 -71 2540 -91 333 -24 581 -84 810
-194 154 -75 255 -145 361 -250 237 -235 368 -554 405 -985 12 -139 6 -407
-11 -530 -5 -36 -34 -240 -65 -455 -235 -1640 -430 -3248 -815 -6715 -276
-2487 -356 -3183 -501 -4335 -225 -1800 -468 -3454 -729 -4959 -133 -767 -145
-829 -178 -900 -122 -260 -432 -528 -847 -731 -330 -162 -628 -250 -930 -276
-111 -9 -2076 37 -13265 314 -7224 179 -13197 330 -13273 336 -708 56 -1312
417 -1572 939 -118 235 -161 470 -152 816 5 190 18 296 246 2001 630 4708
1091 8078 1482 10825 318 2233 623 4270 671 4475 30 131 91 302 149 418 175
351 418 564 719 632 71 16 382 15 1295 -5z"/>
<path d="M43222 31085 c-53 -23 -62 -59 -62 -258 l0 -173 -92 4 c-233 10 -437
-102 -500 -274 -119 -321 9 -593 294 -629 78 -10 180 10 263 50 l69 33 28 -23
c40 -33 80 -40 123 -19 58 27 71 83 31 131 l-24 28 13 530 c14 589 16 573 -50
601 -42 17 -51 17 -93 -1z m-93 -626 l31 -11 0 -198 0 -198 -53 -36 c-120 -83
-233 -86 -318 -9 -129 116 -59 383 118 448 46 17 178 19 222 4z"/>
<path d="M43663 31040 c-54 -33 -69 -91 -38 -150 61 -118 254 -47 216 80 -24
80 -108 113 -178 70z"/>
<path d="M45064 30996 c-34 -34 -34 -35 -34 -127 0 -52 -3 -124 -6 -160 l-7
-67 -72 -4 c-55 -2 -79 -8 -95 -23 -34 -31 -42 -61 -26 -99 17 -41 74 -66 151
-66 l55 0 -6 -308 c-4 -169 -4 -325 0 -346 16 -84 108 -116 167 -57 29 29 29
30 29 148 0 65 3 216 7 336 l6 217 91 0 c67 0 100 5 126 18 65 32 66 106 1
149 -29 20 -47 23 -128 23 l-94 0 7 154 c4 84 4 166 0 180 -8 33 -60 66 -104
66 -25 0 -43 -9 -68 -34z"/>
<path d="M50540 30873 c-43 -36 -52 -63 -37 -115 25 -86 124 -116 190 -58 39
34 49 67 36 116 -23 80 -125 111 -189 57z"/>
<path d="M53169 30855 c-14 -8 -32 -27 -38 -43 -14 -34 -43 -1184 -30 -1218
11 -32 58 -64 91 -64 36 0 83 24 93 47 4 10 7 109 5 221 -1 165 1 202 12 202
17 0 72 -57 169 -175 97 -119 205 -243 241 -277 23 -23 38 -28 76 -28 40 0 53
5 75 28 55 58 45 77 -177 337 -102 119 -186 220 -186 223 0 4 17 18 37 32 60
40 244 230 259 267 35 83 -41 147 -133 112 -15 -5 -77 -61 -138 -123 -94 -96
-189 -176 -209 -176 -3 0 -3 125 1 278 3 153 3 290 -1 305 -8 32 -59 67 -96
67 -14 -1 -37 -7 -51 -15z"/>
<path d="M63313 30735 c-30 -21 -167 -221 -213 -311 -77 -151 -110 -294 -117
-514 -9 -288 44 -517 172 -734 43 -74 140 -165 178 -167 57 -3 91 13 107 52
18 43 6 72 -61 146 -75 83 -130 194 -164 333 -22 91 -25 127 -25 270 0 339 51
498 246 774 43 61 44 97 5 137 -34 33 -91 40 -128 14z"/>
<path d="M58105 30721 c-11 -5 -29 -19 -40 -31 -18 -20 -20 -39 -23 -185 l-3
-163 -81 -4 c-73 -3 -82 -6 -104 -31 -31 -36 -32 -86 -1 -115 32 -30 70 -42
133 -42 l54 0 0 -341 0 -341 29 -29 c40 -40 89 -40 133 0 l33 29 3 335 3 335
104 4 c125 4 158 20 163 82 6 73 -49 106 -175 106 l-88 0 3 168 c4 165 3 170
-20 196 -25 29 -86 43 -123 27z"/>
<path d="M43648 30671 l-33 -29 -7 -404 c-5 -265 -4 -414 3 -435 30 -94 178
-80 193 18 10 68 16 797 6 823 -22 58 -111 73 -162 27z"/>
<path d="M44229 30684 c-94 -29 -177 -132 -195 -242 -10 -64 19 -137 80 -197
41 -42 67 -57 137 -82 47 -18 103 -35 123 -39 43 -8 101 -59 108 -95 12 -64
-31 -122 -99 -135 -60 -11 -109 11 -186 87 -64 63 -74 69 -112 69 -28 0 -51
-7 -69 -21 -24 -19 -27 -27 -25 -78 2 -54 4 -58 55 -108 124 -123 328 -176
451 -119 102 48 183 164 183 261 0 162 -85 253 -300 320 -47 14 -94 34 -106
44 -76 62 -32 151 74 151 24 0 77 -12 119 -26 88 -30 131 -27 163 13 41 53 10
120 -73 158 -116 53 -236 68 -328 39z"/>
<path d="M60727 30670 c-15 -12 -29 -35 -32 -53 -3 -18 -12 -288 -19 -602 -14
-638 -15 -624 50 -651 43 -18 73 -13 109 19 l25 22 5 209 c3 115 7 212 10 214
9 9 53 -38 200 -213 230 -273 223 -266 275 -272 39 -4 51 -1 77 21 36 30 45
63 27 104 -6 16 -96 128 -199 248 l-186 219 28 19 c60 41 270 261 277 290 16
67 -41 123 -112 110 -30 -6 -64 -33 -177 -143 -78 -75 -155 -144 -172 -154
l-31 -17 5 292 6 293 -27 33 c-23 27 -35 32 -71 32 -27 0 -51 -7 -68 -20z"/>
<path d="M46856 30609 c-21 -5 -66 -22 -98 -38 l-59 -28 -34 34 c-38 38 -85
44 -124 17 -49 -35 -51 -55 -51 -469 l0 -387 29 -29 c52 -51 151 -26 165 42 3
17 6 132 6 256 0 249 3 263 66 333 62 68 178 115 225 90 45 -24 49 -59 49
-389 0 -211 4 -318 11 -335 11 -24 62 -56 89 -56 7 0 28 8 47 17 64 30 67 48
71 410 3 300 2 325 -16 365 -47 106 -142 169 -265 174 -40 2 -90 -1 -111 -7z"/>
<path d="M64154 30601 c-58 -26 -64 -51 -64 -257 l0 -174 -118 0 c-165 0 -256
-29 -368 -119 -116 -92 -179 -309 -140 -482 33 -149 114 -239 247 -280 120
-36 288 -14 380 51 l30 22 30 -28 c25 -24 39 -29 79 -29 59 0 88 23 97 77 4
31 1 41 -20 60 l-26 24 13 530 c14 565 15 561 -34 595 -40 28 -62 30 -106 10z
m-70 -630 c14 -11 16 -42 16 -207 l0 -193 -45 -31 c-72 -50 -125 -70 -185 -70
-182 0 -264 178 -168 369 35 69 92 119 162 141 44 13 200 7 220 -9z"/>
<path d="M45895 30597 c-84 -22 -156 -68 -245 -157 -103 -103 -143 -169 -171
-280 -51 -202 17 -374 179 -447 102 -48 275 -41 383 15 l56 29 35 -39 c30 -33
40 -38 77 -38 34 0 49 6 72 29 38 39 37 70 -6 156 -48 94 -55 149 -55 430 -1
256 -1 256 -53 290 -36 23 -199 30 -272 12z m116 -349 c0 -106 4 -214 8 -240
l8 -47 -61 -43 c-57 -40 -65 -43 -128 -43 -75 0 -105 16 -146 76 -21 30 -23
43 -20 114 5 138 82 262 198 324 60 32 101 48 128 50 9 1 12 -44 13 -191z"/>
<path d="M47760 30593 c-129 -45 -244 -177 -297 -338 -21 -64 -26 -101 -27
-185 0 -95 2 -112 30 -182 53 -131 125 -198 248 -233 116 -34 262 -1 351 77
78 69 89 126 33 173 -43 36 -94 34 -144 -6 -55 -44 -88 -59 -128 -59 -169 0
-239 220 -137 433 77 162 203 208 309 113 49 -44 74 -56 115 -56 48 0 87 33
87 73 0 66 -71 135 -190 184 -67 27 -181 30 -250 6z"/>
<path d="M70175 30565 c-42 -42 -35 -85 34 -190 136 -206 171 -320 178 -582 7
-251 -19 -412 -91 -568 -37 -80 -107 -172 -139 -184 -67 -26 -82 -105 -29
-152 34 -30 63 -36 107 -19 134 51 299 361 351 663 13 71 15 133 11 267 -4
151 -9 191 -35 290 -16 64 -44 145 -62 180 -49 98 -170 289 -194 305 -34 24
-103 19 -131 -10z"/>
<path d="M64599 30557 c-48 -32 -61 -63 -47 -114 14 -57 46 -85 106 -91 44 -4
52 -1 84 27 40 35 50 68 37 117 -22 77 -111 107 -180 61z"/>
<path d="M48620 30522 c-123 -45 -202 -99 -255 -177 -99 -145 -104 -370 -12
-527 36 -61 117 -135 185 -166 51 -24 68 -27 172 -27 129 0 192 16 331 86 112
56 138 111 80 170 -46 46 -100 41 -233 -22 -106 -50 -110 -51 -186 -48 -66 3
-85 8 -118 31 -22 15 -47 41 -57 57 l-18 30 38 9 c21 5 90 22 153 37 287 68
411 159 413 303 1 114 -68 210 -181 252 -81 31 -214 27 -312 -8z m250 -167
c31 -16 44 -46 38 -86 -2 -17 -18 -32 -53 -51 -48 -25 -250 -89 -327 -103 -35
-7 -38 -5 -38 16 0 40 46 125 84 155 46 37 169 83 224 83 24 1 56 -6 72 -14z"/>
<path d="M66018 30534 c-15 -8 -32 -22 -37 -32 -5 -10 -13 -90 -17 -180 l-7
-162 -69 0 c-67 0 -72 -2 -105 -35 -30 -30 -35 -40 -29 -67 3 -17 13 -39 21
-48 21 -23 82 -40 142 -40 l50 0 -5 -328 c-4 -291 -3 -331 12 -360 9 -17 25
-36 35 -42 46 -24 124 1 141 46 6 14 10 110 10 213 0 103 3 249 7 324 l6 137
91 0 c70 0 99 4 126 19 65 34 65 105 1 148 -29 20 -47 23 -129 23 l-95 0 6
160 c7 176 2 202 -44 226 -35 18 -76 17 -111 -2z"/>
<path d="M50547 30529 c-42 -24 -44 -47 -52 -462 -8 -433 -7 -445 46 -472 44
-24 87 -19 118 13 24 24 29 38 34 107 5 68 12 704 8 758 -2 35 -47 67 -93 67
-24 0 -51 -5 -61 -11z"/>
<path d="M51300 30501 c-30 -10 -74 -27 -97 -39 -42 -22 -42 -22 -53 -2 -14
26 -61 50 -100 50 -38 0 -78 -39 -84 -84 -10 -62 -13 -761 -4 -788 20 -57 93
-75 154 -37 l34 21 0 246 c0 238 1 249 24 297 24 52 92 122 142 148 36 18 107
29 129 21 41 -16 45 -48 45 -376 0 -356 3 -370 72 -396 33 -13 41 -12 75 4 72
36 75 50 76 422 2 370 3 364 -79 447 -78 78 -214 105 -334 66z"/>
<path d="M54104 30450 c-11 -4 -28 -20 -38 -34 -15 -24 -18 -76 -27 -436 -9
-363 -8 -413 6 -439 8 -17 24 -35 34 -41 48 -25 128 -2 148 43 7 15 14 137 19
317 l7 292 48 49 c44 45 52 49 94 49 56 0 96 -19 129 -63 l25 -33 3 -302 3
-302 28 -27 c39 -40 105 -40 144 0 l28 27 5 298 c5 284 6 299 27 332 26 41 48
56 96 65 48 9 120 -23 147 -67 21 -32 21 -40 15 -333 -7 -295 -7 -300 14 -327
31 -39 82 -53 123 -34 60 29 60 32 68 369 8 314 6 348 -23 403 -20 39 -94 107
-146 133 -49 25 -143 51 -186 51 -39 0 -120 -40 -170 -84 l-39 -33 -50 39
c-28 21 -75 47 -104 58 -71 27 -181 27 -240 0 l-44 -20 -25 30 c-19 24 -33 30
-61 29 -21 0 -46 -4 -58 -9z"/>
<path d="M58920 30310 c-269 -56 -472 -402 -392 -667 77 -253 302 -360 526
-249 110 54 183 130 243 253 46 95 48 101 51 203 6 163 -27 267 -115 361 -80
86 -197 123 -313 99z m97 -180 c21 0 73 -52 94 -92 69 -135 3 -371 -130 -459
-37 -24 -54 -29 -107 -29 -53 0 -67 4 -95 27 -47 40 -69 95 -69 178 0 133 53
257 141 328 43 34 106 58 134 52 11 -3 25 -5 32 -5z"/>
<path d="M61666 30269 c-14 -11 -31 -29 -36 -39 -6 -11 -14 -193 -20 -420 -10
-430 -9 -454 38 -479 39 -21 97 -13 129 17 l30 27 6 175 c4 96 7 231 7 299 0
123 0 123 31 162 17 22 44 46 60 54 61 32 144 8 189 -55 19 -27 20 -43 20
-318 0 -161 4 -302 10 -316 10 -27 56 -56 90 -56 30 0 78 27 91 51 7 14 13
124 16 308 5 253 8 290 24 323 26 50 61 72 118 72 59 0 107 -28 131 -75 17
-32 18 -57 13 -325 -7 -327 -4 -342 61 -364 44 -14 77 -5 112 31 l29 30 7 307
c8 323 6 346 -22 402 -58 115 -263 213 -374 180 -39 -12 -148 -80 -161 -100
-3 -5 -27 7 -53 27 -70 53 -127 75 -212 80 -60 4 -86 1 -129 -15 l-53 -21 -25
30 c-31 36 -86 40 -127 8z"/>
<path d="M64597 30209 c-42 -24 -44 -47 -52 -465 -6 -359 -5 -404 9 -432 31
-60 107 -72 155 -24 24 24 29 38 34 107 10 121 12 747 3 773 -14 42 -104 67
-149 41z"/>
<path d="M65160 30205 c-89 -29 -158 -108 -185 -212 -21 -82 -2 -146 66 -218
54 -57 112 -86 246 -125 58 -17 78 -28 102 -58 20 -24 31 -48 31 -69 0 -44
-41 -90 -93 -104 -64 -17 -108 1 -193 82 -68 65 -76 69 -119 69 -36 0 -51 -6
-72 -26 -23 -23 -25 -31 -20 -77 6 -43 13 -58 54 -99 84 -85 234 -148 353
-148 69 0 125 25 188 84 88 83 119 183 88 288 -33 116 -103 173 -279 230 -153
49 -193 103 -126 170 29 29 33 30 97 25 37 -3 89 -15 116 -27 58 -26 107 -22
142 11 60 57 7 143 -116 187 -82 30 -215 38 -280 17z"/>
<path d="M56200 30169 c-44 -18 -60 -40 -60 -81 0 -50 35 -85 93 -93 74 -9
591 -21 625 -14 95 20 110 124 25 168 -30 16 -98 20 -398 25 -161 3 -269 1
-285 -5z"/>
<path d="M67770 30122 c-30 -10 -72 -28 -93 -38 l-39 -20 -33 33 c-36 36 -73
42 -119 22 -52 -24 -54 -42 -58 -467 l-3 -394 33 -29 c38 -34 73 -37 122 -10
l35 18 5 259 c6 294 8 302 93 381 55 51 89 69 148 78 36 5 49 3 69 -13 l25
-20 5 -339 c6 -378 6 -380 75 -403 30 -10 41 -9 73 7 70 34 73 52 79 401 4
215 2 320 -6 349 -18 64 -80 136 -147 169 -74 36 -183 43 -264 16z"/>
<path d="M66820 30114 c-68 -18 -117 -47 -197 -116 -186 -158 -263 -376 -203
-571 26 -83 90 -154 175 -194 55 -26 69 -28 170 -27 115 2 184 18 237 56 l28
19 40 -42 c37 -40 42 -41 85 -37 53 6 81 28 91 70 5 24 -3 50 -37 122 l-44 91
-5 287 -5 288 -26 25 c-14 15 -43 30 -65 35 -58 14 -182 11 -244 -6z m132
-364 c1 -115 2 -225 2 -242 1 -30 -6 -38 -62 -75 -75 -50 -128 -56 -198 -22
-61 29 -86 74 -88 157 -2 154 101 306 250 367 101 42 94 55 96 -185z"/>
<path d="M68688 30111 c-71 -28 -112 -57 -168 -118 -112 -122 -176 -328 -149
-478 35 -193 139 -312 307 -346 114 -24 260 19 341 100 50 50 59 82 37 127
-28 59 -114 74 -163 28 -90 -84 -191 -83 -260 0 -38 46 -53 96 -53 173 0 162
89 321 199 354 34 10 47 9 87 -6 26 -10 64 -33 86 -53 52 -47 112 -55 153 -20
34 30 38 76 8 116 -30 41 -110 98 -171 121 -70 27 -187 28 -254 2z"/>
<path d="M69664 30069 c-101 -13 -230 -72 -309 -141 -97 -85 -152 -269 -126
-416 27 -149 123 -283 244 -338 125 -57 298 -41 480 44 80 37 137 87 137 118
0 24 -29 73 -49 84 -43 23 -106 11 -207 -37 -84 -41 -109 -48 -171 -51 -59 -3
-81 0 -118 18 -44 21 -104 84 -92 97 3 3 61 19 129 34 241 57 341 101 413 181
48 54 60 91 53 166 -16 168 -176 268 -384 241z m131 -193 c65 -28 72 -98 12
-134 -17 -12 -68 -32 -112 -47 -73 -24 -258 -75 -270 -75 -18 0 36 134 68 168
28 31 103 69 170 87 68 18 90 18 132 1z"/>
<path d="M70973 29980 c-48 -29 -67 -63 -60 -111 6 -47 37 -85 84 -105 44 -19
69 -18 120 7 72 35 93 106 50 170 -12 18 -34 39 -47 46 -38 19 -110 16 -147
-7z"/>
<path d="M56205 29832 c-90 -19 -110 -121 -32 -167 29 -17 64 -20 347 -27 339
-9 364 -6 400 39 27 35 25 67 -8 104 -24 27 -36 31 -102 39 -81 9 -572 19
-605 12z"/>
<path d="M49216 29607 c-21 -7 -48 -24 -59 -39 -17 -23 -19 -34 -11 -64 19
-77 -8 -73 624 -88 502 -12 569 -12 603 1 67 27 77 85 25 137 l-33 33 -175 6
c-96 4 -328 9 -515 12 -187 3 -358 8 -380 10 -22 2 -58 -2 -79 -8z"/>
<path d="M51793 29534 c-44 -22 -59 -61 -40 -107 9 -19 26 -41 39 -48 17 -10
171 -16 591 -26 547 -13 570 -13 600 5 18 10 38 30 45 45 18 37 -9 94 -52 112
-22 9 -166 16 -491 24 -601 15 -652 14 -692 -5z"/>
<path d="M71040 29451 c-16 -4 -35 -26 -55 -61 -17 -30 -62 -107 -99 -172 -64
-111 -67 -118 -57 -153 5 -21 18 -46 27 -56 22 -24 75 -25 102 -1 34 28 202
324 202 354 0 31 -44 84 -75 91 -11 3 -31 2 -45 -2z"/>
<path d="M59380 29373 c-24 -9 -52 -36 -61 -61 -14 -36 14 -90 53 -106 42 -17
1130 -42 1170 -27 38 14 70 60 63 89 -11 43 -37 72 -74 82 -20 5 -247 14 -506
20 -506 11 -622 12 -645 3z"/>
<path d="M46873 25516 l-28 -24 -3 -199 -3 -198 -116 3 c-93 3 -128 -1 -182
-17 -144 -44 -257 -140 -301 -257 -78 -208 -40 -435 91 -547 22 -19 68 -46
102 -59 117 -44 304 -24 398 42 l29 22 30 -26 c38 -32 64 -39 105 -32 71 14
100 102 49 149 l-26 24 11 399 c6 219 13 460 17 535 l6 136 -32 37 c-28 31
-38 36 -75 36 -32 0 -52 -7 -72 -24z m-49 -625 c14 -12 16 -41 16 -200 l-1
-186 -42 -31 c-79 -58 -127 -77 -197 -78 -51 0 -75 5 -110 25 -163 90 -109
393 84 469 41 16 69 20 142 17 58 -2 98 -8 108 -16z"/>
<path d="M50194 25440 c-49 -20 -54 -41 -54 -245 l0 -190 -115 3 c-85 3 -129
-1 -171 -13 -150 -43 -272 -141 -313 -250 -33 -86 -53 -210 -46 -275 19 -169
86 -273 214 -334 61 -29 74 -31 171 -30 111 0 189 20 247 62 l27 20 39 -31
c76 -62 168 -28 171 63 0 33 -4 45 -24 60 l-24 18 12 484 c17 653 18 603 -17
639 -31 30 -73 37 -117 19z m-76 -646 c21 -15 22 -20 22 -202 l-1 -187 -47
-32 c-142 -96 -276 -97 -355 -4 -101 121 -21 369 137 425 58 20 215 21 244 0z"/>
<path d="M50643 25380 c-38 -23 -53 -48 -53 -90 0 -103 117 -157 194 -90 40
36 51 70 36 116 -25 75 -109 106 -177 64z"/>
<path d="M52073 25355 c-60 -26 -68 -51 -72 -227 l-3 -158 -63 0 c-35 0 -75
-4 -89 -10 -36 -13 -63 -72 -50 -108 13 -38 83 -72 149 -72 l50 0 -4 -325 c-4
-352 -2 -369 48 -398 41 -24 84 -21 119 8 l29 24 7 298 c4 164 9 317 12 341
l6 42 90 0 c104 0 150 16 168 60 16 37 7 62 -36 99 -33 30 -38 31 -129 31
l-95 0 0 175 c0 173 0 176 -25 200 -13 14 -31 25 -39 25 -8 0 -20 2 -28 5 -7
2 -27 -2 -45 -10z"/>
<path d="M42650 25281 c-95 -22 -163 -80 -205 -173 -34 -75 -36 -126 -8 -189
43 -96 128 -156 274 -194 85 -22 113 -38 138 -78 73 -118 -78 -218 -203 -136
-26 18 -59 47 -74 66 -48 61 -104 78 -162 48 -34 -18 -40 -34 -38 -100 2 -45
7 -54 50 -97 92 -90 215 -142 338 -142 92 -1 134 18 205 89 63 63 88 113 93
192 6 81 -18 150 -68 202 -45 47 -83 67 -222 121 -56 22 -112 50 -125 62 -24
23 -30 66 -13 97 24 47 130 52 225 11 71 -30 110 -27 152 15 36 36 38 53 7
102 -44 70 -254 129 -364 104z"/>
<path d="M43323 25224 c-51 -26 -44 52 -69 -779 -11 -375 -12 -548 -5 -567 30
-79 162 -80 191 -2 6 14 10 58 10 97 0 40 3 136 7 215 l6 142 96 0 c227 0 382
83 463 247 28 57 33 79 36 161 7 161 -27 260 -125 363 -79 83 -152 114 -263
113 -62 0 -100 -6 -138 -22 l-53 -21 -27 30 c-33 37 -84 46 -129 23z m407
-209 c67 -35 120 -145 120 -250 0 -75 -15 -117 -59 -167 -50 -57 -119 -82
-231 -82 l-95 -1 0 198 0 198 35 34 c79 77 166 103 230 70z"/>
<path d="M57520 25173 c-42 -35 -51 -61 -38 -111 14 -56 47 -84 106 -90 44 -4
52 -1 85 28 33 29 37 37 37 82 0 44 -4 54 -34 84 -45 45 -108 48 -156 7z"/>
<path d="M44653 25180 c-129 -27 -291 -125 -343 -207 -57 -90 -74 -148 -74
-263 -1 -91 3 -115 27 -180 104 -280 372 -357 702 -201 93 44 126 75 127 121
1 25 -6 40 -31 62 -45 40 -110 39 -193 -3 -95 -48 -137 -60 -210 -60 -79 0
-110 14 -163 72 l-38 43 109 23 c230 48 366 103 439 179 53 54 69 99 62 169
-10 97 -76 184 -171 226 -55 24 -175 34 -243 19z m163 -196 c35 -17 48 -43 42
-85 -5 -35 -78 -70 -242 -118 -176 -52 -180 -52 -173 -5 8 48 50 118 91 149
42 32 158 73 209 74 22 1 54 -6 73 -15z"/>
<path d="M45610 25145 c-91 -25 -219 -94 -271 -145 -109 -109 -154 -287 -114
-445 66 -256 279 -382 542 -320 85 20 240 88 274 121 41 40 40 93 -2 128 -47
40 -105 36 -215 -16 -73 -34 -102 -43 -161 -46 -93 -5 -132 9 -184 66 l-43 46
119 26 c271 59 398 118 460 212 77 116 9 295 -138 359 -66 29 -189 35 -267 14z
m190 -190 c16 -9 33 -27 36 -40 11 -46 -3 -73 -54 -99 -47 -24 -254 -88 -324
-101 -35 -7 -38 -5 -38 16 0 41 46 124 86 157 45 38 162 80 222 81 24 1 56 -6
72 -14z"/>
<path d="M60142 25134 c-12 -8 -27 -24 -33 -36 -13 -23 -49 -1177 -39 -1218 8
-30 63 -70 97 -70 35 0 80 26 89 52 5 13 7 60 5 105 -2 45 0 134 4 198 8 119
17 137 46 96 39 -54 362 -432 385 -450 37 -29 104 -28 139 2 31 26 37 83 12
120 -8 12 -96 118 -196 236 -100 118 -178 217 -174 221 156 126 261 229 291
287 40 74 -34 151 -124 129 -15 -4 -82 -63 -158 -139 -72 -73 -147 -140 -165
-151 l-34 -19 8 296 7 296 -30 31 c-35 34 -92 41 -130 14z"/>
<path d="M50624 25016 c-27 -23 -28 -26 -35 -167 -4 -79 -9 -271 -10 -427 l-4
-284 33 -29 c34 -31 85 -39 123 -19 44 24 47 44 54 477 l8 412 -31 30 c-39 40
-97 43 -138 7z"/>
<path d="M51227 25029 c-104 -24 -192 -119 -218 -234 -16 -70 6 -136 67 -204
48 -53 142 -100 244 -122 62 -13 125 -65 135 -109 14 -62 -53 -130 -127 -130
-54 0 -104 28 -166 94 -58 60 -83 72 -136 62 -52 -10 -67 -34 -65 -102 1 -58
3 -60 56 -111 92 -89 252 -151 360 -140 97 10 192 80 245 179 32 60 32 185 1
243 -36 67 -92 113 -192 155 -50 22 -96 40 -102 40 -16 0 -72 31 -96 53 -30
27 -31 86 -3 112 33 30 105 31 191 1 96 -33 129 -33 168 0 62 52 30 131 -70
173 -100 43 -213 59 -292 40z"/>
<path d="M53823 24935 c-29 -8 -76 -26 -104 -41 -41 -21 -53 -23 -60 -12 -5 7
-9 16 -9 20 0 11 -56 38 -80 38 -36 0 -81 -30 -95 -63 -10 -24 -14 -124 -15
-407 -1 -206 -2 -383 -1 -393 0 -10 12 -29 26 -42 31 -32 94 -34 135 -5 l29
20 3 258 3 257 26 40 c76 115 207 183 279 145 35 -19 40 -63 40 -392 l0 -320
29 -29 c22 -21 39 -29 66 -29 43 0 92 23 99 47 3 10 8 106 10 213 3 107 11
240 17 294 20 174 2 251 -78 328 -77 75 -208 105 -320 73z"/>
<path d="M52884 24926 c-99 -23 -178 -71 -271 -163 -120 -120 -177 -248 -178
-398 0 -124 21 -183 94 -256 83 -83 141 -102 292 -97 107 4 122 7 183 37 l66
32 30 -35 c17 -19 44 -37 59 -41 36 -8 95 16 110 43 15 29 14 77 -3 91 -7 6
-26 39 -42 74 l-28 62 -4 290 c-4 229 -7 294 -19 311 -33 51 -176 75 -289 50z
m97 -353 c0 -104 4 -209 8 -236 l8 -47 -47 -34 c-72 -51 -86 -57 -151 -57 -70
-1 -112 20 -147 72 -22 31 -24 42 -19 113 4 64 12 92 42 153 21 42 55 93 77
115 42 42 167 108 205 108 l23 0 1 -187z"/>
<path d="M54731 24904 c-132 -47 -241 -170 -297 -336 -68 -205 -13 -431 130
-540 132 -99 353 -89 479 22 71 62 80 112 31 165 -18 20 -33 25 -69 25 -38 0
-51 -5 -73 -29 -39 -41 -84 -61 -140 -61 -63 0 -108 29 -145 95 -26 48 -28 55
-24 155 3 103 5 108 48 190 57 109 107 150 180 150 57 0 87 -13 148 -64 35
-29 51 -36 87 -36 46 0 80 24 90 66 13 53 -59 128 -173 181 -62 29 -82 33
-150 33 -44 -1 -98 -8 -122 -16z"/>
<path d="M48010 24874 c-30 -13 -60 -48 -60 -71 0 -36 25 -78 57 -93 19 -9
104 -15 273 -21 135 -4 276 -10 313 -13 74 -5 109 4 145 36 48 46 9 125 -74
146 -43 12 -630 25 -654 16z"/>
<path d="M55700 24864 c-98 -19 -235 -85 -305 -146 -174 -153 -183 -483 -19
-659 86 -91 178 -129 313 -129 87 0 158 17 276 66 149 63 192 129 125 195 -43
43 -115 39 -217 -12 -150 -76 -256 -74 -339 5 -24 23 -44 47 -44 53 0 6 20 14
44 17 25 4 97 20 160 36 277 70 396 160 398 299 2 111 -75 219 -181 256 -47
17 -167 27 -211 19z m148 -204 c27 -17 32 -25 32 -58 0 -61 -31 -81 -215 -135
-66 -20 -140 -39 -164 -43 l-43 -7 7 34 c21 97 82 160 192 200 93 33 146 36
191 9z"/>
<path d="M57510 24812 c-26 -26 -28 -35 -34 -133 -3 -57 -8 -242 -11 -410 -5
-234 -3 -312 6 -333 26 -57 116 -75 162 -32 33 31 35 50 43 503 l6 373 -30 30
c-42 41 -101 42 -142 2z"/>
<path d="M58322 24809 c-28 -5 -82 -23 -119 -39 l-68 -31 -18 25 c-27 37 -77
50 -120 32 -63 -26 -64 -30 -70 -463 l-6 -392 25 -30 c35 -42 83 -50 128 -22
19 12 37 28 40 37 3 9 6 122 6 252 0 215 2 239 20 277 59 121 224 211 290 157
l25 -20 5 -339 c3 -186 9 -346 14 -355 10 -21 43 -43 79 -52 32 -8 92 17 106
43 5 9 10 85 10 169 1 85 6 197 11 250 14 149 12 287 -5 328 -26 64 -73 112
-138 143 -70 34 -138 43 -215 30z"/>
<path d="M61072 24724 c-12 -8 -27 -25 -33 -36 -15 -28 -42 -819 -29 -852 12
-33 58 -66 92 -66 36 0 84 24 97 48 5 10 12 110 15 222 4 113 9 247 12 299 l6
94 49 49 c44 44 52 48 96 48 55 0 91 -20 129 -71 l26 -34 -6 -293 -5 -292 28
-33 c25 -27 36 -32 75 -32 36 0 51 6 73 28 l28 27 8 298 c7 250 11 302 25 326
28 47 66 69 121 70 56 1 91 -19 129 -75 21 -30 23 -42 18 -104 -4 -38 -7 -174
-9 -302 l-2 -232 28 -28 c22 -22 36 -28 73 -28 38 0 50 5 74 31 l27 31 7 219
c13 442 14 432 -19 493 -52 95 -172 169 -288 178 -81 7 -121 -6 -197 -63 l-59
-45 -28 26 c-85 81 -231 115 -347 81 l-58 -17 -25 25 c-30 31 -95 36 -131 10z"/>
<path d="M48004 24530 c-29 -12 -64 -58 -64 -85 0 -32 35 -72 73 -84 17 -6
170 -15 339 -21 283 -10 311 -10 344 6 49 23 72 71 53 110 -29 59 -55 65 -321
74 -299 11 -397 11 -424 0z"/>
<path d="M56163 23906 c-76 -35 -71 -140 10 -165 17 -5 280 -17 584 -27 536
-16 553 -16 589 2 48 24 63 63 41 109 -28 59 -42 61 -482 74 -220 6 -470 14
-555 17 -123 4 -162 2 -187 -10z"/>
<path d="M58763 23830 c-61 -25 -68 -111 -12 -151 29 -20 48 -22 592 -39 498
-15 566 -15 600 -2 42 16 57 37 57 79 -1 32 -14 52 -51 76 -23 15 -86 19 -470
32 -500 17 -684 18 -716 5z"/>
<path d="M64210 23738 c-72 -37 -91 -104 -47 -169 29 -43 60 -59 118 -59 52 0
105 29 127 70 30 57 -6 137 -75 166 -45 19 -72 17 -123 -8z"/>
<path d="M49677 23514 c-4 -4 -7 -51 -7 -105 l0 -97 173 -6 c94 -3 384 -11
642 -16 660 -15 1752 -44 3135 -85 652 -20 1637 -49 2190 -65 2807 -83 4286
-118 5860 -140 382 -5 725 -10 763 -10 l67 0 0 104 0 104 -402 6 c-1389 21
-1782 28 -2373 41 -1185 27 -2452 61 -4940 135 -737 22 -1569 47 -1850 55
-755 22 -1928 53 -2440 65 -247 5 -531 12 -630 15 -99 4 -184 3 -188 -1z"/>
<path d="M64257 23203 c-9 -2 -61 -79 -118 -174 -96 -163 -99 -171 -90 -205 6
-20 18 -45 27 -55 17 -19 66 -25 99 -13 20 8 215 335 215 361 0 20 -24 61 -48
81 -16 12 -50 14 -85 5z"/>
<path d="M53181 23068 c-58 -31 -58 -24 -76 -646 -13 -443 -14 -580 -5 -602
12 -30 62 -60 99 -60 35 0 70 22 84 54 10 22 15 80 16 201 2 244 3 248 70 324
106 122 201 155 261 91 55 -59 63 -101 69 -377 6 -241 7 -254 27 -274 13 -13
39 -23 67 -26 41 -5 49 -2 77 25 l30 30 0 249 c0 269 -7 317 -55 414 -62 121
-146 173 -281 174 -75 0 -87 -3 -163 -41 l-83 -41 8 222 7 222 -29 32 c-33 36
-86 49 -123 29z"/>
<path d="M54487 22649 c-263 -38 -487 -374 -426 -638 27 -119 118 -239 217
-288 50 -25 68 -28 152 -28 88 0 101 3 163 33 133 66 235 188 287 342 39 115
13 312 -54 419 -43 67 -122 129 -193 151 -36 11 -70 19 -77 19 -6 -1 -37 -5
-69 -10z m113 -205 c130 -110 93 -399 -67 -521 -78 -59 -174 -54 -231 12 -45
50 -56 95 -49 198 5 74 12 102 38 155 75 153 223 228 309 156z"/>
<path d="M55093 22595 l-34 -34 3 -273 3 -273 29 -62 c34 -74 123 -164 193
-195 107 -48 241 -31 348 42 38 26 49 30 56 19 5 -8 9 -16 9 -19 0 -3 16 -22
36 -43 32 -32 42 -37 83 -37 95 0 114 64 57 192 -34 78 -39 136 -33 394 6 279
6 283 -57 304 -27 9 -42 8 -69 -4 -69 -28 -87 -100 -87 -356 l0 -196 -52 -51
c-29 -28 -67 -58 -85 -67 -74 -37 -150 -6 -193 79 -24 49 -25 58 -30 308 l-5
259 -30 24 c-46 37 -98 33 -142 -11z"/>
<path d="M56458 22611 c-25 -10 -67 -32 -92 -49 l-46 -31 -33 19 c-17 10 -53
24 -80 31 -58 14 -101 0 -123 -42 -19 -38 -9 -73 31 -107 l33 -27 -11 -327
c-11 -364 -10 -378 48 -405 42 -20 94 -11 126 23 23 25 24 29 32 312 l8 287
49 46 c53 51 149 109 179 109 10 0 41 -18 67 -40 61 -51 119 -56 161 -14 83
83 -75 235 -245 234 -31 -1 -78 -9 -104 -19z"/>
<path d="M57155 22619 c-124 -16 -226 -119 -250 -251 -17 -89 67 -217 172
-264 29 -12 87 -32 130 -44 116 -32 168 -91 143 -164 -15 -47 -63 -76 -124
-76 -61 0 -88 15 -160 89 -65 66 -97 79 -151 61 -45 -15 -55 -35 -54 -104 2
-55 3 -58 58 -109 136 -125 346 -173 464 -104 135 79 198 236 148 367 -36 95
-104 145 -294 216 -99 37 -127 62 -127 114 0 31 5 43 25 56 45 30 95 29 192
-5 78 -27 95 -29 124 -20 44 15 69 46 69 88 0 52 -52 95 -153 125 -96 29 -144
35 -212 25z"/>
<path d="M42122 19335 c-46 -20 -62 -65 -62 -173 0 -49 -3 -117 -6 -151 l-7
-61 -69 0 c-82 0 -105 -10 -124 -55 -30 -74 37 -135 149 -135 l50 0 -6 -47
c-4 -27 -9 -167 -13 -313 -7 -309 -3 -333 59 -364 33 -16 45 -17 78 -7 65 20
66 23 73 351 4 162 9 313 12 335 l6 41 91 -4 c74 -2 99 0 127 15 62 32 66 103
7 147 -23 17 -46 22 -128 24 l-99 4 7 167 c7 187 3 204 -52 227 -42 17 -51 17
-93 -1z"/>
<path d="M46069 19260 c-96 -16 -181 -85 -224 -182 -24 -53 -29 -83 -36 -188
-4 -69 -8 -135 -9 -146 0 -18 -6 -22 -34 -22 -18 0 -43 -5 -56 -12 -28 -15
-49 -66 -41 -99 9 -33 65 -71 104 -71 l29 0 -6 -62 c-3 -35 -8 -172 -12 -305
l-7 -242 31 -30 c41 -42 97 -43 140 -3 l29 27 7 225 c4 124 9 260 13 303 l6
77 96 0 c107 1 177 13 203 37 26 24 24 84 -4 110 -41 37 -65 43 -178 43 l-112
0 4 123 c3 102 7 129 26 164 38 73 84 81 192 33 91 -40 123 -39 166 4 20 20
34 44 34 59 0 55 -74 110 -196 146 -75 22 -92 23 -165 11z"/>
<path d="M48463 19095 c-58 -25 -65 -48 -71 -225 l-5 -160 -74 0 c-69 0 -77
-2 -104 -29 -71 -72 -5 -161 120 -161 l47 0 0 -341 -1 -341 34 -30 c29 -26 39
-30 74 -25 25 3 50 16 66 31 l26 26 6 303 c4 166 7 316 8 334 l1 31 109 4
c100 3 112 5 135 27 48 45 28 119 -40 147 -20 8 -68 14 -119 14 -78 0 -86 2
-81 18 3 9 6 85 7 167 3 168 -2 188 -56 211 -41 17 -42 17 -82 -1z"/>
<path d="M42960 18909 c-80 -11 -163 -45 -218 -88 -232 -184 -302 -497 -158
-714 72 -109 178 -161 311 -155 149 8 267 79 361 219 65 97 94 180 101 289 9
145 -36 271 -131 364 -73 72 -160 100 -266 85z m100 -197 c14 -10 39 -38 55
-61 29 -41 30 -48 30 -144 0 -93 -3 -108 -31 -167 -36 -75 -72 -121 -128 -161
-33 -24 -49 -29 -100 -29 -77 0 -116 22 -146 85 -20 42 -22 57 -18 153 4 92 9
115 33 162 37 74 68 112 114 144 71 49 140 56 191 18z"/>
<path d="M43881 18865 c-85 -24 -151 -64 -221 -135 -110 -110 -170 -251 -170
-400 0 -219 124 -379 317 -410 79 -13 148 0 240 45 165 81 293 296 293 493 0
164 -99 339 -221 392 -66 28 -168 34 -238 15z m156 -185 c18 -10 45 -39 60
-62 26 -40 28 -50 28 -153 0 -101 -2 -115 -29 -170 -36 -72 -96 -140 -150
-167 -31 -16 -53 -19 -99 -16 -53 4 -63 8 -93 40 -45 49 -58 103 -51 212 5 72
12 101 37 152 71 145 206 220 297 164z"/>
<path d="M55790 18842 c-55 -27 -60 -46 -60 -253 l0 -186 -47 9 c-69 13 -191
2 -283 -28 -144 -45 -243 -141 -292 -281 -19 -57 -23 -88 -23 -188 0 -103 3
-128 24 -179 33 -83 116 -166 196 -196 120 -45 271 -35 388 26 l48 25 35 -31
c39 -34 78 -39 123 -15 33 17 41 33 41 85 0 27 -7 45 -21 59 l-21 20 21 529
c14 360 18 538 11 556 -10 27 -63 66 -90 66 -8 0 -31 -8 -50 -18z m-106 -632
l26 -10 0 -194 0 -195 -57 -39 c-81 -53 -106 -62 -171 -62 -128 1 -212 84
-212 211 0 20 9 68 21 105 17 57 30 77 70 116 28 26 69 53 92 62 48 17 193 21
231 6z"/>
<path d="M47576 18765 c-63 -22 -108 -66 -148 -144 -47 -90 -50 -143 -12 -219
42 -85 96 -124 232 -167 97 -32 123 -44 155 -76 57 -59 48 -127 -23 -164 -71
-37 -172 -3 -236 80 -56 70 -122 85 -175 37 -31 -27 -31 -29 -24 -90 7 -59 9
-64 66 -116 63 -59 135 -97 225 -121 92 -24 151 -20 222 16 189 94 239 343 94
470 -39 35 -143 86 -231 115 -60 19 -131 76 -131 105 0 31 21 66 47 78 38 17
108 13 171 -10 80 -30 114 -33 150 -15 82 42 65 134 -34 182 -108 53 -261 70
-348 39z"/>
<path d="M46800 18756 c-186 -52 -379 -275 -420 -484 -27 -134 14 -269 104
-347 112 -98 320 -119 464 -46 l56 28 36 -38 c32 -34 43 -39 83 -39 38 0 49 5
71 31 35 41 33 71 -11 159 l-37 75 -6 301 c-6 334 -3 323 -75 355 -48 22 -194
24 -265 5z m123 -383 c3 -120 8 -227 11 -238 5 -16 -6 -28 -61 -64 -60 -40
-73 -45 -127 -45 -104 -1 -166 51 -174 147 -10 121 65 273 171 349 29 21 140
66 163 67 8 1 13 -65 17 -216z"/>
<path d="M51523 18630 c-56 -12 -91 -31 -135 -77 -80 -83 -109 -202 -69 -288
40 -88 100 -134 226 -175 147 -47 155 -51 180 -88 30 -45 32 -81 4 -116 -67
-86 -171 -69 -280 44 -53 56 -61 60 -102 60 -30 0 -53 -7 -71 -21 -25 -20 -27
-26 -24 -83 3 -59 5 -63 58 -117 64 -64 153 -111 255 -135 118 -27 212 2 294
91 56 61 82 121 83 193 1 92 -17 138 -75 196 -51 51 -95 74 -252 131 -59 22
-115 73 -115 107 0 35 25 65 65 78 41 14 109 2 191 -32 61 -25 94 -20 135 22
76 75 -9 167 -189 206 -74 15 -116 16 -179 4z"/>
<path d="M62858 18574 c-15 -8 -32 -23 -38 -34 -6 -11 -10 -98 -10 -208 l0
-190 -98 5 c-232 13 -424 -83 -503 -250 -93 -200 -71 -422 54 -548 113 -114
322 -138 489 -56 l68 33 27 -28 c34 -36 81 -45 121 -24 57 29 69 93 29 143
l-24 28 20 525 c12 289 17 538 14 553 -9 32 -60 67 -97 67 -14 -1 -37 -7 -52
-16z m-90 -633 c22 -12 22 -15 22 -204 l0 -192 -58 -37 c-90 -58 -129 -71
-194 -65 -69 6 -125 36 -158 84 -20 29 -26 52 -28 112 -9 198 122 327 323 318
39 -2 80 -9 93 -16z"/>
<path d="M52189 18552 c-37 -33 -31 50 -59 -753 -13 -347 -17 -565 -11 -580
35 -94 179 -83 196 15 3 17 9 119 13 226 l7 195 114 7 c62 4 138 15 169 23
212 62 322 208 322 426 0 179 -90 333 -235 405 -80 39 -201 46 -288 16 l-58
-19 -33 33 c-44 44 -92 46 -137 6z m425 -186 c42 -17 91 -77 111 -135 25 -73
20 -177 -11 -240 -31 -61 -101 -114 -174 -130 -50 -12 -143 -14 -178 -5 l-23
7 6 186 7 186 64 62 c80 78 132 97 198 69z"/>
<path d="M53555 18510 c-205 -29 -362 -138 -419 -290 -69 -187 -27 -390 108
-526 86 -86 147 -109 286 -108 94 1 117 5 215 38 120 41 186 74 210 108 24 35
19 76 -15 109 -44 45 -106 39 -227 -19 -162 -78 -283 -67 -354 32 l-30 40 108
23 c365 76 515 179 500 342 -16 177 -173 280 -382 251z m150 -202 c49 -22 47
-91 -4 -125 -34 -23 -164 -66 -293 -97 -87 -21 -88 -21 -88 11 0 38 34 103 74
142 64 62 241 101 311 69z"/>
<path d="M64521 18487 c-61 -31 -59 -10 -82 -645 -25 -668 -32 -602 71 -674
69 -49 118 -52 161 -9 42 43 40 83 -9 131 l-38 38 20 539 c11 296 16 551 12
566 -7 30 -58 67 -91 67 -11 0 -31 -6 -44 -13z"/>
<path d="M54518 18470 c-167 -28 -319 -124 -376 -237 -52 -101 -67 -251 -37
-362 60 -226 238 -350 462 -322 132 17 304 80 361 133 32 31 30 84 -5 120 -43
44 -106 40 -225 -17 -162 -77 -267 -71 -343 18 -19 22 -35 44 -35 47 0 4 46
17 103 29 277 59 433 135 481 235 25 53 21 142 -10 204 -64 128 -197 182 -376
152z m157 -194 c18 -8 38 -23 44 -34 40 -74 -29 -118 -288 -181 -68 -17 -126
-31 -127 -31 -12 0 -1 52 20 95 30 66 80 108 158 133 104 34 144 38 193 18z"/>
<path d="M64948 18441 c-30 -26 -33 -35 -32 -82 0 -47 4 -55 38 -87 35 -31 43
-34 83 -29 152 17 145 227 -8 227 -40 0 -55 -5 -81 -29z"/>
<path d="M49744 18450 c-16 -5 -41 -21 -53 -34 -19 -20 -22 -32 -17 -59 7 -36
24 -55 66 -77 31 -16 629 -41 676 -29 70 20 89 87 39 139 -16 17 -45 34 -65
39 -19 5 -127 12 -240 15 -113 4 -243 8 -290 11 -47 2 -99 0 -116 -5z"/>
<path d="M66823 18375 c-56 -45 -52 -129 8 -180 72 -60 189 -4 189 90 0 34
-24 80 -52 99 -35 25 -107 20 -145 -9z"/>
<path d="M56920 18383 c-8 -3 -25 -15 -37 -26 -26 -23 -31 -81 -10 -108 7 -8
89 -80 182 -159 94 -78 178 -151 188 -160 18 -17 10 -23 -185 -158 -112 -77
-210 -148 -218 -157 -8 -9 -14 -33 -14 -52 0 -49 40 -83 98 -83 38 0 67 16
297 170 140 94 264 182 277 196 27 30 29 80 4 110 -17 22 -145 132 -358 312
-140 117 -172 134 -224 115z"/>
<path d="M67415 18381 c-48 -20 -59 -47 -66 -164 -4 -62 -8 -136 -8 -164 l-1
-53 -55 0 c-91 0 -139 -28 -151 -87 -5 -25 0 -37 24 -64 27 -31 35 -34 101
-37 l72 -4 -7 -317 c-8 -343 -4 -377 42 -408 14 -9 43 -16 66 -16 34 0 47 6
70 32 28 31 28 33 28 164 0 72 3 223 7 335 l6 202 92 -6 c75 -6 98 -4 127 10
47 23 65 64 48 107 -21 49 -63 69 -145 69 -38 0 -81 3 -94 7 l-24 6 8 154 c8
172 1 204 -46 228 -31 16 -63 18 -94 6z"/>
<path d="M58589 18357 c-91 -21 -162 -86 -200 -187 -10 -27 -19 -70 -19 -93 0
-57 41 -138 93 -182 39 -33 177 -95 214 -95 63 -1 143 -75 143 -131 -1 -57
-59 -109 -123 -109 -57 0 -104 27 -174 97 -58 59 -64 63 -108 63 -36 0 -51 -6
-71 -25 -22 -22 -25 -32 -22 -83 3 -54 6 -60 59 -113 125 -128 333 -181 456
-116 111 58 176 160 176 277 0 139 -65 212 -256 286 -175 68 -225 127 -162
189 34 35 119 34 212 -1 80 -30 123 -26 159 13 28 30 30 62 9 103 -40 78 -252
137 -386 107z"/>
<path d="M59293 18305 c-62 -26 -60 -9 -82 -625 -28 -744 -28 -722 7 -760 22
-26 35 -31 71 -32 35 0 49 5 73 29 l30 30 8 189 c5 104 9 206 10 227 l0 37
108 0 c168 0 277 37 375 128 197 184 152 567 -84 705 -99 58 -239 70 -333 29
l-40 -18 -30 32 c-37 39 -70 47 -113 29z m408 -210 c62 -33 119 -147 119 -240
0 -57 -23 -129 -54 -170 -52 -68 -203 -117 -306 -100 l-43 7 5 189 4 190 49
49 c82 84 159 109 226 75z"/>
<path d="M60550 18224 c-68 -18 -161 -62 -218 -105 -58 -42 -96 -101 -128
-195 -23 -70 -26 -90 -21 -174 12 -219 121 -372 306 -426 134 -39 423 29 524
124 40 38 38 91 -5 127 -27 23 -38 26 -82 22 -31 -3 -86 -21 -141 -47 -99 -48
-192 -62 -258 -41 -32 11 -117 89 -117 109 0 4 40 16 90 25 212 41 358 97 435
168 62 57 75 86 75 162 0 113 -73 216 -178 251 -58 20 -207 20 -282 0z m245
-199 c16 -15 25 -36 25 -54 0 -39 -45 -70 -150 -104 -96 -31 -269 -71 -276
-64 -3 3 2 31 11 62 32 112 145 182 298 184 59 1 71 -2 92 -24z"/>
<path d="M61545 18194 c-82 -20 -197 -78 -253 -130 -86 -76 -139 -221 -129
-354 14 -201 122 -357 286 -411 123 -41 315 -13 480 71 102 51 125 103 72 162
-27 30 -34 33 -83 31 -40 -2 -78 -14 -144 -45 -76 -36 -101 -43 -167 -46 -47
-3 -89 1 -107 8 -35 14 -103 86 -97 103 2 6 52 21 111 33 272 57 413 130 467
240 18 38 20 55 15 102 -23 196 -210 294 -451 236z m238 -215 c36 -44 19 -82
-54 -120 -39 -19 -245 -79 -323 -93 l-38 -7 7 37 c22 120 116 195 265 213 70
9 120 -2 143 -30z"/>
<path d="M64970 18108 c-53 -28 -55 -45 -69 -470 -6 -216 -9 -403 -5 -413 12
-34 46 -64 79 -71 39 -7 89 16 106 48 13 24 43 791 33 839 -11 58 -91 94 -144
67z"/>
<path d="M49725 18095 c-47 -17 -65 -38 -65 -78 0 -83 34 -93 364 -107 349
-15 358 -15 393 4 65 33 64 119 -1 153 -31 17 -38 17 -521 37 -98 4 -140 2
-170 -9z"/>
<path d="M65364 18066 c-27 -27 -34 -42 -34 -72 0 -22 -7 -204 -15 -406 -10
-256 -11 -377 -4 -397 28 -79 160 -83 189 -5 5 13 14 153 20 311 l11 288 55
53 c49 46 60 52 98 52 54 0 115 -41 141 -96 17 -35 17 -59 11 -304 -4 -151
-11 -266 -17 -268 -15 -6 -10 -38 11 -65 31 -39 85 -51 130 -29 19 9 40 28 47
42 7 16 14 116 18 265 8 333 9 339 54 387 30 32 46 41 82 45 57 6 121 -23 150
-70 22 -34 22 -68 3 -492 -6 -125 -5 -131 17 -164 31 -44 76 -58 122 -36 59
28 60 32 72 375 7 173 9 327 5 341 -13 46 -38 83 -82 125 -56 53 -83 69 -157
94 -107 36 -177 24 -268 -44 l-57 -44 -43 38 c-88 77 -250 108 -347 67 l-38
-17 -35 30 c-48 42 -94 41 -139 -4z"/>
<path d="M66833 18030 c-22 -13 -35 -31 -42 -57 -14 -52 -34 -795 -22 -825 34
-90 166 -84 189 9 16 64 34 807 21 837 -12 26 -63 56 -96 56 -10 0 -32 -9 -50
-20z"/>
<path d="M44351 17918 c-13 -7 -33 -25 -44 -39 -35 -48 2 -114 73 -132 38 -10
1088 -50 1125 -43 42 8 78 48 78 86 0 34 -31 73 -71 88 -15 6 -229 18 -477 26
-247 9 -497 19 -555 22 -76 3 -112 1 -129 -8z"/>
<path d="M68055 17902 c-61 -38 -75 -82 -46 -147 25 -57 66 -79 136 -73 82 7
125 50 125 125 0 28 -8 44 -39 74 -35 36 -43 39 -92 39 -35 0 -65 -7 -84 -18z"/>
<path d="M68115 17371 c-29 -12 -40 -27 -136 -189 -84 -141 -86 -146 -77 -186
5 -22 16 -49 25 -58 19 -21 81 -24 105 -5 8 6 59 84 112 172 84 137 97 164 92
191 -11 55 -74 94 -121 75z"/>
<path d="M63120 17213 c-65 -24 -81 -103 -30 -146 16 -14 46 -28 67 -31 21 -3
278 -15 571 -26 519 -20 535 -20 565 -2 48 27 64 62 48 101 -29 68 -17 67
-626 90 -584 23 -572 22 -595 14z"/>
<path d="M36005 11202 c-78 -27 -139 -67 -190 -124 -75 -87 -576 -1100 -611
-1240 -41 -159 29 -338 169 -434 82 -56 148 -71 362 -78 588 -21 984 -40 2200
-106 1399 -76 1968 -101 2310 -104 l240 -1 67 32 c119 56 201 154 234 277 20
75 17 124 -16 291 -16 83 -48 296 -70 475 -70 559 -85 634 -152 735 -42 64
-134 130 -215 155 -60 18 -158 23 -1426 60 -1441 42 -2785 80 -2827 80 -14 -1
-48 -8 -75 -18z m1325 -852 c886 -25 2515 -72 2517 -74 0 0 10 -72 20 -160
l19 -158 -135 6 c-782 37 -1086 52 -1706 86 -396 22 -909 49 -1140 60 -231 11
-471 24 -533 28 l-113 7 51 105 c29 58 56 110 61 116 7 8 47 10 132 7 67 -2
439 -13 827 -23z"/>
<path d="M41845 11122 c-161 -56 -262 -177 -285 -344 -11 -75 -47 -486 -76
-862 -27 -352 -13 -433 96 -550 63 -67 136 -109 217 -126 41 -8 804 -32 1843
-56 309 -7 354 -3 444 42 60 30 138 102 171 159 61 105 80 295 65 642 -5 125
-15 338 -20 473 -14 311 -28 366 -119 463 -51 55 -109 93 -177 116 -53 18
-104 21 -534 31 -261 6 -646 15 -855 20 -566 14 -710 13 -770 -8z m1258 -838
c419 -8 373 10 379 -157 l3 -107 -145 5 c-233 9 -856 25 -937 25 l-75 0 6 38
c3 20 8 77 12 126 l7 89 196 -6 c108 -4 357 -10 554 -13z"/>
<path d="M45400 10994 c-155 -41 -275 -173 -300 -330 -11 -66 -38 -369 -75
-846 -27 -347 -25 -386 21 -485 49 -103 153 -189 269 -222 50 -15 1291 -51
1835 -54 l395 -2 66 33 c46 22 86 52 127 96 111 119 128 211 118 646 -11 505
-30 806 -54 867 -63 163 -204 260 -392 270 -103 5 -1823 43 -1900 42 -30 0
-80 -7 -110 -15z m1199 -844 c222 -5 406 -11 408 -14 2 -2 7 -58 10 -125 l6
-121 -49 0 c-120 0 -1097 30 -1101 34 -2 2 1 52 7 112 5 60 10 115 10 121 0
10 35 11 153 7 83 -2 334 -9 556 -14z"/>
<path d="M48880 10866 c-152 -43 -269 -167 -299 -319 -11 -55 -36 -331 -77
-857 -24 -308 -24 -329 -9 -397 34 -150 148 -269 300 -312 49 -14 1323 -51
1850 -54 367 -2 370 -2 428 21 71 29 163 112 201 182 46 84 57 142 63 329 6
187 -21 946 -38 1041 -19 112 -98 223 -199 283 -88 51 -126 55 -695 67 -291 6
-694 15 -895 20 -463 12 -574 11 -630 -4z m1233 -846 c203 -5 371 -10 373 -12
2 -2 6 -59 10 -126 l7 -122 -39 0 c-21 0 -268 7 -549 15 -280 8 -523 15 -539
15 l-28 0 6 78 c4 42 9 98 12 125 l6 47 186 -5 c103 -3 353 -10 555 -15z"/>
<path d="M52200 10648 c-124 -19 -253 -117 -305 -230 -30 -65 -39 -129 -65
-428 -64 -749 -70 -864 -44 -951 44 -149 175 -264 331 -289 32 -6 333 -17 668
-25 336 -8 798 -20 1028 -26 365 -9 425 -8 477 5 149 38 252 132 299 274 32
93 43 296 31 563 -5 123 -15 334 -20 469 -13 285 -25 344 -92 434 -48 65 -137
129 -210 151 -61 18 -153 21 -1083 40 -396 8 -774 16 -840 18 -66 2 -145 0
-175 -5z m1080 -849 c267 -6 487 -13 490 -16 2 -2 7 -58 10 -123 l5 -120 -165
1 c-91 1 -349 6 -575 12 l-410 12 1 25 c1 14 5 69 9 123 l7 97 71 0 c40 0 290
-5 557 -11z"/>
<path d="M55349 10558 c-155 -55 -257 -174 -279 -329 -11 -76 -41 -412 -74
-844 -27 -344 -25 -378 23 -481 50 -106 150 -190 266 -223 49 -14 1321 -51
1850 -54 370 -2 370 -2 430 22 45 18 78 42 131 95 79 79 107 136 124 254 13
88 13 426 0 682 -27 543 -26 532 -49 593 -42 107 -131 196 -245 240 -57 22
-129 25 -1056 46 -1081 25 -1047 25 -1121 -1z m1254 -838 c203 -5 371 -11 374
-14 3 -2 7 -59 10 -125 l6 -121 -39 0 c-21 0 -264 7 -539 15 -275 8 -517 15
-538 15 l-39 0 6 48 c3 26 8 82 11 125 l7 77 186 -5 c103 -3 353 -10 555 -15z"/>
<path d="M66775 10486 c-149 -36 -205 -90 -372 -361 -413 -669 -549 -925 -576
-1082 -29 -167 63 -352 212 -427 109 -56 49 -53 1661 -65 822 -6 1614 -13
1760 -16 171 -4 285 -2 320 5 132 25 250 112 305 223 16 34 40 124 64 243 68
333 92 561 95 884 l1 195 -32 67 c-52 111 -153 196 -268 227 -72 19 -958 69
-1605 91 -162 5 -513 12 -780 15 -267 3 -541 7 -610 9 -79 3 -143 0 -175 -8z
m1105 -841 c195 -3 465 -10 600 -15 235 -9 914 -42 916 -44 4 -3 -24 -207 -28
-212 -5 -4 -2241 13 -2379 19 l-55 2 80 133 81 132 215 -5 c118 -3 375 -7 570
-10z"/>
<path d="M58733 10466 c-66 -21 -124 -60 -175 -114 -94 -100 -109 -156 -142
-517 -53 -574 -71 -862 -58 -921 35 -167 149 -288 312 -330 60 -15 129 -16
835 -8 424 5 894 9 1045 9 253 1 280 3 332 22 154 57 250 178 280 353 16 92
16 911 0 1068 -18 178 -96 298 -237 363 -88 42 -144 46 -845 65 -910 24 -1296
27 -1347 10z m1121 -841 c264 -8 482 -18 485 -21 3 -3 8 -45 9 -93 l4 -88
-344 -7 c-188 -3 -444 -9 -567 -13 l-223 -6 7 114 c4 63 9 117 12 122 6 10 65
9 617 -8z"/>
<path d="M62066 10461 c-154 -51 -262 -181 -287 -343 -11 -75 -52 -568 -75
-906 -13 -189 -14 -256 -5 -299 32 -159 141 -282 291 -328 76 -23 441 -28
1390 -18 l745 8 68 33 c125 62 204 164 233 301 27 131 36 376 25 695 -14 393
-20 470 -41 532 -50 145 -174 249 -327 275 -32 5 -429 20 -883 34 -454 14
-881 27 -950 30 -106 4 -134 2 -184 -14z m959 -846 c231 -8 459 -15 508 -15
l87 0 0 -94 0 -94 -272 -6 c-150 -3 -391 -8 -536 -11 l-262 -5 4 22 c3 13 8
67 11 121 6 81 10 97 23 97 10 0 206 -7 437 -15z"/>
<path d="M35115 8976 c-76 -18 -151 -64 -208 -126 -54 -59 -246 -373 -497
-814 -227 -400 -248 -450 -237 -571 16 -174 131 -316 296 -365 54 -16 120 -21
376 -30 528 -18 1043 -39 2375 -95 1427 -60 1862 -78 2466 -100 447 -16 466
-15 573 38 140 70 231 238 217 403 -14 175 -167 1206 -185 1254 -42 109 -151
211 -265 246 -36 11 -126 18 -306 25 -386 14 -4523 149 -4540 148 -8 0 -37 -6
-65 -13z m2483 -901 c1063 -35 1935 -65 1938 -67 5 -6 46 -289 42 -292 -4 -4
-752 26 -2223 89 -715 30 -1471 62 -1680 70 -208 9 -380 17 -381 18 -2 1 31
59 71 128 l75 126 112 -4 c62 -3 983 -33 2046 -68z"/>
<path d="M41559 8816 c-150 -42 -267 -166 -298 -316 -11 -57 -46 -438 -82
-910 -23 -300 -21 -336 25 -436 46 -101 156 -191 271 -223 39 -11 1040 -43
1810 -57 324 -6 366 -5 420 10 74 22 141 63 194 121 85 92 110 178 118 404 7
179 -21 923 -38 1030 -27 169 -159 308 -326 340 -26 6 -282 15 -568 21 -286 6
-686 15 -890 20 -469 12 -579 11 -636 -4z m1061 -841 c168 -3 360 -8 426 -11
l122 -6 7 -119 c4 -66 5 -122 2 -125 -2 -3 -256 2 -562 11 -307 8 -565 15
-573 15 -12 0 -13 14 -8 88 4 48 9 104 12 126 l6 38 132 -6 c72 -3 268 -8 436
-11z"/>
<path d="M45223 8705 c-124 -35 -214 -108 -269 -219 l-36 -73 -28 -314 c-56
-619 -74 -887 -62 -950 34 -182 178 -316 367 -339 70 -9 583 -23 1734 -49 184
-4 359 -4 390 1 167 25 308 165 341 339 21 107 23 323 6 726 -9 224 -21 442
-26 483 -13 100 -55 183 -125 249 -69 66 -141 99 -241 111 -44 5 -423 17 -844
25 -421 8 -853 18 -960 20 -154 4 -206 2 -247 -10z m1127 -845 c261 -6 475
-12 476 -13 1 -1 4 -57 8 -124 l7 -123 -98 0 c-76 1 -1036 27 -1052 29 -4 1 8
186 15 221 4 24 6 25 87 23 45 -2 296 -7 557 -13z"/>
<path d="M48770 8551 c-75 -24 -96 -36 -153 -90 -56 -52 -92 -104 -114 -165
-16 -45 -47 -353 -88 -886 -30 -376 -29 -412 18 -513 49 -107 165 -201 279
-226 54 -12 1411 -51 1883 -54 l331 -2 76 38 c119 58 202 165 228 292 26 125
21 580 -14 1180 -8 136 -69 250 -174 325 -105 75 -124 78 -677 90 -269 6 -659
15 -865 20 -545 14 -664 13 -730 -9z m1195 -836 c182 -3 353 -8 381 -11 l51
-5 8 -120 c4 -66 5 -122 3 -124 -4 -4 -281 3 -917 21 l-233 7 6 96 c4 53 9
109 13 125 l5 29 177 -6 c97 -4 325 -9 506 -12z"/>
<path d="M52139 8441 c-148 -47 -255 -177 -279 -337 -5 -38 -19 -175 -30 -304
-68 -798 -71 -891 -31 -993 45 -114 174 -220 301 -246 32 -6 387 -20 835 -31
429 -11 895 -23 1036 -26 284 -7 323 -3 422 49 32 17 81 56 112 88 93 101 117
202 118 494 0 179 -15 565 -33 845 -11 172 -31 223 -124 316 -102 102 -139
114 -376 125 -231 11 -1542 40 -1745 39 -115 -1 -163 -5 -206 -19z m1293 -837
l337 -7 5 -41 c3 -23 7 -80 8 -128 l3 -86 -125 4 c-234 8 -855 24 -943 24
l-89 0 6 38 c3 20 8 77 12 126 l7 89 221 -6 c121 -4 373 -10 558 -13z"/>
<path d="M55695 8296 c-116 -37 -207 -116 -257 -222 -28 -61 -33 -84 -54 -302
-31 -329 -74 -875 -74 -956 0 -149 89 -299 217 -365 95 -48 107 -49 938 -70
1300 -34 1306 -34 1359 -22 115 27 234 118 286 220 51 101 68 310 51 651 -6
124 -15 331 -21 460 -6 155 -15 253 -25 287 -36 122 -149 235 -272 273 -57 18
-111 21 -511 30 -246 6 -622 15 -837 20 -518 13 -750 12 -800 -4z m1283 -842
c227 -5 335 -11 337 -18 2 -6 5 -64 8 -129 l4 -118 -81 5 c-44 3 -304 11 -576
17 -272 6 -495 12 -496 13 0 0 4 57 9 125 l10 124 226 -6 c124 -4 376 -10 559
-13z"/>
<path d="M63844 8287 c-102 -39 -122 -57 -366 -342 -525 -613 -734 -892 -793
-1061 -81 -230 47 -478 280 -543 27 -8 341 -14 965 -21 509 -5 1411 -19 2005
-30 594 -11 1418 -23 1830 -26 l750 -7 64 22 c124 43 219 132 264 248 9 23 33
138 52 254 46 274 135 984 128 1029 -22 164 -133 302 -278 349 -55 18 -109 21
-685 31 -658 11 -721 13 -1835 60 -1155 49 -1209 51 -1775 56 l-545 5 -61 -24z
m876 -817 c432 -11 661 -20 1490 -55 832 -36 1047 -44 1505 -55 225 -6 412
-13 414 -16 5 -5 -24 -243 -30 -248 -6 -4 -1200 11 -2154 29 -478 9 -1130 20
-1448 24 -318 5 -580 11 -582 13 -2 2 55 74 128 160 l132 157 80 0 c44 1 253
-4 465 -9z"/>
<path d="M59128 8231 c-76 -25 -115 -50 -175 -114 -98 -103 -107 -139 -143
-572 -49 -588 -61 -796 -49 -862 25 -133 112 -248 234 -305 55 -25 86 -32 178
-39 62 -5 524 -7 1042 -3 1055 6 1006 2 1121 87 90 66 142 153 163 273 22 122
30 387 20 714 -11 375 -20 463 -53 537 -52 112 -178 210 -301 232 -33 6 -427
22 -875 36 -448 14 -880 27 -960 30 -124 4 -153 2 -202 -14z m987 -846 c231
-8 455 -15 498 -15 l77 0 0 -95 0 -95 -107 -1 c-60 0 -299 -4 -533 -8 -234 -4
-427 -6 -429 -5 -1 2 0 55 4 118 l7 116 32 0 c17 0 220 -7 451 -15z"/>
<path d="M33815 6540 c-124 -42 -151 -71 -504 -540 -343 -458 -511 -695 -538
-762 -75 -185 -6 -398 165 -507 92 -58 117 -61 597 -71 242 -5 528 -12 635
-15 696 -20 1331 -41 2475 -80 2106 -72 3114 -100 3365 -94 127 4 139 6 202
36 112 53 196 153 228 272 18 67 13 156 -14 277 -32 138 -57 294 -96 589 -39
296 -81 500 -119 581 -39 83 -113 156 -196 195 -86 41 -159 46 -735 54 -250 3
-1344 21 -2430 40 -1087 19 -2201 37 -2475 40 -484 5 -502 5 -560 -15z m2135
-845 c784 -14 1898 -32 2475 -41 578 -10 1054 -20 1058 -24 7 -6 47 -267 47
-308 0 -11 -36 -12 -187 -7 -104 3 -424 12 -713 21 -515 14 -978 29 -2410 79
-1041 36 -1605 54 -1947 61 -167 4 -303 9 -303 11 0 2 40 57 89 121 l88 118
189 -3 c104 -2 830 -15 1614 -28z"/>
<path d="M41472 6398 c-123 -19 -252 -116 -305 -230 -31 -66 -39 -117 -67
-438 -43 -499 -62 -769 -58 -845 10 -193 153 -354 343 -385 33 -5 335 -17 670
-25 336 -8 798 -20 1028 -26 451 -11 479 -9 578 41 52 27 125 94 156 144 71
111 90 291 74 667 -6 134 -16 350 -21 479 -7 148 -16 254 -26 287 -33 119
-155 242 -275 277 -62 19 -160 22 -1079 41 -399 8 -779 16 -845 18 -66 2 -144
0 -173 -5z m1301 -855 c310 -7 274 12 279 -150 l4 -103 -166 1 c-349 2 -985
24 -985 34 0 6 4 61 9 124 l8 114 291 -7 c161 -3 412 -9 560 -13z"/>
<path d="M45383 6260 c-56 -12 -118 -40 -170 -79 -96 -70 -863 -1166 -897
-1281 -23 -76 -21 -192 4 -266 39 -113 139 -214 255 -255 67 -23 -74 -18 1960
-74 2351 -65 10638 -300 11484 -326 474 -15 519 -12 604 29 36 18 85 52 109
75 102 100 786 1106 829 1219 83 216 -35 461 -259 539 -54 19 -165 24 -2027
79 -3910 118 -10096 300 -11675 344 -96 3 -194 1 -217 -4z m2097 -886 c1566
-45 5371 -157 8948 -263 1080 -32 1965 -61 1968 -64 3 -3 -31 -58 -77 -123
l-83 -117 -200 7 c-295 9 -7228 207 -9521 271 -2934 82 -3018 84 -3021 87 -1
2 39 60 89 130 l91 128 131 -6 c71 -3 825 -25 1675 -50z"/>
<path d="M61480 5898 c-103 -15 -165 -56 -296 -190 -321 -330 -837 -993 -933
-1197 -23 -50 -26 -68 -26 -166 0 -98 3 -116 27 -168 53 -112 172 -210 290
-236 25 -6 580 -22 1234 -36 654 -13 2055 -43 3114 -66 1458 -31 1937 -38
1975 -30 124 28 233 110 285 214 50 103 123 420 180 782 17 110 45 263 62 340
24 113 29 154 25 214 -8 100 -56 201 -129 266 -110 99 -163 112 -508 120 -478
11 -1258 35 -2285 70 -1446 50 -1856 63 -2325 75 -228 5 -464 11 -525 13 -60
2 -135 0 -165 -5z m690 -843 c311 -7 1191 -36 2460 -80 547 -19 1192 -40 1433
-47 l439 -12 -6 -40 c-3 -23 -14 -85 -23 -139 l-17 -99 -165 6 c-91 4 -1169
27 -2396 51 -1226 25 -2278 49 -2337 53 l-106 7 135 158 136 158 101 -5 c56
-3 211 -8 346 -11z"/>
<path d="M14930 30434 c-997 -31 -1859 -114 -2755 -265 -1655 -279 -3309 -785
-4762 -1459 -1489 -691 -2596 -1564 -3283 -2590 -411 -613 -688 -1287 -814
-1980 -104 -568 -87 -1233 43 -1728 l19 -72 -115 -136 c-848 -1002 -1358
-1734 -1724 -2479 -147 -298 -230 -497 -324 -780 -112 -334 -186 -636 -234
-955 -40 -269 -46 -368 -46 -720 1 -302 4 -366 24 -515 76 -565 232 -1023 478
-1400 363 -557 881 -841 1413 -774 168 20 318 70 453 150 69 41 226 186 274
254 19 28 19 20 -12 -132 -104 -506 -129 -713 -130 -1073 0 -324 10 -421 65
-635 100 -387 329 -743 618 -960 304 -228 661 -283 1040 -160 283 91 551 262
1115 712 92 73 167 129 167 123 0 -5 -11 -53 -25 -107 -94 -373 -100 -769 -20
-1154 50 -235 164 -540 286 -762 72 -131 222 -353 325 -482 182 -227 495 -516
756 -698 462 -322 993 -539 1508 -618 173 -26 495 -36 651 -20 334 35 660 141
913 299 l80 49 225 -111 c988 -489 2035 -812 3081 -950 468 -62 795 -80 1319
-73 497 6 820 33 1251 102 2563 413 4715 1935 5841 4130 682 1330 963 2875
834 4580 -14 185 -58 610 -71 680 -5 27 -1 32 44 57 86 48 254 180 365 288
378 364 626 851 712 1395 22 140 30 436 16 576 -29 278 -104 536 -231 794
-135 276 -281 476 -506 695 -429 417 -952 654 -1528 692 l-38 3 -143 422 -143
421 25 24 c14 12 66 70 115 127 207 239 331 487 395 791 14 66 18 130 17 285
0 177 -3 214 -27 325 -115 542 -454 1045 -954 1412 -371 273 -797 477 -1448
694 -154 51 -320 105 -370 120 l-89 27 75 26 c197 70 361 219 472 429 155 293
181 637 75 972 -227 717 -1094 1403 -2248 1778 -584 190 -1185 294 -1980 342
-171 10 -887 20 -1070 14z m2120 -7884 c971 -61 1871 -117 2000 -126 330 -21
957 -30 1150 -15 367 28 616 74 903 168 59 20 110 33 113 30 9 -9 434 -1276
540 -1612 530 -1668 783 -2831 881 -4045 21 -273 25 -1071 5 -1315 -58 -719
-174 -1307 -375 -1900 -524 -1545 -1616 -2856 -3072 -3687 -1914 -1093 -4239
-1286 -6485 -539 -558 186 -853 315 -1634 715 l-99 51 -111 0 c-106 0 -115 -2
-176 -32 -36 -18 -96 -60 -133 -93 -89 -79 -168 -131 -269 -181 -520 -252
-1309 -120 -1988 333 -200 133 -291 208 -460 377 -629 631 -824 1396 -538
2115 180 457 547 903 1088 1325 152 119 132 120 191 -6 70 -148 135 -306 244
-588 113 -294 187 -467 276 -650 73 -148 192 -372 207 -387 5 -5 57 59 122
149 741 1037 1142 2007 1236 2985 22 237 15 696 -15 915 -70 512 -205 964
-443 1478 -183 396 -465 865 -889 1483 -66 95 -119 175 -119 178 0 3 8 3 17 0
10 -4 79 -25 155 -47 351 -102 747 -173 1188 -214 230 -22 824 -31 1090 -16
920 50 1845 227 2698 516 601 203 864 346 1132 614 142 142 226 258 310 426
167 335 192 640 80 977 -116 349 -363 614 -670 719 l-55 19 70 -5 c39 -3 864
-55 1835 -115z m5567 -1241 c502 -176 922 -633 1047 -1141 103 -418 15 -880
-242 -1263 -57 -86 -166 -215 -181 -215 -3 0 -17 51 -29 113 -138 671 -368
1526 -656 2430 -19 59 -33 107 -31 107 2 0 43 -14 92 -31z"/>
<path d="M19440 21636 c-318 -42 -624 -154 -880 -323 -116 -77 -240 -177 -283
-228 -70 -85 -107 -222 -88 -327 40 -228 251 -382 474 -347 88 14 148 45 257
133 122 99 312 195 455 231 121 31 267 43 395 34 173 -13 282 22 381 120 100
101 143 237 115 370 -19 89 -46 142 -110 209 -57 60 -133 103 -216 122 -84 18
-377 22 -500 6z"/>
<path d="M19705 19960 c-311 -49 -552 -225 -695 -509 -151 -300 -190 -769
-104 -1241 141 -774 554 -1448 1034 -1690 283 -143 611 -133 865 25 266 166
413 480 432 925 34 813 -424 1909 -970 2321 -185 139 -378 197 -562 169z"/>
<path d="M13147 18795 c-485 -78 -930 -347 -1224 -739 -123 -164 -164 -276
-144 -396 27 -156 102 -258 241 -324 60 -29 73 -31 170 -31 86 0 115 4 162 23
69 28 145 94 199 173 115 169 240 278 424 369 132 65 230 94 377 110 148 16
218 48 305 144 75 82 97 145 98 276 0 99 -2 109 -33 173 -44 89 -114 160 -199
200 -62 29 -78 32 -178 34 -60 1 -150 -4 -198 -12z"/>
<path d="M14206 17434 c-202 -40 -351 -119 -482 -256 -153 -159 -245 -364
-301 -668 -26 -143 -24 -518 4 -700 74 -475 232 -898 468 -1250 222 -332 474
-539 761 -626 79 -24 106 -27 234 -27 174 -1 255 18 400 90 81 40 109 62 190
143 195 195 285 445 297 825 31 942 -538 2137 -1151 2421 -137 63 -269 78
-420 48z"/>
<path d="M17468 16771 c-77 -25 -117 -52 -181 -121 -69 -74 -98 -146 -104
-255 -12 -193 98 -348 297 -419 104 -38 171 -78 247 -150 159 -149 232 -326
220 -541 -7 -134 -43 -243 -116 -350 -93 -137 -106 -173 -106 -295 0 -133 22
-194 102 -280 163 -176 431 -184 598 -17 103 104 222 314 283 502 124 378 94
803 -81 1152 -77 153 -162 269 -292 398 -175 176 -353 289 -571 364 -108 37
-205 41 -296 12z"/>
<path d="M19716 13528 c-83 -11 -177 -57 -235 -117 -28 -29 -68 -88 -96 -143
-214 -416 -585 -693 -1050 -784 -119 -24 -367 -24 -480 -1 -106 22 -183 21
-256 -3 -81 -28 -125 -57 -186 -124 -195 -213 -98 -573 179 -665 154 -50 506
-76 719 -52 761 87 1425 528 1784 1185 96 177 116 287 75 419 -60 193 -248
311 -454 285z"/>
</g>
</svg>
