<?xml version="1.0" standalone="no"?>
<!DOCTYPE svg PUBLIC "-//W3C//DTD SVG 20010904//EN"
 "http://www.w3.org/TR/2001/REC-SVG-20010904/DTD/svg10.dtd">
<svg version="1.0" xmlns="http://www.w3.org/2000/svg"
 width="1342.000000pt" height="1000.000000pt" viewBox="0 0 1342.000000 1000.000000"
 preserveAspectRatio="xMidYMid meet">

<g transform="translate(0.000000,1000.000000) scale(0.100000,-0.100000)"
fill="#000000" stroke="none">
<path d="M3353 8933 c-18 -7 -19 -2743 -1 -2761 16 -16 6889 -18 6919 -2 19
11 19 36 19 1378 0 1051 -3 1371 -12 1380 -9 9 -791 12 -3462 11 -1898 0
-3457 -3 -3463 -6z m6857 -1383 l0 -1310 -3400 0 -3400 0 0 1310 0 1310 3400
0 3400 0 0 -1310z"/>
<path d="M5934 8509 c-63 -24 -135 -86 -159 -135 -26 -54 -16 -131 29 -224
l36 -75 -262 -6 c-406 -10 -543 -40 -628 -136 -73 -83 -75 -92 -66 -358 1 -16
10 -40 21 -53 18 -21 26 -23 73 -17 l52 6 0 -105 0 -105 -33 6 c-42 6 -83 -25
-96 -75 -31 -120 -22 -184 35 -250 26 -31 43 -42 64 -42 16 0 32 5 35 10 11
17 22 2 30 -37 11 -64 76 -255 105 -313 30 -58 105 -137 159 -165 45 -22 193
-31 260 -15 116 27 229 149 323 347 l63 132 43 1 c53 0 87 32 135 124 38 75
44 161 13 195 -23 26 -72 28 -98 4 -18 -16 -18 -15 -11 43 4 32 7 114 8 180
l0 121 40 -4 c22 -3 53 -9 69 -14 41 -13 51 1 49 70 -4 138 -67 312 -138 381
-34 33 -114 60 -181 60 -28 0 -32 5 -72 94 -70 157 -57 226 56 300 70 46 148
62 219 46 77 -17 98 -55 109 -206 6 -69 4 -86 -12 -113 -10 -17 -22 -31 -26
-31 -4 0 -17 18 -28 40 -18 35 -19 46 -10 81 14 53 -2 106 -37 120 -34 13
-104 -7 -154 -43 -88 -64 -99 -186 -23 -257 35 -33 38 -33 103 -29 36 3 83 14
103 23 37 18 38 18 85 -7 55 -30 123 -46 123 -29 0 5 -19 15 -42 22 -24 6 -58
20 -76 31 l-33 20 21 23 c34 36 42 84 30 180 -15 123 -34 163 -84 186 -55 25
-155 24 -222 -2z m176 -158 c22 -42 7 -108 -20 -91 -41 26 -120 -2 -120 -42 0
-54 73 -77 122 -39 l25 20 16 -35 c10 -19 17 -36 17 -38 0 -9 -79 -34 -126
-41 -48 -6 -53 -5 -82 25 -55 55 -55 144 1 198 60 58 147 80 167 43z m-25
-131 c0 -18 -41 -39 -65 -33 -24 6 -35 34 -18 45 21 14 83 5 83 -12z m-127
-193 c61 -11 78 -19 111 -51 65 -63 112 -186 127 -334 l7 -64 -79 6 c-43 4
-95 9 -114 12 l-36 5 -11 106 c-10 94 -23 136 -38 122 -3 -3 -1 -30 4 -60 5
-30 12 -80 14 -111 l6 -58 -90 0 c-88 0 -90 0 -100 28 -6 15 -13 78 -16 140
-3 62 -10 115 -14 118 -10 6 -37 -47 -74 -145 -36 -96 -75 -141 -122 -141 -30
0 -34 3 -28 18 13 30 48 262 42 269 -13 12 -19 -6 -38 -119 -20 -121 -35 -168
-53 -168 -6 0 -27 -3 -47 -6 l-37 -6 30 122 c16 67 26 125 23 128 -13 13 -25
-19 -46 -113 -25 -116 -40 -145 -74 -145 -23 0 -24 2 -14 28 18 46 47 212 38
218 -13 7 -26 -31 -39 -109 -6 -38 -18 -86 -26 -108 -14 -32 -22 -39 -52 -45
-21 -3 -45 -8 -55 -11 -16 -4 -17 -2 -9 14 22 40 64 235 53 246 -14 14 -25
-17 -47 -127 -24 -122 -42 -141 -146 -151 -77 -7 -78 -6 -87 18 -6 14 -13 75
-17 135 -6 102 -5 114 16 157 43 88 114 139 230 165 176 38 637 48 808 17z
m-229 -381 c5 -37 12 -71 15 -74 3 -2 71 -4 152 -3 l147 1 -6 -162 c-6 -172
-32 -343 -68 -452 -12 -34 -52 -122 -89 -196 -55 -107 -83 -150 -137 -207 -90
-96 -128 -112 -256 -113 -109 0 -144 10 -207 61 -59 48 -94 110 -140 246 -67
202 -80 274 -87 499 -7 239 -3 274 34 274 14 0 92 11 174 25 82 14 161 25 176
25 16 1 55 0 89 0 l61 -1 36 53 c20 29 47 82 59 117 l23 64 7 -44 c4 -24 11
-75 17 -113z m-723 -372 c20 -5 21 -14 27 -146 5 -115 3 -143 -8 -155 -22 -22
-50 -7 -84 44 -25 37 -31 57 -31 97 1 67 14 123 36 147 18 20 27 22 60 13z
m1145 -75 c39 -75 -60 -279 -136 -279 -24 0 -26 3 -21 23 7 20 56 247 56 256
0 2 3 1 6 -2 4 -3 16 0 28 8 29 21 53 19 67 -6z"/>
<path d="M5227 7333 c-11 -10 -8 -51 3 -58 16 -10 40 15 40 41 0 17 -6 24 -18
24 -10 0 -22 -3 -25 -7z"/>
<path d="M5885 7319 c-10 -30 18 -58 43 -43 9 6 17 22 17 35 0 34 -50 41 -60
8z"/>
<path d="M5487 7093 c-3 -5 -8 -25 -12 -45 -6 -30 -3 -40 15 -58 21 -21 28
-22 104 -15 44 4 84 9 88 11 12 8 10 114 -2 114 -5 0 -10 -20 -10 -44 0 -42
-1 -44 -37 -50 -21 -3 -60 -6 -87 -6 l-49 0 5 45 c5 41 -3 67 -15 48z"/>
<path d="M5330 6871 c0 -26 62 -100 107 -128 66 -40 162 -26 233 34 39 34 50
53 30 53 -5 0 -25 -14 -45 -31 -42 -37 -112 -60 -159 -52 -42 7 -104 57 -131
107 -21 39 -35 46 -35 17z"/>
<path d="M9321 8514 c-76 -27 -149 -83 -177 -136 -26 -49 -18 -132 21 -218 19
-43 35 -81 35 -86 0 -5 -109 -10 -243 -10 -463 -3 -614 -48 -693 -210 -26 -53
-26 -57 -19 -181 8 -144 19 -173 67 -173 16 0 28 -3 26 -7 -37 -72 -51 -117
-56 -172 -3 -36 -12 -77 -20 -90 -24 -35 -29 -188 -8 -228 35 -69 110 -116
131 -83 9 15 25 12 25 -4 0 -31 73 -254 105 -323 37 -80 103 -151 170 -183 34
-16 62 -20 151 -20 141 0 183 19 285 128 59 63 82 100 140 216 38 78 77 165
87 195 16 48 23 56 57 68 21 7 54 25 74 40 20 15 29 19 21 9 -8 -10 -38 -32
-67 -48 -77 -43 -71 -68 7 -28 80 41 132 113 150 211 30 157 -11 278 -118 349
l-45 30 33 0 c18 0 50 -5 72 -12 53 -16 61 -3 54 92 -7 91 -38 208 -74 273
-32 59 -104 127 -134 127 -36 0 0 20 37 20 17 0 50 9 74 20 l44 20 60 -30 c60
-30 107 -39 107 -20 0 5 -20 15 -45 21 -25 6 -56 20 -70 31 l-24 19 26 37 c24
35 25 42 20 132 -3 55 -13 116 -24 145 -15 42 -26 54 -63 73 -53 26 -133 29
-199 6z m214 -46 c27 -32 46 -111 48 -207 2 -55 -2 -73 -17 -90 -25 -28 -29
-27 -49 14 -13 26 -15 50 -10 95 8 79 -10 110 -66 110 -71 0 -155 -51 -188
-113 -35 -68 3 -183 71 -213 35 -15 17 -18 -47 -7 -37 6 -40 9 -78 92 -22 47
-43 104 -46 127 -8 61 23 123 81 163 71 49 111 61 199 58 72 -2 81 -5 102 -29z
m-60 -122 c12 -17 14 -35 9 -60 -5 -32 -9 -36 -28 -29 -36 13 -88 5 -110 -17
-19 -19 -20 -22 -6 -48 19 -34 76 -42 115 -16 29 19 27 20 48 -22 l16 -32 -33
-16 c-19 -9 -61 -19 -93 -22 -55 -6 -59 -5 -87 25 -23 24 -30 42 -34 85 -6 70
20 116 81 144 83 39 101 40 122 8z m-25 -116 c13 -9 11 -13 -9 -31 -28 -23
-59 -22 -75 4 -8 14 -8 20 4 27 20 13 61 12 80 0z m-285 -190 c189 -14 233
-25 274 -69 51 -53 87 -142 112 -268 13 -62 20 -115 17 -118 -3 -3 -55 -3
-116 1 l-110 7 -6 53 c-3 30 -9 78 -12 107 -6 54 -18 86 -28 76 -3 -3 0 -56 6
-117 6 -61 10 -113 7 -114 -2 -2 -43 -2 -91 0 -67 3 -88 7 -92 19 -4 9 -12 71
-18 140 -7 73 -16 122 -22 120 -5 -2 -23 -34 -38 -73 -54 -130 -63 -148 -86
-176 -18 -21 -33 -28 -59 -28 -32 0 -35 2 -29 23 18 60 44 253 36 261 -13 13
-16 1 -39 -139 -22 -136 -35 -155 -102 -155 -44 0 -44 -1 -25 45 23 55 57 186
50 196 -10 16 -23 0 -34 -44 -6 -23 -22 -79 -36 -123 -22 -69 -29 -83 -50 -87
-28 -5 -27 -7 -13 30 14 37 41 204 34 211 -12 12 -23 -17 -38 -106 -20 -114
-40 -147 -98 -156 -23 -4 -43 -5 -45 -3 -2 1 4 23 12 47 29 91 52 200 42 206
-15 9 -31 -12 -33 -43 -6 -84 -40 -193 -66 -209 -20 -12 -163 -34 -171 -26
-14 14 -28 114 -28 201 0 77 3 91 30 138 50 88 145 135 302 153 261 30 376 34
563 20z m-61 -456 c3 -8 17 -14 31 -14 35 0 31 -13 -14 -43 -47 -31 -94 -96
-112 -155 -11 -40 -14 -42 -50 -42 -20 0 -44 -3 -53 -6 -11 -4 -17 4 -22 33
-10 54 -39 114 -80 161 -19 22 -34 42 -34 45 0 3 41 6 91 6 81 1 93 3 110 24
26 30 54 84 81 154 l22 58 12 -104 c7 -57 15 -110 18 -117z m-329 -73 c82 -84
108 -213 63 -313 -29 -62 -73 -110 -132 -141 -62 -33 -184 -31 -246 3 -40 23
-46 30 -52 70 -9 59 -10 208 -2 303 7 76 7 77 38 82 17 2 83 13 146 23 63 10
123 16 132 14 10 -2 34 -21 53 -41z m584 43 l31 -6 0 -138 c0 -93 -7 -177 -20
-257 -29 -168 -22 -157 -87 -150 -246 25 -349 302 -178 474 70 70 157 96 254
77z m146 -86 c37 -43 64 -105 72 -164 l6 -49 -32 28 c-18 15 -40 27 -49 27
-26 0 -82 -38 -82 -55 0 -20 7 -19 32 5 12 11 32 20 44 20 28 0 64 -44 64 -80
0 -56 -85 -150 -163 -179 -25 -10 -27 -9 -22 12 21 92 37 224 42 349 l6 147
27 -14 c15 -8 40 -29 55 -47z m-1125 -86 l0 -108 -35 4 c-34 4 -35 5 -35 51 0
53 45 161 66 161 2 0 4 -49 4 -108z m617 -139 c31 -155 129 -249 271 -261 l64
-5 -6 -31 c-4 -17 -38 -96 -76 -175 -92 -189 -166 -280 -270 -337 -47 -25
-239 -27 -285 -2 -61 33 -124 99 -154 161 -47 98 -143 439 -128 453 2 3 24 -4
48 -15 64 -28 121 -34 183 -21 106 22 201 110 232 216 17 59 45 86 84 82 21
-3 26 -11 37 -65z m-639 11 c20 -6 22 -12 22 -72 l0 -65 -20 26 c-24 30 -51
102 -43 111 8 7 12 7 41 0z m-53 -69 c8 -19 29 -50 46 -69 39 -45 57 -143 30
-163 -28 -22 -55 -10 -88 41 -23 33 -33 60 -33 87 0 41 19 139 26 139 3 0 12
-16 19 -35z"/>
<path d="M8576 7305 c-13 -36 -7 -57 17 -53 17 2 22 10 22 33 0 33 -28 47 -39
20z"/>
<path d="M9241 7301 c-16 -30 -3 -53 28 -49 22 2 26 8 26 33 0 23 -5 31 -22
33 -14 2 -26 -4 -32 -17z"/>
<path d="M8837 7063 c-4 -3 -7 -28 -7 -54 0 -44 2 -49 26 -55 28 -7 169 2 185
12 5 3 9 27 9 55 0 37 -4 49 -15 49 -11 0 -15 -12 -15 -44 l0 -43 -68 -7 c-95
-9 -106 -4 -98 51 5 40 -1 53 -17 36z"/>
<path d="M8680 6851 c0 -26 73 -117 108 -135 49 -25 89 -28 144 -12 61 18 136
76 124 95 -6 9 -17 5 -40 -18 -59 -57 -146 -77 -205 -47 -32 17 -87 77 -103
112 -13 29 -28 31 -28 5z"/>
<path d="M3835 7780 c-31 -12 -57 -47 -57 -74 0 -17 23 -55 66 -107 36 -44 66
-87 66 -95 0 -21 -61 -44 -113 -44 -55 0 -101 31 -91 62 5 15 2 19 -12 16 -52
-10 5 -91 71 -104 71 -13 175 31 175 74 0 9 -32 55 -70 101 -39 46 -70 90 -70
97 0 20 37 54 58 54 28 0 60 -36 68 -75 8 -45 24 -45 24 0 0 59 -67 115 -115
95z"/>
<path d="M4114 7699 c-9 -33 -44 -105 -76 -160 -57 -97 -67 -128 -40 -137 7
-2 12 6 12 20 0 13 7 34 16 46 9 13 36 58 59 99 l44 76 -6 -75 c-3 -41 -3 -96
1 -122 6 -38 11 -46 29 -46 16 0 18 3 9 12 -8 8 -12 63 -12 180 0 99 -4 168
-9 168 -6 0 -18 -27 -27 -61z"/>
<path d="M7102 7708 c-23 -23 -12 -67 34 -139 96 -150 102 -183 33 -181 -55 1
-134 77 -111 105 15 18 3 30 -15 16 -21 -18 -15 -55 14 -90 52 -61 149 -80
179 -35 14 23 14 28 -4 69 -11 25 -43 81 -71 124 -28 44 -51 85 -51 90 0 42
88 31 108 -12 6 -14 16 -25 22 -25 20 0 10 32 -19 61 -22 22 -39 29 -68 29
-22 0 -44 -5 -51 -12z"/>
<path d="M7358 7689 c-10 -5 -18 -19 -18 -29 0 -23 15 -27 23 -6 8 19 43 26
63 12 24 -18 13 -41 -62 -143 -70 -95 -85 -130 -63 -144 16 -10 189 -12 213
-3 39 15 8 24 -93 26 l-109 3 74 104 c75 105 91 150 62 179 -15 15 -66 15 -90
1z"/>
<path d="M4403 7623 c-22 -3 -33 -10 -33 -20 0 -13 7 -14 38 -9 20 3 79 9 130
13 50 3 92 10 92 15 0 8 -163 9 -227 1z"/>
<path d="M7721 7601 c-34 -4 -56 -11 -59 -20 -4 -11 5 -13 49 -8 30 4 71 7 92
7 26 0 37 4 37 15 0 16 -18 17 -119 6z"/>
<path d="M4447 7559 c-72 -8 -83 -12 -73 -27 3 -5 28 -5 58 -1 29 4 83 8 121
8 66 1 88 13 45 25 -27 7 -60 6 -151 -5z"/>
<path d="M7800 7549 c-25 -4 -67 -8 -93 -8 -34 -1 -47 -5 -44 -13 8 -24 197
-7 197 18 0 8 -3 13 -7 13 -5 -1 -28 -5 -53 -10z"/>
<path d="M6367 5780 c-110 -28 -210 -115 -222 -193 -9 -56 0 -97 35 -167 53
-106 62 -99 -102 -93 -160 6 -473 -18 -573 -43 -76 -20 -132 -52 -179 -105
-52 -57 -66 -96 -66 -181 0 -188 22 -257 76 -244 13 4 24 5 24 4 0 -2 -14 -30
-30 -62 -23 -44 -30 -73 -30 -114 0 -35 -7 -71 -20 -98 -28 -57 -37 -159 -17
-205 23 -56 75 -109 106 -109 15 0 32 5 38 11 9 9 14 0 23 -32 26 -98 72 -241
95 -294 30 -66 101 -146 164 -183 42 -25 54 -27 161 -27 109 0 118 2 169 30
93 52 177 154 258 317 39 79 79 166 88 195 14 44 22 54 51 63 18 6 50 23 71
37 32 21 35 22 19 5 -10 -12 -38 -31 -62 -43 -47 -22 -60 -34 -45 -43 14 -9
88 34 128 73 46 44 70 100 85 194 21 135 -24 245 -128 316 l-49 33 55 -7 c30
-4 65 -11 78 -16 19 -7 24 -5 32 17 15 38 12 68 -15 187 -26 117 -58 186 -114
246 -36 39 -49 44 -184 66 -23 4 -40 13 -44 23 -3 9 -21 51 -39 93 -63 142
-39 221 85 288 111 59 253 51 280 -17 19 -49 31 -116 31 -183 0 -53 -4 -72
-21 -93 l-22 -27 -23 40 c-19 35 -21 46 -12 77 20 73 -11 134 -66 134 -37 0
-112 -33 -144 -63 -75 -70 -68 -208 12 -259 25 -16 42 -18 91 -14 33 4 77 15
99 26 38 18 40 18 65 1 37 -26 123 -53 134 -42 11 11 5 14 -60 35 -70 23 -80
37 -53 74 30 41 35 100 17 205 -17 98 -33 129 -76 152 -38 19 -126 27 -174 15z
m122 -174 c7 -8 11 -32 9 -53 l-3 -38 -55 3 c-46 3 -59 0 -75 -18 -27 -29 -11
-71 32 -83 26 -8 39 -5 68 12 l36 21 16 -36 c15 -31 15 -36 3 -45 -26 -16 -84
-29 -132 -29 -39 0 -50 5 -72 30 -34 41 -43 107 -21 155 32 66 162 120 194 81z
m-32 -117 l28 -11 -24 -19 c-26 -22 -61 -25 -79 -7 -18 18 -15 28 11 38 29 12
31 12 64 -1z m-99 -212 c74 -16 107 -44 150 -126 32 -61 72 -215 72 -278 0
-32 -3 -40 -17 -39 -10 1 -60 6 -111 10 -105 10 -96 0 -107 121 -9 94 -14 115
-32 115 -10 0 -13 -6 -9 -16 5 -13 25 -174 26 -207 0 -4 -39 -6 -87 -5 -84 3
-88 4 -101 30 -7 15 -15 79 -19 143 -3 63 -10 115 -14 115 -11 0 -39 -57 -74
-148 -37 -100 -66 -132 -116 -132 -35 0 -39 2 -30 18 13 24 46 250 38 259 -12
12 -16 -2 -36 -121 -23 -133 -38 -166 -79 -166 -15 0 -37 -3 -50 -6 -21 -6
-22 -5 -12 22 6 16 15 38 20 49 5 11 16 45 24 75 8 30 18 66 22 79 6 19 4 22
-11 20 -13 -3 -25 -31 -47 -109 -32 -114 -50 -150 -74 -150 -12 0 -15 6 -10
23 19 64 43 213 36 220 -12 13 -19 -4 -39 -107 -23 -119 -37 -142 -91 -151
-23 -4 -43 -5 -45 -3 -1 1 11 58 28 125 17 68 27 126 24 130 -15 15 -29 -19
-48 -112 -20 -107 -37 -142 -72 -149 -72 -16 -130 -26 -141 -26 -24 0 -36 53
-39 175 l-2 120 34 54 c21 31 54 66 80 82 71 46 124 57 386 83 93 9 512 -3
573 -17z m-250 -351 c10 -92 18 -106 61 -106 22 0 19 -4 -21 -29 -56 -36 -96
-87 -119 -153 -16 -49 -18 -51 -55 -52 -22 -1 -47 -6 -56 -10 -15 -7 -18 -3
-18 26 0 43 -51 148 -92 188 l-30 30 39 2 c21 1 47 3 58 4 11 1 38 2 60 3 36
1 43 6 72 49 18 26 42 75 55 110 27 75 31 68 46 -62z m290 -123 c13 -5 14 -28
9 -162 -5 -145 -10 -187 -38 -330 l-11 -54 -63 5 c-153 13 -255 126 -255 282
1 129 86 233 217 265 36 9 109 6 141 -6z m-607 -35 c62 -67 84 -121 84 -203
-1 -111 -58 -205 -154 -251 -76 -37 -207 -28 -273 18 l-28 19 0 197 c0 108 4
202 8 208 7 11 225 50 291 53 27 1 40 -7 72 -41z m729 -44 c44 -51 70 -110 70
-163 l0 -44 -23 21 c-29 28 -76 28 -110 2 l-26 -21 2 134 2 135 26 -14 c14 -7
41 -30 59 -50z m-1126 -86 l-7 -104 -33 4 c-29 4 -34 8 -34 32 0 40 25 114 50
150 12 17 24 29 26 27 3 -3 2 -51 -2 -109z m618 -136 c21 -144 132 -251 282
-268 67 -8 67 3 -6 -160 -68 -153 -111 -223 -183 -297 -88 -91 -115 -102 -255
-102 -89 0 -122 4 -146 17 -46 25 -120 100 -142 144 -41 82 -132 391 -132 452
l0 22 43 -22 c34 -19 58 -23 127 -23 73 0 92 4 136 27 70 37 130 107 151 177
23 76 38 93 82 89 35 -3 36 -4 43 -56z m549 6 c25 -42 19 -76 -24 -136 -29
-41 -131 -112 -143 -99 -3 2 2 47 11 98 25 142 24 139 40 133 8 -4 15 -2 15 3
0 12 38 31 63 32 9 1 26 -14 38 -31z m-1185 -6 c6 -4 14 -34 18 -66 6 -54 5
-58 -10 -45 -18 15 -53 85 -54 107 0 13 28 16 46 4z m-3 -140 c18 -19 27 -43
32 -82 6 -48 4 -58 -13 -73 -27 -25 -53 -10 -87 47 -28 48 -33 121 -14 190
l11 40 23 -48 c13 -26 34 -60 48 -74z"/>
<path d="M6253 4554 c-8 -22 10 -49 32 -49 10 0 22 7 28 16 15 24 1 49 -28 49
-15 0 -28 -7 -32 -16z"/>
<path d="M5601 4567 c-14 -14 -14 -54 -1 -62 16 -10 40 14 40 40 0 26 -22 39
-39 22z"/>
<path d="M5852 4307 c-34 -79 1 -113 106 -103 104 11 102 10 102 72 0 30 -4
54 -10 54 -5 0 -10 -20 -10 -44 l0 -43 -46 -7 c-26 -3 -64 -6 -85 -6 l-38 0
-3 53 c-3 51 -4 51 -16 24z"/>
<path d="M5690 4114 c0 -11 24 -50 53 -86 58 -72 151 -96 232 -59 44 20 105
68 105 82 0 16 -27 9 -46 -12 -54 -60 -163 -78 -225 -36 -19 12 -47 43 -64 69
-16 26 -36 47 -42 47 -7 1 -13 -2 -13 -5z"/>
<path d="M746 5718 c-8 -18 -22 -67 -31 -108 -56 -244 -103 -375 -135 -375 -8
0 -18 13 -21 30 -11 51 -10 363 1 370 13 8 13 61 0 86 -15 27 -46 24 -66 -6
-13 -20 -18 -59 -21 -183 -8 -255 13 -352 80 -376 63 -23 125 43 172 181 18
56 23 62 28 42 4 -13 7 -42 7 -64 0 -74 51 -142 87 -119 25 16 28 42 8 64 -15
16 -19 54 -26 242 -5 123 -11 229 -14 236 -2 6 -16 12 -30 12 -20 0 -29 -8
-39 -32z"/>
<path d="M9580 5711 c-76 -25 -164 -95 -187 -148 -22 -55 -16 -121 18 -193 17
-36 35 -76 40 -89 l9 -24 -127 7 c-177 10 -513 -18 -618 -50 -71 -22 -137 -69
-174 -124 -46 -67 -52 -100 -42 -226 5 -60 7 -112 4 -116 -2 -4 6 -19 19 -33
21 -24 27 -25 75 -19 l53 6 0 -53 c0 -30 -3 -77 -6 -105 -6 -49 -7 -50 -36
-46 -55 8 -92 -49 -104 -159 -7 -75 6 -115 56 -172 33 -38 74 -49 97 -26 8 8
16 -5 28 -48 69 -245 110 -337 182 -405 81 -75 101 -82 233 -82 105 0 119 2
166 26 30 16 81 59 123 104 60 64 82 99 139 215 l67 139 41 0 c46 0 71 19 116
89 57 90 71 196 32 236 -18 17 -66 20 -95 4 -20 -10 -20 -8 -14 36 4 25 8 104
9 175 l1 129 40 -5 c22 -3 53 -10 69 -15 39 -12 48 -2 48 55 0 96 -35 238 -78
316 -52 96 -127 140 -237 140 -31 0 -34 4 -76 95 -64 139 -58 218 22 279 117
89 283 99 329 20 22 -38 44 -186 34 -235 -3 -20 -15 -44 -26 -54 -18 -16 -19
-15 -39 24 -18 33 -20 48 -12 81 11 51 -2 106 -30 121 -61 32 -203 -47 -230
-128 -18 -55 4 -135 48 -174 35 -30 40 -31 99 -26 34 2 80 13 101 24 l38 19
50 -28 c52 -28 106 -40 115 -24 3 5 -17 15 -44 23 -27 8 -59 21 -72 30 l-24
15 25 32 c22 29 25 43 25 112 -1 127 -25 212 -69 240 -29 20 -168 29 -211 15z
m150 -170 c22 -42 7 -108 -20 -91 -34 21 -113 4 -125 -28 -8 -22 21 -61 52
-68 19 -5 39 -1 64 13 l37 20 16 -35 c9 -19 16 -36 14 -37 -38 -31 -151 -49
-188 -30 -56 29 -78 131 -41 191 22 35 110 84 153 84 17 0 31 -7 38 -19z m-25
-121 c11 -17 -15 -40 -45 -40 -30 0 -56 23 -45 40 3 5 24 10 45 10 21 0 42 -5
45 -10z m-224 -190 c141 -15 169 -23 211 -67 64 -67 109 -188 124 -332 l7 -64
-54 6 c-30 4 -81 9 -115 13 l-61 6 -10 105 c-10 94 -23 136 -37 122 -3 -3 -1
-34 4 -69 5 -36 11 -86 13 -112 l5 -48 -89 0 c-109 0 -109 -1 -116 153 -2 62
-7 118 -9 126 -8 26 -29 -7 -69 -109 -49 -127 -83 -170 -132 -170 -29 0 -34 3
-28 18 13 33 48 262 41 269 -13 14 -23 -17 -40 -130 -9 -61 -23 -121 -31 -133
-9 -13 -29 -24 -56 -28 -23 -4 -43 -5 -44 -4 -2 2 10 56 26 122 16 65 27 121
24 124 -12 13 -25 -19 -50 -122 -14 -60 -30 -115 -36 -123 -6 -7 -23 -13 -36
-13 -20 0 -24 4 -18 18 16 35 46 187 43 211 l-4 26 -11 -25 c-6 -14 -19 -65
-29 -113 -9 -49 -24 -97 -33 -108 -9 -10 -37 -23 -64 -28 -43 -8 -47 -7 -41 8
21 49 63 236 55 244 -13 13 -27 -20 -45 -113 -27 -138 -40 -152 -158 -165 -67
-6 -68 -6 -78 20 -6 15 -13 79 -16 144 l-5 116 31 53 c59 100 150 141 355 161
66 6 134 13 150 15 72 8 331 5 426 -4z m-141 -340 c7 -54 17 -106 24 -115 10
-14 34 -16 154 -16 l142 1 0 -112 c0 -125 -18 -275 -49 -415 -14 -65 -40 -135
-90 -239 -80 -166 -150 -260 -237 -320 -53 -37 -59 -39 -152 -42 -115 -5 -165
7 -221 51 -71 56 -108 120 -156 269 -71 221 -79 271 -79 527 l-1 224 170 29
c94 15 214 29 268 30 l97 1 30 45 c16 24 41 75 56 113 15 38 28 69 29 69 2 0
8 -45 15 -100z m-712 -428 c8 -5 16 -55 22 -142 10 -125 9 -135 -8 -152 -25
-25 -45 -15 -83 40 -29 44 -31 51 -27 122 7 114 44 165 96 132z m1142 -71 c20
-38 11 -96 -25 -168 -40 -81 -59 -100 -105 -109 -32 -7 -33 -7 -25 22 4 16 17
78 29 137 13 59 27 108 32 109 5 0 18 7 29 14 27 20 52 17 65 -5z"/>
<path d="M8851 4527 c-14 -14 -14 -54 -1 -62 16 -10 40 14 40 40 0 26 -22 39
-39 22z"/>
<path d="M9503 4514 c-8 -22 10 -49 32 -49 10 0 22 7 28 16 15 24 1 49 -28 49
-15 0 -28 -7 -32 -16z"/>
<path d="M9102 4267 c-17 -41 -15 -64 9 -88 19 -19 28 -21 93 -15 108 10 106
9 106 72 0 30 -4 54 -10 54 -5 0 -10 -20 -10 -44 l0 -43 -46 -7 c-26 -3 -64
-6 -85 -6 l-38 0 -3 53 c-3 51 -4 51 -16 24z"/>
<path d="M8950 4060 c0 -27 86 -119 127 -136 44 -19 100 -17 148 5 44 20 105
68 105 82 0 16 -27 9 -46 -12 -54 -60 -163 -78 -225 -36 -19 12 -47 43 -64 69
-33 51 -45 59 -45 28z"/>
<path d="M1177 5683 c-14 -13 -7 -50 12 -67 39 -36 85 6 56 50 -15 23 -53 32
-68 17z"/>
<path d="M1014 5616 c-18 -8 -35 -19 -38 -25 -4 -6 -19 -8 -35 -5 -33 7 -61
-16 -61 -49 0 -12 7 -67 15 -122 8 -55 15 -121 15 -146 0 -52 16 -72 52 -67
23 3 23 5 23 123 0 125 12 180 44 209 34 31 46 -2 49 -138 4 -139 14 -176 48
-176 12 0 26 6 31 13 12 20 3 237 -12 292 -23 81 -73 116 -131 91z"/>
<path d="M1402 5602 c-79 -74 -116 -252 -73 -349 22 -46 45 -63 90 -63 55 0
104 74 125 188 l12 66 13 -109 c7 -60 17 -117 22 -127 11 -21 54 -24 66 -5 4
6 10 78 13 158 5 154 16 193 47 167 34 -28 46 -73 51 -193 4 -126 16 -165 51
-165 36 0 40 19 30 150 -11 156 -24 204 -67 252 -29 32 -41 38 -74 38 -31 0
-46 -7 -70 -30 -16 -16 -36 -30 -44 -30 -7 0 -19 -9 -26 -20 -12 -19 -14 -16
-35 30 -15 34 -31 53 -48 60 -39 15 -50 13 -83 -18z m59 -106 c25 -27 -2 -188
-37 -217 -26 -21 -35 8 -31 92 2 53 10 90 27 125 19 37 25 44 28 29 2 -11 8
-24 13 -29z"/>
<path d="M1984 5525 c-23 -16 -14 -47 18 -62 31 -16 55 -8 63 18 12 38 -47 70
-81 44z"/>
<path d="M1209 5503 c-14 -35 -4 -249 12 -269 14 -17 44 -18 56 -1 5 6 6 75 3
152 l-5 140 -27 3 c-23 3 -30 -2 -39 -25z"/>
<path d="M2002 5378 c-7 -7 -12 -27 -12 -44 0 -24 5 -34 20 -39 40 -13 69 38
43 74 -16 24 -33 27 -51 9z"/>
<path d="M11980 5234 c-113 -19 -164 -45 -195 -99 -30 -51 -52 -147 -61 -265
-6 -74 -10 -89 -34 -115 -44 -47 -71 -112 -80 -189 -4 -39 -15 -89 -24 -111
-20 -54 -21 -167 0 -208 38 -75 91 -108 130 -82 22 14 24 14 24 -1 0 -30 70
-254 99 -319 34 -74 96 -146 159 -182 37 -22 60 -27 141 -31 55 -2 114 0 138
7 114 31 218 145 321 353 39 79 76 162 83 186 11 38 19 45 71 70 43 21 54 24
42 11 -9 -10 -32 -23 -50 -29 -19 -7 -34 -18 -34 -26 0 -17 0 -17 44 1 56 24
121 89 146 147 15 35 24 80 27 143 5 84 3 97 -19 146 -32 69 -69 113 -122 144
-41 24 -42 26 -55 102 -7 43 -19 93 -27 111 -19 47 -103 142 -125 142 -11 0
-19 4 -19 10 0 19 -50 42 -142 67 -119 31 -313 39 -438 17z m415 -40 c103 -26
165 -59 223 -116 46 -46 68 -93 85 -179 l14 -74 -81 0 c-101 0 -167 -27 -227
-92 -41 -45 -78 -114 -79 -146 0 -14 -5 -17 -20 -12 -10 3 -35 2 -54 -3 l-35
-10 -10 49 c-41 188 -230 289 -411 220 -30 -11 -55 -19 -56 -18 -6 5 17 166
32 230 20 82 59 129 122 146 168 46 336 48 497 5z m-398 -379 c60 -18 135 -80
166 -139 17 -33 22 -58 22 -126 0 -93 -10 -121 -67 -186 -77 -88 -221 -116
-324 -63 -48 25 -49 26 -57 85 -13 90 0 375 17 392 20 20 115 51 157 52 19 0
58 -7 86 -15z m712 -24 c20 -13 8 -324 -16 -446 l-18 -90 -65 0 c-75 1 -126
21 -176 72 -176 176 -53 473 194 473 37 0 73 -4 81 -9z m105 -61 c52 -48 82
-108 92 -181 l7 -54 -28 28 c-15 15 -39 27 -52 27 -31 0 -83 -30 -83 -47 0
-17 3 -17 45 8 33 20 37 20 59 5 53 -34 45 -102 -19 -173 -38 -44 -118 -93
-129 -82 -3 2 2 33 9 69 20 95 35 247 35 350 0 55 4 90 10 90 6 0 30 -18 54
-40z m-1104 -112 c0 -87 -3 -109 -12 -100 -7 7 -22 12 -35 12 -20 0 -23 5 -23
43 0 49 46 157 66 157 2 0 4 -50 4 -112z m617 -136 c15 -75 32 -110 80 -163
48 -54 122 -90 196 -97 l59 -5 -6 -30 c-3 -16 -39 -98 -80 -181 -61 -126 -85
-163 -141 -224 -97 -104 -136 -122 -270 -122 -122 0 -152 11 -224 82 -53 52
-97 143 -140 292 -25 85 -61 238 -61 261 0 2 24 -7 53 -20 57 -27 143 -33 209
-15 89 25 190 127 204 208 9 52 41 84 79 80 28 -3 31 -6 42 -66z m-633 12 c12
-5 16 -21 16 -66 0 -66 -9 -68 -39 -10 -32 65 -35 82 -12 82 10 0 26 -3 35 -6z
m-60 -58 c3 -14 23 -46 43 -73 45 -59 64 -148 35 -170 -25 -19 -40 -16 -67 12
-43 48 -58 93 -52 159 9 93 27 125 41 72z"/>
<path d="M11904 4534 c-8 -29 7 -49 30 -41 10 4 16 18 16 37 0 40 -36 43 -46
4z"/>
<path d="M12571 4542 c-13 -25 8 -56 35 -50 29 5 27 62 -3 66 -13 2 -26 -4
-32 -16z"/>
<path d="M12356 4313 c-3 -3 -6 -23 -6 -44 0 -37 -1 -38 -42 -44 -24 -4 -61
-5 -83 -3 l-40 3 2 43 c1 31 -2 42 -13 42 -20 0 -19 -93 1 -110 18 -15 171 -6
192 12 7 6 13 30 13 54 0 41 -10 61 -24 47z"/>
<path d="M12010 4091 c0 -23 83 -117 121 -136 39 -21 116 -18 164 5 45 21 95
63 95 80 0 16 -6 13 -55 -25 -94 -72 -172 -70 -246 6 -26 27 -50 58 -54 69 -8
25 -25 26 -25 1z"/>
<path d="M2553 4489 c-31 -32 -8 -86 84 -193 18 -22 33 -48 33 -57 0 -26 -70
-44 -115 -29 -37 12 -93 62 -76 68 20 7 11 23 -11 20 -33 -5 -32 -22 1 -61 40
-45 80 -61 141 -55 53 5 90 29 90 58 0 10 -27 51 -60 92 -59 74 -84 120 -73
132 14 14 44 4 76 -24 39 -34 47 -36 47 -16 0 20 -60 64 -96 72 -17 3 -34 0
-41 -7z"/>
<path d="M3772 4484 c-38 -26 -29 -69 34 -169 53 -83 55 -89 38 -102 -29 -21
-117 -17 -148 8 -14 11 -26 27 -26 35 0 8 -7 14 -15 14 -19 0 -19 -4 0 -39 21
-41 77 -65 136 -58 105 13 112 39 38 153 -57 88 -69 137 -33 142 14 2 29 -7
43 -24 15 -19 25 -24 32 -17 7 7 3 18 -13 36 -30 33 -59 41 -86 21z"/>
<path d="M7661 4461 c-30 -30 -37 -75 -31 -205 3 -83 9 -121 18 -124 8 -2 12
9 12 37 0 23 3 41 6 41 3 0 23 -13 43 -29 40 -32 152 -101 164 -101 4 0 7 7 7
15 0 8 -4 15 -9 15 -14 0 -191 120 -191 129 0 4 15 14 33 23 57 27 97 67 97
96 0 15 -16 48 -35 75 -28 38 -41 47 -65 47 -17 0 -39 -9 -49 -19z m87 -37
c41 -49 45 -70 19 -95 -24 -22 -97 -63 -103 -57 -2 2 -4 37 -6 77 -3 66 -1 74
21 92 31 26 35 25 69 -17z"/>
<path d="M3378 4465 c-3 -4 -4 -52 -1 -108 4 -85 1 -108 -14 -137 -13 -25 -25
-35 -42 -35 -33 0 -47 45 -56 174 -10 138 -29 133 -23 -6 8 -162 42 -226 104
-193 44 24 59 74 56 189 -2 96 -9 131 -24 116z"/>
<path d="M4004 4435 c-10 -16 -14 -34 -10 -50 9 -34 26 -32 26 3 0 56 51 72
69 21 15 -44 -6 -87 -67 -133 -27 -21 -55 -50 -62 -65 -10 -22 -9 -28 10 -43
17 -14 40 -18 99 -18 100 0 181 10 181 23 0 6 -42 7 -117 3 -96 -6 -122 -4
-138 7 -19 14 -16 18 53 84 66 62 72 71 72 108 0 56 -22 85 -65 85 -26 0 -39
-6 -51 -25z"/>
<path d="M7462 4446 c-54 -29 -92 -141 -73 -212 31 -112 129 -113 176 -2 29
72 7 174 -46 212 -28 19 -27 19 -57 2z m65 -55 c44 -65 23 -177 -40 -215 -15
-9 -23 -5 -49 23 -28 31 -30 38 -26 91 3 42 12 70 32 100 32 49 51 49 83 1z"/>
<path d="M2869 4418 c-7 -18 -39 -72 -71 -120 -54 -80 -72 -128 -48 -128 6 0
10 6 10 13 0 6 27 52 60 101 l60 89 0 -101 c0 -109 5 -132 27 -132 10 0 12 6
7 23 -4 12 -8 80 -8 151 -1 136 -11 165 -37 104z"/>
<path d="M10568 4413 c-43 -47 -60 -92 -61 -161 -1 -59 2 -67 28 -89 56 -48
140 -5 164 84 15 54 13 82 -8 130 -31 68 -80 82 -123 36z m90 -33 c53 -78 7
-210 -74 -210 -39 0 -54 21 -54 76 0 55 19 109 52 144 33 37 45 35 76 -10z"/>
<path d="M10782 4430 c-39 -16 -51 -63 -42 -165 5 -49 9 -98 9 -108 1 -10 6
-17 13 -15 8 3 11 21 9 53 l-3 48 39 -30 c40 -32 73 -50 136 -76 30 -13 37
-13 37 -3 0 8 -24 23 -53 35 -49 20 -157 103 -157 120 0 4 17 13 38 20 85 29
92 33 92 56 0 26 -52 75 -78 74 -9 0 -27 -4 -40 -9z m62 -26 c9 -4 21 -14 26
-24 8 -15 3 -20 -33 -33 -23 -8 -50 -18 -61 -22 -16 -7 -18 -5 -11 26 12 55
34 70 79 53z"/>
<path d="M4620 4353 c-60 -5 -81 -16 -62 -35 9 -9 15 -9 24 0 7 7 43 12 91 12
58 0 78 3 75 13 -5 13 -42 16 -128 10z"/>
<path d="M4524 4258 c-17 -27 70 -37 164 -19 86 17 65 28 -48 27 -62 -1 -114
-4 -116 -8z"/>
<path d="M6193 3361 c-68 -23 -125 -61 -160 -107 -25 -33 -28 -46 -28 -108 0
-60 5 -82 33 -138 17 -37 32 -73 32 -80 0 -10 -48 -13 -223 -13 -343 -1 -523
-28 -615 -95 -23 -16 -59 -56 -79 -87 l-38 -56 3 -140 c3 -180 10 -192 95
-183 l60 6 -7 -61 c-3 -34 -6 -81 -6 -103 0 -42 0 -42 -36 -42 -47 0 -78 -35
-93 -104 -18 -85 -14 -130 19 -187 45 -78 85 -100 121 -67 17 15 18 13 29 -28
27 -109 85 -278 113 -332 36 -68 127 -149 184 -165 53 -15 211 -13 256 3 108
39 202 145 296 336 65 132 67 135 96 132 19 -2 43 6 64 20 41 28 96 124 112
194 10 45 9 57 -7 90 -22 45 -59 56 -101 29 l-25 -17 7 49 c3 27 7 107 8 177
l2 128 50 -6 c111 -14 100 -22 100 69 -1 184 -89 375 -190 410 -44 15 -42 15
45 29 19 4 48 13 64 21 27 14 32 13 89 -15 58 -29 125 -41 112 -20 -3 5 -23
14 -43 20 -20 5 -52 19 -70 30 l-33 21 25 30 c23 27 26 39 26 113 0 94 -22
191 -51 222 -42 45 -147 56 -236 25z m210 -39 c59 -55 74 -279 22 -322 -11 -9
-18 -4 -33 27 -16 31 -19 51 -15 106 5 56 3 71 -12 87 -39 44 -167 6 -221 -66
-53 -69 -33 -191 39 -234 34 -21 26 -24 -36 -14 -35 6 -40 11 -72 82 -45 97
-57 144 -49 189 9 50 67 110 139 145 53 26 69 29 137 26 64 -3 81 -7 101 -26z
m-61 -119 c18 -16 24 -68 10 -90 -6 -9 -17 -10 -39 -4 -40 12 -80 3 -98 -21
-38 -55 52 -105 113 -62 27 18 24 20 46 -24 l17 -33 -37 -15 c-52 -22 -126
-29 -153 -15 -36 20 -61 71 -61 125 0 45 4 53 43 91 61 58 126 78 159 48z
m-22 -123 c13 -9 11 -13 -9 -31 -28 -23 -59 -22 -75 4 -8 14 -8 20 4 27 20 13
61 12 80 0z m-176 -201 c48 -5 103 -16 120 -23 33 -14 81 -68 109 -122 20 -40
54 -174 63 -248 l7 -59 -78 6 c-43 4 -95 7 -115 7 l-37 0 -11 112 c-11 102
-22 141 -37 126 -3 -3 -1 -34 4 -69 5 -35 11 -86 12 -114 l3 -50 -84 3 c-50 2
-90 9 -98 16 -9 9 -16 56 -20 137 -5 94 -10 124 -20 124 -8 0 -32 -45 -57
-107 -58 -146 -75 -168 -127 -168 -34 0 -39 3 -33 18 16 42 46 255 37 264 -13
13 -17 -1 -37 -131 -22 -143 -32 -161 -96 -161 l-36 0 28 117 c15 65 25 121
22 125 -11 19 -23 -9 -47 -114 -15 -62 -30 -118 -34 -124 -4 -6 -20 -14 -36
-18 -25 -6 -28 -5 -21 11 15 37 49 222 42 229 -13 13 -18 -3 -37 -98 -28 -144
-32 -149 -113 -164 l-38 -6 15 38 c8 22 21 71 30 109 9 39 19 80 22 93 5 16 2
22 -10 22 -8 0 -18 -10 -20 -22 -23 -109 -30 -139 -42 -179 -9 -29 -23 -50
-37 -56 -33 -16 -161 -33 -170 -24 -11 11 -26 130 -27 209 0 75 15 116 66 172
79 88 160 107 549 134 72 5 285 -3 389 -15z m-161 -455 c4 -4 71 -8 150 -8
l142 -1 3 -85 c4 -110 -13 -275 -43 -420 -21 -98 -36 -138 -104 -275 -90 -181
-159 -269 -252 -320 -50 -27 -61 -29 -159 -29 -119 1 -144 9 -217 77 -56 51
-91 119 -137 267 -61 196 -67 235 -73 492 l-5 237 33 5 c19 3 66 10 104 16
137 22 256 40 263 39 4 -1 37 -1 73 0 l67 1 35 53 c19 28 46 81 58 117 l24 65
15 -112 c8 -61 19 -115 23 -119z m-737 -302 c7 -4 16 -64 23 -145 9 -119 9
-141 -4 -154 -22 -21 -44 -13 -78 29 -76 94 -25 325 59 270z m1142 -74 c22
-22 13 -90 -19 -158 -39 -83 -74 -120 -112 -120 -26 0 -29 3 -23 23 4 12 17
72 29 133 17 88 26 113 42 121 28 15 69 15 83 1z"/>
<path d="M5467 2183 c-4 -3 -7 -19 -7 -35 0 -37 37 -40 46 -4 9 37 -17 62 -39
39z"/>
<path d="M6130 2175 c-19 -23 -8 -50 22 -53 22 -3 29 2 34 22 3 14 3 30 -1 35
-9 16 -41 13 -55 -4z"/>
<path d="M5910 1908 c0 -43 -2 -47 -27 -52 -129 -25 -143 -21 -143 40 0 52
-16 59 -25 10 -15 -78 13 -94 134 -80 l76 9 3 49 c2 27 -2 54 -7 59 -8 8 -11
-3 -11 -35z"/>
<path d="M5567 1734 c-16 -16 56 -114 107 -145 66 -40 188 -16 249 49 38 40
20 49 -26 11 -69 -57 -141 -73 -196 -45 -35 18 -111 101 -111 121 0 15 -12 20
-23 9z"/>
<path d="M2532 3278 c-7 -7 -12 -41 -12 -81 0 -65 -1 -70 -36 -102 -27 -26
-35 -40 -32 -62 4 -34 44 -45 65 -17 7 10 14 16 16 13 2 -2 9 -44 16 -94 13
-94 22 -115 51 -115 36 0 41 22 25 126 -19 129 -20 124 14 124 53 0 81 -46 81
-133 0 -67 17 -101 53 -105 21 -3 29 2 36 20 5 13 5 30 1 38 -4 8 -10 41 -13
73 -8 85 -41 145 -91 168 -23 10 -56 19 -73 19 l-33 0 0 58 c0 59 -11 82 -40
82 -9 0 -21 -5 -28 -12z"/>
<path d="M480 3270 c-13 -8 -14 -44 -12 -247 4 -251 10 -285 49 -291 36 -5 41
22 32 168 -4 74 -8 185 -8 247 -1 100 -3 113 -20 123 -24 12 -22 12 -41 0z"/>
<path d="M1020 3260 c-17 -17 -20 -33 -20 -119 0 -94 -1 -100 -21 -103 -51 -7
-49 -73 2 -73 22 0 24 -5 31 -74 9 -110 17 -140 38 -151 42 -23 65 10 51 73
-6 23 -12 70 -15 105 -5 51 -3 62 9 62 9 0 15 -10 15 -25 0 -36 27 -95 57
-127 38 -40 86 -44 175 -14 41 14 85 22 97 19 44 -11 51 9 44 136 -8 159 4
183 97 193 20 2 25 8 25 33 0 28 -2 30 -44 33 -51 4 -96 -12 -116 -41 -7 -11
-24 -25 -37 -31 -22 -12 -23 -16 -21 -128 l2 -116 -39 -16 c-22 -9 -57 -18
-78 -22 -34 -5 -42 -3 -60 21 -15 19 -22 42 -22 74 0 43 3 48 36 66 43 23 82
71 90 111 8 41 -27 84 -68 84 -40 0 -102 -63 -119 -121 -14 -44 -35 -60 -51
-38 -5 8 -7 52 -4 101 5 80 4 88 -14 98 -15 8 -24 6 -40 -10z"/>
<path d="M2680 3245 c-26 -32 13 -81 48 -59 34 22 22 74 -18 74 -10 0 -23 -7
-30 -15z"/>
<path d="M2270 3194 c-42 -36 -81 -114 -99 -204 l-16 -74 -45 -18 c-53 -20
-131 -23 -148 -6 -7 7 -12 28 -12 48 0 31 5 38 51 65 66 39 129 107 129 140 0
40 -33 65 -85 65 -37 0 -52 -6 -83 -34 -21 -19 -48 -59 -61 -88 -13 -29 -27
-61 -32 -71 -13 -25 1 -121 23 -157 38 -64 149 -77 253 -31 47 21 49 21 69 2
59 -53 133 -56 227 -8 67 34 85 62 54 87 -13 11 -25 9 -74 -14 -75 -36 -122
-38 -157 -5 -23 21 -25 29 -20 71 9 79 60 178 92 178 6 0 17 -14 23 -31 9 -25
15 -30 38 -27 24 3 28 8 31 41 3 30 -2 43 -27 67 -39 39 -87 41 -131 4z m-230
-57 c0 -2 -10 -12 -22 -23 l-23 -19 19 23 c18 21 26 27 26 19z"/>
<path d="M2923 3199 c-21 -13 -44 -44 -65 -87 -28 -57 -33 -77 -33 -142 0 -59
4 -81 20 -102 22 -30 72 -58 104 -58 32 0 92 60 121 122 l28 58 6 -31 c3 -17
6 -55 6 -83 0 -70 28 -97 63 -61 11 11 15 39 15 109 0 114 22 175 72 201 68
35 91 -11 100 -195 6 -146 17 -180 54 -180 33 0 50 23 37 49 -6 11 -11 60 -11
109 0 104 -13 182 -38 231 -41 78 -116 97 -189 49 -25 -16 -49 -25 -61 -21
-11 3 -28 0 -38 -5 -15 -8 -26 -3 -56 24 -45 40 -86 44 -135 13z m92 -79 c45
-50 -32 -246 -89 -224 -38 14 -33 129 9 200 28 48 52 55 80 24z"/>
<path d="M1684 3196 c-18 -8 -36 -27 -43 -44 -18 -42 -4 -80 64 -178 39 -56
51 -80 42 -86 -21 -14 -71 -9 -107 11 -27 14 -35 25 -35 46 0 53 -54 60 -77
10 -17 -39 10 -87 69 -122 61 -36 149 -39 203 -7 61 35 53 73 -42 208 -26 38
-48 75 -48 83 0 19 55 17 86 -4 24 -15 26 -15 46 4 54 55 -70 117 -158 79z"/>
<path d="M3652 3134 c-13 -23 -3 -63 18 -74 42 -22 73 23 46 65 -19 28 -51 33
-64 9z"/>
<path d="M620 3125 c-7 -9 -10 -28 -6 -47 3 -18 10 -96 15 -173 6 -77 13 -148
16 -158 10 -25 55 -34 70 -14 7 9 15 64 17 122 5 83 11 115 29 152 13 27 31
48 39 48 23 0 38 -77 39 -195 1 -112 8 -130 47 -130 29 0 34 16 34 113 0 257
-87 367 -197 251 l-33 -35 0 28 c0 48 -42 71 -70 38z"/>
<path d="M3676 2981 c-24 -27 -17 -65 12 -69 43 -6 71 45 40 76 -17 17 -32 15
-52 -7z"/>
<path d="M2565 2120 c-11 -12 -15 -27 -11 -42 5 -21 91 -181 126 -235 20 -31
4 -45 -58 -51 -62 -6 -111 10 -148 48 -32 33 -44 37 -44 16 0 -24 70 -74 119
-86 34 -8 60 -8 96 0 82 18 92 40 51 100 -43 64 -116 202 -116 221 0 28 35 32
86 10 52 -23 64 -25 64 -11 0 16 -77 50 -113 50 -21 0 -41 -7 -52 -20z"/>
<path d="M3808 2124 c-48 -25 -39 -66 42 -188 39 -59 70 -113 70 -120 0 -32
-108 -35 -156 -5 -39 24 -57 51 -48 73 4 11 1 16 -10 16 -11 0 -16 -9 -16 -29
0 -63 118 -128 192 -106 38 12 68 34 68 52 0 9 -29 59 -64 112 -83 123 -93
146 -76 166 28 34 120 10 120 -31 0 -8 5 -14 10 -14 21 0 9 49 -16 69 -31 24
-78 26 -116 5z"/>
<path d="M4080 2123 c-36 -13 -60 -47 -60 -85 0 -27 4 -38 15 -38 11 0 13 7 9
29 -7 36 23 71 62 71 30 0 84 -49 84 -77 0 -10 -40 -56 -89 -103 -101 -96
-112 -117 -79 -147 30 -28 84 -41 183 -45 123 -5 109 15 -20 28 -111 11 -155
24 -155 47 0 7 40 51 88 98 49 47 91 95 94 106 16 62 -70 138 -132 116z"/>
<path d="M2937 2068 c-79 -138 -157 -284 -157 -295 0 -19 20 -16 27 4 4 9 40
76 80 148 l73 130 1 -115 c1 -118 6 -151 25 -184 19 -31 34 -10 17 24 -10 22
-15 71 -17 177 -1 96 -6 148 -13 150 -6 2 -23 -15 -36 -39z"/>
<path d="M3406 2089 c-29 -23 -81 -119 -116 -215 -17 -49 -20 -66 -11 -83 7
-12 18 -21 26 -21 18 0 19 5 3 30 -10 16 -6 34 25 109 94 232 137 229 146 -9
7 -165 26 -177 26 -15 -1 130 -9 179 -36 206 -24 24 -30 24 -63 -2z"/>
<path d="M4625 1991 c-26 -4 -40 -11 -40 -21 0 -8 7 -13 15 -11 44 10 169 20
194 15 21 -5 27 -3 24 7 -5 15 -122 21 -193 10z"/>
<path d="M4735 1933 c-16 -2 -54 -6 -82 -9 -66 -7 -70 -24 -5 -23 70 1 137 13
135 24 -2 12 -9 13 -48 8z"/>
</g>
</svg>
