<?xml version="1.0" standalone="no"?>
<!DOCTYPE svg PUBLIC "-//W3C//DTD SVG 20010904//EN"
 "http://www.w3.org/TR/2001/REC-SVG-20010904/DTD/svg10.dtd">
<svg version="1.0" xmlns="http://www.w3.org/2000/svg"
 width="7565.000000pt" height="7660.000000pt" viewBox="0 0 7565.000000 7660.000000"
 preserveAspectRatio="xMidYMid meet">

<g transform="translate(0.000000,7660.000000) scale(0.100000,-0.100000)"
fill="#000000" stroke="none">
<path d="M10625 76569 c-111 -36 -213 -134 -255 -246 -20 -52 -25 -109 -50
-558 -54 -972 -54 -970 -40 -1032 37 -171 171 -296 344 -325 200 -33 403 96
460 291 12 40 26 245 56 780 37 670 38 731 25 789 -18 76 -42 124 -90 180
-108 125 -288 174 -450 121z"/>
<path d="M17823 75229 c-24 -4 -62 -17 -87 -27 -74 -33 -1196 -810 -1254 -869
-123 -125 -152 -308 -72 -469 93 -190 321 -281 518 -206 61 24 1220 819 1276
877 48 49 93 142 108 224 39 208 -122 430 -341 471 -61 11 -88 11 -148 -1z"/>
<path d="M2800 74920 c-146 -53 -250 -189 -274 -358 -8 -56 17 -171 50 -233
20 -36 176 -198 544 -565 284 -283 531 -525 550 -539 19 -14 59 -34 89 -46
206 -77 428 16 524 219 30 62 32 75 32 172 0 97 -2 110 -32 175 -31 66 -60 97
-565 598 -618 612 -589 590 -762 594 -80 2 -112 -2 -156 -17z"/>
<path d="M26765 74757 c-142 -47 -241 -149 -285 -292 -15 -48 -41 -1461 -28
-1539 11 -70 58 -164 110 -217 228 -235 624 -130 702 186 21 84 43 1476 25
1550 -30 127 -135 253 -246 296 -71 27 -217 36 -278 16z"/>
<path d="M8090 73760 c-589 -32 -1196 -213 -1735 -518 -138 -78 -385 -246
-525 -358 -162 -129 -472 -437 -594 -589 -153 -192 -314 -441 -416 -644 -499
-995 -498 -2141 2 -3296 776 -1792 2743 -3565 5734 -5168 302 -162 363 -160
679 25 1021 597 1970 1257 2720 1893 400 339 873 791 1188 1135 1051 1150
1681 2324 1881 3511 71 416 78 905 20 1309 -87 607 -362 1150 -809 1595 -874
873 -2306 1248 -3615 948 -688 -157 -1267 -467 -1765 -946 l-131 -125 -89 117
c-161 209 -413 446 -640 603 -521 361 -1210 545 -1905 508z m540 -855 c478
-69 902 -285 1217 -618 161 -171 284 -354 409 -610 40 -84 84 -157 109 -185
123 -135 314 -174 481 -98 86 40 129 82 224 220 126 185 206 283 345 422 221
222 430 370 727 519 403 200 816 299 1303 312 1033 28 1993 -411 2470 -1127
170 -256 269 -528 312 -857 21 -170 25 -610 5 -778 -88 -759 -377 -1495 -887
-2265 -734 -1107 -1892 -2193 -3440 -3227 -363 -242 -1009 -643 -1036 -643
-23 0 -632 345 -1000 568 -2378 1436 -3896 2973 -4403 4459 -130 383 -181 682
-181 1068 1 467 80 804 284 1210 149 294 284 480 535 731 185 185 274 258 476
392 442 294 922 469 1435 521 132 14 480 6 615 -14z"/>
<path d="M8355 72230 c-332 -73 -694 -226 -978 -413 -374 -248 -708 -595 -934
-972 -168 -280 -323 -683 -323 -841 0 -85 32 -180 83 -251 77 -103 174 -154
308 -161 107 -5 173 12 258 69 94 63 132 123 190 308 58 180 156 387 255 534
319 477 815 813 1351 917 98 19 175 62 243 134 83 90 106 150 107 281 0 92 -3
105 -32 167 -44 92 -110 160 -199 204 -93 47 -193 54 -329 24z"/>
<path d="M30012 73390 c-29 -10 -67 -29 -85 -41 -95 -67 -1081 -870 -1133
-924 -87 -88 -109 -147 -109 -285 0 -97 2 -110 31 -170 45 -94 102 -153 188
-195 127 -63 254 -64 374 -2 88 45 1161 915 1208 979 166 225 63 547 -203 639
-74 25 -198 25 -271 -1z"/>
<path d="M23506 73319 c-295 -101 -383 -473 -162 -687 70 -68 1244 -787 1329
-814 276 -85 553 132 535 420 -7 106 -37 179 -104 251 -47 51 -140 111 -670
436 -425 260 -635 384 -676 396 -79 25 -177 24 -252 -2z"/>
<path d="M26747 71659 c-499 -44 -993 -345 -1273 -774 -109 -169 -193 -370
-236 -569 -32 -148 -32 -445 1 -596 133 -621 565 -1119 1133 -1304 169 -55
278 -71 483 -71 146 1 202 5 294 24 368 73 675 242 942 518 205 213 338 459
405 748 36 159 45 430 20 601 -57 386 -211 701 -470 959 -139 139 -255 222
-419 300 -196 94 -386 144 -613 164 -130 12 -139 12 -267 0z m298 -844 c178
-31 317 -106 436 -233 162 -173 246 -461 210 -712 -39 -261 -212 -481 -482
-610 -123 -59 -222 -82 -354 -82 -130 -1 -204 15 -320 71 -217 104 -402 332
-466 576 -27 104 -29 272 -5 364 53 197 188 379 370 499 192 125 386 166 611
127z"/>
<path d="M30445 70745 c-477 -17 -631 -26 -667 -38 -194 -62 -320 -262 -289
-457 27 -169 150 -302 318 -345 54 -14 124 -13 789 10 427 14 746 29 769 36
70 19 155 71 200 121 206 229 109 587 -184 678 -79 25 -113 25 -936 -5z"/>
<path d="M23235 70484 c-346 -13 -659 -27 -693 -33 -274 -42 -430 -345 -308
-596 55 -111 182 -205 306 -224 31 -5 333 2 778 19 801 31 784 29 886 99 146
101 213 302 156 470 -62 185 -222 294 -425 290 -38 -1 -353 -12 -700 -25z"/>
<path d="M2900 70152 c-25 -2 -349 -32 -720 -67 -464 -44 -691 -69 -725 -80
-114 -39 -210 -131 -254 -244 -78 -197 12 -427 203 -521 115 -56 99 -57 865
15 383 35 721 69 751 75 219 41 369 254 332 472 -31 179 -176 323 -348 345
-32 5 -79 7 -104 5z"/>
<path d="M18460 70080 c-210 -5 -251 -8 -290 -24 -323 -137 -364 -559 -72
-745 97 -61 99 -61 721 -60 311 0 656 4 766 7 l201 7 67 33 c86 43 156 113
199 199 31 64 33 73 33 178 0 104 -2 114 -32 176 -42 86 -138 177 -220 211
l-58 23 -535 1 c-294 0 -645 -2 -780 -6z"/>
<path d="M29021 68445 c-210 -59 -347 -265 -311 -467 13 -69 38 -133 71 -179
17 -25 810 -760 1047 -972 116 -103 239 -140 372 -113 240 50 385 279 325 511
-31 119 -46 135 -604 648 -289 265 -542 495 -563 510 -84 63 -235 91 -337 62z"/>
<path d="M24720 68349 c-25 -5 -61 -15 -81 -23 -67 -27 -1253 -767 -1296 -808
-100 -97 -145 -260 -109 -393 28 -106 103 -208 190 -259 104 -61 267 -74 369
-28 45 20 1103 669 1230 754 283 191 233 618 -87 737 -64 23 -157 32 -216 20z"/>
<path d="M26814 67415 c-84 -18 -138 -48 -204 -111 -59 -56 -103 -131 -119
-205 -5 -24 -17 -370 -26 -768 -19 -818 -21 -793 55 -910 160 -247 523 -249
691 -4 69 100 69 100 84 718 21 843 21 938 -4 1007 -70 200 -276 318 -477 273z"/>
<path d="M16743 65745 c-73 -20 -127 -49 -178 -96 -97 -90 -140 -198 -133
-335 4 -70 10 -94 41 -157 36 -73 49 -86 570 -571 293 -273 552 -509 576 -526
107 -70 272 -80 394 -22 165 77 263 259 235 437 -13 85 -58 176 -115 232 -181
179 -1034 964 -1076 990 -94 59 -209 76 -314 48z"/>
<path d="M4921 65664 c-30 -8 -70 -24 -90 -36 -20 -12 -290 -197 -601 -411
-610 -419 -659 -459 -701 -564 -19 -47 -23 -77 -24 -163 0 -98 2 -110 32 -172
97 -206 345 -298 548 -204 74 34 1181 800 1241 858 161 156 165 411 8 578
-102 109 -264 154 -413 114z"/>
<path d="M32200 64389 c-732 -39 -1320 -213 -1799 -533 -75 -50 -173 -120
-216 -156 -109 -88 -334 -315 -426 -430 -594 -745 -914 -1826 -969 -3275 -5
-148 -15 -1145 -20 -2215 -14 -2533 -23 -3307 -95 -7750 -39 -2420 -44 -2742
-55 -3480 -64 -4428 -58 -7702 20 -10190 15 -468 39 -1101 45 -1200 71 -1050
262 -1842 609 -2515 184 -358 357 -596 631 -871 287 -287 572 -482 936 -637
211 -90 504 -174 739 -211 140 -23 6011 -678 8830 -986 2258 -247 4571 -494
6130 -656 410 -43 748 -80 751 -83 7 -7 -55 -1688 -62 -1696 -3 -2 -3934 394
-8735 881 -6245 633 -8747 884 -8794 880 -138 -12 -289 -123 -342 -253 -19
-48 -23 -76 -23 -163 0 -97 2 -110 32 -172 52 -111 153 -196 269 -227 23 -6
3638 -376 8034 -821 4397 -446 7995 -812 7997 -813 1 -2 -939 -340 -2090 -752
-1151 -411 -2136 -765 -2190 -787 -304 -119 -560 -302 -718 -510 -325 -432
-195 -979 290 -1223 121 -60 226 -93 546 -170 154 -37 672 -163 1150 -282
2602 -642 3316 -813 4375 -1048 1526 -338 2585 -528 3350 -600 234 -23 619
-30 755 -16 285 31 1047 204 1610 366 991 285 1903 646 2915 1152 608 304
1121 589 1910 1063 876 526 893 537 952 657 28 58 32 61 61 57 18 -2 378 -43
802 -89 2354 -260 5112 -615 7321 -944 l260 -39 70 -42 c247 -150 500 -394
717 -692 216 -297 379 -639 438 -922 15 -71 21 -137 21 -221 0 -105 -4 -137
-35 -255 -184 -703 -756 -1329 -1562 -1710 -843 -400 -1814 -573 -4135 -740
-1629 -117 -2374 -196 -3113 -331 -1785 -325 -3179 -951 -4204 -1887 l-113
-103 -103 103 c-320 321 -728 575 -1212 754 -487 180 -1022 267 -1645 268
-513 0 -967 -48 -1550 -164 -1556 -311 -2969 -988 -3868 -1854 -516 -498 -863
-1060 -1017 -1648 -69 -264 -95 -472 -95 -749 0 -345 49 -595 169 -863 166
-369 495 -701 936 -945 836 -462 2254 -649 3525 -465 800 116 1663 385 2850
889 607 258 973 440 1318 654 464 288 853 660 1084 1037 161 262 269 562 314
869 23 156 23 466 0 618 -35 237 -106 490 -194 694 l-40 92 137 133 c909 880
2293 1488 4046 1779 694 115 1241 170 2735 279 1365 99 2032 169 2687 280
1176 201 2021 538 2699 1077 141 112 456 427 568 568 382 479 633 1075 653
1550 20 486 -177 1058 -556 1614 -39 57 -70 106 -67 108 4 4 615 -92 1361
-213 1549 -251 3359 -568 4875 -853 577 -108 546 -104 629 -87 90 19 143 47
211 112 173 165 172 427 -2 596 -85 83 -111 91 -604 184 -4582 862 -9415 1599
-14099 2149 -1103 129 -2086 237 -2183 238 -84 2 -93 4 -97 22 -4 19 -186
2506 -185 2533 0 9 10 11 33 7 67 -11 2978 -269 4462 -395 2645 -224 6178
-494 6630 -507 1145 -33 2183 433 2933 1315 586 690 958 1640 1042 2662 28
349 127 3946 185 6760 111 5362 175 12498 175 19405 0 2127 -7 2485 -56 3025
-117 1299 -458 2232 -1044 2855 -556 592 -1248 896 -2250 989 -334 31 -633 36
-2980 46 -2627 11 -4771 20 -11380 50 -10639 48 -12800 56 -17545 70 -3856 11
-6131 11 -6355 -1z m11190 -849 c4297 -17 7195 -30 9450 -40 7275 -34 8861
-40 11365 -50 3340 -13 4399 -23 4610 -45 856 -86 1303 -315 1588 -815 135
-236 239 -552 311 -940 44 -238 76 -531 107 -965 7 -88 13 -608 15 -1255 27
-7876 27 -7892 104 -16740 33 -3744 22 -6676 -30 -8370 -105 -3411 -410 -5055
-1060 -5720 -397 -407 -955 -519 -2140 -430 -2720 203 -5445 430 -8760 731
-607 55 -901 85 -935 96 -36 12 -80 16 -155 15 -105 -2 -627 45 -2490 224
-5338 511 -11206 1125 -18480 1934 -3217 358 -5109 571 -5195 585 -371 64
-731 225 -1020 458 -255 206 -496 519 -669 872 -296 600 -453 1334 -496 2310
-73 1681 -106 3917 -96 6650 7 2296 20 3372 96 7980 70 4246 88 5802 95 7960
6 1609 13 2038 41 2370 120 1462 542 2399 1281 2849 323 196 694 302 1208 346
134 11 7848 5 11255 -10z m27720 -276 c632 -182 1080 -565 1380 -1179 268
-547 397 -1151 462 -2170 17 -263 17 -7560 0 -10015 -38 -5473 -90 -9275 -182
-13330 -43 -1888 -128 -4933 -146 -5220 -86 -1393 -773 -2542 -1816 -3034
-170 -81 -170 -81 -116 -5 572 810 870 2232 1003 4774 73 1412 95 2689 95
5590 0 2061 -3 2648 -40 6910 -51 6035 -60 7421 -66 11010 -6 3715 -11 4053
-69 4630 -91 892 -310 1583 -641 2018 -24 31 -44 60 -44 63 0 8 46 -3 180 -42z
m-22065 -34239 c2549 -260 4717 -475 6493 -644 228 -22 415 -41 418 -43 7 -7
695 -3890 692 -3905 -3 -16 -204 -134 -591 -347 -1647 -908 -3106 -1456 -4767
-1792 -179 -36 -192 -37 -395 -37 -855 0 -2643 338 -5735 1084 -228 55 -833
204 -1345 330 -805 199 -1647 406 -2225 547 -91 22 -178 45 -194 51 l-29 12
24 25 c39 42 138 108 228 154 46 23 1445 529 3110 1125 1664 596 3052 1093
3084 1105 66 25 162 107 200 173 55 94 54 87 92 1091 19 518 37 991 41 1053
l6 111 31 -4 c18 -2 406 -43 862 -89z m8150 -801 c165 -14 303 -29 306 -33 8
-8 233 -3096 227 -3113 -5 -12 -308 -203 -308 -194 0 6 -589 3318 -596 3350
-6 29 -6 29 32 23 22 -3 174 -18 339 -33z m-4565 -11208 c710 -90 1258 -311
1665 -674 138 -122 364 -398 365 -443 0 -20 -85 -149 -174 -264 -91 -118 -399
-425 -556 -555 -339 -281 -728 -543 -1185 -797 -182 -102 -425 -227 -429 -221
-2 2 -10 41 -20 88 -61 294 -223 623 -434 880 l-70 85 16 28 c24 40 119 129
172 160 135 79 323 73 462 -14 89 -56 139 -77 212 -89 175 -31 359 69 439 237
30 63 32 76 32 173 0 97 -2 110 -31 171 -40 83 -88 137 -173 193 -217 144
-460 216 -727 216 -208 0 -388 -42 -569 -133 -135 -67 -225 -134 -350 -261
l-120 -121 -150 107 c-82 60 -174 117 -204 129 -110 41 -234 33 -343 -22 -68
-35 -145 -115 -180 -188 -61 -127 -48 -300 32 -416 37 -54 64 -77 250 -210
492 -354 734 -608 859 -904 61 -143 91 -316 77 -432 l-7 -55 -192 -73 c-248
-95 -728 -255 -977 -325 -1298 -367 -2541 -490 -3640 -361 -187 23 -176 18
-201 83 -79 209 -88 556 -24 877 123 613 551 1211 1230 1720 800 601 1875
1055 3050 1290 332 66 644 108 1030 139 126 10 745 -3 865 -18z m2315 -2295
c-61 -387 -306 -762 -696 -1065 -352 -274 -723 -474 -1464 -791 -1150 -491
-1905 -732 -2665 -849 -503 -78 -1076 -87 -1614 -25 -161 18 -416 56 -423 63
-2 1 50 6 115 9 276 15 717 69 1092 133 2140 366 4389 1415 5550 2588 l115
117 3 -37 c2 -20 -4 -84 -13 -143z"/>
<path d="M48830 62244 c-14907 -27 -14447 -25 -14640 -48 -746 -86 -1335 -292
-1865 -650 -345 -232 -676 -555 -911 -886 -289 -408 -482 -873 -523 -1265 -10
-89 -29 -498 -61 -1320 -122 -3117 -145 -7073 -70 -12285 6 -388 24 -1576 40
-2640 56 -3641 67 -4606 76 -6175 3 -723 9 -1160 16 -1195 14 -75 51 -143 109
-205 52 -55 146 -109 209 -119 19 -4 388 -36 820 -71 2771 -230 5741 -491
12265 -1080 6977 -630 9849 -880 13030 -1135 4384 -351 8092 -595 10935 -719
250 -11 488 -23 529 -25 195 -12 350 70 430 228 45 87 48 136 66 996 9 393 22
1021 30 1395 54 2518 97 5009 170 10005 89 6101 137 8798 205 11627 30 1233
26 1593 -21 2062 -89 890 -337 1570 -769 2111 -109 136 -326 353 -465 464
-670 536 -1569 830 -2820 921 -581 42 622 41 -16785 9z m16045 -814 c720 -16
1135 -55 1608 -151 1080 -218 1767 -716 2103 -1526 231 -556 311 -1227 285
-2378 -91 -3926 -126 -5864 -216 -11985 -66 -4514 -99 -6510 -145 -8885 -38
-1934 -68 -3216 -75 -3224 -5 -5 -870 36 -1695 79 -3377 180 -7333 465 -12475
901 -2551 216 -4645 401 -10160 899 -6061 547 -8975 804 -12028 1059 -192 16
-351 32 -354 35 -4 4 -10 498 -14 1099 -11 1531 -22 2389 -74 5797 -34 2196
-43 2866 -55 3755 -47 3645 -36 6902 30 9435 30 1124 89 2709 110 2945 26 288
177 631 421 956 437 580 1108 966 1906 1095 298 48 -652 43 15293 73 8203 16
14962 29 15020 29 58 1 290 -3 515 -8z"/>
<path d="M52430 60569 c-593 -14 -849 -32 -1055 -76 -501 -105 -995 -321
-1368 -599 -568 -424 -904 -967 -1046 -1697 -89 -457 -103 -814 -77 -2057 29
-1402 135 -6677 156 -7725 10 -561 22 -1083 25 -1160 48 -1089 578 -1923 1532
-2408 337 -171 718 -298 1115 -371 367 -68 1345 -191 2143 -270 2383 -237
4798 -316 8713 -287 1672 12 1983 18 2277 46 534 51 988 175 1317 361 413 233
702 545 924 999 128 262 211 512 279 840 70 337 93 553 135 1300 172 3050 223
4761 224 7555 1 1660 2 1636 -50 1998 -177 1249 -754 2225 -1616 2738 -559
332 -1224 509 -2203 588 -1102 89 -4346 185 -7615 226 -895 11 -3324 11 -3810
-1z m4235 -839 c3184 -47 6048 -134 7095 -216 960 -74 1557 -244 2019 -572
112 -79 317 -273 408 -387 299 -372 505 -837 618 -1400 32 -160 83 -522 74
-528 -2 -2 -161 7 -354 19 -2017 130 -4261 232 -6345 289 -1509 41 -2435 55
-4125 62 -2054 8 -3878 -15 -5795 -72 -267 -8 -502 -15 -522 -15 l-38 0 0 118
c1 195 19 572 35 724 70 637 290 1089 688 1409 285 230 628 394 1029 494 76
19 182 39 235 44 157 17 544 32 1028 41 546 10 3025 4 3950 -10z m1010 -3581
c2915 -36 5925 -151 8775 -334 212 -14 400 -25 419 -25 l34 0 -7 -1017 c-18
-2667 -66 -4273 -201 -6753 -44 -792 -65 -1131 -81 -1270 -87 -779 -319 -1306
-703 -1596 -169 -127 -448 -242 -723 -298 -454 -91 -728 -99 -3708 -100 -2236
-1 -2580 2 -3595 34 -2160 69 -3998 215 -5664 451 -408 58 -594 97 -841 180
-886 295 -1379 866 -1470 1702 -5 54 -17 425 -25 825 -24 1181 -83 4078 -120
5942 -18 954 -37 1835 -40 1957 l-7 221 54 6 c51 5 790 26 1633 46 1974 46
4133 57 6270 29z"/>
<path d="M51781 59324 c-285 -76 -529 -392 -581 -753 -15 -98 -8 -239 15 -326
22 -84 85 -210 139 -277 162 -202 477 -324 749 -289 334 43 567 239 649 546
30 113 30 306 0 425 -88 356 -336 604 -673 675 -88 19 -227 18 -298 -1z"/>
<path d="M54105 59322 c-297 -89 -531 -409 -576 -788 -18 -155 15 -331 88
-463 45 -81 157 -199 243 -256 142 -95 299 -139 490 -138 214 1 385 64 524
194 92 85 141 159 182 269 122 326 29 722 -227 966 -107 102 -194 152 -339
199 -113 36 -293 44 -385 17z"/>
<path d="M56531 59324 c-285 -76 -529 -392 -581 -753 -15 -98 -8 -239 15 -326
22 -84 85 -210 139 -277 162 -202 477 -324 749 -289 334 43 567 239 649 546
30 113 30 306 0 425 -88 356 -336 604 -673 675 -88 19 -227 18 -298 -1z"/>
<path d="M50541 54788 c-54 -27 -135 -106 -183 -178 -96 -147 -242 -417 -275
-507 -93 -261 -136 -516 -137 -818 -1 -299 34 -507 131 -775 94 -262 201 -450
315 -555 96 -89 171 -113 259 -84 87 30 129 88 129 182 0 82 -16 115 -99 202
-88 92 -125 143 -173 240 -84 166 -130 351 -150 592 -22 277 23 638 111 888
25 72 143 275 216 375 97 131 129 201 130 282 0 63 -2 69 -35 103 -72 76 -156
94 -239 53z"/>
<path d="M53635 54474 c-143 -29 -273 -81 -377 -150 -97 -64 -251 -219 -317
-319 -174 -265 -262 -609 -231 -908 33 -326 167 -590 366 -722 72 -48 252
-120 355 -142 120 -25 318 -23 421 5 216 59 430 223 578 443 71 107 164 293
208 419 44 126 56 221 56 430 0 158 -3 198 -22 273 -70 280 -249 489 -514 603
-132 56 -222 74 -373 73 -71 -1 -139 -3 -150 -5z m254 -399 c156 -37 295 -143
355 -268 41 -88 56 -154 56 -255 0 -186 -35 -331 -125 -517 -171 -356 -492
-513 -765 -375 -124 62 -227 180 -272 308 -20 60 -23 85 -23 232 1 148 3 175
28 262 35 128 74 219 136 315 58 91 196 230 261 263 95 49 230 63 349 35z"/>
<path d="M51960 54454 c-80 -17 -180 -52 -319 -111 -379 -161 -593 -378 -706
-715 -131 -392 -59 -799 191 -1085 128 -146 302 -237 500 -264 152 -20 331 18
484 104 109 61 307 258 349 347 61 129 30 238 -84 291 -57 26 -121 24 -181 -6
-39 -19 -61 -41 -97 -94 -60 -87 -148 -171 -218 -207 -48 -26 -64 -29 -149
-29 -86 0 -101 3 -163 32 -136 65 -234 197 -273 369 -34 155 -5 380 68 516 99
185 307 340 576 428 52 16 108 30 126 30 37 0 68 -29 109 -100 14 -25 42 -61
61 -79 29 -28 45 -35 90 -39 65 -5 117 10 161 50 109 95 76 278 -79 433 -129
129 -264 168 -446 129z"/>
<path d="M65975 54426 c-28 -12 -104 -87 -105 -104 -1 -4 -5 -27 -9 -51 -14
-69 7 -122 103 -271 162 -250 226 -407 273 -660 25 -135 25 -552 0 -695 -34
-195 -76 -332 -140 -460 -58 -117 -89 -158 -202 -275 -115 -117 -130 -149
-123 -251 7 -99 76 -159 183 -158 70 0 113 18 188 77 123 98 220 234 311 437
151 336 219 648 219 1015 0 362 -64 640 -212 925 -87 168 -246 420 -280 444
-59 41 -148 53 -206 27z"/>
<path d="M55249 54381 c-37 -12 -71 -31 -96 -54 -51 -46 -60 -99 -148 -841
-46 -391 -91 -758 -100 -816 -20 -133 -30 -286 -21 -333 15 -78 96 -137 190
-137 68 0 102 12 144 53 58 56 89 185 112 467 10 127 79 773 83 776 1 1 89
-179 195 -399 318 -663 352 -729 389 -750 81 -46 204 -27 265 41 42 47 85 145
303 696 111 280 181 443 185 435 5 -8 24 -106 44 -219 60 -343 91 -568 110
-811 15 -182 29 -231 84 -285 111 -112 318 -15 330 153 9 138 -95 869 -185
1298 -38 182 -129 550 -143 576 -45 88 -107 129 -193 129 -106 0 -187 -84
-250 -260 -40 -110 -131 -337 -221 -554 -35 -83 -101 -243 -147 -354 l-83
-204 -58 116 c-32 64 -130 271 -217 459 -282 607 -335 711 -384 761 -58 58
-121 77 -188 57z"/>
<path d="M57776 54310 c-112 -44 -127 -85 -171 -455 -19 -154 -54 -455 -79
-670 -26 -214 -55 -453 -66 -530 -50 -350 -48 -390 24 -461 53 -53 118 -70
195 -50 121 31 163 128 191 438 19 208 88 839 92 844 3 2 111 -218 242 -489
312 -647 301 -627 356 -654 74 -38 173 -26 234 27 47 42 96 147 265 578 145
368 228 572 235 580 19 18 134 -739 160 -1050 13 -149 17 -172 42 -218 33 -61
62 -86 116 -101 44 -11 86 -5 138 21 47 24 75 56 101 114 26 60 24 105 -21
466 -55 430 -125 812 -227 1233 -45 188 -60 235 -87 274 -66 96 -181 122 -271
61 -72 -49 -97 -93 -184 -318 -43 -113 -117 -297 -164 -410 -47 -113 -122
-295 -167 -405 -45 -110 -84 -201 -85 -203 -4 -5 -128 252 -270 559 -199 430
-326 691 -355 732 -35 48 -83 84 -130 97 -47 13 -57 12 -114 -10z"/>
<path d="M63308 54258 c-50 -13 -122 -78 -141 -127 -13 -30 -18 -113 -27 -377
-6 -187 -15 -431 -20 -544 -6 -113 -10 -229 -10 -258 0 -30 -4 -52 -9 -50 -5
2 -53 68 -107 148 -142 211 -256 368 -444 610 -91 118 -212 276 -267 351 -56
75 -123 155 -148 177 -91 80 -217 79 -302 -2 -38 -36 -45 -48 -52 -101 -5 -33
-12 -262 -15 -510 -3 -247 -11 -662 -17 -921 l-12 -471 22 -47 c27 -56 70 -91
132 -107 120 -32 213 42 239 190 9 52 39 947 40 1196 l0 59 148 -199 c290
-391 514 -720 695 -1025 98 -165 114 -185 171 -211 97 -44 236 0 271 85 25 60
77 922 96 1572 12 441 14 419 -48 501 -42 54 -125 81 -195 61z"/>
<path d="M60575 54233 c-94 -8 -264 -35 -315 -49 -106 -30 -178 -93 -194 -170
-10 -47 13 -123 50 -164 l32 -36 -17 -714 c-19 -773 -19 -777 32 -844 64 -83
208 -114 578 -123 248 -6 359 3 534 42 91 21 114 30 143 57 95 91 93 211 -6
300 -64 58 -105 64 -242 39 -219 -40 -481 -50 -611 -24 l-29 6 0 137 c0 75 3
164 6 197 l7 61 306 5 c313 5 374 12 447 50 75 39 117 134 95 216 -17 65 -53
115 -98 136 -45 21 -66 22 -462 10 l-284 -8 5 227 c4 125 9 230 13 234 4 4
176 7 383 8 208 0 395 4 417 8 152 30 220 162 150 296 -17 32 -68 77 -104 92
-25 10 -742 20 -836 11z"/>
<path d="M63920 54151 c-79 -7 -121 -31 -161 -90 -55 -84 -58 -161 -9 -224 47
-60 226 -97 469 -97 l154 0 -6 -287 c-4 -159 -12 -515 -18 -792 -12 -544 -12
-552 38 -612 34 -40 116 -79 167 -79 102 0 168 47 185 133 10 51 24 534 37
1264 l7 361 191 -5 c209 -6 339 5 390 35 17 10 41 34 54 53 51 74 12 208 -81
283 l-39 31 -291 7 c-161 4 -409 12 -552 18 -273 10 -426 11 -535 1z"/>
<path d="M50521 49945 c-82 -39 -154 -120 -258 -295 -177 -298 -214 -382 -273
-622 -56 -229 -65 -310 -65 -598 1 -210 4 -285 18 -360 58 -308 177 -629 305
-820 59 -88 150 -178 212 -211 62 -31 132 -31 196 2 85 44 116 118 94 225 -11
51 -21 65 -103 154 -51 55 -107 124 -125 154 -75 123 -139 309 -174 506 -21
119 -18 537 5 675 29 169 82 366 121 444 55 108 134 238 197 323 83 112 113
178 117 261 l4 68 -48 48 c-47 47 -98 71 -149 71 -11 0 -44 -11 -74 -25z"/>
<path d="M53635 49633 c-141 -22 -300 -85 -416 -164 -88 -59 -236 -209 -296
-299 -99 -148 -178 -336 -218 -520 -26 -118 -31 -357 -11 -481 22 -133 75
-293 129 -389 62 -111 190 -237 287 -282 211 -100 273 -117 455 -125 102 -4
149 -2 215 11 305 62 567 296 744 666 70 146 113 264 126 343 70 442 -9 759
-247 992 -103 100 -259 186 -410 226 -77 20 -289 34 -358 22z m249 -409 c179
-44 320 -180 372 -359 35 -124 16 -368 -43 -525 -111 -297 -259 -472 -465
-548 -275 -101 -589 91 -652 400 -59 289 57 667 274 887 103 105 175 143 310
165 38 6 138 -4 204 -20z"/>
<path d="M51894 49601 c-94 -25 -278 -98 -385 -151 -311 -156 -497 -363 -600
-670 -81 -237 -83 -519 -5 -746 49 -146 153 -306 259 -399 273 -241 653 -270
957 -74 80 52 241 207 290 281 75 113 74 216 -4 294 -32 33 -53 44 -96 53
-105 21 -160 -7 -247 -124 -135 -182 -261 -250 -416 -225 -124 20 -255 115
-314 227 -59 110 -78 193 -77 333 2 258 94 447 289 597 90 70 284 165 404 199
115 33 126 29 188 -65 85 -129 129 -154 231 -131 111 24 181 140 152 252 -34
126 -153 269 -275 329 -64 31 -78 34 -175 36 -79 2 -123 -2 -176 -16z"/>
<path d="M65966 49586 c-86 -32 -143 -123 -134 -216 4 -37 17 -70 53 -127 208
-335 240 -399 290 -586 40 -150 58 -303 58 -507 0 -208 -18 -357 -62 -535 -62
-242 -137 -381 -294 -542 -87 -90 -111 -120 -123 -159 -19 -63 -17 -111 5
-160 43 -94 174 -128 281 -73 82 42 206 166 278 279 47 73 141 271 186 393
197 530 193 1176 -12 1642 -48 109 -117 233 -225 403 -72 114 -99 148 -132
168 -53 31 -118 38 -169 20z"/>
<path d="M55190 49524 c-98 -42 -119 -102 -160 -453 -61 -531 -130 -1101 -149
-1236 -33 -233 -36 -308 -17 -359 52 -135 229 -168 332 -62 60 63 80 148 109
468 8 89 26 269 40 398 14 129 29 263 32 298 3 34 9 62 12 62 3 0 82 -159 176
-352 323 -674 365 -757 398 -780 38 -27 137 -36 192 -18 95 31 113 66 351 665
214 538 208 525 215 525 6 0 61 -285 88 -465 32 -206 60 -438 71 -590 9 -123
14 -148 41 -202 45 -94 131 -134 224 -103 54 18 119 86 139 147 15 45 15 61 1
199 -51 497 -141 1019 -259 1497 -59 238 -77 277 -146 323 -88 59 -196 36
-268 -55 -42 -53 -47 -64 -137 -295 -36 -93 -102 -257 -146 -365 -45 -108
-119 -288 -166 -401 -46 -113 -88 -208 -92 -213 -8 -8 -95 171 -349 718 -167
359 -254 535 -283 577 -12 17 -42 43 -67 59 -53 33 -123 38 -182 13z"/>
<path d="M57735 49461 c-53 -24 -91 -70 -110 -133 -8 -28 -49 -340 -90 -692
-42 -353 -87 -720 -100 -817 -30 -216 -40 -335 -31 -383 21 -110 171 -178 281
-127 103 47 137 148 165 481 11 134 78 765 84 790 1 8 14 -10 28 -40 143 -308
514 -1060 532 -1079 55 -54 183 -58 258 -8 63 43 85 89 306 652 182 462 209
525 216 505 9 -25 64 -327 85 -465 32 -208 59 -439 71 -590 11 -159 35 -225
96 -272 42 -31 114 -41 169 -23 56 19 121 88 139 150 14 48 14 67 -10 273 -40
363 -107 784 -170 1077 -49 227 -127 536 -145 571 -42 83 -131 137 -210 126
-93 -12 -167 -95 -225 -252 -36 -98 -163 -414 -244 -610 -23 -55 -78 -188
-122 -295 -44 -107 -83 -198 -87 -203 -8 -8 -123 225 -314 638 -236 510 -300
636 -348 682 -24 23 -57 47 -72 52 -42 16 -107 13 -152 -8z"/>
<path d="M63254 49401 c-52 -24 -109 -90 -122 -144 -6 -23 -13 -148 -17 -277
-7 -298 -25 -763 -34 -859 l-6 -73 -90 133 c-143 214 -281 402 -478 657 -101
130 -211 276 -246 324 -85 120 -158 198 -206 219 -101 46 -237 6 -283 -83
l-24 -46 -9 -594 c-5 -326 -13 -751 -18 -945 -11 -374 -8 -402 35 -459 48 -65
160 -93 239 -60 45 19 91 84 105 149 13 62 26 390 36 907 l7 374 29 -34 c39
-46 320 -431 436 -597 120 -171 254 -379 372 -577 52 -87 108 -171 123 -187
41 -42 125 -64 185 -49 60 14 117 52 136 89 32 60 90 1004 103 1668 l6 332
-36 54 c-59 90 -152 119 -243 78z"/>
<path d="M60595 49388 c-143 -7 -304 -30 -376 -54 -115 -37 -179 -108 -179
-196 0 -49 28 -116 60 -148 l23 -23 -18 -719 c-14 -595 -15 -728 -4 -766 17
-62 80 -124 145 -145 158 -51 650 -70 864 -34 233 39 300 70 336 154 17 38 18
111 3 150 -14 37 -65 90 -110 114 -51 26 -95 25 -234 -1 -103 -20 -152 -24
-352 -24 -146 -1 -236 3 -242 9 -7 7 -8 77 -4 206 l6 196 186 -5 c329 -8 554
23 613 85 92 96 68 263 -45 322 l-47 24 -293 -13 c-161 -7 -319 -10 -350 -6
l-57 7 6 227 c4 125 9 229 11 232 3 3 188 5 411 5 369 0 411 2 447 18 53 24
84 53 106 102 33 71 19 148 -38 214 -59 69 -81 73 -430 75 -169 0 -366 -2
-438 -6z"/>
<path d="M63813 49290 c-129 -66 -165 -256 -61 -320 82 -51 260 -80 485 -80
l114 0 -6 -162 c-7 -214 -24 -979 -27 -1233 -2 -231 4 -258 65 -310 58 -50
133 -70 199 -55 59 15 113 58 127 103 12 37 28 512 36 1052 3 204 8 421 11
484 l6 114 162 -6 c162 -7 317 3 388 25 78 23 122 110 99 195 -16 58 -65 129
-112 160 l-43 28 -320 7 c-177 4 -492 10 -701 13 -376 7 -380 6 -422 -15z"/>
<path d="M35600 58953 c-234 -26 -405 -247 -369 -476 27 -167 158 -309 320
-346 29 -7 902 -11 2564 -11 2716 0 2572 -3 2673 49 72 37 139 108 179 189 36
73 38 80 38 176 0 81 -5 112 -23 156 -45 112 -129 193 -250 242 l-57 23 -2520
1 c-1386 0 -2536 -1 -2555 -3z"/>
<path d="M32097 58850 c-256 -81 -373 -388 -234 -608 34 -54 1880 -2135 1949
-2197 87 -79 221 -117 335 -96 182 33 315 167 346 347 13 78 -3 177 -41 252
-36 70 -1937 2210 -2001 2253 -100 66 -241 85 -354 49z"/>
<path d="M42614 58849 c-120 -37 -219 -130 -265 -246 -19 -46 -23 -77 -24
-153 0 -86 3 -101 32 -163 43 -90 119 -169 202 -210 l66 -32 2065 0 2065 0 60
24 c85 34 193 143 225 226 88 230 -27 477 -258 554 -61 21 -65 21 -2084 20
-1976 0 -2024 -1 -2084 -20z"/>
<path d="M35540 56986 c-77 -21 -139 -58 -196 -118 -63 -66 -99 -137 -113
-225 -31 -193 90 -391 274 -453 60 -20 79 -20 2111 -18 l2050 3 76 38 c236
116 304 398 150 621 -39 57 -133 122 -209 146 -64 20 -89 20 -2082 19 -1558 0
-2026 -3 -2061 -13z"/>
<path d="M41290 56986 c-77 -21 -139 -58 -196 -118 -63 -66 -99 -137 -113
-225 -31 -192 89 -391 273 -453 59 -20 81 -20 3176 -20 3471 0 3163 -7 3279
71 178 119 234 369 124 556 -51 88 -163 169 -265 193 -68 15 -6220 12 -6278
-4z"/>
<path d="M36230 55040 c-776 -6 -734 -2 -835 -78 -124 -94 -187 -246 -164
-395 26 -166 157 -309 320 -346 29 -7 1087 -11 3129 -11 3336 0 3136 -3 3241
50 51 26 113 82 149 135 79 115 92 280 33 408 -59 124 -180 214 -319 237 -61
10 -4216 10 -5554 0z"/>
<path d="M44900 55040 l-1445 -5 -58 -23 c-167 -68 -280 -270 -250 -449 28
-162 135 -285 291 -333 63 -20 100 -20 2076 -20 2185 0 2051 -3 2159 52 188
95 271 346 179 541 -59 126 -178 213 -322 236 -41 7 -275 10 -625 9 -308 -2
-1210 -5 -2005 -8z"/>
<path d="M35539 53075 c-116 -32 -226 -123 -274 -227 -103 -226 10 -489 245
-570 l65 -23 2034 3 c1944 4 2036 5 2087 22 142 49 245 172 273 327 29 159
-56 342 -200 426 -103 60 26 57 -2174 56 -1593 -1 -2020 -3 -2056 -14z"/>
<path d="M32750 52658 c-215 -34 -364 -225 -347 -445 11 -144 -22 -103 1071
-1363 613 -708 1005 -1152 1033 -1171 183 -126 438 -84 569 94 52 69 84 165
84 247 0 71 -30 173 -67 227 -54 79 -2002 2318 -2037 2341 -90 60 -204 86
-306 70z"/>
<path d="M36100 50666 c-122 -33 -239 -134 -280 -243 -31 -79 -38 -201 -16
-276 36 -124 155 -245 279 -282 43 -13 576 -35 3077 -126 1664 -60 3070 -108
3125 -106 132 5 195 29 279 107 234 220 153 597 -152 699 -57 20 -222 27
-3115 131 -1680 60 -3076 110 -3103 109 -27 0 -69 -6 -94 -13z"/>
<path d="M36067 48759 c-128 -20 -253 -116 -310 -237 -30 -62 -32 -75 -32
-172 0 -97 2 -110 32 -172 62 -131 176 -218 314 -239 109 -17 6166 -230 6224
-218 238 45 387 294 317 525 -27 89 -72 156 -141 210 -69 54 -152 83 -256 90
-44 3 -1396 52 -3005 109 -1609 57 -2963 106 -3010 108 -47 2 -107 0 -133 -4z"/>
<path d="M35369 46847 c-200 -68 -318 -271 -275 -476 24 -114 89 -209 184
-269 99 -63 40 -59 1517 -113 748 -27 1405 -48 1460 -47 113 4 183 29 262 94
224 184 183 557 -77 689 -83 42 -103 44 -1523 95 -764 27 -1410 50 -1435 50
-26 0 -77 -11 -113 -23z"/>
<path d="M39885 46696 c-212 -55 -352 -263 -316 -468 33 -187 179 -326 365
-350 67 -8 2545 -97 2762 -99 79 -1 116 3 165 20 188 63 309 260 278 454 -28
172 -165 316 -332 347 -28 6 -626 30 -1327 55 -701 24 -1336 47 -1410 49 -93
4 -150 1 -185 -8z"/>
<path d="M33298 45871 c-77 -25 -117 -52 -181 -121 -78 -84 -101 -147 -101
-275 0 -80 4 -111 22 -155 16 -40 291 -408 1012 -1350 545 -712 1003 -1308
1018 -1323 77 -80 190 -121 315 -115 111 6 182 35 257 105 138 127 176 325 95
487 -27 56 -1950 2574 -2018 2644 -106 109 -272 150 -419 103z"/>
<path d="M36630 43296 c-117 -31 -227 -124 -278 -233 -24 -52 -27 -69 -27
-168 0 -103 2 -114 32 -177 53 -113 147 -193 268 -228 55 -15 6168 -239 6249
-228 160 22 299 148 342 312 61 228 -96 466 -333 507 -48 8 -6058 231 -6173
228 -19 0 -55 -6 -80 -13z"/>
<path d="M36320 40587 c-200 -45 -330 -207 -330 -412 0 -205 148 -375 353
-406 58 -9 4194 -198 4399 -201 72 -1 108 3 158 20 191 64 309 259 278 457
-27 172 -163 312 -334 345 -32 6 -1013 53 -2179 105 -1166 52 -2158 96 -2205
99 -49 3 -108 0 -140 -7z"/>
<path d="M32650 40348 c-114 -17 -236 -101 -295 -201 -31 -54 -55 -147 -55
-213 0 -65 31 -168 67 -222 22 -33 785 -824 2123 -2203 86 -89 118 -114 175
-141 66 -31 76 -33 180 -33 98 0 116 3 168 27 32 15 84 52 116 83 141 134 171
336 74 505 -36 64 -2205 2304 -2266 2341 -85 52 -190 73 -287 57z"/>
<path d="M42553 40289 c-106 -34 -199 -118 -252 -229 -23 -49 -26 -67 -26
-165 0 -103 2 -114 32 -177 41 -87 114 -160 198 -199 50 -24 87 -33 167 -40
57 -5 1071 -53 2253 -106 1765 -79 2160 -94 2205 -84 126 26 234 111 293 230
30 62 32 72 32 176 0 103 -2 114 -32 177 -52 110 -151 194 -268 227 -35 10
-4336 212 -4485 210 -30 0 -83 -9 -117 -20z"/>
<path d="M36413 38175 c-86 -19 -155 -59 -216 -125 -225 -246 -86 -640 244
-691 99 -16 4904 -271 4987 -266 187 13 342 159 374 351 34 204 -103 411 -308
465 -23 6 -1128 69 -2455 141 -1328 71 -2448 131 -2489 134 -45 3 -100 -1
-137 -9z"/>
<path d="M43374 37728 c-113 -15 -239 -100 -299 -202 -95 -163 -59 -390 82
-516 58 -52 133 -88 210 -101 58 -10 7926 -379 8123 -381 85 -1 115 3 161 21
85 33 147 78 195 144 187 254 41 611 -269 659 -34 5 -1857 92 -4052 193 -2194
102 -4013 186 -4041 187 -29 2 -78 0 -110 -4z"/>
<path d="M48735 32826 c-92 -21 -206 -69 -292 -122 -107 -65 -281 -242 -351
-357 -143 -230 -211 -500 -184 -728 25 -214 107 -384 258 -534 431 -430 1236
-444 1651 -28 314 314 344 848 71 1265 -207 314 -554 503 -948 514 -101 2
-163 0 -205 -10z"/>
<path d="M19250 62149 c-2251 -114 -4692 -890 -6840 -2174 -1597 -955 -2991
-2147 -4187 -3582 -598 -718 -1197 -1587 -1648 -2393 -113 -201 -315 -612
-399 -812 -537 -1271 -744 -2600 -620 -3983 226 -2523 1586 -5106 3629 -6890
676 -590 1467 -1098 2165 -1390 63 -27 119 -52 124 -56 16 -14 -46 -385 -110
-658 -100 -424 -282 -968 -495 -1484 -39 -94 -77 -177 -83 -183 -6 -6 -58 -21
-116 -34 -512 -111 -1163 -355 -1670 -626 -991 -529 -1814 -1264 -2454 -2192
-43 -62 -83 -111 -90 -109 -6 3 -85 34 -176 70 -1586 627 -3351 669 -5165 122
-411 -124 -865 -292 -943 -348 -251 -179 -216 -578 61 -708 137 -64 226 -60
424 18 716 280 1513 477 2218 548 573 57 1137 47 1678 -31 1472 -210 2821
-935 4006 -2150 2148 -2202 3769 -5990 4825 -11274 712 -3560 1166 -7794 1361
-12695 23 -582 45 -1246 45 -1362 0 -95 -2 -104 -18 -99 -9 2 -123 30 -252 61
-3987 956 -8214 2274 -12169 3795 -284 109 -342 122 -440 101 -174 -37 -301
-171 -332 -349 -27 -154 59 -338 196 -417 70 -40 1196 -466 2085 -788 3234
-1172 6476 -2160 9843 -2999 l688 -172 -88 -45 c-343 -178 -565 -487 -640
-891 -27 -146 -24 -435 6 -605 42 -239 117 -465 232 -705 421 -873 1221 -1532
2091 -1724 214 -48 318 -59 558 -60 380 -2 563 32 1016 189 451 156 981 344
1929 685 1489 535 2380 845 3074 1069 1521 493 2535 749 3351 846 209 25 568
31 716 11 206 -27 307 -68 360 -147 38 -58 79 -179 101 -306 22 -123 24 -550
4 -718 -93 -786 -278 -1516 -821 -3235 -106 -334 -122 -394 -123 -455 -2 -214
154 -387 376 -419 53 -7 153 11 215 39 65 30 161 120 190 179 37 73 375 1154
536 1711 489 1699 596 2681 365 3352 -145 421 -379 644 -804 768 -657 191
-1767 45 -3520 -461 -1025 -297 -2079 -652 -4360 -1471 -544 -195 -1186 -424
-1425 -508 -853 -299 -813 -289 -1155 -290 -212 0 -253 3 -354 23 -543 110
-1058 475 -1406 997 -237 356 -360 738 -334 1036 18 198 102 321 250 363 49
14 11532 3023 11834 3101 72 18 407 106 745 195 825 217 1011 259 1325 295
169 20 418 19 552 -1 481 -71 780 -349 904 -841 53 -212 64 -317 64 -658 0
-349 -8 -443 -81 -960 -291 -2073 -741 -4265 -1320 -6423 -92 -342 -96 -360
-92 -442 7 -154 87 -279 222 -345 85 -42 166 -56 251 -44 127 20 256 113 309
223 43 88 357 1301 551 2124 374 1593 663 3109 885 4645 27 192 50 354 50 360
1 48 284 -512 379 -751 246 -613 426 -1346 515 -2102 56 -474 76 -834 76
-1390 0 -547 -20 -922 -76 -1434 -21 -192 -23 -237 -13 -285 28 -136 105 -238
227 -298 73 -37 80 -38 182 -38 102 0 109 1 182 38 121 59 203 165 227 293 5
27 21 162 35 299 213 2076 -30 4003 -690 5482 -238 536 -560 1027 -910 1393
l-91 95 -7 70 c-26 259 -127 603 -245 833 -281 546 -769 884 -1415 984 -185
28 -539 30 -756 4 -374 -44 -561 -86 -1514 -336 -253 -66 -467 -120 -477 -120
-10 0 -355 70 -766 156 -2875 597 -4176 851 -5678 1107 l-310 52 -28 140 c-45
230 -124 681 -171 990 -49 312 -116 788 -112 793 2 1 117 -25 257 -58 6709
-1602 13926 -3096 20884 -4325 2508 -443 6192 -1055 6349 -1055 286 0 481 299
376 575 -32 84 -141 193 -223 223 -35 14 -251 53 -560 102 -8861 1418 -17691
3169 -26377 5230 -327 78 -643 153 -702 166 l-107 26 -5 36 c-16 108 -116
1223 -110 1231 2 2 140 -29 306 -68 8750 -2082 17360 -3804 26133 -5226 1183
-192 1217 -197 1290 -192 111 7 178 38 261 121 95 95 118 152 118 291 0 139
-23 196 -118 291 -55 55 -85 76 -130 93 -38 14 -260 54 -615 111 -6612 1060
-13122 2288 -19676 3711 -2246 488 -4913 1095 -6895 1570 -478 115 -609 143
-667 143 -67 0 -73 2 -73 21 0 11 -11 191 -24 400 -37 575 -90 1554 -85 1560
10 9 2912 -509 10309 -1840 5475 -985 7218 -1298 8965 -1609 479 -85 1192
-212 1585 -283 833 -149 867 -152 980 -96 36 18 133 86 215 150 83 65 274 214
425 332 915 714 1697 1356 2915 2391 1075 913 1487 1256 2125 1765 607 486
879 694 949 728 124 61 211 176 234 314 30 173 -68 360 -227 434 -143 67
-2081 476 -3641 768 -1412 265 -2643 473 -5815 981 -1486 238 -1977 317 -2879
465 l-405 66 -100 73 c-471 342 -1040 562 -1631 632 -162 19 -541 22 -678 5
-84 -10 -104 -8 -440 44 -194 31 -766 114 -1272 186 -960 136 -1618 232 -1865
273 -145 23 -147 24 -270 93 -226 127 -509 277 -925 493 -839 435 -1206 634
-1560 848 -267 161 -535 339 -535 355 0 7 20 108 44 223 225 1067 373 2195
436 3314 44 780 42 1736 -5 2535 -57 958 -227 2314 -329 2620 -102 305 -295
562 -567 757 l-76 54 50 105 c203 431 328 866 383 1334 25 207 25 662 1 865
-87 730 -329 1390 -732 2000 -444 672 -1077 1243 -1748 1576 -53 27 -96 51
-95 55 2 3 80 63 173 134 669 504 1203 1096 1635 1815 45 74 136 245 203 380
313 625 508 1276 585 1948 l17 154 80 32 c266 108 488 252 699 456 196 189
337 383 457 625 290 590 289 1224 -2 1809 -252 505 -723 922 -1238 1097 -92
31 -101 36 -101 59 0 87 -23 390 -40 526 -80 651 -294 1303 -614 1869 -65 114
-260 415 -323 499 l-30 39 101 90 c539 485 999 1105 1281 1727 624 1375 601
2918 -64 4286 -357 732 -858 1356 -1521 1890 -586 473 -1353 878 -2064 1090
-566 169 -1157 266 -1856 304 -210 11 -818 11 -1050 -1z m4582 -9991 c288
-407 515 -906 638 -1403 90 -364 122 -654 119 -1085 -2 -255 1 -301 15 -340
27 -71 61 -122 115 -174 63 -58 134 -91 226 -106 180 -27 215 -34 284 -57 386
-125 722 -455 859 -845 45 -126 62 -231 62 -378 0 -202 -37 -353 -131 -543
-66 -132 -136 -233 -242 -343 -196 -205 -398 -322 -662 -381 -60 -13 -132 -35
-160 -47 -78 -36 -149 -107 -191 -190 -35 -72 -36 -75 -50 -277 -17 -255 -28
-349 -65 -569 -56 -336 -157 -691 -289 -1022 -59 -147 -233 -513 -262 -552
-14 -18 -24 -16 -260 57 -277 85 -318 94 -402 78 -158 -29 -275 -130 -326
-282 -18 -52 -21 -81 -18 -151 4 -75 9 -96 41 -161 64 -130 140 -183 355 -248
61 -18 112 -36 112 -39 0 -3 -39 -52 -88 -110 -395 -474 -880 -885 -1423
-1207 -75 -45 -164 -95 -198 -112 -61 -31 -62 -31 -144 -21 -141 18 -431 24
-592 11 -801 -65 -1508 -397 -2130 -1002 l-140 -136 -180 -11 c-661 -44 -1298
-251 -1872 -611 -690 -431 -1256 -1073 -1561 -1768 l-32 -73 -97 0 c-54 0
-233 5 -398 10 -1001 32 -1917 122 -2867 280 -130 22 -239 40 -241 40 -3 0 33
96 80 213 263 661 448 1285 548 1852 15 83 28 151 30 153 1 2 151 -28 331 -67
762 -162 1057 -205 1434 -205 297 0 506 32 734 111 901 312 1463 1351 1765
3263 16 102 28 187 26 189 -2 1 -48 -7 -102 -18 -180 -39 -286 -52 -488 -58
-453 -13 -832 68 -1230 262 -682 333 -1112 906 -1246 1660 -30 172 -37 475
-15 653 40 308 132 575 287 824 138 223 350 435 591 592 199 129 499 250 732
295 345 67 722 37 1003 -80 69 -29 79 -38 169 -142 468 -544 829 -1203 1079
-1969 56 -170 176 -627 190 -721 4 -26 11 -50 16 -52 4 -3 49 41 99 98 718
818 1153 1903 1199 2993 17 406 -17 814 -100 1209 -140 666 -427 1330 -802
1860 -32 44 -53 81 -48 83 5 2 74 -11 153 -27 404 -84 863 -144 1308 -171 333
-20 873 -11 1220 21 1086 98 2119 425 2965 938 99 60 183 110 187 110 4 1 40
-45 80 -101z m-2164 -11339 c218 -24 485 -91 699 -175 809 -318 1517 -984
1936 -1820 177 -354 286 -697 349 -1099 26 -167 36 -578 19 -761 -32 -333
-115 -662 -246 -969 -58 -136 -133 -285 -143 -285 -4 0 -61 11 -127 24 -265
54 -501 76 -826 76 -257 0 -422 -10 -659 -41 -127 -16 -430 -71 -526 -95 -19
-5 -37 24 -190 313 -92 175 -219 420 -282 545 -129 257 -166 304 -279 360 -62
30 -72 32 -231 39 -92 4 -192 11 -222 14 -641 75 -1234 473 -1528 1025 -151
283 -224 587 -224 930 0 336 68 629 212 909 46 89 62 109 193 238 449 441 936
693 1482 767 123 17 461 20 593 5z m-3228 -1187 c0 -4 -9 -50 -21 -102 -59
-271 -82 -605 -60 -860 61 -685 330 -1270 798 -1736 451 -449 1066 -747 1683
-816 l112 -12 35 -71 c20 -38 105 -202 190 -363 85 -161 153 -295 152 -296 -2
-2 -46 -29 -97 -60 -237 -143 -411 -313 -575 -561 -128 -194 -253 -501 -308
-757 -13 -60 -27 -108 -31 -108 -3 0 -23 28 -44 63 -427 708 -896 1358 -1388
1922 -166 190 -622 649 -791 796 -628 548 -1260 943 -1907 1193 -54 21 -98 41
-98 45 0 16 128 234 199 339 120 176 241 322 391 472 446 446 1002 755 1610
895 113 25 150 30 150 17z m-7525 -1947 c104 -32 736 -147 1150 -209 1010
-153 1944 -230 2960 -245 l470 -6 181 -62 c679 -232 1295 -606 1924 -1169 165
-148 514 -503 673 -685 652 -748 1235 -1626 1867 -2814 133 -251 490 -969 810
-1630 908 -1874 1415 -2770 2063 -3645 685 -923 1418 -1618 2324 -2203 453
-292 871 -526 1798 -1007 807 -419 1130 -595 1530 -838 197 -120 506 -327 661
-443 681 -510 1237 -1157 1575 -1830 176 -352 229 -548 229 -847 0 -263 -52
-480 -170 -711 -81 -159 -164 -274 -285 -396 -123 -123 -253 -217 -410 -295
-142 -70 -193 -88 -424 -145 -1194 -297 -2479 -378 -3729 -235 -1625 186
-3159 739 -4477 1615 -2325 1546 -3985 4057 -4479 6776 -40 217 -63 276 -141
354 -167 167 -430 163 -593 -9 -62 -65 -99 -140 -113 -226 -11 -67 0 -149 61
-451 246 -1228 717 -2435 1381 -3541 65 -109 161 -262 212 -341 l94 -143 36
-699 c21 -385 66 -1280 102 -1990 90 -1791 135 -2591 185 -3345 127 -1891 287
-3283 530 -4617 28 -153 52 -284 53 -292 2 -16 -170 -106 -348 -182 -391 -166
-1164 -426 -2105 -707 -356 -107 -959 -282 -970 -282 -3 0 -12 114 -18 253 -7
138 -24 450 -37 692 -532 9480 -2107 16323 -4708 20465 -714 1137 -1529 2089
-2402 2805 -303 249 -714 539 -1022 720 l-132 78 56 81 c734 1050 1825 1859
3057 2268 150 50 487 145 521 147 6 1 32 -6 60 -14z m12670 -2715 c544 -41
950 -181 1170 -405 153 -155 168 -203 260 -835 321 -2206 296 -4456 -75 -6650
-59 -349 -113 -620 -122 -620 -15 0 -287 261 -424 406 -509 542 -936 1117
-1393 1879 -381 636 -723 1291 -1381 2650 -133 275 -296 607 -361 737 l-119
238 -17 192 c-25 281 -25 868 0 1033 57 376 139 592 307 805 84 107 189 185
364 270 467 226 1179 345 1791 300z m6947 -11966 l196 -27 -110 -84 -111 -84
-96 92 c-53 51 -107 104 -121 117 l-25 24 35 -5 c19 -3 124 -18 232 -33z
m2454 -245 c869 -84 1684 -643 2083 -1429 191 -375 244 -727 152 -997 -109
-318 -450 -586 -896 -703 -286 -75 -363 -81 -1185 -90 -765 -8 -777 -8 -1025
-60 -55 -11 -126 -28 -158 -37 -32 -9 -60 -13 -63 -10 -3 3 6 56 20 119 40
182 51 290 50 508 0 221 -14 346 -61 545 -97 412 -389 983 -751 1469 -78 105
-81 111 -65 129 43 46 303 207 468 288 308 151 625 240 970 272 91 8 359 6
461 -4z m3146 -934 c222 -36 1103 -178 1958 -315 4150 -665 5763 -950 7787
-1376 501 -105 514 -108 514 -117 -1 -4 -126 -107 -278 -229 -436 -348 -981
-796 -1403 -1153 -85 -72 -423 -358 -750 -636 -1336 -1133 -2032 -1703 -3098
-2533 l-203 -158 -687 122 c-977 172 -3909 696 -5927 1059 -4444 799 -5314
956 -5310 959 2 2 106 19 232 37 528 77 1147 212 1408 307 61 22 126 42 145
45 33 4 136 -20 620 -146 221 -58 369 -81 513 -81 374 0 718 143 984 408 42
43 176 210 301 377 l224 300 272 5 c149 3 272 5 273 5 1 0 -28 -25 -65 -55
-103 -84 -481 -466 -540 -545 -70 -94 -96 -177 -90 -289 8 -157 92 -278 254
-363 346 -182 1126 -365 1564 -366 235 -1 313 25 546 182 220 147 463 353 728
617 162 161 355 375 407 450 92 135 90 330 -6 469 -70 103 -156 151 -330 185
-60 12 -231 48 -380 80 -148 32 -310 66 -360 76 -49 9 -96 20 -103 24 -9 4 13
26 65 65 43 33 117 97 164 142 l86 83 45 -19 c75 -32 289 -99 450 -141 471
-122 924 -177 1138 -136 138 26 307 121 549 310 308 240 760 683 928 909 126
171 105 409 -49 553 -67 63 -135 91 -301 124 -78 16 -266 56 -417 89 -465 101
-753 146 -1021 158 -169 7 -222 -2 -319 -54 -89 -48 -323 -204 -453 -302 -59
-44 -110 -81 -112 -81 -3 0 -5 10 -5 21 0 12 -11 78 -25 147 -46 226 -159 528
-280 747 -58 105 -58 105 -52 105 3 0 187 -29 409 -65z m-16881 -1011 c765
-816 1674 -1523 2683 -2086 117 -65 151 -89 126 -85 -19 3 -516 91 -1105 196
-588 104 -1254 222 -1480 262 -225 39 -413 74 -416 78 -4 3 -28 427 -53 941
-25 514 -48 953 -50 975 l-5 40 47 -51 c26 -27 140 -149 253 -270z m17933
-364 c147 -19 404 -65 413 -74 10 -10 -293 -261 -424 -350 l-72 -49 -153 17
c-143 16 -431 67 -480 85 -18 7 -5 20 111 113 197 158 377 278 417 278 18 0
103 -9 188 -20z m-5174 -1880 c-83 -71 -265 -135 -364 -128 -40 3 -39 4 56 41
102 41 316 115 333 116 5 1 -6 -12 -25 -29z m2921 -186 c125 -15 401 -63 409
-71 10 -9 -233 -213 -384 -322 -97 -70 -99 -71 -160 -71 -104 0 -576 77 -596
97 -12 12 211 188 399 315 129 87 93 82 332 52z m-15127 -7815 c1112 -187
2172 -385 3624 -679 1063 -214 1302 -264 1302 -270 0 -7 -9079 -2384 -9084
-2379 -2 2 -11 252 -20 554 -20 662 -43 1328 -51 1447 l-6 87 68 20 c37 11
257 74 488 141 1608 465 2603 803 3080 1046 99 50 193 92 209 93 15 0 191 -26
390 -60z"/>
<path d="M22910 49794 c-110 -23 -185 -67 -281 -163 -99 -100 -149 -173 -224
-326 -135 -277 -223 -653 -244 -1050 -29 -547 77 -1022 292 -1308 148 -195
339 -285 582 -274 131 7 202 25 312 78 474 233 721 1038 582 1892 -61 377
-193 697 -372 906 -176 205 -414 296 -647 245z"/>
<path d="M39730 20755 c-66 -19 -124 -51 -294 -163 -287 -188 -579 -426 -822
-667 -269 -268 -343 -370 -364 -501 -17 -106 19 -234 90 -324 111 -140 516
-294 1070 -409 300 -62 418 -76 645 -76 204 0 212 1 288 28 218 77 608 377
1002 772 236 235 395 418 432 495 77 162 45 348 -82 475 -64 64 -133 98 -245
120 -47 9 -239 50 -427 91 -552 119 -808 159 -1091 169 -115 4 -159 2 -202
-10z m390 -841 c128 -14 448 -69 457 -77 11 -11 -282 -255 -414 -344 l-82 -56
-83 7 c-157 13 -520 76 -556 95 -9 5 10 26 60 67 183 151 431 324 462 324 12
0 82 -7 156 -16z"/>
<path d="M42619 20174 c-113 -34 -486 -288 -759 -515 -243 -201 -537 -496
-637 -635 -123 -175 -82 -433 90 -563 240 -182 1078 -406 1597 -427 256 -11
373 23 595 172 238 159 458 346 741 629 256 256 396 417 438 505 29 61 31 73
31 175 0 105 -2 114 -33 178 -40 82 -112 156 -185 191 -35 18 -136 44 -288 76
-129 27 -340 72 -470 99 -530 113 -977 159 -1120 115z m438 -839 c117 -15 385
-61 412 -71 11 -3 8 -11 -10 -30 -43 -47 -252 -218 -357 -293 l-103 -74 -112
6 c-111 6 -327 39 -481 74 l-80 19 120 95 c148 118 175 138 298 221 115 78
115 78 313 53z"/>
<path d="M37380 18712 c-121 -41 -504 -303 -775 -532 -293 -246 -582 -547
-643 -669 -36 -72 -37 -79 -37 -180 0 -95 3 -112 28 -165 74 -159 201 -242
545 -356 382 -128 866 -224 1187 -236 295 -11 414 35 755 292 318 240 775 685
973 947 78 103 98 269 47 400 -28 75 -122 177 -194 212 -31 15 -123 40 -222
61 -93 19 -281 59 -419 89 -491 107 -741 144 -1010 151 -157 4 -187 2 -235
-14z m447 -837 c156 -20 406 -65 416 -75 15 -13 -280 -259 -426 -355 l-57 -38
-108 6 c-107 6 -326 40 -476 74 l-79 18 79 66 c97 81 287 222 373 278 75 48
93 50 278 26z"/>
<path d="M40204 18112 c-120 -42 -496 -296 -749 -507 -163 -135 -365 -328
-490 -465 -152 -166 -179 -204 -205 -289 -47 -151 -5 -309 113 -424 200 -195
1149 -449 1682 -451 245 -1 315 21 540 171 236 157 469 355 760 647 234 236
384 410 422 492 25 53 28 70 28 169 0 103 -2 114 -32 177 -18 39 -52 88 -80
115 -77 76 -132 100 -321 138 -92 19 -279 58 -417 88 -512 112 -820 157 -1075
157 -93 -1 -138 -5 -176 -18z m447 -837 c153 -20 402 -65 412 -75 14 -13 -258
-243 -408 -345 l-70 -48 -110 6 c-107 6 -302 37 -474 75 l-85 18 133 106 c73
59 189 145 259 192 144 99 139 98 343 71z"/>
<path d="M10700 62084 c-147 -39 -260 -156 -295 -305 -18 -79 -99 -1356 -93
-1479 3 -70 10 -98 36 -153 39 -84 110 -155 198 -198 117 -58 274 -51 390 17
92 54 175 173 195 277 15 83 91 1352 87 1457 -3 82 -8 104 -36 161 -86 178
-292 274 -482 223z"/>
<path d="M39891 6520 c-49 -11 -155 -59 -188 -87 -23 -19 -312 -455 -453 -683
-318 -514 -474 -1007 -546 -1730 -23 -229 -23 -668 0 -900 77 -777 317 -1487
694 -2055 101 -152 187 -246 330 -361 121 -98 182 -125 298 -132 115 -6 171
14 246 88 69 69 93 137 86 235 -9 111 -43 166 -174 284 -125 113 -255 267
-339 402 -220 355 -368 835 -430 1399 -22 198 -31 712 -16 921 14 184 42 405
72 548 53 258 159 583 254 776 77 155 281 483 427 687 96 132 108 154 123 220
19 82 14 137 -16 209 -25 58 -100 132 -161 159 -55 24 -145 33 -207 20z"/>
<path d="M71481 6520 c-104 -22 -205 -112 -231 -207 -8 -25 -11 -72 -8 -114 7
-90 24 -123 210 -404 253 -381 339 -536 444 -807 118 -301 178 -569 216 -958
20 -208 17 -812 -5 -1025 -55 -518 -162 -920 -338 -1265 -112 -220 -217 -358
-413 -543 -132 -124 -167 -175 -184 -269 -11 -57 2 -146 27 -197 29 -55 100
-116 160 -136 78 -26 214 -17 302 19 94 38 315 236 404 361 420 591 699 1410
765 2249 13 166 13 525 0 697 -48 625 -206 1209 -442 1634 -137 246 -545 862
-592 893 -90 61 -223 91 -315 72z"/>
<path d="M66016 6026 c-76 -32 -146 -101 -183 -180 l-28 -61 -7 -730 c-6 -697
-21 -1475 -34 -1877 l-7 -187 -130 192 c-407 603 -800 1109 -1667 2152 -459
552 -455 547 -613 596 -179 55 -351 -39 -419 -229 -20 -57 -20 -61 -14 -1969
6 -1863 7 -1914 26 -1976 25 -82 66 -138 132 -181 113 -74 233 -83 351 -28 84
39 130 82 164 150 l28 57 5 1452 5 1453 260 -327 c824 -1036 1223 -1585 1652
-2273 77 -124 161 -262 187 -307 65 -113 159 -183 284 -213 138 -32 296 48
370 187 37 70 44 144 67 653 39 873 55 1657 55 2706 l0 711 -30 61 c-60 119
-167 185 -310 190 -72 2 -94 -1 -144 -22z"/>
<path d="M46255 6014 c-16 -2 -72 -9 -124 -15 -113 -13 -292 -56 -416 -99
-111 -39 -308 -134 -395 -190 -406 -265 -825 -902 -1010 -1537 -73 -250 -95
-444 -87 -762 10 -400 81 -711 232 -1016 190 -385 463 -636 830 -765 154 -54
407 -131 480 -146 182 -39 387 -36 598 7 148 29 501 150 619 210 486 250 934
881 1164 1639 61 199 103 598 90 854 -29 571 -192 964 -538 1302 -249 244
-539 400 -889 478 -175 39 -414 56 -554 40z m316 -619 c236 -44 457 -154 617
-309 135 -130 217 -260 276 -437 153 -456 91 -1104 -154 -1626 -241 -513 -631
-852 -1068 -928 -204 -36 -464 -2 -648 85 -358 167 -572 473 -661 945 -24 129
-29 436 -9 594 68 528 326 1075 653 1381 92 86 164 135 288 195 104 50 192 82
285 100 92 19 320 18 421 0z"/>
<path d="M52537 5910 c-79 -20 -151 -69 -200 -139 -65 -90 -245 -542 -761
-1911 -146 -388 -287 -761 -314 -829 l-49 -124 -96 179 c-54 98 -233 447 -398
774 -850 1678 -932 1833 -1019 1920 -70 71 -134 102 -226 108 -160 10 -301
-73 -352 -209 -28 -78 -387 -3852 -372 -3917 26 -108 94 -192 199 -241 81 -38
192 -37 274 1 74 35 154 116 189 194 27 57 30 85 103 874 89 968 165 1815 165
1838 0 9 3 12 9 7 4 -6 292 -568 640 -1250 588 -1154 635 -1242 674 -1272 103
-77 205 -109 302 -93 124 20 229 94 272 190 52 117 205 508 308 785 416 1125
662 1771 671 1763 6 -7 97 -381 140 -576 107 -493 192 -1025 299 -1872 38
-305 47 -359 70 -405 31 -65 89 -118 164 -154 47 -22 70 -26 146 -26 80 0 97
3 157 32 111 52 172 134 192 259 16 91 -84 866 -180 1409 -125 707 -392 1842
-559 2380 -51 163 -107 236 -222 287 -54 24 -166 33 -226 18z"/>
<path d="M57819 5906 c-65 -17 -131 -59 -177 -112 -73 -82 -207 -417 -845
-2109 -253 -670 -290 -765 -298 -765 -13 0 -241 438 -656 1260 -776 1539 -817
1611 -960 1678 -50 23 -71 27 -153 27 -85 0 -101 -3 -154 -29 -81 -40 -138
-99 -165 -170 -18 -49 -47 -326 -202 -1954 -106 -1115 -178 -1917 -175 -1945
12 -111 87 -212 194 -264 48 -23 70 -27 142 -28 74 0 93 4 143 28 72 36 144
108 182 183 33 65 26 -4 185 1743 49 541 90 985 92 987 2 1 289 -558 638
-1243 597 -1171 638 -1247 679 -1279 99 -76 208 -110 305 -94 109 18 218 86
255 158 38 75 208 510 361 922 463 1246 617 1650 631 1650 7 0 92 -340 143
-575 106 -485 200 -1082 296 -1860 22 -181 47 -351 56 -377 17 -52 80 -129
133 -162 136 -86 320 -69 440 40 69 61 104 149 103 259 -2 174 -104 924 -198
1440 -141 780 -495 2231 -587 2411 -77 149 -246 224 -408 180z"/>
<path d="M42760 5894 c-344 -44 -963 -303 -1340 -562 -427 -293 -683 -649
-871 -1213 -86 -256 -116 -464 -106 -719 41 -980 602 -1715 1439 -1882 154
-30 456 -33 593 -4 370 77 707 298 982 643 207 259 253 345 253 465 0 116 -65
213 -178 266 -49 23 -70 27 -147 27 -166 0 -251 -48 -347 -196 -184 -286 -400
-485 -615 -567 -63 -24 -80 -26 -228 -27 -126 0 -175 4 -230 19 -331 89 -610
379 -739 770 -87 261 -104 610 -45 900 90 445 371 829 804 1101 181 114 475
242 753 329 176 55 214 35 351 -189 64 -103 109 -148 191 -190 144 -72 314
-51 417 52 60 60 77 104 81 208 4 90 3 91 -38 170 -76 145 -151 247 -260 356
-96 97 -116 111 -210 157 -58 28 -134 58 -170 67 -64 16 -271 27 -340 19z"/>
<path d="M61905 5875 c-5 -2 -287 -9 -625 -15 -764 -13 -963 -26 -1244 -81
-281 -55 -437 -112 -520 -189 -149 -137 -129 -356 40 -451 l54 -31 0 -1546 c0
-982 4 -1560 10 -1582 16 -59 65 -126 127 -174 64 -51 77 -56 248 -91 419 -86
971 -99 1455 -35 303 41 633 113 705 155 72 41 133 103 164 167 74 148 10 310
-152 384 -94 43 -202 41 -412 -8 -427 -99 -904 -130 -1335 -85 l-115 12 -3
531 -2 531 332 7 c530 11 1090 49 1208 82 118 34 209 104 249 194 28 62 28
155 0 215 -26 56 -97 127 -153 153 -87 41 -149 46 -363 28 -363 -31 -475 -36
-875 -43 l-398 -6 0 591 0 592 23 5 c35 8 283 33 392 40 55 3 377 10 715 15
665 9 659 9 773 67 133 67 211 233 163 347 -32 77 -133 158 -243 195 -56 19
-197 36 -218 26z"/>
<path d="M68230 5840 c-1192 -6 -1102 1 -1199 -86 -127 -114 -143 -281 -40
-398 52 -58 99 -89 178 -116 58 -19 84 -20 601 -20 l540 0 0 -1695 c0 -1217 3
-1709 11 -1747 26 -120 89 -202 195 -254 51 -25 70 -29 144 -29 65 1 99 7 144
24 81 32 156 107 187 186 l24 60 -4 1728 -4 1727 516 0 516 0 78 25 c322 101
351 425 51 573 l-65 32 -409 -2 c-225 -2 -884 -5 -1464 -8z"/>
</g>
</svg>
