<?xml version="1.0" standalone="no"?>
<!DOCTYPE svg PUBLIC "-//W3C//DTD SVG 20010904//EN"
 "http://www.w3.org/TR/2001/REC-SVG-20010904/DTD/svg10.dtd">
<svg version="1.0" xmlns="http://www.w3.org/2000/svg"
 width="1024.000000pt" height="1024.000000pt" viewBox="0 0 1024.000000 1024.000000"
 preserveAspectRatio="xMidYMid meet">

<g transform="translate(0.000000,1024.000000) scale(0.100000,-0.100000)"
fill="#000000" stroke="none">
<path d="M7443 9949 c-59 -11 -104 -34 -143 -72 -38 -36 -69 -100 -70 -138 0
-25 -3 -27 -63 -31 -79 -7 -120 -28 -154 -79 -37 -56 -41 -121 -11 -179 l23
-45 467 -3 c284 -1 476 2 492 8 19 7 29 22 40 62 18 62 11 105 -28 172 -34 58
-112 99 -181 95 -46 -3 -46 -3 -66 41 -33 74 -68 110 -133 140 -73 33 -116 41
-173 29z m145 -83 c60 -31 114 -108 127 -180 6 -28 12 -37 24 -33 112 33 107
33 150 4 51 -34 72 -66 78 -120 9 -78 14 -77 -320 -76 -161 1 -359 4 -442 8
l-150 6 -3 48 c-3 45 0 51 38 89 l41 41 74 -6 75 -7 0 47 c0 84 60 169 138
194 36 11 136 3 170 -15z"/>
<path d="M3206 9661 c-9 -14 4 -41 19 -41 18 0 28 32 13 42 -17 10 -26 10 -32
-1z"/>
<path d="M3097 9654 c-9 -10 4 -34 19 -34 8 0 14 9 14 20 0 19 -19 27 -33 14z"/>
<path d="M5245 9651 c-27 -5 -68 -11 -90 -14 -114 -17 -283 -72 -403 -130
-239 -118 -427 -293 -523 -490 -25 -50 -38 -66 -49 -61 -99 38 -313 56 -423
34 -182 -35 -370 -158 -481 -314 -79 -111 -118 -214 -131 -343 l-7 -71 -36 -7
c-57 -10 -174 -62 -244 -107 -137 -88 -260 -220 -346 -371 -107 -187 -153
-424 -133 -678 23 -284 146 -538 374 -776 185 -192 428 -324 710 -385 84 -18
136 -22 299 -22 l197 -1 6 -90 c4 -49 5 -329 3 -622 l-3 -532 -40 -36 -40 -36
-703 4 -704 5 -27 26 c-37 36 -92 36 -128 0 l-26 -26 -234 1 c-274 2 -403 -6
-403 -24 0 -21 148 -29 407 -22 l232 5 37 -29 c47 -37 96 -39 128 -4 l23 25
704 0 704 0 38 -25 37 -26 1 -407 c0 -397 5 -491 23 -495 22 -5 27 76 26 487
0 430 0 442 20 459 26 22 25 47 -1 81 -21 27 -21 27 -14 609 4 320 10 602 14
627 l6 45 556 1 557 1 6 -60 c3 -33 6 -306 6 -608 0 -544 0 -548 -21 -554 -23
-8 -41 -47 -32 -72 3 -10 17 -30 30 -44 l24 -26 -1 -576 0 -577 25 0 25 0 0
576 0 576 25 30 c14 16 25 39 25 51 0 12 -11 34 -25 49 l-25 27 1 268 c1 273
15 841 22 901 l4 34 591 1 590 2 6 -45 c3 -25 7 -436 9 -915 2 -478 4 -961 5
-1072 l2 -203 25 0 25 0 4 1073 c2 589 7 1093 11 1119 l7 46 231 4 232 4 125
38 c232 68 425 182 589 347 144 143 273 347 329 519 111 340 65 740 -120 1038
-103 165 -328 357 -468 399 -72 22 -76 26 -84 75 -10 59 -78 185 -136 250 -65
73 -168 142 -260 175 -85 30 -221 42 -283 25 -37 -10 -38 -10 -52 21 -87 204
-160 319 -280 445 -177 186 -403 311 -674 373 -96 22 -342 33 -426 20z m455
-116 c125 -32 255 -92 377 -174 117 -78 179 -135 272 -247 97 -116 194 -311
235 -467 21 -80 39 -251 34 -311 -7 -64 -2 -76 26 -76 48 0 59 29 58 157 0 65
-5 155 -12 201 -6 45 -8 87 -5 92 9 15 111 12 183 -5 193 -46 358 -191 388
-342 l6 -32 -89 6 c-110 7 -229 -15 -319 -59 -72 -35 -120 -79 -111 -102 9
-23 30 -20 99 15 85 43 140 59 234 66 105 8 194 -9 302 -55 150 -65 318 -195
411 -319 59 -79 128 -230 166 -364 47 -165 45 -425 -6 -621 -39 -157 -165
-363 -312 -516 -108 -112 -338 -261 -479 -310 -168 -59 -103 -57 -1938 -57
l-1685 0 -100 22 c-127 28 -362 141 -482 232 -155 118 -280 267 -358 427 -87
180 -110 264 -121 441 -7 106 14 304 42 403 56 197 189 393 340 502 124 89
209 129 292 138 40 4 78 13 85 18 7 6 51 12 97 14 84 3 84 3 45 15 -22 7 -61
15 -87 18 l-48 6 0 64 c0 221 195 476 432 563 122 45 304 46 424 1 49 -18 55
-24 49 -43 -12 -40 -28 -166 -22 -173 12 -12 48 43 113 177 95 193 142 261
263 380 192 190 362 272 711 343 14 3 106 4 205 2 158 -2 193 -6 285 -30z"/>
<path d="M5593 9483 c9 -2 25 -2 35 0 9 3 1 5 -18 5 -19 0 -27 -2 -17 -5z"/>
<path d="M5680 9470 c0 -4 42 -22 93 -40 50 -17 128 -52 172 -77 44 -25 109
-62 145 -82 42 -23 104 -75 177 -147 62 -62 113 -108 113 -104 0 4 -41 51 -92
105 -119 126 -237 206 -433 293 -91 41 -175 66 -175 52z"/>
<path d="M5255 9465 c-5 -2 -36 -6 -67 -10 -49 -5 -58 -10 -58 -26 0 -15 5
-19 18 -15 9 2 50 8 90 11 60 6 73 10 70 24 -3 15 -31 24 -53 16z"/>
<path d="M5376 9452 c-10 -16 8 -23 72 -29 51 -5 55 -4 42 10 -18 19 -105 33
-114 19z"/>
<path d="M5015 9413 c-48 -12 -175 -68 -230 -101 -76 -45 -197 -145 -260 -214
-75 -82 -174 -244 -175 -285 0 -26 21 -12 37 25 54 118 204 295 317 376 85 60
200 122 282 150 41 15 70 31 72 40 3 16 -6 18 -43 9z"/>
<path d="M5545 9410 c11 -5 34 -9 50 -9 26 0 27 2 10 9 -11 5 -33 9 -50 9 -26
0 -27 -2 -10 -9z"/>
<path d="M5630 9395 c0 -2 25 -12 56 -21 61 -18 232 -91 280 -120 96 -57 243
-165 303 -220 67 -62 128 -151 179 -259 28 -59 74 -236 72 -274 -1 -14 -2 -35
-1 -46 1 -17 3 -17 11 -5 5 8 7 31 5 50 -4 27 -3 30 4 15 8 -16 10 -12 10 22
1 24 -5 48 -14 56 -8 8 -12 17 -9 20 11 10 -26 115 -71 205 -89 177 -304 364
-580 505 -101 51 -245 94 -245 72z"/>
<path d="M6144 9062 c11 -12 24 -22 30 -22 5 0 24 -14 42 -31 18 -17 34 -26
38 -21 3 6 -18 26 -47 44 -77 51 -85 55 -63 30z"/>
<path d="M6272 8944 c1 -9 9 -19 16 -22 9 -3 13 2 10 14 -1 9 -9 19 -16 22 -9
3 -13 -2 -10 -14z"/>
<path d="M6316 8890 c3 -14 21 -59 39 -100 18 -41 45 -113 60 -160 27 -83 54
-145 55 -125 0 19 -38 140 -69 218 -35 89 -95 205 -85 167z"/>
<path d="M3760 8810 c-140 -38 -147 -41 -213 -94 -58 -48 -119 -128 -163 -215
-36 -73 -29 -71 23 5 145 215 233 269 483 299 58 8 107 14 110 14 3 1 -2 6
-10 11 -27 17 -123 9 -230 -20z"/>
<path d="M4028 8798 c12 -12 24 -19 28 -15 10 10 -16 37 -34 37 -13 0 -12 -4
6 -22z"/>
<path d="M5172 8769 c-269 -35 -489 -209 -574 -454 -16 -47 -22 -93 -25 -217
-5 -150 -6 -157 -27 -162 -41 -10 -111 -66 -143 -113 -60 -89 -63 -121 -63
-593 0 -462 2 -484 57 -577 36 -62 124 -138 187 -162 51 -19 82 -20 607 -24
305 -2 582 0 617 5 35 4 80 17 100 27 67 34 136 105 173 177 l34 68 3 450 c3
481 -1 538 -43 612 -29 49 -95 111 -129 120 -32 8 -36 26 -36 179 0 153 -20
242 -77 345 -40 72 -126 167 -190 211 -59 41 -184 89 -273 105 -83 15 -106 15
-198 3z m226 -103 c184 -49 323 -176 390 -354 21 -58 26 -89 30 -219 l4 -153
-65 0 -65 0 -7 131 c-7 123 -10 136 -42 201 -46 90 -114 157 -208 204 -99 49
-193 57 -305 26 -142 -39 -233 -110 -291 -227 -32 -65 -34 -75 -37 -197 l-4
-128 -71 0 -70 0 6 133 c4 72 13 154 21 180 41 131 149 265 269 336 124 73
314 101 445 67z m-48 -258 c84 -26 169 -103 208 -187 20 -44 26 -74 30 -167
l5 -114 -353 0 -352 1 7 112 c7 129 17 166 56 223 83 122 252 177 399 132z
m547 -569 c41 -13 96 -77 111 -128 8 -26 12 -174 12 -479 0 -415 -1 -444 -20
-494 -25 -67 -70 -122 -123 -151 -42 -22 -44 -22 -625 -25 l-584 -3 -52 24
c-62 28 -117 80 -148 140 -23 42 -23 47 -26 487 -2 288 0 458 7 480 12 39 70
113 104 132 36 20 114 23 727 25 392 2 596 -1 617 -8z"/>
<path d="M5182 7545 c-153 -48 -206 -221 -100 -327 l40 -40 -12 -92 c-7 -50
-10 -113 -9 -141 l4 -50 123 -3 122 -3 12 26 c8 19 8 51 0 133 -16 145 -16
147 13 160 29 13 75 101 75 142 0 88 -69 177 -153 198 -55 14 -61 14 -115 -3z"/>
<path d="M7160 8425 c0 -9 30 -65 35 -65 7 0 -16 60 -26 66 -5 3 -9 2 -9 -1z"/>
<path d="M3398 8391 c-5 -18 -8 -43 -8 -55 1 -19 2 -19 11 -3 6 9 9 34 7 55
l-3 37 -7 -34z"/>
<path d="M3341 8384 c0 -11 3 -14 6 -6 3 7 2 16 -1 19 -3 4 -6 -2 -5 -13z"/>
<path d="M3331 8324 c0 -11 3 -14 6 -6 3 7 2 16 -1 19 -3 4 -6 -2 -5 -13z"/>
<path d="M7360 8132 c0 -10 21 -32 32 -32 16 0 8 19 -12 30 -11 6 -20 7 -20 2z"/>
<path d="M7421 8096 c-8 -10 -7 -19 7 -37 10 -13 34 -50 53 -81 18 -32 39 -58
46 -58 14 0 18 16 5 22 -20 8 -102 137 -96 152 8 20 0 21 -15 2z"/>
<path d="M7530 8055 c0 -16 77 -101 85 -93 4 4 -13 29 -39 55 -25 26 -46 44
-46 38z"/>
<path d="M3008 8040 c-46 -14 -120 -74 -197 -161 -97 -110 -114 -137 -161
-263 -47 -122 -57 -200 -44 -322 l8 -79 7 126 c9 150 34 252 90 359 62 120
165 229 297 313 57 37 57 44 0 27z"/>
<path d="M3072 8025 c-24 -25 -30 -44 -8 -26 11 9 15 9 18 0 6 -18 28 -1 28
21 0 29 -13 31 -38 5z"/>
<path d="M7380 7997 c0 -2 15 -16 33 -33 l32 -29 -29 33 c-28 30 -36 37 -36
29z"/>
<path d="M2934 7896 c-64 -72 -134 -177 -171 -256 -24 -52 -48 -102 -53 -111
-5 -9 -12 -38 -16 -65 -6 -43 -5 -47 8 -36 8 7 18 32 21 56 11 78 140 318 215
399 14 15 22 27 16 27 -5 -1 -14 -7 -20 -14z"/>
<path d="M7724 7862 c9 -24 24 -55 35 -70 30 -43 88 -210 106 -307 20 -104 16
-287 -10 -444 -9 -52 -13 -96 -11 -98 10 -10 45 127 56 221 28 221 -8 432
-105 608 -68 122 -94 156 -71 90z"/>
<path d="M7560 7878 c0 -4 22 -54 49 -110 84 -177 117 -340 106 -523 -9 -149
-61 -336 -98 -350 -7 -3 -13 -14 -14 -23 -2 -19 -77 -148 -134 -229 -19 -26
-41 -61 -49 -76 -8 -16 -23 -33 -33 -39 -11 -5 -33 -26 -51 -46 -37 -43 -210
-158 -309 -207 -40 -19 -111 -45 -158 -57 -48 -13 -88 -27 -90 -33 -5 -14 61
-19 74 -6 6 6 18 11 27 11 37 0 235 96 340 165 84 55 175 144 228 222 23 33
45 63 50 65 18 7 202 363 202 390 0 11 7 32 15 49 23 43 35 214 24 328 -15
150 -45 236 -148 421 -17 30 -31 52 -31 48z"/>
<path d="M7645 7838 c50 -82 103 -193 125 -263 35 -113 39 -318 10 -480 -13
-70 -29 -132 -35 -139 -6 -6 -29 -49 -50 -96 -22 -47 -42 -87 -45 -90 -3 -3
-18 -30 -34 -60 -16 -30 -45 -73 -65 -96 -20 -23 -58 -70 -86 -105 -84 -108
-114 -136 -218 -205 -104 -69 -217 -126 -299 -150 -27 -8 -48 -19 -48 -25 0
-6 -8 -8 -18 -5 -11 4 -36 -1 -58 -11 -71 -31 -4 -27 108 7 122 36 197 70 293
132 89 57 121 87 246 228 105 120 148 180 187 265 13 28 27 57 33 65 5 8 14
26 20 40 6 14 23 50 37 80 15 29 32 79 38 110 7 30 13 46 14 35 1 -17 3 -17
11 5 6 14 13 93 16 175 9 236 -25 358 -149 548 -54 82 -77 106 -33 35z"/>
<path d="M7550 7717 c0 -2 11 -32 25 -67 14 -36 35 -115 46 -177 12 -62 25
-111 29 -108 25 16 -66 355 -94 355 -4 0 -6 -1 -6 -3z"/>
<path d="M2680 7328 c0 -45 2 -79 4 -77 8 10 14 159 5 159 -5 0 -9 -37 -9 -82z"/>
<path d="M7638 7259 c-3 -98 5 -127 16 -52 9 67 7 143 -3 143 -5 0 -11 -41
-13 -91z"/>
<path d="M7615 7100 c-8 -26 4 -48 16 -29 12 19 11 49 0 49 -5 0 -12 -9 -16
-20z"/>
<path d="M7906 6953 c-31 -124 -50 -164 -42 -89 9 70 -3 50 -14 -24 -15 -109
-92 -232 -235 -378 -61 -62 -109 -115 -106 -117 2 -3 -4 -15 -14 -27 -10 -13
36 31 102 97 168 168 289 359 317 502 36 176 32 192 -8 36z"/>
<path d="M7809 6974 c-4 -65 -12 -96 -41 -155 -72 -153 -195 -330 -304 -437
-18 -18 -39 -41 -46 -51 -25 -35 -185 -144 -276 -189 -51 -24 -95 -49 -98 -53
-17 -28 94 12 143 51 14 11 34 20 43 20 23 0 186 134 224 185 16 21 65 75 108
119 84 86 170 218 225 345 40 92 44 112 35 186 l-8 60 -5 -81z"/>
<path d="M7585 7010 c-35 -68 -218 -355 -234 -367 -9 -6 -13 -14 -9 -18 7 -7
108 95 108 110 0 6 16 35 36 64 20 30 50 84 66 120 17 36 37 74 45 83 8 9 13
23 11 30 -3 7 -12 -2 -23 -22z"/>
<path d="M2610 7022 c0 -4 9 -41 21 -82 25 -90 74 -204 122 -284 40 -65 270
-311 343 -366 100 -75 309 -189 322 -176 9 10 -7 21 -107 71 -134 68 -230 145
-386 308 -134 139 -139 145 -200 272 -34 72 -72 160 -85 198 -19 60 -30 81
-30 59z"/>
<path d="M2687 7005 c10 -45 86 -204 148 -309 40 -69 83 -122 158 -198 89 -90
268 -237 290 -238 4 0 7 6 7 14 0 8 -37 39 -82 69 -170 113 -362 349 -475 581
-29 61 -50 98 -46 81z"/>
<path d="M2819 6897 c52 -136 226 -349 403 -491 53 -42 192 -113 186 -94 -4
12 -125 78 -131 71 -3 -2 -20 14 -40 36 -19 22 -38 37 -40 34 -3 -2 -21 13
-40 34 -19 21 -73 80 -121 132 -47 52 -83 98 -80 102 3 5 1 9 -5 9 -6 0 -36
39 -67 88 -67 102 -79 117 -65 79z"/>
<path d="M3061 6690 c55 -68 145 -159 183 -185 16 -11 42 -31 58 -44 16 -13
32 -21 35 -17 8 8 -7 24 -51 50 -70 43 -146 107 -174 148 -17 24 -45 57 -63
73 -26 24 -24 20 12 -25z"/>
<path d="M2669 6662 c32 -64 118 -182 185 -257 60 -67 212 -193 221 -183 2 2
-39 42 -92 89 -119 105 -233 233 -284 322 -43 72 -62 91 -30 29z"/>
<path d="M7227 6572 c-23 -21 -68 -54 -99 -73 -32 -18 -58 -37 -58 -40 0 -13
46 5 79 31 49 38 137 120 128 120 -4 0 -26 -17 -50 -38z"/>
<path d="M7276 6521 c-48 -44 -97 -83 -109 -87 -12 -4 -36 -17 -53 -30 -17
-13 -35 -24 -39 -24 -5 0 -16 -7 -25 -15 -15 -14 -109 -52 -190 -78 -24 -7
-29 -12 -17 -15 30 -7 149 38 252 96 74 41 123 79 190 144 50 48 87 88 84 88
-3 0 -45 -36 -93 -79z"/>
<path d="M7023 6438 c-18 -6 -33 -17 -33 -24 0 -15 19 -18 35 -6 11 8 40 43
34 41 -2 -1 -19 -6 -36 -11z"/>
<path d="M3376 6415 c-3 -10 1 -18 12 -21 9 -3 41 -16 71 -30 29 -14 56 -23
59 -20 3 3 -20 17 -51 31 -30 14 -58 32 -61 40 -7 19 -22 19 -30 0z"/>
<path d="M6890 6370 c-20 -15 -21 -20 -8 -20 9 0 20 5 23 10 3 6 17 10 31 10
13 0 24 5 24 10 0 17 -44 11 -70 -10z"/>
<path d="M3562 6318 c5 -15 68 -24 68 -10 0 12 -24 22 -52 22 -11 0 -18 -5
-16 -12z"/>
<path d="M3440 6288 c0 -20 21 -38 43 -38 32 0 18 44 -15 48 -19 2 -28 -1 -28
-10z"/>
<path d="M3660 6290 c0 -5 9 -10 20 -10 11 0 20 5 20 10 0 6 -9 10 -20 10 -11
0 -20 -4 -20 -10z"/>
<path d="M3760 6275 c0 -8 9 -19 20 -25 16 -9 22 -8 26 4 3 8 3 20 -1 26 -9
15 -45 12 -45 -5z"/>
<path d="M6760 6269 l-35 -20 39 5 c44 6 54 12 40 25 -5 6 -23 2 -44 -10z"/>
<path d="M3317 6263 c-4 -3 -7 -10 -7 -14 0 -11 69 -41 80 -34 14 9 1 31 -26
44 -29 13 -38 14 -47 4z"/>
<path d="M3560 6235 c0 -16 27 -20 48 -6 11 7 10 10 -3 15 -28 10 -45 7 -45
-9z"/>
<path d="M6613 6243 c-13 -2 -23 -9 -23 -14 0 -10 58 -3 95 12 15 6 12 8 -15
7 -19 0 -45 -3 -57 -5z"/>
<path d="M3658 6223 c7 -3 16 -2 19 1 4 3 -2 6 -13 5 -11 0 -14 -3 -6 -6z"/>
<path d="M6500 6215 c0 -9 9 -15 25 -15 16 0 25 6 25 15 0 9 -9 15 -25 15 -16
0 -25 -6 -25 -15z"/>
<path d="M3430 6202 c0 -13 76 -42 168 -62 78 -18 73 -7 -10 21 -40 13 -75 27
-78 31 -9 11 -80 21 -80 10z"/>
<path d="M3757 6194 c-11 -12 3 -24 29 -24 16 0 24 5 22 13 -5 13 -40 22 -51
11z"/>
<path d="M3882 6183 c-18 -7 -4 -23 19 -23 12 0 19 5 17 12 -5 14 -18 18 -36
11z"/>
<path d="M6708 6183 c-34 -5 -37 -23 -4 -23 31 0 56 10 56 21 0 9 -4 9 -52 2z"/>
<path d="M6560 6150 c-37 -16 -40 -19 -19 -19 14 -1 29 2 32 6 4 4 24 7 44 7
20 1 38 7 40 14 7 18 -43 14 -97 -8z"/>
<path d="M3445 6110 c-6 -9 33 -30 56 -30 19 0 8 21 -17 30 -31 12 -31 12 -39
0z"/>
<path d="M3700 6105 c7 -9 27 -14 49 -14 30 2 31 3 9 6 -16 2 -28 9 -28 14 0
5 -10 9 -21 9 -18 0 -19 -2 -9 -15z"/>
<path d="M6443 6106 c-41 -13 -43 -26 -4 -26 18 0 31 6 35 16 8 21 7 22 -31
10z"/>
<path d="M3865 6090 c-16 -7 -13 -9 18 -9 20 -1 37 4 37 9 0 12 -27 12 -55 0z"/>
<path d="M6720 6080 c0 -5 7 -10 15 -10 8 0 15 5 15 10 0 6 -7 10 -15 10 -8 0
-15 -4 -15 -10z"/>
<path d="M3540 6070 c8 -5 26 -9 40 -9 l25 1 -25 8 c-14 4 -32 8 -40 9 -13 1
-13 0 0 -9z"/>
<path d="M6610 6070 c0 -5 11 -10 25 -10 14 0 25 5 25 10 0 6 -11 10 -25 10
-14 0 -25 -4 -25 -10z"/>
<path d="M6950 6070 c-12 -8 -12 -10 5 -10 11 0 27 5 35 10 12 8 12 10 -5 10
-11 0 -27 -5 -35 -10z"/>
<path d="M3628 6053 c6 -2 18 -2 25 0 6 3 1 5 -13 5 -14 0 -19 -2 -12 -5z"/>
<path d="M1913 9616 c-96 -31 -144 -84 -159 -173 -6 -37 -7 -38 -51 -40 -66
-3 -106 -19 -146 -58 -40 -39 -63 -114 -52 -172 6 -33 5 -35 -14 -30 -13 3
-21 0 -21 -8 0 -8 19 -15 53 -18 43 -5 910 -13 943 -8 12 1 34 87 34 132 0 64
-58 151 -122 185 -15 8 -49 14 -76 14 -45 0 -49 2 -64 34 -24 50 -76 104 -120
127 -50 26 -150 33 -205 15z m167 -68 c61 -31 110 -98 110 -150 l0 -40 35 6
c19 3 50 9 68 12 73 13 152 -91 131 -173 l-9 -38 -230 -3 c-126 -2 -317 0
-423 3 l-192 7 -6 25 c-9 36 28 108 68 134 27 17 45 20 101 16 l67 -4 0 46 c0
53 42 130 81 152 66 35 139 37 199 7z"/>
<path d="M3427 9584 c-16 -16 -6 -35 16 -32 12 2 22 10 22 18 0 16 -26 25 -38
14z"/>
<path d="M3532 9573 c2 -10 10 -18 18 -18 8 0 16 8 18 18 2 12 -3 17 -18 17
-15 0 -20 -5 -18 -17z"/>
<path d="M8430 8991 c0 -26 17 -36 36 -21 11 10 12 16 3 26 -17 20 -39 17 -39
-5z"/>
<path d="M8670 8985 c0 -27 6 -30 29 -16 17 11 7 41 -14 41 -9 0 -15 -9 -15
-25z"/>
<path d="M8560 8980 c0 -22 1 -23 24 -14 23 9 20 34 -4 34 -13 0 -20 -7 -20
-20z"/>
<path d="M8780 8985 c0 -8 9 -15 20 -15 11 0 20 7 20 15 0 8 -9 15 -20 15 -11
0 -20 -7 -20 -15z"/>
<path d="M9220 8655 c0 -18 24 -30 40 -20 8 5 8 11 -1 21 -15 19 -39 18 -39
-1z"/>
<path d="M9430 8650 c0 -11 7 -20 15 -20 8 0 15 9 15 20 0 11 -7 20 -15 20 -8
0 -15 -9 -15 -20z"/>
<path d="M9130 8650 c0 -5 9 -10 20 -10 11 0 20 5 20 10 0 6 -9 10 -20 10 -11
0 -20 -4 -20 -10z"/>
<path d="M9320 8645 c0 -16 9 -19 34 -9 25 9 19 24 -9 24 -16 0 -25 -6 -25
-15z"/>
<path d="M8652 7658 c-20 -20 -14 -47 12 -54 14 -3 30 -3 35 1 13 8 15 55 2
55 -5 0 -15 2 -23 5 -7 3 -19 0 -26 -7z"/>
<path d="M8910 7646 c0 -30 14 -40 46 -32 17 5 24 13 24 31 0 22 -4 25 -35 25
-30 0 -35 -3 -35 -24z"/>
<path d="M9040 7645 c0 -20 5 -25 25 -25 30 0 34 25 6 40 -28 14 -31 13 -31
-15z"/>
<path d="M8506 7651 c-9 -14 5 -41 21 -41 23 0 53 20 53 35 0 17 -65 22 -74 6z"/>
<path d="M8782 7638 c2 -17 10 -23 28 -23 18 0 26 6 28 23 3 19 -1 22 -28 22
-27 0 -31 -3 -28 -22z"/>
<path d="M1185 7520 c-75 -29 -124 -75 -157 -147 -15 -34 -28 -69 -28 -77 0
-11 -8 -13 -34 -9 -81 13 -186 -53 -227 -142 -38 -82 -11 -210 49 -234 51 -20
1022 -2 1064 20 32 17 58 83 58 146 0 137 -92 229 -225 226 l-50 -1 -19 44
c-25 62 -97 138 -158 168 -44 22 -65 26 -137 25 -60 0 -101 -6 -136 -19z m229
-69 c24 -10 61 -38 84 -62 42 -43 55 -71 67 -143 6 -35 8 -38 33 -32 64 16
123 18 152 6 48 -20 90 -89 90 -148 0 -82 2 -81 -296 -92 -377 -14 -727 -13
-742 2 -17 17 -15 102 5 143 25 52 87 90 148 90 28 0 62 -3 78 -8 26 -7 27 -6
27 35 0 50 25 109 65 156 65 78 184 100 289 53z"/>
<path d="M8870 6640 c-73 -16 -145 -72 -180 -143 -16 -33 -30 -68 -30 -79 0
-15 -8 -18 -47 -18 -71 0 -120 -17 -164 -57 -80 -73 -107 -182 -65 -266 34
-69 16 -67 598 -67 288 0 528 4 534 8 23 15 54 88 54 128 0 140 -107 255 -243
260 l-59 3 -27 58 c-63 132 -218 204 -371 173z m216 -105 c59 -37 110 -109
120 -170 3 -25 9 -47 13 -50 4 -2 31 3 59 11 66 20 103 9 160 -47 48 -48 72
-124 53 -171 l-11 -28 -382 -2 c-568 -3 -619 -1 -642 25 -27 32 -18 114 18
161 41 55 79 71 166 71 l75 0 6 45 c6 54 27 96 66 131 53 50 82 59 169 57 70
-3 87 -7 130 -33z"/>
<path d="M8556 5113 c-63 -22 -101 -62 -122 -127 l-17 -54 -58 -4 c-65 -5
-112 -32 -148 -84 -37 -54 -41 -164 -7 -164 8 0 17 -6 19 -12 3 -7 6 6 6 29 2
109 67 173 174 173 54 0 57 1 63 28 15 72 43 108 114 151 96 57 272 -21 301
-134 17 -69 15 -67 48 -50 55 28 89 20 142 -34 47 -46 49 -51 49 -102 0 -103
13 -96 -190 -101 -98 -2 -182 -6 -186 -10 -3 -4 -4 -14 0 -23 5 -15 38 -16
298 -14 161 1 303 4 316 6 13 3 22 13 22 25 0 18 -7 19 -77 18 -146 -3 -191 0
-165 10 54 22 65 135 22 206 -32 51 -104 94 -160 94 -43 0 -48 2 -68 39 -28
50 -83 98 -141 124 -62 27 -171 32 -235 10z"/>
<path d="M7690 4683 c-32 -12 -50 -37 -50 -69 0 -26 8 -40 40 -67 l40 -34 0
-636 -1 -635 -25 -6 c-34 -9 -32 -54 3 -96 l27 -32 -32 -27 c-30 -24 -31 -29
-22 -60 12 -43 37 -81 53 -81 20 0 65 51 72 81 5 21 0 34 -24 61 l-30 35 29
22 c34 24 37 46 14 80 -15 21 -16 87 -15 669 l2 647 27 25 27 26 227 -6 c125
-3 283 -3 350 0 l123 6 38 -33 c46 -41 63 -41 110 -2 44 36 46 54 10 98 -39
46 -85 46 -126 1 l-29 -33 -137 5 c-75 3 -233 3 -351 -1 l-215 -6 -30 33 c-30
32 -75 47 -105 35z"/>
<path d="M2445 4506 c-20 -14 -20 -24 -17 -953 l2 -939 -30 -23 c-62 -45 -58
-101 10 -136 18 -9 30 -23 30 -35 0 -11 5 -20 10 -20 6 0 10 11 10 24 0 15 12
33 35 50 45 34 47 74 8 108 l-28 23 3 290 c1 160 -1 591 -5 958 -8 665 -8 668
-28 653z"/>
<path d="M6942 3878 c5 -15 37 -18 41 -3 1 6 -9 12 -22 13 -16 3 -22 -1 -19
-10z"/>
<path d="M7060 3874 c0 -11 5 -14 16 -10 9 3 20 6 25 6 5 0 9 5 9 10 0 6 -11
10 -25 10 -16 0 -25 -6 -25 -16z"/>
<path d="M8727 3884 c-10 -11 3 -24 24 -24 10 0 19 7 19 15 0 15 -31 21 -43 9z"/>
<path d="M8822 3873 c2 -12 12 -18 28 -18 36 0 33 29 -3 33 -23 3 -28 0 -25
-15z"/>
<path d="M8930 3875 c0 -12 7 -15 25 -13 14 2 26 8 26 13 0 6 -12 11 -26 13
-18 2 -25 -1 -25 -13z"/>
<path d="M9032 3878 c3 -7 19 -14 37 -16 24 -3 32 0 29 10 -3 7 -19 14 -37 16
-24 3 -32 0 -29 -10z"/>
<path d="M9147 3884 c-14 -14 -6 -24 19 -24 16 0 24 5 22 13 -5 14 -31 21 -41
11z"/>
<path d="M1106 3664 c-4 -10 0 -24 8 -33 20 -20 69 0 64 27 -5 24 -63 29 -72
6z"/>
<path d="M1242 3653 c3 -25 7 -28 38 -28 31 0 35 3 35 25 0 22 -5 25 -38 28
-37 3 -38 2 -35 -25z"/>
<path d="M1382 3653 c2 -22 9 -29 29 -31 30 -3 52 18 43 42 -4 10 -18 16 -41
16 -32 0 -34 -2 -31 -27z"/>
<path d="M1515 3660 c-9 -29 6 -42 41 -38 23 2 29 8 29 28 0 21 -5 26 -32 28
-25 3 -33 -1 -38 -18z"/>
<path d="M1654 3665 c-9 -22 4 -35 37 -35 24 0 29 4 29 25 0 21 -5 25 -30 25
-18 0 -33 -6 -36 -15z"/>
<path d="M1810 3656 c0 -9 30 -14 35 -6 4 6 -3 10 -14 10 -12 0 -21 -2 -21 -4z"/>
<path d="M3480 3261 c-19 -10 -47 -34 -63 -54 l-29 -35 -4 -729 c-3 -400 -1
-877 3 -1060 9 -374 5 -358 94 -418 l44 -30 541 0 542 0 -6 -34 c-3 -19 -19
-91 -37 -160 l-31 -126 -115 -5 c-63 -3 -120 -9 -126 -13 -7 -5 -13 -24 -13
-43 0 -19 -6 -37 -12 -39 -7 -3 -171 -6 -364 -7 l-352 -3 39 42 c32 35 39 50
39 83 l0 40 -235 0 -235 0 0 717 0 716 -39 37 -39 37 -270 6 c-149 3 -447 3
-662 0 -376 -6 -393 -7 -422 -27 -17 -12 -39 -37 -49 -56 -18 -33 -19 -73 -19
-732 l0 -698 -172 -2 -173 -3 -3 -24 c-5 -34 5 -66 32 -98 l24 -28 -352 3
c-193 1 -379 0 -413 -4 -61 -5 -63 -6 -63 -34 0 -28 1 -28 73 -35 39 -3 135
-5 212 -3 77 2 1304 2 2727 0 2369 -2 2590 -4 2625 -19 30 -13 85 -17 261 -21
221 -5 223 -4 229 17 l5 21 1497 3 c823 1 1563 2 1644 2 146 0 148 0 154 23 3
13 0 29 -6 35 -9 9 -165 12 -614 11 -331 0 -615 -4 -630 -7 l-28 -8 28 43 28
42 0 1080 c0 1210 6 1114 -74 1171 l-43 30 -861 2 c-974 1 -919 5 -972 -75
l-27 -40 -3 -1087 -2 -1087 29 -34 30 -34 -75 0 c-75 0 -75 0 -82 30 -13 61
-97 116 -206 135 -97 17 -256 -45 -311 -122 l-31 -43 -172 0 -172 0 -12 40
c-17 59 -54 74 -152 66 l-77 -6 -11 33 c-6 18 -24 93 -40 166 l-28 133 311 -6
c171 -4 397 -3 503 1 l191 8 39 31 c21 16 48 50 60 74 l23 44 -1 1024 c0 663
-4 1033 -10 1050 -13 33 -55 79 -91 98 -23 12 -251 14 -1495 14 -1411 0 -1470
-1 -1503 -19z m2970 -56 c16 -8 35 -25 42 -38 10 -17 13 -206 13 -907 l0 -885
-1500 -3 c-825 -1 -1510 0 -1522 3 l-23 5 0 888 0 889 26 24 26 24 381 5 c210
3 865 6 1455 8 944 2 1076 0 1102 -13z m2171 -421 c16 -8 33 -23 39 -33 7 -13
10 -375 10 -1088 l0 -1069 -40 -39 -41 -40 -392 -5 c-216 -3 -393 -4 -395 -3
-2 1 4 13 13 27 24 36 23 90 -1 117 l-19 22 90 -6 c50 -4 229 -8 398 -9 260
-2 310 0 318 12 11 18 8 1959 -4 1977 -5 8 -217 11 -845 10 l-837 -2 -1 -970
c0 -533 2 -981 6 -995 l6 -25 400 0 399 0 -22 -22 c-42 -41 -26 -96 37 -122
18 -8 -99 -10 -398 -8 l-422 3 -41 40 -40 40 -1 1050 c-1 1146 -3 1115 55
1139 24 10 208 13 865 13 712 1 839 -1 863 -14z m-81 -1084 c0 -498 3 -921 6
-940 l6 -36 -786 -1 -786 -1 0 937 c0 516 2 940 4 942 2 2 353 4 780 4 l776 0
0 -905z m-5474 397 l26 -23 -1 -695 c-1 -417 -6 -698 -11 -703 -6 -6 -108 -11
-227 -12 -491 -5 -578 -7 -528 -14 l50 -7 -57 -1 c-36 -1 -58 2 -60 10 -3 9
-57 11 -204 9 -110 -1 -228 1 -262 5 l-62 7 0 689 c0 679 0 690 20 719 l21 28
137 4 c75 1 361 4 634 5 l497 2 27 -23z m3439 -887 c8 -115 -4 -153 -58 -185
-31 -20 -61 -20 -1467 -19 -1378 0 -1436 1 -1463 19 -46 30 -57 63 -57 173 0
54 3 101 6 105 3 3 687 6 1519 5 l1513 0 7 -98z m-1179 -286 l50 -6 29 -137
c15 -75 30 -145 32 -156 4 -20 0 -20 -409 -17 -227 2 -414 5 -416 7 -4 3 30
141 60 243 l21 72 291 0 c160 0 314 -3 342 -6z m2448 -300 c9 -23 7 -64 -2
-64 -15 0 -32 24 -32 45 0 35 23 48 34 19z m-5553 -48 c26 -22 41 -24 182 -31
191 -9 252 -2 274 31 l15 24 427 0 426 -1 -42 -39 -42 -40 -363 -2 c-200 -1
-642 -2 -983 -1 l-620 2 -49 43 -48 43 398 -3 397 -3 28 -23z m4296 3 c37 -18
83 -64 83 -83 0 -3 -90 -6 -200 -6 -110 0 -200 4 -200 8 0 18 28 43 80 72 70
38 169 42 237 9z m-837 -56 l0 -26 -187 6 c-104 4 -401 7 -660 7 -466 0 -473
0 -473 20 0 20 7 20 660 20 l660 0 0 -27z"/>
<path d="M4926 3143 c-1088 -2 -1382 -6 -1388 -16 -4 -6 -8 -391 -8 -855 l0
-842 1448 2 1447 3 3 844 c1 465 -2 849 -7 854 -13 13 -41 13 -1495 10z m1444
-853 l0 -798 -839 -7 c-462 -4 -1088 -4 -1390 0 l-551 7 0 799 0 798 1390 -1
1390 -1 0 -797z"/>
<path d="M4862 2895 c-109 -43 -174 -99 -212 -187 -12 -25 -15 -26 -94 -25
-72 2 -86 -1 -127 -25 -64 -38 -104 -87 -118 -146 -11 -45 -16 -50 -51 -61
-57 -17 -134 -92 -171 -166 -57 -117 -50 -298 17 -412 39 -68 120 -140 201
-180 l74 -37 487 -2 c268 -2 510 -6 537 -9 61 -7 188 23 250 59 61 36 163 150
196 220 56 118 64 261 20 363 -27 61 -119 154 -173 173 -29 11 -38 21 -48 54
-21 73 -90 123 -177 130 -45 4 -46 5 -74 62 -39 82 -115 157 -187 185 -44 18
-82 23 -172 26 -103 3 -121 1 -178 -22z m296 -38 c123 -43 185 -128 225 -307
16 -71 37 -73 52 -5 10 48 12 50 40 46 85 -10 185 -111 110 -111 -31 0 -72
-19 -79 -36 -4 -11 7 -14 47 -14 162 0 256 -94 279 -278 12 -98 -2 -164 -51
-240 -101 -156 -255 -234 -421 -213 -36 5 -249 8 -475 7 -225 -2 -432 2 -460
7 -115 21 -225 109 -282 225 -25 50 -28 68 -28 152 0 52 6 113 13 136 16 56
61 120 103 148 56 38 74 40 116 12 21 -14 41 -26 45 -26 14 0 8 24 -12 50 -31
40 -27 101 10 142 17 18 30 36 30 40 0 12 52 35 97 43 60 10 83 0 83 -35 0
-15 8 -38 18 -50 18 -22 18 -22 47 61 41 122 88 182 175 229 74 40 228 48 318
17z"/>
<path d="M5102 2835 c118 -30 164 -69 226 -190 17 -33 31 -56 32 -52 0 5 -19
45 -41 88 -59 114 -109 149 -229 164 -41 5 -40 4 12 -10z"/>
<path d="M4899 2821 c-70 -27 -113 -65 -148 -130 -43 -81 -39 -101 5 -24 46
81 91 119 164 140 33 10 60 21 60 26 0 12 -32 7 -81 -12z"/>
<path d="M4926 2645 c-85 -30 -146 -105 -146 -180 0 -62 -9 -82 -38 -89 -15
-3 -40 -16 -57 -30 l-30 -24 -3 -189 c-3 -183 -3 -189 20 -223 40 -59 48 -61
315 -58 l243 3 27 28 28 27 3 206 3 206 -45 44 c-37 35 -46 50 -46 77 0 54
-28 131 -57 159 -57 55 -139 71 -217 43z m144 -74 c42 -21 60 -54 67 -125 l5
-53 -147 -6 c-81 -4 -152 -4 -156 -1 -10 6 -3 70 12 120 12 39 36 62 86 80 43
16 82 12 133 -15z m127 -255 c11 -4 24 -13 26 -20 12 -31 10 -351 -2 -374 -12
-22 -14 -22 -241 -22 l-229 0 -20 26 c-19 25 -21 40 -21 194 0 146 2 169 18
182 9 9 23 17 30 19 22 7 416 3 439 -5z"/>
<path d="M4945 2270 c-32 -12 -55 -44 -62 -83 -4 -30 -1 -40 21 -60 22 -21 26
-33 26 -80 0 -51 2 -57 24 -63 13 -3 37 -4 52 -2 28 3 29 4 29 65 1 44 6 67
18 81 9 10 17 34 17 53 0 58 -73 110 -125 89z"/>
<path d="M4495 2596 c-55 -25 -82 -65 -87 -131 -5 -50 -4 -54 4 -25 23 88 79
150 135 150 14 0 21 4 18 10 -8 14 -34 12 -70 -4z"/>
<path d="M5660 2361 c0 -5 5 -13 10 -16 6 -3 10 -2 10 4 0 5 -4 13 -10 16 -5
3 -10 2 -10 -4z"/>
<path d="M4251 2334 c-17 -14 -45 -56 -63 -92 -31 -62 -33 -74 -33 -167 0 -89
3 -105 27 -150 14 -27 44 -67 65 -87 40 -39 163 -108 191 -108 9 0 -5 11 -33
24 -182 89 -270 230 -235 379 25 105 83 207 117 207 7 0 13 5 13 10 0 17 -17
11 -49 -16z"/>
<path d="M5755 2192 c-1 -48 -6 -102 -13 -120 -6 -18 -7 -30 -2 -27 15 10 12
-1 -19 -63 -41 -80 -105 -158 -157 -188 -62 -37 -55 -42 9 -7 35 21 70 53 109
104 76 97 93 148 90 268 -3 121 -17 147 -17 33z m12 -94 c-3 -8 -6 -5 -6 6 -1
11 2 17 5 13 3 -3 4 -12 1 -19z m-10 -40 c-3 -8 -6 -5 -6 6 -1 11 2 17 5 13 3
-3 4 -12 1 -19z"/>
<path d="M5718 2167 c-4 -66 -12 -107 -23 -123 -9 -14 -14 -28 -12 -31 3 -2
13 7 23 22 17 27 32 165 22 210 -2 11 -7 -24 -10 -78z"/>
<path d="M5789 2100 c-4 -83 -9 -103 -34 -145 -82 -142 -148 -188 -330 -231
l-60 -14 51 5 c66 7 166 39 215 71 53 33 143 145 158 196 19 61 24 138 14 178
-9 30 -10 22 -14 -60z"/>
<path d="M5710 2015 c-7 -9 -10 -18 -7 -21 3 -3 10 4 17 15 13 25 8 27 -10 6z"/>
<path d="M5690 1972 c0 -15 -117 -140 -144 -154 -13 -6 -6 6 19 33 35 39 36
40 5 12 -19 -18 -73 -50 -120 -73 -47 -22 -76 -38 -65 -35 11 4 53 15 93 26
40 10 83 26 96 36 47 37 133 150 122 160 -3 4 -6 1 -6 -5z"/>
<path d="M5609 1913 c-13 -16 -12 -17 4 -4 16 13 21 21 13 21 -2 0 -10 -8 -17
-17z"/>
<path d="M7720 2737 c0 -29 22 -50 47 -45 13 2 18 12 18 33 0 27 -4 30 -32 33
-29 3 -33 0 -33 -21z"/>
<path d="M7645 2220 c-30 -12 -73 -42 -106 -72 -64 -62 -84 -112 -74 -192 6
-49 5 -52 -20 -66 -15 -8 -38 -27 -51 -43 -24 -28 -24 -30 -24 -263 0 -254 2
-264 57 -316 15 -15 41 -32 56 -37 17 -7 128 -11 286 -11 251 0 259 1 291 23
44 29 69 65 80 113 5 21 10 130 10 242 l0 202 -41 45 c-39 42 -42 50 -46 112
-7 116 -60 195 -164 247 -61 31 -81 36 -138 35 -40 0 -86 -8 -116 -19z m210
-56 c70 -33 129 -99 144 -160 7 -25 10 -53 7 -62 -2 -10 -7 -29 -10 -44 -13
-58 -46 -24 -46 47 0 34 -16 62 -69 118 -47 51 -80 67 -136 67 -42 0 -50 -4
-105 -58 -57 -55 -60 -61 -60 -106 0 -52 -13 -86 -34 -86 -20 0 -27 52 -16
111 14 75 55 125 140 173 59 34 113 34 185 0z m-33 -161 c32 -15 58 -60 58
-98 l0 -26 -112 3 -113 3 -3 35 c-7 93 74 132 170 83z m96 -192 c82 -4 137
-12 145 -20 9 -9 12 -68 12 -214 0 -191 -1 -204 -22 -237 -39 -63 -40 -63
-310 -55 l-244 7 -27 41 -27 41 0 212 c0 117 4 216 8 221 9 9 228 21 292 15
22 -1 100 -6 173 -11z"/>
<path d="M7722 1730 c-60 -37 -81 -100 -43 -132 16 -14 18 -26 15 -75 -3 -32
-1 -64 4 -72 7 -9 31 -14 74 -15 l63 -1 0 82 c0 52 5 86 13 94 18 19 15 40
-13 81 -33 48 -73 62 -113 38z"/>
<path d="M2408 2094 c-10 -9 4 -45 16 -41 17 5 20 47 3 47 -7 0 -16 -3 -19 -6z"/>
<path d="M1795 1478 c-3 -304 -5 -605 -3 -668 l3 -115 310 -8 c198 -4 404 -3
572 4 246 11 293 10 336 -6 16 -7 17 28 17 646 0 360 -3 664 -6 677 l-6 22
-608 0 -608 0 -7 -552z m1175 -114 l0 -616 -554 4 -553 3 -7 318 c-4 174 -4
450 0 612 l7 295 553 0 554 0 0 -616z"/>
<path d="M2332 1782 c-99 -36 -172 -130 -172 -222 0 -46 -4 -55 -35 -84 l-35
-33 0 -184 c0 -207 7 -235 69 -276 33 -22 42 -23 248 -23 236 0 260 5 306 59
l27 33 0 198 0 198 -29 25 c-22 18 -31 36 -36 73 -12 92 -17 104 -62 154 -82
91 -177 119 -281 82z m173 -65 c58 -33 97 -94 103 -162 4 -45 2 -55 -11 -55
-11 0 -17 15 -22 51 -9 61 -57 121 -111 139 -92 31 -195 -37 -208 -137 -7 -57
-22 -69 -32 -28 -17 68 30 150 107 189 65 32 120 33 174 3z m-35 -114 c18 -16
35 -44 39 -65 l9 -38 -104 0 c-104 0 -104 0 -104 24 0 41 17 74 47 90 43 23
79 19 113 -11z m189 -178 c5 -6 11 -87 13 -182 3 -170 3 -172 -21 -197 l-24
-26 -205 0 -204 0 -29 29 -29 29 0 172 c0 167 0 171 23 180 29 13 463 8 476
-5z"/>
<path d="M2363 1360 c-27 -16 -33 -26 -33 -55 0 -22 6 -38 15 -41 11 -5 15
-23 15 -79 l0 -73 35 -6 c66 -13 75 -4 75 74 0 51 4 69 15 74 24 9 18 61 -11
95 -31 37 -64 40 -111 11z"/>
<path d="M4995 1226 c-33 -33 -32 -70 1 -101 34 -31 49 -31 79 0 29 28 32 65
8 93 -30 34 -59 37 -88 8z"/>
<path d="M4697 903 c-6 -6 -10 -62 -4 -64 5 -1 260 -11 465 -17 161 -5 212 -4
212 5 0 6 -4 14 -9 17 -4 3 -155 6 -335 6 -179 1 -326 5 -326 10 0 13 208 22
448 18 206 -3 222 -2 222 15 0 16 -23 17 -333 17 -184 0 -337 -3 -340 -7z
m651 -70 c-10 -2 -26 -2 -35 0 -10 3 -2 5 17 5 19 0 27 -2 18 -5z"/>
<path d="M4803 803 c9 -2 23 -2 30 0 6 3 -1 5 -18 5 -16 0 -22 -2 -12 -5z"/>
<path d="M5005 784 c72 -7 174 -13 228 -13 54 -1 107 -6 118 -11 16 -9 19 -7
19 8 0 17 -12 19 -142 25 -79 4 -190 6 -248 6 l-105 -2 130 -13z"/>
<path d="M5320 720 c-11 -7 -7 -10 17 -10 17 0 35 5 38 10 8 13 -35 13 -55 0z"/>
<path d="M5360 693 c0 -5 9 -19 20 -33 l20 -25 -11 33 c-10 28 -29 45 -29 25z"/>
<path d="M9105 3210 c-10 -16 4 -30 31 -30 17 0 24 5 24 20 0 15 -7 20 -24 20
-14 0 -28 -4 -31 -10z"/>
<path d="M9218 3214 c-12 -11 4 -34 24 -34 13 0 18 6 16 17 -3 18 -29 29 -40
17z"/>
<path d="M9035 3190 c3 -5 8 -10 11 -10 2 0 4 5 4 10 0 6 -5 10 -11 10 -5 0
-7 -4 -4 -10z"/>
<path d="M1121 2631 c-21 -13 -5 -41 24 -41 18 0 25 5 25 19 0 10 -7 22 -16
25 -19 7 -16 8 -33 -3z"/>
<path d="M1020 2610 c0 -13 7 -20 20 -20 13 0 20 7 20 20 0 13 -7 20 -20 20
-13 0 -20 -7 -20 -20z"/>
<path d="M1232 2613 c2 -10 12 -18 23 -18 11 0 21 8 23 18 3 13 -3 17 -23 17
-20 0 -26 -4 -23 -17z"/>
<path d="M1340 2610 c0 -16 7 -20 30 -20 23 0 30 4 30 20 0 16 -7 20 -30 20
-23 0 -30 -4 -30 -20z"/>
<path d="M1288 2053 c-36 -9 -18 -26 20 -19 20 3 47 6 60 6 12 0 22 5 22 10 0
10 -69 12 -102 3z"/>
<path d="M9126 2033 c-16 -3 -25 -8 -19 -11 16 -10 113 -2 113 9 0 9 -40 10
-94 2z"/>
<path d="M9154 345 c-9 -23 10 -39 32 -27 9 5 35 7 57 4 31 -4 39 -2 35 9 -3
9 -21 14 -50 15 -24 0 -50 4 -56 8 -7 4 -15 0 -18 -9z"/>
<path d="M4776 342 c-2 -4 -1 -14 4 -22 7 -11 44 -14 187 -14 373 1 423 3 423
19 0 13 -41 15 -296 15 -162 0 -299 2 -304 5 -5 3 -11 2 -14 -3z"/>
<path d="M5554 338 c-2 -3 -2 -12 1 -20 4 -10 40 -13 151 -15 132 -2 145 0
142 15 -3 15 -22 18 -147 22 -78 3 -145 2 -147 -2z"/>
<path d="M7590 330 c0 -19 7 -20 120 -20 95 0 120 3 120 14 0 15 -68 26 -172
26 -61 0 -68 -2 -68 -20z"/>
<path d="M7923 343 c-56 -3 -73 -7 -73 -18 0 -18 80 -21 97 -4 8 8 13 8 17 0
9 -14 153 -14 161 0 4 6 4 13 1 17 -8 8 -108 10 -203 5z"/>
<path d="M8241 337 c-18 -23 -2 -27 101 -27 76 0 98 3 98 14 0 25 -179 36
-199 13z"/>
<path d="M9312 333 c3 -15 13 -18 63 -18 47 0 60 3 60 15 0 11 -15 16 -63 18
-57 3 -63 1 -60 -15z"/>
<path d="M1620 317 c0 -21 4 -22 90 -22 85 0 90 1 90 21 0 20 -5 21 -90 22
-86 1 -90 0 -90 -21z"/>
<path d="M3270 320 c0 -19 7 -20 263 -21 334 -2 961 2 965 6 1 1 0 10 -4 19
-6 15 -59 16 -615 16 -602 0 -609 0 -609 -20z"/>
<path d="M6516 330 c-179 -4 -207 -7 -193 -19 20 -16 181 -18 555 -6 203 6
252 10 252 21 0 15 -155 16 -614 4z"/>
<path d="M7702 223 c4 -20 29 -27 63 -19 40 10 20 36 -27 36 -32 0 -39 -3 -36
-17z"/>
<path d="M7820 225 c0 -12 13 -15 55 -15 44 0 53 3 49 15 -4 11 -21 15 -55 15
-37 0 -49 -4 -49 -15z"/>
<path d="M7980 225 c0 -12 14 -15 70 -15 56 0 70 3 70 15 0 12 -14 15 -70 15
-56 0 -70 -3 -70 -15z"/>
<path d="M3620 207 l0 -23 403 -1 c222 -1 409 2 416 7 8 4 11 15 8 24 -6 14
-50 16 -417 16 l-410 0 0 -23z"/>
</g>
</svg>
