<?xml version="1.0" standalone="no"?>
<!DOCTYPE svg PUBLIC "-//W3C//DTD SVG 20010904//EN"
 "http://www.w3.org/TR/2001/REC-SVG-20010904/DTD/svg10.dtd">
<svg version="1.0" xmlns="http://www.w3.org/2000/svg"
 width="7591.000000pt" height="7705.000000pt" viewBox="0 0 7591.000000 7705.000000"
 preserveAspectRatio="xMidYMid meet">

<g transform="translate(0.000000,7705.000000) scale(0.100000,-0.100000)"
fill="#000000" stroke="none">
<path d="M56220 77043 c-238 -22 -410 -57 -600 -119 -611 -201 -1042 -647
-1190 -1231 l-11 -43 -105 0 c-435 0 -852 -138 -1192 -394 -103 -78 -287 -261
-363 -361 -218 -285 -363 -631 -415 -985 -24 -168 -15 -445 19 -591 107 -451
408 -749 817 -808 120 -17 774 -61 1265 -86 1445 -71 2906 -68 4465 10 482 25
600 34 678 55 375 102 665 507 753 1055 20 120 17 418 -5 540 -121 668 -584
1149 -1312 1360 -126 37 -358 82 -498 97 l-118 13 -37 95 c-297 760 -1029
1314 -1836 1390 -104 9 -236 11 -315 3z m341 -848 c449 -78 886 -440 1038
-860 17 -46 41 -138 55 -206 14 -67 35 -142 47 -166 34 -69 113 -149 182 -183
78 -38 144 -50 271 -50 277 0 587 -54 794 -140 146 -60 246 -124 342 -220 164
-164 229 -328 230 -572 0 -174 -38 -325 -110 -437 -32 -49 -45 -61 -72 -65
-60 -10 -850 -47 -1433 -68 -473 -17 -2249 -17 -2700 0 -661 25 -1207 54
-1693 92 -269 20 -266 19 -304 94 -47 93 -60 254 -32 416 55 319 239 617 489
789 266 184 596 237 1001 160 99 -18 126 -20 180 -11 162 27 294 139 341 290
8 26 18 117 23 202 10 185 32 278 96 406 139 282 429 466 833 529 117 18 320
18 422 0z"/>
<path d="M38730 74853 c-2489 -108 -4892 -1058 -6840 -2702 -462 -390 -952
-883 -1345 -1351 -440 -525 -841 -1112 -1160 -1695 -48 -88 -90 -164 -95 -168
-4 -5 -62 17 -129 47 -1316 602 -2918 658 -4291 149 -708 -263 -1272 -624
-1805 -1158 -322 -321 -566 -635 -807 -1035 -532 -884 -817 -1993 -768 -2986
6 -115 15 -249 20 -298 6 -49 9 -90 8 -91 -2 -1 -91 -35 -198 -75 -786 -292
-1557 -718 -2260 -1247 -388 -291 -642 -514 -1031 -902 -323 -323 -505 -525
-754 -836 -1038 -1294 -1751 -2834 -2049 -4425 -101 -536 -144 -968 -153
-1530 -6 -402 4 -662 37 -1000 189 -1874 994 -3677 2315 -5186 575 -657 1249
-1252 1968 -1738 1369 -926 2887 -1479 4453 -1620 295 -27 649 -37 2844 -81
404 -8 735 -15 735 -15 0 0 0 -1063 0 -2362 0 -1300 4 -3596 9 -5103 l8 -2740
-70 -37 c-143 -76 -291 -219 -368 -356 l-27 -49 -3381 -7 c-1860 -3 -4259 -9
-5331 -12 l-1950 -7 -13 28 c-28 60 -110 171 -177 240 -124 124 -266 205 -445
253 -80 21 -118 25 -240 26 -160 0 -252 -17 -391 -74 -186 -77 -375 -247 -462
-416 l-16 -31 -2078 -8 c-1143 -4 -2577 -10 -3188 -14 -1095 -6 -1111 -6
-1161 -27 -210 -86 -319 -303 -255 -512 50 -166 190 -278 371 -297 36 -3 783
-1 1660 4 877 6 2280 14 3116 18 l1522 6 22 -44 c35 -69 115 -172 180 -233 70
-64 196 -149 256 -172 l42 -16 1 -3422 c0 -1881 5 -4602 11 -6046 5 -1444 10
-3194 10 -3891 l0 -1265 -48 -23 c-450 -218 -651 -762 -454 -1230 84 -199 262
-378 474 -475 181 -83 353 -117 501 -98 469 60 797 350 878 780 17 89 6 297
-20 397 -45 168 -163 363 -288 475 -46 42 -113 90 -184 133 l-26 15 -9 4134
c-13 5815 -12 10540 2 10545 6 2 46 27 90 55 124 82 207 171 309 332 9 15 254
17 2600 26 4293 17 7844 23 7956 16 l107 -8 58 -90 c72 -112 191 -225 306
-293 l83 -50 2 -2015 c2 -2002 2 -2016 23 -2082 34 -111 116 -203 230 -257 49
-23 67 -26 165 -26 103 0 114 2 177 32 88 41 160 113 201 201 l32 67 6 2035
c3 1119 6 2036 7 2038 1 1 8 2 15 2 21 0 181 104 240 155 189 165 307 426 307
681 0 190 -71 408 -185 569 -59 83 -186 201 -276 258 l-76 47 -7 1703 c-4 936
-11 2739 -17 4007 -5 1268 -7 2799 -3 3403 l7 1098 191 -6 c726 -21 4806 -61
7274 -72 l1642 -6 0 -811 c0 -878 9 -1766 40 -3856 22 -1507 37 -2909 44
-4022 l4 -747 -71 -40 c-361 -199 -550 -646 -446 -1054 44 -173 133 -322 267
-448 72 -67 206 -157 258 -173 l21 -6 7 -2543 c10 -4186 17 -5499 27 -5550 32
-164 167 -293 342 -328 157 -32 350 63 431 211 60 110 57 7 46 2133 -18 3461
-23 5253 -15 5677 l7 415 71 40 c39 22 108 76 155 119 133 127 207 244 259
413 24 80 27 103 27 253 1 181 -11 243 -75 393 -80 188 -268 390 -440 472
l-36 17 -7 1132 c-6 1134 -13 1707 -41 3616 -26 1771 -34 2503 -41 3606 l-7
1071 4748 7 c2611 4 4749 6 4750 4 3 -4 -10 -2456 -25 -4793 -22 -3473 -30
-5027 -36 -7805 -6 -2632 -5 -2880 9 -2937 22 -85 50 -136 105 -195 84 -90
176 -129 302 -129 156 0 301 87 372 225 49 96 48 15 48 2396 0 2179 10 4744
30 7570 5 778 15 2371 21 3540 6 1169 13 2126 14 2128 1 1 789 5 1751 8 964 3
1834 9 1939 15 809 43 1660 225 2475 531 1884 706 3565 2041 4687 3723 600
898 1028 1906 1232 2895 361 1756 141 3818 -621 5805 -698 1819 -1788 3402
-3096 4496 -379 318 -849 641 -1225 844 -66 35 -86 51 -83 64 8 26 25 234 32
396 7 173 -8 461 -36 679 -118 922 -530 1829 -1175 2586 -136 159 -473 494
-630 624 -586 489 -1201 828 -1926 1064 -665 217 -1339 315 -2059 299 -319 -7
-490 -20 -820 -62 l-45 -6 -112 188 c-545 915 -1158 1785 -1714 2433 -309 361
-754 815 -1064 1086 -1195 1043 -2503 1685 -4198 2059 -689 152 -1574 271
-2262 305 -179 9 -685 11 -855 3z m680 -833 c409 -14 794 -49 1275 -116 1851
-257 3268 -815 4460 -1755 1110 -875 2080 -2090 3188 -3990 89 -152 179 -222
323 -249 54 -11 81 -9 250 19 393 63 642 83 1034 83 495 -1 904 -51 1356 -167
1177 -302 2194 -1016 2826 -1986 350 -535 563 -1098 643 -1699 23 -170 31
-542 16 -722 -7 -79 -26 -222 -42 -318 -33 -200 -30 -248 19 -354 49 -104 104
-149 319 -257 1260 -640 2392 -1756 3272 -3224 183 -305 275 -474 441 -810
670 -1356 1061 -2796 1150 -4235 13 -214 13 -820 0 -1025 -50 -774 -186 -1417
-442 -2100 -335 -889 -862 -1745 -1557 -2530 -155 -175 -553 -572 -731 -730
-1102 -973 -2370 -1652 -3698 -1979 -473 -117 -902 -180 -1402 -206 -325 -17
-16497 -19 -18375 -2 -2310 20 -3810 38 -5325 62 -1866 30 -3960 74 -4250 90
-1883 105 -3736 897 -5280 2258 -199 175 -607 583 -782 782 -1122 1272 -1839
2740 -2092 4280 -74 445 -100 781 -100 1265 0 457 21 746 85 1190 230 1600
950 3199 2028 4505 395 479 869 945 1346 1325 793 632 1648 1096 2588 1404
120 40 236 83 257 96 96 61 172 177 190 292 9 53 6 86 -15 210 -41 244 -56
396 -62 643 -8 350 16 626 87 980 250 1242 1013 2351 2040 2962 574 343 1234
550 1948 613 193 17 649 20 827 5 739 -63 1391 -263 1970 -604 188 -111 309
-124 462 -49 102 50 143 104 263 348 472 953 1049 1763 1805 2534 1878 1913
4474 3073 7075 3161 118 4 240 7 270 8 30 1 183 -3 340 -8z"/>
<path d="M37875 67290 c-798 -36 -1575 -237 -2274 -590 -513 -259 -910 -548
-1332 -970 -448 -448 -788 -923 -1069 -1495 -482 -979 -672 -2043 -554 -3088
9 -81 15 -149 13 -151 -2 -1 -66 -24 -142 -50 -408 -140 -742 -345 -1050 -646
-146 -142 -256 -273 -316 -375 -99 -168 -166 -411 -207 -745 -20 -160 -31
-1085 -45 -3680 -11 -2175 -3 -3718 21 -3960 57 -576 275 -1110 641 -1570 105
-132 333 -360 464 -465 459 -367 981 -590 1575 -671 142 -20 221 -20 3440 -34
2438 -11 3808 -5 5020 20 557 12 786 23 916 45 753 129 1381 604 1797 1360
219 398 372 899 428 1400 31 286 16 2175 -31 3930 -21 779 -102 3234 -115
3490 -14 266 -60 538 -131 772 -197 653 -623 1118 -1208 1319 l-108 37 5 42
c32 231 33 796 2 1075 -90 816 -333 1568 -731 2261 -251 438 -542 819 -903
1180 -335 334 -658 587 -1036 811 -896 530 -1985 796 -3070 748z m585 -840
c915 -64 1771 -374 2455 -891 608 -458 1119 -1098 1445 -1809 325 -707 481
-1486 441 -2202 -6 -117 -14 -231 -17 -254 l-6 -41 -307 -6 c-168 -4 -388 -7
-489 -7 l-182 0 7 98 c12 149 9 585 -5 702 -155 1295 -893 2395 -1982 2952
-1025 525 -2310 539 -3350 37 -568 -275 -1016 -659 -1387 -1189 -359 -513
-591 -1126 -670 -1770 -29 -244 -23 -720 13 -916 l6 -31 -467 -7 c-257 -4
-469 -6 -471 -4 -2 2 -11 62 -21 133 -26 191 -26 821 0 1020 80 616 233 1122
497 1644 233 461 500 837 850 1195 368 377 743 649 1205 876 568 279 1137 426
1825 473 112 8 479 6 610 -3z m-37 -1905 c1002 -106 1802 -665 2247 -1570 214
-434 311 -840 313 -1305 1 -179 -16 -413 -32 -437 -5 -8 -5252 -95 -5607 -93
l-72 0 -6 33 c-37 205 -49 555 -26 767 73 693 377 1337 855 1815 425 425 960
688 1575 774 191 27 194 27 420 29 113 1 253 -4 333 -13z m4744 -4136 c278
-31 512 -141 677 -320 65 -69 146 -189 194 -284 84 -169 153 -438 176 -695 9
-97 86 -2347 116 -3365 49 -1709 67 -3792 35 -4070 -69 -601 -305 -1142 -659
-1513 -236 -246 -501 -399 -804 -462 -190 -40 -1045 -59 -3002 -67 -1704 -7
-6054 13 -6185 28 -394 46 -784 204 -1112 451 -383 288 -677 723 -792 1170
-56 216 -62 282 -73 843 -17 872 9 6748 31 6930 26 214 57 359 96 434 25 50
124 162 225 256 290 269 688 453 1099 510 84 11 852 26 3651 70 1950 30 4067
63 4705 74 1457 23 1505 23 1622 10z"/>
<path d="M37930 57754 c-548 -68 -979 -353 -1204 -796 -94 -185 -146 -378
-168 -615 -32 -364 75 -791 275 -1101 103 -159 279 -338 419 -427 36 -23 46
-34 43 -50 -47 -214 -198 -1095 -300 -1750 -35 -231 -68 -438 -71 -459 -6 -35
-5 -38 12 -31 11 4 522 11 1136 14 614 3 1119 9 1122 12 8 8 -34 293 -154
1039 -54 338 -110 692 -124 785 -15 94 -31 197 -36 231 -17 101 -18 98 67 149
189 115 383 294 506 465 126 177 229 416 279 645 19 86 22 131 22 320 0 190
-3 234 -22 321 -140 642 -589 1081 -1246 1220 -101 21 -154 26 -321 29 -110 2
-216 1 -235 -1z"/>
<path d="M11705 74124 c-822 -90 -1419 -503 -1671 -1155 -18 -47 -42 -119 -52
-160 l-19 -74 -174 -6 c-450 -16 -846 -161 -1174 -429 -85 -70 -254 -243 -316
-325 -370 -485 -519 -1139 -373 -1643 55 -190 132 -328 254 -456 131 -137 263
-215 441 -260 158 -40 979 -96 2024 -137 438 -17 1951 -23 2475 -10 960 24
1876 71 1999 102 384 97 688 521 766 1071 29 207 17 450 -35 653 -104 414
-352 752 -725 990 -256 163 -659 294 -1044 339 -68 8 -127 18 -130 23 -4 4
-20 42 -36 83 -106 284 -330 609 -561 816 -338 302 -700 482 -1129 559 -88 16
-432 28 -520 19z m320 -834 c383 -44 753 -273 976 -604 107 -158 163 -294 198
-480 25 -132 58 -201 132 -271 90 -86 145 -106 313 -117 295 -17 415 -29 536
-54 235 -47 424 -126 570 -235 270 -204 376 -536 285 -895 -18 -70 -86 -213
-113 -237 -21 -19 -214 -33 -872 -62 -944 -41 -2424 -53 -3190 -27 -949 33
-2017 98 -2061 125 -37 22 -78 124 -89 224 -33 274 86 622 295 863 136 156
349 290 540 339 188 48 401 51 625 10 221 -40 348 -11 457 104 89 93 123 188
123 337 0 489 292 826 820 946 176 40 312 50 455 34z"/>
<path d="M6732 59455 c-1285 -148 -2173 -888 -2397 -2000 l-22 -109 -294 -1
c-317 -1 -452 -15 -689 -71 -662 -156 -1220 -542 -1612 -1114 -414 -603 -600
-1393 -478 -2023 116 -597 478 -1004 987 -1111 196 -42 1625 -133 2728 -176
807 -31 1091 -35 2380 -35 1333 0 1596 4 2565 40 708 27 1694 78 1840 96 541
66 981 646 1107 1459 25 161 25 530 0 689 -68 435 -236 811 -505 1131 -407
485 -1048 809 -1845 931 -154 23 -390 49 -462 49 l-50 0 -40 128 c-98 314
-255 612 -477 904 -111 148 -400 441 -547 558 -465 367 -993 590 -1546 655
-157 18 -483 18 -643 0z m526 -826 c404 -44 808 -215 1151 -489 373 -297 661
-727 771 -1152 16 -62 36 -156 45 -208 26 -154 78 -245 180 -315 77 -53 157
-75 278 -75 420 0 879 -67 1204 -176 552 -185 930 -531 1077 -987 141 -437 62
-1005 -185 -1332 -89 -117 -77 -114 -446 -135 -2883 -169 -5728 -157 -8373 35
-614 45 -606 44 -695 105 -88 60 -166 204 -202 370 -14 68 -18 127 -17 295 0
189 3 223 27 338 95 447 339 878 654 1152 180 157 405 286 623 359 345 115
774 131 1190 45 52 -11 125 -20 162 -20 172 -1 332 112 389 276 16 48 22 100
29 255 5 107 14 224 20 260 124 735 658 1219 1510 1370 223 39 428 49 608 29z"/>
<path d="M68120 51474 c-19 -2 -80 -9 -135 -15 -895 -93 -1639 -509 -2057
-1149 -165 -252 -289 -560 -347 -863 -11 -54 -21 -100 -23 -102 -1 -1 -70 1
-153 7 -334 21 -718 -29 -1045 -134 -410 -133 -736 -334 -1051 -648 -167 -166
-256 -274 -381 -465 -98 -148 -242 -437 -302 -607 -170 -474 -216 -957 -131
-1375 121 -594 480 -989 992 -1092 91 -18 432 -48 998 -86 1564 -105 3319
-150 4923 -127 1188 18 1904 42 3017 102 482 27 604 37 678 56 380 98 715 476
890 1004 78 234 114 437 123 695 31 822 -341 1550 -1021 2002 -456 303 -1047
482 -1776 538 l-85 7 -28 92 c-73 240 -212 532 -358 752 -496 746 -1281 1255
-2138 1385 -129 19 -499 34 -590 23z m465 -850 c525 -71 1073 -389 1428 -829
241 -298 399 -636 453 -963 30 -187 75 -275 179 -354 91 -69 138 -79 415 -88
135 -5 308 -16 385 -24 1030 -116 1660 -564 1809 -1290 64 -308 23 -687 -104
-971 -65 -146 -194 -307 -254 -320 -22 -4 -364 -24 -866 -50 -1768 -91 -3792
-111 -5500 -55 -1109 37 -2770 137 -2909 176 -143 41 -241 167 -298 383 -34
132 -43 384 -19 551 56 380 220 756 454 1043 87 106 264 273 372 349 120 85
343 198 482 243 333 108 723 124 1128 48 74 -14 158 -28 187 -30 177 -17 370
121 422 302 7 22 16 128 21 235 13 289 59 493 155 695 238 497 723 821 1398
935 238 40 438 44 662 14z"/>
<path d="M65640 38073 c-164 -16 -396 -72 -544 -130 -606 -238 -1036 -734
-1196 -1378 l-9 -40 -243 0 c-266 -1 -370 -12 -574 -65 -651 -168 -1127 -627
-1305 -1259 -54 -194 -63 -267 -63 -506 0 -187 3 -236 22 -324 12 -58 19 -107
16 -110 -3 -3 -571 -7 -1263 -9 l-1257 -3 -13 27 c-43 95 -183 256 -286 329
-181 128 -417 196 -632 181 -244 -17 -463 -115 -629 -280 -183 -184 -274 -408
-274 -677 0 -247 83 -458 248 -631 69 -72 223 -187 270 -202 19 -6 19 -72 25
-3489 4 -1915 10 -4191 13 -5057 l6 -1575 -66 -34 c-223 -113 -397 -331 -466
-586 -31 -114 -39 -322 -15 -436 60 -300 266 -550 555 -675 103 -45 247 -83
341 -91 134 -10 333 31 485 101 486 225 679 787 437 1271 -75 150 -208 296
-354 389 l-77 48 -6 721 c-7 902 -26 6686 -26 7913 0 501 3 1039 7 1196 l6
285 56 28 c135 66 294 214 370 344 l42 71 2844 0 2844 0 37 -62 c139 -239 363
-395 669 -469 237 -56 561 18 778 180 106 79 216 205 267 308 l25 50 408 7
c225 4 1215 6 2200 5 1706 -2 1795 -2 1847 16 180 59 300 234 288 418 -12 171
-110 305 -272 371 -49 20 -68 21 -643 24 -338 2 -593 7 -593 12 0 5 7 40 14
77 73 347 14 768 -156 1107 -301 600 -900 986 -1703 1097 -236 32 -212 20
-250 119 -249 648 -829 1160 -1512 1336 -178 45 -333 64 -511 62 -81 0 -163
-3 -182 -5z m418 -848 c251 -48 504 -187 702 -385 202 -202 318 -417 369 -684
11 -57 32 -130 47 -160 51 -105 186 -207 289 -221 22 -2 128 -9 235 -15 360
-19 588 -69 826 -180 335 -157 555 -423 610 -742 21 -123 15 -286 -16 -383
-22 -70 -60 -145 -83 -163 -7 -6 -460 -11 -1190 -14 l-1179 -5 -34 53 c-84
132 -212 253 -347 328 -95 53 -256 103 -375 116 -219 24 -455 -33 -637 -152
-98 -63 -226 -192 -280 -280 l-40 -65 -509 -6 c-280 -4 -789 -7 -1132 -7
l-622 0 -31 26 c-48 40 -98 154 -117 264 -55 318 81 691 326 897 80 67 227
149 330 183 238 80 554 88 900 24 90 -17 155 -24 195 -21 161 13 298 117 358
271 14 38 22 91 28 206 4 85 15 188 23 228 106 493 484 838 989 902 94 12 260
5 365 -15z"/>
<path d="M23253 24289 c-75 -9 -175 -60 -231 -116 -27 -27 -64 -80 -83 -118
l-34 -70 3 -1515 c1 -833 6 -2748 12 -4255 5 -1507 14 -4288 21 -6180 15
-4714 20 -5067 79 -5523 170 -1297 834 -2019 2015 -2191 293 -43 395 -45 1465
-32 553 7 1469 16 2035 21 1135 10 4135 13 4135 4 0 -3 -110 -439 -245 -970
-135 -530 -245 -975 -245 -989 l0 -25 -828 0 c-899 0 -894 0 -989 -55 -65 -39
-134 -114 -165 -182 -49 -103 -52 -158 -39 -645 6 -243 10 -442 9 -444 -2 -1
-935 -7 -2073 -13 -1139 -6 -2440 -13 -2892 -17 -533 -4 -823 -3 -823 4 0 5
32 86 71 178 107 253 172 425 214 562 35 114 37 130 33 220 -4 85 -8 105 -37
161 -43 84 -115 154 -199 194 l-67 32 -1252 5 c-688 3 -1254 8 -1258 12 -4 4
-1 22 6 40 10 26 14 287 20 1223 7 1192 13 1630 49 4005 38 2486 43 2929 44
4220 1 1221 0 1312 -17 1415 -94 565 -325 1022 -712 1410 -406 407 -923 655
-1515 727 -83 10 -1004 12 -4485 10 -4845 -3 -4484 2 -4760 -67 -788 -199
-1411 -822 -1611 -1611 -73 -291 -69 -155 -69 -2234 0 -1026 4 -3500 9 -5497
l9 -3633 -239 0 c-132 0 -579 -5 -995 -10 -715 -9 -759 -11 -821 -30 -124 -38
-237 -151 -273 -273 -21 -72 -19 -177 6 -266 14 -48 96 -225 225 -483 112
-225 203 -408 202 -408 -2 -1 -1488 -9 -3303 -20 -2383 -14 -3311 -23 -3340
-31 -229 -65 -364 -301 -296 -518 48 -154 162 -261 312 -293 41 -8 1274 -4
4969 16 2703 15 6101 33 7550 41 15864 87 29335 149 40115 185 7059 24 10155
30 16190 36 5310 5 6361 8 6419 20 125 25 224 102 283 221 31 63 37 87 41 157
12 221 -126 396 -344 437 -43 9 -1326 10 -4814 5 l-4755 -7 41 43 c309 322
534 801 605 1283 6 42 14 664 21 1565 9 1181 9 2131 -3 4525 -8 1667 -14 4497
-15 6290 0 3027 -1 3269 -17 3390 -88 664 -324 1091 -765 1388 -279 188 -636
300 -1137 359 -75 9 -1658 12 -6300 15 -5576 3 -6216 2 -6355 -12 -1005 -102
-1640 -619 -1875 -1529 -56 -217 -90 -490 -101 -801 -4 -104 -1 -2062 6 -4350
7 -2288 16 -5667 20 -7510 8 -3627 6 -3445 61 -3770 58 -342 163 -638 302
-853 l45 -70 -521 -7 c-287 -3 -620 -5 -740 -3 l-219 3 -33 83 c-148 367 -406
709 -735 973 -184 148 -487 316 -710 394 -496 173 -993 178 -1480 16 -395
-132 -711 -330 -1001 -627 -228 -235 -395 -491 -505 -774 l-32 -85 -1021 -3
-1021 -2 0 47 c0 266 -37 749 -66 859 -39 153 -164 270 -322 303 -36 7 -294
11 -822 11 l-768 0 -11 50 c-6 28 -88 263 -182 523 -271 750 -500 1429 -487
1443 4 3 1225 0 2715 -6 1489 -7 3158 -10 3708 -8 1088 4 1080 4 1355 64 643
141 1083 508 1319 1101 164 411 242 921 281 1838 5 132 14 1151 20 2265 11
2038 31 5831 50 9490 6 1086 15 2630 20 3431 6 951 5 1471 -1 1499 -35 157
-193 303 -341 316 -80 8 -25655 10 -25715 3z m25223 -1481 c-8 -862 -13 -1633
-36 -5383 -11 -1732 -24 -3841 -29 -4685 -11 -1727 -13 -2165 -12 -3610 0
-558 -2 -1102 -6 -1207 l-6 -193 -12298 0 -12299 0 -1 908 c-1 2011 -9 4721
-23 7972 -9 1884 -18 4196 -22 5138 l-7 1712 12373 0 12372 0 -6 -652z m9700
-3669 c-201 -82 -326 -270 -326 -494 0 -187 86 -351 233 -446 55 -36 151 -74
207 -82 101 -14 -1413 -28 -5041 -45 l-1345 -7 -76 -38 c-118 -58 -204 -168
-226 -288 -11 -57 35 -14950 46 -15076 11 -117 48 -197 127 -272 65 -61 135
-96 225 -110 42 -7 430 -11 1100 -11 569 0 1440 -5 1935 -10 1723 -18 2701
-30 2813 -36 l112 -6 -37 -28 c-48 -34 -132 -124 -160 -170 -12 -19 -33 -71
-48 -114 -50 -150 -29 -336 55 -466 37 -58 145 -162 198 -189 37 -20 26 -20
-2994 -21 -2031 0 -3065 3 -3133 10 -212 22 -402 94 -519 196 -183 161 -289
416 -348 839 -18 133 -18 42 -44 9130 -14 5076 -12 6420 13 6575 51 318 116
509 230 682 194 292 546 456 1057 491 25 2 1384 4 3020 5 l2975 1 -49 -20z
m6584 -12 c693 -105 959 -370 1030 -1022 11 -109 24 -6495 24 -12275 0 -2918
-2 -3214 -17 -3305 -56 -345 -246 -684 -514 -918 -254 -221 -529 -346 -830
-377 -79 -9 -905 -10 -3020 -4 l-2912 7 69 49 c117 82 195 200 225 344 18 87
18 131 0 219 -28 131 -107 255 -215 338 l-35 27 158 0 c86 0 593 -7 1125 -15
1730 -27 2458 -35 3612 -42 l1136 -6 71 21 c183 56 294 210 298 412 1 47 -8
1347 -21 2890 -12 1543 -39 4884 -58 7425 -20 2541 -40 4694 -44 4785 -7 148
-11 171 -34 223 -56 120 -179 214 -311 237 -70 13 -2761 1 -4722 -20 -1017
-11 -1366 -11 -1310 0 252 51 425 263 425 523 0 132 -34 231 -113 335 -42 55
-135 128 -197 155 -31 14 273 15 3015 13 2843 -2 3058 -3 3165 -19z m-746
-2069 c3 -139 15 -1454 26 -2923 11 -1468 36 -4578 55 -6909 20 -2332 34
-4240 33 -4241 -2 0 -480 2 -1063 6 -1082 8 -1629 15 -3900 49 -2814 43 -3898
56 -5597 66 -599 4 -1088 7 -1088 8 -1 2 -49 13574 -50 13854 l0 272 983 0
c1071 0 2649 11 5282 36 2586 24 3489 31 4441 32 l872 2 6 -252z m-44339
-2508 c217 -24 369 -70 570 -170 179 -90 302 -177 440 -315 285 -286 450 -642
487 -1052 12 -138 -1 -2363 -22 -3768 -6 -352 -19 -1229 -30 -1950 -28 -1841
-38 -2723 -46 -3845 -6 -858 -4 -983 9 -1040 9 -36 14 -67 12 -69 -3 -2 -1200
2 -2662 10 -1462 7 -4029 13 -5704 13 l-3047 0 -7 5450 c-6 4968 -5 5460 9
5556 64 420 303 775 672 996 151 91 351 161 519 183 101 12 8685 14 8800 1z
m28681 -7757 c-25 -378 -89 -749 -166 -968 -167 -471 -449 -659 -1060 -706
-165 -12 -1743 -8 -6915 18 -5820 30 -11406 23 -13985 -18 -675 -10 -860 -6
-1074 27 -388 58 -659 177 -861 379 -264 265 -415 681 -470 1298 l-7 77 12272
0 12273 0 -7 -107z m-10868 -2480 l1472 -6 35 -116 c85 -282 369 -1121 505
-1496 82 -225 148 -410 147 -411 -1 -1 -537 2 -1192 6 -1805 13 -4423 30
-4947 33 -256 1 -469 5 -473 8 -3 4 107 450 245 992 137 542 250 988 250 991
0 8 2151 8 3958 -1z m9613 -2511 c297 -70 598 -239 802 -450 l39 -40 -138 -7
c-197 -11 -1569 -12 -1888 -1 l-268 8 63 65 c212 215 537 384 844 438 119 21
432 13 546 -13z m-29731 -283 c1240 -6 3169 -14 4287 -17 l2031 -7 -55 -135
c-31 -74 -75 -191 -99 -260 l-43 -125 -213 -6 c-117 -4 -879 -9 -1693 -13
-814 -4 -2693 -13 -4175 -21 -1482 -8 -3998 -21 -5590 -29 -1592 -9 -3128 -18
-3413 -20 l-517 -5 -155 309 -155 309 33 6 c129 21 6354 31 9757 14z m17465
-39 c875 -5 2263 -14 3085 -20 822 -5 1998 -13 2612 -16 l1117 -6 5 -52 c4
-28 7 -114 9 -192 l2 -141 -1470 -7 c-3806 -17 -6190 -28 -7625 -35 -861 -4
-1566 -7 -1566 -7 -1 1 -4 111 -6 246 l-5 245 1126 -2 c619 -2 1842 -7 2716
-13z"/>
<path d="M24593 22845 c-141 -38 -249 -137 -298 -275 -20 -53 -20 -198 -5
-3805 5 -1276 14 -3818 20 -5650 7 -1831 15 -3586 18 -3900 l7 -570 28 -59
c52 -111 129 -183 244 -226 l54 -20 11337 0 c8259 0 11348 3 11377 11 65 18
115 48 173 102 63 60 94 111 116 187 17 62 19 252 56 7030 11 1966 25 4304 30
5196 8 1143 8 1635 0 1668 -35 156 -171 286 -331 316 -34 7 -4061 10 -11413 9
-9757 0 -11368 -2 -11413 -14z m22323 -1817 c-7 -1041 -17 -2738 -41 -7093 -8
-1441 -18 -3103 -21 -3692 l-7 -1073 -10844 0 -10843 0 0 328 c0 180 -5 1371
-10 2647 -5 1276 -14 3686 -19 5355 -6 1669 -13 3369 -16 3778 l-6 742 10907
0 10907 0 -7 -992z"/>
<path d="M36265 21554 c-521 -52 -933 -166 -1385 -385 -452 -220 -799 -468
-1166 -834 -268 -268 -507 -575 -680 -875 -36 -63 -50 -80 -63 -74 -78 33
-291 83 -441 105 -130 19 -433 16 -575 -5 -685 -102 -1240 -509 -1564 -1146
-166 -326 -254 -666 -268 -1036 l-6 -150 -111 -57 c-340 -173 -616 -376 -906
-666 -200 -200 -346 -377 -495 -601 -390 -584 -620 -1209 -701 -1905 -25 -210
-25 -672 -1 -875 142 -1172 800 -2231 1784 -2874 507 -331 1038 -510 1612
-546 590 -36 3686 -70 6156 -69 2293 2 3791 14 3900 32 610 99 1123 331 1620
730 768 616 1261 1486 1382 2437 21 169 25 723 5 900 -72 654 -231 1205 -512
1775 -321 653 -728 1157 -1209 1496 l-58 41 -6 151 c-22 551 -243 1058 -636
1461 -266 272 -544 447 -899 567 -229 78 -455 113 -727 113 l-190 0 -75 129
c-166 287 -350 560 -534 792 -137 171 -442 482 -586 597 -463 367 -982 593
-1620 707 -283 51 -415 63 -715 66 -159 1 -308 1 -330 -1z m665 -853 c1180
-154 1797 -632 2525 -1956 57 -104 118 -200 143 -227 108 -116 247 -151 437
-111 126 26 449 24 577 -5 292 -64 509 -182 713 -387 316 -315 465 -741 404
-1155 -33 -230 42 -389 232 -490 477 -252 939 -815 1233 -1502 252 -590 382
-1270 347 -1817 -26 -406 -107 -714 -280 -1066 -235 -476 -584 -873 -1025
-1167 -351 -233 -731 -373 -1106 -407 -150 -14 -5714 -15 -6935 -1 -1483 16
-2767 43 -2940 61 -461 47 -950 258 -1360 586 -141 112 -356 327 -468 468
-364 455 -588 954 -678 1515 -27 162 -37 564 -19 736 60 588 252 1118 581
1604 346 512 818 895 1329 1080 172 62 243 117 304 237 39 77 48 162 30 286
-71 493 88 998 421 1333 231 234 522 353 865 354 238 0 478 -69 673 -193 170
-109 366 -102 514 19 58 48 90 97 152 236 441 980 1366 1730 2391 1938 126 25
193 35 385 54 90 9 409 -4 555 -23z"/>
<path d="M35869 18705 c-515 -81 -961 -375 -1254 -830 -201 -311 -329 -688
-366 -1075 -11 -120 -7 -384 7 -491 6 -47 6 -47 -27 -54 -68 -15 -212 -79
-295 -131 -121 -76 -223 -165 -309 -268 -111 -132 -162 -253 -195 -456 -16
-97 -33 -2265 -21 -2730 10 -403 17 -460 75 -635 136 -409 466 -744 859 -874
198 -66 136 -62 1252 -72 1172 -10 2194 1 2335 26 422 73 761 395 920 874 92
274 104 411 96 1051 -10 739 -47 2135 -62 2305 -38 442 -246 777 -578 930 -67
31 -197 70 -259 77 l-28 3 -3 250 c-2 206 -7 272 -25 374 -116 643 -431 1151
-906 1464 -183 120 -434 217 -664 256 -146 25 -412 27 -552 6z m496 -844 c165
-44 330 -144 452 -275 258 -275 408 -742 364 -1130 -6 -55 -13 -101 -14 -102
-3 -3 -1755 -34 -1929 -34 -121 0 -137 2 -142 18 -3 9 -10 70 -16 134 -36 415
116 863 385 1134 147 148 301 231 500 270 99 19 297 12 400 -15z m1621 -2366
c61 -77 69 -154 89 -835 28 -958 37 -1483 32 -1875 -4 -364 -5 -395 -26 -468
-58 -206 -163 -349 -278 -379 -50 -13 -2370 -22 -2829 -11 l-340 8 -79 39
c-135 67 -237 191 -291 356 -17 51 -19 115 -21 955 -2 495 0 1152 4 1460 9
639 0 585 104 654 114 76 -8 69 1776 101 884 15 1659 28 1722 27 113 -2 113
-2 137 -32z"/>
<path d="M35957 14964 c-350 -63 -572 -329 -554 -664 11 -205 102 -382 260
-504 31 -24 62 -46 66 -48 5 -2 -4 -68 -20 -148 -33 -161 -139 -754 -139 -776
0 -12 69 -14 423 -14 232 0 465 3 518 6 l96 7 -8 46 c-4 25 -37 215 -74 422
-36 206 -65 386 -65 400 0 18 10 30 37 44 21 11 69 45 108 76 271 215 334 580
148 861 -152 230 -477 350 -796 292z"/>
<path d="M58110 14349 c-265 -34 -540 -135 -755 -276 -506 -333 -847 -939
-916 -1628 -11 -113 -7 -414 7 -506 l6 -35 -84 -28 c-171 -58 -320 -150 -456
-280 -175 -168 -244 -294 -288 -526 -14 -73 -17 -251 -26 -1265 -10 -1281 -3
-1816 27 -1955 63 -288 190 -525 390 -725 189 -190 372 -295 630 -362 l100
-26 645 -9 c750 -11 2437 -3 2622 12 200 16 363 72 519 177 335 227 557 655
600 1155 15 181 0 1172 -36 2348 -16 521 -19 573 -41 704 -60 353 -253 636
-529 774 -72 36 -205 79 -272 87 l-48 7 0 236 c0 303 -25 468 -111 734 -280
866 -970 1405 -1789 1397 -71 -1 -159 -5 -195 -10z m445 -854 c256 -65 467
-237 623 -508 146 -255 221 -594 193 -876 -6 -63 -13 -116 -15 -119 -3 -2
-362 -10 -798 -17 -436 -8 -899 -16 -1029 -19 l-237 -5 -6 22 c-3 12 -11 75
-17 140 -37 403 118 862 384 1131 240 242 573 335 902 251z m1612 -2357 c29
-33 45 -65 60 -128 27 -109 78 -2017 71 -2630 -4 -319 -6 -351 -27 -425 -50
-180 -144 -321 -243 -366 l-53 -24 -1526 -3 c-1059 -2 -1544 0 -1585 7 -202
37 -380 227 -420 449 -11 62 -13 281 -13 1147 1 589 4 1231 8 1427 l6 357 43
44 c56 57 133 96 214 108 62 10 2529 55 3134 58 310 1 311 1 331 -21z"/>
<path d="M58195 10609 c-170 -22 -313 -87 -421 -194 -81 -80 -116 -135 -151
-238 -33 -96 -41 -243 -19 -347 33 -157 143 -328 269 -414 l54 -37 -38 -192
c-41 -210 -114 -613 -124 -692 l-7 -50 510 5 c281 3 514 9 519 13 4 5 -7 92
-25 195 -17 103 -52 300 -76 439 l-43 251 46 26 c168 91 304 269 347 451 21
90 14 234 -15 325 -44 139 -152 274 -280 350 -88 52 -226 97 -336 110 -101 11
-112 11 -210 -1z"/>
<path d="M10747 13689 c-135 -32 -260 -152 -302 -289 -15 -51 -16 -418 -15
-5102 1 -4533 2 -5052 16 -5100 33 -111 118 -207 232 -261 l67 -32 4625 -3
c3420 -2 4641 0 4685 9 81 15 149 51 211 113 62 62 98 130 114 212 9 45 5
1272 -13 5069 -24 4966 -25 5010 -45 5067 -46 129 -145 226 -272 267 -25 8
-481 12 -1600 15 -861 3 -1945 10 -2410 15 -1969 25 -2745 31 -3965 30 -709
-1 -1307 -5 -1328 -10z m4018 -839 c2053 -24 2735 -30 3708 -30 l1037 0 0 -97
c0 -54 9 -1920 20 -4148 11 -2227 20 -4227 20 -4442 l0 -393 -4142 0 -4143 0
-4 4567 -3 4566 1333 -6 c734 -4 1712 -12 2174 -17z"/>
<path d="M15255 11909 c-188 -20 -426 -89 -598 -176 -503 -251 -873 -739
-1032 -1358 -52 -205 -68 -333 -69 -560 -1 -110 1 -235 4 -278 l5 -78 -75 -25
c-221 -75 -443 -233 -583 -416 -106 -138 -157 -294 -176 -528 -14 -181 -23
-2346 -11 -2715 7 -227 13 -309 29 -380 61 -275 180 -501 366 -694 202 -209
417 -329 708 -393 l102 -23 1570 0 c1235 0 1592 3 1674 13 265 34 464 132 651
321 250 252 397 598 431 1018 18 217 -15 1952 -51 2748 -11 234 -29 354 -75
490 -118 355 -378 594 -716 661 l-84 16 0 232 c0 242 -7 314 -51 516 -76 345
-242 696 -452 953 -33 40 -109 120 -170 178 -371 356 -885 531 -1397 478z
m373 -845 c428 -88 752 -480 848 -1024 18 -103 24 -347 11 -441 l-8 -55 -787
-12 c-433 -7 -898 -15 -1033 -19 l-246 -6 -6 24 c-4 13 -12 75 -18 138 -24
255 33 551 153 799 153 316 409 532 703 595 95 21 286 21 383 1z m1650 -2360
c28 -19 48 -58 68 -131 28 -106 80 -1976 72 -2633 -4 -316 -6 -352 -26 -425
-45 -166 -144 -320 -235 -366 -38 -20 -67 -21 -616 -31 -364 -6 -946 -7 -1582
-1 l-1006 8 -84 42 c-135 67 -240 190 -292 343 l-22 65 -3 980 c-1 539 1 1199
5 1467 l8 487 40 41 c59 61 148 101 248 112 73 7 2628 53 3182 57 185 1 224
-1 243 -15z"/>
<path d="M15242 8155 c-141 -32 -291 -113 -366 -196 -58 -63 -103 -141 -133
-226 -25 -70 -28 -91 -27 -208 0 -116 3 -139 28 -210 15 -44 41 -104 58 -134
39 -68 136 -172 199 -213 33 -21 48 -37 44 -47 -20 -65 -172 -909 -164 -913 2
-2 235 -2 518 0 l514 3 -7 56 c-4 31 -33 208 -65 392 -33 185 -63 361 -68 391
l-9 56 60 34 c89 50 223 189 269 277 134 256 93 537 -108 739 -88 89 -184 145
-320 185 -92 28 -329 35 -423 14z"/>
<path d="M36370 6720 c-327 -88 -540 -349 -557 -681 -7 -136 12 -230 74 -359
39 -82 58 -108 137 -186 77 -76 107 -99 186 -138 219 -107 421 -115 647 -23
189 77 339 239 409 442 25 72 28 94 29 215 0 114 -4 146 -23 210 -41 130 -98
226 -187 316 -92 93 -184 151 -300 190 -112 37 -305 44 -415 14z"/>
</g>
</svg>
