<?xml version="1.0" standalone="no"?>
<!DOCTYPE svg PUBLIC "-//W3C//DTD SVG 20010904//EN"
 "http://www.w3.org/TR/2001/REC-SVG-20010904/DTD/svg10.dtd">
<svg version="1.0" xmlns="http://www.w3.org/2000/svg"
 width="8011.000000pt" height="5231.000000pt" viewBox="0 0 8011.000000 5231.000000"
 preserveAspectRatio="xMidYMid meet">

<g transform="translate(0.000000,5231.000000) scale(0.100000,-0.100000)"
fill="#000000" stroke="none">
<path d="M44055 52293 c-91 -5 -347 -32 -465 -49 -1008 -144 -2078 -577 -3082
-1247 -117 -78 -217 -144 -221 -146 -5 -2 -63 50 -130 116 -142 138 -204 192
-342 294 -740 549 -1772 801 -2753 673 -1496 -195 -2914 -1237 -3881 -2852
-465 -778 -844 -1686 -1245 -2982 -475 -1542 -889 -3178 -1213 -4802 -59 -296
-105 -540 -102 -543 3 -3 145 17 315 44 1870 298 3680 481 5569 561 388 16
864 30 1095 31 238 1 273 -6 374 -72 177 -117 230 -379 115 -561 -61 -96 -162
-165 -269 -186 -30 -6 -255 -16 -500 -22 -2231 -53 -4426 -265 -6675 -645
-771 -130 -767 -129 -1204 -274 -1028 -342 -1828 -692 -2490 -1088 -457 -274
-744 -495 -1051 -809 -236 -241 -407 -467 -554 -732 -57 -101 -176 -365 -176
-389 0 -16 -4 -16 -131 2 -2098 292 -4471 497 -6669 575 -745 26 -1011 31
-1980 37 -2287 13 -4262 -72 -6500 -278 -809 -74 -2302 -242 -2490 -280 -215
-44 -367 -261 -330 -472 16 -88 51 -159 109 -220 62 -66 129 -103 218 -122 61
-13 83 -13 206 2 75 9 139 14 141 12 3 -2 -7 -49 -20 -104 -79 -324 -156 -747
-196 -1079 l-23 -189 -230 6 c-859 23 -1807 245 -2530 591 -352 169 -612 344
-839 565 -224 218 -367 444 -441 696 -24 82 -26 100 -21 210 20 453 323 1032
778 1487 670 670 1666 1116 2888 1292 364 53 793 88 888 74 44 -7 76 -5 128 7
81 18 301 35 924 69 989 56 1747 87 2840 118 599 17 2636 17 3120 0 1063 -37
1827 -91 2527 -177 210 -26 245 -25 341 9 198 71 311 312 242 515 -25 75 -62
133 -119 184 -82 74 -135 91 -380 122 -1803 227 -4604 262 -7921 100 -485 -24
-1041 -54 -1086 -60 l-42 -4 24 112 c503 2337 1327 4799 2352 7022 526 1140
832 1690 1200 2152 103 130 374 403 492 497 295 234 647 401 993 470 192 39
307 49 522 49 215 0 330 -10 520 -48 397 -79 749 -234 1064 -467 89 -66 401
-366 401 -386 0 -5 -62 -56 -137 -113 -420 -318 -1463 -1174 -1517 -1245 -120
-156 -109 -384 25 -529 89 -97 198 -140 334 -133 131 7 163 27 550 349 1282
1066 2098 1645 2950 2096 932 494 2038 841 2908 912 189 16 573 14 745 -4 500
-52 951 -225 1279 -490 694 -560 1438 -1639 2071 -3005 996 -2150 1765 -4975
2057 -7555 14 -126 33 -252 42 -280 60 -191 260 -317 455 -285 179 28 321 168
351 345 9 51 6 103 -17 301 -258 2259 -868 4720 -1681 6774 -617 1560 -1320
2810 -2069 3680 -197 228 -486 512 -681 669 -484 390 -1053 608 -1775 683
-182 19 -693 16 -900 -5 -784 -80 -1563 -289 -2435 -652 -532 -222 -1132 -546
-1686 -910 l-187 -123 -72 89 c-96 117 -310 326 -439 428 -488 388 -1078 631
-1733 717 -172 22 -524 30 -700 15 -605 -51 -1153 -251 -1618 -589 -464 -338
-866 -801 -1247 -1437 -145 -242 -265 -465 -464 -870 -1233 -2504 -2195 -5277
-2788 -8044 -28 -129 -53 -236 -55 -239 -3 -2 -76 -11 -163 -18 -1444 -123
-2669 -561 -3550 -1269 -812 -652 -1335 -1545 -1388 -2370 -24 -367 141 -823
443 -1225 104 -138 365 -403 512 -519 381 -302 849 -551 1396 -746 726 -258
1541 -416 2240 -432 l251 -6 6 -371 c6 -388 14 -537 48 -876 181 -1836 862
-3615 1927 -5035 306 -408 516 -650 907 -1041 399 -399 686 -649 1115 -969
221 -165 594 -414 821 -550 90 -54 175 -104 188 -112 23 -15 23 -16 -55 -60
-1001 -574 -1898 -1343 -2641 -2264 -379 -471 -767 -1069 -1018 -1569 l-57
-113 -101 100 c-768 755 -1770 1254 -2839 1413 -421 63 -906 68 -1338 14 -785
-98 -1602 -414 -2238 -867 -883 -629 -1549 -1538 -1902 -2597 -181 -541 -262
-1040 -262 -1600 0 -511 74 -976 231 -1450 210 -634 504 -1160 951 -1700 129
-156 496 -523 655 -656 771 -640 1637 -1020 2600 -1140 175 -22 705 -30 902
-15 686 55 1333 237 1960 551 l232 117 175 -140 176 -139 -45 -63 c-141 -197
-164 -534 -64 -933 132 -533 421 -1042 813 -1436 292 -292 563 -457 863 -522
103 -22 321 -23 418 -1 177 40 348 126 481 242 l61 54 115 -117 115 -117 12
-160 c61 -818 165 -1675 291 -2386 50 -284 76 -374 150 -524 157 -319 420
-546 763 -656 92 -29 106 -37 107 -56 0 -12 14 -304 30 -649 17 -344 30 -627
28 -629 -2 -1 -55 3 -118 8 -128 11 -360 -2 -515 -29 -517 -89 -1016 -347
-1384 -714 -565 -566 -743 -1294 -484 -1990 53 -144 166 -356 241 -456 394
-518 1412 -793 3272 -884 810 -40 2386 -9 2805 56 661 101 1048 460 1164 1079
45 237 53 563 26 1070 -8 154 -19 408 -25 565 -30 815 -110 1794 -195 2402
l-15 107 63 83 c67 89 142 226 183 335 62 164 71 232 130 1038 30 418 57 761
58 763 2 1 45 -3 97 -8 156 -18 675 -24 873 -11 98 7 179 11 181 9 2 -2 56
-233 120 -513 64 -281 129 -562 146 -625 159 -603 580 -1112 1152 -1393 l135
-67 51 -208 c104 -428 136 -665 128 -947 -10 -349 -53 -479 -302 -915 -267
-469 -358 -693 -396 -977 -17 -126 -6 -401 20 -524 63 -292 188 -530 393 -745
397 -415 1026 -659 1938 -751 245 -25 905 -25 1170 0 511 48 924 136 1156 246
303 144 601 419 817 751 233 360 386 827 449 1365 17 141 17 680 0 835 -37
346 -68 544 -181 1169 -106 582 -142 838 -160 1139 -6 83 -13 157 -16 163 -4
5 4 27 18 48 74 111 143 295 173 458 35 195 29 521 -17 867 -71 532 -280 1527
-619 2941 -103 432 -358 1473 -366 1495 -3 8 12 -1 33 -21 191 -181 479 -280
772 -266 199 10 372 58 548 152 47 25 87 45 88 45 2 0 25 -39 51 -87 92 -170
178 -293 288 -413 554 -603 1318 -671 1971 -177 168 128 362 346 479 538 151
250 261 585 295 901 16 141 13 414 -4 558 -57 461 -248 918 -529 1266 -79 99
-261 281 -288 290 -23 7 -23 8 16 139 45 152 59 256 59 430 0 195 -12 265 -97
577 -720 2619 -2042 5018 -3894 7068 -220 243 -867 892 -1107 1110 -158 143
-521 459 -627 546 l-38 30 143 79 c410 226 845 508 1227 798 372 283 646 522
1001 877 347 346 556 581 799 898 l93 122 101 0 c56 0 164 5 241 10 780 57
1474 276 2055 649 727 466 1242 1193 1423 2011 53 238 62 325 62 620 0 216 -4
299 -18 388 -68 421 -232 816 -479 1151 -149 202 -341 403 -530 553 -48 39
-88 72 -88 73 0 2 58 -12 128 -31 612 -162 1424 -296 2187 -360 l80 -6 28
-227 c185 -1513 711 -2980 1520 -4241 977 -1521 2437 -2794 4118 -3586 121
-57 224 -104 229 -104 30 0 -2 -21 -97 -64 -492 -220 -1088 -595 -1578 -991
-1163 -941 -2158 -2207 -2915 -3710 -629 -1251 -1067 -2604 -1325 -4100 -40
-230 -41 -267 -4 -423 27 -117 70 -216 144 -327 l63 -96 -29 -72 c-100 -241
-190 -624 -236 -1007 -24 -202 -24 -612 0 -765 20 -129 57 -271 91 -352 23
-56 24 -58 6 -83 -36 -50 -119 -227 -153 -326 -47 -134 -75 -267 -88 -416 -5
-67 -12 -125 -15 -130 -3 -4 -15 -8 -27 -8 -40 0 -291 -67 -392 -105 -231 -86
-408 -197 -566 -355 -121 -119 -193 -222 -240 -343 -211 -546 -256 -1864 -154
-4532 9 -222 22 -438 30 -485 34 -204 122 -384 264 -542 116 -128 325 -253
497 -298 161 -41 194 -41 914 -5 766 39 782 40 905 61 50 9 795 221 1656 471
l1566 455 114 -45 c63 -25 134 -51 158 -58 27 -8 46 -21 51 -33 5 -12 20 -289
34 -616 15 -327 29 -612 32 -634 l5 -38 -48 7 c-86 13 -364 7 -497 -10 -545
-71 -1090 -339 -1481 -730 -627 -627 -771 -1458 -384 -2210 63 -123 123 -216
184 -285 447 -508 1537 -772 3465 -841 363 -13 1491 -7 1830 10 576 29 725 43
906 86 107 25 266 81 345 121 94 47 231 148 309 226 209 210 325 484 372 874
16 135 16 619 0 899 -7 110 -19 371 -27 580 -32 818 -82 1460 -171 2197 l-36
296 51 66 c131 172 217 368 256 591 9 50 40 420 69 823 29 402 55 734 57 736
2 2 40 -1 84 -5 194 -20 528 -28 757 -17 128 6 251 11 272 12 l40 1 73 -320
c40 -176 98 -430 129 -565 30 -135 76 -307 101 -384 164 -494 513 -920 977
-1190 67 -39 154 -84 194 -101 65 -27 73 -34 82 -65 23 -86 91 -374 109 -465
49 -243 64 -384 65 -595 1 -391 -43 -527 -326 -1023 -142 -250 -194 -352 -253
-496 -158 -386 -175 -771 -50 -1147 256 -770 1095 -1230 2417 -1324 186 -13
698 -13 888 0 463 32 900 107 1165 200 368 129 725 439 981 852 309 499 475
1231 435 1928 -21 376 -55 624 -181 1320 -119 649 -147 845 -174 1210 l-14
185 38 65 c141 242 197 549 171 935 -38 550 -206 1408 -606 3090 -111 466
-397 1639 -412 1690 -4 14 9 7 48 -26 123 -104 257 -173 417 -217 88 -24 114
-26 282 -26 162 0 197 2 280 23 121 30 197 59 313 118 50 26 94 49 97 51 3 1
18 -23 33 -54 140 -284 386 -568 632 -726 152 -98 301 -161 476 -200 144 -32
377 -32 526 0 309 66 587 224 833 471 312 315 505 716 577 1200 26 175 23 512
-5 696 -81 522 -301 975 -657 1354 -42 44 -98 96 -125 116 l-49 36 25 72 c55
161 68 256 68 482 0 241 1 239 -114 650 -634 2282 -1768 4460 -3289 6315 -668
815 -1419 1577 -2221 2251 -235 198 -381 314 -419 335 l-38 20 101 52 c1282
654 2472 1629 3291 2694 l120 157 100 0 c221 2 504 30 775 77 430 73 916 239
1274 434 635 346 1112 832 1418 1445 218 434 323 871 322 1340 0 435 -86 796
-280 1176 -67 131 -164 285 -249 395 l-64 83 52 5 c29 3 144 12 257 21 569 45
1139 140 1605 270 105 29 193 51 198 48 4 -2 7 -30 7 -61 0 -200 69 -792 141
-1202 262 -1511 886 -2977 1772 -4164 740 -990 1638 -1801 2693 -2429 306
-183 702 -387 999 -517 66 -29 122 -54 124 -56 2 -1 -48 -28 -110 -60 -432
-215 -933 -548 -1379 -913 -333 -273 -815 -735 -1095 -1051 -925 -1043 -1658
-2236 -2210 -3600 -387 -954 -669 -1941 -860 -3014 -61 -336 -59 -436 10 -622
l25 -69 -52 -45 c-408 -347 -682 -767 -822 -1260 -69 -244 -96 -438 -96 -697
0 -506 149 -950 440 -1312 231 -287 503 -467 829 -549 94 -23 126 -26 276 -26
185 -1 264 11 418 63 312 106 596 323 832 636 37 50 71 89 75 88 4 -1 40 -26
79 -56 138 -104 331 -189 503 -222 167 -32 389 -18 542 35 l56 19 4 -22 c3
-12 10 -184 16 -382 33 -1061 102 -2096 196 -2920 82 -722 210 -1521 273
-1708 134 -394 433 -687 834 -818 55 -18 100 -37 102 -43 2 -6 15 -261 30
-566 14 -305 28 -593 31 -641 l6 -85 -93 9 c-112 10 -336 2 -474 -18 -542 -77
-1063 -336 -1450 -720 -331 -329 -532 -714 -591 -1135 -23 -163 -14 -411 20
-575 62 -297 212 -619 374 -804 336 -383 1105 -634 2312 -755 606 -61 1060
-80 1890 -80 982 0 1626 30 1926 89 439 88 755 310 930 658 158 313 198 674
159 1442 -8 160 -19 414 -25 565 -31 843 -92 1610 -185 2348 l-25 194 34 41
c126 156 227 376 271 590 8 43 40 416 70 829 30 413 57 753 59 755 2 2 48 -1
102 -7 165 -18 652 -24 859 -11 103 7 188 11 190 9 1 -1 60 -255 130 -563 70
-308 147 -619 170 -691 182 -557 583 -1014 1122 -1279 l131 -65 42 -171 c108
-447 134 -626 134 -919 1 -398 -39 -524 -333 -1040 -179 -312 -237 -436 -300
-634 -97 -305 -96 -676 3 -979 229 -698 943 -1149 2051 -1296 286 -38 432 -46
815 -46 543 0 963 43 1355 137 254 61 412 125 580 235 621 409 1014 1181 1085
2128 34 459 -9 893 -175 1795 -107 578 -148 858 -165 1115 -6 88 -15 189 -20
224 -9 63 -8 66 26 122 75 124 128 273 161 449 24 130 24 506 0 710 -72 601
-267 1542 -658 3170 -96 398 -335 1372 -346 1405 -4 13 12 3 48 -29 74 -67
125 -100 221 -146 324 -154 701 -144 1048 28 63 31 118 57 122 57 4 0 36 -51
70 -112 402 -721 1086 -1038 1762 -817 262 86 539 274 742 504 260 296 420
638 494 1061 28 158 38 456 21 625 -46 460 -218 909 -485 1264 -78 105 -281
319 -331 350 l-32 20 25 72 c61 184 89 410 72 600 -12 145 -25 203 -99 476
-653 2380 -1848 4646 -3460 6559 -673 800 -1459 1574 -2240 2208 -88 72 -160
132 -160 135 -1 3 50 32 112 64 1262 662 2342 1541 3177 2586 63 80 130 166
148 191 l33 46 187 6 c1565 55 2833 799 3407 2000 307 642 382 1345 210 1972
-94 341 -270 683 -495 960 -135 167 -358 381 -533 513 l-68 51 33 5 c18 3 107
10 198 16 1072 72 2181 310 2968 637 567 235 973 494 1323 843 404 404 624
829 705 1365 22 145 25 499 6 645 -112 853 -638 1569 -1611 2189 -743 473
-1841 913 -2991 1196 -107 27 -196 49 -198 50 -1 1 -27 144 -57 318 -331 1905
-747 3773 -1250 5612 -377 1376 -724 2298 -1156 3075 -540 970 -1219 1693
-2024 2155 -925 532 -2090 743 -3326 605 -699 -79 -1385 -261 -2124 -565 -333
-137 -732 -327 -1049 -497 l-118 -65 -132 70 c-213 113 -729 367 -896 441
-759 337 -1390 519 -2050 593 -221 25 -738 24 -940 0 -292 -36 -520 -84 -746
-158 -559 -180 -998 -452 -1435 -889 -654 -654 -1132 -1491 -1838 -3218 -836
-2046 -1512 -4286 -2294 -7602 l-13 -55 -144 -32 c-460 -103 -901 -207 -941
-222 -25 -10 -67 -33 -93 -51 l-48 -32 -223 96 c-231 100 -553 229 -713 287
-69 26 -94 39 -97 54 -2 11 -15 148 -30 305 -55 605 -153 1433 -246 2070 -479
3295 -1288 5798 -2434 7526 -523 788 -1133 1422 -1795 1867 -710 477 -1500
751 -2359 817 -123 9 -519 11 -666 3z m-1895 -4903 c120 -23 238 -107 294
-210 57 -104 56 -15 20 -1980 -40 -2243 -37 -2123 -59 -2185 -77 -215 -303
-331 -517 -265 -150 46 -259 167 -288 317 -6 36 -5 299 5 805 8 414 15 781 15
816 l0 62 -312 0 c-308 0 -592 -10 -898 -30 -182 -13 -581 -48 -626 -55 l-31
-5 -7 -318 c-11 -533 -48 -1271 -68 -1352 -50 -206 -260 -348 -463 -313 -167
29 -295 141 -341 298 -19 66 -19 57 11 630 48 960 45 1998 -11 3005 -9 162
-14 319 -11 348 3 29 19 82 36 117 121 260 452 325 660 130 60 -56 93 -110
115 -185 23 -79 53 -621 72 -1288 l7 -233 36 5 c55 9 485 44 681 56 262 16
707 30 953 30 l217 0 0 133 c0 348 22 1279 31 1332 23 129 110 243 225 297 95
45 165 55 254 38z m23920 -10900 c2612 -45 4876 -169 6639 -366 428 -47 538
-61 552 -69 15 -10 126 -380 184 -615 98 -399 165 -835 195 -1270 13 -184 13
-760 1 -760 -5 0 -65 13 -133 30 -285 69 -711 122 -817 101 -177 -35 -311
-172 -342 -350 -21 -117 21 -249 107 -342 89 -95 164 -125 344 -140 713 -57
1377 -336 1819 -764 391 -379 580 -806 581 -1312 0 -331 -75 -638 -236 -963
-250 -505 -649 -888 -1199 -1151 -507 -242 -1083 -356 -1760 -346 -146 2 -165
0 -217 -21 -95 -38 -141 -83 -280 -270 -393 -529 -794 -963 -1293 -1395 -1101
-956 -2465 -1664 -3895 -2022 -812 -203 -1557 -287 -2415 -271 -1317 23 -2486
243 -3575 671 -2611 1026 -4475 3148 -5200 5920 -163 623 -273 1372 -297 2016
l-6 175 104 59 c267 150 488 314 698 519 308 302 512 623 636 1000 154 469
167 939 39 1446 -19 74 -34 136 -34 136 0 8 796 81 1345 124 1535 120 3255
198 5060 229 654 12 2747 12 3395 1z m-48555 -110 c2528 -64 4855 -248 7292
-577 228 -31 213 -22 213 -125 0 -154 63 -451 138 -648 205 -544 609 -1019
1212 -1422 105 -71 154 -108 135 -104 -39 8 -258 33 -361 41 -147 12 -267 -28
-359 -120 -243 -244 -104 -657 237 -705 35 -5 115 -14 179 -19 549 -50 1105
-261 1529 -579 139 -104 342 -305 433 -427 178 -241 292 -511 339 -800 19
-121 16 -437 -5 -566 -190 -1139 -1147 -1950 -2507 -2123 -173 -23 -499 -38
-640 -30 -100 5 -138 3 -189 -10 -140 -36 -182 -74 -379 -341 -130 -176 -261
-339 -416 -515 -136 -155 -499 -523 -671 -680 -1053 -959 -2368 -1687 -3770
-2089 -616 -176 -1210 -280 -1905 -333 -246 -19 -935 -16 -1195 5 -963 78
-1827 277 -2710 624 -1769 697 -3286 1906 -4294 3423 -621 934 -1070 1990
-1314 3090 -335 1505 -308 3008 80 4458 39 148 49 173 67 177 12 3 194 23 406
45 2113 221 4024 334 6160 364 381 5 1893 -4 2295 -14z m30563 -505 c301 -75
798 -209 1063 -285 375 -108 1116 -334 1127 -345 2 -2 -55 -1243 -61 -1294 -2
-20 -23 -31 -162 -87 -331 -134 -866 -324 -912 -324 -10 0 -45 -12 -78 -26
-86 -36 -409 -134 -705 -213 -282 -76 -708 -176 -716 -168 -3 2 11 83 30 178
58 289 99 597 128 954 17 209 17 1099 0 1325 -22 299 -25 360 -18 360 4 0 141
-34 304 -75z m-13178 -442 c283 -121 531 -224 550 -228 52 -11 147 -51 199
-84 25 -16 370 -167 766 -336 527 -225 734 -318 773 -347 106 -79 170 -223
159 -356 -17 -209 -167 -361 -382 -388 -78 -9 -157 15 -435 135 -140 60 -256
108 -257 107 -2 -2 6 -54 16 -117 49 -284 56 -386 56 -784 0 -340 -3 -398 -23
-550 -67 -489 -186 -856 -369 -1135 -77 -116 -236 -273 -333 -327 -123 -69
-216 -95 -355 -101 -135 -5 -205 8 -312 58 -85 39 -146 82 -226 159 -98 94
-98 92 -24 137 182 112 330 339 442 676 220 664 202 1410 -49 2052 -113 288
-240 485 -393 607 -88 70 -160 105 -266 128 -74 17 -255 88 -362 142 -50 26
-129 101 -159 154 -102 174 -58 410 99 535 88 70 155 91 275 87 l95 -4 515
-220z m9531 181 c230 -67 354 -320 269 -547 -24 -64 -81 -142 -134 -182 -26
-19 -716 -350 -769 -368 -5 -1 16 -52 46 -112 273 -549 383 -1427 276 -2209
-130 -955 -532 -1516 -1087 -1516 -74 0 -226 30 -244 48 -4 4 14 25 41 46 258
196 452 608 522 1106 19 131 16 433 -5 575 -68 456 -271 896 -518 1120 -129
117 -299 195 -453 210 -176 17 -389 -49 -552 -168 -71 -53 -132 -85 -220 -117
-88 -32 -222 -26 -306 13 -179 82 -281 290 -233 474 23 90 51 140 115 203 55
54 91 71 1506 730 798 371 1473 682 1500 692 63 22 174 23 246 2z m-12912
-2392 c465 -1604 1587 -2927 3263 -3845 1877 -1029 4354 -1482 6688 -1221
1855 206 3419 845 4394 1794 355 346 727 823 1016 1305 121 202 334 626 409
815 30 74 57 138 60 142 4 4 117 30 253 58 532 108 1015 230 1548 393 l145 44
108 -13 c773 -94 1495 -472 1883 -986 172 -228 277 -456 334 -725 27 -126 38
-436 21 -580 -48 -387 -207 -776 -457 -1113 -95 -129 -336 -370 -466 -468
-423 -316 -944 -524 -1523 -606 -214 -30 -333 -38 -615 -40 -265 -3 -289 -4
-340 -24 -93 -37 -145 -86 -263 -247 -414 -565 -895 -1075 -1457 -1544 -861
-719 -1943 -1320 -3035 -1686 -1773 -595 -3571 -641 -5344 -139 -981 277
-1970 742 -2795 1312 -1493 1031 -2584 2391 -3254 4053 -446 1108 -684 2329
-681 3499 l0 245 34 -140 c18 -77 52 -204 74 -283z m7344 -397 c107 -28 187
-83 247 -170 79 -115 92 -280 32 -408 -34 -74 -114 -161 -172 -189 -19 -9 -69
-32 -111 -52 -284 -132 -489 -467 -489 -797 0 -344 241 -649 610 -771 88 -29
106 -31 235 -32 77 -1 177 3 221 8 71 8 91 6 151 -13 316 -95 404 -481 161
-706 -65 -61 -131 -90 -252 -111 -622 -110 -1321 196 -1688 741 -203 301 -297
652 -268 1002 50 619 419 1172 953 1428 175 84 256 100 370 70z m-25163 -8720
c545 -222 1060 -382 1698 -527 l103 -23 -662 -723 c-364 -397 -666 -719 -669
-715 -4 5 -152 465 -330 1023 -178 558 -325 1021 -328 1029 -4 10 -1 12 9 9 8
-3 88 -36 179 -73z m8115 -305 c587 -489 1264 -1157 1796 -1770 1424 -1645
2518 -3561 3199 -5609 110 -331 209 -659 277 -921 44 -171 45 -178 40 -295 -5
-123 -23 -199 -69 -290 -80 -156 -215 -282 -374 -348 -179 -74 -1218 -385
-1554 -464 -130 -30 -377 -42 -515 -24 -176 23 -382 89 -525 168 -334 185
-558 447 -705 823 -112 288 -1240 3193 -1257 3237 -43 116 -150 217 -265 253
-206 64 -412 -29 -507 -229 -28 -61 -31 -74 -31 -166 l1 -100 642 -1652 642
-1652 60 -253 c33 -139 187 -758 342 -1376 154 -617 279 -1125 276 -1127 -17
-18 -485 -85 -743 -107 -185 -15 -711 -15 -905 1 -1121 90 -2180 454 -3105
1066 -359 237 -627 456 -941 770 -196 196 -403 421 -393 428 109 71 155 104
205 148 231 204 373 476 403 769 12 115 8 184 -21 327 l-20 102 79 123 c420
647 766 1380 1062 2251 174 513 290 911 580 1994 83 307 179 662 214 788 l64
230 124 170 c647 884 1173 1794 1589 2752 l84 192 50 -42 c28 -23 119 -98 201
-167z m22180 162 c-6 -5 -80 -61 -165 -124 -481 -361 -989 -843 -1447 -1375
l-122 -142 -115 138 c-185 223 -384 440 -629 688 l-229 231 43 6 c24 3 98 10
164 16 573 52 1236 179 1840 354 189 54 607 190 635 207 20 11 37 12 25 1z
m-30862 -1347 c217 -682 414 -1298 436 -1370 22 -71 129 -445 236 -830 326
-1166 491 -1730 695 -2375 268 -849 539 -1595 810 -2231 137 -321 159 -366
200 -413 l31 -35 -17 -81 c-25 -125 -16 -318 21 -430 81 -250 250 -475 466
-619 l88 -60 -96 -138 c-293 -421 -510 -682 -837 -1008 -374 -372 -704 -621
-1101 -826 -789 -410 -1714 -550 -2590 -393 -49 9 -93 19 -97 23 -4 3 -14 227
-23 496 -25 790 -44 1301 -66 1760 -71 1529 -2 2731 222 3859 233 1175 615
2155 1191 3056 116 181 132 226 126 349 -3 70 -10 98 -35 151 -34 71 -105 148
-168 185 -150 88 -356 66 -485 -51 -115 -104 -472 -711 -684 -1162 -614 -1306
-941 -2785 -1017 -4594 -15 -370 -7 -1413 15 -1821 10 -169 16 -329 14 -355
l-3 -48 -538 466 c-296 257 -548 476 -559 487 l-20 20 68 119 c284 499 485
1096 574 1702 68 467 68 1045 -1 1512 -100 687 -346 1382 -681 1923 -26 43
-48 85 -48 93 0 25 193 425 300 620 311 571 658 1068 1096 1572 159 182 583
608 764 766 292 256 611 500 915 701 260 173 388 248 396 233 4 -7 185 -571
402 -1253z m7401 1138 c-198 -424 -513 -991 -789 -1427 -109 -171 -358 -539
-366 -540 -10 -1 -1271 1588 -1262 1591 4 1 89 9 188 18 714 64 1505 224 2140
433 66 22 125 40 132 41 7 1 -12 -51 -43 -116z m46519 -10 c-402 -329 -782
-700 -1166 -1140 -88 -101 -163 -183 -166 -182 -3 0 -57 63 -119 138 -156 190
-308 359 -548 608 l-205 212 33 5 c18 3 67 8 108 11 584 46 1408 207 1990 388
96 30 179 55 183 56 4 0 -45 -42 -110 -96z m-28683 -127 c158 -37 429 -92 570
-115 69 -12 136 -24 148 -27 21 -4 5 -24 -155 -187 -199 -204 -386 -404 -513
-550 -46 -53 -87 -97 -91 -97 -13 0 -73 592 -87 862 -6 129 -5 147 8 143 8 -2
62 -16 120 -29z m23446 -46 c91 -19 466 -83 559 -96 107 -14 110 -1 -32 -148
-162 -167 -354 -374 -463 -499 -69 -80 -86 -94 -92 -80 -23 57 -92 843 -74
843 2 0 48 -9 102 -20z m-45021 -190 c66 -5 150 -10 186 -10 l66 0 323 -406
c286 -360 321 -408 313 -427 -6 -12 -142 -251 -303 -532 -351 -612 -356 -621
-372 -712 l-12 -72 77 -313 c186 -759 422 -1924 553 -2734 l28 -171 -120 -153
c-65 -84 -175 -219 -243 -299 -128 -150 -462 -495 -585 -604 l-69 -62 -89 95
c-315 334 -596 684 -867 1080 -78 114 -92 140 -88 165 3 17 202 682 441 1479
407 1352 436 1455 436 1524 0 42 -6 98 -14 126 -8 28 -23 83 -33 121 -16 58
-74 160 -337 595 -175 288 -318 528 -319 531 -1 4 162 186 362 404 l364 398
91 -7 c50 -4 145 -11 211 -16z m51188 -117 c-2 -76 -7 -300 -13 -498 -5 -198
-10 -518 -10 -711 l0 -351 -122 -58 c-448 -211 -1018 -396 -1548 -500 -118
-24 -205 -47 -239 -64 -65 -31 -137 -98 -174 -161 -59 -101 -72 -248 -31 -350
10 -25 177 -351 371 -724 194 -374 352 -680 350 -681 -1 -2 -135 -89 -297
-195 -760 -495 -1551 -1059 -2262 -1613 -104 -81 -188 -144 -188 -141 0 11 95
278 177 494 588 1565 1428 3043 2364 4164 372 445 766 844 1156 1171 123 103
451 355 463 355 3 0 4 -62 3 -137z m-7033 -550 c157 -1249 521 -2616 1055
-3963 225 -569 508 -1197 745 -1657 43 -84 76 -153 72 -153 -10 0 -228 118
-398 216 -792 456 -1594 1057 -2201 1650 l-132 129 76 140 c255 475 578 949
902 1325 40 47 88 114 105 150 29 61 31 72 31 175 0 98 -3 116 -27 167 -35 76
-80 130 -142 172 -28 19 -321 164 -651 321 -330 158 -601 288 -603 290 -4 4
86 200 162 352 219 438 497 837 844 1212 l97 105 17 -195 c10 -107 32 -303 48
-436z m-16439 72 c-6 -198 -11 -544 -11 -768 l0 -408 -87 -41 c-540 -250
-1078 -423 -1643 -528 -128 -24 -180 -43 -250 -95 -131 -96 -194 -297 -141
-453 17 -48 154 -315 675 -1319 l53 -101 -121 -78 c-423 -272 -1088 -726
-1507 -1030 -342 -248 -997 -742 -1103 -833 -18 -15 -19 -15 -12 13 13 52 176
496 263 716 915 2303 2265 4233 3733 5334 l155 116 3 -82 c2 -46 -1 -245 -7
-443z m-7077 335 c4 -52 16 -178 27 -280 196 -1805 815 -3810 1769 -5727 l136
-273 -121 65 c-861 455 -1732 1089 -2504 1822 l-115 109 59 109 c267 501 595
987 921 1362 115 132 150 222 141 356 -4 65 -12 94 -41 153 -65 131 -66 132
-758 463 -337 161 -617 296 -621 301 -19 17 185 435 335 684 192 321 393 588
656 874 66 71 98 99 102 90 4 -7 10 -56 14 -108z m22152 -57 c-300 -446 -519
-882 -696 -1388 -34 -96 -43 -137 -46 -204 l-3 -85 -50 -50 c-74 -76 -291
-422 -458 -731 -656 -1211 -1059 -2693 -1188 -4370 -44 -575 -59 -1176 -45
-1750 5 -225 8 -410 7 -411 -6 -6 -599 196 -767 261 -775 299 -1306 612 -1443
853 l-24 42 23 133 c266 1577 806 3109 1557 4417 778 1354 1804 2498 2900
3234 124 83 335 216 344 216 1 0 -49 -75 -111 -167z m9579 -149 c197 -186 618
-612 786 -794 1759 -1913 3044 -4209 3750 -6700 93 -327 103 -381 96 -505 -12
-247 -161 -483 -372 -592 -187 -96 -1471 -480 -1739 -519 -142 -21 -379 -14
-514 15 -464 99 -855 403 -1052 816 -21 44 -326 825 -679 1735 -353 910 -653
1678 -667 1707 -34 70 -136 164 -211 194 -84 34 -233 33 -318 0 -85 -34 -193
-143 -225 -226 -27 -72 -37 -187 -21 -249 6 -25 297 -780 646 -1680 l634
-1634 61 -259 c34 -142 188 -761 342 -1376 154 -616 278 -1120 276 -1122 -6
-7 -275 -54 -419 -74 -1658 -232 -3520 120 -4939 933 -173 100 -503 320 -645
431 -280 219 -540 466 -742 705 l-113 135 5 60 c47 552 130 1097 251 1650 20
88 40 176 45 197 8 31 44 65 267 250 1090 907 2299 1787 3449 2512 263 165
306 199 355 275 62 98 78 246 39 351 -12 30 -162 327 -335 660 -295 568 -313
605 -293 612 12 4 90 25 172 48 454 126 961 324 1399 548 230 118 301 186 341
326 16 54 16 87 5 390 -11 316 -4 919 16 1359 l6 137 91 -82 c50 -46 163 -151
252 -234z m-32976 154 c-282 -397 -535 -877 -710 -1343 -51 -138 -78 -194
-143 -295 -900 -1415 -1486 -3405 -1650 -5605 -34 -454 -41 -644 -41 -1237 0
-335 -3 -608 -6 -608 -3 0 -121 38 -260 84 -745 248 -1301 500 -1652 748 -119
85 -267 227 -296 286 l-22 43 41 227 c240 1329 645 2569 1203 3687 452 905
975 1692 1603 2410 172 198 625 654 799 806 373 326 716 583 1070 801 61 37
111 68 113 68 1 0 -21 -33 -49 -72z m9396 -139 c682 -624 1396 -1418 1990
-2214 1256 -1683 2209 -3648 2731 -5635 34 -131 38 -296 10 -400 -31 -114
-102 -236 -186 -321 -109 -110 -179 -147 -443 -234 -485 -160 -1247 -378
-1433 -410 -128 -22 -365 -22 -489 0 -528 93 -948 430 -1148 920 -25 61 -327
837 -672 1725 -345 888 -640 1636 -657 1663 -58 91 -160 157 -277 179 -265 49
-525 -202 -481 -465 11 -67 -31 42 677 -1782 l610 -1570 78 -325 c42 -179 196
-797 341 -1375 144 -577 262 -1051 260 -1052 -15 -15 -447 -83 -676 -107 -535
-55 -1206 -46 -1780 24 -1310 161 -2562 635 -3475 1317 -298 222 -639 542
-834 782 l-93 115 7 85 c38 500 138 1130 281 1774 l18 79 232 194 c1076 898
2234 1743 3439 2509 335 213 334 212 380 279 75 109 95 254 52 372 -12 34
-163 332 -334 662 -172 331 -313 603 -313 607 0 3 6 5 14 5 23 0 350 95 511
148 345 115 646 239 996 413 263 131 323 175 376 276 53 100 56 133 42 410
-12 240 -10 546 8 1286 l6 278 26 -24 c14 -13 107 -97 206 -188z m19517 -1073
l96 -120 -44 -60 c-92 -128 -335 -488 -430 -638 -54 -87 -102 -158 -105 -158
-4 0 -23 37 -42 83 -20 45 -72 164 -116 264 l-79 182 281 320 281 321 31 -37
c16 -20 74 -91 127 -157z m-49697 -271 l217 -359 -302 -1006 c-166 -553 -303
-1006 -305 -1008 -2 -3 -287 993 -445 1562 -61 219 -109 403 -107 410 11 26
710 777 717 769 4 -4 105 -170 225 -368z m47003 157 c89 -119 163 -221 164
-227 3 -20 -387 -673 -394 -660 -10 16 -116 432 -163 633 l-35 153 127 160
c70 87 130 159 133 158 3 0 78 -98 168 -217z m-20822 86 c55 -68 111 -137 123
-155 l23 -31 -125 -179 c-118 -169 -296 -437 -402 -605 -27 -43 -50 -76 -52
-75 -1 2 -54 122 -118 266 -112 258 -114 264 -97 286 33 45 537 615 543 615 3
0 50 -55 105 -122z m-2635 -188 c84 -113 153 -212 153 -220 1 -16 -374 -669
-384 -670 -7 0 -117 425 -166 637 l-36 161 128 161 c100 125 131 158 140 148
6 -6 80 -104 165 -217z m-20361 -210 c172 -217 319 -402 327 -412 13 -14 7
-42 -46 -235 -33 -120 -130 -479 -216 -798 -201 -750 -297 -1088 -305 -1078
-4 4 -19 76 -34 158 -91 502 -248 1256 -372 1786 l-77 326 193 337 c153 266
196 334 205 324 7 -7 153 -191 325 -408z m-13300 0 c1215 -84 2366 -701 3087
-1655 693 -917 980 -2201 757 -3385 -188 -1002 -712 -1843 -1534 -2465 -552
-417 -1225 -711 -1898 -829 -272 -48 -417 -60 -727 -60 -303 -1 -412 8 -660
49 -1191 200 -2307 1001 -2947 2117 -286 499 -458 1021 -520 1583 -20 179 -17
652 6 840 156 1334 924 2551 2030 3218 154 93 442 235 611 302 417 165 830
256 1305 288 109 8 357 6 490 -3z m54524 -696 l326 -157 -35 -46 c-271 -363
-545 -806 -754 -1221 -174 -345 -194 -407 -172 -529 22 -120 49 -161 235 -350
863 -877 1948 -1679 3016 -2229 102 -52 187 -97 189 -99 2 -1 -13 -76 -33
-165 -152 -658 -264 -1352 -307 -1906 l-13 -164 -84 -105 c-408 -508 -1231
-1152 -2027 -1586 -641 -349 -1267 -566 -1774 -617 -129 -13 -328 -13 -336 -1
-3 6 -14 283 -25 618 -27 842 -37 1091 -62 1603 -18 360 -22 570 -22 1100 -1
781 16 1123 85 1745 182 1647 637 3014 1381 4143 37 57 68 108 68 113 0 5 4 9
9 9 5 0 155 -70 335 -156z m-23501 -76 c231 -111 356 -176 353 -184 -3 -7 -36
-54 -74 -106 -172 -232 -391 -574 -547 -853 -119 -213 -309 -603 -323 -663
-24 -105 -7 -220 44 -308 67 -114 626 -646 1049 -1000 654 -546 1424 -1060
2153 -1437 188 -97 193 -100 187 -126 -28 -106 -102 -449 -143 -661 -86 -437
-153 -893 -187 -1280 -25 -288 -16 -256 -107 -371 -350 -438 -1036 -999 -1733
-1416 -857 -514 -1654 -793 -2261 -793 l-143 0 -5 53 c-3 28 -10 223 -16 432
-16 565 -38 1176 -60 1665 -37 827 -36 1341 5 1970 131 2019 609 3802 1378
5142 34 60 64 108 67 108 3 0 166 -77 363 -172z m-19044 -4378 c-33 -55 -64
-102 -68 -104 -11 -7 -72 17 -69 26 3 8 189 178 195 178 1 0 -25 -45 -58 -100z
m-1127 -137 c-20 -12 -42 -23 -48 -23 -6 0 -34 55 -63 122 l-51 123 100 -100
99 -99 -37 -23z m657 -712 c64 -33 127 -96 157 -157 23 -46 26 -64 21 -112
-10 -112 -91 -223 -203 -278 -106 -52 -250 -19 -349 81 -49 48 -85 112 -85
148 0 43 70 166 132 232 80 86 143 118 223 112 35 -2 79 -14 104 -26z m37994
-1265 c392 -258 913 -498 1612 -741 116 -40 258 -87 316 -105 106 -32 107 -33
118 -70 6 -21 32 -69 58 -106 81 -119 113 -239 113 -427 0 -134 -19 -230 -61
-315 -38 -79 -72 -97 -164 -89 -80 6 -161 45 -235 114 -79 73 -108 134 -121
254 -20 196 -122 325 -300 380 -142 44 -283 10 -398 -97 -53 -48 -68 -75 -188
-316 -139 -279 -229 -427 -332 -546 -128 -148 -304 -260 -444 -282 -348 -54
-719 367 -776 883 -56 499 137 1036 498 1385 60 58 176 152 188 152 2 0 54
-33 116 -74z m-27336 -232 c319 -354 473 -824 423 -1292 -50 -464 -301 -837
-665 -988 -63 -26 -81 -29 -185 -29 -100 0 -123 4 -175 26 -87 36 -169 93
-247 172 -152 154 -255 355 -388 758 -74 223 -98 285 -128 325 -94 123 -247
186 -395 163 -172 -28 -313 -161 -348 -331 -32 -155 -174 -279 -350 -307 -67
-11 -148 -3 -188 18 -58 31 -85 142 -78 316 6 147 27 238 83 350 58 117 58
117 182 127 59 4 157 17 217 29 219 40 978 256 1525 434 261 85 451 171 560
254 36 27 70 50 77 50 6 1 42 -33 80 -75z m4211 -63 c433 -236 1127 -508 1823
-716 l196 -59 6 -170 c16 -425 38 -1128 35 -1131 -4 -4 -760 -155 -776 -155
-7 0 -11 4 -7 9 9 15 -13 298 -30 390 -72 375 -293 674 -609 821 -264 124
-514 113 -813 -37 -62 -31 -116 -53 -120 -49 -14 13 -16 415 -3 545 19 206 54
395 111 614 10 37 11 38 32 24 12 -8 82 -47 155 -86z m-22545 -157 c150 -130
270 -239 267 -243 -2 -3 -44 -15 -91 -27 -48 -11 -135 -38 -194 -59 -102 -36
-383 -170 -490 -233 l-50 -30 -157 122 c-86 66 -156 124 -155 127 1 3 49 46
107 96 140 120 329 303 415 402 39 44 71 80 73 80 1 1 125 -105 275 -235z
m64991 -46 c218 -231 361 -524 423 -868 22 -128 23 -401 0 -525 -52 -286 -161
-507 -337 -685 -215 -217 -472 -300 -676 -218 -283 114 -486 423 -664 1013
-48 157 -67 201 -117 262 -87 108 -250 169 -383 143 -123 -24 -234 -100 -294
-202 -14 -24 -35 -80 -46 -123 -36 -139 -93 -207 -230 -274 -68 -32 -84 -36
-170 -39 -118 -4 -154 11 -187 78 -46 93 -49 290 -7 455 19 73 84 211 116 246
22 23 34 26 124 32 54 4 140 14 189 22 235 41 1002 260 1612 460 215 71 378
146 493 229 41 30 79 55 85 55 5 1 36 -27 69 -61z m-23449 -110 c191 -205 331
-483 396 -784 33 -152 38 -439 11 -599 -23 -131 -67 -276 -114 -370 -119 -237
-322 -437 -527 -518 -105 -42 -238 -49 -340 -18 -134 41 -306 184 -405 339
-101 155 -193 373 -284 668 -57 184 -78 229 -133 289 -111 120 -274 164 -430
116 -148 -47 -247 -157 -285 -317 -20 -88 -36 -118 -98 -178 -113 -112 -273
-160 -403 -121 -64 19 -87 53 -109 157 -38 176 12 425 117 589 l29 46 123 12
c181 18 300 43 623 131 431 118 1111 326 1329 407 104 38 271 127 345 183 36
26 68 49 72 49 3 1 41 -36 83 -81z m-33711 -366 c1155 -1176 2742 -1932 4426
-2107 464 -48 970 -48 1430 1 167 17 433 57 569 85 51 10 99 19 105 19 7 0 18
-21 24 -47 6 -27 63 -259 126 -518 542 -2218 775 -3416 741 -3804 -32 -358
-127 -409 -995 -530 -788 -110 -1572 -159 -2350 -148 -286 4 -420 10 -485 21
-437 74 -799 334 -993 713 -27 54 -62 132 -77 173 -22 62 -262 1084 -268 1143
-2 16 26 27 187 73 104 30 212 67 240 82 71 39 139 111 178 189 31 64 33 73
33 173 -1 86 -5 116 -24 163 -30 76 -121 174 -195 210 -121 59 -213 60 -401 2
-731 -224 -1567 -263 -2350 -109 -451 88 -935 258 -1310 459 -152 82 -249 101
-361 71 -123 -33 -241 -133 -286 -243 -19 -48 -23 -76 -23 -163 0 -97 2 -110
32 -173 58 -121 106 -159 374 -291 329 -161 654 -286 979 -376 l115 -31 -3
-37 c-1 -20 -27 -374 -57 -787 -59 -825 -60 -827 -133 -941 -73 -113 -195
-198 -328 -230 -60 -14 -122 -15 -479 -11 -746 10 -1347 75 -2066 223 -495
101 -1164 289 -1312 367 -72 38 -147 119 -186 200 -72 153 -234 1273 -315
2182 -47 518 -124 1758 -111 1773 2 2 52 -4 112 -12 59 -9 158 -21 218 -28
150 -17 742 -17 905 0 1084 114 1974 499 2810 1215 146 126 522 505 661 667
184 215 428 527 514 658 l29 44 75 -84 c41 -45 143 -152 225 -236z m6951 223
c50 -21 94 -41 98 -45 4 -4 -4 -41 -18 -83 -14 -42 -34 -115 -45 -164 -11 -48
-23 -99 -27 -113 -4 -18 -23 43 -64 205 -32 127 -59 234 -59 239 0 4 6 6 13 3
6 -3 53 -22 102 -42z m46675 -283 c58 -24 94 -45 94 -53 -1 -8 -18 -68 -37
-134 -20 -66 -42 -147 -48 -180 l-12 -60 -58 230 c-32 127 -59 234 -59 239 0
4 6 6 13 3 6 -3 55 -23 107 -45z m-23465 -92 c55 -23 101 -43 102 -44 1 -1
-12 -42 -29 -91 -16 -48 -40 -136 -52 -194 l-22 -105 -61 242 c-34 137 -56
241 -49 239 6 -3 56 -24 111 -47z m15780 -198 c228 -225 386 -364 610 -532
1188 -892 2804 -1448 4502 -1550 220 -13 789 -13 1003 0 323 20 665 61 957
116 76 14 152 28 168 31 l30 5 104 -424 c425 -1744 672 -2890 746 -3460 25
-194 35 -405 24 -517 -28 -299 -134 -367 -724 -460 -823 -130 -1550 -185
-2440 -185 -462 0 -566 3 -650 17 -418 68 -761 299 -971 654 -99 167 -122 240
-259 842 -69 304 -125 554 -123 556 2 1 44 12 93 25 150 38 308 90 351 115 64
37 149 136 174 202 88 228 -28 475 -258 552 -91 31 -168 28 -303 -13 -660
-200 -1342 -259 -2025 -176 -573 70 -1116 235 -1622 492 -189 96 -242 112
-337 105 -372 -28 -525 -488 -243 -732 24 -21 144 -87 273 -150 320 -158 606
-268 943 -365 74 -21 137 -41 140 -44 7 -7 -94 -1424 -109 -1545 -29 -219
-202 -406 -417 -450 -67 -14 -536 -14 -817 -1 -939 45 -1840 202 -2726 475
-118 36 -242 79 -277 95 -122 57 -215 175 -246 311 -19 83 -87 488 -125 744
-111 746 -196 1660 -245 2630 -9 165 -18 348 -22 408 l-6 107 145 0 c952 0
2271 552 3466 1450 342 257 664 539 891 778 58 61 105 111 105 111 0 1 99 -97
220 -217z m-23155 -385 c907 -764 2035 -1298 3360 -1591 1166 -258 2446 -282
3497 -66 53 11 98 18 101 16 10 -11 283 -1138 441 -1821 312 -1358 441 -2077
441 -2462 -1 -403 -95 -477 -740 -578 -865 -135 -1664 -192 -2561 -182 -524 6
-557 9 -749 73 -397 133 -723 456 -855 847 -32 97 -267 1127 -261 1144 3 7 12
13 20 13 33 0 335 92 391 120 162 78 258 264 226 437 -33 179 -157 306 -336
343 -79 16 -124 10 -306 -44 -281 -83 -555 -137 -879 -173 -191 -21 -761 -24
-940 -5 -665 72 -1182 219 -1745 498 -238 118 -292 134 -397 115 -180 -31
-316 -166 -349 -345 -24 -128 21 -264 120 -363 47 -47 87 -70 285 -168 127
-62 301 -141 386 -175 169 -68 485 -175 623 -210 48 -13 87 -28 87 -34 0 -64
-113 -1545 -121 -1584 -35 -175 -175 -327 -358 -389 -63 -22 -80 -22 -417 -23
-375 0 -590 9 -939 41 -795 71 -1623 239 -2349 476 -177 57 -226 82 -291 147
-83 83 -111 153 -151 377 -182 1023 -297 2164 -360 3575 l-6 151 169 6 c471
19 938 124 1468 332 994 389 2118 1132 2840 1876 l130 134 205 -205 c113 -113
257 -249 320 -303z m-30124 163 c70 -30 171 -101 236 -165 341 -332 419 -863
214 -1451 -100 -288 -211 -471 -319 -526 -59 -29 -151 -22 -239 21 -221 105
-523 424 -700 738 -142 254 -245 550 -263 761 l-7 78 53 47 c198 174 615 421
819 485 36 12 72 23 80 26 33 10 81 5 126 -14z m22395 -559 c37 -38 53 -66 69
-118 25 -79 37 -262 26 -394 l-7 -85 -237 -48 c-130 -27 -248 -53 -261 -58
-16 -6 -70 -2 -165 12 -78 12 -156 23 -173 26 -30 4 -33 8 -33 40 0 103 60
285 130 390 31 48 38 53 96 67 95 24 198 68 340 146 71 39 138 71 148 71 11 0
41 -22 67 -49z m1749 -1144 c0 -19 7 -184 15 -368 49 -1111 112 -1906 216
-2728 68 -540 165 -1140 216 -1334 14 -54 24 -100 22 -102 -2 -2 -431 -128
-954 -280 -522 -152 -970 -282 -995 -289 l-45 -13 2 2336 c1 1285 2 2373 2
2418 0 79 0 82 24 88 24 6 1475 302 1490 304 4 1 7 -14 7 -32z m-2503 -361
c56 -9 114 -18 129 -22 l27 -7 -6 -151 c-16 -354 -19 -1504 -8 -2606 12 -1211
4 -2176 -18 -2189 -16 -10 -1334 -74 -1368 -67 -48 11 -110 61 -134 108 -20
39 -23 68 -35 343 -63 1495 -72 2822 -24 3525 21 308 58 575 100 729 15 55 81
127 166 181 129 82 306 137 524 166 133 17 503 11 647 -10z m-18223 -4900
c518 -115 1104 -201 1645 -241 473 -35 1114 -43 1276 -16 28 5 51 8 52 7 0 0
13 -107 27 -236 62 -568 105 -1165 131 -1830 9 -217 20 -471 25 -565 42 -770
6 -1068 -144 -1190 -146 -118 -318 -143 -1180 -175 -356 -13 -1377 -13 -1696
0 -1367 56 -2322 232 -2677 493 -120 89 -227 324 -253 557 -64 566 472 1155
1205 1326 109 25 138 28 315 29 231 0 304 -14 489 -96 91 -41 128 -52 187 -56
130 -10 241 34 334 133 74 79 101 147 107 264 3 47 -12 414 -31 815 -40 817
-41 825 -25 825 6 0 102 -20 213 -44z m11180 -201 c29 -226 65 -447 151 -920
137 -755 168 -1001 168 -1360 0 -379 -49 -676 -160 -975 -154 -412 -440 -737
-731 -830 -183 -59 -512 -113 -862 -141 -190 -16 -708 -15 -885 0 -568 50
-1016 173 -1295 357 -98 64 -208 169 -259 247 -115 178 -141 426 -67 645 38
110 100 235 238 477 214 374 300 565 357 787 106 413 103 850 -9 1405 -17 80
-30 149 -30 153 0 4 255 10 568 13 670 6 1018 26 1627 93 398 43 981 131 1120
168 28 7 51 13 51 12 1 -1 9 -59 18 -131z m35396 -59 c403 -93 952 -184 1405
-230 466 -49 1137 -75 1435 -57 102 6 194 13 206 17 19 5 21 -1 32 -103 76
-688 117 -1246 147 -1988 8 -209 20 -468 26 -575 15 -264 15 -694 0 -797 -35
-240 -95 -346 -234 -412 -153 -73 -340 -93 -1117 -121 -354 -13 -1323 -13
-1645 0 -1396 55 -2387 240 -2720 507 -54 43 -67 62 -123 173 -84 169 -114
282 -115 450 -2 176 25 287 110 455 132 260 379 489 699 649 231 116 476 176
719 176 205 0 321 -25 506 -111 144 -66 262 -65 392 4 68 35 145 115 176 183
47 100 47 96 8 945 -21 437 -39 811 -41 832 -4 32 -1 37 12 33 10 -3 64 -16
122 -30z m-23384 -110 c860 -190 1826 -290 2628 -272 155 3 299 7 321 9 l40 2
16 -151 c68 -611 115 -1248 139 -1894 5 -146 17 -407 26 -580 21 -407 15 -793
-14 -926 -66 -305 -214 -383 -787 -414 -498 -26 -789 -33 -1380 -34 -1038 0
-1775 48 -2440 160 -545 91 -973 237 -1121 381 -80 79 -181 315 -205 482 -67
471 254 954 816 1226 224 109 418 160 645 171 210 11 353 -15 540 -98 103 -46
124 -52 201 -56 95 -5 158 10 235 55 58 33 130 113 159 176 48 103 48 100 11
898 -20 409 -38 781 -42 827 -3 45 -2 82 3 82 4 0 99 -20 209 -44z m34685
-308 c16 -113 67 -415 113 -670 128 -700 158 -913 175 -1241 29 -536 -72
-1044 -284 -1417 -156 -276 -385 -488 -603 -559 -331 -108 -1008 -175 -1543
-151 -1048 46 -1722 339 -1844 800 -22 82 -29 233 -16 319 24 155 82 283 289
646 69 121 154 279 188 350 241 502 288 1025 158 1733 -13 75 -29 153 -34 172
-21 76 -59 70 413 70 653 0 1146 28 1798 100 396 44 909 121 1089 163 l55 13
8 -61 c5 -33 21 -153 38 -267z m-23492 115 c18 -170 69 -480 155 -949 138
-750 172 -1052 163 -1429 -6 -261 -28 -429 -82 -640 -108 -423 -310 -757 -578
-956 -99 -74 -177 -111 -302 -144 -404 -105 -1050 -157 -1560 -125 -934 58
-1545 309 -1721 705 -41 95 -57 193 -52 329 4 103 10 135 37 216 39 116 113
264 261 520 236 411 322 628 381 965 27 154 37 484 20 675 -17 197 -74 549
-107 661 -4 13 21 15 223 11 417 -8 1129 22 1648 68 487 44 1205 143 1415 194
91 23 85 30 99 -101z"/>
<path d="M65465 36370 c-325 -17 -589 -40 -645 -57 -125 -39 -240 -155 -276
-280 -26 -89 -16 -211 24 -294 42 -87 137 -178 219 -209 83 -31 141 -34 378
-16 876 66 1823 32 2693 -95 73 -10 159 -19 191 -19 186 0 348 128 397 315 38
140 -11 303 -121 404 -82 75 -143 97 -380 130 -342 49 -649 81 -1085 112 -198
14 -1172 20 -1395 9z"/>
<path d="M59145 36314 c-681 -25 -1277 -83 -1830 -178 -160 -28 -207 -43 -269
-85 -61 -42 -104 -95 -140 -171 -29 -60 -31 -73 -31 -175 0 -104 2 -114 32
-176 67 -136 224 -238 365 -239 21 0 120 13 220 30 377 61 743 103 1188 137
288 21 1306 25 1562 5 108 -8 174 -9 210 -2 217 41 373 257 339 470 -28 173
-165 316 -334 349 -121 23 -997 47 -1312 35z"/>
<path d="M58793 34966 c-155 -29 -300 -97 -428 -200 -263 -210 -459 -606 -545
-1101 -70 -405 -70 -920 0 -1353 129 -796 434 -1382 817 -1568 112 -54 189
-66 388 -61 157 3 177 6 263 34 133 45 221 100 333 212 177 177 299 398 399
723 279 906 172 2225 -232 2886 -127 209 -288 355 -454 412 -62 22 -88 24
-269 26 -135 2 -223 -1 -272 -10z"/>
<path d="M66115 34966 c-210 -40 -368 -129 -525 -292 -250 -260 -401 -641
-476 -1199 -21 -154 -29 -607 -15 -791 73 -920 383 -1653 808 -1913 219 -134
530 -117 770 42 88 58 223 199 292 302 372 563 502 1649 310 2589 -138 676
-413 1129 -755 1246 -86 29 -297 37 -409 16z"/>
<path d="M62530 32542 c-592 -226 -1019 -818 -1070 -1483 -21 -282 33 -555
161 -814 79 -159 170 -285 304 -421 274 -278 620 -454 999 -510 85 -13 152
-15 286 -11 265 8 375 41 473 139 169 169 167 430 -4 593 -108 103 -216 133
-384 108 -176 -27 -339 -3 -501 71 -255 118 -444 344 -490 587 -74 387 164
820 531 965 56 22 84 42 141 98 97 97 119 152 119 296 0 99 -2 109 -33 173
-43 86 -113 156 -198 198 -60 30 -78 34 -163 36 -85 3 -104 0 -171 -25z"/>
<path d="M61840 27121 l-216 -6 -67 -33 c-86 -43 -156 -113 -199 -199 -31 -64
-33 -74 -33 -173 0 -144 22 -199 119 -296 53 -53 86 -77 131 -95 l60 -24 1496
0 1495 0 76 38 c339 167 298 655 -65 769 -60 19 -104 19 -1322 22 -693 2
-1357 1 -1475 -3z"/>
<path d="M12190 34961 c-264 -58 -479 -211 -643 -457 -340 -511 -453 -1405
-291 -2294 138 -750 438 -1298 808 -1471 130 -61 319 -75 471 -34 389 103 677
508 829 1165 29 126 50 248 73 430 25 196 25 805 0 1010 -70 568 -199 983
-403 1293 -61 91 -211 242 -287 286 -114 67 -177 83 -332 87 -110 3 -158 0
-225 -15z"/>
<path d="M19440 34961 c-264 -58 -479 -210 -642 -456 -334 -502 -451 -1368
-303 -2238 131 -774 438 -1348 815 -1526 134 -64 319 -78 475 -36 472 125 791
693 902 1605 22 181 25 772 5 945 -40 345 -90 588 -172 838 -102 307 -222 523
-379 677 -95 93 -181 149 -281 182 -94 30 -302 35 -420 9z"/>
<path d="M15545 32826 c-27 -7 -86 -28 -130 -48 -610 -266 -1030 -947 -1002
-1628 15 -359 138 -677 373 -961 387 -466 1052 -715 1609 -600 112 23 183 58
247 122 159 159 159 423 2 582 -88 90 -201 134 -318 123 -217 -19 -305 -19
-401 3 -268 62 -516 261 -621 497 -88 198 -73 466 36 685 106 210 223 324 440
427 83 40 117 62 158 106 160 169 158 420 -3 581 -105 104 -249 146 -390 111z"/>
<path d="M17707 28341 c-69 -23 -89 -35 -192 -121 -335 -280 -764 -430 -1225
-430 -363 0 -679 86 -983 268 -116 70 -170 85 -276 80 -208 -10 -356 -146
-392 -358 -16 -102 21 -231 92 -321 64 -81 363 -249 593 -334 243 -89 520
-147 801 -166 580 -39 1212 127 1690 446 221 147 348 263 398 364 30 62 32 72
32 176 0 105 -2 114 -33 178 -42 86 -113 156 -198 198 -58 29 -79 34 -158 36
-69 2 -105 -2 -149 -16z"/>
<path d="M39210 27780 c-446 -42 -867 -197 -1219 -448 -163 -116 -230 -239
-218 -403 18 -274 290 -453 551 -363 27 9 96 49 155 89 190 130 398 220 615
267 87 19 132 22 321 23 191 0 235 -3 333 -23 162 -33 277 -73 437 -152 169
-84 292 -171 437 -308 136 -129 202 -164 323 -170 136 -7 245 36 335 134 82
89 122 226 101 345 -19 110 -52 162 -181 290 -377 373 -877 620 -1415 700
-151 22 -437 32 -575 19z"/>
<path d="M4740 20893 c-323 -23 -781 -113 -1055 -206 -483 -165 -947 -473
-1303 -867 -547 -604 -889 -1357 -988 -2180 -22 -178 -25 -591 -6 -755 101
-853 463 -1614 1062 -2229 587 -602 1282 -948 2132 -1062 159 -21 574 -29 750
-15 1334 111 2443 840 2988 1966 483 999 490 2169 20 3117 -314 632 -752 1174
-1257 1556 -471 356 -1020 578 -1623 658 -121 16 -588 27 -720 17z m469 -834
c615 -44 1135 -271 1605 -702 376 -345 752 -915 905 -1372 145 -438 172 -935
76 -1411 -119 -586 -439 -1140 -866 -1499 -708 -595 -1705 -815 -2625 -580
-172 44 -296 90 -479 179 -275 133 -490 284 -713 500 -471 457 -764 1010 -873
1647 -26 154 -37 529 -20 689 26 241 85 500 166 725 56 157 209 472 298 612
365 576 863 955 1449 1102 387 98 745 134 1077 110z"/>
<path d="M4655 19684 c-16 -2 -80 -11 -142 -20 -243 -33 -502 -113 -731 -225
-111 -55 -155 -82 -195 -123 -95 -95 -142 -236 -119 -359 44 -234 265 -390
488 -343 42 8 115 36 180 69 344 172 733 219 1124 135 197 -42 367 -111 543
-222 58 -37 125 -73 149 -82 138 -49 304 -14 413 87 97 90 140 198 133 335 -4
70 -10 94 -41 156 -19 40 -53 89 -74 110 -63 60 -199 145 -368 228 -234 115
-451 185 -719 231 -95 17 -174 22 -366 24 -135 2 -258 1 -275 -1z"/>
<path d="M6711 18639 c-218 -37 -380 -258 -343 -468 16 -90 50 -157 120 -241
81 -96 143 -201 182 -307 39 -108 53 -135 97 -184 82 -91 189 -139 308 -139
207 0 369 131 411 331 19 91 13 142 -33 273 -100 287 -327 617 -479 694 -77
39 -179 55 -263 41z"/>
<path d="M18308 47105 c-77 -25 -167 -93 -215 -163 -75 -110 -72 -84 -88 -877
-8 -390 -15 -720 -15 -732 l0 -23 -347 0 c-453 0 -927 -23 -1366 -66 -88 -8
-162 -12 -165 -9 -4 4 -8 64 -10 133 -9 468 -46 1251 -63 1338 -33 171 -172
304 -348 335 -211 38 -435 -125 -470 -341 -6 -35 -4 -137 4 -285 36 -592 40
-774 40 -1685 0 -919 -4 -1072 -41 -1692 -14 -232 -14 -263 0 -318 33 -129
105 -219 224 -277 73 -37 80 -38 181 -38 99 0 111 2 174 32 129 61 215 178
237 319 18 124 40 587 66 1435 l6 197 47 6 c335 44 1100 86 1574 86 l248 0 -5
-72 c-3 -40 -11 -415 -17 -833 -13 -857 -16 -817 61 -933 77 -115 181 -173
321 -180 107 -5 173 12 258 69 75 50 134 130 162 218 19 63 21 142 55 1971 19
1048 33 1946 31 1995 -6 131 -32 192 -121 281 -91 90 -151 116 -281 121 -60 2
-106 -3 -137 -12z"/>
</g>
</svg>
