<?xml version="1.0" standalone="no"?>
<!DOCTYPE svg PUBLIC "-//W3C//DTD SVG 20010904//EN"
 "http://www.w3.org/TR/2001/REC-SVG-20010904/DTD/svg10.dtd">
<svg version="1.0" xmlns="http://www.w3.org/2000/svg"
 width="1024.000000pt" height="1024.000000pt" viewBox="0 0 1024.000000 1024.000000"
 preserveAspectRatio="xMidYMid meet">

<g transform="translate(0.000000,1024.000000) scale(0.100000,-0.100000)"
fill="#000000" stroke="none">
<path d="M668 9833 c19 -8 14 -21 -10 -25 -14 -2 -25 -13 -29 -28 -4 -14 -7
-140 -7 -280 1 -140 4 -239 7 -220 6 32 9 35 45 37 22 2 40 4 42 5 8 9 15 80
7 75 -6 -4 -8 3 -5 18 2 15 0 25 -7 25 -6 0 -11 6 -11 13 0 11 -39 37 -55 37
-2 0 -6 -21 -8 -47 -2 -29 -4 -14 -5 39 -1 47 1 93 4 102 3 9 24 18 51 22 44
6 45 7 39 37 -3 16 -7 68 -8 116 -1 69 -2 77 -7 41 l-7 -45 -8 43 c-5 30 -13
42 -24 41 -11 0 -12 -2 -4 -6z m12 -133 c0 -11 -4 -20 -10 -20 -5 0 -10 -9
-10 -20 0 -11 -7 -20 -15 -20 -16 0 -20 35 -9 64 9 24 44 20 44 -4z m3 -350
c-3 -11 -14 -20 -24 -20 -27 0 -24 28 4 33 12 2 23 5 24 6 0 0 -1 -8 -4 -19z"/>
<path d="M4346 9445 c-127 -45 -163 -211 -65 -299 21 -20 45 -36 53 -36 7 0
16 -10 20 -22 8 -30 8 -189 -1 -376 l-6 -152 -53 0 -54 0 -34 68 c-68 134
-209 298 -349 403 -133 100 -316 182 -512 228 -106 26 -309 45 -384 37 -139
-14 -169 -18 -245 -36 -330 -77 -581 -238 -781 -500 -31 -41 -72 -104 -90
-140 l-33 -66 -70 4 c-60 4 -79 0 -131 -23 -129 -58 -183 -176 -198 -435 -5
-93 -3 -116 17 -184 27 -89 82 -181 131 -219 61 -46 112 -60 200 -55 l80 5 16
-31 c25 -48 126 -168 194 -230 141 -127 361 -245 544 -290 51 -13 90 -28 89
-34 -1 -7 -2 -29 -3 -49 l-1 -38 -193 -1 c-204 -1 -280 -11 -358 -49 -63 -30
-160 -106 -203 -159 l-36 -43 -62 31 c-59 29 -68 31 -183 31 -118 0 -123 -1
-189 -34 -85 -44 -165 -128 -197 -208 -19 -46 -24 -79 -24 -158 -1 -55 -7
-110 -13 -121 -28 -52 -59 -281 -68 -504 -5 -120 -11 -166 -26 -205 -28 -69
-35 -199 -15 -258 14 -43 14 -48 -5 -86 -13 -27 -21 -69 -25 -133 l-6 -93
-106 0 -106 0 -6 -135 c-4 -74 -8 -285 -10 -469 -3 -328 -3 -334 18 -357 18
-20 31 -24 77 -24 54 0 56 -1 56 -27 0 -43 37 -107 82 -143 133 -107 320 -106
425 2 44 47 83 115 83 148 0 17 6 20 51 20 42 0 55 5 78 28 l28 28 6 394 c7
435 19 567 30 340 10 -213 46 -312 167 -463 56 -69 69 -91 60 -102 -15 -18
-24 -697 -12 -925 5 -96 5 -182 1 -191 -11 -22 -12 -91 -11 -704 l2 -530 -23
-15 c-50 -33 -141 -128 -182 -190 -92 -139 -125 -253 -125 -436 l0 -104 -110
0 c-99 0 -111 -2 -130 -22 -25 -27 -26 -59 -2 -85 17 -19 32 -20 857 -11 462
5 1188 7 1613 5 832 -4 812 -5 812 47 0 12 -11 33 -25 46 -24 23 -33 24 -159
24 l-134 1 -5 145 c-4 114 -9 159 -27 210 -47 139 -122 243 -262 364 l-37 32
-5 489 c-3 270 -5 501 -5 515 -1 14 2 59 5 101 4 57 1 86 -10 114 -13 31 -14
41 -4 53 10 12 13 132 13 536 0 482 -1 524 -18 549 l-17 27 46 57 c26 32 50
59 54 61 5 2 28 -34 53 -80 50 -90 109 -154 172 -186 93 -46 206 -64 290 -44
145 33 277 180 292 325 3 29 -2 162 -10 297 -8 135 -13 306 -10 380 3 106 2
139 -9 154 -12 16 -12 26 -1 70 30 112 23 199 -19 259 -20 27 -21 43 -23 256
-1 124 -7 255 -14 291 -13 77 -38 148 -59 173 -13 15 -13 23 -2 56 19 59 9
157 -23 223 -38 77 -122 162 -194 196 -104 48 -301 38 -362 -19 -28 -26 -43
-24 -66 11 -29 44 -143 140 -191 161 -39 18 -125 42 -189 54 -16 3 -113 8
-215 11 -102 4 -186 7 -187 8 0 0 -3 19 -5 40 -3 45 -23 35 182 91 186 51 376
168 540 334 47 48 101 110 121 140 l35 53 80 2 c137 3 234 67 292 193 36 79
41 115 43 290 1 183 -31 275 -129 368 l-32 30 0 285 1 285 39 27 c50 35 71 68
77 123 12 102 -31 173 -120 200 -61 18 -71 18 -121 0z m106 -132 c51 -46 -19
-121 -74 -79 -20 15 -23 48 -8 77 13 24 57 25 82 2z m-1282 -163 c213 -27 381
-89 559 -207 222 -148 390 -385 440 -623 5 -25 14 -63 20 -85 22 -83 4 -258
-40 -395 -52 -159 -204 -347 -380 -467 -121 -83 -329 -160 -511 -188 -128 -20
-381 -16 -503 8 -472 93 -793 369 -881 760 -22 97 -25 127 -20 223 13 251 102
444 290 629 271 268 642 392 1026 345z m1225 -750 c17 -10 42 -31 55 -45 25
-27 25 -27 25 -233 0 -232 -6 -257 -69 -300 -39 -27 -148 -45 -130 -21 26 33
38 120 41 299 1 102 -1 203 -6 225 -5 22 -11 55 -15 74 l-6 33 38 -7 c20 -4
51 -15 67 -25z m-2639 5 c-28 -74 -36 -404 -13 -525 8 -41 13 -77 11 -79 -10
-11 -79 14 -110 41 -59 52 -77 99 -82 213 -5 112 12 256 36 296 21 37 79 68
126 69 30 0 37 -3 32 -15z m1436 -1380 c4 -5 8 -22 8 -37 l0 -28 -190 0 -190
0 0 40 0 41 183 -3 c106 -2 185 -7 189 -13z m-427 -185 c264 -8 421 -8 640 1
l290 13 83 -27 c98 -32 150 -65 219 -141 41 -44 56 -71 79 -143 16 -48 29 -95
29 -103 0 -8 4 -21 8 -27 4 -7 9 -383 10 -835 l2 -823 -24 -85 c-60 -216 -181
-350 -393 -438 l-63 -26 -520 -4 c-688 -5 -708 -5 -779 13 -147 37 -266 133
-340 274 -86 164 -80 87 -84 1052 -2 739 -1 867 13 930 46 226 205 366 425
377 30 2 213 -2 405 -8z m-1013 -200 c84 -32 81 -27 62 -106 -11 -45 -19 -138
-24 -266 -3 -109 -9 -200 -12 -203 -8 -9 -154 33 -206 59 -124 63 -190 161
-193 287 -3 111 78 203 216 244 48 15 88 11 157 -15z m2766 -16 c79 -41 117
-103 117 -188 -2 -170 -145 -326 -327 -354 l-56 -9 -4 206 c-4 175 -7 215 -25
263 l-20 58 22 14 c82 54 199 57 293 10z m172 -461 c1 -5 5 -28 10 -53 12 -59
32 -379 24 -402 -5 -17 -7 -17 -37 -1 -25 13 -57 17 -142 18 -99 0 -116 -3
-170 -28 -33 -16 -75 -42 -92 -60 l-33 -31 0 172 0 172 43 0 c57 1 120 16 181
45 57 27 163 112 186 150 14 24 30 33 30 18z m-3258 -123 c51 -42 121 -75 203
-94 61 -15 73 -22 95 -54 24 -36 25 -41 20 -169 l-5 -132 -65 49 c-89 67 -140
83 -249 78 -56 -3 -98 -11 -120 -22 l-34 -18 7 134 c6 129 19 255 30 291 3 9
8 24 11 33 4 13 13 7 38 -25 18 -23 49 -55 69 -71z m345 -187 c-2 -16 -4 -3
-4 27 0 30 2 43 4 28 2 -16 2 -40 0 -55z m2877 -282 c54 -27 102 -85 112 -138
15 -82 -62 -189 -158 -218 -121 -36 -213 -2 -279 104 -35 55 -36 87 -4 150 58
116 206 161 329 102z m-3131 8 c21 -5 54 -24 74 -42 39 -35 83 -117 83 -158 0
-33 -49 -110 -88 -138 -59 -42 -172 -46 -245 -9 -80 41 -139 146 -118 211 16
48 69 107 115 128 46 21 122 24 179 8z m2785 -448 c58 -48 76 -57 138 -72 94
-22 205 -4 277 45 l37 25 0 -172 c0 -95 3 -223 7 -286 6 -112 6 -113 -14 -100
-17 10 -23 10 -35 -2 -19 -17 -11 -49 33 -136 l31 -62 -19 -38 c-25 -47 -91
-99 -146 -114 -68 -18 -181 -7 -223 23 -57 41 -124 126 -137 176 -7 26 -21 51
-34 59 -17 11 -20 19 -14 32 29 53 41 177 41 416 0 135 3 245 6 245 3 0 26
-17 52 -39z m-2608 -66 c0 -83 -1 -85 -20 -75 -14 8 -37 8 -78 1 -31 -6 -133
-12 -226 -14 l-168 -3 6 60 c3 32 6 69 6 82 l0 23 36 -24 c53 -36 108 -50 199
-50 75 0 85 3 160 42 44 23 81 42 83 43 1 0 2 -38 2 -85z m-86 -191 c3 -9 6
-180 6 -380 l0 -364 -93 0 c-73 0 -101 4 -132 20 -32 16 -54 19 -121 16 -47
-2 -94 -11 -112 -20 -21 -11 -57 -16 -112 -16 l-80 0 0 370 0 370 36 0 37 0
-7 -47 c-3 -27 -6 -178 -6 -338 l-1 -290 233 3 c128 2 241 6 251 8 9 3 21 13
26 22 5 9 10 159 12 332 2 173 5 318 7 323 6 14 50 7 56 -9z m-159 -86 c6 -55
-7 -473 -15 -482 -3 -2 -76 -6 -162 -8 l-157 -3 3 255 c2 140 6 263 11 273 6
15 24 17 160 17 l154 0 6 -52z m2454 -652 c7 -31 11 -182 10 -460 l-1 -414
-49 35 c-130 93 -327 93 -464 0 -21 -15 -40 -25 -42 -23 -2 2 -5 184 -6 405
l-2 401 110 1 c109 0 151 3 190 13 53 12 168 56 197 74 18 11 35 19 39 16 4
-2 12 -24 18 -48z m-1622 -32 c93 -29 248 -48 320 -40 49 6 53 4 57 -16 8 -40
18 -713 11 -751 l-7 -36 -46 31 c-91 63 -231 85 -338 53 -27 -8 -75 -30 -106
-49 l-57 -34 0 451 c0 248 2 454 5 459 3 4 22 -4 44 -18 21 -14 74 -37 117
-50z m-907 -46 c59 -30 74 -67 40 -103 -59 -63 -171 -70 -235 -13 -56 48 -44
97 30 123 58 21 114 18 165 -7z m1840 -3 c6 -16 10 -198 10 -458 0 -238 4
-438 9 -446 6 -9 4 -22 -5 -37 -24 -36 -19 -234 6 -249 5 -3 4 -18 -2 -33 -7
-17 -12 -195 -16 -503 l-5 -477 -69 -72 c-38 -39 -83 -96 -100 -127 l-31 -55
-20 38 c-29 57 -101 148 -145 183 l-39 30 -6 475 c-5 326 -11 483 -19 501 -9
19 -8 31 1 53 22 46 26 164 8 219 -13 39 -14 57 -5 93 6 28 11 206 13 460 1
228 3 417 4 420 0 3 91 6 201 8 l200 3 10 -26z m-775 -830 c51 -9 92 -30 133
-69 42 -39 60 -73 72 -135 9 -47 7 -59 -23 -143 -5 -15 -28 -45 -52 -67 -80
-74 -213 -90 -314 -39 -56 29 -115 111 -130 180 -19 84 26 179 110 235 42 28
123 54 149 48 8 -2 33 -6 55 -10z m1318 -18 c195 -114 153 -405 -64 -457 -105
-25 -232 14 -283 89 -34 48 -59 151 -51 202 12 68 61 130 135 167 60 31 70 33
141 30 60 -4 86 -10 122 -31z m155 -857 c0 -312 -3 -390 -13 -390 -8 0 -41 7
-74 16 -34 8 -66 12 -71 9 -6 -3 -10 -1 -10 4 0 7 -34 11 -93 11 -97 0 -230
-27 -273 -55 -12 -7 -24 -11 -28 -8 -8 8 -8 172 1 510 l6 270 44 -33 c51 -39
156 -74 222 -74 82 0 181 40 251 99 19 17 36 31 37 31 1 0 1 -175 1 -390z
m-1238 -11 l0 -391 -22 5 c-13 2 -50 12 -83 21 -33 10 -114 20 -180 23 -104 5
-130 3 -190 -15 -38 -12 -70 -20 -72 -18 -7 7 -7 745 0 752 4 4 24 -9 45 -28
88 -86 243 -103 372 -41 36 17 79 43 95 57 17 14 31 25 33 26 1 0 2 -176 2
-391z m-193 -475 c192 -44 362 -200 430 -394 20 -59 27 -101 31 -193 l4 -117
-581 1 -582 2 2 88 c2 125 15 182 60 276 70 147 211 272 353 314 39 11 82 24
96 29 41 13 115 11 187 -6z m1301 -4 c90 -22 131 -44 228 -121 68 -54 156
-173 186 -253 25 -64 48 -194 48 -266 l0 -55 -585 -1 -585 -2 0 112 c0 96 4
122 29 194 65 187 202 324 387 386 90 31 186 33 292 6z"/>
<path d="M2455 8428 c-86 -31 -126 -96 -127 -210 -1 -57 3 -82 20 -114 55
-108 165 -135 248 -62 46 41 63 76 70 145 7 69 -8 135 -42 181 -42 54 -114 80
-169 60z"/>
<path d="M3484 8411 c-70 -43 -98 -108 -92 -214 6 -128 63 -197 162 -197 59 0
101 22 139 72 54 72 58 149 15 250 -40 92 -148 135 -224 89z"/>
<path d="M2857 8092 c-29 -32 -21 -75 23 -124 52 -59 84 -72 169 -66 84 6 131
32 166 92 40 68 30 106 -28 106 -21 0 -43 -12 -73 -40 -35 -32 -51 -40 -82
-40 -33 0 -44 6 -79 45 -43 48 -70 56 -96 27z"/>
<path d="M2460 6486 c-59 -17 -84 -30 -132 -74 -93 -84 -105 -149 -97 -532 6
-328 9 -344 72 -416 79 -89 37 -84 712 -84 l595 0 48 24 c58 29 116 92 146
155 20 43 21 64 24 359 4 360 -1 388 -68 465 -43 48 -117 90 -185 102 -22 5
-272 9 -555 11 -391 2 -526 0 -560 -10z m1125 -138 c41 -23 81 -62 102 -101
16 -29 18 -61 15 -322 -3 -317 -5 -330 -62 -378 -50 -43 -116 -50 -368 -40
-125 4 -353 5 -507 1 -271 -6 -281 -6 -313 14 -18 11 -44 37 -57 57 -23 36
-23 40 -27 351 -3 353 -5 340 69 397 25 19 54 30 92 35 31 3 274 5 541 4 427
-2 489 -4 515 -18z"/>
<path d="M2642 6130 c-40 -24 -66 -80 -57 -121 4 -16 21 -45 40 -64 47 -50 93
-49 146 4 31 31 39 46 39 75 0 49 -23 92 -60 111 -39 20 -69 19 -108 -5z"/>
<path d="M3338 6135 c-33 -19 -68 -74 -68 -110 0 -68 72 -126 134 -105 55 18
103 86 90 127 -19 58 -30 75 -55 88 -35 19 -66 18 -101 0z"/>
<path d="M2872 5908 c-7 -7 -12 -28 -12 -48 0 -28 8 -45 40 -78 47 -49 71 -57
150 -49 67 6 108 29 139 81 37 59 23 106 -29 106 -20 0 -33 -10 -51 -37 -21
-33 -30 -38 -67 -41 -39 -3 -46 0 -79 37 -37 42 -68 52 -91 29z"/>
<path d="M2674 5038 c-75 -19 -98 -89 -48 -148 23 -27 32 -31 67 -28 34 2 45
9 64 37 28 42 29 80 3 113 -24 31 -45 37 -86 26z"/>
<path d="M2965 5026 c-33 -33 -40 -67 -21 -105 23 -43 57 -64 87 -52 67 25 87
113 36 157 -36 31 -71 31 -102 0z"/>
<path d="M3277 5022 c-39 -41 -37 -84 8 -129 40 -40 64 -39 108 8 30 33 34 66
12 108 -26 51 -86 57 -128 13z"/>
<path d="M6145 9446 c-91 -29 -144 -76 -196 -176 l-24 -45 -3 -3842 -2 -3843
-33 -1 c-17 0 -27 -3 -21 -5 17 -7 4 -53 -17 -65 -32 -17 -21 -29 26 -29 l45
0 0 -155 0 -155 -93 0 c-86 0 -95 -2 -116 -24 -28 -30 -23 -68 12 -91 19 -12
36 -13 98 -5 90 11 3489 13 3694 1 97 -6 145 -5 158 3 28 17 32 54 10 84 -19
26 -24 27 -133 30 -110 3 -112 3 -106 25 3 12 6 82 6 156 l0 133 28 -6 c21 -5
24 -4 12 4 -11 9 -1 10 43 6 47 -4 56 -2 48 8 -6 7 -8 16 -4 19 3 4 -4 7 -16
7 -17 0 -22 5 -19 23 3 22 5 22 168 22 163 0 165 0 168 -22 4 -30 22 -30 23 0
1 16 3 17 6 5 2 -9 -1 -27 -7 -38 -13 -24 -4 -43 9 -21 6 8 14 10 22 5 12 -7
12 -5 0 9 -11 14 -11 18 3 23 9 3 16 12 16 20 0 30 -40 35 -270 32 l-230 -3 0
1835 c0 1009 -1 2733 -1 3830 1 1995 1 1995 -20 2058 -27 82 -98 155 -172 177
-27 8 -53 12 -58 9 -5 -3 -9 0 -9 5 0 17 -2992 14 -3045 -3z m3075 -134 c19
-9 48 -37 65 -60 l30 -44 0 -4021 0 -4022 -1625 3 c-893 2 -1626 4 -1627 6 -8
8 -2 8027 6 8048 10 25 63 78 96 96 14 8 447 11 1520 12 1408 0 1502 -1 1535
-18z m720 -7802 c0 -5 -2 -10 -4 -10 -3 0 -8 5 -11 10 -3 6 -1 10 4 10 6 0 11
-4 11 -10z"/>
<path d="M6264 9181 c-17 -10 -40 -31 -52 -46 l-22 -28 0 -624 0 -625 34 -34
34 -34 294 -1 c161 -1 799 -2 1417 -3 l1124 -1 30 22 c61 45 58 5 55 687 l-3
624 -25 27 c-55 59 40 55 -1467 55 -1342 0 -1389 -1 -1419 -19z m2786 -691 l0
-590 -57 0 c-32 0 -69 3 -82 7 -21 5 -23 10 -17 52 3 25 8 168 11 316 3 149 8
331 12 405 l6 135 -29 29 c-16 15 -38 32 -49 35 -11 4 -87 6 -169 5 -129 -2
-153 -5 -175 -22 -51 -37 -51 -37 -51 -510 0 -390 -2 -443 -15 -449 -9 -3 -19
-2 -23 2 -4 3 -8 173 -9 377 -2 281 -6 374 -15 386 -25 29 -73 40 -193 42 -66
1 -129 2 -140 3 -11 0 -32 -3 -47 -7 l-28 -8 0 81 c0 94 -13 128 -62 163 -31
22 -42 23 -183 23 -134 0 -153 -2 -177 -20 -49 -36 -50 -49 -48 -427 2 -194 2
-410 1 -480 l-1 -127 -33 -6 c-18 -4 -49 -5 -70 -3 l-37 3 36 51 c34 49 35 52
24 95 -15 56 -108 236 -237 460 -56 96 -109 195 -119 220 -24 62 -51 98 -79
105 -21 5 -88 -12 -197 -51 l-37 -13 -18 36 c-36 71 -57 78 -241 74 l-104 -2
-35 -35 -34 -34 3 -446 c2 -329 0 -445 -8 -445 -7 0 -14 6 -17 14 -7 18 1
1125 8 1137 4 5 550 9 1371 9 l1364 0 0 -590z m-1200 305 l0 -55 -110 0 -110
0 0 49 0 50 38 4 c20 2 70 4 110 5 l72 2 0 -55z m940 -75 l0 -60 -105 0 -105
0 0 55 0 54 98 4 c53 1 100 4 105 5 4 1 7 -25 7 -58z m-2155 -11 l0 -54 -90 0
-90 0 -3 29 c-2 15 -1 39 2 52 6 21 12 23 84 26 42 2 82 3 87 3 6 -1 10 -26
10 -56z m324 -43 c26 -41 27 -66 4 -66 -10 0 -42 -14 -72 -30 -70 -39 -88 -38
-100 3 -7 25 -5 35 8 45 21 17 124 80 133 81 3 1 16 -14 27 -33z m902 -73 c1
-47 1 -212 0 -335 l-1 -138 -115 0 -115 0 0 194 c0 106 -3 214 -6 239 l-7 46
49 4 c27 2 82 4 122 5 62 2 72 0 73 -15z m420 -20 c5 -15 9 -38 7 -52 -3 -26
-3 -26 -128 -33 -69 -4 -128 -3 -133 1 -4 4 -4 28 -1 54 7 45 7 46 48 50 22 2
76 4 119 5 76 2 78 1 88 -25z m-1643 -250 l2 -213 -27 0 c-16 0 -58 -3 -95 -7
l-68 -6 0 155 c0 85 3 182 6 216 l7 61 36 3 c20 2 59 3 86 3 l50 0 3 -212z
m2146 107 c-1 -58 -2 -153 -3 -212 l-1 -108 -105 0 -105 0 0 210 0 209 78 4
c42 2 91 3 107 3 l30 -1 -1 -105z m-1720 28 c71 -100 154 -253 142 -260 -18
-12 -76 -9 -76 4 0 9 -3 9 -11 1 -6 -6 -18 -9 -25 -6 -8 3 -14 1 -14 -5 0 -5
-13 -24 -30 -42 -37 -40 -38 -61 0 -130 30 -56 38 -100 19 -100 -12 0 -39 61
-39 87 0 10 -8 34 -19 53 -10 20 -39 88 -64 151 -25 64 -57 139 -71 167 l-26
51 78 40 c42 22 82 40 88 40 6 1 28 -23 48 -51z m1216 -223 l0 -145 -124 0
c-69 0 -127 4 -130 8 -3 5 -6 67 -7 138 l-1 129 93 6 c52 3 111 6 132 7 l37 2
0 -145z m-1436 -168 c20 -54 39 -111 43 -127 l6 -30 -72 0 -71 0 1 188 1 187
28 -60 c15 -33 44 -104 64 -158z m434 1 c12 -42 1 -61 -44 -83 -36 -17 -38
-17 -51 1 -25 34 -17 56 32 92 41 29 53 27 63 -10z m571 -57 c11 -7 12 -18 5
-51 -5 -23 -12 -41 -16 -41 -5 1 -48 1 -97 1 l-89 0 -11 31 c-19 54 -16 58 47
62 115 7 147 7 161 -2z m919 0 c8 -5 12 -22 10 -46 l-3 -38 -89 -1 c-84 -1
-89 0 -97 22 -20 51 -13 61 44 65 102 7 122 7 135 -2z m-2140 -43 c-3 -42 -4
-43 -43 -46 -22 -2 -58 1 -80 5 -35 8 -40 12 -43 40 -3 32 -3 32 50 36 132 9
120 12 116 -35z m1652 -18 l0 -40 -125 0 -125 0 0 34 c0 42 3 43 143 45 l107
1 0 -40z"/>
<path d="M6275 7638 c-11 -6 -35 -24 -52 -41 l-33 -31 0 -609 c0 -590 1 -610
20 -637 11 -15 32 -33 47 -39 21 -8 397 -11 1441 -9 l1414 3 34 38 35 38 -3
604 -3 604 -30 31 c-61 64 47 60 -1467 60 -987 -1 -1389 -4 -1403 -12z m2771
-675 l-1 -568 -35 -3 -35 -3 3 444 c2 280 -1 454 -7 471 -6 14 -25 35 -43 46
-30 19 -47 20 -205 18 l-172 -3 -34 -33 -34 -33 -33 28 c-33 28 -36 28 -181
31 -130 3 -153 1 -193 -16 -76 -34 -75 -31 -77 -434 -1 -194 -4 -392 -6 -440
l-5 -88 -77 0 c-43 0 -153 3 -244 7 l-167 6 -4 31 c-3 17 -7 217 -10 445 -5
456 -2 435 -69 484 -23 18 -40 20 -154 18 -186 -3 -226 -24 -239 -126 l-7 -45
-102 0 -103 0 -6 44 c-8 54 -38 94 -82 112 -50 21 -275 19 -321 -2 -68 -33
-66 -17 -60 -495 2 -237 2 -439 0 -450 -3 -10 -12 -19 -19 -19 -11 0 -14 35
-15 188 -1 455 2 936 7 944 3 4 619 8 1368 8 l1364 0 -2 -567z m-2397 281 c29
-6 31 -9 31 -54 l0 -47 -97 -6 c-53 -3 -101 -3 -105 -1 -10 6 -11 98 -1 107 8
9 130 9 172 1z m2217 -39 c3 -25 5 -48 3 -50 -2 -2 -65 -4 -139 -6 l-135 -3 2
44 c1 24 8 47 15 51 7 5 66 9 130 9 l117 0 7 -45z m-1506 -7 c0 -62 -6 -67
-86 -67 -38 0 -82 -3 -97 -6 l-27 -7 0 61 0 61 105 0 105 0 0 -42z m1025 22
c3 -5 8 -32 12 -58 7 -60 8 -59 -159 -54 l-118 4 0 43 c0 76 -3 75 135 75 70
0 126 -4 130 -10z m-1381 -116 c9 -3 16 -15 16 -25 0 -17 -9 -19 -105 -19
l-105 0 0 25 c0 25 1 25 89 25 49 0 96 -3 105 -6z m1856 -284 l0 -230 -135 0
-135 0 0 230 0 230 135 0 135 0 0 -230z m-2185 212 c6 -4 9 -89 7 -229 l-3
-223 -105 0 -104 0 0 223 c0 123 3 227 7 230 9 9 185 9 198 -1z m693 -229 l2
-213 -109 0 c-109 0 -109 0 -115 26 -4 14 -6 108 -5 210 l1 183 82 4 c44 2 95
3 111 3 l30 -1 3 -212z m1024 92 c-1 -60 -5 -156 -8 -212 l-7 -103 -128 0
-129 0 0 209 c0 245 -19 219 160 217 l115 -1 -3 -110z m-1374 -128 l3 -186
-106 -3 c-59 -2 -109 -1 -111 1 -2 2 -4 87 -4 187 l0 183 98 3 c53 2 102 3
107 2 6 0 11 -72 13 -187z m353 -277 c5 0 9 -20 9 -45 l0 -45 -115 0 -115 0 0
40 c0 33 4 40 23 45 27 6 157 12 175 8 8 -2 18 -3 23 -3z m1484 -50 l0 -45
-119 0 -120 0 -8 34 c-16 60 -12 62 124 59 l123 -3 0 -45z m-2187 31 c8 -5 12
-21 10 -37 l-3 -29 -102 -3 -103 -3 0 41 0 40 93 0 c50 0 98 -4 105 -9z m306
3 c44 -6 46 -8 46 -40 l0 -34 -95 -1 c-52 -1 -101 -2 -107 -3 -8 -1 -14 14
-16 36 -3 40 -12 37 104 46 12 1 42 -1 68 -4z m1390 -5 c3 -3 1 -22 -5 -42
l-10 -37 -114 0 -115 0 0 39 c0 22 6 42 13 45 15 7 224 3 231 -5z"/>
<path d="M6285 6128 c-11 -6 -37 -27 -57 -46 l-38 -36 0 -659 0 -659 39 -39
39 -39 1412 0 1413 0 45 45 44 45 -4 649 c-3 638 -4 651 -24 678 -12 15 -36
38 -54 51 l-33 22 -1381 0 c-985 -1 -1387 -4 -1401 -12z m2760 -125 c3 -10 9
-291 12 -625 l6 -608 -21 0 -22 0 0 511 c0 348 -3 517 -11 531 -6 11 -29 28
-52 38 -37 16 -57 17 -172 10 -71 -5 -143 -13 -160 -18 -21 -6 -43 -4 -73 6
-34 11 -74 13 -180 8 -75 -4 -146 -7 -157 -7 -11 0 -82 3 -157 7 -98 5 -154 3
-197 -6 -48 -10 -64 -10 -76 0 -11 9 -48 10 -168 1 -127 -9 -158 -9 -183 3
-23 11 -63 12 -194 7 -91 -4 -304 -6 -475 -4 -191 1 -322 -2 -342 -8 -18 -6
-44 -24 -58 -41 l-25 -30 2 -496 c3 -447 1 -497 -13 -500 -14 -3 -16 41 -23
417 -3 231 -3 508 0 616 l7 195 1316 3 c724 1 1337 3 1362 5 37 1 48 -2 54
-15z m-153 -278 c-2 -16 -8 -34 -12 -39 -13 -13 -203 -7 -212 7 -4 7 -8 22 -8
34 0 20 5 22 73 26 39 2 92 3 117 3 44 -1 45 -2 42 -31z m-2202 -7 c0 -18 -3
-50 -6 -70 l-7 -38 -103 0 -104 0 0 70 0 70 110 0 110 0 0 -32z m338 -360 l2
-388 -95 -2 c-52 -1 -102 -2 -110 -2 -12 -1 -15 56 -20 382 -3 211 -3 387 1
393 3 6 50 8 112 7 l107 -3 3 -387z m360 361 l-3 -31 -75 -3 c-41 -2 -92 -6
-112 -10 -33 -7 -38 -5 -38 11 0 11 -3 29 -6 42 -6 22 -6 22 115 22 l122 0 -3
-31z m756 6 c9 -37 -10 -69 -37 -60 -12 4 -65 9 -117 11 -99 4 -107 8 -109 57
-1 15 12 17 128 17 l129 0 6 -25z m376 6 c6 -13 10 -154 10 -390 l0 -371 -125
0 -125 0 0 295 c0 218 3 300 12 315 10 16 10 24 0 40 -13 21 -17 112 -5 123 3
4 55 7 114 7 97 0 109 -2 119 -19z m-760 -41 c0 -41 -3 -50 -17 -50 -10 0 -26
-7 -35 -14 -10 -7 -48 -14 -85 -15 -38 -1 -75 -4 -84 -7 -17 -5 -29 36 -29
104 l0 32 125 0 125 0 0 -50z m275 -68 c80 5 105 3 105 -7 0 -8 -34 -14 -116
-19 -64 -3 -119 -4 -124 -1 -4 3 -6 14 -3 25 4 16 8 18 19 9 10 -8 47 -10 119
-7z m-645 0 c0 -24 -30 -32 -122 -32 -79 0 -98 3 -98 14 0 16 23 20 143 23 42
1 77 -1 77 -5z m1413 -1 c42 -1 77 -5 77 -10 0 -12 -50 -17 -137 -13 -56 3
-73 7 -73 18 0 10 8 13 28 10 15 -2 62 -5 105 -5z m-2121 -202 c3 -46 6 -165
7 -265 l1 -181 -107 -6 c-76 -3 -110 -2 -115 6 -9 15 -10 416 -2 480 l7 46 86
3 c47 2 93 3 101 2 12 -1 17 -20 22 -85z m1078 -178 l0 -269 -72 -7 c-40 -4
-95 -5 -123 -3 l-50 3 -3 230 c-2 127 0 249 3 273 l6 42 120 0 119 0 0 -269z
m-370 -5 l0 -263 -31 -7 c-17 -3 -69 -6 -115 -6 l-84 0 0 270 0 270 115 0 115
0 0 -264z m754 247 c-1 -7 -2 -125 -2 -263 l-2 -250 -130 0 -130 0 0 258 c0
142 3 261 6 265 4 3 63 5 133 4 94 -1 126 -5 125 -14z m742 -253 l1 -265 -71
2 c-39 1 -90 2 -113 3 l-43 0 0 263 0 262 113 0 112 0 1 -265z m-1863 -373
c15 -10 16 -17 6 -45 l-11 -32 -103 0 c-110 0 -115 2 -115 55 0 21 6 24 43 28
97 8 164 6 180 -6z m695 5 c39 -2 42 -4 42 -30 0 -46 -15 -52 -131 -52 -116 0
-119 2 -119 59 l0 28 83 -2 c45 -1 101 -2 125 -3z m810 -24 c7 -58 -5 -63
-130 -59 -62 1 -114 4 -115 4 0 1 -3 18 -5 37 l-3 35 80 6 c44 3 100 5 125 5
41 -1 45 -3 48 -28z m360 -15 l-3 -48 -105 4 c-58 2 -106 4 -107 5 0 0 -4 18
-8 38 -7 37 -7 37 32 41 21 2 73 4 116 5 l78 2 -3 -47z m-2208 20 c0 -10 -3
-28 -6 -40 -6 -22 -11 -23 -105 -23 -55 0 -99 4 -99 9 0 5 -3 23 -6 40 l-6 31
111 0 c99 0 111 -2 111 -17z m703 4 c3 -7 3 -25 0 -40 l-5 -27 -104 0 c-102 0
-104 0 -110 25 -13 50 -3 55 110 55 76 0 105 -3 109 -13z m757 -9 c0 -60 -9
-68 -69 -68 -31 0 -86 3 -123 7 l-68 6 0 38 0 39 130 0 c128 0 130 0 130 -22z"/>
<path d="M6339 4510 c-68 -7 -119 -32 -139 -70 -6 -12 -10 -258 -10 -676 l0
-656 38 -38 38 -39 1416 0 c1411 0 1417 0 1442 20 57 45 58 54 52 372 -3 161
-5 453 -6 650 l0 358 -46 44 -46 45 -1336 -1 c-736 -1 -1367 -5 -1403 -9z
m2706 -738 l0 -623 -29 5 c-16 3 -34 6 -40 6 -9 0 -11 130 -8 543 l4 544 -31
35 c-51 59 -82 68 -228 68 -152 0 -197 -11 -240 -56 -32 -35 -37 -50 -48 -146
-4 -32 -11 -58 -17 -58 -5 0 -31 18 -56 40 -54 48 -203 125 -260 135 -63 10
-106 -16 -157 -94 -23 -36 -117 -212 -208 -391 -221 -433 -251 -490 -259 -490
-5 0 -8 187 -8 415 0 291 -3 422 -12 439 -24 54 -48 60 -223 57 l-160 -2 -30
-30 -30 -29 -3 -395 -3 -395 -99 0 -100 0 0 395 0 395 -29 32 -29 33 -144 -3
c-109 -3 -152 -8 -183 -21 -75 -33 -70 1 -66 -538 l3 -483 -21 0 -21 0 0 615
0 615 728 3 c400 1 1015 2 1367 2 l640 0 0 -623z m-208 435 c9 -8 16 -32 17
-53 1 -38 1 -39 -44 -45 -25 -4 -90 -8 -145 -9 l-100 -3 -3 37 c-4 50 19 83
60 89 67 10 200 0 215 -16z m-681 -112 c43 -25 87 -48 96 -51 10 -3 18 -9 18
-14 0 -17 -40 -100 -48 -100 -4 0 -37 21 -73 46 -35 25 -81 54 -102 65 -34 18
-36 22 -26 42 14 27 40 57 49 57 4 0 42 -20 86 -45z m-1471 -64 l0 -44 -99 2
c-55 1 -104 4 -108 7 -4 3 -8 23 -8 45 l0 40 108 -3 107 -3 0 -44z m655 11 l0
-39 -101 -7 c-55 -3 -105 -4 -110 -1 -5 4 -9 24 -9 46 l0 39 110 0 110 0 0
-38z m1106 -437 c4 -187 4 -366 0 -398 l-7 -57 -235 0 c-184 0 -234 3 -234 13
0 26 265 538 379 732 l76 129 7 -39 c5 -22 11 -193 14 -380z m402 87 c-2 -149
-6 -274 -10 -278 -8 -8 -257 -8 -265 0 -3 2 -5 128 -6 278 l0 273 134 5 c74 3
138 2 142 -1 4 -3 7 -128 5 -277z m-818 207 c32 -17 73 -46 91 -65 l34 -35
-29 -52 c-16 -29 -59 -109 -95 -178 -36 -69 -73 -136 -81 -149 l-16 -23 -99
58 c-55 31 -102 59 -104 61 -2 1 20 49 49 106 30 57 69 135 89 173 20 39 41
85 48 103 15 41 37 42 113 1z m-690 -284 l0 -265 -104 0 c-99 0 -104 1 -110
23 -8 30 -8 492 1 500 3 4 53 7 110 7 l103 0 0 -265z m-655 -3 l0 -257 -107
-3 -108 -3 0 261 0 260 108 0 107 0 0 -258z m1029 -201 c4 -5 35 -26 71 -45
35 -20 71 -43 80 -52 23 -24 6 -39 -19 -16 -25 23 -85 54 -138 71 -27 9 -38
18 -38 32 0 20 34 27 44 10z m-15 -90 c52 -41 121 -73 143 -68 17 5 19 2 13
-21 -9 -38 -33 -72 -50 -72 -19 0 -177 69 -194 85 -7 7 -10 21 -7 33 7 22 44
72 53 72 3 0 22 -13 42 -29z m1159 -81 c4 -73 0 -75 -139 -73 -160 4 -159 3
-159 62 0 26 2 50 4 52 3 2 69 4 148 4 l143 0 3 -45z m-1870 7 c17 -12 15 -53
-5 -72 -14 -15 -29 -16 -92 -11 -41 4 -78 9 -83 12 -4 3 -8 22 -8 43 l0 37 88
0 c48 -1 93 -5 100 -9z m359 -1 c1 0 -2 -17 -6 -36 l-7 -35 -99 0 -98 0 -10
28 c-16 49 -9 52 109 49 60 -2 110 -5 111 -6z m-662 -6 c4 -6 4 -24 0 -41 l-7
-30 -101 3 -102 3 -3 38 -3 37 105 0 c61 0 107 -4 111 -10z m815 -80 c0 -6 -7
-10 -15 -10 -8 0 -15 2 -15 4 0 2 -3 12 -7 21 -5 15 -3 16 15 6 12 -7 22 -16
22 -21z"/>
<path d="M6765 2901 c-533 -7 -513 -4 -555 -74 -19 -30 -19 -55 -17 -717 2
-644 3 -687 20 -712 43 -62 -70 -58 1473 -58 1386 0 1407 0 1438 20 18 11 38
31 44 45 9 19 12 208 12 707 0 669 0 681 -21 714 -11 18 -35 43 -54 54 -35 21
-37 21 -947 24 -502 2 -1129 0 -1393 -3z m1607 -121 l677 0 0 -655 1 -655 -25
0 -25 0 0 556 c0 541 -1 557 -20 584 -31 44 -66 50 -235 39 -176 -11 -181 -11
-350 -1 -71 4 -150 4 -175 -1 -25 -4 -111 -3 -190 1 -114 7 -151 6 -172 -5
-35 -17 -63 -17 -91 1 -18 11 -49 12 -162 5 -77 -5 -153 -8 -170 -7 -16 1 -92
1 -167 1 -76 -1 -155 -2 -175 -2 -21 0 -94 2 -163 5 -96 4 -133 2 -160 -9 -30
-13 -37 -13 -57 0 -18 12 -53 15 -154 15 -115 -1 -133 -4 -160 -22 -61 -44
-59 -26 -53 -619 3 -298 2 -541 -3 -541 -33 1 -33 9 -31 661 l3 644 505 6
c278 3 588 4 690 2 102 -1 490 -3 862 -3z m-1706 -228 c6 -4 14 -22 17 -39 l7
-33 -105 0 c-58 0 -108 0 -112 0 -5 0 -8 15 -8 33 0 31 1 32 50 38 76 9 139
10 151 1z m722 -39 l3 -43 -115 0 c-126 0 -117 -4 -120 58 -1 21 47 30 154 28
l75 -1 3 -42z m1092 21 c6 -14 10 -36 10 -50 l0 -25 -135 3 -135 3 0 31 c0 52
13 55 198 62 48 2 53 0 62 -24z m-1450 -24 l0 -40 -109 0 -109 0 -7 30 c-4 16
-4 34 0 40 4 6 52 10 116 10 l109 0 0 -40z m713 33 c3 -5 7 -21 8 -38 4 -30 3
-30 -51 -36 -30 -3 -85 -4 -122 -1 l-68 5 0 32 c0 17 3 35 7 38 9 10 221 9
226 0z m357 -10 c0 -10 3 -28 6 -40 6 -23 6 -23 -115 -23 l-121 0 0 34 c0 19
6 37 13 39 6 3 58 6 115 6 91 1 102 -1 102 -16z m773 10 c3 -5 8 -23 12 -40
l7 -33 -141 0 c-134 0 -141 1 -141 20 0 11 9 29 20 40 18 18 33 20 129 20 61
0 112 -3 114 -7z m-95 -153 c100 0 103 -1 100 -22 -3 -21 -7 -21 -133 -20
-113 1 -130 3 -133 18 -5 21 17 36 43 29 11 -2 66 -5 123 -5z m-2088 -20 c0
-18 -7 -19 -115 -18 -106 0 -115 2 -115 19 0 18 9 19 115 19 108 0 115 -1 115
-20z m348 3 c-3 -16 -18 -18 -121 -21 -112 -3 -117 -2 -117 18 0 19 6 20 121
20 109 0 120 -2 117 -17z m350 0 c3 -10 -25 -13 -116 -13 -98 0 -121 3 -126
15 -5 14 10 15 116 13 86 -2 123 -7 126 -15z m362 0 c0 -16 -12 -18 -120 -18
-108 0 -120 2 -120 18 0 15 12 17 120 17 108 0 120 -2 120 -17z m351 -2 c-9
-16 -25 -20 -95 -22 -62 -3 -89 -9 -103 -21 -11 -10 -23 -18 -26 -18 -13 0 -7
68 6 73 6 3 61 6 120 6 103 1 107 0 98 -18z m389 5 c0 -19 -45 -26 -166 -26
-97 0 -104 1 -104 20 0 19 7 20 135 20 108 0 135 -3 135 -14z m-410 -46 c0 -5
-7 -10 -16 -10 -8 0 -12 5 -9 10 3 6 10 10 16 10 5 0 9 -4 9 -10z m10 -27 c3
-3 6 -130 8 -284 l3 -279 -115 0 -116 0 2 278 3 277 85 3 c58 2 80 6 70 12
-10 7 -4 8 20 4 19 -4 37 -9 40 -11z m-340 -272 l0 -280 -120 -3 -120 -3 0
275 0 275 92 -3 c51 -2 104 1 118 7 14 5 26 10 28 10 1 1 2 -125 2 -278z m736
160 c-3 -57 -6 -182 -6 -278 l0 -173 -130 0 -130 0 0 278 0 277 136 0 137 0
-7 -104z m270 97 l112 3 6 -27 c4 -14 4 -138 0 -275 l-7 -248 -126 -3 c-69 -2
-126 -3 -126 -3 0 0 1 127 3 283 3 207 7 280 15 275 7 -4 62 -6 123 -5z
m-2076 -278 l0 -270 -105 0 -105 0 0 265 0 264 103 4 c56 1 103 4 105 5 1 1 2
-119 2 -268z m353 258 c-2 -5 -3 -124 -3 -266 l0 -258 -112 0 -113 1 0 53 c1
28 2 146 3 262 l2 209 93 4 c118 4 133 4 130 -5z m347 -268 l0 -270 -116 0
c-102 0 -115 2 -110 16 3 9 6 127 6 264 l0 249 38 4 c20 2 70 4 110 5 l72 2 0
-270z m-345 -355 c0 -19 -8 -20 -117 -23 -112 -2 -118 -2 -118 17 0 18 8 21
83 24 140 6 152 5 152 -18z m723 -7 l3 -28 -123 3 c-117 2 -138 7 -138 34 0
13 79 20 195 19 58 -1 60 -2 63 -28z m1116 23 c4 -5 3 -16 0 -25 -5 -12 -27
-16 -112 -18 -99 -3 -107 -4 -107 -23 0 -19 7 -20 108 -20 l107 1 0 -53 0 -53
-120 0 c-120 0 -121 0 -130 26 -6 14 -10 59 -10 100 l0 74 129 0 c72 0 132 -4
135 -9z m-2206 -9 c8 -1 12 -27 12 -87 0 -83 -1 -85 -26 -91 -28 -7 -158 1
-174 11 -9 6 -15 157 -6 166 4 4 168 5 194 1z m1442 -17 c0 -25 0 -25 -99 -25
-55 0 -106 -2 -113 -5 -15 -6 -42 38 -31 49 4 3 60 6 125 6 l118 0 0 -25z
m372 -1 c-5 -26 -6 -26 -81 -23 -126 4 -141 2 -141 -21 0 -18 7 -20 78 -21 42
-1 82 0 87 1 57 15 55 16 55 -44 l0 -57 -122 3 -123 3 -3 93 -3 92 129 0 129
0 -5 -26z m-1106 -151 c-5 -11 -26 -13 -100 -10 -51 2 -98 7 -105 11 -6 4 -11
31 -11 60 l0 53 35 1 c19 1 37 -2 39 -7 9 -15 56 1 74 24 10 13 29 25 43 27
23 3 24 1 27 -71 2 -41 1 -80 -2 -88z m524 76 c0 -18 8 -19 100 -19 l100 0 0
-35 0 -35 -110 0 -110 0 0 61 c0 37 4 58 10 54 6 -3 10 -15 10 -26z m-964 -9
l94 0 0 -28 c0 -45 -16 -52 -111 -52 -66 0 -91 4 -103 16 -25 25 -16 80 11 70
8 -3 57 -6 109 -6z m714 -11 l101 -1 -3 -31 -3 -32 -115 0 -115 0 -3 43 c-3
40 -2 43 17 33 10 -6 65 -11 121 -12z"/>
<path d="M40 9135 c0 -27 1 -28 24 -19 24 9 20 44 -4 44 -15 0 -20 -7 -20 -25z"/>
<path d="M882 9104 c-1 -7 -21 -15 -44 -18 -41 -6 -43 -8 -45 -44 -3 -58 5
-82 27 -82 11 0 20 -4 20 -10 0 -5 5 -10 11 -10 5 0 7 5 3 12 -5 8 -2 9 9 5
22 -8 29 21 24 98 -2 33 -4 55 -5 49z"/>
<path d="M48 9093 c12 -2 30 -2 40 0 9 3 -1 5 -23 4 -22 0 -30 -2 -17 -4z"/>
<path d="M20 8942 c-8 -4 -17 -22 -18 -39 l-4 -33 116 0 116 0 0 24 c0 19 -6
26 -27 29 -22 3 -20 5 12 7 39 2 39 3 10 10 -38 10 -185 11 -205 2z"/>
<path d="M283 8923 c9 -2 23 -2 30 0 6 3 -1 5 -18 5 -16 0 -22 -2 -12 -5z"/>
<path d="M0 8279 l0 -42 83 6 c45 4 127 7 182 7 97 1 99 1 66 15 -18 8 -42 15
-52 15 -11 0 -19 6 -19 14 0 20 -33 26 -152 26 l-108 0 0 -41z"/>
<path d="M564 8288 c-7 -11 -13 -160 -14 -340 0 -69 -3 -80 -26 -103 -14 -14
-23 -29 -20 -32 3 -4 6 -2 6 3 0 5 9 -4 20 -21 18 -28 20 -47 20 -275 0 -135
-3 -255 -6 -267 -6 -21 -13 -23 -65 -23 l-59 0 -2 183 c-1 185 -2 223 -6 312
-2 44 -4 48 -16 33 -7 -10 -20 -18 -29 -18 -9 0 -18 -4 -21 -9 -4 -5 -9 -83
-12 -173 -3 -90 -8 -199 -12 -243 l-7 -80 -60 0 -60 0 -6 370 c-3 204 -6 372
-7 373 -1 2 -8 2 -14 0 -7 -3 -21 4 -32 14 -14 13 -35 18 -78 18 l-58 0 0 -39
0 -40 48 -3 47 -3 3 -338 c3 -271 1 -338 -10 -342 -7 -3 -29 -7 -48 -9 -35 -3
-35 -4 -38 -55 l-3 -51 220 0 c141 0 221 4 221 10 0 6 10 10 23 9 21 0 21 -1
2 -9 -14 -6 5 -9 57 -9 57 -1 81 3 92 15 14 13 16 69 17 442 1 235 2 434 3
442 0 8 -3 18 -9 22 -7 5 -6 8 1 8 6 0 11 39 12 103 l2 103 -29 17 c-34 20
-38 21 -47 5z m-244 -1133 c0 -10 -9 -15 -27 -14 -24 2 -25 2 -5 6 12 2 22 9
22 14 0 5 2 9 5 9 3 0 5 -7 5 -15z m-60 -5 c0 -5 -15 -9 -32 -9 l-33 1 30 8
c17 4 31 8 33 9 1 0 2 -3 2 -9z m167 -4 c4 -3 -17 -6 -46 -6 -29 0 -50 3 -48
8 6 8 85 7 94 -2z"/>
<path d="M747 8258 c-7 -36 0 -4636 8 -4698 4 -30 6 -64 5 -75 -3 -25 -7 -384
-13 -1120 -3 -308 -5 -621 -6 -695 l-1 -135 -50 -2 c-40 -1 -50 2 -51 15 -1
10 -1 184 1 388 2 264 -1 377 -9 392 -12 22 -14 22 -321 19 l-310 -2 0 -47 0
-48 100 0 c58 0 100 4 100 10 0 5 13 7 31 3 21 -4 34 -1 40 8 5 8 9 9 9 3 0
-7 15 -10 38 -9 46 4 82 15 82 26 0 5 7 9 15 9 8 0 15 -4 15 -8 0 -4 9 -8 19
-9 14 -1 18 3 14 14 -5 13 -2 15 11 10 10 -4 28 -10 41 -13 30 -8 34 -34 36
-284 2 -195 4 -296 7 -367 2 -25 7 -33 21 -33 11 0 22 -4 25 -9 3 -4 -5 -6
-18 -4 -21 4 -24 0 -33 -44 -7 -35 -6 -50 1 -51 6 0 22 -4 34 -8 22 -6 23 -5
11 14 -7 11 -19 18 -26 15 -7 -3 -13 0 -13 5 0 19 17 22 30 7 7 -8 18 -15 25
-15 8 0 16 -6 19 -12 5 -11 7 -11 12 0 9 20 64 15 65 -5 0 -10 3 -13 5 -6 4 8
16 10 33 7 15 -3 48 1 72 10 24 8 36 15 27 16 -21 0 -21 -38 -22 921 -1 486
-4 670 -12 680 -15 18 -11 383 4 402 12 14 4 79 -9 71 -5 -3 -9 9 -9 25 0 21
-5 31 -15 31 -8 0 -15 7 -15 16 0 8 5 12 11 8 7 -4 7 1 -1 16 -6 12 -8 29 -4
38 11 27 14 103 3 97 -13 -8 -11 9 2 22 16 16 18 53 21 580 2 266 6 483 11
483 4 0 7 45 7 100 0 77 -4 107 -17 126 -10 15 -18 54 -21 100 -2 41 -9 74
-13 74 -5 0 -9 23 -9 50 0 42 3 50 19 50 25 0 35 42 37 165 0 55 4 180 9 277
4 97 4 185 0 195 -5 10 -7 23 -6 28 2 6 5 495 8 1088 4 843 2 1081 -7 1092 -7
8 -25 15 -40 15 -21 0 -29 -6 -33 -22z m50 -2645 c-3 -10 -5 -2 -5 17 0 19 2
27 5 18 2 -10 2 -26 0 -35z m-444 -3325 c4 -14 2 -18 -10 -14 -8 3 -21 6 -29
6 -8 0 -14 6 -14 14 0 22 47 17 53 -6z"/>
<path d="M342 7863 c-9 -3 -4 -10 13 -19 23 -12 29 -12 41 0 11 12 10 15 -9
20 -25 6 -27 6 -45 -1z"/>
<path d="M450 7017 c-69 -5 -192 -10 -275 -12 -82 -1 -156 -3 -162 -4 -8 0
-13 -14 -13 -32 l0 -30 98 6 c135 8 242 7 347 -2 l90 -8 8 -175 c4 -96 6 -284
5 -418 -3 -203 -5 -244 -18 -252 -8 -5 -45 -10 -82 -10 -66 0 -68 1 -68 26 0
14 -7 32 -15 40 -8 9 -15 12 -15 8 0 -16 -29 32 -30 49 0 9 -5 17 -10 17 -13
0 -1 -52 13 -61 6 -4 -3 -20 -19 -37 -26 -26 -37 -30 -100 -34 -70 -5 -71 -5
-83 24 -7 16 -11 40 -8 54 3 20 0 24 -19 24 -18 0 -24 6 -24 23 -1 19 -2 20
-10 5 -6 -9 -9 -25 -8 -35 4 -53 -4 -86 -27 -109 -15 -15 -25 -36 -25 -53 l0
-28 163 3 c452 11 437 10 452 30 12 16 14 99 15 502 l0 482 -26 10 c-14 6 -26
9 -27 8 -1 -1 -58 -6 -127 -11z"/>
<path d="M0 6750 c0 -33 3 -41 15 -36 8 3 21 -2 30 -10 13 -14 15 -13 15 7 0
12 3 19 7 15 4 -4 6 -36 5 -71 -2 -56 0 -65 19 -75 28 -15 37 -4 41 50 3 43 4
45 43 52 22 3 75 10 117 13 43 4 78 10 78 14 0 5 -11 20 -25 35 -22 24 -30 26
-107 26 -78 -1 -85 -3 -118 -31 -32 -27 -35 -28 -38 -10 -4 23 -29 46 -59 55
-21 7 -23 4 -23 -34z m307 4 c-3 -3 -12 -4 -19 -1 -8 3 -5 6 6 6 11 1 17 -2
13 -5z"/>
<path d="M357 6643 c-4 -3 -7 -15 -7 -25 0 -11 -7 -18 -19 -18 -14 0 -20 -10
-25 -37 -15 -92 -16 -113 -3 -113 8 0 9 -3 1 -8 -15 -10 -5 -82 11 -82 16 0
25 -22 25 -61 0 -20 -4 -28 -11 -23 -8 5 -8 1 0 -14 6 -11 11 -34 11 -51 0
-33 23 -44 34 -16 3 8 1 15 -4 15 -6 0 -10 7 -10 15 0 8 5 15 10 15 14 0 12
37 -2 44 -10 5 -10 7 0 12 6 3 12 23 12 44 0 22 -5 40 -12 43 -10 3 -10 7 0
20 8 9 11 24 8 34 -3 10 -6 62 -8 116 -1 53 -3 97 -4 97 0 0 -4 -3 -7 -7z"/>
<path d="M66 6291 c-4 -7 -5 -15 -2 -18 9 -9 19 4 14 18 -4 11 -6 11 -12 0z"/>
<path d="M16 5865 c4 -8 1 -15 -5 -15 -6 0 -11 -9 -11 -20 0 -18 7 -20 55 -20
41 0 56 4 64 18 10 16 10 16 11 0 0 -21 35 -25 44 -5 5 10 7 10 12 0 9 -20 22
-15 27 10 l4 22 2 -22 c0 -13 6 -23 12 -23 5 0 8 4 4 9 -3 5 -1 12 5 16 5 3
10 -1 10 -9 0 -9 5 -16 10 -16 6 0 10 6 10 14 0 8 4 18 10 21 6 3 7 -1 4 -9
-4 -11 0 -16 10 -16 9 0 16 6 16 14 0 9 7 12 20 9 11 -3 17 -9 14 -15 -7 -11
47 1 61 13 17 16 35 9 35 -13 0 -19 2 -20 10 -8 8 13 10 12 10 -4 0 -20 0 -20
15 0 11 13 13 14 9 3 -4 -13 0 -15 20 -12 21 4 26 0 35 -33 6 -22 11 -55 11
-74 0 -35 1 -36 34 -32 l34 4 7 91 c7 82 6 92 -11 104 -15 11 -66 14 -236 12
-125 -1 -218 -6 -218 -11 0 -5 -6 -6 -12 -1 -7 4 -41 9 -75 10 -52 3 -61 1
-57 -12z"/>
<path d="M0 5620 c0 -38 2 -40 30 -40 34 0 31 13 31 -165 0 -55 2 -94 5 -87 3
6 11 9 17 6 8 -5 8 -2 0 7 -7 7 -13 20 -12 29 0 9 2 10 5 3 3 -7 12 -9 21 -6
10 4 14 2 10 -4 -4 -6 -4 -19 0 -29 11 -29 24 27 29 126 3 47 7 90 9 97 3 9
60 19 137 23 19 1 25 20 7 20 -8 0 -7 5 1 15 14 17 15 17 -22 32 -39 17 -94 8
-133 -21 -39 -30 -45 -31 -45 -12 0 20 -39 46 -67 46 -20 0 -23 -5 -23 -40z
m100 -216 c0 -8 -19 -13 -24 -6 -3 5 1 9 9 9 8 0 15 -2 15 -3z"/>
<path d="M570 5648 c0 -6 -3 -9 -6 -5 -4 3 -14 -3 -24 -15 -15 -19 -15 -25 -3
-49 13 -27 17 -72 27 -364 2 -49 -1 -114 -5 -144 -6 -39 -5 -59 4 -70 9 -12 9
-13 0 -7 -9 5 -13 0 -13 -18 0 -41 -25 -56 -91 -56 -38 0 -66 5 -74 14 -8 7
-12 16 -9 19 3 2 -11 7 -30 9 -19 2 -33 1 -31 -3 20 -31 -151 -62 -180 -32 -9
9 -16 37 -16 71 -1 31 -4 45 -6 30 -5 -34 -18 -36 -26 -6 -8 27 -19 17 -23
-19 -2 -16 -7 -44 -11 -63 -7 -28 -13 -34 -31 -32 -20 3 -22 -1 -22 -45 l0
-48 187 4 c155 3 189 6 199 19 10 14 13 13 23 -4 9 -13 14 -15 17 -6 4 7 25
12 55 12 27 0 49 5 49 10 0 6 10 2 22 -10 16 -15 24 -17 30 -8 4 7 8 9 8 5 0
-4 10 -3 21 4 l22 11 -6 384 c-4 243 -10 391 -17 404 -12 22 -40 28 -40 8z
m-213 -814 c-3 -3 -12 -4 -19 -1 -8 3 -5 6 6 6 11 1 17 -2 13 -5z"/>
<path d="M340 5630 c0 -6 -4 -8 -10 -5 -5 3 -11 1 -11 -4 -2 -19 -4 -26 -10
-36 -2 -5 -3 -41 -1 -78 4 -67 4 -68 30 -65 21 2 27 8 26 26 0 12 4 22 10 22
6 0 4 5 -4 10 -13 8 -12 10 3 10 10 0 17 8 17 20 0 11 7 23 15 26 8 4 15 13
15 21 0 10 6 12 21 8 15 -5 19 -4 14 5 -4 6 -18 10 -31 7 -14 -2 -27 0 -30 4
-3 5 12 9 33 9 28 0 34 3 23 10 -26 17 -61 12 -67 -10 -7 -26 -23 -26 -23 -1
0 11 -4 23 -10 26 -5 3 -10 1 -10 -5z"/>
<path d="M801 5214 c0 -11 3 -14 6 -6 3 7 2 16 -1 19 -3 4 -6 -2 -5 -13z"/>
<path d="M822 5170 c0 -19 2 -27 5 -17 2 9 2 25 0 35 -3 9 -5 1 -5 -18z"/>
<path d="M364 5153 c-10 -46 -12 -49 -13 -19 -1 37 -6 31 -15 -16 -6 -31 -4
-38 9 -38 11 0 15 -10 15 -36 0 -23 4 -33 11 -28 6 3 8 17 5 30 -4 14 -2 24 4
24 6 0 8 5 4 12 -4 6 -6 31 -5 55 1 49 -6 57 -15 16z"/>
<path d="M503 4823 c9 -2 25 -2 35 0 9 3 1 5 -18 5 -19 0 -27 -2 -17 -5z"/>
<path d="M2 4666 l-2 -44 269 -4 c245 -3 271 -5 290 -22 20 -18 58 -15 46 3
-3 5 -1 12 5 16 14 9 13 58 -2 74 -11 11 -10 12 1 6 9 -5 12 -4 7 3 -5 8 -41
11 -109 10 -92 -2 -95 -2 -27 -5 93 -5 110 -18 36 -27 -31 -4 -56 -12 -56 -18
0 -7 -52 -9 -152 -7 -134 4 -155 6 -167 22 -7 10 -19 16 -27 13 -9 -3 -14 1
-14 12 -1 16 -1 16 -11 0 -12 -22 -55 -24 -63 -3 -11 29 -23 15 -24 -29z"/>
<path d="M177 4703 c18 -2 50 -2 70 0 21 2 7 4 -32 4 -38 0 -55 -2 -38 -4z"/>
<path d="M333 4703 c15 -2 37 -2 50 0 12 2 0 4 -28 4 -27 0 -38 -2 -22 -4z"/>
<path d="M123 4458 c-25 -12 -30 -33 -10 -41 6 -3 2 -6 -10 -6 -12 -1 -25 -7
-30 -13 -4 -7 -8 -62 -8 -123 -1 -89 0 -99 6 -50 l7 60 -4 -70 c-2 -38 -6
-124 -9 -190 -12 -281 -17 -325 -32 -341 -13 -13 -17 -13 -24 -2 -5 8 -9 -8
-9 -40 l0 -54 285 6 c215 4 291 9 311 19 l27 14 2 146 c3 121 1 145 -11 140
-17 -6 -18 -20 -1 -26 10 -4 10 -7 0 -18 -7 -7 -13 -34 -13 -60 0 -37 -3 -46
-16 -45 -11 1 -22 -13 -31 -41 l-15 -43 -59 -1 c-32 -1 -64 -2 -71 -3 -19 -2
-29 53 -28 161 0 56 -2 126 -6 155 -7 45 -9 49 -16 28 -6 -21 -7 -20 -2 5 3
17 7 48 8 70 2 23 1 26 -1 8 -3 -20 -10 -33 -19 -33 -9 0 -14 -11 -15 -32 -1
-18 -2 -91 -3 -163 -2 -71 -6 -142 -11 -157 -7 -26 -11 -28 -59 -29 -28 0 -64
-3 -80 -5 -28 -5 -61 21 -49 39 5 8 4 98 -1 296 -2 77 -7 115 -16 121 -8 5
-10 21 -7 46 4 22 11 74 18 117 6 42 16 77 21 77 5 0 7 3 5 8 -3 4 29 9 71 10
43 2 79 5 81 7 2 2 0 16 -3 32 -5 19 -10 23 -15 14 -5 -8 -10 -9 -12 -3 -6 15
-120 23 -146 10z"/>
<path d="M445 4460 c-11 -5 -38 -9 -61 -9 -28 -1 -47 -8 -59 -21 -10 -11 -14
-20 -9 -20 5 0 3 -4 -4 -9 -22 -13 6 -201 29 -201 21 0 26 13 35 92 4 35 10
70 15 79 10 20 145 37 162 20 16 -16 27 -13 27 6 0 14 3 14 12 5 10 -10 10
-15 -2 -23 -11 -8 -12 -12 -2 -16 15 -6 16 -43 0 -43 -9 0 -8 -3 1 -12 11 -11
14 -10 18 0 3 6 8 10 11 8 9 -6 9 61 -1 70 -4 4 -2 13 4 21 17 19 -9 46 -38
40 -13 -2 -23 0 -23 4 0 13 -34 11 -49 -3 -10 -11 -12 -10 -9 2 4 17 -28 23
-57 10z"/>
<path d="M610 4279 c0 -5 5 -7 10 -4 6 3 10 8 10 11 0 2 -4 4 -10 4 -5 0 -10
-5 -10 -11z"/>
<path d="M600 3940 c0 -5 5 -10 10 -10 6 0 10 5 10 10 0 6 -4 10 -10 10 -5 0
-10 -4 -10 -10z"/>
<path d="M781 3724 c0 -11 3 -14 6 -6 3 7 2 16 -1 19 -3 4 -6 -2 -5 -13z"/>
<path d="M0 3440 l0 -41 248 1 c136 1 262 1 280 1 l32 -1 0 -101 c0 -92 2
-101 20 -106 23 -6 27 -23 6 -23 -8 0 -18 -6 -23 -12 -4 -7 -10 -146 -13 -308
l-5 -295 -78 -8 c-43 -5 -80 -7 -82 -5 -2 2 -5 54 -8 116 -2 62 -7 116 -11
119 -3 4 -6 -3 -6 -15 0 -15 -6 -22 -19 -22 -14 0 -20 -10 -25 -46 -3 -26 -6
-61 -6 -78 0 -22 -3 -27 -9 -17 -7 11 -10 7 -13 -15 -3 -29 -3 -29 -80 -32
l-78 -3 0 70 c0 38 -4 73 -10 76 -8 5 -6 156 4 282 2 18 -1 30 -6 27 -4 -3 -8
8 -8 25 0 16 5 33 10 36 6 4 8 11 5 16 -4 5 -3 29 1 54 l6 45 90 0 c49 0 87
-4 84 -8 -2 -4 8 -9 24 -10 26 -2 40 11 45 43 2 17 -16 46 -26 40 -5 -4 -9 -1
-9 4 0 7 -34 11 -93 11 -75 0 -100 -4 -132 -21 -38 -20 -56 -25 -99 -28 -18
-1 -17 -3 7 -28 30 -33 47 -96 45 -173 -1 -54 -1 -54 -8 -15 -7 36 -7 34 -3
-10 14 -177 15 -226 2 -241 -10 -13 -10 -17 2 -25 9 -6 10 -12 4 -16 -5 -5
-11 -42 -13 -83 -4 -85 -6 -90 -33 -90 -15 0 -19 -7 -19 -35 l0 -35 309 0 309
0 11 43 c11 44 8 948 -4 967 -4 6 -131 10 -316 10 l-309 0 0 -40z m620 -924
c0 -3 -4 -8 -10 -11 -5 -3 -10 -1 -10 4 0 6 5 11 10 11 6 0 10 -2 10 -4z"/>
<path d="M306 3085 c-3 -8 -1 -15 4 -15 6 0 10 7 10 15 0 8 -2 15 -4 15 -2 0
-6 -7 -10 -15z"/>
<path d="M343 2993 c-23 -4 -34 -43 -13 -43 6 0 10 -6 10 -14 0 -8 6 -16 14
-19 11 -4 14 4 14 39 0 24 0 43 -1 43 -1 -1 -12 -4 -24 -6z"/>
<path d="M39 2084 c-9 -11 -5 -16 19 -25 17 -6 35 -20 39 -32 7 -22 7 -476 0
-484 -3 -2 -24 -4 -49 -5 l-45 0 -2 -54 -2 -54 130 0 129 0 -11 30 c-8 22 -16
28 -29 24 -13 -4 -18 0 -18 15 0 12 5 21 12 21 7 0 5 6 -4 18 -13 14 -17 60
-21 244 -3 126 -2 230 3 233 4 3 34 6 65 8 42 3 62 9 73 23 14 18 14 18 9 -3
-3 -13 -2 -23 1 -23 4 0 6 -84 4 -187 -1 -104 -2 -212 -2 -240 0 -48 -2 -53
-22 -53 -37 0 -9 -14 34 -17 22 -2 47 -8 54 -14 16 -13 68 -3 59 11 -4 6 -10
8 -15 5 -15 -9 -21 49 -29 294 -6 200 -11 245 -24 258 -19 19 -155 22 -201 4
-20 -8 -32 -8 -42 -1 -20 17 -102 20 -115 4z"/>
<path d="M240 1530 c8 -5 20 -10 25 -10 6 0 3 5 -5 10 -8 5 -19 10 -25 10 -5
0 -3 -5 5 -10z"/>
<path d="M1143 1533 c15 -2 37 -2 50 0 12 2 0 4 -28 4 -27 0 -38 -2 -22 -4z"/>
<path d="M1578 1533 c12 -2 32 -2 45 0 12 2 2 4 -23 4 -25 0 -35 -2 -22 -4z"/>
<path d="M5408 1533 c23 -2 59 -2 80 0 20 2 1 4 -43 4 -44 0 -61 -2 -37 -4z"/>
<path d="M855 1467 c-13 -7 -89 -11 -215 -12 -120 0 -196 -4 -197 -10 -2 -6
116 -10 331 -10 184 0 332 3 330 7 -2 3 2 8 8 11 7 3 -32 5 -86 5 -71 0 -102
4 -108 14 -8 10 -11 11 -15 0 -3 -9 -9 -10 -17 -3 -7 6 -18 6 -31 -2z"/>
<path d="M1153 1121 c-23 -4 -48 -13 -57 -20 -24 -20 -20 -64 9 -91 21 -19 32
-22 80 -18 73 6 100 31 91 82 -4 19 -10 37 -14 39 -17 11 -70 14 -109 8z"/>
<path d="M5295 1122 c-63 -8 -85 -60 -42 -100 21 -20 34 -22 143 -22 115 0
122 1 143 24 23 25 24 51 3 84 -9 13 -181 23 -247 14z"/>
<path d="M9842 1113 c-32 -27 -37 -64 -12 -96 27 -35 49 -34 84 2 21 22 26 34
21 54 -12 47 -60 68 -93 40z"/>
<path d="M781 1094 c-27 -34 -26 -50 4 -79 28 -29 70 -32 105 -8 36 24 39 32
28 65 -19 55 -101 68 -137 22z"/>
<path d="M497 1092 c-23 -25 -22 -69 2 -82 54 -28 129 7 115 53 -3 12 -11 28
-16 35 -16 19 -82 15 -101 -6z"/>
</g>
</svg>
